<svg xmlns="http://www.w3.org/2000/svg" width="32" height="32" fill="none" viewBox="0 0 32 32"><path fill="url(#paint0_radial_4002_2836)" d="M5.428 29.911h21.144c-.19-5.356-4.591-9.64-9.994-9.64h-1.156c-5.403 0-9.805 4.284-9.994 9.64Z"/><path fill="url(#paint1_radial_4002_2836)" d="M5.428 29.911h21.144c-.19-5.356-4.591-9.64-9.994-9.64h-1.156c-5.403 0-9.805 4.284-9.994 9.64Z"/><path fill="url(#paint2_linear_4002_2836)" d="M5.428 29.911h21.144c-.19-5.356-4.591-9.64-9.994-9.64h-1.156c-5.403 0-9.805 4.284-9.994 9.64Z"/><path fill="url(#paint3_linear_4002_2836)" d="M5.428 29.911h21.144c-.19-5.356-4.591-9.64-9.994-9.64h-1.156c-5.403 0-9.805 4.284-9.994 9.64Z"/><path fill="url(#paint4_radial_4002_2836)" d="M9.058 29.911h-3.63a9.98 9.98 0 0 1 3.63-7.355v7.355Z"/><path fill="url(#paint5_linear_4002_2836)" d="M9.058 29.911h-3.63a9.98 9.98 0 0 1 3.63-7.355v7.355Z"/><path fill="url(#paint6_radial_4002_2836)" d="M22.942 29.911h3.63a9.98 9.98 0 0 0-3.63-7.355v7.355Z"/><path fill="url(#paint7_radial_4002_2836)" d="M22.942 29.911h3.63a9.98 9.98 0 0 0-3.63-7.355v7.355Z"/><g filter="url(#filter0_i_4002_2836)"><path fill="url(#paint8_radial_4002_2836)" d="M11.926 20.161c-1.363.418-2.538 1.308-3.179 1.936a.462.462 0 0 0 .011.659l.65.649a.523.523 0 0 0 .705.02 12.252 12.252 0 0 1 3.106-1.857l-1.293-1.407Z"/><path fill="url(#paint9_radial_4002_2836)" d="M11.926 20.161c-1.363.418-2.538 1.308-3.179 1.936a.462.462 0 0 0 .011.659l.65.649a.523.523 0 0 0 .705.02 12.252 12.252 0 0 1 3.106-1.857l-1.293-1.407Z"/></g><g filter="url(#filter1_ii_4002_2836)"><path fill="#554B59" d="M20.046 20.161c1.364.418 2.538 1.308 3.179 1.936a.461.461 0 0 1-.011.659l-.65.649a.523.523 0 0 1-.704.02 12.252 12.252 0 0 0-3.107-1.857l1.293-1.407Z"/><path fill="url(#paint10_radial_4002_2836)" d="M20.046 20.161c1.364.418 2.538 1.308 3.179 1.936a.461.461 0 0 1-.011.659l-.65.649a.523.523 0 0 1-.704.02 12.252 12.252 0 0 0-3.107-1.857l1.293-1.407Z"/><path fill="url(#paint11_radial_4002_2836)" d="M20.046 20.161c1.364.418 2.538 1.308 3.179 1.936a.461.461 0 0 1-.011.659l-.65.649a.523.523 0 0 1-.704.02 12.252 12.252 0 0 0-3.107-1.857l1.293-1.407Z"/></g><g filter="url(#filter2_f_4002_2836)"><ellipse cx="9.937" cy="22.244" fill="#321F22" rx=".641" ry=".524" transform="rotate(-40.534 9.937 22.244)"/></g><ellipse cx="9.886" cy="22.154" fill="url(#paint12_radial_4002_2836)" rx=".641" ry=".524" transform="rotate(-40.534 9.886 22.154)"/><g filter="url(#filter3_f_4002_2836)"><ellipse fill="#3E3138" rx=".641" ry=".494" transform="scale(-1 1) rotate(-35.343 23.849 45.555)"/></g><ellipse fill="url(#paint13_radial_4002_2836)" rx=".641" ry=".524" transform="scale(-1 1) rotate(-40.534 18.955 40.983)"/><g filter="url(#filter4_iii_4002_2836)"><rect width="7.594" height="9.594" x="12.172" y="14.927" fill="url(#paint14_radial_4002_2836)" rx="3.797"/><rect width="7.594" height="9.594" x="12.172" y="14.927" fill="url(#paint15_radial_4002_2836)" rx="3.797"/><rect width="7.594" height="9.594" x="12.172" y="14.927" fill="url(#paint16_radial_4002_2836)" rx="3.797"/></g><rect width="4.141" height="5.141" x="13.898" y="18.099" fill="url(#paint17_radial_4002_2836)" rx="1.969"/><path fill="url(#paint18_linear_4002_2836)" d="M15.49 23.203v6.708h.989v-6.714a1.974 1.974 0 0 1-.409.042h-.203c-.129 0-.255-.012-.377-.036Z"/><path fill="url(#paint19_linear_4002_2836)" d="M15.49 23.203v6.708h.989v-6.714a1.974 1.974 0 0 1-.409.042h-.203c-.129 0-.255-.012-.377-.036Z"/><g filter="url(#filter5_f_4002_2836)"><circle cx="17.439" cy="25.445" r=".545" fill="#F6265E"/></g><g filter="url(#filter6_f_4002_2836)"><circle cx="17.439" cy="28.445" r=".545" fill="#F6265E"/></g><circle cx="17.494" cy="25.374" r=".545" fill="url(#paint20_radial_4002_2836)"/><circle cx="17.494" cy="28.374" r=".545" fill="url(#paint21_radial_4002_2836)"/><circle cx="11.239" cy="15.255" r="1.671" fill="url(#paint22_radial_4002_2836)"/><g filter="url(#filter7_f_4002_2836)"><circle cx="11.239" cy="15.255" r=".996" fill="url(#paint23_linear_4002_2836)"/></g><g filter="url(#filter8_i_4002_2836)"><circle cx="20.761" cy="15.255" r="1.671" fill="url(#paint24_linear_4002_2836)"/><circle cx="20.761" cy="15.255" r="1.671" fill="url(#paint25_radial_4002_2836)"/></g><g filter="url(#filter9_f_4002_2836)"><circle cx="20.761" cy="15.255" r=".996" fill="#FFBF34"/><circle cx="20.761" cy="15.255" r=".996" fill="url(#paint26_radial_4002_2836)"/><circle cx="20.761" cy="15.255" r=".996" fill="url(#paint27_radial_4002_2836)"/></g><g filter="url(#filter10_i_4002_2836)"><path fill="url(#paint28_radial_4002_2836)" d="M10.887 14.642a30.027 30.027 0 0 1-.059-1.44c0-.266.108-.587.322-.747l.162-.16c.268-.214.375-.534.375-.854v-.854a.52.52 0 0 1 .43-.534c.644-.16 1.986-.427 3.92-.427 1.932 0 3.274.267 3.919.427.215.053.43.267.43.534v.854c0 .32.16.64.375.854.503.352.471.546.43.96-.013.13-.054 1.196-.09 1.442l-.266 3.962c-.16 1.771-1.553 3.006-3.213 3.006h-3.214c-1.713 0-3.052-1.235-3.213-3.006l-.308-4.017Z"/><path fill="url(#paint29_linear_4002_2836)" d="M10.887 14.642a30.027 30.027 0 0 1-.059-1.44c0-.266.108-.587.322-.747l.162-.16c.268-.214.375-.534.375-.854v-.854a.52.52 0 0 1 .43-.534c.644-.16 1.986-.427 3.92-.427 1.932 0 3.274.267 3.919.427.215.053.43.267.43.534v.854c0 .32.16.64.375.854.503.352.471.546.43.96-.013.13-.054 1.196-.09 1.442l-.266 3.962c-.16 1.771-1.553 3.006-3.213 3.006h-3.214c-1.713 0-3.052-1.235-3.213-3.006l-.308-4.017Z"/><path fill="url(#paint30_radial_4002_2836)" d="M10.887 14.642a30.027 30.027 0 0 1-.059-1.44c0-.266.108-.587.322-.747l.162-.16c.268-.214.375-.534.375-.854v-.854a.52.52 0 0 1 .43-.534c.644-.16 1.986-.427 3.92-.427 1.932 0 3.274.267 3.919.427.215.053.43.267.43.534v.854c0 .32.16.64.375.854.503.352.471.546.43.96-.013.13-.054 1.196-.09 1.442l-.266 3.962c-.16 1.771-1.553 3.006-3.213 3.006h-3.214c-1.713 0-3.052-1.235-3.213-3.006l-.308-4.017Z"/><path fill="url(#paint31_radial_4002_2836)" d="M10.887 14.642a30.027 30.027 0 0 1-.059-1.44c0-.266.108-.587.322-.747l.162-.16c.268-.214.375-.534.375-.854v-.854a.52.52 0 0 1 .43-.534c.644-.16 1.986-.427 3.92-.427 1.932 0 3.274.267 3.919.427.215.053.43.267.43.534v.854c0 .32.16.64.375.854.503.352.471.546.43.96-.013.13-.054 1.196-.09 1.442l-.266 3.962c-.16 1.771-1.553 3.006-3.213 3.006h-3.214c-1.713 0-3.052-1.235-3.213-3.006l-.308-4.017Z"/><path fill="url(#paint32_radial_4002_2836)" d="M10.887 14.642a30.027 30.027 0 0 1-.059-1.44c0-.266.108-.587.322-.747l.162-.16c.268-.214.375-.534.375-.854v-.854a.52.52 0 0 1 .43-.534c.644-.16 1.986-.427 3.92-.427 1.932 0 3.274.267 3.919.427.215.053.43.267.43.534v.854c0 .32.16.64.375.854.503.352.471.546.43.96-.013.13-.054 1.196-.09 1.442l-.266 3.962c-.16 1.771-1.553 3.006-3.213 3.006h-3.214c-1.713 0-3.052-1.235-3.213-3.006l-.308-4.017Z"/><path fill="url(#paint33_linear_4002_2836)" d="M10.887 14.642a30.027 30.027 0 0 1-.059-1.44c0-.266.108-.587.322-.747l.162-.16c.268-.214.375-.534.375-.854v-.854a.52.52 0 0 1 .43-.534c.644-.16 1.986-.427 3.92-.427 1.932 0 3.274.267 3.919.427.215.053.43.267.43.534v.854c0 .32.16.64.375.854.503.352.471.546.43.96-.013.13-.054 1.196-.09 1.442l-.266 3.962c-.16 1.771-1.553 3.006-3.213 3.006h-3.214c-1.713 0-3.052-1.235-3.213-3.006l-.308-4.017Z"/></g><path fill="#D47615" d="m20.815 8.772.43.213c.75.374 1.18 1.228 1.02 2.136l-.591 3.043c-.053.314-.26.525-.573.533.036-.504.07-1.317.082-1.446.044-.433-.025-.56-.422-.956-.215-.213-.376-.534-.376-.854v-.854c0-.267-.215-.48-.43-.534-.644-.16-1.986-.427-3.919-.427s-3.275.267-3.92.427a.52.52 0 0 0-.429.534v.854c0 .32-.107.64-.375.854l-.162.16c-.214.16-.323.495-.323.762.014.156.036 1.052.06 1.425a.634.634 0 0 1-.596-.532l-.59-3.043c-.108-.854.322-1.708 1.074-2.082 1.014-.445 1.384-1.12 2.2-1.815.591-.534 1.45-.694 2.202-.32.537.16 1.128.16 1.665 0 .805-.267 1.718-.053 2.362.534l.805.8c.215.267.483.428.806.588Z"/><g filter="url(#filter11_f_4002_2836)"><path fill="#F1901C" d="m15.716 15.133-.821 1.701c-.102.35.142.7.488.7h.738c.346 0 .59-.355.489-.7l-.5-1.701c-.106-.377-.282-.377-.394 0Z"/></g><g filter="url(#filter12_f_4002_2836)"><path fill="#FFAB1E" d="m15.609 14.97-.532 1.701a.54.54 0 0 0 .52.7h.788a.54.54 0 0 0 .52-.7l-.531-1.701c-.114-.377-.646-.377-.765 0Z"/><path fill="url(#paint34_linear_4002_2836)" d="m15.609 14.97-.532 1.701a.54.54 0 0 0 .52.7h.788a.54.54 0 0 0 .52-.7l-.531-1.701c-.114-.377-.646-.377-.765 0Z"/><path fill="url(#paint35_linear_4002_2836)" d="m15.609 14.97-.532 1.701a.54.54 0 0 0 .52.7h.788a.54.54 0 0 0 .52-.7l-.531-1.701c-.114-.377-.646-.377-.765 0Z"/><path fill="url(#paint36_linear_4002_2836)" d="m15.609 14.97-.532 1.701a.54.54 0 0 0 .52.7h.788a.54.54 0 0 0 .52-.7l-.531-1.701c-.114-.377-.646-.377-.765 0Z"/></g><g filter="url(#filter13_f_4002_2836)"><path fill="url(#paint37_linear_4002_2836)" d="m15.609 14.806-.532 1.702a.54.54 0 0 0 .52.7h.788a.54.54 0 0 0 .52-.7l-.531-1.702c-.114-.376-.646-.376-.765 0Z"/></g><g filter="url(#filter14_f_4002_2836)"><path stroke="url(#paint38_radial_4002_2836)" stroke-width=".2" d="M15.991 18.388c-.508 0-.985-.12-1.386-.329-.137-.07-.285.085-.198.21.335.508.919.846 1.584.846.666 0 1.25-.338 1.585-.846.086-.13-.061-.28-.198-.21-.402.21-.874.33-1.387.33Z"/></g><path fill="#8A004F" d="M15.991 18.388c-.508 0-.985-.12-1.386-.329-.137-.07-.285.085-.198.21.335.508.919.846 1.584.846.666 0 1.25-.338 1.585-.846.086-.13-.061-.28-.198-.21-.402.21-.874.33-1.387.33Z"/><path fill="#fff" d="M18.381 13.823c.654 0 1.206.451 1.356 1.06a.274.274 0 0 1-.268.341h-2.233a.23.23 0 0 1-.227-.272 1.399 1.399 0 0 1 1.372-1.129Z"/><path fill="url(#paint39_radial_4002_2836)" d="M18.174 14.095a.893.893 0 0 1 .86 1.129H17.31a.896.896 0 0 1 .865-1.129Z"/><path fill="#000" d="M17.663 14.989a.51.51 0 0 1 .511-.512.51.51 0 0 1 .455.747h-.905a.462.462 0 0 1-.061-.235Z"/><g filter="url(#filter15_f_4002_2836)"><path fill="#C7A7A3" d="M18.108 14.284c.064.085-.069.19-.22.302-.151.113-.264.193-.327.108-.064-.085.007-.246.159-.359.15-.113.325-.136.389-.05Z"/><path fill="url(#paint40_radial_4002_2836)" d="M18.108 14.284c.064.085-.069.19-.22.302-.151.113-.264.193-.327.108-.064-.085.007-.246.159-.359.15-.113.325-.136.389-.05Z"/></g><g filter="url(#filter16_f_4002_2836)"><path fill="url(#paint41_linear_4002_2836)" d="M18.97 14.871a.84.84 0 0 0-.232-.463l-.26.285.117.229.375-.051Z"/></g><path fill="#fff" d="M13.596 13.823c-.654 0-1.206.451-1.356 1.06a.274.274 0 0 0 .268.341h2.233a.23.23 0 0 0 .227-.272 1.402 1.402 0 0 0-1.372-1.129Z"/><path fill="url(#paint42_radial_4002_2836)" d="M13.803 14.095a.893.893 0 0 0-.86 1.13h1.725a.916.916 0 0 0 .032-.236.9.9 0 0 0-.897-.894Z"/><path fill="#000" d="M14.315 14.988a.51.51 0 0 0-.512-.511.51.51 0 0 0-.455.747h.906a.507.507 0 0 0 .06-.236Z"/><g filter="url(#filter17_f_4002_2836)"><path fill="url(#paint43_linear_4002_2836)" d="M14.619 14.884c0-.289-.235-.481-.298-.54l-.289.28.178.361.409-.101Z"/></g><g filter="url(#filter18_f_4002_2836)" transform="rotate(-27.914 13.534 14.477)"><ellipse cx="13.534" cy="14.477" fill="#C7A7A3" fill-opacity=".9" rx=".39" ry=".197"/><ellipse cx="13.534" cy="14.477" fill="url(#paint44_radial_4002_2836)" rx=".39" ry=".197"/></g><g filter="url(#filter19_i_4002_2836)"><path fill="url(#paint45_linear_4002_2836)" d="M10.31 14.155c-.278-.016-.842-.08-1.054-.728-.11-.37.082-.779.143-.91a1.317 1.317 0 0 1 .024-.05c.061-.12.152-.296-.02-.576-.193-.313-.375-.615-.045-1.257.207-.405.093-.652-.032-.875-.183-.327-.166-.604 0-.938.07-.143.173-.275.173-.472 0-.198-.07-.335-.141-.474-.074-.143-.148-.289-.148-.504 0-.23.084-.398.161-.554.066-.133.128-.257.128-.402 0-.129-.06-.24-.125-.364-.094-.178-.201-.38-.164-.69.071-.59.537-.787.756-.879l.02-.008c.21-.089.364-.163.452-.58.046-.215.132-.502.293-.663a1.06 1.06 0 0 1 .791-.3c.257.007.535-.03.752-.254.217-.225.458-.413.699-.453.24-.04.471.014.725.144.281.145.567.07.705-.035.34-.262.718-.32 1.158-.141.18.072.295.112.394.112.098 0 .214-.04.393-.112.44-.18.819-.12 1.159.141a.68.68 0 0 0 .704.035c.254-.13.484-.184.725-.144.241.04.483.228.7.453.216.225.494.261.75.253a1.06 1.06 0 0 1 .793.301c.16.161.246.448.292.663.088.417.243.491.452.58l.02.008c.219.092.685.288.756.878.038.31-.07.513-.164.69-.065.124-.125.236-.125.365 0 .145.062.269.128.402.078.156.161.324.161.554 0 .215-.074.36-.147.504a.935.935 0 0 0-.105.466c0 .528.496.742.176 1.422-.125.223-.324.455-.117.86.33.641.193.955 0 1.268-.171.28-.081.457-.02.577l.02.041.005.009c.06.13.252.54.142.909-.212.649-.775.712-1.054.728H10.31Z"/><path fill="url(#paint46_linear_4002_2836)" d="M10.31 14.155c-.278-.016-.842-.08-1.054-.728-.11-.37.082-.779.143-.91a1.317 1.317 0 0 1 .024-.05c.061-.12.152-.296-.02-.576-.193-.313-.375-.615-.045-1.257.207-.405.093-.652-.032-.875-.183-.327-.166-.604 0-.938.07-.143.173-.275.173-.472 0-.198-.07-.335-.141-.474-.074-.143-.148-.289-.148-.504 0-.23.084-.398.161-.554.066-.133.128-.257.128-.402 0-.129-.06-.24-.125-.364-.094-.178-.201-.38-.164-.69.071-.59.537-.787.756-.879l.02-.008c.21-.089.364-.163.452-.58.046-.215.132-.502.293-.663a1.06 1.06 0 0 1 .791-.3c.257.007.535-.03.752-.254.217-.225.458-.413.699-.453.24-.04.471.014.725.144.281.145.567.07.705-.035.34-.262.718-.32 1.158-.141.18.072.295.112.394.112.098 0 .214-.04.393-.112.44-.18.819-.12 1.159.141a.68.68 0 0 0 .704.035c.254-.13.484-.184.725-.144.241.04.483.228.7.453.216.225.494.261.75.253a1.06 1.06 0 0 1 .793.301c.16.161.246.448.292.663.088.417.243.491.452.58l.02.008c.219.092.685.288.756.878.038.31-.07.513-.164.69-.065.124-.125.236-.125.365 0 .145.062.269.128.402.078.156.161.324.161.554 0 .215-.074.36-.147.504a.935.935 0 0 0-.105.466c0 .528.496.742.176 1.422-.125.223-.324.455-.117.86.33.641.193.955 0 1.268-.171.28-.081.457-.02.577l.02.041.005.009c.06.13.252.54.142.909-.212.649-.775.712-1.054.728H10.31Z"/></g><path fill="url(#paint47_radial_4002_2836)" d="M10.31 14.155c-.278-.016-.842-.08-1.054-.728-.11-.37.082-.779.143-.91a1.317 1.317 0 0 1 .024-.05c.061-.12.152-.296-.02-.576-.193-.313-.375-.615-.045-1.257.207-.405.093-.652-.032-.875-.183-.327-.166-.604 0-.938.07-.143.173-.275.173-.472 0-.198-.07-.335-.141-.474-.074-.143-.148-.289-.148-.504 0-.23.084-.398.161-.554.066-.133.128-.257.128-.402 0-.129-.06-.24-.125-.364-.094-.178-.201-.38-.164-.69.071-.59.537-.787.756-.879l.02-.008c.21-.089.364-.163.452-.58.046-.215.132-.502.293-.663a1.06 1.06 0 0 1 .791-.3c.257.007.535-.03.752-.254.217-.225.458-.413.699-.453.24-.04.471.014.725.144.281.145.567.07.705-.035.34-.262.718-.32 1.158-.141.18.072.295.112.394.112.098 0 .214-.04.393-.112.44-.18.819-.12 1.159.141a.68.68 0 0 0 .704.035c.254-.13.484-.184.725-.144.241.04.483.228.7.453.216.225.494.261.75.253a1.06 1.06 0 0 1 .793.301c.16.161.246.448.292.663.088.417.243.491.452.58l.02.008c.219.092.685.288.756.878.038.31-.07.513-.164.69-.065.124-.125.236-.125.365 0 .145.062.269.128.402.078.156.161.324.161.554 0 .215-.074.36-.147.504a.935.935 0 0 0-.105.466c0 .528.496.742.176 1.422-.125.223-.324.455-.117.86.33.641.193.955 0 1.268-.171.28-.081.457-.02.577l.02.041.005.009c.06.13.252.54.142.909-.212.649-.775.712-1.054.728H10.31Z"/><path fill="url(#paint48_radial_4002_2836)" d="M10.31 14.155c-.278-.016-.842-.08-1.054-.728-.11-.37.082-.779.143-.91a1.317 1.317 0 0 1 .024-.05c.061-.12.152-.296-.02-.576-.193-.313-.375-.615-.045-1.257.207-.405.093-.652-.032-.875-.183-.327-.166-.604 0-.938.07-.143.173-.275.173-.472 0-.198-.07-.335-.141-.474-.074-.143-.148-.289-.148-.504 0-.23.084-.398.161-.554.066-.133.128-.257.128-.402 0-.129-.06-.24-.125-.364-.094-.178-.201-.38-.164-.69.071-.59.537-.787.756-.879l.02-.008c.21-.089.364-.163.452-.58.046-.215.132-.502.293-.663a1.06 1.06 0 0 1 .791-.3c.257.007.535-.03.752-.254.217-.225.458-.413.699-.453.24-.04.471.014.725.144.281.145.567.07.705-.035.34-.262.718-.32 1.158-.141.18.072.295.112.394.112.098 0 .214-.04.393-.112.44-.18.819-.12 1.159.141a.68.68 0 0 0 .704.035c.254-.13.484-.184.725-.144.241.04.483.228.7.453.216.225.494.261.75.253a1.06 1.06 0 0 1 .793.301c.16.161.246.448.292.663.088.417.243.491.452.58l.02.008c.219.092.685.288.756.878.038.31-.07.513-.164.69-.065.124-.125.236-.125.365 0 .145.062.269.128.402.078.156.161.324.161.554 0 .215-.074.36-.147.504a.935.935 0 0 0-.105.466c0 .528.496.742.176 1.422-.125.223-.324.455-.117.86.33.641.193.955 0 1.268-.171.28-.081.457-.02.577l.02.041.005.009c.06.13.252.54.142.909-.212.649-.775.712-1.054.728H10.31Z"/><path fill="url(#paint49_linear_4002_2836)" d="M10.31 14.155c-.278-.016-.842-.08-1.054-.728-.11-.37.082-.779.143-.91a1.317 1.317 0 0 1 .024-.05c.061-.12.152-.296-.02-.576-.193-.313-.375-.615-.045-1.257.207-.405.093-.652-.032-.875-.183-.327-.166-.604 0-.938.07-.143.173-.275.173-.472 0-.198-.07-.335-.141-.474-.074-.143-.148-.289-.148-.504 0-.23.084-.398.161-.554.066-.133.128-.257.128-.402 0-.129-.06-.24-.125-.364-.094-.178-.201-.38-.164-.69.071-.59.537-.787.756-.879l.02-.008c.21-.089.364-.163.452-.58.046-.215.132-.502.293-.663a1.06 1.06 0 0 1 .791-.3c.257.007.535-.03.752-.254.217-.225.458-.413.699-.453.24-.04.471.014.725.144.281.145.567.07.705-.035.34-.262.718-.32 1.158-.141.18.072.295.112.394.112.098 0 .214-.04.393-.112.44-.18.819-.12 1.159.141a.68.68 0 0 0 .704.035c.254-.13.484-.184.725-.144.241.04.483.228.7.453.216.225.494.261.75.253a1.06 1.06 0 0 1 .793.301c.16.161.246.448.292.663.088.417.243.491.452.58l.02.008c.219.092.685.288.756.878.038.31-.07.513-.164.69-.065.124-.125.236-.125.365 0 .145.062.269.128.402.078.156.161.324.161.554 0 .215-.074.36-.147.504a.935.935 0 0 0-.105.466c0 .528.496.742.176 1.422-.125.223-.324.455-.117.86.33.641.193.955 0 1.268-.171.28-.081.457-.02.577l.02.041.005.009c.06.13.252.54.142.909-.212.649-.775.712-1.054.728H10.31Z"/><g filter="url(#filter20_i_4002_2836)"><path fill="url(#paint50_linear_4002_2836)" d="m10.5 14.155.12 3.519c.082 2.424 2.07 4.378 4.497 4.378h1.677c2.44 0 4.436-1.976 4.498-4.416l.09-3.48h-.909l-.12 3.48c-.049 1.898-1.661 3.486-3.56 3.486h-1.676c-1.887 0-3.489-1.597-3.553-3.482l-.09-3.485H10.5Z"/><path fill="url(#paint51_linear_4002_2836)" d="m10.5 14.155.12 3.519c.082 2.424 2.07 4.378 4.497 4.378h1.677c2.44 0 4.436-1.976 4.498-4.416l.09-3.48h-.909l-.12 3.48c-.049 1.898-1.661 3.486-3.56 3.486h-1.676c-1.887 0-3.489-1.597-3.553-3.482l-.09-3.485H10.5Z"/><path fill="url(#paint52_radial_4002_2836)" d="m10.5 14.155.12 3.519c.082 2.424 2.07 4.378 4.497 4.378h1.677c2.44 0 4.436-1.976 4.498-4.416l.09-3.48h-.909l-.12 3.48c-.049 1.898-1.661 3.486-3.56 3.486h-1.676c-1.887 0-3.489-1.597-3.553-3.482l-.09-3.485H10.5Z"/></g><defs><radialGradient id="paint0_radial_4002_2836" cx="0" cy="0" r="1" gradientTransform="matrix(0 7.71875 -19.3424 0 16 26.99)" gradientUnits="userSpaceOnUse"><stop offset=".315" stop-color="#F73C71"/><stop offset="1" stop-color="#D6274F"/></radialGradient><radialGradient id="paint1_radial_4002_2836" cx="0" cy="0" r="1" gradientTransform="matrix(-2.6875 0 0 -8.81836 22.928 27.146)" gradientUnits="userSpaceOnUse"><stop offset=".24" stop-color="#FF6085"/><stop offset="1" stop-color="#FF6085" stop-opacity="0"/></radialGradient><radialGradient id="paint4_radial_4002_2836" cx="0" cy="0" r="1" gradientTransform="matrix(1.96876 -8.07812 2.82155 .68765 6.74 29.911)" gradientUnits="userSpaceOnUse"><stop offset=".232" stop-color="#E43669"/><stop offset="1" stop-color="#B13B50"/></radialGradient><radialGradient id="paint6_radial_4002_2836" cx="0" cy="0" r="1" gradientTransform="rotate(-101.449 24.978 4.727) scale(7.55662 1.96679)" gradientUnits="userSpaceOnUse"><stop stop-color="#FF5C85"/><stop offset="1" stop-color="#E34C67"/></radialGradient><radialGradient id="paint7_radial_4002_2836" cx="0" cy="0" r="1" gradientTransform="matrix(0 -11.366 .65507 0 22.942 29.911)" gradientUnits="userSpaceOnUse"><stop offset=".443" stop-color="#E11C59"/><stop offset="1" stop-color="#EE5076" stop-opacity="0"/></radialGradient><radialGradient id="paint8_radial_4002_2836" cx="0" cy="0" r="1" gradientTransform="matrix(1.35937 1.64062 -3.29137 2.72714 9.71 21.208)" gradientUnits="userSpaceOnUse"><stop stop-color="#454048"/><stop offset="1" stop-color="#382834"/></radialGradient><radialGradient id="paint9_radial_4002_2836" cx="0" cy="0" r="1" gradientTransform="matrix(1.78125 1.85937 -.47826 .45816 8.381 22.458)" gradientUnits="userSpaceOnUse"><stop offset=".435" stop-color="#4B4551"/><stop offset="1" stop-color="#4B4551" stop-opacity="0"/></radialGradient><radialGradient id="paint10_radial_4002_2836" cx="0" cy="0" r="1" gradientTransform="matrix(1.3125 .25 -.73637 3.86594 19.569 21.146)" gradientUnits="userSpaceOnUse"><stop offset=".032" stop-color="#513F4E"/><stop offset="1" stop-color="#513F4E" stop-opacity="0"/></radialGradient><radialGradient id="paint11_radial_4002_2836" cx="0" cy="0" r="1" gradientTransform="rotate(138.094 7.499 15.6) scale(1.63757 .24529)" gradientUnits="userSpaceOnUse"><stop stop-color="#5E5864"/><stop offset="1" stop-color="#5E5864" stop-opacity="0"/></radialGradient><radialGradient id="paint12_radial_4002_2836" cx="0" cy="0" r="1" gradientTransform="rotate(-169.136 6.388 10.772) scale(1.64141 .91814)" gradientUnits="userSpaceOnUse"><stop offset=".525" stop-color="#CC981A"/><stop offset="1" stop-color="#DCB144"/></radialGradient><radialGradient id="paint13_radial_4002_2836" cx="0" cy="0" r="1" gradientTransform="matrix(.678 .80592 -1.4278 1.20118 .1 .257)" gradientUnits="userSpaceOnUse"><stop stop-color="#FFFF50"/><stop offset="1" stop-color="#F6CF1C"/></radialGradient><radialGradient id="paint14_radial_4002_2836" cx="0" cy="0" r="1" gradientTransform="matrix(-2.68749 -3.76563 4.9287 -3.51755 18.1 23.911)" gradientUnits="userSpaceOnUse"><stop stop-color="#5D4364"/><stop offset="1" stop-color="#482949"/></radialGradient><radialGradient id="paint15_radial_4002_2836" cx="0" cy="0" r="1" gradientTransform="matrix(-.39844 0 0 -.91123 15.538 23.763)" gradientUnits="userSpaceOnUse"><stop offset=".244" stop-color="#4A2E4F"/><stop offset="1" stop-color="#4A2E4F" stop-opacity="0"/></radialGradient><radialGradient id="paint16_radial_4002_2836" cx="0" cy="0" r="1" gradientTransform="rotate(112.38 -.17 15.586) scale(1.14905 2.6882)" gradientUnits="userSpaceOnUse"><stop stop-color="#452139"/><stop offset="1" stop-color="#452139" stop-opacity="0"/></radialGradient><radialGradient id="paint17_radial_4002_2836" cx="0" cy="0" r="1" gradientTransform="matrix(1.0625 1.35937 -2.23489 1.7468 15.678 22.02)" gradientUnits="userSpaceOnUse"><stop stop-color="#F28235"/><stop offset="1" stop-color="#FDAC39"/></radialGradient><radialGradient id="paint20_radial_4002_2836" cx="0" cy="0" r="1" gradientTransform="matrix(-.71875 .59375 -.75915 -.91896 17.85 25.161)" gradientUnits="userSpaceOnUse"><stop stop-color="#FFF153"/><stop offset="1" stop-color="#FCA239"/></radialGradient><radialGradient id="paint21_radial_4002_2836" cx="0" cy="0" r="1" gradientTransform="matrix(-.71875 .59375 -.75915 -.91896 17.85 28.161)" gradientUnits="userSpaceOnUse"><stop stop-color="#FFF153"/><stop offset="1" stop-color="#FCA239"/></radialGradient><radialGradient id="paint22_radial_4002_2836" cx="0" cy="0" r="1" gradientTransform="matrix(1.75652 0 0 3.07393 9.568 15.255)" gradientUnits="userSpaceOnUse"><stop offset=".351" stop-color="#E6962B"/><stop offset="1" stop-color="#CA8F29"/></radialGradient><radialGradient id="paint25_radial_4002_2836" cx="0" cy="0" r="1" gradientTransform="matrix(.82748 -.60254 .68772 .94447 21.134 14.99)" gradientUnits="userSpaceOnUse"><stop offset=".543" stop-color="#FFC532"/><stop offset="1" stop-color="#FFC532" stop-opacity="0"/></radialGradient><radialGradient id="paint26_radial_4002_2836" cx="0" cy="0" r="1" gradientTransform="matrix(.82204 -1.51196 .88496 .48114 20.72 16.078)" gradientUnits="userSpaceOnUse"><stop offset=".69" stop-color="#F4A51A" stop-opacity="0"/><stop offset="1" stop-color="#F4A51A"/></radialGradient><radialGradient id="paint27_radial_4002_2836" cx="0" cy="0" r="1" gradientTransform="matrix(.25953 .2569 -.33118 .33457 20.76 15.255)" gradientUnits="userSpaceOnUse"><stop stop-color="#E59B1F"/><stop offset="1" stop-color="#E59B1F" stop-opacity="0"/></radialGradient><radialGradient id="paint28_radial_4002_2836" cx="0" cy="0" r="1" gradientTransform="rotate(-172.91 10.46 8.334) scale(6.32965 9.56112)" gradientUnits="userSpaceOnUse"><stop stop-color="#FFDD32"/><stop offset="1" stop-color="#F9A528"/></radialGradient><radialGradient id="paint30_radial_4002_2836" cx="0" cy="0" r="1" gradientTransform="matrix(0 8.59375 -9.8125 0 16.483 13.663)" gradientUnits="userSpaceOnUse"><stop offset=".56" stop-color="#F49A3E" stop-opacity="0"/><stop offset="1" stop-color="#D07F50"/></radialGradient><radialGradient id="paint31_radial_4002_2836" cx="0" cy="0" r="1" gradientTransform="matrix(0 -1.30832 1.61023 0 18.34 13.983)" gradientUnits="userSpaceOnUse"><stop stop-color="#FFBA0D"/><stop offset="1" stop-color="#FFBA0D" stop-opacity="0"/></radialGradient><radialGradient id="paint32_radial_4002_2836" cx="0" cy="0" r="1" gradientTransform="matrix(0 -1.39218 1.7313 0 13.777 13.95)" gradientUnits="userSpaceOnUse"><stop stop-color="#EE911A"/><stop offset="1" stop-color="#EE911A" stop-opacity="0"/></radialGradient><radialGradient id="paint38_radial_4002_2836" cx="0" cy="0" r="1" gradientTransform="matrix(.02462 -.62786 1.8836 .07386 15.906 19.271)" gradientUnits="userSpaceOnUse"><stop stop-color="#FFD069"/><stop offset="1" stop-color="#FFBE30" stop-opacity="0"/></radialGradient><radialGradient id="paint39_radial_4002_2836" cx="0" cy="0" r="1" gradientTransform="matrix(0 -1.15625 1.36814 0 18.172 15.318)" gradientUnits="userSpaceOnUse"><stop offset=".75" stop-color="#764B4C"/><stop offset="1" stop-color="#563237"/></radialGradient><radialGradient id="paint40_radial_4002_2836" cx="0" cy="0" r="1" gradientTransform="matrix(-.23208 -.29907 .41175 -.31952 17.943 14.658)" gradientUnits="userSpaceOnUse"><stop offset=".766" stop-color="#FFE6E2" stop-opacity="0"/><stop offset=".966" stop-color="#FFE6E2"/></radialGradient><radialGradient id="paint42_radial_4002_2836" cx="0" cy="0" r="1" gradientTransform="matrix(0 -1.15631 1.36821 0 13.805 15.318)" gradientUnits="userSpaceOnUse"><stop offset=".75" stop-color="#764B4C"/><stop offset="1" stop-color="#563237"/></radialGradient><radialGradient id="paint44_radial_4002_2836" cx="0" cy="0" r="1" gradientTransform="rotate(-90.897 14.04 .742) scale(.4945 .5944)" gradientUnits="userSpaceOnUse"><stop offset=".766" stop-color="#FFE6E2" stop-opacity="0"/><stop offset=".966" stop-color="#FFE6E2"/></radialGradient><radialGradient id="paint47_radial_4002_2836" cx="0" cy="0" r="1" gradientTransform="matrix(0 -12.3535 18.2706 0 15.953 14.155)" gradientUnits="userSpaceOnUse"><stop offset=".775" stop-color="#403947" stop-opacity="0"/><stop offset="1" stop-color="#403947"/></radialGradient><radialGradient id="paint48_radial_4002_2836" cx="0" cy="0" r="1" gradientTransform="rotate(-179.736 10.798 2.33) scale(6.78132 1.9151)" gradientUnits="userSpaceOnUse"><stop stop-color="#686070"/><stop offset="1" stop-color="#686070" stop-opacity="0"/></radialGradient><radialGradient id="paint52_radial_4002_2836" cx="0" cy="0" r="1" gradientTransform="matrix(0 1.46875 -.51569 0 21.381 16.27)" gradientUnits="userSpaceOnUse"><stop stop-color="#F6DCF7"/><stop offset="1" stop-color="#F6DCF7" stop-opacity="0"/></radialGradient><filter id="filter0_i_4002_2836" width="4.755" height="3.491" x="8.464" y="20.061" color-interpolation-filters="sRGB" filterUnits="userSpaceOnUse"><feFlood flood-opacity="0" result="BackgroundImageFix"/><feBlend in="SourceGraphic" in2="BackgroundImageFix" result="shape"/><feColorMatrix in="SourceAlpha" result="hardAlpha" values="0 0 0 0 0 0 0 0 0 0 0 0 0 0 0 0 0 0 127 0"/><feOffset dx="-.25" dy="-.1"/><feGaussianBlur stdDeviation=".075"/><feComposite in2="hardAlpha" k2="-1" k3="1" operator="arithmetic"/><feColorMatrix values="0 0 0 0 0.262745 0 0 0 0 0.172549 0 0 0 0 0.309804 0 0 0 1 0"/><feBlend in2="shape" result="effect1_innerShadow_4002_2836"/></filter><filter id="filter1_ii_4002_2836" width="4.705" height="3.591" x="18.753" y="19.961" color-interpolation-filters="sRGB" filterUnits="userSpaceOnUse"><feFlood flood-opacity="0" result="BackgroundImageFix"/><feBlend in="SourceGraphic" in2="BackgroundImageFix" result="shape"/><feColorMatrix in="SourceAlpha" result="hardAlpha" values="0 0 0 0 0 0 0 0 0 0 0 0 0 0 0 0 0 0 127 0"/><feOffset dx=".1" dy="-.2"/><feGaussianBlur stdDeviation=".15"/><feComposite in2="hardAlpha" k2="-1" k3="1" operator="arithmetic"/><feColorMatrix values="0 0 0 0 0.270588 0 0 0 0 0.172549 0 0 0 0 0.309804 0 0 0 1 0"/><feBlend in2="shape" result="effect1_innerShadow_4002_2836"/><feColorMatrix in="SourceAlpha" result="hardAlpha" values="0 0 0 0 0 0 0 0 0 0 0 0 0 0 0 0 0 0 127 0"/><feOffset dx=".1" dy="-.05"/><feGaussianBlur stdDeviation=".05"/><feComposite in2="hardAlpha" k2="-1" k3="1" operator="arithmetic"/><feColorMatrix values="0 0 0 0 0.266667 0 0 0 0 0.0666667 0 0 0 0 0.219608 0 0 0 1 0"/><feBlend in2="effect1_innerShadow_4002_2836" result="effect2_innerShadow_4002_2836"/></filter><filter id="filter2_f_4002_2836" width="2.189" height="2.153" x="8.842" y="21.168" color-interpolation-filters="sRGB" filterUnits="userSpaceOnUse"><feFlood flood-opacity="0" result="BackgroundImageFix"/><feBlend in="SourceGraphic" in2="BackgroundImageFix" result="shape"/><feGaussianBlur result="effect1_foregroundBlur_4002_2836" stdDeviation=".25"/></filter><filter id="filter3_f_4002_2836" width="1.692" height="1.595" x="21.111" y="21.394" color-interpolation-filters="sRGB" filterUnits="userSpaceOnUse"><feFlood flood-opacity="0" result="BackgroundImageFix"/><feBlend in="SourceGraphic" in2="BackgroundImageFix" result="shape"/><feGaussianBlur result="effect1_foregroundBlur_4002_2836" stdDeviation=".125"/></filter><filter id="filter4_iii_4002_2836" width="7.744" height="9.694" x="12.072" y="14.827" color-interpolation-filters="sRGB" filterUnits="userSpaceOnUse"><feFlood flood-opacity="0" result="BackgroundImageFix"/><feBlend in="SourceGraphic" in2="BackgroundImageFix" result="shape"/><feColorMatrix in="SourceAlpha" result="hardAlpha" values="0 0 0 0 0 0 0 0 0 0 0 0 0 0 0 0 0 0 127 0"/><feOffset dx="-.1" dy="-.1"/><feGaussianBlur stdDeviation=".075"/><feComposite in2="hardAlpha" k2="-1" k3="1" operator="arithmetic"/><feColorMatrix values="0 0 0 0 0.439216 0 0 0 0 0.384314 0 0 0 0 0.47451 0 0 0 1 0"/><feBlend in2="shape" result="effect1_innerShadow_4002_2836"/><feColorMatrix in="SourceAlpha" result="hardAlpha" values="0 0 0 0 0 0 0 0 0 0 0 0 0 0 0 0 0 0 127 0"/><feOffset dx=".05" dy="-.1"/><feGaussianBlur stdDeviation=".075"/><feComposite in2="hardAlpha" k2="-1" k3="1" operator="arithmetic"/><feColorMatrix values="0 0 0 0 0.439216 0 0 0 0 0.384314 0 0 0 0 0.47451 0 0 0 1 0"/><feBlend in2="effect1_innerShadow_4002_2836" result="effect2_innerShadow_4002_2836"/><feColorMatrix in="SourceAlpha" result="hardAlpha" values="0 0 0 0 0 0 0 0 0 0 0 0 0 0 0 0 0 0 127 0"/><feOffset dy="-.1"/><feGaussianBlur stdDeviation=".05"/><feComposite in2="hardAlpha" k2="-1" k3="1" operator="arithmetic"/><feColorMatrix values="0 0 0 0 0.329412 0 0 0 0 0.172549 0 0 0 0 0.372549 0 0 0 1 0"/><feBlend in2="effect2_innerShadow_4002_2836" result="effect3_innerShadow_4002_2836"/></filter><filter id="filter5_f_4002_2836" width="2.09" height="2.09" x="16.395" y="24.4" color-interpolation-filters="sRGB" filterUnits="userSpaceOnUse"><feFlood flood-opacity="0" result="BackgroundImageFix"/><feBlend in="SourceGraphic" in2="BackgroundImageFix" result="shape"/><feGaussianBlur result="effect1_foregroundBlur_4002_2836" stdDeviation=".25"/></filter><filter id="filter6_f_4002_2836" width="2.09" height="2.09" x="16.395" y="27.4" color-interpolation-filters="sRGB" filterUnits="userSpaceOnUse"><feFlood flood-opacity="0" result="BackgroundImageFix"/><feBlend in="SourceGraphic" in2="BackgroundImageFix" result="shape"/><feGaussianBlur result="effect1_foregroundBlur_4002_2836" stdDeviation=".25"/></filter><filter id="filter7_f_4002_2836" width="2.992" height="2.992" x="9.743" y="13.759" color-interpolation-filters="sRGB" filterUnits="userSpaceOnUse"><feFlood flood-opacity="0" result="BackgroundImageFix"/><feBlend in="SourceGraphic" in2="BackgroundImageFix" result="shape"/><feGaussianBlur result="effect1_foregroundBlur_4002_2836" stdDeviation=".25"/></filter><filter id="filter8_i_4002_2836" width="3.592" height="3.592" x="19.09" y="13.334" color-interpolation-filters="sRGB" filterUnits="userSpaceOnUse"><feFlood flood-opacity="0" result="BackgroundImageFix"/><feBlend in="SourceGraphic" in2="BackgroundImageFix" result="shape"/><feColorMatrix in="SourceAlpha" result="hardAlpha" values="0 0 0 0 0 0 0 0 0 0 0 0 0 0 0 0 0 0 127 0"/><feOffset dx=".25" dy="-.25"/><feGaussianBlur stdDeviation=".25"/><feComposite in2="hardAlpha" k2="-1" k3="1" operator="arithmetic"/><feColorMatrix values="0 0 0 0 0.85098 0 0 0 0 0.560784 0 0 0 0 0.376471 0 0 0 1 0"/><feBlend in2="shape" result="effect1_innerShadow_4002_2836"/></filter><filter id="filter9_f_4002_2836" width="2.992" height="2.992" x="19.265" y="13.759" color-interpolation-filters="sRGB" filterUnits="userSpaceOnUse"><feFlood flood-opacity="0" result="BackgroundImageFix"/><feBlend in="SourceGraphic" in2="BackgroundImageFix" result="shape"/><feGaussianBlur result="effect1_foregroundBlur_4002_2836" stdDeviation=".25"/></filter><filter id="filter10_i_4002_2836" width="11.034" height="12.689" x="10.178" y="8.976" color-interpolation-filters="sRGB" filterUnits="userSpaceOnUse"><feFlood flood-opacity="0" result="BackgroundImageFix"/><feBlend in="SourceGraphic" in2="BackgroundImageFix" result="shape"/><feColorMatrix in="SourceAlpha" result="hardAlpha" values="0 0 0 0 0 0 0 0 0 0 0 0 0 0 0 0 0 0 127 0"/><feOffset dx="-.65" dy="-.65"/><feGaussianBlur stdDeviation=".325"/><feComposite in2="hardAlpha" k2="-1" k3="1" operator="arithmetic"/><feColorMatrix values="0 0 0 0 0.776471 0 0 0 0 0.458824 0 0 0 0 0.121569 0 0 0 1 0"/><feBlend in2="shape" result="effect1_innerShadow_4002_2836"/></filter><filter id="filter11_f_4002_2836" width="3.262" height="4.184" x="14.121" y="14.1" color-interpolation-filters="sRGB" filterUnits="userSpaceOnUse"><feFlood flood-opacity="0" result="BackgroundImageFix"/><feBlend in="SourceGraphic" in2="BackgroundImageFix" result="shape"/><feGaussianBlur result="effect1_foregroundBlur_4002_2836" stdDeviation=".375"/></filter><filter id="filter12_f_4002_2836" width="2.379" height="3.184" x="14.802" y="14.437" color-interpolation-filters="sRGB" filterUnits="userSpaceOnUse"><feFlood flood-opacity="0" result="BackgroundImageFix"/><feBlend in="SourceGraphic" in2="BackgroundImageFix" result="shape"/><feGaussianBlur result="effect1_foregroundBlur_4002_2836" stdDeviation=".125"/></filter><filter id="filter13_f_4002_2836" width="2.379" height="3.184" x="14.802" y="14.274" color-interpolation-filters="sRGB" filterUnits="userSpaceOnUse"><feFlood flood-opacity="0" result="BackgroundImageFix"/><feBlend in="SourceGraphic" in2="BackgroundImageFix" result="shape"/><feGaussianBlur result="effect1_foregroundBlur_4002_2836" stdDeviation=".125"/></filter><filter id="filter14_f_4002_2836" width="3.621" height="1.474" x="14.181" y="17.842" color-interpolation-filters="sRGB" filterUnits="userSpaceOnUse"><feFlood flood-opacity="0" result="BackgroundImageFix"/><feBlend in="SourceGraphic" in2="BackgroundImageFix" result="shape"/><feGaussianBlur result="effect1_foregroundBlur_4002_2836" stdDeviation=".05"/></filter><filter id="filter15_f_4002_2836" width=".787" height=".697" x="17.438" y="14.133" color-interpolation-filters="sRGB" filterUnits="userSpaceOnUse"><feFlood flood-opacity="0" result="BackgroundImageFix"/><feBlend in="SourceGraphic" in2="BackgroundImageFix" result="shape"/><feGaussianBlur result="effect1_foregroundBlur_4002_2836" stdDeviation=".05"/></filter><filter id="filter16_f_4002_2836" width=".892" height=".914" x="18.278" y="14.208" color-interpolation-filters="sRGB" filterUnits="userSpaceOnUse"><feFlood flood-opacity="0" result="BackgroundImageFix"/><feBlend in="SourceGraphic" in2="BackgroundImageFix" result="shape"/><feGaussianBlur result="effect1_foregroundBlur_4002_2836" stdDeviation=".1"/></filter><filter id="filter17_f_4002_2836" width=".987" height="1.041" x="13.832" y="14.145" color-interpolation-filters="sRGB" filterUnits="userSpaceOnUse"><feFlood flood-opacity="0" result="BackgroundImageFix"/><feBlend in="SourceGraphic" in2="BackgroundImageFix" result="shape"/><feGaussianBlur result="effect1_foregroundBlur_4002_2836" stdDeviation=".1"/></filter><filter id="filter18_f_4002_2836" width=".914" height=".705" x="13.077" y="14.124" color-interpolation-filters="sRGB" filterUnits="userSpaceOnUse"><feFlood flood-opacity="0" result="BackgroundImageFix"/><feBlend in="SourceGraphic" in2="BackgroundImageFix" result="shape"/><feGaussianBlur result="effect1_foregroundBlur_4002_2836" stdDeviation=".05"/></filter><filter id="filter19_i_4002_2836" width="13.655" height="12.317" x="9.076" y="1.839" color-interpolation-filters="sRGB" filterUnits="userSpaceOnUse"><feFlood flood-opacity="0" result="BackgroundImageFix"/><feBlend in="SourceGraphic" in2="BackgroundImageFix" result="shape"/><feColorMatrix in="SourceAlpha" result="hardAlpha" values="0 0 0 0 0 0 0 0 0 0 0 0 0 0 0 0 0 0 127 0"/><feOffset dx="-.1" dy="-.25"/><feGaussianBlur stdDeviation=".25"/><feComposite in2="hardAlpha" k2="-1" k3="1" operator="arithmetic"/><feColorMatrix values="0 0 0 0 0.282353 0 0 0 0 0.203922 0 0 0 0 0.364706 0 0 0 1 0"/><feBlend in2="shape" result="effect1_innerShadow_4002_2836"/></filter><filter id="filter20_i_4002_2836" width="10.882" height="7.996" x="10.499" y="14.056" color-interpolation-filters="sRGB" filterUnits="userSpaceOnUse"><feFlood flood-opacity="0" result="BackgroundImageFix"/><feBlend in="SourceGraphic" in2="BackgroundImageFix" result="shape"/><feColorMatrix in="SourceAlpha" result="hardAlpha" values="0 0 0 0 0 0 0 0 0 0 0 0 0 0 0 0 0 0 127 0"/><feOffset dy="-.1"/><feGaussianBlur stdDeviation=".1"/><feComposite in2="hardAlpha" k2="-1" k3="1" operator="arithmetic"/><feColorMatrix values="0 0 0 0 0.803922 0 0 0 0 0.635294 0 0 0 0 0.886275 0 0 0 1 0"/><feBlend in2="shape" result="effect1_innerShadow_4002_2836"/></filter><linearGradient id="paint2_linear_4002_2836" x1="9.026" x2="9.233" y1="29.911" y2="29.911" gradientUnits="userSpaceOnUse"><stop stop-color="#C2254A"/><stop offset="1" stop-color="#C2254A" stop-opacity="0"/></linearGradient><linearGradient id="paint3_linear_4002_2836" x1="22.975" x2="22.827" y1="29.911" y2="29.911" gradientUnits="userSpaceOnUse"><stop offset=".118" stop-color="#FC356B"/><stop offset="1" stop-color="#FC356B" stop-opacity="0"/></linearGradient><linearGradient id="paint5_linear_4002_2836" x1="9.397" x2="8.084" y1="29.739" y2="29.739" gradientUnits="userSpaceOnUse"><stop stop-color="#AC394E"/><stop offset="1" stop-color="#C9345B" stop-opacity="0"/></linearGradient><linearGradient id="paint18_linear_4002_2836" x1="15.984" x2="15.984" y1="23.197" y2="29.911" gradientUnits="userSpaceOnUse"><stop stop-color="#DBB8DD"/><stop offset="1" stop-color="#D8BBEB"/></linearGradient><linearGradient id="paint19_linear_4002_2836" x1="16.479" x2="16.147" y1="27.271" y2="27.271" gradientUnits="userSpaceOnUse"><stop stop-color="#EACCEB"/><stop offset="1" stop-color="#EACCEB" stop-opacity="0"/></linearGradient><linearGradient id="paint23_linear_4002_2836" x1="11.239" x2="10.598" y1="15.534" y2="15.534" gradientUnits="userSpaceOnUse"><stop stop-color="#BD6A1E"/><stop offset="1" stop-color="#D77A1C"/></linearGradient><linearGradient id="paint24_linear_4002_2836" x1="21.849" x2="21.029" y1="14.163" y2="16.701" gradientUnits="userSpaceOnUse"><stop stop-color="#FFE446"/><stop offset="1" stop-color="#FFC339"/></linearGradient><linearGradient id="paint29_linear_4002_2836" x1="10.59" x2="12.905" y1="18.344" y2="18.042" gradientUnits="userSpaceOnUse"><stop stop-color="#D19C3A"/><stop offset="1" stop-color="#D19C3A" stop-opacity="0"/></linearGradient><linearGradient id="paint33_linear_4002_2836" x1="16.02" x2="16.02" y1="13.989" y2="15.443" gradientUnits="userSpaceOnUse"><stop offset=".097" stop-color="#CD7C20"/><stop offset="1" stop-color="#FBA629" stop-opacity="0"/></linearGradient><linearGradient id="paint34_linear_4002_2836" x1="15.126" x2="16.065" y1="16.305" y2="16.305" gradientUnits="userSpaceOnUse"><stop stop-color="#FAA416"/><stop offset="1" stop-color="#FAA416" stop-opacity="0"/></linearGradient><linearGradient id="paint35_linear_4002_2836" x1="17.251" x2="15.751" y1="16.458" y2="16.443" gradientUnits="userSpaceOnUse"><stop stop-color="#FFE721"/><stop offset="1" stop-color="#FFE721" stop-opacity="0"/></linearGradient><linearGradient id="paint36_linear_4002_2836" x1="16.186" x2="16.186" y1="17.371" y2="16.797" gradientUnits="userSpaceOnUse"><stop stop-color="#EB8A1C"/><stop offset="1" stop-color="#EB8A1C" stop-opacity="0"/></linearGradient><linearGradient id="paint37_linear_4002_2836" x1="15.991" x2="16.282" y1="14.524" y2="15.982" gradientUnits="userSpaceOnUse"><stop stop-color="#E79827"/><stop offset="1" stop-color="#E79827" stop-opacity="0"/></linearGradient><linearGradient id="paint41_linear_4002_2836" x1="18.951" x2="18.637" y1="14.627" y2="14.82" gradientUnits="userSpaceOnUse"><stop stop-color="#B4948D"/><stop offset="1" stop-color="#B4948D" stop-opacity="0"/></linearGradient><linearGradient id="paint43_linear_4002_2836" x1="14.549" x2="14.235" y1="14.627" y2="14.82" gradientUnits="userSpaceOnUse"><stop stop-color="#B4948D"/><stop offset="1" stop-color="#B4948D" stop-opacity="0"/></linearGradient><linearGradient id="paint45_linear_4002_2836" x1="19.866" x2="12.584" y1="11.708" y2="11.708" gradientUnits="userSpaceOnUse"><stop stop-color="#5D536A"/><stop offset=".554" stop-color="#4B3C5B"/><stop offset="1" stop-color="#393341"/></linearGradient><linearGradient id="paint46_linear_4002_2836" x1="9.709" x2="12.428" y1="11.989" y2="11.989" gradientUnits="userSpaceOnUse"><stop stop-color="#4D4C50"/><stop offset="1" stop-color="#393341" stop-opacity="0"/></linearGradient><linearGradient id="paint49_linear_4002_2836" x1="16.538" x2="16.538" y1="14.155" y2="13.88" gradientUnits="userSpaceOnUse"><stop stop-color="#462659"/><stop offset="1" stop-color="#462659" stop-opacity="0"/></linearGradient><linearGradient id="paint50_linear_4002_2836" x1="21.116" x2="15.022" y1="18.489" y2="18.489" gradientUnits="userSpaceOnUse"><stop stop-color="#F6D3F9"/><stop offset="1" stop-color="#E3BBE0"/></linearGradient><linearGradient id="paint51_linear_4002_2836" x1="15.941" x2="15.941" y1="13.927" y2="15.458" gradientUnits="userSpaceOnUse"><stop stop-color="#CC9BD2"/><stop offset="1" stop-color="#E5BDE2" stop-opacity="0"/></linearGradient></defs></svg>