<svg xmlns="http://www.w3.org/2000/svg" width="32" height="32" fill="none" viewBox="0 0 32 32"><path fill="url(#paint0_radial_3987_19562)" d="M21 7.563a5 5 0 1 1-10 0 5 5 0 0 1 10 0Z"/><g filter="url(#filter0_i_3987_19562)"><path fill="#A5A5A5" d="M26.69 13.483C25.976 9.033 23.63 5.47 16 5.47c-7.635 0-10.201 3.569-11.064 8.024-.377 1.95.345 3.736 1.66 5.014L6.5 14.865c.038-1.769 1.07-2.453 1.51-2.682.03-.01.063-.024.096-.038a1.58 1.58 0 0 1 .096-.038 4.296 4.296 0 0 0 2.217-2.302l.153-.361a.492.492 0 0 1 .86-.095 7.201 7.201 0 0 0 5.947 3.12h6.003c.336 0 2.018.163 2.118 2.483l-.1 3.046c1.027-1.223 1.566-2.804 1.29-4.515Z"/><path fill="url(#paint1_radial_3987_19562)" d="M26.69 13.483C25.976 9.033 23.63 5.47 16 5.47c-7.635 0-10.201 3.569-11.064 8.024-.377 1.95.345 3.736 1.66 5.014L6.5 14.865c.038-1.769 1.07-2.453 1.51-2.682.03-.01.063-.024.096-.038a1.58 1.58 0 0 1 .096-.038 4.296 4.296 0 0 0 2.217-2.302l.153-.361a.492.492 0 0 1 .86-.095 7.201 7.201 0 0 0 5.947 3.12h6.003c.336 0 2.018.163 2.118 2.483l-.1 3.046c1.027-1.223 1.566-2.804 1.29-4.515Z"/></g><path fill="url(#paint2_radial_3987_19562)" d="M26.69 13.483C25.976 9.033 23.63 5.47 16 5.47c-7.635 0-10.201 3.569-11.064 8.024-.377 1.95.345 3.736 1.66 5.014l-.058-2.576-.019-.495-.019-.57c.038-1.77 1.07-2.454 1.51-2.683.03-.01.063-.024.096-.038a1.58 1.58 0 0 1 .096-.038 4.296 4.296 0 0 0 2.217-2.302l.153-.361a.492.492 0 0 1 .86-.095 7.201 7.201 0 0 0 5.947 3.12h6.003c.336 0 2.018.163 2.118 2.483l-.1 3.046c1.027-1.223 1.566-2.804 1.29-4.515Z"/><path fill="url(#paint3_radial_3987_19562)" d="M26.69 13.483C25.976 9.033 23.63 5.47 16 5.47c-7.635 0-10.201 3.569-11.064 8.024-.377 1.95.345 3.736 1.66 5.014l-.058-2.576-.019-.495-.019-.57c.038-1.77 1.07-2.454 1.51-2.683.03-.01.063-.024.096-.038a1.58 1.58 0 0 1 .096-.038 4.296 4.296 0 0 0 2.217-2.302l.153-.361a.492.492 0 0 1 .86-.095 7.201 7.201 0 0 0 5.947 3.12h6.003c.336 0 2.018.163 2.118 2.483l-.1 3.046c1.027-1.223 1.566-2.804 1.29-4.515Z"/><g filter="url(#filter1_i_3987_19562)"><path fill="url(#paint4_linear_3987_19562)" d="M10.308 19.6a3 3 0 1 1-6 0 3 3 0 0 1 6 0Z"/></g><g filter="url(#filter2_f_3987_19562)"><path fill="#C58C80" d="M9.297 19.6a1.99 1.99 0 1 1-3.979 0 1.99 1.99 0 0 1 3.98 0Z"/><path fill="url(#paint5_radial_3987_19562)" d="M9.297 19.6a1.99 1.99 0 1 1-3.979 0 1.99 1.99 0 0 1 3.98 0Z"/></g><g filter="url(#filter3_i_3987_19562)"><path fill="url(#paint6_radial_3987_19562)" d="M28.008 19.5a3 3 0 1 1-6 0 3 3 0 0 1 6 0Z"/><path fill="url(#paint7_radial_3987_19562)" d="M28.008 19.5a3 3 0 1 1-6 0 3 3 0 0 1 6 0Z"/></g><g filter="url(#filter4_f_3987_19562)"><path fill="#F6BCA5" d="M27.022 19.6a1.99 1.99 0 1 1-3.979 0 1.99 1.99 0 0 1 3.98 0Z"/><path fill="url(#paint8_radial_3987_19562)" d="M27.022 19.6a1.99 1.99 0 1 1-3.979 0 1.99 1.99 0 0 1 3.98 0Z"/></g><g filter="url(#filter5_ii_3987_19562)"><path fill="url(#paint9_radial_3987_19562)" d="M6.5 14.866c.038-1.77 1.07-2.454 1.51-2.682a1.31 1.31 0 0 0 .096-.039 1.58 1.58 0 0 1 .096-.038 4.296 4.296 0 0 0 2.217-2.301l.153-.362a.492.492 0 0 1 .86-.095 7.201 7.201 0 0 0 5.947 3.12h6.003c.336 0 2.018.163 2.118 2.484l-.222 6.783c-.23 5.225-4.31 8.734-9.29 8.734-4.981 0-9.061-3.509-9.291-8.734l-.197-6.87Z"/><path fill="url(#paint10_radial_3987_19562)" d="M6.5 14.866c.038-1.77 1.07-2.454 1.51-2.682a1.31 1.31 0 0 0 .096-.039 1.58 1.58 0 0 1 .096-.038 4.296 4.296 0 0 0 2.217-2.301l.153-.362a.492.492 0 0 1 .86-.095 7.201 7.201 0 0 0 5.947 3.12h6.003c.336 0 2.018.163 2.118 2.484l-.222 6.783c-.23 5.225-4.31 8.734-9.29 8.734-4.981 0-9.061-3.509-9.291-8.734l-.197-6.87Z"/><path fill="url(#paint11_radial_3987_19562)" d="M6.5 14.866c.038-1.77 1.07-2.454 1.51-2.682a1.31 1.31 0 0 0 .096-.039 1.58 1.58 0 0 1 .096-.038 4.296 4.296 0 0 0 2.217-2.301l.153-.362a.492.492 0 0 1 .86-.095 7.201 7.201 0 0 0 5.947 3.12h6.003c.336 0 2.018.163 2.118 2.484l-.222 6.783c-.23 5.225-4.31 8.734-9.29 8.734-4.981 0-9.061-3.509-9.291-8.734l-.197-6.87Z"/><path fill="url(#paint12_radial_3987_19562)" d="M6.5 14.866c.038-1.77 1.07-2.454 1.51-2.682a1.31 1.31 0 0 0 .096-.039 1.58 1.58 0 0 1 .096-.038 4.296 4.296 0 0 0 2.217-2.301l.153-.362a.492.492 0 0 1 .86-.095 7.201 7.201 0 0 0 5.947 3.12h6.003c.336 0 2.018.163 2.118 2.484l-.222 6.783c-.23 5.225-4.31 8.734-9.29 8.734-4.981 0-9.061-3.509-9.291-8.734l-.197-6.87Z"/><path fill="url(#paint13_radial_3987_19562)" d="M6.5 14.866c.038-1.77 1.07-2.454 1.51-2.682a1.31 1.31 0 0 0 .096-.039 1.58 1.58 0 0 1 .096-.038 4.296 4.296 0 0 0 2.217-2.301l.153-.362a.492.492 0 0 1 .86-.095 7.201 7.201 0 0 0 5.947 3.12h6.003c.336 0 2.018.163 2.118 2.484l-.222 6.783c-.23 5.225-4.31 8.734-9.29 8.734-4.981 0-9.061-3.509-9.291-8.734l-.197-6.87Z"/><path fill="url(#paint14_radial_3987_19562)" d="M6.5 14.866c.038-1.77 1.07-2.454 1.51-2.682a1.31 1.31 0 0 0 .096-.039 1.58 1.58 0 0 1 .096-.038 4.296 4.296 0 0 0 2.217-2.301l.153-.362a.492.492 0 0 1 .86-.095 7.201 7.201 0 0 0 5.947 3.12h6.003c.336 0 2.018.163 2.118 2.484l-.222 6.783c-.23 5.225-4.31 8.734-9.29 8.734-4.981 0-9.061-3.509-9.291-8.734l-.197-6.87Z"/></g><path fill="url(#paint15_radial_3987_19562)" d="M6.5 14.866c.038-1.77 1.07-2.454 1.51-2.682a1.31 1.31 0 0 0 .096-.039 1.58 1.58 0 0 1 .096-.038 4.296 4.296 0 0 0 2.217-2.301l.153-.362a.492.492 0 0 1 .86-.095 7.201 7.201 0 0 0 5.947 3.12h6.003c.336 0 2.018.163 2.118 2.484l-.222 6.783c-.23 5.225-4.31 8.734-9.29 8.734-4.981 0-9.061-3.509-9.291-8.734l-.197-6.87Z"/><path fill="url(#paint16_radial_3987_19562)" d="M6.5 14.866c.038-1.77 1.07-2.454 1.51-2.682a1.31 1.31 0 0 0 .096-.039 1.58 1.58 0 0 1 .096-.038 4.296 4.296 0 0 0 2.217-2.301l.153-.362a.492.492 0 0 1 .86-.095 7.201 7.201 0 0 0 5.947 3.12h6.003c.336 0 2.018.163 2.118 2.484l-.222 6.783c-.23 5.225-4.31 8.734-9.29 8.734-4.981 0-9.061-3.509-9.291-8.734l-.197-6.87Z"/><path fill="url(#paint17_radial_3987_19562)" d="M6.5 14.866c.038-1.77 1.07-2.454 1.51-2.682a1.31 1.31 0 0 0 .096-.039 1.58 1.58 0 0 1 .096-.038 4.296 4.296 0 0 0 2.217-2.301l.153-.362a.492.492 0 0 1 .86-.095 7.201 7.201 0 0 0 5.947 3.12h6.003c.336 0 2.018.163 2.118 2.484l-.222 6.783c-.23 5.225-4.31 8.734-9.29 8.734-4.981 0-9.061-3.509-9.291-8.734l-.197-6.87Z"/><path fill="url(#paint18_radial_3987_19562)" d="M6.5 14.866c.038-1.77 1.07-2.454 1.51-2.682a1.31 1.31 0 0 0 .096-.039 1.58 1.58 0 0 1 .096-.038 4.296 4.296 0 0 0 2.217-2.301l.153-.362a.492.492 0 0 1 .86-.095 7.201 7.201 0 0 0 5.947 3.12h6.003c.336 0 2.018.163 2.118 2.484l-.222 6.783c-.23 5.225-4.31 8.734-9.29 8.734-4.981 0-9.061-3.509-9.291-8.734l-.197-6.87Z"/><g filter="url(#filter6_f_3987_19562)"><path fill="#D19590" d="m15.25 19.475-1.266 3.17a1.005 1.005 0 0 0 .97 1.303h1.467c.688 0 1.173-.662.97-1.304l-.99-3.17c-.213-.701-.929-.701-1.151 0Z"/></g><g filter="url(#filter7_f_3987_19562)"><path fill="#F1C4B2" d="m15.287 19.244-.99 3.17a1.005 1.005 0 0 0 .97 1.304h1.466c.688 0 1.173-.662.97-1.304l-.99-3.17c-.213-.702-1.203-.702-1.426 0Z"/><path fill="url(#paint19_radial_3987_19562)" d="m15.287 19.244-.99 3.17a1.005 1.005 0 0 0 .97 1.304h1.466c.688 0 1.173-.662.97-1.304l-.99-3.17c-.213-.702-1.203-.702-1.426 0Z"/><path fill="url(#paint20_linear_3987_19562)" d="m15.287 19.244-.99 3.17a1.005 1.005 0 0 0 .97 1.304h1.466c.688 0 1.173-.662.97-1.304l-.99-3.17c-.213-.702-1.203-.702-1.426 0Z"/><path fill="url(#paint21_linear_3987_19562)" d="m15.287 19.244-.99 3.17a1.005 1.005 0 0 0 .97 1.304h1.466c.688 0 1.173-.662.97-1.304l-.99-3.17c-.213-.702-1.203-.702-1.426 0Z"/><path fill="url(#paint22_radial_3987_19562)" d="m15.287 19.244-.99 3.17a1.005 1.005 0 0 0 .97 1.304h1.466c.688 0 1.173-.662.97-1.304l-.99-3.17c-.213-.702-1.203-.702-1.426 0Z"/></g><path fill="url(#paint23_linear_3987_19562)" d="m15.287 19.244-.99 3.17a1.005 1.005 0 0 0 .97 1.304h1.466c.688 0 1.173-.662.97-1.304l-.99-3.17c-.213-.702-1.203-.702-1.426 0Z"/><path fill="url(#paint24_radial_3987_19562)" d="m15.287 19.244-.99 3.17a1.005 1.005 0 0 0 .97 1.304h1.466c.688 0 1.173-.662.97-1.304l-.99-3.17c-.213-.702-1.203-.702-1.426 0Z"/><path fill="#88024E" stroke="url(#paint25_linear_3987_19562)" stroke-width=".1" d="M13.44 24.456a.335.335 0 0 0-.4.07.305.305 0 0 0-.033.393A3.58 3.58 0 0 0 16 26.518a3.58 3.58 0 0 0 2.994-1.6.31.31 0 0 0-.034-.396.336.336 0 0 0-.4-.066 5.524 5.524 0 0 1-2.56.607 5.54 5.54 0 0 1-2.56-.607Z"/><g filter="url(#filter8_i_3987_19562)"><path fill="#7E7C7F" d="M22.857 15.289h-.001l-.002-.002-.005-.003-.018-.01a4.704 4.704 0 0 0-.277-.143 6.11 6.11 0 0 0-.764-.302c-.634-.202-1.52-.372-2.477-.204a.5.5 0 0 0 .174.985c.743-.13 1.457-.001 1.999.172a5.111 5.111 0 0 1 .849.36l.008.005a.5.5 0 0 0 .514-.858Z"/></g><g filter="url(#filter9_i_3987_19562)"><path fill="#7E7C7F" d="m9.666 16.142-.009.005a.5.5 0 0 1-.514-.858h.001l.002-.002.006-.003.017-.01a3.226 3.226 0 0 1 .277-.143c.184-.088.445-.2.765-.302.633-.202 1.52-.372 2.476-.204a.5.5 0 0 1-.174.985c-.743-.13-1.457-.001-1.998.172a5.114 5.114 0 0 0-.85.36Z"/></g><g filter="url(#filter10_i_3987_19562)"><path fill="#36292E" d="M13.823 18.726c-.495-.87-.987-1.593-2.607-1.593-.968-.067-1.652.232-2.26.723-.5.405-.42.835-.06 1.148l.793.582c1.215-.393 2.817-.467 4.134-.86Z"/></g><g filter="url(#filter11_i_3987_19562)"><path fill="#36292E" d="M18.104 18.726c.494-.87.987-1.593 2.606-1.593.969-.067 1.652.232 2.26.723.501.405.42.835.06 1.148l-.793.582c-1.215-.393-2.817-.467-4.133-.86Z"/></g><path fill="#fff" d="M11.549 17.109c-1.218 0-2.246.84-2.526 1.974a.511.511 0 0 0 .499.635h4.16a.43.43 0 0 0 .423-.507 2.612 2.612 0 0 0-2.556-2.102Z"/><path fill="url(#paint26_radial_3987_19562)" d="M11.934 17.615a1.664 1.664 0 0 0-1.603 2.103h3.215c.037-.144.06-.288.06-.439a1.675 1.675 0 0 0-1.671-1.664Z"/><path fill="#000" d="M12.887 19.28a.949.949 0 0 0-.953-.954.949.949 0 0 0-.952.953c0 .159.037.31.106.439h1.686a.944.944 0 0 0 .114-.439Z"/><g filter="url(#filter12_f_3987_19562)"><path fill="url(#paint27_linear_3987_19562)" d="M13.455 19.084c0-.538-.438-.896-.556-1.005l-.537.52.33.674.763-.19Z"/></g><g filter="url(#filter13_f_3987_19562)" transform="rotate(-27.914 11.432 18.326)"><ellipse cx="11.432" cy="18.326" fill="#C7A7A3" fill-opacity=".9" rx=".726" ry=".368"/><ellipse cx="11.432" cy="18.326" fill="url(#paint28_radial_3987_19562)" rx=".726" ry=".368"/></g><path fill="#fff" d="M20.358 17.163c1.217 0 2.246.84 2.526 1.974a.511.511 0 0 1-.5.636h-4.16a.43.43 0 0 1-.423-.507 2.606 2.606 0 0 1 2.557-2.103Z"/><path fill="url(#paint29_radial_3987_19562)" d="M19.972 17.67a1.664 1.664 0 0 1 1.603 2.102h-3.214a1.702 1.702 0 0 1-.06-.438 1.67 1.67 0 0 1 1.67-1.664Z"/><path fill="#000" d="M19.019 19.334c0-.53.423-.953.953-.953s.953.423.953.953a.94.94 0 0 1-.106.439h-1.687a.862.862 0 0 1-.113-.44Z"/><g filter="url(#filter14_f_3987_19562)"><path fill="#C7A7A3" d="M19.85 18.022c.118.158-.13.352-.412.562-.281.211-.49.36-.609.2-.119-.158.014-.457.296-.668.281-.21.606-.253.724-.094Z"/><path fill="url(#paint30_radial_3987_19562)" d="M19.85 18.022c.118.158-.13.352-.412.562-.281.211-.49.36-.609.2-.119-.158.014-.457.296-.668.281-.21.606-.253.724-.094Z"/></g><g filter="url(#filter15_f_3987_19562)"><path fill="url(#paint31_linear_3987_19562)" d="M21.454 19.115a1.566 1.566 0 0 0-.431-.863l-.485.532.219.425.697-.094Z"/></g><g filter="url(#filter16_f_3987_19562)"><path stroke="url(#paint32_linear_3987_19562)" stroke-linecap="round" stroke-width=".25" d="M9.463 15.656c.343-.245 1.553-.775 3.14-.625"/></g><g filter="url(#filter17_f_3987_19562)"><path stroke="url(#paint33_linear_3987_19562)" stroke-linecap="round" stroke-width=".25" d="M22.734 15.607c-.344-.245-1.553-.775-3.14-.625"/></g><g filter="url(#filter18_f_3987_19562)"><path fill="url(#paint34_linear_3987_19562)" d="M17.634 11.667c-4.272 0-6.27-3.127-6.826-4.55 0-.512 2.554-1.417 6.826-1.162 6.23.373 8.111 4.613 8.266 6.92-.371-1.078-1.393-1.13-1.857-1.208h-6.409Z"/></g><g filter="url(#filter19_f_3987_19562)"><path fill="url(#paint35_linear_3987_19562)" d="M10.67 7.53c-.116 1.076-.929 3.994-4.133 4.458.03-1.176 1.045-4.156 4.133-4.458Z"/></g><path fill="#FFBCAE" fill-rule="evenodd" d="M18.602 20.586a.45.45 0 0 1 .636.031c.196.217.841.684 1.672.657a.45.45 0 1 1 .03.9c-1.16.037-2.043-.593-2.37-.952a.45.45 0 0 1 .032-.636Z" clip-rule="evenodd"/><path fill="#E19B92" fill-rule="evenodd" d="M13.48 20.586a.45.45 0 0 0-.636.031c-.196.217-.842.684-1.672.657a.45.45 0 1 0-.03.9c1.159.037 2.043-.593 2.369-.952a.45.45 0 0 0-.031-.636Z" clip-rule="evenodd"/><defs><radialGradient id="paint0_radial_3987_19562" cx="0" cy="0" r="1" gradientTransform="rotate(159.45 8.82 4.453) scale(8.16232 6.90297)" gradientUnits="userSpaceOnUse"><stop offset=".096" stop-color="#C3C3C3"/><stop offset=".879" stop-color="#868381"/></radialGradient><radialGradient id="paint1_radial_3987_19562" cx="0" cy="0" r="1" gradientTransform="matrix(7.70897 -9.00929 11.38856 9.74484 6.164 15.847)" gradientUnits="userSpaceOnUse"><stop stop-color="#82747B"/><stop offset="1" stop-color="#82747B" stop-opacity="0"/></radialGradient><radialGradient id="paint2_radial_3987_19562" cx="0" cy="0" r="1" gradientTransform="matrix(-2.73002 0 0 -3.69719 8.345 14.77)" gradientUnits="userSpaceOnUse"><stop offset=".223" stop-color="#6F524D"/><stop offset="1" stop-color="#6F524D" stop-opacity="0"/></radialGradient><radialGradient id="paint3_radial_3987_19562" cx="0" cy="0" r="1" gradientTransform="rotate(-109.573 9.23 .966) scale(1.93641 .96821)" gradientUnits="userSpaceOnUse"><stop offset=".167" stop-color="#776169"/><stop offset="1" stop-color="#776169" stop-opacity="0"/></radialGradient><radialGradient id="paint5_radial_3987_19562" cx="0" cy="0" r="1" gradientTransform="matrix(-2.23544 0 0 -1.76349 7.429 19.6)" gradientUnits="userSpaceOnUse"><stop offset=".667" stop-color="#BC8272" stop-opacity="0"/><stop offset="1" stop-color="#BC8272"/></radialGradient><radialGradient id="paint6_radial_3987_19562" cx="0" cy="0" r="1" gradientTransform="matrix(3.40625 -3.79687 4.63581 4.15888 24.414 21.319)" gradientUnits="userSpaceOnUse"><stop offset=".444" stop-color="#E5B1A5"/><stop offset=".944" stop-color="#FFD8C1"/></radialGradient><radialGradient id="paint7_radial_3987_19562" cx="0" cy="0" r="1" gradientTransform="matrix(2.45313 1.375 -.38873 .69354 25.46 16.366)" gradientUnits="userSpaceOnUse"><stop stop-color="#DBA98B"/><stop offset="1" stop-color="#DBA98B" stop-opacity="0"/></radialGradient><radialGradient id="paint8_radial_3987_19562" cx="0" cy="0" r="1" gradientTransform="matrix(2.79684 -.20804 .16263 2.18635 24.225 19.807)" gradientUnits="userSpaceOnUse"><stop offset=".719" stop-color="#F4B89E" stop-opacity="0"/><stop offset="1" stop-color="#F5B99D"/></radialGradient><radialGradient id="paint9_radial_3987_19562" cx="0" cy="0" r="1" gradientTransform="matrix(-9.83758 10.56244 -10.33625 -9.62691 22.462 17.688)" gradientUnits="userSpaceOnUse"><stop offset=".239" stop-color="#FFDCC1"/><stop offset="1" stop-color="#D8A696"/></radialGradient><radialGradient id="paint10_radial_3987_19562" cx="0" cy="0" r="1" gradientTransform="matrix(0 -2.1875 3.14012 0 20.4 17.781)" gradientUnits="userSpaceOnUse"><stop offset=".129" stop-color="#F4B9A9"/><stop offset="1" stop-color="#F4B9A9" stop-opacity="0"/></radialGradient><radialGradient id="paint11_radial_3987_19562" cx="0" cy="0" r="1" gradientTransform="matrix(0 -2.4375 2.75 0 11.994 17.781)" gradientUnits="userSpaceOnUse"><stop offset=".167" stop-color="#CF948D"/><stop offset="1" stop-color="#CF948D" stop-opacity="0"/></radialGradient><radialGradient id="paint12_radial_3987_19562" cx="0" cy="0" r="1" gradientTransform="matrix(0 2.46875 -2.69492 0 11.588 19.156)" gradientUnits="userSpaceOnUse"><stop offset=".291" stop-color="#E8B49E"/><stop offset="1" stop-color="#E8B49E" stop-opacity="0"/></radialGradient><radialGradient id="paint13_radial_3987_19562" cx="0" cy="0" r="1" gradientTransform="matrix(-2.72442 5.81787 -4.91398 -2.30114 19.9 12.778)" gradientUnits="userSpaceOnUse"><stop stop-color="#F0BFB1"/><stop offset="1" stop-color="#F0BFB1" stop-opacity="0"/></radialGradient><radialGradient id="paint14_radial_3987_19562" cx="0" cy="0" r="1" gradientTransform="matrix(1.91564 -.45407 .5613 2.36803 16.807 20.895)" gradientUnits="userSpaceOnUse"><stop stop-color="#FFDCC2"/><stop offset="1" stop-color="#FFDCC2" stop-opacity="0"/></radialGradient><radialGradient id="paint15_radial_3987_19562" cx="0" cy="0" r="1" gradientTransform="matrix(-3.99991 13.56256 -19.47614 -5.74396 17.275 17.25)" gradientUnits="userSpaceOnUse"><stop offset=".563" stop-color="#B67994" stop-opacity="0"/><stop offset="1" stop-color="#B67994"/></radialGradient><radialGradient id="paint16_radial_3987_19562" cx="0" cy="0" r="1" gradientTransform="matrix(-1.47497 10.6875 -2.35379 -.32484 25.5 20.25)" gradientUnits="userSpaceOnUse"><stop stop-color="#FFD7BB"/><stop offset="1" stop-color="#FFD7BB" stop-opacity="0"/></radialGradient><radialGradient id="paint17_radial_3987_19562" cx="0" cy="0" r="1" gradientTransform="matrix(1.06875 2.59374 -3.06547 1.26312 10.525 8.438)" gradientUnits="userSpaceOnUse"><stop stop-color="#8D5D52"/><stop offset="1" stop-color="#8D5D52" stop-opacity="0"/></radialGradient><radialGradient id="paint18_radial_3987_19562" cx="0" cy="0" r="1" gradientTransform="matrix(4.8125 -4.4375 2.99107 3.24384 6.5 10.438)" gradientUnits="userSpaceOnUse"><stop offset=".236" stop-color="#9A6250"/><stop offset="1" stop-color="#9A6250" stop-opacity="0"/></radialGradient><radialGradient id="paint19_radial_3987_19562" cx="0" cy="0" r="1" gradientTransform="matrix(-.84932 -3.81088 1.17448 -.26175 17.462 22.264)" gradientUnits="userSpaceOnUse"><stop offset=".017" stop-color="#FFDCC5"/><stop offset="1" stop-color="#FFDCC5" stop-opacity="0"/></radialGradient><radialGradient id="paint22_radial_3987_19562" cx="0" cy="0" r="1" gradientTransform="matrix(-1.45312 0 0 -.40625 17.016 22.658)" gradientUnits="userSpaceOnUse"><stop stop-color="#FFD6C2"/><stop offset="1" stop-color="#FFD6C2" stop-opacity="0"/></radialGradient><radialGradient id="paint24_radial_3987_19562" cx="0" cy="0" r="1" gradientTransform="matrix(-2.5565 1.75513 -2.1094 -3.07252 16.703 21.549)" gradientUnits="userSpaceOnUse"><stop offset=".778" stop-color="#CC8C8D" stop-opacity="0"/><stop offset="1" stop-color="#CC8C8D"/></radialGradient><radialGradient id="paint26_radial_3987_19562" cx="0" cy="0" r="1" gradientTransform="matrix(0 1.51264 -2.40602 0 11.938 18.505)" gradientUnits="userSpaceOnUse"><stop offset=".802" stop-color="#7D574A"/><stop offset="1" stop-color="#694B43"/><stop offset="1" stop-color="#804D49"/><stop offset="1" stop-color="#664944"/></radialGradient><radialGradient id="paint28_radial_3987_19562" cx="0" cy="0" r="1" gradientTransform="rotate(-90.897 15.012 3.843) scale(.92124 1.10737)" gradientUnits="userSpaceOnUse"><stop offset=".766" stop-color="#FFE6E2" stop-opacity="0"/><stop offset=".966" stop-color="#FFE6E2"/></radialGradient><radialGradient id="paint29_radial_3987_19562" cx="0" cy="0" r="1" gradientTransform="matrix(0 1.51263 -2.406 0 19.968 18.56)" gradientUnits="userSpaceOnUse"><stop offset=".802" stop-color="#7D574A"/><stop offset="1" stop-color="#694B43"/><stop offset="1" stop-color="#804D49"/><stop offset="1" stop-color="#664944"/></radialGradient><radialGradient id="paint30_radial_3987_19562" cx="0" cy="0" r="1" gradientTransform="matrix(-.43239 -.5572 .76712 -.5953 19.543 18.716)" gradientUnits="userSpaceOnUse"><stop offset=".766" stop-color="#FFE6E2" stop-opacity="0"/><stop offset=".966" stop-color="#FFE6E2"/></radialGradient><filter id="filter0_i_3987_19562" width="22.676" height="13.787" x="4.837" y="4.719" color-interpolation-filters="sRGB" filterUnits="userSpaceOnUse"><feFlood flood-opacity="0" result="BackgroundImageFix"/><feBlend in="SourceGraphic" in2="BackgroundImageFix" result="shape"/><feColorMatrix in="SourceAlpha" result="hardAlpha" values="0 0 0 0 0 0 0 0 0 0 0 0 0 0 0 0 0 0 127 0"/><feOffset dx=".75" dy="-.75"/><feGaussianBlur stdDeviation=".625"/><feComposite in2="hardAlpha" k2="-1" k3="1" operator="arithmetic"/><feColorMatrix values="0 0 0 0 0.47451 0 0 0 0 0.45098 0 0 0 0 0.486275 0 0 0 1 0"/><feBlend in2="shape" result="effect1_innerShadow_3987_19562"/></filter><filter id="filter1_i_3987_19562" width="6.15" height="6" x="4.308" y="16.6" color-interpolation-filters="sRGB" filterUnits="userSpaceOnUse"><feFlood flood-opacity="0" result="BackgroundImageFix"/><feBlend in="SourceGraphic" in2="BackgroundImageFix" result="shape"/><feColorMatrix in="SourceAlpha" result="hardAlpha" values="0 0 0 0 0 0 0 0 0 0 0 0 0 0 0 0 0 0 127 0"/><feOffset dx=".15"/><feGaussianBlur stdDeviation=".25"/><feComposite in2="hardAlpha" k2="-1" k3="1" operator="arithmetic"/><feColorMatrix values="0 0 0 0 0.894118 0 0 0 0 0.682353 0 0 0 0 0.6 0 0 0 1 0"/><feBlend in2="shape" result="effect1_innerShadow_3987_19562"/></filter><filter id="filter2_f_3987_19562" width="4.779" height="4.779" x="4.918" y="17.21" color-interpolation-filters="sRGB" filterUnits="userSpaceOnUse"><feFlood flood-opacity="0" result="BackgroundImageFix"/><feBlend in="SourceGraphic" in2="BackgroundImageFix" result="shape"/><feGaussianBlur result="effect1_foregroundBlur_3987_19562" stdDeviation=".2"/></filter><filter id="filter3_i_3987_19562" width="6" height="6.25" x="22.008" y="16.25" color-interpolation-filters="sRGB" filterUnits="userSpaceOnUse"><feFlood flood-opacity="0" result="BackgroundImageFix"/><feBlend in="SourceGraphic" in2="BackgroundImageFix" result="shape"/><feColorMatrix in="SourceAlpha" result="hardAlpha" values="0 0 0 0 0 0 0 0 0 0 0 0 0 0 0 0 0 0 127 0"/><feOffset dy="-.25"/><feGaussianBlur stdDeviation=".25"/><feComposite in2="hardAlpha" k2="-1" k3="1" operator="arithmetic"/><feColorMatrix values="0 0 0 0 0.784314 0 0 0 0 0.572549 0 0 0 0 0.513726 0 0 0 1 0"/><feBlend in2="shape" result="effect1_innerShadow_3987_19562"/></filter><filter id="filter4_f_3987_19562" width="4.979" height="4.979" x="22.543" y="17.11" color-interpolation-filters="sRGB" filterUnits="userSpaceOnUse"><feFlood flood-opacity="0" result="BackgroundImageFix"/><feBlend in="SourceGraphic" in2="BackgroundImageFix" result="shape"/><feGaussianBlur result="effect1_foregroundBlur_3987_19562" stdDeviation=".25"/></filter><filter id="filter5_ii_3987_19562" width="20" height="21.833" x="6.5" y="9.137" color-interpolation-filters="sRGB" filterUnits="userSpaceOnUse"><feFlood flood-opacity="0" result="BackgroundImageFix"/><feBlend in="SourceGraphic" in2="BackgroundImageFix" result="shape"/><feColorMatrix in="SourceAlpha" result="hardAlpha" values="0 0 0 0 0 0 0 0 0 0 0 0 0 0 0 0 0 0 127 0"/><feOffset dx="1"/><feGaussianBlur stdDeviation=".5"/><feComposite in2="hardAlpha" k2="-1" k3="1" operator="arithmetic"/><feColorMatrix values="0 0 0 0 0.917647 0 0 0 0 0.690196 0 0 0 0 0.6 0 0 0 1 0"/><feBlend in2="shape" result="effect1_innerShadow_3987_19562"/><feColorMatrix in="SourceAlpha" result="hardAlpha" values="0 0 0 0 0 0 0 0 0 0 0 0 0 0 0 0 0 0 127 0"/><feOffset dy=".5"/><feGaussianBlur stdDeviation=".75"/><feComposite in2="hardAlpha" k2="-1" k3="1" operator="arithmetic"/><feColorMatrix values="0 0 0 0 0.831373 0 0 0 0 0.603922 0 0 0 0 0.521569 0 0 0 1 0"/><feBlend in2="effect1_innerShadow_3987_19562" result="effect2_innerShadow_3987_19562"/></filter><filter id="filter6_f_3987_19562" width="4.5" height="6" x="13.438" y="18.448" color-interpolation-filters="sRGB" filterUnits="userSpaceOnUse"><feFlood flood-opacity="0" result="BackgroundImageFix"/><feBlend in="SourceGraphic" in2="BackgroundImageFix" result="shape"/><feGaussianBlur result="effect1_foregroundBlur_3987_19562" stdDeviation=".25"/></filter><filter id="filter7_f_3987_19562" width="4" height="5.5" x="14" y="18.468" color-interpolation-filters="sRGB" filterUnits="userSpaceOnUse"><feFlood flood-opacity="0" result="BackgroundImageFix"/><feBlend in="SourceGraphic" in2="BackgroundImageFix" result="shape"/><feGaussianBlur result="effect1_foregroundBlur_3987_19562" stdDeviation=".125"/></filter><filter id="filter8_i_3987_19562" width="4.35" height="1.811" x="18.9" y="14.407" color-interpolation-filters="sRGB" filterUnits="userSpaceOnUse"><feFlood flood-opacity="0" result="BackgroundImageFix"/><feBlend in="SourceGraphic" in2="BackgroundImageFix" result="shape"/><feColorMatrix in="SourceAlpha" result="hardAlpha" values="0 0 0 0 0 0 0 0 0 0 0 0 0 0 0 0 0 0 127 0"/><feOffset dx=".15" dy="-.15"/><feGaussianBlur stdDeviation=".2"/><feComposite in2="hardAlpha" k2="-1" k3="1" operator="arithmetic"/><feColorMatrix values="0 0 0 0 0.345098 0 0 0 0 0.305882 0 0 0 0 0.368627 0 0 0 1 0"/><feBlend in2="shape" result="effect1_innerShadow_3987_19562"/></filter><filter id="filter9_i_3987_19562" width="4.35" height="1.811" x="8.9" y="14.407" color-interpolation-filters="sRGB" filterUnits="userSpaceOnUse"><feFlood flood-opacity="0" result="BackgroundImageFix"/><feBlend in="SourceGraphic" in2="BackgroundImageFix" result="shape"/><feColorMatrix in="SourceAlpha" result="hardAlpha" values="0 0 0 0 0 0 0 0 0 0 0 0 0 0 0 0 0 0 127 0"/><feOffset dx=".15" dy="-.15"/><feGaussianBlur stdDeviation=".2"/><feComposite in2="hardAlpha" k2="-1" k3="1" operator="arithmetic"/><feColorMatrix values="0 0 0 0 0.345098 0 0 0 0 0.305882 0 0 0 0 0.368627 0 0 0 1 0"/><feBlend in2="shape" result="effect1_innerShadow_3987_19562"/></filter><filter id="filter10_i_3987_19562" width="5.419" height="2.462" x="8.604" y="17.123" color-interpolation-filters="sRGB" filterUnits="userSpaceOnUse"><feFlood flood-opacity="0" result="BackgroundImageFix"/><feBlend in="SourceGraphic" in2="BackgroundImageFix" result="shape"/><feColorMatrix in="SourceAlpha" result="hardAlpha" values="0 0 0 0 0 0 0 0 0 0 0 0 0 0 0 0 0 0 127 0"/><feOffset dx=".2"/><feGaussianBlur stdDeviation=".125"/><feComposite in2="hardAlpha" k2="-1" k3="1" operator="arithmetic"/><feColorMatrix values="0 0 0 0 0.133333 0 0 0 0 0.0784314 0 0 0 0 0.168627 0 0 0 1 0"/><feBlend in2="shape" result="effect1_innerShadow_3987_19562"/></filter><filter id="filter11_i_3987_19562" width="5.419" height="2.462" x="18.104" y="17.123" color-interpolation-filters="sRGB" filterUnits="userSpaceOnUse"><feFlood flood-opacity="0" result="BackgroundImageFix"/><feBlend in="SourceGraphic" in2="BackgroundImageFix" result="shape"/><feColorMatrix in="SourceAlpha" result="hardAlpha" values="0 0 0 0 0 0 0 0 0 0 0 0 0 0 0 0 0 0 127 0"/><feOffset dx=".2"/><feGaussianBlur stdDeviation=".125"/><feComposite in2="hardAlpha" k2="-1" k3="1" operator="arithmetic"/><feColorMatrix values="0 0 0 0 0.133333 0 0 0 0 0.0784314 0 0 0 0 0.168627 0 0 0 1 0"/><feBlend in2="shape" result="effect1_innerShadow_3987_19562"/></filter><filter id="filter12_f_3987_19562" width="1.493" height="1.594" x="12.162" y="17.879" color-interpolation-filters="sRGB" filterUnits="userSpaceOnUse"><feFlood flood-opacity="0" result="BackgroundImageFix"/><feBlend in="SourceGraphic" in2="BackgroundImageFix" result="shape"/><feGaussianBlur result="effect1_foregroundBlur_3987_19562" stdDeviation=".1"/></filter><filter id="filter13_f_3987_19562" width="1.529" height="1.141" x="10.668" y="17.756" color-interpolation-filters="sRGB" filterUnits="userSpaceOnUse"><feFlood flood-opacity="0" result="BackgroundImageFix"/><feBlend in="SourceGraphic" in2="BackgroundImageFix" result="shape"/><feGaussianBlur result="effect1_foregroundBlur_3987_19562" stdDeviation=".05"/></filter><filter id="filter14_f_3987_19562" width="1.294" height="1.125" x="18.686" y="17.826" color-interpolation-filters="sRGB" filterUnits="userSpaceOnUse"><feFlood flood-opacity="0" result="BackgroundImageFix"/><feBlend in="SourceGraphic" in2="BackgroundImageFix" result="shape"/><feGaussianBlur result="effect1_foregroundBlur_3987_19562" stdDeviation=".05"/></filter><filter id="filter15_f_3987_19562" width="1.316" height="1.357" x="20.338" y="18.052" color-interpolation-filters="sRGB" filterUnits="userSpaceOnUse"><feFlood flood-opacity="0" result="BackgroundImageFix"/><feBlend in="SourceGraphic" in2="BackgroundImageFix" result="shape"/><feGaussianBlur result="effect1_foregroundBlur_3987_19562" stdDeviation=".1"/></filter><filter id="filter16_f_3987_19562" width="3.891" height="1.401" x="9.088" y="14.63" color-interpolation-filters="sRGB" filterUnits="userSpaceOnUse"><feFlood flood-opacity="0" result="BackgroundImageFix"/><feBlend in="SourceGraphic" in2="BackgroundImageFix" result="shape"/><feGaussianBlur result="effect1_foregroundBlur_3987_19562" stdDeviation=".125"/></filter><filter id="filter17_f_3987_19562" width="3.891" height="1.401" x="19.219" y="14.581" color-interpolation-filters="sRGB" filterUnits="userSpaceOnUse"><feFlood flood-opacity="0" result="BackgroundImageFix"/><feBlend in="SourceGraphic" in2="BackgroundImageFix" result="shape"/><feGaussianBlur result="effect1_foregroundBlur_3987_19562" stdDeviation=".125"/></filter><filter id="filter18_f_3987_19562" width="17.593" height="9.464" x="9.558" y="4.661" color-interpolation-filters="sRGB" filterUnits="userSpaceOnUse"><feFlood flood-opacity="0" result="BackgroundImageFix"/><feBlend in="SourceGraphic" in2="BackgroundImageFix" result="shape"/><feGaussianBlur result="effect1_foregroundBlur_3987_19562" stdDeviation=".625"/></filter><filter id="filter19_f_3987_19562" width="6.633" height="6.958" x="5.287" y="6.28" color-interpolation-filters="sRGB" filterUnits="userSpaceOnUse"><feFlood flood-opacity="0" result="BackgroundImageFix"/><feBlend in="SourceGraphic" in2="BackgroundImageFix" result="shape"/><feGaussianBlur result="effect1_foregroundBlur_3987_19562" stdDeviation=".625"/></filter><linearGradient id="paint4_linear_3987_19562" x1="4.308" x2="9.825" y1="19.762" y2="19.762" gradientUnits="userSpaceOnUse"><stop stop-color="#CC9987"/><stop offset="1" stop-color="#AC7864"/></linearGradient><linearGradient id="paint20_linear_3987_19562" x1="14.25" x2="16" y1="22.4" y2="22.4" gradientUnits="userSpaceOnUse"><stop stop-color="#DFA791"/><stop offset="1" stop-color="#DFA791" stop-opacity="0"/></linearGradient><linearGradient id="paint21_linear_3987_19562" x1="16" x2="16" y1="23.889" y2="22.752" gradientUnits="userSpaceOnUse"><stop stop-color="#D29394"/><stop offset="1" stop-color="#D29394" stop-opacity="0"/></linearGradient><linearGradient id="paint23_linear_3987_19562" x1="16.146" x2="16.146" y1="23.841" y2="23.581" gradientUnits="userSpaceOnUse"><stop stop-color="#CC8C8D"/><stop offset="1" stop-color="#CC8C8D" stop-opacity="0"/></linearGradient><linearGradient id="paint25_linear_3987_19562" x1="14.066" x2="14.877" y1="26.23" y2="24.947" gradientUnits="userSpaceOnUse"><stop stop-color="#D9A4A4"/><stop offset=".663" stop-color="#D9A4A4" stop-opacity="0"/></linearGradient><linearGradient id="paint27_linear_3987_19562" x1="13.325" x2="12.74" y1="18.605" y2="18.966" gradientUnits="userSpaceOnUse"><stop stop-color="#B4948D"/><stop offset="1" stop-color="#B4948D" stop-opacity="0"/></linearGradient><linearGradient id="paint31_linear_3987_19562" x1="21.418" x2="20.834" y1="18.66" y2="19.02" gradientUnits="userSpaceOnUse"><stop stop-color="#B4948D"/><stop offset="1" stop-color="#B4948D" stop-opacity="0"/></linearGradient><linearGradient id="paint32_linear_3987_19562" x1="9.74" x2="12.771" y1="15.901" y2="15.005" gradientUnits="userSpaceOnUse"><stop stop-color="#A3A2A4" stop-opacity="0"/><stop offset="1" stop-color="#A3A2A4"/></linearGradient><linearGradient id="paint33_linear_3987_19562" x1="18.236" x2="22.439" y1="14.841" y2="15.482" gradientUnits="userSpaceOnUse"><stop stop-color="#A3A2A4" stop-opacity="0"/><stop offset="1" stop-color="#A3A2A4"/></linearGradient><linearGradient id="paint34_linear_3987_19562" x1="22.557" x2="12.479" y1="9.995" y2="5.491" gradientUnits="userSpaceOnUse"><stop stop-color="#BBB9BC"/><stop offset="1" stop-color="#BBB9BC" stop-opacity="0"/></linearGradient><linearGradient id="paint35_linear_3987_19562" x1="10.32" x2="10.044" y1="7.952" y2="10.795" gradientUnits="userSpaceOnUse"><stop stop-color="#BBB9BC"/><stop offset="1" stop-color="#BBB9BC" stop-opacity="0"/></linearGradient></defs></svg>