<svg xmlns="http://www.w3.org/2000/svg" width="32" height="32" fill="none" viewBox="0 0 32 32"><path fill="url(#paint0_linear_28327_3592)" d="M12.64 16.849h-5l-2.75 7.32c-.12.33.12.68.47.68h3.93c.21 0 .39-.13.47-.32l2.88-7.68Z"/><path fill="url(#paint1_linear_28327_3592)" d="M12.64 16.849h-5l-2.75 7.32c-.12.33.12.68.47.68h3.93c.21 0 .39-.13.47-.32l2.88-7.68Z"/><path fill="url(#paint2_linear_28327_3592)" d="M12.64 16.849h-5l-2.75 7.32c-.12.33.12.68.47.68h3.93c.21 0 .39-.13.47-.32l2.88-7.68Z"/><path fill="url(#paint3_linear_28327_3592)" d="M23.64 16.849h-5l-2.75 7.32c-.12.33.12.68.47.68h3.93c.21 0 .39-.13.47-.32l2.88-7.68Z"/><path fill="url(#paint4_linear_28327_3592)" d="M23.64 16.849h-5l-2.75 7.32c-.12.33.12.68.47.68h3.93c.21 0 .39-.13.47-.32l2.88-7.68Z"/><path fill="url(#paint5_linear_28327_3592)" d="M23.64 16.849h-5l-2.75 7.32c-.12.33.12.68.47.68h3.93c.21 0 .39-.13.47-.32l2.88-7.68Z"/><path fill="#6F7073" d="M22 7.849c3.21 0 5.51 1.07 6.83 3.5.52.94.81 2.03.82 3.18v3.73c0 .097-.003.193-.01.288v3.292c0 .28-.22.5-.5.5s-.5-.22-.5-.5v-.888a4.108 4.108 0 0 1-1 .83v2.568c0 .28-.22.5-.5.5h-4.69c-.37 0-.61-.39-.45-.72l.3-.59c.183-.372.296-.778.33-1.19h-5.99v2c0 .28-.22.5-.5.5h-4.78a.5.5 0 0 1-.43-.75l.28-.5c.28-.49.43-1.05.43-1.62V20.35c-.946-.439-1.973-.716-3-.932v-7.6c0-2.19 1.78-3.97 3.97-3.97H22Z"/><path fill="url(#paint6_radial_28327_3592)" d="M22 7.849c3.21 0 5.51 1.07 6.83 3.5.52.94.81 2.03.82 3.18v3.73c0 .097-.003.193-.01.288v3.292c0 .28-.22.5-.5.5s-.5-.22-.5-.5v-.888a4.108 4.108 0 0 1-1 .83v2.568c0 .28-.22.5-.5.5h-4.69c-.37 0-.61-.39-.45-.72l.3-.59c.183-.372.296-.778.33-1.19h-5.99v2c0 .28-.22.5-.5.5h-4.78a.5.5 0 0 1-.43-.75l.28-.5c.28-.49.43-1.05.43-1.62V20.35c-.946-.439-1.973-.716-3-.932v-7.6c0-2.19 1.78-3.97 3.97-3.97H22Z"/><path fill="url(#paint7_radial_28327_3592)" d="M22 7.849c3.21 0 5.51 1.07 6.83 3.5.52.94.81 2.03.82 3.18v3.73c0 .097-.003.193-.01.288v3.292c0 .28-.22.5-.5.5s-.5-.22-.5-.5v-.888a4.108 4.108 0 0 1-1 .83v2.568c0 .28-.22.5-.5.5h-4.69c-.37 0-.61-.39-.45-.72l.3-.59c.183-.372.296-.778.33-1.19h-5.99v2c0 .28-.22.5-.5.5h-4.78a.5.5 0 0 1-.43-.75l.28-.5c.28-.49.43-1.05.43-1.62V20.35c-.946-.439-1.973-.716-3-.932v-7.6c0-2.19 1.78-3.97 3.97-3.97H22Z"/><path fill="url(#paint8_radial_28327_3592)" d="M22 7.849c3.21 0 5.51 1.07 6.83 3.5.52.94.81 2.03.82 3.18v3.73c0 .097-.003.193-.01.288v3.292c0 .28-.22.5-.5.5s-.5-.22-.5-.5v-.888a4.108 4.108 0 0 1-1 .83v2.568c0 .28-.22.5-.5.5h-4.69c-.37 0-.61-.39-.45-.72l.3-.59c.183-.372.296-.778.33-1.19h-5.99v2c0 .28-.22.5-.5.5h-4.78a.5.5 0 0 1-.43-.75l.28-.5c.28-.49.43-1.05.43-1.62V20.35c-.946-.439-1.973-.716-3-.932v-7.6c0-2.19 1.78-3.97 3.97-3.97H22Z"/><path fill="url(#paint9_radial_28327_3592)" d="M22 7.849c3.21 0 5.51 1.07 6.83 3.5.52.94.81 2.03.82 3.18v3.73c0 .097-.003.193-.01.288v3.292c0 .28-.22.5-.5.5s-.5-.22-.5-.5v-.888a4.108 4.108 0 0 1-1 .83v2.568c0 .28-.22.5-.5.5h-4.69c-.37 0-.61-.39-.45-.72l.3-.59c.183-.372.296-.778.33-1.19h-5.99v2c0 .28-.22.5-.5.5h-4.78a.5.5 0 0 1-.43-.75l.28-.5c.28-.49.43-1.05.43-1.62V20.35c-.946-.439-1.973-.716-3-.932v-7.6c0-2.19 1.78-3.97 3.97-3.97H22Z"/><path fill="url(#paint10_radial_28327_3592)" d="M22 7.849c3.21 0 5.51 1.07 6.83 3.5.52.94.81 2.03.82 3.18v3.73c0 .097-.003.193-.01.288v3.292c0 .28-.22.5-.5.5s-.5-.22-.5-.5v-.888a4.108 4.108 0 0 1-1 .83v2.568c0 .28-.22.5-.5.5h-4.69c-.37 0-.61-.39-.45-.72l.3-.59c.183-.372.296-.778.33-1.19h-5.99v2c0 .28-.22.5-.5.5h-4.78a.5.5 0 0 1-.43-.75l.28-.5c.28-.49.43-1.05.43-1.62V20.35c-.946-.439-1.973-.716-3-.932v-7.6c0-2.19 1.78-3.97 3.97-3.97H22Z"/><path fill="url(#paint11_radial_28327_3592)" d="M22 7.849c3.21 0 5.51 1.07 6.83 3.5.52.94.81 2.03.82 3.18v3.73c0 .097-.003.193-.01.288v3.292c0 .28-.22.5-.5.5s-.5-.22-.5-.5v-.888a4.108 4.108 0 0 1-1 .83v2.568c0 .28-.22.5-.5.5h-4.69c-.37 0-.61-.39-.45-.72l.3-.59c.183-.372.296-.778.33-1.19h-5.99v2c0 .28-.22.5-.5.5h-4.78a.5.5 0 0 1-.43-.75l.28-.5c.28-.49.43-1.05.43-1.62V20.35c-.946-.439-1.973-.716-3-.932v-7.6c0-2.19 1.78-3.97 3.97-3.97H22Z"/><path fill="url(#paint12_radial_28327_3592)" d="M22 7.849c3.21 0 5.51 1.07 6.83 3.5.52.94.81 2.03.82 3.18v3.73c0 .097-.003.193-.01.288v3.292c0 .28-.22.5-.5.5s-.5-.22-.5-.5v-.888a4.108 4.108 0 0 1-1 .83v2.568c0 .28-.22.5-.5.5h-4.69c-.37 0-.61-.39-.45-.72l.3-.59c.183-.372.296-.778.33-1.19h-5.99v2c0 .28-.22.5-.5.5h-4.78a.5.5 0 0 1-.43-.75l.28-.5c.28-.49.43-1.05.43-1.62V20.35c-.946-.439-1.973-.716-3-.932v-7.6c0-2.19 1.78-3.97 3.97-3.97H22Z"/><path fill="url(#paint13_linear_28327_3592)" d="M22 7.849c3.21 0 5.51 1.07 6.83 3.5.52.94.81 2.03.82 3.18v3.73c0 .097-.003.193-.01.288v3.292c0 .28-.22.5-.5.5s-.5-.22-.5-.5v-.888a4.108 4.108 0 0 1-1 .83v2.568c0 .28-.22.5-.5.5h-4.69c-.37 0-.61-.39-.45-.72l.3-.59c.183-.372.296-.778.33-1.19h-5.99v2c0 .28-.22.5-.5.5h-4.78a.5.5 0 0 1-.43-.75l.28-.5c.28-.49.43-1.05.43-1.62V20.35c-.946-.439-1.973-.716-3-.932v-7.6c0-2.19 1.78-3.97 3.97-3.97H22Z"/><path fill="url(#paint14_linear_28327_3592)" d="M22 7.849c3.21 0 5.51 1.07 6.83 3.5.52.94.81 2.03.82 3.18v3.73c0 .097-.003.193-.01.288v3.292c0 .28-.22.5-.5.5s-.5-.22-.5-.5v-.888a4.108 4.108 0 0 1-1 .83v2.568c0 .28-.22.5-.5.5h-4.69c-.37 0-.61-.39-.45-.72l.3-.59c.183-.372.296-.778.33-1.19h-5.99v2c0 .28-.22.5-.5.5h-4.78a.5.5 0 0 1-.43-.75l.28-.5c.28-.49.43-1.05.43-1.62V20.35c-.946-.439-1.973-.716-3-.932v-7.6c0-2.19 1.78-3.97 3.97-3.97H22Z"/><path fill="url(#paint15_radial_28327_3592)" d="M22 7.849c3.21 0 5.51 1.07 6.83 3.5.52.94.81 2.03.82 3.18v3.73c0 .097-.003.193-.01.288v3.292c0 .28-.22.5-.5.5s-.5-.22-.5-.5v-.888a4.108 4.108 0 0 1-1 .83v2.568c0 .28-.22.5-.5.5h-4.69c-.37 0-.61-.39-.45-.72l.3-.59c.183-.372.296-.778.33-1.19h-5.99v2c0 .28-.22.5-.5.5h-4.78a.5.5 0 0 1-.43-.75l.28-.5c.28-.49.43-1.05.43-1.62V20.35c-.946-.439-1.973-.716-3-.932v-7.6c0-2.19 1.78-3.97 3.97-3.97H22Z"/><g filter="url(#filter0_f_28327_3592)"><path fill="url(#paint16_linear_28327_3592)" d="M16 19.583v4.672l-1.188-4.078L16 19.583Z"/></g><path fill="url(#paint17_linear_28327_3592)" d="M22.64 21.799c0-.61-.24-1.19-.67-1.62l-.33-.33h-5v2.49h6v-.54Z"/><path fill="url(#paint18_linear_28327_3592)" d="M22.64 21.799c0-.61-.24-1.19-.67-1.62l-.33-.33h-5v2.49h6v-.54Z"/><path fill="url(#paint19_linear_28327_3592)" d="M22.64 21.799c0-.61-.24-1.19-.67-1.62l-.33-.33h-5v2.49h6v-.54Z"/><path fill="url(#paint20_radial_28327_3592)" d="M22.64 21.799c0-.61-.24-1.19-.67-1.62l-.33-.33h-5v2.49h6v-.54Z"/><path fill="url(#paint21_linear_28327_3592)" d="M11.56 6.849c-.51 0-.92.41-.92.92v1.57h1.18l.56-1.14a.924.924 0 0 0-.82-1.35Z"/><path fill="url(#paint22_linear_28327_3592)" d="M11.56 6.849c-.51 0-.92.41-.92.92v1.57h1.18l.56-1.14a.924.924 0 0 0-.82-1.35Z"/><path fill="url(#paint23_radial_28327_3592)" d="M12.48 7.729c-.03-.58-.91-.56-.92.02v1.59h.26l.56-1.14a.91.91 0 0 0 .1-.47Z"/><path fill="url(#paint24_linear_28327_3592)" d="M7.72 6.849c.51 0 .92.41.92.92v1.57H7.46l-.56-1.14a.924.924 0 0 1 .82-1.35Z"/><path fill="url(#paint25_radial_28327_3592)" d="M7.72 6.849c.51 0 .92.41.92.92v1.57H7.46l-.56-1.14a.924.924 0 0 1 .82-1.35Z"/><path fill="url(#paint26_radial_28327_3592)" d="M6.8 7.729c.03-.58.91-.56.92.02v1.59h-.26l-.56-1.14a.91.91 0 0 1-.1-.47Z"/><g filter="url(#filter1_i_28327_3592)"><path fill="url(#paint27_linear_28327_3592)" d="M4.752 13.118c.288-.079.509-.327.509-.626V10.91c0-.87.7-1.57 1.57-1.57h5.32c.87 0 1.57.7 1.57 1.57v1.58c0 .3.221.548.51.626a4.226 4.226 0 0 1-1.11 8.304H5.87a4.226 4.226 0 0 1-1.119-8.301Z"/><path fill="url(#paint28_linear_28327_3592)" d="M4.752 13.118c.288-.079.509-.327.509-.626V10.91c0-.87.7-1.57 1.57-1.57h5.32c.87 0 1.57.7 1.57 1.57v1.58c0 .3.221.548.51.626a4.226 4.226 0 0 1-1.11 8.304H5.87a4.226 4.226 0 0 1-1.119-8.301Z"/><path fill="url(#paint29_linear_28327_3592)" d="M4.752 13.118c.288-.079.509-.327.509-.626V10.91c0-.87.7-1.57 1.57-1.57h5.32c.87 0 1.57.7 1.57 1.57v1.58c0 .3.221.548.51.626a4.226 4.226 0 0 1-1.11 8.304H5.87a4.226 4.226 0 0 1-1.119-8.301Z"/><path fill="url(#paint30_radial_28327_3592)" d="M4.752 13.118c.288-.079.509-.327.509-.626V10.91c0-.87.7-1.57 1.57-1.57h5.32c.87 0 1.57.7 1.57 1.57v1.58c0 .3.221.548.51.626a4.226 4.226 0 0 1-1.11 8.304H5.87a4.226 4.226 0 0 1-1.119-8.301Z"/><path fill="url(#paint31_radial_28327_3592)" d="M4.752 13.118c.288-.079.509-.327.509-.626V10.91c0-.87.7-1.57 1.57-1.57h5.32c.87 0 1.57.7 1.57 1.57v1.58c0 .3.221.548.51.626a4.226 4.226 0 0 1-1.11 8.304H5.87a4.226 4.226 0 0 1-1.119-8.301Z"/><path fill="url(#paint32_radial_28327_3592)" d="M4.752 13.118c.288-.079.509-.327.509-.626V10.91c0-.87.7-1.57 1.57-1.57h5.32c.87 0 1.57.7 1.57 1.57v1.58c0 .3.221.548.51.626a4.226 4.226 0 0 1-1.11 8.304H5.87a4.226 4.226 0 0 1-1.119-8.301Z"/></g><g filter="url(#filter2_f_28327_3592)"><path fill="url(#paint33_linear_28327_3592)" d="M10.953 11.32v2.748c0 .138.112.25.25.25h1.688a.25.25 0 0 0 .25-.25v-3.544a.25.25 0 0 0-.357-.226l-1.688.796a.25.25 0 0 0-.143.226Z"/></g><path fill="url(#paint34_radial_28327_3592)" d="M5.87 19.009c-1.33 0-2.42-1.08-2.42-2.42 0-1.34 1.09-2.42 2.42-2.42h7.25c1.33 0 2.42 1.08 2.42 2.42 0 1.34-1.08 2.42-2.42 2.42H5.87Z"/><path fill="url(#paint35_linear_28327_3592)" d="M5.87 19.009c-1.33 0-2.42-1.08-2.42-2.42 0-1.34 1.09-2.42 2.42-2.42h7.25c1.33 0 2.42 1.08 2.42 2.42 0 1.34-1.08 2.42-2.42 2.42H5.87Z"/><path fill="url(#paint36_radial_28327_3592)" d="M5.87 19.009c-1.33 0-2.42-1.08-2.42-2.42 0-1.34 1.09-2.42 2.42-2.42h7.25c1.33 0 2.42 1.08 2.42 2.42 0 1.34-1.08 2.42-2.42 2.42H5.87Z"/><path fill="url(#paint37_radial_28327_3592)" d="m6.65 17.089-.56-.57a.592.592 0 0 1 0-.85c.24-.24.62-.24.85 0l.57.57c.24.24.24.62 0 .85-.24.23-.62.23-.86 0Z"/><path fill="url(#paint38_linear_28327_3592)" d="m6.65 17.089-.56-.57a.592.592 0 0 1 0-.85c.24-.24.62-.24.85 0l.57.57c.24.24.24.62 0 .85-.24.23-.62.23-.86 0Z"/><path fill="url(#paint39_radial_28327_3592)" d="m12.59 17.089.57-.57c.24-.24.24-.62 0-.85a.592.592 0 0 0-.85 0l-.57.56c-.24.24-.24.62 0 .85a.6.6 0 0 0 .85.01Z"/><path fill="url(#paint40_radial_28327_3592)" d="m12.59 17.089.57-.57c.24-.24.24-.62 0-.85a.592.592 0 0 0-.85 0l-.57.56c-.24.24-.24.62 0 .85a.6.6 0 0 0 .85.01Z"/><g filter="url(#filter3_f_28327_3592)"><path fill="#46454A" d="M7.8 13.747a.445.445 0 0 1-.45-.45v-.905c0-.252.199-.45.45-.45.252 0 .45.198.45.45v.906c0 .251-.198.45-.45.45Z"/></g><g filter="url(#filter4_f_28327_3592)"><path fill="#46454A" d="M10.832 13.747a.445.445 0 0 1-.45-.45v-.905c0-.252.198-.45.45-.45.251 0 .449.198.449.45v.906c0 .251-.198.45-.45.45Z"/></g><path fill="url(#paint41_linear_28327_3592)" d="M8.011 13.849c-.28 0-.5-.22-.5-.5V12.34c0-.28.22-.5.5-.5s.5.22.5.5v1.008c0 .28-.22.5-.5.5Z"/><path fill="url(#paint42_linear_28327_3592)" d="M8.011 13.849c-.28 0-.5-.22-.5-.5V12.34c0-.28.22-.5.5-.5s.5.22.5.5v1.008c0 .28-.22.5-.5.5Z"/><path fill="url(#paint43_radial_28327_3592)" d="M8.011 13.849c-.28 0-.5-.22-.5-.5V12.34c0-.28.22-.5.5-.5s.5.22.5.5v1.008c0 .28-.22.5-.5.5Z"/><path fill="url(#paint44_linear_28327_3592)" d="M10.98 13.849c-.28 0-.5-.22-.5-.5V12.34c0-.28.22-.5.5-.5s.5.22.5.5v1.008c0 .28-.22.5-.5.5Z"/><path fill="url(#paint45_linear_28327_3592)" d="M10.98 13.849c-.28 0-.5-.22-.5-.5V12.34c0-.28.22-.5.5-.5s.5.22.5.5v1.008c0 .28-.22.5-.5.5Z"/><path fill="url(#paint46_radial_28327_3592)" d="M10.98 13.849c-.28 0-.5-.22-.5-.5V12.34c0-.28.22-.5.5-.5s.5.22.5.5v1.008c0 .28-.22.5-.5.5Z"/><g filter="url(#filter5_f_28327_3592)"><ellipse cx="24.653" cy="12.842" fill="url(#paint47_radial_28327_3592)" rx="4.289" ry="3.683" transform="rotate(45.67 24.653 12.842)"/></g><g filter="url(#filter6_f_28327_3592)"><path fill="url(#paint48_linear_28327_3592)" d="M26.688 19.192h.469v5.109h-.469z"/></g><g filter="url(#filter7_f_28327_3592)"><path fill="url(#paint49_linear_28327_3592)" fill-opacity=".5" d="m23.651 19.505 2.847 4.28a.25.25 0 0 0 .458-.139v-2.864a.25.25 0 0 1 .095-.196l1.713-1.35a.25.25 0 0 0 .095-.196v-4.691a.25.25 0 0 0-.25-.25h-4.75a.25.25 0 0 0-.25.25v5.018c0 .05.015.097.042.138Z"/></g><g filter="url(#filter8_f_28327_3592)"><path stroke="url(#paint50_linear_28327_3592)" stroke-linecap="round" stroke-opacity=".75" stroke-width=".3" d="M11.61 24.2c.155-.137.658-.695.777-.922"/></g><g filter="url(#filter9_f_28327_3592)"><path stroke="url(#paint51_linear_28327_3592)" stroke-linecap="round" stroke-width=".15" d="M29.328 21.896v-1.782"/></g><defs><linearGradient id="paint0_linear_28327_3592" x1="8.75" x2="8.75" y1="18.474" y2="24.161" gradientUnits="userSpaceOnUse"><stop stop-color="#2A2233"/><stop offset="1" stop-color="#433851"/></linearGradient><linearGradient id="paint1_linear_28327_3592" x1="8.75" x2="8.75" y1="23.664" y2="25.661" gradientUnits="userSpaceOnUse"><stop stop-color="#62487A" stop-opacity="0"/><stop offset="1" stop-color="#62487A"/></linearGradient><linearGradient id="paint2_linear_28327_3592" x1="4.75" x2="6.203" y1="22.536" y2="23.302" gradientUnits="userSpaceOnUse"><stop stop-color="#848485"/><stop offset=".724" stop-color="#848485" stop-opacity="0"/></linearGradient><linearGradient id="paint3_linear_28327_3592" x1="19.75" x2="18.922" y1="19.38" y2="23.161" gradientUnits="userSpaceOnUse"><stop stop-color="#2A2233"/><stop offset="1" stop-color="#433851"/></linearGradient><linearGradient id="paint4_linear_28327_3592" x1="19.75" x2="19.75" y1="23.664" y2="25.661" gradientUnits="userSpaceOnUse"><stop stop-color="#62487A" stop-opacity="0"/><stop offset="1" stop-color="#62487A"/></linearGradient><linearGradient id="paint5_linear_28327_3592" x1="14.984" x2="17.203" y1="22.286" y2="23.302" gradientUnits="userSpaceOnUse"><stop stop-color="#848485"/><stop offset=".724" stop-color="#848485" stop-opacity="0"/></linearGradient><linearGradient id="paint13_linear_28327_3592" x1="11.266" x2="11.266" y1="25.911" y2="16.786" gradientUnits="userSpaceOnUse"><stop stop-color="#525257"/><stop offset="1" stop-color="#525257" stop-opacity="0"/></linearGradient><linearGradient id="paint14_linear_28327_3592" x1="19.146" x2="19.146" y1="23.349" y2="25.911" gradientUnits="userSpaceOnUse"><stop stop-color="#62487A" stop-opacity="0"/><stop offset="1" stop-color="#62487A"/></linearGradient><linearGradient id="paint16_linear_28327_3592" x1="20.941" x2="20.941" y1="23.841" y2="18.926" gradientUnits="userSpaceOnUse"><stop stop-color="#8D8E91"/><stop offset="1" stop-color="#8D8E91" stop-opacity="0"/></linearGradient><linearGradient id="paint17_linear_28327_3592" x1="15.891" x2="25.078" y1="21.095" y2="21.095" gradientUnits="userSpaceOnUse"><stop stop-color="#C06E84"/><stop offset="1" stop-color="#E9877A" stop-opacity="0"/></linearGradient><linearGradient id="paint18_linear_28327_3592" x1="16.422" x2="17.359" y1="22.339" y2="22.339" gradientUnits="userSpaceOnUse"><stop stop-color="#E08D95"/><stop offset="1" stop-color="#E08D95" stop-opacity="0"/></linearGradient><linearGradient id="paint19_linear_28327_3592" x1="19.641" x2="19.641" y1="21.521" y2="23.349" gradientUnits="userSpaceOnUse"><stop stop-color="#A5517F" stop-opacity="0"/><stop offset=".752" stop-color="#A5517F"/></linearGradient><linearGradient id="paint21_linear_28327_3592" x1="10.797" x2="10.797" y1="9.005" y2="6.661" gradientUnits="userSpaceOnUse"><stop stop-color="#616264"/><stop offset="1" stop-color="#767779"/></linearGradient><linearGradient id="paint22_linear_28327_3592" x1="10.484" x2="10.891" y1="8.458" y2="8.458" gradientUnits="userSpaceOnUse"><stop stop-color="#919193"/><stop offset="1" stop-color="#919193" stop-opacity="0"/></linearGradient><linearGradient id="paint24_linear_28327_3592" x1="6.952" x2="6.952" y1="9.005" y2="6.661" gradientUnits="userSpaceOnUse"><stop stop-color="#616264"/><stop offset="1" stop-color="#767779"/></linearGradient><linearGradient id="paint27_linear_28327_3592" x1="9.496" x2="9.496" y1="16.099" y2="21.419" gradientUnits="userSpaceOnUse"><stop stop-color="#68696C"/><stop offset="1" stop-color="#534E5D"/></linearGradient><linearGradient id="paint28_linear_28327_3592" x1="9.496" x2="9.496" y1="19.255" y2="21.724" gradientUnits="userSpaceOnUse"><stop stop-color="#62487A" stop-opacity="0"/><stop offset="1" stop-color="#62487A"/></linearGradient><linearGradient id="paint29_linear_28327_3592" x1="9.496" x2="9.496" y1="20.724" y2="21.786" gradientUnits="userSpaceOnUse"><stop offset=".382" stop-color="#8261A0" stop-opacity="0"/><stop offset="1" stop-color="#8261A0"/></linearGradient><linearGradient id="paint33_linear_28327_3592" x1="12.047" x2="12.047" y1="10.599" y2="17.38" gradientUnits="userSpaceOnUse"><stop stop-color="#8A8B8F"/><stop offset="0" stop-color="#8A8B8F"/><stop offset="1" stop-color="#8A8B8F" stop-opacity="0"/></linearGradient><linearGradient id="paint35_linear_28327_3592" x1="9.828" x2="9.844" y1="20.161" y2="18.192" gradientUnits="userSpaceOnUse"><stop stop-color="#DC8490"/><stop offset="1" stop-color="#DC8490" stop-opacity="0"/></linearGradient><linearGradient id="paint38_linear_28327_3592" x1="7.078" x2="6.703" y1="16.646" y2="14.505" gradientUnits="userSpaceOnUse"><stop stop-color="#864D54" stop-opacity="0"/><stop offset="1" stop-color="#864D54"/></linearGradient><linearGradient id="paint41_linear_28327_3592" x1="8.511" x2="7.932" y1="12.845" y2="12.845" gradientUnits="userSpaceOnUse"><stop offset=".225" stop-color="#594C4F"/><stop offset="1" stop-color="#392833"/></linearGradient><linearGradient id="paint42_linear_28327_3592" x1="8.667" x2="8.667" y1="14.021" y2="13.302" gradientUnits="userSpaceOnUse"><stop stop-color="#552D52"/><stop offset="1" stop-color="#552D52" stop-opacity="0"/></linearGradient><linearGradient id="paint44_linear_28327_3592" x1="11.48" x2="10.901" y1="12.845" y2="12.845" gradientUnits="userSpaceOnUse"><stop offset=".225" stop-color="#594C4F"/><stop offset="1" stop-color="#392833"/></linearGradient><linearGradient id="paint45_linear_28327_3592" x1="11.636" x2="11.636" y1="14.021" y2="13.302" gradientUnits="userSpaceOnUse"><stop stop-color="#552D52"/><stop offset="1" stop-color="#552D52" stop-opacity="0"/></linearGradient><linearGradient id="paint48_linear_28327_3592" x1="28.609" x2="28.609" y1="23.849" y2="18.474" gradientUnits="userSpaceOnUse"><stop stop-color="#8D8E91"/><stop offset="1" stop-color="#8D8E91" stop-opacity="0"/></linearGradient><linearGradient id="paint49_linear_28327_3592" x1="26.234" x2="26.234" y1="15.599" y2="25.349" gradientUnits="userSpaceOnUse"><stop stop-color="#8D8E91"/><stop offset="1" stop-color="#8D8E91" stop-opacity="0"/></linearGradient><linearGradient id="paint50_linear_28327_3592" x1="11.484" x2="12.609" y1="24.302" y2="23.38" gradientUnits="userSpaceOnUse"><stop stop-color="#8D8E91"/><stop offset="1" stop-color="#8D8E91" stop-opacity="0"/></linearGradient><linearGradient id="paint51_linear_28327_3592" x1="29.484" x2="29.484" y1="21.771" y2="19.755" gradientUnits="userSpaceOnUse"><stop stop-color="#8A8B8F"/><stop offset="1" stop-color="#8A8B8F" stop-opacity="0"/></linearGradient><radialGradient id="paint6_radial_28327_3592" cx="0" cy="0" r="1" gradientTransform="matrix(-5.06252 4.56248 -7.76924 -8.62075 30.89 7.849)" gradientUnits="userSpaceOnUse"><stop stop-color="#838487"/><stop offset="1" stop-color="#838487" stop-opacity="0"/></radialGradient><radialGradient id="paint7_radial_28327_3592" cx="0" cy="0" r="1" gradientTransform="matrix(0 -2.46875 .67187 0 28.14 22.224)" gradientUnits="userSpaceOnUse"><stop stop-color="#4D425B"/><stop offset="1" stop-color="#4D425B" stop-opacity="0"/></radialGradient><radialGradient id="paint8_radial_28327_3592" cx="0" cy="0" r="1" gradientTransform="matrix(-.5 -3.3125 1.17735 -.17771 28.734 22.911)" gradientUnits="userSpaceOnUse"><stop stop-color="#4D425B"/><stop offset="1" stop-color="#4D425B" stop-opacity="0"/></radialGradient><radialGradient id="paint9_radial_28327_3592" cx="0" cy="0" r="1" gradientTransform="matrix(2.1875 -1.78125 2.20142 2.7035 13.703 13.693)" gradientUnits="userSpaceOnUse"><stop stop-color="#5D5D60"/><stop offset="1" stop-color="#5D5D60" stop-opacity="0"/></radialGradient><radialGradient id="paint10_radial_28327_3592" cx="0" cy="0" r="1" gradientTransform="matrix(.76562 -1.75 1.27049 .55584 11.547 9.833)" gradientUnits="userSpaceOnUse"><stop stop-color="#5D5D60"/><stop offset="1" stop-color="#5D5D60" stop-opacity="0"/></radialGradient><radialGradient id="paint11_radial_28327_3592" cx="0" cy="0" r="1" gradientTransform="rotate(143.746 2.916 12.652) scale(3.4877 1.6444)" gradientUnits="userSpaceOnUse"><stop stop-color="#47474E"/><stop offset="1" stop-color="#47474E" stop-opacity="0"/></radialGradient><radialGradient id="paint12_radial_28327_3592" cx="0" cy="0" r="1" gradientTransform="matrix(2.625 -.71875 1.15739 4.227 11.14 22.599)" gradientUnits="userSpaceOnUse"><stop stop-color="#47474E"/><stop offset="1" stop-color="#47474E" stop-opacity="0"/></radialGradient><radialGradient id="paint15_radial_28327_3592" cx="0" cy="0" r="1" gradientTransform="matrix(-1.46878 -3.18748 2.15464 -.99285 21.578 22.192)" gradientUnits="userSpaceOnUse"><stop stop-color="#62487A"/><stop offset="1" stop-color="#62487A" stop-opacity="0"/></radialGradient><radialGradient id="paint20_radial_28327_3592" cx="0" cy="0" r="1" gradientTransform="matrix(-4 -1.21873 .79937 -2.62363 23.203 22.755)" gradientUnits="userSpaceOnUse"><stop stop-color="#62487A"/><stop offset="1" stop-color="#62487A" stop-opacity="0"/></radialGradient><radialGradient id="paint23_radial_28327_3592" cx="0" cy="0" r="1" gradientTransform="matrix(0 2.10938 -1.04688 0 11.328 8.114)" gradientUnits="userSpaceOnUse"><stop stop-color="#E7958A"/><stop offset="1" stop-color="#BD5750"/></radialGradient><radialGradient id="paint25_radial_28327_3592" cx="0" cy="0" r="1" gradientTransform="rotate(165.174 3.877 4.364) scale(.82432 1.69085)" gradientUnits="userSpaceOnUse"><stop stop-color="#919193"/><stop offset="1" stop-color="#919193" stop-opacity="0"/></radialGradient><radialGradient id="paint26_radial_28327_3592" cx="0" cy="0" r="1" gradientTransform="matrix(-.7403 0 0 -2.05319 8 8.74)" gradientUnits="userSpaceOnUse"><stop stop-color="#E7958A"/><stop offset="1" stop-color="#BD5750"/></radialGradient><radialGradient id="paint30_radial_28327_3592" cx="0" cy="0" r="1" gradientTransform="matrix(-1.71875 1.59375 -1.65027 -1.7797 14.922 15.724)" gradientUnits="userSpaceOnUse"><stop stop-color="#8A8B8F"/><stop offset=".863" stop-color="#8A8B8F" stop-opacity="0"/></radialGradient><radialGradient id="paint31_radial_28327_3592" cx="0" cy="0" r="1" gradientTransform="matrix(1.96877 2.28124 -1.3014 1.12314 4.39 11.91)" gradientUnits="userSpaceOnUse"><stop stop-color="#8A8B8F"/><stop offset=".863" stop-color="#8A8B8F" stop-opacity="0"/></radialGradient><radialGradient id="paint32_radial_28327_3592" cx="0" cy="0" r="1" gradientTransform="matrix(3.375 3.59375 -1.84893 1.73639 4.516 10.443)" gradientUnits="userSpaceOnUse"><stop stop-color="#4D4D55"/><stop offset="1" stop-color="#4D4D55" stop-opacity="0"/></radialGradient><radialGradient id="paint34_radial_28327_3592" cx="0" cy="0" r="1" gradientTransform="translate(9.496 13.536) scale(7.645)" gradientUnits="userSpaceOnUse"><stop offset=".027" stop-color="#E9877A" stop-opacity="0"/><stop offset="1" stop-color="#E9877A"/></radialGradient><radialGradient id="paint36_radial_28327_3592" cx="0" cy="0" r="1" gradientTransform="matrix(-2.9375 0 0 -2.12905 16.64 16.589)" gradientUnits="userSpaceOnUse"><stop stop-color="#F2AAA3"/><stop offset="1" stop-color="#F2AAA3" stop-opacity="0"/></radialGradient><radialGradient id="paint37_radial_28327_3592" cx="0" cy="0" r="1" gradientTransform="matrix(.92187 1 -.64255 .59235 6.11 16.036)" gradientUnits="userSpaceOnUse"><stop stop-color="#815A57"/><stop offset=".965" stop-color="#402D2B"/></radialGradient><radialGradient id="paint39_radial_28327_3592" cx="0" cy="0" r="1" gradientTransform="rotate(-32.216 35.06 -10.948) scale(2.84413 1.9628)" gradientUnits="userSpaceOnUse"><stop stop-color="#815A57"/><stop offset=".42" stop-color="#402D2B"/></radialGradient><radialGradient id="paint40_radial_28327_3592" cx="0" cy="0" r="1" gradientTransform="matrix(.16938 1.73438 -1.58998 .15528 12.281 15.16)" gradientUnits="userSpaceOnUse"><stop stop-color="#9B5961"/><stop offset=".877" stop-color="#864D54" stop-opacity="0"/></radialGradient><radialGradient id="paint43_radial_28327_3592" cx="0" cy="0" r="1" gradientTransform="matrix(-.38573 -1.0945 1.06073 -.37383 8.206 12.965)" gradientUnits="userSpaceOnUse"><stop offset=".814" stop-color="#594C4F" stop-opacity="0"/><stop offset="1" stop-color="#594C4F"/></radialGradient><radialGradient id="paint46_radial_28327_3592" cx="0" cy="0" r="1" gradientTransform="matrix(-.38573 -1.0945 1.06073 -.37383 11.175 12.965)" gradientUnits="userSpaceOnUse"><stop offset=".814" stop-color="#594C4F" stop-opacity="0"/><stop offset="1" stop-color="#594C4F"/></radialGradient><radialGradient id="paint47_radial_28327_3592" cx="0" cy="0" r="1" gradientTransform="matrix(.40684 4.19303 -5.1686 .5015 24.77 11.467)" gradientUnits="userSpaceOnUse"><stop stop-color="#8D8E91"/><stop offset=".796" stop-color="#8D8E91" stop-opacity="0"/></radialGradient><filter id="filter0_f_28327_3592" width="2.788" height="6.272" x="14.012" y="18.783" color-interpolation-filters="sRGB" filterUnits="userSpaceOnUse"><feFlood flood-opacity="0" result="BackgroundImageFix"/><feBlend in="SourceGraphic" in2="BackgroundImageFix" result="shape"/><feGaussianBlur result="effect1_foregroundBlur_28327_3592" stdDeviation=".4"/></filter><filter id="filter1_i_28327_3592" width="15.91" height="12.28" x="1.641" y="9.339" color-interpolation-filters="sRGB" filterUnits="userSpaceOnUse"><feFlood flood-opacity="0" result="BackgroundImageFix"/><feBlend in="SourceGraphic" in2="BackgroundImageFix" result="shape"/><feColorMatrix in="SourceAlpha" result="hardAlpha" values="0 0 0 0 0 0 0 0 0 0 0 0 0 0 0 0 0 0 127 0"/><feOffset dx=".2" dy=".2"/><feGaussianBlur stdDeviation=".5"/><feComposite in2="hardAlpha" k2="-1" k3="1" operator="arithmetic"/><feColorMatrix values="0 0 0 0 0.636111 0 0 0 0 0.642222 0 0 0 0 0.666667 0 0 0 1 0"/><feBlend in2="shape" result="effect1_innerShadow_28327_3592"/></filter><filter id="filter2_f_28327_3592" width="4.188" height="6.044" x="9.953" y="9.274" color-interpolation-filters="sRGB" filterUnits="userSpaceOnUse"><feFlood flood-opacity="0" result="BackgroundImageFix"/><feBlend in="SourceGraphic" in2="BackgroundImageFix" result="shape"/><feGaussianBlur result="effect1_foregroundBlur_28327_3592" stdDeviation=".5"/></filter><filter id="filter3_f_28327_3592" width="1.899" height="2.805" x="6.851" y="11.443" color-interpolation-filters="sRGB" filterUnits="userSpaceOnUse"><feFlood flood-opacity="0" result="BackgroundImageFix"/><feBlend in="SourceGraphic" in2="BackgroundImageFix" result="shape"/><feGaussianBlur result="effect1_foregroundBlur_28327_3592" stdDeviation=".25"/></filter><filter id="filter4_f_28327_3592" width="1.899" height="2.805" x="9.882" y="11.443" color-interpolation-filters="sRGB" filterUnits="userSpaceOnUse"><feFlood flood-opacity="0" result="BackgroundImageFix"/><feBlend in="SourceGraphic" in2="BackgroundImageFix" result="shape"/><feGaussianBlur result="effect1_foregroundBlur_28327_3592" stdDeviation=".25"/></filter><filter id="filter5_f_28327_3592" width="9.98" height="10.008" x="19.663" y="7.838" color-interpolation-filters="sRGB" filterUnits="userSpaceOnUse"><feFlood flood-opacity="0" result="BackgroundImageFix"/><feBlend in="SourceGraphic" in2="BackgroundImageFix" result="shape"/><feGaussianBlur result="effect1_foregroundBlur_28327_3592" stdDeviation=".5"/></filter><filter id="filter6_f_28327_3592" width="2.069" height="6.709" x="25.887" y="18.392" color-interpolation-filters="sRGB" filterUnits="userSpaceOnUse"><feFlood flood-opacity="0" result="BackgroundImageFix"/><feBlend in="SourceGraphic" in2="BackgroundImageFix" result="shape"/><feGaussianBlur result="effect1_foregroundBlur_28327_3592" stdDeviation=".4"/></filter><filter id="filter7_f_28327_3592" width="9.25" height="13.798" x="21.609" y="12.099" color-interpolation-filters="sRGB" filterUnits="userSpaceOnUse"><feFlood flood-opacity="0" result="BackgroundImageFix"/><feBlend in="SourceGraphic" in2="BackgroundImageFix" result="shape"/><feGaussianBlur result="effect1_foregroundBlur_28327_3592" stdDeviation="1"/></filter><filter id="filter8_f_28327_3592" width="2.478" height="2.623" x="10.759" y="22.428" color-interpolation-filters="sRGB" filterUnits="userSpaceOnUse"><feFlood flood-opacity="0" result="BackgroundImageFix"/><feBlend in="SourceGraphic" in2="BackgroundImageFix" result="shape"/><feGaussianBlur result="effect1_foregroundBlur_28327_3592" stdDeviation=".35"/></filter><filter id="filter9_f_28327_3592" width=".65" height="2.431" x="29.003" y="19.789" color-interpolation-filters="sRGB" filterUnits="userSpaceOnUse"><feFlood flood-opacity="0" result="BackgroundImageFix"/><feBlend in="SourceGraphic" in2="BackgroundImageFix" result="shape"/><feGaussianBlur result="effect1_foregroundBlur_28327_3592" stdDeviation=".125"/></filter></defs></svg>