<svg xmlns="http://www.w3.org/2000/svg" width="32" height="32" fill="none" viewBox="0 0 32 32"><g filter="url(#filter0_i_4002_3094)"><path fill="url(#paint0_linear_4002_3094)" d="M6.954 21.694a3.06 3.06 0 1 0 0-6.12 3.06 3.06 0 0 0 0 6.12Z"/></g><g filter="url(#filter1_i_4002_3094)"><path fill="url(#paint1_radial_4002_3094)" d="M25.046 21.694a3.06 3.06 0 1 0 0-6.12 3.06 3.06 0 0 0 0 6.12Z"/></g><g filter="url(#filter2_f_4002_3094)"><path fill="#FFCA38" d="M25.046 20.677a2.043 2.043 0 1 0 0-4.085 2.043 2.043 0 0 0 0 4.085Z"/><path fill="url(#paint2_radial_4002_3094)" d="M25.046 20.677a2.043 2.043 0 1 0 0-4.085 2.043 2.043 0 0 0 0 4.085Z"/></g><g filter="url(#filter3_f_4002_3094)"><path fill="#E28527" d="M6.991 20.677a2.043 2.043 0 1 0 0-4.085 2.043 2.043 0 0 0 0 4.085Z"/><path fill="url(#paint3_radial_4002_3094)" d="M6.991 20.677a2.043 2.043 0 1 0 0-4.085 2.043 2.043 0 0 0 0 4.085Z"/></g><g filter="url(#filter4_i_4002_3094)"><path fill="url(#paint4_radial_4002_3094)" d="m6.304 14.814.009.007-.001-.166c-.007-.59-.02-1.727.477-2.47.801-1.197 1.711-1.286 2.601-1.286h12.96c2.465 0 3.08 1.796 3.08 2.695-.2 2.483-.088 4.994-.1 7.485-.234 5.33-4.396 8.909-9.477 8.909-5.08 0-9.242-3.58-9.477-8.909l-.055-5.765a43.76 43.76 0 0 1-.017-.5Z"/><path fill="url(#paint5_radial_4002_3094)" d="m6.304 14.814.009.007-.001-.166c-.007-.59-.02-1.727.477-2.47.801-1.197 1.711-1.286 2.601-1.286h12.96c2.465 0 3.08 1.796 3.08 2.695-.2 2.483-.088 4.994-.1 7.485-.234 5.33-4.396 8.909-9.477 8.909-5.08 0-9.242-3.58-9.477-8.909l-.055-5.765a43.76 43.76 0 0 1-.017-.5Z"/><path fill="url(#paint6_radial_4002_3094)" d="m6.304 14.814.009.007-.001-.166c-.007-.59-.02-1.727.477-2.47.801-1.197 1.711-1.286 2.601-1.286h12.96c2.465 0 3.08 1.796 3.08 2.695-.2 2.483-.088 4.994-.1 7.485-.234 5.33-4.396 8.909-9.477 8.909-5.08 0-9.242-3.58-9.477-8.909l-.055-5.765a43.76 43.76 0 0 1-.017-.5Z"/><path fill="url(#paint7_radial_4002_3094)" d="m6.304 14.814.009.007-.001-.166c-.007-.59-.02-1.727.477-2.47.801-1.197 1.711-1.286 2.601-1.286h12.96c2.465 0 3.08 1.796 3.08 2.695-.2 2.483-.088 4.994-.1 7.485-.234 5.33-4.396 8.909-9.477 8.909-5.08 0-9.242-3.58-9.477-8.909l-.055-5.765a43.76 43.76 0 0 1-.017-.5Z"/><path fill="url(#paint8_radial_4002_3094)" d="m6.304 14.814.009.007-.001-.166c-.007-.59-.02-1.727.477-2.47.801-1.197 1.711-1.286 2.601-1.286h12.96c2.465 0 3.08 1.796 3.08 2.695-.2 2.483-.088 4.994-.1 7.485-.234 5.33-4.396 8.909-9.477 8.909-5.08 0-9.242-3.58-9.477-8.909l-.055-5.765a43.76 43.76 0 0 1-.017-.5Z"/><path fill="url(#paint9_radial_4002_3094)" d="m6.304 14.814.009.007-.001-.166c-.007-.59-.02-1.727.477-2.47.801-1.197 1.711-1.286 2.601-1.286h12.96c2.465 0 3.08 1.796 3.08 2.695-.2 2.483-.088 4.994-.1 7.485-.234 5.33-4.396 8.909-9.477 8.909-5.08 0-9.242-3.58-9.477-8.909l-.055-5.765a43.76 43.76 0 0 1-.017-.5Z"/></g><path fill="url(#paint10_linear_4002_3094)" d="m6.304 14.814.009.007-.001-.166c-.007-.59-.02-1.727.477-2.47.801-1.197 1.711-1.286 2.601-1.286h12.96c2.465 0 3.08 1.796 3.08 2.695-.2 2.483-.088 4.994-.1 7.485-.234 5.33-4.396 8.909-9.477 8.909-5.08 0-9.242-3.58-9.477-8.909l-.055-5.765a43.76 43.76 0 0 1-.017-.5Z"/><path fill="url(#paint11_radial_4002_3094)" d="m6.304 14.814.009.007-.001-.166c-.007-.59-.02-1.727.477-2.47.801-1.197 1.711-1.286 2.601-1.286h12.96c2.465 0 3.08 1.796 3.08 2.695-.2 2.483-.088 4.994-.1 7.485-.234 5.33-4.396 8.909-9.477 8.909-5.08 0-9.242-3.58-9.477-8.909l-.055-5.765a43.76 43.76 0 0 1-.017-.5Z"/><path fill="url(#paint12_radial_4002_3094)" d="m6.304 14.814.009.007-.001-.166c-.007-.59-.02-1.727.477-2.47.801-1.197 1.711-1.286 2.601-1.286h12.96c2.465 0 3.08 1.796 3.08 2.695-.2 2.483-.088 4.994-.1 7.485-.234 5.33-4.396 8.909-9.477 8.909-5.08 0-9.242-3.58-9.477-8.909l-.055-5.765a43.76 43.76 0 0 1-.017-.5Z"/><path fill="url(#paint13_radial_4002_3094)" d="m6.304 14.814.009.007-.001-.166c-.007-.59-.02-1.727.477-2.47.801-1.197 1.711-1.286 2.601-1.286h12.96c2.465 0 3.08 1.796 3.08 2.695-.2 2.483-.088 4.994-.1 7.485-.234 5.33-4.396 8.909-9.477 8.909-5.08 0-9.242-3.58-9.477-8.909l-.055-5.765a43.76 43.76 0 0 1-.017-.5Z"/><g filter="url(#filter5_f_4002_3094)"><path fill="#EB8B29" d="m15.119 18.211-1.3 3.233c-.206.665.289 1.33.99 1.33h1.496c.7 0 1.196-.675.99-1.33l-1.011-3.233c-.217-.716-.938-.716-1.165 0Z"/></g><g filter="url(#filter6_f_4002_3094)"><path fill="url(#paint14_linear_4002_3094)" d="m15.138 17.947-1.01 3.233c-.207.665.288 1.33.99 1.33h1.495c.701 0 1.197-.675.99-1.33l-1.01-3.233c-.217-.716-1.228-.716-1.455 0Z"/><path fill="url(#paint15_radial_4002_3094)" d="m15.138 17.947-1.01 3.233c-.207.665.288 1.33.99 1.33h1.495c.701 0 1.197-.675.99-1.33l-1.01-3.233c-.217-.716-1.228-.716-1.455 0Z"/><path fill="url(#paint16_linear_4002_3094)" d="m15.138 17.947-1.01 3.233c-.207.665.288 1.33.99 1.33h1.495c.701 0 1.197-.675.99-1.33l-1.01-3.233c-.217-.716-1.228-.716-1.455 0Z"/><path fill="url(#paint17_linear_4002_3094)" d="m15.138 17.947-1.01 3.233c-.207.665.288 1.33.99 1.33h1.495c.701 0 1.197-.675.99-1.33l-1.01-3.233c-.217-.716-1.228-.716-1.455 0Z"/></g><g filter="url(#filter7_f_4002_3094)"><path fill="url(#paint18_linear_4002_3094)" d="m15.138 17.602-1.01 3.233c-.207.665.288 1.33.99 1.33h1.495c.701 0 1.197-.675.99-1.33l-1.01-3.233c-.217-.716-1.228-.716-1.455 0Z"/></g><g filter="url(#filter8_f_4002_3094)"><path stroke="url(#paint19_linear_4002_3094)" stroke-width=".2" d="M15.866 24.171c-.99 0-1.922-.238-2.704-.655-.267-.14-.555.169-.386.417a3.674 3.674 0 0 0 3.09 1.689 3.674 3.674 0 0 0 3.09-1.689c.168-.258-.12-.556-.387-.417a5.73 5.73 0 0 1-2.703.655Z"/></g><path fill="#8A004F" d="M15.866 24.171c-.99 0-1.922-.238-2.704-.655-.267-.14-.555.169-.386.417a3.674 3.674 0 0 0 3.09 1.689 3.674 3.674 0 0 0 3.09-1.689c.168-.258-.12-.556-.387-.417a5.73 5.73 0 0 1-2.703.655Z"/><g filter="url(#filter9_i_4002_3094)"><path fill="#2E282C" d="M18.037 17.552c.505-.887 1.273-1.589 2.924-1.589.723 0 1.42.2 2.04.702.512.413.443.941.047 1.14l-1.057.603c-1.24-.4-2.61-.455-3.954-.856Z"/></g><g filter="url(#filter10_i_4002_3094)"><path fill="#2C2124" d="M13.694 17.552c-.505-.887-1.272-1.589-2.924-1.589-.723 0-1.42.2-2.04.702-.511.413-.443.941-.047 1.14l1.057.603c1.24-.4 2.61-.455 3.954-.856Z"/></g><g filter="url(#filter11_i_4002_3094)"><path fill="#BD4F26" d="m9.404 15.253-.008.005h-.001a.51.51 0 0 1-.524-.875h.001l.002-.002.006-.003.018-.01.061-.034a6.236 6.236 0 0 1 1-.42c.647-.206 1.551-.38 2.527-.207a.51.51 0 1 1-.177 1.004c-.758-.134-1.487-.001-2.039.175a5.208 5.208 0 0 0-.866.367Z"/></g><g filter="url(#filter12_i_4002_3094)"><path fill="#BD4F26" fill-rule="evenodd" d="m22.962 14.383-.262.438.262-.438a.51.51 0 0 1-.525.875l-.008-.005a3.687 3.687 0 0 0-.215-.11 5.204 5.204 0 0 0-.651-.257c-.552-.176-1.28-.309-2.039-.175a.51.51 0 0 1-.177-1.005c.976-.172 1.88.002 2.526.208a6.236 6.236 0 0 1 1 .42l.062.034.018.01.006.003.002.002Z" clip-rule="evenodd"/></g><path fill="#fff" d="M20.413 16.075c1.241 0 2.29.856 2.576 2.013a.521.521 0 0 1-.509.648h-4.243a.438.438 0 0 1-.432-.517 2.658 2.658 0 0 1 2.608-2.144Z"/><path fill="url(#paint20_radial_4002_3094)" d="M20.02 16.592a1.697 1.697 0 0 1 1.635 2.145h-3.28a1.743 1.743 0 0 1-.06-.448c0-.934.763-1.697 1.704-1.697Z"/><path fill="#000" d="M19.047 18.289c0-.54.432-.972.972-.972s.972.432.972.972a.96.96 0 0 1-.108.447h-1.72a.879.879 0 0 1-.116-.447Z"/><g filter="url(#filter13_f_4002_3094)"><path fill="#C7A7A3" d="M19.893 16.951c.12.162-.132.359-.419.573-.287.215-.5.366-.621.205-.12-.162.014-.467.301-.682.287-.214.618-.257.739-.096Z"/><path fill="url(#paint21_radial_4002_3094)" d="M19.893 16.951c.12.162-.132.359-.419.573-.287.215-.5.366-.621.205-.12-.162.014-.467.301-.682.287-.214.618-.257.739-.096Z"/></g><g filter="url(#filter14_f_4002_3094)"><path fill="url(#paint22_linear_4002_3094)" d="M21.53 18.065a1.598 1.598 0 0 0-.44-.88l-.494.543.223.433.71-.096Z"/></g><path fill="#fff" d="M11.319 16.075a2.656 2.656 0 0 0-2.577 2.013.521.521 0 0 0 .509.648h4.243c.27 0 .486-.247.432-.517a2.664 2.664 0 0 0-2.607-2.144Z"/><path fill="url(#paint23_radial_4002_3094)" d="M11.712 16.592a1.697 1.697 0 0 0-1.636 2.145h3.279c.038-.147.062-.294.062-.448a1.709 1.709 0 0 0-1.705-1.697Z"/><path fill="#000" d="M12.684 18.289a.968.968 0 0 0-.972-.972.968.968 0 0 0-.972.972.95.95 0 0 0 .108.447h1.72a.963.963 0 0 0 .116-.447Z"/><g filter="url(#filter15_f_4002_3094)"><path fill="url(#paint24_linear_4002_3094)" d="M13.261 18.089c0-.548-.445-.914-.566-1.024l-.548.53.338.686.776-.192Z"/></g><g filter="url(#filter16_f_4002_3094)" transform="rotate(-27.914 11.2 17.317)"><ellipse cx="11.199" cy="17.317" fill="#C7A7A3" fill-opacity=".9" rx=".74" ry=".375"/><ellipse cx="11.199" cy="17.317" fill="url(#paint25_radial_4002_3094)" rx=".74" ry=".375"/></g><g filter="url(#filter17_f_4002_3094)"><path stroke="#CB6B59" stroke-linecap="round" stroke-width=".2" d="M19.554 14.122c.613-.15 2.139-.075 3.158.655"/></g><g filter="url(#filter18_f_4002_3094)"><path stroke="#CB6B59" stroke-linecap="round" stroke-width=".2" d="M12.345 14.122c-.614-.15-2.139-.075-3.159.655"/></g><path fill="url(#paint26_radial_4002_3094)" d="M4.552 10.64c.193 2.807 1.397 3.89 1.76 4.18 0-.514-.073-1.815.477-2.635C7.59 10.989 8.5 10.9 9.39 10.9h12.96c2.465 0 3.08 1.796 3.08 2.694l-.092 1.146c.217 0 .866-.237 1.115-.728.65-1.285 1.068-3.964 1.161-5.528.093-1.564.031-2.764-1.192-4.451-.979-1.35-2.795-2.02-4.42-2.02H10.45c-3.712 0-4.678 1.406-5.42 2.799-.595 1.115-.675 2.201-.675 2.843 0 .76.013 2.129.196 2.985Z"/><path fill="url(#paint27_radial_4002_3094)" d="M4.552 10.64c.193 2.807 1.397 3.89 1.76 4.18 0-.514-.073-1.815.477-2.635C7.59 10.989 8.5 10.9 9.39 10.9h12.96c2.465 0 3.08 1.796 3.08 2.694l-.092 1.146c.217 0 .866-.237 1.115-.728.65-1.285 1.068-3.964 1.161-5.528.093-1.564.031-2.764-1.192-4.451-.979-1.35-2.795-2.02-4.42-2.02H10.45c-3.712 0-4.678 1.406-5.42 2.799-.595 1.115-.675 2.201-.675 2.843 0 .76.013 2.129.196 2.985Z"/><path fill="url(#paint28_radial_4002_3094)" d="M4.552 10.64c.193 2.807 1.397 3.89 1.76 4.18 0-.514-.073-1.815.477-2.635C7.59 10.989 8.5 10.9 9.39 10.9h12.96c2.465 0 3.08 1.796 3.08 2.694l-.092 1.146c.217 0 .866-.237 1.115-.728.65-1.285 1.068-3.964 1.161-5.528.093-1.564.031-2.764-1.192-4.451-.979-1.35-2.795-2.02-4.42-2.02H10.45c-3.712 0-4.678 1.406-5.42 2.799-.595 1.115-.675 2.201-.675 2.843 0 .76.013 2.129.196 2.985Z"/><g filter="url(#filter19_i_4002_3094)"><path fill="url(#paint29_radial_4002_3094)" d="m20.417 2.012.055 2.427c1.224-.03 3.562.083 5.578 1.227.85.482 1.29.993 1.574 1.414-.073-.97-.366-1.894-1.202-3.047-.979-1.35-2.795-2.02-4.42-2.02h-1.585Z"/><path fill="url(#paint30_radial_4002_3094)" d="m20.417 2.012.055 2.427c1.224-.03 3.562.083 5.578 1.227.85.482 1.29.993 1.574 1.414-.073-.97-.366-1.894-1.202-3.047-.979-1.35-2.795-2.02-4.42-2.02h-1.585Z"/></g><g filter="url(#filter20_ii_4002_3094)"><path fill="url(#paint31_linear_4002_3094)" d="M26.99 12.48c.005-1.482-1.085-2.607-1.93-3.105-1.34-.79-3.268-1.004-4.104-.999H19.47l-4.955.805.256 1.719h7.579c2.465 0 3.102 1.792 3.043 2.694l-.055 1.146c.217 0 .866-.237 1.115-.728.203-.4.383-.937.537-1.532Z"/></g><path fill="url(#paint32_radial_4002_3094)" d="M26.99 12.48c.005-1.482-1.085-2.607-1.93-3.105-1.34-.79-3.268-1.004-4.104-.999H19.47l-4.955.805.256 1.719h7.579c2.465 0 3.102 1.792 3.043 2.694l-.055 1.146c.217 0 .866-.237 1.115-.728.203-.4.383-.937.537-1.532Z"/><path fill="url(#paint33_radial_4002_3094)" d="M26.99 12.48c.005-1.482-1.085-2.607-1.93-3.105-1.34-.79-3.268-1.004-4.104-.999H19.47l-4.955.805.256 1.719h7.579c2.465 0 3.102 1.792 3.043 2.694l-.055 1.146c.217 0 .866-.237 1.115-.728.203-.4.383-.937.537-1.532Z"/><path fill="url(#paint34_radial_4002_3094)" d="M26.99 12.48c.005-1.482-1.085-2.607-1.93-3.105-1.34-.79-3.268-1.004-4.104-.999H19.47l-4.955.805.256 1.719h7.579c2.465 0 3.102 1.792 3.043 2.694l-.055 1.146c.217 0 .866-.237 1.115-.728.203-.4.383-.937.537-1.532Z"/><g filter="url(#filter21_i_4002_3094)"><path fill="url(#paint35_radial_4002_3094)" d="M20.946 2.012c.357 1.962.193 4.541-1.02 6.426-.921 1.433-2.18 2.462-3.472 2.462H9.39c-.89 0-1.8.089-2.601 1.285-.498.743-.484 1.88-.477 2.47v.166c-.363-.29-1.567-1.374-1.76-4.18-.183-.857-.196-2.226-.196-2.986 0-.642.08-1.728.674-2.843.743-1.393 1.71-2.8 5.42-2.8h10.496Z"/></g><path fill="url(#paint36_radial_4002_3094)" d="M20.946 2.012c.357 1.962.193 4.541-1.02 6.426-.921 1.433-2.18 2.462-3.472 2.462H9.39c-.89 0-1.8.089-2.601 1.285-.498.743-.484 1.88-.477 2.47v.166c-.363-.29-1.567-1.374-1.76-4.18-.183-.857-.196-2.226-.196-2.986 0-.642.08-1.728.674-2.843.743-1.393 1.71-2.8 5.42-2.8h10.496Z"/><path fill="url(#paint37_radial_4002_3094)" d="M20.946 2.012c.357 1.962.193 4.541-1.02 6.426-.921 1.433-2.18 2.462-3.472 2.462H9.39c-.89 0-1.8.089-2.601 1.285-.498.743-.484 1.88-.477 2.47v.166c-.363-.29-1.567-1.374-1.76-4.18-.183-.857-.196-2.226-.196-2.986 0-.642.08-1.728.674-2.843.743-1.393 1.71-2.8 5.42-2.8h10.496Z"/><path fill="url(#paint38_radial_4002_3094)" d="M20.946 2.012c.357 1.962.193 4.541-1.02 6.426-.921 1.433-2.18 2.462-3.472 2.462H9.39c-.89 0-1.8.089-2.601 1.285-.498.743-.484 1.88-.477 2.47v.166c-.363-.29-1.567-1.374-1.76-4.18-.183-.857-.196-2.226-.196-2.986 0-.642.08-1.728.674-2.843.743-1.393 1.71-2.8 5.42-2.8h10.496Z"/><path fill="url(#paint39_radial_4002_3094)" d="M20.946 2.012c.357 1.962.193 4.541-1.02 6.426-.921 1.433-2.18 2.462-3.472 2.462H9.39c-.89 0-1.8.089-2.601 1.285-.498.743-.484 1.88-.477 2.47v.166c-.363-.29-1.567-1.374-1.76-4.18-.183-.857-.196-2.226-.196-2.986 0-.642.08-1.728.674-2.843.743-1.393 1.71-2.8 5.42-2.8h10.496Z"/><path fill="url(#paint40_radial_4002_3094)" d="M20.946 2.012c.357 1.962.193 4.541-1.02 6.426-.921 1.433-2.18 2.462-3.472 2.462H9.39c-.89 0-1.8.089-2.601 1.285-.498.743-.484 1.88-.477 2.47v.166c-.363-.29-1.567-1.374-1.76-4.18-.183-.857-.196-2.226-.196-2.986 0-.642.08-1.728.674-2.843.743-1.393 1.71-2.8 5.42-2.8h10.496Z"/><g filter="url(#filter22_i_4002_3094)"><path fill="url(#paint41_radial_4002_3094)" d="M4.542 10.591c.457-.912 1.614-2.206 5.677-2.625.406-.042 1.003-.06 1.672-.08 1.666-.05 3.775-.114 4.482-.594.933-.445 1.973-3.245 1.54-5.28h-5.97L4.954 4.961c-.524 1.061-.598 2.08-.598 2.694 0 .745.013 2.077.186 2.936Z"/><path fill="url(#paint42_radial_4002_3094)" d="M4.542 10.591c.457-.912 1.614-2.206 5.677-2.625.406-.042 1.003-.06 1.672-.08 1.666-.05 3.775-.114 4.482-.594.933-.445 1.973-3.245 1.54-5.28h-5.97L4.954 4.961c-.524 1.061-.598 2.08-.598 2.694 0 .745.013 2.077.186 2.936Z"/><path fill="url(#paint43_linear_4002_3094)" d="M4.542 10.591c.457-.912 1.614-2.206 5.677-2.625.406-.042 1.003-.06 1.672-.08 1.666-.05 3.775-.114 4.482-.594.933-.445 1.973-3.245 1.54-5.28h-5.97L4.954 4.961c-.524 1.061-.598 2.08-.598 2.694 0 .745.013 2.077.186 2.936Z"/><path fill="url(#paint44_radial_4002_3094)" d="M4.542 10.591c.457-.912 1.614-2.206 5.677-2.625.406-.042 1.003-.06 1.672-.08 1.666-.05 3.775-.114 4.482-.594.933-.445 1.973-3.245 1.54-5.28h-5.97L4.954 4.961c-.524 1.061-.598 2.08-.598 2.694 0 .745.013 2.077.186 2.936Z"/><path fill="url(#paint45_radial_4002_3094)" d="M4.542 10.591c.457-.912 1.614-2.206 5.677-2.625.406-.042 1.003-.06 1.672-.08 1.666-.05 3.775-.114 4.482-.594.933-.445 1.973-3.245 1.54-5.28h-5.97L4.954 4.961c-.524 1.061-.598 2.08-.598 2.694 0 .745.013 2.077.186 2.936Z"/></g><g filter="url(#filter23_ii_4002_3094)"><path fill="url(#paint46_radial_4002_3094)" d="M4.357 7.748c.557-.67 1.563-1.612 2.897-1.973 1.879-.51 4.835-.733 6.069-.821.449.026 1.556-.441 1.556-1.61 0-.433-.016-.89-.053-1.332H10.45c-3.712 0-4.678 1.407-5.42 2.8-.595 1.115-.675 2.201-.675 2.843v.093Z"/></g><path fill="url(#paint47_radial_4002_3094)" d="M4.357 7.748c.557-.67 1.563-1.612 2.897-1.973 1.879-.51 4.835-.733 6.069-.821.449.026 1.556-.441 1.556-1.61 0-.433-.016-.89-.053-1.332H10.45c-3.712 0-4.678 1.407-5.42 2.8-.595 1.115-.675 2.201-.675 2.843v.093Z"/><path fill="url(#paint48_radial_4002_3094)" d="M4.357 7.748c.557-.67 1.563-1.612 2.897-1.973 1.879-.51 4.835-.733 6.069-.821.449.026 1.556-.441 1.556-1.61 0-.433-.016-.89-.053-1.332H10.45c-3.712 0-4.678 1.407-5.42 2.8-.595 1.115-.675 2.201-.675 2.843v.093Z"/><defs><radialGradient id="paint1_radial_4002_3094" cx="0" cy="0" r="1" gradientTransform="matrix(4.73356 -2.15162 2.62703 5.77946 23.548 19.47)" gradientUnits="userSpaceOnUse"><stop offset=".572" stop-color="#FFC531"/><stop offset=".905" stop-color="#FFE549"/></radialGradient><radialGradient id="paint2_radial_4002_3094" cx="0" cy="0" r="1" gradientTransform="rotate(-20.298 65.614 -59.168) scale(2.481)" gradientUnits="userSpaceOnUse"><stop offset=".71" stop-color="#FFBA25" stop-opacity="0"/><stop offset="1" stop-color="#FFBA25"/></radialGradient><radialGradient id="paint3_radial_4002_3094" cx="0" cy="0" r="1" gradientTransform="matrix(-2.04269 0 0 -1.95396 6.991 18.634)" gradientUnits="userSpaceOnUse"><stop offset=".415" stop-color="#D67923" stop-opacity="0"/><stop offset="1" stop-color="#D67923"/></radialGradient><radialGradient id="paint4_radial_4002_3094" cx="0" cy="0" r="1" gradientTransform="rotate(155.244 8.719 11.144) scale(13.6199 18.2299)" gradientUnits="userSpaceOnUse"><stop stop-color="#FFE644"/><stop offset="1" stop-color="#EB9235"/></radialGradient><radialGradient id="paint5_radial_4002_3094" cx="0" cy="0" r="1" gradientTransform="rotate(152.124 7.39 11.886) scale(4.53888 3.85091)" gradientUnits="userSpaceOnUse"><stop stop-color="#FFE842"/><stop offset="1" stop-color="#FFE842" stop-opacity="0"/></radialGradient><radialGradient id="paint6_radial_4002_3094" cx="0" cy="0" r="1" gradientTransform="matrix(1.59163 -7.69283 9.76078 2.01948 11.72 30.51)" gradientUnits="userSpaceOnUse"><stop stop-color="#E4883F"/><stop offset="1" stop-color="#E4883F" stop-opacity="0"/></radialGradient><radialGradient id="paint7_radial_4002_3094" cx="0" cy="0" r="1" gradientTransform="matrix(-10.31236 2.85173 -4.90981 -17.75474 17.059 20.762)" gradientUnits="userSpaceOnUse"><stop offset=".877" stop-color="#D4993E" stop-opacity="0"/><stop offset="1" stop-color="#D4993E"/></radialGradient><radialGradient id="paint8_radial_4002_3094" cx="0" cy="0" r="1" gradientTransform="matrix(0 -2.18848 2.68586 0 20.242 16.816)" gradientUnits="userSpaceOnUse"><stop stop-color="#FFBB31"/><stop offset="1" stop-color="#FFBB31" stop-opacity="0"/></radialGradient><radialGradient id="paint9_radial_4002_3094" cx="0" cy="0" r="1" gradientTransform="matrix(0 -2.58638 2.96417 0 12.217 16.982)" gradientUnits="userSpaceOnUse"><stop stop-color="#F09429"/><stop offset="1" stop-color="#F09429" stop-opacity="0"/></radialGradient><radialGradient id="paint11_radial_4002_3094" cx="0" cy="0" r="1" gradientTransform="matrix(0 14.1502 -16.5523 0 15.367 16.692)" gradientUnits="userSpaceOnUse"><stop offset=".549" stop-color="#E69A2B" stop-opacity="0"/><stop offset=".944" stop-color="#AF724B"/></radialGradient><radialGradient id="paint12_radial_4002_3094" cx="0" cy="0" r="1" gradientTransform="matrix(0 -2.16777 3.07101 0 20.457 17.084)" gradientUnits="userSpaceOnUse"><stop stop-color="#FFBB28"/><stop offset="1" stop-color="#FFBB28" stop-opacity="0"/></radialGradient><radialGradient id="paint13_radial_4002_3094" cx="0" cy="0" r="1" gradientTransform="matrix(3.2122 -2.9099 1.4065 1.55262 5.534 12.403)" gradientUnits="userSpaceOnUse"><stop stop-color="#A25917"/><stop offset="1" stop-color="#A25917" stop-opacity="0"/></radialGradient><radialGradient id="paint15_radial_4002_3094" cx="0" cy="0" r="1" gradientTransform="matrix(-1.32639 -4.6588 2.66582 -.75898 17.357 21.027)" gradientUnits="userSpaceOnUse"><stop offset=".017" stop-color="#FFE848"/><stop offset="1" stop-color="#FFE848" stop-opacity="0"/></radialGradient><radialGradient id="paint20_radial_4002_3094" cx="0" cy="0" r="1" gradientTransform="matrix(0 1.54292 -2.45419 0 20.015 17.499)" gradientUnits="userSpaceOnUse"><stop offset=".802" stop-color="#925C51"/><stop offset="1" stop-color="#694B43"/><stop offset="1" stop-color="#804D49"/><stop offset="1" stop-color="#85534D"/></radialGradient><radialGradient id="paint21_radial_4002_3094" cx="0" cy="0" r="1" gradientTransform="matrix(-.4407 -.56789 .78185 -.60673 19.58 17.659)" gradientUnits="userSpaceOnUse"><stop offset=".766" stop-color="#FFE6E2" stop-opacity="0"/><stop offset=".966" stop-color="#FFE6E2"/></radialGradient><radialGradient id="paint23_radial_4002_3094" cx="0" cy="0" r="1" gradientTransform="matrix(0 1.54293 -2.4542 0 11.716 17.499)" gradientUnits="userSpaceOnUse"><stop offset=".802" stop-color="#925C51"/><stop offset="1" stop-color="#694B43"/><stop offset="1" stop-color="#804D49"/><stop offset="1" stop-color="#85534D"/></radialGradient><radialGradient id="paint25_radial_4002_3094" cx="0" cy="0" r="1" gradientTransform="matrix(-.0147 -.93882 1.1285 -.01767 11.17 17.916)" gradientUnits="userSpaceOnUse"><stop offset=".766" stop-color="#FFE6E2" stop-opacity="0"/><stop offset=".966" stop-color="#FFE6E2"/></radialGradient><radialGradient id="paint26_radial_4002_3094" cx="0" cy="0" r="1" gradientTransform="matrix(-.84218 3.75478 -8.78476 -1.97039 25.88 5.039)" gradientUnits="userSpaceOnUse"><stop stop-color="#F8F6FB"/><stop offset=".789" stop-color="#EBE6F2"/></radialGradient><radialGradient id="paint27_radial_4002_3094" cx="0" cy="0" r="1" gradientTransform="matrix(2.09375 .53125 -1.15317 4.54483 20.347 6.672)" gradientUnits="userSpaceOnUse"><stop offset=".152" stop-color="#CFCAD4"/><stop offset="1" stop-color="#ECE8F1" stop-opacity="0"/></radialGradient><radialGradient id="paint28_radial_4002_3094" cx="0" cy="0" r="1" gradientTransform="matrix(1.5 -2.625 6.33197 3.61827 22.284 10.516)" gradientUnits="userSpaceOnUse"><stop stop-color="#D3CFD9"/><stop offset="1" stop-color="#D3CFD9" stop-opacity="0"/></radialGradient><radialGradient id="paint29_radial_4002_3094" cx="0" cy="0" r="1" gradientTransform="matrix(.17188 2.91016 -14.53547 .85847 21.253 2.012)" gradientUnits="userSpaceOnUse"><stop stop-color="#DBDBDC"/><stop offset="1" stop-color="#FAFAFA"/></radialGradient><radialGradient id="paint30_radial_4002_3094" cx="0" cy="0" r="1" gradientTransform="matrix(1.45313 0 0 5.1925 20.8 3.329)" gradientUnits="userSpaceOnUse"><stop offset=".253" stop-color="#E2DCE8"/><stop offset="1" stop-color="#E2DCE8" stop-opacity="0"/></radialGradient><radialGradient id="paint32_radial_4002_3094" cx="0" cy="0" r="1" gradientTransform="matrix(2.46875 1.71875 -3.03125 4.35398 17.69 9.048)" gradientUnits="userSpaceOnUse"><stop offset=".391" stop-color="#BFB1C9"/><stop offset="1" stop-color="#E0DAE8" stop-opacity="0"/></radialGradient><radialGradient id="paint33_radial_4002_3094" cx="0" cy="0" r="1" gradientTransform="matrix(0 -2.93844 1.49148 0 24.653 14.496)" gradientUnits="userSpaceOnUse"><stop offset=".306" stop-color="#B384B3"/><stop offset="1" stop-color="#B384B3" stop-opacity="0"/></radialGradient><radialGradient id="paint34_radial_4002_3094" cx="0" cy="0" r="1" gradientTransform="matrix(3.71875 0 0 .30337 18.753 8.673)" gradientUnits="userSpaceOnUse"><stop stop-color="#D0CCD3"/><stop offset="1" stop-color="#D0CCD3" stop-opacity="0"/></radialGradient><radialGradient id="paint35_radial_4002_3094" cx="0" cy="0" r="1" gradientTransform="matrix(-4.28125 -.09372 .19553 -8.93238 21.565 5.579)" gradientUnits="userSpaceOnUse"><stop stop-color="#F5F4F6"/><stop offset="1" stop-color="#CFC8D7"/></radialGradient><radialGradient id="paint36_radial_4002_3094" cx="0" cy="0" r="1" gradientTransform="matrix(11.55068 3.52232 -4.80864 15.76891 9.13 5.733)" gradientUnits="userSpaceOnUse"><stop offset=".633" stop-color="#D1CAD9" stop-opacity="0"/><stop offset=".952" stop-color="#F1EDF4"/></radialGradient><radialGradient id="paint37_radial_4002_3094" cx="0" cy="0" r="1" gradientTransform="matrix(1.11064 -4.72815 1.61144 .37853 16.84 4.59)" gradientUnits="userSpaceOnUse"><stop offset=".348" stop-color="#C5C2C8"/><stop offset="1" stop-color="#C5C2C8" stop-opacity="0"/></radialGradient><radialGradient id="paint38_radial_4002_3094" cx="0" cy="0" r="1" gradientTransform="matrix(-.06346 1.33277 -6.75892 -.32185 9.193 7.383)" gradientUnits="userSpaceOnUse"><stop stop-color="#BDBBBE"/><stop offset="1" stop-color="#BDBBBE" stop-opacity="0"/></radialGradient><radialGradient id="paint39_radial_4002_3094" cx="0" cy="0" r="1" gradientTransform="matrix(-13.48639 2.82409 -3.69438 -17.64244 17.539 7.51)" gradientUnits="userSpaceOnUse"><stop offset=".681" stop-color="#BFB7C6" stop-opacity="0"/><stop offset="1" stop-color="#BFB7C6"/></radialGradient><radialGradient id="paint40_radial_4002_3094" cx="0" cy="0" r="1" gradientTransform="matrix(.88851 -3.93483 2.3195 .52376 6.94 14.49)" gradientUnits="userSpaceOnUse"><stop offset=".201" stop-color="#A87B9C"/><stop offset="1" stop-color="#A87B9C" stop-opacity="0"/></radialGradient><radialGradient id="paint41_radial_4002_3094" cx="0" cy="0" r="1" gradientTransform="rotate(137.988 8.554 4.638) scale(9.89862 9.45071)" gradientUnits="userSpaceOnUse"><stop stop-color="#DDDDDE"/><stop offset="1" stop-color="#C0BBC4"/></radialGradient><radialGradient id="paint42_radial_4002_3094" cx="0" cy="0" r="1" gradientTransform="matrix(-1.78125 0 0 -4.75 18.44 3.485)" gradientUnits="userSpaceOnUse"><stop stop-color="#EBEAEC"/><stop offset="1" stop-color="#EBEAEC" stop-opacity="0"/></radialGradient><radialGradient id="paint44_radial_4002_3094" cx="0" cy="0" r="1" gradientTransform="matrix(5.90625 .125 -.02777 1.31192 10.128 4.11)" gradientUnits="userSpaceOnUse"><stop stop-color="#B8B2BE"/><stop offset="1" stop-color="#B8B2BE" stop-opacity="0"/></radialGradient><radialGradient id="paint45_radial_4002_3094" cx="0" cy="0" r="1" gradientTransform="matrix(1.28125 -.09375 .17757 2.4268 14.128 2.454)" gradientUnits="userSpaceOnUse"><stop offset=".256" stop-color="#BBB9BD"/><stop offset="1" stop-color="#BBB9BD" stop-opacity="0"/></radialGradient><radialGradient id="paint46_radial_4002_3094" cx="0" cy="0" r="1" gradientTransform="matrix(-8.06249 1.65631 -3.03846 -14.79042 14.534 2.579)" gradientUnits="userSpaceOnUse"><stop stop-color="#D2D1D3"/><stop offset="1" stop-color="#B5B4B6"/></radialGradient><radialGradient id="paint47_radial_4002_3094" cx="0" cy="0" r="1" gradientTransform="matrix(8.03125 .96875 -1.11478 9.24187 7.253 3.235)" gradientUnits="userSpaceOnUse"><stop offset=".869" stop-color="#A5A0A9" stop-opacity="0"/><stop offset="1" stop-color="#A5A0A9"/></radialGradient><radialGradient id="paint48_radial_4002_3094" cx="0" cy="0" r="1" gradientTransform="matrix(2.71875 -2.3259 1.71042 1.99932 4.597 7.748)" gradientUnits="userSpaceOnUse"><stop stop-color="#BCB7C1"/><stop offset="1" stop-color="#BCB7C1" stop-opacity="0"/></radialGradient><filter id="filter0_i_4002_3094" width="6.22" height="6.12" x="3.894" y="15.574" color-interpolation-filters="sRGB" filterUnits="userSpaceOnUse"><feFlood flood-opacity="0" result="BackgroundImageFix"/><feBlend in="SourceGraphic" in2="BackgroundImageFix" result="shape"/><feColorMatrix in="SourceAlpha" result="hardAlpha" values="0 0 0 0 0 0 0 0 0 0 0 0 0 0 0 0 0 0 127 0"/><feOffset dx=".1"/><feGaussianBlur stdDeviation=".15"/><feComposite in2="hardAlpha" k2="-1" k3="1" operator="arithmetic"/><feColorMatrix values="0 0 0 0 0.768627 0 0 0 0 0.501961 0 0 0 0 0.160784 0 0 0 1 0"/><feBlend in2="shape" result="effect1_innerShadow_4002_3094"/></filter><filter id="filter1_i_4002_3094" width="6.12" height="6.37" x="21.986" y="15.324" color-interpolation-filters="sRGB" filterUnits="userSpaceOnUse"><feFlood flood-opacity="0" result="BackgroundImageFix"/><feBlend in="SourceGraphic" in2="BackgroundImageFix" result="shape"/><feColorMatrix in="SourceAlpha" result="hardAlpha" values="0 0 0 0 0 0 0 0 0 0 0 0 0 0 0 0 0 0 127 0"/><feOffset dy="-.25"/><feGaussianBlur stdDeviation=".25"/><feComposite in2="hardAlpha" k2="-1" k3="1" operator="arithmetic"/><feColorMatrix values="0 0 0 0 0.937255 0 0 0 0 0.576471 0 0 0 0 0.341176 0 0 0 1 0"/><feBlend in2="shape" result="effect1_innerShadow_4002_3094"/></filter><filter id="filter2_f_4002_3094" width="5.085" height="5.085" x="22.503" y="16.092" color-interpolation-filters="sRGB" filterUnits="userSpaceOnUse"><feFlood flood-opacity="0" result="BackgroundImageFix"/><feBlend in="SourceGraphic" in2="BackgroundImageFix" result="shape"/><feGaussianBlur result="effect1_foregroundBlur_4002_3094" stdDeviation=".25"/></filter><filter id="filter3_f_4002_3094" width="4.585" height="4.585" x="4.698" y="16.342" color-interpolation-filters="sRGB" filterUnits="userSpaceOnUse"><feFlood flood-opacity="0" result="BackgroundImageFix"/><feBlend in="SourceGraphic" in2="BackgroundImageFix" result="shape"/><feGaussianBlur result="effect1_foregroundBlur_4002_3094" stdDeviation=".125"/></filter><filter id="filter4_i_4002_3094" width="19.127" height="19.488" x="6.304" y="10.899" color-interpolation-filters="sRGB" filterUnits="userSpaceOnUse"><feFlood flood-opacity="0" result="BackgroundImageFix"/><feBlend in="SourceGraphic" in2="BackgroundImageFix" result="shape"/><feColorMatrix in="SourceAlpha" result="hardAlpha" values="0 0 0 0 0 0 0 0 0 0 0 0 0 0 0 0 0 0 127 0"/><feOffset dy=".4"/><feGaussianBlur stdDeviation=".3"/><feComposite in2="hardAlpha" k2="-1" k3="1" operator="arithmetic"/><feColorMatrix values="0 0 0 0 0.705882 0 0 0 0 0.411765 0 0 0 0 0.101961 0 0 0 1 0"/><feBlend in2="shape" result="effect1_innerShadow_4002_3094"/></filter><filter id="filter5_f_4002_3094" width="4.57" height="6.1" x="13.272" y="17.174" color-interpolation-filters="sRGB" filterUnits="userSpaceOnUse"><feFlood flood-opacity="0" result="BackgroundImageFix"/><feBlend in="SourceGraphic" in2="BackgroundImageFix" result="shape"/><feGaussianBlur result="effect1_foregroundBlur_4002_3094" stdDeviation=".25"/></filter><filter id="filter6_f_4002_3094" width="4.07" height="5.6" x="13.83" y="17.16" color-interpolation-filters="sRGB" filterUnits="userSpaceOnUse"><feFlood flood-opacity="0" result="BackgroundImageFix"/><feBlend in="SourceGraphic" in2="BackgroundImageFix" result="shape"/><feGaussianBlur result="effect1_foregroundBlur_4002_3094" stdDeviation=".125"/></filter><filter id="filter7_f_4002_3094" width="4.07" height="5.6" x="13.83" y="16.815" color-interpolation-filters="sRGB" filterUnits="userSpaceOnUse"><feFlood flood-opacity="0" result="BackgroundImageFix"/><feBlend in="SourceGraphic" in2="BackgroundImageFix" result="shape"/><feGaussianBlur result="effect1_foregroundBlur_4002_3094" stdDeviation=".125"/></filter><filter id="filter8_f_4002_3094" width="6.68" height="2.541" x="12.525" y="23.28" color-interpolation-filters="sRGB" filterUnits="userSpaceOnUse"><feFlood flood-opacity="0" result="BackgroundImageFix"/><feBlend in="SourceGraphic" in2="BackgroundImageFix" result="shape"/><feGaussianBlur result="effect1_foregroundBlur_4002_3094" stdDeviation=".05"/></filter><filter id="filter9_i_4002_3094" width="5.528" height="2.445" x="17.837" y="15.963" color-interpolation-filters="sRGB" filterUnits="userSpaceOnUse"><feFlood flood-opacity="0" result="BackgroundImageFix"/><feBlend in="SourceGraphic" in2="BackgroundImageFix" result="shape"/><feColorMatrix in="SourceAlpha" result="hardAlpha" values="0 0 0 0 0 0 0 0 0 0 0 0 0 0 0 0 0 0 127 0"/><feOffset dx="-.2"/><feGaussianBlur stdDeviation=".2"/><feComposite in2="hardAlpha" k2="-1" k3="1" operator="arithmetic"/><feColorMatrix values="0 0 0 0 0.141176 0 0 0 0 0.0862745 0 0 0 0 0.176471 0 0 0 1 0"/><feBlend in2="shape" result="effect1_innerShadow_4002_3094"/></filter><filter id="filter10_i_4002_3094" width="5.528" height="2.445" x="8.366" y="15.963" color-interpolation-filters="sRGB" filterUnits="userSpaceOnUse"><feFlood flood-opacity="0" result="BackgroundImageFix"/><feBlend in="SourceGraphic" in2="BackgroundImageFix" result="shape"/><feColorMatrix in="SourceAlpha" result="hardAlpha" values="0 0 0 0 0 0 0 0 0 0 0 0 0 0 0 0 0 0 127 0"/><feOffset dx=".2"/><feGaussianBlur stdDeviation=".125"/><feComposite in2="hardAlpha" k2="-1" k3="1" operator="arithmetic"/><feColorMatrix values="0 0 0 0 0.133333 0 0 0 0 0.0784314 0 0 0 0 0.168627 0 0 0 1 0"/><feBlend in2="shape" result="effect1_innerShadow_4002_3094"/></filter><filter id="filter11_i_4002_3094" width="4.484" height="1.895" x="8.623" y="13.436" color-interpolation-filters="sRGB" filterUnits="userSpaceOnUse"><feFlood flood-opacity="0" result="BackgroundImageFix"/><feBlend in="SourceGraphic" in2="BackgroundImageFix" result="shape"/><feColorMatrix in="SourceAlpha" result="hardAlpha" values="0 0 0 0 0 0 0 0 0 0 0 0 0 0 0 0 0 0 127 0"/><feOffset dx=".2" dy="-.2"/><feGaussianBlur stdDeviation=".15"/><feComposite in2="hardAlpha" k2="-1" k3="1" operator="arithmetic"/><feColorMatrix values="0 0 0 0 0.658824 0 0 0 0 0.270588 0 0 0 0 0.141176 0 0 0 1 0"/><feBlend in2="shape" result="effect1_innerShadow_4002_3094"/></filter><filter id="filter12_i_4002_3094" width="4.484" height="1.895" x="18.925" y="13.436" color-interpolation-filters="sRGB" filterUnits="userSpaceOnUse"><feFlood flood-opacity="0" result="BackgroundImageFix"/><feBlend in="SourceGraphic" in2="BackgroundImageFix" result="shape"/><feColorMatrix in="SourceAlpha" result="hardAlpha" values="0 0 0 0 0 0 0 0 0 0 0 0 0 0 0 0 0 0 127 0"/><feOffset dx=".2" dy="-.2"/><feGaussianBlur stdDeviation=".15"/><feComposite in2="hardAlpha" k2="-1" k3="1" operator="arithmetic"/><feColorMatrix values="0 0 0 0 0.658824 0 0 0 0 0.270588 0 0 0 0 0.141176 0 0 0 1 0"/><feBlend in2="shape" result="effect1_innerShadow_4002_3094"/></filter><filter id="filter13_f_4002_3094" width="1.315" height="1.143" x="18.709" y="16.753" color-interpolation-filters="sRGB" filterUnits="userSpaceOnUse"><feFlood flood-opacity="0" result="BackgroundImageFix"/><feBlend in="SourceGraphic" in2="BackgroundImageFix" result="shape"/><feGaussianBlur result="effect1_foregroundBlur_4002_3094" stdDeviation=".05"/></filter><filter id="filter14_f_4002_3094" width="1.333" height="1.376" x="20.396" y="16.985" color-interpolation-filters="sRGB" filterUnits="userSpaceOnUse"><feFlood flood-opacity="0" result="BackgroundImageFix"/><feBlend in="SourceGraphic" in2="BackgroundImageFix" result="shape"/><feGaussianBlur result="effect1_foregroundBlur_4002_3094" stdDeviation=".1"/></filter><filter id="filter15_f_4002_3094" width="1.514" height="1.617" x="11.947" y="16.865" color-interpolation-filters="sRGB" filterUnits="userSpaceOnUse"><feFlood flood-opacity="0" result="BackgroundImageFix"/><feBlend in="SourceGraphic" in2="BackgroundImageFix" result="shape"/><feGaussianBlur result="effect1_foregroundBlur_4002_3094" stdDeviation=".1"/></filter><filter id="filter16_f_4002_3094" width="1.555" height="1.159" x="10.422" y="16.738" color-interpolation-filters="sRGB" filterUnits="userSpaceOnUse"><feFlood flood-opacity="0" result="BackgroundImageFix"/><feBlend in="SourceGraphic" in2="BackgroundImageFix" result="shape"/><feGaussianBlur result="effect1_foregroundBlur_4002_3094" stdDeviation=".05"/></filter><filter id="filter17_f_4002_3094" width="3.958" height="1.518" x="19.154" y="13.659" color-interpolation-filters="sRGB" filterUnits="userSpaceOnUse"><feFlood flood-opacity="0" result="BackgroundImageFix"/><feBlend in="SourceGraphic" in2="BackgroundImageFix" result="shape"/><feGaussianBlur result="effect1_foregroundBlur_4002_3094" stdDeviation=".15"/></filter><filter id="filter18_f_4002_3094" width="3.958" height="1.518" x="8.786" y="13.659" color-interpolation-filters="sRGB" filterUnits="userSpaceOnUse"><feFlood flood-opacity="0" result="BackgroundImageFix"/><feBlend in="SourceGraphic" in2="BackgroundImageFix" result="shape"/><feGaussianBlur result="effect1_foregroundBlur_4002_3094" stdDeviation=".15"/></filter><filter id="filter19_i_4002_3094" width="7.307" height="5.168" x="20.417" y="1.912" color-interpolation-filters="sRGB" filterUnits="userSpaceOnUse"><feFlood flood-opacity="0" result="BackgroundImageFix"/><feBlend in="SourceGraphic" in2="BackgroundImageFix" result="shape"/><feColorMatrix in="SourceAlpha" result="hardAlpha" values="0 0 0 0 0 0 0 0 0 0 0 0 0 0 0 0 0 0 127 0"/><feOffset dx=".1" dy="-.1"/><feGaussianBlur stdDeviation=".15"/><feComposite in2="hardAlpha" k2="-1" k3="1" operator="arithmetic"/><feColorMatrix values="0 0 0 0 0.843137 0 0 0 0 0.8 0 0 0 0 0.890196 0 0 0 1 0"/><feBlend in2="shape" result="effect1_innerShadow_4002_3094"/></filter><filter id="filter20_ii_4002_3094" width="12.925" height="6.714" x="14.465" y="8.126" color-interpolation-filters="sRGB" filterUnits="userSpaceOnUse"><feFlood flood-opacity="0" result="BackgroundImageFix"/><feBlend in="SourceGraphic" in2="BackgroundImageFix" result="shape"/><feColorMatrix in="SourceAlpha" result="hardAlpha" values="0 0 0 0 0 0 0 0 0 0 0 0 0 0 0 0 0 0 127 0"/><feOffset dx="-.05" dy=".1"/><feGaussianBlur stdDeviation=".125"/><feComposite in2="hardAlpha" k2="-1" k3="1" operator="arithmetic"/><feColorMatrix values="0 0 0 0 1 0 0 0 0 0.992157 0 0 0 0 1 0 0 0 1 0"/><feBlend in2="shape" result="effect1_innerShadow_4002_3094"/><feColorMatrix in="SourceAlpha" result="hardAlpha" values="0 0 0 0 0 0 0 0 0 0 0 0 0 0 0 0 0 0 127 0"/><feOffset dx=".4" dy="-.25"/><feGaussianBlur stdDeviation=".325"/><feComposite in2="hardAlpha" k2="-1" k3="1" operator="arithmetic"/><feColorMatrix values="0 0 0 0 0.807843 0 0 0 0 0.678431 0 0 0 0 0.803922 0 0 0 1 0"/><feBlend in2="effect1_innerShadow_4002_3094" result="effect2_innerShadow_4002_3094"/></filter><filter id="filter21_i_4002_3094" width="17.006" height="13.059" x="4.106" y="1.762" color-interpolation-filters="sRGB" filterUnits="userSpaceOnUse"><feFlood flood-opacity="0" result="BackgroundImageFix"/><feBlend in="SourceGraphic" in2="BackgroundImageFix" result="shape"/><feColorMatrix in="SourceAlpha" result="hardAlpha" values="0 0 0 0 0 0 0 0 0 0 0 0 0 0 0 0 0 0 127 0"/><feOffset dx="-.25" dy="-.25"/><feGaussianBlur stdDeviation=".3"/><feComposite in2="hardAlpha" k2="-1" k3="1" operator="arithmetic"/><feColorMatrix values="0 0 0 0 0.756863 0 0 0 0 0.607843 0 0 0 0 0.772549 0 0 0 1 0"/><feBlend in2="shape" result="effect1_innerShadow_4002_3094"/></filter><filter id="filter22_i_4002_3094" width="13.757" height="8.679" x="4.256" y="1.912" color-interpolation-filters="sRGB" filterUnits="userSpaceOnUse"><feFlood flood-opacity="0" result="BackgroundImageFix"/><feBlend in="SourceGraphic" in2="BackgroundImageFix" result="shape"/><feColorMatrix in="SourceAlpha" result="hardAlpha" values="0 0 0 0 0 0 0 0 0 0 0 0 0 0 0 0 0 0 127 0"/><feOffset dx="-.1" dy="-.1"/><feGaussianBlur stdDeviation=".15"/><feComposite in2="hardAlpha" k2="-1" k3="1" operator="arithmetic"/><feColorMatrix values="0 0 0 0 0.611765 0 0 0 0 0.588235 0 0 0 0 0.635294 0 0 0 1 0"/><feBlend in2="shape" result="effect1_innerShadow_4002_3094"/></filter><filter id="filter23_ii_4002_3094" width="10.523" height="5.986" x="4.356" y="1.812" color-interpolation-filters="sRGB" filterUnits="userSpaceOnUse"><feFlood flood-opacity="0" result="BackgroundImageFix"/><feBlend in="SourceGraphic" in2="BackgroundImageFix" result="shape"/><feColorMatrix in="SourceAlpha" result="hardAlpha" values="0 0 0 0 0 0 0 0 0 0 0 0 0 0 0 0 0 0 127 0"/><feOffset dy="-.2"/><feGaussianBlur stdDeviation=".2"/><feComposite in2="hardAlpha" k2="-1" k3="1" operator="arithmetic"/><feColorMatrix values="0 0 0 0 0.686275 0 0 0 0 0.619608 0 0 0 0 0.752941 0 0 0 1 0"/><feBlend in2="shape" result="effect1_innerShadow_4002_3094"/><feColorMatrix in="SourceAlpha" result="hardAlpha" values="0 0 0 0 0 0 0 0 0 0 0 0 0 0 0 0 0 0 127 0"/><feOffset dy=".05"/><feGaussianBlur stdDeviation=".15"/><feComposite in2="hardAlpha" k2="-1" k3="1" operator="arithmetic"/><feColorMatrix values="0 0 0 0 0.705882 0 0 0 0 0.701961 0 0 0 0 0.705882 0 0 0 1 0"/><feBlend in2="effect1_innerShadow_4002_3094" result="effect2_innerShadow_4002_3094"/></filter><linearGradient id="paint0_linear_4002_3094" x1="3.894" x2="9.522" y1="18.8" y2="18.8" gradientUnits="userSpaceOnUse"><stop stop-color="#E79B27"/><stop offset="1" stop-color="#B96201"/></linearGradient><linearGradient id="paint10_linear_4002_3094" x1="25.431" x2="23.239" y1="20.444" y2="20.444" gradientUnits="userSpaceOnUse"><stop stop-color="#FFDA39"/><stop offset="1" stop-color="#FFDA39" stop-opacity="0"/></linearGradient><linearGradient id="paint14_linear_4002_3094" x1="15.865" x2="15.865" y1="22.51" y2="17.41" gradientUnits="userSpaceOnUse"><stop stop-color="#FFC134"/><stop offset="1" stop-color="#F8C73F"/></linearGradient><linearGradient id="paint16_linear_4002_3094" x1="13.875" x2="15.5" y1="21.061" y2="21.259" gradientUnits="userSpaceOnUse"><stop stop-color="#F8A322"/><stop offset="1" stop-color="#F8A322" stop-opacity="0"/></linearGradient><linearGradient id="paint17_linear_4002_3094" x1="15.865" x2="15.865" y1="22.685" y2="21.525" gradientUnits="userSpaceOnUse"><stop stop-color="#E48538"/><stop offset="1" stop-color="#E48538" stop-opacity="0"/></linearGradient><linearGradient id="paint18_linear_4002_3094" x1="15.865" x2="15.865" y1="17.065" y2="20.327" gradientUnits="userSpaceOnUse"><stop stop-color="#F8C73F"/><stop offset="1" stop-color="#F8C73F" stop-opacity="0"/></linearGradient><linearGradient id="paint19_linear_4002_3094" x1="14.479" x2="15.34" y1="25.494" y2="23.837" gradientUnits="userSpaceOnUse"><stop stop-color="#FEAC35"/><stop offset="1" stop-color="#FEAC35" stop-opacity="0"/></linearGradient><linearGradient id="paint22_linear_4002_3094" x1="21.494" x2="20.898" y1="17.601" y2="17.968" gradientUnits="userSpaceOnUse"><stop stop-color="#B4948D"/><stop offset="1" stop-color="#B4948D" stop-opacity="0"/></linearGradient><linearGradient id="paint24_linear_4002_3094" x1="13.129" x2="12.533" y1="17.601" y2="17.968" gradientUnits="userSpaceOnUse"><stop stop-color="#B4948D"/><stop offset="1" stop-color="#B4948D" stop-opacity="0"/></linearGradient><linearGradient id="paint31_linear_4002_3094" x1="26.159" x2="15.409" y1="13.579" y2="13.579" gradientUnits="userSpaceOnUse"><stop stop-color="#EEE8F4"/><stop offset="1" stop-color="#DDD6E4"/></linearGradient><linearGradient id="paint43_linear_4002_3094" x1="4.356" x2="8.534" y1="9.547" y2="8.579" gradientUnits="userSpaceOnUse"><stop stop-color="#B6B0BB"/><stop offset="1" stop-color="#B6B0BB" stop-opacity="0"/></linearGradient></defs></svg>