<svg xmlns="http://www.w3.org/2000/svg" width="32" height="32" fill="none" viewBox="0 0 32 32"><path fill="url(#paint0_radial_4002_2845)" d="M5.428 29.911h21.144c-.19-5.356-4.591-9.64-9.994-9.64h-1.156c-5.403 0-9.805 4.284-9.994 9.64Z"/><path fill="url(#paint1_radial_4002_2845)" d="M5.428 29.911h21.144c-.19-5.356-4.591-9.64-9.994-9.64h-1.156c-5.403 0-9.805 4.284-9.994 9.64Z"/><path fill="url(#paint2_linear_4002_2845)" d="M5.428 29.911h21.144c-.19-5.356-4.591-9.64-9.994-9.64h-1.156c-5.403 0-9.805 4.284-9.994 9.64Z"/><path fill="url(#paint3_linear_4002_2845)" d="M5.428 29.911h21.144c-.19-5.356-4.591-9.64-9.994-9.64h-1.156c-5.403 0-9.805 4.284-9.994 9.64Z"/><path fill="url(#paint4_radial_4002_2845)" d="M9.058 29.911h-3.63a9.98 9.98 0 0 1 3.63-7.355v7.355Z"/><path fill="url(#paint5_linear_4002_2845)" d="M9.058 29.911h-3.63a9.98 9.98 0 0 1 3.63-7.355v7.355Z"/><path fill="url(#paint6_radial_4002_2845)" d="M22.942 29.911h3.63a9.98 9.98 0 0 0-3.63-7.355v7.355Z"/><path fill="url(#paint7_radial_4002_2845)" d="M22.942 29.911h3.63a9.98 9.98 0 0 0-3.63-7.355v7.355Z"/><g filter="url(#filter0_i_4002_2845)"><path fill="url(#paint8_radial_4002_2845)" d="M11.926 20.161c-1.363.418-2.538 1.308-3.179 1.936a.462.462 0 0 0 .011.659l.65.649a.523.523 0 0 0 .705.02 12.252 12.252 0 0 1 3.106-1.857l-1.293-1.407Z"/><path fill="url(#paint9_radial_4002_2845)" d="M11.926 20.161c-1.363.418-2.538 1.308-3.179 1.936a.462.462 0 0 0 .011.659l.65.649a.523.523 0 0 0 .705.02 12.252 12.252 0 0 1 3.106-1.857l-1.293-1.407Z"/></g><g filter="url(#filter1_ii_4002_2845)"><path fill="#554B59" d="M20.046 20.161c1.364.418 2.538 1.308 3.179 1.936a.461.461 0 0 1-.011.659l-.65.649a.523.523 0 0 1-.704.02 12.252 12.252 0 0 0-3.107-1.857l1.293-1.407Z"/><path fill="url(#paint10_radial_4002_2845)" d="M20.046 20.161c1.364.418 2.538 1.308 3.179 1.936a.461.461 0 0 1-.011.659l-.65.649a.523.523 0 0 1-.704.02 12.252 12.252 0 0 0-3.107-1.857l1.293-1.407Z"/><path fill="url(#paint11_radial_4002_2845)" d="M20.046 20.161c1.364.418 2.538 1.308 3.179 1.936a.461.461 0 0 1-.011.659l-.65.649a.523.523 0 0 1-.704.02 12.252 12.252 0 0 0-3.107-1.857l1.293-1.407Z"/></g><g filter="url(#filter2_f_4002_2845)"><ellipse cx="9.937" cy="22.243" fill="#321F22" rx=".641" ry=".524" transform="rotate(-40.534 9.937 22.243)"/></g><ellipse cx="9.886" cy="22.154" fill="url(#paint12_radial_4002_2845)" rx=".641" ry=".524" transform="rotate(-40.534 9.886 22.154)"/><g filter="url(#filter3_f_4002_2845)"><ellipse fill="#3E3138" rx=".641" ry=".494" transform="scale(-1 1) rotate(-35.343 23.849 45.555)"/></g><ellipse fill="url(#paint13_radial_4002_2845)" rx=".641" ry=".524" transform="scale(-1 1) rotate(-40.534 18.954 40.982)"/><g filter="url(#filter4_iii_4002_2845)"><rect width="7.594" height="9.594" x="12.172" y="14.927" fill="url(#paint14_radial_4002_2845)" rx="3.797"/><rect width="7.594" height="9.594" x="12.172" y="14.927" fill="url(#paint15_radial_4002_2845)" rx="3.797"/><rect width="7.594" height="9.594" x="12.172" y="14.927" fill="url(#paint16_radial_4002_2845)" rx="3.797"/></g><rect width="4.141" height="5.141" x="13.898" y="18.099" fill="url(#paint17_radial_4002_2845)" rx="1.969"/><path fill="url(#paint18_linear_4002_2845)" d="M15.49 23.203v6.708h.989v-6.714a1.974 1.974 0 0 1-.409.042h-.203c-.129 0-.255-.012-.377-.036Z"/><path fill="url(#paint19_linear_4002_2845)" d="M15.49 23.203v6.708h.989v-6.714a1.974 1.974 0 0 1-.409.042h-.203c-.129 0-.255-.012-.377-.036Z"/><g filter="url(#filter5_f_4002_2845)"><circle cx="17.439" cy="25.445" r=".545" fill="#F6265E"/></g><g filter="url(#filter6_f_4002_2845)"><circle cx="17.439" cy="28.445" r=".545" fill="#F6265E"/></g><circle cx="17.494" cy="25.374" r=".545" fill="url(#paint20_radial_4002_2845)"/><circle cx="17.494" cy="28.374" r=".545" fill="url(#paint21_radial_4002_2845)"/><g filter="url(#filter7_i_4002_2845)"><circle cx="11.244" cy="15.262" r="1.669" fill="url(#paint22_radial_4002_2845)"/></g><circle cx="11.244" cy="15.262" r="1.669" fill="url(#paint23_radial_4002_2845)"/><g filter="url(#filter8_f_4002_2845)"><circle cx="11.244" cy="15.262" r=".995" fill="url(#paint24_linear_4002_2845)"/></g><g filter="url(#filter9_i_4002_2845)"><circle cx="20.756" cy="15.262" r="1.669" fill="url(#paint25_linear_4002_2845)"/><circle cx="20.756" cy="15.262" r="1.669" fill="url(#paint26_radial_4002_2845)"/></g><g filter="url(#filter10_f_4002_2845)"><circle cx="20.756" cy="15.262" r=".995" fill="#A57C70"/><circle cx="20.756" cy="15.262" r=".995" fill="url(#paint27_radial_4002_2845)"/><circle cx="20.756" cy="15.262" r=".995" fill="url(#paint28_radial_4002_2845)"/></g><g filter="url(#filter11_ii_4002_2845)"><path fill="url(#paint29_radial_4002_2845)" d="M10.892 14.65a.665.665 0 0 0 .049 0s-.054-.852-.107-1.439c0-.267.107-.587.321-.747l.161-.16c.268-.213.376-.533.376-.853v-.853c0-.267.16-.48.429-.533.643-.16 1.984-.427 3.915-.427s3.272.267 3.916.427c.214.053.429.266.429.533v.853c0 .32.16.64.375.853.502.352.47.546.43.96-.055.534-.108 1.44-.108 1.44h.018l-.266 3.958c-.16 1.77-1.551 3.003-3.21 3.003h-3.21c-1.712 0-3.05-1.233-3.21-3.003l-.308-4.013Z"/><path fill="url(#paint30_radial_4002_2845)" d="M10.892 14.65a.665.665 0 0 0 .049 0s-.054-.852-.107-1.439c0-.267.107-.587.321-.747l.161-.16c.268-.213.376-.533.376-.853v-.853c0-.267.16-.48.429-.533.643-.16 1.984-.427 3.915-.427s3.272.267 3.916.427c.214.053.429.266.429.533v.853c0 .32.16.64.375.853.502.352.47.546.43.96-.055.534-.108 1.44-.108 1.44h.018l-.266 3.958c-.16 1.77-1.551 3.003-3.21 3.003h-3.21c-1.712 0-3.05-1.233-3.21-3.003l-.308-4.013Z"/><path fill="url(#paint31_radial_4002_2845)" d="M10.892 14.65a.665.665 0 0 0 .049 0s-.054-.852-.107-1.439c0-.267.107-.587.321-.747l.161-.16c.268-.213.376-.533.376-.853v-.853c0-.267.16-.48.429-.533.643-.16 1.984-.427 3.915-.427s3.272.267 3.916.427c.214.053.429.266.429.533v.853c0 .32.16.64.375.853.502.352.47.546.43.96-.055.534-.108 1.44-.108 1.44h.018l-.266 3.958c-.16 1.77-1.551 3.003-3.21 3.003h-3.21c-1.712 0-3.05-1.233-3.21-3.003l-.308-4.013Z"/><path fill="url(#paint32_radial_4002_2845)" d="M10.892 14.65a.665.665 0 0 0 .049 0s-.054-.852-.107-1.439c0-.267.107-.587.321-.747l.161-.16c.268-.213.376-.533.376-.853v-.853c0-.267.16-.48.429-.533.643-.16 1.984-.427 3.915-.427s3.272.267 3.916.427c.214.053.429.266.429.533v.853c0 .32.16.64.375.853.502.352.47.546.43.96-.055.534-.108 1.44-.108 1.44h.018l-.266 3.958c-.16 1.77-1.551 3.003-3.21 3.003h-3.21c-1.712 0-3.05-1.233-3.21-3.003l-.308-4.013Z"/><path fill="url(#paint33_linear_4002_2845)" d="M10.892 14.65a.665.665 0 0 0 .049 0s-.054-.852-.107-1.439c0-.267.107-.587.321-.747l.161-.16c.268-.213.376-.533.376-.853v-.853c0-.267.16-.48.429-.533.643-.16 1.984-.427 3.915-.427s3.272.267 3.916.427c.214.053.429.266.429.533v.853c0 .32.16.64.375.853.502.352.47.546.43.96-.055.534-.108 1.44-.108 1.44h.018l-.266 3.958c-.16 1.77-1.551 3.003-3.21 3.003h-3.21c-1.712 0-3.05-1.233-3.21-3.003l-.308-4.013Z"/></g><g filter="url(#filter12_i_4002_2845)"><path fill="#4F3332" d="m20.759 8.785.429.213c.75.373 1.18 1.227 1.019 2.133l-.59 3.04c-.053.314-.26.525-.572.533h-.018s.054-.906.107-1.44c.044-.433-.032-.565-.429-.96-.214-.213-.375-.533-.375-.853v-.853c0-.267-.215-.48-.43-.533-.643-.16-1.984-.427-3.915-.427-1.93 0-3.271.267-3.915.427a.52.52 0 0 0-.43.533v.853c0 .32-.106.64-.375.853l-.16.16c-.215.16-.322.48-.322.747.053.587.107 1.44.107 1.44-.016 0-.033 0-.049-.002a.633.633 0 0 1-.595-.531l-.59-3.04c-.107-.853.322-1.707 1.073-2.08l.43-.213c.267-.16.536-.374.804-.587l.965-1.013c.59-.533 1.448-.693 2.2-.32a2.94 2.94 0 0 0 1.662 0c.804-.267 1.716-.054 2.36.533l.804.8c.215.267.483.427.805.587Z"/><path fill="url(#paint34_radial_4002_2845)" d="m20.759 8.785.429.213c.75.373 1.18 1.227 1.019 2.133l-.59 3.04c-.053.314-.26.525-.572.533h-.018s.054-.906.107-1.44c.044-.433-.032-.565-.429-.96-.214-.213-.375-.533-.375-.853v-.853c0-.267-.215-.48-.43-.533-.643-.16-1.984-.427-3.915-.427-1.93 0-3.271.267-3.915.427a.52.52 0 0 0-.43.533v.853c0 .32-.106.64-.375.853l-.16.16c-.215.16-.322.48-.322.747.053.587.107 1.44.107 1.44-.016 0-.033 0-.049-.002a.633.633 0 0 1-.595-.531l-.59-3.04c-.107-.853.322-1.707 1.073-2.08l.43-.213c.267-.16.536-.374.804-.587l.965-1.013c.59-.533 1.448-.693 2.2-.32a2.94 2.94 0 0 0 1.662 0c.804-.267 1.716-.054 2.36.533l.804.8c.215.267.483.427.805.587Z"/><path fill="url(#paint35_radial_4002_2845)" d="m20.759 8.785.429.213c.75.373 1.18 1.227 1.019 2.133l-.59 3.04c-.053.314-.26.525-.572.533h-.018s.054-.906.107-1.44c.044-.433-.032-.565-.429-.96-.214-.213-.375-.533-.375-.853v-.853c0-.267-.215-.48-.43-.533-.643-.16-1.984-.427-3.915-.427-1.93 0-3.271.267-3.915.427a.52.52 0 0 0-.43.533v.853c0 .32-.106.64-.375.853l-.16.16c-.215.16-.322.48-.322.747.053.587.107 1.44.107 1.44-.016 0-.033 0-.049-.002a.633.633 0 0 1-.595-.531l-.59-3.04c-.107-.853.322-1.707 1.073-2.08l.43-.213c.267-.16.536-.374.804-.587l.965-1.013c.59-.533 1.448-.693 2.2-.32a2.94 2.94 0 0 0 1.662 0c.804-.267 1.716-.054 2.36.533l.804.8c.215.267.483.427.805.587Z"/><path fill="url(#paint36_radial_4002_2845)" d="m20.759 8.785.429.213c.75.373 1.18 1.227 1.019 2.133l-.59 3.04c-.053.314-.26.525-.572.533h-.018s.054-.906.107-1.44c.044-.433-.032-.565-.429-.96-.214-.213-.375-.533-.375-.853v-.853c0-.267-.215-.48-.43-.533-.643-.16-1.984-.427-3.915-.427-1.93 0-3.271.267-3.915.427a.52.52 0 0 0-.43.533v.853c0 .32-.106.64-.375.853l-.16.16c-.215.16-.322.48-.322.747.053.587.107 1.44.107 1.44-.016 0-.033 0-.049-.002a.633.633 0 0 1-.595-.531l-.59-3.04c-.107-.853.322-1.707 1.073-2.08l.43-.213c.267-.16.536-.374.804-.587l.965-1.013c.59-.533 1.448-.693 2.2-.32a2.94 2.94 0 0 0 1.662 0c.804-.267 1.716-.054 2.36.533l.804.8c.215.267.483.427.805.587Z"/><path fill="url(#paint37_radial_4002_2845)" d="m20.759 8.785.429.213c.75.373 1.18 1.227 1.019 2.133l-.59 3.04c-.053.314-.26.525-.572.533h-.018s.054-.906.107-1.44c.044-.433-.032-.565-.429-.96-.214-.213-.375-.533-.375-.853v-.853c0-.267-.215-.48-.43-.533-.643-.16-1.984-.427-3.915-.427-1.93 0-3.271.267-3.915.427a.52.52 0 0 0-.43.533v.853c0 .32-.106.64-.375.853l-.16.16c-.215.16-.322.48-.322.747.053.587.107 1.44.107 1.44-.016 0-.033 0-.049-.002a.633.633 0 0 1-.595-.531l-.59-3.04c-.107-.853.322-1.707 1.073-2.08l.43-.213c.267-.16.536-.374.804-.587l.965-1.013c.59-.533 1.448-.693 2.2-.32a2.94 2.94 0 0 0 1.662 0c.804-.267 1.716-.054 2.36.533l.804.8c.215.267.483.427.805.587Z"/></g><g filter="url(#filter13_f_4002_2845)"><path fill="#87565C" d="m15.716 15.14-.82 1.7c-.102.35.142.699.488.699h.737c.346 0 .59-.355.488-.7l-.498-1.699c-.107-.377-.283-.377-.395 0Z"/></g><g filter="url(#filter14_f_4002_2845)"><path fill="#986C65" d="m15.61 14.977-.532 1.7a.538.538 0 0 0 .52.698h.786a.54.54 0 0 0 .52-.699l-.53-1.7c-.114-.376-.646-.376-.765 0Z"/><path fill="url(#paint38_linear_4002_2845)" d="m15.61 14.977-.532 1.7a.538.538 0 0 0 .52.698h.786a.54.54 0 0 0 .52-.699l-.53-1.7c-.114-.376-.646-.376-.765 0Z"/><path fill="url(#paint39_linear_4002_2845)" d="m15.61 14.977-.532 1.7a.538.538 0 0 0 .52.698h.786a.54.54 0 0 0 .52-.699l-.53-1.7c-.114-.376-.646-.376-.765 0Z"/><path fill="url(#paint40_linear_4002_2845)" d="m15.61 14.977-.532 1.7a.538.538 0 0 0 .52.698h.786a.54.54 0 0 0 .52-.699l-.53-1.7c-.114-.376-.646-.376-.765 0Z"/><path fill="url(#paint41_radial_4002_2845)" d="m15.61 14.977-.532 1.7a.538.538 0 0 0 .52.698h.786a.54.54 0 0 0 .52-.699l-.53-1.7c-.114-.376-.646-.376-.765 0Z"/></g><g filter="url(#filter15_f_4002_2845)"><path fill="url(#paint42_linear_4002_2845)" d="m15.61 14.813-.532 1.7a.54.54 0 0 0 .52.699h.786a.54.54 0 0 0 .52-.7l-.53-1.699c-.114-.376-.646-.376-.765 0Z"/></g><g filter="url(#filter16_f_4002_2845)"><path stroke="url(#paint43_linear_4002_2845)" stroke-width=".2" d="M15.991 18.392c-.507 0-.984-.12-1.385-.329-.137-.07-.284.085-.198.21.335.507.919.845 1.583.845.665 0 1.248-.338 1.583-.846.086-.129-.06-.278-.198-.209-.4.21-.872.329-1.385.329Z"/></g><path fill="#88024E" stroke="url(#paint44_linear_4002_2845)" stroke-width=".1" d="M14.63 18.02v-.001h-.001a.203.203 0 0 0-.242.042.187.187 0 0 0-.02.24c.344.52.943.867 1.624.867.682 0 1.281-.347 1.625-.868a.189.189 0 0 0-.021-.241.203.203 0 0 0-.241-.04 2.939 2.939 0 0 1-1.363.323c-.5 0-.968-.118-1.362-.323Z"/><path fill="#fff" d="M18.379 13.831c.653 0 1.204.45 1.354 1.059a.274.274 0 0 1-.267.34h-2.23a.23.23 0 0 1-.228-.271 1.398 1.398 0 0 1 1.37-1.128Z"/><path fill="url(#paint45_radial_4002_2845)" d="M18.172 14.103a.892.892 0 0 1 .86 1.128h-1.724a.896.896 0 0 1 .864-1.127Z"/><path fill="#000" d="M17.661 14.995c0-.284.227-.51.511-.51a.509.509 0 0 1 .454.745h-.904a.462.462 0 0 1-.061-.235Z"/><g filter="url(#filter17_f_4002_2845)"><path fill="#C7A7A3" d="M18.106 14.291c.064.086-.069.19-.22.302-.151.113-.263.193-.327.108-.063-.085.008-.246.159-.359.15-.113.325-.136.388-.05Z"/><path fill="url(#paint46_radial_4002_2845)" d="M18.106 14.291c.064.086-.069.19-.22.302-.151.113-.263.193-.327.108-.063-.085.008-.246.159-.359.15-.113.325-.136.388-.05Z"/></g><g filter="url(#filter18_f_4002_2845)"><path fill="url(#paint47_linear_4002_2845)" d="M18.967 14.878a.84.84 0 0 0-.232-.463l-.26.285.118.229.374-.051Z"/></g><path fill="#fff" d="M13.598 13.831c-.653 0-1.204.45-1.354 1.059-.045.174.09.34.268.34h2.23a.23.23 0 0 0 .227-.271 1.4 1.4 0 0 0-1.37-1.128Z"/><path fill="url(#paint48_radial_4002_2845)" d="M13.805 14.103a.892.892 0 0 0-.86 1.128h1.724a.913.913 0 0 0 .033-.236.898.898 0 0 0-.897-.892Z"/><path fill="#000" d="M14.316 14.995a.509.509 0 0 0-.51-.51.509.509 0 0 0-.455.745h.904a.506.506 0 0 0 .061-.235Z"/><g filter="url(#filter19_f_4002_2845)"><path fill="url(#paint49_linear_4002_2845)" d="M14.62 14.89c0-.288-.234-.48-.297-.538l-.289.279.178.36.408-.1Z"/></g><g filter="url(#filter20_f_4002_2845)" transform="rotate(-27.914 13.536 14.484)"><ellipse cx="13.536" cy="14.484" fill="#C7A7A3" fill-opacity=".9" rx=".389" ry=".197"/><ellipse cx="13.536" cy="14.484" fill="url(#paint50_radial_4002_2845)" rx=".389" ry=".197"/></g><g filter="url(#filter21_i_4002_2845)"><path fill="url(#paint51_linear_4002_2845)" d="M10.31 14.155c-.278-.016-.842-.08-1.054-.728-.11-.37.082-.779.143-.91a1.317 1.317 0 0 1 .024-.05c.061-.12.152-.296-.02-.576-.193-.313-.375-.615-.045-1.257.207-.405.093-.652-.032-.875-.183-.327-.166-.604 0-.938.07-.143.173-.275.173-.472 0-.198-.07-.335-.141-.474-.074-.143-.148-.289-.148-.504 0-.23.084-.398.161-.554.066-.133.128-.257.128-.402 0-.129-.06-.24-.125-.364-.094-.178-.201-.38-.164-.69.071-.59.537-.787.756-.879l.02-.008c.21-.089.364-.163.452-.58.046-.215.132-.502.293-.663a1.06 1.06 0 0 1 .791-.3c.257.007.535-.03.752-.254.217-.225.458-.413.699-.453.24-.04.471.014.725.144.281.145.567.07.705-.035.34-.262.718-.32 1.158-.141.18.072.295.112.394.112.098 0 .214-.04.393-.112.44-.18.819-.12 1.159.141a.68.68 0 0 0 .704.035c.254-.13.484-.184.725-.144.241.04.483.228.7.453.216.225.494.261.75.253a1.06 1.06 0 0 1 .793.301c.16.161.246.448.292.663.088.417.243.491.452.58l.02.008c.219.092.685.288.756.878.038.31-.07.513-.164.69-.065.124-.125.236-.125.365 0 .145.062.269.128.402.078.156.161.324.161.554 0 .215-.074.36-.147.504a.935.935 0 0 0-.105.466c0 .528.496.742.176 1.422-.125.223-.324.455-.117.86.33.641.193.955 0 1.268-.171.28-.081.457-.02.577l.02.041.005.009c.06.13.252.54.142.909-.212.649-.775.712-1.054.728H10.31Z"/><path fill="url(#paint52_linear_4002_2845)" d="M10.31 14.155c-.278-.016-.842-.08-1.054-.728-.11-.37.082-.779.143-.91a1.317 1.317 0 0 1 .024-.05c.061-.12.152-.296-.02-.576-.193-.313-.375-.615-.045-1.257.207-.405.093-.652-.032-.875-.183-.327-.166-.604 0-.938.07-.143.173-.275.173-.472 0-.198-.07-.335-.141-.474-.074-.143-.148-.289-.148-.504 0-.23.084-.398.161-.554.066-.133.128-.257.128-.402 0-.129-.06-.24-.125-.364-.094-.178-.201-.38-.164-.69.071-.59.537-.787.756-.879l.02-.008c.21-.089.364-.163.452-.58.046-.215.132-.502.293-.663a1.06 1.06 0 0 1 .791-.3c.257.007.535-.03.752-.254.217-.225.458-.413.699-.453.24-.04.471.014.725.144.281.145.567.07.705-.035.34-.262.718-.32 1.158-.141.18.072.295.112.394.112.098 0 .214-.04.393-.112.44-.18.819-.12 1.159.141a.68.68 0 0 0 .704.035c.254-.13.484-.184.725-.144.241.04.483.228.7.453.216.225.494.261.75.253a1.06 1.06 0 0 1 .793.301c.16.161.246.448.292.663.088.417.243.491.452.58l.02.008c.219.092.685.288.756.878.038.31-.07.513-.164.69-.065.124-.125.236-.125.365 0 .145.062.269.128.402.078.156.161.324.161.554 0 .215-.074.36-.147.504a.935.935 0 0 0-.105.466c0 .528.496.742.176 1.422-.125.223-.324.455-.117.86.33.641.193.955 0 1.268-.171.28-.081.457-.02.577l.02.041.005.009c.06.13.252.54.142.909-.212.649-.775.712-1.054.728H10.31Z"/></g><path fill="url(#paint53_radial_4002_2845)" d="M10.31 14.155c-.278-.016-.842-.08-1.054-.728-.11-.37.082-.779.143-.91a1.317 1.317 0 0 1 .024-.05c.061-.12.152-.296-.02-.576-.193-.313-.375-.615-.045-1.257.207-.405.093-.652-.032-.875-.183-.327-.166-.604 0-.938.07-.143.173-.275.173-.472 0-.198-.07-.335-.141-.474-.074-.143-.148-.289-.148-.504 0-.23.084-.398.161-.554.066-.133.128-.257.128-.402 0-.129-.06-.24-.125-.364-.094-.178-.201-.38-.164-.69.071-.59.537-.787.756-.879l.02-.008c.21-.089.364-.163.452-.58.046-.215.132-.502.293-.663a1.06 1.06 0 0 1 .791-.3c.257.007.535-.03.752-.254.217-.225.458-.413.699-.453.24-.04.471.014.725.144.281.145.567.07.705-.035.34-.262.718-.32 1.158-.141.18.072.295.112.394.112.098 0 .214-.04.393-.112.44-.18.819-.12 1.159.141a.68.68 0 0 0 .704.035c.254-.13.484-.184.725-.144.241.04.483.228.7.453.216.225.494.261.75.253a1.06 1.06 0 0 1 .793.301c.16.161.246.448.292.663.088.417.243.491.452.58l.02.008c.219.092.685.288.756.878.038.31-.07.513-.164.69-.065.124-.125.236-.125.365 0 .145.062.269.128.402.078.156.161.324.161.554 0 .215-.074.36-.147.504a.935.935 0 0 0-.105.466c0 .528.496.742.176 1.422-.125.223-.324.455-.117.86.33.641.193.955 0 1.268-.171.28-.081.457-.02.577l.02.041.005.009c.06.13.252.54.142.909-.212.649-.775.712-1.054.728H10.31Z"/><path fill="url(#paint54_radial_4002_2845)" d="M10.31 14.155c-.278-.016-.842-.08-1.054-.728-.11-.37.082-.779.143-.91a1.317 1.317 0 0 1 .024-.05c.061-.12.152-.296-.02-.576-.193-.313-.375-.615-.045-1.257.207-.405.093-.652-.032-.875-.183-.327-.166-.604 0-.938.07-.143.173-.275.173-.472 0-.198-.07-.335-.141-.474-.074-.143-.148-.289-.148-.504 0-.23.084-.398.161-.554.066-.133.128-.257.128-.402 0-.129-.06-.24-.125-.364-.094-.178-.201-.38-.164-.69.071-.59.537-.787.756-.879l.02-.008c.21-.089.364-.163.452-.58.046-.215.132-.502.293-.663a1.06 1.06 0 0 1 .791-.3c.257.007.535-.03.752-.254.217-.225.458-.413.699-.453.24-.04.471.014.725.144.281.145.567.07.705-.035.34-.262.718-.32 1.158-.141.18.072.295.112.394.112.098 0 .214-.04.393-.112.44-.18.819-.12 1.159.141a.68.68 0 0 0 .704.035c.254-.13.484-.184.725-.144.241.04.483.228.7.453.216.225.494.261.75.253a1.06 1.06 0 0 1 .793.301c.16.161.246.448.292.663.088.417.243.491.452.58l.02.008c.219.092.685.288.756.878.038.31-.07.513-.164.69-.065.124-.125.236-.125.365 0 .145.062.269.128.402.078.156.161.324.161.554 0 .215-.074.36-.147.504a.935.935 0 0 0-.105.466c0 .528.496.742.176 1.422-.125.223-.324.455-.117.86.33.641.193.955 0 1.268-.171.28-.081.457-.02.577l.02.041.005.009c.06.13.252.54.142.909-.212.649-.775.712-1.054.728H10.31Z"/><path fill="url(#paint55_linear_4002_2845)" d="M10.31 14.155c-.278-.016-.842-.08-1.054-.728-.11-.37.082-.779.143-.91a1.317 1.317 0 0 1 .024-.05c.061-.12.152-.296-.02-.576-.193-.313-.375-.615-.045-1.257.207-.405.093-.652-.032-.875-.183-.327-.166-.604 0-.938.07-.143.173-.275.173-.472 0-.198-.07-.335-.141-.474-.074-.143-.148-.289-.148-.504 0-.23.084-.398.161-.554.066-.133.128-.257.128-.402 0-.129-.06-.24-.125-.364-.094-.178-.201-.38-.164-.69.071-.59.537-.787.756-.879l.02-.008c.21-.089.364-.163.452-.58.046-.215.132-.502.293-.663a1.06 1.06 0 0 1 .791-.3c.257.007.535-.03.752-.254.217-.225.458-.413.699-.453.24-.04.471.014.725.144.281.145.567.07.705-.035.34-.262.718-.32 1.158-.141.18.072.295.112.394.112.098 0 .214-.04.393-.112.44-.18.819-.12 1.159.141a.68.68 0 0 0 .704.035c.254-.13.484-.184.725-.144.241.04.483.228.7.453.216.225.494.261.75.253a1.06 1.06 0 0 1 .793.301c.16.161.246.448.292.663.088.417.243.491.452.58l.02.008c.219.092.685.288.756.878.038.31-.07.513-.164.69-.065.124-.125.236-.125.365 0 .145.062.269.128.402.078.156.161.324.161.554 0 .215-.074.36-.147.504a.935.935 0 0 0-.105.466c0 .528.496.742.176 1.422-.125.223-.324.455-.117.86.33.641.193.955 0 1.268-.171.28-.081.457-.02.577l.02.041.005.009c.06.13.252.54.142.909-.212.649-.775.712-1.054.728H10.31Z"/><g filter="url(#filter22_i_4002_2845)"><path fill="url(#paint56_linear_4002_2845)" d="m10.5 14.155.12 3.519c.082 2.424 2.07 4.378 4.497 4.378h1.677c2.44 0 4.436-1.976 4.498-4.416l.09-3.48h-.909l-.12 3.48c-.049 1.898-1.661 3.486-3.56 3.486h-1.676c-1.887 0-3.489-1.597-3.553-3.482l-.09-3.485H10.5Z"/><path fill="url(#paint57_linear_4002_2845)" d="m10.5 14.155.12 3.519c.082 2.424 2.07 4.378 4.497 4.378h1.677c2.44 0 4.436-1.976 4.498-4.416l.09-3.48h-.909l-.12 3.48c-.049 1.898-1.661 3.486-3.56 3.486h-1.676c-1.887 0-3.489-1.597-3.553-3.482l-.09-3.485H10.5Z"/><path fill="url(#paint58_radial_4002_2845)" d="m10.5 14.155.12 3.519c.082 2.424 2.07 4.378 4.497 4.378h1.677c2.44 0 4.436-1.976 4.498-4.416l.09-3.48h-.909l-.12 3.48c-.049 1.898-1.661 3.486-3.56 3.486h-1.676c-1.887 0-3.489-1.597-3.553-3.482l-.09-3.485H10.5Z"/></g><defs><radialGradient id="paint0_radial_4002_2845" cx="0" cy="0" r="1" gradientTransform="matrix(0 7.71875 -19.3424 0 16 26.99)" gradientUnits="userSpaceOnUse"><stop offset=".315" stop-color="#F73C71"/><stop offset="1" stop-color="#D6274F"/></radialGradient><radialGradient id="paint1_radial_4002_2845" cx="0" cy="0" r="1" gradientTransform="matrix(-2.6875 0 0 -8.81836 22.928 27.146)" gradientUnits="userSpaceOnUse"><stop offset=".24" stop-color="#FF6085"/><stop offset="1" stop-color="#FF6085" stop-opacity="0"/></radialGradient><radialGradient id="paint4_radial_4002_2845" cx="0" cy="0" r="1" gradientTransform="matrix(1.96876 -8.07812 2.82155 .68765 6.74 29.911)" gradientUnits="userSpaceOnUse"><stop offset=".232" stop-color="#E43669"/><stop offset="1" stop-color="#B13B50"/></radialGradient><radialGradient id="paint6_radial_4002_2845" cx="0" cy="0" r="1" gradientTransform="rotate(-101.449 24.978 4.727) scale(7.55662 1.96679)" gradientUnits="userSpaceOnUse"><stop stop-color="#FF5C85"/><stop offset="1" stop-color="#E34C67"/></radialGradient><radialGradient id="paint7_radial_4002_2845" cx="0" cy="0" r="1" gradientTransform="matrix(0 -11.366 .65507 0 22.942 29.911)" gradientUnits="userSpaceOnUse"><stop offset=".443" stop-color="#E11C59"/><stop offset="1" stop-color="#EE5076" stop-opacity="0"/></radialGradient><radialGradient id="paint8_radial_4002_2845" cx="0" cy="0" r="1" gradientTransform="matrix(1.35937 1.64062 -3.29137 2.72714 9.71 21.208)" gradientUnits="userSpaceOnUse"><stop stop-color="#454048"/><stop offset="1" stop-color="#382834"/></radialGradient><radialGradient id="paint9_radial_4002_2845" cx="0" cy="0" r="1" gradientTransform="matrix(1.78125 1.85937 -.47826 .45816 8.381 22.458)" gradientUnits="userSpaceOnUse"><stop offset=".435" stop-color="#4B4551"/><stop offset="1" stop-color="#4B4551" stop-opacity="0"/></radialGradient><radialGradient id="paint10_radial_4002_2845" cx="0" cy="0" r="1" gradientTransform="matrix(1.3125 .25 -.73637 3.86594 19.569 21.146)" gradientUnits="userSpaceOnUse"><stop offset=".032" stop-color="#513F4E"/><stop offset="1" stop-color="#513F4E" stop-opacity="0"/></radialGradient><radialGradient id="paint11_radial_4002_2845" cx="0" cy="0" r="1" gradientTransform="rotate(138.094 7.499 15.6) scale(1.63757 .24529)" gradientUnits="userSpaceOnUse"><stop stop-color="#5E5864"/><stop offset="1" stop-color="#5E5864" stop-opacity="0"/></radialGradient><radialGradient id="paint12_radial_4002_2845" cx="0" cy="0" r="1" gradientTransform="rotate(-169.136 6.388 10.772) scale(1.64141 .91814)" gradientUnits="userSpaceOnUse"><stop offset=".525" stop-color="#CC981A"/><stop offset="1" stop-color="#DCB144"/></radialGradient><radialGradient id="paint13_radial_4002_2845" cx="0" cy="0" r="1" gradientTransform="matrix(.678 .80592 -1.4278 1.20118 .1 .257)" gradientUnits="userSpaceOnUse"><stop stop-color="#FFFF50"/><stop offset="1" stop-color="#F6CF1C"/></radialGradient><radialGradient id="paint14_radial_4002_2845" cx="0" cy="0" r="1" gradientTransform="matrix(-2.68749 -3.76563 4.9287 -3.51755 18.1 23.911)" gradientUnits="userSpaceOnUse"><stop stop-color="#5D4364"/><stop offset="1" stop-color="#482949"/></radialGradient><radialGradient id="paint15_radial_4002_2845" cx="0" cy="0" r="1" gradientTransform="matrix(-.39844 0 0 -.91123 15.538 23.763)" gradientUnits="userSpaceOnUse"><stop offset=".244" stop-color="#4A2E4F"/><stop offset="1" stop-color="#4A2E4F" stop-opacity="0"/></radialGradient><radialGradient id="paint16_radial_4002_2845" cx="0" cy="0" r="1" gradientTransform="rotate(112.38 -.17 15.586) scale(1.14905 2.6882)" gradientUnits="userSpaceOnUse"><stop stop-color="#452139"/><stop offset="1" stop-color="#452139" stop-opacity="0"/></radialGradient><radialGradient id="paint17_radial_4002_2845" cx="0" cy="0" r="1" gradientTransform="matrix(1.0625 1.35937 -2.23489 1.7468 15.678 22.02)" gradientUnits="userSpaceOnUse"><stop stop-color="#955268"/><stop offset="1" stop-color="#AC7879"/></radialGradient><radialGradient id="paint20_radial_4002_2845" cx="0" cy="0" r="1" gradientTransform="matrix(-.71875 .59375 -.75915 -.91896 17.85 25.161)" gradientUnits="userSpaceOnUse"><stop stop-color="#FFF153"/><stop offset="1" stop-color="#FCA239"/></radialGradient><radialGradient id="paint21_radial_4002_2845" cx="0" cy="0" r="1" gradientTransform="matrix(-.71875 .59375 -.75915 -.91896 17.85 28.161)" gradientUnits="userSpaceOnUse"><stop stop-color="#FFF153"/><stop offset="1" stop-color="#FCA239"/></radialGradient><radialGradient id="paint22_radial_4002_2845" cx="0" cy="0" r="1" gradientTransform="matrix(1.75472 0 0 3.07077 9.574 15.262)" gradientUnits="userSpaceOnUse"><stop offset=".351" stop-color="#865D5F"/><stop offset="1" stop-color="#76594A"/></radialGradient><radialGradient id="paint23_radial_4002_2845" cx="0" cy="0" r="1" gradientTransform="rotate(-124.98 10.03 5.538) scale(1.6566)" gradientUnits="userSpaceOnUse"><stop offset=".34" stop-color="#834E63"/><stop offset="1" stop-color="#834E63" stop-opacity="0"/></radialGradient><radialGradient id="paint26_radial_4002_2845" cx="0" cy="0" r="1" gradientTransform="matrix(.82663 -.60192 .68701 .9435 21.128 14.997)" gradientUnits="userSpaceOnUse"><stop offset=".543" stop-color="#8F6459"/><stop offset="1" stop-color="#8F6459" stop-opacity="0"/></radialGradient><radialGradient id="paint27_radial_4002_2845" cx="0" cy="0" r="1" gradientTransform="matrix(.8212 -1.5104 .88405 .48065 20.715 16.083)" gradientUnits="userSpaceOnUse"><stop offset=".755" stop-color="#8A5D55" stop-opacity="0"/><stop offset=".916" stop-color="#8A5D55"/></radialGradient><radialGradient id="paint28_radial_4002_2845" cx="0" cy="0" r="1" gradientTransform="rotate(44.707 -8.179 32.868) scale(.3648 .47028)" gradientUnits="userSpaceOnUse"><stop stop-color="#895F52"/><stop offset="1" stop-color="#895F52" stop-opacity="0"/></radialGradient><radialGradient id="paint29_radial_4002_2845" cx="0" cy="0" r="1" gradientTransform="rotate(179.1 9.729 8.832) scale(6.0722 6.32398)" gradientUnits="userSpaceOnUse"><stop stop-color="#C69980"/><stop offset=".96" stop-color="#916762"/></radialGradient><radialGradient id="paint30_radial_4002_2845" cx="0" cy="0" r="1" gradientTransform="matrix(0 7.21875 -10.5193 0 16.02 14.231)" gradientUnits="userSpaceOnUse"><stop offset=".823" stop-color="#A26381" stop-opacity="0"/><stop offset="1" stop-color="#A26381"/></radialGradient><radialGradient id="paint31_radial_4002_2845" cx="0" cy="0" r="1" gradientTransform="matrix(0 -1.30697 1.60858 0 18.337 13.99)" gradientUnits="userSpaceOnUse"><stop stop-color="#AB7773"/><stop offset="1" stop-color="#AB7773" stop-opacity="0"/></radialGradient><radialGradient id="paint32_radial_4002_2845" cx="0" cy="0" r="1" gradientTransform="matrix(0 -1.37399 1.70868 0 13.78 14.125)" gradientUnits="userSpaceOnUse"><stop stop-color="#8F5D65"/><stop offset="1" stop-color="#8F5D65" stop-opacity="0"/></radialGradient><radialGradient id="paint34_radial_4002_2845" cx="0" cy="0" r="1" gradientTransform="rotate(-74.899 17.425 -7.664) scale(3.06211 1.13553)" gradientUnits="userSpaceOnUse"><stop stop-color="#554042"/><stop offset="1" stop-color="#554042" stop-opacity="0"/></radialGradient><radialGradient id="paint35_radial_4002_2845" cx="0" cy="0" r="1" gradientTransform="rotate(5.258 -93 207.71) scale(3.84067 2.0651)" gradientUnits="userSpaceOnUse"><stop offset=".392" stop-color="#644949"/><stop offset="1" stop-color="#644949" stop-opacity="0"/></radialGradient><radialGradient id="paint36_radial_4002_2845" cx="0" cy="0" r="1" gradientTransform="matrix(0 1.67903 -2.60035 0 15.94 6.661)" gradientUnits="userSpaceOnUse"><stop stop-color="#624C49"/><stop offset="1" stop-color="#624C49" stop-opacity="0"/></radialGradient><radialGradient id="paint37_radial_4002_2845" cx="0" cy="0" r="1" gradientTransform="matrix(3.07368 -2.25248 3.5289 4.81545 9.492 13.479)" gradientUnits="userSpaceOnUse"><stop stop-color="#4E3C3A"/><stop offset="1" stop-color="#4E3C3A" stop-opacity="0"/></radialGradient><radialGradient id="paint41_radial_4002_2845" cx="0" cy="0" r="1" gradientTransform="matrix(0 .19688 -.63254 0 16.319 16.869)" gradientUnits="userSpaceOnUse"><stop stop-color="#C39787"/><stop offset="1" stop-color="#C39787" stop-opacity="0"/></radialGradient><radialGradient id="paint45_radial_4002_2845" cx="0" cy="0" r="1" gradientTransform="matrix(0 .81106 -1.29009 0 18.17 14.58)" gradientUnits="userSpaceOnUse"><stop offset=".802" stop-color="#7D574A"/><stop offset="1" stop-color="#694B43"/><stop offset="1" stop-color="#804D49"/><stop offset="1" stop-color="#664944"/></radialGradient><radialGradient id="paint46_radial_4002_2845" cx="0" cy="0" r="1" gradientTransform="matrix(-.23184 -.29876 .41132 -.3192 17.942 14.664)" gradientUnits="userSpaceOnUse"><stop offset=".766" stop-color="#FFE6E2" stop-opacity="0"/><stop offset=".966" stop-color="#FFE6E2"/></radialGradient><radialGradient id="paint48_radial_4002_2845" cx="0" cy="0" r="1" gradientTransform="matrix(0 .8111 -1.29015 0 13.807 14.58)" gradientUnits="userSpaceOnUse"><stop offset=".802" stop-color="#7D574A"/><stop offset="1" stop-color="#694B43"/><stop offset="1" stop-color="#804D49"/><stop offset="1" stop-color="#664944"/></radialGradient><radialGradient id="paint50_radial_4002_2845" cx="0" cy="0" r="1" gradientTransform="rotate(-90.897 14.045 .744) scale(.49399 .59379)" gradientUnits="userSpaceOnUse"><stop offset=".766" stop-color="#FFE6E2" stop-opacity="0"/><stop offset=".966" stop-color="#FFE6E2"/></radialGradient><radialGradient id="paint53_radial_4002_2845" cx="0" cy="0" r="1" gradientTransform="matrix(0 -12.3535 18.2706 0 15.953 14.155)" gradientUnits="userSpaceOnUse"><stop offset=".775" stop-color="#403947" stop-opacity="0"/><stop offset="1" stop-color="#403947"/></radialGradient><radialGradient id="paint54_radial_4002_2845" cx="0" cy="0" r="1" gradientTransform="rotate(-179.736 10.798 2.33) scale(6.78132 1.9151)" gradientUnits="userSpaceOnUse"><stop stop-color="#686070"/><stop offset="1" stop-color="#686070" stop-opacity="0"/></radialGradient><radialGradient id="paint58_radial_4002_2845" cx="0" cy="0" r="1" gradientTransform="matrix(0 1.46875 -.51569 0 21.381 16.27)" gradientUnits="userSpaceOnUse"><stop stop-color="#F6DCF7"/><stop offset="1" stop-color="#F6DCF7" stop-opacity="0"/></radialGradient><filter id="filter0_i_4002_2845" width="4.755" height="3.491" x="8.464" y="20.061" color-interpolation-filters="sRGB" filterUnits="userSpaceOnUse"><feFlood flood-opacity="0" result="BackgroundImageFix"/><feBlend in="SourceGraphic" in2="BackgroundImageFix" result="shape"/><feColorMatrix in="SourceAlpha" result="hardAlpha" values="0 0 0 0 0 0 0 0 0 0 0 0 0 0 0 0 0 0 127 0"/><feOffset dx="-.25" dy="-.1"/><feGaussianBlur stdDeviation=".075"/><feComposite in2="hardAlpha" k2="-1" k3="1" operator="arithmetic"/><feColorMatrix values="0 0 0 0 0.262745 0 0 0 0 0.172549 0 0 0 0 0.309804 0 0 0 1 0"/><feBlend in2="shape" result="effect1_innerShadow_4002_2845"/></filter><filter id="filter1_ii_4002_2845" width="4.705" height="3.591" x="18.753" y="19.961" color-interpolation-filters="sRGB" filterUnits="userSpaceOnUse"><feFlood flood-opacity="0" result="BackgroundImageFix"/><feBlend in="SourceGraphic" in2="BackgroundImageFix" result="shape"/><feColorMatrix in="SourceAlpha" result="hardAlpha" values="0 0 0 0 0 0 0 0 0 0 0 0 0 0 0 0 0 0 127 0"/><feOffset dx=".1" dy="-.2"/><feGaussianBlur stdDeviation=".15"/><feComposite in2="hardAlpha" k2="-1" k3="1" operator="arithmetic"/><feColorMatrix values="0 0 0 0 0.270588 0 0 0 0 0.172549 0 0 0 0 0.309804 0 0 0 1 0"/><feBlend in2="shape" result="effect1_innerShadow_4002_2845"/><feColorMatrix in="SourceAlpha" result="hardAlpha" values="0 0 0 0 0 0 0 0 0 0 0 0 0 0 0 0 0 0 127 0"/><feOffset dx=".1" dy="-.05"/><feGaussianBlur stdDeviation=".05"/><feComposite in2="hardAlpha" k2="-1" k3="1" operator="arithmetic"/><feColorMatrix values="0 0 0 0 0.266667 0 0 0 0 0.0666667 0 0 0 0 0.219608 0 0 0 1 0"/><feBlend in2="effect1_innerShadow_4002_2845" result="effect2_innerShadow_4002_2845"/></filter><filter id="filter2_f_4002_2845" width="2.189" height="2.153" x="8.842" y="21.167" color-interpolation-filters="sRGB" filterUnits="userSpaceOnUse"><feFlood flood-opacity="0" result="BackgroundImageFix"/><feBlend in="SourceGraphic" in2="BackgroundImageFix" result="shape"/><feGaussianBlur result="effect1_foregroundBlur_4002_2845" stdDeviation=".25"/></filter><filter id="filter3_f_4002_2845" width="1.692" height="1.595" x="21.111" y="21.394" color-interpolation-filters="sRGB" filterUnits="userSpaceOnUse"><feFlood flood-opacity="0" result="BackgroundImageFix"/><feBlend in="SourceGraphic" in2="BackgroundImageFix" result="shape"/><feGaussianBlur result="effect1_foregroundBlur_4002_2845" stdDeviation=".125"/></filter><filter id="filter4_iii_4002_2845" width="7.744" height="9.694" x="12.072" y="14.827" color-interpolation-filters="sRGB" filterUnits="userSpaceOnUse"><feFlood flood-opacity="0" result="BackgroundImageFix"/><feBlend in="SourceGraphic" in2="BackgroundImageFix" result="shape"/><feColorMatrix in="SourceAlpha" result="hardAlpha" values="0 0 0 0 0 0 0 0 0 0 0 0 0 0 0 0 0 0 127 0"/><feOffset dx="-.1" dy="-.1"/><feGaussianBlur stdDeviation=".075"/><feComposite in2="hardAlpha" k2="-1" k3="1" operator="arithmetic"/><feColorMatrix values="0 0 0 0 0.439216 0 0 0 0 0.384314 0 0 0 0 0.47451 0 0 0 1 0"/><feBlend in2="shape" result="effect1_innerShadow_4002_2845"/><feColorMatrix in="SourceAlpha" result="hardAlpha" values="0 0 0 0 0 0 0 0 0 0 0 0 0 0 0 0 0 0 127 0"/><feOffset dx=".05" dy="-.1"/><feGaussianBlur stdDeviation=".075"/><feComposite in2="hardAlpha" k2="-1" k3="1" operator="arithmetic"/><feColorMatrix values="0 0 0 0 0.439216 0 0 0 0 0.384314 0 0 0 0 0.47451 0 0 0 1 0"/><feBlend in2="effect1_innerShadow_4002_2845" result="effect2_innerShadow_4002_2845"/><feColorMatrix in="SourceAlpha" result="hardAlpha" values="0 0 0 0 0 0 0 0 0 0 0 0 0 0 0 0 0 0 127 0"/><feOffset dy="-.1"/><feGaussianBlur stdDeviation=".05"/><feComposite in2="hardAlpha" k2="-1" k3="1" operator="arithmetic"/><feColorMatrix values="0 0 0 0 0.329412 0 0 0 0 0.172549 0 0 0 0 0.372549 0 0 0 1 0"/><feBlend in2="effect2_innerShadow_4002_2845" result="effect3_innerShadow_4002_2845"/></filter><filter id="filter5_f_4002_2845" width="2.09" height="2.09" x="16.395" y="24.4" color-interpolation-filters="sRGB" filterUnits="userSpaceOnUse"><feFlood flood-opacity="0" result="BackgroundImageFix"/><feBlend in="SourceGraphic" in2="BackgroundImageFix" result="shape"/><feGaussianBlur result="effect1_foregroundBlur_4002_2845" stdDeviation=".25"/></filter><filter id="filter6_f_4002_2845" width="2.09" height="2.09" x="16.395" y="27.4" color-interpolation-filters="sRGB" filterUnits="userSpaceOnUse"><feFlood flood-opacity="0" result="BackgroundImageFix"/><feBlend in="SourceGraphic" in2="BackgroundImageFix" result="shape"/><feGaussianBlur result="effect1_foregroundBlur_4002_2845" stdDeviation=".25"/></filter><filter id="filter7_i_4002_2845" width="3.539" height="3.339" x="9.574" y="13.592" color-interpolation-filters="sRGB" filterUnits="userSpaceOnUse"><feFlood flood-opacity="0" result="BackgroundImageFix"/><feBlend in="SourceGraphic" in2="BackgroundImageFix" result="shape"/><feColorMatrix in="SourceAlpha" result="hardAlpha" values="0 0 0 0 0 0 0 0 0 0 0 0 0 0 0 0 0 0 127 0"/><feOffset dx=".2"/><feGaussianBlur stdDeviation=".15"/><feComposite in2="hardAlpha" k2="-1" k3="1" operator="arithmetic"/><feColorMatrix values="0 0 0 0 0.619608 0 0 0 0 0.470588 0 0 0 0 0.407843 0 0 0 1 0"/><feBlend in2="shape" result="effect1_innerShadow_4002_2845"/></filter><filter id="filter8_f_4002_2845" width="2.99" height="2.99" x="9.749" y="13.767" color-interpolation-filters="sRGB" filterUnits="userSpaceOnUse"><feFlood flood-opacity="0" result="BackgroundImageFix"/><feBlend in="SourceGraphic" in2="BackgroundImageFix" result="shape"/><feGaussianBlur result="effect1_foregroundBlur_4002_2845" stdDeviation=".25"/></filter><filter id="filter9_i_4002_2845" width="3.589" height="3.589" x="19.087" y="13.342" color-interpolation-filters="sRGB" filterUnits="userSpaceOnUse"><feFlood flood-opacity="0" result="BackgroundImageFix"/><feBlend in="SourceGraphic" in2="BackgroundImageFix" result="shape"/><feColorMatrix in="SourceAlpha" result="hardAlpha" values="0 0 0 0 0 0 0 0 0 0 0 0 0 0 0 0 0 0 127 0"/><feOffset dx=".25" dy="-.25"/><feGaussianBlur stdDeviation=".25"/><feComposite in2="hardAlpha" k2="-1" k3="1" operator="arithmetic"/><feColorMatrix values="0 0 0 0 0.584314 0 0 0 0 0.368627 0 0 0 0 0.470588 0 0 0 1 0"/><feBlend in2="shape" result="effect1_innerShadow_4002_2845"/></filter><filter id="filter10_f_4002_2845" width="2.99" height="2.99" x="19.261" y="13.767" color-interpolation-filters="sRGB" filterUnits="userSpaceOnUse"><feFlood flood-opacity="0" result="BackgroundImageFix"/><feBlend in="SourceGraphic" in2="BackgroundImageFix" result="shape"/><feGaussianBlur result="effect1_foregroundBlur_4002_2845" stdDeviation=".25"/></filter><filter id="filter11_ii_4002_2845" width="10.973" height="12.627" x="10.234" y="9.038" color-interpolation-filters="sRGB" filterUnits="userSpaceOnUse"><feFlood flood-opacity="0" result="BackgroundImageFix"/><feBlend in="SourceGraphic" in2="BackgroundImageFix" result="shape"/><feColorMatrix in="SourceAlpha" result="hardAlpha" values="0 0 0 0 0 0 0 0 0 0 0 0 0 0 0 0 0 0 127 0"/><feOffset dx="-.65" dy="-.65"/><feGaussianBlur stdDeviation=".3"/><feComposite in2="hardAlpha" k2="-1" k3="1" operator="arithmetic"/><feColorMatrix values="0 0 0 0 0.458824 0 0 0 0 0.262745 0 0 0 0 0.286275 0 0 0 1 0"/><feBlend in2="shape" result="effect1_innerShadow_4002_2845"/><feColorMatrix in="SourceAlpha" result="hardAlpha" values="0 0 0 0 0 0 0 0 0 0 0 0 0 0 0 0 0 0 127 0"/><feOffset dy="-.3"/><feGaussianBlur stdDeviation=".3"/><feComposite in2="hardAlpha" k2="-1" k3="1" operator="arithmetic"/><feColorMatrix values="0 0 0 0 0.623529 0 0 0 0 0.294118 0 0 0 0 0.458824 0 0 0 1 0"/><feBlend in2="effect1_innerShadow_4002_2845" result="effect2_innerShadow_4002_2845"/></filter><filter id="filter12_i_4002_2845" width="12.601" height="8.543" x="9.64" y="6.161" color-interpolation-filters="sRGB" filterUnits="userSpaceOnUse"><feFlood flood-opacity="0" result="BackgroundImageFix"/><feBlend in="SourceGraphic" in2="BackgroundImageFix" result="shape"/><feColorMatrix in="SourceAlpha" result="hardAlpha" values="0 0 0 0 0 0 0 0 0 0 0 0 0 0 0 0 0 0 127 0"/><feOffset dy="-.5"/><feGaussianBlur stdDeviation=".375"/><feComposite in2="hardAlpha" k2="-1" k3="1" operator="arithmetic"/><feColorMatrix values="0 0 0 0 0.207843 0 0 0 0 0.109804 0 0 0 0 0.109804 0 0 0 1 0"/><feBlend in2="shape" result="effect1_innerShadow_4002_2845"/></filter><filter id="filter13_f_4002_2845" width="3.26" height="4.181" x="14.122" y="14.108" color-interpolation-filters="sRGB" filterUnits="userSpaceOnUse"><feFlood flood-opacity="0" result="BackgroundImageFix"/><feBlend in="SourceGraphic" in2="BackgroundImageFix" result="shape"/><feGaussianBlur result="effect1_foregroundBlur_4002_2845" stdDeviation=".375"/></filter><filter id="filter14_f_4002_2845" width="2.377" height="3.181" x="14.803" y="14.445" color-interpolation-filters="sRGB" filterUnits="userSpaceOnUse"><feFlood flood-opacity="0" result="BackgroundImageFix"/><feBlend in="SourceGraphic" in2="BackgroundImageFix" result="shape"/><feGaussianBlur result="effect1_foregroundBlur_4002_2845" stdDeviation=".125"/></filter><filter id="filter15_f_4002_2845" width="2.377" height="3.181" x="14.803" y="14.281" color-interpolation-filters="sRGB" filterUnits="userSpaceOnUse"><feFlood flood-opacity="0" result="BackgroundImageFix"/><feBlend in="SourceGraphic" in2="BackgroundImageFix" result="shape"/><feGaussianBlur result="effect1_foregroundBlur_4002_2845" stdDeviation=".125"/></filter><filter id="filter16_f_4002_2845" width="3.617" height="1.472" x="14.183" y="17.846" color-interpolation-filters="sRGB" filterUnits="userSpaceOnUse"><feFlood flood-opacity="0" result="BackgroundImageFix"/><feBlend in="SourceGraphic" in2="BackgroundImageFix" result="shape"/><feGaussianBlur result="effect1_foregroundBlur_4002_2845" stdDeviation=".05"/></filter><filter id="filter17_f_4002_2845" width=".787" height=".696" x="17.436" y="14.14" color-interpolation-filters="sRGB" filterUnits="userSpaceOnUse"><feFlood flood-opacity="0" result="BackgroundImageFix"/><feBlend in="SourceGraphic" in2="BackgroundImageFix" result="shape"/><feGaussianBlur result="effect1_foregroundBlur_4002_2845" stdDeviation=".05"/></filter><filter id="filter18_f_4002_2845" width=".891" height=".913" x="18.276" y="14.215" color-interpolation-filters="sRGB" filterUnits="userSpaceOnUse"><feFlood flood-opacity="0" result="BackgroundImageFix"/><feBlend in="SourceGraphic" in2="BackgroundImageFix" result="shape"/><feGaussianBlur result="effect1_foregroundBlur_4002_2845" stdDeviation=".1"/></filter><filter id="filter19_f_4002_2845" width=".986" height="1.04" x="13.834" y="14.152" color-interpolation-filters="sRGB" filterUnits="userSpaceOnUse"><feFlood flood-opacity="0" result="BackgroundImageFix"/><feBlend in="SourceGraphic" in2="BackgroundImageFix" result="shape"/><feGaussianBlur result="effect1_foregroundBlur_4002_2845" stdDeviation=".1"/></filter><filter id="filter20_f_4002_2845" width=".913" height=".704" x="13.08" y="14.132" color-interpolation-filters="sRGB" filterUnits="userSpaceOnUse"><feFlood flood-opacity="0" result="BackgroundImageFix"/><feBlend in="SourceGraphic" in2="BackgroundImageFix" result="shape"/><feGaussianBlur result="effect1_foregroundBlur_4002_2845" stdDeviation=".05"/></filter><filter id="filter21_i_4002_2845" width="13.655" height="12.317" x="9.076" y="1.839" color-interpolation-filters="sRGB" filterUnits="userSpaceOnUse"><feFlood flood-opacity="0" result="BackgroundImageFix"/><feBlend in="SourceGraphic" in2="BackgroundImageFix" result="shape"/><feColorMatrix in="SourceAlpha" result="hardAlpha" values="0 0 0 0 0 0 0 0 0 0 0 0 0 0 0 0 0 0 127 0"/><feOffset dx="-.1" dy="-.25"/><feGaussianBlur stdDeviation=".25"/><feComposite in2="hardAlpha" k2="-1" k3="1" operator="arithmetic"/><feColorMatrix values="0 0 0 0 0.282353 0 0 0 0 0.203922 0 0 0 0 0.364706 0 0 0 1 0"/><feBlend in2="shape" result="effect1_innerShadow_4002_2845"/></filter><filter id="filter22_i_4002_2845" width="10.882" height="7.996" x="10.499" y="14.056" color-interpolation-filters="sRGB" filterUnits="userSpaceOnUse"><feFlood flood-opacity="0" result="BackgroundImageFix"/><feBlend in="SourceGraphic" in2="BackgroundImageFix" result="shape"/><feColorMatrix in="SourceAlpha" result="hardAlpha" values="0 0 0 0 0 0 0 0 0 0 0 0 0 0 0 0 0 0 127 0"/><feOffset dy="-.1"/><feGaussianBlur stdDeviation=".1"/><feComposite in2="hardAlpha" k2="-1" k3="1" operator="arithmetic"/><feColorMatrix values="0 0 0 0 0.803922 0 0 0 0 0.635294 0 0 0 0 0.886275 0 0 0 1 0"/><feBlend in2="shape" result="effect1_innerShadow_4002_2845"/></filter><linearGradient id="paint2_linear_4002_2845" x1="9.026" x2="9.233" y1="29.911" y2="29.911" gradientUnits="userSpaceOnUse"><stop stop-color="#C2254A"/><stop offset="1" stop-color="#C2254A" stop-opacity="0"/></linearGradient><linearGradient id="paint3_linear_4002_2845" x1="22.975" x2="22.827" y1="29.911" y2="29.911" gradientUnits="userSpaceOnUse"><stop offset=".118" stop-color="#FC356B"/><stop offset="1" stop-color="#FC356B" stop-opacity="0"/></linearGradient><linearGradient id="paint5_linear_4002_2845" x1="9.397" x2="8.084" y1="29.739" y2="29.739" gradientUnits="userSpaceOnUse"><stop stop-color="#AC394E"/><stop offset="1" stop-color="#C9345B" stop-opacity="0"/></linearGradient><linearGradient id="paint18_linear_4002_2845" x1="15.984" x2="15.984" y1="23.197" y2="29.911" gradientUnits="userSpaceOnUse"><stop stop-color="#DBB8DD"/><stop offset="1" stop-color="#D8BBEB"/></linearGradient><linearGradient id="paint19_linear_4002_2845" x1="16.479" x2="16.147" y1="27.271" y2="27.271" gradientUnits="userSpaceOnUse"><stop stop-color="#EACCEB"/><stop offset="1" stop-color="#EACCEB" stop-opacity="0"/></linearGradient><linearGradient id="paint24_linear_4002_2845" x1="11.244" x2="10.603" y1="15.541" y2="15.541" gradientUnits="userSpaceOnUse"><stop stop-color="#694448"/><stop offset="1" stop-color="#6E464D"/></linearGradient><linearGradient id="paint25_linear_4002_2845" x1="21.843" x2="21.024" y1="14.17" y2="16.706" gradientUnits="userSpaceOnUse"><stop stop-color="#CCA68C"/><stop offset="1" stop-color="#AE7F75"/></linearGradient><linearGradient id="paint33_linear_4002_2845" x1="16.02" x2="16.02" y1="14.044" y2="15.137" gradientUnits="userSpaceOnUse"><stop stop-color="#7F4C55"/><stop offset="1" stop-color="#7F4C55" stop-opacity="0"/></linearGradient><linearGradient id="paint38_linear_4002_2845" x1="15.127" x2="16.065" y1="16.311" y2="16.311" gradientUnits="userSpaceOnUse"><stop stop-color="#8B6455"/><stop offset="1" stop-color="#8B6455" stop-opacity="0"/></linearGradient><linearGradient id="paint39_linear_4002_2845" x1="16.93" x2="15.904" y1="16.633" y2="16.619" gradientUnits="userSpaceOnUse"><stop stop-color="#CDA186"/><stop offset="1" stop-color="#CDA186" stop-opacity="0"/></linearGradient><linearGradient id="paint40_linear_4002_2845" x1="16.186" x2="16.186" y1="17.375" y2="16.803" gradientUnits="userSpaceOnUse"><stop stop-color="#9C6073"/><stop offset="1" stop-color="#9C6073" stop-opacity="0"/></linearGradient><linearGradient id="paint42_linear_4002_2845" x1="15.991" x2="16.282" y1="14.531" y2="16.177" gradientUnits="userSpaceOnUse"><stop stop-color="#8B5D5E"/><stop offset="1" stop-color="#8B5D5E" stop-opacity="0"/></linearGradient><linearGradient id="paint43_linear_4002_2845" x1="14.954" x2="15.389" y1="18.99" y2="18.303" gradientUnits="userSpaceOnUse"><stop stop-color="#A87D7B"/><stop offset=".663" stop-color="#A87D7B" stop-opacity="0"/></linearGradient><linearGradient id="paint44_linear_4002_2845" x1="14.954" x2="15.389" y1="18.99" y2="18.303" gradientUnits="userSpaceOnUse"><stop stop-color="#A87D7B"/><stop offset=".663" stop-color="#A87D7B" stop-opacity="0"/></linearGradient><linearGradient id="paint47_linear_4002_2845" x1="18.948" x2="18.634" y1="14.634" y2="14.827" gradientUnits="userSpaceOnUse"><stop stop-color="#B4948D"/><stop offset="1" stop-color="#B4948D" stop-opacity="0"/></linearGradient><linearGradient id="paint49_linear_4002_2845" x1="14.551" x2="14.237" y1="14.634" y2="14.827" gradientUnits="userSpaceOnUse"><stop stop-color="#B4948D"/><stop offset="1" stop-color="#B4948D" stop-opacity="0"/></linearGradient><linearGradient id="paint51_linear_4002_2845" x1="19.866" x2="12.584" y1="11.708" y2="11.708" gradientUnits="userSpaceOnUse"><stop stop-color="#5D536A"/><stop offset=".554" stop-color="#4B3C5B"/><stop offset="1" stop-color="#393341"/></linearGradient><linearGradient id="paint52_linear_4002_2845" x1="9.709" x2="12.428" y1="11.989" y2="11.989" gradientUnits="userSpaceOnUse"><stop stop-color="#4D4C50"/><stop offset="1" stop-color="#393341" stop-opacity="0"/></linearGradient><linearGradient id="paint55_linear_4002_2845" x1="16.538" x2="16.538" y1="14.155" y2="13.88" gradientUnits="userSpaceOnUse"><stop stop-color="#462659"/><stop offset="1" stop-color="#462659" stop-opacity="0"/></linearGradient><linearGradient id="paint56_linear_4002_2845" x1="21.116" x2="15.022" y1="18.489" y2="18.489" gradientUnits="userSpaceOnUse"><stop stop-color="#DFC6ED"/><stop offset="1" stop-color="#C9B0D8"/></linearGradient><linearGradient id="paint57_linear_4002_2845" x1="15.941" x2="15.941" y1="13.927" y2="16.029" gradientUnits="userSpaceOnUse"><stop stop-color="#B593CF"/><stop offset="1" stop-color="#C7AED9" stop-opacity="0"/></linearGradient></defs></svg>