<svg xmlns="http://www.w3.org/2000/svg" width="32" height="32" fill="none" viewBox="0 0 32 32"><path fill="url(#paint0_radial_30_9)" d="M15.999 29.998c9.334 0 13.999-6.268 13.999-14 0-7.73-4.665-13.998-14-13.998C6.665 2 2 8.268 2 15.999c0 7.731 4.664 13.999 13.999 13.999Z"/><path fill="url(#paint1_radial_30_9)" d="M15.999 29.998c9.334 0 13.999-6.268 13.999-14 0-7.73-4.665-13.998-14-13.998C6.665 2 2 8.268 2 15.999c0 7.731 4.664 13.999 13.999 13.999Z"/><path fill="url(#paint2_radial_30_9)" d="M15.999 29.998c9.334 0 13.999-6.268 13.999-14 0-7.73-4.665-13.998-14-13.998C6.665 2 2 8.268 2 15.999c0 7.731 4.664 13.999 13.999 13.999Z"/><path fill="url(#paint3_radial_30_9)" fill-opacity=".6" d="M15.999 29.998c9.334 0 13.999-6.268 13.999-14 0-7.73-4.665-13.998-14-13.998C6.665 2 2 8.268 2 15.999c0 7.731 4.664 13.999 13.999 13.999Z"/><path fill="url(#paint4_radial_30_9)" d="M15.999 29.998c9.334 0 13.999-6.268 13.999-14 0-7.73-4.665-13.998-14-13.998C6.665 2 2 8.268 2 15.999c0 7.731 4.664 13.999 13.999 13.999Z"/><path fill="url(#paint5_radial_30_9)" d="M15.999 29.998c9.334 0 13.999-6.268 13.999-14 0-7.73-4.665-13.998-14-13.998C6.665 2 2 8.268 2 15.999c0 7.731 4.664 13.999 13.999 13.999Z"/><path fill="url(#paint6_radial_30_9)" d="M15.999 29.998c9.334 0 13.999-6.268 13.999-14 0-7.73-4.665-13.998-14-13.998C6.665 2 2 8.268 2 15.999c0 7.731 4.664 13.999 13.999 13.999Z"/><path fill="url(#paint7_radial_30_9)" d="M15.999 29.998c9.334 0 13.999-6.268 13.999-14 0-7.73-4.665-13.998-14-13.998C6.665 2 2 8.268 2 15.999c0 7.731 4.664 13.999 13.999 13.999Z"/><circle cx="9" cy="13" r="5" fill="url(#paint8_radial_30_9)"/><circle cx="19.5" cy="13.5" r="4.5" fill="url(#paint9_radial_30_9)"/><path fill="#fff" d="M10.5 16a4.5 4.5 0 1 0 0-9 4.5 4.5 0 0 0 0 9Zm11 0a4.5 4.5 0 1 0 0-9 4.5 4.5 0 0 0 0 9Z"/><path fill="url(#paint10_linear_30_9)" d="M10.5 13.5a2 2 0 1 0 0-4 2 2 0 0 0 0 4Z"/><path fill="url(#paint11_linear_30_9)" d="M21.5 13.5a2 2 0 1 0 0-4 2 2 0 0 0 0 4Z"/><g filter="url(#filter0_f_30_9)"><path fill="#CC532D" fill-rule="evenodd" d="m27.017 23.526-.405-.798a2.1 2.1 0 0 0-2.692-.986 2.109 2.109 0 0 0-1.182 2.611l.89 2.624a10.96 10.96 0 0 0 3.389-3.45Zm-3.308.135a.935.935 0 0 0 1.218.498.915.915 0 0 0 .497-1.218.935.935 0 0 0-1.218-.497.934.934 0 0 0-.497 1.217Z" clip-rule="evenodd"/></g><g filter="url(#filter1_f_30_9)" opacity=".4"><path fill="#E4694E" fill-rule="evenodd" d="M6.5 19.75a1.25 1.25 0 1 1 2.5 0v.75h2.5v-.75a1.25 1.25 0 1 1 2.5 0v.75h2.5v-.75a1.25 1.25 0 1 1 2.5 0v.75h2.5v-.75a1.25 1.25 0 1 1 2.5 0v2.75h-2.5v.75a1.25 1.25 0 1 1-2.5 0v-.75h-2.5v.75a1.25 1.25 0 1 1-2.5 0v-.75h-2.5v.75a1.25 1.25 0 1 1-2.5 0v-.75H6.5v-2.75Z" clip-rule="evenodd"/></g><path fill="url(#paint12_linear_30_9)" stroke="url(#paint13_radial_30_9)" stroke-width=".25" d="M9.375 19.25v2.625h-2.25V19.25a1.125 1.125 0 0 1 2.25 0Z"/><path fill="url(#paint14_linear_30_9)" stroke="url(#paint15_radial_30_9)" stroke-width=".25" d="M14.375 19.25v2.625h-2.25V19.25a1.125 1.125 0 0 1 2.25 0Z"/><path fill="url(#paint16_linear_30_9)" stroke="url(#paint17_radial_30_9)" stroke-width=".25" d="M19.375 19.25v2.625h-2.25V19.25a1.125 1.125 0 0 1 2.25 0Z"/><path fill="url(#paint18_linear_30_9)" stroke="url(#paint19_radial_30_9)" stroke-width=".25" d="M24.375 19.25v2.625h-2.25V19.25a1.125 1.125 0 0 1 2.25 0Z"/><path fill="url(#paint20_linear_30_9)" stroke="url(#paint21_radial_30_9)" stroke-width=".25" d="M9.625 20.125h2.25v2.625a1.125 1.125 0 0 1-2.25 0v-2.625Z"/><path fill="url(#paint22_linear_30_9)" stroke="url(#paint23_radial_30_9)" stroke-width=".25" d="M14.625 20.125h2.25v2.625a1.125 1.125 0 0 1-2.25 0v-2.625Z"/><path fill="url(#paint24_linear_30_9)" stroke="url(#paint25_radial_30_9)" stroke-width=".25" d="M19.625 20.125h2.25v2.625a1.125 1.125 0 0 1-2.25 0v-2.625Z"/><path fill="url(#paint26_linear_30_9)" stroke="url(#paint27_radial_30_9)" stroke-width=".25" d="M29.19 24.026a1.98 1.98 0 0 1 .11 2.892l-.382.382a1.982 1.982 0 0 1-2.894-.11l-2.42-2.789a1.983 1.983 0 0 1 .1-2.693 1.976 1.976 0 0 1 2.695-.1l2.79 2.418Zm-5.132-.462a1.06 1.06 0 0 0 1.492 0 1.04 1.04 0 0 0 0-1.493 1.06 1.06 0 0 0-1.492 0 1.06 1.06 0 0 0 0 1.493Z"/><path fill="#D6A5F5" fill-rule="evenodd" d="M9.25 22v-2h.25v2h-.25Zm5 0v-2h.25v2h-.25Zm5-2v2h.25v-2h-.25Z" clip-rule="evenodd"/><defs><radialGradient id="paint0_radial_30_9" cx="0" cy="0" r="1" gradientTransform="rotate(132.839 10.786 10.065) scale(37.5033)" gradientUnits="userSpaceOnUse"><stop stop-color="#FFF478"/><stop offset=".475" stop-color="#FFB02E"/><stop offset="1" stop-color="#F70A8D"/></radialGradient><radialGradient id="paint1_radial_30_9" cx="0" cy="0" r="1" gradientTransform="rotate(131.878 10.74 10.193) scale(38.9487)" gradientUnits="userSpaceOnUse"><stop stop-color="#FFF478"/><stop offset=".475" stop-color="#FFB02E"/><stop offset="1" stop-color="#F70A8D"/></radialGradient><radialGradient id="paint2_radial_30_9" cx="0" cy="0" r="1" gradientTransform="rotate(101.31 2.876 12.808) scale(17.8466 22.8581)" gradientUnits="userSpaceOnUse"><stop offset=".788" stop-color="#F59639" stop-opacity="0"/><stop offset=".973" stop-color="#FF7DCE"/></radialGradient><radialGradient id="paint3_radial_30_9" cx="0" cy="0" r="1" gradientTransform="matrix(-29 29 -29 -29 18 14)" gradientUnits="userSpaceOnUse"><stop offset=".315" stop-opacity="0"/><stop offset="1"/></radialGradient><radialGradient id="paint4_radial_30_9" cx="0" cy="0" r="1" gradientTransform="rotate(77.692 -2.555 18.434) scale(28.1469)" gradientUnits="userSpaceOnUse"><stop offset=".508" stop-color="#7D6133" stop-opacity="0"/><stop offset="1" stop-color="#715B32"/></radialGradient><radialGradient id="paint5_radial_30_9" cx="0" cy="0" r="1" gradientTransform="matrix(7.5 10.99996 -7.97335 5.4364 16.5 16.5)" gradientUnits="userSpaceOnUse"><stop stop-color="#FFB849"/><stop offset="1" stop-color="#FFB847" stop-opacity="0"/></radialGradient><radialGradient id="paint6_radial_30_9" cx="0" cy="0" r="1" gradientTransform="matrix(11.49998 2 -2 11.49998 20.5 18)" gradientUnits="userSpaceOnUse"><stop stop-color="#FFA64B"/><stop offset=".9" stop-color="#FFAE46" stop-opacity="0"/></radialGradient><radialGradient id="paint7_radial_30_9" cx="0" cy="0" r="1" gradientTransform="rotate(43.971 -9.827 29.173) scale(59.0529)" gradientUnits="userSpaceOnUse"><stop offset=".185" stop-opacity="0"/><stop offset="1" stop-opacity=".4"/></radialGradient><radialGradient id="paint8_radial_30_9" cx="0" cy="0" r="1" gradientTransform="rotate(135 4.557 7.225) scale(9.74236 5.04232)" gradientUnits="userSpaceOnUse"><stop stop-color="#392108"/><stop offset="1" stop-color="#C87928" stop-opacity="0"/></radialGradient><radialGradient id="paint9_radial_30_9" cx="0" cy="0" r="1" gradientTransform="matrix(-5.75 5.75 -3.24597 -3.24597 23 10)" gradientUnits="userSpaceOnUse"><stop stop-color="#392108"/><stop offset="1" stop-color="#C87928" stop-opacity="0"/></radialGradient><radialGradient id="paint13_radial_30_9" cx="0" cy="0" r="1" gradientTransform="matrix(-1.5 1.5 -.9375 -.9375 9.5 18.5)" gradientUnits="userSpaceOnUse"><stop stop-color="#FFEFFF"/><stop offset="1" stop-color="#FFF2FF" stop-opacity="0"/></radialGradient><radialGradient id="paint15_radial_30_9" cx="0" cy="0" r="1" gradientTransform="matrix(-1.5 1.5 -.9375 -.9375 14.5 18.5)" gradientUnits="userSpaceOnUse"><stop stop-color="#FFEFFF"/><stop offset="1" stop-color="#FFF2FF" stop-opacity="0"/></radialGradient><radialGradient id="paint17_radial_30_9" cx="0" cy="0" r="1" gradientTransform="matrix(-1.5 1.5 -.9375 -.9375 19.5 18.5)" gradientUnits="userSpaceOnUse"><stop stop-color="#FFEFFF"/><stop offset="1" stop-color="#FFF2FF" stop-opacity="0"/></radialGradient><radialGradient id="paint19_radial_30_9" cx="0" cy="0" r="1" gradientTransform="matrix(-1.5 1.5 -.9375 -.9375 24.5 18.5)" gradientUnits="userSpaceOnUse"><stop stop-color="#FFEFFF"/><stop offset="1" stop-color="#FFF2FF" stop-opacity="0"/></radialGradient><radialGradient id="paint21_radial_30_9" cx="0" cy="0" r="1" gradientTransform="matrix(-1.5 1.5 -.9375 -.9375 12 20.5)" gradientUnits="userSpaceOnUse"><stop stop-color="#FFEFFF"/><stop offset="1" stop-color="#FFF2FF" stop-opacity="0"/></radialGradient><radialGradient id="paint23_radial_30_9" cx="0" cy="0" r="1" gradientTransform="matrix(-1.5 1.5 -.9375 -.9375 17 20.5)" gradientUnits="userSpaceOnUse"><stop stop-color="#FFEFFF"/><stop offset="1" stop-color="#FFF2FF" stop-opacity="0"/></radialGradient><radialGradient id="paint25_radial_30_9" cx="0" cy="0" r="1" gradientTransform="matrix(-1.5 1.5 -.9375 -.9375 22 20.5)" gradientUnits="userSpaceOnUse"><stop stop-color="#FFEFFF"/><stop offset="1" stop-color="#FFF2FF" stop-opacity="0"/></radialGradient><radialGradient id="paint27_radial_30_9" cx="0" cy="0" r="1" gradientTransform="matrix(-4.20002 2.62497 -1.4747 -2.35956 30 21.875)" gradientUnits="userSpaceOnUse"><stop stop-color="#FFEFFF"/><stop offset="1" stop-color="#FFF2FF" stop-opacity="0"/></radialGradient><linearGradient id="paint10_linear_30_9" x1="19.115" x2="18.427" y1="9.5" y2="13.53" gradientUnits="userSpaceOnUse"><stop stop-color="#553B3E"/><stop offset="1" stop-color="#3D2432"/></linearGradient><linearGradient id="paint11_linear_30_9" x1="22.115" x2="21.427" y1="9.5" y2="13.53" gradientUnits="userSpaceOnUse"><stop stop-color="#553B3E"/><stop offset="1" stop-color="#3D2432"/></linearGradient><linearGradient id="paint12_linear_30_9" x1="9" x2="7.5" y1="18.5" y2="22" gradientUnits="userSpaceOnUse"><stop stop-color="#E9C9FF"/><stop offset="1" stop-color="#E3B9FF"/></linearGradient><linearGradient id="paint14_linear_30_9" x1="14" x2="12.5" y1="18.5" y2="22" gradientUnits="userSpaceOnUse"><stop stop-color="#E9C9FF"/><stop offset="1" stop-color="#E3B9FF"/></linearGradient><linearGradient id="paint16_linear_30_9" x1="19" x2="17.5" y1="18.5" y2="22" gradientUnits="userSpaceOnUse"><stop stop-color="#E9C9FF"/><stop offset="1" stop-color="#E3B9FF"/></linearGradient><linearGradient id="paint18_linear_30_9" x1="24" x2="22.5" y1="18.5" y2="22" gradientUnits="userSpaceOnUse"><stop stop-color="#E9C9FF"/><stop offset="1" stop-color="#E3B9FF"/></linearGradient><linearGradient id="paint20_linear_30_9" x1="11.5" x2="10" y1="20.5" y2="24" gradientUnits="userSpaceOnUse"><stop stop-color="#E9C9FF"/><stop offset="1" stop-color="#E3B9FF"/></linearGradient><linearGradient id="paint22_linear_30_9" x1="16.5" x2="15" y1="20.5" y2="24" gradientUnits="userSpaceOnUse"><stop stop-color="#E9C9FF"/><stop offset="1" stop-color="#E3B9FF"/></linearGradient><linearGradient id="paint24_linear_30_9" x1="21.5" x2="20" y1="20.5" y2="24" gradientUnits="userSpaceOnUse"><stop stop-color="#E9C9FF"/><stop offset="1" stop-color="#E3B9FF"/></linearGradient><linearGradient id="paint26_linear_30_9" x1="28.6" x2="26.788" y1="21.875" y2="28.64" gradientUnits="userSpaceOnUse"><stop stop-color="#E9C9FF"/><stop offset="1" stop-color="#E3B9FF"/></linearGradient><filter id="filter0_f_30_9" width="8.387" height="9.401" x="20.629" y="19.576" color-interpolation-filters="sRGB" filterUnits="userSpaceOnUse"><feFlood flood-opacity="0" result="BackgroundImageFix"/><feBlend in="SourceGraphic" in2="BackgroundImageFix" result="shape"/><feGaussianBlur result="effect1_foregroundBlur_30_9" stdDeviation="1"/></filter><filter id="filter1_f_30_9" width="19.5" height="8" x="5.5" y="17.5" color-interpolation-filters="sRGB" filterUnits="userSpaceOnUse"><feFlood flood-opacity="0" result="BackgroundImageFix"/><feBlend in="SourceGraphic" in2="BackgroundImageFix" result="shape"/><feGaussianBlur result="effect1_foregroundBlur_30_9" stdDeviation=".5"/></filter></defs></svg>