<svg xmlns="http://www.w3.org/2000/svg" width="32" height="32" fill="none" viewBox="0 0 32 32"><path fill="url(#paint0_radial_4002_3652)" d="M6.24 21.009a3.25 3.25 0 1 0 0-6.5 3.25 3.25 0 0 0 0 6.5Z"/><g filter="url(#filter0_f_4002_3652)"><path fill="url(#paint1_linear_4002_3652)" d="M6.24 19.879a2.12 2.12 0 1 0 0-4.24 2.12 2.12 0 0 0 0 4.24Z"/></g><g filter="url(#filter1_i_4002_3652)"><path fill="url(#paint2_linear_4002_3652)" d="M25.76 21.009a3.25 3.25 0 1 0 0-6.5 3.25 3.25 0 0 0 0 6.5Z"/><path fill="url(#paint3_radial_4002_3652)" d="M25.76 21.009a3.25 3.25 0 1 0 0-6.5 3.25 3.25 0 0 0 0 6.5Z"/></g><g filter="url(#filter2_f_4002_3652)"><path fill="#FFBF34" d="M25.76 19.879a2.12 2.12 0 1 0 0-4.24 2.12 2.12 0 0 0 0 4.24Z"/><path fill="url(#paint4_radial_4002_3652)" d="M25.76 19.879a2.12 2.12 0 1 0 0-4.24 2.12 2.12 0 0 0 0 4.24Z"/><path fill="url(#paint5_radial_4002_3652)" d="M25.76 19.879a2.12 2.12 0 1 0 0-4.24 2.12 2.12 0 0 0 0 4.24Z"/></g><g filter="url(#filter3_i_4002_3652)"><path fill="url(#paint6_radial_4002_3652)" d="M13.386 3.972c-4.343 0-7.819 3.632-7.64 7.993l.28 8.224c.239 5.852 4.63 9.783 9.969 9.783 5.338 0 9.73-3.931 9.97-9.784l.083-4.13.185-4.093c.18-4.361-3.296-7.993-7.639-7.993h-5.208Z"/><path fill="url(#paint7_radial_4002_3652)" d="M13.386 3.972c-4.343 0-7.819 3.632-7.64 7.993l.28 8.224c.239 5.852 4.63 9.783 9.969 9.783 5.338 0 9.73-3.931 9.97-9.784l.083-4.13.185-4.093c.18-4.361-3.296-7.993-7.639-7.993h-5.208Z"/><path fill="url(#paint8_radial_4002_3652)" d="M13.386 3.972c-4.343 0-7.819 3.632-7.64 7.993l.28 8.224c.239 5.852 4.63 9.783 9.969 9.783 5.338 0 9.73-3.931 9.97-9.784l.083-4.13.185-4.093c.18-4.361-3.296-7.993-7.639-7.993h-5.208Z"/><path fill="url(#paint9_radial_4002_3652)" d="M13.386 3.972c-4.343 0-7.819 3.632-7.64 7.993l.28 8.224c.239 5.852 4.63 9.783 9.969 9.783 5.338 0 9.73-3.931 9.97-9.784l.083-4.13.185-4.093c.18-4.361-3.296-7.993-7.639-7.993h-5.208Z"/></g><path fill="url(#paint10_radial_4002_3652)" d="M13.386 3.972c-4.343 0-7.819 3.632-7.64 7.993l.28 8.224c.239 5.852 4.63 9.783 9.969 9.783 5.338 0 9.73-3.931 9.97-9.784l.083-4.13.185-4.093c.18-4.361-3.296-7.993-7.639-7.993h-5.208Z"/><path fill="url(#paint11_radial_4002_3652)" d="M13.386 3.972c-4.343 0-7.819 3.632-7.64 7.993l.28 8.224c.239 5.852 4.63 9.783 9.969 9.783 5.338 0 9.73-3.931 9.97-9.784l.083-4.13.185-4.093c.18-4.361-3.296-7.993-7.639-7.993h-5.208Z"/><path fill="url(#paint12_radial_4002_3652)" d="M13.386 3.972c-4.343 0-7.819 3.632-7.64 7.993l.28 8.224c.239 5.852 4.63 9.783 9.969 9.783 5.338 0 9.73-3.931 9.97-9.784l.083-4.13.185-4.093c.18-4.361-3.296-7.993-7.639-7.993h-5.208Z"/><path fill="url(#paint13_radial_4002_3652)" d="M13.386 3.972c-4.343 0-7.819 3.632-7.64 7.993l.28 8.224c.239 5.852 4.63 9.783 9.969 9.783 5.338 0 9.73-3.931 9.97-9.784l.083-4.13.185-4.093c.18-4.361-3.296-7.993-7.639-7.993h-5.208Z"/><path fill="#8A004F" d="M15.992 23.183a6.472 6.472 0 0 1-3.016-.733.328.328 0 0 0-.429.472 4.101 4.101 0 0 0 3.445 1.887 4.1 4.1 0 0 0 3.445-1.887c.18-.281-.13-.623-.43-.472a6.353 6.353 0 0 1-3.015.733Z"/><g filter="url(#filter4_i_4002_3652)"><path stroke="#BF4B28" stroke-linecap="round" stroke-linejoin="round" stroke-miterlimit="10" d="M9.43 14.101c.59-.21 1.41-.36 2.47-.26"/></g><g filter="url(#filter5_f_4002_3652)"><path stroke="url(#paint14_linear_4002_3652)" stroke-linecap="round" stroke-linejoin="round" stroke-miterlimit="10" stroke-width=".3" d="M9.43 14.101c.59-.21 1.41-.36 2.47-.26"/></g><g filter="url(#filter6_i_4002_3652)"><path stroke="#BF4B28" stroke-linecap="round" stroke-linejoin="round" stroke-miterlimit="10" d="M22 14.101c-.59-.21-1.41-.36-2.47-.26"/></g><g filter="url(#filter7_f_4002_3652)"><path stroke="url(#paint15_linear_4002_3652)" stroke-linecap="round" stroke-linejoin="round" stroke-miterlimit="10" stroke-width=".3" d="M22 14.101c-.59-.21-1.41-.36-2.47-.26"/></g><g filter="url(#filter8_i_4002_3652)"><path fill="#EEA622" d="m4.704 12.9.097 4.078c0 .779.668 1.008 1.047 1.032a.093.093 0 0 0 .097-.094l-.054-3.907c0-.61.186-1.286.75-1.813.578-.539.937-1.085 1.016-1.726.058-.48.152-.735.24-.895.065-.117.283-.09.341.03.846 1.763 2.454 2.341 3.672 2.434.538.04.912-.456.909-.996-.005-.708.064-1.405.197-1.643 2.203 2.703 5.422 2.64 6.375 2.609.953-.031 3.297.031 5 .172 1.363.112 1.625 1.437 1.625 1.89v3.822a.1.1 0 0 0 .1.1h.113c.49 0 .881-.391.875-.88a34.427 34.427 0 0 1 .006-1.776c.047-1.14.015-1.344.828-2.89.707-1.346 1.086-2.282.656-3.938-.366-1.41-1.89-2.266-2.469-2.563-.545-.28-.851-.554-1.117-1.07-.265-.516-.644-1.66-2.648-2.5-1.79-.75-2.969-.086-3.703.242-.735.328-1.454.39-2.657-.187-1.796-.781-3.453-.36-4.421.687-.97 1.047-1.985 1.125-2.954 1.532-.968.406-1.687 1.03-2.64 2.421-1.263 1.55-1.38 4.532-1.281 5.829Z"/><path fill="url(#paint16_radial_4002_3652)" d="m4.704 12.9.097 4.078c0 .779.668 1.008 1.047 1.032a.093.093 0 0 0 .097-.094l-.054-3.907c0-.61.186-1.286.75-1.813.578-.539.937-1.085 1.016-1.726.058-.48.152-.735.24-.895.065-.117.283-.09.341.03.846 1.763 2.454 2.341 3.672 2.434.538.04.912-.456.909-.996-.005-.708.064-1.405.197-1.643 2.203 2.703 5.422 2.64 6.375 2.609.953-.031 3.297.031 5 .172 1.363.112 1.625 1.437 1.625 1.89v3.822a.1.1 0 0 0 .1.1h.113c.49 0 .881-.391.875-.88a34.427 34.427 0 0 1 .006-1.776c.047-1.14.015-1.344.828-2.89.707-1.346 1.086-2.282.656-3.938-.366-1.41-1.89-2.266-2.469-2.563-.545-.28-.851-.554-1.117-1.07-.265-.516-.644-1.66-2.648-2.5-1.79-.75-2.969-.086-3.703.242-.735.328-1.454.39-2.657-.187-1.796-.781-3.453-.36-4.421.687-.97 1.047-1.985 1.125-2.954 1.532-.968.406-1.687 1.03-2.64 2.421-1.263 1.55-1.38 4.532-1.281 5.829Z"/><path fill="url(#paint17_radial_4002_3652)" d="m4.704 12.9.097 4.078c0 .779.668 1.008 1.047 1.032a.093.093 0 0 0 .097-.094l-.054-3.907c0-.61.186-1.286.75-1.813.578-.539.937-1.085 1.016-1.726.058-.48.152-.735.24-.895.065-.117.283-.09.341.03.846 1.763 2.454 2.341 3.672 2.434.538.04.912-.456.909-.996-.005-.708.064-1.405.197-1.643 2.203 2.703 5.422 2.64 6.375 2.609.953-.031 3.297.031 5 .172 1.363.112 1.625 1.437 1.625 1.89v3.822a.1.1 0 0 0 .1.1h.113c.49 0 .881-.391.875-.88a34.427 34.427 0 0 1 .006-1.776c.047-1.14.015-1.344.828-2.89.707-1.346 1.086-2.282.656-3.938-.366-1.41-1.89-2.266-2.469-2.563-.545-.28-.851-.554-1.117-1.07-.265-.516-.644-1.66-2.648-2.5-1.79-.75-2.969-.086-3.703.242-.735.328-1.454.39-2.657-.187-1.796-.781-3.453-.36-4.421.687-.97 1.047-1.985 1.125-2.954 1.532-.968.406-1.687 1.03-2.64 2.421-1.263 1.55-1.38 4.532-1.281 5.829Z"/></g><path fill="url(#paint18_radial_4002_3652)" d="m4.704 12.9.097 4.078c0 .779.668 1.008 1.047 1.032a.093.093 0 0 0 .097-.094l-.054-3.907c0-.61.186-1.286.75-1.813.578-.539.937-1.085 1.016-1.726.058-.48.152-.735.24-.895.065-.117.283-.09.341.03.846 1.763 2.454 2.341 3.672 2.434.538.04.912-.456.909-.996-.005-.708.064-1.405.197-1.643 2.203 2.703 5.422 2.64 6.375 2.609.953-.031 3.297.031 5 .172 1.363.112 1.625 1.437 1.625 1.89v3.822a.1.1 0 0 0 .1.1h.113c.49 0 .881-.391.875-.88a34.427 34.427 0 0 1 .006-1.776c.047-1.14.015-1.344.828-2.89.707-1.346 1.086-2.282.656-3.938-.366-1.41-1.89-2.266-2.469-2.563-.545-.28-.851-.554-1.117-1.07-.265-.516-.644-1.66-2.648-2.5-1.79-.75-2.969-.086-3.703.242-.735.328-1.454.39-2.657-.187-1.796-.781-3.453-.36-4.421.687-.97 1.047-1.985 1.125-2.954 1.532-.968.406-1.687 1.03-2.64 2.421-1.263 1.55-1.38 4.532-1.281 5.829Z"/><path fill="url(#paint19_radial_4002_3652)" d="m4.704 12.9.097 4.078c0 .779.668 1.008 1.047 1.032a.093.093 0 0 0 .097-.094l-.054-3.907c0-.61.186-1.286.75-1.813.578-.539.937-1.085 1.016-1.726.058-.48.152-.735.24-.895.065-.117.283-.09.341.03.846 1.763 2.454 2.341 3.672 2.434.538.04.912-.456.909-.996-.005-.708.064-1.405.197-1.643 2.203 2.703 5.422 2.64 6.375 2.609.953-.031 3.297.031 5 .172 1.363.112 1.625 1.437 1.625 1.89v3.822a.1.1 0 0 0 .1.1h.113c.49 0 .881-.391.875-.88a34.427 34.427 0 0 1 .006-1.776c.047-1.14.015-1.344.828-2.89.707-1.346 1.086-2.282.656-3.938-.366-1.41-1.89-2.266-2.469-2.563-.545-.28-.851-.554-1.117-1.07-.265-.516-.644-1.66-2.648-2.5-1.79-.75-2.969-.086-3.703.242-.735.328-1.454.39-2.657-.187-1.796-.781-3.453-.36-4.421.687-.97 1.047-1.985 1.125-2.954 1.532-.968.406-1.687 1.03-2.64 2.421-1.263 1.55-1.38 4.532-1.281 5.829Z"/><path fill="url(#paint20_radial_4002_3652)" d="m4.704 12.9.097 4.078c0 .779.668 1.008 1.047 1.032a.093.093 0 0 0 .097-.094l-.054-3.907c0-.61.186-1.286.75-1.813.578-.539.937-1.085 1.016-1.726.058-.48.152-.735.24-.895.065-.117.283-.09.341.03.846 1.763 2.454 2.341 3.672 2.434.538.04.912-.456.909-.996-.005-.708.064-1.405.197-1.643 2.203 2.703 5.422 2.64 6.375 2.609.953-.031 3.297.031 5 .172 1.363.112 1.625 1.437 1.625 1.89v3.822a.1.1 0 0 0 .1.1h.113c.49 0 .881-.391.875-.88a34.427 34.427 0 0 1 .006-1.776c.047-1.14.015-1.344.828-2.89.707-1.346 1.086-2.282.656-3.938-.366-1.41-1.89-2.266-2.469-2.563-.545-.28-.851-.554-1.117-1.07-.265-.516-.644-1.66-2.648-2.5-1.79-.75-2.969-.086-3.703.242-.735.328-1.454.39-2.657-.187-1.796-.781-3.453-.36-4.421.687-.97 1.047-1.985 1.125-2.954 1.532-.968.406-1.687 1.03-2.64 2.421-1.263 1.55-1.38 4.532-1.281 5.829Z"/><path fill="url(#paint21_radial_4002_3652)" d="m4.704 12.9.097 4.078c0 .779.668 1.008 1.047 1.032a.093.093 0 0 0 .097-.094l-.054-3.907c0-.61.186-1.286.75-1.813.578-.539.937-1.085 1.016-1.726.058-.48.152-.735.24-.895.065-.117.283-.09.341.03.846 1.763 2.454 2.341 3.672 2.434.538.04.912-.456.909-.996-.005-.708.064-1.405.197-1.643 2.203 2.703 5.422 2.64 6.375 2.609.953-.031 3.297.031 5 .172 1.363.112 1.625 1.437 1.625 1.89v3.822a.1.1 0 0 0 .1.1h.113c.49 0 .881-.391.875-.88a34.427 34.427 0 0 1 .006-1.776c.047-1.14.015-1.344.828-2.89.707-1.346 1.086-2.282.656-3.938-.366-1.41-1.89-2.266-2.469-2.563-.545-.28-.851-.554-1.117-1.07-.265-.516-.644-1.66-2.648-2.5-1.79-.75-2.969-.086-3.703.242-.735.328-1.454.39-2.657-.187-1.796-.781-3.453-.36-4.421.687-.97 1.047-1.985 1.125-2.954 1.532-.968.406-1.687 1.03-2.64 2.421-1.263 1.55-1.38 4.532-1.281 5.829Z"/><path fill="url(#paint22_radial_4002_3652)" d="m4.704 12.9.097 4.078c0 .779.668 1.008 1.047 1.032a.093.093 0 0 0 .097-.094l-.054-3.907c0-.61.186-1.286.75-1.813.578-.539.937-1.085 1.016-1.726.058-.48.152-.735.24-.895.065-.117.283-.09.341.03.846 1.763 2.454 2.341 3.672 2.434.538.04.912-.456.909-.996-.005-.708.064-1.405.197-1.643 2.203 2.703 5.422 2.64 6.375 2.609.953-.031 3.297.031 5 .172 1.363.112 1.625 1.437 1.625 1.89v3.822a.1.1 0 0 0 .1.1h.113c.49 0 .881-.391.875-.88a34.427 34.427 0 0 1 .006-1.776c.047-1.14.015-1.344.828-2.89.707-1.346 1.086-2.282.656-3.938-.366-1.41-1.89-2.266-2.469-2.563-.545-.28-.851-.554-1.117-1.07-.265-.516-.644-1.66-2.648-2.5-1.79-.75-2.969-.086-3.703.242-.735.328-1.454.39-2.657-.187-1.796-.781-3.453-.36-4.421.687-.97 1.047-1.985 1.125-2.954 1.532-.968.406-1.687 1.03-2.64 2.421-1.263 1.55-1.38 4.532-1.281 5.829Z"/><path fill="url(#paint23_radial_4002_3652)" d="m4.704 12.9.097 4.078c0 .779.668 1.008 1.047 1.032a.093.093 0 0 0 .097-.094l-.054-3.907c0-.61.186-1.286.75-1.813.578-.539.937-1.085 1.016-1.726.058-.48.152-.735.24-.895.065-.117.283-.09.341.03.846 1.763 2.454 2.341 3.672 2.434.538.04.912-.456.909-.996-.005-.708.064-1.405.197-1.643 2.203 2.703 5.422 2.64 6.375 2.609.953-.031 3.297.031 5 .172 1.363.112 1.625 1.437 1.625 1.89v3.822a.1.1 0 0 0 .1.1h.113c.49 0 .881-.391.875-.88a34.427 34.427 0 0 1 .006-1.776c.047-1.14.015-1.344.828-2.89.707-1.346 1.086-2.282.656-3.938-.366-1.41-1.89-2.266-2.469-2.563-.545-.28-.851-.554-1.117-1.07-.265-.516-.644-1.66-2.648-2.5-1.79-.75-2.969-.086-3.703.242-.735.328-1.454.39-2.657-.187-1.796-.781-3.453-.36-4.421.687-.97 1.047-1.985 1.125-2.954 1.532-.968.406-1.687 1.03-2.64 2.421-1.263 1.55-1.38 4.532-1.281 5.829Z"/><path fill="url(#paint24_radial_4002_3652)" d="m4.704 12.9.097 4.078c0 .779.668 1.008 1.047 1.032a.093.093 0 0 0 .097-.094l-.054-3.907c0-.61.186-1.286.75-1.813.578-.539.937-1.085 1.016-1.726.058-.48.152-.735.24-.895.065-.117.283-.09.341.03.846 1.763 2.454 2.341 3.672 2.434.538.04.912-.456.909-.996-.005-.708.064-1.405.197-1.643 2.203 2.703 5.422 2.64 6.375 2.609.953-.031 3.297.031 5 .172 1.363.112 1.625 1.437 1.625 1.89v3.822a.1.1 0 0 0 .1.1h.113c.49 0 .881-.391.875-.88a34.427 34.427 0 0 1 .006-1.776c.047-1.14.015-1.344.828-2.89.707-1.346 1.086-2.282.656-3.938-.366-1.41-1.89-2.266-2.469-2.563-.545-.28-.851-.554-1.117-1.07-.265-.516-.644-1.66-2.648-2.5-1.79-.75-2.969-.086-3.703.242-.735.328-1.454.39-2.657-.187-1.796-.781-3.453-.36-4.421.687-.97 1.047-1.985 1.125-2.954 1.532-.968.406-1.687 1.03-2.64 2.421-1.263 1.55-1.38 4.532-1.281 5.829Z"/><g filter="url(#filter9_f_4002_3652)"><path fill="#ED8C2B" d="m14.047 20.52 1.468-2.27a.426.426 0 0 1 .75.067l.918 2.203h-.009a.72.72 0 0 1-.038.744c-.36.528-.815.87-1.495.87-.67 0-1.244-.342-1.594-.87-.176-.262-.15-.514 0-.744Z"/></g><g filter="url(#filter10_f_4002_3652)"><path fill="#FFC82E" d="m14.363 20.331 1.25-2.604a.412.412 0 0 1 .74-.003l1.309 2.668h-.01a.721.721 0 0 1-.037.744 1.946 1.946 0 0 1-3.25 0 .723.723 0 0 1-.002-.805Z"/><path fill="url(#paint25_linear_4002_3652)" d="m14.363 20.331 1.25-2.604a.412.412 0 0 1 .74-.003l1.309 2.668h-.01a.721.721 0 0 1-.037.744 1.946 1.946 0 0 1-3.25 0 .723.723 0 0 1-.002-.805Z"/><path fill="url(#paint26_linear_4002_3652)" d="m14.363 20.331 1.25-2.604a.412.412 0 0 1 .74-.003l1.309 2.668h-.01a.721.721 0 0 1-.037.744 1.946 1.946 0 0 1-3.25 0 .723.723 0 0 1-.002-.805Z"/><path fill="url(#paint27_linear_4002_3652)" d="m14.363 20.331 1.25-2.604a.412.412 0 0 1 .74-.003l1.309 2.668h-.01a.721.721 0 0 1-.037.744 1.946 1.946 0 0 1-3.25 0 .723.723 0 0 1-.002-.805Z"/></g><path fill="url(#paint28_radial_4002_3652)" d="m14.363 20.331 1.25-2.604a.412.412 0 0 1 .74-.003l1.309 2.668h-.01a.721.721 0 0 1-.037.744 1.946 1.946 0 0 1-3.25 0 .723.723 0 0 1-.002-.805Z"/><path fill="#fff" d="M20.791 15.51a3.112 3.112 0 0 1 3.02 2.36.61.61 0 0 1-.597.759h-4.971a.513.513 0 0 1-.507-.606 3.114 3.114 0 0 1 3.055-2.512Z"/><path fill="url(#paint29_radial_4002_3652)" d="M20.33 16.116a1.988 1.988 0 0 1 1.917 2.513h-3.842a2.037 2.037 0 0 1-.072-.524c0-1.094.895-1.989 1.997-1.989Z"/><path fill="#000" d="M19.192 18.105c0-.633.506-1.14 1.138-1.14.633 0 1.14.507 1.14 1.14 0 .19-.046.37-.127.524h-2.016a1.03 1.03 0 0 1-.136-.524Z"/><g filter="url(#filter11_f_4002_3652)"><path fill="#C7A7A3" d="M20.184 16.537c.142.19-.154.42-.491.672-.337.252-.587.429-.728.24-.142-.19.016-.548.353-.8.337-.251.724-.302.866-.112Z"/><path fill="url(#paint30_radial_4002_3652)" d="M20.184 16.537c.142.19-.154.42-.491.672-.337.252-.587.429-.728.24-.142-.19.016-.548.353-.8.337-.251.724-.302.866-.112Z"/></g><g filter="url(#filter12_f_4002_3652)"><path fill="url(#paint31_linear_4002_3652)" d="M22.102 17.843a1.871 1.871 0 0 0-.516-1.031l-.579.635.261.509.834-.113Z"/></g><path fill="#fff" d="M11.177 15.523a3.1 3.1 0 0 0-3.007 2.35.608.608 0 0 0 .594.756h4.952a.51.51 0 0 0 .504-.603 3.11 3.11 0 0 0-3.043-2.503Z"/><path fill="url(#paint32_radial_4002_3652)" d="M11.636 16.126a1.98 1.98 0 0 0-1.909 2.503h3.827a2.03 2.03 0 0 0 .072-.522 1.994 1.994 0 0 0-1.99-1.981Z"/><path fill="#000" d="M12.77 18.107a1.13 1.13 0 0 0-1.134-1.135 1.13 1.13 0 0 0-1.134 1.135c0 .189.045.369.126.522h2.008c.08-.153.135-.333.135-.522Z"/><g filter="url(#filter13_f_4002_3652)"><path fill="url(#paint33_linear_4002_3652)" d="M13.446 17.874c0-.64-.52-1.067-.661-1.196l-.64.62.393.801.908-.225Z"/></g><g filter="url(#filter14_f_4002_3652)" transform="rotate(-27.914 11.039 16.972)"><ellipse cx="11.039" cy="16.972" fill="#C7A7A3" fill-opacity=".9" rx=".865" ry=".438"/><ellipse cx="11.039" cy="16.972" fill="url(#paint34_radial_4002_3652)" rx=".865" ry=".438"/></g><g filter="url(#filter15_f_4002_3652)"><path fill="url(#paint35_radial_4002_3652)" d="M17.469 11.196c-3.063-.625-5.032-3.968-6.43-5.937 4.687-3.828 11.375-.438 14.578 1.969 2.562 1.925 1.588 4.656.922 5.593-.227-.812-1.147-1.46-2.164-1.625-1.36-.218-3.688 0-6.906 0Z"/><path fill="url(#paint36_radial_4002_3652)" d="M17.469 11.196c-3.063-.625-5.032-3.968-6.43-5.937 4.687-3.828 11.375-.438 14.578 1.969 2.562 1.925 1.588 4.656.922 5.593-.227-.812-1.147-1.46-2.164-1.625-1.36-.218-3.688 0-6.906 0Z"/><path fill="url(#paint37_radial_4002_3652)" d="M17.469 11.196c-3.063-.625-5.032-3.968-6.43-5.937 4.687-3.828 11.375-.438 14.578 1.969 2.562 1.925 1.588 4.656.922 5.593-.227-.812-1.147-1.46-2.164-1.625-1.36-.218-3.688 0-6.906 0Z"/></g><g filter="url(#filter16_f_4002_3652)"><path stroke="url(#paint38_linear_4002_3652)" stroke-width=".15" d="M11.782 6.71c.046.365.35 1.378 1.187 2.516"/></g><defs><radialGradient id="paint0_radial_4002_3652" cx="0" cy="0" r="1" gradientTransform="matrix(3.41626 0 0 5.97849 2.99 17.759)" gradientUnits="userSpaceOnUse"><stop offset=".351" stop-color="#E6962B"/><stop offset="1" stop-color="#CA8F29"/></radialGradient><radialGradient id="paint3_radial_4002_3652" cx="0" cy="0" r="1" gradientTransform="matrix(1.60937 -1.17187 1.33754 1.8369 26.484 17.243)" gradientUnits="userSpaceOnUse"><stop offset=".543" stop-color="#FFC532"/><stop offset="1" stop-color="#FFC532" stop-opacity="0"/></radialGradient><radialGradient id="paint4_radial_4002_3652" cx="0" cy="0" r="1" gradientTransform="matrix(1.75 -3.21875 1.88395 1.02428 25.672 19.509)" gradientUnits="userSpaceOnUse"><stop offset=".69" stop-color="#F4A51A" stop-opacity="0"/><stop offset="1" stop-color="#F4A51A"/></radialGradient><radialGradient id="paint5_radial_4002_3652" cx="0" cy="0" r="1" gradientTransform="matrix(.55251 .5469 -.70503 .71226 25.76 17.759)" gradientUnits="userSpaceOnUse"><stop stop-color="#E59B1F"/><stop offset="1" stop-color="#E59B1F" stop-opacity="0"/></radialGradient><radialGradient id="paint6_radial_4002_3652" cx="0" cy="0" r="1" gradientTransform="matrix(-15.25009 7.91165 -8.96041 -17.27163 22.938 16.972)" gradientUnits="userSpaceOnUse"><stop stop-color="#FFE232"/><stop offset=".726" stop-color="#FFA929"/><stop offset="1" stop-color="#DA8140"/></radialGradient><radialGradient id="paint7_radial_4002_3652" cx="0" cy="0" r="1" gradientTransform="matrix(-4.75 0 0 -6.04833 19.75 18.321)" gradientUnits="userSpaceOnUse"><stop stop-color="#FFE931"/><stop offset="1" stop-color="#FFE931" stop-opacity="0"/></radialGradient><radialGradient id="paint8_radial_4002_3652" cx="0" cy="0" r="1" gradientTransform="matrix(0 -2.78125 3.62405 0 20.906 16.353)" gradientUnits="userSpaceOnUse"><stop offset=".146" stop-color="#FFBE28"/><stop offset="1" stop-color="#FFBE28" stop-opacity="0"/></radialGradient><radialGradient id="paint9_radial_4002_3652" cx="0" cy="0" r="1" gradientTransform="matrix(0 -2.83828 2.73811 0 12.313 16.972)" gradientUnits="userSpaceOnUse"><stop offset=".053" stop-color="#ED9228"/><stop offset="1" stop-color="#ED9228" stop-opacity="0"/></radialGradient><radialGradient id="paint10_radial_4002_3652" cx="0" cy="0" r="1" gradientTransform="matrix(3.71875 3.1875 -1.89485 2.21066 14.344 8.665)" gradientUnits="userSpaceOnUse"><stop offset=".015" stop-color="#E26E13"/><stop offset="1" stop-color="#E26E13" stop-opacity="0"/></radialGradient><radialGradient id="paint11_radial_4002_3652" cx="0" cy="0" r="1" gradientTransform="rotate(42.842 -7.073 15.919) scale(3.81445 1.99642)" gradientUnits="userSpaceOnUse"><stop stop-color="#E26E13"/><stop offset="1" stop-color="#E26E13" stop-opacity="0"/></radialGradient><radialGradient id="paint12_radial_4002_3652" cx="0" cy="0" r="1" gradientTransform="matrix(-1.87501 15.68754 -17.76526 -2.12335 17.438 15.071)" gradientUnits="userSpaceOnUse"><stop offset=".675" stop-color="#D77970" stop-opacity="0"/><stop offset="1" stop-color="#D77970"/></radialGradient><radialGradient id="paint13_radial_4002_3652" cx="0" cy="0" r="1" gradientTransform="matrix(-.54687 .9375 -2.00105 -1.16726 10.594 11.103)" gradientUnits="userSpaceOnUse"><stop offset=".15" stop-color="#DB7E1E"/><stop offset="1" stop-color="#DB7E1E" stop-opacity="0"/></radialGradient><radialGradient id="paint16_radial_4002_3652" cx="0" cy="0" r="1" gradientTransform="matrix(.4375 -7 8.16731 .51045 5.75 16.696)" gradientUnits="userSpaceOnUse"><stop offset=".411" stop-color="#EF8C1F"/><stop offset="1" stop-color="#EF8C1F" stop-opacity="0"/></radialGradient><radialGradient id="paint17_radial_4002_3652" cx="0" cy="0" r="1" gradientTransform="matrix(-5.87498 7.56252 -19.20532 -14.91974 25.5 4.571)" gradientUnits="userSpaceOnUse"><stop stop-color="#FFEA38"/><stop offset="1" stop-color="#FFEA38" stop-opacity="0"/></radialGradient><radialGradient id="paint18_radial_4002_3652" cx="0" cy="0" r="1" gradientTransform="matrix(-2.53126 -3.375 1.86554 -1.39916 12.531 12.071)" gradientUnits="userSpaceOnUse"><stop stop-color="#FFC12F"/><stop offset="1" stop-color="#FFC12F" stop-opacity="0"/></radialGradient><radialGradient id="paint19_radial_4002_3652" cx="0" cy="0" r="1" gradientTransform="rotate(-114.58 10.127 1.095) scale(3.86816 .7011)" gradientUnits="userSpaceOnUse"><stop stop-color="#CE5B02"/><stop offset="1" stop-color="#F78423" stop-opacity="0"/></radialGradient><radialGradient id="paint20_radial_4002_3652" cx="0" cy="0" r="1" gradientTransform="rotate(108.277 -.23 7.608) scale(1.79361 .5322)" gradientUnits="userSpaceOnUse"><stop stop-color="#FFAC26"/><stop offset="1" stop-color="#FFAC26" stop-opacity="0"/></radialGradient><radialGradient id="paint21_radial_4002_3652" cx="0" cy="0" r="1" gradientTransform="matrix(3.46875 -1.3001 .60745 1.6207 18.625 2.028)" gradientUnits="userSpaceOnUse"><stop offset=".207" stop-color="#D1A83F"/><stop offset="1" stop-color="#D1A83F" stop-opacity="0"/></radialGradient><radialGradient id="paint22_radial_4002_3652" cx="0" cy="0" r="1" gradientTransform="rotate(-33.302 9.89 -8.653) scale(10.2449 4.19799)" gradientUnits="userSpaceOnUse"><stop offset=".16" stop-color="#C79B39"/><stop offset="1" stop-color="#C79B39" stop-opacity="0"/></radialGradient><radialGradient id="paint23_radial_4002_3652" cx="0" cy="0" r="1" gradientTransform="matrix(0 -3.67187 1.73438 0 27.25 17.071)" gradientUnits="userSpaceOnUse"><stop offset=".145" stop-color="#FFCF32"/><stop offset="1" stop-color="#FFCF32" stop-opacity="0"/></radialGradient><radialGradient id="paint24_radial_4002_3652" cx="0" cy="0" r="1" gradientTransform="rotate(119.814 7.22 5.819) scale(1.60276 2.07887)" gradientUnits="userSpaceOnUse"><stop stop-color="#FFCF31"/><stop offset="1" stop-color="#FFCF31" stop-opacity="0"/></radialGradient><radialGradient id="paint28_radial_4002_3652" cx="0" cy="0" r="1" gradientTransform="matrix(0 3.28125 -2.74 0 15.99 18.853)" gradientUnits="userSpaceOnUse"><stop offset=".867" stop-color="#DE7F30" stop-opacity="0"/><stop offset="1" stop-color="#DE7F30"/></radialGradient><radialGradient id="paint29_radial_4002_3652" cx="0" cy="0" r="1" gradientTransform="matrix(0 1.80763 -2.87524 0 20.326 17.18)" gradientUnits="userSpaceOnUse"><stop offset=".802" stop-color="#915C51"/><stop offset="1" stop-color="#694B43"/><stop offset="1" stop-color="#804D49"/></radialGradient><radialGradient id="paint30_radial_4002_3652" cx="0" cy="0" r="1" gradientTransform="matrix(-.51672 -.66586 .91673 -.7114 19.817 17.366)" gradientUnits="userSpaceOnUse"><stop offset=".766" stop-color="#FFE6E2" stop-opacity="0"/><stop offset=".966" stop-color="#FFE6E2"/></radialGradient><radialGradient id="paint32_radial_4002_3652" cx="0" cy="0" r="1" gradientTransform="matrix(0 1.80073 -2.86427 0 11.64 17.185)" gradientUnits="userSpaceOnUse"><stop offset=".802" stop-color="#915C51"/><stop offset="1" stop-color="#694B43"/><stop offset="1" stop-color="#804D49"/></radialGradient><radialGradient id="paint34_radial_4002_3652" cx="0" cy="0" r="1" gradientTransform="matrix(-.01717 -1.09657 1.31812 -.02064 11.005 17.671)" gradientUnits="userSpaceOnUse"><stop offset=".766" stop-color="#FFE6E2" stop-opacity="0"/><stop offset=".966" stop-color="#FFE6E2"/></radialGradient><radialGradient id="paint35_radial_4002_3652" cx="0" cy="0" r="1" gradientTransform="rotate(162.306 11.773 4.558) scale(10.6933 18.7067)" gradientUnits="userSpaceOnUse"><stop offset=".604" stop-color="#FCAE1D" stop-opacity="0"/><stop offset="1" stop-color="#FCAE1D"/></radialGradient><radialGradient id="paint36_radial_4002_3652" cx="0" cy="0" r="1" gradientTransform="matrix(-3.06252 6.06249 -11.37448 -5.74591 21.563 5.509)" gradientUnits="userSpaceOnUse"><stop stop-color="#FFE632"/><stop offset="1" stop-color="#FFE632" stop-opacity="0"/></radialGradient><radialGradient id="paint37_radial_4002_3652" cx="0" cy="0" r="1" gradientTransform="matrix(2.8125 -6.875 14.85244 6.076 19.875 12.071)" gradientUnits="userSpaceOnUse"><stop offset=".849" stop-color="#F8C32E" stop-opacity="0"/><stop offset="1" stop-color="#F8C32E"/></radialGradient><filter id="filter0_f_4002_3652" width="5.24" height="5.24" x="3.62" y="15.139" color-interpolation-filters="sRGB" filterUnits="userSpaceOnUse"><feFlood flood-opacity="0" result="BackgroundImageFix"/><feBlend in="SourceGraphic" in2="BackgroundImageFix" result="shape"/><feGaussianBlur result="effect1_foregroundBlur_4002_3652" stdDeviation=".25"/></filter><filter id="filter1_i_4002_3652" width="6.75" height="6.75" x="22.51" y="14.259" color-interpolation-filters="sRGB" filterUnits="userSpaceOnUse"><feFlood flood-opacity="0" result="BackgroundImageFix"/><feBlend in="SourceGraphic" in2="BackgroundImageFix" result="shape"/><feColorMatrix in="SourceAlpha" result="hardAlpha" values="0 0 0 0 0 0 0 0 0 0 0 0 0 0 0 0 0 0 127 0"/><feOffset dx=".25" dy="-.25"/><feGaussianBlur stdDeviation=".25"/><feComposite in2="hardAlpha" k2="-1" k3="1" operator="arithmetic"/><feColorMatrix values="0 0 0 0 0.85098 0 0 0 0 0.560784 0 0 0 0 0.376471 0 0 0 1 0"/><feBlend in2="shape" result="effect1_innerShadow_4002_3652"/></filter><filter id="filter2_f_4002_3652" width="5.24" height="5.24" x="23.14" y="15.139" color-interpolation-filters="sRGB" filterUnits="userSpaceOnUse"><feFlood flood-opacity="0" result="BackgroundImageFix"/><feBlend in="SourceGraphic" in2="BackgroundImageFix" result="shape"/><feGaussianBlur result="effect1_foregroundBlur_4002_3652" stdDeviation=".25"/></filter><filter id="filter3_i_4002_3652" width="21.5" height="26" x="5.74" y="3.972" color-interpolation-filters="sRGB" filterUnits="userSpaceOnUse"><feFlood flood-opacity="0" result="BackgroundImageFix"/><feBlend in="SourceGraphic" in2="BackgroundImageFix" result="shape"/><feColorMatrix in="SourceAlpha" result="hardAlpha" values="0 0 0 0 0 0 0 0 0 0 0 0 0 0 0 0 0 0 127 0"/><feOffset dx="1"/><feGaussianBlur stdDeviation="1.25"/><feComposite in2="hardAlpha" k2="-1" k3="1" operator="arithmetic"/><feColorMatrix values="0 0 0 0 0.831373 0 0 0 0 0.623529 0 0 0 0 0.282353 0 0 0 1 0"/><feBlend in2="shape" result="effect1_innerShadow_4002_3652"/></filter><filter id="filter4_i_4002_3652" width="3.67" height="1.492" x="8.93" y="13.109" color-interpolation-filters="sRGB" filterUnits="userSpaceOnUse"><feFlood flood-opacity="0" result="BackgroundImageFix"/><feBlend in="SourceGraphic" in2="BackgroundImageFix" result="shape"/><feColorMatrix in="SourceAlpha" result="hardAlpha" values="0 0 0 0 0 0 0 0 0 0 0 0 0 0 0 0 0 0 127 0"/><feOffset dx=".2" dy="-.2"/><feGaussianBlur stdDeviation=".2"/><feComposite in2="hardAlpha" k2="-1" k3="1" operator="arithmetic"/><feColorMatrix values="0 0 0 0 0.678431 0 0 0 0 0.239216 0 0 0 0 0.239216 0 0 0 1 0"/><feBlend in2="shape" result="effect1_innerShadow_4002_3652"/></filter><filter id="filter5_f_4002_3652" width="3.37" height="1.192" x="8.98" y="13.359" color-interpolation-filters="sRGB" filterUnits="userSpaceOnUse"><feFlood flood-opacity="0" result="BackgroundImageFix"/><feBlend in="SourceGraphic" in2="BackgroundImageFix" result="shape"/><feGaussianBlur result="effect1_foregroundBlur_4002_3652" stdDeviation=".15"/></filter><filter id="filter6_i_4002_3652" width="3.67" height="1.492" x="19.03" y="13.109" color-interpolation-filters="sRGB" filterUnits="userSpaceOnUse"><feFlood flood-opacity="0" result="BackgroundImageFix"/><feBlend in="SourceGraphic" in2="BackgroundImageFix" result="shape"/><feColorMatrix in="SourceAlpha" result="hardAlpha" values="0 0 0 0 0 0 0 0 0 0 0 0 0 0 0 0 0 0 127 0"/><feOffset dx=".2" dy="-.2"/><feGaussianBlur stdDeviation=".2"/><feComposite in2="hardAlpha" k2="-1" k3="1" operator="arithmetic"/><feColorMatrix values="0 0 0 0 0.678431 0 0 0 0 0.239216 0 0 0 0 0.239216 0 0 0 1 0"/><feBlend in2="shape" result="effect1_innerShadow_4002_3652"/></filter><filter id="filter7_f_4002_3652" width="3.37" height="1.192" x="19.08" y="13.359" color-interpolation-filters="sRGB" filterUnits="userSpaceOnUse"><feFlood flood-opacity="0" result="BackgroundImageFix"/><feBlend in="SourceGraphic" in2="BackgroundImageFix" result="shape"/><feGaussianBlur result="effect1_foregroundBlur_4002_3652" stdDeviation=".15"/></filter><filter id="filter8_i_4002_3652" width="24.099" height="16.983" x="4.676" y="1.028" color-interpolation-filters="sRGB" filterUnits="userSpaceOnUse"><feFlood flood-opacity="0" result="BackgroundImageFix"/><feBlend in="SourceGraphic" in2="BackgroundImageFix" result="shape"/><feColorMatrix in="SourceAlpha" result="hardAlpha" values="0 0 0 0 0 0 0 0 0 0 0 0 0 0 0 0 0 0 127 0"/><feOffset dy="-1"/><feGaussianBlur stdDeviation=".5"/><feComposite in2="hardAlpha" k2="-1" k3="1" operator="arithmetic"/><feColorMatrix values="0 0 0 0 0.886275 0 0 0 0 0.498039 0 0 0 0 0.0705882 0 0 0 1 0"/><feBlend in2="shape" result="effect1_innerShadow_4002_3652"/></filter><filter id="filter9_f_4002_3652" width="4.335" height="5.078" x="13.425" y="17.556" color-interpolation-filters="sRGB" filterUnits="userSpaceOnUse"><feFlood flood-opacity="0" result="BackgroundImageFix"/><feBlend in="SourceGraphic" in2="BackgroundImageFix" result="shape"/><feGaussianBlur result="effect1_foregroundBlur_4002_3652" stdDeviation=".25"/></filter><filter id="filter10_f_4002_3652" width="3.997" height="5.016" x="13.992" y="17.243" color-interpolation-filters="sRGB" filterUnits="userSpaceOnUse"><feFlood flood-opacity="0" result="BackgroundImageFix"/><feBlend in="SourceGraphic" in2="BackgroundImageFix" result="shape"/><feGaussianBlur result="effect1_foregroundBlur_4002_3652" stdDeviation=".125"/></filter><filter id="filter11_f_4002_3652" width="1.507" height="1.306" x="18.813" y="16.322" color-interpolation-filters="sRGB" filterUnits="userSpaceOnUse"><feFlood flood-opacity="0" result="BackgroundImageFix"/><feBlend in="SourceGraphic" in2="BackgroundImageFix" result="shape"/><feGaussianBlur result="effect1_foregroundBlur_4002_3652" stdDeviation=".05"/></filter><filter id="filter12_f_4002_3652" width="1.494" height="1.544" x="20.807" y="16.612" color-interpolation-filters="sRGB" filterUnits="userSpaceOnUse"><feFlood flood-opacity="0" result="BackgroundImageFix"/><feBlend in="SourceGraphic" in2="BackgroundImageFix" result="shape"/><feGaussianBlur result="effect1_foregroundBlur_4002_3652" stdDeviation=".1"/></filter><filter id="filter13_f_4002_3652" width="1.701" height="1.821" x="11.944" y="16.478" color-interpolation-filters="sRGB" filterUnits="userSpaceOnUse"><feFlood flood-opacity="0" result="BackgroundImageFix"/><feBlend in="SourceGraphic" in2="BackgroundImageFix" result="shape"/><feGaussianBlur result="effect1_foregroundBlur_4002_3652" stdDeviation=".1"/></filter><filter id="filter14_f_4002_3652" width="1.783" height="1.32" x="10.147" y="16.312" color-interpolation-filters="sRGB" filterUnits="userSpaceOnUse"><feFlood flood-opacity="0" result="BackgroundImageFix"/><feBlend in="SourceGraphic" in2="BackgroundImageFix" result="shape"/><feGaussianBlur result="effect1_foregroundBlur_4002_3652" stdDeviation=".05"/></filter><filter id="filter15_f_4002_3652" width="18.25" height="11.289" x="10.039" y="2.532" color-interpolation-filters="sRGB" filterUnits="userSpaceOnUse"><feFlood flood-opacity="0" result="BackgroundImageFix"/><feBlend in="SourceGraphic" in2="BackgroundImageFix" result="shape"/><feGaussianBlur result="effect1_foregroundBlur_4002_3652" stdDeviation=".5"/></filter><filter id="filter16_f_4002_3652" width="1.822" height="3.07" x="11.457" y="6.45" color-interpolation-filters="sRGB" filterUnits="userSpaceOnUse"><feFlood flood-opacity="0" result="BackgroundImageFix"/><feBlend in="SourceGraphic" in2="BackgroundImageFix" result="shape"/><feGaussianBlur result="effect1_foregroundBlur_4002_3652" stdDeviation=".125"/></filter><linearGradient id="paint1_linear_4002_3652" x1="6.24" x2="4.875" y1="18.353" y2="18.353" gradientUnits="userSpaceOnUse"><stop stop-color="#BD6A1E"/><stop offset="1" stop-color="#D77A1C"/></linearGradient><linearGradient id="paint2_linear_4002_3652" x1="27.875" x2="26.281" y1="15.634" y2="20.571" gradientUnits="userSpaceOnUse"><stop stop-color="#FFE446"/><stop offset="1" stop-color="#FFC339"/></linearGradient><linearGradient id="paint14_linear_4002_3652" x1="11.656" x2="9.203" y1="13.955" y2="14.384" gradientUnits="userSpaceOnUse"><stop stop-color="#D06654"/><stop offset="1" stop-color="#D06654" stop-opacity="0"/></linearGradient><linearGradient id="paint15_linear_4002_3652" x1="21.756" x2="19.303" y1="13.955" y2="14.384" gradientUnits="userSpaceOnUse"><stop stop-color="#D06654"/><stop offset="1" stop-color="#D06654" stop-opacity="0"/></linearGradient><linearGradient id="paint25_linear_4002_3652" x1="17.738" x2="15.672" y1="20.462" y2="20.712" gradientUnits="userSpaceOnUse"><stop stop-color="#FFE83C"/><stop offset="1" stop-color="#FFE83C" stop-opacity="0"/></linearGradient><linearGradient id="paint26_linear_4002_3652" x1="14" x2="15.625" y1="20.853" y2="21.103" gradientUnits="userSpaceOnUse"><stop stop-color="#EE9B22"/><stop offset="1" stop-color="#EE9B22" stop-opacity="0"/></linearGradient><linearGradient id="paint27_linear_4002_3652" x1="15.99" x2="15.99" y1="22.118" y2="20.618" gradientUnits="userSpaceOnUse"><stop stop-color="#E08137"/><stop offset="1" stop-color="#E08137" stop-opacity="0"/></linearGradient><linearGradient id="paint31_linear_4002_3652" x1="22.059" x2="21.36" y1="17.299" y2="17.73" gradientUnits="userSpaceOnUse"><stop stop-color="#B4948D"/><stop offset="1" stop-color="#B4948D" stop-opacity="0"/></linearGradient><linearGradient id="paint33_linear_4002_3652" x1="13.292" x2="12.595" y1="17.304" y2="17.733" gradientUnits="userSpaceOnUse"><stop stop-color="#B4948D"/><stop offset="1" stop-color="#B4948D" stop-opacity="0"/></linearGradient><linearGradient id="paint38_linear_4002_3652" x1="11.5" x2="12.75" y1="6.851" y2="9.398" gradientUnits="userSpaceOnUse"><stop stop-color="#DC9228"/><stop offset="1" stop-color="#DC9228" stop-opacity="0"/></linearGradient></defs></svg>