<svg xmlns="http://www.w3.org/2000/svg" width="32" height="32" fill="none" viewBox="0 0 32 32"><path fill="url(#paint0_radial_4002_852)" d="M2.054 30.1v-8.954l5.204-1.977 2.513 1.29c-.22-.383.6-.538 1.07.43.235.48-.112 1.812-.597 2.421l-1.32 1.48a.4.4 0 0 0 .023.557l5 4.752H2.054Z"/><path fill="url(#paint1_linear_4002_852)" d="M2.054 30.1v-8.954l5.204-1.977 2.513 1.29c-.22-.383.6-.538 1.07.43.235.48-.112 1.812-.597 2.421l-1.32 1.48a.4.4 0 0 0 .023.557l5 4.752H2.054Z"/><path fill="url(#paint2_linear_4002_852)" d="M9.29 17.093a.934.934 0 0 1 .456-.698l-7.692 2.651v2.661c.68-.275 2.227-.92 3.284-1.415.886-.414 1.715-.409 2.178-.289l3.341.924-1.32-2.768c-.248-.52-.303-.66-.248-1.066Z"/><path fill="url(#paint3_linear_4002_852)" d="M9.29 17.093a.934.934 0 0 1 .456-.698l-7.692 2.651v2.661c.68-.275 2.227-.92 3.284-1.415.886-.414 1.715-.409 2.178-.289l3.341.924-1.32-2.768c-.248-.52-.303-.66-.248-1.066Z"/><path fill="url(#paint4_radial_4002_852)" d="M9.29 17.093a.934.934 0 0 1 .456-.698l-7.692 2.651v2.661c.68-.275 2.227-.92 3.284-1.415.886-.414 1.715-.409 2.178-.289l3.341.924-1.32-2.768c-.248-.52-.303-.66-.248-1.066Z"/><path fill="url(#paint5_radial_4002_852)" d="M9.29 17.093a.934.934 0 0 1 .456-.698l-7.692 2.651v2.661c.68-.275 2.227-.92 3.284-1.415.886-.414 1.715-.409 2.178-.289l3.341.924-1.32-2.768c-.248-.52-.303-.66-.248-1.066Z"/><path fill="url(#paint6_radial_4002_852)" d="M9.29 17.093a.934.934 0 0 1 .456-.698l-7.692 2.651v2.661c.68-.275 2.227-.92 3.284-1.415.886-.414 1.715-.409 2.178-.289l3.341.924-1.32-2.768c-.248-.52-.303-.66-.248-1.066Z"/><g filter="url(#filter0_ii_4002_852)"><path fill="#A29EA7" d="M2.054 23.154v6.945h8.343a168.776 168.776 0 0 1-2.973-1.578c-1.038-.575-1.31-1.146-1.485-1.524-.065-.14-.186-.45-.371-.924l-.285-.724c-.322-.816-.953-1.219-1.437-1.422l-1.792-.773Z"/></g><path fill="url(#paint7_linear_4002_852)" d="M14.501 14.834 2.054 19.196V2.154h15.944c-.4 2.851-1.233 8.86-1.49 10.68-.183 1.303-.801 1.523-2.007 2Z"/><path fill="url(#paint8_linear_4002_852)" d="M14.501 14.834 2.054 19.196V2.154h15.944c-.4 2.851-1.233 8.86-1.49 10.68-.183 1.303-.801 1.523-2.007 2Z"/><path fill="url(#paint9_radial_4002_852)" d="M14.501 14.834 2.054 19.196V2.154h15.944c-.4 2.851-1.233 8.86-1.49 10.68-.183 1.303-.801 1.523-2.007 2Z"/><g filter="url(#filter1_f_4002_852)"><path fill="url(#paint10_linear_4002_852)" d="m16.568 12.409-.06.425c-.113.802-.39 1.194-.87 1.488l-.857-1.286-.946-1.329a.232.232 0 0 1 .324-.323l-.127-.178a.28.28 0 0 1 .291-.433l-.023-.033a.28.28 0 1 1 .455-.324l.106.147a.28.28 0 0 1 .5-.223l.5.819.026-.229a.293.293 0 0 1 .345-.254.3.3 0 0 1 .238.345 4.31 4.31 0 0 0-.06.6c.001.39.072.613.158.788Z"/></g><path fill="url(#paint11_radial_4002_852)" fill-rule="evenodd" d="M23.362 13.914c-3.618-1.712-4.891-4.456-5.481-6.545-.111-.427.035-.996.59-1.09l.693-.157a.409.409 0 0 1 .476.341c.33 2.085 1.175 4.09 4.47 5.869l-.748 1.582Z" clip-rule="evenodd"/><g filter="url(#filter2_f_4002_852)"><path stroke="url(#paint12_linear_4002_852)" stroke-linecap="round" stroke-width=".5" d="M19.264 7.948c.07.492.482 1.784 1.58 3.02"/></g><path fill="url(#paint13_linear_4002_852)" d="M9.918 2.154c.551 1.054 1.37 2.957 1.85 4.836.78 3.062-.25 5.281-3.75 6.312a880.672 880.672 0 0 1-5.964 1.725V2.154h7.864Z"/><path fill="url(#paint14_radial_4002_852)" d="M9.918 2.154c.551 1.054 1.37 2.957 1.85 4.836.78 3.062-.25 5.281-3.75 6.312a880.672 880.672 0 0 1-5.964 1.725V2.154h7.864Z"/><path fill="url(#paint15_linear_4002_852)" d="M9.918 2.154c.551 1.054 1.37 2.957 1.85 4.836.78 3.062-.25 5.281-3.75 6.312a880.672 880.672 0 0 1-5.964 1.725V2.154h7.864Z"/><g filter="url(#filter3_i_4002_852)"><path fill="url(#paint16_radial_4002_852)" d="M13.638 2.11c.393 1.553.85 4.693.134 7.329a.276.276 0 0 0 .165.331.23.23 0 0 0 .144.01c.378-.105.836-.512 1.153-1.287.567-1.385 1.18-3.75 1.637-5.515l.226-.868h-3.46Z"/></g><g filter="url(#filter4_i_4002_852)"><path fill="url(#paint17_linear_4002_852)" d="M18.984 2.154v9.588c0 .132.027.263.079.384l1.706 3.989.42.137c.05.114.166.978.28.929a.225.225 0 0 0 .119-.295l-2.112-4.937a.525.525 0 0 1-.042-.207V2.154h-.45Z"/></g><path fill="url(#paint18_radial_4002_852)" d="M22.15 8.388c.032-.207.153-.27.45-.351a.7.7 0 0 0 .387-.248l-.458.994c-.21 0-.41-.188-.379-.395Z"/><path fill="url(#paint19_linear_4002_852)" d="m24.299 19.15 1.906.63v.73a.953.953 0 0 1-1.906 0v-1.36Z"/><path fill="url(#paint20_radial_4002_852)" d="m24.299 19.15 1.906.63v.73a.953.953 0 0 1-1.906 0v-1.36Z"/><path fill="url(#paint21_radial_4002_852)" d="m24.299 19.15 1.906.63v.73a.953.953 0 0 1-1.906 0v-1.36Z"/><path fill="url(#paint22_radial_4002_852)" d="M23.43 10.855h1.905v1.844H23.43z" transform="rotate(7.73 23.43 10.855)"/><g filter="url(#filter5_ii_4002_852)"><path fill="url(#paint23_radial_4002_852)" d="M22.01 9.576c.277-.875.95-1.815 1.21-2.188l2.9 1.867-.595 2.047a4.455 4.455 0 0 1-1.812 0c-.945-.21-2.067-.578-1.703-1.726Z"/><path fill="url(#paint24_radial_4002_852)" d="M22.01 9.576c.277-.875.95-1.815 1.21-2.188l2.9 1.867-.595 2.047a4.455 4.455 0 0 1-1.812 0c-.945-.21-2.067-.578-1.703-1.726Z"/></g><path fill="url(#paint25_linear_4002_852)" fill-rule="evenodd" d="M24.373 18.063c.11 0 .2.09.2.2v.883a.2.2 0 0 1-.4 0v-.883c0-.11.09-.2.2-.2Z" clip-rule="evenodd"/><path fill="url(#paint26_linear_4002_852)" fill-rule="evenodd" d="M24.184 19.112a.2.2 0 0 1 .255-.124l1.742.606a.2.2 0 1 1-.131.378l-1.743-.606a.2.2 0 0 1-.123-.254Z" clip-rule="evenodd"/><path fill="url(#paint27_radial_4002_852)" fill-rule="evenodd" d="M24.184 19.112a.2.2 0 0 1 .255-.124l1.742.606a.2.2 0 1 1-.131.378l-1.743-.606a.2.2 0 0 1-.123-.254Z" clip-rule="evenodd"/><path fill="#290017" fill-rule="evenodd" d="M22.375 9.294a.1.1 0 0 1 .139-.028c.085.055.25.102.52.04a.1.1 0 1 1 .045.195c-.308.071-.533.025-.675-.068a.1.1 0 0 1-.029-.139Z" clip-rule="evenodd"/><g filter="url(#filter6_i_4002_852)"><path fill="#1B131D" d="m25.127 10.525.488-1.367 1.356 1.015c-.2.301-.727.563-.938.625a.435.435 0 0 1-.074.657c-.14.09-.508.105-.758-.204-.2-.246-.133-.587-.074-.726Z"/><path fill="url(#paint28_radial_4002_852)" d="m25.127 10.525.488-1.367 1.356 1.015c-.2.301-.727.563-.938.625a.435.435 0 0 1-.074.657c-.14.09-.508.105-.758-.204-.2-.246-.133-.587-.074-.726Z"/></g><path fill="#fff" d="M23.502 7.904c-.201.031-.326.221-.387.32l.735.485c.257-.625-.075-.848-.348-.805Z"/><path fill="#40262E" d="m18.893 21.1.39-.407 2.11 1.187-.493.5 1.836 3.922.8.576a.2.2 0 0 1 .047.277l-1.753 2.487c-.06.087-.171.128-.263.075-.178-.102-.37-.296-.37-.579-.037-.556.193-1.7.313-2.203a424.83 424.83 0 0 1-2.75-3.945c-.613-.9-.167-1.636.133-1.89Z"/><path fill="url(#paint29_linear_4002_852)" d="m18.893 21.1.39-.407 2.11 1.187-.493.5 1.836 3.922.8.576a.2.2 0 0 1 .047.277l-1.753 2.487c-.06.087-.171.128-.263.075-.178-.102-.37-.296-.37-.579-.037-.556.193-1.7.313-2.203a424.83 424.83 0 0 1-2.75-3.945c-.613-.9-.167-1.636.133-1.89Z"/><path fill="url(#paint30_radial_4002_852)" d="m18.893 21.1.39-.407 2.11 1.187-.493.5 1.836 3.922.8.576a.2.2 0 0 1 .047.277l-1.753 2.487c-.06.087-.171.128-.263.075-.178-.102-.37-.296-.37-.579-.037-.556.193-1.7.313-2.203a424.83 424.83 0 0 1-2.75-3.945c-.613-.9-.167-1.636.133-1.89Z"/><path fill="#544583" d="m22.738 26.303.799.575a.2.2 0 0 1 .046.278l-1.753 2.486c-.06.087-.171.128-.263.075-.178-.101-.37-.296-.37-.579-.037-.556.193-1.7.313-2.203l-.002-.002 1.23-.63Z"/><path fill="url(#paint31_radial_4002_852)" d="m22.738 26.303.799.575a.2.2 0 0 1 .046.278l-1.753 2.486c-.06.087-.171.128-.263.075-.178-.101-.37-.296-.37-.579-.037-.556.193-1.7.313-2.203l-.002-.002 1.23-.63Z"/><path fill="url(#paint32_radial_4002_852)" d="m22.738 26.303.799.575a.2.2 0 0 1 .046.278l-1.753 2.486c-.06.087-.171.128-.263.075-.178-.101-.37-.296-.37-.579-.037-.556.193-1.7.313-2.203l-.002-.002 1.23-.63Z"/><path fill="url(#paint33_linear_4002_852)" d="m22.738 26.303.799.575a.2.2 0 0 1 .046.278l-1.753 2.486c-.06.087-.171.128-.263.075-.178-.101-.37-.296-.37-.579-.037-.556.193-1.7.313-2.203l-.002-.002 1.23-.63Z"/><path fill="url(#paint34_radial_4002_852)" d="m22.738 26.303.799.575a.2.2 0 0 1 .046.278l-1.753 2.486c-.06.087-.171.128-.263.075-.178-.101-.37-.296-.37-.579-.037-.556.193-1.7.313-2.203l-.002-.002 1.23-.63Z"/><path fill="url(#paint35_linear_4002_852)" d="M23.528 8.496a.887.887 0 0 0 .026-.04c.132-.216.144-.448.027-.519-.116-.07-.317.047-.448.263a.84.84 0 0 0-.015.026l.41.27Z"/><path fill="#414141" d="M23.37 8.392a.466.466 0 0 0 .053-.07c.073-.12.081-.25.019-.288-.064-.038-.174.028-.247.148a.467.467 0 0 0-.035.071l.21.14Z"/><circle cx="23.462" cy="8.032" r=".072" fill="#DFDFDF"/><path fill="url(#paint36_linear_4002_852)" d="m22.322 13.052-1.25 2.82 3.39 2.258c.563-.726 1.267-2.851 1.243-4.242-.018-1.055-.436-1.404-1.101-1.765-.317-.172-1.026-.28-1.399-.16-.373.12-.73.663-.883 1.09Z"/><path fill="url(#paint37_radial_4002_852)" d="m22.322 13.052-1.25 2.82 3.39 2.258c.563-.726 1.267-2.851 1.243-4.242-.018-1.055-.436-1.404-1.101-1.765-.317-.172-1.026-.28-1.399-.16-.373.12-.73.663-.883 1.09Z"/><path fill="url(#paint38_radial_4002_852)" d="m22.322 13.052-1.25 2.82 3.39 2.258c.563-.726 1.267-2.851 1.243-4.242-.018-1.055-.436-1.404-1.101-1.765-.317-.172-1.026-.28-1.399-.16-.373.12-.73.663-.883 1.09Z"/><path fill="url(#paint39_radial_4002_852)" d="m22.322 13.052-1.25 2.82 3.39 2.258c.563-.726 1.267-2.851 1.243-4.242-.018-1.055-.436-1.404-1.101-1.765-.317-.172-1.026-.28-1.399-.16-.373.12-.73.663-.883 1.09Z"/><path fill="url(#paint40_radial_4002_852)" d="m22.322 13.052-1.25 2.82 3.39 2.258c.563-.726 1.267-2.851 1.243-4.242-.018-1.055-.436-1.404-1.101-1.765-.317-.172-1.026-.28-1.399-.16-.373.12-.73.663-.883 1.09Z"/><g filter="url(#filter7_i_4002_852)"><path fill="#67636C" d="m19.162 20.812.969-1.17 4.058-.988c-.765 1.394-2 3.052-2.187 3.277-.235.281-.555.34-.89.176-.813-.4-1.61-.947-1.95-1.295Z"/><path fill="url(#paint41_radial_4002_852)" d="m19.162 20.812.969-1.17 4.058-.988c-.765 1.394-2 3.052-2.187 3.277-.235.281-.555.34-.89.176-.813-.4-1.61-.947-1.95-1.295Z"/><path fill="url(#paint42_radial_4002_852)" d="m19.162 20.812.969-1.17 4.058-.988c-.765 1.394-2 3.052-2.187 3.277-.235.281-.555.34-.89.176-.813-.4-1.61-.947-1.95-1.295Z"/><path fill="url(#paint43_radial_4002_852)" d="m19.162 20.812.969-1.17 4.058-.988c-.765 1.394-2 3.052-2.187 3.277-.235.281-.555.34-.89.176-.813-.4-1.61-.947-1.95-1.295Z"/></g><g filter="url(#filter8_i_4002_852)"><path fill="#432B2A" d="m18.123 15.51.797.32-.836 2.25-.834-.52a.25.25 0 0 0-.245-.01l-6.036 3.047a.2.2 0 0 1-.27-.091l-1.33-2.759c-.047-.095-.03-.215.06-.272.24-.153.505-.097.905.112.381.2 1.143.895 1.492 1.215 1.1-.765 3.307-2.392 4.05-2.945.837-.621 1.846-.517 2.247-.348Z"/><path fill="url(#paint44_linear_4002_852)" d="m18.123 15.51.797.32-.836 2.25-.834-.52a.25.25 0 0 0-.245-.01l-6.036 3.047a.2.2 0 0 1-.27-.091l-1.33-2.759c-.047-.095-.03-.215.06-.272.24-.153.505-.097.905.112.381.2 1.143.895 1.492 1.215 1.1-.765 3.307-2.392 4.05-2.945.837-.621 1.846-.517 2.247-.348Z"/></g><g filter="url(#filter9_i_4002_852)"><path fill="#A7959B" d="m20.791 16.529.195-.438 3.516 2.024c-.034.107-.239.498-.789 1.21-.86 1.079-1.848 1.024-2.953.766-1.106-.258-1.723-.492-2.063-.601-.34-.11-.724-.306-.836-.64-.09-.27.034-.78.102-.954l.782-2.137a.02.02 0 0 1 .026-.012l2.02.782Z"/><path fill="url(#paint45_radial_4002_852)" d="m20.791 16.529.195-.438 3.516 2.024c-.034.107-.239.498-.789 1.21-.86 1.079-1.848 1.024-2.953.766-1.106-.258-1.723-.492-2.063-.601-.34-.11-.724-.306-.836-.64-.09-.27.034-.78.102-.954l.782-2.137a.02.02 0 0 1 .026-.012l2.02.782Z"/><path fill="url(#paint46_linear_4002_852)" d="m20.791 16.529.195-.438 3.516 2.024c-.034.107-.239.498-.789 1.21-.86 1.079-1.848 1.024-2.953.766-1.106-.258-1.723-.492-2.063-.601-.34-.11-.724-.306-.836-.64-.09-.27.034-.78.102-.954l.782-2.137a.02.02 0 0 1 .026-.012l2.02.782Z"/><path fill="url(#paint47_radial_4002_852)" d="m20.791 16.529.195-.438 3.516 2.024c-.034.107-.239.498-.789 1.21-.86 1.079-1.848 1.024-2.953.766-1.106-.258-1.723-.492-2.063-.601-.34-.11-.724-.306-.836-.64-.09-.27.034-.78.102-.954l.782-2.137a.02.02 0 0 1 .026-.012l2.02.782Z"/></g><g filter="url(#filter10_i_4002_852)"><path fill="#9F97A9" d="m20.791 16.529.195-.438 3.516 2.024c-.034.107-.239.498-.789 1.21-.86 1.079-1.848 1.024-2.953.766-1.106-.258-1.723-.492-2.063-.601-.34-.11-.724-.306-.836-.64-.09-.27.034-.78.102-.954l.782-2.137a.02.02 0 0 1 .026-.012l2.02.782Z"/><path fill="url(#paint48_radial_4002_852)" d="m20.791 16.529.195-.438 3.516 2.024c-.034.107-.239.498-.789 1.21-.86 1.079-1.848 1.024-2.953.766-1.106-.258-1.723-.492-2.063-.601-.34-.11-.724-.306-.836-.64-.09-.27.034-.78.102-.954l.782-2.137a.02.02 0 0 1 .026-.012l2.02.782Z"/><path fill="url(#paint49_linear_4002_852)" d="m20.791 16.529.195-.438 3.516 2.024c-.034.107-.239.498-.789 1.21-.86 1.079-1.848 1.024-2.953.766-1.106-.258-1.723-.492-2.063-.601-.34-.11-.724-.306-.836-.64-.09-.27.034-.78.102-.954l.782-2.137a.02.02 0 0 1 .026-.012l2.02.782Z"/><path fill="url(#paint50_radial_4002_852)" d="m20.791 16.529.195-.438 3.516 2.024c-.034.107-.239.498-.789 1.21-.86 1.079-1.848 1.024-2.953.766-1.106-.258-1.723-.492-2.063-.601-.34-.11-.724-.306-.836-.64-.09-.27.034-.78.102-.954l.782-2.137a.02.02 0 0 1 .026-.012l2.02.782Z"/></g><g filter="url(#filter11_i_4002_852)"><path fill="#5C5089" d="m11.838 20.158-.91.455a.2.2 0 0 1-.27-.092l-1.32-2.758c-.046-.096 0-.23.09-.288.241-.153.506-.097.906.112.381.2 1.143.895 1.492 1.215l.012-.008v1.364Z"/><path fill="url(#paint51_radial_4002_852)" d="m11.838 20.158-.91.455a.2.2 0 0 1-.27-.092l-1.32-2.758c-.046-.096 0-.23.09-.288.241-.153.506-.097.906.112.381.2 1.143.895 1.492 1.215l.012-.008v1.364Z"/></g><path fill="url(#paint52_linear_4002_852)" fill-rule="evenodd" d="M20.77 15.896a.25.25 0 0 1 .341-.092l3.629 2.09a.25.25 0 1 1-.25.434l-3.628-2.09a.25.25 0 0 1-.092-.342Z" clip-rule="evenodd"/><path fill="url(#paint53_linear_4002_852)" fill-rule="evenodd" d="M20.77 15.896a.25.25 0 0 1 .341-.092l3.629 2.09a.25.25 0 1 1-.25.434l-3.628-2.09a.25.25 0 0 1-.092-.342Z" clip-rule="evenodd"/><path fill="url(#paint54_radial_4002_852)" fill-rule="evenodd" d="M20.77 15.896a.25.25 0 0 1 .341-.092l3.629 2.09a.25.25 0 1 1-.25.434l-3.628-2.09a.25.25 0 0 1-.092-.342Z" clip-rule="evenodd"/><path fill="#3F292A" d="M20.182 7.029a1.42 1.42 0 0 1-.25.816l-.282-.695-.27.07c-.316.078-.437-.094-.456-.191-.02-.098-.043-.387.37-.469.415-.082.884-.023.888.469Z"/><path fill="url(#paint55_radial_4002_852)" d="M20.182 7.029a1.42 1.42 0 0 1-.25.816l-.282-.695-.27.07c-.316.078-.437-.094-.456-.191-.02-.098-.043-.387.37-.469.415-.082.884-.023.888.469Z"/><path fill="#4D3C3D" d="M14.663 11.348a.232.232 0 0 1 .305-.349l1.245 1.088-.305.35-1.245-1.089Z"/><path fill="url(#paint56_linear_4002_852)" d="M14.663 11.348a.232.232 0 0 1 .305-.349l1.245 1.088-.305.35-1.245-1.089Z"/><path fill="#4D3C3D" d="M14.738 10.815a.28.28 0 0 1 .367-.42l1.5 1.31-.367.42-1.5-1.31Z"/><path fill="url(#paint57_linear_4002_852)" d="M14.738 10.815a.28.28 0 0 1 .367-.42l1.5 1.31-.367.42-1.5-1.31Z"/><path fill="#4D3C3D" d="M14.89 10.3a.28.28 0 0 1 .368-.421l1.754 1.506-.368.42L14.89 10.3Z"/><path fill="url(#paint58_linear_4002_852)" d="M14.89 10.3a.28.28 0 0 1 .368-.421l1.754 1.506-.368.42L14.89 10.3Z"/><circle cx="25.146" cy="9.445" r=".559" fill="url(#paint59_radial_4002_852)"/><path fill="#4D3771" fill-rule="evenodd" d="M25.412 8.594a.25.25 0 0 1 .032.353l-1.992 2.394a.25.25 0 0 1-.384-.32l1.992-2.394a.25.25 0 0 1 .352-.033Z" clip-rule="evenodd"/><path fill="url(#paint60_linear_4002_852)" fill-rule="evenodd" d="M25.412 8.594a.25.25 0 0 1 .032.353l-1.992 2.394a.25.25 0 0 1-.384-.32l1.992-2.394a.25.25 0 0 1 .352-.033Z" clip-rule="evenodd"/><path fill="url(#paint61_linear_4002_852)" fill-rule="evenodd" d="M25.412 8.594a.25.25 0 0 1 .032.353l-1.992 2.394a.25.25 0 0 1-.384-.32l1.992-2.394a.25.25 0 0 1 .352-.033Z" clip-rule="evenodd"/><path fill="url(#paint62_radial_4002_852)" fill-rule="evenodd" d="M25.412 8.594a.25.25 0 0 1 .032.353l-1.992 2.394a.25.25 0 0 1-.384-.32l1.992-2.394a.25.25 0 0 1 .352-.033Z" clip-rule="evenodd"/><g filter="url(#filter12_i_4002_852)"><path fill="url(#paint63_radial_4002_852)" d="M26.808 10.16 23.18 7.464a.222.222 0 0 1-.069-.288 4.79 4.79 0 0 1 .655-.866c.906-.957 1.909-.492 2.055-.438.21.078.754.313 1.5 1.024.875.834.742 1.703.476 2.226-.167.33-.457.742-.663 1a.235.235 0 0 1-.326.038Z"/></g><g filter="url(#filter13_i_4002_852)"><path fill="url(#paint64_radial_4002_852)" d="M24.809 7.542a.302.302 0 0 1 .423-.055l.984.757a.302.302 0 0 1-.368.479l-.984-.758a.302.302 0 0 1-.055-.423Z"/></g><path fill="#4D3C3D" d="M15.463 10.069a.28.28 0 1 1 .367-.42l1.41 1.419-.226.512-1.551-1.511Z"/><path fill="url(#paint65_linear_4002_852)" d="M15.463 10.069a.28.28 0 1 1 .367-.42l1.41 1.419-.226.512-1.551-1.511Z"/><g filter="url(#filter14_i_4002_852)"><path fill="#472F32" fill-rule="evenodd" d="m17.962 14.343-2.655-2.435 1.259-1.372 2.59 2.527a.625.625 0 0 0 .581.15l1.65-.423.433 1.696-1.65.422a2.375 2.375 0 0 1-2.208-.565Z" clip-rule="evenodd"/></g><path fill="url(#paint66_radial_4002_852)" d="M20.793 16.524c.654.302 1.479.99 2.021 2.231.195.446.143.899-.041 1.322-.619.264-1.291.183-2.013.014-.906-.21-1.484-.406-1.85-.53a5.878 5.878 0 0 0-.213-.071c-.34-.11-.724-.306-.836-.64-.09-.27.034-.78.102-.954l.782-2.137a.02.02 0 0 1 .026-.012l2.02.782.002-.005Z"/><path fill="url(#paint67_radial_4002_852)" d="M20.793 16.524c.654.302 1.479.99 2.021 2.231.195.446.143.899-.041 1.322-.619.264-1.291.183-2.013.014-.906-.21-1.484-.406-1.85-.53a5.878 5.878 0 0 0-.213-.071c-.34-.11-.724-.306-.836-.64-.09-.27.034-.78.102-.954l.782-2.137a.02.02 0 0 1 .026-.012l2.02.782.002-.005Z"/><path fill="url(#paint68_radial_4002_852)" d="M20.793 16.524c.654.302 1.479.99 2.021 2.231.195.446.143.899-.041 1.322-.619.264-1.291.183-2.013.014-.906-.21-1.484-.406-1.85-.53a5.878 5.878 0 0 0-.213-.071c-.34-.11-.724-.306-.836-.64-.09-.27.034-.78.102-.954l.782-2.137a.02.02 0 0 1 .026-.012l2.02.782.002-.005Z"/><path fill="url(#paint69_radial_4002_852)" d="m21.218 15.138-.547-2.156c.64-.154 1.85-.479 2.09-.535.45-.106 1.266-.154 1.465.816.183.895-.518 1.18-.86 1.281l-2.148.594Z"/><path fill="url(#paint70_linear_4002_852)" d="m21.218 15.138-.547-2.156c.64-.154 1.85-.479 2.09-.535.45-.106 1.266-.154 1.465.816.183.895-.518 1.18-.86 1.281l-2.148.594Z"/><path fill="url(#paint71_radial_4002_852)" d="m21.218 15.138-.547-2.156c.64-.154 1.85-.479 2.09-.535.45-.106 1.266-.154 1.465.816.183.895-.518 1.18-.86 1.281l-2.148.594Z"/><path fill="#4D3C3D" d="m16.478 10.116.079.643.34 1.149.69-.367c-.175-.184-.309-.336-.44-.875a4.32 4.32 0 0 1-.08-.598.302.302 0 0 0-.312-.28.293.293 0 0 0-.277.328Z"/><path fill="#472F32" d="m16.478 10.116.079.643.34 1.149.69-.367c-.175-.184-.309-.336-.44-.875a4.32 4.32 0 0 1-.08-.598.302.302 0 0 0-.312-.28.293.293 0 0 0-.277.328Z"/><defs><radialGradient id="paint0_radial_4002_852" cx="0" cy="0" r="1" gradientTransform="matrix(1.4063 -8.03125 17.4103 3.0486 7.205 28.553)" gradientUnits="userSpaceOnUse"><stop offset=".378" stop-color="#E2E0E4"/><stop offset="1" stop-color="#A297AD"/></radialGradient><radialGradient id="paint4_radial_4002_852" cx="0" cy="0" r="1" gradientTransform="rotate(-83.29 17.074 5.38) scale(2.67447 5.21781)" gradientUnits="userSpaceOnUse"><stop offset=".356" stop-color="#BCB9BE"/><stop offset="1" stop-color="#BCB9BE" stop-opacity="0"/></radialGradient><radialGradient id="paint5_radial_4002_852" cx="0" cy="0" r="1" gradientTransform="rotate(155.431 2.997 10.63) scale(1.5806 2.92056)" gradientUnits="userSpaceOnUse"><stop offset=".126" stop-color="#958E9B"/><stop offset=".695" stop-color="#958E9B" stop-opacity="0"/></radialGradient><radialGradient id="paint6_radial_4002_852" cx="0" cy="0" r="1" gradientTransform="matrix(5.21875 -2.75 .52109 .98889 3.611 21.427)" gradientUnits="userSpaceOnUse"><stop offset=".457" stop-color="#9F9CA3"/><stop offset="1" stop-color="#9F9CA3" stop-opacity="0"/></radialGradient><radialGradient id="paint9_radial_4002_852" cx="0" cy="0" r="1" gradientTransform="rotate(174.89 9.339 5.28) scale(3.85909 10.4756)" gradientUnits="userSpaceOnUse"><stop offset=".351" stop-color="#E3D5D2"/><stop offset="1" stop-color="#E3D5D2" stop-opacity="0"/></radialGradient><radialGradient id="paint11_radial_4002_852" cx="0" cy="0" r="1" gradientTransform="matrix(1.15625 5.5625 -3.9363 .81822 20.018 7.24)" gradientUnits="userSpaceOnUse"><stop offset=".28" stop-color="#3E2829"/><stop offset=".884" stop-color="#382125"/></radialGradient><radialGradient id="paint14_radial_4002_852" cx="0" cy="0" r="1" gradientTransform="matrix(9.95983 -3.00679 4.88716 16.18849 2.054 8.59)" gradientUnits="userSpaceOnUse"><stop offset=".897" stop-color="#D1CFD2" stop-opacity="0"/><stop offset=".982" stop-color="#E5E3E5"/></radialGradient><radialGradient id="paint16_radial_4002_852" cx="0" cy="0" r="1" gradientTransform="matrix(2.875 -.8125 1.05147 3.72059 12.861 7.427)" gradientUnits="userSpaceOnUse"><stop offset=".275" stop-color="#E2DFE2"/><stop offset="1" stop-color="#D6D4D7"/></radialGradient><radialGradient id="paint18_radial_4002_852" cx="0" cy="0" r="1" gradientTransform="matrix(-.00002 .65234 -.82062 -.00003 22.572 8.13)" gradientUnits="userSpaceOnUse"><stop offset=".515" stop-color="#463736"/><stop offset="1" stop-color="#483637"/></radialGradient><radialGradient id="paint20_radial_4002_852" cx="0" cy="0" r="1" gradientTransform="matrix(0 -1.17188 1.40443 0 25.252 21.63)" gradientUnits="userSpaceOnUse"><stop stop-color="#5A3C98"/><stop offset="1" stop-color="#5A3C98" stop-opacity="0"/></radialGradient><radialGradient id="paint21_radial_4002_852" cx="0" cy="0" r="1" gradientTransform="matrix(.39063 .6836 -1.70288 .97308 24.174 19.15)" gradientUnits="userSpaceOnUse"><stop stop-color="#413B69"/><stop offset="1" stop-color="#413B69" stop-opacity="0"/></radialGradient><radialGradient id="paint22_radial_4002_852" cx="0" cy="0" r="1" gradientTransform="matrix(.00508 -1.12418 .93572 .00423 24.738 11.924)" gradientUnits="userSpaceOnUse"><stop stop-color="#493234"/><stop offset="1" stop-color="#321F20"/></radialGradient><radialGradient id="paint23_radial_4002_852" cx="0" cy="0" r="1" gradientTransform="rotate(44.105 .663 32.58) scale(2.82877 2.93389)" gradientUnits="userSpaceOnUse"><stop offset=".164" stop-color="#402E2D"/><stop offset="1" stop-color="#41292D"/></radialGradient><radialGradient id="paint24_radial_4002_852" cx="0" cy="0" r="1" gradientTransform="rotate(119.268 10.177 11.917) scale(1.62995 1.31525)" gradientUnits="userSpaceOnUse"><stop stop-color="#2B1A25"/><stop offset="1" stop-color="#2B1A25" stop-opacity="0"/></radialGradient><radialGradient id="paint27_radial_4002_852" cx="0" cy="0" r="1" gradientTransform="matrix(-.05078 .15625 -1.00516 -.32667 25.709 19.521)" gradientUnits="userSpaceOnUse"><stop stop-color="#63608C"/><stop offset="1" stop-color="#63608C" stop-opacity="0"/></radialGradient><radialGradient id="paint28_radial_4002_852" cx="0" cy="0" r="1" gradientTransform="matrix(-.7533 -.625 .19855 -.2393 25.82 10.813)" gradientUnits="userSpaceOnUse"><stop offset=".197" stop-color="#3E3C3D"/><stop offset="1" stop-color="#1D191C" stop-opacity="0"/></radialGradient><radialGradient id="paint30_radial_4002_852" cx="0" cy="0" r="1" gradientTransform="matrix(-2.23438 -.90624 .39526 -.97452 21.344 22)" gradientUnits="userSpaceOnUse"><stop offset=".191" stop-color="#3F282F"/><stop offset="1" stop-color="#3F282F" stop-opacity="0"/></radialGradient><radialGradient id="paint31_radial_4002_852" cx="0" cy="0" r="1" gradientTransform="rotate(-144.462 16.075 9.97) scale(.80647 2.46844)" gradientUnits="userSpaceOnUse"><stop stop-color="#5E598C"/><stop offset="1" stop-color="#5E598C" stop-opacity="0"/></radialGradient><radialGradient id="paint32_radial_4002_852" cx="0" cy="0" r="1" gradientTransform="rotate(-171.191 12.694 13.273) scale(2.03585 4.1214)" gradientUnits="userSpaceOnUse"><stop offset=".54" stop-color="#4D407B" stop-opacity="0"/><stop offset="1" stop-color="#4D407B"/></radialGradient><radialGradient id="paint34_radial_4002_852" cx="0" cy="0" r="1" gradientTransform="matrix(-1.85938 -.29686 .97701 -6.1195 22.799 28.24)" gradientUnits="userSpaceOnUse"><stop offset=".604" stop-color="#7A7996" stop-opacity="0"/><stop offset="1" stop-color="#7A7996"/></radialGradient><radialGradient id="paint37_radial_4002_852" cx="0" cy="0" r="1" gradientTransform="rotate(136.273 9.993 11.696) scale(2.98384 2.4723)" gradientUnits="userSpaceOnUse"><stop stop-color="#FF7857"/><stop offset="1" stop-color="#FF7857" stop-opacity="0"/></radialGradient><radialGradient id="paint38_radial_4002_852" cx="0" cy="0" r="1" gradientTransform="matrix(.28125 1.35937 -3.85802 .79821 23.549 11.724)" gradientUnits="userSpaceOnUse"><stop stop-color="#E2452B"/><stop offset="1" stop-color="#E2452B" stop-opacity="0"/></radialGradient><radialGradient id="paint39_radial_4002_852" cx="0" cy="0" r="1" gradientTransform="matrix(-2.06251 1.12498 -.6497 -1.19113 22.627 14.1)" gradientUnits="userSpaceOnUse"><stop stop-color="#F52715"/><stop offset="1" stop-color="#F52715" stop-opacity="0"/></radialGradient><radialGradient id="paint40_radial_4002_852" cx="0" cy="0" r="1" gradientTransform="matrix(.98437 .46875 -1.87887 3.94563 21.205 15.255)" gradientUnits="userSpaceOnUse"><stop offset=".206" stop-color="#F8736B"/><stop offset="1" stop-color="#F8736B" stop-opacity="0"/></radialGradient><radialGradient id="paint41_radial_4002_852" cx="0" cy="0" r="1" gradientTransform="matrix(1.64062 -2.32812 1.8984 1.3378 20.393 21.771)" gradientUnits="userSpaceOnUse"><stop stop-color="#716170"/><stop offset="1" stop-color="#716170" stop-opacity="0"/></radialGradient><radialGradient id="paint42_radial_4002_852" cx="0" cy="0" r="1" gradientTransform="matrix(.65625 .48438 -1.05948 1.43542 19.94 19.646)" gradientUnits="userSpaceOnUse"><stop stop-color="#948F8F"/><stop offset="1" stop-color="#948F8F" stop-opacity="0"/></radialGradient><radialGradient id="paint43_radial_4002_852" cx="0" cy="0" r="1" gradientTransform="matrix(-1.875 1.75 -.85312 -.91406 21.814 19.568)" gradientUnits="userSpaceOnUse"><stop offset=".12" stop-color="#5E505B"/><stop offset="1" stop-color="#5E505B" stop-opacity="0"/></radialGradient><radialGradient id="paint45_radial_4002_852" cx="0" cy="0" r="1" gradientTransform="matrix(-3.25 -1.34374 .47918 -1.15897 22.299 17.834)" gradientUnits="userSpaceOnUse"><stop stop-color="#AEA0A5"/><stop offset="1" stop-color="#AEA0A5" stop-opacity="0"/></radialGradient><radialGradient id="paint47_radial_4002_852" cx="0" cy="0" r="1" gradientTransform="matrix(-.29687 .53125 -3.08778 -1.7255 23.002 17.177)" gradientUnits="userSpaceOnUse"><stop stop-color="#816878"/><stop offset="1" stop-color="#816878" stop-opacity="0"/></radialGradient><radialGradient id="paint48_radial_4002_852" cx="0" cy="0" r="1" gradientTransform="matrix(-3.25 -1.34374 .47918 -1.15897 22.299 17.834)" gradientUnits="userSpaceOnUse"><stop stop-color="#AEA0A5"/><stop offset="1" stop-color="#AEA0A5" stop-opacity="0"/></radialGradient><radialGradient id="paint50_radial_4002_852" cx="0" cy="0" r="1" gradientTransform="matrix(-.29687 .53125 -3.08778 -1.7255 23.002 17.177)" gradientUnits="userSpaceOnUse"><stop stop-color="#816878"/><stop offset="1" stop-color="#816878" stop-opacity="0"/></radialGradient><radialGradient id="paint51_radial_4002_852" cx="0" cy="0" r="1" gradientTransform="rotate(-54.264 23.982 -.321) scale(1.57843 2.91744)" gradientUnits="userSpaceOnUse"><stop offset=".68" stop-color="#4A4476" stop-opacity="0"/><stop offset=".964" stop-color="#4A4476"/></radialGradient><radialGradient id="paint54_radial_4002_852" cx="0" cy="0" r="1" gradientTransform="matrix(1.21875 .67969 -.21221 .38051 20.658 16.13)" gradientUnits="userSpaceOnUse"><stop stop-color="#A6CA7D"/><stop offset="1" stop-color="#A6CA7D" stop-opacity="0"/></radialGradient><radialGradient id="paint55_radial_4002_852" cx="0" cy="0" r="1" gradientTransform="matrix(.70312 -.09375 .03207 .24052 19.68 6.734)" gradientUnits="userSpaceOnUse"><stop stop-color="#5F4F4D"/><stop offset="1" stop-color="#5F4F4D" stop-opacity="0"/></radialGradient><radialGradient id="paint59_radial_4002_852" cx="0" cy="0" r="1" gradientTransform="rotate(83.69 7.388 18.684) scale(.81745)" gradientUnits="userSpaceOnUse"><stop offset=".392" stop-color="#402D2F"/><stop offset="1" stop-color="#2E1018"/></radialGradient><radialGradient id="paint62_radial_4002_852" cx="0" cy="0" r="1" gradientTransform="matrix(.13672 .11328 -.664 .80138 24.65 9.63)" gradientUnits="userSpaceOnUse"><stop stop-color="#564975"/><stop offset="1" stop-color="#4D3A6E" stop-opacity="0"/></radialGradient><radialGradient id="paint63_radial_4002_852" cx="0" cy="0" r="1" gradientTransform="rotate(129.693 11.552 9.88) scale(2.03059 2.38667)" gradientUnits="userSpaceOnUse"><stop offset=".045" stop-color="#4FBDFF"/><stop offset=".919" stop-color="#52ABE4"/></radialGradient><radialGradient id="paint64_radial_4002_852" cx="0" cy="0" r="1" gradientTransform="matrix(.36719 -.45313 1.162 .94162 25.361 8.333)" gradientUnits="userSpaceOnUse"><stop offset=".218" stop-color="#4B89D0"/><stop offset="1" stop-color="#337BCD"/></radialGradient><radialGradient id="paint66_radial_4002_852" cx="0" cy="0" r="1" gradientTransform="rotate(-160.017 12.389 6.898) scale(3.29195 1.49462)" gradientUnits="userSpaceOnUse"><stop stop-color="#AEA0A4"/><stop offset="1" stop-color="#AEA0A4" stop-opacity="0"/></radialGradient><radialGradient id="paint67_radial_4002_852" cx="0" cy="0" r="1" gradientTransform="matrix(1.15626 -3.3125 9.2644 3.23382 19.44 19.585)" gradientUnits="userSpaceOnUse"><stop offset=".771" stop-color="#A49BA8" stop-opacity="0"/><stop offset="1" stop-color="#7E7776"/></radialGradient><radialGradient id="paint68_radial_4002_852" cx="0" cy="0" r="1" gradientTransform="rotate(78.869 -2.136 19.705) scale(2.50907 .7401)" gradientUnits="userSpaceOnUse"><stop stop-color="#ADA2A2"/><stop offset="1" stop-color="#ADA2A2" stop-opacity="0"/></radialGradient><radialGradient id="paint69_radial_4002_852" cx="0" cy="0" r="1" gradientTransform="rotate(98.903 6.254 16.083) scale(2.42307 5.69158)" gradientUnits="userSpaceOnUse"><stop offset=".274" stop-color="#FF722C"/><stop offset="1" stop-color="#F94B3A"/></radialGradient><radialGradient id="paint71_radial_4002_852" cx="0" cy="0" r="1" gradientTransform="matrix(-.92187 .21875 -.25309 -1.06657 24.393 13.052)" gradientUnits="userSpaceOnUse"><stop stop-color="#FF9057"/><stop offset="1" stop-color="#FF9057" stop-opacity="0"/></radialGradient><linearGradient id="paint1_linear_4002_852" x1="11.136" x2="11.136" y1="30.099" y2="28.804" gradientUnits="userSpaceOnUse"><stop stop-color="#D2CDD5"/><stop offset="1" stop-color="#E3E1E5" stop-opacity="0"/></linearGradient><linearGradient id="paint2_linear_4002_852" x1="5.018" x2="6.174" y1="17.677" y2="20.959" gradientUnits="userSpaceOnUse"><stop offset=".373" stop-color="#A9A5AD"/><stop offset="1" stop-color="#A5A2A8"/></linearGradient><linearGradient id="paint3_linear_4002_852" x1="5.518" x2="5.861" y1="17.677" y2="18.646" gradientUnits="userSpaceOnUse"><stop offset=".142" stop-color="#948B99"/><stop offset="1" stop-color="#AAA6AE" stop-opacity="0"/></linearGradient><linearGradient id="paint7_linear_4002_852" x1="13.111" x2="11.268" y1="1.99" y2="15.115" gradientUnits="userSpaceOnUse"><stop offset=".518" stop-color="#E5E3E5"/><stop offset="1" stop-color="#AE9EA8"/></linearGradient><linearGradient id="paint8_linear_4002_852" x1="2.299" x2="12.83" y1="17.865" y2="13.709" gradientUnits="userSpaceOnUse"><stop offset=".293" stop-color="#9C93A5"/><stop offset="1" stop-color="#9C93A5" stop-opacity="0"/></linearGradient><linearGradient id="paint10_linear_4002_852" x1="13.967" x2="16.568" y1="10.816" y2="15.334" gradientUnits="userSpaceOnUse"><stop offset=".368" stop-color="#908790"/><stop offset="1" stop-color="#908790" stop-opacity="0"/></linearGradient><linearGradient id="paint12_linear_4002_852" x1="19.16" x2="21.086" y1="8.243" y2="11.402" gradientUnits="userSpaceOnUse"><stop stop-color="#584949"/><stop offset="1" stop-color="#584949" stop-opacity="0"/></linearGradient><linearGradient id="paint13_linear_4002_852" x1="4.205" x2="6.58" y1="5.396" y2="13.677" gradientUnits="userSpaceOnUse"><stop stop-color="#C7C5C9"/><stop offset="1" stop-color="#C2BFC5"/></linearGradient><linearGradient id="paint15_linear_4002_852" x1="5.486" x2="5.205" y1="14.287" y2="13.287" gradientUnits="userSpaceOnUse"><stop stop-color="#9D94A6"/><stop offset="1" stop-color="#C3C0C6" stop-opacity="0"/></linearGradient><linearGradient id="paint17_linear_4002_852" x1="19.274" x2="20.633" y1="11.098" y2="15.758" gradientUnits="userSpaceOnUse"><stop stop-color="#489778"/><stop offset="1" stop-color="#648431"/></linearGradient><linearGradient id="paint19_linear_4002_852" x1="24.799" x2="26.205" y1="20.443" y2="20.443" gradientUnits="userSpaceOnUse"><stop stop-color="#554682"/><stop offset="1" stop-color="#66619B"/></linearGradient><linearGradient id="paint25_linear_4002_852" x1="24.573" x2="24.299" y1="18.705" y2="18.705" gradientUnits="userSpaceOnUse"><stop offset=".269" stop-color="#535478"/><stop offset="1" stop-color="#333061"/></linearGradient><linearGradient id="paint26_linear_4002_852" x1="26.189" x2="24.173" y1="19.983" y2="19.146" gradientUnits="userSpaceOnUse"><stop stop-color="#40347F"/><stop offset="1" stop-color="#292557"/></linearGradient><linearGradient id="paint29_linear_4002_852" x1="22.5" x2="21.375" y1="25.438" y2="26" gradientUnits="userSpaceOnUse"><stop offset=".267" stop-color="#635050"/><stop offset="1" stop-color="#635050" stop-opacity="0"/></linearGradient><linearGradient id="paint33_linear_4002_852" x1="22.959" x2="22.854" y1="28.064" y2="27.982" gradientUnits="userSpaceOnUse"><stop stop-color="#4B4386"/><stop offset="1" stop-color="#4B4386" stop-opacity="0"/></linearGradient><linearGradient id="paint35_linear_4002_852" x1="23.357" x2="23.604" y1="8.388" y2="7.951" gradientUnits="userSpaceOnUse"><stop stop-color="#6F443D"/><stop offset="1" stop-color="#5A332D"/></linearGradient><linearGradient id="paint36_linear_4002_852" x1="24.58" x2="22.393" y1="15.958" y2="12.146" gradientUnits="userSpaceOnUse"><stop stop-color="#FF712F"/><stop offset="1" stop-color="#FF2F0B"/></linearGradient><linearGradient id="paint44_linear_4002_852" x1="13.875" x2="14.5" y1="17" y2="17.999" gradientUnits="userSpaceOnUse"><stop stop-color="#564748"/><stop offset="1" stop-color="#564748" stop-opacity="0"/></linearGradient><linearGradient id="paint46_linear_4002_852" x1="19.83" x2="20.799" y1="20.247" y2="17.271" gradientUnits="userSpaceOnUse"><stop stop-color="#8C7786"/><stop offset="1" stop-color="#8C7786" stop-opacity="0"/></linearGradient><linearGradient id="paint49_linear_4002_852" x1="19.83" x2="20.799" y1="20.247" y2="17.271" gradientUnits="userSpaceOnUse"><stop stop-color="#8C7786"/><stop offset="1" stop-color="#8C7786" stop-opacity="0"/></linearGradient><linearGradient id="paint52_linear_4002_852" x1="22.801" x2="22.801" y1="16.834" y2="18.271" gradientUnits="userSpaceOnUse"><stop stop-color="#8BAD3A"/><stop offset="1" stop-color="#337267"/></linearGradient><linearGradient id="paint53_linear_4002_852" x1="23.994" x2="24.225" y1="18.361" y2="17.916" gradientUnits="userSpaceOnUse"><stop offset=".457" stop-color="#3A5669"/><stop offset="1" stop-color="#417C62" stop-opacity="0"/></linearGradient><linearGradient id="paint56_linear_4002_852" x1="15.315" x2="15.643" y1="11.857" y2="11.474" gradientUnits="userSpaceOnUse"><stop offset=".002" stop-color="#432E34"/><stop offset="1" stop-color="#432E34" stop-opacity="0"/></linearGradient><linearGradient id="paint57_linear_4002_852" x1="15.523" x2="15.918" y1="11.428" y2="10.967" gradientUnits="userSpaceOnUse"><stop offset=".002" stop-color="#432E34"/><stop offset="1" stop-color="#432E34" stop-opacity="0"/></linearGradient><linearGradient id="paint58_linear_4002_852" x1="15.789" x2="16.226" y1="11.032" y2="10.513" gradientUnits="userSpaceOnUse"><stop offset=".002" stop-color="#432E34"/><stop offset="1" stop-color="#432E34" stop-opacity="0"/></linearGradient><linearGradient id="paint60_linear_4002_852" x1="24.643" x2="24.322" y1="9.984" y2="9.74" gradientUnits="userSpaceOnUse"><stop stop-color="#37234C"/><stop offset="1" stop-color="#37234C" stop-opacity="0"/></linearGradient><linearGradient id="paint61_linear_4002_852" x1="23.189" x2="23.627" y1="10.537" y2="10.826" gradientUnits="userSpaceOnUse"><stop offset=".324" stop-color="#72687C"/><stop offset="1" stop-color="#72687C" stop-opacity="0"/></linearGradient><linearGradient id="paint65_linear_4002_852" x1="16.207" x2="16.651" y1="10.804" y2="10.359" gradientUnits="userSpaceOnUse"><stop offset=".002" stop-color="#432E34"/><stop offset="1" stop-color="#432E34" stop-opacity="0"/></linearGradient><linearGradient id="paint70_linear_4002_852" x1="22.908" x2="22.783" y1="14.865" y2="13.943" gradientUnits="userSpaceOnUse"><stop stop-color="#E43E1C"/><stop offset="1" stop-color="#FB5139" stop-opacity="0"/></linearGradient><filter id="filter0_ii_4002_852" width="8.743" height="7.346" x="1.654" y="23.154" color-interpolation-filters="sRGB" filterUnits="userSpaceOnUse"><feFlood flood-opacity="0" result="BackgroundImageFix"/><feBlend in="SourceGraphic" in2="BackgroundImageFix" result="shape"/><feColorMatrix in="SourceAlpha" result="hardAlpha" values="0 0 0 0 0 0 0 0 0 0 0 0 0 0 0 0 0 0 127 0"/><feOffset dx="-.4" dy=".4"/><feGaussianBlur stdDeviation=".5"/><feComposite in2="hardAlpha" k2="-1" k3="1" operator="arithmetic"/><feColorMatrix values="0 0 0 0 0.635294 0 0 0 0 0.607843 0 0 0 0 0.670588 0 0 0 1 0"/><feBlend in2="shape" result="effect1_innerShadow_4002_852"/><feColorMatrix in="SourceAlpha" result="hardAlpha" values="0 0 0 0 0 0 0 0 0 0 0 0 0 0 0 0 0 0 127 0"/><feOffset dx="-.1" dy=".1"/><feGaussianBlur stdDeviation=".5"/><feComposite in2="hardAlpha" k2="-1" k3="1" operator="arithmetic"/><feColorMatrix values="0 0 0 0 0.847059 0 0 0 0 0.831373 0 0 0 0 0.862745 0 0 0 1 0"/><feBlend in2="effect1_innerShadow_4002_852" result="effect2_innerShadow_4002_852"/></filter><filter id="filter1_f_4002_852" width="4.276" height="5.599" x="13.043" y="9.473" color-interpolation-filters="sRGB" filterUnits="userSpaceOnUse"><feFlood flood-opacity="0" result="BackgroundImageFix"/><feBlend in="SourceGraphic" in2="BackgroundImageFix" result="shape"/><feGaussianBlur result="effect1_foregroundBlur_4002_852" stdDeviation=".375"/></filter><filter id="filter2_f_4002_852" width="2.679" height="4.12" x="18.714" y="7.398" color-interpolation-filters="sRGB" filterUnits="userSpaceOnUse"><feFlood flood-opacity="0" result="BackgroundImageFix"/><feBlend in="SourceGraphic" in2="BackgroundImageFix" result="shape"/><feGaussianBlur result="effect1_foregroundBlur_4002_852" stdDeviation=".15"/></filter><filter id="filter3_i_4002_852" width="3.479" height="7.738" x="13.618" y="2.05" color-interpolation-filters="sRGB" filterUnits="userSpaceOnUse"><feFlood flood-opacity="0" result="BackgroundImageFix"/><feBlend in="SourceGraphic" in2="BackgroundImageFix" result="shape"/><feColorMatrix in="SourceAlpha" result="hardAlpha" values="0 0 0 0 0 0 0 0 0 0 0 0 0 0 0 0 0 0 127 0"/><feOffset dx="-.02" dy="-.06"/><feGaussianBlur stdDeviation=".05"/><feComposite in2="hardAlpha" k2="-1" k3="1" operator="arithmetic"/><feColorMatrix values="0 0 0 0 0.85098 0 0 0 0 0.792157 0 0 0 0 0.776471 0 0 0 1 0"/><feBlend in2="shape" result="effect1_innerShadow_4002_852"/></filter><filter id="filter4_i_4002_852" width="2.822" height="15.029" x="18.984" y="2.154" color-interpolation-filters="sRGB" filterUnits="userSpaceOnUse"><feFlood flood-opacity="0" result="BackgroundImageFix"/><feBlend in="SourceGraphic" in2="BackgroundImageFix" result="shape"/><feColorMatrix in="SourceAlpha" result="hardAlpha" values="0 0 0 0 0 0 0 0 0 0 0 0 0 0 0 0 0 0 127 0"/><feOffset dx=".2"/><feGaussianBlur stdDeviation=".125"/><feComposite in2="hardAlpha" k2="-1" k3="1" operator="arithmetic"/><feColorMatrix values="0 0 0 0 0.223529 0 0 0 0 0.47451 0 0 0 0 0.360784 0 0 0 1 0"/><feBlend in2="shape" result="effect1_innerShadow_4002_852"/></filter><filter id="filter5_ii_4002_852" width="4.68" height="4.407" x="21.69" y="7.138" color-interpolation-filters="sRGB" filterUnits="userSpaceOnUse"><feFlood flood-opacity="0" result="BackgroundImageFix"/><feBlend in="SourceGraphic" in2="BackgroundImageFix" result="shape"/><feColorMatrix in="SourceAlpha" result="hardAlpha" values="0 0 0 0 0 0 0 0 0 0 0 0 0 0 0 0 0 0 127 0"/><feOffset dx="-.25" dy="-.25"/><feGaussianBlur stdDeviation=".25"/><feComposite in2="hardAlpha" k2="-1" k3="1" operator="arithmetic"/><feColorMatrix values="0 0 0 0 0.278431 0 0 0 0 0.0980392 0 0 0 0 0.145098 0 0 0 1 0"/><feBlend in2="shape" result="effect1_innerShadow_4002_852"/><feColorMatrix in="SourceAlpha" result="hardAlpha" values="0 0 0 0 0 0 0 0 0 0 0 0 0 0 0 0 0 0 127 0"/><feOffset dx=".25" dy=".15"/><feGaussianBlur stdDeviation=".15"/><feComposite in2="hardAlpha" k2="-1" k3="1" operator="arithmetic"/><feColorMatrix values="0 0 0 0 0.352941 0 0 0 0 0.278431 0 0 0 0 0.270588 0 0 0 1 0"/><feBlend in2="effect1_innerShadow_4002_852" result="effect2_innerShadow_4002_852"/></filter><filter id="filter6_i_4002_852" width="2.054" height="2.454" x="25.067" y="9.058" color-interpolation-filters="sRGB" filterUnits="userSpaceOnUse"><feFlood flood-opacity="0" result="BackgroundImageFix"/><feBlend in="SourceGraphic" in2="BackgroundImageFix" result="shape"/><feColorMatrix in="SourceAlpha" result="hardAlpha" values="0 0 0 0 0 0 0 0 0 0 0 0 0 0 0 0 0 0 127 0"/><feOffset dx=".15" dy="-.1"/><feGaussianBlur stdDeviation=".15"/><feComposite in2="hardAlpha" k2="-1" k3="1" operator="arithmetic"/><feColorMatrix values="0 0 0 0 0.0431373 0 0 0 0 0.0156863 0 0 0 0 0.0196078 0 0 0 1 0"/><feBlend in2="shape" result="effect1_innerShadow_4002_852"/></filter><filter id="filter7_i_4002_852" width="5.527" height="3.544" x="18.662" y="18.654" color-interpolation-filters="sRGB" filterUnits="userSpaceOnUse"><feFlood flood-opacity="0" result="BackgroundImageFix"/><feBlend in="SourceGraphic" in2="BackgroundImageFix" result="shape"/><feColorMatrix in="SourceAlpha" result="hardAlpha" values="0 0 0 0 0 0 0 0 0 0 0 0 0 0 0 0 0 0 127 0"/><feOffset dx="-.5"/><feGaussianBlur stdDeviation=".5"/><feComposite in2="hardAlpha" k2="-1" k3="1" operator="arithmetic"/><feColorMatrix values="0 0 0 0 0.407843 0 0 0 0 0.4 0 0 0 0 0.407843 0 0 0 1 0"/><feBlend in2="shape" result="effect1_innerShadow_4002_852"/></filter><filter id="filter8_i_4002_852" width="9.577" height="5.489" x="9.343" y="15.129" color-interpolation-filters="sRGB" filterUnits="userSpaceOnUse"><feFlood flood-opacity="0" result="BackgroundImageFix"/><feBlend in="SourceGraphic" in2="BackgroundImageFix" result="shape"/><feColorMatrix in="SourceAlpha" result="hardAlpha" values="0 0 0 0 0 0 0 0 0 0 0 0 0 0 0 0 0 0 127 0"/><feOffset dy="-.25"/><feGaussianBlur stdDeviation=".375"/><feComposite in2="hardAlpha" k2="-1" k3="1" operator="arithmetic"/><feColorMatrix values="0 0 0 0 0.258824 0 0 0 0 0.152941 0 0 0 0 0.223529 0 0 0 1 0"/><feBlend in2="shape" result="effect1_innerShadow_4002_852"/></filter><filter id="filter9_i_4002_852" width="6.672" height="5.002" x="17.83" y="15.246" color-interpolation-filters="sRGB" filterUnits="userSpaceOnUse"><feFlood flood-opacity="0" result="BackgroundImageFix"/><feBlend in="SourceGraphic" in2="BackgroundImageFix" result="shape"/><feColorMatrix in="SourceAlpha" result="hardAlpha" values="0 0 0 0 0 0 0 0 0 0 0 0 0 0 0 0 0 0 127 0"/><feOffset dy="-.5"/><feGaussianBlur stdDeviation=".375"/><feComposite in2="hardAlpha" k2="-1" k3="1" operator="arithmetic"/><feColorMatrix values="0 0 0 0 0.423529 0 0 0 0 0.372549 0 0 0 0 0.407843 0 0 0 1 0"/><feBlend in2="shape" result="effect1_innerShadow_4002_852"/></filter><filter id="filter10_i_4002_852" width="6.922" height="5.002" x="17.83" y="15.246" color-interpolation-filters="sRGB" filterUnits="userSpaceOnUse"><feFlood flood-opacity="0" result="BackgroundImageFix"/><feBlend in="SourceGraphic" in2="BackgroundImageFix" result="shape"/><feColorMatrix in="SourceAlpha" result="hardAlpha" values="0 0 0 0 0 0 0 0 0 0 0 0 0 0 0 0 0 0 127 0"/><feOffset dx=".25" dy="-.5"/><feGaussianBlur stdDeviation=".375"/><feComposite in2="hardAlpha" k2="-1" k3="1" operator="arithmetic"/><feColorMatrix values="0 0 0 0 0.513726 0 0 0 0 0.364706 0 0 0 0 0.639216 0 0 0 1 0"/><feBlend in2="shape" result="effect1_innerShadow_4002_852"/></filter><filter id="filter11_i_4002_852" width="2.568" height="3.646" x="9.32" y="16.988" color-interpolation-filters="sRGB" filterUnits="userSpaceOnUse"><feFlood flood-opacity="0" result="BackgroundImageFix"/><feBlend in="SourceGraphic" in2="BackgroundImageFix" result="shape"/><feColorMatrix in="SourceAlpha" result="hardAlpha" values="0 0 0 0 0 0 0 0 0 0 0 0 0 0 0 0 0 0 127 0"/><feOffset dx=".05" dy="-.4"/><feGaussianBlur stdDeviation=".2"/><feComposite in2="hardAlpha" k2="-1" k3="1" operator="arithmetic"/><feColorMatrix values="0 0 0 0 0.321569 0 0 0 0 0.247059 0 0 0 0 0.537255 0 0 0 1 0"/><feBlend in2="shape" result="effect1_innerShadow_4002_852"/></filter><filter id="filter12_i_4002_852" width="4.913" height="4.647" x="23.084" y="5.562" color-interpolation-filters="sRGB" filterUnits="userSpaceOnUse"><feFlood flood-opacity="0" result="BackgroundImageFix"/><feBlend in="SourceGraphic" in2="BackgroundImageFix" result="shape"/><feColorMatrix in="SourceAlpha" result="hardAlpha" values="0 0 0 0 0 0 0 0 0 0 0 0 0 0 0 0 0 0 127 0"/><feOffset dy="-.15"/><feGaussianBlur stdDeviation=".3"/><feComposite in2="hardAlpha" k2="-1" k3="1" operator="arithmetic"/><feColorMatrix values="0 0 0 0 0.305882 0 0 0 0 0.556863 0 0 0 0 0.882353 0 0 0 1 0"/><feBlend in2="shape" result="effect1_innerShadow_4002_852"/></filter><filter id="filter13_i_4002_852" width="1.588" height="1.361" x="24.746" y="7.424" color-interpolation-filters="sRGB" filterUnits="userSpaceOnUse"><feFlood flood-opacity="0" result="BackgroundImageFix"/><feBlend in="SourceGraphic" in2="BackgroundImageFix" result="shape"/><feColorMatrix in="SourceAlpha" result="hardAlpha" values="0 0 0 0 0 0 0 0 0 0 0 0 0 0 0 0 0 0 127 0"/><feOffset/><feGaussianBlur stdDeviation=".25"/><feComposite in2="hardAlpha" k2="-1" k3="1" operator="arithmetic"/><feColorMatrix values="0 0 0 0 0.137255 0 0 0 0 0.482353 0 0 0 0 0.796078 0 0 0 1 0"/><feBlend in2="shape" result="effect1_innerShadow_4002_852"/></filter><filter id="filter14_i_4002_852" width="6.514" height="4.796" x="15.307" y="10.186" color-interpolation-filters="sRGB" filterUnits="userSpaceOnUse"><feFlood flood-opacity="0" result="BackgroundImageFix"/><feBlend in="SourceGraphic" in2="BackgroundImageFix" result="shape"/><feColorMatrix in="SourceAlpha" result="hardAlpha" values="0 0 0 0 0 0 0 0 0 0 0 0 0 0 0 0 0 0 127 0"/><feOffset dy="-.35"/><feGaussianBlur stdDeviation=".325"/><feComposite in2="hardAlpha" k2="-1" k3="1" operator="arithmetic"/><feColorMatrix values="0 0 0 0 0.258824 0 0 0 0 0.180392 0 0 0 0 0.207843 0 0 0 1 0"/><feBlend in2="shape" result="effect1_innerShadow_4002_852"/></filter></defs></svg>