<svg xmlns="http://www.w3.org/2000/svg" width="32" height="32" fill="none" viewBox="0 0 32 32"><path fill="url(#paint0_radial_18590_3104)" d="M29.547 16c0 7.732-6.268 14-14 14s-14-6.268-14-14 6.268-14 14-14 14 6.268 14 14Z"/><path fill="url(#paint1_linear_18590_3104)" d="M29.547 16c0 7.732-6.268 14-14 14s-14-6.268-14-14 6.268-14 14-14 14 6.268 14 14Z"/><path fill="url(#paint2_radial_18590_3104)" d="M29.547 16c0 7.732-6.268 14-14 14s-14-6.268-14-14 6.268-14 14-14 14 6.268 14 14Z"/><path fill="url(#paint3_radial_18590_3104)" d="M29.547 16c0 7.732-6.268 14-14 14s-14-6.268-14-14 6.268-14 14-14 14 6.268 14 14Z"/><path fill="url(#paint4_radial_18590_3104)" d="M29.547 16c0 7.732-6.268 14-14 14s-14-6.268-14-14 6.268-14 14-14 14 6.268 14 14Z"/><defs><radialGradient id="paint0_radial_18590_3104" cx="0" cy="0" r="1" gradientTransform="rotate(130.168 9.831 9.886) scale(27.8086)" gradientUnits="userSpaceOnUse"><stop stop-color="#645B70"/><stop offset=".662" stop-color="#33293D"/></radialGradient><radialGradient id="paint2_radial_18590_3104" cx="0" cy="0" r="1" gradientTransform="matrix(-9.47663 8.74999 -8.07914 -8.75007 24.227 10.75)" gradientUnits="userSpaceOnUse"><stop offset=".113" stop-color="#6A6571"/><stop offset="1" stop-color="#49474C" stop-opacity="0"/></radialGradient><radialGradient id="paint3_radial_18590_3104" cx="0" cy="0" r="1" gradientTransform="matrix(-19.25 0 0 -20 20.04 16)" gradientUnits="userSpaceOnUse"><stop offset=".62" stop-color="#434344" stop-opacity="0"/><stop offset=".951" stop-color="#8C8B8D"/></radialGradient><radialGradient id="paint4_radial_18590_3104" cx="0" cy="0" r="1" gradientTransform="matrix(0 21.8837 -24.3022 0 15.547 9)" gradientUnits="userSpaceOnUse"><stop offset=".853" stop-color="#352343" stop-opacity="0"/><stop offset="1" stop-color="#50405F"/></radialGradient><linearGradient id="paint1_linear_18590_3104" x1="15.547" x2="15.547" y1="2" y2="8.5" gradientUnits="userSpaceOnUse"><stop stop-color="#554A63"/><stop offset="1" stop-color="#554A63" stop-opacity="0"/></linearGradient></defs></svg>