<svg xmlns="http://www.w3.org/2000/svg" width="32" height="32" fill="none" viewBox="0 0 32 32"><g filter="url(#filter0_ii_18590_1052)"><rect width="27.875" height="27.875" x="2.512" y="1.938" fill="url(#paint0_linear_18590_1052)" rx="3.6"/><rect width="27.875" height="27.875" x="2.512" y="1.938" fill="url(#paint1_radial_18590_1052)" rx="3.6"/></g><g filter="url(#filter1_f_18590_1052)"><path stroke="url(#paint2_linear_18590_1052)" stroke-linecap="round" stroke-width="1.5" d="M28.7 4.438v22.875"/></g><g filter="url(#filter2_f_18590_1052)"><path stroke="url(#paint3_linear_18590_1052)" stroke-linecap="round" stroke-width="1.5" d="M5.976 3.75h21.781"/></g><g filter="url(#filter3_f_18590_1052)"><path fill="#6A4EBE" d="M16.867 5.875a1 1 0 0 0-1 1v4.9a.1.1 0 0 1-.1.1h-4.9a1 1 0 1 0 0 2h4.9a.1.1 0 0 1 .1.1v10.9a1 1 0 1 0 2 0v-10.9a.1.1 0 0 1 .1-.1h4.9a1 1 0 1 0 0-2h-4.9a.1.1 0 0 1-.1-.1v-4.9a1 1 0 0 0-1-1Z"/></g><g filter="url(#filter4_ii_18590_1052)"><path fill="#FCF2FF" d="M16.867 5.875a1 1 0 0 0-1 1v4.9a.1.1 0 0 1-.1.1h-4.9a1 1 0 1 0 0 2h4.9a.1.1 0 0 1 .1.1v10.9a1 1 0 1 0 2 0v-10.9a.1.1 0 0 1 .1-.1h4.9a1 1 0 1 0 0-2h-4.9a.1.1 0 0 1-.1-.1v-4.9a1 1 0 0 0-1-1Z"/></g><defs><filter id="filter0_ii_18590_1052" width="29.875" height="28.875" x="2.512" y=".938" color-interpolation-filters="sRGB" filterUnits="userSpaceOnUse"><feFlood flood-opacity="0" result="BackgroundImageFix"/><feBlend in="SourceGraphic" in2="BackgroundImageFix" result="shape"/><feColorMatrix in="SourceAlpha" result="hardAlpha" values="0 0 0 0 0 0 0 0 0 0 0 0 0 0 0 0 0 0 127 0"/><feOffset dx="2" dy="-1"/><feGaussianBlur stdDeviation="1.5"/><feComposite in2="hardAlpha" k2="-1" k3="1" operator="arithmetic"/><feColorMatrix values="0 0 0 0 0.298039 0 0 0 0 0.235294 0 0 0 0 0.6 0 0 0 1 0"/><feBlend in2="shape" result="effect1_innerShadow_18590_1052"/><feColorMatrix in="SourceAlpha" result="hardAlpha" values="0 0 0 0 0 0 0 0 0 0 0 0 0 0 0 0 0 0 127 0"/><feOffset dy="-1"/><feGaussianBlur stdDeviation="1.5"/><feComposite in2="hardAlpha" k2="-1" k3="1" operator="arithmetic"/><feColorMatrix values="0 0 0 0 0.352941 0 0 0 0 0.211765 0 0 0 0 0.709804 0 0 0 1 0"/><feBlend in2="effect1_innerShadow_18590_1052" result="effect2_innerShadow_18590_1052"/></filter><filter id="filter1_f_18590_1052" width="5.5" height="28.375" x="25.95" y="1.688" color-interpolation-filters="sRGB" filterUnits="userSpaceOnUse"><feFlood flood-opacity="0" result="BackgroundImageFix"/><feBlend in="SourceGraphic" in2="BackgroundImageFix" result="shape"/><feGaussianBlur result="effect1_foregroundBlur_18590_1052" stdDeviation="1"/></filter><filter id="filter2_f_18590_1052" width="27.281" height="5.5" x="3.226" y="1" color-interpolation-filters="sRGB" filterUnits="userSpaceOnUse"><feFlood flood-opacity="0" result="BackgroundImageFix"/><feBlend in="SourceGraphic" in2="BackgroundImageFix" result="shape"/><feGaussianBlur result="effect1_foregroundBlur_18590_1052" stdDeviation="1"/></filter><filter id="filter3_f_18590_1052" width="16" height="22" x="8.867" y="4.875" color-interpolation-filters="sRGB" filterUnits="userSpaceOnUse"><feFlood flood-opacity="0" result="BackgroundImageFix"/><feBlend in="SourceGraphic" in2="BackgroundImageFix" result="shape"/><feGaussianBlur result="effect1_foregroundBlur_18590_1052" stdDeviation=".5"/></filter><filter id="filter4_ii_18590_1052" width="14.8" height="20.8" x="9.467" y="5.475" color-interpolation-filters="sRGB" filterUnits="userSpaceOnUse"><feFlood flood-opacity="0" result="BackgroundImageFix"/><feBlend in="SourceGraphic" in2="BackgroundImageFix" result="shape"/><feColorMatrix in="SourceAlpha" result="hardAlpha" values="0 0 0 0 0 0 0 0 0 0 0 0 0 0 0 0 0 0 127 0"/><feOffset dx="-.4" dy=".4"/><feGaussianBlur stdDeviation=".375"/><feComposite in2="hardAlpha" k2="-1" k3="1" operator="arithmetic"/><feColorMatrix values="0 0 0 0 0.913725 0 0 0 0 0.886275 0 0 0 0 0.968627 0 0 0 1 0"/><feBlend in2="shape" result="effect1_innerShadow_18590_1052"/><feColorMatrix in="SourceAlpha" result="hardAlpha" values="0 0 0 0 0 0 0 0 0 0 0 0 0 0 0 0 0 0 127 0"/><feOffset dx=".4" dy="-.4"/><feGaussianBlur stdDeviation=".2"/><feComposite in2="hardAlpha" k2="-1" k3="1" operator="arithmetic"/><feColorMatrix values="0 0 0 0 1 0 0 0 0 0.988235 0 0 0 0 1 0 0 0 1 0"/><feBlend in2="effect1_innerShadow_18590_1052" result="effect2_innerShadow_18590_1052"/></filter><linearGradient id="paint0_linear_18590_1052" x1="16.45" x2="16.45" y1="5.512" y2="38.765" gradientUnits="userSpaceOnUse"><stop stop-color="#9865EE"/><stop offset="1" stop-color="#7764C6"/></linearGradient><linearGradient id="paint2_linear_18590_1052" x1="29.2" x2="29.2" y1="4.438" y2="27.313" gradientUnits="userSpaceOnUse"><stop stop-color="#AE7EFF"/><stop offset="1" stop-color="#8777D6"/></linearGradient><linearGradient id="paint3_linear_18590_1052" x1="28.914" x2="3.382" y1="4" y2="4" gradientUnits="userSpaceOnUse"><stop stop-color="#A672FF"/><stop offset="1" stop-color="#9A6CEB"/></linearGradient><radialGradient id="paint1_radial_18590_1052" cx="0" cy="0" r="1" gradientTransform="matrix(-1.56249 1.46876 -1.71548 -1.82495 28.169 4.031)" gradientUnits="userSpaceOnUse"><stop stop-color="#BB8DFF"/><stop offset="1" stop-color="#BB8DFF" stop-opacity="0"/></radialGradient></defs></svg>