<svg xmlns="http://www.w3.org/2000/svg" width="32" height="32" fill="none" viewBox="0 0 32 32"><rect width=".809" height="1.648" x="25.403" y="27.272" fill="url(#paint0_linear_3987_23566)" rx=".404" transform="rotate(-180 25.403 27.272)"/><g filter="url(#filter0_i_3987_23566)"><rect width=".684" height="2.521" fill="#ECB5A6" rx=".342" transform="scale(-1 1) rotate(44.184 -43.275 -19.634)"/></g><g filter="url(#filter1_i_3987_23566)"><rect width=".699" height="2.521" fill="#ECB5A6" rx=".349" transform="scale(-1 1) rotate(44.184 -43.885 -19.45)"/></g><g filter="url(#filter2_i_3987_23566)"><rect width=".737" height="2.121" fill="#ECB5A6" rx=".368" transform="scale(-1 1) rotate(44.184 -44.184 -18.961)"/></g><g filter="url(#filter3_i_3987_23566)"><rect width=".665" height="1.584" fill="#E1A69E" rx=".332" transform="scale(-1 1) rotate(44.184 -44.65 -18.254)"/></g><path fill="url(#paint1_linear_3987_23566)" d="M26.632 25.336h2.014v7.07h-2.014z" transform="rotate(135.816 26.632 25.336)"/><path fill="url(#paint2_radial_3987_23566)" d="M26.632 25.336h2.014v7.07h-2.014z" transform="rotate(135.816 26.632 25.336)"/><path fill="url(#paint3_linear_3987_23566)" d="M26.632 25.336h2.014v7.07h-2.014z" transform="rotate(135.816 26.632 25.336)"/><path fill="#ECBCA3" d="M18.655 20.196h-2.326v-1.781h2.326z"/><rect width="1.121" height=".563" x="13.888" y="29.188" fill="url(#paint4_radial_3987_23566)" rx=".281" transform="rotate(-180 13.888 29.188)"/><path fill="#E1AB9E" d="M14.82 29.85c-.296.03-.955.087-1.58.087-.653 0-.73-.345-.731-.519-.01-.115.056-.368.39-.465.121-.035.26-.072.397-.108a.201.201 0 0 0 .15-.194v-6.628h2.04v7.129a.7.7 0 0 1-.565.686l.002.002-.025.003a.693.693 0 0 1-.079.008Z"/><path fill="url(#paint5_radial_3987_23566)" d="M14.82 29.85c-.296.03-.955.087-1.58.087-.653 0-.73-.345-.731-.519-.01-.115.056-.368.39-.465.121-.035.26-.072.397-.108a.201.201 0 0 0 .15-.194v-6.628h2.04v7.129a.7.7 0 0 1-.565.686l.002.002-.025.003a.693.693 0 0 1-.079.008Z"/><path fill="url(#paint6_radial_3987_23566)" d="M14.82 29.85c-.296.03-.955.087-1.58.087-.653 0-.73-.345-.731-.519-.01-.115.056-.368.39-.465.121-.035.26-.072.397-.108a.201.201 0 0 0 .15-.194v-6.628h2.04v7.129a.7.7 0 0 1-.565.686l.002.002-.025.003a.693.693 0 0 1-.079.008Z"/><path fill="url(#paint7_radial_3987_23566)" d="M14.82 29.85c-.296.03-.955.087-1.58.087-.653 0-.73-.345-.731-.519-.01-.115.056-.368.39-.465.121-.035.26-.072.397-.108a.201.201 0 0 0 .15-.194v-6.628h2.04v7.129a.7.7 0 0 1-.565.686l.002.002-.025.003a.693.693 0 0 1-.079.008Z"/><path fill="url(#paint8_radial_3987_23566)" d="M14.82 29.85c-.296.03-.955.087-1.58.087-.653 0-.73-.345-.731-.519-.01-.115.056-.368.39-.465.121-.035.26-.072.397-.108a.201.201 0 0 0 .15-.194v-6.628h2.04v7.129a.7.7 0 0 1-.565.686l.002.002-.025.003a.693.693 0 0 1-.079.008Z"/><g filter="url(#filter4_i_3987_23566)"><path fill="url(#paint9_radial_3987_23566)" d="M20.693 18.206c.526.664 1.056 1.569 1.3 2.278l-1.578 1.43-1.82-1.43-.826-1.669a.3.3 0 0 0-.534-.006l-1.695 3.214h-2.117c.084-1.569.551-3.03.88-3.75.07-.15.112-.313.112-.48v-4.152h6.188v4.309c0 .093.032.183.09.256Z"/><path fill="url(#paint10_radial_3987_23566)" d="M20.693 18.206c.526.664 1.056 1.569 1.3 2.278l-1.578 1.43-1.82-1.43-.826-1.669a.3.3 0 0 0-.534-.006l-1.695 3.214h-2.117c.084-1.569.551-3.03.88-3.75.07-.15.112-.313.112-.48v-4.152h6.188v4.309c0 .093.032.183.09.256Z"/><path fill="url(#paint11_radial_3987_23566)" d="M20.693 18.206c.526.664 1.056 1.569 1.3 2.278l-1.578 1.43-1.82-1.43-.826-1.669a.3.3 0 0 0-.534-.006l-1.695 3.214h-2.117c.084-1.569.551-3.03.88-3.75.07-.15.112-.313.112-.48v-4.152h6.188v4.309c0 .093.032.183.09.256Z"/><path fill="url(#paint12_linear_3987_23566)" d="M20.693 18.206c.526.664 1.056 1.569 1.3 2.278l-1.578 1.43-1.82-1.43-.826-1.669a.3.3 0 0 0-.534-.006l-1.695 3.214h-2.117c.084-1.569.551-3.03.88-3.75.07-.15.112-.313.112-.48v-4.152h6.188v4.309c0 .093.032.183.09.256Z"/><path fill="url(#paint13_radial_3987_23566)" d="M20.693 18.206c.526.664 1.056 1.569 1.3 2.278l-1.578 1.43-1.82-1.43-.826-1.669a.3.3 0 0 0-.534-.006l-1.695 3.214h-2.117c.084-1.569.551-3.03.88-3.75.07-.15.112-.313.112-.48v-4.152h6.188v4.309c0 .093.032.183.09.256Z"/></g><path fill="#F1C2AB" d="m12.767 14.04-7.61-.142.625-1.57 6.844-.984.14 2.695Z"/><path fill="url(#paint14_linear_3987_23566)" d="m12.767 14.04-7.61-.142.625-1.57 6.844-.984.14 2.695Z"/><g filter="url(#filter5_i_3987_23566)"><path fill="#ECBCA3" d="m23.118 10.59 4.458-6.244-1.635-.748-5.194 4.836 2.371 2.156Z"/></g><g filter="url(#filter6_i_3987_23566)"><path fill="#504E84" d="m27.548 4.375-1.633-.773v-1.29a.25.25 0 0 1 .25-.25h3.972c.151 0 .301.086.315.237.027.281-.125.62-.6.951-.542.352-1.698.844-2.304 1.125Z"/><path fill="url(#paint15_radial_3987_23566)" d="m27.548 4.375-1.633-.773v-1.29a.25.25 0 0 1 .25-.25h3.972c.151 0 .301.086.315.237.027.281-.125.62-.6.951-.542.352-1.698.844-2.304 1.125Z"/></g><path fill="url(#paint16_linear_3987_23566)" d="m27.548 4.375-1.633-.773v-1.29a.25.25 0 0 1 .25-.25h3.972c.151 0 .301.086.315.237.027.281-.125.62-.6.951-.542.352-1.698.844-2.304 1.125Z"/><path fill="url(#paint17_linear_3987_23566)" d="m27.548 4.375-1.633-.773v-1.29a.25.25 0 0 1 .25-.25h3.972c.151 0 .301.086.315.237.027.281-.125.62-.6.951-.542.352-1.698.844-2.304 1.125Z"/><g filter="url(#filter7_f_3987_23566)" opacity=".4"><path stroke="#EDBFAE" stroke-width=".3" d="m26.55 4.229-5.109 6"/></g><path fill="url(#paint18_linear_3987_23566)" d="M4.698 11.294a.25.25 0 0 1 .346.027l.875.984-.734 1.59-1.176.335c-.305.1-1.059.303-1.637.325a.89.89 0 0 1-.778-.37c-.092-.123-.047-.291.071-.389l3.033-2.502Z"/><path fill="url(#paint19_linear_3987_23566)" d="M4.698 11.294a.25.25 0 0 1 .346.027l.875.984-.734 1.59-1.176.335c-.305.1-1.059.303-1.637.325a.89.89 0 0 1-.778-.37c-.092-.123-.047-.291.071-.389l3.033-2.502Z"/><path fill="url(#paint20_radial_3987_23566)" d="M4.698 11.294a.25.25 0 0 1 .346.027l.875.984-.734 1.59-1.176.335c-.305.1-1.059.303-1.637.325a.89.89 0 0 1-.778-.37c-.092-.123-.047-.291.071-.389l3.033-2.502Z"/><g filter="url(#filter8_i_3987_23566)"><path fill="#A59DAE" d="m20.615 14.063 2.541-3.494L20.783 8.4c-.14.134-.505.492-.841.85-1.187 1.15-2.766 1.43-3.775 1.58l-3.607.495v2.737h8.055Z"/><path fill="url(#paint21_linear_3987_23566)" d="m20.615 14.063 2.541-3.494L20.783 8.4c-.14.134-.505.492-.841.85-1.187 1.15-2.766 1.43-3.775 1.58l-3.607.495v2.737h8.055Z"/><path fill="url(#paint22_linear_3987_23566)" d="m20.615 14.063 2.541-3.494L20.783 8.4c-.14.134-.505.492-.841.85-1.187 1.15-2.766 1.43-3.775 1.58l-3.607.495v2.737h8.055Z"/></g><path fill="url(#paint23_radial_3987_23566)" d="M15.45 21.81a.678.678 0 0 0-.376.13v-.392c0-.376.221-.71.558-.849-.071.152-.12.319-.144.496l-.038.614Z"/><path fill="url(#paint24_radial_3987_23566)" d="M19.494 21.81c.14.004.27.052.377.13v-.392a.913.913 0 0 0-.558-.849c.07.152.12.319.144.496l.037.614Z"/><path fill="url(#paint25_linear_3987_23566)" d="M19.48 21.173a1.635 1.635 0 0 0-1.617-1.43h-.784c-.819 0-1.51.61-1.617 1.43-.049.791-.098 1.58-.135 2.37a.606.606 0 0 0 .574.602h.583c.397 0 .756.237.92.607a.276.276 0 0 0 .256.175h.53c.767 0 1.39-.635 1.39-1.42 0-.781-.05-1.55-.1-2.334Z"/><path fill="url(#paint26_radial_3987_23566)" d="M19.48 21.173a1.635 1.635 0 0 0-1.617-1.43h-.784c-.819 0-1.51.61-1.617 1.43-.049.791-.098 1.58-.135 2.37a.606.606 0 0 0 .574.602h.583c.397 0 .756.237.92.607a.276.276 0 0 0 .256.175h.53c.767 0 1.39-.635 1.39-1.42 0-.781-.05-1.55-.1-2.334Z"/><g filter="url(#filter9_f_3987_23566)"><path fill="#F0B4A0" d="m17.64 22.553.245-.773c.042-.16-.058-.318-.201-.318h-.305c-.143 0-.244.161-.202.318l.206.773c.044.171.21.171.257 0Z"/></g><g filter="url(#filter10_f_3987_23566)"><path fill="url(#paint27_linear_3987_23566)" d="m17.632 22.635.22-.773c.046-.16-.062-.318-.216-.318h-.327c-.154 0-.262.161-.217.318l.221.773c.048.171.269.171.319 0Z"/><path fill="url(#paint28_radial_3987_23566)" d="m17.632 22.635.22-.773c.046-.16-.062-.318-.216-.318h-.327c-.154 0-.262.161-.217.318l.221.773c.048.171.269.171.319 0Z"/></g><g filter="url(#filter11_f_3987_23566)"><path stroke="url(#paint29_linear_3987_23566)" stroke-width=".2" d="M17.472 21.118c.211 0 .41.05.577.138.057.029.118-.036.082-.088a.786.786 0 0 0-1.318 0c-.036.054.026.117.082.088.167-.088.364-.138.577-.138Z"/></g><path fill="#8C0A51" d="M17.472 21.118c.211 0 .41.05.577.138.057.029.118-.036.082-.088a.786.786 0 0 0-1.318 0c-.036.054.026.117.082.088.167-.088.364-.138.577-.138Z"/><g filter="url(#filter12_ii_3987_23566)"><path fill="url(#paint30_linear_3987_23566)" d="M15.453 25.126a.968.968 0 0 1-.528-.442 1.004 1.004 0 0 1 .045-1.061.66.66 0 0 0 .112-.368v-.499a.72.72 0 0 0 .278.113l-.033.675a.606.606 0 0 0 .574.601h.582c.397 0 .757.237.92.607a.276.276 0 0 0 .256.175h.53c.767 0 1.39-.635 1.39-1.42l-.013-.645a.708.708 0 0 0 .3-.111v.504c0 .131.04.26.112.368.199.295.234.691.06 1.027a.978.978 0 0 1-.541.473 1.118 1.118 0 0 0-.576.467.965.965 0 0 1-1.202.383.614.614 0 0 0-.497 0 .97.97 0 0 1-.38.079.966.966 0 0 1-.827-.476 1.051 1.051 0 0 0-.562-.45Z"/><path fill="url(#paint31_radial_3987_23566)" d="M15.453 25.126a.968.968 0 0 1-.528-.442 1.004 1.004 0 0 1 .045-1.061.66.66 0 0 0 .112-.368v-.499a.72.72 0 0 0 .278.113l-.033.675a.606.606 0 0 0 .574.601h.582c.397 0 .757.237.92.607a.276.276 0 0 0 .256.175h.53c.767 0 1.39-.635 1.39-1.42l-.013-.645a.708.708 0 0 0 .3-.111v.504c0 .131.04.26.112.368.199.295.234.691.06 1.027a.978.978 0 0 1-.541.473 1.118 1.118 0 0 0-.576.467.965.965 0 0 1-1.202.383.614.614 0 0 0-.497 0 .97.97 0 0 1-.38.079.966.966 0 0 1-.827-.476 1.051 1.051 0 0 0-.562-.45Z"/><path fill="url(#paint32_radial_3987_23566)" d="M15.453 25.126a.968.968 0 0 1-.528-.442 1.004 1.004 0 0 1 .045-1.061.66.66 0 0 0 .112-.368v-.499a.72.72 0 0 0 .278.113l-.033.675a.606.606 0 0 0 .574.601h.582c.397 0 .757.237.92.607a.276.276 0 0 0 .256.175h.53c.767 0 1.39-.635 1.39-1.42l-.013-.645a.708.708 0 0 0 .3-.111v.504c0 .131.04.26.112.368.199.295.234.691.06 1.027a.978.978 0 0 1-.541.473 1.118 1.118 0 0 0-.576.467.965.965 0 0 1-1.202.383.614.614 0 0 0-.497 0 .97.97 0 0 1-.38.079.966.966 0 0 1-.827-.476 1.051 1.051 0 0 0-.562-.45Z"/><path fill="url(#paint33_radial_3987_23566)" d="M15.453 25.126a.968.968 0 0 1-.528-.442 1.004 1.004 0 0 1 .045-1.061.66.66 0 0 0 .112-.368v-.499a.72.72 0 0 0 .278.113l-.033.675a.606.606 0 0 0 .574.601h.582c.397 0 .757.237.92.607a.276.276 0 0 0 .256.175h.53c.767 0 1.39-.635 1.39-1.42l-.013-.645a.708.708 0 0 0 .3-.111v.504c0 .131.04.26.112.368.199.295.234.691.06 1.027a.978.978 0 0 1-.541.473 1.118 1.118 0 0 0-.576.467.965.965 0 0 1-1.202.383.614.614 0 0 0-.497 0 .97.97 0 0 1-.38.079.966.966 0 0 1-.827-.476 1.051 1.051 0 0 0-.562-.45Z"/><path fill="url(#paint34_radial_3987_23566)" d="M15.453 25.126a.968.968 0 0 1-.528-.442 1.004 1.004 0 0 1 .045-1.061.66.66 0 0 0 .112-.368v-.499a.72.72 0 0 0 .278.113l-.033.675a.606.606 0 0 0 .574.601h.582c.397 0 .757.237.92.607a.276.276 0 0 0 .256.175h.53c.767 0 1.39-.635 1.39-1.42l-.013-.645a.708.708 0 0 0 .3-.111v.504c0 .131.04.26.112.368.199.295.234.691.06 1.027a.978.978 0 0 1-.541.473 1.118 1.118 0 0 0-.576.467.965.965 0 0 1-1.202.383.614.614 0 0 0-.497 0 .97.97 0 0 1-.38.079.966.966 0 0 1-.827-.476 1.051 1.051 0 0 0-.562-.45Z"/></g><g filter="url(#filter13_i_3987_23566)"><path fill="#202020" d="M15.92 23.587a.771.771 0 0 0 .285.172c.127.04.286.052.505.024a.116.116 0 0 0 .1-.13.116.116 0 0 0-.128-.101c-.2.025-.323.012-.407-.015a.544.544 0 0 1-.204-.126.115.115 0 0 0-.163.011.117.117 0 0 0 .011.165Z"/></g><g filter="url(#filter14_i_3987_23566)"><path fill="#202020" d="M18.891 23.632a1.145 1.145 0 0 1-.724.151.116.116 0 0 1-.1-.13.116.116 0 0 1 .128-.101.915.915 0 0 0 .61-.14l.006-.005h.001c.05-.04.123-.03.162.02.039.05.03.124-.02.164l-.063.041Z"/></g><g filter="url(#filter15_f_3987_23566)"><path fill="#241026" d="M17.348 24.784c.01.018.018.038.027.057.042.106.284.112.397.112h.53c.767 0 1.39-.636 1.39-1.42v-.116c.14.109.319.338.319.71 0 .45-.325.677-.533.823a.946.946 0 0 0-.138.106 3.943 3.943 0 0 0-.04.044c-.146.156-.405.433-.858.554a2.004 2.004 0 0 1-.277.053c-.411.05-.728-.288-.792-.698l-.034-.22.009-.005Z"/><path fill="url(#paint35_radial_3987_23566)" d="M17.348 24.784c.01.018.018.038.027.057.042.106.284.112.397.112h.53c.767 0 1.39-.636 1.39-1.42v-.116c.14.109.319.338.319.71 0 .45-.325.677-.533.823a.946.946 0 0 0-.138.106 3.943 3.943 0 0 0-.04.044c-.146.156-.405.433-.858.554a2.004 2.004 0 0 1-.277.053c-.411.05-.728-.288-.792-.698l-.034-.22.009-.005Z"/></g><g filter="url(#filter16_f_3987_23566)"><path fill="#1F151B" d="m15.304 23.322.012.265c.005.32.267.585.585.599h.582c.37 0 .707.204.884.529 0 0-.304.873-.805.758-.36-.082-.746-.212-1.041-.406-.726-.478-.599-1.34-.217-1.745Z"/><path fill="url(#paint36_radial_3987_23566)" d="m15.304 23.322.012.265c.005.32.267.585.585.599h.582c.37 0 .707.204.884.529 0 0-.304.873-.805.758-.36-.082-.746-.212-1.041-.406-.726-.478-.599-1.34-.217-1.745Z"/><path fill="url(#paint37_radial_3987_23566)" d="m15.304 23.322.012.265c.005.32.267.585.585.599h.582c.37 0 .707.204.884.529 0 0-.304.873-.805.758-.36-.082-.746-.212-1.041-.406-.726-.478-.599-1.34-.217-1.745Z"/></g><path fill="#fff" d="M16.478 23.034a.582.582 0 0 1-.564-.445.115.115 0 0 1 .111-.143h.929c.059 0 .106.054.095.114a.583.583 0 0 1-.571.474Z"/><path fill="url(#paint38_radial_3987_23566)" d="M16.564 22.92a.373.373 0 0 1-.357-.473h.716a.374.374 0 0 1-.36.474Z"/><path fill="#000" d="M16.776 22.545a.213.213 0 1 1-.425 0c0-.036.009-.07.024-.099h.376a.196.196 0 0 1 .025.1Z"/><g filter="url(#filter17_f_3987_23566)"><path fill="#C7A7A3" d="M16.591 22.84c-.027-.035.029-.078.092-.126.063-.047.11-.08.136-.045.026.036-.003.103-.066.15-.063.048-.136.058-.162.022Z"/><path fill="url(#paint39_radial_3987_23566)" d="M16.591 22.84c-.027-.035.029-.078.092-.126.063-.047.11-.08.136-.045.026.036-.003.103-.066.15-.063.048-.136.058-.162.022Z"/></g><g filter="url(#filter18_f_3987_23566)"><path fill="url(#paint40_linear_3987_23566)" d="M16.234 22.595c.013.097.07.17.096.194l.108-.12-.05-.095-.154.021Z"/></g><path fill="#fff" d="M18.467 23.034c.272 0 .502-.19.564-.445a.115.115 0 0 0-.111-.143h-.93a.096.096 0 0 0-.094.114c.053.27.289.474.571.474Z"/><path fill="url(#paint41_radial_3987_23566)" d="M18.381 22.92a.373.373 0 0 0 .358-.473h-.717a.376.376 0 0 0 .36.474Z"/><path fill="#000" d="M18.169 22.545a.213.213 0 1 0 .425 0 .214.214 0 0 0-.024-.099h-.376a.215.215 0 0 0-.025.1Z"/><g filter="url(#filter19_f_3987_23566)"><path fill="url(#paint42_linear_3987_23566)" d="M18.043 22.59c0 .12.097.201.123.225l.12-.116-.074-.152-.169.043Z"/></g><g filter="url(#filter20_f_3987_23566)" transform="matrix(-.88173 .47176 -.46454 -.88555 18.493 22.76)"><ellipse fill="#C7A7A3" fill-opacity=".9" rx=".163" ry=".083"/><ellipse fill="url(#paint43_radial_3987_23566)" rx=".163" ry=".083"/></g><path fill="url(#paint44_radial_3987_23566)" d="M15.425 21.77c-.027.448-.054.895-.077 1.342a.675.675 0 0 1-.553-.666c0-.36.279-.655.63-.675Z"/><path fill="#EFB69E" d="M19.574 23.116a.674.674 0 0 0 .576-.67.674.674 0 0 0-.633-.676c.027.45.049.896.057 1.346Z"/><path fill="url(#paint45_radial_3987_23566)" d="M19.574 23.116a.674.674 0 0 0 .576-.67.674.674 0 0 0-.633-.676c.027.45.049.896.057 1.346Z"/><g filter="url(#filter21_f_3987_23566)"><path fill="#D59780" d="M15.416 22.047a104.2 104.2 0 0 0-.046.8.4.4 0 0 1-.347-.399.4.4 0 0 1 .393-.401Z"/></g><g filter="url(#filter22_f_3987_23566)"><path stroke="#353535" stroke-linecap="round" stroke-width=".1" d="M18.876 23.515a.956.956 0 0 1-.688.16"/></g><g filter="url(#filter23_f_3987_23566)"><path stroke="#353535" stroke-linecap="round" stroke-width=".1" d="M15.991 23.534a.956.956 0 0 0 .688.16"/></g><g filter="url(#filter24_f_3987_23566)"><path fill="#F6BDA3" d="M19.588 22.838a.4.4 0 0 0 .31-.391.4.4 0 0 0-.344-.398c.014.264.026.526.035.79Z"/></g><defs><radialGradient id="paint2_radial_3987_23566" cx="0" cy="0" r="1" gradientTransform="matrix(.08202 1.1038 -2.602 .19334 27.47 25.24)" gradientUnits="userSpaceOnUse"><stop stop-color="#EDB7A7"/><stop offset="1" stop-color="#EDB7A7" stop-opacity="0"/></radialGradient><radialGradient id="paint4_radial_3987_23566" cx="0" cy="0" r="1" gradientTransform="matrix(-.39062 .17335 -.34548 -.77853 15.085 29.47)" gradientUnits="userSpaceOnUse"><stop stop-color="#F3B8A0"/><stop offset="1" stop-color="#E9AE95"/></radialGradient><radialGradient id="paint5_radial_3987_23566" cx="0" cy="0" r="1" gradientTransform="matrix(-1.48865 0 0 -3.771 15.485 28)" gradientUnits="userSpaceOnUse"><stop offset=".246" stop-color="#F3C1B4"/><stop offset="1" stop-color="#EBB4A5" stop-opacity="0"/></radialGradient><radialGradient id="paint6_radial_3987_23566" cx="0" cy="0" r="1" gradientTransform="matrix(-1.91895 0 0 -4.67725 15.657 24.031)" gradientUnits="userSpaceOnUse"><stop offset=".218" stop-color="#BD837A"/><stop offset="1" stop-color="#DBA59A" stop-opacity="0"/></radialGradient><radialGradient id="paint7_radial_3987_23566" cx="0" cy="0" r="1" gradientTransform="matrix(0 -1 3.83881 0 14.069 30.031)" gradientUnits="userSpaceOnUse"><stop offset=".109" stop-color="#CB92A2"/><stop offset="1" stop-color="#E8B2A7" stop-opacity="0"/></radialGradient><radialGradient id="paint8_radial_3987_23566" cx="0" cy="0" r="1" gradientTransform="matrix(0 -3.76709 .3344 0 13.629 25.98)" gradientUnits="userSpaceOnUse"><stop stop-color="#FAC0AA"/><stop offset="1" stop-color="#FAC0AA" stop-opacity="0"/></radialGradient><radialGradient id="paint9_radial_3987_23566" cx="0" cy="0" r="1" gradientTransform="matrix(-4.96875 0 0 -7.09375 20.717 18.344)" gradientUnits="userSpaceOnUse"><stop stop-color="#FF954F"/><stop offset="1" stop-color="#F7702E"/></radialGradient><radialGradient id="paint10_radial_3987_23566" cx="0" cy="0" r="1" gradientTransform="rotate(53.13 -8.922 30.28) scale(1.875 .9837)" gradientUnits="userSpaceOnUse"><stop stop-color="#FFA764"/><stop offset="1" stop-color="#FFA764" stop-opacity="0"/></radialGradient><radialGradient id="paint11_radial_3987_23566" cx="0" cy="0" r="1" gradientTransform="matrix(.71875 -.9375 2.63274 2.01844 19.592 21.5)" gradientUnits="userSpaceOnUse"><stop stop-color="#D95968"/><stop offset="1" stop-color="#FF782C" stop-opacity="0"/></radialGradient><radialGradient id="paint13_radial_3987_23566" cx="0" cy="0" r="1" gradientTransform="rotate(-142.918 11.854 7.775) scale(1.68439 3.3263)" gradientUnits="userSpaceOnUse"><stop stop-color="#E36121"/><stop offset="1" stop-color="#E36121" stop-opacity="0"/></radialGradient><radialGradient id="paint15_radial_3987_23566" cx="0" cy="0" r="1" gradientTransform="rotate(132.58 14.64 7.66) scale(1.57029 1.5193)" gradientUnits="userSpaceOnUse"><stop stop-color="#686995"/><stop offset="1" stop-color="#686995" stop-opacity="0"/></radialGradient><radialGradient id="paint20_radial_3987_23566" cx="0" cy="0" r="1" gradientTransform="rotate(78.283 -5.952 8.098) scale(2.15427 6.77116)" gradientUnits="userSpaceOnUse"><stop offset=".55" stop-color="#403178" stop-opacity="0"/><stop offset="1" stop-color="#403178"/></radialGradient><radialGradient id="paint23_radial_3987_23566" cx="0" cy="0" r="1" gradientTransform="matrix(-.3117 -.84904 1.00105 -.3675 15.496 21.938)" gradientUnits="userSpaceOnUse"><stop offset=".215" stop-color="#3C3B3C"/><stop offset="1" stop-color="#221C27"/></radialGradient><radialGradient id="paint24_radial_3987_23566" cx="0" cy="0" r="1" gradientTransform="rotate(-162.389 11.68 9.318) scale(.64485 2.00552)" gradientUnits="userSpaceOnUse"><stop stop-color="#463C39"/><stop offset=".746" stop-color="#1B141E"/></radialGradient><radialGradient id="paint26_radial_3987_23566" cx="0" cy="0" r="1" gradientTransform="matrix(0 -1.08883 1.17167 0 18.441 22.596)" gradientUnits="userSpaceOnUse"><stop stop-color="#FFCBB6"/><stop offset="1" stop-color="#FFCBB6" stop-opacity="0"/></radialGradient><radialGradient id="paint28_radial_3987_23566" cx="0" cy="0" r="1" gradientTransform="matrix(-.47266 0 0 -.1563 17.781 21.7)" gradientUnits="userSpaceOnUse"><stop stop-color="#FFDBC1"/><stop offset="1" stop-color="#FFDBC1" stop-opacity="0"/></radialGradient><radialGradient id="paint31_radial_3987_23566" cx="0" cy="0" r="1" gradientTransform="matrix(0 1.47101 -3.68346 0 19.648 23.55)" gradientUnits="userSpaceOnUse"><stop offset=".536" stop-color="#3E3433"/><stop offset="1" stop-color="#3E3433" stop-opacity="0"/></radialGradient><radialGradient id="paint32_radial_3987_23566" cx="0" cy="0" r="1" gradientTransform="matrix(-.04744 1.0556 -1.852 -.08323 15.45 23)" gradientUnits="userSpaceOnUse"><stop stop-color="#4F4D4D"/><stop offset="1" stop-color="#4F4D4D" stop-opacity="0"/></radialGradient><radialGradient id="paint33_radial_3987_23566" cx="0" cy="0" r="1" gradientTransform="matrix(.98127 .6518 -.4803 .7231 15.764 25.636)" gradientUnits="userSpaceOnUse"><stop stop-color="#5E5A5B"/><stop offset="1" stop-color="#5E5A5B" stop-opacity="0"/></radialGradient><radialGradient id="paint34_radial_3987_23566" cx="0" cy="0" r="1" gradientTransform="matrix(-.37652 -.61969 1.42846 -.86794 17.85 26.305)" gradientUnits="userSpaceOnUse"><stop offset=".287" stop-color="#484646"/><stop offset="1" stop-color="#484646" stop-opacity="0"/></radialGradient><radialGradient id="paint35_radial_3987_23566" cx="0" cy="0" r="1" gradientTransform="matrix(.98437 1.2624 -3.03347 2.36538 18.483 23.91)" gradientUnits="userSpaceOnUse"><stop offset=".653" stop-color="#4C4749" stop-opacity="0"/><stop offset=".959" stop-color="#4C4749"/></radialGradient><radialGradient id="paint36_radial_3987_23566" cx="0" cy="0" r="1" gradientTransform="rotate(153.734 5.496 13.878) scale(1.53331 2.40757)" gradientUnits="userSpaceOnUse"><stop offset=".724" stop-color="#4A403E" stop-opacity="0"/><stop offset="1" stop-color="#4A403E"/></radialGradient><radialGradient id="paint37_radial_3987_23566" cx="0" cy="0" r="1" gradientTransform="matrix(-.65625 .20515 -.16236 -.51937 17.255 24.646)" gradientUnits="userSpaceOnUse"><stop offset=".206" stop-color="#4E494B"/><stop offset="1" stop-color="#4E494B" stop-opacity="0"/></radialGradient><radialGradient id="paint38_radial_3987_23566" cx="0" cy="0" r="1" gradientTransform="matrix(0 -.34066 .53654 0 16.565 22.72)" gradientUnits="userSpaceOnUse"><stop offset=".802" stop-color="#7D574A"/><stop offset="1" stop-color="#694B43"/><stop offset="1" stop-color="#804D49"/><stop offset="1" stop-color="#664842"/></radialGradient><radialGradient id="paint39_radial_3987_23566" cx="0" cy="0" r="1" gradientTransform="matrix(.09654 .12564 -.17255 .13259 16.659 22.684)" gradientUnits="userSpaceOnUse"><stop offset=".766" stop-color="#FFE6E2" stop-opacity="0"/><stop offset=".966" stop-color="#FFE6E2"/></radialGradient><radialGradient id="paint41_radial_3987_23566" cx="0" cy="0" r="1" gradientTransform="matrix(0 -.34068 .53657 0 18.38 22.72)" gradientUnits="userSpaceOnUse"><stop offset=".802" stop-color="#7D574A"/><stop offset="1" stop-color="#694B43"/><stop offset="1" stop-color="#804D49"/><stop offset="1" stop-color="#664842"/></radialGradient><radialGradient id="paint43_radial_3987_23566" cx="0" cy="0" r="1" gradientTransform="matrix(-.00323 -.20727 .24777 -.00386 .156 .215)" gradientUnits="userSpaceOnUse"><stop offset=".766" stop-color="#FFE6E2" stop-opacity="0"/><stop offset=".966" stop-color="#FFE6E2"/></radialGradient><radialGradient id="paint44_radial_3987_23566" cx="0" cy="0" r="1" gradientTransform="matrix(-.77344 0 0 -1.0526 15.527 22.442)" gradientUnits="userSpaceOnUse"><stop offset=".451" stop-color="#D49883"/><stop offset=".869" stop-color="#DDA390"/></radialGradient><radialGradient id="paint45_radial_3987_23566" cx="0" cy="0" r="1" gradientTransform="matrix(.42344 -.95181 .92957 .41355 19.41 22.722)" gradientUnits="userSpaceOnUse"><stop offset=".685" stop-color="#FBC4AB" stop-opacity="0"/><stop offset=".887" stop-color="#FBC4AB"/></radialGradient><filter id="filter0_i_3987_23566" width="2.064" height="2.201" x="25.477" y="24.749" color-interpolation-filters="sRGB" filterUnits="userSpaceOnUse"><feFlood flood-opacity="0" result="BackgroundImageFix"/><feBlend in="SourceGraphic" in2="BackgroundImageFix" result="shape"/><feColorMatrix in="SourceAlpha" result="hardAlpha" values="0 0 0 0 0 0 0 0 0 0 0 0 0 0 0 0 0 0 127 0"/><feOffset dx="-.1" dy=".2"/><feGaussianBlur stdDeviation=".15"/><feComposite in2="hardAlpha" k2="-1" k3="1" operator="arithmetic"/><feColorMatrix values="0 0 0 0 0.976471 0 0 0 0 0.780392 0 0 0 0 0.717647 0 0 0 1 0"/><feBlend in2="shape" result="effect1_innerShadow_3987_23566"/></filter><filter id="filter1_i_3987_23566" width="2.069" height="2.206" x="25.515" y="25.228" color-interpolation-filters="sRGB" filterUnits="userSpaceOnUse"><feFlood flood-opacity="0" result="BackgroundImageFix"/><feBlend in="SourceGraphic" in2="BackgroundImageFix" result="shape"/><feColorMatrix in="SourceAlpha" result="hardAlpha" values="0 0 0 0 0 0 0 0 0 0 0 0 0 0 0 0 0 0 127 0"/><feOffset dx="-.1" dy=".2"/><feGaussianBlur stdDeviation=".15"/><feComposite in2="hardAlpha" k2="-1" k3="1" operator="arithmetic"/><feColorMatrix values="0 0 0 0 0.976471 0 0 0 0 0.780392 0 0 0 0 0.717647 0 0 0 1 0"/><feBlend in2="shape" result="effect1_innerShadow_3987_23566"/></filter><filter id="filter2_i_3987_23566" width="1.801" height="1.929" x="25.239" y="25.583" color-interpolation-filters="sRGB" filterUnits="userSpaceOnUse"><feFlood flood-opacity="0" result="BackgroundImageFix"/><feBlend in="SourceGraphic" in2="BackgroundImageFix" result="shape"/><feColorMatrix in="SourceAlpha" result="hardAlpha" values="0 0 0 0 0 0 0 0 0 0 0 0 0 0 0 0 0 0 127 0"/><feOffset dx="-.1" dy=".2"/><feGaussianBlur stdDeviation=".15"/><feComposite in2="hardAlpha" k2="-1" k3="1" operator="arithmetic"/><feColorMatrix values="0 0 0 0 0.976471 0 0 0 0 0.780392 0 0 0 0 0.717647 0 0 0 1 0"/><feBlend in2="shape" result="effect1_innerShadow_3987_23566"/></filter><filter id="filter3_i_3987_23566" width="1.405" height="1.524" x="24.915" y="26.094" color-interpolation-filters="sRGB" filterUnits="userSpaceOnUse"><feFlood flood-opacity="0" result="BackgroundImageFix"/><feBlend in="SourceGraphic" in2="BackgroundImageFix" result="shape"/><feColorMatrix in="SourceAlpha" result="hardAlpha" values="0 0 0 0 0 0 0 0 0 0 0 0 0 0 0 0 0 0 127 0"/><feOffset dx="-.1" dy=".2"/><feGaussianBlur stdDeviation=".2"/><feComposite in2="hardAlpha" k2="-1" k3="1" operator="arithmetic"/><feColorMatrix values="0 0 0 0 0.952941 0 0 0 0 0.74902 0 0 0 0 0.690196 0 0 0 1 0"/><feBlend in2="shape" result="effect1_innerShadow_3987_23566"/></filter><filter id="filter4_i_3987_23566" width="8.77" height="8.383" x="13.223" y="13.641" color-interpolation-filters="sRGB" filterUnits="userSpaceOnUse"><feFlood flood-opacity="0" result="BackgroundImageFix"/><feBlend in="SourceGraphic" in2="BackgroundImageFix" result="shape"/><feColorMatrix in="SourceAlpha" result="hardAlpha" values="0 0 0 0 0 0 0 0 0 0 0 0 0 0 0 0 0 0 127 0"/><feOffset dx="-.2"/><feGaussianBlur stdDeviation=".3"/><feComposite in2="hardAlpha" k2="-1" k3="1" operator="arithmetic"/><feColorMatrix values="0 0 0 0 0.92549 0 0 0 0 0.529412 0 0 0 0 0.329412 0 0 0 1 0"/><feBlend in2="shape" result="effect1_innerShadow_3987_23566"/></filter><filter id="filter5_i_3987_23566" width="6.829" height="7.242" x="20.747" y="3.348" color-interpolation-filters="sRGB" filterUnits="userSpaceOnUse"><feFlood flood-opacity="0" result="BackgroundImageFix"/><feBlend in="SourceGraphic" in2="BackgroundImageFix" result="shape"/><feColorMatrix in="SourceAlpha" result="hardAlpha" values="0 0 0 0 0 0 0 0 0 0 0 0 0 0 0 0 0 0 127 0"/><feOffset dy="-.25"/><feGaussianBlur stdDeviation=".5"/><feComposite in2="hardAlpha" k2="-1" k3="1" operator="arithmetic"/><feColorMatrix values="0 0 0 0 0.886275 0 0 0 0 0.701961 0 0 0 0 0.596078 0 0 0 1 0"/><feBlend in2="shape" result="effect1_innerShadow_3987_23566"/></filter><filter id="filter6_i_3987_23566" width="4.79" height="2.813" x="25.665" y="2.063" color-interpolation-filters="sRGB" filterUnits="userSpaceOnUse"><feFlood flood-opacity="0" result="BackgroundImageFix"/><feBlend in="SourceGraphic" in2="BackgroundImageFix" result="shape"/><feColorMatrix in="SourceAlpha" result="hardAlpha" values="0 0 0 0 0 0 0 0 0 0 0 0 0 0 0 0 0 0 127 0"/><feOffset dx="-.25" dy=".5"/><feGaussianBlur stdDeviation=".5"/><feComposite in2="hardAlpha" k2="-1" k3="1" operator="arithmetic"/><feColorMatrix values="0 0 0 0 0 0 0 0 0 0 0 0 0 0 0 0 0 0 0.25 0"/><feBlend in2="shape" result="effect1_innerShadow_3987_23566"/></filter><filter id="filter7_f_3987_23566" width="5.638" height="6.495" x="21.177" y="3.982" color-interpolation-filters="sRGB" filterUnits="userSpaceOnUse"><feFlood flood-opacity="0" result="BackgroundImageFix"/><feBlend in="SourceGraphic" in2="BackgroundImageFix" result="shape"/><feGaussianBlur result="effect1_foregroundBlur_3987_23566" stdDeviation=".075"/></filter><filter id="filter8_i_3987_23566" width="10.596" height="6.162" x="12.56" y="8.401" color-interpolation-filters="sRGB" filterUnits="userSpaceOnUse"><feFlood flood-opacity="0" result="BackgroundImageFix"/><feBlend in="SourceGraphic" in2="BackgroundImageFix" result="shape"/><feColorMatrix in="SourceAlpha" result="hardAlpha" values="0 0 0 0 0 0 0 0 0 0 0 0 0 0 0 0 0 0 127 0"/><feOffset dy=".5"/><feGaussianBlur stdDeviation=".5"/><feComposite in2="hardAlpha" k2="-1" k3="1" operator="arithmetic"/><feColorMatrix values="0 0 0 0 0.552941 0 0 0 0 0.552941 0 0 0 0 0.552941 0 0 0 1 0"/><feBlend in2="shape" result="effect1_innerShadow_3987_23566"/></filter><filter id="filter9_f_3987_23566" width="1.727" height="2.219" x="16.668" y="20.962" color-interpolation-filters="sRGB" filterUnits="userSpaceOnUse"><feFlood flood-opacity="0" result="BackgroundImageFix"/><feBlend in="SourceGraphic" in2="BackgroundImageFix" result="shape"/><feGaussianBlur result="effect1_foregroundBlur_3987_23566" stdDeviation=".25"/></filter><filter id="filter10_f_3987_23566" width=".981" height="1.419" x="16.982" y="21.444" color-interpolation-filters="sRGB" filterUnits="userSpaceOnUse"><feFlood flood-opacity="0" result="BackgroundImageFix"/><feBlend in="SourceGraphic" in2="BackgroundImageFix" result="shape"/><feGaussianBlur result="effect1_foregroundBlur_3987_23566" stdDeviation=".05"/></filter><filter id="filter11_f_3987_23566" width="1.74" height=".851" x="16.602" y="20.612" color-interpolation-filters="sRGB" filterUnits="userSpaceOnUse"><feFlood flood-opacity="0" result="BackgroundImageFix"/><feBlend in="SourceGraphic" in2="BackgroundImageFix" result="shape"/><feGaussianBlur result="effect1_foregroundBlur_3987_23566" stdDeviation=".05"/></filter><filter id="filter12_ii_3987_23566" width="5.355" height="3.801" x="14.795" y="22.251" color-interpolation-filters="sRGB" filterUnits="userSpaceOnUse"><feFlood flood-opacity="0" result="BackgroundImageFix"/><feBlend in="SourceGraphic" in2="BackgroundImageFix" result="shape"/><feColorMatrix in="SourceAlpha" result="hardAlpha" values="0 0 0 0 0 0 0 0 0 0 0 0 0 0 0 0 0 0 127 0"/><feOffset dy="-.5"/><feGaussianBlur stdDeviation=".625"/><feComposite in2="hardAlpha" k2="-1" k3="1" operator="arithmetic"/><feColorMatrix values="0 0 0 0 0.137255 0 0 0 0 0.0901961 0 0 0 0 0.145098 0 0 0 1 0"/><feBlend in2="shape" result="effect1_innerShadow_3987_23566"/><feColorMatrix in="SourceAlpha" result="hardAlpha" values="0 0 0 0 0 0 0 0 0 0 0 0 0 0 0 0 0 0 127 0"/><feOffset dy="-.2"/><feGaussianBlur stdDeviation=".2"/><feComposite in2="hardAlpha" k2="-1" k3="1" operator="arithmetic"/><feColorMatrix values="0 0 0 0 0.0784314 0 0 0 0 0.0352941 0 0 0 0 0.0470588 0 0 0 1 0"/><feBlend in2="effect1_innerShadow_3987_23566" result="effect2_innerShadow_3987_23566"/></filter><filter id="filter13_i_3987_23566" width="1.032" height=".616" x="15.88" y="23.182" color-interpolation-filters="sRGB" filterUnits="userSpaceOnUse"><feFlood flood-opacity="0" result="BackgroundImageFix"/><feBlend in="SourceGraphic" in2="BackgroundImageFix" result="shape"/><feColorMatrix in="SourceAlpha" result="hardAlpha" values="0 0 0 0 0 0 0 0 0 0 0 0 0 0 0 0 0 0 127 0"/><feOffset dx=".1" dy="-.2"/><feGaussianBlur stdDeviation=".125"/><feComposite in2="hardAlpha" k2="-1" k3="1" operator="arithmetic"/><feColorMatrix values="0 0 0 0 0.0588235 0 0 0 0 0.054902 0 0 0 0 0.0588235 0 0 0 1 0"/><feBlend in2="shape" result="effect1_innerShadow_3987_23566"/></filter><filter id="filter14_i_3987_23566" width="1.032" height=".61" x="18.066" y="23.182" color-interpolation-filters="sRGB" filterUnits="userSpaceOnUse"><feFlood flood-opacity="0" result="BackgroundImageFix"/><feBlend in="SourceGraphic" in2="BackgroundImageFix" result="shape"/><feColorMatrix in="SourceAlpha" result="hardAlpha" values="0 0 0 0 0 0 0 0 0 0 0 0 0 0 0 0 0 0 127 0"/><feOffset dx=".1" dy="-.2"/><feGaussianBlur stdDeviation=".125"/><feComposite in2="hardAlpha" k2="-1" k3="1" operator="arithmetic"/><feColorMatrix values="0 0 0 0 0.0588235 0 0 0 0 0.054902 0 0 0 0 0.0588235 0 0 0 1 0"/><feBlend in2="shape" result="effect1_innerShadow_3987_23566"/></filter><filter id="filter15_f_3987_23566" width="2.872" height="2.495" x="17.239" y="23.317" color-interpolation-filters="sRGB" filterUnits="userSpaceOnUse"><feFlood flood-opacity="0" result="BackgroundImageFix"/><feBlend in="SourceGraphic" in2="BackgroundImageFix" result="shape"/><feGaussianBlur result="effect1_foregroundBlur_3987_23566" stdDeviation=".05"/></filter><filter id="filter16_f_3987_23566" width="2.571" height="2.362" x="14.896" y="23.222" color-interpolation-filters="sRGB" filterUnits="userSpaceOnUse"><feFlood flood-opacity="0" result="BackgroundImageFix"/><feBlend in="SourceGraphic" in2="BackgroundImageFix" result="shape"/><feGaussianBlur result="effect1_foregroundBlur_3987_23566" stdDeviation=".05"/></filter><filter id="filter17_f_3987_23566" width=".444" height=".409" x="16.484" y="22.554" color-interpolation-filters="sRGB" filterUnits="userSpaceOnUse"><feFlood flood-opacity="0" result="BackgroundImageFix"/><feBlend in="SourceGraphic" in2="BackgroundImageFix" result="shape"/><feGaussianBlur result="effect1_foregroundBlur_3987_23566" stdDeviation=".05"/></filter><filter id="filter18_f_3987_23566" width=".604" height=".615" x="16.034" y="22.374" color-interpolation-filters="sRGB" filterUnits="userSpaceOnUse"><feFlood flood-opacity="0" result="BackgroundImageFix"/><feBlend in="SourceGraphic" in2="BackgroundImageFix" result="shape"/><feGaussianBlur result="effect1_foregroundBlur_3987_23566" stdDeviation=".1"/></filter><filter id="filter19_f_3987_23566" width=".643" height=".668" x="17.843" y="22.347" color-interpolation-filters="sRGB" filterUnits="userSpaceOnUse"><feFlood flood-opacity="0" result="BackgroundImageFix"/><feBlend in="SourceGraphic" in2="BackgroundImageFix" result="shape"/><feGaussianBlur result="effect1_foregroundBlur_3987_23566" stdDeviation=".1"/></filter><filter id="filter20_f_3987_23566" width=".497" height=".412" x="18.245" y="22.554" color-interpolation-filters="sRGB" filterUnits="userSpaceOnUse"><feFlood flood-opacity="0" result="BackgroundImageFix"/><feBlend in="SourceGraphic" in2="BackgroundImageFix" result="shape"/><feGaussianBlur result="effect1_foregroundBlur_3987_23566" stdDeviation=".05"/></filter><filter id="filter21_f_3987_23566" width=".594" height=".999" x="14.922" y="21.947" color-interpolation-filters="sRGB" filterUnits="userSpaceOnUse"><feFlood flood-opacity="0" result="BackgroundImageFix"/><feBlend in="SourceGraphic" in2="BackgroundImageFix" result="shape"/><feGaussianBlur result="effect1_foregroundBlur_3987_23566" stdDeviation=".05"/></filter><filter id="filter22_f_3987_23566" width=".988" height=".472" x="18.038" y="23.365" color-interpolation-filters="sRGB" filterUnits="userSpaceOnUse"><feFlood flood-opacity="0" result="BackgroundImageFix"/><feBlend in="SourceGraphic" in2="BackgroundImageFix" result="shape"/><feGaussianBlur result="effect1_foregroundBlur_3987_23566" stdDeviation=".05"/></filter><filter id="filter23_f_3987_23566" width=".988" height=".472" x="15.841" y="23.384" color-interpolation-filters="sRGB" filterUnits="userSpaceOnUse"><feFlood flood-opacity="0" result="BackgroundImageFix"/><feBlend in="SourceGraphic" in2="BackgroundImageFix" result="shape"/><feGaussianBlur result="effect1_foregroundBlur_3987_23566" stdDeviation=".05"/></filter><filter id="filter24_f_3987_23566" width=".545" height=".989" x="19.454" y="21.949" color-interpolation-filters="sRGB" filterUnits="userSpaceOnUse"><feFlood flood-opacity="0" result="BackgroundImageFix"/><feBlend in="SourceGraphic" in2="BackgroundImageFix" result="shape"/><feGaussianBlur result="effect1_foregroundBlur_3987_23566" stdDeviation=".05"/></filter><linearGradient id="paint0_linear_3987_23566" x1="26.275" x2="25.725" y1="27.951" y2="27.951" gradientUnits="userSpaceOnUse"><stop stop-color="#E8AB9C"/><stop offset="1" stop-color="#D1928C"/></linearGradient><linearGradient id="paint1_linear_3987_23566" x1="26.997" x2="28.808" y1="28.247" y2="28.311" gradientUnits="userSpaceOnUse"><stop stop-color="#FFDAC4"/><stop offset="1" stop-color="#DFA395"/></linearGradient><linearGradient id="paint3_linear_3987_23566" x1="28.792" x2="28" y1="28.767" y2="28.757" gradientUnits="userSpaceOnUse"><stop stop-color="#D0908B"/><stop offset="1" stop-color="#DE9F96" stop-opacity="0"/></linearGradient><linearGradient id="paint12_linear_3987_23566" x1="14.03" x2="18.842" y1="13.438" y2="15.094" gradientUnits="userSpaceOnUse"><stop offset=".288" stop-color="#D25836"/><stop offset="1" stop-color="#D25836" stop-opacity="0"/></linearGradient><linearGradient id="paint14_linear_3987_23566" x1="8.962" x2="8.962" y1="14.039" y2="12.691" gradientUnits="userSpaceOnUse"><stop stop-color="#CB8E91"/><stop offset="1" stop-color="#E7B1A6" stop-opacity="0"/></linearGradient><linearGradient id="paint16_linear_3987_23566" x1="27.436" x2="27.436" y1="2.063" y2="2.211" gradientUnits="userSpaceOnUse"><stop stop-color="#444570"/><stop offset="1" stop-color="#444570" stop-opacity="0"/></linearGradient><linearGradient id="paint17_linear_3987_23566" x1="25.915" x2="26.593" y1="2.531" y2="2.531" gradientUnits="userSpaceOnUse"><stop stop-color="#5F5E7A"/><stop offset="1" stop-color="#41406B" stop-opacity="0"/></linearGradient><linearGradient id="paint18_linear_3987_23566" x1="5.467" x2="4.811" y1="11.812" y2="12.391" gradientUnits="userSpaceOnUse"><stop stop-color="#686897"/><stop offset="1" stop-color="#514F87"/></linearGradient><linearGradient id="paint19_linear_3987_23566" x1="3.1" x2="3.256" y1="12.578" y2="12.766" gradientUnits="userSpaceOnUse"><stop offset=".07" stop-color="#424272"/><stop offset="1" stop-color="#424272" stop-opacity="0"/></linearGradient><linearGradient id="paint21_linear_3987_23566" x1="12.876" x2="13.345" y1="14.469" y2="11.781" gradientUnits="userSpaceOnUse"><stop offset=".264" stop-color="#836591"/><stop offset="1" stop-color="#9E93A6" stop-opacity="0"/></linearGradient><linearGradient id="paint22_linear_3987_23566" x1="21.72" x2="20.845" y1="12.875" y2="12.438" gradientUnits="userSpaceOnUse"><stop stop-color="#9D94A4"/><stop offset="1" stop-color="#9D94A4" stop-opacity="0"/></linearGradient><linearGradient id="paint25_linear_3987_23566" x1="19.16" x2="15.91" y1="21.949" y2="21.98" gradientUnits="userSpaceOnUse"><stop stop-color="#FFE1C6"/><stop offset="1" stop-color="#EBB09E"/></linearGradient><linearGradient id="paint27_linear_3987_23566" x1="17.77" x2="17.238" y1="22.154" y2="22.154" gradientUnits="userSpaceOnUse"><stop stop-color="#F8BFB2"/><stop offset="1" stop-color="#DFA7A0"/></linearGradient><linearGradient id="paint29_linear_3987_23566" x1="18.142" x2="17.836" y1="20.892" y2="21.26" gradientUnits="userSpaceOnUse"><stop stop-color="#FFD0B8"/><stop offset="1" stop-color="#FFD0B8" stop-opacity="0"/></linearGradient><linearGradient id="paint30_linear_3987_23566" x1="14.622" x2="19.453" y1="24.714" y2="24.714" gradientUnits="userSpaceOnUse"><stop stop-color="#443D40"/><stop offset="1" stop-color="#272127"/></linearGradient><linearGradient id="paint40_linear_3987_23566" x1="16.242" x2="16.372" y1="22.697" y2="22.617" gradientUnits="userSpaceOnUse"><stop stop-color="#B4948D"/><stop offset="1" stop-color="#B4948D" stop-opacity="0"/></linearGradient><linearGradient id="paint42_linear_3987_23566" x1="18.072" x2="18.203" y1="22.697" y2="22.617" gradientUnits="userSpaceOnUse"><stop stop-color="#B4948D"/><stop offset="1" stop-color="#B4948D" stop-opacity="0"/></linearGradient></defs></svg>