<svg xmlns="http://www.w3.org/2000/svg" width="32" height="32" fill="none" viewBox="0 0 32 32"><g filter="url(#filter0_i_20020_5070)"><path fill="url(#paint0_linear_20020_5070)" d="m22.056 17.14-4.95-4.95c-.1-.1-.15-.22-.15-.36V2.31c0-.17-.14-.31-.31-.31h-1.38c-.17 0-.31.14-.31.31v9.52c0 .13-.05.26-.15.35l-4.95 4.96 1.41 1.42 4.51-4.51c.1-.1.26-.1.35 0l4.51 4.51 1.42-1.42Z"/><path fill="url(#paint1_radial_20020_5070)" d="m22.056 17.14-4.95-4.95c-.1-.1-.15-.22-.15-.36V2.31c0-.17-.14-.31-.31-.31h-1.38c-.17 0-.31.14-.31.31v9.52c0 .13-.05.26-.15.35l-4.95 4.96 1.41 1.42 4.51-4.51c.1-.1.26-.1.35 0l4.51 4.51 1.42-1.42Z"/></g><path fill="url(#paint2_linear_20020_5070)" d="m22.056 17.14-4.95-4.95c-.1-.1-.15-.22-.15-.36V2.31c0-.17-.14-.31-.31-.31h-1.38c-.17 0-.31.14-.31.31v9.52c0 .13-.05.26-.15.35l-4.95 4.96 1.41 1.42 4.51-4.51c.1-.1.26-.1.35 0l4.51 4.51 1.42-1.42Z"/><g filter="url(#filter1_f_20020_5070)"><path fill="url(#paint3_linear_20020_5070)" d="M15.857 2.345h.791v10.403h-.791z"/></g><g filter="url(#filter2_i_20020_5070)"><path fill="url(#paint4_radial_20020_5070)" d="M16.956 3.97h-2c-.28 0-.5-.22-.5-.5s.22-.5.5-.5h2c.28 0 .5.22.5.5s-.22.5-.5.5Z"/></g><g filter="url(#filter3_i_20020_5070)"><path fill="url(#paint5_radial_20020_5070)" d="M16.956 5.98h-2c-.28 0-.5-.22-.5-.5s.22-.5.5-.5h2c.28 0 .5.22.5.5 0 .27-.22.5-.5.5Z"/></g><g filter="url(#filter4_i_20020_5070)"><path fill="url(#paint6_radial_20020_5070)" d="M16.956 7.98h-2c-.28 0-.5-.22-.5-.5s.22-.5.5-.5h2c.28 0 .5.22.5.5 0 .27-.22.5-.5.5Z"/></g><g filter="url(#filter5_i_20020_5070)"><path fill="url(#paint7_radial_20020_5070)" d="M16.956 9.98h-2c-.28 0-.5-.22-.5-.5s.22-.5.5-.5h2c.28 0 .5.22.5.5s-.22.5-.5.5Z"/></g><path fill="url(#paint8_radial_20020_5070)" d="M4.486 29.99h5.84c2 0 3.63-1.62 3.63-3.63v-6.12h-9.47v9.75Z"/><path fill="url(#paint9_linear_20020_5070)" d="M4.486 29.99h5.84c2 0 3.63-1.62 3.63-3.63v-6.12h-9.47v9.75Z"/><path fill="#F992B0" d="M1.956 16.39v11.3c0 1.84 2.049 2.94 3.577 1.92L11 26.18a6 6 0 0 0 2.947-5.17v-7.53l-11.99 2.91Z"/><path fill="url(#paint10_linear_20020_5070)" d="M1.956 16.39v11.3c0 1.84 2.049 2.94 3.577 1.92L11 26.18a6 6 0 0 0 2.947-5.17v-7.53l-11.99 2.91Z"/><path fill="url(#paint11_linear_20020_5070)" d="M1.956 16.39v11.3c0 1.84 2.049 2.94 3.577 1.92L11 26.18a6 6 0 0 0 2.947-5.17v-7.53l-11.99 2.91Z"/><path fill="url(#paint12_linear_20020_5070)" d="M1.956 16.39v11.3c0 1.84 2.049 2.94 3.577 1.92L11 26.18a6 6 0 0 0 2.947-5.17v-7.53l-11.99 2.91Z"/><g filter="url(#filter6_f_20020_5070)"><rect width="1.655" height="6.969" x="11.332" y="16.594" fill="url(#paint13_linear_20020_5070)" rx=".828"/></g><g filter="url(#filter7_i_20020_5070)"><path fill="url(#paint14_radial_20020_5070)" d="M13.946 8.97c0-2.21-1.79-4-4-4-1.19 0-2.26.52-3 1.35l-2.07 2.36a11.651 11.651 0 0 0-2.92 7.71c0 .88.71 1.59 1.59 1.59h6.72c2.04 0 3.68-1.65 3.68-3.69V8.97Z"/><path fill="url(#paint15_linear_20020_5070)" d="M13.946 8.97c0-2.21-1.79-4-4-4-1.19 0-2.26.52-3 1.35l-2.07 2.36a11.651 11.651 0 0 0-2.92 7.71c0 .88.71 1.59 1.59 1.59h6.72c2.04 0 3.68-1.65 3.68-3.69V8.97Z"/><path fill="url(#paint16_radial_20020_5070)" d="M13.946 8.97c0-2.21-1.79-4-4-4-1.19 0-2.26.52-3 1.35l-2.07 2.36a11.651 11.651 0 0 0-2.92 7.71c0 .88.71 1.59 1.59 1.59h6.72c2.04 0 3.68-1.65 3.68-3.69V8.97Z"/></g><path fill="url(#paint17_linear_20020_5070)" d="M13.946 8.97c0-2.21-1.79-4-4-4-1.19 0-2.26.52-3 1.35l-2.07 2.36a11.651 11.651 0 0 0-2.92 7.71c0 .88.71 1.59 1.59 1.59h6.72c2.04 0 3.68-1.65 3.68-3.69V8.97Z"/><path fill="url(#paint18_radial_20020_5070)" d="M27.426 29.99h-5.84c-2 0-3.63-1.62-3.63-3.63v-6.12h9.46v9.75h.01Z"/><path fill="#F992B0" d="M29.956 16.39v11.3c0 1.84-2.048 2.94-3.577 1.92l-5.465-3.43a6 6 0 0 1-2.948-5.17v-7.53l11.99 2.91Z"/><path fill="url(#paint19_linear_20020_5070)" d="M29.956 16.39v11.3c0 1.84-2.048 2.94-3.577 1.92l-5.465-3.43a6 6 0 0 1-2.948-5.17v-7.53l11.99 2.91Z"/><path fill="url(#paint20_linear_20020_5070)" d="M29.956 16.39v11.3c0 1.84-2.048 2.94-3.577 1.92l-5.465-3.43a6 6 0 0 1-2.948-5.17v-7.53l11.99 2.91Z"/><path fill="url(#paint21_linear_20020_5070)" d="M29.956 16.39v11.3c0 1.84-2.048 2.94-3.577 1.92l-5.465-3.43a6 6 0 0 1-2.948-5.17v-7.53l11.99 2.91Z"/><g filter="url(#filter8_f_20020_5070)"><rect width="1.655" height="8.281" x="27.645" y="18.813" fill="url(#paint22_linear_20020_5070)" rx=".828"/></g><g filter="url(#filter9_i_20020_5070)"><path fill="url(#paint23_radial_20020_5070)" d="M17.956 8.97c0-2.21 1.79-4 4-4 1.19 0 2.26.52 3 1.35l2.07 2.36c1.88 2.13 2.92 4.87 2.92 7.71 0 .88-.71 1.59-1.59 1.59h-6.72c-2.04 0-3.68-1.65-3.68-3.69V8.97Z"/><path fill="url(#paint24_linear_20020_5070)" d="M17.956 8.97c0-2.21 1.79-4 4-4 1.19 0 2.26.52 3 1.35l2.07 2.36c1.88 2.13 2.92 4.87 2.92 7.71 0 .88-.71 1.59-1.59 1.59h-6.72c-2.04 0-3.68-1.65-3.68-3.69V8.97Z"/><path fill="url(#paint25_radial_20020_5070)" d="M17.956 8.97c0-2.21 1.79-4 4-4 1.19 0 2.26.52 3 1.35l2.07 2.36c1.88 2.13 2.92 4.87 2.92 7.71 0 .88-.71 1.59-1.59 1.59h-6.72c-2.04 0-3.68-1.65-3.68-3.69V8.97Z"/><path fill="url(#paint26_linear_20020_5070)" d="M17.956 8.97c0-2.21 1.79-4 4-4 1.19 0 2.26.52 3 1.35l2.07 2.36c1.88 2.13 2.92 4.87 2.92 7.71 0 .88-.71 1.59-1.59 1.59h-6.72c-2.04 0-3.68-1.65-3.68-3.69V8.97Z"/></g><path fill="url(#paint27_linear_20020_5070)" d="M17.956 8.97c0-2.21 1.79-4 4-4 1.19 0 2.26.52 3 1.35l2.07 2.36c1.88 2.13 2.92 4.87 2.92 7.71 0 .88-.71 1.59-1.59 1.59h-6.72c-2.04 0-3.68-1.65-3.68-3.69V8.97Z"/><g filter="url(#filter10_f_20020_5070)"><path stroke="url(#paint28_linear_20020_5070)" stroke-linecap="round" stroke-width="1.5" d="M10.179 6.296c.801 0 2.45.618 2.45 2.843v5.564"/></g><g filter="url(#filter11_f_20020_5070)"><path stroke="url(#paint29_linear_20020_5070)" stroke-linecap="round" stroke-width="1.5" d="m23.099 6.438 4.668 5.611.896 4.527"/></g><defs><linearGradient id="paint0_linear_20020_5070" x1="15.956" x2="15.956" y1="4.016" y2="14.218" gradientUnits="userSpaceOnUse"><stop stop-color="#EEC683"/><stop offset="1" stop-color="#DF9F76"/></linearGradient><linearGradient id="paint2_linear_20020_5070" x1="15.956" x2="15.956" y1="1.155" y2="3.701" gradientUnits="userSpaceOnUse"><stop stop-color="#E7C281"/><stop offset="1" stop-color="#E7C281" stop-opacity="0"/></linearGradient><linearGradient id="paint3_linear_20020_5070" x1="16.253" x2="16.253" y1="2.345" y2="12.748" gradientUnits="userSpaceOnUse"><stop stop-color="#FFE09A"/><stop offset="1" stop-color="#FFE09A" stop-opacity="0"/></linearGradient><linearGradient id="paint9_linear_20020_5070" x1="8.493" x2="9.221" y1="27.255" y2="28.404" gradientUnits="userSpaceOnUse"><stop stop-color="#B63974"/><stop offset="1" stop-color="#B63974" stop-opacity="0"/></linearGradient><linearGradient id="paint10_linear_20020_5070" x1=".956" x2="4.456" y1="22.438" y2="22.438" gradientUnits="userSpaceOnUse"><stop stop-color="#C7597A"/><stop offset="1" stop-color="#C7597A" stop-opacity="0"/></linearGradient><linearGradient id="paint11_linear_20020_5070" x1="7.951" x2="7.951" y1="16.531" y2="23.531" gradientUnits="userSpaceOnUse"><stop stop-color="#AF2F65"/><stop offset="1" stop-color="#DF6D9D" stop-opacity="0"/></linearGradient><linearGradient id="paint12_linear_20020_5070" x1="7.951" x2="6.325" y1="28.5" y2="25.064" gradientUnits="userSpaceOnUse"><stop stop-color="#C8419E"/><stop offset="1" stop-color="#C8419E" stop-opacity="0"/></linearGradient><linearGradient id="paint13_linear_20020_5070" x1="9.674" x2="9.674" y1="29" y2="8.313" gradientUnits="userSpaceOnUse"><stop stop-color="#FFA9BC" stop-opacity="0"/><stop offset="1" stop-color="#FFA9BC"/></linearGradient><linearGradient id="paint15_linear_20020_5070" x1="7.951" x2="7.951" y1="17.98" y2="13.773" gradientUnits="userSpaceOnUse"><stop stop-color="#DA4996"/><stop offset="1" stop-color="#DA4996" stop-opacity="0"/></linearGradient><linearGradient id="paint17_linear_20020_5070" x1="7.951" x2="7.951" y1="18.745" y2="13.773" gradientUnits="userSpaceOnUse"><stop stop-color="#DA4996"/><stop offset=".588" stop-color="#DA4996" stop-opacity="0"/></linearGradient><linearGradient id="paint19_linear_20020_5070" x1="16.748" x2="20.651" y1="22.438" y2="22.438" gradientUnits="userSpaceOnUse"><stop stop-color="#C7597A"/><stop offset="1" stop-color="#C7597A" stop-opacity="0"/></linearGradient><linearGradient id="paint20_linear_20020_5070" x1="23.961" x2="23.961" y1="16.531" y2="23.531" gradientUnits="userSpaceOnUse"><stop stop-color="#AF2F65"/><stop offset="1" stop-color="#DF6D9D" stop-opacity="0"/></linearGradient><linearGradient id="paint21_linear_20020_5070" x1="23.961" x2="25.587" y1="28.5" y2="25.064" gradientUnits="userSpaceOnUse"><stop stop-color="#C8419E"/><stop offset="1" stop-color="#C8419E" stop-opacity="0"/></linearGradient><linearGradient id="paint22_linear_20020_5070" x1="25.987" x2="25.987" y1="28.344" y2="15.969" gradientUnits="userSpaceOnUse"><stop stop-color="#FFA9BC" stop-opacity="0"/><stop offset=".364" stop-color="#FFA9BC"/><stop offset="1" stop-color="#FFA9BC" stop-opacity="0"/></linearGradient><linearGradient id="paint24_linear_20020_5070" x1="23.951" x2="23.951" y1="17.98" y2="13.773" gradientUnits="userSpaceOnUse"><stop stop-color="#DA4996"/><stop offset="1" stop-color="#DA4996" stop-opacity="0"/></linearGradient><linearGradient id="paint26_linear_20020_5070" x1="17.582" x2="20.458" y1="13.463" y2="13.463" gradientUnits="userSpaceOnUse"><stop stop-color="#DF6886"/><stop offset="1" stop-color="#DF6886" stop-opacity="0"/></linearGradient><linearGradient id="paint27_linear_20020_5070" x1="23.951" x2="23.951" y1="18.745" y2="13.773" gradientUnits="userSpaceOnUse"><stop stop-color="#DA4996"/><stop offset=".588" stop-color="#DA4996" stop-opacity="0"/></linearGradient><linearGradient id="paint28_linear_20020_5070" x1="11.829" x2="17.142" y1="5.778" y2="12.994" gradientUnits="userSpaceOnUse"><stop stop-color="#FFBBC6"/><stop offset="1" stop-color="#FFBBC6" stop-opacity="0"/></linearGradient><linearGradient id="paint29_linear_20020_5070" x1="26.846" x2="32.926" y1="5.812" y2="21.177" gradientUnits="userSpaceOnUse"><stop stop-color="#FFBBC6"/><stop offset="1" stop-color="#FFBBC6" stop-opacity="0"/></linearGradient><filter id="filter0_i_20020_5070" width="12.2" height="16.56" x="9.856" y="2" color-interpolation-filters="sRGB" filterUnits="userSpaceOnUse"><feFlood flood-opacity="0" result="BackgroundImageFix"/><feBlend in="SourceGraphic" in2="BackgroundImageFix" result="shape"/><feColorMatrix in="SourceAlpha" result="hardAlpha" values="0 0 0 0 0 0 0 0 0 0 0 0 0 0 0 0 0 0 127 0"/><feOffset/><feGaussianBlur stdDeviation=".5"/><feComposite in2="hardAlpha" k2="-1" k3="1" operator="arithmetic"/><feColorMatrix values="0 0 0 0 0.627451 0 0 0 0 0.34902 0 0 0 0 0.337255 0 0 0 1 0"/><feBlend in2="shape" result="effect1_innerShadow_20020_5070"/></filter><filter id="filter1_f_20020_5070" width="1.791" height="11.403" x="15.357" y="1.845" color-interpolation-filters="sRGB" filterUnits="userSpaceOnUse"><feFlood flood-opacity="0" result="BackgroundImageFix"/><feBlend in="SourceGraphic" in2="BackgroundImageFix" result="shape"/><feGaussianBlur result="effect1_foregroundBlur_20020_5070" stdDeviation=".25"/></filter><filter id="filter2_i_20020_5070" width="3" height="1" x="14.456" y="2.97" color-interpolation-filters="sRGB" filterUnits="userSpaceOnUse"><feFlood flood-opacity="0" result="BackgroundImageFix"/><feBlend in="SourceGraphic" in2="BackgroundImageFix" result="shape"/><feColorMatrix in="SourceAlpha" result="hardAlpha" values="0 0 0 0 0 0 0 0 0 0 0 0 0 0 0 0 0 0 127 0"/><feOffset/><feGaussianBlur stdDeviation=".125"/><feComposite in2="hardAlpha" k2="-1" k3="1" operator="arithmetic"/><feColorMatrix values="0 0 0 0 0.729412 0 0 0 0 0.478431 0 0 0 0 0.309804 0 0 0 1 0"/><feBlend in2="shape" result="effect1_innerShadow_20020_5070"/></filter><filter id="filter3_i_20020_5070" width="3" height="1" x="14.456" y="4.98" color-interpolation-filters="sRGB" filterUnits="userSpaceOnUse"><feFlood flood-opacity="0" result="BackgroundImageFix"/><feBlend in="SourceGraphic" in2="BackgroundImageFix" result="shape"/><feColorMatrix in="SourceAlpha" result="hardAlpha" values="0 0 0 0 0 0 0 0 0 0 0 0 0 0 0 0 0 0 127 0"/><feOffset/><feGaussianBlur stdDeviation=".125"/><feComposite in2="hardAlpha" k2="-1" k3="1" operator="arithmetic"/><feColorMatrix values="0 0 0 0 0.729412 0 0 0 0 0.478431 0 0 0 0 0.309804 0 0 0 1 0"/><feBlend in2="shape" result="effect1_innerShadow_20020_5070"/></filter><filter id="filter4_i_20020_5070" width="3" height="1" x="14.456" y="6.98" color-interpolation-filters="sRGB" filterUnits="userSpaceOnUse"><feFlood flood-opacity="0" result="BackgroundImageFix"/><feBlend in="SourceGraphic" in2="BackgroundImageFix" result="shape"/><feColorMatrix in="SourceAlpha" result="hardAlpha" values="0 0 0 0 0 0 0 0 0 0 0 0 0 0 0 0 0 0 127 0"/><feOffset/><feGaussianBlur stdDeviation=".125"/><feComposite in2="hardAlpha" k2="-1" k3="1" operator="arithmetic"/><feColorMatrix values="0 0 0 0 0.729412 0 0 0 0 0.478431 0 0 0 0 0.309804 0 0 0 1 0"/><feBlend in2="shape" result="effect1_innerShadow_20020_5070"/></filter><filter id="filter5_i_20020_5070" width="3" height="1" x="14.456" y="8.98" color-interpolation-filters="sRGB" filterUnits="userSpaceOnUse"><feFlood flood-opacity="0" result="BackgroundImageFix"/><feBlend in="SourceGraphic" in2="BackgroundImageFix" result="shape"/><feColorMatrix in="SourceAlpha" result="hardAlpha" values="0 0 0 0 0 0 0 0 0 0 0 0 0 0 0 0 0 0 127 0"/><feOffset/><feGaussianBlur stdDeviation=".125"/><feComposite in2="hardAlpha" k2="-1" k3="1" operator="arithmetic"/><feColorMatrix values="0 0 0 0 0.686275 0 0 0 0 0.384314 0 0 0 0 0.317647 0 0 0 1 0"/><feBlend in2="shape" result="effect1_innerShadow_20020_5070"/></filter><filter id="filter6_f_20020_5070" width="4.155" height="9.469" x="10.082" y="15.344" color-interpolation-filters="sRGB" filterUnits="userSpaceOnUse"><feFlood flood-opacity="0" result="BackgroundImageFix"/><feBlend in="SourceGraphic" in2="BackgroundImageFix" result="shape"/><feGaussianBlur result="effect1_foregroundBlur_20020_5070" stdDeviation=".625"/></filter><filter id="filter7_i_20020_5070" width="12.14" height="13.16" x="1.956" y="4.97" color-interpolation-filters="sRGB" filterUnits="userSpaceOnUse"><feFlood flood-opacity="0" result="BackgroundImageFix"/><feBlend in="SourceGraphic" in2="BackgroundImageFix" result="shape"/><feColorMatrix in="SourceAlpha" result="hardAlpha" values="0 0 0 0 0 0 0 0 0 0 0 0 0 0 0 0 0 0 127 0"/><feOffset dx=".15" dy=".15"/><feGaussianBlur stdDeviation=".75"/><feComposite in2="hardAlpha" k2="-1" k3="1" operator="arithmetic"/><feColorMatrix values="0 0 0 0 0.847059 0 0 0 0 0.545098 0 0 0 0 0.564706 0 0 0 1 0"/><feBlend in2="shape" result="effect1_innerShadow_20020_5070"/></filter><filter id="filter8_f_20020_5070" width="4.155" height="10.781" x="26.395" y="17.563" color-interpolation-filters="sRGB" filterUnits="userSpaceOnUse"><feFlood flood-opacity="0" result="BackgroundImageFix"/><feBlend in="SourceGraphic" in2="BackgroundImageFix" result="shape"/><feGaussianBlur result="effect1_foregroundBlur_20020_5070" stdDeviation=".625"/></filter><filter id="filter9_i_20020_5070" width="12.14" height="13.16" x="17.956" y="4.97" color-interpolation-filters="sRGB" filterUnits="userSpaceOnUse"><feFlood flood-opacity="0" result="BackgroundImageFix"/><feBlend in="SourceGraphic" in2="BackgroundImageFix" result="shape"/><feColorMatrix in="SourceAlpha" result="hardAlpha" values="0 0 0 0 0 0 0 0 0 0 0 0 0 0 0 0 0 0 127 0"/><feOffset dx=".15" dy=".15"/><feGaussianBlur stdDeviation=".75"/><feComposite in2="hardAlpha" k2="-1" k3="1" operator="arithmetic"/><feColorMatrix values="0 0 0 0 0.847059 0 0 0 0 0.545098 0 0 0 0 0.564706 0 0 0 1 0"/><feBlend in2="shape" result="effect1_innerShadow_20020_5070"/></filter><filter id="filter10_f_20020_5070" width="6.951" height="12.907" x="7.929" y="4.046" color-interpolation-filters="sRGB" filterUnits="userSpaceOnUse"><feFlood flood-opacity="0" result="BackgroundImageFix"/><feBlend in="SourceGraphic" in2="BackgroundImageFix" result="shape"/><feGaussianBlur result="effect1_foregroundBlur_20020_5070" stdDeviation=".75"/></filter><filter id="filter11_f_20020_5070" width="10.064" height="14.638" x="20.849" y="4.188" color-interpolation-filters="sRGB" filterUnits="userSpaceOnUse"><feFlood flood-opacity="0" result="BackgroundImageFix"/><feBlend in="SourceGraphic" in2="BackgroundImageFix" result="shape"/><feGaussianBlur result="effect1_foregroundBlur_20020_5070" stdDeviation=".75"/></filter><radialGradient id="paint1_radial_20020_5070" cx="0" cy="0" r="1" gradientTransform="matrix(-2.1506 -5.21208 3.92046 -1.61766 18.28 15.492)" gradientUnits="userSpaceOnUse"><stop offset=".147" stop-color="#BD775B"/><stop offset="1" stop-color="#BD775B" stop-opacity="0"/></radialGradient><radialGradient id="paint4_radial_20020_5070" cx="0" cy="0" r="1" gradientTransform="matrix(-1.80269 0 0 -.72848 16.57 3.32)" gradientUnits="userSpaceOnUse"><stop stop-color="#FFD885"/><stop offset="1" stop-color="#DB984F"/></radialGradient><radialGradient id="paint5_radial_20020_5070" cx="0" cy="0" r="1" gradientTransform="matrix(-1.80269 0 0 -.72848 16.57 5.33)" gradientUnits="userSpaceOnUse"><stop stop-color="#FFD885"/><stop offset="1" stop-color="#DB984F"/></radialGradient><radialGradient id="paint6_radial_20020_5070" cx="0" cy="0" r="1" gradientTransform="matrix(-1.80269 0 0 -.72848 16.57 7.33)" gradientUnits="userSpaceOnUse"><stop stop-color="#FAC376"/><stop offset="1" stop-color="#CF8245"/></radialGradient><radialGradient id="paint7_radial_20020_5070" cx="0" cy="0" r="1" gradientTransform="matrix(1.68224 0 0 .67981 15.673 9.33)" gradientUnits="userSpaceOnUse"><stop stop-color="#E7A866"/><stop offset="1" stop-color="#D18045"/></radialGradient><radialGradient id="paint8_radial_20020_5070" cx="0" cy="0" r="1" gradientTransform="matrix(1.53148 2.3519 -6.91817 4.50486 10.216 26.982)" gradientUnits="userSpaceOnUse"><stop stop-color="#DB5797"/><stop offset="1" stop-color="#C1367C"/></radialGradient><radialGradient id="paint14_radial_20020_5070" cx="0" cy="0" r="1" gradientTransform="matrix(0 12.1971 -12.2044 0 10.763 6.717)" gradientUnits="userSpaceOnUse"><stop stop-color="#FF96B2"/><stop offset="1" stop-color="#F57DB1"/></radialGradient><radialGradient id="paint16_radial_20020_5070" cx="0" cy="0" r="1" gradientTransform="rotate(122.053 5.461 6.01) scale(7.06898 6.51477)" gradientUnits="userSpaceOnUse"><stop stop-color="#FFAFB4"/><stop offset="1" stop-color="#FFAFB4" stop-opacity="0"/></radialGradient><radialGradient id="paint18_radial_20020_5070" cx="0" cy="0" r="1" gradientTransform="rotate(122.164 2.862 19.939) scale(3.13368 7.46021)" gradientUnits="userSpaceOnUse"><stop stop-color="#BE4B88"/><stop offset="1" stop-color="#A82868"/></radialGradient><radialGradient id="paint23_radial_20020_5070" cx="0" cy="0" r="1" gradientTransform="matrix(0 12.1971 -12.2044 0 21.14 6.717)" gradientUnits="userSpaceOnUse"><stop stop-color="#FF96B2"/><stop offset="1" stop-color="#F57DB1"/></radialGradient><radialGradient id="paint25_radial_20020_5070" cx="0" cy="0" r="1" gradientTransform="matrix(2.87467 6.33909 -5.8421 2.6493 19.326 4.222)" gradientUnits="userSpaceOnUse"><stop stop-color="#FFAFB4"/><stop offset="1" stop-color="#FFAFB4" stop-opacity="0"/></radialGradient></defs></svg>