<svg xmlns="http://www.w3.org/2000/svg" width="32" height="32" fill="none" viewBox="0 0 32 32"><path fill="url(#paint0_radial_4002_4048)" d="M26.919 19.45a3.583 3.583 0 0 0-3.305-2.188H8.312c-1.442 0-2.744.86-3.305 2.189l-2.754 6.641h4.75v4.17h18v-4.15l4.75-.016-2.834-6.645Z"/><path fill="url(#paint1_radial_4002_4048)" d="M26.919 19.45a3.583 3.583 0 0 0-3.305-2.188H8.312c-1.442 0-2.744.86-3.305 2.189l-2.754 6.641h4.75v4.17h18v-4.15l4.75-.016-2.834-6.645Z"/><path fill="url(#paint2_linear_4002_4048)" d="M26.919 19.45a3.583 3.583 0 0 0-3.305-2.188H8.312c-1.442 0-2.744.86-3.305 2.189l-2.754 6.641h4.75v4.17h18v-4.15l4.75-.016-2.834-6.645Z"/><g filter="url(#filter0_i_4002_4048)"><path fill="url(#paint3_radial_4002_4048)" d="M10.977 25.853c.115.029.229.058.333.097.987.361 1.693 1.268 1.693 2.332 0 .81-.405 1.522-1.039 1.98H5.181c-1.755 0-3.178-1.356-3.178-3.005 0-1.648 1.423-2.995 3.189-2.995.27 0 .54.04.79.098.114.03.228.058.332.097l4.663 1.396Z"/><path fill="url(#paint4_linear_4002_4048)" d="M10.977 25.853c.115.029.229.058.333.097.987.361 1.693 1.268 1.693 2.332 0 .81-.405 1.522-1.039 1.98H5.181c-1.755 0-3.178-1.356-3.178-3.005 0-1.648 1.423-2.995 3.189-2.995.27 0 .54.04.79.098.114.03.228.058.332.097l4.663 1.396Z"/></g><path fill="url(#paint5_radial_4002_4048)" d="M21.029 25.853a3.165 3.165 0 0 0-.333.097c-.987.361-1.693 1.268-1.693 2.332 0 .81.405 1.522 1.039 1.98h6.782c1.756 0 3.179-1.356 3.179-3.005 0-1.648-1.423-2.995-3.189-2.995-.27 0-.54.04-.79.098-.114.03-.228.058-.332.097l-4.663 1.396Z"/><path fill="url(#paint6_linear_4002_4048)" d="M21.029 25.853a3.165 3.165 0 0 0-.333.097c-.987.361-1.693 1.268-1.693 2.332 0 .81.405 1.522 1.039 1.98h6.782c1.756 0 3.179-1.356 3.179-3.005 0-1.648-1.423-2.995-3.189-2.995-.27 0-.54.04-.79.098-.114.03-.228.058-.332.097l-4.663 1.396Z"/><path fill="url(#paint7_radial_4002_4048)" d="M21.029 25.853a3.165 3.165 0 0 0-.333.097c-.987.361-1.693 1.268-1.693 2.332 0 .81.405 1.522 1.039 1.98h6.782c1.756 0 3.179-1.356 3.179-3.005 0-1.648-1.423-2.995-3.189-2.995-.27 0-.54.04-.79.098-.114.03-.228.058-.332.097l-4.663 1.396Z"/><path fill="url(#paint8_radial_4002_4048)" d="M21.029 25.853a3.165 3.165 0 0 0-.333.097c-.987.361-1.693 1.268-1.693 2.332 0 .81.405 1.522 1.039 1.98h6.782c1.756 0 3.179-1.356 3.179-3.005 0-1.648-1.423-2.995-3.189-2.995-.27 0-.54.04-.79.098-.114.03-.228.058-.332.097l-4.663 1.396Z"/><g filter="url(#filter1_ii_4002_4048)"><path fill="url(#paint9_linear_4002_4048)" d="m15.662 5.052-1.121-2.248a.377.377 0 0 1 .34-.542h2.244c.28 0 .46.291.34.542l-1.122 2.248a.38.38 0 0 1-.68 0Z"/></g><g filter="url(#filter2_ii_4002_4048)"><path fill="url(#paint10_linear_4002_4048)" d="m10.515 6.244-2.38-.79a.373.373 0 0 1-.14-.62l1.58-1.58c.2-.2.53-.12.62.15l.79 2.38c.1.28-.18.56-.47.46Z"/></g><g filter="url(#filter3_ii_4002_4048)"><path fill="url(#paint11_linear_4002_4048)" d="m21.494 6.242 2.37-.79a.38.38 0 0 0 .15-.62l-1.58-1.58c-.2-.2-.53-.12-.62.15l-.79 2.38c-.1.28.18.56.47.46Z"/></g><path fill="url(#paint12_radial_4002_4048)" d="M9.753 20.012a2 2 0 1 0 0-4 2 2 0 0 0 0 4Z"/><path fill="url(#paint13_linear_4002_4048)" d="M22.253 20.012a2 2 0 1 0 0-4 2 2 0 0 0 0 4Z"/><path fill="url(#paint14_radial_4002_4048)" d="M22.253 20.012a2 2 0 1 0 0-4 2 2 0 0 0 0 4Z"/><path fill="#DFA099" d="M9.696 18.053c-.15-2.288 1.778-3.248 4.098-3.248h1.713c.32.03.59.231.711.534a3.105 3.105 0 0 0 2.835 1.832h1.563c.138.006.277.008.412.01.754.008 1.4.016 1.3.8l-.062.774h.002l-.265 3.207s-.44 4.3-5.97 4.3c-5.53 0-6.03-4.3-6.03-4.3l-.286-3.651-.01-.126a3.952 3.952 0 0 1-.003-.03l-.008-.102Z"/><path fill="url(#paint15_radial_4002_4048)" d="M9.696 18.053c-.15-2.288 1.778-3.248 4.098-3.248h1.713c.32.03.59.231.711.534a3.105 3.105 0 0 0 2.835 1.832h1.563c.138.006.277.008.412.01.754.008 1.4.016 1.3.8l-.062.774h.002l-.265 3.207s-.44 4.3-5.97 4.3c-5.53 0-6.03-4.3-6.03-4.3l-.286-3.651-.01-.126a3.952 3.952 0 0 1-.003-.03l-.008-.102Z"/><path fill="url(#paint16_radial_4002_4048)" d="M9.696 18.053c-.15-2.288 1.778-3.248 4.098-3.248h1.713c.32.03.59.231.711.534a3.105 3.105 0 0 0 2.835 1.832h1.563c.138.006.277.008.412.01.754.008 1.4.016 1.3.8l-.062.774h.002l-.265 3.207s-.44 4.3-5.97 4.3c-5.53 0-6.03-4.3-6.03-4.3l-.286-3.651-.01-.126a3.952 3.952 0 0 1-.003-.03l-.008-.102Z"/><path fill="url(#paint17_radial_4002_4048)" d="M9.696 18.053c-.15-2.288 1.778-3.248 4.098-3.248h1.713c.32.03.59.231.711.534a3.105 3.105 0 0 0 2.835 1.832h1.563c.138.006.277.008.412.01.754.008 1.4.016 1.3.8l-.062.774h.002l-.265 3.207s-.44 4.3-5.97 4.3c-5.53 0-6.03-4.3-6.03-4.3l-.286-3.651-.01-.126a3.952 3.952 0 0 1-.003-.03l-.008-.102Z"/><path fill="url(#paint18_radial_4002_4048)" d="M9.696 18.053c-.15-2.288 1.778-3.248 4.098-3.248h1.713c.32.03.59.231.711.534a3.105 3.105 0 0 0 2.835 1.832h1.563c.138.006.277.008.412.01.754.008 1.4.016 1.3.8l-.062.774h.002l-.265 3.207s-.44 4.3-5.97 4.3c-5.53 0-6.03-4.3-6.03-4.3l-.286-3.651-.01-.126a3.952 3.952 0 0 1-.003-.03l-.008-.102Z"/><path fill="url(#paint19_radial_4002_4048)" d="M9.696 18.053c-.15-2.288 1.778-3.248 4.098-3.248h1.713c.32.03.59.231.711.534a3.105 3.105 0 0 0 2.835 1.832h1.563c.138.006.277.008.412.01.754.008 1.4.016 1.3.8l-.062.774h.002l-.265 3.207s-.44 4.3-5.97 4.3c-5.53 0-6.03-4.3-6.03-4.3l-.286-3.651-.01-.126a3.952 3.952 0 0 1-.003-.03l-.008-.102Z"/><path fill="url(#paint20_radial_4002_4048)" d="M9.696 18.053c-.15-2.288 1.778-3.248 4.098-3.248h1.713c.32.03.59.231.711.534a3.105 3.105 0 0 0 2.835 1.832h1.563c.138.006.277.008.412.01.754.008 1.4.016 1.3.8l-.062.774h.002l-.265 3.207s-.44 4.3-5.97 4.3c-5.53 0-6.03-4.3-6.03-4.3l-.286-3.651-.01-.126a3.952 3.952 0 0 1-.003-.03l-.008-.102Z"/><path fill="url(#paint21_radial_4002_4048)" d="M9.696 18.053c-.15-2.288 1.778-3.248 4.098-3.248h1.713c.32.03.59.231.711.534a3.105 3.105 0 0 0 2.835 1.832h1.563c.138.006.277.008.412.01.754.008 1.4.016 1.3.8l-.062.774h.002l-.265 3.207s-.44 4.3-5.97 4.3c-5.53 0-6.03-4.3-6.03-4.3l-.286-3.651-.01-.126a3.952 3.952 0 0 1-.003-.03l-.008-.102Z"/><g filter="url(#filter4_i_4002_4048)"><path fill="#130B1A" d="M11.613 18.952a.35.35 0 0 1-.28-.14.35.35 0 0 1 .06-.49c.04-.03.99-.75 2.39-.58.19.02.33.2.31.39-.02.19-.19.33-.39.31-1.11-.13-1.87.43-1.88.44-.06.05-.14.07-.21.07Z"/></g><g filter="url(#filter5_i_4002_4048)"><path fill="#130B1A" d="M20.393 18.952c-.07 0-.15-.02-.21-.07-.01-.01-.77-.57-1.88-.44-.2.01-.37-.12-.39-.31a.35.35 0 0 1 .31-.39c1.4-.17 2.35.55 2.39.58.15.12.18.34.06.49-.07.1-.18.14-.28.14Z"/></g><g filter="url(#filter6_f_4002_4048)"><path fill="#D18A85" d="m15.444 21.446-.754 2.045c-.16.42.15.862.61.883l.98.045c.459.02.808-.4.688-.824l-.565-2.106c-.13-.462-.799-.493-.96-.043Z"/></g><g filter="url(#filter7_i_4002_4048)"><path fill="#DBA099" d="m15.523 21.182-.66 2.14c-.14.44.19.88.65.88h.98c.46 0 .79-.45.65-.88l-.66-2.14c-.15-.47-.82-.47-.96 0Z"/><path fill="url(#paint22_radial_4002_4048)" d="m15.523 21.182-.66 2.14c-.14.44.19.88.65.88h.98c.46 0 .79-.45.65-.88l-.66-2.14c-.15-.47-.82-.47-.96 0Z"/></g><path fill="url(#paint23_linear_4002_4048)" d="m15.523 21.182-.66 2.14c-.14.44.19.88.65.88h.98c.46 0 .79-.45.65-.88l-.66-2.14c-.15-.47-.82-.47-.96 0Z"/><g filter="url(#filter8_i_4002_4048)"><path fill="url(#paint24_linear_4002_4048)" d="M10.648 26.762c.243 0 .476.051.69.153l3.708 1.766a.822.822 0 0 1 .457.734c0 .45-.34.847-.769.847H9.013l-.01-1.765c-.01-.949.73-1.724 1.645-1.735Z"/><path fill="url(#paint25_radial_4002_4048)" d="M10.648 26.762c.243 0 .476.051.69.153l3.708 1.766a.822.822 0 0 1 .457.734c0 .45-.34.847-.769.847H9.013l-.01-1.765c-.01-.949.73-1.724 1.645-1.735Z"/><path fill="url(#paint26_radial_4002_4048)" d="M10.648 26.762c.243 0 .476.051.69.153l3.708 1.766a.822.822 0 0 1 .457.734c0 .45-.34.847-.769.847H9.013l-.01-1.765c-.01-.949.73-1.724 1.645-1.735Z"/></g><g filter="url(#filter9_i_4002_4048)"><path fill="url(#paint27_radial_4002_4048)" d="M21.358 26.762c-.243 0-.476.051-.69.153l-3.708 1.766a.822.822 0 0 0-.457.734c0 .45.34.847.769.847h5.721l.01-1.765c.01-.949-.73-1.724-1.645-1.735Z"/></g><g filter="url(#filter10_iii_4002_4048)"><path fill="url(#paint28_radial_4002_4048)" d="M23.852 11.411a2.974 2.974 0 0 0-1.623-1.34 3.174 3.174 0 0 1-1.733-1.369 2.976 2.976 0 0 0-2.555-1.44c-.41 0-.811.08-1.172.242a1.93 1.93 0 0 1-1.533 0 2.794 2.794 0 0 0-1.162-.242 2.982 2.982 0 0 0-2.524 1.4 3.37 3.37 0 0 1-1.773 1.41 3.024 3.024 0 0 0-1.673 1.43 3.035 3.035 0 0 0 .18 3.121c.22.333.35.716.35 1.118v1.984c0 .574.545 1.037 1.116 1.037l-.043-.577c-.234-2.383 1.723-3.38 4.087-3.38h1.713c.32.03.59.231.711.534a3.105 3.105 0 0 0 2.835 1.832h1.563c.911.04 1.83-.115 1.712.81l-.062.774c.55 0 1.095-.446 1.095-1v-2.024c0-.393.12-.785.35-1.107a2.977 2.977 0 0 0 .14-3.213Z"/><path fill="url(#paint29_radial_4002_4048)" d="M23.852 11.411a2.974 2.974 0 0 0-1.623-1.34 3.174 3.174 0 0 1-1.733-1.369 2.976 2.976 0 0 0-2.555-1.44c-.41 0-.811.08-1.172.242a1.93 1.93 0 0 1-1.533 0 2.794 2.794 0 0 0-1.162-.242 2.982 2.982 0 0 0-2.524 1.4 3.37 3.37 0 0 1-1.773 1.41 3.024 3.024 0 0 0-1.673 1.43 3.035 3.035 0 0 0 .18 3.121c.22.333.35.716.35 1.118v1.984c0 .574.545 1.037 1.116 1.037l-.043-.577c-.234-2.383 1.723-3.38 4.087-3.38h1.713c.32.03.59.231.711.534a3.105 3.105 0 0 0 2.835 1.832h1.563c.911.04 1.83-.115 1.712.81l-.062.774c.55 0 1.095-.446 1.095-1v-2.024c0-.393.12-.785.35-1.107a2.977 2.977 0 0 0 .14-3.213Z"/><path fill="url(#paint30_radial_4002_4048)" d="M23.852 11.411a2.974 2.974 0 0 0-1.623-1.34 3.174 3.174 0 0 1-1.733-1.369 2.976 2.976 0 0 0-2.555-1.44c-.41 0-.811.08-1.172.242a1.93 1.93 0 0 1-1.533 0 2.794 2.794 0 0 0-1.162-.242 2.982 2.982 0 0 0-2.524 1.4 3.37 3.37 0 0 1-1.773 1.41 3.024 3.024 0 0 0-1.673 1.43 3.035 3.035 0 0 0 .18 3.121c.22.333.35.716.35 1.118v1.984c0 .574.545 1.037 1.116 1.037l-.043-.577c-.234-2.383 1.723-3.38 4.087-3.38h1.713c.32.03.59.231.711.534a3.105 3.105 0 0 0 2.835 1.832h1.563c.911.04 1.83-.115 1.712.81l-.062.774c.55 0 1.095-.446 1.095-1v-2.024c0-.393.12-.785.35-1.107a2.977 2.977 0 0 0 .14-3.213Z"/></g><path fill="#fff" d="M12.905 19.792c-.848 0-1.564.585-1.758 1.374a.356.356 0 0 0 .347.442h2.895a.299.299 0 0 0 .295-.352 1.818 1.818 0 0 0-1.78-1.464Z"/><path fill="url(#paint31_radial_4002_4048)" d="M13.173 20.145a1.158 1.158 0 0 0-1.116 1.463h2.237c.027-.1.042-.2.042-.305a1.166 1.166 0 0 0-1.163-1.158Z"/><path fill="#000" d="M13.836 21.303a.66.66 0 0 0-.663-.663.66.66 0 0 0-.59.968h1.174a.657.657 0 0 0 .08-.305Z"/><g filter="url(#filter11_f_4002_4048)"><path fill="url(#paint32_linear_4002_4048)" d="M14.231 21.167c0-.374-.304-.624-.387-.7l-.374.363.23.469.531-.132Z"/></g><g filter="url(#filter12_f_4002_4048)" transform="rotate(-27.914 12.824 20.64)"><ellipse cx="12.824" cy="20.64" fill="#C7A7A3" fill-opacity=".9" rx=".506" ry=".256"/><ellipse cx="12.824" cy="20.64" fill="url(#paint33_radial_4002_4048)" rx=".506" ry=".256"/></g><path fill="#fff" d="M19.03 19.792c-.848 0-1.564.585-1.758 1.374a.356.356 0 0 0 .347.442h2.895a.299.299 0 0 0 .295-.352 1.818 1.818 0 0 0-1.78-1.464Z"/><path fill="url(#paint34_radial_4002_4048)" d="M18.83 20.145a1.158 1.158 0 0 0-1.116 1.463h2.237c.026-.1.042-.2.042-.305a1.166 1.166 0 0 0-1.163-1.158Z"/><path fill="#000" d="M19.493 21.303a.66.66 0 0 0-.664-.663.66.66 0 0 0-.59.968h1.175a.659.659 0 0 0 .079-.305Z"/><g filter="url(#filter13_f_4002_4048)"><path fill="url(#paint35_linear_4002_4048)" d="M19.887 21.167c0-.374-.304-.624-.386-.7l-.374.363.23.469.53-.132Z"/></g><g filter="url(#filter14_f_4002_4048)" transform="rotate(-27.914 18.48 20.64)"><ellipse cx="18.48" cy="20.64" fill="#C7A7A3" fill-opacity=".9" rx=".506" ry=".256"/><ellipse cx="18.48" cy="20.64" fill="url(#paint36_radial_4002_4048)" rx=".506" ry=".256"/></g><g filter="url(#filter15_f_4002_4048)"><path stroke="url(#paint37_linear_4002_4048)" stroke-linecap="round" stroke-width=".25" d="M18.285 18.056c.35-.036 1.485 0 2.157.516"/></g><g filter="url(#filter16_f_4002_4048)"><path stroke="url(#paint38_linear_4002_4048)" stroke-linecap="round" stroke-width=".25" d="M13.755 18.056c-.349-.036-1.484 0-2.156.516"/></g><g filter="url(#filter17_f_4002_4048)"><path fill="#FFDCC7" d="M20.353 27.792c-1.085.562-1.83.828-2.068.89.188.105.723.095 1.525-.109.604-.153 1.257-.445 1.786-.398.424.037.841.784.99 1.117.022-.276.036-.928-.083-1.328-.149-.5-.794-.875-2.15-.172Z"/></g><g filter="url(#filter18_f_4002_4048)"><path fill="url(#paint39_linear_4002_4048)" d="m22.188 13.526-4.517.727c1.423.945 3.892.46 4.735.148l-.218-.875Z"/></g><defs><radialGradient id="paint0_radial_4002_4048" cx="0" cy="0" r="1" gradientTransform="rotate(123.959 7.367 15.988) scale(12.144 23.7823)" gradientUnits="userSpaceOnUse"><stop stop-color="#FF9C2C"/><stop offset=".27" stop-color="#FF802A"/><stop offset="1" stop-color="#FB5B1B"/></radialGradient><radialGradient id="paint1_radial_4002_4048" cx="0" cy="0" r="1" gradientTransform="matrix(-3.01499 4.36558 -4.67954 -3.23182 14.328 23.762)" gradientUnits="userSpaceOnUse"><stop offset=".5" stop-color="#E4380A"/><stop offset="1" stop-color="#E4380A" stop-opacity="0"/></radialGradient><radialGradient id="paint3_radial_4002_4048" cx="0" cy="0" r="1" gradientTransform="rotate(-164.898 7.36 12.895) scale(6.67145 7.19435)" gradientUnits="userSpaceOnUse"><stop stop-color="#FF7919"/><stop offset="1" stop-color="#F46A2E"/></radialGradient><radialGradient id="paint5_radial_4002_4048" cx="0" cy="0" r="1" gradientTransform="matrix(-8.03127 4.7187 -4.36101 -7.42248 28.489 24.697)" gradientUnits="userSpaceOnUse"><stop stop-color="#FFA741"/><stop offset=".724" stop-color="#FF7530"/></radialGradient><radialGradient id="paint7_radial_4002_4048" cx="0" cy="0" r="1" gradientTransform="matrix(6.28125 -1.78432 .36961 1.30113 22.27 27.262)" gradientUnits="userSpaceOnUse"><stop offset=".078" stop-color="#FF9D3D"/><stop offset="1" stop-color="#FF9D3D" stop-opacity="0"/></radialGradient><radialGradient id="paint8_radial_4002_4048" cx="0" cy="0" r="1" gradientTransform="matrix(-6.04861 -4.1627 5.4796 -7.96214 25.052 31.554)" gradientUnits="userSpaceOnUse"><stop offset=".91" stop-color="#F44E0B" stop-opacity="0"/><stop offset="1" stop-color="#F44E0B"/></radialGradient><radialGradient id="paint12_radial_4002_4048" cx="0" cy="0" r="1" gradientTransform="matrix(-1.79873 0 0 -1.83056 9.753 18.193)" gradientUnits="userSpaceOnUse"><stop offset=".32" stop-color="#C98577"/><stop offset="1" stop-color="#E5A592"/></radialGradient><radialGradient id="paint14_radial_4002_4048" cx="0" cy="0" r="1" gradientTransform="rotate(100.008 3.757 18.497) scale(1.23447)" gradientUnits="userSpaceOnUse"><stop offset=".143" stop-color="#EAA993"/><stop offset="1" stop-color="#EAA993" stop-opacity="0"/></radialGradient><radialGradient id="paint15_radial_4002_4048" cx="0" cy="0" r="1" gradientTransform="matrix(-2.6462 1.11638 -.94379 -2.2371 18.322 21.722)" gradientUnits="userSpaceOnUse"><stop stop-color="#FFC8B7"/><stop offset="1" stop-color="#FFC8B7" stop-opacity="0"/></radialGradient><radialGradient id="paint16_radial_4002_4048" cx="0" cy="0" r="1" gradientTransform="matrix(11.4008 0 0 12.5877 11.506 20.534)" gradientUnits="userSpaceOnUse"><stop offset=".702" stop-color="#FFC9AD" stop-opacity="0"/><stop offset=".946" stop-color="#FFC9AD"/></radialGradient><radialGradient id="paint17_radial_4002_4048" cx="0" cy="0" r="1" gradientTransform="rotate(-39.188 38.089 -16.921) scale(1.63592 1.57593)" gradientUnits="userSpaceOnUse"><stop offset=".227" stop-color="#D89791"/><stop offset="1" stop-color="#D89791" stop-opacity="0"/></radialGradient><radialGradient id="paint18_radial_4002_4048" cx="0" cy="0" r="1" gradientTransform="rotate(-133.107 10.864 7.428) scale(2.18013 1.98665)" gradientUnits="userSpaceOnUse"><stop stop-color="#C68284"/><stop offset="1" stop-color="#C68284" stop-opacity="0"/></radialGradient><radialGradient id="paint19_radial_4002_4048" cx="0" cy="0" r="1" gradientTransform="matrix(.44767 8.05814 -1.48653 .08258 9.945 15.4)" gradientUnits="userSpaceOnUse"><stop offset=".363" stop-color="#E2A693"/><stop offset="1" stop-color="#E2A693" stop-opacity="0"/></radialGradient><radialGradient id="paint20_radial_4002_4048" cx="0" cy="0" r="1" gradientTransform="matrix(1.87498 3.13274 -2.10938 1.26249 17.032 14.805)" gradientUnits="userSpaceOnUse"><stop stop-color="#BA847D"/><stop offset="1" stop-color="#BA847D" stop-opacity="0"/></radialGradient><radialGradient id="paint21_radial_4002_4048" cx="0" cy="0" r="1" gradientTransform="matrix(0 9.62002 -8.35458 0 16.013 17.038)" gradientUnits="userSpaceOnUse"><stop offset=".724" stop-color="#D8725F" stop-opacity="0"/><stop offset="1" stop-color="#D8725F"/></radialGradient><radialGradient id="paint22_radial_4002_4048" cx="0" cy="0" r="1" gradientTransform="matrix(.10392 -2.06539 1.60645 .08083 16.674 23.098)" gradientUnits="userSpaceOnUse"><stop offset=".193" stop-color="#F1BAAF"/><stop offset="1" stop-color="#F1BAAF" stop-opacity="0"/></radialGradient><radialGradient id="paint25_radial_4002_4048" cx="0" cy="0" r="1" gradientTransform="matrix(0 -2.10938 .25 0 9.625 30.464)" gradientUnits="userSpaceOnUse"><stop offset=".23" stop-color="#DEA198"/><stop offset="1" stop-color="#DEA198" stop-opacity="0"/></radialGradient><radialGradient id="paint26_radial_4002_4048" cx="0" cy="0" r="1" gradientTransform="matrix(-1.42968 -.64063 .18606 -.41523 14.4 28.965)" gradientUnits="userSpaceOnUse"><stop stop-color="#FDC9B7"/><stop offset=".609" stop-color="#FDC9B7" stop-opacity="0"/></radialGradient><radialGradient id="paint27_radial_4002_4048" cx="0" cy="0" r="1" gradientTransform="matrix(6 -3.25 2.38008 4.394 17.614 30.51)" gradientUnits="userSpaceOnUse"><stop stop-color="#D3979D"/><stop offset=".741" stop-color="#FFD1B9"/></radialGradient><radialGradient id="paint28_radial_4002_4048" cx="0" cy="0" r="1" gradientTransform="rotate(141.127 9.694 8.898) scale(17.2506 15.7503)" gradientUnits="userSpaceOnUse"><stop offset=".166" stop-color="#453E41"/><stop offset=".559" stop-color="#251D20"/></radialGradient><radialGradient id="paint29_radial_4002_4048" cx="0" cy="0" r="1" gradientTransform="rotate(164.808 10.588 7.253) scale(15.0251 12.7011)" gradientUnits="userSpaceOnUse"><stop offset=".643" stop-color="#403837" stop-opacity="0"/><stop offset="1" stop-color="#403837"/></radialGradient><radialGradient id="paint30_radial_4002_4048" cx="0" cy="0" r="1" gradientTransform="matrix(-4.44243 3.68753 -3.99367 -4.81125 24.255 10.245)" gradientUnits="userSpaceOnUse"><stop offset=".261" stop-color="#4C4749"/><stop offset="1" stop-color="#4C4749" stop-opacity="0"/></radialGradient><radialGradient id="paint31_radial_4002_4048" cx="0" cy="0" r="1" gradientTransform="matrix(0 1.05276 -1.67453 0 13.176 20.764)" gradientUnits="userSpaceOnUse"><stop offset=".802" stop-color="#7F584B"/><stop offset="1" stop-color="#694B43"/><stop offset="1" stop-color="#804D49"/><stop offset="1" stop-color="#6A4C45"/></radialGradient><radialGradient id="paint33_radial_4002_4048" cx="0" cy="0" r="1" gradientTransform="matrix(-.01004 -.64108 .77062 -.01207 12.804 21.049)" gradientUnits="userSpaceOnUse"><stop offset=".766" stop-color="#FFE6E2" stop-opacity="0"/><stop offset=".966" stop-color="#FFE6E2"/></radialGradient><radialGradient id="paint34_radial_4002_4048" cx="0" cy="0" r="1" gradientTransform="matrix(0 1.05276 -1.67453 0 18.832 20.764)" gradientUnits="userSpaceOnUse"><stop offset=".802" stop-color="#7F584B"/><stop offset="1" stop-color="#694B43"/><stop offset="1" stop-color="#804D49"/><stop offset="1" stop-color="#6A4C45"/></radialGradient><radialGradient id="paint36_radial_4002_4048" cx="0" cy="0" r="1" gradientTransform="matrix(-.01004 -.64108 .77062 -.01207 18.46 21.047)" gradientUnits="userSpaceOnUse"><stop offset=".766" stop-color="#FFE6E2" stop-opacity="0"/><stop offset=".966" stop-color="#FFE6E2"/></radialGradient><filter id="filter0_i_4002_4048" width="11" height="6.1" x="2.003" y="24.262" color-interpolation-filters="sRGB" filterUnits="userSpaceOnUse"><feFlood flood-opacity="0" result="BackgroundImageFix"/><feBlend in="SourceGraphic" in2="BackgroundImageFix" result="shape"/><feColorMatrix in="SourceAlpha" result="hardAlpha" values="0 0 0 0 0 0 0 0 0 0 0 0 0 0 0 0 0 0 127 0"/><feOffset dy=".1"/><feGaussianBlur stdDeviation=".25"/><feComposite in2="hardAlpha" k2="-1" k3="1" operator="arithmetic"/><feColorMatrix values="0 0 0 0 0.890196 0 0 0 0 0.478431 0 0 0 0 0.27451 0 0 0 1 0"/><feBlend in2="shape" result="effect1_innerShadow_4002_4048"/></filter><filter id="filter1_ii_4002_4048" width="3.2" height="3.2" x="14.403" y="2.162" color-interpolation-filters="sRGB" filterUnits="userSpaceOnUse"><feFlood flood-opacity="0" result="BackgroundImageFix"/><feBlend in="SourceGraphic" in2="BackgroundImageFix" result="shape"/><feColorMatrix in="SourceAlpha" result="hardAlpha" values="0 0 0 0 0 0 0 0 0 0 0 0 0 0 0 0 0 0 127 0"/><feOffset dx=".1" dy="-.1"/><feGaussianBlur stdDeviation=".15"/><feComposite in2="hardAlpha" k2="-1" k3="1" operator="arithmetic"/><feColorMatrix values="0 0 0 0 0.188235 0 0 0 0 0.47451 0 0 0 0 0.698039 0 0 0 1 0"/><feBlend in2="shape" result="effect1_innerShadow_4002_4048"/><feColorMatrix in="SourceAlpha" result="hardAlpha" values="0 0 0 0 0 0 0 0 0 0 0 0 0 0 0 0 0 0 127 0"/><feOffset dx="-.1" dy=".1"/><feGaussianBlur stdDeviation=".125"/><feComposite in2="hardAlpha" k2="-1" k3="1" operator="arithmetic"/><feColorMatrix values="0 0 0 0 0.286275 0 0 0 0 0.67451 0 0 0 0 0.929412 0 0 0 1 0"/><feBlend in2="effect1_innerShadow_4002_4048" result="effect2_innerShadow_4002_4048"/></filter><filter id="filter2_ii_4002_4048" width="3.323" height="3.322" x="7.783" y="3.042" color-interpolation-filters="sRGB" filterUnits="userSpaceOnUse"><feFlood flood-opacity="0" result="BackgroundImageFix"/><feBlend in="SourceGraphic" in2="BackgroundImageFix" result="shape"/><feColorMatrix in="SourceAlpha" result="hardAlpha" values="0 0 0 0 0 0 0 0 0 0 0 0 0 0 0 0 0 0 127 0"/><feOffset dx=".1" dy="-.1"/><feGaussianBlur stdDeviation=".15"/><feComposite in2="hardAlpha" k2="-1" k3="1" operator="arithmetic"/><feColorMatrix values="0 0 0 0 0.188235 0 0 0 0 0.47451 0 0 0 0 0.698039 0 0 0 1 0"/><feBlend in2="shape" result="effect1_innerShadow_4002_4048"/><feColorMatrix in="SourceAlpha" result="hardAlpha" values="0 0 0 0 0 0 0 0 0 0 0 0 0 0 0 0 0 0 127 0"/><feOffset dx="-.1" dy=".1"/><feGaussianBlur stdDeviation=".125"/><feComposite in2="hardAlpha" k2="-1" k3="1" operator="arithmetic"/><feColorMatrix values="0 0 0 0 0.286275 0 0 0 0 0.67451 0 0 0 0 0.929412 0 0 0 1 0"/><feBlend in2="effect1_innerShadow_4002_4048" result="effect2_innerShadow_4002_4048"/></filter><filter id="filter3_ii_4002_4048" width="3.315" height="3.322" x="20.903" y="3.041" color-interpolation-filters="sRGB" filterUnits="userSpaceOnUse"><feFlood flood-opacity="0" result="BackgroundImageFix"/><feBlend in="SourceGraphic" in2="BackgroundImageFix" result="shape"/><feColorMatrix in="SourceAlpha" result="hardAlpha" values="0 0 0 0 0 0 0 0 0 0 0 0 0 0 0 0 0 0 127 0"/><feOffset dx=".1" dy="-.1"/><feGaussianBlur stdDeviation=".15"/><feComposite in2="hardAlpha" k2="-1" k3="1" operator="arithmetic"/><feColorMatrix values="0 0 0 0 0.188235 0 0 0 0 0.47451 0 0 0 0 0.698039 0 0 0 1 0"/><feBlend in2="shape" result="effect1_innerShadow_4002_4048"/><feColorMatrix in="SourceAlpha" result="hardAlpha" values="0 0 0 0 0 0 0 0 0 0 0 0 0 0 0 0 0 0 127 0"/><feOffset dx="-.1" dy=".1"/><feGaussianBlur stdDeviation=".125"/><feComposite in2="hardAlpha" k2="-1" k3="1" operator="arithmetic"/><feColorMatrix values="0 0 0 0 0.286275 0 0 0 0 0.67451 0 0 0 0 0.929412 0 0 0 1 0"/><feBlend in2="effect1_innerShadow_4002_4048" result="effect2_innerShadow_4002_4048"/></filter><filter id="filter4_i_4002_4048" width="2.836" height="1.386" x="11.259" y="17.566" color-interpolation-filters="sRGB" filterUnits="userSpaceOnUse"><feFlood flood-opacity="0" result="BackgroundImageFix"/><feBlend in="SourceGraphic" in2="BackgroundImageFix" result="shape"/><feColorMatrix in="SourceAlpha" result="hardAlpha" values="0 0 0 0 0 0 0 0 0 0 0 0 0 0 0 0 0 0 127 0"/><feOffset dy="-.15"/><feGaussianBlur stdDeviation=".125"/><feComposite in2="hardAlpha" k2="-1" k3="1" operator="arithmetic"/><feColorMatrix values="0 0 0 0 0.0666667 0 0 0 0 0.0313726 0 0 0 0 0.0862745 0 0 0 1 0"/><feBlend in2="shape" result="effect1_innerShadow_4002_4048"/></filter><filter id="filter5_i_4002_4048" width="2.836" height="1.386" x="17.911" y="17.566" color-interpolation-filters="sRGB" filterUnits="userSpaceOnUse"><feFlood flood-opacity="0" result="BackgroundImageFix"/><feBlend in="SourceGraphic" in2="BackgroundImageFix" result="shape"/><feColorMatrix in="SourceAlpha" result="hardAlpha" values="0 0 0 0 0 0 0 0 0 0 0 0 0 0 0 0 0 0 127 0"/><feOffset dy="-.15"/><feGaussianBlur stdDeviation=".125"/><feComposite in2="hardAlpha" k2="-1" k3="1" operator="arithmetic"/><feColorMatrix values="0 0 0 0 0.0666667 0 0 0 0 0.0313726 0 0 0 0 0.0862745 0 0 0 1 0"/><feBlend in2="shape" result="effect1_innerShadow_4002_4048"/></filter><filter id="filter6_f_4002_4048" width="3.344" height="4.294" x="14.148" y="20.625" color-interpolation-filters="sRGB" filterUnits="userSpaceOnUse"><feFlood flood-opacity="0" result="BackgroundImageFix"/><feBlend in="SourceGraphic" in2="BackgroundImageFix" result="shape"/><feGaussianBlur result="effect1_foregroundBlur_4002_4048" stdDeviation=".25"/></filter><filter id="filter7_i_4002_4048" width="2.445" height="3.473" x="14.831" y="20.73" color-interpolation-filters="sRGB" filterUnits="userSpaceOnUse"><feFlood flood-opacity="0" result="BackgroundImageFix"/><feBlend in="SourceGraphic" in2="BackgroundImageFix" result="shape"/><feColorMatrix in="SourceAlpha" result="hardAlpha" values="0 0 0 0 0 0 0 0 0 0 0 0 0 0 0 0 0 0 127 0"/><feOffset dx=".1" dy="-.1"/><feGaussianBlur stdDeviation=".2"/><feComposite in2="hardAlpha" k2="-1" k3="1" operator="arithmetic"/><feColorMatrix values="0 0 0 0 0.831373 0 0 0 0 0.556863 0 0 0 0 0.54902 0 0 0 1 0"/><feBlend in2="shape" result="effect1_innerShadow_4002_4048"/></filter><filter id="filter8_i_4002_4048" width="7" height="3.5" x="9.003" y="26.762" color-interpolation-filters="sRGB" filterUnits="userSpaceOnUse"><feFlood flood-opacity="0" result="BackgroundImageFix"/><feBlend in="SourceGraphic" in2="BackgroundImageFix" result="shape"/><feColorMatrix in="SourceAlpha" result="hardAlpha" values="0 0 0 0 0 0 0 0 0 0 0 0 0 0 0 0 0 0 127 0"/><feOffset dx=".5"/><feGaussianBlur stdDeviation=".5"/><feComposite in2="hardAlpha" k2="-1" k3="1" operator="arithmetic"/><feColorMatrix values="0 0 0 0 0.882353 0 0 0 0 0.584314 0 0 0 0 0.501961 0 0 0 1 0"/><feBlend in2="shape" result="effect1_innerShadow_4002_4048"/></filter><filter id="filter9_i_4002_4048" width="7" height="3.6" x="16.503" y="26.662" color-interpolation-filters="sRGB" filterUnits="userSpaceOnUse"><feFlood flood-opacity="0" result="BackgroundImageFix"/><feBlend in="SourceGraphic" in2="BackgroundImageFix" result="shape"/><feColorMatrix in="SourceAlpha" result="hardAlpha" values="0 0 0 0 0 0 0 0 0 0 0 0 0 0 0 0 0 0 127 0"/><feOffset dx=".5" dy="-.1"/><feGaussianBlur stdDeviation=".5"/><feComposite in2="hardAlpha" k2="-1" k3="1" operator="arithmetic"/><feColorMatrix values="0 0 0 0 0.858824 0 0 0 0 0.54902 0 0 0 0 0.439216 0 0 0 1 0"/><feBlend in2="shape" result="effect1_innerShadow_4002_4048"/></filter><filter id="filter10_iii_4002_4048" width="17" height="12.5" x="7.755" y="6.262" color-interpolation-filters="sRGB" filterUnits="userSpaceOnUse"><feFlood flood-opacity="0" result="BackgroundImageFix"/><feBlend in="SourceGraphic" in2="BackgroundImageFix" result="shape"/><feColorMatrix in="SourceAlpha" result="hardAlpha" values="0 0 0 0 0 0 0 0 0 0 0 0 0 0 0 0 0 0 127 0"/><feOffset dx=".5"/><feGaussianBlur stdDeviation=".25"/><feComposite in2="hardAlpha" k2="-1" k3="1" operator="arithmetic"/><feColorMatrix values="0 0 0 0 0.0823529 0 0 0 0 0.027451 0 0 0 0 0.0666667 0 0 0 1 0"/><feBlend in2="shape" result="effect1_innerShadow_4002_4048"/><feColorMatrix in="SourceAlpha" result="hardAlpha" values="0 0 0 0 0 0 0 0 0 0 0 0 0 0 0 0 0 0 127 0"/><feOffset dy="-1"/><feGaussianBlur stdDeviation=".5"/><feComposite in2="hardAlpha" k2="-1" k3="1" operator="arithmetic"/><feColorMatrix values="0 0 0 0 0.188235 0 0 0 0 0.160784 0 0 0 0 0.176471 0 0 0 1 0"/><feBlend in2="effect1_innerShadow_4002_4048" result="effect2_innerShadow_4002_4048"/><feColorMatrix in="SourceAlpha" result="hardAlpha" values="0 0 0 0 0 0 0 0 0 0 0 0 0 0 0 0 0 0 127 0"/><feOffset dy="-.5"/><feGaussianBlur stdDeviation=".625"/><feComposite in2="hardAlpha" k2="-1" k3="1" operator="arithmetic"/><feColorMatrix values="0 0 0 0 0.121569 0 0 0 0 0.0509804 0 0 0 0 0.141176 0 0 0 1 0"/><feBlend in2="effect2_innerShadow_4002_4048" result="effect3_innerShadow_4002_4048"/></filter><filter id="filter11_f_4002_4048" width="1.161" height="1.231" x="13.27" y="20.268" color-interpolation-filters="sRGB" filterUnits="userSpaceOnUse"><feFlood flood-opacity="0" result="BackgroundImageFix"/><feBlend in="SourceGraphic" in2="BackgroundImageFix" result="shape"/><feGaussianBlur result="effect1_foregroundBlur_4002_4048" stdDeviation=".1"/></filter><filter id="filter12_f_4002_4048" width="1.125" height=".855" x="12.261" y="20.212" color-interpolation-filters="sRGB" filterUnits="userSpaceOnUse"><feFlood flood-opacity="0" result="BackgroundImageFix"/><feBlend in="SourceGraphic" in2="BackgroundImageFix" result="shape"/><feGaussianBlur result="effect1_foregroundBlur_4002_4048" stdDeviation=".05"/></filter><filter id="filter13_f_4002_4048" width="1.161" height="1.231" x="18.927" y="20.268" color-interpolation-filters="sRGB" filterUnits="userSpaceOnUse"><feFlood flood-opacity="0" result="BackgroundImageFix"/><feBlend in="SourceGraphic" in2="BackgroundImageFix" result="shape"/><feGaussianBlur result="effect1_foregroundBlur_4002_4048" stdDeviation=".1"/></filter><filter id="filter14_f_4002_4048" width="1.125" height=".855" x="17.917" y="20.212" color-interpolation-filters="sRGB" filterUnits="userSpaceOnUse"><feFlood flood-opacity="0" result="BackgroundImageFix"/><feBlend in="SourceGraphic" in2="BackgroundImageFix" result="shape"/><feGaussianBlur result="effect1_foregroundBlur_4002_4048" stdDeviation=".05"/></filter><filter id="filter15_f_4002_4048" width="2.906" height="1.276" x="17.91" y="17.671" color-interpolation-filters="sRGB" filterUnits="userSpaceOnUse"><feFlood flood-opacity="0" result="BackgroundImageFix"/><feBlend in="SourceGraphic" in2="BackgroundImageFix" result="shape"/><feGaussianBlur result="effect1_foregroundBlur_4002_4048" stdDeviation=".125"/></filter><filter id="filter16_f_4002_4048" width="2.906" height="1.276" x="11.224" y="17.671" color-interpolation-filters="sRGB" filterUnits="userSpaceOnUse"><feFlood flood-opacity="0" result="BackgroundImageFix"/><feBlend in="SourceGraphic" in2="BackgroundImageFix" result="shape"/><feGaussianBlur result="effect1_foregroundBlur_4002_4048" stdDeviation=".125"/></filter><filter id="filter17_f_4002_4048" width="5.315" height="2.887" x="17.785" y="26.904" color-interpolation-filters="sRGB" filterUnits="userSpaceOnUse"><feFlood flood-opacity="0" result="BackgroundImageFix"/><feBlend in="SourceGraphic" in2="BackgroundImageFix" result="shape"/><feGaussianBlur result="effect1_foregroundBlur_4002_4048" stdDeviation=".25"/></filter><filter id="filter18_f_4002_4048" width="6.235" height="2.78" x="16.921" y="12.776" color-interpolation-filters="sRGB" filterUnits="userSpaceOnUse"><feFlood flood-opacity="0" result="BackgroundImageFix"/><feBlend in="SourceGraphic" in2="BackgroundImageFix" result="shape"/><feGaussianBlur result="effect1_foregroundBlur_4002_4048" stdDeviation=".375"/></filter><linearGradient id="paint2_linear_4002_4048" x1="2.953" x2="7.202" y1="23.762" y2="25.079" gradientUnits="userSpaceOnUse"><stop stop-color="#E57544"/><stop offset="1" stop-color="#E57544" stop-opacity="0"/></linearGradient><linearGradient id="paint4_linear_4002_4048" x1="7.193" x2="7.193" y1="30.481" y2="27.536" gradientUnits="userSpaceOnUse"><stop stop-color="#E95252"/><stop offset="1" stop-color="#FC6028" stop-opacity="0"/></linearGradient><linearGradient id="paint6_linear_4002_4048" x1="24.503" x2="24.503" y1="30.306" y2="29.384" gradientUnits="userSpaceOnUse"><stop stop-color="#EB5B6D"/><stop offset="1" stop-color="#FF6836" stop-opacity="0"/></linearGradient><linearGradient id="paint9_linear_4002_4048" x1="17.503" x2="14.908" y1="2.761" y2="5.262" gradientUnits="userSpaceOnUse"><stop offset=".32" stop-color="#399BE2"/><stop offset="1" stop-color="#3A91CE"/></linearGradient><linearGradient id="paint10_linear_4002_4048" x1="11.006" x2="8.305" y1="3.661" y2="6.265" gradientUnits="userSpaceOnUse"><stop offset=".32" stop-color="#399BE2"/><stop offset="1" stop-color="#3A91CE"/></linearGradient><linearGradient id="paint11_linear_4002_4048" x1="24.118" x2="21.417" y1="3.66" y2="6.257" gradientUnits="userSpaceOnUse"><stop offset=".32" stop-color="#399BE2"/><stop offset="1" stop-color="#3A91CE"/></linearGradient><linearGradient id="paint13_linear_4002_4048" x1="21.77" x2="23.957" y1="19.759" y2="16.759" gradientUnits="userSpaceOnUse"><stop stop-color="#F7AE95"/><stop offset="1" stop-color="#FFD4BD"/></linearGradient><linearGradient id="paint23_linear_4002_4048" x1="16.003" x2="16.003" y1="21.103" y2="24.202" gradientUnits="userSpaceOnUse"><stop stop-color="#DE9F99"/><stop offset=".363" stop-color="#DE9F99" stop-opacity="0"/></linearGradient><linearGradient id="paint24_linear_4002_4048" x1="13.407" x2="11.872" y1="27.607" y2="31.306" gradientUnits="userSpaceOnUse"><stop offset=".053" stop-color="#FBC4AB"/><stop offset=".697" stop-color="#CE939A"/></linearGradient><linearGradient id="paint32_linear_4002_4048" x1="14.141" x2="13.734" y1="20.834" y2="21.085" gradientUnits="userSpaceOnUse"><stop stop-color="#B4948D"/><stop offset="1" stop-color="#B4948D" stop-opacity="0"/></linearGradient><linearGradient id="paint35_linear_4002_4048" x1="19.797" x2="19.39" y1="20.834" y2="21.085" gradientUnits="userSpaceOnUse"><stop stop-color="#B4948D"/><stop offset="1" stop-color="#B4948D" stop-opacity="0"/></linearGradient><linearGradient id="paint37_linear_4002_4048" x1="20.341" x2="18.285" y1="18.388" y2="18.046" gradientUnits="userSpaceOnUse"><stop offset=".515" stop-color="#333"/><stop offset="1" stop-color="#333" stop-opacity="0"/></linearGradient><linearGradient id="paint38_linear_4002_4048" x1="13.555" x2="11.43" y1="17.987" y2="18.675" gradientUnits="userSpaceOnUse"><stop offset=".333" stop-color="#333"/><stop offset="1" stop-color="#333" stop-opacity="0"/></linearGradient><linearGradient id="paint39_linear_4002_4048" x1="17.95" x2="23.157" y1="14.87" y2="13.138" gradientUnits="userSpaceOnUse"><stop stop-color="#62585B"/><stop offset="1" stop-color="#62585B" stop-opacity="0"/></linearGradient></defs></svg>