<svg xmlns="http://www.w3.org/2000/svg" width="32" height="32" fill="none" viewBox="0 0 32 32"><path fill="url(#paint0_radial_3930_2119)" d="M24.489 25.95a4.04 4.04 0 0 0 2.623-3.785v-2.3H24.49v6.086Z"/><path fill="url(#paint1_radial_3930_2119)" d="M24.489 25.95a4.04 4.04 0 0 0 2.623-3.785v-2.3H24.49v6.086Z"/><g filter="url(#filter0_ii_3930_2119)"><path fill="url(#paint2_linear_3930_2119)" d="M6.835 16.555H5.302v-2.13c0-.59-.19-1.16-.52-1.64a4.448 4.448 0 0 1-.27-4.59 4.392 4.392 0 0 1 2.47-2.11 5.087 5.087 0 0 0 2.62-2.08 4.403 4.403 0 0 1 3.74-2.06c.61 0 1.2.13 1.74.35.72.31 1.54.31 2.26 0a4.432 4.432 0 0 1 5.51 1.77c.58.96 1.51 1.65 2.57 2.01.98.33 1.84 1 2.4 1.97a4.43 4.43 0 0 1-.2 4.74c-.33.48-.51 1.06-.51 1.64v2.13H25.86l.105-1.69h-.023l.05-1.6a2.745 2.745 0 0 0-2.62-2.82h-2.65c-1.81 0-3.45-1.05-4.2-2.7-.19-.48-.65-.79-1.16-.79h-2.42a6.331 6.331 0 0 0-6.328 6.194l.221 3.406Z"/><path fill="url(#paint3_radial_3930_2119)" d="M6.835 16.555H5.302v-2.13c0-.59-.19-1.16-.52-1.64a4.448 4.448 0 0 1-.27-4.59 4.392 4.392 0 0 1 2.47-2.11 5.087 5.087 0 0 0 2.62-2.08 4.403 4.403 0 0 1 3.74-2.06c.61 0 1.2.13 1.74.35.72.31 1.54.31 2.26 0a4.432 4.432 0 0 1 5.51 1.77c.58.96 1.51 1.65 2.57 2.01.98.33 1.84 1 2.4 1.97a4.43 4.43 0 0 1-.2 4.74c-.33.48-.51 1.06-.51 1.64v2.13H25.86l.105-1.69h-.023l.05-1.6a2.745 2.745 0 0 0-2.62-2.82h-2.65c-1.81 0-3.45-1.05-4.2-2.7-.19-.48-.65-.79-1.16-.79h-2.42a6.331 6.331 0 0 0-6.328 6.194l.221 3.406Z"/><path fill="url(#paint4_radial_3930_2119)" d="M6.835 16.555H5.302v-2.13c0-.59-.19-1.16-.52-1.64a4.448 4.448 0 0 1-.27-4.59 4.392 4.392 0 0 1 2.47-2.11 5.087 5.087 0 0 0 2.62-2.08 4.403 4.403 0 0 1 3.74-2.06c.61 0 1.2.13 1.74.35.72.31 1.54.31 2.26 0a4.432 4.432 0 0 1 5.51 1.77c.58.96 1.51 1.65 2.57 2.01.98.33 1.84 1 2.4 1.97a4.43 4.43 0 0 1-.2 4.74c-.33.48-.51 1.06-.51 1.64v2.13H25.86l.105-1.69h-.023l.05-1.6a2.745 2.745 0 0 0-2.62-2.82h-2.65c-1.81 0-3.45-1.05-4.2-2.7-.19-.48-.65-.79-1.16-.79h-2.42a6.331 6.331 0 0 0-6.328 6.194l.221 3.406Z"/><path fill="url(#paint5_radial_3930_2119)" d="M6.835 16.555H5.302v-2.13c0-.59-.19-1.16-.52-1.64a4.448 4.448 0 0 1-.27-4.59 4.392 4.392 0 0 1 2.47-2.11 5.087 5.087 0 0 0 2.62-2.08 4.403 4.403 0 0 1 3.74-2.06c.61 0 1.2.13 1.74.35.72.31 1.54.31 2.26 0a4.432 4.432 0 0 1 5.51 1.77c.58.96 1.51 1.65 2.57 2.01.98.33 1.84 1 2.4 1.97a4.43 4.43 0 0 1-.2 4.74c-.33.48-.51 1.06-.51 1.64v2.13H25.86l.105-1.69h-.023l.05-1.6a2.745 2.745 0 0 0-2.62-2.82h-2.65c-1.81 0-3.45-1.05-4.2-2.7-.19-.48-.65-.79-1.16-.79h-2.42a6.331 6.331 0 0 0-6.328 6.194l.221 3.406Z"/><path fill="url(#paint6_radial_3930_2119)" d="M6.835 16.555H5.302v-2.13c0-.59-.19-1.16-.52-1.64a4.448 4.448 0 0 1-.27-4.59 4.392 4.392 0 0 1 2.47-2.11 5.087 5.087 0 0 0 2.62-2.08 4.403 4.403 0 0 1 3.74-2.06c.61 0 1.2.13 1.74.35.72.31 1.54.31 2.26 0a4.432 4.432 0 0 1 5.51 1.77c.58.96 1.51 1.65 2.57 2.01.98.33 1.84 1 2.4 1.97a4.43 4.43 0 0 1-.2 4.74c-.33.48-.51 1.06-.51 1.64v2.13H25.86l.105-1.69h-.023l.05-1.6a2.745 2.745 0 0 0-2.62-2.82h-2.65c-1.81 0-3.45-1.05-4.2-2.7-.19-.48-.65-.79-1.16-.79h-2.42a6.331 6.331 0 0 0-6.328 6.194l.221 3.406Z"/></g><path fill="url(#paint7_radial_3930_2119)" d="M9.272 19.865h-3.97v2.3a4.03 4.03 0 0 0 2.72 3.82l1.25.433v-6.553Z"/><path fill="url(#paint8_radial_3930_2119)" d="M9.272 19.865h-3.97v2.3a4.03 4.03 0 0 0 2.72 3.82l1.25.433v-6.553Z"/><g filter="url(#filter1_i_3930_2119)"><path fill="url(#paint9_linear_3930_2119)" d="M7.312 21.005a3.1 3.1 0 1 0 0-6.2 3.1 3.1 0 0 0 0 6.2Z"/></g><path fill="url(#paint10_linear_3930_2119)" d="M25.102 21.005a3.1 3.1 0 1 0 0-6.2 3.1 3.1 0 0 0 0 6.2Z"/><path fill="url(#paint11_radial_3930_2119)" d="M25.102 21.005a3.1 3.1 0 1 0 0-6.2 3.1 3.1 0 0 0 0 6.2Z"/><path fill="url(#paint12_radial_3930_2119)" d="M25.102 21.005a3.1 3.1 0 1 0 0-6.2 3.1 3.1 0 0 0 0 6.2Z"/><g filter="url(#filter2_f_3930_2119)"><path fill="url(#paint13_radial_3930_2119)" d="M25.102 19.865a1.96 1.96 0 1 0 0-3.92 1.96 1.96 0 0 0 0 3.92Z"/></g><g filter="url(#filter3_f_3930_2119)"><path fill="url(#paint14_radial_3930_2119)" d="M7.312 19.865a1.96 1.96 0 1 0 0-3.92 1.96 1.96 0 0 0 0 3.92Z"/></g><g filter="url(#filter4_i_3930_2119)"><path fill="url(#paint15_linear_3930_2119)" d="M6.614 13.149a6.331 6.331 0 0 1 6.328-6.194h2.42c.51 0 .97.31 1.16.79.75 1.65 2.39 2.7 4.2 2.7h2.65c1.49.07 2.66 1.31 2.62 2.82l-.05 1.6h.023l-.533 8.56a7.365 7.365 0 0 1-7.3 6.39h-3.55c-3.69 0-6.81-2.73-7.3-6.39l-.668-10.277Z"/><path fill="url(#paint16_linear_3930_2119)" d="M6.614 13.149a6.331 6.331 0 0 1 6.328-6.194h2.42c.51 0 .97.31 1.16.79.75 1.65 2.39 2.7 4.2 2.7h2.65c1.49.07 2.66 1.31 2.62 2.82l-.05 1.6h.023l-.533 8.56a7.365 7.365 0 0 1-7.3 6.39h-3.55c-3.69 0-6.81-2.73-7.3-6.39l-.668-10.277Z"/><path fill="url(#paint17_radial_3930_2119)" d="M6.614 13.149a6.331 6.331 0 0 1 6.328-6.194h2.42c.51 0 .97.31 1.16.79.75 1.65 2.39 2.7 4.2 2.7h2.65c1.49.07 2.66 1.31 2.62 2.82l-.05 1.6h.023l-.533 8.56a7.365 7.365 0 0 1-7.3 6.39h-3.55c-3.69 0-6.81-2.73-7.3-6.39l-.668-10.277Z"/><path fill="url(#paint18_radial_3930_2119)" d="M6.614 13.149a6.331 6.331 0 0 1 6.328-6.194h2.42c.51 0 .97.31 1.16.79.75 1.65 2.39 2.7 4.2 2.7h2.65c1.49.07 2.66 1.31 2.62 2.82l-.05 1.6h.023l-.533 8.56a7.365 7.365 0 0 1-7.3 6.39h-3.55c-3.69 0-6.81-2.73-7.3-6.39l-.668-10.277Z"/><path fill="url(#paint19_radial_3930_2119)" d="M6.614 13.149a6.331 6.331 0 0 1 6.328-6.194h2.42c.51 0 .97.31 1.16.79.75 1.65 2.39 2.7 4.2 2.7h2.65c1.49.07 2.66 1.31 2.62 2.82l-.05 1.6h.023l-.533 8.56a7.365 7.365 0 0 1-7.3 6.39h-3.55c-3.69 0-6.81-2.73-7.3-6.39l-.668-10.277Z"/><path fill="url(#paint20_radial_3930_2119)" d="M6.614 13.149a6.331 6.331 0 0 1 6.328-6.194h2.42c.51 0 .97.31 1.16.79.75 1.65 2.39 2.7 4.2 2.7h2.65c1.49.07 2.66 1.31 2.62 2.82l-.05 1.6h.023l-.533 8.56a7.365 7.365 0 0 1-7.3 6.39h-3.55c-3.69 0-6.81-2.73-7.3-6.39l-.668-10.277Z"/></g><g filter="url(#filter5_f_3930_2119)"><path fill="#F2961D" d="m15.531 17.748-1.22 2.94a.97.97 0 0 0 .8 1.335l1.375.132a.97.97 0 0 0 1.04-1.16l-.639-3.117c-.144-.686-1.093-.777-1.356-.13Z"/></g><g filter="url(#filter6_f_3930_2119)"><path stroke="url(#paint21_linear_3930_2119)" stroke-width=".1" d="M19.262 23.569c.188-.29-.143-.647-.445-.489-.79.414-1.69.645-2.676.645a5.586 5.586 0 0 1-2.651-.645h-.002a.346.346 0 0 0-.414.072.33.33 0 0 0-.03.417 3.691 3.691 0 0 0 3.109 1.691c1.306 0 2.45-.672 3.11-1.691Zm0 0-.042-.027.042.027Z"/></g><path fill="url(#paint22_radial_3930_2119)" d="M16.14 23.775a5.636 5.636 0 0 1-2.674-.65c-.27-.136-.552.159-.38.416a3.641 3.641 0 0 0 3.067 1.67 3.64 3.64 0 0 0 3.067-1.67c.16-.245-.122-.552-.38-.417a5.772 5.772 0 0 1-2.7.65Z"/><g filter="url(#filter7_i_3930_2119)"><path fill="#BE424B" d="M22.96 12.885c-.327-.285-.707-.586-1.282-.767-.567-.179-1.278-.227-2.26-.107a.517.517 0 0 0 .125 1.027c.897-.11 1.446-.053 1.824.066.37.116.62.305.913.56a.517.517 0 1 0 .68-.78Z"/></g><g filter="url(#filter8_i_3930_2119)"><path fill="#BE424B" d="M9.64 12.681a5.172 5.172 0 0 1 3.242-.67.517.517 0 0 1-.125 1.027 4.137 4.137 0 0 0-2.585.53 2.542 2.542 0 0 0-.171.112l-.005.004a.517.517 0 0 1-.633-.818l.278-.185Z"/></g><g filter="url(#filter9_f_3930_2119)"><path fill="url(#paint23_radial_3930_2119)" d="M16.47 7.836a4.624 4.624 0 0 1-.123-.255A1.238 1.238 0 0 0 15.2 6.8h-2.373c-3.442 0-6.23 2.82-6.23 6.3v.513c-.634-.482-1.431-1.5-1.431-3.147 0-1.998 1.457-3.008 2.387-3.653.262-.181.483-.334.616-.472.057-.058.119-.124.186-.195.652-.691 1.813-1.923 3.84-2.461 1.299-.345 2.62-.348 3.512-.269.47.043.802.451.802.924v3.47l-.039.025Z"/><path fill="url(#paint24_radial_3930_2119)" d="M16.47 7.836a4.624 4.624 0 0 1-.123-.255A1.238 1.238 0 0 0 15.2 6.8h-2.373c-3.442 0-6.23 2.82-6.23 6.3v.513c-.634-.482-1.431-1.5-1.431-3.147 0-1.998 1.457-3.008 2.387-3.653.262-.181.483-.334.616-.472.057-.058.119-.124.186-.195.652-.691 1.813-1.923 3.84-2.461 1.299-.345 2.62-.348 3.512-.269.47.043.802.451.802.924v3.47l-.039.025Z"/></g><g filter="url(#filter10_f_3930_2119)"><path fill="url(#paint25_radial_3930_2119)" d="m26.105 13.962-.054-1.177c-.02-1.423-1.196-2.598-2.62-2.658h-2.61a4.515 4.515 0 0 1-3.96-2.348s-.382-.885-.466-2.18c-.066-1 .84-1.718 1.834-1.586 2.066.273 4.934.918 6.905 2.204 3.253 2.121 2.683 5.945.971 7.745Z"/><path fill="url(#paint26_radial_3930_2119)" d="m26.105 13.962-.054-1.177c-.02-1.423-1.196-2.598-2.62-2.658h-2.61a4.515 4.515 0 0 1-3.96-2.348s-.382-.885-.466-2.18c-.066-1 .84-1.718 1.834-1.586 2.066.273 4.934.918 6.905 2.204 3.253 2.121 2.683 5.945.971 7.745Z"/><path fill="url(#paint27_radial_3930_2119)" d="m26.105 13.962-.054-1.177c-.02-1.423-1.196-2.598-2.62-2.658h-2.61a4.515 4.515 0 0 1-3.96-2.348s-.382-.885-.466-2.18c-.066-1 .84-1.718 1.834-1.586 2.066.273 4.934.918 6.905 2.204 3.253 2.121 2.683 5.945.971 7.745Z"/><path fill="url(#paint28_radial_3930_2119)" d="m26.105 13.962-.054-1.177c-.02-1.423-1.196-2.598-2.62-2.658h-2.61a4.515 4.515 0 0 1-3.96-2.348s-.382-.885-.466-2.18c-.066-1 .84-1.718 1.834-1.586 2.066.273 4.934.918 6.905 2.204 3.253 2.121 2.683 5.945.971 7.745Z"/><path fill="url(#paint29_radial_3930_2119)" d="m26.105 13.962-.054-1.177c-.02-1.423-1.196-2.598-2.62-2.658h-2.61a4.515 4.515 0 0 1-3.96-2.348s-.382-.885-.466-2.18c-.066-1 .84-1.718 1.834-1.586 2.066.273 4.934.918 6.905 2.204 3.253 2.121 2.683 5.945.971 7.745Z"/></g><g filter="url(#filter11_f_3930_2119)"><path fill="#FFC830" d="m15.507 17.382-.98 3.193c-.2.653.29 1.315.97 1.315h1.45c.68 0 1.17-.662.97-1.315l-.98-3.193c-.22-.703-1.22-.703-1.43 0Z"/><path fill="url(#paint30_radial_3930_2119)" d="m15.507 17.382-.98 3.193c-.2.653.29 1.315.97 1.315h1.45c.68 0 1.17-.662.97-1.315l-.98-3.193c-.22-.703-1.22-.703-1.43 0Z"/><path fill="url(#paint31_linear_3930_2119)" d="m15.507 17.382-.98 3.193c-.2.653.29 1.315.97 1.315h1.45c.68 0 1.17-.662.97-1.315l-.98-3.193c-.22-.703-1.22-.703-1.43 0Z"/><path fill="url(#paint32_linear_3930_2119)" d="m15.507 17.382-.98 3.193c-.2.653.29 1.315.97 1.315h1.45c.68 0 1.17-.662.97-1.315l-.98-3.193c-.22-.703-1.22-.703-1.43 0Z"/><path fill="url(#paint33_linear_3930_2119)" d="m15.507 17.382-.98 3.193c-.2.653.29 1.315.97 1.315h1.45c.68 0 1.17-.662.97-1.315l-.98-3.193c-.22-.703-1.22-.703-1.43 0Z"/></g><path fill="#fff" d="M20.805 15.376c1.218 0 2.246.84 2.526 1.974a.511.511 0 0 1-.5.635h-4.159a.43.43 0 0 1-.423-.507 2.606 2.606 0 0 1 2.556-2.102Z"/><path fill="url(#paint34_radial_3930_2119)" d="M20.42 15.883a1.664 1.664 0 0 1 1.603 2.102h-3.215a1.706 1.706 0 0 1-.06-.439 1.67 1.67 0 0 1 1.671-1.663Z"/><path fill="#000" d="M19.466 17.546a.95.95 0 0 1 .953-.953c.53 0 .953.424.953.953a.94.94 0 0 1-.106.439H19.58a.86.86 0 0 1-.114-.439Z"/><g filter="url(#filter12_f_3930_2119)"><path fill="#C7A7A3" d="M20.297 16.234c.118.159-.13.352-.411.563-.282.21-.49.359-.61.2-.118-.159.014-.458.296-.669.282-.21.606-.252.725-.094Z"/><path fill="url(#paint35_radial_3930_2119)" d="M20.297 16.234c.118.159-.13.352-.411.563-.282.21-.49.359-.61.2-.118-.159.014-.458.296-.669.282-.21.606-.252.725-.094Z"/></g><g filter="url(#filter13_f_3930_2119)"><path fill="url(#paint36_linear_3930_2119)" d="M21.901 17.327a1.566 1.566 0 0 0-.431-.862l-.485.531.22.426.696-.095Z"/></g><path fill="#fff" d="M11.683 15.351a2.65 2.65 0 0 0-2.57 2.008.52.52 0 0 0 .508.646h4.232c.27 0 .485-.246.43-.515a2.657 2.657 0 0 0-2.6-2.139Z"/><path fill="url(#paint37_radial_3930_2119)" d="M12.076 15.867a1.693 1.693 0 0 0-1.631 2.138h3.27c.038-.146.061-.292.061-.446a1.704 1.704 0 0 0-1.7-1.693Z"/><path fill="#000" d="M13.045 17.56c0-.54-.43-.97-.97-.97a.965.965 0 0 0-.969.97c0 .16.039.315.108.445h1.716a.96.96 0 0 0 .115-.446Z"/><g filter="url(#filter14_f_3930_2119)"><path fill="url(#paint38_linear_3930_2119)" d="M13.622 17.36c0-.547-.445-.911-.565-1.021l-.547.528.337.686.775-.193Z"/></g><g filter="url(#filter15_f_3930_2119)" transform="rotate(-27.914 11.565 16.59)"><ellipse cx="11.565" cy="16.59" fill="#C7A7A3" fill-opacity=".9" rx=".739" ry=".374"/><ellipse cx="11.565" cy="16.59" fill="url(#paint39_radial_3930_2119)" rx=".739" ry=".374"/></g><g fill-rule="evenodd" clip-rule="evenodd" filter="url(#filter16_ii_3930_2119)"><path fill="url(#paint40_linear_3930_2119)" d="M6.57 13.62a.09.09 0 0 0-.089.096l.801 9.709a7.346 7.346 0 0 0 1.334 3.343 8.427 8.427 0 0 0 2.09 1.945 7.336 7.336 0 0 0 3.49 1.092h4.036c.224 0 .443-.01.658-.029a7.332 7.332 0 0 0 2.688-.816c1.56-.849 2.71-2.228 3.332-3.626a7.37 7.37 0 0 0 .488-1.683c.01-.076.018-.151.024-.226l.053-.695.792-8.916a.17.17 0 0 0-.33-.068l-3.065 9.369c-.15.43-.69.57-1.02.27l-.75-.67c-.62-.56-1.43-.86-2.27-.86h-5.03c-.84 0-1.64.31-2.27.86l-.75.67c-.34.3-.88.16-1.02-.27l-3.107-9.434a.09.09 0 0 0-.085-.062Zm6.169 11.92v-1.782c0-.47.38-.85.85-.85h5.065c.47 0 .85.38.85.85v1.782c0 .92-1.064 1.66-1.984 1.66-.19 0-.34-.15-.34-.34v-.323c0-.51-.468-.92-.978-.92s-.917.41-.917.92v.323c0 .19-.15.34-.34.34-.92 0-2.206-.74-2.206-1.66Z"/><path fill="url(#paint41_radial_3930_2119)" d="M6.57 13.62a.09.09 0 0 0-.089.096l.801 9.709a7.346 7.346 0 0 0 1.334 3.343 8.427 8.427 0 0 0 2.09 1.945 7.336 7.336 0 0 0 3.49 1.092h4.036c.224 0 .443-.01.658-.029a7.332 7.332 0 0 0 2.688-.816c1.56-.849 2.71-2.228 3.332-3.626a7.37 7.37 0 0 0 .488-1.683c.01-.076.018-.151.024-.226l.053-.695.792-8.916a.17.17 0 0 0-.33-.068l-3.065 9.369c-.15.43-.69.57-1.02.27l-.75-.67c-.62-.56-1.43-.86-2.27-.86h-5.03c-.84 0-1.64.31-2.27.86l-.75.67c-.34.3-.88.16-1.02-.27l-3.107-9.434a.09.09 0 0 0-.085-.062Zm6.169 11.92v-1.782c0-.47.38-.85.85-.85h5.065c.47 0 .85.38.85.85v1.782c0 .92-1.064 1.66-1.984 1.66-.19 0-.34-.15-.34-.34v-.323c0-.51-.468-.92-.978-.92s-.917.41-.917.92v.323c0 .19-.15.34-.34.34-.92 0-2.206-.74-2.206-1.66Z"/></g><path fill="url(#paint42_radial_3930_2119)" fill-rule="evenodd" d="M6.57 13.62a.09.09 0 0 0-.089.096l.801 9.709a7.346 7.346 0 0 0 1.334 3.343 8.427 8.427 0 0 0 2.09 1.945 7.336 7.336 0 0 0 3.49 1.092h4.036c.224 0 .443-.01.658-.029a7.332 7.332 0 0 0 2.688-.816c1.56-.849 2.71-2.228 3.332-3.626a7.37 7.37 0 0 0 .488-1.683c.01-.076.018-.151.024-.226l.053-.695.792-8.916a.17.17 0 0 0-.33-.068l-3.065 9.369c-.15.43-.69.57-1.02.27l-.75-.67c-.62-.56-1.43-.86-2.27-.86h-5.03c-.84 0-1.64.31-2.27.86l-.75.67c-.34.3-.88.16-1.02-.27l-3.107-9.434a.09.09 0 0 0-.085-.062Zm6.169 11.92v-1.782c0-.47.38-.85.85-.85h5.065c.47 0 .85.38.85.85v1.782c0 .92-1.064 1.66-1.984 1.66-.19 0-.34-.15-.34-.34v-.323c0-.51-.468-.92-.978-.92s-.917.41-.917.92v.323c0 .19-.15.34-.34.34-.92 0-2.206-.74-2.206-1.66Z" clip-rule="evenodd"/><path fill="url(#paint43_radial_3930_2119)" fill-rule="evenodd" d="M6.57 13.62a.09.09 0 0 0-.089.096l.801 9.709a7.346 7.346 0 0 0 1.334 3.343 8.427 8.427 0 0 0 2.09 1.945 7.336 7.336 0 0 0 3.49 1.092h4.036c.224 0 .443-.01.658-.029a7.332 7.332 0 0 0 2.688-.816c1.56-.849 2.71-2.228 3.332-3.626a7.37 7.37 0 0 0 .488-1.683c.01-.076.018-.151.024-.226l.053-.695.792-8.916a.17.17 0 0 0-.33-.068l-3.065 9.369c-.15.43-.69.57-1.02.27l-.75-.67c-.62-.56-1.43-.86-2.27-.86h-5.03c-.84 0-1.64.31-2.27.86l-.75.67c-.34.3-.88.16-1.02-.27l-3.107-9.434a.09.09 0 0 0-.085-.062Zm6.169 11.92v-1.782c0-.47.38-.85.85-.85h5.065c.47 0 .85.38.85.85v1.782c0 .92-1.064 1.66-1.984 1.66-.19 0-.34-.15-.34-.34v-.323c0-.51-.468-.92-.978-.92s-.917.41-.917.92v.323c0 .19-.15.34-.34.34-.92 0-2.206-.74-2.206-1.66Z" clip-rule="evenodd"/><path fill="url(#paint44_radial_3930_2119)" fill-rule="evenodd" d="M6.57 13.62a.09.09 0 0 0-.089.096l.801 9.709a7.346 7.346 0 0 0 1.334 3.343 8.427 8.427 0 0 0 2.09 1.945 7.336 7.336 0 0 0 3.49 1.092h4.036c.224 0 .443-.01.658-.029a7.332 7.332 0 0 0 2.688-.816c1.56-.849 2.71-2.228 3.332-3.626a7.37 7.37 0 0 0 .488-1.683c.01-.076.018-.151.024-.226l.053-.695.792-8.916a.17.17 0 0 0-.33-.068l-3.065 9.369c-.15.43-.69.57-1.02.27l-.75-.67c-.62-.56-1.43-.86-2.27-.86h-5.03c-.84 0-1.64.31-2.27.86l-.75.67c-.34.3-.88.16-1.02-.27l-3.107-9.434a.09.09 0 0 0-.085-.062Zm6.169 11.92v-1.782c0-.47.38-.85.85-.85h5.065c.47 0 .85.38.85.85v1.782c0 .92-1.064 1.66-1.984 1.66-.19 0-.34-.15-.34-.34v-.323c0-.51-.468-.92-.978-.92s-.917.41-.917.92v.323c0 .19-.15.34-.34.34-.92 0-2.206-.74-2.206-1.66Z" clip-rule="evenodd"/><path fill="url(#paint45_radial_3930_2119)" fill-rule="evenodd" d="M6.57 13.62a.09.09 0 0 0-.089.096l.801 9.709a7.346 7.346 0 0 0 1.334 3.343 8.427 8.427 0 0 0 2.09 1.945 7.336 7.336 0 0 0 3.49 1.092h4.036c.224 0 .443-.01.658-.029a7.332 7.332 0 0 0 2.688-.816c1.56-.849 2.71-2.228 3.332-3.626a7.37 7.37 0 0 0 .488-1.683c.01-.076.018-.151.024-.226l.053-.695.792-8.916a.17.17 0 0 0-.33-.068l-3.065 9.369c-.15.43-.69.57-1.02.27l-.75-.67c-.62-.56-1.43-.86-2.27-.86h-5.03c-.84 0-1.64.31-2.27.86l-.75.67c-.34.3-.88.16-1.02-.27l-3.107-9.434a.09.09 0 0 0-.085-.062Zm6.169 11.92v-1.782c0-.47.38-.85.85-.85h5.065c.47 0 .85.38.85.85v1.782c0 .92-1.064 1.66-1.984 1.66-.19 0-.34-.15-.34-.34v-.323c0-.51-.468-.92-.978-.92s-.917.41-.917.92v.323c0 .19-.15.34-.34.34-.92 0-2.206-.74-2.206-1.66Z" clip-rule="evenodd"/><g filter="url(#filter17_f_3930_2119)"><path stroke="#D26957" stroke-linecap="round" stroke-width=".25" d="M9.676 13.242c.406-.339 1.606-.963 3.156-.75"/></g><g filter="url(#filter18_f_3930_2119)"><path stroke="#D26957" stroke-linecap="round" stroke-width=".25" d="M22.723 13.195c-.406-.338-1.606-.963-3.156-.75"/></g><defs><radialGradient id="paint0_radial_3930_2119" cx="0" cy="0" r="1" gradientTransform="matrix(6.66554 7.88218 -20.09217 16.99086 17.404 19.865)" gradientUnits="userSpaceOnUse"><stop offset=".28" stop-color="#FFC135"/><stop offset="1" stop-color="#E4803E"/></radialGradient><radialGradient id="paint1_radial_3930_2119" cx="0" cy="0" r="1" gradientTransform="rotate(158.46 9.973 12.535) scale(2.7262 1.66138)" gradientUnits="userSpaceOnUse"><stop stop-color="#E18C2A"/><stop offset="1" stop-color="#E18C2A" stop-opacity="0"/></radialGradient><radialGradient id="paint3_radial_3930_2119" cx="0" cy="0" r="1" gradientTransform="matrix(0 -6.75526 12.207 0 6.289 15.456)" gradientUnits="userSpaceOnUse"><stop stop-color="#C98537"/><stop offset="1" stop-color="#C98537" stop-opacity="0"/></radialGradient><radialGradient id="paint4_radial_3930_2119" cx="0" cy="0" r="1" gradientTransform="matrix(0 -6.75526 12.207 0 25.426 15.456)" gradientUnits="userSpaceOnUse"><stop stop-color="#FFB52A"/><stop offset="1" stop-color="#FFB52A" stop-opacity="0"/></radialGradient><radialGradient id="paint5_radial_3930_2119" cx="0" cy="0" r="1" gradientTransform="matrix(-6.16708 -2.30651 1.21036 -3.23622 23.995 3.784)" gradientUnits="userSpaceOnUse"><stop stop-color="#FFE639"/><stop offset="1" stop-color="#FFE639" stop-opacity="0"/></radialGradient><radialGradient id="paint6_radial_3930_2119" cx="0" cy="0" r="1" gradientTransform="matrix(1.71661 2.7429 -6.40715 4.00985 14.49 .823)" gradientUnits="userSpaceOnUse"><stop offset=".287" stop-color="#F3C130"/><stop offset="1" stop-color="#F3C130" stop-opacity="0"/></radialGradient><radialGradient id="paint7_radial_3930_2119" cx="0" cy="0" r="1" gradientTransform="rotate(34.506 -28.97 21.288) scale(11.7792 6.44927)" gradientUnits="userSpaceOnUse"><stop stop-color="#D57A26"/><stop offset="1" stop-color="#D06A3C"/></radialGradient><radialGradient id="paint8_radial_3930_2119" cx="0" cy="0" r="1" gradientTransform="matrix(2.42671 2.48144 -3.75491 3.6721 12.008 20.136)" gradientUnits="userSpaceOnUse"><stop offset=".263" stop-color="#BE691E"/><stop offset=".977" stop-color="#BE691E" stop-opacity="0"/></radialGradient><radialGradient id="paint11_radial_3930_2119" cx="0" cy="0" r="1" gradientTransform="matrix(-.46875 5 -5.41958 -.50808 24.457 17.07)" gradientUnits="userSpaceOnUse"><stop offset=".69" stop-color="#E1943D" stop-opacity="0"/><stop offset=".902" stop-color="#E08F2E"/></radialGradient><radialGradient id="paint12_radial_3930_2119" cx="0" cy="0" r="1" gradientTransform="matrix(1.40625 -2.19433 1.98862 1.27442 25.364 17.905)" gradientUnits="userSpaceOnUse"><stop offset=".772" stop-color="#FFBD22"/><stop offset="1" stop-color="#FFBD22" stop-opacity="0"/></radialGradient><radialGradient id="paint13_radial_3930_2119" cx="0" cy="0" r="1" gradientTransform="translate(25.102 17.905) scale(1.95998)" gradientUnits="userSpaceOnUse"><stop stop-color="#FFBE35"/><stop offset="1" stop-color="#FAAB24"/></radialGradient><radialGradient id="paint14_radial_3930_2119" cx="0" cy="0" r="1" gradientTransform="translate(7.312 17.905) scale(1.95998)" gradientUnits="userSpaceOnUse"><stop stop-color="#D47922"/><stop offset="1" stop-color="#D8791D"/></radialGradient><radialGradient id="paint17_radial_3930_2119" cx="0" cy="0" r="1" gradientTransform="matrix(.06325 -1.96062 1.10666 .0357 15.517 27.778)" gradientUnits="userSpaceOnUse"><stop offset=".247" stop-color="#F08721"/><stop offset="1" stop-color="#F08721" stop-opacity="0"/></radialGradient><radialGradient id="paint18_radial_3930_2119" cx="0" cy="0" r="1" gradientTransform="rotate(-179.076 10.216 12.542) scale(1.96087 2.7544)" gradientUnits="userSpaceOnUse"><stop stop-color="#F08721"/><stop offset="1" stop-color="#F08721" stop-opacity="0"/></radialGradient><radialGradient id="paint19_radial_3930_2119" cx="0" cy="0" r="1" gradientTransform="matrix(0 -1.91873 2.92105 0 20.918 15.588)" gradientUnits="userSpaceOnUse"><stop stop-color="#FFBA24"/><stop offset="1" stop-color="#FFBA24" stop-opacity="0"/></radialGradient><radialGradient id="paint20_radial_3930_2119" cx="0" cy="0" r="1" gradientTransform="matrix(0 -2.49149 2.46285 0 12.298 16.247)" gradientUnits="userSpaceOnUse"><stop stop-color="#EE9228"/><stop offset="1" stop-color="#EE9228" stop-opacity="0"/></radialGradient><radialGradient id="paint22_radial_3930_2119" cx="0" cy="0" r="1" gradientTransform="matrix(0 -1.26502 3.72016 0 16.15 25.21)" gradientUnits="userSpaceOnUse"><stop stop-color="#89004E"/><stop offset="1" stop-color="#86004D"/></radialGradient><radialGradient id="paint23_radial_3930_2119" cx="0" cy="0" r="1" gradientTransform="matrix(-7.09766 2.56091 -.71276 -1.97545 16.51 3.375)" gradientUnits="userSpaceOnUse"><stop stop-color="#FFDC2B"/><stop offset="1" stop-color="#FFDC2B" stop-opacity="0"/></radialGradient><radialGradient id="paint24_radial_3930_2119" cx="0" cy="0" r="1" gradientTransform="matrix(6 -9.5 10.52499 6.64735 5.912 12.248)" gradientUnits="userSpaceOnUse"><stop offset=".093" stop-color="#D67227"/><stop offset=".233" stop-color="#EF8A23"/><stop offset="1" stop-color="#EF8A23" stop-opacity="0"/></radialGradient><radialGradient id="paint25_radial_3930_2119" cx="0" cy="0" r="1" gradientTransform="matrix(6.3125 1.49307 -.57258 2.42079 23.137 5.377)" gradientUnits="userSpaceOnUse"><stop stop-color="#FFE137"/><stop offset="1" stop-color="#FFE137" stop-opacity="0"/></radialGradient><radialGradient id="paint26_radial_3930_2119" cx="0" cy="0" r="1" gradientTransform="rotate(-120.119 16.996 -.492) scale(7.98306 4.45209)" gradientUnits="userSpaceOnUse"><stop stop-color="#EB8F29"/><stop offset="1" stop-color="#EB8F29" stop-opacity="0"/></radialGradient><radialGradient id="paint27_radial_3930_2119" cx="0" cy="0" r="1" gradientTransform="matrix(-2.43747 -4.10598 2.94094 -1.74586 24.793 13.402)" gradientUnits="userSpaceOnUse"><stop offset=".394" stop-color="#E48421"/><stop offset="1" stop-color="#E48421" stop-opacity="0"/></radialGradient><radialGradient id="paint28_radial_3930_2119" cx="0" cy="0" r="1" gradientTransform="rotate(166.509 12.357 4.077) scale(9.20011 9.94567)" gradientUnits="userSpaceOnUse"><stop offset=".735" stop-color="#F29415" stop-opacity="0"/><stop offset="1" stop-color="#F29415"/></radialGradient><radialGradient id="paint29_radial_3930_2119" cx="0" cy="0" r="1" gradientTransform="matrix(-.21876 .71543 -3.27084 -1.00012 22.824 4.925)" gradientUnits="userSpaceOnUse"><stop offset=".461" stop-color="#FFCE3C"/><stop offset="1" stop-color="#FFCE3C" stop-opacity="0"/></radialGradient><radialGradient id="paint30_radial_3930_2119" cx="0" cy="0" r="1" gradientTransform="rotate(-100.622 17.292 3.08) scale(4.91628 1.52195)" gradientUnits="userSpaceOnUse"><stop stop-color="#FFE745"/><stop offset="1" stop-color="#FFE745" stop-opacity="0"/></radialGradient><radialGradient id="paint34_radial_3930_2119" cx="0" cy="0" r="1" gradientTransform="matrix(0 1.51263 -2.40601 0 20.416 16.772)" gradientUnits="userSpaceOnUse"><stop offset=".802" stop-color="#925C51"/><stop offset="1" stop-color="#694B43"/><stop offset="1" stop-color="#804D49"/><stop offset="1" stop-color="#85534D"/></radialGradient><radialGradient id="paint35_radial_3930_2119" cx="0" cy="0" r="1" gradientTransform="rotate(-127.812 14.14 3.57) scale(.70528 .97101)" gradientUnits="userSpaceOnUse"><stop offset=".766" stop-color="#FFE6E2" stop-opacity="0"/><stop offset=".966" stop-color="#FFE6E2"/></radialGradient><radialGradient id="paint37_radial_3930_2119" cx="0" cy="0" r="1" gradientTransform="matrix(0 1.53876 -2.44757 0 12.08 16.771)" gradientUnits="userSpaceOnUse"><stop offset=".802" stop-color="#925C51"/><stop offset="1" stop-color="#694B43"/><stop offset="1" stop-color="#804D49"/><stop offset="1" stop-color="#85534D"/></radialGradient><radialGradient id="paint39_radial_3930_2119" cx="0" cy="0" r="1" gradientTransform="matrix(-.01467 -.93704 1.12636 -.01764 11.536 17.187)" gradientUnits="userSpaceOnUse"><stop offset=".766" stop-color="#FFE6E2" stop-opacity="0"/><stop offset=".966" stop-color="#FFE6E2"/></radialGradient><radialGradient id="paint41_radial_3930_2119" cx="0" cy="0" r="1" gradientTransform="matrix(-1.39143 4.20583 -4.07317 -1.34755 24.91 20.758)" gradientUnits="userSpaceOnUse"><stop stop-color="#FF9F4E"/><stop offset="1" stop-color="#FF9F4E" stop-opacity="0"/></radialGradient><radialGradient id="paint42_radial_3930_2119" cx="0" cy="0" r="1" gradientTransform="matrix(0 11.9534 -14.6299 0 16.378 18.354)" gradientUnits="userSpaceOnUse"><stop offset=".794" stop-color="#C55661" stop-opacity="0"/><stop offset="1" stop-color="#C55661"/></radialGradient><radialGradient id="paint43_radial_3930_2119" cx="0" cy="0" r="1" gradientTransform="rotate(171.394 8.575 11.083) scale(11.8337 24.7011)" gradientUnits="userSpaceOnUse"><stop offset=".784" stop-color="#C4805D" stop-opacity="0"/><stop offset="1" stop-color="#C4805D"/></radialGradient><radialGradient id="paint44_radial_3930_2119" cx="0" cy="0" r="1" gradientTransform="matrix(13.70672 1.83422 -4.42068 33.03473 12.577 20.506)" gradientUnits="userSpaceOnUse"><stop offset=".88" stop-color="#E19A62" stop-opacity="0"/><stop offset=".969" stop-color="#E19A62"/></radialGradient><radialGradient id="paint45_radial_3930_2119" cx="0" cy="0" r="1" gradientTransform="matrix(0 1.17005 -3.77893 0 16.166 23.272)" gradientUnits="userSpaceOnUse"><stop offset=".287" stop-color="#C85A2C"/><stop offset="1" stop-color="#C85A2C" stop-opacity="0"/></radialGradient><filter id="filter0_ii_3930_2119" width="24.414" height="15.11" x="4" y="1.445" color-interpolation-filters="sRGB" filterUnits="userSpaceOnUse"><feFlood flood-opacity="0" result="BackgroundImageFix"/><feBlend in="SourceGraphic" in2="BackgroundImageFix" result="shape"/><feColorMatrix in="SourceAlpha" result="hardAlpha" values="0 0 0 0 0 0 0 0 0 0 0 0 0 0 0 0 0 0 127 0"/><feOffset dy="-.5"/><feGaussianBlur stdDeviation=".625"/><feComposite in2="hardAlpha" k2="-1" k3="1" operator="arithmetic"/><feColorMatrix values="0 0 0 0 0.945098 0 0 0 0 0.509804 0 0 0 0 0.0627451 0 0 0 1 0"/><feBlend in2="shape" result="effect1_innerShadow_3930_2119"/><feColorMatrix in="SourceAlpha" result="hardAlpha" values="0 0 0 0 0 0 0 0 0 0 0 0 0 0 0 0 0 0 127 0"/><feOffset dy="-.2"/><feGaussianBlur stdDeviation=".2"/><feComposite in2="hardAlpha" k2="-1" k3="1" operator="arithmetic"/><feColorMatrix values="0 0 0 0 0.862745 0 0 0 0 0.486275 0 0 0 0 0.0470588 0 0 0 1 0"/><feBlend in2="effect1_innerShadow_3930_2119" result="effect2_innerShadow_3930_2119"/></filter><filter id="filter1_i_3930_2119" width="6.4" height="6.4" x="4.212" y="14.805" color-interpolation-filters="sRGB" filterUnits="userSpaceOnUse"><feFlood flood-opacity="0" result="BackgroundImageFix"/><feBlend in="SourceGraphic" in2="BackgroundImageFix" result="shape"/><feColorMatrix in="SourceAlpha" result="hardAlpha" values="0 0 0 0 0 0 0 0 0 0 0 0 0 0 0 0 0 0 127 0"/><feOffset dx=".2" dy=".2"/><feGaussianBlur stdDeviation=".2"/><feComposite in2="hardAlpha" k2="-1" k3="1" operator="arithmetic"/><feColorMatrix values="0 0 0 0 0.831373 0 0 0 0 0.623529 0 0 0 0 0.294118 0 0 0 1 0"/><feBlend in2="shape" result="effect1_innerShadow_3930_2119"/></filter><filter id="filter2_f_3930_2119" width="4.42" height="4.42" x="22.892" y="15.695" color-interpolation-filters="sRGB" filterUnits="userSpaceOnUse"><feFlood flood-opacity="0" result="BackgroundImageFix"/><feBlend in="SourceGraphic" in2="BackgroundImageFix" result="shape"/><feGaussianBlur result="effect1_foregroundBlur_3930_2119" stdDeviation=".125"/></filter><filter id="filter3_f_3930_2119" width="4.42" height="4.42" x="5.102" y="15.695" color-interpolation-filters="sRGB" filterUnits="userSpaceOnUse"><feFlood flood-opacity="0" result="BackgroundImageFix"/><feBlend in="SourceGraphic" in2="BackgroundImageFix" result="shape"/><feGaussianBlur result="effect1_foregroundBlur_3930_2119" stdDeviation=".125"/></filter><filter id="filter4_i_3930_2119" width="19.38" height="23.11" x="6.614" y="6.955" color-interpolation-filters="sRGB" filterUnits="userSpaceOnUse"><feFlood flood-opacity="0" result="BackgroundImageFix"/><feBlend in="SourceGraphic" in2="BackgroundImageFix" result="shape"/><feColorMatrix in="SourceAlpha" result="hardAlpha" values="0 0 0 0 0 0 0 0 0 0 0 0 0 0 0 0 0 0 127 0"/><feOffset dy=".25"/><feGaussianBlur stdDeviation=".5"/><feComposite in2="hardAlpha" k2="-1" k3="1" operator="arithmetic"/><feColorMatrix values="0 0 0 0 0.976471 0 0 0 0 0.552941 0 0 0 0 0.109804 0 0 0 1 0"/><feBlend in2="shape" result="effect1_innerShadow_3930_2119"/></filter><filter id="filter5_f_3930_2119" width="4.309" height="5.85" x="13.737" y="16.81" color-interpolation-filters="sRGB" filterUnits="userSpaceOnUse"><feFlood flood-opacity="0" result="BackgroundImageFix"/><feBlend in="SourceGraphic" in2="BackgroundImageFix" result="shape"/><feGaussianBlur result="effect1_foregroundBlur_3930_2119" stdDeviation=".25"/></filter><filter id="filter6_f_3930_2119" width="6.634" height="2.52" x="12.833" y="22.89" color-interpolation-filters="sRGB" filterUnits="userSpaceOnUse"><feFlood flood-opacity="0" result="BackgroundImageFix"/><feBlend in="SourceGraphic" in2="BackgroundImageFix" result="shape"/><feGaussianBlur result="effect1_foregroundBlur_3930_2119" stdDeviation=".05"/></filter><filter id="filter7_i_3930_2119" width="4.424" height="2.097" x="18.963" y="11.695" color-interpolation-filters="sRGB" filterUnits="userSpaceOnUse"><feFlood flood-opacity="0" result="BackgroundImageFix"/><feBlend in="SourceGraphic" in2="BackgroundImageFix" result="shape"/><feColorMatrix in="SourceAlpha" result="hardAlpha" values="0 0 0 0 0 0 0 0 0 0 0 0 0 0 0 0 0 0 127 0"/><feOffset dx=".25" dy="-.25"/><feGaussianBlur stdDeviation=".25"/><feComposite in2="hardAlpha" k2="-1" k3="1" operator="arithmetic"/><feColorMatrix values="0 0 0 0 0.666667 0 0 0 0 0.235294 0 0 0 0 0.254902 0 0 0 1 0"/><feBlend in2="shape" result="effect1_innerShadow_3930_2119"/></filter><filter id="filter8_i_3930_2119" width="4.424" height="2.069" x="9.163" y="11.723" color-interpolation-filters="sRGB" filterUnits="userSpaceOnUse"><feFlood flood-opacity="0" result="BackgroundImageFix"/><feBlend in="SourceGraphic" in2="BackgroundImageFix" result="shape"/><feColorMatrix in="SourceAlpha" result="hardAlpha" values="0 0 0 0 0 0 0 0 0 0 0 0 0 0 0 0 0 0 127 0"/><feOffset dx=".25" dy="-.25"/><feGaussianBlur stdDeviation=".25"/><feComposite in2="hardAlpha" k2="-1" k3="1" operator="arithmetic"/><feColorMatrix values="0 0 0 0 0.666667 0 0 0 0 0.235294 0 0 0 0 0.254902 0 0 0 1 0"/><feBlend in2="shape" result="effect1_innerShadow_3930_2119"/></filter><filter id="filter9_f_3930_2119" width="12.344" height="11.239" x="4.666" y="2.875" color-interpolation-filters="sRGB" filterUnits="userSpaceOnUse"><feFlood flood-opacity="0" result="BackgroundImageFix"/><feBlend in="SourceGraphic" in2="BackgroundImageFix" result="shape"/><feGaussianBlur result="effect1_foregroundBlur_3930_2119" stdDeviation=".25"/></filter><filter id="filter10_f_3930_2119" width="12.094" height="10.965" x="15.891" y="3.497" color-interpolation-filters="sRGB" filterUnits="userSpaceOnUse"><feFlood flood-opacity="0" result="BackgroundImageFix"/><feBlend in="SourceGraphic" in2="BackgroundImageFix" result="shape"/><feGaussianBlur result="effect1_foregroundBlur_3930_2119" stdDeviation=".25"/></filter><filter id="filter11_f_3930_2119" width="3.68" height="5.235" x="14.382" y="16.755" color-interpolation-filters="sRGB" filterUnits="userSpaceOnUse"><feFlood flood-opacity="0" result="BackgroundImageFix"/><feBlend in="SourceGraphic" in2="BackgroundImageFix" result="shape"/><feGaussianBlur result="effect1_foregroundBlur_3930_2119" stdDeviation=".05"/></filter><filter id="filter12_f_3930_2119" width="1.294" height="1.125" x="19.133" y="16.038" color-interpolation-filters="sRGB" filterUnits="userSpaceOnUse"><feFlood flood-opacity="0" result="BackgroundImageFix"/><feBlend in="SourceGraphic" in2="BackgroundImageFix" result="shape"/><feGaussianBlur result="effect1_foregroundBlur_3930_2119" stdDeviation=".05"/></filter><filter id="filter13_f_3930_2119" width="1.316" height="1.357" x="20.785" y="16.265" color-interpolation-filters="sRGB" filterUnits="userSpaceOnUse"><feFlood flood-opacity="0" result="BackgroundImageFix"/><feBlend in="SourceGraphic" in2="BackgroundImageFix" result="shape"/><feGaussianBlur result="effect1_foregroundBlur_3930_2119" stdDeviation=".1"/></filter><filter id="filter14_f_3930_2119" width="1.512" height="1.614" x="12.31" y="16.139" color-interpolation-filters="sRGB" filterUnits="userSpaceOnUse"><feFlood flood-opacity="0" result="BackgroundImageFix"/><feBlend in="SourceGraphic" in2="BackgroundImageFix" result="shape"/><feGaussianBlur result="effect1_foregroundBlur_3930_2119" stdDeviation=".1"/></filter><filter id="filter15_f_3930_2119" width="1.552" height="1.157" x="10.789" y="16.011" color-interpolation-filters="sRGB" filterUnits="userSpaceOnUse"><feFlood flood-opacity="0" result="BackgroundImageFix"/><feBlend in="SourceGraphic" in2="BackgroundImageFix" result="shape"/><feGaussianBlur result="effect1_foregroundBlur_3930_2119" stdDeviation=".05"/></filter><filter id="filter16_ii_3930_2119" width="20.036" height="16.686" x="6.481" y="13.619" color-interpolation-filters="sRGB" filterUnits="userSpaceOnUse"><feFlood flood-opacity="0" result="BackgroundImageFix"/><feBlend in="SourceGraphic" in2="BackgroundImageFix" result="shape"/><feColorMatrix in="SourceAlpha" result="hardAlpha" values="0 0 0 0 0 0 0 0 0 0 0 0 0 0 0 0 0 0 127 0"/><feOffset dy=".5"/><feGaussianBlur stdDeviation=".5"/><feComposite in2="hardAlpha" k2="-1" k3="1" operator="arithmetic"/><feColorMatrix values="0 0 0 0 1 0 0 0 0 0.654902 0 0 0 0 0.337255 0 0 0 1 0"/><feBlend in2="shape" result="effect1_innerShadow_3930_2119"/><feColorMatrix in="SourceAlpha" result="hardAlpha" values="0 0 0 0 0 0 0 0 0 0 0 0 0 0 0 0 0 0 127 0"/><feOffset dx=".25" dy=".25"/><feGaussianBlur stdDeviation=".175"/><feComposite in2="hardAlpha" k2="-1" k3="1" operator="arithmetic"/><feColorMatrix values="0 0 0 0 0.898039 0 0 0 0 0.47451 0 0 0 0 0.0235294 0 0 0 1 0"/><feBlend in2="effect1_innerShadow_3930_2119" result="effect2_innerShadow_3930_2119"/></filter><filter id="filter17_f_3930_2119" width="3.906" height="1.543" x="9.301" y="12.074" color-interpolation-filters="sRGB" filterUnits="userSpaceOnUse"><feFlood flood-opacity="0" result="BackgroundImageFix"/><feBlend in="SourceGraphic" in2="BackgroundImageFix" result="shape"/><feGaussianBlur result="effect1_foregroundBlur_3930_2119" stdDeviation=".125"/></filter><filter id="filter18_f_3930_2119" width="3.906" height="1.543" x="19.192" y="12.027" color-interpolation-filters="sRGB" filterUnits="userSpaceOnUse"><feFlood flood-opacity="0" result="BackgroundImageFix"/><feBlend in="SourceGraphic" in2="BackgroundImageFix" result="shape"/><feGaussianBlur result="effect1_foregroundBlur_3930_2119" stdDeviation=".125"/></filter><linearGradient id="paint2_linear_3930_2119" x1="26.38" x2="7.179" y1="7.867" y2="7.867" gradientUnits="userSpaceOnUse"><stop stop-color="#FFE235"/><stop offset="1" stop-color="#D29935"/></linearGradient><linearGradient id="paint9_linear_3930_2119" x1="8.551" x2="4.477" y1="19.45" y2="16.34" gradientUnits="userSpaceOnUse"><stop stop-color="#CC7A35"/><stop offset="1" stop-color="#DF9227"/></linearGradient><linearGradient id="paint10_linear_3930_2119" x1="27.832" x2="28.53" y1="15.289" y2="19.681" gradientUnits="userSpaceOnUse"><stop stop-color="#FFE343"/><stop offset="1" stop-color="#FFC136"/></linearGradient><linearGradient id="paint15_linear_3930_2119" x1="19.77" x2="6.614" y1="19.07" y2="19.07" gradientUnits="userSpaceOnUse"><stop stop-color="#FFDE35"/><stop offset="1" stop-color="#EE9C29"/></linearGradient><linearGradient id="paint16_linear_3930_2119" x1="15.582" x2="15.582" y1="29.195" y2="21.383" gradientUnits="userSpaceOnUse"><stop stop-color="#FF9F31"/><stop offset="1" stop-color="#FF9F31" stop-opacity="0"/></linearGradient><linearGradient id="paint21_linear_3930_2119" x1="16.332" x2="16.332" y1="25.554" y2="23.554" gradientUnits="userSpaceOnUse"><stop stop-color="#FFB92C"/><stop offset="1" stop-color="#FFB92C" stop-opacity="0"/></linearGradient><linearGradient id="paint31_linear_3930_2119" x1="16.222" x2="16.222" y1="21.89" y2="20.611" gradientUnits="userSpaceOnUse"><stop stop-color="#F99C38"/><stop offset="1" stop-color="#F99C38" stop-opacity="0"/></linearGradient><linearGradient id="paint32_linear_3930_2119" x1="14.265" x2="15.984" y1="20.423" y2="20.548" gradientUnits="userSpaceOnUse"><stop stop-color="#F99C38"/><stop offset="1" stop-color="#F99C38" stop-opacity="0"/></linearGradient><linearGradient id="paint33_linear_3930_2119" x1="16.359" x2="16.359" y1="16.855" y2="18.447" gradientUnits="userSpaceOnUse"><stop stop-color="#F8CC37"/><stop offset="1" stop-color="#F8CC37" stop-opacity="0"/></linearGradient><linearGradient id="paint36_linear_3930_2119" x1="21.866" x2="21.281" y1="16.872" y2="17.233" gradientUnits="userSpaceOnUse"><stop stop-color="#B4948D"/><stop offset="1" stop-color="#B4948D" stop-opacity="0"/></linearGradient><linearGradient id="paint38_linear_3930_2119" x1="13.49" x2="12.895" y1="16.873" y2="17.24" gradientUnits="userSpaceOnUse"><stop stop-color="#B4948D"/><stop offset="1" stop-color="#B4948D" stop-opacity="0"/></linearGradient><linearGradient id="paint40_linear_3930_2119" x1="11.493" x2="25.582" y1="27.416" y2="13.906" gradientUnits="userSpaceOnUse"><stop stop-color="#EA7544"/><stop offset="1" stop-color="#FFA85A"/></linearGradient></defs></svg>