<svg xmlns="http://www.w3.org/2000/svg" width="32" height="32" fill="none" viewBox="0 0 32 32"><g filter="url(#filter0_i_3987_20107)"><path fill="url(#paint0_linear_3987_20107)" d="M24.954 21.308a3.152 3.152 0 1 0 0-6.304 3.152 3.152 0 0 0 0 6.304Z"/><path fill="url(#paint1_radial_3987_20107)" d="M24.954 21.308a3.152 3.152 0 1 0 0-6.304 3.152 3.152 0 0 0 0 6.304Z"/></g><g filter="url(#filter1_f_3987_20107)"><path fill="#D79E81" d="M24.954 20.151a1.995 1.995 0 1 0 0-3.99 1.995 1.995 0 0 0 0 3.99Z"/><path fill="url(#paint2_radial_3987_20107)" d="M24.954 20.151a1.995 1.995 0 1 0 0-3.99 1.995 1.995 0 0 0 0 3.99Z"/><path fill="url(#paint3_radial_3987_20107)" d="M24.954 20.151a1.995 1.995 0 1 0 0-3.99 1.995 1.995 0 0 0 0 3.99Z"/></g><g filter="url(#filter2_i_3987_20107)"><path fill="url(#paint4_radial_3987_20107)" d="M7.218 21.308a3.152 3.152 0 1 0 0-6.304 3.152 3.152 0 0 0 0 6.304Z"/></g><g filter="url(#filter3_i_3987_20107)"><path fill="url(#paint5_radial_3987_20107)" d="M7.218 21.308a3.152 3.152 0 1 0 0-6.304 3.152 3.152 0 0 0 0 6.304Z"/></g><g filter="url(#filter4_f_3987_20107)"><path fill="url(#paint6_linear_3987_20107)" d="M7.218 20.151a1.995 1.995 0 1 0 0-3.99 1.995 1.995 0 0 0 0 3.99Z"/></g><g filter="url(#filter5_ii_3987_20107)"><path fill="url(#paint7_radial_3987_20107)" d="M15.27 4.567c-5.2 0-9.2 4.4-8.9 9.5l.8 10.4c.3 3.3 2.8 5.6 6 5.6h6c3.1 0 5.7-2.3 6-5.6l.7-10.4c.4-5.2-3.7-9.5-8.9-9.5h-1.7Z"/><path fill="url(#paint8_radial_3987_20107)" d="M15.27 4.567c-5.2 0-9.2 4.4-8.9 9.5l.8 10.4c.3 3.3 2.8 5.6 6 5.6h6c3.1 0 5.7-2.3 6-5.6l.7-10.4c.4-5.2-3.7-9.5-8.9-9.5h-1.7Z"/><path fill="url(#paint9_radial_3987_20107)" d="M15.27 4.567c-5.2 0-9.2 4.4-8.9 9.5l.8 10.4c.3 3.3 2.8 5.6 6 5.6h6c3.1 0 5.7-2.3 6-5.6l.7-10.4c.4-5.2-3.7-9.5-8.9-9.5h-1.7Z"/><path fill="url(#paint10_radial_3987_20107)" d="M15.27 4.567c-5.2 0-9.2 4.4-8.9 9.5l.8 10.4c.3 3.3 2.8 5.6 6 5.6h6c3.1 0 5.7-2.3 6-5.6l.7-10.4c.4-5.2-3.7-9.5-8.9-9.5h-1.7Z"/><path fill="url(#paint11_radial_3987_20107)" d="M15.27 4.567c-5.2 0-9.2 4.4-8.9 9.5l.8 10.4c.3 3.3 2.8 5.6 6 5.6h6c3.1 0 5.7-2.3 6-5.6l.7-10.4c.4-5.2-3.7-9.5-8.9-9.5h-1.7Z"/><path fill="url(#paint12_radial_3987_20107)" d="M15.27 4.567c-5.2 0-9.2 4.4-8.9 9.5l.8 10.4c.3 3.3 2.8 5.6 6 5.6h6c3.1 0 5.7-2.3 6-5.6l.7-10.4c.4-5.2-3.7-9.5-8.9-9.5h-1.7Z"/><path fill="url(#paint13_radial_3987_20107)" d="M15.27 4.567c-5.2 0-9.2 4.4-8.9 9.5l.8 10.4c.3 3.3 2.8 5.6 6 5.6h6c3.1 0 5.7-2.3 6-5.6l.7-10.4c.4-5.2-3.7-9.5-8.9-9.5h-1.7Z"/><path fill="url(#paint14_radial_3987_20107)" d="M15.27 4.567c-5.2 0-9.2 4.4-8.9 9.5l.8 10.4c.3 3.3 2.8 5.6 6 5.6h6c3.1 0 5.7-2.3 6-5.6l.7-10.4c.4-5.2-3.7-9.5-8.9-9.5h-1.7Z"/></g><path fill="url(#paint15_radial_3987_20107)" d="M15.27 4.567c-5.2 0-9.2 4.4-8.9 9.5l.8 10.4c.3 3.3 2.8 5.6 6 5.6h6c3.1 0 5.7-2.3 6-5.6l.7-10.4c.4-5.2-3.7-9.5-8.9-9.5h-1.7Z"/><g filter="url(#filter6_f_3987_20107)"><path fill="url(#paint16_linear_3987_20107)" d="m24.11 8.637-5.739 1.913a1.953 1.953 0 0 0 .877 3.788l5.706-.764-.844-4.937Z"/></g><g filter="url(#filter7_f_3987_20107)"><path fill="#C68378" d="m15.638 17.95-1.571 3.1c-.2.6.3 1.3.9 1.3h1.4c.7 0 1.1-.6.9-1.3l-.9-3.1c-.227-.654-.429-.7-.729 0Z"/></g><g filter="url(#filter8_f_3987_20107)"><path fill="#E4AC8F" d="m15.567 17.675-1 3.1c-.2.6.3 1.3.9 1.3h1.4c.7 0 1.1-.6.9-1.3l-.956-3.1c-.226-.655-.944-.7-1.244 0Z"/><path fill="url(#paint17_linear_3987_20107)" d="m15.567 17.675-1 3.1c-.2.6.3 1.3.9 1.3h1.4c.7 0 1.1-.6.9-1.3l-.956-3.1c-.226-.655-.944-.7-1.244 0Z"/><path fill="url(#paint18_linear_3987_20107)" d="m15.567 17.675-1 3.1c-.2.6.3 1.3.9 1.3h1.4c.7 0 1.1-.6.9-1.3l-.956-3.1c-.226-.655-.944-.7-1.244 0Z"/><path fill="url(#paint19_linear_3987_20107)" d="m15.567 17.675-1 3.1c-.2.6.3 1.3.9 1.3h1.4c.7 0 1.1-.6.9-1.3l-.956-3.1c-.226-.655-.944-.7-1.244 0Z"/></g><path fill="#7F7680" d="M8.356 11.615a2 2 0 1 0-3.245-1.26l.407 5.714c.04.563.508.99 1.072.99V13.54a1 1 0 0 1 .366-.773l1.403-1.15-.003-.002Z"/><path fill="url(#paint20_radial_3987_20107)" d="M8.356 11.615a2 2 0 1 0-3.245-1.26l.407 5.714c.04.563.508.99 1.072.99V13.54a1 1 0 0 1 .366-.773l1.403-1.15-.003-.002Z"/><path fill="url(#paint21_radial_3987_20107)" d="M8.356 11.615a2 2 0 1 0-3.245-1.26l.407 5.714c.04.563.508.99 1.072.99V13.54a1 1 0 0 1 .366-.773l1.403-1.15-.003-.002Z"/><g filter="url(#filter9_i_3987_20107)"><path fill="#9F9AA1" d="M23.904 11.615a2 2 0 1 1 3.245-1.26l-.408 5.714c-.04.563-.508.998-1.071.998V13.54a1 1 0 0 0-.366-.773l-1.403-1.15.003-.002Z"/><path fill="url(#paint22_radial_3987_20107)" d="M23.904 11.615a2 2 0 1 1 3.245-1.26l-.408 5.714c-.04.563-.508.998-1.071.998V13.54a1 1 0 0 0-.366-.773l-1.403-1.15.003-.002Z"/><path fill="url(#paint23_radial_3987_20107)" d="M23.904 11.615a2 2 0 1 1 3.245-1.26l-.408 5.714c-.04.563-.508.998-1.071.998V13.54a1 1 0 0 0-.366-.773l-1.403-1.15.003-.002Z"/><path fill="url(#paint24_radial_3987_20107)" d="M23.904 11.615a2 2 0 1 1 3.245-1.26l-.408 5.714c-.04.563-.508.998-1.071.998V13.54a1 1 0 0 0-.366-.773l-1.403-1.15.003-.002Z"/></g><path fill="#88024E" stroke="url(#paint25_linear_3987_20107)" stroke-width=".1" d="M13.61 23.243a.335.335 0 0 0-.4.07.305.305 0 0 0-.034.392 3.58 3.58 0 0 0 2.994 1.6 3.58 3.58 0 0 0 2.994-1.6.31.31 0 0 0-.034-.396.336.336 0 0 0-.4-.066 5.523 5.523 0 0 1-2.56.607c-.938 0-1.82-.221-2.56-.607Z"/><path fill="#E5A890" d="M18.11 18.85a.5.5 0 0 1 .706.04c.195.218.377.37.612.473.24.106.575.18 1.095.18a.5.5 0 0 1 0 1c-.612 0-1.094-.086-1.499-.265-.409-.18-.701-.44-.954-.721a.5.5 0 0 1 .04-.706Z"/><path fill="#C78D7D" d="M13.335 18.878a.5.5 0 0 1 .724.69l-.001.001-.002.002-.004.004-.011.012a1.775 1.775 0 0 1-.169.15 3.561 3.561 0 0 1-2.255.806.5.5 0 1 1 0-1 2.561 2.561 0 0 0 1.718-.665Z"/><rect width="6" height="1" x="13.17" y="7.21" fill="url(#paint26_linear_3987_20107)" rx=".5"/><rect width="10" height="1" x="11.126" y="9.59" fill="url(#paint27_linear_3987_20107)" rx=".5"/><path fill="#fff" d="M11.632 15.658a2.603 2.603 0 0 0-2.526 1.974.511.511 0 0 0 .499.635h4.16a.43.43 0 0 0 .423-.507 2.612 2.612 0 0 0-2.556-2.103Z"/><path fill="url(#paint28_radial_3987_20107)" d="M12.018 16.164a1.664 1.664 0 0 0-1.604 2.103h3.215c.037-.144.06-.288.06-.439a1.675 1.675 0 0 0-1.671-1.664Z"/><path fill="#000" d="M12.97 17.828a.95.95 0 0 0-.952-.953.95.95 0 0 0-.953.953c0 .16.037.31.106.439h1.686a.945.945 0 0 0 .114-.439Z"/><g filter="url(#filter10_f_3987_20107)"><path fill="url(#paint29_linear_3987_20107)" d="M13.538 17.633c0-.538-.437-.896-.556-1.005l-.537.52.33.674.763-.19Z"/></g><g filter="url(#filter11_f_3987_20107)" transform="rotate(-27.914 11.516 16.875)"><ellipse cx="11.516" cy="16.875" fill="#C7A7A3" fill-opacity=".9" rx=".726" ry=".368"/><ellipse cx="11.516" cy="16.875" fill="url(#paint30_radial_3987_20107)" rx=".726" ry=".368"/></g><path fill="#fff" d="M20.547 15.658c1.218 0 2.247.839 2.526 1.973a.511.511 0 0 1-.499.636h-4.16a.43.43 0 0 1-.423-.507 2.606 2.606 0 0 1 2.556-2.103Z"/><path fill="url(#paint31_radial_3987_20107)" d="M20.162 16.164a1.664 1.664 0 0 1 1.603 2.103h-3.214a1.706 1.706 0 0 1-.06-.439 1.67 1.67 0 0 1 1.67-1.664Z"/><path fill="#000" d="M19.209 17.828c0-.53.423-.953.953-.953s.953.424.953.953a.94.94 0 0 1-.106.439h-1.687a.862.862 0 0 1-.113-.439Z"/><g filter="url(#filter12_f_3987_20107)"><path fill="#C7A7A3" d="M20.04 16.516c.118.159-.13.352-.412.562-.282.211-.49.36-.609.2-.119-.158.014-.457.296-.668.281-.21.606-.253.724-.094Z"/><path fill="url(#paint32_radial_3987_20107)" d="M20.04 16.516c.118.159-.13.352-.412.562-.282.211-.49.36-.609.2-.119-.158.014-.457.296-.668.281-.21.606-.253.724-.094Z"/></g><g filter="url(#filter13_f_3987_20107)"><path fill="url(#paint33_linear_3987_20107)" d="M21.644 17.609a1.568 1.568 0 0 0-.432-.863l-.484.532.218.426.698-.095Z"/></g><g filter="url(#filter14_i_3987_20107)"><path stroke="#8A8A8A" stroke-linecap="round" stroke-width="1.75" d="M19.389 13.067c.71-.094 2.086-.078 3.164.812"/></g><g filter="url(#filter15_f_3987_20107)"><path stroke="url(#paint34_linear_3987_20107)" stroke-linecap="round" stroke-width=".4" d="M19.389 12.762c.883-.07 2.195.04 3.258.844"/></g><g filter="url(#filter16_i_3987_20107)"><path stroke="#8A8A8A" stroke-linecap="round" stroke-width="1.75" d="M12.951 13.067c-.71-.094-2.086-.078-3.164.812"/></g><g filter="url(#filter17_f_3987_20107)"><path stroke="url(#paint35_linear_3987_20107)" stroke-linecap="round" stroke-width=".4" d="M12.951 12.762c-.883-.07-2.195.04-3.258.844"/></g><defs><radialGradient id="paint1_radial_3987_20107" cx="0" cy="0" r="1" gradientTransform="rotate(-36.06 39.95 -30.582) scale(1.93052 2.20343)" gradientUnits="userSpaceOnUse"><stop offset=".543" stop-color="#E3AB88"/><stop offset="1" stop-color="#E3AB88" stop-opacity="0"/></radialGradient><radialGradient id="paint2_radial_3987_20107" cx="0" cy="0" r="1" gradientTransform="matrix(1.64694 -3.0292 1.773 .96396 24.87 19.803)" gradientUnits="userSpaceOnUse"><stop offset=".69" stop-color="#D79A76" stop-opacity="0"/><stop offset="1" stop-color="#D79A76"/></radialGradient><radialGradient id="paint3_radial_3987_20107" cx="0" cy="0" r="1" gradientTransform="matrix(.51997 .5147 -.66351 .67031 24.954 18.156)" gradientUnits="userSpaceOnUse"><stop stop-color="#CB8E6D"/><stop offset="1" stop-color="#CB8E6D" stop-opacity="0"/></radialGradient><radialGradient id="paint4_radial_3987_20107" cx="0" cy="0" r="1" gradientTransform="matrix(3.31277 0 0 5.79738 4.067 18.156)" gradientUnits="userSpaceOnUse"><stop offset=".351" stop-color="#865D5F"/><stop offset="1" stop-color="#76594A"/></radialGradient><radialGradient id="paint5_radial_3987_20107" cx="0" cy="0" r="1" gradientTransform="matrix(3.31277 0 0 5.79738 4.067 18.156)" gradientUnits="userSpaceOnUse"><stop offset=".351" stop-color="#C28775"/><stop offset="1" stop-color="#BA7867"/></radialGradient><radialGradient id="paint7_radial_3987_20107" cx="0" cy="0" r="1" gradientTransform="rotate(152.026 9.325 10.324) scale(17.0552 31.3253)" gradientUnits="userSpaceOnUse"><stop offset=".15" stop-color="#FAC39E"/><stop offset=".84" stop-color="#C68E7C"/></radialGradient><radialGradient id="paint8_radial_3987_20107" cx="0" cy="0" r="1" gradientTransform="rotate(158.66 12.358 6.796) scale(9.9616 12.7935)" gradientUnits="userSpaceOnUse"><stop stop-color="#FBCA9F"/><stop offset="1" stop-color="#FBCA9F" stop-opacity="0"/></radialGradient><radialGradient id="paint9_radial_3987_20107" cx="0" cy="0" r="1" gradientTransform="matrix(0 -2.625 3.09375 0 20.935 15.848)" gradientUnits="userSpaceOnUse"><stop stop-color="#E1A18C"/><stop offset="1" stop-color="#E1A18C" stop-opacity="0"/></radialGradient><radialGradient id="paint10_radial_3987_20107" cx="0" cy="0" r="1" gradientTransform="rotate(-90 13.94 2.19) scale(3.3125)" gradientUnits="userSpaceOnUse"><stop offset=".172" stop-color="#C0827A"/><stop offset="1" stop-color="#C0827A" stop-opacity="0"/></radialGradient><radialGradient id="paint11_radial_3987_20107" cx="0" cy="0" r="1" gradientTransform="matrix(-2.35307 -1.63196 1.28997 -1.85996 24.971 10.414)" gradientUnits="userSpaceOnUse"><stop offset=".584" stop-color="#D59E71"/><stop offset="1" stop-color="#D59E71" stop-opacity="0"/></radialGradient><radialGradient id="paint12_radial_3987_20107" cx="0" cy="0" r="1" gradientTransform="rotate(127.136 .692 7.037) scale(2.8667 2.49422)" gradientUnits="userSpaceOnUse"><stop offset=".476" stop-color="#AF7861"/><stop offset="1" stop-color="#AF7861" stop-opacity="0"/></radialGradient><radialGradient id="paint13_radial_3987_20107" cx="0" cy="0" r="1" gradientTransform="matrix(0 1.75 -4.63513 0 17.688 4.192)" gradientUnits="userSpaceOnUse"><stop stop-color="#DFB48E"/><stop offset="1" stop-color="#DFB48E" stop-opacity="0"/></radialGradient><radialGradient id="paint14_radial_3987_20107" cx="0" cy="0" r="1" gradientTransform="matrix(3.97576 4.25652 -7.55572 7.05734 9.467 6.299)" gradientUnits="userSpaceOnUse"><stop stop-color="#C29778"/><stop offset="1" stop-color="#C29778" stop-opacity="0"/></radialGradient><radialGradient id="paint15_radial_3987_20107" cx="0" cy="0" r="1" gradientTransform="matrix(0 -5.8125 26.0906 0 16.125 30.067)" gradientUnits="userSpaceOnUse"><stop stop-color="#B46D8A"/><stop offset="1" stop-color="#C68A84" stop-opacity="0"/></radialGradient><radialGradient id="paint20_radial_3987_20107" cx="0" cy="0" r="1" gradientTransform="rotate(139.273 2.441 6.064) scale(4.16691 7.99724)" gradientUnits="userSpaceOnUse"><stop stop-color="#BBB6B3"/><stop offset="1" stop-color="#807680" stop-opacity="0"/></radialGradient><radialGradient id="paint21_radial_3987_20107" cx="0" cy="0" r="1" gradientTransform="matrix(0 3.04688 -.9516 0 7.09 14.91)" gradientUnits="userSpaceOnUse"><stop offset=".237" stop-color="#735551"/><stop offset="1" stop-color="#735551" stop-opacity="0"/></radialGradient><radialGradient id="paint22_radial_3987_20107" cx="0" cy="0" r="1" gradientTransform="matrix(1.98438 -2.09375 .72837 .69032 24.622 13.348)" gradientUnits="userSpaceOnUse"><stop offset=".231" stop-color="#8F8286"/><stop offset="1" stop-color="#8F8286" stop-opacity="0"/></radialGradient><radialGradient id="paint23_radial_3987_20107" cx="0" cy="0" r="1" gradientTransform="matrix(-1.46875 2.625 -2.01353 -1.12662 25.904 9.192)" gradientUnits="userSpaceOnUse"><stop offset=".18" stop-color="#C0BFC0"/><stop offset="1" stop-color="#C0BFC0" stop-opacity="0"/></radialGradient><radialGradient id="paint24_radial_3987_20107" cx="0" cy="0" r="1" gradientTransform="matrix(.32886 -4.54687 .85753 .06202 26.841 16.442)" gradientUnits="userSpaceOnUse"><stop stop-color="#B1ADB0"/><stop offset="1" stop-color="#B1ADB0" stop-opacity="0"/></radialGradient><radialGradient id="paint28_radial_3987_20107" cx="0" cy="0" r="1" gradientTransform="matrix(0 1.68433 -1.993 0 12.021 17.675)" gradientUnits="userSpaceOnUse"><stop offset=".75" stop-color="#7F584B"/><stop offset="1" stop-color="#694B43"/><stop offset="1" stop-color="#804D49"/><stop offset="1" stop-color="#5D4139"/></radialGradient><radialGradient id="paint30_radial_3987_20107" cx="0" cy="0" r="1" gradientTransform="rotate(-90.897 14.34 3.077) scale(.92129 1.10743)" gradientUnits="userSpaceOnUse"><stop offset=".766" stop-color="#FFE6E2" stop-opacity="0"/><stop offset=".966" stop-color="#FFE6E2"/></radialGradient><radialGradient id="paint31_radial_3987_20107" cx="0" cy="0" r="1" gradientTransform="matrix(0 1.68424 -1.9929 0 20.158 17.676)" gradientUnits="userSpaceOnUse"><stop offset=".75" stop-color="#7F584B"/><stop offset="1" stop-color="#694B43"/><stop offset="1" stop-color="#804D49"/><stop offset="1" stop-color="#5D4139"/></radialGradient><radialGradient id="paint32_radial_3987_20107" cx="0" cy="0" r="1" gradientTransform="rotate(-127.812 14.08 3.773) scale(.70528 .97101)" gradientUnits="userSpaceOnUse"><stop offset=".766" stop-color="#FFE6E2" stop-opacity="0"/><stop offset=".966" stop-color="#FFE6E2"/></radialGradient><filter id="filter0_i_3987_20107" width="6.553" height="6.553" x="21.802" y="14.754" color-interpolation-filters="sRGB" filterUnits="userSpaceOnUse"><feFlood flood-opacity="0" result="BackgroundImageFix"/><feBlend in="SourceGraphic" in2="BackgroundImageFix" result="shape"/><feColorMatrix in="SourceAlpha" result="hardAlpha" values="0 0 0 0 0 0 0 0 0 0 0 0 0 0 0 0 0 0 127 0"/><feOffset dx=".25" dy="-.25"/><feGaussianBlur stdDeviation=".25"/><feComposite in2="hardAlpha" k2="-1" k3="1" operator="arithmetic"/><feColorMatrix values="0 0 0 0 0.768627 0 0 0 0 0.529412 0 0 0 0 0.505882 0 0 0 1 0"/><feBlend in2="shape" result="effect1_innerShadow_3987_20107"/></filter><filter id="filter1_f_3987_20107" width="4.991" height="4.991" x="22.459" y="15.661" color-interpolation-filters="sRGB" filterUnits="userSpaceOnUse"><feFlood flood-opacity="0" result="BackgroundImageFix"/><feBlend in="SourceGraphic" in2="BackgroundImageFix" result="shape"/><feGaussianBlur result="effect1_foregroundBlur_3987_20107" stdDeviation=".25"/></filter><filter id="filter2_i_3987_20107" width="6.503" height="6.303" x="4.067" y="15.004" color-interpolation-filters="sRGB" filterUnits="userSpaceOnUse"><feFlood flood-opacity="0" result="BackgroundImageFix"/><feBlend in="SourceGraphic" in2="BackgroundImageFix" result="shape"/><feColorMatrix in="SourceAlpha" result="hardAlpha" values="0 0 0 0 0 0 0 0 0 0 0 0 0 0 0 0 0 0 127 0"/><feOffset dx=".2"/><feGaussianBlur stdDeviation=".15"/><feComposite in2="hardAlpha" k2="-1" k3="1" operator="arithmetic"/><feColorMatrix values="0 0 0 0 0.619608 0 0 0 0 0.470588 0 0 0 0 0.407843 0 0 0 1 0"/><feBlend in2="shape" result="effect1_innerShadow_3987_20107"/></filter><filter id="filter3_i_3987_20107" width="6.503" height="6.303" x="4.067" y="15.004" color-interpolation-filters="sRGB" filterUnits="userSpaceOnUse"><feFlood flood-opacity="0" result="BackgroundImageFix"/><feBlend in="SourceGraphic" in2="BackgroundImageFix" result="shape"/><feColorMatrix in="SourceAlpha" result="hardAlpha" values="0 0 0 0 0 0 0 0 0 0 0 0 0 0 0 0 0 0 127 0"/><feOffset dx=".2"/><feGaussianBlur stdDeviation=".2"/><feComposite in2="hardAlpha" k2="-1" k3="1" operator="arithmetic"/><feColorMatrix values="0 0 0 0 0.866667 0 0 0 0 0.643137 0 0 0 0 0.533333 0 0 0 1 0"/><feBlend in2="shape" result="effect1_innerShadow_3987_20107"/></filter><filter id="filter4_f_3987_20107" width="4.991" height="4.991" x="4.723" y="15.661" color-interpolation-filters="sRGB" filterUnits="userSpaceOnUse"><feFlood flood-opacity="0" result="BackgroundImageFix"/><feBlend in="SourceGraphic" in2="BackgroundImageFix" result="shape"/><feGaussianBlur result="effect1_foregroundBlur_3987_20107" stdDeviation=".25"/></filter><filter id="filter5_ii_3987_20107" width="20.793" height="25.5" x="6.104" y="4.567" color-interpolation-filters="sRGB" filterUnits="userSpaceOnUse"><feFlood flood-opacity="0" result="BackgroundImageFix"/><feBlend in="SourceGraphic" in2="BackgroundImageFix" result="shape"/><feColorMatrix in="SourceAlpha" result="hardAlpha" values="0 0 0 0 0 0 0 0 0 0 0 0 0 0 0 0 0 0 127 0"/><feOffset dx="1"/><feGaussianBlur stdDeviation=".75"/><feComposite in2="hardAlpha" k2="-1" k3="1" operator="arithmetic"/><feColorMatrix values="0 0 0 0 0.835294 0 0 0 0 0.615686 0 0 0 0 0.509804 0 0 0 1 0"/><feBlend in2="shape" result="effect1_innerShadow_3987_20107"/><feColorMatrix in="SourceAlpha" result="hardAlpha" values="0 0 0 0 0 0 0 0 0 0 0 0 0 0 0 0 0 0 127 0"/><feOffset dx="-.25"/><feGaussianBlur stdDeviation=".375"/><feComposite in2="hardAlpha" k2="-1" k3="1" operator="arithmetic"/><feColorMatrix values="0 0 0 0 0.941176 0 0 0 0 0.745098 0 0 0 0 0.6 0 0 0 1 0"/><feBlend in2="effect1_innerShadow_3987_20107" result="effect2_innerShadow_3987_20107"/></filter><filter id="filter6_f_3987_20107" width="11.918" height="9.719" x="15.036" y="6.637" color-interpolation-filters="sRGB" filterUnits="userSpaceOnUse"><feFlood flood-opacity="0" result="BackgroundImageFix"/><feBlend in="SourceGraphic" in2="BackgroundImageFix" result="shape"/><feGaussianBlur result="effect1_foregroundBlur_3987_20107" stdDeviation="1"/></filter><filter id="filter7_f_3987_20107" width="4.796" height="6.408" x="13.272" y="16.693" color-interpolation-filters="sRGB" filterUnits="userSpaceOnUse"><feFlood flood-opacity="0" result="BackgroundImageFix"/><feBlend in="SourceGraphic" in2="BackgroundImageFix" result="shape"/><feGaussianBlur result="effect1_foregroundBlur_3987_20107" stdDeviation=".375"/></filter><filter id="filter8_f_3987_20107" width="3.796" height="5.408" x="14.272" y="16.917" color-interpolation-filters="sRGB" filterUnits="userSpaceOnUse"><feFlood flood-opacity="0" result="BackgroundImageFix"/><feBlend in="SourceGraphic" in2="BackgroundImageFix" result="shape"/><feGaussianBlur result="effect1_foregroundBlur_3987_20107" stdDeviation=".125"/></filter><filter id="filter9_i_3987_20107" width="4.3" height="9.2" x="23.17" y="7.867" color-interpolation-filters="sRGB" filterUnits="userSpaceOnUse"><feFlood flood-opacity="0" result="BackgroundImageFix"/><feBlend in="SourceGraphic" in2="BackgroundImageFix" result="shape"/><feColorMatrix in="SourceAlpha" result="hardAlpha" values="0 0 0 0 0 0 0 0 0 0 0 0 0 0 0 0 0 0 127 0"/><feOffset dx=".3" dy="-.2"/><feGaussianBlur stdDeviation=".25"/><feComposite in2="hardAlpha" k2="-1" k3="1" operator="arithmetic"/><feColorMatrix values="0 0 0 0 0.580392 0 0 0 0 0.568627 0 0 0 0 0.556863 0 0 0 1 0"/><feBlend in2="shape" result="effect1_innerShadow_3987_20107"/></filter><filter id="filter10_f_3987_20107" width="1.493" height="1.594" x="12.245" y="16.428" color-interpolation-filters="sRGB" filterUnits="userSpaceOnUse"><feFlood flood-opacity="0" result="BackgroundImageFix"/><feBlend in="SourceGraphic" in2="BackgroundImageFix" result="shape"/><feGaussianBlur result="effect1_foregroundBlur_3987_20107" stdDeviation=".1"/></filter><filter id="filter11_f_3987_20107" width="1.529" height="1.141" x="10.751" y="16.305" color-interpolation-filters="sRGB" filterUnits="userSpaceOnUse"><feFlood flood-opacity="0" result="BackgroundImageFix"/><feBlend in="SourceGraphic" in2="BackgroundImageFix" result="shape"/><feGaussianBlur result="effect1_foregroundBlur_3987_20107" stdDeviation=".05"/></filter><filter id="filter12_f_3987_20107" width="1.294" height="1.125" x="18.875" y="16.32" color-interpolation-filters="sRGB" filterUnits="userSpaceOnUse"><feFlood flood-opacity="0" result="BackgroundImageFix"/><feBlend in="SourceGraphic" in2="BackgroundImageFix" result="shape"/><feGaussianBlur result="effect1_foregroundBlur_3987_20107" stdDeviation=".05"/></filter><filter id="filter13_f_3987_20107" width="1.316" height="1.357" x="20.528" y="16.546" color-interpolation-filters="sRGB" filterUnits="userSpaceOnUse"><feFlood flood-opacity="0" result="BackgroundImageFix"/><feBlend in="SourceGraphic" in2="BackgroundImageFix" result="shape"/><feGaussianBlur result="effect1_foregroundBlur_3987_20107" stdDeviation=".1"/></filter><filter id="filter14_i_3987_20107" width="5.214" height="3" x="18.514" y="11.754" color-interpolation-filters="sRGB" filterUnits="userSpaceOnUse"><feFlood flood-opacity="0" result="BackgroundImageFix"/><feBlend in="SourceGraphic" in2="BackgroundImageFix" result="shape"/><feColorMatrix in="SourceAlpha" result="hardAlpha" values="0 0 0 0 0 0 0 0 0 0 0 0 0 0 0 0 0 0 127 0"/><feOffset dx=".3" dy="-.4"/><feGaussianBlur stdDeviation=".3"/><feComposite in2="hardAlpha" k2="-1" k3="1" operator="arithmetic"/><feColorMatrix values="0 0 0 0 0.345098 0 0 0 0 0.305882 0 0 0 0 0.368627 0 0 0 1 0"/><feBlend in2="shape" result="effect1_innerShadow_3987_20107"/></filter><filter id="filter15_f_3987_20107" width="4.458" height="2.061" x="18.789" y="12.144" color-interpolation-filters="sRGB" filterUnits="userSpaceOnUse"><feFlood flood-opacity="0" result="BackgroundImageFix"/><feBlend in="SourceGraphic" in2="BackgroundImageFix" result="shape"/><feGaussianBlur result="effect1_foregroundBlur_3987_20107" stdDeviation=".2"/></filter><filter id="filter16_i_3987_20107" width="5.214" height="3" x="8.912" y="11.754" color-interpolation-filters="sRGB" filterUnits="userSpaceOnUse"><feFlood flood-opacity="0" result="BackgroundImageFix"/><feBlend in="SourceGraphic" in2="BackgroundImageFix" result="shape"/><feColorMatrix in="SourceAlpha" result="hardAlpha" values="0 0 0 0 0 0 0 0 0 0 0 0 0 0 0 0 0 0 127 0"/><feOffset dx=".3" dy="-.4"/><feGaussianBlur stdDeviation=".3"/><feComposite in2="hardAlpha" k2="-1" k3="1" operator="arithmetic"/><feColorMatrix values="0 0 0 0 0.345098 0 0 0 0 0.305882 0 0 0 0 0.368627 0 0 0 1 0"/><feBlend in2="shape" result="effect1_innerShadow_3987_20107"/></filter><filter id="filter17_f_3987_20107" width="4.458" height="2.061" x="9.093" y="12.144" color-interpolation-filters="sRGB" filterUnits="userSpaceOnUse"><feFlood flood-opacity="0" result="BackgroundImageFix"/><feBlend in="SourceGraphic" in2="BackgroundImageFix" result="shape"/><feGaussianBlur result="effect1_foregroundBlur_3987_20107" stdDeviation=".2"/></filter><linearGradient id="paint0_linear_3987_20107" x1="27.005" x2="25.459" y1="16.095" y2="20.883" gradientUnits="userSpaceOnUse"><stop stop-color="#F5C8A5"/><stop offset="1" stop-color="#DCA189"/></linearGradient><linearGradient id="paint6_linear_3987_20107" x1="7.218" x2="5.934" y1="18.715" y2="18.715" gradientUnits="userSpaceOnUse"><stop stop-color="#AF6F5D"/><stop offset="1" stop-color="#B87862"/></linearGradient><linearGradient id="paint16_linear_3987_20107" x1="15.727" x2="30.915" y1="14.286" y2="8.848" gradientUnits="userSpaceOnUse"><stop stop-color="#FCC7A6"/><stop offset="1" stop-color="#FCC7A6" stop-opacity="0"/></linearGradient><linearGradient id="paint17_linear_3987_20107" x1="14.652" x2="16.3" y1="20.126" y2="20.126" gradientUnits="userSpaceOnUse"><stop stop-color="#CB9173"/><stop offset="1" stop-color="#CB9173" stop-opacity="0"/></linearGradient><linearGradient id="paint18_linear_3987_20107" x1="17.818" x2="16.017" y1="20.716" y2="20.692" gradientUnits="userSpaceOnUse"><stop stop-color="#FEC8A4"/><stop offset="1" stop-color="#FEC8A4" stop-opacity="0"/></linearGradient><linearGradient id="paint19_linear_3987_20107" x1="16.512" x2="16.512" y1="22.075" y2="21.026" gradientUnits="userSpaceOnUse"><stop stop-color="#C98583"/><stop offset="1" stop-color="#C98583" stop-opacity="0"/></linearGradient><linearGradient id="paint25_linear_3987_20107" x1="14.236" x2="15.047" y1="25.016" y2="23.734" gradientUnits="userSpaceOnUse"><stop stop-color="#D79E8E"/><stop offset=".663" stop-color="#D79E8E" stop-opacity="0"/></linearGradient><linearGradient id="paint26_linear_3987_20107" x1="13.17" x2="17.938" y1="8.21" y2="8.21" gradientUnits="userSpaceOnUse"><stop stop-color="#C19479"/><stop offset="1" stop-color="#D3A485"/></linearGradient><linearGradient id="paint27_linear_3987_20107" x1="13.313" x2="19.844" y1="10.59" y2="10.59" gradientUnits="userSpaceOnUse"><stop stop-color="#BE8F77"/><stop offset="1" stop-color="#D7A78C"/></linearGradient><linearGradient id="paint29_linear_3987_20107" x1="13.408" x2="12.823" y1="17.154" y2="17.515" gradientUnits="userSpaceOnUse"><stop stop-color="#B4948D"/><stop offset="1" stop-color="#B4948D" stop-opacity="0"/></linearGradient><linearGradient id="paint33_linear_3987_20107" x1="21.608" x2="21.023" y1="17.154" y2="17.515" gradientUnits="userSpaceOnUse"><stop stop-color="#B4948D"/><stop offset="1" stop-color="#B4948D" stop-opacity="0"/></linearGradient><linearGradient id="paint34_linear_3987_20107" x1="22.646" x2="19.154" y1="13.606" y2="13.606" gradientUnits="userSpaceOnUse"><stop stop-color="#A8A7A9"/><stop offset="1" stop-color="#A8A7A9" stop-opacity="0"/></linearGradient><linearGradient id="paint35_linear_3987_20107" x1="13.147" x2="9.693" y1="12.744" y2="14.088" gradientUnits="userSpaceOnUse"><stop stop-color="#A8A7A9"/><stop offset="1" stop-color="#A8A7A9" stop-opacity="0"/></linearGradient></defs></svg>