<svg xmlns="http://www.w3.org/2000/svg" width="32" height="32" fill="none" viewBox="0 0 32 32"><path fill="url(#paint0_radial_28327_4022)" d="M17.032 24.82h-3l.95 4.43c.03.15.16.25.31.25h2.36c.2 0 .35-.19.31-.38l-.93-4.3Z"/><path fill="url(#paint1_linear_28327_4022)" d="M17.032 24.82h-3l.95 4.43c.03.15.16.25.31.25h2.36c.2 0 .35-.19.31-.38l-.93-4.3Z"/><path fill="url(#paint2_linear_28327_4022)" d="M17.032 24.82h-3l.95 4.43c.03.15.16.25.31.25h2.36c.2 0 .35-.19.31-.38l-.93-4.3Z"/><path fill="url(#paint3_linear_28327_4022)" d="M17.032 24.82h-3l.95 4.43c.03.15.16.25.31.25h2.36c.2 0 .35-.19.31-.38l-.93-4.3Z"/><path fill="url(#paint4_radial_28327_4022)" d="M20.952 24.82h3l-.94 4.42c-.03.15-.16.25-.31.25h-2.36a.32.32 0 0 1-.31-.38l.92-4.29Z"/><path fill="url(#paint5_linear_28327_4022)" d="M20.952 24.82h3l-.94 4.42c-.03.15-.16.25-.31.25h-2.36a.32.32 0 0 1-.31-.38l.92-4.29Z"/><path fill="url(#paint6_linear_28327_4022)" d="M20.952 24.82h3l-.94 4.42c-.03.15-.16.25-.31.25h-2.36a.32.32 0 0 1-.31-.38l.92-4.29Z"/><path fill="url(#paint7_linear_28327_4022)" d="M20.952 24.82h3l-.94 4.42c-.03.15-.16.25-.31.25h-2.36a.32.32 0 0 1-.31-.38l.92-4.29Z"/><path fill="#DFA27A" d="M20.042 9.44c-1.58 0-3.06.43-4.32 1.17l-8.04 4.46c-1.04.59-1.68 1.7-1.68 2.89v.95c0 .56-.32 1.08-.82 1.33l-2.68 1.3c-.34.17-.49.54-.49.91 0 1.5 1.11 4.04 4.85 4.04h2.85l-1.16 2.54c-.09.22.07.46.31.46h2.6c.13 0 .25-.08.31-.2l1.27-2.8h11.68c.15 0 .28.12.28.28v2.39c0 .18.15.33.33.33h2.33c.18 0 .33-.15.33-.33v-4.5l.62-6.66c0-4.73-3.84-8.56-8.57-8.56Z"/><path fill="url(#paint8_linear_28327_4022)" d="M20.042 9.44c-1.58 0-3.06.43-4.32 1.17l-8.04 4.46c-1.04.59-1.68 1.7-1.68 2.89v.95c0 .56-.32 1.08-.82 1.33l-2.68 1.3c-.34.17-.49.54-.49.91 0 1.5 1.11 4.04 4.85 4.04h2.85l-1.16 2.54c-.09.22.07.46.31.46h2.6c.13 0 .25-.08.31-.2l1.27-2.8h11.68c.15 0 .28.12.28.28v2.39c0 .18.15.33.33.33h2.33c.18 0 .33-.15.33-.33v-4.5l.62-6.66c0-4.73-3.84-8.56-8.57-8.56Z"/><path fill="url(#paint9_radial_28327_4022)" d="M20.042 9.44c-1.58 0-3.06.43-4.32 1.17l-8.04 4.46c-1.04.59-1.68 1.7-1.68 2.89v.95c0 .56-.32 1.08-.82 1.33l-2.68 1.3c-.34.17-.49.54-.49.91 0 1.5 1.11 4.04 4.85 4.04h2.85l-1.16 2.54c-.09.22.07.46.31.46h2.6c.13 0 .25-.08.31-.2l1.27-2.8h11.68c.15 0 .28.12.28.28v2.39c0 .18.15.33.33.33h2.33c.18 0 .33-.15.33-.33v-4.5l.62-6.66c0-4.73-3.84-8.56-8.57-8.56Z"/><path fill="url(#paint10_radial_28327_4022)" d="M20.042 9.44c-1.58 0-3.06.43-4.32 1.17l-8.04 4.46c-1.04.59-1.68 1.7-1.68 2.89v.95c0 .56-.32 1.08-.82 1.33l-2.68 1.3c-.34.17-.49.54-.49.91 0 1.5 1.11 4.04 4.85 4.04h2.85l-1.16 2.54c-.09.22.07.46.31.46h2.6c.13 0 .25-.08.31-.2l1.27-2.8h11.68c.15 0 .28.12.28.28v2.39c0 .18.15.33.33.33h2.33c.18 0 .33-.15.33-.33v-4.5l.62-6.66c0-4.73-3.84-8.56-8.57-8.56Z"/><path fill="url(#paint11_radial_28327_4022)" d="M20.042 9.44c-1.58 0-3.06.43-4.32 1.17l-8.04 4.46c-1.04.59-1.68 1.7-1.68 2.89v.95c0 .56-.32 1.08-.82 1.33l-2.68 1.3c-.34.17-.49.54-.49.91 0 1.5 1.11 4.04 4.85 4.04h2.85l-1.16 2.54c-.09.22.07.46.31.46h2.6c.13 0 .25-.08.31-.2l1.27-2.8h11.68c.15 0 .28.12.28.28v2.39c0 .18.15.33.33.33h2.33c.18 0 .33-.15.33-.33v-4.5l.62-6.66c0-4.73-3.84-8.56-8.57-8.56Z"/><path fill="url(#paint12_radial_28327_4022)" d="M20.042 9.44c-1.58 0-3.06.43-4.32 1.17l-8.04 4.46c-1.04.59-1.68 1.7-1.68 2.89v.95c0 .56-.32 1.08-.82 1.33l-2.68 1.3c-.34.17-.49.54-.49.91 0 1.5 1.11 4.04 4.85 4.04h2.85l-1.16 2.54c-.09.22.07.46.31.46h2.6c.13 0 .25-.08.31-.2l1.27-2.8h11.68c.15 0 .28.12.28.28v2.39c0 .18.15.33.33.33h2.33c.18 0 .33-.15.33-.33v-4.5l.62-6.66c0-4.73-3.84-8.56-8.57-8.56Z"/><path fill="url(#paint13_linear_28327_4022)" d="M20.042 9.44c-1.58 0-3.06.43-4.32 1.17l-8.04 4.46c-1.04.59-1.68 1.7-1.68 2.89v.95c0 .56-.32 1.08-.82 1.33l-2.68 1.3c-.34.17-.49.54-.49.91 0 1.5 1.11 4.04 4.85 4.04h2.85l-1.16 2.54c-.09.22.07.46.31.46h2.6c.13 0 .25-.08.31-.2l1.27-2.8h11.68c.15 0 .28.12.28.28v2.39c0 .18.15.33.33.33h2.33c.18 0 .33-.15.33-.33v-4.5l.62-6.66c0-4.73-3.84-8.56-8.57-8.56Z"/><path fill="url(#paint14_linear_28327_4022)" d="M20.042 9.44c-1.58 0-3.06.43-4.32 1.17l-8.04 4.46c-1.04.59-1.68 1.7-1.68 2.89v.95c0 .56-.32 1.08-.82 1.33l-2.68 1.3c-.34.17-.49.54-.49.91 0 1.5 1.11 4.04 4.85 4.04h2.85l-1.16 2.54c-.09.22.07.46.31.46h2.6c.13 0 .25-.08.31-.2l1.27-2.8h11.68c.15 0 .28.12.28.28v2.39c0 .18.15.33.33.33h2.33c.18 0 .33-.15.33-.33v-4.5l.62-6.66c0-4.73-3.84-8.56-8.57-8.56Z"/><path fill="url(#paint15_radial_28327_4022)" d="M20.042 9.44c-1.58 0-3.06.43-4.32 1.17l-8.04 4.46c-1.04.59-1.68 1.7-1.68 2.89v.95c0 .56-.32 1.08-.82 1.33l-2.68 1.3c-.34.17-.49.54-.49.91 0 1.5 1.11 4.04 4.85 4.04h2.85l-1.16 2.54c-.09.22.07.46.31.46h2.6c.13 0 .25-.08.31-.2l1.27-2.8h11.68c.15 0 .28.12.28.28v2.39c0 .18.15.33.33.33h2.33c.18 0 .33-.15.33-.33v-4.5l.62-6.66c0-4.73-3.84-8.56-8.57-8.56Z"/><path fill="url(#paint16_radial_28327_4022)" d="M20.042 9.44c-1.58 0-3.06.43-4.32 1.17l-8.04 4.46c-1.04.59-1.68 1.7-1.68 2.89v.95c0 .56-.32 1.08-.82 1.33l-2.68 1.3c-.34.17-.49.54-.49.91 0 1.5 1.11 4.04 4.85 4.04h2.85l-1.16 2.54c-.09.22.07.46.31.46h2.6c.13 0 .25-.08.31-.2l1.27-2.8h11.68c.15 0 .28.12.28.28v2.39c0 .18.15.33.33.33h2.33c.18 0 .33-.15.33-.33v-4.5l.62-6.66c0-4.73-3.84-8.56-8.57-8.56Z"/><path fill="url(#paint17_radial_28327_4022)" d="M20.042 9.44c-1.58 0-3.06.43-4.32 1.17l-8.04 4.46c-1.04.59-1.68 1.7-1.68 2.89v.95c0 .56-.32 1.08-.82 1.33l-2.68 1.3c-.34.17-.49.54-.49.91 0 1.5 1.11 4.04 4.85 4.04h2.85l-1.16 2.54c-.09.22.07.46.31.46h2.6c.13 0 .25-.08.31-.2l1.27-2.8h11.68c.15 0 .28.12.28.28v2.39c0 .18.15.33.33.33h2.33c.18 0 .33-.15.33-.33v-4.5l.62-6.66c0-4.73-3.84-8.56-8.57-8.56Z"/><path fill="url(#paint18_radial_28327_4022)" fill-opacity=".5" d="M20.042 9.44c-1.58 0-3.06.43-4.32 1.17l-8.04 4.46c-1.04.59-1.68 1.7-1.68 2.89v.95c0 .56-.32 1.08-.82 1.33l-2.68 1.3c-.34.17-.49.54-.49.91 0 1.5 1.11 4.04 4.85 4.04h2.85l-1.16 2.54c-.09.22.07.46.31.46h2.6c.13 0 .25-.08.31-.2l1.27-2.8h11.68c.15 0 .28.12.28.28v2.39c0 .18.15.33.33.33h2.33c.18 0 .33-.15.33-.33v-4.5l.62-6.66c0-4.73-3.84-8.56-8.57-8.56Z"/><path fill="url(#paint19_linear_28327_4022)" d="M10.758 24.19H6.442a5 5 0 0 1-3.535-1.465l-.787-.786a1.201 1.201 0 0 0-.108.51c0 1.5 1.11 4.04 4.85 4.04H9.71l1.047-2.3Z"/><path fill="url(#paint20_radial_28327_4022)" d="M10.758 24.19H6.442a5 5 0 0 1-3.535-1.465l-.787-.786a1.201 1.201 0 0 0-.108.51c0 1.5 1.11 4.04 4.85 4.04H9.71l1.047-2.3Z"/><path fill="url(#paint21_linear_28327_4022)" d="M10.758 24.19H6.442a5 5 0 0 1-3.535-1.465l-.787-.786a1.201 1.201 0 0 0-.108.51c0 1.5 1.11 4.04 4.85 4.04H9.71l1.047-2.3Z"/><path fill="url(#paint22_radial_28327_4022)" d="M10.758 24.19H6.442a5 5 0 0 1-3.535-1.465l-.787-.786a1.201 1.201 0 0 0-.108.51c0 1.5 1.11 4.04 4.85 4.04H9.71l1.047-2.3Z"/><path fill="url(#paint23_linear_28327_4022)" d="m25 26.738 2.137-4.83H15.168l-2.12 4.582h11.674a.28.28 0 0 1 .278.248Z"/><path fill="url(#paint24_radial_28327_4022)" d="m25 26.738 2.137-4.83H15.168l-2.12 4.582h11.674a.28.28 0 0 1 .278.248Z"/><path fill="url(#paint25_linear_28327_4022)" d="m25 26.738 2.137-4.83H15.168l-2.12 4.582h11.674a.28.28 0 0 1 .278.248Z"/><path fill="url(#paint26_linear_28327_4022)" d="m25 26.738 2.137-4.83H15.168l-2.12 4.582h11.674a.28.28 0 0 1 .278.248Z"/><path fill="url(#paint27_radial_28327_4022)" d="M2.972 23.324a.96.96 0 1 0 0-1.92.96.96 0 0 0 0 1.92Z"/><path fill="url(#paint28_radial_28327_4022)" d="M2.972 23.324a.96.96 0 1 0 0-1.92.96.96 0 0 0 0 1.92Z"/><path fill="url(#paint29_radial_28327_4022)" d="M12.622 19.04a1.07 1.07 0 1 0 0-2.14 1.07 1.07 0 0 0 0 2.14Z"/><path fill="url(#paint30_radial_28327_4022)" d="M12.622 19.04a1.07 1.07 0 1 0 0-2.14 1.07 1.07 0 0 0 0 2.14Z"/><g filter="url(#filter0_i_28327_4022)"><path fill="url(#paint31_radial_28327_4022)" d="M29.932 19.46c.11-.26.07-.56-.1-.79l-.4-.52c-.28-.37-.35-.87-.17-1.3l.6-1.49c.14-.34.03-.74-.27-.95l-1.05-.75c-.35-.25-.56-.65-.56-1.08v-1.66c0-.44-.36-.8-.8-.8h-1.86c-.4 0-.78-.18-1.03-.49l-1.15-1.4a.804.804 0 0 0-.94-.23l-1.73.76c-.26.11-.54.14-.81.08l-1.79-.38a.803.803 0 0 0-.76.25l-1.2 1.34c-.25.28-.61.45-.99.45h-1.78c-.3 0-.58.17-.71.44l-.5.97c-.23.45-.69.73-1.19.73h-.81a.82.82 0 0 0-.73.46l-.41.9c-.2.43-.74.77-1.21.77h-.78c-.44 0-.8.36-.8.8v2.4h3.87c.32 0 .6-.21.68-.52a2.13 2.13 0 0 1 2.16-1.61c1.08.05 1.97.92 2.03 2a2.14 2.14 0 0 1-1.51 2.17c-.02.01-.04.01-.05.02-.01 0-.02.01-.03.01-.03.01-.06.01-.09.02 1.17 2.64 3.8 4.44 6.94 4.44h8.01l1.53-1.17c.16-.12.28-.3.31-.5.02-.15 0-.31-.07-.46l-.31-.66c-.16-.34-.17-.73-.02-1.08l.48-1.17Z"/><path fill="url(#paint32_linear_28327_4022)" d="M29.932 19.46c.11-.26.07-.56-.1-.79l-.4-.52c-.28-.37-.35-.87-.17-1.3l.6-1.49c.14-.34.03-.74-.27-.95l-1.05-.75c-.35-.25-.56-.65-.56-1.08v-1.66c0-.44-.36-.8-.8-.8h-1.86c-.4 0-.78-.18-1.03-.49l-1.15-1.4a.804.804 0 0 0-.94-.23l-1.73.76c-.26.11-.54.14-.81.08l-1.79-.38a.803.803 0 0 0-.76.25l-1.2 1.34c-.25.28-.61.45-.99.45h-1.78c-.3 0-.58.17-.71.44l-.5.97c-.23.45-.69.73-1.19.73h-.81a.82.82 0 0 0-.73.46l-.41.9c-.2.43-.74.77-1.21.77h-.78c-.44 0-.8.36-.8.8v2.4h3.87c.32 0 .6-.21.68-.52a2.13 2.13 0 0 1 2.16-1.61c1.08.05 1.97.92 2.03 2a2.14 2.14 0 0 1-1.51 2.17c-.02.01-.04.01-.05.02-.01 0-.02.01-.03.01-.03.01-.06.01-.09.02 1.17 2.64 3.8 4.44 6.94 4.44h8.01l1.53-1.17c.16-.12.28-.3.31-.5.02-.15 0-.31-.07-.46l-.31-.66c-.16-.34-.17-.73-.02-1.08l.48-1.17Z"/><path fill="url(#paint33_radial_28327_4022)" d="M29.932 19.46c.11-.26.07-.56-.1-.79l-.4-.52c-.28-.37-.35-.87-.17-1.3l.6-1.49c.14-.34.03-.74-.27-.95l-1.05-.75c-.35-.25-.56-.65-.56-1.08v-1.66c0-.44-.36-.8-.8-.8h-1.86c-.4 0-.78-.18-1.03-.49l-1.15-1.4a.804.804 0 0 0-.94-.23l-1.73.76c-.26.11-.54.14-.81.08l-1.79-.38a.803.803 0 0 0-.76.25l-1.2 1.34c-.25.28-.61.45-.99.45h-1.78c-.3 0-.58.17-.71.44l-.5.97c-.23.45-.69.73-1.19.73h-.81a.82.82 0 0 0-.73.46l-.41.9c-.2.43-.74.77-1.21.77h-.78c-.44 0-.8.36-.8.8v2.4h3.87c.32 0 .6-.21.68-.52a2.13 2.13 0 0 1 2.16-1.61c1.08.05 1.97.92 2.03 2a2.14 2.14 0 0 1-1.51 2.17c-.02.01-.04.01-.05.02-.01 0-.02.01-.03.01-.03.01-.06.01-.09.02 1.17 2.64 3.8 4.44 6.94 4.44h8.01l1.53-1.17c.16-.12.28-.3.31-.5.02-.15 0-.31-.07-.46l-.31-.66c-.16-.34-.17-.73-.02-1.08l.48-1.17Z"/><path fill="url(#paint34_radial_28327_4022)" d="M29.932 19.46c.11-.26.07-.56-.1-.79l-.4-.52c-.28-.37-.35-.87-.17-1.3l.6-1.49c.14-.34.03-.74-.27-.95l-1.05-.75c-.35-.25-.56-.65-.56-1.08v-1.66c0-.44-.36-.8-.8-.8h-1.86c-.4 0-.78-.18-1.03-.49l-1.15-1.4a.804.804 0 0 0-.94-.23l-1.73.76c-.26.11-.54.14-.81.08l-1.79-.38a.803.803 0 0 0-.76.25l-1.2 1.34c-.25.28-.61.45-.99.45h-1.78c-.3 0-.58.17-.71.44l-.5.97c-.23.45-.69.73-1.19.73h-.81a.82.82 0 0 0-.73.46l-.41.9c-.2.43-.74.77-1.21.77h-.78c-.44 0-.8.36-.8.8v2.4h3.87c.32 0 .6-.21.68-.52a2.13 2.13 0 0 1 2.16-1.61c1.08.05 1.97.92 2.03 2a2.14 2.14 0 0 1-1.51 2.17c-.02.01-.04.01-.05.02-.01 0-.02.01-.03.01-.03.01-.06.01-.09.02 1.17 2.64 3.8 4.44 6.94 4.44h8.01l1.53-1.17c.16-.12.28-.3.31-.5.02-.15 0-.31-.07-.46l-.31-.66c-.16-.34-.17-.73-.02-1.08l.48-1.17Z"/><path fill="url(#paint35_radial_28327_4022)" d="M29.932 19.46c.11-.26.07-.56-.1-.79l-.4-.52c-.28-.37-.35-.87-.17-1.3l.6-1.49c.14-.34.03-.74-.27-.95l-1.05-.75c-.35-.25-.56-.65-.56-1.08v-1.66c0-.44-.36-.8-.8-.8h-1.86c-.4 0-.78-.18-1.03-.49l-1.15-1.4a.804.804 0 0 0-.94-.23l-1.73.76c-.26.11-.54.14-.81.08l-1.79-.38a.803.803 0 0 0-.76.25l-1.2 1.34c-.25.28-.61.45-.99.45h-1.78c-.3 0-.58.17-.71.44l-.5.97c-.23.45-.69.73-1.19.73h-.81a.82.82 0 0 0-.73.46l-.41.9c-.2.43-.74.77-1.21.77h-.78c-.44 0-.8.36-.8.8v2.4h3.87c.32 0 .6-.21.68-.52a2.13 2.13 0 0 1 2.16-1.61c1.08.05 1.97.92 2.03 2a2.14 2.14 0 0 1-1.51 2.17c-.02.01-.04.01-.05.02-.01 0-.02.01-.03.01-.03.01-.06.01-.09.02 1.17 2.64 3.8 4.44 6.94 4.44h8.01l1.53-1.17c.16-.12.28-.3.31-.5.02-.15 0-.31-.07-.46l-.31-.66c-.16-.34-.17-.73-.02-1.08l.48-1.17Z"/><path fill="url(#paint36_radial_28327_4022)" d="M29.932 19.46c.11-.26.07-.56-.1-.79l-.4-.52c-.28-.37-.35-.87-.17-1.3l.6-1.49c.14-.34.03-.74-.27-.95l-1.05-.75c-.35-.25-.56-.65-.56-1.08v-1.66c0-.44-.36-.8-.8-.8h-1.86c-.4 0-.78-.18-1.03-.49l-1.15-1.4a.804.804 0 0 0-.94-.23l-1.73.76c-.26.11-.54.14-.81.08l-1.79-.38a.803.803 0 0 0-.76.25l-1.2 1.34c-.25.28-.61.45-.99.45h-1.78c-.3 0-.58.17-.71.44l-.5.97c-.23.45-.69.73-1.19.73h-.81a.82.82 0 0 0-.73.46l-.41.9c-.2.43-.74.77-1.21.77h-.78c-.44 0-.8.36-.8.8v2.4h3.87c.32 0 .6-.21.68-.52a2.13 2.13 0 0 1 2.16-1.61c1.08.05 1.97.92 2.03 2a2.14 2.14 0 0 1-1.51 2.17c-.02.01-.04.01-.05.02-.01 0-.02.01-.03.01-.03.01-.06.01-.09.02 1.17 2.64 3.8 4.44 6.94 4.44h8.01l1.53-1.17c.16-.12.28-.3.31-.5.02-.15 0-.31-.07-.46l-.31-.66c-.16-.34-.17-.73-.02-1.08l.48-1.17Z"/><path fill="url(#paint37_radial_28327_4022)" d="M29.932 19.46c.11-.26.07-.56-.1-.79l-.4-.52c-.28-.37-.35-.87-.17-1.3l.6-1.49c.14-.34.03-.74-.27-.95l-1.05-.75c-.35-.25-.56-.65-.56-1.08v-1.66c0-.44-.36-.8-.8-.8h-1.86c-.4 0-.78-.18-1.03-.49l-1.15-1.4a.804.804 0 0 0-.94-.23l-1.73.76c-.26.11-.54.14-.81.08l-1.79-.38a.803.803 0 0 0-.76.25l-1.2 1.34c-.25.28-.61.45-.99.45h-1.78c-.3 0-.58.17-.71.44l-.5.97c-.23.45-.69.73-1.19.73h-.81a.82.82 0 0 0-.73.46l-.41.9c-.2.43-.74.77-1.21.77h-.78c-.44 0-.8.36-.8.8v2.4h3.87c.32 0 .6-.21.68-.52a2.13 2.13 0 0 1 2.16-1.61c1.08.05 1.97.92 2.03 2a2.14 2.14 0 0 1-1.51 2.17c-.02.01-.04.01-.05.02-.01 0-.02.01-.03.01-.03.01-.06.01-.09.02 1.17 2.64 3.8 4.44 6.94 4.44h8.01l1.53-1.17c.16-.12.28-.3.31-.5.02-.15 0-.31-.07-.46l-.31-.66c-.16-.34-.17-.73-.02-1.08l.48-1.17Z"/><path fill="url(#paint38_radial_28327_4022)" d="M29.932 19.46c.11-.26.07-.56-.1-.79l-.4-.52c-.28-.37-.35-.87-.17-1.3l.6-1.49c.14-.34.03-.74-.27-.95l-1.05-.75c-.35-.25-.56-.65-.56-1.08v-1.66c0-.44-.36-.8-.8-.8h-1.86c-.4 0-.78-.18-1.03-.49l-1.15-1.4a.804.804 0 0 0-.94-.23l-1.73.76c-.26.11-.54.14-.81.08l-1.79-.38a.803.803 0 0 0-.76.25l-1.2 1.34c-.25.28-.61.45-.99.45h-1.78c-.3 0-.58.17-.71.44l-.5.97c-.23.45-.69.73-1.19.73h-.81a.82.82 0 0 0-.73.46l-.41.9c-.2.43-.74.77-1.21.77h-.78c-.44 0-.8.36-.8.8v2.4h3.87c.32 0 .6-.21.68-.52a2.13 2.13 0 0 1 2.16-1.61c1.08.05 1.97.92 2.03 2a2.14 2.14 0 0 1-1.51 2.17c-.02.01-.04.01-.05.02-.01 0-.02.01-.03.01-.03.01-.06.01-.09.02 1.17 2.64 3.8 4.44 6.94 4.44h8.01l1.53-1.17c.16-.12.28-.3.31-.5.02-.15 0-.31-.07-.46l-.31-.66c-.16-.34-.17-.73-.02-1.08l.48-1.17Z"/><path fill="url(#paint39_radial_28327_4022)" d="M29.932 19.46c.11-.26.07-.56-.1-.79l-.4-.52c-.28-.37-.35-.87-.17-1.3l.6-1.49c.14-.34.03-.74-.27-.95l-1.05-.75c-.35-.25-.56-.65-.56-1.08v-1.66c0-.44-.36-.8-.8-.8h-1.86c-.4 0-.78-.18-1.03-.49l-1.15-1.4a.804.804 0 0 0-.94-.23l-1.73.76c-.26.11-.54.14-.81.08l-1.79-.38a.803.803 0 0 0-.76.25l-1.2 1.34c-.25.28-.61.45-.99.45h-1.78c-.3 0-.58.17-.71.44l-.5.97c-.23.45-.69.73-1.19.73h-.81a.82.82 0 0 0-.73.46l-.41.9c-.2.43-.74.77-1.21.77h-.78c-.44 0-.8.36-.8.8v2.4h3.87c.32 0 .6-.21.68-.52a2.13 2.13 0 0 1 2.16-1.61c1.08.05 1.97.92 2.03 2a2.14 2.14 0 0 1-1.51 2.17c-.02.01-.04.01-.05.02-.01 0-.02.01-.03.01-.03.01-.06.01-.09.02 1.17 2.64 3.8 4.44 6.94 4.44h8.01l1.53-1.17c.16-.12.28-.3.31-.5.02-.15 0-.31-.07-.46l-.31-.66c-.16-.34-.17-.73-.02-1.08l.48-1.17Z"/><path fill="url(#paint40_radial_28327_4022)" d="M29.932 19.46c.11-.26.07-.56-.1-.79l-.4-.52c-.28-.37-.35-.87-.17-1.3l.6-1.49c.14-.34.03-.74-.27-.95l-1.05-.75c-.35-.25-.56-.65-.56-1.08v-1.66c0-.44-.36-.8-.8-.8h-1.86c-.4 0-.78-.18-1.03-.49l-1.15-1.4a.804.804 0 0 0-.94-.23l-1.73.76c-.26.11-.54.14-.81.08l-1.79-.38a.803.803 0 0 0-.76.25l-1.2 1.34c-.25.28-.61.45-.99.45h-1.78c-.3 0-.58.17-.71.44l-.5.97c-.23.45-.69.73-1.19.73h-.81a.82.82 0 0 0-.73.46l-.41.9c-.2.43-.74.77-1.21.77h-.78c-.44 0-.8.36-.8.8v2.4h3.87c.32 0 .6-.21.68-.52a2.13 2.13 0 0 1 2.16-1.61c1.08.05 1.97.92 2.03 2a2.14 2.14 0 0 1-1.51 2.17c-.02.01-.04.01-.05.02-.01 0-.02.01-.03.01-.03.01-.06.01-.09.02 1.17 2.64 3.8 4.44 6.94 4.44h8.01l1.53-1.17c.16-.12.28-.3.31-.5.02-.15 0-.31-.07-.46l-.31-.66c-.16-.34-.17-.73-.02-1.08l.48-1.17Z"/><path fill="url(#paint41_radial_28327_4022)" d="M29.932 19.46c.11-.26.07-.56-.1-.79l-.4-.52c-.28-.37-.35-.87-.17-1.3l.6-1.49c.14-.34.03-.74-.27-.95l-1.05-.75c-.35-.25-.56-.65-.56-1.08v-1.66c0-.44-.36-.8-.8-.8h-1.86c-.4 0-.78-.18-1.03-.49l-1.15-1.4a.804.804 0 0 0-.94-.23l-1.73.76c-.26.11-.54.14-.81.08l-1.79-.38a.803.803 0 0 0-.76.25l-1.2 1.34c-.25.28-.61.45-.99.45h-1.78c-.3 0-.58.17-.71.44l-.5.97c-.23.45-.69.73-1.19.73h-.81a.82.82 0 0 0-.73.46l-.41.9c-.2.43-.74.77-1.21.77h-.78c-.44 0-.8.36-.8.8v2.4h3.87c.32 0 .6-.21.68-.52a2.13 2.13 0 0 1 2.16-1.61c1.08.05 1.97.92 2.03 2a2.14 2.14 0 0 1-1.51 2.17c-.02.01-.04.01-.05.02-.01 0-.02.01-.03.01-.03.01-.06.01-.09.02 1.17 2.64 3.8 4.44 6.94 4.44h8.01l1.53-1.17c.16-.12.28-.3.31-.5.02-.15 0-.31-.07-.46l-.31-.66c-.16-.34-.17-.73-.02-1.08l.48-1.17Z"/><path fill="url(#paint42_radial_28327_4022)" d="M29.932 19.46c.11-.26.07-.56-.1-.79l-.4-.52c-.28-.37-.35-.87-.17-1.3l.6-1.49c.14-.34.03-.74-.27-.95l-1.05-.75c-.35-.25-.56-.65-.56-1.08v-1.66c0-.44-.36-.8-.8-.8h-1.86c-.4 0-.78-.18-1.03-.49l-1.15-1.4a.804.804 0 0 0-.94-.23l-1.73.76c-.26.11-.54.14-.81.08l-1.79-.38a.803.803 0 0 0-.76.25l-1.2 1.34c-.25.28-.61.45-.99.45h-1.78c-.3 0-.58.17-.71.44l-.5.97c-.23.45-.69.73-1.19.73h-.81a.82.82 0 0 0-.73.46l-.41.9c-.2.43-.74.77-1.21.77h-.78c-.44 0-.8.36-.8.8v2.4h3.87c.32 0 .6-.21.68-.52a2.13 2.13 0 0 1 2.16-1.61c1.08.05 1.97.92 2.03 2a2.14 2.14 0 0 1-1.51 2.17c-.02.01-.04.01-.05.02-.01 0-.02.01-.03.01-.03.01-.06.01-.09.02 1.17 2.64 3.8 4.44 6.94 4.44h8.01l1.53-1.17c.16-.12.28-.3.31-.5.02-.15 0-.31-.07-.46l-.31-.66c-.16-.34-.17-.73-.02-1.08l.48-1.17Z"/><path fill="url(#paint43_radial_28327_4022)" d="M29.932 19.46c.11-.26.07-.56-.1-.79l-.4-.52c-.28-.37-.35-.87-.17-1.3l.6-1.49c.14-.34.03-.74-.27-.95l-1.05-.75c-.35-.25-.56-.65-.56-1.08v-1.66c0-.44-.36-.8-.8-.8h-1.86c-.4 0-.78-.18-1.03-.49l-1.15-1.4a.804.804 0 0 0-.94-.23l-1.73.76c-.26.11-.54.14-.81.08l-1.79-.38a.803.803 0 0 0-.76.25l-1.2 1.34c-.25.28-.61.45-.99.45h-1.78c-.3 0-.58.17-.71.44l-.5.97c-.23.45-.69.73-1.19.73h-.81a.82.82 0 0 0-.73.46l-.41.9c-.2.43-.74.77-1.21.77h-.78c-.44 0-.8.36-.8.8v2.4h3.87c.32 0 .6-.21.68-.52a2.13 2.13 0 0 1 2.16-1.61c1.08.05 1.97.92 2.03 2a2.14 2.14 0 0 1-1.51 2.17c-.02.01-.04.01-.05.02-.01 0-.02.01-.03.01-.03.01-.06.01-.09.02 1.17 2.64 3.8 4.44 6.94 4.44h8.01l1.53-1.17c.16-.12.28-.3.31-.5.02-.15 0-.31-.07-.46l-.31-.66c-.16-.34-.17-.73-.02-1.08l.48-1.17Z"/></g><rect width="1" height="2.004" x="7.307" y="21.518" fill="url(#paint44_linear_28327_4022)" rx=".5"/><rect width="1" height="2.004" x="7.307" y="21.518" fill="url(#paint45_linear_28327_4022)" rx=".5"/><rect width="1" height="2.004" x="7.307" y="21.518" fill="url(#paint46_radial_28327_4022)" rx=".5"/><g filter="url(#filter1_f_28327_4022)"><path fill="#FFCD9F" d="M26.699 25.065h.953v3.844h-.953z"/></g><g filter="url(#filter2_f_28327_4022)"><path fill="url(#paint47_linear_28327_4022)" d="M12.043 25.065h.953l-1.75 3.844h-.953l1.75-3.844Z"/></g><g filter="url(#filter3_f_28327_4022)"><path fill="url(#paint48_linear_28327_4022)" d="m17.887 8.909 1.078 3.015 2.125-1.937-3.203-1.078Z"/></g><g filter="url(#filter4_f_28327_4022)"><path fill="url(#paint49_linear_28327_4022)" d="m22.7 8.424-.595 2.938 2.907.078-2.313-3.016Z"/></g><g filter="url(#filter5_f_28327_4022)"><path fill="url(#paint50_linear_28327_4022)" d="m27.512 10.714-2.125 2.132 2.234 1.485-.109-3.617Z"/></g><g filter="url(#filter6_f_28327_4022)"><path fill="url(#paint51_linear_28327_4022)" d="m29.512 14.784-2.625 1.156-.282-.946 2.907-.21Z"/></g><g filter="url(#filter7_f_28327_4022)"><path fill="url(#paint52_linear_28327_4022)" d="m29.59 18.94-1.078-1.235-.219 1.516 1.297-.281Z"/></g><g filter="url(#filter8_f_28327_4022)"><path fill="url(#paint53_linear_28327_4022)" d="m29.55 22.612-.85-1.485-.345.922 1.196.563Z"/></g><path fill="url(#paint54_linear_28327_4022)" d="M11.605 20.05h1.47c.273.695.726 1.28.937 1.577-1.613.038-2.271-1.041-2.407-1.578Z"/><path fill="url(#paint55_linear_28327_4022)" d="M9.8 18.971c.663-.331.782-1.177.759-1.539-.15.5-.54.535-.7.535-.027.348-.058.809-.058 1.004Z"/><defs><radialGradient id="paint0_radial_28327_4022" cx="0" cy="0" r="1" gradientTransform="matrix(-.793 -3.77875 2.19508 -.46066 16.793 29.5)" gradientUnits="userSpaceOnUse"><stop stop-color="#E29183"/><stop offset="1" stop-color="#C87154"/></radialGradient><radialGradient id="paint4_radial_28327_4022" cx="0" cy="0" r="1" gradientTransform="rotate(-75.514 30.294 .211) scale(4.24754 3.39264)" gradientUnits="userSpaceOnUse"><stop stop-color="#E29183"/><stop offset="1" stop-color="#C87154"/></radialGradient><radialGradient id="paint9_radial_28327_4022" cx="0" cy="0" r="1" gradientTransform="matrix(.5625 .03125 -.13712 2.4682 25.012 28.377)" gradientUnits="userSpaceOnUse"><stop stop-color="#DB7D59"/><stop offset="1" stop-color="#DB7D59" stop-opacity="0"/></radialGradient><radialGradient id="paint10_radial_28327_4022" cx="0" cy="0" r="1" gradientTransform="matrix(.64062 .26562 -1.16553 2.811 8.84 28.424)" gradientUnits="userSpaceOnUse"><stop stop-color="#DB7D59"/><stop offset="1" stop-color="#DB7D59" stop-opacity="0"/></radialGradient><radialGradient id="paint11_radial_28327_4022" cx="0" cy="0" r="1" gradientTransform="matrix(-.875 -.42188 2.49812 -5.18123 12.09 29.346)" gradientUnits="userSpaceOnUse"><stop stop-color="#DB7D59"/><stop offset="1" stop-color="#DB7D59" stop-opacity="0"/></radialGradient><radialGradient id="paint12_radial_28327_4022" cx="0" cy="0" r="1" gradientTransform="rotate(-144.067 19.114 10.519) scale(2.10341 9.22953)" gradientUnits="userSpaceOnUse"><stop stop-color="#DB7D59"/><stop offset=".963" stop-color="#DB7D59" stop-opacity="0"/></radialGradient><radialGradient id="paint15_radial_28327_4022" cx="0" cy="0" r="1" gradientTransform="matrix(3.65625 3.03125 -5.53035 6.67062 4.355 19.659)" gradientUnits="userSpaceOnUse"><stop stop-color="#ECAF77"/><stop offset="1" stop-color="#ECAF77" stop-opacity="0"/></radialGradient><radialGradient id="paint16_radial_28327_4022" cx="0" cy="0" r="1" gradientTransform="matrix(1.17188 1.08438 -2.601 2.81088 5.027 19.465)" gradientUnits="userSpaceOnUse"><stop stop-color="#CF8255"/><stop offset="1" stop-color="#CF8255" stop-opacity="0"/></radialGradient><radialGradient id="paint17_radial_28327_4022" cx="0" cy="0" r="1" gradientTransform="matrix(-2.55 .50001 -.60394 -3.08004 15.312 18.002)" gradientUnits="userSpaceOnUse"><stop stop-color="#E9B290"/><stop offset="1" stop-color="#E9B290" stop-opacity="0"/></radialGradient><radialGradient id="paint18_radial_28327_4022" cx="0" cy="0" r="1" gradientTransform="matrix(1.25 .4375 -.67013 1.91467 10.496 16.752)" gradientUnits="userSpaceOnUse"><stop stop-color="#AB5925"/><stop offset=".918" stop-color="#AB5925" stop-opacity="0"/></radialGradient><radialGradient id="paint20_radial_28327_4022" cx="0" cy="0" r="1" gradientTransform="matrix(6.25 -2.65625 1.06222 2.49934 6.074 28.409)" gradientUnits="userSpaceOnUse"><stop stop-color="#CC6C84"/><stop offset="1" stop-color="#CC6C84" stop-opacity="0"/></radialGradient><radialGradient id="paint22_radial_28327_4022" cx="0" cy="0" r="1" gradientTransform="matrix(-.35937 -.48438 .7425 -.55088 10.23 25.846)" gradientUnits="userSpaceOnUse"><stop stop-color="#DFA27A"/><stop offset="1" stop-color="#DFA27A" stop-opacity="0"/></radialGradient><radialGradient id="paint24_radial_28327_4022" cx="0" cy="0" r="1" gradientTransform="rotate(-46.527 42.367 -6.089) scale(9.94722 6.4709)" gradientUnits="userSpaceOnUse"><stop stop-color="#CC6C84"/><stop offset="1" stop-color="#CC6C84" stop-opacity="0"/></radialGradient><radialGradient id="paint27_radial_28327_4022" cx="0" cy="0" r="1" gradientTransform="matrix(.01562 1.30625 -1.16458 .01392 2.777 22.018)" gradientUnits="userSpaceOnUse"><stop stop-color="#58484C"/><stop offset="1" stop-color="#482E44"/></radialGradient><radialGradient id="paint28_radial_28327_4022" cx="0" cy="0" r="1" gradientTransform="matrix(-.42 .57 -.48049 -.35404 3.287 22.16)" gradientUnits="userSpaceOnUse"><stop stop-color="#675B5C"/><stop offset="1" stop-color="#5C5051" stop-opacity="0"/></radialGradient><radialGradient id="paint29_radial_28327_4022" cx="0" cy="0" r="1" gradientTransform="matrix(1.53907 -.625 .54904 1.352 11.996 18.377)" gradientUnits="userSpaceOnUse"><stop stop-color="#D99974"/><stop offset="1" stop-color="#AF6F4E"/></radialGradient><radialGradient id="paint30_radial_28327_4022" cx="0" cy="0" r="1" gradientTransform="matrix(.59374 1.65625 -1.45144 .52032 12.2 16.987)" gradientUnits="userSpaceOnUse"><stop stop-color="#BF725C"/><stop offset="1" stop-color="#BF725C" stop-opacity="0"/></radialGradient><radialGradient id="paint31_radial_28327_4022" cx="0" cy="0" r="1" gradientTransform="rotate(131.115 9.07 12.91) scale(10.2868)" gradientUnits="userSpaceOnUse"><stop offset=".201" stop-color="#BD7E76"/><stop offset="1" stop-color="#8C4B4D"/></radialGradient><radialGradient id="paint33_radial_28327_4022" cx="0" cy="0" r="1" gradientTransform="rotate(-126.339 10.098 6.177) scale(1.68757 2.33849)" gradientUnits="userSpaceOnUse"><stop stop-color="#8A3E68"/><stop offset="1" stop-color="#8A3E68" stop-opacity="0"/></radialGradient><radialGradient id="paint34_radial_28327_4022" cx="0" cy="0" r="1" gradientTransform="rotate(-25.554 42.794 -3.399) scale(5.94048 8.60371)" gradientUnits="userSpaceOnUse"><stop stop-color="#795654"/><stop offset="1" stop-color="#795654" stop-opacity="0"/></radialGradient><radialGradient id="paint35_radial_28327_4022" cx="0" cy="0" r="1" gradientTransform="matrix(-.90626 -2.3125 2.55868 -1.00274 12.48 17.471)" gradientUnits="userSpaceOnUse"><stop offset=".446" stop-color="#502219"/><stop offset="1" stop-color="#6A2F23" stop-opacity="0"/></radialGradient><radialGradient id="paint36_radial_28327_4022" cx="0" cy="0" r="1" gradientTransform="matrix(1.3125 1.6875 -1.43437 1.11562 14.887 9.315)" gradientUnits="userSpaceOnUse"><stop stop-color="#BD7E76"/><stop offset="1" stop-color="#BD7E76" stop-opacity="0"/></radialGradient><radialGradient id="paint37_radial_28327_4022" cx="0" cy="0" r="1" gradientTransform="matrix(1.85937 1.53125 -1.12848 1.3703 9.98 11.174)" gradientUnits="userSpaceOnUse"><stop stop-color="#BD7E76"/><stop offset=".999" stop-color="#BD7E76" stop-opacity="0"/></radialGradient><radialGradient id="paint38_radial_28327_4022" cx="0" cy="0" r="1" gradientTransform="matrix(-.62498 3.03125 -1.59254 -.32835 21.45 7.19)" gradientUnits="userSpaceOnUse"><stop stop-color="#723B33"/><stop offset="1" stop-color="#723B33" stop-opacity="0"/></radialGradient><radialGradient id="paint39_radial_28327_4022" cx="0" cy="0" r="1" gradientTransform="matrix(-2.53125 2 -1.38422 -1.7519 26.105 8.971)" gradientUnits="userSpaceOnUse"><stop stop-color="#723B33"/><stop offset="1" stop-color="#723B33" stop-opacity="0"/></radialGradient><radialGradient id="paint40_radial_28327_4022" cx="0" cy="0" r="1" gradientTransform="rotate(142.386 12.278 11.123) scale(2.40645 1.79693)" gradientUnits="userSpaceOnUse"><stop stop-color="#723B33"/><stop offset="1" stop-color="#723B33" stop-opacity="0"/></radialGradient><radialGradient id="paint41_radial_28327_4022" cx="0" cy="0" r="1" gradientTransform="matrix(-2.84376 1.15624 -.76212 -1.87443 30.73 16.596)" gradientUnits="userSpaceOnUse"><stop stop-color="#723B33"/><stop offset="1" stop-color="#723B33" stop-opacity="0"/></radialGradient><radialGradient id="paint42_radial_28327_4022" cx="0" cy="0" r="1" gradientTransform="matrix(-2.03125 .12498 -.10393 -1.68906 30.168 20.784)" gradientUnits="userSpaceOnUse"><stop stop-color="#723B33"/><stop offset="1" stop-color="#723B33" stop-opacity="0"/></radialGradient><radialGradient id="paint43_radial_28327_4022" cx="0" cy="0" r="1" gradientTransform="matrix(-.03126 2.875 -1.5701 -.01707 16.511 8.471)" gradientUnits="userSpaceOnUse"><stop stop-color="#723B33"/><stop offset="1" stop-color="#723B33" stop-opacity="0"/></radialGradient><radialGradient id="paint46_radial_28327_4022" cx="0" cy="0" r="1" gradientTransform="matrix(-.38575 -.95582 1.02547 -.41386 8.001 22.5)" gradientUnits="userSpaceOnUse"><stop offset=".814" stop-color="#594C4F" stop-opacity="0"/><stop offset="1" stop-color="#594C4F"/></radialGradient><linearGradient id="paint1_linear_28327_4022" x1="17.968" x2="16.543" y1="26.19" y2="28.002" gradientUnits="userSpaceOnUse"><stop stop-color="#C86B4D"/><stop offset="1" stop-color="#C86B4D" stop-opacity="0"/></linearGradient><linearGradient id="paint2_linear_28327_4022" x1="17.968" x2="17.105" y1="27.237" y2="27.361" gradientUnits="userSpaceOnUse"><stop stop-color="#C76648"/><stop offset="1" stop-color="#C86B4D" stop-opacity="0"/></linearGradient><linearGradient id="paint3_linear_28327_4022" x1="15.684" x2="15.71" y1="29.659" y2="29.105" gradientUnits="userSpaceOnUse"><stop stop-color="#CC6C84"/><stop offset="1" stop-color="#CC6C84" stop-opacity="0"/></linearGradient><linearGradient id="paint5_linear_28327_4022" x1="22.746" x2="22.683" y1="25.846" y2="27.924" gradientUnits="userSpaceOnUse"><stop stop-color="#C76648"/><stop offset="1" stop-color="#C86B4D" stop-opacity="0"/></linearGradient><linearGradient id="paint6_linear_28327_4022" x1="20.23" x2="20.871" y1="27.155" y2="27.331" gradientUnits="userSpaceOnUse"><stop stop-color="#C76648"/><stop offset="1" stop-color="#C86B4D" stop-opacity="0"/></linearGradient><linearGradient id="paint7_linear_28327_4022" x1="21.699" x2="21.699" y1="29.729" y2="29.096" gradientUnits="userSpaceOnUse"><stop stop-color="#CC6C84"/><stop offset="1" stop-color="#CC6C84" stop-opacity="0"/></linearGradient><linearGradient id="paint8_linear_28327_4022" x1="13.352" x2="13.352" y1="30.516" y2="28.502" gradientUnits="userSpaceOnUse"><stop stop-color="#CC6C84"/><stop offset="1" stop-color="#CC6C84" stop-opacity="0"/></linearGradient><linearGradient id="paint13_linear_28327_4022" x1="14.262" x2="14.262" y1="31.659" y2="28.846" gradientUnits="userSpaceOnUse"><stop stop-color="#DB7D59"/><stop offset=".963" stop-color="#DB7D59" stop-opacity="0"/></linearGradient><linearGradient id="paint14_linear_28327_4022" x1="28.324" x2="27.652" y1="28.721" y2="28.721" gradientUnits="userSpaceOnUse"><stop stop-color="#DB7D59"/><stop offset=".963" stop-color="#DB7D59" stop-opacity="0"/></linearGradient><linearGradient id="paint19_linear_28327_4022" x1="5.722" x2="5.722" y1="26.815" y2="25.502" gradientUnits="userSpaceOnUse"><stop stop-color="#CC6C84"/><stop offset="1" stop-color="#CC6C84" stop-opacity="0"/></linearGradient><linearGradient id="paint21_linear_28327_4022" x1="4.262" x2="5.293" y1="26.909" y2="24.971" gradientUnits="userSpaceOnUse"><stop stop-color="#CC6C84"/><stop offset=".839" stop-color="#CC6C84" stop-opacity="0"/></linearGradient><linearGradient id="paint23_linear_28327_4022" x1="19.024" x2="19.024" y1="26.738" y2="25.284" gradientUnits="userSpaceOnUse"><stop stop-color="#CC6C84"/><stop offset="1" stop-color="#CC6C84" stop-opacity="0"/></linearGradient><linearGradient id="paint25_linear_28327_4022" x1="25.262" x2="24.574" y1="26.252" y2="25.752" gradientUnits="userSpaceOnUse"><stop stop-color="#DFA27A"/><stop offset="1" stop-color="#DFA27A" stop-opacity="0"/></linearGradient><linearGradient id="paint26_linear_28327_4022" x1="13.371" x2="13.98" y1="25.471" y2="25.752" gradientUnits="userSpaceOnUse"><stop stop-color="#DFA27A"/><stop offset="1" stop-color="#DFA27A" stop-opacity="0"/></linearGradient><linearGradient id="paint32_linear_28327_4022" x1="21.699" x2="21.699" y1="25.002" y2="22.065" gradientUnits="userSpaceOnUse"><stop stop-color="#8A3E68"/><stop offset="1" stop-color="#8A3E68" stop-opacity="0"/></linearGradient><linearGradient id="paint44_linear_28327_4022" x1="8.307" x2="7.728" y1="22.395" y2="22.395" gradientUnits="userSpaceOnUse"><stop offset=".225" stop-color="#594C4F"/><stop offset="1" stop-color="#392833"/></linearGradient><linearGradient id="paint45_linear_28327_4022" x1="8.463" x2="8.463" y1="23.428" y2="22.473" gradientUnits="userSpaceOnUse"><stop stop-color="#492847"/><stop offset="1" stop-color="#552D52" stop-opacity="0"/></linearGradient><linearGradient id="paint47_linear_28327_4022" x1="10.809" x2="13.402" y1="28.909" y2="23.987" gradientUnits="userSpaceOnUse"><stop stop-color="#FFCD9F"/><stop offset="1" stop-color="#FFCD9F" stop-opacity="0"/></linearGradient><linearGradient id="paint48_linear_28327_4022" x1="17.543" x2="19.251" y1="9.284" y2="11.604" gradientUnits="userSpaceOnUse"><stop stop-color="#BD7E76"/><stop offset="1" stop-color="#BD7E76" stop-opacity="0"/></linearGradient><linearGradient id="paint49_linear_28327_4022" x1="22.527" x2="22.543" y1="8.956" y2="11.44" gradientUnits="userSpaceOnUse"><stop stop-color="#BD7E76"/><stop offset="1" stop-color="#BD7E76" stop-opacity="0"/></linearGradient><linearGradient id="paint50_linear_28327_4022" x1="27.014" x2="25.653" y1="10.965" y2="13.456" gradientUnits="userSpaceOnUse"><stop stop-color="#BD7E76"/><stop offset="1" stop-color="#BD7E76" stop-opacity="0"/></linearGradient><linearGradient id="paint51_linear_28327_4022" x1="29.009" x2="26.352" y1="14.859" y2="15.856" gradientUnits="userSpaceOnUse"><stop stop-color="#BD7E76"/><stop offset="1" stop-color="#BD7E76" stop-opacity="0"/></linearGradient><linearGradient id="paint52_linear_28327_4022" x1="30.043" x2="27.574" y1="18.096" y2="17.721" gradientUnits="userSpaceOnUse"><stop stop-color="#BD7E76"/><stop offset="1" stop-color="#BD7E76" stop-opacity="0"/></linearGradient><linearGradient id="paint53_linear_28327_4022" x1="29.757" x2="27.288" y1="21.605" y2="21.23" gradientUnits="userSpaceOnUse"><stop stop-color="#BD7E76"/><stop offset="1" stop-color="#BD7E76" stop-opacity="0"/></linearGradient><linearGradient id="paint54_linear_28327_4022" x1="13.105" x2="12.637" y1="19.721" y2="20.643" gradientUnits="userSpaceOnUse"><stop stop-color="#CC6C84"/><stop offset="1" stop-color="#CC6C84" stop-opacity="0"/></linearGradient><linearGradient id="paint55_linear_28327_4022" x1="10.777" x2="10.082" y1="17.987" y2="18.221" gradientUnits="userSpaceOnUse"><stop stop-color="#C5753C"/><stop offset="1" stop-color="#C5753C" stop-opacity="0"/></linearGradient><filter id="filter0_i_28327_4022" width="24.091" height="16.765" x="6.002" y="7.935" color-interpolation-filters="sRGB" filterUnits="userSpaceOnUse"><feFlood flood-opacity="0" result="BackgroundImageFix"/><feBlend in="SourceGraphic" in2="BackgroundImageFix" result="shape"/><feColorMatrix in="SourceAlpha" result="hardAlpha" values="0 0 0 0 0 0 0 0 0 0 0 0 0 0 0 0 0 0 127 0"/><feOffset dx=".1" dy=".2"/><feGaussianBlur stdDeviation=".5"/><feComposite in2="hardAlpha" k2="-1" k3="1" operator="arithmetic"/><feColorMatrix values="0 0 0 0 0.596078 0 0 0 0 0.47451 0 0 0 0 0.454902 0 0 0 1 0"/><feBlend in2="shape" result="effect1_innerShadow_28327_4022"/></filter><filter id="filter1_f_28327_4022" width="2.953" height="5.844" x="25.699" y="24.065" color-interpolation-filters="sRGB" filterUnits="userSpaceOnUse"><feFlood flood-opacity="0" result="BackgroundImageFix"/><feBlend in="SourceGraphic" in2="BackgroundImageFix" result="shape"/><feGaussianBlur result="effect1_foregroundBlur_28327_4022" stdDeviation=".5"/></filter><filter id="filter2_f_28327_4022" width="4.703" height="5.844" x="9.293" y="24.065" color-interpolation-filters="sRGB" filterUnits="userSpaceOnUse"><feFlood flood-opacity="0" result="BackgroundImageFix"/><feBlend in="SourceGraphic" in2="BackgroundImageFix" result="shape"/><feGaussianBlur result="effect1_foregroundBlur_28327_4022" stdDeviation=".5"/></filter><filter id="filter3_f_28327_4022" width="4.403" height="4.216" x="17.287" y="8.309" color-interpolation-filters="sRGB" filterUnits="userSpaceOnUse"><feFlood flood-opacity="0" result="BackgroundImageFix"/><feBlend in="SourceGraphic" in2="BackgroundImageFix" result="shape"/><feGaussianBlur result="effect1_foregroundBlur_28327_4022" stdDeviation=".3"/></filter><filter id="filter4_f_28327_4022" width="4.106" height="4.216" x="21.506" y="7.824" color-interpolation-filters="sRGB" filterUnits="userSpaceOnUse"><feFlood flood-opacity="0" result="BackgroundImageFix"/><feBlend in="SourceGraphic" in2="BackgroundImageFix" result="shape"/><feGaussianBlur result="effect1_foregroundBlur_28327_4022" stdDeviation=".3"/></filter><filter id="filter5_f_28327_4022" width="3.434" height="4.817" x="24.787" y="10.114" color-interpolation-filters="sRGB" filterUnits="userSpaceOnUse"><feFlood flood-opacity="0" result="BackgroundImageFix"/><feBlend in="SourceGraphic" in2="BackgroundImageFix" result="shape"/><feGaussianBlur result="effect1_foregroundBlur_28327_4022" stdDeviation=".3"/></filter><filter id="filter6_f_28327_4022" width="4.106" height="2.356" x="26.006" y="14.184" color-interpolation-filters="sRGB" filterUnits="userSpaceOnUse"><feFlood flood-opacity="0" result="BackgroundImageFix"/><feBlend in="SourceGraphic" in2="BackgroundImageFix" result="shape"/><feGaussianBlur result="effect1_foregroundBlur_28327_4022" stdDeviation=".3"/></filter><filter id="filter7_f_28327_4022" width="2.497" height="2.716" x="27.693" y="17.106" color-interpolation-filters="sRGB" filterUnits="userSpaceOnUse"><feFlood flood-opacity="0" result="BackgroundImageFix"/><feBlend in="SourceGraphic" in2="BackgroundImageFix" result="shape"/><feGaussianBlur result="effect1_foregroundBlur_28327_4022" stdDeviation=".3"/></filter><filter id="filter8_f_28327_4022" width="2.395" height="2.684" x="27.756" y="20.527" color-interpolation-filters="sRGB" filterUnits="userSpaceOnUse"><feFlood flood-opacity="0" result="BackgroundImageFix"/><feBlend in="SourceGraphic" in2="BackgroundImageFix" result="shape"/><feGaussianBlur result="effect1_foregroundBlur_28327_4022" stdDeviation=".3"/></filter></defs></svg>