<svg xmlns="http://www.w3.org/2000/svg" width="32" height="32" fill="none" viewBox="0 0 32 32"><path fill="url(#paint0_linear_4002_2910)" d="m9.178 14.583-1.73 1-4.29-7.43a.42.42 0 0 1 .16-.58l1-.57c.2-.12.46-.05.58.16l4.28 7.42Z"/><path fill="url(#paint1_linear_4002_2910)" d="m9.178 14.583-1.73 1-4.29-7.43a.42.42 0 0 1 .16-.58l1-.57c.2-.12.46-.05.58.16l4.28 7.42Z"/><path fill="url(#paint2_radial_4002_2910)" d="m9.178 14.583-1.73 1-4.29-7.43a.42.42 0 0 1 .16-.58l1-.57c.2-.12.46-.05.58.16l4.28 7.42Z"/><path fill="url(#paint3_radial_4002_2910)" d="m9.178 14.583-1.73 1-4.29-7.43a.42.42 0 0 1 .16-.58l1-.57c.2-.12.46-.05.58.16l4.28 7.42Z"/><path fill="url(#paint4_linear_4002_2910)" d="m5.173 7.65-1.732 1 .5.867 1.732-1-.5-.866Z"/><path fill="url(#paint5_linear_4002_2910)" d="m5.173 7.65-1.732 1 .5.867 1.732-1-.5-.866Z"/><path fill="url(#paint6_linear_4002_2910)" d="m5.173 7.65-1.732 1 .5.867 1.732-1-.5-.866Z"/><path fill="url(#paint7_linear_4002_2910)" d="m6.176 9.39-1.732 1 .5.866 1.732-1-.5-.866Z"/><path fill="url(#paint8_linear_4002_2910)" d="m6.176 9.39-1.732 1 .5.866 1.732-1-.5-.866Z"/><path fill="url(#paint9_linear_4002_2910)" d="m6.176 9.39-1.732 1 .5.866 1.732-1-.5-.866Z"/><path fill="url(#paint10_linear_4002_2910)" d="m7.175 11.12-1.732 1 .5.866 1.732-1-.5-.866Z"/><path fill="url(#paint11_linear_4002_2910)" d="m7.175 11.12-1.732 1 .5.866 1.732-1-.5-.866Z"/><path fill="url(#paint12_linear_4002_2910)" d="m7.175 11.12-1.732 1 .5.866 1.732-1-.5-.866Z"/><path fill="url(#paint13_linear_4002_2910)" d="m8.174 12.85-1.732 1 .5.866 1.732-1-.5-.866Z"/><path fill="url(#paint14_linear_4002_2910)" d="m8.174 12.85-1.732 1 .5.866 1.732-1-.5-.866Z"/><path fill="url(#paint15_linear_4002_2910)" d="m8.174 12.85-1.732 1 .5.866 1.732-1-.5-.866Z"/><path fill="url(#paint16_radial_4002_2910)" d="m12.618 18.382-3.49 2.01-2.02-3.49 3.49-2.02 2.02 3.5Z"/><path fill="url(#paint17_linear_4002_2910)" d="m12.618 18.382-3.49 2.01-2.02-3.49 3.49-2.02 2.02 3.5Z"/><path fill="#594A6B" d="M17.158 15.443c-6.07 0-11 4.92-11 11v3.5h21.99v-3.5c.01-6.08-4.91-11-10.99-11Z"/><path fill="url(#paint18_radial_4002_2910)" d="M17.158 15.443c-6.07 0-11 4.92-11 11v3.5h21.99v-3.5c.01-6.08-4.91-11-10.99-11Z"/><path fill="url(#paint19_radial_4002_2910)" d="M17.158 15.443c-6.07 0-11 4.92-11 11v3.5h21.99v-3.5c.01-6.08-4.91-11-10.99-11Z"/><path fill="url(#paint20_linear_4002_2910)" d="M17.158 15.443c-6.07 0-11 4.92-11 11v3.5h21.99v-3.5c.01-6.08-4.91-11-10.99-11Z"/><path fill="url(#paint21_radial_4002_2910)" d="M17.158 15.443c-6.07 0-11 4.92-11 11v3.5h21.99v-3.5c.01-6.08-4.91-11-10.99-11Z"/><path fill="url(#paint22_radial_4002_2910)" d="M17.158 15.443c-6.07 0-11 4.92-11 11v3.5h21.99v-3.5c.01-6.08-4.91-11-10.99-11Z"/><path fill="url(#paint23_radial_4002_2910)" d="M17.158 15.443c-6.07 0-11 4.92-11 11v3.5h21.99v-3.5c.01-6.08-4.91-11-10.99-11Z"/><path fill="url(#paint24_radial_4002_2910)" d="M13.148 16.263c-.22.07-.43.14-.65.22l4.75 5.86 4.56-5.86c-.22-.08-.43-.16-.65-.22h-8.01Z"/><path fill="url(#paint25_linear_4002_2910)" d="M13.148 16.263c-.22.07-.43.14-.65.22l4.75 5.86 4.56-5.86c-.22-.08-.43-.16-.65-.22h-8.01Z"/><path fill="url(#paint26_linear_4002_2910)" d="m20.658 16.003-4.25 6.94c.48.98 1.18 2.05 1.68 3.02l5.14-8.7c-.79-.52-1.65-.95-2.57-1.26Z"/><path fill="url(#paint27_radial_4002_2910)" d="m20.658 16.003-4.25 6.94c.48.98 1.18 2.05 1.68 3.02l5.14-8.7c-.79-.52-1.65-.95-2.57-1.26Z"/><path fill="url(#paint28_linear_4002_2910)" d="m20.658 16.003-4.25 6.94c.48.98 1.18 2.05 1.68 3.02l5.14-8.7c-.79-.52-1.65-.95-2.57-1.26Z"/><path fill="url(#paint29_linear_4002_2910)" d="m20.658 16.003-4.25 6.94c.48.98 1.18 2.05 1.68 3.02l5.14-8.7c-.79-.52-1.65-.95-2.57-1.26Z"/><path fill="url(#paint30_linear_4002_2910)" d="m11.108 17.253 8.16 12.68h3.36l-8.96-13.93c-.91.31-1.77.73-2.56 1.25Z"/><path fill="url(#paint31_radial_4002_2910)" d="m11.108 17.253 8.16 12.68h3.36l-8.96-13.93c-.91.31-1.77.73-2.56 1.25Z"/><path fill="url(#paint32_linear_4002_2910)" d="m11.108 17.253 8.16 12.68h3.36l-8.96-13.93c-.91.31-1.77.73-2.56 1.25Z"/><path fill="url(#paint33_radial_4002_2910)" d="m11.108 17.253 8.16 12.68h3.36l-8.96-13.93c-.91.31-1.77.73-2.56 1.25Z"/><path fill="url(#paint34_radial_4002_2910)" d="m11.108 17.253 8.16 12.68h3.36l-8.96-13.93c-.91.31-1.77.73-2.56 1.25Z"/><g filter="url(#filter0_i_4002_2910)" transform="rotate(-30.405 5.754 16.577)"><rect width="6.032" height="1.072" x="5.754" y="16.577" fill="url(#paint35_linear_4002_2910)" rx=".15"/><rect width="6.032" height="1.072" x="5.754" y="16.577" fill="url(#paint36_linear_4002_2910)" rx=".15"/><rect width="6.032" height="1.072" x="5.754" y="16.577" fill="url(#paint37_linear_4002_2910)" rx=".15"/></g><path fill="url(#paint38_radial_4002_2910)" fill-rule="evenodd" d="M10.169 29.943v-11.99a10.951 10.951 0 0 0-4.03 8.496v3.494h4.03Z" clip-rule="evenodd"/><path fill="url(#paint39_radial_4002_2910)" fill-rule="evenodd" d="M10.169 29.943v-11.99a10.951 10.951 0 0 0-4.03 8.496v3.494h4.03Z" clip-rule="evenodd"/><path fill="url(#paint40_radial_4002_2910)" fill-rule="evenodd" d="M10.169 29.943v-11.99a10.951 10.951 0 0 0-4.03 8.496v3.494h4.03Z" clip-rule="evenodd"/><path fill="url(#paint41_linear_4002_2910)" fill-rule="evenodd" d="M10.169 29.943v-11.99a10.951 10.951 0 0 0-4.03 8.496v3.494h4.03Z" clip-rule="evenodd"/><path fill="url(#paint42_radial_4002_2910)" d="M24.167 29.933v-11.98a10.938 10.938 0 0 1 4.03 8.49v3.49h-4.03Z"/><path fill="url(#paint43_radial_4002_2910)" d="M24.167 29.933v-11.98a10.938 10.938 0 0 1 4.03 8.49v3.49h-4.03Z"/><path fill="url(#paint44_radial_4002_2910)" d="M24.167 29.933v-11.98a10.938 10.938 0 0 1 4.03 8.49v3.49h-4.03Z"/><path fill="url(#paint45_radial_4002_2910)" d="M15.91 6.244c-1.15 0-3.254.463-3.58 3-.212 2.25.085 2.887.984 3.09.568.128 1.377.074 2.274-.566.89-.637 1.168-.68 1.57-.68.4 0 .678.043 1.569.68.897.64 1.705.694 2.273.566.899-.203 1.197-.84.985-3.09-.326-2.537-2.43-3-3.58-3H15.91Z"/><path fill="url(#paint46_radial_4002_2910)" d="M15.91 6.244c-1.15 0-3.254.463-3.58 3-.212 2.25.085 2.887.984 3.09.568.128 1.377.074 2.274-.566.89-.637 1.168-.68 1.57-.68.4 0 .678.043 1.569.68.897.64 1.705.694 2.273.566.899-.203 1.197-.84.985-3.09-.326-2.537-2.43-3-3.58-3H15.91Z"/><path fill="url(#paint47_radial_4002_2910)" d="M15.91 6.244c-1.15 0-3.254.463-3.58 3-.212 2.25.085 2.887.984 3.09.568.128 1.377.074 2.274-.566.89-.637 1.168-.68 1.57-.68.4 0 .678.043 1.569.68.897.64 1.705.694 2.273.566.899-.203 1.197-.84.985-3.09-.326-2.537-2.43-3-3.58-3H15.91Z"/><path fill="url(#paint48_radial_4002_2910)" d="M15.91 6.244c-1.15 0-3.254.463-3.58 3-.212 2.25.085 2.887.984 3.09.568.128 1.377.074 2.274-.566.89-.637 1.168-.68 1.57-.68.4 0 .678.043 1.569.68.897.64 1.705.694 2.273.566.899-.203 1.197-.84.985-3.09-.326-2.537-2.43-3-3.58-3H15.91Z"/><path fill="url(#paint49_radial_4002_2910)" d="M15.91 6.244c-1.15 0-3.254.463-3.58 3-.212 2.25.085 2.887.984 3.09.568.128 1.377.074 2.274-.566.89-.637 1.168-.68 1.57-.68.4 0 .678.043 1.569.68.897.64 1.705.694 2.273.566.899-.203 1.197-.84.985-3.09-.326-2.537-2.43-3-3.58-3H15.91Z"/><path fill="url(#paint50_radial_4002_2910)" d="M15.91 6.244c-1.15 0-3.254.463-3.58 3-.212 2.25.085 2.887.984 3.09.568.128 1.377.074 2.274-.566.89-.637 1.168-.68 1.57-.68.4 0 .678.043 1.569.68.897.64 1.705.694 2.273.566.899-.203 1.197-.84.985-3.09-.326-2.537-2.43-3-3.58-3H15.91Z"/><g filter="url(#filter1_f_4002_2910)"><path fill="url(#paint51_linear_4002_2910)" d="m16.738 9.948-.531 1.838c-.109.379.152.757.52.757h.787c.369 0 .629-.384.52-.757l-.531-1.838c-.114-.407-.645-.407-.765 0Z"/><path fill="url(#paint52_linear_4002_2910)" d="m16.738 9.948-.531 1.838c-.109.379.152.757.52.757h.787c.369 0 .629-.384.52-.757l-.531-1.838c-.114-.407-.645-.407-.765 0Z"/></g><g filter="url(#filter2_i_4002_2910)"><path fill="#4D3533" d="M20.826 7.887c-.542-.472-1.251-.539-1.94-.455a.277.277 0 1 0 .068.551c.53-.065 1.087-.044 1.508.322a.277.277 0 0 0 .364-.418Z"/></g><g filter="url(#filter3_i_4002_2910)"><path fill="#4D3533" d="M13.488 7.887c.542-.472 1.251-.539 1.94-.455a.277.277 0 1 1-.068.551c-.53-.065-1.087-.044-1.508.322a.277.277 0 1 1-.364-.418Z"/></g><path fill="#fff" d="M19.512 9.122c.653 0 1.204.45 1.354 1.059a.274.274 0 0 1-.267.34h-2.232a.23.23 0 0 1-.227-.271 1.399 1.399 0 0 1 1.372-1.128Z"/><path fill="url(#paint53_radial_4002_2910)" d="M19.305 9.394a.892.892 0 0 1 .86 1.127H18.44a.896.896 0 0 1 .864-1.128Z"/><path fill="#000" d="M18.793 10.286c0-.284.227-.511.511-.511a.51.51 0 0 1 .455.746h-.905a.462.462 0 0 1-.06-.235Z"/><g filter="url(#filter4_f_4002_2910)"><path fill="#C7A7A3" d="M19.239 9.582c.063.085-.07.189-.22.302-.152.113-.264.192-.327.107-.064-.085.007-.245.158-.358.151-.113.325-.136.389-.05Z"/><path fill="url(#paint54_radial_4002_2910)" d="M19.239 9.582c.063.085-.07.189-.22.302-.152.113-.264.192-.327.107-.064-.085.007-.245.158-.358.151-.113.325-.136.389-.05Z"/></g><g filter="url(#filter5_f_4002_2910)"><path fill="url(#paint55_linear_4002_2910)" d="M20.1 10.169a.84.84 0 0 0-.232-.463l-.26.285.117.229.374-.051Z"/></g><path fill="#fff" d="M14.73 9.122c-.654 0-1.206.45-1.356 1.059-.044.174.09.34.268.34h2.231a.23.23 0 0 0 .228-.271 1.401 1.401 0 0 0-1.372-1.128Z"/><path fill="url(#paint56_radial_4002_2910)" d="M14.936 9.394a.893.893 0 0 0-.86 1.127H15.8a.913.913 0 0 0 .033-.235.899.899 0 0 0-.897-.892Z"/><path fill="#000" d="M15.447 10.286a.51.51 0 0 0-.51-.511.51.51 0 0 0-.455.746h.905a.507.507 0 0 0 .06-.235Z"/><g filter="url(#filter6_f_4002_2910)"><path fill="url(#paint57_linear_4002_2910)" d="M15.752 10.181c0-.288-.235-.48-.298-.538l-.289.278.178.362.409-.102Z"/></g><g filter="url(#filter7_f_4002_2910)" transform="rotate(-27.914 14.667 9.775)"><ellipse cx="14.667" cy="9.775" fill="#C7A7A3" fill-opacity=".9" rx=".39" ry=".197"/><ellipse cx="14.667" cy="9.775" fill="url(#paint58_radial_4002_2910)" rx=".39" ry=".197"/></g><g fill-rule="evenodd" clip-rule="evenodd" filter="url(#filter8_iii_4002_2910)"><path fill="url(#paint59_radial_4002_2910)" d="M11.974 3.947c1.03-1.537 2.892-1.89 3.956-1.89h2.446c1.065 0 2.926.353 3.956 1.89.784.998.735 2.537.716 3.117l-.001.055c-.013.425-.207 4.156-.302 5.969-.027.703-.296 2.334-1.16 3.234-1.162 1.21-2.8 1.557-4.432 1.49-1.631.067-3.27-.28-4.432-1.49-.864-.9-1.133-2.531-1.16-3.234a888.653 888.653 0 0 1-.301-5.969l-.002-.055c-.018-.58-.067-2.12.716-3.117Zm.356 5.297c.326-2.537 2.43-3 3.58-3h2.494c1.15 0 3.255.463 3.58 3 .213 2.25-.085 2.887-.984 3.09-.568.128-1.376.074-2.273-.566-.89-.637-1.168-.68-1.57-.68-.401 0-.679.043-1.57.68-.896.64-1.705.694-2.273.566-.899-.203-1.196-.84-.984-3.09Z"/><path fill="url(#paint60_radial_4002_2910)" d="M11.974 3.947c1.03-1.537 2.892-1.89 3.956-1.89h2.446c1.065 0 2.926.353 3.956 1.89.784.998.735 2.537.716 3.117l-.001.055c-.013.425-.207 4.156-.302 5.969-.027.703-.296 2.334-1.16 3.234-1.162 1.21-2.8 1.557-4.432 1.49-1.631.067-3.27-.28-4.432-1.49-.864-.9-1.133-2.531-1.16-3.234a888.653 888.653 0 0 1-.301-5.969l-.002-.055c-.018-.58-.067-2.12.716-3.117Zm.356 5.297c.326-2.537 2.43-3 3.58-3h2.494c1.15 0 3.255.463 3.58 3 .213 2.25-.085 2.887-.984 3.09-.568.128-1.376.074-2.273-.566-.89-.637-1.168-.68-1.57-.68-.401 0-.679.043-1.57.68-.896.64-1.705.694-2.273.566-.899-.203-1.196-.84-.984-3.09Z"/><path fill="url(#paint61_radial_4002_2910)" d="M11.974 3.947c1.03-1.537 2.892-1.89 3.956-1.89h2.446c1.065 0 2.926.353 3.956 1.89.784.998.735 2.537.716 3.117l-.001.055c-.013.425-.207 4.156-.302 5.969-.027.703-.296 2.334-1.16 3.234-1.162 1.21-2.8 1.557-4.432 1.49-1.631.067-3.27-.28-4.432-1.49-.864-.9-1.133-2.531-1.16-3.234a888.653 888.653 0 0 1-.301-5.969l-.002-.055c-.018-.58-.067-2.12.716-3.117Zm.356 5.297c.326-2.537 2.43-3 3.58-3h2.494c1.15 0 3.255.463 3.58 3 .213 2.25-.085 2.887-.984 3.09-.568.128-1.376.074-2.273-.566-.89-.637-1.168-.68-1.57-.68-.401 0-.679.043-1.57.68-.896.64-1.705.694-2.273.566-.899-.203-1.196-.84-.984-3.09Z"/><path fill="url(#paint62_linear_4002_2910)" d="M11.974 3.947c1.03-1.537 2.892-1.89 3.956-1.89h2.446c1.065 0 2.926.353 3.956 1.89.784.998.735 2.537.716 3.117l-.001.055c-.013.425-.207 4.156-.302 5.969-.027.703-.296 2.334-1.16 3.234-1.162 1.21-2.8 1.557-4.432 1.49-1.631.067-3.27-.28-4.432-1.49-.864-.9-1.133-2.531-1.16-3.234a888.653 888.653 0 0 1-.301-5.969l-.002-.055c-.018-.58-.067-2.12.716-3.117Zm.356 5.297c.326-2.537 2.43-3 3.58-3h2.494c1.15 0 3.255.463 3.58 3 .213 2.25-.085 2.887-.984 3.09-.568.128-1.376.074-2.273-.566-.89-.637-1.168-.68-1.57-.68-.401 0-.679.043-1.57.68-.896.64-1.705.694-2.273.566-.899-.203-1.196-.84-.984-3.09Z"/><path fill="url(#paint63_radial_4002_2910)" d="M11.974 3.947c1.03-1.537 2.892-1.89 3.956-1.89h2.446c1.065 0 2.926.353 3.956 1.89.784.998.735 2.537.716 3.117l-.001.055c-.013.425-.207 4.156-.302 5.969-.027.703-.296 2.334-1.16 3.234-1.162 1.21-2.8 1.557-4.432 1.49-1.631.067-3.27-.28-4.432-1.49-.864-.9-1.133-2.531-1.16-3.234a888.653 888.653 0 0 1-.301-5.969l-.002-.055c-.018-.58-.067-2.12.716-3.117Zm.356 5.297c.326-2.537 2.43-3 3.58-3h2.494c1.15 0 3.255.463 3.58 3 .213 2.25-.085 2.887-.984 3.09-.568.128-1.376.074-2.273-.566-.89-.637-1.168-.68-1.57-.68-.401 0-.679.043-1.57.68-.896.64-1.705.694-2.273.566-.899-.203-1.196-.84-.984-3.09Z"/></g><path fill="url(#paint64_radial_4002_2910)" fill-rule="evenodd" d="M11.974 3.947c1.03-1.537 2.892-1.89 3.956-1.89h2.446c1.065 0 2.926.353 3.956 1.89.784.998.735 2.537.716 3.117l-.001.055c-.013.425-.207 4.156-.302 5.969-.027.703-.296 2.334-1.16 3.234-1.162 1.21-2.8 1.557-4.432 1.49-1.631.067-3.27-.28-4.432-1.49-.864-.9-1.133-2.531-1.16-3.234a888.653 888.653 0 0 1-.301-5.969l-.002-.055c-.018-.58-.067-2.12.716-3.117Zm.356 5.297c.326-2.537 2.43-3 3.58-3h2.494c1.15 0 3.255.463 3.58 3 .213 2.25-.085 2.887-.984 3.09-.568.128-1.376.074-2.273-.566-.89-.637-1.168-.68-1.57-.68-.401 0-.679.043-1.57.68-.896.64-1.705.694-2.273.566-.899-.203-1.196-.84-.984-3.09Z" clip-rule="evenodd"/><path fill="url(#paint65_radial_4002_2910)" fill-rule="evenodd" d="M11.974 3.947c1.03-1.537 2.892-1.89 3.956-1.89h2.446c1.065 0 2.926.353 3.956 1.89.784.998.735 2.537.716 3.117l-.001.055c-.013.425-.207 4.156-.302 5.969-.027.703-.296 2.334-1.16 3.234-1.162 1.21-2.8 1.557-4.432 1.49-1.631.067-3.27-.28-4.432-1.49-.864-.9-1.133-2.531-1.16-3.234a888.653 888.653 0 0 1-.301-5.969l-.002-.055c-.018-.58-.067-2.12.716-3.117Zm.356 5.297c.326-2.537 2.43-3 3.58-3h2.494c1.15 0 3.255.463 3.58 3 .213 2.25-.085 2.887-.984 3.09-.568.128-1.376.074-2.273-.566-.89-.637-1.168-.68-1.57-.68-.401 0-.679.043-1.57.68-.896.64-1.705.694-2.273.566-.899-.203-1.196-.84-.984-3.09Z" clip-rule="evenodd"/><g filter="url(#filter9_f_4002_2910)"><path stroke="url(#paint66_linear_4002_2910)" stroke-linecap="round" stroke-width=".2" d="M18.94 7.61c.304-.034 1.171-.094 1.78.46"/></g><g filter="url(#filter10_f_4002_2910)"><path stroke="url(#paint67_linear_4002_2910)" stroke-linecap="round" stroke-width=".2" d="M15.375 7.61c-.305-.034-1.172-.094-1.781.46"/></g><defs><radialGradient id="paint2_radial_4002_2910" cx="0" cy="0" r="1" gradientTransform="matrix(1.40627 2.32909 -.85736 .51766 4.585 6.944)" gradientUnits="userSpaceOnUse"><stop stop-color="#7A658F"/><stop offset="1" stop-color="#7A658F" stop-opacity="0"/></radialGradient><radialGradient id="paint3_radial_4002_2910" cx="0" cy="0" r="1" gradientTransform="rotate(62.632 -4.078 6.78) scale(.37388 2.21646)" gradientUnits="userSpaceOnUse"><stop offset=".498" stop-color="#5C4472"/><stop offset="1" stop-color="#5C4472" stop-opacity="0"/></radialGradient><radialGradient id="paint16_radial_4002_2910" cx="0" cy="0" r="1" gradientTransform="rotate(148.61 3.544 9.598) scale(4.31974 2.59212)" gradientUnits="userSpaceOnUse"><stop stop-color="#5A466E"/><stop offset="1" stop-color="#4B3563"/></radialGradient><radialGradient id="paint18_radial_4002_2910" cx="0" cy="0" r="1" gradientTransform="rotate(116.259 6.454 15.934) scale(5.22688 7.92684)" gradientUnits="userSpaceOnUse"><stop stop-color="#6C597E"/><stop offset="1" stop-color="#6C597E" stop-opacity="0"/></radialGradient><radialGradient id="paint19_radial_4002_2910" cx="0" cy="0" r="1" gradientTransform="rotate(61.374 -9.127 17.812) scale(8.93608 15.2764)" gradientUnits="userSpaceOnUse"><stop stop-color="#4A3A5C"/><stop offset="1" stop-color="#4A3A5C" stop-opacity="0"/></radialGradient><radialGradient id="paint21_radial_4002_2910" cx="0" cy="0" r="1" gradientTransform="rotate(147.265 4.786 14.92) scale(1.56031 13.1303)" gradientUnits="userSpaceOnUse"><stop offset=".491" stop-color="#342447"/><stop offset="1" stop-color="#342447" stop-opacity="0"/></radialGradient><radialGradient id="paint22_radial_4002_2910" cx="0" cy="0" r="1" gradientTransform="matrix(-2.65625 0 0 -13.5024 24.225 28.946)" gradientUnits="userSpaceOnUse"><stop stop-color="#62596C"/><stop offset="1" stop-color="#62596C" stop-opacity="0"/></radialGradient><radialGradient id="paint23_radial_4002_2910" cx="0" cy="0" r="1" gradientTransform="matrix(1.1875 -.78125 3.98099 6.0511 20.037 27.54)" gradientUnits="userSpaceOnUse"><stop offset=".521" stop-color="#494153"/><stop offset="1" stop-color="#494153" stop-opacity="0"/></radialGradient><radialGradient id="paint24_radial_4002_2910" cx="0" cy="0" r="1" gradientTransform="matrix(0 -4.25 3.44653 0 17.153 21.258)" gradientUnits="userSpaceOnUse"><stop offset=".338" stop-color="#462F5B"/><stop offset="1" stop-color="#170D22"/></radialGradient><radialGradient id="paint27_radial_4002_2910" cx="0" cy="0" r="1" gradientTransform="rotate(120.763 4.963 16.225) scale(7.63709 .98652)" gradientUnits="userSpaceOnUse"><stop offset=".103" stop-color="#715E86"/><stop offset="1" stop-color="#715E86" stop-opacity="0"/></radialGradient><radialGradient id="paint31_radial_4002_2910" cx="0" cy="0" r="1" gradientTransform="rotate(114.444 1.853 13.4) scale(3.02076 7.94537)" gradientUnits="userSpaceOnUse"><stop offset=".113" stop-color="#301F42"/><stop offset="1" stop-color="#4D3663" stop-opacity="0"/></radialGradient><radialGradient id="paint33_radial_4002_2910" cx="0" cy="0" r="1" gradientTransform="rotate(-31.827 37.732 -11.327) scale(.53331 2.44607)" gradientUnits="userSpaceOnUse"><stop stop-color="#5D516B"/><stop offset=".762" stop-color="#5D516B" stop-opacity="0"/></radialGradient><radialGradient id="paint34_radial_4002_2910" cx="0" cy="0" r="1" gradientTransform="matrix(-.88282 .54688 -6.24001 -10.07314 20.287 25.415)" gradientUnits="userSpaceOnUse"><stop offset=".498" stop-color="#70637E"/><stop offset="1" stop-color="#70637E" stop-opacity="0"/></radialGradient><radialGradient id="paint38_radial_4002_2910" cx="0" cy="0" r="1" gradientTransform="matrix(0 -15.0601 3.97571 0 9.561 29.943)" gradientUnits="userSpaceOnUse"><stop offset=".493" stop-color="#3A3242"/><stop offset="1" stop-color="#646069"/></radialGradient><radialGradient id="paint39_radial_4002_2910" cx="0" cy="0" r="1" gradientTransform="matrix(-1.74426 0 0 -9.92868 10.169 25.785)" gradientUnits="userSpaceOnUse"><stop stop-color="#433751"/><stop offset="1" stop-color="#433751" stop-opacity="0"/></radialGradient><radialGradient id="paint40_radial_4002_2910" cx="0" cy="0" r="1" gradientTransform="matrix(-.47937 0 0 -16.2112 10.169 29.943)" gradientUnits="userSpaceOnUse"><stop offset=".478" stop-color="#4E4855"/><stop offset="1" stop-color="#4E4855" stop-opacity="0"/></radialGradient><radialGradient id="paint42_radial_4002_2910" cx="0" cy="0" r="1" gradientTransform="matrix(0 -9.70637 2.90625 0 25.787 29.933)" gradientUnits="userSpaceOnUse"><stop stop-color="#61596B"/><stop offset="0" stop-color="#59535F"/><stop offset="1" stop-color="#645771"/></radialGradient><radialGradient id="paint43_radial_4002_2910" cx="0" cy="0" r="1" gradientTransform="matrix(1.34375 0 0 15.7813 23.6 28.915)" gradientUnits="userSpaceOnUse"><stop offset=".37" stop-color="#271D32"/><stop offset=".922" stop-color="#271D32" stop-opacity="0"/></radialGradient><radialGradient id="paint44_radial_4002_2910" cx="0" cy="0" r="1" gradientTransform="matrix(5.45681 0 0 20.4656 23.203 29.933)" gradientUnits="userSpaceOnUse"><stop offset=".733" stop-color="#6A676E" stop-opacity="0"/><stop offset="1" stop-color="#6A676E"/></radialGradient><radialGradient id="paint45_radial_4002_2910" cx="0" cy="0" r="1" gradientTransform="matrix(-2.32207 -6.04321 4.79359 -1.8419 20.662 11.352)" gradientUnits="userSpaceOnUse"><stop offset=".179" stop-color="#C69A84"/><stop offset="1" stop-color="#996E69"/></radialGradient><radialGradient id="paint46_radial_4002_2910" cx="0" cy="0" r="1" gradientTransform="rotate(171.501 9.563 5.395) scale(7.63796 7.9481)" gradientUnits="userSpaceOnUse"><stop offset=".836" stop-color="#926A5F" stop-opacity="0"/><stop offset="1" stop-color="#926A5F"/></radialGradient><radialGradient id="paint47_radial_4002_2910" cx="0" cy="0" r="1" gradientTransform="matrix(.03126 3.09375 -3.49933 .03536 18.964 5.845)" gradientUnits="userSpaceOnUse"><stop offset=".265" stop-color="#BD9483"/><stop offset="1" stop-color="#BD9483" stop-opacity="0"/></radialGradient><radialGradient id="paint48_radial_4002_2910" cx="0" cy="0" r="1" gradientTransform="matrix(0 1.84375 -1.81132 0 18.996 10.298)" gradientUnits="userSpaceOnUse"><stop offset=".147" stop-color="#CEA68F"/><stop offset="1" stop-color="#CEA68F" stop-opacity="0"/></radialGradient><radialGradient id="paint49_radial_4002_2910" cx="0" cy="0" r="1" gradientTransform="matrix(4.33927 -4.45398 4.68798 4.56724 17.157 11.622)" gradientUnits="userSpaceOnUse"><stop offset=".903" stop-color="#895148" stop-opacity="0"/><stop offset=".968" stop-color="#895148"/></radialGradient><radialGradient id="paint50_radial_4002_2910" cx="0" cy="0" r="1" gradientTransform="matrix(0 -1.48437 1.35938 0 14.965 9.511)" gradientUnits="userSpaceOnUse"><stop offset=".358" stop-color="#946769"/><stop offset="1" stop-color="#946769" stop-opacity="0"/></radialGradient><radialGradient id="paint53_radial_4002_2910" cx="0" cy="0" r="1" gradientTransform="matrix(0 -.92964 .86936 0 19.302 10.38)" gradientUnits="userSpaceOnUse"><stop offset=".804" stop-color="#825A4F"/><stop offset="1" stop-color="#6F4C49"/></radialGradient><radialGradient id="paint54_radial_4002_2910" cx="0" cy="0" r="1" gradientTransform="rotate(-127.812 11.975 .306) scale(.37829 .52081)" gradientUnits="userSpaceOnUse"><stop offset=".766" stop-color="#FFE6E2" stop-opacity="0"/><stop offset=".966" stop-color="#FFE6E2"/></radialGradient><radialGradient id="paint56_radial_4002_2910" cx="0" cy="0" r="1" gradientTransform="matrix(0 -.92969 .8694 0 14.938 10.38)" gradientUnits="userSpaceOnUse"><stop offset=".804" stop-color="#825A4F"/><stop offset="1" stop-color="#6F4C49"/></radialGradient><radialGradient id="paint58_radial_4002_2910" cx="0" cy="0" r="1" gradientTransform="matrix(-.00774 -.49408 .5939 -.0093 14.652 10.09)" gradientUnits="userSpaceOnUse"><stop offset=".766" stop-color="#FFE6E2" stop-opacity="0"/><stop offset=".966" stop-color="#FFE6E2"/></radialGradient><radialGradient id="paint59_radial_4002_2910" cx="0" cy="0" r="1" gradientTransform="rotate(117.355 8.578 8.78) scale(14.2138 12.3257)" gradientUnits="userSpaceOnUse"><stop stop-color="#645077"/><stop offset=".687" stop-color="#42275A"/></radialGradient><radialGradient id="paint60_radial_4002_2910" cx="0" cy="0" r="1" gradientTransform="matrix(3.21877 2.87498 -1.61902 1.81262 18.694 10.821)" gradientUnits="userSpaceOnUse"><stop stop-color="#625471"/><stop offset="1" stop-color="#625471" stop-opacity="0"/></radialGradient><radialGradient id="paint61_radial_4002_2910" cx="0" cy="0" r="1" gradientTransform="matrix(-5.375 0 0 -3.80838 20.434 6.126)" gradientUnits="userSpaceOnUse"><stop stop-color="#776789"/><stop offset=".92" stop-color="#614F75" stop-opacity="0"/></radialGradient><radialGradient id="paint63_radial_4002_2910" cx="0" cy="0" r="1" gradientTransform="matrix(.40625 4.75 -2.57443 .22018 18.1 10.602)" gradientUnits="userSpaceOnUse"><stop offset=".275" stop-color="#645673"/><stop offset="1" stop-color="#4B3562" stop-opacity="0"/></radialGradient><radialGradient id="paint64_radial_4002_2910" cx="0" cy="0" r="1" gradientTransform="matrix(0 11.8125 -12.0534 0 17.153 6.321)" gradientUnits="userSpaceOnUse"><stop offset=".783" stop-color="#42285C" stop-opacity="0"/><stop offset="1" stop-color="#261639"/></radialGradient><radialGradient id="paint65_radial_4002_2910" cx="0" cy="0" r="1" gradientTransform="matrix(-2.42187 1.26564 -.56686 -1.08471 15.21 11.602)" gradientUnits="userSpaceOnUse"><stop offset=".179" stop-color="#42374B"/><stop offset="1" stop-color="#42374B" stop-opacity="0"/></radialGradient><linearGradient id="paint0_linear_4002_2910" x1="7.475" x2="5.975" y1="16.696" y2="7.54" gradientUnits="userSpaceOnUse"><stop stop-color="#3A373F"/><stop offset=".521" stop-color="#4C3C5D"/><stop offset="1" stop-color="#5A4371"/></linearGradient><linearGradient id="paint1_linear_4002_2910" x1="8.318" x2="7.131" y1="12.633" y2="13.305" gradientUnits="userSpaceOnUse"><stop offset=".108" stop-color="#715F84"/><stop offset="1" stop-color="#715F84" stop-opacity="0"/></linearGradient><linearGradient id="paint4_linear_4002_2910" x1="5.673" x2="4.645" y1="8.372" y2="8.934" gradientUnits="userSpaceOnUse"><stop stop-color="#695D76"/><stop offset="1" stop-color="#4D3763"/></linearGradient><linearGradient id="paint5_linear_4002_2910" x1="4.307" x2="4.352" y1="8.151" y2="8.223" gradientUnits="userSpaceOnUse"><stop offset=".152" stop-color="#4C3B5D"/><stop offset="1" stop-color="#4C3B5D" stop-opacity="0"/></linearGradient><linearGradient id="paint6_linear_4002_2910" x1="4.832" x2="4.762" y1="9.02" y2="8.899" gradientUnits="userSpaceOnUse"><stop stop-color="#453F4D"/><stop offset=".634" stop-color="#4A4352" stop-opacity="0"/></linearGradient><linearGradient id="paint7_linear_4002_2910" x1="6.676" x2="5.649" y1="10.11" y2="10.673" gradientUnits="userSpaceOnUse"><stop stop-color="#695D76"/><stop offset="1" stop-color="#4D3763"/></linearGradient><linearGradient id="paint8_linear_4002_2910" x1="5.31" x2="5.356" y1="9.89" y2="9.962" gradientUnits="userSpaceOnUse"><stop offset=".152" stop-color="#4C3B5D"/><stop offset="1" stop-color="#4C3B5D" stop-opacity="0"/></linearGradient><linearGradient id="paint9_linear_4002_2910" x1="5.836" x2="5.766" y1="10.759" y2="10.638" gradientUnits="userSpaceOnUse"><stop stop-color="#453F4D"/><stop offset=".634" stop-color="#4A4352" stop-opacity="0"/></linearGradient><linearGradient id="paint10_linear_4002_2910" x1="7.675" x2="6.648" y1="11.841" y2="12.403" gradientUnits="userSpaceOnUse"><stop stop-color="#695D76"/><stop offset="1" stop-color="#4D3763"/></linearGradient><linearGradient id="paint11_linear_4002_2910" x1="6.309" x2="6.355" y1="11.62" y2="11.692" gradientUnits="userSpaceOnUse"><stop offset=".152" stop-color="#4C3B5D"/><stop offset="1" stop-color="#4C3B5D" stop-opacity="0"/></linearGradient><linearGradient id="paint12_linear_4002_2910" x1="6.835" x2="6.765" y1="12.489" y2="12.368" gradientUnits="userSpaceOnUse"><stop stop-color="#453F4D"/><stop offset=".634" stop-color="#4A4352" stop-opacity="0"/></linearGradient><linearGradient id="paint13_linear_4002_2910" x1="8.674" x2="7.647" y1="13.571" y2="14.133" gradientUnits="userSpaceOnUse"><stop stop-color="#695D76"/><stop offset="1" stop-color="#4D3763"/></linearGradient><linearGradient id="paint14_linear_4002_2910" x1="7.308" x2="7.354" y1="13.35" y2="13.422" gradientUnits="userSpaceOnUse"><stop offset=".152" stop-color="#4C3B5D"/><stop offset="1" stop-color="#4C3B5D" stop-opacity="0"/></linearGradient><linearGradient id="paint15_linear_4002_2910" x1="7.834" x2="7.764" y1="14.219" y2="14.098" gradientUnits="userSpaceOnUse"><stop stop-color="#453F4D"/><stop offset=".634" stop-color="#4A4352" stop-opacity="0"/></linearGradient><linearGradient id="paint17_linear_4002_2910" x1="8.318" x2="8.709" y1="16.008" y2="16.555" gradientUnits="userSpaceOnUse"><stop offset=".341" stop-color="#341C4B"/><stop offset="1" stop-color="#341C4B" stop-opacity="0"/></linearGradient><linearGradient id="paint20_linear_4002_2910" x1="11.381" x2="19.912" y1="29.477" y2="22.693" gradientUnits="userSpaceOnUse"><stop stop-color="#3E3548"/><stop offset="1" stop-color="#534464" stop-opacity="0"/></linearGradient><linearGradient id="paint25_linear_4002_2910" x1="18.803" x2="18.271" y1="19.469" y2="19.149" gradientUnits="userSpaceOnUse"><stop offset=".207" stop-color="#201232"/><stop offset="1" stop-color="#201232" stop-opacity="0"/></linearGradient><linearGradient id="paint26_linear_4002_2910" x1="21.756" x2="17.569" y1="16.415" y2="23.696" gradientUnits="userSpaceOnUse"><stop stop-color="#68537C"/><stop offset="1" stop-color="#615074"/></linearGradient><linearGradient id="paint28_linear_4002_2910" x1="21.139" x2="20.94" y1="20.856" y2="20.739" gradientUnits="userSpaceOnUse"><stop offset=".171" stop-color="#533C6B"/><stop offset="1" stop-color="#533C6B" stop-opacity="0"/></linearGradient><linearGradient id="paint29_linear_4002_2910" x1="19.24" x2="19.936" y1="18.086" y2="18.5" gradientUnits="userSpaceOnUse"><stop offset=".094" stop-color="#2F1C41"/><stop offset="1" stop-color="#4C375F" stop-opacity="0"/></linearGradient><linearGradient id="paint30_linear_4002_2910" x1="13.662" x2="20.444" y1="16.821" y2="29.933" gradientUnits="userSpaceOnUse"><stop stop-color="#5C4574"/><stop offset=".845" stop-color="#4B375E"/></linearGradient><linearGradient id="paint32_linear_4002_2910" x1="15.587" x2="16.187" y1="24.402" y2="24.025" gradientUnits="userSpaceOnUse"><stop stop-color="#2E1D40"/><stop offset=".376" stop-color="#493360"/><stop offset="1" stop-color="#493360" stop-opacity="0"/></linearGradient><linearGradient id="paint35_linear_4002_2910" x1="11.961" x2="8.13" y1="17.35" y2="17.348" gradientUnits="userSpaceOnUse"><stop stop-color="#59486A"/><stop offset="1" stop-color="#4A3460"/></linearGradient><linearGradient id="paint36_linear_4002_2910" x1="12.041" x2="10.283" y1="17.215" y2="17.198" gradientUnits="userSpaceOnUse"><stop offset=".176" stop-color="#6A5D78"/><stop offset="1" stop-color="#6A5D78" stop-opacity="0"/></linearGradient><linearGradient id="paint37_linear_4002_2910" x1="8.77" x2="8.772" y1="16.577" y2="16.81" gradientUnits="userSpaceOnUse"><stop offset=".238" stop-color="#473658"/><stop offset="1" stop-color="#473658" stop-opacity="0"/></linearGradient><linearGradient id="paint41_linear_4002_2910" x1="10.412" x2="9.975" y1="29.943" y2="29.943" gradientUnits="userSpaceOnUse"><stop stop-color="#291F36"/><stop offset="1" stop-color="#291F36" stop-opacity="0"/></linearGradient><linearGradient id="paint51_linear_4002_2910" x1="16.535" x2="17.756" y1="11.491" y2="11.491" gradientUnits="userSpaceOnUse"><stop offset=".435" stop-color="#A17A6A"/><stop offset=".813" stop-color="#C19D8A"/></linearGradient><linearGradient id="paint52_linear_4002_2910" x1="17.12" x2="17.038" y1="9.643" y2="10.404" gradientUnits="userSpaceOnUse"><stop stop-color="#AA7F73"/><stop offset="1" stop-color="#AA7F73" stop-opacity="0"/></linearGradient><linearGradient id="paint55_linear_4002_2910" x1="20.08" x2="19.767" y1="9.925" y2="10.118" gradientUnits="userSpaceOnUse"><stop stop-color="#B4948D"/><stop offset="1" stop-color="#B4948D" stop-opacity="0"/></linearGradient><linearGradient id="paint57_linear_4002_2910" x1="15.682" x2="15.368" y1="9.925" y2="10.118" gradientUnits="userSpaceOnUse"><stop stop-color="#B4948D"/><stop offset="1" stop-color="#B4948D" stop-opacity="0"/></linearGradient><linearGradient id="paint62_linear_4002_2910" x1="11.537" x2="15.506" y1="11.258" y2="11.04" gradientUnits="userSpaceOnUse"><stop stop-color="#544C5E"/><stop offset="1" stop-color="#544C5E" stop-opacity="0"/></linearGradient><linearGradient id="paint66_linear_4002_2910" x1="20.637" x2="18.246" y1="7.949" y2="7.83" gradientUnits="userSpaceOnUse"><stop stop-color="#553F40"/><stop offset="1" stop-color="#553F40" stop-opacity="0"/></linearGradient><linearGradient id="paint67_linear_4002_2910" x1="15.262" x2="13.231" y1="7.696" y2="8.384" gradientUnits="userSpaceOnUse"><stop stop-color="#553F40"/><stop offset="1" stop-color="#553F40" stop-opacity="0"/></linearGradient><filter id="filter0_i_4002_2910" width="5.634" height="3.967" x="5.81" y="13.48" color-interpolation-filters="sRGB" filterUnits="userSpaceOnUse"><feFlood flood-opacity="0" result="BackgroundImageFix"/><feBlend in="SourceGraphic" in2="BackgroundImageFix" result="shape"/><feColorMatrix in="SourceAlpha" result="hardAlpha" values="0 0 0 0 0 0 0 0 0 0 0 0 0 0 0 0 0 0 127 0"/><feOffset dy="-.1"/><feGaussianBlur stdDeviation=".075"/><feComposite in2="hardAlpha" k2="-1" k3="1" operator="arithmetic"/><feColorMatrix values="0 0 0 0 0.227451 0 0 0 0 0.141176 0 0 0 0 0.313726 0 0 0 1 0"/><feBlend in2="shape" result="effect1_innerShadow_4002_2910"/></filter><filter id="filter1_f_4002_2910" width="2.077" height="3.1" x="16.082" y="9.543" color-interpolation-filters="sRGB" filterUnits="userSpaceOnUse"><feFlood flood-opacity="0" result="BackgroundImageFix"/><feBlend in="SourceGraphic" in2="BackgroundImageFix" result="shape"/><feGaussianBlur result="effect1_foregroundBlur_4002_2910" stdDeviation=".05"/></filter><filter id="filter2_i_4002_2910" width="2.378" height="1.172" x="18.643" y="7.201" color-interpolation-filters="sRGB" filterUnits="userSpaceOnUse"><feFlood flood-opacity="0" result="BackgroundImageFix"/><feBlend in="SourceGraphic" in2="BackgroundImageFix" result="shape"/><feColorMatrix in="SourceAlpha" result="hardAlpha" values="0 0 0 0 0 0 0 0 0 0 0 0 0 0 0 0 0 0 127 0"/><feOffset dx=".1" dy="-.2"/><feGaussianBlur stdDeviation=".125"/><feComposite in2="hardAlpha" k2="-1" k3="1" operator="arithmetic"/><feColorMatrix values="0 0 0 0 0.227451 0 0 0 0 0.137255 0 0 0 0 0.14902 0 0 0 1 0"/><feBlend in2="shape" result="effect1_innerShadow_4002_2910"/></filter><filter id="filter3_i_4002_2910" width="2.378" height="1.172" x="13.393" y="7.201" color-interpolation-filters="sRGB" filterUnits="userSpaceOnUse"><feFlood flood-opacity="0" result="BackgroundImageFix"/><feBlend in="SourceGraphic" in2="BackgroundImageFix" result="shape"/><feColorMatrix in="SourceAlpha" result="hardAlpha" values="0 0 0 0 0 0 0 0 0 0 0 0 0 0 0 0 0 0 127 0"/><feOffset dx=".1" dy="-.2"/><feGaussianBlur stdDeviation=".125"/><feComposite in2="hardAlpha" k2="-1" k3="1" operator="arithmetic"/><feColorMatrix values="0 0 0 0 0.227451 0 0 0 0 0.137255 0 0 0 0 0.14902 0 0 0 1 0"/><feBlend in2="shape" result="effect1_innerShadow_4002_2910"/></filter><filter id="filter4_f_4002_2910" width=".787" height=".696" x="18.568" y="9.431" color-interpolation-filters="sRGB" filterUnits="userSpaceOnUse"><feFlood flood-opacity="0" result="BackgroundImageFix"/><feBlend in="SourceGraphic" in2="BackgroundImageFix" result="shape"/><feGaussianBlur result="effect1_foregroundBlur_4002_2910" stdDeviation=".05"/></filter><filter id="filter5_f_4002_2910" width=".891" height=".913" x="19.408" y="9.506" color-interpolation-filters="sRGB" filterUnits="userSpaceOnUse"><feFlood flood-opacity="0" result="BackgroundImageFix"/><feBlend in="SourceGraphic" in2="BackgroundImageFix" result="shape"/><feGaussianBlur result="effect1_foregroundBlur_4002_2910" stdDeviation=".1"/></filter><filter id="filter6_f_4002_2910" width=".986" height="1.04" x="14.965" y="9.443" color-interpolation-filters="sRGB" filterUnits="userSpaceOnUse"><feFlood flood-opacity="0" result="BackgroundImageFix"/><feBlend in="SourceGraphic" in2="BackgroundImageFix" result="shape"/><feGaussianBlur result="effect1_foregroundBlur_4002_2910" stdDeviation=".1"/></filter><filter id="filter7_f_4002_2910" width=".913" height=".705" x="14.21" y="9.423" color-interpolation-filters="sRGB" filterUnits="userSpaceOnUse"><feFlood flood-opacity="0" result="BackgroundImageFix"/><feBlend in="SourceGraphic" in2="BackgroundImageFix" result="shape"/><feGaussianBlur result="effect1_foregroundBlur_4002_2910" stdDeviation=".05"/></filter><filter id="filter8_iii_4002_2910" width="11.956" height="16.164" x="11.25" y="1.807" color-interpolation-filters="sRGB" filterUnits="userSpaceOnUse"><feFlood flood-opacity="0" result="BackgroundImageFix"/><feBlend in="SourceGraphic" in2="BackgroundImageFix" result="shape"/><feColorMatrix in="SourceAlpha" result="hardAlpha" values="0 0 0 0 0 0 0 0 0 0 0 0 0 0 0 0 0 0 127 0"/><feOffset dy="-.25"/><feGaussianBlur stdDeviation=".125"/><feComposite in2="hardAlpha" k2="-1" k3="1" operator="arithmetic"/><feColorMatrix values="0 0 0 0 0.32549 0 0 0 0 0.184314 0 0 0 0 0.372549 0 0 0 1 0"/><feBlend in2="shape" result="effect1_innerShadow_4002_2910"/><feColorMatrix in="SourceAlpha" result="hardAlpha" values="0 0 0 0 0 0 0 0 0 0 0 0 0 0 0 0 0 0 127 0"/><feOffset dx=".15" dy=".15"/><feGaussianBlur stdDeviation=".2"/><feComposite in2="hardAlpha" k2="-1" k3="1" operator="arithmetic"/><feColorMatrix values="0 0 0 0 0.45098 0 0 0 0 0.4 0 0 0 0 0.47451 0 0 0 1 0"/><feBlend in2="effect1_innerShadow_4002_2910" result="effect2_innerShadow_4002_2910"/><feColorMatrix in="SourceAlpha" result="hardAlpha" values="0 0 0 0 0 0 0 0 0 0 0 0 0 0 0 0 0 0 127 0"/><feOffset dx=".05" dy=".05"/><feGaussianBlur stdDeviation=".1"/><feComposite in2="hardAlpha" k2="-1" k3="1" operator="arithmetic"/><feColorMatrix values="0 0 0 0 0.235294 0 0 0 0 0.152941 0 0 0 0 0.301961 0 0 0 1 0"/><feBlend in2="effect2_innerShadow_4002_2910" result="effect3_innerShadow_4002_2910"/></filter><filter id="filter9_f_4002_2910" width="2.281" height=".982" x="18.689" y="7.339" color-interpolation-filters="sRGB" filterUnits="userSpaceOnUse"><feFlood flood-opacity="0" result="BackgroundImageFix"/><feBlend in="SourceGraphic" in2="BackgroundImageFix" result="shape"/><feGaussianBlur result="effect1_foregroundBlur_4002_2910" stdDeviation=".075"/></filter><filter id="filter10_f_4002_2910" width="2.281" height=".982" x="13.344" y="7.339" color-interpolation-filters="sRGB" filterUnits="userSpaceOnUse"><feFlood flood-opacity="0" result="BackgroundImageFix"/><feBlend in="SourceGraphic" in2="BackgroundImageFix" result="shape"/><feGaussianBlur result="effect1_foregroundBlur_4002_2910" stdDeviation=".075"/></filter></defs></svg>