<svg xmlns="http://www.w3.org/2000/svg" width="32" height="32" fill="none" viewBox="0 0 32 32"><g filter="url(#filter0_i_3987_19710)"><circle cx="7.262" cy="17.89" r="3.113" fill="url(#paint0_radial_3987_19710)"/></g><g filter="url(#filter1_f_3987_19710)"><circle cx="7.262" cy="17.89" r="1.855" fill="url(#paint1_linear_3987_19710)"/></g><g filter="url(#filter2_i_3987_19710)"><circle cx="25.003" cy="17.89" r="3.113" fill="url(#paint2_linear_3987_19710)"/><circle cx="25.003" cy="17.89" r="3.113" fill="url(#paint3_radial_3987_19710)"/></g><g filter="url(#filter3_f_3987_19710)"><circle cx="25.003" cy="17.89" r="1.855" fill="#7A5654"/><circle cx="25.003" cy="17.89" r="1.855" fill="url(#paint4_radial_3987_19710)"/><circle cx="25.003" cy="17.89" r="1.855" fill="url(#paint5_radial_3987_19710)"/></g><g filter="url(#filter4_i_3987_19710)"><path fill="url(#paint6_linear_3987_19710)" d="M6.606 16.747c.03.002.06.003.091.003 0 0-.1-1.591-.2-2.685 0-.498.2-1.094.6-1.393l.3-.298c.5-.398.7-.995.7-1.591V9.19c0-.497.301-.895.801-.994 1.2-.299 3.701-.796 7.302-.796 3.601 0 6.102.497 7.302.796.4.099.8.497.8.994v1.591c0 .597.3 1.194.7 1.592.937.656.879 1.017.801 1.79-.1.995-.2 2.685-.2 2.685h.034l-.496 7.382c-.3 3.3-2.894 5.6-5.987 5.6h-5.987c-3.193 0-5.687-2.3-5.987-5.6l-.574-7.484Z"/><path fill="url(#paint7_radial_3987_19710)" d="M6.606 16.747c.03.002.06.003.091.003 0 0-.1-1.591-.2-2.685 0-.498.2-1.094.6-1.393l.3-.298c.5-.398.7-.995.7-1.591V9.19c0-.497.301-.895.801-.994 1.2-.299 3.701-.796 7.302-.796 3.601 0 6.102.497 7.302.796.4.099.8.497.8.994v1.591c0 .597.3 1.194.7 1.592.937.656.879 1.017.801 1.79-.1.995-.2 2.685-.2 2.685h.034l-.496 7.382c-.3 3.3-2.894 5.6-5.987 5.6h-5.987c-3.193 0-5.687-2.3-5.987-5.6l-.574-7.484Z"/><path fill="url(#paint8_radial_3987_19710)" d="M6.606 16.747c.03.002.06.003.091.003 0 0-.1-1.591-.2-2.685 0-.498.2-1.094.6-1.393l.3-.298c.5-.398.7-.995.7-1.591V9.19c0-.497.301-.895.801-.994 1.2-.299 3.701-.796 7.302-.796 3.601 0 6.102.497 7.302.796.4.099.8.497.8.994v1.591c0 .597.3 1.194.7 1.592.937.656.879 1.017.801 1.79-.1.995-.2 2.685-.2 2.685h.034l-.496 7.382c-.3 3.3-2.894 5.6-5.987 5.6h-5.987c-3.193 0-5.687-2.3-5.987-5.6l-.574-7.484Z"/></g><path fill="url(#paint9_linear_3987_19710)" d="M6.497 14.065c0-.498.2-1.094.6-1.393l.3-.298c.5-.398.7-.995.7-1.591V9.19c0-.497.301-.895.801-.994 1.2-.299 3.701-.796 7.302-.796 3.601 0 6.102.497 7.302.796.4.099.8.497.8.994v1.591c0 .597.3 1.194.7 1.592.937.656.879 1.017.801 1.79-.1.995-.2 2.685-.2 2.685h.034l-.496 7.382c-.3 3.3-2.894 5.6-5.987 5.6h-5.987c-3.193 0-5.687-2.3-5.987-5.6-.26-3.387-.373-6.785-.683-10.166Z"/><path fill="url(#paint10_linear_3987_19710)" d="M6.497 14.065c0-.498.2-1.094.6-1.393l.3-.298c.5-.398.7-.995.7-1.591V9.19c0-.497.301-.895.801-.994 1.2-.299 3.701-.796 7.302-.796 3.601 0 6.102.497 7.302.796.4.099.8.497.8.994v1.591c0 .597.3 1.194.7 1.592.937.656.879 1.017.801 1.79-.1.995-.2 2.685-.2 2.685h.034l-.496 7.382c-.3 3.3-2.894 5.6-5.987 5.6h-5.987c-3.193 0-5.687-2.3-5.987-5.6-.26-3.387-.373-6.785-.683-10.166Z"/><path fill="url(#paint11_radial_3987_19710)" d="M6.497 14.065c0-.498.2-1.094.6-1.393l.3-.298c.5-.398.7-.995.7-1.591V9.19c0-.497.301-.895.801-.994 1.2-.299 3.701-.796 7.302-.796 3.601 0 6.102.497 7.302.796.4.099.8.497.8.994v1.591c0 .597.3 1.194.7 1.592.937.656.879 1.017.801 1.79-.1.995-.2 2.685-.2 2.685h.034l-.496 7.382c-.3 3.3-2.894 5.6-5.987 5.6h-5.987c-3.193 0-5.687-2.3-5.987-5.6-.26-3.387-.373-6.785-.683-10.166Z"/><path fill="url(#paint12_linear_3987_19710)" d="M6.497 14.065c0-.498.2-1.094.6-1.393l.3-.298c.5-.398.7-.995.7-1.591V9.19c0-.497.301-.895.801-.994 1.2-.299 3.701-.796 7.302-.796 3.601 0 6.102.497 7.302.796.4.099.8.497.8.994v1.591c0 .597.3 1.194.7 1.592.937.656.879 1.017.801 1.79-.1.995-.2 2.685-.2 2.685h.034l-.496 7.382c-.3 3.3-2.894 5.6-5.987 5.6h-5.987c-3.193 0-5.687-2.3-5.987-5.6-.26-3.387-.373-6.785-.683-10.166Z"/><g filter="url(#filter5_f_3987_19710)"><path fill="url(#paint13_linear_3987_19710)" d="m23.508 7.4-5.74 1.914a1.953 1.953 0 0 0 .878 3.788l5.706-.764-.844-4.937Z"/></g><g filter="url(#filter6_i_3987_19710)"><path fill="#27151C" d="m25.103 5.81.8.397c1.4.697 2.2 2.288 1.9 3.979l-1.1 5.669c-.098.585-.485.98-1.066.994h-.034s.1-1.69.2-2.685c.081-.807-.06-1.054-.8-1.79-.4-.398-.7-.995-.7-1.591V9.19c0-.497-.4-.895-.8-.994-1.2-.299-3.702-.796-7.303-.796-3.6 0-6.101.497-7.302.796-.5.099-.8.497-.8.994v1.591c0 .597-.2 1.194-.7 1.592l-.3.298c-.4.299-.6.895-.6 1.393.1 1.094.2 2.685.2 2.685a1.181 1.181 0 0 1-1.2-.995l-1.101-5.669c-.2-1.591.6-3.182 2-3.879l.8-.397c.5-.299 1-.697 1.501-1.094l1.8-1.89c1.1-.995 2.701-1.293 4.102-.597 1 .298 2.1.298 3.1 0 1.501-.497 3.202-.1 4.402.995l1.5 1.492c.4.497.9.795 1.5 1.094Z"/><path fill="url(#paint14_radial_3987_19710)" d="m25.103 5.81.8.397c1.4.697 2.2 2.288 1.9 3.979l-1.1 5.669c-.098.585-.485.98-1.066.994h-.034s.1-1.69.2-2.685c.081-.807-.06-1.054-.8-1.79-.4-.398-.7-.995-.7-1.591V9.19c0-.497-.4-.895-.8-.994-1.2-.299-3.702-.796-7.303-.796-3.6 0-6.101.497-7.302.796-.5.099-.8.497-.8.994v1.591c0 .597-.2 1.194-.7 1.592l-.3.298c-.4.299-.6.895-.6 1.393.1 1.094.2 2.685.2 2.685a1.181 1.181 0 0 1-1.2-.995l-1.101-5.669c-.2-1.591.6-3.182 2-3.879l.8-.397c.5-.299 1-.697 1.501-1.094l1.8-1.89c1.1-.995 2.701-1.293 4.102-.597 1 .298 2.1.298 3.1 0 1.501-.497 3.202-.1 4.402.995l1.5 1.492c.4.497.9.795 1.5 1.094Z"/><path fill="url(#paint15_radial_3987_19710)" d="m25.103 5.81.8.397c1.4.697 2.2 2.288 1.9 3.979l-1.1 5.669c-.098.585-.485.98-1.066.994h-.034s.1-1.69.2-2.685c.081-.807-.06-1.054-.8-1.79-.4-.398-.7-.995-.7-1.591V9.19c0-.497-.4-.895-.8-.994-1.2-.299-3.702-.796-7.303-.796-3.6 0-6.101.497-7.302.796-.5.099-.8.497-.8.994v1.591c0 .597-.2 1.194-.7 1.592l-.3.298c-.4.299-.6.895-.6 1.393.1 1.094.2 2.685.2 2.685a1.181 1.181 0 0 1-1.2-.995l-1.101-5.669c-.2-1.591.6-3.182 2-3.879l.8-.397c.5-.299 1-.697 1.501-1.094l1.8-1.89c1.1-.995 2.701-1.293 4.102-.597 1 .298 2.1.298 3.1 0 1.501-.497 3.202-.1 4.402.995l1.5 1.492c.4.497.9.795 1.5 1.094Z"/><path fill="url(#paint16_radial_3987_19710)" d="m25.103 5.81.8.397c1.4.697 2.2 2.288 1.9 3.979l-1.1 5.669c-.098.585-.485.98-1.066.994h-.034s.1-1.69.2-2.685c.081-.807-.06-1.054-.8-1.79-.4-.398-.7-.995-.7-1.591V9.19c0-.497-.4-.895-.8-.994-1.2-.299-3.702-.796-7.303-.796-3.6 0-6.101.497-7.302.796-.5.099-.8.497-.8.994v1.591c0 .597-.2 1.194-.7 1.592l-.3.298c-.4.299-.6.895-.6 1.393.1 1.094.2 2.685.2 2.685a1.181 1.181 0 0 1-1.2-.995l-1.101-5.669c-.2-1.591.6-3.182 2-3.879l.8-.397c.5-.299 1-.697 1.501-1.094l1.8-1.89c1.1-.995 2.701-1.293 4.102-.597 1 .298 2.1.298 3.1 0 1.501-.497 3.202-.1 4.402.995l1.5 1.492c.4.497.9.795 1.5 1.094Z"/><path fill="url(#paint17_radial_3987_19710)" d="m25.103 5.81.8.397c1.4.697 2.2 2.288 1.9 3.979l-1.1 5.669c-.098.585-.485.98-1.066.994h-.034s.1-1.69.2-2.685c.081-.807-.06-1.054-.8-1.79-.4-.398-.7-.995-.7-1.591V9.19c0-.497-.4-.895-.8-.994-1.2-.299-3.702-.796-7.303-.796-3.6 0-6.101.497-7.302.796-.5.099-.8.497-.8.994v1.591c0 .597-.2 1.194-.7 1.592l-.3.298c-.4.299-.6.895-.6 1.393.1 1.094.2 2.685.2 2.685a1.181 1.181 0 0 1-1.2-.995l-1.101-5.669c-.2-1.591.6-3.182 2-3.879l.8-.397c.5-.299 1-.697 1.501-1.094l1.8-1.89c1.1-.995 2.701-1.293 4.102-.597 1 .298 2.1.298 3.1 0 1.501-.497 3.202-.1 4.402.995l1.5 1.492c.4.497.9.795 1.5 1.094Z"/></g><g filter="url(#filter7_f_3987_19710)"><path fill="#71404A" d="m15.603 17.662-1.53 3.17c-.19.651.266 1.303.91 1.303h1.375c.645 0 1.1-.662.91-1.304l-.929-3.17c-.199-.701-.527-.701-.736 0Z"/></g><g filter="url(#filter8_f_3987_19710)"><path fill="#8C5F5E" d="m15.404 17.358-.991 3.17a1.005 1.005 0 0 0 .97 1.303h1.466c.688 0 1.173-.662.971-1.304l-.99-3.17c-.213-.701-1.204-.701-1.426 0Z"/><path fill="url(#paint18_linear_3987_19710)" d="m15.404 17.358-.991 3.17a1.005 1.005 0 0 0 .97 1.303h1.466c.688 0 1.173-.662.971-1.304l-.99-3.17c-.213-.701-1.204-.701-1.426 0Z"/><path fill="url(#paint19_linear_3987_19710)" d="m15.404 17.358-.991 3.17a1.005 1.005 0 0 0 .97 1.303h1.466c.688 0 1.173-.662.971-1.304l-.99-3.17c-.213-.701-1.204-.701-1.426 0Z"/><path fill="url(#paint20_linear_3987_19710)" d="m15.404 17.358-.991 3.17a1.005 1.005 0 0 0 .97 1.303h1.466c.688 0 1.173-.662.971-1.304l-.99-3.17c-.213-.701-1.204-.701-1.426 0Z"/><path fill="url(#paint21_radial_3987_19710)" d="m15.404 17.358-.991 3.17a1.005 1.005 0 0 0 .97 1.303h1.466c.688 0 1.173-.662.971-1.304l-.99-3.17c-.213-.701-1.204-.701-1.426 0Z"/></g><path fill="url(#paint22_linear_3987_19710)" d="m15.404 17.358-.991 3.17a1.005 1.005 0 0 0 .97 1.303h1.466c.688 0 1.173-.662.971-1.304l-.99-3.17c-.213-.701-1.204-.701-1.426 0Z"/><path fill="#88014F" stroke="url(#paint23_linear_3987_19710)" stroke-width=".1" d="M13.556 23.07a.335.335 0 0 0-.4.069.305.305 0 0 0-.033.393 3.58 3.58 0 0 0 2.993 1.599 3.58 3.58 0 0 0 2.994-1.6.31.31 0 0 0-.034-.396.336.336 0 0 0-.4-.066 5.524 5.524 0 0 1-2.56.608c-.938 0-1.82-.221-2.56-.607Z"/><g filter="url(#filter9_i_3987_19710)"><path fill="#352827" d="m23.053 12.817-.003-.002-.003-.002-.008-.007-.023-.018a2.874 2.874 0 0 0-.288-.2 4.826 4.826 0 0 0-.783-.394 5.283 5.283 0 0 0-2.784-.295.995.995 0 1 0 .31 1.967 3.294 3.294 0 0 1 1.742.18 2.827 2.827 0 0 1 .56.297l.015.011a.995.995 0 0 0 1.265-1.537Z"/><path fill="url(#paint24_radial_3987_19710)" d="m23.053 12.817-.003-.002-.003-.002-.008-.007-.023-.018a2.874 2.874 0 0 0-.288-.2 4.826 4.826 0 0 0-.783-.394 5.283 5.283 0 0 0-2.784-.295.995.995 0 1 0 .31 1.967 3.294 3.294 0 0 1 1.742.18 2.827 2.827 0 0 1 .56.297l.015.011a.995.995 0 0 0 1.265-1.537Z"/></g><g filter="url(#filter10_i_3987_19710)"><path fill="#352827" d="M9.08 12.818v-.001l.002-.002.004-.002.008-.007.022-.018.067-.05a4.804 4.804 0 0 1 1.005-.544 5.284 5.284 0 0 1 2.784-.295.995.995 0 0 1-.31 1.967 3.293 3.293 0 0 0-1.742.18 2.824 2.824 0 0 0-.56.297.995.995 0 1 1-1.28-1.525Z"/><path fill="url(#paint25_radial_3987_19710)" d="M9.08 12.818v-.001l.002-.002.004-.002.008-.007.022-.018.067-.05a4.804 4.804 0 0 1 1.005-.544 5.284 5.284 0 0 1 2.784-.295.995.995 0 0 1-.31 1.967 3.293 3.293 0 0 0-1.742.18 2.824 2.824 0 0 0-.56.297.995.995 0 1 1-1.28-1.525Z"/></g><path fill="#fff" d="M20.57 15.222c1.217 0 2.245.84 2.525 1.974a.511.511 0 0 1-.499.635h-4.16a.43.43 0 0 1-.423-.507 2.606 2.606 0 0 1 2.556-2.102Z"/><path fill="url(#paint26_radial_3987_19710)" d="M20.183 15.729a1.664 1.664 0 0 1 1.604 2.102h-3.214a1.706 1.706 0 0 1-.061-.439 1.67 1.67 0 0 1 1.671-1.663Z"/><path fill="#000" d="M19.23 17.392c0-.53.424-.953.953-.953.53 0 .953.424.953.953a.94.94 0 0 1-.105.439h-1.687a.861.861 0 0 1-.114-.439Z"/><g filter="url(#filter11_f_3987_19710)"><path fill="#C7A7A3" d="M20.061 16.08c.119.159-.13.352-.41.563-.283.21-.492.359-.61.2-.119-.159.014-.458.295-.669.282-.21.607-.252.725-.094Z"/><path fill="url(#paint27_radial_3987_19710)" d="M20.061 16.08c.119.159-.13.352-.41.563-.283.21-.492.359-.61.2-.119-.159.014-.458.295-.669.282-.21.607-.252.725-.094Z"/></g><g filter="url(#filter12_f_3987_19710)"><path fill="url(#paint28_linear_3987_19710)" d="M21.666 17.173a1.566 1.566 0 0 0-.432-.862l-.484.531.218.426.698-.095Z"/></g><path fill="#fff" d="M11.654 15.222c-1.218 0-2.247.84-2.526 1.974a.511.511 0 0 0 .499.635h4.16a.43.43 0 0 0 .423-.507 2.612 2.612 0 0 0-2.556-2.102Z"/><path fill="url(#paint29_radial_3987_19710)" d="M12.04 15.728a1.664 1.664 0 0 0-1.604 2.103h3.215a1.74 1.74 0 0 0 .06-.439 1.675 1.675 0 0 0-1.671-1.664Z"/><path fill="#000" d="M12.993 17.392a.95.95 0 0 0-.953-.953.95.95 0 0 0-.954.953c0 .16.038.31.106.439h1.687a.944.944 0 0 0 .114-.439Z"/><g filter="url(#filter13_f_3987_19710)"><path fill="url(#paint30_linear_3987_19710)" d="M13.56 17.197c0-.538-.438-.896-.556-1.005l-.537.52.33.674.763-.19Z"/></g><g filter="url(#filter14_f_3987_19710)" transform="rotate(-27.914 11.537 16.44)"><ellipse cx="11.537" cy="16.439" fill="#C7A7A3" fill-opacity=".9" rx=".726" ry=".368"/><ellipse cx="11.537" cy="16.439" fill="url(#paint31_radial_3987_19710)" rx=".726" ry=".368"/></g><g filter="url(#filter15_f_3987_19710)"><path stroke="url(#paint32_linear_3987_19710)" stroke-linecap="round" stroke-width=".5" d="M19.213 12.548c.802-.14 2.366-.1 3.449.742"/></g><g filter="url(#filter16_f_3987_19710)"><path stroke="url(#paint33_linear_3987_19710)" stroke-linecap="round" stroke-width=".5" d="M9.48 13.515c.61-.54 1.942-1.107 3.593-.844"/></g><g filter="url(#filter17_f_3987_19710)"><path stroke="url(#paint34_linear_3987_19710)" stroke-linecap="round" stroke-width=".25" d="M7.663 8.917v1.674c-.014.277-.131.897-.481 1.16"/></g><defs><radialGradient id="paint0_radial_3987_19710" cx="0" cy="0" r="1" gradientTransform="matrix(3.27255 0 0 5.72699 4.149 17.89)" gradientUnits="userSpaceOnUse"><stop offset=".351" stop-color="#664249"/><stop offset="1" stop-color="#613641"/></radialGradient><radialGradient id="paint3_radial_3987_19710" cx="0" cy="0" r="1" gradientTransform="matrix(1.54168 -1.12256 1.28126 1.75963 25.697 17.396)" gradientUnits="userSpaceOnUse"><stop offset=".543" stop-color="#7C524C"/><stop offset="1" stop-color="#7C524C" stop-opacity="0"/></radialGradient><radialGradient id="paint4_radial_3987_19710" cx="0" cy="0" r="1" gradientTransform="matrix(1.53153 -2.8169 1.64874 .8964 24.926 19.421)" gradientUnits="userSpaceOnUse"><stop offset=".755" stop-color="#73443E" stop-opacity="0"/><stop offset=".916" stop-color="#73443E"/></radialGradient><radialGradient id="paint5_radial_3987_19710" cx="0" cy="0" r="1" gradientTransform="rotate(44.708 -9.25 39.345) scale(.68036 .87707)" gradientUnits="userSpaceOnUse"><stop stop-color="#6C443E"/><stop offset="1" stop-color="#6C443E" stop-opacity="0"/></radialGradient><radialGradient id="paint7_radial_3987_19710" cx="0" cy="0" r="1" gradientTransform="matrix(0 -2.4375 3 0 20.491 15.518)" gradientUnits="userSpaceOnUse"><stop stop-color="#855354"/><stop offset="1" stop-color="#855354" stop-opacity="0"/></radialGradient><radialGradient id="paint8_radial_3987_19710" cx="0" cy="0" r="1" gradientTransform="matrix(0 -2.5625 3.1867 0 11.991 15.768)" gradientUnits="userSpaceOnUse"><stop stop-color="#6F414D"/><stop offset="1" stop-color="#6F414D" stop-opacity="0"/></radialGradient><radialGradient id="paint11_radial_3987_19710" cx="0" cy="0" r="1" gradientTransform="matrix(0 15.25 -20.7011 0 15.554 14.581)" gradientUnits="userSpaceOnUse"><stop offset=".71" stop-color="#7D4371" stop-opacity="0"/><stop offset="1" stop-color="#7D4371"/></radialGradient><radialGradient id="paint14_radial_3987_19710" cx="0" cy="0" r="1" gradientTransform="matrix(1.4878 -5.51363 2.04463 .55173 24.22 10.232)" gradientUnits="userSpaceOnUse"><stop stop-color="#3D3437"/><stop offset="1" stop-color="#3D3437" stop-opacity="0"/></radialGradient><radialGradient id="paint15_radial_3987_19710" cx="0" cy="0" r="1" gradientTransform="matrix(7.13272 .65639 -.35293 3.83521 21.156 6.95)" gradientUnits="userSpaceOnUse"><stop offset=".122" stop-color="#46383D"/><stop offset="1" stop-color="#46383D" stop-opacity="0"/></radialGradient><radialGradient id="paint16_radial_3987_19710" cx="0" cy="0" r="1" gradientTransform="matrix(0 3.1314 -4.84965 0 16.116 1.85)" gradientUnits="userSpaceOnUse"><stop stop-color="#3E3034"/><stop offset="1" stop-color="#3E3034" stop-opacity="0"/></radialGradient><radialGradient id="paint17_radial_3987_19710" cx="0" cy="0" r="1" gradientTransform="rotate(-36.235 24.302 1.031) scale(7.1069 11.1342)" gradientUnits="userSpaceOnUse"><stop stop-color="#453938"/><stop offset="1" stop-color="#453938" stop-opacity="0"/></radialGradient><radialGradient id="paint21_radial_3987_19710" cx="0" cy="0" r="1" gradientTransform="matrix(0 .36719 -1.17969 0 16.727 20.886)" gradientUnits="userSpaceOnUse"><stop stop-color="#976F6A"/><stop offset="1" stop-color="#976F6A" stop-opacity="0"/></radialGradient><radialGradient id="paint24_radial_3987_19710" cx="0" cy="0" r="1" gradientTransform="matrix(.1943 -1.125 3.32822 .57484 20.672 14.003)" gradientUnits="userSpaceOnUse"><stop stop-color="#301A2D"/><stop offset="1" stop-color="#301A2D" stop-opacity="0"/></radialGradient><radialGradient id="paint25_radial_3987_19710" cx="0" cy="0" r="1" gradientTransform="rotate(-80.2 13.85 .427) scale(1.14166 3.37768)" gradientUnits="userSpaceOnUse"><stop stop-color="#301A2D"/><stop offset="1" stop-color="#301A2D" stop-opacity="0"/></radialGradient><radialGradient id="paint26_radial_3987_19710" cx="0" cy="0" r="1" gradientTransform="matrix(0 1.51263 -2.40601 0 20.18 16.618)" gradientUnits="userSpaceOnUse"><stop offset=".802" stop-color="#7D574A"/><stop offset="1" stop-color="#694B43"/><stop offset="1" stop-color="#804D49"/><stop offset="1" stop-color="#664944"/></radialGradient><radialGradient id="paint27_radial_3987_19710" cx="0" cy="0" r="1" gradientTransform="rotate(-127.812 13.985 3.55) scale(.70528 .97101)" gradientUnits="userSpaceOnUse"><stop offset=".766" stop-color="#FFE6E2" stop-opacity="0"/><stop offset=".966" stop-color="#FFE6E2"/></radialGradient><radialGradient id="paint29_radial_3987_19710" cx="0" cy="0" r="1" gradientTransform="matrix(0 1.51271 -2.40614 0 12.043 16.618)" gradientUnits="userSpaceOnUse"><stop offset=".802" stop-color="#7D574A"/><stop offset="1" stop-color="#694B43"/><stop offset="1" stop-color="#804D49"/><stop offset="1" stop-color="#664944"/></radialGradient><radialGradient id="paint31_radial_3987_19710" cx="0" cy="0" r="1" gradientTransform="rotate(-90.897 14.136 2.848) scale(.92129 1.10743)" gradientUnits="userSpaceOnUse"><stop offset=".766" stop-color="#FFE6E2" stop-opacity="0"/><stop offset=".966" stop-color="#FFE6E2"/></radialGradient><filter id="filter0_i_3987_19710" width="6.427" height="6.227" x="4.149" y="14.776" color-interpolation-filters="sRGB" filterUnits="userSpaceOnUse"><feFlood flood-opacity="0" result="BackgroundImageFix"/><feBlend in="SourceGraphic" in2="BackgroundImageFix" result="shape"/><feColorMatrix in="SourceAlpha" result="hardAlpha" values="0 0 0 0 0 0 0 0 0 0 0 0 0 0 0 0 0 0 127 0"/><feOffset dx=".2"/><feGaussianBlur stdDeviation=".15"/><feComposite in2="hardAlpha" k2="-1" k3="1" operator="arithmetic"/><feColorMatrix values="0 0 0 0 0.517647 0 0 0 0 0.384314 0 0 0 0 0.34902 0 0 0 1 0"/><feBlend in2="shape" result="effect1_innerShadow_3987_19710"/></filter><filter id="filter1_f_3987_19710" width="4.711" height="4.711" x="4.907" y="15.534" color-interpolation-filters="sRGB" filterUnits="userSpaceOnUse"><feFlood flood-opacity="0" result="BackgroundImageFix"/><feBlend in="SourceGraphic" in2="BackgroundImageFix" result="shape"/><feGaussianBlur result="effect1_foregroundBlur_3987_19710" stdDeviation=".25"/></filter><filter id="filter2_i_3987_19710" width="6.477" height="6.477" x="21.89" y="14.526" color-interpolation-filters="sRGB" filterUnits="userSpaceOnUse"><feFlood flood-opacity="0" result="BackgroundImageFix"/><feBlend in="SourceGraphic" in2="BackgroundImageFix" result="shape"/><feColorMatrix in="SourceAlpha" result="hardAlpha" values="0 0 0 0 0 0 0 0 0 0 0 0 0 0 0 0 0 0 127 0"/><feOffset dx=".25" dy="-.25"/><feGaussianBlur stdDeviation=".25"/><feComposite in2="hardAlpha" k2="-1" k3="1" operator="arithmetic"/><feColorMatrix values="0 0 0 0 0.482353 0 0 0 0 0.278431 0 0 0 0 0.372549 0 0 0 1 0"/><feBlend in2="shape" result="effect1_innerShadow_3987_19710"/></filter><filter id="filter3_f_3987_19710" width="4.711" height="4.711" x="22.648" y="15.534" color-interpolation-filters="sRGB" filterUnits="userSpaceOnUse"><feFlood flood-opacity="0" result="BackgroundImageFix"/><feBlend in="SourceGraphic" in2="BackgroundImageFix" result="shape"/><feGaussianBlur result="effect1_foregroundBlur_3987_19710" stdDeviation=".25"/></filter><filter id="filter4_i_3987_19710" width="19.345" height="22.68" x="6.497" y="7.401" color-interpolation-filters="sRGB" filterUnits="userSpaceOnUse"><feFlood flood-opacity="0" result="BackgroundImageFix"/><feBlend in="SourceGraphic" in2="BackgroundImageFix" result="shape"/><feColorMatrix in="SourceAlpha" result="hardAlpha" values="0 0 0 0 0 0 0 0 0 0 0 0 0 0 0 0 0 0 127 0"/><feOffset dy=".25"/><feGaussianBlur stdDeviation=".375"/><feComposite in2="hardAlpha" k2="-1" k3="1" operator="arithmetic"/><feColorMatrix values="0 0 0 0 0.254902 0 0 0 0 0.137255 0 0 0 0 0.113725 0 0 0 1 0"/><feBlend in2="shape" result="effect1_innerShadow_3987_19710"/></filter><filter id="filter5_f_3987_19710" width="11.918" height="9.719" x="14.433" y="5.401" color-interpolation-filters="sRGB" filterUnits="userSpaceOnUse"><feFlood flood-opacity="0" result="BackgroundImageFix"/><feBlend in="SourceGraphic" in2="BackgroundImageFix" result="shape"/><feGaussianBlur result="effect1_foregroundBlur_3987_19710" stdDeviation="1"/></filter><filter id="filter6_i_3987_19710" width="23.5" height="15.5" x="4.366" y="1.35" color-interpolation-filters="sRGB" filterUnits="userSpaceOnUse"><feFlood flood-opacity="0" result="BackgroundImageFix"/><feBlend in="SourceGraphic" in2="BackgroundImageFix" result="shape"/><feColorMatrix in="SourceAlpha" result="hardAlpha" values="0 0 0 0 0 0 0 0 0 0 0 0 0 0 0 0 0 0 127 0"/><feOffset dy="-.5"/><feGaussianBlur stdDeviation=".375"/><feComposite in2="hardAlpha" k2="-1" k3="1" operator="arithmetic"/><feColorMatrix values="0 0 0 0 0.0392157 0 0 0 0 0.00784314 0 0 0 0 0.0196078 0 0 0 1 0"/><feBlend in2="shape" result="effect1_innerShadow_3987_19710"/></filter><filter id="filter7_f_3987_19710" width="4.782" height="6.5" x="13.28" y="16.385" color-interpolation-filters="sRGB" filterUnits="userSpaceOnUse"><feFlood flood-opacity="0" result="BackgroundImageFix"/><feBlend in="SourceGraphic" in2="BackgroundImageFix" result="shape"/><feGaussianBlur result="effect1_foregroundBlur_3987_19710" stdDeviation=".375"/></filter><filter id="filter8_f_3987_19710" width="4" height="5.5" x="14.116" y="16.581" color-interpolation-filters="sRGB" filterUnits="userSpaceOnUse"><feFlood flood-opacity="0" result="BackgroundImageFix"/><feBlend in="SourceGraphic" in2="BackgroundImageFix" result="shape"/><feGaussianBlur result="effect1_foregroundBlur_3987_19710" stdDeviation=".125"/></filter><filter id="filter9_i_3987_19710" width="5.34" height="3.147" x="18.321" y="11.431" color-interpolation-filters="sRGB" filterUnits="userSpaceOnUse"><feFlood flood-opacity="0" result="BackgroundImageFix"/><feBlend in="SourceGraphic" in2="BackgroundImageFix" result="shape"/><feColorMatrix in="SourceAlpha" result="hardAlpha" values="0 0 0 0 0 0 0 0 0 0 0 0 0 0 0 0 0 0 127 0"/><feOffset dx=".25" dy="-.4"/><feGaussianBlur stdDeviation=".3"/><feComposite in2="hardAlpha" k2="-1" k3="1" operator="arithmetic"/><feColorMatrix values="0 0 0 0 0.156863 0 0 0 0 0.0784314 0 0 0 0 0.109804 0 0 0 1 0"/><feBlend in2="shape" result="effect1_innerShadow_3987_19710"/></filter><filter id="filter10_i_3987_19710" width="5.341" height="3.147" x="8.721" y="11.431" color-interpolation-filters="sRGB" filterUnits="userSpaceOnUse"><feFlood flood-opacity="0" result="BackgroundImageFix"/><feBlend in="SourceGraphic" in2="BackgroundImageFix" result="shape"/><feColorMatrix in="SourceAlpha" result="hardAlpha" values="0 0 0 0 0 0 0 0 0 0 0 0 0 0 0 0 0 0 127 0"/><feOffset dx=".25" dy="-.4"/><feGaussianBlur stdDeviation=".3"/><feComposite in2="hardAlpha" k2="-1" k3="1" operator="arithmetic"/><feColorMatrix values="0 0 0 0 0.156863 0 0 0 0 0.0784314 0 0 0 0 0.109804 0 0 0 1 0"/><feBlend in2="shape" result="effect1_innerShadow_3987_19710"/></filter><filter id="filter11_f_3987_19710" width="1.294" height="1.125" x="18.897" y="15.884" color-interpolation-filters="sRGB" filterUnits="userSpaceOnUse"><feFlood flood-opacity="0" result="BackgroundImageFix"/><feBlend in="SourceGraphic" in2="BackgroundImageFix" result="shape"/><feGaussianBlur result="effect1_foregroundBlur_3987_19710" stdDeviation=".05"/></filter><filter id="filter12_f_3987_19710" width="1.316" height="1.357" x="20.55" y="16.111" color-interpolation-filters="sRGB" filterUnits="userSpaceOnUse"><feFlood flood-opacity="0" result="BackgroundImageFix"/><feBlend in="SourceGraphic" in2="BackgroundImageFix" result="shape"/><feGaussianBlur result="effect1_foregroundBlur_3987_19710" stdDeviation=".1"/></filter><filter id="filter13_f_3987_19710" width="1.493" height="1.594" x="12.267" y="15.992" color-interpolation-filters="sRGB" filterUnits="userSpaceOnUse"><feFlood flood-opacity="0" result="BackgroundImageFix"/><feBlend in="SourceGraphic" in2="BackgroundImageFix" result="shape"/><feGaussianBlur result="effect1_foregroundBlur_3987_19710" stdDeviation=".1"/></filter><filter id="filter14_f_3987_19710" width="1.529" height="1.141" x="10.773" y="15.869" color-interpolation-filters="sRGB" filterUnits="userSpaceOnUse"><feFlood flood-opacity="0" result="BackgroundImageFix"/><feBlend in="SourceGraphic" in2="BackgroundImageFix" result="shape"/><feGaussianBlur result="effect1_foregroundBlur_3987_19710" stdDeviation=".05"/></filter><filter id="filter15_f_3987_19710" width="4.949" height="2.304" x="18.463" y="11.736" color-interpolation-filters="sRGB" filterUnits="userSpaceOnUse"><feFlood flood-opacity="0" result="BackgroundImageFix"/><feBlend in="SourceGraphic" in2="BackgroundImageFix" result="shape"/><feGaussianBlur result="effect1_foregroundBlur_3987_19710" stdDeviation=".25"/></filter><filter id="filter16_f_3987_19710" width="5.094" height="2.41" x="8.73" y="11.854" color-interpolation-filters="sRGB" filterUnits="userSpaceOnUse"><feFlood flood-opacity="0" result="BackgroundImageFix"/><feBlend in="SourceGraphic" in2="BackgroundImageFix" result="shape"/><feGaussianBlur result="effect1_foregroundBlur_3987_19710" stdDeviation=".25"/></filter><filter id="filter17_f_3987_19710" width="1.231" height="3.583" x="6.807" y="8.542" color-interpolation-filters="sRGB" filterUnits="userSpaceOnUse"><feFlood flood-opacity="0" result="BackgroundImageFix"/><feBlend in="SourceGraphic" in2="BackgroundImageFix" result="shape"/><feGaussianBlur result="effect1_foregroundBlur_3987_19710" stdDeviation=".125"/></filter><linearGradient id="paint1_linear_3987_19710" x1="7.262" x2="6.068" y1="18.409" y2="18.409" gradientUnits="userSpaceOnUse"><stop stop-color="#553038"/><stop offset="1" stop-color="#59323C"/></linearGradient><linearGradient id="paint2_linear_3987_19710" x1="27.029" x2="25.502" y1="15.854" y2="20.584" gradientUnits="userSpaceOnUse"><stop stop-color="#96776B"/><stop offset="1" stop-color="#855A5B"/></linearGradient><linearGradient id="paint6_linear_3987_19710" x1="23.643" x2="9.401" y1="18.616" y2="20.738" gradientUnits="userSpaceOnUse"><stop stop-color="#9B6C5E"/><stop offset="1" stop-color="#744D4A"/></linearGradient><linearGradient id="paint9_linear_3987_19710" x1="6.054" x2="9.563" y1="23.643" y2="23.518" gradientUnits="userSpaceOnUse"><stop stop-color="#84615A"/><stop offset="1" stop-color="#84615A" stop-opacity="0"/></linearGradient><linearGradient id="paint10_linear_3987_19710" x1="25.188" x2="23.219" y1="22.081" y2="21.893" gradientUnits="userSpaceOnUse"><stop stop-color="#966D5F"/><stop offset="1" stop-color="#966D5F" stop-opacity="0"/></linearGradient><linearGradient id="paint12_linear_3987_19710" x1="16.17" x2="16.17" y1="28.114" y2="30.071" gradientUnits="userSpaceOnUse"><stop offset=".533" stop-color="#8E5B8E" stop-opacity="0"/><stop offset="1" stop-color="#8E5B8E"/></linearGradient><linearGradient id="paint13_linear_3987_19710" x1="15.125" x2="30.313" y1="13.05" y2="7.612" gradientUnits="userSpaceOnUse"><stop stop-color="#A27B71"/><stop offset="1" stop-color="#A27B71" stop-opacity="0"/></linearGradient><linearGradient id="paint18_linear_3987_19710" x1="14.505" x2="16.254" y1="19.845" y2="19.845" gradientUnits="userSpaceOnUse"><stop stop-color="#754E46"/><stop offset="1" stop-color="#754E46" stop-opacity="0"/></linearGradient><linearGradient id="paint19_linear_3987_19710" x1="17.866" x2="15.954" y1="20.447" y2="20.419" gradientUnits="userSpaceOnUse"><stop stop-color="#9D766B"/><stop offset="1" stop-color="#9D766B" stop-opacity="0"/></linearGradient><linearGradient id="paint20_linear_3987_19710" x1="16.479" x2="16.479" y1="21.831" y2="20.762" gradientUnits="userSpaceOnUse"><stop stop-color="#7C4559"/><stop offset="1" stop-color="#7C4559" stop-opacity="0"/></linearGradient><linearGradient id="paint22_linear_3987_19710" x1="16.351" x2="16.351" y1="21.909" y2="21.597" gradientUnits="userSpaceOnUse"><stop stop-color="#743B4A"/><stop offset="1" stop-color="#743B4A" stop-opacity="0"/></linearGradient><linearGradient id="paint23_linear_3987_19710" x1="14.182" x2="14.994" y1="24.843" y2="23.561" gradientUnits="userSpaceOnUse"><stop stop-color="#865E63"/><stop offset=".663" stop-color="#865E63" stop-opacity="0"/></linearGradient><linearGradient id="paint28_linear_3987_19710" x1="21.63" x2="21.045" y1="16.718" y2="17.079" gradientUnits="userSpaceOnUse"><stop stop-color="#B4948D"/><stop offset="1" stop-color="#B4948D" stop-opacity="0"/></linearGradient><linearGradient id="paint30_linear_3987_19710" x1="13.43" x2="12.845" y1="16.718" y2="17.079" gradientUnits="userSpaceOnUse"><stop stop-color="#B4948D"/><stop offset="1" stop-color="#B4948D" stop-opacity="0"/></linearGradient><linearGradient id="paint32_linear_3987_19710" x1="21.66" x2="20.876" y1="12.728" y2="11.127" gradientUnits="userSpaceOnUse"><stop stop-color="#483E3E"/><stop offset="1" stop-color="#483E3E" stop-opacity="0"/></linearGradient><linearGradient id="paint33_linear_3987_19710" x1="11.767" x2="9.549" y1="12.49" y2="11.56" gradientUnits="userSpaceOnUse"><stop stop-color="#483E3E"/><stop offset="1" stop-color="#483E3E" stop-opacity="0"/></linearGradient><linearGradient id="paint34_linear_3987_19710" x1="7.423" x2="7.423" y1="8.733" y2="12.756" gradientUnits="userSpaceOnUse"><stop offset=".228" stop-color="#32272D"/><stop offset="1" stop-color="#32272D" stop-opacity="0"/></linearGradient></defs></svg>