<svg xmlns="http://www.w3.org/2000/svg" width="32" height="32" fill="none" viewBox="0 0 32 32"><g filter="url(#a)"><path fill="#E7AD97" d="M13.202 4.49a2.406 2.406 0 0 1 4.81-.135l.026.945a2.406 2.406 0 0 1 4.393 1.4l-.026 1.37a2.406 2.406 0 0 1 4.16 1.736l-.335 8.822c-.005 1.33-.15 3.695-1.004 5.76-1.207 3.267-4.34 5.595-8.016 5.595-3.715 0-6.876-2.379-8.054-5.701-.889-2.11-2.362-4.284-2.987-5.206a1.042 1.042 0 0 1-.04-.06l-2.1-2.82a2.536 2.536 0 0 1 4.05-3.054l1.089 1.424-.344-7.953a2.385 2.385 0 0 1 4.4-1.378l-.022-.744Z"/><path fill="url(#b)" d="M13.202 4.49a2.406 2.406 0 0 1 4.81-.135l.026.945a2.406 2.406 0 0 1 4.393 1.4l-.026 1.37a2.406 2.406 0 0 1 4.16 1.736l-.335 8.822c-.005 1.33-.15 3.695-1.004 5.76-1.207 3.267-4.34 5.595-8.016 5.595-3.715 0-6.876-2.379-8.054-5.701-.889-2.11-2.362-4.284-2.987-5.206a1.042 1.042 0 0 1-.04-.06l-2.1-2.82a2.536 2.536 0 0 1 4.05-3.054l1.089 1.424-.344-7.953a2.385 2.385 0 0 1 4.4-1.378l-.022-.744Z"/><path fill="url(#c)" d="M13.202 4.49a2.406 2.406 0 0 1 4.81-.135l.026.945a2.406 2.406 0 0 1 4.393 1.4l-.026 1.37a2.406 2.406 0 0 1 4.16 1.736l-.335 8.822c-.005 1.33-.15 3.695-1.004 5.76-1.207 3.267-4.34 5.595-8.016 5.595-3.715 0-6.876-2.379-8.054-5.701-.889-2.11-2.362-4.284-2.987-5.206a1.042 1.042 0 0 1-.04-.06l-2.1-2.82a2.536 2.536 0 0 1 4.05-3.054l1.089 1.424-.344-7.953a2.385 2.385 0 0 1 4.4-1.378l-.022-.744Z"/></g><path fill="url(#d)" d="m4.471 12.708.079-.06a2.536 2.536 0 0 1 3.53.494l1.084 1.419.162 4.512-4.855-6.365Z"/><g filter="url(#e)"><path fill="url(#f)" d="M9.22 16.317v3.101l-3.761-4.823a.93.93 0 0 1 1.457-1.152l2.304 2.874Z"/></g><path fill="url(#g)" d="m9.154 14.547.119 2.78 4.125-1.72L13.22 5.23a2.384 2.384 0 0 0-4.396 1.383l.344 7.953-.014-.019Z"/><path fill="url(#h)" d="m9.154 14.547.119 2.78 4.125-1.72L13.22 5.23a2.384 2.384 0 0 0-4.396 1.383l.344 7.953-.014-.019Z"/><path fill="url(#i)" d="m9.154 14.547.119 2.78 4.125-1.72L13.22 5.23a2.384 2.384 0 0 0-4.396 1.383l.344 7.953-.014-.019Z"/><path fill="url(#j)" d="m9.154 14.547.119 2.78 4.125-1.72L13.22 5.23a2.384 2.384 0 0 0-4.396 1.383l.344 7.953-.014-.019Z"/><path fill="url(#k)" d="m9.154 14.547.119 2.78 4.125-1.72L13.22 5.23a2.384 2.384 0 0 0-4.396 1.383l.344 7.953-.014-.019Z"/><g filter="url(#l)"><path fill="#ECB99E" d="m11.32 6.118.13 9.484 1.284-.188-.194-9.317a.61.61 0 0 0-1.22.021Z"/></g><path fill="url(#m)" d="m18.04 5.298-.002.002-.026-.945a2.406 2.406 0 0 0-4.81-.022l.009.455.012.447-.005-.008.172 12.6h4.688l-.039-12.529Z"/><path fill="url(#n)" d="m18.04 5.298-.002.002-.026-.945a2.406 2.406 0 0 0-4.81-.022l.009.455.012.447-.005-.008.172 12.6h4.688l-.039-12.529Z"/><path fill="url(#o)" d="m18.04 5.298-.002.002-.026-.945a2.406 2.406 0 0 0-4.81-.022l.009.455.012.447-.005-.008.172 12.6h4.688l-.039-12.529Z"/><path fill="url(#p)" d="m18.04 5.298-.002.002-.026-.945a2.406 2.406 0 0 0-4.81-.022l.009.455.012.447-.005-.008.172 12.6h4.688l-.039-12.529Z"/><g filter="url(#q)"><path fill="url(#r)" d="M15.951 5.196c0-.302-.06-.58-.186-.81-.209-.38-.43-.855-.24-1.244.153-.311.51-.487.82-.33 1.065.542 1.196 1.67 1.169 2.384v10.593a.772.772 0 0 1-.773.773.776.776 0 0 1-.775-.788c.048-3.493-.014-9.664-.014-10.578Z"/></g><path fill="url(#s)" d="m18.041 5.295-.018 12.156h4.187l.197-9.383-.002.002.026-1.37a2.406 2.406 0 0 0-4.39-1.405Z"/><path fill="url(#t)" d="m18.041 5.295-.018 12.156h4.187l.197-9.383-.002.002.026-1.37a2.406 2.406 0 0 0-4.39-1.405Z"/><path fill="url(#u)" d="m18.041 5.295-.018 12.156h4.187l.197-9.383-.002.002.026-1.37a2.406 2.406 0 0 0-4.39-1.405Z"/><path fill="url(#v)" d="m18.041 5.295-.018 12.156h4.187l.197-9.383-.002.002.026-1.37a2.406 2.406 0 0 0-4.39-1.405Z"/><g filter="url(#w)"><path fill="url(#x)" d="M21.01 5.451c-.431 0-.78.35-.777.782.015 2.195.043 7.039.006 9.523a.776.776 0 0 0 .776.789.772.772 0 0 0 .772-.772V6.228a.777.777 0 0 0-.777-.777Z"/></g><path fill="url(#y)" d="M13.202 4.49a2.406 2.406 0 0 1 4.81-.135l.026.945a2.406 2.406 0 0 1 4.393 1.4l-.026 1.37a2.406 2.406 0 0 1 4.16 1.736l-.335 8.822c-.005 1.33-.15 3.695-1.004 5.76-1.207 3.267-4.34 5.595-8.016 5.595-3.715 0-6.876-2.379-8.054-5.701-.889-2.11-2.362-4.284-2.987-5.206a1.042 1.042 0 0 1-.04-.06l-2.1-2.82a2.536 2.536 0 0 1 4.05-3.054l1.089 1.424-.344-7.953a2.385 2.385 0 0 1 4.4-1.378l-.022-.744Z"/><path fill="url(#z)" d="M13.202 4.49a2.406 2.406 0 0 1 4.81-.135l.026.945a2.406 2.406 0 0 1 4.393 1.4l-.026 1.37a2.406 2.406 0 0 1 4.16 1.736l-.335 8.822c-.005 1.33-.15 3.695-1.004 5.76-1.207 3.267-4.34 5.595-8.016 5.595-3.715 0-6.876-2.379-8.054-5.701-.889-2.11-2.362-4.284-2.987-5.206a1.042 1.042 0 0 1-.04-.06l-2.1-2.82a2.536 2.536 0 0 1 4.05-3.054l1.089 1.424-.344-7.953a2.385 2.385 0 0 1 4.4-1.378l-.022-.744Z"/><path fill="url(#A)" d="M13.202 4.49a2.406 2.406 0 0 1 4.81-.135l.026.945a2.406 2.406 0 0 1 4.393 1.4l-.026 1.37a2.406 2.406 0 0 1 4.16 1.736l-.335 8.822c-.005 1.33-.15 3.695-1.004 5.76-1.207 3.267-4.34 5.595-8.016 5.595-3.715 0-6.876-2.379-8.054-5.701-.889-2.11-2.362-4.284-2.987-5.206a1.042 1.042 0 0 1-.04-.06l-2.1-2.82a2.536 2.536 0 0 1 4.05-3.054l1.089 1.424-.344-7.953a2.385 2.385 0 0 1 4.4-1.378l-.022-.744Z"/><path fill="url(#B)" d="M13.202 4.49a2.406 2.406 0 0 1 4.81-.135l.026.945a2.406 2.406 0 0 1 4.393 1.4l-.026 1.37a2.406 2.406 0 0 1 4.16 1.736l-.335 8.822c-.005 1.33-.15 3.695-1.004 5.76-1.207 3.267-4.34 5.595-8.016 5.595-3.715 0-6.876-2.379-8.054-5.701-.889-2.11-2.362-4.284-2.987-5.206a1.042 1.042 0 0 1-.04-.06l-2.1-2.82a2.536 2.536 0 0 1 4.05-3.054l1.089 1.424-.344-7.953a2.385 2.385 0 0 1 4.4-1.378l-.022-.744Z"/><path fill="url(#C)" d="M13.202 4.49a2.406 2.406 0 0 1 4.81-.135l.026.945a2.406 2.406 0 0 1 4.393 1.4l-.026 1.37a2.406 2.406 0 0 1 4.16 1.736l-.335 8.822c-.005 1.33-.15 3.695-1.004 5.76-1.207 3.267-4.34 5.595-8.016 5.595-3.715 0-6.876-2.379-8.054-5.701-.889-2.11-2.362-4.284-2.987-5.206a1.042 1.042 0 0 1-.04-.06l-2.1-2.82a2.536 2.536 0 0 1 4.05-3.054l1.089 1.424-.344-7.953a2.385 2.385 0 0 1 4.4-1.378l-.022-.744Z"/><path fill="url(#D)" d="M13.202 4.49a2.406 2.406 0 0 1 4.81-.135l.026.945a2.406 2.406 0 0 1 4.393 1.4l-.026 1.37a2.406 2.406 0 0 1 4.16 1.736l-.335 8.822c-.005 1.33-.15 3.695-1.004 5.76-1.207 3.267-4.34 5.595-8.016 5.595-3.715 0-6.876-2.379-8.054-5.701-.889-2.11-2.362-4.284-2.987-5.206a1.042 1.042 0 0 1-.04-.06l-2.1-2.82a2.536 2.536 0 0 1 4.05-3.054l1.089 1.424-.344-7.953a2.385 2.385 0 0 1 4.4-1.378l-.022-.744Z"/><g filter="url(#E)"><path fill="url(#F)" d="M25.787 20.014c-.17 3.648-1.909 6.402-3.711 7.568l1.882-19.827c2.014 0 2.252 1.511 2.226 2.452-.053 1.961-.228 6.16-.397 9.807Z"/></g><path fill="url(#G)" d="m22.415 8.06-.267 8.548 4.156.343.261-7.145a2.406 2.406 0 0 0-4.15-1.747Z"/><path fill="url(#H)" d="m22.415 8.06-.267 8.548 4.156.343.261-7.145a2.406 2.406 0 0 0-4.15-1.747Z"/><path fill="url(#I)" d="m22.415 8.06-.267 8.548 4.156.343.261-7.145a2.406 2.406 0 0 0-4.15-1.747Z"/><g filter="url(#J)"><path fill="url(#K)" d="M25.247 8.517a.673.673 0 0 0-.687.664c-.026 2.142-.092 7.103-.17 9.627-.014.433.282.794.659.8.37.007.677-.333.684-.76l.177-9.644a.675.675 0 0 0-.663-.687Z"/></g><defs><linearGradient id="f" x1="6.013" x2="10.321" y1="13.586" y2="20.376" gradientUnits="userSpaceOnUse"><stop stop-color="#EEB99A"/><stop offset="1" stop-color="#EEB99A" stop-opacity="0"/></linearGradient><linearGradient id="g" x1="8.639" x2="10.689" y1="11.845" y2="11.733" gradientUnits="userSpaceOnUse"><stop stop-color="#BD8465"/><stop offset="1" stop-color="#BD8465" stop-opacity="0"/></linearGradient><linearGradient id="h" x1="13.663" x2="12.679" y1="11.061" y2="11.076" gradientUnits="userSpaceOnUse"><stop stop-color="#CC8E6E"/><stop offset="1" stop-color="#CC8E6E" stop-opacity="0"/></linearGradient><linearGradient id="j" x1="11.11" x2="10.492" y1="16.779" y2="14.779" gradientUnits="userSpaceOnUse"><stop offset=".236" stop-color="#E7AD97"/><stop offset="1" stop-color="#E7AD97" stop-opacity="0"/></linearGradient><linearGradient id="m" x1="12.335" x2="15.414" y1="9.889" y2="9.836" gradientUnits="userSpaceOnUse"><stop stop-color="#C68869"/><stop offset="1" stop-color="#C68869" stop-opacity="0"/></linearGradient><linearGradient id="o" x1="18.517" x2="17.31" y1="9.515" y2="9.515" gradientUnits="userSpaceOnUse"><stop stop-color="#DB9B77"/><stop offset="1" stop-color="#DB9B77" stop-opacity="0"/></linearGradient><linearGradient id="p" x1="14.867" x2="15.071" y1="17.076" y2="14.145" gradientUnits="userSpaceOnUse"><stop stop-color="#E7AD97"/><stop offset="1" stop-color="#E7AD97" stop-opacity="0"/></linearGradient><linearGradient id="r" x1="17.17" x2="25.801" y1="2.156" y2="8.318" gradientUnits="userSpaceOnUse"><stop stop-color="#FFD0AA"/><stop offset="1" stop-color="#FFD0AA" stop-opacity="0"/></linearGradient><linearGradient id="s" x1="17.238" x2="20.022" y1="10.823" y2="10.771" gradientUnits="userSpaceOnUse"><stop stop-color="#D89671"/><stop offset="1" stop-color="#D89671" stop-opacity="0"/></linearGradient><linearGradient id="t" x1="23.152" x2="21.68" y1="10.851" y2="10.861" gradientUnits="userSpaceOnUse"><stop stop-color="#E2AA80"/><stop offset="1" stop-color="#E2AA80" stop-opacity="0"/></linearGradient><linearGradient id="u" x1="19.054" x2="19.583" y1="15.889" y2="13.15" gradientUnits="userSpaceOnUse"><stop stop-color="#E7AD97"/><stop offset="1" stop-color="#E7AD97" stop-opacity="0"/></linearGradient><linearGradient id="x" x1="21.444" x2="21.444" y1="5.451" y2="19.014" gradientUnits="userSpaceOnUse"><stop stop-color="#FCC9A8"/><stop offset="1" stop-color="#FCC9A8" stop-opacity="0"/></linearGradient><linearGradient id="y" x1="26.953" x2="21.599" y1="22.599" y2="22.599" gradientUnits="userSpaceOnUse"><stop stop-color="#EFBF9C"/><stop offset="1" stop-color="#EFBF9C" stop-opacity="0"/></linearGradient><linearGradient id="F" x1="26.794" x2="23.825" y1="16.131" y2="16.025" gradientUnits="userSpaceOnUse"><stop stop-color="#FDC8A8"/><stop offset="1" stop-color="#FDC8A8" stop-opacity="0"/></linearGradient><linearGradient id="G" x1="21.325" x2="23.651" y1="12.609" y2="12.855" gradientUnits="userSpaceOnUse"><stop stop-color="#DB9B79"/><stop offset="1" stop-color="#DB9B79" stop-opacity="0"/></linearGradient><linearGradient id="H" x1="23.968" x2="24.158" y1="16.951" y2="13.458" gradientUnits="userSpaceOnUse"><stop stop-color="#EFBA9A"/><stop offset="1" stop-color="#EFBA9A" stop-opacity="0"/></linearGradient><linearGradient id="K" x1="25.624" x2="25.376" y1="8.524" y2="22.084" gradientUnits="userSpaceOnUse"><stop stop-color="#FECEA7"/><stop offset="1" stop-color="#FECEA7" stop-opacity="0"/></linearGradient><radialGradient id="b" cx="0" cy="0" r="1" gradientTransform="matrix(5.125 -2.625 9.42008 18.39159 9.085 27.076)" gradientUnits="userSpaceOnUse"><stop stop-color="#C98F80"/><stop offset="1" stop-color="#C98F80" stop-opacity="0"/></radialGradient><radialGradient id="c" cx="0" cy="0" r="1" gradientTransform="matrix(.4595 2.43885 -3.85022 .7254 5.483 12.077)" gradientUnits="userSpaceOnUse"><stop stop-color="#C99F80"/><stop offset="1" stop-color="#C99F80" stop-opacity="0"/></radialGradient><radialGradient id="d" cx="0" cy="0" r="1" gradientTransform="rotate(146.31 2.532 9.166) scale(1.33802 3.89834)" gradientUnits="userSpaceOnUse"><stop stop-color="#A9775C"/><stop offset="1" stop-color="#A9775C" stop-opacity="0"/></radialGradient><radialGradient id="i" cx="0" cy="0" r="1" gradientTransform="rotate(157.319 6.24 3.957) scale(1.13462 1.78724)" gradientUnits="userSpaceOnUse"><stop stop-color="#AE7956"/><stop offset="1" stop-color="#AE7956" stop-opacity="0"/></radialGradient><radialGradient id="k" cx="0" cy="0" r="1" gradientTransform="matrix(1.14882 2.36578 -4.48154 2.17624 9.961 4.036)" gradientUnits="userSpaceOnUse"><stop stop-color="#C89D7C"/><stop offset="1" stop-color="#C59878" stop-opacity="0"/></radialGradient><radialGradient id="n" cx="0" cy="0" r="1" gradientTransform="matrix(1.14425 2.08638 -4.22794 2.31876 14.241 2.017)" gradientUnits="userSpaceOnUse"><stop stop-color="#C79A78"/><stop offset="1" stop-color="#C79A78" stop-opacity="0"/></radialGradient><radialGradient id="v" cx="0" cy="0" r="1" gradientTransform="matrix(.79135 1.354 -2.12907 1.24435 18.962 4.25)" gradientUnits="userSpaceOnUse"><stop stop-color="#CF9F7B"/><stop offset="1" stop-color="#CF9F7B" stop-opacity="0"/></radialGradient><radialGradient id="z" cx="0" cy="0" r="1" gradientTransform="matrix(-.1875 -2.2675 1.77572 -.14684 12.304 16)" gradientUnits="userSpaceOnUse"><stop stop-color="#F0B998"/><stop offset="1" stop-color="#F0B998" stop-opacity="0"/></radialGradient><radialGradient id="A" cx="0" cy="0" r="1" gradientTransform="matrix(-.09375 -2.17374 2.00449 -.08645 17.023 16)" gradientUnits="userSpaceOnUse"><stop stop-color="#F0B998"/><stop offset="1" stop-color="#F0B998" stop-opacity="0"/></radialGradient><radialGradient id="B" cx="0" cy="0" r="1" gradientTransform="rotate(-91.909 18.3 -1.99) scale(1.87604)" gradientUnits="userSpaceOnUse"><stop stop-color="#F0B998"/><stop offset="1" stop-color="#F0B998" stop-opacity="0"/></radialGradient><radialGradient id="C" cx="0" cy="0" r="1" gradientTransform="rotate(-153.436 14.16 5.358) scale(2.3758 3.1303)" gradientUnits="userSpaceOnUse"><stop stop-color="#F0B998"/><stop offset="1" stop-color="#F0B998" stop-opacity="0"/></radialGradient><radialGradient id="D" cx="0" cy="0" r="1" gradientTransform="rotate(-27.758 49.569 -5.065) scale(3.03562 12.0503)" gradientUnits="userSpaceOnUse"><stop stop-color="#C88C7E"/><stop offset="1" stop-color="#C88C7E" stop-opacity="0"/></radialGradient><radialGradient id="I" cx="0" cy="0" r="1" gradientTransform="matrix(.84085 1.7617 -4.7063 2.2463 23.023 6.639)" gradientUnits="userSpaceOnUse"><stop stop-color="#CE9E7B"/><stop offset="1" stop-color="#CE9E7B" stop-opacity="0"/></radialGradient><filter id="a" width="23.039" height="28.965" x="3.528" y="1.017" color-interpolation-filters="sRGB" filterUnits="userSpaceOnUse"><feFlood flood-opacity="0" result="BackgroundImageFix"/><feBlend in="SourceGraphic" in2="BackgroundImageFix" result="shape"/><feColorMatrix in="SourceAlpha" result="hardAlpha" values="0 0 0 0 0 0 0 0 0 0 0 0 0 0 0 0 0 0 127 0"/><feOffset dy="-1"/><feGaussianBlur stdDeviation="1.25"/><feComposite in2="hardAlpha" k2="-1" k3="1" operator="arithmetic"/><feColorMatrix values="0 0 0 0 0.729412 0 0 0 0 0.454902 0 0 0 0 0.541176 0 0 0 1 0"/><feBlend in2="shape" result="effect1_innerShadow_20020_1255"/></filter><filter id="e" width="5.458" height="7.823" x="4.512" y="12.345" color-interpolation-filters="sRGB" filterUnits="userSpaceOnUse"><feFlood flood-opacity="0" result="BackgroundImageFix"/><feBlend in="SourceGraphic" in2="BackgroundImageFix" result="shape"/><feGaussianBlur result="effect1_foregroundBlur_20020_1255" stdDeviation=".375"/></filter><filter id="l" width="3.414" height="12.102" x="10.32" y="4.5" color-interpolation-filters="sRGB" filterUnits="userSpaceOnUse"><feFlood flood-opacity="0" result="BackgroundImageFix"/><feBlend in="SourceGraphic" in2="BackgroundImageFix" result="shape"/><feGaussianBlur result="effect1_foregroundBlur_20020_1255" stdDeviation=".5"/></filter><filter id="q" width="4.064" height="15.808" x="14.453" y="1.754" color-interpolation-filters="sRGB" filterUnits="userSpaceOnUse"><feFlood flood-opacity="0" result="BackgroundImageFix"/><feBlend in="SourceGraphic" in2="BackgroundImageFix" result="shape"/><feGaussianBlur result="effect1_foregroundBlur_20020_1255" stdDeviation=".5"/></filter><filter id="w" width="3.555" height="13.094" x="19.233" y="4.451" color-interpolation-filters="sRGB" filterUnits="userSpaceOnUse"><feFlood flood-opacity="0" result="BackgroundImageFix"/><feBlend in="SourceGraphic" in2="BackgroundImageFix" result="shape"/><feGaussianBlur result="effect1_foregroundBlur_20020_1255" stdDeviation=".5"/></filter><filter id="E" width="6.11" height="21.827" x="21.076" y="6.755" color-interpolation-filters="sRGB" filterUnits="userSpaceOnUse"><feFlood flood-opacity="0" result="BackgroundImageFix"/><feBlend in="SourceGraphic" in2="BackgroundImageFix" result="shape"/><feGaussianBlur result="effect1_foregroundBlur_20020_1255" stdDeviation=".5"/></filter><filter id="J" width="3.521" height="13.092" x="23.389" y="7.516" color-interpolation-filters="sRGB" filterUnits="userSpaceOnUse"><feFlood flood-opacity="0" result="BackgroundImageFix"/><feBlend in="SourceGraphic" in2="BackgroundImageFix" result="shape"/><feGaussianBlur result="effect1_foregroundBlur_20020_1255" stdDeviation=".5"/></filter></defs></svg>