<svg xmlns="http://www.w3.org/2000/svg" width="32" height="32" fill="none" viewBox="0 0 32 32"><path fill="url(#paint0_linear_4002_1949)" d="M15.745 15.5c-6.07 0-11 4.92-11 11V30h21.08l.91-3.5c0-6.08-4.92-11-10.99-11Z"/><g filter="url(#filter0_f_4002_1949)"><path fill="#CAADC8" d="M19.301 21.515v-4.908A10.908 10.908 0 0 0 17.033 16l-1.7 1.776-1.7-1.775c-.787.123-1.546.329-2.27.609v4.905c0 .433.419.668.813.379l3.122-2.72a.1.1 0 0 0 .034-.076.1.1 0 0 0 .035.076l3.122 2.72c.394.289.812.054.812-.38Z"/></g><path fill="#EDDFFD" d="M11.736 16.236v4.904c0 .434.418.668.813.38l3.122-2.72a.1.1 0 0 0 .034-.076v-1.322l-1.699-1.775c-.787.123-1.547.329-2.27.609Z"/><path fill="url(#paint1_linear_4002_1949)" d="M11.736 16.236v4.904c0 .434.418.668.813.38l3.122-2.72a.1.1 0 0 0 .034-.076v-1.322l-1.699-1.775c-.787.123-1.547.329-2.27.609Z"/><path fill="url(#paint2_linear_4002_1949)" d="M11.736 16.236v4.904c0 .434.418.668.813.38l3.122-2.72a.1.1 0 0 0 .034-.076v-1.322l-1.699-1.775c-.787.123-1.547.329-2.27.609Z"/><path fill="url(#paint3_radial_4002_1949)" d="M11.736 16.236v4.904c0 .434.418.668.813.38l3.122-2.72a.1.1 0 0 0 .034-.076v-1.322l-1.699-1.775c-.787.123-1.547.329-2.27.609Z"/><path fill="#F4E6FF" d="M19.674 16.233v4.908c0 .433-.418.668-.813.379L15.74 18.8a.1.1 0 0 1-.034-.076v-1.322l1.7-1.776c.787.122 1.546.327 2.269.607Z"/><path fill="url(#paint4_linear_4002_1949)" d="M19.674 16.233v4.908c0 .433-.418.668-.813.379L15.74 18.8a.1.1 0 0 1-.034-.076v-1.322l1.7-1.776c.787.122 1.546.327 2.269.607Z"/><path fill="url(#paint5_linear_4002_1949)" d="M19.674 16.233v4.908c0 .433-.418.668-.813.379L15.74 18.8a.1.1 0 0 1-.034-.076v-1.322l1.7-1.776c.787.122 1.546.327 2.269.607Z"/><path fill="url(#paint6_radial_4002_1949)" d="M19.674 16.233v4.908c0 .433-.418.668-.813.379L15.74 18.8a.1.1 0 0 1-.034-.076v-1.322l1.7-1.776c.787.122 1.546.327 2.269.607Z"/><path fill="url(#paint7_radial_4002_1949)" d="M8.775 30V17.99a10.976 10.976 0 0 0-4.03 8.51V30h4.03Z"/><path fill="url(#paint8_radial_4002_1949)" d="M8.775 30V17.99a10.976 10.976 0 0 0-4.03 8.51V30h4.03Z"/><path fill="url(#paint9_radial_4002_1949)" d="M8.775 30V17.99a10.976 10.976 0 0 0-4.03 8.51V30h4.03Z"/><path fill="url(#paint10_linear_4002_1949)" d="M22.775 18.043V30h2.979l.981-3.5c0-3.402-1.54-6.44-3.96-8.457Z"/><path fill="url(#paint11_radial_4002_1949)" d="M22.775 18.043V30h2.979l.981-3.5c0-3.402-1.54-6.44-3.96-8.457Z"/><path fill="url(#paint12_radial_4002_1949)" d="M26.245 23.1c.55 0 1 .45 1 1v2.29h-2V24.1c0-.55.45-1 1-1Z"/><path fill="url(#paint13_radial_4002_1949)" d="M26.245 23.1c.55 0 1 .45 1 1v2.29h-2V24.1c0-.55.45-1 1-1Z"/><path fill="url(#paint14_radial_4002_1949)" d="M20.735 16.696v5.877c0 .23-.18.41-.41.41h-9.07c-.23 0-.41-.18-.41-.41v-5.92c-.14.067-.277.139-.413.213a11.011 11.011 0 0 0-1.657 1.127V30h14.03V18.068a10.997 10.997 0 0 0-2.07-1.372Z"/><path fill="url(#paint15_radial_4002_1949)" d="M20.735 16.696v5.877c0 .23-.18.41-.41.41h-9.07c-.23 0-.41-.18-.41-.41v-5.92c-.14.067-.277.139-.413.213a11.011 11.011 0 0 0-1.657 1.127V30h14.03V18.068a10.997 10.997 0 0 0-2.07-1.372Z"/><path fill="url(#paint16_linear_4002_1949)" d="M20.735 16.696v5.877c0 .23-.18.41-.41.41h-9.07c-.23 0-.41-.18-.41-.41v-5.92c-.14.067-.277.139-.413.213a11.011 11.011 0 0 0-1.657 1.127V30h14.03V18.068a10.997 10.997 0 0 0-2.07-1.372Z"/><path fill="url(#paint17_linear_4002_1949)" d="M20.735 16.696v5.877c0 .23-.18.41-.41.41h-9.07c-.23 0-.41-.18-.41-.41v-5.92c-.14.067-.277.139-.413.213a11.011 11.011 0 0 0-1.657 1.127V30h14.03V18.068a10.997 10.997 0 0 0-2.07-1.372Z"/><path fill="url(#paint18_radial_4002_1949)" d="M20.735 16.696v5.877c0 .23-.18.41-.41.41h-9.07c-.23 0-.41-.18-.41-.41v-5.92c-.14.067-.277.139-.413.213a11.011 11.011 0 0 0-1.657 1.127V30h14.03V18.068a10.997 10.997 0 0 0-2.07-1.372Z"/><g filter="url(#filter1_d_4002_1949)"><path fill="url(#paint19_linear_4002_1949)" d="M13.155 24.45c.71 0 1.29.58 1.29 1.29 0 .71-.58 1.29-1.29 1.29h-1.45c-.71 0-1.29-.58-1.29-1.29 0-.71.58-1.29 1.29-1.29h1.45Zm0-.5h-1.45c-.99 0-1.79.8-1.79 1.79s.8 1.79 1.79 1.79h1.45c.99 0 1.79-.8 1.79-1.79s-.8-1.79-1.79-1.79Z"/></g><g filter="url(#filter2_i_4002_1949)"><path fill="url(#paint20_linear_4002_1949)" d="M13.155 27.03h-1.45c-.71 0-1.29-.58-1.29-1.29 0-.71.58-1.29 1.29-1.29h1.45c.71 0 1.29.58 1.29 1.29 0 .72-.57 1.29-1.29 1.29Z"/></g><g filter="url(#filter3_i_4002_1949)"><path fill="#442133" d="M15.71 18.676c-1.524-.508-1.825-1.445-1.91-1.84h3.92c-.355 1.237-1.492 1.738-2.01 1.84Z"/></g><g filter="url(#filter4_i_4002_1949)"><path fill="#9E88AD" d="M25.93 17.043c-.191-.1-.432.03-.432.25v1.551c0 .42-.341.77-.763.76a.746.746 0 0 1-.733-.75v-1.561c0-.22-.24-.36-.432-.26a2.482 2.482 0 0 0-1.315 2.171c-.01.97.552 1.821 1.366 2.241.09.05.15.15.15.25V28a1.005 1.005 0 0 0 2.008.001v-6.324c0-.1.06-.2.15-.25a2.487 2.487 0 0 0 1.326-2.202 2.519 2.519 0 0 0-1.325-2.181Z"/><path fill="url(#paint21_linear_4002_1949)" d="M25.93 17.043c-.191-.1-.432.03-.432.25v1.551c0 .42-.341.77-.763.76a.746.746 0 0 1-.733-.75v-1.561c0-.22-.24-.36-.432-.26a2.482 2.482 0 0 0-1.315 2.171c-.01.97.552 1.821 1.366 2.241.09.05.15.15.15.25V28a1.005 1.005 0 0 0 2.008.001v-6.324c0-.1.06-.2.15-.25a2.487 2.487 0 0 0 1.326-2.202 2.519 2.519 0 0 0-1.325-2.181Z"/><path fill="url(#paint22_radial_4002_1949)" d="M25.93 17.043c-.191-.1-.432.03-.432.25v1.551c0 .42-.341.77-.763.76a.746.746 0 0 1-.733-.75v-1.561c0-.22-.24-.36-.432-.26a2.482 2.482 0 0 0-1.315 2.171c-.01.97.552 1.821 1.366 2.241.09.05.15.15.15.25V28a1.005 1.005 0 0 0 2.008.001v-6.324c0-.1.06-.2.15-.25a2.487 2.487 0 0 0 1.326-2.202 2.519 2.519 0 0 0-1.325-2.181Z"/><path fill="url(#paint23_radial_4002_1949)" d="M25.93 17.043c-.191-.1-.432.03-.432.25v1.551c0 .42-.341.77-.763.76a.746.746 0 0 1-.733-.75v-1.561c0-.22-.24-.36-.432-.26a2.482 2.482 0 0 0-1.315 2.171c-.01.97.552 1.821 1.366 2.241.09.05.15.15.15.25V28a1.005 1.005 0 0 0 2.008.001v-6.324c0-.1.06-.2.15-.25a2.487 2.487 0 0 0 1.326-2.202 2.519 2.519 0 0 0-1.325-2.181Z"/></g><g filter="url(#filter5_f_4002_1949)"><path fill="#B3A4C6" d="M24.755 21.651h.78v3.662h-.78z"/></g><g filter="url(#filter6_i_4002_1949)"><path fill="url(#paint24_linear_4002_1949)" d="M22.927 25.326a.73.73 0 0 1 .727-.732h2.391a1.2 1.2 0 0 1 1.2 1.2V29a1 1 0 0 1-1 1h-2.591a.731.731 0 0 1-.32-1.389.735.735 0 0 1 0-1.314.735.735 0 0 1 0-1.314.735.735 0 0 1-.407-.657Z"/><path fill="url(#paint25_radial_4002_1949)" d="M22.927 25.326a.73.73 0 0 1 .727-.732h2.391a1.2 1.2 0 0 1 1.2 1.2V29a1 1 0 0 1-1 1h-2.591a.731.731 0 0 1-.32-1.389.735.735 0 0 1 0-1.314.735.735 0 0 1 0-1.314.735.735 0 0 1-.407-.657Z"/><path fill="url(#paint26_radial_4002_1949)" d="M22.927 25.326a.73.73 0 0 1 .727-.732h2.391a1.2 1.2 0 0 1 1.2 1.2V29a1 1 0 0 1-1 1h-2.591a.731.731 0 0 1-.32-1.389.735.735 0 0 1 0-1.314.735.735 0 0 1 0-1.314.735.735 0 0 1-.407-.657Z"/><path fill="url(#paint27_radial_4002_1949)" d="M22.927 25.326a.73.73 0 0 1 .727-.732h2.391a1.2 1.2 0 0 1 1.2 1.2V29a1 1 0 0 1-1 1h-2.591a.731.731 0 0 1-.32-1.389.735.735 0 0 1 0-1.314.735.735 0 0 1 0-1.314.735.735 0 0 1-.407-.657Z"/><path fill="url(#paint28_radial_4002_1949)" d="M22.927 25.326a.73.73 0 0 1 .727-.732h2.391a1.2 1.2 0 0 1 1.2 1.2V29a1 1 0 0 1-1 1h-2.591a.731.731 0 0 1-.32-1.389.735.735 0 0 1 0-1.314.735.735 0 0 1 0-1.314.735.735 0 0 1-.407-.657Z"/></g><g filter="url(#filter7_f_4002_1949)"><path stroke="url(#paint29_linear_4002_1949)" stroke-linecap="round" stroke-width=".1" d="M23.503 25.992H25.3"/></g><g filter="url(#filter8_f_4002_1949)"><path stroke="url(#paint30_linear_4002_1949)" stroke-linecap="round" stroke-width=".1" d="M23.425 27.297h1.797"/></g><g filter="url(#filter9_f_4002_1949)"><path stroke="url(#paint31_linear_4002_1949)" stroke-linecap="round" stroke-width=".1" d="M23.503 28.602H25.3"/></g><g filter="url(#filter10_i_4002_1949)"><circle cx="20.466" cy="11.072" r="1.671" fill="url(#paint32_linear_4002_1949)"/><circle cx="20.466" cy="11.072" r="1.671" fill="url(#paint33_radial_4002_1949)"/></g><g filter="url(#filter11_f_4002_1949)"><circle cx="20.466" cy="11.072" r=".996" fill="#463133"/><circle cx="20.466" cy="11.072" r=".996" fill="url(#paint34_radial_4002_1949)"/><circle cx="20.466" cy="11.072" r=".996" fill="url(#paint35_radial_4002_1949)"/></g><g filter="url(#filter12_i_4002_1949)"><circle cx="10.944" cy="11.072" r="1.671" fill="url(#paint36_radial_4002_1949)"/></g><g filter="url(#filter13_f_4002_1949)"><circle cx="10.944" cy="11.072" r=".996" fill="url(#paint37_linear_4002_1949)"/></g><g filter="url(#filter14_i_4002_1949)"><path fill="url(#paint38_linear_4002_1949)" d="M10.577 8.878c0-.905.323-1.884.323-2.793 0-.908 8.518-1.148 9.813.14.503.352.224 2.432.182 2.848-.18 1.791-.234 3.606-.355 5.403-.16 1.771-1.553 3.006-3.213 3.006h-3.214c-1.713 0-3.053-1.235-3.213-3.006-.14-1.811-.323-3.78-.323-5.598Z"/><path fill="url(#paint39_linear_4002_1949)" d="M10.577 8.878c0-.905.323-1.884.323-2.793 0-.908 8.518-1.148 9.813.14.503.352.224 2.432.182 2.848-.18 1.791-.234 3.606-.355 5.403-.16 1.771-1.553 3.006-3.213 3.006h-3.214c-1.713 0-3.053-1.235-3.213-3.006-.14-1.811-.323-3.78-.323-5.598Z"/><path fill="url(#paint40_radial_4002_1949)" d="M10.577 8.878c0-.905.323-1.884.323-2.793 0-.908 8.518-1.148 9.813.14.503.352.224 2.432.182 2.848-.18 1.791-.234 3.606-.355 5.403-.16 1.771-1.553 3.006-3.213 3.006h-3.214c-1.713 0-3.053-1.235-3.213-3.006-.14-1.811-.323-3.78-.323-5.598Z"/><path fill="url(#paint41_radial_4002_1949)" d="M10.577 8.878c0-.905.323-1.884.323-2.793 0-.908 8.518-1.148 9.813.14.503.352.224 2.432.182 2.848-.18 1.791-.234 3.606-.355 5.403-.16 1.771-1.553 3.006-3.213 3.006h-3.214c-1.713 0-3.053-1.235-3.213-3.006-.14-1.811-.323-3.78-.323-5.598Z"/><path fill="url(#paint42_radial_4002_1949)" d="M10.577 8.878c0-.905.323-1.884.323-2.793 0-.908 8.518-1.148 9.813.14.503.352.224 2.432.182 2.848-.18 1.791-.234 3.606-.355 5.403-.16 1.771-1.553 3.006-3.213 3.006h-3.214c-1.713 0-3.053-1.235-3.213-3.006-.14-1.811-.323-3.78-.323-5.598Z"/><path fill="url(#paint43_radial_4002_1949)" d="M10.577 8.878c0-.905.323-1.884.323-2.793 0-.908 8.518-1.148 9.813.14.503.352.224 2.432.182 2.848-.18 1.791-.234 3.606-.355 5.403-.16 1.771-1.553 3.006-3.213 3.006h-3.214c-1.713 0-3.053-1.235-3.213-3.006-.14-1.811-.323-3.78-.323-5.598Z"/><path fill="url(#paint44_radial_4002_1949)" d="M10.577 8.878c0-.905.323-1.884.323-2.793 0-.908 8.518-1.148 9.813.14.503.352.224 2.432.182 2.848-.18 1.791-.234 3.606-.355 5.403-.16 1.771-1.553 3.006-3.213 3.006h-3.214c-1.713 0-3.053-1.235-3.213-3.006-.14-1.811-.323-3.78-.323-5.598Z"/><path fill="url(#paint45_radial_4002_1949)" d="M10.577 8.878c0-.905.323-1.884.323-2.793 0-.908 8.518-1.148 9.813.14.503.352.224 2.432.182 2.848-.18 1.791-.234 3.606-.355 5.403-.16 1.771-1.553 3.006-3.213 3.006h-3.214c-1.713 0-3.053-1.235-3.213-3.006-.14-1.811-.323-3.78-.323-5.598Z"/></g><g filter="url(#filter15_f_4002_1949)"><path fill="#332024" d="m15.42 10.95-.82 1.701c-.102.35.142.7.488.7h.738c.346 0 .59-.355.488-.7l-.498-1.701c-.107-.377-.284-.377-.396 0Z"/></g><g filter="url(#filter16_f_4002_1949)"><path fill="#4B3034" d="m15.313 10.787-.531 1.701a.54.54 0 0 0 .52.7h.788a.54.54 0 0 0 .52-.7l-.531-1.701c-.114-.377-.646-.377-.766 0Z"/><path fill="url(#paint46_linear_4002_1949)" d="m15.313 10.787-.531 1.701a.54.54 0 0 0 .52.7h.788a.54.54 0 0 0 .52-.7l-.531-1.701c-.114-.377-.646-.377-.766 0Z"/><path fill="url(#paint47_linear_4002_1949)" d="m15.313 10.787-.531 1.701a.54.54 0 0 0 .52.7h.788a.54.54 0 0 0 .52-.7l-.531-1.701c-.114-.377-.646-.377-.766 0Z"/><path fill="url(#paint48_linear_4002_1949)" d="m15.313 10.787-.531 1.701a.54.54 0 0 0 .52.7h.788a.54.54 0 0 0 .52-.7l-.531-1.701c-.114-.377-.646-.377-.766 0Z"/><path fill="url(#paint49_radial_4002_1949)" d="m15.313 10.787-.531 1.701a.54.54 0 0 0 .52.7h.788a.54.54 0 0 0 .52-.7l-.531-1.701c-.114-.377-.646-.377-.766 0Z"/><path fill="url(#paint50_linear_4002_1949)" d="m15.313 10.787-.531 1.701a.54.54 0 0 0 .52.7h.788a.54.54 0 0 0 .52-.7l-.531-1.701c-.114-.377-.646-.377-.766 0Z"/></g><path fill="#2A0219" stroke="url(#paint51_linear_4002_1949)" stroke-width=".1" d="M14.333 13.832c.393.205.863.323 1.363.323.505 0 .97-.118 1.363-.323a.204.204 0 0 1 .242.04.19.19 0 0 1 .021.241m-2.99-.28 2.948.253m-2.947-.254a.203.203 0 0 0-.242.042.187.187 0 0 0-.02.24m.262-.282-.221.254m3.21.027-.041-.027m.041.027-.041-.027m.041.027a1.945 1.945 0 0 1-1.626.87 1.945 1.945 0 0 1-1.626-.87m3.21-.027c-.335.508-.919.846-1.584.846s-1.25-.338-1.584-.846m-.042.027v.001l.042-.028m-.042.027.042-.027"/><path fill="#fff" d="M18.086 9.64c.654 0 1.206.451 1.356 1.06a.274.274 0 0 1-.268.34h-2.233a.23.23 0 0 1-.227-.271 1.399 1.399 0 0 1 1.372-1.129Z"/><path fill="url(#paint52_radial_4002_1949)" d="M17.88 9.912a.893.893 0 0 1 .86 1.129h-1.726a.897.897 0 0 1 .865-1.129Z"/><path fill="#000" d="M17.368 10.805a.51.51 0 0 1 .511-.511.51.51 0 0 1 .455.747h-.906a.464.464 0 0 1-.06-.236Z"/><g filter="url(#filter17_f_4002_1949)"><path fill="#C7A7A3" d="M17.813 10.101c.064.085-.069.189-.22.302-.151.113-.264.193-.327.107-.064-.085.007-.245.158-.358.152-.113.326-.136.39-.05Z"/><path fill="url(#paint53_radial_4002_1949)" d="M17.813 10.101c.064.085-.069.189-.22.302-.151.113-.264.193-.327.107-.064-.085.007-.245.158-.358.152-.113.326-.136.39-.05Z"/></g><g filter="url(#filter18_f_4002_1949)"><path fill="url(#paint54_linear_4002_1949)" d="M18.675 10.688a.84.84 0 0 0-.232-.463l-.26.285.117.229.375-.051Z"/></g><path fill="#fff" d="M13.3 9.64c-.653 0-1.205.45-1.355 1.06a.274.274 0 0 0 .268.34h2.233a.23.23 0 0 0 .227-.271A1.402 1.402 0 0 0 13.3 9.64Z"/><path fill="url(#paint55_radial_4002_1949)" d="M13.508 9.912a.893.893 0 0 0-.86 1.129h1.725a.915.915 0 0 0 .032-.236.9.9 0 0 0-.897-.893Z"/><path fill="#000" d="M14.02 10.806a.51.51 0 0 0-.512-.512.51.51 0 0 0-.455.747h.905a.507.507 0 0 0 .061-.236Z"/><g filter="url(#filter19_f_4002_1949)"><path fill="url(#paint56_linear_4002_1949)" d="M14.324 10.7c0-.288-.235-.48-.298-.539l-.289.28.178.361.409-.101Z"/></g><g filter="url(#filter20_f_4002_1949)" transform="rotate(-27.914 13.238 10.294)"><ellipse cx="13.238" cy="10.294" fill="#C7A7A3" fill-opacity=".9" rx=".39" ry=".197"/><ellipse cx="13.238" cy="10.294" fill="url(#paint57_radial_4002_1949)" rx=".39" ry=".197"/></g><g filter="url(#filter21_i_4002_1949)"><path fill="#1E1E1E" fill-rule="evenodd" d="M17.477 8.754c.721-.067 1.183.214 1.295.317a.473.473 0 1 0 .64-.695c-.306-.283-1.032-.656-2.022-.563a.473.473 0 1 0 .087.94Z" clip-rule="evenodd"/></g><g filter="url(#filter22_i_4002_1949)"><path fill="#1E1E1E" fill-rule="evenodd" d="M13.915 8.754c-.72-.067-1.183.214-1.295.317a.473.473 0 1 1-.64-.695c.306-.283 1.032-.656 2.023-.563a.473.473 0 1 1-.088.94Z" clip-rule="evenodd"/></g><path fill="url(#paint58_linear_4002_1949)" d="M10.16 9.608V7.264h1.196c-.047.139-.198.47-.425.69-.226.219-.302.595-.302.807v1.391c-.268 0-.482-.222-.47-.544Z"/><path fill="url(#paint59_linear_4002_1949)" d="M21.325 9.608V7.264h-1.198c.048.139.199.47.425.69.227.219.302.595.302.807l-.047 1.391c.268 0 .53-.222.518-.544Z"/><g filter="url(#filter23_i_4002_1949)"><path fill="url(#paint60_radial_4002_1949)" d="M12.045 6.26c-.68.31-1.29.74-1.89 1.31l.41.51c.31.38.85.49 1.28.25.76-.42 2.11-.99 3.9-.99s3.14.57 3.9.99a1 1 0 0 0 1.27-.25l.41-.51c-.6-.57-1.21-.99-1.89-1.31a8.76 8.76 0 0 0-7.39 0Z"/></g><g filter="url(#filter24_i_4002_1949)"><path fill="url(#paint61_radial_4002_1949)" d="M16.795 2c1.44 0 2.82.43 3.73 1.51.7.83 1.08 2.36.8 4.06-.6-.57-1.21-.99-1.89-1.31a8.76 8.76 0 0 0-7.39 0c-.68.31-1.29.74-1.89 1.31-.28-1.71.1-3.23.8-4.06.91-1.08 2.29-1.51 3.73-1.51h2.11Z"/></g><defs><radialGradient id="paint3_radial_4002_1949" cx="0" cy="0" r="1" gradientTransform="rotate(135.74 4.223 11.079) scale(3.58199 4.84976)" gradientUnits="userSpaceOnUse"><stop stop-color="#7C6987"/><stop offset="1" stop-color="#EEE0FE" stop-opacity="0"/></radialGradient><radialGradient id="paint6_radial_4002_1949" cx="0" cy="0" r="1" gradientTransform="rotate(123.951 4.148 12.705) scale(2.98327 2.1547)" gradientUnits="userSpaceOnUse"><stop stop-color="#8E7F98"/><stop offset="1" stop-color="#D6CBDF" stop-opacity="0"/></radialGradient><radialGradient id="paint7_radial_4002_1949" cx="0" cy="0" r="1" gradientTransform="matrix(2.70871 0 0 14.0625 6.066 30)" gradientUnits="userSpaceOnUse"><stop stop-color="#C7ACEA"/><stop offset="1" stop-color="#C6B9DB"/></radialGradient><radialGradient id="paint8_radial_4002_1949" cx="0" cy="0" r="1" gradientTransform="matrix(-2.2813 6.68749 -5.49369 -1.87406 9.223 17.781)" gradientUnits="userSpaceOnUse"><stop stop-color="#99959A"/><stop offset="1" stop-color="#99959A" stop-opacity="0"/></radialGradient><radialGradient id="paint9_radial_4002_1949" cx="0" cy="0" r="1" gradientTransform="matrix(0 -13.2187 2.59375 0 9.223 30.438)" gradientUnits="userSpaceOnUse"><stop offset=".168" stop-color="#9680B0"/><stop offset="1" stop-color="#ABA1BB" stop-opacity="0"/></radialGradient><radialGradient id="paint11_radial_4002_1949" cx="0" cy="0" r="1" gradientTransform="matrix(0 7.3125 -1.98 0 24.755 21.938)" gradientUnits="userSpaceOnUse"><stop offset=".329" stop-color="#D2C9DE"/><stop offset="1" stop-color="#D2C9DE" stop-opacity="0"/></radialGradient><radialGradient id="paint12_radial_4002_1949" cx="0" cy="0" r="1" gradientTransform="matrix(-1.7453 1.74043 -2.1505 -2.15651 27.338 23.373)" gradientUnits="userSpaceOnUse"><stop offset=".493" stop-color="#4B312D"/><stop offset=".946" stop-color="#2B1820"/></radialGradient><radialGradient id="paint13_radial_4002_1949" cx="0" cy="0" r="1" gradientTransform="matrix(.78818 -.60013 .3134 .41161 27.001 23.598)" gradientUnits="userSpaceOnUse"><stop offset=".132" stop-color="#675655"/><stop offset="1" stop-color="#675655" stop-opacity="0"/></radialGradient><radialGradient id="paint14_radial_4002_1949" cx="0" cy="0" r="1" gradientTransform="matrix(0 -12.1153 44.4939 0 15.79 29.983)" gradientUnits="userSpaceOnUse"><stop offset=".077" stop-color="#3B71D9"/><stop offset="1" stop-color="#45C0FF"/></radialGradient><radialGradient id="paint15_radial_4002_1949" cx="0" cy="0" r="1" gradientTransform="matrix(0 -8.875 5.37793 0 22.464 32.545)" gradientUnits="userSpaceOnUse"><stop stop-color="#345CBF"/><stop offset="1" stop-color="#345CBF" stop-opacity="0"/></radialGradient><radialGradient id="paint18_radial_4002_1949" cx="0" cy="0" r="1" gradientTransform="matrix(-3.59908 3.3973 -1.77851 -1.88415 10.553 15.318)" gradientUnits="userSpaceOnUse"><stop stop-color="#3F8AAD"/><stop offset="1" stop-color="#3F8AAD" stop-opacity="0"/></radialGradient><radialGradient id="paint22_radial_4002_1949" cx="0" cy="0" r="1" gradientTransform="matrix(1.26563 -2.32812 2.70524 1.47064 23.707 20.906)" gradientUnits="userSpaceOnUse"><stop stop-color="#9872BB"/><stop offset="1" stop-color="#9872BB" stop-opacity="0"/></radialGradient><radialGradient id="paint23_radial_4002_1949" cx="0" cy="0" r="1" gradientTransform="rotate(53.424 -5.116 34.839) scale(2.25697 2.46612)" gradientUnits="userSpaceOnUse"><stop stop-color="#BAB5C6"/><stop offset="1" stop-color="#BAB5C6" stop-opacity="0"/></radialGradient><radialGradient id="paint25_radial_4002_1949" cx="0" cy="0" r="1" gradientTransform="matrix(0 .8017 -1.35439 0 25.364 25.305)" gradientUnits="userSpaceOnUse"><stop offset=".106" stop-color="#5E4745"/><stop offset="1" stop-color="#533531" stop-opacity="0"/></radialGradient><radialGradient id="paint26_radial_4002_1949" cx="0" cy="0" r="1" gradientTransform="matrix(0 .85938 -1.45182 0 25.364 26.6)" gradientUnits="userSpaceOnUse"><stop offset=".109" stop-color="#5E4745"/><stop offset="1" stop-color="#533531" stop-opacity="0"/></radialGradient><radialGradient id="paint27_radial_4002_1949" cx="0" cy="0" r="1" gradientTransform="matrix(0 .71875 -1.21425 0 25.364 27.85)" gradientUnits="userSpaceOnUse"><stop offset=".109" stop-color="#5E4745"/><stop offset="1" stop-color="#533531" stop-opacity="0"/></radialGradient><radialGradient id="paint28_radial_4002_1949" cx="0" cy="0" r="1" gradientTransform="matrix(0 .79938 -1.7273 0 25.364 29.2)" gradientUnits="userSpaceOnUse"><stop offset=".186" stop-color="#5E4745"/><stop offset="1" stop-color="#533531" stop-opacity="0"/></radialGradient><radialGradient id="paint33_radial_4002_1949" cx="0" cy="0" r="1" gradientTransform="matrix(.82748 -.60254 .68772 .94447 20.838 10.807)" gradientUnits="userSpaceOnUse"><stop offset=".543" stop-color="#40272A"/><stop offset="1" stop-color="#40272A" stop-opacity="0"/></radialGradient><radialGradient id="paint34_radial_4002_1949" cx="0" cy="0" r="1" gradientTransform="matrix(.82204 -1.51196 .88496 .48114 20.425 11.894)" gradientUnits="userSpaceOnUse"><stop offset=".755" stop-color="#31191A" stop-opacity="0"/><stop offset=".916" stop-color="#31191A"/></radialGradient><radialGradient id="paint35_radial_4002_1949" cx="0" cy="0" r="1" gradientTransform="matrix(.25953 .2569 -.33118 .33457 20.466 11.073)" gradientUnits="userSpaceOnUse"><stop stop-color="#352123"/><stop offset="1" stop-color="#352123" stop-opacity="0"/></radialGradient><radialGradient id="paint36_radial_4002_1949" cx="0" cy="0" r="1" gradientTransform="matrix(1.75652 0 0 3.07393 9.273 11.072)" gradientUnits="userSpaceOnUse"><stop offset=".351" stop-color="#362324"/><stop offset="1" stop-color="#332423"/></radialGradient><radialGradient id="paint40_radial_4002_1949" cx="0" cy="0" r="1" gradientTransform="matrix(0 7.11187 -9.6133 0 15.418 10.873)" gradientUnits="userSpaceOnUse"><stop offset=".561" stop-color="#3D2138" stop-opacity="0"/><stop offset="1" stop-color="#3D2138"/></radialGradient><radialGradient id="paint41_radial_4002_1949" cx="0" cy="0" r="1" gradientTransform="matrix(0 -1.30832 1.60345 0 18.057 9.8)" gradientUnits="userSpaceOnUse"><stop stop-color="#412628"/><stop offset="1" stop-color="#412628" stop-opacity="0"/></radialGradient><radialGradient id="paint42_radial_4002_1949" cx="0" cy="0" r="1" gradientTransform="matrix(0 -1.39218 1.72401 0 13.514 9.766)" gradientUnits="userSpaceOnUse"><stop stop-color="#351D26"/><stop offset="1" stop-color="#351D26" stop-opacity="0"/></radialGradient><radialGradient id="paint43_radial_4002_1949" cx="0" cy="0" r="1" gradientTransform="matrix(-2.83177 -.68748 .40546 -1.6701 19.973 17.238)" gradientUnits="userSpaceOnUse"><stop offset=".136" stop-color="#5B4B4D"/><stop offset="1" stop-color="#5B4B4D" stop-opacity="0"/></radialGradient><radialGradient id="paint44_radial_4002_1949" cx="0" cy="0" r="1" gradientTransform="rotate(132.936 8.646 8.205) scale(4.90874 6.54919)" gradientUnits="userSpaceOnUse"><stop stop-color="#5A4340"/><stop offset="1" stop-color="#5A4340" stop-opacity="0"/></radialGradient><radialGradient id="paint45_radial_4002_1949" cx="0" cy="0" r="1" gradientTransform="matrix(0 4.03125 -7.41394 0 15.793 7.069)" gradientUnits="userSpaceOnUse"><stop stop-color="#2B1C2E"/><stop offset="1" stop-color="#2B1C2E" stop-opacity="0"/></radialGradient><radialGradient id="paint49_radial_4002_1949" cx="0" cy="0" r="1" gradientTransform="matrix(0 .19709 -.6332 0 16.023 12.68)" gradientUnits="userSpaceOnUse"><stop stop-color="#624E4D"/><stop offset="1" stop-color="#624E4D" stop-opacity="0"/></radialGradient><radialGradient id="paint52_radial_4002_1949" cx="0" cy="0" r="1" gradientTransform="matrix(0 .8119 -1.29142 0 17.877 10.39)" gradientUnits="userSpaceOnUse"><stop offset=".802" stop-color="#7D574A"/><stop offset="1" stop-color="#694B43"/><stop offset="1" stop-color="#804D49"/><stop offset="1" stop-color="#664944"/></radialGradient><radialGradient id="paint53_radial_4002_1949" cx="0" cy="0" r="1" gradientTransform="matrix(-.23208 -.29907 .41175 -.31952 17.65 10.474)" gradientUnits="userSpaceOnUse"><stop offset=".766" stop-color="#FFE6E2" stop-opacity="0"/><stop offset=".966" stop-color="#FFE6E2"/></radialGradient><radialGradient id="paint55_radial_4002_1949" cx="0" cy="0" r="1" gradientTransform="matrix(0 .81194 -1.29148 0 13.51 10.39)" gradientUnits="userSpaceOnUse"><stop offset=".802" stop-color="#7D574A"/><stop offset="1" stop-color="#694B43"/><stop offset="1" stop-color="#804D49"/><stop offset="1" stop-color="#664944"/></radialGradient><radialGradient id="paint57_radial_4002_1949" cx="0" cy="0" r="1" gradientTransform="rotate(-90.897 11.834 -1.204) scale(.4945 .5944)" gradientUnits="userSpaceOnUse"><stop offset=".766" stop-color="#FFE6E2" stop-opacity="0"/><stop offset=".966" stop-color="#FFE6E2"/></radialGradient><radialGradient id="paint60_radial_4002_1949" cx="0" cy="0" r="1" gradientTransform="rotate(-158.919 10.694 2.553) scale(8.7748 8.41903)" gradientUnits="userSpaceOnUse"><stop offset=".207" stop-color="#47C4FF"/><stop offset="1" stop-color="#2F83BE"/></radialGradient><radialGradient id="paint61_radial_4002_1949" cx="0" cy="0" r="1" gradientTransform="rotate(139.529 8.817 5.504) scale(8.95518 9.18704)" gradientUnits="userSpaceOnUse"><stop stop-color="#4FBFFF"/><stop offset=".682" stop-color="#2780B8"/><stop offset="1" stop-color="#3A69A2"/></radialGradient><linearGradient id="paint0_linear_4002_1949" x1="12.035" x2="21.723" y1="23.156" y2="18.344" gradientUnits="userSpaceOnUse"><stop stop-color="#D6C6ED"/><stop offset="1" stop-color="#CDB2D2"/></linearGradient><linearGradient id="paint1_linear_4002_1949" x1="14.633" x2="13.974" y1="19.957" y2="19.239" gradientUnits="userSpaceOnUse"><stop stop-color="#E0C7FA"/><stop offset="1" stop-color="#E0C7FA" stop-opacity="0"/></linearGradient><linearGradient id="paint2_linear_4002_1949" x1="11.699" x2="12.504" y1="18.875" y2="18.875" gradientUnits="userSpaceOnUse"><stop stop-color="#D3C8DC"/><stop offset="1" stop-color="#EEE0FE" stop-opacity="0"/></linearGradient><linearGradient id="paint4_linear_4002_1949" x1="19.937" x2="18.312" y1="19.527" y2="19.527" gradientUnits="userSpaceOnUse"><stop stop-color="#FFF7FF"/><stop offset="1" stop-color="#F0E1FF" stop-opacity="0"/></linearGradient><linearGradient id="paint5_linear_4002_1949" x1="17" x2="17.937" y1="20.105" y2="19.027" gradientUnits="userSpaceOnUse"><stop stop-color="#DBBAF9"/><stop offset="1" stop-color="#FFE4F7" stop-opacity="0"/></linearGradient><linearGradient id="paint10_linear_4002_1949" x1="23.473" x2="23.473" y1="29.781" y2="23.531" gradientUnits="userSpaceOnUse"><stop stop-color="#9B80B4"/><stop offset="1" stop-color="#B7A9C2"/></linearGradient><linearGradient id="paint16_linear_4002_1949" x1="8.441" x2="9.059" y1="29.973" y2="29.953" gradientUnits="userSpaceOnUse"><stop offset=".203" stop-color="#2860C0"/><stop offset="1" stop-color="#2860C0" stop-opacity="0"/></linearGradient><linearGradient id="paint17_linear_4002_1949" x1="23.232" x2="22.627" y1="30" y2="30" gradientUnits="userSpaceOnUse"><stop stop-color="#2B5FB7"/><stop offset="1" stop-color="#2B5FB7" stop-opacity="0"/></linearGradient><linearGradient id="paint19_linear_4002_1949" x1="12.43" x2="12.43" y1="23.95" y2="27.53" gradientUnits="userSpaceOnUse"><stop stop-color="#E73C75"/><stop offset="1" stop-color="#F03A62"/></linearGradient><linearGradient id="paint20_linear_4002_1949" x1="12.43" x2="12.43" y1="24.45" y2="27.03" gradientUnits="userSpaceOnUse"><stop stop-color="#E0CCF0"/><stop offset=".752" stop-color="#E0C6F6"/></linearGradient><linearGradient id="paint21_linear_4002_1949" x1="25.191" x2="23.16" y1="21.906" y2="21.906" gradientUnits="userSpaceOnUse"><stop stop-color="#847596" stop-opacity="0"/><stop offset="1" stop-color="#847596"/></linearGradient><linearGradient id="paint24_linear_4002_1949" x1="26.955" x2="22.927" y1="28.063" y2="28.063" gradientUnits="userSpaceOnUse"><stop offset=".146" stop-color="#533632"/><stop offset=".861" stop-color="#3F282A"/></linearGradient><linearGradient id="paint29_linear_4002_1949" x1="23.503" x2="25.212" y1="26.07" y2="26.07" gradientUnits="userSpaceOnUse"><stop stop-color="#2E1C1E"/><stop offset="1" stop-color="#2E1C1E" stop-opacity="0"/></linearGradient><linearGradient id="paint30_linear_4002_1949" x1="23.425" x2="25.134" y1="27.375" y2="27.375" gradientUnits="userSpaceOnUse"><stop stop-color="#2E1C1E"/><stop offset="1" stop-color="#2E1C1E" stop-opacity="0"/></linearGradient><linearGradient id="paint31_linear_4002_1949" x1="23.503" x2="25.212" y1="28.68" y2="28.68" gradientUnits="userSpaceOnUse"><stop stop-color="#2E1C1E"/><stop offset="1" stop-color="#2E1C1E" stop-opacity="0"/></linearGradient><linearGradient id="paint32_linear_4002_1949" x1="21.553" x2="20.734" y1="9.98" y2="12.518" gradientUnits="userSpaceOnUse"><stop stop-color="#635251"/><stop offset="1" stop-color="#452A31"/></linearGradient><linearGradient id="paint37_linear_4002_1949" x1="10.944" x2="10.303" y1="11.351" y2="11.351" gradientUnits="userSpaceOnUse"><stop stop-color="#281920"/><stop offset="1" stop-color="#27161D"/></linearGradient><linearGradient id="paint38_linear_4002_1949" x1="19.741" x2="12.128" y1="11.462" y2="12.592" gradientUnits="userSpaceOnUse"><stop stop-color="#533531"/><stop offset="1" stop-color="#3C2828"/></linearGradient><linearGradient id="paint39_linear_4002_1949" x1="10.34" x2="12.598" y1="14.161" y2="14.02" gradientUnits="userSpaceOnUse"><stop offset=".283" stop-color="#564440"/><stop offset="1" stop-color="#564440" stop-opacity="0"/></linearGradient><linearGradient id="paint46_linear_4002_1949" x1="14.831" x2="15.77" y1="12.122" y2="12.122" gradientUnits="userSpaceOnUse"><stop stop-color="#3D2928"/><stop offset="1" stop-color="#3D2928" stop-opacity="0"/></linearGradient><linearGradient id="paint47_linear_4002_1949" x1="16.635" x2="15.609" y1="12.445" y2="12.43" gradientUnits="userSpaceOnUse"><stop stop-color="#624D4B"/><stop offset="1" stop-color="#624D4B" stop-opacity="0"/></linearGradient><linearGradient id="paint48_linear_4002_1949" x1="15.891" x2="15.891" y1="13.188" y2="12.614" gradientUnits="userSpaceOnUse"><stop stop-color="#3F222F"/><stop offset="1" stop-color="#3F222F" stop-opacity="0"/></linearGradient><linearGradient id="paint50_linear_4002_1949" x1="15.696" x2="15.696" y1="10.504" y2="11.632" gradientUnits="userSpaceOnUse"><stop stop-color="#432C2E"/><stop offset="1" stop-color="#432C2E" stop-opacity="0"/></linearGradient><linearGradient id="paint51_linear_4002_1949" x1="14.658" x2="15.093" y1="14.804" y2="14.116" gradientUnits="userSpaceOnUse"><stop stop-color="#564848"/><stop offset=".663" stop-color="#564848" stop-opacity="0"/></linearGradient><linearGradient id="paint54_linear_4002_1949" x1="18.655" x2="18.342" y1="10.444" y2="10.637" gradientUnits="userSpaceOnUse"><stop stop-color="#B4948D"/><stop offset="1" stop-color="#B4948D" stop-opacity="0"/></linearGradient><linearGradient id="paint56_linear_4002_1949" x1="14.254" x2="13.94" y1="10.444" y2="10.637" gradientUnits="userSpaceOnUse"><stop stop-color="#B4948D"/><stop offset="1" stop-color="#B4948D" stop-opacity="0"/></linearGradient><linearGradient id="paint58_linear_4002_1949" x1="10.651" x2="10.158" y1="8.668" y2="8.668" gradientUnits="userSpaceOnUse"><stop stop-color="#1E191C"/><stop offset="1" stop-color="#463F3D"/></linearGradient><linearGradient id="paint59_linear_4002_1949" x1="20.833" x2="21.326" y1="8.668" y2="8.668" gradientUnits="userSpaceOnUse"><stop offset=".548" stop-color="#252224"/><stop offset="1" stop-color="#5B5A5A"/></linearGradient><filter id="filter0_f_4002_1949" width="9.938" height="8.021" x="10.364" y="15" color-interpolation-filters="sRGB" filterUnits="userSpaceOnUse"><feFlood flood-opacity="0" result="BackgroundImageFix"/><feBlend in="SourceGraphic" in2="BackgroundImageFix" result="shape"/><feGaussianBlur result="effect1_foregroundBlur_4002_1949" stdDeviation=".5"/></filter><filter id="filter1_d_4002_1949" width="5.33" height="3.88" x="9.765" y="23.9" color-interpolation-filters="sRGB" filterUnits="userSpaceOnUse"><feFlood flood-opacity="0" result="BackgroundImageFix"/><feColorMatrix in="SourceAlpha" result="hardAlpha" values="0 0 0 0 0 0 0 0 0 0 0 0 0 0 0 0 0 0 127 0"/><feOffset dy=".1"/><feGaussianBlur stdDeviation=".075"/><feComposite in2="hardAlpha" operator="out"/><feColorMatrix values="0 0 0 0 0.188235 0 0 0 0 0.384314 0 0 0 0 0.823529 0 0 0 1 0"/><feBlend in2="BackgroundImageFix" result="effect1_dropShadow_4002_1949"/><feBlend in="SourceGraphic" in2="effect1_dropShadow_4002_1949" result="shape"/></filter><filter id="filter2_i_4002_1949" width="4.03" height="2.58" x="10.415" y="24.45" color-interpolation-filters="sRGB" filterUnits="userSpaceOnUse"><feFlood flood-opacity="0" result="BackgroundImageFix"/><feBlend in="SourceGraphic" in2="BackgroundImageFix" result="shape"/><feColorMatrix in="SourceAlpha" result="hardAlpha" values="0 0 0 0 0 0 0 0 0 0 0 0 0 0 0 0 0 0 127 0"/><feOffset/><feGaussianBlur stdDeviation=".125"/><feComposite in2="hardAlpha" k2="-1" k3="1" operator="arithmetic"/><feColorMatrix values="0 0 0 0 0.882353 0 0 0 0 0.807843 0 0 0 0 0.929412 0 0 0 1 0"/><feBlend in2="shape" result="effect1_innerShadow_4002_1949"/></filter><filter id="filter3_i_4002_1949" width="3.922" height="2.04" x="13.799" y="16.636" color-interpolation-filters="sRGB" filterUnits="userSpaceOnUse"><feFlood flood-opacity="0" result="BackgroundImageFix"/><feBlend in="SourceGraphic" in2="BackgroundImageFix" result="shape"/><feColorMatrix in="SourceAlpha" result="hardAlpha" values="0 0 0 0 0 0 0 0 0 0 0 0 0 0 0 0 0 0 127 0"/><feOffset dy="-.2"/><feGaussianBlur stdDeviation=".2"/><feComposite in2="hardAlpha" k2="-1" k3="1" operator="arithmetic"/><feColorMatrix values="0 0 0 0 0.203922 0 0 0 0 0.109804 0 0 0 0 0.109804 0 0 0 1 0"/><feBlend in2="shape" result="effect1_innerShadow_4002_1949"/></filter><filter id="filter4_i_4002_1949" width="5.15" height="12.15" x="22.255" y="16.85" color-interpolation-filters="sRGB" filterUnits="userSpaceOnUse"><feFlood flood-opacity="0" result="BackgroundImageFix"/><feBlend in="SourceGraphic" in2="BackgroundImageFix" result="shape"/><feColorMatrix in="SourceAlpha" result="hardAlpha" values="0 0 0 0 0 0 0 0 0 0 0 0 0 0 0 0 0 0 127 0"/><feOffset dx=".15" dy="-.15"/><feGaussianBlur stdDeviation=".15"/><feComposite in2="hardAlpha" k2="-1" k3="1" operator="arithmetic"/><feColorMatrix values="0 0 0 0 0.490196 0 0 0 0 0.384314 0 0 0 0 0.611765 0 0 0 1 0"/><feBlend in2="shape" result="effect1_innerShadow_4002_1949"/></filter><filter id="filter5_f_4002_1949" width="2.08" height="4.962" x="24.105" y="21.001" color-interpolation-filters="sRGB" filterUnits="userSpaceOnUse"><feFlood flood-opacity="0" result="BackgroundImageFix"/><feBlend in="SourceGraphic" in2="BackgroundImageFix" result="shape"/><feGaussianBlur result="effect1_foregroundBlur_4002_1949" stdDeviation=".325"/></filter><filter id="filter6_i_4002_1949" width="4.468" height="5.556" x="22.927" y="24.444" color-interpolation-filters="sRGB" filterUnits="userSpaceOnUse"><feFlood flood-opacity="0" result="BackgroundImageFix"/><feBlend in="SourceGraphic" in2="BackgroundImageFix" result="shape"/><feColorMatrix in="SourceAlpha" result="hardAlpha" values="0 0 0 0 0 0 0 0 0 0 0 0 0 0 0 0 0 0 127 0"/><feOffset dx=".15" dy="-.15"/><feGaussianBlur stdDeviation=".5"/><feComposite in2="hardAlpha" k2="-1" k3="1" operator="arithmetic"/><feColorMatrix values="0 0 0 0 0.196078 0 0 0 0 0.117647 0 0 0 0 0.145098 0 0 0 1 0"/><feBlend in2="shape" result="effect1_innerShadow_4002_1949"/></filter><filter id="filter7_f_4002_1949" width="2.097" height=".3" x="23.353" y="25.842" color-interpolation-filters="sRGB" filterUnits="userSpaceOnUse"><feFlood flood-opacity="0" result="BackgroundImageFix"/><feBlend in="SourceGraphic" in2="BackgroundImageFix" result="shape"/><feGaussianBlur result="effect1_foregroundBlur_4002_1949" stdDeviation=".05"/></filter><filter id="filter8_f_4002_1949" width="2.097" height=".3" x="23.275" y="27.147" color-interpolation-filters="sRGB" filterUnits="userSpaceOnUse"><feFlood flood-opacity="0" result="BackgroundImageFix"/><feBlend in="SourceGraphic" in2="BackgroundImageFix" result="shape"/><feGaussianBlur result="effect1_foregroundBlur_4002_1949" stdDeviation=".05"/></filter><filter id="filter9_f_4002_1949" width="2.097" height=".3" x="23.353" y="28.451" color-interpolation-filters="sRGB" filterUnits="userSpaceOnUse"><feFlood flood-opacity="0" result="BackgroundImageFix"/><feBlend in="SourceGraphic" in2="BackgroundImageFix" result="shape"/><feGaussianBlur result="effect1_foregroundBlur_4002_1949" stdDeviation=".05"/></filter><filter id="filter10_i_4002_1949" width="3.592" height="3.592" x="18.795" y="9.151" color-interpolation-filters="sRGB" filterUnits="userSpaceOnUse"><feFlood flood-opacity="0" result="BackgroundImageFix"/><feBlend in="SourceGraphic" in2="BackgroundImageFix" result="shape"/><feColorMatrix in="SourceAlpha" result="hardAlpha" values="0 0 0 0 0 0 0 0 0 0 0 0 0 0 0 0 0 0 127 0"/><feOffset dx=".25" dy="-.25"/><feGaussianBlur stdDeviation=".25"/><feComposite in2="hardAlpha" k2="-1" k3="1" operator="arithmetic"/><feColorMatrix values="0 0 0 0 0.243137 0 0 0 0 0.141176 0 0 0 0 0.223529 0 0 0 1 0"/><feBlend in2="shape" result="effect1_innerShadow_4002_1949"/></filter><filter id="filter11_f_4002_1949" width="2.992" height="2.992" x="18.97" y="9.576" color-interpolation-filters="sRGB" filterUnits="userSpaceOnUse"><feFlood flood-opacity="0" result="BackgroundImageFix"/><feBlend in="SourceGraphic" in2="BackgroundImageFix" result="shape"/><feGaussianBlur result="effect1_foregroundBlur_4002_1949" stdDeviation=".25"/></filter><filter id="filter12_i_4002_1949" width="3.542" height="3.342" x="9.273" y="9.401" color-interpolation-filters="sRGB" filterUnits="userSpaceOnUse"><feFlood flood-opacity="0" result="BackgroundImageFix"/><feBlend in="SourceGraphic" in2="BackgroundImageFix" result="shape"/><feColorMatrix in="SourceAlpha" result="hardAlpha" values="0 0 0 0 0 0 0 0 0 0 0 0 0 0 0 0 0 0 127 0"/><feOffset dx=".2"/><feGaussianBlur stdDeviation=".15"/><feComposite in2="hardAlpha" k2="-1" k3="1" operator="arithmetic"/><feColorMatrix values="0 0 0 0 0.341176 0 0 0 0 0.270588 0 0 0 0 0.254902 0 0 0 1 0"/><feBlend in2="shape" result="effect1_innerShadow_4002_1949"/></filter><filter id="filter13_f_4002_1949" width="2.992" height="2.992" x="9.448" y="9.576" color-interpolation-filters="sRGB" filterUnits="userSpaceOnUse"><feFlood flood-opacity="0" result="BackgroundImageFix"/><feBlend in="SourceGraphic" in2="BackgroundImageFix" result="shape"/><feGaussianBlur result="effect1_foregroundBlur_4002_1949" stdDeviation=".25"/></filter><filter id="filter14_i_4002_1949" width="10.433" height="12.3" x="10.577" y="5.331" color-interpolation-filters="sRGB" filterUnits="userSpaceOnUse"><feFlood flood-opacity="0" result="BackgroundImageFix"/><feBlend in="SourceGraphic" in2="BackgroundImageFix" result="shape"/><feColorMatrix in="SourceAlpha" result="hardAlpha" values="0 0 0 0 0 0 0 0 0 0 0 0 0 0 0 0 0 0 127 0"/><feOffset dy=".15"/><feGaussianBlur stdDeviation=".125"/><feComposite in2="hardAlpha" k2="-1" k3="1" operator="arithmetic"/><feColorMatrix values="0 0 0 0 0.109804 0 0 0 0 0.0509804 0 0 0 0 0.0509804 0 0 0 1 0"/><feBlend in2="shape" result="effect1_innerShadow_4002_1949"/></filter><filter id="filter15_f_4002_1949" width="3.262" height="4.184" x="13.826" y="9.917" color-interpolation-filters="sRGB" filterUnits="userSpaceOnUse"><feFlood flood-opacity="0" result="BackgroundImageFix"/><feBlend in="SourceGraphic" in2="BackgroundImageFix" result="shape"/><feGaussianBlur result="effect1_foregroundBlur_4002_1949" stdDeviation=".375"/></filter><filter id="filter16_f_4002_1949" width="2.379" height="3.184" x="14.507" y="10.254" color-interpolation-filters="sRGB" filterUnits="userSpaceOnUse"><feFlood flood-opacity="0" result="BackgroundImageFix"/><feBlend in="SourceGraphic" in2="BackgroundImageFix" result="shape"/><feGaussianBlur result="effect1_foregroundBlur_4002_1949" stdDeviation=".125"/></filter><filter id="filter17_f_4002_1949" width=".787" height=".697" x="17.142" y="9.95" color-interpolation-filters="sRGB" filterUnits="userSpaceOnUse"><feFlood flood-opacity="0" result="BackgroundImageFix"/><feBlend in="SourceGraphic" in2="BackgroundImageFix" result="shape"/><feGaussianBlur result="effect1_foregroundBlur_4002_1949" stdDeviation=".05"/></filter><filter id="filter18_f_4002_1949" width=".892" height=".914" x="17.983" y="10.025" color-interpolation-filters="sRGB" filterUnits="userSpaceOnUse"><feFlood flood-opacity="0" result="BackgroundImageFix"/><feBlend in="SourceGraphic" in2="BackgroundImageFix" result="shape"/><feGaussianBlur result="effect1_foregroundBlur_4002_1949" stdDeviation=".1"/></filter><filter id="filter19_f_4002_1949" width=".987" height="1.041" x="13.537" y="9.961" color-interpolation-filters="sRGB" filterUnits="userSpaceOnUse"><feFlood flood-opacity="0" result="BackgroundImageFix"/><feBlend in="SourceGraphic" in2="BackgroundImageFix" result="shape"/><feGaussianBlur result="effect1_foregroundBlur_4002_1949" stdDeviation=".1"/></filter><filter id="filter20_f_4002_1949" width=".914" height=".705" x="12.781" y="9.941" color-interpolation-filters="sRGB" filterUnits="userSpaceOnUse"><feFlood flood-opacity="0" result="BackgroundImageFix"/><feBlend in="SourceGraphic" in2="BackgroundImageFix" result="shape"/><feGaussianBlur result="effect1_foregroundBlur_4002_1949" stdDeviation=".05"/></filter><filter id="filter21_i_4002_1949" width="2.854" height="1.798" x="16.961" y="7.398" color-interpolation-filters="sRGB" filterUnits="userSpaceOnUse"><feFlood flood-opacity="0" result="BackgroundImageFix"/><feBlend in="SourceGraphic" in2="BackgroundImageFix" result="shape"/><feColorMatrix in="SourceAlpha" result="hardAlpha" values="0 0 0 0 0 0 0 0 0 0 0 0 0 0 0 0 0 0 127 0"/><feOffset dx=".25" dy="-.4"/><feGaussianBlur stdDeviation=".3"/><feComposite in2="hardAlpha" k2="-1" k3="1" operator="arithmetic"/><feColorMatrix values="0 0 0 0 0.0431373 0 0 0 0 0.0196078 0 0 0 0 0.027451 0 0 0 1 0"/><feBlend in2="shape" result="effect1_innerShadow_4002_1949"/></filter><filter id="filter22_i_4002_1949" width="2.854" height="1.798" x="11.827" y="7.398" color-interpolation-filters="sRGB" filterUnits="userSpaceOnUse"><feFlood flood-opacity="0" result="BackgroundImageFix"/><feBlend in="SourceGraphic" in2="BackgroundImageFix" result="shape"/><feColorMatrix in="SourceAlpha" result="hardAlpha" values="0 0 0 0 0 0 0 0 0 0 0 0 0 0 0 0 0 0 127 0"/><feOffset dx=".25" dy="-.4"/><feGaussianBlur stdDeviation=".3"/><feComposite in2="hardAlpha" k2="-1" k3="1" operator="arithmetic"/><feColorMatrix values="0 0 0 0 0.0431373 0 0 0 0 0.0196078 0 0 0 0 0.027451 0 0 0 1 0"/><feBlend in2="shape" result="effect1_innerShadow_4002_1949"/></filter><filter id="filter23_i_4002_1949" width="11.17" height="3.114" x="10.155" y="5.342" color-interpolation-filters="sRGB" filterUnits="userSpaceOnUse"><feFlood flood-opacity="0" result="BackgroundImageFix"/><feBlend in="SourceGraphic" in2="BackgroundImageFix" result="shape"/><feColorMatrix in="SourceAlpha" result="hardAlpha" values="0 0 0 0 0 0 0 0 0 0 0 0 0 0 0 0 0 0 127 0"/><feOffset dy="-.1"/><feGaussianBlur stdDeviation=".1"/><feComposite in2="hardAlpha" k2="-1" k3="1" operator="arithmetic"/><feColorMatrix values="0 0 0 0 0.254902 0 0 0 0 0.560784 0 0 0 0 0.972549 0 0 0 1 0"/><feBlend in2="shape" result="effect1_innerShadow_4002_1949"/></filter><filter id="filter24_i_4002_1949" width="11.355" height="5.77" x="10.062" y="1.8" color-interpolation-filters="sRGB" filterUnits="userSpaceOnUse"><feFlood flood-opacity="0" result="BackgroundImageFix"/><feBlend in="SourceGraphic" in2="BackgroundImageFix" result="shape"/><feColorMatrix in="SourceAlpha" result="hardAlpha" values="0 0 0 0 0 0 0 0 0 0 0 0 0 0 0 0 0 0 127 0"/><feOffset dy="-.2"/><feGaussianBlur stdDeviation=".125"/><feComposite in2="hardAlpha" k2="-1" k3="1" operator="arithmetic"/><feColorMatrix values="0 0 0 0 0.12549 0 0 0 0 0.431373 0 0 0 0 0.721569 0 0 0 0.5 0"/><feBlend in2="shape" result="effect1_innerShadow_4002_1949"/></filter></defs></svg>