<svg xmlns="http://www.w3.org/2000/svg" width="32" height="32" fill="none" viewBox="0 0 32 32"><path fill="#56436B" d="M16.485 15.525c-6.07 0-11 4.92-11 11v3.5h21.99v-3.5c0-6.08-4.92-11-10.99-11Z"/><path fill="url(#paint0_radial_4002_1587)" d="M16.485 15.525c-6.07 0-11 4.92-11 11v3.5h21.99v-3.5c0-6.08-4.92-11-10.99-11Z"/><path fill="url(#paint1_radial_4002_1587)" d="M16.485 15.525c-6.07 0-11 4.92-11 11v3.5h21.99v-3.5c0-6.08-4.92-11-10.99-11Z"/><path fill="url(#paint2_radial_4002_1587)" d="M23.5 18.125a.242.242 0 0 0-.058-.29c-1.856-1.603-4.346-2.487-6.954-2.487-2.608 0-5.113.894-6.97 2.487a.242.242 0 0 0-.06.29c1.276 2.6 3.756 4.614 7.03 4.614 3.274 0 5.73-2.015 7.013-4.614Z"/><path fill="url(#paint3_radial_4002_1587)" d="M23.5 18.125a.242.242 0 0 0-.058-.29c-1.856-1.603-4.346-2.487-6.954-2.487-2.608 0-5.113.894-6.97 2.487a.242.242 0 0 0-.06.29c1.276 2.6 3.756 4.614 7.03 4.614 3.274 0 5.73-2.015 7.013-4.614Z"/><path fill="url(#paint4_radial_4002_1587)" d="M23.5 18.125a.242.242 0 0 0-.058-.29c-1.856-1.603-4.346-2.487-6.954-2.487-2.608 0-5.113.894-6.97 2.487a.242.242 0 0 0-.06.29c1.276 2.6 3.756 4.614 7.03 4.614 3.274 0 5.73-2.015 7.013-4.614Z"/><path fill="url(#paint5_radial_4002_1587)" d="M23.5 18.125a.242.242 0 0 0-.058-.29c-1.856-1.603-4.346-2.487-6.954-2.487-2.608 0-5.113.894-6.97 2.487a.242.242 0 0 0-.06.29c1.276 2.6 3.756 4.614 7.03 4.614 3.274 0 5.73-2.015 7.013-4.614Z"/><path fill="url(#paint6_radial_4002_1587)" d="M23.5 18.125a.242.242 0 0 0-.058-.29c-1.856-1.603-4.346-2.487-6.954-2.487-2.608 0-5.113.894-6.97 2.487a.242.242 0 0 0-.06.29c1.276 2.6 3.756 4.614 7.03 4.614 3.274 0 5.73-2.015 7.013-4.614Z"/><path fill="url(#paint7_radial_4002_1587)" d="M23.5 18.125a.242.242 0 0 0-.058-.29c-1.856-1.603-4.346-2.487-6.954-2.487-2.608 0-5.113.894-6.97 2.487a.242.242 0 0 0-.06.29c1.276 2.6 3.756 4.614 7.03 4.614 3.274 0 5.73-2.015 7.013-4.614Z"/><g filter="url(#filter0_f_4002_1587)"><path stroke="#1F0F21" stroke-width=".4" d="M16.186 18.896c.063.043.17.08.28.084a.563.563 0 0 0 .28-.084c1.017-.696 1.78-1.39 1.78-2.587v-3.633c0-1.14-.92-2.06-2.06-2.06-1.14 0-2.06.92-2.06 2.06v3.633c0 1.197.763 1.89 1.78 2.587Z"/></g><path fill="url(#paint8_radial_4002_1587)" d="M16.186 18.896c.063.043.17.08.28.084a.563.563 0 0 0 .28-.084c1.017-.696 1.78-1.39 1.78-2.587v-3.633c0-1.14-.92-2.06-2.06-2.06-1.14 0-2.06.92-2.06 2.06v3.633c0 1.197.763 1.89 1.78 2.587Z"/><path fill="url(#paint9_radial_4002_1587)" d="M16.186 18.896c.063.043.17.08.28.084a.563.563 0 0 0 .28-.084c1.017-.696 1.78-1.39 1.78-2.587v-3.633c0-1.14-.92-2.06-2.06-2.06-1.14 0-2.06.92-2.06 2.06v3.633c0 1.197.763 1.89 1.78 2.587Z"/><path fill="url(#paint10_radial_4002_1587)" d="M16.186 18.896c.063.043.17.08.28.084a.563.563 0 0 0 .28-.084c1.017-.696 1.78-1.39 1.78-2.587v-3.633c0-1.14-.92-2.06-2.06-2.06-1.14 0-2.06.92-2.06 2.06v3.633c0 1.197.763 1.89 1.78 2.587Z"/><path fill="url(#paint11_linear_4002_1587)" d="M25.213 11.698V2.835h-.8v8.863h.8Z"/><path fill="url(#paint12_radial_4002_1587)" d="M25.213 11.698V2.835h-.8v8.863h.8Z"/><path fill="url(#paint13_radial_4002_1587)" d="M24.413 11.675a.838.838 0 1 0 .8 0h-.8Z"/><path fill="url(#paint14_radial_4002_1587)" d="M24.413 11.675a.838.838 0 1 0 .8 0h-.8Z"/><g filter="url(#filter1_f_4002_1587)"><path stroke="url(#paint15_linear_4002_1587)" stroke-width=".15" d="M24.916 3.74v7.767"/></g><path fill="url(#paint16_linear_4002_1587)" d="m23.96 13.636-.517 2.238a.45.45 0 0 0 .445.551h1.863a.45.45 0 0 0 .43-.557l-.542-2.239a.5.5 0 0 0-.485-.381h-.707a.5.5 0 0 0-.488.388Z"/><path fill="url(#paint17_radial_4002_1587)" d="m23.96 13.636-.517 2.238a.45.45 0 0 0 .445.551h1.863a.45.45 0 0 0 .43-.557l-.542-2.239a.5.5 0 0 0-.485-.381h-.707a.5.5 0 0 0-.488.388Z"/><path fill="url(#paint18_radial_4002_1587)" d="m23.96 13.636-.517 2.238a.45.45 0 0 0 .445.551h1.863a.45.45 0 0 0 .43-.557l-.542-2.239a.5.5 0 0 0-.485-.381h-.707a.5.5 0 0 0-.488.388Z"/><path fill="url(#paint19_linear_4002_1587)" d="m23.96 13.636-.517 2.238a.45.45 0 0 0 .445.551h1.863a.45.45 0 0 0 .43-.557l-.542-2.239a.5.5 0 0 0-.485-.381h-.707a.5.5 0 0 0-.488.388Z"/><path fill="url(#paint20_radial_4002_1587)" d="m23.96 13.636-.517 2.238a.45.45 0 0 0 .445.551h1.863a.45.45 0 0 0 .43-.557l-.542-2.239a.5.5 0 0 0-.485-.381h-.707a.5.5 0 0 0-.488.388Z"/><path fill="url(#paint21_radial_4002_1587)" d="M9.25 30.026V18.239a10.972 10.972 0 0 0-3.765 8.287v3.5H9.25Z"/><path fill="url(#paint22_radial_4002_1587)" d="M9.25 30.026V18.239a10.972 10.972 0 0 0-3.765 8.287v3.5H9.25Z"/><path fill="url(#paint23_linear_4002_1587)" d="M9.25 30.026V18.239a10.972 10.972 0 0 0-3.765 8.287v3.5H9.25Z"/><path fill="url(#paint24_radial_4002_1587)" d="M23.71 30.026V18.239a10.972 10.972 0 0 1 3.765 8.287v3.5H23.71Z"/><path fill="url(#paint25_radial_4002_1587)" d="M23.71 30.026V18.239a10.972 10.972 0 0 1 3.765 8.287v3.5H23.71Z"/><g filter="url(#filter2_f_4002_1587)"><path fill="url(#paint26_linear_4002_1587)" d="M12.148 23.802c0-.188.155-.34.346-.34.19 0 .345.152.345.34v6.093h-.691v-6.093Z"/><path fill="url(#paint27_linear_4002_1587)" d="M16.134 23.802c0-.188.155-.34.346-.34.19 0 .346.152.346.34v6.093h-.692v-6.093Z"/><path fill="url(#paint28_linear_4002_1587)" d="M20.12 23.802c0-.188.155-.34.346-.34.191 0 .346.152.346.34v6.093h-.691v-6.093Z"/></g><g filter="url(#filter3_f_4002_1587)"><path stroke="url(#paint29_linear_4002_1587)" stroke-linecap="round" stroke-width=".1" d="M13.432 4.116c.024.255.246 1.214.572 1.794"/></g><g filter="url(#filter4_i_4002_1587)"><circle cx="11.684" cy="10.698" r="1.683" fill="url(#paint30_radial_4002_1587)"/></g><g filter="url(#filter5_f_4002_1587)"><circle cx="11.684" cy="10.698" r="1.003" fill="url(#paint31_linear_4002_1587)"/></g><g filter="url(#filter6_i_4002_1587)"><circle cx="21.276" cy="10.698" r="1.683" fill="url(#paint32_linear_4002_1587)"/><circle cx="21.276" cy="10.698" r="1.683" fill="url(#paint33_radial_4002_1587)"/></g><g filter="url(#filter7_f_4002_1587)"><circle cx="21.276" cy="10.698" r="1.003" fill="#7A5654"/><circle cx="21.276" cy="10.698" r="1.003" fill="url(#paint34_radial_4002_1587)"/><circle cx="21.276" cy="10.698" r="1.003" fill="url(#paint35_radial_4002_1587)"/></g><g filter="url(#filter8_i_4002_1587)"><path fill="url(#paint36_linear_4002_1587)" d="M11.33 10.08a.735.735 0 0 0 .049.002s-.054-.86-.108-1.452c0-.269.108-.591.324-.753l.162-.16c.27-.216.379-.539.379-.861v-.86c0-.27.162-.485.433-.538.648-.162 2-.43 3.947-.43 1.948 0 3.3.268 3.949.43.216.053.432.268.432.537v.86c0 .323.163.646.379.861.506.355.475.55.433.968a44.742 44.742 0 0 0-.109 1.452h.019l-.268 3.99c-.162 1.785-1.565 3.029-3.237 3.029h-3.237c-1.727 0-3.075-1.244-3.237-3.028l-.31-4.046Z"/><path fill="url(#paint37_radial_4002_1587)" d="M11.33 10.08a.735.735 0 0 0 .049.002s-.054-.86-.108-1.452c0-.269.108-.591.324-.753l.162-.16c.27-.216.379-.539.379-.861v-.86c0-.27.162-.485.433-.538.648-.162 2-.43 3.947-.43 1.948 0 3.3.268 3.949.43.216.053.432.268.432.537v.86c0 .323.163.646.379.861.506.355.475.55.433.968a44.742 44.742 0 0 0-.109 1.452h.019l-.268 3.99c-.162 1.785-1.565 3.029-3.237 3.029h-3.237c-1.727 0-3.075-1.244-3.237-3.028l-.31-4.046Z"/><path fill="url(#paint38_radial_4002_1587)" d="M11.33 10.08a.735.735 0 0 0 .049.002s-.054-.86-.108-1.452c0-.269.108-.591.324-.753l.162-.16c.27-.216.379-.539.379-.861v-.86c0-.27.162-.485.433-.538.648-.162 2-.43 3.947-.43 1.948 0 3.3.268 3.949.43.216.053.432.268.432.537v.86c0 .323.163.646.379.861.506.355.475.55.433.968a44.742 44.742 0 0 0-.109 1.452h.019l-.268 3.99c-.162 1.785-1.565 3.029-3.237 3.029h-3.237c-1.727 0-3.075-1.244-3.237-3.028l-.31-4.046Z"/></g><path fill="url(#paint39_linear_4002_1587)" d="M11.27 8.63c0-.269.109-.591.325-.753l.162-.16c.27-.216.379-.539.379-.861v-.86c0-.27.162-.485.433-.538.648-.162 2-.43 3.947-.43 1.948 0 3.3.268 3.949.43.216.053.432.268.432.537v.86c0 .323.163.646.379.861.506.355.475.55.433.968a44.742 44.742 0 0 0-.109 1.452h.019l-.268 3.99c-.162 1.785-1.565 3.029-3.237 3.029h-3.237c-1.727 0-3.075-1.244-3.237-3.028-.14-1.832-.202-3.668-.37-5.497Z"/><path fill="url(#paint40_linear_4002_1587)" d="M11.27 8.63c0-.269.109-.591.325-.753l.162-.16c.27-.216.379-.539.379-.861v-.86c0-.27.162-.485.433-.538.648-.162 2-.43 3.947-.43 1.948 0 3.3.268 3.949.43.216.053.432.268.432.537v.86c0 .323.163.646.379.861.506.355.475.55.433.968a44.742 44.742 0 0 0-.109 1.452h.019l-.268 3.99c-.162 1.785-1.565 3.029-3.237 3.029h-3.237c-1.727 0-3.075-1.244-3.237-3.028-.14-1.832-.202-3.668-.37-5.497Z"/><path fill="url(#paint41_radial_4002_1587)" d="M11.27 8.63c0-.269.109-.591.325-.753l.162-.16c.27-.216.379-.539.379-.861v-.86c0-.27.162-.485.433-.538.648-.162 2-.43 3.947-.43 1.948 0 3.3.268 3.949.43.216.053.432.268.432.537v.86c0 .323.163.646.379.861.506.355.475.55.433.968a44.742 44.742 0 0 0-.109 1.452h.019l-.268 3.99c-.162 1.785-1.565 3.029-3.237 3.029h-3.237c-1.727 0-3.075-1.244-3.237-3.028-.14-1.832-.202-3.668-.37-5.497Z"/><path fill="url(#paint42_radial_4002_1587)" d="M11.27 8.63c0-.269.109-.591.325-.753l.162-.16c.27-.216.379-.539.379-.861v-.86c0-.27.162-.485.433-.538.648-.162 2-.43 3.947-.43 1.948 0 3.3.268 3.949.43.216.053.432.268.432.537v.86c0 .323.163.646.379.861.506.355.475.55.433.968a44.742 44.742 0 0 0-.109 1.452h.019l-.268 3.99c-.162 1.785-1.565 3.029-3.237 3.029h-3.237c-1.727 0-3.075-1.244-3.237-3.028-.14-1.832-.202-3.668-.37-5.497Z"/><g filter="url(#filter9_f_4002_1587)"><path fill="url(#paint43_linear_4002_1587)" d="m20.461 5.662-3.103 1.034a1.056 1.056 0 0 0 .474 2.048l3.085-.413-.456-2.67Z"/></g><g filter="url(#filter10_i_4002_1587)"><path fill="#27151C" d="m21.33 4.167.433.215c.757.376 1.19 1.237 1.027 2.151l-.595 3.065c-.053.317-.262.53-.576.538H21.6s.054-.914.108-1.452c.044-.437-.032-.57-.432-.968-.216-.215-.379-.538-.379-.86v-.86c0-.27-.216-.485-.432-.539-.65-.16-2.002-.43-3.948-.43-1.947 0-3.3.27-3.948.43a.524.524 0 0 0-.433.538v.86c0 .323-.108.646-.379.861l-.162.161c-.216.162-.325.484-.325.753.055.592.109 1.452.109 1.452-.017 0-.034 0-.05-.002a.639.639 0 0 1-.6-.536l-.594-3.065c-.108-.86.324-1.72 1.081-2.097l.433-.215c.27-.161.54-.376.811-.592l.974-1.021c.595-.538 1.46-.7 2.217-.323a2.972 2.972 0 0 0 1.677 0c.811-.269 1.73-.054 2.38.538l.81.806c.217.27.487.43.812.592Z"/><path fill="url(#paint44_radial_4002_1587)" d="m21.33 4.167.433.215c.757.376 1.19 1.237 1.027 2.151l-.595 3.065c-.053.317-.262.53-.576.538H21.6s.054-.914.108-1.452c.044-.437-.032-.57-.432-.968-.216-.215-.379-.538-.379-.86v-.86c0-.27-.216-.485-.432-.539-.65-.16-2.002-.43-3.948-.43-1.947 0-3.3.27-3.948.43a.524.524 0 0 0-.433.538v.86c0 .323-.108.646-.379.861l-.162.161c-.216.162-.325.484-.325.753.055.592.109 1.452.109 1.452-.017 0-.034 0-.05-.002a.639.639 0 0 1-.6-.536l-.594-3.065c-.108-.86.324-1.72 1.081-2.097l.433-.215c.27-.161.54-.376.811-.592l.974-1.021c.595-.538 1.46-.7 2.217-.323a2.972 2.972 0 0 0 1.677 0c.811-.269 1.73-.054 2.38.538l.81.806c.217.27.487.43.812.592Z"/><path fill="url(#paint45_radial_4002_1587)" d="m21.33 4.167.433.215c.757.376 1.19 1.237 1.027 2.151l-.595 3.065c-.053.317-.262.53-.576.538H21.6s.054-.914.108-1.452c.044-.437-.032-.57-.432-.968-.216-.215-.379-.538-.379-.86v-.86c0-.27-.216-.485-.432-.539-.65-.16-2.002-.43-3.948-.43-1.947 0-3.3.27-3.948.43a.524.524 0 0 0-.433.538v.86c0 .323-.108.646-.379.861l-.162.161c-.216.162-.325.484-.325.753.055.592.109 1.452.109 1.452-.017 0-.034 0-.05-.002a.639.639 0 0 1-.6-.536l-.594-3.065c-.108-.86.324-1.72 1.081-2.097l.433-.215c.27-.161.54-.376.811-.592l.974-1.021c.595-.538 1.46-.7 2.217-.323a2.972 2.972 0 0 0 1.677 0c.811-.269 1.73-.054 2.38.538l.81.806c.217.27.487.43.812.592Z"/><path fill="url(#paint46_radial_4002_1587)" d="m21.33 4.167.433.215c.757.376 1.19 1.237 1.027 2.151l-.595 3.065c-.053.317-.262.53-.576.538H21.6s.054-.914.108-1.452c.044-.437-.032-.57-.432-.968-.216-.215-.379-.538-.379-.86v-.86c0-.27-.216-.485-.432-.539-.65-.16-2.002-.43-3.948-.43-1.947 0-3.3.27-3.948.43a.524.524 0 0 0-.433.538v.86c0 .323-.108.646-.379.861l-.162.161c-.216.162-.325.484-.325.753.055.592.109 1.452.109 1.452-.017 0-.034 0-.05-.002a.639.639 0 0 1-.6-.536l-.594-3.065c-.108-.86.324-1.72 1.081-2.097l.433-.215c.27-.161.54-.376.811-.592l.974-1.021c.595-.538 1.46-.7 2.217-.323a2.972 2.972 0 0 0 1.677 0c.811-.269 1.73-.054 2.38.538l.81.806c.217.27.487.43.812.592Z"/><path fill="url(#paint47_radial_4002_1587)" d="m21.33 4.167.433.215c.757.376 1.19 1.237 1.027 2.151l-.595 3.065c-.053.317-.262.53-.576.538H21.6s.054-.914.108-1.452c.044-.437-.032-.57-.432-.968-.216-.215-.379-.538-.379-.86v-.86c0-.27-.216-.485-.432-.539-.65-.16-2.002-.43-3.948-.43-1.947 0-3.3.27-3.948.43a.524.524 0 0 0-.433.538v.86c0 .323-.108.646-.379.861l-.162.161c-.216.162-.325.484-.325.753.055.592.109 1.452.109 1.452-.017 0-.034 0-.05-.002a.639.639 0 0 1-.6-.536l-.594-3.065c-.108-.86.324-1.72 1.081-2.097l.433-.215c.27-.161.54-.376.811-.592l.974-1.021c.595-.538 1.46-.7 2.217-.323a2.972 2.972 0 0 0 1.677 0c.811-.269 1.73-.054 2.38.538l.81.806c.217.27.487.43.812.592Z"/></g><g filter="url(#filter11_f_4002_1587)"><path fill="#71404A" d="m16.194 10.575-.827 1.714c-.103.352.143.705.492.705h.743c.349 0 .595-.358.492-.705l-.502-1.714c-.108-.38-.286-.38-.398 0Z"/></g><g filter="url(#filter12_f_4002_1587)"><path fill="#805550" d="m16.086 10.41-.536 1.714a.544.544 0 0 0 .525.705h.793a.545.545 0 0 0 .524-.705l-.535-1.713c-.115-.38-.65-.38-.771 0Z"/><path fill="url(#paint48_linear_4002_1587)" d="m16.086 10.41-.536 1.714a.544.544 0 0 0 .525.705h.793a.545.545 0 0 0 .524-.705l-.535-1.713c-.115-.38-.65-.38-.771 0Z"/><path fill="url(#paint49_linear_4002_1587)" d="m16.086 10.41-.536 1.714a.544.544 0 0 0 .525.705h.793a.545.545 0 0 0 .524-.705l-.535-1.713c-.115-.38-.65-.38-.771 0Z"/><path fill="url(#paint50_linear_4002_1587)" d="m16.086 10.41-.536 1.714a.544.544 0 0 0 .525.705h.793a.545.545 0 0 0 .524-.705l-.535-1.713c-.115-.38-.65-.38-.771 0Z"/><path fill="url(#paint51_radial_4002_1587)" d="m16.086 10.41-.536 1.714a.544.544 0 0 0 .525.705h.793a.545.545 0 0 0 .524-.705l-.535-1.713c-.115-.38-.65-.38-.771 0Z"/></g><path fill="url(#paint52_linear_4002_1587)" d="m16.086 10.41-.536 1.714a.544.544 0 0 0 .525.705h.793a.545.545 0 0 0 .524-.705l-.535-1.713c-.115-.38-.65-.38-.771 0Z"/><path fill="#88014F" stroke="url(#paint53_linear_4002_1587)" stroke-width=".1" d="M18.109 13.761a.19.19 0 0 0-.021-.243.204.204 0 0 0-.243-.04 2.963 2.963 0 0 1-1.374.326c-.504 0-.976-.119-1.373-.326a.204.204 0 0 0-.244.042.188.188 0 0 0-.02.241m3.275 0-.042-.027.042.027Zm0 0a1.96 1.96 0 0 1-1.638.875c-.687 0-1.29-.35-1.637-.875m0 0 .041-.027m-.041.027.041-.027m0 0c.338.511.926.852 1.596.852s1.259-.34 1.596-.853c.087-.13-.061-.28-.2-.21-.403.21-.88.33-1.396.33-.511 0-.992-.12-1.396-.33-.138-.07-.287.085-.2.21Z"/><g filter="url(#filter13_i_4002_1587)"><path fill="#352827" d="m20.222 7.956-.002-.001-.002-.002-.004-.004-.012-.01a1.46 1.46 0 0 0-.156-.108 2.605 2.605 0 0 0-.424-.212 2.856 2.856 0 0 0-1.505-.16.538.538 0 1 0 .168 1.063c.401-.063.723.011.942.098a1.533 1.533 0 0 1 .31.166.538.538 0 0 0 .685-.83Z"/><path fill="url(#paint54_radial_4002_1587)" d="m20.222 7.956-.002-.001-.002-.002-.004-.004-.012-.01a1.46 1.46 0 0 0-.156-.108 2.605 2.605 0 0 0-.424-.212 2.856 2.856 0 0 0-1.505-.16.538.538 0 1 0 .168 1.063c.401-.063.723.011.942.098a1.533 1.533 0 0 1 .31.166.538.538 0 0 0 .685-.83Z"/></g><g filter="url(#filter14_i_4002_1587)"><path fill="#352827" d="M12.666 7.956h.001l.001-.001.002-.002.004-.004.013-.01.036-.027c.03-.021.07-.05.12-.08.1-.064.243-.142.423-.213a2.856 2.856 0 0 1 1.505-.16.538.538 0 0 1-.168 1.063 1.78 1.78 0 0 0-.941.098 1.527 1.527 0 0 0-.311.166.538.538 0 0 1-.685-.83Z"/><path fill="url(#paint55_radial_4002_1587)" d="M12.666 7.956h.001l.001-.001.002-.002.004-.004.013-.01.036-.027c.03-.021.07-.05.12-.08.1-.064.243-.142.423-.213a2.856 2.856 0 0 1 1.505-.16.538.538 0 0 1-.168 1.063 1.78 1.78 0 0 0-.941.098 1.527 1.527 0 0 0-.311.166.538.538 0 0 1-.685-.83Z"/></g><path fill="#fff" d="M18.879 9.256c.658 0 1.214.454 1.365 1.067a.276.276 0 0 1-.27.344h-2.248a.232.232 0 0 1-.23-.274 1.409 1.409 0 0 1 1.383-1.137Z"/><path fill="url(#paint56_radial_4002_1587)" d="M18.67 9.53a.9.9 0 0 1 .867 1.137H17.8a.903.903 0 0 1 .871-1.137Z"/><path fill="#000" d="M18.155 10.43c0-.287.229-.516.515-.516a.513.513 0 0 1 .458.752h-.912a.466.466 0 0 1-.061-.237Z"/><g filter="url(#filter15_f_4002_1587)"><path fill="#C7A7A3" d="M18.605 9.72c.065.085-.07.19-.222.304-.153.114-.266.195-.33.109-.065-.086.007-.248.16-.363.152-.114.328-.137.392-.05Z"/><path fill="url(#paint57_radial_4002_1587)" d="M18.605 9.72c.065.085-.07.19-.222.304-.153.114-.266.195-.33.109-.065-.086.007-.248.16-.363.152-.114.328-.137.392-.05Z"/></g><g filter="url(#filter16_f_4002_1587)"><path fill="url(#paint58_linear_4002_1587)" d="M19.473 10.312a.849.849 0 0 0-.234-.467l-.263.288.119.23.378-.05Z"/></g><path fill="#fff" d="M14.059 9.256c-.659 0-1.215.454-1.366 1.067a.276.276 0 0 0 .27.344h2.249a.232.232 0 0 0 .229-.274 1.412 1.412 0 0 0-1.383-1.137Z"/><path fill="url(#paint59_radial_4002_1587)" d="M14.267 9.53a.9.9 0 0 0-.867 1.137h1.738a.92.92 0 0 0 .033-.237.906.906 0 0 0-.904-.9Z"/><path fill="#000" d="M14.782 10.43a.513.513 0 0 0-.515-.516.513.513 0 0 0-.458.752h.912a.51.51 0 0 0 .061-.237Z"/><g filter="url(#filter17_f_4002_1587)"><path fill="url(#paint60_linear_4002_1587)" d="M15.09 10.325c0-.291-.237-.486-.3-.544l-.292.282.18.365.412-.103Z"/></g><g filter="url(#filter18_f_4002_1587)" transform="rotate(-27.914 13.996 9.914)"><ellipse cx="13.996" cy="9.914" fill="#C7A7A3" fill-opacity=".9" rx=".394" ry=".199"/><ellipse cx="13.996" cy="9.914" fill="url(#paint61_radial_4002_1587)" rx=".394" ry=".199"/></g><g filter="url(#filter19_f_4002_1587)"><path stroke="url(#paint62_linear_4002_1587)" stroke-linecap="round" stroke-width=".2" d="M18.146 7.81c.433-.076 1.279-.054 1.864.401"/></g><g filter="url(#filter20_f_4002_1587)"><path stroke="url(#paint63_linear_4002_1587)" stroke-linecap="round" stroke-width=".2" d="M12.883 8.333c.33-.292 1.05-.599 1.943-.457"/></g><g filter="url(#filter21_f_4002_1587)"><path stroke="url(#paint64_linear_4002_1587)" stroke-linecap="round" stroke-width=".25" d="M11.9 5.847v.905c-.007.15-.07.485-.26.627"/></g><g filter="url(#filter22_i_4002_1587)"><path fill="url(#paint65_radial_4002_1587)" d="m10.315 5.239 1.186-1.953 9.844-.11 1.23 1.974c-4.663 1.61-10.17.823-12.26.089Z"/><path fill="url(#paint66_radial_4002_1587)" d="m10.315 5.239 1.186-1.953 9.844-.11 1.23 1.974c-4.663 1.61-10.17.823-12.26.089Z"/></g><path fill="url(#paint67_linear_4002_1587)" d="M24.423 3.636H8.453c-.44 0-.8-.36-.8-.8 0-.44.36-.8.8-.8h15.96c.44 0 .8.36.8.8.01.44-.35.8-.79.8Z"/><path fill="url(#paint68_radial_4002_1587)" d="M24.423 3.636H8.453c-.44 0-.8-.36-.8-.8 0-.44.36-.8.8-.8h15.96c.44 0 .8.36.8.8.01.44-.35.8-.79.8Z"/><path fill="url(#paint69_radial_4002_1587)" d="M24.423 3.636H8.453c-.44 0-.8-.36-.8-.8 0-.44.36-.8.8-.8h15.96c.44 0 .8.36.8.8.01.44-.35.8-.79.8Z"/><defs><radialGradient id="paint0_radial_4002_1587" cx="0" cy="0" r="1" gradientTransform="matrix(0 10.875 -3.65625 0 23.782 23.145)" gradientUnits="userSpaceOnUse"><stop stop-color="#70647F"/><stop offset="1" stop-color="#70647F" stop-opacity="0"/></radialGradient><radialGradient id="paint1_radial_4002_1587" cx="0" cy="0" r="1" gradientTransform="matrix(1.3125 0 0 7.0625 9.188 21.488)" gradientUnits="userSpaceOnUse"><stop stop-color="#5D516A"/><stop offset="1" stop-color="#5D516A" stop-opacity="0"/></radialGradient><radialGradient id="paint2_radial_4002_1587" cx="0" cy="0" r="1" gradientTransform="matrix(0 -4.71875 13.6527 0 16.488 21.38)" gradientUnits="userSpaceOnUse"><stop stop-color="#47404D"/><stop offset="1" stop-color="#3B2D3A"/></radialGradient><radialGradient id="paint3_radial_4002_1587" cx="0" cy="0" r="1" gradientTransform="matrix(0 5.9375 -7.54205 0 16.48 16.926)" gradientUnits="userSpaceOnUse"><stop offset=".932" stop-color="#342542" stop-opacity="0"/><stop offset=".995" stop-color="#342542"/></radialGradient><radialGradient id="paint4_radial_4002_1587" cx="0" cy="0" r="1" gradientTransform="matrix(-5.88284 4.0234 -5.54695 -8.11053 16.063 15.582)" gradientUnits="userSpaceOnUse"><stop offset=".928" stop-color="#6A656F" stop-opacity="0"/><stop offset="1" stop-color="#6A656F"/></radialGradient><radialGradient id="paint5_radial_4002_1587" cx="0" cy="0" r="1" gradientTransform="matrix(6.76566 4.60934 -6.35476 9.32761 15.813 15.348)" gradientUnits="userSpaceOnUse"><stop offset=".933" stop-color="#6A656F" stop-opacity="0"/><stop offset="1" stop-color="#615B67"/></radialGradient><radialGradient id="paint6_radial_4002_1587" cx="0" cy="0" r="1" gradientTransform="matrix(0 -10.0625 10.6454 0 16.48 23.645)" gradientUnits="userSpaceOnUse"><stop offset=".506" stop-color="#57525D" stop-opacity="0"/><stop offset="1" stop-color="#57525D"/></radialGradient><radialGradient id="paint7_radial_4002_1587" cx="0" cy="0" r="1" gradientTransform="rotate(85.281 -.137 16.025) scale(4.21461 7.75523)" gradientUnits="userSpaceOnUse"><stop offset=".316" stop-color="#1C1026"/><stop offset="1" stop-color="#1C1026" stop-opacity="0"/></radialGradient><radialGradient id="paint8_radial_4002_1587" cx="0" cy="0" r="1" gradientTransform="matrix(-2.96875 -1.42188 1.19716 -2.49957 17.784 18.25)" gradientUnits="userSpaceOnUse"><stop stop-color="#714A4B"/><stop offset="1" stop-color="#5A3126"/></radialGradient><radialGradient id="paint9_radial_4002_1587" cx="0" cy="0" r="1" gradientTransform="matrix(0 .9375 -2.06 0 16.466 17.016)" gradientUnits="userSpaceOnUse"><stop stop-color="#643548"/><stop offset="1" stop-color="#643548" stop-opacity="0"/></radialGradient><radialGradient id="paint10_radial_4002_1587" cx="0" cy="0" r="1" gradientTransform="matrix(0 4.5407 -4.26182 0 16.466 14.574)" gradientUnits="userSpaceOnUse"><stop offset=".81" stop-color="#582F25" stop-opacity="0"/><stop offset="1" stop-color="#582F25"/></radialGradient><radialGradient id="paint12_radial_4002_1587" cx="0" cy="0" r="1" gradientTransform="matrix(0 -2.33473 .18031 0 25.055 11.698)" gradientUnits="userSpaceOnUse"><stop stop-color="#70635D"/><stop offset="1" stop-color="#70635D" stop-opacity="0"/></radialGradient><radialGradient id="paint13_radial_4002_1587" cx="0" cy="0" r="1" gradientTransform="matrix(-.81259 1.10067 -.98646 -.72826 25.313 12.07)" gradientUnits="userSpaceOnUse"><stop stop-color="#686071"/><stop offset=".661" stop-color="#402A4C"/></radialGradient><radialGradient id="paint14_radial_4002_1587" cx="0" cy="0" r="1" gradientTransform="matrix(.79636 -.08984 .10538 .93405 23.976 12.461)" gradientUnits="userSpaceOnUse"><stop offset=".087" stop-color="#685352"/><stop offset="1" stop-color="#685352" stop-opacity="0"/></radialGradient><radialGradient id="paint17_radial_4002_1587" cx="0" cy="0" r="1" gradientTransform="rotate(169.33 12.35 8.575) scale(1.11532 5.56401)" gradientUnits="userSpaceOnUse"><stop offset=".286" stop-color="#FFD93A"/><stop offset="1" stop-color="#FFD93A" stop-opacity="0"/></radialGradient><radialGradient id="paint18_radial_4002_1587" cx="0" cy="0" r="1" gradientTransform="matrix(0 .39844 -1.38177 0 24.813 13.137)" gradientUnits="userSpaceOnUse"><stop offset=".161" stop-color="#845D03"/><stop offset="1" stop-color="#EBA429" stop-opacity="0"/></radialGradient><radialGradient id="paint20_radial_4002_1587" cx="0" cy="0" r="1" gradientTransform="matrix(0 -1.3125 2.89043 0 24.813 16.926)" gradientUnits="userSpaceOnUse"><stop offset=".422" stop-color="#A16739"/><stop offset="1" stop-color="#DB9820" stop-opacity="0"/></radialGradient><radialGradient id="paint21_radial_4002_1587" cx="0" cy="0" r="1" gradientTransform="matrix(0 -16.3734 4.36464 0 5.485 30.026)" gradientUnits="userSpaceOnUse"><stop stop-color="#766C83"/><stop offset=".441" stop-color="#58496A"/><stop offset="1" stop-color="#4D4159"/></radialGradient><radialGradient id="paint22_radial_4002_1587" cx="0" cy="0" r="1" gradientTransform="matrix(0 -10.5202 .82413 0 9.25 30.026)" gradientUnits="userSpaceOnUse"><stop offset=".286" stop-color="#4F445B"/><stop offset="1" stop-color="#4F445B" stop-opacity="0"/></radialGradient><radialGradient id="paint24_radial_4002_1587" cx="0" cy="0" r="1" gradientTransform="matrix(-1.88274 -10.19308 2.86286 -.5288 25.592 30.026)" gradientUnits="userSpaceOnUse"><stop stop-color="#736782"/><stop offset="1" stop-color="#5F5070"/></radialGradient><radialGradient id="paint25_radial_4002_1587" cx="0" cy="0" r="1" gradientTransform="matrix(.5437 12.03342 -.70276 .03175 23.542 23.187)" gradientUnits="userSpaceOnUse"><stop offset=".177" stop-color="#3F2A51"/><stop offset="1" stop-color="#3F2A51" stop-opacity="0"/></radialGradient><radialGradient id="paint30_radial_4002_1587" cx="0" cy="0" r="1" gradientTransform="matrix(1.76937 0 0 3.09641 10 10.698)" gradientUnits="userSpaceOnUse"><stop offset=".351" stop-color="#664249"/><stop offset="1" stop-color="#613641"/></radialGradient><radialGradient id="paint33_radial_4002_1587" cx="0" cy="0" r="1" gradientTransform="matrix(.83354 -.60694 .69274 .95137 21.65 10.432)" gradientUnits="userSpaceOnUse"><stop offset=".543" stop-color="#7C524C"/><stop offset="1" stop-color="#7C524C" stop-opacity="0"/></radialGradient><radialGradient id="paint34_radial_4002_1587" cx="0" cy="0" r="1" gradientTransform="matrix(.82805 -1.52301 .89143 .48466 21.234 11.527)" gradientUnits="userSpaceOnUse"><stop offset=".755" stop-color="#73443E" stop-opacity="0"/><stop offset=".916" stop-color="#73443E"/></radialGradient><radialGradient id="paint35_radial_4002_1587" cx="0" cy="0" r="1" gradientTransform="matrix(.26143 .25878 -.3336 .33702 21.276 10.699)" gradientUnits="userSpaceOnUse"><stop stop-color="#6C443E"/><stop offset="1" stop-color="#6C443E" stop-opacity="0"/></radialGradient><radialGradient id="paint37_radial_4002_1587" cx="0" cy="0" r="1" gradientTransform="matrix(0 -1.31788 1.62201 0 18.837 9.416)" gradientUnits="userSpaceOnUse"><stop stop-color="#855354"/><stop offset="1" stop-color="#855354" stop-opacity="0"/></radialGradient><radialGradient id="paint38_radial_4002_1587" cx="0" cy="0" r="1" gradientTransform="matrix(0 -1.38547 1.72295 0 14.24 9.551)" gradientUnits="userSpaceOnUse"><stop stop-color="#6F414D"/><stop offset="1" stop-color="#6F414D" stop-opacity="0"/></radialGradient><radialGradient id="paint41_radial_4002_1587" cx="0" cy="0" r="1" gradientTransform="matrix(0 8.24522 -11.1924 0 16.167 8.91)" gradientUnits="userSpaceOnUse"><stop offset=".617" stop-color="#7D4C5B" stop-opacity="0"/><stop offset="1" stop-color="#623241"/></radialGradient><radialGradient id="paint42_radial_4002_1587" cx="0" cy="0" r="1" gradientTransform="rotate(86.463 5.645 11.068) scale(2.53608 7.20239)" gradientUnits="userSpaceOnUse"><stop offset=".598" stop-color="#613533"/><stop offset="1" stop-color="#613533" stop-opacity="0"/></radialGradient><radialGradient id="paint44_radial_4002_1587" cx="0" cy="0" r="1" gradientTransform="matrix(.80441 -2.98106 1.10547 .2983 20.852 6.558)" gradientUnits="userSpaceOnUse"><stop stop-color="#3D3437"/><stop offset="1" stop-color="#3D3437" stop-opacity="0"/></radialGradient><radialGradient id="paint45_radial_4002_1587" cx="0" cy="0" r="1" gradientTransform="matrix(3.85645 .35489 -.19082 2.07359 19.196 4.784)" gradientUnits="userSpaceOnUse"><stop offset=".122" stop-color="#46383D"/><stop offset="1" stop-color="#46383D" stop-opacity="0"/></radialGradient><radialGradient id="paint46_radial_4002_1587" cx="0" cy="0" r="1" gradientTransform="matrix(0 1.69305 -2.62206 0 16.471 2.026)" gradientUnits="userSpaceOnUse"><stop stop-color="#3E3034"/><stop offset="1" stop-color="#3E3034" stop-opacity="0"/></radialGradient><radialGradient id="paint47_radial_4002_1587" cx="0" cy="0" r="1" gradientTransform="matrix(3.09935 -2.27128 3.55836 4.85567 9.969 8.9)" gradientUnits="userSpaceOnUse"><stop stop-color="#453938"/><stop offset="1" stop-color="#453938" stop-opacity="0"/></radialGradient><radialGradient id="paint51_radial_4002_1587" cx="0" cy="0" r="1" gradientTransform="matrix(0 .19853 -.63782 0 16.801 12.318)" gradientUnits="userSpaceOnUse"><stop stop-color="#976F6A"/><stop offset="1" stop-color="#976F6A" stop-opacity="0"/></radialGradient><radialGradient id="paint54_radial_4002_1587" cx="0" cy="0" r="1" gradientTransform="matrix(.10506 -.60825 1.79947 .3108 18.934 8.597)" gradientUnits="userSpaceOnUse"><stop stop-color="#301A2D"/><stop offset="1" stop-color="#301A2D" stop-opacity="0"/></radialGradient><radialGradient id="paint55_radial_4002_1587" cx="0" cy="0" r="1" gradientTransform="rotate(-80.2 11.976 -3.862) scale(.61726 1.82621)" gradientUnits="userSpaceOnUse"><stop stop-color="#301A2D"/><stop offset="1" stop-color="#301A2D" stop-opacity="0"/></radialGradient><radialGradient id="paint56_radial_4002_1587" cx="0" cy="0" r="1" gradientTransform="matrix(0 .81784 -1.30086 0 18.668 10.01)" gradientUnits="userSpaceOnUse"><stop offset=".802" stop-color="#7D574A"/><stop offset="1" stop-color="#694B43"/><stop offset="1" stop-color="#804D49"/><stop offset="1" stop-color="#664944"/></radialGradient><radialGradient id="paint57_radial_4002_1587" cx="0" cy="0" r="1" gradientTransform="matrix(-.23432 -.30195 .41571 -.3226 18.44 10.096)" gradientUnits="userSpaceOnUse"><stop offset=".766" stop-color="#FFE6E2" stop-opacity="0"/><stop offset=".966" stop-color="#FFE6E2"/></radialGradient><radialGradient id="paint59_radial_4002_1587" cx="0" cy="0" r="1" gradientTransform="matrix(0 .81788 -1.30093 0 14.269 10.01)" gradientUnits="userSpaceOnUse"><stop offset=".802" stop-color="#7D574A"/><stop offset="1" stop-color="#694B43"/><stop offset="1" stop-color="#804D49"/><stop offset="1" stop-color="#664944"/></radialGradient><radialGradient id="paint61_radial_4002_1587" cx="0" cy="0" r="1" gradientTransform="matrix(-.00782 -.4992 .60005 -.0094 13.981 10.232)" gradientUnits="userSpaceOnUse"><stop offset=".766" stop-color="#FFE6E2" stop-opacity="0"/><stop offset=".966" stop-color="#FFE6E2"/></radialGradient><radialGradient id="paint65_radial_4002_1587" cx="0" cy="0" r="1" gradientTransform="matrix(-.6666 -3.56716 3.98507 -.7447 19.009 5.91)" gradientUnits="userSpaceOnUse"><stop offset=".11" stop-color="#595260"/><stop offset="1" stop-color="#372E41"/></radialGradient><radialGradient id="paint66_radial_4002_1587" cx="0" cy="0" r="1" gradientTransform="matrix(0 1.97411 -7.12707 0 16.415 2.9)" gradientUnits="userSpaceOnUse"><stop offset=".263" stop-color="#160C20"/><stop offset="1" stop-color="#160C20" stop-opacity="0"/></radialGradient><radialGradient id="paint68_radial_4002_1587" cx="0" cy="0" r="1" gradientTransform="matrix(0 .9375 -12.6875 0 22.22 2.426)" gradientUnits="userSpaceOnUse"><stop stop-color="#696070"/><stop offset=".867" stop-color="#696070" stop-opacity="0"/></radialGradient><radialGradient id="paint69_radial_4002_1587" cx="0" cy="0" r="1" gradientTransform="matrix(7.75 0 0 .875 7.25 3.051)" gradientUnits="userSpaceOnUse"><stop stop-color="#75707B"/><stop offset=".935" stop-color="#75707B" stop-opacity="0"/></radialGradient><linearGradient id="paint11_linear_4002_1587" x1="24.17" x2="25.356" y1="8.972" y2="8.972" gradientUnits="userSpaceOnUse"><stop stop-color="#33203C"/><stop offset="1" stop-color="#61546D"/></linearGradient><linearGradient id="paint15_linear_4002_1587" x1="25.416" x2="25.416" y1="3.739" y2="11.507" gradientUnits="userSpaceOnUse"><stop stop-color="#60546C"/><stop offset="1" stop-color="#504B55"/></linearGradient><linearGradient id="paint16_linear_4002_1587" x1="25.965" x2="23.645" y1="14.837" y2="14.837" gradientUnits="userSpaceOnUse"><stop stop-color="#F9B72A"/><stop offset=".897" stop-color="#FAAC28"/></linearGradient><linearGradient id="paint19_linear_4002_1587" x1="23.764" x2="24.639" y1="14.516" y2="14.696" gradientUnits="userSpaceOnUse"><stop stop-color="#C57E10"/><stop offset="1" stop-color="#DF8F14" stop-opacity="0"/></linearGradient><linearGradient id="paint23_linear_4002_1587" x1="9.395" x2="8.969" y1="28.094" y2="28.094" gradientUnits="userSpaceOnUse"><stop offset=".444" stop-color="#433850"/><stop offset="1" stop-color="#433850" stop-opacity="0"/></linearGradient><linearGradient id="paint26_linear_4002_1587" x1="16.48" x2="16.48" y1="29.895" y2="23.461" gradientUnits="userSpaceOnUse"><stop stop-color="#3F3748"/><stop offset="1" stop-color="#3F3748" stop-opacity="0"/></linearGradient><linearGradient id="paint27_linear_4002_1587" x1="16.48" x2="16.48" y1="29.895" y2="23.461" gradientUnits="userSpaceOnUse"><stop stop-color="#3F3748"/><stop offset="1" stop-color="#3F3748" stop-opacity="0"/></linearGradient><linearGradient id="paint28_linear_4002_1587" x1="16.48" x2="16.48" y1="29.895" y2="23.461" gradientUnits="userSpaceOnUse"><stop stop-color="#3F3748"/><stop offset="1" stop-color="#3F3748" stop-opacity="0"/></linearGradient><linearGradient id="paint29_linear_4002_1587" x1="13.432" x2="14.004" y1="4.477" y2="5.814" gradientUnits="userSpaceOnUse"><stop stop-color="#FAA719"/><stop offset="1" stop-color="#DB6008"/></linearGradient><linearGradient id="paint31_linear_4002_1587" x1="11.684" x2="11.038" y1="10.979" y2="10.979" gradientUnits="userSpaceOnUse"><stop stop-color="#553038"/><stop offset="1" stop-color="#59323C"/></linearGradient><linearGradient id="paint32_linear_4002_1587" x1="22.371" x2="21.546" y1="9.598" y2="12.155" gradientUnits="userSpaceOnUse"><stop stop-color="#96776B"/><stop offset="1" stop-color="#855A5B"/></linearGradient><linearGradient id="paint36_linear_4002_1587" x1="20.541" x2="12.841" y1="11.091" y2="12.238" gradientUnits="userSpaceOnUse"><stop stop-color="#9B6C5E"/><stop offset="1" stop-color="#744D4A"/></linearGradient><linearGradient id="paint39_linear_4002_1587" x1="11.031" x2="12.928" y1="13.809" y2="13.742" gradientUnits="userSpaceOnUse"><stop stop-color="#84615A"/><stop offset="1" stop-color="#84615A" stop-opacity="0"/></linearGradient><linearGradient id="paint40_linear_4002_1587" x1="21.376" x2="20.311" y1="12.964" y2="12.863" gradientUnits="userSpaceOnUse"><stop stop-color="#966D5F"/><stop offset="1" stop-color="#966D5F" stop-opacity="0"/></linearGradient><linearGradient id="paint43_linear_4002_1587" x1="15.929" x2="24.14" y1="8.716" y2="5.776" gradientUnits="userSpaceOnUse"><stop stop-color="#A27B71"/><stop offset="1" stop-color="#A27B71" stop-opacity="0"/></linearGradient><linearGradient id="paint48_linear_4002_1587" x1="15.6" x2="16.546" y1="11.756" y2="11.756" gradientUnits="userSpaceOnUse"><stop stop-color="#754E46"/><stop offset="1" stop-color="#754E46" stop-opacity="0"/></linearGradient><linearGradient id="paint49_linear_4002_1587" x1="17.417" x2="16.383" y1="12.081" y2="12.066" gradientUnits="userSpaceOnUse"><stop stop-color="#9D766B"/><stop offset="1" stop-color="#9D766B" stop-opacity="0"/></linearGradient><linearGradient id="paint50_linear_4002_1587" x1="16.667" x2="16.667" y1="12.829" y2="12.252" gradientUnits="userSpaceOnUse"><stop stop-color="#7C4559"/><stop offset="1" stop-color="#7C4559" stop-opacity="0"/></linearGradient><linearGradient id="paint52_linear_4002_1587" x1="16.598" x2="16.598" y1="12.872" y2="12.703" gradientUnits="userSpaceOnUse"><stop stop-color="#743B4A"/><stop offset="1" stop-color="#743B4A" stop-opacity="0"/></linearGradient><linearGradient id="paint53_linear_4002_1587" x1="15.426" x2="15.864" y1="14.457" y2="13.764" gradientUnits="userSpaceOnUse"><stop stop-color="#865E63"/><stop offset=".663" stop-color="#865E63" stop-opacity="0"/></linearGradient><linearGradient id="paint58_linear_4002_1587" x1="19.453" x2="19.136" y1="10.066" y2="10.261" gradientUnits="userSpaceOnUse"><stop stop-color="#B4948D"/><stop offset="1" stop-color="#B4948D" stop-opacity="0"/></linearGradient><linearGradient id="paint60_linear_4002_1587" x1="15.02" x2="14.703" y1="10.066" y2="10.261" gradientUnits="userSpaceOnUse"><stop stop-color="#B4948D"/><stop offset="1" stop-color="#B4948D" stop-opacity="0"/></linearGradient><linearGradient id="paint62_linear_4002_1587" x1="19.468" x2="19.044" y1="7.907" y2="7.042" gradientUnits="userSpaceOnUse"><stop stop-color="#483E3E"/><stop offset="1" stop-color="#483E3E" stop-opacity="0"/></linearGradient><linearGradient id="paint63_linear_4002_1587" x1="14.12" x2="12.921" y1="7.779" y2="7.276" gradientUnits="userSpaceOnUse"><stop stop-color="#483E3E"/><stop offset="1" stop-color="#483E3E" stop-opacity="0"/></linearGradient><linearGradient id="paint64_linear_4002_1587" x1="11.771" x2="11.771" y1="5.748" y2="7.922" gradientUnits="userSpaceOnUse"><stop offset=".228" stop-color="#32272D"/><stop offset="1" stop-color="#32272D" stop-opacity="0"/></linearGradient><linearGradient id="paint67_linear_4002_1587" x1="18.25" x2="16.969" y1="3.989" y2="-.386" gradientUnits="userSpaceOnUse"><stop stop-color="#3D294B"/><stop offset="1" stop-color="#433A4D"/></linearGradient><filter id="filter0_f_4002_1587" width="5.32" height="9.565" x="13.806" y="10.015" color-interpolation-filters="sRGB" filterUnits="userSpaceOnUse"><feFlood flood-opacity="0" result="BackgroundImageFix"/><feBlend in="SourceGraphic" in2="BackgroundImageFix" result="shape"/><feGaussianBlur result="effect1_foregroundBlur_4002_1587" stdDeviation=".2"/></filter><filter id="filter1_f_4002_1587" width=".65" height="8.268" x="24.591" y="3.489" color-interpolation-filters="sRGB" filterUnits="userSpaceOnUse"><feFlood flood-opacity="0" result="BackgroundImageFix"/><feBlend in="SourceGraphic" in2="BackgroundImageFix" result="shape"/><feGaussianBlur result="effect1_foregroundBlur_4002_1587" stdDeviation=".125"/></filter><filter id="filter2_f_4002_1587" width="8.964" height="6.734" x="11.998" y="23.311" color-interpolation-filters="sRGB" filterUnits="userSpaceOnUse"><feFlood flood-opacity="0" result="BackgroundImageFix"/><feBlend in="SourceGraphic" in2="BackgroundImageFix" result="shape"/><feGaussianBlur result="effect1_foregroundBlur_4002_1587" stdDeviation=".075"/></filter><filter id="filter3_f_4002_1587" width="1.172" height="2.394" x="13.132" y="3.816" color-interpolation-filters="sRGB" filterUnits="userSpaceOnUse"><feFlood flood-opacity="0" result="BackgroundImageFix"/><feBlend in="SourceGraphic" in2="BackgroundImageFix" result="shape"/><feGaussianBlur result="effect1_foregroundBlur_4002_1587" stdDeviation=".125"/></filter><filter id="filter4_i_4002_1587" width="3.567" height="3.367" x="10.001" y="9.015" color-interpolation-filters="sRGB" filterUnits="userSpaceOnUse"><feFlood flood-opacity="0" result="BackgroundImageFix"/><feBlend in="SourceGraphic" in2="BackgroundImageFix" result="shape"/><feColorMatrix in="SourceAlpha" result="hardAlpha" values="0 0 0 0 0 0 0 0 0 0 0 0 0 0 0 0 0 0 127 0"/><feOffset dx=".2"/><feGaussianBlur stdDeviation=".15"/><feComposite in2="hardAlpha" k2="-1" k3="1" operator="arithmetic"/><feColorMatrix values="0 0 0 0 0.517647 0 0 0 0 0.384314 0 0 0 0 0.34902 0 0 0 1 0"/><feBlend in2="shape" result="effect1_innerShadow_4002_1587"/></filter><filter id="filter5_f_4002_1587" width="3.006" height="3.006" x="10.181" y="9.195" color-interpolation-filters="sRGB" filterUnits="userSpaceOnUse"><feFlood flood-opacity="0" result="BackgroundImageFix"/><feBlend in="SourceGraphic" in2="BackgroundImageFix" result="shape"/><feGaussianBlur result="effect1_foregroundBlur_4002_1587" stdDeviation=".25"/></filter><filter id="filter6_i_4002_1587" width="3.617" height="3.617" x="19.593" y="8.765" color-interpolation-filters="sRGB" filterUnits="userSpaceOnUse"><feFlood flood-opacity="0" result="BackgroundImageFix"/><feBlend in="SourceGraphic" in2="BackgroundImageFix" result="shape"/><feColorMatrix in="SourceAlpha" result="hardAlpha" values="0 0 0 0 0 0 0 0 0 0 0 0 0 0 0 0 0 0 127 0"/><feOffset dx=".25" dy="-.25"/><feGaussianBlur stdDeviation=".25"/><feComposite in2="hardAlpha" k2="-1" k3="1" operator="arithmetic"/><feColorMatrix values="0 0 0 0 0.482353 0 0 0 0 0.278431 0 0 0 0 0.372549 0 0 0 1 0"/><feBlend in2="shape" result="effect1_innerShadow_4002_1587"/></filter><filter id="filter7_f_4002_1587" width="3.006" height="3.006" x="19.773" y="9.195" color-interpolation-filters="sRGB" filterUnits="userSpaceOnUse"><feFlood flood-opacity="0" result="BackgroundImageFix"/><feBlend in="SourceGraphic" in2="BackgroundImageFix" result="shape"/><feGaussianBlur result="effect1_foregroundBlur_4002_1587" stdDeviation=".25"/></filter><filter id="filter8_i_4002_1587" width="10.459" height="12.227" x="11.271" y="5.027" color-interpolation-filters="sRGB" filterUnits="userSpaceOnUse"><feFlood flood-opacity="0" result="BackgroundImageFix"/><feBlend in="SourceGraphic" in2="BackgroundImageFix" result="shape"/><feColorMatrix in="SourceAlpha" result="hardAlpha" values="0 0 0 0 0 0 0 0 0 0 0 0 0 0 0 0 0 0 127 0"/><feOffset dy=".1"/><feGaussianBlur stdDeviation=".1"/><feComposite in2="hardAlpha" k2="-1" k3="1" operator="arithmetic"/><feColorMatrix values="0 0 0 0 0.254902 0 0 0 0 0.137255 0 0 0 0 0.113725 0 0 0 1 0"/><feBlend in2="shape" result="effect1_innerShadow_4002_1587"/></filter><filter id="filter9_f_4002_1587" width="8.281" height="7.092" x="14.636" y="3.662" color-interpolation-filters="sRGB" filterUnits="userSpaceOnUse"><feFlood flood-opacity="0" result="BackgroundImageFix"/><feBlend in="SourceGraphic" in2="BackgroundImageFix" result="shape"/><feGaussianBlur result="effect1_foregroundBlur_4002_1587" stdDeviation="1"/></filter><filter id="filter10_i_4002_1587" width="12.706" height="8.61" x="10.118" y="1.526" color-interpolation-filters="sRGB" filterUnits="userSpaceOnUse"><feFlood flood-opacity="0" result="BackgroundImageFix"/><feBlend in="SourceGraphic" in2="BackgroundImageFix" result="shape"/><feColorMatrix in="SourceAlpha" result="hardAlpha" values="0 0 0 0 0 0 0 0 0 0 0 0 0 0 0 0 0 0 127 0"/><feOffset dy="-.5"/><feGaussianBlur stdDeviation=".375"/><feComposite in2="hardAlpha" k2="-1" k3="1" operator="arithmetic"/><feColorMatrix values="0 0 0 0 0.0392157 0 0 0 0 0.00784314 0 0 0 0 0.0196078 0 0 0 1 0"/><feBlend in2="shape" result="effect1_innerShadow_4002_1587"/></filter><filter id="filter11_f_4002_1587" width="3.274" height="4.203" x="14.593" y="9.541" color-interpolation-filters="sRGB" filterUnits="userSpaceOnUse"><feFlood flood-opacity="0" result="BackgroundImageFix"/><feBlend in="SourceGraphic" in2="BackgroundImageFix" result="shape"/><feGaussianBlur result="effect1_foregroundBlur_4002_1587" stdDeviation=".375"/></filter><filter id="filter12_f_4002_1587" width="2.392" height="3.203" x="15.275" y="9.876" color-interpolation-filters="sRGB" filterUnits="userSpaceOnUse"><feFlood flood-opacity="0" result="BackgroundImageFix"/><feBlend in="SourceGraphic" in2="BackgroundImageFix" result="shape"/><feGaussianBlur result="effect1_foregroundBlur_4002_1587" stdDeviation=".125"/></filter><filter id="filter13_i_4002_1587" width="3.002" height="1.885" x="17.663" y="7.022" color-interpolation-filters="sRGB" filterUnits="userSpaceOnUse"><feFlood flood-opacity="0" result="BackgroundImageFix"/><feBlend in="SourceGraphic" in2="BackgroundImageFix" result="shape"/><feColorMatrix in="SourceAlpha" result="hardAlpha" values="0 0 0 0 0 0 0 0 0 0 0 0 0 0 0 0 0 0 127 0"/><feOffset dx=".25" dy="-.4"/><feGaussianBlur stdDeviation=".3"/><feComposite in2="hardAlpha" k2="-1" k3="1" operator="arithmetic"/><feColorMatrix values="0 0 0 0 0.156863 0 0 0 0 0.0784314 0 0 0 0 0.109804 0 0 0 1 0"/><feBlend in2="shape" result="effect1_innerShadow_4002_1587"/></filter><filter id="filter14_i_4002_1587" width="3.002" height="1.885" x="12.473" y="7.022" color-interpolation-filters="sRGB" filterUnits="userSpaceOnUse"><feFlood flood-opacity="0" result="BackgroundImageFix"/><feBlend in="SourceGraphic" in2="BackgroundImageFix" result="shape"/><feColorMatrix in="SourceAlpha" result="hardAlpha" values="0 0 0 0 0 0 0 0 0 0 0 0 0 0 0 0 0 0 127 0"/><feOffset dx=".25" dy="-.4"/><feGaussianBlur stdDeviation=".3"/><feComposite in2="hardAlpha" k2="-1" k3="1" operator="arithmetic"/><feColorMatrix values="0 0 0 0 0.156863 0 0 0 0 0.0784314 0 0 0 0 0.109804 0 0 0 1 0"/><feBlend in2="shape" result="effect1_innerShadow_4002_1587"/></filter><filter id="filter15_f_4002_1587" width=".793" height=".701" x="17.929" y="9.567" color-interpolation-filters="sRGB" filterUnits="userSpaceOnUse"><feFlood flood-opacity="0" result="BackgroundImageFix"/><feBlend in="SourceGraphic" in2="BackgroundImageFix" result="shape"/><feGaussianBlur result="effect1_foregroundBlur_4002_1587" stdDeviation=".05"/></filter><filter id="filter16_f_4002_1587" width=".896" height=".919" x="18.776" y="9.645" color-interpolation-filters="sRGB" filterUnits="userSpaceOnUse"><feFlood flood-opacity="0" result="BackgroundImageFix"/><feBlend in="SourceGraphic" in2="BackgroundImageFix" result="shape"/><feGaussianBlur result="effect1_foregroundBlur_4002_1587" stdDeviation=".1"/></filter><filter id="filter17_f_4002_1587" width=".992" height="1.047" x="14.298" y="9.581" color-interpolation-filters="sRGB" filterUnits="userSpaceOnUse"><feFlood flood-opacity="0" result="BackgroundImageFix"/><feBlend in="SourceGraphic" in2="BackgroundImageFix" result="shape"/><feGaussianBlur result="effect1_foregroundBlur_4002_1587" stdDeviation=".1"/></filter><filter id="filter18_f_4002_1587" width=".92" height=".71" x="13.536" y="9.559" color-interpolation-filters="sRGB" filterUnits="userSpaceOnUse"><feFlood flood-opacity="0" result="BackgroundImageFix"/><feBlend in="SourceGraphic" in2="BackgroundImageFix" result="shape"/><feGaussianBlur result="effect1_foregroundBlur_4002_1587" stdDeviation=".05"/></filter><filter id="filter19_f_4002_1587" width="3.065" height="1.635" x="17.546" y="7.176" color-interpolation-filters="sRGB" filterUnits="userSpaceOnUse"><feFlood flood-opacity="0" result="BackgroundImageFix"/><feBlend in="SourceGraphic" in2="BackgroundImageFix" result="shape"/><feGaussianBlur result="effect1_foregroundBlur_4002_1587" stdDeviation=".25"/></filter><filter id="filter20_f_4002_1587" width="3.143" height="1.692" x="12.283" y="7.241" color-interpolation-filters="sRGB" filterUnits="userSpaceOnUse"><feFlood flood-opacity="0" result="BackgroundImageFix"/><feBlend in="SourceGraphic" in2="BackgroundImageFix" result="shape"/><feGaussianBlur result="effect1_foregroundBlur_4002_1587" stdDeviation=".25"/></filter><filter id="filter21_f_4002_1587" width="1.01" height="2.282" x="11.266" y="5.472" color-interpolation-filters="sRGB" filterUnits="userSpaceOnUse"><feFlood flood-opacity="0" result="BackgroundImageFix"/><feBlend in="SourceGraphic" in2="BackgroundImageFix" result="shape"/><feGaussianBlur result="effect1_foregroundBlur_4002_1587" stdDeviation=".125"/></filter><filter id="filter22_i_4002_1587" width="12.261" height="2.966" x="10.315" y="3.126" color-interpolation-filters="sRGB" filterUnits="userSpaceOnUse"><feFlood flood-opacity="0" result="BackgroundImageFix"/><feBlend in="SourceGraphic" in2="BackgroundImageFix" result="shape"/><feColorMatrix in="SourceAlpha" result="hardAlpha" values="0 0 0 0 0 0 0 0 0 0 0 0 0 0 0 0 0 0 127 0"/><feOffset dy="-.05"/><feGaussianBlur stdDeviation=".025"/><feComposite in2="hardAlpha" k2="-1" k3="1" operator="arithmetic"/><feColorMatrix values="0 0 0 0 0.360784 0 0 0 0 0.337255 0 0 0 0 0.372549 0 0 0 1 0"/><feBlend in2="shape" result="effect1_innerShadow_4002_1587"/></filter></defs></svg>