<svg xmlns="http://www.w3.org/2000/svg" width="32" height="32" fill="none" viewBox="0 0 32 32"><circle cx="22.656" cy="15.989" r="3.219" fill="url(#paint0_radial_18_17802)"/><circle cx="22.656" cy="15.989" r="3.219" fill="url(#paint1_radial_18_17802)"/><circle cx="22.656" cy="15.989" r="3.219" fill="url(#paint2_radial_18_17802)"/><path fill="url(#paint3_linear_18_17802)" d="M6.125 10.643a1.6 1.6 0 0 1 1.6-1.6h4.338v13.891H7.724a1.6 1.6 0 0 1-1.6-1.6v-10.69Z"/><path fill="url(#paint4_linear_18_17802)" d="M6.125 10.643a1.6 1.6 0 0 1 1.6-1.6h4.338v13.891H7.724a1.6 1.6 0 0 1-1.6-1.6v-10.69Z"/><path fill="url(#paint5_linear_18_17802)" d="M6.125 10.643a1.6 1.6 0 0 1 1.6-1.6h4.338v13.891H7.724a1.6 1.6 0 0 1-1.6-1.6v-10.69Z"/><path fill="url(#paint6_linear_18_17802)" d="M6.125 10.643a1.6 1.6 0 0 1 1.6-1.6h4.338v13.891H7.724a1.6 1.6 0 0 1-1.6-1.6v-10.69Z"/><path fill="url(#paint7_linear_18_17802)" d="M6.125 10.643a1.6 1.6 0 0 1 1.6-1.6h4.338v13.891H7.724a1.6 1.6 0 0 1-1.6-1.6v-10.69Z"/><path fill="url(#paint8_linear_18_17802)" d="M22.922 6.865c0-1.62-1.724-2.658-3.156-1.9l-7.703 4.079v13.89l7.699 4.099c1.432.762 3.16-.275 3.16-1.898V6.865Z"/><path fill="url(#paint9_linear_18_17802)" d="M22.922 6.865c0-1.62-1.724-2.658-3.156-1.9l-7.703 4.079v13.89l7.699 4.099c1.432.762 3.16-.275 3.16-1.898V6.865Z"/><path fill="url(#paint10_radial_18_17802)" d="M22.922 6.865c0-1.62-1.724-2.658-3.156-1.9l-7.703 4.079v13.89l7.699 4.099c1.432.762 3.16-.275 3.16-1.898V6.865Z"/><path fill="url(#paint11_linear_18_17802)" d="M22.922 6.865c0-1.62-1.724-2.658-3.156-1.9l-7.703 4.079v13.89l7.699 4.099c1.432.762 3.16-.275 3.16-1.898V6.865Z"/><path fill="url(#paint12_linear_18_17802)" d="M22.922 6.865c0-1.62-1.724-2.658-3.156-1.9l-7.703 4.079v13.89l7.699 4.099c1.432.762 3.16-.275 3.16-1.898V6.865Z"/><path fill="url(#paint13_radial_18_17802)" d="M22.922 6.865c0-1.62-1.724-2.658-3.156-1.9l-7.703 4.079v13.89l7.699 4.099c1.432.762 3.16-.275 3.16-1.898V6.865Z"/><defs><linearGradient id="paint3_linear_18_17802" x1="13.125" x2="9.094" y1="11.247" y2="20.747" gradientUnits="userSpaceOnUse"><stop offset=".213" stop-color="#D2CED6"/><stop offset="1" stop-color="#DDD5E6"/></linearGradient><linearGradient id="paint4_linear_18_17802" x1="9.094" x2="9.094" y1="9.043" y2="14.111" gradientUnits="userSpaceOnUse"><stop stop-color="#C5C4C5"/><stop offset="1" stop-color="#C5C4C5" stop-opacity="0"/></linearGradient><linearGradient id="paint5_linear_18_17802" x1="10.375" x2="10.375" y1="23.309" y2="19.309" gradientUnits="userSpaceOnUse"><stop stop-color="#B6B0BD"/><stop offset="1" stop-color="#D8D0E1" stop-opacity="0"/></linearGradient><linearGradient id="paint6_linear_18_17802" x1="6.125" x2="8.688" y1="18.247" y2="18.247" gradientUnits="userSpaceOnUse"><stop offset=".024" stop-color="#A5A5A5"/><stop offset="1" stop-color="#C3BECB" stop-opacity="0"/></linearGradient><linearGradient id="paint7_linear_18_17802" x1="12.646" x2="11.677" y1="20.735" y2="20.735" gradientUnits="userSpaceOnUse"><stop offset=".267" stop-color="#CCC5D4"/><stop offset="1" stop-color="#CCC5D4" stop-opacity="0"/></linearGradient><linearGradient id="paint8_linear_18_17802" x1="23.5" x2="15" y1="7.747" y2="24.059" gradientUnits="userSpaceOnUse"><stop stop-color="#BFBAC4"/><stop offset="1" stop-color="#CAC2D3"/></linearGradient><linearGradient id="paint9_linear_18_17802" x1="10.908" x2="15.092" y1="18.565" y2="18.565" gradientUnits="userSpaceOnUse"><stop stop-color="#C4BECC"/><stop offset="1" stop-color="#C4BECC" stop-opacity="0"/></linearGradient><linearGradient id="paint11_linear_18_17802" x1="16.094" x2="17.781" y1="25.465" y2="22.278" gradientUnits="userSpaceOnUse"><stop stop-color="#B3AFB8"/><stop offset="1" stop-color="#CAC2D3" stop-opacity="0"/></linearGradient><linearGradient id="paint12_linear_18_17802" x1="24.118" x2="20.733" y1="21.693" y2="21.693" gradientUnits="userSpaceOnUse"><stop stop-color="#E6E7EF"/><stop offset="1" stop-color="#D2CBDA" stop-opacity="0"/></linearGradient><radialGradient id="paint0_radial_18_17802" cx="0" cy="0" r="1" gradientTransform="rotate(113.233 7.897 15.159) scale(5.79574)" gradientUnits="userSpaceOnUse"><stop offset=".097" stop-color="#E1E0E4"/><stop offset="1" stop-color="#CECAD6"/></radialGradient><radialGradient id="paint1_radial_18_17802" cx="0" cy="0" r="1" gradientTransform="rotate(145.706 10.104 11.29) scale(1.89104)" gradientUnits="userSpaceOnUse"><stop stop-color="#F4F6FE"/><stop offset="1" stop-color="#F4F6FE" stop-opacity="0"/></radialGradient><radialGradient id="paint2_radial_18_17802" cx="0" cy="0" r="1" gradientTransform="matrix(-.27222 3.9757 -4.04797 -.27717 22.928 15.232)" gradientUnits="userSpaceOnUse"><stop offset=".594" stop-color="#D1CCD9" stop-opacity="0"/><stop offset="1" stop-color="#B9B6BF"/></radialGradient><radialGradient id="paint10_radial_18_17802" cx="0" cy="0" r="1" gradientTransform="matrix(2.625 4.375 -15.32416 9.19451 15.156 6.966)" gradientUnits="userSpaceOnUse"><stop offset=".115" stop-color="#ABABAC"/><stop offset="1" stop-color="#C2BDC7" stop-opacity="0"/></radialGradient><radialGradient id="paint13_radial_18_17802" cx="0" cy="0" r="1" gradientTransform="matrix(0 16.0625 -2.22649 0 22.063 11.653)" gradientUnits="userSpaceOnUse"><stop stop-color="#F8F6FB"/><stop offset="1" stop-color="#E7E6EE" stop-opacity="0"/></radialGradient></defs></svg>