<svg xmlns="http://www.w3.org/2000/svg" width="32" height="32" fill="none" viewBox="0 0 32 32"><path fill="url(#paint0_linear_18_6399)" d="M3.104 7.664h25.813v22.309H3.104z"/><path fill="url(#paint1_linear_18_6399)" d="M3.104 7.664h25.813v22.309H3.104z"/><path fill="url(#paint2_linear_18_6399)" d="M3.104 7.664h25.813v22.309H3.104z"/><path fill="url(#paint3_linear_18_6399)" d="M3.104 7.664H14.01v22.309H3.104z"/><path fill="url(#paint4_linear_18_6399)" d="M3.104 7.664H14.01v22.309H3.104z"/><path fill="url(#paint5_radial_18_6399)" d="M3.104 7.664H14.01v22.309H3.104z"/><path fill="url(#paint6_linear_18_6399)" d="M18.01 7.664h10.906v22.309H18.01z"/><path fill="url(#paint7_linear_18_6399)" d="M18.01 7.664h10.906v22.309H18.01z"/><g filter="url(#filter0_f_18_6399)"><path fill="#BA615F" d="M10.376 28.543v.344h-.357c-.32 0-.585.221-.585.49v.3H20.74v-.3c0-.269-.265-.49-.586-.49h-.357v-.344c0-.247-.235-.447-.528-.447h-8.365c-.292 0-.528.2-.528.447Z"/></g><path fill="url(#paint8_linear_18_6399)" d="M11.016 7.953a4.984 4.984 0 0 1 9.968 0v20.973h-9.968V7.953Z"/><path fill="url(#paint9_radial_18_6399)" d="M11.016 7.953a4.984 4.984 0 0 1 9.968 0v20.973h-9.968V7.953Z"/><path fill="url(#paint10_linear_18_6399)" d="M11.016 7.953a4.984 4.984 0 0 1 9.968 0v20.973h-9.968V7.953Z"/><path fill="url(#paint11_linear_18_6399)" d="M11.016 7.953a4.984 4.984 0 0 1 9.968 0v20.973h-9.968V7.953Z"/><g filter="url(#filter1_f_18_6399)"><path fill="#C9645E" d="M17.443 6.008h-.02a.49.49 0 0 0-.488.49v1.51H14.93v-1.51a.49.49 0 0 0-.49-.49h-.02a.49.49 0 0 0-.488.49v4.02c0 .27.22.49.489.49h.02a.49.49 0 0 0 .489-.49v-1.5h2.005v1.5c0 .27.22.49.488.49h.02a.49.49 0 0 0 .49-.49v-4.02a.49.49 0 0 0-.49-.49Z"/></g><g filter="url(#filter2_ii_18_6399)"><path fill="#E51230" d="M17.521 5.973h-.02a.49.49 0 0 0-.489.49v1.51h-2.005v-1.51a.49.49 0 0 0-.488-.49h-.02a.49.49 0 0 0-.489.49v4.02c0 .27.22.49.489.49h.02a.49.49 0 0 0 .489-.49v-1.5h2.005v1.5c0 .27.219.49.488.49h.02a.49.49 0 0 0 .489-.49v-4.02a.49.49 0 0 0-.489-.49Z"/></g><g filter="url(#filter3_f_18_6399)"><path fill="#AC625B" d="M19.783 20.783c0 .008 0 .015.005.02.03.048.04.116.04.183a.435.435 0 0 1-.44.435h-.045v6.76h-7.74v-6.76h-.044a.435.435 0 0 1-.44-.435.45.45 0 0 1 .059-.203c.01-.01.01-.01.01-.019a4.99 4.99 0 0 1 4.295-2.443 4.99 4.99 0 0 1 4.295 2.443c.005.005.005.012.005.02Z"/></g><path fill="url(#paint12_linear_18_6399)" d="M20.01 19.973h-8v8h8v-8Z"/><path fill="url(#paint13_radial_18_6399)" d="M20.01 19.973h-8v8h8v-8Z"/><g filter="url(#filter4_i_18_6399)"><path fill="url(#paint14_linear_18_6399)" d="M15.147 26.973h-1.774a.365.365 0 0 1-.363-.37v-6.26c0-.2.157-.37.363-.37h1.774c.196 0 .363.16.363.37v6.26c0 .21-.167.37-.363.37Z"/><path fill="url(#paint15_linear_18_6399)" d="M15.147 26.973h-1.774a.365.365 0 0 1-.363-.37v-6.26c0-.2.157-.37.363-.37h1.774c.196 0 .363.16.363.37v6.26c0 .21-.167.37-.363.37Z"/><path fill="url(#paint16_linear_18_6399)" d="M15.147 26.973h-1.774a.365.365 0 0 1-.363-.37v-6.26c0-.2.157-.37.363-.37h1.774c.196 0 .363.16.363.37v6.26c0 .21-.167.37-.363.37Z"/></g><g filter="url(#filter5_i_18_6399)"><path fill="url(#paint17_linear_18_6399)" d="M18.647 26.973h-1.774a.365.365 0 0 1-.363-.37v-6.26c0-.2.157-.37.363-.37h1.774c.196 0 .363.16.363.37v6.26c0 .21-.167.37-.363.37Z"/><path fill="url(#paint18_linear_18_6399)" d="M18.647 26.973h-1.774a.365.365 0 0 1-.363-.37v-6.26c0-.2.157-.37.363-.37h1.774c.196 0 .363.16.363.37v6.26c0 .21-.167.37-.363.37Z"/><path fill="url(#paint19_linear_18_6399)" d="M18.647 26.973h-1.774a.365.365 0 0 1-.363-.37v-6.26c0-.2.157-.37.363-.37h1.774c.196 0 .363.16.363.37v6.26c0 .21-.167.37-.363.37Z"/></g><path fill="url(#paint20_linear_18_6399)" d="M22 29.973H10.01v-.38c0-.34.28-.62.621-.62h10.758c.34 0 .621.28.621.62v.38H22Z"/><path fill="url(#paint21_linear_18_6399)" d="M21.01 28.973h-10v-.435c0-.313.25-.565.56-.565h8.88c.31 0 .56.252.56.565v.435Z"/><path fill="url(#paint22_radial_18_6399)" d="M20.47 20.333c-.01-.01 0-.03-.01-.04a5.155 5.155 0 0 0-4.44-2.53 5.155 5.155 0 0 0-4.44 2.53c0 .01 0 .01-.01.02-.03.06-.06.13-.06.21 0 .25.202.45.454.45h8.092a.45.45 0 0 0 .454-.45.38.38 0 0 0-.04-.19Z"/><path fill="url(#paint23_radial_18_6399)" d="M20.47 20.333c-.01-.01 0-.03-.01-.04a5.155 5.155 0 0 0-4.44-2.53 5.155 5.155 0 0 0-4.44 2.53c0 .01 0 .01-.01.02-.03.06-.06.13-.06.21 0 .25.202.45.454.45h8.092a.45.45 0 0 0 .454-.45.38.38 0 0 0-.04-.19Z"/><path fill="url(#paint24_linear_18_6399)" d="M20.47 20.333c-.01-.01 0-.03-.01-.04a5.155 5.155 0 0 0-4.44-2.53 5.155 5.155 0 0 0-4.44 2.53c0 .01 0 .01-.01.02-.03.06-.06.13-.06.21 0 .25.202.45.454.45h8.092a.45.45 0 0 0 .454-.45.38.38 0 0 0-.04-.19Z"/><path fill="url(#paint25_radial_18_6399)" d="M20.47 20.333c-.01-.01 0-.03-.01-.04a5.155 5.155 0 0 0-4.44-2.53 5.155 5.155 0 0 0-4.44 2.53c0 .01 0 .01-.01.02-.03.06-.06.13-.06.21 0 .25.202.45.454.45h8.092a.45.45 0 0 0 .454-.45.38.38 0 0 0-.04-.19Z"/><g filter="url(#filter6_i_18_6399)"><path fill="url(#paint26_linear_18_6399)" d="M15.01 15.663v-2.38c0-.17-.14-.31-.312-.31h-1.376a.313.313 0 0 0-.312.31v2.38c0 .17.14.31.312.31h1.377c.17 0 .311-.14.311-.31Z"/><path fill="url(#paint27_linear_18_6399)" d="M15.01 15.663v-2.38c0-.17-.14-.31-.312-.31h-1.376a.313.313 0 0 0-.312.31v2.38c0 .17.14.31.312.31h1.377c.17 0 .311-.14.311-.31Z"/></g><g filter="url(#filter7_i_18_6399)"><path fill="url(#paint28_linear_18_6399)" d="M19.01 15.663v-2.38c0-.17-.14-.31-.312-.31h-1.376a.313.313 0 0 0-.312.31v2.38c0 .17.14.31.312.31h1.377c.17 0 .311-.14.311-.31Z"/><path fill="url(#paint29_linear_18_6399)" d="M19.01 15.663v-2.38c0-.17-.14-.31-.312-.31h-1.376a.313.313 0 0 0-.312.31v2.38c0 .17.14.31.312.31h1.377c.17 0 .311-.14.311-.31Z"/></g><g filter="url(#filter8_i_18_6399)"><rect width="2.043" height="2.987" x="4.049" y="11.034" fill="url(#paint30_linear_18_6399)" rx=".35"/><rect width="2.043" height="2.987" x="4.049" y="11.034" fill="url(#paint31_linear_18_6399)" rx=".35"/></g><g filter="url(#filter9_i_18_6399)"><rect width="2.043" height="2.987" x="7.021" y="11.034" fill="url(#paint32_linear_18_6399)" rx=".35"/><rect width="2.043" height="2.987" x="7.021" y="11.034" fill="url(#paint33_linear_18_6399)" rx=".35"/></g><g filter="url(#filter10_i_18_6399)"><rect width="2.043" height="2.987" x="4.049" y="16" fill="url(#paint34_linear_18_6399)" rx=".35"/><rect width="2.043" height="2.987" x="4.049" y="16" fill="url(#paint35_linear_18_6399)" rx=".35"/></g><g filter="url(#filter11_i_18_6399)"><rect width="2.043" height="2.987" x="7.021" y="16" fill="url(#paint36_linear_18_6399)" rx=".35"/><rect width="2.043" height="2.987" x="7.021" y="16" fill="url(#paint37_linear_18_6399)" rx=".35"/></g><g filter="url(#filter12_i_18_6399)"><rect width="2.043" height="2.987" x="4.049" y="20.966" fill="url(#paint38_linear_18_6399)" rx=".35"/><rect width="2.043" height="2.987" x="4.049" y="20.966" fill="url(#paint39_linear_18_6399)" rx=".35"/></g><g filter="url(#filter13_i_18_6399)"><rect width="2.043" height="2.987" x="7.021" y="20.966" fill="url(#paint40_linear_18_6399)" rx=".35"/><rect width="2.043" height="2.987" x="7.021" y="20.966" fill="url(#paint41_linear_18_6399)" rx=".35"/></g><g filter="url(#filter14_i_18_6399)"><rect width="2.043" height="2.987" x="22.935" y="11.034" fill="url(#paint42_linear_18_6399)" rx=".35"/><rect width="2.043" height="2.987" x="22.935" y="11.034" fill="url(#paint43_linear_18_6399)" rx=".35"/></g><g filter="url(#filter15_i_18_6399)"><rect width="2.043" height="2.987" x="25.908" y="11.034" fill="url(#paint44_linear_18_6399)" rx=".35"/><rect width="2.043" height="2.987" x="25.908" y="11.034" fill="url(#paint45_linear_18_6399)" rx=".35"/></g><g filter="url(#filter16_i_18_6399)"><rect width="2.043" height="2.987" x="22.935" y="16" fill="url(#paint46_linear_18_6399)" rx=".35"/><rect width="2.043" height="2.987" x="22.935" y="16" fill="url(#paint47_linear_18_6399)" rx=".35"/></g><g filter="url(#filter17_i_18_6399)"><rect width="2.043" height="2.987" x="25.908" y="16" fill="url(#paint48_linear_18_6399)" rx=".35"/><rect width="2.043" height="2.987" x="25.908" y="16" fill="url(#paint49_linear_18_6399)" rx=".35"/></g><g filter="url(#filter18_i_18_6399)"><rect width="2.043" height="2.987" x="22.935" y="20.966" fill="url(#paint50_linear_18_6399)" rx=".35"/><rect width="2.043" height="2.987" x="22.935" y="20.966" fill="url(#paint51_linear_18_6399)" rx=".35"/></g><g filter="url(#filter19_i_18_6399)"><rect width="2.043" height="2.987" x="25.908" y="20.966" fill="url(#paint52_linear_18_6399)" rx=".35"/><rect width="2.043" height="2.987" x="25.908" y="20.966" fill="url(#paint53_linear_18_6399)" rx=".35"/></g><g filter="url(#filter20_f_18_6399)"><path stroke="url(#paint54_radial_18_6399)" stroke-linecap="round" stroke-width=".25" d="M15.436 2.538c1.236-.254 4.026.22 5.442 2.8"/></g><g filter="url(#filter21_f_18_6399)"><path fill="#B53F3A" d="M20.995 7.652c-1-3.753-3.369-4.787-6.473-4.59-.044.002-.087-.024-.092-.067-.053-.418.725-1.068 3.486-.147 2.824.941 3.681 3.59 3.774 4.924a.097.097 0 0 1-.125.099l-.5-.148a.102.102 0 0 1-.07-.071Z"/></g><g filter="url(#filter22_i_18_6399)"><path fill="url(#paint55_radial_18_6399)" d="M27.85 4.993h-6.399a.526.526 0 0 1-.44-.25 5.947 5.947 0 0 0-5.021-2.77 5.947 5.947 0 0 0-5.02 2.77.526.526 0 0 1-.441.25H4.13c-1.11 0-2.01.96-2.12 2.19.06.45.43.81.9.81h8.02c.055 0 .1-.045.101-.1a5.63 5.63 0 0 1 .109-.9c.14-.74.46-1.41.89-2 .9-1.22 2.34-2.02 3.97-2.02 1.63 0 3.07.8 3.97 2.02.43.59.75 1.26.89 2 .057.284.1.62.108.9.002.055.047.1.102.1h8.02c.47 0 .84-.36.9-.81-.13-1.23-1.03-2.19-2.14-2.19Z"/><path fill="url(#paint56_linear_18_6399)" d="M27.85 4.993h-6.399a.526.526 0 0 1-.44-.25 5.947 5.947 0 0 0-5.021-2.77 5.947 5.947 0 0 0-5.02 2.77.526.526 0 0 1-.441.25H4.13c-1.11 0-2.01.96-2.12 2.19.06.45.43.81.9.81h8.02c.055 0 .1-.045.101-.1a5.63 5.63 0 0 1 .109-.9c.14-.74.46-1.41.89-2 .9-1.22 2.34-2.02 3.97-2.02 1.63 0 3.07.8 3.97 2.02.43.59.75 1.26.89 2 .057.284.1.62.108.9.002.055.047.1.102.1h8.02c.47 0 .84-.36.9-.81-.13-1.23-1.03-2.19-2.14-2.19Z"/></g><defs><linearGradient id="paint0_linear_18_6399" x1="16.01" x2="16.01" y1="22.912" y2="29.973" gradientUnits="userSpaceOnUse"><stop stop-color="#FFAF96"/><stop offset="1" stop-color="#FFAF9B"/></linearGradient><linearGradient id="paint1_linear_18_6399" x1="3.104" x2="3.408" y1="19.852" y2="19.852" gradientUnits="userSpaceOnUse"><stop stop-color="#A56E61"/><stop offset="1" stop-color="#A56E61" stop-opacity="0"/></linearGradient><linearGradient id="paint2_linear_18_6399" x1="28.916" x2="28.432" y1="19.346" y2="19.346" gradientUnits="userSpaceOnUse"><stop offset=".29" stop-color="#FFCDA6"/><stop offset="1" stop-color="#FFCDA6" stop-opacity="0"/></linearGradient><linearGradient id="paint3_linear_18_6399" x1="11.01" x2="10.088" y1="20.562" y2="20.562" gradientUnits="userSpaceOnUse"><stop stop-color="#BD5B55"/><stop offset="1" stop-color="#E08F7F" stop-opacity="0"/></linearGradient><linearGradient id="paint4_linear_18_6399" x1="8.557" x2="8.557" y1="7.954" y2="8.426" gradientUnits="userSpaceOnUse"><stop stop-color="#B34347"/><stop offset="1" stop-color="#B34347" stop-opacity="0"/></linearGradient><linearGradient id="paint6_linear_18_6399" x1="20.948" x2="21.573" y1="25.691" y2="25.691" gradientUnits="userSpaceOnUse"><stop stop-color="#FFA882"/><stop offset="1" stop-color="#FFA882" stop-opacity="0"/></linearGradient><linearGradient id="paint7_linear_18_6399" x1="23.463" x2="23.463" y1="7.954" y2="8.426" gradientUnits="userSpaceOnUse"><stop stop-color="#B34347"/><stop offset="1" stop-color="#B34347" stop-opacity="0"/></linearGradient><linearGradient id="paint8_linear_18_6399" x1="16" x2="16" y1="2.969" y2="29.91" gradientUnits="userSpaceOnUse"><stop stop-color="#FCAE95"/><stop offset="1" stop-color="#FFB395"/></linearGradient><linearGradient id="paint10_linear_18_6399" x1="20.924" x2="20.596" y1="20.316" y2="20.316" gradientUnits="userSpaceOnUse"><stop stop-color="#FFC7A1"/><stop offset="1" stop-color="#FFC7A1" stop-opacity="0"/></linearGradient><linearGradient id="paint11_linear_18_6399" x1="11.016" x2="11.26" y1="20.348" y2="20.348" gradientUnits="userSpaceOnUse"><stop stop-color="#BE7A6B"/><stop offset="1" stop-color="#BE7A6B" stop-opacity="0"/></linearGradient><linearGradient id="paint12_linear_18_6399" x1="16.01" x2="16.01" y1="20.577" y2="27.973" gradientUnits="userSpaceOnUse"><stop stop-color="#D78A5D"/><stop offset="1" stop-color="#FFC8A6"/></linearGradient><linearGradient id="paint14_linear_18_6399" x1="13.141" x2="17.838" y1="26.973" y2="23.386" gradientUnits="userSpaceOnUse"><stop stop-color="#47CAFF"/><stop offset="1" stop-color="#3892E6"/></linearGradient><linearGradient id="paint15_linear_18_6399" x1="13.01" x2="13.445" y1="23.473" y2="23.473" gradientUnits="userSpaceOnUse"><stop stop-color="#5ADFFF"/><stop offset=".909" stop-color="#5ADFFF" stop-opacity="0"/></linearGradient><linearGradient id="paint16_linear_18_6399" x1="14.26" x2="14.26" y1="20.467" y2="22.03" gradientUnits="userSpaceOnUse"><stop stop-color="#2A63AF"/><stop offset="1" stop-color="#2A63AF" stop-opacity="0"/></linearGradient><linearGradient id="paint17_linear_18_6399" x1="16.641" x2="21.338" y1="26.973" y2="23.386" gradientUnits="userSpaceOnUse"><stop stop-color="#47CAFF"/><stop offset="1" stop-color="#3892E6"/></linearGradient><linearGradient id="paint18_linear_18_6399" x1="16.51" x2="16.945" y1="23.473" y2="23.473" gradientUnits="userSpaceOnUse"><stop stop-color="#5ADFFF"/><stop offset=".909" stop-color="#5ADFFF" stop-opacity="0"/></linearGradient><linearGradient id="paint19_linear_18_6399" x1="17.76" x2="17.76" y1="20.467" y2="22.03" gradientUnits="userSpaceOnUse"><stop stop-color="#2A63AF"/><stop offset="1" stop-color="#2A63AF" stop-opacity="0"/></linearGradient><linearGradient id="paint20_linear_18_6399" x1="16.01" x2="16.01" y1="28.973" y2="30.026" gradientUnits="userSpaceOnUse"><stop offset=".361" stop-color="#FC5328"/><stop offset="1" stop-color="#F72F3E"/></linearGradient><linearGradient id="paint21_linear_18_6399" x1="16.01" x2="16.01" y1="27.973" y2="29.132" gradientUnits="userSpaceOnUse"><stop offset=".361" stop-color="#FC5430"/><stop offset="1" stop-color="#F43239"/></linearGradient><linearGradient id="paint24_linear_18_6399" x1="16.01" x2="16.01" y1="21.185" y2="20.507" gradientUnits="userSpaceOnUse"><stop stop-color="#E61938"/><stop offset=".645" stop-color="#E61938" stop-opacity=".908"/><stop offset="1" stop-color="#E61938" stop-opacity="0"/></linearGradient><linearGradient id="paint26_linear_18_6399" x1="13.115" x2="15.077" y1="15.973" y2="13.176" gradientUnits="userSpaceOnUse"><stop stop-color="#47CAFF"/><stop offset="1" stop-color="#3892E6"/></linearGradient><linearGradient id="paint27_linear_18_6399" x1="13.01" x2="13.555" y1="14.473" y2="14.473" gradientUnits="userSpaceOnUse"><stop stop-color="#5ADFFF"/><stop offset=".909" stop-color="#5ADFFF" stop-opacity="0"/></linearGradient><linearGradient id="paint28_linear_18_6399" x1="17.115" x2="19.077" y1="15.973" y2="13.176" gradientUnits="userSpaceOnUse"><stop stop-color="#47CAFF"/><stop offset="1" stop-color="#3892E6"/></linearGradient><linearGradient id="paint29_linear_18_6399" x1="17.01" x2="17.555" y1="14.473" y2="14.473" gradientUnits="userSpaceOnUse"><stop stop-color="#5ADFFF"/><stop offset=".909" stop-color="#5ADFFF" stop-opacity="0"/></linearGradient><linearGradient id="paint30_linear_18_6399" x1="4.156" x2="6.092" y1="14.021" y2="11.19" gradientUnits="userSpaceOnUse"><stop stop-color="#47CAFF"/><stop offset="1" stop-color="#3892E6"/></linearGradient><linearGradient id="paint31_linear_18_6399" x1="4.049" x2="4.605" y1="12.528" y2="12.528" gradientUnits="userSpaceOnUse"><stop stop-color="#5ADFFF"/><stop offset=".909" stop-color="#5ADFFF" stop-opacity="0"/></linearGradient><linearGradient id="paint32_linear_18_6399" x1="7.129" x2="9.065" y1="14.021" y2="11.19" gradientUnits="userSpaceOnUse"><stop stop-color="#47CAFF"/><stop offset="1" stop-color="#3892E6"/></linearGradient><linearGradient id="paint33_linear_18_6399" x1="7.021" x2="7.578" y1="12.528" y2="12.528" gradientUnits="userSpaceOnUse"><stop stop-color="#5ADFFF"/><stop offset=".909" stop-color="#5ADFFF" stop-opacity="0"/></linearGradient><linearGradient id="paint34_linear_18_6399" x1="4.156" x2="6.092" y1="18.987" y2="16.155" gradientUnits="userSpaceOnUse"><stop stop-color="#47CAFF"/><stop offset="1" stop-color="#3892E6"/></linearGradient><linearGradient id="paint35_linear_18_6399" x1="4.049" x2="4.605" y1="17.494" y2="17.494" gradientUnits="userSpaceOnUse"><stop stop-color="#5ADFFF"/><stop offset=".909" stop-color="#5ADFFF" stop-opacity="0"/></linearGradient><linearGradient id="paint36_linear_18_6399" x1="7.129" x2="9.065" y1="18.987" y2="16.155" gradientUnits="userSpaceOnUse"><stop stop-color="#47CAFF"/><stop offset="1" stop-color="#3892E6"/></linearGradient><linearGradient id="paint37_linear_18_6399" x1="7.021" x2="7.578" y1="17.494" y2="17.494" gradientUnits="userSpaceOnUse"><stop stop-color="#5ADFFF"/><stop offset=".909" stop-color="#5ADFFF" stop-opacity="0"/></linearGradient><linearGradient id="paint38_linear_18_6399" x1="4.156" x2="6.092" y1="23.953" y2="21.122" gradientUnits="userSpaceOnUse"><stop stop-color="#47CAFF"/><stop offset="1" stop-color="#3892E6"/></linearGradient><linearGradient id="paint39_linear_18_6399" x1="4.049" x2="4.605" y1="22.459" y2="22.459" gradientUnits="userSpaceOnUse"><stop stop-color="#5ADFFF"/><stop offset=".909" stop-color="#5ADFFF" stop-opacity="0"/></linearGradient><linearGradient id="paint40_linear_18_6399" x1="7.129" x2="9.065" y1="23.953" y2="21.122" gradientUnits="userSpaceOnUse"><stop stop-color="#47CAFF"/><stop offset="1" stop-color="#3892E6"/></linearGradient><linearGradient id="paint41_linear_18_6399" x1="7.021" x2="7.578" y1="22.459" y2="22.459" gradientUnits="userSpaceOnUse"><stop stop-color="#5ADFFF"/><stop offset=".909" stop-color="#5ADFFF" stop-opacity="0"/></linearGradient><linearGradient id="paint42_linear_18_6399" x1="23.043" x2="24.979" y1="14.021" y2="11.19" gradientUnits="userSpaceOnUse"><stop stop-color="#47CAFF"/><stop offset="1" stop-color="#3892E6"/></linearGradient><linearGradient id="paint43_linear_18_6399" x1="22.935" x2="23.492" y1="12.528" y2="12.528" gradientUnits="userSpaceOnUse"><stop stop-color="#5ADFFF"/><stop offset=".909" stop-color="#5ADFFF" stop-opacity="0"/></linearGradient><linearGradient id="paint44_linear_18_6399" x1="26.015" x2="27.951" y1="14.021" y2="11.19" gradientUnits="userSpaceOnUse"><stop stop-color="#47CAFF"/><stop offset="1" stop-color="#3892E6"/></linearGradient><linearGradient id="paint45_linear_18_6399" x1="25.908" x2="26.465" y1="12.528" y2="12.528" gradientUnits="userSpaceOnUse"><stop stop-color="#5ADFFF"/><stop offset=".909" stop-color="#5ADFFF" stop-opacity="0"/></linearGradient><linearGradient id="paint46_linear_18_6399" x1="23.043" x2="24.979" y1="18.987" y2="16.155" gradientUnits="userSpaceOnUse"><stop stop-color="#47CAFF"/><stop offset="1" stop-color="#3892E6"/></linearGradient><linearGradient id="paint47_linear_18_6399" x1="22.935" x2="23.492" y1="17.494" y2="17.494" gradientUnits="userSpaceOnUse"><stop stop-color="#5ADFFF"/><stop offset=".909" stop-color="#5ADFFF" stop-opacity="0"/></linearGradient><linearGradient id="paint48_linear_18_6399" x1="26.015" x2="27.951" y1="18.987" y2="16.155" gradientUnits="userSpaceOnUse"><stop stop-color="#47CAFF"/><stop offset="1" stop-color="#3892E6"/></linearGradient><linearGradient id="paint49_linear_18_6399" x1="25.908" x2="26.465" y1="17.494" y2="17.494" gradientUnits="userSpaceOnUse"><stop stop-color="#5ADFFF"/><stop offset=".909" stop-color="#5ADFFF" stop-opacity="0"/></linearGradient><linearGradient id="paint50_linear_18_6399" x1="23.043" x2="24.979" y1="23.953" y2="21.122" gradientUnits="userSpaceOnUse"><stop stop-color="#47CAFF"/><stop offset="1" stop-color="#3892E6"/></linearGradient><linearGradient id="paint51_linear_18_6399" x1="22.935" x2="23.492" y1="22.459" y2="22.459" gradientUnits="userSpaceOnUse"><stop stop-color="#5ADFFF"/><stop offset=".909" stop-color="#5ADFFF" stop-opacity="0"/></linearGradient><linearGradient id="paint52_linear_18_6399" x1="26.015" x2="27.951" y1="23.953" y2="21.122" gradientUnits="userSpaceOnUse"><stop stop-color="#47CAFF"/><stop offset="1" stop-color="#3892E6"/></linearGradient><linearGradient id="paint53_linear_18_6399" x1="25.908" x2="26.465" y1="22.459" y2="22.459" gradientUnits="userSpaceOnUse"><stop stop-color="#5ADFFF"/><stop offset=".909" stop-color="#5ADFFF" stop-opacity="0"/></linearGradient><linearGradient id="paint56_linear_18_6399" x1="16" x2="16" y1="8.974" y2="5.919" gradientUnits="userSpaceOnUse"><stop offset=".235" stop-color="#CA1630"/><stop offset="1" stop-color="#CA1630" stop-opacity="0"/></linearGradient><filter id="filter0_f_18_6399" width="13.306" height="3.582" x="8.434" y="27.096" color-interpolation-filters="sRGB" filterUnits="userSpaceOnUse"><feFlood flood-opacity="0" result="BackgroundImageFix"/><feBlend in="SourceGraphic" in2="BackgroundImageFix" result="shape"/><feGaussianBlur result="effect1_foregroundBlur_18_6399" stdDeviation=".5"/></filter><filter id="filter1_f_18_6399" width="4.4" height="5.4" x="13.732" y="5.808" color-interpolation-filters="sRGB" filterUnits="userSpaceOnUse"><feFlood flood-opacity="0" result="BackgroundImageFix"/><feBlend in="SourceGraphic" in2="BackgroundImageFix" result="shape"/><feGaussianBlur result="effect1_foregroundBlur_18_6399" stdDeviation=".1"/></filter><filter id="filter2_ii_18_6399" width="4.3" height="5.05" x="13.81" y="5.973" color-interpolation-filters="sRGB" filterUnits="userSpaceOnUse"><feFlood flood-opacity="0" result="BackgroundImageFix"/><feBlend in="SourceGraphic" in2="BackgroundImageFix" result="shape"/><feColorMatrix in="SourceAlpha" result="hardAlpha" values="0 0 0 0 0 0 0 0 0 0 0 0 0 0 0 0 0 0 127 0"/><feOffset dx="-.2"/><feGaussianBlur stdDeviation=".2"/><feComposite in2="hardAlpha" k2="-1" k3="1" operator="arithmetic"/><feColorMatrix values="0 0 0 0 1 0 0 0 0 0.2125 0 0 0 0 0.30908 0 0 0 1 0"/><feBlend in2="shape" result="effect1_innerShadow_18_6399"/><feColorMatrix in="SourceAlpha" result="hardAlpha" values="0 0 0 0 0 0 0 0 0 0 0 0 0 0 0 0 0 0 127 0"/><feOffset dx=".1" dy=".05"/><feGaussianBlur stdDeviation=".2"/><feComposite in2="hardAlpha" k2="-1" k3="1" operator="arithmetic"/><feColorMatrix values="0 0 0 0 0.839216 0 0 0 0 0.109804 0 0 0 0 0.168627 0 0 0 1 0"/><feBlend in2="effect1_innerShadow_18_6399" result="effect2_innerShadow_18_6399"/></filter><filter id="filter3_f_18_6399" width="9.708" height="10.86" x="10.619" y="17.821" color-interpolation-filters="sRGB" filterUnits="userSpaceOnUse"><feFlood flood-opacity="0" result="BackgroundImageFix"/><feBlend in="SourceGraphic" in2="BackgroundImageFix" result="shape"/><feGaussianBlur result="effect1_foregroundBlur_18_6399" stdDeviation=".25"/></filter><filter id="filter4_i_18_6399" width="2.9" height="7.25" x="12.61" y="19.973" color-interpolation-filters="sRGB" filterUnits="userSpaceOnUse"><feFlood flood-opacity="0" result="BackgroundImageFix"/><feBlend in="SourceGraphic" in2="BackgroundImageFix" result="shape"/><feColorMatrix in="SourceAlpha" result="hardAlpha" values="0 0 0 0 0 0 0 0 0 0 0 0 0 0 0 0 0 0 127 0"/><feOffset dx="-.4" dy=".25"/><feGaussianBlur stdDeviation=".4"/><feComposite in2="hardAlpha" k2="-1" k3="1" operator="arithmetic"/><feColorMatrix values="0 0 0 0 0.0705882 0 0 0 0 0.466667 0 0 0 0 0.815686 0 0 0 1 0"/><feBlend in2="shape" result="effect1_innerShadow_18_6399"/></filter><filter id="filter5_i_18_6399" width="2.9" height="7.25" x="16.11" y="19.973" color-interpolation-filters="sRGB" filterUnits="userSpaceOnUse"><feFlood flood-opacity="0" result="BackgroundImageFix"/><feBlend in="SourceGraphic" in2="BackgroundImageFix" result="shape"/><feColorMatrix in="SourceAlpha" result="hardAlpha" values="0 0 0 0 0 0 0 0 0 0 0 0 0 0 0 0 0 0 127 0"/><feOffset dx="-.4" dy=".25"/><feGaussianBlur stdDeviation=".4"/><feComposite in2="hardAlpha" k2="-1" k3="1" operator="arithmetic"/><feColorMatrix values="0 0 0 0 0.0705882 0 0 0 0 0.466667 0 0 0 0 0.815686 0 0 0 1 0"/><feBlend in2="shape" result="effect1_innerShadow_18_6399"/></filter><filter id="filter6_i_18_6399" width="2.25" height="3.25" x="12.76" y="12.973" color-interpolation-filters="sRGB" filterUnits="userSpaceOnUse"><feFlood flood-opacity="0" result="BackgroundImageFix"/><feBlend in="SourceGraphic" in2="BackgroundImageFix" result="shape"/><feColorMatrix in="SourceAlpha" result="hardAlpha" values="0 0 0 0 0 0 0 0 0 0 0 0 0 0 0 0 0 0 127 0"/><feOffset dx="-.25" dy=".25"/><feGaussianBlur stdDeviation=".25"/><feComposite in2="hardAlpha" k2="-1" k3="1" operator="arithmetic"/><feColorMatrix values="0 0 0 0 0.0705882 0 0 0 0 0.466667 0 0 0 0 0.815686 0 0 0 1 0"/><feBlend in2="shape" result="effect1_innerShadow_18_6399"/></filter><filter id="filter7_i_18_6399" width="2.25" height="3.25" x="16.76" y="12.973" color-interpolation-filters="sRGB" filterUnits="userSpaceOnUse"><feFlood flood-opacity="0" result="BackgroundImageFix"/><feBlend in="SourceGraphic" in2="BackgroundImageFix" result="shape"/><feColorMatrix in="SourceAlpha" result="hardAlpha" values="0 0 0 0 0 0 0 0 0 0 0 0 0 0 0 0 0 0 127 0"/><feOffset dx="-.25" dy=".25"/><feGaussianBlur stdDeviation=".25"/><feComposite in2="hardAlpha" k2="-1" k3="1" operator="arithmetic"/><feColorMatrix values="0 0 0 0 0.0705882 0 0 0 0 0.466667 0 0 0 0 0.815686 0 0 0 1 0"/><feBlend in2="shape" result="effect1_innerShadow_18_6399"/></filter><filter id="filter8_i_18_6399" width="2.293" height="3.237" x="3.799" y="11.034" color-interpolation-filters="sRGB" filterUnits="userSpaceOnUse"><feFlood flood-opacity="0" result="BackgroundImageFix"/><feBlend in="SourceGraphic" in2="BackgroundImageFix" result="shape"/><feColorMatrix in="SourceAlpha" result="hardAlpha" values="0 0 0 0 0 0 0 0 0 0 0 0 0 0 0 0 0 0 127 0"/><feOffset dx="-.25" dy=".25"/><feGaussianBlur stdDeviation=".25"/><feComposite in2="hardAlpha" k2="-1" k3="1" operator="arithmetic"/><feColorMatrix values="0 0 0 0 0.0705882 0 0 0 0 0.466667 0 0 0 0 0.815686 0 0 0 1 0"/><feBlend in2="shape" result="effect1_innerShadow_18_6399"/></filter><filter id="filter9_i_18_6399" width="2.293" height="3.237" x="6.771" y="11.034" color-interpolation-filters="sRGB" filterUnits="userSpaceOnUse"><feFlood flood-opacity="0" result="BackgroundImageFix"/><feBlend in="SourceGraphic" in2="BackgroundImageFix" result="shape"/><feColorMatrix in="SourceAlpha" result="hardAlpha" values="0 0 0 0 0 0 0 0 0 0 0 0 0 0 0 0 0 0 127 0"/><feOffset dx="-.25" dy=".25"/><feGaussianBlur stdDeviation=".25"/><feComposite in2="hardAlpha" k2="-1" k3="1" operator="arithmetic"/><feColorMatrix values="0 0 0 0 0.0705882 0 0 0 0 0.466667 0 0 0 0 0.815686 0 0 0 1 0"/><feBlend in2="shape" result="effect1_innerShadow_18_6399"/></filter><filter id="filter10_i_18_6399" width="2.293" height="3.237" x="3.799" y="16" color-interpolation-filters="sRGB" filterUnits="userSpaceOnUse"><feFlood flood-opacity="0" result="BackgroundImageFix"/><feBlend in="SourceGraphic" in2="BackgroundImageFix" result="shape"/><feColorMatrix in="SourceAlpha" result="hardAlpha" values="0 0 0 0 0 0 0 0 0 0 0 0 0 0 0 0 0 0 127 0"/><feOffset dx="-.25" dy=".25"/><feGaussianBlur stdDeviation=".25"/><feComposite in2="hardAlpha" k2="-1" k3="1" operator="arithmetic"/><feColorMatrix values="0 0 0 0 0.0705882 0 0 0 0 0.466667 0 0 0 0 0.815686 0 0 0 1 0"/><feBlend in2="shape" result="effect1_innerShadow_18_6399"/></filter><filter id="filter11_i_18_6399" width="2.293" height="3.237" x="6.771" y="16" color-interpolation-filters="sRGB" filterUnits="userSpaceOnUse"><feFlood flood-opacity="0" result="BackgroundImageFix"/><feBlend in="SourceGraphic" in2="BackgroundImageFix" result="shape"/><feColorMatrix in="SourceAlpha" result="hardAlpha" values="0 0 0 0 0 0 0 0 0 0 0 0 0 0 0 0 0 0 127 0"/><feOffset dx="-.25" dy=".25"/><feGaussianBlur stdDeviation=".25"/><feComposite in2="hardAlpha" k2="-1" k3="1" operator="arithmetic"/><feColorMatrix values="0 0 0 0 0.0705882 0 0 0 0 0.466667 0 0 0 0 0.815686 0 0 0 1 0"/><feBlend in2="shape" result="effect1_innerShadow_18_6399"/></filter><filter id="filter12_i_18_6399" width="2.293" height="3.237" x="3.799" y="20.966" color-interpolation-filters="sRGB" filterUnits="userSpaceOnUse"><feFlood flood-opacity="0" result="BackgroundImageFix"/><feBlend in="SourceGraphic" in2="BackgroundImageFix" result="shape"/><feColorMatrix in="SourceAlpha" result="hardAlpha" values="0 0 0 0 0 0 0 0 0 0 0 0 0 0 0 0 0 0 127 0"/><feOffset dx="-.25" dy=".25"/><feGaussianBlur stdDeviation=".25"/><feComposite in2="hardAlpha" k2="-1" k3="1" operator="arithmetic"/><feColorMatrix values="0 0 0 0 0.0705882 0 0 0 0 0.466667 0 0 0 0 0.815686 0 0 0 1 0"/><feBlend in2="shape" result="effect1_innerShadow_18_6399"/></filter><filter id="filter13_i_18_6399" width="2.293" height="3.237" x="6.771" y="20.966" color-interpolation-filters="sRGB" filterUnits="userSpaceOnUse"><feFlood flood-opacity="0" result="BackgroundImageFix"/><feBlend in="SourceGraphic" in2="BackgroundImageFix" result="shape"/><feColorMatrix in="SourceAlpha" result="hardAlpha" values="0 0 0 0 0 0 0 0 0 0 0 0 0 0 0 0 0 0 127 0"/><feOffset dx="-.25" dy=".25"/><feGaussianBlur stdDeviation=".25"/><feComposite in2="hardAlpha" k2="-1" k3="1" operator="arithmetic"/><feColorMatrix values="0 0 0 0 0.0705882 0 0 0 0 0.466667 0 0 0 0 0.815686 0 0 0 1 0"/><feBlend in2="shape" result="effect1_innerShadow_18_6399"/></filter><filter id="filter14_i_18_6399" width="2.293" height="3.237" x="22.685" y="11.034" color-interpolation-filters="sRGB" filterUnits="userSpaceOnUse"><feFlood flood-opacity="0" result="BackgroundImageFix"/><feBlend in="SourceGraphic" in2="BackgroundImageFix" result="shape"/><feColorMatrix in="SourceAlpha" result="hardAlpha" values="0 0 0 0 0 0 0 0 0 0 0 0 0 0 0 0 0 0 127 0"/><feOffset dx="-.25" dy=".25"/><feGaussianBlur stdDeviation=".25"/><feComposite in2="hardAlpha" k2="-1" k3="1" operator="arithmetic"/><feColorMatrix values="0 0 0 0 0.0705882 0 0 0 0 0.466667 0 0 0 0 0.815686 0 0 0 1 0"/><feBlend in2="shape" result="effect1_innerShadow_18_6399"/></filter><filter id="filter15_i_18_6399" width="2.293" height="3.237" x="25.658" y="11.034" color-interpolation-filters="sRGB" filterUnits="userSpaceOnUse"><feFlood flood-opacity="0" result="BackgroundImageFix"/><feBlend in="SourceGraphic" in2="BackgroundImageFix" result="shape"/><feColorMatrix in="SourceAlpha" result="hardAlpha" values="0 0 0 0 0 0 0 0 0 0 0 0 0 0 0 0 0 0 127 0"/><feOffset dx="-.25" dy=".25"/><feGaussianBlur stdDeviation=".25"/><feComposite in2="hardAlpha" k2="-1" k3="1" operator="arithmetic"/><feColorMatrix values="0 0 0 0 0.0705882 0 0 0 0 0.466667 0 0 0 0 0.815686 0 0 0 1 0"/><feBlend in2="shape" result="effect1_innerShadow_18_6399"/></filter><filter id="filter16_i_18_6399" width="2.293" height="3.237" x="22.685" y="16" color-interpolation-filters="sRGB" filterUnits="userSpaceOnUse"><feFlood flood-opacity="0" result="BackgroundImageFix"/><feBlend in="SourceGraphic" in2="BackgroundImageFix" result="shape"/><feColorMatrix in="SourceAlpha" result="hardAlpha" values="0 0 0 0 0 0 0 0 0 0 0 0 0 0 0 0 0 0 127 0"/><feOffset dx="-.25" dy=".25"/><feGaussianBlur stdDeviation=".25"/><feComposite in2="hardAlpha" k2="-1" k3="1" operator="arithmetic"/><feColorMatrix values="0 0 0 0 0.0705882 0 0 0 0 0.466667 0 0 0 0 0.815686 0 0 0 1 0"/><feBlend in2="shape" result="effect1_innerShadow_18_6399"/></filter><filter id="filter17_i_18_6399" width="2.293" height="3.237" x="25.658" y="16" color-interpolation-filters="sRGB" filterUnits="userSpaceOnUse"><feFlood flood-opacity="0" result="BackgroundImageFix"/><feBlend in="SourceGraphic" in2="BackgroundImageFix" result="shape"/><feColorMatrix in="SourceAlpha" result="hardAlpha" values="0 0 0 0 0 0 0 0 0 0 0 0 0 0 0 0 0 0 127 0"/><feOffset dx="-.25" dy=".25"/><feGaussianBlur stdDeviation=".25"/><feComposite in2="hardAlpha" k2="-1" k3="1" operator="arithmetic"/><feColorMatrix values="0 0 0 0 0.0705882 0 0 0 0 0.466667 0 0 0 0 0.815686 0 0 0 1 0"/><feBlend in2="shape" result="effect1_innerShadow_18_6399"/></filter><filter id="filter18_i_18_6399" width="2.293" height="3.237" x="22.685" y="20.966" color-interpolation-filters="sRGB" filterUnits="userSpaceOnUse"><feFlood flood-opacity="0" result="BackgroundImageFix"/><feBlend in="SourceGraphic" in2="BackgroundImageFix" result="shape"/><feColorMatrix in="SourceAlpha" result="hardAlpha" values="0 0 0 0 0 0 0 0 0 0 0 0 0 0 0 0 0 0 127 0"/><feOffset dx="-.25" dy=".25"/><feGaussianBlur stdDeviation=".25"/><feComposite in2="hardAlpha" k2="-1" k3="1" operator="arithmetic"/><feColorMatrix values="0 0 0 0 0.0705882 0 0 0 0 0.466667 0 0 0 0 0.815686 0 0 0 1 0"/><feBlend in2="shape" result="effect1_innerShadow_18_6399"/></filter><filter id="filter19_i_18_6399" width="2.293" height="3.237" x="25.658" y="20.966" color-interpolation-filters="sRGB" filterUnits="userSpaceOnUse"><feFlood flood-opacity="0" result="BackgroundImageFix"/><feBlend in="SourceGraphic" in2="BackgroundImageFix" result="shape"/><feColorMatrix in="SourceAlpha" result="hardAlpha" values="0 0 0 0 0 0 0 0 0 0 0 0 0 0 0 0 0 0 127 0"/><feOffset dx="-.25" dy=".25"/><feGaussianBlur stdDeviation=".25"/><feComposite in2="hardAlpha" k2="-1" k3="1" operator="arithmetic"/><feColorMatrix values="0 0 0 0 0.0705882 0 0 0 0 0.466667 0 0 0 0 0.815686 0 0 0 1 0"/><feBlend in2="shape" result="effect1_innerShadow_18_6399"/></filter><filter id="filter20_f_18_6399" width="6.192" height="3.61" x="15.061" y="2.102" color-interpolation-filters="sRGB" filterUnits="userSpaceOnUse"><feFlood flood-opacity="0" result="BackgroundImageFix"/><feBlend in="SourceGraphic" in2="BackgroundImageFix" result="shape"/><feGaussianBlur result="effect1_foregroundBlur_18_6399" stdDeviation=".125"/></filter><filter id="filter21_f_18_6399" width="7.864" height="6.095" x="14.127" y="2.08" color-interpolation-filters="sRGB" filterUnits="userSpaceOnUse"><feFlood flood-opacity="0" result="BackgroundImageFix"/><feBlend in="SourceGraphic" in2="BackgroundImageFix" result="shape"/><feGaussianBlur result="effect1_foregroundBlur_18_6399" stdDeviation=".15"/></filter><filter id="filter22_i_18_6399" width="28.08" height="6.12" x="2.01" y="1.873" color-interpolation-filters="sRGB" filterUnits="userSpaceOnUse"><feFlood flood-opacity="0" result="BackgroundImageFix"/><feBlend in="SourceGraphic" in2="BackgroundImageFix" result="shape"/><feColorMatrix in="SourceAlpha" result="hardAlpha" values="0 0 0 0 0 0 0 0 0 0 0 0 0 0 0 0 0 0 127 0"/><feOffset dx=".1" dy="-.1"/><feGaussianBlur stdDeviation=".15"/><feComposite in2="hardAlpha" k2="-1" k3="1" operator="arithmetic"/><feColorMatrix values="0 0 0 0 0.764706 0 0 0 0 0.141176 0 0 0 0 0.141176 0 0 0 1 0"/><feBlend in2="shape" result="effect1_innerShadow_18_6399"/></filter><radialGradient id="paint5_radial_18_6399" cx="0" cy="0" r="1" gradientTransform="rotate(-105.524 17.053 11.38) scale(2.17976 1.10367)" gradientUnits="userSpaceOnUse"><stop stop-color="#BA615F"/><stop offset="1" stop-color="#BA615F" stop-opacity="0"/></radialGradient><radialGradient id="paint9_radial_18_6399" cx="0" cy="0" r="1" gradientTransform="matrix(7.5 -3.21875 4.98246 11.6096 10.01 25.598)" gradientUnits="userSpaceOnUse"><stop stop-color="#DB8D81"/><stop offset="1" stop-color="#DB8D81" stop-opacity="0"/></radialGradient><radialGradient id="paint13_radial_18_6399" cx="0" cy="0" r="1" gradientTransform="matrix(0 1.21348 -5.81019 0 16.01 20.657)" gradientUnits="userSpaceOnUse"><stop offset=".224" stop-color="#9C4539"/><stop offset="1" stop-color="#9C4539" stop-opacity="0"/></radialGradient><radialGradient id="paint22_radial_18_6399" cx="0" cy="0" r="1" gradientTransform="matrix(0 3.78057 -5.84427 0 16.01 17.763)" gradientUnits="userSpaceOnUse"><stop stop-color="#FF6B2D"/><stop offset="1" stop-color="#C12C2C"/></radialGradient><radialGradient id="paint23_radial_18_6399" cx="0" cy="0" r="1" gradientTransform="matrix(0 -1.75953 5.0015 0 18.478 20.973)" gradientUnits="userSpaceOnUse"><stop stop-color="#FA4D54"/><stop offset="1" stop-color="#FA4D54" stop-opacity="0"/></radialGradient><radialGradient id="paint25_radial_18_6399" cx="0" cy="0" r="1" gradientTransform="rotate(110.674 2.142 13.826) scale(5.07676 14.2339)" gradientUnits="userSpaceOnUse"><stop offset=".58" stop-color="#C61734" stop-opacity="0"/><stop offset="1" stop-color="#C61734"/></radialGradient><radialGradient id="paint54_radial_18_6399" cx="0" cy="0" r="1" gradientTransform="matrix(-.69302 1.3214 -3.50406 -1.83772 18.686 3.022)" gradientUnits="userSpaceOnUse"><stop stop-color="#F87B42"/><stop offset="1" stop-color="#F87B42" stop-opacity="0"/></radialGradient><radialGradient id="paint55_radial_18_6399" cx="0" cy="0" r="1" gradientTransform="rotate(96.009 8.148 9.557) scale(4.9312 16.0652)" gradientUnits="userSpaceOnUse"><stop stop-color="#F05F3A"/><stop offset="1" stop-color="#E94239"/></radialGradient></defs></svg>