<svg xmlns="http://www.w3.org/2000/svg" width="32" height="32" fill="none" viewBox="0 0 32 32"><g filter="url(#filter0_i_18_26328)"><path fill="url(#paint0_linear_18_26328)" d="M14.854 6.808a5.015 5.015 0 0 1 7.084 0l5.035 5.027c.052.052.102.104.15.156h1.275v3.233c-.005 1.218-.486 2.44-1.425 3.424-.842.881-1.596 1.368-2.56 1.99-.575.37-1.225.79-2.012 1.37a6.136 6.136 0 0 0-1.64 1.623c-.193.311-.384.633-.577.96-.759 1.28-1.554 2.622-2.619 3.616-2.155 2.013-5.413 2.053-7.53 0L5.318 23.63a4.98 4.98 0 0 1-1.516-3.436H3.8v-3.499h1.29a2.95 2.95 0 0 1 .095-.102l.896-.938a6.008 6.008 0 0 1 1.195-.966l1.58-.972a10.01 10.01 0 0 0 3.088-2.982l1.689-2.54c.22-.333.475-.642.757-.925l.464-.463Z"/><path fill="url(#paint1_linear_18_26328)" d="M14.854 6.808a5.015 5.015 0 0 1 7.084 0l5.035 5.027c.052.052.102.104.15.156h1.275v3.233c-.005 1.218-.486 2.44-1.425 3.424-.842.881-1.596 1.368-2.56 1.99-.575.37-1.225.79-2.012 1.37a6.136 6.136 0 0 0-1.64 1.623c-.193.311-.384.633-.577.96-.759 1.28-1.554 2.622-2.619 3.616-2.155 2.013-5.413 2.053-7.53 0L5.318 23.63a4.98 4.98 0 0 1-1.516-3.436H3.8v-3.499h1.29a2.95 2.95 0 0 1 .095-.102l.896-.938a6.008 6.008 0 0 1 1.195-.966l1.58-.972a10.01 10.01 0 0 0 3.088-2.982l1.689-2.54c.22-.333.475-.642.757-.925l.464-.463Z"/><path fill="url(#paint2_radial_18_26328)" d="M14.854 6.808a5.015 5.015 0 0 1 7.084 0l5.035 5.027c.052.052.102.104.15.156h1.275v3.233c-.005 1.218-.486 2.44-1.425 3.424-.842.881-1.596 1.368-2.56 1.99-.575.37-1.225.79-2.012 1.37a6.136 6.136 0 0 0-1.64 1.623c-.193.311-.384.633-.577.96-.759 1.28-1.554 2.622-2.619 3.616-2.155 2.013-5.413 2.053-7.53 0L5.318 23.63a4.98 4.98 0 0 1-1.516-3.436H3.8v-3.499h1.29a2.95 2.95 0 0 1 .095-.102l.896-.938a6.008 6.008 0 0 1 1.195-.966l1.58-.972a10.01 10.01 0 0 0 3.088-2.982l1.689-2.54c.22-.333.475-.642.757-.925l.464-.463Z"/><path fill="url(#paint3_radial_18_26328)" d="M14.854 6.808a5.015 5.015 0 0 1 7.084 0l5.035 5.027c.052.052.102.104.15.156h1.275v3.233c-.005 1.218-.486 2.44-1.425 3.424-.842.881-1.596 1.368-2.56 1.99-.575.37-1.225.79-2.012 1.37a6.136 6.136 0 0 0-1.64 1.623c-.193.311-.384.633-.577.96-.759 1.28-1.554 2.622-2.619 3.616-2.155 2.013-5.413 2.053-7.53 0L5.318 23.63a4.98 4.98 0 0 1-1.516-3.436H3.8v-3.499h1.29a2.95 2.95 0 0 1 .095-.102l.896-.938a6.008 6.008 0 0 1 1.195-.966l1.58-.972a10.01 10.01 0 0 0 3.088-2.982l1.689-2.54c.22-.333.475-.642.757-.925l.464-.463Z"/></g><g filter="url(#filter1_ii_18_26328)"><path fill="url(#paint4_linear_18_26328)" d="M14.836 3.342a5 5 0 0 1 7.07 0l5.028 5.027a5 5 0 0 1 .083 6.986c-.48.504-.948 1.01-1.53 1.402l-3.133 2.113a6 6 0 0 0-1.614 1.611c-.968 1.43-1.824 3.14-3.098 4.332a5.52 5.52 0 0 1-7.617-.072l-4.71-4.576a5 5 0 0 1-.133-7.037c.653-.685 1.275-1.403 2.088-1.904l1.576-.972A10 10 0 0 0 11.93 7.27l1.686-2.54c.345-.52.782-.95 1.22-1.388Z"/></g><g filter="url(#filter2_f_18_26328)"><circle cx="9.557" cy="15.83" r="1.818" fill="#EA9457"/></g><g filter="url(#filter3_f_18_26328)"><circle cx="22.901" cy="12.023" r="1.754" fill="#E9A759"/></g><g filter="url(#filter4_f_18_26328)"><circle cx="22.901" cy="12.023" r="1.52" fill="url(#paint5_radial_18_26328)"/><circle cx="22.901" cy="12.023" r="1.57" stroke="url(#paint6_linear_18_26328)" stroke-width=".1"/></g><g filter="url(#filter5_f_18_26328)"><circle cx="16.76" cy="6.282" r="1.015" fill="#E9A759"/></g><g filter="url(#filter6_f_18_26328)"><circle cx="8.889" cy="20.083" r="1.168" fill="#EF8F59"/></g><g filter="url(#filter7_f_18_26328)"><circle cx="16.099" cy="12.832" r=".996" fill="#EAA054"/></g><g filter="url(#filter8_f_18_26328)"><circle cx="11.226" cy="12.832" r=".957" fill="#E7984C"/></g><g filter="url(#filter9_f_18_26328)"><circle cx="13.668" cy="21.359" r="1.152" fill="#F1955A"/></g><g filter="url(#filter10_f_18_26328)"><circle cx="15.458" cy="17.191" r="1.797" fill="#ED9C56"/></g><g filter="url(#filter11_f_18_26328)"><circle cx="15.458" cy="17.191" r="1.467" fill="url(#paint7_radial_18_26328)"/><circle cx="15.458" cy="17.191" r="1.517" stroke="url(#paint8_linear_18_26328)" stroke-width=".1"/></g><g filter="url(#filter12_f_18_26328)"><circle cx="9.557" cy="15.83" r="1.467" fill="url(#paint9_radial_18_26328)"/><circle cx="9.557" cy="15.83" r="1.517" stroke="url(#paint10_linear_18_26328)" stroke-width=".1"/></g><g filter="url(#filter13_f_18_26328)"><circle cx="16.76" cy="6.282" r=".76" fill="url(#paint11_radial_18_26328)"/><circle cx="16.76" cy="6.282" r=".81" stroke="url(#paint12_linear_18_26328)" stroke-width=".1"/></g><g filter="url(#filter14_f_18_26328)"><circle cx="22.736" cy="8.685" r=".994" fill="#E9A759"/></g><g filter="url(#filter15_f_18_26328)"><circle cx="20.228" cy="16" r="1.035" fill="#ED9C56"/></g><g filter="url(#filter16_f_18_26328)"><circle cx="18.488" cy="9.291" r=".936" fill="#E9A759"/></g><g filter="url(#filter17_f_18_26328)"><circle cx="22.736" cy="8.685" r=".76" fill="url(#paint13_radial_18_26328)"/><circle cx="22.736" cy="8.685" r=".81" stroke="url(#paint14_linear_18_26328)" stroke-width=".1"/></g><g filter="url(#filter18_f_18_26328)"><circle cx="18.488" cy="9.291" r=".712" fill="url(#paint15_radial_18_26328)"/><circle cx="18.488" cy="9.291" r=".762" stroke="url(#paint16_linear_18_26328)" stroke-width=".1"/></g><g filter="url(#filter19_f_18_26328)"><circle cx="11.226" cy="12.832" r=".744" fill="url(#paint17_radial_18_26328)"/><circle cx="11.226" cy="12.832" r=".794" stroke="url(#paint18_linear_18_26328)" stroke-width=".1"/></g><g filter="url(#filter20_f_18_26328)"><circle cx="16.099" cy="12.832" r=".744" fill="url(#paint19_radial_18_26328)"/><circle cx="16.099" cy="12.832" r=".794" stroke="url(#paint20_linear_18_26328)" stroke-width=".1"/></g><g filter="url(#filter21_f_18_26328)"><circle cx="20.228" cy="16" r=".744" fill="url(#paint21_radial_18_26328)"/><circle cx="20.228" cy="16" r=".794" stroke="url(#paint22_linear_18_26328)" stroke-width=".1"/></g><g filter="url(#filter22_f_18_26328)"><circle cx="13.668" cy="21.359" r=".744" fill="url(#paint23_radial_18_26328)"/><circle cx="13.668" cy="21.359" r=".794" stroke="url(#paint24_linear_18_26328)" stroke-width=".1"/></g><g filter="url(#filter23_f_18_26328)"><circle cx="8.889" cy="20.083" r=".744" fill="url(#paint25_radial_18_26328)"/><circle cx="8.889" cy="20.083" r=".794" stroke="url(#paint26_linear_18_26328)" stroke-width=".1"/></g><defs><filter id="filter0_i_18_26328" width="24.598" height="24.638" x="3.8" y="5.094" color-interpolation-filters="sRGB" filterUnits="userSpaceOnUse"><feFlood flood-opacity="0" result="BackgroundImageFix"/><feBlend in="SourceGraphic" in2="BackgroundImageFix" result="shape"/><feColorMatrix in="SourceAlpha" result="hardAlpha" values="0 0 0 0 0 0 0 0 0 0 0 0 0 0 0 0 0 0 127 0"/><feOffset dy="-.25"/><feGaussianBlur stdDeviation=".25"/><feComposite in2="hardAlpha" k2="-1" k3="1" operator="arithmetic"/><feColorMatrix values="0 0 0 0 0.941176 0 0 0 0 0.52549 0 0 0 0 0.596078 0 0 0 1 0"/><feBlend in2="shape" result="effect1_innerShadow_18_26328"/></filter><filter id="filter1_ii_18_26328" width="25.098" height="24.924" x="3.55" y="1.627" color-interpolation-filters="sRGB" filterUnits="userSpaceOnUse"><feFlood flood-opacity="0" result="BackgroundImageFix"/><feBlend in="SourceGraphic" in2="BackgroundImageFix" result="shape"/><feColorMatrix in="SourceAlpha" result="hardAlpha" values="0 0 0 0 0 0 0 0 0 0 0 0 0 0 0 0 0 0 127 0"/><feOffset dx=".25" dy="-.25"/><feGaussianBlur stdDeviation=".25"/><feComposite in2="hardAlpha" k2="-1" k3="1" operator="arithmetic"/><feColorMatrix values="0 0 0 0 0.933333 0 0 0 0 0.509804 0 0 0 0 0.337255 0 0 0 1 0"/><feBlend in2="shape" result="effect1_innerShadow_18_26328"/><feColorMatrix in="SourceAlpha" result="hardAlpha" values="0 0 0 0 0 0 0 0 0 0 0 0 0 0 0 0 0 0 127 0"/><feOffset dx="-.25" dy=".25"/><feGaussianBlur stdDeviation=".25"/><feComposite in2="hardAlpha" k2="-1" k3="1" operator="arithmetic"/><feColorMatrix values="0 0 0 0 1 0 0 0 0 0.847059 0 0 0 0 0.356863 0 0 0 1 0"/><feBlend in2="effect1_innerShadow_18_26328" result="effect2_innerShadow_18_26328"/></filter><filter id="filter2_f_18_26328" width="5.636" height="5.636" x="6.738" y="13.012" color-interpolation-filters="sRGB" filterUnits="userSpaceOnUse"><feFlood flood-opacity="0" result="BackgroundImageFix"/><feBlend in="SourceGraphic" in2="BackgroundImageFix" result="shape"/><feGaussianBlur result="effect1_foregroundBlur_18_26328" stdDeviation=".5"/></filter><filter id="filter3_f_18_26328" width="5.509" height="5.509" x="20.146" y="9.269" color-interpolation-filters="sRGB" filterUnits="userSpaceOnUse"><feFlood flood-opacity="0" result="BackgroundImageFix"/><feBlend in="SourceGraphic" in2="BackgroundImageFix" result="shape"/><feGaussianBlur result="effect1_foregroundBlur_18_26328" stdDeviation=".5"/></filter><filter id="filter4_f_18_26328" width="3.441" height="3.441" x="21.18" y="10.303" color-interpolation-filters="sRGB" filterUnits="userSpaceOnUse"><feFlood flood-opacity="0" result="BackgroundImageFix"/><feBlend in="SourceGraphic" in2="BackgroundImageFix" result="shape"/><feGaussianBlur result="effect1_foregroundBlur_18_26328" stdDeviation=".05"/></filter><filter id="filter5_f_18_26328" width="4.031" height="4.031" x="14.745" y="4.266" color-interpolation-filters="sRGB" filterUnits="userSpaceOnUse"><feFlood flood-opacity="0" result="BackgroundImageFix"/><feBlend in="SourceGraphic" in2="BackgroundImageFix" result="shape"/><feGaussianBlur result="effect1_foregroundBlur_18_26328" stdDeviation=".5"/></filter><filter id="filter6_f_18_26328" width="4.335" height="4.335" x="6.721" y="17.915" color-interpolation-filters="sRGB" filterUnits="userSpaceOnUse"><feFlood flood-opacity="0" result="BackgroundImageFix"/><feBlend in="SourceGraphic" in2="BackgroundImageFix" result="shape"/><feGaussianBlur result="effect1_foregroundBlur_18_26328" stdDeviation=".5"/></filter><filter id="filter7_f_18_26328" width="3.992" height="3.992" x="14.103" y="10.836" color-interpolation-filters="sRGB" filterUnits="userSpaceOnUse"><feFlood flood-opacity="0" result="BackgroundImageFix"/><feBlend in="SourceGraphic" in2="BackgroundImageFix" result="shape"/><feGaussianBlur result="effect1_foregroundBlur_18_26328" stdDeviation=".5"/></filter><filter id="filter8_f_18_26328" width="3.914" height="3.914" x="9.269" y="10.874" color-interpolation-filters="sRGB" filterUnits="userSpaceOnUse"><feFlood flood-opacity="0" result="BackgroundImageFix"/><feBlend in="SourceGraphic" in2="BackgroundImageFix" result="shape"/><feGaussianBlur result="effect1_foregroundBlur_18_26328" stdDeviation=".5"/></filter><filter id="filter9_f_18_26328" width="4.303" height="4.304" x="11.516" y="19.207" color-interpolation-filters="sRGB" filterUnits="userSpaceOnUse"><feFlood flood-opacity="0" result="BackgroundImageFix"/><feBlend in="SourceGraphic" in2="BackgroundImageFix" result="shape"/><feGaussianBlur result="effect1_foregroundBlur_18_26328" stdDeviation=".5"/></filter><filter id="filter10_f_18_26328" width="5.594" height="5.594" x="12.661" y="14.394" color-interpolation-filters="sRGB" filterUnits="userSpaceOnUse"><feFlood flood-opacity="0" result="BackgroundImageFix"/><feBlend in="SourceGraphic" in2="BackgroundImageFix" result="shape"/><feGaussianBlur result="effect1_foregroundBlur_18_26328" stdDeviation=".5"/></filter><filter id="filter11_f_18_26328" width="3.335" height="3.335" x="13.79" y="15.524" color-interpolation-filters="sRGB" filterUnits="userSpaceOnUse"><feFlood flood-opacity="0" result="BackgroundImageFix"/><feBlend in="SourceGraphic" in2="BackgroundImageFix" result="shape"/><feGaussianBlur result="effect1_foregroundBlur_18_26328" stdDeviation=".05"/></filter><filter id="filter12_f_18_26328" width="3.335" height="3.335" x="7.889" y="14.162" color-interpolation-filters="sRGB" filterUnits="userSpaceOnUse"><feFlood flood-opacity="0" result="BackgroundImageFix"/><feBlend in="SourceGraphic" in2="BackgroundImageFix" result="shape"/><feGaussianBlur result="effect1_foregroundBlur_18_26328" stdDeviation=".05"/></filter><filter id="filter13_f_18_26328" width="1.92" height="1.92" x="15.8" y="5.321" color-interpolation-filters="sRGB" filterUnits="userSpaceOnUse"><feFlood flood-opacity="0" result="BackgroundImageFix"/><feBlend in="SourceGraphic" in2="BackgroundImageFix" result="shape"/><feGaussianBlur result="effect1_foregroundBlur_18_26328" stdDeviation=".05"/></filter><filter id="filter14_f_18_26328" width="3.988" height="3.988" x="20.742" y="6.691" color-interpolation-filters="sRGB" filterUnits="userSpaceOnUse"><feFlood flood-opacity="0" result="BackgroundImageFix"/><feBlend in="SourceGraphic" in2="BackgroundImageFix" result="shape"/><feGaussianBlur result="effect1_foregroundBlur_18_26328" stdDeviation=".5"/></filter><filter id="filter15_f_18_26328" width="4.07" height="4.07" x="18.194" y="13.965" color-interpolation-filters="sRGB" filterUnits="userSpaceOnUse"><feFlood flood-opacity="0" result="BackgroundImageFix"/><feBlend in="SourceGraphic" in2="BackgroundImageFix" result="shape"/><feGaussianBlur result="effect1_foregroundBlur_18_26328" stdDeviation=".5"/></filter><filter id="filter16_f_18_26328" width="3.871" height="3.871" x="16.552" y="7.355" color-interpolation-filters="sRGB" filterUnits="userSpaceOnUse"><feFlood flood-opacity="0" result="BackgroundImageFix"/><feBlend in="SourceGraphic" in2="BackgroundImageFix" result="shape"/><feGaussianBlur result="effect1_foregroundBlur_18_26328" stdDeviation=".5"/></filter><filter id="filter17_f_18_26328" width="1.92" height="1.92" x="21.776" y="7.724" color-interpolation-filters="sRGB" filterUnits="userSpaceOnUse"><feFlood flood-opacity="0" result="BackgroundImageFix"/><feBlend in="SourceGraphic" in2="BackgroundImageFix" result="shape"/><feGaussianBlur result="effect1_foregroundBlur_18_26328" stdDeviation=".05"/></filter><filter id="filter18_f_18_26328" width="1.825" height="1.825" x="17.576" y="8.378" color-interpolation-filters="sRGB" filterUnits="userSpaceOnUse"><feFlood flood-opacity="0" result="BackgroundImageFix"/><feBlend in="SourceGraphic" in2="BackgroundImageFix" result="shape"/><feGaussianBlur result="effect1_foregroundBlur_18_26328" stdDeviation=".05"/></filter><filter id="filter19_f_18_26328" width="1.889" height="1.889" x="10.282" y="11.887" color-interpolation-filters="sRGB" filterUnits="userSpaceOnUse"><feFlood flood-opacity="0" result="BackgroundImageFix"/><feBlend in="SourceGraphic" in2="BackgroundImageFix" result="shape"/><feGaussianBlur result="effect1_foregroundBlur_18_26328" stdDeviation=".05"/></filter><filter id="filter20_f_18_26328" width="1.889" height="1.889" x="15.155" y="11.887" color-interpolation-filters="sRGB" filterUnits="userSpaceOnUse"><feFlood flood-opacity="0" result="BackgroundImageFix"/><feBlend in="SourceGraphic" in2="BackgroundImageFix" result="shape"/><feGaussianBlur result="effect1_foregroundBlur_18_26328" stdDeviation=".05"/></filter><filter id="filter21_f_18_26328" width="1.889" height="1.889" x="19.284" y="15.056" color-interpolation-filters="sRGB" filterUnits="userSpaceOnUse"><feFlood flood-opacity="0" result="BackgroundImageFix"/><feBlend in="SourceGraphic" in2="BackgroundImageFix" result="shape"/><feGaussianBlur result="effect1_foregroundBlur_18_26328" stdDeviation=".05"/></filter><filter id="filter22_f_18_26328" width="1.889" height="1.889" x="12.724" y="20.415" color-interpolation-filters="sRGB" filterUnits="userSpaceOnUse"><feFlood flood-opacity="0" result="BackgroundImageFix"/><feBlend in="SourceGraphic" in2="BackgroundImageFix" result="shape"/><feGaussianBlur result="effect1_foregroundBlur_18_26328" stdDeviation=".05"/></filter><filter id="filter23_f_18_26328" width="1.889" height="1.889" x="7.944" y="19.139" color-interpolation-filters="sRGB" filterUnits="userSpaceOnUse"><feFlood flood-opacity="0" result="BackgroundImageFix"/><feBlend in="SourceGraphic" in2="BackgroundImageFix" result="shape"/><feGaussianBlur result="effect1_foregroundBlur_18_26328" stdDeviation=".05"/></filter><linearGradient id="paint0_linear_18_26328" x1="27.558" x2="10.758" y1="16.479" y2="28.174" gradientUnits="userSpaceOnUse"><stop stop-color="#EFA764"/><stop offset="1" stop-color="#EE857D"/></linearGradient><linearGradient id="paint1_linear_18_26328" x1="3.4" x2="5.952" y1="19.115" y2="19.115" gradientUnits="userSpaceOnUse"><stop stop-color="#F5B692"/><stop offset=".987" stop-color="#F5B692" stop-opacity="0"/></linearGradient><linearGradient id="paint4_linear_18_26328" x1="24.538" x2="7.611" y1="5.548" y2="21.497" gradientUnits="userSpaceOnUse"><stop stop-color="#F7C452"/><stop offset="1" stop-color="#FC9B5B"/></linearGradient><linearGradient id="paint6_linear_18_26328" x1="21.38" x2="23.135" y1="13.118" y2="12.023" gradientUnits="userSpaceOnUse"><stop stop-color="#F4B857"/><stop offset="1" stop-color="#F4B857" stop-opacity="0"/></linearGradient><linearGradient id="paint8_linear_18_26328" x1="13.99" x2="15.684" y1="18.248" y2="17.191" gradientUnits="userSpaceOnUse"><stop stop-color="#F4B857"/><stop offset="1" stop-color="#F4B857" stop-opacity="0"/></linearGradient><linearGradient id="paint10_linear_18_26328" x1="8.089" x2="9.782" y1="16.887" y2="15.83" gradientUnits="userSpaceOnUse"><stop stop-color="#F4B857"/><stop offset="1" stop-color="#F4B857" stop-opacity="0"/></linearGradient><linearGradient id="paint12_linear_18_26328" x1="16" x2="16.877" y1="6.829" y2="6.282" gradientUnits="userSpaceOnUse"><stop stop-color="#F4B857"/><stop offset="1" stop-color="#F4B857" stop-opacity="0"/></linearGradient><linearGradient id="paint14_linear_18_26328" x1="21.976" x2="22.853" y1="9.232" y2="8.685" gradientUnits="userSpaceOnUse"><stop stop-color="#F4B857"/><stop offset="1" stop-color="#F4B857" stop-opacity="0"/></linearGradient><linearGradient id="paint16_linear_18_26328" x1="17.776" x2="18.598" y1="9.804" y2="9.291" gradientUnits="userSpaceOnUse"><stop stop-color="#F4B857"/><stop offset="1" stop-color="#F4B857" stop-opacity="0"/></linearGradient><linearGradient id="paint18_linear_18_26328" x1="10.482" x2="11.34" y1="13.368" y2="12.832" gradientUnits="userSpaceOnUse"><stop stop-color="#F4B857"/><stop offset="1" stop-color="#F4B857" stop-opacity="0"/></linearGradient><linearGradient id="paint20_linear_18_26328" x1="15.355" x2="16.214" y1="13.368" y2="12.832" gradientUnits="userSpaceOnUse"><stop stop-color="#F4B857"/><stop offset="1" stop-color="#F4B857" stop-opacity="0"/></linearGradient><linearGradient id="paint22_linear_18_26328" x1="19.484" x2="20.343" y1="16.536" y2="16" gradientUnits="userSpaceOnUse"><stop stop-color="#F4B857"/><stop offset="1" stop-color="#F4B857" stop-opacity="0"/></linearGradient><linearGradient id="paint24_linear_18_26328" x1="12.924" x2="13.783" y1="21.895" y2="21.359" gradientUnits="userSpaceOnUse"><stop stop-color="#F4B857"/><stop offset="1" stop-color="#F4B857" stop-opacity="0"/></linearGradient><linearGradient id="paint26_linear_18_26328" x1="8.144" x2="9.003" y1="20.619" y2="20.083" gradientUnits="userSpaceOnUse"><stop stop-color="#F4B857"/><stop offset="1" stop-color="#F4B857" stop-opacity="0"/></linearGradient><radialGradient id="paint2_radial_18_26328" cx="0" cy="0" r="1" gradientTransform="matrix(0 8.8039 -5.72857 0 14.118 25.282)" gradientUnits="userSpaceOnUse"><stop offset=".37" stop-color="#F76C7C"/><stop offset="1" stop-color="#F76C7C" stop-opacity="0"/></radialGradient><radialGradient id="paint3_radial_18_26328" cx="0" cy="0" r="1" gradientTransform="matrix(0 5.10371 -2.12655 0 23.517 17.074)" gradientUnits="userSpaceOnUse"><stop offset=".385" stop-color="#F2956F"/><stop offset="1" stop-color="#F2956F" stop-opacity="0"/></radialGradient><radialGradient id="paint5_radial_18_26328" cx="0" cy="0" r="1" gradientTransform="rotate(-28.009 36.578 -37.559) scale(2.26415)" gradientUnits="userSpaceOnUse"><stop offset=".203" stop-color="#E5A62D"/><stop offset="1" stop-color="#DC9527"/></radialGradient><radialGradient id="paint7_radial_18_26328" cx="0" cy="0" r="1" gradientTransform="rotate(-28.009 43.18 -20.136) scale(2.185)" gradientUnits="userSpaceOnUse"><stop offset=".203" stop-color="#E89330"/><stop offset="1" stop-color="#DF7B2B"/></radialGradient><radialGradient id="paint9_radial_18_26328" cx="0" cy="0" r="1" gradientTransform="rotate(-28.009 37.501 -8.986) scale(2.185)" gradientUnits="userSpaceOnUse"><stop offset=".203" stop-color="#E89330"/><stop offset="1" stop-color="#DF7B2B"/></radialGradient><radialGradient id="paint11_radial_18_26328" cx="0" cy="0" r="1" gradientTransform="rotate(-28.009 21.485 -29.29) scale(1.13206)" gradientUnits="userSpaceOnUse"><stop offset=".053" stop-color="#EAAC30"/><stop offset="1" stop-color="#DCA029"/></radialGradient><radialGradient id="paint13_radial_18_26328" cx="0" cy="0" r="1" gradientTransform="rotate(-28.009 29.29 -40.067) scale(1.13206)" gradientUnits="userSpaceOnUse"><stop offset=".053" stop-color="#EAAC30"/><stop offset="1" stop-color="#DCA029"/></radialGradient><radialGradient id="paint15_radial_18_26328" cx="0" cy="0" r="1" gradientTransform="rotate(-28.009 28.35 -31.322) scale(1.06082)" gradientUnits="userSpaceOnUse"><stop offset=".053" stop-color="#EAAC30"/><stop offset="1" stop-color="#DCA029"/></radialGradient><radialGradient id="paint17_radial_18_26328" cx="0" cy="0" r="1" gradientTransform="rotate(-28.009 31.838 -14.944) scale(1.10833)" gradientUnits="userSpaceOnUse"><stop offset=".203" stop-color="#E89330"/><stop offset="1" stop-color="#DF7B2B"/></radialGradient><radialGradient id="paint19_radial_18_26328" cx="0" cy="0" r="1" gradientTransform="rotate(-28.009 34.274 -24.714) scale(1.10833)" gradientUnits="userSpaceOnUse"><stop offset=".203" stop-color="#E09031"/><stop offset="1" stop-color="#DB8911"/></radialGradient><radialGradient id="paint21_radial_18_26328" cx="0" cy="0" r="1" gradientTransform="rotate(-28.009 42.69 -31.407) scale(1.10833)" gradientUnits="userSpaceOnUse"><stop offset=".203" stop-color="#E09031"/><stop offset="1" stop-color="#DB8911"/></radialGradient><radialGradient id="paint23_radial_18_26328" cx="0" cy="0" r="1" gradientTransform="rotate(-28.009 50.154 -15.576) scale(1.10833)" gradientUnits="userSpaceOnUse"><stop offset=".203" stop-color="#E0742C"/><stop offset="1" stop-color="#DF7B2B"/></radialGradient><radialGradient id="paint25_radial_18_26328" cx="0" cy="0" r="1" gradientTransform="rotate(-28.009 45.206 -6.633) scale(1.10833)" gradientUnits="userSpaceOnUse"><stop offset=".203" stop-color="#E0742C"/><stop offset="1" stop-color="#DF7B2B"/></radialGradient></defs></svg>