<svg xmlns="http://www.w3.org/2000/svg" width="32" height="32" fill="none" viewBox="0 0 32 32"><path fill="url(#paint0_linear_6981_5056)" d="M4 25.942C4 28.174 5.763 30 7.918 30h16.164C26.237 30 28 28.073 28 25.84V6.43c0-1.3-1.59-1.9-2.485-1L20.974 10h-9.812L6.5 5.43c-.9-.9-2.5-.3-2.5 1v19.512Z"/><path fill="url(#paint1_linear_6981_5056)" d="M4 25.942C4 28.174 5.763 30 7.918 30h16.164C26.237 30 28 28.073 28 25.84V6.43c0-1.3-1.59-1.9-2.485-1L20.974 10h-9.812L6.5 5.43c-.9-.9-2.5-.3-2.5 1v19.512Z"/><path fill="url(#paint2_linear_6981_5056)" d="M4 25.942C4 28.174 5.763 30 7.918 30h16.164C26.237 30 28 28.073 28 25.84V6.43c0-1.3-1.59-1.9-2.485-1L20.974 10h-9.812L6.5 5.43c-.9-.9-2.5-.3-2.5 1v19.512Z"/><path fill="url(#paint3_linear_6981_5056)" d="M4 25.942C4 28.174 5.763 30 7.918 30h16.164C26.237 30 28 28.073 28 25.84V6.43c0-1.3-1.59-1.9-2.485-1L20.974 10h-9.812L6.5 5.43c-.9-.9-2.5-.3-2.5 1v19.512Z"/><path fill="url(#paint4_linear_6981_5056)" d="M4 25.942C4 28.174 5.763 30 7.918 30h16.164C26.237 30 28 28.073 28 25.84V6.43c0-1.3-1.59-1.9-2.485-1L20.974 10h-9.812L6.5 5.43c-.9-.9-2.5-.3-2.5 1v19.512Z"/><path fill="url(#paint5_radial_6981_5056)" d="M4 25.942C4 28.174 5.763 30 7.918 30h16.164C26.237 30 28 28.073 28 25.84V6.43c0-1.3-1.59-1.9-2.485-1L20.974 10h-9.812L6.5 5.43c-.9-.9-2.5-.3-2.5 1v19.512Z"/><g filter="url(#filter0_f_6981_5056)"><rect width="2.727" height="3.698" x="5.054" y="21.82" fill="#D67908" rx="1.363"/></g><g filter="url(#filter1_f_6981_5056)"><path fill="url(#paint6_linear_6981_5056)" d="M20.75 10.2c-2.983.108 5.227 4.954 5.227 4.954l1.125-9.062c.055-.461-.364-.954-1.25-.131L21.84 9.913c-.187.184-.408.25-.702.288-.15.02-.236-.006-.386 0Z"/></g><path fill="url(#paint7_linear_6981_5056)" d="m6.133 13.503 2.8-2.6c.32-.3.32-.78 0-1.07L5.918 7.156c-.383-.336-1.175-.226-1.175.607v5.2c0 .834.88 1.02 1.39.54Z"/><g filter="url(#filter2_f_6981_5056)"><path fill="url(#paint8_linear_6981_5056)" d="M26.49 5.652a.38.38 0 0 1 .732.142v2.245l-1.417-.687.686-1.7Z"/></g><g filter="url(#filter3_f_6981_5056)"><path stroke="#FFDF70" stroke-linecap="round" d="m5.446 5.727 3.375 3.22c.754.718.768 1.918.031 2.655v0"/></g><g filter="url(#filter4_f_6981_5056)"><path fill="url(#paint9_linear_6981_5056)" d="m14.805 20.65.065-.015a3.03 3.03 0 0 1 1.438.015c.52.098.832.696.392 1.126l-.55.601c-.27.27-.864.27-1.134 0l-.543-.601c-.449-.508-.168-1.016.332-1.126Z"/></g><g filter="url(#filter5_f_6981_5056)"><path stroke="url(#paint10_linear_6981_5056)" stroke-linecap="round" stroke-miterlimit="10" stroke-width="1.2" d="m24.785 22.892 3.805-1.812"/></g><g filter="url(#filter6_f_6981_5056)"><path stroke="url(#paint11_linear_6981_5056)" stroke-linecap="round" stroke-miterlimit="10" stroke-width="1.2" d="m24.785 24.924 1.927 1.365"/></g><path stroke="url(#paint12_linear_6981_5056)" stroke-linecap="round" stroke-miterlimit="10" stroke-width="1.2" d="m25.566 22.54 3.805-1.813"/><g filter="url(#filter7_f_6981_5056)"><path stroke="#FF8485" stroke-linecap="round" stroke-miterlimit="10" stroke-width=".3" d="m25.566 22.71 3.805-1.812"/></g><g filter="url(#filter8_f_6981_5056)"><ellipse cx="29.606" cy="20.581" fill="#FFDD86" rx=".184" ry=".166" transform="rotate(-22.745 29.606 20.58)"/></g><path stroke="url(#paint13_linear_6981_5056)" stroke-linecap="round" stroke-miterlimit="10" stroke-width="1.2" d="m25.564 24.67 3.801 1.818"/><g filter="url(#filter9_f_6981_5056)"><path stroke="#FF8485" stroke-linecap="round" stroke-miterlimit="10" stroke-width=".3" d="m25.498 24.55 3.802 1.818"/></g><g filter="url(#filter10_f_6981_5056)"><ellipse cx="29.54" cy="26.368" fill="#FFDD86" rx=".184" ry=".166" transform="rotate(28.298 29.54 26.368)"/></g><path stroke="url(#paint14_linear_6981_5056)" stroke-linecap="round" stroke-miterlimit="10" stroke-width="1.2" d="M6.528 24.681 2.727 26.5"/><g filter="url(#filter11_f_6981_5056)"><path stroke="#FF8485" stroke-linecap="round" stroke-miterlimit="10" stroke-width=".3" d="m6.593 24.56-3.801 1.82"/></g><g filter="url(#filter12_f_6981_5056)"><ellipse fill="#FFDD86" rx=".184" ry=".166" transform="scale(-1 1) rotate(-19.477 68.068 31.615)"/></g><path stroke="url(#paint15_linear_6981_5056)" stroke-linecap="round" stroke-miterlimit="10" stroke-width="1.2" d="M6.54 22.524 2.726 20.73"/><g filter="url(#filter13_f_6981_5056)"><path fill="#DC8400" fill-rule="evenodd" d="M15.665 20.712c.364 0 .658.246.658.55v2.75c0 .303-.294.55-.658.55-.364 0-.659-.247-.659-.55v-2.75c0-.304.295-.55.659-.55Z" clip-rule="evenodd"/></g><path stroke="url(#paint16_radial_6981_5056)" stroke-linecap="round" stroke-width="1.1" d="M13.151 25.322c.922-.911 3.204-2.148 5.735 0"/><path stroke="url(#paint17_linear_6981_5056)" stroke-linecap="round" stroke-width="1.1" d="M16.01 23.651v-1.34"/><path fill="url(#paint18_radial_6981_5056)" d="m15.226 20.207.065-.015a3.03 3.03 0 0 1 1.438.015c.521.098.832.695.392 1.125l-.55.602c-.27.27-.864.27-1.134 0l-.542-.602c-.45-.508-.168-1.016.332-1.125Z"/><g filter="url(#filter14_f_6981_5056)"><ellipse cx="16.27" cy="20.741" fill="url(#paint19_linear_6981_5056)" rx=".762" ry=".274"/></g><g filter="url(#filter15_f_6981_5056)"><path stroke="#FF8485" stroke-linecap="round" stroke-miterlimit="10" stroke-width=".3" d="M6.674 22.499 2.86 20.705"/></g><g filter="url(#filter16_f_6981_5056)"><ellipse fill="#FFDD86" rx=".184" ry=".166" transform="scale(-1 1) rotate(-70.238 12.624 16.051)"/></g><g filter="url(#filter17_f_6981_5056)"><path fill="url(#paint20_linear_6981_5056)" d="M20.207 20.467a.772.772 0 0 1-.775-.76v-1.42c0-.417.35-.76.775-.76.425 0 .775.343.775.76v1.42c0 .43-.35.76-.775.76Z"/></g><g filter="url(#filter18_f_6981_5056)"><path fill="url(#paint21_linear_6981_5056)" d="M10.33 20.135a.771.771 0 0 1-.775-.76v-1.42c0-.417.35-.76.775-.76.425 0 .775.343.775.76v1.42c0 .43-.35.76-.775.76Z"/></g><g filter="url(#filter19_f_6981_5056)"><circle cx="20.207" cy="17.764" r=".236" fill="#775B70"/></g><g filter="url(#filter20_f_6981_5056)"><circle cx="12.265" cy="17.764" r=".236" fill="#775B70"/></g><g filter="url(#filter21_f_6981_5056)"><path fill="url(#paint22_linear_6981_5056)" d="M22.102 10.102h4.585v14.186h-4.585z"/></g><path fill="#FFB915" d="m25.833 13.503-2.8-2.6a.716.716 0 0 1 0-1.07l3.015-2.677c.382-.336 1.175-.226 1.175.607v5.2c0 .834-.88 1.02-1.39.54Z"/><path fill="url(#paint23_linear_6981_5056)" d="m25.833 13.503-2.8-2.6a.716.716 0 0 1 0-1.07l3.015-2.677c.382-.336 1.175-.226 1.175.607v5.2c0 .834-.88 1.02-1.39.54Z"/><g filter="url(#filter22_f_6981_5056)"><path fill="url(#paint24_radial_6981_5056)" d="m26.634 7.367-3.625 3.125 3.546 2.813.079-5.938Z"/></g><g filter="url(#filter23_f_6981_5056)"><path stroke="url(#paint25_linear_6981_5056)" stroke-linecap="round" stroke-width=".5" d="m23.727 10.29 2.532 2.733"/></g><g filter="url(#filter24_f_6981_5056)"><path fill="#FEB33E" d="M5.223 7.5v5.907l3.469-3.09L5.223 7.5Z"/></g><g filter="url(#filter25_f_6981_5056)"><path stroke="#FFE7A3" stroke-linecap="round" stroke-width=".15" d="M5.223 7.727v5.187"/></g><g filter="url(#filter26_f_6981_5056)"><path stroke="#D37C04" stroke-linecap="round" stroke-linejoin="round" stroke-width="1.1" d="M18.741 18.287c.758 0 1.978-.378 2.587-2.175"/></g><g filter="url(#filter27_f_6981_5056)"><path stroke="#D37C04" stroke-linecap="round" stroke-linejoin="round" stroke-width="1.1" d="M12.375 18.508c-.758 0-2.541-.196-3.15-1.993"/></g><path fill="url(#paint26_linear_6981_5056)" d="M10.906 19.98a.771.771 0 0 1-.775-.76v-1.422c0-.416.35-.76.775-.76.425 0 .775.344.775.76v1.422c0 .428-.35.76-.775.76Z"/><path fill="url(#paint27_linear_6981_5056)" d="M10.906 19.98a.771.771 0 0 1-.775-.76v-1.422c0-.416.35-.76.775-.76.425 0 .775.344.775.76v1.422c0 .428-.35.76-.775.76Z"/><path fill="url(#paint28_linear_6981_5056)" d="M20.875 19.98a.771.771 0 0 1-.775-.76v-1.422c0-.416.35-.76.775-.76.425 0 .775.344.775.76v1.422c0 .428-.35.76-.775.76Z"/><path fill="url(#paint29_linear_6981_5056)" d="M20.875 19.98a.771.771 0 0 1-.775-.76v-1.422c0-.416.35-.76.775-.76.425 0 .775.344.775.76v1.422c0 .428-.35.76-.775.76Z"/><path stroke="url(#paint30_radial_6981_5056)" stroke-linecap="round" stroke-linejoin="round" stroke-width="1.1" d="M19.236 17.752c.758 0 2.196-.375 2.805-2.172"/><path stroke="url(#paint31_radial_6981_5056)" stroke-linecap="round" stroke-linejoin="round" stroke-width="1.1" d="M12.541 17.752c-.758 0-2.195-.375-2.805-2.172"/><defs><filter id="filter0_f_6981_5056" width="5.727" height="6.698" x="3.554" y="20.32" color-interpolation-filters="sRGB" filterUnits="userSpaceOnUse"><feFlood flood-opacity="0" result="BackgroundImageFix"/><feBlend in="SourceGraphic" in2="BackgroundImageFix" result="shape"/><feGaussianBlur result="effect1_foregroundBlur_6981_5056" stdDeviation=".75"/></filter><filter id="filter1_f_6981_5056" width="9.009" height="11.636" x="19.098" y="4.519" color-interpolation-filters="sRGB" filterUnits="userSpaceOnUse"><feFlood flood-opacity="0" result="BackgroundImageFix"/><feBlend in="SourceGraphic" in2="BackgroundImageFix" result="shape"/><feGaussianBlur result="effect1_foregroundBlur_6981_5056" stdDeviation=".5"/></filter><filter id="filter2_f_6981_5056" width="3.417" height="4.625" x="24.805" y="4.414" color-interpolation-filters="sRGB" filterUnits="userSpaceOnUse"><feFlood flood-opacity="0" result="BackgroundImageFix"/><feBlend in="SourceGraphic" in2="BackgroundImageFix" result="shape"/><feGaussianBlur result="effect1_foregroundBlur_6981_5056" stdDeviation=".5"/></filter><filter id="filter3_f_6981_5056" width="8.95" height="10.729" x="2.946" y="3.227" color-interpolation-filters="sRGB" filterUnits="userSpaceOnUse"><feFlood flood-opacity="0" result="BackgroundImageFix"/><feBlend in="SourceGraphic" in2="BackgroundImageFix" result="shape"/><feGaussianBlur result="effect1_foregroundBlur_6981_5056" stdDeviation="1"/></filter><filter id="filter4_f_6981_5056" width="3.661" height="3.024" x="13.748" y="20.056" color-interpolation-filters="sRGB" filterUnits="userSpaceOnUse"><feFlood flood-opacity="0" result="BackgroundImageFix"/><feBlend in="SourceGraphic" in2="BackgroundImageFix" result="shape"/><feGaussianBlur result="effect1_foregroundBlur_6981_5056" stdDeviation=".25"/></filter><filter id="filter5_f_6981_5056" width="6.005" height="4.013" x="23.685" y="19.98" color-interpolation-filters="sRGB" filterUnits="userSpaceOnUse"><feFlood flood-opacity="0" result="BackgroundImageFix"/><feBlend in="SourceGraphic" in2="BackgroundImageFix" result="shape"/><feGaussianBlur result="effect1_foregroundBlur_6981_5056" stdDeviation=".25"/></filter><filter id="filter6_f_6981_5056" width="4.127" height="3.566" x="23.685" y="23.823" color-interpolation-filters="sRGB" filterUnits="userSpaceOnUse"><feFlood flood-opacity="0" result="BackgroundImageFix"/><feBlend in="SourceGraphic" in2="BackgroundImageFix" result="shape"/><feGaussianBlur result="effect1_foregroundBlur_6981_5056" stdDeviation=".25"/></filter><filter id="filter7_f_6981_5056" width="5.105" height="3.113" x="24.916" y="20.248" color-interpolation-filters="sRGB" filterUnits="userSpaceOnUse"><feFlood flood-opacity="0" result="BackgroundImageFix"/><feBlend in="SourceGraphic" in2="BackgroundImageFix" result="shape"/><feGaussianBlur result="effect1_foregroundBlur_6981_5056" stdDeviation=".25"/></filter><filter id="filter8_f_6981_5056" width="1.363" height="1.337" x="28.924" y="19.912" color-interpolation-filters="sRGB" filterUnits="userSpaceOnUse"><feFlood flood-opacity="0" result="BackgroundImageFix"/><feBlend in="SourceGraphic" in2="BackgroundImageFix" result="shape"/><feGaussianBlur result="effect1_foregroundBlur_6981_5056" stdDeviation=".25"/></filter><filter id="filter9_f_6981_5056" width="5.102" height="3.119" x="24.848" y="23.899" color-interpolation-filters="sRGB" filterUnits="userSpaceOnUse"><feFlood flood-opacity="0" result="BackgroundImageFix"/><feBlend in="SourceGraphic" in2="BackgroundImageFix" result="shape"/><feGaussianBlur result="effect1_foregroundBlur_6981_5056" stdDeviation=".25"/></filter><filter id="filter10_f_6981_5056" width="1.36" height="1.34" x="28.86" y="25.698" color-interpolation-filters="sRGB" filterUnits="userSpaceOnUse"><feFlood flood-opacity="0" result="BackgroundImageFix"/><feBlend in="SourceGraphic" in2="BackgroundImageFix" result="shape"/><feGaussianBlur result="effect1_foregroundBlur_6981_5056" stdDeviation=".25"/></filter><filter id="filter11_f_6981_5056" width="5.102" height="3.119" x="2.142" y="23.911" color-interpolation-filters="sRGB" filterUnits="userSpaceOnUse"><feFlood flood-opacity="0" result="BackgroundImageFix"/><feBlend in="SourceGraphic" in2="BackgroundImageFix" result="shape"/><feGaussianBlur result="effect1_foregroundBlur_6981_5056" stdDeviation=".25"/></filter><filter id="filter12_f_6981_5056" width="1.364" height="1.336" x="5.964" y="23.837" color-interpolation-filters="sRGB" filterUnits="userSpaceOnUse"><feFlood flood-opacity="0" result="BackgroundImageFix"/><feBlend in="SourceGraphic" in2="BackgroundImageFix" result="shape"/><feGaussianBlur result="effect1_foregroundBlur_6981_5056" stdDeviation=".25"/></filter><filter id="filter13_f_6981_5056" width="2.317" height="4.85" x="14.506" y="20.212" color-interpolation-filters="sRGB" filterUnits="userSpaceOnUse"><feFlood flood-opacity="0" result="BackgroundImageFix"/><feBlend in="SourceGraphic" in2="BackgroundImageFix" result="shape"/><feGaussianBlur result="effect1_foregroundBlur_6981_5056" stdDeviation=".25"/></filter><filter id="filter14_f_6981_5056" width="2.723" height="1.748" x="14.909" y="19.867" color-interpolation-filters="sRGB" filterUnits="userSpaceOnUse"><feFlood flood-opacity="0" result="BackgroundImageFix"/><feBlend in="SourceGraphic" in2="BackgroundImageFix" result="shape"/><feGaussianBlur result="effect1_foregroundBlur_6981_5056" stdDeviation=".3"/></filter><filter id="filter15_f_6981_5056" width="5.114" height="3.094" x="2.21" y="20.055" color-interpolation-filters="sRGB" filterUnits="userSpaceOnUse"><feFlood flood-opacity="0" result="BackgroundImageFix"/><feBlend in="SourceGraphic" in2="BackgroundImageFix" result="shape"/><feGaussianBlur result="effect1_foregroundBlur_6981_5056" stdDeviation=".25"/></filter><filter id="filter16_f_6981_5056" width="1.336" height="1.364" x="6.083" y="21.823" color-interpolation-filters="sRGB" filterUnits="userSpaceOnUse"><feFlood flood-opacity="0" result="BackgroundImageFix"/><feBlend in="SourceGraphic" in2="BackgroundImageFix" result="shape"/><feGaussianBlur result="effect1_foregroundBlur_6981_5056" stdDeviation=".25"/></filter><filter id="filter17_f_6981_5056" width="2.551" height="3.941" x="18.932" y="17.026" color-interpolation-filters="sRGB" filterUnits="userSpaceOnUse"><feFlood flood-opacity="0" result="BackgroundImageFix"/><feBlend in="SourceGraphic" in2="BackgroundImageFix" result="shape"/><feGaussianBlur result="effect1_foregroundBlur_6981_5056" stdDeviation=".25"/></filter><filter id="filter18_f_6981_5056" width="2.551" height="3.941" x="9.055" y="16.695" color-interpolation-filters="sRGB" filterUnits="userSpaceOnUse"><feFlood flood-opacity="0" result="BackgroundImageFix"/><feBlend in="SourceGraphic" in2="BackgroundImageFix" result="shape"/><feGaussianBlur result="effect1_foregroundBlur_6981_5056" stdDeviation=".25"/></filter><filter id="filter19_f_6981_5056" width="1.472" height="1.472" x="19.471" y="17.028" color-interpolation-filters="sRGB" filterUnits="userSpaceOnUse"><feFlood flood-opacity="0" result="BackgroundImageFix"/><feBlend in="SourceGraphic" in2="BackgroundImageFix" result="shape"/><feGaussianBlur result="effect1_foregroundBlur_6981_5056" stdDeviation=".25"/></filter><filter id="filter20_f_6981_5056" width="1.472" height="1.472" x="11.529" y="17.028" color-interpolation-filters="sRGB" filterUnits="userSpaceOnUse"><feFlood flood-opacity="0" result="BackgroundImageFix"/><feBlend in="SourceGraphic" in2="BackgroundImageFix" result="shape"/><feGaussianBlur result="effect1_foregroundBlur_6981_5056" stdDeviation=".25"/></filter><filter id="filter21_f_6981_5056" width="12.585" height="22.186" x="18.102" y="6.102" color-interpolation-filters="sRGB" filterUnits="userSpaceOnUse"><feFlood flood-opacity="0" result="BackgroundImageFix"/><feBlend in="SourceGraphic" in2="BackgroundImageFix" result="shape"/><feGaussianBlur result="effect1_foregroundBlur_6981_5056" stdDeviation="2"/></filter><filter id="filter22_f_6981_5056" width="4.825" height="7.138" x="22.409" y="6.767" color-interpolation-filters="sRGB" filterUnits="userSpaceOnUse"><feFlood flood-opacity="0" result="BackgroundImageFix"/><feBlend in="SourceGraphic" in2="BackgroundImageFix" result="shape"/><feGaussianBlur result="effect1_foregroundBlur_6981_5056" stdDeviation=".3"/></filter><filter id="filter23_f_6981_5056" width="4.531" height="4.734" x="22.727" y="9.289" color-interpolation-filters="sRGB" filterUnits="userSpaceOnUse"><feFlood flood-opacity="0" result="BackgroundImageFix"/><feBlend in="SourceGraphic" in2="BackgroundImageFix" result="shape"/><feGaussianBlur result="effect1_foregroundBlur_6981_5056" stdDeviation=".375"/></filter><filter id="filter24_f_6981_5056" width="4.469" height="6.908" x="4.723" y="6.999" color-interpolation-filters="sRGB" filterUnits="userSpaceOnUse"><feFlood flood-opacity="0" result="BackgroundImageFix"/><feBlend in="SourceGraphic" in2="BackgroundImageFix" result="shape"/><feGaussianBlur result="effect1_foregroundBlur_6981_5056" stdDeviation=".25"/></filter><filter id="filter25_f_6981_5056" width="1.15" height="6.337" x="4.648" y="7.152" color-interpolation-filters="sRGB" filterUnits="userSpaceOnUse"><feFlood flood-opacity="0" result="BackgroundImageFix"/><feBlend in="SourceGraphic" in2="BackgroundImageFix" result="shape"/><feGaussianBlur result="effect1_foregroundBlur_6981_5056" stdDeviation=".25"/></filter><filter id="filter26_f_6981_5056" width="5.487" height="5.076" x="17.291" y="14.661" color-interpolation-filters="sRGB" filterUnits="userSpaceOnUse"><feFlood flood-opacity="0" result="BackgroundImageFix"/><feBlend in="SourceGraphic" in2="BackgroundImageFix" result="shape"/><feGaussianBlur result="effect1_foregroundBlur_6981_5056" stdDeviation=".45"/></filter><filter id="filter27_f_6981_5056" width="8.251" height="7.093" x="6.674" y="13.965" color-interpolation-filters="sRGB" filterUnits="userSpaceOnUse"><feFlood flood-opacity="0" result="BackgroundImageFix"/><feBlend in="SourceGraphic" in2="BackgroundImageFix" result="shape"/><feGaussianBlur result="effect1_foregroundBlur_6981_5056" stdDeviation="1"/></filter><linearGradient id="paint0_linear_6981_5056" x1="7.907" x2="7.907" y1="1.35" y2="30.99" gradientUnits="userSpaceOnUse"><stop offset=".288" stop-color="#F2CC26"/><stop offset=".762" stop-color="#E99E20"/><stop offset=".993" stop-color="#E3821D"/><stop offset="1" stop-color="#E3801D"/></linearGradient><linearGradient id="paint1_linear_6981_5056" x1="8.831" x2="1.17" y1="12.033" y2="12.033" gradientUnits="userSpaceOnUse"><stop stop-color="#E99E20" stop-opacity="0"/><stop offset=".993" stop-color="#E3821D"/><stop offset="1" stop-color="#E3801D"/></linearGradient><linearGradient id="paint2_linear_6981_5056" x1="26.791" x2="30.245" y1="12.033" y2="12.033" gradientUnits="userSpaceOnUse"><stop stop-color="#E99E20" stop-opacity="0"/><stop offset=".993" stop-color="#E3821D"/><stop offset="1" stop-color="#E3801D"/></linearGradient><linearGradient id="paint3_linear_6981_5056" x1="16.001" x2="16" y1="-1.595" y2="30.99" gradientUnits="userSpaceOnUse"><stop offset=".771" stop-color="#F59639" stop-opacity="0"/><stop offset="1" stop-color="#FF63C4"/></linearGradient><linearGradient id="paint4_linear_6981_5056" x1="16" x2="16" y1="11.252" y2="32.475" gradientUnits="userSpaceOnUse"><stop offset=".854" stop-color="#fff" stop-opacity="0"/><stop offset=".985" stop-color="#fff"/></linearGradient><linearGradient id="paint6_linear_6981_5056" x1="21.908" x2="28.165" y1="6.852" y2="13.695" gradientUnits="userSpaceOnUse"><stop stop-color="#FFA720"/><stop offset="1" stop-color="#FFA720" stop-opacity="0"/></linearGradient><linearGradient id="paint7_linear_6981_5056" x1="10.602" x2="4.743" y1="10.617" y2="10.07" gradientUnits="userSpaceOnUse"><stop offset=".437" stop-color="#ED8C1B"/><stop offset="1" stop-color="#FFB03A"/></linearGradient><linearGradient id="paint8_linear_6981_5056" x1="27.04" x2="26.444" y1="4.961" y2="7.302" gradientUnits="userSpaceOnUse"><stop offset=".286" stop-color="#FFE792"/><stop offset="1" stop-color="#FFDD65" stop-opacity="0"/></linearGradient><linearGradient id="paint9_linear_6981_5056" x1="15.751" x2="15.079" y1="22.351" y2="23.445" gradientUnits="userSpaceOnUse"><stop stop-color="#E3900E"/><stop offset="1" stop-color="#EA9D26" stop-opacity="0"/></linearGradient><linearGradient id="paint10_linear_6981_5056" x1="24.29" x2="28.024" y1="23.236" y2="21.32" gradientUnits="userSpaceOnUse"><stop stop-color="#E88105"/><stop offset="1" stop-color="#E37D02" stop-opacity="0"/></linearGradient><linearGradient id="paint11_linear_6981_5056" x1="24.29" x2="28.024" y1="24.58" y2="26.495" gradientUnits="userSpaceOnUse"><stop offset=".286" stop-color="#DE7D07"/><stop offset=".818" stop-color="#E37D02" stop-opacity="0"/></linearGradient><linearGradient id="paint12_linear_6981_5056" x1="25.29" x2="29.371" y1="22.945" y2="21.008" gradientUnits="userSpaceOnUse"><stop offset=".156" stop-color="#D64A38"/><stop offset="1" stop-color="#FB7425"/></linearGradient><linearGradient id="paint13_linear_6981_5056" x1="25.074" x2="29.146" y1="24.71" y2="26.665" gradientUnits="userSpaceOnUse"><stop offset=".156" stop-color="#D64A38"/><stop offset="1" stop-color="#FB7425"/></linearGradient><linearGradient id="paint14_linear_6981_5056" x1="7.018" x2="2.945" y1="24.721" y2="26.677" gradientUnits="userSpaceOnUse"><stop offset=".156" stop-color="#D64A38"/><stop offset="1" stop-color="#FB7425"/></linearGradient><linearGradient id="paint15_linear_6981_5056" x1="6.818" x2="2.728" y1="22.929" y2="21.012" gradientUnits="userSpaceOnUse"><stop offset=".156" stop-color="#D64A38"/><stop offset="1" stop-color="#FB7425"/></linearGradient><linearGradient id="paint17_linear_6981_5056" x1="18.194" x2="10.897" y1="22.885" y2="22.885" gradientUnits="userSpaceOnUse"><stop offset=".135" stop-color="#483637"/><stop offset=".276" stop-color="#594253"/><stop offset=".411" stop-color="#482641"/></linearGradient><linearGradient id="paint19_linear_6981_5056" x1="17.204" x2="15.68" y1="20.741" y2="20.741" gradientUnits="userSpaceOnUse"><stop stop-color="#fff" stop-opacity=".9"/><stop offset="1" stop-color="#fff" stop-opacity="0"/></linearGradient><linearGradient id="paint20_linear_6981_5056" x1="21.464" x2="22.464" y1="19.679" y2="23.14" gradientUnits="userSpaceOnUse"><stop stop-color="#EC9611"/><stop offset="1" stop-color="#EA9D26" stop-opacity="0"/></linearGradient><linearGradient id="paint21_linear_6981_5056" x1="11.587" x2="12.587" y1="19.347" y2="22.808" gradientUnits="userSpaceOnUse"><stop stop-color="#E89311"/><stop offset="1" stop-color="#EA9D26" stop-opacity="0"/></linearGradient><linearGradient id="paint22_linear_6981_5056" x1="23.352" x2="22.956" y1="10.838" y2="22.889" gradientUnits="userSpaceOnUse"><stop offset=".548" stop-color="#FFDD65"/><stop offset="1" stop-color="#FFDD65" stop-opacity="0"/></linearGradient><linearGradient id="paint23_linear_6981_5056" x1="26.54" x2="25.29" y1="15.508" y2="12.039" gradientUnits="userSpaceOnUse"><stop stop-color="#EF8A47"/><stop offset="1" stop-color="#EF8A47" stop-opacity="0"/></linearGradient><linearGradient id="paint25_linear_6981_5056" x1="25.055" x2="25.055" y1="10.477" y2="12.82" gradientUnits="userSpaceOnUse"><stop offset=".432" stop-color="#FFE7A3"/><stop offset="1" stop-color="#FFDF83" stop-opacity="0"/></linearGradient><linearGradient id="paint26_linear_6981_5056" x1="13.835" x2="9.366" y1="18.104" y2="18.104" gradientUnits="userSpaceOnUse"><stop stop-color="#432A3D"/><stop offset=".568" stop-color="#684E61"/><stop offset=".766" stop-color="#43253D"/></linearGradient><linearGradient id="paint27_linear_6981_5056" x1="11.257" x2="11.257" y1="17.948" y2="20.245" gradientUnits="userSpaceOnUse"><stop offset=".327" stop-color="#43253D" stop-opacity="0"/><stop offset="1" stop-color="#43253D"/></linearGradient><linearGradient id="paint28_linear_6981_5056" x1="23.803" x2="19.335" y1="18.104" y2="18.104" gradientUnits="userSpaceOnUse"><stop stop-color="#432A3D"/><stop offset=".568" stop-color="#684E61"/><stop offset=".766" stop-color="#43253D"/></linearGradient><linearGradient id="paint29_linear_6981_5056" x1="21.225" x2="21.225" y1="17.948" y2="20.245" gradientUnits="userSpaceOnUse"><stop offset=".327" stop-color="#43253D" stop-opacity="0"/><stop offset="1" stop-color="#43253D"/></linearGradient><radialGradient id="paint5_radial_6981_5056" cx="0" cy="0" r="1" gradientTransform="matrix(3.04569 4.424 -8.78922 6.0509 22.175 4.477)" gradientUnits="userSpaceOnUse"><stop stop-color="#FFA720"/><stop offset=".921" stop-color="#FFA720" stop-opacity="0"/></radialGradient><radialGradient id="paint16_radial_6981_5056" cx="0" cy="0" r="1" gradientTransform="matrix(-.01653 -5.21875 10.18765 -.03227 16.21 25.713)" gradientUnits="userSpaceOnUse"><stop offset=".192" stop-color="#482641"/><stop offset=".312" stop-color="#594253"/><stop offset=".386" stop-color="#483334"/></radialGradient><radialGradient id="paint18_radial_6981_5056" cx="0" cy="0" r="1" gradientTransform="matrix(-1.89063 -.95312 .95876 -1.9018 16.446 21.18)" gradientUnits="userSpaceOnUse"><stop stop-color="#EA088B"/><stop offset="1" stop-color="#E61E27"/></radialGradient><radialGradient id="paint24_radial_6981_5056" cx="0" cy="0" r="1" gradientTransform="matrix(4.40625 6.46875 -7.7559 5.283 22.868 7.773)" gradientUnits="userSpaceOnUse"><stop stop-color="#FFDF70"/><stop offset="1" stop-color="#FFDF70" stop-opacity="0"/></radialGradient><radialGradient id="paint30_radial_6981_5056" cx="0" cy="0" r="1" gradientTransform="matrix(2.37496 3.0625 -6.75506 5.23852 20.672 15.612)" gradientUnits="userSpaceOnUse"><stop offset=".117" stop-color="#483637"/><stop offset=".276" stop-color="#503A4A"/><stop offset=".479" stop-color="#482641"/><stop offset=".479" stop-color="#482641"/></radialGradient><radialGradient id="paint31_radial_6981_5056" cx="0" cy="0" r="1" gradientTransform="matrix(-2.63243 3.28511 -5.82005 -4.66374 11.835 16.264)" gradientUnits="userSpaceOnUse"><stop offset=".177" stop-color="#483637"/><stop offset=".276" stop-color="#503A4A"/><stop offset=".385" stop-color="#482641"/></radialGradient></defs></svg>