<svg xmlns="http://www.w3.org/2000/svg" width="32" height="32" fill="none" viewBox="0 0 32 32"><g filter="url(#filter0_ii_18_12057)"><path fill="url(#paint0_linear_18_12057)" d="M3 9a1 1 0 0 1 1-1h24a1 1 0 0 1 1 1v11a1 1 0 0 1-1 1H4a1 1 0 0 1-1-1V9Z"/></g><path fill="url(#paint1_linear_18_12057)" d="M3 9a1 1 0 0 1 1-1h24a1 1 0 0 1 1 1v11a1 1 0 0 1-1 1H4a1 1 0 0 1-1-1V9Z"/><path fill="url(#paint2_radial_18_12057)" d="M3 9a1 1 0 0 1 1-1h24a1 1 0 0 1 1 1v11a1 1 0 0 1-1 1H4a1 1 0 0 1-1-1V9Z"/><path fill="url(#paint3_linear_18_12057)" fill-rule="evenodd" d="M24.475 21h-4.95L29 11.525v4.95L24.475 21Z" clip-rule="evenodd"/><path fill="url(#paint4_linear_18_12057)" fill-rule="evenodd" d="M24.475 21h-4.95L29 11.525v4.95L24.475 21Z" clip-rule="evenodd"/><path fill="url(#paint5_linear_18_12057)" fill-rule="evenodd" d="M24.475 21h-4.95L29 11.525v4.95L24.475 21Z" clip-rule="evenodd"/><path fill="url(#paint6_linear_18_12057)" fill-rule="evenodd" d="M14.475 21h-4.95l13-13h4.95l-13 13Z" clip-rule="evenodd"/><path fill="url(#paint7_linear_18_12057)" fill-rule="evenodd" d="M14.475 21h-4.95l13-13h4.95l-13 13Z" clip-rule="evenodd"/><path fill="url(#paint8_linear_18_12057)" fill-rule="evenodd" d="M14.475 21h-4.95l13-13h4.95l-13 13Z" clip-rule="evenodd"/><path fill="url(#paint9_linear_18_12057)" fill-rule="evenodd" d="M4.475 21H4a1 1 0 0 1-1-1v-2.475L12.525 8h4.95l-13 13Z" clip-rule="evenodd"/><path fill="url(#paint10_linear_18_12057)" fill-rule="evenodd" d="M4.475 21H4a1 1 0 0 1-1-1v-2.475L12.525 8h4.95l-13 13Z" clip-rule="evenodd"/><path fill="url(#paint11_linear_18_12057)" fill-rule="evenodd" d="M4.475 21H4a1 1 0 0 1-1-1v-2.475L12.525 8h4.95l-13 13Z" clip-rule="evenodd"/><path fill="url(#paint12_linear_18_12057)" fill-rule="evenodd" d="M4.475 21H4a1 1 0 0 1-1-1v-2.475L12.525 8h4.95l-13 13Z" clip-rule="evenodd"/><path fill="url(#paint13_linear_18_12057)" fill-rule="evenodd" d="M7.475 8H4a1 1 0 0 0-1 1v3.475L7.475 8Z" clip-rule="evenodd"/><path fill="url(#paint14_linear_18_12057)" fill-rule="evenodd" d="M7.475 8H4a1 1 0 0 0-1 1v3.475L7.475 8Z" clip-rule="evenodd"/><path fill="url(#paint15_linear_18_12057)" fill-rule="evenodd" d="M7.475 8H4a1 1 0 0 0-1 1v3.475L7.475 8Z" clip-rule="evenodd"/><path fill="url(#paint16_linear_18_12057)" fill-rule="evenodd" d="M26 21h-2v9h2v-9Z" clip-rule="evenodd"/><path fill="url(#paint17_radial_18_12057)" fill-rule="evenodd" d="M26 21h-2v9h2v-9Z" clip-rule="evenodd"/><path fill="url(#paint18_linear_18_12057)" fill-rule="evenodd" d="M8 21H6v9h2v-9Z" clip-rule="evenodd"/><path fill="url(#paint19_radial_18_12057)" fill-rule="evenodd" d="M8 21H6v9h2v-9Z" clip-rule="evenodd"/><path fill="url(#paint20_linear_18_12057)" d="M6 7.5a1.5 1.5 0 1 1 3 0V8H6v-.5Z"/><path fill="url(#paint21_linear_18_12057)" d="M23 7.5a1.5 1.5 0 0 1 3 0V8h-3v-.5Z"/><g filter="url(#filter1_f_18_12057)"><rect width=".475" height="8" x="7.109" y="21.5" fill="#DFD0E9" rx=".237"/></g><g filter="url(#filter2_f_18_12057)"><rect width=".475" height="8" x="25" y="21.5" fill="#DFD0E9" rx=".237"/></g><defs><linearGradient id="paint0_linear_18_12057" x1="25.846" x2="8.5" y1="9.985" y2="18.625" gradientUnits="userSpaceOnUse"><stop stop-color="#F7D142"/><stop offset="1" stop-color="#FCB545"/></linearGradient><linearGradient id="paint1_linear_18_12057" x1="3" x2="3.79" y1="14.011" y2="14.011" gradientUnits="userSpaceOnUse"><stop stop-color="#A57C4B"/><stop offset="1" stop-color="#A57C4B" stop-opacity="0"/></linearGradient><linearGradient id="paint3_linear_18_12057" x1="27.607" x2="18.41" y1="11.525" y2="17.982" gradientUnits="userSpaceOnUse"><stop stop-color="#353138"/><stop offset="1" stop-color="#503B62"/></linearGradient><linearGradient id="paint4_linear_18_12057" x1="22.078" x2="22.078" y1="21" y2="20.312" gradientUnits="userSpaceOnUse"><stop stop-color="#4B2867"/><stop offset="1" stop-color="#4B2867" stop-opacity="0"/></linearGradient><linearGradient id="paint5_linear_18_12057" x1="29" x2="25.743" y1="14.491" y2="14.491" gradientUnits="userSpaceOnUse"><stop stop-color="#353139"/><stop offset=".166" stop-color="#413D46"/><stop offset=".456" stop-color="#413D46" stop-opacity="0"/></linearGradient><linearGradient id="paint6_linear_18_12057" x1="24.836" x2="11.426" y1="8" y2="21" gradientUnits="userSpaceOnUse"><stop stop-color="#353138"/><stop offset="1" stop-color="#503B62"/></linearGradient><linearGradient id="paint7_linear_18_12057" x1="14.362" x2="14.362" y1="21" y2="20.056" gradientUnits="userSpaceOnUse"><stop stop-color="#4B2867"/><stop offset="1" stop-color="#4B2867" stop-opacity="0"/></linearGradient><linearGradient id="paint8_linear_18_12057" x1="23.343" x2="23.343" y1="8" y2="12.069" gradientUnits="userSpaceOnUse"><stop stop-color="#353139"/><stop offset=".166" stop-color="#413D46"/><stop offset=".422" stop-color="#413D46" stop-opacity="0"/></linearGradient><linearGradient id="paint9_linear_18_12057" x1="15.347" x2="2.327" y1="8" y2="18.178" gradientUnits="userSpaceOnUse"><stop stop-color="#353138"/><stop offset="1" stop-color="#503B62"/></linearGradient><linearGradient id="paint10_linear_18_12057" x1="6.9" x2="6.9" y1="21" y2="20.056" gradientUnits="userSpaceOnUse"><stop stop-color="#4B2867"/><stop offset="1" stop-color="#4B2867" stop-opacity="0"/></linearGradient><linearGradient id="paint11_linear_18_12057" x1="14.143" x2="14.143" y1="8" y2="12.069" gradientUnits="userSpaceOnUse"><stop stop-color="#353139"/><stop offset=".166" stop-color="#413D46"/><stop offset=".422" stop-color="#413D46" stop-opacity="0"/></linearGradient><linearGradient id="paint12_linear_18_12057" x1="3" x2="3.75" y1="15.114" y2="15.114" gradientUnits="userSpaceOnUse"><stop stop-color="#2F2C32"/><stop offset="1" stop-color="#2F2C32" stop-opacity="0"/></linearGradient><linearGradient id="paint13_linear_18_12057" x1="6.817" x2="2.473" y1="8" y2="11.05" gradientUnits="userSpaceOnUse"><stop stop-color="#353138"/><stop offset="1" stop-color="#503B62"/></linearGradient><linearGradient id="paint14_linear_18_12057" x1="6.445" x2="6.445" y1="8" y2="9.401" gradientUnits="userSpaceOnUse"><stop stop-color="#353139"/><stop offset=".166" stop-color="#413D46"/><stop offset=".422" stop-color="#413D46" stop-opacity="0"/></linearGradient><linearGradient id="paint15_linear_18_12057" x1="3" x2="4" y1="10.449" y2="10.449" gradientUnits="userSpaceOnUse"><stop stop-color="#2F2C32"/><stop offset="1" stop-color="#2F2C32" stop-opacity="0"/></linearGradient><linearGradient id="paint16_linear_18_12057" x1="24" x2="25" y1="23.938" y2="23.938" gradientUnits="userSpaceOnUse"><stop stop-color="#857C8C"/><stop offset="1" stop-color="#B9A7C4"/></linearGradient><linearGradient id="paint18_linear_18_12057" x1="6" x2="7" y1="23.938" y2="23.938" gradientUnits="userSpaceOnUse"><stop stop-color="#857C8C"/><stop offset="1" stop-color="#B9A7C4"/></linearGradient><linearGradient id="paint20_linear_18_12057" x1="7.5" x2="7.5" y1="6" y2="8" gradientUnits="userSpaceOnUse"><stop offset=".563" stop-color="#CB1E72"/><stop offset="1" stop-color="#E61C31"/></linearGradient><linearGradient id="paint21_linear_18_12057" x1="24.5" x2="24.5" y1="6" y2="8" gradientUnits="userSpaceOnUse"><stop offset=".563" stop-color="#CB1E72"/><stop offset="1" stop-color="#E61C31"/></linearGradient><radialGradient id="paint2_radial_18_12057" cx="0" cy="0" r="1" gradientTransform="matrix(12.0629 0 0 1.90436 4.688 8)" gradientUnits="userSpaceOnUse"><stop offset=".136" stop-color="#FBBC43"/><stop offset="1" stop-color="#FBBC43" stop-opacity="0"/></radialGradient><radialGradient id="paint17_radial_18_12057" cx="0" cy="0" r="1" gradientTransform="matrix(0 -8.79687 5.25369 0 25 29.594)" gradientUnits="userSpaceOnUse"><stop offset=".913" stop-color="#7E5E91" stop-opacity="0"/><stop offset=".993" stop-color="#7E5E91"/></radialGradient><radialGradient id="paint19_radial_18_12057" cx="0" cy="0" r="1" gradientTransform="matrix(0 -8.79687 5.25369 0 7 29.594)" gradientUnits="userSpaceOnUse"><stop offset=".913" stop-color="#7E5E91" stop-opacity="0"/><stop offset=".993" stop-color="#7E5E91"/></radialGradient><filter id="filter0_ii_18_12057" width="27" height="14" x="2.5" y="7.5" color-interpolation-filters="sRGB" filterUnits="userSpaceOnUse"><feFlood flood-opacity="0" result="BackgroundImageFix"/><feBlend in="SourceGraphic" in2="BackgroundImageFix" result="shape"/><feColorMatrix in="SourceAlpha" result="hardAlpha" values="0 0 0 0 0 0 0 0 0 0 0 0 0 0 0 0 0 0 127 0"/><feOffset dx=".5" dy="-.5"/><feGaussianBlur stdDeviation=".375"/><feComposite in2="hardAlpha" k2="-1" k3="1" operator="arithmetic"/><feColorMatrix values="0 0 0 0 0.831373 0 0 0 0 0.494118 0 0 0 0 0.282353 0 0 0 1 0"/><feBlend in2="shape" result="effect1_innerShadow_18_12057"/><feColorMatrix in="SourceAlpha" result="hardAlpha" values="0 0 0 0 0 0 0 0 0 0 0 0 0 0 0 0 0 0 127 0"/><feOffset dx="-.5" dy=".5"/><feGaussianBlur stdDeviation=".375"/><feComposite in2="hardAlpha" k2="-1" k3="1" operator="arithmetic"/><feColorMatrix values="0 0 0 0 1 0 0 0 0 1 0 0 0 0 0.415686 0 0 0 1 0"/><feBlend in2="effect1_innerShadow_18_12057" result="effect2_innerShadow_18_12057"/></filter><filter id="filter1_f_18_12057" width="1.775" height="9.3" x="6.459" y="20.85" color-interpolation-filters="sRGB" filterUnits="userSpaceOnUse"><feFlood flood-opacity="0" result="BackgroundImageFix"/><feBlend in="SourceGraphic" in2="BackgroundImageFix" result="shape"/><feGaussianBlur result="effect1_foregroundBlur_18_12057" stdDeviation=".325"/></filter><filter id="filter2_f_18_12057" width="1.775" height="9.3" x="24.35" y="20.85" color-interpolation-filters="sRGB" filterUnits="userSpaceOnUse"><feFlood flood-opacity="0" result="BackgroundImageFix"/><feBlend in="SourceGraphic" in2="BackgroundImageFix" result="shape"/><feGaussianBlur result="effect1_foregroundBlur_18_12057" stdDeviation=".325"/></filter></defs></svg>