<svg xmlns="http://www.w3.org/2000/svg" width="32" height="32" fill="none" viewBox="0 0 32 32"><g filter="url(#filter0_i_4002_4111)"><path fill="#1D79C4" d="M25.99 30.006v-.39c0-5.39-4.47-9.77-9.99-9.77-5.52.01-9.99 4.38-9.99 9.77v.39h19.98Z"/><path fill="url(#paint0_radial_4002_4111)" d="M25.99 30.006v-.39c0-5.39-4.47-9.77-9.99-9.77-5.52.01-9.99 4.38-9.99 9.77v.39h19.98Z"/></g><path fill="url(#paint1_radial_4002_4111)" d="M25.99 30.006v-.39c0-5.39-4.47-9.77-9.99-9.77-5.52.01-9.99 4.38-9.99 9.77v.39h19.98Z"/><path fill="url(#paint2_radial_4002_4111)" d="M16 23.003c-1.438 0-2.605-.604-2.605-1.968V17.66c0-1.364 1.167-2.47 2.605-2.47s2.605 1.106 2.605 2.47v3.375c0 1.364-1.167 1.968-2.605 1.968Z"/><path fill="url(#paint3_linear_4002_4111)" d="M16 23.003c-1.438 0-2.605-.604-2.605-1.968V17.66c0-1.364 1.167-2.47 2.605-2.47s2.605 1.106 2.605 2.47v3.375c0 1.364-1.167 1.968-2.605 1.968Z"/><g filter="url(#filter1_i_4002_4111)"><circle cx="9.959" cy="12.982" r="2.12" fill="url(#paint4_radial_4002_4111)"/></g><g filter="url(#filter2_f_4002_4111)"><circle cx="9.959" cy="12.982" r="1.264" fill="url(#paint5_linear_4002_4111)"/></g><g filter="url(#filter3_i_4002_4111)"><circle cx="22.042" cy="12.982" r="2.12" fill="url(#paint6_linear_4002_4111)"/><circle cx="22.042" cy="12.982" r="2.12" fill="url(#paint7_radial_4002_4111)"/></g><g filter="url(#filter4_f_4002_4111)"><circle cx="22.042" cy="12.982" r="1.264" fill="#463133"/><circle cx="22.042" cy="12.982" r="1.264" fill="url(#paint8_radial_4002_4111)"/><circle cx="22.042" cy="12.982" r="1.264" fill="url(#paint9_radial_4002_4111)"/></g><g filter="url(#filter5_i_4002_4111)"><path fill="url(#paint10_linear_4002_4111)" d="m9.512 12.204.062.002s-.068-1.084-.136-1.83c0-.338.136-.744.408-.948l.205-.203c.34-.27.477-.677.477-1.084V7.057c0-.338.204-.61.545-.677.817-.203 2.52-.542 4.973-.542s4.156.339 4.974.542c.272.068.544.339.544.677v1.084c0 .407.205.813.477 1.084.638.447.598.693.545 1.22-.068.677-.136 1.829-.136 1.829h.023l-.337 5.027c-.204 2.248-1.971 3.814-4.078 3.814H13.98c-2.174 0-3.873-1.566-4.077-3.814l-.391-5.097Z"/><path fill="url(#paint11_linear_4002_4111)" d="m9.512 12.204.062.002s-.068-1.084-.136-1.83c0-.338.136-.744.408-.948l.205-.203c.34-.27.477-.677.477-1.084V7.057c0-.338.204-.61.545-.677.817-.203 2.52-.542 4.973-.542s4.156.339 4.974.542c.272.068.544.339.544.677v1.084c0 .407.205.813.477 1.084.638.447.598.693.545 1.22-.068.677-.136 1.829-.136 1.829h.023l-.337 5.027c-.204 2.248-1.971 3.814-4.078 3.814H13.98c-2.174 0-3.873-1.566-4.077-3.814l-.391-5.097Z"/><path fill="url(#paint12_radial_4002_4111)" d="m9.512 12.204.062.002s-.068-1.084-.136-1.83c0-.338.136-.744.408-.948l.205-.203c.34-.27.477-.677.477-1.084V7.057c0-.338.204-.61.545-.677.817-.203 2.52-.542 4.973-.542s4.156.339 4.974.542c.272.068.544.339.544.677v1.084c0 .407.205.813.477 1.084.638.447.598.693.545 1.22-.068.677-.136 1.829-.136 1.829h.023l-.337 5.027c-.204 2.248-1.971 3.814-4.078 3.814H13.98c-2.174 0-3.873-1.566-4.077-3.814l-.391-5.097Z"/><path fill="url(#paint13_radial_4002_4111)" d="m9.512 12.204.062.002s-.068-1.084-.136-1.83c0-.338.136-.744.408-.948l.205-.203c.34-.27.477-.677.477-1.084V7.057c0-.338.204-.61.545-.677.817-.203 2.52-.542 4.973-.542s4.156.339 4.974.542c.272.068.544.339.544.677v1.084c0 .407.205.813.477 1.084.638.447.598.693.545 1.22-.068.677-.136 1.829-.136 1.829h.023l-.337 5.027c-.204 2.248-1.971 3.814-4.078 3.814H13.98c-2.174 0-3.873-1.566-4.077-3.814l-.391-5.097Z"/><path fill="url(#paint14_radial_4002_4111)" d="m9.512 12.204.062.002s-.068-1.084-.136-1.83c0-.338.136-.744.408-.948l.205-.203c.34-.27.477-.677.477-1.084V7.057c0-.338.204-.61.545-.677.817-.203 2.52-.542 4.973-.542s4.156.339 4.974.542c.272.068.544.339.544.677v1.084c0 .407.205.813.477 1.084.638.447.598.693.545 1.22-.068.677-.136 1.829-.136 1.829h.023l-.337 5.027c-.204 2.248-1.971 3.814-4.078 3.814H13.98c-2.174 0-3.873-1.566-4.077-3.814l-.391-5.097Z"/><path fill="url(#paint15_linear_4002_4111)" d="m9.512 12.204.062.002s-.068-1.084-.136-1.83c0-.338.136-.744.408-.948l.205-.203c.34-.27.477-.677.477-1.084V7.057c0-.338.204-.61.545-.677.817-.203 2.52-.542 4.973-.542s4.156.339 4.974.542c.272.068.544.339.544.677v1.084c0 .407.205.813.477 1.084.638.447.598.693.545 1.22-.068.677-.136 1.829-.136 1.829h.023l-.337 5.027c-.204 2.248-1.971 3.814-4.078 3.814H13.98c-2.174 0-3.873-1.566-4.077-3.814l-.391-5.097Z"/></g><g filter="url(#filter6_f_4002_4111)"><path fill="url(#paint16_linear_4002_4111)" d="m21.023 5.838-3.909 1.303a1.33 1.33 0 0 0 .598 2.58l3.886-.52-.575-3.363Z"/></g><g filter="url(#filter7_i_4002_4111)"><path fill="#21181B" d="m22.11 4.754.544.271c.954.474 1.5 1.558 1.295 2.71l-.75 3.861c-.066.399-.33.667-.726.677h-.023s.068-1.151.136-1.829c.056-.55-.04-.717-.545-1.219-.272-.27-.477-.677-.477-1.084V7.057c0-.338-.272-.61-.545-.677-.817-.203-2.52-.542-4.973-.542s-4.156.339-4.973.542c-.341.068-.545.339-.545.677v1.084c0 .407-.137.813-.477 1.084l-.205.203c-.272.204-.408.61-.408.949.068.745.136 1.829.136 1.829-.021 0-.042 0-.063-.002a.804.804 0 0 1-.755-.676l-.75-3.86c-.135-1.085.41-2.169 1.363-2.643l.545-.27c.341-.204.682-.475 1.022-.746l1.227-1.287c.75-.677 1.84-.88 2.793-.406.681.203 1.43.203 2.112 0 1.022-.339 2.18-.068 2.998.677l1.021 1.016c.273.339.614.542 1.022.745Z"/><path fill="url(#paint17_radial_4002_4111)" d="m22.11 4.754.544.271c.954.474 1.5 1.558 1.295 2.71l-.75 3.861c-.066.399-.33.667-.726.677h-.023s.068-1.151.136-1.829c.056-.55-.04-.717-.545-1.219-.272-.27-.477-.677-.477-1.084V7.057c0-.338-.272-.61-.545-.677-.817-.203-2.52-.542-4.973-.542s-4.156.339-4.973.542c-.341.068-.545.339-.545.677v1.084c0 .407-.137.813-.477 1.084l-.205.203c-.272.204-.408.61-.408.949.068.745.136 1.829.136 1.829-.021 0-.042 0-.063-.002a.804.804 0 0 1-.755-.676l-.75-3.86c-.135-1.085.41-2.169 1.363-2.643l.545-.27c.341-.204.682-.475 1.022-.746l1.227-1.287c.75-.677 1.84-.88 2.793-.406.681.203 1.43.203 2.112 0 1.022-.339 2.18-.068 2.998.677l1.021 1.016c.273.339.614.542 1.022.745Z"/><path fill="url(#paint18_radial_4002_4111)" d="m22.11 4.754.544.271c.954.474 1.5 1.558 1.295 2.71l-.75 3.861c-.066.399-.33.667-.726.677h-.023s.068-1.151.136-1.829c.056-.55-.04-.717-.545-1.219-.272-.27-.477-.677-.477-1.084V7.057c0-.338-.272-.61-.545-.677-.817-.203-2.52-.542-4.973-.542s-4.156.339-4.973.542c-.341.068-.545.339-.545.677v1.084c0 .407-.137.813-.477 1.084l-.205.203c-.272.204-.408.61-.408.949.068.745.136 1.829.136 1.829-.021 0-.042 0-.063-.002a.804.804 0 0 1-.755-.676l-.75-3.86c-.135-1.085.41-2.169 1.363-2.643l.545-.27c.341-.204.682-.475 1.022-.746l1.227-1.287c.75-.677 1.84-.88 2.793-.406.681.203 1.43.203 2.112 0 1.022-.339 2.18-.068 2.998.677l1.021 1.016c.273.339.614.542 1.022.745Z"/><path fill="url(#paint19_radial_4002_4111)" d="m22.11 4.754.544.271c.954.474 1.5 1.558 1.295 2.71l-.75 3.861c-.066.399-.33.667-.726.677h-.023s.068-1.151.136-1.829c.056-.55-.04-.717-.545-1.219-.272-.27-.477-.677-.477-1.084V7.057c0-.338-.272-.61-.545-.677-.817-.203-2.52-.542-4.973-.542s-4.156.339-4.973.542c-.341.068-.545.339-.545.677v1.084c0 .407-.137.813-.477 1.084l-.205.203c-.272.204-.408.61-.408.949.068.745.136 1.829.136 1.829-.021 0-.042 0-.063-.002a.804.804 0 0 1-.755-.676l-.75-3.86c-.135-1.085.41-2.169 1.363-2.643l.545-.27c.341-.204.682-.475 1.022-.746l1.227-1.287c.75-.677 1.84-.88 2.793-.406.681.203 1.43.203 2.112 0 1.022-.339 2.18-.068 2.998.677l1.021 1.016c.273.339.614.542 1.022.745Z"/><path fill="url(#paint20_radial_4002_4111)" d="m22.11 4.754.544.271c.954.474 1.5 1.558 1.295 2.71l-.75 3.861c-.066.399-.33.667-.726.677h-.023s.068-1.151.136-1.829c.056-.55-.04-.717-.545-1.219-.272-.27-.477-.677-.477-1.084V7.057c0-.338-.272-.61-.545-.677-.817-.203-2.52-.542-4.973-.542s-4.156.339-4.973.542c-.341.068-.545.339-.545.677v1.084c0 .407-.137.813-.477 1.084l-.205.203c-.272.204-.408.61-.408.949.068.745.136 1.829.136 1.829-.021 0-.042 0-.063-.002a.804.804 0 0 1-.755-.676l-.75-3.86c-.135-1.085.41-2.169 1.363-2.643l.545-.27c.341-.204.682-.475 1.022-.746l1.227-1.287c.75-.677 1.84-.88 2.793-.406.681.203 1.43.203 2.112 0 1.022-.339 2.18-.068 2.998.677l1.021 1.016c.273.339.614.542 1.022.745Z"/></g><g filter="url(#filter8_i_4002_4111)"><path fill="#1E1E1E" d="m20.713 9.527-.001-.001-.003-.002-.006-.005-.015-.012a1.826 1.826 0 0 0-.196-.136 3.284 3.284 0 0 0-.534-.268 3.598 3.598 0 0 0-1.895-.201.678.678 0 0 0 .211 1.34c.505-.08.91.012 1.186.122a1.93 1.93 0 0 1 .392.21.678.678 0 0 0 .861-1.047Z"/></g><g filter="url(#filter9_i_4002_4111)"><path fill="#1E1E1E" d="M11.196 9.528v-.001l.002-.001.002-.002.006-.005.015-.012a1.796 1.796 0 0 1 .197-.136c.127-.08.306-.178.533-.268a3.598 3.598 0 0 1 1.896-.201.678.678 0 1 1-.211 1.34c-.506-.08-.91.012-1.186.122a1.935 1.935 0 0 0-.392.21.678.678 0 0 1-.862-1.046Z"/></g><g filter="url(#filter10_f_4002_4111)"><path stroke="url(#paint21_linear_4002_4111)" stroke-linecap="round" stroke-width=".3" d="M18.098 9.344c.546-.096 1.612-.069 2.35.505"/></g><g filter="url(#filter11_f_4002_4111)"><path stroke="url(#paint22_linear_4002_4111)" stroke-linecap="round" stroke-width=".5" d="M11.469 10.002c.415-.367 1.323-.754 2.447-.575"/></g><g filter="url(#filter12_f_4002_4111)"><path stroke="url(#paint23_linear_4002_4111)" stroke-linecap="round" stroke-width=".25" d="M10.232 6.871v1.14c-.01.189-.09.61-.328.79"/></g><path fill="url(#paint24_radial_4002_4111)" d="M21.596 14.318c.404-.013.783-.15 1.09-.373v1.123a2.62 2.62 0 0 1-1.616 2.435c.205-.437.346-.914.417-1.423l.109-1.762Z"/><path fill="url(#paint25_radial_4002_4111)" d="M21.596 14.318c.404-.013.783-.15 1.09-.373v1.123a2.62 2.62 0 0 1-1.616 2.435c.205-.437.346-.914.417-1.423l.109-1.762Z"/><g filter="url(#filter13_f_4002_4111)"><path fill="url(#paint26_linear_4002_4111)" d="M17.44 8.542a.946.946 0 0 1 1.108.75l.356 1.849-.086-1.383a.946.946 0 1 1 1.888-.117l.197 3.17.327-.675a.989.989 0 0 1 1.78.863l-.817 1.684c-.174.42-.182.808-.19 1.218-.009.374-.017.767-.152 1.221-.236.796-.707 1.434-.913 1.653l-2.634.752c-2.028-.497-2.646-1.652-2.982-2.62a13.55 13.55 0 0 0-.658-1.585l-1.162-2.237a.946.946 0 1 1 1.678-.872l.194.371-.463-1.348a.946.946 0 0 1 1.79-.614l.404 1.18-.415-2.152a.946.946 0 0 1 .75-1.108Z"/></g><g filter="url(#filter14_i_4002_4111)"><path fill="url(#paint27_radial_4002_4111)" fill-rule="evenodd" d="M15.065 12.24c.15.109.184.319.074.469a2.019 2.019 0 0 1-1.641.828 2.046 2.046 0 0 1-1.639-.824.336.336 0 0 1 .538-.403c.256.34.656.555 1.1.555.457 0 .855-.216 1.099-.551a.337.337 0 0 1 .47-.075Z" clip-rule="evenodd"/></g><path fill="#280017" d="M18.191 17.566a2.466 2.466 0 0 0-2.06-1.12c-.861 0-1.618.45-2.059 1.12-.095.143.039.316.192.297h3.726c.164 0 .297-.144.201-.297Z"/><g filter="url(#filter15_i_4002_4111)"><path fill="#FFCA3D" d="M18.168 7.743a1.1 1.1 0 0 1 1.288.873l.415 2.15-.1-1.609a1.1 1.1 0 1 1 2.195-.136l.23 3.687.38-.785a1.15 1.15 0 1 1 2.07 1.004l-.95 1.958c-.203.488-.212.939-.222 1.417-.01.435-.019.892-.176 1.42-.275.925-.823 1.667-1.062 1.922l-3.063.875c-2.36-.578-3.078-1.922-3.468-3.047-.313-.9-.641-1.604-.766-1.844l-1.351-2.602a1.1 1.1 0 0 1 1.952-1.014l.225.432-.539-1.568a1.1 1.1 0 0 1 2.082-.714l.47 1.372-.482-2.502a1.1 1.1 0 0 1 .872-1.289Z"/><path fill="url(#paint28_radial_4002_4111)" d="M18.168 7.743a1.1 1.1 0 0 1 1.288.873l.415 2.15-.1-1.609a1.1 1.1 0 1 1 2.195-.136l.23 3.687.38-.785a1.15 1.15 0 1 1 2.07 1.004l-.95 1.958c-.203.488-.212.939-.222 1.417-.01.435-.019.892-.176 1.42-.275.925-.823 1.667-1.062 1.922l-3.063.875c-2.36-.578-3.078-1.922-3.468-3.047-.313-.9-.641-1.604-.766-1.844l-1.351-2.602a1.1 1.1 0 0 1 1.952-1.014l.225.432-.539-1.568a1.1 1.1 0 0 1 2.082-.714l.47 1.372-.482-2.502a1.1 1.1 0 0 1 .872-1.289Z"/><path fill="url(#paint29_radial_4002_4111)" d="M18.168 7.743a1.1 1.1 0 0 1 1.288.873l.415 2.15-.1-1.609a1.1 1.1 0 1 1 2.195-.136l.23 3.687.38-.785a1.15 1.15 0 1 1 2.07 1.004l-.95 1.958c-.203.488-.212.939-.222 1.417-.01.435-.019.892-.176 1.42-.275.925-.823 1.667-1.062 1.922l-3.063.875c-2.36-.578-3.078-1.922-3.468-3.047-.313-.9-.641-1.604-.766-1.844l-1.351-2.602a1.1 1.1 0 0 1 1.952-1.014l.225.432-.539-1.568a1.1 1.1 0 0 1 2.082-.714l.47 1.372-.482-2.502a1.1 1.1 0 0 1 .872-1.289Z"/><path fill="url(#paint30_radial_4002_4111)" d="M18.168 7.743a1.1 1.1 0 0 1 1.288.873l.415 2.15-.1-1.609a1.1 1.1 0 1 1 2.195-.136l.23 3.687.38-.785a1.15 1.15 0 1 1 2.07 1.004l-.95 1.958c-.203.488-.212.939-.222 1.417-.01.435-.019.892-.176 1.42-.275.925-.823 1.667-1.062 1.922l-3.063.875c-2.36-.578-3.078-1.922-3.468-3.047-.313-.9-.641-1.604-.766-1.844l-1.351-2.602a1.1 1.1 0 0 1 1.952-1.014l.225.432-.539-1.568a1.1 1.1 0 0 1 2.082-.714l.47 1.372-.482-2.502a1.1 1.1 0 0 1 .872-1.289Z"/><path fill="url(#paint31_radial_4002_4111)" d="M18.168 7.743a1.1 1.1 0 0 1 1.288.873l.415 2.15-.1-1.609a1.1 1.1 0 1 1 2.195-.136l.23 3.687.38-.785a1.15 1.15 0 1 1 2.07 1.004l-.95 1.958c-.203.488-.212.939-.222 1.417-.01.435-.019.892-.176 1.42-.275.925-.823 1.667-1.062 1.922l-3.063.875c-2.36-.578-3.078-1.922-3.468-3.047-.313-.9-.641-1.604-.766-1.844l-1.351-2.602a1.1 1.1 0 0 1 1.952-1.014l.225.432-.539-1.568a1.1 1.1 0 0 1 2.082-.714l.47 1.372-.482-2.502a1.1 1.1 0 0 1 .872-1.289Z"/></g><g filter="url(#filter16_ii_4002_4111)"><path fill="url(#paint32_radial_4002_4111)" d="M18.168 7.743a1.1 1.1 0 0 1 1.288.873l.415 2.15-.1-1.609a1.1 1.1 0 1 1 2.195-.136l.23 3.687.38-.785a1.15 1.15 0 1 1 2.07 1.004l-.95 1.958c-.203.488-.212.939-.222 1.417-.01.435-.019.892-.176 1.42-.275.925-.823 1.667-1.062 1.922l-3.063.875c-2.36-.578-3.078-1.922-3.468-3.047-.313-.9-.641-1.604-.766-1.844l-1.351-2.602a1.1 1.1 0 0 1 1.952-1.014l.225.432-.539-1.568a1.1 1.1 0 0 1 2.082-.714l.47 1.372-.482-2.502a1.1 1.1 0 0 1 .872-1.289Z"/><path fill="url(#paint33_radial_4002_4111)" d="M18.168 7.743a1.1 1.1 0 0 1 1.288.873l.415 2.15-.1-1.609a1.1 1.1 0 1 1 2.195-.136l.23 3.687.38-.785a1.15 1.15 0 1 1 2.07 1.004l-.95 1.958c-.203.488-.212.939-.222 1.417-.01.435-.019.892-.176 1.42-.275.925-.823 1.667-1.062 1.922l-3.063.875c-2.36-.578-3.078-1.922-3.468-3.047-.313-.9-.641-1.604-.766-1.844l-1.351-2.602a1.1 1.1 0 0 1 1.952-1.014l.225.432-.539-1.568a1.1 1.1 0 0 1 2.082-.714l.47 1.372-.482-2.502a1.1 1.1 0 0 1 .872-1.289Z"/><path fill="url(#paint34_radial_4002_4111)" d="M18.168 7.743a1.1 1.1 0 0 1 1.288.873l.415 2.15-.1-1.609a1.1 1.1 0 1 1 2.195-.136l.23 3.687.38-.785a1.15 1.15 0 1 1 2.07 1.004l-.95 1.958c-.203.488-.212.939-.222 1.417-.01.435-.019.892-.176 1.42-.275.925-.823 1.667-1.062 1.922l-3.063.875c-2.36-.578-3.078-1.922-3.468-3.047-.313-.9-.641-1.604-.766-1.844l-1.351-2.602a1.1 1.1 0 0 1 1.952-1.014l.225.432-.539-1.568a1.1 1.1 0 0 1 2.082-.714l.47 1.372-.482-2.502a1.1 1.1 0 0 1 .872-1.289Z"/><path fill="url(#paint35_radial_4002_4111)" d="M18.168 7.743a1.1 1.1 0 0 1 1.288.873l.415 2.15-.1-1.609a1.1 1.1 0 1 1 2.195-.136l.23 3.687.38-.785a1.15 1.15 0 1 1 2.07 1.004l-.95 1.958c-.203.488-.212.939-.222 1.417-.01.435-.019.892-.176 1.42-.275.925-.823 1.667-1.062 1.922l-3.063.875c-2.36-.578-3.078-1.922-3.468-3.047-.313-.9-.641-1.604-.766-1.844l-1.351-2.602a1.1 1.1 0 0 1 1.952-1.014l.225.432-.539-1.568a1.1 1.1 0 0 1 2.082-.714l.47 1.372-.482-2.502a1.1 1.1 0 0 1 .872-1.289Z"/><path fill="url(#paint36_radial_4002_4111)" d="M18.168 7.743a1.1 1.1 0 0 1 1.288.873l.415 2.15-.1-1.609a1.1 1.1 0 1 1 2.195-.136l.23 3.687.38-.785a1.15 1.15 0 1 1 2.07 1.004l-.95 1.958c-.203.488-.212.939-.222 1.417-.01.435-.019.892-.176 1.42-.275.925-.823 1.667-1.062 1.922l-3.063.875c-2.36-.578-3.078-1.922-3.468-3.047-.313-.9-.641-1.604-.766-1.844l-1.351-2.602a1.1 1.1 0 0 1 1.952-1.014l.225.432-.539-1.568a1.1 1.1 0 0 1 2.082-.714l.47 1.372-.482-2.502a1.1 1.1 0 0 1 .872-1.289Z"/><path fill="url(#paint37_radial_4002_4111)" d="M18.168 7.743a1.1 1.1 0 0 1 1.288.873l.415 2.15-.1-1.609a1.1 1.1 0 1 1 2.195-.136l.23 3.687.38-.785a1.15 1.15 0 1 1 2.07 1.004l-.95 1.958c-.203.488-.212.939-.222 1.417-.01.435-.019.892-.176 1.42-.275.925-.823 1.667-1.062 1.922l-3.063.875c-2.36-.578-3.078-1.922-3.468-3.047-.313-.9-.641-1.604-.766-1.844l-1.351-2.602a1.1 1.1 0 0 1 1.952-1.014l.225.432-.539-1.568a1.1 1.1 0 0 1 2.082-.714l.47 1.372-.482-2.502a1.1 1.1 0 0 1 .872-1.289Z"/></g><path fill="url(#paint38_radial_4002_4111)" d="M17.88 20.502a.25.25 0 0 1 .182-.302l4.733-1.205a.25.25 0 0 1 .305.184l.274 1.13-5.229 1.267-.264-1.074Z"/><path fill="url(#paint39_linear_4002_4111)" d="M17.88 20.502a.25.25 0 0 1 .182-.302l4.733-1.205a.25.25 0 0 1 .305.184l.274 1.13-5.229 1.267-.264-1.074Z"/><path fill="url(#paint40_linear_4002_4111)" d="M17.317 22.576a1 1 0 0 1 .723-1.221l5.303-1.339a1 1 0 0 1 1.213.718l2.414 9.29h-7.719l-1.934-7.448Z"/><path fill="url(#paint41_radial_4002_4111)" d="M17.317 22.576a1 1 0 0 1 .723-1.221l5.303-1.339a1 1 0 0 1 1.213.718l2.414 9.29h-7.719l-1.934-7.448Z"/><path fill="url(#paint42_linear_4002_4111)" d="M17.317 22.576a1 1 0 0 1 .723-1.221l5.303-1.339a1 1 0 0 1 1.213.718l2.414 9.29h-7.719l-1.934-7.448Z"/><path fill="url(#paint43_linear_4002_4111)" d="M17.317 22.576a1 1 0 0 1 .723-1.221l5.303-1.339a1 1 0 0 1 1.213.718l2.414 9.29h-7.719l-1.934-7.448Z"/><g filter="url(#filter17_f_4002_4111)"><path stroke="#655553" stroke-linecap="round" stroke-width=".75" d="m18.719 8.88.718 4"/></g><g filter="url(#filter18_f_4002_4111)"><path stroke="#655553" stroke-linecap="round" stroke-width=".75" d="m16.656 10.661 1 2.875"/></g><g filter="url(#filter19_f_4002_4111)"><path stroke="#655553" stroke-linecap="round" stroke-width=".75" d="m14.844 12.692 1.094 2"/></g><g filter="url(#filter20_f_4002_4111)"><path stroke="url(#paint44_linear_4002_4111)" stroke-linecap="round" stroke-width=".75" d="m23.876 12.566-.937 1.89a3.557 3.557 0 0 0-.36 1.782c.079.968-.265 1.828-.64 2.234"/></g><g filter="url(#filter21_f_4002_4111)"><path stroke="url(#paint45_linear_4002_4111)" stroke-linecap="round" stroke-width=".75" d="m21.08 8.878.671 8.438"/></g><defs><radialGradient id="paint0_radial_4002_4111" cx="0" cy="0" r="1" gradientTransform="matrix(-6.38721 2.45336 -5.57243 -14.5076 21.385 26.41)" gradientUnits="userSpaceOnUse"><stop offset=".52" stop-color="#1D6FC7"/><stop offset="1" stop-color="#1D6FC7" stop-opacity="0"/></radialGradient><radialGradient id="paint1_radial_4002_4111" cx="0" cy="0" r="1" gradientTransform="matrix(0 4.84375 -6.97792 0 16 18.207)" gradientUnits="userSpaceOnUse"><stop offset=".503" stop-color="#115284"/><stop offset="1" stop-color="#115284" stop-opacity="0"/></radialGradient><radialGradient id="paint2_radial_4002_4111" cx="0" cy="0" r="1" gradientTransform="matrix(2.32812 3.40625 -3.8571 2.63627 14.688 20.394)" gradientUnits="userSpaceOnUse"><stop offset=".191" stop-color="#261319"/><stop offset=".878" stop-color="#302527"/></radialGradient><radialGradient id="paint4_radial_4002_4111" cx="0" cy="0" r="1" gradientTransform="matrix(2.22889 0 0 3.90057 7.838 12.982)" gradientUnits="userSpaceOnUse"><stop offset=".351" stop-color="#362324"/><stop offset="1" stop-color="#332423"/></radialGradient><radialGradient id="paint7_radial_4002_4111" cx="0" cy="0" r="1" gradientTransform="matrix(1.05001 -.76457 .87266 1.19846 22.514 12.646)" gradientUnits="userSpaceOnUse"><stop offset=".543" stop-color="#40272A"/><stop offset="1" stop-color="#40272A" stop-opacity="0"/></radialGradient><radialGradient id="paint8_radial_4002_4111" cx="0" cy="0" r="1" gradientTransform="matrix(1.04311 -1.91854 1.12293 .61054 21.99 14.026)" gradientUnits="userSpaceOnUse"><stop offset=".755" stop-color="#31191A" stop-opacity="0"/><stop offset=".916" stop-color="#31191A"/></radialGradient><radialGradient id="paint9_radial_4002_4111" cx="0" cy="0" r="1" gradientTransform="matrix(.32932 .32599 -.42024 .42454 22.041 12.982)" gradientUnits="userSpaceOnUse"><stop stop-color="#352123"/><stop offset="1" stop-color="#352123" stop-opacity="0"/></radialGradient><radialGradient id="paint12_radial_4002_4111" cx="0" cy="0" r="1" gradientTransform="matrix(0 9.02439 -12.2501 0 15.606 12.73)" gradientUnits="userSpaceOnUse"><stop offset=".561" stop-color="#3D2138" stop-opacity="0"/><stop offset="1" stop-color="#3D2138"/></radialGradient><radialGradient id="paint13_radial_4002_4111" cx="0" cy="0" r="1" gradientTransform="matrix(0 -1.66015 2.04326 0 18.969 11.367)" gradientUnits="userSpaceOnUse"><stop stop-color="#412628"/><stop offset="1" stop-color="#412628" stop-opacity="0"/></radialGradient><radialGradient id="paint14_radial_4002_4111" cx="0" cy="0" r="1" gradientTransform="matrix(0 -1.76657 2.19688 0 13.18 11.324)" gradientUnits="userSpaceOnUse"><stop stop-color="#351D26"/><stop offset="1" stop-color="#351D26" stop-opacity="0"/></radialGradient><radialGradient id="paint17_radial_4002_4111" cx="0" cy="0" r="1" gradientTransform="matrix(1.01333 -3.75526 1.39257 .37577 21.508 7.766)" gradientUnits="userSpaceOnUse"><stop stop-color="#464344"/><stop offset="1" stop-color="#464344" stop-opacity="0"/></radialGradient><radialGradient id="paint18_radial_4002_4111" cx="0" cy="0" r="1" gradientTransform="matrix(4.858 .44705 -.24038 2.61211 19.421 5.531)" gradientUnits="userSpaceOnUse"><stop offset=".122" stop-color="#4A4648"/><stop offset="1" stop-color="#4A4648" stop-opacity="0"/></radialGradient><radialGradient id="paint19_radial_4002_4111" cx="0" cy="0" r="1" gradientTransform="matrix(0 2.13275 -3.30303 0 15.989 2.057)" gradientUnits="userSpaceOnUse"><stop stop-color="#423D3F"/><stop offset="1" stop-color="#423D3F" stop-opacity="0"/></radialGradient><radialGradient id="paint20_radial_4002_4111" cx="0" cy="0" r="1" gradientTransform="matrix(3.90428 -2.86115 4.48249 6.11673 7.798 10.717)" gradientUnits="userSpaceOnUse"><stop stop-color="#463C39"/><stop offset="1" stop-color="#463C39" stop-opacity="0"/></radialGradient><radialGradient id="paint24_radial_4002_4111" cx="0" cy="0" r="1" gradientTransform="matrix(-.92987 3.82055 -4.53851 -1.1046 22.424 13.945)" gradientUnits="userSpaceOnUse"><stop offset=".043" stop-color="#FFC135"/><stop offset=".909" stop-color="#E26839"/></radialGradient><radialGradient id="paint25_radial_4002_4111" cx="0" cy="0" r="1" gradientTransform="matrix(.35375 .48515 -.41214 .30052 21.524 14.27)" gradientUnits="userSpaceOnUse"><stop stop-color="#E18C2A"/><stop offset="1" stop-color="#E18C2A" stop-opacity="0"/></radialGradient><radialGradient id="paint27_radial_4002_4111" cx="0" cy="0" r="1" gradientTransform="matrix(1.60227 1.22796 -.50064 .65325 11.994 12.037)" gradientUnits="userSpaceOnUse"><stop stop-color="#282828"/><stop offset="1" stop-color="#0F0914"/></radialGradient><radialGradient id="paint28_radial_4002_4111" cx="0" cy="0" r="1" gradientTransform="matrix(1 2.48437 -.40982 .16496 15.486 11.769)" gradientUnits="userSpaceOnUse"><stop stop-color="#F69202"/><stop offset="1" stop-color="#F69202" stop-opacity="0"/></radialGradient><radialGradient id="paint29_radial_4002_4111" cx="0" cy="0" r="1" gradientTransform="matrix(.98438 3.84375 -.63406 .16238 17.314 9.613)" gradientUnits="userSpaceOnUse"><stop stop-color="#F69202"/><stop offset="1" stop-color="#F69202" stop-opacity="0"/></radialGradient><radialGradient id="paint30_radial_4002_4111" cx="0" cy="0" r="1" gradientTransform="matrix(.65625 4.375 -.54534 .0818 19.595 8.8)" gradientUnits="userSpaceOnUse"><stop stop-color="#F69202"/><stop offset="1" stop-color="#F69202" stop-opacity="0"/></radialGradient><radialGradient id="paint31_radial_4002_4111" cx="0" cy="0" r="1" gradientTransform="matrix(-.29552 3.9685 -.3574 -.02661 22.61 10.66)" gradientUnits="userSpaceOnUse"><stop offset=".129" stop-color="#F69202"/><stop offset="1" stop-color="#F69202" stop-opacity="0"/></radialGradient><radialGradient id="paint32_radial_4002_4111" cx="0" cy="0" r="1" gradientTransform="matrix(-2.12305 8.4804 -7.48749 -1.87448 21.235 12.039)" gradientUnits="userSpaceOnUse"><stop stop-color="#4D3236"/><stop offset="1" stop-color="#482B34"/></radialGradient><radialGradient id="paint33_radial_4002_4111" cx="0" cy="0" r="1" gradientTransform="matrix(1 2.48437 -.40982 .16496 15.486 11.769)" gradientUnits="userSpaceOnUse"><stop offset=".545" stop-color="#3F2A28"/><stop offset="1" stop-color="#3F2A28" stop-opacity="0"/></radialGradient><radialGradient id="paint34_radial_4002_4111" cx="0" cy="0" r="1" gradientTransform="matrix(.98438 3.84375 -.63406 .16238 17.314 9.613)" gradientUnits="userSpaceOnUse"><stop stop-color="#3F2A28"/><stop offset="1" stop-color="#3F2A28" stop-opacity="0"/></radialGradient><radialGradient id="paint35_radial_4002_4111" cx="0" cy="0" r="1" gradientTransform="matrix(.65625 4.375 -.54534 .0818 19.595 8.8)" gradientUnits="userSpaceOnUse"><stop stop-color="#3F2A28"/><stop offset="1" stop-color="#3F2A28" stop-opacity="0"/></radialGradient><radialGradient id="paint36_radial_4002_4111" cx="0" cy="0" r="1" gradientTransform="rotate(98.227 6.79 15.272) scale(3.93108 .49375)" gradientUnits="userSpaceOnUse"><stop offset=".001" stop-color="#3F2A28"/><stop offset="1" stop-color="#3F2A28" stop-opacity="0"/></radialGradient><radialGradient id="paint37_radial_4002_4111" cx="0" cy="0" r="1" gradientTransform="rotate(-171.87 11.552 6.882) scale(1.98874 3.13779)" gradientUnits="userSpaceOnUse"><stop stop-color="#6C5957"/><stop offset="1" stop-color="#503438" stop-opacity="0"/></radialGradient><radialGradient id="paint38_radial_4002_4111" cx="0" cy="0" r="1" gradientTransform="rotate(165.742 9.82 11.316) scale(3.42011 2.21707)" gradientUnits="userSpaceOnUse"><stop stop-color="#489ED5"/><stop offset="1" stop-color="#20669E"/></radialGradient><radialGradient id="paint41_radial_4002_4111" cx="0" cy="0" r="1" gradientTransform="matrix(2.29332 10.73456 -3.15485 .674 23.298 21.347)" gradientUnits="userSpaceOnUse"><stop stop-color="#47C9FF"/><stop offset="1" stop-color="#1C9AE9" stop-opacity="0"/></radialGradient><filter id="filter0_i_4002_4111" width="20.98" height="11.16" x="6.01" y="19.846" color-interpolation-filters="sRGB" filterUnits="userSpaceOnUse"><feFlood flood-opacity="0" result="BackgroundImageFix"/><feBlend in="SourceGraphic" in2="BackgroundImageFix" result="shape"/><feColorMatrix in="SourceAlpha" result="hardAlpha" values="0 0 0 0 0 0 0 0 0 0 0 0 0 0 0 0 0 0 127 0"/><feOffset dx="1" dy="1"/><feGaussianBlur stdDeviation="1"/><feComposite in2="hardAlpha" k2="-1" k3="1" operator="arithmetic"/><feColorMatrix values="0 0 0 0 0.254902 0 0 0 0 0.501961 0 0 0 0 0.682353 0 0 0 1 0"/><feBlend in2="shape" result="effect1_innerShadow_4002_4111"/></filter><filter id="filter1_i_4002_4111" width="4.441" height="4.241" x="7.838" y="10.861" color-interpolation-filters="sRGB" filterUnits="userSpaceOnUse"><feFlood flood-opacity="0" result="BackgroundImageFix"/><feBlend in="SourceGraphic" in2="BackgroundImageFix" result="shape"/><feColorMatrix in="SourceAlpha" result="hardAlpha" values="0 0 0 0 0 0 0 0 0 0 0 0 0 0 0 0 0 0 127 0"/><feOffset dx=".2"/><feGaussianBlur stdDeviation=".15"/><feComposite in2="hardAlpha" k2="-1" k3="1" operator="arithmetic"/><feColorMatrix values="0 0 0 0 0.341176 0 0 0 0 0.270588 0 0 0 0 0.254902 0 0 0 1 0"/><feBlend in2="shape" result="effect1_innerShadow_4002_4111"/></filter><filter id="filter2_f_4002_4111" width="3.527" height="3.527" x="8.195" y="11.218" color-interpolation-filters="sRGB" filterUnits="userSpaceOnUse"><feFlood flood-opacity="0" result="BackgroundImageFix"/><feBlend in="SourceGraphic" in2="BackgroundImageFix" result="shape"/><feGaussianBlur result="effect1_foregroundBlur_4002_4111" stdDeviation=".25"/></filter><filter id="filter3_i_4002_4111" width="4.491" height="4.491" x="19.921" y="10.611" color-interpolation-filters="sRGB" filterUnits="userSpaceOnUse"><feFlood flood-opacity="0" result="BackgroundImageFix"/><feBlend in="SourceGraphic" in2="BackgroundImageFix" result="shape"/><feColorMatrix in="SourceAlpha" result="hardAlpha" values="0 0 0 0 0 0 0 0 0 0 0 0 0 0 0 0 0 0 127 0"/><feOffset dx=".25" dy="-.25"/><feGaussianBlur stdDeviation=".25"/><feComposite in2="hardAlpha" k2="-1" k3="1" operator="arithmetic"/><feColorMatrix values="0 0 0 0 0.243137 0 0 0 0 0.141176 0 0 0 0 0.223529 0 0 0 1 0"/><feBlend in2="shape" result="effect1_innerShadow_4002_4111"/></filter><filter id="filter4_f_4002_4111" width="3.527" height="3.527" x="20.278" y="11.218" color-interpolation-filters="sRGB" filterUnits="userSpaceOnUse"><feFlood flood-opacity="0" result="BackgroundImageFix"/><feBlend in="SourceGraphic" in2="BackgroundImageFix" result="shape"/><feGaussianBlur result="effect1_foregroundBlur_4002_4111" stdDeviation=".25"/></filter><filter id="filter5_i_4002_4111" width="13.176" height="15.527" x="9.438" y="5.838" color-interpolation-filters="sRGB" filterUnits="userSpaceOnUse"><feFlood flood-opacity="0" result="BackgroundImageFix"/><feBlend in="SourceGraphic" in2="BackgroundImageFix" result="shape"/><feColorMatrix in="SourceAlpha" result="hardAlpha" values="0 0 0 0 0 0 0 0 0 0 0 0 0 0 0 0 0 0 127 0"/><feOffset dy=".25"/><feGaussianBlur stdDeviation=".375"/><feComposite in2="hardAlpha" k2="-1" k3="1" operator="arithmetic"/><feColorMatrix values="0 0 0 0 0.109804 0 0 0 0 0.0509804 0 0 0 0 0.0509804 0 0 0 1 0"/><feBlend in2="shape" result="effect1_innerShadow_4002_4111"/></filter><filter id="filter6_f_4002_4111" width="9.393" height="7.895" x="14.205" y="3.838" color-interpolation-filters="sRGB" filterUnits="userSpaceOnUse"><feFlood flood-opacity="0" result="BackgroundImageFix"/><feBlend in="SourceGraphic" in2="BackgroundImageFix" result="shape"/><feGaussianBlur result="effect1_foregroundBlur_4002_4111" stdDeviation="1"/></filter><filter id="filter7_i_4002_4111" width="16.006" height="10.716" x="7.986" y="1.557" color-interpolation-filters="sRGB" filterUnits="userSpaceOnUse"><feFlood flood-opacity="0" result="BackgroundImageFix"/><feBlend in="SourceGraphic" in2="BackgroundImageFix" result="shape"/><feColorMatrix in="SourceAlpha" result="hardAlpha" values="0 0 0 0 0 0 0 0 0 0 0 0 0 0 0 0 0 0 127 0"/><feOffset dy="-.5"/><feGaussianBlur stdDeviation=".375"/><feComposite in2="hardAlpha" k2="-1" k3="1" operator="arithmetic"/><feColorMatrix values="0 0 0 0 0.0392157 0 0 0 0 0.00784314 0 0 0 0 0.0196078 0 0 0 1 0"/><feBlend in2="shape" result="effect1_innerShadow_4002_4111"/></filter><filter id="filter8_i_4002_4111" width="3.717" height="2.271" x="17.49" y="8.455" color-interpolation-filters="sRGB" filterUnits="userSpaceOnUse"><feFlood flood-opacity="0" result="BackgroundImageFix"/><feBlend in="SourceGraphic" in2="BackgroundImageFix" result="shape"/><feColorMatrix in="SourceAlpha" result="hardAlpha" values="0 0 0 0 0 0 0 0 0 0 0 0 0 0 0 0 0 0 127 0"/><feOffset dx=".25" dy="-.4"/><feGaussianBlur stdDeviation=".3"/><feComposite in2="hardAlpha" k2="-1" k3="1" operator="arithmetic"/><feColorMatrix values="0 0 0 0 0.0431373 0 0 0 0 0.0196078 0 0 0 0 0.027451 0 0 0 1 0"/><feBlend in2="shape" result="effect1_innerShadow_4002_4111"/></filter><filter id="filter9_i_4002_4111" width="3.717" height="2.271" x="10.952" y="8.455" color-interpolation-filters="sRGB" filterUnits="userSpaceOnUse"><feFlood flood-opacity="0" result="BackgroundImageFix"/><feBlend in="SourceGraphic" in2="BackgroundImageFix" result="shape"/><feColorMatrix in="SourceAlpha" result="hardAlpha" values="0 0 0 0 0 0 0 0 0 0 0 0 0 0 0 0 0 0 127 0"/><feOffset dx=".25" dy="-.4"/><feGaussianBlur stdDeviation=".3"/><feComposite in2="hardAlpha" k2="-1" k3="1" operator="arithmetic"/><feColorMatrix values="0 0 0 0 0.0431373 0 0 0 0 0.0196078 0 0 0 0 0.027451 0 0 0 1 0"/><feBlend in2="shape" result="effect1_innerShadow_4002_4111"/></filter><filter id="filter10_f_4002_4111" width="3.249" height="1.448" x="17.648" y="8.851" color-interpolation-filters="sRGB" filterUnits="userSpaceOnUse"><feFlood flood-opacity="0" result="BackgroundImageFix"/><feBlend in="SourceGraphic" in2="BackgroundImageFix" result="shape"/><feGaussianBlur result="effect1_foregroundBlur_4002_4111" stdDeviation=".15"/></filter><filter id="filter11_f_4002_4111" width="3.548" height="1.72" x="10.919" y="8.832" color-interpolation-filters="sRGB" filterUnits="userSpaceOnUse"><feFlood flood-opacity="0" result="BackgroundImageFix"/><feBlend in="SourceGraphic" in2="BackgroundImageFix" result="shape"/><feGaussianBlur result="effect1_foregroundBlur_4002_4111" stdDeviation=".15"/></filter><filter id="filter12_f_4002_4111" width="1.078" height="2.68" x="9.529" y="6.496" color-interpolation-filters="sRGB" filterUnits="userSpaceOnUse"><feFlood flood-opacity="0" result="BackgroundImageFix"/><feBlend in="SourceGraphic" in2="BackgroundImageFix" result="shape"/><feGaussianBlur result="effect1_foregroundBlur_4002_4111" stdDeviation=".125"/></filter><filter id="filter13_f_4002_4111" width="12.214" height="13.502" x="12.145" y="7.275" color-interpolation-filters="sRGB" filterUnits="userSpaceOnUse"><feFlood flood-opacity="0" result="BackgroundImageFix"/><feBlend in="SourceGraphic" in2="BackgroundImageFix" result="shape"/><feGaussianBlur result="effect1_foregroundBlur_4002_4111" stdDeviation=".625"/></filter><filter id="filter14_i_4002_4111" width="3.412" height="1.462" x="11.792" y="12.075" color-interpolation-filters="sRGB" filterUnits="userSpaceOnUse"><feFlood flood-opacity="0" result="BackgroundImageFix"/><feBlend in="SourceGraphic" in2="BackgroundImageFix" result="shape"/><feColorMatrix in="SourceAlpha" result="hardAlpha" values="0 0 0 0 0 0 0 0 0 0 0 0 0 0 0 0 0 0 127 0"/><feOffset dy="-.1"/><feGaussianBlur stdDeviation=".1"/><feComposite in2="hardAlpha" k2="-1" k3="1" operator="arithmetic"/><feColorMatrix values="0 0 0 0 0.0470588 0 0 0 0 0.0235294 0 0 0 0 0.0627451 0 0 0 1 0"/><feBlend in2="shape" result="effect1_innerShadow_4002_4111"/></filter><filter id="filter15_i_4002_4111" width="12.047" height="12.796" x="13.464" y="7.723" color-interpolation-filters="sRGB" filterUnits="userSpaceOnUse"><feFlood flood-opacity="0" result="BackgroundImageFix"/><feBlend in="SourceGraphic" in2="BackgroundImageFix" result="shape"/><feColorMatrix in="SourceAlpha" result="hardAlpha" values="0 0 0 0 0 0 0 0 0 0 0 0 0 0 0 0 0 0 127 0"/><feOffset dx=".75"/><feGaussianBlur stdDeviation=".75"/><feComposite in2="hardAlpha" k2="-1" k3="1" operator="arithmetic"/><feColorMatrix values="0 0 0 0 0.968627 0 0 0 0 0.607843 0 0 0 0 0.0313726 0 0 0 1 0"/><feBlend in2="shape" result="effect1_innerShadow_4002_4111"/></filter><filter id="filter16_ii_4002_4111" width="11.797" height="12.796" x="13.464" y="7.723" color-interpolation-filters="sRGB" filterUnits="userSpaceOnUse"><feFlood flood-opacity="0" result="BackgroundImageFix"/><feBlend in="SourceGraphic" in2="BackgroundImageFix" result="shape"/><feColorMatrix in="SourceAlpha" result="hardAlpha" values="0 0 0 0 0 0 0 0 0 0 0 0 0 0 0 0 0 0 127 0"/><feOffset dx=".5"/><feGaussianBlur stdDeviation=".75"/><feComposite in2="hardAlpha" k2="-1" k3="1" operator="arithmetic"/><feColorMatrix values="0 0 0 0 0.168627 0 0 0 0 0.0784314 0 0 0 0 0.0823529 0 0 0 1 0"/><feBlend in2="shape" result="effect1_innerShadow_4002_4111"/><feColorMatrix in="SourceAlpha" result="hardAlpha" values="0 0 0 0 0 0 0 0 0 0 0 0 0 0 0 0 0 0 127 0"/><feOffset dx=".1"/><feGaussianBlur stdDeviation=".05"/><feComposite in2="hardAlpha" k2="-1" k3="1" operator="arithmetic"/><feColorMatrix values="0 0 0 0 0.294118 0 0 0 0 0.215686 0 0 0 0 0.211765 0 0 0 1 0"/><feBlend in2="effect1_innerShadow_4002_4111" result="effect2_innerShadow_4002_4111"/></filter><filter id="filter17_f_4002_4111" width="2.469" height="5.75" x="17.844" y="8.005" color-interpolation-filters="sRGB" filterUnits="userSpaceOnUse"><feFlood flood-opacity="0" result="BackgroundImageFix"/><feBlend in="SourceGraphic" in2="BackgroundImageFix" result="shape"/><feGaussianBlur result="effect1_foregroundBlur_4002_4111" stdDeviation=".25"/></filter><filter id="filter18_f_4002_4111" width="2.75" height="4.625" x="15.781" y="9.786" color-interpolation-filters="sRGB" filterUnits="userSpaceOnUse"><feFlood flood-opacity="0" result="BackgroundImageFix"/><feBlend in="SourceGraphic" in2="BackgroundImageFix" result="shape"/><feGaussianBlur result="effect1_foregroundBlur_4002_4111" stdDeviation=".25"/></filter><filter id="filter19_f_4002_4111" width="2.844" height="3.75" x="13.969" y="11.817" color-interpolation-filters="sRGB" filterUnits="userSpaceOnUse"><feFlood flood-opacity="0" result="BackgroundImageFix"/><feBlend in="SourceGraphic" in2="BackgroundImageFix" result="shape"/><feGaussianBlur result="effect1_foregroundBlur_4002_4111" stdDeviation=".25"/></filter><filter id="filter20_f_4002_4111" width="3.688" height="7.656" x="21.064" y="11.691" color-interpolation-filters="sRGB" filterUnits="userSpaceOnUse"><feFlood flood-opacity="0" result="BackgroundImageFix"/><feBlend in="SourceGraphic" in2="BackgroundImageFix" result="shape"/><feGaussianBlur result="effect1_foregroundBlur_4002_4111" stdDeviation=".25"/></filter><filter id="filter21_f_4002_4111" width="2.422" height="10.188" x="20.204" y="8.003" color-interpolation-filters="sRGB" filterUnits="userSpaceOnUse"><feFlood flood-opacity="0" result="BackgroundImageFix"/><feBlend in="SourceGraphic" in2="BackgroundImageFix" result="shape"/><feGaussianBlur result="effect1_foregroundBlur_4002_4111" stdDeviation=".25"/></filter><linearGradient id="paint3_linear_4002_4111" x1="13.046" x2="14.526" y1="21.19" y2="21.19" gradientUnits="userSpaceOnUse"><stop stop-color="#2F1F20"/><stop offset="1" stop-color="#2F1F20" stop-opacity="0"/></linearGradient><linearGradient id="paint5_linear_4002_4111" x1="9.959" x2="9.145" y1="13.336" y2="13.336" gradientUnits="userSpaceOnUse"><stop stop-color="#281920"/><stop offset="1" stop-color="#27161D"/></linearGradient><linearGradient id="paint6_linear_4002_4111" x1="23.421" x2="22.382" y1="11.595" y2="14.817" gradientUnits="userSpaceOnUse"><stop stop-color="#635251"/><stop offset="1" stop-color="#452A31"/></linearGradient><linearGradient id="paint10_linear_4002_4111" x1="21.115" x2="11.415" y1="13.477" y2="14.922" gradientUnits="userSpaceOnUse"><stop stop-color="#533531"/><stop offset="1" stop-color="#3C2828"/></linearGradient><linearGradient id="paint11_linear_4002_4111" x1="9.75" x2="12.063" y1="16.849" y2="16.63" gradientUnits="userSpaceOnUse"><stop offset=".092" stop-color="#564440"/><stop offset="1" stop-color="#564440" stop-opacity="0"/></linearGradient><linearGradient id="paint15_linear_4002_4111" x1="16.026" x2="16.026" y1="-7.193" y2="21.37" gradientUnits="userSpaceOnUse"><stop offset=".979" stop-color="#624D68" stop-opacity="0"/><stop offset="1" stop-color="#624D68"/></linearGradient><linearGradient id="paint16_linear_4002_4111" x1="15.314" x2="25.658" y1="9.686" y2="5.982" gradientUnits="userSpaceOnUse"><stop stop-color="#685654"/><stop offset="1" stop-color="#685654" stop-opacity="0"/></linearGradient><linearGradient id="paint21_linear_4002_4111" x1="19.764" x2="19.231" y1="9.467" y2="8.376" gradientUnits="userSpaceOnUse"><stop stop-color="#353435"/><stop offset="1" stop-color="#353435" stop-opacity="0"/></linearGradient><linearGradient id="paint22_linear_4002_4111" x1="13.027" x2="11.516" y1="9.304" y2="8.671" gradientUnits="userSpaceOnUse"><stop stop-color="#353435"/><stop offset="1" stop-color="#353435" stop-opacity="0"/></linearGradient><linearGradient id="paint23_linear_4002_4111" x1="10.068" x2="10.068" y1="6.746" y2="9.485" gradientUnits="userSpaceOnUse"><stop stop-color="#3C393A"/><stop offset="1" stop-color="#3C393A" stop-opacity="0"/></linearGradient><linearGradient id="paint26_linear_4002_4111" x1="18.252" x2="15.551" y1="8.525" y2="19.191" gradientUnits="userSpaceOnUse"><stop stop-color="#221212"/><stop offset="1" stop-color="#2B1726"/></linearGradient><linearGradient id="paint39_linear_4002_4111" x1="20.454" x2="20.552" y1="19.499" y2="19.863" gradientUnits="userSpaceOnUse"><stop offset=".245" stop-color="#1B7DB4"/><stop offset="1" stop-color="#1B7DB4" stop-opacity="0"/></linearGradient><linearGradient id="paint40_linear_4002_4111" x1="19.704" x2="26.142" y1="28.191" y2="26.816" gradientUnits="userSpaceOnUse"><stop stop-color="#2474C2"/><stop offset="1" stop-color="#45AAED"/></linearGradient><linearGradient id="paint42_linear_4002_4111" x1="18.5" x2="19.719" y1="27.863" y2="27.488" gradientUnits="userSpaceOnUse"><stop stop-color="#3476BA"/><stop offset="1" stop-color="#3476BA" stop-opacity="0"/></linearGradient><linearGradient id="paint43_linear_4002_4111" x1="20.154" x2="20.498" y1="20.457" y2="21.894" gradientUnits="userSpaceOnUse"><stop offset=".19" stop-color="#0792D5"/><stop offset="1" stop-color="#0792D5" stop-opacity="0"/></linearGradient><linearGradient id="paint44_linear_4002_4111" x1="21.939" x2="22.054" y1="13.668" y2="18.762" gradientUnits="userSpaceOnUse"><stop stop-color="#655553"/><stop offset="1" stop-color="#655553" stop-opacity="0"/></linearGradient><linearGradient id="paint45_linear_4002_4111" x1="21.079" x2="21.751" y1="10.453" y2="17.672" gradientUnits="userSpaceOnUse"><stop stop-color="#655553"/><stop offset="1" stop-color="#655553" stop-opacity="0"/></linearGradient></defs></svg>