<svg xmlns="http://www.w3.org/2000/svg" width="32" height="32" fill="none" viewBox="0 0 32 32"><path fill="url(#paint0_linear_4002_2472)" d="M16.005 15.5c-6.07 0-11 4.92-11 11V30h21.99v-3.5c0-6.08-4.92-11-10.99-11Z"/><path fill="url(#paint1_radial_4002_2472)" d="M16.005 15.5c-6.07 0-11 4.92-11 11V30h21.99v-3.5c0-6.08-4.92-11-10.99-11Z"/><path fill="url(#paint2_radial_4002_2472)" d="M23.13 18.124V30h3.865v-3.5c0-3.357-1.5-6.36-3.865-8.377Z"/><path fill="url(#paint3_radial_4002_2472)" d="M23.13 18.124V30h3.865v-3.5c0-3.357-1.5-6.36-3.865-8.377Z"/><path fill="url(#paint4_radial_4002_2472)" d="M8.88 30V18.12a10.974 10.974 0 0 0-3.875 8.38V30H8.88Z"/><path fill="url(#paint5_linear_4002_2472)" d="M8.88 30V18.12a10.974 10.974 0 0 0-3.875 8.38V30H8.88Z"/><path fill="url(#paint6_radial_4002_2472)" d="M8.88 30V18.12a10.974 10.974 0 0 0-3.875 8.38V30H8.88Z"/><path fill="url(#paint7_radial_4002_2472)" d="M18.705 16.11h-5.41V30h5.41V16.11Z"/><path fill="url(#paint8_linear_4002_2472)" d="M18.705 16.11h-5.41V30h5.41V16.11Z"/><path fill="url(#paint9_linear_4002_2472)" d="M18.705 16.11h-5.41V30h5.41V16.11Z"/><path fill="url(#paint10_radial_4002_2472)" d="M18.705 16.11h-5.41V30h5.41V16.11Z"/><g filter="url(#filter0_f_4002_2472)"><path fill="#8F809C" d="M16.005 15.348h-2.516v4.74c0 .31.335.49.567.29l1.949-1.67 1.95 1.67c.231.2.566.02.566-.29v-4.74h-2.516Z"/></g><path fill="url(#paint11_radial_4002_2472)" d="M15.517 21.044a.25.25 0 0 0-.247.212l-1.335 8.745h4.12l-1.33-8.745a.25.25 0 0 0-.247-.212h-.96Z"/><g filter="url(#filter1_f_4002_2472)"><path fill="#44375D" d="M12.795 16.462c-.46.117-.364.098-.8.27-.54.784-1.546 2.2-1.85 2.874-.09.19.05.41.26.41l1.18-.174c.24 0 .35.29.19.45l-1.37 1.196c-.26.26-.36.65-.23 1l2.894 6.334-.274-12.36Z"/></g><g filter="url(#filter2_ii_4002_2472)"><path fill="url(#paint12_linear_4002_2472)" d="M13.295 15.837c-.46.117-.91.262-1.345.435a.193.193 0 0 1-.035.019l-1.27 2.69c-.09.19.05.41.26.41h1.05c.24 0 .35.29.19.45l-1.36 1.33c-.26.26-.36.65-.23 1l2.73 7.82h.01V15.837Z"/><path fill="url(#paint13_radial_4002_2472)" d="M13.295 15.837c-.46.117-.91.262-1.345.435a.193.193 0 0 1-.035.019l-1.27 2.69c-.09.19.05.41.26.41h1.05c.24 0 .35.29.19.45l-1.36 1.33c-.26.26-.36.65-.23 1l2.73 7.82h.01V15.837Z"/><path fill="url(#paint14_radial_4002_2472)" d="M13.295 15.837c-.46.117-.91.262-1.345.435a.193.193 0 0 1-.035.019l-1.27 2.69c-.09.19.05.41.26.41h1.05c.24 0 .35.29.19.45l-1.36 1.33c-.26.26-.36.65-.23 1l2.73 7.82h.01V15.837Z"/></g><path fill="url(#paint15_linear_4002_2472)" d="M13.295 15.837c-.46.117-.91.262-1.345.435a.193.193 0 0 1-.035.019l-1.27 2.69c-.09.19.05.41.26.41h1.05c.24 0 .35.29.19.45l-1.36 1.33c-.26.26-.36.65-.23 1l2.73 7.82h.01V15.837Z"/><g filter="url(#filter3_f_4002_2472)"><path fill="#44375D" d="m20.055 20.479.444 1.05c.202.26.272.65.178 1.01l-1.295 4.645-.22-10.445.09-.183c.338.115.669.257.989.423l.98 2.64c.07.19-.04.41-.202.41h-.816c-.187 0-.28.28-.148.45Z"/></g><g filter="url(#filter4_ii_4002_2472)"><path fill="url(#paint16_linear_4002_2472)" d="m19.865 19.79 1.36 1.33c.26.26.35.65.23 1.01l-2.74 7.86V16.05l.117-.182c.435.115.86.257 1.272.423l1.26 2.64c.09.19-.05.41-.26.41h-1.05c-.24 0-.36.28-.19.45Z"/><path fill="url(#paint17_radial_4002_2472)" d="m19.865 19.79 1.36 1.33c.26.26.35.65.23 1.01l-2.74 7.86V16.05l.117-.182c.435.115.86.257 1.272.423l1.26 2.64c.09.19-.05.41-.26.41h-1.05c-.24 0-.36.28-.19.45Z"/></g><path fill="url(#paint18_radial_4002_2472)" d="M16.005 15.284h-2.71v4.74c0 .31.36.49.61.29l2.1-1.67 2.1 1.67c.25.2.61.02.61-.29v-4.74h-2.71Z"/><path fill="url(#paint19_radial_4002_2472)" d="M16.005 15.284h-2.71v4.74c0 .31.36.49.61.29l2.1-1.67 2.1 1.67c.25.2.61.02.61-.29v-4.74h-2.71Z"/><path fill="url(#paint20_linear_4002_2472)" d="M16.005 15.284h-2.71v4.74c0 .31.36.49.61.29l2.1-1.67 2.1 1.67c.25.2.61.02.61-.29v-4.74h-2.71Z"/><path fill="url(#paint21_linear_4002_2472)" d="M16.005 15.284h-2.71v4.74c0 .31.36.49.61.29l2.1-1.67 2.1 1.67c.25.2.61.02.61-.29v-4.74h-2.71Z"/><g filter="url(#filter5_i_4002_2472)"><path fill="url(#paint22_radial_4002_2472)" d="M16.005 18.445c1.789-.788 1.932-1.316 1.919-1.7h-3.838c-.013.384.224.97 1.919 1.7Z"/></g><g filter="url(#filter6_i_4002_2472)"><circle cx="11.249" cy="10.56" r="1.669" fill="url(#paint23_radial_4002_2472)"/></g><g filter="url(#filter7_f_4002_2472)"><circle cx="11.249" cy="10.56" r=".995" fill="url(#paint24_linear_4002_2472)"/></g><g filter="url(#filter8_i_4002_2472)"><circle cx="20.761" cy="10.56" r="1.669" fill="url(#paint25_linear_4002_2472)"/><circle cx="20.761" cy="10.56" r="1.669" fill="url(#paint26_radial_4002_2472)"/></g><g filter="url(#filter9_f_4002_2472)"><circle cx="20.761" cy="10.56" r=".995" fill="#E4AF9A"/><circle cx="20.761" cy="10.56" r=".995" fill="url(#paint27_radial_4002_2472)"/><circle cx="20.761" cy="10.56" r=".995" fill="url(#paint28_radial_4002_2472)"/></g><g filter="url(#filter10_i_4002_2472)"><path fill="url(#paint29_linear_4002_2472)" d="M10.839 8.509c0-.267.107-.587.322-.747l.16-.16c.269-.213.376-.533.376-.853v-.853c0-.267.16-.48.429-.534.644-.16 1.984-.426 3.915-.426s3.272.266 3.916.426c.214.054.429.267.429.534v.853c0 .32.16.64.375.853.502.352.47.545.43.96-.054.533-.108 1.44-.108 1.44h.018l-.266 3.958c-.16 1.77-1.551 3.003-3.21 3.003h-3.21c-1.712 0-3.05-1.234-3.21-3.003-.14-1.816-.2-3.638-.366-5.451Z"/><path fill="url(#paint30_radial_4002_2472)" d="M10.839 8.509c0-.267.107-.587.322-.747l.16-.16c.269-.213.376-.533.376-.853v-.853c0-.267.16-.48.429-.534.644-.16 1.984-.426 3.915-.426s3.272.266 3.916.426c.214.054.429.267.429.534v.853c0 .32.16.64.375.853.502.352.47.545.43.96-.054.533-.108 1.44-.108 1.44h.018l-.266 3.958c-.16 1.77-1.551 3.003-3.21 3.003h-3.21c-1.712 0-3.05-1.234-3.21-3.003-.14-1.816-.2-3.638-.366-5.451Z"/><path fill="url(#paint31_linear_4002_2472)" d="M10.839 8.509c0-.267.107-.587.322-.747l.16-.16c.269-.213.376-.533.376-.853v-.853c0-.267.16-.48.429-.534.644-.16 1.984-.426 3.915-.426s3.272.266 3.916.426c.214.054.429.267.429.534v.853c0 .32.16.64.375.853.502.352.47.545.43.96-.054.533-.108 1.44-.108 1.44h.018l-.266 3.958c-.16 1.77-1.551 3.003-3.21 3.003h-3.21c-1.712 0-3.05-1.234-3.21-3.003-.14-1.816-.2-3.638-.366-5.451Z"/><path fill="url(#paint32_linear_4002_2472)" d="M10.839 8.509c0-.267.107-.587.322-.747l.16-.16c.269-.213.376-.533.376-.853v-.853c0-.267.16-.48.429-.534.644-.16 1.984-.426 3.915-.426s3.272.266 3.916.426c.214.054.429.267.429.534v.853c0 .32.16.64.375.853.502.352.47.545.43.96-.054.533-.108 1.44-.108 1.44h.018l-.266 3.958c-.16 1.77-1.551 3.003-3.21 3.003h-3.21c-1.712 0-3.05-1.234-3.21-3.003-.14-1.816-.2-3.638-.366-5.451Z"/><path fill="url(#paint33_radial_4002_2472)" d="M10.839 8.509c0-.267.107-.587.322-.747l.16-.16c.269-.213.376-.533.376-.853v-.853c0-.267.16-.48.429-.534.644-.16 1.984-.426 3.915-.426s3.272.266 3.916.426c.214.054.429.267.429.534v.853c0 .32.16.64.375.853.502.352.47.545.43.96-.054.533-.108 1.44-.108 1.44h.018l-.266 3.958c-.16 1.77-1.551 3.003-3.21 3.003h-3.21c-1.712 0-3.05-1.234-3.21-3.003-.14-1.816-.2-3.638-.366-5.451Z"/><path fill="url(#paint34_radial_4002_2472)" d="M10.839 8.509c0-.267.107-.587.322-.747l.16-.16c.269-.213.376-.533.376-.853v-.853c0-.267.16-.48.429-.534.644-.16 1.984-.426 3.915-.426s3.272.266 3.916.426c.214.054.429.267.429.534v.853c0 .32.16.64.375.853.502.352.47.545.43.96-.054.533-.108 1.44-.108 1.44h.018l-.266 3.958c-.16 1.77-1.551 3.003-3.21 3.003h-3.21c-1.712 0-3.05-1.234-3.21-3.003-.14-1.816-.2-3.638-.366-5.451Z"/><path fill="url(#paint35_radial_4002_2472)" d="M10.839 8.509c0-.267.107-.587.322-.747l.16-.16c.269-.213.376-.533.376-.853v-.853c0-.267.16-.48.429-.534.644-.16 1.984-.426 3.915-.426s3.272.266 3.916.426c.214.054.429.267.429.534v.853c0 .32.16.64.375.853.502.352.47.545.43.96-.054.533-.108 1.44-.108 1.44h.018l-.266 3.958c-.16 1.77-1.551 3.003-3.21 3.003h-3.21c-1.712 0-3.05-1.234-3.21-3.003-.14-1.816-.2-3.638-.366-5.451Z"/></g><g filter="url(#filter11_f_4002_2472)"><path fill="#D89992" d="m15.72 10.438-.82 1.699c-.101.35.143.7.489.7h.737c.346 0 .59-.356.488-.7l-.498-1.7c-.107-.376-.283-.376-.395 0Z"/></g><g filter="url(#filter12_f_4002_2472)"><path fill="#FBC4B1" d="m15.614 10.274-.531 1.7a.539.539 0 0 0 .52.699h.786a.54.54 0 0 0 .52-.7l-.53-1.699c-.114-.376-.646-.376-.765 0Z"/><path fill="url(#paint36_linear_4002_2472)" d="m15.614 10.274-.531 1.7a.539.539 0 0 0 .52.699h.786a.54.54 0 0 0 .52-.7l-.53-1.699c-.114-.376-.646-.376-.765 0Z"/><path fill="url(#paint37_linear_4002_2472)" d="m15.614 10.274-.531 1.7a.539.539 0 0 0 .52.699h.786a.54.54 0 0 0 .52-.7l-.53-1.699c-.114-.376-.646-.376-.765 0Z"/><path fill="url(#paint38_linear_4002_2472)" d="m15.614 10.274-.531 1.7a.539.539 0 0 0 .52.699h.786a.54.54 0 0 0 .52-.7l-.53-1.699c-.114-.376-.646-.376-.765 0Z"/><path fill="url(#paint39_radial_4002_2472)" d="m15.614 10.274-.531 1.7a.539.539 0 0 0 .52.699h.786a.54.54 0 0 0 .52-.7l-.53-1.699c-.114-.376-.646-.376-.765 0Z"/><path fill="url(#paint40_linear_4002_2472)" d="m15.614 10.274-.531 1.7a.539.539 0 0 0 .52.699h.786a.54.54 0 0 0 .52-.7l-.53-1.699c-.114-.376-.646-.376-.765 0Z"/></g><g filter="url(#filter13_f_4002_2472)"><path stroke="url(#paint41_linear_4002_2472)" stroke-width=".2" d="M15.996 13.69c-.507 0-.984-.12-1.385-.329-.137-.07-.284.085-.198.21.335.507.919.845 1.583.845.665 0 1.248-.338 1.583-.846.086-.13-.06-.279-.198-.209-.4.21-.872.329-1.385.329Z"/></g><path fill="#88024E" d="M15.996 13.69c-.507 0-.984-.12-1.385-.329-.137-.07-.284.085-.198.21.335.507.919.845 1.583.845.665 0 1.248-.338 1.583-.846.086-.13-.06-.279-.198-.209-.4.21-.872.329-1.385.329Z"/><path fill="#fff" d="M18.384 9.13c.653 0 1.204.45 1.354 1.058a.274.274 0 0 1-.267.34h-2.23a.23.23 0 0 1-.228-.271 1.398 1.398 0 0 1 1.37-1.128Z"/><path fill="url(#paint42_radial_4002_2472)" d="M18.177 9.401a.892.892 0 0 1 .86 1.127h-1.724a.896.896 0 0 1 .864-1.127Z"/><path fill="#000" d="M17.666 10.293c0-.284.227-.51.511-.51a.509.509 0 0 1 .454.745h-.904a.463.463 0 0 1-.06-.235Z"/><g filter="url(#filter14_f_4002_2472)"><path fill="#C7A7A3" d="M18.111 9.59c.064.085-.069.188-.22.301-.151.113-.263.193-.327.108-.063-.085.008-.246.159-.359.15-.113.325-.136.388-.05Z"/><path fill="url(#paint43_radial_4002_2472)" d="M18.111 9.59c.064.085-.069.188-.22.301-.151.113-.263.193-.327.108-.063-.085.008-.246.159-.359.15-.113.325-.136.388-.05Z"/></g><g filter="url(#filter15_f_4002_2472)"><path fill="url(#paint44_linear_4002_2472)" d="M18.972 10.176a.84.84 0 0 0-.232-.463l-.26.285.118.228.374-.05Z"/></g><path fill="#fff" d="M13.604 9.129c-.653 0-1.205.45-1.355 1.059-.045.174.09.34.268.34h2.23a.23.23 0 0 0 .227-.271 1.4 1.4 0 0 0-1.37-1.128Z"/><path fill="url(#paint45_radial_4002_2472)" d="M13.81 9.4a.892.892 0 0 0-.86 1.128h1.724a.914.914 0 0 0 .033-.235.898.898 0 0 0-.897-.892Z"/><path fill="#000" d="M14.321 10.293a.509.509 0 0 0-.51-.51.509.509 0 0 0-.455.745h.905a.506.506 0 0 0 .06-.235Z"/><g filter="url(#filter16_f_4002_2472)"><path fill="url(#paint46_linear_4002_2472)" d="M14.625 10.188c0-.288-.234-.48-.297-.538l-.289.278.178.361.408-.1Z"/></g><g filter="url(#filter17_f_4002_2472)" transform="rotate(-27.914 13.541 9.782)"><ellipse cx="13.541" cy="9.782" fill="#C7A7A3" fill-opacity=".9" rx=".389" ry=".197"/><ellipse cx="13.541" cy="9.782" fill="url(#paint47_radial_4002_2472)" rx=".389" ry=".197"/></g><g filter="url(#filter18_i_4002_2472)"><path fill="#242324" d="m20.808 4.408.43.2a1.826 1.826 0 0 1 1.02 2.014l-.59 2.87a.602.602 0 0 1-.596.512c.035-.476.077-1.25.09-1.371.043-.41-.01-.53-.408-.903-.214-.202-.375-.504-.375-.806V6.12c0-.252-.215-.453-.43-.503-.644-.151-1.986-.403-3.92-.403-1.932 0-3.274.252-3.919.403a.498.498 0 0 0-.43.503v.805c0 .302-.107.604-.375.806-.283.243-.464.327-.464.837.014.147.066 1.023.09 1.375-.3-.02-.595-.214-.646-.5l-.59-2.87a1.9 1.9 0 0 1 1.073-1.963c1.015-.42 1.384-1.056 2.201-1.712a2.055 2.055 0 0 1 2.202-.302 3.114 3.114 0 0 0 1.664 0 2.523 2.523 0 0 1 2.362.504l.806.755c.215.252.483.403.805.554Z"/><path fill="url(#paint48_radial_4002_2472)" d="m20.808 4.408.43.2a1.826 1.826 0 0 1 1.02 2.014l-.59 2.87a.602.602 0 0 1-.596.512c.035-.476.077-1.25.09-1.371.043-.41-.01-.53-.408-.903-.214-.202-.375-.504-.375-.806V6.12c0-.252-.215-.453-.43-.503-.644-.151-1.986-.403-3.92-.403-1.932 0-3.274.252-3.919.403a.498.498 0 0 0-.43.503v.805c0 .302-.107.604-.375.806-.283.243-.464.327-.464.837.014.147.066 1.023.09 1.375-.3-.02-.595-.214-.646-.5l-.59-2.87a1.9 1.9 0 0 1 1.073-1.963c1.015-.42 1.384-1.056 2.201-1.712a2.055 2.055 0 0 1 2.202-.302 3.114 3.114 0 0 0 1.664 0 2.523 2.523 0 0 1 2.362.504l.806.755c.215.252.483.403.805.554Z"/><path fill="url(#paint49_radial_4002_2472)" d="m20.808 4.408.43.2a1.826 1.826 0 0 1 1.02 2.014l-.59 2.87a.602.602 0 0 1-.596.512c.035-.476.077-1.25.09-1.371.043-.41-.01-.53-.408-.903-.214-.202-.375-.504-.375-.806V6.12c0-.252-.215-.453-.43-.503-.644-.151-1.986-.403-3.92-.403-1.932 0-3.274.252-3.919.403a.498.498 0 0 0-.43.503v.805c0 .302-.107.604-.375.806-.283.243-.464.327-.464.837.014.147.066 1.023.09 1.375-.3-.02-.595-.214-.646-.5l-.59-2.87a1.9 1.9 0 0 1 1.073-1.963c1.015-.42 1.384-1.056 2.201-1.712a2.055 2.055 0 0 1 2.202-.302 3.114 3.114 0 0 0 1.664 0 2.523 2.523 0 0 1 2.362.504l.806.755c.215.252.483.403.805.554Z"/><path fill="url(#paint50_radial_4002_2472)" d="m20.808 4.408.43.2a1.826 1.826 0 0 1 1.02 2.014l-.59 2.87a.602.602 0 0 1-.596.512c.035-.476.077-1.25.09-1.371.043-.41-.01-.53-.408-.903-.214-.202-.375-.504-.375-.806V6.12c0-.252-.215-.453-.43-.503-.644-.151-1.986-.403-3.92-.403-1.932 0-3.274.252-3.919.403a.498.498 0 0 0-.43.503v.805c0 .302-.107.604-.375.806-.283.243-.464.327-.464.837.014.147.066 1.023.09 1.375-.3-.02-.595-.214-.646-.5l-.59-2.87a1.9 1.9 0 0 1 1.073-1.963c1.015-.42 1.384-1.056 2.201-1.712a2.055 2.055 0 0 1 2.202-.302 3.114 3.114 0 0 0 1.664 0 2.523 2.523 0 0 1 2.362.504l.806.755c.215.252.483.403.805.554Z"/><path fill="url(#paint51_radial_4002_2472)" d="m20.808 4.408.43.2a1.826 1.826 0 0 1 1.02 2.014l-.59 2.87a.602.602 0 0 1-.596.512c.035-.476.077-1.25.09-1.371.043-.41-.01-.53-.408-.903-.214-.202-.375-.504-.375-.806V6.12c0-.252-.215-.453-.43-.503-.644-.151-1.986-.403-3.92-.403-1.932 0-3.274.252-3.919.403a.498.498 0 0 0-.43.503v.805c0 .302-.107.604-.375.806-.283.243-.464.327-.464.837.014.147.066 1.023.09 1.375-.3-.02-.595-.214-.646-.5l-.59-2.87a1.9 1.9 0 0 1 1.073-1.963c1.015-.42 1.384-1.056 2.201-1.712a2.055 2.055 0 0 1 2.202-.302 3.114 3.114 0 0 0 1.664 0 2.523 2.523 0 0 1 2.362.504l.806.755c.215.252.483.403.805.554Z"/></g><g filter="url(#filter19_ii_4002_2472)"><path fill="url(#paint52_linear_4002_2472)" d="m14.732 19.661 1.267-1.097 1.268 1.074-.546 1.265a.238.238 0 0 1-.217.141h-1.021a.238.238 0 0 1-.216-.141l-.535-1.242Z"/></g><g filter="url(#filter20_f_4002_2472)"><path fill="#473A60" d="M23.247 19.836h-.612c-.22 0-.42.13-.515.329-.01.02-.039.02-.039 0a.575.575 0 0 0-.515-.33h-.592c-.125 0-.23.09-.24.22-.009.13.096.25.22.25h.153c.18 0 .18.079.213.149.057.12.172.2.306.2h.238l.54.128c.133 0 .46-.099.518-.219l.086-.199a.104.104 0 0 1 .095-.06h.144c.124 0 .229-.09.238-.219-.01-.14-.114-.25-.238-.25Z"/></g><g filter="url(#filter21_ii_4002_2472)"><path fill="url(#paint53_linear_4002_2472)" d="M23.365 19.78h-.64c-.23 0-.44.13-.54.33-.01.02-.04.02-.04 0-.1-.2-.31-.33-.54-.33h-.62c-.13 0-.24.09-.25.22-.01.13.1.25.23.25h.16c.04 0 .08.02.1.06l.09.2c.06.12.18.2.32.2h1.07c.14 0 .26-.08.32-.2l.09-.2a.11.11 0 0 1 .1-.06h.15c.13 0 .24-.09.25-.22-.01-.14-.12-.25-.25-.25Z"/></g><path fill="url(#paint54_radial_4002_2472)" d="M21.747 3.55c-2.66-1.66-5.7-1.55-5.74-1.55-.04 0-3.14-.01-5.74 1.54-1 .6-1.19 1.96-.39 2.8l.68.72h10.9l.68-.72c.8-.83.6-2.18-.39-2.79Z"/><path fill="url(#paint55_radial_4002_2472)" d="M21.747 3.55c-2.66-1.66-5.7-1.55-5.74-1.55-.04 0-3.14-.01-5.74 1.54-1 .6-1.19 1.96-.39 2.8l.68.72h10.9l.68-.72c.8-.83.6-2.18-.39-2.79Z"/><path fill="url(#paint56_radial_4002_2472)" d="M21.747 3.55c-2.66-1.66-5.7-1.55-5.74-1.55-.04 0-3.14-.01-5.74 1.54-1 .6-1.19 1.96-.39 2.8l.68.72h10.9l.68-.72c.8-.83.6-2.18-.39-2.79Z"/><g filter="url(#filter22_i_4002_2472)"><path fill="url(#paint57_radial_4002_2472)" d="M16.005 6.33s-2.53-.03-5.45.73l.4.47c.73.87 1.81 1.37 2.95 1.37h4.19c1.14 0 2.22-.5 2.96-1.37l.4-.47c-2.92-.76-5.45-.73-5.45-.73Z"/></g><path fill="url(#paint58_linear_4002_2472)" d="M15.955 5.52h.1c.39 0 2.27.02 4.56.51.49.1.84.53.84 1.03-2.92-.76-5.45-.73-5.45-.73s-2.53-.03-5.45.73c0-.5.35-.93.84-1.03 2.29-.48 4.16-.51 4.56-.51Z"/><path fill="url(#paint59_radial_4002_2472)" d="M15.955 5.52h.1c.39 0 2.27.02 4.56.51.49.1.84.53.84 1.03-2.92-.76-5.45-.73-5.45-.73s-2.53-.03-5.45.73c0-.5.35-.93.84-1.03 2.29-.48 4.16-.51 4.56-.51Z"/><path fill="url(#paint60_radial_4002_2472)" d="M15.955 5.52h.1c.39 0 2.27.02 4.56.51.49.1.84.53.84 1.03-2.92-.76-5.45-.73-5.45-.73s-2.53-.03-5.45.73c0-.5.35-.93.84-1.03 2.29-.48 4.16-.51 4.56-.51Z"/><g filter="url(#filter23_f_4002_2472)"><path fill="#382534" d="M16.793 4.352h.633a.2.2 0 0 0 .18-.11l.55-.95c.04-.07-.01-.16-.09-.16h-1.4a.2.2 0 0 0-.18.11l-.275.475a.79.79 0 0 0-.415.005l-.272-.47a.2.2 0 0 0-.18-.11h-1.4c-.08 0-.13.09-.09.16l.54.94c.04.07.1.11.18.11h.66a.79.79 0 1 0 1.559 0Z"/></g><g filter="url(#filter24_i_4002_2472)"><path fill="url(#paint61_linear_4002_2472)" d="M16.045 4.24h-1.4a.2.2 0 0 1-.18-.11l-.54-.94c-.04-.07.01-.16.09-.16h1.4a.2.2 0 0 1 .18.11l.55.95c.03.06-.02.15-.1.15Z"/><path fill="url(#paint62_radial_4002_2472)" d="M16.045 4.24h-1.4a.2.2 0 0 1-.18-.11l-.54-.94c-.04-.07.01-.16.09-.16h1.4a.2.2 0 0 1 .18.11l.55.95c.03.06-.02.15-.1.15Z"/></g><g filter="url(#filter25_i_4002_2472)"><path fill="url(#paint63_linear_4002_2472)" d="M16.098 4.24h1.4a.2.2 0 0 0 .18-.11l.55-.95c.04-.07-.01-.16-.09-.16h-1.4a.2.2 0 0 0-.18.11l-.55.95c-.04.07.01.16.09.16Z"/></g><g filter="url(#filter26_i_4002_2472)"><path fill="url(#paint64_radial_4002_2472)" d="M16.085 5.16a.79.79 0 1 0 0-1.58.79.79 0 0 0 0 1.58Z"/></g><path fill="url(#paint65_radial_4002_2472)" d="M16.085 5.16a.79.79 0 1 0 0-1.58.79.79 0 0 0 0 1.58Z"/><defs><radialGradient id="paint1_radial_4002_2472" cx="0" cy="0" r="1" gradientTransform="matrix(-4.03125 0 0 -12.2293 23.224 24.403)" gradientUnits="userSpaceOnUse"><stop offset=".202" stop-color="#7D77A7"/><stop offset="1" stop-color="#6B629A" stop-opacity="0"/></radialGradient><radialGradient id="paint2_radial_4002_2472" cx="0" cy="0" r="1" gradientTransform="matrix(0 -10.4916 2.16348 0 25.063 30)" gradientUnits="userSpaceOnUse"><stop offset=".24" stop-color="#7D72A2"/><stop offset="1" stop-color="#6E658C"/></radialGradient><radialGradient id="paint3_radial_4002_2472" cx="0" cy="0" r="1" gradientTransform="matrix(0 -13.6896 .7187 0 23.13 30)" gradientUnits="userSpaceOnUse"><stop offset=".304" stop-color="#4F4175"/><stop offset="1" stop-color="#514476" stop-opacity="0"/></radialGradient><radialGradient id="paint4_radial_4002_2472" cx="0" cy="0" r="1" gradientTransform="matrix(0 -9.94746 4.23507 0 6.615 30)" gradientUnits="userSpaceOnUse"><stop offset=".26" stop-color="#5A4B81"/><stop offset="1" stop-color="#524A68"/></radialGradient><radialGradient id="paint6_radial_4002_2472" cx="0" cy="0" r="1" gradientTransform="matrix(-3.70333 0 0 -15.6939 8.708 29.637)" gradientUnits="userSpaceOnUse"><stop offset=".741" stop-color="#6E638C" stop-opacity="0"/><stop offset="1" stop-color="#6E638C"/></radialGradient><radialGradient id="paint7_radial_4002_2472" cx="0" cy="0" r="1" gradientTransform="matrix(0 7.91012 -3.40129 0 16 23.056)" gradientUnits="userSpaceOnUse"><stop offset=".563" stop-color="#C7BBD0"/><stop offset="1" stop-color="#A9A0B2"/></radialGradient><radialGradient id="paint10_radial_4002_2472" cx="0" cy="0" r="1" gradientTransform="matrix(0 -1.1875 .46252 0 18.255 30.216)" gradientUnits="userSpaceOnUse"><stop stop-color="#AD91CA"/><stop offset="1" stop-color="#AD91CA" stop-opacity="0"/></radialGradient><radialGradient id="paint11_radial_4002_2472" cx="0" cy="0" r="1" gradientTransform="matrix(0 9.70312 -1.55313 0 15.99 21.044)" gradientUnits="userSpaceOnUse"><stop offset=".006" stop-color="#59416C"/><stop offset=".907" stop-color="#3A3045"/></radialGradient><radialGradient id="paint13_radial_4002_2472" cx="0" cy="0" r="1" gradientTransform="rotate(122.782 2.494 11.9) scale(3.60548 4.04568)" gradientUnits="userSpaceOnUse"><stop stop-color="#483555"/><stop offset="1" stop-color="#483555" stop-opacity="0"/></radialGradient><radialGradient id="paint14_radial_4002_2472" cx="0" cy="0" r="1" gradientTransform="matrix(0 4.08638 -1.3984 0 13.295 23.22)" gradientUnits="userSpaceOnUse"><stop stop-color="#615589"/><stop offset="1" stop-color="#615589" stop-opacity="0"/></radialGradient><radialGradient id="paint17_radial_4002_2472" cx="0" cy="0" r="1" gradientTransform="matrix(.8125 1.37956 -1.6894 .99499 19.036 15.868)" gradientUnits="userSpaceOnUse"><stop stop-color="#504069"/><stop offset="1" stop-color="#504069" stop-opacity="0"/></radialGradient><radialGradient id="paint18_radial_4002_2472" cx="0" cy="0" r="1" gradientTransform="matrix(0 4.15625 -4.85106 0 16.005 18.69)" gradientUnits="userSpaceOnUse"><stop offset=".519" stop-color="#C9C0D4"/><stop offset="1" stop-color="#6D6675"/></radialGradient><radialGradient id="paint19_radial_4002_2472" cx="0" cy="0" r="1" gradientTransform="matrix(-1 -.96876 2.18983 -2.26044 15.24 19.685)" gradientUnits="userSpaceOnUse"><stop stop-color="#D0C1D9"/><stop offset="1" stop-color="#D0C1D9" stop-opacity="0"/></radialGradient><radialGradient id="paint22_radial_4002_2472" cx="0" cy="0" r="1" gradientTransform="matrix(0 1.41287 -1.9196 0 16.005 17.153)" gradientUnits="userSpaceOnUse"><stop stop-color="#BC7693"/><stop offset="1" stop-color="#C88898"/></radialGradient><radialGradient id="paint23_radial_4002_2472" cx="0" cy="0" r="1" gradientTransform="matrix(1.75471 0 0 3.07077 9.58 10.56)" gradientUnits="userSpaceOnUse"><stop offset=".351" stop-color="#CF9888"/><stop offset="1" stop-color="#BE8C77"/></radialGradient><radialGradient id="paint26_radial_4002_2472" cx="0" cy="0" r="1" gradientTransform="matrix(.82663 -.60192 .68701 .9435 21.133 10.295)" gradientUnits="userSpaceOnUse"><stop offset=".543" stop-color="#D9AA94"/><stop offset="1" stop-color="#D9AA94" stop-opacity="0"/></radialGradient><radialGradient id="paint27_radial_4002_2472" cx="0" cy="0" r="1" gradientTransform="matrix(.8212 -1.5104 .88405 .48065 20.72 11.38)" gradientUnits="userSpaceOnUse"><stop offset=".755" stop-color="#D6A38D" stop-opacity="0"/><stop offset=".916" stop-color="#D6A38D"/></radialGradient><radialGradient id="paint28_radial_4002_2472" cx="0" cy="0" r="1" gradientTransform="rotate(44.707 -2.459 30.523) scale(.3648 .47028)" gradientUnits="userSpaceOnUse"><stop stop-color="#D5A58E"/><stop offset="1" stop-color="#D5A58E" stop-opacity="0"/></radialGradient><radialGradient id="paint30_radial_4002_2472" cx="0" cy="0" r="1" gradientTransform="matrix(0 9.43448 -12.8068 0 16.025 8.635)" gradientUnits="userSpaceOnUse"><stop offset=".612" stop-color="#D496A2" stop-opacity="0"/><stop offset=".899" stop-color="#BB7399"/></radialGradient><radialGradient id="paint33_radial_4002_2472" cx="0" cy="0" r="1" gradientTransform="matrix(0 -1.30697 1.60858 0 18.342 9.288)" gradientUnits="userSpaceOnUse"><stop stop-color="#F5B7A7"/><stop offset="1" stop-color="#F5B7A7" stop-opacity="0"/></radialGradient><radialGradient id="paint34_radial_4002_2472" cx="0" cy="0" r="1" gradientTransform="matrix(0 -1.39075 1.72952 0 13.784 9.255)" gradientUnits="userSpaceOnUse"><stop stop-color="#D0958D"/><stop offset="1" stop-color="#D0958D" stop-opacity="0"/></radialGradient><radialGradient id="paint35_radial_4002_2472" cx="0" cy="0" r="1" gradientTransform="matrix(0 2.47176 -4.26578 0 15.385 8.227)" gradientUnits="userSpaceOnUse"><stop offset=".242" stop-color="#BC8287"/><stop offset="1" stop-color="#B98183" stop-opacity="0"/></radialGradient><radialGradient id="paint39_radial_4002_2472" cx="0" cy="0" r="1" gradientTransform="matrix(0 .19688 -.63254 0 16.323 12.166)" gradientUnits="userSpaceOnUse"><stop stop-color="#FFD7C1"/><stop offset="1" stop-color="#FFD7C1" stop-opacity="0"/></radialGradient><radialGradient id="paint42_radial_4002_2472" cx="0" cy="0" r="1" gradientTransform="matrix(0 .81106 -1.29009 0 18.175 9.878)" gradientUnits="userSpaceOnUse"><stop offset=".802" stop-color="#7D574A"/><stop offset="1" stop-color="#694B43"/><stop offset="1" stop-color="#804D49"/><stop offset="1" stop-color="#664944"/></radialGradient><radialGradient id="paint43_radial_4002_2472" cx="0" cy="0" r="1" gradientTransform="matrix(-.23184 -.29876 .41132 -.3192 17.947 9.962)" gradientUnits="userSpaceOnUse"><stop offset=".766" stop-color="#FFE6E2" stop-opacity="0"/><stop offset=".966" stop-color="#FFE6E2"/></radialGradient><radialGradient id="paint45_radial_4002_2472" cx="0" cy="0" r="1" gradientTransform="matrix(0 .8111 -1.29015 0 13.812 9.878)" gradientUnits="userSpaceOnUse"><stop offset=".802" stop-color="#7D574A"/><stop offset="1" stop-color="#694B43"/><stop offset="1" stop-color="#804D49"/><stop offset="1" stop-color="#664944"/></radialGradient><radialGradient id="paint47_radial_4002_2472" cx="0" cy="0" r="1" gradientTransform="rotate(-90.897 11.733 -1.61) scale(.49399 .59379)" gradientUnits="userSpaceOnUse"><stop offset=".766" stop-color="#FFE6E2" stop-opacity="0"/><stop offset=".966" stop-color="#FFE6E2"/></radialGradient><radialGradient id="paint48_radial_4002_2472" cx="0" cy="0" r="1" gradientTransform="matrix(.79857 -2.79367 1.08842 .31112 20.334 6.65)" gradientUnits="userSpaceOnUse"><stop stop-color="#464344"/><stop offset="1" stop-color="#464344" stop-opacity="0"/></radialGradient><radialGradient id="paint49_radial_4002_2472" cx="0" cy="0" r="1" gradientTransform="matrix(3.82845 .33258 -.16897 1.94502 18.69 4.988)" gradientUnits="userSpaceOnUse"><stop offset=".335" stop-color="#4A4648"/><stop offset="1" stop-color="#4A4648" stop-opacity="0"/></radialGradient><radialGradient id="paint50_radial_4002_2472" cx="0" cy="0" r="1" gradientTransform="matrix(0 1.58663 -2.60303 0 15.985 2.403)" gradientUnits="userSpaceOnUse"><stop stop-color="#423D3F"/><stop offset="1" stop-color="#423D3F" stop-opacity="0"/></radialGradient><radialGradient id="paint51_radial_4002_2472" cx="0" cy="0" r="1" gradientTransform="matrix(3.07686 -2.12852 3.27241 4.7304 9.53 8.846)" gradientUnits="userSpaceOnUse"><stop stop-color="#463C39"/><stop offset="1" stop-color="#463C39" stop-opacity="0"/></radialGradient><radialGradient id="paint54_radial_4002_2472" cx="0" cy="0" r="1" gradientTransform="matrix(-.3125 4.2792 -11.47135 -.83773 16.485 2)" gradientUnits="userSpaceOnUse"><stop offset=".267" stop-color="#5D4C6D"/><stop offset="1" stop-color="#3B3541"/></radialGradient><radialGradient id="paint55_radial_4002_2472" cx="0" cy="0" r="1" gradientTransform="matrix(-4.625 0 0 -1.29228 20.798 4.31)" gradientUnits="userSpaceOnUse"><stop offset=".078" stop-color="#635870"/><stop offset="1" stop-color="#635870" stop-opacity="0"/></radialGradient><radialGradient id="paint56_radial_4002_2472" cx="0" cy="0" r="1" gradientTransform="matrix(1.75085 0 0 2.31943 9.38 4.747)" gradientUnits="userSpaceOnUse"><stop stop-color="#5D5A62"/><stop offset="1" stop-color="#3A3340" stop-opacity="0"/></radialGradient><radialGradient id="paint57_radial_4002_2472" cx="0" cy="0" r="1" gradientTransform="rotate(-96.626 13.263 -3.831) scale(3.52078 14.6419)" gradientUnits="userSpaceOnUse"><stop offset=".064" stop-color="#695978"/><stop offset=".47" stop-color="#4F3E5F"/><stop offset="1" stop-color="#362C38"/></radialGradient><radialGradient id="paint59_radial_4002_2472" cx="0" cy="0" r="1" gradientTransform="matrix(-4.4375 -.53896 .06546 -.53895 21.099 6.06)" gradientUnits="userSpaceOnUse"><stop stop-color="#FFCF55"/><stop offset="1" stop-color="#FFCF55" stop-opacity="0"/></radialGradient><radialGradient id="paint60_radial_4002_2472" cx="0" cy="0" r="1" gradientTransform="matrix(-3.90624 -.5948 .09009 -.59163 21.099 7.06)" gradientUnits="userSpaceOnUse"><stop offset=".278" stop-color="#EBA026"/><stop offset="1" stop-color="#EBA026" stop-opacity="0"/></radialGradient><radialGradient id="paint62_radial_4002_2472" cx="0" cy="0" r="1" gradientTransform="rotate(-135 8.675 -1.206) scale(.62166 .97779)" gradientUnits="userSpaceOnUse"><stop offset=".382" stop-color="#C47C25"/><stop offset="1" stop-color="#C47C25" stop-opacity="0"/></radialGradient><radialGradient id="paint64_radial_4002_2472" cx="0" cy="0" r="1" gradientTransform="matrix(-.9375 .96874 -1.00462 -.97222 16.583 4.044)" gradientUnits="userSpaceOnUse"><stop stop-color="#FCBB51"/><stop offset="1" stop-color="#CE8634"/></radialGradient><radialGradient id="paint65_radial_4002_2472" cx="0" cy="0" r="1" gradientTransform="matrix(.875 -.65625 1.11 1.48 15.88 4.544)" gradientUnits="userSpaceOnUse"><stop offset=".671" stop-color="#FCBB51" stop-opacity="0"/><stop offset="1" stop-color="#FCBB51"/></radialGradient><filter id="filter0_f_4002_2472" width="7.031" height="7.114" x="12.489" y="14.348" color-interpolation-filters="sRGB" filterUnits="userSpaceOnUse"><feFlood flood-opacity="0" result="BackgroundImageFix"/><feBlend in="SourceGraphic" in2="BackgroundImageFix" result="shape"/><feGaussianBlur result="effect1_foregroundBlur_4002_2472" stdDeviation=".5"/></filter><filter id="filter1_f_4002_2472" width="4.951" height="14.36" x="9.117" y="15.462" color-interpolation-filters="sRGB" filterUnits="userSpaceOnUse"><feFlood flood-opacity="0" result="BackgroundImageFix"/><feBlend in="SourceGraphic" in2="BackgroundImageFix" result="shape"/><feGaussianBlur result="effect1_foregroundBlur_4002_2472" stdDeviation=".5"/></filter><filter id="filter2_ii_4002_2472" width="3.097" height="14.304" x="10.348" y="15.837" color-interpolation-filters="sRGB" filterUnits="userSpaceOnUse"><feFlood flood-opacity="0" result="BackgroundImageFix"/><feBlend in="SourceGraphic" in2="BackgroundImageFix" result="shape"/><feColorMatrix in="SourceAlpha" result="hardAlpha" values="0 0 0 0 0 0 0 0 0 0 0 0 0 0 0 0 0 0 127 0"/><feOffset dx=".15"/><feGaussianBlur stdDeviation=".125"/><feComposite in2="hardAlpha" k2="-1" k3="1" operator="arithmetic"/><feColorMatrix values="0 0 0 0 0.388235 0 0 0 0 0.356863 0 0 0 0 0.470588 0 0 0 1 0"/><feBlend in2="shape" result="effect1_innerShadow_4002_2472"/><feColorMatrix in="SourceAlpha" result="hardAlpha" values="0 0 0 0 0 0 0 0 0 0 0 0 0 0 0 0 0 0 127 0"/><feOffset dx="-.15" dy=".15"/><feGaussianBlur stdDeviation=".125"/><feComposite in2="hardAlpha" k2="-1" k3="1" operator="arithmetic"/><feColorMatrix values="0 0 0 0 0.34902 0 0 0 0 0.290196 0 0 0 0 0.443137 0 0 0 1 0"/><feBlend in2="effect1_innerShadow_4002_2472" result="effect2_innerShadow_4002_2472"/></filter><filter id="filter3_f_4002_2472" width="4.081" height="12.629" x="18.162" y="15.556" color-interpolation-filters="sRGB" filterUnits="userSpaceOnUse"><feFlood flood-opacity="0" result="BackgroundImageFix"/><feBlend in="SourceGraphic" in2="BackgroundImageFix" result="shape"/><feGaussianBlur result="effect1_foregroundBlur_4002_2472" stdDeviation=".5"/></filter><filter id="filter4_ii_4002_2472" width="3.042" height="14.123" x="18.465" y="15.868" color-interpolation-filters="sRGB" filterUnits="userSpaceOnUse"><feFlood flood-opacity="0" result="BackgroundImageFix"/><feBlend in="SourceGraphic" in2="BackgroundImageFix" result="shape"/><feColorMatrix in="SourceAlpha" result="hardAlpha" values="0 0 0 0 0 0 0 0 0 0 0 0 0 0 0 0 0 0 127 0"/><feOffset dx="-.25"/><feGaussianBlur stdDeviation=".25"/><feComposite in2="hardAlpha" k2="-1" k3="1" operator="arithmetic"/><feColorMatrix values="0 0 0 0 0.403922 0 0 0 0 0.372549 0 0 0 0 0.541176 0 0 0 1 0"/><feBlend in2="shape" result="effect1_innerShadow_4002_2472"/><feColorMatrix in="SourceAlpha" result="hardAlpha" values="0 0 0 0 0 0 0 0 0 0 0 0 0 0 0 0 0 0 127 0"/><feOffset dx="-.1"/><feGaussianBlur stdDeviation=".1"/><feComposite in2="hardAlpha" k2="-1" k3="1" operator="arithmetic"/><feColorMatrix values="0 0 0 0 0.380392 0 0 0 0 0.34902 0 0 0 0 0.552941 0 0 0 1 0"/><feBlend in2="effect1_innerShadow_4002_2472" result="effect2_innerShadow_4002_2472"/></filter><filter id="filter5_i_4002_2472" width="3.989" height="1.699" x="13.935" y="16.746" color-interpolation-filters="sRGB" filterUnits="userSpaceOnUse"><feFlood flood-opacity="0" result="BackgroundImageFix"/><feBlend in="SourceGraphic" in2="BackgroundImageFix" result="shape"/><feColorMatrix in="SourceAlpha" result="hardAlpha" values="0 0 0 0 0 0 0 0 0 0 0 0 0 0 0 0 0 0 127 0"/><feOffset dx="-.15"/><feGaussianBlur stdDeviation=".2"/><feComposite in2="hardAlpha" k2="-1" k3="1" operator="arithmetic"/><feColorMatrix values="0 0 0 0 0.623529 0 0 0 0 0.415686 0 0 0 0 0.45098 0 0 0 1 0"/><feBlend in2="shape" result="effect1_innerShadow_4002_2472"/></filter><filter id="filter6_i_4002_2472" width="3.539" height="3.339" x="9.58" y="8.89" color-interpolation-filters="sRGB" filterUnits="userSpaceOnUse"><feFlood flood-opacity="0" result="BackgroundImageFix"/><feBlend in="SourceGraphic" in2="BackgroundImageFix" result="shape"/><feColorMatrix in="SourceAlpha" result="hardAlpha" values="0 0 0 0 0 0 0 0 0 0 0 0 0 0 0 0 0 0 127 0"/><feOffset dx=".2"/><feGaussianBlur stdDeviation=".15"/><feComposite in2="hardAlpha" k2="-1" k3="1" operator="arithmetic"/><feColorMatrix values="0 0 0 0 0.917647 0 0 0 0 0.694118 0 0 0 0 0.607843 0 0 0 1 0"/><feBlend in2="shape" result="effect1_innerShadow_4002_2472"/></filter><filter id="filter7_f_4002_2472" width="2.99" height="2.99" x="9.754" y="9.065" color-interpolation-filters="sRGB" filterUnits="userSpaceOnUse"><feFlood flood-opacity="0" result="BackgroundImageFix"/><feBlend in="SourceGraphic" in2="BackgroundImageFix" result="shape"/><feGaussianBlur result="effect1_foregroundBlur_4002_2472" stdDeviation=".25"/></filter><filter id="filter8_i_4002_2472" width="3.589" height="3.589" x="19.092" y="8.64" color-interpolation-filters="sRGB" filterUnits="userSpaceOnUse"><feFlood flood-opacity="0" result="BackgroundImageFix"/><feBlend in="SourceGraphic" in2="BackgroundImageFix" result="shape"/><feColorMatrix in="SourceAlpha" result="hardAlpha" values="0 0 0 0 0 0 0 0 0 0 0 0 0 0 0 0 0 0 127 0"/><feOffset dx=".25" dy="-.25"/><feGaussianBlur stdDeviation=".25"/><feComposite in2="hardAlpha" k2="-1" k3="1" operator="arithmetic"/><feColorMatrix values="0 0 0 0 0.843137 0 0 0 0 0.623529 0 0 0 0 0.580392 0 0 0 1 0"/><feBlend in2="shape" result="effect1_innerShadow_4002_2472"/></filter><filter id="filter9_f_4002_2472" width="2.99" height="2.99" x="19.266" y="9.065" color-interpolation-filters="sRGB" filterUnits="userSpaceOnUse"><feFlood flood-opacity="0" result="BackgroundImageFix"/><feBlend in="SourceGraphic" in2="BackgroundImageFix" result="shape"/><feGaussianBlur result="effect1_foregroundBlur_4002_2472" stdDeviation=".25"/></filter><filter id="filter10_i_4002_2472" width="10.373" height="12.277" x="10.839" y="4.936" color-interpolation-filters="sRGB" filterUnits="userSpaceOnUse"><feFlood flood-opacity="0" result="BackgroundImageFix"/><feBlend in="SourceGraphic" in2="BackgroundImageFix" result="shape"/><feColorMatrix in="SourceAlpha" result="hardAlpha" values="0 0 0 0 0 0 0 0 0 0 0 0 0 0 0 0 0 0 127 0"/><feOffset dy=".25"/><feGaussianBlur stdDeviation=".375"/><feComposite in2="hardAlpha" k2="-1" k3="1" operator="arithmetic"/><feColorMatrix values="0 0 0 0 0.819608 0 0 0 0 0.615686 0 0 0 0 0.509804 0 0 0 1 0"/><feBlend in2="shape" result="effect1_innerShadow_4002_2472"/></filter><filter id="filter11_f_4002_2472" width="3.26" height="4.181" x="14.127" y="9.405" color-interpolation-filters="sRGB" filterUnits="userSpaceOnUse"><feFlood flood-opacity="0" result="BackgroundImageFix"/><feBlend in="SourceGraphic" in2="BackgroundImageFix" result="shape"/><feGaussianBlur result="effect1_foregroundBlur_4002_2472" stdDeviation=".375"/></filter><filter id="filter12_f_4002_2472" width="2.377" height="3.181" x="14.808" y="9.742" color-interpolation-filters="sRGB" filterUnits="userSpaceOnUse"><feFlood flood-opacity="0" result="BackgroundImageFix"/><feBlend in="SourceGraphic" in2="BackgroundImageFix" result="shape"/><feGaussianBlur result="effect1_foregroundBlur_4002_2472" stdDeviation=".125"/></filter><filter id="filter13_f_4002_2472" width="3.617" height="1.472" x="14.188" y="13.143" color-interpolation-filters="sRGB" filterUnits="userSpaceOnUse"><feFlood flood-opacity="0" result="BackgroundImageFix"/><feBlend in="SourceGraphic" in2="BackgroundImageFix" result="shape"/><feGaussianBlur result="effect1_foregroundBlur_4002_2472" stdDeviation=".05"/></filter><filter id="filter14_f_4002_2472" width=".787" height=".696" x="17.441" y="9.438" color-interpolation-filters="sRGB" filterUnits="userSpaceOnUse"><feFlood flood-opacity="0" result="BackgroundImageFix"/><feBlend in="SourceGraphic" in2="BackgroundImageFix" result="shape"/><feGaussianBlur result="effect1_foregroundBlur_4002_2472" stdDeviation=".05"/></filter><filter id="filter15_f_4002_2472" width=".891" height=".913" x="18.281" y="9.513" color-interpolation-filters="sRGB" filterUnits="userSpaceOnUse"><feFlood flood-opacity="0" result="BackgroundImageFix"/><feBlend in="SourceGraphic" in2="BackgroundImageFix" result="shape"/><feGaussianBlur result="effect1_foregroundBlur_4002_2472" stdDeviation=".1"/></filter><filter id="filter16_f_4002_2472" width=".986" height="1.04" x="13.839" y="9.45" color-interpolation-filters="sRGB" filterUnits="userSpaceOnUse"><feFlood flood-opacity="0" result="BackgroundImageFix"/><feBlend in="SourceGraphic" in2="BackgroundImageFix" result="shape"/><feGaussianBlur result="effect1_foregroundBlur_4002_2472" stdDeviation=".1"/></filter><filter id="filter17_f_4002_2472" width=".913" height=".704" x="13.085" y="9.43" color-interpolation-filters="sRGB" filterUnits="userSpaceOnUse"><feFlood flood-opacity="0" result="BackgroundImageFix"/><feBlend in="SourceGraphic" in2="BackgroundImageFix" result="shape"/><feGaussianBlur result="effect1_foregroundBlur_4002_2472" stdDeviation=".05"/></filter><filter id="filter18_i_4002_2472" width="12.614" height="8.1" x="9.678" y="1.903" color-interpolation-filters="sRGB" filterUnits="userSpaceOnUse"><feFlood flood-opacity="0" result="BackgroundImageFix"/><feBlend in="SourceGraphic" in2="BackgroundImageFix" result="shape"/><feColorMatrix in="SourceAlpha" result="hardAlpha" values="0 0 0 0 0 0 0 0 0 0 0 0 0 0 0 0 0 0 127 0"/><feOffset dy="-.5"/><feGaussianBlur stdDeviation=".375"/><feComposite in2="hardAlpha" k2="-1" k3="1" operator="arithmetic"/><feColorMatrix values="0 0 0 0 0.0392157 0 0 0 0 0.00784314 0 0 0 0 0.0196078 0 0 0 1 0"/><feBlend in2="shape" result="effect1_innerShadow_4002_2472"/></filter><filter id="filter19_ii_4002_2472" width="2.735" height="2.58" x="14.632" y="18.464" color-interpolation-filters="sRGB" filterUnits="userSpaceOnUse"><feFlood flood-opacity="0" result="BackgroundImageFix"/><feBlend in="SourceGraphic" in2="BackgroundImageFix" result="shape"/><feColorMatrix in="SourceAlpha" result="hardAlpha" values="0 0 0 0 0 0 0 0 0 0 0 0 0 0 0 0 0 0 127 0"/><feOffset dx=".1" dy="-.1"/><feGaussianBlur stdDeviation=".25"/><feComposite in2="hardAlpha" k2="-1" k3="1" operator="arithmetic"/><feColorMatrix values="0 0 0 0 0.2 0 0 0 0 0.152941 0 0 0 0 0.25098 0 0 0 1 0"/><feBlend in2="shape" result="effect1_innerShadow_4002_2472"/><feColorMatrix in="SourceAlpha" result="hardAlpha" values="0 0 0 0 0 0 0 0 0 0 0 0 0 0 0 0 0 0 127 0"/><feOffset dx="-.1" dy="-.1"/><feGaussianBlur stdDeviation=".25"/><feComposite in2="hardAlpha" k2="-1" k3="1" operator="arithmetic"/><feColorMatrix values="0 0 0 0 0.2 0 0 0 0 0.152941 0 0 0 0 0.25098 0 0 0 1 0"/><feBlend in2="effect1_innerShadow_4002_2472" result="effect2_innerShadow_4002_2472"/></filter><filter id="filter20_f_4002_2472" width="3.151" height="1.346" x="20.534" y="19.636" color-interpolation-filters="sRGB" filterUnits="userSpaceOnUse"><feFlood flood-opacity="0" result="BackgroundImageFix"/><feBlend in="SourceGraphic" in2="BackgroundImageFix" result="shape"/><feGaussianBlur result="effect1_foregroundBlur_4002_2472" stdDeviation=".1"/></filter><filter id="filter21_ii_4002_2472" width="2.881" height="1.03" x="20.734" y="19.731" color-interpolation-filters="sRGB" filterUnits="userSpaceOnUse"><feFlood flood-opacity="0" result="BackgroundImageFix"/><feBlend in="SourceGraphic" in2="BackgroundImageFix" result="shape"/><feColorMatrix in="SourceAlpha" result="hardAlpha" values="0 0 0 0 0 0 0 0 0 0 0 0 0 0 0 0 0 0 127 0"/><feOffset dy="-.05"/><feGaussianBlur stdDeviation=".05"/><feComposite in2="hardAlpha" k2="-1" k3="1" operator="arithmetic"/><feColorMatrix values="0 0 0 0 0.823529 0 0 0 0 0.529412 0 0 0 0 0.192157 0 0 0 1 0"/><feBlend in2="shape" result="effect1_innerShadow_4002_2472"/><feColorMatrix in="SourceAlpha" result="hardAlpha" values="0 0 0 0 0 0 0 0 0 0 0 0 0 0 0 0 0 0 127 0"/><feOffset dy=".05"/><feGaussianBlur stdDeviation=".05"/><feComposite in2="hardAlpha" k2="-1" k3="1" operator="arithmetic"/><feColorMatrix values="0 0 0 0 0.980392 0 0 0 0 0.760784 0 0 0 0 0.313726 0 0 0 1 0"/><feBlend in2="effect1_innerShadow_4002_2472" result="effect2_innerShadow_4002_2472"/></filter><filter id="filter22_i_4002_2472" width="10.9" height="2.77" x="10.555" y="6.13" color-interpolation-filters="sRGB" filterUnits="userSpaceOnUse"><feFlood flood-opacity="0" result="BackgroundImageFix"/><feBlend in="SourceGraphic" in2="BackgroundImageFix" result="shape"/><feColorMatrix in="SourceAlpha" result="hardAlpha" values="0 0 0 0 0 0 0 0 0 0 0 0 0 0 0 0 0 0 127 0"/><feOffset dy="-.2"/><feGaussianBlur stdDeviation=".1"/><feComposite in2="hardAlpha" k2="-1" k3="1" operator="arithmetic"/><feColorMatrix values="0 0 0 0 0.286275 0 0 0 0 0.168627 0 0 0 0 0.34902 0 0 0 1 0"/><feBlend in2="shape" result="effect1_innerShadow_4002_2472"/></filter><filter id="filter23_f_4002_2472" width="4.831" height="2.64" x="13.59" y="2.882" color-interpolation-filters="sRGB" filterUnits="userSpaceOnUse"><feFlood flood-opacity="0" result="BackgroundImageFix"/><feBlend in="SourceGraphic" in2="BackgroundImageFix" result="shape"/><feGaussianBlur result="effect1_foregroundBlur_4002_2472" stdDeviation=".125"/></filter><filter id="filter24_i_4002_2472" width="2.293" height="1.21" x="13.861" y="3.031" color-interpolation-filters="sRGB" filterUnits="userSpaceOnUse"><feFlood flood-opacity="0" result="BackgroundImageFix"/><feBlend in="SourceGraphic" in2="BackgroundImageFix" result="shape"/><feColorMatrix in="SourceAlpha" result="hardAlpha" values="0 0 0 0 0 0 0 0 0 0 0 0 0 0 0 0 0 0 127 0"/><feOffset dx="-.05"/><feGaussianBlur stdDeviation=".05"/><feComposite in2="hardAlpha" k2="-1" k3="1" operator="arithmetic"/><feColorMatrix values="0 0 0 0 0.905882 0 0 0 0 0.65098 0 0 0 0 0.309804 0 0 0 1 0"/><feBlend in2="shape" result="effect1_innerShadow_4002_2472"/></filter><filter id="filter25_i_4002_2472" width="2.298" height="1.22" x="15.944" y="3.021" color-interpolation-filters="sRGB" filterUnits="userSpaceOnUse"><feFlood flood-opacity="0" result="BackgroundImageFix"/><feBlend in="SourceGraphic" in2="BackgroundImageFix" result="shape"/><feColorMatrix in="SourceAlpha" result="hardAlpha" values="0 0 0 0 0 0 0 0 0 0 0 0 0 0 0 0 0 0 127 0"/><feOffset dx="-.05"/><feGaussianBlur stdDeviation=".05"/><feComposite in2="hardAlpha" k2="-1" k3="1" operator="arithmetic"/><feColorMatrix values="0 0 0 0 0.960784 0 0 0 0 0.752941 0 0 0 0 0.317647 0 0 0 1 0"/><feBlend in2="shape" result="effect1_innerShadow_4002_2472"/></filter><filter id="filter26_i_4002_2472" width="1.63" height="1.63" x="15.295" y="3.531" color-interpolation-filters="sRGB" filterUnits="userSpaceOnUse"><feFlood flood-opacity="0" result="BackgroundImageFix"/><feBlend in="SourceGraphic" in2="BackgroundImageFix" result="shape"/><feColorMatrix in="SourceAlpha" result="hardAlpha" values="0 0 0 0 0 0 0 0 0 0 0 0 0 0 0 0 0 0 127 0"/><feOffset dx=".05" dy="-.05"/><feGaussianBlur stdDeviation=".2"/><feComposite in2="hardAlpha" k2="-1" k3="1" operator="arithmetic"/><feColorMatrix values="0 0 0 0 0.698039 0 0 0 0 0.4 0 0 0 0 0.121569 0 0 0 1 0"/><feBlend in2="shape" result="effect1_innerShadow_4002_2472"/></filter><linearGradient id="paint0_linear_4002_2472" x1="16" x2="16" y1="15.501" y2="30.001" gradientUnits="userSpaceOnUse"><stop stop-color="#584C78"/><stop offset="1" stop-color="#5A4B85"/></linearGradient><linearGradient id="paint5_linear_4002_2472" x1="9.135" x2="6.942" y1="27.817" y2="27.817" gradientUnits="userSpaceOnUse"><stop offset=".124" stop-color="#443A60"/><stop offset="1" stop-color="#524C6A" stop-opacity="0"/></linearGradient><linearGradient id="paint8_linear_4002_2472" x1="16.505" x2="16.505" y1="30.466" y2="28.997" gradientUnits="userSpaceOnUse"><stop stop-color="#C2AADC"/><stop offset="1" stop-color="#C2AADC" stop-opacity="0"/></linearGradient><linearGradient id="paint9_linear_4002_2472" x1="19.067" x2="17.161" y1="26.56" y2="26.56" gradientUnits="userSpaceOnUse"><stop stop-color="#80728B"/><stop offset="1" stop-color="#80728B" stop-opacity="0"/></linearGradient><linearGradient id="paint12_linear_4002_2472" x1="13.295" x2="13.295" y1="29.372" y2="15.837" gradientUnits="userSpaceOnUse"><stop stop-color="#605388"/><stop offset="1" stop-color="#564973"/></linearGradient><linearGradient id="paint15_linear_4002_2472" x1="13.295" x2="13.295" y1="29.69" y2="23.356" gradientUnits="userSpaceOnUse"><stop offset=".306" stop-color="#5D4F84"/><stop offset="1" stop-color="#5D4F84" stop-opacity="0"/></linearGradient><linearGradient id="paint16_linear_4002_2472" x1="18.715" x2="19.724" y1="20.747" y2="20.747" gradientUnits="userSpaceOnUse"><stop stop-color="#56466E"/><stop offset="1" stop-color="#625990"/></linearGradient><linearGradient id="paint20_linear_4002_2472" x1="13.583" x2="15.177" y1="16.56" y2="18.607" gradientUnits="userSpaceOnUse"><stop stop-color="#4E4852"/><stop offset="1" stop-color="#987A8D" stop-opacity="0"/><stop offset="1" stop-color="#4E4852" stop-opacity="0"/></linearGradient><linearGradient id="paint21_linear_4002_2472" x1="18.818" x2="17.747" y1="18.66" y2="18.66" gradientUnits="userSpaceOnUse"><stop stop-color="#665C72"/><stop offset="1" stop-color="#9C92A5" stop-opacity="0"/></linearGradient><linearGradient id="paint24_linear_4002_2472" x1="11.249" x2="10.608" y1="10.838" y2="10.838" gradientUnits="userSpaceOnUse"><stop stop-color="#BA7C6B"/><stop offset="1" stop-color="#BE8474"/></linearGradient><linearGradient id="paint25_linear_4002_2472" x1="21.848" x2="21.029" y1="9.468" y2="12.004" gradientUnits="userSpaceOnUse"><stop stop-color="#FBD3BD"/><stop offset="1" stop-color="#F0B8A4"/></linearGradient><linearGradient id="paint29_linear_4002_2472" x1="20.032" x2="12.396" y1="10.949" y2="12.087" gradientUnits="userSpaceOnUse"><stop stop-color="#FFDABF"/><stop offset="1" stop-color="#EAAB97"/></linearGradient><linearGradient id="paint31_linear_4002_2472" x1="10.354" x2="13.712" y1="12.476" y2="12.59" gradientUnits="userSpaceOnUse"><stop stop-color="#A58787"/><stop offset="1" stop-color="#DEAD9D" stop-opacity="0"/></linearGradient><linearGradient id="paint32_linear_4002_2472" x1="10.601" x2="12.482" y1="13.645" y2="13.578" gradientUnits="userSpaceOnUse"><stop stop-color="#E8AD97"/><stop offset="1" stop-color="#E8AD97" stop-opacity="0"/></linearGradient><linearGradient id="paint36_linear_4002_2472" x1="15.132" x2="16.07" y1="11.608" y2="11.608" gradientUnits="userSpaceOnUse"><stop stop-color="#DFA790"/><stop offset="1" stop-color="#DFA790" stop-opacity="0"/></linearGradient><linearGradient id="paint37_linear_4002_2472" x1="16.935" x2="15.909" y1="11.931" y2="11.916" gradientUnits="userSpaceOnUse"><stop stop-color="#FFDFC4"/><stop offset="1" stop-color="#FFDFC4" stop-opacity="0"/></linearGradient><linearGradient id="paint38_linear_4002_2472" x1="16.191" x2="16.191" y1="12.673" y2="12.1" gradientUnits="userSpaceOnUse"><stop stop-color="#DC9C96"/><stop offset="1" stop-color="#DC9C96" stop-opacity="0"/></linearGradient><linearGradient id="paint40_linear_4002_2472" x1="15.996" x2="15.943" y1="9.992" y2="10.962" gradientUnits="userSpaceOnUse"><stop stop-color="#DBA69B"/><stop offset="1" stop-color="#DBA69B" stop-opacity="0"/></linearGradient><linearGradient id="paint41_linear_4002_2472" x1="14.959" x2="15.394" y1="14.288" y2="13.601" gradientUnits="userSpaceOnUse"><stop stop-color="#E7B3A8"/><stop offset=".663" stop-color="#E7B3A8" stop-opacity="0"/></linearGradient><linearGradient id="paint44_linear_4002_2472" x1="18.953" x2="18.639" y1="9.932" y2="10.125" gradientUnits="userSpaceOnUse"><stop stop-color="#B4948D"/><stop offset="1" stop-color="#B4948D" stop-opacity="0"/></linearGradient><linearGradient id="paint46_linear_4002_2472" x1="14.556" x2="14.242" y1="9.932" y2="10.125" gradientUnits="userSpaceOnUse"><stop stop-color="#B4948D"/><stop offset="1" stop-color="#B4948D" stop-opacity="0"/></linearGradient><linearGradient id="paint52_linear_4002_2472" x1="15.991" x2="15.991" y1="19.225" y2="20.922" gradientUnits="userSpaceOnUse"><stop offset=".006" stop-color="#543555"/><stop offset="1" stop-color="#483A53"/></linearGradient><linearGradient id="paint53_linear_4002_2472" x1="21.084" x2="22.88" y1="20.076" y2="20.711" gradientUnits="userSpaceOnUse"><stop stop-color="#E3AB3F"/><stop offset="1" stop-color="#ECAC40"/></linearGradient><linearGradient id="paint58_linear_4002_2472" x1="17.349" x2="11.13" y1="6.841" y2="6.841" gradientUnits="userSpaceOnUse"><stop stop-color="#E3AC3F"/><stop offset="1" stop-color="#B88538"/></linearGradient><linearGradient id="paint61_linear_4002_2472" x1="16.091" x2="14.513" y1="4.161" y2="4.161" gradientUnits="userSpaceOnUse"><stop stop-color="#D19B3E"/><stop offset="1" stop-color="#E2A23D"/></linearGradient><linearGradient id="paint63_linear_4002_2472" x1="18.083" x2="16.597" y1="3.169" y2="4.16" gradientUnits="userSpaceOnUse"><stop stop-color="#E6AC3E"/><stop offset="1" stop-color="#E09037"/></linearGradient></defs></svg>