<svg xmlns="http://www.w3.org/2000/svg" width="32" height="32" fill="none"><path fill="#FFC69A" d="M18.547 2h11.212v17h-7.643a5.35 5.35 0 0 1-5.357-5.357c0-.843.202-1.634.539-2.342a.856.856 0 0 0 0-.758 5.584 5.584 0 0 1-.54-2.375c0-1.126.336-2.152.906-3.026l.004-.007a5.393 5.393 0 0 0 .876-2.948V2.17c0-.057.001-.113.003-.17Z"/><path fill="url(#a)" d="M18.547 2h11.212v17h-7.643a5.35 5.35 0 0 1-5.357-5.357c0-.843.202-1.634.539-2.342a.856.856 0 0 0 0-.758 5.584 5.584 0 0 1-.54-2.375c0-1.126.336-2.152.906-3.026l.004-.007a5.393 5.393 0 0 0 .876-2.948V2.17c0-.057.001-.113.003-.17Z"/><path fill="url(#b)" d="M18.547 2h11.212v17h-7.643a5.35 5.35 0 0 1-5.357-5.357c0-.843.202-1.634.539-2.342a.856.856 0 0 0 0-.758 5.584 5.584 0 0 1-.54-2.375c0-1.126.336-2.152.906-3.026l.004-.007a5.393 5.393 0 0 0 .876-2.948V2.17c0-.057.001-.113.003-.17Z"/><path fill="url(#c)" d="M18.547 2h11.212v17h-7.643a5.35 5.35 0 0 1-5.357-5.357c0-.843.202-1.634.539-2.342a.856.856 0 0 0 0-.758 5.584 5.584 0 0 1-.54-2.375c0-1.126.336-2.152.906-3.026l.004-.007a5.393 5.393 0 0 0 .876-2.948V2.17c0-.057.001-.113.003-.17Z"/><g filter="url(#d)"><path fill="url(#e)" d="M21.759 11a2.75 2.75 0 1 0 0-5.5 2.75 2.75 0 0 0 0 5.5Z"/></g><g filter="url(#f)"><path stroke="#FFBE93" stroke-linecap="round" stroke-width=".15" d="M19.422 8.181c0-.689.298-1.309.772-1.737"/></g><g filter="url(#g)"><path fill="url(#h)" d="M21.759 9.987a1.737 1.737 0 1 0 0-3.474 1.737 1.737 0 0 0 0 3.474Z"/></g><path fill="url(#i)" d="M30.009 16.84V30H12.625A18.069 18.069 0 0 1 30.01 16.84Z"/><path fill="url(#j)" d="M30.009 16.84V30H12.625A18.069 18.069 0 0 1 30.01 16.84Z"/><path fill="url(#k)" d="M30.009 12c-1.657 0-3 1.38-3 3.081v3.838c0 1.701 1.343 3.081 3 3.081V12Z"/><path fill="url(#l)" d="M30.009 12c-1.657 0-3 1.38-3 3.081v3.838c0 1.701 1.343 3.081 3 3.081V12Z"/><path fill="url(#m)" d="M30.009 12c-1.657 0-3 1.38-3 3.081v3.838c0 1.701 1.343 3.081 3 3.081V12Z"/><path fill="#EBAD91" d="M22.268 2a2.26 2.26 0 0 0-.919.86c-.223.372-.34.802-.34 1.241v.141l.227 5.882a8.903 8.903 0 0 0 .687 3.27 8.562 8.562 0 0 0 1.832 2.742 8.102 8.102 0 0 0 2.696 1.793 7.8 7.8 0 0 0 3.145.568h.413V2h-7.741Z"/><path fill="url(#n)" d="M22.268 2a2.26 2.26 0 0 0-.919.86c-.223.372-.34.802-.34 1.241v.141l.227 5.882a8.903 8.903 0 0 0 .687 3.27 8.562 8.562 0 0 0 1.832 2.742 8.102 8.102 0 0 0 2.696 1.793 7.8 7.8 0 0 0 3.145.568h.413V2h-7.741Z"/><path fill="url(#o)" d="M22.268 2a2.26 2.26 0 0 0-.919.86c-.223.372-.34.802-.34 1.241v.141l.227 5.882a8.903 8.903 0 0 0 .687 3.27 8.562 8.562 0 0 0 1.832 2.742 8.102 8.102 0 0 0 2.696 1.793 7.8 7.8 0 0 0 3.145.568h.413V2h-7.741Z"/><path fill="url(#p)" d="M22.268 2a2.26 2.26 0 0 0-.919.86c-.223.372-.34.802-.34 1.241v.141l.227 5.882a8.903 8.903 0 0 0 .687 3.27 8.562 8.562 0 0 0 1.832 2.742 8.102 8.102 0 0 0 2.696 1.793 7.8 7.8 0 0 0 3.145.568h.413V2h-7.741Z"/><path fill="url(#q)" d="M22.268 2a2.26 2.26 0 0 0-.919.86c-.223.372-.34.802-.34 1.241v.141l.227 5.882a8.903 8.903 0 0 0 .687 3.27 8.562 8.562 0 0 0 1.832 2.742 8.102 8.102 0 0 0 2.696 1.793 7.8 7.8 0 0 0 3.145.568h.413V2h-7.741Z"/><path fill="url(#r)" d="M22.268 2a2.26 2.26 0 0 0-.919.86c-.223.372-.34.802-.34 1.241v.141l.227 5.882a8.903 8.903 0 0 0 .687 3.27 8.562 8.562 0 0 0 1.832 2.742 8.102 8.102 0 0 0 2.696 1.793 7.8 7.8 0 0 0 3.145.568h.413V2h-7.741Z"/><path fill="url(#s)" d="m19.282 25.914-.485.922-6.656-2.5c.052-.255.222-.994.484-1.906.263-.913.844-2.328 1.141-2.953l6.64 2.187.737-1.37a1.498 1.498 0 0 1 2.22-.487c.66.495.794 1.43.289 2.083-.361.466-.76.97-1.105 1.383-.87 1.045-1.64 1.454-2.297 1.75a2.226 2.226 0 0 0-.968.891Z"/><path fill="url(#t)" d="m19.282 25.914-.485.922-6.656-2.5c.052-.255.222-.994.484-1.906.263-.913.844-2.328 1.141-2.953l6.64 2.187.737-1.37a1.498 1.498 0 0 1 2.22-.487c.66.495.794 1.43.289 2.083-.361.466-.76.97-1.105 1.383-.87 1.045-1.64 1.454-2.297 1.75a2.226 2.226 0 0 0-.968.891Z"/><path fill="url(#u)" d="m19.282 25.914-.485.922-6.656-2.5c.052-.255.222-.994.484-1.906.263-.913.844-2.328 1.141-2.953l6.64 2.187.737-1.37a1.498 1.498 0 0 1 2.22-.487c.66.495.794 1.43.289 2.083-.361.466-.76.97-1.105 1.383-.87 1.045-1.64 1.454-2.297 1.75a2.226 2.226 0 0 0-.968.891Z"/><path fill="url(#v)" d="m19.282 25.914-.485.922-6.656-2.5c.052-.255.222-.994.484-1.906.263-.913.844-2.328 1.141-2.953l6.64 2.187.737-1.37a1.498 1.498 0 0 1 2.22-.487c.66.495.794 1.43.289 2.083-.361.466-.76.97-1.105 1.383-.87 1.045-1.64 1.454-2.297 1.75a2.226 2.226 0 0 0-.968.891Z"/><path fill="url(#w)" d="m19.282 25.914-.485.922-6.656-2.5c.052-.255.222-.994.484-1.906.263-.913.844-2.328 1.141-2.953l6.64 2.187.737-1.37a1.498 1.498 0 0 1 2.22-.487c.66.495.794 1.43.289 2.083-.361.466-.76.97-1.105 1.383-.87 1.045-1.64 1.454-2.297 1.75a2.226 2.226 0 0 0-.968.891Z"/><path fill="url(#x)" d="m19.282 25.914-.485.922-6.656-2.5c.052-.255.222-.994.484-1.906.263-.913.844-2.328 1.141-2.953l6.64 2.187.737-1.37a1.498 1.498 0 0 1 2.22-.487c.66.495.794 1.43.289 2.083-.361.466-.76.97-1.105 1.383-.87 1.045-1.64 1.454-2.297 1.75a2.226 2.226 0 0 0-.968.891Z"/><path fill="url(#y)" d="m19.282 25.914-.485.922-6.656-2.5c.052-.255.222-.994.484-1.906.263-.913.844-2.328 1.141-2.953l6.64 2.187.737-1.37a1.498 1.498 0 0 1 2.22-.487c.66.495.794 1.43.289 2.083-.361.466-.76.97-1.105 1.383-.87 1.045-1.64 1.454-2.297 1.75a2.226 2.226 0 0 0-.968.891Z"/><path fill="url(#z)" d="m19.282 25.914-.485.922-6.656-2.5c.052-.255.222-.994.484-1.906.263-.913.844-2.328 1.141-2.953l6.64 2.187.737-1.37a1.498 1.498 0 0 1 2.22-.487c.66.495.794 1.43.289 2.083-.361.466-.76.97-1.105 1.383-.87 1.045-1.64 1.454-2.297 1.75a2.226 2.226 0 0 0-.968.891Z"/><rect width="2.859" height="8.147" x="21.294" y="13.466" fill="url(#A)" rx="1.429" transform="rotate(25.409 21.294 13.466)"/><rect width="2.859" height="8.147" x="21.294" y="13.466" fill="url(#B)" rx="1.429" transform="rotate(25.409 21.294 13.466)"/><rect width="2.859" height="8.147" x="21.294" y="13.466" fill="url(#C)" rx="1.429" transform="rotate(25.409 21.294 13.466)"/><path fill="url(#D)" d="M19.523 17.464a2.427 2.427 0 0 0-2.296.874l1.227 2.022c-.058.732.093 2.24 1.22 2.381 1.408.177 1.935-1.088 1.995-2.381.06-1.285-.724-2.664-2.146-2.896Z"/><path fill="url(#E)" d="M19.523 17.464a2.427 2.427 0 0 0-2.296.874l1.227 2.022c-.058.732.093 2.24 1.22 2.381 1.408.177 1.935-1.088 1.995-2.381.06-1.285-.724-2.664-2.146-2.896Z"/><path fill="url(#F)" d="M19.523 17.464a2.427 2.427 0 0 0-2.296.874l1.227 2.022c-.058.732.093 2.24 1.22 2.381 1.408.177 1.935-1.088 1.995-2.381.06-1.285-.724-2.664-2.146-2.896Z"/><path fill="url(#G)" d="M19.523 17.464a2.427 2.427 0 0 0-2.296.874l1.227 2.022c-.058.732.093 2.24 1.22 2.381 1.408.177 1.935-1.088 1.995-2.381.06-1.285-.724-2.664-2.146-2.896Z"/><path fill="url(#H)" d="M18.125 17.414c-1.23-.206-2.086.523-2.382.93l1.273 2.148c-.06.779.097 2.381 1.266 2.531 1.46.188 2.007-1.156 2.07-2.53.062-1.367-.75-2.832-2.227-3.079Z"/><path fill="url(#I)" d="M18.125 17.414c-1.23-.206-2.086.523-2.382.93l1.273 2.148c-.06.779.097 2.381 1.266 2.531 1.46.188 2.007-1.156 2.07-2.53.062-1.367-.75-2.832-2.227-3.079Z"/><path fill="url(#J)" d="M18.125 17.414c-1.23-.206-2.086.523-2.382.93l1.273 2.148c-.06.779.097 2.381 1.266 2.531 1.46.188 2.007-1.156 2.07-2.53.062-1.367-.75-2.832-2.227-3.079Z"/><path fill="url(#K)" d="M18.125 17.414c-1.23-.206-2.086.523-2.382.93l1.273 2.148c-.06.779.097 2.381 1.266 2.531 1.46.188 2.007-1.156 2.07-2.53.062-1.367-.75-2.832-2.227-3.079Z"/><path fill="url(#L)" d="M17.922 21.41c.598-1.607-.205-2.863-1.062-3.223-1.038-.435-2.5-.085-3.149 1.415l.29 1.015 1.174-.512c.082-.035.167.048.137.132-.64 1.789.251 2.099.642 2.286.248.12 1.414.38 1.968-1.113Z"/><path fill="url(#M)" d="M17.922 21.41c.598-1.607-.205-2.863-1.062-3.223-1.038-.435-2.5-.085-3.149 1.415l.29 1.015 1.174-.512c.082-.035.167.048.137.132-.64 1.789.251 2.099.642 2.286.248.12 1.414.38 1.968-1.113Z"/><g filter="url(#N)"><path fill="url(#O)" d="M29.758 7.439a.716.716 0 0 0-.623.484l-.997 2.878a.742.742 0 0 0-.029.404.812.812 0 0 0 .19.372c.097.11.223.199.368.26.145.062.305.094.468.094h.623V7.44Z"/></g><path fill="url(#P)" d="M30.008 7.313a.716.716 0 0 0-.623.484l-.997 2.878a.743.743 0 0 0-.029.403.813.813 0 0 0 .19.372c.097.11.223.2.368.26.145.062.305.094.468.095h.623V7.313Z"/><path fill="url(#Q)" d="M30.008 7.313a.716.716 0 0 0-.623.484l-.997 2.878a.743.743 0 0 0-.029.403.813.813 0 0 0 .19.372c.097.11.223.2.368.26.145.062.305.094.468.095h.623V7.313Z"/><path fill="url(#R)" d="M30.008 7.313a.716.716 0 0 0-.623.484l-.997 2.878a.743.743 0 0 0-.029.403.813.813 0 0 0 .19.372c.097.11.223.2.368.26.145.062.305.094.468.095h.623V7.313Z"/><g filter="url(#S)"><path stroke="url(#T)" stroke-width=".2" d="M30.009 13.627a4.84 4.84 0 0 1-.25.005 4.839 4.839 0 0 1-2.372-.604.248.248 0 0 0-.164-.023.26.26 0 0 0-.145.086.296.296 0 0 0-.033.333c.293.483.695.881 1.169 1.156a3.072 3.072 0 0 0 1.795.41v-1.363Z"/></g><path fill="url(#U)" d="M30.009 13.627a4.84 4.84 0 0 1-.25.005 4.839 4.839 0 0 1-2.372-.604.248.248 0 0 0-.164-.023.26.26 0 0 0-.145.086.296.296 0 0 0-.033.333c.293.483.695.881 1.169 1.156a3.072 3.072 0 0 0 1.795.41v-1.363Z"/><g filter="url(#V)"><path fill="#8D5B2D" fill-rule="evenodd" d="M26.584 4.026a4.304 4.304 0 0 0-2.593.429.505.505 0 0 1-.675-.206.485.485 0 0 1 .21-.662 5.322 5.322 0 0 1 3.206-.53c.274.04.462.29.42.557a.499.499 0 0 1-.568.412Z" clip-rule="evenodd"/></g><path fill="url(#W)" d="m18.656 26.342-5.94-2.639a.5.5 0 0 0-.66.254l-.617 1.39a.5.5 0 0 0 .254.659l5.94 2.639a.5.5 0 0 0 .66-.254L18.91 27a.5.5 0 0 0-.254-.66Z"/><path fill="url(#X)" d="m18.656 26.342-5.94-2.639a.5.5 0 0 0-.66.254l-.617 1.39a.5.5 0 0 0 .254.659l5.94 2.639a.5.5 0 0 0 .66-.254L18.91 27a.5.5 0 0 0-.254-.66Z"/><path fill="url(#Y)" d="m18.656 26.342-5.94-2.639a.5.5 0 0 0-.66.254l-.617 1.39a.5.5 0 0 0 .254.659l5.94 2.639a.5.5 0 0 0 .66-.254L18.91 27a.5.5 0 0 0-.254-.66Z"/><path fill="url(#Z)" d="m18.656 26.342-5.94-2.639a.5.5 0 0 0-.66.254l-.617 1.39a.5.5 0 0 0 .254.659l5.94 2.639a.5.5 0 0 0 .66-.254L18.91 27a.5.5 0 0 0-.254-.66Z"/><path fill="url(#aa)" d="m18.656 26.342-5.94-2.639a.5.5 0 0 0-.66.254l-.617 1.39a.5.5 0 0 0 .254.659l5.94 2.639a.5.5 0 0 0 .66-.254L18.91 27a.5.5 0 0 0-.254-.66Z"/><path fill="url(#ab)" d="m18.656 26.342-5.94-2.639a.5.5 0 0 0-.66.254l-.617 1.39a.5.5 0 0 0 .254.659l5.94 2.639a.5.5 0 0 0 .66-.254L18.91 27a.5.5 0 0 0-.254-.66Z"/><path fill="url(#ac)" d="M18.882 30H8.052l1.759-4.056c.17-.385.482-.686.87-.837a1.55 1.55 0 0 1 1.198.028l6.203 2.773c.377.175.672.492.821.885.148.39.14.823-.02 1.207Z"/><path fill="url(#ad)" d="M18.882 30H8.052l1.759-4.056c.17-.385.482-.686.87-.837a1.55 1.55 0 0 1 1.198.028l6.203 2.773c.377.175.672.492.821.885.148.39.14.823-.02 1.207Z"/><path fill="url(#ae)" d="M18.882 30H8.052l1.759-4.056c.17-.385.482-.686.87-.837a1.55 1.55 0 0 1 1.198.028l6.203 2.773c.377.175.672.492.821.885.148.39.14.823-.02 1.207Z"/><path fill="url(#af)" d="M18.882 30H8.052l1.759-4.056c.17-.385.482-.686.87-.837a1.55 1.55 0 0 1 1.198.028l6.203 2.773c.377.175.672.492.821.885.148.39.14.823-.02 1.207Z"/><path fill="url(#ag)" d="M18.882 30H8.052l1.759-4.056c.17-.385.482-.686.87-.837a1.55 1.55 0 0 1 1.198.028l6.203 2.773c.377.175.672.492.821.885.148.39.14.823-.02 1.207Z"/><g filter="url(#ah)"><path fill="url(#ai)" fill-rule="evenodd" d="M14.63 8.866a.85.85 0 0 1 .937.753 5.645 5.645 0 0 0 1.487 3.242.85.85 0 0 1-1.242 1.161 7.345 7.345 0 0 1-1.935-4.219.85.85 0 0 1 .753-.937Z" clip-rule="evenodd"/></g><g filter="url(#aj)"><path fill="url(#ak)" fill-rule="evenodd" d="M11.73 9.346a.85.85 0 0 1 .941.747c.207 1.788 1.009 3.299 2.22 4.708a.85.85 0 1 1-1.29 1.108c-1.367-1.59-2.362-3.408-2.619-5.62a.85.85 0 0 1 .747-.943Z" clip-rule="evenodd"/></g><g filter="url(#al)"><path stroke="#D4D2DD" stroke-linecap="round" stroke-width=".5" d="M12.097 10.032c.12 1.041.849 3.49 2.436 5.146"/></g><g filter="url(#am)"><path stroke="#D4D2DD" stroke-linecap="round" stroke-width=".5" d="M14.964 9.631c.143.831.67 2.716 1.633 3.61"/></g><path fill="url(#an)" d="M23.172 6.805c.006.343.315.507.468.546h1.993l2.164-.71C26.49 5.116 24.643 5.578 23.883 6c-.24.125-.718.46-.711.805Z"/><path fill="#fff" d="M25.838 5.684a2.487 2.487 0 0 0-2.412 1.885c-.08.31.159.607.477.607h3.972a.41.41 0 0 0 .405-.484 2.495 2.495 0 0 0-2.442-2.008Z"/><path fill="url(#ao)" d="M26.207 6.168a1.589 1.589 0 0 0-1.531 2.008h3.07c.035-.138.057-.275.057-.42a1.6 1.6 0 0 0-1.596-1.588Z"/><path fill="#000" d="M27.117 7.757a.906.906 0 0 0-.91-.91.906.906 0 0 0-.91.91c0 .151.036.296.1.419h1.611a.902.902 0 0 0 .109-.42Z"/><g filter="url(#ap)"><path fill="url(#aq)" d="M27.658 7.57c0-.514-.417-.856-.53-.96l-.514.497.316.644.728-.181Z"/></g><g filter="url(#ar)"><path fill="url(#as)" fill-opacity=".9" d="M26.297 6.627c.09.171.045.38-.35.413a.355.355 0 0 0-.26.161c-.165.243-.382.163-.47-.002-.103-.195.055-.48.353-.638.298-.158.623-.129.727.066Z"/><path fill="url(#at)" d="M26.297 6.627c.09.171.045.38-.35.413a.355.355 0 0 0-.26.161c-.165.243-.382.163-.47-.002-.103-.195.055-.48.353-.638.298-.158.623-.129.727.066Z"/></g><g filter="url(#au)"><path stroke="url(#av)" stroke-linecap="round" stroke-width=".25" d="M23.746 4a4.947 4.947 0 0 1 2.985-.5"/></g><g filter="url(#aw)"><path stroke="url(#ax)" stroke-linecap="round" stroke-width=".35" d="M15.92 18.723c-.93 0-1.798.546-2.773 4.446"/></g><defs><radialGradient id="a" cx="0" cy="0" r="1" gradientTransform="rotate(138.425 10.828 11.945) scale(10.949 12.1957)" gradientUnits="userSpaceOnUse"><stop offset=".391" stop-color="#B9757E"/><stop offset="1" stop-color="#B9757E" stop-opacity="0"/></radialGradient><radialGradient id="b" cx="0" cy="0" r="1" gradientTransform="rotate(104.346 9.705 10.645) scale(3.10521 2.65997)" gradientUnits="userSpaceOnUse"><stop offset=".656" stop-color="#E6A879"/><stop offset="1" stop-color="#E6A879" stop-opacity="0"/></radialGradient><radialGradient id="c" cx="0" cy="0" r="1" gradientTransform="rotate(23.499 3.274 43.813) scale(3.76715 14.7092)" gradientUnits="userSpaceOnUse"><stop offset=".364" stop-color="#FFE3A3"/><stop offset=".955" stop-color="#FFC896" stop-opacity="0"/></radialGradient><radialGradient id="e" cx="0" cy="0" r="1" gradientTransform="rotate(48.824 2.649 24.405) scale(5.4345 6.32377)" gradientUnits="userSpaceOnUse"><stop stop-color="#EDA580"/><stop offset=".64" stop-color="#E9996E"/></radialGradient><radialGradient id="h" cx="0" cy="0" r="1" gradientTransform="rotate(89.363 6.478 14.893) scale(2.0729 1.68643)" gradientUnits="userSpaceOnUse"><stop offset=".407" stop-color="#D18564"/><stop offset="1" stop-color="#D78A67"/></radialGradient><radialGradient id="i" cx="0" cy="0" r="1" gradientTransform="matrix(-8.25 6.43749 -5.94882 -7.62374 28.634 21.653)" gradientUnits="userSpaceOnUse"><stop stop-color="#8869BD"/><stop offset=".745" stop-color="#795EAE"/></radialGradient><radialGradient id="j" cx="0" cy="0" r="1" gradientTransform="matrix(-8.55223 2.82027 -1.53546 -4.65615 27.605 17.195)" gradientUnits="userSpaceOnUse"><stop stop-color="#764A80"/><stop offset="1" stop-color="#764A80" stop-opacity="0"/></radialGradient><radialGradient id="l" cx="0" cy="0" r="1" gradientTransform="rotate(164.116 13.097 10.994) scale(1.99817 1.27558)" gradientUnits="userSpaceOnUse"><stop offset=".297" stop-color="#C57884"/><stop offset="1" stop-color="#C57884" stop-opacity="0"/></radialGradient><radialGradient id="m" cx="0" cy="0" r="1" gradientTransform="matrix(0 2.80525 -.67168 0 27.54 17.977)" gradientUnits="userSpaceOnUse"><stop offset=".28" stop-color="#CE8B85"/><stop offset="1" stop-color="#CE8B85" stop-opacity="0"/></radialGradient><radialGradient id="n" cx="0" cy="0" r="1" gradientTransform="matrix(0 15.5961 -17.2713 0 29.14 3.27)" gradientUnits="userSpaceOnUse"><stop offset=".514" stop-color="#C27E85" stop-opacity="0"/><stop offset="1" stop-color="#BA6F8E"/></radialGradient><radialGradient id="p" cx="0" cy="0" r="1" gradientTransform="matrix(0 -2.59319 2.74508 0 25.96 5.647)" gradientUnits="userSpaceOnUse"><stop offset=".21" stop-color="#E19B82"/><stop offset="1" stop-color="#E19B82" stop-opacity="0"/></radialGradient><radialGradient id="q" cx="0" cy="0" r="1" gradientTransform="matrix(2.3125 2.3125 -6.50814 6.50814 21.875 2.42)" gradientUnits="userSpaceOnUse"><stop offset=".134" stop-color="#FFC093"/><stop offset="1" stop-color="#FFC093" stop-opacity="0"/></radialGradient><radialGradient id="r" cx="0" cy="0" r="1" gradientTransform="matrix(2.9354 -2.41324 .52813 .6424 20.48 3.34)" gradientUnits="userSpaceOnUse"><stop offset=".227" stop-color="#E39369"/><stop offset="1" stop-color="#E39369" stop-opacity="0"/></radialGradient><radialGradient id="s" cx="0" cy="0" r="1" gradientTransform="rotate(-82.4 24.487 2.223) scale(8.40135 16.0929)" gradientUnits="userSpaceOnUse"><stop stop-color="#FEAE95"/><stop offset="1" stop-color="#F3B29B"/></radialGradient><radialGradient id="t" cx="0" cy="0" r="1" gradientTransform="matrix(-.49543 3.4375 -4.08735 -.58909 18.545 20.95)" gradientUnits="userSpaceOnUse"><stop offset=".429" stop-color="#DB9D89"/><stop offset="1" stop-color="#DB9D89" stop-opacity="0"/></radialGradient><radialGradient id="u" cx="0" cy="0" r="1" gradientTransform="rotate(146.31 8.835 13.697) scale(2.74459 .73645)" gradientUnits="userSpaceOnUse"><stop offset=".247" stop-color="#F8C6A3"/><stop offset="1" stop-color="#F8C6A3" stop-opacity="0"/></radialGradient><radialGradient id="v" cx="0" cy="0" r="1" gradientTransform="matrix(1.78125 -5.1875 2.72418 .9354 13.889 22.934)" gradientUnits="userSpaceOnUse"><stop offset=".218" stop-color="#DE9585"/><stop offset="1" stop-color="#E2A084" stop-opacity="0"/></radialGradient><radialGradient id="w" cx="0" cy="0" r="1" gradientTransform="rotate(118.292 2.016 15.383) scale(2.77345 2.16703)" gradientUnits="userSpaceOnUse"><stop offset=".233" stop-color="#CC7473"/><stop offset="1" stop-color="#CC7473" stop-opacity="0"/></radialGradient><radialGradient id="x" cx="0" cy="0" r="1" gradientTransform="matrix(-.96873 2.5 -1.79698 -.69632 17.92 21.075)" gradientUnits="userSpaceOnUse"><stop offset=".583" stop-color="#B96464"/><stop offset="1" stop-color="#B96464" stop-opacity="0"/></radialGradient><radialGradient id="y" cx="0" cy="0" r="1" gradientTransform="matrix(1.90625 1.0625 -1.39266 2.4986 21.108 19.823)" gradientUnits="userSpaceOnUse"><stop offset=".305" stop-color="#DFA37A"/><stop offset="1" stop-color="#DFA37A" stop-opacity="0"/></radialGradient><radialGradient id="z" cx="0" cy="0" r="1" gradientTransform="rotate(-56.915 34.175 -6.26) scale(3.69243 1.43464)" gradientUnits="userSpaceOnUse"><stop offset=".157" stop-color="#CF888A"/><stop offset="1" stop-color="#CF888A" stop-opacity="0"/></radialGradient><radialGradient id="A" cx="0" cy="0" r="1" gradientTransform="matrix(2.2984 -.29608 .89242 6.92775 21.696 17.769)" gradientUnits="userSpaceOnUse"><stop stop-color="#E4A376"/><stop offset="1" stop-color="#E6AD95"/></radialGradient><radialGradient id="B" cx="0" cy="0" r="1" gradientTransform="matrix(1.33724 -1.8461 .63208 .45786 23.758 13.26)" gradientUnits="userSpaceOnUse"><stop offset=".201" stop-color="#FBC9A4"/><stop offset="1" stop-color="#FBC9A4" stop-opacity="0"/></radialGradient><radialGradient id="C" cx="0" cy="0" r="1" gradientTransform="rotate(91.156 2.55 19.101) scale(3.52879 .49425)" gradientUnits="userSpaceOnUse"><stop offset=".238" stop-color="#F3B388"/><stop offset="1" stop-color="#F3B388" stop-opacity="0"/></radialGradient><radialGradient id="D" cx="0" cy="0" r="1" gradientTransform="matrix(-2.0625 .25 -.1857 -1.53207 22.014 19.369)" gradientUnits="userSpaceOnUse"><stop offset=".262" stop-color="#FECEA9"/><stop offset="1" stop-color="#E4AF86"/></radialGradient><radialGradient id="E" cx="0" cy="0" r="1" gradientTransform="matrix(1.23147 -.56064 .71722 1.5754 20.096 22.758)" gradientUnits="userSpaceOnUse"><stop stop-color="#C6717C"/><stop offset="1" stop-color="#C6717C" stop-opacity="0"/></radialGradient><radialGradient id="F" cx="0" cy="0" r="1" gradientTransform="matrix(1.17236 4.55427 -3.0992 .7978 19.567 18.929)" gradientUnits="userSpaceOnUse"><stop offset=".874" stop-color="#C97B88" stop-opacity="0"/><stop offset=".928" stop-color="#C97B88"/></radialGradient><radialGradient id="G" cx="0" cy="0" r="1" gradientTransform="matrix(2.10937 -1.3125 1.44473 2.32189 18.358 19.65)" gradientUnits="userSpaceOnUse"><stop offset=".591" stop-color="#E0AB83"/><stop offset="1" stop-color="#E0AB83" stop-opacity="0"/></radialGradient><radialGradient id="H" cx="0" cy="0" r="1" gradientTransform="matrix(-2.14016 .2657 -.20201 -1.62719 20.71 19.439)" gradientUnits="userSpaceOnUse"><stop offset=".262" stop-color="#FFCEAC"/><stop offset="1" stop-color="#EEB78C"/></radialGradient><radialGradient id="I" cx="0" cy="0" r="1" gradientTransform="matrix(2.6266 -1.36133 3.15353 6.08455 17.729 22.9)" gradientUnits="userSpaceOnUse"><stop offset=".048" stop-color="#C16766"/><stop offset="1" stop-color="#D0747D" stop-opacity="0"/></radialGradient><radialGradient id="J" cx="0" cy="0" r="1" gradientTransform="matrix(1.04783 4.36318 -2.90657 .69802 18.17 18.971)" gradientUnits="userSpaceOnUse"><stop offset=".874" stop-color="#CB7C8B" stop-opacity="0"/><stop offset=".928" stop-color="#CB7C8B"/></radialGradient><radialGradient id="K" cx="0" cy="0" r="1" gradientTransform="matrix(1.9801 -1.4232 1.5372 2.13871 16.512 19.745)" gradientUnits="userSpaceOnUse"><stop offset=".53" stop-color="#E4AA7F"/><stop offset="1" stop-color="#E4AA7F" stop-opacity="0"/></radialGradient><radialGradient id="L" cx="0" cy="0" r="1" gradientTransform="rotate(148.225 6.324 12.207) scale(3.51732 2.10661)" gradientUnits="userSpaceOnUse"><stop offset=".086" stop-color="#FECDAA"/><stop offset="1" stop-color="#EAA58E"/></radialGradient><radialGradient id="M" cx="0" cy="0" r="1" gradientTransform="matrix(.45313 -1.35938 2.02969 .67656 15.92 22.763)" gradientUnits="userSpaceOnUse"><stop offset=".095" stop-color="#D2797C"/><stop offset=".987" stop-color="#D2797C" stop-opacity="0"/></radialGradient><radialGradient id="R" cx="0" cy="0" r="1" gradientTransform="matrix(.80876 -2.23473 .60375 .2185 28.633 10.005)" gradientUnits="userSpaceOnUse"><stop offset=".34" stop-color="#FAB991"/><stop offset="1" stop-color="#FAB991" stop-opacity="0"/></radialGradient><radialGradient id="T" cx="0" cy="0" r="1" gradientTransform="matrix(1.0625 -1.07812 1.80317 1.77704 27.793 14.57)" gradientUnits="userSpaceOnUse"><stop stop-color="#D0958C"/><stop offset="1" stop-color="#D0958C" stop-opacity="0"/></radialGradient><radialGradient id="U" cx="0" cy="0" r="1" gradientTransform="matrix(-1.63281 0 0 -2.46875 30.063 14.508)" gradientUnits="userSpaceOnUse"><stop stop-color="#920555"/><stop offset="1" stop-color="#87004D"/><stop offset="1" stop-color="#87004D"/></radialGradient><radialGradient id="Y" cx="0" cy="0" r="1" gradientTransform="rotate(-65.41 29.375 1.15) scale(2.02764 1.57877)" gradientUnits="userSpaceOnUse"><stop stop-color="#946FDE"/><stop offset="1" stop-color="#946FDE" stop-opacity="0"/></radialGradient><radialGradient id="aa" cx="0" cy="0" r="1" gradientTransform="matrix(.39063 -.85937 11.7734 5.35156 16.23 27.195)" gradientUnits="userSpaceOnUse"><stop offset=".115" stop-color="#9C84D9"/><stop offset=".314" stop-color="#9C84D9" stop-opacity="0"/></radialGradient><radialGradient id="ab" cx="0" cy="0" r="1" gradientTransform="matrix(-.54023 1.26161 -13.46265 -5.76482 17.512 25.758)" gradientUnits="userSpaceOnUse"><stop offset=".073" stop-color="#AC8CE9"/><stop offset=".417" stop-color="#AC8CE9" stop-opacity="0"/></radialGradient><radialGradient id="ae" cx="0" cy="0" r="1" gradientTransform="rotate(110.556 -.98 19.449) scale(1.335 7.37895)" gradientUnits="userSpaceOnUse"><stop offset=".207" stop-color="#A28BE1"/><stop offset="1" stop-color="#A28BE1" stop-opacity="0"/></radialGradient><radialGradient id="af" cx="0" cy="0" r="1" gradientTransform="matrix(2.28125 -5.49215 3.07788 1.27844 8.637 30)" gradientUnits="userSpaceOnUse"><stop stop-color="#957DB3"/><stop offset="1" stop-color="#957DB3" stop-opacity="0"/></radialGradient><radialGradient id="ag" cx="0" cy="0" r="1" gradientTransform="matrix(0 -2.9375 3.65625 0 15.793 31.008)" gradientUnits="userSpaceOnUse"><stop stop-color="#946FE2"/><stop offset="1" stop-color="#946FE2" stop-opacity="0"/></radialGradient><radialGradient id="ai" cx="0" cy="0" r="1" gradientTransform="rotate(151.783 6.785 7.712) scale(2.18107 6.10648)" gradientUnits="userSpaceOnUse"><stop offset=".256" stop-color="#CFCBD9"/><stop offset="1" stop-color="#978CA5"/></radialGradient><radialGradient id="ak" cx="0" cy="0" r="1" gradientTransform="rotate(150.678 5.395 8.048) scale(2.66165 7.63701)" gradientUnits="userSpaceOnUse"><stop offset=".256" stop-color="#CFCBD9"/><stop offset="1" stop-color="#978CA5"/></radialGradient><radialGradient id="an" cx="0" cy="0" r="1" gradientTransform="matrix(-1.86229 -.38309 .38425 -1.86796 24.962 7.09)" gradientUnits="userSpaceOnUse"><stop offset=".7" stop-color="#2B2A2C"/><stop offset="1" stop-color="#201724"/></radialGradient><radialGradient id="ao" cx="0" cy="0" r="1" gradientTransform="matrix(0 1.44457 -2.29775 0 26.21 7.017)" gradientUnits="userSpaceOnUse"><stop offset=".802" stop-color="#925C51"/><stop offset="1" stop-color="#694B43"/><stop offset="1" stop-color="#804D49"/><stop offset="1" stop-color="#85534D"/></radialGradient><radialGradient id="as" cx="0" cy="0" r="1" gradientTransform="matrix(-.34794 -.5716 1.04132 -.63385 25.952 7.282)" gradientUnits="userSpaceOnUse"><stop offset=".208" stop-color="#C7A7A3" stop-opacity=".25"/><stop offset=".79" stop-color="#C7A7A3"/></radialGradient><radialGradient id="at" cx="0" cy="0" r="1" gradientTransform="rotate(-118.61 15.239 -3.984) scale(.99834 .93105)" gradientUnits="userSpaceOnUse"><stop offset=".766" stop-color="#FFE6E2" stop-opacity="0"/><stop offset=".966" stop-color="#FFE6E2"/></radialGradient><filter id="d" width="5.5" height="5.75" x="19.009" y="5.25" color-interpolation-filters="sRGB" filterUnits="userSpaceOnUse"><feFlood flood-opacity="0" result="BackgroundImageFix"/><feBlend in="SourceGraphic" in2="BackgroundImageFix" result="shape"/><feColorMatrix in="SourceAlpha" result="hardAlpha" values="0 0 0 0 0 0 0 0 0 0 0 0 0 0 0 0 0 0 127 0"/><feOffset dy="-.25"/><feGaussianBlur stdDeviation=".25"/><feComposite in2="hardAlpha" k2="-1" k3="1" operator="arithmetic"/><feColorMatrix values="0 0 0 0 0.835294 0 0 0 0 0.517647 0 0 0 0 0.482353 0 0 0 1 0"/><feBlend in2="shape" result="effect1_innerShadow_4002_3960"/></filter><filter id="f" width="1.521" height="2.488" x="19.047" y="6.069" color-interpolation-filters="sRGB" filterUnits="userSpaceOnUse"><feFlood flood-opacity="0" result="BackgroundImageFix"/><feBlend in="SourceGraphic" in2="BackgroundImageFix" result="shape"/><feGaussianBlur result="effect1_foregroundBlur_4002_3960" stdDeviation=".15"/></filter><filter id="g" width="4.475" height="4.475" x="19.521" y="6.013" color-interpolation-filters="sRGB" filterUnits="userSpaceOnUse"><feFlood flood-opacity="0" result="BackgroundImageFix"/><feBlend in="SourceGraphic" in2="BackgroundImageFix" result="shape"/><feGaussianBlur result="effect1_foregroundBlur_4002_3960" stdDeviation=".25"/></filter><filter id="N" width="2.665" height="5.492" x="27.593" y="6.939" color-interpolation-filters="sRGB" filterUnits="userSpaceOnUse"><feFlood flood-opacity="0" result="BackgroundImageFix"/><feBlend in="SourceGraphic" in2="BackgroundImageFix" result="shape"/><feGaussianBlur result="effect1_foregroundBlur_4002_3960" stdDeviation=".25"/></filter><filter id="S" width="3.4" height="2.4" x="26.809" y="12.8" color-interpolation-filters="sRGB" filterUnits="userSpaceOnUse"><feFlood flood-opacity="0" result="BackgroundImageFix"/><feBlend in="SourceGraphic" in2="BackgroundImageFix" result="shape"/><feGaussianBlur result="effect1_foregroundBlur_4002_3960" stdDeviation=".05"/></filter><filter id="V" width="4.05" height="1.761" x="23.259" y="2.75" color-interpolation-filters="sRGB" filterUnits="userSpaceOnUse"><feFlood flood-opacity="0" result="BackgroundImageFix"/><feBlend in="SourceGraphic" in2="BackgroundImageFix" result="shape"/><feColorMatrix in="SourceAlpha" result="hardAlpha" values="0 0 0 0 0 0 0 0 0 0 0 0 0 0 0 0 0 0 127 0"/><feOffset dx=".15" dy="-.25"/><feGaussianBlur stdDeviation=".2"/><feComposite in2="hardAlpha" k2="-1" k3="1" operator="arithmetic"/><feColorMatrix values="0 0 0 0 0.454902 0 0 0 0 0.247059 0 0 0 0 0.180392 0 0 0 1 0"/><feBlend in2="shape" result="effect1_innerShadow_4002_3960"/></filter><filter id="ah" width="3.711" height="5.581" x="13.772" y="8.761" color-interpolation-filters="sRGB" filterUnits="userSpaceOnUse"><feFlood flood-opacity="0" result="BackgroundImageFix"/><feBlend in="SourceGraphic" in2="BackgroundImageFix" result="shape"/><feColorMatrix in="SourceAlpha" result="hardAlpha" values="0 0 0 0 0 0 0 0 0 0 0 0 0 0 0 0 0 0 127 0"/><feOffset dx=".2" dy="-.1"/><feGaussianBlur stdDeviation=".3"/><feComposite in2="hardAlpha" k2="-1" k3="1" operator="arithmetic"/><feColorMatrix values="0 0 0 0 0.427451 0 0 0 0 0.380392 0 0 0 0 0.478431 0 0 0 1 0"/><feBlend in2="shape" result="effect1_innerShadow_4002_3960"/><feColorMatrix in="SourceAlpha" result="hardAlpha" values="0 0 0 0 0 0 0 0 0 0 0 0 0 0 0 0 0 0 127 0"/><feOffset dx="-.1" dy=".05"/><feGaussianBlur stdDeviation=".15"/><feComposite in2="hardAlpha" k2="-1" k3="1" operator="arithmetic"/><feColorMatrix values="0 0 0 0 0.678431 0 0 0 0 0.678431 0 0 0 0 0.694118 0 0 0 1 0"/><feBlend in2="effect1_innerShadow_4002_3960" result="effect2_innerShadow_4002_3960"/></filter><filter id="aj" width="4.419" height="7.014" x="10.877" y="9.241" color-interpolation-filters="sRGB" filterUnits="userSpaceOnUse"><feFlood flood-opacity="0" result="BackgroundImageFix"/><feBlend in="SourceGraphic" in2="BackgroundImageFix" result="shape"/><feColorMatrix in="SourceAlpha" result="hardAlpha" values="0 0 0 0 0 0 0 0 0 0 0 0 0 0 0 0 0 0 127 0"/><feOffset dx=".2" dy="-.1"/><feGaussianBlur stdDeviation=".3"/><feComposite in2="hardAlpha" k2="-1" k3="1" operator="arithmetic"/><feColorMatrix values="0 0 0 0 0.427451 0 0 0 0 0.380392 0 0 0 0 0.478431 0 0 0 1 0"/><feBlend in2="shape" result="effect1_innerShadow_4002_3960"/><feColorMatrix in="SourceAlpha" result="hardAlpha" values="0 0 0 0 0 0 0 0 0 0 0 0 0 0 0 0 0 0 127 0"/><feOffset dx="-.1" dy=".05"/><feGaussianBlur stdDeviation=".15"/><feComposite in2="hardAlpha" k2="-1" k3="1" operator="arithmetic"/><feColorMatrix values="0 0 0 0 0.678431 0 0 0 0 0.678431 0 0 0 0 0.694118 0 0 0 1 0"/><feBlend in2="effect1_innerShadow_4002_3960" result="effect2_innerShadow_4002_3960"/></filter><filter id="al" width="3.936" height="6.647" x="11.347" y="9.282" color-interpolation-filters="sRGB" filterUnits="userSpaceOnUse"><feFlood flood-opacity="0" result="BackgroundImageFix"/><feBlend in="SourceGraphic" in2="BackgroundImageFix" result="shape"/><feGaussianBlur result="effect1_foregroundBlur_4002_3960" stdDeviation=".25"/></filter><filter id="am" width="3.133" height="5.109" x="14.214" y="8.881" color-interpolation-filters="sRGB" filterUnits="userSpaceOnUse"><feFlood flood-opacity="0" result="BackgroundImageFix"/><feBlend in="SourceGraphic" in2="BackgroundImageFix" result="shape"/><feGaussianBlur result="effect1_foregroundBlur_4002_3960" stdDeviation=".25"/></filter><filter id="ap" width="1.444" height="1.54" x="26.415" y="6.411" color-interpolation-filters="sRGB" filterUnits="userSpaceOnUse"><feFlood flood-opacity="0" result="BackgroundImageFix"/><feBlend in="SourceGraphic" in2="BackgroundImageFix" result="shape"/><feGaussianBlur result="effect1_foregroundBlur_4002_3960" stdDeviation=".1"/></filter><filter id="ar" width="1.35" height="1.095" x="25.086" y="6.359" color-interpolation-filters="sRGB" filterUnits="userSpaceOnUse"><feFlood flood-opacity="0" result="BackgroundImageFix"/><feBlend in="SourceGraphic" in2="BackgroundImageFix" result="shape"/><feGaussianBlur result="effect1_foregroundBlur_4002_3960" stdDeviation=".05"/></filter><filter id="au" width="3.734" height="1.3" x="23.371" y="3.075" color-interpolation-filters="sRGB" filterUnits="userSpaceOnUse"><feFlood flood-opacity="0" result="BackgroundImageFix"/><feBlend in="SourceGraphic" in2="BackgroundImageFix" result="shape"/><feGaussianBlur result="effect1_foregroundBlur_4002_3960" stdDeviation=".125"/></filter><filter id="aw" width="4.124" height="5.795" x="12.472" y="18.048" color-interpolation-filters="sRGB" filterUnits="userSpaceOnUse"><feFlood flood-opacity="0" result="BackgroundImageFix"/><feBlend in="SourceGraphic" in2="BackgroundImageFix" result="shape"/><feGaussianBlur result="effect1_foregroundBlur_4002_3960" stdDeviation=".25"/></filter><linearGradient id="k" x1="30.188" x2="28.509" y1="20.125" y2="20.125" gradientUnits="userSpaceOnUse"><stop stop-color="#E0A299"/><stop offset="1" stop-color="#D48C8C"/></linearGradient><linearGradient id="o" x1="20.546" x2="23.04" y1="9.448" y2="9.371" gradientUnits="userSpaceOnUse"><stop offset=".122" stop-color="#FFBE8E"/><stop offset="1" stop-color="#FFBE8E" stop-opacity="0"/><stop offset="1" stop-color="#FCB78C"/></linearGradient><linearGradient id="O" x1="28.481" x2="29.154" y1="11.646" y2="8.931" gradientUnits="userSpaceOnUse"><stop stop-color="#D0897B"/><stop offset="1" stop-color="#D0897B" stop-opacity="0"/></linearGradient><linearGradient id="P" x1="29.762" x2="29.762" y1="11.805" y2="7.133" gradientUnits="userSpaceOnUse"><stop offset=".528" stop-color="#F2B590"/><stop offset="1" stop-color="#F2B590" stop-opacity="0"/></linearGradient><linearGradient id="Q" x1="29.798" x2="29.798" y1="11.805" y2="9.96" gradientUnits="userSpaceOnUse"><stop stop-color="#CB8480"/><stop offset=".721" stop-color="#CB8480" stop-opacity="0"/></linearGradient><linearGradient id="W" x1="12.074" x2="16.28" y1="24.539" y2="29.824" gradientUnits="userSpaceOnUse"><stop stop-color="#7F5DBC"/><stop offset="1" stop-color="#926CDC"/></linearGradient><linearGradient id="X" x1="11.543" x2="14.668" y1="24.414" y2="25.82" gradientUnits="userSpaceOnUse"><stop stop-color="#977EB0"/><stop offset="1" stop-color="#977EB0" stop-opacity="0"/></linearGradient><linearGradient id="Z" x1="15.686" x2="14.663" y1="25.022" y2="27.325" gradientUnits="userSpaceOnUse"><stop stop-color="#8B6BA9"/><stop offset=".16" stop-color="#8B6BA9" stop-opacity="0"/></linearGradient><linearGradient id="ac" x1="9.321" x2="17.509" y1="28.059" y2="31.153" gradientUnits="userSpaceOnUse"><stop stop-color="#7D5DBB"/><stop offset="1" stop-color="#8C6AD7"/></linearGradient><linearGradient id="ad" x1="15.043" x2="14.446" y1="26.414" y2="27.903" gradientUnits="userSpaceOnUse"><stop stop-color="#7D699C"/><stop offset="1" stop-color="#7E6A9F" stop-opacity="0"/></linearGradient><linearGradient id="aq" x1="27.535" x2="26.976" y1="7.113" y2="7.457" gradientUnits="userSpaceOnUse"><stop stop-color="#B4948D"/><stop offset="1" stop-color="#B4948D" stop-opacity="0"/></linearGradient><linearGradient id="av" x1="26.496" x2="23.559" y1="3.555" y2="4.195" gradientUnits="userSpaceOnUse"><stop stop-color="#9F6C43"/><stop offset="1" stop-color="#9F6C43" stop-opacity="0"/></linearGradient><linearGradient id="ax" x1="14.491" x2="14.491" y1="18.567" y2="23.169" gradientUnits="userSpaceOnUse"><stop stop-color="#F6B993"/><stop offset="1" stop-color="#F6B993" stop-opacity="0"/></linearGradient></defs></svg>