<svg xmlns="http://www.w3.org/2000/svg" width="32" height="32" fill="none" viewBox="0 0 32 32"><g filter="url(#filter0_i_18_18367)"><circle cx="22.333" cy="10.206" r="7.466" fill="url(#paint0_radial_18_18367)"/><circle cx="22.333" cy="10.206" r="7.466" fill="url(#paint1_radial_18_18367)"/><circle cx="22.333" cy="10.206" r="7.466" fill="url(#paint2_radial_18_18367)"/></g><path fill="url(#paint3_linear_18_18367)" d="M17.542 4.48a7.466 7.466 0 1 0 10.092 10.982L17.543 4.48Z"/><path fill="url(#paint4_linear_18_18367)" d="M16.51 3.539a1.608 1.608 0 0 1 2.273.078l9.887 10.59a1.608 1.608 0 0 1-2.35 2.194L16.433 5.81a1.608 1.608 0 0 1 .078-2.272Z"/><path fill="url(#paint5_radial_18_18367)" d="M16.51 3.539a1.608 1.608 0 0 1 2.273.078l9.887 10.59a1.608 1.608 0 0 1-2.35 2.194L16.433 5.81a1.608 1.608 0 0 1 .078-2.272Z"/><g filter="url(#filter1_i_18_18367)"><path fill="url(#paint6_linear_18_18367)" d="m14.886 10.96 6.221 6.619L5.762 28.812a2.315 2.315 0 0 1-3.134-3.363l12.258-14.488Z"/><path fill="url(#paint7_radial_18_18367)" d="m14.886 10.96 6.221 6.619L5.762 28.812a2.315 2.315 0 0 1-3.134-3.363l12.258-14.488Z"/></g><g filter="url(#filter2_f_18_18367)"><circle cx="13.79" cy="18.087" r="1.395" fill="#8A858F"/></g><g filter="url(#filter3_ii_18_18367)"><circle cx="13.899" cy="18.087" r="1.395" fill="url(#paint8_linear_18_18367)"/></g><defs><radialGradient id="paint0_radial_18_18367" cx="0" cy="0" r="1" gradientTransform="rotate(-88.24 20.108 -2.504) scale(11.0379)" gradientUnits="userSpaceOnUse"><stop offset=".189" stop-color="#512F70"/><stop offset="1" stop-color="#372D44"/></radialGradient><radialGradient id="paint1_radial_18_18367" cx="0" cy="0" r="1" gradientTransform="rotate(140.631 11.827 8.61) scale(6.306 4.91911)" gradientUnits="userSpaceOnUse"><stop offset=".125" stop-color="#6C6476"/><stop offset="1" stop-color="#6C6476" stop-opacity="0"/></radialGradient><radialGradient id="paint2_radial_18_18367" cx="0" cy="0" r="1" gradientTransform="matrix(1.31249 10.15766 -10.08685 1.30334 21.931 7.514)" gradientUnits="userSpaceOnUse"><stop offset=".911" stop-color="#513071" stop-opacity="0"/><stop offset="1" stop-color="#72538F"/></radialGradient><radialGradient id="paint5_radial_18_18367" cx="0" cy="0" r="1" gradientTransform="matrix(-1.59376 1.66132 -9.55095 -9.16256 24.306 10.009)" gradientUnits="userSpaceOnUse"><stop offset=".161" stop-color="#C9C8CB"/><stop offset="1" stop-color="#A7A0AF" stop-opacity="0"/></radialGradient><radialGradient id="paint7_radial_18_18367" cx="0" cy="0" r="1" gradientTransform="matrix(-15.1875 11.75009 -1.53732 -1.98705 19.681 15.139)" gradientUnits="userSpaceOnUse"><stop stop-color="#AEA6B5"/><stop offset="1" stop-color="#AEA6B5" stop-opacity="0"/></radialGradient><linearGradient id="paint3_linear_18_18367" x1="22.431" x2="21.556" y1="11.545" y2="12.358" gradientUnits="userSpaceOnUse"><stop stop-color="#382A4B"/><stop offset="1" stop-color="#382A4B" stop-opacity="0"/></linearGradient><linearGradient id="paint4_linear_18_18367" x1="15.494" x2="26.619" y1="4.264" y2="16.264" gradientUnits="userSpaceOnUse"><stop stop-color="#848286"/><stop offset="1" stop-color="#A89FB0"/></linearGradient><linearGradient id="paint6_linear_18_18367" x1="14.588" x2="9.494" y1="21.951" y2="16.951" gradientUnits="userSpaceOnUse"><stop stop-color="#ADA3B3"/><stop offset="1" stop-color="#949198"/></linearGradient><linearGradient id="paint8_linear_18_18367" x1="13.088" x2="14.963" y1="16.951" y2="19.326" gradientUnits="userSpaceOnUse"><stop stop-color="#C0BAC6"/><stop offset="1" stop-color="#CDC4D4"/></linearGradient><filter id="filter0_i_18_18367" width="15.431" height="15.431" x="14.867" y="2.74" color-interpolation-filters="sRGB" filterUnits="userSpaceOnUse"><feFlood flood-opacity="0" result="BackgroundImageFix"/><feBlend in="SourceGraphic" in2="BackgroundImageFix" result="shape"/><feColorMatrix in="SourceAlpha" result="hardAlpha" values="0 0 0 0 0 0 0 0 0 0 0 0 0 0 0 0 0 0 127 0"/><feOffset dx=".5" dy=".5"/><feGaussianBlur stdDeviation=".5"/><feComposite in2="hardAlpha" k2="-1" k3="1" operator="arithmetic"/><feColorMatrix values="0 0 0 0 0.301961 0 0 0 0 0.290196 0 0 0 0 0.317647 0 0 0 1 0"/><feBlend in2="shape" result="effect1_innerShadow_18_18367"/></filter><filter id="filter1_i_18_18367" width="20.277" height="19.049" x="2.08" y="10.961" color-interpolation-filters="sRGB" filterUnits="userSpaceOnUse"><feFlood flood-opacity="0" result="BackgroundImageFix"/><feBlend in="SourceGraphic" in2="BackgroundImageFix" result="shape"/><feColorMatrix in="SourceAlpha" result="hardAlpha" values="0 0 0 0 0 0 0 0 0 0 0 0 0 0 0 0 0 0 127 0"/><feOffset dx="1.25" dy=".75"/><feGaussianBlur stdDeviation="1"/><feComposite in2="hardAlpha" k2="-1" k3="1" operator="arithmetic"/><feColorMatrix values="0 0 0 0 0.490196 0 0 0 0 0.490196 0 0 0 0 0.494118 0 0 0 1 0"/><feBlend in2="shape" result="effect1_innerShadow_18_18367"/></filter><filter id="filter2_f_18_18367" width="3.09" height="3.09" x="12.245" y="16.543" color-interpolation-filters="sRGB" filterUnits="userSpaceOnUse"><feFlood flood-opacity="0" result="BackgroundImageFix"/><feBlend in="SourceGraphic" in2="BackgroundImageFix" result="shape"/><feGaussianBlur result="effect1_foregroundBlur_18_18367" stdDeviation=".075"/></filter><filter id="filter3_ii_18_18367" width="3.09" height="2.79" x="12.354" y="16.692" color-interpolation-filters="sRGB" filterUnits="userSpaceOnUse"><feFlood flood-opacity="0" result="BackgroundImageFix"/><feBlend in="SourceGraphic" in2="BackgroundImageFix" result="shape"/><feColorMatrix in="SourceAlpha" result="hardAlpha" values="0 0 0 0 0 0 0 0 0 0 0 0 0 0 0 0 0 0 127 0"/><feOffset dx="-.15"/><feGaussianBlur stdDeviation=".075"/><feComposite in2="hardAlpha" k2="-1" k3="1" operator="arithmetic"/><feColorMatrix values="0 0 0 0 0.862745 0 0 0 0 0.847059 0 0 0 0 0.882353 0 0 0 1 0"/><feBlend in2="shape" result="effect1_innerShadow_18_18367"/><feColorMatrix in="SourceAlpha" result="hardAlpha" values="0 0 0 0 0 0 0 0 0 0 0 0 0 0 0 0 0 0 127 0"/><feOffset dx=".15"/><feGaussianBlur stdDeviation=".125"/><feComposite in2="hardAlpha" k2="-1" k3="1" operator="arithmetic"/><feColorMatrix values="0 0 0 0 0.584314 0 0 0 0 0.572549 0 0 0 0 0.6 0 0 0 1 0"/><feBlend in2="effect1_innerShadow_18_18367" result="effect2_innerShadow_18_18367"/></filter></defs></svg>