<svg xmlns="http://www.w3.org/2000/svg" width="32" height="32" fill="none" viewBox="0 0 32 32"><path fill="url(#paint0_radial_4002_3949)" d="M30.002 16.357v13.16H12.619a18.07 18.07 0 0 1 17.383-13.16Z"/><path fill="url(#paint1_radial_4002_3949)" d="M30.002 16.357v13.16H12.619a18.07 18.07 0 0 1 17.383-13.16Z"/><path fill="url(#paint2_linear_4002_3949)" d="M30.002 11.517c-1.657 0-3 1.38-3 3.082v3.837c0 1.702 1.343 3.081 3 3.081v-10Z"/><path fill="url(#paint3_radial_4002_3949)" d="M30.002 11.517c-1.657 0-3 1.38-3 3.082v3.837c0 1.702 1.343 3.081 3 3.081v-10Z"/><path fill="#3C332F" d="M19.002 1.517a3.88 3.88 0 0 0 .642 1.56c.288.426.444.927.45 1.44v6.84a3.57 3.57 0 0 0 2.41 3.38l3.11 1.08V3.627l4.331.016V1.517H19.002Z"/><path fill="url(#paint4_linear_4002_3949)" d="M19.002 1.517a3.88 3.88 0 0 0 .642 1.56c.288.426.444.927.45 1.44v6.84a3.57 3.57 0 0 0 2.41 3.38l3.11 1.08V3.627l4.331.016V1.517H19.002Z"/><path fill="url(#paint5_radial_4002_3949)" d="M19.002 1.517a3.88 3.88 0 0 0 .642 1.56c.288.426.444.927.45 1.44v6.84a3.57 3.57 0 0 0 2.41 3.38l3.11 1.08V3.627l4.331.016V1.517H19.002Z"/><path fill="url(#paint6_radial_4002_3949)" d="M19.002 1.517a3.88 3.88 0 0 0 .642 1.56c.288.426.444.927.45 1.44v6.84a3.57 3.57 0 0 0 2.41 3.38l3.11 1.08V3.627l4.331.016V1.517H19.002Z"/><g filter="url(#filter0_i_4002_3949)"><path fill="url(#paint7_radial_4002_3949)" d="M21.752 10.017a2.75 2.75 0 1 0 0-5.5 2.75 2.75 0 0 0 0 5.5Z"/></g><g filter="url(#filter1_f_4002_3949)"><path stroke="#685246" stroke-linecap="round" stroke-width=".3" d="M19.49 7.267c0-.652.276-1.24.718-1.654"/></g><g filter="url(#filter2_f_4002_3949)"><path fill="#2F1D21" d="M21.752 9.017a1.75 1.75 0 1 0 0-3.5 1.75 1.75 0 0 0 0 3.5Z"/></g><g filter="url(#filter3_ii_4002_3949)"><path fill="url(#paint8_radial_4002_3949)" fill-rule="evenodd" d="M14.535 8.393a.85.85 0 0 1 .937.753 5.644 5.644 0 0 0 1.488 3.242.85.85 0 0 1-1.243 1.16 7.345 7.345 0 0 1-1.935-4.218.85.85 0 0 1 .753-.937Z" clip-rule="evenodd"/></g><g filter="url(#filter4_ii_4002_3949)"><path fill="url(#paint9_radial_4002_3949)" fill-rule="evenodd" d="M11.634 8.873a.85.85 0 0 1 .942.747c.207 1.787 1.009 3.298 2.22 4.707a.85.85 0 0 1-1.29 1.108c-1.367-1.59-2.362-3.408-2.618-5.62a.85.85 0 0 1 .746-.942Z" clip-rule="evenodd"/></g><g filter="url(#filter5_i_4002_3949)"><path fill="#4A312E" d="M30.002 1.517h-8.555c-.445.5-.513 1.515-.445 2l.49 9a6.53 6.53 0 0 0 2.171 4.036c1.188 1.038 3.331 1.612 4.909 1.614h1.43V1.517Z"/><path fill="url(#paint10_linear_4002_3949)" d="M30.002 1.517h-8.555c-.445.5-.513 1.515-.445 2l.49 9a6.53 6.53 0 0 0 2.171 4.036c1.188 1.038 3.331 1.612 4.909 1.614h1.43V1.517Z"/><path fill="url(#paint11_radial_4002_3949)" d="M30.002 1.517h-8.555c-.445.5-.513 1.515-.445 2l.49 9a6.53 6.53 0 0 0 2.171 4.036c1.188 1.038 3.331 1.612 4.909 1.614h1.43V1.517Z"/></g><path fill="url(#paint12_radial_4002_3949)" d="M30.002 1.517h-8.555c-.445.5-.513 1.515-.445 2l.49 9a6.53 6.53 0 0 0 2.171 4.036c1.188 1.038 3.331 1.612 4.909 1.614h1.43V1.517Z"/><path fill="url(#paint13_radial_4002_3949)" d="M30.002 1.517h-8.555c-.445.5-.513 1.515-.445 2l.49 9a6.53 6.53 0 0 0 2.171 4.036c1.188 1.038 3.331 1.612 4.909 1.614h1.43V1.517Z"/><path fill="url(#paint14_radial_4002_3949)" d="M30.002 1.517h-8.555c-.445.5-.513 1.515-.445 2l.49 9a6.53 6.53 0 0 0 2.171 4.036c1.188 1.038 3.331 1.612 4.909 1.614h1.43V1.517Z"/><path fill="#523132" d="m19.143 25.327-.485.922-6.656-2.5c.052-.256.222-.994.484-1.907.263-.912.844-2.328 1.141-2.953l6.64 2.188.737-1.37a1.498 1.498 0 0 1 2.22-.488c.66.496.794 1.431.289 2.083-.361.466-.76.97-1.105 1.384-.87 1.044-1.64 1.453-2.297 1.75a2.227 2.227 0 0 0-.968.89Z"/><path fill="url(#paint15_radial_4002_3949)" d="m19.143 25.327-.485.922-6.656-2.5c.052-.256.222-.994.484-1.907.263-.912.844-2.328 1.141-2.953l6.64 2.188.737-1.37a1.498 1.498 0 0 1 2.22-.488c.66.496.794 1.431.289 2.083-.361.466-.76.97-1.105 1.384-.87 1.044-1.64 1.453-2.297 1.75a2.227 2.227 0 0 0-.968.89Z"/><path fill="url(#paint16_radial_4002_3949)" d="m19.143 25.327-.485.922-6.656-2.5c.052-.256.222-.994.484-1.907.263-.912.844-2.328 1.141-2.953l6.64 2.188.737-1.37a1.498 1.498 0 0 1 2.22-.488c.66.496.794 1.431.289 2.083-.361.466-.76.97-1.105 1.384-.87 1.044-1.64 1.453-2.297 1.75a2.227 2.227 0 0 0-.968.89Z"/><path fill="url(#paint17_radial_4002_3949)" d="m19.143 25.327-.485.922-6.656-2.5c.052-.256.222-.994.484-1.907.263-.912.844-2.328 1.141-2.953l6.64 2.188.737-1.37a1.498 1.498 0 0 1 2.22-.488c.66.496.794 1.431.289 2.083-.361.466-.76.97-1.105 1.384-.87 1.044-1.64 1.453-2.297 1.75a2.227 2.227 0 0 0-.968.89Z"/><path fill="url(#paint18_radial_4002_3949)" d="m19.143 25.327-.485.922-6.656-2.5c.052-.256.222-.994.484-1.907.263-.912.844-2.328 1.141-2.953l6.64 2.188.737-1.37a1.498 1.498 0 0 1 2.22-.488c.66.496.794 1.431.289 2.083-.361.466-.76.97-1.105 1.384-.87 1.044-1.64 1.453-2.297 1.75a2.227 2.227 0 0 0-.968.89Z"/><path fill="url(#paint19_radial_4002_3949)" d="m19.143 25.327-.485.922-6.656-2.5c.052-.256.222-.994.484-1.907.263-.912.844-2.328 1.141-2.953l6.64 2.188.737-1.37a1.498 1.498 0 0 1 2.22-.488c.66.496.794 1.431.289 2.083-.361.466-.76.97-1.105 1.384-.87 1.044-1.64 1.453-2.297 1.75a2.227 2.227 0 0 0-.968.89Z"/><path fill="url(#paint20_radial_4002_3949)" d="m19.143 25.327-.485.922-6.656-2.5c.052-.256.222-.994.484-1.907.263-.912.844-2.328 1.141-2.953l6.64 2.188.737-1.37a1.498 1.498 0 0 1 2.22-.488c.66.496.794 1.431.289 2.083-.361.466-.76.97-1.105 1.384-.87 1.044-1.64 1.453-2.297 1.75a2.227 2.227 0 0 0-.968.89Z"/><rect width="2.859" height="8.147" x="21.155" y="12.879" fill="url(#paint21_radial_4002_3949)" rx="1.429" transform="rotate(25.409 21.155 12.879)"/><rect width="2.859" height="8.147" x="21.155" y="12.879" fill="url(#paint22_radial_4002_3949)" rx="1.429" transform="rotate(25.409 21.155 12.879)"/><rect width="2.859" height="8.147" x="21.155" y="12.879" fill="url(#paint23_radial_4002_3949)" rx="1.429" transform="rotate(25.409 21.155 12.879)"/><path fill="url(#paint24_radial_4002_3949)" d="M19.384 16.876a2.427 2.427 0 0 0-2.296.875l1.227 2.021c-.058.733.093 2.24 1.22 2.382 1.408.176 1.935-1.088 1.995-2.382.06-1.285-.724-2.663-2.146-2.896Z"/><path fill="url(#paint25_radial_4002_3949)" d="M19.384 16.876a2.427 2.427 0 0 0-2.296.875l1.227 2.021c-.058.733.093 2.24 1.22 2.382 1.408.176 1.935-1.088 1.995-2.382.06-1.285-.724-2.663-2.146-2.896Z"/><path fill="url(#paint26_radial_4002_3949)" d="M19.384 16.876a2.427 2.427 0 0 0-2.296.875l1.227 2.021c-.058.733.093 2.24 1.22 2.382 1.408.176 1.935-1.088 1.995-2.382.06-1.285-.724-2.663-2.146-2.896Z"/><path fill="url(#paint27_radial_4002_3949)" d="M19.384 16.876a2.427 2.427 0 0 0-2.296.875l1.227 2.021c-.058.733.093 2.24 1.22 2.382 1.408.176 1.935-1.088 1.995-2.382.06-1.285-.724-2.663-2.146-2.896Z"/><path fill="url(#paint28_radial_4002_3949)" d="M17.986 16.827c-1.23-.207-2.086.523-2.382.93l1.273 2.148c-.06.778.097 2.381 1.266 2.531 1.46.188 2.008-1.156 2.07-2.531.062-1.366-.75-2.831-2.227-3.078Z"/><path fill="url(#paint29_radial_4002_3949)" d="M17.986 16.827c-1.23-.207-2.086.523-2.382.93l1.273 2.148c-.06.778.097 2.381 1.266 2.531 1.46.188 2.008-1.156 2.07-2.531.062-1.366-.75-2.831-2.227-3.078Z"/><path fill="url(#paint30_radial_4002_3949)" d="M17.986 16.827c-1.23-.207-2.086.523-2.382.93l1.273 2.148c-.06.778.097 2.381 1.266 2.531 1.46.188 2.008-1.156 2.07-2.531.062-1.366-.75-2.831-2.227-3.078Z"/><path fill="url(#paint31_radial_4002_3949)" d="M17.986 16.827c-1.23-.207-2.086.523-2.382.93l1.273 2.148c-.06.778.097 2.381 1.266 2.531 1.46.188 2.008-1.156 2.07-2.531.062-1.366-.75-2.831-2.227-3.078Z"/><path fill="url(#paint32_radial_4002_3949)" d="M17.783 20.823c.598-1.608-.205-2.863-1.062-3.223-1.038-.435-2.5-.086-3.149 1.414l.29 1.016 1.174-.512c.082-.036.167.047.137.132-.64 1.789.251 2.099.642 2.286.248.12 1.414.379 1.968-1.113Z"/><path fill="url(#paint33_radial_4002_3949)" d="M17.783 20.823c.598-1.608-.205-2.863-1.062-3.223-1.038-.435-2.5-.086-3.149 1.414l.29 1.016 1.174-.512c.082-.036.167.047.137.132-.64 1.789.251 2.099.642 2.286.248.12 1.414.379 1.968-1.113Z"/><g filter="url(#filter6_i_4002_3949)"><path fill="#191919" fill-rule="evenodd" d="M26.731 3.025a3.6 3.6 0 0 0-2.465.59.49.49 0 1 1-.548-.812 4.58 4.58 0 0 1 3.135-.75.49.49 0 0 1-.122.972Z" clip-rule="evenodd"/></g><g filter="url(#filter7_f_4002_3949)"><path fill="url(#paint34_linear_4002_3949)" d="M29.777 7.517c-.112.016-.107-.622-.199-.556-.18 0-.324.293-.367.43l-.986 2.655a.896.896 0 0 0 .143.807c.087.115.2.208.33.272.362.179.849-.034 1.195-.143l-.116-3.465Z"/></g><path fill="url(#paint35_linear_4002_3949)" d="M30.002 6.524a.629.629 0 0 0-.29.124.67.67 0 0 0-.234.34l-.847 2.852a.95.95 0 0 0 .135.808.886.886 0 0 0 .31.271.848.848 0 0 0 .393.098h.533V6.524Z"/><path fill="url(#paint36_radial_4002_3949)" d="M30.002 6.524a.629.629 0 0 0-.29.124.67.67 0 0 0-.234.34l-.847 2.852a.95.95 0 0 0 .135.808.886.886 0 0 0 .31.271.848.848 0 0 0 .393.098h.533V6.524Z"/><path fill="url(#paint37_radial_4002_3949)" d="M30.002 6.524a.629.629 0 0 0-.29.124.67.67 0 0 0-.234.34l-.847 2.852a.95.95 0 0 0 .135.808.886.886 0 0 0 .31.271.848.848 0 0 0 .393.098h.533V6.524Z"/><g filter="url(#filter8_f_4002_3949)"><path stroke="url(#paint38_linear_4002_3949)" stroke-width=".2" d="M30.002 12.644a4.842 4.842 0 0 1-.25.005 4.837 4.837 0 0 1-2.372-.604.249.249 0 0 0-.164-.023.26.26 0 0 0-.144.086.297.297 0 0 0-.033.333c.292.484.694.881 1.168 1.157a3.072 3.072 0 0 0 1.795.409v-1.363Z"/></g><path fill="url(#paint39_radial_4002_3949)" d="M30.002 12.644a4.842 4.842 0 0 1-.25.005 4.837 4.837 0 0 1-2.372-.604.249.249 0 0 0-.164-.023.26.26 0 0 0-.144.086.297.297 0 0 0-.033.333c.292.484.694.881 1.168 1.157a3.072 3.072 0 0 0 1.795.409v-1.363Z"/><path fill="url(#paint40_linear_4002_3949)" d="m18.65 25.859-6.275-2.78a.5.5 0 0 0-.66.253l-.617 1.39a.5.5 0 0 0 .254.66l6.274 2.78a.5.5 0 0 0 .66-.254l.617-1.39a.5.5 0 0 0-.254-.66Z"/><path fill="url(#paint41_radial_4002_3949)" d="m18.65 25.859-6.275-2.78a.5.5 0 0 0-.66.253l-.617 1.39a.5.5 0 0 0 .254.66l6.274 2.78a.5.5 0 0 0 .66-.254l.617-1.39a.5.5 0 0 0-.254-.66Z"/><path fill="url(#paint42_linear_4002_3949)" d="m18.65 25.859-6.275-2.78a.5.5 0 0 0-.66.253l-.617 1.39a.5.5 0 0 0 .254.66l6.274 2.78a.5.5 0 0 0 .66-.254l.617-1.39a.5.5 0 0 0-.254-.66Z"/><path fill="url(#paint43_linear_4002_3949)" d="M18.876 29.517H8.045l1.76-4.055a1.58 1.58 0 0 1 .869-.838 1.55 1.55 0 0 1 1.198.029l6.204 2.773c.377.174.671.492.82.885.148.39.14.822-.02 1.206Z"/><path fill="url(#paint44_linear_4002_3949)" d="M18.876 29.517H8.045l1.76-4.055a1.58 1.58 0 0 1 .869-.838 1.55 1.55 0 0 1 1.198.029l6.204 2.773c.377.174.671.492.82.885.148.39.14.822-.02 1.206Z"/><path fill="url(#paint45_radial_4002_3949)" d="M18.876 29.517H8.045l1.76-4.055a1.58 1.58 0 0 1 .869-.838 1.55 1.55 0 0 1 1.198.029l6.204 2.773c.377.174.671.492.82.885.148.39.14.822-.02 1.206Z"/><path fill="#fff" d="M26.008 5.167a2.345 2.345 0 0 0-2.275 1.778.46.46 0 0 0 .45.572h3.746c.239 0 .43-.218.382-.456a2.353 2.353 0 0 0-2.303-1.894Z"/><path fill="url(#paint46_radial_4002_3949)" d="M26.356 5.624a1.499 1.499 0 0 0-1.445 1.893h2.895a1.5 1.5 0 0 0 .055-.395 1.509 1.509 0 0 0-1.505-1.498Z"/><path fill="#000" d="M27.214 7.122a.855.855 0 0 0-.858-.858.855.855 0 0 0-.859.858c0 .143.034.28.096.395h1.519a.851.851 0 0 0 .102-.395Z"/><g filter="url(#filter9_f_4002_3949)"><path fill="url(#paint47_linear_4002_3949)" d="M27.725 6.946c0-.484-.394-.807-.5-.904l-.485.468.298.606.687-.17Z"/></g><g filter="url(#filter10_f_4002_3949)"><path fill="url(#paint48_radial_4002_3949)" fill-opacity=".9" d="M26.44 6.057c.085.16.044.355-.32.388a.367.367 0 0 0-.26.162c-.155.219-.356.143-.438-.011-.097-.183.052-.453.333-.602.281-.148.588-.12.685.063Z"/><path fill="url(#paint49_radial_4002_3949)" d="M26.44 6.057c.085.16.044.355-.32.388a.367.367 0 0 0-.26.162c-.155.219-.356.143-.438-.011-.097-.183.052-.453.333-.602.281-.148.588-.12.685.063Z"/></g><g stroke-linecap="round" stroke-width=".2" filter="url(#filter11_f_4002_3949)"><path stroke="url(#paint50_linear_4002_3949)" d="M23.97 3.077c.397-.292 1.526-.838 2.876-.688"/><path stroke="url(#paint51_linear_4002_3949)" d="M23.97 3.077c.397-.292 1.526-.838 2.876-.688"/></g><g filter="url(#filter12_f_4002_3949)"><path stroke="#D4D2DD" stroke-linecap="round" stroke-width=".5" d="M12.002 9.558c.12 1.042.849 3.49 2.436 5.147"/></g><g filter="url(#filter13_f_4002_3949)"><path stroke="#D4D2DD" stroke-linecap="round" stroke-width=".5" d="M14.87 9.158c.142.83.67 2.716 1.632 3.61"/></g><g filter="url(#filter14_f_4002_3949)"><path stroke="url(#paint52_linear_4002_3949)" stroke-linecap="round" stroke-width=".35" d="M15.367 18.367c-.93 0-1.798.546-2.773 4.445"/></g><defs><radialGradient id="paint0_radial_4002_3949" cx="0" cy="0" r="1" gradientTransform="matrix(-8.25 6.43749 -5.94882 -7.62374 28.627 21.17)" gradientUnits="userSpaceOnUse"><stop offset=".264" stop-color="#F4781C"/><stop offset="1" stop-color="#E86028"/></radialGradient><radialGradient id="paint1_radial_4002_3949" cx="0" cy="0" r="1" gradientTransform="matrix(-6.31247 3.18755 -1.54809 -3.06576 27 17.344)" gradientUnits="userSpaceOnUse"><stop offset=".129" stop-color="#B5510A"/><stop offset="1" stop-color="#B5510A" stop-opacity="0"/></radialGradient><radialGradient id="paint3_radial_4002_3949" cx="0" cy="0" r="1" gradientTransform="matrix(0 2.1875 -1.95964 0 28.672 17.734)" gradientUnits="userSpaceOnUse"><stop stop-color="#3D1F30"/><stop offset="1" stop-color="#3D1F30" stop-opacity="0"/></radialGradient><radialGradient id="paint5_radial_4002_3949" cx="0" cy="0" r="1" gradientTransform="rotate(157.751 10.88 3.526) scale(2.22841 4.74135)" gradientUnits="userSpaceOnUse"><stop offset=".481" stop-color="#444040"/><stop offset="1" stop-color="#444040" stop-opacity="0"/></radialGradient><radialGradient id="paint6_radial_4002_3949" cx="0" cy="0" r="1" gradientTransform="matrix(.32812 2.98438 -.50734 .05578 20.752 .53)" gradientUnits="userSpaceOnUse"><stop offset=".288" stop-color="#1D0918"/><stop offset="1" stop-color="#1D0918" stop-opacity="0"/></radialGradient><radialGradient id="paint7_radial_4002_3949" cx="0" cy="0" r="1" gradientTransform="matrix(3.25 3.40625 -3.96363 3.78181 19.596 6.046)" gradientUnits="userSpaceOnUse"><stop stop-color="#47302C"/><stop offset="1" stop-color="#2F1C20"/></radialGradient><radialGradient id="paint8_radial_4002_3949" cx="0" cy="0" r="1" gradientTransform="rotate(151.783 6.797 7.464) scale(2.18107 6.10648)" gradientUnits="userSpaceOnUse"><stop offset=".256" stop-color="#CFCBD9"/><stop offset="1" stop-color="#978CA5"/></radialGradient><radialGradient id="paint9_radial_4002_3949" cx="0" cy="0" r="1" gradientTransform="rotate(150.678 5.41 7.8) scale(2.66165 7.63701)" gradientUnits="userSpaceOnUse"><stop offset=".256" stop-color="#CFCBD9"/><stop offset="1" stop-color="#978CA5"/></radialGradient><radialGradient id="paint11_radial_4002_3949" cx="0" cy="0" r="1" gradientTransform="matrix(0 -6.82355 26.136 0 30.002 18.167)" gradientUnits="userSpaceOnUse"><stop stop-color="#3E1F2F"/><stop offset="1" stop-color="#3E1F2F" stop-opacity="0"/></radialGradient><radialGradient id="paint12_radial_4002_3949" cx="0" cy="0" r="1" gradientTransform="matrix(-14.502 0 0 -4 30.002 18.438)" gradientUnits="userSpaceOnUse"><stop offset=".091" stop-color="#431A42"/><stop offset=".248" stop-color="#5D2841"/><stop offset=".681" stop-color="#5D2841" stop-opacity="0"/></radialGradient><radialGradient id="paint13_radial_4002_3949" cx="0" cy="0" r="1" gradientTransform="matrix(4.73917 -3.46875 1.2347 1.6869 20.98 3.375)" gradientUnits="userSpaceOnUse"><stop offset=".153" stop-color="#5B433D"/><stop offset="1" stop-color="#5B433D" stop-opacity="0"/></radialGradient><radialGradient id="paint14_radial_4002_3949" cx="0" cy="0" r="1" gradientTransform="matrix(0 -2.5 2.95858 0 25.938 5.422)" gradientUnits="userSpaceOnUse"><stop offset=".175" stop-color="#391F23"/><stop offset="1" stop-color="#391F23" stop-opacity="0"/></radialGradient><radialGradient id="paint15_radial_4002_3949" cx="0" cy="0" r="1" gradientTransform="matrix(-.46875 3.1875 -3.36293 -.49455 18.127 21.077)" gradientUnits="userSpaceOnUse"><stop offset=".44" stop-color="#472F30"/><stop offset="1" stop-color="#472F30" stop-opacity="0"/></radialGradient><radialGradient id="paint16_radial_4002_3949" cx="0" cy="0" r="1" gradientTransform="matrix(-2.28364 1.52242 -.4085 -.61276 23.645 19.607)" gradientUnits="userSpaceOnUse"><stop offset=".247" stop-color="#695655"/><stop offset="1" stop-color="#695655" stop-opacity="0"/></radialGradient><radialGradient id="paint17_radial_4002_3949" cx="0" cy="0" r="1" gradientTransform="matrix(4.28125 .52344 -.73073 5.9767 13.315 22.046)" gradientUnits="userSpaceOnUse"><stop offset=".021" stop-color="#43272A"/><stop offset="1" stop-color="#43272A" stop-opacity="0"/></radialGradient><radialGradient id="paint18_radial_4002_3949" cx="0" cy="0" r="1" gradientTransform="matrix(-1.10937 2.25782 -1.76414 -.8668 16.377 20.311)" gradientUnits="userSpaceOnUse"><stop offset=".655" stop-color="#381624"/><stop offset="1" stop-color="#381624" stop-opacity="0"/></radialGradient><radialGradient id="paint19_radial_4002_3949" cx="0" cy="0" r="1" gradientTransform="matrix(-.56251 2.03125 -1.89905 -.5259 17.83 21.046)" gradientUnits="userSpaceOnUse"><stop offset=".505" stop-color="#381624"/><stop offset="1" stop-color="#381624" stop-opacity="0"/></radialGradient><radialGradient id="paint20_radial_4002_3949" cx="0" cy="0" r="1" gradientTransform="matrix(1.1985 -.0243 .0289 1.42614 21.134 19.51)" gradientUnits="userSpaceOnUse"><stop offset=".17" stop-color="#4C3531"/><stop offset="1" stop-color="#4C3531" stop-opacity="0"/></radialGradient><radialGradient id="paint21_radial_4002_3949" cx="0" cy="0" r="1" gradientTransform="matrix(2.2984 -.29608 .55648 4.31988 21.557 17.181)" gradientUnits="userSpaceOnUse"><stop stop-color="#3A2320"/><stop offset="1" stop-color="#4A3032"/></radialGradient><radialGradient id="paint22_radial_4002_3949" cx="0" cy="0" r="1" gradientTransform="matrix(1.33724 -1.8461 .63209 .45786 23.619 12.673)" gradientUnits="userSpaceOnUse"><stop offset=".201" stop-color="#695655"/><stop offset="1" stop-color="#695655" stop-opacity="0"/></radialGradient><radialGradient id="paint23_radial_4002_3949" cx="0" cy="0" r="1" gradientTransform="rotate(91.156 2.768 18.74) scale(3.52879 .49425)" gradientUnits="userSpaceOnUse"><stop offset=".238" stop-color="#634E42"/><stop offset="1" stop-color="#634E42" stop-opacity="0"/></radialGradient><radialGradient id="paint24_radial_4002_3949" cx="0" cy="0" r="1" gradientTransform="matrix(-2.0625 .25 -.1857 -1.53207 21.875 18.781)" gradientUnits="userSpaceOnUse"><stop offset=".262" stop-color="#6C5855"/><stop offset="1" stop-color="#4F3435"/></radialGradient><radialGradient id="paint25_radial_4002_3949" cx="0" cy="0" r="1" gradientTransform="matrix(1.23147 -.56064 .71722 1.5754 19.957 22.17)" gradientUnits="userSpaceOnUse"><stop stop-color="#421F33"/><stop offset="1" stop-color="#421F33" stop-opacity="0"/></radialGradient><radialGradient id="paint26_radial_4002_3949" cx="0" cy="0" r="1" gradientTransform="matrix(1.0098 4.1052 -2.79361 .68718 19.428 18.341)" gradientUnits="userSpaceOnUse"><stop offset=".874" stop-color="#704C65" stop-opacity="0"/><stop offset=".928" stop-color="#704C65"/></radialGradient><radialGradient id="paint27_radial_4002_3949" cx="0" cy="0" r="1" gradientTransform="rotate(-31.891 42.469 -22.351) scale(2.48437 2.73467)" gradientUnits="userSpaceOnUse"><stop offset=".591" stop-color="#402628"/><stop offset="1" stop-color="#402628" stop-opacity="0"/></radialGradient><radialGradient id="paint28_radial_4002_3949" cx="0" cy="0" r="1" gradientTransform="matrix(-2.14016 .2657 -.20201 -1.62719 20.57 18.852)" gradientUnits="userSpaceOnUse"><stop offset=".262" stop-color="#6C5855"/><stop offset="1" stop-color="#4F3435"/></radialGradient><radialGradient id="paint29_radial_4002_3949" cx="0" cy="0" r="1" gradientTransform="matrix(1.27785 -.59587 .77426 1.6604 18.58 22.453)" gradientUnits="userSpaceOnUse"><stop stop-color="#4C1F2B"/><stop offset="1" stop-color="#4C1F2B" stop-opacity="0"/></radialGradient><radialGradient id="paint30_radial_4002_3949" cx="0" cy="0" r="1" gradientTransform="matrix(1.04783 4.36318 -2.90657 .69802 18.032 18.384)" gradientUnits="userSpaceOnUse"><stop offset=".874" stop-color="#704C65" stop-opacity="0"/><stop offset=".928" stop-color="#704C65"/></radialGradient><radialGradient id="paint31_radial_4002_3949" cx="0" cy="0" r="1" gradientTransform="matrix(2.21876 -1.25 1.60689 2.85223 16.297 19.36)" gradientUnits="userSpaceOnUse"><stop offset=".591" stop-color="#402628"/><stop offset="1" stop-color="#402628" stop-opacity="0"/></radialGradient><radialGradient id="paint32_radial_4002_3949" cx="0" cy="0" r="1" gradientTransform="rotate(147.824 6.303 11.928) scale(2.9396 1.7606)" gradientUnits="userSpaceOnUse"><stop offset=".086" stop-color="#6A5756"/><stop offset="1" stop-color="#492B2D"/></radialGradient><radialGradient id="paint33_radial_4002_3949" cx="0" cy="0" r="1" gradientTransform="rotate(-86.517 19.876 2.515) scale(1.8002 3.61142)" gradientUnits="userSpaceOnUse"><stop offset=".095" stop-color="#4B202C"/><stop offset="1" stop-color="#4B202C" stop-opacity="0"/></radialGradient><radialGradient id="paint36_radial_4002_3949" cx="0" cy="0" r="1" gradientTransform="matrix(0 -1.253 2.26733 0 30.08 11.017)" gradientUnits="userSpaceOnUse"><stop offset=".163" stop-color="#3A1F2C"/><stop offset="1" stop-color="#3A1F2C" stop-opacity="0"/></radialGradient><radialGradient id="paint37_radial_4002_3949" cx="0" cy="0" r="1" gradientTransform="matrix(.85143 -2.94638 .4908 .14183 28.715 9.54)" gradientUnits="userSpaceOnUse"><stop offset=".189" stop-color="#644D43"/><stop offset="1" stop-color="#644D43" stop-opacity="0"/></radialGradient><radialGradient id="paint39_radial_4002_3949" cx="0" cy="0" r="1" gradientTransform="matrix(-2.08594 0 0 -2.32812 30.096 13.311)" gradientUnits="userSpaceOnUse"><stop stop-color="#2D011B"/><stop offset="1" stop-color="#290017"/></radialGradient><radialGradient id="paint41_radial_4002_3949" cx="0" cy="0" r="1" gradientTransform="rotate(111.801 .084 18.287) scale(1.178 11.8917)" gradientUnits="userSpaceOnUse"><stop offset=".172" stop-color="#FF844D"/><stop offset=".629" stop-color="#FF844D" stop-opacity="0"/></radialGradient><radialGradient id="paint45_radial_4002_3949" cx="0" cy="0" r="1" gradientTransform="rotate(113.806 -.269 18.893) scale(1.16131 4.175)" gradientUnits="userSpaceOnUse"><stop offset=".207" stop-color="#FF964C"/><stop offset="1" stop-color="#FF964C" stop-opacity="0"/></radialGradient><radialGradient id="paint46_radial_4002_3949" cx="0" cy="0" r="1" gradientTransform="matrix(0 1.36233 -2.16693 0 26.359 6.425)" gradientUnits="userSpaceOnUse"><stop offset=".802" stop-color="#7F594B"/><stop offset="1" stop-color="#694B43"/><stop offset="1" stop-color="#804D49"/><stop offset="1" stop-color="#85534D"/><stop offset="1" stop-color="#704E45"/></radialGradient><radialGradient id="paint48_radial_4002_3949" cx="0" cy="0" r="1" gradientTransform="matrix(-.32813 -.53906 .98203 -.59777 26.115 6.674)" gradientUnits="userSpaceOnUse"><stop offset=".208" stop-color="#C7A7A3" stop-opacity=".25"/><stop offset=".79" stop-color="#C7A7A3"/></radialGradient><radialGradient id="paint49_radial_4002_3949" cx="0" cy="0" r="1" gradientTransform="matrix(-.45084 -.82655 .77084 -.42045 26.192 6.867)" gradientUnits="userSpaceOnUse"><stop offset=".766" stop-color="#FFE6E2" stop-opacity="0"/><stop offset=".966" stop-color="#FFE6E2"/></radialGradient><filter id="filter0_i_4002_3949" width="5.5" height="5.75" x="19.002" y="4.267" color-interpolation-filters="sRGB" filterUnits="userSpaceOnUse"><feFlood flood-opacity="0" result="BackgroundImageFix"/><feBlend in="SourceGraphic" in2="BackgroundImageFix" result="shape"/><feColorMatrix in="SourceAlpha" result="hardAlpha" values="0 0 0 0 0 0 0 0 0 0 0 0 0 0 0 0 0 0 127 0"/><feOffset dy="-.25"/><feGaussianBlur stdDeviation=".25"/><feComposite in2="hardAlpha" k2="-1" k3="1" operator="arithmetic"/><feColorMatrix values="0 0 0 0 0.231373 0 0 0 0 0.109804 0 0 0 0 0.176471 0 0 0 1 0"/><feBlend in2="shape" result="effect1_innerShadow_4002_3949"/></filter><filter id="filter1_f_4002_3949" width="1.919" height="2.854" x="18.889" y="5.013" color-interpolation-filters="sRGB" filterUnits="userSpaceOnUse"><feFlood flood-opacity="0" result="BackgroundImageFix"/><feBlend in="SourceGraphic" in2="BackgroundImageFix" result="shape"/><feGaussianBlur result="effect1_foregroundBlur_4002_3949" stdDeviation=".225"/></filter><filter id="filter2_f_4002_3949" width="4.5" height="4.5" x="19.502" y="5.017" color-interpolation-filters="sRGB" filterUnits="userSpaceOnUse"><feFlood flood-opacity="0" result="BackgroundImageFix"/><feBlend in="SourceGraphic" in2="BackgroundImageFix" result="shape"/><feGaussianBlur result="effect1_foregroundBlur_4002_3949" stdDeviation=".25"/></filter><filter id="filter3_ii_4002_3949" width="3.711" height="5.581" x="13.677" y="8.288" color-interpolation-filters="sRGB" filterUnits="userSpaceOnUse"><feFlood flood-opacity="0" result="BackgroundImageFix"/><feBlend in="SourceGraphic" in2="BackgroundImageFix" result="shape"/><feColorMatrix in="SourceAlpha" result="hardAlpha" values="0 0 0 0 0 0 0 0 0 0 0 0 0 0 0 0 0 0 127 0"/><feOffset dx=".2" dy="-.1"/><feGaussianBlur stdDeviation=".3"/><feComposite in2="hardAlpha" k2="-1" k3="1" operator="arithmetic"/><feColorMatrix values="0 0 0 0 0.427451 0 0 0 0 0.380392 0 0 0 0 0.478431 0 0 0 1 0"/><feBlend in2="shape" result="effect1_innerShadow_4002_3949"/><feColorMatrix in="SourceAlpha" result="hardAlpha" values="0 0 0 0 0 0 0 0 0 0 0 0 0 0 0 0 0 0 127 0"/><feOffset dx="-.1" dy=".05"/><feGaussianBlur stdDeviation=".15"/><feComposite in2="hardAlpha" k2="-1" k3="1" operator="arithmetic"/><feColorMatrix values="0 0 0 0 0.678431 0 0 0 0 0.678431 0 0 0 0 0.694118 0 0 0 1 0"/><feBlend in2="effect1_innerShadow_4002_3949" result="effect2_innerShadow_4002_3949"/></filter><filter id="filter4_ii_4002_3949" width="4.419" height="7.014" x="10.782" y="8.767" color-interpolation-filters="sRGB" filterUnits="userSpaceOnUse"><feFlood flood-opacity="0" result="BackgroundImageFix"/><feBlend in="SourceGraphic" in2="BackgroundImageFix" result="shape"/><feColorMatrix in="SourceAlpha" result="hardAlpha" values="0 0 0 0 0 0 0 0 0 0 0 0 0 0 0 0 0 0 127 0"/><feOffset dx=".2" dy="-.1"/><feGaussianBlur stdDeviation=".3"/><feComposite in2="hardAlpha" k2="-1" k3="1" operator="arithmetic"/><feColorMatrix values="0 0 0 0 0.427451 0 0 0 0 0.380392 0 0 0 0 0.478431 0 0 0 1 0"/><feBlend in2="shape" result="effect1_innerShadow_4002_3949"/><feColorMatrix in="SourceAlpha" result="hardAlpha" values="0 0 0 0 0 0 0 0 0 0 0 0 0 0 0 0 0 0 127 0"/><feOffset dx="-.1" dy=".05"/><feGaussianBlur stdDeviation=".15"/><feComposite in2="hardAlpha" k2="-1" k3="1" operator="arithmetic"/><feColorMatrix values="0 0 0 0 0.678431 0 0 0 0 0.678431 0 0 0 0 0.694118 0 0 0 1 0"/><feBlend in2="effect1_innerShadow_4002_3949" result="effect2_innerShadow_4002_3949"/></filter><filter id="filter5_i_4002_3949" width="9.122" height="16.65" x="20.98" y="1.517" color-interpolation-filters="sRGB" filterUnits="userSpaceOnUse"><feFlood flood-opacity="0" result="BackgroundImageFix"/><feBlend in="SourceGraphic" in2="BackgroundImageFix" result="shape"/><feColorMatrix in="SourceAlpha" result="hardAlpha" values="0 0 0 0 0 0 0 0 0 0 0 0 0 0 0 0 0 0 127 0"/><feOffset dx=".1"/><feGaussianBlur stdDeviation=".125"/><feComposite in2="hardAlpha" k2="-1" k3="1" operator="arithmetic"/><feColorMatrix values="0 0 0 0 0.34902 0 0 0 0 0.290196 0 0 0 0 0.282353 0 0 0 1 0"/><feBlend in2="shape" result="effect1_innerShadow_4002_3949"/></filter><filter id="filter6_i_4002_3949" width="3.88" height="1.932" x="23.502" y="1.767" color-interpolation-filters="sRGB" filterUnits="userSpaceOnUse"><feFlood flood-opacity="0" result="BackgroundImageFix"/><feBlend in="SourceGraphic" in2="BackgroundImageFix" result="shape"/><feColorMatrix in="SourceAlpha" result="hardAlpha" values="0 0 0 0 0 0 0 0 0 0 0 0 0 0 0 0 0 0 127 0"/><feOffset dx=".1" dy="-.25"/><feGaussianBlur stdDeviation=".125"/><feComposite in2="hardAlpha" k2="-1" k3="1" operator="arithmetic"/><feColorMatrix values="0 0 0 0 0.0666667 0 0 0 0 0.027451 0 0 0 0 0.0745098 0 0 0 1 0"/><feBlend in2="shape" result="effect1_innerShadow_4002_3949"/></filter><filter id="filter7_f_4002_3949" width="2.707" height="5.238" x="27.685" y="6.456" color-interpolation-filters="sRGB" filterUnits="userSpaceOnUse"><feFlood flood-opacity="0" result="BackgroundImageFix"/><feBlend in="SourceGraphic" in2="BackgroundImageFix" result="shape"/><feGaussianBlur result="effect1_foregroundBlur_4002_3949" stdDeviation=".25"/></filter><filter id="filter8_f_4002_3949" width="3.6" height="2.6" x="26.702" y="11.717" color-interpolation-filters="sRGB" filterUnits="userSpaceOnUse"><feFlood flood-opacity="0" result="BackgroundImageFix"/><feBlend in="SourceGraphic" in2="BackgroundImageFix" result="shape"/><feGaussianBlur result="effect1_foregroundBlur_4002_3949" stdDeviation=".1"/></filter><filter id="filter9_f_4002_3949" width="1.385" height="1.475" x="26.54" y="5.841" color-interpolation-filters="sRGB" filterUnits="userSpaceOnUse"><feFlood flood-opacity="0" result="BackgroundImageFix"/><feBlend in="SourceGraphic" in2="BackgroundImageFix" result="shape"/><feGaussianBlur result="effect1_foregroundBlur_4002_3949" stdDeviation=".1"/></filter><filter id="filter10_f_4002_3949" width="1.285" height="1.044" x="25.293" y="5.799" color-interpolation-filters="sRGB" filterUnits="userSpaceOnUse"><feFlood flood-opacity="0" result="BackgroundImageFix"/><feBlend in="SourceGraphic" in2="BackgroundImageFix" result="shape"/><feGaussianBlur result="effect1_foregroundBlur_4002_3949" stdDeviation=".05"/></filter><filter id="filter11_f_4002_3949" width="3.575" height="1.413" x="23.621" y="2.014" color-interpolation-filters="sRGB" filterUnits="userSpaceOnUse"><feFlood flood-opacity="0" result="BackgroundImageFix"/><feBlend in="SourceGraphic" in2="BackgroundImageFix" result="shape"/><feGaussianBlur result="effect1_foregroundBlur_4002_3949" stdDeviation=".125"/></filter><filter id="filter12_f_4002_3949" width="3.936" height="6.647" x="11.252" y="8.808" color-interpolation-filters="sRGB" filterUnits="userSpaceOnUse"><feFlood flood-opacity="0" result="BackgroundImageFix"/><feBlend in="SourceGraphic" in2="BackgroundImageFix" result="shape"/><feGaussianBlur result="effect1_foregroundBlur_4002_3949" stdDeviation=".25"/></filter><filter id="filter13_f_4002_3949" width="3.133" height="5.109" x="14.119" y="8.408" color-interpolation-filters="sRGB" filterUnits="userSpaceOnUse"><feFlood flood-opacity="0" result="BackgroundImageFix"/><feBlend in="SourceGraphic" in2="BackgroundImageFix" result="shape"/><feGaussianBlur result="effect1_foregroundBlur_4002_3949" stdDeviation=".25"/></filter><filter id="filter14_f_4002_3949" width="4.123" height="5.795" x="11.919" y="17.692" color-interpolation-filters="sRGB" filterUnits="userSpaceOnUse"><feFlood flood-opacity="0" result="BackgroundImageFix"/><feBlend in="SourceGraphic" in2="BackgroundImageFix" result="shape"/><feGaussianBlur result="effect1_foregroundBlur_4002_3949" stdDeviation=".25"/></filter><linearGradient id="paint2_linear_4002_3949" x1="30.314" x2="28.846" y1="18.827" y2="18.827" gradientUnits="userSpaceOnUse"><stop stop-color="#502944"/><stop offset="1" stop-color="#4E2A27"/></linearGradient><linearGradient id="paint4_linear_4002_3949" x1="21.658" x2="21.658" y1="14.202" y2="9.452" gradientUnits="userSpaceOnUse"><stop stop-color="#271D28"/><stop offset="1" stop-color="#271D28" stop-opacity="0"/></linearGradient><linearGradient id="paint10_linear_4002_3949" x1="21.571" x2="23.545" y1="9.022" y2="9.022" gradientUnits="userSpaceOnUse"><stop offset=".126" stop-color="#5A423E"/><stop offset="1" stop-color="#5A423E" stop-opacity="0"/></linearGradient><linearGradient id="paint34_linear_4002_3949" x1="27.953" x2="28.734" y1="10.813" y2="7.375" gradientUnits="userSpaceOnUse"><stop stop-color="#361F21"/><stop offset=".675" stop-color="#5D453D"/></linearGradient><linearGradient id="paint35_linear_4002_3949" x1="29.298" x2="29.298" y1="6.524" y2="11.017" gradientUnits="userSpaceOnUse"><stop stop-color="#49302D" stop-opacity="0"/><stop offset=".141" stop-color="#49302D"/></linearGradient><linearGradient id="paint38_linear_4002_3949" x1="27.689" x2="28.375" y1="13.577" y2="12.719" gradientUnits="userSpaceOnUse"><stop stop-color="#4F3D3E"/><stop offset="1" stop-color="#4F3D3E" stop-opacity="0"/></linearGradient><linearGradient id="paint40_linear_4002_3949" x1="12.552" x2="18.094" y1="24.96" y2="27.281" gradientUnits="userSpaceOnUse"><stop stop-color="#E75D24"/><stop offset="1" stop-color="#FF6D2E"/><stop offset="1" stop-color="#FF7030"/></linearGradient><linearGradient id="paint42_linear_4002_3949" x1="11.643" x2="13.101" y1="24.521" y2="25.226" gradientUnits="userSpaceOnUse"><stop offset=".399" stop-color="#EE6F1A"/><stop offset="1" stop-color="#EE6F1A" stop-opacity="0"/></linearGradient><linearGradient id="paint43_linear_4002_3949" x1="9.315" x2="16.688" y1="27.577" y2="30.313" gradientUnits="userSpaceOnUse"><stop stop-color="#DE5F2F"/><stop offset="1" stop-color="#FF7735"/></linearGradient><linearGradient id="paint44_linear_4002_3949" x1="15.19" x2="14.44" y1="25.702" y2="27.421" gradientUnits="userSpaceOnUse"><stop stop-color="#FF831D"/><stop offset="1" stop-color="#FF831D" stop-opacity="0"/></linearGradient><linearGradient id="paint47_linear_4002_3949" x1="27.608" x2="27.081" y1="6.515" y2="6.84" gradientUnits="userSpaceOnUse"><stop stop-color="#B4948D"/><stop offset="1" stop-color="#B4948D" stop-opacity="0"/></linearGradient><linearGradient id="paint50_linear_4002_3949" x1="26.942" x2="24.86" y1="2.415" y2="1.228" gradientUnits="userSpaceOnUse"><stop offset=".01" stop-color="#4A4A4A"/><stop offset="1" stop-color="#4A4A4A" stop-opacity="0"/></linearGradient><linearGradient id="paint51_linear_4002_3949" x1="23.971" x2="24.546" y1="3.28" y2="3.399" gradientUnits="userSpaceOnUse"><stop offset=".01" stop-color="#4A4A4A"/><stop offset="1" stop-color="#4A4A4A" stop-opacity="0"/></linearGradient><linearGradient id="paint52_linear_4002_3949" x1="13.938" x2="13.938" y1="18.212" y2="22.813" gradientUnits="userSpaceOnUse"><stop stop-color="#715B4E"/><stop offset="1" stop-color="#715B4E" stop-opacity="0"/></linearGradient></defs></svg>