<svg xmlns="http://www.w3.org/2000/svg" width="32" height="32" fill="none" viewBox="0 0 32 32"><path fill="url(#paint0_linear_3987_24657)" d="M6.52 23.04a3.25 3.25 0 1 0 0-6.5 3.25 3.25 0 0 0 0 6.5Z"/><path fill="url(#paint1_radial_3987_24657)" d="M6.52 23.04a3.25 3.25 0 1 0 0-6.5 3.25 3.25 0 0 0 0 6.5Z"/><g filter="url(#filter0_f_3987_24657)"><path fill="#D78125" d="M6.52 21.809a2.02 2.02 0 1 0 0-4.04 2.02 2.02 0 0 0 0 4.04Z"/><path fill="url(#paint2_radial_3987_24657)" d="M6.52 21.809a2.02 2.02 0 1 0 0-4.04 2.02 2.02 0 0 0 0 4.04Z"/></g><path fill="url(#paint3_linear_3987_24657)" d="M25.52 23.04a3.25 3.25 0 1 0 0-6.501 3.25 3.25 0 0 0 0 6.5Z"/><path fill="url(#paint4_radial_3987_24657)" d="M25.52 23.04a3.25 3.25 0 1 0 0-6.501 3.25 3.25 0 0 0 0 6.5Z"/><path fill="url(#paint5_radial_3987_24657)" d="M25.52 23.04a3.25 3.25 0 1 0 0-6.501 3.25 3.25 0 0 0 0 6.5Z"/><g filter="url(#filter1_f_3987_24657)"><path fill="url(#paint6_linear_3987_24657)" d="M25.52 21.87a2.081 2.081 0 1 0 0-4.162 2.081 2.081 0 0 0 0 4.163Z"/></g><g filter="url(#filter2_i_3987_24657)"><path fill="url(#paint7_radial_3987_24657)" d="M23.25 5.751a8.865 8.865 0 0 0-5.307-1.79h-3.806c-1.898 0-3.755.63-5.306 1.79-2.643 1.99-4.071 5.3-3.745 8.69l.898 8.112c.296 3.14 2.378 5.78 5.265 6.68 3.123.97 6.46.97 9.582 0 2.887-.9 4.97-3.54 5.265-6.68l.898-8.111c.327-3.39-1.102-6.7-3.745-8.69Z"/><path fill="url(#paint8_radial_3987_24657)" d="M23.25 5.751a8.865 8.865 0 0 0-5.307-1.79h-3.806c-1.898 0-3.755.63-5.306 1.79-2.643 1.99-4.071 5.3-3.745 8.69l.898 8.112c.296 3.14 2.378 5.78 5.265 6.68 3.123.97 6.46.97 9.582 0 2.887-.9 4.97-3.54 5.265-6.68l.898-8.111c.327-3.39-1.102-6.7-3.745-8.69Z"/><path fill="url(#paint9_radial_3987_24657)" d="M23.25 5.751a8.865 8.865 0 0 0-5.307-1.79h-3.806c-1.898 0-3.755.63-5.306 1.79-2.643 1.99-4.071 5.3-3.745 8.69l.898 8.112c.296 3.14 2.378 5.78 5.265 6.68 3.123.97 6.46.97 9.582 0 2.887-.9 4.97-3.54 5.265-6.68l.898-8.111c.327-3.39-1.102-6.7-3.745-8.69Z"/><path fill="url(#paint10_linear_3987_24657)" d="M23.25 5.751a8.865 8.865 0 0 0-5.307-1.79h-3.806c-1.898 0-3.755.63-5.306 1.79-2.643 1.99-4.071 5.3-3.745 8.69l.898 8.112c.296 3.14 2.378 5.78 5.265 6.68 3.123.97 6.46.97 9.582 0 2.887-.9 4.97-3.54 5.265-6.68l.898-8.111c.327-3.39-1.102-6.7-3.745-8.69Z"/><path fill="url(#paint11_radial_3987_24657)" d="M23.25 5.751a8.865 8.865 0 0 0-5.307-1.79h-3.806c-1.898 0-3.755.63-5.306 1.79-2.643 1.99-4.071 5.3-3.745 8.69l.898 8.112c.296 3.14 2.378 5.78 5.265 6.68 3.123.97 6.46.97 9.582 0 2.887-.9 4.97-3.54 5.265-6.68l.898-8.111c.327-3.39-1.102-6.7-3.745-8.69Z"/><path fill="url(#paint12_radial_3987_24657)" d="M23.25 5.751a8.865 8.865 0 0 0-5.307-1.79h-3.806c-1.898 0-3.755.63-5.306 1.79-2.643 1.99-4.071 5.3-3.745 8.69l.898 8.112c.296 3.14 2.378 5.78 5.265 6.68 3.123.97 6.46.97 9.582 0 2.887-.9 4.97-3.54 5.265-6.68l.898-8.111c.327-3.39-1.102-6.7-3.745-8.69Z"/></g><g filter="url(#filter3_i_3987_24657)"><path fill="#8A034F" d="M16.012 24.002a6.41 6.41 0 0 1-3.007-.732c-.299-.161-.617.18-.428.471a4.09 4.09 0 0 0 3.445 1.887 4.104 4.104 0 0 0 3.445-1.887c.18-.28-.13-.622-.428-.471a6.552 6.552 0 0 1-3.027.732Z"/></g><path fill="#fff" d="M20.73 17.1c1.61 0 2.97 1.11 3.34 2.61.11.43-.22.84-.66.84h-5.5c-.35 0-.63-.32-.56-.67.31-1.58 1.7-2.78 3.38-2.78Zm-10 0c-1.61 0-2.97 1.11-3.34 2.61-.11.43.22.84.66.84h5.5c.35 0 .63-.32.56-.67a3.454 3.454 0 0 0-3.38-2.78Z"/><path fill="url(#paint13_radial_3987_24657)" d="M20.22 17.77a2.2 2.2 0 0 1 2.12 2.78h-4.25c-.05-.19-.08-.38-.08-.58 0-1.21.99-2.2 2.21-2.2Z"/><path fill="url(#paint14_radial_3987_24657)" d="M11.24 17.77a2.2 2.2 0 0 0-2.12 2.78h4.25c.05-.19.08-.38.08-.58-.01-1.21-.99-2.2-2.21-2.2Z"/><path fill="#000" d="M18.96 19.97c0-.7.56-1.26 1.26-1.26s1.26.56 1.26 1.26c0 .21-.05.41-.14.58h-2.23c-.1-.17-.15-.37-.15-.58Zm-6.46 0c0-.7-.56-1.26-1.26-1.26s-1.26.56-1.26 1.26c0 .21.05.41.14.58h2.23c.09-.17.15-.37.15-.58Z"/><g filter="url(#filter4_i_3987_24657)"><path stroke="#C15231" stroke-linecap="round" stroke-linejoin="round" stroke-miterlimit="10" d="M9.5 15.12c.59-.21 1.41-.36 2.47-.26"/></g><g filter="url(#filter5_f_3987_24657)"><path stroke="#C45B41" stroke-linecap="round" stroke-linejoin="round" stroke-miterlimit="10" stroke-width=".3" d="M9.555 15.026c.59-.21 1.41-.36 2.47-.26"/></g><g filter="url(#filter6_i_3987_24657)"><path stroke="#C15231" stroke-linecap="round" stroke-linejoin="round" stroke-miterlimit="10" d="M22.07 15.12c-.59-.21-1.41-.36-2.47-.26"/></g><g filter="url(#filter7_f_3987_24657)"><path stroke="#C45B41" stroke-linecap="round" stroke-linejoin="round" stroke-miterlimit="10" stroke-width=".3" d="M22.07 14.973c-.59-.21-1.41-.36-2.47-.26"/></g><g filter="url(#filter8_f_3987_24657)"><path fill="url(#paint15_linear_3987_24657)" d="M16.261 2.792c-1.473-.223-2.768.11-3.6 1.223a7.76 7.76 0 0 1 1.719.037l.134.018c1.629.226 2.717 2.047 2.482 3.674a2.967 2.967 0 0 1-.994 1.816.493.493 0 0 0 .403.863 3.872 3.872 0 0 0 3.104-3.275c.298-2.086-1.164-4.04-3.248-4.356Z"/></g><g filter="url(#filter9_i_3987_24657)"><path fill="#E99628" d="M15.84 2.07a4.27 4.27 0 0 0-3.8 2.22c.62-.14 1.25-.22 1.88-.22h.15c1.81 0 3.33 1.48 3.32 3.29-.01.82-.31 1.56-.81 2.13a.542.542 0 0 0 .57.88 4.262 4.262 0 0 0 2.89-4.04c.01-2.32-1.88-4.23-4.2-4.26Z"/><path fill="url(#paint16_radial_3987_24657)" d="M15.84 2.07a4.27 4.27 0 0 0-3.8 2.22c.62-.14 1.25-.22 1.88-.22h.15c1.81 0 3.33 1.48 3.32 3.29-.01.82-.31 1.56-.81 2.13a.542.542 0 0 0 .57.88 4.262 4.262 0 0 0 2.89-4.04c.01-2.32-1.88-4.23-4.2-4.26Z"/><path fill="url(#paint17_radial_3987_24657)" d="M15.84 2.07a4.27 4.27 0 0 0-3.8 2.22c.62-.14 1.25-.22 1.88-.22h.15c1.81 0 3.33 1.48 3.32 3.29-.01.82-.31 1.56-.81 2.13a.542.542 0 0 0 .57.88 4.262 4.262 0 0 0 2.89-4.04c.01-2.32-1.88-4.23-4.2-4.26Z"/></g><g filter="url(#filter10_f_3987_24657)"><path fill="#F1902D" d="M15.89 23.039c.509 0 .964-.28 1.224-.702.238-.386-.01-.901-.444-.901h-1.56c-.434 0-.694.526-.445.9.26.434.715.703 1.225.703Z"/></g><g filter="url(#filter11_f_3987_24657)"><path fill="url(#paint18_radial_3987_24657)" d="M16.022 22.69c.51 0 .965-.282 1.225-.703.238-.386-.011-.901-.445-.901h-1.56c-.433 0-.693.527-.444.901.26.433.715.702 1.224.702Z"/></g><g filter="url(#filter12_f_3987_24657)"><path fill="#C7A7A3" d="M20.058 18.234c.157.21-.17.466-.543.744-.373.279-.65.475-.806.265-.157-.21.018-.605.39-.884.373-.278.802-.334.96-.125Z"/><path fill="url(#paint19_radial_3987_24657)" d="M20.058 18.234c.157.21-.17.466-.543.744-.373.279-.65.475-.806.265-.157-.21.018-.605.39-.884.373-.278.802-.334.96-.125Z"/></g><g filter="url(#filter13_f_3987_24657)"><path fill="url(#paint20_linear_3987_24657)" d="M22.18 19.68a2.071 2.071 0 0 0-.57-1.14l-.641.702.289.563.922-.125Z"/></g><g filter="url(#filter14_f_3987_24657)"><path fill="url(#paint21_linear_3987_24657)" d="M13.25 19.71c0-.71-.578-1.184-.735-1.327l-.71.687.437.89 1.008-.25Z"/></g><g filter="url(#filter15_f_3987_24657)" transform="rotate(-27.914 10.576 18.71)"><ellipse cx="10.576" cy="18.709" fill="#C7A7A3" fill-opacity=".9" rx=".96" ry=".486"/><ellipse cx="10.576" cy="18.709" fill="url(#paint22_radial_3987_24657)" rx=".96" ry=".486"/></g><defs><radialGradient id="paint1_radial_3987_24657" cx="0" cy="0" r="1" gradientTransform="rotate(-157.686 5.258 9.486) scale(4.03303 5.24783)" gradientUnits="userSpaceOnUse"><stop offset=".609" stop-color="#CE9F45" stop-opacity="0"/><stop offset="1" stop-color="#CE9F45"/></radialGradient><radialGradient id="paint2_radial_3987_24657" cx="0" cy="0" r="1" gradientTransform="rotate(90 -6.635 13.155) scale(2.01965)" gradientUnits="userSpaceOnUse"><stop offset=".797" stop-color="#CE791D" stop-opacity="0"/><stop offset="1" stop-color="#CE791D"/></radialGradient><radialGradient id="paint4_radial_3987_24657" cx="0" cy="0" r="1" gradientTransform="matrix(-.07808 4.71875 -4.5222 -.07483 25.867 18.602)" gradientUnits="userSpaceOnUse"><stop offset=".766" stop-color="#D58651" stop-opacity="0"/><stop offset="1" stop-color="#D58651"/></radialGradient><radialGradient id="paint5_radial_3987_24657" cx="0" cy="0" r="1" gradientTransform="matrix(1.70312 -1.96875 1.94275 1.68063 25.867 19.383)" gradientUnits="userSpaceOnUse"><stop offset=".501" stop-color="#FFB61F"/><stop offset=".883" stop-color="#FFB61F" stop-opacity="0"/></radialGradient><radialGradient id="paint7_radial_3987_24657" cx="0" cy="0" r="1" gradientTransform="matrix(0 17.405 -12.704 0 21.799 13.275)" gradientUnits="userSpaceOnUse"><stop offset=".216" stop-color="#FFE944"/><stop offset="1" stop-color="#FDAB24"/></radialGradient><radialGradient id="paint8_radial_3987_24657" cx="0" cy="0" r="1" gradientTransform="matrix(3.1875 -4.17187 9.21025 7.03706 9.289 29.96)" gradientUnits="userSpaceOnUse"><stop stop-color="#D17C51"/><stop offset="1" stop-color="#D17C51" stop-opacity="0"/></radialGradient><radialGradient id="paint9_radial_3987_24657" cx="0" cy="0" r="1" gradientTransform="matrix(0 -3.34375 15.4144 0 16.04 30.617)" gradientUnits="userSpaceOnUse"><stop stop-color="#D87A77"/><stop offset="1" stop-color="#D87A77" stop-opacity="0"/></radialGradient><radialGradient id="paint11_radial_3987_24657" cx="0" cy="0" r="1" gradientTransform="matrix(1.43751 -3.04686 3.42024 1.61368 21.137 18.68)" gradientUnits="userSpaceOnUse"><stop offset=".361" stop-color="#FFBA36"/><stop offset="1" stop-color="#FFBA36" stop-opacity="0"/></radialGradient><radialGradient id="paint12_radial_3987_24657" cx="0" cy="0" r="1" gradientTransform="matrix(1.3125 -2.90625 3.19847 1.44446 11.278 18.96)" gradientUnits="userSpaceOnUse"><stop offset=".418" stop-color="#F0953D"/><stop offset="1" stop-color="#F0953D" stop-opacity="0"/></radialGradient><radialGradient id="paint13_radial_3987_24657" cx="0" cy="0" r="1" gradientTransform="matrix(0 1.42187 -2.26165 0 20.215 19.523)" gradientUnits="userSpaceOnUse"><stop offset=".802" stop-color="#8F564F"/><stop offset="1" stop-color="#86534B"/></radialGradient><radialGradient id="paint14_radial_3987_24657" cx="0" cy="0" r="1" gradientTransform="matrix(0 1.42187 -2.26165 0 11.245 19.523)" gradientUnits="userSpaceOnUse"><stop offset=".802" stop-color="#8F564F"/><stop offset="1" stop-color="#86534B"/></radialGradient><radialGradient id="paint16_radial_3987_24657" cx="0" cy="0" r="1" gradientTransform="matrix(7.82167 -2.08468 1.7391 6.52504 12.04 7.004)" gradientUnits="userSpaceOnUse"><stop offset=".738" stop-color="#FFD937" stop-opacity="0"/><stop offset=".999" stop-color="#FFD937"/></radialGradient><radialGradient id="paint17_radial_3987_24657" cx="0" cy="0" r="1" gradientTransform="matrix(-3.63771 -5.65242 5.82757 -3.75043 16.77 8.263)" gradientUnits="userSpaceOnUse"><stop offset=".825" stop-color="#C9983D" stop-opacity="0"/><stop offset=".987" stop-color="#C9983D"/></radialGradient><radialGradient id="paint18_radial_3987_24657" cx="0" cy="0" r="1" gradientTransform="rotate(117.715 1.906 15.728) scale(2.02107 3.05534)" gradientUnits="userSpaceOnUse"><stop offset=".084" stop-color="#FFE245"/><stop offset="1" stop-color="#F29624"/></radialGradient><radialGradient id="paint19_radial_3987_24657" cx="0" cy="0" r="1" gradientTransform="matrix(-.5717 -.73672 1.01428 -.7871 19.652 19.153)" gradientUnits="userSpaceOnUse"><stop offset=".766" stop-color="#FFE6E2" stop-opacity="0"/><stop offset=".966" stop-color="#FFE6E2"/></radialGradient><radialGradient id="paint22_radial_3987_24657" cx="0" cy="0" r="1" gradientTransform="rotate(-90.897 14.861 4.555) scale(1.21806 1.46416)" gradientUnits="userSpaceOnUse"><stop offset=".766" stop-color="#FFE6E2" stop-opacity="0"/><stop offset=".966" stop-color="#FFE6E2"/></radialGradient><filter id="filter0_f_3987_24657" width="4.539" height="4.539" x="4.25" y="17.519" color-interpolation-filters="sRGB" filterUnits="userSpaceOnUse"><feFlood flood-opacity="0" result="BackgroundImageFix"/><feBlend in="SourceGraphic" in2="BackgroundImageFix" result="shape"/><feGaussianBlur result="effect1_foregroundBlur_3987_24657" stdDeviation=".125"/></filter><filter id="filter1_f_3987_24657" width="4.663" height="4.663" x="23.189" y="17.458" color-interpolation-filters="sRGB" filterUnits="userSpaceOnUse"><feFlood flood-opacity="0" result="BackgroundImageFix"/><feBlend in="SourceGraphic" in2="BackgroundImageFix" result="shape"/><feGaussianBlur result="effect1_foregroundBlur_3987_24657" stdDeviation=".125"/></filter><filter id="filter2_i_3987_24657" width="23.25" height="26" x="5.04" y="3.961" color-interpolation-filters="sRGB" filterUnits="userSpaceOnUse"><feFlood flood-opacity="0" result="BackgroundImageFix"/><feBlend in="SourceGraphic" in2="BackgroundImageFix" result="shape"/><feColorMatrix in="SourceAlpha" result="hardAlpha" values="0 0 0 0 0 0 0 0 0 0 0 0 0 0 0 0 0 0 127 0"/><feOffset dx="1.25"/><feGaussianBlur stdDeviation="1"/><feComposite in2="hardAlpha" k2="-1" k3="1" operator="arithmetic"/><feColorMatrix values="0 0 0 0 0.811765 0 0 0 0 0.639216 0 0 0 0 0.352941 0 0 0 1 0"/><feBlend in2="shape" result="effect1_innerShadow_3987_24657"/></filter><filter id="filter3_i_3987_24657" width="7" height="2.4" x="12.52" y="23.228" color-interpolation-filters="sRGB" filterUnits="userSpaceOnUse"><feFlood flood-opacity="0" result="BackgroundImageFix"/><feBlend in="SourceGraphic" in2="BackgroundImageFix" result="shape"/><feColorMatrix in="SourceAlpha" result="hardAlpha" values="0 0 0 0 0 0 0 0 0 0 0 0 0 0 0 0 0 0 127 0"/><feOffset/><feGaussianBlur stdDeviation=".5"/><feComposite in2="hardAlpha" k2="-1" k3="1" operator="arithmetic"/><feColorMatrix values="0 0 0 0 0.529412 0 0 0 0 0 0 0 0 0 0.301961 0 0 0 1 0"/><feBlend in2="shape" result="effect1_innerShadow_3987_24657"/></filter><filter id="filter4_i_3987_24657" width="3.72" height="1.592" x="9" y="14.028" color-interpolation-filters="sRGB" filterUnits="userSpaceOnUse"><feFlood flood-opacity="0" result="BackgroundImageFix"/><feBlend in="SourceGraphic" in2="BackgroundImageFix" result="shape"/><feColorMatrix in="SourceAlpha" result="hardAlpha" values="0 0 0 0 0 0 0 0 0 0 0 0 0 0 0 0 0 0 127 0"/><feOffset dx=".25" dy="-.3"/><feGaussianBlur stdDeviation=".25"/><feComposite in2="hardAlpha" k2="-1" k3="1" operator="arithmetic"/><feColorMatrix values="0 0 0 0 0.6 0 0 0 0 0.235294 0 0 0 0 0.156863 0 0 0 1 0"/><feBlend in2="shape" result="effect1_innerShadow_3987_24657"/></filter><filter id="filter5_f_3987_24657" width="3.17" height=".992" x="9.205" y="14.384" color-interpolation-filters="sRGB" filterUnits="userSpaceOnUse"><feFlood flood-opacity="0" result="BackgroundImageFix"/><feBlend in="SourceGraphic" in2="BackgroundImageFix" result="shape"/><feGaussianBlur result="effect1_foregroundBlur_3987_24657" stdDeviation=".1"/></filter><filter id="filter6_i_3987_24657" width="3.72" height="1.592" x="18.85" y="14.028" color-interpolation-filters="sRGB" filterUnits="userSpaceOnUse"><feFlood flood-opacity="0" result="BackgroundImageFix"/><feBlend in="SourceGraphic" in2="BackgroundImageFix" result="shape"/><feColorMatrix in="SourceAlpha" result="hardAlpha" values="0 0 0 0 0 0 0 0 0 0 0 0 0 0 0 0 0 0 127 0"/><feOffset dx="-.25" dy="-.3"/><feGaussianBlur stdDeviation=".25"/><feComposite in2="hardAlpha" k2="-1" k3="1" operator="arithmetic"/><feColorMatrix values="0 0 0 0 0.6 0 0 0 0 0.235294 0 0 0 0 0.156863 0 0 0 1 0"/><feBlend in2="shape" result="effect1_innerShadow_3987_24657"/></filter><filter id="filter7_f_3987_24657" width="3.17" height=".992" x="19.25" y="14.332" color-interpolation-filters="sRGB" filterUnits="userSpaceOnUse"><feFlood flood-opacity="0" result="BackgroundImageFix"/><feBlend in="SourceGraphic" in2="BackgroundImageFix" result="shape"/><feGaussianBlur result="effect1_foregroundBlur_3987_24657" stdDeviation=".1"/></filter><filter id="filter8_f_3987_24657" width="7.887" height="8.705" x="12.161" y="2.226" color-interpolation-filters="sRGB" filterUnits="userSpaceOnUse"><feFlood flood-opacity="0" result="BackgroundImageFix"/><feBlend in="SourceGraphic" in2="BackgroundImageFix" result="shape"/><feGaussianBlur result="effect1_foregroundBlur_3987_24657" stdDeviation=".25"/></filter><filter id="filter9_i_3987_24657" width="8.2" height="8.529" x="12.04" y="1.87" color-interpolation-filters="sRGB" filterUnits="userSpaceOnUse"><feFlood flood-opacity="0" result="BackgroundImageFix"/><feBlend in="SourceGraphic" in2="BackgroundImageFix" result="shape"/><feColorMatrix in="SourceAlpha" result="hardAlpha" values="0 0 0 0 0 0 0 0 0 0 0 0 0 0 0 0 0 0 127 0"/><feOffset dx=".2" dy="-.2"/><feGaussianBlur stdDeviation=".5"/><feComposite in2="hardAlpha" k2="-1" k3="1" operator="arithmetic"/><feColorMatrix values="0 0 0 0 0.847059 0 0 0 0 0.458824 0 0 0 0 0.0117647 0 0 0 1 0"/><feBlend in2="shape" result="effect1_innerShadow_3987_24657"/></filter><filter id="filter10_f_3987_24657" width="3.638" height="2.603" x="14.068" y="20.936" color-interpolation-filters="sRGB" filterUnits="userSpaceOnUse"><feFlood flood-opacity="0" result="BackgroundImageFix"/><feBlend in="SourceGraphic" in2="BackgroundImageFix" result="shape"/><feGaussianBlur result="effect1_foregroundBlur_3987_24657" stdDeviation=".25"/></filter><filter id="filter11_f_3987_24657" width="3.138" height="2.103" x="14.451" y="20.836" color-interpolation-filters="sRGB" filterUnits="userSpaceOnUse"><feFlood flood-opacity="0" result="BackgroundImageFix"/><feBlend in="SourceGraphic" in2="BackgroundImageFix" result="shape"/><feGaussianBlur result="effect1_foregroundBlur_3987_24657" stdDeviation=".125"/></filter><filter id="filter12_f_3987_24657" width="1.647" height="1.423" x="18.552" y="18.008" color-interpolation-filters="sRGB" filterUnits="userSpaceOnUse"><feFlood flood-opacity="0" result="BackgroundImageFix"/><feBlend in="SourceGraphic" in2="BackgroundImageFix" result="shape"/><feGaussianBlur result="effect1_foregroundBlur_3987_24657" stdDeviation=".05"/></filter><filter id="filter13_f_3987_24657" width="1.611" height="1.666" x="20.769" y="18.339" color-interpolation-filters="sRGB" filterUnits="userSpaceOnUse"><feFlood flood-opacity="0" result="BackgroundImageFix"/><feBlend in="SourceGraphic" in2="BackgroundImageFix" result="shape"/><feGaussianBlur result="effect1_foregroundBlur_3987_24657" stdDeviation=".1"/></filter><filter id="filter14_f_3987_24657" width="1.845" height="1.978" x="11.605" y="18.183" color-interpolation-filters="sRGB" filterUnits="userSpaceOnUse"><feFlood flood-opacity="0" result="BackgroundImageFix"/><feBlend in="SourceGraphic" in2="BackgroundImageFix" result="shape"/><feGaussianBlur result="effect1_foregroundBlur_3987_24657" stdDeviation=".1"/></filter><filter id="filter15_f_3987_24657" width="1.958" height="1.444" x="9.597" y="17.988" color-interpolation-filters="sRGB" filterUnits="userSpaceOnUse"><feFlood flood-opacity="0" result="BackgroundImageFix"/><feBlend in="SourceGraphic" in2="BackgroundImageFix" result="shape"/><feGaussianBlur result="effect1_foregroundBlur_3987_24657" stdDeviation=".05"/></filter><linearGradient id="paint0_linear_3987_24657" x1="3.695" x2="6.52" y1="19.789" y2="19.539" gradientUnits="userSpaceOnUse"><stop stop-color="#DE8D27"/><stop offset="1" stop-color="#CB773F"/></linearGradient><linearGradient id="paint3_linear_3987_24657" x1="28.07" x2="25.82" y1="17.258" y2="22.289" gradientUnits="userSpaceOnUse"><stop stop-color="#FFE13F"/><stop offset="1" stop-color="#FFBD36"/></linearGradient><linearGradient id="paint6_linear_3987_24657" x1="26.742" x2="27.07" y1="20.945" y2="17.867" gradientUnits="userSpaceOnUse"><stop offset=".302" stop-color="#FFC332"/><stop offset="1" stop-color="#FFD165"/></linearGradient><linearGradient id="paint10_linear_3987_24657" x1="5.684" x2="12.059" y1="20.648" y2="20.648" gradientUnits="userSpaceOnUse"><stop stop-color="#EB992C"/><stop offset="1" stop-color="#EB992C" stop-opacity="0"/></linearGradient><linearGradient id="paint15_linear_3987_24657" x1="18.708" x2="15.402" y1="4.563" y2="10.31" gradientUnits="userSpaceOnUse"><stop stop-color="#E07F05"/><stop offset="1" stop-color="#FF9C1D"/></linearGradient><linearGradient id="paint20_linear_3987_24657" x1="22.133" x2="21.359" y1="19.078" y2="19.555" gradientUnits="userSpaceOnUse"><stop stop-color="#B4948D"/><stop offset="1" stop-color="#B4948D" stop-opacity="0"/></linearGradient><linearGradient id="paint21_linear_3987_24657" x1="13.079" x2="12.305" y1="19.078" y2="19.555" gradientUnits="userSpaceOnUse"><stop stop-color="#B4948D"/><stop offset="1" stop-color="#B4948D" stop-opacity="0"/></linearGradient></defs></svg>