<svg xmlns="http://www.w3.org/2000/svg" width="32" height="32" fill="none" viewBox="0 0 32 32"><path fill="url(#paint0_radial_4002_23)" d="M3.601 29.408c0-5.916 4.854-10.711 10.842-10.711s10.842 4.795 10.842 10.71v.464H3.601v-.463Z"/><path fill="url(#paint1_radial_4002_23)" d="M3.601 29.408c0-5.916 4.854-10.711 10.842-10.711s10.842 4.795 10.842 10.71v.464H3.601v-.463Z"/><path fill="url(#paint2_radial_4002_23)" d="M3.601 29.408c0-5.916 4.854-10.711 10.842-10.711s10.842 4.795 10.842 10.71v.464H3.601v-.463Z"/><path fill="url(#paint3_radial_4002_23)" d="M3.601 29.408c0-5.916 4.854-10.711 10.842-10.711s10.842 4.795 10.842 10.71v.464H3.601v-.463Z"/><path fill="url(#paint4_radial_4002_23)" d="M3.601 29.408c0-5.916 4.854-10.711 10.842-10.711s10.842 4.795 10.842 10.71v.464H3.601v-.463Z"/><path fill="url(#paint5_radial_4002_23)" d="M21.576 29.87h3.71v-.462c0-3.218-1.437-6.103-3.71-8.067v8.53Z"/><path fill="url(#paint6_radial_4002_23)" d="M21.576 29.87h3.71v-.462c0-3.218-1.437-6.103-3.71-8.067v8.53Z"/><path fill="#2B7FDE" d="M7.31 21.341c-2.273 1.964-3.71 4.85-3.71 8.067v.463h3.71v-8.53Z"/><path fill="url(#paint7_radial_4002_23)" d="M7.31 21.341c-2.273 1.964-3.71 4.85-3.71 8.067v.463h3.71v-8.53Z"/><path fill="url(#paint8_radial_4002_23)" d="M7.31 21.341c-2.273 1.964-3.71 4.85-3.71 8.067v.463h3.71v-8.53Z"/><path fill="#F4AA28" d="M12.63 18.49h3.985v1.384c0 1.1-.892 1.812-1.992 1.812s-1.992-.712-1.992-1.813v-1.382Z"/><path fill="url(#paint9_radial_4002_23)" d="M12.63 18.49h3.985v1.384c0 1.1-.892 1.812-1.992 1.812s-1.992-.712-1.992-1.813v-1.382Z"/><path fill="url(#paint10_radial_4002_23)" d="M12.63 18.49h3.985v1.384c0 1.1-.892 1.812-1.992 1.812s-1.992-.712-1.992-1.813v-1.382Z"/><circle cx="9.862" cy="13.666" r="1.671" fill="url(#paint11_radial_4002_23)"/><g filter="url(#filter0_f_4002_23)"><circle cx="9.862" cy="13.666" r=".996" fill="url(#paint12_linear_4002_23)"/></g><g filter="url(#filter1_i_4002_23)"><circle cx="19.384" cy="13.666" r="1.671" fill="url(#paint13_linear_4002_23)"/><circle cx="19.384" cy="13.666" r="1.671" fill="url(#paint14_radial_4002_23)"/></g><g filter="url(#filter2_f_4002_23)"><circle cx="19.384" cy="13.666" r=".996" fill="#FFBF34"/><circle cx="19.384" cy="13.666" r=".996" fill="url(#paint15_radial_4002_23)"/><circle cx="19.384" cy="13.666" r=".996" fill="url(#paint16_radial_4002_23)"/></g><path fill="url(#paint17_linear_4002_23)" d="M9.51 13.053a29.99 29.99 0 0 1-.059-1.44c0-.267.108-.587.322-.747l.162-.16c.268-.214.375-.534.375-.855v-.854a.52.52 0 0 1 .43-.534c.644-.16 1.986-.427 3.92-.427 1.932 0 3.274.267 3.919.427.214.054.43.267.43.534v.854c0 .32.16.641.375.855.503.352.471.546.43.96-.013.13-.054 1.196-.09 1.442l-.266 3.962c-.16 1.771-1.553 3.006-3.213 3.006H13.03c-1.713 0-3.052-1.235-3.213-3.006l-.308-4.017Z"/><path fill="url(#paint18_linear_4002_23)" d="M9.51 13.053a29.99 29.99 0 0 1-.059-1.44c0-.267.108-.587.322-.747l.162-.16c.268-.214.375-.534.375-.855v-.854a.52.52 0 0 1 .43-.534c.644-.16 1.986-.427 3.92-.427 1.932 0 3.274.267 3.919.427.214.054.43.267.43.534v.854c0 .32.16.641.375.855.503.352.471.546.43.96-.013.13-.054 1.196-.09 1.442l-.266 3.962c-.16 1.771-1.553 3.006-3.213 3.006H13.03c-1.713 0-3.052-1.235-3.213-3.006l-.308-4.017Z"/><path fill="url(#paint19_radial_4002_23)" d="M9.51 13.053a29.99 29.99 0 0 1-.059-1.44c0-.267.108-.587.322-.747l.162-.16c.268-.214.375-.534.375-.855v-.854a.52.52 0 0 1 .43-.534c.644-.16 1.986-.427 3.92-.427 1.932 0 3.274.267 3.919.427.214.054.43.267.43.534v.854c0 .32.16.641.375.855.503.352.471.546.43.96-.013.13-.054 1.196-.09 1.442l-.266 3.962c-.16 1.771-1.553 3.006-3.213 3.006H13.03c-1.713 0-3.052-1.235-3.213-3.006l-.308-4.017Z"/><path fill="url(#paint20_radial_4002_23)" d="M9.51 13.053a29.99 29.99 0 0 1-.059-1.44c0-.267.108-.587.322-.747l.162-.16c.268-.214.375-.534.375-.855v-.854a.52.52 0 0 1 .43-.534c.644-.16 1.986-.427 3.92-.427 1.932 0 3.274.267 3.919.427.214.054.43.267.43.534v.854c0 .32.16.641.375.855.503.352.471.546.43.96-.013.13-.054 1.196-.09 1.442l-.266 3.962c-.16 1.771-1.553 3.006-3.213 3.006H13.03c-1.713 0-3.052-1.235-3.213-3.006l-.308-4.017Z"/><path fill="url(#paint21_radial_4002_23)" d="M9.51 13.053a29.99 29.99 0 0 1-.059-1.44c0-.267.108-.587.322-.747l.162-.16c.268-.214.375-.534.375-.855v-.854a.52.52 0 0 1 .43-.534c.644-.16 1.986-.427 3.92-.427 1.932 0 3.274.267 3.919.427.214.054.43.267.43.534v.854c0 .32.16.641.375.855.503.352.471.546.43.96-.013.13-.054 1.196-.09 1.442l-.266 3.962c-.16 1.771-1.553 3.006-3.213 3.006H13.03c-1.713 0-3.052-1.235-3.213-3.006l-.308-4.017Z"/><g filter="url(#filter3_ii_4002_23)"><path fill="#FFA91B" d="m19.438 7.182.429.214c.752.373 1.181 1.228 1.02 2.135l-.59 3.043c-.053.314-.26.526-.573.534.036-.505.069-1.318.082-1.446.043-.434-.025-.561-.422-.957-.215-.213-.376-.533-.376-.854v-.854c0-.267-.215-.48-.43-.534-.644-.16-1.986-.427-3.919-.427s-3.275.267-3.92.427a.52.52 0 0 0-.429.534v.854c0 .32-.107.64-.376.854l-.16.16c-.216.16-.324.495-.324.762.014.156.035 1.053.06 1.426a.634.634 0 0 1-.596-.532l-.59-3.043c-.108-.854.322-1.709 1.073-2.082 1.015-.445 1.385-1.12 2.202-1.815.59-.534 1.45-.694 2.201-.32.537.16 1.127.16 1.664 0 .806-.268 1.719-.054 2.363.533l.805.8c.215.268.483.428.805.588Z"/><path fill="url(#paint22_radial_4002_23)" d="m19.438 7.182.429.214c.752.373 1.181 1.228 1.02 2.135l-.59 3.043c-.053.314-.26.526-.573.534.036-.505.069-1.318.082-1.446.043-.434-.025-.561-.422-.957-.215-.213-.376-.533-.376-.854v-.854c0-.267-.215-.48-.43-.534-.644-.16-1.986-.427-3.919-.427s-3.275.267-3.92.427a.52.52 0 0 0-.429.534v.854c0 .32-.107.64-.376.854l-.16.16c-.216.16-.324.495-.324.762.014.156.035 1.053.06 1.426a.634.634 0 0 1-.596-.532l-.59-3.043c-.108-.854.322-1.709 1.073-2.082 1.015-.445 1.385-1.12 2.202-1.815.59-.534 1.45-.694 2.201-.32.537.16 1.127.16 1.664 0 .806-.268 1.719-.054 2.363.533l.805.8c.215.268.483.428.805.588Z"/><path fill="url(#paint23_linear_4002_23)" d="m19.438 7.182.429.214c.752.373 1.181 1.228 1.02 2.135l-.59 3.043c-.053.314-.26.526-.573.534.036-.505.069-1.318.082-1.446.043-.434-.025-.561-.422-.957-.215-.213-.376-.533-.376-.854v-.854c0-.267-.215-.48-.43-.534-.644-.16-1.986-.427-3.919-.427s-3.275.267-3.92.427a.52.52 0 0 0-.429.534v.854c0 .32-.107.64-.376.854l-.16.16c-.216.16-.324.495-.324.762.014.156.035 1.053.06 1.426a.634.634 0 0 1-.596-.532l-.59-3.043c-.108-.854.322-1.709 1.073-2.082 1.015-.445 1.385-1.12 2.202-1.815.59-.534 1.45-.694 2.201-.32.537.16 1.127.16 1.664 0 .806-.268 1.719-.054 2.363.533l.805.8c.215.268.483.428.805.588Z"/><path fill="url(#paint24_radial_4002_23)" d="m19.438 7.182.429.214c.752.373 1.181 1.228 1.02 2.135l-.59 3.043c-.053.314-.26.526-.573.534.036-.505.069-1.318.082-1.446.043-.434-.025-.561-.422-.957-.215-.213-.376-.533-.376-.854v-.854c0-.267-.215-.48-.43-.534-.644-.16-1.986-.427-3.919-.427s-3.275.267-3.92.427a.52.52 0 0 0-.429.534v.854c0 .32-.107.64-.376.854l-.16.16c-.216.16-.324.495-.324.762.014.156.035 1.053.06 1.426a.634.634 0 0 1-.596-.532l-.59-3.043c-.108-.854.322-1.709 1.073-2.082 1.015-.445 1.385-1.12 2.202-1.815.59-.534 1.45-.694 2.201-.32.537.16 1.127.16 1.664 0 .806-.268 1.719-.054 2.363.533l.805.8c.215.268.483.428.805.588Z"/><path fill="url(#paint25_radial_4002_23)" d="m19.438 7.182.429.214c.752.373 1.181 1.228 1.02 2.135l-.59 3.043c-.053.314-.26.526-.573.534.036-.505.069-1.318.082-1.446.043-.434-.025-.561-.422-.957-.215-.213-.376-.533-.376-.854v-.854c0-.267-.215-.48-.43-.534-.644-.16-1.986-.427-3.919-.427s-3.275.267-3.92.427a.52.52 0 0 0-.429.534v.854c0 .32-.107.64-.376.854l-.16.16c-.216.16-.324.495-.324.762.014.156.035 1.053.06 1.426a.634.634 0 0 1-.596-.532l-.59-3.043c-.108-.854.322-1.709 1.073-2.082 1.015-.445 1.385-1.12 2.202-1.815.59-.534 1.45-.694 2.201-.32.537.16 1.127.16 1.664 0 .806-.268 1.719-.054 2.363.533l.805.8c.215.268.483.428.805.588Z"/><path fill="url(#paint26_radial_4002_23)" d="m19.438 7.182.429.214c.752.373 1.181 1.228 1.02 2.135l-.59 3.043c-.053.314-.26.526-.573.534.036-.505.069-1.318.082-1.446.043-.434-.025-.561-.422-.957-.215-.213-.376-.533-.376-.854v-.854c0-.267-.215-.48-.43-.534-.644-.16-1.986-.427-3.919-.427s-3.275.267-3.92.427a.52.52 0 0 0-.429.534v.854c0 .32-.107.64-.376.854l-.16.16c-.216.16-.324.495-.324.762.014.156.035 1.053.06 1.426a.634.634 0 0 1-.596-.532l-.59-3.043c-.108-.854.322-1.709 1.073-2.082 1.015-.445 1.385-1.12 2.202-1.815.59-.534 1.45-.694 2.201-.32.537.16 1.127.16 1.664 0 .806-.268 1.719-.054 2.363.533l.805.8c.215.268.483.428.805.588Z"/><path fill="url(#paint27_radial_4002_23)" d="m19.438 7.182.429.214c.752.373 1.181 1.228 1.02 2.135l-.59 3.043c-.053.314-.26.526-.573.534.036-.505.069-1.318.082-1.446.043-.434-.025-.561-.422-.957-.215-.213-.376-.533-.376-.854v-.854c0-.267-.215-.48-.43-.534-.644-.16-1.986-.427-3.919-.427s-3.275.267-3.92.427a.52.52 0 0 0-.429.534v.854c0 .32-.107.64-.376.854l-.16.16c-.216.16-.324.495-.324.762.014.156.035 1.053.06 1.426a.634.634 0 0 1-.596-.532l-.59-3.043c-.108-.854.322-1.709 1.073-2.082 1.015-.445 1.385-1.12 2.202-1.815.59-.534 1.45-.694 2.201-.32.537.16 1.127.16 1.664 0 .806-.268 1.719-.054 2.363.533l.805.8c.215.268.483.428.805.588Z"/></g><path fill="url(#paint28_radial_4002_23)" d="m19.438 7.182.429.214c.752.373 1.181 1.228 1.02 2.135l-.59 3.043c-.053.314-.26.526-.573.534.036-.505.069-1.318.082-1.446.043-.434-.025-.561-.422-.957-.215-.213-.376-.533-.376-.854v-.854c0-.267-.215-.48-.43-.534-.644-.16-1.986-.427-3.919-.427s-3.275.267-3.92.427a.52.52 0 0 0-.429.534v.854c0 .32-.107.64-.376.854l-.16.16c-.216.16-.324.495-.324.762.014.156.035 1.053.06 1.426a.634.634 0 0 1-.596-.532l-.59-3.043c-.108-.854.322-1.709 1.073-2.082 1.015-.445 1.385-1.12 2.202-1.815.59-.534 1.45-.694 2.201-.32.537.16 1.127.16 1.664 0 .806-.268 1.719-.054 2.363.533l.805.8c.215.268.483.428.805.588Z"/><path fill="url(#paint29_radial_4002_23)" d="m19.438 7.182.429.214c.752.373 1.181 1.228 1.02 2.135l-.59 3.043c-.053.314-.26.526-.573.534.036-.505.069-1.318.082-1.446.043-.434-.025-.561-.422-.957-.215-.213-.376-.533-.376-.854v-.854c0-.267-.215-.48-.43-.534-.644-.16-1.986-.427-3.919-.427s-3.275.267-3.92.427a.52.52 0 0 0-.429.534v.854c0 .32-.107.64-.376.854l-.16.16c-.216.16-.324.495-.324.762.014.156.035 1.053.06 1.426a.634.634 0 0 1-.596-.532l-.59-3.043c-.108-.854.322-1.709 1.073-2.082 1.015-.445 1.385-1.12 2.202-1.815.59-.534 1.45-.694 2.201-.32.537.16 1.127.16 1.664 0 .806-.268 1.719-.054 2.363.533l.805.8c.215.268.483.428.805.588Z"/><path fill="url(#paint30_radial_4002_23)" d="m19.438 7.182.429.214c.752.373 1.181 1.228 1.02 2.135l-.59 3.043c-.053.314-.26.526-.573.534.036-.505.069-1.318.082-1.446.043-.434-.025-.561-.422-.957-.215-.213-.376-.533-.376-.854v-.854c0-.267-.215-.48-.43-.534-.644-.16-1.986-.427-3.919-.427s-3.275.267-3.92.427a.52.52 0 0 0-.429.534v.854c0 .32-.107.64-.376.854l-.16.16c-.216.16-.324.495-.324.762.014.156.035 1.053.06 1.426a.634.634 0 0 1-.596-.532l-.59-3.043c-.108-.854.322-1.709 1.073-2.082 1.015-.445 1.385-1.12 2.202-1.815.59-.534 1.45-.694 2.201-.32.537.16 1.127.16 1.664 0 .806-.268 1.719-.054 2.363.533l.805.8c.215.268.483.428.805.588Z"/><path fill="url(#paint31_radial_4002_23)" d="m19.438 7.182.429.214c.752.373 1.181 1.228 1.02 2.135l-.59 3.043c-.053.314-.26.526-.573.534.036-.505.069-1.318.082-1.446.043-.434-.025-.561-.422-.957-.215-.213-.376-.533-.376-.854v-.854c0-.267-.215-.48-.43-.534-.644-.16-1.986-.427-3.919-.427s-3.275.267-3.92.427a.52.52 0 0 0-.429.534v.854c0 .32-.107.64-.376.854l-.16.16c-.216.16-.324.495-.324.762.014.156.035 1.053.06 1.426a.634.634 0 0 1-.596-.532l-.59-3.043c-.108-.854.322-1.709 1.073-2.082 1.015-.445 1.385-1.12 2.202-1.815.59-.534 1.45-.694 2.201-.32.537.16 1.127.16 1.664 0 .806-.268 1.719-.054 2.363.533l.805.8c.215.268.483.428.805.588Z"/><g filter="url(#filter4_f_4002_23)"><path fill="#F1901C" d="m14.338 13.544-.82 1.701c-.103.35.142.7.488.7h.738c.346 0 .59-.355.488-.7l-.498-1.701c-.107-.377-.284-.377-.396 0Z"/></g><g filter="url(#filter5_f_4002_23)"><path fill="#FFCC28" d="m14.231 13.38-.531 1.702a.54.54 0 0 0 .52.7h.787c.37 0 .63-.356.521-.7l-.531-1.702c-.114-.376-.646-.376-.766 0Z"/><path fill="url(#paint32_linear_4002_23)" d="m14.231 13.38-.531 1.702a.54.54 0 0 0 .52.7h.787c.37 0 .63-.356.521-.7l-.531-1.702c-.114-.376-.646-.376-.766 0Z"/><path fill="url(#paint33_linear_4002_23)" d="m14.231 13.38-.531 1.702a.54.54 0 0 0 .52.7h.787c.37 0 .63-.356.521-.7l-.531-1.702c-.114-.376-.646-.376-.766 0Z"/><path fill="url(#paint34_linear_4002_23)" d="m14.231 13.38-.531 1.702a.54.54 0 0 0 .52.7h.787c.37 0 .63-.356.521-.7l-.531-1.702c-.114-.376-.646-.376-.766 0Z"/></g><g filter="url(#filter6_f_4002_23)"><path stroke="url(#paint35_radial_4002_23)" stroke-width=".2" d="M14.614 16.8c-.508 0-.985-.12-1.386-.33-.137-.07-.285.085-.198.21.335.508.919.846 1.584.846s1.25-.338 1.584-.846c.087-.13-.06-.28-.198-.21-.4.21-.873.33-1.386.33Z"/></g><path fill="#8A004F" d="M14.614 16.8c-.508 0-.985-.12-1.386-.33-.137-.07-.285.085-.198.21.335.508.919.846 1.584.846s1.25-.338 1.584-.846c.087-.13-.06-.28-.198-.21-.4.21-.873.33-1.386.33Z"/><path fill="#fff" d="M17.004 12.234c.654 0 1.206.45 1.356 1.06a.274.274 0 0 1-.268.34h-2.233a.23.23 0 0 1-.227-.271 1.399 1.399 0 0 1 1.372-1.129Z"/><path fill="url(#paint36_radial_4002_23)" d="M16.797 12.506a.893.893 0 0 1 .86 1.129h-1.725a.897.897 0 0 1 .865-1.129Z"/><path fill="#000" d="M16.285 13.4a.51.51 0 0 1 .512-.512.51.51 0 0 1 .455.747h-.906a.462.462 0 0 1-.06-.236Z"/><g filter="url(#filter7_f_4002_23)"><path fill="#C7A7A3" d="M16.731 12.695c.064.085-.07.189-.22.302-.151.113-.264.192-.327.107-.064-.085.007-.245.158-.358.152-.114.326-.136.39-.051Z"/><path fill="url(#paint37_radial_4002_23)" d="M16.731 12.695c.064.085-.07.189-.22.302-.151.113-.264.192-.327.107-.064-.085.007-.245.158-.358.152-.114.326-.136.39-.051Z"/></g><g filter="url(#filter8_f_4002_23)"><path fill="url(#paint38_linear_4002_23)" d="M17.593 13.282a.841.841 0 0 0-.232-.463l-.26.285.117.228.375-.05Z"/></g><path fill="#fff" d="M12.219 12.234c-.654 0-1.206.45-1.356 1.06a.274.274 0 0 0 .268.34h2.233a.23.23 0 0 0 .227-.271 1.402 1.402 0 0 0-1.372-1.129Z"/><path fill="url(#paint39_radial_4002_23)" d="M12.426 12.506a.893.893 0 0 0-.86 1.129h1.724a.915.915 0 0 0 .033-.236.9.9 0 0 0-.897-.893Z"/><path fill="#000" d="M12.938 13.4a.51.51 0 0 0-.512-.512.51.51 0 0 0-.455.747h.906a.508.508 0 0 0 .06-.236Z"/><g filter="url(#filter9_f_4002_23)"><path fill="url(#paint40_linear_4002_23)" d="M13.242 13.294c0-.288-.235-.48-.299-.539l-.288.28.178.36.409-.1Z"/></g><g filter="url(#filter10_f_4002_23)" transform="rotate(-27.914 12.156 12.888)"><ellipse cx="12.156" cy="12.888" fill="#C7A7A3" fill-opacity=".9" rx=".39" ry=".197"/><ellipse cx="12.156" cy="12.888" fill="url(#paint41_radial_4002_23)" rx=".39" ry=".197"/></g><g filter="url(#filter11_i_4002_23)"><path fill="url(#paint42_radial_4002_23)" fill-rule="evenodd" d="M16.395 11.459c.72-.068 1.183.213 1.295.317a.473.473 0 0 0 .64-.696c-.306-.282-1.032-.656-2.023-.563a.473.473 0 0 0 .088.942Z" clip-rule="evenodd"/></g><g filter="url(#filter12_f_4002_23)"><path stroke="#D76D5B" stroke-linecap="round" stroke-width=".25" d="M18.01 11.317c-.209-.193-.803-.52-1.659-.44"/></g><g filter="url(#filter13_i_4002_23)"><path fill="url(#paint43_radial_4002_23)" fill-rule="evenodd" d="M12.833 11.459c-.72-.068-1.183.213-1.295.317a.473.473 0 0 1-.64-.696c.306-.282 1.032-.656 2.023-.563a.473.473 0 1 1-.088.942Z" clip-rule="evenodd"/></g><g filter="url(#filter14_f_4002_23)"><path stroke="#D76D5B" stroke-linecap="round" stroke-width=".25" d="M11.218 11.317c.21-.193.803-.52 1.659-.44"/></g><path fill="url(#paint44_radial_4002_23)" d="M20.283 6.381c-1.215-.027-1.642-.097-2.18-.285l1.061 1.785c.189.318.538.506.901.44.85-.155 2.12-.53 2.703-1.053.843-.758.785-1.492.715-1.758-.07-.265-.211-.445-.352-.453-.14-.008-.26.062-.39.375-.212.508-.883.985-2.458.95Z"/><path fill="url(#paint45_radial_4002_23)" d="M20.283 6.381c-1.215-.027-1.642-.097-2.18-.285l1.061 1.785c.189.318.538.506.901.44.85-.155 2.12-.53 2.703-1.053.843-.758.785-1.492.715-1.758-.07-.265-.211-.445-.352-.453-.14-.008-.26.062-.39.375-.212.508-.883.985-2.458.95Z"/><path fill="url(#paint46_radial_4002_23)" d="M20.283 6.381c-1.215-.027-1.642-.097-2.18-.285l1.061 1.785c.189.318.538.506.901.44.85-.155 2.12-.53 2.703-1.053.843-.758.785-1.492.715-1.758-.07-.265-.211-.445-.352-.453-.14-.008-.26.062-.39.375-.212.508-.883.985-2.458.95Z"/><path fill="url(#paint47_radial_4002_23)" d="M20.283 6.381c-1.215-.027-1.642-.097-2.18-.285l1.061 1.785c.189.318.538.506.901.44.85-.155 2.12-.53 2.703-1.053.843-.758.785-1.492.715-1.758-.07-.265-.211-.445-.352-.453-.14-.008-.26.062-.39.375-.212.508-.883.985-2.458.95Z"/><path fill="url(#paint48_radial_4002_23)" d="M20.283 6.381c-1.215-.027-1.642-.097-2.18-.285l1.061 1.785c.189.318.538.506.901.44.85-.155 2.12-.53 2.703-1.053.843-.758.785-1.492.715-1.758-.07-.265-.211-.445-.352-.453-.14-.008-.26.062-.39.375-.212.508-.883.985-2.458.95Z"/><path fill="url(#paint49_linear_4002_23)" d="m24.342 3.159-1.388 4.83 1.186.345 1.072-3.729a1.15 1.15 0 0 0-.784-1.421l-.086-.025Z"/><path fill="url(#paint50_linear_4002_23)" d="m24.342 3.159-1.388 4.83 1.186.345 1.072-3.729a1.15 1.15 0 0 0-.784-1.421l-.086-.025Z"/><path fill="url(#paint51_linear_4002_23)" d="m19.694 5.736 5.42 1.536-.338 1.188-4.313-1.222a1.15 1.15 0 0 1-.793-1.42l.024-.082Z"/><path fill="url(#paint52_linear_4002_23)" d="m19.694 5.736 5.42 1.536-.338 1.188-4.313-1.222a1.15 1.15 0 0 1-.793-1.42l.024-.082Z"/><g filter="url(#filter15_i_4002_23)"><circle cx="23.739" cy="7.515" r=".313" fill="url(#paint53_radial_4002_23)"/><circle cx="23.739" cy="7.515" r=".313" fill="url(#paint54_radial_4002_23)"/><circle cx="23.739" cy="7.515" r=".313" fill="url(#paint55_radial_4002_23)"/></g><g filter="url(#filter16_ii_4002_23)"><path fill="url(#paint56_radial_4002_23)" fill-rule="evenodd" d="M23.013 7.957a.1.1 0 0 0-.124.068l-.104.357a.215.215 0 0 1-.174.148 1.842 1.842 0 1 0 1.514.434.214.214 0 0 1-.068-.22l.101-.349a.1.1 0 0 0-.068-.124l-1.077-.314Zm.74 2.391a.844.844 0 1 1-1.687 0 .844.844 0 0 1 1.688 0Z" clip-rule="evenodd"/></g><path fill="url(#paint57_linear_4002_23)" fill-rule="evenodd" d="M23.013 7.957a.1.1 0 0 0-.124.068l-.104.357a.215.215 0 0 1-.174.148 1.842 1.842 0 1 0 1.514.434.214.214 0 0 1-.068-.22l.101-.349a.1.1 0 0 0-.068-.124l-1.077-.314Zm.74 2.391a.844.844 0 1 1-1.687 0 .844.844 0 0 1 1.688 0Z" clip-rule="evenodd"/><g filter="url(#filter17_i_4002_23)"><path fill="url(#paint58_radial_4002_23)" fill-rule="evenodd" d="M24.457 7.17a.1.1 0 0 1 .123-.07l.36.095c.079.02.162-.01.216-.073a1.842 1.842 0 1 1-.412 1.52.215.215 0 0 0-.153-.171l-.351-.094a.1.1 0 0 1-.071-.122l.288-1.085Zm1.664 1.87a.844.844 0 1 0 .872-1.444.844.844 0 0 0-.872 1.445Z" clip-rule="evenodd"/></g><g filter="url(#filter18_f_4002_23)"><circle cx="26.558" cy="8.318" r="1.671" stroke="url(#paint59_linear_4002_23)" stroke-width=".1"/></g><g filter="url(#filter19_f_4002_23)"><circle cx="26.558" cy="8.318" r="1.117" stroke="url(#paint60_linear_4002_23)" stroke-width=".1"/></g><g filter="url(#filter20_f_4002_23)"><circle cx="22.91" cy="10.332" r="1.117" stroke="url(#paint61_linear_4002_23)" stroke-width=".1"/></g><g filter="url(#filter21_f_4002_23)"><circle cx="22.91" cy="10.332" r="1.652" stroke="url(#paint62_linear_4002_23)" stroke-width=".1"/></g><defs><radialGradient id="paint0_radial_4002_23" cx="0" cy="0" r="1" gradientTransform="rotate(154.071 8.254 14.159) scale(15.0662 17.3462)" gradientUnits="userSpaceOnUse"><stop stop-color="#339FF3"/><stop offset="1" stop-color="#2477DD"/></radialGradient><radialGradient id="paint1_radial_4002_23" cx="0" cy="0" r="1" gradientTransform="rotate(-115.528 17.4 10.835) scale(12.9022 18.5657)" gradientUnits="userSpaceOnUse"><stop offset=".879" stop-color="#407DA5" stop-opacity="0"/><stop offset="1" stop-color="#407DA5"/></radialGradient><radialGradient id="paint2_radial_4002_23" cx="0" cy="0" r="1" gradientTransform="rotate(166.984 5.917 10.473) scale(6.38273 2.1839)" gradientUnits="userSpaceOnUse"><stop offset=".236" stop-color="#145491"/><stop offset="1" stop-color="#27719E" stop-opacity="0"/></radialGradient><radialGradient id="paint3_radial_4002_23" cx="0" cy="0" r="1" gradientTransform="matrix(-2.6713 0 0 -14.1675 21.546 29.871)" gradientUnits="userSpaceOnUse"><stop offset=".133" stop-color="#459BFC"/><stop offset="1" stop-color="#459BFC" stop-opacity="0"/></radialGradient><radialGradient id="paint4_radial_4002_23" cx="0" cy="0" r="1" gradientTransform="matrix(1.24045 0 0 9.50024 7.166 29.871)" gradientUnits="userSpaceOnUse"><stop stop-color="#1F6CE0"/><stop offset="1" stop-color="#1F6CE0" stop-opacity="0"/></radialGradient><radialGradient id="paint5_radial_4002_23" cx="0" cy="0" r="1" gradientTransform="matrix(3.25185 0 0 9.13279 21.576 29.092)" gradientUnits="userSpaceOnUse"><stop offset=".576" stop-color="#43A2FF"/><stop offset="1" stop-color="#43A0F3"/></radialGradient><radialGradient id="paint6_radial_4002_23" cx="0" cy="0" r="1" gradientTransform="matrix(.87006 0 0 11.9715 21.576 29.87)" gradientUnits="userSpaceOnUse"><stop stop-color="#367BF1"/><stop offset="1" stop-color="#367BF1" stop-opacity="0"/></radialGradient><radialGradient id="paint7_radial_4002_23" cx="0" cy="0" r="1" gradientTransform="matrix(-3.70862 0 0 -8.85437 7.31 29.871)" gradientUnits="userSpaceOnUse"><stop offset=".614" stop-color="#517CC3" stop-opacity="0"/><stop offset=".956" stop-color="#517CC3"/></radialGradient><radialGradient id="paint8_radial_4002_23" cx="0" cy="0" r="1" gradientTransform="matrix(-.8463 0 0 -10.457 7.31 29.871)" gradientUnits="userSpaceOnUse"><stop offset=".111" stop-color="#438DEC"/><stop offset="1" stop-color="#438DEC" stop-opacity="0"/></radialGradient><radialGradient id="paint9_radial_4002_23" cx="0" cy="0" r="1" gradientTransform="matrix(.5625 1.75 -3.03541 .97567 13.7 19.506)" gradientUnits="userSpaceOnUse"><stop offset=".243" stop-color="#C37D25"/><stop offset="1" stop-color="#C37D25" stop-opacity="0"/></radialGradient><radialGradient id="paint10_radial_4002_23" cx="0" cy="0" r="1" gradientTransform="rotate(139.583 4.382 13.566) scale(2.48229 1.07513)" gradientUnits="userSpaceOnUse"><stop offset=".285" stop-color="#F5C028"/><stop offset="1" stop-color="#FFC328" stop-opacity="0"/><stop offset="1" stop-color="#F5C028" stop-opacity="0"/></radialGradient><radialGradient id="paint11_radial_4002_23" cx="0" cy="0" r="1" gradientTransform="matrix(1.75652 0 0 3.07393 8.19 13.666)" gradientUnits="userSpaceOnUse"><stop offset=".351" stop-color="#E6962B"/><stop offset="1" stop-color="#CA8F29"/></radialGradient><radialGradient id="paint14_radial_4002_23" cx="0" cy="0" r="1" gradientTransform="matrix(.82748 -.60254 .68772 .94447 19.756 13.401)" gradientUnits="userSpaceOnUse"><stop offset=".543" stop-color="#FFC532"/><stop offset="1" stop-color="#FFC532" stop-opacity="0"/></radialGradient><radialGradient id="paint15_radial_4002_23" cx="0" cy="0" r="1" gradientTransform="matrix(.82204 -1.51196 .88496 .48114 19.343 14.488)" gradientUnits="userSpaceOnUse"><stop offset=".69" stop-color="#F4A51A" stop-opacity="0"/><stop offset="1" stop-color="#F4A51A"/></radialGradient><radialGradient id="paint16_radial_4002_23" cx="0" cy="0" r="1" gradientTransform="matrix(.25953 .2569 -.33118 .33457 19.385 13.666)" gradientUnits="userSpaceOnUse"><stop stop-color="#E59B1F"/><stop offset="1" stop-color="#E59B1F" stop-opacity="0"/></radialGradient><radialGradient id="paint19_radial_4002_23" cx="0" cy="0" r="1" gradientTransform="matrix(0 8.23895 -9.40738 0 15.105 12.074)" gradientUnits="userSpaceOnUse"><stop offset=".712" stop-color="#F39C27" stop-opacity="0"/><stop offset="1" stop-color="#BB7930"/></radialGradient><radialGradient id="paint20_radial_4002_23" cx="0" cy="0" r="1" gradientTransform="matrix(0 -1.30832 1.61023 0 16.962 12.393)" gradientUnits="userSpaceOnUse"><stop stop-color="#FFBA0D"/><stop offset="1" stop-color="#FFBA0D" stop-opacity="0"/></radialGradient><radialGradient id="paint21_radial_4002_23" cx="0" cy="0" r="1" gradientTransform="matrix(0 -1.39218 1.7313 0 12.4 12.36)" gradientUnits="userSpaceOnUse"><stop stop-color="#EE911A"/><stop offset="1" stop-color="#EE911A" stop-opacity="0"/></radialGradient><radialGradient id="paint22_radial_4002_23" cx="0" cy="0" r="1" gradientTransform="matrix(-3.43986 4.43352 -7.5396 -5.84979 18.31 5.946)" gradientUnits="userSpaceOnUse"><stop stop-color="#FFE336"/><stop offset="1" stop-color="#FFE336" stop-opacity="0"/></radialGradient><radialGradient id="paint24_radial_4002_23" cx="0" cy="0" r="1" gradientTransform="rotate(-95.29 9.807 .238) scale(2.00292 .98368)" gradientUnits="userSpaceOnUse"><stop offset=".222" stop-color="#FFB42C"/><stop offset="1" stop-color="#FFB42C" stop-opacity="0"/></radialGradient><radialGradient id="paint25_radial_4002_23" cx="0" cy="0" r="1" gradientTransform="matrix(.85996 -1.96834 1.60534 .70136 18.845 11.927)" gradientUnits="userSpaceOnUse"><stop offset=".479" stop-color="#E57D1C"/><stop offset="1" stop-color="#E57D1C" stop-opacity="0"/></radialGradient><radialGradient id="paint26_radial_4002_23" cx="0" cy="0" r="1" gradientTransform="matrix(.99373 1.23303 -1.08867 .87739 13.838 5.057)" gradientUnits="userSpaceOnUse"><stop stop-color="#FFCE2C"/><stop offset="1" stop-color="#FFCE2C" stop-opacity="0"/></radialGradient><radialGradient id="paint27_radial_4002_23" cx="0" cy="0" r="1" gradientTransform="matrix(1.45237 -3.03851 1.04984 .50181 18.807 9.443)" gradientUnits="userSpaceOnUse"><stop stop-color="#FFD93A"/><stop offset="1" stop-color="#FFD93A" stop-opacity="0"/></radialGradient><radialGradient id="paint28_radial_4002_23" cx="0" cy="0" r="1" gradientTransform="matrix(.26142 1.01586 -1.67013 .42978 15.31 5.057)" gradientUnits="userSpaceOnUse"><stop offset=".208" stop-color="#DDB13B"/><stop offset="1" stop-color="#FFC926" stop-opacity="0"/></radialGradient><radialGradient id="paint29_radial_4002_23" cx="0" cy="0" r="1" gradientTransform="matrix(1.108 1.60044 -3.3305 2.30572 10.228 6.319)" gradientUnits="userSpaceOnUse"><stop offset=".288" stop-color="#C9993E"/><stop offset="1" stop-color="#F29322" stop-opacity="0"/></radialGradient><radialGradient id="paint30_radial_4002_23" cx="0" cy="0" r="1" gradientTransform="matrix(-7.21429 3.2501 -4.0668 -9.02713 15.768 9.298)" gradientUnits="userSpaceOnUse"><stop offset=".756" stop-color="#CF7D35" stop-opacity="0"/><stop offset=".959" stop-color="#CF7D35"/></radialGradient><radialGradient id="paint31_radial_4002_23" cx="0" cy="0" r="1" gradientTransform="rotate(109.643 7.603 11.426) scale(2.74487 1.764)" gradientUnits="userSpaceOnUse"><stop offset=".346" stop-color="#F4B22D"/><stop offset="1" stop-color="#F4B22D" stop-opacity="0"/></radialGradient><radialGradient id="paint35_radial_4002_23" cx="0" cy="0" r="1" gradientTransform="matrix(.02462 -.62786 1.8836 .07386 14.53 17.682)" gradientUnits="userSpaceOnUse"><stop stop-color="#FFD069"/><stop offset="1" stop-color="#FFBE30" stop-opacity="0"/></radialGradient><radialGradient id="paint36_radial_4002_23" cx="0" cy="0" r="1" gradientTransform="matrix(0 .90401 -1.06968 0 16.795 13.317)" gradientUnits="userSpaceOnUse"><stop offset=".75" stop-color="#925C51"/><stop offset="1" stop-color="#694B43"/><stop offset="1" stop-color="#804D49"/><stop offset="1" stop-color="#85534D"/></radialGradient><radialGradient id="paint37_radial_4002_23" cx="0" cy="0" r="1" gradientTransform="matrix(-.23208 -.29907 .41175 -.31952 16.566 13.067)" gradientUnits="userSpaceOnUse"><stop offset=".766" stop-color="#FFE6E2" stop-opacity="0"/><stop offset=".966" stop-color="#FFE6E2"/></radialGradient><radialGradient id="paint39_radial_4002_23" cx="0" cy="0" r="1" gradientTransform="matrix(0 .90406 -1.06973 0 12.428 13.317)" gradientUnits="userSpaceOnUse"><stop offset=".75" stop-color="#925C51"/><stop offset="1" stop-color="#694B43"/><stop offset="1" stop-color="#804D49"/><stop offset="1" stop-color="#85534D"/></radialGradient><radialGradient id="paint41_radial_4002_23" cx="0" cy="0" r="1" gradientTransform="rotate(-90.897 12.57 .625) scale(.4945 .5944)" gradientUnits="userSpaceOnUse"><stop offset=".766" stop-color="#FFE6E2" stop-opacity="0"/><stop offset=".966" stop-color="#FFE6E2"/></radialGradient><radialGradient id="paint42_radial_4002_23" cx="0" cy="0" r="1" gradientTransform="rotate(-76.373 15.822 -5.117) scale(.83606 1.83421)" gradientUnits="userSpaceOnUse"><stop offset=".657" stop-color="#C64F38"/><stop offset="1" stop-color="#BB4F29"/></radialGradient><radialGradient id="paint43_radial_4002_23" cx="0" cy="0" r="1" gradientTransform="rotate(-103.627 10.59 .95) scale(.83606 1.83421)" gradientUnits="userSpaceOnUse"><stop offset=".657" stop-color="#C64F38"/><stop offset="1" stop-color="#BB4F29"/></radialGradient><radialGradient id="paint44_radial_4002_23" cx="0" cy="0" r="1" gradientTransform="rotate(152.815 10.952 5.477) scale(5.16422 4.07334)" gradientUnits="userSpaceOnUse"><stop stop-color="#E98728"/><stop offset=".901" stop-color="#FFD530"/></radialGradient><radialGradient id="paint45_radial_4002_23" cx="0" cy="0" r="1" gradientTransform="matrix(.03906 .32813 -.31029 .03694 23.134 5.156)" gradientUnits="userSpaceOnUse"><stop stop-color="#FFD437"/><stop offset="1" stop-color="#FFBE22" stop-opacity="0"/></radialGradient><radialGradient id="paint46_radial_4002_23" cx="0" cy="0" r="1" gradientTransform="matrix(4.17626 .56873 -.43132 3.16722 19.343 5.883)" gradientUnits="userSpaceOnUse"><stop offset=".949" stop-color="#FCB831" stop-opacity="0"/><stop offset="1" stop-color="#FCB831"/></radialGradient><radialGradient id="paint47_radial_4002_23" cx="0" cy="0" r="1" gradientTransform="rotate(165.562 10.232 5.23) scale(2.61605 1.13614)" gradientUnits="userSpaceOnUse"><stop stop-color="#DA7126"/><stop offset="1" stop-color="#F09F2B" stop-opacity="0"/></radialGradient><radialGradient id="paint48_radial_4002_23" cx="0" cy="0" r="1" gradientTransform="matrix(1.23439 1.92187 -3.1166 2.00174 20.696 5.984)" gradientUnits="userSpaceOnUse"><stop offset=".893" stop-color="#C36841" stop-opacity="0"/><stop offset="1" stop-color="#C36841"/></radialGradient><radialGradient id="paint53_radial_4002_23" cx="0" cy="0" r="1" gradientTransform="rotate(141.18 10.65 7.923) scale(.43619)" gradientUnits="userSpaceOnUse"><stop offset=".168" stop-color="#EBDBE4"/><stop offset="1" stop-color="#C7B1B5"/></radialGradient><radialGradient id="paint54_radial_4002_23" cx="0" cy="0" r="1" gradientTransform="matrix(.19922 -.48438 1.17186 .48198 23.594 7.862)" gradientUnits="userSpaceOnUse"><stop offset=".147" stop-color="#996E9F"/><stop offset="1" stop-color="#C8B3B7" stop-opacity="0"/></radialGradient><radialGradient id="paint55_radial_4002_23" cx="0" cy="0" r="1" gradientTransform="matrix(.4375 .04684 -.05916 .55254 23.369 7.424)" gradientUnits="userSpaceOnUse"><stop offset=".181" stop-color="#A4888C"/><stop offset="1" stop-color="#A4888C" stop-opacity="0"/></radialGradient><radialGradient id="paint56_radial_4002_23" cx="0" cy="0" r="1" gradientTransform="matrix(2.20247 -1.61719 2.56784 3.49718 21.396 10.611)" gradientUnits="userSpaceOnUse"><stop offset=".205" stop-color="#FF7046"/><stop offset="1" stop-color="#FF2D78"/></radialGradient><radialGradient id="paint58_radial_4002_23" cx="0" cy="0" r="1" gradientTransform="matrix(2.53124 -1.40627 1.98705 3.57664 24.543 8.788)" gradientUnits="userSpaceOnUse"><stop offset=".205" stop-color="#FF7046"/><stop offset="1" stop-color="#FF2D78"/></radialGradient><filter id="filter0_f_4002_23" width="2.992" height="2.992" x="8.366" y="12.17" color-interpolation-filters="sRGB" filterUnits="userSpaceOnUse"><feFlood flood-opacity="0" result="BackgroundImageFix"/><feBlend in="SourceGraphic" in2="BackgroundImageFix" result="shape"/><feGaussianBlur result="effect1_foregroundBlur_4002_23" stdDeviation=".25"/></filter><filter id="filter1_i_4002_23" width="3.592" height="3.592" x="17.713" y="11.745" color-interpolation-filters="sRGB" filterUnits="userSpaceOnUse"><feFlood flood-opacity="0" result="BackgroundImageFix"/><feBlend in="SourceGraphic" in2="BackgroundImageFix" result="shape"/><feColorMatrix in="SourceAlpha" result="hardAlpha" values="0 0 0 0 0 0 0 0 0 0 0 0 0 0 0 0 0 0 127 0"/><feOffset dx=".25" dy="-.25"/><feGaussianBlur stdDeviation=".25"/><feComposite in2="hardAlpha" k2="-1" k3="1" operator="arithmetic"/><feColorMatrix values="0 0 0 0 0.85098 0 0 0 0 0.560784 0 0 0 0 0.376471 0 0 0 1 0"/><feBlend in2="shape" result="effect1_innerShadow_4002_23"/></filter><filter id="filter2_f_4002_23" width="2.992" height="2.992" x="17.888" y="12.17" color-interpolation-filters="sRGB" filterUnits="userSpaceOnUse"><feFlood flood-opacity="0" result="BackgroundImageFix"/><feBlend in="SourceGraphic" in2="BackgroundImageFix" result="shape"/><feGaussianBlur result="effect1_foregroundBlur_4002_23" stdDeviation=".25"/></filter><filter id="filter3_ii_4002_23" width="12.614" height="8.301" x="8.307" y="4.807" color-interpolation-filters="sRGB" filterUnits="userSpaceOnUse"><feFlood flood-opacity="0" result="BackgroundImageFix"/><feBlend in="SourceGraphic" in2="BackgroundImageFix" result="shape"/><feColorMatrix in="SourceAlpha" result="hardAlpha" values="0 0 0 0 0 0 0 0 0 0 0 0 0 0 0 0 0 0 127 0"/><feOffset dy="-.25"/><feGaussianBlur stdDeviation=".125"/><feComposite in2="hardAlpha" k2="-1" k3="1" operator="arithmetic"/><feColorMatrix values="0 0 0 0 0.984314 0 0 0 0 0.584314 0 0 0 0 0.129412 0 0 0 1 0"/><feBlend in2="shape" result="effect1_innerShadow_4002_23"/><feColorMatrix in="SourceAlpha" result="hardAlpha" values="0 0 0 0 0 0 0 0 0 0 0 0 0 0 0 0 0 0 127 0"/><feOffset dy="-.25"/><feGaussianBlur stdDeviation=".125"/><feComposite in2="hardAlpha" k2="-1" k3="1" operator="arithmetic"/><feColorMatrix values="0 0 0 0 0.972549 0 0 0 0 0.572549 0 0 0 0 0.0156863 0 0 0 1 0"/><feBlend in2="effect1_innerShadow_4002_23" result="effect2_innerShadow_4002_23"/></filter><filter id="filter4_f_4002_23" width="3.262" height="4.184" x="12.744" y="12.511" color-interpolation-filters="sRGB" filterUnits="userSpaceOnUse"><feFlood flood-opacity="0" result="BackgroundImageFix"/><feBlend in="SourceGraphic" in2="BackgroundImageFix" result="shape"/><feGaussianBlur result="effect1_foregroundBlur_4002_23" stdDeviation=".375"/></filter><filter id="filter5_f_4002_23" width="2.079" height="2.884" x="13.575" y="12.998" color-interpolation-filters="sRGB" filterUnits="userSpaceOnUse"><feFlood flood-opacity="0" result="BackgroundImageFix"/><feBlend in="SourceGraphic" in2="BackgroundImageFix" result="shape"/><feGaussianBlur result="effect1_foregroundBlur_4002_23" stdDeviation=".05"/></filter><filter id="filter6_f_4002_23" width="3.621" height="1.474" x="12.804" y="16.253" color-interpolation-filters="sRGB" filterUnits="userSpaceOnUse"><feFlood flood-opacity="0" result="BackgroundImageFix"/><feBlend in="SourceGraphic" in2="BackgroundImageFix" result="shape"/><feGaussianBlur result="effect1_foregroundBlur_4002_23" stdDeviation=".05"/></filter><filter id="filter7_f_4002_23" width=".787" height=".697" x="16.06" y="12.543" color-interpolation-filters="sRGB" filterUnits="userSpaceOnUse"><feFlood flood-opacity="0" result="BackgroundImageFix"/><feBlend in="SourceGraphic" in2="BackgroundImageFix" result="shape"/><feGaussianBlur result="effect1_foregroundBlur_4002_23" stdDeviation=".05"/></filter><filter id="filter8_f_4002_23" width=".892" height=".914" x="16.901" y="12.619" color-interpolation-filters="sRGB" filterUnits="userSpaceOnUse"><feFlood flood-opacity="0" result="BackgroundImageFix"/><feBlend in="SourceGraphic" in2="BackgroundImageFix" result="shape"/><feGaussianBlur result="effect1_foregroundBlur_4002_23" stdDeviation=".1"/></filter><filter id="filter9_f_4002_23" width=".987" height="1.041" x="12.455" y="12.555" color-interpolation-filters="sRGB" filterUnits="userSpaceOnUse"><feFlood flood-opacity="0" result="BackgroundImageFix"/><feBlend in="SourceGraphic" in2="BackgroundImageFix" result="shape"/><feGaussianBlur result="effect1_foregroundBlur_4002_23" stdDeviation=".1"/></filter><filter id="filter10_f_4002_23" width=".914" height=".705" x="11.7" y="12.535" color-interpolation-filters="sRGB" filterUnits="userSpaceOnUse"><feFlood flood-opacity="0" result="BackgroundImageFix"/><feBlend in="SourceGraphic" in2="BackgroundImageFix" result="shape"/><feGaussianBlur result="effect1_foregroundBlur_4002_23" stdDeviation=".05"/></filter><filter id="filter11_i_4002_23" width="2.604" height="1.648" x="15.879" y="10.253" color-interpolation-filters="sRGB" filterUnits="userSpaceOnUse"><feFlood flood-opacity="0" result="BackgroundImageFix"/><feBlend in="SourceGraphic" in2="BackgroundImageFix" result="shape"/><feColorMatrix in="SourceAlpha" result="hardAlpha" values="0 0 0 0 0 0 0 0 0 0 0 0 0 0 0 0 0 0 127 0"/><feOffset dy="-.25"/><feGaussianBlur stdDeviation=".2"/><feComposite in2="hardAlpha" k2="-1" k3="1" operator="arithmetic"/><feColorMatrix values="0 0 0 0 0.698039 0 0 0 0 0.25098 0 0 0 0 0.313726 0 0 0 1 0"/><feBlend in2="shape" result="effect1_innerShadow_4002_23"/></filter><filter id="filter12_f_4002_23" width="2.709" height="1.502" x="15.826" y="10.339" color-interpolation-filters="sRGB" filterUnits="userSpaceOnUse"><feFlood flood-opacity="0" result="BackgroundImageFix"/><feBlend in="SourceGraphic" in2="BackgroundImageFix" result="shape"/><feGaussianBlur result="effect1_foregroundBlur_4002_23" stdDeviation=".2"/></filter><filter id="filter13_i_4002_23" width="2.604" height="1.648" x="10.745" y="10.253" color-interpolation-filters="sRGB" filterUnits="userSpaceOnUse"><feFlood flood-opacity="0" result="BackgroundImageFix"/><feBlend in="SourceGraphic" in2="BackgroundImageFix" result="shape"/><feColorMatrix in="SourceAlpha" result="hardAlpha" values="0 0 0 0 0 0 0 0 0 0 0 0 0 0 0 0 0 0 127 0"/><feOffset dy="-.25"/><feGaussianBlur stdDeviation=".2"/><feComposite in2="hardAlpha" k2="-1" k3="1" operator="arithmetic"/><feColorMatrix values="0 0 0 0 0.698039 0 0 0 0 0.25098 0 0 0 0 0.313726 0 0 0 1 0"/><feBlend in2="shape" result="effect1_innerShadow_4002_23"/></filter><filter id="filter14_f_4002_23" width="2.709" height="1.502" x="10.693" y="10.339" color-interpolation-filters="sRGB" filterUnits="userSpaceOnUse"><feFlood flood-opacity="0" result="BackgroundImageFix"/><feBlend in="SourceGraphic" in2="BackgroundImageFix" result="shape"/><feGaussianBlur result="effect1_foregroundBlur_4002_23" stdDeviation=".2"/></filter><filter id="filter15_i_4002_23" width=".726" height=".726" x="23.426" y="7.102" color-interpolation-filters="sRGB" filterUnits="userSpaceOnUse"><feFlood flood-opacity="0" result="BackgroundImageFix"/><feBlend in="SourceGraphic" in2="BackgroundImageFix" result="shape"/><feColorMatrix in="SourceAlpha" result="hardAlpha" values="0 0 0 0 0 0 0 0 0 0 0 0 0 0 0 0 0 0 127 0"/><feOffset dx=".1" dy="-.1"/><feGaussianBlur stdDeviation=".1"/><feComposite in2="hardAlpha" k2="-1" k3="1" operator="arithmetic"/><feColorMatrix values="0 0 0 0 0.52549 0 0 0 0 0.388235 0 0 0 0 0.501961 0 0 0 1 0"/><feBlend in2="shape" result="effect1_innerShadow_4002_23"/></filter><filter id="filter16_ii_4002_23" width="3.834" height="4.387" x="20.968" y="7.903" color-interpolation-filters="sRGB" filterUnits="userSpaceOnUse"><feFlood flood-opacity="0" result="BackgroundImageFix"/><feBlend in="SourceGraphic" in2="BackgroundImageFix" result="shape"/><feColorMatrix in="SourceAlpha" result="hardAlpha" values="0 0 0 0 0 0 0 0 0 0 0 0 0 0 0 0 0 0 127 0"/><feOffset dx=".05" dy="-.05"/><feGaussianBlur stdDeviation=".1"/><feComposite in2="hardAlpha" k2="-1" k3="1" operator="arithmetic"/><feColorMatrix values="0 0 0 0 0.945098 0 0 0 0 0.45098 0 0 0 0 0.333333 0 0 0 1 0"/><feBlend in2="shape" result="effect1_innerShadow_4002_23"/><feColorMatrix in="SourceAlpha" result="hardAlpha" values="0 0 0 0 0 0 0 0 0 0 0 0 0 0 0 0 0 0 127 0"/><feOffset dx="-.1" dy=".1"/><feGaussianBlur stdDeviation=".1"/><feComposite in2="hardAlpha" k2="-1" k3="1" operator="arithmetic"/><feColorMatrix values="0 0 0 0 1 0 0 0 0 0.282353 0 0 0 0 0.435294 0 0 0 1 0"/><feBlend in2="effect1_innerShadow_4002_23" result="effect2_innerShadow_4002_23"/></filter><filter id="filter17_i_4002_23" width="4.283" height="3.734" x="24.166" y="6.426" color-interpolation-filters="sRGB" filterUnits="userSpaceOnUse"><feFlood flood-opacity="0" result="BackgroundImageFix"/><feBlend in="SourceGraphic" in2="BackgroundImageFix" result="shape"/><feColorMatrix in="SourceAlpha" result="hardAlpha" values="0 0 0 0 0 0 0 0 0 0 0 0 0 0 0 0 0 0 127 0"/><feOffset dx=".05" dy="-.05"/><feGaussianBlur stdDeviation=".05"/><feComposite in2="hardAlpha" k2="-1" k3="1" operator="arithmetic"/><feColorMatrix values="0 0 0 0 0.882353 0 0 0 0 0.203922 0 0 0 0 0.435294 0 0 0 1 0"/><feBlend in2="shape" result="effect1_innerShadow_4002_23"/></filter><filter id="filter18_f_4002_23" width="3.843" height="3.843" x="24.637" y="6.397" color-interpolation-filters="sRGB" filterUnits="userSpaceOnUse"><feFlood flood-opacity="0" result="BackgroundImageFix"/><feBlend in="SourceGraphic" in2="BackgroundImageFix" result="shape"/><feGaussianBlur result="effect1_foregroundBlur_4002_23" stdDeviation=".1"/></filter><filter id="filter19_f_4002_23" width="2.734" height="2.734" x="25.191" y="6.951" color-interpolation-filters="sRGB" filterUnits="userSpaceOnUse"><feFlood flood-opacity="0" result="BackgroundImageFix"/><feBlend in="SourceGraphic" in2="BackgroundImageFix" result="shape"/><feGaussianBlur result="effect1_foregroundBlur_4002_23" stdDeviation=".1"/></filter><filter id="filter20_f_4002_23" width="2.734" height="2.734" x="21.543" y="8.965" color-interpolation-filters="sRGB" filterUnits="userSpaceOnUse"><feFlood flood-opacity="0" result="BackgroundImageFix"/><feBlend in="SourceGraphic" in2="BackgroundImageFix" result="shape"/><feGaussianBlur result="effect1_foregroundBlur_4002_23" stdDeviation=".1"/></filter><filter id="filter21_f_4002_23" width="3.805" height="3.805" x="21.008" y="8.43" color-interpolation-filters="sRGB" filterUnits="userSpaceOnUse"><feFlood flood-opacity="0" result="BackgroundImageFix"/><feBlend in="SourceGraphic" in2="BackgroundImageFix" result="shape"/><feGaussianBlur result="effect1_foregroundBlur_4002_23" stdDeviation=".1"/></filter><linearGradient id="paint12_linear_4002_23" x1="9.862" x2="9.221" y1="13.945" y2="13.945" gradientUnits="userSpaceOnUse"><stop stop-color="#BD6A1E"/><stop offset="1" stop-color="#D77A1C"/></linearGradient><linearGradient id="paint13_linear_4002_23" x1="20.471" x2="19.652" y1="12.574" y2="15.112" gradientUnits="userSpaceOnUse"><stop stop-color="#FFE446"/><stop offset="1" stop-color="#FFC339"/></linearGradient><linearGradient id="paint17_linear_4002_23" x1="18.654" x2="11.01" y1="14.056" y2="15.195" gradientUnits="userSpaceOnUse"><stop stop-color="#FFE833"/><stop offset=".916" stop-color="#F9A528"/></linearGradient><linearGradient id="paint18_linear_4002_23" x1="9.213" x2="11.528" y1="16.755" y2="16.453" gradientUnits="userSpaceOnUse"><stop stop-color="#D19C3A"/><stop offset="1" stop-color="#D19C3A" stop-opacity="0"/></linearGradient><linearGradient id="paint23_linear_4002_23" x1="9.748" x2="12.653" y1="13.399" y2="8.239" gradientUnits="userSpaceOnUse"><stop stop-color="#E07027"/><stop offset="1" stop-color="#E07027" stop-opacity="0"/></linearGradient><linearGradient id="paint32_linear_4002_23" x1="13.749" x2="14.688" y1="14.716" y2="14.716" gradientUnits="userSpaceOnUse"><stop stop-color="#FAA416"/><stop offset="1" stop-color="#FAA416" stop-opacity="0"/></linearGradient><linearGradient id="paint33_linear_4002_23" x1="15.553" x2="14.527" y1="15.039" y2="15.024" gradientUnits="userSpaceOnUse"><stop stop-color="#FFE721"/><stop offset="1" stop-color="#FFE721" stop-opacity="0"/></linearGradient><linearGradient id="paint34_linear_4002_23" x1="14.809" x2="14.809" y1="15.782" y2="15.208" gradientUnits="userSpaceOnUse"><stop stop-color="#EB8A1C"/><stop offset="1" stop-color="#EB8A1C" stop-opacity="0"/></linearGradient><linearGradient id="paint38_linear_4002_23" x1="17.573" x2="17.259" y1="13.037" y2="13.231" gradientUnits="userSpaceOnUse"><stop stop-color="#B4948D"/><stop offset="1" stop-color="#B4948D" stop-opacity="0"/></linearGradient><linearGradient id="paint40_linear_4002_23" x1="13.172" x2="12.858" y1="13.037" y2="13.231" gradientUnits="userSpaceOnUse"><stop stop-color="#B4948D"/><stop offset="1" stop-color="#B4948D" stop-opacity="0"/></linearGradient><linearGradient id="paint49_linear_4002_23" x1="24.949" x2="23.758" y1="5.564" y2="5.219" gradientUnits="userSpaceOnUse"><stop stop-color="#9B8299"/><stop offset="1" stop-color="#D9B4C8"/></linearGradient><linearGradient id="paint50_linear_4002_23" x1="23.801" x2="23.875" y1="7.057" y2="6.768" gradientUnits="userSpaceOnUse"><stop offset=".16" stop-color="#A28B95"/><stop offset="1" stop-color="#C0A0B5" stop-opacity="0"/></linearGradient><linearGradient id="paint51_linear_4002_23" x1="22.887" x2="23.152" y1="7.913" y2="6.616" gradientUnits="userSpaceOnUse"><stop stop-color="#9B8299"/><stop offset="1" stop-color="#D9B4C8"/></linearGradient><linearGradient id="paint52_linear_4002_23" x1="24.298" x2="24.1" y1="7.994" y2="7.939" gradientUnits="userSpaceOnUse"><stop stop-color="#93768E"/><stop offset="1" stop-color="#A2889F" stop-opacity="0"/></linearGradient><linearGradient id="paint57_linear_4002_23" x1="23.637" x2="23.578" y1="8.084" y2="8.311" gradientUnits="userSpaceOnUse"><stop offset=".209" stop-color="#B71143"/><stop offset="1" stop-color="#FF3178" stop-opacity="0"/></linearGradient><linearGradient id="paint59_linear_4002_23" x1="24.887" x2="28.077" y1="8.687" y2="7.214" gradientUnits="userSpaceOnUse"><stop offset=".616" stop-color="#FF4F4F"/><stop offset=".9" stop-color="#FF6792"/></linearGradient><linearGradient id="paint60_linear_4002_23" x1="25.441" x2="27.573" y1="8.565" y2="7.58" gradientUnits="userSpaceOnUse"><stop offset=".247" stop-color="#FF7E7A"/><stop offset=".669" stop-color="#FF7E7A" stop-opacity="0"/></linearGradient><linearGradient id="paint61_linear_4002_23" x1="21.793" x2="23.925" y1="10.578" y2="9.594" gradientUnits="userSpaceOnUse"><stop offset=".247" stop-color="#FF9266"/><stop offset=".669" stop-color="#FF9266" stop-opacity="0"/></linearGradient><linearGradient id="paint62_linear_4002_23" x1="24.563" x2="22.91" y1="9.791" y2="10.332" gradientUnits="userSpaceOnUse"><stop stop-color="#FF5C88"/><stop offset="1" stop-color="#FF5185" stop-opacity="0"/></linearGradient></defs></svg>