<svg xmlns="http://www.w3.org/2000/svg" width="32" height="32" fill="none" viewBox="0 0 32 32"><path fill="url(#paint0_linear_4002_2541)" d="M21.6 18.47H10.39c-3.23 1.92-5.4 5.44-5.4 9.47v2.05h22.02v-2.05c0-4.03-2.17-7.55-5.41-9.47Z"/><path fill="url(#paint1_linear_4002_2541)" d="M21.6 18.47H10.39c-3.23 1.92-5.4 5.44-5.4 9.47v2.05h22.02v-2.05c0-4.03-2.17-7.55-5.41-9.47Z"/><path fill="url(#paint2_radial_4002_2541)" d="M21.6 18.47H10.39c-3.23 1.92-5.4 5.44-5.4 9.47v2.05h22.02v-2.05c0-4.03-2.17-7.55-5.41-9.47Z"/><path fill="url(#paint3_radial_4002_2541)" d="M21.6 18.47H10.39c-3.23 1.92-5.4 5.44-5.4 9.47v2.05h22.02v-2.05c0-4.03-2.17-7.55-5.41-9.47Z"/><path fill="url(#paint4_linear_4002_2541)" d="M21.6 18.47H10.39c-3.23 1.92-5.4 5.44-5.4 9.47v2.05h22.02v-2.05c0-4.03-2.17-7.55-5.41-9.47Z"/><path fill="#EBDEF9" d="M23 19.45v10.54h4v-2.37c-.09-3.29-1.63-6.21-4-8.17Z"/><path fill="url(#paint5_radial_4002_2541)" d="M23 19.45v10.54h4v-2.37c-.09-3.29-1.63-6.21-4-8.17Z"/><path fill="url(#paint6_linear_4002_2541)" d="M23 19.45v10.54h4v-2.37c-.09-3.29-1.63-6.21-4-8.17Z"/><path fill="url(#paint7_linear_4002_2541)" d="M23 19.45v10.54h4v-2.37c-.09-3.29-1.63-6.21-4-8.17Z"/><path fill="url(#paint8_radial_4002_2541)" d="M23 19.45v10.54h4v-2.37c-.09-3.29-1.63-6.21-4-8.17Z"/><path fill="#D9CDE8" d="m9.003 29.99.017-.01V19.43a10.982 10.982 0 0 0-4.03 8.509v2.05h4.013Z"/><path fill="url(#paint9_radial_4002_2541)" d="m9.003 29.99.017-.01V19.43a10.982 10.982 0 0 0-4.03 8.509v2.05h4.013Z"/><path fill="url(#paint10_linear_4002_2541)" d="m9.003 29.99.017-.01V19.43a10.982 10.982 0 0 0-4.03 8.509v2.05h4.013Z"/><path fill="url(#paint11_radial_4002_2541)" d="m9.003 29.99.017-.01V19.43a10.982 10.982 0 0 0-4.03 8.509v2.05h4.013Z"/><g filter="url(#filter0_ii_4002_2541)"><path fill="url(#paint12_linear_4002_2541)" d="M19.68 25.98h-7.37c-.45 0-.82.37-.82.82V30h9.01v-3.2c0-.46-.36-.82-.82-.82Z"/></g><g filter="url(#filter1_f_4002_2541)"><path fill="#D6BCDB" d="M13.815 25.235a1.06 1.06 0 1 0 0-2.12 1.06 1.06 0 0 0 0 2.12Z"/></g><g filter="url(#filter2_f_4002_2541)"><path fill="#D1B8D6" d="M17.885 25.235a1.06 1.06 0 1 0 0-2.12 1.06 1.06 0 0 0 0 2.12Z"/></g><g filter="url(#filter3_i_4002_2541)"><path fill="url(#paint13_radial_4002_2541)" d="M14 25.05a1.06 1.06 0 1 0 0-2.12 1.06 1.06 0 0 0 0 2.12Z"/></g><g filter="url(#filter4_i_4002_2541)"><path fill="url(#paint14_linear_4002_2541)" d="M18 25.05a1.06 1.06 0 1 0 0-2.12 1.06 1.06 0 0 0 0 2.12Z"/></g><g filter="url(#filter5_f_4002_2541)"><path stroke="url(#paint15_linear_4002_2541)" stroke-width=".1" d="M18 24.865a.875.875 0 1 0 0-1.75.875.875 0 0 0 0 1.75Z"/></g><g filter="url(#filter6_f_4002_2541)"><path stroke="url(#paint16_linear_4002_2541)" stroke-width=".1" d="M14 24.865a.875.875 0 1 0 0-1.75.875.875 0 0 0 0 1.75Z"/></g><path fill="url(#paint17_radial_4002_2541)" d="M7.36 28.66v-1.62c0-.19-.15-.34-.34-.34H5.06c-.03.26-.05.53-.06.8l.01 1.5h2.02c.18 0 .33-.15.33-.34Z"/><g filter="url(#filter7_i_4002_2541)"><path fill="url(#paint18_linear_4002_2541)" d="M23.18 18.396c0 1.463-2.782 3.516-7.18 3.516-4.469-.047-7.18-2.053-7.18-3.516s3.215-2.648 7.18-2.648 7.18 1.185 7.18 2.648Z"/><path fill="url(#paint19_radial_4002_2541)" d="M23.18 18.396c0 1.463-2.782 3.516-7.18 3.516-4.469-.047-7.18-2.053-7.18-3.516s3.215-2.648 7.18-2.648 7.18 1.185 7.18 2.648Z"/><path fill="url(#paint20_radial_4002_2541)" d="M23.18 18.396c0 1.463-2.782 3.516-7.18 3.516-4.469-.047-7.18-2.053-7.18-3.516s3.215-2.648 7.18-2.648 7.18 1.185 7.18 2.648Z"/></g><path fill="url(#paint21_radial_4002_2541)" d="M23.18 18.396c0 1.463-2.782 3.516-7.18 3.516-4.469-.047-7.18-2.053-7.18-3.516s3.215-2.648 7.18-2.648 7.18 1.185 7.18 2.648Z"/><path fill="url(#paint22_radial_4002_2541)" d="M23.18 18.396c0 1.463-2.782 3.516-7.18 3.516-4.469-.047-7.18-2.053-7.18-3.516s3.215-2.648 7.18-2.648 7.18 1.185 7.18 2.648Z"/><rect width="4.406" height="4.984" x="6.093" y="8.927" fill="url(#paint23_linear_4002_2541)" rx=".75"/><rect width="4.406" height="4.984" x="6.093" y="8.927" fill="url(#paint24_linear_4002_2541)" rx=".75"/><rect width="4.406" height="4.984" x="6.093" y="8.927" fill="url(#paint25_radial_4002_2541)" rx=".75"/><rect width="4.406" height="4.984" x="21.499" y="8.927" fill="url(#paint26_linear_4002_2541)" rx=".75"/><rect width="4.406" height="4.984" x="21.499" y="8.927" fill="url(#paint27_radial_4002_2541)" rx=".75"/><rect width="4.406" height="4.984" x="21.499" y="8.927" fill="url(#paint28_radial_4002_2541)" rx=".75"/><path fill="url(#paint29_linear_4002_2541)" d="M15.947 2c-4.98 0-9.01 4.03-9.01 9.01 0 4.98 4.03 9.01 9.01 9.01 4.98 0 9.01-4.03 9.01-9.01 0-4.98-4.04-9.01-9.01-9.01Z"/><path fill="url(#paint30_radial_4002_2541)" d="M15.947 2c-4.98 0-9.01 4.03-9.01 9.01 0 4.98 4.03 9.01 9.01 9.01 4.98 0 9.01-4.03 9.01-9.01 0-4.98-4.04-9.01-9.01-9.01Z"/><path fill="url(#paint31_radial_4002_2541)" d="M15.947 2c-4.98 0-9.01 4.03-9.01 9.01 0 4.98 4.03 9.01 9.01 9.01 4.98 0 9.01-4.03 9.01-9.01 0-4.98-4.04-9.01-9.01-9.01Z"/><g filter="url(#filter8_f_4002_2541)"><path fill="url(#paint32_linear_4002_2541)" d="M15.947 2.238a8.767 8.767 0 0 0-8.772 8.772 8.767 8.767 0 0 0 8.772 8.772 8.767 8.767 0 0 0 8.772-8.772c0-4.848-3.934-8.772-8.772-8.772Z"/></g><g filter="url(#filter9_f_4002_2541)"><path fill="url(#paint33_radial_4002_2541)" d="M15.947 3.232A7.773 7.773 0 0 0 8.17 11.01a7.773 7.773 0 0 0 7.778 7.778 7.779 7.779 0 0 0 0-15.555Z"/></g><path fill="url(#paint34_linear_4002_2541)" d="M16 18.526a7.516 7.516 0 1 0 0-15.031 7.516 7.516 0 0 0 0 15.03Z"/><path fill="url(#paint35_radial_4002_2541)" d="M16 18.526a7.516 7.516 0 1 0 0-15.031 7.516 7.516 0 0 0 0 15.03Z"/><g filter="url(#filter10_f_4002_2541)"><path fill="#1F1428" d="M10.843 14.054c.292 2.117 2.175 3.694 4.404 3.694h2.138c2.23 0 4.112-1.577 4.404-3.694.133-2.043.268-4.078.367-6.12-.012-.831-.697-1.518-1.563-1.552h-1.587c-1.082 0-2.061-.611-2.506-1.565a.753.753 0 0 0-.697-.454H14.36c-2.092 0-3.787 1.64-3.787 3.665 0 2.018.132 4.003.27 6.026Z"/></g><g filter="url(#filter11_i_4002_2541)"><path fill="url(#paint36_radial_4002_2541)" d="M10.75 9.547h.013l-.01-.266-.01-2.147c.074-3.48 10.071-3.36 10.19.047l-.119 4.914c-.123 2.802-2.311 4.684-4.983 4.684-2.671 0-4.86-1.882-4.983-4.684l-.098-2.548Z"/><path fill="url(#paint37_radial_4002_2541)" d="M10.75 9.547h.013l-.01-.266-.01-2.147c.074-3.48 10.071-3.36 10.19.047l-.119 4.914c-.123 2.802-2.311 4.684-4.983 4.684-2.671 0-4.86-1.882-4.983-4.684l-.098-2.548Z"/><path fill="url(#paint38_radial_4002_2541)" d="M10.75 9.547h.013l-.01-.266-.01-2.147c.074-3.48 10.071-3.36 10.19.047l-.119 4.914c-.123 2.802-2.311 4.684-4.983 4.684-2.671 0-4.86-1.882-4.983-4.684l-.098-2.548Z"/><path fill="url(#paint39_radial_4002_2541)" d="M10.75 9.547h.013l-.01-.266-.01-2.147c.074-3.48 10.071-3.36 10.19.047l-.119 4.914c-.123 2.802-2.311 4.684-4.983 4.684-2.671 0-4.86-1.882-4.983-4.684l-.098-2.548Z"/><path fill="url(#paint40_radial_4002_2541)" d="M10.75 9.547h.013l-.01-.266-.01-2.147c.074-3.48 10.071-3.36 10.19.047l-.119 4.914c-.123 2.802-2.311 4.684-4.983 4.684-2.671 0-4.86-1.882-4.983-4.684l-.098-2.548Z"/><path fill="url(#paint41_radial_4002_2541)" d="M10.75 9.547h.013l-.01-.266-.01-2.147c.074-3.48 10.071-3.36 10.19.047l-.119 4.914c-.123 2.802-2.311 4.684-4.983 4.684-2.671 0-4.86-1.882-4.983-4.684l-.098-2.548Z"/><path fill="url(#paint42_radial_4002_2541)" d="M10.75 9.547h.013l-.01-.266-.01-2.147c.074-3.48 10.071-3.36 10.19.047l-.119 4.914c-.123 2.802-2.311 4.684-4.983 4.684-2.671 0-4.86-1.882-4.983-4.684l-.098-2.548Z"/><path fill="url(#paint43_radial_4002_2541)" d="M10.75 9.547h.013l-.01-.266-.01-2.147c.074-3.48 10.071-3.36 10.19.047l-.119 4.914c-.123 2.802-2.311 4.684-4.983 4.684-2.671 0-4.86-1.882-4.983-4.684l-.098-2.548Z"/></g><path fill="url(#paint44_radial_4002_2541)" d="M10.75 9.547h.013l-.01-.266-.01-2.147c.074-3.48 10.071-3.36 10.19.047l-.119 4.914c-.123 2.802-2.311 4.684-4.983 4.684-2.671 0-4.86-1.882-4.983-4.684l-.098-2.548Z"/><path fill="url(#paint45_radial_4002_2541)" d="M10.75 9.547h.013l-.01-.266-.01-2.147c.074-3.48 10.071-3.36 10.19.047l-.119 4.914c-.123 2.802-2.311 4.684-4.983 4.684-2.671 0-4.86-1.882-4.983-4.684l-.098-2.548Z"/><g filter="url(#filter12_f_4002_2541)"><path fill="#CA907F" d="m15.607 10.566-.683 1.7a.54.54 0 0 0 .52.7h.787a.541.541 0 0 0 .52-.7l-.531-1.7c-.114-.377-.493-.377-.613 0Z"/></g><g filter="url(#filter13_if_4002_2541)"><path fill="url(#paint46_linear_4002_2541)" d="m15.737 10.428-.65 1.7a.54.54 0 0 0 .52.699h.786a.54.54 0 0 0 .52-.7l-.53-1.7c-.115-.376-.527-.376-.646 0Z"/><path fill="url(#paint47_radial_4002_2541)" d="m15.737 10.428-.65 1.7a.54.54 0 0 0 .52.699h.786a.54.54 0 0 0 .52-.7l-.53-1.7c-.115-.376-.527-.376-.646 0Z"/><path fill="url(#paint48_radial_4002_2541)" d="m15.737 10.428-.65 1.7a.54.54 0 0 0 .52.699h.786a.54.54 0 0 0 .52-.7l-.53-1.7c-.115-.376-.527-.376-.646 0Z"/><path fill="url(#paint49_linear_4002_2541)" d="m15.737 10.428-.65 1.7a.54.54 0 0 0 .52.699h.786a.54.54 0 0 0 .52-.7l-.53-1.7c-.115-.376-.527-.376-.646 0Z"/></g><g filter="url(#filter14_f_4002_2541)"><path fill="url(#paint50_linear_4002_2541)" d="m15.737 10.428-.65 1.7a.54.54 0 0 0 .52.699h.786a.54.54 0 0 0 .52-.7l-.53-1.7c-.115-.376-.527-.376-.646 0Z"/></g><g filter="url(#filter15_f_4002_2541)"><path stroke="url(#paint51_linear_4002_2541)" stroke-width=".2" d="M16 13.7c-.52 0-1.01-.125-1.422-.345-.14-.073-.291.09-.203.22a1.932 1.932 0 0 0 3.25 0c.088-.136-.063-.293-.203-.22-.412.22-.896.345-1.422.345Z"/></g><path fill="#87004D" d="M16 13.7c-.52 0-1.01-.125-1.422-.345-.14-.073-.291.09-.203.22a1.932 1.932 0 0 0 3.25 0c.088-.136-.063-.293-.203-.22-.412.22-.896.345-1.422.345Z"/><g filter="url(#filter16_i_4002_2541)"><path fill="#222023" d="M17.142 10.054c.265-.467.669-.835 1.537-.835.38 0 .747.105 1.073.368.27.218.233.496.025.6l-.556.317c-.652-.21-1.373-.239-2.079-.45Z"/></g><g filter="url(#filter17_i_4002_2541)"><path fill="#222023" d="M14.858 10.054c-.265-.467-.669-.835-1.537-.835-.38 0-.747.105-1.073.368-.269.218-.233.496-.025.6l.556.317c.652-.21 1.373-.239 2.079-.45Z"/></g><g filter="url(#filter18_i_4002_2541)"><path fill="#76452F" d="m12.575 8.72-.004.002a.268.268 0 0 1-.276-.46h.002l.003-.003.01-.005a1.775 1.775 0 0 1 .148-.077c.098-.047.239-.107.41-.162.34-.108.815-.2 1.328-.109a.268.268 0 0 1-.093.529 2.27 2.27 0 0 0-1.072.091 2.746 2.746 0 0 0-.456.194Z"/></g><g filter="url(#filter19_i_4002_2541)"><path fill="#76452F" fill-rule="evenodd" d="m19.705 8.262-.138.23.138-.23a.268.268 0 0 1-.276.46l-.005-.002a1.197 1.197 0 0 0-.113-.059 2.744 2.744 0 0 0-.342-.135 2.27 2.27 0 0 0-1.072-.091.268.268 0 1 1-.093-.529c.513-.09.988.001 1.328.11a3.279 3.279 0 0 1 .559.238l.009.005.003.002h.001v.001Z" clip-rule="evenodd"/></g><path fill="#fff" d="M18.391 9.277c.653 0 1.205.45 1.355 1.06a.274.274 0 0 1-.268.34h-2.23a.23.23 0 0 1-.228-.272 1.398 1.398 0 0 1 1.371-1.128Z"/><path fill="url(#paint52_radial_4002_2541)" d="M18.184 9.55a.892.892 0 0 1 .86 1.127H17.32a.896.896 0 0 1 .864-1.128Z"/><path fill="#000" d="M17.673 10.441c0-.283.227-.51.511-.51a.509.509 0 0 1 .454.746h-.904a.462.462 0 0 1-.061-.236Z"/><g filter="url(#filter20_f_4002_2541)"><path fill="#C7A7A3" d="M18.118 9.738c.063.085-.07.189-.22.301-.151.113-.263.193-.327.108-.063-.085.007-.246.159-.358.15-.113.324-.136.388-.051Z"/><path fill="url(#paint53_radial_4002_2541)" d="M18.118 9.738c.063.085-.07.189-.22.301-.151.113-.263.193-.327.108-.063-.085.007-.246.159-.358.15-.113.324-.136.388-.051Z"/></g><g filter="url(#filter21_f_4002_2541)"><path fill="url(#paint54_linear_4002_2541)" d="M18.979 10.324a.84.84 0 0 0-.232-.463l-.26.285.118.228.374-.05Z"/></g><path fill="#fff" d="M13.609 9.277c-.653 0-1.205.45-1.355 1.06-.045.174.09.34.268.34h2.23a.23.23 0 0 0 .228-.272 1.401 1.401 0 0 0-1.371-1.128Z"/><path fill="url(#paint55_radial_4002_2541)" d="M13.816 9.55a.893.893 0 0 0-.86 1.127h1.724a.918.918 0 0 0 .032-.236.899.899 0 0 0-.896-.892Z"/><path fill="#000" d="M14.327 10.442a.51.51 0 0 0-.511-.512.509.509 0 0 0-.455.747h.905a.507.507 0 0 0 .061-.235Z"/><g filter="url(#filter22_f_4002_2541)"><path fill="url(#paint56_linear_4002_2541)" d="M14.63 10.336c0-.288-.234-.48-.297-.538l-.288.279.177.36.409-.1Z"/></g><g filter="url(#filter23_f_4002_2541)" transform="rotate(-27.914 13.546 9.93)"><ellipse cx="13.546" cy="9.931" fill="#C7A7A3" fill-opacity=".9" rx=".389" ry=".197"/><ellipse cx="13.546" cy="9.931" fill="url(#paint57_radial_4002_2541)" rx=".389" ry=".197"/></g><g filter="url(#filter24_ii_4002_2541)"><path fill="url(#paint58_radial_4002_2541)" d="M16 6.8a12 12 0 0 1 7.3 2.46c-.79-3.3-3.76-5.76-7.3-5.76S9.49 5.96 8.7 9.26A12 12 0 0 1 16 6.8Z"/><path fill="url(#paint59_radial_4002_2541)" d="M16 6.8a12 12 0 0 1 7.3 2.46c-.79-3.3-3.76-5.76-7.3-5.76S9.49 5.96 8.7 9.26A12 12 0 0 1 16 6.8Z"/><path fill="url(#paint60_radial_4002_2541)" d="M16 6.8a12 12 0 0 1 7.3 2.46c-.79-3.3-3.76-5.76-7.3-5.76S9.49 5.96 8.7 9.26A12 12 0 0 1 16 6.8Z"/><path fill="url(#paint61_linear_4002_2541)" d="M16 6.8a12 12 0 0 1 7.3 2.46c-.79-3.3-3.76-5.76-7.3-5.76S9.49 5.96 8.7 9.26A12 12 0 0 1 16 6.8Z"/></g><path fill="url(#paint62_radial_4002_2541)" d="M18.02 15.66h2.97c.28 0 .5-.22.5-.5s-.22-.5-.5-.5h-2.97c-.28 0-.5.22-.5.5s.23.5.5.5Z"/><path fill="url(#paint63_linear_4002_2541)" d="M18.02 15.66h2.97c.28 0 .5-.22.5-.5s-.22-.5-.5-.5h-2.97c-.28 0-.5.22-.5.5s.23.5.5.5Z"/><path fill="url(#paint64_linear_4002_2541)" d="M18.02 15.66h2.97c.28 0 .5-.22.5-.5s-.22-.5-.5-.5h-2.97c-.28 0-.5.22-.5.5s.23.5.5.5Z"/><g filter="url(#filter25_f_4002_2541)"><rect width="2.844" height=".281" x="18.047" y="14.943" fill="url(#paint65_linear_4002_2541)" rx=".141"/></g><g filter="url(#filter26_i_4002_2541)"><path fill="#B9B2BF" d="M23.016 13.71h-.956c-.4-.01-.78.19-1 .53a6.041 6.041 0 0 1-3.92 2.67c-.44.08-.76.46-.76.91v.696a7.52 7.52 0 0 0 6.636-4.806Z"/></g><defs><radialGradient id="paint2_radial_4002_2541" cx="0" cy="0" r="1" gradientTransform="matrix(0 5.67857 -3.21429 0 22.929 24.694)" gradientUnits="userSpaceOnUse"><stop stop-color="#F7EFFF"/><stop offset="1" stop-color="#F7EFFF" stop-opacity="0"/></radialGradient><radialGradient id="paint3_radial_4002_2541" cx="0" cy="0" r="1" gradientTransform="matrix(-7.90626 2.7154 -1.39838 -4.07159 16.688 18.47)" gradientUnits="userSpaceOnUse"><stop offset=".655" stop-color="#B096CB"/><stop offset="1" stop-color="#C2B2D7" stop-opacity="0"/></radialGradient><radialGradient id="paint5_radial_4002_2541" cx="0" cy="0" r="1" gradientTransform="matrix(4.375 0 0 11.8756 21.844 29.467)" gradientUnits="userSpaceOnUse"><stop offset=".336" stop-color="#F6EDFF" stop-opacity="0"/><stop offset="1" stop-color="#FDFAFF"/></radialGradient><radialGradient id="paint8_radial_4002_2541" cx="0" cy="0" r="1" gradientTransform="matrix(0 8.53821 -7.17442 0 25 21.806)" gradientUnits="userSpaceOnUse"><stop offset=".798" stop-color="#DED6EB" stop-opacity="0"/><stop offset="1" stop-color="#D8C5EC"/></radialGradient><radialGradient id="paint9_radial_4002_2541" cx="0" cy="0" r="1" gradientTransform="matrix(-4.26999 0 0 -10.4063 9.02 28.998)" gradientUnits="userSpaceOnUse"><stop offset=".502" stop-color="#C4C1C5" stop-opacity="0"/><stop offset="1" stop-color="#C4C1C5"/></radialGradient><radialGradient id="paint11_radial_4002_2541" cx="0" cy="0" r="1" gradientTransform="matrix(0 -1.15625 3.70797 0 7.625 30.342)" gradientUnits="userSpaceOnUse"><stop stop-color="#C9B5DE"/><stop offset="1" stop-color="#C9B5DE" stop-opacity="0"/></radialGradient><radialGradient id="paint13_radial_4002_2541" cx="0" cy="0" r="1" gradientTransform="rotate(53.881 -16.076 24.92) scale(2.14706)" gradientUnits="userSpaceOnUse"><stop offset=".403" stop-color="#3D8EE2"/><stop offset="1" stop-color="#3E7CD9"/></radialGradient><radialGradient id="paint17_radial_4002_2541" cx="0" cy="0" r="1" gradientTransform="matrix(-1.9375 0 0 -4.97705 7.188 27.85)" gradientUnits="userSpaceOnUse"><stop offset=".274" stop-color="#3776C0"/><stop offset="1" stop-color="#648CBC"/></radialGradient><radialGradient id="paint19_radial_4002_2541" cx="0" cy="0" r="1" gradientTransform="rotate(-169.849 7.12 8.488) scale(4.49245 1.66714)" gradientUnits="userSpaceOnUse"><stop offset=".5" stop-color="#A59EAC"/><stop offset="1" stop-color="#B3B2B5" stop-opacity="0"/></radialGradient><radialGradient id="paint20_radial_4002_2541" cx="0" cy="0" r="1" gradientTransform="matrix(-5.61229 2.22988 -.54256 -1.36555 22.928 18.83)" gradientUnits="userSpaceOnUse"><stop stop-color="#FFFEFF"/><stop offset="1" stop-color="#FFFEFF" stop-opacity="0"/></radialGradient><radialGradient id="paint21_radial_4002_2541" cx="0" cy="0" r="1" gradientTransform="matrix(0 4.09385 -11.9992 0 16 18.136)" gradientUnits="userSpaceOnUse"><stop offset=".613" stop-color="#C9A7EF" stop-opacity="0"/><stop offset=".943" stop-color="#C9A7EF"/></radialGradient><radialGradient id="paint22_radial_4002_2541" cx="0" cy="0" r="1" gradientTransform="matrix(0 1.01366 -3.3941 0 16 19.276)" gradientUnits="userSpaceOnUse"><stop stop-color="#D7D2DD"/><stop offset="1" stop-color="#D7D2DD" stop-opacity="0"/></radialGradient><radialGradient id="paint25_radial_4002_2541" cx="0" cy="0" r="1" gradientTransform="matrix(.61774 0 0 2.761 6.093 11.904)" gradientUnits="userSpaceOnUse"><stop stop-color="#ADA9B1"/><stop offset="1" stop-color="#ADA9B1" stop-opacity="0"/></radialGradient><radialGradient id="paint27_radial_4002_2541" cx="0" cy="0" r="1" gradientTransform="matrix(.98754 0 0 2.55399 24.583 10.638)" gradientUnits="userSpaceOnUse"><stop stop-color="#CDCAD1"/><stop offset="1" stop-color="#CDCAD1" stop-opacity="0"/></radialGradient><radialGradient id="paint28_radial_4002_2541" cx="0" cy="0" r="1" gradientTransform="matrix(0 2.9456 -.49377 0 25.622 10.247)" gradientUnits="userSpaceOnUse"><stop stop-color="#DCDADE"/><stop offset="1" stop-color="#DCDADE" stop-opacity="0"/></radialGradient><radialGradient id="paint30_radial_4002_2541" cx="0" cy="0" r="1" gradientTransform="rotate(72.208 .425 16.438) scale(9.27527 14.5186)" gradientUnits="userSpaceOnUse"><stop offset=".922" stop-color="#9F98A6" stop-opacity="0"/><stop offset="1" stop-color="#9F98A6"/></radialGradient><radialGradient id="paint31_radial_4002_2541" cx="0" cy="0" r="1" gradientTransform="matrix(-3.875 -3.5625 1.57331 -1.71133 11.844 19.092)" gradientUnits="userSpaceOnUse"><stop stop-color="#A29CA9"/><stop offset="1" stop-color="#A29CA9" stop-opacity="0"/></radialGradient><radialGradient id="paint33_radial_4002_2541" cx="0" cy="0" r="1" gradientTransform="rotate(123.891 7.389 7.971) scale(12.2137)" gradientUnits="userSpaceOnUse"><stop offset=".307" stop-color="#877F8D"/><stop offset="1" stop-color="#C8BEBF"/></radialGradient><radialGradient id="paint35_radial_4002_2541" cx="0" cy="0" r="1" gradientTransform="rotate(6.45 -87.936 138.738) scale(8.5401)" gradientUnits="userSpaceOnUse"><stop offset=".902" stop-color="#362B3D" stop-opacity="0"/><stop offset="1" stop-color="#362B3D"/></radialGradient><radialGradient id="paint36_radial_4002_2541" cx="0" cy="0" r="1" gradientTransform="matrix(0 5.29935 -6.33826 0 17.412 11.48)" gradientUnits="userSpaceOnUse"><stop offset=".454" stop-color="#E4B095"/><stop offset="1" stop-color="#B07F72"/></radialGradient><radialGradient id="paint37_radial_4002_2541" cx="0" cy="0" r="1" gradientTransform="rotate(109.923 2.666 12.455) scale(2.7512 3.08924)" gradientUnits="userSpaceOnUse"><stop stop-color="#CE988B"/><stop offset="1" stop-color="#C89485" stop-opacity="0"/></radialGradient><radialGradient id="paint38_radial_4002_2541" cx="0" cy="0" r="1" gradientTransform="matrix(8.0048 0 0 16.1723 13.536 11.198)" gradientUnits="userSpaceOnUse"><stop offset=".738" stop-color="#AC856D" stop-opacity="0"/><stop offset=".969" stop-color="#785642"/></radialGradient><radialGradient id="paint39_radial_4002_2541" cx="0" cy="0" r="1" gradientTransform="matrix(0 -9.82897 11.5761 0 15.838 16.386)" gradientUnits="userSpaceOnUse"><stop offset=".662" stop-color="#8D5A54" stop-opacity="0"/><stop offset="1" stop-color="#8D5A54"/></radialGradient><radialGradient id="paint40_radial_4002_2541" cx="0" cy="0" r="1" gradientTransform="matrix(0 -9.10572 7.69034 0 15.838 15.2)" gradientUnits="userSpaceOnUse"><stop offset=".862" stop-color="#86554F" stop-opacity="0"/><stop offset="1" stop-color="#683C31"/></radialGradient><radialGradient id="paint41_radial_4002_2541" cx="0" cy="0" r="1" gradientTransform="matrix(0 .96094 -1.45034 0 13.465 10.581)" gradientUnits="userSpaceOnUse"><stop offset=".223" stop-color="#C5957A"/><stop offset="1" stop-color="#C5957A" stop-opacity="0"/></radialGradient><radialGradient id="paint42_radial_4002_2541" cx="0" cy="0" r="1" gradientTransform="matrix(0 1.29688 -1.46127 0 18.2 10.355)" gradientUnits="userSpaceOnUse"><stop offset=".06" stop-color="#C5957A"/><stop offset="1" stop-color="#C5957A" stop-opacity="0"/></radialGradient><radialGradient id="paint43_radial_4002_2541" cx="0" cy="0" r="1" gradientTransform="matrix(1.82787 -.39867 .1693 .77622 19.105 14.84)" gradientUnits="userSpaceOnUse"><stop stop-color="#987258"/><stop offset="1" stop-color="#987258" stop-opacity="0"/></radialGradient><radialGradient id="paint44_radial_4002_2541" cx="0" cy="0" r="1" gradientTransform="matrix(0 8.47451 -6.29744 0 15.838 8.43)" gradientUnits="userSpaceOnUse"><stop offset=".87" stop-color="#8D5F52" stop-opacity="0"/><stop offset="1" stop-color="#5D3B2C"/></radialGradient><radialGradient id="paint45_radial_4002_2541" cx="0" cy="0" r="1" gradientTransform="matrix(-2.25 0 0 -1.00984 19.302 15.79)" gradientUnits="userSpaceOnUse"><stop offset=".153" stop-color="#573524"/><stop offset="1" stop-color="#774D3B" stop-opacity="0"/></radialGradient><radialGradient id="paint47_radial_4002_2541" cx="0" cy="0" r="1" gradientTransform="matrix(-.78125 0 0 -.3217 16.471 12.21)" gradientUnits="userSpaceOnUse"><stop offset=".153" stop-color="#E6B69D"/><stop offset="1" stop-color="#E6B69D" stop-opacity="0"/></radialGradient><radialGradient id="paint48_radial_4002_2541" cx="0" cy="0" r="1" gradientTransform="matrix(.35157 2.33593 -.2692 .04052 16.213 10.399)" gradientUnits="userSpaceOnUse"><stop offset=".153" stop-color="#E6B69D"/><stop offset="1" stop-color="#E6B69D" stop-opacity="0"/></radialGradient><radialGradient id="paint52_radial_4002_2541" cx="0" cy="0" r="1" gradientTransform="matrix(0 .81132 -1.29049 0 18.182 10.026)" gradientUnits="userSpaceOnUse"><stop offset=".802" stop-color="#704D42"/><stop offset="1" stop-color="#694B43"/><stop offset="1" stop-color="#804D49"/><stop offset="1" stop-color="#69483C"/></radialGradient><radialGradient id="paint53_radial_4002_2541" cx="0" cy="0" r="1" gradientTransform="rotate(-127.812 11.452 .659) scale(.37798 .52039)" gradientUnits="userSpaceOnUse"><stop offset=".766" stop-color="#FFE6E2" stop-opacity="0"/><stop offset=".966" stop-color="#FFE6E2"/></radialGradient><radialGradient id="paint55_radial_4002_2541" cx="0" cy="0" r="1" gradientTransform="matrix(0 .81132 -1.2905 0 13.818 10.026)" gradientUnits="userSpaceOnUse"><stop offset=".802" stop-color="#724D44"/><stop offset="1" stop-color="#694B43"/><stop offset="1" stop-color="#804D49"/><stop offset="1" stop-color="#66453A"/></radialGradient><radialGradient id="paint57_radial_4002_2541" cx="0" cy="0" r="1" gradientTransform="matrix(-.00773 -.49366 .5934 -.0093 13.531 10.245)" gradientUnits="userSpaceOnUse"><stop offset=".766" stop-color="#FFE6E2" stop-opacity="0"/><stop offset=".966" stop-color="#FFE6E2"/></radialGradient><radialGradient id="paint58_radial_4002_2541" cx="0" cy="0" r="1" gradientTransform="matrix(0 4.50166 -9.15821 0 16 3.5)" gradientUnits="userSpaceOnUse"><stop offset=".09" stop-color="#848286"/><stop offset="1" stop-color="#655D6D"/></radialGradient><radialGradient id="paint59_radial_4002_2541" cx="0" cy="0" r="1" gradientTransform="matrix(1.03125 -2.42187 2.377 1.01214 9.328 9.045)" gradientUnits="userSpaceOnUse"><stop stop-color="#6C6176"/><stop offset="1" stop-color="#6C6176" stop-opacity="0"/></radialGradient><radialGradient id="paint60_radial_4002_2541" cx="0" cy="0" r="1" gradientTransform="rotate(-147.95 12.02 3.515) scale(12.72 10.6468)" gradientUnits="userSpaceOnUse"><stop offset=".911" stop-color="#493B54" stop-opacity="0"/><stop offset="1" stop-color="#493B54"/></radialGradient><radialGradient id="paint62_radial_4002_2541" cx="0" cy="0" r="1" gradientTransform="matrix(3.07812 0 0 1.2594 18.172 15.16)" gradientUnits="userSpaceOnUse"><stop stop-color="#736A6C"/><stop offset=".78" stop-color="#463D38"/></radialGradient><linearGradient id="paint0_linear_4002_2541" x1="10.179" x2="21.429" y1="30.516" y2="30.516" gradientUnits="userSpaceOnUse"><stop offset=".006" stop-color="#DBCFEA"/><stop offset="1" stop-color="#E7D8F7"/></linearGradient><linearGradient id="paint1_linear_4002_2541" x1="8.688" x2="10.844" y1="26.123" y2="26.154" gradientUnits="userSpaceOnUse"><stop stop-color="#BAA7D0"/><stop offset=".231" stop-color="#D3CADE"/><stop offset="1" stop-color="#D3CADE" stop-opacity="0"/></linearGradient><linearGradient id="paint4_linear_4002_2541" x1="16.594" x2="16.594" y1="30.529" y2="29.623" gradientUnits="userSpaceOnUse"><stop stop-color="#C9B4E0"/><stop offset="1" stop-color="#C9B4E0" stop-opacity="0"/></linearGradient><linearGradient id="paint6_linear_4002_2541" x1="22.797" x2="23.438" y1="26.607" y2="26.592" gradientUnits="userSpaceOnUse"><stop offset=".127" stop-color="#C8B9DA"/><stop offset="1" stop-color="#C8B9DA" stop-opacity="0"/></linearGradient><linearGradient id="paint7_linear_4002_2541" x1="27" x2="26.281" y1="29.99" y2="29.99" gradientUnits="userSpaceOnUse"><stop stop-color="#E8E4EF"/><stop offset="1" stop-color="#E8E4EF" stop-opacity="0"/></linearGradient><linearGradient id="paint10_linear_4002_2541" x1="9.07" x2="8.695" y1="29.99" y2="29.99" gradientUnits="userSpaceOnUse"><stop stop-color="#BBB7C0"/><stop offset="1" stop-color="#C1B1D5" stop-opacity="0"/></linearGradient><linearGradient id="paint12_linear_4002_2541" x1="20.5" x2="11.49" y1="29.685" y2="29.685" gradientUnits="userSpaceOnUse"><stop stop-color="#CDC0DA"/><stop offset="1" stop-color="#BEB1CC"/></linearGradient><linearGradient id="paint14_linear_4002_2541" x1="17.344" x2="18.766" y1="24.764" y2="23.357" gradientUnits="userSpaceOnUse"><stop stop-color="#EE3880"/><stop offset="1" stop-color="#F13C6A"/></linearGradient><linearGradient id="paint15_linear_4002_2541" x1="18.875" x2="17.383" y1="23.271" y2="24.693" gradientUnits="userSpaceOnUse"><stop stop-color="#FB4F70"/><stop offset=".531" stop-color="#F34B6C" stop-opacity="0"/></linearGradient><linearGradient id="paint16_linear_4002_2541" x1="14.875" x2="13.383" y1="23.271" y2="24.693" gradientUnits="userSpaceOnUse"><stop stop-color="#4D90DF"/><stop offset=".531" stop-color="#4D90DF" stop-opacity="0"/></linearGradient><linearGradient id="paint18_linear_4002_2541" x1="21.612" x2="8.017" y1="19.604" y2="19.604" gradientUnits="userSpaceOnUse"><stop stop-color="#F0E4FC"/><stop offset="1" stop-color="#D8D0E0"/></linearGradient><linearGradient id="paint23_linear_4002_2541" x1="8.296" x2="8.296" y1="8.927" y2="12.498" gradientUnits="userSpaceOnUse"><stop stop-color="#919092"/><stop offset="1" stop-color="#938B9C"/></linearGradient><linearGradient id="paint24_linear_4002_2541" x1="7.125" x2="7.125" y1="13.912" y2="13.185" gradientUnits="userSpaceOnUse"><stop stop-color="#88828E"/><stop offset="1" stop-color="#88828E" stop-opacity="0"/></linearGradient><linearGradient id="paint26_linear_4002_2541" x1="25.191" x2="25.191" y1="8.927" y2="14.062" gradientUnits="userSpaceOnUse"><stop stop-color="#C0BFC0"/><stop offset=".743" stop-color="#AFA9B7"/><stop offset="1" stop-color="#8E8895"/></linearGradient><linearGradient id="paint29_linear_4002_2541" x1="23.937" x2="8.094" y1="6.435" y2="15.717" gradientUnits="userSpaceOnUse"><stop stop-color="#D4D0D7"/><stop offset="1" stop-color="#A6A2AB"/></linearGradient><linearGradient id="paint32_linear_4002_2541" x1="23.726" x2="8.301" y1="6.556" y2="15.592" gradientUnits="userSpaceOnUse"><stop stop-color="#BAB4C1"/><stop offset="1" stop-color="#BDB7C4"/></linearGradient><linearGradient id="paint34_linear_4002_2541" x1="9.875" x2="23.344" y1="12.154" y2="12.154" gradientUnits="userSpaceOnUse"><stop stop-color="#4E4257"/><stop offset=".276" stop-color="#332640"/></linearGradient><linearGradient id="paint46_linear_4002_2541" x1="15.401" x2="16.729" y1="12.207" y2="12.207" gradientUnits="userSpaceOnUse"><stop stop-color="#D39F83"/><stop offset="1" stop-color="#E3B094"/></linearGradient><linearGradient id="paint49_linear_4002_2541" x1="16.315" x2="16.315" y1="12.881" y2="12.209" gradientUnits="userSpaceOnUse"><stop offset=".233" stop-color="#D39A8B"/><stop offset="1" stop-color="#D39A8B" stop-opacity="0"/></linearGradient><linearGradient id="paint50_linear_4002_2541" x1="16" x2="16" y1="10.145" y2="11.162" gradientUnits="userSpaceOnUse"><stop offset=".217" stop-color="#E1AF95"/><stop offset="1" stop-color="#E1AF95" stop-opacity="0"/></linearGradient><linearGradient id="paint51_linear_4002_2541" x1="15.271" x2="15.723" y1="14.396" y2="13.524" gradientUnits="userSpaceOnUse"><stop stop-color="#CA9B8F"/><stop offset="1" stop-color="#CA9B8F" stop-opacity="0"/></linearGradient><linearGradient id="paint54_linear_4002_2541" x1="18.96" x2="18.646" y1="10.08" y2="10.273" gradientUnits="userSpaceOnUse"><stop stop-color="#B4948D"/><stop offset="1" stop-color="#B4948D" stop-opacity="0"/></linearGradient><linearGradient id="paint56_linear_4002_2541" x1="14.561" x2="14.248" y1="10.08" y2="10.273" gradientUnits="userSpaceOnUse"><stop stop-color="#B4948D"/><stop offset="1" stop-color="#B4948D" stop-opacity="0"/></linearGradient><linearGradient id="paint61_linear_4002_2541" x1="23.3" x2="21.625" y1="9.404" y2="7.342" gradientUnits="userSpaceOnUse"><stop stop-color="#726080"/><stop offset="1" stop-color="#726080" stop-opacity="0"/></linearGradient><linearGradient id="paint63_linear_4002_2541" x1="17.586" x2="17.961" y1="15.201" y2="15.201" gradientUnits="userSpaceOnUse"><stop stop-color="#575558"/><stop offset="1" stop-color="#575558" stop-opacity="0"/></linearGradient><linearGradient id="paint64_linear_4002_2541" x1="19.234" x2="19.234" y1="15.764" y2="15.568" gradientUnits="userSpaceOnUse"><stop stop-color="#3D3438"/><stop offset="1" stop-color="#3D3438" stop-opacity="0"/></linearGradient><linearGradient id="paint65_linear_4002_2541" x1="18.216" x2="20.402" y1="15.224" y2="15.224" gradientUnits="userSpaceOnUse"><stop stop-color="#797278"/><stop offset="1" stop-color="#5C595D"/></linearGradient><filter id="filter0_ii_4002_2541" width="9.31" height="4.17" x="11.34" y="25.98" color-interpolation-filters="sRGB" filterUnits="userSpaceOnUse"><feFlood flood-opacity="0" result="BackgroundImageFix"/><feBlend in="SourceGraphic" in2="BackgroundImageFix" result="shape"/><feColorMatrix in="SourceAlpha" result="hardAlpha" values="0 0 0 0 0 0 0 0 0 0 0 0 0 0 0 0 0 0 127 0"/><feOffset dx="-.15" dy=".15"/><feGaussianBlur stdDeviation=".125"/><feComposite in2="hardAlpha" k2="-1" k3="1" operator="arithmetic"/><feColorMatrix values="0 0 0 0 0.843137 0 0 0 0 0.811765 0 0 0 0 0.87451 0 0 0 1 0"/><feBlend in2="shape" result="effect1_innerShadow_4002_2541"/><feColorMatrix in="SourceAlpha" result="hardAlpha" values="0 0 0 0 0 0 0 0 0 0 0 0 0 0 0 0 0 0 127 0"/><feOffset dx=".15" dy=".15"/><feGaussianBlur stdDeviation=".2"/><feComposite in2="hardAlpha" k2="-1" k3="1" operator="arithmetic"/><feColorMatrix values="0 0 0 0 0.686275 0 0 0 0 0.635294 0 0 0 0 0.733333 0 0 0 1 0"/><feBlend in2="effect1_innerShadow_4002_2541" result="effect2_innerShadow_4002_2541"/></filter><filter id="filter1_f_4002_2541" width="3.12" height="3.12" x="12.255" y="22.615" color-interpolation-filters="sRGB" filterUnits="userSpaceOnUse"><feFlood flood-opacity="0" result="BackgroundImageFix"/><feBlend in="SourceGraphic" in2="BackgroundImageFix" result="shape"/><feGaussianBlur result="effect1_foregroundBlur_4002_2541" stdDeviation=".25"/></filter><filter id="filter2_f_4002_2541" width="3.12" height="3.12" x="16.325" y="22.615" color-interpolation-filters="sRGB" filterUnits="userSpaceOnUse"><feFlood flood-opacity="0" result="BackgroundImageFix"/><feBlend in="SourceGraphic" in2="BackgroundImageFix" result="shape"/><feGaussianBlur result="effect1_foregroundBlur_4002_2541" stdDeviation=".25"/></filter><filter id="filter3_i_4002_2541" width="2.12" height="2.12" x="12.94" y="22.93" color-interpolation-filters="sRGB" filterUnits="userSpaceOnUse"><feFlood flood-opacity="0" result="BackgroundImageFix"/><feBlend in="SourceGraphic" in2="BackgroundImageFix" result="shape"/><feColorMatrix in="SourceAlpha" result="hardAlpha" values="0 0 0 0 0 0 0 0 0 0 0 0 0 0 0 0 0 0 127 0"/><feOffset/><feGaussianBlur stdDeviation=".125"/><feComposite in2="hardAlpha" k2="-1" k3="1" operator="arithmetic"/><feColorMatrix values="0 0 0 0 0.294118 0 0 0 0 0.498039 0 0 0 0 0.847059 0 0 0 1 0"/><feBlend in2="shape" result="effect1_innerShadow_4002_2541"/></filter><filter id="filter4_i_4002_2541" width="2.12" height="2.12" x="16.94" y="22.93" color-interpolation-filters="sRGB" filterUnits="userSpaceOnUse"><feFlood flood-opacity="0" result="BackgroundImageFix"/><feBlend in="SourceGraphic" in2="BackgroundImageFix" result="shape"/><feColorMatrix in="SourceAlpha" result="hardAlpha" values="0 0 0 0 0 0 0 0 0 0 0 0 0 0 0 0 0 0 127 0"/><feOffset/><feGaussianBlur stdDeviation=".125"/><feComposite in2="hardAlpha" k2="-1" k3="1" operator="arithmetic"/><feColorMatrix values="0 0 0 0 0.882353 0 0 0 0 0.180392 0 0 0 0 0.380392 0 0 0 1 0"/><feBlend in2="shape" result="effect1_innerShadow_4002_2541"/></filter><filter id="filter5_f_4002_2541" width="2.05" height="2.05" x="16.975" y="22.965" color-interpolation-filters="sRGB" filterUnits="userSpaceOnUse"><feFlood flood-opacity="0" result="BackgroundImageFix"/><feBlend in="SourceGraphic" in2="BackgroundImageFix" result="shape"/><feGaussianBlur result="effect1_foregroundBlur_4002_2541" stdDeviation=".05"/></filter><filter id="filter6_f_4002_2541" width="2.05" height="2.05" x="12.975" y="22.965" color-interpolation-filters="sRGB" filterUnits="userSpaceOnUse"><feFlood flood-opacity="0" result="BackgroundImageFix"/><feBlend in="SourceGraphic" in2="BackgroundImageFix" result="shape"/><feGaussianBlur result="effect1_foregroundBlur_4002_2541" stdDeviation=".05"/></filter><filter id="filter7_i_4002_2541" width="14.359" height="6.364" x="8.82" y="15.548" color-interpolation-filters="sRGB" filterUnits="userSpaceOnUse"><feFlood flood-opacity="0" result="BackgroundImageFix"/><feBlend in="SourceGraphic" in2="BackgroundImageFix" result="shape"/><feColorMatrix in="SourceAlpha" result="hardAlpha" values="0 0 0 0 0 0 0 0 0 0 0 0 0 0 0 0 0 0 127 0"/><feOffset dy="-.2"/><feGaussianBlur stdDeviation=".5"/><feComposite in2="hardAlpha" k2="-1" k3="1" operator="arithmetic"/><feColorMatrix values="0 0 0 0 0.933333 0 0 0 0 0.87451 0 0 0 0 0.996078 0 0 0 1 0"/><feBlend in2="shape" result="effect1_innerShadow_4002_2541"/></filter><filter id="filter8_f_4002_2541" width="18.043" height="18.043" x="6.925" y="1.988" color-interpolation-filters="sRGB" filterUnits="userSpaceOnUse"><feFlood flood-opacity="0" result="BackgroundImageFix"/><feBlend in="SourceGraphic" in2="BackgroundImageFix" result="shape"/><feGaussianBlur result="effect1_foregroundBlur_4002_2541" stdDeviation=".125"/></filter><filter id="filter9_f_4002_2541" width="16.155" height="16.155" x="7.869" y="2.932" color-interpolation-filters="sRGB" filterUnits="userSpaceOnUse"><feFlood flood-opacity="0" result="BackgroundImageFix"/><feBlend in="SourceGraphic" in2="BackgroundImageFix" result="shape"/><feGaussianBlur result="effect1_foregroundBlur_4002_2541" stdDeviation=".15"/></filter><filter id="filter10_f_4002_2541" width="14.583" height="16.385" x="9.073" y="2.863" color-interpolation-filters="sRGB" filterUnits="userSpaceOnUse"><feFlood flood-opacity="0" result="BackgroundImageFix"/><feBlend in="SourceGraphic" in2="BackgroundImageFix" result="shape"/><feGaussianBlur result="effect1_foregroundBlur_4002_2541" stdDeviation=".75"/></filter><filter id="filter11_i_4002_2541" width="10.191" height="12.205" x="10.742" y="4.574" color-interpolation-filters="sRGB" filterUnits="userSpaceOnUse"><feFlood flood-opacity="0" result="BackgroundImageFix"/><feBlend in="SourceGraphic" in2="BackgroundImageFix" result="shape"/><feColorMatrix in="SourceAlpha" result="hardAlpha" values="0 0 0 0 0 0 0 0 0 0 0 0 0 0 0 0 0 0 127 0"/><feOffset/><feGaussianBlur stdDeviation="1"/><feComposite in2="hardAlpha" k2="-1" k3="1" operator="arithmetic"/><feColorMatrix values="0 0 0 0 0.4 0 0 0 0 0.258824 0 0 0 0 0.192157 0 0 0 1 0"/><feBlend in2="shape" result="effect1_innerShadow_4002_2541"/></filter><filter id="filter12_f_4002_2541" width="2.877" height="3.682" x="14.399" y="9.783" color-interpolation-filters="sRGB" filterUnits="userSpaceOnUse"><feFlood flood-opacity="0" result="BackgroundImageFix"/><feBlend in="SourceGraphic" in2="BackgroundImageFix" result="shape"/><feGaussianBlur result="effect1_foregroundBlur_4002_2541" stdDeviation=".25"/></filter><filter id="filter13_if_4002_2541" width="2.377" height="3.182" x="14.811" y="9.895" color-interpolation-filters="sRGB" filterUnits="userSpaceOnUse"><feFlood flood-opacity="0" result="BackgroundImageFix"/><feBlend in="SourceGraphic" in2="BackgroundImageFix" result="shape"/><feColorMatrix in="SourceAlpha" result="hardAlpha" values="0 0 0 0 0 0 0 0 0 0 0 0 0 0 0 0 0 0 127 0"/><feOffset dx=".1" dy="-.1"/><feGaussianBlur stdDeviation=".125"/><feComposite in2="hardAlpha" k2="-1" k3="1" operator="arithmetic"/><feColorMatrix values="0 0 0 0 0.780392 0 0 0 0 0.54902 0 0 0 0 0.478431 0 0 0 1 0"/><feBlend in2="shape" result="effect1_innerShadow_4002_2541"/><feGaussianBlur result="effect2_foregroundBlur_4002_2541" stdDeviation=".125"/></filter><filter id="filter14_f_4002_2541" width="2.377" height="3.182" x="14.811" y="9.895" color-interpolation-filters="sRGB" filterUnits="userSpaceOnUse"><feFlood flood-opacity="0" result="BackgroundImageFix"/><feBlend in="SourceGraphic" in2="BackgroundImageFix" result="shape"/><feGaussianBlur result="effect1_foregroundBlur_4002_2541" stdDeviation=".125"/></filter><filter id="filter15_f_4002_2541" width="3.702" height="1.526" x="14.149" y="13.137" color-interpolation-filters="sRGB" filterUnits="userSpaceOnUse"><feFlood flood-opacity="0" result="BackgroundImageFix"/><feBlend in="SourceGraphic" in2="BackgroundImageFix" result="shape"/><feGaussianBlur result="effect1_foregroundBlur_4002_2541" stdDeviation=".05"/></filter><filter id="filter16_i_4002_2541" width="3.001" height="1.285" x="17.142" y="9.219" color-interpolation-filters="sRGB" filterUnits="userSpaceOnUse"><feFlood flood-opacity="0" result="BackgroundImageFix"/><feBlend in="SourceGraphic" in2="BackgroundImageFix" result="shape"/><feColorMatrix in="SourceAlpha" result="hardAlpha" values="0 0 0 0 0 0 0 0 0 0 0 0 0 0 0 0 0 0 127 0"/><feOffset dx=".2"/><feGaussianBlur stdDeviation=".125"/><feComposite in2="hardAlpha" k2="-1" k3="1" operator="arithmetic"/><feColorMatrix values="0 0 0 0 0.0784314 0 0 0 0 0.0745098 0 0 0 0 0.0823529 0 0 0 1 0"/><feBlend in2="shape" result="effect1_innerShadow_4002_2541"/></filter><filter id="filter17_i_4002_2541" width="3.001" height="1.285" x="12.057" y="9.219" color-interpolation-filters="sRGB" filterUnits="userSpaceOnUse"><feFlood flood-opacity="0" result="BackgroundImageFix"/><feBlend in="SourceGraphic" in2="BackgroundImageFix" result="shape"/><feColorMatrix in="SourceAlpha" result="hardAlpha" values="0 0 0 0 0 0 0 0 0 0 0 0 0 0 0 0 0 0 127 0"/><feOffset dx=".2"/><feGaussianBlur stdDeviation=".125"/><feComposite in2="hardAlpha" k2="-1" k3="1" operator="arithmetic"/><feColorMatrix values="0 0 0 0 0.0784314 0 0 0 0 0.0745098 0 0 0 0 0.0823529 0 0 0 1 0"/><feBlend in2="shape" result="effect1_innerShadow_4002_2541"/></filter><filter id="filter18_i_4002_2541" width="2.253" height="1.041" x="12.165" y="7.869" color-interpolation-filters="sRGB" filterUnits="userSpaceOnUse"><feFlood flood-opacity="0" result="BackgroundImageFix"/><feBlend in="SourceGraphic" in2="BackgroundImageFix" result="shape"/><feColorMatrix in="SourceAlpha" result="hardAlpha" values="0 0 0 0 0 0 0 0 0 0 0 0 0 0 0 0 0 0 127 0"/><feOffset dy=".15"/><feGaussianBlur stdDeviation=".1"/><feComposite in2="hardAlpha" k2="-1" k3="1" operator="arithmetic"/><feColorMatrix values="0 0 0 0 0.290196 0 0 0 0 0.168627 0 0 0 0 0.0705882 0 0 0 1 0"/><feBlend in2="shape" result="effect1_innerShadow_4002_2541"/></filter><filter id="filter19_i_4002_2541" width="2.253" height="1.041" x="17.582" y="7.869" color-interpolation-filters="sRGB" filterUnits="userSpaceOnUse"><feFlood flood-opacity="0" result="BackgroundImageFix"/><feBlend in="SourceGraphic" in2="BackgroundImageFix" result="shape"/><feColorMatrix in="SourceAlpha" result="hardAlpha" values="0 0 0 0 0 0 0 0 0 0 0 0 0 0 0 0 0 0 127 0"/><feOffset dy=".15"/><feGaussianBlur stdDeviation=".1"/><feComposite in2="hardAlpha" k2="-1" k3="1" operator="arithmetic"/><feColorMatrix values="0 0 0 0 0.290196 0 0 0 0 0.168627 0 0 0 0 0.0705882 0 0 0 1 0"/><feBlend in2="shape" result="effect1_innerShadow_4002_2541"/></filter><filter id="filter20_f_4002_2541" width=".786" height=".696" x="17.448" y="9.587" color-interpolation-filters="sRGB" filterUnits="userSpaceOnUse"><feFlood flood-opacity="0" result="BackgroundImageFix"/><feBlend in="SourceGraphic" in2="BackgroundImageFix" result="shape"/><feGaussianBlur result="effect1_foregroundBlur_4002_2541" stdDeviation=".05"/></filter><filter id="filter21_f_4002_2541" width=".891" height=".913" x="18.288" y="9.661" color-interpolation-filters="sRGB" filterUnits="userSpaceOnUse"><feFlood flood-opacity="0" result="BackgroundImageFix"/><feBlend in="SourceGraphic" in2="BackgroundImageFix" result="shape"/><feGaussianBlur result="effect1_foregroundBlur_4002_2541" stdDeviation=".1"/></filter><filter id="filter22_f_4002_2541" width=".986" height="1.04" x="13.845" y="9.598" color-interpolation-filters="sRGB" filterUnits="userSpaceOnUse"><feFlood flood-opacity="0" result="BackgroundImageFix"/><feBlend in="SourceGraphic" in2="BackgroundImageFix" result="shape"/><feGaussianBlur result="effect1_foregroundBlur_4002_2541" stdDeviation=".1"/></filter><filter id="filter23_f_4002_2541" width=".912" height=".704" x="13.09" y="9.579" color-interpolation-filters="sRGB" filterUnits="userSpaceOnUse"><feFlood flood-opacity="0" result="BackgroundImageFix"/><feBlend in="SourceGraphic" in2="BackgroundImageFix" result="shape"/><feGaussianBlur result="effect1_foregroundBlur_4002_2541" stdDeviation=".05"/></filter><filter id="filter24_ii_4002_2541" width="14.6" height="5.86" x="8.7" y="3.45" color-interpolation-filters="sRGB" filterUnits="userSpaceOnUse"><feFlood flood-opacity="0" result="BackgroundImageFix"/><feBlend in="SourceGraphic" in2="BackgroundImageFix" result="shape"/><feColorMatrix in="SourceAlpha" result="hardAlpha" values="0 0 0 0 0 0 0 0 0 0 0 0 0 0 0 0 0 0 127 0"/><feOffset dy="-.05"/><feGaussianBlur stdDeviation=".05"/><feComposite in2="hardAlpha" k2="-1" k3="1" operator="arithmetic"/><feColorMatrix values="0 0 0 0 0.286275 0 0 0 0 0.215686 0 0 0 0 0.329412 0 0 0 1 0"/><feBlend in2="shape" result="effect1_innerShadow_4002_2541"/><feColorMatrix in="SourceAlpha" result="hardAlpha" values="0 0 0 0 0 0 0 0 0 0 0 0 0 0 0 0 0 0 127 0"/><feOffset dy=".05"/><feGaussianBlur stdDeviation=".05"/><feComposite in2="hardAlpha" k2="-1" k3="1" operator="arithmetic"/><feColorMatrix values="0 0 0 0 0.247059 0 0 0 0 0.219608 0 0 0 0 0.27451 0 0 0 1 0"/><feBlend in2="effect1_innerShadow_4002_2541" result="effect2_innerShadow_4002_2541"/></filter><filter id="filter25_f_4002_2541" width="3.344" height=".781" x="17.797" y="14.693" color-interpolation-filters="sRGB" filterUnits="userSpaceOnUse"><feFlood flood-opacity="0" result="BackgroundImageFix"/><feBlend in="SourceGraphic" in2="BackgroundImageFix" result="shape"/><feGaussianBlur result="effect1_foregroundBlur_4002_2541" stdDeviation=".125"/></filter><filter id="filter26_i_4002_2541" width="6.686" height="4.857" x="16.38" y="13.71" color-interpolation-filters="sRGB" filterUnits="userSpaceOnUse"><feFlood flood-opacity="0" result="BackgroundImageFix"/><feBlend in="SourceGraphic" in2="BackgroundImageFix" result="shape"/><feColorMatrix in="SourceAlpha" result="hardAlpha" values="0 0 0 0 0 0 0 0 0 0 0 0 0 0 0 0 0 0 127 0"/><feOffset dx=".05" dy=".05"/><feGaussianBlur stdDeviation=".2"/><feComposite in2="hardAlpha" k2="-1" k3="1" operator="arithmetic"/><feColorMatrix values="0 0 0 0 0.533333 0 0 0 0 0.486275 0 0 0 0 0.498039 0 0 0 1 0"/><feBlend in2="shape" result="effect1_innerShadow_4002_2541"/></filter></defs></svg>