<svg xmlns="http://www.w3.org/2000/svg" width="32" height="32" fill="none" viewBox="0 0 32 32"><path fill="url(#paint0_radial_13036_4644)" d="m9.2 24.75-3.906.183c.577-5.253 5.03-9.34 10.436-9.34h.625c5.415 0 9.872 4.099 10.44 9.363l-4.378-.206v5.188H9.2V24.75Z"/><path fill="url(#paint1_radial_13036_4644)" d="m9.2 24.75-3.906.183c.577-5.253 5.03-9.34 10.436-9.34h.625c5.415 0 9.872 4.099 10.44 9.363l-4.378-.206v5.188H9.2V24.75Z"/><path fill="url(#paint2_linear_13036_4644)" d="m9.2 24.75-3.906.183c.577-5.253 5.03-9.34 10.436-9.34h.625c5.415 0 9.872 4.099 10.44 9.363l-4.378-.206v5.188H9.2V24.75Z"/><rect width="4.223" height="6.028" x="13.918" y="12.688" fill="url(#paint3_radial_13036_4644)" rx="2.111"/><rect width="4.223" height="6.028" x="13.918" y="12.688" fill="url(#paint4_radial_13036_4644)" rx="2.111"/><path fill="url(#paint5_linear_13036_4644)" d="M22.967 17.937a10.484 10.484 0 0 1 3.827 7.019l-3.827-.18v-6.84Z"/><path fill="url(#paint6_linear_13036_4644)" d="m5.294 24.933 3.847-.16.058.183h.031v-7.109a10.486 10.486 0 0 0-3.936 7.086Z"/><path fill="url(#paint7_radial_13036_4644)" d="m5.294 24.933 3.847-.16.058.183h.031v-7.109a10.486 10.486 0 0 0-3.936 7.086Z"/><g filter="url(#filter0_i_13036_4644)"><path fill="url(#paint8_radial_13036_4644)" d="M26.417 28.531c.6-1.05.453-2.812.375-3.597l-3.938-.168c-.412.212-1.526.088-2.03 0l-8.898-1.407c-.617-.117-2.097-.231-2.774.133-.765.412-1 1.193-.937 1.578 4.27 1.532 12.632 4.563 13.757 4.813 1.82.312 3.695-.04 4.445-1.352Z"/></g><path fill="url(#paint9_linear_13036_4644)" d="M26.417 28.531c.6-1.05.453-2.812.375-3.597l-3.938-.168c-.412.212-1.526.088-2.03 0l-8.898-1.407c-.617-.117-2.097-.231-2.774.133-.765.412-1 1.193-.937 1.578 4.27 1.532 12.632 4.563 13.757 4.813 1.82.312 3.695-.04 4.445-1.352Z"/><path fill="url(#paint10_radial_13036_4644)" d="M26.417 28.531c.6-1.05.453-2.812.375-3.597l-3.938-.168c-.412.212-1.526.088-2.03 0l-8.898-1.407c-.617-.117-2.097-.231-2.774.133-.765.412-1 1.193-.937 1.578 4.27 1.532 12.632 4.563 13.757 4.813 1.82.312 3.695-.04 4.445-1.352Z"/><path fill="url(#paint11_radial_13036_4644)" d="M26.417 28.531c.6-1.05.453-2.812.375-3.597l-3.938-.168c-.412.212-1.526.088-2.03 0l-8.898-1.407c-.617-.117-2.097-.231-2.774.133-.765.412-1 1.193-.937 1.578 4.27 1.532 12.632 4.563 13.757 4.813 1.82.312 3.695-.04 4.445-1.352Z"/><path fill="url(#paint12_radial_13036_4644)" d="M26.417 28.531c.6-1.05.453-2.812.375-3.597l-3.938-.168c-.412.212-1.526.088-2.03 0l-8.898-1.407c-.617-.117-2.097-.231-2.774.133-.765.412-1 1.193-.937 1.578 4.27 1.532 12.632 4.563 13.757 4.813 1.82.312 3.695-.04 4.445-1.352Z"/><g filter="url(#filter1_i_13036_4644)"><path fill="url(#paint13_radial_13036_4644)" d="M5.668 28.531c-.6-1.05-.453-2.812-.375-3.597l3.937-.168c.413.212 1.527.088 2.032 0l9.672-1.563c.617-.117 1.448-.177 2.125.188.728.392.7.965.642 1.352a.096.096 0 0 1-.064.077c-4.285 1.54-12.404 4.814-13.524 5.063-1.82.312-3.695-.04-4.445-1.352Z"/></g><path fill="url(#paint14_radial_13036_4644)" d="M5.668 28.531c-.6-1.05-.453-2.812-.375-3.597l3.937-.168c.413.212 1.527.088 2.032 0l9.672-1.563c.617-.117 1.448-.177 2.125.188.728.392.7.965.642 1.352a.096.096 0 0 1-.064.077c-4.285 1.54-12.404 4.814-13.524 5.063-1.82.312-3.695-.04-4.445-1.352Z"/><path fill="url(#paint15_radial_13036_4644)" d="M20.901 12.083c.335-.01.649-.124.904-.308v.93a2.17 2.17 0 0 1-1.34 2.017c.17-.362.288-.757.346-1.179l.09-1.46Z"/><path fill="url(#paint16_radial_13036_4644)" d="M20.901 12.083c.335-.01.649-.124.904-.308v.93a2.17 2.17 0 0 1-1.34 2.017c.17-.362.288-.757.346-1.179l.09-1.46Z"/><path fill="url(#paint17_radial_13036_4644)" d="M11.187 12.083a1.639 1.639 0 0 1-.904-.308v.93a2.17 2.17 0 0 0 1.34 2.017 4.081 4.081 0 0 1-.346-1.179l-.09-1.46Z"/><path fill="url(#paint18_radial_13036_4644)" d="M11.187 12.083a1.639 1.639 0 0 1-.904-.308v.93a2.17 2.17 0 0 0 1.34 2.017 4.081 4.081 0 0 1-.346-1.179l-.09-1.46Z"/><g filter="url(#filter2_ii_13036_4644)"><path fill="url(#paint19_radial_13036_4644)" d="M11.223 13.597A3.913 3.913 0 0 0 15.106 17h1.885a3.913 3.913 0 0 0 3.882-3.403c.118-1.882.237-3.757.324-5.638a1.448 1.448 0 0 0-1.378-1.43H18.42a2.42 2.42 0 0 1-2.21-1.443.664.664 0 0 0-.615-.418h-1.271c-1.845 0-3.339 1.512-3.339 3.377 0 1.859.116 3.688.238 5.552Z"/></g><path fill="url(#paint20_linear_13036_4644)" d="M11.223 13.597A3.913 3.913 0 0 0 15.106 17h1.885a3.913 3.913 0 0 0 3.882-3.403c.118-1.882.237-3.757.324-5.638a1.448 1.448 0 0 0-1.378-1.43H18.42a2.42 2.42 0 0 1-2.21-1.443.664.664 0 0 0-.615-.418h-1.271c-1.845 0-3.339 1.512-3.339 3.377 0 1.859.116 3.688.238 5.552Z"/><path fill="url(#paint21_radial_13036_4644)" d="M11.223 13.597A3.913 3.913 0 0 0 15.106 17h1.885a3.913 3.913 0 0 0 3.882-3.403c.118-1.882.237-3.757.324-5.638a1.448 1.448 0 0 0-1.378-1.43H18.42a2.42 2.42 0 0 1-2.21-1.443.664.664 0 0 0-.615-.418h-1.271c-1.845 0-3.339 1.512-3.339 3.377 0 1.859.116 3.688.238 5.552Z"/><path fill="url(#paint22_radial_13036_4644)" d="M11.223 13.597A3.913 3.913 0 0 0 15.106 17h1.885a3.913 3.913 0 0 0 3.882-3.403c.118-1.882.237-3.757.324-5.638a1.448 1.448 0 0 0-1.378-1.43H18.42a2.42 2.42 0 0 1-2.21-1.443.664.664 0 0 0-.615-.418h-1.271c-1.845 0-3.339 1.512-3.339 3.377 0 1.859.116 3.688.238 5.552Z"/><path fill="url(#paint23_radial_13036_4644)" d="M11.223 13.597A3.913 3.913 0 0 0 15.106 17h1.885a3.913 3.913 0 0 0 3.882-3.403c.118-1.882.237-3.757.324-5.638a1.448 1.448 0 0 0-1.378-1.43H18.42a2.42 2.42 0 0 1-2.21-1.443.664.664 0 0 0-.615-.418h-1.271c-1.845 0-3.339 1.512-3.339 3.377 0 1.859.116 3.688.238 5.552Z"/><path fill="url(#paint24_radial_13036_4644)" d="M11.223 13.597A3.913 3.913 0 0 0 15.106 17h1.885a3.913 3.913 0 0 0 3.882-3.403c.118-1.882.237-3.757.324-5.638a1.448 1.448 0 0 0-1.378-1.43H18.42a2.42 2.42 0 0 1-2.21-1.443.664.664 0 0 0-.615-.418h-1.271c-1.845 0-3.339 1.512-3.339 3.377 0 1.859.116 3.688.238 5.552Z"/><path fill="url(#paint25_radial_13036_4644)" d="M11.223 13.597A3.913 3.913 0 0 0 15.106 17h1.885a3.913 3.913 0 0 0 3.882-3.403c.118-1.882.237-3.757.324-5.638a1.448 1.448 0 0 0-1.378-1.43H18.42a2.42 2.42 0 0 1-2.21-1.443.664.664 0 0 0-.615-.418h-1.271c-1.845 0-3.339 1.512-3.339 3.377 0 1.859.116 3.688.238 5.552Z"/><path fill="url(#paint26_radial_13036_4644)" d="M11.223 13.597A3.913 3.913 0 0 0 15.106 17h1.885a3.913 3.913 0 0 0 3.882-3.403c.118-1.882.237-3.757.324-5.638a1.448 1.448 0 0 0-1.378-1.43H18.42a2.42 2.42 0 0 1-2.21-1.443.664.664 0 0 0-.615-.418h-1.271c-1.845 0-3.339 1.512-3.339 3.377 0 1.859.116 3.688.238 5.552Z"/><path fill="url(#paint27_radial_13036_4644)" d="M11.223 13.597A3.913 3.913 0 0 0 15.106 17h1.885a3.913 3.913 0 0 0 3.882-3.403c.118-1.882.237-3.757.324-5.638a1.448 1.448 0 0 0-1.378-1.43H18.42a2.42 2.42 0 0 1-2.21-1.443.664.664 0 0 0-.615-.418h-1.271c-1.845 0-3.339 1.512-3.339 3.377 0 1.859.116 3.688.238 5.552Z"/><g filter="url(#filter3_f_13036_4644)"><path fill="url(#paint28_linear_13036_4644)" d="M16.56 14.641a.512.512 0 0 0-1.023 0h1.024Z"/><path fill="url(#paint29_linear_13036_4644)" d="M16.56 14.641a.512.512 0 0 0-1.023 0h1.024Z"/></g><g filter="url(#filter4_f_13036_4644)"><path fill="#C48377" d="m15.614 10.498-.692 1.655c-.1.377.142.755.486.755h.735c.344 0 .587-.383.486-.755l-.496-1.837c-.107-.407-.408-.225-.52.182Z"/></g><g filter="url(#filter5_f_13036_4644)"><path fill="url(#paint30_linear_13036_4644)" d="m15.662 10.12-.531 1.837c-.108.378.152.756.52.756h.786c.368 0 .628-.384.52-.756l-.53-1.837c-.115-.407-.646-.407-.765 0Z"/><path fill="url(#paint31_linear_13036_4644)" d="m15.662 10.12-.531 1.837c-.108.378.152.756.52.756h.786c.368 0 .628-.384.52-.756l-.53-1.837c-.115-.407-.646-.407-.765 0Z"/><path fill="url(#paint32_linear_13036_4644)" d="m15.662 10.12-.531 1.837c-.108.378.152.756.52.756h.786c.368 0 .628-.384.52-.756l-.53-1.837c-.115-.407-.646-.407-.765 0Z"/><path fill="url(#paint33_linear_13036_4644)" d="m15.662 10.12-.531 1.837c-.108.378.152.756.52.756h.786c.368 0 .628-.384.52-.756l-.53-1.837c-.115-.407-.646-.407-.765 0Z"/></g><path fill="url(#paint34_linear_13036_4644)" d="m15.662 10.12-.531 1.837c-.108.378.152.756.52.756h.786c.368 0 .628-.384.52-.756l-.53-1.837c-.115-.407-.646-.407-.765 0Z"/><path fill="url(#paint35_radial_13036_4644)" d="m15.662 10.12-.531 1.837c-.108.378.152.756.52.756h.786c.368 0 .628-.384.52-.756l-.53-1.837c-.115-.407-.646-.407-.765 0Z"/><g filter="url(#filter6_ii_13036_4644)"><path fill="url(#paint36_linear_13036_4644)" d="M20.895 4.197a2.32 2.32 0 0 1 1.267 1.05c.466.82.397 1.8-.106 2.524a1.56 1.56 0 0 0-.27.874v1.187a1.743 1.743 0 0 0-.667-.268l.078-1.605a1.448 1.448 0 0 0-1.378-1.43H18.42a2.42 2.42 0 0 1-2.21-1.443.664.664 0 0 0-.615-.418h-1.271c-1.845 0-3.339 1.512-3.339 3.377l.03 1.536a1.71 1.71 0 0 0-.719.263V8.645c0-.31-.095-.616-.27-.874a2.389 2.389 0 0 1-.143-2.443 2.343 2.343 0 0 1 1.298-1.126 2.679 2.679 0 0 0 1.383-1.11 2.323 2.323 0 0 1 2.889-.91c.381.166.81.166 1.192 0a2.35 2.35 0 0 1 .911-.188c.843 0 1.58.456 1.988 1.131.307.51.79.879 1.351 1.072Z"/><path fill="url(#paint37_radial_13036_4644)" d="M20.895 4.197a2.32 2.32 0 0 1 1.267 1.05c.466.82.397 1.8-.106 2.524a1.56 1.56 0 0 0-.27.874v1.187a1.743 1.743 0 0 0-.667-.268l.078-1.605a1.448 1.448 0 0 0-1.378-1.43H18.42a2.42 2.42 0 0 1-2.21-1.443.664.664 0 0 0-.615-.418h-1.271c-1.845 0-3.339 1.512-3.339 3.377l.03 1.536a1.71 1.71 0 0 0-.719.263V8.645c0-.31-.095-.616-.27-.874a2.389 2.389 0 0 1-.143-2.443 2.343 2.343 0 0 1 1.298-1.126 2.679 2.679 0 0 0 1.383-1.11 2.323 2.323 0 0 1 2.889-.91c.381.166.81.166 1.192 0a2.35 2.35 0 0 1 .911-.188c.843 0 1.58.456 1.988 1.131.307.51.79.879 1.351 1.072Z"/><path fill="url(#paint38_radial_13036_4644)" d="M20.895 4.197a2.32 2.32 0 0 1 1.267 1.05c.466.82.397 1.8-.106 2.524a1.56 1.56 0 0 0-.27.874v1.187a1.743 1.743 0 0 0-.667-.268l.078-1.605a1.448 1.448 0 0 0-1.378-1.43H18.42a2.42 2.42 0 0 1-2.21-1.443.664.664 0 0 0-.615-.418h-1.271c-1.845 0-3.339 1.512-3.339 3.377l.03 1.536a1.71 1.71 0 0 0-.719.263V8.645c0-.31-.095-.616-.27-.874a2.389 2.389 0 0 1-.143-2.443 2.343 2.343 0 0 1 1.298-1.126 2.679 2.679 0 0 0 1.383-1.11 2.323 2.323 0 0 1 2.889-.91c.381.166.81.166 1.192 0a2.35 2.35 0 0 1 .911-.188c.843 0 1.58.456 1.988 1.131.307.51.79.879 1.351 1.072Z"/><path fill="url(#paint39_radial_13036_4644)" d="M20.895 4.197a2.32 2.32 0 0 1 1.267 1.05c.466.82.397 1.8-.106 2.524a1.56 1.56 0 0 0-.27.874v1.187a1.743 1.743 0 0 0-.667-.268l.078-1.605a1.448 1.448 0 0 0-1.378-1.43H18.42a2.42 2.42 0 0 1-2.21-1.443.664.664 0 0 0-.615-.418h-1.271c-1.845 0-3.339 1.512-3.339 3.377l.03 1.536a1.71 1.71 0 0 0-.719.263V8.645c0-.31-.095-.616-.27-.874a2.389 2.389 0 0 1-.143-2.443 2.343 2.343 0 0 1 1.298-1.126 2.679 2.679 0 0 0 1.383-1.11 2.323 2.323 0 0 1 2.889-.91c.381.166.81.166 1.192 0a2.35 2.35 0 0 1 .911-.188c.843 0 1.58.456 1.988 1.131.307.51.79.879 1.351 1.072Z"/><path fill="url(#paint40_radial_13036_4644)" d="M20.895 4.197a2.32 2.32 0 0 1 1.267 1.05c.466.82.397 1.8-.106 2.524a1.56 1.56 0 0 0-.27.874v1.187a1.743 1.743 0 0 0-.667-.268l.078-1.605a1.448 1.448 0 0 0-1.378-1.43H18.42a2.42 2.42 0 0 1-2.21-1.443.664.664 0 0 0-.615-.418h-1.271c-1.845 0-3.339 1.512-3.339 3.377l.03 1.536a1.71 1.71 0 0 0-.719.263V8.645c0-.31-.095-.616-.27-.874a2.389 2.389 0 0 1-.143-2.443 2.343 2.343 0 0 1 1.298-1.126 2.679 2.679 0 0 0 1.383-1.11 2.323 2.323 0 0 1 2.889-.91c.381.166.81.166 1.192 0a2.35 2.35 0 0 1 .911-.188c.843 0 1.58.456 1.988 1.131.307.51.79.879 1.351 1.072Z"/></g><g filter="url(#filter7_f_13036_4644)"><path fill="url(#paint41_radial_13036_4644)" d="M16.276 5.223a2.392 2.392 0 0 1-.066-.137.664.664 0 0 0-.615-.418h-1.271c-1.845 0-3.339 1.512-3.339 3.377v.275c-.34-.259-.767-.804-.767-1.687 0-1.07.781-1.612 1.28-1.957.14-.098.258-.18.33-.253l.1-.105c.349-.37.97-1.03 2.057-1.319a5.461 5.461 0 0 1 1.506-.165c.473.011.806.42.806.893V5.21l-.02.013Z"/><path fill="url(#paint42_radial_13036_4644)" d="M16.276 5.223a2.392 2.392 0 0 1-.066-.137.664.664 0 0 0-.615-.418h-1.271c-1.845 0-3.339 1.512-3.339 3.377v.275c-.34-.259-.767-.804-.767-1.687 0-1.07.781-1.612 1.28-1.957.14-.098.258-.18.33-.253l.1-.105c.349-.37.97-1.03 2.057-1.319a5.461 5.461 0 0 1 1.506-.165c.473.011.806.42.806.893V5.21l-.02.013Z"/></g><g filter="url(#filter8_f_13036_4644)"><path fill="url(#paint43_radial_13036_4644)" d="m21.253 8.593-.03-.631c-.01-.763-.64-1.392-1.404-1.424H18.42a2.42 2.42 0 0 1-2.122-1.259s-.058-.135-.12-.366c-.256-.97.671-1.713 1.656-1.522.972.189 2.08.517 2.898 1.05 1.743 1.138 1.438 3.187.52 4.152Z"/><path fill="url(#paint44_radial_13036_4644)" d="m21.253 8.593-.03-.631c-.01-.763-.64-1.392-1.404-1.424H18.42a2.42 2.42 0 0 1-2.122-1.259s-.058-.135-.12-.366c-.256-.97.671-1.713 1.656-1.522.972.189 2.08.517 2.898 1.05 1.743 1.138 1.438 3.187.52 4.152Z"/><path fill="url(#paint45_radial_13036_4644)" d="m21.253 8.593-.03-.631c-.01-.763-.64-1.392-1.404-1.424H18.42a2.42 2.42 0 0 1-2.122-1.259s-.058-.135-.12-.366c-.256-.97.671-1.713 1.656-1.522.972.189 2.08.517 2.898 1.05 1.743 1.138 1.438 3.187.52 4.152Z"/><path fill="url(#paint46_radial_13036_4644)" d="m21.253 8.593-.03-.631c-.01-.763-.64-1.392-1.404-1.424H18.42a2.42 2.42 0 0 1-2.122-1.259s-.058-.135-.12-.366c-.256-.97.671-1.713 1.656-1.522.972.189 2.08.517 2.898 1.05 1.743 1.138 1.438 3.187.52 4.152Z"/><path fill="url(#paint47_radial_13036_4644)" d="m21.253 8.593-.03-.631c-.01-.763-.64-1.392-1.404-1.424H18.42a2.42 2.42 0 0 1-2.122-1.259s-.058-.135-.12-.366c-.256-.97.671-1.713 1.656-1.522.972.189 2.08.517 2.898 1.05 1.743 1.138 1.438 3.187.52 4.152Z"/><path fill="url(#paint48_radial_13036_4644)" d="m21.253 8.593-.03-.631c-.01-.763-.64-1.392-1.404-1.424H18.42a2.42 2.42 0 0 1-2.122-1.259s-.058-.135-.12-.366c-.256-.97.671-1.713 1.656-1.522.972.189 2.08.517 2.898 1.05 1.743 1.138 1.438 3.187.52 4.152Z"/></g><path fill="#fff" d="M18.433 9.17c.653 0 1.204.45 1.354 1.059a.274.274 0 0 1-.268.34H17.29a.23.23 0 0 1-.227-.272 1.397 1.397 0 0 1 1.37-1.126Z"/><path fill="url(#paint49_radial_13036_4644)" d="M18.226 9.442a.892.892 0 0 1 .86 1.127h-1.723a.895.895 0 0 1 .863-1.127Z"/><path fill="#000" d="M17.716 10.334c0-.284.227-.51.51-.51a.509.509 0 0 1 .454.745h-.904a.462.462 0 0 1-.06-.235Z"/><g filter="url(#filter9_f_13036_4644)"><path fill="#C7A7A3" d="M18.16 9.63c.064.086-.069.19-.22.302-.15.113-.263.192-.326.107-.064-.085.007-.245.158-.358.151-.113.325-.135.389-.05Z"/><path fill="url(#paint50_radial_13036_4644)" d="M18.16 9.63c.064.086-.069.19-.22.302-.15.113-.263.192-.326.107-.064-.085.007-.245.158-.358.151-.113.325-.135.389-.05Z"/></g><g filter="url(#filter10_f_13036_4644)"><path fill="url(#paint51_linear_13036_4644)" d="M19.02 10.216a.839.839 0 0 0-.23-.462l-.26.285.117.228.374-.05Z"/></g><path fill="#fff" d="M13.655 9.17c-.652 0-1.204.45-1.354 1.058-.044.175.09.34.268.34h2.23a.23.23 0 0 0 .226-.27 1.4 1.4 0 0 0-1.37-1.128Z"/><path fill="url(#paint52_radial_13036_4644)" d="M13.862 9.442a.892.892 0 0 0-.86 1.127h1.723a.912.912 0 0 0 .033-.235.898.898 0 0 0-.896-.892Z"/><path fill="#000" d="M14.373 10.334a.509.509 0 0 0-.511-.51.509.509 0 0 0-.454.745h.904a.506.506 0 0 0 .06-.235Z"/><g filter="url(#filter11_f_13036_4644)"><path fill="url(#paint53_linear_13036_4644)" d="M14.677 10.23c0-.29-.235-.481-.298-.54l-.288.28.177.36.409-.1Z"/></g><g filter="url(#filter12_f_13036_4644)" transform="rotate(-27.914 13.593 9.823)"><ellipse cx="13.593" cy="9.823" fill="#C7A7A3" fill-opacity=".9" rx=".389" ry=".197"/><ellipse cx="13.593" cy="9.823" fill="url(#paint54_radial_13036_4644)" rx=".389" ry=".197"/></g><path fill="url(#paint55_linear_13036_4644)" d="M20.962 12.174c.066-1.063.13-2.125.184-3.189a1.608 1.608 0 0 1-.184 3.189Z"/><path fill="url(#paint56_radial_13036_4644)" d="M20.962 12.174c.066-1.063.13-2.125.184-3.189a1.608 1.608 0 0 1-.184 3.189Z"/><path fill="url(#paint57_radial_13036_4644)" d="M20.962 12.174c.066-1.063.13-2.125.184-3.189a1.608 1.608 0 0 1-.184 3.189Z"/><path fill="url(#paint58_linear_13036_4644)" d="M10.994 8.977a1.608 1.608 0 0 0 .139 3.197 78.002 78.002 0 0 1-.139-3.197Z"/><path fill="url(#paint59_radial_13036_4644)" d="M10.994 8.977a1.608 1.608 0 0 0 .139 3.197 78.002 78.002 0 0 1-.139-3.197Z"/><g filter="url(#filter13_f_13036_4644)"><path fill="#B57562" d="M11.011 9.637a.955.955 0 0 0 .083 1.878 78.032 78.032 0 0 1-.083-1.878Z"/></g><g filter="url(#filter14_f_13036_4644)"><path fill="#E6AA8B" d="M21.002 11.524c.038-.634.076-1.268.11-1.902a.955.955 0 0 1-.11 1.902Z"/></g><path fill="#87004D" d="M15.197 14.13c.488-.335 1.211-.336 1.705 0a.28.28 0 0 0 .314-.46c-.682-.466-1.656-.466-2.335 0a.28.28 0 0 0 .316.46Z"/><path stroke="url(#paint60_radial_13036_4644)" stroke-linecap="round" stroke-linejoin="round" stroke-width=".1" d="M15.197 14.13c.488-.335 1.211-.336 1.705 0a.28.28 0 0 0 .314-.46c-.682-.466-1.656-.466-2.335 0a.28.28 0 0 0 .316.46Z"/><path stroke="url(#paint61_radial_13036_4644)" stroke-linecap="round" stroke-linejoin="round" stroke-width=".1" d="M15.197 14.13c.488-.335 1.211-.336 1.705 0a.28.28 0 0 0 .314-.46c-.682-.466-1.656-.466-2.335 0a.28.28 0 0 0 .316.46Z"/><g filter="url(#filter15_i_13036_4644)"><rect width="2.648" height=".541" x="12.456" y="8.487" fill="#945E2E" rx=".271"/></g><g filter="url(#filter16_i_13036_4644)"><rect width="2.648" height=".541" x="16.975" y="8.487" fill="#935D2C" rx=".271"/></g><g filter="url(#filter17_f_13036_4644)"><path stroke="url(#paint62_linear_13036_4644)" stroke-linecap="round" stroke-width=".2" d="M17.334 8.71h2.07"/></g><g filter="url(#filter18_f_13036_4644)"><path stroke="url(#paint63_linear_13036_4644)" stroke-linecap="round" stroke-width=".2" d="M12.827 8.71h2.07"/></g><defs><radialGradient id="paint0_radial_13036_4644" cx="0" cy="0" r="1" gradientTransform="matrix(2.02197 9.09668 -14.16842 3.14929 14.022 14.59)" gradientUnits="userSpaceOnUse"><stop stop-color="#A72503"/><stop offset=".674" stop-color="#FC4A2B"/></radialGradient><radialGradient id="paint1_radial_13036_4644" cx="0" cy="0" r="1" gradientTransform="matrix(0 -8.71875 9.5625 0 21.73 24.313)" gradientUnits="userSpaceOnUse"><stop stop-color="#FF6547"/><stop offset="1" stop-color="#FF6646" stop-opacity="0"/></radialGradient><radialGradient id="paint3_radial_13036_4644" cx="0" cy="0" r="1" gradientTransform="rotate(52.035 -8.964 24.325) scale(2.78619 3.42691)" gradientUnits="userSpaceOnUse"><stop offset=".538" stop-color="#CB705B"/><stop offset="1" stop-color="#F2A07F"/></radialGradient><radialGradient id="paint4_radial_13036_4644" cx="0" cy="0" r="1" gradientTransform="matrix(1.25 1 -1.28354 1.60442 13.918 16.625)" gradientUnits="userSpaceOnUse"><stop stop-color="#C77457"/><stop offset="1" stop-color="#C77457" stop-opacity="0"/></radialGradient><radialGradient id="paint7_radial_13036_4644" cx="0" cy="0" r="1" gradientTransform="matrix(-4.625 0 0 -9.0144 10.168 23.313)" gradientUnits="userSpaceOnUse"><stop offset=".723" stop-color="#E45B4E" stop-opacity="0"/><stop offset="1" stop-color="#E45B4E"/></radialGradient><radialGradient id="paint8_radial_13036_4644" cx="0" cy="0" r="1" gradientTransform="matrix(14.39624 1.34674 -.26918 2.87749 16.71 24.842)" gradientUnits="userSpaceOnUse"><stop stop-color="#E1AF9C"/><stop offset="1" stop-color="#E8B39B"/></radialGradient><radialGradient id="paint10_radial_13036_4644" cx="0" cy="0" r="1" gradientTransform="rotate(65.433 -11.819 26.48) scale(1.97537 5.884)" gradientUnits="userSpaceOnUse"><stop offset=".178" stop-color="#A7666B"/><stop offset="1" stop-color="#A7666B" stop-opacity="0"/></radialGradient><radialGradient id="paint11_radial_13036_4644" cx="0" cy="0" r="1" gradientTransform="matrix(-6.4754 2.06133 -.26488 -.8321 28.572 23.91)" gradientUnits="userSpaceOnUse"><stop stop-color="#EFBC96"/><stop offset=".823" stop-color="#EFBC96" stop-opacity="0"/></radialGradient><radialGradient id="paint12_radial_13036_4644" cx="0" cy="0" r="1" gradientTransform="rotate(-127.255 12.758 9.535) scale(3.73328 6.83692)" gradientUnits="userSpaceOnUse"><stop stop-color="#C99575"/><stop offset=".499" stop-color="#C99575" stop-opacity="0"/></radialGradient><radialGradient id="paint13_radial_13036_4644" cx="0" cy="0" r="1" gradientTransform="matrix(.71233 3.34406 -18.37025 3.9131 16.143 24.53)" gradientUnits="userSpaceOnUse"><stop offset=".163" stop-color="#FAC5A7"/><stop offset=".676" stop-color="#EAAD9F"/></radialGradient><radialGradient id="paint14_radial_13036_4644" cx="0" cy="0" r="1" gradientTransform="matrix(2.50774 .0418 -.1419 8.51383 4.806 26.265)" gradientUnits="userSpaceOnUse"><stop stop-color="#D49C7D"/><stop offset="1" stop-color="#D49C7D" stop-opacity="0"/></radialGradient><radialGradient id="paint15_radial_13036_4644" cx="0" cy="0" r="1" gradientTransform="rotate(103.679 6.167 14.37) scale(3.25769 3.86989)" gradientUnits="userSpaceOnUse"><stop offset=".28" stop-color="#FFDCAF"/><stop offset="1" stop-color="#D89E98"/></radialGradient><radialGradient id="paint16_radial_13036_4644" cx="0" cy="0" r="1" gradientTransform="rotate(40.236 -6.175 34.627) scale(.4278 .55097)" gradientUnits="userSpaceOnUse"><stop stop-color="#E6B489"/><stop offset="1" stop-color="#E6B489" stop-opacity="0"/></radialGradient><radialGradient id="paint17_radial_13036_4644" cx="0" cy="0" r="1" gradientTransform="matrix(1.27281 2.6796 -1.218 .57855 10.5 11.892)" gradientUnits="userSpaceOnUse"><stop stop-color="#F8BF95"/><stop offset="1" stop-color="#DC998E"/></radialGradient><radialGradient id="paint18_radial_13036_4644" cx="0" cy="0" r="1" gradientTransform="matrix(.17916 1.19265 -1.0462 .15716 11.3 11.687)" gradientUnits="userSpaceOnUse"><stop offset=".263" stop-color="#D79B77"/><stop offset="1" stop-color="#D79B77" stop-opacity="0"/></radialGradient><radialGradient id="paint19_radial_13036_4644" cx="0" cy="0" r="1" gradientTransform="matrix(-5.22357 0 0 -9.24044 18.85 10.834)" gradientUnits="userSpaceOnUse"><stop stop-color="#FFC59F"/><stop offset="1" stop-color="#C8917D"/></radialGradient><radialGradient id="paint21_radial_13036_4644" cx="0" cy="0" r="1" gradientTransform="matrix(-1.14205 12.95235 -10.72609 -.94575 17.624 4.926)" gradientUnits="userSpaceOnUse"><stop offset=".778" stop-color="#B36E91" stop-opacity="0"/><stop offset="1" stop-color="#B36E91"/></radialGradient><radialGradient id="paint22_radial_13036_4644" cx="0" cy="0" r="1" gradientTransform="matrix(0 -1.33981 1.65801 0 18.49 9.715)" gradientUnits="userSpaceOnUse"><stop offset=".325" stop-color="#E4A38D"/><stop offset="1" stop-color="#E4A38D" stop-opacity="0"/></radialGradient><radialGradient id="paint23_radial_13036_4644" cx="0" cy="0" r="1" gradientTransform="matrix(-.05801 -1.1025 1.19977 -.06313 13.807 9.578)" gradientUnits="userSpaceOnUse"><stop offset=".378" stop-color="#C2847C"/><stop offset="1" stop-color="#C2847C" stop-opacity="0"/></radialGradient><radialGradient id="paint24_radial_13036_4644" cx="0" cy="0" r="1" gradientTransform="matrix(1.20583 0 0 6.12894 11.167 11.219)" gradientUnits="userSpaceOnUse"><stop stop-color="#DBA085"/><stop offset="1" stop-color="#DBA085" stop-opacity="0"/></radialGradient><radialGradient id="paint25_radial_13036_4644" cx="0" cy="0" r="1" gradientTransform="matrix(2.61263 -3.65097 .82695 .59176 10.196 7.835)" gradientUnits="userSpaceOnUse"><stop offset=".451" stop-color="#B67459"/><stop offset="1" stop-color="#B67459" stop-opacity="0"/></radialGradient><radialGradient id="paint26_radial_13036_4644" cx="0" cy="0" r="1" gradientTransform="rotate(-103.259 13.845 1.161) scale(10.5149 11.5824)" gradientUnits="userSpaceOnUse"><stop offset=".924" stop-color="#C17F5F" stop-opacity="0"/><stop offset="1" stop-color="#C17F5F"/></radialGradient><radialGradient id="paint27_radial_13036_4644" cx="0" cy="0" r="1" gradientTransform="matrix(2.0432 .72015 -.43201 1.2257 18 5.457)" gradientUnits="userSpaceOnUse"><stop offset=".258" stop-color="#C17F5F"/><stop offset="1" stop-color="#C17F5F" stop-opacity="0"/></radialGradient><radialGradient id="paint35_radial_13036_4644" cx="0" cy="0" r="1" gradientTransform="rotate(135.131 6.31 8.901) scale(2.59348 1.64842)" gradientUnits="userSpaceOnUse"><stop offset=".94" stop-color="#C27B78" stop-opacity="0"/><stop offset="1" stop-color="#C27B78"/></radialGradient><radialGradient id="paint37_radial_13036_4644" cx="0" cy="0" r="1" gradientTransform="matrix(0 -3.62968 6.43107 0 10.819 9.254)" gradientUnits="userSpaceOnUse"><stop stop-color="#E7B286"/><stop offset="1" stop-color="#E7B286" stop-opacity="0"/></radialGradient><radialGradient id="paint38_radial_13036_4644" cx="0" cy="0" r="1" gradientTransform="matrix(0 -3.62968 6.43107 0 20.9 9.254)" gradientUnits="userSpaceOnUse"><stop stop-color="#F6CB9C"/><stop offset="1" stop-color="#F6CB9C" stop-opacity="0"/></radialGradient><radialGradient id="paint39_radial_13036_4644" cx="0" cy="0" r="1" gradientTransform="rotate(-159.121 10.348 -.365) scale(3.47737 1.85193)" gradientUnits="userSpaceOnUse"><stop stop-color="#FFFFC1"/><stop offset="1" stop-color="#FFFFC1" stop-opacity="0"/></radialGradient><radialGradient id="paint40_radial_13036_4644" cx="0" cy="0" r="1" gradientTransform="matrix(.90437 1.47379 -3.4126 2.0941 15.14 1.391)" gradientUnits="userSpaceOnUse"><stop offset=".287" stop-color="#DDCA94"/><stop offset="1" stop-color="#DDCA94" stop-opacity="0"/></radialGradient><radialGradient id="paint41_radial_13036_4644" cx="0" cy="0" r="1" gradientTransform="matrix(-3.8038 1.37245 -.38199 -1.05869 16.297 2.832)" gradientUnits="userSpaceOnUse"><stop stop-color="#FFFCBE"/><stop offset="1" stop-color="#FFFCBE" stop-opacity="0"/></radialGradient><radialGradient id="paint42_radial_13036_4644" cx="0" cy="0" r="1" gradientTransform="matrix(3.21553 -5.09127 5.6406 3.56248 10.618 7.588)" gradientUnits="userSpaceOnUse"><stop offset=".093" stop-color="#D5A088"/><stop offset=".233" stop-color="#E4B99B"/><stop offset="1" stop-color="#E4B99B" stop-opacity="0"/></radialGradient><radialGradient id="paint43_radial_13036_4644" cx="0" cy="0" r="1" gradientTransform="matrix(3.383 .80017 -.44751 1.89202 19.662 3.992)" gradientUnits="userSpaceOnUse"><stop stop-color="#FFFFC7"/><stop offset="1" stop-color="#FFFFC7" stop-opacity="0"/></radialGradient><radialGradient id="paint44_radial_13036_4644" cx="0" cy="0" r="1" gradientTransform="rotate(-120.119 13.059 -1.8) scale(4.2783 2.38598)" gradientUnits="userSpaceOnUse"><stop stop-color="#E3B593"/><stop offset="1" stop-color="#E4B78D" stop-opacity="0"/></radialGradient><radialGradient id="paint45_radial_13036_4644" cx="0" cy="0" r="1" gradientTransform="matrix(-1.3063 -2.20048 1.57611 -.93564 20.55 8.293)" gradientUnits="userSpaceOnUse"><stop offset=".057" stop-color="#DFB086"/><stop offset="1" stop-color="#DFB086" stop-opacity="0"/></radialGradient><radialGradient id="paint46_radial_13036_4644" cx="0" cy="0" r="1" gradientTransform="matrix(-4.79449 1.15026 -1.24348 -5.18303 20.834 3.875)" gradientUnits="userSpaceOnUse"><stop offset=".652" stop-color="#EBCD93" stop-opacity="0"/><stop offset="1" stop-color="#EBCD93"/></radialGradient><radialGradient id="paint47_radial_13036_4644" cx="0" cy="0" r="1" gradientTransform="rotate(107.002 8.36 9.087) scale(.40094 1.83304)" gradientUnits="userSpaceOnUse"><stop offset=".461" stop-color="#FFED93"/><stop offset="1" stop-color="#FFED93" stop-opacity="0"/></radialGradient><radialGradient id="paint48_radial_13036_4644" cx="0" cy="0" r="1" gradientTransform="matrix(-1.99293 3.75147 -9.67396 -5.13919 19.49 2.928)" gradientUnits="userSpaceOnUse"><stop offset=".651" stop-color="#E1B395" stop-opacity="0"/><stop offset="1" stop-color="#E1B395"/></radialGradient><radialGradient id="paint49_radial_13036_4644" cx="0" cy="0" r="1" gradientTransform="matrix(0 .81066 -1.28944 0 18.224 9.919)" gradientUnits="userSpaceOnUse"><stop offset=".802" stop-color="#925C51"/><stop offset="1" stop-color="#694B43"/><stop offset="1" stop-color="#804D49"/><stop offset="1" stop-color="#85534D"/></radialGradient><radialGradient id="paint50_radial_13036_4644" cx="0" cy="0" r="1" gradientTransform="matrix(-.23173 -.29861 .41112 -.31903 17.996 10.003)" gradientUnits="userSpaceOnUse"><stop offset=".766" stop-color="#FFE6E2" stop-opacity="0"/><stop offset=".966" stop-color="#FFE6E2"/></radialGradient><radialGradient id="paint52_radial_13036_4644" cx="0" cy="0" r="1" gradientTransform="matrix(0 .8107 -1.2895 0 13.864 9.919)" gradientUnits="userSpaceOnUse"><stop offset=".802" stop-color="#925C51"/><stop offset="1" stop-color="#694B43"/><stop offset="1" stop-color="#804D49"/><stop offset="1" stop-color="#85534D"/></radialGradient><radialGradient id="paint54_radial_13036_4644" cx="0" cy="0" r="1" gradientTransform="matrix(-.00773 -.49368 .59342 -.0093 13.58 10.138)" gradientUnits="userSpaceOnUse"><stop offset=".766" stop-color="#FFE6E2" stop-opacity="0"/><stop offset=".966" stop-color="#FFE6E2"/></radialGradient><radialGradient id="paint56_radial_13036_4644" cx="0" cy="0" r="1" gradientTransform="rotate(74.347 3.78 18.587) scale(2.32776 2.22086)" gradientUnits="userSpaceOnUse"><stop offset=".856" stop-color="#CE8D79" stop-opacity="0"/><stop offset="1" stop-color="#CE8D79"/></radialGradient><radialGradient id="paint57_radial_13036_4644" cx="0" cy="0" r="1" gradientTransform="matrix(.78713 -1.08022 .90544 .65978 21.018 10.477)" gradientUnits="userSpaceOnUse"><stop offset=".664" stop-color="#E3A17B"/><stop offset="1" stop-color="#E3A17B" stop-opacity="0"/></radialGradient><radialGradient id="paint59_radial_13036_4644" cx="0" cy="0" r="1" gradientTransform="matrix(-1.67364 -.24475 .24062 -1.64535 11.133 10.576)" gradientUnits="userSpaceOnUse"><stop offset=".775" stop-color="#DCA187" stop-opacity="0"/><stop offset="1" stop-color="#C77937"/><stop offset="1" stop-color="#DCA187"/></radialGradient><radialGradient id="paint60_radial_13036_4644" cx="0" cy="0" r="1" gradientTransform="matrix(.1551 -.37929 .9046 .36994 16.805 14.13)" gradientUnits="userSpaceOnUse"><stop stop-color="#E7B19E"/><stop offset="1" stop-color="#E7B19E" stop-opacity="0"/></radialGradient><radialGradient id="paint61_radial_13036_4644" cx="0" cy="0" r="1" gradientTransform="matrix(.22073 -.23925 .16376 .15108 14.842 14.13)" gradientUnits="userSpaceOnUse"><stop stop-color="#E7B19E"/><stop offset="1" stop-color="#E7B19E" stop-opacity="0"/></radialGradient><linearGradient id="paint2_linear_13036_4644" x1="17.426" x2="17.426" y1="30.357" y2="26.753" gradientUnits="userSpaceOnUse"><stop stop-color="#D73726"/><stop offset="1" stop-color="#D73726" stop-opacity="0"/></linearGradient><linearGradient id="paint5_linear_13036_4644" x1="22.967" x2="24.881" y1="22.469" y2="22.469" gradientUnits="userSpaceOnUse"><stop offset=".17" stop-color="#FF491D"/><stop offset="1" stop-color="#FF6747"/></linearGradient><linearGradient id="paint6_linear_13036_4644" x1="8.98" x2="6.915" y1="23.313" y2="22.849" gradientUnits="userSpaceOnUse"><stop offset=".173" stop-color="#FF5437"/><stop offset="1" stop-color="#FF3A19"/></linearGradient><linearGradient id="paint9_linear_13036_4644" x1="16.051" x2="16.387" y1="29.707" y2="25.82" gradientUnits="userSpaceOnUse"><stop stop-color="#B97586"/><stop offset="1" stop-color="#B97586" stop-opacity="0"/></linearGradient><linearGradient id="paint20_linear_13036_4644" x1="21.197" x2="16.848" y1="12.518" y2="12.518" gradientUnits="userSpaceOnUse"><stop stop-color="#F7C29D"/><stop offset="1" stop-color="#F7C29D" stop-opacity="0"/></linearGradient><linearGradient id="paint28_linear_13036_4644" x1="15.537" x2="16.333" y1="14.385" y2="14.188" gradientUnits="userSpaceOnUse"><stop stop-color="#D89E89"/><stop offset=".522" stop-color="#D39278"/></linearGradient><linearGradient id="paint29_linear_13036_4644" x1="16.096" x2="16.096" y1="14.771" y2="14.419" gradientUnits="userSpaceOnUse"><stop offset=".207" stop-color="#DFA78B"/><stop offset="1" stop-color="#DFA78B" stop-opacity="0"/></linearGradient><linearGradient id="paint30_linear_13036_4644" x1="16.044" x2="16.898" y1="11.662" y2="11.662" gradientUnits="userSpaceOnUse"><stop stop-color="#E1AA8C"/><stop offset="1" stop-color="#FECAA8"/></linearGradient><linearGradient id="paint31_linear_13036_4644" x1="14.972" x2="16.045" y1="11.507" y2="11.566" gradientUnits="userSpaceOnUse"><stop stop-color="#D29879" stop-opacity=".915"/><stop offset=".203" stop-color="#D29879"/><stop offset="1" stop-color="#D29879" stop-opacity="0"/></linearGradient><linearGradient id="paint32_linear_13036_4644" x1="16.044" x2="16.044" y1="12.061" y2="12.912" gradientUnits="userSpaceOnUse"><stop stop-color="#CB8685" stop-opacity="0"/><stop offset=".845" stop-color="#CB8685"/></linearGradient><linearGradient id="paint33_linear_13036_4644" x1="16.044" x2="16.044" y1="9.815" y2="10.234" gradientUnits="userSpaceOnUse"><stop stop-color="#E0A78C"/><stop offset="1" stop-color="#E0A78C" stop-opacity="0"/></linearGradient><linearGradient id="paint34_linear_13036_4644" x1="16.175" x2="16.175" y1="12.734" y2="12.675" gradientUnits="userSpaceOnUse"><stop stop-color="#C27B78"/><stop offset="1" stop-color="#C27B78" stop-opacity="0"/></linearGradient><linearGradient id="paint36_linear_13036_4644" x1="21.403" x2="11.288" y1="5.176" y2="5.176" gradientUnits="userSpaceOnUse"><stop stop-color="#FFF6B9"/><stop offset="1" stop-color="#E7C991"/></linearGradient><linearGradient id="paint51_linear_13036_4644" x1="19.002" x2="18.688" y1="9.973" y2="10.166" gradientUnits="userSpaceOnUse"><stop stop-color="#B4948D"/><stop offset="1" stop-color="#B4948D" stop-opacity="0"/></linearGradient><linearGradient id="paint53_linear_13036_4644" x1="14.607" x2="14.294" y1="9.973" y2="10.166" gradientUnits="userSpaceOnUse"><stop stop-color="#B4948D"/><stop offset="1" stop-color="#B4948D" stop-opacity="0"/></linearGradient><linearGradient id="paint55_linear_13036_4644" x1="22.475" x2="21.269" y1="9.999" y2="12.174" gradientUnits="userSpaceOnUse"><stop stop-color="#F8C5A2"/><stop offset="1" stop-color="#E0A48C"/></linearGradient><linearGradient id="paint58_linear_13036_4644" x1="10.199" x2="11.656" y1="10.703" y2="10.576" gradientUnits="userSpaceOnUse"><stop stop-color="#C48874"/><stop offset="1" stop-color="#BD776C"/></linearGradient><linearGradient id="paint62_linear_13036_4644" x1="19.475" x2="16.657" y1="8.711" y2="8.711" gradientUnits="userSpaceOnUse"><stop offset=".333" stop-color="#A26E44"/><stop offset="1" stop-color="#A26E44" stop-opacity="0"/></linearGradient><linearGradient id="paint63_linear_13036_4644" x1="14.968" x2="12.151" y1="8.711" y2="8.711" gradientUnits="userSpaceOnUse"><stop offset=".333" stop-color="#A26E44"/><stop offset="1" stop-color="#A26E44" stop-opacity="0"/></linearGradient><filter id="filter0_i_13036_4644" width="19.161" height="7.244" x="8.205" y="22.745" color-interpolation-filters="sRGB" filterUnits="userSpaceOnUse"><feFlood flood-opacity="0" result="BackgroundImageFix"/><feBlend in="SourceGraphic" in2="BackgroundImageFix" result="shape"/><feColorMatrix in="SourceAlpha" result="hardAlpha" values="0 0 0 0 0 0 0 0 0 0 0 0 0 0 0 0 0 0 127 0"/><feOffset dx=".5" dy="-.5"/><feGaussianBlur stdDeviation=".75"/><feComposite in2="hardAlpha" k2="-1" k3="1" operator="arithmetic"/><feColorMatrix values="0 0 0 0 0.709804 0 0 0 0 0.435294 0 0 0 0 0.556863 0 0 0 1 0"/><feBlend in2="shape" result="effect1_innerShadow_13036_4644"/></filter><filter id="filter1_i_13036_4644" width="19.009" height="7.177" x="5.218" y="22.813" color-interpolation-filters="sRGB" filterUnits="userSpaceOnUse"><feFlood flood-opacity="0" result="BackgroundImageFix"/><feBlend in="SourceGraphic" in2="BackgroundImageFix" result="shape"/><feColorMatrix in="SourceAlpha" result="hardAlpha" values="0 0 0 0 0 0 0 0 0 0 0 0 0 0 0 0 0 0 127 0"/><feOffset dx=".5" dy="-.3"/><feGaussianBlur stdDeviation=".5"/><feComposite in2="hardAlpha" k2="-1" k3="1" operator="arithmetic"/><feColorMatrix values="0 0 0 0 0.741176 0 0 0 0 0.470588 0 0 0 0 0.533333 0 0 0 1 0"/><feBlend in2="shape" result="effect1_innerShadow_13036_4644"/></filter><filter id="filter2_ii_13036_4644" width="10.962" height="12.532" x="10.985" y="4.668" color-interpolation-filters="sRGB" filterUnits="userSpaceOnUse"><feFlood flood-opacity="0" result="BackgroundImageFix"/><feBlend in="SourceGraphic" in2="BackgroundImageFix" result="shape"/><feColorMatrix in="SourceAlpha" result="hardAlpha" values="0 0 0 0 0 0 0 0 0 0 0 0 0 0 0 0 0 0 127 0"/><feOffset dx=".75"/><feGaussianBlur stdDeviation=".6"/><feComposite in2="hardAlpha" k2="-1" k3="1" operator="arithmetic"/><feColorMatrix values="0 0 0 0 0.843137 0 0 0 0 0.611765 0 0 0 0 0.498039 0 0 0 1 0"/><feBlend in2="shape" result="effect1_innerShadow_13036_4644"/><feColorMatrix in="SourceAlpha" result="hardAlpha" values="0 0 0 0 0 0 0 0 0 0 0 0 0 0 0 0 0 0 127 0"/><feOffset dy=".2"/><feGaussianBlur stdDeviation=".375"/><feComposite in2="hardAlpha" k2="-1" k3="1" operator="arithmetic"/><feColorMatrix values="0 0 0 0 0.776471 0 0 0 0 0.54902 0 0 0 0 0.423529 0 0 0 1 0"/><feBlend in2="effect1_innerShadow_13036_4644" result="effect2_innerShadow_13036_4644"/></filter><filter id="filter3_f_13036_4644" width="1.224" height=".712" x="15.437" y="14.029" color-interpolation-filters="sRGB" filterUnits="userSpaceOnUse"><feFlood flood-opacity="0" result="BackgroundImageFix"/><feBlend in="SourceGraphic" in2="BackgroundImageFix" result="shape"/><feGaussianBlur result="effect1_foregroundBlur_13036_4644" stdDeviation=".05"/></filter><filter id="filter4_f_13036_4644" width="3.753" height="4.821" x="13.899" y="9.087" color-interpolation-filters="sRGB" filterUnits="userSpaceOnUse"><feFlood flood-opacity="0" result="BackgroundImageFix"/><feBlend in="SourceGraphic" in2="BackgroundImageFix" result="shape"/><feGaussianBlur result="effect1_foregroundBlur_13036_4644" stdDeviation=".5"/></filter><filter id="filter5_f_13036_4644" width="2.076" height="3.098" x="15.006" y="9.715" color-interpolation-filters="sRGB" filterUnits="userSpaceOnUse"><feFlood flood-opacity="0" result="BackgroundImageFix"/><feBlend in="SourceGraphic" in2="BackgroundImageFix" result="shape"/><feGaussianBlur result="effect1_foregroundBlur_13036_4644" stdDeviation=".05"/></filter><filter id="filter6_ii_13036_4644" width="12.862" height="8.35" x="9.613" y="1.494" color-interpolation-filters="sRGB" filterUnits="userSpaceOnUse"><feFlood flood-opacity="0" result="BackgroundImageFix"/><feBlend in="SourceGraphic" in2="BackgroundImageFix" result="shape"/><feColorMatrix in="SourceAlpha" result="hardAlpha" values="0 0 0 0 0 0 0 0 0 0 0 0 0 0 0 0 0 0 127 0"/><feOffset dy="-.5"/><feGaussianBlur stdDeviation=".625"/><feComposite in2="hardAlpha" k2="-1" k3="1" operator="arithmetic"/><feColorMatrix values="0 0 0 0 0.913725 0 0 0 0 0.733333 0 0 0 0 0.592157 0 0 0 1 0"/><feBlend in2="shape" result="effect1_innerShadow_13036_4644"/><feColorMatrix in="SourceAlpha" result="hardAlpha" values="0 0 0 0 0 0 0 0 0 0 0 0 0 0 0 0 0 0 127 0"/><feOffset dy="-.2"/><feGaussianBlur stdDeviation=".2"/><feComposite in2="hardAlpha" k2="-1" k3="1" operator="arithmetic"/><feColorMatrix values="0 0 0 0 0.87451 0 0 0 0 0.678431 0 0 0 0 0.556863 0 0 0 1 0"/><feBlend in2="effect1_innerShadow_13036_4644" result="effect2_innerShadow_13036_4644"/></filter><filter id="filter7_f_13036_4644" width="7.079" height="6.487" x="9.718" y="2.332" color-interpolation-filters="sRGB" filterUnits="userSpaceOnUse"><feFlood flood-opacity="0" result="BackgroundImageFix"/><feBlend in="SourceGraphic" in2="BackgroundImageFix" result="shape"/><feGaussianBlur result="effect1_foregroundBlur_13036_4644" stdDeviation=".25"/></filter><filter id="filter8_f_13036_4644" width="6.856" height="6.231" x="15.635" y="2.861" color-interpolation-filters="sRGB" filterUnits="userSpaceOnUse"><feFlood flood-opacity="0" result="BackgroundImageFix"/><feBlend in="SourceGraphic" in2="BackgroundImageFix" result="shape"/><feGaussianBlur result="effect1_foregroundBlur_13036_4644" stdDeviation=".25"/></filter><filter id="filter9_f_13036_4644" width=".786" height=".696" x="17.491" y="9.479" color-interpolation-filters="sRGB" filterUnits="userSpaceOnUse"><feFlood flood-opacity="0" result="BackgroundImageFix"/><feBlend in="SourceGraphic" in2="BackgroundImageFix" result="shape"/><feGaussianBlur result="effect1_foregroundBlur_13036_4644" stdDeviation=".05"/></filter><filter id="filter10_f_13036_4644" width=".891" height=".913" x="18.33" y="9.554" color-interpolation-filters="sRGB" filterUnits="userSpaceOnUse"><feFlood flood-opacity="0" result="BackgroundImageFix"/><feBlend in="SourceGraphic" in2="BackgroundImageFix" result="shape"/><feGaussianBlur result="effect1_foregroundBlur_13036_4644" stdDeviation=".1"/></filter><filter id="filter11_f_13036_4644" width=".986" height="1.04" x="13.891" y="9.491" color-interpolation-filters="sRGB" filterUnits="userSpaceOnUse"><feFlood flood-opacity="0" result="BackgroundImageFix"/><feBlend in="SourceGraphic" in2="BackgroundImageFix" result="shape"/><feGaussianBlur result="effect1_foregroundBlur_13036_4644" stdDeviation=".1"/></filter><filter id="filter12_f_13036_4644" width=".912" height=".704" x="13.137" y="9.471" color-interpolation-filters="sRGB" filterUnits="userSpaceOnUse"><feFlood flood-opacity="0" result="BackgroundImageFix"/><feBlend in="SourceGraphic" in2="BackgroundImageFix" result="shape"/><feGaussianBlur result="effect1_foregroundBlur_13036_4644" stdDeviation=".05"/></filter><filter id="filter13_f_13036_4644" width="1.328" height="2.378" x="10.016" y="9.387" color-interpolation-filters="sRGB" filterUnits="userSpaceOnUse"><feFlood flood-opacity="0" result="BackgroundImageFix"/><feBlend in="SourceGraphic" in2="BackgroundImageFix" result="shape"/><feGaussianBlur result="effect1_foregroundBlur_13036_4644" stdDeviation=".125"/></filter><filter id="filter14_f_13036_4644" width="1.446" height="2.402" x="20.752" y="9.372" color-interpolation-filters="sRGB" filterUnits="userSpaceOnUse"><feFlood flood-opacity="0" result="BackgroundImageFix"/><feBlend in="SourceGraphic" in2="BackgroundImageFix" result="shape"/><feGaussianBlur result="effect1_foregroundBlur_13036_4644" stdDeviation=".125"/></filter><filter id="filter15_i_13036_4644" width="2.748" height=".641" x="12.456" y="8.387" color-interpolation-filters="sRGB" filterUnits="userSpaceOnUse"><feFlood flood-opacity="0" result="BackgroundImageFix"/><feBlend in="SourceGraphic" in2="BackgroundImageFix" result="shape"/><feColorMatrix in="SourceAlpha" result="hardAlpha" values="0 0 0 0 0 0 0 0 0 0 0 0 0 0 0 0 0 0 127 0"/><feOffset dx=".1" dy="-.1"/><feGaussianBlur stdDeviation=".1"/><feComposite in2="hardAlpha" k2="-1" k3="1" operator="arithmetic"/><feColorMatrix values="0 0 0 0 0.470588 0 0 0 0 0.282353 0 0 0 0 0.152941 0 0 0 1 0"/><feBlend in2="shape" result="effect1_innerShadow_13036_4644"/></filter><filter id="filter16_i_13036_4644" width="2.748" height=".641" x="16.975" y="8.387" color-interpolation-filters="sRGB" filterUnits="userSpaceOnUse"><feFlood flood-opacity="0" result="BackgroundImageFix"/><feBlend in="SourceGraphic" in2="BackgroundImageFix" result="shape"/><feColorMatrix in="SourceAlpha" result="hardAlpha" values="0 0 0 0 0 0 0 0 0 0 0 0 0 0 0 0 0 0 127 0"/><feOffset dx=".1" dy="-.1"/><feGaussianBlur stdDeviation=".1"/><feComposite in2="hardAlpha" k2="-1" k3="1" operator="arithmetic"/><feColorMatrix values="0 0 0 0 0.470588 0 0 0 0 0.282353 0 0 0 0 0.152941 0 0 0 1 0"/><feBlend in2="shape" result="effect1_innerShadow_13036_4644"/></filter><filter id="filter17_f_13036_4644" width="2.77" height=".7" x="16.984" y="8.361" color-interpolation-filters="sRGB" filterUnits="userSpaceOnUse"><feFlood flood-opacity="0" result="BackgroundImageFix"/><feBlend in="SourceGraphic" in2="BackgroundImageFix" result="shape"/><feGaussianBlur result="effect1_foregroundBlur_13036_4644" stdDeviation=".125"/></filter><filter id="filter18_f_13036_4644" width="2.77" height=".7" x="12.477" y="8.361" color-interpolation-filters="sRGB" filterUnits="userSpaceOnUse"><feFlood flood-opacity="0" result="BackgroundImageFix"/><feBlend in="SourceGraphic" in2="BackgroundImageFix" result="shape"/><feGaussianBlur result="effect1_foregroundBlur_13036_4644" stdDeviation=".125"/></filter></defs></svg>