<svg xmlns="http://www.w3.org/2000/svg" width="32" height="32" fill="none" viewBox="0 0 32 32"><path fill="url(#paint0_linear_6898_5229)" d="M4 25.942C4 28.174 5.763 30 7.918 30h16.164C26.237 30 28 28.073 28 25.84V6.43c0-1.3-1.59-1.9-2.485-1L20.974 10h-9.812L6.5 5.43c-.9-.9-2.5-.3-2.5 1v19.512Z"/><path fill="url(#paint1_linear_6898_5229)" d="M4 25.942C4 28.174 5.763 30 7.918 30h16.164C26.237 30 28 28.073 28 25.84V6.43c0-1.3-1.59-1.9-2.485-1L20.974 10h-9.812L6.5 5.43c-.9-.9-2.5-.3-2.5 1v19.512Z"/><path fill="url(#paint2_linear_6898_5229)" d="M4 25.942C4 28.174 5.763 30 7.918 30h16.164C26.237 30 28 28.073 28 25.84V6.43c0-1.3-1.59-1.9-2.485-1L20.974 10h-9.812L6.5 5.43c-.9-.9-2.5-.3-2.5 1v19.512Z"/><path fill="url(#paint3_linear_6898_5229)" d="M4 25.942C4 28.174 5.763 30 7.918 30h16.164C26.237 30 28 28.073 28 25.84V6.43c0-1.3-1.59-1.9-2.485-1L20.974 10h-9.812L6.5 5.43c-.9-.9-2.5-.3-2.5 1v19.512Z"/><path fill="url(#paint4_linear_6898_5229)" d="M4 25.942C4 28.174 5.763 30 7.918 30h16.164C26.237 30 28 28.073 28 25.84V6.43c0-1.3-1.59-1.9-2.485-1L20.974 10h-9.812L6.5 5.43c-.9-.9-2.5-.3-2.5 1v19.512Z"/><path fill="url(#paint5_radial_6898_5229)" d="M4 25.942C4 28.174 5.763 30 7.918 30h16.164C26.237 30 28 28.073 28 25.84V6.43c0-1.3-1.59-1.9-2.485-1L20.974 10h-9.812L6.5 5.43c-.9-.9-2.5-.3-2.5 1v19.512Z"/><g filter="url(#filter0_f_6898_5229)"><rect width="2.727" height="3.698" x="5.054" y="21.82" fill="#D67908" rx="1.363"/></g><g filter="url(#filter1_f_6898_5229)"><path fill="url(#paint6_linear_6898_5229)" d="M20.75 10.2c-2.983.108 5.227 4.954 5.227 4.954l1.125-9.062c.055-.461-.364-.954-1.25-.131L21.84 9.913c-.187.184-.408.25-.702.288-.15.02-.236-.006-.386 0Z"/></g><path fill="url(#paint7_linear_6898_5229)" d="m6.133 13.503 2.8-2.6c.32-.3.32-.78 0-1.07L5.918 7.156c-.383-.336-1.175-.226-1.175.607v5.2c0 .834.88 1.02 1.39.54Z"/><g filter="url(#filter2_f_6898_5229)"><path fill="url(#paint8_linear_6898_5229)" d="M26.49 5.652a.38.38 0 0 1 .732.142v2.245l-1.417-.687.686-1.7Z"/></g><g filter="url(#filter3_f_6898_5229)"><path stroke="#FFDF70" stroke-linecap="round" d="m5.446 5.727 3.375 3.22c.754.718.768 1.918.031 2.655v0"/></g><g filter="url(#filter4_f_6898_5229)"><path fill="url(#paint9_linear_6898_5229)" d="m14.805 20.65.065-.015a3.04 3.04 0 0 1 1.438.015c.52.098.832.696.392 1.126l-.55.601c-.27.27-.864.27-1.134 0l-.543-.601c-.449-.508-.168-1.016.332-1.126Z"/></g><path fill="url(#paint10_radial_6898_5229)" d="m15.226 20.207.065-.015a3.03 3.03 0 0 1 1.438.015c.521.098.832.695.392 1.125l-.55.602c-.27.27-.864.27-1.134 0l-.542-.602c-.45-.508-.168-1.016.332-1.125Z"/><g filter="url(#filter5_f_6898_5229)"><ellipse cx="16.27" cy="20.741" fill="url(#paint11_linear_6898_5229)" rx=".762" ry=".274"/></g><g filter="url(#filter6_f_6898_5229)"><path stroke="url(#paint12_linear_6898_5229)" stroke-linecap="round" stroke-miterlimit="10" stroke-width="1.2" d="m24.785 22.892 3.805-1.812"/></g><g filter="url(#filter7_f_6898_5229)"><path stroke="url(#paint13_linear_6898_5229)" stroke-linecap="round" stroke-miterlimit="10" stroke-width="1.2" d="m24.785 24.924 1.927 1.365"/></g><path stroke="url(#paint14_linear_6898_5229)" stroke-linecap="round" stroke-miterlimit="10" stroke-width="1.2" d="m25.566 22.54 3.805-1.813"/><g filter="url(#filter8_f_6898_5229)"><path stroke="#FF8485" stroke-linecap="round" stroke-miterlimit="10" stroke-width=".3" d="m25.566 22.71 3.805-1.812"/></g><g filter="url(#filter9_f_6898_5229)"><ellipse cx="29.606" cy="20.581" fill="#FFDD86" rx=".184" ry=".166" transform="rotate(-22.745 29.606 20.58)"/></g><path stroke="url(#paint15_linear_6898_5229)" stroke-linecap="round" stroke-miterlimit="10" stroke-width="1.2" d="m25.564 24.67 3.801 1.818"/><g filter="url(#filter10_f_6898_5229)"><path stroke="#FF8485" stroke-linecap="round" stroke-miterlimit="10" stroke-width=".3" d="m25.498 24.55 3.802 1.818"/></g><g filter="url(#filter11_f_6898_5229)"><ellipse cx="29.54" cy="26.368" fill="#FFDD86" rx=".184" ry=".166" transform="rotate(28.298 29.54 26.368)"/></g><path stroke="url(#paint16_linear_6898_5229)" stroke-linecap="round" stroke-miterlimit="10" stroke-width="1.2" d="M6.528 24.681 2.727 26.5"/><g filter="url(#filter12_f_6898_5229)"><path stroke="#FF8485" stroke-linecap="round" stroke-miterlimit="10" stroke-width=".3" d="m6.593 24.56-3.801 1.82"/></g><g filter="url(#filter13_f_6898_5229)"><ellipse fill="#FFDD86" rx=".184" ry=".166" transform="scale(-1 1) rotate(-19.477 68.068 31.615)"/></g><path stroke="url(#paint17_linear_6898_5229)" stroke-linecap="round" stroke-miterlimit="10" stroke-width="1.2" d="M6.54 22.524 2.726 20.73"/><g filter="url(#filter14_f_6898_5229)"><path stroke="#FF8485" stroke-linecap="round" stroke-miterlimit="10" stroke-width=".3" d="M6.674 22.499 2.86 20.705"/></g><g filter="url(#filter15_f_6898_5229)"><ellipse fill="#FFDD86" rx=".184" ry=".166" transform="scale(-1 1) rotate(-70.238 12.623 16.051)"/></g><path fill="url(#paint18_linear_6898_5229)" d="M20.418 23.055c0 2.44-1.982 4.336-4.422 4.336-2.44 0-4.313-1.943-4.313-4.383 0 0 1.805 2.133 4.313 0 2.352 2.078 4.422.047 4.422.047Z"/><g filter="url(#filter16_f_6898_5229)"><path fill="url(#paint19_linear_6898_5229)" d="M22.102 10.102h4.585v14.186h-4.585z"/></g><path fill="#FFB915" d="m25.833 13.503-2.8-2.6a.716.716 0 0 1 0-1.07l3.015-2.677c.382-.336 1.175-.226 1.175.607v5.2c0 .834-.88 1.02-1.39.54Z"/><path fill="url(#paint20_linear_6898_5229)" d="m25.833 13.503-2.8-2.6a.716.716 0 0 1 0-1.07l3.015-2.677c.382-.336 1.175-.226 1.175.607v5.2c0 .834-.88 1.02-1.39.54Z"/><g filter="url(#filter17_f_6898_5229)"><path fill="url(#paint21_radial_6898_5229)" d="m26.634 7.367-3.625 3.125 3.546 2.813.079-5.938Z"/></g><g filter="url(#filter18_f_6898_5229)"><path stroke="url(#paint22_linear_6898_5229)" stroke-linecap="round" stroke-width=".5" d="m23.727 10.29 2.532 2.733"/></g><g filter="url(#filter19_f_6898_5229)"><path fill="#FEB33E" d="M5.223 7.5v5.907l3.469-3.09L5.223 7.5Z"/></g><g filter="url(#filter20_f_6898_5229)"><path stroke="#FFE7A3" stroke-linecap="round" stroke-width=".15" d="M5.223 7.727v5.187"/></g><g filter="url(#filter21_f_6898_5229)"><ellipse cx="21.539" cy="19.367" fill="#715167" rx=".164" ry=".227"/></g><g filter="url(#filter22_f_6898_5229)"><path fill="url(#paint23_linear_6898_5229)" d="M18.942 21.524a.364.364 0 0 1-.353-.123c-.8-.936-2.078-2.753-2.218-4.682-.289-2.492 2.563-3.461 3.758-1.703.102.15.23.352.328.535.078.148.277.22.425.143.232-.12.521-.254.716-.311 1.65-.488 3.742 1.469 1.867 3.719-.765 1.052-3.298 2.16-4.523 2.422Z"/></g><g filter="url(#filter23_f_6898_5229)"><path fill="url(#paint24_linear_6898_5229)" d="M11.787 20.893a.363.363 0 0 1-.35.134c-1.125-.184-3.097-.704-4.34-1.973-1.691-1.584-.26-3.97 1.632-3.443.155.042.354.105.527.172.156.06.354-.013.418-.167.09-.218.21-.472.31-.623.872-1.329 3.514-1.198 3.535 1.507.088 1.192-1.024 3.468-1.732 4.393Z"/></g><path fill="url(#paint25_radial_6898_5229)" d="M19.942 20.524a.364.364 0 0 1-.353-.123c-.8-.936-2.078-2.753-2.218-4.682-.289-2.492 2.563-3.461 3.758-1.703.102.15.23.352.328.535.078.148.277.22.425.143.232-.12.521-.254.716-.311 1.65-.488 3.742 1.469 1.867 3.719-.765 1.052-3.298 2.16-4.523 2.422Z"/><path fill="url(#paint26_radial_6898_5229)" d="M19.942 20.524a.364.364 0 0 1-.353-.123c-.8-.936-2.078-2.753-2.218-4.682-.289-2.492 2.563-3.461 3.758-1.703.102.15.23.352.328.535.078.148.277.22.425.143.232-.12.521-.254.716-.311 1.65-.488 3.742 1.469 1.867 3.719-.765 1.052-3.298 2.16-4.523 2.422Z"/><path fill="url(#paint27_radial_6898_5229)" d="M19.942 20.524a.364.364 0 0 1-.353-.123c-.8-.936-2.078-2.753-2.218-4.682-.289-2.492 2.563-3.461 3.758-1.703.102.15.23.352.328.535.078.148.277.22.425.143.232-.12.521-.254.716-.311 1.65-.488 3.742 1.469 1.867 3.719-.765 1.052-3.298 2.16-4.523 2.422Z"/><path fill="url(#paint28_radial_6898_5229)" d="M19.942 20.524a.364.364 0 0 1-.353-.123c-.8-.936-2.078-2.753-2.218-4.682-.289-2.492 2.563-3.461 3.758-1.703.102.15.23.352.328.535.078.148.277.22.425.143.232-.12.521-.254.716-.311 1.65-.488 3.742 1.469 1.867 3.719-.765 1.052-3.298 2.16-4.523 2.422Z"/><g filter="url(#filter24_f_6898_5229)"><path fill="url(#paint29_linear_6898_5229)" d="m20.613 18.031.766-2.656c-.125-.578-.594-1.344-1.031-1.578l-1.016 1.11 1.281 3.124Z"/></g><g filter="url(#filter25_f_6898_5229)"><path fill="url(#paint30_linear_6898_5229)" d="m22.88 16.633 1.413-1.516c.413.3.57.813.57 1.055l-1.984.46Z"/></g><g filter="url(#filter26_f_6898_5229)"><ellipse cx="23.16" cy="14.695" fill="url(#paint31_linear_6898_5229)" rx=".383" ry=".246"/></g><g filter="url(#filter27_f_6898_5229)"><path stroke="url(#paint32_linear_6898_5229)" stroke-linecap="round" stroke-width=".2" d="m21.277 15.313-.648 1.921"/></g><g filter="url(#filter28_f_6898_5229)"><path fill="url(#paint33_linear_6898_5229)" d="m21.817 15.172-.985 2.734 3.031-2.734c-1.012-.588-1.786-.245-2.046 0Z"/></g><g filter="url(#filter29_f_6898_5229)"><path fill="url(#paint34_linear_6898_5229)" d="m20.34 13.797-1.227 1.265-.734-1.015c.672-.774 1.706-.453 1.961-.25Z"/></g><path fill="url(#paint35_radial_6898_5229)" d="M12.058 20.529a.364.364 0 0 0 .353-.123c.8-.936 2.078-2.753 2.218-4.682.289-2.492-2.563-3.461-3.758-1.703a6.1 6.1 0 0 0-.328.535c-.078.148-.277.22-.425.143a4.763 4.763 0 0 0-.716-.311c-1.65-.488-3.742 1.469-1.867 3.719.765 1.052 3.298 2.16 4.523 2.422Z"/><path fill="url(#paint36_radial_6898_5229)" d="M12.058 20.529a.364.364 0 0 0 .353-.123c.8-.936 2.078-2.753 2.218-4.682.289-2.492-2.563-3.461-3.758-1.703a6.1 6.1 0 0 0-.328.535c-.078.148-.277.22-.425.143a4.763 4.763 0 0 0-.716-.311c-1.65-.488-3.742 1.469-1.867 3.719.765 1.052 3.298 2.16 4.523 2.422Z"/><path fill="url(#paint37_radial_6898_5229)" d="M12.058 20.529a.364.364 0 0 0 .353-.123c.8-.936 2.078-2.753 2.218-4.682.289-2.492-2.563-3.461-3.758-1.703a6.1 6.1 0 0 0-.328.535c-.078.148-.277.22-.425.143a4.763 4.763 0 0 0-.716-.311c-1.65-.488-3.742 1.469-1.867 3.719.765 1.052 3.298 2.16 4.523 2.422Z"/><path fill="url(#paint38_radial_6898_5229)" d="M12.058 20.529a.364.364 0 0 0 .353-.123c.8-.936 2.078-2.753 2.218-4.682.289-2.492-2.563-3.461-3.758-1.703a6.1 6.1 0 0 0-.328.535c-.078.148-.277.22-.425.143a4.763 4.763 0 0 0-.716-.311c-1.65-.488-3.742 1.469-1.867 3.719.765 1.052 3.298 2.16 4.523 2.422Z"/><g filter="url(#filter30_f_6898_5229)"><ellipse fill="url(#paint39_linear_6898_5229)" rx=".383" ry=".246" transform="scale(-1 1) rotate(-3.886 193.147 191.861)"/></g><g filter="url(#filter31_f_6898_5229)"><path fill="url(#paint40_linear_6898_5229)" d="m12.762 14.93.719-1.14c.39.265.672.75.672 1.327l-1.188.422-.203-.61Z"/></g><g filter="url(#filter32_f_6898_5229)"><path fill="url(#paint41_linear_6898_5229)" d="m10.418 15.82.813 2.047-2.735-2.047c.61-1.265 1.735-.61 1.922 0Z"/></g><g filter="url(#filter33_f_6898_5229)"><path stroke="url(#paint42_linear_6898_5229)" stroke-linecap="round" stroke-width=".25" d="M13.98 15.586c-.062.542-.45 2.034-1.5 3.672"/></g><defs><filter id="filter0_f_6898_5229" width="5.727" height="6.698" x="3.554" y="20.32" color-interpolation-filters="sRGB" filterUnits="userSpaceOnUse"><feFlood flood-opacity="0" result="BackgroundImageFix"/><feBlend in="SourceGraphic" in2="BackgroundImageFix" result="shape"/><feGaussianBlur result="effect1_foregroundBlur_6898_5229" stdDeviation=".75"/></filter><filter id="filter1_f_6898_5229" width="9.009" height="11.636" x="19.098" y="4.519" color-interpolation-filters="sRGB" filterUnits="userSpaceOnUse"><feFlood flood-opacity="0" result="BackgroundImageFix"/><feBlend in="SourceGraphic" in2="BackgroundImageFix" result="shape"/><feGaussianBlur result="effect1_foregroundBlur_6898_5229" stdDeviation=".5"/></filter><filter id="filter2_f_6898_5229" width="3.417" height="4.625" x="24.805" y="4.414" color-interpolation-filters="sRGB" filterUnits="userSpaceOnUse"><feFlood flood-opacity="0" result="BackgroundImageFix"/><feBlend in="SourceGraphic" in2="BackgroundImageFix" result="shape"/><feGaussianBlur result="effect1_foregroundBlur_6898_5229" stdDeviation=".5"/></filter><filter id="filter3_f_6898_5229" width="8.95" height="10.729" x="2.946" y="3.227" color-interpolation-filters="sRGB" filterUnits="userSpaceOnUse"><feFlood flood-opacity="0" result="BackgroundImageFix"/><feBlend in="SourceGraphic" in2="BackgroundImageFix" result="shape"/><feGaussianBlur result="effect1_foregroundBlur_6898_5229" stdDeviation="1"/></filter><filter id="filter4_f_6898_5229" width="3.661" height="3.024" x="13.748" y="20.056" color-interpolation-filters="sRGB" filterUnits="userSpaceOnUse"><feFlood flood-opacity="0" result="BackgroundImageFix"/><feBlend in="SourceGraphic" in2="BackgroundImageFix" result="shape"/><feGaussianBlur result="effect1_foregroundBlur_6898_5229" stdDeviation=".25"/></filter><filter id="filter5_f_6898_5229" width="2.723" height="1.749" x="14.909" y="19.867" color-interpolation-filters="sRGB" filterUnits="userSpaceOnUse"><feFlood flood-opacity="0" result="BackgroundImageFix"/><feBlend in="SourceGraphic" in2="BackgroundImageFix" result="shape"/><feGaussianBlur result="effect1_foregroundBlur_6898_5229" stdDeviation=".3"/></filter><filter id="filter6_f_6898_5229" width="6.005" height="4.013" x="23.685" y="19.98" color-interpolation-filters="sRGB" filterUnits="userSpaceOnUse"><feFlood flood-opacity="0" result="BackgroundImageFix"/><feBlend in="SourceGraphic" in2="BackgroundImageFix" result="shape"/><feGaussianBlur result="effect1_foregroundBlur_6898_5229" stdDeviation=".25"/></filter><filter id="filter7_f_6898_5229" width="4.127" height="3.566" x="23.685" y="23.823" color-interpolation-filters="sRGB" filterUnits="userSpaceOnUse"><feFlood flood-opacity="0" result="BackgroundImageFix"/><feBlend in="SourceGraphic" in2="BackgroundImageFix" result="shape"/><feGaussianBlur result="effect1_foregroundBlur_6898_5229" stdDeviation=".25"/></filter><filter id="filter8_f_6898_5229" width="5.105" height="3.113" x="24.916" y="20.248" color-interpolation-filters="sRGB" filterUnits="userSpaceOnUse"><feFlood flood-opacity="0" result="BackgroundImageFix"/><feBlend in="SourceGraphic" in2="BackgroundImageFix" result="shape"/><feGaussianBlur result="effect1_foregroundBlur_6898_5229" stdDeviation=".25"/></filter><filter id="filter9_f_6898_5229" width="1.363" height="1.337" x="28.924" y="19.912" color-interpolation-filters="sRGB" filterUnits="userSpaceOnUse"><feFlood flood-opacity="0" result="BackgroundImageFix"/><feBlend in="SourceGraphic" in2="BackgroundImageFix" result="shape"/><feGaussianBlur result="effect1_foregroundBlur_6898_5229" stdDeviation=".25"/></filter><filter id="filter10_f_6898_5229" width="5.102" height="3.119" x="24.848" y="23.899" color-interpolation-filters="sRGB" filterUnits="userSpaceOnUse"><feFlood flood-opacity="0" result="BackgroundImageFix"/><feBlend in="SourceGraphic" in2="BackgroundImageFix" result="shape"/><feGaussianBlur result="effect1_foregroundBlur_6898_5229" stdDeviation=".25"/></filter><filter id="filter11_f_6898_5229" width="1.36" height="1.34" x="28.86" y="25.698" color-interpolation-filters="sRGB" filterUnits="userSpaceOnUse"><feFlood flood-opacity="0" result="BackgroundImageFix"/><feBlend in="SourceGraphic" in2="BackgroundImageFix" result="shape"/><feGaussianBlur result="effect1_foregroundBlur_6898_5229" stdDeviation=".25"/></filter><filter id="filter12_f_6898_5229" width="5.102" height="3.119" x="2.142" y="23.911" color-interpolation-filters="sRGB" filterUnits="userSpaceOnUse"><feFlood flood-opacity="0" result="BackgroundImageFix"/><feBlend in="SourceGraphic" in2="BackgroundImageFix" result="shape"/><feGaussianBlur result="effect1_foregroundBlur_6898_5229" stdDeviation=".25"/></filter><filter id="filter13_f_6898_5229" width="1.364" height="1.336" x="5.964" y="23.837" color-interpolation-filters="sRGB" filterUnits="userSpaceOnUse"><feFlood flood-opacity="0" result="BackgroundImageFix"/><feBlend in="SourceGraphic" in2="BackgroundImageFix" result="shape"/><feGaussianBlur result="effect1_foregroundBlur_6898_5229" stdDeviation=".25"/></filter><filter id="filter14_f_6898_5229" width="5.114" height="3.094" x="2.21" y="20.055" color-interpolation-filters="sRGB" filterUnits="userSpaceOnUse"><feFlood flood-opacity="0" result="BackgroundImageFix"/><feBlend in="SourceGraphic" in2="BackgroundImageFix" result="shape"/><feGaussianBlur result="effect1_foregroundBlur_6898_5229" stdDeviation=".25"/></filter><filter id="filter15_f_6898_5229" width="1.336" height="1.364" x="6.083" y="21.822" color-interpolation-filters="sRGB" filterUnits="userSpaceOnUse"><feFlood flood-opacity="0" result="BackgroundImageFix"/><feBlend in="SourceGraphic" in2="BackgroundImageFix" result="shape"/><feGaussianBlur result="effect1_foregroundBlur_6898_5229" stdDeviation=".25"/></filter><filter id="filter16_f_6898_5229" width="12.585" height="22.186" x="18.102" y="6.102" color-interpolation-filters="sRGB" filterUnits="userSpaceOnUse"><feFlood flood-opacity="0" result="BackgroundImageFix"/><feBlend in="SourceGraphic" in2="BackgroundImageFix" result="shape"/><feGaussianBlur result="effect1_foregroundBlur_6898_5229" stdDeviation="2"/></filter><filter id="filter17_f_6898_5229" width="4.825" height="7.138" x="22.409" y="6.767" color-interpolation-filters="sRGB" filterUnits="userSpaceOnUse"><feFlood flood-opacity="0" result="BackgroundImageFix"/><feBlend in="SourceGraphic" in2="BackgroundImageFix" result="shape"/><feGaussianBlur result="effect1_foregroundBlur_6898_5229" stdDeviation=".3"/></filter><filter id="filter18_f_6898_5229" width="4.531" height="4.734" x="22.727" y="9.289" color-interpolation-filters="sRGB" filterUnits="userSpaceOnUse"><feFlood flood-opacity="0" result="BackgroundImageFix"/><feBlend in="SourceGraphic" in2="BackgroundImageFix" result="shape"/><feGaussianBlur result="effect1_foregroundBlur_6898_5229" stdDeviation=".375"/></filter><filter id="filter19_f_6898_5229" width="4.469" height="6.908" x="4.723" y="6.999" color-interpolation-filters="sRGB" filterUnits="userSpaceOnUse"><feFlood flood-opacity="0" result="BackgroundImageFix"/><feBlend in="SourceGraphic" in2="BackgroundImageFix" result="shape"/><feGaussianBlur result="effect1_foregroundBlur_6898_5229" stdDeviation=".25"/></filter><filter id="filter20_f_6898_5229" width="1.15" height="6.338" x="4.648" y="7.152" color-interpolation-filters="sRGB" filterUnits="userSpaceOnUse"><feFlood flood-opacity="0" result="BackgroundImageFix"/><feBlend in="SourceGraphic" in2="BackgroundImageFix" result="shape"/><feGaussianBlur result="effect1_foregroundBlur_6898_5229" stdDeviation=".25"/></filter><filter id="filter21_f_6898_5229" width="1.128" height="1.253" x="20.975" y="18.741" color-interpolation-filters="sRGB" filterUnits="userSpaceOnUse"><feFlood flood-opacity="0" result="BackgroundImageFix"/><feBlend in="SourceGraphic" in2="BackgroundImageFix" result="shape"/><feGaussianBlur result="effect1_foregroundBlur_6898_5229" stdDeviation=".2"/></filter><filter id="filter22_f_6898_5229" width="9.853" height="9.411" x="15.351" y="13.12" color-interpolation-filters="sRGB" filterUnits="userSpaceOnUse"><feFlood flood-opacity="0" result="BackgroundImageFix"/><feBlend in="SourceGraphic" in2="BackgroundImageFix" result="shape"/><feGaussianBlur result="effect1_foregroundBlur_6898_5229" stdDeviation=".5"/></filter><filter id="filter23_f_6898_5229" width="9.179" height="8.862" x="5.345" y="13.17" color-interpolation-filters="sRGB" filterUnits="userSpaceOnUse"><feFlood flood-opacity="0" result="BackgroundImageFix"/><feBlend in="SourceGraphic" in2="BackgroundImageFix" result="shape"/><feGaussianBlur result="effect1_foregroundBlur_6898_5229" stdDeviation=".5"/></filter><filter id="filter24_f_6898_5229" width="3.047" height="5.234" x="18.832" y="13.297" color-interpolation-filters="sRGB" filterUnits="userSpaceOnUse"><feFlood flood-opacity="0" result="BackgroundImageFix"/><feBlend in="SourceGraphic" in2="BackgroundImageFix" result="shape"/><feGaussianBlur result="effect1_foregroundBlur_6898_5229" stdDeviation=".25"/></filter><filter id="filter25_f_6898_5229" width="2.984" height="2.516" x="22.379" y="14.617" color-interpolation-filters="sRGB" filterUnits="userSpaceOnUse"><feFlood flood-opacity="0" result="BackgroundImageFix"/><feBlend in="SourceGraphic" in2="BackgroundImageFix" result="shape"/><feGaussianBlur result="effect1_foregroundBlur_6898_5229" stdDeviation=".25"/></filter><filter id="filter26_f_6898_5229" width="1.766" height="1.492" x="22.278" y="13.949" color-interpolation-filters="sRGB" filterUnits="userSpaceOnUse"><feFlood flood-opacity="0" result="BackgroundImageFix"/><feBlend in="SourceGraphic" in2="BackgroundImageFix" result="shape"/><feGaussianBlur result="effect1_foregroundBlur_6898_5229" stdDeviation=".25"/></filter><filter id="filter27_f_6898_5229" width="1.348" height="2.622" x="20.279" y="14.963" color-interpolation-filters="sRGB" filterUnits="userSpaceOnUse"><feFlood flood-opacity="0" result="BackgroundImageFix"/><feBlend in="SourceGraphic" in2="BackgroundImageFix" result="shape"/><feGaussianBlur result="effect1_foregroundBlur_6898_5229" stdDeviation=".125"/></filter><filter id="filter28_f_6898_5229" width="4.031" height="4.059" x="20.332" y="14.348" color-interpolation-filters="sRGB" filterUnits="userSpaceOnUse"><feFlood flood-opacity="0" result="BackgroundImageFix"/><feBlend in="SourceGraphic" in2="BackgroundImageFix" result="shape"/><feGaussianBlur result="effect1_foregroundBlur_6898_5229" stdDeviation=".25"/></filter><filter id="filter29_f_6898_5229" width="2.961" height="2.507" x="17.879" y="13.055" color-interpolation-filters="sRGB" filterUnits="userSpaceOnUse"><feFlood flood-opacity="0" result="BackgroundImageFix"/><feBlend in="SourceGraphic" in2="BackgroundImageFix" result="shape"/><feGaussianBlur result="effect1_foregroundBlur_6898_5229" stdDeviation=".25"/></filter><filter id="filter30_f_6898_5229" width="1.765" height="1.494" x="11.676" y="12.784" color-interpolation-filters="sRGB" filterUnits="userSpaceOnUse"><feFlood flood-opacity="0" result="BackgroundImageFix"/><feBlend in="SourceGraphic" in2="BackgroundImageFix" result="shape"/><feGaussianBlur result="effect1_foregroundBlur_6898_5229" stdDeviation=".25"/></filter><filter id="filter31_f_6898_5229" width="2.191" height="2.55" x="12.362" y="13.389" color-interpolation-filters="sRGB" filterUnits="userSpaceOnUse"><feFlood flood-opacity="0" result="BackgroundImageFix"/><feBlend in="SourceGraphic" in2="BackgroundImageFix" result="shape"/><feGaussianBlur result="effect1_foregroundBlur_6898_5229" stdDeviation=".2"/></filter><filter id="filter32_f_6898_5229" width="3.334" height="3.37" x="8.196" y="14.797" color-interpolation-filters="sRGB" filterUnits="userSpaceOnUse"><feFlood flood-opacity="0" result="BackgroundImageFix"/><feBlend in="SourceGraphic" in2="BackgroundImageFix" result="shape"/><feGaussianBlur result="effect1_foregroundBlur_6898_5229" stdDeviation=".15"/></filter><filter id="filter33_f_6898_5229" width="2.75" height="4.922" x="11.856" y="14.961" color-interpolation-filters="sRGB" filterUnits="userSpaceOnUse"><feFlood flood-opacity="0" result="BackgroundImageFix"/><feBlend in="SourceGraphic" in2="BackgroundImageFix" result="shape"/><feGaussianBlur result="effect1_foregroundBlur_6898_5229" stdDeviation=".25"/></filter><linearGradient id="paint0_linear_6898_5229" x1="7.907" x2="7.907" y1="1.35" y2="30.99" gradientUnits="userSpaceOnUse"><stop offset=".288" stop-color="#F2CC26"/><stop offset=".762" stop-color="#E99E20"/><stop offset=".993" stop-color="#E3821D"/><stop offset="1" stop-color="#E3801D"/></linearGradient><linearGradient id="paint1_linear_6898_5229" x1="8.831" x2="1.17" y1="12.033" y2="12.033" gradientUnits="userSpaceOnUse"><stop stop-color="#E99E20" stop-opacity="0"/><stop offset=".993" stop-color="#E3821D"/><stop offset="1" stop-color="#E3801D"/></linearGradient><linearGradient id="paint2_linear_6898_5229" x1="26.791" x2="30.245" y1="12.033" y2="12.033" gradientUnits="userSpaceOnUse"><stop stop-color="#E99E20" stop-opacity="0"/><stop offset=".993" stop-color="#E3821D"/><stop offset="1" stop-color="#E3801D"/></linearGradient><linearGradient id="paint3_linear_6898_5229" x1="16.001" x2="16" y1="-1.595" y2="30.99" gradientUnits="userSpaceOnUse"><stop offset=".771" stop-color="#F59639" stop-opacity="0"/><stop offset="1" stop-color="#FF63C4"/></linearGradient><linearGradient id="paint4_linear_6898_5229" x1="16" x2="16" y1="11.252" y2="32.475" gradientUnits="userSpaceOnUse"><stop offset=".854" stop-color="#fff" stop-opacity="0"/><stop offset=".985" stop-color="#fff"/></linearGradient><linearGradient id="paint6_linear_6898_5229" x1="21.908" x2="28.165" y1="6.852" y2="13.695" gradientUnits="userSpaceOnUse"><stop stop-color="#FFA720"/><stop offset="1" stop-color="#FFA720" stop-opacity="0"/></linearGradient><linearGradient id="paint7_linear_6898_5229" x1="10.602" x2="4.743" y1="10.617" y2="10.07" gradientUnits="userSpaceOnUse"><stop offset=".437" stop-color="#ED8C1B"/><stop offset="1" stop-color="#FFB03A"/></linearGradient><linearGradient id="paint8_linear_6898_5229" x1="27.04" x2="26.444" y1="4.961" y2="7.302" gradientUnits="userSpaceOnUse"><stop offset=".286" stop-color="#FFE792"/><stop offset="1" stop-color="#FFDD65" stop-opacity="0"/></linearGradient><linearGradient id="paint9_linear_6898_5229" x1="15.751" x2="15.079" y1="22.351" y2="23.445" gradientUnits="userSpaceOnUse"><stop stop-color="#E3900E"/><stop offset="1" stop-color="#EA9D26" stop-opacity="0"/></linearGradient><linearGradient id="paint11_linear_6898_5229" x1="17.204" x2="15.68" y1="20.741" y2="20.741" gradientUnits="userSpaceOnUse"><stop stop-color="#fff" stop-opacity=".9"/><stop offset="1" stop-color="#fff" stop-opacity="0"/></linearGradient><linearGradient id="paint12_linear_6898_5229" x1="24.29" x2="28.024" y1="23.236" y2="21.32" gradientUnits="userSpaceOnUse"><stop stop-color="#E88105"/><stop offset="1" stop-color="#E37D02" stop-opacity="0"/></linearGradient><linearGradient id="paint13_linear_6898_5229" x1="24.29" x2="28.024" y1="24.58" y2="26.495" gradientUnits="userSpaceOnUse"><stop offset=".286" stop-color="#DE7D07"/><stop offset=".818" stop-color="#E37D02" stop-opacity="0"/></linearGradient><linearGradient id="paint14_linear_6898_5229" x1="25.29" x2="29.371" y1="22.945" y2="21.008" gradientUnits="userSpaceOnUse"><stop offset=".156" stop-color="#D64A38"/><stop offset="1" stop-color="#FB7425"/></linearGradient><linearGradient id="paint15_linear_6898_5229" x1="25.074" x2="29.146" y1="24.71" y2="26.665" gradientUnits="userSpaceOnUse"><stop offset=".156" stop-color="#D64A38"/><stop offset="1" stop-color="#FB7425"/></linearGradient><linearGradient id="paint16_linear_6898_5229" x1="7.018" x2="2.945" y1="24.721" y2="26.677" gradientUnits="userSpaceOnUse"><stop offset=".156" stop-color="#D64A38"/><stop offset="1" stop-color="#FB7425"/></linearGradient><linearGradient id="paint17_linear_6898_5229" x1="6.818" x2="2.728" y1="22.929" y2="21.012" gradientUnits="userSpaceOnUse"><stop offset=".156" stop-color="#D64A38"/><stop offset="1" stop-color="#FB7425"/></linearGradient><linearGradient id="paint18_linear_6898_5229" x1="16.047" x2="16.047" y1="27.523" y2="23.1" gradientUnits="userSpaceOnUse"><stop stop-color="#E61E27"/><stop offset="1" stop-color="#672A7A"/></linearGradient><linearGradient id="paint19_linear_6898_5229" x1="23.352" x2="22.956" y1="10.838" y2="22.889" gradientUnits="userSpaceOnUse"><stop offset=".548" stop-color="#FFDD65"/><stop offset="1" stop-color="#FFDD65" stop-opacity="0"/></linearGradient><linearGradient id="paint20_linear_6898_5229" x1="26.54" x2="25.29" y1="15.508" y2="12.039" gradientUnits="userSpaceOnUse"><stop stop-color="#EF8A47"/><stop offset="1" stop-color="#EF8A47" stop-opacity="0"/></linearGradient><linearGradient id="paint22_linear_6898_5229" x1="25.055" x2="25.055" y1="10.477" y2="12.82" gradientUnits="userSpaceOnUse"><stop offset=".432" stop-color="#FFE7A3"/><stop offset="1" stop-color="#FFDF83" stop-opacity="0"/></linearGradient><linearGradient id="paint23_linear_6898_5229" x1="18.625" x2="14.688" y1="20" y2="24.938" gradientUnits="userSpaceOnUse"><stop stop-color="#D68406"/><stop offset="1" stop-color="#DC8C10" stop-opacity="0"/></linearGradient><linearGradient id="paint24_linear_6898_5229" x1="10.644" x2="10.815" y1="20.022" y2="25.852" gradientUnits="userSpaceOnUse"><stop stop-color="#DA8503"/><stop offset="1" stop-color="#DC8C10" stop-opacity="0"/></linearGradient><linearGradient id="paint29_linear_6898_5229" x1="21.942" x2="18.988" y1="16" y2="11.984" gradientUnits="userSpaceOnUse"><stop stop-color="#FF7D9C"/><stop offset="1" stop-color="#F9698B" stop-opacity="0"/></linearGradient><linearGradient id="paint30_linear_6898_5229" x1="24.41" x2="23.239" y1="15.375" y2="15.16" gradientUnits="userSpaceOnUse"><stop stop-color="#FF7D9C"/><stop offset="1" stop-color="#F9698B" stop-opacity="0"/></linearGradient><linearGradient id="paint31_linear_6898_5229" x1="23.309" x2="22.83" y1="14.355" y2="14.406" gradientUnits="userSpaceOnUse"><stop stop-color="#FF7D9C"/><stop offset="1" stop-color="#F9698B" stop-opacity="0"/></linearGradient><linearGradient id="paint32_linear_6898_5229" x1="21.277" x2="20.629" y1="15.219" y2="17.531" gradientUnits="userSpaceOnUse"><stop stop-color="#FF99B1"/><stop offset="1" stop-color="#FF8AA6" stop-opacity="0"/></linearGradient><linearGradient id="paint33_linear_6898_5229" x1="21.145" x2="22.846" y1="16.859" y2="14.28" gradientUnits="userSpaceOnUse"><stop stop-color="#FF365B"/><stop offset="1" stop-color="#E72044"/></linearGradient><linearGradient id="paint34_linear_6898_5229" x1="18.55" x2="19.083" y1="14.352" y2="13.19" gradientUnits="userSpaceOnUse"><stop stop-color="#FF365B"/><stop offset="1" stop-color="#E72044"/></linearGradient><linearGradient id="paint39_linear_6898_5229" x1=".531" x2=".052" y1="-.094" y2="-.043" gradientUnits="userSpaceOnUse"><stop stop-color="#FFAABE"/><stop offset="1" stop-color="#F9698B" stop-opacity="0"/></linearGradient><linearGradient id="paint40_linear_6898_5229" x1="14.012" x2="11.479" y1="13.898" y2="14.693" gradientUnits="userSpaceOnUse"><stop stop-color="#FF7D9C"/><stop offset="1" stop-color="#F9698B" stop-opacity="0"/></linearGradient><linearGradient id="paint41_linear_6898_5229" x1="10.965" x2="8.803" y1="16.648" y2="15.09" gradientUnits="userSpaceOnUse"><stop stop-color="#F97292"/><stop offset="1" stop-color="#F46889" stop-opacity="0"/></linearGradient><linearGradient id="paint42_linear_6898_5229" x1="12.635" x2="14.632" y1="18.001" y2="16.753" gradientUnits="userSpaceOnUse"><stop stop-color="#DD2345" stop-opacity="0"/><stop offset=".545" stop-color="#E72044"/><stop offset="1" stop-color="#D12847"/></linearGradient><radialGradient id="paint5_radial_6898_5229" cx="0" cy="0" r="1" gradientTransform="matrix(3.04569 4.424 -8.78922 6.0509 22.175 4.477)" gradientUnits="userSpaceOnUse"><stop stop-color="#FFA720"/><stop offset=".921" stop-color="#FFA720" stop-opacity="0"/></radialGradient><radialGradient id="paint10_radial_6898_5229" cx="0" cy="0" r="1" gradientTransform="matrix(-1.89063 -.95312 .95876 -1.9018 16.446 21.18)" gradientUnits="userSpaceOnUse"><stop stop-color="#EA088B"/><stop offset="1" stop-color="#E61E27"/></radialGradient><radialGradient id="paint21_radial_6898_5229" cx="0" cy="0" r="1" gradientTransform="matrix(4.40625 6.46875 -7.7559 5.283 22.868 7.773)" gradientUnits="userSpaceOnUse"><stop stop-color="#FFDF70"/><stop offset="1" stop-color="#FFDF70" stop-opacity="0"/></radialGradient><radialGradient id="paint25_radial_6898_5229" cx="0" cy="0" r="1" gradientTransform="matrix(-1.03125 6.125 -7.06817 -1.19005 20.613 14.719)" gradientUnits="userSpaceOnUse"><stop stop-color="#F12E52"/><stop offset=".596" stop-color="#FF3B79"/><stop offset="1" stop-color="#FF4EC6"/></radialGradient><radialGradient id="paint26_radial_6898_5229" cx="0" cy="0" r="1" gradientTransform="matrix(2.78123 4.53127 -7.14333 4.38447 20.583 16.344)" gradientUnits="userSpaceOnUse"><stop offset=".635" stop-color="#FFA9BD" stop-opacity="0"/><stop offset=".834" stop-color="#FFA9BD"/></radialGradient><radialGradient id="paint27_radial_6898_5229" cx="0" cy="0" r="1" gradientTransform="rotate(154.537 9.233 10.79) scale(5.37886 13.2766)" gradientUnits="userSpaceOnUse"><stop offset=".767" stop-color="#FFA9BD" stop-opacity="0"/><stop offset=".933" stop-color="#FFA9BD"/></radialGradient><radialGradient id="paint28_radial_6898_5229" cx="0" cy="0" r="1" gradientTransform="matrix(-4.70313 -3.89063 5.75632 -6.95844 20.582 17.406)" gradientUnits="userSpaceOnUse"><stop offset=".649" stop-color="#FFA9BD" stop-opacity="0"/><stop offset=".91" stop-color="#FFA9BD"/></radialGradient><radialGradient id="paint35_radial_6898_5229" cx="0" cy="0" r="1" gradientTransform="rotate(106.617 .356 11.911) scale(6.22887 7.18803)" gradientUnits="userSpaceOnUse"><stop offset=".019" stop-color="#F12E52"/><stop offset=".596" stop-color="#FF3B79"/><stop offset="1" stop-color="#FF4EC6"/></radialGradient><radialGradient id="paint36_radial_6898_5229" cx="0" cy="0" r="1" gradientTransform="matrix(-2.78123 4.53127 -7.14333 -4.38447 11.418 16.349)" gradientUnits="userSpaceOnUse"><stop offset=".635" stop-color="#FFA9BD" stop-opacity="0"/><stop offset=".834" stop-color="#FFA9BD"/></radialGradient><radialGradient id="paint37_radial_6898_5229" cx="0" cy="0" r="1" gradientTransform="matrix(4.85639 2.3125 -5.70792 11.98698 9.793 16.568)" gradientUnits="userSpaceOnUse"><stop offset=".767" stop-color="#FFA9BD" stop-opacity="0"/><stop offset=".933" stop-color="#FFA9BD"/></radialGradient><radialGradient id="paint38_radial_6898_5229" cx="0" cy="0" r="1" gradientTransform="matrix(4.70313 -3.89063 5.75632 6.95844 11.418 17.411)" gradientUnits="userSpaceOnUse"><stop offset=".649" stop-color="#FFA9BD" stop-opacity="0"/><stop offset=".91" stop-color="#FFA9BD"/></radialGradient></defs></svg>