<svg xmlns="http://www.w3.org/2000/svg" width="32" height="32" fill="none" viewBox="0 0 32 32"><g filter="url(#filter0_i_4002_4106)"><path fill="url(#paint0_linear_4002_4106)" d="M25.583 30.352v-.39c0-5.39-4.47-9.77-9.99-9.77-5.52.01-9.99 4.38-9.99 9.77v.39h19.98Z"/><path fill="url(#paint1_radial_4002_4106)" d="M25.583 30.352v-.39c0-5.39-4.47-9.77-9.99-9.77-5.52.01-9.99 4.38-9.99 9.77v.39h19.98Z"/></g><path fill="url(#paint2_radial_4002_4106)" d="M15.583 23.192c-1.46 0-2.64-.911-2.64-2.04v-2.41c0-1.128 1.18-2.04 2.64-2.04 1.46 0 2.64.912 2.64 2.04v2.41c0 1.129-1.18 2.04-2.64 2.04Z"/><path fill="url(#paint3_radial_4002_4106)" d="M21.456 14.663c.404-.013.783-.15 1.09-.372v1.123a2.62 2.62 0 0 1-1.616 2.435c.205-.438.346-.914.417-1.424l.109-1.762Z"/><path fill="url(#paint4_radial_4002_4106)" d="M21.456 14.663c.404-.013.783-.15 1.09-.372v1.123a2.62 2.62 0 0 1-1.616 2.435c.205-.438.346-.914.417-1.424l.109-1.762Z"/><path fill="url(#paint5_radial_4002_4106)" d="M9.73 14.663a1.979 1.979 0 0 1-1.09-.372v1.123a2.62 2.62 0 0 0 1.616 2.435 4.932 4.932 0 0 1-.417-1.424l-.109-1.762Z"/><path fill="url(#paint6_radial_4002_4106)" d="M9.73 14.663a1.979 1.979 0 0 1-1.09-.372v1.123a2.62 2.62 0 0 0 1.616 2.435 4.932 4.932 0 0 1-.417-1.424l-.109-1.762Z"/><g filter="url(#filter1_ii_4002_4106)"><path fill="url(#paint7_radial_4002_4106)" d="M9.771 17.019a4.723 4.723 0 0 0 4.686 4.107h2.276a4.723 4.723 0 0 0 4.686-4.107c.142-2.272.288-5.063.394-7.334a1.748 1.748 0 0 0-1.663-1.727h-1.69a2.922 2.922 0 0 1-2.667-1.74.8.8 0 0 0-.742-.505h-1.535c-2.226 0-4.03 1.825-4.03 4.076 0 2.244.137 4.98.284 7.23Z"/></g><path fill="url(#paint8_radial_4002_4106)" d="M9.774 17.022a4.723 4.723 0 0 0 4.686 4.108h2.276a4.723 4.723 0 0 0 4.686-4.108c.142-2.271.285-5.066.39-7.337a1.748 1.748 0 0 0-1.662-1.727h-1.69a2.922 2.922 0 0 1-2.667-1.74.8.8 0 0 0-.742-.505h-1.535c-2.226 0-4.03 1.825-4.03 4.076 0 2.244.14 4.984.287 7.233Z"/><path fill="url(#paint9_radial_4002_4106)" d="M9.774 17.022a4.723 4.723 0 0 0 4.686 4.108h2.276a4.723 4.723 0 0 0 4.686-4.108c.142-2.271.285-5.066.39-7.337a1.748 1.748 0 0 0-1.662-1.727h-1.69a2.922 2.922 0 0 1-2.667-1.74.8.8 0 0 0-.742-.505h-1.535c-2.226 0-4.03 1.825-4.03 4.076 0 2.244.14 4.984.287 7.233Z"/><path fill="url(#paint10_radial_4002_4106)" d="M9.774 17.022a4.723 4.723 0 0 0 4.686 4.108h2.276a4.723 4.723 0 0 0 4.686-4.108c.142-2.271.285-5.066.39-7.337a1.748 1.748 0 0 0-1.662-1.727h-1.69a2.922 2.922 0 0 1-2.667-1.74.8.8 0 0 0-.742-.505h-1.535c-2.226 0-4.03 1.825-4.03 4.076 0 2.244.14 4.984.287 7.233Z"/><path fill="url(#paint11_radial_4002_4106)" d="M9.774 17.022a4.723 4.723 0 0 0 4.686 4.108h2.276a4.723 4.723 0 0 0 4.686-4.108c.142-2.271.285-5.066.39-7.337a1.748 1.748 0 0 0-1.662-1.727h-1.69a2.922 2.922 0 0 1-2.667-1.74.8.8 0 0 0-.742-.505h-1.535c-2.226 0-4.03 1.825-4.03 4.076 0 2.244.14 4.984.287 7.233Z"/><path fill="url(#paint12_linear_4002_4106)" d="M9.774 17.022a4.723 4.723 0 0 0 4.686 4.108h2.276a4.723 4.723 0 0 0 4.686-4.108c.142-2.271.285-5.066.39-7.337a1.748 1.748 0 0 0-1.662-1.727h-1.69a2.922 2.922 0 0 1-2.667-1.74.8.8 0 0 0-.742-.505h-1.535c-2.226 0-4.03 1.825-4.03 4.076 0 2.244.14 4.984.287 7.233Z"/><g filter="url(#filter2_f_4002_4106)"><path fill="#EA723B" d="M17.3 8.888a.946.946 0 0 1 1.108.75l.356 1.848-.086-1.382a.946.946 0 0 1 1.888-.118l.197 3.17.327-.674a.989.989 0 1 1 1.78.863l-.817 1.683c-.174.42-.182.808-.19 1.219-.008.374-.017.767-.152 1.221-.236.795-.707 1.433-.913 1.652l-2.634.753c-2.028-.497-2.646-1.653-2.982-2.62a13.163 13.163 0 0 0-.659-1.585l-1.161-2.238a.946.946 0 0 1 1.678-.872l.194.372-.463-1.349a.946.946 0 0 1 1.79-.614l.404 1.18-.415-2.151a.946.946 0 0 1 .75-1.108Z"/></g><g filter="url(#filter3_ii_4002_4106)"><path fill="url(#paint13_linear_4002_4106)" d="M21.448 5.144a2.8 2.8 0 0 1 1.529 1.268c.563.99.48 2.174-.128 3.047a1.88 1.88 0 0 0-.326 1.054v1.433a2.105 2.105 0 0 0-.805-.323l.095-1.938a1.748 1.748 0 0 0-1.663-1.727h-1.69a2.921 2.921 0 0 1-2.666-1.74.801.801 0 0 0-.742-.505h-1.536c-2.226 0-4.03 1.825-4.03 4.076l.038 1.854c-.307.045-.627.147-.869.318v-1.448A1.88 1.88 0 0 0 8.33 9.46a2.883 2.883 0 0 1-.173-2.95 2.827 2.827 0 0 1 1.567-1.358 3.234 3.234 0 0 0 1.67-1.34 2.804 2.804 0 0 1 3.486-1.099c.46.2.979.2 1.44 0 .338-.142.71-.226 1.1-.226 1.016 0 1.905.55 2.398 1.364a3.04 3.04 0 0 0 1.631 1.294Z"/><path fill="url(#paint14_radial_4002_4106)" d="M21.448 5.144a2.8 2.8 0 0 1 1.529 1.268c.563.99.48 2.174-.128 3.047a1.88 1.88 0 0 0-.326 1.054v1.433a2.105 2.105 0 0 0-.805-.323l.095-1.938a1.748 1.748 0 0 0-1.663-1.727h-1.69a2.921 2.921 0 0 1-2.666-1.74.801.801 0 0 0-.742-.505h-1.536c-2.226 0-4.03 1.825-4.03 4.076l.038 1.854c-.307.045-.627.147-.869.318v-1.448A1.88 1.88 0 0 0 8.33 9.46a2.883 2.883 0 0 1-.173-2.95 2.827 2.827 0 0 1 1.567-1.358 3.234 3.234 0 0 0 1.67-1.34 2.804 2.804 0 0 1 3.486-1.099c.46.2.979.2 1.44 0 .338-.142.71-.226 1.1-.226 1.016 0 1.905.55 2.398 1.364a3.04 3.04 0 0 0 1.631 1.294Z"/><path fill="url(#paint15_radial_4002_4106)" d="M21.448 5.144a2.8 2.8 0 0 1 1.529 1.268c.563.99.48 2.174-.128 3.047a1.88 1.88 0 0 0-.326 1.054v1.433a2.105 2.105 0 0 0-.805-.323l.095-1.938a1.748 1.748 0 0 0-1.663-1.727h-1.69a2.921 2.921 0 0 1-2.666-1.74.801.801 0 0 0-.742-.505h-1.536c-2.226 0-4.03 1.825-4.03 4.076l.038 1.854c-.307.045-.627.147-.869.318v-1.448A1.88 1.88 0 0 0 8.33 9.46a2.883 2.883 0 0 1-.173-2.95 2.827 2.827 0 0 1 1.567-1.358 3.234 3.234 0 0 0 1.67-1.34 2.804 2.804 0 0 1 3.486-1.099c.46.2.979.2 1.44 0 .338-.142.71-.226 1.1-.226 1.016 0 1.905.55 2.398 1.364a3.04 3.04 0 0 0 1.631 1.294Z"/><path fill="url(#paint16_radial_4002_4106)" d="M21.448 5.144a2.8 2.8 0 0 1 1.529 1.268c.563.99.48 2.174-.128 3.047a1.88 1.88 0 0 0-.326 1.054v1.433a2.105 2.105 0 0 0-.805-.323l.095-1.938a1.748 1.748 0 0 0-1.663-1.727h-1.69a2.921 2.921 0 0 1-2.666-1.74.801.801 0 0 0-.742-.505h-1.536c-2.226 0-4.03 1.825-4.03 4.076l.038 1.854c-.307.045-.627.147-.869.318v-1.448A1.88 1.88 0 0 0 8.33 9.46a2.883 2.883 0 0 1-.173-2.95 2.827 2.827 0 0 1 1.567-1.358 3.234 3.234 0 0 0 1.67-1.34 2.804 2.804 0 0 1 3.486-1.099c.46.2.979.2 1.44 0 .338-.142.71-.226 1.1-.226 1.016 0 1.905.55 2.398 1.364a3.04 3.04 0 0 0 1.631 1.294Z"/><path fill="url(#paint17_radial_4002_4106)" d="M21.448 5.144a2.8 2.8 0 0 1 1.529 1.268c.563.99.48 2.174-.128 3.047a1.88 1.88 0 0 0-.326 1.054v1.433a2.105 2.105 0 0 0-.805-.323l.095-1.938a1.748 1.748 0 0 0-1.663-1.727h-1.69a2.921 2.921 0 0 1-2.666-1.74.801.801 0 0 0-.742-.505h-1.536c-2.226 0-4.03 1.825-4.03 4.076l.038 1.854c-.307.045-.627.147-.869.318v-1.448A1.88 1.88 0 0 0 8.33 9.46a2.883 2.883 0 0 1-.173-2.95 2.827 2.827 0 0 1 1.567-1.358 3.234 3.234 0 0 0 1.67-1.34 2.804 2.804 0 0 1 3.486-1.099c.46.2.979.2 1.44 0 .338-.142.71-.226 1.1-.226 1.016 0 1.905.55 2.398 1.364a3.04 3.04 0 0 0 1.631 1.294Z"/></g><g filter="url(#filter4_i_4002_4106)"><path fill="#C05029" d="M20.095 9.934c-.211-.184-.457-.379-.83-.496-.366-.116-.826-.147-1.462-.069a.334.334 0 1 0 .082.664c.58-.071.936-.034 1.18.043.24.075.4.197.59.362a.334.334 0 0 0 .44-.504Z"/></g><g filter="url(#filter5_i_4002_4106)"><path fill="#C05029" d="M11.48 9.802a3.345 3.345 0 0 1 2.097-.433.335.335 0 0 1-.082.664 2.677 2.677 0 0 0-1.672.343 1.559 1.559 0 0 0-.09.058l-.02.014-.004.003a.335.335 0 0 1-.41-.529l.18-.12Z"/></g><g filter="url(#filter6_f_4002_4106)"><path fill="url(#paint18_radial_4002_4106)" d="M15.873 6.383a3.069 3.069 0 0 1-.08-.165.8.8 0 0 0-.741-.505h-1.535c-2.226 0-4.03 1.825-4.03 4.076v.332c-.41-.312-.926-.97-.926-2.036 0-1.293.943-1.946 1.544-2.363.17-.117.312-.216.399-.305a5.58 5.58 0 0 0 .12-.127c.422-.447 1.173-1.243 2.484-1.592a6.685 6.685 0 0 1 1.986-.193c.472.023.805.43.805.904v1.958l-.026.016Z"/><path fill="url(#paint19_radial_4002_4106)" d="M15.873 6.383a3.069 3.069 0 0 1-.08-.165.8.8 0 0 0-.741-.505h-1.535c-2.226 0-4.03 1.825-4.03 4.076v.332c-.41-.312-.926-.97-.926-2.036 0-1.293.943-1.946 1.544-2.363.17-.117.312-.216.399-.305a5.58 5.58 0 0 0 .12-.127c.422-.447 1.173-1.243 2.484-1.592a6.685 6.685 0 0 1 1.986-.193c.472.023.805.43.805.904v1.958l-.026.016Z"/></g><g filter="url(#filter7_f_4002_4106)"><path fill="url(#paint20_radial_4002_4106)" d="m21.88 10.45-.035-.761c-.013-.921-.774-1.68-1.695-1.72h-1.69A2.92 2.92 0 0 1 15.9 6.45s-.132-.305-.225-.796c-.185-.985.732-1.716 1.721-1.547 1.252.214 2.765.622 3.855 1.333 2.104 1.372 1.736 3.845.629 5.01Z"/><path fill="url(#paint21_radial_4002_4106)" d="m21.88 10.45-.035-.761c-.013-.921-.774-1.68-1.695-1.72h-1.69A2.92 2.92 0 0 1 15.9 6.45s-.132-.305-.225-.796c-.185-.985.732-1.716 1.721-1.547 1.252.214 2.765.622 3.855 1.333 2.104 1.372 1.736 3.845.629 5.01Z"/><path fill="url(#paint22_radial_4002_4106)" d="m21.88 10.45-.035-.761c-.013-.921-.774-1.68-1.695-1.72h-1.69A2.92 2.92 0 0 1 15.9 6.45s-.132-.305-.225-.796c-.185-.985.732-1.716 1.721-1.547 1.252.214 2.765.622 3.855 1.333 2.104 1.372 1.736 3.845.629 5.01Z"/><path fill="url(#paint23_radial_4002_4106)" d="m21.88 10.45-.035-.761c-.013-.921-.774-1.68-1.695-1.72h-1.69A2.92 2.92 0 0 1 15.9 6.45s-.132-.305-.225-.796c-.185-.985.732-1.716 1.721-1.547 1.252.214 2.765.622 3.855 1.333 2.104 1.372 1.736 3.845.629 5.01Z"/><path fill="url(#paint24_radial_4002_4106)" d="m21.88 10.45-.035-.761c-.013-.921-.774-1.68-1.695-1.72h-1.69A2.92 2.92 0 0 1 15.9 6.45s-.132-.305-.225-.796c-.185-.985.732-1.716 1.721-1.547 1.252.214 2.765.622 3.855 1.333 2.104 1.372 1.736 3.845.629 5.01Z"/></g><path fill="url(#paint25_linear_4002_4106)" d="M21.529 14.773c.08-1.284.156-2.566.223-3.849a1.941 1.941 0 0 1-.223 3.849Z"/><path fill="url(#paint26_radial_4002_4106)" d="M21.529 14.773c.08-1.284.156-2.566.223-3.849a1.941 1.941 0 0 1-.223 3.849Z"/><path fill="url(#paint27_radial_4002_4106)" d="M21.529 14.773c.08-1.284.156-2.566.223-3.849a1.941 1.941 0 0 1-.223 3.849Z"/><path fill="url(#paint28_linear_4002_4106)" d="M9.498 10.914a1.941 1.941 0 0 0 .167 3.86 94.076 94.076 0 0 1-.167-3.86Z"/><path fill="url(#paint29_radial_4002_4106)" d="M9.498 10.914a1.941 1.941 0 0 0 .167 3.86 94.076 94.076 0 0 1-.167-3.86Z"/><g filter="url(#filter8_f_4002_4106)"><path fill="#DD8224" d="M9.518 11.711a1.153 1.153 0 0 0 .1 2.267 94.01 94.01 0 0 1-.1-2.267Z"/></g><g filter="url(#filter9_f_4002_4106)"><path fill="#FFC837" d="M21.577 13.988c.047-.766.091-1.53.133-2.296a1.152 1.152 0 0 1-.133 2.296Z"/></g><g filter="url(#filter10_f_4002_4106)"><path stroke="#C96953" stroke-linecap="round" stroke-width=".25" d="M11.525 10.14c.31-.223 1.082-.614 1.996-.46"/></g><g filter="url(#filter11_f_4002_4106)"><path stroke="#C96953" stroke-linecap="round" stroke-width=".25" d="M19.888 10.084c-.31-.222-1.083-.613-1.997-.46"/></g><g filter="url(#filter12_i_4002_4106)"><path fill="#A05043" fill-rule="evenodd" d="M14.517 12.585c.15.11.183.32.074.47a2.019 2.019 0 0 1-1.641.827 2.046 2.046 0 0 1-1.639-.824.336.336 0 1 1 .538-.403c.255.341.656.555 1.1.555.457 0 .854-.215 1.098-.551.11-.15.32-.183.47-.074Z" clip-rule="evenodd"/></g><path fill="#8E323E" d="M17.643 17.813a2.466 2.466 0 0 0-2.06-1.12c-.862 0-1.618.45-2.059 1.12-.096.143.038.316.192.297h3.726c.153.038.296-.144.2-.297Z"/><g filter="url(#filter13_i_4002_4106)"><path fill="#FFCA3D" d="M18.028 8.089a1.1 1.1 0 0 1 1.289.872l.414 2.15-.1-1.608a1.1 1.1 0 0 1 2.195-.137l.23 3.687.38-.784a1.15 1.15 0 1 1 2.07 1.003l-.95 1.958c-.203.489-.212.94-.222 1.417-.01.435-.019.892-.176 1.42-.275.925-.823 1.667-1.062 1.922l-3.063.875c-2.36-.578-3.078-1.922-3.469-3.047-.312-.9-.64-1.604-.765-1.843l-1.351-2.603a1.1 1.1 0 1 1 1.952-1.014l.225.433-.539-1.569a1.1 1.1 0 0 1 2.081-.714l.471 1.373-.482-2.503a1.1 1.1 0 0 1 .872-1.288Z"/><path fill="url(#paint30_radial_4002_4106)" d="M18.028 8.089a1.1 1.1 0 0 1 1.289.872l.414 2.15-.1-1.608a1.1 1.1 0 0 1 2.195-.137l.23 3.687.38-.784a1.15 1.15 0 1 1 2.07 1.003l-.95 1.958c-.203.489-.212.94-.222 1.417-.01.435-.019.892-.176 1.42-.275.925-.823 1.667-1.062 1.922l-3.063.875c-2.36-.578-3.078-1.922-3.469-3.047-.312-.9-.64-1.604-.765-1.843l-1.351-2.603a1.1 1.1 0 1 1 1.952-1.014l.225.433-.539-1.569a1.1 1.1 0 0 1 2.081-.714l.471 1.373-.482-2.503a1.1 1.1 0 0 1 .872-1.288Z"/><path fill="url(#paint31_radial_4002_4106)" d="M18.028 8.089a1.1 1.1 0 0 1 1.289.872l.414 2.15-.1-1.608a1.1 1.1 0 0 1 2.195-.137l.23 3.687.38-.784a1.15 1.15 0 1 1 2.07 1.003l-.95 1.958c-.203.489-.212.94-.222 1.417-.01.435-.019.892-.176 1.42-.275.925-.823 1.667-1.062 1.922l-3.063.875c-2.36-.578-3.078-1.922-3.469-3.047-.312-.9-.64-1.604-.765-1.843l-1.351-2.603a1.1 1.1 0 1 1 1.952-1.014l.225.433-.539-1.569a1.1 1.1 0 0 1 2.081-.714l.471 1.373-.482-2.503a1.1 1.1 0 0 1 .872-1.288Z"/><path fill="url(#paint32_radial_4002_4106)" d="M18.028 8.089a1.1 1.1 0 0 1 1.289.872l.414 2.15-.1-1.608a1.1 1.1 0 0 1 2.195-.137l.23 3.687.38-.784a1.15 1.15 0 1 1 2.07 1.003l-.95 1.958c-.203.489-.212.94-.222 1.417-.01.435-.019.892-.176 1.42-.275.925-.823 1.667-1.062 1.922l-3.063.875c-2.36-.578-3.078-1.922-3.469-3.047-.312-.9-.64-1.604-.765-1.843l-1.351-2.603a1.1 1.1 0 1 1 1.952-1.014l.225.433-.539-1.569a1.1 1.1 0 0 1 2.081-.714l.471 1.373-.482-2.503a1.1 1.1 0 0 1 .872-1.288Z"/><path fill="url(#paint33_radial_4002_4106)" d="M18.028 8.089a1.1 1.1 0 0 1 1.289.872l.414 2.15-.1-1.608a1.1 1.1 0 0 1 2.195-.137l.23 3.687.38-.784a1.15 1.15 0 1 1 2.07 1.003l-.95 1.958c-.203.489-.212.94-.222 1.417-.01.435-.019.892-.176 1.42-.275.925-.823 1.667-1.062 1.922l-3.063.875c-2.36-.578-3.078-1.922-3.469-3.047-.312-.9-.64-1.604-.765-1.843l-1.351-2.603a1.1 1.1 0 1 1 1.952-1.014l.225.433-.539-1.569a1.1 1.1 0 0 1 2.081-.714l.471 1.373-.482-2.503a1.1 1.1 0 0 1 .872-1.288Z"/></g><path fill="url(#paint34_radial_4002_4106)" d="M18.028 8.089a1.1 1.1 0 0 1 1.289.872l.414 2.15-.1-1.608a1.1 1.1 0 0 1 2.195-.137l.23 3.687.38-.784a1.15 1.15 0 1 1 2.07 1.003l-.95 1.958c-.203.489-.212.94-.222 1.417-.01.435-.019.892-.176 1.42-.275.925-.823 1.667-1.062 1.922l-3.063.875c-2.36-.578-3.078-1.922-3.469-3.047-.312-.9-.64-1.604-.765-1.843l-1.351-2.603a1.1 1.1 0 1 1 1.952-1.014l.225.433-.539-1.569a1.1 1.1 0 0 1 2.081-.714l.471 1.373-.482-2.503a1.1 1.1 0 0 1 .872-1.288Z"/><path fill="url(#paint35_radial_4002_4106)" d="M17.74 20.847a.25.25 0 0 1 .182-.302l4.733-1.204a.25.25 0 0 1 .305.183l.274 1.13-5.229 1.268-.264-1.075Z"/><path fill="url(#paint36_linear_4002_4106)" d="M17.74 20.847a.25.25 0 0 1 .182-.302l4.733-1.204a.25.25 0 0 1 .305.183l.274 1.13-5.229 1.268-.264-1.075Z"/><path fill="url(#paint37_linear_4002_4106)" d="M17.177 22.921a1 1 0 0 1 .723-1.22l5.303-1.34a1 1 0 0 1 1.213.719l2.414 9.289h-7.719l-1.934-7.448Z"/><path fill="url(#paint38_radial_4002_4106)" d="M17.177 22.921a1 1 0 0 1 .723-1.22l5.303-1.34a1 1 0 0 1 1.213.719l2.414 9.289h-7.719l-1.934-7.448Z"/><g filter="url(#filter14_f_4002_4106)"><path stroke="url(#paint39_linear_4002_4106)" stroke-linecap="round" d="m18.44 8.849.874 4.906"/></g><g filter="url(#filter15_f_4002_4106)"><path stroke="url(#paint40_linear_4002_4106)" stroke-linecap="round" d="m16.22 10.52 1.36 4"/></g><g filter="url(#filter16_f_4002_4106)"><path stroke="url(#paint41_linear_4002_4106)" stroke-linecap="round" d="m14.502 12.599 1.234 2.719"/></g><g filter="url(#filter17_f_4002_4106)"><path stroke="url(#paint42_linear_4002_4106)" stroke-linecap="round" d="m23.736 12.911-.937 1.89a3.556 3.556 0 0 0-.36 1.782c.079.969-.265 1.828-.64 2.235"/></g><g filter="url(#filter18_f_4002_4106)"><path stroke="url(#paint43_linear_4002_4106)" stroke-linecap="round" d="m20.94 9.224.671 8.437"/></g><defs><radialGradient id="paint1_radial_4002_4106" cx="0" cy="0" r="1" gradientTransform="matrix(-4.99999 1.68754 -3.31861 -9.83267 20.978 26.755)" gradientUnits="userSpaceOnUse"><stop offset=".54" stop-color="#FF5016"/><stop offset="1" stop-color="#FF5016" stop-opacity="0"/></radialGradient><radialGradient id="paint2_radial_4002_4106" cx="0" cy="0" r="1" gradientTransform="matrix(0 3.93285 -3.98995 0 15.583 19.947)" gradientUnits="userSpaceOnUse"><stop offset=".49" stop-color="#F27231"/><stop offset="1" stop-color="#FFA335"/></radialGradient><radialGradient id="paint3_radial_4002_4106" cx="0" cy="0" r="1" gradientTransform="matrix(-.92987 3.82055 -4.53851 -1.1046 22.284 14.29)" gradientUnits="userSpaceOnUse"><stop offset=".043" stop-color="#FFC135"/><stop offset=".909" stop-color="#E26839"/></radialGradient><radialGradient id="paint4_radial_4002_4106" cx="0" cy="0" r="1" gradientTransform="matrix(.35375 .48515 -.41214 .30052 21.385 14.615)" gradientUnits="userSpaceOnUse"><stop stop-color="#E18C2A"/><stop offset="1" stop-color="#E18C2A" stop-opacity="0"/></radialGradient><radialGradient id="paint5_radial_4002_4106" cx="0" cy="0" r="1" gradientTransform="rotate(64.592 -6.966 14.258) scale(3.58066 1.62757)" gradientUnits="userSpaceOnUse"><stop stop-color="#D57A26"/><stop offset="1" stop-color="#D06A3C"/></radialGradient><radialGradient id="paint6_radial_4002_4106" cx="0" cy="0" r="1" gradientTransform="rotate(72.29 -5.022 13.851) scale(1.2626 1.10756)" gradientUnits="userSpaceOnUse"><stop offset=".263" stop-color="#BE691E"/><stop offset=".977" stop-color="#BE691E" stop-opacity="0"/></radialGradient><radialGradient id="paint7_radial_4002_4106" cx="0" cy="0" r="1" gradientTransform="matrix(-6.30491 0 0 -11.1533 18.98 13.156)" gradientUnits="userSpaceOnUse"><stop stop-color="#FFE846"/><stop offset="1" stop-color="#F5A129"/></radialGradient><radialGradient id="paint8_radial_4002_4106" cx="0" cy="0" r="1" gradientTransform="matrix(0 -4.08338 15.8848 0 15.36 20.796)" gradientUnits="userSpaceOnUse"><stop offset=".082" stop-color="#E27426"/><stop offset="1" stop-color="#FFA041" stop-opacity="0"/></radialGradient><radialGradient id="paint9_radial_4002_4106" cx="0" cy="0" r="1" gradientTransform="matrix(-.4855 7.35906 -2.7055 -.17849 21.813 12.876)" gradientUnits="userSpaceOnUse"><stop offset=".39" stop-color="#FFD930"/><stop offset="1" stop-color="#FFD930" stop-opacity="0"/></radialGradient><radialGradient id="paint10_radial_4002_4106" cx="0" cy="0" r="1" gradientTransform="matrix(0 -1.70515 2.05291 0 13.07 11.732)" gradientUnits="userSpaceOnUse"><stop offset=".276" stop-color="#F59632"/><stop offset="1" stop-color="#F59632" stop-opacity="0"/></radialGradient><radialGradient id="paint11_radial_4002_4106" cx="0" cy="0" r="1" gradientTransform="matrix(0 -1.85154 2.4015 0 18.594 11.236)" gradientUnits="userSpaceOnUse"><stop offset=".178" stop-color="#FFBE3A"/><stop offset="1" stop-color="#FFBE3A" stop-opacity="0"/></radialGradient><radialGradient id="paint14_radial_4002_4106" cx="0" cy="0" r="1" gradientTransform="matrix(0 -6.89722 12.2205 0 9.286 11.248)" gradientUnits="userSpaceOnUse"><stop offset=".315" stop-color="#C98537"/><stop offset="1" stop-color="#C98537" stop-opacity="0"/></radialGradient><radialGradient id="paint15_radial_4002_4106" cx="0" cy="0" r="1" gradientTransform="matrix(0 -4.38106 7.76238 0 21.455 11.248)" gradientUnits="userSpaceOnUse"><stop stop-color="#FFB52A"/><stop offset="1" stop-color="#FFB52A" stop-opacity="0"/></radialGradient><radialGradient id="paint16_radial_4002_4106" cx="0" cy="0" r="1" gradientTransform="matrix(-3.92162 -1.49587 .79665 -2.08852 20.546 3.678)" gradientUnits="userSpaceOnUse"><stop stop-color="#FFE639"/><stop offset="1" stop-color="#FFE639" stop-opacity="0"/></radialGradient><radialGradient id="paint17_radial_4002_4106" cx="0" cy="0" r="1" gradientTransform="matrix(1.0916 1.77888 -4.11904 2.52761 14.501 1.758)" gradientUnits="userSpaceOnUse"><stop offset=".287" stop-color="#F3C130"/><stop offset="1" stop-color="#F3C130" stop-opacity="0"/></radialGradient><radialGradient id="paint18_radial_4002_4106" cx="0" cy="0" r="1" gradientTransform="matrix(-4.59123 1.65657 -.46106 -1.27785 15.899 3.497)" gradientUnits="userSpaceOnUse"><stop stop-color="#FFDD30"/><stop offset="1" stop-color="#FFDC2B" stop-opacity="0"/></radialGradient><radialGradient id="paint19_radial_4002_4106" cx="0" cy="0" r="1" gradientTransform="matrix(3.88123 -6.1452 6.80825 4.3 9.043 9.237)" gradientUnits="userSpaceOnUse"><stop offset=".093" stop-color="#D67227"/><stop offset=".233" stop-color="#EF8A23"/><stop offset="1" stop-color="#EF8A23" stop-opacity="0"/></radialGradient><radialGradient id="paint20_radial_4002_4106" cx="0" cy="0" r="1" gradientTransform="matrix(4.08333 .96582 -.54015 2.28368 19.96 4.897)" gradientUnits="userSpaceOnUse"><stop stop-color="#FFEB3B"/><stop offset="1" stop-color="#FFEB3B" stop-opacity="0"/></radialGradient><radialGradient id="paint21_radial_4002_4106" cx="0" cy="0" r="1" gradientTransform="rotate(-120.119 13.899 -1.047) scale(5.16397 2.8799)" gradientUnits="userSpaceOnUse"><stop stop-color="#EB8F29"/><stop offset="1" stop-color="#EB8F29" stop-opacity="0"/></radialGradient><radialGradient id="paint22_radial_4002_4106" cx="0" cy="0" r="1" gradientTransform="rotate(-120.695 13.387 -.942) scale(3.08876 2.21235)" gradientUnits="userSpaceOnUse"><stop offset=".394" stop-color="#E48421"/><stop offset="1" stop-color="#E48421" stop-opacity="0"/></radialGradient><radialGradient id="paint23_radial_4002_4106" cx="0" cy="0" r="1" gradientTransform="rotate(166.509 10.406 3.642) scale(5.95123 6.43351)" gradientUnits="userSpaceOnUse"><stop offset=".735" stop-color="#F29415" stop-opacity="0"/><stop offset="1" stop-color="#F29415"/></radialGradient><radialGradient id="paint24_radial_4002_4106" cx="0" cy="0" r="1" gradientTransform="rotate(107.002 8.175 9.612) scale(.48394 2.21249)" gradientUnits="userSpaceOnUse"><stop offset=".461" stop-color="#FFCE3C"/><stop offset="1" stop-color="#FFCE3C" stop-opacity="0"/></radialGradient><radialGradient id="paint26_radial_4002_4106" cx="0" cy="0" r="1" gradientTransform="matrix(.75804 2.70544 -2.5812 .72323 21.162 12.067)" gradientUnits="userSpaceOnUse"><stop offset=".856" stop-color="#E1943D" stop-opacity="0"/><stop offset="1" stop-color="#E08F2E"/></radialGradient><radialGradient id="paint27_radial_4002_4106" cx="0" cy="0" r="1" gradientTransform="matrix(.95008 -1.30383 1.09287 .79636 21.597 12.724)" gradientUnits="userSpaceOnUse"><stop offset=".664" stop-color="#FFBD22"/><stop offset="1" stop-color="#FFBD22" stop-opacity="0"/></radialGradient><radialGradient id="paint29_radial_4002_4106" cx="0" cy="0" r="1" gradientTransform="matrix(-.49793 2.50374 -2.4614 -.48951 9.246 12.27)" gradientUnits="userSpaceOnUse"><stop offset=".775" stop-color="#C77937" stop-opacity="0"/><stop offset="1" stop-color="#C77937"/></radialGradient><radialGradient id="paint30_radial_4002_4106" cx="0" cy="0" r="1" gradientTransform="matrix(1 2.48437 -.40982 .16496 15.346 12.114)" gradientUnits="userSpaceOnUse"><stop stop-color="#F69202"/><stop offset="1" stop-color="#F69202" stop-opacity="0"/></radialGradient><radialGradient id="paint31_radial_4002_4106" cx="0" cy="0" r="1" gradientTransform="matrix(.98438 3.84375 -.63406 .16238 17.174 9.958)" gradientUnits="userSpaceOnUse"><stop stop-color="#F69202"/><stop offset="1" stop-color="#F69202" stop-opacity="0"/></radialGradient><radialGradient id="paint32_radial_4002_4106" cx="0" cy="0" r="1" gradientTransform="matrix(.65625 4.375 -.54534 .0818 19.455 9.146)" gradientUnits="userSpaceOnUse"><stop stop-color="#F69202"/><stop offset="1" stop-color="#F69202" stop-opacity="0"/></radialGradient><radialGradient id="paint33_radial_4002_4106" cx="0" cy="0" r="1" gradientTransform="rotate(98.227 6.57 15.384) scale(3.93108 .49375)" gradientUnits="userSpaceOnUse"><stop offset=".001" stop-color="#F69202"/><stop offset="1" stop-color="#F69202" stop-opacity="0"/></radialGradient><radialGradient id="paint34_radial_4002_4106" cx="0" cy="0" r="1" gradientTransform="rotate(139.873 10.147 10.42) scale(2.23046 2.64338)" gradientUnits="userSpaceOnUse"><stop offset=".232" stop-color="#FFE549"/><stop offset="1" stop-color="#FFE549" stop-opacity="0"/></radialGradient><radialGradient id="paint35_radial_4002_4106" cx="0" cy="0" r="1" gradientTransform="matrix(-3.96874 1.06253 -.45292 -1.69174 22.94 19.942)" gradientUnits="userSpaceOnUse"><stop stop-color="#FF764C"/><stop offset="1" stop-color="#D54625"/></radialGradient><radialGradient id="paint38_radial_4002_4106" cx="0" cy="0" r="1" gradientTransform="rotate(76.973 -2.063 25.41) scale(8.17927 4.47567)" gradientUnits="userSpaceOnUse"><stop stop-color="#FF9946"/><stop offset="1" stop-color="#FF9946" stop-opacity="0"/></radialGradient><filter id="filter0_i_4002_4106" width="20.98" height="11.16" x="5.603" y="20.192" color-interpolation-filters="sRGB" filterUnits="userSpaceOnUse"><feFlood flood-opacity="0" result="BackgroundImageFix"/><feBlend in="SourceGraphic" in2="BackgroundImageFix" result="shape"/><feColorMatrix in="SourceAlpha" result="hardAlpha" values="0 0 0 0 0 0 0 0 0 0 0 0 0 0 0 0 0 0 127 0"/><feOffset dx="1" dy="1"/><feGaussianBlur stdDeviation="1"/><feComposite in2="hardAlpha" k2="-1" k3="1" operator="arithmetic"/><feColorMatrix values="0 0 0 0 0.819608 0 0 0 0 0.423529 0 0 0 0 0.270588 0 0 0 1 0"/><feBlend in2="shape" result="effect1_innerShadow_4002_4106"/></filter><filter id="filter1_ii_4002_4106" width="13.076" height="15.613" x="9.487" y="5.713" color-interpolation-filters="sRGB" filterUnits="userSpaceOnUse"><feFlood flood-opacity="0" result="BackgroundImageFix"/><feBlend in="SourceGraphic" in2="BackgroundImageFix" result="shape"/><feColorMatrix in="SourceAlpha" result="hardAlpha" values="0 0 0 0 0 0 0 0 0 0 0 0 0 0 0 0 0 0 127 0"/><feOffset dx=".75"/><feGaussianBlur stdDeviation=".6"/><feComposite in2="hardAlpha" k2="-1" k3="1" operator="arithmetic"/><feColorMatrix values="0 0 0 0 0.823529 0 0 0 0 0.623529 0 0 0 0 0.313726 0 0 0 1 0"/><feBlend in2="shape" result="effect1_innerShadow_4002_4106"/><feColorMatrix in="SourceAlpha" result="hardAlpha" values="0 0 0 0 0 0 0 0 0 0 0 0 0 0 0 0 0 0 127 0"/><feOffset dy=".2"/><feGaussianBlur stdDeviation=".375"/><feComposite in2="hardAlpha" k2="-1" k3="1" operator="arithmetic"/><feColorMatrix values="0 0 0 0 0.980392 0 0 0 0 0.54902 0 0 0 0 0.0941176 0 0 0 1 0"/><feBlend in2="effect1_innerShadow_4002_4106" result="effect2_innerShadow_4002_4106"/></filter><filter id="filter2_f_4002_4106" width="12.214" height="13.502" x="12.005" y="7.621" color-interpolation-filters="sRGB" filterUnits="userSpaceOnUse"><feFlood flood-opacity="0" result="BackgroundImageFix"/><feBlend in="SourceGraphic" in2="BackgroundImageFix" result="shape"/><feGaussianBlur result="effect1_foregroundBlur_4002_4106" stdDeviation=".625"/></filter><filter id="filter3_ii_4002_4106" width="15.525" height="9.975" x="7.831" y="1.986" color-interpolation-filters="sRGB" filterUnits="userSpaceOnUse"><feFlood flood-opacity="0" result="BackgroundImageFix"/><feBlend in="SourceGraphic" in2="BackgroundImageFix" result="shape"/><feColorMatrix in="SourceAlpha" result="hardAlpha" values="0 0 0 0 0 0 0 0 0 0 0 0 0 0 0 0 0 0 127 0"/><feOffset dy="-.5"/><feGaussianBlur stdDeviation=".625"/><feComposite in2="hardAlpha" k2="-1" k3="1" operator="arithmetic"/><feColorMatrix values="0 0 0 0 0.945098 0 0 0 0 0.509804 0 0 0 0 0.0627451 0 0 0 1 0"/><feBlend in2="shape" result="effect1_innerShadow_4002_4106"/><feColorMatrix in="SourceAlpha" result="hardAlpha" values="0 0 0 0 0 0 0 0 0 0 0 0 0 0 0 0 0 0 127 0"/><feOffset dy="-.2"/><feGaussianBlur stdDeviation=".2"/><feComposite in2="hardAlpha" k2="-1" k3="1" operator="arithmetic"/><feColorMatrix values="0 0 0 0 0.862745 0 0 0 0 0.486275 0 0 0 0 0.0470588 0 0 0 1 0"/><feBlend in2="effect1_innerShadow_4002_4106" result="effect2_innerShadow_4002_4106"/></filter><filter id="filter4_i_4002_4106" width="2.8" height="1.394" x="17.51" y="9.126" color-interpolation-filters="sRGB" filterUnits="userSpaceOnUse"><feFlood flood-opacity="0" result="BackgroundImageFix"/><feBlend in="SourceGraphic" in2="BackgroundImageFix" result="shape"/><feColorMatrix in="SourceAlpha" result="hardAlpha" values="0 0 0 0 0 0 0 0 0 0 0 0 0 0 0 0 0 0 127 0"/><feOffset dx=".1" dy="-.2"/><feGaussianBlur stdDeviation=".125"/><feComposite in2="hardAlpha" k2="-1" k3="1" operator="arithmetic"/><feColorMatrix values="0 0 0 0 0.603922 0 0 0 0 0.243137 0 0 0 0 0.152941 0 0 0 1 0"/><feBlend in2="shape" result="effect1_innerShadow_4002_4106"/></filter><filter id="filter5_i_4002_4106" width="2.8" height="1.377" x="11.17" y="9.144" color-interpolation-filters="sRGB" filterUnits="userSpaceOnUse"><feFlood flood-opacity="0" result="BackgroundImageFix"/><feBlend in="SourceGraphic" in2="BackgroundImageFix" result="shape"/><feColorMatrix in="SourceAlpha" result="hardAlpha" values="0 0 0 0 0 0 0 0 0 0 0 0 0 0 0 0 0 0 127 0"/><feOffset dx=".1" dy="-.2"/><feGaussianBlur stdDeviation=".125"/><feComposite in2="hardAlpha" k2="-1" k3="1" operator="arithmetic"/><feColorMatrix values="0 0 0 0 0.603922 0 0 0 0 0.243137 0 0 0 0 0.152941 0 0 0 1 0"/><feBlend in2="shape" result="effect1_innerShadow_4002_4106"/></filter><filter id="filter6_f_4002_4106" width="8.338" height="7.623" x="8.061" y="2.997" color-interpolation-filters="sRGB" filterUnits="userSpaceOnUse"><feFlood flood-opacity="0" result="BackgroundImageFix"/><feBlend in="SourceGraphic" in2="BackgroundImageFix" result="shape"/><feGaussianBlur result="effect1_foregroundBlur_4002_4106" stdDeviation=".25"/></filter><filter id="filter7_f_4002_4106" width="8.12" height="7.368" x="15.151" y="3.582" color-interpolation-filters="sRGB" filterUnits="userSpaceOnUse"><feFlood flood-opacity="0" result="BackgroundImageFix"/><feBlend in="SourceGraphic" in2="BackgroundImageFix" result="shape"/><feGaussianBlur result="effect1_foregroundBlur_4002_4106" stdDeviation=".25"/></filter><filter id="filter8_f_4002_4106" width="1.5" height="2.767" x="8.369" y="11.461" color-interpolation-filters="sRGB" filterUnits="userSpaceOnUse"><feFlood flood-opacity="0" result="BackgroundImageFix"/><feBlend in="SourceGraphic" in2="BackgroundImageFix" result="shape"/><feGaussianBlur result="effect1_foregroundBlur_4002_4106" stdDeviation=".125"/></filter><filter id="filter9_f_4002_4106" width="1.642" height="2.796" x="21.327" y="11.442" color-interpolation-filters="sRGB" filterUnits="userSpaceOnUse"><feFlood flood-opacity="0" result="BackgroundImageFix"/><feBlend in="SourceGraphic" in2="BackgroundImageFix" result="shape"/><feGaussianBlur result="effect1_foregroundBlur_4002_4106" stdDeviation=".125"/></filter><filter id="filter10_f_4002_4106" width="2.746" height="1.245" x="11.15" y="9.27" color-interpolation-filters="sRGB" filterUnits="userSpaceOnUse"><feFlood flood-opacity="0" result="BackgroundImageFix"/><feBlend in="SourceGraphic" in2="BackgroundImageFix" result="shape"/><feGaussianBlur result="effect1_foregroundBlur_4002_4106" stdDeviation=".125"/></filter><filter id="filter11_f_4002_4106" width="2.746" height="1.245" x="17.517" y="9.214" color-interpolation-filters="sRGB" filterUnits="userSpaceOnUse"><feFlood flood-opacity="0" result="BackgroundImageFix"/><feBlend in="SourceGraphic" in2="BackgroundImageFix" result="shape"/><feGaussianBlur result="effect1_foregroundBlur_4002_4106" stdDeviation=".125"/></filter><filter id="filter12_i_4002_4106" width="3.412" height="1.562" x="11.244" y="12.321" color-interpolation-filters="sRGB" filterUnits="userSpaceOnUse"><feFlood flood-opacity="0" result="BackgroundImageFix"/><feBlend in="SourceGraphic" in2="BackgroundImageFix" result="shape"/><feColorMatrix in="SourceAlpha" result="hardAlpha" values="0 0 0 0 0 0 0 0 0 0 0 0 0 0 0 0 0 0 127 0"/><feOffset dy="-.2"/><feGaussianBlur stdDeviation=".2"/><feComposite in2="hardAlpha" k2="-1" k3="1" operator="arithmetic"/><feColorMatrix values="0 0 0 0 0.568627 0 0 0 0 0.207843 0 0 0 0 0.298039 0 0 0 1 0"/><feBlend in2="shape" result="effect1_innerShadow_4002_4106"/></filter><filter id="filter13_i_4002_4106" width="11.547" height="12.796" x="13.324" y="8.069" color-interpolation-filters="sRGB" filterUnits="userSpaceOnUse"><feFlood flood-opacity="0" result="BackgroundImageFix"/><feBlend in="SourceGraphic" in2="BackgroundImageFix" result="shape"/><feColorMatrix in="SourceAlpha" result="hardAlpha" values="0 0 0 0 0 0 0 0 0 0 0 0 0 0 0 0 0 0 127 0"/><feOffset dx=".25"/><feGaussianBlur stdDeviation=".75"/><feComposite in2="hardAlpha" k2="-1" k3="1" operator="arithmetic"/><feColorMatrix values="0 0 0 0 0.901961 0 0 0 0 0.592157 0 0 0 0 0.231373 0 0 0 1 0"/><feBlend in2="shape" result="effect1_innerShadow_4002_4106"/></filter><filter id="filter14_f_4002_4106" width="3.875" height="7.906" x="16.939" y="7.349" color-interpolation-filters="sRGB" filterUnits="userSpaceOnUse"><feFlood flood-opacity="0" result="BackgroundImageFix"/><feBlend in="SourceGraphic" in2="BackgroundImageFix" result="shape"/><feGaussianBlur result="effect1_foregroundBlur_4002_4106" stdDeviation=".5"/></filter><filter id="filter15_f_4002_4106" width="4.36" height="7" x="14.721" y="9.021" color-interpolation-filters="sRGB" filterUnits="userSpaceOnUse"><feFlood flood-opacity="0" result="BackgroundImageFix"/><feBlend in="SourceGraphic" in2="BackgroundImageFix" result="shape"/><feGaussianBlur result="effect1_foregroundBlur_4002_4106" stdDeviation=".5"/></filter><filter id="filter16_f_4002_4106" width="4.235" height="5.719" x="13.002" y="11.099" color-interpolation-filters="sRGB" filterUnits="userSpaceOnUse"><feFlood flood-opacity="0" result="BackgroundImageFix"/><feBlend in="SourceGraphic" in2="BackgroundImageFix" result="shape"/><feGaussianBlur result="effect1_foregroundBlur_4002_4106" stdDeviation=".5"/></filter><filter id="filter17_f_4002_4106" width="4.938" height="8.906" x="20.299" y="11.411" color-interpolation-filters="sRGB" filterUnits="userSpaceOnUse"><feFlood flood-opacity="0" result="BackgroundImageFix"/><feBlend in="SourceGraphic" in2="BackgroundImageFix" result="shape"/><feGaussianBlur result="effect1_foregroundBlur_4002_4106" stdDeviation=".5"/></filter><filter id="filter18_f_4002_4106" width="3.672" height="11.438" x="19.439" y="7.724" color-interpolation-filters="sRGB" filterUnits="userSpaceOnUse"><feFlood flood-opacity="0" result="BackgroundImageFix"/><feBlend in="SourceGraphic" in2="BackgroundImageFix" result="shape"/><feGaussianBlur result="effect1_foregroundBlur_4002_4106" stdDeviation=".5"/></filter><linearGradient id="paint0_linear_4002_4106" x1="20.291" x2="5.916" y1="27.442" y2="30.352" gradientUnits="userSpaceOnUse"><stop stop-color="#F84D1B"/><stop offset="1" stop-color="#E5571E"/></linearGradient><linearGradient id="paint12_linear_4002_4106" x1="15.65" x2="15.65" y1="21.13" y2="20.666" gradientUnits="userSpaceOnUse"><stop stop-color="#FA6E5F"/><stop offset="1" stop-color="#FA6E5F" stop-opacity="0"/></linearGradient><linearGradient id="paint13_linear_4002_4106" x1="22.062" x2="9.852" y1="6.326" y2="6.326" gradientUnits="userSpaceOnUse"><stop stop-color="#FFE235"/><stop offset="1" stop-color="#D29935"/></linearGradient><linearGradient id="paint25_linear_4002_4106" x1="23.355" x2="21.9" y1="12.148" y2="14.773" gradientUnits="userSpaceOnUse"><stop stop-color="#FFE343"/><stop offset="1" stop-color="#FFC136"/></linearGradient><linearGradient id="paint28_linear_4002_4106" x1="8.538" x2="10.297" y1="12.997" y2="12.844" gradientUnits="userSpaceOnUse"><stop stop-color="#E39726"/><stop offset="1" stop-color="#D9851D"/></linearGradient><linearGradient id="paint36_linear_4002_4106" x1="20.314" x2="20.396" y1="19.845" y2="20.138" gradientUnits="userSpaceOnUse"><stop offset=".245" stop-color="#D74A13"/><stop offset="1" stop-color="#D74A13" stop-opacity="0"/></linearGradient><linearGradient id="paint37_linear_4002_4106" x1="19.564" x2="26.002" y1="28.536" y2="27.161" gradientUnits="userSpaceOnUse"><stop stop-color="#E5562D"/><stop offset="1" stop-color="#FF8040"/></linearGradient><linearGradient id="paint39_linear_4002_4106" x1="18.789" x2="20.076" y1="9.004" y2="17.959" gradientUnits="userSpaceOnUse"><stop stop-color="#FFE648"/><stop offset="1" stop-color="#FFE648" stop-opacity="0"/></linearGradient><linearGradient id="paint40_linear_4002_4106" x1="16.539" x2="17.352" y1="10.857" y2="14.571" gradientUnits="userSpaceOnUse"><stop stop-color="#FFE648"/><stop offset="1" stop-color="#FFE648" stop-opacity="0"/></linearGradient><linearGradient id="paint41_linear_4002_4106" x1="14.82" x2="15.777" y1="13.092" y2="15.22" gradientUnits="userSpaceOnUse"><stop stop-color="#FFE648"/><stop offset="1" stop-color="#FFE648" stop-opacity="0"/></linearGradient><linearGradient id="paint42_linear_4002_4106" x1="22.385" x2="22.43" y1="13.064" y2="19.129" gradientUnits="userSpaceOnUse"><stop stop-color="#FFE648"/><stop offset="1" stop-color="#FFE648" stop-opacity="0"/></linearGradient><linearGradient id="paint43_linear_4002_4106" x1="21.143" x2="21.408" y1="9.443" y2="18.099" gradientUnits="userSpaceOnUse"><stop stop-color="#FFE648"/><stop offset="1" stop-color="#FFE648" stop-opacity="0"/></linearGradient></defs></svg>