<svg xmlns="http://www.w3.org/2000/svg" width="32" height="32" fill="none" viewBox="0 0 32 32"><path fill="url(#paint0_radial_4002_29)" d="M3.601 28.893c0-5.916 4.854-10.711 10.842-10.711s10.842 4.795 10.842 10.71v.464H3.601v-.463Z"/><path fill="url(#paint1_radial_4002_29)" d="M3.601 28.893c0-5.916 4.854-10.711 10.842-10.711s10.842 4.795 10.842 10.71v.464H3.601v-.463Z"/><path fill="url(#paint2_radial_4002_29)" d="M3.601 28.893c0-5.916 4.854-10.711 10.842-10.711s10.842 4.795 10.842 10.71v.464H3.601v-.463Z"/><path fill="url(#paint3_radial_4002_29)" d="M3.601 28.893c0-5.916 4.854-10.711 10.842-10.711s10.842 4.795 10.842 10.71v.464H3.601v-.463Z"/><path fill="url(#paint4_radial_4002_29)" d="M3.601 28.893c0-5.916 4.854-10.711 10.842-10.711s10.842 4.795 10.842 10.71v.464H3.601v-.463Z"/><path fill="url(#paint5_radial_4002_29)" d="M21.576 29.356h3.71v-.463c0-3.217-1.437-6.103-3.71-8.066v8.53Z"/><path fill="url(#paint6_radial_4002_29)" d="M21.576 29.356h3.71v-.463c0-3.217-1.437-6.103-3.71-8.066v8.53Z"/><path fill="#2B7FDE" d="M7.31 20.826c-2.273 1.964-3.71 4.85-3.71 8.067v.463h3.71v-8.53Z"/><path fill="url(#paint7_radial_4002_29)" d="M7.31 20.826c-2.273 1.964-3.71 4.85-3.71 8.067v.463h3.71v-8.53Z"/><path fill="url(#paint8_radial_4002_29)" d="M7.31 20.826c-2.273 1.964-3.71 4.85-3.71 8.067v.463h3.71v-8.53Z"/><path fill="#814F52" d="M12.63 17.976h3.985v1.383c0 1.1-.892 1.812-1.992 1.812s-1.992-.712-1.992-1.812v-1.383Z"/><path fill="url(#paint9_radial_4002_29)" d="M12.63 17.976h3.985v1.383c0 1.1-.892 1.812-1.992 1.812s-1.992-.712-1.992-1.812v-1.383Z"/><path fill="url(#paint10_radial_4002_29)" d="M12.63 17.976h3.985v1.383c0 1.1-.892 1.812-1.992 1.812s-1.992-.712-1.992-1.812v-1.383Z"/><g filter="url(#filter0_i_4002_29)"><circle cx="9.875" cy="13.164" r="1.671" fill="url(#paint11_radial_4002_29)"/></g><g filter="url(#filter1_f_4002_29)"><circle cx="9.875" cy="13.164" r=".996" fill="url(#paint12_linear_4002_29)"/></g><g filter="url(#filter2_i_4002_29)"><circle cx="19.397" cy="13.164" r="1.671" fill="url(#paint13_linear_4002_29)"/><circle cx="19.397" cy="13.164" r="1.671" fill="url(#paint14_radial_4002_29)"/></g><g filter="url(#filter3_f_4002_29)"><circle cx="19.397" cy="13.164" r=".996" fill="#7A5654"/><circle cx="19.397" cy="13.164" r=".996" fill="url(#paint15_radial_4002_29)"/><circle cx="19.397" cy="13.164" r=".996" fill="url(#paint16_radial_4002_29)"/></g><g filter="url(#filter4_i_4002_29)"><path fill="url(#paint17_linear_4002_29)" d="M9.523 12.55a.665.665 0 0 0 .049.002s-.054-.854-.108-1.441c0-.267.108-.587.322-.747l.161-.16c.269-.214.376-.534.376-.855v-.854a.52.52 0 0 1 .43-.534c.644-.16 1.986-.427 3.92-.427 1.932 0 3.274.267 3.919.427.214.054.43.267.43.534v.854c0 .32.16.64.375.854.503.353.471.546.43.961a46.288 46.288 0 0 0-.108 1.442h.018l-.266 3.962c-.16 1.77-1.553 3.005-3.213 3.005h-3.214c-1.714 0-3.052-1.234-3.213-3.005l-.308-4.017Z"/><path fill="url(#paint18_radial_4002_29)" d="M9.523 12.55a.665.665 0 0 0 .049.002s-.054-.854-.108-1.441c0-.267.108-.587.322-.747l.161-.16c.269-.214.376-.534.376-.855v-.854a.52.52 0 0 1 .43-.534c.644-.16 1.986-.427 3.92-.427 1.932 0 3.274.267 3.919.427.214.054.43.267.43.534v.854c0 .32.16.64.375.854.503.353.471.546.43.961a46.288 46.288 0 0 0-.108 1.442h.018l-.266 3.962c-.16 1.77-1.553 3.005-3.213 3.005h-3.214c-1.714 0-3.052-1.234-3.213-3.005l-.308-4.017Z"/><path fill="url(#paint19_radial_4002_29)" d="M9.523 12.55a.665.665 0 0 0 .049.002s-.054-.854-.108-1.441c0-.267.108-.587.322-.747l.161-.16c.269-.214.376-.534.376-.855v-.854a.52.52 0 0 1 .43-.534c.644-.16 1.986-.427 3.92-.427 1.932 0 3.274.267 3.919.427.214.054.43.267.43.534v.854c0 .32.16.64.375.854.503.353.471.546.43.961a46.288 46.288 0 0 0-.108 1.442h.018l-.266 3.962c-.16 1.77-1.553 3.005-3.213 3.005h-3.214c-1.714 0-3.052-1.234-3.213-3.005l-.308-4.017Z"/></g><path fill="url(#paint20_linear_4002_29)" d="M9.464 11.11c0-.266.108-.586.322-.746l.161-.16c.269-.214.376-.534.376-.855v-.854a.52.52 0 0 1 .43-.534c.644-.16 1.986-.427 3.92-.427 1.932 0 3.274.267 3.919.427.214.054.43.267.43.534v.854c0 .32.16.64.375.854.503.353.471.546.43.961a46.288 46.288 0 0 0-.108 1.442h.018l-.266 3.962c-.16 1.77-1.553 3.005-3.213 3.005h-3.214c-1.714 0-3.052-1.234-3.213-3.005-.14-1.819-.2-3.642-.367-5.457Z"/><path fill="url(#paint21_linear_4002_29)" d="M9.464 11.11c0-.266.108-.586.322-.746l.161-.16c.269-.214.376-.534.376-.855v-.854a.52.52 0 0 1 .43-.534c.644-.16 1.986-.427 3.92-.427 1.932 0 3.274.267 3.919.427.214.054.43.267.43.534v.854c0 .32.16.64.375.854.503.353.471.546.43.961a46.288 46.288 0 0 0-.108 1.442h.018l-.266 3.962c-.16 1.77-1.553 3.005-3.213 3.005h-3.214c-1.714 0-3.052-1.234-3.213-3.005-.14-1.819-.2-3.642-.367-5.457Z"/><path fill="url(#paint22_radial_4002_29)" d="M9.464 11.11c0-.266.108-.586.322-.746l.161-.16c.269-.214.376-.534.376-.855v-.854a.52.52 0 0 1 .43-.534c.644-.16 1.986-.427 3.92-.427 1.932 0 3.274.267 3.919.427.214.054.43.267.43.534v.854c0 .32.16.64.375.854.503.353.471.546.43.961a46.288 46.288 0 0 0-.108 1.442h.018l-.266 3.962c-.16 1.77-1.553 3.005-3.213 3.005h-3.214c-1.714 0-3.052-1.234-3.213-3.005-.14-1.819-.2-3.642-.367-5.457Z"/><g filter="url(#filter5_f_4002_29)"><path fill="url(#paint23_linear_4002_29)" d="m18.595 7.534-3.08 1.027a1.048 1.048 0 0 0 .47 2.033l3.063-.41-.453-2.65Z"/></g><g filter="url(#filter6_i_4002_29)"><path fill="#27151C" d="m19.45 6.68.43.214c.752.373 1.182 1.228 1.02 2.135l-.59 3.043c-.053.314-.26.526-.572.534h-.019s.054-.908.108-1.441c.043-.434-.032-.566-.43-.961-.215-.214-.376-.534-.376-.855v-.854c0-.267-.214-.48-.43-.534-.643-.16-1.986-.427-3.919-.427-1.932 0-3.275.267-3.919.427a.52.52 0 0 0-.43.534v.854c0 .32-.107.641-.375.854l-.161.16c-.215.16-.322.481-.322.748.053.587.107 1.441.107 1.441l-.05-.001a.634.634 0 0 1-.594-.532l-.591-3.043c-.107-.854.322-1.709 1.074-2.082l.43-.214a7.69 7.69 0 0 0 .805-.587l.966-1.014c.59-.534 1.45-.694 2.201-.32.537.16 1.128.16 1.665 0 .805-.268 1.718-.054 2.362.533l.805.801c.215.267.484.427.806.587Z"/><path fill="url(#paint24_radial_4002_29)" d="m19.45 6.68.43.214c.752.373 1.182 1.228 1.02 2.135l-.59 3.043c-.053.314-.26.526-.572.534h-.019s.054-.908.108-1.441c.043-.434-.032-.566-.43-.961-.215-.214-.376-.534-.376-.855v-.854c0-.267-.214-.48-.43-.534-.643-.16-1.986-.427-3.919-.427-1.932 0-3.275.267-3.919.427a.52.52 0 0 0-.43.534v.854c0 .32-.107.641-.375.854l-.161.16c-.215.16-.322.481-.322.748.053.587.107 1.441.107 1.441l-.05-.001a.634.634 0 0 1-.594-.532l-.591-3.043c-.107-.854.322-1.709 1.074-2.082l.43-.214a7.69 7.69 0 0 0 .805-.587l.966-1.014c.59-.534 1.45-.694 2.201-.32.537.16 1.128.16 1.665 0 .805-.268 1.718-.054 2.362.533l.805.801c.215.267.484.427.806.587Z"/><path fill="url(#paint25_radial_4002_29)" d="m19.45 6.68.43.214c.752.373 1.182 1.228 1.02 2.135l-.59 3.043c-.053.314-.26.526-.572.534h-.019s.054-.908.108-1.441c.043-.434-.032-.566-.43-.961-.215-.214-.376-.534-.376-.855v-.854c0-.267-.214-.48-.43-.534-.643-.16-1.986-.427-3.919-.427-1.932 0-3.275.267-3.919.427a.52.52 0 0 0-.43.534v.854c0 .32-.107.641-.375.854l-.161.16c-.215.16-.322.481-.322.748.053.587.107 1.441.107 1.441l-.05-.001a.634.634 0 0 1-.594-.532l-.591-3.043c-.107-.854.322-1.709 1.074-2.082l.43-.214a7.69 7.69 0 0 0 .805-.587l.966-1.014c.59-.534 1.45-.694 2.201-.32.537.16 1.128.16 1.665 0 .805-.268 1.718-.054 2.362.533l.805.801c.215.267.484.427.806.587Z"/><path fill="url(#paint26_radial_4002_29)" d="m19.45 6.68.43.214c.752.373 1.182 1.228 1.02 2.135l-.59 3.043c-.053.314-.26.526-.572.534h-.019s.054-.908.108-1.441c.043-.434-.032-.566-.43-.961-.215-.214-.376-.534-.376-.855v-.854c0-.267-.214-.48-.43-.534-.643-.16-1.986-.427-3.919-.427-1.932 0-3.275.267-3.919.427a.52.52 0 0 0-.43.534v.854c0 .32-.107.641-.375.854l-.161.16c-.215.16-.322.481-.322.748.053.587.107 1.441.107 1.441l-.05-.001a.634.634 0 0 1-.594-.532l-.591-3.043c-.107-.854.322-1.709 1.074-2.082l.43-.214a7.69 7.69 0 0 0 .805-.587l.966-1.014c.59-.534 1.45-.694 2.201-.32.537.16 1.128.16 1.665 0 .805-.268 1.718-.054 2.362.533l.805.801c.215.267.484.427.806.587Z"/><path fill="url(#paint27_radial_4002_29)" d="m19.45 6.68.43.214c.752.373 1.182 1.228 1.02 2.135l-.59 3.043c-.053.314-.26.526-.572.534h-.019s.054-.908.108-1.441c.043-.434-.032-.566-.43-.961-.215-.214-.376-.534-.376-.855v-.854c0-.267-.214-.48-.43-.534-.643-.16-1.986-.427-3.919-.427-1.932 0-3.275.267-3.919.427a.52.52 0 0 0-.43.534v.854c0 .32-.107.641-.375.854l-.161.16c-.215.16-.322.481-.322.748.053.587.107 1.441.107 1.441l-.05-.001a.634.634 0 0 1-.594-.532l-.591-3.043c-.107-.854.322-1.709 1.074-2.082l.43-.214a7.69 7.69 0 0 0 .805-.587l.966-1.014c.59-.534 1.45-.694 2.201-.32.537.16 1.128.16 1.665 0 .805-.268 1.718-.054 2.362.533l.805.801c.215.267.484.427.806.587Z"/></g><g filter="url(#filter7_f_4002_29)"><path fill="#71404A" d="m14.352 13.042-.822 1.7c-.101.35.143.7.49.7h.737c.346 0 .59-.355.489-.7l-.5-1.7c-.106-.377-.282-.377-.394 0Z"/></g><g filter="url(#filter8_f_4002_29)"><path fill="#8C5F5E" d="m14.245 12.879-.532 1.7a.54.54 0 0 0 .52.7h.788a.54.54 0 0 0 .52-.7l-.531-1.7c-.114-.377-.646-.377-.765 0Z"/><path fill="url(#paint28_linear_4002_29)" d="m14.245 12.879-.532 1.7a.54.54 0 0 0 .52.7h.788a.54.54 0 0 0 .52-.7l-.531-1.7c-.114-.377-.646-.377-.765 0Z"/><path fill="url(#paint29_linear_4002_29)" d="m14.245 12.879-.532 1.7a.54.54 0 0 0 .52.7h.788a.54.54 0 0 0 .52-.7l-.531-1.7c-.114-.377-.646-.377-.765 0Z"/><path fill="url(#paint30_linear_4002_29)" d="m14.245 12.879-.532 1.7a.54.54 0 0 0 .52.7h.788a.54.54 0 0 0 .52-.7l-.531-1.7c-.114-.377-.646-.377-.765 0Z"/><path fill="url(#paint31_radial_4002_29)" d="m14.245 12.879-.532 1.7a.54.54 0 0 0 .52.7h.788a.54.54 0 0 0 .52-.7l-.531-1.7c-.114-.377-.646-.377-.765 0Z"/></g><path fill="#88014F" stroke="url(#paint32_linear_4002_29)" stroke-width=".1" d="M13.264 15.924a2.96 2.96 0 0 0 1.363.323c.505 0 .97-.118 1.364-.323a.204.204 0 0 1 .242.04.19.19 0 0 1 .02.241m-2.99-.281 2.949.253m-2.948-.253a.203.203 0 0 0-.242.042.187.187 0 0 0-.02.24m.262-.282-.221.253m3.21.028-.041-.028m.041.028-.041-.028m.041.028a1.945 1.945 0 0 1-1.626.869 1.944 1.944 0 0 1-1.626-.869m3.21-.028a1.892 1.892 0 0 1-1.584.847c-.665 0-1.25-.339-1.584-.847m-.042.028.042-.028m-.042.028.042-.028"/><g filter="url(#filter9_i_4002_29)"><path fill="#352827" d="M18.35 10.441h-.001l-.002-.002-.004-.004-.012-.01a1.97 1.97 0 0 0-.155-.108c-.1-.061-.242-.14-.42-.21a2.835 2.835 0 0 0-1.495-.158.534.534 0 0 0 .167 1.055c.398-.063.717.01.935.097a1.519 1.519 0 0 1 .308.165.534.534 0 0 0 .68-.825Z"/><path fill="url(#paint33_radial_4002_29)" d="M18.35 10.441h-.001l-.002-.002-.004-.004-.012-.01a1.97 1.97 0 0 0-.155-.108c-.1-.061-.242-.14-.42-.21a2.835 2.835 0 0 0-1.495-.158.534.534 0 0 0 .167 1.055c.398-.063.717.01.935.097a1.519 1.519 0 0 1 .308.165.534.534 0 0 0 .68-.825Z"/></g><g filter="url(#filter10_i_4002_29)"><path fill="#352827" d="m10.85 10.442.002-.002.002-.001.004-.004.012-.01a1.591 1.591 0 0 1 .155-.107c.1-.062.241-.14.42-.21.36-.143.873-.257 1.494-.16a.534.534 0 0 1-.166 1.056 1.769 1.769 0 0 0-.935.097 1.515 1.515 0 0 0-.308.165.534.534 0 0 1-.68-.824Z"/><path fill="url(#paint34_radial_4002_29)" d="m10.85 10.442.002-.002.002-.001.004-.004.012-.01a1.591 1.591 0 0 1 .155-.107c.1-.062.241-.14.42-.21.36-.143.873-.257 1.494-.16a.534.534 0 0 1-.166 1.056 1.769 1.769 0 0 0-.935.097 1.515 1.515 0 0 0-.308.165.534.534 0 0 1-.68-.824Z"/></g><path fill="#fff" d="M17.017 11.732c.654 0 1.206.45 1.356 1.06a.274.274 0 0 1-.268.34h-2.232a.23.23 0 0 1-.228-.271 1.399 1.399 0 0 1 1.372-1.13Z"/><path fill="url(#paint35_radial_4002_29)" d="M16.81 12.004a.893.893 0 0 1 .86 1.129h-1.725a.896.896 0 0 1 .865-1.128Z"/><path fill="#000" d="M16.299 12.897a.51.51 0 0 1 .511-.511.51.51 0 0 1 .455.747h-.905a.463.463 0 0 1-.061-.236Z"/><g filter="url(#filter11_f_4002_29)"><path fill="#C7A7A3" d="M16.745 12.193c.063.085-.07.189-.22.302-.152.113-.264.192-.328.107-.063-.085.008-.245.159-.359.15-.113.325-.135.389-.05Z"/><path fill="url(#paint36_radial_4002_29)" d="M16.745 12.193c.063.085-.07.189-.22.302-.152.113-.264.192-.328.107-.063-.085.008-.245.159-.359.15-.113.325-.135.389-.05Z"/></g><g filter="url(#filter12_f_4002_29)"><path fill="url(#paint37_linear_4002_29)" d="M17.606 12.78a.841.841 0 0 0-.232-.464l-.26.286.117.228.375-.05Z"/></g><path fill="#fff" d="M12.232 11.732c-.653 0-1.206.45-1.356 1.06a.274.274 0 0 0 .268.34h2.233a.23.23 0 0 0 .227-.271 1.402 1.402 0 0 0-1.372-1.13Z"/><path fill="url(#paint38_radial_4002_29)" d="M12.439 12.004a.893.893 0 0 0-.86 1.129h1.725a.915.915 0 0 0 .032-.236.9.9 0 0 0-.897-.893Z"/><path fill="#000" d="M12.95 12.897a.51.51 0 0 0-.51-.511.51.51 0 0 0-.456.747h.906a.508.508 0 0 0 .06-.236Z"/><g filter="url(#filter13_f_4002_29)"><path fill="url(#paint39_linear_4002_29)" d="M13.255 12.792c0-.288-.235-.48-.298-.54l-.289.28.178.362.41-.102Z"/></g><g filter="url(#filter14_f_4002_29)" transform="rotate(-27.914 12.17 12.386)"><ellipse cx="12.17" cy="12.386" fill="#C7A7A3" fill-opacity=".9" rx=".39" ry=".197"/><ellipse cx="12.17" cy="12.386" fill="url(#paint40_radial_4002_29)" rx=".39" ry=".197"/></g><g filter="url(#filter15_f_4002_29)"><path stroke="url(#paint41_linear_4002_29)" stroke-linecap="round" stroke-width=".25" d="M16.29 10.297c.43-.076 1.27-.054 1.85.398"/></g><g filter="url(#filter16_f_4002_29)"><path stroke="url(#paint42_linear_4002_29)" stroke-linecap="round" stroke-width=".25" d="M11.065 10.816c.327-.29 1.042-.595 1.929-.453"/></g><g filter="url(#filter17_f_4002_29)"><path stroke="url(#paint43_linear_4002_29)" stroke-linecap="round" stroke-width=".25" d="M10.09 8.348v.899c-.008.148-.07.481-.258.622"/></g><path fill="url(#paint44_radial_4002_29)" d="M20.283 5.867c-1.215-.028-1.642-.098-2.18-.286V7.32l1.163.479a.856.856 0 0 0 .426.065c.796-.095 2.4-.502 3.076-1.11.843-.758.785-1.492.715-1.758-.07-.265-.211-.445-.352-.453-.14-.007-.26.062-.39.375-.212.508-.883.985-2.458.95Z"/><path fill="url(#paint45_radial_4002_29)" d="M20.283 5.867c-1.215-.028-1.642-.098-2.18-.286V7.32l1.163.479a.856.856 0 0 0 .426.065c.796-.095 2.4-.502 3.076-1.11.843-.758.785-1.492.715-1.758-.07-.265-.211-.445-.352-.453-.14-.007-.26.062-.39.375-.212.508-.883.985-2.458.95Z"/><path fill="url(#paint46_linear_4002_29)" d="m24.342 2.644-1.388 4.83 1.186.346 1.072-3.73a1.15 1.15 0 0 0-.784-1.421l-.086-.025Z"/><path fill="url(#paint47_linear_4002_29)" d="m24.342 2.644-1.388 4.83 1.186.346 1.072-3.73a1.15 1.15 0 0 0-.784-1.421l-.086-.025Z"/><path fill="url(#paint48_linear_4002_29)" d="m19.694 5.22 5.42 1.537-.338 1.189-4.313-1.223a1.15 1.15 0 0 1-.793-1.42l.024-.082Z"/><path fill="url(#paint49_linear_4002_29)" d="m19.694 5.22 5.42 1.537-.338 1.189-4.313-1.223a1.15 1.15 0 0 1-.793-1.42l.024-.082Z"/><g filter="url(#filter18_i_4002_29)"><circle cx="23.739" cy="7" r=".313" fill="url(#paint50_radial_4002_29)"/><circle cx="23.739" cy="7" r=".313" fill="url(#paint51_radial_4002_29)"/><circle cx="23.739" cy="7" r=".313" fill="url(#paint52_radial_4002_29)"/></g><g filter="url(#filter19_ii_4002_29)"><path fill="url(#paint53_radial_4002_29)" fill-rule="evenodd" d="M23.013 7.442a.1.1 0 0 0-.124.068l-.104.357a.215.215 0 0 1-.174.149 1.842 1.842 0 1 0 1.514.433.214.214 0 0 1-.068-.22l.101-.349a.1.1 0 0 0-.068-.124l-1.077-.314Zm.74 2.391a.844.844 0 1 1-1.687 0 .844.844 0 0 1 1.688 0Z" clip-rule="evenodd"/></g><path fill="url(#paint54_linear_4002_29)" fill-rule="evenodd" d="M23.013 7.442a.1.1 0 0 0-.124.068l-.104.357a.215.215 0 0 1-.174.149 1.842 1.842 0 1 0 1.514.433.214.214 0 0 1-.068-.22l.101-.349a.1.1 0 0 0-.068-.124l-1.077-.314Zm.74 2.391a.844.844 0 1 1-1.687 0 .844.844 0 0 1 1.688 0Z" clip-rule="evenodd"/><g filter="url(#filter20_i_4002_29)"><path fill="url(#paint55_radial_4002_29)" fill-rule="evenodd" d="M24.457 6.655a.1.1 0 0 1 .123-.07l.36.095a.216.216 0 0 0 .216-.072 1.842 1.842 0 1 1-.412 1.52.215.215 0 0 0-.153-.172l-.351-.094a.1.1 0 0 1-.071-.122l.288-1.085Zm1.664 1.87a.844.844 0 1 0 .872-1.444.844.844 0 0 0-.872 1.445Z" clip-rule="evenodd"/></g><g filter="url(#filter21_f_4002_29)"><circle cx="26.558" cy="7.804" r="1.671" stroke="url(#paint56_linear_4002_29)" stroke-width=".1"/></g><g filter="url(#filter22_f_4002_29)"><circle cx="26.558" cy="7.803" r="1.117" stroke="url(#paint57_linear_4002_29)" stroke-width=".1"/></g><g filter="url(#filter23_f_4002_29)"><circle cx="22.91" cy="9.817" r="1.117" stroke="url(#paint58_linear_4002_29)" stroke-width=".1"/></g><g filter="url(#filter24_f_4002_29)"><circle cx="22.91" cy="9.817" r="1.652" stroke="url(#paint59_linear_4002_29)" stroke-width=".1"/></g><defs><radialGradient id="paint0_radial_4002_29" cx="0" cy="0" r="1" gradientTransform="rotate(154.071 8.313 13.901) scale(15.0662 17.3462)" gradientUnits="userSpaceOnUse"><stop stop-color="#339FF3"/><stop offset="1" stop-color="#2477DD"/></radialGradient><radialGradient id="paint1_radial_4002_29" cx="0" cy="0" r="1" gradientTransform="rotate(-115.528 17.238 10.578) scale(12.9022 18.5657)" gradientUnits="userSpaceOnUse"><stop offset=".879" stop-color="#407DA5" stop-opacity="0"/><stop offset="1" stop-color="#407DA5"/></radialGradient><radialGradient id="paint2_radial_4002_29" cx="0" cy="0" r="1" gradientTransform="rotate(166.984 5.946 10.215) scale(6.38273 2.1839)" gradientUnits="userSpaceOnUse"><stop offset=".236" stop-color="#145491"/><stop offset="1" stop-color="#27719E" stop-opacity="0"/></radialGradient><radialGradient id="paint3_radial_4002_29" cx="0" cy="0" r="1" gradientTransform="matrix(-2.6713 0 0 -14.1675 21.546 29.356)" gradientUnits="userSpaceOnUse"><stop offset=".133" stop-color="#459BFC"/><stop offset="1" stop-color="#459BFC" stop-opacity="0"/></radialGradient><radialGradient id="paint4_radial_4002_29" cx="0" cy="0" r="1" gradientTransform="matrix(1.24045 0 0 9.50024 7.166 29.356)" gradientUnits="userSpaceOnUse"><stop stop-color="#1F6CE0"/><stop offset="1" stop-color="#1F6CE0" stop-opacity="0"/></radialGradient><radialGradient id="paint5_radial_4002_29" cx="0" cy="0" r="1" gradientTransform="matrix(3.25185 0 0 9.13279 21.576 28.578)" gradientUnits="userSpaceOnUse"><stop offset=".576" stop-color="#43A2FF"/><stop offset="1" stop-color="#43A0F3"/></radialGradient><radialGradient id="paint6_radial_4002_29" cx="0" cy="0" r="1" gradientTransform="matrix(.87006 0 0 11.9715 21.576 29.356)" gradientUnits="userSpaceOnUse"><stop stop-color="#367BF1"/><stop offset="1" stop-color="#367BF1" stop-opacity="0"/></radialGradient><radialGradient id="paint7_radial_4002_29" cx="0" cy="0" r="1" gradientTransform="matrix(-3.70862 0 0 -8.85437 7.31 29.356)" gradientUnits="userSpaceOnUse"><stop offset=".614" stop-color="#517CC3" stop-opacity="0"/><stop offset=".956" stop-color="#517CC3"/></radialGradient><radialGradient id="paint8_radial_4002_29" cx="0" cy="0" r="1" gradientTransform="matrix(-.8463 0 0 -10.457 7.31 29.356)" gradientUnits="userSpaceOnUse"><stop offset=".111" stop-color="#438DEC"/><stop offset="1" stop-color="#438DEC" stop-opacity="0"/></radialGradient><radialGradient id="paint9_radial_4002_29" cx="0" cy="0" r="1" gradientTransform="matrix(.5625 1.75 -3.03541 .97567 13.7 18.991)" gradientUnits="userSpaceOnUse"><stop offset=".243" stop-color="#643C53"/><stop offset="1" stop-color="#643C53" stop-opacity="0"/></radialGradient><radialGradient id="paint10_radial_4002_29" cx="0" cy="0" r="1" gradientTransform="rotate(139.583 4.476 13.308) scale(2.48229 1.07513)" gradientUnits="userSpaceOnUse"><stop offset=".285" stop-color="#7E5C61"/><stop offset="1" stop-color="#7E5C61" stop-opacity="0"/></radialGradient><radialGradient id="paint11_radial_4002_29" cx="0" cy="0" r="1" gradientTransform="matrix(1.75652 0 0 3.07393 8.204 13.164)" gradientUnits="userSpaceOnUse"><stop offset=".351" stop-color="#664249"/><stop offset="1" stop-color="#613641"/></radialGradient><radialGradient id="paint14_radial_4002_29" cx="0" cy="0" r="1" gradientTransform="matrix(.82748 -.60254 .68772 .94447 19.77 12.899)" gradientUnits="userSpaceOnUse"><stop offset=".543" stop-color="#7C524C"/><stop offset="1" stop-color="#7C524C" stop-opacity="0"/></radialGradient><radialGradient id="paint15_radial_4002_29" cx="0" cy="0" r="1" gradientTransform="matrix(.82204 -1.51196 .88496 .48114 19.356 13.986)" gradientUnits="userSpaceOnUse"><stop offset=".755" stop-color="#73443E" stop-opacity="0"/><stop offset=".916" stop-color="#73443E"/></radialGradient><radialGradient id="paint16_radial_4002_29" cx="0" cy="0" r="1" gradientTransform="matrix(.25953 .2569 -.33118 .33457 19.398 13.164)" gradientUnits="userSpaceOnUse"><stop stop-color="#6C443E"/><stop offset="1" stop-color="#6C443E" stop-opacity="0"/></radialGradient><radialGradient id="paint18_radial_4002_29" cx="0" cy="0" r="1" gradientTransform="matrix(0 -1.30832 1.61023 0 16.975 11.891)" gradientUnits="userSpaceOnUse"><stop stop-color="#855354"/><stop offset="1" stop-color="#855354" stop-opacity="0"/></radialGradient><radialGradient id="paint19_radial_4002_29" cx="0" cy="0" r="1" gradientTransform="matrix(0 -1.37541 1.71044 0 12.413 12.025)" gradientUnits="userSpaceOnUse"><stop stop-color="#6F414D"/><stop offset="1" stop-color="#6F414D" stop-opacity="0"/></radialGradient><radialGradient id="paint22_radial_4002_29" cx="0" cy="0" r="1" gradientTransform="matrix(0 8.8549 -12.0201 0 14.325 11.388)" gradientUnits="userSpaceOnUse"><stop offset=".619" stop-color="#7D4B5D" stop-opacity="0"/><stop offset=".955" stop-color="#62405C"/></radialGradient><radialGradient id="paint24_radial_4002_29" cx="0" cy="0" r="1" gradientTransform="matrix(.79857 -2.95942 1.42495 .38451 18.977 9.054)" gradientUnits="userSpaceOnUse"><stop offset=".372" stop-color="#3D3437"/><stop offset="1" stop-color="#3D3437" stop-opacity="0"/></radialGradient><radialGradient id="paint25_radial_4002_29" cx="0" cy="0" r="1" gradientTransform="matrix(3.82845 .35231 -.18944 2.05853 17.333 7.292)" gradientUnits="userSpaceOnUse"><stop offset=".32" stop-color="#46383D"/><stop offset="1" stop-color="#46383D" stop-opacity="0"/></radialGradient><radialGradient id="paint26_radial_4002_29" cx="0" cy="0" r="1" gradientTransform="matrix(0 1.68076 -2.60303 0 14.627 4.555)" gradientUnits="userSpaceOnUse"><stop stop-color="#3E3034"/><stop offset="1" stop-color="#3E3034" stop-opacity="0"/></radialGradient><radialGradient id="paint27_radial_4002_29" cx="0" cy="0" r="1" gradientTransform="matrix(3.07685 -2.2548 3.53253 4.82042 8.173 11.38)" gradientUnits="userSpaceOnUse"><stop stop-color="#453938"/><stop offset="1" stop-color="#453938" stop-opacity="0"/></radialGradient><radialGradient id="paint31_radial_4002_29" cx="0" cy="0" r="1" gradientTransform="matrix(0 .19709 -.6332 0 14.955 14.772)" gradientUnits="userSpaceOnUse"><stop stop-color="#976F6A"/><stop offset="1" stop-color="#976F6A" stop-opacity="0"/></radialGradient><radialGradient id="paint33_radial_4002_29" cx="0" cy="0" r="1" gradientTransform="matrix(.1043 -.60384 1.78641 .30854 17.072 11.078)" gradientUnits="userSpaceOnUse"><stop stop-color="#301A2D"/><stop offset="1" stop-color="#301A2D" stop-opacity="0"/></radialGradient><radialGradient id="paint34_radial_4002_29" cx="0" cy="0" r="1" gradientTransform="matrix(.1043 -.60384 1.7865 .30858 11.92 11.078)" gradientUnits="userSpaceOnUse"><stop stop-color="#301A2D"/><stop offset="1" stop-color="#301A2D" stop-opacity="0"/></radialGradient><radialGradient id="paint35_radial_4002_29" cx="0" cy="0" r="1" gradientTransform="matrix(0 .8119 -1.29142 0 16.808 12.482)" gradientUnits="userSpaceOnUse"><stop offset=".802" stop-color="#7D574A"/><stop offset="1" stop-color="#694B43"/><stop offset="1" stop-color="#804D49"/><stop offset="1" stop-color="#664944"/></radialGradient><radialGradient id="paint36_radial_4002_29" cx="0" cy="0" r="1" gradientTransform="matrix(-.23208 -.29907 .41175 -.31952 16.58 12.566)" gradientUnits="userSpaceOnUse"><stop offset=".766" stop-color="#FFE6E2" stop-opacity="0"/><stop offset=".966" stop-color="#FFE6E2"/></radialGradient><radialGradient id="paint38_radial_4002_29" cx="0" cy="0" r="1" gradientTransform="matrix(0 .81194 -1.29148 0 12.44 12.481)" gradientUnits="userSpaceOnUse"><stop offset=".802" stop-color="#7D574A"/><stop offset="1" stop-color="#694B43"/><stop offset="1" stop-color="#804D49"/><stop offset="1" stop-color="#664944"/></radialGradient><radialGradient id="paint40_radial_4002_29" cx="0" cy="0" r="1" gradientTransform="rotate(-90.897 12.33 .368) scale(.4945 .5944)" gradientUnits="userSpaceOnUse"><stop offset=".766" stop-color="#FFE6E2" stop-opacity="0"/><stop offset=".966" stop-color="#FFE6E2"/></radialGradient><radialGradient id="paint44_radial_4002_29" cx="0" cy="0" r="1" gradientTransform="rotate(152.815 11.014 5.22) scale(5.16422 4.07334)" gradientUnits="userSpaceOnUse"><stop stop-color="#1F1027"/><stop offset=".871" stop-color="#37282C"/></radialGradient><radialGradient id="paint45_radial_4002_29" cx="0" cy="0" r="1" gradientTransform="matrix(2.98437 .4375 -.0798 .54434 17.743 6.74)" gradientUnits="userSpaceOnUse"><stop offset=".037" stop-color="#423539"/><stop offset="1" stop-color="#423539" stop-opacity="0"/></radialGradient><radialGradient id="paint50_radial_4002_29" cx="0" cy="0" r="1" gradientTransform="rotate(141.18 10.74 7.666) scale(.43619)" gradientUnits="userSpaceOnUse"><stop offset=".168" stop-color="#EBDBE4"/><stop offset="1" stop-color="#C7B1B5"/></radialGradient><radialGradient id="paint51_radial_4002_29" cx="0" cy="0" r="1" gradientTransform="matrix(.19922 -.48438 1.17186 .48198 23.594 7.347)" gradientUnits="userSpaceOnUse"><stop offset=".147" stop-color="#996E9F"/><stop offset="1" stop-color="#C8B3B7" stop-opacity="0"/></radialGradient><radialGradient id="paint52_radial_4002_29" cx="0" cy="0" r="1" gradientTransform="matrix(.4375 .04684 -.05916 .55254 23.369 6.91)" gradientUnits="userSpaceOnUse"><stop offset=".181" stop-color="#A4888C"/><stop offset="1" stop-color="#A4888C" stop-opacity="0"/></radialGradient><radialGradient id="paint53_radial_4002_29" cx="0" cy="0" r="1" gradientTransform="matrix(2.20247 -1.61719 2.56784 3.49718 21.396 10.096)" gradientUnits="userSpaceOnUse"><stop offset=".205" stop-color="#FF7046"/><stop offset="1" stop-color="#FF2D78"/></radialGradient><radialGradient id="paint55_radial_4002_29" cx="0" cy="0" r="1" gradientTransform="matrix(2.53124 -1.40627 1.98705 3.57664 24.543 8.273)" gradientUnits="userSpaceOnUse"><stop offset=".205" stop-color="#FF7046"/><stop offset="1" stop-color="#FF2D78"/></radialGradient><filter id="filter0_i_4002_29" width="3.542" height="3.342" x="8.204" y="11.493" color-interpolation-filters="sRGB" filterUnits="userSpaceOnUse"><feFlood flood-opacity="0" result="BackgroundImageFix"/><feBlend in="SourceGraphic" in2="BackgroundImageFix" result="shape"/><feColorMatrix in="SourceAlpha" result="hardAlpha" values="0 0 0 0 0 0 0 0 0 0 0 0 0 0 0 0 0 0 127 0"/><feOffset dx=".2"/><feGaussianBlur stdDeviation=".15"/><feComposite in2="hardAlpha" k2="-1" k3="1" operator="arithmetic"/><feColorMatrix values="0 0 0 0 0.517647 0 0 0 0 0.384314 0 0 0 0 0.34902 0 0 0 1 0"/><feBlend in2="shape" result="effect1_innerShadow_4002_29"/></filter><filter id="filter1_f_4002_29" width="2.992" height="2.992" x="8.379" y="11.668" color-interpolation-filters="sRGB" filterUnits="userSpaceOnUse"><feFlood flood-opacity="0" result="BackgroundImageFix"/><feBlend in="SourceGraphic" in2="BackgroundImageFix" result="shape"/><feGaussianBlur result="effect1_foregroundBlur_4002_29" stdDeviation=".25"/></filter><filter id="filter2_i_4002_29" width="3.592" height="3.592" x="17.726" y="11.243" color-interpolation-filters="sRGB" filterUnits="userSpaceOnUse"><feFlood flood-opacity="0" result="BackgroundImageFix"/><feBlend in="SourceGraphic" in2="BackgroundImageFix" result="shape"/><feColorMatrix in="SourceAlpha" result="hardAlpha" values="0 0 0 0 0 0 0 0 0 0 0 0 0 0 0 0 0 0 127 0"/><feOffset dx=".25" dy="-.25"/><feGaussianBlur stdDeviation=".25"/><feComposite in2="hardAlpha" k2="-1" k3="1" operator="arithmetic"/><feColorMatrix values="0 0 0 0 0.482353 0 0 0 0 0.278431 0 0 0 0 0.372549 0 0 0 1 0"/><feBlend in2="shape" result="effect1_innerShadow_4002_29"/></filter><filter id="filter3_f_4002_29" width="2.992" height="2.992" x="17.901" y="11.668" color-interpolation-filters="sRGB" filterUnits="userSpaceOnUse"><feFlood flood-opacity="0" result="BackgroundImageFix"/><feBlend in="SourceGraphic" in2="BackgroundImageFix" result="shape"/><feGaussianBlur result="effect1_foregroundBlur_4002_29" stdDeviation=".25"/></filter><filter id="filter4_i_4002_29" width="10.383" height="12.189" x="9.464" y="7.534" color-interpolation-filters="sRGB" filterUnits="userSpaceOnUse"><feFlood flood-opacity="0" result="BackgroundImageFix"/><feBlend in="SourceGraphic" in2="BackgroundImageFix" result="shape"/><feColorMatrix in="SourceAlpha" result="hardAlpha" values="0 0 0 0 0 0 0 0 0 0 0 0 0 0 0 0 0 0 127 0"/><feOffset dy=".15"/><feGaussianBlur stdDeviation=".125"/><feComposite in2="hardAlpha" k2="-1" k3="1" operator="arithmetic"/><feColorMatrix values="0 0 0 0 0.254902 0 0 0 0 0.137255 0 0 0 0 0.113725 0 0 0 1 0"/><feBlend in2="shape" result="effect1_innerShadow_4002_29"/></filter><filter id="filter5_f_4002_29" width="8.25" height="7.07" x="12.797" y="5.534" color-interpolation-filters="sRGB" filterUnits="userSpaceOnUse"><feFlood flood-opacity="0" result="BackgroundImageFix"/><feBlend in="SourceGraphic" in2="BackgroundImageFix" result="shape"/><feGaussianBlur result="effect1_foregroundBlur_4002_29" stdDeviation="1"/></filter><filter id="filter6_i_4002_29" width="12.614" height="8.551" x="8.321" y="4.055" color-interpolation-filters="sRGB" filterUnits="userSpaceOnUse"><feFlood flood-opacity="0" result="BackgroundImageFix"/><feBlend in="SourceGraphic" in2="BackgroundImageFix" result="shape"/><feColorMatrix in="SourceAlpha" result="hardAlpha" values="0 0 0 0 0 0 0 0 0 0 0 0 0 0 0 0 0 0 127 0"/><feOffset dy="-.5"/><feGaussianBlur stdDeviation=".375"/><feComposite in2="hardAlpha" k2="-1" k3="1" operator="arithmetic"/><feColorMatrix values="0 0 0 0 0.0392157 0 0 0 0 0.00784314 0 0 0 0 0.0196078 0 0 0 1 0"/><feBlend in2="shape" result="effect1_innerShadow_4002_29"/></filter><filter id="filter7_f_4002_29" width="3.262" height="4.184" x="12.757" y="12.009" color-interpolation-filters="sRGB" filterUnits="userSpaceOnUse"><feFlood flood-opacity="0" result="BackgroundImageFix"/><feBlend in="SourceGraphic" in2="BackgroundImageFix" result="shape"/><feGaussianBlur result="effect1_foregroundBlur_4002_29" stdDeviation=".375"/></filter><filter id="filter8_f_4002_29" width="2.079" height="2.884" x="13.588" y="12.496" color-interpolation-filters="sRGB" filterUnits="userSpaceOnUse"><feFlood flood-opacity="0" result="BackgroundImageFix"/><feBlend in="SourceGraphic" in2="BackgroundImageFix" result="shape"/><feGaussianBlur result="effect1_foregroundBlur_4002_29" stdDeviation=".05"/></filter><filter id="filter9_i_4002_29" width="2.982" height="1.874" x="15.81" y="9.512" color-interpolation-filters="sRGB" filterUnits="userSpaceOnUse"><feFlood flood-opacity="0" result="BackgroundImageFix"/><feBlend in="SourceGraphic" in2="BackgroundImageFix" result="shape"/><feColorMatrix in="SourceAlpha" result="hardAlpha" values="0 0 0 0 0 0 0 0 0 0 0 0 0 0 0 0 0 0 127 0"/><feOffset dx=".25" dy="-.4"/><feGaussianBlur stdDeviation=".3"/><feComposite in2="hardAlpha" k2="-1" k3="1" operator="arithmetic"/><feColorMatrix values="0 0 0 0 0.156863 0 0 0 0 0.0784314 0 0 0 0 0.109804 0 0 0 1 0"/><feBlend in2="shape" result="effect1_innerShadow_4002_29"/></filter><filter id="filter10_i_4002_29" width="2.982" height="1.874" x="10.658" y="9.512" color-interpolation-filters="sRGB" filterUnits="userSpaceOnUse"><feFlood flood-opacity="0" result="BackgroundImageFix"/><feBlend in="SourceGraphic" in2="BackgroundImageFix" result="shape"/><feColorMatrix in="SourceAlpha" result="hardAlpha" values="0 0 0 0 0 0 0 0 0 0 0 0 0 0 0 0 0 0 127 0"/><feOffset dx=".25" dy="-.4"/><feGaussianBlur stdDeviation=".3"/><feComposite in2="hardAlpha" k2="-1" k3="1" operator="arithmetic"/><feColorMatrix values="0 0 0 0 0.156863 0 0 0 0 0.0784314 0 0 0 0 0.109804 0 0 0 1 0"/><feBlend in2="shape" result="effect1_innerShadow_4002_29"/></filter><filter id="filter11_f_4002_29" width=".787" height=".697" x="16.074" y="12.041" color-interpolation-filters="sRGB" filterUnits="userSpaceOnUse"><feFlood flood-opacity="0" result="BackgroundImageFix"/><feBlend in="SourceGraphic" in2="BackgroundImageFix" result="shape"/><feGaussianBlur result="effect1_foregroundBlur_4002_29" stdDeviation=".05"/></filter><filter id="filter12_f_4002_29" width=".892" height=".914" x="16.914" y="12.116" color-interpolation-filters="sRGB" filterUnits="userSpaceOnUse"><feFlood flood-opacity="0" result="BackgroundImageFix"/><feBlend in="SourceGraphic" in2="BackgroundImageFix" result="shape"/><feGaussianBlur result="effect1_foregroundBlur_4002_29" stdDeviation=".1"/></filter><filter id="filter13_f_4002_29" width=".987" height="1.041" x="12.468" y="12.053" color-interpolation-filters="sRGB" filterUnits="userSpaceOnUse"><feFlood flood-opacity="0" result="BackgroundImageFix"/><feBlend in="SourceGraphic" in2="BackgroundImageFix" result="shape"/><feGaussianBlur result="effect1_foregroundBlur_4002_29" stdDeviation=".1"/></filter><filter id="filter14_f_4002_29" width=".914" height=".705" x="11.713" y="12.033" color-interpolation-filters="sRGB" filterUnits="userSpaceOnUse"><feFlood flood-opacity="0" result="BackgroundImageFix"/><feBlend in="SourceGraphic" in2="BackgroundImageFix" result="shape"/><feGaussianBlur result="effect1_foregroundBlur_4002_29" stdDeviation=".05"/></filter><filter id="filter15_f_4002_29" width="3.101" height="1.681" x="15.664" y="9.638" color-interpolation-filters="sRGB" filterUnits="userSpaceOnUse"><feFlood flood-opacity="0" result="BackgroundImageFix"/><feBlend in="SourceGraphic" in2="BackgroundImageFix" result="shape"/><feGaussianBlur result="effect1_foregroundBlur_4002_29" stdDeviation=".25"/></filter><filter id="filter16_f_4002_29" width="3.179" height="1.739" x="10.44" y="9.702" color-interpolation-filters="sRGB" filterUnits="userSpaceOnUse"><feFlood flood-opacity="0" result="BackgroundImageFix"/><feBlend in="SourceGraphic" in2="BackgroundImageFix" result="shape"/><feGaussianBlur result="effect1_foregroundBlur_4002_29" stdDeviation=".25"/></filter><filter id="filter17_f_4002_29" width="1.008" height="2.271" x="9.457" y="7.973" color-interpolation-filters="sRGB" filterUnits="userSpaceOnUse"><feFlood flood-opacity="0" result="BackgroundImageFix"/><feBlend in="SourceGraphic" in2="BackgroundImageFix" result="shape"/><feGaussianBlur result="effect1_foregroundBlur_4002_29" stdDeviation=".125"/></filter><filter id="filter18_i_4002_29" width=".726" height=".726" x="23.426" y="6.587" color-interpolation-filters="sRGB" filterUnits="userSpaceOnUse"><feFlood flood-opacity="0" result="BackgroundImageFix"/><feBlend in="SourceGraphic" in2="BackgroundImageFix" result="shape"/><feColorMatrix in="SourceAlpha" result="hardAlpha" values="0 0 0 0 0 0 0 0 0 0 0 0 0 0 0 0 0 0 127 0"/><feOffset dx=".1" dy="-.1"/><feGaussianBlur stdDeviation=".1"/><feComposite in2="hardAlpha" k2="-1" k3="1" operator="arithmetic"/><feColorMatrix values="0 0 0 0 0.52549 0 0 0 0 0.388235 0 0 0 0 0.501961 0 0 0 1 0"/><feBlend in2="shape" result="effect1_innerShadow_4002_29"/></filter><filter id="filter19_ii_4002_29" width="3.834" height="4.387" x="20.968" y="7.388" color-interpolation-filters="sRGB" filterUnits="userSpaceOnUse"><feFlood flood-opacity="0" result="BackgroundImageFix"/><feBlend in="SourceGraphic" in2="BackgroundImageFix" result="shape"/><feColorMatrix in="SourceAlpha" result="hardAlpha" values="0 0 0 0 0 0 0 0 0 0 0 0 0 0 0 0 0 0 127 0"/><feOffset dx=".05" dy="-.05"/><feGaussianBlur stdDeviation=".1"/><feComposite in2="hardAlpha" k2="-1" k3="1" operator="arithmetic"/><feColorMatrix values="0 0 0 0 0.945098 0 0 0 0 0.45098 0 0 0 0 0.333333 0 0 0 1 0"/><feBlend in2="shape" result="effect1_innerShadow_4002_29"/><feColorMatrix in="SourceAlpha" result="hardAlpha" values="0 0 0 0 0 0 0 0 0 0 0 0 0 0 0 0 0 0 127 0"/><feOffset dx="-.1" dy=".1"/><feGaussianBlur stdDeviation=".1"/><feComposite in2="hardAlpha" k2="-1" k3="1" operator="arithmetic"/><feColorMatrix values="0 0 0 0 1 0 0 0 0 0.282353 0 0 0 0 0.435294 0 0 0 1 0"/><feBlend in2="effect1_innerShadow_4002_29" result="effect2_innerShadow_4002_29"/></filter><filter id="filter20_i_4002_29" width="4.283" height="3.734" x="24.166" y="5.911" color-interpolation-filters="sRGB" filterUnits="userSpaceOnUse"><feFlood flood-opacity="0" result="BackgroundImageFix"/><feBlend in="SourceGraphic" in2="BackgroundImageFix" result="shape"/><feColorMatrix in="SourceAlpha" result="hardAlpha" values="0 0 0 0 0 0 0 0 0 0 0 0 0 0 0 0 0 0 127 0"/><feOffset dx=".05" dy="-.05"/><feGaussianBlur stdDeviation=".05"/><feComposite in2="hardAlpha" k2="-1" k3="1" operator="arithmetic"/><feColorMatrix values="0 0 0 0 0.882353 0 0 0 0 0.203922 0 0 0 0 0.435294 0 0 0 1 0"/><feBlend in2="shape" result="effect1_innerShadow_4002_29"/></filter><filter id="filter21_f_4002_29" width="3.843" height="3.843" x="24.637" y="5.882" color-interpolation-filters="sRGB" filterUnits="userSpaceOnUse"><feFlood flood-opacity="0" result="BackgroundImageFix"/><feBlend in="SourceGraphic" in2="BackgroundImageFix" result="shape"/><feGaussianBlur result="effect1_foregroundBlur_4002_29" stdDeviation=".1"/></filter><filter id="filter22_f_4002_29" width="2.734" height="2.734" x="25.191" y="6.436" color-interpolation-filters="sRGB" filterUnits="userSpaceOnUse"><feFlood flood-opacity="0" result="BackgroundImageFix"/><feBlend in="SourceGraphic" in2="BackgroundImageFix" result="shape"/><feGaussianBlur result="effect1_foregroundBlur_4002_29" stdDeviation=".1"/></filter><filter id="filter23_f_4002_29" width="2.734" height="2.734" x="21.543" y="8.45" color-interpolation-filters="sRGB" filterUnits="userSpaceOnUse"><feFlood flood-opacity="0" result="BackgroundImageFix"/><feBlend in="SourceGraphic" in2="BackgroundImageFix" result="shape"/><feGaussianBlur result="effect1_foregroundBlur_4002_29" stdDeviation=".1"/></filter><filter id="filter24_f_4002_29" width="3.805" height="3.805" x="21.008" y="7.915" color-interpolation-filters="sRGB" filterUnits="userSpaceOnUse"><feFlood flood-opacity="0" result="BackgroundImageFix"/><feBlend in="SourceGraphic" in2="BackgroundImageFix" result="shape"/><feGaussianBlur result="effect1_foregroundBlur_4002_29" stdDeviation=".1"/></filter><linearGradient id="paint12_linear_4002_29" x1="9.875" x2="9.234" y1="13.443" y2="13.443" gradientUnits="userSpaceOnUse"><stop stop-color="#553038"/><stop offset="1" stop-color="#59323C"/></linearGradient><linearGradient id="paint13_linear_4002_29" x1="20.485" x2="19.665" y1="12.071" y2="14.61" gradientUnits="userSpaceOnUse"><stop stop-color="#96776B"/><stop offset="1" stop-color="#855A5B"/></linearGradient><linearGradient id="paint17_linear_4002_29" x1="18.667" x2="11.023" y1="13.554" y2="14.693" gradientUnits="userSpaceOnUse"><stop stop-color="#9B6C5E"/><stop offset="1" stop-color="#744D4A"/></linearGradient><linearGradient id="paint20_linear_4002_29" x1="9.226" x2="11.109" y1="16.252" y2="16.185" gradientUnits="userSpaceOnUse"><stop stop-color="#84615A"/><stop offset="1" stop-color="#84615A" stop-opacity="0"/></linearGradient><linearGradient id="paint21_linear_4002_29" x1="19.496" x2="18.439" y1="15.414" y2="15.313" gradientUnits="userSpaceOnUse"><stop stop-color="#966D5F"/><stop offset="1" stop-color="#966D5F" stop-opacity="0"/></linearGradient><linearGradient id="paint23_linear_4002_29" x1="14.095" x2="22.247" y1="10.566" y2="7.648" gradientUnits="userSpaceOnUse"><stop offset=".109" stop-color="#A47F73"/><stop offset="1" stop-color="#A27B71" stop-opacity="0"/></linearGradient><linearGradient id="paint28_linear_4002_29" x1="13.762" x2="14.701" y1="14.214" y2="14.214" gradientUnits="userSpaceOnUse"><stop stop-color="#754E46"/><stop offset="1" stop-color="#754E46" stop-opacity="0"/></linearGradient><linearGradient id="paint29_linear_4002_29" x1="15.566" x2="14.54" y1="14.537" y2="14.522" gradientUnits="userSpaceOnUse"><stop stop-color="#9D766B"/><stop offset="1" stop-color="#9D766B" stop-opacity="0"/></linearGradient><linearGradient id="paint30_linear_4002_29" x1="14.822" x2="14.822" y1="15.28" y2="14.706" gradientUnits="userSpaceOnUse"><stop stop-color="#7C4559"/><stop offset="1" stop-color="#7C4559" stop-opacity="0"/></linearGradient><linearGradient id="paint32_linear_4002_29" x1="13.589" x2="14.025" y1="16.896" y2="16.208" gradientUnits="userSpaceOnUse"><stop stop-color="#865E63"/><stop offset=".663" stop-color="#865E63" stop-opacity="0"/></linearGradient><linearGradient id="paint37_linear_4002_29" x1="17.587" x2="17.273" y1="12.535" y2="12.729" gradientUnits="userSpaceOnUse"><stop stop-color="#B4948D"/><stop offset="1" stop-color="#B4948D" stop-opacity="0"/></linearGradient><linearGradient id="paint39_linear_4002_29" x1="13.185" x2="12.872" y1="12.535" y2="12.729" gradientUnits="userSpaceOnUse"><stop stop-color="#B4948D"/><stop offset="1" stop-color="#B4948D" stop-opacity="0"/></linearGradient><linearGradient id="paint41_linear_4002_29" x1="17.602" x2="17.182" y1="10.394" y2="9.534" gradientUnits="userSpaceOnUse"><stop stop-color="#483E3E"/><stop offset="1" stop-color="#483E3E" stop-opacity="0"/></linearGradient><linearGradient id="paint42_linear_4002_29" x1="12.293" x2="11.102" y1="10.266" y2="9.766" gradientUnits="userSpaceOnUse"><stop stop-color="#483E3E"/><stop offset="1" stop-color="#483E3E" stop-opacity="0"/></linearGradient><linearGradient id="paint43_linear_4002_29" x1="9.961" x2="9.961" y1="8.249" y2="10.408" gradientUnits="userSpaceOnUse"><stop offset=".228" stop-color="#32272D"/><stop offset="1" stop-color="#32272D" stop-opacity="0"/></linearGradient><linearGradient id="paint46_linear_4002_29" x1="24.949" x2="23.758" y1="5.049" y2="4.704" gradientUnits="userSpaceOnUse"><stop stop-color="#9B8299"/><stop offset="1" stop-color="#D9B4C8"/></linearGradient><linearGradient id="paint47_linear_4002_29" x1="23.801" x2="23.875" y1="6.542" y2="6.253" gradientUnits="userSpaceOnUse"><stop offset=".16" stop-color="#A28B95"/><stop offset="1" stop-color="#C0A0B5" stop-opacity="0"/></linearGradient><linearGradient id="paint48_linear_4002_29" x1="22.887" x2="23.152" y1="7.398" y2="6.101" gradientUnits="userSpaceOnUse"><stop stop-color="#9B8299"/><stop offset="1" stop-color="#D9B4C8"/></linearGradient><linearGradient id="paint49_linear_4002_29" x1="24.298" x2="24.1" y1="7.48" y2="7.424" gradientUnits="userSpaceOnUse"><stop stop-color="#93768E"/><stop offset="1" stop-color="#A2889F" stop-opacity="0"/></linearGradient><linearGradient id="paint54_linear_4002_29" x1="23.637" x2="23.578" y1="7.57" y2="7.796" gradientUnits="userSpaceOnUse"><stop offset=".209" stop-color="#B71143"/><stop offset="1" stop-color="#FF3178" stop-opacity="0"/></linearGradient><linearGradient id="paint56_linear_4002_29" x1="24.887" x2="28.077" y1="8.172" y2="6.7" gradientUnits="userSpaceOnUse"><stop offset=".616" stop-color="#FF4F4F"/><stop offset=".9" stop-color="#FF6792"/></linearGradient><linearGradient id="paint57_linear_4002_29" x1="25.441" x2="27.573" y1="8.05" y2="7.066" gradientUnits="userSpaceOnUse"><stop offset=".247" stop-color="#FF7E7A"/><stop offset=".669" stop-color="#FF7E7A" stop-opacity="0"/></linearGradient><linearGradient id="paint58_linear_4002_29" x1="21.793" x2="23.925" y1="10.064" y2="9.08" gradientUnits="userSpaceOnUse"><stop offset=".247" stop-color="#FF9266"/><stop offset=".669" stop-color="#FF9266" stop-opacity="0"/></linearGradient><linearGradient id="paint59_linear_4002_29" x1="24.563" x2="22.91" y1="9.276" y2="9.817" gradientUnits="userSpaceOnUse"><stop stop-color="#FF5C88"/><stop offset="1" stop-color="#FF5185" stop-opacity="0"/></linearGradient></defs></svg>