<svg xmlns="http://www.w3.org/2000/svg" width="32" height="32" fill="none" viewBox="0 0 32 32"><path fill="url(#paint0_linear_6903_5272)" d="M27.962 25.995V6.35c0-1.437-1.336-2.14-2.43-1.125L21.518 9.18a1 1 0 0 1-.701.287H11.22a1 1 0 0 1-.701-.287L6.505 5.226c-1.094-1.015-2.43-.312-2.43 1.125v19.644c0 2.212 1.76 4.005 3.931 4.005h16.025c2.17 0 3.93-1.793 3.93-4.005Z"/><path fill="url(#paint1_linear_6903_5272)" d="M27.962 25.995V6.35c0-1.437-1.336-2.14-2.43-1.125L21.518 9.18a1 1 0 0 1-.701.287H11.22a1 1 0 0 1-.701-.287L6.505 5.226c-1.094-1.015-2.43-.312-2.43 1.125v19.644c0 2.212 1.76 4.005 3.931 4.005h16.025c2.17 0 3.93-1.793 3.93-4.005Z"/><path fill="url(#paint2_linear_6903_5272)" d="M27.962 25.995V6.35c0-1.437-1.336-2.14-2.43-1.125L21.518 9.18a1 1 0 0 1-.701.287H11.22a1 1 0 0 1-.701-.287L6.505 5.226c-1.094-1.015-2.43-.312-2.43 1.125v19.644c0 2.212 1.76 4.005 3.931 4.005h16.025c2.17 0 3.93-1.793 3.93-4.005Z"/><path fill="url(#paint3_linear_6903_5272)" d="M27.962 25.995V6.35c0-1.437-1.336-2.14-2.43-1.125L21.518 9.18a1 1 0 0 1-.701.287H11.22a1 1 0 0 1-.701-.287L6.505 5.226c-1.094-1.015-2.43-.312-2.43 1.125v19.644c0 2.212 1.76 4.005 3.931 4.005h16.025c2.17 0 3.93-1.793 3.93-4.005Z"/><path fill="url(#paint4_linear_6903_5272)" d="M27.962 25.995V6.35c0-1.437-1.336-2.14-2.43-1.125L21.518 9.18a1 1 0 0 1-.701.287H11.22a1 1 0 0 1-.701-.287L6.505 5.226c-1.094-1.015-2.43-.312-2.43 1.125v19.644c0 2.212 1.76 4.005 3.931 4.005h16.025c2.17 0 3.93-1.793 3.93-4.005Z"/><path fill="url(#paint5_radial_6903_5272)" d="M27.962 25.995V6.35c0-1.437-1.336-2.14-2.43-1.125L21.518 9.18a1 1 0 0 1-.701.287H11.22a1 1 0 0 1-.701-.287L6.505 5.226c-1.094-1.015-2.43-.312-2.43 1.125v19.644c0 2.212 1.76 4.005 3.931 4.005h16.025c2.17 0 3.93-1.793 3.93-4.005Z"/><g filter="url(#filter0_f_6903_5272)"><rect width="2.727" height="3.698" x="5.054" y="21.75" fill="#D67908" rx="1.363"/></g><g filter="url(#filter1_f_6903_5272)"><path fill="url(#paint6_linear_6903_5272)" d="M20.585 10.165c-2.983.108 5.227 4.954 5.227 4.954l1.125-9.063c.055-.46-.364-.953-1.25-.13l-4.014 3.952c-.187.184-.408.248-.701.287-.15.02-.236-.005-.387 0Z"/></g><path fill="url(#paint7_linear_6903_5272)" d="m6.133 13.433 2.8-2.6c.32-.3.32-.78 0-1.07L5.918 7.086c-.383-.336-1.175-.227-1.175.607v5.2c0 .834.88 1.02 1.39.54Z"/><g filter="url(#filter2_f_6903_5272)"><path fill="url(#paint8_linear_6903_5272)" d="M26.49 5.582a.38.38 0 0 1 .732.142v2.245l-1.417-.688.686-1.7Z"/></g><g filter="url(#filter3_f_6903_5272)"><path stroke="#FFDF70" stroke-linecap="round" d="m5.406 6.063 3.375 3.219c.754.72.768 1.918.031 2.655v0"/></g><g filter="url(#filter4_f_6903_5272)"><path fill="url(#paint9_linear_6903_5272)" d="m14.805 19.563.065-.015c.473-.11.966-.106 1.438.015.52.098.832.695.392 1.125l-.55.602c-.27.27-.864.27-1.134 0l-.543-.602c-.449-.508-.168-1.015.332-1.125Z"/></g><path fill="url(#paint10_radial_6903_5272)" d="m15.226 19.119.065-.015a3.04 3.04 0 0 1 1.438.015c.521.098.832.695.392 1.125l-.55.602c-.27.27-.864.27-1.134 0l-.542-.602c-.45-.507-.168-1.015.332-1.125Z"/><g filter="url(#filter5_f_6903_5272)"><ellipse cx="16.27" cy="19.654" fill="url(#paint11_linear_6903_5272)" rx=".762" ry=".274"/></g><g filter="url(#filter6_f_6903_5272)"><path stroke="url(#paint12_linear_6903_5272)" stroke-linecap="round" stroke-miterlimit="10" stroke-width="1.2" d="m24.785 22.822 3.805-1.813"/></g><g filter="url(#filter7_f_6903_5272)"><path stroke="url(#paint13_linear_6903_5272)" stroke-linecap="round" stroke-miterlimit="10" stroke-width="1.2" d="m24.785 24.853 1.927 1.366"/></g><path stroke="url(#paint14_linear_6903_5272)" stroke-linecap="round" stroke-miterlimit="10" stroke-width="1.2" d="m25.566 22.469 3.805-1.813"/><g filter="url(#filter8_f_6903_5272)"><path stroke="#FF8485" stroke-linecap="round" stroke-miterlimit="10" stroke-width=".3" d="m25.566 22.64 3.805-1.812"/></g><path stroke="url(#paint15_linear_6903_5272)" stroke-linecap="round" stroke-miterlimit="10" stroke-width="1.2" d="m25.564 24.599 3.801 1.819"/><g filter="url(#filter9_f_6903_5272)"><path stroke="#FF8485" stroke-linecap="round" stroke-miterlimit="10" stroke-width=".3" d="m25.498 24.479 3.802 1.819"/></g><path stroke="url(#paint16_linear_6903_5272)" stroke-linecap="round" stroke-miterlimit="10" stroke-width="1.2" d="m6.528 24.61-3.801 1.82"/><g filter="url(#filter10_f_6903_5272)"><path stroke="#FF8485" stroke-linecap="round" stroke-miterlimit="10" stroke-width=".3" d="m6.593 24.49-3.801 1.82"/></g><g filter="url(#filter11_f_6903_5272)"><ellipse fill="#FFDD86" rx=".184" ry=".166" transform="scale(-1 1) rotate(-19.477 67.863 31.58)"/></g><path stroke="url(#paint17_linear_6903_5272)" stroke-linecap="round" stroke-miterlimit="10" stroke-width="1.2" d="M6.54 22.454 2.726 20.66"/><g filter="url(#filter12_f_6903_5272)"><path stroke="#FF8485" stroke-linecap="round" stroke-miterlimit="10" stroke-width=".3" d="M6.674 22.428 2.86 20.635"/></g><g filter="url(#filter13_f_6903_5272)"><ellipse fill="#FFDD86" rx=".184" ry=".166" transform="scale(-1 1) rotate(-70.238 12.573 16.016)"/></g><g filter="url(#filter14_f_6903_5272)"><path fill="url(#paint18_linear_6903_5272)" d="M22.102 10.031h4.585v14.186h-4.585z"/></g><path fill="#FFB915" d="m25.833 13.433-2.8-2.6a.716.716 0 0 1 0-1.07l3.015-2.677c.382-.336 1.175-.227 1.175.607v5.2c0 .834-.88 1.02-1.39.54Z"/><path fill="url(#paint19_linear_6903_5272)" d="m25.833 13.433-2.8-2.6a.716.716 0 0 1 0-1.07l3.015-2.677c.382-.336 1.175-.227 1.175.607v5.2c0 .834-.88 1.02-1.39.54Z"/><g filter="url(#filter15_f_6903_5272)"><path fill="url(#paint20_radial_6903_5272)" d="m26.634 7.297-3.625 3.125 3.546 2.812.079-5.937Z"/></g><g filter="url(#filter16_f_6903_5272)"><path stroke="url(#paint21_linear_6903_5272)" stroke-linecap="round" stroke-width=".5" d="m23.727 10.219 2.532 2.734"/></g><g filter="url(#filter17_f_6903_5272)"><path fill="#FEB33E" d="M5.223 7.429v5.908l3.469-3.09L5.223 7.43Z"/></g><g filter="url(#filter18_f_6903_5272)"><path stroke="#FFE7A3" stroke-linecap="round" stroke-width=".15" d="M5.223 7.656v5.188"/></g><g filter="url(#filter19_f_6903_5272)"><circle cx="22.308" cy="24.985" r="3.191" fill="url(#paint22_linear_6903_5272)"/></g><path fill="url(#paint23_linear_6903_5272)" d="M20.988 23.797a3.984 3.984 0 1 1 7.969 0V30h-7.969v-6.203Z"/><path fill="url(#paint24_linear_6903_5272)" d="M20.988 23.797a3.984 3.984 0 1 1 7.969 0V30h-7.969v-6.203Z"/><path fill="url(#paint25_linear_6903_5272)" d="M20.988 23.797a3.984 3.984 0 1 1 7.969 0V30h-7.969v-6.203Z"/><g filter="url(#filter20_f_6903_5272)"><path fill="#DA7600" fill-opacity=".5" d="M26.05 20.34a.2.2 0 1 1 .399 0v2.719a.2.2 0 0 1-.399 0v-2.72Z"/></g><g filter="url(#filter21_f_6903_5272)"><path fill="#DA7600" fill-opacity=".75" d="M22.973 20.344a.203.203 0 0 1 .406 0v2.61a.203.203 0 0 1-.406 0v-2.61Z"/></g><g filter="url(#filter22_f_6903_5272)"><ellipse cx="27.122" cy="22.258" fill="#FDD659" rx=".846" ry="1.357" transform="rotate(-27.209 27.122 22.258)"/></g><path fill="url(#paint26_linear_6903_5272)" d="M23.113 20.055a.336.336 0 1 1 .672 0v2.765a.336.336 0 1 1-.672 0v-2.765Z"/><path fill="url(#paint27_linear_6903_5272)" d="M23.113 20.055a.336.336 0 1 1 .672 0v2.765a.336.336 0 1 1-.672 0v-2.765Z"/><path fill="url(#paint28_linear_6903_5272)" d="M23.113 20.055a.336.336 0 1 1 .672 0v2.765a.336.336 0 1 1-.672 0v-2.765Z"/><path fill="url(#paint29_linear_6903_5272)" d="M26.16 20.055a.336.336 0 1 1 .672 0v2.765a.336.336 0 1 1-.672 0v-2.765Z"/><path fill="url(#paint30_linear_6903_5272)" d="M26.16 20.055a.336.336 0 1 1 .672 0v2.765a.336.336 0 1 1-.672 0v-2.765Z"/><path fill="url(#paint31_linear_6903_5272)" d="M26.16 20.055a.336.336 0 1 1 .672 0v2.765a.336.336 0 1 1-.672 0v-2.765Z"/><g filter="url(#filter23_f_6903_5272)"><path stroke="url(#paint32_linear_6903_5272)" stroke-linecap="round" stroke-width=".2" d="M26.668 22.68v-2.211"/></g><g filter="url(#filter24_f_6903_5272)"><path stroke="url(#paint33_linear_6903_5272)" stroke-linecap="round" stroke-width=".2" d="M23.621 22.68v-2.211"/></g><g filter="url(#filter25_f_6903_5272)"><path stroke="url(#paint34_linear_6903_5272)" stroke-linecap="round" stroke-width=".2" d="M23.621 22.68v-2.211"/></g><g filter="url(#filter26_f_6903_5272)"><circle cx="11.082" cy="15.977" r="3.492" fill="url(#paint35_linear_6903_5272)"/></g><g filter="url(#filter27_f_6903_5272)"><circle cx="20.09" cy="16.09" r="3.289" fill="url(#paint36_linear_6903_5272)"/></g><circle cx="20.484" cy="15.578" r="3.492" fill="#fff"/><circle cx="11.516" cy="15.578" r="3.492" fill="#fff"/><rect width="4.344" height="5.453" x="13.828" y="21.836" fill="url(#paint37_radial_6903_5272)" rx="2.172"/><path fill="url(#paint38_linear_6903_5272)" d="M3.043 23.797a3.984 3.984 0 1 1 7.969 0V30H3.043v-6.203Z"/><path fill="url(#paint39_linear_6903_5272)" d="M3.043 23.797a3.984 3.984 0 1 1 7.969 0V30H3.043v-6.203Z"/><path fill="url(#paint40_linear_6903_5272)" d="M3.043 23.797a3.984 3.984 0 1 1 7.969 0V30H3.043v-6.203Z"/><g filter="url(#filter28_f_6903_5272)"><ellipse cx="9.176" cy="22.258" fill="#FDD659" rx=".846" ry="1.357" transform="rotate(-27.209 9.176 22.258)"/></g><g filter="url(#filter29_f_6903_5272)"><path fill="#DA7600" fill-opacity=".5" d="M8.215 20.344a.203.203 0 0 1 .406 0v2.61a.203.203 0 0 1-.406 0v-2.61Z"/></g><g filter="url(#filter30_f_6903_5272)"><path fill="#DA7600" fill-opacity=".75" d="M5.098 20.344a.203.203 0 0 1 .406 0v2.61a.203.203 0 1 1-.406 0v-2.61Z"/></g><path fill="url(#paint41_linear_6903_5272)" d="M5.168 20.055a.336.336 0 1 1 .672 0v2.765a.336.336 0 1 1-.672 0v-2.765Z"/><path fill="url(#paint42_linear_6903_5272)" d="M5.168 20.055a.336.336 0 1 1 .672 0v2.765a.336.336 0 1 1-.672 0v-2.765Z"/><path fill="url(#paint43_linear_6903_5272)" d="M5.168 20.055a.336.336 0 1 1 .672 0v2.765a.336.336 0 1 1-.672 0v-2.765Z"/><path fill="url(#paint44_linear_6903_5272)" d="M8.215 20.055a.336.336 0 1 1 .672 0v2.765a.336.336 0 1 1-.672 0v-2.765Z"/><path fill="url(#paint45_linear_6903_5272)" d="M8.215 20.055a.336.336 0 1 1 .672 0v2.765a.336.336 0 1 1-.672 0v-2.765Z"/><path fill="url(#paint46_linear_6903_5272)" d="M8.215 20.055a.336.336 0 1 1 .672 0v2.765a.336.336 0 1 1-.672 0v-2.765Z"/><g filter="url(#filter31_f_6903_5272)"><path stroke="url(#paint47_linear_6903_5272)" stroke-linecap="round" stroke-width=".2" d="M8.723 22.68v-2.211"/></g><g filter="url(#filter32_f_6903_5272)"><path stroke="url(#paint48_linear_6903_5272)" stroke-linecap="round" stroke-width=".2" d="M5.676 22.68v-2.211"/></g><defs><linearGradient id="paint0_linear_6903_5272" x1="7.964" x2="7.964" y1="1.06" y2="31" gradientUnits="userSpaceOnUse"><stop offset=".288" stop-color="#F2CC26"/><stop offset=".762" stop-color="#E99E20"/><stop offset=".993" stop-color="#E3821D"/><stop offset="1" stop-color="#E3801D"/></linearGradient><linearGradient id="paint1_linear_6903_5272" x1="8.884" x2="1.259" y1="11.851" y2="11.851" gradientUnits="userSpaceOnUse"><stop stop-color="#E99E20" stop-opacity="0"/><stop offset=".993" stop-color="#E3821D"/><stop offset="1" stop-color="#E3801D"/></linearGradient><linearGradient id="paint2_linear_6903_5272" x1="26.759" x2="30.196" y1="11.851" y2="11.851" gradientUnits="userSpaceOnUse"><stop stop-color="#E99E20" stop-opacity="0"/><stop offset=".993" stop-color="#E3821D"/><stop offset="1" stop-color="#E3801D"/></linearGradient><linearGradient id="paint3_linear_6903_5272" x1="16.02" x2="16.019" y1="-1.914" y2="30.523" gradientUnits="userSpaceOnUse"><stop offset=".771" stop-color="#F59639" stop-opacity="0"/><stop offset="1" stop-color="#FF63C4"/></linearGradient><linearGradient id="paint4_linear_6903_5272" x1="16.019" x2="16.019" y1="11.062" y2="32.336" gradientUnits="userSpaceOnUse"><stop offset=".854" stop-color="#fff" stop-opacity="0"/><stop offset=".985" stop-color="#fff"/></linearGradient><linearGradient id="paint6_linear_6903_5272" x1="23.437" x2="28" y1="8.964" y2="13.66" gradientUnits="userSpaceOnUse"><stop stop-color="#FFA720"/><stop offset="1" stop-color="#FFA720" stop-opacity="0"/></linearGradient><linearGradient id="paint7_linear_6903_5272" x1="10.602" x2="4.743" y1="10.547" y2="10" gradientUnits="userSpaceOnUse"><stop offset=".437" stop-color="#ED8C1B"/><stop offset="1" stop-color="#FFB03A"/></linearGradient><linearGradient id="paint8_linear_6903_5272" x1="27.04" x2="26.444" y1="4.891" y2="7.232" gradientUnits="userSpaceOnUse"><stop offset=".286" stop-color="#FFE792"/><stop offset="1" stop-color="#FFDD65" stop-opacity="0"/></linearGradient><linearGradient id="paint9_linear_6903_5272" x1="15.751" x2="15.079" y1="21.264" y2="22.357" gradientUnits="userSpaceOnUse"><stop stop-color="#E3900E"/><stop offset="1" stop-color="#EA9D26" stop-opacity="0"/></linearGradient><linearGradient id="paint11_linear_6903_5272" x1="17.204" x2="15.68" y1="19.654" y2="19.654" gradientUnits="userSpaceOnUse"><stop stop-color="#fff" stop-opacity=".9"/><stop offset="1" stop-color="#fff" stop-opacity="0"/></linearGradient><linearGradient id="paint12_linear_6903_5272" x1="24.29" x2="28.024" y1="23.166" y2="21.25" gradientUnits="userSpaceOnUse"><stop stop-color="#E88105"/><stop offset="1" stop-color="#E37D02" stop-opacity="0"/></linearGradient><linearGradient id="paint13_linear_6903_5272" x1="24.29" x2="28.024" y1="24.509" y2="26.425" gradientUnits="userSpaceOnUse"><stop offset=".286" stop-color="#DE7D07"/><stop offset=".818" stop-color="#E37D02" stop-opacity="0"/></linearGradient><linearGradient id="paint14_linear_6903_5272" x1="25.29" x2="29.527" y1="22.875" y2="20.742" gradientUnits="userSpaceOnUse"><stop offset=".751" stop-color="#D64A38"/><stop offset="1" stop-color="#FB7425"/></linearGradient><linearGradient id="paint15_linear_6903_5272" x1="25.074" x2="29.824" y1="24.639" y2="26.977" gradientUnits="userSpaceOnUse"><stop offset=".792" stop-color="#D64A38"/><stop offset="1" stop-color="#FB7425"/></linearGradient><linearGradient id="paint16_linear_6903_5272" x1="7.018" x2="2.027" y1="24.651" y2="27.148" gradientUnits="userSpaceOnUse"><stop offset=".752" stop-color="#D64A38"/><stop offset="1" stop-color="#FB7425"/></linearGradient><linearGradient id="paint17_linear_6903_5272" x1="6.818" x2="2.728" y1="22.859" y2="20.942" gradientUnits="userSpaceOnUse"><stop offset=".665" stop-color="#D64A38"/><stop offset="1" stop-color="#FB7425"/></linearGradient><linearGradient id="paint18_linear_6903_5272" x1="23.352" x2="22.956" y1="10.768" y2="22.819" gradientUnits="userSpaceOnUse"><stop offset=".548" stop-color="#FFDD65"/><stop offset="1" stop-color="#FFDD65" stop-opacity="0"/></linearGradient><linearGradient id="paint19_linear_6903_5272" x1="26.54" x2="25.29" y1="15.438" y2="11.969" gradientUnits="userSpaceOnUse"><stop stop-color="#EF8A47"/><stop offset="1" stop-color="#EF8A47" stop-opacity="0"/></linearGradient><linearGradient id="paint21_linear_6903_5272" x1="25.055" x2="25.055" y1="10.406" y2="12.75" gradientUnits="userSpaceOnUse"><stop offset=".432" stop-color="#FFE7A3"/><stop offset="1" stop-color="#FFDF83" stop-opacity="0"/></linearGradient><linearGradient id="paint22_linear_6903_5272" x1="22.308" x2="15.205" y1="26.938" y2="30.458" gradientUnits="userSpaceOnUse"><stop stop-color="#DA7600"/><stop offset="1" stop-color="#DA8400" stop-opacity="0"/></linearGradient><linearGradient id="paint23_linear_6903_5272" x1="28.957" x2="20.988" y1="30.403" y2="30.403" gradientUnits="userSpaceOnUse"><stop offset=".161" stop-color="#F2CC26"/><stop offset=".642" stop-color="#E99E20"/><stop offset=".993" stop-color="#E3821D"/><stop offset="1" stop-color="#E3801D"/></linearGradient><linearGradient id="paint24_linear_6903_5272" x1="28.957" x2="20.988" y1="30.403" y2="30.563" gradientUnits="userSpaceOnUse"><stop offset=".866" stop-color="#E3821D" stop-opacity="0"/><stop offset="1" stop-color="#D37516"/></linearGradient><linearGradient id="paint25_linear_6903_5272" x1="26.621" x2="34.809" y1="30.403" y2="30.403" gradientUnits="userSpaceOnUse"><stop stop-color="#E99E20" stop-opacity="0"/><stop offset="1" stop-color="#E99E20"/></linearGradient><linearGradient id="paint26_linear_6903_5272" x1="23.785" x2="22.824" y1="22" y2="22" gradientUnits="userSpaceOnUse"><stop stop-color="#FFB445"/><stop offset="1" stop-color="#E9A239" stop-opacity=".922"/></linearGradient><linearGradient id="paint27_linear_6903_5272" x1="22.34" x2="23.621" y1="22.109" y2="22.031" gradientUnits="userSpaceOnUse"><stop offset=".367" stop-color="#D6850E"/><stop offset="1" stop-color="#CC861F" stop-opacity="0"/></linearGradient><linearGradient id="paint28_linear_6903_5272" x1="23.449" x2="23.449" y1="24.219" y2="22.648" gradientUnits="userSpaceOnUse"><stop stop-color="#FF91B9"/><stop offset="1" stop-color="#FD679E" stop-opacity="0"/></linearGradient><linearGradient id="paint29_linear_6903_5272" x1="26.832" x2="25.871" y1="22" y2="22" gradientUnits="userSpaceOnUse"><stop stop-color="#FFB445"/><stop offset="1" stop-color="#E9A239" stop-opacity=".922"/></linearGradient><linearGradient id="paint30_linear_6903_5272" x1="25.433" x2="26.371" y1="22.047" y2="22.047" gradientUnits="userSpaceOnUse"><stop offset=".367" stop-color="#D6850E"/><stop offset="1" stop-color="#CC861F" stop-opacity="0"/></linearGradient><linearGradient id="paint31_linear_6903_5272" x1="26.496" x2="26.496" y1="24.219" y2="22.648" gradientUnits="userSpaceOnUse"><stop stop-color="#FF91B9"/><stop offset="1" stop-color="#FD679E" stop-opacity="0"/></linearGradient><linearGradient id="paint32_linear_6903_5272" x1="27.082" x2="26.541" y1="23.305" y2="18.998" gradientUnits="userSpaceOnUse"><stop stop-color="#FFC270"/><stop offset=".77" stop-color="#FFE2BB" stop-opacity="0"/></linearGradient><linearGradient id="paint33_linear_6903_5272" x1="24.035" x2="23.494" y1="23.305" y2="18.998" gradientUnits="userSpaceOnUse"><stop stop-color="#FFC270"/><stop offset=".77" stop-color="#FFE2BB" stop-opacity="0"/></linearGradient><linearGradient id="paint34_linear_6903_5272" x1="24.035" x2="23.494" y1="23.305" y2="18.998" gradientUnits="userSpaceOnUse"><stop stop-color="#FFC270"/><stop offset=".77" stop-color="#FFE2BB" stop-opacity="0"/></linearGradient><linearGradient id="paint35_linear_6903_5272" x1="16.742" x2="18.069" y1="17.596" y2="26.301" gradientUnits="userSpaceOnUse"><stop stop-color="#CF8209"/><stop offset="1" stop-color="#C88216" stop-opacity="0"/></linearGradient><linearGradient id="paint36_linear_6903_5272" x1="25.421" x2="26.67" y1="17.616" y2="25.814" gradientUnits="userSpaceOnUse"><stop stop-color="#CF8209"/><stop offset="1" stop-color="#C88216" stop-opacity="0"/></linearGradient><linearGradient id="paint38_linear_6903_5272" x1="11.012" x2="3.043" y1="30.403" y2="30.403" gradientUnits="userSpaceOnUse"><stop offset=".161" stop-color="#F2CC26"/><stop offset=".642" stop-color="#E99E20"/><stop offset=".993" stop-color="#E3821D"/><stop offset="1" stop-color="#E3801D"/></linearGradient><linearGradient id="paint39_linear_6903_5272" x1="11.012" x2="3.043" y1="30.403" y2="30.563" gradientUnits="userSpaceOnUse"><stop offset=".866" stop-color="#E3821D" stop-opacity="0"/><stop offset="1" stop-color="#D37516"/></linearGradient><linearGradient id="paint40_linear_6903_5272" x1="8.676" x2="16.863" y1="30.403" y2="30.403" gradientUnits="userSpaceOnUse"><stop stop-color="#E99E20" stop-opacity="0"/><stop offset="1" stop-color="#E99E20"/></linearGradient><linearGradient id="paint41_linear_6903_5272" x1="5.84" x2="4.879" y1="22" y2="22" gradientUnits="userSpaceOnUse"><stop stop-color="#FFB445"/><stop offset="1" stop-color="#E9A239" stop-opacity=".922"/></linearGradient><linearGradient id="paint42_linear_6903_5272" x1="4.394" x2="5.676" y1="22.109" y2="22.031" gradientUnits="userSpaceOnUse"><stop offset=".367" stop-color="#D6850E"/><stop offset="1" stop-color="#CC861F" stop-opacity="0"/></linearGradient><linearGradient id="paint43_linear_6903_5272" x1="5.504" x2="5.504" y1="24.219" y2="22.648" gradientUnits="userSpaceOnUse"><stop stop-color="#FF91B9"/><stop offset="1" stop-color="#FD679E" stop-opacity="0"/></linearGradient><linearGradient id="paint44_linear_6903_5272" x1="8.887" x2="7.926" y1="22" y2="22" gradientUnits="userSpaceOnUse"><stop stop-color="#FFB445"/><stop offset="1" stop-color="#E9A239" stop-opacity=".922"/></linearGradient><linearGradient id="paint45_linear_6903_5272" x1="7.488" x2="8.426" y1="22.047" y2="22.047" gradientUnits="userSpaceOnUse"><stop offset=".367" stop-color="#D6850E"/><stop offset="1" stop-color="#CC861F" stop-opacity="0"/></linearGradient><linearGradient id="paint46_linear_6903_5272" x1="8.551" x2="8.551" y1="24.219" y2="22.648" gradientUnits="userSpaceOnUse"><stop stop-color="#FF91B9"/><stop offset="1" stop-color="#FD679E" stop-opacity="0"/></linearGradient><linearGradient id="paint47_linear_6903_5272" x1="9.137" x2="8.595" y1="23.305" y2="18.998" gradientUnits="userSpaceOnUse"><stop stop-color="#FFC270"/><stop offset=".77" stop-color="#FFE2BB" stop-opacity="0"/></linearGradient><linearGradient id="paint48_linear_6903_5272" x1="6.09" x2="5.548" y1="23.305" y2="18.998" gradientUnits="userSpaceOnUse"><stop stop-color="#FFC270"/><stop offset=".77" stop-color="#FFE2BB" stop-opacity="0"/></linearGradient><filter id="filter0_f_6903_5272" width="5.727" height="6.698" x="3.554" y="20.25" color-interpolation-filters="sRGB" filterUnits="userSpaceOnUse"><feFlood flood-opacity="0" result="BackgroundImageFix"/><feBlend in="SourceGraphic" in2="BackgroundImageFix" result="shape"/><feGaussianBlur result="effect1_foregroundBlur_6903_5272" stdDeviation=".75"/></filter><filter id="filter1_f_6903_5272" width="9.009" height="11.636" x="18.933" y="4.483" color-interpolation-filters="sRGB" filterUnits="userSpaceOnUse"><feFlood flood-opacity="0" result="BackgroundImageFix"/><feBlend in="SourceGraphic" in2="BackgroundImageFix" result="shape"/><feGaussianBlur result="effect1_foregroundBlur_6903_5272" stdDeviation=".5"/></filter><filter id="filter2_f_6903_5272" width="3.417" height="4.625" x="24.805" y="4.344" color-interpolation-filters="sRGB" filterUnits="userSpaceOnUse"><feFlood flood-opacity="0" result="BackgroundImageFix"/><feBlend in="SourceGraphic" in2="BackgroundImageFix" result="shape"/><feGaussianBlur result="effect1_foregroundBlur_6903_5272" stdDeviation=".5"/></filter><filter id="filter3_f_6903_5272" width="8.95" height="10.729" x="2.906" y="3.563" color-interpolation-filters="sRGB" filterUnits="userSpaceOnUse"><feFlood flood-opacity="0" result="BackgroundImageFix"/><feBlend in="SourceGraphic" in2="BackgroundImageFix" result="shape"/><feGaussianBlur result="effect1_foregroundBlur_6903_5272" stdDeviation="1"/></filter><filter id="filter4_f_6903_5272" width="3.661" height="3.024" x="13.748" y="18.968" color-interpolation-filters="sRGB" filterUnits="userSpaceOnUse"><feFlood flood-opacity="0" result="BackgroundImageFix"/><feBlend in="SourceGraphic" in2="BackgroundImageFix" result="shape"/><feGaussianBlur result="effect1_foregroundBlur_6903_5272" stdDeviation=".25"/></filter><filter id="filter5_f_6903_5272" width="2.723" height="1.748" x="14.909" y="18.779" color-interpolation-filters="sRGB" filterUnits="userSpaceOnUse"><feFlood flood-opacity="0" result="BackgroundImageFix"/><feBlend in="SourceGraphic" in2="BackgroundImageFix" result="shape"/><feGaussianBlur result="effect1_foregroundBlur_6903_5272" stdDeviation=".3"/></filter><filter id="filter6_f_6903_5272" width="6.005" height="4.013" x="23.685" y="19.909" color-interpolation-filters="sRGB" filterUnits="userSpaceOnUse"><feFlood flood-opacity="0" result="BackgroundImageFix"/><feBlend in="SourceGraphic" in2="BackgroundImageFix" result="shape"/><feGaussianBlur result="effect1_foregroundBlur_6903_5272" stdDeviation=".25"/></filter><filter id="filter7_f_6903_5272" width="4.127" height="3.566" x="23.685" y="23.753" color-interpolation-filters="sRGB" filterUnits="userSpaceOnUse"><feFlood flood-opacity="0" result="BackgroundImageFix"/><feBlend in="SourceGraphic" in2="BackgroundImageFix" result="shape"/><feGaussianBlur result="effect1_foregroundBlur_6903_5272" stdDeviation=".25"/></filter><filter id="filter8_f_6903_5272" width="5.105" height="3.113" x="24.916" y="20.178" color-interpolation-filters="sRGB" filterUnits="userSpaceOnUse"><feFlood flood-opacity="0" result="BackgroundImageFix"/><feBlend in="SourceGraphic" in2="BackgroundImageFix" result="shape"/><feGaussianBlur result="effect1_foregroundBlur_6903_5272" stdDeviation=".25"/></filter><filter id="filter9_f_6903_5272" width="5.102" height="3.119" x="24.848" y="23.829" color-interpolation-filters="sRGB" filterUnits="userSpaceOnUse"><feFlood flood-opacity="0" result="BackgroundImageFix"/><feBlend in="SourceGraphic" in2="BackgroundImageFix" result="shape"/><feGaussianBlur result="effect1_foregroundBlur_6903_5272" stdDeviation=".25"/></filter><filter id="filter10_f_6903_5272" width="5.102" height="3.119" x="2.142" y="23.84" color-interpolation-filters="sRGB" filterUnits="userSpaceOnUse"><feFlood flood-opacity="0" result="BackgroundImageFix"/><feBlend in="SourceGraphic" in2="BackgroundImageFix" result="shape"/><feGaussianBlur result="effect1_foregroundBlur_6903_5272" stdDeviation=".25"/></filter><filter id="filter11_f_6903_5272" width="1.364" height="1.336" x="5.964" y="23.767" color-interpolation-filters="sRGB" filterUnits="userSpaceOnUse"><feFlood flood-opacity="0" result="BackgroundImageFix"/><feBlend in="SourceGraphic" in2="BackgroundImageFix" result="shape"/><feGaussianBlur result="effect1_foregroundBlur_6903_5272" stdDeviation=".25"/></filter><filter id="filter12_f_6903_5272" width="5.114" height="3.094" x="2.21" y="19.985" color-interpolation-filters="sRGB" filterUnits="userSpaceOnUse"><feFlood flood-opacity="0" result="BackgroundImageFix"/><feBlend in="SourceGraphic" in2="BackgroundImageFix" result="shape"/><feGaussianBlur result="effect1_foregroundBlur_6903_5272" stdDeviation=".25"/></filter><filter id="filter13_f_6903_5272" width="1.336" height="1.364" x="6.083" y="21.752" color-interpolation-filters="sRGB" filterUnits="userSpaceOnUse"><feFlood flood-opacity="0" result="BackgroundImageFix"/><feBlend in="SourceGraphic" in2="BackgroundImageFix" result="shape"/><feGaussianBlur result="effect1_foregroundBlur_6903_5272" stdDeviation=".25"/></filter><filter id="filter14_f_6903_5272" width="12.585" height="22.186" x="18.102" y="6.031" color-interpolation-filters="sRGB" filterUnits="userSpaceOnUse"><feFlood flood-opacity="0" result="BackgroundImageFix"/><feBlend in="SourceGraphic" in2="BackgroundImageFix" result="shape"/><feGaussianBlur result="effect1_foregroundBlur_6903_5272" stdDeviation="2"/></filter><filter id="filter15_f_6903_5272" width="4.825" height="7.138" x="22.409" y="6.697" color-interpolation-filters="sRGB" filterUnits="userSpaceOnUse"><feFlood flood-opacity="0" result="BackgroundImageFix"/><feBlend in="SourceGraphic" in2="BackgroundImageFix" result="shape"/><feGaussianBlur result="effect1_foregroundBlur_6903_5272" stdDeviation=".3"/></filter><filter id="filter16_f_6903_5272" width="4.531" height="4.734" x="22.727" y="9.219" color-interpolation-filters="sRGB" filterUnits="userSpaceOnUse"><feFlood flood-opacity="0" result="BackgroundImageFix"/><feBlend in="SourceGraphic" in2="BackgroundImageFix" result="shape"/><feGaussianBlur result="effect1_foregroundBlur_6903_5272" stdDeviation=".375"/></filter><filter id="filter17_f_6903_5272" width="4.469" height="6.908" x="4.723" y="6.929" color-interpolation-filters="sRGB" filterUnits="userSpaceOnUse"><feFlood flood-opacity="0" result="BackgroundImageFix"/><feBlend in="SourceGraphic" in2="BackgroundImageFix" result="shape"/><feGaussianBlur result="effect1_foregroundBlur_6903_5272" stdDeviation=".25"/></filter><filter id="filter18_f_6903_5272" width="1.15" height="6.337" x="4.648" y="7.081" color-interpolation-filters="sRGB" filterUnits="userSpaceOnUse"><feFlood flood-opacity="0" result="BackgroundImageFix"/><feBlend in="SourceGraphic" in2="BackgroundImageFix" result="shape"/><feGaussianBlur result="effect1_foregroundBlur_6903_5272" stdDeviation=".25"/></filter><filter id="filter19_f_6903_5272" width="10.382" height="10.382" x="17.117" y="19.794" color-interpolation-filters="sRGB" filterUnits="userSpaceOnUse"><feFlood flood-opacity="0" result="BackgroundImageFix"/><feBlend in="SourceGraphic" in2="BackgroundImageFix" result="shape"/><feGaussianBlur result="effect1_foregroundBlur_6903_5272" stdDeviation="1"/></filter><filter id="filter20_f_6903_5272" width="1.399" height="4.117" x="25.551" y="19.641" color-interpolation-filters="sRGB" filterUnits="userSpaceOnUse"><feFlood flood-opacity="0" result="BackgroundImageFix"/><feBlend in="SourceGraphic" in2="BackgroundImageFix" result="shape"/><feGaussianBlur result="effect1_foregroundBlur_6903_5272" stdDeviation=".25"/></filter><filter id="filter21_f_6903_5272" width="1.406" height="4.016" x="22.473" y="19.641" color-interpolation-filters="sRGB" filterUnits="userSpaceOnUse"><feFlood flood-opacity="0" result="BackgroundImageFix"/><feBlend in="SourceGraphic" in2="BackgroundImageFix" result="shape"/><feGaussianBlur result="effect1_foregroundBlur_6903_5272" stdDeviation=".25"/></filter><filter id="filter22_f_6903_5272" width="4.951" height="5.536" x="24.646" y="19.49" color-interpolation-filters="sRGB" filterUnits="userSpaceOnUse"><feFlood flood-opacity="0" result="BackgroundImageFix"/><feBlend in="SourceGraphic" in2="BackgroundImageFix" result="shape"/><feGaussianBlur result="effect1_foregroundBlur_6903_5272" stdDeviation=".75"/></filter><filter id="filter23_f_6903_5272" width=".6" height="2.811" x="26.368" y="20.169" color-interpolation-filters="sRGB" filterUnits="userSpaceOnUse"><feFlood flood-opacity="0" result="BackgroundImageFix"/><feBlend in="SourceGraphic" in2="BackgroundImageFix" result="shape"/><feGaussianBlur result="effect1_foregroundBlur_6903_5272" stdDeviation=".1"/></filter><filter id="filter24_f_6903_5272" width=".6" height="2.811" x="23.321" y="20.169" color-interpolation-filters="sRGB" filterUnits="userSpaceOnUse"><feFlood flood-opacity="0" result="BackgroundImageFix"/><feBlend in="SourceGraphic" in2="BackgroundImageFix" result="shape"/><feGaussianBlur result="effect1_foregroundBlur_6903_5272" stdDeviation=".1"/></filter><filter id="filter25_f_6903_5272" width=".6" height="2.811" x="23.321" y="20.169" color-interpolation-filters="sRGB" filterUnits="userSpaceOnUse"><feFlood flood-opacity="0" result="BackgroundImageFix"/><feBlend in="SourceGraphic" in2="BackgroundImageFix" result="shape"/><feGaussianBlur result="effect1_foregroundBlur_6903_5272" stdDeviation=".1"/></filter><filter id="filter26_f_6903_5272" width="8.984" height="8.984" x="6.59" y="11.484" color-interpolation-filters="sRGB" filterUnits="userSpaceOnUse"><feFlood flood-opacity="0" result="BackgroundImageFix"/><feBlend in="SourceGraphic" in2="BackgroundImageFix" result="shape"/><feGaussianBlur result="effect1_foregroundBlur_6903_5272" stdDeviation=".5"/></filter><filter id="filter27_f_6903_5272" width="8.578" height="8.578" x="15.801" y="11.801" color-interpolation-filters="sRGB" filterUnits="userSpaceOnUse"><feFlood flood-opacity="0" result="BackgroundImageFix"/><feBlend in="SourceGraphic" in2="BackgroundImageFix" result="shape"/><feGaussianBlur result="effect1_foregroundBlur_6903_5272" stdDeviation=".5"/></filter><filter id="filter28_f_6903_5272" width="4.951" height="5.536" x="6.701" y="19.49" color-interpolation-filters="sRGB" filterUnits="userSpaceOnUse"><feFlood flood-opacity="0" result="BackgroundImageFix"/><feBlend in="SourceGraphic" in2="BackgroundImageFix" result="shape"/><feGaussianBlur result="effect1_foregroundBlur_6903_5272" stdDeviation=".75"/></filter><filter id="filter29_f_6903_5272" width="1.406" height="4.016" x="7.715" y="19.641" color-interpolation-filters="sRGB" filterUnits="userSpaceOnUse"><feFlood flood-opacity="0" result="BackgroundImageFix"/><feBlend in="SourceGraphic" in2="BackgroundImageFix" result="shape"/><feGaussianBlur result="effect1_foregroundBlur_6903_5272" stdDeviation=".25"/></filter><filter id="filter30_f_6903_5272" width="1.406" height="4.016" x="4.598" y="19.641" color-interpolation-filters="sRGB" filterUnits="userSpaceOnUse"><feFlood flood-opacity="0" result="BackgroundImageFix"/><feBlend in="SourceGraphic" in2="BackgroundImageFix" result="shape"/><feGaussianBlur result="effect1_foregroundBlur_6903_5272" stdDeviation=".25"/></filter><filter id="filter31_f_6903_5272" width=".6" height="2.811" x="8.423" y="20.169" color-interpolation-filters="sRGB" filterUnits="userSpaceOnUse"><feFlood flood-opacity="0" result="BackgroundImageFix"/><feBlend in="SourceGraphic" in2="BackgroundImageFix" result="shape"/><feGaussianBlur result="effect1_foregroundBlur_6903_5272" stdDeviation=".1"/></filter><filter id="filter32_f_6903_5272" width=".6" height="2.811" x="5.376" y="20.169" color-interpolation-filters="sRGB" filterUnits="userSpaceOnUse"><feFlood flood-opacity="0" result="BackgroundImageFix"/><feBlend in="SourceGraphic" in2="BackgroundImageFix" result="shape"/><feGaussianBlur result="effect1_foregroundBlur_6903_5272" stdDeviation=".1"/></filter><radialGradient id="paint5_radial_6903_5272" cx="0" cy="0" r="1" gradientTransform="matrix(3.03126 4.46874 -8.83051 5.98995 22.165 4.218)" gradientUnits="userSpaceOnUse"><stop stop-color="#FFA720"/><stop offset=".921" stop-color="#FFA720" stop-opacity="0"/></radialGradient><radialGradient id="paint10_radial_6903_5272" cx="0" cy="0" r="1" gradientTransform="matrix(-1.89063 -.95312 .95876 -1.9018 16.446 20.092)" gradientUnits="userSpaceOnUse"><stop stop-color="#EA088B"/><stop offset="1" stop-color="#E61E27"/></radialGradient><radialGradient id="paint20_radial_6903_5272" cx="0" cy="0" r="1" gradientTransform="matrix(4.40625 6.46875 -7.7559 5.283 22.868 7.703)" gradientUnits="userSpaceOnUse"><stop stop-color="#FFDF70"/><stop offset="1" stop-color="#FFDF70" stop-opacity="0"/></radialGradient><radialGradient id="paint37_radial_6903_5272" cx="0" cy="0" r="1" gradientTransform="matrix(0 -5.91493 9.37069 0 16 28.5)" gradientUnits="userSpaceOnUse"><stop stop-color="#F70A8D"/><stop offset="1" stop-color="#89029C"/></radialGradient></defs></svg>