<svg xmlns="http://www.w3.org/2000/svg" width="32" height="32" fill="none" viewBox="0 0 32 32"><path fill="#56436B" d="M16.295 15.495c-6.07 0-11 4.92-11 11v3.5h21.99v-3.5c0-6.08-4.92-11-10.99-11Z"/><path fill="url(#paint0_radial_4002_1582)" d="M16.295 15.495c-6.07 0-11 4.92-11 11v3.5h21.99v-3.5c0-6.08-4.92-11-10.99-11Z"/><path fill="url(#paint1_radial_4002_1582)" d="M16.295 15.495c-6.07 0-11 4.92-11 11v3.5h21.99v-3.5c0-6.08-4.92-11-10.99-11Z"/><path fill="url(#paint2_radial_4002_1582)" d="M23.311 18.094a.242.242 0 0 0-.059-.29c-1.856-1.602-4.346-2.487-6.954-2.487-2.608 0-5.113.894-6.97 2.487a.242.242 0 0 0-.06.29c1.276 2.6 3.756 4.614 7.03 4.614 3.274 0 5.73-2.014 7.013-4.614Z"/><path fill="url(#paint3_radial_4002_1582)" d="M23.311 18.094a.242.242 0 0 0-.059-.29c-1.856-1.602-4.346-2.487-6.954-2.487-2.608 0-5.113.894-6.97 2.487a.242.242 0 0 0-.06.29c1.276 2.6 3.756 4.614 7.03 4.614 3.274 0 5.73-2.014 7.013-4.614Z"/><path fill="url(#paint4_radial_4002_1582)" d="M23.311 18.094a.242.242 0 0 0-.059-.29c-1.856-1.602-4.346-2.487-6.954-2.487-2.608 0-5.113.894-6.97 2.487a.242.242 0 0 0-.06.29c1.276 2.6 3.756 4.614 7.03 4.614 3.274 0 5.73-2.014 7.013-4.614Z"/><path fill="url(#paint5_radial_4002_1582)" d="M23.311 18.094a.242.242 0 0 0-.059-.29c-1.856-1.602-4.346-2.487-6.954-2.487-2.608 0-5.113.894-6.97 2.487a.242.242 0 0 0-.06.29c1.276 2.6 3.756 4.614 7.03 4.614 3.274 0 5.73-2.014 7.013-4.614Z"/><path fill="url(#paint6_radial_4002_1582)" d="M23.311 18.094a.242.242 0 0 0-.059-.29c-1.856-1.602-4.346-2.487-6.954-2.487-2.608 0-5.113.894-6.97 2.487a.242.242 0 0 0-.06.29c1.276 2.6 3.756 4.614 7.03 4.614 3.274 0 5.73-2.014 7.013-4.614Z"/><path fill="url(#paint7_radial_4002_1582)" d="M23.311 18.094a.242.242 0 0 0-.059-.29c-1.856-1.602-4.346-2.487-6.954-2.487-2.608 0-5.113.894-6.97 2.487a.242.242 0 0 0-.06.29c1.276 2.6 3.756 4.614 7.03 4.614 3.274 0 5.73-2.014 7.013-4.614Z"/><g filter="url(#filter0_f_4002_1582)"><path stroke="#1F0F21" stroke-width=".4" d="M15.996 18.865c.063.043.17.08.28.084a.562.562 0 0 0 .28-.084c1.017-.696 1.78-1.39 1.78-2.587v-3.633c0-1.14-.92-2.06-2.06-2.06-1.14 0-2.06.92-2.06 2.06v3.633c0 1.198.763 1.891 1.78 2.587Z"/></g><path fill="url(#paint8_radial_4002_1582)" d="M15.996 18.865c.063.043.17.08.28.084a.562.562 0 0 0 .28-.084c1.017-.696 1.78-1.39 1.78-2.587v-3.633c0-1.14-.92-2.06-2.06-2.06-1.14 0-2.06.92-2.06 2.06v3.633c0 1.198.763 1.891 1.78 2.587Z"/><path fill="url(#paint9_linear_4002_1582)" d="M25.023 11.668V2.805h-.8v8.863h.8Z"/><path fill="url(#paint10_radial_4002_1582)" d="M25.023 11.668V2.805h-.8v8.863h.8Z"/><path fill="url(#paint11_radial_4002_1582)" d="M24.223 11.644a.838.838 0 1 0 .8 0h-.8Z"/><path fill="url(#paint12_radial_4002_1582)" d="M24.223 11.644a.838.838 0 1 0 .8 0h-.8Z"/><g filter="url(#filter1_f_4002_1582)"><path stroke="url(#paint13_linear_4002_1582)" stroke-width=".15" d="M24.726 3.708v7.768"/></g><path fill="url(#paint14_linear_4002_1582)" d="m23.77 13.605-.517 2.238a.45.45 0 0 0 .445.552h1.863a.45.45 0 0 0 .43-.557l-.542-2.24a.5.5 0 0 0-.485-.38h-.707a.5.5 0 0 0-.488.387Z"/><path fill="url(#paint15_linear_4002_1582)" d="m23.77 13.605-.517 2.238a.45.45 0 0 0 .445.552h1.863a.45.45 0 0 0 .43-.557l-.542-2.24a.5.5 0 0 0-.485-.38h-.707a.5.5 0 0 0-.488.387Z"/><path fill="url(#paint16_radial_4002_1582)" d="m23.77 13.605-.517 2.238a.45.45 0 0 0 .445.552h1.863a.45.45 0 0 0 .43-.557l-.542-2.24a.5.5 0 0 0-.485-.38h-.707a.5.5 0 0 0-.488.387Z"/><path fill="url(#paint17_radial_4002_1582)" d="m23.77 13.605-.517 2.238a.45.45 0 0 0 .445.552h1.863a.45.45 0 0 0 .43-.557l-.542-2.24a.5.5 0 0 0-.485-.38h-.707a.5.5 0 0 0-.488.387Z"/><path fill="url(#paint18_radial_4002_1582)" d="m23.77 13.605-.517 2.238a.45.45 0 0 0 .445.552h1.863a.45.45 0 0 0 .43-.557l-.542-2.24a.5.5 0 0 0-.485-.38h-.707a.5.5 0 0 0-.488.387Z"/><path fill="url(#paint19_radial_4002_1582)" d="M9.06 29.995V18.21a10.972 10.972 0 0 0-3.765 8.286v3.5H9.06Z"/><path fill="url(#paint20_radial_4002_1582)" d="M9.06 29.995V18.21a10.972 10.972 0 0 0-3.765 8.286v3.5H9.06Z"/><path fill="url(#paint21_linear_4002_1582)" d="M9.06 29.995V18.21a10.972 10.972 0 0 0-3.765 8.286v3.5H9.06Z"/><path fill="url(#paint22_radial_4002_1582)" d="M23.52 29.995V18.21a10.972 10.972 0 0 1 3.765 8.286v3.5H23.52Z"/><path fill="url(#paint23_radial_4002_1582)" d="M23.52 29.995V18.21a10.972 10.972 0 0 1 3.765 8.286v3.5H23.52Z"/><g filter="url(#filter2_f_4002_1582)"><path fill="url(#paint24_linear_4002_1582)" d="M11.958 23.771c0-.188.155-.34.346-.34.19 0 .345.152.345.34v6.093h-.691v-6.093Z"/><path fill="url(#paint25_linear_4002_1582)" d="M15.944 23.771c0-.188.155-.34.346-.34.191 0 .346.152.346.34v6.093h-.692v-6.093Z"/><path fill="url(#paint26_linear_4002_1582)" d="M19.93 23.771c0-.188.155-.34.346-.34.191 0 .346.152.346.34v6.093h-.691v-6.093Z"/></g><path fill="url(#paint27_radial_4002_1582)" d="M21.25 12.107c.342-.01.662-.127.923-.314v.95c0 .91-.543 1.722-1.368 2.06.173-.37.293-.774.353-1.205l.092-1.49Z"/><path fill="url(#paint28_radial_4002_1582)" d="M11.33 12.107a1.675 1.675 0 0 1-.922-.314v.95c0 .91.543 1.722 1.368 2.06a4.17 4.17 0 0 1-.353-1.205l-.092-1.49Z"/><g filter="url(#filter3_ii_4002_1582)"><path fill="url(#paint29_radial_4002_1582)" d="M11.367 13.653a3.995 3.995 0 0 0 3.965 3.475h1.925a3.995 3.995 0 0 0 3.964-3.475c.12-1.922.241-3.836.33-5.757a1.479 1.479 0 0 0-1.406-1.461h-1.429a2.471 2.471 0 0 1-2.256-1.472.678.678 0 0 0-.628-.427h-1.299c-1.883 0-3.409 1.543-3.409 3.448 0 1.898.119 3.766.243 5.669Z"/></g><path fill="url(#paint30_linear_4002_1582)" d="M11.367 13.653a3.995 3.995 0 0 0 3.965 3.475h1.925a3.995 3.995 0 0 0 3.964-3.475c.12-1.922.241-3.836.33-5.757a1.479 1.479 0 0 0-1.406-1.461h-1.429a2.471 2.471 0 0 1-2.256-1.472.678.678 0 0 0-.628-.427h-1.299c-1.883 0-3.409 1.543-3.409 3.448 0 1.898.119 3.766.243 5.669Z"/><path fill="url(#paint31_radial_4002_1582)" d="M11.367 13.653a3.995 3.995 0 0 0 3.965 3.475h1.925a3.995 3.995 0 0 0 3.964-3.475c.12-1.922.241-3.836.33-5.757a1.479 1.479 0 0 0-1.406-1.461h-1.429a2.471 2.471 0 0 1-2.256-1.472.678.678 0 0 0-.628-.427h-1.299c-1.883 0-3.409 1.543-3.409 3.448 0 1.898.119 3.766.243 5.669Z"/><path fill="url(#paint32_radial_4002_1582)" d="M11.367 13.653a3.995 3.995 0 0 0 3.965 3.475h1.925a3.995 3.995 0 0 0 3.964-3.475c.12-1.922.241-3.836.33-5.757a1.479 1.479 0 0 0-1.406-1.461h-1.429a2.471 2.471 0 0 1-2.256-1.472.678.678 0 0 0-.628-.427h-1.299c-1.883 0-3.409 1.543-3.409 3.448 0 1.898.119 3.766.243 5.669Z"/><path fill="url(#paint33_radial_4002_1582)" d="M11.367 13.653a3.995 3.995 0 0 0 3.965 3.475h1.925a3.995 3.995 0 0 0 3.964-3.475c.12-1.922.241-3.836.33-5.757a1.479 1.479 0 0 0-1.406-1.461h-1.429a2.471 2.471 0 0 1-2.256-1.472.678.678 0 0 0-.628-.427h-1.299c-1.883 0-3.409 1.543-3.409 3.448 0 1.898.119 3.766.243 5.669Z"/><path fill="url(#paint34_radial_4002_1582)" d="M11.367 13.653a3.995 3.995 0 0 0 3.965 3.475h1.925a3.995 3.995 0 0 0 3.964-3.475c.12-1.922.241-3.836.33-5.757a1.479 1.479 0 0 0-1.406-1.461h-1.429a2.471 2.471 0 0 1-2.256-1.472.678.678 0 0 0-.628-.427h-1.299c-1.883 0-3.409 1.543-3.409 3.448 0 1.898.119 3.766.243 5.669Z"/><path fill="url(#paint35_radial_4002_1582)" d="M11.367 13.653a3.995 3.995 0 0 0 3.965 3.475h1.925a3.995 3.995 0 0 0 3.964-3.475c.12-1.922.241-3.836.33-5.757a1.479 1.479 0 0 0-1.406-1.461h-1.429a2.471 2.471 0 0 1-2.256-1.472.678.678 0 0 0-.628-.427h-1.299c-1.883 0-3.409 1.543-3.409 3.448 0 1.898.119 3.766.243 5.669Z"/><path fill="url(#paint36_radial_4002_1582)" d="M11.367 13.653a3.995 3.995 0 0 0 3.965 3.475h1.925a3.995 3.995 0 0 0 3.964-3.475c.12-1.922.241-3.836.33-5.757a1.479 1.479 0 0 0-1.406-1.461h-1.429a2.471 2.471 0 0 1-2.256-1.472.678.678 0 0 0-.628-.427h-1.299c-1.883 0-3.409 1.543-3.409 3.448 0 1.898.119 3.766.243 5.669Z"/><path fill="url(#paint37_radial_4002_1582)" d="M11.367 13.653a3.995 3.995 0 0 0 3.965 3.475h1.925a3.995 3.995 0 0 0 3.964-3.475c.12-1.922.241-3.836.33-5.757a1.479 1.479 0 0 0-1.406-1.461h-1.429a2.471 2.471 0 0 1-2.256-1.472.678.678 0 0 0-.628-.427h-1.299c-1.883 0-3.409 1.543-3.409 3.448 0 1.898.119 3.766.243 5.669Z"/><path fill="url(#paint38_radial_4002_1582)" d="M11.367 13.653a3.995 3.995 0 0 0 3.965 3.475h1.925a3.995 3.995 0 0 0 3.964-3.475c.12-1.922.241-3.836.33-5.757a1.479 1.479 0 0 0-1.406-1.461h-1.429a2.471 2.471 0 0 1-2.256-1.472.678.678 0 0 0-.628-.427h-1.299c-1.883 0-3.409 1.543-3.409 3.448 0 1.898.119 3.766.243 5.669Z"/><g filter="url(#filter4_f_4002_1582)"><path fill="#331E24" d="m15.88 10.303-.602 1.875c-.103.386.144.772.494.772h.746c.35 0 .598-.392.495-.772l-.505-1.875c-.108-.416-.514-.416-.627 0Z"/></g><g filter="url(#filter5_f_4002_1582)"><path fill="#402929" d="m15.9 10.103-.542 1.876c-.11.386.155.771.531.771h.802c.377 0 .642-.392.531-.771l-.542-1.876c-.116-.415-.658-.415-.78 0Z"/><path fill="url(#paint39_linear_4002_1582)" d="m15.9 10.103-.542 1.876c-.11.386.155.771.531.771h.802c.377 0 .642-.392.531-.771l-.542-1.876c-.116-.415-.658-.415-.78 0Z"/><path fill="url(#paint40_radial_4002_1582)" d="m15.9 10.103-.542 1.876c-.11.386.155.771.531.771h.802c.377 0 .642-.392.531-.771l-.542-1.876c-.116-.415-.658-.415-.78 0Z"/><path fill="url(#paint41_linear_4002_1582)" d="m15.9 10.103-.542 1.876c-.11.386.155.771.531.771h.802c.377 0 .642-.392.531-.771l-.542-1.876c-.116-.415-.658-.415-.78 0Z"/><path fill="url(#paint42_radial_4002_1582)" d="m15.9 10.103-.542 1.876c-.11.386.155.771.531.771h.802c.377 0 .642-.392.531-.771l-.542-1.876c-.116-.415-.658-.415-.78 0Z"/><path fill="url(#paint43_linear_4002_1582)" d="m15.9 10.103-.542 1.876c-.11.386.155.771.531.771h.802c.377 0 .642-.392.531-.771l-.542-1.876c-.116-.415-.658-.415-.78 0Z"/></g><g filter="url(#filter6_f_4002_1582)"><path stroke="url(#paint44_linear_4002_1582)" stroke-width=".15" d="M14.911 13.386c.398.207.873.326 1.38.326.51 0 .98-.119 1.378-.326a.232.232 0 0 1 .275.045c.065.068.09.177.024.276m-3.057-.321 2.995.28m-2.995-.28a.231.231 0 0 0-.275.047.215.215 0 0 0-.023.274m.298-.321-.236.28m3.293.04v.001l-.063-.042m.063.042-.063-.042m.063.042a2.007 2.007 0 0 1-1.678.896 2.007 2.007 0 0 1-1.677-.896m3.293-.042a1.932 1.932 0 0 1-1.616.864 1.932 1.932 0 0 1-1.615-.864m-.063.042.001.001.062-.043m-.063.042.063-.042"/></g><path fill="url(#paint45_radial_4002_1582)" d="M16.29 13.787a3.066 3.066 0 0 1-1.413-.335c-.14-.07-.29.087-.202.213a1.93 1.93 0 0 0 1.615.864c.678 0 1.274-.346 1.616-.864.088-.132-.063-.284-.202-.213a3.05 3.05 0 0 1-1.414.335Z"/><g filter="url(#filter7_ii_4002_1582)"><path fill="url(#paint46_linear_4002_1582)" d="M21.243 4.055c.525.18.996.547 1.293 1.072a2.418 2.418 0 0 1-.108 2.578 1.591 1.591 0 0 0-.276.892v1.212a1.78 1.78 0 0 0-.68-.274l.08-1.639a1.479 1.479 0 0 0-1.407-1.46h-1.429a2.471 2.471 0 0 1-2.256-1.473.678.678 0 0 0-.628-.427h-1.299c-1.883 0-3.409 1.544-3.409 3.448l.032 1.568c-.26.038-.53.125-.735.27V8.596c0-.318-.098-.63-.276-.892a2.439 2.439 0 0 1-.146-2.496 2.394 2.394 0 0 1 1.325-1.149 2.736 2.736 0 0 0 1.413-1.132c.422-.673 1.163-.876 2.013-.876.33 0 .644.07.936.191.39.17.828.17 1.217 0a2.4 2.4 0 0 1 .931-.191c.86 0 1.613.219 2.03.908.313.52.805.898 1.38 1.095Z"/><path fill="url(#paint47_radial_4002_1582)" d="M21.243 4.055c.525.18.996.547 1.293 1.072a2.418 2.418 0 0 1-.108 2.578 1.591 1.591 0 0 0-.276.892v1.212a1.78 1.78 0 0 0-.68-.274l.08-1.639a1.479 1.479 0 0 0-1.407-1.46h-1.429a2.471 2.471 0 0 1-2.256-1.473.678.678 0 0 0-.628-.427h-1.299c-1.883 0-3.409 1.544-3.409 3.448l.032 1.568c-.26.038-.53.125-.735.27V8.596c0-.318-.098-.63-.276-.892a2.439 2.439 0 0 1-.146-2.496 2.394 2.394 0 0 1 1.325-1.149 2.736 2.736 0 0 0 1.413-1.132c.422-.673 1.163-.876 2.013-.876.33 0 .644.07.936.191.39.17.828.17 1.217 0a2.4 2.4 0 0 1 .931-.191c.86 0 1.613.219 2.03.908.313.52.805.898 1.38 1.095Z"/><path fill="url(#paint48_radial_4002_1582)" d="M21.243 4.055c.525.18.996.547 1.293 1.072a2.418 2.418 0 0 1-.108 2.578 1.591 1.591 0 0 0-.276.892v1.212a1.78 1.78 0 0 0-.68-.274l.08-1.639a1.479 1.479 0 0 0-1.407-1.46h-1.429a2.471 2.471 0 0 1-2.256-1.473.678.678 0 0 0-.628-.427h-1.299c-1.883 0-3.409 1.544-3.409 3.448l.032 1.568c-.26.038-.53.125-.735.27V8.596c0-.318-.098-.63-.276-.892a2.439 2.439 0 0 1-.146-2.496 2.394 2.394 0 0 1 1.325-1.149 2.736 2.736 0 0 0 1.413-1.132c.422-.673 1.163-.876 2.013-.876.33 0 .644.07.936.191.39.17.828.17 1.217 0a2.4 2.4 0 0 1 .931-.191c.86 0 1.613.219 2.03.908.313.52.805.898 1.38 1.095Z"/><path fill="url(#paint49_radial_4002_1582)" d="M21.243 4.055c.525.18.996.547 1.293 1.072a2.418 2.418 0 0 1-.108 2.578 1.591 1.591 0 0 0-.276.892v1.212a1.78 1.78 0 0 0-.68-.274l.08-1.639a1.479 1.479 0 0 0-1.407-1.46h-1.429a2.471 2.471 0 0 1-2.256-1.473.678.678 0 0 0-.628-.427h-1.299c-1.883 0-3.409 1.544-3.409 3.448l.032 1.568c-.26.038-.53.125-.735.27V8.596c0-.318-.098-.63-.276-.892a2.439 2.439 0 0 1-.146-2.496 2.394 2.394 0 0 1 1.325-1.149 2.736 2.736 0 0 0 1.413-1.132c.422-.673 1.163-.876 2.013-.876.33 0 .644.07.936.191.39.17.828.17 1.217 0a2.4 2.4 0 0 1 .931-.191c.86 0 1.613.219 2.03.908.313.52.805.898 1.38 1.095Z"/><path fill="url(#paint50_radial_4002_1582)" d="M21.243 4.055c.525.18.996.547 1.293 1.072a2.418 2.418 0 0 1-.108 2.578 1.591 1.591 0 0 0-.276.892v1.212a1.78 1.78 0 0 0-.68-.274l.08-1.639a1.479 1.479 0 0 0-1.407-1.46h-1.429a2.471 2.471 0 0 1-2.256-1.473.678.678 0 0 0-.628-.427h-1.299c-1.883 0-3.409 1.544-3.409 3.448l.032 1.568c-.26.038-.53.125-.735.27V8.596c0-.318-.098-.63-.276-.892a2.439 2.439 0 0 1-.146-2.496 2.394 2.394 0 0 1 1.325-1.149 2.736 2.736 0 0 0 1.413-1.132c.422-.673 1.163-.876 2.013-.876.33 0 .644.07.936.191.39.17.828.17 1.217 0a2.4 2.4 0 0 1 .931-.191c.86 0 1.613.219 2.03.908.313.52.805.898 1.38 1.095Z"/></g><g filter="url(#filter8_i_4002_1582)"><path fill="#202020" d="M20.099 7.792c-.18-.156-.387-.32-.702-.42-.31-.097-.699-.124-1.237-.058a.283.283 0 1 0 .069.562c.49-.06.791-.03.998.036.203.064.34.167.5.307a.283.283 0 0 0 .372-.427Z"/></g><g filter="url(#filter9_i_4002_1582)"><path fill="#202020" d="M12.81 7.68a2.83 2.83 0 0 1 1.774-.367.283.283 0 1 1-.069.563 2.264 2.264 0 0 0-1.414.29c-.035.021-.06.038-.077.05l-.017.011-.003.003a.283.283 0 0 1-.346-.448l.152-.101Z"/></g><g filter="url(#filter10_if_4002_1582)"><path fill="#23181C" d="M16.527 5.103a2.551 2.551 0 0 1-.067-.14.678.678 0 0 0-.628-.427h-1.299c-1.883 0-3.409 1.544-3.409 3.448v.28c-.347-.263-.783-.82-.783-1.721 0-1.094.798-1.647 1.306-2 .144-.099.265-.182.338-.258l.101-.107c.357-.378.992-1.052 2.102-1.346a5.586 5.586 0 0 1 1.554-.168c.473.012.806.42.806.894v1.531l-.02.014Z"/><path fill="url(#paint51_radial_4002_1582)" d="M16.527 5.103a2.551 2.551 0 0 1-.067-.14.678.678 0 0 0-.628-.427h-1.299c-1.883 0-3.409 1.544-3.409 3.448v.28c-.347-.263-.783-.82-.783-1.721 0-1.094.798-1.647 1.306-2 .144-.099.265-.182.338-.258l.101-.107c.357-.378.992-1.052 2.102-1.346a5.586 5.586 0 0 1 1.554-.168c.473.012.806.42.806.894v1.531l-.02.014Z"/><path fill="url(#paint52_radial_4002_1582)" d="M16.527 5.103a2.551 2.551 0 0 1-.067-.14.678.678 0 0 0-.628-.427h-1.299c-1.883 0-3.409 1.544-3.409 3.448v.28c-.347-.263-.783-.82-.783-1.721 0-1.094.798-1.647 1.306-2 .144-.099.265-.182.338-.258l.101-.107c.357-.378.992-1.052 2.102-1.346a5.586 5.586 0 0 1 1.554-.168c.473.012.806.42.806.894v1.531l-.02.014Z"/></g><g filter="url(#filter11_if_4002_1582)"><path fill="#1F151B" d="m21.608 8.436-.03-.644c-.01-.78-.654-1.422-1.433-1.455h-1.429a2.47 2.47 0 0 1-2.167-1.285s-.065-.152-.131-.41c-.248-.972.678-1.713 1.663-1.524 1.002.191 2.15.528 2.996 1.08 1.78 1.16 1.468 3.252.531 4.238Z"/><path fill="url(#paint53_radial_4002_1582)" d="m21.608 8.436-.03-.644c-.01-.78-.654-1.422-1.433-1.455h-1.429a2.47 2.47 0 0 1-2.167-1.285s-.065-.152-.131-.41c-.248-.972.678-1.713 1.663-1.524 1.002.191 2.15.528 2.996 1.08 1.78 1.16 1.468 3.252.531 4.238Z"/></g><path fill="#fff" d="M18.73 9.133c.666 0 1.229.46 1.382 1.08a.28.28 0 0 1-.273.348h-2.277a.235.235 0 0 1-.232-.277 1.426 1.426 0 0 1 1.4-1.15Z"/><path fill="url(#paint54_radial_4002_1582)" d="M18.518 9.41a.91.91 0 0 1 .878 1.151h-1.76a.914.914 0 0 1 .881-1.15Z"/><path fill="#000" d="M17.997 10.321a.52.52 0 0 1 .521-.521.52.52 0 0 1 .464.761h-.923a.471.471 0 0 1-.062-.24Z"/><g filter="url(#filter12_f_4002_1582)"><path fill="#C7A7A3" d="M18.451 9.603c.065.087-.07.192-.224.308-.155.115-.269.196-.334.11-.065-.087.008-.251.162-.366.154-.116.332-.139.396-.052Z"/><path fill="url(#paint55_radial_4002_1582)" d="M18.451 9.603c.065.087-.07.192-.224.308-.155.115-.269.196-.334.11-.065-.087.008-.251.162-.366.154-.116.332-.139.396-.052Z"/></g><g filter="url(#filter13_f_4002_1582)"><path fill="url(#paint56_linear_4002_1582)" d="M19.33 10.201a.857.857 0 0 0-.237-.472l-.265.291.12.233.381-.052Z"/></g><path fill="#fff" d="M13.85 9.133c-.665 0-1.228.46-1.381 1.08a.28.28 0 0 0 .273.348h2.276c.145 0 .26-.132.232-.277a1.43 1.43 0 0 0-1.4-1.15Z"/><path fill="url(#paint57_radial_4002_1582)" d="M14.062 9.41a.91.91 0 0 0-.877 1.151h1.758a.933.933 0 0 0 .034-.24.917.917 0 0 0-.915-.91Z"/><path fill="#000" d="M14.583 10.321a.52.52 0 0 0-.521-.521.52.52 0 0 0-.464.761h.923a.517.517 0 0 0 .062-.24Z"/><g filter="url(#filter14_f_4002_1582)"><path fill="url(#paint58_linear_4002_1582)" d="M14.894 10.214c0-.294-.24-.49-.304-.55l-.294.285.18.369.418-.104Z"/></g><g filter="url(#filter15_f_4002_1582)" transform="rotate(-27.914 13.787 9.8)"><ellipse cx="13.787" cy="9.8" fill="#C7A7A3" fill-opacity=".9" rx=".398" ry=".201"/><ellipse cx="13.787" cy="9.8" fill="url(#paint59_radial_4002_1582)" rx=".398" ry=".201"/></g><path fill="url(#paint60_linear_4002_1582)" d="M21.311 12.2c.068-1.085.132-2.17.189-3.256a1.642 1.642 0 0 1-.189 3.256Z"/><path fill="url(#paint61_radial_4002_1582)" d="M21.311 12.2c.068-1.085.132-2.17.189-3.256a1.642 1.642 0 0 1-.189 3.256Z"/><path fill="url(#paint62_radial_4002_1582)" d="M21.311 12.2c.068-1.085.132-2.17.189-3.256a1.642 1.642 0 0 1-.189 3.256Z"/><path fill="url(#paint63_radial_4002_1582)" d="M21.311 12.2c.068-1.085.132-2.17.189-3.256a1.642 1.642 0 0 1-.189 3.256Z"/><path fill="url(#paint64_linear_4002_1582)" d="M11.134 8.936a1.642 1.642 0 0 0 .141 3.264 79.687 79.687 0 0 1-.141-3.264Z"/><path fill="url(#paint65_radial_4002_1582)" d="M11.134 8.936a1.642 1.642 0 0 0 .141 3.264 79.687 79.687 0 0 1-.141-3.264Z"/><g filter="url(#filter16_f_4002_1582)"><path fill="url(#paint66_radial_4002_1582)" d="M11.102 9.61a.975.975 0 0 0 .085 1.917 79.788 79.788 0 0 1-.085-1.918Z"/></g><g filter="url(#filter17_f_4002_1582)"><path fill="url(#paint67_linear_4002_1582)" d="M21.333 11.532c.04-.647.077-1.294.113-1.942a.975.975 0 0 1-.113 1.942Z"/></g><g filter="url(#filter18_f_4002_1582)"><path stroke="#353535" stroke-linecap="round" stroke-width=".25" d="M12.849 7.966c.262-.188.915-.519 1.688-.389"/></g><g filter="url(#filter19_f_4002_1582)"><path stroke="#353535" stroke-linecap="round" stroke-width=".25" d="M19.923 7.919c-.262-.188-.915-.519-1.688-.389"/></g><g filter="url(#filter20_f_4002_1582)"><path fill="#504A4C" d="M20.568 5.12h-2.123a.492.492 0 1 1 .078-.98c.551.087 1.283.21 1.773.331 1.107.275 1.413.814 1.498 1.198a1.544 1.544 0 0 0-1.226-.549Z"/></g><g filter="url(#filter21_i_4002_1582)"><path fill="url(#paint68_radial_4002_1582)" d="m9.977 5.228 1.21-1.973 10.258-.11 1.117 2.02c-4.664 1.61-10.496.797-12.585.063Z"/><path fill="url(#paint69_radial_4002_1582)" d="m9.977 5.228 1.21-1.973 10.258-.11 1.117 2.02c-4.664 1.61-10.496.797-12.585.063Z"/></g><path fill="url(#paint70_linear_4002_1582)" d="M24.233 3.605H8.263c-.44 0-.8-.36-.8-.8 0-.44.36-.8.8-.8h15.96c.44 0 .8.36.8.8.01.44-.35.8-.79.8Z"/><path fill="url(#paint71_radial_4002_1582)" d="M24.233 3.605H8.263c-.44 0-.8-.36-.8-.8 0-.44.36-.8.8-.8h15.96c.44 0 .8.36.8.8.01.44-.35.8-.79.8Z"/><path fill="url(#paint72_radial_4002_1582)" d="M24.233 3.605H8.263c-.44 0-.8-.36-.8-.8 0-.44.36-.8.8-.8h15.96c.44 0 .8.36.8.8.01.44-.35.8-.79.8Z"/><defs><radialGradient id="paint0_radial_4002_1582" cx="0" cy="0" r="1" gradientTransform="matrix(0 10.875 -3.65625 0 23.592 23.114)" gradientUnits="userSpaceOnUse"><stop stop-color="#70647F"/><stop offset="1" stop-color="#70647F" stop-opacity="0"/></radialGradient><radialGradient id="paint1_radial_4002_1582" cx="0" cy="0" r="1" gradientTransform="matrix(1.3125 0 0 7.0625 8.998 21.458)" gradientUnits="userSpaceOnUse"><stop stop-color="#5D516A"/><stop offset="1" stop-color="#5D516A" stop-opacity="0"/></radialGradient><radialGradient id="paint2_radial_4002_1582" cx="0" cy="0" r="1" gradientTransform="matrix(0 -4.71875 15.8584 0 16.298 21.349)" gradientUnits="userSpaceOnUse"><stop offset=".201" stop-color="#46404E"/><stop offset="1" stop-color="#3A3142"/></radialGradient><radialGradient id="paint3_radial_4002_1582" cx="0" cy="0" r="1" gradientTransform="matrix(0 5.9375 -7.54205 0 16.29 16.895)" gradientUnits="userSpaceOnUse"><stop offset=".932" stop-color="#342542" stop-opacity="0"/><stop offset=".995" stop-color="#342542"/></radialGradient><radialGradient id="paint4_radial_4002_1582" cx="0" cy="0" r="1" gradientTransform="matrix(-5.88284 4.0234 -5.54695 -8.11053 15.873 15.552)" gradientUnits="userSpaceOnUse"><stop offset=".928" stop-color="#6A656F" stop-opacity="0"/><stop offset="1" stop-color="#6A656F"/></radialGradient><radialGradient id="paint5_radial_4002_1582" cx="0" cy="0" r="1" gradientTransform="matrix(6.76566 4.60934 -6.35476 9.32761 15.623 15.317)" gradientUnits="userSpaceOnUse"><stop offset=".939" stop-color="#655F6B" stop-opacity="0"/><stop offset=".971" stop-color="#655F6B"/></radialGradient><radialGradient id="paint6_radial_4002_1582" cx="0" cy="0" r="1" gradientTransform="matrix(0 -10.0625 10.6454 0 16.29 23.614)" gradientUnits="userSpaceOnUse"><stop offset=".506" stop-color="#57525D" stop-opacity="0"/><stop offset="1" stop-color="#57525D"/></radialGradient><radialGradient id="paint7_radial_4002_1582" cx="0" cy="0" r="1" gradientTransform="matrix(0 3.85937 -5.04205 0 16.29 15.317)" gradientUnits="userSpaceOnUse"><stop offset=".316" stop-color="#361E27"/><stop offset="1" stop-color="#361E27" stop-opacity="0"/></radialGradient><radialGradient id="paint8_radial_4002_1582" cx="0" cy="0" r="1" gradientTransform="rotate(-159.677 10.453 7.348) scale(2.69928 5.70569)" gradientUnits="userSpaceOnUse"><stop stop-color="#3B2426"/><stop offset="1" stop-color="#2A1418"/></radialGradient><radialGradient id="paint10_radial_4002_1582" cx="0" cy="0" r="1" gradientTransform="matrix(0 -2.33473 .18031 0 24.865 11.668)" gradientUnits="userSpaceOnUse"><stop stop-color="#70635D"/><stop offset="1" stop-color="#70635D" stop-opacity="0"/></radialGradient><radialGradient id="paint11_radial_4002_1582" cx="0" cy="0" r="1" gradientTransform="matrix(-.81259 1.10067 -.98646 -.72826 25.123 12.04)" gradientUnits="userSpaceOnUse"><stop stop-color="#686071"/><stop offset=".661" stop-color="#402A4C"/></radialGradient><radialGradient id="paint12_radial_4002_1582" cx="0" cy="0" r="1" gradientTransform="matrix(.79636 -.08984 .10538 .93405 23.785 12.43)" gradientUnits="userSpaceOnUse"><stop offset=".087" stop-color="#685352"/><stop offset="1" stop-color="#685352" stop-opacity="0"/></radialGradient><radialGradient id="paint16_radial_4002_1582" cx="0" cy="0" r="1" gradientTransform="rotate(169.33 12.257 8.55) scale(1.11532 5.56401)" gradientUnits="userSpaceOnUse"><stop offset=".286" stop-color="#FFD93A"/><stop offset="1" stop-color="#FFD93A" stop-opacity="0"/></radialGradient><radialGradient id="paint17_radial_4002_1582" cx="0" cy="0" r="1" gradientTransform="matrix(0 -1.3125 2.89043 0 24.623 16.895)" gradientUnits="userSpaceOnUse"><stop offset=".422" stop-color="#9B6733"/><stop offset="1" stop-color="#DB9820" stop-opacity="0"/></radialGradient><radialGradient id="paint18_radial_4002_1582" cx="0" cy="0" r="1" gradientTransform="matrix(0 .39844 -1.38177 0 24.623 13.106)" gradientUnits="userSpaceOnUse"><stop offset=".161" stop-color="#845D03"/><stop offset="1" stop-color="#EBA429" stop-opacity="0"/></radialGradient><radialGradient id="paint19_radial_4002_1582" cx="0" cy="0" r="1" gradientTransform="matrix(0 -16.3734 4.36464 0 5.295 29.995)" gradientUnits="userSpaceOnUse"><stop stop-color="#766C83"/><stop offset=".441" stop-color="#58496A"/><stop offset="1" stop-color="#4D4159"/></radialGradient><radialGradient id="paint20_radial_4002_1582" cx="0" cy="0" r="1" gradientTransform="matrix(0 -10.5202 .82413 0 9.06 29.995)" gradientUnits="userSpaceOnUse"><stop offset=".286" stop-color="#4F445B"/><stop offset="1" stop-color="#4F445B" stop-opacity="0"/></radialGradient><radialGradient id="paint22_radial_4002_1582" cx="0" cy="0" r="1" gradientTransform="matrix(-1.88274 -10.19308 2.86286 -.5288 25.402 29.995)" gradientUnits="userSpaceOnUse"><stop stop-color="#736782"/><stop offset="1" stop-color="#5F5070"/></radialGradient><radialGradient id="paint23_radial_4002_1582" cx="0" cy="0" r="1" gradientTransform="matrix(.5437 12.03342 -.70276 .03175 23.35 23.157)" gradientUnits="userSpaceOnUse"><stop offset=".177" stop-color="#3F2A51"/><stop offset="1" stop-color="#3F2A51" stop-opacity="0"/></radialGradient><radialGradient id="paint27_radial_4002_1582" cx="0" cy="0" r="1" gradientTransform="matrix(.76393 2.0604 -2.4476 .90749 21.14 11.793)" gradientUnits="userSpaceOnUse"><stop offset=".215" stop-color="#3C3B3C"/><stop offset="1" stop-color="#221C27"/></radialGradient><radialGradient id="paint28_radial_4002_1582" cx="0" cy="0" r="1" gradientTransform="rotate(17.447 -35 39.094) scale(1.57898 4.87127)" gradientUnits="userSpaceOnUse"><stop stop-color="#463C39"/><stop offset=".746" stop-color="#1B141E"/></radialGradient><radialGradient id="paint29_radial_4002_1582" cx="0" cy="0" r="1" gradientTransform="matrix(-5.33365 0 0 -9.43517 19.155 10.832)" gradientUnits="userSpaceOnUse"><stop stop-color="#563B38"/><stop offset="1" stop-color="#3C2828"/></radialGradient><radialGradient id="paint31_radial_4002_1582" cx="0" cy="0" r="1" gradientTransform="matrix(-1.04291 12.67487 -10.49633 -.86366 17.904 4.799)" gradientUnits="userSpaceOnUse"><stop offset=".767" stop-color="#2D1720" stop-opacity="0"/><stop offset="1" stop-color="#2D1720"/></radialGradient><radialGradient id="paint32_radial_4002_1582" cx="0" cy="0" r="1" gradientTransform="matrix(0 -1.17159 1.44984 0 18.787 9.492)" gradientUnits="userSpaceOnUse"><stop offset=".325" stop-color="#432728"/><stop offset="1" stop-color="#432728" stop-opacity="0"/></radialGradient><radialGradient id="paint33_radial_4002_1582" cx="0" cy="0" r="1" gradientTransform="matrix(.00401 -1.11642 1.21493 .00436 13.943 9.54)" gradientUnits="userSpaceOnUse"><stop offset=".378" stop-color="#361E27"/><stop offset="1" stop-color="#361E27" stop-opacity="0"/></radialGradient><radialGradient id="paint34_radial_4002_1582" cx="0" cy="0" r="1" gradientTransform="matrix(-8.66792 .54716 -1.39772 -22.14213 19.792 11.84)" gradientUnits="userSpaceOnUse"><stop offset=".836" stop-color="#564440" stop-opacity="0"/><stop offset="1" stop-color="#564440"/></radialGradient><radialGradient id="paint35_radial_4002_1582" cx="0" cy="0" r="1" gradientTransform="matrix(4.15543 -2.70187 .98908 1.52118 10.712 6.42)" gradientUnits="userSpaceOnUse"><stop offset=".38" stop-color="#231112"/><stop offset="1" stop-color="#231112" stop-opacity="0"/></radialGradient><radialGradient id="paint36_radial_4002_1582" cx="0" cy="0" r="1" gradientTransform="matrix(-.2394 2.54798 -1.01853 -.0957 21.947 7.855)" gradientUnits="userSpaceOnUse"><stop offset=".245" stop-color="#6B5B59"/><stop offset="1" stop-color="#6B5B59" stop-opacity="0"/></radialGradient><radialGradient id="paint37_radial_4002_1582" cx="0" cy="0" r="1" gradientTransform="rotate(121.159 7.761 8.168) scale(3.43716 2.83765)" gradientUnits="userSpaceOnUse"><stop offset=".078" stop-color="#534445"/><stop offset="1" stop-color="#534445" stop-opacity="0"/></radialGradient><radialGradient id="paint38_radial_4002_1582" cx="0" cy="0" r="1" gradientTransform="matrix(0 2.52209 -6.44806 0 15.662 4.536)" gradientUnits="userSpaceOnUse"><stop offset=".634" stop-color="#2A161C"/><stop offset="1" stop-color="#2A161C" stop-opacity="0"/></radialGradient><radialGradient id="paint40_radial_4002_1582" cx="0" cy="0" r="1" gradientTransform="matrix(0 .24904 -.7827 0 16.766 12.22)" gradientUnits="userSpaceOnUse"><stop stop-color="#685554"/><stop offset="1" stop-color="#685554" stop-opacity="0"/></radialGradient><radialGradient id="paint42_radial_4002_1582" cx="0" cy="0" r="1" gradientTransform="matrix(-1.55193 .71154 -1.1435 -2.49407 16.884 11.64)" gradientUnits="userSpaceOnUse"><stop offset=".714" stop-color="#3E2B29" stop-opacity="0"/><stop offset="1" stop-color="#3F2C2A"/></radialGradient><radialGradient id="paint45_radial_4002_1582" cx="0" cy="0" r="1" gradientTransform="matrix(0 -.73532 2.95839 0 16.29 14.443)" gradientUnits="userSpaceOnUse"><stop stop-color="#290018"/><stop offset="1" stop-color="#290017"/></radialGradient><radialGradient id="paint47_radial_4002_1582" cx="0" cy="0" r="1" gradientTransform="matrix(0 -3.57218 9.03363 0 10.955 7.881)" gradientUnits="userSpaceOnUse"><stop offset=".536" stop-color="#3E3433"/><stop offset="1" stop-color="#3E3433" stop-opacity="0"/></radialGradient><radialGradient id="paint48_radial_4002_1582" cx="0" cy="0" r="1" gradientTransform="matrix(.11635 -2.5634 4.54181 .20615 21.25 9.218)" gradientUnits="userSpaceOnUse"><stop stop-color="#4F4D4D"/><stop offset="1" stop-color="#4F4D4D" stop-opacity="0"/></radialGradient><radialGradient id="paint49_radial_4002_1582" cx="0" cy="0" r="1" gradientTransform="matrix(-2.40657 -1.5828 1.16186 -1.76655 20.48 2.815)" gradientUnits="userSpaceOnUse"><stop stop-color="#5E5A5B"/><stop offset="1" stop-color="#5E5A5B" stop-opacity="0"/></radialGradient><radialGradient id="paint50_radial_4002_1582" cx="0" cy="0" r="1" gradientTransform="matrix(.92343 1.50484 -3.48452 2.13823 15.367 1.19)" gradientUnits="userSpaceOnUse"><stop offset=".287" stop-color="#484646"/><stop offset="1" stop-color="#484646" stop-opacity="0"/></radialGradient><radialGradient id="paint51_radial_4002_1582" cx="0" cy="0" r="1" gradientTransform="matrix(-2.24567 0 0 -.83346 16.549 3.495)" gradientUnits="userSpaceOnUse"><stop stop-color="#423C3F"/><stop offset="1" stop-color="#423C3F" stop-opacity="0"/></radialGradient><radialGradient id="paint52_radial_4002_1582" cx="0" cy="0" r="1" gradientTransform="matrix(3.2833 -5.19856 5.75946 3.63755 10.75 7.517)" gradientUnits="userSpaceOnUse"><stop offset=".093" stop-color="#0B0306"/><stop offset=".311" stop-color="#1C0C20"/><stop offset="1" stop-color="#1C0C20" stop-opacity="0"/></radialGradient><radialGradient id="paint53_radial_4002_1582" cx="0" cy="0" r="1" gradientTransform="matrix(3.31395 .38734 -.16217 1.38748 18.073 5.88)" gradientUnits="userSpaceOnUse"><stop stop-color="#200E25"/><stop offset="1" stop-color="#200E25" stop-opacity="0"/></radialGradient><radialGradient id="paint54_radial_4002_1582" cx="0" cy="0" r="1" gradientTransform="matrix(0 .82774 -1.31661 0 18.516 9.897)" gradientUnits="userSpaceOnUse"><stop offset=".802" stop-color="#7D574A"/><stop offset="1" stop-color="#694B43"/><stop offset="1" stop-color="#804D49"/><stop offset="1" stop-color="#664842"/></radialGradient><radialGradient id="paint55_radial_4002_1582" cx="0" cy="0" r="1" gradientTransform="rotate(-127.812 11.586 .514) scale(.38594 .53136)" gradientUnits="userSpaceOnUse"><stop offset=".766" stop-color="#FFE6E2" stop-opacity="0"/><stop offset=".966" stop-color="#FFE6E2"/></radialGradient><radialGradient id="paint57_radial_4002_1582" cx="0" cy="0" r="1" gradientTransform="matrix(0 .82778 -1.31668 0 14.064 9.897)" gradientUnits="userSpaceOnUse"><stop offset=".802" stop-color="#7D574A"/><stop offset="1" stop-color="#694B43"/><stop offset="1" stop-color="#804D49"/><stop offset="1" stop-color="#664842"/></radialGradient><radialGradient id="paint59_radial_4002_1582" cx="0" cy="0" r="1" gradientTransform="rotate(-90.897 11.868 -1.718) scale(.50414 .60601)" gradientUnits="userSpaceOnUse"><stop offset=".766" stop-color="#FFE6E2" stop-opacity="0"/><stop offset=".966" stop-color="#FFE6E2"/></radialGradient><radialGradient id="paint61_radial_4002_1582" cx="0" cy="0" r="1" gradientTransform="matrix(.64127 2.28867 -2.18357 .61182 21.001 9.912)" gradientUnits="userSpaceOnUse"><stop offset=".856" stop-color="#301924" stop-opacity="0"/><stop offset="1" stop-color="#301924"/></radialGradient><radialGradient id="paint62_radial_4002_1582" cx="0" cy="0" r="1" gradientTransform="matrix(.80372 -1.10298 .92452 .67368 21.369 10.467)" gradientUnits="userSpaceOnUse"><stop offset=".664" stop-color="#351B1E"/><stop offset="1" stop-color="#351B1E" stop-opacity="0"/></radialGradient><radialGradient id="paint63_radial_4002_1582" cx="0" cy="0" r="1" gradientTransform="matrix(.59888 -1.5818 2.1135 .80018 21.485 10.643)" gradientUnits="userSpaceOnUse"><stop offset=".803" stop-color="#361C1E" stop-opacity="0"/><stop offset=".966" stop-color="#361C1E"/></radialGradient><radialGradient id="paint65_radial_4002_1582" cx="0" cy="0" r="1" gradientTransform="rotate(101.248 1.323 9.522) scale(2.15952 2.123)" gradientUnits="userSpaceOnUse"><stop offset=".775" stop-color="#301929" stop-opacity="0"/><stop offset="1" stop-color="#301929"/></radialGradient><radialGradient id="paint66_radial_4002_1582" cx="0" cy="0" r="1" gradientTransform="rotate(170.26 5.188 5.764) scale(.9487 .41843)" gradientUnits="userSpaceOnUse"><stop stop-color="#2C1D22"/><stop offset="1" stop-color="#271416"/></radialGradient><radialGradient id="paint68_radial_4002_1582" cx="0" cy="0" r="1" gradientTransform="rotate(-100.732 11.899 -4.871) scale(3.6749 8.45124)" gradientUnits="userSpaceOnUse"><stop stop-color="#534D5A"/><stop offset="1" stop-color="#372E41"/></radialGradient><radialGradient id="paint69_radial_4002_1582" cx="0" cy="0" r="1" gradientTransform="matrix(0 1.99817 -7.31619 0 16.238 2.866)" gradientUnits="userSpaceOnUse"><stop offset=".263" stop-color="#160C20"/><stop offset="1" stop-color="#160C20" stop-opacity="0"/></radialGradient><radialGradient id="paint71_radial_4002_1582" cx="0" cy="0" r="1" gradientTransform="matrix(0 .9375 -12.6875 0 22.03 2.396)" gradientUnits="userSpaceOnUse"><stop stop-color="#6A6273"/><stop offset=".867" stop-color="#696070" stop-opacity="0"/></radialGradient><radialGradient id="paint72_radial_4002_1582" cx="0" cy="0" r="1" gradientTransform="matrix(7.75 0 0 .875 7.06 3.02)" gradientUnits="userSpaceOnUse"><stop stop-color="#75707B"/><stop offset=".935" stop-color="#75707B" stop-opacity="0"/></radialGradient><filter id="filter0_f_4002_1582" width="5.32" height="9.565" x="13.616" y="9.985" color-interpolation-filters="sRGB" filterUnits="userSpaceOnUse"><feFlood flood-opacity="0" result="BackgroundImageFix"/><feBlend in="SourceGraphic" in2="BackgroundImageFix" result="shape"/><feGaussianBlur result="effect1_foregroundBlur_4002_1582" stdDeviation=".2"/></filter><filter id="filter1_f_4002_1582" width=".65" height="8.268" x="24.401" y="3.458" color-interpolation-filters="sRGB" filterUnits="userSpaceOnUse"><feFlood flood-opacity="0" result="BackgroundImageFix"/><feBlend in="SourceGraphic" in2="BackgroundImageFix" result="shape"/><feGaussianBlur result="effect1_foregroundBlur_4002_1582" stdDeviation=".125"/></filter><filter id="filter2_f_4002_1582" width="8.964" height="6.734" x="11.808" y="23.281" color-interpolation-filters="sRGB" filterUnits="userSpaceOnUse"><feFlood flood-opacity="0" result="BackgroundImageFix"/><feBlend in="SourceGraphic" in2="BackgroundImageFix" result="shape"/><feGaussianBlur result="effect1_foregroundBlur_4002_1582" stdDeviation=".075"/></filter><filter id="filter3_ii_4002_1582" width="11.427" height="12.791" x="11.124" y="4.536" color-interpolation-filters="sRGB" filterUnits="userSpaceOnUse"><feFlood flood-opacity="0" result="BackgroundImageFix"/><feBlend in="SourceGraphic" in2="BackgroundImageFix" result="shape"/><feColorMatrix in="SourceAlpha" result="hardAlpha" values="0 0 0 0 0 0 0 0 0 0 0 0 0 0 0 0 0 0 127 0"/><feOffset dx="1"/><feGaussianBlur stdDeviation=".7"/><feComposite in2="hardAlpha" k2="-1" k3="1" operator="arithmetic"/><feColorMatrix values="0 0 0 0 0.333333 0 0 0 0 0.270588 0 0 0 0 0.258824 0 0 0 1 0"/><feBlend in2="shape" result="effect1_innerShadow_4002_1582"/><feColorMatrix in="SourceAlpha" result="hardAlpha" values="0 0 0 0 0 0 0 0 0 0 0 0 0 0 0 0 0 0 127 0"/><feOffset dy=".2"/><feGaussianBlur stdDeviation=".375"/><feComposite in2="hardAlpha" k2="-1" k3="1" operator="arithmetic"/><feColorMatrix values="0 0 0 0 0.145098 0 0 0 0 0.0705882 0 0 0 0 0.0745098 0 0 0 1 0"/><feBlend in2="effect1_innerShadow_4002_1582" result="effect2_innerShadow_4002_1582"/></filter><filter id="filter4_f_4002_1582" width="3.782" height="4.959" x="14.254" y="8.991" color-interpolation-filters="sRGB" filterUnits="userSpaceOnUse"><feFlood flood-opacity="0" result="BackgroundImageFix"/><feBlend in="SourceGraphic" in2="BackgroundImageFix" result="shape"/><feGaussianBlur result="effect1_foregroundBlur_4002_1582" stdDeviation=".5"/></filter><filter id="filter5_f_4002_1582" width="2.315" height="3.359" x="15.133" y="9.591" color-interpolation-filters="sRGB" filterUnits="userSpaceOnUse"><feFlood flood-opacity="0" result="BackgroundImageFix"/><feBlend in="SourceGraphic" in2="BackgroundImageFix" result="shape"/><feGaussianBlur result="effect1_foregroundBlur_4002_1582" stdDeviation=".1"/></filter><filter id="filter6_f_4002_1582" width="3.784" height="1.595" x="14.398" y="13.184" color-interpolation-filters="sRGB" filterUnits="userSpaceOnUse"><feFlood flood-opacity="0" result="BackgroundImageFix"/><feBlend in="SourceGraphic" in2="BackgroundImageFix" result="shape"/><feGaussianBlur result="effect1_foregroundBlur_4002_1582" stdDeviation=".05"/></filter><filter id="filter7_ii_4002_1582" width="13.133" height="8.27" x="9.723" y="1.552" color-interpolation-filters="sRGB" filterUnits="userSpaceOnUse"><feFlood flood-opacity="0" result="BackgroundImageFix"/><feBlend in="SourceGraphic" in2="BackgroundImageFix" result="shape"/><feColorMatrix in="SourceAlpha" result="hardAlpha" values="0 0 0 0 0 0 0 0 0 0 0 0 0 0 0 0 0 0 127 0"/><feOffset dy="-.5"/><feGaussianBlur stdDeviation=".625"/><feComposite in2="hardAlpha" k2="-1" k3="1" operator="arithmetic"/><feColorMatrix values="0 0 0 0 0.137255 0 0 0 0 0.0901961 0 0 0 0 0.145098 0 0 0 1 0"/><feBlend in2="shape" result="effect1_innerShadow_4002_1582"/><feColorMatrix in="SourceAlpha" result="hardAlpha" values="0 0 0 0 0 0 0 0 0 0 0 0 0 0 0 0 0 0 127 0"/><feOffset dy="-.2"/><feGaussianBlur stdDeviation=".2"/><feComposite in2="hardAlpha" k2="-1" k3="1" operator="arithmetic"/><feColorMatrix values="0 0 0 0 0.0784314 0 0 0 0 0.0352941 0 0 0 0 0.0470588 0 0 0 1 0"/><feBlend in2="effect1_innerShadow_4002_1582" result="effect2_innerShadow_4002_1582"/></filter><filter id="filter8_i_4002_1582" width="2.384" height="1.21" x="17.912" y="7.078" color-interpolation-filters="sRGB" filterUnits="userSpaceOnUse"><feFlood flood-opacity="0" result="BackgroundImageFix"/><feBlend in="SourceGraphic" in2="BackgroundImageFix" result="shape"/><feColorMatrix in="SourceAlpha" result="hardAlpha" values="0 0 0 0 0 0 0 0 0 0 0 0 0 0 0 0 0 0 127 0"/><feOffset dx=".1" dy="-.2"/><feGaussianBlur stdDeviation=".125"/><feComposite in2="hardAlpha" k2="-1" k3="1" operator="arithmetic"/><feColorMatrix values="0 0 0 0 0.0588235 0 0 0 0 0.054902 0 0 0 0 0.0588235 0 0 0 1 0"/><feBlend in2="shape" result="effect1_innerShadow_4002_1582"/></filter><filter id="filter9_i_4002_1582" width="2.384" height="1.196" x="12.549" y="7.093" color-interpolation-filters="sRGB" filterUnits="userSpaceOnUse"><feFlood flood-opacity="0" result="BackgroundImageFix"/><feBlend in="SourceGraphic" in2="BackgroundImageFix" result="shape"/><feColorMatrix in="SourceAlpha" result="hardAlpha" values="0 0 0 0 0 0 0 0 0 0 0 0 0 0 0 0 0 0 127 0"/><feOffset dx=".1" dy="-.2"/><feGaussianBlur stdDeviation=".125"/><feComposite in2="hardAlpha" k2="-1" k3="1" operator="arithmetic"/><feColorMatrix values="0 0 0 0 0.0588235 0 0 0 0 0.054902 0 0 0 0 0.0588235 0 0 0 1 0"/><feBlend in2="shape" result="effect1_innerShadow_4002_1582"/></filter><filter id="filter10_if_4002_1582" width="7.207" height="6.603" x="9.841" y="2.162" color-interpolation-filters="sRGB" filterUnits="userSpaceOnUse"><feFlood flood-opacity="0" result="BackgroundImageFix"/><feBlend in="SourceGraphic" in2="BackgroundImageFix" result="shape"/><feColorMatrix in="SourceAlpha" result="hardAlpha" values="0 0 0 0 0 0 0 0 0 0 0 0 0 0 0 0 0 0 127 0"/><feOffset dx=".4" dy=".2"/><feGaussianBlur stdDeviation=".2"/><feComposite in2="hardAlpha" k2="-1" k3="1" operator="arithmetic"/><feColorMatrix values="0 0 0 0 0.286275 0 0 0 0 0.243137 0 0 0 0 0.227451 0 0 0 1 0"/><feBlend in2="shape" result="effect1_innerShadow_4002_1582"/><feGaussianBlur result="effect2_foregroundBlur_4002_1582" stdDeviation=".25"/></filter><filter id="filter11_if_4002_1582" width="6.986" height="6.347" x="15.877" y="2.588" color-interpolation-filters="sRGB" filterUnits="userSpaceOnUse"><feFlood flood-opacity="0" result="BackgroundImageFix"/><feBlend in="SourceGraphic" in2="BackgroundImageFix" result="shape"/><feColorMatrix in="SourceAlpha" result="hardAlpha" values="0 0 0 0 0 0 0 0 0 0 0 0 0 0 0 0 0 0 127 0"/><feOffset dx="-.1" dy=".2"/><feComposite in2="hardAlpha" k2="-1" k3="1" operator="arithmetic"/><feColorMatrix values="0 0 0 0 0.329412 0 0 0 0 0.305882 0 0 0 0 0.313726 0 0 0 1 0"/><feBlend in2="shape" result="effect1_innerShadow_4002_1582"/><feGaussianBlur result="effect2_foregroundBlur_4002_1582" stdDeviation=".25"/></filter><filter id="filter12_f_4002_1582" width=".799" height=".706" x="17.769" y="9.45" color-interpolation-filters="sRGB" filterUnits="userSpaceOnUse"><feFlood flood-opacity="0" result="BackgroundImageFix"/><feBlend in="SourceGraphic" in2="BackgroundImageFix" result="shape"/><feGaussianBlur result="effect1_foregroundBlur_4002_1582" stdDeviation=".05"/></filter><filter id="filter13_f_4002_1582" width=".901" height=".924" x="18.628" y="9.529" color-interpolation-filters="sRGB" filterUnits="userSpaceOnUse"><feFlood flood-opacity="0" result="BackgroundImageFix"/><feBlend in="SourceGraphic" in2="BackgroundImageFix" result="shape"/><feGaussianBlur result="effect1_foregroundBlur_4002_1582" stdDeviation=".1"/></filter><filter id="filter14_f_4002_1582" width=".998" height="1.053" x="14.095" y="9.465" color-interpolation-filters="sRGB" filterUnits="userSpaceOnUse"><feFlood flood-opacity="0" result="BackgroundImageFix"/><feBlend in="SourceGraphic" in2="BackgroundImageFix" result="shape"/><feGaussianBlur result="effect1_foregroundBlur_4002_1582" stdDeviation=".1"/></filter><filter id="filter15_f_4002_1582" width=".928" height=".715" x="13.323" y="9.442" color-interpolation-filters="sRGB" filterUnits="userSpaceOnUse"><feFlood flood-opacity="0" result="BackgroundImageFix"/><feBlend in="SourceGraphic" in2="BackgroundImageFix" result="shape"/><feGaussianBlur result="effect1_foregroundBlur_4002_1582" stdDeviation=".05"/></filter><filter id="filter16_f_4002_1582" width="1.346" height="2.417" x="10.091" y="9.359" color-interpolation-filters="sRGB" filterUnits="userSpaceOnUse"><feFlood flood-opacity="0" result="BackgroundImageFix"/><feBlend in="SourceGraphic" in2="BackgroundImageFix" result="shape"/><feGaussianBlur result="effect1_foregroundBlur_4002_1582" stdDeviation=".125"/></filter><filter id="filter17_f_4002_1582" width="1.966" height="2.942" x="20.833" y="9.09" color-interpolation-filters="sRGB" filterUnits="userSpaceOnUse"><feFlood flood-opacity="0" result="BackgroundImageFix"/><feBlend in="SourceGraphic" in2="BackgroundImageFix" result="shape"/><feGaussianBlur result="effect1_foregroundBlur_4002_1582" stdDeviation=".25"/></filter><filter id="filter18_f_4002_1582" width="2.439" height="1.168" x="12.474" y="7.173" color-interpolation-filters="sRGB" filterUnits="userSpaceOnUse"><feFlood flood-opacity="0" result="BackgroundImageFix"/><feBlend in="SourceGraphic" in2="BackgroundImageFix" result="shape"/><feGaussianBlur result="effect1_foregroundBlur_4002_1582" stdDeviation=".125"/></filter><filter id="filter19_f_4002_1582" width="2.439" height="1.168" x="17.86" y="7.125" color-interpolation-filters="sRGB" filterUnits="userSpaceOnUse"><feFlood flood-opacity="0" result="BackgroundImageFix"/><feBlend in="SourceGraphic" in2="BackgroundImageFix" result="shape"/><feGaussianBlur result="effect1_foregroundBlur_4002_1582" stdDeviation=".125"/></filter><filter id="filter20_f_4002_1582" width="5.842" height="3.536" x="16.952" y="3.133" color-interpolation-filters="sRGB" filterUnits="userSpaceOnUse"><feFlood flood-opacity="0" result="BackgroundImageFix"/><feBlend in="SourceGraphic" in2="BackgroundImageFix" result="shape"/><feGaussianBlur result="effect1_foregroundBlur_4002_1582" stdDeviation=".5"/></filter><filter id="filter21_i_4002_1582" width="12.586" height="3.001" x="9.977" y="3.096" color-interpolation-filters="sRGB" filterUnits="userSpaceOnUse"><feFlood flood-opacity="0" result="BackgroundImageFix"/><feBlend in="SourceGraphic" in2="BackgroundImageFix" result="shape"/><feColorMatrix in="SourceAlpha" result="hardAlpha" values="0 0 0 0 0 0 0 0 0 0 0 0 0 0 0 0 0 0 127 0"/><feOffset dy="-.05"/><feGaussianBlur stdDeviation=".025"/><feComposite in2="hardAlpha" k2="-1" k3="1" operator="arithmetic"/><feColorMatrix values="0 0 0 0 0.360784 0 0 0 0 0.337255 0 0 0 0 0.372549 0 0 0 1 0"/><feBlend in2="shape" result="effect1_innerShadow_4002_1582"/></filter><linearGradient id="paint9_linear_4002_1582" x1="23.98" x2="25.166" y1="8.942" y2="8.942" gradientUnits="userSpaceOnUse"><stop stop-color="#33203C"/><stop offset="1" stop-color="#61546D"/></linearGradient><linearGradient id="paint13_linear_4002_1582" x1="25.226" x2="25.226" y1="3.708" y2="11.476" gradientUnits="userSpaceOnUse"><stop stop-color="#60546C"/><stop offset="1" stop-color="#504B55"/></linearGradient><linearGradient id="paint14_linear_4002_1582" x1="25.774" x2="23.455" y1="14.806" y2="14.806" gradientUnits="userSpaceOnUse"><stop stop-color="#F9B72A"/><stop offset=".897" stop-color="#FAAC28"/></linearGradient><linearGradient id="paint15_linear_4002_1582" x1="23.406" x2="24.469" y1="14.602" y2="14.727" gradientUnits="userSpaceOnUse"><stop stop-color="#BD9130"/><stop offset="1" stop-color="#FBB229" stop-opacity="0"/></linearGradient><linearGradient id="paint21_linear_4002_1582" x1="9.205" x2="8.779" y1="28.064" y2="28.064" gradientUnits="userSpaceOnUse"><stop offset=".444" stop-color="#433850"/><stop offset="1" stop-color="#433850" stop-opacity="0"/></linearGradient><linearGradient id="paint24_linear_4002_1582" x1="16.29" x2="16.29" y1="29.864" y2="23.431" gradientUnits="userSpaceOnUse"><stop stop-color="#3F3748"/><stop offset="1" stop-color="#3F3748" stop-opacity="0"/></linearGradient><linearGradient id="paint25_linear_4002_1582" x1="16.29" x2="16.29" y1="29.864" y2="23.431" gradientUnits="userSpaceOnUse"><stop stop-color="#3F3748"/><stop offset="1" stop-color="#3F3748" stop-opacity="0"/></linearGradient><linearGradient id="paint26_linear_4002_1582" x1="16.29" x2="16.29" y1="29.864" y2="23.431" gradientUnits="userSpaceOnUse"><stop stop-color="#3F3748"/><stop offset="1" stop-color="#3F3748" stop-opacity="0"/></linearGradient><linearGradient id="paint30_linear_4002_1582" x1="21.552" x2="17.111" y1="12.551" y2="12.551" gradientUnits="userSpaceOnUse"><stop stop-color="#563B38"/><stop offset="1" stop-color="#563B38" stop-opacity="0"/></linearGradient><linearGradient id="paint39_linear_4002_1582" x1="17.145" x2="16.29" y1="11.521" y2="11.556" gradientUnits="userSpaceOnUse"><stop offset=".36" stop-color="#66514E"/><stop offset="1" stop-color="#66514E" stop-opacity="0"/></linearGradient><linearGradient id="paint41_linear_4002_1582" x1="16.29" x2="16.29" y1="12.683" y2="12.209" gradientUnits="userSpaceOnUse"><stop stop-color="#3E2230"/><stop offset="1" stop-color="#3E2230" stop-opacity="0"/></linearGradient><linearGradient id="paint43_linear_4002_1582" x1="16.29" x2="16.29" y1="9.669" y2="10.481" gradientUnits="userSpaceOnUse"><stop stop-color="#4B302A"/><stop offset="1" stop-color="#4B302A" stop-opacity="0"/></linearGradient><linearGradient id="paint44_linear_4002_1582" x1="15.064" x2="15.389" y1="14.286" y2="13.434" gradientUnits="userSpaceOnUse"><stop stop-color="#584A4A"/><stop offset="1" stop-color="#40222D" stop-opacity="0"/></linearGradient><linearGradient id="paint46_linear_4002_1582" x1="23.281" x2="11.433" y1="5.055" y2="5.055" gradientUnits="userSpaceOnUse"><stop stop-color="#443D40"/><stop offset="1" stop-color="#272127"/></linearGradient><linearGradient id="paint56_linear_4002_1582" x1="19.31" x2="18.99" y1="9.952" y2="10.149" gradientUnits="userSpaceOnUse"><stop stop-color="#B4948D"/><stop offset="1" stop-color="#B4948D" stop-opacity="0"/></linearGradient><linearGradient id="paint58_linear_4002_1582" x1="14.823" x2="14.503" y1="9.952" y2="10.15" gradientUnits="userSpaceOnUse"><stop stop-color="#B4948D"/><stop offset="1" stop-color="#B4948D" stop-opacity="0"/></linearGradient><linearGradient id="paint60_linear_4002_1582" x1="22.857" x2="21.625" y1="9.98" y2="12.2" gradientUnits="userSpaceOnUse"><stop stop-color="#62504F"/><stop offset="1" stop-color="#492F32"/></linearGradient><linearGradient id="paint64_linear_4002_1582" x1="10.322" x2="11.81" y1="10.698" y2="10.568" gradientUnits="userSpaceOnUse"><stop stop-color="#372425"/><stop offset="1" stop-color="#281919"/></linearGradient><linearGradient id="paint67_linear_4002_1582" x1="21.816" x2="21.816" y1="9.59" y2="11.532" gradientUnits="userSpaceOnUse"><stop stop-color="#4C3838"/><stop offset="1" stop-color="#3E2724"/></linearGradient><linearGradient id="paint70_linear_4002_1582" x1="18.06" x2="16.779" y1="3.958" y2="-.417" gradientUnits="userSpaceOnUse"><stop stop-color="#3D294B"/><stop offset="1" stop-color="#433A4D"/></linearGradient></defs></svg>