<svg xmlns="http://www.w3.org/2000/svg" width="32" height="32" fill="none" viewBox="0 0 32 32"><path fill="url(#paint0_linear_4791_583)" d="M10.984 30V14.419L9.484 14v1.047H2.766v2.015h6.718v2.954H2.766v2.015h6.718v2.953H2.766V27h6.718v3h1.5Z"/><path fill="url(#paint1_linear_4791_583)" d="M10.984 30V14.419L9.484 14v1.047H2.766v2.015h6.718v2.954H2.766v2.015h6.718v2.953H2.766V27h6.718v3h1.5Z"/><path fill="url(#paint2_linear_4791_583)" d="M10.984 30V14.419L9.484 14v1.047H2.766v2.015h6.718v2.954H2.766v2.015h6.718v2.953H2.766V27h6.718v3h1.5Z"/><path fill="url(#paint3_linear_4791_583)" d="M10.984 30V14.419L9.484 14v1.047H2.766v2.015h6.718v2.954H2.766v2.015h6.718v2.953H2.766V27h6.718v3h1.5Z"/><path fill="url(#paint4_linear_4791_583)" d="M10.984 30V14.419L9.484 14v1.047H2.766v2.015h6.718v2.954H2.766v2.015h6.718v2.953H2.766V27h6.718v3h1.5Z"/><path fill="url(#paint5_linear_4791_583)" d="M10.984 30V14.419L9.484 14v1.047H2.766v2.015h6.718v2.954H2.766v2.015h6.718v2.953H2.766V27h6.718v3h1.5Z"/><path fill="url(#paint6_linear_4791_583)" d="M10.984 30V14.419L9.484 14v1.047H2.766v2.015h6.718v2.954H2.766v2.015h6.718v2.953H2.766V27h6.718v3h1.5Z"/><path fill="url(#paint7_linear_4791_583)" d="M10.984 30V14.419L9.484 14v1.047H2.766v2.015h6.718v2.954H2.766v2.015h6.718v2.953H2.766V27h6.718v3h1.5Z"/><path fill="url(#paint8_linear_4791_583)" d="M10.984 30V14.419L9.484 14v1.047H2.766v2.015h6.718v2.954H2.766v2.015h6.718v2.953H2.766V27h6.718v3h1.5Z"/><path fill="url(#paint9_linear_4791_583)" d="M16.242 12.408C15.607 10.946 14.594 9.5 13 9.5l-1 .5H9.661l-.752-.296-.743.296H7.23l-.669-.296-.676.296H5.11l4.26 9.254c.489 1.064 1.553.808 2.724.808 1.172 0 2.371.799 2.693 1.54L18.437 30h10.645l-4.259-9.24c-.49-1.063-1.959-2.158-3.13-2.158h-1.776A1 1 0 0 1 19 18l-2.758-5.592Z"/><path fill="url(#paint10_linear_4791_583)" fill-opacity=".8" fill-rule="evenodd" d="M13 9.5c1.594 0 2.607 1.446 3.242 2.908L19 18a1 1 0 0 0 .917.602h1.777c.436 0 .914.152 1.367.398H9.252L5.11 10h.775l.676-.296.669.296h.936l.743-.296.752.296H12l1-.5Z" clip-rule="evenodd"/><path fill="url(#paint11_linear_4791_583)" fill-opacity=".8" fill-rule="evenodd" d="M13 9.5c1.594 0 2.607 1.446 3.242 2.908L19 18a1 1 0 0 0 .917.602h1.777c.436 0 .914.152 1.367.398H9.252L5.11 10h.775l.676-.296.669.296h.936l.743-.296.752.296H12l1-.5Z" clip-rule="evenodd"/><path fill="url(#paint12_radial_4791_583)" fill-rule="evenodd" d="M13 9.5c1.594 0 2.607 1.446 3.242 2.908L19 18a1 1 0 0 0 .917.602h1.777c.436 0 .914.152 1.367.398H9.252L5.11 10h.775l.676-.296.669.296h.936l.743-.296.752.296H12l1-.5Z" clip-rule="evenodd"/><path fill="url(#paint13_radial_4791_583)" fill-rule="evenodd" d="M13 9.5c1.594 0 2.607 1.446 3.242 2.908L19 18a1 1 0 0 0 .917.602h1.777c.436 0 .914.152 1.367.398H9.252L5.11 10h.775l.676-.296.669.296h.936l.743-.296.752.296H12l1-.5Z" clip-rule="evenodd"/><path fill="url(#paint14_linear_4791_583)" fill-rule="evenodd" d="M2.006 6.489A2.75 2.75 0 0 0 2 6.672V10h1.5V6.672c0-.062.005-.124.014-.183H2.006Zm3.824 0c.009.06.014.12.014.183V10h1.5V6.672a2.75 2.75 0 0 0-.006-.183H5.83Z" clip-rule="evenodd"/><path fill="url(#paint15_linear_4791_583)" fill-rule="evenodd" d="M2.006 6.489A2.75 2.75 0 0 0 2 6.672V10h1.5V6.672c0-.062.005-.124.014-.183H2.006Zm3.824 0c.009.06.014.12.014.183V10h1.5V6.672a2.75 2.75 0 0 0-.006-.183H5.83Z" clip-rule="evenodd"/><path fill="url(#paint16_linear_4791_583)" fill-rule="evenodd" d="M2.006 6.489A2.75 2.75 0 0 0 2 6.672V10h1.5V6.672c0-.062.005-.124.014-.183H2.006Zm3.824 0c.009.06.014.12.014.183V10h1.5V6.672a2.75 2.75 0 0 0-.006-.183H5.83Z" clip-rule="evenodd"/><path fill="url(#paint17_linear_4791_583)" fill-rule="evenodd" d="M2.006 6.489A2.75 2.75 0 0 0 2 6.672V10h1.5V6.672c0-.062.005-.124.014-.183H2.006Zm3.824 0c.009.06.014.12.014.183V10h1.5V6.672a2.75 2.75 0 0 0-.006-.183H5.83Z" clip-rule="evenodd"/><path fill="url(#paint18_linear_4791_583)" fill-rule="evenodd" d="M2.006 6.489A2.75 2.75 0 0 0 2 6.672V10h1.5V6.672c0-.062.005-.124.014-.183H2.006Zm3.824 0c.009.06.014.12.014.183V10h1.5V6.672a2.75 2.75 0 0 0-.006-.183H5.83Z" clip-rule="evenodd"/><path fill="url(#paint19_linear_4791_583)" fill-rule="evenodd" d="M2.006 6.489A2.75 2.75 0 0 0 2 6.672V10h1.5V6.672c0-.062.005-.124.014-.183H2.006Zm3.824 0c.009.06.014.12.014.183V10h1.5V6.672a2.75 2.75 0 0 0-.006-.183H5.83Z" clip-rule="evenodd"/><path fill="url(#paint20_linear_4791_583)" fill-rule="evenodd" d="M2.006 6.489A2.75 2.75 0 0 0 2 6.672V10h1.5V6.672c0-.062.005-.124.014-.183H2.006Zm3.824 0c.009.06.014.12.014.183V10h1.5V6.672a2.75 2.75 0 0 0-.006-.183H5.83Z" clip-rule="evenodd"/><path fill="url(#paint21_linear_4791_583)" fill-rule="evenodd" d="M8.17 6.489a2.75 2.75 0 0 0-.006.183V10h1.5V6.672c0-.062.005-.124.014-.183H8.17Zm3.823 0c.01.06.015.12.015.183V10s.894-.047 1.5.16V6.672c0-.062-.002-.123-.007-.183h-1.508Z" clip-rule="evenodd"/><path fill="url(#paint22_linear_4791_583)" fill-rule="evenodd" d="M8.17 6.489a2.75 2.75 0 0 0-.006.183V10h1.5V6.672c0-.062.005-.124.014-.183H8.17Zm3.823 0c.01.06.015.12.015.183V10s.894-.047 1.5.16V6.672c0-.062-.002-.123-.007-.183h-1.508Z" clip-rule="evenodd"/><path fill="url(#paint23_linear_4791_583)" fill-rule="evenodd" d="M8.17 6.489a2.75 2.75 0 0 0-.006.183V10h1.5V6.672c0-.062.005-.124.014-.183H8.17Zm3.823 0c.01.06.015.12.015.183V10s.894-.047 1.5.16V6.672c0-.062-.002-.123-.007-.183h-1.508Z" clip-rule="evenodd"/><path fill="url(#paint24_linear_4791_583)" fill-rule="evenodd" d="M8.17 6.489a2.75 2.75 0 0 0-.006.183V10h1.5V6.672c0-.062.005-.124.014-.183H8.17Zm3.823 0c.01.06.015.12.015.183V10s.894-.047 1.5.16V6.672c0-.062-.002-.123-.007-.183h-1.508Z" clip-rule="evenodd"/><path fill="url(#paint25_linear_4791_583)" fill-rule="evenodd" d="M8.17 6.489a2.75 2.75 0 0 0-.006.183V10h1.5V6.672c0-.062.005-.124.014-.183H8.17Zm3.823 0c.01.06.015.12.015.183V10s.894-.047 1.5.16V6.672c0-.062-.002-.123-.007-.183h-1.508Z" clip-rule="evenodd"/><path fill="url(#paint26_linear_4791_583)" fill-rule="evenodd" d="M8.17 6.489a2.75 2.75 0 0 0-.006.183V10h1.5V6.672c0-.062.005-.124.014-.183H8.17Zm3.823 0c.01.06.015.12.015.183V10s.894-.047 1.5.16V6.672c0-.062-.002-.123-.007-.183h-1.508Z" clip-rule="evenodd"/><path fill="url(#paint27_linear_4791_583)" fill-rule="evenodd" d="M8.17 6.489a2.75 2.75 0 0 0-.006.183V10h1.5V6.672c0-.062.005-.124.014-.183H8.17Zm3.823 0c.01.06.015.12.015.183V10s.894-.047 1.5.16V6.672c0-.062-.002-.123-.007-.183h-1.508Z" clip-rule="evenodd"/><path fill="url(#paint28_linear_4791_583)" fill-rule="evenodd" d="M24.85 19.17c.237.29.44.612.6.962L30 30h-1.652l-4.26-9.24a3 3 0 0 0-1.773-1.59h2.535Z" clip-rule="evenodd"/><path fill="url(#paint29_linear_4791_583)" fill-rule="evenodd" d="M24.85 19.17c.237.29.44.612.6.962L30 30h-1.652l-4.26-9.24a3 3 0 0 0-1.773-1.59h2.535Z" clip-rule="evenodd"/><path fill="url(#paint30_radial_4791_583)" fill-rule="evenodd" d="M12.067 9.998V10h.328a6.184 6.184 0 0 0-.328-.002Zm1.384.144a3.986 3.986 0 0 0-.516-.105c.175.022.354.055.516.105Zm.057.016V8.614a5.5 5.5 0 0 1 3.932 3.197l.306.705h-1.635l-.047-.108a4 4 0 0 0-2.556-2.25Z" clip-rule="evenodd"/><path fill="url(#paint31_linear_4791_583)" fill-rule="evenodd" d="M12.067 9.998V10h.328a6.184 6.184 0 0 0-.328-.002Zm1.384.144a3.986 3.986 0 0 0-.516-.105c.175.022.354.055.516.105Zm.057.016V8.614a5.5 5.5 0 0 1 3.932 3.197l.306.705h-1.635l-.047-.108a4 4 0 0 0-2.556-2.25Z" clip-rule="evenodd"/><path fill="#D9D9D9" fill-rule="evenodd" d="M20.5 17.516h.864a4.5 4.5 0 0 1 4.087 2.616l.126.273h-1.682a3 3 0 0 0-2.531-1.39H20.5v-1.5Z" clip-rule="evenodd"/><path fill="url(#paint32_radial_4791_583)" fill-rule="evenodd" d="M20.5 17.516h.864a4.5 4.5 0 0 1 4.087 2.616l.126.273h-1.682a3 3 0 0 0-2.531-1.39H20.5v-1.5Z" clip-rule="evenodd"/><path fill="url(#paint33_linear_4791_583)" fill-rule="evenodd" d="m19.913 17.509.003.007h1.216v1.5h-1.544a1 1 0 0 1-.918-.602l-.392-.905h1.635Z" clip-rule="evenodd"/><path fill="url(#paint34_linear_4791_583)" fill-rule="evenodd" d="m19.913 17.509.003.007h1.216v1.5h-1.544a1 1 0 0 1-.918-.602l-.392-.905h1.635Z" clip-rule="evenodd"/><path fill="url(#paint35_linear_4791_583)" fill-rule="evenodd" d="m19.913 17.509.003.007h1.216v1.5h-1.544a1 1 0 0 1-.918-.602l-.392-.905h1.635Z" clip-rule="evenodd"/><path fill="url(#paint36_radial_4791_583)" fill-rule="evenodd" d="m19.913 17.509.003.007h1.216v1.5h-1.544a1 1 0 0 1-.918-.602l-.392-.905h1.635Z" clip-rule="evenodd"/><path fill="url(#paint37_radial_4791_583)" fill-rule="evenodd" d="m19.913 17.509.003.007h1.216v1.5h-1.544a1 1 0 0 1-.918-.602l-.392-.905h1.635Z" clip-rule="evenodd"/><path fill="url(#paint38_radial_4791_583)" fill-rule="evenodd" d="m19.913 17.509.003.007h1.216v1.5h-1.544a1 1 0 0 1-.918-.602l-.392-.905h1.635Z" clip-rule="evenodd"/><path fill="url(#paint39_linear_4791_583)" fill-rule="evenodd" d="m19.913 17.509.003.007h1.216v1.5h-1.544a1 1 0 0 1-.918-.602l-.392-.905h1.635Z" clip-rule="evenodd"/><path fill="url(#paint40_linear_4791_583)" fill-rule="evenodd" d="M15.677 11.713h1.72c.015.032.03.065.043.098l2.476 5.705H18.28l-2.217-5.108a3.997 3.997 0 0 0-.387-.695Z" clip-rule="evenodd"/><path fill="url(#paint41_linear_4791_583)" fill-rule="evenodd" d="M2 10v20h1.5V10.293l.001.001V10H2Z" clip-rule="evenodd"/><path fill="url(#paint42_linear_4791_583)" fill-rule="evenodd" d="M2 10v20h1.5V10.293l.001.001V10H2Z" clip-rule="evenodd"/><path fill="url(#paint43_radial_4791_583)" fill-rule="evenodd" d="M2 10v20h1.5V10.293l.001.001V10H2Z" clip-rule="evenodd"/><path fill="url(#paint44_radial_4791_583)" fill-rule="evenodd" d="M5.844 6.65a1.172 1.172 0 0 0-2.344 0H2a2.672 2.672 0 0 1 5.344 0h-1.5Z" clip-rule="evenodd"/><path fill="url(#paint45_radial_4791_583)" fill-rule="evenodd" d="M5.844 6.65a1.172 1.172 0 0 0-2.344 0H2a2.672 2.672 0 0 1 5.344 0h-1.5Z" clip-rule="evenodd"/><path fill="url(#paint46_radial_4791_583)" fill-rule="evenodd" d="M5.844 6.65a1.172 1.172 0 0 0-2.344 0H2a2.672 2.672 0 0 1 5.344 0h-1.5Z" clip-rule="evenodd"/><path fill="url(#paint47_radial_4791_583)" fill-opacity=".6" fill-rule="evenodd" d="M5.844 6.65a1.172 1.172 0 0 0-2.344 0H2a2.672 2.672 0 0 1 5.344 0h-1.5Z" clip-rule="evenodd"/><path fill="url(#paint48_radial_4791_583)" fill-rule="evenodd" d="M5.844 6.65a1.172 1.172 0 0 0-2.344 0H2a2.672 2.672 0 0 1 5.344 0h-1.5Z" clip-rule="evenodd"/><path fill="url(#paint49_radial_4791_583)" fill-rule="evenodd" d="M5.844 6.65a1.172 1.172 0 0 0-2.344 0H2a2.672 2.672 0 0 1 5.344 0h-1.5Z" clip-rule="evenodd"/><path fill="url(#paint50_radial_4791_583)" fill-rule="evenodd" d="M5.844 6.65a1.172 1.172 0 0 0-2.344 0H2a2.672 2.672 0 0 1 5.344 0h-1.5Z" clip-rule="evenodd"/><path fill="url(#paint51_radial_4791_583)" fill-rule="evenodd" d="M12.007 6.65a1.172 1.172 0 0 0-2.343 0h-1.5a2.672 2.672 0 0 1 5.344 0h-1.5Z" clip-rule="evenodd"/><path fill="url(#paint52_radial_4791_583)" fill-rule="evenodd" d="M12.007 6.65a1.172 1.172 0 0 0-2.343 0h-1.5a2.672 2.672 0 0 1 5.344 0h-1.5Z" clip-rule="evenodd"/><path fill="url(#paint53_radial_4791_583)" fill-rule="evenodd" d="M12.007 6.65a1.172 1.172 0 0 0-2.343 0h-1.5a2.672 2.672 0 0 1 5.344 0h-1.5Z" clip-rule="evenodd"/><path fill="url(#paint54_radial_4791_583)" fill-opacity=".4" fill-rule="evenodd" d="M12.007 6.65a1.172 1.172 0 0 0-2.343 0h-1.5a2.672 2.672 0 0 1 5.344 0h-1.5Z" clip-rule="evenodd"/><path fill="url(#paint55_radial_4791_583)" fill-rule="evenodd" d="M12.007 6.65a1.172 1.172 0 0 0-2.343 0h-1.5a2.672 2.672 0 0 1 5.344 0h-1.5Z" clip-rule="evenodd"/><path fill="url(#paint56_radial_4791_583)" fill-rule="evenodd" d="M12.007 6.65a1.172 1.172 0 0 0-2.343 0h-1.5a2.672 2.672 0 0 1 5.344 0h-1.5Z" clip-rule="evenodd"/><path fill="url(#paint57_radial_4791_583)" fill-rule="evenodd" d="M12.007 6.65a1.172 1.172 0 0 0-2.343 0h-1.5a2.672 2.672 0 0 1 5.344 0h-1.5Z" clip-rule="evenodd"/><path fill="url(#paint58_linear_4791_583)" fill-rule="evenodd" d="m19.601 30-3.692-7.878a5.298 5.298 0 0 0-.477-.823h-2.013c.488.417.895.946 1.128 1.451L17.949 30h1.652Z" clip-rule="evenodd"/><path fill="url(#paint59_linear_4791_583)" fill-rule="evenodd" d="m19.601 30-3.692-7.878a5.298 5.298 0 0 0-.477-.823h-2.013c.488.417.895.946 1.128 1.451L17.949 30h1.652Z" clip-rule="evenodd"/><path fill="#D9D9D9" fill-rule="evenodd" d="M11.39 19v1.516h.235c1.17 0 2.432 1.17 2.922 2.234l.117.25h1.656l-.41-.878C15.173 20.527 13.38 19 11.624 19h-.236Z" clip-rule="evenodd"/><path fill="url(#paint60_radial_4791_583)" fill-rule="evenodd" d="M11.39 19v1.516h.235c1.17 0 2.432 1.17 2.922 2.234l.117.25h1.656l-.41-.878C15.173 20.527 13.38 19 11.624 19h-.236Z" clip-rule="evenodd"/><path fill="url(#paint61_linear_4791_583)" fill-rule="evenodd" d="M11.657 20.516V19H8.534l.397.913a1 1 0 0 0 .918.602h1.808Z" clip-rule="evenodd"/><path fill="url(#paint62_linear_4791_583)" fill-rule="evenodd" d="M11.657 20.516V19H8.534l.397.913a1 1 0 0 0 .918.602h1.808Z" clip-rule="evenodd"/><path fill="url(#paint63_linear_4791_583)" fill-rule="evenodd" d="M11.657 20.516V19H8.534l.397.913a1 1 0 0 0 .918.602h1.808Z" clip-rule="evenodd"/><path fill="url(#paint64_radial_4791_583)" fill-rule="evenodd" d="M11.657 20.516V19H8.534l.397.913a1 1 0 0 0 .918.602h1.808Z" clip-rule="evenodd"/><path fill="url(#paint65_radial_4791_583)" fill-rule="evenodd" d="M11.657 20.516V19H8.534l.397.913a1 1 0 0 0 .918.602h1.808Z" clip-rule="evenodd"/><path fill="url(#paint66_linear_4791_583)" fill-rule="evenodd" d="M6.782 11.29H4.938c.298.323.546.7.728 1.118l2.87 6.596h3.121V19h-1.48l-3.135-7.19a5.494 5.494 0 0 0-.26-.52Z" clip-rule="evenodd"/><path fill="url(#paint67_radial_4791_583)" fill-rule="evenodd" d="M3.501 10.294V8.71a5.502 5.502 0 0 1 3.28 2.58H4.939a4.005 4.005 0 0 0-1.437-.996Z" clip-rule="evenodd"/><path fill="url(#paint68_linear_4791_583)" fill-rule="evenodd" d="M3.5 10.296H2V10c0-.828.684-1.52 1.482-1.296l.02.006v1.584H3.5v.002Z" clip-rule="evenodd"/><path fill="url(#paint69_linear_4791_583)" fill-rule="evenodd" d="M3.5 10.296H2V10c0-.828.684-1.52 1.482-1.296l.02.006v1.584H3.5v.002Z" clip-rule="evenodd"/><path fill="url(#paint70_radial_4791_583)" fill-rule="evenodd" d="M3.5 10.296H2V10c0-.828.684-1.52 1.482-1.296l.02.006v1.584H3.5v.002Z" clip-rule="evenodd"/><path fill="url(#paint71_radial_4791_583)" fill-rule="evenodd" d="M3.5 10.296H2V10c0-.828.684-1.52 1.482-1.296l.02.006v1.584H3.5v.002Z" clip-rule="evenodd"/><path fill="url(#paint72_radial_4791_583)" fill-rule="evenodd" d="M3.5 10.296H2V10c0-.828.684-1.52 1.482-1.296l.02.006v1.584H3.5v.002Z" clip-rule="evenodd"/><path fill="url(#paint73_linear_4791_583)" d="M9.483 22.033h1.502v2.948H9.483z"/><path fill="url(#paint74_linear_4791_583)" d="M9.479 27h1.506v3H9.479z"/><defs><linearGradient id="paint0_linear_4791_583" x1="8.336" x2="6.517" y1="17.619" y2="24.526" gradientUnits="userSpaceOnUse"><stop stop-color="#AC1F53"/><stop offset="1" stop-color="#CC3752"/></linearGradient><linearGradient id="paint1_linear_4791_583" x1="6.875" x2="6.875" y1="24.565" y2="25.594" gradientUnits="userSpaceOnUse"><stop stop-color="#BC3A42" stop-opacity="0"/><stop offset=".4" stop-color="#BE2635"/><stop offset="1" stop-color="#BE2635" stop-opacity="0"/></linearGradient><linearGradient id="paint2_linear_4791_583" x1="6.875" x2="6.875" y1="26.566" y2="27.502" gradientUnits="userSpaceOnUse"><stop stop-color="#BC3A42" stop-opacity="0"/><stop offset=".4" stop-color="#BE2635"/><stop offset="1" stop-color="#BE2635" stop-opacity="0"/></linearGradient><linearGradient id="paint3_linear_4791_583" x1="6.875" x2="6.875" y1="21.424" y2="22.675" gradientUnits="userSpaceOnUse"><stop stop-color="#B61A4A" stop-opacity="0"/><stop offset=".425" stop-color="#AC1845"/><stop offset="1" stop-color="#B61A4A" stop-opacity="0"/></linearGradient><linearGradient id="paint4_linear_4791_583" x1="6.875" x2="6.875" y1="19.663" y2="20.633" gradientUnits="userSpaceOnUse"><stop stop-color="#B61A4A" stop-opacity="0"/><stop offset=".415" stop-color="#AB1644"/><stop offset="1" stop-color="#B61A4A" stop-opacity="0"/></linearGradient><linearGradient id="paint5_linear_4791_583" x1="6.875" x2="6.875" y1="16.556" y2="17.548" gradientUnits="userSpaceOnUse"><stop stop-color="#B61A4A" stop-opacity="0"/><stop offset=".415" stop-color="#A00E3B"/><stop offset="1" stop-color="#B61A4A" stop-opacity="0"/></linearGradient><linearGradient id="paint6_linear_4791_583" x1="6.07" x2="6.07" y1="14.724" y2="15.551" gradientUnits="userSpaceOnUse"><stop stop-color="#B61A4A" stop-opacity="0"/><stop offset=".415" stop-color="#A00E3B"/><stop offset="1" stop-color="#B61A4A" stop-opacity="0"/></linearGradient><linearGradient id="paint7_linear_4791_583" x1="10.694" x2="8.764" y1="24.138" y2="24.138" gradientUnits="userSpaceOnUse"><stop stop-color="#BC2A53"/><stop offset=".513" stop-color="#BC2A53"/><stop offset="1" stop-color="#BC2D4B" stop-opacity="0"/></linearGradient><linearGradient id="paint8_linear_4791_583" x1="9.739" x2="11.434" y1="21.301" y2="21.301" gradientUnits="userSpaceOnUse"><stop offset=".521" stop-color="#BB2A53" stop-opacity="0"/><stop offset=".727" stop-color="#9F2A39"/><stop offset="1" stop-color="#BD2E4C" stop-opacity="0"/></linearGradient><linearGradient id="paint9_linear_4791_583" x1="18.309" x2="18.309" y1="10.008" y2="30" gradientUnits="userSpaceOnUse"><stop stop-color="#CBCCD3"/><stop offset=".047" stop-color="#DAD9DC"/><stop offset=".241" stop-color="#DAD9DC"/><stop offset=".444" stop-color="#C4C1C4"/><stop offset=".456" stop-color="#AFA0A3"/><stop offset=".482" stop-color="#C7C7C7"/><stop offset=".522" stop-color="#E5E2E5"/><stop offset=".593" stop-color="#E5E2E5"/><stop offset=".791" stop-color="#C8C3CF"/></linearGradient><linearGradient id="paint10_linear_4791_583" x1="21.402" x2="16.686" y1="13.209" y2="15.227" gradientUnits="userSpaceOnUse"><stop/><stop offset="1" stop-opacity="0"/></linearGradient><linearGradient id="paint11_linear_4791_583" x1="18.582" x2="14.377" y1="7.448" y2="11.046" gradientUnits="userSpaceOnUse"><stop/><stop offset="1" stop-opacity="0"/></linearGradient><linearGradient id="paint14_linear_4791_583" x1="2.424" x2="3.888" y1="7.726" y2="7.726" gradientUnits="userSpaceOnUse"><stop stop-color="#3DACF5"/><stop offset="1" stop-color="#34AFFF"/></linearGradient><linearGradient id="paint15_linear_4791_583" x1="2" x2="2.328" y1="7.281" y2="7.281" gradientUnits="userSpaceOnUse"><stop stop-color="#309CF0"/><stop offset="1" stop-color="#309CF0" stop-opacity="0"/></linearGradient><linearGradient id="paint16_linear_4791_583" x1="3.919" x2="3.032" y1="7.272" y2="7.281" gradientUnits="userSpaceOnUse"><stop stop-color="#377FF4" stop-opacity="0"/><stop offset=".209" stop-color="#377FF4"/><stop offset="1" stop-color="#377FF4" stop-opacity="0"/></linearGradient><linearGradient id="paint17_linear_4791_583" x1="2.227" x2="3.119" y1="7.43" y2="7.43" gradientUnits="userSpaceOnUse"><stop stop-color="#3EB8FE" stop-opacity="0"/><stop offset=".408" stop-color="#3EB8FE"/><stop offset=".606" stop-color="#3EB8FE"/><stop offset="1" stop-color="#3EB8FE" stop-opacity="0"/></linearGradient><linearGradient id="paint18_linear_4791_583" x1="5.604" x2="7.47" y1="7.726" y2="7.726" gradientUnits="userSpaceOnUse"><stop stop-color="#3DACF5" stop-opacity="0"/><stop offset=".286" stop-color="#3DACF5"/><stop offset=".544" stop-color="#3DB9FF"/><stop offset="1" stop-color="#34AFFF"/></linearGradient><linearGradient id="paint19_linear_4791_583" x1="5.701" x2="6.272" y1="7.281" y2="7.281" gradientUnits="userSpaceOnUse"><stop stop-color="#309CF0" stop-opacity="0"/><stop offset=".345" stop-color="#3793F7"/><stop offset="1" stop-color="#309CF0" stop-opacity="0"/></linearGradient><linearGradient id="paint20_linear_4791_583" x1="6.311" x2="7.763" y1="7.43" y2="7.429" gradientUnits="userSpaceOnUse"><stop stop-color="#3EB8FE" stop-opacity="0"/><stop offset=".357" stop-color="#49C7FF"/><stop offset=".513" stop-color="#4DCBFF"/><stop offset=".877" stop-color="#3EB8FE" stop-opacity="0"/></linearGradient><linearGradient id="paint21_linear_4791_583" x1="8.588" x2="10.052" y1="7.782" y2="7.782" gradientUnits="userSpaceOnUse"><stop stop-color="#3DACF5"/><stop offset="1" stop-color="#34AFFF"/></linearGradient><linearGradient id="paint22_linear_4791_583" x1="8.164" x2="8.492" y1="7.317" y2="7.317" gradientUnits="userSpaceOnUse"><stop stop-color="#309CF0"/><stop offset="1" stop-color="#309CF0" stop-opacity="0"/></linearGradient><linearGradient id="paint23_linear_4791_583" x1="10.083" x2="9.196" y1="7.308" y2="7.316" gradientUnits="userSpaceOnUse"><stop stop-color="#377FF4" stop-opacity="0"/><stop offset=".209" stop-color="#377FF4"/><stop offset="1" stop-color="#377FF4" stop-opacity="0"/></linearGradient><linearGradient id="paint24_linear_4791_583" x1="8.39" x2="9.283" y1="7.473" y2="7.473" gradientUnits="userSpaceOnUse"><stop stop-color="#3EB8FE" stop-opacity="0"/><stop offset=".408" stop-color="#3EB8FE"/><stop offset=".606" stop-color="#3EB8FE"/><stop offset="1" stop-color="#3EB8FE" stop-opacity="0"/></linearGradient><linearGradient id="paint25_linear_4791_583" x1="11.768" x2="13.634" y1="7.782" y2="7.782" gradientUnits="userSpaceOnUse"><stop stop-color="#3DACF5" stop-opacity="0"/><stop offset=".286" stop-color="#3DACF5"/><stop offset=".544" stop-color="#3DB9FF"/><stop offset="1" stop-color="#34AFFF"/></linearGradient><linearGradient id="paint26_linear_4791_583" x1="11.798" x2="12.516" y1="7.317" y2="7.317" gradientUnits="userSpaceOnUse"><stop stop-color="#309CF0" stop-opacity="0"/><stop offset=".291" stop-color="#388EF5"/><stop offset="1" stop-color="#3890F5" stop-opacity="0"/></linearGradient><linearGradient id="paint27_linear_4791_583" x1="12.475" x2="13.927" y1="7.473" y2="7.472" gradientUnits="userSpaceOnUse"><stop stop-color="#3EB8FE" stop-opacity="0"/><stop offset=".357" stop-color="#4BC9FF"/><stop offset=".513" stop-color="#53D2FF"/><stop offset=".877" stop-color="#3EB8FE" stop-opacity="0"/></linearGradient><linearGradient id="paint28_linear_4791_583" x1="25.888" x2="27.484" y1="25.085" y2="24.396" gradientUnits="userSpaceOnUse"><stop stop-color="#CF465B"/><stop offset=".216" stop-color="#DE2E4F"/><stop offset=".358" stop-color="#E13756"/><stop offset=".622" stop-color="#F25F6C"/><stop offset=".744" stop-color="#F35F6B"/><stop offset="1" stop-color="#E24954"/></linearGradient><linearGradient id="paint29_linear_4791_583" x1="38.419" x2="38.181" y1="27.33" y2="32.195" gradientUnits="userSpaceOnUse"><stop stop-color="#DA3147" stop-opacity="0"/><stop offset="1" stop-color="#DA3147"/></linearGradient><linearGradient id="paint31_linear_4791_583" x1="13.509" x2="15.014" y1="9.625" y2="10.859" gradientUnits="userSpaceOnUse"><stop stop-color="#D73B85"/><stop offset="1" stop-color="#D73B85" stop-opacity="0"/></linearGradient><linearGradient id="paint33_linear_4791_583" x1="19.646" x2="19.646" y1="17.509" y2="19.016" gradientUnits="userSpaceOnUse"><stop stop-color="#EE3275"/><stop offset="1" stop-color="#DC3251"/></linearGradient><linearGradient id="paint34_linear_4791_583" x1="21.132" x2="19.845" y1="18.262" y2="18.262" gradientUnits="userSpaceOnUse"><stop stop-color="#E13555"/><stop offset="1" stop-color="#E23656" stop-opacity="0"/></linearGradient><linearGradient id="paint35_linear_4791_583" x1="18.578" x2="19.035" y1="18.343" y2="18.143" gradientUnits="userSpaceOnUse"><stop stop-color="#E7296A"/><stop offset="1" stop-color="#E7296A" stop-opacity="0"/></linearGradient><linearGradient id="paint39_linear_4791_583" x1="19.705" x2="19.705" y1="18.359" y2="19.016" gradientUnits="userSpaceOnUse"><stop stop-color="#D2435A" stop-opacity="0"/><stop offset="1" stop-color="#CD485C"/></linearGradient><linearGradient id="paint40_linear_4791_583" x1="17.267" x2="18.627" y1="14.948" y2="14.355" gradientUnits="userSpaceOnUse"><stop stop-color="#E62869"/><stop offset=".216" stop-color="#ED3174"/><stop offset=".358" stop-color="#EF377F"/><stop offset=".622" stop-color="#F95C96"/><stop offset=".744" stop-color="#FA5C9A"/><stop offset="1" stop-color="#EF5994"/></linearGradient><linearGradient id="paint41_linear_4791_583" x1="2" x2="3.501" y1="19.692" y2="19.692" gradientUnits="userSpaceOnUse"><stop stop-color="#CF6E7C"/><stop offset=".216" stop-color="#D7305C"/><stop offset=".358" stop-color="#D7305C"/><stop offset=".622" stop-color="#E85079"/><stop offset=".744" stop-color="#E85079"/><stop offset="1" stop-color="#D5466E"/></linearGradient><linearGradient id="paint42_linear_4791_583" x1="5.517" x2="2" y1="24.567" y2="33.027" gradientUnits="userSpaceOnUse"><stop stop-color="#DA3147" stop-opacity="0"/><stop offset="1" stop-color="#DA3147"/></linearGradient><linearGradient id="paint58_linear_4791_583" x1="15.997" x2="17.808" y1="26.308" y2="25.414" gradientUnits="userSpaceOnUse"><stop stop-color="#CF465B"/><stop offset=".216" stop-color="#DE2E4F"/><stop offset=".358" stop-color="#E13756"/><stop offset=".622" stop-color="#F25F6C"/><stop offset=".744" stop-color="#F35F6B"/><stop offset="1" stop-color="#E24954"/></linearGradient><linearGradient id="paint59_linear_4791_583" x1="38.419" x2="38.181" y1="27.33" y2="32.195" gradientUnits="userSpaceOnUse"><stop stop-color="#DA3147" stop-opacity="0"/><stop offset="1" stop-color="#DA3147"/></linearGradient><linearGradient id="paint61_linear_4791_583" x1="10.031" x2="10.031" y1="19.001" y2="20.516" gradientUnits="userSpaceOnUse"><stop stop-color="#EE3275"/><stop offset="1" stop-color="#DC3251"/></linearGradient><linearGradient id="paint62_linear_4791_583" x1="11.657" x2="10.249" y1="19.758" y2="19.758" gradientUnits="userSpaceOnUse"><stop stop-color="#E13555"/><stop offset="1" stop-color="#E23656" stop-opacity="0"/></linearGradient><linearGradient id="paint63_linear_4791_583" x1="8.863" x2="9.349" y1="19.839" y2="19.609" gradientUnits="userSpaceOnUse"><stop stop-color="#E7296A"/><stop offset="1" stop-color="#E7296A" stop-opacity="0"/></linearGradient><linearGradient id="paint66_linear_4791_583" x1="7.105" x2="8.707" y1="15.717" y2="15.008" gradientUnits="userSpaceOnUse"><stop stop-color="#E62869"/><stop offset=".216" stop-color="#ED3174"/><stop offset=".358" stop-color="#EF377F"/><stop offset=".622" stop-color="#F95C96"/><stop offset=".744" stop-color="#FA5C9A"/><stop offset="1" stop-color="#EF5994"/></linearGradient><linearGradient id="paint68_linear_4791_583" x1="3.501" x2="2.751" y1="9.529" y2="10.296" gradientUnits="userSpaceOnUse"><stop stop-color="#EB2E70"/><stop offset=".808" stop-color="#D8305D"/></linearGradient><linearGradient id="paint69_linear_4791_583" x1="2" x2="2.372" y1="9.479" y2="9.479" gradientUnits="userSpaceOnUse"><stop stop-color="#D06C7B"/><stop offset="1" stop-color="#D06779" stop-opacity="0"/></linearGradient><linearGradient id="paint73_linear_4791_583" x1="11.026" x2="9.346" y1="23.379" y2="23.379" gradientUnits="userSpaceOnUse"><stop offset=".682" stop-color="#BB2A53" stop-opacity="0"/><stop offset=".925" stop-color="#9F2A39"/><stop offset="1" stop-color="#BD2E4C" stop-opacity="0"/></linearGradient><linearGradient id="paint74_linear_4791_583" x1="11.026" x2="9.342" y1="28.37" y2="28.37" gradientUnits="userSpaceOnUse"><stop offset=".682" stop-color="#BB2A53" stop-opacity="0"/><stop offset=".925" stop-color="#9F2A39"/><stop offset="1" stop-color="#BD2E4C" stop-opacity="0"/></linearGradient><radialGradient id="paint12_radial_4791_583" cx="0" cy="0" r="1" gradientTransform="matrix(0 .756 -2.62159 0 10.85 9.672)" gradientUnits="userSpaceOnUse"><stop stop-color="#8A98AE"/><stop offset="1" stop-color="#C2C5CA" stop-opacity="0"/></radialGradient><radialGradient id="paint13_radial_4791_583" cx="0" cy="0" r="1" gradientTransform="matrix(0 .71966 -1.30044 0 7.74 9.7)" gradientUnits="userSpaceOnUse"><stop stop-color="#8A98AE"/><stop offset="1" stop-color="#C2C5CA" stop-opacity="0"/></radialGradient><radialGradient id="paint30_radial_4791_583" cx="0" cy="0" r="1" gradientTransform="matrix(0 -4.41418 6.24192 0 12.71 11.982)" gradientUnits="userSpaceOnUse"><stop offset=".504" stop-color="#E62869"/><stop offset=".562" stop-color="#ED3174"/><stop offset=".596" stop-color="#EF377F"/><stop offset=".67" stop-color="#F95C96"/><stop offset=".729" stop-color="#FA5C9A"/><stop offset=".777" stop-color="#EF5994"/></radialGradient><radialGradient id="paint32_radial_4791_583" cx="0" cy="0" r="1" gradientTransform="rotate(-55.063 31.041 -9.724) scale(4.02554 4.20009)" gradientUnits="userSpaceOnUse"><stop offset=".608" stop-color="#CF465B"/><stop offset=".717" stop-color="#DE2E4F"/><stop offset=".793" stop-color="#E13756"/><stop offset=".889" stop-color="#F25F6C"/><stop offset=".932" stop-color="#F35F6B"/><stop offset="1" stop-color="#E24954"/></radialGradient><radialGradient id="paint36_radial_4791_583" cx="0" cy="0" r="1" gradientTransform="matrix(.51259 .81448 -.52378 .32963 19.538 17.51)" gradientUnits="userSpaceOnUse"><stop stop-color="#FA5D9A"/><stop offset="1" stop-color="#FA5D9A" stop-opacity="0"/></radialGradient><radialGradient id="paint37_radial_4791_583" cx="0" cy="0" r="1" gradientTransform="matrix(-1.67667 0 0 -.6279 21.132 17.772)" gradientUnits="userSpaceOnUse"><stop stop-color="#F3606C"/><stop offset="1" stop-color="#F3606C" stop-opacity="0"/></radialGradient><radialGradient id="paint38_radial_4791_583" cx="0" cy="0" r="1" gradientTransform="matrix(0 .89553 -3.8086 0 20.845 18.77)" gradientUnits="userSpaceOnUse"><stop stop-color="#DF2F50"/><stop offset="1" stop-color="#DE3050" stop-opacity="0"/></radialGradient><radialGradient id="paint43_radial_4791_583" cx="0" cy="0" r="1" gradientTransform="rotate(66 -6.102 7.9) scale(1.94618 .85073)" gradientUnits="userSpaceOnUse"><stop stop-color="#E6286A"/><stop offset="1" stop-color="#E6286A" stop-opacity="0"/></radialGradient><radialGradient id="paint44_radial_4791_583" cx="0" cy="0" r="1" gradientTransform="rotate(90 -.99 5.66) scale(2.6645)" gradientUnits="userSpaceOnUse"><stop offset=".401" stop-color="#377CEC"/><stop offset=".609" stop-color="#38B4FF"/><stop offset=".859" stop-color="#5DDDFF"/><stop offset=".901" stop-color="#5DDDFF"/><stop offset="1" stop-color="#29B2FF"/></radialGradient><radialGradient id="paint45_radial_4791_583" cx="0" cy="0" r="1" gradientTransform="matrix(-1.09215 1.12736 -2.66468 -2.58144 7.003 4.681)" gradientUnits="userSpaceOnUse"><stop stop-color="#52DCFF"/><stop offset="1" stop-color="#52DCFF" stop-opacity="0"/></radialGradient><radialGradient id="paint46_radial_4791_583" cx="0" cy="0" r="1" gradientTransform="rotate(42.893 -4.188 6.359) scale(3.38483 7.63184)" gradientUnits="userSpaceOnUse"><stop stop-color="#34AFFF"/><stop offset="1" stop-color="#34AFFF" stop-opacity="0"/></radialGradient><radialGradient id="paint47_radial_4791_583" cx="0" cy="0" r="1" gradientTransform="rotate(90 -.137 6.77) scale(1.69422)" gradientUnits="userSpaceOnUse"><stop stop-color="#34AFFF"/><stop offset="1" stop-color="#34AFFF" stop-opacity="0"/></radialGradient><radialGradient id="paint48_radial_4791_583" cx="0" cy="0" r="1" gradientTransform="rotate(90 -.922 5.594) scale(1.76555)" gradientUnits="userSpaceOnUse"><stop stop-color="#377FF4"/><stop offset="1" stop-color="#377FF4" stop-opacity="0"/></radialGradient><radialGradient id="paint49_radial_4791_583" cx="0" cy="0" r="1" gradientTransform="matrix(-.94344 4.08098 -3.76122 -.86952 5.615 6.759)" gradientUnits="userSpaceOnUse"><stop offset=".757" stop-color="#3E91E7" stop-opacity="0"/><stop offset="1" stop-color="#2693EA"/></radialGradient><radialGradient id="paint50_radial_4791_583" cx="0" cy="0" r="1" gradientTransform="matrix(0 2.12461 -2.67179 0 4.672 6.157)" gradientUnits="userSpaceOnUse"><stop offset=".289" stop-color="#4774F1"/><stop offset=".403" stop-color="#4774F1" stop-opacity="0"/></radialGradient><radialGradient id="paint51_radial_4791_583" cx="0" cy="0" r="1" gradientTransform="rotate(90 2.093 8.743) scale(2.6645)" gradientUnits="userSpaceOnUse"><stop offset=".401" stop-color="#377CEC"/><stop offset=".609" stop-color="#38B4FF"/><stop offset=".859" stop-color="#5DDDFF"/><stop offset=".901" stop-color="#5DDDFF"/><stop offset="1" stop-color="#29B2FF"/></radialGradient><radialGradient id="paint52_radial_4791_583" cx="0" cy="0" r="1" gradientTransform="matrix(-1.09215 1.12736 -2.66468 -2.58144 13.167 4.681)" gradientUnits="userSpaceOnUse"><stop stop-color="#B5F0FF"/><stop offset="1" stop-color="#52DCFF" stop-opacity="0"/></radialGradient><radialGradient id="paint53_radial_4791_583" cx="0" cy="0" r="1" gradientTransform="rotate(42.893 -1.106 14.205) scale(3.38483 7.63184)" gradientUnits="userSpaceOnUse"><stop stop-color="#34AFFF"/><stop offset="1" stop-color="#34AFFF" stop-opacity="0"/></radialGradient><radialGradient id="paint54_radial_4791_583" cx="0" cy="0" r="1" gradientTransform="rotate(90 2.944 9.853) scale(1.69422)" gradientUnits="userSpaceOnUse"><stop stop-color="#34AFFF"/><stop offset="1" stop-color="#34AFFF" stop-opacity="0"/></radialGradient><radialGradient id="paint55_radial_4791_583" cx="0" cy="0" r="1" gradientTransform="rotate(90 2.16 8.676) scale(1.76555)" gradientUnits="userSpaceOnUse"><stop stop-color="#377FF4"/><stop offset="1" stop-color="#377FF4" stop-opacity="0"/></radialGradient><radialGradient id="paint56_radial_4791_583" cx="0" cy="0" r="1" gradientTransform="matrix(-.94344 4.08098 -3.76122 -.86952 11.78 6.759)" gradientUnits="userSpaceOnUse"><stop offset=".757" stop-color="#3E91E7" stop-opacity="0"/><stop offset="1" stop-color="#2693EA"/></radialGradient><radialGradient id="paint57_radial_4791_583" cx="0" cy="0" r="1" gradientTransform="matrix(0 2.12461 -2.67179 0 10.836 6.157)" gradientUnits="userSpaceOnUse"><stop offset=".289" stop-color="#4774F1"/><stop offset=".403" stop-color="#4774F1" stop-opacity="0"/></radialGradient><radialGradient id="paint60_radial_4791_583" cx="0" cy="0" r="1" gradientTransform="matrix(2.80757 -5.68617 4.9948 2.4662 11.39 25.42)" gradientUnits="userSpaceOnUse"><stop offset=".596" stop-color="#CF465B"/><stop offset=".662" stop-color="#DE2E4F"/><stop offset=".793" stop-color="#E13756"/><stop offset=".903" stop-color="#F25F6C"/><stop offset=".932" stop-color="#F35F6B"/><stop offset="1" stop-color="#E24954"/></radialGradient><radialGradient id="paint64_radial_4791_583" cx="0" cy="0" r="1" gradientTransform="matrix(.56084 .819 -.54465 .37297 9.913 19)" gradientUnits="userSpaceOnUse"><stop stop-color="#FA5D9A"/><stop offset="1" stop-color="#FA5D9A" stop-opacity="0"/></radialGradient><radialGradient id="paint65_radial_4791_583" cx="0" cy="0" r="1" gradientTransform="matrix(-1.547 .00705 -.0038 -.83385 11.712 19.353)" gradientUnits="userSpaceOnUse"><stop stop-color="#F3606C"/><stop offset="1" stop-color="#F3606C" stop-opacity="0"/></radialGradient><radialGradient id="paint67_radial_4791_583" cx="0" cy="0" r="1" gradientTransform="matrix(1.41094 -1.46393 2.86294 2.7593 4.087 11.108)" gradientUnits="userSpaceOnUse"><stop offset=".38" stop-color="#E62869"/><stop offset=".519" stop-color="#ED3174"/><stop offset=".656" stop-color="#EF377F"/><stop offset=".826" stop-color="#F95C96"/><stop offset=".896" stop-color="#FA5C9A"/><stop offset="1" stop-color="#EF5994"/></radialGradient><radialGradient id="paint70_radial_4791_583" cx="0" cy="0" r="1" gradientTransform="matrix(0 -1.51215 .53866 0 3.041 10.393)" gradientUnits="userSpaceOnUse"><stop stop-color="#E85079"/><stop offset="1" stop-color="#E85079" stop-opacity="0"/></radialGradient><radialGradient id="paint71_radial_4791_583" cx="0" cy="0" r="1" gradientTransform="matrix(-.84375 .37891 -.37891 -.84375 3.527 8.777)" gradientUnits="userSpaceOnUse"><stop stop-color="#F75290"/><stop offset="1" stop-color="#F75290" stop-opacity="0"/></radialGradient><radialGradient id="paint72_radial_4791_583" cx="0" cy="0" r="1" gradientTransform="rotate(163.466 1.066 5.263) scale(.87148 .80057)" gradientUnits="userSpaceOnUse"><stop stop-color="#E6286A"/><stop offset="1" stop-color="#E6286A" stop-opacity="0"/></radialGradient></defs></svg>