<svg xmlns="http://www.w3.org/2000/svg" width="32" height="32" fill="none" viewBox="0 0 32 32"><g clip-path="url(#clip0_23_461)"><path fill="url(#paint0_radial_23_461)" d="M15.999 29.998c9.334 0 13.999-6.268 13.999-14 0-7.73-4.665-13.998-14-13.998C6.665 2 2 8.268 2 15.999c0 7.731 4.664 13.999 13.999 13.999Z"/><path fill="url(#paint1_radial_23_461)" d="M15.999 29.998c9.334 0 13.999-6.268 13.999-14 0-7.73-4.665-13.998-14-13.998C6.665 2 2 8.268 2 15.999c0 7.731 4.664 13.999 13.999 13.999Z"/><path fill="url(#paint2_radial_23_461)" d="M15.999 29.998c9.334 0 13.999-6.268 13.999-14 0-7.73-4.665-13.998-14-13.998C6.665 2 2 8.268 2 15.999c0 7.731 4.664 13.999 13.999 13.999Z"/><path fill="url(#paint3_radial_23_461)" fill-opacity=".6" d="M15.999 29.998c9.334 0 13.999-6.268 13.999-14 0-7.73-4.665-13.998-14-13.998C6.665 2 2 8.268 2 15.999c0 7.731 4.664 13.999 13.999 13.999Z"/><path fill="url(#paint4_radial_23_461)" d="M15.999 29.998c9.334 0 13.999-6.268 13.999-14 0-7.73-4.665-13.998-14-13.998C6.665 2 2 8.268 2 15.999c0 7.731 4.664 13.999 13.999 13.999Z"/><path fill="url(#paint5_radial_23_461)" d="M15.999 29.998c9.334 0 13.999-6.268 13.999-14 0-7.73-4.665-13.998-14-13.998C6.665 2 2 8.268 2 15.999c0 7.731 4.664 13.999 13.999 13.999Z"/><path fill="url(#paint6_radial_23_461)" d="M15.999 29.998c9.334 0 13.999-6.268 13.999-14 0-7.73-4.665-13.998-14-13.998C6.665 2 2 8.268 2 15.999c0 7.731 4.664 13.999 13.999 13.999Z"/><path fill="url(#paint7_radial_23_461)" d="M15.999 29.998c9.334 0 13.999-6.268 13.999-14 0-7.73-4.665-13.998-14-13.998C6.665 2 2 8.268 2 15.999c0 7.731 4.664 13.999 13.999 13.999Z"/><g filter="url(#filter0_f_23_461)"><path fill="url(#paint8_linear_23_461)" d="M25.5 18 19 12.5l6-1.5.5 7Z"/></g><g filter="url(#filter1_f_23_461)"><path fill="url(#paint9_linear_23_461)" d="M13.5 14.5 7 14l4.5-4 2 4.5Z"/></g><g filter="url(#filter2_f_23_461)"><path fill="url(#paint10_radial_23_461)" d="M16.5 6h2c1.6 1.6 1.333 4.667 1 6l-3 1L18 9.5 16.5 6Z"/></g><g filter="url(#filter3_f_23_461)"><path fill="url(#paint11_radial_23_461)" d="M3 8h2c1.6 1.6 1.333 4.667 1 6l-3 2 1.5-4.5L3 8Z"/></g><path fill="url(#paint12_linear_23_461)" stroke="url(#paint13_linear_23_461)" stroke-width=".5" d="m8.624 12.865-3.05 2.372a.15.15 0 0 1-.242-.132l.3-3.285a2.25 2.25 0 0 0-1.149-2.171L2.5 8.548a.5.5 0 0 1 .058-.902l2.529-1.012a2.25 2.25 0 0 0 1.37-1.647l.472-2.359a.47.47 0 0 1 .837-.19l1.364 1.82a2.25 2.25 0 0 0 2.004.89l3.493-.318a.15.15 0 0 1 .133.24l-1.786 2.38a2.25 2.25 0 0 0-.289 2.186l1.412 3.528-3.65-.73a2.25 2.25 0 0 0-1.823.43Z"/><path fill="url(#paint14_linear_23_461)" stroke="url(#paint15_linear_23_461)" stroke-width=".5" d="m23.376 12.865 3.05 2.372a.15.15 0 0 0 .242-.132l-.3-3.285a2.25 2.25 0 0 1 1.149-2.171L29.5 8.548a.5.5 0 0 0-.058-.902l-2.529-1.012a2.25 2.25 0 0 1-1.37-1.647l-.472-2.359a.47.47 0 0 0-.837-.19l-1.364 1.82a2.25 2.25 0 0 1-2.004.89l-3.493-.318a.15.15 0 0 0-.133.24l1.786 2.38a2.25 2.25 0 0 1 .289 2.186l-1.412 3.528 3.65-.73a2.25 2.25 0 0 1 1.823.43Z"/><path fill="url(#paint16_radial_23_461)" d="M16 26c-9 0-9-9-9-9h18s0 9-9 9Z"/><path fill="url(#paint17_linear_23_461)" d="M8 17.5V17h16v.5a1 1 0 0 1-1 1H9a1 1 0 0 1-1-1Z"/></g><defs><radialGradient id="paint0_radial_23_461" cx="0" cy="0" r="1" gradientTransform="rotate(132.839 10.786 10.065) scale(37.5033)" gradientUnits="userSpaceOnUse"><stop stop-color="#FFF478"/><stop offset=".475" stop-color="#FFB02E"/><stop offset="1" stop-color="#F70A8D"/></radialGradient><radialGradient id="paint1_radial_23_461" cx="0" cy="0" r="1" gradientTransform="rotate(131.878 10.74 10.193) scale(38.9487)" gradientUnits="userSpaceOnUse"><stop stop-color="#FFF478"/><stop offset=".475" stop-color="#FFB02E"/><stop offset="1" stop-color="#F70A8D"/></radialGradient><radialGradient id="paint2_radial_23_461" cx="0" cy="0" r="1" gradientTransform="rotate(101.31 2.876 12.808) scale(17.8466 22.8581)" gradientUnits="userSpaceOnUse"><stop offset=".788" stop-color="#F59639" stop-opacity="0"/><stop offset=".973" stop-color="#FF7DCE"/></radialGradient><radialGradient id="paint3_radial_23_461" cx="0" cy="0" r="1" gradientTransform="matrix(-29 29 -29 -29 18 14)" gradientUnits="userSpaceOnUse"><stop offset=".315" stop-opacity="0"/><stop offset="1"/></radialGradient><radialGradient id="paint4_radial_23_461" cx="0" cy="0" r="1" gradientTransform="rotate(77.692 -2.555 18.434) scale(28.1469)" gradientUnits="userSpaceOnUse"><stop offset=".508" stop-color="#7D6133" stop-opacity="0"/><stop offset="1" stop-color="#715B32"/></radialGradient><radialGradient id="paint5_radial_23_461" cx="0" cy="0" r="1" gradientTransform="matrix(7.5 10.99996 -7.97335 5.4364 16.5 16.5)" gradientUnits="userSpaceOnUse"><stop stop-color="#FFB849"/><stop offset="1" stop-color="#FFB847" stop-opacity="0"/></radialGradient><radialGradient id="paint6_radial_23_461" cx="0" cy="0" r="1" gradientTransform="matrix(11.49998 2 -2 11.49998 20.5 18)" gradientUnits="userSpaceOnUse"><stop stop-color="#FFA64B"/><stop offset=".9" stop-color="#FFAE46" stop-opacity="0"/></radialGradient><radialGradient id="paint7_radial_23_461" cx="0" cy="0" r="1" gradientTransform="rotate(43.971 -9.827 29.173) scale(59.0529)" gradientUnits="userSpaceOnUse"><stop offset=".185" stop-opacity="0"/><stop offset="1" stop-opacity=".4"/></radialGradient><radialGradient id="paint10_radial_23_461" cx="0" cy="0" r="1" gradientTransform="matrix(-4.5 3 -3 -4.5 20 10)" gradientUnits="userSpaceOnUse"><stop offset=".116" stop-color="#EC812A"/><stop offset="1" stop-color="#FBA84C" stop-opacity="0"/></radialGradient><radialGradient id="paint11_radial_23_461" cx="0" cy="0" r="1" gradientTransform="rotate(158.199 2.248 7.174) scale(5.38516)" gradientUnits="userSpaceOnUse"><stop stop-color="#CC7521"/><stop offset="1" stop-color="#E6872B" stop-opacity="0"/></radialGradient><radialGradient id="paint16_radial_23_461" cx="0" cy="0" r="1" gradientTransform="matrix(0 -11 22 0 16 28)" gradientUnits="userSpaceOnUse"><stop stop-color="#F70A8D"/><stop offset="1" stop-color="#89029C"/></radialGradient><linearGradient id="paint8_linear_23_461" x1="23.5" x2="21.814" y1="11.5" y2="14.667" gradientUnits="userSpaceOnUse"><stop offset=".37" stop-color="#EC812A"/><stop offset="1" stop-color="#FBA84C" stop-opacity="0"/></linearGradient><linearGradient id="paint9_linear_23_461" x1="10.5" x2="10.25" y1="11.5" y2="14.025" gradientUnits="userSpaceOnUse"><stop stop-color="#C85F27"/><stop offset="1" stop-color="#C85F27" stop-opacity="0"/></linearGradient><linearGradient id="paint12_linear_23_461" x1="7.5" x2="10" y1="1" y2="15" gradientUnits="userSpaceOnUse"><stop stop-color="#7912B2"/><stop offset="1" stop-color="#CF1DA1"/></linearGradient><linearGradient id="paint13_linear_23_461" x1="15" x2="8.5" y1="6" y2="8.5" gradientUnits="userSpaceOnUse"><stop stop-color="#A82D9C"/><stop offset="1" stop-color="#BF33B1" stop-opacity="0"/></linearGradient><linearGradient id="paint14_linear_23_461" x1="22" x2="22.5" y1="2.5" y2="14.5" gradientUnits="userSpaceOnUse"><stop stop-color="#7912B2"/><stop offset="1" stop-color="#CF1DA1"/></linearGradient><linearGradient id="paint15_linear_23_461" x1="29.5" x2="23.5" y1="6" y2="6.5" gradientUnits="userSpaceOnUse"><stop stop-color="#B51AA6"/><stop offset="1" stop-color="#BF33B1" stop-opacity="0"/></linearGradient><linearGradient id="paint17_linear_23_461" x1="16" x2="16" y1="17" y2="18.5" gradientUnits="userSpaceOnUse"><stop stop-color="#D5A8FE"/><stop offset="1" stop-color="#fff"/></linearGradient><filter id="filter0_f_23_461" width="8.5" height="9" x="18" y="10" color-interpolation-filters="sRGB" filterUnits="userSpaceOnUse"><feFlood flood-opacity="0" result="BackgroundImageFix"/><feBlend in="SourceGraphic" in2="BackgroundImageFix" result="shape"/><feGaussianBlur result="effect1_foregroundBlur_23_461" stdDeviation=".5"/></filter><filter id="filter1_f_23_461" width="8.5" height="6.5" x="6" y="9" color-interpolation-filters="sRGB" filterUnits="userSpaceOnUse"><feFlood flood-opacity="0" result="BackgroundImageFix"/><feBlend in="SourceGraphic" in2="BackgroundImageFix" result="shape"/><feGaussianBlur result="effect1_foregroundBlur_23_461" stdDeviation=".5"/></filter><filter id="filter2_f_23_461" width="5.253" height="9" x="15.5" y="5" color-interpolation-filters="sRGB" filterUnits="userSpaceOnUse"><feFlood flood-opacity="0" result="BackgroundImageFix"/><feBlend in="SourceGraphic" in2="BackgroundImageFix" result="shape"/><feGaussianBlur result="effect1_foregroundBlur_23_461" stdDeviation=".5"/></filter><filter id="filter3_f_23_461" width="5.253" height="10" x="2" y="7" color-interpolation-filters="sRGB" filterUnits="userSpaceOnUse"><feFlood flood-opacity="0" result="BackgroundImageFix"/><feBlend in="SourceGraphic" in2="BackgroundImageFix" result="shape"/><feGaussianBlur result="effect1_foregroundBlur_23_461" stdDeviation=".5"/></filter><clipPath id="clip0_23_461"><path fill="#fff" d="M0 0h32v32H0z"/></clipPath></defs></svg>