<svg xmlns="http://www.w3.org/2000/svg" width="32" height="32" fill="none" viewBox="0 0 32 32"><g filter="url(#filter0_i_20020_1337)"><path fill="#FFC23F" d="M14.046 4.124a2.415 2.415 0 1 1 4.784.666l-.92 6.612c.69-1.974 1.393-3.856 1.98-5.16.472-1.23 1.64-2.016 3.093-1.594 1.312.43 1.935 1.914 1.43 3.193-.89 2.248-2.125 5.633-2.895 8.596 1.18-.496 2.422-1.528 3.582-2.406 1.523-1.04 2.994-.705 3.79.481a2.506 2.506 0 0 1-.517 3.357l-2.416 1.928a29.177 29.177 0 0 0-2.357 2.507 20.134 20.134 0 0 0-1.598 2.176 24.124 24.124 0 0 1-1.293 1.824 10.026 10.026 0 0 1-2.304 2.148l-.009-.007a8.368 8.368 0 0 1-4.812 1.513 8.405 8.405 0 0 1-7.39-4.394c-1.291-2.292-1.502-4.66-1.693-6.812a49.319 49.319 0 0 0-.151-1.526 25.059 25.059 0 0 0-.53-3.709l-.756-3.082a2.415 2.415 0 1 1 4.69-1.15l.657 2.678-.414-5.134a2.415 2.415 0 1 1 4.814-.388l.335 4.154.9-6.47Z"/><path fill="url(#paint0_radial_20020_1337)" d="M14.046 4.124a2.415 2.415 0 1 1 4.784.666l-.92 6.612c.69-1.974 1.393-3.856 1.98-5.16.472-1.23 1.64-2.016 3.093-1.594 1.312.43 1.935 1.914 1.43 3.193-.89 2.248-2.125 5.633-2.895 8.596 1.18-.496 2.422-1.528 3.582-2.406 1.523-1.04 2.994-.705 3.79.481a2.506 2.506 0 0 1-.517 3.357l-2.416 1.928a29.177 29.177 0 0 0-2.357 2.507 20.134 20.134 0 0 0-1.598 2.176 24.124 24.124 0 0 1-1.293 1.824 10.026 10.026 0 0 1-2.304 2.148l-.009-.007a8.368 8.368 0 0 1-4.812 1.513 8.405 8.405 0 0 1-7.39-4.394c-1.291-2.292-1.502-4.66-1.693-6.812a49.319 49.319 0 0 0-.151-1.526 25.059 25.059 0 0 0-.53-3.709l-.756-3.082a2.415 2.415 0 1 1 4.69-1.15l.657 2.678-.414-5.134a2.415 2.415 0 1 1 4.814-.388l.335 4.154.9-6.47Z"/><path fill="url(#paint1_radial_20020_1337)" d="M14.046 4.124a2.415 2.415 0 1 1 4.784.666l-.92 6.612c.69-1.974 1.393-3.856 1.98-5.16.472-1.23 1.64-2.016 3.093-1.594 1.312.43 1.935 1.914 1.43 3.193-.89 2.248-2.125 5.633-2.895 8.596 1.18-.496 2.422-1.528 3.582-2.406 1.523-1.04 2.994-.705 3.79.481a2.506 2.506 0 0 1-.517 3.357l-2.416 1.928a29.177 29.177 0 0 0-2.357 2.507 20.134 20.134 0 0 0-1.598 2.176 24.124 24.124 0 0 1-1.293 1.824 10.026 10.026 0 0 1-2.304 2.148l-.009-.007a8.368 8.368 0 0 1-4.812 1.513 8.405 8.405 0 0 1-7.39-4.394c-1.291-2.292-1.502-4.66-1.693-6.812a49.319 49.319 0 0 0-.151-1.526 25.059 25.059 0 0 0-.53-3.709l-.756-3.082a2.415 2.415 0 1 1 4.69-1.15l.657 2.678-.414-5.134a2.415 2.415 0 1 1 4.814-.388l.335 4.154.9-6.47Z"/></g><g filter="url(#filter1_f_20020_1337)"><path stroke="#FFDA3E" stroke-linecap="round" stroke-width="1.5" d="m5.734 9.054 1.61 6.734"/></g><path fill="url(#paint2_linear_20020_1337)" d="M4.37 17.4a24.829 24.829 0 0 0-.02-.174 25.06 25.06 0 0 0-.53-3.709l-.756-3.082a2.415 2.415 0 1 1 4.69-1.15l.656 2.676.87 3.32c.266 1.905-2.672 3.574-4.91 2.12Z"/><path fill="url(#paint3_linear_20020_1337)" d="M4.37 17.4a24.829 24.829 0 0 0-.02-.174 25.06 25.06 0 0 0-.53-3.709l-.756-3.082a2.415 2.415 0 1 1 4.69-1.15l.656 2.676.87 3.32c.266 1.905-2.672 3.574-4.91 2.12Z"/><g filter="url(#filter2_f_20020_1337)"><path stroke="#FFDA3E" stroke-linecap="round" stroke-width="1.5" d="m10.897 6.32.86 7.343"/></g><path fill="url(#paint4_linear_20020_1337)" d="M13.475 14.632c0 .766-.422 1.828-1.766 2.047-1.427.232-2.306-1.061-2.504-1.582l-.804-3.164-.404-5.104a2.415 2.415 0 1 1 4.814-.388l.664 8.191Z"/><path fill="url(#paint5_linear_20020_1337)" d="M13.475 14.632c0 .766-.422 1.828-1.766 2.047-1.427.232-2.306-1.061-2.504-1.582l-.804-3.164-.404-5.104a2.415 2.415 0 1 1 4.814-.388l.664 8.191Z"/><path fill="url(#paint6_radial_20020_1337)" d="M13.475 14.632c0 .766-.422 1.828-1.766 2.047-1.427.232-2.306-1.061-2.504-1.582l-.804-3.164-.404-5.104a2.415 2.415 0 1 1 4.814-.388l.664 8.191Z"/><path fill="url(#paint7_linear_20020_1337)" d="M13.475 14.632c0 .766-.422 1.828-1.766 2.047-1.427.232-2.306-1.061-2.504-1.582l-.804-3.164-.404-5.104a2.415 2.415 0 1 1 4.814-.388l.664 8.191Z"/><path fill="url(#paint8_radial_20020_1337)" d="M13.475 14.632c0 .766-.422 1.828-1.766 2.047-1.427.232-2.306-1.061-2.504-1.582l-.804-3.164-.404-5.104a2.415 2.415 0 1 1 4.814-.388l.664 8.191Z"/><g filter="url(#filter3_f_20020_1337)"><path stroke="#FFDA3E" stroke-linecap="round" stroke-width="1.5" d="m16.96 4.71-.922 8.953"/></g><path fill="url(#paint9_linear_20020_1337)" d="M13.454 14.38c.31.287.72.536 1.255.69 1.613.462 2.493-1.04 2.688-1.985l.513-1.683.92-6.612a2.415 2.415 0 0 0-4.784-.666l-.899 6.463.307 3.793Z"/><path fill="url(#paint10_linear_20020_1337)" d="M13.454 14.38c.31.287.72.536 1.255.69 1.613.462 2.493-1.04 2.688-1.985l.513-1.683.92-6.612a2.415 2.415 0 0 0-4.784-.666l-.899 6.463.307 3.793Z"/><path fill="url(#paint11_radial_20020_1337)" d="M13.454 14.38c.31.287.72.536 1.255.69 1.613.462 2.493-1.04 2.688-1.985l.513-1.683.92-6.612a2.415 2.415 0 0 0-4.784-.666l-.899 6.463.307 3.793Z"/><path fill="url(#paint12_radial_20020_1337)" d="M13.454 14.38c.31.287.72.536 1.255.69 1.613.462 2.493-1.04 2.688-1.985l.513-1.683.92-6.612a2.415 2.415 0 0 0-4.784-.666l-.899 6.463.307 3.793Z"/><path fill="url(#paint13_radial_20020_1337)" d="M13.454 14.38c.31.287.72.536 1.255.69 1.613.462 2.493-1.04 2.688-1.985l.513-1.683.92-6.612a2.415 2.415 0 0 0-4.784-.666l-.899 6.463.307 3.793Z"/><path fill="url(#paint14_linear_20020_1337)" d="M13.454 14.38c.31.287.72.536 1.255.69 1.613.462 2.493-1.04 2.688-1.985l.513-1.683.92-6.612a2.415 2.415 0 0 0-4.784-.666l-.899 6.463.307 3.793Z"/><g filter="url(#filter4_f_20020_1337)"><path stroke="url(#paint15_linear_20020_1337)" stroke-linecap="round" stroke-width=".75" d="M20.413 16.476c.354-1.25 1.468-5.256 2.968-9.406"/></g><path fill="url(#paint16_linear_20020_1337)" d="m21.526 16.433-.008.004c.096-.37.2-.747.309-1.128.764-2.663 1.808-5.5 2.586-7.468a2.53 2.53 0 0 0 .137-.487c.202-1.147-.419-2.33-1.567-2.706-1.453-.422-2.621.365-3.094 1.594-.28.621-.585 1.374-.904 2.206-.35.913-.714 1.921-1.075 2.954l.004-.032-.01.042-.599 2.03c-.184.63-.397 2.08 1.04 3 1.435.92 2.837.598 3.176 0l.005-.009Z"/><path fill="url(#paint17_linear_20020_1337)" d="m21.526 16.433-.008.004c.096-.37.2-.747.309-1.128.764-2.663 1.808-5.5 2.586-7.468a2.53 2.53 0 0 0 .137-.487c.202-1.147-.419-2.33-1.567-2.706-1.453-.422-2.621.365-3.094 1.594-.28.621-.585 1.374-.904 2.206-.35.913-.714 1.921-1.075 2.954l.004-.032-.01.042-.599 2.03c-.184.63-.397 2.08 1.04 3 1.435.92 2.837.598 3.176 0l.005-.009Z"/><path fill="url(#paint18_radial_20020_1337)" d="m21.526 16.433-.008.004c.096-.37.2-.747.309-1.128.764-2.663 1.808-5.5 2.586-7.468a2.53 2.53 0 0 0 .137-.487c.202-1.147-.419-2.33-1.567-2.706-1.453-.422-2.621.365-3.094 1.594-.28.621-.585 1.374-.904 2.206-.35.913-.714 1.921-1.075 2.954l.004-.032-.01.042-.599 2.03c-.184.63-.397 2.08 1.04 3 1.435.92 2.837.598 3.176 0l.005-.009Z"/><path fill="url(#paint19_radial_20020_1337)" d="m21.526 16.433-.008.004c.096-.37.2-.747.309-1.128.764-2.663 1.808-5.5 2.586-7.468a2.53 2.53 0 0 0 .137-.487c.202-1.147-.419-2.33-1.567-2.706-1.453-.422-2.621.365-3.094 1.594-.28.621-.585 1.374-.904 2.206-.35.913-.714 1.921-1.075 2.954l.004-.032-.01.042-.599 2.03c-.184.63-.397 2.08 1.04 3 1.435.92 2.837.598 3.176 0l.005-.009Z"/><g filter="url(#filter5_f_20020_1337)"><path stroke="url(#paint20_linear_20020_1337)" stroke-linecap="round" d="M27.725 15.413c-1.333.855-4.425 3.225-6.125 5.875"/></g><g filter="url(#filter6_f_20020_1337)"><path stroke="url(#paint21_linear_20020_1337)" stroke-linecap="round" stroke-width="1.5" d="M7.134 16.56c1.952-.965 7.142-2.317 12.28 0"/></g><path fill="url(#paint22_radial_20020_1337)" d="M14.046 4.124a2.415 2.415 0 1 1 4.784.666l-.92 6.612c.69-1.974 1.393-3.856 1.98-5.16.472-1.23 1.64-2.016 3.093-1.594 1.312.43 1.935 1.914 1.43 3.193-.89 2.248-2.125 5.633-2.895 8.596 1.18-.496 2.422-1.528 3.582-2.406 1.523-1.04 2.994-.705 3.79.481a2.506 2.506 0 0 1-.517 3.357l-2.416 1.928a29.177 29.177 0 0 0-2.357 2.507 20.134 20.134 0 0 0-1.598 2.176 24.124 24.124 0 0 1-1.293 1.824 10.026 10.026 0 0 1-2.304 2.148l-.009-.007a8.368 8.368 0 0 1-4.812 1.513 8.405 8.405 0 0 1-7.39-4.394c-1.291-2.292-1.502-4.66-1.693-6.812a49.319 49.319 0 0 0-.151-1.526 25.059 25.059 0 0 0-.53-3.709l-.756-3.082a2.415 2.415 0 1 1 4.69-1.15l.657 2.678-.414-5.134a2.415 2.415 0 1 1 4.814-.388l.335 4.154.9-6.47Z"/><path fill="url(#paint23_radial_20020_1337)" d="M14.046 4.124a2.415 2.415 0 1 1 4.784.666l-.92 6.612c.69-1.974 1.393-3.856 1.98-5.16.472-1.23 1.64-2.016 3.093-1.594 1.312.43 1.935 1.914 1.43 3.193-.89 2.248-2.125 5.633-2.895 8.596 1.18-.496 2.422-1.528 3.582-2.406 1.523-1.04 2.994-.705 3.79.481a2.506 2.506 0 0 1-.517 3.357l-2.416 1.928a29.177 29.177 0 0 0-2.357 2.507 20.134 20.134 0 0 0-1.598 2.176 24.124 24.124 0 0 1-1.293 1.824 10.026 10.026 0 0 1-2.304 2.148l-.009-.007a8.368 8.368 0 0 1-4.812 1.513 8.405 8.405 0 0 1-7.39-4.394c-1.291-2.292-1.502-4.66-1.693-6.812a49.319 49.319 0 0 0-.151-1.526 25.059 25.059 0 0 0-.53-3.709l-.756-3.082a2.415 2.415 0 1 1 4.69-1.15l.657 2.678-.414-5.134a2.415 2.415 0 1 1 4.814-.388l.335 4.154.9-6.47Z"/><path fill="url(#paint24_radial_20020_1337)" d="M14.046 4.124a2.415 2.415 0 1 1 4.784.666l-.92 6.612c.69-1.974 1.393-3.856 1.98-5.16.472-1.23 1.64-2.016 3.093-1.594 1.312.43 1.935 1.914 1.43 3.193-.89 2.248-2.125 5.633-2.895 8.596 1.18-.496 2.422-1.528 3.582-2.406 1.523-1.04 2.994-.705 3.79.481a2.506 2.506 0 0 1-.517 3.357l-2.416 1.928a29.177 29.177 0 0 0-2.357 2.507 20.134 20.134 0 0 0-1.598 2.176 24.124 24.124 0 0 1-1.293 1.824 10.026 10.026 0 0 1-2.304 2.148l-.009-.007a8.368 8.368 0 0 1-4.812 1.513 8.405 8.405 0 0 1-7.39-4.394c-1.291-2.292-1.502-4.66-1.693-6.812a49.319 49.319 0 0 0-.151-1.526 25.059 25.059 0 0 0-.53-3.709l-.756-3.082a2.415 2.415 0 1 1 4.69-1.15l.657 2.678-.414-5.134a2.415 2.415 0 1 1 4.814-.388l.335 4.154.9-6.47Z"/><path fill="url(#paint25_radial_20020_1337)" d="M14.046 4.124a2.415 2.415 0 1 1 4.784.666l-.92 6.612c.69-1.974 1.393-3.856 1.98-5.16.472-1.23 1.64-2.016 3.093-1.594 1.312.43 1.935 1.914 1.43 3.193-.89 2.248-2.125 5.633-2.895 8.596 1.18-.496 2.422-1.528 3.582-2.406 1.523-1.04 2.994-.705 3.79.481a2.506 2.506 0 0 1-.517 3.357l-2.416 1.928a29.177 29.177 0 0 0-2.357 2.507 20.134 20.134 0 0 0-1.598 2.176 24.124 24.124 0 0 1-1.293 1.824 10.026 10.026 0 0 1-2.304 2.148l-.009-.007a8.368 8.368 0 0 1-4.812 1.513 8.405 8.405 0 0 1-7.39-4.394c-1.291-2.292-1.502-4.66-1.693-6.812a49.319 49.319 0 0 0-.151-1.526 25.059 25.059 0 0 0-.53-3.709l-.756-3.082a2.415 2.415 0 1 1 4.69-1.15l.657 2.678-.414-5.134a2.415 2.415 0 1 1 4.814-.388l.335 4.154.9-6.47Z"/><path fill="url(#paint26_radial_20020_1337)" d="M14.046 4.124a2.415 2.415 0 1 1 4.784.666l-.92 6.612c.69-1.974 1.393-3.856 1.98-5.16.472-1.23 1.64-2.016 3.093-1.594 1.312.43 1.935 1.914 1.43 3.193-.89 2.248-2.125 5.633-2.895 8.596 1.18-.496 2.422-1.528 3.582-2.406 1.523-1.04 2.994-.705 3.79.481a2.506 2.506 0 0 1-.517 3.357l-2.416 1.928a29.177 29.177 0 0 0-2.357 2.507 20.134 20.134 0 0 0-1.598 2.176 24.124 24.124 0 0 1-1.293 1.824 10.026 10.026 0 0 1-2.304 2.148l-.009-.007a8.368 8.368 0 0 1-4.812 1.513 8.405 8.405 0 0 1-7.39-4.394c-1.291-2.292-1.502-4.66-1.693-6.812a49.319 49.319 0 0 0-.151-1.526 25.059 25.059 0 0 0-.53-3.709l-.756-3.082a2.415 2.415 0 1 1 4.69-1.15l.657 2.678-.414-5.134a2.415 2.415 0 1 1 4.814-.388l.335 4.154.9-6.47Z"/><defs><radialGradient id="paint0_radial_20020_1337" cx="0" cy="0" r="1" gradientTransform="rotate(162.091 11.104 8.207) scale(21.5439 35.6329)" gradientUnits="userSpaceOnUse"><stop offset=".85" stop-color="#F5A732" stop-opacity="0"/><stop offset="1" stop-color="#F5A732"/></radialGradient><radialGradient id="paint1_radial_20020_1337" cx="0" cy="0" r="1" gradientTransform="matrix(-1.25965 -5.35333 11.99579 -2.82264 20.674 27.015)" gradientUnits="userSpaceOnUse"><stop stop-color="#FFCC46"/><stop offset="1" stop-color="#FFCC46" stop-opacity="0"/></radialGradient><radialGradient id="paint6_radial_20020_1337" cx="0" cy="0" r="1" gradientTransform="matrix(.90625 -.125 1.0637 7.71184 8.24 13.429)" gradientUnits="userSpaceOnUse"><stop stop-color="#743200"/><stop offset="1" stop-color="#743200" stop-opacity="0"/></radialGradient><radialGradient id="paint8_radial_20020_1337" cx="0" cy="0" r="1" gradientTransform="rotate(58.762 .568 9.775) scale(2.71164 3.33266)" gradientUnits="userSpaceOnUse"><stop stop-color="#E2A53A"/><stop offset="1" stop-color="#E2A53A" stop-opacity="0"/></radialGradient><radialGradient id="paint11_radial_20020_1337" cx="0" cy="0" r="1" gradientTransform="matrix(-.76562 -.14063 .82423 -4.48734 18.084 12.367)" gradientUnits="userSpaceOnUse"><stop stop-color="#854104"/><stop offset="1" stop-color="#854104" stop-opacity="0"/></radialGradient><radialGradient id="paint12_radial_20020_1337" cx="0" cy="0" r="1" gradientTransform="matrix(1.85793 .12596 -.5544 8.17728 11.92 12.592)" gradientUnits="userSpaceOnUse"><stop offset=".216" stop-color="#854104"/><stop offset="1" stop-color="#854104" stop-opacity="0"/></radialGradient><radialGradient id="paint13_radial_20020_1337" cx="0" cy="0" r="1" gradientTransform="matrix(.8993 3.08605 -4.6524 1.35576 15.1 1.57)" gradientUnits="userSpaceOnUse"><stop stop-color="#DBA737"/><stop offset="1" stop-color="#DBA737" stop-opacity="0"/></radialGradient><radialGradient id="paint18_radial_20020_1337" cx="0" cy="0" r="1" gradientTransform="rotate(86.629 8.2 13.01) scale(2.96891 .47158)" gradientUnits="userSpaceOnUse"><stop stop-color="#DBA737"/><stop offset="1" stop-color="#DBA737" stop-opacity="0"/></radialGradient><radialGradient id="paint19_radial_20020_1337" cx="0" cy="0" r="1" gradientTransform="rotate(-155.639 12.702 5.798) scale(1.09854 3.0178)" gradientUnits="userSpaceOnUse"><stop offset=".218" stop-color="#DFA63D"/><stop offset="1" stop-color="#DFA63D" stop-opacity="0"/></radialGradient><radialGradient id="paint22_radial_20020_1337" cx="0" cy="0" r="1" gradientTransform="rotate(149.088 12.674 11.228) scale(3.21012 4.30538)" gradientUnits="userSpaceOnUse"><stop stop-color="#FFE949"/><stop offset="1" stop-color="#FFE949" stop-opacity="0"/></radialGradient><radialGradient id="paint23_radial_20020_1337" cx="0" cy="0" r="1" gradientTransform="matrix(-1.53123 2.25001 -2.90885 -1.9796 24 5.375)" gradientUnits="userSpaceOnUse"><stop stop-color="#FFE949"/><stop offset="1" stop-color="#FFE949" stop-opacity="0"/></radialGradient><radialGradient id="paint24_radial_20020_1337" cx="0" cy="0" r="1" gradientTransform="rotate(115.187 8.414 6.774) scale(3.65668 4.0446)" gradientUnits="userSpaceOnUse"><stop stop-color="#FFE949"/><stop offset="1" stop-color="#FFE949" stop-opacity="0"/></radialGradient><radialGradient id="paint25_radial_20020_1337" cx="0" cy="0" r="1" gradientTransform="matrix(-.64998 2.7415 -2.6143 -.61983 11.281 4.234)" gradientUnits="userSpaceOnUse"><stop stop-color="#FFE949"/><stop offset="1" stop-color="#FFE949" stop-opacity="0"/></radialGradient><radialGradient id="paint26_radial_20020_1337" cx="0" cy="0" r="1" gradientTransform="rotate(109.44 .391 6.373) scale(1.6901 1.80451)" gradientUnits="userSpaceOnUse"><stop stop-color="#FFE949"/><stop offset="1" stop-color="#FFE949" stop-opacity="0"/></radialGradient><linearGradient id="paint2_linear_20020_1337" x1="8.538" x2="7.944" y1="12.07" y2="12.226" gradientUnits="userSpaceOnUse"><stop stop-color="#D38C08"/><stop offset="1" stop-color="#D38C08" stop-opacity="0"/></linearGradient><linearGradient id="paint3_linear_20020_1337" x1="9.381" x2="7.866" y1="15.538" y2="14.804" gradientUnits="userSpaceOnUse"><stop stop-color="#FFC23F"/><stop offset="1" stop-color="#FFC23F" stop-opacity="0"/></linearGradient><linearGradient id="paint4_linear_20020_1337" x1="13.35" x2="12.616" y1="10.132" y2="10.195" gradientUnits="userSpaceOnUse"><stop stop-color="#C78A3B"/><stop offset="1" stop-color="#C78A3B" stop-opacity="0"/></linearGradient><linearGradient id="paint5_linear_20020_1337" x1="7.662" x2="10.569" y1="10.788" y2="10.463" gradientUnits="userSpaceOnUse"><stop stop-color="#E29208"/><stop offset="1" stop-color="#E29208" stop-opacity="0"/></linearGradient><linearGradient id="paint7_linear_20020_1337" x1="13.475" x2="12.756" y1="14.913" y2="12.57" gradientUnits="userSpaceOnUse"><stop stop-color="#FFC23F"/><stop offset="1" stop-color="#FFC23F" stop-opacity="0"/></linearGradient><linearGradient id="paint9_linear_20020_1337" x1="12.35" x2="15.256" y1="8.788" y2="9.195" gradientUnits="userSpaceOnUse"><stop stop-color="#D58C07"/><stop offset="1" stop-color="#D58C07" stop-opacity="0"/></linearGradient><linearGradient id="paint10_linear_20020_1337" x1="18.365" x2="17.319" y1="11.463" y2="11.305" gradientUnits="userSpaceOnUse"><stop stop-color="#CD8921"/><stop offset="1" stop-color="#CD8921" stop-opacity="0"/></linearGradient><linearGradient id="paint14_linear_20020_1337" x1="14.896" x2="15.194" y1="14.938" y2="11.726" gradientUnits="userSpaceOnUse"><stop stop-color="#FFC23F"/><stop offset="1" stop-color="#FFC23F" stop-opacity="0"/></linearGradient><linearGradient id="paint15_linear_20020_1337" x1="21.475" x2="25.256" y1="14.726" y2="1.82" gradientUnits="userSpaceOnUse"><stop stop-color="#FFDA3E"/><stop offset="1" stop-color="#FFDA3E" stop-opacity="0"/></linearGradient><linearGradient id="paint16_linear_20020_1337" x1="17.525" x2="20.881" y1="9.506" y2="10.775" gradientUnits="userSpaceOnUse"><stop stop-color="#CE8716"/><stop offset="1" stop-color="#CE8716" stop-opacity="0"/></linearGradient><linearGradient id="paint17_linear_20020_1337" x1="17.998" x2="18.848" y1="16.592" y2="14.86" gradientUnits="userSpaceOnUse"><stop stop-color="#FFC23F"/><stop offset="1" stop-color="#FFC23F" stop-opacity="0"/></linearGradient><linearGradient id="paint20_linear_20020_1337" x1="27.725" x2="27.228" y1="15.413" y2="21.284" gradientUnits="userSpaceOnUse"><stop stop-color="#FFDA3E"/><stop offset="1" stop-color="#FFDA3E" stop-opacity="0"/></linearGradient><linearGradient id="paint21_linear_20020_1337" x1="18.029" x2="3.418" y1="17.064" y2="17.82" gradientUnits="userSpaceOnUse"><stop stop-color="#FFD544"/><stop offset="1" stop-color="#FFD544" stop-opacity="0"/></linearGradient><filter id="filter0_i_20020_1337" width="26.723" height="28.316" x="2.994" y="1.642" color-interpolation-filters="sRGB" filterUnits="userSpaceOnUse"><feFlood flood-opacity="0" result="BackgroundImageFix"/><feBlend in="SourceGraphic" in2="BackgroundImageFix" result="shape"/><feColorMatrix in="SourceAlpha" result="hardAlpha" values="0 0 0 0 0 0 0 0 0 0 0 0 0 0 0 0 0 0 127 0"/><feOffset dx=".4" dy="-.4"/><feGaussianBlur stdDeviation="1.125"/><feComposite in2="hardAlpha" k2="-1" k3="1" operator="arithmetic"/><feColorMatrix values="0 0 0 0 0.960784 0 0 0 0 0.486275 0 0 0 0 0.411765 0 0 0 1 0"/><feBlend in2="shape" result="effect1_innerShadow_20020_1337"/></filter><filter id="filter1_f_20020_1337" width="6.71" height="11.835" x="3.184" y="6.504" color-interpolation-filters="sRGB" filterUnits="userSpaceOnUse"><feFlood flood-opacity="0" result="BackgroundImageFix"/><feBlend in="SourceGraphic" in2="BackgroundImageFix" result="shape"/><feGaussianBlur result="effect1_foregroundBlur_20020_1337" stdDeviation=".9"/></filter><filter id="filter2_f_20020_1337" width="6.36" height="12.844" x="8.147" y="3.57" color-interpolation-filters="sRGB" filterUnits="userSpaceOnUse"><feFlood flood-opacity="0" result="BackgroundImageFix"/><feBlend in="SourceGraphic" in2="BackgroundImageFix" result="shape"/><feGaussianBlur result="effect1_foregroundBlur_20020_1337" stdDeviation="1"/></filter><filter id="filter3_f_20020_1337" width="6.422" height="14.453" x="13.287" y="1.96" color-interpolation-filters="sRGB" filterUnits="userSpaceOnUse"><feFlood flood-opacity="0" result="BackgroundImageFix"/><feBlend in="SourceGraphic" in2="BackgroundImageFix" result="shape"/><feGaussianBlur result="effect1_foregroundBlur_20020_1337" stdDeviation="1"/></filter><filter id="filter4_f_20020_1337" width="6.219" height="12.656" x="18.787" y="5.445" color-interpolation-filters="sRGB" filterUnits="userSpaceOnUse"><feFlood flood-opacity="0" result="BackgroundImageFix"/><feBlend in="SourceGraphic" in2="BackgroundImageFix" result="shape"/><feGaussianBlur result="effect1_foregroundBlur_20020_1337" stdDeviation=".625"/></filter><filter id="filter5_f_20020_1337" width="10.125" height="9.875" x="19.6" y="13.413" color-interpolation-filters="sRGB" filterUnits="userSpaceOnUse"><feFlood flood-opacity="0" result="BackgroundImageFix"/><feBlend in="SourceGraphic" in2="BackgroundImageFix" result="shape"/><feGaussianBlur result="effect1_foregroundBlur_20020_1337" stdDeviation=".75"/></filter><filter id="filter6_f_20020_1337" width="17.782" height="6.78" x="4.383" y="12.53" color-interpolation-filters="sRGB" filterUnits="userSpaceOnUse"><feFlood flood-opacity="0" result="BackgroundImageFix"/><feBlend in="SourceGraphic" in2="BackgroundImageFix" result="shape"/><feGaussianBlur result="effect1_foregroundBlur_20020_1337" stdDeviation="1"/></filter></defs></svg>