<svg xmlns="http://www.w3.org/2000/svg" width="32" height="32" fill="none" viewBox="0 0 32 32"><g filter="url(#filter0_i_18_9225)"><path fill="url(#paint0_linear_18_9225)" d="M29.98 7H19.85c-2.72 0-5.31 1.18-7.1 3.23l-2.87 3.3L6 18h23.98V7Z"/><path fill="url(#paint1_linear_18_9225)" d="M29.98 7H19.85c-2.72 0-5.31 1.18-7.1 3.23l-2.87 3.3L6 18h23.98V7Z"/></g><path fill="url(#paint2_linear_18_9225)" d="M29.989 18H6.001l-3.36 4.16C1.1 24.13 2.51 27 5.01 27h24.988v-9h-.01Z"/><path fill="url(#paint3_linear_18_9225)" d="M29.989 18H6.001l-3.36 4.16C1.1 24.13 2.51 27 5.01 27h24.988v-9h-.01Z"/><path fill="url(#paint4_linear_18_9225)" d="M29.989 18H6.001l-3.36 4.16C1.1 24.13 2.51 27 5.01 27h24.988v-9h-.01Z"/><path fill="url(#paint5_linear_18_9225)" d="M29.989 18H6.001l-3.36 4.16C1.1 24.13 2.51 27 5.01 27h24.988v-9h-.01Z"/><path fill="url(#paint6_linear_18_9225)" d="M29.989 18H6.001l-3.36 4.16C1.1 24.13 2.51 27 5.01 27h24.988v-9h-.01Z"/><path fill="url(#paint7_radial_18_9225)" d="m5.999 18-3.358 4.15C1.098 24.123 2.511 27 5.017 27h.982v-9Z"/><path fill="url(#paint8_radial_18_9225)" d="m5.999 18-3.358 4.15C1.098 24.123 2.511 27 5.017 27h.982v-9Z"/><path fill="url(#paint9_radial_18_9225)" d="m5.999 18-3.358 4.15C1.098 24.123 2.511 27 5.017 27h.982v-9Z"/><path fill="url(#paint10_linear_18_9225)" d="M14.233 25.404 13 27h17v-4H19.19c-1.954 0-3.784.888-4.957 2.404Z"/><path fill="url(#paint11_linear_18_9225)" d="M14.233 25.404 13 27h17v-4H19.19c-1.954 0-3.784.888-4.957 2.404Z"/><path fill="url(#paint12_linear_18_9225)" d="M14.233 25.404 13 27h17v-4H19.19c-1.954 0-3.784.888-4.957 2.404Z"/><g filter="url(#filter1_i_18_9225)"><path fill="url(#paint13_linear_18_9225)" fill-rule="evenodd" d="M7.736 16h14.049a5.89 5.89 0 0 0 4.735-2.4l1.243-1.68c.582-.79.02-1.92-.957-1.92H12.958a9.17 9.17 0 0 0-.208.23l-2.87 3.3L7.736 16Z" clip-rule="evenodd"/></g><g filter="url(#filter2_i_18_9225)"><path fill="url(#paint14_radial_18_9225)" d="M10.99 22h-2c-.55 0-1-.45-1-1s.45-1 1-1h2c.55 0 1 .45 1 1s-.45 1-1 1Z"/></g><path fill="url(#paint15_linear_18_9225)" d="M30 27H2v3h28v-3Z"/><g filter="url(#filter3_f_18_9225)"><path fill="url(#paint16_linear_18_9225)" d="M2.698 28.025h26.548v.867H2.698z"/></g><g filter="url(#filter4_f_18_9225)"><path stroke="url(#paint17_linear_18_9225)" stroke-linecap="square" stroke-width=".6" d="M18.501 8.322h10.825"/></g><defs><linearGradient id="paint0_linear_18_9225" x1="29.135" x2="11.694" y1="16.278" y2="11.324" gradientUnits="userSpaceOnUse"><stop stop-color="#DCD1E3"/><stop offset="1" stop-color="#F1E4F9"/></linearGradient><linearGradient id="paint1_linear_18_9225" x1="29.98" x2="29.91" y1="11.671" y2="11.671" gradientUnits="userSpaceOnUse"><stop stop-color="#FAF3FB"/><stop offset="1" stop-color="#FAF3FB" stop-opacity="0"/></linearGradient><linearGradient id="paint2_linear_18_9225" x1="2" x2="29.993" y1="22.5" y2="22.5" gradientUnits="userSpaceOnUse"><stop stop-color="#D3C8DB"/><stop offset="1" stop-color="#EDE1F6"/></linearGradient><linearGradient id="paint3_linear_18_9225" x1="5.53" x2="6.938" y1="17.594" y2="18.856" gradientUnits="userSpaceOnUse"><stop stop-color="#949296"/><stop offset="1" stop-color="#949296" stop-opacity="0"/></linearGradient><linearGradient id="paint4_linear_18_9225" x1="9.888" x2="9.888" y1="27.887" y2="25.101" gradientUnits="userSpaceOnUse"><stop stop-color="#9D89AA"/><stop offset=".907" stop-color="#9D89AA" stop-opacity="0"/></linearGradient><linearGradient id="paint5_linear_18_9225" x1="12.312" x2="12.312" y1="27.313" y2="26.289" gradientUnits="userSpaceOnUse"><stop offset=".099" stop-color="#0C0713"/><stop offset="1" stop-color="#0C0713" stop-opacity="0"/></linearGradient><linearGradient id="paint6_linear_18_9225" x1="29.999" x2="29.917" y1="21.821" y2="21.821" gradientUnits="userSpaceOnUse"><stop stop-color="#FAF3FB"/><stop offset="1" stop-color="#FAF3FB" stop-opacity="0"/></linearGradient><linearGradient id="paint10_linear_18_9225" x1="13.874" x2="29.993" y1="25" y2="25" gradientUnits="userSpaceOnUse"><stop stop-color="#3EB1FF"/><stop offset="1" stop-color="#40B2FF"/></linearGradient><linearGradient id="paint11_linear_18_9225" x1="17.628" x2="17.628" y1="29.074" y2="25" gradientUnits="userSpaceOnUse"><stop stop-color="#085EAE"/><stop offset="1" stop-color="#085EAE" stop-opacity="0"/></linearGradient><linearGradient id="paint12_linear_18_9225" x1="19.26" x2="19.26" y1="27.139" y2="26.262" gradientUnits="userSpaceOnUse"><stop offset=".099" stop-color="#0C0713"/><stop offset="1" stop-color="#0C0713" stop-opacity="0"/></linearGradient><linearGradient id="paint13_linear_18_9225" x1="17.867" x2="17.867" y1="8.457" y2="14.898" gradientUnits="userSpaceOnUse"><stop stop-color="#0A7DED"/><stop offset="1" stop-color="#47DDFF"/></linearGradient><linearGradient id="paint15_linear_18_9225" x1="2" x2="30" y1="30" y2="30" gradientUnits="userSpaceOnUse"><stop stop-color="#27163C"/><stop offset="1" stop-color="#522A83"/></linearGradient><linearGradient id="paint16_linear_18_9225" x1="2.698" x2="29.625" y1="28.892" y2="28.892" gradientUnits="userSpaceOnUse"><stop stop-color="#352C45"/><stop offset="1" stop-color="#6B4699"/></linearGradient><linearGradient id="paint17_linear_18_9225" x1="29.667" x2="17.948" y1="8.322" y2="8.322" gradientUnits="userSpaceOnUse"><stop offset=".748" stop-color="#E7E1EC"/><stop offset="1" stop-color="#E7E1EC" stop-opacity="0"/></linearGradient><filter id="filter0_i_18_9225" width="25.23" height="11" x="6" y="7" color-interpolation-filters="sRGB" filterUnits="userSpaceOnUse"><feFlood flood-opacity="0" result="BackgroundImageFix"/><feBlend in="SourceGraphic" in2="BackgroundImageFix" result="shape"/><feColorMatrix in="SourceAlpha" result="hardAlpha" values="0 0 0 0 0 0 0 0 0 0 0 0 0 0 0 0 0 0 127 0"/><feOffset dx="1.25"/><feGaussianBlur stdDeviation=".625"/><feComposite in2="hardAlpha" k2="-1" k3="1" operator="arithmetic"/><feColorMatrix values="0 0 0 0 0.690196 0 0 0 0 0.670588 0 0 0 0 0.709804 0 0 0 1 0"/><feBlend in2="shape" result="effect1_innerShadow_18_9225"/></filter><filter id="filter1_i_18_9225" width="21.763" height="6.75" x="6.236" y="10" color-interpolation-filters="sRGB" filterUnits="userSpaceOnUse"><feFlood flood-opacity="0" result="BackgroundImageFix"/><feBlend in="SourceGraphic" in2="BackgroundImageFix" result="shape"/><feColorMatrix in="SourceAlpha" result="hardAlpha" values="0 0 0 0 0 0 0 0 0 0 0 0 0 0 0 0 0 0 127 0"/><feOffset dx="-1.5" dy=".75"/><feGaussianBlur stdDeviation="1.25"/><feComposite in2="hardAlpha" k2="-1" k3="1" operator="arithmetic"/><feColorMatrix values="0 0 0 0 0.0156863 0 0 0 0 0.380392 0 0 0 0 0.807843 0 0 0 1 0"/><feBlend in2="shape" result="effect1_innerShadow_18_9225"/></filter><filter id="filter2_i_18_9225" width="4" height="2" x="7.99" y="20" color-interpolation-filters="sRGB" filterUnits="userSpaceOnUse"><feFlood flood-opacity="0" result="BackgroundImageFix"/><feBlend in="SourceGraphic" in2="BackgroundImageFix" result="shape"/><feColorMatrix in="SourceAlpha" result="hardAlpha" values="0 0 0 0 0 0 0 0 0 0 0 0 0 0 0 0 0 0 127 0"/><feOffset/><feGaussianBlur stdDeviation=".2"/><feComposite in2="hardAlpha" k2="-1" k3="1" operator="arithmetic"/><feColorMatrix values="0 0 0 0 0.909804 0 0 0 0 0.180392 0 0 0 0 0.0666667 0 0 0 1 0"/><feBlend in2="shape" result="effect1_innerShadow_18_9225"/></filter><filter id="filter3_f_18_9225" width="29.048" height="3.367" x="1.448" y="26.775" color-interpolation-filters="sRGB" filterUnits="userSpaceOnUse"><feFlood flood-opacity="0" result="BackgroundImageFix"/><feBlend in="SourceGraphic" in2="BackgroundImageFix" result="shape"/><feGaussianBlur result="effect1_foregroundBlur_18_9225" stdDeviation=".625"/></filter><filter id="filter4_f_18_9225" width="12.625" height="1.8" x="17.601" y="7.422" color-interpolation-filters="sRGB" filterUnits="userSpaceOnUse"><feFlood flood-opacity="0" result="BackgroundImageFix"/><feBlend in="SourceGraphic" in2="BackgroundImageFix" result="shape"/><feGaussianBlur result="effect1_foregroundBlur_18_9225" stdDeviation=".3"/></filter><radialGradient id="paint7_radial_18_9225" cx="0" cy="0" r="1" gradientTransform="matrix(-3.18652 0 0 -5.2225 5.999 24.043)" gradientUnits="userSpaceOnUse"><stop stop-color="#7A737F"/><stop offset="1" stop-color="#5F5E60"/></radialGradient><radialGradient id="paint8_radial_18_9225" cx="0" cy="0" r="1" gradientTransform="matrix(0 9.8125 -7.09375 0 5.562 18.813)" gradientUnits="userSpaceOnUse"><stop offset=".761" stop-color="#060509" stop-opacity="0"/><stop offset=".904" stop-color="#060509"/></radialGradient><radialGradient id="paint9_radial_18_9225" cx="0" cy="0" r="1" gradientTransform="matrix(-2.24606 3.07043 -1.18406 -.86616 6.245 18)" gradientUnits="userSpaceOnUse"><stop offset=".323" stop-color="#605F61"/><stop offset="1" stop-color="#605F61" stop-opacity="0"/></radialGradient><radialGradient id="paint14_radial_18_9225" cx="0" cy="0" r="1" gradientTransform="matrix(3.75568 0 0 1.64929 8.513 21.003)" gradientUnits="userSpaceOnUse"><stop stop-color="#FF7853"/><stop offset="1" stop-color="#F43A21"/></radialGradient></defs></svg>