<svg xmlns="http://www.w3.org/2000/svg" width="32" height="32" fill="none" viewBox="0 0 32 32"><path fill="url(#paint0_radial_18_7226)" d="M30.95 6.55c0 1.88-1.57 3.41-3.5 3.41s-3.5-1.53-3.5-3.41c0-1.88 2.9-4.56 3.51-4.55.56-.02 3.49 2.66 3.49 4.55Z"/><path fill="url(#paint1_radial_18_7226)" d="M30.95 6.55c0 1.88-1.57 3.41-3.5 3.41s-3.5-1.53-3.5-3.41c0-1.88 2.9-4.56 3.51-4.55.56-.02 3.49 2.66 3.49 4.55Z"/><path fill="url(#paint2_radial_18_7226)" d="M8.824 6.55c0 1.88-1.57 3.41-3.5 3.41s-3.5-1.53-3.5-3.41c0-1.88 2.9-4.56 3.51-4.55.56-.02 3.49 2.66 3.49 4.55Z"/><path fill="url(#paint3_radial_18_7226)" d="M8.824 6.55c0 1.88-1.57 3.41-3.5 3.41s-3.5-1.53-3.5-3.41c0-1.88 2.9-4.56 3.51-4.55.56-.02 3.49 2.66 3.49 4.55Z"/><g filter="url(#filter0_ii_18_7226)"><path fill="url(#paint4_linear_18_7226)" d="M24.46 9.05v7c0 .54-.44.98-.99.98h-1.02c-.55 0-.99-.44-.99-.98V14.8h-10v1.25c0 .54-.44.99-.99.99h-1c-.55 0-.99-.44-.99-.98V8.87c0-.41-.34-.74-.75-.74H3.21c-.41 0-.75.33-.75.74v20.16h28V9.06c0-.54-.44-.98-.99-.98h-4.02a.97.97 0 0 0-.99.97Z"/></g><path fill="url(#paint5_radial_18_7226)" d="M24.46 9.05v7c0 .54-.44.98-.99.98h-1.02c-.55 0-.99-.44-.99-.98V14.8h-10v1.25c0 .54-.44.99-.99.99h-1c-.55 0-.99-.44-.99-.98V8.87c0-.41-.34-.74-.75-.74H3.21c-.41 0-.75.33-.75.74v20.16h28V9.06c0-.54-.44-.98-.99-.98h-4.02a.97.97 0 0 0-.99.97Z"/><path fill="url(#paint6_radial_18_7226)" d="M24.46 9.05v7c0 .54-.44.98-.99.98h-1.02c-.55 0-.99-.44-.99-.98V14.8h-10v1.25c0 .54-.44.99-.99.99h-1c-.55 0-.99-.44-.99-.98V8.87c0-.41-.34-.74-.75-.74H3.21c-.41 0-.75.33-.75.74v20.16h28V9.06c0-.54-.44-.98-.99-.98h-4.02a.97.97 0 0 0-.99.97Z"/><path fill="url(#paint7_radial_18_7226)" d="M24.46 9.05v7c0 .54-.44.98-.99.98h-1.02c-.55 0-.99-.44-.99-.98V14.8h-10v1.25c0 .54-.44.99-.99.99h-1c-.55 0-.99-.44-.99-.98V8.87c0-.41-.34-.74-.75-.74H3.21c-.41 0-.75.33-.75.74v20.16h28V9.06c0-.54-.44-.98-.99-.98h-4.02a.97.97 0 0 0-.99.97Z"/><path fill="url(#paint8_radial_18_7226)" d="M24.46 9.05v7c0 .54-.44.98-.99.98h-1.02c-.55 0-.99-.44-.99-.98V14.8h-10v1.25c0 .54-.44.99-.99.99h-1c-.55 0-.99-.44-.99-.98V8.87c0-.41-.34-.74-.75-.74H3.21c-.41 0-.75.33-.75.74v20.16h28V9.06c0-.54-.44-.98-.99-.98h-4.02a.97.97 0 0 0-.99.97Z"/><path fill="url(#paint9_linear_18_7226)" d="M30.41 9.02h-5.89a.49.49 0 0 1-.49-.49v-.01c0-.27.22-.49.49-.49h5.89c.27 0 .49.22.49.49v.01c0 .27-.22.49-.49.49Z"/><path fill="url(#paint10_linear_18_7226)" d="M30.41 9.02h-5.89a.49.49 0 0 1-.49-.49v-.01c0-.27.22-.49.49-.49h5.89c.27 0 .49.22.49.49v.01c0 .27-.22.49-.49.49Z"/><path fill="url(#paint11_linear_18_7226)" d="M30.41 9.02h-5.89a.49.49 0 0 1-.49-.49v-.01c0-.27.22-.49.49-.49h5.89c.27 0 .49.22.49.49v.01c0 .27-.22.49-.49.49Z"/><path fill="url(#paint12_linear_18_7226)" d="M8.39 9.02H2.5a.49.49 0 0 1-.49-.49v-.01c0-.27.22-.49.49-.49h5.89c.27 0 .49.22.49.49v.01c.01.27-.21.49-.49.49Z"/><path fill="url(#paint13_linear_18_7226)" d="M8.39 9.02H2.5a.49.49 0 0 1-.49-.49v-.01c0-.27.22-.49.49-.49h5.89c.27 0 .49.22.49.49v.01c.01.27-.21.49-.49.49Z"/><path fill="url(#paint14_linear_18_7226)" d="M8.39 9.02H2.5a.49.49 0 0 1-.49-.49v-.01c0-.27.22-.49.49-.49h5.89c.27 0 .49.22.49.49v.01c.01.27-.21.49-.49.49Z"/><g filter="url(#filter1_i_18_7226)"><path fill="url(#paint15_linear_18_7226)" d="M6.44 16.03H4.43l.01-2.34c0-.55.67-1.66 1-1.66.34 0 1.01 1.12 1.01 1.67l-.01 2.33Z"/></g><g filter="url(#filter2_i_18_7226)"><path fill="url(#paint16_linear_18_7226)" d="M28.44 16.03h-2.01l.01-2.34c0-.55.67-1.66 1-1.66.34 0 1.01 1.12 1.01 1.67l-.01 2.33Z"/></g><g filter="url(#filter3_i_18_7226)"><path fill="url(#paint17_linear_18_7226)" d="M16.4 19.03c-.99.02-2.95 2.6-2.95 3.97l-.01 6.02h5.97v-6c.01-1.36-1.99-3.98-3.01-3.99Z"/><path fill="url(#paint18_linear_18_7226)" d="M16.4 19.03c-.99.02-2.95 2.6-2.95 3.97l-.01 6.02h5.97v-6c.01-1.36-1.99-3.98-3.01-3.99Z"/></g><g filter="url(#filter4_i_18_7226)"><path fill="url(#paint19_linear_18_7226)" d="M8.47 26.02c0-1.37-1.03-4.01-2.54-3.99-1.46-.02-2.48 2.6-2.48 3.97l.01 3.01h.98v.01h4l.03-3Z"/><path fill="url(#paint20_linear_18_7226)" d="M8.47 26.02c0-1.37-1.03-4.01-2.54-3.99-1.46-.02-2.48 2.6-2.48 3.97l.01 3.01h.98v.01h4l.03-3Z"/></g><g filter="url(#filter5_i_18_7226)"><path fill="url(#paint21_linear_18_7226)" d="M29.45 26.02c0-1.37-1.02-4.01-2.53-3.99-1.45-.02-2.47 2.6-2.47 3.97l-.01 3.02h4.98l.03-3Z"/><path fill="url(#paint22_linear_18_7226)" d="M29.45 26.02c0-1.37-1.02-4.01-2.53-3.99-1.45-.02-2.47 2.6-2.47 3.97l-.01 3.02h4.98l.03-3Z"/></g><path fill="url(#paint23_linear_18_7226)" d="M16.414 4.208a.58.58 0 0 0-.475.278c-.629.958-2.103 1.814-3.261 2.486-.205.119-.4.232-.579.339-.977.585-1.66 1.47-1.66 2.61v2.238a2 2 0 0 0 2 2h8.06a2 2 0 0 0 2-2V9.92c0-1.14-.681-2.025-1.659-2.61-.178-.107-.373-.22-.579-.34-1.157-.67-2.632-1.527-3.26-2.485a.58.58 0 0 0-.476-.278h-.111Z"/><path fill="url(#paint24_radial_18_7226)" d="M16.414 4.208a.58.58 0 0 0-.475.278c-.629.958-2.103 1.814-3.261 2.486-.205.119-.4.232-.579.339-.977.585-1.66 1.47-1.66 2.61v2.238a2 2 0 0 0 2 2h8.06a2 2 0 0 0 2-2V9.92c0-1.14-.681-2.025-1.659-2.61-.178-.107-.373-.22-.579-.34-1.157-.67-2.632-1.527-3.26-2.485a.58.58 0 0 0-.476-.278h-.111Z"/><path fill="url(#paint25_radial_18_7226)" d="M16.414 4.208a.58.58 0 0 0-.475.278c-.629.958-2.103 1.814-3.261 2.486-.205.119-.4.232-.579.339-.977.585-1.66 1.47-1.66 2.61v2.238a2 2 0 0 0 2 2h8.06a2 2 0 0 0 2-2V9.92c0-1.14-.681-2.025-1.659-2.61-.178-.107-.373-.22-.579-.34-1.157-.67-2.632-1.527-3.26-2.485a.58.58 0 0 0-.476-.278h-.111Z"/><path fill="url(#paint26_radial_18_7226)" d="M16.414 4.208a.58.58 0 0 0-.475.278c-.629.958-2.103 1.814-3.261 2.486-.205.119-.4.232-.579.339-.977.585-1.66 1.47-1.66 2.61v2.238a2 2 0 0 0 2 2h8.06a2 2 0 0 0 2-2V9.92c0-1.14-.681-2.025-1.659-2.61-.178-.107-.373-.22-.579-.34-1.157-.67-2.632-1.527-3.26-2.485a.58.58 0 0 0-.476-.278h-.111Z"/><rect width="11.991" height="1.003" x="10.509" y="14.159" fill="url(#paint27_linear_18_7226)" rx=".502"/><rect width="11.991" height="1.003" x="10.509" y="14.159" fill="url(#paint28_linear_18_7226)" rx=".502"/><rect width="11.991" height="1.003" x="10.509" y="14.159" fill="url(#paint29_linear_18_7226)" rx=".502"/><g filter="url(#filter6_f_18_7226)"><path stroke="url(#paint30_linear_18_7226)" stroke-width=".35" d="M10.985 14.537h11.189"/></g><g filter="url(#filter7_f_18_7226)"><path stroke="url(#paint31_linear_18_7226)" stroke-width=".35" d="M24.547 8.525h6.111"/></g><g filter="url(#filter8_f_18_7226)"><path stroke="url(#paint32_linear_18_7226)" stroke-width=".35" d="M2.397 8.525H8.61"/></g><g filter="url(#filter9_f_18_7226)"><path fill="url(#paint33_linear_18_7226)" d="M30.307 7.636c1.066-1.316-.526-3.312-1.053-3.803l.275.862a1 1 0 0 1-.382 1.125l-.985.684h1.097c.467 0 .873.323.975.779.038.169.065.3.073.353Z"/></g><g filter="url(#filter10_f_18_7226)"><ellipse cx="18.58" cy="9.036" fill="url(#paint34_radial_18_7226)" rx="3" ry="1.312"/></g><g filter="url(#filter11_f_18_7226)"><path fill="url(#paint35_linear_18_7226)" d="M8.18 7.636c1.066-1.316-.526-3.312-1.052-3.803l.275.862a1 1 0 0 1-.382 1.125l-.985.684h1.096a1 1 0 0 1 .976.779c.037.169.065.3.073.353Z"/></g><g filter="url(#filter12_f_18_7226)"><path stroke="url(#paint36_linear_18_7226)" stroke-linecap="round" stroke-width=".15" d="M11.532 9.036h9.875"/></g><defs><linearGradient id="paint4_linear_18_7226" x1="17.392" x2="17.392" y1="14.724" y2="30.162" gradientUnits="userSpaceOnUse"><stop stop-color="#BAAFBE"/><stop offset="1" stop-color="#CEC5D4"/></linearGradient><linearGradient id="paint9_linear_18_7226" x1="27.465" x2="27.465" y1="8.03" y2="8.796" gradientUnits="userSpaceOnUse"><stop stop-color="#78482C"/><stop offset="1" stop-color="#6E3F3F"/></linearGradient><linearGradient id="paint10_linear_18_7226" x1="24.03" x2="24.321" y1="8.727" y2="8.727" gradientUnits="userSpaceOnUse"><stop stop-color="#673F38"/><stop offset="1" stop-color="#673F38" stop-opacity="0"/></linearGradient><linearGradient id="paint11_linear_18_7226" x1="30.9" x2="30.66" y1="9.02" y2="9.02" gradientUnits="userSpaceOnUse"><stop stop-color="#8E6962"/><stop offset="1" stop-color="#8E6962" stop-opacity="0"/></linearGradient><linearGradient id="paint12_linear_18_7226" x1="5.445" x2="5.445" y1="8.03" y2="8.796" gradientUnits="userSpaceOnUse"><stop stop-color="#78482C"/><stop offset="1" stop-color="#6E3F3F"/></linearGradient><linearGradient id="paint13_linear_18_7226" x1="2.01" x2="2.301" y1="8.727" y2="8.727" gradientUnits="userSpaceOnUse"><stop stop-color="#673F38"/><stop offset="1" stop-color="#673F38" stop-opacity="0"/></linearGradient><linearGradient id="paint14_linear_18_7226" x1="8.88" x2="8.64" y1="9.02" y2="9.02" gradientUnits="userSpaceOnUse"><stop stop-color="#8E6962"/><stop offset="1" stop-color="#8E6962" stop-opacity="0"/></linearGradient><linearGradient id="paint15_linear_18_7226" x1="4.43" x2="6.45" y1="14.354" y2="14.354" gradientUnits="userSpaceOnUse"><stop stop-color="#332347"/><stop offset="1" stop-color="#3F1C41"/><stop offset="1" stop-color="#371D42"/><stop offset="1" stop-color="#1D112B"/></linearGradient><linearGradient id="paint16_linear_18_7226" x1="26.43" x2="28.45" y1="14.354" y2="14.354" gradientUnits="userSpaceOnUse"><stop stop-color="#332347"/><stop offset="1" stop-color="#3F1C41"/><stop offset="1" stop-color="#371D42"/><stop offset="1" stop-color="#1D112B"/></linearGradient><linearGradient id="paint17_linear_18_7226" x1="13.44" x2="19.41" y1="24.833" y2="24.833" gradientUnits="userSpaceOnUse"><stop stop-color="#4C204C"/><stop offset="1" stop-color="#3F1C41"/><stop offset="1" stop-color="#3C1A3F"/></linearGradient><linearGradient id="paint18_linear_18_7226" x1="13.44" x2="14.289" y1="25.714" y2="25.714" gradientUnits="userSpaceOnUse"><stop stop-color="#512953"/><stop offset="1" stop-color="#512953" stop-opacity="0"/></linearGradient><linearGradient id="paint19_linear_18_7226" x1="3.45" x2="8.47" y1="26.09" y2="26.09" gradientUnits="userSpaceOnUse"><stop stop-color="#45244F"/><stop offset="1" stop-color="#3F1C41"/><stop offset="1" stop-color="#371D42"/></linearGradient><linearGradient id="paint20_linear_18_7226" x1="3.45" x2="4.164" y1="26.707" y2="26.707" gradientUnits="userSpaceOnUse"><stop stop-color="#4D2B55"/><stop offset="1" stop-color="#4D2B55" stop-opacity="0"/></linearGradient><linearGradient id="paint21_linear_18_7226" x1="24.44" x2="29.45" y1="26.09" y2="26.09" gradientUnits="userSpaceOnUse"><stop stop-color="#45244F"/><stop offset="1" stop-color="#3F1C41"/><stop offset="1" stop-color="#371D42"/></linearGradient><linearGradient id="paint22_linear_18_7226" x1="24.44" x2="25.153" y1="26.707" y2="26.707" gradientUnits="userSpaceOnUse"><stop stop-color="#4D2B55"/><stop offset="1" stop-color="#4D2B55" stop-opacity="0"/></linearGradient><linearGradient id="paint23_linear_18_7226" x1="10.768" x2="21.205" y1="12.037" y2="12.037" gradientUnits="userSpaceOnUse"><stop offset=".108" stop-color="#C77047"/><stop offset=".946" stop-color="#FDC939"/></linearGradient><linearGradient id="paint27_linear_18_7226" x1="16.504" x2="16.504" y1="14.159" y2="14.935" gradientUnits="userSpaceOnUse"><stop stop-color="#78482C"/><stop offset="1" stop-color="#6E3F3F"/></linearGradient><linearGradient id="paint28_linear_18_7226" x1="10.509" x2="11.018" y1="14.865" y2="14.865" gradientUnits="userSpaceOnUse"><stop stop-color="#673F38"/><stop offset="1" stop-color="#673F38" stop-opacity="0"/></linearGradient><linearGradient id="paint29_linear_18_7226" x1="22.5" x2="22.08" y1="15.162" y2="15.162" gradientUnits="userSpaceOnUse"><stop stop-color="#8E6962"/><stop offset="1" stop-color="#8E6962" stop-opacity="0"/></linearGradient><linearGradient id="paint30_linear_18_7226" x1="11.776" x2="23.913" y1="14.849" y2="14.849" gradientUnits="userSpaceOnUse"><stop stop-color="#7B5951"/><stop offset="1" stop-color="#845B52"/></linearGradient><linearGradient id="paint31_linear_18_7226" x1="24.937" x2="31.352" y1="318531" y2="318531" gradientUnits="userSpaceOnUse"><stop stop-color="#7B5951"/><stop offset="1" stop-color="#845B52"/></linearGradient><linearGradient id="paint32_linear_18_7226" x1="2.785" x2="9.2" y1="339713" y2="339713" gradientUnits="userSpaceOnUse"><stop stop-color="#7B5951"/><stop offset="1" stop-color="#845B52"/></linearGradient><linearGradient id="paint33_linear_18_7226" x1="31.11" x2="28.57" y1="5.412" y2="6.412" gradientUnits="userSpaceOnUse"><stop stop-color="#FFED67"/><stop offset="1" stop-color="#FFED67" stop-opacity="0"/></linearGradient><linearGradient id="paint35_linear_18_7226" x1="8.983" x2="6.444" y1="5.412" y2="6.412" gradientUnits="userSpaceOnUse"><stop stop-color="#FFED67"/><stop offset="1" stop-color="#FFED67" stop-opacity="0"/></linearGradient><linearGradient id="paint36_linear_18_7226" x1="21.407" x2="13.251" y1="9.036" y2="9.036" gradientUnits="userSpaceOnUse"><stop stop-color="#FFDF6B"/><stop offset="1" stop-color="#EF9B4C"/></linearGradient><filter id="filter0_ii_18_7226" width="29" height="21.15" x="1.96" y="8.08" color-interpolation-filters="sRGB" filterUnits="userSpaceOnUse"><feFlood flood-opacity="0" result="BackgroundImageFix"/><feBlend in="SourceGraphic" in2="BackgroundImageFix" result="shape"/><feColorMatrix in="SourceAlpha" result="hardAlpha" values="0 0 0 0 0 0 0 0 0 0 0 0 0 0 0 0 0 0 127 0"/><feOffset dx=".5" dy=".2"/><feGaussianBlur stdDeviation=".25"/><feComposite in2="hardAlpha" k2="-1" k3="1" operator="arithmetic"/><feColorMatrix values="0 0 0 0 0.490196 0 0 0 0 0.482353 0 0 0 0 0.498039 0 0 0 1 0"/><feBlend in2="shape" result="effect1_innerShadow_18_7226"/><feColorMatrix in="SourceAlpha" result="hardAlpha" values="0 0 0 0 0 0 0 0 0 0 0 0 0 0 0 0 0 0 127 0"/><feOffset dx="-.5" dy=".2"/><feGaussianBlur stdDeviation=".25"/><feComposite in2="hardAlpha" k2="-1" k3="1" operator="arithmetic"/><feColorMatrix values="0 0 0 0 0.937255 0 0 0 0 0.921569 0 0 0 0 0.945098 0 0 0 1 0"/><feBlend in2="effect1_innerShadow_18_7226" result="effect2_innerShadow_18_7226"/></filter><filter id="filter1_i_18_7226" width="2.52" height="4.25" x="3.93" y="12.03" color-interpolation-filters="sRGB" filterUnits="userSpaceOnUse"><feFlood flood-opacity="0" result="BackgroundImageFix"/><feBlend in="SourceGraphic" in2="BackgroundImageFix" result="shape"/><feColorMatrix in="SourceAlpha" result="hardAlpha" values="0 0 0 0 0 0 0 0 0 0 0 0 0 0 0 0 0 0 127 0"/><feOffset dx="-.5" dy=".25"/><feGaussianBlur stdDeviation=".375"/><feComposite in2="hardAlpha" k2="-1" k3="1" operator="arithmetic"/><feColorMatrix values="0 0 0 0 0.145098 0 0 0 0 0.0196078 0 0 0 0 0.160784 0 0 0 1 0"/><feBlend in2="shape" result="effect1_innerShadow_18_7226"/></filter><filter id="filter2_i_18_7226" width="2.52" height="4.25" x="25.93" y="12.03" color-interpolation-filters="sRGB" filterUnits="userSpaceOnUse"><feFlood flood-opacity="0" result="BackgroundImageFix"/><feBlend in="SourceGraphic" in2="BackgroundImageFix" result="shape"/><feColorMatrix in="SourceAlpha" result="hardAlpha" values="0 0 0 0 0 0 0 0 0 0 0 0 0 0 0 0 0 0 127 0"/><feOffset dx="-.5" dy=".25"/><feGaussianBlur stdDeviation=".375"/><feComposite in2="hardAlpha" k2="-1" k3="1" operator="arithmetic"/><feColorMatrix values="0 0 0 0 0.145098 0 0 0 0 0.0196078 0 0 0 0 0.160784 0 0 0 1 0"/><feBlend in2="shape" result="effect1_innerShadow_18_7226"/></filter><filter id="filter3_i_18_7226" width="6.47" height="10.24" x="12.94" y="19.03" color-interpolation-filters="sRGB" filterUnits="userSpaceOnUse"><feFlood flood-opacity="0" result="BackgroundImageFix"/><feBlend in="SourceGraphic" in2="BackgroundImageFix" result="shape"/><feColorMatrix in="SourceAlpha" result="hardAlpha" values="0 0 0 0 0 0 0 0 0 0 0 0 0 0 0 0 0 0 127 0"/><feOffset dx="-.5" dy=".25"/><feGaussianBlur stdDeviation=".375"/><feComposite in2="hardAlpha" k2="-1" k3="1" operator="arithmetic"/><feColorMatrix values="0 0 0 0 0.145098 0 0 0 0 0.0196078 0 0 0 0 0.160784 0 0 0 1 0"/><feBlend in2="shape" result="effect1_innerShadow_18_7226"/></filter><filter id="filter4_i_18_7226" width="5.52" height="7.24" x="2.95" y="22.03" color-interpolation-filters="sRGB" filterUnits="userSpaceOnUse"><feFlood flood-opacity="0" result="BackgroundImageFix"/><feBlend in="SourceGraphic" in2="BackgroundImageFix" result="shape"/><feColorMatrix in="SourceAlpha" result="hardAlpha" values="0 0 0 0 0 0 0 0 0 0 0 0 0 0 0 0 0 0 127 0"/><feOffset dx="-.5" dy=".25"/><feGaussianBlur stdDeviation=".375"/><feComposite in2="hardAlpha" k2="-1" k3="1" operator="arithmetic"/><feColorMatrix values="0 0 0 0 0.145098 0 0 0 0 0.0196078 0 0 0 0 0.160784 0 0 0 1 0"/><feBlend in2="shape" result="effect1_innerShadow_18_7226"/></filter><filter id="filter5_i_18_7226" width="5.51" height="7.24" x="23.94" y="22.03" color-interpolation-filters="sRGB" filterUnits="userSpaceOnUse"><feFlood flood-opacity="0" result="BackgroundImageFix"/><feBlend in="SourceGraphic" in2="BackgroundImageFix" result="shape"/><feColorMatrix in="SourceAlpha" result="hardAlpha" values="0 0 0 0 0 0 0 0 0 0 0 0 0 0 0 0 0 0 127 0"/><feOffset dx="-.5" dy=".25"/><feGaussianBlur stdDeviation=".375"/><feComposite in2="hardAlpha" k2="-1" k3="1" operator="arithmetic"/><feColorMatrix values="0 0 0 0 0.145098 0 0 0 0 0.0196078 0 0 0 0 0.160784 0 0 0 1 0"/><feBlend in2="shape" result="effect1_innerShadow_18_7226"/></filter><filter id="filter6_f_18_7226" width="11.888" height="1.05" x="10.635" y="14.012" color-interpolation-filters="sRGB" filterUnits="userSpaceOnUse"><feFlood flood-opacity="0" result="BackgroundImageFix"/><feBlend in="SourceGraphic" in2="BackgroundImageFix" result="shape"/><feGaussianBlur result="effect1_foregroundBlur_18_7226" stdDeviation=".175"/></filter><filter id="filter7_f_18_7226" width="6.811" height="1.05" x="24.197" y="8" color-interpolation-filters="sRGB" filterUnits="userSpaceOnUse"><feFlood flood-opacity="0" result="BackgroundImageFix"/><feBlend in="SourceGraphic" in2="BackgroundImageFix" result="shape"/><feGaussianBlur result="effect1_foregroundBlur_18_7226" stdDeviation=".175"/></filter><filter id="filter8_f_18_7226" width="6.912" height="1.05" x="2.047" y="8" color-interpolation-filters="sRGB" filterUnits="userSpaceOnUse"><feFlood flood-opacity="0" result="BackgroundImageFix"/><feBlend in="SourceGraphic" in2="BackgroundImageFix" result="shape"/><feGaussianBlur result="effect1_foregroundBlur_18_7226" stdDeviation=".175"/></filter><filter id="filter9_f_18_7226" width="3.504" height="4.803" x="27.662" y="3.333" color-interpolation-filters="sRGB" filterUnits="userSpaceOnUse"><feFlood flood-opacity="0" result="BackgroundImageFix"/><feBlend in="SourceGraphic" in2="BackgroundImageFix" result="shape"/><feGaussianBlur result="effect1_foregroundBlur_18_7226" stdDeviation=".25"/></filter><filter id="filter10_f_18_7226" width="9" height="5.623" x="14.08" y="6.224" color-interpolation-filters="sRGB" filterUnits="userSpaceOnUse"><feFlood flood-opacity="0" result="BackgroundImageFix"/><feBlend in="SourceGraphic" in2="BackgroundImageFix" result="shape"/><feGaussianBlur result="effect1_foregroundBlur_18_7226" stdDeviation=".75"/></filter><filter id="filter11_f_18_7226" width="3.504" height="4.803" x="5.536" y="3.333" color-interpolation-filters="sRGB" filterUnits="userSpaceOnUse"><feFlood flood-opacity="0" result="BackgroundImageFix"/><feBlend in="SourceGraphic" in2="BackgroundImageFix" result="shape"/><feGaussianBlur result="effect1_foregroundBlur_18_7226" stdDeviation=".25"/></filter><filter id="filter12_f_18_7226" width="12.025" height="2.15" x="10.457" y="7.961" color-interpolation-filters="sRGB" filterUnits="userSpaceOnUse"><feFlood flood-opacity="0" result="BackgroundImageFix"/><feBlend in="SourceGraphic" in2="BackgroundImageFix" result="shape"/><feGaussianBlur result="effect1_foregroundBlur_18_7226" stdDeviation=".5"/></filter><radialGradient id="paint0_radial_18_7226" cx="0" cy="0" r="1" gradientTransform="matrix(-5.125 2 -2.62046 -6.7149 29.83 5.224)" gradientUnits="userSpaceOnUse"><stop offset=".43" stop-color="#FEBB4A"/><stop offset="1" stop-color="#C86B37"/></radialGradient><radialGradient id="paint1_radial_18_7226" cx="0" cy="0" r="1" gradientTransform="matrix(-2.58067 2.80263 -.57497 -.52943 26.53 2.333)" gradientUnits="userSpaceOnUse"><stop offset=".269" stop-color="#C99055"/><stop offset="1" stop-color="#C99055" stop-opacity="0"/></radialGradient><radialGradient id="paint2_radial_18_7226" cx="0" cy="0" r="1" gradientTransform="matrix(-5.125 2 -2.62046 -6.7149 7.704 5.224)" gradientUnits="userSpaceOnUse"><stop offset=".43" stop-color="#FEBB4A"/><stop offset="1" stop-color="#C86B37"/></radialGradient><radialGradient id="paint3_radial_18_7226" cx="0" cy="0" r="1" gradientTransform="matrix(-2.58067 2.80263 -.57497 -.52943 4.404 2.333)" gradientUnits="userSpaceOnUse"><stop offset=".269" stop-color="#C99055"/><stop offset="1" stop-color="#C99055" stop-opacity="0"/></radialGradient><radialGradient id="paint5_radial_18_7226" cx="0" cy="0" r="1" gradientTransform="matrix(-.68761 14.12497 -3.296 -.16045 9.268 10.662)" gradientUnits="userSpaceOnUse"><stop offset=".119" stop-color="#ACA2AE"/><stop offset="1" stop-color="#ACA2AE" stop-opacity="0"/></radialGradient><radialGradient id="paint6_radial_18_7226" cx="0" cy="0" r="1" gradientTransform="matrix(-5.875 5.00001 -2.10193 -2.46976 28.611 6.662)" gradientUnits="userSpaceOnUse"><stop offset=".341" stop-color="#766173"/><stop offset="1" stop-color="#766173" stop-opacity="0"/></radialGradient><radialGradient id="paint7_radial_18_7226" cx="0" cy="0" r="1" gradientTransform="rotate(146.31 2.5 4.564) scale(7.09843 2.98408)" gradientUnits="userSpaceOnUse"><stop offset=".397" stop-color="#766173"/><stop offset="1" stop-color="#766173" stop-opacity="0"/></radialGradient><radialGradient id="paint8_radial_18_7226" cx="0" cy="0" r="1" gradientTransform="rotate(166.065 7.666 7.933) scale(8.56455 3.65242)" gradientUnits="userSpaceOnUse"><stop offset=".333" stop-color="#766173"/><stop offset="1" stop-color="#766173" stop-opacity="0"/></radialGradient><radialGradient id="paint24_radial_18_7226" cx="0" cy="0" r="1" gradientTransform="rotate(134.326 6.574 5.577) scale(2.81757 1.52718)" gradientUnits="userSpaceOnUse"><stop offset=".178" stop-color="#BB8A5D"/><stop offset="1" stop-color="#BB8A5D" stop-opacity="0"/></radialGradient><radialGradient id="paint25_radial_18_7226" cx="0" cy="0" r="1" gradientTransform="matrix(0 -1.57469 7.6415 0 16.47 14.861)" gradientUnits="userSpaceOnUse"><stop offset=".222" stop-color="#744416"/><stop offset="1" stop-color="#744416" stop-opacity="0"/></radialGradient><radialGradient id="paint26_radial_18_7226" cx="0" cy="0" r="1" gradientTransform="matrix(0 2.25 -1.4375 0 22.861 9.85)" gradientUnits="userSpaceOnUse"><stop offset=".111" stop-color="#B8964B"/><stop offset="1" stop-color="#B8964B" stop-opacity="0"/></radialGradient><radialGradient id="paint34_radial_18_7226" cx="0" cy="0" r="1" gradientTransform="matrix(-6.65455 0 0 -.5616 21.29 9.036)" gradientUnits="userSpaceOnUse"><stop offset=".069" stop-color="#FFE262"/><stop offset="1" stop-color="#FFE262" stop-opacity="0"/></radialGradient></defs></svg>