<svg xmlns="http://www.w3.org/2000/svg" width="32" height="32" fill="none" viewBox="0 0 32 32"><path fill="#4B3234" d="M18.512 5.965a2.09 2.09 0 0 1 2.01 1.517c.8 2.322 2.25 5.628 3.327 7.123.19-.493.328-1.11.388-1.652.021-.188.153-1.41.337-1.956.22-.658.677-1.225 1.363-1.446 1.117-.36 2.33.3 2.71 1.477.035.108.062.217.08.326.131.559.04 1.073-.013 1.412a60.98 60.98 0 0 0-.36 2.625 19.61 19.61 0 0 0 .126 4.78c.3 1.413.218 2.912.14 3.485-.86 6.31-7.847 6.782-9.812 5.85-1.34-.434-2.759-1.47-4.711-3.467-2.283-2.335-4.368-4.906-5.528-6.644a2.067 2.067 0 0 1 2.276-3.216c-.377-.734-.681-1.376-.918-2.086a2.067 2.067 0 0 1 3.534-2.007c-.12-.267-.835-2.032-.96-2.855a2.09 2.09 0 0 1 6.01-3.266Z"/><path fill="url(#paint0_radial_20020_1160)" d="M18.512 5.965a2.09 2.09 0 0 1 2.01 1.517c.8 2.322 2.25 5.628 3.327 7.123.19-.493.328-1.11.388-1.652.021-.188.153-1.41.337-1.956.22-.658.677-1.225 1.363-1.446 1.117-.36 2.33.3 2.71 1.477.035.108.062.217.08.326.131.559.04 1.073-.013 1.412a60.98 60.98 0 0 0-.36 2.625 19.61 19.61 0 0 0 .126 4.78c.3 1.413.218 2.912.14 3.485-.86 6.31-7.847 6.782-9.812 5.85-1.34-.434-2.759-1.47-4.711-3.467-2.283-2.335-4.368-4.906-5.528-6.644a2.067 2.067 0 0 1 2.276-3.216c-.377-.734-.681-1.376-.918-2.086a2.067 2.067 0 0 1 3.534-2.007c-.12-.267-.835-2.032-.96-2.855a2.09 2.09 0 0 1 6.01-3.266Z"/><path fill="url(#paint1_radial_20020_1160)" d="M16.423 8.028c.028.248.101.566.25.956.066.17.145.388.239.643.444 1.22 1.206 3.308 2.25 5.21.393.717 1.11 1.22 1.927 1.182 1.075-.05 2.312-.405 2.785-1.464l-.003-.01-.023.06c-1.076-1.495-2.527-4.8-3.327-7.123a2.09 2.09 0 0 0-4.098.546Z"/><path fill="url(#paint2_radial_20020_1160)" d="M16.423 8.028c.028.248.101.566.25.956.066.17.145.388.239.643.444 1.22 1.206 3.308 2.25 5.21.393.717 1.11 1.22 1.927 1.182 1.075-.05 2.312-.405 2.785-1.464l-.003-.01-.023.06c-1.076-1.495-2.527-4.8-3.327-7.123a2.09 2.09 0 0 0-4.098.546Z"/><path fill="url(#paint3_linear_20020_1160)" d="M16.423 8.028c.028.248.101.566.25.956.066.17.145.388.239.643.444 1.22 1.206 3.308 2.25 5.21.393.717 1.11 1.22 1.927 1.182 1.075-.05 2.312-.405 2.785-1.464l-.003-.01-.023.06c-1.076-1.495-2.527-4.8-3.327-7.123a2.09 2.09 0 0 0-4.098.546Z"/><path fill="url(#paint4_linear_20020_1160)" d="M16.423 8.028c.028.248.101.566.25.956.066.17.145.388.239.643.444 1.22 1.206 3.308 2.25 5.21.393.717 1.11 1.22 1.927 1.182 1.075-.05 2.312-.405 2.785-1.464l-.003-.01-.023.06c-1.076-1.495-2.527-4.8-3.327-7.123a2.09 2.09 0 0 0-4.098.546Z"/><path fill="url(#paint5_radial_20020_1160)" d="M16.423 8.028c.028.248.101.566.25.956.066.17.145.388.239.643.444 1.22 1.206 3.308 2.25 5.21.393.717 1.11 1.22 1.927 1.182 1.075-.05 2.312-.405 2.785-1.464l-.003-.01-.023.06c-1.076-1.495-2.527-4.8-3.327-7.123a2.09 2.09 0 0 0-4.098.546Z"/><g filter="url(#filter0_f_20020_1160)"><path fill="#604C4A" d="M14.105 22.66a53.777 53.777 0 0 1-3.513-4.32.696.696 0 0 1 .14-.952.721.721 0 0 1 1.01.112l2.504 3.112c.012.9-.089 1.74-.14 2.047Z"/></g><g filter="url(#filter1_f_20020_1160)"><path stroke="url(#paint6_linear_20020_1160)" stroke-linecap="round" d="M15.366 8.25c.323 1.125 1.76 5.365 3.282 7.797"/></g><g filter="url(#filter2_f_20020_1160)"><path stroke="url(#paint7_linear_20020_1160)" stroke-linecap="round" stroke-width=".7" d="M20.507 10.203c.344.802 1.169 2.91 2.344 4.61"/></g><path fill="url(#paint8_radial_20020_1160)" d="M9.93 14.093a2.067 2.067 0 0 1 3.514-2.03c1.036 2.085 2.31 4.518 3.278 5.937-1.23 1.672-1.526 2.516-1.782 3.234-.78-1.088-2.415-3.304-3-4.047-.313-.397-.695-.906-1.09-1.007a13.097 13.097 0 0 1-.92-2.087Z"/><path fill="url(#paint9_radial_20020_1160)" d="M9.93 14.093a2.067 2.067 0 0 1 3.514-2.03c1.036 2.085 2.31 4.518 3.278 5.937-1.23 1.672-1.526 2.516-1.782 3.234-.78-1.088-2.415-3.304-3-4.047-.313-.397-.695-.906-1.09-1.007a13.097 13.097 0 0 1-.92-2.087Z"/><path fill="url(#paint10_radial_20020_1160)" d="M9.93 14.093a2.067 2.067 0 0 1 3.514-2.03c1.036 2.085 2.31 4.518 3.278 5.937-1.23 1.672-1.526 2.516-1.782 3.234-.78-1.088-2.415-3.304-3-4.047-.313-.397-.695-.906-1.09-1.007a13.097 13.097 0 0 1-.92-2.087Z"/><path fill="url(#paint11_radial_20020_1160)" d="M9.93 14.093a2.067 2.067 0 0 1 3.514-2.03c1.036 2.085 2.31 4.518 3.278 5.937-1.23 1.672-1.526 2.516-1.782 3.234-.78-1.088-2.415-3.304-3-4.047-.313-.397-.695-.906-1.09-1.007a13.097 13.097 0 0 1-.92-2.087Z"/><path fill="url(#paint12_linear_20020_1160)" d="M9.93 14.093a2.067 2.067 0 0 1 3.514-2.03c1.036 2.085 2.31 4.518 3.278 5.937-1.23 1.672-1.526 2.516-1.782 3.234-.78-1.088-2.415-3.304-3-4.047-.313-.397-.695-.906-1.09-1.007a13.097 13.097 0 0 1-.92-2.087Z"/><g filter="url(#filter3_f_20020_1160)"><path fill="url(#paint13_linear_20020_1160)" d="M15.543 19.266c-1.7-2.814-2.796-4.85-3.41-5.897a.577.577 0 0 1 .167-.768.555.555 0 0 1 .792.182l1.37 2.378 1.686 3.058c-.188.5-.407.89-.605 1.047Z"/></g><path fill="url(#paint14_radial_20020_1160)" d="m23.844 14.6.005.005c.19-.493.328-1.11.388-1.652l.002-.018c.027-.238.156-1.407.335-1.938.22-.658.677-1.225 1.363-1.446 1.117-.36 2.33.3 2.71 1.477.035.108.062.217.08.326.126.538.047 1.034-.007 1.373l-.006.039a60.963 60.963 0 0 0-.36 2.625c-.093.9-.153 2.327.021 3.966-2.27.437-3.665-.998-4.136-1.826-.508-.895-.613-2.597-.395-2.932Z"/><path fill="url(#paint15_radial_20020_1160)" d="m23.844 14.6.005.005c.19-.493.328-1.11.388-1.652l.002-.018c.027-.238.156-1.407.335-1.938.22-.658.677-1.225 1.363-1.446 1.117-.36 2.33.3 2.71 1.477.035.108.062.217.08.326.126.538.047 1.034-.007 1.373l-.006.039a60.963 60.963 0 0 0-.36 2.625c-.093.9-.153 2.327.021 3.966-2.27.437-3.665-.998-4.136-1.826-.508-.895-.613-2.597-.395-2.932Z"/><path fill="url(#paint16_radial_20020_1160)" d="m23.844 14.6.005.005c.19-.493.328-1.11.388-1.652l.002-.018c.027-.238.156-1.407.335-1.938.22-.658.677-1.225 1.363-1.446 1.117-.36 2.33.3 2.71 1.477.035.108.062.217.08.326.126.538.047 1.034-.007 1.373l-.006.039a60.963 60.963 0 0 0-.36 2.625c-.093.9-.153 2.327.021 3.966-2.27.437-3.665-.998-4.136-1.826-.508-.895-.613-2.597-.395-2.932Z"/><g filter="url(#filter4_f_20020_1160)"><ellipse cx="27.53" cy="11.086" fill="url(#paint17_radial_20020_1160)" rx=".773" ry="1.106" transform="rotate(-29.74 27.53 11.086)"/></g><g filter="url(#filter5_f_20020_1160)"><path fill="#513939" d="M27.53 19.25a4.504 4.504 0 0 1-3.5-4.063c-.468.209-1 1.86-.64 2.97.703 2.17 2.984 2.822 3.61 2.843l.53-1.75Z"/></g><g filter="url(#filter6_f_20020_1160)"><path fill="url(#paint18_radial_20020_1160)" d="M24.211 16.702c.506.759 2.302 1.622 3.405 1.86.459 1.22 1.22 6.813-2.156 9.032.785-1.375 1.335-6.449-1.249-10.892Z"/></g><path fill="url(#paint19_radial_20020_1160)" d="M13.36 11.847c.745 1.6 1.672 3.594 2.832 5.314.208.308.58.465.925.326a5.188 5.188 0 0 0 2.046-1.543c.239-.296.231-.71.045-1.042-.842-1.504-2.042-4.165-2.798-6.875A2.067 2.067 0 0 0 12.5 9.23c.105.689.623 2.037.86 2.616Z"/><path fill="url(#paint20_radial_20020_1160)" d="M13.36 11.847c.745 1.6 1.672 3.594 2.832 5.314.208.308.58.465.925.326a5.188 5.188 0 0 0 2.046-1.543c.239-.296.231-.71.045-1.042-.842-1.504-2.042-4.165-2.798-6.875A2.067 2.067 0 0 0 12.5 9.23c.105.689.623 2.037.86 2.616Z"/><path fill="url(#paint21_linear_20020_1160)" d="M13.36 11.847c.745 1.6 1.672 3.594 2.832 5.314.208.308.58.465.925.326a5.188 5.188 0 0 0 2.046-1.543c.239-.296.231-.71.045-1.042-.842-1.504-2.042-4.165-2.798-6.875A2.067 2.067 0 0 0 12.5 9.23c.105.689.623 2.037.86 2.616Z"/><g filter="url(#filter7_f_20020_1160)"><path stroke="#5B4847" stroke-linecap="round" stroke-opacity=".5" stroke-width=".75" d="M18.241 16.714c.27-.196.559-.414.938-.84"/></g><path fill="url(#paint22_radial_20020_1160)" d="M10.845 16.18a2.067 2.067 0 0 0-2.276 3.216c1.003 1.503 2.699 3.628 4.615 5.686 2.378-1.114 2.167-3.379 1.761-3.86-.008.021-2.025-2.79-3.004-4.035l-.05-.062c-.303-.386-.666-.849-1.04-.945-.144-.265-.146-.273-.006 0Z"/><g filter="url(#filter8_f_20020_1160)"><path fill="#452D2B" d="M13.881 22.348a.5.5 0 1 0 .97.242l-.97-.242Zm8.428-6.446a.5.5 0 0 0-.135-.991l.135.99ZM14.85 22.59c.279-1.113 1.361-2.689 2.823-4.062 1.459-1.37 3.177-2.428 4.635-2.626l-.135-.991c-1.761.24-3.667 1.463-5.185 2.889-1.516 1.424-2.76 3.16-3.108 4.547l.97.243Z"/></g><g filter="url(#filter9_f_20020_1160)"><path stroke="url(#paint23_linear_20020_1160)" stroke-linecap="round" d="M19.179 7.156c.531 2.282 2.516 6.078 3.672 7.86"/></g><g stroke-linecap="round" stroke-width=".9" filter="url(#filter10_i_20020_1160)"><path stroke="#1B99E7" d="M20.179 2.395c1.758.125 4.64 1.597 4.547 5.363"/><path stroke="url(#paint24_radial_20020_1160)" d="M20.179 2.395c1.758.125 4.64 1.597 4.547 5.363"/></g><g stroke-linecap="round" stroke-width=".9" filter="url(#filter11_i_20020_1160)"><path stroke="#1B99E7" d="M18.007 3.973c1.75.058 5.015 1.574 4.898 5.62"/><path stroke="url(#paint25_radial_20020_1160)" d="M18.007 3.973c1.75.058 5.015 1.574 4.898 5.62"/></g><path stroke="url(#paint26_linear_20020_1160)" stroke-linecap="round" stroke-width=".9" d="M3.745 15.96c-.2 2.47 1.192 5.22 4.676 5.798"/><path stroke="url(#paint27_radial_20020_1160)" stroke-linecap="round" stroke-width=".9" d="M3.745 15.96c-.2 2.47 1.192 5.22 4.676 5.798"/><path stroke="url(#paint28_linear_20020_1160)" stroke-linecap="round" stroke-width=".9" d="M1.835 17.828c-.234 2.469 1.398 4.985 4.461 5.399"/><path stroke="url(#paint29_radial_20020_1160)" stroke-linecap="round" stroke-width=".9" d="M1.835 17.828c-.234 2.469 1.398 4.985 4.461 5.399"/><defs><radialGradient id="paint0_radial_20020_1160" cx="0" cy="0" r="1" gradientTransform="rotate(99.083 5.427 16.945) scale(15.8773 17.7696)" gradientUnits="userSpaceOnUse"><stop offset=".788" stop-color="#3F233B" stop-opacity="0"/><stop offset="1" stop-color="#3F233B"/></radialGradient><radialGradient id="paint1_radial_20020_1160" cx="0" cy="0" r="1" gradientTransform="rotate(156.037 10.128 7.893) scale(4.10207 8.61847)" gradientUnits="userSpaceOnUse"><stop offset=".719" stop-color="#41292D" stop-opacity="0"/><stop offset="1" stop-color="#41292D"/></radialGradient><radialGradient id="paint2_radial_20020_1160" cx="0" cy="0" r="1" gradientTransform="rotate(154.952 10.073 8.005) scale(5.1506 12.9593)" gradientUnits="userSpaceOnUse"><stop offset=".769" stop-color="#251011" stop-opacity="0"/><stop offset="1" stop-color="#251011"/></radialGradient><radialGradient id="paint5_radial_20020_1160" cx="0" cy="0" r="1" gradientTransform="rotate(-127.591 15.536 1.438) scale(3.72686 .79712)" gradientUnits="userSpaceOnUse"><stop stop-color="#33211E"/><stop offset="1" stop-color="#33211E" stop-opacity="0"/></radialGradient><radialGradient id="paint8_radial_20020_1160" cx="0" cy="0" r="1" gradientTransform="rotate(146.452 5.35 9.999) scale(3.50589 9.38314)" gradientUnits="userSpaceOnUse"><stop offset=".425" stop-color="#442A2F" stop-opacity="0"/><stop offset="1" stop-color="#442A2F"/></radialGradient><radialGradient id="paint9_radial_20020_1160" cx="0" cy="0" r="1" gradientTransform="matrix(-3.875 2.43748 -6.52366 -10.37103 15.335 15.375)" gradientUnits="userSpaceOnUse"><stop offset=".625" stop-color="#281514" stop-opacity="0"/><stop offset="1" stop-color="#281514"/></radialGradient><radialGradient id="paint10_radial_20020_1160" cx="0" cy="0" r="1" gradientTransform="matrix(1.91976 -1.10636 7.0028 12.15125 13.369 16.294)" gradientUnits="userSpaceOnUse"><stop offset=".504" stop-color="#432A27" stop-opacity="0"/><stop offset="1" stop-color="#432A27"/></radialGradient><radialGradient id="paint11_radial_20020_1160" cx="0" cy="0" r="1" gradientTransform="rotate(144.162 5.423 9.9) scale(2.08159 5.91681)" gradientUnits="userSpaceOnUse"><stop stop-color="#251011"/><stop offset="1" stop-color="#251011" stop-opacity="0"/></radialGradient><radialGradient id="paint14_radial_20020_1160" cx="0" cy="0" r="1" gradientTransform="matrix(1.125 -5.14062 2.21896 .48561 24.898 17.688)" gradientUnits="userSpaceOnUse"><stop stop-color="#4E3537"/><stop offset="1" stop-color="#492F33" stop-opacity="0"/></radialGradient><radialGradient id="paint15_radial_20020_1160" cx="0" cy="0" r="1" gradientTransform="matrix(1.04687 .10937 -.38691 3.7033 24.179 11.406)" gradientUnits="userSpaceOnUse"><stop stop-color="#261514"/><stop offset="1" stop-color="#261514" stop-opacity="0"/></radialGradient><radialGradient id="paint16_radial_20020_1160" cx="0" cy="0" r="1" gradientTransform="rotate(-115.643 19.846 -.687) scale(8.26823 5.73683)" gradientUnits="userSpaceOnUse"><stop offset=".882" stop-color="#261514" stop-opacity="0"/><stop offset="1" stop-color="#261514"/></radialGradient><radialGradient id="paint17_radial_20020_1160" cx="0" cy="0" r="1" gradientTransform="matrix(-1.69946 .39095 -.54292 -2.3601 28.15 11.09)" gradientUnits="userSpaceOnUse"><stop stop-color="#64504E"/><stop offset="1" stop-color="#64504E" stop-opacity="0"/></radialGradient><radialGradient id="paint18_radial_20020_1160" cx="0" cy="0" r="1" gradientTransform="rotate(113.948 8.319 18.789) scale(12.2413 6.11907)" gradientUnits="userSpaceOnUse"><stop stop-color="#644F4E"/><stop offset="1" stop-color="#644F4E" stop-opacity="0"/></radialGradient><radialGradient id="paint19_radial_20020_1160" cx="0" cy="0" r="1" gradientTransform="rotate(149.63 7.49 8.611) scale(4.56712 10.8103)" gradientUnits="userSpaceOnUse"><stop offset=".701" stop-color="#251011" stop-opacity="0"/><stop offset="1" stop-color="#251011"/></radialGradient><radialGradient id="paint20_radial_20020_1160" cx="0" cy="0" r="1" gradientTransform="rotate(155.037 8.086 8.1) scale(1.99927 7.66345)" gradientUnits="userSpaceOnUse"><stop stop-color="#251011"/><stop offset="1" stop-color="#251011" stop-opacity="0"/></radialGradient><radialGradient id="paint22_radial_20020_1160" cx="0" cy="0" r="1" gradientTransform="matrix(-1.15624 .96876 -3.28463 -3.9203 13.679 18.313)" gradientUnits="userSpaceOnUse"><stop stop-color="#251011"/><stop offset="1" stop-color="#251011" stop-opacity="0"/></radialGradient><radialGradient id="paint24_radial_20020_1160" cx="0" cy="0" r="1" gradientTransform="matrix(1.54687 -1.53125 3.91781 3.95778 22.21 5.234)" gradientUnits="userSpaceOnUse"><stop stop-color="#16579C"/><stop offset=".744" stop-color="#16579C" stop-opacity="0"/></radialGradient><radialGradient id="paint25_radial_20020_1160" cx="0" cy="0" r="1" gradientTransform="matrix(1.6667 -1.60486 4.1034 4.26156 20.196 6.949)" gradientUnits="userSpaceOnUse"><stop stop-color="#16579C"/><stop offset=".862" stop-color="#16579C" stop-opacity="0"/></radialGradient><radialGradient id="paint27_radial_20020_1160" cx="0" cy="0" r="1" gradientTransform="rotate(164.814 1.53 9.658) scale(2.26665 6.09358)" gradientUnits="userSpaceOnUse"><stop offset=".706" stop-color="#0E5196" stop-opacity="0"/><stop offset="1" stop-color="#0E5196"/></radialGradient><radialGradient id="paint29_radial_20020_1160" cx="0" cy="0" r="1" gradientTransform="matrix(-2.08905 .55293 -1.45444 -5.4951 3.543 20.265)" gradientUnits="userSpaceOnUse"><stop offset=".706" stop-color="#0E5196" stop-opacity="0"/><stop offset="1" stop-color="#0E5196"/></radialGradient><filter id="filter0_f_20020_1160" width="5.285" height="6.928" x="9.712" y="16.481" color-interpolation-filters="sRGB" filterUnits="userSpaceOnUse"><feFlood flood-opacity="0" result="BackgroundImageFix"/><feBlend in="SourceGraphic" in2="BackgroundImageFix" result="shape"/><feGaussianBlur result="effect1_foregroundBlur_20020_1160" stdDeviation=".375"/></filter><filter id="filter1_f_20020_1160" width="6.281" height="10.797" x="13.866" y="6.75" color-interpolation-filters="sRGB" filterUnits="userSpaceOnUse"><feFlood flood-opacity="0" result="BackgroundImageFix"/><feBlend in="SourceGraphic" in2="BackgroundImageFix" result="shape"/><feGaussianBlur result="effect1_foregroundBlur_20020_1160" stdDeviation=".5"/></filter><filter id="filter2_f_20020_1160" width="4.444" height="6.709" x="19.457" y="9.153" color-interpolation-filters="sRGB" filterUnits="userSpaceOnUse"><feFlood flood-opacity="0" result="BackgroundImageFix"/><feBlend in="SourceGraphic" in2="BackgroundImageFix" result="shape"/><feGaussianBlur result="effect1_foregroundBlur_20020_1160" stdDeviation=".35"/></filter><filter id="filter3_f_20020_1160" width="5.695" height="8.36" x="11.253" y="11.705" color-interpolation-filters="sRGB" filterUnits="userSpaceOnUse"><feFlood flood-opacity="0" result="BackgroundImageFix"/><feBlend in="SourceGraphic" in2="BackgroundImageFix" result="shape"/><feGaussianBlur result="effect1_foregroundBlur_20020_1160" stdDeviation=".4"/></filter><filter id="filter4_f_20020_1160" width="2.735" height="3.069" x="26.163" y="9.551" color-interpolation-filters="sRGB" filterUnits="userSpaceOnUse"><feFlood flood-opacity="0" result="BackgroundImageFix"/><feBlend in="SourceGraphic" in2="BackgroundImageFix" result="shape"/><feGaussianBlur result="effect1_foregroundBlur_20020_1160" stdDeviation=".25"/></filter><filter id="filter5_f_20020_1160" width="6.259" height="7.813" x="22.272" y="14.188" color-interpolation-filters="sRGB" filterUnits="userSpaceOnUse"><feFlood flood-opacity="0" result="BackgroundImageFix"/><feBlend in="SourceGraphic" in2="BackgroundImageFix" result="shape"/><feGaussianBlur result="effect1_foregroundBlur_20020_1160" stdDeviation=".5"/></filter><filter id="filter6_f_20020_1160" width="6.88" height="14" x="22.648" y="15.094" color-interpolation-filters="sRGB" filterUnits="userSpaceOnUse"><feFlood flood-opacity="0" result="BackgroundImageFix"/><feBlend in="SourceGraphic" in2="BackgroundImageFix" result="shape"/><feGaussianBlur result="effect1_foregroundBlur_20020_1160" stdDeviation=".75"/></filter><filter id="filter7_f_20020_1160" width="2.688" height="2.59" x="17.366" y="14.999" color-interpolation-filters="sRGB" filterUnits="userSpaceOnUse"><feFlood flood-opacity="0" result="BackgroundImageFix"/><feBlend in="SourceGraphic" in2="BackgroundImageFix" result="shape"/><feGaussianBlur result="effect1_foregroundBlur_20020_1160" stdDeviation=".25"/></filter><filter id="filter8_f_20020_1160" width="11.875" height="11.063" x="12.366" y="13.406" color-interpolation-filters="sRGB" filterUnits="userSpaceOnUse"><feFlood flood-opacity="0" result="BackgroundImageFix"/><feBlend in="SourceGraphic" in2="BackgroundImageFix" result="shape"/><feGaussianBlur result="effect1_foregroundBlur_20020_1160" stdDeviation=".75"/></filter><filter id="filter9_f_20020_1160" width="7.072" height="11.259" x="17.479" y="5.456" color-interpolation-filters="sRGB" filterUnits="userSpaceOnUse"><feFlood flood-opacity="0" result="BackgroundImageFix"/><feBlend in="SourceGraphic" in2="BackgroundImageFix" result="shape"/><feGaussianBlur result="effect1_foregroundBlur_20020_1160" stdDeviation=".6"/></filter><filter id="filter10_i_20020_1160" width="5.549" height="6.363" x="19.729" y="1.844" color-interpolation-filters="sRGB" filterUnits="userSpaceOnUse"><feFlood flood-opacity="0" result="BackgroundImageFix"/><feBlend in="SourceGraphic" in2="BackgroundImageFix" result="shape"/><feColorMatrix in="SourceAlpha" result="hardAlpha" values="0 0 0 0 0 0 0 0 0 0 0 0 0 0 0 0 0 0 127 0"/><feOffset dx=".1" dy="-.1"/><feGaussianBlur stdDeviation=".25"/><feComposite in2="hardAlpha" k2="-1" k3="1" operator="arithmetic"/><feColorMatrix values="0 0 0 0 0.0823529 0 0 0 0 0.337255 0 0 0 0 0.627451 0 0 0 1 0"/><feBlend in2="shape" result="effect1_innerShadow_20020_1160"/></filter><filter id="filter11_i_20020_1160" width="5.902" height="6.621" x="17.557" y="3.423" color-interpolation-filters="sRGB" filterUnits="userSpaceOnUse"><feFlood flood-opacity="0" result="BackgroundImageFix"/><feBlend in="SourceGraphic" in2="BackgroundImageFix" result="shape"/><feColorMatrix in="SourceAlpha" result="hardAlpha" values="0 0 0 0 0 0 0 0 0 0 0 0 0 0 0 0 0 0 127 0"/><feOffset dx=".1" dy="-.1"/><feGaussianBlur stdDeviation=".25"/><feComposite in2="hardAlpha" k2="-1" k3="1" operator="arithmetic"/><feColorMatrix values="0 0 0 0 0.0823529 0 0 0 0 0.337255 0 0 0 0 0.627451 0 0 0 1 0"/><feBlend in2="shape" result="effect1_innerShadow_20020_1160"/></filter><linearGradient id="paint3_linear_20020_1160" x1="19.913" x2="19.506" y1="16.433" y2="14.328" gradientUnits="userSpaceOnUse"><stop stop-color="#4B3234"/><stop offset="1" stop-color="#4B3234" stop-opacity="0"/></linearGradient><linearGradient id="paint4_linear_20020_1160" x1="23.812" x2="23.28" y1="15.101" y2="14.821" gradientUnits="userSpaceOnUse"><stop stop-color="#4B3234"/><stop offset="1" stop-color="#4B3234" stop-opacity="0"/></linearGradient><linearGradient id="paint6_linear_20020_1160" x1="18.197" x2="14.64" y1="13.825" y2="8.425" gradientUnits="userSpaceOnUse"><stop stop-color="#5E4B4A"/><stop offset="1" stop-color="#614E4C"/></linearGradient><linearGradient id="paint7_linear_20020_1160" x1="22.866" x2="20.398" y1="14.563" y2="10.156" gradientUnits="userSpaceOnUse"><stop stop-color="#5B4847"/><stop offset="1" stop-color="#5B4847" stop-opacity="0"/></linearGradient><linearGradient id="paint12_linear_20020_1160" x1="16.179" x2="14.46" y1="19.125" y2="18.219" gradientUnits="userSpaceOnUse"><stop stop-color="#4B3234"/><stop offset="1" stop-color="#4B3234" stop-opacity="0"/></linearGradient><linearGradient id="paint13_linear_20020_1160" x1="12.56" x2="15.851" y1="12.609" y2="18.612" gradientUnits="userSpaceOnUse"><stop stop-color="#5F4C4A"/><stop offset="1" stop-color="#5D4846"/></linearGradient><linearGradient id="paint21_linear_20020_1160" x1="17.023" x2="16.163" y1="17.734" y2="15.094" gradientUnits="userSpaceOnUse"><stop stop-color="#4C3335"/><stop offset="1" stop-color="#4C3335" stop-opacity="0"/></linearGradient><linearGradient id="paint23_linear_20020_1160" x1="24.023" x2="19.398" y1="16.188" y2="6.813" gradientUnits="userSpaceOnUse"><stop stop-color="#5F4B4A"/><stop offset="1" stop-color="#66514E"/></linearGradient><linearGradient id="paint26_linear_20020_1160" x1="4.835" x2="8.023" y1="15.961" y2="22.594" gradientUnits="userSpaceOnUse"><stop stop-color="#1679C5"/><stop offset="1" stop-color="#0D5194"/></linearGradient><linearGradient id="paint28_linear_20020_1160" x1="2.872" x2="6.613" y1="17.828" y2="25.948" gradientUnits="userSpaceOnUse"><stop offset=".298" stop-color="#1679C5"/><stop offset="1" stop-color="#0D5194"/></linearGradient></defs></svg>