<svg xmlns="http://www.w3.org/2000/svg" width="32" height="32" fill="none" viewBox="0 0 32 32"><g clip-path="url(#clip0_6985_5054)"><path fill="url(#paint0_linear_6985_5054)" d="M6.516 20.04c3.029 0 5.484-2.417 5.484-5.4 0-2.981-2.455-5.398-5.484-5.398-3.03 0-5.485 2.417-5.485 5.398 0 2.982 2.456 5.399 5.485 5.399Z"/><path fill="url(#paint1_linear_6985_5054)" d="M6.516 20.04c3.029 0 5.484-2.417 5.484-5.4 0-2.981-2.455-5.398-5.484-5.398-3.03 0-5.485 2.417-5.485 5.398 0 2.982 2.456 5.399 5.485 5.399Z"/><path fill="url(#paint2_radial_6985_5054)" fill-opacity=".5" d="M6.516 20.04c3.029 0 5.484-2.417 5.484-5.4 0-2.981-2.455-5.398-5.484-5.398-3.03 0-5.485 2.417-5.485 5.398 0 2.982 2.456 5.399 5.485 5.399Z"/><path fill="url(#paint3_linear_6985_5054)" d="M25.484 20.04c3.03 0 5.485-2.417 5.485-5.399 0-2.981-2.456-5.398-5.485-5.398C22.455 9.243 20 11.66 20 14.64c0 2.982 2.456 5.399 5.484 5.399Z"/><g filter="url(#filter0_f_6985_5054)"><path stroke="url(#paint4_radial_6985_5054)" stroke-linecap="round" stroke-opacity=".8" stroke-width=".5" d="M26.888 10.014c.98.148 2.874 1.438 3.293 3.51.485 1.781-.171 4.063-1.671 4.953"/></g><path fill="url(#paint5_radial_6985_5054)" d="M16 26.988c7.966 0 11.947-5.349 11.947-11.947 0-6.598-3.98-11.947-11.947-11.947-7.966 0-11.947 5.349-11.947 11.947 0 6.598 3.98 11.947 11.947 11.947Z"/><path fill="url(#paint6_linear_6985_5054)" d="M16 26.988c7.966 0 11.947-5.349 11.947-11.947 0-6.598-3.98-11.947-11.947-11.947-7.966 0-11.947 5.349-11.947 11.947 0 6.598 3.98 11.947 11.947 11.947Z"/><path fill="url(#paint7_radial_6985_5054)" d="M16 26.988c7.966 0 11.947-5.349 11.947-11.947 0-6.598-3.98-11.947-11.947-11.947-7.966 0-11.947 5.349-11.947 11.947 0 6.598 3.98 11.947 11.947 11.947Z"/><path fill="url(#paint8_radial_6985_5054)" d="M16 26.988c7.966 0 11.947-5.349 11.947-11.947 0-6.598-3.98-11.947-11.947-11.947-7.966 0-11.947 5.349-11.947 11.947 0 6.598 3.98 11.947 11.947 11.947Z"/><g filter="url(#filter1_f_6985_5054)"><ellipse cx="23.418" cy="10.556" fill="#C58E7D" rx="1.849" ry="4.333" transform="rotate(-23.4 23.418 10.556)"/></g><g filter="url(#filter2_f_6985_5054)"><path stroke="url(#paint9_linear_6985_5054)" stroke-linecap="round" stroke-opacity=".4" stroke-width=".8" d="M5.71 8.441c-1.593 3.93-1.411 9.682.33 12.13"/></g><g filter="url(#filter3_f_6985_5054)"><ellipse cx="16.327" cy="4.365" fill="#F2B5A3" rx=".319" ry="3.089" transform="rotate(-89.391 16.327 4.365)"/></g><g filter="url(#filter4_f_6985_5054)"><path stroke="url(#paint10_linear_6985_5054)" stroke-linecap="round" stroke-opacity=".5" stroke-width=".4" d="M26.92 10.571c.83 3.28.75 7.563-.75 10"/></g><path fill="url(#paint11_linear_6985_5054)" d="M20.302 6.352c2.389 0 4.325 2.008 4.325 4.485v.14a4.522 4.522 0 0 1-2.014 3.791c.056.364.085 1.486.085 1.866 0 3.866-3.023 7-6.75 7-3.73 0-6.752-3.134-6.752-7 0-.38.03-1.502.085-1.866a4.522 4.522 0 0 1-2.014-3.79v-.141c0-2.477 1.937-4.485 4.325-4.485h8.71Z"/><path fill="url(#paint12_radial_6985_5054)" d="M20.302 6.352c2.389 0 4.325 2.008 4.325 4.485v.14a4.522 4.522 0 0 1-2.014 3.791c.056.364.085 1.486.085 1.866 0 3.866-3.023 7-6.75 7-3.73 0-6.752-3.134-6.752-7 0-.38.03-1.502.085-1.866a4.522 4.522 0 0 1-2.014-3.79v-.141c0-2.477 1.937-4.485 4.325-4.485h8.71Z"/><g filter="url(#filter5_f_6985_5054)"><circle cx="10.032" cy="14.012" r="2.504" fill="#451622" fill-opacity=".75"/></g><g filter="url(#filter6_f_6985_5054)"><rect width="3.081" height="6.686" fill="#C4867B" rx="1.54" transform="scale(1 -1) rotate(-38 -15.728 -18.791)"/></g><g filter="url(#filter7_f_6985_5054)"><path stroke="url(#paint13_linear_6985_5054)" stroke-linecap="round" stroke-width=".4" d="M21.703 6.86c1.296.509 3.28 2.562 2.265 5.64"/></g><path fill="url(#paint14_radial_6985_5054)" d="M14.373 19.25a1.629 1.629 0 0 0 3.254 0h-3.254Z"/><path fill="url(#paint15_linear_6985_5054)" d="M8.797 13.75a1.706 1.706 0 0 0 2.688 2.1l3.623-4.635a1.706 1.706 0 0 0-2.688-2.1l-3.623 4.636Z"/><path fill="url(#paint16_radial_6985_5054)" fill-opacity=".6" d="M8.797 13.75a1.706 1.706 0 0 0 2.688 2.1l3.623-4.635a1.706 1.706 0 0 0-2.688-2.1l-3.623 4.636Z"/><g filter="url(#filter8_f_6985_5054)"><path fill="#CC8A78" d="M9.913 15.91a.69.69 0 1 0 1.089.85l4.032-5.159a.69.69 0 1 0-1.089-.85l-4.032 5.16Z"/></g><rect width="3.269" height="9.295" fill="url(#paint17_linear_6985_5054)" rx="1.635" transform="scale(1 -1) rotate(14.15 86.403 29.724)"/><rect width="3.269" height="9.295" fill="url(#paint18_radial_6985_5054)" rx="1.635" transform="scale(1 -1) rotate(14.15 86.403 29.724)"/><rect width="3.081" height="9.295" fill="url(#paint19_radial_6985_5054)" rx="1.54" transform="scale(1 -1) rotate(-38 -20.887 -25.613)"/><rect width="3.081" height="9.295" fill="url(#paint20_linear_6985_5054)" rx="1.54" transform="scale(1 -1) rotate(-38 -20.887 -25.613)"/><rect width="3.081" height="9.295" fill="url(#paint21_linear_6985_5054)" rx="1.54" transform="scale(1 -1) rotate(-38 -20.887 -25.613)"/><path fill="url(#paint22_linear_6985_5054)" d="M10.732 11.274a.5.5 0 0 1 .702-.086l.92.719a6.75 6.75 0 0 1 1.163 9.474L8.55 27.737a4.208 4.208 0 1 1-6.633-5.182l8.814-11.28Z"/><path fill="url(#paint23_radial_6985_5054)" d="M10.732 11.274a.5.5 0 0 1 .702-.086l.92.719a6.75 6.75 0 0 1 1.163 9.474L8.55 27.737a4.208 4.208 0 1 1-6.633-5.182l8.814-11.28Z"/><path fill="url(#paint24_radial_6985_5054)" d="M10.732 11.274a.5.5 0 0 1 .702-.086l.92.719a6.75 6.75 0 0 1 1.163 9.474L8.55 27.737a4.208 4.208 0 1 1-6.633-5.182l8.814-11.28Z"/><path fill="url(#paint25_radial_6985_5054)" d="M10.732 11.274a.5.5 0 0 1 .702-.086l.92.719a6.75 6.75 0 0 1 1.163 9.474L8.55 27.737a4.208 4.208 0 1 1-6.633-5.182l8.814-11.28Z"/><g filter="url(#filter9_f_6985_5054)"><rect width="2.897" height="3.121" x="16.784" y="13.92" fill="#5A3129" rx="1.448" transform="rotate(142 16.784 13.92)"/></g><g filter="url(#filter10_f_6985_5054)"><path fill="url(#paint26_linear_6985_5054)" d="M13.49 13.183c1.913 2.333 1.546 4.973-.112 7.095l-1.066 1.363.924-8.059.254-.4Z"/></g><rect width="3.081" height="9.295" x="24.253" y="15.095" fill="url(#paint27_radial_6985_5054)" rx="1.54" transform="rotate(142 24.253 15.095)"/><rect width="3.081" height="9.295" x="24.253" y="15.095" fill="url(#paint28_linear_6985_5054)" rx="1.54" transform="rotate(142 24.253 15.095)"/><rect width="3.081" height="9.295" x="24.253" y="15.095" fill="url(#paint29_linear_6985_5054)" rx="1.54" transform="rotate(142 24.253 15.095)"/><rect width="3.269" height="9.295" x="22.113" y="20.22" fill="url(#paint30_linear_6985_5054)" rx="1.635" transform="rotate(-165.85 22.113 20.22)"/><rect width="3.081" height="9.295" x="20.659" y="18.289" fill="url(#paint31_radial_6985_5054)" rx="1.54" transform="rotate(142 20.66 18.289)"/><rect width="3.081" height="9.295" x="20.659" y="18.289" fill="url(#paint32_linear_6985_5054)" rx="1.54" transform="rotate(142 20.66 18.289)"/><rect width="3.081" height="9.295" x="20.659" y="18.289" fill="url(#paint33_linear_6985_5054)" rx="1.54" transform="rotate(142 20.66 18.289)"/><rect width="3.081" height="9.295" x="20.659" y="18.289" fill="url(#paint34_linear_6985_5054)" rx="1.54" transform="rotate(142 20.66 18.289)"/><rect width="2.93" height="9.295" x="22.19" y="16.392" fill="url(#paint35_radial_6985_5054)" rx="1.465" transform="rotate(142 22.19 16.392)"/><rect width="2.93" height="9.295" x="22.19" y="16.392" fill="url(#paint36_linear_6985_5054)" rx="1.465" transform="rotate(142 22.19 16.392)"/><g filter="url(#filter11_f_6985_5054)"><path fill="#FFD5C9" fill-opacity=".5" d="m16.343 10.906.448-.35 1.618 2.07-.449.35z"/></g><g filter="url(#filter12_f_6985_5054)"><path fill="#FFD5C9" fill-opacity=".6" d="m14.461 12.752.274-.214 2.21 2.761-.275.215-2.209-2.761Z"/></g><g filter="url(#filter13_f_6985_5054)"><path fill="#FFD5C9" fill-opacity=".75" d="m18.28 9.266.563-.44 1.618 2.07-.565.44z"/></g><g filter="url(#filter14_f_6985_5054)"><path fill="#B16962" fill-opacity=".75" d="m20.22 10.964 1.296 1.594-3.968 5.766c-2.138-3.775.89-6.48 2.672-7.36Z"/></g><path fill="url(#paint37_linear_6985_5054)" d="M21.268 11.274a.5.5 0 0 0-.702-.086l-.92.719a6.75 6.75 0 0 0-1.163 9.474l4.966 6.356a4.208 4.208 0 1 0 6.632-5.182l-8.813-11.28Z"/><path fill="url(#paint38_radial_6985_5054)" d="M21.268 11.274a.5.5 0 0 0-.702-.086l-.92.719a6.75 6.75 0 0 0-1.163 9.474l4.966 6.356a4.208 4.208 0 1 0 6.632-5.182l-8.813-11.28Z"/><path fill="url(#paint39_linear_6985_5054)" d="M21.268 11.274a.5.5 0 0 0-.702-.086l-.92.719a6.75 6.75 0 0 0-1.163 9.474l4.966 6.356a4.208 4.208 0 1 0 6.632-5.182l-8.813-11.28Z"/><path fill="url(#paint40_radial_6985_5054)" d="M21.268 11.274a.5.5 0 0 0-.702-.086l-.92.719a6.75 6.75 0 0 0-1.163 9.474l4.966 6.356a4.208 4.208 0 1 0 6.632-5.182l-8.813-11.28Z"/><path fill="url(#paint41_radial_6985_5054)" d="M21.268 11.274a.5.5 0 0 0-.702-.086l-.92.719a6.75 6.75 0 0 0-1.163 9.474l4.966 6.356a4.208 4.208 0 1 0 6.632-5.182l-8.813-11.28Z"/><g filter="url(#filter15_f_6985_5054)"><rect width="2.828" height="15.126" x="18.393" y="13.565" fill="url(#paint42_linear_6985_5054)" rx="1.414" transform="rotate(-38 18.393 13.565)"/></g><g filter="url(#filter16_f_6985_5054)"><path stroke="url(#paint43_linear_6985_5054)" stroke-linecap="round" d="M13.385 16.134 6.01 25.259"/></g><g filter="url(#filter17_f_6985_5054)"><path fill="#FFCBBC" d="M14.4 9.055c.242.141.399.29.555.625l-1.18.446.625-1.07Z"/></g><g filter="url(#filter18_f_6985_5054)"><path fill="#FFD5C9" d="M23.181 11.18c.305.141.766.704.594 1.344h-1.343l.75-1.344Z"/></g><path fill="url(#paint44_linear_6985_5054)" d="m21.572 11.633-.304-.358a.5.5 0 0 0-.702-.087l-.92.719a6.751 6.751 0 0 0-2.407 6.904c0-1.912.799-4.101 1.99-5.459.627-.715 1.593-1.445 2.343-1.719Z" opacity=".5"/></g><defs><linearGradient id="paint0_linear_6985_5054" x1="6.516" x2="6.516" y1="10.821" y2="21.759" gradientUnits="userSpaceOnUse"><stop stop-color="#A67874"/><stop offset="1" stop-color="#8F5872"/></linearGradient><linearGradient id="paint1_linear_6985_5054" x1="6.516" x2="6.516" y1="14.071" y2="22.259" gradientUnits="userSpaceOnUse"><stop stop-color="#B56595" stop-opacity="0"/><stop offset="1" stop-color="#CA6FA6"/></linearGradient><linearGradient id="paint3_linear_6985_5054" x1="25.484" x2="25.484" y1="12.008" y2="22.259" gradientUnits="userSpaceOnUse"><stop offset=".094" stop-color="#FAB8A9"/><stop offset="1" stop-color="#B56595"/></linearGradient><linearGradient id="paint6_linear_6985_5054" x1="16" x2="16" y1="15.041" y2="31.898" gradientUnits="userSpaceOnUse"><stop stop-color="#682B5B" stop-opacity="0"/><stop offset="1" stop-color="#682B5B"/></linearGradient><linearGradient id="paint9_linear_6985_5054" x1="6.646" x2="4.184" y1="21.2" y2="8.53" gradientUnits="userSpaceOnUse"><stop stop-color="#7C6160" stop-opacity="0"/><stop offset=".503" stop-color="#7C6160"/><stop offset="1" stop-color="#7C6160" stop-opacity="0"/></linearGradient><linearGradient id="paint10_linear_6985_5054" x1="24.978" x2="28.269" y1="20.571" y2="12.63" gradientUnits="userSpaceOnUse"><stop stop-color="#BE8B89" stop-opacity="0"/><stop offset=".296" stop-color="#BE8B89" stop-opacity=".6"/><stop offset=".808" stop-color="#BE8B89" stop-opacity="0"/></linearGradient><linearGradient id="paint11_linear_6985_5054" x1="17.265" x2="15.947" y1="9.703" y2="19.071" gradientUnits="userSpaceOnUse"><stop stop-color="#FAB8A9"/><stop offset="1" stop-color="#AC628E"/></linearGradient><linearGradient id="paint13_linear_6985_5054" x1="24.559" x2="20.947" y1="12.174" y2="6.756" gradientUnits="userSpaceOnUse"><stop stop-color="#FFDACC" stop-opacity="0"/><stop offset=".557" stop-color="#FFDACC"/><stop offset="1" stop-color="#FFDACC" stop-opacity="0"/></linearGradient><linearGradient id="paint15_linear_6985_5054" x1="13.458" x2="10.619" y1="12.007" y2="11.767" gradientUnits="userSpaceOnUse"><stop stop-color="#F9B4A9"/><stop offset="1" stop-color="#D19788"/></linearGradient><linearGradient id="paint17_linear_6985_5054" x1="4.334" x2="1.941" y1="9.277" y2="6.505" gradientUnits="userSpaceOnUse"><stop stop-color="#F9B4A9"/><stop offset="1" stop-color="#D19788"/></linearGradient><linearGradient id="paint20_linear_6985_5054" x1="5.506" x2=".85" y1="2.516" y2="5.197" gradientUnits="userSpaceOnUse"><stop offset=".386" stop-color="#CF6ABA"/><stop offset="1" stop-color="#DC90CC" stop-opacity="0"/></linearGradient><linearGradient id="paint21_linear_6985_5054" x1="3.609" x2="2.205" y1="5.198" y2="5.37" gradientUnits="userSpaceOnUse"><stop stop-color="#AA6C64"/><stop offset="1" stop-color="#D79D95" stop-opacity="0"/></linearGradient><linearGradient id="paint22_linear_6985_5054" x1="17.672" x2="7.035" y1="24.759" y2="16.269" gradientUnits="userSpaceOnUse"><stop stop-color="#A06857"/><stop offset="1" stop-color="#6B423E"/></linearGradient><linearGradient id="paint26_linear_6985_5054" x1="16.919" x2="15.53" y1="13.282" y2="18.484" gradientUnits="userSpaceOnUse"><stop offset=".114" stop-color="#732863"/><stop offset="1" stop-color="#713263" stop-opacity="0"/></linearGradient><linearGradient id="paint28_linear_6985_5054" x1="30.067" x2="25.401" y1="19.113" y2="19.613" gradientUnits="userSpaceOnUse"><stop offset=".259" stop-color="#DC90CC"/><stop offset="1" stop-color="#DC90CC" stop-opacity="0"/></linearGradient><linearGradient id="paint29_linear_6985_5054" x1="27.752" x2="26.23" y1="20.199" y2="20.319" gradientUnits="userSpaceOnUse"><stop stop-color="#AA6C64"/><stop offset="1" stop-color="#D79D95" stop-opacity="0"/></linearGradient><linearGradient id="paint30_linear_6985_5054" x1="22.233" x2="26.223" y1="27.433" y2="29.585" gradientUnits="userSpaceOnUse"><stop stop-color="#FFC5B7"/><stop offset="1" stop-color="#FFBBA3"/></linearGradient><linearGradient id="paint32_linear_6985_5054" x1="27.215" x2="19.617" y1="21.003" y2="24.735" gradientUnits="userSpaceOnUse"><stop offset=".386" stop-color="#CF6ABA"/><stop offset="1" stop-color="#DC90CC" stop-opacity="0"/></linearGradient><linearGradient id="paint33_linear_6985_5054" x1="24.483" x2="21.658" y1="23.535" y2="23.629" gradientUnits="userSpaceOnUse"><stop stop-color="#AA6C64"/><stop offset="1" stop-color="#D79D95" stop-opacity="0"/></linearGradient><linearGradient id="paint34_linear_6985_5054" x1="20.962" x2="22.013" y1="23.422" y2="23.549" gradientUnits="userSpaceOnUse"><stop stop-color="#AA6C64"/><stop offset="1" stop-color="#D79D95" stop-opacity="0"/></linearGradient><linearGradient id="paint36_linear_6985_5054" x1="30.113" x2="22.67" y1="20.135" y2="20.909" gradientUnits="userSpaceOnUse"><stop offset=".259" stop-color="#DC90CC"/><stop offset="1" stop-color="#DC90CC" stop-opacity="0"/></linearGradient><linearGradient id="paint37_linear_6985_5054" x1="27.947" x2="23.595" y1="19.571" y2="23.045" gradientUnits="userSpaceOnUse"><stop stop-color="#A06857"/><stop offset="1" stop-color="#6B423E"/></linearGradient><linearGradient id="paint39_linear_6985_5054" x1="16.572" x2="26.322" y1="26.821" y2="20.259" gradientUnits="userSpaceOnUse"><stop offset=".114" stop-color="#923A7F"/><stop offset="1" stop-color="#682B5B" stop-opacity="0"/></linearGradient><linearGradient id="paint42_linear_6985_5054" x1="19.807" x2="19.807" y1="13.565" y2="28.691" gradientUnits="userSpaceOnUse"><stop stop-color="#BC938F"/><stop offset="1" stop-color="#A07A76"/></linearGradient><linearGradient id="paint43_linear_6985_5054" x1="9.197" x2="9.197" y1="4.758" y2="20.384" gradientUnits="userSpaceOnUse"><stop stop-color="#986E9F" stop-opacity="0"/><stop offset="1" stop-color="#AE75B8"/></linearGradient><linearGradient id="paint44_linear_6985_5054" x1="19.072" x2="20.322" y1="11.977" y2="13.165" gradientUnits="userSpaceOnUse"><stop stop-color="#5A3129"/><stop offset="1" stop-color="#5A3129" stop-opacity="0"/></linearGradient><radialGradient id="paint2_radial_6985_5054" cx="0" cy="0" r="1" gradientTransform="matrix(-11.25001 -11.12504 13.27885 -13.42801 10.385 20.696)" gradientUnits="userSpaceOnUse"><stop offset=".632" stop-color="#F39585" stop-opacity="0"/><stop offset="1" stop-color="#F39585"/></radialGradient><radialGradient id="paint4_radial_6985_5054" cx="0" cy="0" r="1" gradientTransform="matrix(-5.49997 -6.31252 13.2979 -11.5862 29.072 18.165)" gradientUnits="userSpaceOnUse"><stop stop-color="#FFDACC" stop-opacity="0"/><stop offset=".448" stop-color="#FFDACC"/><stop offset="1" stop-color="#FFDACC" stop-opacity="0"/></radialGradient><radialGradient id="paint5_radial_6985_5054" cx="0" cy="0" r="1" gradientTransform="matrix(-10.93739 18.417 -32.63847 -19.38316 24.26 8.571)" gradientUnits="userSpaceOnUse"><stop stop-color="#A06857"/><stop offset="1" stop-color="#5B3838"/></radialGradient><radialGradient id="paint7_radial_6985_5054" cx="0" cy="0" r="1" gradientTransform="matrix(0 20.6725 -18.4611 0 16 12.055)" gradientUnits="userSpaceOnUse"><stop offset=".688" stop-color="#FF7AF2" stop-opacity="0"/><stop offset="1" stop-color="#FFBCE6"/></radialGradient><radialGradient id="paint8_radial_6985_5054" cx="0" cy="0" r="1" gradientTransform="matrix(-7.76496 11.1304 -15.82324 -11.03886 24.203 6.89)" gradientUnits="userSpaceOnUse"><stop stop-color="#AC7463"/><stop offset="1" stop-color="#AC7463" stop-opacity="0"/></radialGradient><radialGradient id="paint12_radial_6985_5054" cx="0" cy="0" r="1" gradientTransform="matrix(.00069 12.6753 -10.8757 .00059 15.946 12.833)" gradientUnits="userSpaceOnUse"><stop offset=".813" stop-color="#FF63C4" stop-opacity="0"/><stop offset="1" stop-color="#FF63C4"/></radialGradient><radialGradient id="paint14_radial_6985_5054" cx="0" cy="0" r="1" gradientTransform="matrix(0 -3.28431 6.76451 0 16 21.137)" gradientUnits="userSpaceOnUse"><stop stop-color="#89029C"/><stop offset="1" stop-color="#F70A8D"/></radialGradient><radialGradient id="paint16_radial_6985_5054" cx="0" cy="0" r="1" gradientTransform="matrix(-1.16923 -2.10095 3.8425 -2.13845 13.376 12.36)" gradientUnits="userSpaceOnUse"><stop stop-color="#C27F6F"/><stop offset="1" stop-color="#C27F6F" stop-opacity="0"/></radialGradient><radialGradient id="paint18_radial_6985_5054" cx="0" cy="0" r="1" gradientTransform="matrix(2.31562 1.5755 -3.5027 5.14817 3.018 6.612)" gradientUnits="userSpaceOnUse"><stop offset=".76" stop-color="#C27F6F" stop-opacity="0"/><stop offset="1" stop-color="#C27F6F"/></radialGradient><radialGradient id="paint19_radial_6985_5054" cx="0" cy="0" r="1" gradientTransform="matrix(3.79052 -2.49133 9.4725 14.41227 -.512 5.904)" gradientUnits="userSpaceOnUse"><stop stop-color="#F9B4A9"/><stop offset=".664" stop-color="#D79D95"/></radialGradient><radialGradient id="paint23_radial_6985_5054" cx="0" cy="0" r="1" gradientTransform="matrix(2.125 -8.75 8.21948 1.99616 5.01 30.634)" gradientUnits="userSpaceOnUse"><stop offset=".114" stop-color="#7A326B"/><stop offset="1" stop-color="#682B5B" stop-opacity="0"/></radialGradient><radialGradient id="paint24_radial_6985_5054" cx="0" cy="0" r="1" gradientTransform="matrix(3.06252 2.31247 -18.52306 24.531 4.072 18.32)" gradientUnits="userSpaceOnUse"><stop stop-color="#937976"/><stop offset=".437" stop-color="#705C5A" stop-opacity="0"/></radialGradient><radialGradient id="paint25_radial_6985_5054" cx="0" cy="0" r="1" gradientTransform="matrix(-4.34375 -3.15626 23.49012 -32.32782 12.54 23.665)" gradientUnits="userSpaceOnUse"><stop stop-color="#915D88"/><stop offset=".344" stop-color="#7F5575" stop-opacity="0"/></radialGradient><radialGradient id="paint27_radial_6985_5054" cx="0" cy="0" r="1" gradientTransform="rotate(59.013 -5.46 31.926) scale(5.27251 20.0471)" gradientUnits="userSpaceOnUse"><stop offset=".24" stop-color="#FBBEAB"/><stop offset=".906" stop-color="#D79D95"/></radialGradient><radialGradient id="paint31_radial_6985_5054" cx="0" cy="0" r="1" gradientTransform="rotate(73.488 -4.481 26.331) scale(4.23632 16.1073)" gradientUnits="userSpaceOnUse"><stop stop-color="#F9B4A9"/><stop offset="1" stop-color="#D79D95"/></radialGradient><radialGradient id="paint35_radial_6985_5054" cx="0" cy="0" r="1" gradientTransform="matrix(.49622 6.35615 -22.99952 1.79556 23.5 21.247)" gradientUnits="userSpaceOnUse"><stop stop-color="#F9B4A9"/><stop offset="1" stop-color="#D79D95"/></radialGradient><radialGradient id="paint38_radial_6985_5054" cx="0" cy="0" r="1" gradientTransform="matrix(-1.12497 -10.08656 9.47502 -1.05677 25.571 31.054)" gradientUnits="userSpaceOnUse"><stop offset=".114" stop-color="#7A326B"/><stop offset="1" stop-color="#682B5B" stop-opacity="0"/></radialGradient><radialGradient id="paint40_radial_6985_5054" cx="0" cy="0" r="1" gradientTransform="matrix(-2.86302 1.96873 -15.76965 -22.93298 27.728 18.665)" gradientUnits="userSpaceOnUse"><stop stop-color="#AC928F"/><stop offset=".437" stop-color="#705C5A" stop-opacity="0"/></radialGradient><radialGradient id="paint41_radial_6985_5054" cx="0" cy="0" r="1" gradientTransform="matrix(4.35575 -3.75 27.90892 32.41712 19.447 24.259)" gradientUnits="userSpaceOnUse"><stop stop-color="#915D88"/><stop offset=".344" stop-color="#7F5575" stop-opacity="0"/></radialGradient><filter id="filter0_f_6985_5054" width="4.75" height="9.763" x="26.238" y="9.364" color-interpolation-filters="sRGB" filterUnits="userSpaceOnUse"><feFlood flood-opacity="0" result="BackgroundImageFix"/><feBlend in="SourceGraphic" in2="BackgroundImageFix" result="shape"/><feGaussianBlur result="effect1_foregroundBlur_6985_5054" stdDeviation=".2"/></filter><filter id="filter1_f_6985_5054" width="11.833" height="15.089" x="17.501" y="3.011" color-interpolation-filters="sRGB" filterUnits="userSpaceOnUse"><feFlood flood-opacity="0" result="BackgroundImageFix"/><feBlend in="SourceGraphic" in2="BackgroundImageFix" result="shape"/><feGaussianBlur result="effect1_foregroundBlur_6985_5054" stdDeviation="1.75"/></filter><filter id="filter2_f_6985_5054" width="3.023" height="13.73" x="3.818" y="7.641" color-interpolation-filters="sRGB" filterUnits="userSpaceOnUse"><feFlood flood-opacity="0" result="BackgroundImageFix"/><feBlend in="SourceGraphic" in2="BackgroundImageFix" result="shape"/><feGaussianBlur result="effect1_foregroundBlur_6985_5054" stdDeviation=".2"/></filter><filter id="filter3_f_6985_5054" width="14.178" height="8.642" x="9.238" y=".044" color-interpolation-filters="sRGB" filterUnits="userSpaceOnUse"><feFlood flood-opacity="0" result="BackgroundImageFix"/><feBlend in="SourceGraphic" in2="BackgroundImageFix" result="shape"/><feGaussianBlur result="effect1_foregroundBlur_6985_5054" stdDeviation="2"/></filter><filter id="filter4_f_6985_5054" width="2.477" height="11.2" x="25.57" y="9.971" color-interpolation-filters="sRGB" filterUnits="userSpaceOnUse"><feFlood flood-opacity="0" result="BackgroundImageFix"/><feBlend in="SourceGraphic" in2="BackgroundImageFix" result="shape"/><feGaussianBlur result="effect1_foregroundBlur_6985_5054" stdDeviation=".2"/></filter><filter id="filter5_f_6985_5054" width="9.007" height="9.007" x="5.528" y="9.508" color-interpolation-filters="sRGB" filterUnits="userSpaceOnUse"><feFlood flood-opacity="0" result="BackgroundImageFix"/><feBlend in="SourceGraphic" in2="BackgroundImageFix" result="shape"/><feGaussianBlur result="effect1_foregroundBlur_6985_5054" stdDeviation="1"/></filter><filter id="filter6_f_6985_5054" width="9.301" height="9.922" x="6.857" y="7.02" color-interpolation-filters="sRGB" filterUnits="userSpaceOnUse"><feFlood flood-opacity="0" result="BackgroundImageFix"/><feBlend in="SourceGraphic" in2="BackgroundImageFix" result="shape"/><feGaussianBlur result="effect1_foregroundBlur_6985_5054" stdDeviation="1"/></filter><filter id="filter7_f_6985_5054" width="3.746" height="6.841" x="21.102" y="6.26" color-interpolation-filters="sRGB" filterUnits="userSpaceOnUse"><feFlood flood-opacity="0" result="BackgroundImageFix"/><feBlend in="SourceGraphic" in2="BackgroundImageFix" result="shape"/><feGaussianBlur result="effect1_foregroundBlur_6985_5054" stdDeviation=".2"/></filter><filter id="filter8_f_6985_5054" width="7.414" height="8.542" x="8.767" y="9.485" color-interpolation-filters="sRGB" filterUnits="userSpaceOnUse"><feFlood flood-opacity="0" result="BackgroundImageFix"/><feBlend in="SourceGraphic" in2="BackgroundImageFix" result="shape"/><feGaussianBlur result="effect1_foregroundBlur_6985_5054" stdDeviation=".5"/></filter><filter id="filter9_f_6985_5054" width="3.535" height="3.574" x="12.914" y="11.796" color-interpolation-filters="sRGB" filterUnits="userSpaceOnUse"><feFlood flood-opacity="0" result="BackgroundImageFix"/><feBlend in="SourceGraphic" in2="BackgroundImageFix" result="shape"/><feGaussianBlur result="effect1_foregroundBlur_6985_5054" stdDeviation=".125"/></filter><filter id="filter10_f_6985_5054" width="3.967" height="9.959" x="11.562" y="12.433" color-interpolation-filters="sRGB" filterUnits="userSpaceOnUse"><feFlood flood-opacity="0" result="BackgroundImageFix"/><feBlend in="SourceGraphic" in2="BackgroundImageFix" result="shape"/><feGaussianBlur result="effect1_foregroundBlur_6985_5054" stdDeviation=".375"/></filter><filter id="filter11_f_6985_5054" width="3.566" height="3.921" x="15.593" y="9.806" color-interpolation-filters="sRGB" filterUnits="userSpaceOnUse"><feFlood flood-opacity="0" result="BackgroundImageFix"/><feBlend in="SourceGraphic" in2="BackgroundImageFix" result="shape"/><feGaussianBlur result="effect1_foregroundBlur_6985_5054" stdDeviation=".375"/></filter><filter id="filter12_f_6985_5054" width="3.983" height="4.475" x="13.711" y="11.788" color-interpolation-filters="sRGB" filterUnits="userSpaceOnUse"><feFlood flood-opacity="0" result="BackgroundImageFix"/><feBlend in="SourceGraphic" in2="BackgroundImageFix" result="shape"/><feGaussianBlur result="effect1_foregroundBlur_6985_5054" stdDeviation=".375"/></filter><filter id="filter13_f_6985_5054" width="3.682" height="4.011" x="17.529" y="8.075" color-interpolation-filters="sRGB" filterUnits="userSpaceOnUse"><feFlood flood-opacity="0" result="BackgroundImageFix"/><feBlend in="SourceGraphic" in2="BackgroundImageFix" result="shape"/><feGaussianBlur result="effect1_foregroundBlur_6985_5054" stdDeviation=".375"/></filter><filter id="filter14_f_6985_5054" width="6.704" height="9.359" x="15.813" y="9.964" color-interpolation-filters="sRGB" filterUnits="userSpaceOnUse"><feFlood flood-opacity="0" result="BackgroundImageFix"/><feBlend in="SourceGraphic" in2="BackgroundImageFix" result="shape"/><feGaussianBlur result="effect1_foregroundBlur_6985_5054" stdDeviation=".5"/></filter><filter id="filter15_f_6985_5054" width="15.4" height="17.519" x="16.464" y="9.894" color-interpolation-filters="sRGB" filterUnits="userSpaceOnUse"><feFlood flood-opacity="0" result="BackgroundImageFix"/><feBlend in="SourceGraphic" in2="BackgroundImageFix" result="shape"/><feGaussianBlur result="effect1_foregroundBlur_6985_5054" stdDeviation="1.25"/></filter><filter id="filter16_f_6985_5054" width="13.375" height="15.125" x="3.01" y="13.133" color-interpolation-filters="sRGB" filterUnits="userSpaceOnUse"><feFlood flood-opacity="0" result="BackgroundImageFix"/><feBlend in="SourceGraphic" in2="BackgroundImageFix" result="shape"/><feGaussianBlur result="effect1_foregroundBlur_6985_5054" stdDeviation="1.25"/></filter><filter id="filter17_f_6985_5054" width="2.18" height="2.07" x="13.275" y="8.555" color-interpolation-filters="sRGB" filterUnits="userSpaceOnUse"><feFlood flood-opacity="0" result="BackgroundImageFix"/><feBlend in="SourceGraphic" in2="BackgroundImageFix" result="shape"/><feGaussianBlur result="effect1_foregroundBlur_6985_5054" stdDeviation=".25"/></filter><filter id="filter18_f_6985_5054" width="2.381" height="2.344" x="21.931" y="10.68" color-interpolation-filters="sRGB" filterUnits="userSpaceOnUse"><feFlood flood-opacity="0" result="BackgroundImageFix"/><feBlend in="SourceGraphic" in2="BackgroundImageFix" result="shape"/><feGaussianBlur result="effect1_foregroundBlur_6985_5054" stdDeviation=".25"/></filter><clipPath id="clip0_6985_5054"><path fill="#fff" d="M0 0h32v32H0z"/></clipPath></defs></svg>