<svg xmlns="http://www.w3.org/2000/svg" width="32" height="32" fill="none" viewBox="0 0 32 32"><g filter="url(#filter0_i_28327_6023)"><path fill="url(#paint0_radial_28327_6023)" d="m6.054 6.25 1.071 4.563 4.594-3.532L7.48 5.13a1 1 0 0 0-1.426 1.12Z"/></g><g filter="url(#filter1_i_28327_6023)"><path fill="url(#paint1_radial_28327_6023)" d="M13.577 2.516 10.77 8.419l7.36.139-2.74-6.027a1 1 0 0 0-1.814-.015Z"/><path fill="url(#paint2_radial_28327_6023)" d="M13.577 2.516 10.77 8.419l7.36.139-2.74-6.027a1 1 0 0 0-1.814-.015Z"/></g><g filter="url(#filter2_i_28327_6023)"><path fill="url(#paint3_radial_28327_6023)" d="m23.977 7.351-1.395 4.475-4.33-3.852 4.383-1.842a1 1 0 0 1 1.342 1.22Z"/><path fill="url(#paint4_radial_28327_6023)" d="m23.977 7.351-1.395 4.475-4.33-3.852 4.383-1.842a1 1 0 0 1 1.342 1.22Z"/></g><g filter="url(#filter3_i_28327_6023)"><path fill="url(#paint5_linear_28327_6023)" d="m23.977 24.691-1.395-4.474-4.33 3.851 4.383 1.842a1 1 0 0 0 1.342-1.219Z"/><path fill="url(#paint6_radial_28327_6023)" d="m23.977 24.691-1.395-4.474-4.33 3.851 4.383 1.842a1 1 0 0 0 1.342-1.219Z"/></g><g filter="url(#filter4_i_28327_6023)"><path fill="url(#paint7_linear_28327_6023)" d="m13.577 29.484-2.806-5.903 7.36-.139-2.74 6.027a1 1 0 0 1-1.814.015Z"/><path fill="url(#paint8_radial_28327_6023)" d="m13.577 29.484-2.806-5.903 7.36-.139-2.74 6.027a1 1 0 0 1-1.814.015Z"/></g><g filter="url(#filter5_i_28327_6023)"><path fill="url(#paint9_linear_28327_6023)" d="m5.023 24.88 1.07-4.563 4.595 3.531L6.447 26a1 1 0 0 1-1.425-1.12Z"/></g><circle cx="4.055" cy="16.992" r="1.055" fill="url(#paint10_radial_28327_6023)"/><circle cx="4.055" cy="14.992" r="1.055" fill="url(#paint11_radial_28327_6023)"/><circle cx="14.5" cy="16.563" r="10.625" fill="url(#paint12_radial_28327_6023)"/><circle cx="14.5" cy="16.563" r="10.625" fill="url(#paint13_radial_28327_6023)"/><circle cx="14.5" cy="16.563" r="10.625" fill="url(#paint14_radial_28327_6023)"/><circle cx="14.5" cy="16.563" r="10.625" fill="url(#paint15_radial_28327_6023)" fill-opacity=".5"/><g filter="url(#filter6_i_28327_6023)"><path fill="url(#paint16_linear_28327_6023)" d="M14.5 27.188c5.868 0 10.625-4.758 10.625-10.625 0-.93-.12-1.833-.344-2.693-.506 1.622-1.145 3.58-2.942 4.833-4.361 3.042-8.453 1.25-10.563-1.531-2.37-3.125-4.946-3.458-7.076-3.226a10.645 10.645 0 0 0-.325 2.617c0 5.867 4.757 10.625 10.625 10.625Z"/><path fill="url(#paint17_radial_28327_6023)" d="M14.5 27.188c5.868 0 10.625-4.758 10.625-10.625 0-.93-.12-1.833-.344-2.693-.506 1.622-1.145 3.58-2.942 4.833-4.361 3.042-8.453 1.25-10.563-1.531-2.37-3.125-4.946-3.458-7.076-3.226a10.645 10.645 0 0 0-.325 2.617c0 5.867 4.757 10.625 10.625 10.625Z"/><path fill="url(#paint18_radial_28327_6023)" d="M14.5 27.188c5.868 0 10.625-4.758 10.625-10.625 0-.93-.12-1.833-.344-2.693-.506 1.622-1.145 3.58-2.942 4.833-4.361 3.042-8.453 1.25-10.563-1.531-2.37-3.125-4.946-3.458-7.076-3.226a10.645 10.645 0 0 0-.325 2.617c0 5.867 4.757 10.625 10.625 10.625Z"/><path fill="url(#paint19_radial_28327_6023)" d="M14.5 27.188c5.868 0 10.625-4.758 10.625-10.625 0-.93-.12-1.833-.344-2.693-.506 1.622-1.145 3.58-2.942 4.833-4.361 3.042-8.453 1.25-10.563-1.531-2.37-3.125-4.946-3.458-7.076-3.226a10.645 10.645 0 0 0-.325 2.617c0 5.867 4.757 10.625 10.625 10.625Z"/><path fill="url(#paint20_radial_28327_6023)" d="M14.5 27.188c5.868 0 10.625-4.758 10.625-10.625 0-.93-.12-1.833-.344-2.693-.506 1.622-1.145 3.58-2.942 4.833-4.361 3.042-8.453 1.25-10.563-1.531-2.37-3.125-4.946-3.458-7.076-3.226a10.645 10.645 0 0 0-.325 2.617c0 5.867 4.757 10.625 10.625 10.625Z"/><path fill="url(#paint21_radial_28327_6023)" d="M14.5 27.188c5.868 0 10.625-4.758 10.625-10.625 0-.93-.12-1.833-.344-2.693-.506 1.622-1.145 3.58-2.942 4.833-4.361 3.042-8.453 1.25-10.563-1.531-2.37-3.125-4.946-3.458-7.076-3.226a10.645 10.645 0 0 0-.325 2.617c0 5.867 4.757 10.625 10.625 10.625Z"/></g><circle cx="8.47" cy="15.328" r=".5" fill="url(#paint22_radial_28327_6023)"/><circle cx="8.47" cy="15.328" r=".5" fill="url(#paint23_radial_28327_6023)"/><circle cx="8.47" cy="15.328" r=".5" fill="url(#paint24_linear_28327_6023)"/><g filter="url(#filter7_i_28327_6023)"><path fill="url(#paint25_linear_28327_6023)" d="M11.982 13.875v3.75l3.696 2.083a1.65 1.65 0 0 0 2.46-1.438v-4.698a1.65 1.65 0 0 0-2.354-1.492l-3.802 1.795Z"/></g><path fill="url(#paint26_linear_28327_6023)" d="M11.982 13.875v3.75l3.696 2.083a1.65 1.65 0 0 0 2.46-1.438v-4.698a1.65 1.65 0 0 0-2.354-1.492l-3.802 1.795Z"/><path fill="url(#paint27_linear_28327_6023)" d="m17.1 9.512 1.048-.846a.45.45 0 0 1 .731.36l-.03 1.365-.001-.001a1.209 1.209 0 0 1-.132.491c-.29.565-.954.802-1.486.53s-.728-.95-.44-1.515c.08-.153.185-.283.31-.384Z"/><path fill="url(#paint28_linear_28327_6023)" d="m17.1 9.512 1.048-.846a.45.45 0 0 1 .731.36l-.03 1.365-.001-.001a1.209 1.209 0 0 1-.132.491c-.29.565-.954.802-1.486.53s-.728-.95-.44-1.515c.08-.153.185-.283.31-.384Z"/><path fill="url(#paint29_radial_28327_6023)" d="m17.1 9.512 1.048-.846a.45.45 0 0 1 .731.36l-.03 1.365-.001-.001a1.209 1.209 0 0 1-.132.491c-.29.565-.954.802-1.486.53s-.728-.95-.44-1.515c.08-.153.185-.283.31-.384Z"/><path fill="url(#paint30_linear_28327_6023)" d="m12.536 9.442-.922-.982a.45.45 0 0 0-.774.256l-.158 1.355h.001c-.015.164.005.336.063.505.209.599.835.926 1.399.73.564-.197.852-.842.644-1.44a1.204 1.204 0 0 0-.253-.424Z"/><path fill="url(#paint31_radial_28327_6023)" d="m12.536 9.442-.922-.982a.45.45 0 0 0-.774.256l-.158 1.355h.001c-.015.164.005.336.063.505.209.599.835.926 1.399.73.564-.197.852-.842.644-1.44a1.204 1.204 0 0 0-.253-.424Z"/><path fill="url(#paint32_linear_28327_6023)" d="m12.536 9.442-.922-.982a.45.45 0 0 0-.774.256l-.158 1.355h.001c-.015.164.005.336.063.505.209.599.835.926 1.399.73.564-.197.852-.842.644-1.44a1.204 1.204 0 0 0-.253-.424Z"/><path fill="url(#paint33_radial_28327_6023)" d="m12.536 9.442-.922-.982a.45.45 0 0 0-.774.256l-.158 1.355h.001c-.015.164.005.336.063.505.209.599.835.926 1.399.73.564-.197.852-.842.644-1.44a1.204 1.204 0 0 0-.253-.424Z"/><path fill="url(#paint34_radial_28327_6023)" d="M29.152 13.798c0-.422-.351-.768-.765-.68-1.865.394-3.262 2.01-3.262 3.942 0 1.933 1.397 3.549 3.262 3.943.414.088.765-.258.765-.68v-6.525Z"/><path fill="url(#paint35_radial_28327_6023)" d="M29.152 13.798c0-.422-.351-.768-.765-.68-1.865.394-3.262 2.01-3.262 3.942 0 1.933 1.397 3.549 3.262 3.943.414.088.765-.258.765-.68v-6.525Z"/><path fill="url(#paint36_linear_28327_6023)" d="M29.152 13.798c0-.422-.351-.768-.765-.68-1.865.394-3.262 2.01-3.262 3.942 0 1.933 1.397 3.549 3.262 3.943.414.088.765-.258.765-.68v-6.525Z"/><path fill="url(#paint37_radial_28327_6023)" d="M29.152 13.798c0-.422-.351-.768-.765-.68-1.865.394-3.262 2.01-3.262 3.942 0 1.933 1.397 3.549 3.262 3.943.414.088.765-.258.765-.68v-6.525Z"/><defs><radialGradient id="paint0_radial_28327_6023" cx="0" cy="0" r="1" gradientTransform="matrix(3.4375 4.28125 -3.15681 2.53467 6.39 5.078)" gradientUnits="userSpaceOnUse"><stop stop-color="#D29F72"/><stop offset=".448" stop-color="#E4B693"/></radialGradient><radialGradient id="paint1_radial_28327_6023" cx="0" cy="0" r="1" gradientTransform="matrix(0 8.54733 -6.30244 0 14.607 .573)" gradientUnits="userSpaceOnUse"><stop stop-color="#D29F72"/><stop offset=".357" stop-color="#E4B693"/></radialGradient><radialGradient id="paint2_radial_28327_6023" cx="0" cy="0" r="1" gradientTransform="matrix(-.83482 -4.34375 2.19324 -.42152 15.75 6.156)" gradientUnits="userSpaceOnUse"><stop stop-color="#FCD0AE"/><stop offset="1" stop-color="#FCD0AE" stop-opacity="0"/></radialGradient><radialGradient id="paint3_radial_28327_6023" cx="0" cy="0" r="1" gradientTransform="matrix(-4.5656 4.94129 -3.6435 -3.36648 24.555 5.241)" gradientUnits="userSpaceOnUse"><stop stop-color="#D29F72"/><stop offset=".357" stop-color="#E4B693"/></radialGradient><radialGradient id="paint4_radial_28327_6023" cx="0" cy="0" r="1" gradientTransform="matrix(1.78125 -2.4375 1.3853 1.01233 21.594 9.188)" gradientUnits="userSpaceOnUse"><stop stop-color="#FFD1AC"/><stop offset="1" stop-color="#FCD0AE" stop-opacity="0"/></radialGradient><radialGradient id="paint6_radial_28327_6023" cx="0" cy="0" r="1" gradientTransform="rotate(-132.737 17.703 7.802) scale(.88549)" gradientUnits="userSpaceOnUse"><stop stop-color="#CB867B"/><stop offset="1" stop-color="#CB867B" stop-opacity="0"/></radialGradient><radialGradient id="paint8_radial_28327_6023" cx="0" cy="0" r="1" gradientTransform="rotate(-90 22.406 7.875) scale(1.125)" gradientUnits="userSpaceOnUse"><stop stop-color="#CB867B"/><stop offset="1" stop-color="#CB867B" stop-opacity="0"/></radialGradient><radialGradient id="paint10_radial_28327_6023" cx="0" cy="0" r="1" gradientTransform="matrix(.91406 .03906 -.04422 1.0347 3.219 16.719)" gradientUnits="userSpaceOnUse"><stop stop-color="#E9AA6E"/><stop offset="1" stop-color="#D89851"/></radialGradient><radialGradient id="paint11_radial_28327_6023" cx="0" cy="0" r="1" gradientTransform="matrix(.99218 -.23437 .29553 1.25106 3.14 14.992)" gradientUnits="userSpaceOnUse"><stop stop-color="#E9AA6E"/><stop offset="1" stop-color="#D89851"/></radialGradient><radialGradient id="paint12_radial_28327_6023" cx="0" cy="0" r="1" gradientTransform="matrix(-6.12499 8.87503 -10.14422 -7.0009 20.625 9.813)" gradientUnits="userSpaceOnUse"><stop stop-color="#FFDCA5"/><stop offset="1" stop-color="#E6B480"/></radialGradient><radialGradient id="paint13_radial_28327_6023" cx="0" cy="0" r="1" gradientTransform="rotate(-146.926 14.745 7.286) scale(20.9585 17.4114)" gradientUnits="userSpaceOnUse"><stop offset=".873" stop-color="#CFA574" stop-opacity="0"/><stop offset=".998" stop-color="#CFA574"/></radialGradient><radialGradient id="paint14_radial_28327_6023" cx="0" cy="0" r="1" gradientTransform="matrix(3.40625 -4.3125 3.8522 3.04268 15.813 15.063)" gradientUnits="userSpaceOnUse"><stop stop-color="#F2BA8B"/><stop offset="1" stop-color="#F2BA8B" stop-opacity="0"/></radialGradient><radialGradient id="paint15_radial_28327_6023" cx="0" cy="0" r="1" gradientTransform="matrix(1.26825 -4.63202 5.23434 1.43316 15.45 20.945)" gradientUnits="userSpaceOnUse"><stop stop-color="#D5906C"/><stop offset="1" stop-color="#D5906C" stop-opacity="0"/></radialGradient><radialGradient id="paint17_radial_28327_6023" cx="0" cy="0" r="1" gradientTransform="rotate(-106.044 17.427 7.125) scale(8.66439 21.1359)" gradientUnits="userSpaceOnUse"><stop stop-color="#F4B3A2"/><stop offset="1" stop-color="#F4B3A2" stop-opacity="0"/></radialGradient><radialGradient id="paint18_radial_28327_6023" cx="0" cy="0" r="1" gradientTransform="matrix(0 16.164 -14.3046 0 14.5 11.692)" gradientUnits="userSpaceOnUse"><stop offset=".793" stop-color="#D68A87" stop-opacity="0"/><stop offset="1" stop-color="#D68A87"/></radialGradient><radialGradient id="paint19_radial_28327_6023" cx="0" cy="0" r="1" gradientTransform="matrix(8.84585 -4.29951 5.3731 11.05467 5.654 23.883)" gradientUnits="userSpaceOnUse"><stop stop-color="#EDA980"/><stop offset="1" stop-color="#EDA980" stop-opacity="0"/></radialGradient><radialGradient id="paint20_radial_28327_6023" cx="0" cy="0" r="1" gradientTransform="rotate(75.091 -.164 22.198) scale(4.01898 5.69696)" gradientUnits="userSpaceOnUse"><stop stop-color="#FFD4C6"/><stop offset="1" stop-color="#FFD4C6" stop-opacity="0"/></radialGradient><radialGradient id="paint21_radial_28327_6023" cx="0" cy="0" r="1" gradientTransform="matrix(-.5625 4.5 -6.5923 -.82404 15.063 18.813)" gradientUnits="userSpaceOnUse"><stop stop-color="#EEAA96"/><stop offset="1" stop-color="#EEAA96" stop-opacity="0"/></radialGradient><radialGradient id="paint22_radial_28327_6023" cx="0" cy="0" r="1" gradientTransform="matrix(-.40625 .5625 -.5015 -.3622 8.619 15.167)" gradientUnits="userSpaceOnUse"><stop offset=".006" stop-color="#433437"/><stop offset="1" stop-color="#3B2838"/></radialGradient><radialGradient id="paint23_radial_28327_6023" cx="0" cy="0" r="1" gradientTransform="rotate(137.643 1.384 9.279) scale(.35946 .31624)" gradientUnits="userSpaceOnUse"><stop stop-color="#5C5051"/><stop offset="1" stop-color="#5C5051" stop-opacity="0"/></radialGradient><radialGradient id="paint29_radial_28327_6023" cx="0" cy="0" r="1" gradientTransform="matrix(-.46875 .51562 -.32045 -.29132 18.797 8.922)" gradientUnits="userSpaceOnUse"><stop stop-color="#FAC791"/><stop offset="1" stop-color="#FAC791" stop-opacity="0"/></radialGradient><radialGradient id="paint31_radial_28327_6023" cx="0" cy="0" r="1" gradientTransform="rotate(-122.237 9.075 1.73) scale(2.05045 .65625)" gradientUnits="userSpaceOnUse"><stop stop-color="#F8C593"/><stop offset="1" stop-color="#F8C593" stop-opacity="0"/></radialGradient><radialGradient id="paint33_radial_28327_6023" cx="0" cy="0" r="1" gradientTransform="matrix(.60938 .99219 -.85005 .52208 11 8.344)" gradientUnits="userSpaceOnUse"><stop stop-color="#E3AD75"/><stop offset="1" stop-color="#E3AD75" stop-opacity="0"/></radialGradient><radialGradient id="paint34_radial_28327_6023" cx="0" cy="0" r="1" gradientTransform="matrix(-5.78125 0 0 -5.46908 30.656 17.06)" gradientUnits="userSpaceOnUse"><stop offset=".506" stop-color="#EAAF78"/><stop offset="1" stop-color="#DD995B"/></radialGradient><radialGradient id="paint35_radial_28327_6023" cx="0" cy="0" r="1" gradientTransform="matrix(-8.0625 0 0 -7.53125 33.031 17.375)" gradientUnits="userSpaceOnUse"><stop offset=".88" stop-color="#DD9B59" stop-opacity="0"/><stop offset="1" stop-color="#DD9B59"/></radialGradient><radialGradient id="paint37_radial_28327_6023" cx="0" cy="0" r="1" gradientTransform="matrix(-.4336 3.65625 -1.3346 -.15827 29.152 14.625)" gradientUnits="userSpaceOnUse"><stop stop-color="#EEBC84"/><stop offset="1" stop-color="#EEBC84" stop-opacity="0"/></radialGradient><linearGradient id="paint5_linear_28327_6023" x1="21.766" x2="23.297" y1="24.969" y2="23.922" gradientUnits="userSpaceOnUse"><stop stop-color="#CC888C"/><stop offset="1" stop-color="#E9B49E"/></linearGradient><linearGradient id="paint7_linear_28327_6023" x1="15.625" x2="12.688" y1="27.25" y2="29.562" gradientUnits="userSpaceOnUse"><stop stop-color="#CC888A"/><stop offset="1" stop-color="#E2AB95"/></linearGradient><linearGradient id="paint9_linear_28327_6023" x1="6.672" x2="5.469" y1="25.797" y2="24.25" gradientUnits="userSpaceOnUse"><stop stop-color="#CC888A"/><stop offset="1" stop-color="#E2AB95"/></linearGradient><linearGradient id="paint16_linear_28327_6023" x1="6.851" x2="25.125" y1="17.842" y2="17.842" gradientUnits="userSpaceOnUse"><stop stop-color="#F5BC92"/><stop offset="1" stop-color="#FFD1C4"/></linearGradient><linearGradient id="paint24_linear_28327_6023" x1="8.372" x2="8.028" y1="14.935" y2="14.717" gradientUnits="userSpaceOnUse"><stop stop-color="#5C5051" stop-opacity="0"/><stop offset="1" stop-color="#5C5051"/></linearGradient><linearGradient id="paint25_linear_28327_6023" x1="16.438" x2="11.094" y1="16.031" y2="16.031" gradientUnits="userSpaceOnUse"><stop stop-color="#E2A67A"/><stop offset="1" stop-color="#E2AA82" stop-opacity="0"/></linearGradient><linearGradient id="paint26_linear_28327_6023" x1="11.982" x2="14.281" y1="16.031" y2="16.375" gradientUnits="userSpaceOnUse"><stop stop-color="#E9B985"/><stop offset="1" stop-color="#E9B985" stop-opacity="0"/></linearGradient><linearGradient id="paint27_linear_28327_6023" x1="18.406" x2="17.438" y1="9.109" y2="10.969" gradientUnits="userSpaceOnUse"><stop stop-color="#F6BF88"/><stop offset="1" stop-color="#F6BF88" stop-opacity="0"/></linearGradient><linearGradient id="paint28_linear_28327_6023" x1="17.977" x2="18.203" y1="8.703" y2="9.062" gradientUnits="userSpaceOnUse"><stop stop-color="#EDB675"/><stop offset="1" stop-color="#EDB675" stop-opacity="0"/></linearGradient><linearGradient id="paint30_linear_28327_6023" x1="11.5" x2="12.156" y1="9.344" y2="11.234" gradientUnits="userSpaceOnUse"><stop stop-color="#ECB480"/><stop offset="1" stop-color="#F6BF88" stop-opacity="0"/></linearGradient><linearGradient id="paint32_linear_28327_6023" x1="10.703" x2="11.008" y1="9.437" y2="9.5" gradientUnits="userSpaceOnUse"><stop stop-color="#E3AD75"/><stop offset="1" stop-color="#E3AD75" stop-opacity="0"/></linearGradient><linearGradient id="paint36_linear_28327_6023" x1="26.344" x2="27.781" y1="21.969" y2="17.844" gradientUnits="userSpaceOnUse"><stop stop-color="#CF8C6F"/><stop offset="1" stop-color="#CF8C6F" stop-opacity="0"/></linearGradient><filter id="filter0_i_28327_6023" width="5.693" height="5.794" x="6.026" y="5.019" color-interpolation-filters="sRGB" filterUnits="userSpaceOnUse"><feFlood flood-opacity="0" result="BackgroundImageFix"/><feBlend in="SourceGraphic" in2="BackgroundImageFix" result="shape"/><feColorMatrix in="SourceAlpha" result="hardAlpha" values="0 0 0 0 0 0 0 0 0 0 0 0 0 0 0 0 0 0 127 0"/><feOffset/><feGaussianBlur stdDeviation=".3"/><feComposite in2="hardAlpha" k2="-1" k3="1" operator="arithmetic"/><feColorMatrix values="0 0 0 0 0.804167 0 0 0 0 0.609924 0 0 0 0 0.469097 0 0 0 1 0"/><feBlend in2="shape" result="effect1_innerShadow_28327_6023"/></filter><filter id="filter1_i_28327_6023" width="7.76" height="6.613" x="10.771" y="1.945" color-interpolation-filters="sRGB" filterUnits="userSpaceOnUse"><feFlood flood-opacity="0" result="BackgroundImageFix"/><feBlend in="SourceGraphic" in2="BackgroundImageFix" result="shape"/><feColorMatrix in="SourceAlpha" result="hardAlpha" values="0 0 0 0 0 0 0 0 0 0 0 0 0 0 0 0 0 0 127 0"/><feOffset dx=".4"/><feGaussianBlur stdDeviation=".3"/><feComposite in2="hardAlpha" k2="-1" k3="1" operator="arithmetic"/><feColorMatrix values="0 0 0 0 0.815686 0 0 0 0 0.607843 0 0 0 0 0.419608 0 0 0 1 0"/><feBlend in2="shape" result="effect1_innerShadow_28327_6023"/></filter><filter id="filter2_i_28327_6023" width="6.171" height="5.774" x="18.253" y="6.052" color-interpolation-filters="sRGB" filterUnits="userSpaceOnUse"><feFlood flood-opacity="0" result="BackgroundImageFix"/><feBlend in="SourceGraphic" in2="BackgroundImageFix" result="shape"/><feColorMatrix in="SourceAlpha" result="hardAlpha" values="0 0 0 0 0 0 0 0 0 0 0 0 0 0 0 0 0 0 127 0"/><feOffset dx=".4"/><feGaussianBlur stdDeviation=".3"/><feComposite in2="hardAlpha" k2="-1" k3="1" operator="arithmetic"/><feColorMatrix values="0 0 0 0 0.815686 0 0 0 0 0.607843 0 0 0 0 0.419608 0 0 0 1 0"/><feBlend in2="shape" result="effect1_innerShadow_28327_6023"/></filter><filter id="filter3_i_28327_6023" width="5.771" height="5.774" x="18.253" y="20.217" color-interpolation-filters="sRGB" filterUnits="userSpaceOnUse"><feFlood flood-opacity="0" result="BackgroundImageFix"/><feBlend in="SourceGraphic" in2="BackgroundImageFix" result="shape"/><feColorMatrix in="SourceAlpha" result="hardAlpha" values="0 0 0 0 0 0 0 0 0 0 0 0 0 0 0 0 0 0 127 0"/><feOffset/><feGaussianBlur stdDeviation=".2"/><feComposite in2="hardAlpha" k2="-1" k3="1" operator="arithmetic"/><feColorMatrix values="0 0 0 0 0.733333 0 0 0 0 0.51269 0 0 0 0 0.391111 0 0 0 1 0"/><feBlend in2="shape" result="effect1_innerShadow_28327_6023"/></filter><filter id="filter4_i_28327_6023" width="7.36" height="6.613" x="10.771" y="23.442" color-interpolation-filters="sRGB" filterUnits="userSpaceOnUse"><feFlood flood-opacity="0" result="BackgroundImageFix"/><feBlend in="SourceGraphic" in2="BackgroundImageFix" result="shape"/><feColorMatrix in="SourceAlpha" result="hardAlpha" values="0 0 0 0 0 0 0 0 0 0 0 0 0 0 0 0 0 0 127 0"/><feOffset/><feGaussianBlur stdDeviation=".2"/><feComposite in2="hardAlpha" k2="-1" k3="1" operator="arithmetic"/><feColorMatrix values="0 0 0 0 0.733333 0 0 0 0 0.51269 0 0 0 0 0.391111 0 0 0 1 0"/><feBlend in2="shape" result="effect1_innerShadow_28327_6023"/></filter><filter id="filter5_i_28327_6023" width="5.693" height="5.794" x="4.995" y="20.317" color-interpolation-filters="sRGB" filterUnits="userSpaceOnUse"><feFlood flood-opacity="0" result="BackgroundImageFix"/><feBlend in="SourceGraphic" in2="BackgroundImageFix" result="shape"/><feColorMatrix in="SourceAlpha" result="hardAlpha" values="0 0 0 0 0 0 0 0 0 0 0 0 0 0 0 0 0 0 127 0"/><feOffset/><feGaussianBlur stdDeviation=".2"/><feComposite in2="hardAlpha" k2="-1" k3="1" operator="arithmetic"/><feColorMatrix values="0 0 0 0 0.733333 0 0 0 0 0.51269 0 0 0 0 0.391111 0 0 0 1 0"/><feBlend in2="shape" result="effect1_innerShadow_28327_6023"/></filter><filter id="filter6_i_28327_6023" width="21.25" height="13.468" x="3.875" y="13.72" color-interpolation-filters="sRGB" filterUnits="userSpaceOnUse"><feFlood flood-opacity="0" result="BackgroundImageFix"/><feBlend in="SourceGraphic" in2="BackgroundImageFix" result="shape"/><feColorMatrix in="SourceAlpha" result="hardAlpha" values="0 0 0 0 0 0 0 0 0 0 0 0 0 0 0 0 0 0 127 0"/><feOffset dy="-.15"/><feGaussianBlur stdDeviation=".2"/><feComposite in2="hardAlpha" k2="-1" k3="1" operator="arithmetic"/><feColorMatrix values="0 0 0 0 0.827451 0 0 0 0 0.545098 0 0 0 0 0.552941 0 0 0 1 0"/><feBlend in2="shape" result="effect1_innerShadow_28327_6023"/></filter><filter id="filter7_i_28327_6023" width="6.156" height="8.002" x="11.982" y="11.92" color-interpolation-filters="sRGB" filterUnits="userSpaceOnUse"><feFlood flood-opacity="0" result="BackgroundImageFix"/><feBlend in="SourceGraphic" in2="BackgroundImageFix" result="shape"/><feColorMatrix in="SourceAlpha" result="hardAlpha" values="0 0 0 0 0 0 0 0 0 0 0 0 0 0 0 0 0 0 127 0"/><feOffset/><feGaussianBlur stdDeviation=".5"/><feComposite in2="hardAlpha" k2="-1" k3="1" operator="arithmetic"/><feColorMatrix values="0 0 0 0 0.833333 0 0 0 0 0.566667 0 0 0 0 0.354167 0 0 0 1 0"/><feBlend in2="shape" result="effect1_innerShadow_28327_6023"/></filter></defs></svg>