<svg xmlns="http://www.w3.org/2000/svg" width="32" height="32" fill="none" viewBox="0 0 32 32"><g filter="url(#filter0_i_3987_19793)"><circle cx="7.092" cy="17.996" r="3.113" fill="url(#paint0_radial_3987_19793)"/></g><g filter="url(#filter1_f_3987_19793)"><circle cx="7.092" cy="17.996" r="1.855" fill="url(#paint1_linear_3987_19793)"/></g><g filter="url(#filter2_i_3987_19793)"><circle cx="24.833" cy="17.996" r="3.113" fill="url(#paint2_linear_3987_19793)"/><circle cx="24.833" cy="17.996" r="3.113" fill="url(#paint3_radial_3987_19793)"/></g><g filter="url(#filter3_f_3987_19793)"><circle cx="24.833" cy="17.996" r="1.855" fill="#7A5654"/><circle cx="24.833" cy="17.996" r="1.855" fill="url(#paint4_radial_3987_19793)"/><circle cx="24.833" cy="17.996" r="1.855" fill="url(#paint5_radial_3987_19793)"/></g><g filter="url(#filter4_i_3987_19793)"><path fill="url(#paint6_radial_3987_19793)" d="m6.344 14.988.463 9.23a6 6 0 0 0 5.989 5.63h6.408a6 6 0 0 0 5.988-5.63l.464-9.23c.625-6.547-2.515-10.344-8.78-10.61h-1.751c-6.265.266-9.406 4.063-8.781 10.61Z"/><path fill="url(#paint7_radial_3987_19793)" d="m6.344 14.988.463 9.23a6 6 0 0 0 5.989 5.63h6.408a6 6 0 0 0 5.988-5.63l.464-9.23c.625-6.547-2.515-10.344-8.78-10.61h-1.751c-6.265.266-9.406 4.063-8.781 10.61Z"/><path fill="url(#paint8_radial_3987_19793)" d="m6.344 14.988.463 9.23a6 6 0 0 0 5.989 5.63h6.408a6 6 0 0 0 5.988-5.63l.464-9.23c.625-6.547-2.515-10.344-8.78-10.61h-1.751c-6.265.266-9.406 4.063-8.781 10.61Z"/><path fill="url(#paint9_radial_3987_19793)" d="m6.344 14.988.463 9.23a6 6 0 0 0 5.989 5.63h6.408a6 6 0 0 0 5.988-5.63l.464-9.23c.625-6.547-2.515-10.344-8.78-10.61h-1.751c-6.265.266-9.406 4.063-8.781 10.61Z"/><path fill="url(#paint10_radial_3987_19793)" d="m6.344 14.988.463 9.23a6 6 0 0 0 5.989 5.63h6.408a6 6 0 0 0 5.988-5.63l.464-9.23c.625-6.547-2.515-10.344-8.78-10.61h-1.751c-6.265.266-9.406 4.063-8.781 10.61Z"/></g><path fill="url(#paint11_radial_3987_19793)" d="m6.344 14.988.463 9.23a6 6 0 0 0 5.989 5.63h6.408a6 6 0 0 0 5.988-5.63l.464-9.23c.625-6.547-2.515-10.344-8.78-10.61h-1.751c-6.265.266-9.406 4.063-8.781 10.61Z"/><path fill="url(#paint12_radial_3987_19793)" d="m6.344 14.988.463 9.23a6 6 0 0 0 5.989 5.63h6.408a6 6 0 0 0 5.988-5.63l.464-9.23c.625-6.547-2.515-10.344-8.78-10.61h-1.751c-6.265.266-9.406 4.063-8.781 10.61Z"/><g filter="url(#filter5_f_3987_19793)"><path fill="url(#paint13_linear_3987_19793)" d="m23.326 7.507-5.739 1.914a1.953 1.953 0 0 0 .877 3.788l5.706-.764-.844-4.938Z"/></g><g filter="url(#filter6_f_3987_19793)"><path fill="#71404A" d="m15.433 17.768-1.53 3.17c-.19.652.266 1.304.91 1.304h1.375c.645 0 1.1-.662.91-1.304l-.929-3.17c-.199-.702-.527-.702-.736 0Z"/></g><g filter="url(#filter7_f_3987_19793)"><path fill="#8C5F5E" d="m15.233 17.464-.99 3.17a1.005 1.005 0 0 0 .97 1.303h1.466c.688 0 1.173-.662.971-1.303l-.99-3.17c-.213-.702-1.204-.702-1.427 0Z"/><path fill="url(#paint14_linear_3987_19793)" d="m15.233 17.464-.99 3.17a1.005 1.005 0 0 0 .97 1.303h1.466c.688 0 1.173-.662.971-1.303l-.99-3.17c-.213-.702-1.204-.702-1.427 0Z"/><path fill="url(#paint15_linear_3987_19793)" d="m15.233 17.464-.99 3.17a1.005 1.005 0 0 0 .97 1.303h1.466c.688 0 1.173-.662.971-1.303l-.99-3.17c-.213-.702-1.204-.702-1.427 0Z"/><path fill="url(#paint16_linear_3987_19793)" d="m15.233 17.464-.99 3.17a1.005 1.005 0 0 0 .97 1.303h1.466c.688 0 1.173-.662.971-1.303l-.99-3.17c-.213-.702-1.204-.702-1.427 0Z"/><path fill="url(#paint17_radial_3987_19793)" d="m15.233 17.464-.99 3.17a1.005 1.005 0 0 0 .97 1.303h1.466c.688 0 1.173-.662.971-1.303l-.99-3.17c-.213-.702-1.204-.702-1.427 0Z"/></g><path fill="url(#paint18_linear_3987_19793)" d="m15.233 17.464-.99 3.17a1.005 1.005 0 0 0 .97 1.303h1.466c.688 0 1.173-.662.971-1.303l-.99-3.17c-.213-.702-1.204-.702-1.427 0Z"/><path fill="#88014F" stroke="url(#paint19_linear_3987_19793)" stroke-width=".1" d="M13.386 23.176a.335.335 0 0 0-.4.07.305.305 0 0 0-.033.392 3.58 3.58 0 0 0 2.993 1.6 3.58 3.58 0 0 0 2.994-1.6.31.31 0 0 0-.034-.396.336.336 0 0 0-.4-.066 5.523 5.523 0 0 1-2.56.607 5.54 5.54 0 0 1-2.56-.607Z"/><g filter="url(#filter8_i_3987_19793)"><path fill="#352827" d="m22.883 12.924-.002-.002-.004-.003-.008-.007-.023-.018a3.698 3.698 0 0 0-.289-.2 4.816 4.816 0 0 0-.782-.393 5.282 5.282 0 0 0-2.784-.295.995.995 0 1 0 .31 1.966 3.293 3.293 0 0 1 1.742.18 2.832 2.832 0 0 1 .56.297l.015.011a.995.995 0 0 0 1.265-1.536Z"/><path fill="url(#paint20_radial_3987_19793)" d="m22.883 12.924-.002-.002-.004-.003-.008-.007-.023-.018a3.698 3.698 0 0 0-.289-.2 4.816 4.816 0 0 0-.782-.393 5.282 5.282 0 0 0-2.784-.295.995.995 0 1 0 .31 1.966 3.293 3.293 0 0 1 1.742.18 2.832 2.832 0 0 1 .56.297l.015.011a.995.995 0 0 0 1.265-1.536Z"/></g><g filter="url(#filter9_i_3987_19793)"><path fill="#352827" d="m8.91 12.924.002-.002.004-.003.008-.007.022-.018.067-.05c.055-.04.13-.092.222-.15.186-.116.45-.261.783-.393a5.282 5.282 0 0 1 2.784-.295.995.995 0 1 1-.31 1.966 3.294 3.294 0 0 0-1.742.18 2.836 2.836 0 0 0-.56.297.995.995 0 1 1-1.28-1.525Z"/><path fill="url(#paint21_radial_3987_19793)" d="m8.91 12.924.002-.002.004-.003.008-.007.022-.018.067-.05c.055-.04.13-.092.222-.15.186-.116.45-.261.783-.393a5.282 5.282 0 0 1 2.784-.295.995.995 0 1 1-.31 1.966 3.294 3.294 0 0 0-1.742.18 2.836 2.836 0 0 0-.56.297.995.995 0 1 1-1.28-1.525Z"/></g><path fill="#fff" d="M20.4 15.328c1.217 0 2.245.84 2.525 1.974a.511.511 0 0 1-.499.636h-4.16a.43.43 0 0 1-.423-.507 2.606 2.606 0 0 1 2.556-2.103Z"/><path fill="url(#paint22_radial_3987_19793)" d="M20.013 15.835a1.664 1.664 0 0 1 1.604 2.102h-3.215a1.706 1.706 0 0 1-.06-.438 1.67 1.67 0 0 1 1.671-1.664Z"/><path fill="#000" d="M19.06 17.499c0-.53.424-.953.953-.953.53 0 .953.423.953.953a.94.94 0 0 1-.106.439h-1.686a.862.862 0 0 1-.113-.44Z"/><g filter="url(#filter10_f_3987_19793)"><path fill="#C7A7A3" d="M19.891 16.187c.119.158-.13.351-.41.562-.283.21-.492.36-.61.2-.119-.158.014-.457.295-.668.282-.21.607-.253.725-.094Z"/><path fill="url(#paint23_radial_3987_19793)" d="M19.891 16.187c.119.158-.13.351-.41.562-.283.21-.492.36-.61.2-.119-.158.014-.457.295-.668.282-.21.607-.253.725-.094Z"/></g><g filter="url(#filter11_f_3987_19793)"><path fill="url(#paint24_linear_3987_19793)" d="M21.495 17.28a1.566 1.566 0 0 0-.43-.863l-.485.532.218.425.698-.094Z"/></g><path fill="#fff" d="M11.484 15.328c-1.218 0-2.247.84-2.526 1.974a.511.511 0 0 0 .499.636h4.16a.43.43 0 0 0 .423-.507 2.612 2.612 0 0 0-2.556-2.103Z"/><path fill="url(#paint25_radial_3987_19793)" d="M11.87 15.835a1.664 1.664 0 0 0-1.604 2.102h3.214a1.69 1.69 0 0 0 .061-.438 1.675 1.675 0 0 0-1.671-1.664Z"/><path fill="#000" d="M12.822 17.499a.949.949 0 0 0-.952-.953.949.949 0 0 0-.954.953c0 .159.038.31.106.439h1.687a.946.946 0 0 0 .114-.44Z"/><g filter="url(#filter12_f_3987_19793)"><path fill="url(#paint26_linear_3987_19793)" d="M13.39 17.303c0-.537-.438-.896-.556-1.004l-.537.52.33.673.763-.189Z"/></g><g filter="url(#filter13_f_3987_19793)" transform="rotate(-27.914 11.367 16.546)"><ellipse cx="11.367" cy="16.546" fill="#C7A7A3" fill-opacity=".9" rx=".726" ry=".368"/><ellipse cx="11.367" cy="16.546" fill="url(#paint27_radial_3987_19793)" rx=".726" ry=".368"/></g><g filter="url(#filter14_f_3987_19793)"><path stroke="url(#paint28_linear_3987_19793)" stroke-linecap="round" stroke-width=".5" d="M19.043 12.654c.802-.14 2.366-.1 3.449.742"/></g><g filter="url(#filter15_f_3987_19793)"><path stroke="url(#paint29_linear_3987_19793)" stroke-linecap="round" stroke-width=".5" d="M9.31 13.621c.61-.54 1.942-1.107 3.593-.844"/></g><defs><radialGradient id="paint0_radial_3987_19793" cx="0" cy="0" r="1" gradientTransform="matrix(3.27255 0 0 5.72699 3.979 17.996)" gradientUnits="userSpaceOnUse"><stop offset=".351" stop-color="#664249"/><stop offset="1" stop-color="#613641"/></radialGradient><radialGradient id="paint3_radial_3987_19793" cx="0" cy="0" r="1" gradientTransform="matrix(1.54168 -1.12256 1.28126 1.75963 25.526 17.502)" gradientUnits="userSpaceOnUse"><stop offset=".543" stop-color="#7C524C"/><stop offset="1" stop-color="#7C524C" stop-opacity="0"/></radialGradient><radialGradient id="paint4_radial_3987_19793" cx="0" cy="0" r="1" gradientTransform="matrix(1.53153 -2.8169 1.64874 .8964 24.756 19.528)" gradientUnits="userSpaceOnUse"><stop offset=".755" stop-color="#73443E" stop-opacity="0"/><stop offset=".916" stop-color="#73443E"/></radialGradient><radialGradient id="paint5_radial_3987_19793" cx="0" cy="0" r="1" gradientTransform="rotate(44.708 -9.464 39.192) scale(.68036 .87707)" gradientUnits="userSpaceOnUse"><stop stop-color="#6C443E"/><stop offset="1" stop-color="#6C443E" stop-opacity="0"/></radialGradient><radialGradient id="paint6_radial_3987_19793" cx="0" cy="0" r="1" gradientTransform="rotate(151.408 8.32 10.972) scale(15.8021 24.1166)" gradientUnits="userSpaceOnUse"><stop stop-color="#9B6C5F"/><stop offset=".646" stop-color="#79524E"/><stop offset=".88" stop-color="#704C47"/></radialGradient><radialGradient id="paint7_radial_3987_19793" cx="0" cy="0" r="1" gradientTransform="matrix(0 -2.39062 2.68091 0 12.031 15.719)" gradientUnits="userSpaceOnUse"><stop offset=".131" stop-color="#6F404C"/><stop offset="1" stop-color="#6F404C" stop-opacity="0"/></radialGradient><radialGradient id="paint8_radial_3987_19793" cx="0" cy="0" r="1" gradientTransform="matrix(0 -2.78125 3.375 0 20.406 15.594)" gradientUnits="userSpaceOnUse"><stop offset=".225" stop-color="#855254"/><stop offset="1" stop-color="#855254" stop-opacity="0"/></radialGradient><radialGradient id="paint9_radial_3987_19793" cx="0" cy="0" r="1" gradientTransform="matrix(-8.12501 8.87498 -9.7212 -8.89973 24.125 7.5)" gradientUnits="userSpaceOnUse"><stop stop-color="#9C7867"/><stop offset="1" stop-color="#9C7867" stop-opacity="0"/></radialGradient><radialGradient id="paint10_radial_3987_19793" cx="0" cy="0" r="1" gradientTransform="matrix(0 1.90625 -4.14738 0 17.125 4.156)" gradientUnits="userSpaceOnUse"><stop stop-color="#8E7266"/><stop offset="1" stop-color="#8E7266" stop-opacity="0"/></radialGradient><radialGradient id="paint11_radial_3987_19793" cx="0" cy="0" r="1" gradientTransform="rotate(2.78 -608.16 300.86) scale(13.4533 5.34827)" gradientUnits="userSpaceOnUse"><stop stop-color="#7A406C"/><stop offset="1" stop-color="#7A406C" stop-opacity="0"/></radialGradient><radialGradient id="paint12_radial_3987_19793" cx="0" cy="0" r="1" gradientTransform="matrix(4.50363 7.7157 -16.41308 9.58028 8.059 2.721)" gradientUnits="userSpaceOnUse"><stop stop-color="#776058"/><stop offset="1" stop-color="#776058" stop-opacity="0"/></radialGradient><radialGradient id="paint17_radial_3987_19793" cx="0" cy="0" r="1" gradientTransform="matrix(0 .36719 -1.17969 0 16.556 20.992)" gradientUnits="userSpaceOnUse"><stop stop-color="#976F6A"/><stop offset="1" stop-color="#976F6A" stop-opacity="0"/></radialGradient><radialGradient id="paint20_radial_3987_19793" cx="0" cy="0" r="1" gradientTransform="matrix(.1943 -1.125 3.32822 .57484 20.502 14.11)" gradientUnits="userSpaceOnUse"><stop stop-color="#301A2D"/><stop offset="1" stop-color="#301A2D" stop-opacity="0"/></radialGradient><radialGradient id="paint21_radial_3987_19793" cx="0" cy="0" r="1" gradientTransform="matrix(.19432 -1.125 3.3284 .5749 10.902 14.11)" gradientUnits="userSpaceOnUse"><stop stop-color="#301A2D"/><stop offset="1" stop-color="#301A2D" stop-opacity="0"/></radialGradient><radialGradient id="paint22_radial_3987_19793" cx="0" cy="0" r="1" gradientTransform="matrix(0 1.51263 -2.40601 0 20.01 16.724)" gradientUnits="userSpaceOnUse"><stop offset=".802" stop-color="#7D574A"/><stop offset="1" stop-color="#694B43"/><stop offset="1" stop-color="#804D49"/><stop offset="1" stop-color="#664944"/></radialGradient><radialGradient id="paint23_radial_3987_19793" cx="0" cy="0" r="1" gradientTransform="rotate(-127.812 13.926 3.645) scale(.70528 .97101)" gradientUnits="userSpaceOnUse"><stop offset=".766" stop-color="#FFE6E2" stop-opacity="0"/><stop offset=".966" stop-color="#FFE6E2"/></radialGradient><radialGradient id="paint25_radial_3987_19793" cx="0" cy="0" r="1" gradientTransform="matrix(0 1.51271 -2.40614 0 11.873 16.724)" gradientUnits="userSpaceOnUse"><stop offset=".802" stop-color="#7D574A"/><stop offset="1" stop-color="#694B43"/><stop offset="1" stop-color="#804D49"/><stop offset="1" stop-color="#664944"/></radialGradient><radialGradient id="paint27_radial_3987_19793" cx="0" cy="0" r="1" gradientTransform="rotate(-90.897 14.103 2.985) scale(.92129 1.10743)" gradientUnits="userSpaceOnUse"><stop offset=".766" stop-color="#FFE6E2" stop-opacity="0"/><stop offset=".966" stop-color="#FFE6E2"/></radialGradient><filter id="filter0_i_3987_19793" width="6.427" height="6.227" x="3.979" y="14.883" color-interpolation-filters="sRGB" filterUnits="userSpaceOnUse"><feFlood flood-opacity="0" result="BackgroundImageFix"/><feBlend in="SourceGraphic" in2="BackgroundImageFix" result="shape"/><feColorMatrix in="SourceAlpha" result="hardAlpha" values="0 0 0 0 0 0 0 0 0 0 0 0 0 0 0 0 0 0 127 0"/><feOffset dx=".2"/><feGaussianBlur stdDeviation=".15"/><feComposite in2="hardAlpha" k2="-1" k3="1" operator="arithmetic"/><feColorMatrix values="0 0 0 0 0.517647 0 0 0 0 0.384314 0 0 0 0 0.34902 0 0 0 1 0"/><feBlend in2="shape" result="effect1_innerShadow_3987_19793"/></filter><filter id="filter1_f_3987_19793" width="4.711" height="4.711" x="4.737" y="15.641" color-interpolation-filters="sRGB" filterUnits="userSpaceOnUse"><feFlood flood-opacity="0" result="BackgroundImageFix"/><feBlend in="SourceGraphic" in2="BackgroundImageFix" result="shape"/><feGaussianBlur result="effect1_foregroundBlur_3987_19793" stdDeviation=".25"/></filter><filter id="filter2_i_3987_19793" width="6.477" height="6.477" x="21.72" y="14.633" color-interpolation-filters="sRGB" filterUnits="userSpaceOnUse"><feFlood flood-opacity="0" result="BackgroundImageFix"/><feBlend in="SourceGraphic" in2="BackgroundImageFix" result="shape"/><feColorMatrix in="SourceAlpha" result="hardAlpha" values="0 0 0 0 0 0 0 0 0 0 0 0 0 0 0 0 0 0 127 0"/><feOffset dx=".25" dy="-.25"/><feGaussianBlur stdDeviation=".25"/><feComposite in2="hardAlpha" k2="-1" k3="1" operator="arithmetic"/><feColorMatrix values="0 0 0 0 0.482353 0 0 0 0 0.278431 0 0 0 0 0.372549 0 0 0 1 0"/><feBlend in2="shape" result="effect1_innerShadow_3987_19793"/></filter><filter id="filter3_f_3987_19793" width="4.711" height="4.711" x="22.478" y="15.641" color-interpolation-filters="sRGB" filterUnits="userSpaceOnUse"><feFlood flood-opacity="0" result="BackgroundImageFix"/><feBlend in="SourceGraphic" in2="BackgroundImageFix" result="shape"/><feGaussianBlur result="effect1_foregroundBlur_3987_19793" stdDeviation=".25"/></filter><filter id="filter4_i_3987_19793" width="20.719" height="25.719" x="6.266" y="4.379" color-interpolation-filters="sRGB" filterUnits="userSpaceOnUse"><feFlood flood-opacity="0" result="BackgroundImageFix"/><feBlend in="SourceGraphic" in2="BackgroundImageFix" result="shape"/><feColorMatrix in="SourceAlpha" result="hardAlpha" values="0 0 0 0 0 0 0 0 0 0 0 0 0 0 0 0 0 0 127 0"/><feOffset dx="1.25" dy=".25"/><feGaussianBlur stdDeviation=".625"/><feComposite in2="hardAlpha" k2="-1" k3="1" operator="arithmetic"/><feColorMatrix values="0 0 0 0 0.513726 0 0 0 0 0.372549 0 0 0 0 0.345098 0 0 0 1 0"/><feBlend in2="shape" result="effect1_innerShadow_3987_19793"/></filter><filter id="filter5_f_3987_19793" width="11.918" height="9.719" x="14.252" y="5.507" color-interpolation-filters="sRGB" filterUnits="userSpaceOnUse"><feFlood flood-opacity="0" result="BackgroundImageFix"/><feBlend in="SourceGraphic" in2="BackgroundImageFix" result="shape"/><feGaussianBlur result="effect1_foregroundBlur_3987_19793" stdDeviation="1"/></filter><filter id="filter6_f_3987_19793" width="4.782" height="6.5" x="13.11" y="16.492" color-interpolation-filters="sRGB" filterUnits="userSpaceOnUse"><feFlood flood-opacity="0" result="BackgroundImageFix"/><feBlend in="SourceGraphic" in2="BackgroundImageFix" result="shape"/><feGaussianBlur result="effect1_foregroundBlur_3987_19793" stdDeviation=".375"/></filter><filter id="filter7_f_3987_19793" width="4" height="5.5" x="13.946" y="16.688" color-interpolation-filters="sRGB" filterUnits="userSpaceOnUse"><feFlood flood-opacity="0" result="BackgroundImageFix"/><feBlend in="SourceGraphic" in2="BackgroundImageFix" result="shape"/><feGaussianBlur result="effect1_foregroundBlur_3987_19793" stdDeviation=".125"/></filter><filter id="filter8_i_3987_19793" width="5.34" height="3.147" x="18.151" y="11.537" color-interpolation-filters="sRGB" filterUnits="userSpaceOnUse"><feFlood flood-opacity="0" result="BackgroundImageFix"/><feBlend in="SourceGraphic" in2="BackgroundImageFix" result="shape"/><feColorMatrix in="SourceAlpha" result="hardAlpha" values="0 0 0 0 0 0 0 0 0 0 0 0 0 0 0 0 0 0 127 0"/><feOffset dx=".25" dy="-.4"/><feGaussianBlur stdDeviation=".3"/><feComposite in2="hardAlpha" k2="-1" k3="1" operator="arithmetic"/><feColorMatrix values="0 0 0 0 0.156863 0 0 0 0 0.0784314 0 0 0 0 0.109804 0 0 0 1 0"/><feBlend in2="shape" result="effect1_innerShadow_3987_19793"/></filter><filter id="filter9_i_3987_19793" width="5.341" height="3.147" x="8.551" y="11.537" color-interpolation-filters="sRGB" filterUnits="userSpaceOnUse"><feFlood flood-opacity="0" result="BackgroundImageFix"/><feBlend in="SourceGraphic" in2="BackgroundImageFix" result="shape"/><feColorMatrix in="SourceAlpha" result="hardAlpha" values="0 0 0 0 0 0 0 0 0 0 0 0 0 0 0 0 0 0 127 0"/><feOffset dx=".25" dy="-.4"/><feGaussianBlur stdDeviation=".3"/><feComposite in2="hardAlpha" k2="-1" k3="1" operator="arithmetic"/><feColorMatrix values="0 0 0 0 0.156863 0 0 0 0 0.0784314 0 0 0 0 0.109804 0 0 0 1 0"/><feBlend in2="shape" result="effect1_innerShadow_3987_19793"/></filter><filter id="filter10_f_3987_19793" width="1.294" height="1.125" x="18.727" y="15.991" color-interpolation-filters="sRGB" filterUnits="userSpaceOnUse"><feFlood flood-opacity="0" result="BackgroundImageFix"/><feBlend in="SourceGraphic" in2="BackgroundImageFix" result="shape"/><feGaussianBlur result="effect1_foregroundBlur_3987_19793" stdDeviation=".05"/></filter><filter id="filter11_f_3987_19793" width="1.316" height="1.357" x="20.38" y="16.217" color-interpolation-filters="sRGB" filterUnits="userSpaceOnUse"><feFlood flood-opacity="0" result="BackgroundImageFix"/><feBlend in="SourceGraphic" in2="BackgroundImageFix" result="shape"/><feGaussianBlur result="effect1_foregroundBlur_3987_19793" stdDeviation=".1"/></filter><filter id="filter12_f_3987_19793" width="1.493" height="1.594" x="12.097" y="16.099" color-interpolation-filters="sRGB" filterUnits="userSpaceOnUse"><feFlood flood-opacity="0" result="BackgroundImageFix"/><feBlend in="SourceGraphic" in2="BackgroundImageFix" result="shape"/><feGaussianBlur result="effect1_foregroundBlur_3987_19793" stdDeviation=".1"/></filter><filter id="filter13_f_3987_19793" width="1.529" height="1.141" x="10.603" y="15.976" color-interpolation-filters="sRGB" filterUnits="userSpaceOnUse"><feFlood flood-opacity="0" result="BackgroundImageFix"/><feBlend in="SourceGraphic" in2="BackgroundImageFix" result="shape"/><feGaussianBlur result="effect1_foregroundBlur_3987_19793" stdDeviation=".05"/></filter><filter id="filter14_f_3987_19793" width="4.949" height="2.304" x="18.293" y="11.842" color-interpolation-filters="sRGB" filterUnits="userSpaceOnUse"><feFlood flood-opacity="0" result="BackgroundImageFix"/><feBlend in="SourceGraphic" in2="BackgroundImageFix" result="shape"/><feGaussianBlur result="effect1_foregroundBlur_3987_19793" stdDeviation=".25"/></filter><filter id="filter15_f_3987_19793" width="5.094" height="2.41" x="8.56" y="11.961" color-interpolation-filters="sRGB" filterUnits="userSpaceOnUse"><feFlood flood-opacity="0" result="BackgroundImageFix"/><feBlend in="SourceGraphic" in2="BackgroundImageFix" result="shape"/><feGaussianBlur result="effect1_foregroundBlur_3987_19793" stdDeviation=".25"/></filter><linearGradient id="paint1_linear_3987_19793" x1="7.092" x2="5.898" y1="18.516" y2="18.516" gradientUnits="userSpaceOnUse"><stop stop-color="#553038"/><stop offset="1" stop-color="#59323C"/></linearGradient><linearGradient id="paint2_linear_3987_19793" x1="26.859" x2="25.332" y1="15.96" y2="20.69" gradientUnits="userSpaceOnUse"><stop stop-color="#96776B"/><stop offset="1" stop-color="#855A5B"/></linearGradient><linearGradient id="paint13_linear_3987_19793" x1="14.943" x2="30.131" y1="13.156" y2="7.719" gradientUnits="userSpaceOnUse"><stop stop-color="#A27B71"/><stop offset="1" stop-color="#A27B71" stop-opacity="0"/></linearGradient><linearGradient id="paint14_linear_3987_19793" x1="14.335" x2="16.084" y1="19.952" y2="19.952" gradientUnits="userSpaceOnUse"><stop stop-color="#754E46"/><stop offset="1" stop-color="#754E46" stop-opacity="0"/></linearGradient><linearGradient id="paint15_linear_3987_19793" x1="17.696" x2="15.784" y1="20.553" y2="20.526" gradientUnits="userSpaceOnUse"><stop stop-color="#9D766B"/><stop offset="1" stop-color="#9D766B" stop-opacity="0"/></linearGradient><linearGradient id="paint16_linear_3987_19793" x1="16.309" x2="16.309" y1="21.938" y2="20.869" gradientUnits="userSpaceOnUse"><stop stop-color="#7C4559"/><stop offset="1" stop-color="#7C4559" stop-opacity="0"/></linearGradient><linearGradient id="paint18_linear_3987_19793" x1="16.181" x2="16.181" y1="22.016" y2="21.703" gradientUnits="userSpaceOnUse"><stop stop-color="#743B4A"/><stop offset="1" stop-color="#743B4A" stop-opacity="0"/></linearGradient><linearGradient id="paint19_linear_3987_19793" x1="14.012" x2="14.824" y1="24.949" y2="23.667" gradientUnits="userSpaceOnUse"><stop stop-color="#865E63"/><stop offset=".663" stop-color="#865E63" stop-opacity="0"/></linearGradient><linearGradient id="paint24_linear_3987_19793" x1="21.46" x2="20.875" y1="16.825" y2="17.185" gradientUnits="userSpaceOnUse"><stop stop-color="#B4948D"/><stop offset="1" stop-color="#B4948D" stop-opacity="0"/></linearGradient><linearGradient id="paint26_linear_3987_19793" x1="13.26" x2="12.675" y1="16.825" y2="17.185" gradientUnits="userSpaceOnUse"><stop stop-color="#B4948D"/><stop offset="1" stop-color="#B4948D" stop-opacity="0"/></linearGradient><linearGradient id="paint28_linear_3987_19793" x1="21.489" x2="20.706" y1="12.835" y2="11.233" gradientUnits="userSpaceOnUse"><stop stop-color="#483E3E"/><stop offset="1" stop-color="#483E3E" stop-opacity="0"/></linearGradient><linearGradient id="paint29_linear_3987_19793" x1="11.597" x2="9.379" y1="12.596" y2="11.666" gradientUnits="userSpaceOnUse"><stop stop-color="#483E3E"/><stop offset="1" stop-color="#483E3E" stop-opacity="0"/></linearGradient></defs></svg>