<svg xmlns="http://www.w3.org/2000/svg" width="32" height="32" fill="none" viewBox="0 0 32 32"><path fill="url(#paint0_radial_966_3945)" d="M15.999 29.998c9.334 0 13.999-6.268 13.999-14 0-7.73-4.665-13.998-14-13.998C6.665 2 2 8.268 2 15.999c0 7.731 4.664 13.999 13.999 13.999Z"/><path fill="url(#paint1_radial_966_3945)" d="M15.999 29.998c9.334 0 13.999-6.268 13.999-14 0-7.73-4.665-13.998-14-13.998C6.665 2 2 8.268 2 15.999c0 7.731 4.664 13.999 13.999 13.999Z"/><path fill="url(#paint2_radial_966_3945)" d="M15.999 29.998c9.334 0 13.999-6.268 13.999-14 0-7.73-4.665-13.998-14-13.998C6.665 2 2 8.268 2 15.999c0 7.731 4.664 13.999 13.999 13.999Z"/><path fill="url(#paint3_radial_966_3945)" fill-opacity=".6" d="M15.999 29.998c9.334 0 13.999-6.268 13.999-14 0-7.73-4.665-13.998-14-13.998C6.665 2 2 8.268 2 15.999c0 7.731 4.664 13.999 13.999 13.999Z"/><path fill="url(#paint4_radial_966_3945)" d="M15.999 29.998c9.334 0 13.999-6.268 13.999-14 0-7.73-4.665-13.998-14-13.998C6.665 2 2 8.268 2 15.999c0 7.731 4.664 13.999 13.999 13.999Z"/><path fill="url(#paint5_radial_966_3945)" d="M15.999 29.998c9.334 0 13.999-6.268 13.999-14 0-7.73-4.665-13.998-14-13.998C6.665 2 2 8.268 2 15.999c0 7.731 4.664 13.999 13.999 13.999Z"/><path fill="url(#paint6_radial_966_3945)" d="M15.999 29.998c9.334 0 13.999-6.268 13.999-14 0-7.73-4.665-13.998-14-13.998C6.665 2 2 8.268 2 15.999c0 7.731 4.664 13.999 13.999 13.999Z"/><path fill="url(#paint7_radial_966_3945)" d="M15.999 29.998c9.334 0 13.999-6.268 13.999-14 0-7.73-4.665-13.998-14-13.998C6.665 2 2 8.268 2 15.999c0 7.731 4.664 13.999 13.999 13.999Z"/><g filter="url(#filter0_f_966_3945)" opacity=".5"><path stroke="#9A4609" stroke-linecap="round" stroke-width="2" d="M7.75 15.5s.5-1.5 2.5-1.5 2.5 1.5 2.5 1.5"/></g><g filter="url(#filter1_f_966_3945)" opacity=".5"><path stroke="#9A4609" stroke-linecap="round" stroke-width="2" d="M18.75 15.5s.5-1.5 2.5-1.5 2.5 1.5 2.5 1.5"/></g><path stroke="url(#paint8_linear_966_3945)" stroke-linecap="round" stroke-linejoin="round" stroke-width="2" d="M8 15s.5-1.5 2.5-1.5S13 15 13 15"/><path stroke="url(#paint9_linear_966_3945)" stroke-linecap="round" stroke-linejoin="round" stroke-width="2" d="M19 15s.5-1.5 2.5-1.5S24 15 24 15"/><g filter="url(#filter2_f_966_3945)" opacity=".26"><path stroke="#fff" stroke-linecap="round" stroke-linejoin="round" stroke-width=".75" d="M8.25 14.75s.5-1.5 2.5-1.5 2.5 1.5 2.5 1.5"/></g><g filter="url(#filter3_f_966_3945)" opacity=".26"><path stroke="#fff" stroke-linecap="round" stroke-linejoin="round" stroke-width=".75" d="M19.25 14.75s.5-1.5 2.5-1.5 2.5 1.5 2.5 1.5"/></g><path fill="url(#paint10_linear_966_3945)" fill-rule="evenodd" d="M20.245 24.7a6.007 6.007 0 0 0-8.487.026 1 1 0 1 1-1.416-1.412 8.007 8.007 0 0 1 11.313-.034 1 1 0 0 1-1.41 1.42Z" clip-rule="evenodd"/><path fill="url(#paint11_radial_966_3945)" fill-rule="evenodd" d="M8.361 3.83C8.765 4.455 9 5.2 9 6v6a4 4 0 0 1-6.955 2.696c.327-4.66 2.432-8.659 6.316-10.866Z" clip-rule="evenodd"/><rect width="6" height="11" x="3" y="2" fill="url(#paint12_radial_966_3945)" rx="3"/><defs><radialGradient id="paint0_radial_966_3945" cx="0" cy="0" r="1" gradientTransform="rotate(132.839 10.786 10.065) scale(37.5033)" gradientUnits="userSpaceOnUse"><stop stop-color="#FFF478"/><stop offset=".475" stop-color="#FFB02E"/><stop offset="1" stop-color="#F70A8D"/></radialGradient><radialGradient id="paint1_radial_966_3945" cx="0" cy="0" r="1" gradientTransform="rotate(131.878 10.74 10.193) scale(38.9487)" gradientUnits="userSpaceOnUse"><stop stop-color="#FFF478"/><stop offset=".475" stop-color="#FFB02E"/><stop offset="1" stop-color="#F70A8D"/></radialGradient><radialGradient id="paint2_radial_966_3945" cx="0" cy="0" r="1" gradientTransform="rotate(101.31 2.876 12.808) scale(17.8466 22.8581)" gradientUnits="userSpaceOnUse"><stop offset=".788" stop-color="#F59639" stop-opacity="0"/><stop offset=".973" stop-color="#FF7DCE"/></radialGradient><radialGradient id="paint3_radial_966_3945" cx="0" cy="0" r="1" gradientTransform="matrix(-29 29 -29 -29 18 14)" gradientUnits="userSpaceOnUse"><stop offset=".315" stop-opacity="0"/><stop offset="1"/></radialGradient><radialGradient id="paint4_radial_966_3945" cx="0" cy="0" r="1" gradientTransform="rotate(77.692 -2.555 18.434) scale(28.1469)" gradientUnits="userSpaceOnUse"><stop offset=".508" stop-color="#7D6133" stop-opacity="0"/><stop offset="1" stop-color="#715B32"/></radialGradient><radialGradient id="paint5_radial_966_3945" cx="0" cy="0" r="1" gradientTransform="matrix(7.5 10.99996 -7.97335 5.4364 16.5 16.5)" gradientUnits="userSpaceOnUse"><stop stop-color="#FFB849"/><stop offset="1" stop-color="#FFB847" stop-opacity="0"/></radialGradient><radialGradient id="paint6_radial_966_3945" cx="0" cy="0" r="1" gradientTransform="matrix(11.49998 2 -2 11.49998 20.5 18)" gradientUnits="userSpaceOnUse"><stop stop-color="#FFA64B"/><stop offset=".9" stop-color="#FFAE46" stop-opacity="0"/></radialGradient><radialGradient id="paint7_radial_966_3945" cx="0" cy="0" r="1" gradientTransform="rotate(43.971 -9.827 29.173) scale(59.0529)" gradientUnits="userSpaceOnUse"><stop offset=".185" stop-opacity="0"/><stop offset="1" stop-opacity=".4"/></radialGradient><radialGradient id="paint11_radial_966_3945" cx="0" cy="0" r="1" gradientTransform="rotate(107.831 1.547 5.048) scale(9.9366 4.29216)" gradientUnits="userSpaceOnUse"><stop stop-color="#392108"/><stop offset="1" stop-color="#C87928" stop-opacity="0"/></radialGradient><radialGradient id="paint12_radial_966_3945" cx="0" cy="0" r="1" gradientTransform="rotate(104.621 3.034 4.34) scale(11.8849 4.44155)" gradientUnits="userSpaceOnUse"><stop stop-color="#5C98FF"/><stop offset=".806" stop-color="#3D5BF1"/><stop offset=".962" stop-color="#6065CA"/></radialGradient><filter id="filter0_f_966_3945" width="10.001" height="6.5" x="5.25" y="11.5" color-interpolation-filters="sRGB" filterUnits="userSpaceOnUse"><feFlood flood-opacity="0" result="BackgroundImageFix"/><feBlend in="SourceGraphic" in2="BackgroundImageFix" result="shape"/><feGaussianBlur result="effect1_foregroundBlur_966_3945" stdDeviation=".75"/></filter><filter id="filter1_f_966_3945" width="10.001" height="6.5" x="16.25" y="11.5" color-interpolation-filters="sRGB" filterUnits="userSpaceOnUse"><feFlood flood-opacity="0" result="BackgroundImageFix"/><feBlend in="SourceGraphic" in2="BackgroundImageFix" result="shape"/><feGaussianBlur result="effect1_foregroundBlur_966_3945" stdDeviation=".75"/></filter><filter id="filter2_f_966_3945" width="8.75" height="5.25" x="6.375" y="11.375" color-interpolation-filters="sRGB" filterUnits="userSpaceOnUse"><feFlood flood-opacity="0" result="BackgroundImageFix"/><feBlend in="SourceGraphic" in2="BackgroundImageFix" result="shape"/><feGaussianBlur result="effect1_foregroundBlur_966_3945" stdDeviation=".75"/></filter><filter id="filter3_f_966_3945" width="8.75" height="5.25" x="17.375" y="11.375" color-interpolation-filters="sRGB" filterUnits="userSpaceOnUse"><feFlood flood-opacity="0" result="BackgroundImageFix"/><feBlend in="SourceGraphic" in2="BackgroundImageFix" result="shape"/><feGaussianBlur result="effect1_foregroundBlur_966_3945" stdDeviation=".75"/></filter><linearGradient id="paint8_linear_966_3945" x1="11.5" x2="10.5" y1="12.5" y2="15" gradientUnits="userSpaceOnUse"><stop stop-color="#52383E"/><stop offset="1" stop-color="#432A35"/></linearGradient><linearGradient id="paint9_linear_966_3945" x1="22.5" x2="21.5" y1="12.5" y2="15" gradientUnits="userSpaceOnUse"><stop stop-color="#52383E"/><stop offset="1" stop-color="#432A35"/></linearGradient><linearGradient id="paint10_linear_966_3945" x1="16" x2="16" y1="20.926" y2="22.989" gradientUnits="userSpaceOnUse"><stop stop-color="#4F3C43"/><stop offset="1" stop-color="#512756"/></linearGradient></defs></svg>