<svg xmlns="http://www.w3.org/2000/svg" width="32" height="32" fill="none" viewBox="0 0 32 32"><path fill="url(#paint0_radial_18590_2750)" d="M29.757 16c0 7.732-6.268 14-14 14s-14-6.268-14-14 6.268-14 14-14 14 6.268 14 14Z"/><path fill="url(#paint1_linear_18590_2750)" d="M29.757 16c0 7.732-6.268 14-14 14s-14-6.268-14-14 6.268-14 14-14 14 6.268 14 14Z"/><path fill="url(#paint2_radial_18590_2750)" d="M29.757 16c0 7.732-6.268 14-14 14s-14-6.268-14-14 6.268-14 14-14 14 6.268 14 14Z"/><path fill="url(#paint3_radial_18590_2750)" d="M29.757 16c0 7.732-6.268 14-14 14s-14-6.268-14-14 6.268-14 14-14 14 6.268 14 14Z"/><path fill="url(#paint4_radial_18590_2750)" d="M29.757 16c0 7.732-6.268 14-14 14s-14-6.268-14-14 6.268-14 14-14 14 6.268 14 14Z"/><defs><radialGradient id="paint0_radial_18590_2750" cx="0" cy="0" r="1" gradientTransform="rotate(130.168 9.936 9.935) scale(27.8086)" gradientUnits="userSpaceOnUse"><stop offset=".232" stop-color="#F24756"/><stop offset="1" stop-color="#B22945"/></radialGradient><radialGradient id="paint2_radial_18590_2750" cx="0" cy="0" r="1" gradientTransform="rotate(136.38 10.067 10.264) scale(14.6767 15.816)" gradientUnits="userSpaceOnUse"><stop offset=".179" stop-color="#FF6180"/><stop offset="1" stop-color="#E5364A" stop-opacity="0"/></radialGradient><radialGradient id="paint3_radial_18590_2750" cx="0" cy="0" r="1" gradientTransform="matrix(-19.25 0 0 -20 20.249 16)" gradientUnits="userSpaceOnUse"><stop offset=".62" stop-color="#B73E4B" stop-opacity="0"/><stop offset=".951" stop-color="#D48387"/></radialGradient><radialGradient id="paint4_radial_18590_2750" cx="0" cy="0" r="1" gradientTransform="matrix(0 21 -23.3208 0 15.757 9)" gradientUnits="userSpaceOnUse"><stop offset=".863" stop-color="#B83C5A" stop-opacity="0"/><stop offset="1" stop-color="#B83C5A"/><stop offset="1" stop-color="#AC4064"/></radialGradient><linearGradient id="paint1_linear_18590_2750" x1="15.757" x2="15.757" y1="2" y2="8.5" gradientUnits="userSpaceOnUse"><stop stop-color="#DD4577"/><stop offset="1" stop-color="#EF4B5E" stop-opacity="0"/></linearGradient></defs></svg>