<svg xmlns="http://www.w3.org/2000/svg" width="32" height="32" fill="none" viewBox="0 0 32 32"><g filter="url(#filter0_ii_18_10327)"><path fill="#59585A" d="m10.5 12.037-4.13 8.299h21.22l-4.043-8.183a2 2 0 0 0-1.794-1.114h-9.642a1.8 1.8 0 0 0-1.612.998Z"/><path fill="url(#paint0_linear_18_10327)" d="m10.5 12.037-4.13 8.299h21.22l-4.043-8.183a2 2 0 0 0-1.794-1.114h-9.642a1.8 1.8 0 0 0-1.612.998Z"/></g><g filter="url(#filter1_ii_18_10327)"><rect width="27.742" height="7.875" x="2.129" y="19.023" fill="url(#paint1_linear_18_10327)" rx="1.6"/></g><rect width="27.742" height="7.875" x="2.129" y="19.023" fill="url(#paint2_linear_18_10327)" rx="1.6"/><rect width="27.742" height="7.875" x="2.129" y="19.023" fill="url(#paint3_linear_18_10327)" rx="1.6"/><g filter="url(#filter2_i_18_10327)"><path fill="url(#paint4_linear_18_10327)" d="M16.027 10.367h1.965V8.982a.982.982 0 0 0-1.965 0v1.385Z"/><path fill="url(#paint5_radial_18_10327)" d="M16.027 10.367h1.965V8.982a.982.982 0 0 0-1.965 0v1.385Z"/></g><path fill="url(#paint6_linear_18_10327)" d="M29.871 20.96v3.056h-.433a1.527 1.527 0 0 1 0-3.055h.433Z"/><path fill="url(#paint7_radial_18_10327)" d="M2.129 23.977V20.96h.93a1 1 0 0 1 1 1v1.016a1 1 0 0 1-1 1h-.93Z"/><g fill-rule="evenodd" clip-rule="evenodd" filter="url(#filter3_i_18_10327)"><path fill="url(#paint8_linear_18_10327)" d="M6.5 19.019c.03.003.062.004.094.004h8.39a1 1 0 0 0 1-1V13.93a1 1 0 0 0-1-1h-4.928L7.3 18.469a1 1 0 0 1-.8.55Z"/><path fill="url(#paint9_radial_18_10327)" d="M6.5 19.019c.03.003.062.004.094.004h8.39a1 1 0 0 0 1-1V13.93a1 1 0 0 0-1-1h-4.928L7.3 18.469a1 1 0 0 1-.8.55Z"/><path fill="url(#paint10_linear_18_10327)" d="M6.5 19.019c.03.003.062.004.094.004h8.39a1 1 0 0 0 1-1V13.93a1 1 0 0 0-1-1h-4.928L7.3 18.469a1 1 0 0 1-.8.55Z"/></g><path fill="url(#paint11_linear_18_10327)" fill-rule="evenodd" d="m23.93 12.93 2.736 5.536a1 1 0 0 0 .827.555 1.035 1.035 0 0 1-.07.002h-8.391a1 1 0 0 1-1-1V13.93a1 1 0 0 1 1-1h4.899Z" clip-rule="evenodd"/><path fill="url(#paint12_linear_18_10327)" fill-rule="evenodd" d="m23.93 12.93 2.736 5.536a1 1 0 0 0 .827.555 1.035 1.035 0 0 1-.07.002h-8.391a1 1 0 0 1-1-1V13.93a1 1 0 0 1 1-1h4.899Z" clip-rule="evenodd"/><path fill="url(#paint13_radial_18_10327)" fill-rule="evenodd" d="m23.93 12.93 2.736 5.536a1 1 0 0 0 .827.555 1.035 1.035 0 0 1-.07.002h-8.391a1 1 0 0 1-1-1V13.93a1 1 0 0 1 1-1h4.899Z" clip-rule="evenodd"/><path fill="url(#paint14_linear_18_10327)" fill-rule="evenodd" d="m23.93 12.93 2.736 5.536a1 1 0 0 0 .827.555 1.035 1.035 0 0 1-.07.002h-8.391a1 1 0 0 1-1-1V13.93a1 1 0 0 1 1-1h4.899Z" clip-rule="evenodd"/><g filter="url(#filter4_f_18_10327)"><path stroke="url(#paint15_linear_18_10327)" stroke-linecap="round" stroke-width=".6" d="M3.684 20.242H28.86"/></g><path fill="url(#paint16_linear_18_10327)" d="M16.027 10.02h1.965v1.02h-1.965z"/><path fill="url(#paint17_linear_18_10327)" d="M24.313 26.898H7.938v-7.875h16.375v7.875Z"/><path fill="url(#paint18_linear_18_10327)" d="M24.313 26.898H7.938v-7.875h16.375v7.875Z"/><path fill="url(#paint19_linear_18_10327)" d="M24.313 26.898H7.938v-7.875h16.375v7.875Z"/><g filter="url(#filter5_i_18_10327)"><path fill="url(#paint20_radial_18_10327)" d="M27.393 26.898h-7.794a3.922 3.922 0 1 1 7.794 0Z"/><path fill="url(#paint21_radial_18_10327)" d="M27.393 26.898h-7.794a3.922 3.922 0 1 1 7.794 0Z"/></g><g filter="url(#filter6_i_18_10327)"><path fill="url(#paint22_radial_18_10327)" d="M12.393 26.898H4.599a3.922 3.922 0 1 1 7.794 0Z"/></g><g filter="url(#filter7_i_18_10327)"><circle cx="8.496" cy="26.453" r="3.492" fill="url(#paint23_linear_18_10327)"/><circle cx="8.496" cy="26.453" r="3.492" fill="url(#paint24_radial_18_10327)"/></g><g filter="url(#filter8_f_18_10327)"><circle cx="8.786" cy="26.087" r="2.455" stroke="url(#paint25_linear_18_10327)" stroke-width=".75"/></g><circle cx="8.496" cy="26.453" r="1.289" fill="#D2CAE1"/><g filter="url(#filter9_i_18_10327)"><circle cx="23.496" cy="26.453" r="3.492" fill="url(#paint26_linear_18_10327)"/><circle cx="23.496" cy="26.453" r="3.492" fill="url(#paint27_radial_18_10327)"/></g><circle cx="23.496" cy="26.453" r="1.289" fill="#CEC6DE"/><g filter="url(#filter10_f_18_10327)"><circle cx="23.787" cy="26.174" r="2.455" stroke="url(#paint28_linear_18_10327)" stroke-width=".85" transform="rotate(6.56 23.787 26.174)"/></g><g filter="url(#filter11_f_18_10327)"><path fill="url(#paint29_linear_18_10327)" d="M11.567 20.168c-1.657.208-2.24-.759-2.376-1.137h2.543v.943c0 .098-.07.182-.167.194Z"/></g><g filter="url(#filter12_i_18_10327)"><path fill="url(#paint30_radial_18_10327)" d="M9.98 18.253a1.3 1.3 0 0 1 1.3-1.3h.14a.6.6 0 0 1 .6.6v1.956a.6.6 0 0 1-.6.6h-.14a1.3 1.3 0 0 1-1.3-1.3v-.556Z"/></g><path fill="url(#paint31_radial_18_10327)" d="M9.98 18.253a1.3 1.3 0 0 1 1.3-1.3h.14a.6.6 0 0 1 .6.6v1.956a.6.6 0 0 1-.6.6h-.14a1.3 1.3 0 0 1-1.3-1.3v-.556Z"/><g filter="url(#filter13_f_18_10327)"><circle cx="17.246" cy="8.662" r=".393" fill="url(#paint32_radial_18_10327)"/></g><defs><linearGradient id="paint0_linear_18_10327" x1="17.586" x2="17.577" y1="19.081" y2="18.537" gradientUnits="userSpaceOnUse"><stop stop-color="#2D3136"/><stop offset="1" stop-color="#2D3136" stop-opacity="0"/></linearGradient><linearGradient id="paint1_linear_18_10327" x1="6.934" x2="29.871" y1="24.18" y2="24.18" gradientUnits="userSpaceOnUse"><stop stop-color="#423F49"/><stop offset="1" stop-color="#37333D"/></linearGradient><linearGradient id="paint2_linear_18_10327" x1="16" x2="16" y1="26.898" y2="25.336" gradientUnits="userSpaceOnUse"><stop stop-color="#27163E"/><stop offset="1" stop-color="#27163E" stop-opacity="0"/></linearGradient><linearGradient id="paint3_linear_18_10327" x1="16" x2="16" y1="19.023" y2="20.68" gradientUnits="userSpaceOnUse"><stop stop-color="#585859"/><stop offset="1" stop-color="#585859" stop-opacity="0"/></linearGradient><linearGradient id="paint4_linear_18_10327" x1="17.992" x2="16.188" y1="9.01" y2="9.01" gradientUnits="userSpaceOnUse"><stop stop-color="#F33265"/><stop offset="1" stop-color="#F41C5B"/></linearGradient><linearGradient id="paint6_linear_18_10327" x1="28.512" x2="30.434" y1="20.867" y2="23.367" gradientUnits="userSpaceOnUse"><stop stop-color="#D51047"/><stop offset=".359" stop-color="#FF3F6D"/></linearGradient><linearGradient id="paint8_linear_18_10327" x1="8.505" x2="16.648" y1="17.421" y2="17.421" gradientUnits="userSpaceOnUse"><stop stop-color="#62C5FF"/><stop offset="1" stop-color="#58B9ED"/></linearGradient><linearGradient id="paint10_linear_18_10327" x1="8.566" x2="8.711" y1="15.938" y2="16.008" gradientUnits="userSpaceOnUse"><stop stop-color="#3EACED"/><stop offset="1" stop-color="#3EACED" stop-opacity="0"/></linearGradient><linearGradient id="paint11_linear_18_10327" x1="17.559" x2="26.871" y1="19.023" y2="19.023" gradientUnits="userSpaceOnUse"><stop stop-color="#6DFEFF"/><stop offset=".537" stop-color="#61C5FF"/></linearGradient><linearGradient id="paint12_linear_18_10327" x1="22.762" x2="22.762" y1="12.93" y2="14.492" gradientUnits="userSpaceOnUse"><stop stop-color="#1868C3"/><stop offset="1" stop-color="#1868C3" stop-opacity="0"/></linearGradient><linearGradient id="paint14_linear_18_10327" x1="25.77" x2="25.59" y1="16.633" y2="16.719" gradientUnits="userSpaceOnUse"><stop offset=".288" stop-color="#88DAFF"/><stop offset="1" stop-color="#88DAFF" stop-opacity="0"/></linearGradient><linearGradient id="paint15_linear_18_10327" x1="4.684" x2="24.309" y1="20.68" y2="20.68" gradientUnits="userSpaceOnUse"><stop stop-color="#7C7B7D"/><stop offset="1" stop-color="#7A7A7B"/></linearGradient><linearGradient id="paint16_linear_18_10327" x1="15.899" x2="17.992" y1="11.039" y2="11.039" gradientUnits="userSpaceOnUse"><stop stop-color="#878688"/><stop offset=".555" stop-color="#D9D8DB"/><stop offset=".809" stop-color="#D9D8DB"/><stop offset="1" stop-color="#C1C1C1"/></linearGradient><linearGradient id="paint17_linear_18_10327" x1="8.809" x2="25.371" y1="23.93" y2="23.867" gradientUnits="userSpaceOnUse"><stop stop-color="#C1BBCE"/><stop offset="1" stop-color="#BFB9CB"/></linearGradient><linearGradient id="paint18_linear_18_10327" x1="16.125" x2="16.125" y1="18.711" y2="26.898" gradientUnits="userSpaceOnUse"><stop offset=".015" stop-color="#BEC2C7"/><stop offset=".137" stop-color="#CFCDD4"/><stop offset=".168" stop-color="#CFCDD4"/><stop offset=".309" stop-color="#CFCDD4" stop-opacity="0"/></linearGradient><linearGradient id="paint19_linear_18_10327" x1="16.125" x2="16.125" y1="26.898" y2="25.43" gradientUnits="userSpaceOnUse"><stop stop-color="#7A5DA7"/><stop offset="1" stop-color="#7A5DA7" stop-opacity="0"/></linearGradient><linearGradient id="paint23_linear_18_10327" x1="6.886" x2="12.131" y1="25.575" y2="25.575" gradientUnits="userSpaceOnUse"><stop offset=".239" stop-color="#34214F"/><stop offset="1" stop-color="#241337"/></linearGradient><linearGradient id="paint25_linear_18_10327" x1="10.124" x2="7.141" y1="24.139" y2="28.258" gradientUnits="userSpaceOnUse"><stop offset=".083" stop-color="#615B6B"/><stop offset=".391" stop-color="#615B6B" stop-opacity="0"/><stop offset=".692" stop-color="#615B6B" stop-opacity="0"/><stop offset=".935" stop-color="#615B6B"/></linearGradient><linearGradient id="paint26_linear_18_10327" x1="21.886" x2="27.131" y1="25.575" y2="25.575" gradientUnits="userSpaceOnUse"><stop offset=".239" stop-color="#34214F"/><stop offset="1" stop-color="#241337"/></linearGradient><linearGradient id="paint28_linear_18_10327" x1="25.124" x2="22.141" y1="24.226" y2="28.346" gradientUnits="userSpaceOnUse"><stop offset=".083" stop-color="#615B6B"/><stop offset=".391" stop-color="#615B6B" stop-opacity="0"/><stop offset=".692" stop-color="#615B6B" stop-opacity="0"/><stop offset=".935" stop-color="#615B6B"/></linearGradient><linearGradient id="paint29_linear_18_10327" x1="11.342" x2="9.9" y1="20.145" y2="18.751" gradientUnits="userSpaceOnUse"><stop stop-color="#6E6283"/><stop offset=".669" stop-color="#71707C"/><stop offset="1" stop-color="#71707C" stop-opacity="0"/></linearGradient><filter id="filter0_ii_18_10327" width="22.219" height="9.797" x="5.871" y="11.039" color-interpolation-filters="sRGB" filterUnits="userSpaceOnUse"><feFlood flood-opacity="0" result="BackgroundImageFix"/><feBlend in="SourceGraphic" in2="BackgroundImageFix" result="shape"/><feColorMatrix in="SourceAlpha" result="hardAlpha" values="0 0 0 0 0 0 0 0 0 0 0 0 0 0 0 0 0 0 127 0"/><feOffset dx="-1"/><feGaussianBlur stdDeviation=".25"/><feComposite in2="hardAlpha" k2="-1" k3="1" operator="arithmetic"/><feColorMatrix values="0 0 0 0 0.462745 0 0 0 0 0.462745 0 0 0 0 0.466667 0 0 0 1 0"/><feBlend in2="shape" result="effect1_innerShadow_18_10327"/><feColorMatrix in="SourceAlpha" result="hardAlpha" values="0 0 0 0 0 0 0 0 0 0 0 0 0 0 0 0 0 0 127 0"/><feOffset dx="1.2" dy=".5"/><feGaussianBlur stdDeviation=".25"/><feComposite in2="hardAlpha" k2="-1" k3="1" operator="arithmetic"/><feColorMatrix values="0 0 0 0 0.282353 0 0 0 0 0.282353 0 0 0 0 0.286275 0 0 0 1 0"/><feBlend in2="effect1_innerShadow_18_10327" result="effect2_innerShadow_18_10327"/></filter><filter id="filter1_ii_18_10327" width="29.742" height="8.875" x="1.129" y="18.023" color-interpolation-filters="sRGB" filterUnits="userSpaceOnUse"><feFlood flood-opacity="0" result="BackgroundImageFix"/><feBlend in="SourceGraphic" in2="BackgroundImageFix" result="shape"/><feColorMatrix in="SourceAlpha" result="hardAlpha" values="0 0 0 0 0 0 0 0 0 0 0 0 0 0 0 0 0 0 127 0"/><feOffset dx="1" dy="-1"/><feGaussianBlur stdDeviation=".5"/><feComposite in2="hardAlpha" k2="-1" k3="1" operator="arithmetic"/><feColorMatrix values="0 0 0 0 0.176471 0 0 0 0 0.172549 0 0 0 0 0.184314 0 0 0 1 0"/><feBlend in2="shape" result="effect1_innerShadow_18_10327"/><feColorMatrix in="SourceAlpha" result="hardAlpha" values="0 0 0 0 0 0 0 0 0 0 0 0 0 0 0 0 0 0 127 0"/><feOffset dx="-1" dy="-1"/><feGaussianBlur stdDeviation=".5"/><feComposite in2="hardAlpha" k2="-1" k3="1" operator="arithmetic"/><feColorMatrix values="0 0 0 0 0.0588235 0 0 0 0 0.0588235 0 0 0 0 0.0666667 0 0 0 1 0"/><feBlend in2="effect1_innerShadow_18_10327" result="effect2_innerShadow_18_10327"/></filter><filter id="filter2_i_18_10327" width="2.065" height="2.367" x="16.027" y="8" color-interpolation-filters="sRGB" filterUnits="userSpaceOnUse"><feFlood flood-opacity="0" result="BackgroundImageFix"/><feBlend in="SourceGraphic" in2="BackgroundImageFix" result="shape"/><feColorMatrix in="SourceAlpha" result="hardAlpha" values="0 0 0 0 0 0 0 0 0 0 0 0 0 0 0 0 0 0 127 0"/><feOffset dx=".1"/><feGaussianBlur stdDeviation=".05"/><feComposite in2="hardAlpha" k2="-1" k3="1" operator="arithmetic"/><feColorMatrix values="0 0 0 0 0.74902 0 0 0 0 0.313726 0 0 0 0 0.392157 0 0 0 1 0"/><feBlend in2="shape" result="effect1_innerShadow_18_10327"/></filter><filter id="filter3_i_18_10327" width="10.085" height="6.694" x="5.899" y="12.93" color-interpolation-filters="sRGB" filterUnits="userSpaceOnUse"><feFlood flood-opacity="0" result="BackgroundImageFix"/><feBlend in="SourceGraphic" in2="BackgroundImageFix" result="shape"/><feColorMatrix in="SourceAlpha" result="hardAlpha" values="0 0 0 0 0 0 0 0 0 0 0 0 0 0 0 0 0 0 127 0"/><feOffset dx="-.6" dy=".8"/><feGaussianBlur stdDeviation=".3"/><feComposite in2="hardAlpha" k2="-1" k3="1" operator="arithmetic"/><feColorMatrix values="0 0 0 0 0.121569 0 0 0 0 0.490196 0 0 0 0 0.788235 0 0 0 1 0"/><feBlend in2="shape" result="effect1_innerShadow_18_10327"/></filter><filter id="filter4_f_18_10327" width="28.177" height="3" x="2.184" y="18.742" color-interpolation-filters="sRGB" filterUnits="userSpaceOnUse"><feFlood flood-opacity="0" result="BackgroundImageFix"/><feBlend in="SourceGraphic" in2="BackgroundImageFix" result="shape"/><feGaussianBlur result="effect1_foregroundBlur_18_10327" stdDeviation=".6"/></filter><filter id="filter5_i_18_10327" width="7.894" height="4.417" x="19.574" y="22.531" color-interpolation-filters="sRGB" filterUnits="userSpaceOnUse"><feFlood flood-opacity="0" result="BackgroundImageFix"/><feBlend in="SourceGraphic" in2="BackgroundImageFix" result="shape"/><feColorMatrix in="SourceAlpha" result="hardAlpha" values="0 0 0 0 0 0 0 0 0 0 0 0 0 0 0 0 0 0 127 0"/><feOffset dx=".05" dy=".05"/><feGaussianBlur stdDeviation=".05"/><feComposite in2="hardAlpha" k2="-1" k3="1" operator="arithmetic"/><feColorMatrix values="0 0 0 0 0.137255 0 0 0 0 0.117647 0 0 0 0 0.164706 0 0 0 1 0"/><feBlend in2="shape" result="effect1_innerShadow_18_10327"/></filter><filter id="filter6_i_18_10327" width="7.894" height="4.417" x="4.574" y="22.531" color-interpolation-filters="sRGB" filterUnits="userSpaceOnUse"><feFlood flood-opacity="0" result="BackgroundImageFix"/><feBlend in="SourceGraphic" in2="BackgroundImageFix" result="shape"/><feColorMatrix in="SourceAlpha" result="hardAlpha" values="0 0 0 0 0 0 0 0 0 0 0 0 0 0 0 0 0 0 127 0"/><feOffset dx=".05" dy=".05"/><feGaussianBlur stdDeviation=".05"/><feComposite in2="hardAlpha" k2="-1" k3="1" operator="arithmetic"/><feColorMatrix values="0 0 0 0 0.137255 0 0 0 0 0.117647 0 0 0 0 0.164706 0 0 0 1 0"/><feBlend in2="shape" result="effect1_innerShadow_18_10327"/></filter><filter id="filter7_i_18_10327" width="6.984" height="6.984" x="5.004" y="22.961" color-interpolation-filters="sRGB" filterUnits="userSpaceOnUse"><feFlood flood-opacity="0" result="BackgroundImageFix"/><feBlend in="SourceGraphic" in2="BackgroundImageFix" result="shape"/><feColorMatrix in="SourceAlpha" result="hardAlpha" values="0 0 0 0 0 0 0 0 0 0 0 0 0 0 0 0 0 0 127 0"/><feOffset/><feGaussianBlur stdDeviation=".5"/><feComposite in2="hardAlpha" k2="-1" k3="1" operator="arithmetic"/><feColorMatrix values="0 0 0 0 0.145098 0 0 0 0 0.0823529 0 0 0 0 0.215686 0 0 0 1 0"/><feBlend in2="shape" result="effect1_innerShadow_18_10327"/></filter><filter id="filter8_f_18_10327" width="7.161" height="7.161" x="5.206" y="22.506" color-interpolation-filters="sRGB" filterUnits="userSpaceOnUse"><feFlood flood-opacity="0" result="BackgroundImageFix"/><feBlend in="SourceGraphic" in2="BackgroundImageFix" result="shape"/><feGaussianBlur result="effect1_foregroundBlur_18_10327" stdDeviation=".375"/></filter><filter id="filter9_i_18_10327" width="6.984" height="6.984" x="20.004" y="22.961" color-interpolation-filters="sRGB" filterUnits="userSpaceOnUse"><feFlood flood-opacity="0" result="BackgroundImageFix"/><feBlend in="SourceGraphic" in2="BackgroundImageFix" result="shape"/><feColorMatrix in="SourceAlpha" result="hardAlpha" values="0 0 0 0 0 0 0 0 0 0 0 0 0 0 0 0 0 0 127 0"/><feOffset/><feGaussianBlur stdDeviation=".5"/><feComposite in2="hardAlpha" k2="-1" k3="1" operator="arithmetic"/><feColorMatrix values="0 0 0 0 0.145098 0 0 0 0 0.0823529 0 0 0 0 0.215686 0 0 0 1 0"/><feBlend in2="shape" result="effect1_innerShadow_18_10327"/></filter><filter id="filter10_f_18_10327" width="7.262" height="7.262" x="20.156" y="22.544" color-interpolation-filters="sRGB" filterUnits="userSpaceOnUse"><feFlood flood-opacity="0" result="BackgroundImageFix"/><feBlend in="SourceGraphic" in2="BackgroundImageFix" result="shape"/><feGaussianBlur result="effect1_foregroundBlur_18_10327" stdDeviation=".375"/></filter><filter id="filter11_f_18_10327" width="3.043" height="1.666" x="8.941" y="18.781" color-interpolation-filters="sRGB" filterUnits="userSpaceOnUse"><feFlood flood-opacity="0" result="BackgroundImageFix"/><feBlend in="SourceGraphic" in2="BackgroundImageFix" result="shape"/><feGaussianBlur result="effect1_foregroundBlur_18_10327" stdDeviation=".125"/></filter><filter id="filter12_i_18_10327" width="2.189" height="3.156" x="9.98" y="16.953" color-interpolation-filters="sRGB" filterUnits="userSpaceOnUse"><feFlood flood-opacity="0" result="BackgroundImageFix"/><feBlend in="SourceGraphic" in2="BackgroundImageFix" result="shape"/><feColorMatrix in="SourceAlpha" result="hardAlpha" values="0 0 0 0 0 0 0 0 0 0 0 0 0 0 0 0 0 0 127 0"/><feOffset dx=".15"/><feGaussianBlur stdDeviation=".25"/><feComposite in2="hardAlpha" k2="-1" k3="1" operator="arithmetic"/><feColorMatrix values="0 0 0 0 0.52549 0 0 0 0 0.521569 0 0 0 0 0.560784 0 0 0 1 0"/><feBlend in2="shape" result="effect1_innerShadow_18_10327"/></filter><filter id="filter13_f_18_10327" width="1.385" height="1.385" x="16.553" y="7.97" color-interpolation-filters="sRGB" filterUnits="userSpaceOnUse"><feFlood flood-opacity="0" result="BackgroundImageFix"/><feBlend in="SourceGraphic" in2="BackgroundImageFix" result="shape"/><feGaussianBlur result="effect1_foregroundBlur_18_10327" stdDeviation=".15"/></filter><radialGradient id="paint5_radial_18_10327" cx="0" cy="0" r="1" gradientTransform="matrix(0 -1.66406 .82031 0 17.379 10.438)" gradientUnits="userSpaceOnUse"><stop stop-color="#FF82A1"/><stop offset="1" stop-color="#FF82A1" stop-opacity="0"/></radialGradient><radialGradient id="paint7_radial_18_10327" cx="0" cy="0" r="1" gradientTransform="matrix(0 -2.59133 1.48548 0 2.573 23.647)" gradientUnits="userSpaceOnUse"><stop stop-color="#FFFF76"/><stop offset="1" stop-color="#F2D061"/></radialGradient><radialGradient id="paint9_radial_18_10327" cx="0" cy="0" r="1" gradientTransform="matrix(0 -4.35736 5.39313 0 14.434 19.42)" gradientUnits="userSpaceOnUse"><stop stop-color="#68DFFF"/><stop offset="1" stop-color="#68DFFF" stop-opacity="0"/></radialGradient><radialGradient id="paint13_radial_18_10327" cx="0" cy="0" r="1" gradientTransform="matrix(-1.78126 2.71874 -.63106 -.41346 24.746 12.929)" gradientUnits="userSpaceOnUse"><stop offset=".408" stop-color="#62C5FF"/><stop offset="1" stop-color="#62C5FF" stop-opacity="0"/></radialGradient><radialGradient id="paint20_radial_18_10327" cx="0" cy="0" r="1" gradientTransform="matrix(-1.62498 3.43751 -5.5919 -2.6434 24.934 23.46)" gradientUnits="userSpaceOnUse"><stop offset=".73" stop-color="#281E38"/><stop offset=".961" stop-color="#433A52"/></radialGradient><radialGradient id="paint21_radial_18_10327" cx="0" cy="0" r="1" gradientTransform="matrix(-.87294 -1.65156 2.9663 -1.56786 27.418 26.898)" gradientUnits="userSpaceOnUse"><stop stop-color="#36294B"/><stop offset="1" stop-color="#36294B" stop-opacity="0"/></radialGradient><radialGradient id="paint22_radial_18_10327" cx="0" cy="0" r="1" gradientTransform="matrix(-1.62498 3.43751 -5.5919 -2.6434 9.934 23.46)" gradientUnits="userSpaceOnUse"><stop offset=".73" stop-color="#281E38"/><stop offset=".961" stop-color="#433A52"/></radialGradient><radialGradient id="paint24_radial_18_10327" cx="0" cy="0" r="1" gradientTransform="matrix(.78906 -1.73437 1.8115 .82415 8.496 26.14)" gradientUnits="userSpaceOnUse"><stop offset=".523" stop-color="#2D114D"/><stop offset="1" stop-color="#2B1249" stop-opacity="0"/></radialGradient><radialGradient id="paint27_radial_18_10327" cx="0" cy="0" r="1" gradientTransform="matrix(.78906 -1.73437 1.8115 .82415 23.496 26.14)" gradientUnits="userSpaceOnUse"><stop offset=".523" stop-color="#2D114D"/><stop offset="1" stop-color="#2B1249" stop-opacity="0"/></radialGradient><radialGradient id="paint30_radial_18_10327" cx="0" cy="0" r="1" gradientTransform="rotate(-95.222 16.397 5.894) scale(5.18338 2.62089)" gradientUnits="userSpaceOnUse"><stop stop-color="#8678A1"/><stop offset="1" stop-color="#BFBBC6"/></radialGradient><radialGradient id="paint31_radial_18_10327" cx="0" cy="0" r="1" gradientTransform="matrix(0 2.29781 -.75394 0 12.02 16.72)" gradientUnits="userSpaceOnUse"><stop stop-color="#E1E0E5"/><stop offset="1" stop-color="#E1E0E5" stop-opacity="0"/></radialGradient><radialGradient id="paint32_radial_18_10327" cx="0" cy="0" r="1" gradientTransform="matrix(.45312 -.63281 .8994 .644 17.293 8.75)" gradientUnits="userSpaceOnUse"><stop stop-color="#FF87A4"/><stop offset="1" stop-color="#FF87A4" stop-opacity="0"/></radialGradient></defs></svg>