<svg xmlns="http://www.w3.org/2000/svg" width="32" height="32" fill="none" viewBox="0 0 32 32"><g filter="url(#filter0_i_3987_19845)"><circle cx="7.092" cy="18.059" r="3.113" fill="url(#paint0_radial_3987_19845)"/></g><g filter="url(#filter1_f_3987_19845)"><circle cx="7.092" cy="18.059" r="1.855" fill="url(#paint1_linear_3987_19845)"/></g><g filter="url(#filter2_i_3987_19845)"><circle cx="24.833" cy="18.059" r="3.113" fill="url(#paint2_linear_3987_19845)"/><circle cx="24.833" cy="18.059" r="3.113" fill="url(#paint3_radial_3987_19845)"/></g><g filter="url(#filter3_f_3987_19845)"><circle cx="24.833" cy="18.059" r="1.855" fill="#D79E81"/><circle cx="24.833" cy="18.059" r="1.855" fill="url(#paint4_radial_3987_19845)"/><circle cx="24.833" cy="18.059" r="1.855" fill="url(#paint5_radial_3987_19845)"/></g><g filter="url(#filter4_i_3987_19845)"><path fill="url(#paint6_linear_3987_19845)" d="M6.436 16.916c.03.002.06.003.091.003 0 0-.1-1.591-.2-2.685 0-.498.2-1.094.6-1.393l.3-.298c.5-.398.7-.995.7-1.591V9.36c0-.497.301-.895.801-.994 1.2-.299 3.701-.796 7.302-.796 3.601 0 6.102.497 7.302.796.4.099.8.497.8.994v1.591c0 .597.3 1.194.7 1.592.937.656.879 1.017.801 1.79-.1.995-.2 2.685-.2 2.685h.034L24.97 24.4c-.3 3.3-2.894 5.6-5.987 5.6h-5.987c-3.193 0-5.687-2.3-5.987-5.6l-.574-7.484Z"/><path fill="url(#paint7_radial_3987_19845)" d="M6.436 16.916c.03.002.06.003.091.003 0 0-.1-1.591-.2-2.685 0-.498.2-1.094.6-1.393l.3-.298c.5-.398.7-.995.7-1.591V9.36c0-.497.301-.895.801-.994 1.2-.299 3.701-.796 7.302-.796 3.601 0 6.102.497 7.302.796.4.099.8.497.8.994v1.591c0 .597.3 1.194.7 1.592.937.656.879 1.017.801 1.79-.1.995-.2 2.685-.2 2.685h.034L24.97 24.4c-.3 3.3-2.894 5.6-5.987 5.6h-5.987c-3.193 0-5.687-2.3-5.987-5.6l-.574-7.484Z"/><path fill="url(#paint8_linear_3987_19845)" d="M6.436 16.916c.03.002.06.003.091.003 0 0-.1-1.591-.2-2.685 0-.498.2-1.094.6-1.393l.3-.298c.5-.398.7-.995.7-1.591V9.36c0-.497.301-.895.801-.994 1.2-.299 3.701-.796 7.302-.796 3.601 0 6.102.497 7.302.796.4.099.8.497.8.994v1.591c0 .597.3 1.194.7 1.592.937.656.879 1.017.801 1.79-.1.995-.2 2.685-.2 2.685h.034L24.97 24.4c-.3 3.3-2.894 5.6-5.987 5.6h-5.987c-3.193 0-5.687-2.3-5.987-5.6l-.574-7.484Z"/><path fill="url(#paint9_radial_3987_19845)" d="M6.436 16.916c.03.002.06.003.091.003 0 0-.1-1.591-.2-2.685 0-.498.2-1.094.6-1.393l.3-.298c.5-.398.7-.995.7-1.591V9.36c0-.497.301-.895.801-.994 1.2-.299 3.701-.796 7.302-.796 3.601 0 6.102.497 7.302.796.4.099.8.497.8.994v1.591c0 .597.3 1.194.7 1.592.937.656.879 1.017.801 1.79-.1.995-.2 2.685-.2 2.685h.034L24.97 24.4c-.3 3.3-2.894 5.6-5.987 5.6h-5.987c-3.193 0-5.687-2.3-5.987-5.6l-.574-7.484Z"/><path fill="url(#paint10_radial_3987_19845)" d="M6.436 16.916c.03.002.06.003.091.003 0 0-.1-1.591-.2-2.685 0-.498.2-1.094.6-1.393l.3-.298c.5-.398.7-.995.7-1.591V9.36c0-.497.301-.895.801-.994 1.2-.299 3.701-.796 7.302-.796 3.601 0 6.102.497 7.302.796.4.099.8.497.8.994v1.591c0 .597.3 1.194.7 1.592.937.656.879 1.017.801 1.79-.1.995-.2 2.685-.2 2.685h.034L24.97 24.4c-.3 3.3-2.894 5.6-5.987 5.6h-5.987c-3.193 0-5.687-2.3-5.987-5.6l-.574-7.484Z"/></g><g filter="url(#filter5_i_3987_19845)"><path fill="#EBCC94" d="m24.933 5.979.8.397c1.4.697 2.2 2.288 1.9 3.979l-1.1 5.669c-.098.585-.485.98-1.066.994h-.034s.1-1.69.2-2.685c.081-.808-.06-1.054-.8-1.79-.4-.398-.7-.995-.7-1.591V9.36c0-.497-.4-.895-.8-.994-1.201-.299-3.702-.796-7.303-.796-3.6 0-6.102.497-7.302.796-.5.099-.8.497-.8.994v1.591c0 .597-.2 1.194-.7 1.592l-.3.298c-.4.299-.6.895-.6 1.393.1 1.094.2 2.685.2 2.685a1.181 1.181 0 0 1-1.2-.995l-1.101-5.669c-.2-1.591.6-3.182 2-3.879l.8-.397c.5-.299 1-.697 1.501-1.095l1.8-1.89c1.1-.994 2.701-1.292 4.102-.596 1 .298 2.1.298 3.1 0 1.501-.497 3.202-.1 4.402.995l1.5 1.491c.4.498.9.796 1.5 1.095Z"/><path fill="url(#paint11_radial_3987_19845)" d="m24.933 5.979.8.397c1.4.697 2.2 2.288 1.9 3.979l-1.1 5.669c-.098.585-.485.98-1.066.994h-.034s.1-1.69.2-2.685c.081-.808-.06-1.054-.8-1.79-.4-.398-.7-.995-.7-1.591V9.36c0-.497-.4-.895-.8-.994-1.201-.299-3.702-.796-7.303-.796-3.6 0-6.102.497-7.302.796-.5.099-.8.497-.8.994v1.591c0 .597-.2 1.194-.7 1.592l-.3.298c-.4.299-.6.895-.6 1.393.1 1.094.2 2.685.2 2.685a1.181 1.181 0 0 1-1.2-.995l-1.101-5.669c-.2-1.591.6-3.182 2-3.879l.8-.397c.5-.299 1-.697 1.501-1.095l1.8-1.89c1.1-.994 2.701-1.292 4.102-.596 1 .298 2.1.298 3.1 0 1.501-.497 3.202-.1 4.402.995l1.5 1.491c.4.498.9.796 1.5 1.095Z"/><path fill="url(#paint12_linear_3987_19845)" d="m24.933 5.979.8.397c1.4.697 2.2 2.288 1.9 3.979l-1.1 5.669c-.098.585-.485.98-1.066.994h-.034s.1-1.69.2-2.685c.081-.808-.06-1.054-.8-1.79-.4-.398-.7-.995-.7-1.591V9.36c0-.497-.4-.895-.8-.994-1.201-.299-3.702-.796-7.303-.796-3.6 0-6.102.497-7.302.796-.5.099-.8.497-.8.994v1.591c0 .597-.2 1.194-.7 1.592l-.3.298c-.4.299-.6.895-.6 1.393.1 1.094.2 2.685.2 2.685a1.181 1.181 0 0 1-1.2-.995l-1.101-5.669c-.2-1.591.6-3.182 2-3.879l.8-.397c.5-.299 1-.697 1.501-1.095l1.8-1.89c1.1-.994 2.701-1.292 4.102-.596 1 .298 2.1.298 3.1 0 1.501-.497 3.202-.1 4.402.995l1.5 1.491c.4.498.9.796 1.5 1.095Z"/><path fill="url(#paint13_radial_3987_19845)" d="m24.933 5.979.8.397c1.4.697 2.2 2.288 1.9 3.979l-1.1 5.669c-.098.585-.485.98-1.066.994h-.034s.1-1.69.2-2.685c.081-.808-.06-1.054-.8-1.79-.4-.398-.7-.995-.7-1.591V9.36c0-.497-.4-.895-.8-.994-1.201-.299-3.702-.796-7.303-.796-3.6 0-6.102.497-7.302.796-.5.099-.8.497-.8.994v1.591c0 .597-.2 1.194-.7 1.592l-.3.298c-.4.299-.6.895-.6 1.393.1 1.094.2 2.685.2 2.685a1.181 1.181 0 0 1-1.2-.995l-1.101-5.669c-.2-1.591.6-3.182 2-3.879l.8-.397c.5-.299 1-.697 1.501-1.095l1.8-1.89c1.1-.994 2.701-1.292 4.102-.596 1 .298 2.1.298 3.1 0 1.501-.497 3.202-.1 4.402.995l1.5 1.491c.4.498.9.796 1.5 1.095Z"/><path fill="url(#paint14_radial_3987_19845)" d="m24.933 5.979.8.397c1.4.697 2.2 2.288 1.9 3.979l-1.1 5.669c-.098.585-.485.98-1.066.994h-.034s.1-1.69.2-2.685c.081-.808-.06-1.054-.8-1.79-.4-.398-.7-.995-.7-1.591V9.36c0-.497-.4-.895-.8-.994-1.201-.299-3.702-.796-7.303-.796-3.6 0-6.102.497-7.302.796-.5.099-.8.497-.8.994v1.591c0 .597-.2 1.194-.7 1.592l-.3.298c-.4.299-.6.895-.6 1.393.1 1.094.2 2.685.2 2.685a1.181 1.181 0 0 1-1.2-.995l-1.101-5.669c-.2-1.591.6-3.182 2-3.879l.8-.397c.5-.299 1-.697 1.501-1.095l1.8-1.89c1.1-.994 2.701-1.292 4.102-.596 1 .298 2.1.298 3.1 0 1.501-.497 3.202-.1 4.402.995l1.5 1.491c.4.498.9.796 1.5 1.095Z"/><path fill="url(#paint15_radial_3987_19845)" d="m24.933 5.979.8.397c1.4.697 2.2 2.288 1.9 3.979l-1.1 5.669c-.098.585-.485.98-1.066.994h-.034s.1-1.69.2-2.685c.081-.808-.06-1.054-.8-1.79-.4-.398-.7-.995-.7-1.591V9.36c0-.497-.4-.895-.8-.994-1.201-.299-3.702-.796-7.303-.796-3.6 0-6.102.497-7.302.796-.5.099-.8.497-.8.994v1.591c0 .597-.2 1.194-.7 1.592l-.3.298c-.4.299-.6.895-.6 1.393.1 1.094.2 2.685.2 2.685a1.181 1.181 0 0 1-1.2-.995l-1.101-5.669c-.2-1.591.6-3.182 2-3.879l.8-.397c.5-.299 1-.697 1.501-1.095l1.8-1.89c1.1-.994 2.701-1.292 4.102-.596 1 .298 2.1.298 3.1 0 1.501-.497 3.202-.1 4.402.995l1.5 1.491c.4.498.9.796 1.5 1.095Z"/></g><path fill="url(#paint16_radial_3987_19845)" d="m24.933 5.979.8.397c1.4.697 2.2 2.288 1.9 3.979l-1.1 5.669c-.098.585-.485.98-1.066.994h-.034s.1-1.69.2-2.685c.081-.808-.06-1.054-.8-1.79-.4-.398-.7-.995-.7-1.591V9.36c0-.497-.4-.895-.8-.994-1.201-.299-3.702-.796-7.303-.796-3.6 0-6.102.497-7.302.796-.5.099-.8.497-.8.994v1.591c0 .597-.2 1.194-.7 1.592l-.3.298c-.4.299-.6.895-.6 1.393.1 1.094.2 2.685.2 2.685a1.181 1.181 0 0 1-1.2-.995l-1.101-5.669c-.2-1.591.6-3.182 2-3.879l.8-.397c.5-.299 1-.697 1.501-1.095l1.8-1.89c1.1-.994 2.701-1.292 4.102-.596 1 .298 2.1.298 3.1 0 1.501-.497 3.202-.1 4.402.995l1.5 1.491c.4.498.9.796 1.5 1.095Z"/><path fill="url(#paint17_radial_3987_19845)" d="m24.933 5.979.8.397c1.4.697 2.2 2.288 1.9 3.979l-1.1 5.669c-.098.585-.485.98-1.066.994h-.034s.1-1.69.2-2.685c.081-.808-.06-1.054-.8-1.79-.4-.398-.7-.995-.7-1.591V9.36c0-.497-.4-.895-.8-.994-1.201-.299-3.702-.796-7.303-.796-3.6 0-6.102.497-7.302.796-.5.099-.8.497-.8.994v1.591c0 .597-.2 1.194-.7 1.592l-.3.298c-.4.299-.6.895-.6 1.393.1 1.094.2 2.685.2 2.685a1.181 1.181 0 0 1-1.2-.995l-1.101-5.669c-.2-1.591.6-3.182 2-3.879l.8-.397c.5-.299 1-.697 1.501-1.095l1.8-1.89c1.1-.994 2.701-1.292 4.102-.596 1 .298 2.1.298 3.1 0 1.501-.497 3.202-.1 4.402.995l1.5 1.491c.4.498.9.796 1.5 1.095Z"/><g filter="url(#filter6_f_3987_19845)"><path fill="#C68378" d="M15.433 17.83 13.903 21c-.19.652.266 1.304.91 1.304h1.375c.645 0 1.1-.662.91-1.304l-.929-3.17c-.199-.701-.527-.701-.736 0Z"/></g><g filter="url(#filter7_f_3987_19845)"><path fill="#E4AC8F" d="m15.233 17.527-.99 3.17a1.005 1.005 0 0 0 .97 1.303h1.466c.688 0 1.173-.662.971-1.304l-.99-3.17c-.213-.701-1.204-.701-1.427 0Z"/><path fill="url(#paint18_linear_3987_19845)" d="m15.233 17.527-.99 3.17a1.005 1.005 0 0 0 .97 1.303h1.466c.688 0 1.173-.662.971-1.304l-.99-3.17c-.213-.701-1.204-.701-1.427 0Z"/><path fill="url(#paint19_linear_3987_19845)" d="m15.233 17.527-.99 3.17a1.005 1.005 0 0 0 .97 1.303h1.466c.688 0 1.173-.662.971-1.304l-.99-3.17c-.213-.701-1.204-.701-1.427 0Z"/><path fill="url(#paint20_linear_3987_19845)" d="m15.233 17.527-.99 3.17a1.005 1.005 0 0 0 .97 1.303h1.466c.688 0 1.173-.662.971-1.304l-.99-3.17c-.213-.701-1.204-.701-1.427 0Z"/></g><path fill="url(#paint21_linear_3987_19845)" d="m15.233 17.527-.99 3.17a1.005 1.005 0 0 0 .97 1.303h1.466c.688 0 1.173-.662.971-1.304l-.99-3.17c-.213-.701-1.204-.701-1.427 0Z"/><path fill="#88024E" stroke="url(#paint22_linear_3987_19845)" stroke-width=".1" d="M13.65 23.596a.317.317 0 0 0-.378.066.289.289 0 0 0-.032.371 3.352 3.352 0 0 0 2.803 1.498c1.177 0 2.21-.6 2.803-1.498a.292.292 0 0 0-.032-.375.317.317 0 0 0-.378-.062 5.164 5.164 0 0 1-2.393.568 5.19 5.19 0 0 1-2.393-.568Z"/><g filter="url(#filter8_i_3987_19845)"><path fill="#9A6634" d="m22.883 12.986-.002-.002-.004-.002-.008-.007-.023-.018a3.698 3.698 0 0 0-.289-.2 4.816 4.816 0 0 0-.782-.394 5.282 5.282 0 0 0-2.784-.295.995.995 0 1 0 .31 1.966 3.293 3.293 0 0 1 1.742.18 2.832 2.832 0 0 1 .56.298l.015.011a.995.995 0 0 0 1.265-1.537Z"/></g><g filter="url(#filter9_i_3987_19845)"><path fill="#9A6634" d="M8.91 12.987v-.001l.002-.002.004-.002.008-.007.022-.018.067-.05a4.804 4.804 0 0 1 1.005-.544 5.282 5.282 0 0 1 2.784-.295.995.995 0 1 1-.31 1.966 3.294 3.294 0 0 0-1.742.18 2.836 2.836 0 0 0-.56.298.995.995 0 1 1-1.28-1.525Z"/></g><path fill="#fff" d="M20.4 15.39c1.217 0 2.245.84 2.525 1.975a.511.511 0 0 1-.499.635h-4.16a.43.43 0 0 1-.423-.507 2.606 2.606 0 0 1 2.556-2.102Z"/><path fill="url(#paint23_radial_3987_19845)" d="M20.013 15.897A1.664 1.664 0 0 1 21.617 18h-3.215a1.706 1.706 0 0 1-.06-.439 1.67 1.67 0 0 1 1.671-1.664Z"/><path fill="#000" d="M19.06 17.561c0-.53.424-.953.953-.953.53 0 .953.424.953.953a.94.94 0 0 1-.106.439h-1.686a.862.862 0 0 1-.113-.439Z"/><g filter="url(#filter10_f_3987_19845)"><path fill="#C7A7A3" d="M19.891 16.25c.119.158-.13.351-.41.562-.283.21-.492.359-.61.2-.119-.159.014-.458.295-.669.282-.21.607-.252.725-.094Z"/><path fill="url(#paint24_radial_3987_19845)" d="M19.891 16.25c.119.158-.13.351-.41.562-.283.21-.492.359-.61.2-.119-.159.014-.458.295-.669.282-.21.607-.252.725-.094Z"/></g><g filter="url(#filter11_f_3987_19845)"><path fill="url(#paint25_linear_3987_19845)" d="M21.495 17.342a1.566 1.566 0 0 0-.43-.862l-.485.531.218.426.698-.095Z"/></g><path fill="#fff" d="M11.484 15.39c-1.218 0-2.247.84-2.526 1.975a.511.511 0 0 0 .499.635h4.16a.43.43 0 0 0 .423-.507 2.612 2.612 0 0 0-2.556-2.102Z"/><path fill="url(#paint26_radial_3987_19845)" d="M11.87 15.897A1.664 1.664 0 0 0 10.265 18h3.214c.038-.144.061-.287.061-.439a1.675 1.675 0 0 0-1.671-1.664Z"/><path fill="#000" d="M12.822 17.561a.949.949 0 0 0-.952-.953.949.949 0 0 0-.954.953c0 .16.038.31.106.439h1.687a.946.946 0 0 0 .114-.439Z"/><g filter="url(#filter12_f_3987_19845)"><path fill="url(#paint27_linear_3987_19845)" d="M13.39 17.366c0-.538-.438-.896-.556-1.005l-.537.52.33.674.763-.19Z"/></g><g filter="url(#filter13_f_3987_19845)" transform="rotate(-27.914 11.367 16.608)"><ellipse cx="11.367" cy="16.608" fill="#C7A7A3" fill-opacity=".9" rx=".726" ry=".368"/><ellipse cx="11.367" cy="16.608" fill="url(#paint28_radial_3987_19845)" rx=".726" ry=".368"/></g><g filter="url(#filter14_f_3987_19845)"><path stroke="url(#paint29_linear_3987_19845)" stroke-linecap="round" stroke-width=".5" d="M19.043 12.717c.802-.14 2.366-.1 3.449.742"/></g><g filter="url(#filter15_f_3987_19845)"><path stroke="url(#paint30_linear_3987_19845)" stroke-linecap="round" stroke-width=".5" d="M9.31 13.684c.61-.54 1.942-1.107 3.593-.844"/></g><g filter="url(#filter16_iii_3987_19845)"><path fill="url(#paint31_linear_3987_19845)" d="m25.763 14.134-.703 10.2c-.3 3.3-2.51 5.666-6.023 5.666h-6.023C9.5 30 7.29 27.634 6.99 24.334l-.663-9.345L9.4 23.034c.1.5.703.6 1.004.3l.803-.7c.703-.6 1.506-.8 2.31-.8h5.019c.904 0 1.707.2 2.309.8l.803.7c.301.3.904.1 1.004-.3l3.112-8.9Zm-12.75 11.7c0 .9.804 1.7 1.807 1.7.201 0 .302-.2.302-.3v-.1c0-.5.401-.9.903-.9s.904.4.904.9v.1c0 .2.2.3.3.3.905 0 1.808-.7 1.808-1.7v-1.5c0-.5-.347-.9-1.004-.9h-4.016c-.636 0-1.003.4-1.003.9v1.5Z"/></g><path fill="url(#paint32_linear_3987_19845)" d="m25.763 14.134-.703 10.2c-.3 3.3-2.51 5.666-6.023 5.666h-6.023C9.5 30 7.29 27.634 6.99 24.334l-.663-9.345L9.4 23.034c.1.5.703.6 1.004.3l.803-.7c.703-.6 1.506-.8 2.31-.8h5.019c.904 0 1.707.2 2.309.8l.803.7c.301.3.904.1 1.004-.3l3.112-8.9Zm-12.75 11.7c0 .9.804 1.7 1.807 1.7.201 0 .302-.2.302-.3v-.1c0-.5.401-.9.903-.9s.904.4.904.9v.1c0 .2.2.3.3.3.905 0 1.808-.7 1.808-1.7v-1.5c0-.5-.347-.9-1.004-.9h-4.016c-.636 0-1.003.4-1.003.9v1.5Z"/><path fill="url(#paint33_radial_3987_19845)" d="m25.763 14.134-.703 10.2c-.3 3.3-2.51 5.666-6.023 5.666h-6.023C9.5 30 7.29 27.634 6.99 24.334l-.663-9.345L9.4 23.034c.1.5.703.6 1.004.3l.803-.7c.703-.6 1.506-.8 2.31-.8h5.019c.904 0 1.707.2 2.309.8l.803.7c.301.3.904.1 1.004-.3l3.112-8.9Zm-12.75 11.7c0 .9.804 1.7 1.807 1.7.201 0 .302-.2.302-.3v-.1c0-.5.401-.9.903-.9s.904.4.904.9v.1c0 .2.2.3.3.3.905 0 1.808-.7 1.808-1.7v-1.5c0-.5-.347-.9-1.004-.9h-4.016c-.636 0-1.003.4-1.003.9v1.5Z"/><defs><radialGradient id="paint0_radial_3987_19845" cx="0" cy="0" r="1" gradientTransform="matrix(3.27255 0 0 5.72699 3.979 18.059)" gradientUnits="userSpaceOnUse"><stop offset=".351" stop-color="#C28775"/><stop offset="1" stop-color="#BA7867"/></radialGradient><radialGradient id="paint3_radial_3987_19845" cx="0" cy="0" r="1" gradientTransform="matrix(1.54168 -1.12256 1.28126 1.75963 25.527 17.564)" gradientUnits="userSpaceOnUse"><stop offset=".543" stop-color="#E3AB88"/><stop offset="1" stop-color="#E3AB88" stop-opacity="0"/></radialGradient><radialGradient id="paint4_radial_3987_19845" cx="0" cy="0" r="1" gradientTransform="matrix(1.53153 -2.8169 1.64874 .8964 24.756 19.59)" gradientUnits="userSpaceOnUse"><stop offset=".69" stop-color="#D79A76" stop-opacity="0"/><stop offset="1" stop-color="#D79A76"/></radialGradient><radialGradient id="paint5_radial_3987_19845" cx="0" cy="0" r="1" gradientTransform="rotate(44.708 -9.54 39.223) scale(.68036 .87707)" gradientUnits="userSpaceOnUse"><stop stop-color="#CB8E6D"/><stop offset="1" stop-color="#CB8E6D" stop-opacity="0"/></radialGradient><radialGradient id="paint7_radial_3987_19845" cx="0" cy="0" r="1" gradientTransform="rotate(97.214 1.975 15.336) scale(15.9482 21.6489)" gradientUnits="userSpaceOnUse"><stop offset=".701" stop-color="#B57195" stop-opacity="0"/><stop offset="1" stop-color="#B57195"/></radialGradient><radialGradient id="paint9_radial_3987_19845" cx="0" cy="0" r="1" gradientTransform="matrix(0 -2.4375 3 0 20.321 15.688)" gradientUnits="userSpaceOnUse"><stop stop-color="#E2A18C"/><stop offset="1" stop-color="#E2A18C" stop-opacity="0"/></radialGradient><radialGradient id="paint10_radial_3987_19845" cx="0" cy="0" r="1" gradientTransform="matrix(0 -2.59375 3.22556 0 11.821 15.625)" gradientUnits="userSpaceOnUse"><stop stop-color="#C2837A"/><stop offset="1" stop-color="#C2837A" stop-opacity="0"/></radialGradient><radialGradient id="paint11_radial_3987_19845" cx="0" cy="0" r="1" gradientTransform="matrix(-6.4087 8.25997 -14.04691 -10.89865 22.832 3.675)" gradientUnits="userSpaceOnUse"><stop stop-color="#FFFFC2"/><stop offset="1" stop-color="#FFFFC2" stop-opacity="0"/></radialGradient><radialGradient id="paint13_radial_3987_19845" cx="0" cy="0" r="1" gradientTransform="matrix(-.12461 -3.47136 1.70486 -.0612 8.127 11.615)" gradientUnits="userSpaceOnUse"><stop offset=".227" stop-color="#EEC19C"/><stop offset="1" stop-color="#EEC19C" stop-opacity="0"/></radialGradient><radialGradient id="paint14_radial_3987_19845" cx="0" cy="0" r="1" gradientTransform="matrix(1.60216 -3.6672 2.99087 1.30668 23.829 14.818)" gradientUnits="userSpaceOnUse"><stop offset=".479" stop-color="#E3AB85"/><stop offset="1" stop-color="#E3AB85" stop-opacity="0"/></radialGradient><radialGradient id="paint15_radial_3987_19845" cx="0" cy="0" r="1" gradientTransform="matrix(1.85139 2.29723 -2.0283 1.63465 14.5 2.019)" gradientUnits="userSpaceOnUse"><stop stop-color="#FBECAF"/><stop offset="1" stop-color="#FBECAF" stop-opacity="0"/></radialGradient><radialGradient id="paint16_radial_3987_19845" cx="0" cy="0" r="1" gradientTransform="rotate(76.961 7.351 11.855) scale(1.4992 2.4647)" gradientUnits="userSpaceOnUse"><stop offset=".208" stop-color="#E1D19F"/><stop offset="1" stop-color="#E1D19F" stop-opacity="0"/></radialGradient><radialGradient id="paint17_radial_3987_19845" cx="0" cy="0" r="1" gradientTransform="matrix(1.35294 1.67337 -3.7494 3.03145 7.843 5.242)" gradientUnits="userSpaceOnUse"><stop stop-color="#DCC291"/><stop offset="1" stop-color="#DCC291" stop-opacity="0"/></radialGradient><radialGradient id="paint23_radial_3987_19845" cx="0" cy="0" r="1" gradientTransform="matrix(0 1.68424 -1.9929 0 20.01 17.409)" gradientUnits="userSpaceOnUse"><stop offset=".75" stop-color="#925C51"/><stop offset="1" stop-color="#694B43"/><stop offset="1" stop-color="#804D49"/><stop offset="1" stop-color="#85534D"/></radialGradient><radialGradient id="paint24_radial_3987_19845" cx="0" cy="0" r="1" gradientTransform="rotate(-127.812 13.941 3.676) scale(.70528 .97101)" gradientUnits="userSpaceOnUse"><stop offset=".766" stop-color="#FFE6E2" stop-opacity="0"/><stop offset=".966" stop-color="#FFE6E2"/></radialGradient><radialGradient id="paint26_radial_3987_19845" cx="0" cy="0" r="1" gradientTransform="matrix(0 1.68433 -1.993 0 11.873 17.409)" gradientUnits="userSpaceOnUse"><stop offset=".75" stop-color="#925C51"/><stop offset="1" stop-color="#694B43"/><stop offset="1" stop-color="#804D49"/><stop offset="1" stop-color="#85534D"/></radialGradient><radialGradient id="paint28_radial_3987_19845" cx="0" cy="0" r="1" gradientTransform="rotate(-90.897 14.134 3.016) scale(.92129 1.10743)" gradientUnits="userSpaceOnUse"><stop offset=".766" stop-color="#FFE6E2" stop-opacity="0"/><stop offset=".966" stop-color="#FFE6E2"/></radialGradient><radialGradient id="paint33_radial_3987_19845" cx="0" cy="0" r="1" gradientTransform="matrix(0 10.0625 -20.1889 0 15.875 20.156)" gradientUnits="userSpaceOnUse"><stop offset=".776" stop-color="#E9AC9D" stop-opacity="0"/><stop offset=".978" stop-color="#CC88A2"/></radialGradient><filter id="filter0_i_3987_19845" width="6.427" height="6.227" x="3.979" y="14.945" color-interpolation-filters="sRGB" filterUnits="userSpaceOnUse"><feFlood flood-opacity="0" result="BackgroundImageFix"/><feBlend in="SourceGraphic" in2="BackgroundImageFix" result="shape"/><feColorMatrix in="SourceAlpha" result="hardAlpha" values="0 0 0 0 0 0 0 0 0 0 0 0 0 0 0 0 0 0 127 0"/><feOffset dx=".2"/><feGaussianBlur stdDeviation=".2"/><feComposite in2="hardAlpha" k2="-1" k3="1" operator="arithmetic"/><feColorMatrix values="0 0 0 0 0.866667 0 0 0 0 0.643137 0 0 0 0 0.533333 0 0 0 1 0"/><feBlend in2="shape" result="effect1_innerShadow_3987_19845"/></filter><filter id="filter1_f_3987_19845" width="4.711" height="4.711" x="4.737" y="15.703" color-interpolation-filters="sRGB" filterUnits="userSpaceOnUse"><feFlood flood-opacity="0" result="BackgroundImageFix"/><feBlend in="SourceGraphic" in2="BackgroundImageFix" result="shape"/><feGaussianBlur result="effect1_foregroundBlur_3987_19845" stdDeviation=".25"/></filter><filter id="filter2_i_3987_19845" width="6.477" height="6.477" x="21.72" y="14.695" color-interpolation-filters="sRGB" filterUnits="userSpaceOnUse"><feFlood flood-opacity="0" result="BackgroundImageFix"/><feBlend in="SourceGraphic" in2="BackgroundImageFix" result="shape"/><feColorMatrix in="SourceAlpha" result="hardAlpha" values="0 0 0 0 0 0 0 0 0 0 0 0 0 0 0 0 0 0 127 0"/><feOffset dx=".25" dy="-.25"/><feGaussianBlur stdDeviation=".25"/><feComposite in2="hardAlpha" k2="-1" k3="1" operator="arithmetic"/><feColorMatrix values="0 0 0 0 0.768627 0 0 0 0 0.529412 0 0 0 0 0.505882 0 0 0 1 0"/><feBlend in2="shape" result="effect1_innerShadow_3987_19845"/></filter><filter id="filter3_f_3987_19845" width="4.711" height="4.711" x="22.478" y="15.703" color-interpolation-filters="sRGB" filterUnits="userSpaceOnUse"><feFlood flood-opacity="0" result="BackgroundImageFix"/><feBlend in="SourceGraphic" in2="BackgroundImageFix" result="shape"/><feGaussianBlur result="effect1_foregroundBlur_3987_19845" stdDeviation=".25"/></filter><filter id="filter4_i_3987_19845" width="19.345" height="22.68" x="6.327" y="7.57" color-interpolation-filters="sRGB" filterUnits="userSpaceOnUse"><feFlood flood-opacity="0" result="BackgroundImageFix"/><feBlend in="SourceGraphic" in2="BackgroundImageFix" result="shape"/><feColorMatrix in="SourceAlpha" result="hardAlpha" values="0 0 0 0 0 0 0 0 0 0 0 0 0 0 0 0 0 0 127 0"/><feOffset dy=".25"/><feGaussianBlur stdDeviation=".25"/><feComposite in2="hardAlpha" k2="-1" k3="1" operator="arithmetic"/><feColorMatrix values="0 0 0 0 0.752941 0 0 0 0 0.501961 0 0 0 0 0.34902 0 0 0 1 0"/><feBlend in2="shape" result="effect1_innerShadow_3987_19845"/></filter><filter id="filter5_i_3987_19845" width="23.5" height="15.5" x="4.196" y="1.519" color-interpolation-filters="sRGB" filterUnits="userSpaceOnUse"><feFlood flood-opacity="0" result="BackgroundImageFix"/><feBlend in="SourceGraphic" in2="BackgroundImageFix" result="shape"/><feColorMatrix in="SourceAlpha" result="hardAlpha" values="0 0 0 0 0 0 0 0 0 0 0 0 0 0 0 0 0 0 127 0"/><feOffset dy="-.5"/><feGaussianBlur stdDeviation=".375"/><feComposite in2="hardAlpha" k2="-1" k3="1" operator="arithmetic"/><feColorMatrix values="0 0 0 0 0.858824 0 0 0 0 0.690196 0 0 0 0 0.533333 0 0 0 1 0"/><feBlend in2="shape" result="effect1_innerShadow_3987_19845"/></filter><filter id="filter6_f_3987_19845" width="4.782" height="6.5" x="13.11" y="16.554" color-interpolation-filters="sRGB" filterUnits="userSpaceOnUse"><feFlood flood-opacity="0" result="BackgroundImageFix"/><feBlend in="SourceGraphic" in2="BackgroundImageFix" result="shape"/><feGaussianBlur result="effect1_foregroundBlur_3987_19845" stdDeviation=".375"/></filter><filter id="filter7_f_3987_19845" width="4" height="5.5" x="13.946" y="16.75" color-interpolation-filters="sRGB" filterUnits="userSpaceOnUse"><feFlood flood-opacity="0" result="BackgroundImageFix"/><feBlend in="SourceGraphic" in2="BackgroundImageFix" result="shape"/><feGaussianBlur result="effect1_foregroundBlur_3987_19845" stdDeviation=".125"/></filter><filter id="filter8_i_3987_19845" width="5.34" height="3.147" x="18.151" y="11.6" color-interpolation-filters="sRGB" filterUnits="userSpaceOnUse"><feFlood flood-opacity="0" result="BackgroundImageFix"/><feBlend in="SourceGraphic" in2="BackgroundImageFix" result="shape"/><feColorMatrix in="SourceAlpha" result="hardAlpha" values="0 0 0 0 0 0 0 0 0 0 0 0 0 0 0 0 0 0 127 0"/><feOffset dx=".25" dy="-.4"/><feGaussianBlur stdDeviation=".3"/><feComposite in2="hardAlpha" k2="-1" k3="1" operator="arithmetic"/><feColorMatrix values="0 0 0 0 0.47451 0 0 0 0 0.262745 0 0 0 0 0.168627 0 0 0 1 0"/><feBlend in2="shape" result="effect1_innerShadow_3987_19845"/></filter><filter id="filter9_i_3987_19845" width="5.341" height="3.147" x="8.551" y="11.6" color-interpolation-filters="sRGB" filterUnits="userSpaceOnUse"><feFlood flood-opacity="0" result="BackgroundImageFix"/><feBlend in="SourceGraphic" in2="BackgroundImageFix" result="shape"/><feColorMatrix in="SourceAlpha" result="hardAlpha" values="0 0 0 0 0 0 0 0 0 0 0 0 0 0 0 0 0 0 127 0"/><feOffset dx=".25" dy="-.4"/><feGaussianBlur stdDeviation=".3"/><feComposite in2="hardAlpha" k2="-1" k3="1" operator="arithmetic"/><feColorMatrix values="0 0 0 0 0.47451 0 0 0 0 0.262745 0 0 0 0 0.168627 0 0 0 1 0"/><feBlend in2="shape" result="effect1_innerShadow_3987_19845"/></filter><filter id="filter10_f_3987_19845" width="1.294" height="1.125" x="18.727" y="16.053" color-interpolation-filters="sRGB" filterUnits="userSpaceOnUse"><feFlood flood-opacity="0" result="BackgroundImageFix"/><feBlend in="SourceGraphic" in2="BackgroundImageFix" result="shape"/><feGaussianBlur result="effect1_foregroundBlur_3987_19845" stdDeviation=".05"/></filter><filter id="filter11_f_3987_19845" width="1.316" height="1.357" x="20.38" y="16.28" color-interpolation-filters="sRGB" filterUnits="userSpaceOnUse"><feFlood flood-opacity="0" result="BackgroundImageFix"/><feBlend in="SourceGraphic" in2="BackgroundImageFix" result="shape"/><feGaussianBlur result="effect1_foregroundBlur_3987_19845" stdDeviation=".1"/></filter><filter id="filter12_f_3987_19845" width="1.493" height="1.594" x="12.097" y="16.161" color-interpolation-filters="sRGB" filterUnits="userSpaceOnUse"><feFlood flood-opacity="0" result="BackgroundImageFix"/><feBlend in="SourceGraphic" in2="BackgroundImageFix" result="shape"/><feGaussianBlur result="effect1_foregroundBlur_3987_19845" stdDeviation=".1"/></filter><filter id="filter13_f_3987_19845" width="1.529" height="1.141" x="10.603" y="16.038" color-interpolation-filters="sRGB" filterUnits="userSpaceOnUse"><feFlood flood-opacity="0" result="BackgroundImageFix"/><feBlend in="SourceGraphic" in2="BackgroundImageFix" result="shape"/><feGaussianBlur result="effect1_foregroundBlur_3987_19845" stdDeviation=".05"/></filter><filter id="filter14_f_3987_19845" width="4.949" height="2.304" x="18.293" y="11.905" color-interpolation-filters="sRGB" filterUnits="userSpaceOnUse"><feFlood flood-opacity="0" result="BackgroundImageFix"/><feBlend in="SourceGraphic" in2="BackgroundImageFix" result="shape"/><feGaussianBlur result="effect1_foregroundBlur_3987_19845" stdDeviation=".25"/></filter><filter id="filter15_f_3987_19845" width="5.094" height="2.41" x="8.56" y="12.023" color-interpolation-filters="sRGB" filterUnits="userSpaceOnUse"><feFlood flood-opacity="0" result="BackgroundImageFix"/><feBlend in="SourceGraphic" in2="BackgroundImageFix" result="shape"/><feGaussianBlur result="effect1_foregroundBlur_3987_19845" stdDeviation=".25"/></filter><filter id="filter16_iii_3987_19845" width="20.086" height="16.516" x="6.027" y="13.734" color-interpolation-filters="sRGB" filterUnits="userSpaceOnUse"><feFlood flood-opacity="0" result="BackgroundImageFix"/><feBlend in="SourceGraphic" in2="BackgroundImageFix" result="shape"/><feColorMatrix in="SourceAlpha" result="hardAlpha" values="0 0 0 0 0 0 0 0 0 0 0 0 0 0 0 0 0 0 127 0"/><feOffset dy="-.4"/><feGaussianBlur stdDeviation=".5"/><feComposite in2="hardAlpha" k2="-1" k3="1" operator="arithmetic"/><feColorMatrix values="0 0 0 0 0.956863 0 0 0 0 0.788235 0 0 0 0 0.662745 0 0 0 1 0"/><feBlend in2="shape" result="effect1_innerShadow_3987_19845"/><feColorMatrix in="SourceAlpha" result="hardAlpha" values="0 0 0 0 0 0 0 0 0 0 0 0 0 0 0 0 0 0 127 0"/><feOffset dx="-.3" dy=".25"/><feGaussianBlur stdDeviation=".25"/><feComposite in2="hardAlpha" k2="-1" k3="1" operator="arithmetic"/><feColorMatrix values="0 0 0 0 1 0 0 0 0 0.933333 0 0 0 0 0.713726 0 0 0 1 0"/><feBlend in2="effect1_innerShadow_3987_19845" result="effect2_innerShadow_3987_19845"/><feColorMatrix in="SourceAlpha" result="hardAlpha" values="0 0 0 0 0 0 0 0 0 0 0 0 0 0 0 0 0 0 127 0"/><feOffset dx=".35"/><feGaussianBlur stdDeviation=".175"/><feComposite in2="hardAlpha" k2="-1" k3="1" operator="arithmetic"/><feColorMatrix values="0 0 0 0 0.952941 0 0 0 0 0.752941 0 0 0 0 0.501961 0 0 0 1 0"/><feBlend in2="effect2_innerShadow_3987_19845" result="effect3_innerShadow_3987_19845"/></filter><linearGradient id="paint1_linear_3987_19845" x1="7.092" x2="5.898" y1="18.578" y2="18.578" gradientUnits="userSpaceOnUse"><stop stop-color="#AF6F5D"/><stop offset="1" stop-color="#B87862"/></linearGradient><linearGradient id="paint2_linear_3987_19845" x1="26.859" x2="25.332" y1="16.023" y2="20.753" gradientUnits="userSpaceOnUse"><stop stop-color="#F5C8A5"/><stop offset="1" stop-color="#DCA189"/></linearGradient><linearGradient id="paint6_linear_3987_19845" x1="23.473" x2="9.231" y1="18.785" y2="20.907" gradientUnits="userSpaceOnUse"><stop stop-color="#FAC39E"/><stop offset="1" stop-color="#C9917C"/></linearGradient><linearGradient id="paint8_linear_3987_19845" x1="5.884" x2="10.196" y1="23.813" y2="23.25" gradientUnits="userSpaceOnUse"><stop stop-color="#D99E84"/><stop offset="1" stop-color="#D99E84" stop-opacity="0"/></linearGradient><linearGradient id="paint12_linear_3987_19845" x1="6.881" x2="12.293" y1="17.56" y2="7.947" gradientUnits="userSpaceOnUse"><stop stop-color="#E8AD8E"/><stop offset="1" stop-color="#E8AD8E" stop-opacity="0"/></linearGradient><linearGradient id="paint18_linear_3987_19845" x1="14.335" x2="16.084" y1="20.014" y2="20.014" gradientUnits="userSpaceOnUse"><stop stop-color="#CB9173"/><stop offset="1" stop-color="#CB9173" stop-opacity="0"/></linearGradient><linearGradient id="paint19_linear_3987_19845" x1="17.696" x2="15.784" y1="20.616" y2="20.588" gradientUnits="userSpaceOnUse"><stop stop-color="#FEC8A4"/><stop offset="1" stop-color="#FEC8A4" stop-opacity="0"/></linearGradient><linearGradient id="paint20_linear_3987_19845" x1="16.309" x2="16.309" y1="22" y2="20.931" gradientUnits="userSpaceOnUse"><stop stop-color="#C98583"/><stop offset="1" stop-color="#C98583" stop-opacity="0"/></linearGradient><linearGradient id="paint21_linear_3987_19845" x1="16.181" x2="16.181" y1="22.078" y2="21.766" gradientUnits="userSpaceOnUse"><stop stop-color="#C27B77"/><stop offset="1" stop-color="#C27B77" stop-opacity="0"/></linearGradient><linearGradient id="paint22_linear_3987_19845" x1="14.234" x2="14.993" y1="25.258" y2="24.059" gradientUnits="userSpaceOnUse"><stop stop-color="#D79E8E"/><stop offset=".663" stop-color="#D79E8E" stop-opacity="0"/></linearGradient><linearGradient id="paint25_linear_3987_19845" x1="21.46" x2="20.875" y1="16.887" y2="17.248" gradientUnits="userSpaceOnUse"><stop stop-color="#B4948D"/><stop offset="1" stop-color="#B4948D" stop-opacity="0"/></linearGradient><linearGradient id="paint27_linear_3987_19845" x1="13.26" x2="12.675" y1="16.887" y2="17.248" gradientUnits="userSpaceOnUse"><stop stop-color="#B4948D"/><stop offset="1" stop-color="#B4948D" stop-opacity="0"/></linearGradient><linearGradient id="paint29_linear_3987_19845" x1="21.489" x2="20.706" y1="12.897" y2="11.296" gradientUnits="userSpaceOnUse"><stop stop-color="#A57146"/><stop offset="1" stop-color="#A57146" stop-opacity="0"/></linearGradient><linearGradient id="paint30_linear_3987_19845" x1="11.597" x2="9.379" y1="12.659" y2="11.729" gradientUnits="userSpaceOnUse"><stop stop-color="#A57146"/><stop offset="1" stop-color="#A57146" stop-opacity="0"/></linearGradient><linearGradient id="paint31_linear_3987_19845" x1="8.72" x2="23.159" y1="28.288" y2="24.201" gradientUnits="userSpaceOnUse"><stop offset=".314" stop-color="#EBB49A"/><stop offset="1" stop-color="#FFEEBD"/></linearGradient><linearGradient id="paint32_linear_3987_19845" x1="6.844" x2="9.25" y1="23.531" y2="23.563" gradientUnits="userSpaceOnUse"><stop stop-color="#FAC8A0"/><stop offset="1" stop-color="#FAC8A0" stop-opacity="0"/></linearGradient></defs></svg>