<svg xmlns="http://www.w3.org/2000/svg" width="32" height="32" fill="none" viewBox="0 0 32 32"><path fill="url(#paint0_radial_6815_5251)" d="M14.001 4.933a3 3 0 0 1-3.1 2.998A5.006 5.006 0 0 1 7 11.833a3 3 0 1 1-5.38-1.724.61.61 0 0 0 .053-.673 5 5 0 0 1 6.832-6.832.61.61 0 0 0 .673-.053 3 3 0 0 1 4.824 2.382Z"/><circle cx="11.001" cy="4.933" r="3" fill="url(#paint1_radial_6815_5251)"/><circle cx="6.001" cy="6.933" r="5" fill="url(#paint2_radial_6815_5251)"/><path fill="url(#paint3_radial_6815_5251)" d="M18.001 4.933a3 3 0 0 0 3.1 2.998 5.006 5.006 0 0 0 3.902 3.902 3 3 0 1 0 5.38-1.724.61.61 0 0 1-.053-.673 5 5 0 0 0-6.832-6.832.61.61 0 0 1-.673-.053 3 3 0 0 0-4.824 2.382Z"/><g filter="url(#filter0_f_6815_5251)"><path fill="url(#paint4_radial_6815_5251)" d="M24.683 12.903a3 3 0 0 0 3.816 1.854 2.976 2.976 0 0 0 2.086-3.84c-.542-1.566-1.83-1.06-3.396-.518-1.565.541-3.048.938-2.506 2.504Z"/></g><circle r="3" fill="url(#paint5_radial_6815_5251)" transform="matrix(-1 0 0 1 21.001 4.933)"/><circle r="3" fill="url(#paint6_radial_6815_5251)" transform="matrix(-1 0 0 1 21.001 4.933)"/><circle r="5" fill="url(#paint7_radial_6815_5251)" transform="matrix(-1 0 0 1 26.001 6.933)"/><circle r="5" fill="url(#paint8_radial_6815_5251)" transform="matrix(-1 0 0 1 26.001 6.933)"/><g filter="url(#filter1_i_6815_5251)"><path fill="url(#paint9_radial_6815_5251)" d="M16 30.93c9.334 0 13.999-6.267 13.999-13.998 0-7.732-4.665-14-13.999-14S2.001 9.2 2.001 16.933c0 7.73 4.665 13.997 13.999 13.997Z"/></g><path fill="url(#paint10_radial_6815_5251)" d="M16.016 30.93c9.335 0 13.999-6.267 13.999-13.998 0-7.732-4.664-14-13.999-14-9.334 0-13.999 6.268-13.999 14 0 7.731 4.665 13.999 14 13.999Z"/><g filter="url(#filter2_f_6815_5251)"><path fill="#8F74A1" d="M20.251 17.433a3.75 3.75 0 1 0 0-7.5 3.75 3.75 0 0 0 0 7.5Z"/></g><path fill="url(#paint11_linear_6815_5251)" d="M22.001 17.933a5 5 0 1 0 0-10 5 5 0 0 0 0 10Z"/><path fill="url(#paint12_linear_6815_5251)" d="M10.001 17.933a5 5 0 1 0 0-10 5 5 0 0 0 0 10Z"/><path fill="url(#paint13_linear_6815_5251)" stroke="url(#paint14_linear_6815_5251)" stroke-linecap="round" stroke-linejoin="round" stroke-miterlimit="10" stroke-width="2.5" d="M23.781 19.933c0 4.24-3.54 6.75-7.78 6.75s-7.75-2.51-7.75-6.75c0 0 2.78 2 7.75 2 5.53-.01 7.78-2 7.78-2Z"/><g filter="url(#filter3_f_6815_5251)"><path stroke="url(#paint15_linear_6815_5251)" stroke-linecap="round" stroke-linejoin="round" stroke-miterlimit="10" stroke-width="1.5" d="M16.001 26.933c3.515 0 6.7-2.24 7.687-5.423"/></g><g filter="url(#filter4_f_6815_5251)"><path fill="#3450A6" d="M21.143 17.09a3.579 3.579 0 1 0 0-7.157 3.579 3.579 0 0 0 0 7.158Z"/></g><g filter="url(#filter5_f_6815_5251)"><path fill="#3450A6" d="M10.751 17.433a3.75 3.75 0 1 0 0-7.5 3.75 3.75 0 0 0 0 7.5Z"/></g><path fill="#fff" fill-rule="evenodd" d="M15.001 13.183a3.75 3.75 0 1 1-7.5 0 3.75 3.75 0 0 1 7.5 0Zm9.5 0a3.75 3.75 0 1 1-7.5 0 3.75 3.75 0 0 1 7.5 0Z" clip-rule="evenodd"/><path fill="#3E2930" d="M19.751 15.433a2.25 2.25 0 1 0 0-4.5 2.25 2.25 0 0 0 0 4.5Z"/><g filter="url(#filter6_f_6815_5251)"><path fill="url(#paint16_radial_6815_5251)" d="M15.28 19.5a1.75 1.75 0 1 0 0-3.5 1.75 1.75 0 0 0 0 3.5Z"/></g><path fill="url(#paint17_linear_6815_5251)" d="M16.001 18.933a1.75 1.75 0 1 0 0-3.5 1.75 1.75 0 0 0 0 3.5Z"/><g filter="url(#filter7_f_6815_5251)"><path fill="url(#paint18_linear_6815_5251)" d="M16.282 17.75a1.002 1.002 0 1 0 0-2.003 1.002 1.002 0 0 0 0 2.003Z"/></g><path fill="#3E2930" d="M12.251 15.433a2.25 2.25 0 1 0 0-4.5 2.25 2.25 0 0 0 0 4.5Z"/><defs><radialGradient id="paint0_radial_6815_5251" cx="0" cy="0" r="1" gradientTransform="matrix(-7.00002 10.00004 -13.65734 -9.56013 9.001 1.933)" gradientUnits="userSpaceOnUse"><stop stop-color="#FF478C"/><stop offset=".365" stop-color="#FC2E5F"/><stop offset="1" stop-color="#D02651"/></radialGradient><radialGradient id="paint1_radial_6815_5251" cx="0" cy="0" r="1" gradientTransform="matrix(-2 3.5 -3.5 -2 12.001 2.933)" gradientUnits="userSpaceOnUse"><stop stop-color="#FF4A90"/><stop offset=".538" stop-color="#EF3062"/></radialGradient><radialGradient id="paint2_radial_6815_5251" cx="0" cy="0" r="1" gradientTransform="rotate(154.021 3.667 3.4) scale(4.75627)" gradientUnits="userSpaceOnUse"><stop offset=".184" stop-color="#FF508A"/><stop offset="1" stop-color="#FF4885" stop-opacity="0"/></radialGradient><radialGradient id="paint3_radial_6815_5251" cx="0" cy="0" r="1" gradientTransform="matrix(7.00002 10.00004 -13.65734 9.56013 23.001 1.933)" gradientUnits="userSpaceOnUse"><stop stop-color="#FF478C"/><stop offset=".365" stop-color="#FC2E5F"/><stop offset="1" stop-color="#D02651"/></radialGradient><radialGradient id="paint4_radial_6815_5251" cx="0" cy="0" r="1" gradientTransform="rotate(89.485 9.855 19.153) scale(3.8873 3.88729)" gradientUnits="userSpaceOnUse"><stop offset=".016" stop-color="#FF71A8"/><stop offset=".832" stop-color="#EF3062"/></radialGradient><radialGradient id="paint5_radial_6815_5251" cx="0" cy="0" r="1" gradientTransform="matrix(7.54531 2.8766 -2.20974 5.79615 -.107 1.313)" gradientUnits="userSpaceOnUse"><stop offset=".016" stop-color="#FF71A8"/><stop offset=".832" stop-color="#EF3062"/></radialGradient><radialGradient id="paint6_radial_6815_5251" cx="0" cy="0" r="1" gradientTransform="rotate(-156.613 3.134 .638) scale(3.97533 3.24907)" gradientUnits="userSpaceOnUse"><stop offset=".506" stop-color="#D62853"/><stop offset="1" stop-color="#D62853" stop-opacity="0"/></radialGradient><radialGradient id="paint7_radial_6815_5251" cx="0" cy="0" r="1" gradientTransform="rotate(154.021 3.389 2.318) scale(4.75627)" gradientUnits="userSpaceOnUse"><stop offset=".184" stop-color="#FF508A"/><stop offset="1" stop-color="#FF4885" stop-opacity="0"/></radialGradient><radialGradient id="paint8_radial_6815_5251" cx="0" cy="0" r="1" gradientTransform="matrix(-5.8476 -.18867 .1542 -4.7793 9.596 4.111)" gradientUnits="userSpaceOnUse"><stop offset=".307" stop-color="#D62853"/><stop offset="1" stop-color="#D62853" stop-opacity="0"/></radialGradient><radialGradient id="paint9_radial_6815_5251" cx="0" cy="0" r="1" gradientTransform="rotate(132.839 10.583 10.532) scale(37.5033)" gradientUnits="userSpaceOnUse"><stop offset=".074" stop-color="#F5F3F7"/><stop offset=".539" stop-color="#D6B1D8"/><stop offset="1" stop-color="#C693ED"/></radialGradient><radialGradient id="paint10_radial_6815_5251" cx="0" cy="0" r="1" gradientTransform="matrix(-8.24985 20.87504 -28.27335 -11.17367 17.878 11.244)" gradientUnits="userSpaceOnUse"><stop offset=".601" stop-color="#CD8BFF" stop-opacity="0"/><stop offset="1" stop-color="#C477FF"/></radialGradient><radialGradient id="paint16_radial_6815_5251" cx="0" cy="0" r="1" gradientTransform="rotate(138.31 4.88 11.572) scale(3.80814 5.18257)" gradientUnits="userSpaceOnUse"><stop offset=".208" stop-color="#914BC7"/><stop offset="1" stop-color="#CD8BFF" stop-opacity="0"/></radialGradient><filter id="filter0_f_6815_5251" width="7.176" height="6.055" x="24.069" y="9.367" color-interpolation-filters="sRGB" filterUnits="userSpaceOnUse"><feFlood flood-opacity="0" result="BackgroundImageFix"/><feBlend in="SourceGraphic" in2="BackgroundImageFix" result="shape"/><feGaussianBlur result="effect1_foregroundBlur_6815_5251" stdDeviation=".25"/></filter><filter id="filter1_i_6815_5251" width="29.998" height="29.998" x="2.001" y=".933" color-interpolation-filters="sRGB" filterUnits="userSpaceOnUse"><feFlood flood-opacity="0" result="BackgroundImageFix"/><feBlend in="SourceGraphic" in2="BackgroundImageFix" result="shape"/><feColorMatrix in="SourceAlpha" result="hardAlpha" values="0 0 0 0 0 0 0 0 0 0 0 0 0 0 0 0 0 0 127 0"/><feOffset dx="2" dy="-2"/><feGaussianBlur stdDeviation="2"/><feComposite in2="hardAlpha" k2="-1" k3="1" operator="arithmetic"/><feColorMatrix values="0 0 0 0 0 0 0 0 0 0 0 0 0 0 0 0 0 0 0.08 0"/><feBlend in2="shape" result="effect1_innerShadow_6815_5251"/></filter><filter id="filter2_f_6815_5251" width="10.5" height="10.5" x="15.001" y="8.433" color-interpolation-filters="sRGB" filterUnits="userSpaceOnUse"><feFlood flood-opacity="0" result="BackgroundImageFix"/><feBlend in="SourceGraphic" in2="BackgroundImageFix" result="shape"/><feGaussianBlur result="effect1_foregroundBlur_6815_5251" stdDeviation=".75"/></filter><filter id="filter3_f_6815_5251" width="10.187" height="7.923" x="14.751" y="20.26" color-interpolation-filters="sRGB" filterUnits="userSpaceOnUse"><feFlood flood-opacity="0" result="BackgroundImageFix"/><feBlend in="SourceGraphic" in2="BackgroundImageFix" result="shape"/><feGaussianBlur result="effect1_foregroundBlur_6815_5251" stdDeviation=".25"/></filter><filter id="filter4_f_6815_5251" width="10.158" height="10.158" x="16.064" y="8.433" color-interpolation-filters="sRGB" filterUnits="userSpaceOnUse"><feFlood flood-opacity="0" result="BackgroundImageFix"/><feBlend in="SourceGraphic" in2="BackgroundImageFix" result="shape"/><feGaussianBlur result="effect1_foregroundBlur_6815_5251" stdDeviation=".75"/></filter><filter id="filter5_f_6815_5251" width="10.5" height="10.5" x="5.501" y="8.433" color-interpolation-filters="sRGB" filterUnits="userSpaceOnUse"><feFlood flood-opacity="0" result="BackgroundImageFix"/><feBlend in="SourceGraphic" in2="BackgroundImageFix" result="shape"/><feGaussianBlur result="effect1_foregroundBlur_6815_5251" stdDeviation=".75"/></filter><filter id="filter6_f_6815_5251" width="5.5" height="5.5" x="12.531" y="15" color-interpolation-filters="sRGB" filterUnits="userSpaceOnUse"><feFlood flood-opacity="0" result="BackgroundImageFix"/><feBlend in="SourceGraphic" in2="BackgroundImageFix" result="shape"/><feGaussianBlur result="effect1_foregroundBlur_6815_5251" stdDeviation=".5"/></filter><filter id="filter7_f_6815_5251" width="4.003" height="4.003" x="14.281" y="14.747" color-interpolation-filters="sRGB" filterUnits="userSpaceOnUse"><feFlood flood-opacity="0" result="BackgroundImageFix"/><feBlend in="SourceGraphic" in2="BackgroundImageFix" result="shape"/><feGaussianBlur result="effect1_foregroundBlur_6815_5251" stdDeviation=".5"/></filter><linearGradient id="paint11_linear_6815_5251" x1="24.001" x2="20.001" y1="7.933" y2="17.433" gradientUnits="userSpaceOnUse"><stop stop-color="#4095D9"/><stop offset="1" stop-color="#3E71C5"/></linearGradient><linearGradient id="paint12_linear_6815_5251" x1="12.001" x2="8.001" y1="7.933" y2="17.433" gradientUnits="userSpaceOnUse"><stop stop-color="#4095D9"/><stop offset="1" stop-color="#3E71C5"/></linearGradient><linearGradient id="paint13_linear_6815_5251" x1="16.001" x2="15.501" y1="22.433" y2="25.933" gradientUnits="userSpaceOnUse"><stop stop-color="#C8A7C0"/><stop offset="1" stop-color="#ECCEDF"/></linearGradient><linearGradient id="paint14_linear_6815_5251" x1="5.878" x2="18.878" y1="23.308" y2="21.869" gradientUnits="userSpaceOnUse"><stop stop-color="#E31F6A"/><stop offset="1" stop-color="#F83594"/></linearGradient><linearGradient id="paint15_linear_6815_5251" x1="23.688" x2="16.001" y1="17.431" y2="26.933" gradientUnits="userSpaceOnUse"><stop offset=".369" stop-color="#FF7BBC" stop-opacity=".4"/><stop offset="1" stop-color="#FB3982" stop-opacity="0"/></linearGradient><linearGradient id="paint17_linear_6815_5251" x1="16.005" x2="16.005" y1="18.933" y2="15.434" gradientUnits="userSpaceOnUse"><stop stop-color="#E81123"/><stop offset=".444" stop-color="#EA0A4F"/><stop offset="1" stop-color="#EC008C"/></linearGradient><linearGradient id="paint18_linear_6815_5251" x1="16.753" x2="15.715" y1="15.931" y2="16.734" gradientUnits="userSpaceOnUse"><stop offset=".369" stop-color="#FF7BBC" stop-opacity=".72"/><stop offset="1" stop-color="#FF7BBC" stop-opacity="0"/></linearGradient></defs></svg>