<svg xmlns="http://www.w3.org/2000/svg" width="32" height="32" fill="none" viewBox="0 0 32 32"><g filter="url(#filter0_ii_3987_23162)"><path fill="url(#paint0_linear_3987_23162)" d="M3.922 12.157c-.975 0-1.656.49-1.875.734v9.028h27.906v-8.871l-.003-.004c-.623-.545-1.015-.887-2.2-.887-.906 0-1.67.67-2.05 1.003-.261.225-.94.638-1.864.638-.925 0-1.469-.407-2.07-.907-.27-.223-.952-.734-1.914-.734-.963 0-1.857.667-2.165 1-.244.224-.718.64-1.87.64-.794 0-1.396-.35-1.614-.562-.37-.36-1.133-1.078-2.312-1.078-.975 0-1.54.469-1.907.781-.367.313-1.006.89-2.093.89-.985 0-1.585-.5-1.915-.774l-.007-.006c-.276-.297-1.072-.891-2.047-.891Z"/></g><g filter="url(#filter1_ii_3987_23162)"><path fill="#F7C5AA" d="M10.642 7.055h4.828a4 4 0 0 1 3.602 2.261l6.164 12.458 4.125-.594-6.687-13.603a8 8 0 0 0-7.204-4.522h-4.43l-.398 4Z"/></g><path fill="url(#paint1_radial_3987_23162)" d="M17.313 16.579c-1.688 1.15-3.224 3.25-3.782 4.156 3.25 2.163 7.927 2.172 9.86 1.906l6.53-2.265c-.765-1.305-2.036-2.521-2.53-3L21.984 15c-.937 0-2.562.14-4.672 1.578Z"/><path fill="url(#paint2_radial_3987_23162)" d="M17.313 16.579c-1.688 1.15-3.224 3.25-3.782 4.156 3.25 2.163 7.927 2.172 9.86 1.906l6.53-2.265c-.765-1.305-2.036-2.521-2.53-3L21.984 15c-.937 0-2.562.14-4.672 1.578Z"/><path fill="url(#paint3_radial_3987_23162)" d="M17.313 16.579c-1.688 1.15-3.224 3.25-3.782 4.156 3.25 2.163 7.927 2.172 9.86 1.906l6.53-2.265c-.765-1.305-2.036-2.521-2.53-3L21.984 15c-.937 0-2.562.14-4.672 1.578Z"/><path fill="url(#paint4_radial_3987_23162)" d="m12.973 19.298-.614-.57.235-.938 2.14 1.87c-.937.267-1.493-.13-1.761-.362Z"/><path fill="url(#paint5_radial_3987_23162)" d="m19.598 12.743-.614-.668-.785.73 1.664 1.91c.375-.843.047-1.632-.265-1.972Z"/><circle cx="17.785" cy="11.943" r="1.296" fill="url(#paint6_radial_3987_23162)"/><g filter="url(#filter2_f_3987_23162)"><circle cx="17.785" cy="11.943" r=".877" fill="url(#paint7_radial_3987_23162)"/></g><circle cx="12.201" cy="17.532" r="1.296" fill="#B8808D"/><g filter="url(#filter3_f_3987_23162)"><circle cx="12.201" cy="17.532" r=".822" fill="#B2757C"/></g><path fill="#232041" d="m10.762 16.75-.84-.714.293-.555 1.137.887-.59.383Z"/><path fill="url(#paint8_linear_3987_23162)" d="m17.133 10.419-.758-.743-.844.301c.401.427 1.206 1.277 1.215 1.258l.387-.816Z"/><g filter="url(#filter4_i_3987_23162)"><path fill="url(#paint9_linear_3987_23162)" d="m8.984 14.834 6.11-6.101 4.26 4.74a3.15 3.15 0 0 1-.079 4.296l-1.195 1.235a3.15 3.15 0 0 1-4.39.134l-4.706-4.304Z"/><path fill="url(#paint10_radial_3987_23162)" d="m8.984 14.834 6.11-6.101 4.26 4.74a3.15 3.15 0 0 1-.079 4.296l-1.195 1.235a3.15 3.15 0 0 1-4.39.134l-4.706-4.304Z"/><path fill="url(#paint11_radial_3987_23162)" d="m8.984 14.834 6.11-6.101 4.26 4.74a3.15 3.15 0 0 1-.079 4.296l-1.195 1.235a3.15 3.15 0 0 1-4.39.134l-4.706-4.304Z"/><path fill="url(#paint12_radial_3987_23162)" d="m8.984 14.834 6.11-6.101 4.26 4.74a3.15 3.15 0 0 1-.079 4.296l-1.195 1.235a3.15 3.15 0 0 1-4.39.134l-4.706-4.304Z"/></g><g filter="url(#filter5_ii_3987_23162)"><path fill="url(#paint13_linear_3987_23162)" d="M3.922 19.22c-.975 0-1.656.489-1.875.734v9.027h27.906v-8.87l-.003-.004c-.623-.545-1.015-.887-2.2-.887-.906 0-1.67.67-2.05 1.003-.261.224-.94.637-1.864.637-.925 0-1.469-.406-2.07-.906-.27-.224-.952-.735-1.914-.735-.963 0-1.857.667-2.165 1-.244.224-.718.641-1.87.641-.794 0-1.396-.35-1.614-.562-.37-.36-1.133-1.078-2.312-1.078-.975 0-1.54.468-1.907.78-.367.313-1.006.891-2.093.891-.985 0-1.585-.5-1.915-.775l-.007-.006c-.276-.297-1.072-.89-2.047-.89Z"/></g><g filter="url(#filter6_f_3987_23162)"><circle cx="16.996" cy="16.712" r=".809" stroke="url(#paint14_linear_3987_23162)" stroke-width=".2"/></g><circle cx="16.996" cy="16.712" r=".809" fill="#87014E"/><g filter="url(#filter7_f_3987_23162)"><path fill="#CA9297" d="m15.047 16.3-.821-1.636.304-.296 1.588.896a.42.42 0 0 1 .088.667l-.488.48a.42.42 0 0 1-.67-.11Z"/></g><g filter="url(#filter8_if_3987_23162)"><path fill="#EEBFAB" d="m15.22 16.033-.782-1.556.29-.281 1.51.852a.4.4 0 0 1 .084.634l-.465.457a.4.4 0 0 1-.638-.106Z"/><path fill="url(#paint15_radial_3987_23162)" d="m15.22 16.033-.782-1.556.29-.281 1.51.852a.4.4 0 0 1 .084.634l-.465.457a.4.4 0 0 1-.638-.106Z"/></g><path fill="url(#paint16_linear_3987_23162)" d="M14.576 13.506h.758v1.123h-.758z" transform="rotate(45.489 14.576 13.506)"/><path fill="url(#paint17_radial_3987_23162)" d="M14.576 13.506h.758v1.123h-.758z" transform="rotate(45.489 14.576 13.506)"/><path fill="url(#paint18_linear_3987_23162)" d="M17.065 10.264a.1.1 0 0 1 .139-.027l.439.298a.1.1 0 0 1 .027.139l-.84 1.24-.605-.41.84-1.24Z"/><path fill="url(#paint19_linear_3987_23162)" d="M17.065 10.264a.1.1 0 0 1 .139-.027l.439.298a.1.1 0 0 1 .027.139l-.84 1.24-.605-.41.84-1.24Z"/><path fill="url(#paint20_linear_3987_23162)" d="M17.065 10.264a.1.1 0 0 1 .139-.027l.439.298a.1.1 0 0 1 .027.139l-.84 1.24-.605-.41.84-1.24Z"/><path fill="#4E496A" d="M10.925 17.337a.1.1 0 0 1-.138-.03l-.29-.444a.1.1 0 0 1 .03-.138l1.253-.818.4.612-1.255.818Z"/><path fill="url(#paint21_radial_3987_23162)" d="M10.925 17.337a.1.1 0 0 1-.138-.03l-.29-.444a.1.1 0 0 1 .03-.138l1.253-.818.4.612-1.255.818Z"/><path fill="url(#paint22_linear_3987_23162)" d="M10.925 17.337a.1.1 0 0 1-.138-.03l-.29-.444a.1.1 0 0 1 .03-.138l1.253-.818.4.612-1.255.818Z"/><path fill="url(#paint23_linear_3987_23162)" d="M10.925 17.337a.1.1 0 0 1-.138-.03l-.29-.444a.1.1 0 0 1 .03-.138l1.253-.818.4.612-1.255.818Z"/><path fill="url(#paint24_linear_3987_23162)" stroke="url(#paint25_radial_3987_23162)" stroke-width=".25" d="m16.594 13.062-.488.476a.696.696 0 1 1-.973-.997l.488-.476a.696.696 0 1 1 .973.997Z"/><path fill="#412E4C" fill-rule="evenodd" d="m16.933 13.409-.488.476a1.181 1.181 0 1 1-1.65-1.69l.487-.477a1.182 1.182 0 0 1 1.65 1.691Zm-.238-1.42a.821.821 0 0 0-1.162-.013l-.487.476a.821.821 0 0 0 1.148 1.175l.487-.476a.821.821 0 0 0 .014-1.161Z" clip-rule="evenodd"/><g filter="url(#filter9_f_3987_23162)"><path stroke="#5C4C6D" stroke-width=".1" d="M16.857 11.827c-.364-.372-1-.409-1.373-.045l-.559.546c-.373.364-.34.99.024 1.362.363.373.976.431 1.348.068l.56-.546c.372-.364.364-1.012 0-1.385Z" clip-rule="evenodd"/></g><path fill="url(#paint26_linear_3987_23162)" stroke="url(#paint27_radial_3987_23162)" stroke-width=".25" d="m13.805 15.82-.488.476a.696.696 0 1 1-.973-.997l.488-.476a.696.696 0 1 1 .973.997Z"/><path fill="#412E4C" fill-rule="evenodd" d="m14.144 16.167-.488.476a1.181 1.181 0 0 1-1.65-1.69l.487-.477a1.181 1.181 0 1 1 1.65 1.69Zm-.238-1.42a.821.821 0 0 0-1.162-.013l-.487.476a.821.821 0 1 0 1.148 1.175l.487-.476a.821.821 0 0 0 .014-1.161Z" clip-rule="evenodd"/><g filter="url(#filter10_f_3987_23162)"><path stroke="url(#paint28_linear_3987_23162)" stroke-width=".1" d="M14.076 14.622c-.363-.373-1-.41-1.372-.045l-.56.546c-.372.363-.34.99.024 1.362.364.372.977.431 1.35.067l.559-.546c.372-.363.363-1.012 0-1.384Z" clip-rule="evenodd"/></g><path fill="url(#paint29_radial_3987_23162)" d="M9.475 15.741c-1.367-1.367-1.202-3.537.236-5.17l1.21-1.203c1.556-1.414 3.79-1.595 5.156-.228l.317.317a.2.2 0 0 1 0 .283l-6.319 6.319a.2.2 0 0 1-.282 0l-.318-.318Z"/><path fill="url(#paint30_radial_3987_23162)" d="M9.475 15.741c-1.367-1.367-1.202-3.537.236-5.17l1.21-1.203c1.556-1.414 3.79-1.595 5.156-.228l.317.317a.2.2 0 0 1 0 .283l-6.319 6.319a.2.2 0 0 1-.282 0l-.318-.318Z"/><path fill="url(#paint31_radial_3987_23162)" d="M9.475 15.741c-1.367-1.367-1.202-3.537.236-5.17l1.21-1.203c1.556-1.414 3.79-1.595 5.156-.228l.317.317a.2.2 0 0 1 0 .283l-6.319 6.319a.2.2 0 0 1-.282 0l-.318-.318Z"/><path fill="url(#paint32_linear_3987_23162)" d="M9.475 15.741c-1.367-1.367-1.202-3.537.236-5.17l1.21-1.203c1.556-1.414 3.79-1.595 5.156-.228l.317.317a.2.2 0 0 1 0 .283l-6.319 6.319a.2.2 0 0 1-.282 0l-.318-.318Z"/><path fill="url(#paint33_linear_3987_23162)" fill-rule="evenodd" d="M9.936 4.466c-.557.044-1.037.102-1.262.16a.662.662 0 0 1-.804-.488.673.673 0 0 1 .48-.816c.836-.214 1.78-.267 2.642-.267.366 0 .647.288.647.66 0 .37.106.685-.26.685-.345 0-.9.024-1.443.066Z" clip-rule="evenodd"/><path fill="#D5A28E" fill-rule="evenodd" d="M11.266 3.964a.663.663 0 0 1-.608.713c-1.395.111-2.487 1.076-3.036 1.863a.663.663 0 0 1-1.087-.758c.678-.971 2.085-2.272 4.018-2.426a.663.663 0 0 1 .713.608Z" clip-rule="evenodd"/><path fill="url(#paint34_radial_3987_23162)" fill-rule="evenodd" d="M11.266 3.964a.663.663 0 0 1-.608.713c-1.395.111-2.487 1.076-3.036 1.863a.663.663 0 0 1-1.087-.758c.678-.971 2.085-2.272 4.018-2.426a.663.663 0 0 1 .713.608Z" clip-rule="evenodd"/><path fill="#D5A28E" fill-rule="evenodd" d="M11.67 4.745a.663.663 0 0 1-.607.713c-.639.05-1.95.36-2.427.803-.482.448-.861 1.005-1.156 1.487a.663.663 0 1 1-1.131-.69c.314-.515.769-1.195 1.385-1.767.62-.576 1.5-1.154 3.223-1.154.366 0 .684.243.713.608Z" clip-rule="evenodd"/><path fill="url(#paint35_radial_3987_23162)" fill-rule="evenodd" d="M11.67 4.745a.663.663 0 0 1-.607.713c-.639.05-1.95.36-2.427.803-.482.448-.861 1.005-1.156 1.487a.663.663 0 1 1-1.131-.69c.314-.515.769-1.195 1.385-1.767.62-.576 1.5-1.154 3.223-1.154.366 0 .684.243.713.608Z" clip-rule="evenodd"/><path fill="#D5A28E" fill-rule="evenodd" d="M11.379 5.568a.663.663 0 0 1-.635.69c-1.183.05-2.097.94-2.665 1.87a.663.663 0 0 1-1.131-.69c.651-1.066 1.893-2.426 3.74-2.504a.663.663 0 0 1 .69.634Z" clip-rule="evenodd"/><path fill="url(#paint36_radial_3987_23162)" fill-rule="evenodd" d="M11.379 5.568a.663.663 0 0 1-.635.69c-1.183.05-2.097.94-2.665 1.87a.663.663 0 0 1-1.131-.69c.651-1.066 1.893-2.426 3.74-2.504a.663.663 0 0 1 .69.634Z" clip-rule="evenodd"/><g filter="url(#filter11_i_3987_23162)"><path fill="#DFAC99" fill-rule="evenodd" d="M11.348 7.055c-.585 0-1.22.253-1.659.552-.31.21-.668.603-.82.805a.662.662 0 1 1-1.058-.799c.202-.267.661-.78 1.133-1.102.63-.427 1.52-.755 2.404-.755.366 0 .662.297.662.663 0 .366-.296.636-.662.636Z" clip-rule="evenodd"/></g><path fill="url(#paint37_radial_3987_23162)" d="M10.642 7.055h4.828a4 4 0 0 1 3.602 2.261l6.164 12.458 4.125-.594-6.687-13.603a8 8 0 0 0-7.204-4.522h-4.457l-.37 4Z"/><g filter="url(#filter12_f_3987_23162)"><path fill="#FFDFC5" d="M20.637 7.487c-.675-1.474-1.907-1.968-2.438-2.03 1.469-.157 2.672.788 3.156 1.655l5.815 10.25-2.533-1.28c-1.052-2.25-3.325-7.12-4-8.595Z"/></g><defs><radialGradient id="paint1_radial_3987_23162" cx="0" cy="0" r="1" gradientTransform="rotate(-127.875 18.587 4.392) scale(6.23829 9.65927)" gradientUnits="userSpaceOnUse"><stop stop-color="#FFDCC2"/><stop offset="1" stop-color="#F2BCAC"/></radialGradient><radialGradient id="paint2_radial_3987_23162" cx="0" cy="0" r="1" gradientTransform="matrix(5.40625 1.9375 -3.91835 10.93347 16.64 17.704)" gradientUnits="userSpaceOnUse"><stop stop-color="#BB7C7D"/><stop offset="1" stop-color="#F1AE9A" stop-opacity="0"/></radialGradient><radialGradient id="paint3_radial_3987_23162" cx="0" cy="0" r="1" gradientTransform="matrix(-.20312 .59375 -4.82693 -1.65131 22.031 14.923)" gradientUnits="userSpaceOnUse"><stop offset=".186" stop-color="#CB8D71"/><stop offset="1" stop-color="#CB8D71" stop-opacity="0"/></radialGradient><radialGradient id="paint4_radial_3987_23162" cx="0" cy="0" r="1" gradientTransform="matrix(-.53125 .61718 -2.20347 -1.8967 13.602 18.845)" gradientUnits="userSpaceOnUse"><stop offset=".324" stop-color="#140A1E"/><stop offset="1" stop-color="#262442"/></radialGradient><radialGradient id="paint5_radial_3987_23162" cx="0" cy="0" r="1" gradientTransform="matrix(.46118 -.42969 .6423 .68937 19.115 13.277)" gradientUnits="userSpaceOnUse"><stop offset=".311" stop-color="#363534"/><stop offset="1" stop-color="#271C1B"/></radialGradient><radialGradient id="paint6_radial_3987_23162" cx="0" cy="0" r="1" gradientTransform="matrix(-1.01562 .92188 -.5107 -.56264 18.654 11.285)" gradientUnits="userSpaceOnUse"><stop offset=".011" stop-color="#FFD3BB"/><stop offset="1" stop-color="#FBC2A4"/></radialGradient><radialGradient id="paint7_radial_3987_23162" cx="0" cy="0" r="1" gradientTransform="matrix(.32031 -.30469 .39566 .41595 17.912 11.873)" gradientUnits="userSpaceOnUse"><stop stop-color="#FCC5A9"/><stop offset="1" stop-color="#F4B798"/></radialGradient><radialGradient id="paint10_radial_3987_23162" cx="0" cy="0" r="1" gradientTransform="matrix(1.84375 5.88499 -6.78343 2.12523 15.36 14.079)" gradientUnits="userSpaceOnUse"><stop offset=".545" stop-color="#DEAAA8" stop-opacity="0"/><stop offset="1" stop-color="#AB7188"/></radialGradient><radialGradient id="paint11_radial_3987_23162" cx="0" cy="0" r="1" gradientTransform="matrix(1.43751 1.34374 -1.37698 1.47307 15.889 13.269)" gradientUnits="userSpaceOnUse"><stop offset=".228" stop-color="#DEAA9F"/><stop offset="1" stop-color="#DEAA9F" stop-opacity="0"/></radialGradient><radialGradient id="paint12_radial_3987_23162" cx="0" cy="0" r="1" gradientTransform="matrix(1.27128 1.07818 -.89068 1.0502 13.433 15.422)" gradientUnits="userSpaceOnUse"><stop offset=".422" stop-color="#BE8888"/><stop offset="1" stop-color="#BE8888" stop-opacity="0"/></radialGradient><radialGradient id="paint15_radial_3987_23162" cx="0" cy="0" r="1" gradientTransform="rotate(135.14 5.029 10.985) scale(.85969 .22297)" gradientUnits="userSpaceOnUse"><stop offset=".254" stop-color="#FFD6C2"/><stop offset="1" stop-color="#F3C4A7" stop-opacity="0"/><stop offset="1" stop-color="#FFD6C2" stop-opacity="0"/></radialGradient><radialGradient id="paint17_radial_3987_23162" cx="0" cy="0" r="1" gradientTransform="rotate(90.613 .808 14.116) scale(.28731 .60404)" gradientUnits="userSpaceOnUse"><stop offset=".649" stop-color="#453B50"/><stop offset="1" stop-color="#453B50" stop-opacity="0"/></radialGradient><radialGradient id="paint21_radial_3987_23162" cx="0" cy="0" r="1" gradientTransform="matrix(-.46094 .29687 -.34413 -.53431 11.951 16.261)" gradientUnits="userSpaceOnUse"><stop offset=".214" stop-color="#483E5B"/><stop offset="1" stop-color="#483E5B" stop-opacity="0"/></radialGradient><radialGradient id="paint25_radial_3987_23162" cx="0" cy="0" r="1" gradientTransform="rotate(133.409 5.77 9.612) scale(1.9895 1.30599)" gradientUnits="userSpaceOnUse"><stop stop-color="#54ABEC"/><stop offset=".96" stop-color="#1F64C4"/></radialGradient><radialGradient id="paint27_radial_3987_23162" cx="0" cy="0" r="1" gradientTransform="matrix(-1.0078 1.59375 -1.27162 -.8041 13.74 14.886)" gradientUnits="userSpaceOnUse"><stop stop-color="#54ABEC"/><stop offset="1" stop-color="#2C6FB5"/></radialGradient><radialGradient id="paint29_radial_3987_23162" cx="0" cy="0" r="1" gradientTransform="matrix(-2.75 -2.62501 3.8318 -4.01424 14.203 11.798)" gradientUnits="userSpaceOnUse"><stop stop-color="#FB5684"/><stop offset="1" stop-color="#E12E6E"/></radialGradient><radialGradient id="paint30_radial_3987_23162" cx="0" cy="0" r="1" gradientTransform="rotate(-157.729 8.55 4.802) scale(6.59658 10.6884)" gradientUnits="userSpaceOnUse"><stop offset=".546" stop-color="#AD525E" stop-opacity="0"/><stop offset="1" stop-color="#AD525E"/></radialGradient><radialGradient id="paint31_radial_3987_23162" cx="0" cy="0" r="1" gradientTransform="matrix(.20313 -1.98437 .81115 .08303 8.766 13.641)" gradientUnits="userSpaceOnUse"><stop stop-color="#DD617E"/><stop offset="1" stop-color="#DD617E" stop-opacity="0"/></radialGradient><radialGradient id="paint34_radial_3987_23162" cx="0" cy="0" r="1" gradientTransform="rotate(146.787 3.538 4.28) scale(3.43755 1.60167)" gradientUnits="userSpaceOnUse"><stop offset=".402" stop-color="#CF997E"/><stop offset="1" stop-color="#CF997E" stop-opacity="0"/></radialGradient><radialGradient id="paint35_radial_3987_23162" cx="0" cy="0" r="1" gradientTransform="matrix(-3.21274 2.13195 -.99864 -1.5049 8.962 7.045)" gradientUnits="userSpaceOnUse"><stop offset=".402" stop-color="#CF997E"/><stop offset="1" stop-color="#CF997E" stop-opacity="0"/></radialGradient><radialGradient id="paint36_radial_3987_23162" cx="0" cy="0" r="1" gradientTransform="rotate(144.615 3.356 5.22) scale(3.29193 1.58011)" gradientUnits="userSpaceOnUse"><stop offset=".402" stop-color="#CF997E"/><stop offset="1" stop-color="#CF997E" stop-opacity="0"/></radialGradient><radialGradient id="paint37_radial_3987_23162" cx="0" cy="0" r="1" gradientTransform="matrix(6.37158 .5409 -.31404 3.69927 10.642 4.118)" gradientUnits="userSpaceOnUse"><stop offset=".344" stop-color="#D4A18C"/><stop offset="1" stop-color="#E1AC8C" stop-opacity="0"/></radialGradient><linearGradient id="paint0_linear_3987_23162" x1="26.833" x2="2.047" y1="16.573" y2="16.573" gradientUnits="userSpaceOnUse"><stop stop-color="#40AAFE"/><stop offset="1" stop-color="#3EA5FE"/></linearGradient><linearGradient id="paint8_linear_3987_23162" x1="16.656" x2="16.93" y1="10.313" y2="10.845" gradientUnits="userSpaceOnUse"><stop offset=".18" stop-color="#38302F"/><stop offset=".592" stop-color="#09050B"/></linearGradient><linearGradient id="paint9_linear_3987_23162" x1="19.016" x2="14.391" y1="13.829" y2="19.329" gradientUnits="userSpaceOnUse"><stop stop-color="#FFE2C7"/><stop offset=".886" stop-color="#C7949F"/></linearGradient><linearGradient id="paint13_linear_3987_23162" x1="26.833" x2="2.047" y1="23.635" y2="23.635" gradientUnits="userSpaceOnUse"><stop stop-color="#3F90F0"/><stop offset="1" stop-color="#4184E7"/></linearGradient><linearGradient id="paint14_linear_3987_23162" x1="17.219" x2="17.188" y1="17.641" y2="15.735" gradientUnits="userSpaceOnUse"><stop stop-color="#DBAB9F"/><stop offset="1" stop-color="#E3A695"/></linearGradient><linearGradient id="paint16_linear_3987_23162" x1="14.945" x2="14.954" y1="13.68" y2="14.63" gradientUnits="userSpaceOnUse"><stop stop-color="#52475D"/><stop offset="1" stop-color="#413251"/></linearGradient><linearGradient id="paint18_linear_3987_23162" x1="16.334" x2="17.49" y1="11.402" y2="11.191" gradientUnits="userSpaceOnUse"><stop stop-color="#574C62"/><stop offset="1" stop-color="#4C4055"/></linearGradient><linearGradient id="paint19_linear_3987_23162" x1="16.734" x2="16.848" y1="10.704" y2="10.782" gradientUnits="userSpaceOnUse"><stop offset=".354" stop-color="#403044"/><stop offset="1" stop-color="#403044" stop-opacity="0"/></linearGradient><linearGradient id="paint20_linear_3987_23162" x1="17.383" x2="17.301" y1="11.122" y2="11.067" gradientUnits="userSpaceOnUse"><stop stop-color="#574E60"/><stop offset="1" stop-color="#574E60" stop-opacity="0"/></linearGradient><linearGradient id="paint22_linear_3987_23162" x1="11.422" x2="11.305" y1="17.048" y2="16.864" gradientUnits="userSpaceOnUse"><stop offset=".145" stop-color="#443873"/><stop offset="1" stop-color="#443873" stop-opacity="0"/></linearGradient><linearGradient id="paint23_linear_3987_23162" x1="10.984" x2="11.027" y1="16.419" y2="16.489" gradientUnits="userSpaceOnUse"><stop stop-color="#504B5B"/><stop offset="1" stop-color="#504B5B" stop-opacity="0"/></linearGradient><linearGradient id="paint24_linear_3987_23162" x1="16.467" x2="15.279" y1="12.128" y2="13.363" gradientUnits="userSpaceOnUse"><stop stop-color="#479DED"/><stop offset="1" stop-color="#4893E1"/></linearGradient><linearGradient id="paint26_linear_3987_23162" x1="13.678" x2="12.49" y1="14.886" y2="16.12" gradientUnits="userSpaceOnUse"><stop stop-color="#479DED"/><stop offset="1" stop-color="#4893E1"/></linearGradient><linearGradient id="paint28_linear_3987_23162" x1="14.269" x2="12.127" y1="14.633" y2="16.679" gradientUnits="userSpaceOnUse"><stop offset=".096" stop-color="#5F5669"/><stop offset=".322" stop-color="#5F5669" stop-opacity="0"/><stop offset=".768" stop-color="#5F5669"/></linearGradient><linearGradient id="paint32_linear_3987_23162" x1="13.703" x2="13.641" y1="12.427" y2="12.368" gradientUnits="userSpaceOnUse"><stop stop-color="#F64A6A"/><stop offset="1" stop-color="#F64A6A" stop-opacity="0"/></linearGradient><linearGradient id="paint33_linear_3987_23162" x1="8.172" x2="10.923" y1="3.851" y2="3.593" gradientUnits="userSpaceOnUse"><stop stop-color="#E7AD91"/><stop offset="1" stop-color="#D8AC90"/></linearGradient><filter id="filter0_ii_3987_23162" width="28.306" height="9.762" x="1.847" y="12.157" color-interpolation-filters="sRGB" filterUnits="userSpaceOnUse"><feFlood flood-opacity="0" result="BackgroundImageFix"/><feBlend in="SourceGraphic" in2="BackgroundImageFix" result="shape"/><feColorMatrix in="SourceAlpha" result="hardAlpha" values="0 0 0 0 0 0 0 0 0 0 0 0 0 0 0 0 0 0 127 0"/><feOffset dx="-.2"/><feGaussianBlur stdDeviation=".5"/><feComposite in2="hardAlpha" k2="-1" k3="1" operator="arithmetic"/><feColorMatrix values="0 0 0 0 0.32549 0 0 0 0 0.729412 0 0 0 0 1 0 0 0 1 0"/><feBlend in2="shape" result="effect1_innerShadow_3987_23162"/><feColorMatrix in="SourceAlpha" result="hardAlpha" values="0 0 0 0 0 0 0 0 0 0 0 0 0 0 0 0 0 0 127 0"/><feOffset dx=".2"/><feGaussianBlur stdDeviation=".5"/><feComposite in2="hardAlpha" k2="-1" k3="1" operator="arithmetic"/><feColorMatrix values="0 0 0 0 0.247059 0 0 0 0 0.584314 0 0 0 0 0.854902 0 0 0 1 0"/><feBlend in2="effect1_innerShadow_3987_23162" result="effect2_innerShadow_3987_23162"/></filter><filter id="filter1_ii_3987_23162" width="19.969" height="19.969" x="10.642" y="1.805" color-interpolation-filters="sRGB" filterUnits="userSpaceOnUse"><feFlood flood-opacity="0" result="BackgroundImageFix"/><feBlend in="SourceGraphic" in2="BackgroundImageFix" result="shape"/><feColorMatrix in="SourceAlpha" result="hardAlpha" values="0 0 0 0 0 0 0 0 0 0 0 0 0 0 0 0 0 0 127 0"/><feOffset dx="1.25" dy="-1.25"/><feGaussianBlur stdDeviation="1"/><feComposite in2="hardAlpha" k2="-1" k3="1" operator="arithmetic"/><feColorMatrix values="0 0 0 0 0.858824 0 0 0 0 0.607843 0 0 0 0 0.552941 0 0 0 1 0"/><feBlend in2="shape" result="effect1_innerShadow_3987_23162"/><feColorMatrix in="SourceAlpha" result="hardAlpha" values="0 0 0 0 0 0 0 0 0 0 0 0 0 0 0 0 0 0 127 0"/><feOffset dx=".25" dy="-.5"/><feGaussianBlur stdDeviation=".5"/><feComposite in2="hardAlpha" k2="-1" k3="1" operator="arithmetic"/><feColorMatrix values="0 0 0 0 0.792157 0 0 0 0 0.509804 0 0 0 0 0.509804 0 0 0 1 0"/><feBlend in2="effect1_innerShadow_3987_23162" result="effect2_innerShadow_3987_23162"/></filter><filter id="filter2_f_3987_23162" width="2.053" height="2.053" x="16.759" y="10.917" color-interpolation-filters="sRGB" filterUnits="userSpaceOnUse"><feFlood flood-opacity="0" result="BackgroundImageFix"/><feBlend in="SourceGraphic" in2="BackgroundImageFix" result="shape"/><feGaussianBlur result="effect1_foregroundBlur_3987_23162" stdDeviation=".075"/></filter><filter id="filter3_f_3987_23162" width="2.044" height="2.044" x="11.179" y="16.51" color-interpolation-filters="sRGB" filterUnits="userSpaceOnUse"><feFlood flood-opacity="0" result="BackgroundImageFix"/><feBlend in="SourceGraphic" in2="BackgroundImageFix" result="shape"/><feGaussianBlur result="effect1_foregroundBlur_3987_23162" stdDeviation=".1"/></filter><filter id="filter4_i_3987_23162" width="11.327" height="11.381" x="8.984" y="8.583" color-interpolation-filters="sRGB" filterUnits="userSpaceOnUse"><feFlood flood-opacity="0" result="BackgroundImageFix"/><feBlend in="SourceGraphic" in2="BackgroundImageFix" result="shape"/><feColorMatrix in="SourceAlpha" result="hardAlpha" values="0 0 0 0 0 0 0 0 0 0 0 0 0 0 0 0 0 0 127 0"/><feOffset dx=".15" dy="-.15"/><feGaussianBlur stdDeviation=".3"/><feComposite in2="hardAlpha" k2="-1" k3="1" operator="arithmetic"/><feColorMatrix values="0 0 0 0 0.694118 0 0 0 0 0.505882 0 0 0 0 0.639216 0 0 0 1 0"/><feBlend in2="shape" result="effect1_innerShadow_3987_23162"/></filter><filter id="filter5_ii_3987_23162" width="28.306" height="9.762" x="1.847" y="19.22" color-interpolation-filters="sRGB" filterUnits="userSpaceOnUse"><feFlood flood-opacity="0" result="BackgroundImageFix"/><feBlend in="SourceGraphic" in2="BackgroundImageFix" result="shape"/><feColorMatrix in="SourceAlpha" result="hardAlpha" values="0 0 0 0 0 0 0 0 0 0 0 0 0 0 0 0 0 0 127 0"/><feOffset dx="-.2"/><feGaussianBlur stdDeviation=".15"/><feComposite in2="hardAlpha" k2="-1" k3="1" operator="arithmetic"/><feColorMatrix values="0 0 0 0 0.301961 0 0 0 0 0.580392 0 0 0 0 0.87451 0 0 0 1 0"/><feBlend in2="shape" result="effect1_innerShadow_3987_23162"/><feColorMatrix in="SourceAlpha" result="hardAlpha" values="0 0 0 0 0 0 0 0 0 0 0 0 0 0 0 0 0 0 127 0"/><feOffset dx=".2"/><feGaussianBlur stdDeviation=".15"/><feComposite in2="hardAlpha" k2="-1" k3="1" operator="arithmetic"/><feColorMatrix values="0 0 0 0 0.207843 0 0 0 0 0.482353 0 0 0 0 0.772549 0 0 0 1 0"/><feBlend in2="effect1_innerShadow_3987_23162" result="effect2_innerShadow_3987_23162"/></filter><filter id="filter6_f_3987_23162" width="2.217" height="2.217" x="15.887" y="15.603" color-interpolation-filters="sRGB" filterUnits="userSpaceOnUse"><feFlood flood-opacity="0" result="BackgroundImageFix"/><feBlend in="SourceGraphic" in2="BackgroundImageFix" result="shape"/><feGaussianBlur result="effect1_foregroundBlur_3987_23162" stdDeviation=".1"/></filter><filter id="filter7_f_3987_23162" width="3.106" height="3.164" x="13.726" y="13.868" color-interpolation-filters="sRGB" filterUnits="userSpaceOnUse"><feFlood flood-opacity="0" result="BackgroundImageFix"/><feBlend in="SourceGraphic" in2="BackgroundImageFix" result="shape"/><feGaussianBlur result="effect1_foregroundBlur_3987_23162" stdDeviation=".25"/></filter><filter id="filter8_if_3987_23162" width="2.203" height="2.458" x="14.338" y="13.896" color-interpolation-filters="sRGB" filterUnits="userSpaceOnUse"><feFlood flood-opacity="0" result="BackgroundImageFix"/><feBlend in="SourceGraphic" in2="BackgroundImageFix" result="shape"/><feColorMatrix in="SourceAlpha" result="hardAlpha" values="0 0 0 0 0 0 0 0 0 0 0 0 0 0 0 0 0 0 127 0"/><feOffset dx=".1" dy="-.3"/><feGaussianBlur stdDeviation=".3"/><feComposite in2="hardAlpha" k2="-1" k3="1" operator="arithmetic"/><feColorMatrix values="0 0 0 0 0.776471 0 0 0 0 0.545098 0 0 0 0 0.576471 0 0 0 1 0"/><feBlend in2="shape" result="effect1_innerShadow_3987_23162"/><feGaussianBlur result="effect2_foregroundBlur_3987_23162" stdDeviation=".05"/></filter><filter id="filter9_f_3987_23162" width="2.872" height="2.874" x="14.46" y="11.328" color-interpolation-filters="sRGB" filterUnits="userSpaceOnUse"><feFlood flood-opacity="0" result="BackgroundImageFix"/><feBlend in="SourceGraphic" in2="BackgroundImageFix" result="shape"/><feGaussianBlur result="effect1_foregroundBlur_3987_23162" stdDeviation=".075"/></filter><filter id="filter10_f_3987_23162" width="2.872" height="2.874" x="11.68" y="14.122" color-interpolation-filters="sRGB" filterUnits="userSpaceOnUse"><feFlood flood-opacity="0" result="BackgroundImageFix"/><feBlend in="SourceGraphic" in2="BackgroundImageFix" result="shape"/><feGaussianBlur result="effect1_foregroundBlur_3987_23162" stdDeviation=".075"/></filter><filter id="filter11_i_3987_23162" width="4.333" height="3.319" x="7.677" y="5.356" color-interpolation-filters="sRGB" filterUnits="userSpaceOnUse"><feFlood flood-opacity="0" result="BackgroundImageFix"/><feBlend in="SourceGraphic" in2="BackgroundImageFix" result="shape"/><feColorMatrix in="SourceAlpha" result="hardAlpha" values="0 0 0 0 0 0 0 0 0 0 0 0 0 0 0 0 0 0 127 0"/><feOffset dy="-.4"/><feGaussianBlur stdDeviation=".25"/><feComposite in2="hardAlpha" k2="-1" k3="1" operator="arithmetic"/><feColorMatrix values="0 0 0 0 0.803922 0 0 0 0 0.529412 0 0 0 0 0.517647 0 0 0 1 0"/><feBlend in2="shape" result="effect1_innerShadow_3987_23162"/></filter><filter id="filter12_f_3987_23162" width="10.371" height="13.323" x="17.499" y="4.739" color-interpolation-filters="sRGB" filterUnits="userSpaceOnUse"><feFlood flood-opacity="0" result="BackgroundImageFix"/><feBlend in="SourceGraphic" in2="BackgroundImageFix" result="shape"/><feGaussianBlur result="effect1_foregroundBlur_3987_23162" stdDeviation=".35"/></filter></defs></svg>