<svg xmlns="http://www.w3.org/2000/svg" width="32" height="32" fill="none" viewBox="0 0 32 32"><g filter="url(#filter0_i_3987_19261)"><path fill="url(#paint0_linear_3987_19261)" d="M7.3 20.824a3 3 0 1 0 0-6 3 3 0 0 0 0 6Z"/></g><g filter="url(#filter1_i_3987_19261)"><path fill="url(#paint1_radial_3987_19261)" d="M25.036 20.824a3 3 0 1 0 0-6 3 3 0 0 0 0 6Z"/></g><g filter="url(#filter2_f_3987_19261)"><path fill="#FFCA38" d="M25.036 19.826a2.003 2.003 0 1 0 0-4.005 2.003 2.003 0 0 0 0 4.005Z"/><path fill="url(#paint2_radial_3987_19261)" d="M25.036 19.826a2.003 2.003 0 1 0 0-4.005 2.003 2.003 0 0 0 0 4.005Z"/></g><g filter="url(#filter3_f_3987_19261)"><path fill="#E28527" d="M7.336 19.826a2.003 2.003 0 1 0 0-4.005 2.003 2.003 0 0 0 0 4.005Z"/><path fill="url(#paint3_radial_3987_19261)" d="M7.336 19.826a2.003 2.003 0 1 0 0-4.005 2.003 2.003 0 0 0 0 4.005Z"/></g><g filter="url(#filter4_i_3987_19261)"><path fill="url(#paint4_radial_3987_19261)" d="M6.682 20.222c.23 5.225 4.31 8.733 9.291 8.733 4.98 0 9.061-3.508 9.29-8.733l.022-8.722c0-3.3-2.057-5.92-6.3-6.736-1.6-.211-4.5-.214-6 0-4.242.816-6.3 3.435-6.3 6.736l-.003 8.722Z"/><path fill="url(#paint5_radial_3987_19261)" d="M6.682 20.222c.23 5.225 4.31 8.733 9.291 8.733 4.98 0 9.061-3.508 9.29-8.733l.022-8.722c0-3.3-2.057-5.92-6.3-6.736-1.6-.211-4.5-.214-6 0-4.242.816-6.3 3.435-6.3 6.736l-.003 8.722Z"/><path fill="url(#paint6_radial_3987_19261)" d="M6.682 20.222c.23 5.225 4.31 8.733 9.291 8.733 4.98 0 9.061-3.508 9.29-8.733l.022-8.722c0-3.3-2.057-5.92-6.3-6.736-1.6-.211-4.5-.214-6 0-4.242.816-6.3 3.435-6.3 6.736l-.003 8.722Z"/><path fill="url(#paint7_radial_3987_19261)" d="M6.682 20.222c.23 5.225 4.31 8.733 9.291 8.733 4.98 0 9.061-3.508 9.29-8.733l.022-8.722c0-3.3-2.057-5.92-6.3-6.736-1.6-.211-4.5-.214-6 0-4.242.816-6.3 3.435-6.3 6.736l-.003 8.722Z"/><path fill="url(#paint8_radial_3987_19261)" d="M6.682 20.222c.23 5.225 4.31 8.733 9.291 8.733 4.98 0 9.061-3.508 9.29-8.733l.022-8.722c0-3.3-2.057-5.92-6.3-6.736-1.6-.211-4.5-.214-6 0-4.242.816-6.3 3.435-6.3 6.736l-.003 8.722Z"/><path fill="url(#paint9_radial_3987_19261)" d="M6.682 20.222c.23 5.225 4.31 8.733 9.291 8.733 4.98 0 9.061-3.508 9.29-8.733l.022-8.722c0-3.3-2.057-5.92-6.3-6.736-1.6-.211-4.5-.214-6 0-4.242.816-6.3 3.435-6.3 6.736l-.003 8.722Z"/></g><g filter="url(#filter5_f_3987_19261)"><path fill="#EB8B29" d="m15.228 17.626-1.275 3.17a1.005 1.005 0 0 0 .97 1.303h1.467c.688 0 1.173-.662.97-1.303l-.99-3.17c-.213-.702-.92-.702-1.142 0Z"/></g><g filter="url(#filter6_f_3987_19261)"><path fill="url(#paint10_linear_3987_19261)" d="m15.323 17.15-.99 3.17a1.005 1.005 0 0 0 .97 1.304h1.466c.688 0 1.173-.662.97-1.304l-.99-3.17c-.213-.702-1.203-.702-1.426 0Z"/><path fill="url(#paint11_radial_3987_19261)" d="m15.323 17.15-.99 3.17a1.005 1.005 0 0 0 .97 1.304h1.466c.688 0 1.173-.662.97-1.304l-.99-3.17c-.213-.702-1.203-.702-1.426 0Z"/><path fill="url(#paint12_linear_3987_19261)" d="m15.323 17.15-.99 3.17a1.005 1.005 0 0 0 .97 1.304h1.466c.688 0 1.173-.662.97-1.304l-.99-3.17c-.213-.702-1.203-.702-1.426 0Z"/><path fill="url(#paint13_linear_3987_19261)" d="m15.323 17.15-.99 3.17a1.005 1.005 0 0 0 .97 1.304h1.466c.688 0 1.173-.662.97-1.304l-.99-3.17c-.213-.702-1.203-.702-1.426 0Z"/></g><path fill="url(#paint14_linear_3987_19261)" d="m15.323 17.15-.99 3.17a1.005 1.005 0 0 0 .97 1.304h1.466c.688 0 1.173-.662.97-1.304l-.99-3.17c-.213-.702-1.203-.702-1.426 0Z"/><path fill="url(#paint15_radial_3987_19261)" d="m15.323 17.15-.99 3.17a1.005 1.005 0 0 0 .97 1.304h1.466c.688 0 1.173-.662.97-1.304l-.99-3.17c-.213-.702-1.203-.702-1.426 0Z"/><path fill="#8A004F" stroke="url(#paint16_linear_3987_19261)" stroke-width=".1" d="M13.409 22.565a.338.338 0 0 0-.41.072.323.323 0 0 0-.034.409 3.652 3.652 0 0 0 3.07 1.678c1.29 0 2.422-.672 3.072-1.678a.327.327 0 0 0-.035-.413.339.339 0 0 0-.409-.068 5.566 5.566 0 0 1-2.627.637 5.594 5.594 0 0 1-2.627-.637Z"/><g filter="url(#filter7_i_3987_19261)"><path fill="#635D5F" d="M18.165 16.763c.495-.87 1.247-1.558 2.867-1.558.709 0 1.392.196 2 .687.5.405.434.924.046 1.118l-1.037.591c-1.215-.392-2.56-.445-3.876-.838Z"/></g><g filter="url(#filter8_i_3987_19261)"><path fill="#635D5F" d="M13.907 16.763c-.495-.87-1.247-1.558-2.866-1.558-.71 0-1.393.196-2 .687-.502.405-.435.924-.046 1.118l1.036.591c1.215-.392 2.56-.445 3.876-.838Z"/></g><path fill="#fff" d="M20.494 15.314c1.217 0 2.246.84 2.526 1.974a.511.511 0 0 1-.5.636h-4.16a.43.43 0 0 1-.423-.507 2.606 2.606 0 0 1 2.557-2.103Z"/><path fill="url(#paint17_radial_3987_19261)" d="M20.108 15.821a1.664 1.664 0 0 1 1.603 2.103h-3.214a1.706 1.706 0 0 1-.06-.439 1.67 1.67 0 0 1 1.671-1.664Z"/><path fill="#000" d="M19.155 17.485c0-.53.423-.953.953-.953s.953.424.953.953a.94.94 0 0 1-.106.439h-1.687a.862.862 0 0 1-.113-.44Z"/><g filter="url(#filter9_f_3987_19261)"><path fill="#C7A7A3" d="M19.986 16.173c.118.158-.13.352-.411.562-.282.211-.491.36-.61.2-.118-.158.014-.457.296-.668.282-.21.606-.253.725-.094Z"/><path fill="url(#paint18_radial_3987_19261)" d="M19.986 16.173c.118.158-.13.352-.411.562-.282.211-.491.36-.61.2-.118-.158.014-.457.296-.668.282-.21.606-.253.725-.094Z"/></g><g filter="url(#filter10_f_3987_19261)"><path fill="url(#paint19_linear_3987_19261)" d="M21.59 17.266a1.566 1.566 0 0 0-.431-.863l-.485.532.219.425.697-.094Z"/></g><path fill="#fff" d="M11.578 15.314c-1.217 0-2.246.84-2.526 1.974a.511.511 0 0 0 .5.636h4.159a.43.43 0 0 0 .423-.507 2.612 2.612 0 0 0-2.556-2.103Z"/><path fill="url(#paint20_radial_3987_19261)" d="M11.964 15.821a1.664 1.664 0 0 0-1.604 2.103h3.215c.038-.144.06-.288.06-.44a1.675 1.675 0 0 0-1.671-1.663Z"/><path fill="#000" d="M12.917 17.485a.949.949 0 0 0-.953-.953.949.949 0 0 0-.953.953c0 .159.038.31.106.439h1.686a.946.946 0 0 0 .114-.44Z"/><g filter="url(#filter11_f_3987_19261)"><path fill="url(#paint21_linear_3987_19261)" d="M13.484 17.29c0-.538-.437-.897-.555-1.005l-.538.52.33.674.763-.19Z"/></g><g filter="url(#filter12_f_3987_19261)" transform="rotate(-27.914 11.462 16.532)"><ellipse cx="11.462" cy="16.532" fill="#C7A7A3" fill-opacity=".9" rx=".726" ry=".368"/><ellipse cx="11.462" cy="16.532" fill="url(#paint22_radial_3987_19261)" rx=".726" ry=".368"/></g><g filter="url(#filter13_i_3987_19261)"><path fill="#BD4F26" d="m9.701 14.509-.008.005a.5.5 0 0 1-.514-.858h.001l.002-.002.006-.003.017-.01a3.259 3.259 0 0 1 .277-.143c.183-.088.445-.2.764-.302.634-.202 1.52-.372 2.477-.204a.5.5 0 0 1-.174.985c-.743-.13-1.457-.001-1.998.172a5.116 5.116 0 0 0-.85.36Z"/></g><g filter="url(#filter14_i_3987_19261)"><path fill="#BD4F26" fill-rule="evenodd" d="m22.993 13.656-.257.429.257-.429a.5.5 0 0 1-.513.858h-.001l-.008-.005a3.747 3.747 0 0 0-.21-.109 5.12 5.12 0 0 0-.64-.251c-.54-.173-1.255-.303-1.998-.172a.5.5 0 0 1-.174-.985c.957-.168 1.843.002 2.477.204a6.095 6.095 0 0 1 .98.411l.06.034.018.01.006.003.002.001.001.001Z" clip-rule="evenodd"/></g><g filter="url(#filter15_f_3987_19261)"><path stroke="#C9725D" stroke-linecap="round" stroke-width=".4" d="M19.652 13.4c.601-.146 2.097-.073 3.096.642"/></g><g filter="url(#filter16_f_3987_19261)"><path stroke="#C9725D" stroke-linecap="round" stroke-width=".4" d="M12.584 13.4c-.601-.146-2.096-.073-3.096.642"/></g><defs><filter id="filter0_i_3987_19261" width="6.15" height="6.25" x="4.3" y="14.824" color-interpolation-filters="sRGB" filterUnits="userSpaceOnUse"><feFlood flood-opacity="0" result="BackgroundImageFix"/><feBlend in="SourceGraphic" in2="BackgroundImageFix" result="shape"/><feColorMatrix in="SourceAlpha" result="hardAlpha" values="0 0 0 0 0 0 0 0 0 0 0 0 0 0 0 0 0 0 127 0"/><feOffset dx=".15" dy=".25"/><feGaussianBlur stdDeviation=".25"/><feComposite in2="hardAlpha" k2="-1" k3="1" operator="arithmetic"/><feColorMatrix values="0 0 0 0 0.835294 0 0 0 0 0.627451 0 0 0 0 0.305882 0 0 0 1 0"/><feBlend in2="shape" result="effect1_innerShadow_3987_19261"/></filter><filter id="filter1_i_3987_19261" width="6" height="6.25" x="22.036" y="14.574" color-interpolation-filters="sRGB" filterUnits="userSpaceOnUse"><feFlood flood-opacity="0" result="BackgroundImageFix"/><feBlend in="SourceGraphic" in2="BackgroundImageFix" result="shape"/><feColorMatrix in="SourceAlpha" result="hardAlpha" values="0 0 0 0 0 0 0 0 0 0 0 0 0 0 0 0 0 0 127 0"/><feOffset dy="-.25"/><feGaussianBlur stdDeviation=".25"/><feComposite in2="hardAlpha" k2="-1" k3="1" operator="arithmetic"/><feColorMatrix values="0 0 0 0 0.937255 0 0 0 0 0.576471 0 0 0 0 0.341176 0 0 0 1 0"/><feBlend in2="shape" result="effect1_innerShadow_3987_19261"/></filter><filter id="filter2_f_3987_19261" width="5.005" height="5.005" x="22.533" y="15.321" color-interpolation-filters="sRGB" filterUnits="userSpaceOnUse"><feFlood flood-opacity="0" result="BackgroundImageFix"/><feBlend in="SourceGraphic" in2="BackgroundImageFix" result="shape"/><feGaussianBlur result="effect1_foregroundBlur_3987_19261" stdDeviation=".25"/></filter><filter id="filter3_f_3987_19261" width="5.005" height="5.005" x="4.833" y="15.321" color-interpolation-filters="sRGB" filterUnits="userSpaceOnUse"><feFlood flood-opacity="0" result="BackgroundImageFix"/><feBlend in="SourceGraphic" in2="BackgroundImageFix" result="shape"/><feGaussianBlur result="effect1_foregroundBlur_3987_19261" stdDeviation=".25"/></filter><filter id="filter4_i_3987_19261" width="19.103" height="24.601" x="6.682" y="4.605" color-interpolation-filters="sRGB" filterUnits="userSpaceOnUse"><feFlood flood-opacity="0" result="BackgroundImageFix"/><feBlend in="SourceGraphic" in2="BackgroundImageFix" result="shape"/><feColorMatrix in="SourceAlpha" result="hardAlpha" values="0 0 0 0 0 0 0 0 0 0 0 0 0 0 0 0 0 0 127 0"/><feOffset dx=".5" dy=".25"/><feGaussianBlur stdDeviation=".75"/><feComposite in2="hardAlpha" k2="-1" k3="1" operator="arithmetic"/><feColorMatrix values="0 0 0 0 0.811765 0 0 0 0 0.643137 0 0 0 0 0.345098 0 0 0 1 0"/><feBlend in2="shape" result="effect1_innerShadow_3987_19261"/></filter><filter id="filter5_f_3987_19261" width="4.5" height="6" x="13.407" y="16.599" color-interpolation-filters="sRGB" filterUnits="userSpaceOnUse"><feFlood flood-opacity="0" result="BackgroundImageFix"/><feBlend in="SourceGraphic" in2="BackgroundImageFix" result="shape"/><feGaussianBlur result="effect1_foregroundBlur_3987_19261" stdDeviation=".25"/></filter><filter id="filter6_f_3987_19261" width="4" height="5.5" x="14.036" y="16.374" color-interpolation-filters="sRGB" filterUnits="userSpaceOnUse"><feFlood flood-opacity="0" result="BackgroundImageFix"/><feBlend in="SourceGraphic" in2="BackgroundImageFix" result="shape"/><feGaussianBlur result="effect1_foregroundBlur_3987_19261" stdDeviation=".125"/></filter><filter id="filter7_i_3987_19261" width="5.423" height="2.397" x="17.965" y="15.205" color-interpolation-filters="sRGB" filterUnits="userSpaceOnUse"><feFlood flood-opacity="0" result="BackgroundImageFix"/><feBlend in="SourceGraphic" in2="BackgroundImageFix" result="shape"/><feColorMatrix in="SourceAlpha" result="hardAlpha" values="0 0 0 0 0 0 0 0 0 0 0 0 0 0 0 0 0 0 127 0"/><feOffset dx="-.2"/><feGaussianBlur stdDeviation=".2"/><feComposite in2="hardAlpha" k2="-1" k3="1" operator="arithmetic"/><feColorMatrix values="0 0 0 0 0.141176 0 0 0 0 0.0862745 0 0 0 0 0.176471 0 0 0 1 0"/><feBlend in2="shape" result="effect1_innerShadow_3987_19261"/></filter><filter id="filter8_i_3987_19261" width="5.423" height="2.397" x="8.684" y="15.205" color-interpolation-filters="sRGB" filterUnits="userSpaceOnUse"><feFlood flood-opacity="0" result="BackgroundImageFix"/><feBlend in="SourceGraphic" in2="BackgroundImageFix" result="shape"/><feColorMatrix in="SourceAlpha" result="hardAlpha" values="0 0 0 0 0 0 0 0 0 0 0 0 0 0 0 0 0 0 127 0"/><feOffset dx=".2"/><feGaussianBlur stdDeviation=".125"/><feComposite in2="hardAlpha" k2="-1" k3="1" operator="arithmetic"/><feColorMatrix values="0 0 0 0 0.133333 0 0 0 0 0.0784314 0 0 0 0 0.168627 0 0 0 1 0"/><feBlend in2="shape" result="effect1_innerShadow_3987_19261"/></filter><filter id="filter9_f_3987_19261" width="1.294" height="1.125" x="18.822" y="15.977" color-interpolation-filters="sRGB" filterUnits="userSpaceOnUse"><feFlood flood-opacity="0" result="BackgroundImageFix"/><feBlend in="SourceGraphic" in2="BackgroundImageFix" result="shape"/><feGaussianBlur result="effect1_foregroundBlur_3987_19261" stdDeviation=".05"/></filter><filter id="filter10_f_3987_19261" width="1.316" height="1.357" x="20.474" y="16.203" color-interpolation-filters="sRGB" filterUnits="userSpaceOnUse"><feFlood flood-opacity="0" result="BackgroundImageFix"/><feBlend in="SourceGraphic" in2="BackgroundImageFix" result="shape"/><feGaussianBlur result="effect1_foregroundBlur_3987_19261" stdDeviation=".1"/></filter><filter id="filter11_f_3987_19261" width="1.493" height="1.594" x="12.191" y="16.085" color-interpolation-filters="sRGB" filterUnits="userSpaceOnUse"><feFlood flood-opacity="0" result="BackgroundImageFix"/><feBlend in="SourceGraphic" in2="BackgroundImageFix" result="shape"/><feGaussianBlur result="effect1_foregroundBlur_3987_19261" stdDeviation=".1"/></filter><filter id="filter12_f_3987_19261" width="1.529" height="1.141" x="10.697" y="15.962" color-interpolation-filters="sRGB" filterUnits="userSpaceOnUse"><feFlood flood-opacity="0" result="BackgroundImageFix"/><feBlend in="SourceGraphic" in2="BackgroundImageFix" result="shape"/><feGaussianBlur result="effect1_foregroundBlur_3987_19261" stdDeviation=".05"/></filter><filter id="filter13_i_3987_19261" width="4.4" height="1.861" x="8.936" y="12.724" color-interpolation-filters="sRGB" filterUnits="userSpaceOnUse"><feFlood flood-opacity="0" result="BackgroundImageFix"/><feBlend in="SourceGraphic" in2="BackgroundImageFix" result="shape"/><feColorMatrix in="SourceAlpha" result="hardAlpha" values="0 0 0 0 0 0 0 0 0 0 0 0 0 0 0 0 0 0 127 0"/><feOffset dx=".2" dy="-.2"/><feGaussianBlur stdDeviation=".15"/><feComposite in2="hardAlpha" k2="-1" k3="1" operator="arithmetic"/><feColorMatrix values="0 0 0 0 0.658824 0 0 0 0 0.270588 0 0 0 0 0.141176 0 0 0 1 0"/><feBlend in2="shape" result="effect1_innerShadow_3987_19261"/></filter><filter id="filter14_i_3987_19261" width="4.4" height="1.861" x="19.036" y="12.724" color-interpolation-filters="sRGB" filterUnits="userSpaceOnUse"><feFlood flood-opacity="0" result="BackgroundImageFix"/><feBlend in="SourceGraphic" in2="BackgroundImageFix" result="shape"/><feColorMatrix in="SourceAlpha" result="hardAlpha" values="0 0 0 0 0 0 0 0 0 0 0 0 0 0 0 0 0 0 127 0"/><feOffset dx=".2" dy="-.2"/><feGaussianBlur stdDeviation=".15"/><feComposite in2="hardAlpha" k2="-1" k3="1" operator="arithmetic"/><feColorMatrix values="0 0 0 0 0.658824 0 0 0 0 0.270588 0 0 0 0 0.141176 0 0 0 1 0"/><feBlend in2="shape" result="effect1_innerShadow_3987_19261"/></filter><filter id="filter15_f_3987_19261" width="4.296" height="1.904" x="19.052" y="12.738" color-interpolation-filters="sRGB" filterUnits="userSpaceOnUse"><feFlood flood-opacity="0" result="BackgroundImageFix"/><feBlend in="SourceGraphic" in2="BackgroundImageFix" result="shape"/><feGaussianBlur result="effect1_foregroundBlur_3987_19261" stdDeviation=".2"/></filter><filter id="filter16_f_3987_19261" width="4.296" height="1.904" x="8.888" y="12.738" color-interpolation-filters="sRGB" filterUnits="userSpaceOnUse"><feFlood flood-opacity="0" result="BackgroundImageFix"/><feBlend in="SourceGraphic" in2="BackgroundImageFix" result="shape"/><feGaussianBlur result="effect1_foregroundBlur_3987_19261" stdDeviation=".2"/></filter><radialGradient id="paint1_radial_3987_19261" cx="0" cy="0" r="1" gradientTransform="rotate(-24.444 54.816 -45.08) scale(5.09754 6.22385)" gradientUnits="userSpaceOnUse"><stop offset=".572" stop-color="#FFC531"/><stop offset=".905" stop-color="#FFE549"/></radialGradient><radialGradient id="paint2_radial_3987_19261" cx="0" cy="0" r="1" gradientTransform="rotate(-20.298 63.324 -59.575) scale(2.43229)" gradientUnits="userSpaceOnUse"><stop offset=".71" stop-color="#FFBA25" stop-opacity="0"/><stop offset="1" stop-color="#FFBA25"/></radialGradient><radialGradient id="paint3_radial_3987_19261" cx="0" cy="0" r="1" gradientTransform="matrix(-2.00258 0 0 -1.9156 7.336 17.824)" gradientUnits="userSpaceOnUse"><stop offset=".415" stop-color="#D67923" stop-opacity="0"/><stop offset="1" stop-color="#D67923"/></radialGradient><radialGradient id="paint4_radial_3987_19261" cx="0" cy="0" r="1" gradientTransform="matrix(-9.375 5.12501 -5.03498 -9.2103 21.296 15.827)" gradientUnits="userSpaceOnUse"><stop stop-color="#FFE647"/><stop offset="1" stop-color="#FCA62B"/></radialGradient><radialGradient id="paint5_radial_3987_19261" cx="0" cy="0" r="1" gradientTransform="rotate(145.635 9.259 8.007) scale(10.2973 9.98192)" gradientUnits="userSpaceOnUse"><stop stop-color="#FFEC48"/><stop offset="1" stop-color="#FFEC48" stop-opacity="0"/></radialGradient><radialGradient id="paint6_radial_3987_19261" cx="0" cy="0" r="1" gradientTransform="rotate(-90 14.358 2.093) scale(2.5625)" gradientUnits="userSpaceOnUse"><stop stop-color="#F0942D"/><stop offset="1" stop-color="#F0942D" stop-opacity="0"/></radialGradient><radialGradient id="paint7_radial_3987_19261" cx="0" cy="0" r="1" gradientTransform="matrix(0 -3.01556 3.0625 0 20.171 16.78)" gradientUnits="userSpaceOnUse"><stop offset=".202" stop-color="#FFBC31"/><stop offset="1" stop-color="#FFBC31" stop-opacity="0"/></radialGradient><radialGradient id="paint8_radial_3987_19261" cx="0" cy="0" r="1" gradientTransform="matrix(0 2.03125 -1.93296 0 11.765 17.483)" gradientUnits="userSpaceOnUse"><stop stop-color="#FFBB2A"/><stop offset="1" stop-color="#FFBB2A" stop-opacity="0"/></radialGradient><radialGradient id="paint9_radial_3987_19261" cx="0" cy="0" r="1" gradientTransform="rotate(106.285 4.707 13.693) scale(17.385 17.0803)" gradientUnits="userSpaceOnUse"><stop offset=".721" stop-color="#D67760" stop-opacity="0"/><stop offset=".96" stop-color="#D67760"/></radialGradient><radialGradient id="paint11_radial_3987_19261" cx="0" cy="0" r="1" gradientTransform="rotate(-105.892 16.364 3.479) scale(4.74883 2.71734)" gradientUnits="userSpaceOnUse"><stop offset=".017" stop-color="#FFE848"/><stop offset="1" stop-color="#FFE848" stop-opacity="0"/></radialGradient><radialGradient id="paint15_radial_3987_19261" cx="0" cy="0" r="1" gradientTransform="rotate(144.462 5.16 12.407) scale(2.93624 3.93288)" gradientUnits="userSpaceOnUse"><stop offset=".797" stop-color="#E2802F" stop-opacity="0"/><stop offset="1" stop-color="#E2802F"/></radialGradient><radialGradient id="paint17_radial_3987_19261" cx="0" cy="0" r="1" gradientTransform="matrix(0 1.51263 -2.406 0 20.104 16.71)" gradientUnits="userSpaceOnUse"><stop offset=".802" stop-color="#925C51"/><stop offset="1" stop-color="#694B43"/><stop offset="1" stop-color="#804D49"/><stop offset="1" stop-color="#85534D"/></radialGradient><radialGradient id="paint18_radial_3987_19261" cx="0" cy="0" r="1" gradientTransform="matrix(-.43239 -.5572 .76712 -.5953 19.679 16.867)" gradientUnits="userSpaceOnUse"><stop offset=".766" stop-color="#FFE6E2" stop-opacity="0"/><stop offset=".966" stop-color="#FFE6E2"/></radialGradient><radialGradient id="paint20_radial_3987_19261" cx="0" cy="0" r="1" gradientTransform="matrix(0 1.51264 -2.40602 0 11.968 16.71)" gradientUnits="userSpaceOnUse"><stop offset=".802" stop-color="#925C51"/><stop offset="1" stop-color="#694B43"/><stop offset="1" stop-color="#804D49"/><stop offset="1" stop-color="#85534D"/></radialGradient><radialGradient id="paint22_radial_3987_19261" cx="0" cy="0" r="1" gradientTransform="rotate(-90.897 14.143 2.931) scale(.92124 1.10737)" gradientUnits="userSpaceOnUse"><stop offset=".766" stop-color="#FFE6E2" stop-opacity="0"/><stop offset=".966" stop-color="#FFE6E2"/></radialGradient><linearGradient id="paint0_linear_3987_19261" x1="4.3" x2="9.817" y1="17.986" y2="17.986" gradientUnits="userSpaceOnUse"><stop stop-color="#E79B27"/><stop offset="1" stop-color="#B96201"/></linearGradient><linearGradient id="paint10_linear_3987_19261" x1="16.036" x2="16.036" y1="21.624" y2="16.624" gradientUnits="userSpaceOnUse"><stop stop-color="#FFC134"/><stop offset="1" stop-color="#F8C73F"/></linearGradient><linearGradient id="paint12_linear_3987_19261" x1="14.085" x2="15.678" y1="20.202" y2="20.397" gradientUnits="userSpaceOnUse"><stop stop-color="#F8A322"/><stop offset="1" stop-color="#F8A322" stop-opacity="0"/></linearGradient><linearGradient id="paint13_linear_3987_19261" x1="16.036" x2="16.036" y1="21.795" y2="20.657" gradientUnits="userSpaceOnUse"><stop stop-color="#E48538"/><stop offset="1" stop-color="#E48538" stop-opacity="0"/></linearGradient><linearGradient id="paint14_linear_3987_19261" x1="16.182" x2="16.182" y1="21.746" y2="21.486" gradientUnits="userSpaceOnUse"><stop stop-color="#E2802F"/><stop offset="1" stop-color="#E2802F" stop-opacity="0"/></linearGradient><linearGradient id="paint16_linear_3987_19261" x1="14.677" x2="15.521" y1="24.549" y2="22.924" gradientUnits="userSpaceOnUse"><stop stop-color="#FEAC35"/><stop offset="1" stop-color="#FEAC35" stop-opacity="0"/></linearGradient><linearGradient id="paint19_linear_3987_19261" x1="21.555" x2="20.97" y1="16.811" y2="17.171" gradientUnits="userSpaceOnUse"><stop stop-color="#B4948D"/><stop offset="1" stop-color="#B4948D" stop-opacity="0"/></linearGradient><linearGradient id="paint21_linear_3987_19261" x1="13.354" x2="12.77" y1="16.811" y2="17.171" gradientUnits="userSpaceOnUse"><stop stop-color="#B4948D"/><stop offset="1" stop-color="#B4948D" stop-opacity="0"/></linearGradient></defs></svg>