<svg xmlns="http://www.w3.org/2000/svg" width="32" height="32" fill="none" viewBox="0 0 32 32"><g filter="url(#filter0_iiii_18_22438)"><path fill="url(#paint0_linear_18_22438)" d="M20.415 2.336a1 1 0 0 0-.707-.293H6.439a1.4 1.4 0 0 0-1.4 1.4v25.114a1.4 1.4 0 0 0 1.4 1.4h19.122a1.4 1.4 0 0 0 1.4-1.4V9.297a1 1 0 0 0-.293-.708l-6.253-6.253Z"/></g><g filter="url(#filter1_f_18_22438)"><path fill="#D2C5DF" d="M19.751 2.457c0-.201.058-.33-.052-.352.104.007.256.045.352.083.123.048-.03.155.067.249a.254.254 0 0 1 .009.008l6.253 6.253a1.009 1.009 0 0 1 .293.708v.063c0-.232-.168-.371-.293-.371h-5.429a1.2 1.2 0 0 1-1.2-1.2V2.457Z"/></g><g filter="url(#filter2_ii_18_22438)"><path fill="url(#paint1_linear_18_22438)" d="M20.04 2.348c0-.202-.159-.282-.269-.303a1 1 0 0 1 .644.29l6.253 6.254a1.013 1.013 0 0 1 .244.4 1 1 0 0 1 .049.307v.063c0-.232-.168-.37-.293-.37h-5.429a1.2 1.2 0 0 1-1.2-1.2V2.347Z"/></g><path fill="url(#paint2_linear_18_22438)" d="M20.04 2.348c0-.202-.159-.282-.269-.303a1 1 0 0 1 .644.29l6.253 6.254a1.013 1.013 0 0 1 .244.4 1 1 0 0 1 .049.307v.063c0-.232-.168-.37-.293-.37h-5.429a1.2 1.2 0 0 1-1.2-1.2V2.347Z"/><rect width="13.914" height=".992" x="9.039" y="11.996" fill="url(#paint3_linear_18_22438)" rx=".496"/><rect width="13.914" height=".992" x="9.039" y="14.996" fill="url(#paint4_linear_18_22438)" rx=".496"/><rect width="13.914" height=".992" x="9.039" y="17.996" fill="url(#paint5_linear_18_22438)" rx=".496"/><rect width="8.984" height=".992" x="9.039" y="20.996" fill="url(#paint6_linear_18_22438)" rx=".496"/><path fill="url(#paint7_radial_18_22438)" d="M25.073 13.498a1.5 1.5 0 0 1 2.111.209l1.95 2.378a1.5 1.5 0 0 1-.207 2.11l-14.138 11.6-3.854-4.698 14.138-11.598Z"/><path fill="url(#paint8_linear_18_22438)" d="M25.073 13.498a1.5 1.5 0 0 1 2.111.209l1.95 2.378a1.5 1.5 0 0 1-.207 2.11l-14.138 11.6-3.854-4.698 14.138-11.598Z"/><path fill="url(#paint9_linear_18_22438)" d="M25.073 13.498a1.5 1.5 0 0 1 2.111.209l1.95 2.378a1.5 1.5 0 0 1-.207 2.11l-14.138 11.6-3.854-4.698 14.138-11.598Z"/><path fill="url(#paint10_radial_18_22438)" d="M25.073 13.498a1.5 1.5 0 0 1 2.111.209l1.95 2.378a1.5 1.5 0 0 1-.207 2.11l-14.138 11.6-3.854-4.698 14.138-11.598Z"/><path fill="url(#paint11_linear_18_22438)" d="M9.843 29.794a.133.133 0 0 0 .13.158l4.353.011a.663.663 0 0 0 .354-.101l.109-.068-3.854-4.698-.074.074a.662.662 0 0 0-.183.343l-.835 4.281Z"/><path fill="url(#paint12_linear_18_22438)" d="M9.843 29.794a.133.133 0 0 0 .13.158l4.353.011a.663.663 0 0 0 .354-.101l.109-.068-3.854-4.698-.074.074a.662.662 0 0 0-.183.343l-.835 4.281Z"/><path fill="url(#paint13_linear_18_22438)" d="M9.843 29.794a.133.133 0 0 0 .13.158l4.353.011a.663.663 0 0 0 .354-.101l.109-.068-3.854-4.698-.074.074a.662.662 0 0 0-.183.343l-.835 4.281Z"/><path fill="url(#paint14_linear_18_22438)" d="m27.013 19.765 2.305-1.89a.994.994 0 0 0 .138-1.4l-2.593-3.16a.994.994 0 0 0-1.398-.138l-2.305 1.891 3.853 4.697Z"/><path fill="url(#paint15_linear_18_22438)" d="m27.013 19.765 2.305-1.89a.994.994 0 0 0 .138-1.4l-2.593-3.16a.994.994 0 0 0-1.398-.138l-2.305 1.891 3.853 4.697Z"/><path fill="url(#paint16_radial_18_22438)" d="m27.013 19.765 2.305-1.89a.994.994 0 0 0 .138-1.4l-2.593-3.16a.994.994 0 0 0-1.398-.138l-2.305 1.891 3.853 4.697Z"/><path fill="url(#paint17_linear_18_22438)" d="m20.85 16.963 2.31-1.895 3.853 4.697-2.31 1.895-3.854-4.697Z"/><path fill="url(#paint18_linear_18_22438)" d="m20.85 16.963 2.31-1.895 3.853 4.697-2.31 1.895-3.854-4.697Z"/><path fill="url(#paint19_linear_18_22438)" d="M9.972 29.952a.133.133 0 0 1-.13-.158l.294-1.501 1.364 1.663-1.528-.004Z"/><defs><linearGradient id="paint0_linear_18_22438" x1="16" x2="16" y1="2.043" y2="30.883" gradientUnits="userSpaceOnUse"><stop stop-color="#E4DCEA"/><stop offset="1" stop-color="#CEC1D5"/></linearGradient><linearGradient id="paint1_linear_18_22438" x1="20.539" x2="23.18" y1="8.707" y2="6.066" gradientUnits="userSpaceOnUse"><stop stop-color="#CAC2CE"/><stop offset="1" stop-color="#BDB4C1"/></linearGradient><linearGradient id="paint2_linear_18_22438" x1="23.773" x2="22.516" y1="5.551" y2="6.82" gradientUnits="userSpaceOnUse"><stop offset=".119" stop-color="#DBDADC"/><stop offset=".577" stop-color="#CBC7D0" stop-opacity="0"/></linearGradient><linearGradient id="paint3_linear_18_22438" x1="9.039" x2="22.953" y1="12.492" y2="12.492" gradientUnits="userSpaceOnUse"><stop stop-color="#9C96A2"/><stop offset="1" stop-color="#9A95A1"/></linearGradient><linearGradient id="paint4_linear_18_22438" x1="9.039" x2="22.953" y1="15.492" y2="15.492" gradientUnits="userSpaceOnUse"><stop stop-color="#9C96A2"/><stop offset="1" stop-color="#9A95A1"/></linearGradient><linearGradient id="paint5_linear_18_22438" x1="9.039" x2="22.953" y1="18.492" y2="18.492" gradientUnits="userSpaceOnUse"><stop stop-color="#9C96A2"/><stop offset="1" stop-color="#9A95A1"/></linearGradient><linearGradient id="paint6_linear_18_22438" x1="9.039" x2="18.023" y1="21.492" y2="21.492" gradientUnits="userSpaceOnUse"><stop stop-color="#9C96A2"/><stop offset="1" stop-color="#9A95A1"/></linearGradient><linearGradient id="paint8_linear_18_22438" x1="16.154" x2="17.087" y1="20.493" y2="21.584" gradientUnits="userSpaceOnUse"><stop stop-color="#EE9B6A"/><stop offset="1" stop-color="#EE9B6A" stop-opacity="0"/></linearGradient><linearGradient id="paint9_linear_18_22438" x1="22.841" x2="21.707" y1="23.566" y2="22.414" gradientUnits="userSpaceOnUse"><stop stop-color="#E66A62"/><stop offset="1" stop-color="#E66A62" stop-opacity="0"/></linearGradient><linearGradient id="paint11_linear_18_22438" x1="11.304" x2="12.766" y1="27.483" y2="30.373" gradientUnits="userSpaceOnUse"><stop stop-color="#D8A587"/><stop offset="1" stop-color="#CE7A98"/></linearGradient><linearGradient id="paint12_linear_18_22438" x1="13.331" x2="12.952" y1="27.809" y2="28.124" gradientUnits="userSpaceOnUse"><stop offset=".207" stop-color="#FFC09F"/><stop offset="1" stop-color="#FCB196" stop-opacity="0"/></linearGradient><linearGradient id="paint13_linear_18_22438" x1="9.748" x2="11.137" y1="27.226" y2="27.487" gradientUnits="userSpaceOnUse"><stop stop-color="#DEBCA3"/><stop offset="1" stop-color="#DEBCA3" stop-opacity="0"/></linearGradient><linearGradient id="paint14_linear_18_22438" x1="28.628" x2="25.643" y1="15.108" y2="17.518" gradientUnits="userSpaceOnUse"><stop stop-color="#FF6153"/><stop offset="1" stop-color="#FF6154"/></linearGradient><linearGradient id="paint15_linear_18_22438" x1="23.831" x2="25.778" y1="14.385" y2="16.575" gradientUnits="userSpaceOnUse"><stop stop-color="#F1553E"/><stop offset="1" stop-color="#F1553E" stop-opacity="0"/></linearGradient><linearGradient id="paint17_linear_18_22438" x1="22.041" x2="24.516" y1="16.081" y2="18.822" gradientUnits="userSpaceOnUse"><stop stop-color="#C5C4CB"/><stop offset="1" stop-color="#E8DEFA"/></linearGradient><linearGradient id="paint18_linear_18_22438" x1="25.871" x2="24.492" y1="21.119" y2="19.485" gradientUnits="userSpaceOnUse"><stop stop-color="#C9B9E0"/><stop offset="1" stop-color="#C9B9E0" stop-opacity="0"/></linearGradient><linearGradient id="paint19_linear_18_22438" x1="10.053" x2="10.657" y1="28.982" y2="30.021" gradientUnits="userSpaceOnUse"><stop stop-color="#461E49"/><stop offset="1" stop-color="#450F51"/></linearGradient><radialGradient id="paint7_radial_18_22438" cx="0" cy="0" r="1" gradientTransform="matrix(9.98063 -8.37694 5.1962 6.19096 12.835 27.572)" gradientUnits="userSpaceOnUse"><stop stop-color="#FF9130"/><stop offset="1" stop-color="#F3633D"/></radialGradient><radialGradient id="paint10_radial_18_22438" cx="0" cy="0" r="1" gradientTransform="matrix(9.3224 -7.60972 1.70167 2.08466 12.682 27.432)" gradientUnits="userSpaceOnUse"><stop stop-color="#FF994D"/><stop offset="1" stop-color="#FF994D" stop-opacity="0"/></radialGradient><radialGradient id="paint16_radial_18_22438" cx="0" cy="0" r="1" gradientTransform="matrix(-.70174 .57568 -1.30777 -1.59415 28.01 15.671)" gradientUnits="userSpaceOnUse"><stop offset=".177" stop-color="#FF786D"/><stop offset="1" stop-color="#FF786D" stop-opacity="0"/></radialGradient><filter id="filter0_iiii_18_22438" width="22.322" height="28.314" x="4.939" y="1.743" color-interpolation-filters="sRGB" filterUnits="userSpaceOnUse"><feFlood flood-opacity="0" result="BackgroundImageFix"/><feBlend in="SourceGraphic" in2="BackgroundImageFix" result="shape"/><feColorMatrix in="SourceAlpha" result="hardAlpha" values="0 0 0 0 0 0 0 0 0 0 0 0 0 0 0 0 0 0 127 0"/><feOffset dx=".3" dy="-.3"/><feGaussianBlur stdDeviation=".3"/><feComposite in2="hardAlpha" k2="-1" k3="1" operator="arithmetic"/><feColorMatrix values="0 0 0 0 0.807843 0 0 0 0 0.768627 0 0 0 0 0.85098 0 0 0 1 0"/><feBlend in2="shape" result="effect1_innerShadow_18_22438"/><feColorMatrix in="SourceAlpha" result="hardAlpha" values="0 0 0 0 0 0 0 0 0 0 0 0 0 0 0 0 0 0 127 0"/><feOffset dx=".1" dy="-.1"/><feGaussianBlur stdDeviation=".1"/><feComposite in2="hardAlpha" k2="-1" k3="1" operator="arithmetic"/><feColorMatrix values="0 0 0 0 0.709804 0 0 0 0 0.690196 0 0 0 0 0.733333 0 0 0 1 0"/><feBlend in2="effect1_innerShadow_18_22438" result="effect2_innerShadow_18_22438"/><feColorMatrix in="SourceAlpha" result="hardAlpha" values="0 0 0 0 0 0 0 0 0 0 0 0 0 0 0 0 0 0 127 0"/><feOffset dy="-.1"/><feGaussianBlur stdDeviation=".1"/><feComposite in2="hardAlpha" k2="-1" k3="1" operator="arithmetic"/><feColorMatrix values="0 0 0 0 0.72549 0 0 0 0 0.65098 0 0 0 0 0.8 0 0 0 1 0"/><feBlend in2="effect2_innerShadow_18_22438" result="effect3_innerShadow_18_22438"/><feColorMatrix in="SourceAlpha" result="hardAlpha" values="0 0 0 0 0 0 0 0 0 0 0 0 0 0 0 0 0 0 127 0"/><feOffset dx="-.15" dy=".15"/><feGaussianBlur stdDeviation=".05"/><feComposite in2="hardAlpha" k2="-1" k3="1" operator="arithmetic"/><feColorMatrix values="0 0 0 0 0.952941 0 0 0 0 0.941176 0 0 0 0 0.964706 0 0 0 1 0"/><feBlend in2="effect3_innerShadow_18_22438" result="effect4_innerShadow_18_22438"/></filter><filter id="filter1_f_18_22438" width="7.974" height="8.363" x="19.199" y="1.605" color-interpolation-filters="sRGB" filterUnits="userSpaceOnUse"><feFlood flood-opacity="0" result="BackgroundImageFix"/><feBlend in="SourceGraphic" in2="BackgroundImageFix" result="shape"/><feGaussianBlur result="effect1_foregroundBlur_18_22438" stdDeviation=".25"/></filter><filter id="filter2_ii_18_22438" width="7.29" height="7.414" x="19.771" y="1.945" color-interpolation-filters="sRGB" filterUnits="userSpaceOnUse"><feFlood flood-opacity="0" result="BackgroundImageFix"/><feBlend in="SourceGraphic" in2="BackgroundImageFix" result="shape"/><feColorMatrix in="SourceAlpha" result="hardAlpha" values="0 0 0 0 0 0 0 0 0 0 0 0 0 0 0 0 0 0 127 0"/><feOffset dx=".1"/><feGaussianBlur stdDeviation=".075"/><feComposite in2="hardAlpha" k2="-1" k3="1" operator="arithmetic"/><feColorMatrix values="0 0 0 0 0.631373 0 0 0 0 0.611765 0 0 0 0 0.654902 0 0 0 1 0"/><feBlend in2="shape" result="effect1_innerShadow_18_22438"/><feColorMatrix in="SourceAlpha" result="hardAlpha" values="0 0 0 0 0 0 0 0 0 0 0 0 0 0 0 0 0 0 127 0"/><feOffset dy="-.1"/><feGaussianBlur stdDeviation=".075"/><feComposite in2="hardAlpha" k2="-1" k3="1" operator="arithmetic"/><feColorMatrix values="0 0 0 0 0.752941 0 0 0 0 0.67451 0 0 0 0 0.835294 0 0 0 1 0"/><feBlend in2="effect1_innerShadow_18_22438" result="effect2_innerShadow_18_22438"/></filter></defs></svg>