<svg xmlns="http://www.w3.org/2000/svg" width="32" height="32" fill="none" viewBox="0 0 32 32"><path fill="url(#paint0_linear_4002_3270)" d="M28.46 30c-.12-6.78-5.65-12.24-12.46-12.24-6.81 0-12.34 5.46-12.46 12.24h24.92Z"/><path fill="url(#paint1_radial_4002_3270)" d="M28.46 30c-.12-6.78-5.65-12.24-12.46-12.24-6.81 0-12.34 5.46-12.46 12.24h24.92Z"/><path fill="url(#paint2_radial_4002_3270)" d="M28.46 30c-.12-6.78-5.65-12.24-12.46-12.24-6.81 0-12.34 5.46-12.46 12.24h24.92Z"/><path fill="url(#paint3_linear_4002_3270)" d="M28.46 30c-.12-6.78-5.65-12.24-12.46-12.24-6.81 0-12.34 5.46-12.46 12.24h24.92Z"/><path fill="url(#paint4_linear_4002_3270)" d="M28.46 30c-.12-6.78-5.65-12.24-12.46-12.24-6.81 0-12.34 5.46-12.46 12.24h24.92Z"/><g filter="url(#filter0_f_4002_3270)"><path fill="#E0244F" fill-rule="evenodd" d="m12.08 19.566 1.01-.8 4.732.185 2.078.615c0 1.242-1.05 2.254-2.34 2.254h-.81c-.14 0-.25.106-.25.24v7.696h-1v-7.695a.243.243 0 0 0-.25-.241h-.83c-1.29 0-2.34-1.012-2.34-2.254Zm2.35 1.29h3.14c.74 0 1.34-.577 1.35-1.29v-1.599h-5.83v1.599c0 .713.6 1.29 1.34 1.29Z" clip-rule="evenodd"/></g><g filter="url(#filter1_iii_4002_3270)"><path fill="url(#paint5_linear_4002_3270)" fill-rule="evenodd" d="M12.08 19.42v-2.66h7.82v2.66c0 1.29-1.05 2.34-2.34 2.34h-.81c-.14 0-.25.11-.25.25V30h-1v-7.99c0-.14-.11-.25-.25-.25h-.83c-1.29 0-2.34-1.05-2.34-2.34Zm2.35 1.34h3.14c.74 0 1.34-.6 1.35-1.34v-1.66h-5.83v1.66c0 .74.6 1.34 1.34 1.34Z" clip-rule="evenodd"/></g><path fill="url(#paint6_radial_4002_3270)" fill-rule="evenodd" d="M12.08 19.42v-2.66h7.82v2.66c0 1.29-1.05 2.34-2.34 2.34h-.81c-.14 0-.25.11-.25.25V30h-1v-7.99c0-.14-.11-.25-.25-.25h-.83c-1.29 0-2.34-1.05-2.34-2.34Zm2.35 1.34h3.14c.74 0 1.34-.6 1.35-1.34v-1.66h-5.83v1.66c0 .74.6 1.34 1.34 1.34Z" clip-rule="evenodd"/><path fill="url(#paint7_linear_4002_3270)" fill-rule="evenodd" d="M12.08 19.42v-2.66h7.82v2.66c0 1.29-1.05 2.34-2.34 2.34h-.81c-.14 0-.25.11-.25.25V30h-1v-7.99c0-.14-.11-.25-.25-.25h-.83c-1.29 0-2.34-1.05-2.34-2.34Zm2.35 1.34h3.14c.74 0 1.34-.6 1.35-1.34v-1.66h-5.83v1.66c0 .74.6 1.34 1.34 1.34Z" clip-rule="evenodd"/><path fill="url(#paint8_radial_4002_3270)" fill-rule="evenodd" d="M12.08 19.42v-2.66h7.82v2.66c0 1.29-1.05 2.34-2.34 2.34h-.81c-.14 0-.25.11-.25.25V30h-1v-7.99c0-.14-.11-.25-.25-.25h-.83c-1.29 0-2.34-1.05-2.34-2.34Zm2.35 1.34h3.14c.74 0 1.34-.6 1.35-1.34v-1.66h-5.83v1.66c0 .74.6 1.34 1.34 1.34Z" clip-rule="evenodd"/><path fill="url(#paint9_radial_4002_3270)" fill-rule="evenodd" d="M12.08 19.42v-2.66h7.82v2.66c0 1.29-1.05 2.34-2.34 2.34h-.81c-.14 0-.25.11-.25.25V30h-1v-7.99c0-.14-.11-.25-.25-.25h-.83c-1.29 0-2.34-1.05-2.34-2.34Zm2.35 1.34h3.14c.74 0 1.34-.6 1.35-1.34v-1.66h-5.83v1.66c0 .74.6 1.34 1.34 1.34Z" clip-rule="evenodd"/><path fill="url(#paint10_radial_4002_3270)" d="M17.57 20.76h-3.14c-.74 0-1.34-.6-1.34-1.34v-1.66h5.83v1.66c-.01.74-.61 1.34-1.35 1.34Z"/><g filter="url(#filter2_i_4002_3270)"><path fill="url(#paint11_linear_4002_3270)" d="M14.78 23.6c0-.28.22-.5.5-.5h1.44c.28 0 .5.22.5.5s-.22.5-.5.5h-1.44c-.28 0-.5-.22-.5-.5Z"/><path fill="url(#paint12_radial_4002_3270)" d="M14.78 23.6c0-.28.22-.5.5-.5h1.44c.28 0 .5.22.5.5s-.22.5-.5.5h-1.44c-.28 0-.5-.22-.5-.5Z"/></g><g filter="url(#filter3_i_4002_3270)"><path fill="url(#paint13_linear_4002_3270)" d="M14.78 26.55c0-.28.22-.5.5-.5h1.44c.28 0 .5.22.5.5s-.22.5-.5.5h-1.44c-.28 0-.5-.22-.5-.5Z"/><path fill="url(#paint14_radial_4002_3270)" d="M14.78 26.55c0-.28.22-.5.5-.5h1.44c.28 0 .5.22.5.5s-.22.5-.5.5h-1.44c-.28 0-.5-.22-.5-.5Z"/></g><g filter="url(#filter4_i_4002_3270)"><path fill="url(#paint15_linear_4002_3270)" d="M14.78 29.5c0-.28.22-.5.5-.5h1.44c.28 0 .5.22.5.5s-.22.5-.5.5h-1.44c-.28 0-.5-.22-.5-.5Z"/><path fill="url(#paint16_radial_4002_3270)" d="M14.78 29.5c0-.28.22-.5.5-.5h1.44c.28 0 .5.22.5.5s-.22.5-.5.5h-1.44c-.28 0-.5-.22-.5-.5Z"/></g><circle cx="10.718" cy="11.756" r="1.855" fill="url(#paint17_radial_4002_3270)"/><g filter="url(#filter5_f_4002_3270)"><circle cx="10.718" cy="11.755" r="1.106" fill="url(#paint18_linear_4002_3270)"/></g><g filter="url(#filter6_i_4002_3270)"><circle cx="21.292" cy="11.756" r="1.855" fill="url(#paint19_linear_4002_3270)"/><circle cx="21.292" cy="11.756" r="1.855" fill="url(#paint20_radial_4002_3270)"/></g><g filter="url(#filter7_f_4002_3270)"><circle cx="21.292" cy="11.755" r="1.106" fill="#FFBF34"/><circle cx="21.292" cy="11.755" r="1.106" fill="url(#paint21_radial_4002_3270)"/><circle cx="21.292" cy="11.755" r="1.106" fill="url(#paint22_radial_4002_3270)"/></g><path fill="url(#paint23_linear_4002_3270)" d="M10.275 11.084c-.03-.349-.125-1.674-.125-1.93 0-.296-.114-.69.125-.867l.195-.469c.298-.237.746.058.746-.298v-.948c0-.297.18-.534.477-.593.716-.178 2.206-.474 4.352-.474 2.146 0 3.637.296 4.352.474.239.06.477.296.477.593v.948c0 .356.701.272.94.51.558.39.234.757.187 1.218-.014.143-.25 1.563-.289 1.836l-.338 4.451c-.179 1.967-1.725 3.338-3.568 3.338h-3.568c-1.903 0-3.39-1.371-3.568-3.338l-.395-4.451Z"/><path fill="url(#paint24_linear_4002_3270)" d="M10.275 11.084c-.03-.349-.125-1.674-.125-1.93 0-.296-.114-.69.125-.867l.195-.469c.298-.237.746.058.746-.298v-.948c0-.297.18-.534.477-.593.716-.178 2.206-.474 4.352-.474 2.146 0 3.637.296 4.352.474.239.06.477.296.477.593v.948c0 .356.701.272.94.51.558.39.234.757.187 1.218-.014.143-.25 1.563-.289 1.836l-.338 4.451c-.179 1.967-1.725 3.338-3.568 3.338h-3.568c-1.903 0-3.39-1.371-3.568-3.338l-.395-4.451Z"/><path fill="url(#paint25_radial_4002_3270)" d="M10.275 11.084c-.03-.349-.125-1.674-.125-1.93 0-.296-.114-.69.125-.867l.195-.469c.298-.237.746.058.746-.298v-.948c0-.297.18-.534.477-.593.716-.178 2.206-.474 4.352-.474 2.146 0 3.637.296 4.352.474.239.06.477.296.477.593v.948c0 .356.701.272.94.51.558.39.234.757.187 1.218-.014.143-.25 1.563-.289 1.836l-.338 4.451c-.179 1.967-1.725 3.338-3.568 3.338h-3.568c-1.903 0-3.39-1.371-3.568-3.338l-.395-4.451Z"/><path fill="url(#paint26_radial_4002_3270)" d="M10.275 11.084c-.03-.349-.125-1.674-.125-1.93 0-.296-.114-.69.125-.867l.195-.469c.298-.237.746.058.746-.298v-.948c0-.297.18-.534.477-.593.716-.178 2.206-.474 4.352-.474 2.146 0 3.637.296 4.352.474.239.06.477.296.477.593v.948c0 .356.701.272.94.51.558.39.234.757.187 1.218-.014.143-.25 1.563-.289 1.836l-.338 4.451c-.179 1.967-1.725 3.338-3.568 3.338h-3.568c-1.903 0-3.39-1.371-3.568-3.338l-.395-4.451Z"/><path fill="url(#paint27_radial_4002_3270)" d="M10.275 11.084c-.03-.349-.125-1.674-.125-1.93 0-.296-.114-.69.125-.867l.195-.469c.298-.237.746.058.746-.298v-.948c0-.297.18-.534.477-.593.716-.178 2.206-.474 4.352-.474 2.146 0 3.637.296 4.352.474.239.06.477.296.477.593v.948c0 .356.701.272.94.51.558.39.234.757.187 1.218-.014.143-.25 1.563-.289 1.836l-.338 4.451c-.179 1.967-1.725 3.338-3.568 3.338h-3.568c-1.903 0-3.39-1.371-3.568-3.338l-.395-4.451Z"/><path fill="url(#paint28_linear_4002_3270)" d="M10.275 11.084c-.03-.349-.125-1.674-.125-1.93 0-.296-.114-.69.125-.867l.195-.469c.298-.237.746.058.746-.298v-.948c0-.297.18-.534.477-.593.716-.178 2.206-.474 4.352-.474 2.146 0 3.637.296 4.352.474.239.06.477.296.477.593v.948c0 .356.701.272.94.51.558.39.234.757.187 1.218-.014.143-.25 1.563-.289 1.836l-.338 4.451c-.179 1.967-1.725 3.338-3.568 3.338h-3.568c-1.903 0-3.39-1.371-3.568-3.338l-.395-4.451Z"/><g filter="url(#filter8_f_4002_3270)"><path fill="#F1901C" d="m15.69 11.62-.912 1.889c-.113.388.158.777.542.777h.82c.384 0 .655-.395.542-.777l-.554-1.89c-.119-.418-.314-.418-.439 0Z"/></g><g filter="url(#filter9_f_4002_3270)"><path fill="#FFCC28" d="m15.57 11.439-.59 1.889a.6.6 0 0 0 .578.777h.874c.41 0 .7-.395.579-.777l-.591-1.89c-.127-.418-.717-.418-.85 0Z"/><path fill="url(#paint29_linear_4002_3270)" d="m15.57 11.439-.59 1.889a.6.6 0 0 0 .578.777h.874c.41 0 .7-.395.579-.777l-.591-1.89c-.127-.418-.717-.418-.85 0Z"/><path fill="url(#paint30_linear_4002_3270)" d="m15.57 11.439-.59 1.889a.6.6 0 0 0 .578.777h.874c.41 0 .7-.395.579-.777l-.591-1.89c-.127-.418-.717-.418-.85 0Z"/><path fill="url(#paint31_linear_4002_3270)" d="m15.57 11.439-.59 1.889a.6.6 0 0 0 .578.777h.874c.41 0 .7-.395.579-.777l-.591-1.89c-.127-.418-.717-.418-.85 0Z"/></g><g filter="url(#filter10_f_4002_3270)"><path stroke="url(#paint32_radial_4002_3270)" stroke-width=".2" d="M15.995 15.235a3.34 3.34 0 0 1-1.54-.365c-.151-.078-.315.094-.22.232.373.564 1.022.94 1.76.94.739 0 1.388-.376 1.76-.94.096-.144-.068-.31-.22-.232-.446.232-.97.365-1.54.365Z"/></g><path fill="#8A004F" d="M15.995 15.235a3.34 3.34 0 0 1-1.54-.365c-.151-.078-.315.094-.22.232.373.564 1.022.94 1.76.94.739 0 1.388-.376 1.76-.94.096-.144-.068-.31-.22-.232-.446.232-.97.365-1.54.365Z"/><path fill="#fff" d="M18.65 10.166c.725 0 1.338.5 1.505 1.176.05.194-.1.379-.298.379h-2.479a.256.256 0 0 1-.253-.302 1.553 1.553 0 0 1 1.524-1.253Z"/><path fill="url(#paint33_radial_4002_3270)" d="M18.42 10.467a.992.992 0 0 1 .955 1.254h-1.916a.996.996 0 0 1 .96-1.253Z"/><path fill="#000" d="M17.851 11.46c0-.316.253-.569.568-.569a.566.566 0 0 1 .505.83H17.92a.513.513 0 0 1-.068-.262Z"/><g filter="url(#filter11_f_4002_3270)"><path fill="#C7A7A3" d="M18.346 10.677c.071.095-.077.21-.244.335-.168.126-.293.214-.364.12-.07-.095.009-.273.176-.399.168-.125.362-.15.432-.056Z"/><path fill="url(#paint34_radial_4002_3270)" d="M18.346 10.677c.071.095-.077.21-.244.335-.168.126-.293.214-.364.12-.07-.095.009-.273.176-.399.168-.125.362-.15.432-.056Z"/></g><g filter="url(#filter12_f_4002_3270)"><path fill="url(#paint35_linear_4002_3270)" d="M19.302 11.329a.934.934 0 0 0-.257-.514l-.288.317.13.253.415-.056Z"/></g><path fill="#fff" d="M13.336 10.166c-.726 0-1.34.5-1.506 1.176-.05.194.1.379.297.379h2.48a.256.256 0 0 0 .252-.302 1.557 1.557 0 0 0-1.523-1.253Z"/><path fill="url(#paint36_radial_4002_3270)" d="M13.566 10.467a.992.992 0 0 0-.956 1.254h1.916c.022-.086.036-.172.036-.262a.999.999 0 0 0-.996-.992Z"/><path fill="#000" d="M14.134 11.46a.566.566 0 0 0-.568-.569.566.566 0 0 0-.505.83h1.005a.564.564 0 0 0 .068-.262Z"/><g filter="url(#filter13_f_4002_3270)"><path fill="url(#paint37_linear_4002_3270)" d="M14.471 11.343c0-.32-.26-.534-.33-.6l-.321.31.197.402.454-.112Z"/></g><g filter="url(#filter14_f_4002_3270)" transform="rotate(-27.914 13.266 10.891)"><ellipse cx="13.266" cy="10.891" fill="#C7A7A3" fill-opacity=".9" rx=".433" ry=".219"/><ellipse cx="13.266" cy="10.891" fill="url(#paint38_radial_4002_3270)" rx=".433" ry=".219"/></g><g filter="url(#filter15_i_4002_3270)"><path fill="#BB3F4C" fill-rule="evenodd" d="M17.973 9.304c.8-.075 1.313.238 1.438.352a.525.525 0 1 0 .711-.772c-.34-.313-1.146-.728-2.247-.625a.525.525 0 0 0 .098 1.045Z" clip-rule="evenodd"/></g><g filter="url(#filter16_f_4002_3270)"><path stroke="#D76D5B" stroke-linecap="round" stroke-width=".25" d="M19.766 9.147c-.232-.214-.891-.577-1.842-.489"/></g><g filter="url(#filter17_i_4002_3270)"><path fill="#BB3F4C" fill-rule="evenodd" d="M14.017 9.304c-.8-.075-1.313.238-1.437.352a.525.525 0 1 1-.712-.772c.34-.313 1.147-.728 2.247-.625a.525.525 0 0 1-.098 1.045Z" clip-rule="evenodd"/></g><g filter="url(#filter18_f_4002_3270)"><path stroke="#D76D5B" stroke-linecap="round" stroke-width=".25" d="M12.224 9.147c.233-.214.892-.577 1.842-.489"/></g><g filter="url(#filter19_i_4002_3270)"><path fill="#D7873C" d="M9.02 6.48c0 .17.01.34.04.52l.51 3.46c.06.34.36.6.71.61 0 0-.07-.98-.11-1.61-.02-.34.11-.66.35-.87l.2-.19c.28-.25.44-.61.44-.99v-.93H9.02Z"/></g><g filter="url(#filter20_i_4002_3270)"><path fill="#FFB730" d="M20.82 6.48v.93c0 .38.16.74.44.99l.22.2c.24.22.37.53.35.86-.04.63-.11 1.6-.11 1.6.34-.02.63-.27.69-.61L22.93 7c.03-.17.05-.35.04-.52h-2.15Z"/><path fill="url(#paint39_linear_4002_3270)" d="M20.82 6.48v.93c0 .38.16.74.44.99l.22.2c.24.22.37.53.35.86-.04.63-.11 1.6-.11 1.6.34-.02.63-.27.69-.61L22.93 7c.03-.17.05-.35.04-.52h-2.15Z"/></g><path fill="url(#paint40_radial_4002_3270)" d="M22.97 7.2H9.03l.2-.52a7.238 7.238 0 0 1 13.54 0l.2.52Z"/><path fill="url(#paint41_radial_4002_3270)" d="M22.97 7.2H9.03l.2-.52a7.238 7.238 0 0 1 13.54 0l.2.52Z"/><path fill="url(#paint42_radial_4002_3270)" d="M8.07 30v-9.392A12.44 12.44 0 0 0 3.54 30h4.53Z"/><path fill="url(#paint43_linear_4002_3270)" d="M8.07 30v-9.392A12.44 12.44 0 0 0 3.54 30h4.53Z"/><path fill="url(#paint44_radial_4002_3270)" d="M8.07 30v-9.392A12.44 12.44 0 0 0 3.54 30h4.53Z"/><path fill="url(#paint45_radial_4002_3270)" d="M23.93 30v-9.392A12.44 12.44 0 0 1 28.46 30h-4.53Z"/><path fill="url(#paint46_radial_4002_3270)" d="M23.93 30v-9.392A12.44 12.44 0 0 1 28.46 30h-4.53Z"/><g filter="url(#filter21_f_4002_3270)"><path fill="url(#paint47_linear_4002_3270)" d="M16 2.076c-.732 0-1.9.832-2.36 3.205h4.72C17.9 2.908 16.733 2.076 16 2.076Z"/></g><path fill="url(#paint48_linear_4002_3270)" d="M16 2c-.699 0-1.814.851-2.254 3.281h4.508C17.814 2.851 16.698 2 16 2Z"/><path fill="url(#paint49_linear_4002_3270)" d="M22.59 8H9.41c-.41 0-.73-.36-.67-.77l.24-1.69c.05-.33.33-.58.67-.58h12.7c.33 0 .62.25.67.58l.24 1.69c.06.41-.26.77-.67.77Z"/><path fill="url(#paint50_linear_4002_3270)" d="M22.59 8H9.41c-.41 0-.73-.36-.67-.77l.24-1.69c.05-.33.33-.58.67-.58h12.7c.33 0 .62.25.67.58l.24 1.69c.06.41-.26.77-.67.77Z"/><path fill="url(#paint51_linear_4002_3270)" d="M22.59 8H9.41c-.41 0-.73-.36-.67-.77l.24-1.69c.05-.33.33-.58.67-.58h12.7c.33 0 .62.25.67.58l.24 1.69c.06.41-.26.77-.67.77Z"/><path fill="url(#paint52_linear_4002_3270)" d="M22.59 8H9.41c-.41 0-.73-.36-.67-.77l.24-1.69c.05-.33.33-.58.67-.58h12.7c.33 0 .62.25.67.58l.24 1.69c.06.41-.26.77-.67.77Z"/><g filter="url(#filter22_f_4002_3270)"><path fill="#3F2950" d="M15.93 7.514a.96.96 0 1 0 0-1.92.96.96 0 0 0 0 1.92Z"/></g><g filter="url(#filter23_i_4002_3270)"><path fill="url(#paint53_radial_4002_3270)" d="M16 7.44a.96.96 0 1 0 0-1.92.96.96 0 0 0 0 1.92Z"/><path fill="url(#paint54_radial_4002_3270)" d="M16 7.44a.96.96 0 1 0 0-1.92.96.96 0 0 0 0 1.92Z"/></g><defs><radialGradient id="paint1_radial_4002_3270" cx="0" cy="0" r="1" gradientTransform="matrix(-3.9375 0 0 -14.75 24.04 28.389)" gradientUnits="userSpaceOnUse"><stop stop-color="#FF5E85"/><stop offset="1" stop-color="#FF5E85" stop-opacity="0"/></radialGradient><radialGradient id="paint2_radial_4002_3270" cx="0" cy="0" r="1" gradientTransform="matrix(0 6.53125 -15.795 0 13.603 15.451)" gradientUnits="userSpaceOnUse"><stop offset=".344" stop-color="#C33D4A"/><stop offset="1" stop-color="#C33D4A" stop-opacity="0"/></radialGradient><radialGradient id="paint6_radial_4002_3270" cx="0" cy="0" r="1" gradientTransform="matrix(1.375 2.79687 -2.17043 1.06703 13.26 18.889)" gradientUnits="userSpaceOnUse"><stop stop-color="#B66913"/><stop offset=".726" stop-color="#B66913" stop-opacity="0"/></radialGradient><radialGradient id="paint8_radial_4002_3270" cx="0" cy="0" r="1" gradientTransform="matrix(2.30035 0 0 .39063 15.99 24.014)" gradientUnits="userSpaceOnUse"><stop stop-color="#AE5A24"/><stop offset="1" stop-color="#AE5A24" stop-opacity="0"/></radialGradient><radialGradient id="paint9_radial_4002_3270" cx="0" cy="0" r="1" gradientTransform="matrix(2.34723 0 0 .39859 15.99 26.982)" gradientUnits="userSpaceOnUse"><stop stop-color="#AE5A24"/><stop offset="1" stop-color="#AE5A24" stop-opacity="0"/></radialGradient><radialGradient id="paint10_radial_4002_3270" cx="0" cy="0" r="1" gradientTransform="rotate(-137.428 13.033 6.878) scale(4.7527 9.93354)" gradientUnits="userSpaceOnUse"><stop stop-color="#4E3B4E"/><stop offset="1" stop-color="#2D1728"/></radialGradient><radialGradient id="paint12_radial_4002_3270" cx="0" cy="0" r="1" gradientTransform="matrix(-1.08728 0 0 -.59375 17.087 23.395)" gradientUnits="userSpaceOnUse"><stop stop-color="#5E5065"/><stop offset="1" stop-color="#5E5065" stop-opacity="0"/></radialGradient><radialGradient id="paint14_radial_4002_3270" cx="0" cy="0" r="1" gradientTransform="matrix(-1.08728 0 0 -.59375 17.087 26.345)" gradientUnits="userSpaceOnUse"><stop stop-color="#5E5065"/><stop offset="1" stop-color="#5E5065" stop-opacity="0"/></radialGradient><radialGradient id="paint16_radial_4002_3270" cx="0" cy="0" r="1" gradientTransform="matrix(-1.08728 0 0 -.59375 17.087 29.294)" gradientUnits="userSpaceOnUse"><stop stop-color="#5E5065"/><stop offset="1" stop-color="#5E5065" stop-opacity="0"/></radialGradient><radialGradient id="paint17_radial_4002_3270" cx="0" cy="0" r="1" gradientTransform="matrix(1.95039 0 0 3.41319 8.863 11.756)" gradientUnits="userSpaceOnUse"><stop offset=".351" stop-color="#E6962B"/><stop offset="1" stop-color="#CA8F29"/></radialGradient><radialGradient id="paint20_radial_4002_3270" cx="0" cy="0" r="1" gradientTransform="matrix(.91882 -.66904 .76362 1.0487 21.705 11.461)" gradientUnits="userSpaceOnUse"><stop offset=".543" stop-color="#FFC532"/><stop offset="1" stop-color="#FFC532" stop-opacity="0"/></radialGradient><radialGradient id="paint21_radial_4002_3270" cx="0" cy="0" r="1" gradientTransform="matrix(.91276 -1.67883 .98263 .53425 21.246 12.668)" gradientUnits="userSpaceOnUse"><stop offset=".69" stop-color="#F4A51A" stop-opacity="0"/><stop offset="1" stop-color="#F4A51A"/></radialGradient><radialGradient id="paint22_radial_4002_3270" cx="0" cy="0" r="1" gradientTransform="matrix(.28818 .28525 -.36773 .3715 21.292 11.755)" gradientUnits="userSpaceOnUse"><stop stop-color="#E59B1F"/><stop offset="1" stop-color="#E59B1F" stop-opacity="0"/></radialGradient><radialGradient id="paint25_radial_4002_3270" cx="0" cy="0" r="1" gradientTransform="matrix(0 9.11983 -10.4132 0 16.54 9.987)" gradientUnits="userSpaceOnUse"><stop offset=".65" stop-color="#FFAC3E" stop-opacity="0"/><stop offset="1" stop-color="#D56E1B"/></radialGradient><radialGradient id="paint26_radial_4002_3270" cx="0" cy="0" r="1" gradientTransform="matrix(0 -1.45271 1.78795 0 18.603 10.343)" gradientUnits="userSpaceOnUse"><stop stop-color="#FFBA0D"/><stop offset="1" stop-color="#FFBA0D" stop-opacity="0"/></radialGradient><radialGradient id="paint27_radial_4002_3270" cx="0" cy="0" r="1" gradientTransform="matrix(0 -1.54583 1.92238 0 13.537 10.305)" gradientUnits="userSpaceOnUse"><stop stop-color="#EE911A"/><stop offset="1" stop-color="#EE911A" stop-opacity="0"/></radialGradient><radialGradient id="paint32_radial_4002_3270" cx="0" cy="0" r="1" gradientTransform="matrix(.02734 -.69715 2.0915 .08203 15.9 16.215)" gradientUnits="userSpaceOnUse"><stop stop-color="#FFD069"/><stop offset="1" stop-color="#FFBE30" stop-opacity="0"/></radialGradient><radialGradient id="paint33_radial_4002_3270" cx="0" cy="0" r="1" gradientTransform="matrix(0 1.00378 -1.18774 0 18.417 11.368)" gradientUnits="userSpaceOnUse"><stop offset=".75" stop-color="#925C51"/><stop offset="1" stop-color="#694B43"/><stop offset="1" stop-color="#804D49"/><stop offset="1" stop-color="#85534D"/></radialGradient><radialGradient id="paint34_radial_4002_3270" cx="0" cy="0" r="1" gradientTransform="matrix(-.2577 -.33208 .4572 -.35479 18.163 11.091)" gradientUnits="userSpaceOnUse"><stop offset=".766" stop-color="#FFE6E2" stop-opacity="0"/><stop offset=".966" stop-color="#FFE6E2"/></radialGradient><radialGradient id="paint36_radial_4002_3270" cx="0" cy="0" r="1" gradientTransform="matrix(0 1.00383 -1.1878 0 13.568 11.368)" gradientUnits="userSpaceOnUse"><stop offset=".75" stop-color="#925C51"/><stop offset="1" stop-color="#694B43"/><stop offset="1" stop-color="#804D49"/><stop offset="1" stop-color="#85534D"/></radialGradient><radialGradient id="paint38_radial_4002_3270" cx="0" cy="0" r="1" gradientTransform="matrix(-.0086 -.549 .65993 -.01033 13.25 11.241)" gradientUnits="userSpaceOnUse"><stop offset=".766" stop-color="#FFE6E2" stop-opacity="0"/><stop offset=".966" stop-color="#FFE6E2"/></radialGradient><radialGradient id="paint40_radial_4002_3270" cx="0" cy="0" r="1" gradientTransform="rotate(-132.749 10.772 -1.558) scale(5.06414 4.42603)" gradientUnits="userSpaceOnUse"><stop stop-color="#FF4C7C"/><stop offset="1" stop-color="#D6384D"/></radialGradient><radialGradient id="paint41_radial_4002_3270" cx="0" cy="0" r="1" gradientTransform="rotate(-105.658 10.416 -3.31) scale(4.28399 11.4844)" gradientUnits="userSpaceOnUse"><stop offset=".704" stop-color="#D14752" stop-opacity="0"/><stop offset="1" stop-color="#D14752"/></radialGradient><radialGradient id="paint42_radial_4002_3270" cx="0" cy="0" r="1" gradientTransform="matrix(1.875 -8.2678 2.61371 .59275 5.353 30)" gradientUnits="userSpaceOnUse"><stop offset=".269" stop-color="#ED396D"/><stop offset="1" stop-color="#CD4D63"/></radialGradient><radialGradient id="paint44_radial_4002_3270" cx="0" cy="0" r="1" gradientTransform="matrix(0 -6.01779 .46875 0 7.79 30)" gradientUnits="userSpaceOnUse"><stop stop-color="#C03C64"/><stop offset="1" stop-color="#C03C64" stop-opacity="0"/></radialGradient><radialGradient id="paint45_radial_4002_3270" cx="0" cy="0" r="1" gradientTransform="matrix(-1.6563 -8.51778 1.79785 -.3496 26.447 30)" gradientUnits="userSpaceOnUse"><stop offset=".311" stop-color="#FF5783"/><stop offset="1" stop-color="#E4526B"/></radialGradient><radialGradient id="paint46_radial_4002_3270" cx="0" cy="0" r="1" gradientTransform="matrix(.55858 0 0 11.598 23.93 30)" gradientUnits="userSpaceOnUse"><stop offset=".151" stop-color="#E3205C"/><stop offset="1" stop-color="#E3205C" stop-opacity="0"/></radialGradient><radialGradient id="paint53_radial_4002_3270" cx="0" cy="0" r="1" gradientTransform="matrix(-1.16967 .60157 -.68916 -1.33998 16.96 6.068)" gradientUnits="userSpaceOnUse"><stop stop-color="#FFDB5A"/><stop offset="1" stop-color="#F6AC3F"/></radialGradient><radialGradient id="paint54_radial_4002_3270" cx="0" cy="0" r="1" gradientTransform="matrix(0 1.56716 -1.70963 0 16 5.873)" gradientUnits="userSpaceOnUse"><stop offset=".568" stop-color="#FAB13F" stop-opacity="0"/><stop offset="1" stop-color="#E0803F"/></radialGradient><linearGradient id="paint0_linear_4002_3270" x1="16" x2="16" y1="17.76" y2="30" gradientUnits="userSpaceOnUse"><stop stop-color="#EA3662"/><stop offset="1" stop-color="#FC3C78"/></linearGradient><linearGradient id="paint3_linear_4002_3270" x1="8.072" x2="8.173" y1="30" y2="30" gradientUnits="userSpaceOnUse"><stop stop-color="#D5345B"/><stop offset="1" stop-color="#D5345B" stop-opacity="0"/></linearGradient><linearGradient id="paint4_linear_4002_3270" x1="23.97" x2="23.775" y1="30" y2="30" gradientUnits="userSpaceOnUse"><stop offset=".16" stop-color="#FD3B6F"/><stop offset="1" stop-color="#FD3B6F" stop-opacity="0"/></linearGradient><linearGradient id="paint5_linear_4002_3270" x1="15.99" x2="15.99" y1="18.92" y2="30" gradientUnits="userSpaceOnUse"><stop stop-color="#FFA730"/><stop offset="1" stop-color="#FFA748"/></linearGradient><linearGradient id="paint7_linear_4002_3270" x1="12.08" x2="12.337" y1="19.256" y2="19.256" gradientUnits="userSpaceOnUse"><stop offset=".157" stop-color="#DB9E53"/><stop offset="1" stop-color="#DB9E53" stop-opacity="0"/></linearGradient><linearGradient id="paint11_linear_4002_3270" x1="16" x2="16" y1="24.1" y2="23.27" gradientUnits="userSpaceOnUse"><stop stop-color="#482566"/><stop offset="1" stop-color="#46384C"/></linearGradient><linearGradient id="paint13_linear_4002_3270" x1="16" x2="16" y1="27.05" y2="26.22" gradientUnits="userSpaceOnUse"><stop stop-color="#482566"/><stop offset="1" stop-color="#46384C"/></linearGradient><linearGradient id="paint15_linear_4002_3270" x1="16" x2="16" y1="30" y2="29.169" gradientUnits="userSpaceOnUse"><stop stop-color="#482566"/><stop offset="1" stop-color="#46384C"/></linearGradient><linearGradient id="paint18_linear_4002_3270" x1="10.718" x2="10.007" y1="12.065" y2="12.065" gradientUnits="userSpaceOnUse"><stop stop-color="#BD6A1E"/><stop offset="1" stop-color="#D77A1C"/></linearGradient><linearGradient id="paint19_linear_4002_3270" x1="22.499" x2="21.589" y1="10.542" y2="13.361" gradientUnits="userSpaceOnUse"><stop stop-color="#FFE446"/><stop offset="1" stop-color="#FFC339"/></linearGradient><linearGradient id="paint23_linear_4002_3270" x1="20.481" x2="11.993" y1="12.189" y2="13.453" gradientUnits="userSpaceOnUse"><stop stop-color="#FFE833"/><stop offset=".916" stop-color="#F9A528"/></linearGradient><linearGradient id="paint24_linear_4002_3270" x1="9.998" x2="12.568" y1="15.185" y2="14.85" gradientUnits="userSpaceOnUse"><stop stop-color="#D19C3A"/><stop offset="1" stop-color="#D19C3A" stop-opacity="0"/></linearGradient><linearGradient id="paint28_linear_4002_3270" x1="16.13" x2="16.13" y1="7.682" y2="9.313" gradientUnits="userSpaceOnUse"><stop offset=".158" stop-color="#E78627"/><stop offset="1" stop-color="#E78627" stop-opacity="0"/></linearGradient><linearGradient id="paint29_linear_4002_3270" x1="15.035" x2="16.077" y1="12.921" y2="12.921" gradientUnits="userSpaceOnUse"><stop stop-color="#FAA416"/><stop offset="1" stop-color="#FAA416" stop-opacity="0"/></linearGradient><linearGradient id="paint30_linear_4002_3270" x1="17.038" x2="15.898" y1="13.28" y2="13.263" gradientUnits="userSpaceOnUse"><stop stop-color="#FFE721"/><stop offset="1" stop-color="#FFE721" stop-opacity="0"/></linearGradient><linearGradient id="paint31_linear_4002_3270" x1="16.211" x2="16.211" y1="14.105" y2="13.468" gradientUnits="userSpaceOnUse"><stop stop-color="#EB8A1C"/><stop offset="1" stop-color="#EB8A1C" stop-opacity="0"/></linearGradient><linearGradient id="paint35_linear_4002_3270" x1="19.281" x2="18.933" y1="11.058" y2="11.273" gradientUnits="userSpaceOnUse"><stop stop-color="#B4948D"/><stop offset="1" stop-color="#B4948D" stop-opacity="0"/></linearGradient><linearGradient id="paint37_linear_4002_3270" x1="14.394" x2="14.046" y1="11.057" y2="11.272" gradientUnits="userSpaceOnUse"><stop stop-color="#B4948D"/><stop offset="1" stop-color="#B4948D" stop-opacity="0"/></linearGradient><linearGradient id="paint39_linear_4002_3270" x1="21.978" x2="22.119" y1="7.669" y2="8.77" gradientUnits="userSpaceOnUse"><stop offset=".25" stop-color="#CA7124"/><stop offset="1" stop-color="#FEB22F" stop-opacity="0"/></linearGradient><linearGradient id="paint43_linear_4002_3270" x1="8.07" x2="6.009" y1="29.545" y2="29.545" gradientUnits="userSpaceOnUse"><stop stop-color="#BC314F"/><stop offset="1" stop-color="#BC314F" stop-opacity="0"/></linearGradient><linearGradient id="paint47_linear_4002_3270" x1="17.836" x2="14.069" y1="4.134" y2="4.134" gradientUnits="userSpaceOnUse"><stop stop-color="#D62A46"/><stop offset="1" stop-color="#E2526D"/></linearGradient><linearGradient id="paint48_linear_4002_3270" x1="16" x2="16" y1="5.281" y2="2.419" gradientUnits="userSpaceOnUse"><stop stop-color="#3B9C62"/><stop offset="1" stop-color="#499065"/></linearGradient><linearGradient id="paint49_linear_4002_3270" x1="21.29" x2="15.228" y1="7.17" y2="7.17" gradientUnits="userSpaceOnUse"><stop stop-color="#69597A"/><stop offset="1" stop-color="#4B3A5D"/></linearGradient><linearGradient id="paint50_linear_4002_3270" x1="8.733" x2="13.54" y1="6.67" y2="6.67" gradientUnits="userSpaceOnUse"><stop stop-color="#615F64"/><stop offset="1" stop-color="#493F55" stop-opacity="0"/></linearGradient><linearGradient id="paint51_linear_4002_3270" x1="16" x2="16" y1="8" y2="7.482" gradientUnits="userSpaceOnUse"><stop stop-color="#512F64"/><stop offset="1" stop-color="#512F64" stop-opacity="0"/></linearGradient><linearGradient id="paint52_linear_4002_3270" x1="16" x2="16" y1="4.873" y2="5.451" gradientUnits="userSpaceOnUse"><stop stop-color="#493D55"/><stop offset="1" stop-color="#493D55" stop-opacity="0"/></linearGradient><filter id="filter0_f_4002_3270" width="8.32" height="12.289" x="11.83" y="17.717" color-interpolation-filters="sRGB" filterUnits="userSpaceOnUse"><feFlood flood-opacity="0" result="BackgroundImageFix"/><feBlend in="SourceGraphic" in2="BackgroundImageFix" result="shape"/><feGaussianBlur result="effect1_foregroundBlur_4002_3270" stdDeviation=".125"/></filter><filter id="filter1_iii_4002_3270" width="8.12" height="13.49" x="11.93" y="16.61" color-interpolation-filters="sRGB" filterUnits="userSpaceOnUse"><feFlood flood-opacity="0" result="BackgroundImageFix"/><feBlend in="SourceGraphic" in2="BackgroundImageFix" result="shape"/><feColorMatrix in="SourceAlpha" result="hardAlpha" values="0 0 0 0 0 0 0 0 0 0 0 0 0 0 0 0 0 0 127 0"/><feOffset dy=".1"/><feGaussianBlur stdDeviation=".1"/><feComposite in2="hardAlpha" k2="-1" k3="1" operator="arithmetic"/><feColorMatrix values="0 0 0 0 0.866667 0 0 0 0 0.533333 0 0 0 0 0.027451 0 0 0 1 0"/><feBlend in2="shape" result="effect1_innerShadow_4002_3270"/><feColorMatrix in="SourceAlpha" result="hardAlpha" values="0 0 0 0 0 0 0 0 0 0 0 0 0 0 0 0 0 0 127 0"/><feOffset dx="-.15"/><feGaussianBlur stdDeviation=".075"/><feComposite in2="hardAlpha" k2="-1" k3="1" operator="arithmetic"/><feColorMatrix values="0 0 0 0 1 0 0 0 0 0.835294 0 0 0 0 0.337255 0 0 0 1 0"/><feBlend in2="effect1_innerShadow_4002_3270" result="effect2_innerShadow_4002_3270"/><feColorMatrix in="SourceAlpha" result="hardAlpha" values="0 0 0 0 0 0 0 0 0 0 0 0 0 0 0 0 0 0 127 0"/><feOffset dx=".15" dy="-.15"/><feGaussianBlur stdDeviation=".075"/><feComposite in2="hardAlpha" k2="-1" k3="1" operator="arithmetic"/><feColorMatrix values="0 0 0 0 0.890196 0 0 0 0 0.533333 0 0 0 0 0.192157 0 0 0 1 0"/><feBlend in2="effect2_innerShadow_4002_3270" result="effect3_innerShadow_4002_3270"/></filter><filter id="filter2_i_4002_3270" width="2.44" height="1.1" x="14.78" y="23.1" color-interpolation-filters="sRGB" filterUnits="userSpaceOnUse"><feFlood flood-opacity="0" result="BackgroundImageFix"/><feBlend in="SourceGraphic" in2="BackgroundImageFix" result="shape"/><feColorMatrix in="SourceAlpha" result="hardAlpha" values="0 0 0 0 0 0 0 0 0 0 0 0 0 0 0 0 0 0 127 0"/><feOffset dy=".1"/><feGaussianBlur stdDeviation=".125"/><feComposite in2="hardAlpha" k2="-1" k3="1" operator="arithmetic"/><feColorMatrix values="0 0 0 0 0.278431 0 0 0 0 0.160784 0 0 0 0 0.239216 0 0 0 1 0"/><feBlend in2="shape" result="effect1_innerShadow_4002_3270"/></filter><filter id="filter3_i_4002_3270" width="2.44" height="1.1" x="14.78" y="26.05" color-interpolation-filters="sRGB" filterUnits="userSpaceOnUse"><feFlood flood-opacity="0" result="BackgroundImageFix"/><feBlend in="SourceGraphic" in2="BackgroundImageFix" result="shape"/><feColorMatrix in="SourceAlpha" result="hardAlpha" values="0 0 0 0 0 0 0 0 0 0 0 0 0 0 0 0 0 0 127 0"/><feOffset dy=".1"/><feGaussianBlur stdDeviation=".125"/><feComposite in2="hardAlpha" k2="-1" k3="1" operator="arithmetic"/><feColorMatrix values="0 0 0 0 0.278431 0 0 0 0 0.160784 0 0 0 0 0.239216 0 0 0 1 0"/><feBlend in2="shape" result="effect1_innerShadow_4002_3270"/></filter><filter id="filter4_i_4002_3270" width="2.44" height="1.1" x="14.78" y="29" color-interpolation-filters="sRGB" filterUnits="userSpaceOnUse"><feFlood flood-opacity="0" result="BackgroundImageFix"/><feBlend in="SourceGraphic" in2="BackgroundImageFix" result="shape"/><feColorMatrix in="SourceAlpha" result="hardAlpha" values="0 0 0 0 0 0 0 0 0 0 0 0 0 0 0 0 0 0 127 0"/><feOffset dy=".1"/><feGaussianBlur stdDeviation=".125"/><feComposite in2="hardAlpha" k2="-1" k3="1" operator="arithmetic"/><feColorMatrix values="0 0 0 0 0.278431 0 0 0 0 0.160784 0 0 0 0 0.239216 0 0 0 1 0"/><feBlend in2="shape" result="effect1_innerShadow_4002_3270"/></filter><filter id="filter5_f_4002_3270" width="3.212" height="3.212" x="9.113" y="10.15" color-interpolation-filters="sRGB" filterUnits="userSpaceOnUse"><feFlood flood-opacity="0" result="BackgroundImageFix"/><feBlend in="SourceGraphic" in2="BackgroundImageFix" result="shape"/><feGaussianBlur result="effect1_foregroundBlur_4002_3270" stdDeviation=".25"/></filter><filter id="filter6_i_4002_3270" width="3.961" height="3.961" x="19.436" y="9.65" color-interpolation-filters="sRGB" filterUnits="userSpaceOnUse"><feFlood flood-opacity="0" result="BackgroundImageFix"/><feBlend in="SourceGraphic" in2="BackgroundImageFix" result="shape"/><feColorMatrix in="SourceAlpha" result="hardAlpha" values="0 0 0 0 0 0 0 0 0 0 0 0 0 0 0 0 0 0 127 0"/><feOffset dx=".25" dy="-.25"/><feGaussianBlur stdDeviation=".25"/><feComposite in2="hardAlpha" k2="-1" k3="1" operator="arithmetic"/><feColorMatrix values="0 0 0 0 0.85098 0 0 0 0 0.560784 0 0 0 0 0.376471 0 0 0 1 0"/><feBlend in2="shape" result="effect1_innerShadow_4002_3270"/></filter><filter id="filter7_f_4002_3270" width="3.212" height="3.212" x="19.686" y="10.15" color-interpolation-filters="sRGB" filterUnits="userSpaceOnUse"><feFlood flood-opacity="0" result="BackgroundImageFix"/><feBlend in="SourceGraphic" in2="BackgroundImageFix" result="shape"/><feGaussianBlur result="effect1_foregroundBlur_4002_3270" stdDeviation=".25"/></filter><filter id="filter8_f_4002_3270" width="3.456" height="4.48" x="14.002" y="10.556" color-interpolation-filters="sRGB" filterUnits="userSpaceOnUse"><feFlood flood-opacity="0" result="BackgroundImageFix"/><feBlend in="SourceGraphic" in2="BackgroundImageFix" result="shape"/><feGaussianBlur result="effect1_foregroundBlur_4002_3270" stdDeviation=".375"/></filter><filter id="filter9_f_4002_3270" width="2.586" height="3.48" x="14.702" y="10.875" color-interpolation-filters="sRGB" filterUnits="userSpaceOnUse"><feFlood flood-opacity="0" result="BackgroundImageFix"/><feBlend in="SourceGraphic" in2="BackgroundImageFix" result="shape"/><feGaussianBlur result="effect1_foregroundBlur_4002_3270" stdDeviation=".125"/></filter><filter id="filter10_f_4002_3270" width="3.976" height="1.592" x="14.007" y="14.65" color-interpolation-filters="sRGB" filterUnits="userSpaceOnUse"><feFlood flood-opacity="0" result="BackgroundImageFix"/><feBlend in="SourceGraphic" in2="BackgroundImageFix" result="shape"/><feGaussianBlur result="effect1_foregroundBlur_4002_3270" stdDeviation=".05"/></filter><filter id="filter11_f_4002_3270" width=".852" height=".752" x="17.612" y="10.52" color-interpolation-filters="sRGB" filterUnits="userSpaceOnUse"><feFlood flood-opacity="0" result="BackgroundImageFix"/><feBlend in="SourceGraphic" in2="BackgroundImageFix" result="shape"/><feGaussianBlur result="effect1_foregroundBlur_4002_3270" stdDeviation=".05"/></filter><filter id="filter12_f_4002_3270" width=".946" height=".971" x="18.557" y="10.615" color-interpolation-filters="sRGB" filterUnits="userSpaceOnUse"><feFlood flood-opacity="0" result="BackgroundImageFix"/><feBlend in="SourceGraphic" in2="BackgroundImageFix" result="shape"/><feGaussianBlur result="effect1_foregroundBlur_4002_3270" stdDeviation=".1"/></filter><filter id="filter13_f_4002_3270" width="1.052" height="1.111" x="13.62" y="10.544" color-interpolation-filters="sRGB" filterUnits="userSpaceOnUse"><feFlood flood-opacity="0" result="BackgroundImageFix"/><feBlend in="SourceGraphic" in2="BackgroundImageFix" result="shape"/><feGaussianBlur result="effect1_foregroundBlur_4002_3270" stdDeviation=".1"/></filter><filter id="filter14_f_4002_3270" width=".992" height=".761" x="12.77" y="10.511" color-interpolation-filters="sRGB" filterUnits="userSpaceOnUse"><feFlood flood-opacity="0" result="BackgroundImageFix"/><feBlend in="SourceGraphic" in2="BackgroundImageFix" result="shape"/><feGaussianBlur result="effect1_foregroundBlur_4002_3270" stdDeviation=".05"/></filter><filter id="filter15_i_4002_3270" width="3.142" height="1.752" x="17.399" y="8.243" color-interpolation-filters="sRGB" filterUnits="userSpaceOnUse"><feFlood flood-opacity="0" result="BackgroundImageFix"/><feBlend in="SourceGraphic" in2="BackgroundImageFix" result="shape"/><feColorMatrix in="SourceAlpha" result="hardAlpha" values="0 0 0 0 0 0 0 0 0 0 0 0 0 0 0 0 0 0 127 0"/><feOffset dx=".25" dy=".2"/><feGaussianBlur stdDeviation=".3"/><feComposite in2="hardAlpha" k2="-1" k3="1" operator="arithmetic"/><feColorMatrix values="0 0 0 0 0.588235 0 0 0 0 0.133333 0 0 0 0 0.0941176 0 0 0 1 0"/><feBlend in2="shape" result="effect1_innerShadow_4002_3270"/></filter><filter id="filter16_f_4002_3270" width="2.892" height="1.552" x="17.399" y="8.12" color-interpolation-filters="sRGB" filterUnits="userSpaceOnUse"><feFlood flood-opacity="0" result="BackgroundImageFix"/><feBlend in="SourceGraphic" in2="BackgroundImageFix" result="shape"/><feGaussianBlur result="effect1_foregroundBlur_4002_3270" stdDeviation=".2"/></filter><filter id="filter17_i_4002_3270" width="3.142" height="1.952" x="11.449" y="8.243" color-interpolation-filters="sRGB" filterUnits="userSpaceOnUse"><feFlood flood-opacity="0" result="BackgroundImageFix"/><feBlend in="SourceGraphic" in2="BackgroundImageFix" result="shape"/><feColorMatrix in="SourceAlpha" result="hardAlpha" values="0 0 0 0 0 0 0 0 0 0 0 0 0 0 0 0 0 0 127 0"/><feOffset dx="-.25" dy=".4"/><feGaussianBlur stdDeviation=".3"/><feComposite in2="hardAlpha" k2="-1" k3="1" operator="arithmetic"/><feColorMatrix values="0 0 0 0 0.588235 0 0 0 0 0.133333 0 0 0 0 0.0941176 0 0 0 1 0"/><feBlend in2="shape" result="effect1_innerShadow_4002_3270"/></filter><filter id="filter18_f_4002_3270" width="2.892" height="1.552" x="11.699" y="8.12" color-interpolation-filters="sRGB" filterUnits="userSpaceOnUse"><feFlood flood-opacity="0" result="BackgroundImageFix"/><feBlend in="SourceGraphic" in2="BackgroundImageFix" result="shape"/><feGaussianBlur result="effect1_foregroundBlur_4002_3270" stdDeviation=".2"/></filter><filter id="filter19_i_4002_3270" width="2.54" height="4.59" x="8.62" y="6.48" color-interpolation-filters="sRGB" filterUnits="userSpaceOnUse"><feFlood flood-opacity="0" result="BackgroundImageFix"/><feBlend in="SourceGraphic" in2="BackgroundImageFix" result="shape"/><feColorMatrix in="SourceAlpha" result="hardAlpha" values="0 0 0 0 0 0 0 0 0 0 0 0 0 0 0 0 0 0 127 0"/><feOffset dx="-.4"/><feGaussianBlur stdDeviation=".2"/><feComposite in2="hardAlpha" k2="-1" k3="1" operator="arithmetic"/><feColorMatrix values="0 0 0 0 0.854902 0 0 0 0 0.388235 0 0 0 0 0.0745098 0 0 0 1 0"/><feBlend in2="shape" result="effect1_innerShadow_4002_3270"/></filter><filter id="filter20_i_4002_3270" width="2.403" height="4.58" x="20.82" y="6.48" color-interpolation-filters="sRGB" filterUnits="userSpaceOnUse"><feFlood flood-opacity="0" result="BackgroundImageFix"/><feBlend in="SourceGraphic" in2="BackgroundImageFix" result="shape"/><feColorMatrix in="SourceAlpha" result="hardAlpha" values="0 0 0 0 0 0 0 0 0 0 0 0 0 0 0 0 0 0 127 0"/><feOffset dx=".25"/><feGaussianBlur stdDeviation=".2"/><feComposite in2="hardAlpha" k2="-1" k3="1" operator="arithmetic"/><feColorMatrix values="0 0 0 0 0.933333 0 0 0 0 0.482353 0 0 0 0 0.0823529 0 0 0 1 0"/><feBlend in2="shape" result="effect1_innerShadow_4002_3270"/></filter><filter id="filter21_f_4002_3270" width="5.021" height="3.505" x="13.489" y="1.926" color-interpolation-filters="sRGB" filterUnits="userSpaceOnUse"><feFlood flood-opacity="0" result="BackgroundImageFix"/><feBlend in="SourceGraphic" in2="BackgroundImageFix" result="shape"/><feGaussianBlur result="effect1_foregroundBlur_4002_3270" stdDeviation=".075"/></filter><filter id="filter22_f_4002_3270" width="2.42" height="2.42" x="14.72" y="5.344" color-interpolation-filters="sRGB" filterUnits="userSpaceOnUse"><feFlood flood-opacity="0" result="BackgroundImageFix"/><feBlend in="SourceGraphic" in2="BackgroundImageFix" result="shape"/><feGaussianBlur result="effect1_foregroundBlur_4002_3270" stdDeviation=".125"/></filter><filter id="filter23_i_4002_3270" width="1.97" height="1.97" x="15.04" y="5.52" color-interpolation-filters="sRGB" filterUnits="userSpaceOnUse"><feFlood flood-opacity="0" result="BackgroundImageFix"/><feBlend in="SourceGraphic" in2="BackgroundImageFix" result="shape"/><feColorMatrix in="SourceAlpha" result="hardAlpha" values="0 0 0 0 0 0 0 0 0 0 0 0 0 0 0 0 0 0 127 0"/><feOffset dx=".05" dy=".05"/><feGaussianBlur stdDeviation=".1"/><feComposite in2="hardAlpha" k2="-1" k3="1" operator="arithmetic"/><feColorMatrix values="0 0 0 0 0.843137 0 0 0 0 0.631373 0 0 0 0 0.215686 0 0 0 1 0"/><feBlend in2="shape" result="effect1_innerShadow_4002_3270"/></filter></defs></svg>