<svg xmlns="http://www.w3.org/2000/svg" width="32" height="32" fill="none" viewBox="0 0 32 32"><g filter="url(#filter0_i_3987_19848)"><circle cx="7.092" cy="18.059" r="3.113" fill="url(#paint0_radial_3987_19848)"/></g><g filter="url(#filter1_f_3987_19848)"><circle cx="7.092" cy="18.059" r="1.855" fill="url(#paint1_linear_3987_19848)"/></g><g filter="url(#filter2_i_3987_19848)"><circle cx="24.833" cy="18.059" r="3.113" fill="url(#paint2_linear_3987_19848)"/><circle cx="24.833" cy="18.059" r="3.113" fill="url(#paint3_radial_3987_19848)"/></g><g filter="url(#filter3_f_3987_19848)"><circle cx="24.833" cy="18.059" r="1.855" fill="#463133"/><circle cx="24.833" cy="18.059" r="1.855" fill="url(#paint4_radial_3987_19848)"/><circle cx="24.833" cy="18.059" r="1.855" fill="url(#paint5_radial_3987_19848)"/></g><g filter="url(#filter4_i_3987_19848)"><path fill="url(#paint6_linear_3987_19848)" d="M6.436 16.916c.03.002.06.003.091.003 0 0-.1-1.591-.2-2.685 0-.498.2-1.094.6-1.393l.3-.298c.5-.398.7-.995.7-1.591V9.36c0-.497.301-.895.801-.994 1.2-.299 3.701-.796 7.302-.796 3.601 0 6.102.497 7.302.796.4.099.8.497.8.994v1.591c0 .597.3 1.194.7 1.592.937.656.879 1.017.801 1.79-.1.995-.2 2.685-.2 2.685h.034L24.97 24.4c-.3 3.3-2.894 5.6-5.987 5.6h-5.987c-3.193 0-5.687-2.3-5.987-5.6l-.574-7.484Z"/><path fill="url(#paint7_linear_3987_19848)" d="M6.436 16.916c.03.002.06.003.091.003 0 0-.1-1.591-.2-2.685 0-.498.2-1.094.6-1.393l.3-.298c.5-.398.7-.995.7-1.591V9.36c0-.497.301-.895.801-.994 1.2-.299 3.701-.796 7.302-.796 3.601 0 6.102.497 7.302.796.4.099.8.497.8.994v1.591c0 .597.3 1.194.7 1.592.937.656.879 1.017.801 1.79-.1.995-.2 2.685-.2 2.685h.034L24.97 24.4c-.3 3.3-2.894 5.6-5.987 5.6h-5.987c-3.193 0-5.687-2.3-5.987-5.6l-.574-7.484Z"/><path fill="url(#paint8_radial_3987_19848)" d="M6.436 16.916c.03.002.06.003.091.003 0 0-.1-1.591-.2-2.685 0-.498.2-1.094.6-1.393l.3-.298c.5-.398.7-.995.7-1.591V9.36c0-.497.301-.895.801-.994 1.2-.299 3.701-.796 7.302-.796 3.601 0 6.102.497 7.302.796.4.099.8.497.8.994v1.591c0 .597.3 1.194.7 1.592.937.656.879 1.017.801 1.79-.1.995-.2 2.685-.2 2.685h.034L24.97 24.4c-.3 3.3-2.894 5.6-5.987 5.6h-5.987c-3.193 0-5.687-2.3-5.987-5.6l-.574-7.484Z"/><path fill="url(#paint9_radial_3987_19848)" d="M6.436 16.916c.03.002.06.003.091.003 0 0-.1-1.591-.2-2.685 0-.498.2-1.094.6-1.393l.3-.298c.5-.398.7-.995.7-1.591V9.36c0-.497.301-.895.801-.994 1.2-.299 3.701-.796 7.302-.796 3.601 0 6.102.497 7.302.796.4.099.8.497.8.994v1.591c0 .597.3 1.194.7 1.592.937.656.879 1.017.801 1.79-.1.995-.2 2.685-.2 2.685h.034L24.97 24.4c-.3 3.3-2.894 5.6-5.987 5.6h-5.987c-3.193 0-5.687-2.3-5.987-5.6l-.574-7.484Z"/><path fill="url(#paint10_radial_3987_19848)" d="M6.436 16.916c.03.002.06.003.091.003 0 0-.1-1.591-.2-2.685 0-.498.2-1.094.6-1.393l.3-.298c.5-.398.7-.995.7-1.591V9.36c0-.497.301-.895.801-.994 1.2-.299 3.701-.796 7.302-.796 3.601 0 6.102.497 7.302.796.4.099.8.497.8.994v1.591c0 .597.3 1.194.7 1.592.937.656.879 1.017.801 1.79-.1.995-.2 2.685-.2 2.685h.034L24.97 24.4c-.3 3.3-2.894 5.6-5.987 5.6h-5.987c-3.193 0-5.687-2.3-5.987-5.6l-.574-7.484Z"/><path fill="url(#paint11_linear_3987_19848)" d="M6.436 16.916c.03.002.06.003.091.003 0 0-.1-1.591-.2-2.685 0-.498.2-1.094.6-1.393l.3-.298c.5-.398.7-.995.7-1.591V9.36c0-.497.301-.895.801-.994 1.2-.299 3.701-.796 7.302-.796 3.601 0 6.102.497 7.302.796.4.099.8.497.8.994v1.591c0 .597.3 1.194.7 1.592.937.656.879 1.017.801 1.79-.1.995-.2 2.685-.2 2.685h.034L24.97 24.4c-.3 3.3-2.894 5.6-5.987 5.6h-5.987c-3.193 0-5.687-2.3-5.987-5.6l-.574-7.484Z"/></g><g filter="url(#filter5_f_3987_19848)"><path fill="url(#paint12_linear_3987_19848)" d="m23.338 7.57-5.74 1.913a1.953 1.953 0 0 0 .878 3.788l5.706-.764-.844-4.937Z"/></g><g filter="url(#filter6_i_3987_19848)"><path fill="#21181B" d="m24.933 5.979.8.397c1.4.697 2.2 2.288 1.9 3.979l-1.1 5.669c-.098.585-.485.98-1.066.994h-.034s.1-1.69.2-2.685c.081-.808-.06-1.054-.8-1.79-.4-.398-.7-.995-.7-1.591V9.36c0-.497-.4-.895-.8-.994-1.201-.299-3.702-.796-7.303-.796-3.6 0-6.102.497-7.302.796-.5.099-.8.497-.8.994v1.591c0 .597-.2 1.194-.7 1.592l-.3.298c-.4.299-.6.895-.6 1.393.1 1.094.2 2.685.2 2.685a1.181 1.181 0 0 1-1.2-.995l-1.101-5.669c-.2-1.591.6-3.182 2-3.879l.8-.397c.5-.299 1-.697 1.501-1.095l1.8-1.89c1.1-.994 2.701-1.292 4.102-.596 1 .298 2.1.298 3.1 0 1.501-.497 3.202-.1 4.402.995l1.5 1.491c.4.498.9.796 1.5 1.095Z"/><path fill="url(#paint13_radial_3987_19848)" d="m24.933 5.979.8.397c1.4.697 2.2 2.288 1.9 3.979l-1.1 5.669c-.098.585-.485.98-1.066.994h-.034s.1-1.69.2-2.685c.081-.808-.06-1.054-.8-1.79-.4-.398-.7-.995-.7-1.591V9.36c0-.497-.4-.895-.8-.994-1.201-.299-3.702-.796-7.303-.796-3.6 0-6.102.497-7.302.796-.5.099-.8.497-.8.994v1.591c0 .597-.2 1.194-.7 1.592l-.3.298c-.4.299-.6.895-.6 1.393.1 1.094.2 2.685.2 2.685a1.181 1.181 0 0 1-1.2-.995l-1.101-5.669c-.2-1.591.6-3.182 2-3.879l.8-.397c.5-.299 1-.697 1.501-1.095l1.8-1.89c1.1-.994 2.701-1.292 4.102-.596 1 .298 2.1.298 3.1 0 1.501-.497 3.202-.1 4.402.995l1.5 1.491c.4.498.9.796 1.5 1.095Z"/><path fill="url(#paint14_radial_3987_19848)" d="m24.933 5.979.8.397c1.4.697 2.2 2.288 1.9 3.979l-1.1 5.669c-.098.585-.485.98-1.066.994h-.034s.1-1.69.2-2.685c.081-.808-.06-1.054-.8-1.79-.4-.398-.7-.995-.7-1.591V9.36c0-.497-.4-.895-.8-.994-1.201-.299-3.702-.796-7.303-.796-3.6 0-6.102.497-7.302.796-.5.099-.8.497-.8.994v1.591c0 .597-.2 1.194-.7 1.592l-.3.298c-.4.299-.6.895-.6 1.393.1 1.094.2 2.685.2 2.685a1.181 1.181 0 0 1-1.2-.995l-1.101-5.669c-.2-1.591.6-3.182 2-3.879l.8-.397c.5-.299 1-.697 1.501-1.095l1.8-1.89c1.1-.994 2.701-1.292 4.102-.596 1 .298 2.1.298 3.1 0 1.501-.497 3.202-.1 4.402.995l1.5 1.491c.4.498.9.796 1.5 1.095Z"/><path fill="url(#paint15_radial_3987_19848)" d="m24.933 5.979.8.397c1.4.697 2.2 2.288 1.9 3.979l-1.1 5.669c-.098.585-.485.98-1.066.994h-.034s.1-1.69.2-2.685c.081-.808-.06-1.054-.8-1.79-.4-.398-.7-.995-.7-1.591V9.36c0-.497-.4-.895-.8-.994-1.201-.299-3.702-.796-7.303-.796-3.6 0-6.102.497-7.302.796-.5.099-.8.497-.8.994v1.591c0 .597-.2 1.194-.7 1.592l-.3.298c-.4.299-.6.895-.6 1.393.1 1.094.2 2.685.2 2.685a1.181 1.181 0 0 1-1.2-.995l-1.101-5.669c-.2-1.591.6-3.182 2-3.879l.8-.397c.5-.299 1-.697 1.501-1.095l1.8-1.89c1.1-.994 2.701-1.292 4.102-.596 1 .298 2.1.298 3.1 0 1.501-.497 3.202-.1 4.402.995l1.5 1.491c.4.498.9.796 1.5 1.095Z"/><path fill="url(#paint16_radial_3987_19848)" d="m24.933 5.979.8.397c1.4.697 2.2 2.288 1.9 3.979l-1.1 5.669c-.098.585-.485.98-1.066.994h-.034s.1-1.69.2-2.685c.081-.808-.06-1.054-.8-1.79-.4-.398-.7-.995-.7-1.591V9.36c0-.497-.4-.895-.8-.994-1.201-.299-3.702-.796-7.303-.796-3.6 0-6.102.497-7.302.796-.5.099-.8.497-.8.994v1.591c0 .597-.2 1.194-.7 1.592l-.3.298c-.4.299-.6.895-.6 1.393.1 1.094.2 2.685.2 2.685a1.181 1.181 0 0 1-1.2-.995l-1.101-5.669c-.2-1.591.6-3.182 2-3.879l.8-.397c.5-.299 1-.697 1.501-1.095l1.8-1.89c1.1-.994 2.701-1.292 4.102-.596 1 .298 2.1.298 3.1 0 1.501-.497 3.202-.1 4.402.995l1.5 1.491c.4.498.9.796 1.5 1.095Z"/></g><g filter="url(#filter7_f_3987_19848)"><path fill="#332024" d="M15.433 17.83 13.903 21c-.19.652.266 1.304.91 1.304h1.375c.645 0 1.1-.662.91-1.304l-.929-3.17c-.199-.701-.527-.701-.736 0Z"/></g><g filter="url(#filter8_f_3987_19848)"><path fill="#4B3034" d="m15.233 17.527-.99 3.17a1.005 1.005 0 0 0 .97 1.303h1.466c.688 0 1.173-.662.971-1.304l-.99-3.17c-.213-.701-1.204-.701-1.427 0Z"/><path fill="url(#paint17_linear_3987_19848)" d="m15.233 17.527-.99 3.17a1.005 1.005 0 0 0 .97 1.303h1.466c.688 0 1.173-.662.971-1.304l-.99-3.17c-.213-.701-1.204-.701-1.427 0Z"/><path fill="url(#paint18_linear_3987_19848)" d="m15.233 17.527-.99 3.17a1.005 1.005 0 0 0 .97 1.303h1.466c.688 0 1.173-.662.971-1.304l-.99-3.17c-.213-.701-1.204-.701-1.427 0Z"/><path fill="url(#paint19_linear_3987_19848)" d="m15.233 17.527-.99 3.17a1.005 1.005 0 0 0 .97 1.303h1.466c.688 0 1.173-.662.971-1.304l-.99-3.17c-.213-.701-1.204-.701-1.427 0Z"/><path fill="url(#paint20_radial_3987_19848)" d="m15.233 17.527-.99 3.17a1.005 1.005 0 0 0 .97 1.303h1.466c.688 0 1.173-.662.971-1.304l-.99-3.17c-.213-.701-1.204-.701-1.427 0Z"/></g><path fill="url(#paint21_linear_3987_19848)" d="m15.233 17.527-.99 3.17a1.005 1.005 0 0 0 .97 1.303h1.466c.688 0 1.173-.662.971-1.304l-.99-3.17c-.213-.701-1.204-.701-1.427 0Z"/><path fill="#2A0219" stroke="url(#paint22_linear_3987_19848)" stroke-width=".1" d="M13.534 23.66a.319.319 0 0 0-.38.065.29.29 0 0 0-.033.374 3.379 3.379 0 0 0 2.825 1.51 3.379 3.379 0 0 0 2.826-1.51.294.294 0 0 0-.033-.378.32.32 0 0 0-.38-.062 5.206 5.206 0 0 1-2.413.572 5.233 5.233 0 0 1-2.412-.572Z"/><g filter="url(#filter9_i_3987_19848)"><path fill="#1E1E1E" d="m22.883 12.986-.002-.002-.004-.002-.008-.007-.023-.018a3.698 3.698 0 0 0-.289-.2 4.816 4.816 0 0 0-.782-.394 5.282 5.282 0 0 0-2.784-.295.995.995 0 1 0 .31 1.966 3.293 3.293 0 0 1 1.742.18 2.832 2.832 0 0 1 .56.298l.015.011a.995.995 0 0 0 1.265-1.537Z"/></g><g filter="url(#filter10_i_3987_19848)"><path fill="#1E1E1E" d="M8.91 12.987v-.001l.002-.002.004-.002.008-.007.022-.018.067-.05a4.804 4.804 0 0 1 1.005-.544 5.282 5.282 0 0 1 2.784-.295.995.995 0 1 1-.31 1.966 3.294 3.294 0 0 0-1.742.18 2.836 2.836 0 0 0-.56.298.995.995 0 1 1-1.28-1.525Z"/></g><path fill="#fff" d="M20.4 15.39c1.217 0 2.245.84 2.525 1.975a.511.511 0 0 1-.499.635h-4.16a.43.43 0 0 1-.423-.507 2.606 2.606 0 0 1 2.556-2.102Z"/><path fill="url(#paint23_radial_3987_19848)" d="M20.013 15.897A1.664 1.664 0 0 1 21.617 18h-3.215a1.706 1.706 0 0 1-.06-.439 1.67 1.67 0 0 1 1.671-1.664Z"/><path fill="#000" d="M19.06 17.561c0-.53.424-.953.953-.953.53 0 .953.424.953.953a.94.94 0 0 1-.106.439h-1.686a.862.862 0 0 1-.113-.439Z"/><g filter="url(#filter11_f_3987_19848)"><path fill="#C7A7A3" d="M19.891 16.25c.119.158-.13.351-.41.562-.283.21-.492.359-.61.2-.119-.159.014-.458.295-.669.282-.21.607-.252.725-.094Z"/><path fill="url(#paint24_radial_3987_19848)" d="M19.891 16.25c.119.158-.13.351-.41.562-.283.21-.492.359-.61.2-.119-.159.014-.458.295-.669.282-.21.607-.252.725-.094Z"/></g><g filter="url(#filter12_iii_3987_19848)"><path fill="url(#paint25_linear_3987_19848)" d="m25.672 14.134-.703 10.2c-.301 3.3-2.51 5.666-6.023 5.666h-6.024C9.41 30 7.2 27.634 6.9 24.334l-.663-9.345 3.072 8.045c.1.5.703.6 1.004.3l.803-.7c.703-.6 1.506-.8 2.31-.8h5.019c.903 0 1.706.2 2.309.8l.803.7c.301.3.903.1 1.004-.3l3.112-8.9Zm-12.75 11.7c0 .9.803 1.7 1.807 1.7.201 0 .301-.2.301-.3v-.1c0-.5.402-.9.904-.9s.903.4.903.9v.1c0 .2.201.3.302.3.903 0 1.807-.7 1.807-1.7v-1.5c0-.5-.347-.9-1.004-.9h-4.016c-.636 0-1.004.4-1.004.9v1.5Z"/></g><path fill="url(#paint26_linear_3987_19848)" d="m25.672 14.134-.703 10.2c-.301 3.3-2.51 5.666-6.023 5.666h-6.024C9.41 30 7.2 27.634 6.9 24.334l-.663-9.345 3.072 8.045c.1.5.703.6 1.004.3l.803-.7c.703-.6 1.506-.8 2.31-.8h5.019c.903 0 1.706.2 2.309.8l.803.7c.301.3.903.1 1.004-.3l3.112-8.9Zm-12.75 11.7c0 .9.803 1.7 1.807 1.7.201 0 .301-.2.301-.3v-.1c0-.5.402-.9.904-.9s.903.4.903.9v.1c0 .2.201.3.302.3.903 0 1.807-.7 1.807-1.7v-1.5c0-.5-.347-.9-1.004-.9h-4.016c-.636 0-1.004.4-1.004.9v1.5Z"/><path fill="url(#paint27_radial_3987_19848)" d="m25.672 14.134-.703 10.2c-.301 3.3-2.51 5.666-6.023 5.666h-6.024C9.41 30 7.2 27.634 6.9 24.334l-.663-9.345 3.072 8.045c.1.5.703.6 1.004.3l.803-.7c.703-.6 1.506-.8 2.31-.8h5.019c.903 0 1.706.2 2.309.8l.803.7c.301.3.903.1 1.004-.3l3.112-8.9Zm-12.75 11.7c0 .9.803 1.7 1.807 1.7.201 0 .301-.2.301-.3v-.1c0-.5.402-.9.904-.9s.903.4.903.9v.1c0 .2.201.3.302.3.903 0 1.807-.7 1.807-1.7v-1.5c0-.5-.347-.9-1.004-.9h-4.016c-.636 0-1.004.4-1.004.9v1.5Z"/><g filter="url(#filter13_f_3987_19848)"><path fill="url(#paint28_linear_3987_19848)" d="M21.495 17.342a1.566 1.566 0 0 0-.43-.862l-.485.531.218.426.698-.095Z"/></g><path fill="#fff" d="M11.484 15.39c-1.218 0-2.247.84-2.526 1.975a.511.511 0 0 0 .499.635h4.16a.43.43 0 0 0 .423-.507 2.612 2.612 0 0 0-2.556-2.102Z"/><path fill="url(#paint29_radial_3987_19848)" d="M11.87 15.897A1.664 1.664 0 0 0 10.265 18h3.214c.038-.144.061-.287.061-.439a1.675 1.675 0 0 0-1.671-1.664Z"/><path fill="#000" d="M12.822 17.561a.949.949 0 0 0-.952-.953.95.95 0 0 0-.954.953c0 .16.038.31.106.439h1.687a.946.946 0 0 0 .114-.439Z"/><g filter="url(#filter14_f_3987_19848)"><path fill="url(#paint30_linear_3987_19848)" d="M13.39 17.366c0-.538-.438-.896-.556-1.005l-.537.52.33.674.763-.19Z"/></g><g filter="url(#filter15_f_3987_19848)" transform="rotate(-27.914 11.367 16.608)"><ellipse cx="11.367" cy="16.608" fill="#C7A7A3" fill-opacity=".9" rx=".726" ry=".368"/><ellipse cx="11.367" cy="16.608" fill="url(#paint31_radial_3987_19848)" rx=".726" ry=".368"/></g><g filter="url(#filter16_f_3987_19848)"><path stroke="url(#paint32_linear_3987_19848)" stroke-linecap="round" stroke-width=".5" d="M19.043 12.717c.802-.14 2.366-.1 3.449.742"/></g><g filter="url(#filter17_f_3987_19848)"><path stroke="url(#paint33_linear_3987_19848)" stroke-linecap="round" stroke-width=".5" d="M9.31 13.684c.61-.54 1.942-1.107 3.593-.844"/></g><g filter="url(#filter18_f_3987_19848)"><path stroke="url(#paint34_linear_3987_19848)" stroke-linecap="round" stroke-width=".25" d="M7.493 9.086v1.674c-.014.277-.131.897-.481 1.16"/></g><defs><filter id="filter0_i_3987_19848" width="6.427" height="6.227" x="3.979" y="14.945" color-interpolation-filters="sRGB" filterUnits="userSpaceOnUse"><feFlood flood-opacity="0" result="BackgroundImageFix"/><feBlend in="SourceGraphic" in2="BackgroundImageFix" result="shape"/><feColorMatrix in="SourceAlpha" result="hardAlpha" values="0 0 0 0 0 0 0 0 0 0 0 0 0 0 0 0 0 0 127 0"/><feOffset dx=".2"/><feGaussianBlur stdDeviation=".15"/><feComposite in2="hardAlpha" k2="-1" k3="1" operator="arithmetic"/><feColorMatrix values="0 0 0 0 0.341176 0 0 0 0 0.270588 0 0 0 0 0.254902 0 0 0 1 0"/><feBlend in2="shape" result="effect1_innerShadow_3987_19848"/></filter><filter id="filter1_f_3987_19848" width="4.711" height="4.711" x="4.737" y="15.703" color-interpolation-filters="sRGB" filterUnits="userSpaceOnUse"><feFlood flood-opacity="0" result="BackgroundImageFix"/><feBlend in="SourceGraphic" in2="BackgroundImageFix" result="shape"/><feGaussianBlur result="effect1_foregroundBlur_3987_19848" stdDeviation=".25"/></filter><filter id="filter2_i_3987_19848" width="6.477" height="6.477" x="21.72" y="14.695" color-interpolation-filters="sRGB" filterUnits="userSpaceOnUse"><feFlood flood-opacity="0" result="BackgroundImageFix"/><feBlend in="SourceGraphic" in2="BackgroundImageFix" result="shape"/><feColorMatrix in="SourceAlpha" result="hardAlpha" values="0 0 0 0 0 0 0 0 0 0 0 0 0 0 0 0 0 0 127 0"/><feOffset dx=".25" dy="-.25"/><feGaussianBlur stdDeviation=".25"/><feComposite in2="hardAlpha" k2="-1" k3="1" operator="arithmetic"/><feColorMatrix values="0 0 0 0 0.243137 0 0 0 0 0.141176 0 0 0 0 0.223529 0 0 0 1 0"/><feBlend in2="shape" result="effect1_innerShadow_3987_19848"/></filter><filter id="filter3_f_3987_19848" width="4.711" height="4.711" x="22.478" y="15.703" color-interpolation-filters="sRGB" filterUnits="userSpaceOnUse"><feFlood flood-opacity="0" result="BackgroundImageFix"/><feBlend in="SourceGraphic" in2="BackgroundImageFix" result="shape"/><feGaussianBlur result="effect1_foregroundBlur_3987_19848" stdDeviation=".25"/></filter><filter id="filter4_i_3987_19848" width="19.345" height="22.68" x="6.327" y="7.57" color-interpolation-filters="sRGB" filterUnits="userSpaceOnUse"><feFlood flood-opacity="0" result="BackgroundImageFix"/><feBlend in="SourceGraphic" in2="BackgroundImageFix" result="shape"/><feColorMatrix in="SourceAlpha" result="hardAlpha" values="0 0 0 0 0 0 0 0 0 0 0 0 0 0 0 0 0 0 127 0"/><feOffset dy=".25"/><feGaussianBlur stdDeviation=".375"/><feComposite in2="hardAlpha" k2="-1" k3="1" operator="arithmetic"/><feColorMatrix values="0 0 0 0 0.109804 0 0 0 0 0.0509804 0 0 0 0 0.0509804 0 0 0 1 0"/><feBlend in2="shape" result="effect1_innerShadow_3987_19848"/></filter><filter id="filter5_f_3987_19848" width="11.918" height="9.719" x="14.263" y="5.57" color-interpolation-filters="sRGB" filterUnits="userSpaceOnUse"><feFlood flood-opacity="0" result="BackgroundImageFix"/><feBlend in="SourceGraphic" in2="BackgroundImageFix" result="shape"/><feGaussianBlur result="effect1_foregroundBlur_3987_19848" stdDeviation="1"/></filter><filter id="filter6_i_3987_19848" width="23.5" height="15.5" x="4.196" y="1.519" color-interpolation-filters="sRGB" filterUnits="userSpaceOnUse"><feFlood flood-opacity="0" result="BackgroundImageFix"/><feBlend in="SourceGraphic" in2="BackgroundImageFix" result="shape"/><feColorMatrix in="SourceAlpha" result="hardAlpha" values="0 0 0 0 0 0 0 0 0 0 0 0 0 0 0 0 0 0 127 0"/><feOffset dy="-.5"/><feGaussianBlur stdDeviation=".375"/><feComposite in2="hardAlpha" k2="-1" k3="1" operator="arithmetic"/><feColorMatrix values="0 0 0 0 0.0392157 0 0 0 0 0.00784314 0 0 0 0 0.0196078 0 0 0 1 0"/><feBlend in2="shape" result="effect1_innerShadow_3987_19848"/></filter><filter id="filter7_f_3987_19848" width="4.782" height="6.5" x="13.11" y="16.554" color-interpolation-filters="sRGB" filterUnits="userSpaceOnUse"><feFlood flood-opacity="0" result="BackgroundImageFix"/><feBlend in="SourceGraphic" in2="BackgroundImageFix" result="shape"/><feGaussianBlur result="effect1_foregroundBlur_3987_19848" stdDeviation=".375"/></filter><filter id="filter8_f_3987_19848" width="4" height="5.5" x="13.946" y="16.75" color-interpolation-filters="sRGB" filterUnits="userSpaceOnUse"><feFlood flood-opacity="0" result="BackgroundImageFix"/><feBlend in="SourceGraphic" in2="BackgroundImageFix" result="shape"/><feGaussianBlur result="effect1_foregroundBlur_3987_19848" stdDeviation=".125"/></filter><filter id="filter9_i_3987_19848" width="5.34" height="3.147" x="18.151" y="11.6" color-interpolation-filters="sRGB" filterUnits="userSpaceOnUse"><feFlood flood-opacity="0" result="BackgroundImageFix"/><feBlend in="SourceGraphic" in2="BackgroundImageFix" result="shape"/><feColorMatrix in="SourceAlpha" result="hardAlpha" values="0 0 0 0 0 0 0 0 0 0 0 0 0 0 0 0 0 0 127 0"/><feOffset dx=".25" dy="-.4"/><feGaussianBlur stdDeviation=".3"/><feComposite in2="hardAlpha" k2="-1" k3="1" operator="arithmetic"/><feColorMatrix values="0 0 0 0 0.0431373 0 0 0 0 0.0196078 0 0 0 0 0.027451 0 0 0 1 0"/><feBlend in2="shape" result="effect1_innerShadow_3987_19848"/></filter><filter id="filter10_i_3987_19848" width="5.341" height="3.147" x="8.551" y="11.6" color-interpolation-filters="sRGB" filterUnits="userSpaceOnUse"><feFlood flood-opacity="0" result="BackgroundImageFix"/><feBlend in="SourceGraphic" in2="BackgroundImageFix" result="shape"/><feColorMatrix in="SourceAlpha" result="hardAlpha" values="0 0 0 0 0 0 0 0 0 0 0 0 0 0 0 0 0 0 127 0"/><feOffset dx=".25" dy="-.4"/><feGaussianBlur stdDeviation=".3"/><feComposite in2="hardAlpha" k2="-1" k3="1" operator="arithmetic"/><feColorMatrix values="0 0 0 0 0.0431373 0 0 0 0 0.0196078 0 0 0 0 0.027451 0 0 0 1 0"/><feBlend in2="shape" result="effect1_innerShadow_3987_19848"/></filter><filter id="filter11_f_3987_19848" width="1.294" height="1.125" x="18.727" y="16.053" color-interpolation-filters="sRGB" filterUnits="userSpaceOnUse"><feFlood flood-opacity="0" result="BackgroundImageFix"/><feBlend in="SourceGraphic" in2="BackgroundImageFix" result="shape"/><feGaussianBlur result="effect1_foregroundBlur_3987_19848" stdDeviation=".05"/></filter><filter id="filter12_iii_3987_19848" width="20.086" height="16.516" x="5.936" y="13.734" color-interpolation-filters="sRGB" filterUnits="userSpaceOnUse"><feFlood flood-opacity="0" result="BackgroundImageFix"/><feBlend in="SourceGraphic" in2="BackgroundImageFix" result="shape"/><feColorMatrix in="SourceAlpha" result="hardAlpha" values="0 0 0 0 0 0 0 0 0 0 0 0 0 0 0 0 0 0 127 0"/><feOffset dy="-.4"/><feGaussianBlur stdDeviation=".5"/><feComposite in2="hardAlpha" k2="-1" k3="1" operator="arithmetic"/><feColorMatrix values="0 0 0 0 0.290196 0 0 0 0 0.235294 0 0 0 0 0.345098 0 0 0 1 0"/><feBlend in2="shape" result="effect1_innerShadow_3987_19848"/><feColorMatrix in="SourceAlpha" result="hardAlpha" values="0 0 0 0 0 0 0 0 0 0 0 0 0 0 0 0 0 0 127 0"/><feOffset dx="-.3" dy=".25"/><feGaussianBlur stdDeviation=".25"/><feComposite in2="hardAlpha" k2="-1" k3="1" operator="arithmetic"/><feColorMatrix values="0 0 0 0 0.298039 0 0 0 0 0.290196 0 0 0 0 0.290196 0 0 0 1 0"/><feBlend in2="effect1_innerShadow_3987_19848" result="effect2_innerShadow_3987_19848"/><feColorMatrix in="SourceAlpha" result="hardAlpha" values="0 0 0 0 0 0 0 0 0 0 0 0 0 0 0 0 0 0 127 0"/><feOffset dx=".35"/><feGaussianBlur stdDeviation=".175"/><feComposite in2="hardAlpha" k2="-1" k3="1" operator="arithmetic"/><feColorMatrix values="0 0 0 0 0.0509804 0 0 0 0 0.0196078 0 0 0 0 0.0235294 0 0 0 1 0"/><feBlend in2="effect2_innerShadow_3987_19848" result="effect3_innerShadow_3987_19848"/></filter><filter id="filter13_f_3987_19848" width="1.316" height="1.357" x="20.38" y="16.28" color-interpolation-filters="sRGB" filterUnits="userSpaceOnUse"><feFlood flood-opacity="0" result="BackgroundImageFix"/><feBlend in="SourceGraphic" in2="BackgroundImageFix" result="shape"/><feGaussianBlur result="effect1_foregroundBlur_3987_19848" stdDeviation=".1"/></filter><filter id="filter14_f_3987_19848" width="1.493" height="1.594" x="12.097" y="16.161" color-interpolation-filters="sRGB" filterUnits="userSpaceOnUse"><feFlood flood-opacity="0" result="BackgroundImageFix"/><feBlend in="SourceGraphic" in2="BackgroundImageFix" result="shape"/><feGaussianBlur result="effect1_foregroundBlur_3987_19848" stdDeviation=".1"/></filter><filter id="filter15_f_3987_19848" width="1.529" height="1.141" x="10.603" y="16.038" color-interpolation-filters="sRGB" filterUnits="userSpaceOnUse"><feFlood flood-opacity="0" result="BackgroundImageFix"/><feBlend in="SourceGraphic" in2="BackgroundImageFix" result="shape"/><feGaussianBlur result="effect1_foregroundBlur_3987_19848" stdDeviation=".05"/></filter><filter id="filter16_f_3987_19848" width="4.949" height="2.304" x="18.293" y="11.905" color-interpolation-filters="sRGB" filterUnits="userSpaceOnUse"><feFlood flood-opacity="0" result="BackgroundImageFix"/><feBlend in="SourceGraphic" in2="BackgroundImageFix" result="shape"/><feGaussianBlur result="effect1_foregroundBlur_3987_19848" stdDeviation=".25"/></filter><filter id="filter17_f_3987_19848" width="5.094" height="2.41" x="8.56" y="12.023" color-interpolation-filters="sRGB" filterUnits="userSpaceOnUse"><feFlood flood-opacity="0" result="BackgroundImageFix"/><feBlend in="SourceGraphic" in2="BackgroundImageFix" result="shape"/><feGaussianBlur result="effect1_foregroundBlur_3987_19848" stdDeviation=".25"/></filter><filter id="filter18_f_3987_19848" width="1.231" height="3.583" x="6.637" y="8.711" color-interpolation-filters="sRGB" filterUnits="userSpaceOnUse"><feFlood flood-opacity="0" result="BackgroundImageFix"/><feBlend in="SourceGraphic" in2="BackgroundImageFix" result="shape"/><feGaussianBlur result="effect1_foregroundBlur_3987_19848" stdDeviation=".125"/></filter><linearGradient id="paint1_linear_3987_19848" x1="7.092" x2="5.898" y1="18.578" y2="18.578" gradientUnits="userSpaceOnUse"><stop stop-color="#281920"/><stop offset="1" stop-color="#27161D"/></linearGradient><linearGradient id="paint2_linear_3987_19848" x1="26.859" x2="25.332" y1="16.023" y2="20.753" gradientUnits="userSpaceOnUse"><stop stop-color="#635251"/><stop offset="1" stop-color="#452A31"/></linearGradient><linearGradient id="paint6_linear_3987_19848" x1="23.473" x2="9.231" y1="18.785" y2="20.907" gradientUnits="userSpaceOnUse"><stop stop-color="#533531"/><stop offset="1" stop-color="#3C2828"/></linearGradient><linearGradient id="paint7_linear_3987_19848" x1="5.884" x2="9.392" y1="23.813" y2="23.688" gradientUnits="userSpaceOnUse"><stop stop-color="#564440"/><stop offset="1" stop-color="#564440" stop-opacity="0"/></linearGradient><linearGradient id="paint11_linear_3987_19848" x1="16" x2="16" y1="-11.563" y2="30.375" gradientUnits="userSpaceOnUse"><stop offset=".979" stop-color="#624D68" stop-opacity="0"/><stop offset="1" stop-color="#624D68"/></linearGradient><linearGradient id="paint12_linear_3987_19848" x1="14.955" x2="30.142" y1="13.219" y2="7.781" gradientUnits="userSpaceOnUse"><stop stop-color="#685654"/><stop offset="1" stop-color="#685654" stop-opacity="0"/></linearGradient><linearGradient id="paint17_linear_3987_19848" x1="14.335" x2="16.084" y1="20.014" y2="20.014" gradientUnits="userSpaceOnUse"><stop stop-color="#3D2928"/><stop offset="1" stop-color="#3D2928" stop-opacity="0"/></linearGradient><linearGradient id="paint18_linear_3987_19848" x1="17.696" x2="15.784" y1="20.616" y2="20.588" gradientUnits="userSpaceOnUse"><stop stop-color="#624D4B"/><stop offset="1" stop-color="#624D4B" stop-opacity="0"/></linearGradient><linearGradient id="paint19_linear_3987_19848" x1="16.309" x2="16.309" y1="22" y2="20.931" gradientUnits="userSpaceOnUse"><stop stop-color="#3F222F"/><stop offset="1" stop-color="#3F222F" stop-opacity="0"/></linearGradient><linearGradient id="paint21_linear_3987_19848" x1="16.181" x2="16.181" y1="22.078" y2="21.766" gradientUnits="userSpaceOnUse"><stop stop-color="#31171F"/><stop offset="1" stop-color="#31171F" stop-opacity="0"/></linearGradient><linearGradient id="paint22_linear_3987_19848" x1="14.123" x2="14.888" y1="25.334" y2="24.125" gradientUnits="userSpaceOnUse"><stop stop-color="#564848"/><stop offset=".663" stop-color="#564848" stop-opacity="0"/></linearGradient><linearGradient id="paint25_linear_3987_19848" x1="8.628" x2="23.068" y1="28.288" y2="24.201" gradientUnits="userSpaceOnUse"><stop offset=".314" stop-color="#1D1223"/><stop offset="1" stop-color="#373234"/></linearGradient><linearGradient id="paint26_linear_3987_19848" x1="6.586" x2="9.004" y1="23.176" y2="22.956" gradientUnits="userSpaceOnUse"><stop stop-color="#4D4341"/><stop offset="1" stop-color="#4D4341" stop-opacity="0"/></linearGradient><linearGradient id="paint28_linear_3987_19848" x1="21.46" x2="20.875" y1="16.887" y2="17.248" gradientUnits="userSpaceOnUse"><stop stop-color="#B4948D"/><stop offset="1" stop-color="#B4948D" stop-opacity="0"/></linearGradient><linearGradient id="paint30_linear_3987_19848" x1="13.26" x2="12.675" y1="16.887" y2="17.248" gradientUnits="userSpaceOnUse"><stop stop-color="#B4948D"/><stop offset="1" stop-color="#B4948D" stop-opacity="0"/></linearGradient><linearGradient id="paint32_linear_3987_19848" x1="21.489" x2="20.706" y1="12.897" y2="11.296" gradientUnits="userSpaceOnUse"><stop stop-color="#353435"/><stop offset="1" stop-color="#353435" stop-opacity="0"/></linearGradient><linearGradient id="paint33_linear_3987_19848" x1="11.597" x2="9.379" y1="12.659" y2="11.729" gradientUnits="userSpaceOnUse"><stop stop-color="#353435"/><stop offset="1" stop-color="#353435" stop-opacity="0"/></linearGradient><linearGradient id="paint34_linear_3987_19848" x1="7.253" x2="7.253" y1="8.902" y2="12.925" gradientUnits="userSpaceOnUse"><stop stop-color="#3C393A"/><stop offset="1" stop-color="#3C393A" stop-opacity="0"/></linearGradient><radialGradient id="paint0_radial_3987_19848" cx="0" cy="0" r="1" gradientTransform="matrix(3.27255 0 0 5.72699 3.979 18.059)" gradientUnits="userSpaceOnUse"><stop offset=".351" stop-color="#362324"/><stop offset="1" stop-color="#332423"/></radialGradient><radialGradient id="paint3_radial_3987_19848" cx="0" cy="0" r="1" gradientTransform="matrix(1.54168 -1.12256 1.28126 1.75963 25.527 17.564)" gradientUnits="userSpaceOnUse"><stop offset=".543" stop-color="#40272A"/><stop offset="1" stop-color="#40272A" stop-opacity="0"/></radialGradient><radialGradient id="paint4_radial_3987_19848" cx="0" cy="0" r="1" gradientTransform="matrix(1.53153 -2.8169 1.64874 .8964 24.756 19.59)" gradientUnits="userSpaceOnUse"><stop offset=".755" stop-color="#31191A" stop-opacity="0"/><stop offset=".916" stop-color="#31191A"/></radialGradient><radialGradient id="paint5_radial_3987_19848" cx="0" cy="0" r="1" gradientTransform="rotate(44.708 -9.54 39.223) scale(.68036 .87707)" gradientUnits="userSpaceOnUse"><stop stop-color="#352123"/><stop offset="1" stop-color="#352123" stop-opacity="0"/></radialGradient><radialGradient id="paint8_radial_3987_19848" cx="0" cy="0" r="1" gradientTransform="matrix(0 13.25 -17.9862 0 15.384 17.688)" gradientUnits="userSpaceOnUse"><stop offset=".561" stop-color="#3D2138" stop-opacity="0"/><stop offset="1" stop-color="#3D2138"/></radialGradient><radialGradient id="paint9_radial_3987_19848" cx="0" cy="0" r="1" gradientTransform="matrix(0 -2.4375 3 0 20.321 15.688)" gradientUnits="userSpaceOnUse"><stop stop-color="#412628"/><stop offset="1" stop-color="#412628" stop-opacity="0"/></radialGradient><radialGradient id="paint10_radial_3987_19848" cx="0" cy="0" r="1" gradientTransform="matrix(0 -2.59375 3.22556 0 11.821 15.625)" gradientUnits="userSpaceOnUse"><stop stop-color="#351D26"/><stop offset="1" stop-color="#351D26" stop-opacity="0"/></radialGradient><radialGradient id="paint13_radial_3987_19848" cx="0" cy="0" r="1" gradientTransform="matrix(1.4878 -5.51363 2.04463 .55172 24.05 10.4)" gradientUnits="userSpaceOnUse"><stop stop-color="#464344"/><stop offset="1" stop-color="#464344" stop-opacity="0"/></radialGradient><radialGradient id="paint14_radial_3987_19848" cx="0" cy="0" r="1" gradientTransform="matrix(7.13272 .65639 -.35293 3.83521 20.986 7.12)" gradientUnits="userSpaceOnUse"><stop offset=".122" stop-color="#4A4648"/><stop offset="1" stop-color="#4A4648" stop-opacity="0"/></radialGradient><radialGradient id="paint15_radial_3987_19848" cx="0" cy="0" r="1" gradientTransform="matrix(0 3.1314 -4.84965 0 15.946 2.019)" gradientUnits="userSpaceOnUse"><stop stop-color="#423D3F"/><stop offset="1" stop-color="#423D3F" stop-opacity="0"/></radialGradient><radialGradient id="paint16_radial_3987_19848" cx="0" cy="0" r="1" gradientTransform="rotate(-36.235 24.475 1.376) scale(7.1069 11.1342)" gradientUnits="userSpaceOnUse"><stop stop-color="#463C39"/><stop offset="1" stop-color="#463C39" stop-opacity="0"/></radialGradient><radialGradient id="paint20_radial_3987_19848" cx="0" cy="0" r="1" gradientTransform="matrix(0 .36719 -1.17969 0 16.556 21.055)" gradientUnits="userSpaceOnUse"><stop stop-color="#624E4D"/><stop offset="1" stop-color="#624E4D" stop-opacity="0"/></radialGradient><radialGradient id="paint23_radial_3987_19848" cx="0" cy="0" r="1" gradientTransform="matrix(0 1.51263 -2.40601 0 20.01 16.787)" gradientUnits="userSpaceOnUse"><stop offset=".802" stop-color="#7D574A"/><stop offset="1" stop-color="#694B43"/><stop offset="1" stop-color="#804D49"/><stop offset="1" stop-color="#664944"/></radialGradient><radialGradient id="paint24_radial_3987_19848" cx="0" cy="0" r="1" gradientTransform="rotate(-127.812 13.941 3.676) scale(.70528 .97101)" gradientUnits="userSpaceOnUse"><stop offset=".766" stop-color="#FFE6E2" stop-opacity="0"/><stop offset=".966" stop-color="#FFE6E2"/></radialGradient><radialGradient id="paint27_radial_3987_19848" cx="0" cy="0" r="1" gradientTransform="matrix(10.88217 13.48113 -18.75991 15.14329 12.136 15.497)" gradientUnits="userSpaceOnUse"><stop offset=".901" stop-color="#4D4A4F" stop-opacity="0"/><stop offset="1" stop-color="#4D4A4F"/></radialGradient><radialGradient id="paint29_radial_3987_19848" cx="0" cy="0" r="1" gradientTransform="matrix(0 1.51271 -2.40614 0 11.873 16.787)" gradientUnits="userSpaceOnUse"><stop offset=".802" stop-color="#7D574A"/><stop offset="1" stop-color="#694B43"/><stop offset="1" stop-color="#804D49"/><stop offset="1" stop-color="#664944"/></radialGradient><radialGradient id="paint31_radial_3987_19848" cx="0" cy="0" r="1" gradientTransform="rotate(-90.897 14.134 3.016) scale(.92129 1.10743)" gradientUnits="userSpaceOnUse"><stop offset=".766" stop-color="#FFE6E2" stop-opacity="0"/><stop offset=".966" stop-color="#FFE6E2"/></radialGradient></defs></svg>