<svg xmlns="http://www.w3.org/2000/svg" width="32" height="32" fill="none" viewBox="0 0 32 32"><path fill="url(#paint0_radial_28327_4842)" d="m6.424 7.22-3.07 1.61c-.36.19-.43.68-.13.97l2.61 2.47.59-5.05Z"/><path fill="url(#paint1_radial_28327_4842)" d="m6.424 7.22-3.07 1.61c-.36.19-.43.68-.13.97l2.61 2.47.59-5.05Z"/><path fill="url(#paint2_linear_28327_4842)" d="M13.534 28.5h-1.72l1.2-6h-1.5l-1.2 6h-1.8c-.73 0-1.33.52-1.47 1.21-.04.15.09.29.24.29h7.47c.16 0 .28-.14.25-.29-.14-.69-.74-1.21-1.47-1.21Z"/><path fill="url(#paint3_linear_28327_4842)" d="M13.534 28.5h-1.72l1.2-6h-1.5l-1.2 6h-1.8c-.73 0-1.33.52-1.47 1.21-.04.15.09.29.24.29h7.47c.16 0 .28-.14.25-.29-.14-.69-.74-1.21-1.47-1.21Z"/><path fill="url(#paint4_radial_28327_4842)" d="M13.534 28.5h-1.72l1.2-6h-1.5l-1.2 6h-1.8c-.73 0-1.33.52-1.47 1.21-.04.15.09.29.24.29h7.47c.16 0 .28-.14.25-.29-.14-.69-.74-1.21-1.47-1.21Z"/><path fill="url(#paint5_linear_28327_4842)" d="M13.534 28.5h-1.72l1.2-6h-1.5l-1.2 6h-1.8c-.73 0-1.33.52-1.47 1.21-.04.15.09.29.24.29h7.47c.16 0 .28-.14.25-.29-.14-.69-.74-1.21-1.47-1.21Z"/><g filter="url(#filter0_f_28327_4842)"><path stroke="url(#paint6_linear_28327_4842)" stroke-opacity=".75" stroke-width=".25" d="M7.864 29.578h4.672"/></g><path fill="url(#paint7_linear_28327_4842)" d="M18.594 28.5h-1.78l1.2-6h-1.5l-1.2 6h-1.8c-.73 0-1.33.52-1.47 1.21-.04.15.09.29.24.29h7.53c.16 0 .28-.14.25-.29a1.51 1.51 0 0 0-1.47-1.21Z"/><path fill="url(#paint8_linear_28327_4842)" d="M18.594 28.5h-1.78l1.2-6h-1.5l-1.2 6h-1.8c-.73 0-1.33.52-1.47 1.21-.04.15.09.29.24.29h7.53c.16 0 .28-.14.25-.29a1.51 1.51 0 0 0-1.47-1.21Z"/><path fill="url(#paint9_linear_28327_4842)" d="M18.594 28.5h-1.78l1.2-6h-1.5l-1.2 6h-1.8c-.73 0-1.33.52-1.47 1.21-.04.15.09.29.24.29h7.53c.16 0 .28-.14.25-.29a1.51 1.51 0 0 0-1.47-1.21Z"/><path fill="url(#paint10_radial_28327_4842)" d="M18.594 28.5h-1.78l1.2-6h-1.5l-1.2 6h-1.8c-.73 0-1.33.52-1.47 1.21-.04.15.09.29.24.29h7.53c.16 0 .28-.14.25-.29a1.51 1.51 0 0 0-1.47-1.21Z"/><g filter="url(#filter1_f_28327_4842)"><path stroke="url(#paint11_linear_28327_4842)" stroke-opacity=".75" stroke-width=".25" d="M12.708 29.578h6.86"/></g><path fill="url(#paint12_linear_28327_4842)" d="m17.324 25 .14-5.23 11.38-5.3a.726.726 0 0 1 1.03.65v9.15c0 .4-.32.72-.72.72h-11.83V25Z"/><path fill="url(#paint13_linear_28327_4842)" d="m17.324 25 .14-5.23 11.38-5.3a.726.726 0 0 1 1.03.65v9.15c0 .4-.32.72-.72.72h-11.83V25Z"/><path fill="url(#paint14_linear_28327_4842)" d="m17.324 25 .14-5.23 11.38-5.3a.726.726 0 0 1 1.03.65v9.15c0 .4-.32.72-.72.72h-11.83V25Z"/><path fill="url(#paint15_linear_28327_4842)" d="M17.604 6.22c-.13-.42-.3-.82-.52-1.19h.62c1.29 0 2.33-1.04 2.33-2.33 0-.38-.32-.7-.7-.7h-7.46c-3.18 0-5.78 2.48-5.99 5.61l-1.29 11.18c-.38 3.31 2.2 6.21 5.53 6.21h13.75l-6.27-18.78Z"/><path fill="url(#paint16_linear_28327_4842)" d="M17.604 6.22c-.13-.42-.3-.82-.52-1.19h.62c1.29 0 2.33-1.04 2.33-2.33 0-.38-.32-.7-.7-.7h-7.46c-3.18 0-5.78 2.48-5.99 5.61l-1.29 11.18c-.38 3.31 2.2 6.21 5.53 6.21h13.75l-6.27-18.78Z"/><path fill="url(#paint17_radial_28327_4842)" d="M17.604 6.22c-.13-.42-.3-.82-.52-1.19h.62c1.29 0 2.33-1.04 2.33-2.33 0-.38-.32-.7-.7-.7h-7.46c-3.18 0-5.78 2.48-5.99 5.61l-1.29 11.18c-.38 3.31 2.2 6.21 5.53 6.21h13.75l-6.27-18.78Z"/><path fill="url(#paint18_linear_28327_4842)" d="M17.604 6.22c-.13-.42-.3-.82-.52-1.19h.62c1.29 0 2.33-1.04 2.33-2.33 0-.38-.32-.7-.7-.7h-7.46c-3.18 0-5.78 2.48-5.99 5.61l-1.29 11.18c-.38 3.31 2.2 6.21 5.53 6.21h13.75l-6.27-18.78Z"/><path fill="url(#paint19_radial_28327_4842)" d="M17.604 6.22c-.13-.42-.3-.82-.52-1.19h.62c1.29 0 2.33-1.04 2.33-2.33 0-.38-.32-.7-.7-.7h-7.46c-3.18 0-5.78 2.48-5.99 5.61l-1.29 11.18c-.38 3.31 2.2 6.21 5.53 6.21h13.75l-6.27-18.78Z"/><path fill="url(#paint20_linear_28327_4842)" d="M13.214 11v6.93a7.07 7.07 0 0 0 7.07 7.07h3.59l-4.67-14h-5.99Z"/><path fill="url(#paint21_radial_28327_4842)" d="M10.038 9.023a.5.5 0 1 0 0-1 .5.5 0 0 0 0 1Z"/><path fill="url(#paint22_radial_28327_4842)" d="M10.038 9.023a.5.5 0 1 0 0-1 .5.5 0 0 0 0 1Z"/><path fill="url(#paint23_linear_28327_4842)" d="M10.038 9.023a.5.5 0 1 0 0-1 .5.5 0 0 0 0 1Z"/><g filter="url(#filter2_f_28327_4842)"><path fill="url(#paint24_linear_28327_4842)" d="m14.599 18.767-1.685-12.58h3.56l5.968 16.653a.5.5 0 0 1-.543.663l-3.074-.453a5 5 0 0 1-4.226-4.283Z"/></g><g filter="url(#filter3_f_28327_4842)"><path stroke="url(#paint25_linear_28327_4842)" stroke-width=".25" d="M17.067 4.484c.571.02 1.93-.053 2.36-1.328"/></g><path fill="url(#paint26_linear_28327_4842)" fill-rule="evenodd" d="M17.084 5.03c.22.37.39.77.52 1.19l.536 1.603-4.28-2.796h3.844l.001.003h-.62Z" clip-rule="evenodd"/><g filter="url(#filter4_f_28327_4842)"><path stroke="url(#paint27_linear_28327_4842)" stroke-linecap="round" stroke-width=".4" d="M29.364 15.063v8.906"/></g><defs><linearGradient id="paint2_linear_28327_4842" x1="12.064" x2="10.86" y1="23.952" y2="30.658" gradientUnits="userSpaceOnUse"><stop stop-color="#D69946"/><stop offset="1" stop-color="#E99D23"/></linearGradient><linearGradient id="paint3_linear_28327_4842" x1="11.63" x2="11.023" y1="24.469" y2="27.844" gradientUnits="userSpaceOnUse"><stop stop-color="#B87E33"/><stop offset="1" stop-color="#B87E33" stop-opacity="0"/></linearGradient><linearGradient id="paint5_linear_28327_4842" x1="11.023" x2="11.023" y1="30.719" y2="29.187" gradientUnits="userSpaceOnUse"><stop stop-color="#F15CC7"/><stop offset=".828" stop-color="#F15CC7" stop-opacity="0"/></linearGradient><linearGradient id="paint6_linear_28327_4842" x1="11.646" x2="8.192" y1="29.938" y2="29.938" gradientUnits="userSpaceOnUse"><stop stop-color="#FDB65D"/><stop offset="1" stop-color="#FDB65D" stop-opacity="0"/></linearGradient><linearGradient id="paint7_linear_28327_4842" x1="17.102" x2="16.067" y1="23.952" y2="29.237" gradientUnits="userSpaceOnUse"><stop stop-color="#D69946"/><stop offset="1" stop-color="#E99D23"/></linearGradient><linearGradient id="paint8_linear_28327_4842" x1="16.665" x2="16.062" y1="24.469" y2="27.845" gradientUnits="userSpaceOnUse"><stop stop-color="#B87E33"/><stop offset="1" stop-color="#B87E33" stop-opacity="0"/></linearGradient><linearGradient id="paint9_linear_28327_4842" x1="16.053" x2="16.053" y1="30.719" y2="29.187" gradientUnits="userSpaceOnUse"><stop stop-color="#F15CC7"/><stop offset=".828" stop-color="#F15CC7" stop-opacity="0"/></linearGradient><linearGradient id="paint11_linear_28327_4842" x1="17.33" x2="13.293" y1="29.938" y2="29.938" gradientUnits="userSpaceOnUse"><stop stop-color="#FDB65D"/><stop offset="1" stop-color="#FDB65D" stop-opacity="0"/></linearGradient><linearGradient id="paint12_linear_28327_4842" x1="17.324" x2="28.474" y1="21.137" y2="21.137" gradientUnits="userSpaceOnUse"><stop stop-color="#ED1C26"/><stop offset="1" stop-color="#EC098C"/></linearGradient><linearGradient id="paint13_linear_28327_4842" x1="20.316" x2="20.316" y1="27.875" y2="23.5" gradientUnits="userSpaceOnUse"><stop offset=".271" stop-color="#992E9B"/><stop offset="1" stop-color="#9F31A1" stop-opacity="0"/></linearGradient><linearGradient id="paint14_linear_28327_4842" x1="16.724" x2="19.786" y1="12.938" y2="19.701" gradientUnits="userSpaceOnUse"><stop stop-color="#992E9B"/><stop offset="1" stop-color="#9F31A1" stop-opacity="0"/></linearGradient><linearGradient id="paint15_linear_28327_4842" x1="10.508" x2="10.508" y1="-2.928" y2="29.375" gradientUnits="userSpaceOnUse"><stop stop-color="#ED1C26"/><stop offset="1" stop-color="#EC098C"/></linearGradient><linearGradient id="paint16_linear_28327_4842" x1="9.161" x2="9.161" y1="26.188" y2="17.75" gradientUnits="userSpaceOnUse"><stop stop-color="#992E9B"/><stop offset="1" stop-color="#9F31A1" stop-opacity="0"/></linearGradient><linearGradient id="paint18_linear_28327_4842" x1="3.661" x2="8.849" y1="15.938" y2="15.938" gradientUnits="userSpaceOnUse"><stop stop-color="#B2516B"/><stop offset="1" stop-color="#B2516B" stop-opacity="0"/></linearGradient><linearGradient id="paint20_linear_28327_4842" x1="18.544" x2="14.42" y1="22.125" y2="10.285" gradientUnits="userSpaceOnUse"><stop stop-color="#EC098C"/><stop offset="1" stop-color="#ED1746"/></linearGradient><linearGradient id="paint23_linear_28327_4842" x1="9.939" x2="9.596" y1="8.131" y2="7.912" gradientUnits="userSpaceOnUse"><stop stop-color="#5C5051" stop-opacity="0"/><stop offset="1" stop-color="#5C5051"/></linearGradient><linearGradient id="paint24_linear_28327_4842" x1="19.724" x2="15.88" y1="20.875" y2="2.563" gradientUnits="userSpaceOnUse"><stop stop-color="#FF589B"/><stop offset="1" stop-color="#FF589B" stop-opacity="0"/></linearGradient><linearGradient id="paint25_linear_28327_4842" x1="19.427" x2="17.395" y1="3.794" y2="5.387" gradientUnits="userSpaceOnUse"><stop stop-color="#FFB3D1"/><stop offset="1" stop-color="#FFB3D1" stop-opacity="0"/></linearGradient><linearGradient id="paint26_linear_28327_4842" x1="17.255" x2="16.583" y1="5.027" y2="6.172" gradientUnits="userSpaceOnUse"><stop stop-color="#A92E39"/><stop offset="1" stop-color="#A92E39" stop-opacity="0"/></linearGradient><linearGradient id="paint27_linear_28327_4842" x1="29.864" x2="29.864" y1="15.063" y2="23.969" gradientUnits="userSpaceOnUse"><stop stop-color="#FF5CAB"/><stop offset="1" stop-color="#FF5CAB" stop-opacity="0"/></linearGradient><radialGradient id="paint0_radial_28327_4842" cx="0" cy="0" r="1" gradientTransform="matrix(7.25 0 0 4.46875 3.724 9.469)" gradientUnits="userSpaceOnUse"><stop stop-color="#EDB134"/><stop offset="1" stop-color="#BE8244"/></radialGradient><radialGradient id="paint1_radial_28327_4842" cx="0" cy="0" r="1" gradientTransform="matrix(2.875 -.60937 .43877 2.07011 3.974 9.406)" gradientUnits="userSpaceOnUse"><stop stop-color="#FFD150"/><stop offset="1" stop-color="#FFD150" stop-opacity="0"/></radialGradient><radialGradient id="paint4_radial_28327_4842" cx="0" cy="0" r="1" gradientTransform="matrix(-2.15625 0 0 -2.54664 12.849 30)" gradientUnits="userSpaceOnUse"><stop stop-color="#C67500"/><stop offset="1" stop-color="#C67500" stop-opacity="0"/></radialGradient><radialGradient id="paint10_radial_28327_4842" cx="0" cy="0" r="1" gradientTransform="matrix(-2.01714 -.25 .15804 -1.2752 20.069 29.531)" gradientUnits="userSpaceOnUse"><stop stop-color="#FFBD59"/><stop offset="1" stop-color="#FFBD59" stop-opacity="0"/></radialGradient><radialGradient id="paint17_radial_28327_4842" cx="0" cy="0" r="1" gradientTransform="rotate(132.87 4.285 13.846) scale(4.60499 6.33279)" gradientUnits="userSpaceOnUse"><stop offset=".525" stop-color="#BA2159"/><stop offset="1" stop-color="#BA2159" stop-opacity="0"/></radialGradient><radialGradient id="paint19_radial_28327_4842" cx="0" cy="0" r="1" gradientTransform="matrix(-15.33834 -22.71864 15.55181 -10.4997 23.874 25)" gradientUnits="userSpaceOnUse"><stop offset=".904" stop-color="#B2516B" stop-opacity="0"/><stop offset="1" stop-color="#B2516B"/></radialGradient><radialGradient id="paint21_radial_28327_4842" cx="0" cy="0" r="1" gradientTransform="matrix(-.40625 .5625 -.5015 -.3622 10.186 8.362)" gradientUnits="userSpaceOnUse"><stop offset=".006" stop-color="#433437"/><stop offset="1" stop-color="#3B2838"/></radialGradient><radialGradient id="paint22_radial_28327_4842" cx="0" cy="0" r="1" gradientTransform="rotate(137.643 3.485 6.18) scale(.35946 .31624)" gradientUnits="userSpaceOnUse"><stop stop-color="#5C5051"/><stop offset="1" stop-color="#5C5051" stop-opacity="0"/></radialGradient><filter id="filter0_f_28327_4842" width="5.172" height=".75" x="7.614" y="29.203" color-interpolation-filters="sRGB" filterUnits="userSpaceOnUse"><feFlood flood-opacity="0" result="BackgroundImageFix"/><feBlend in="SourceGraphic" in2="BackgroundImageFix" result="shape"/><feGaussianBlur result="effect1_foregroundBlur_28327_4842" stdDeviation=".125"/></filter><filter id="filter1_f_28327_4842" width="7.359" height=".75" x="12.458" y="29.203" color-interpolation-filters="sRGB" filterUnits="userSpaceOnUse"><feFlood flood-opacity="0" result="BackgroundImageFix"/><feBlend in="SourceGraphic" in2="BackgroundImageFix" result="shape"/><feGaussianBlur result="effect1_foregroundBlur_28327_4842" stdDeviation=".125"/></filter><filter id="filter2_f_28327_4842" width="13.559" height="21.321" x="10.914" y="4.188" color-interpolation-filters="sRGB" filterUnits="userSpaceOnUse"><feFlood flood-opacity="0" result="BackgroundImageFix"/><feBlend in="SourceGraphic" in2="BackgroundImageFix" result="shape"/><feGaussianBlur result="effect1_foregroundBlur_28327_4842" stdDeviation="1"/></filter><filter id="filter3_f_28327_4842" width="3.482" height="2.496" x="16.563" y="2.616" color-interpolation-filters="sRGB" filterUnits="userSpaceOnUse"><feFlood flood-opacity="0" result="BackgroundImageFix"/><feBlend in="SourceGraphic" in2="BackgroundImageFix" result="shape"/><feGaussianBlur result="effect1_foregroundBlur_28327_4842" stdDeviation=".25"/></filter><filter id="filter4_f_28327_4842" width="1.2" height="10.106" x="28.764" y="14.463" color-interpolation-filters="sRGB" filterUnits="userSpaceOnUse"><feFlood flood-opacity="0" result="BackgroundImageFix"/><feBlend in="SourceGraphic" in2="BackgroundImageFix" result="shape"/><feGaussianBlur result="effect1_foregroundBlur_28327_4842" stdDeviation=".2"/></filter></defs></svg>