<svg xmlns="http://www.w3.org/2000/svg" width="32" height="32" fill="none" viewBox="0 0 32 32"><path fill="url(#paint0_radial_4002_1798)" d="M21.13 5.89h-12l.18-.36a6.549 6.549 0 0 1 11.65.03l.17.33Z"/><path fill="url(#paint1_radial_4002_1798)" d="m9.31 5.53-.18.36h12l-.17-.33c-.3-.59-.68-1.11-1.12-1.57h-9.42c-.43.45-.81.97-1.11 1.54Z"/><path fill="url(#paint2_linear_4002_1798)" d="m9.31 5.53-.18.36h12l-.17-.33c-.3-.59-.68-1.11-1.12-1.57h-9.42c-.43.45-.81.97-1.11 1.54Z"/><g filter="url(#filter0_ii_4002_1798)"><path fill="url(#paint3_linear_4002_1798)" d="M10.774 4.79c-.849.03-2.678.228-4.101 1.335-1.238.963-1.477 2.117-1.477 3.086v.477c-.094 1.781 1.445 4.93 6.883 4.93h6.264c5.437 0 6.976-3.149 6.883-4.93V9.21c0-.969-.24-2.123-1.477-3.086-1.424-1.107-3.253-1.304-4.102-1.336h-8.873Z"/><path fill="url(#paint4_radial_4002_1798)" d="M10.774 4.79c-.849.03-2.678.228-4.101 1.335-1.238.963-1.477 2.117-1.477 3.086v.477c-.094 1.781 1.445 4.93 6.883 4.93h6.264c5.437 0 6.976-3.149 6.883-4.93V9.21c0-.969-.24-2.123-1.477-3.086-1.424-1.107-3.253-1.304-4.102-1.336h-8.873Z"/></g><path fill="#45BB85" d="M15.14 15.48c-6.07 0-10.99 4.91-10.99 10.98v3.5h21.98v-3.5c0-6.07-4.92-10.98-10.99-10.98Z"/><path fill="url(#paint5_radial_4002_1798)" d="M15.14 15.48c-6.07 0-10.99 4.91-10.99 10.98v3.5h21.98v-3.5c0-6.07-4.92-10.98-10.99-10.98Z"/><path fill="url(#paint6_linear_4002_1798)" d="M8.15 29.96V17.99h-.006a10.951 10.951 0 0 0-3.993 8.47v3.5h4Z"/><path fill="url(#paint7_radial_4002_1798)" d="M8.15 29.96V17.99h-.006a10.951 10.951 0 0 0-3.993 8.47v3.5h4Z"/><path fill="url(#paint8_linear_4002_1798)" d="M22.17 29.96V17.99h.007a10.951 10.951 0 0 1 3.994 8.47v3.5h-4Z"/><path fill="url(#paint9_radial_4002_1798)" d="M22.17 29.96V17.99h.007a10.951 10.951 0 0 1 3.994 8.47v3.5h-4Z"/><g filter="url(#filter1_i_4002_1798)"><path fill="url(#paint10_radial_4002_1798)" d="m12.175 21.453 3.036-2.123 2.987 2.084c.42.325 1.013.465 1.013-.354v-4.81c-1.24-.48-2.59-.77-4-.77-1.41 0-2.76.24-4 .72v4.69c0 .954.594.823.964.563Z"/><path fill="url(#paint11_linear_4002_1798)" d="m12.175 21.453 3.036-2.123 2.987 2.084c.42.325 1.013.465 1.013-.354v-4.81c-1.24-.48-2.59-.77-4-.77-1.41 0-2.76.24-4 .72v4.69c0 .954.594.823.964.563Z"/><path fill="url(#paint12_radial_4002_1798)" d="m12.175 21.453 3.036-2.123 2.987 2.084c.42.325 1.013.465 1.013-.354v-4.81c-1.24-.48-2.59-.77-4-.77-1.41 0-2.76.24-4 .72v4.69c0 .954.594.823.964.563Z"/></g><path fill="url(#paint13_linear_4002_1798)" d="m12.175 21.453 3.036-2.123 2.987 2.084c.42.325 1.013.465 1.013-.354v-4.81c-1.24-.48-2.59-.77-4-.77-1.41 0-2.76.24-4 .72v4.69c0 .954.594.823.964.563Z"/><path fill="url(#paint14_radial_4002_1798)" d="m12.175 21.453 3.036-2.123 2.987 2.084c.42.325 1.013.465 1.013-.354v-4.81c-1.24-.48-2.59-.77-4-.77-1.41 0-2.76.24-4 .72v4.69c0 .954.594.823.964.563Z"/><path fill="url(#paint15_radial_4002_1798)" d="m16.06 19.67-.65.58c-.16.14-.39.14-.55 0l-.65-.58a3.449 3.449 0 0 1-1.14-2.55v-3.09c0-1.14.92-2.06 2.06-2.06 1.14 0 2.06.92 2.06 2.06v3.09c0 .97-.41 1.9-1.13 2.55Z"/><path fill="url(#paint16_radial_4002_1798)" d="M15.14 18.65c-1.14 0-2.06-.92-2.06-2.06v-2.56c0-1.14.92-2.06 2.06-2.06 1.14 0 2.06.92 2.06 2.06v2.56a2.07 2.07 0 0 1-2.06 2.06Z"/><path fill="url(#paint17_radial_4002_1798)" d="M15.14 18.65c-1.14 0-2.06-.92-2.06-2.06v-2.56c0-1.14.92-2.06 2.06-2.06 1.14 0 2.06.92 2.06 2.06v2.56a2.07 2.07 0 0 1-2.06 2.06Z"/><path fill="url(#paint18_radial_4002_1798)" d="M17.65 10.23v5.35l1.89-.65c.88-.3 1.46-1.13 1.46-2.06v-2.53c-1.12-.04-2.24-.08-3.35-.11Z"/><path fill="url(#paint19_radial_4002_1798)" d="m9.28 10.17-.01 2.69c0 .93.59 1.75 1.46 2.06l1.89.65v-5.43c-1.1 0-2.22 0-3.34.03Z"/><path fill="url(#paint20_linear_4002_1798)" d="m9.28 10.17-.01 2.69c0 .93.59 1.75 1.46 2.06l1.89.65v-5.43c-1.1 0-2.22 0-3.34.03Z"/><path fill="url(#paint21_radial_4002_1798)" d="M10.24 12.24a1.67 1.67 0 1 0 0-3.34 1.67 1.67 0 0 0 0 3.34Z"/><g filter="url(#filter2_f_4002_1798)"><path fill="#DA821C" d="M10.24 11.69a1.12 1.12 0 1 0 0-2.24 1.12 1.12 0 0 0 0 2.24Z"/></g><g filter="url(#filter3_i_4002_1798)"><path fill="url(#paint22_linear_4002_1798)" d="M20.03 12.24a1.67 1.67 0 1 0 0-3.34 1.67 1.67 0 0 0 0 3.34Z"/><path fill="url(#paint23_radial_4002_1798)" d="M20.03 12.24a1.67 1.67 0 1 0 0-3.34 1.67 1.67 0 0 0 0 3.34Z"/></g><g filter="url(#filter4_f_4002_1798)"><path fill="#FFBF34" d="M20.03 11.733a1.163 1.163 0 1 0 0-2.326 1.163 1.163 0 0 0 0 2.326Z"/><path fill="url(#paint24_radial_4002_1798)" d="M20.03 11.733a1.163 1.163 0 1 0 0-2.326 1.163 1.163 0 0 0 0 2.326Z"/><path fill="url(#paint25_radial_4002_1798)" d="M20.03 11.733a1.163 1.163 0 1 0 0-2.326 1.163 1.163 0 0 0 0 2.326Z"/></g><path fill="url(#paint26_linear_4002_1798)" d="M22.17 18.02c-.63-.53-1.33-.99-2.07-1.36v5.9c0 .23-.18.41-.41.41h-9.07c-.23 0-.41-.18-.41-.41v-5.92c-.74.37-1.43.82-2.06 1.35v11.97h14.02V18.02Z"/><path fill="url(#paint27_radial_4002_1798)" d="M22.17 18.02c-.63-.53-1.33-.99-2.07-1.36v5.9c0 .23-.18.41-.41.41h-9.07c-.23 0-.41-.18-.41-.41v-5.92c-.74.37-1.43.82-2.06 1.35v11.97h14.02V18.02Z"/><path fill="url(#paint28_linear_4002_1798)" d="M22.17 18.02c-.63-.53-1.33-.99-2.07-1.36v5.9c0 .23-.18.41-.41.41h-9.07c-.23 0-.41-.18-.41-.41v-5.92c-.74.37-1.43.82-2.06 1.35v11.97h14.02V18.02Z"/><path fill="url(#paint29_linear_4002_1798)" d="M22.17 18.02c-.63-.53-1.33-.99-2.07-1.36v5.9c0 .23-.18.41-.41.41h-9.07c-.23 0-.41-.18-.41-.41v-5.92c-.74.37-1.43.82-2.06 1.35v11.97h14.02V18.02Z"/><path fill="url(#paint30_radial_4002_1798)" d="M22.17 18.02c-.63-.53-1.33-.99-2.07-1.36v5.9c0 .23-.18.41-.41.41h-9.07c-.23 0-.41-.18-.41-.41v-5.92c-.74.37-1.43.82-2.06 1.35v11.97h14.02V18.02Z"/><g filter="url(#filter5_f_4002_1798)"><path fill="#3661C6" d="M18.63 25.79h-6.94a.49.49 0 0 0-.5.492v3.62h7.95v-3.62a.513.513 0 0 0-.51-.492Z"/></g><g filter="url(#filter6_i_4002_1798)"><path fill="url(#paint31_linear_4002_1798)" d="M18.63 25.79h-6.94c-.28 0-.5.22-.5.5v3.68h7.95v-3.68a.517.517 0 0 0-.51-.5Z"/></g><g filter="url(#filter7_i_4002_1798)"><path fill="url(#paint32_radial_4002_1798)" d="m20.38 8.94.01-.11c.04-1.09-.83-2.04-1.93-2.04h-6.5c-1.14 0-2.03.97-1.93 2.1l.3 4.65a3.948 3.948 0 0 0 3.92 3.43h1.9c1.98 0 3.66-1.47 3.92-3.43l.31-4.6Z"/></g><path fill="url(#paint33_radial_4002_1798)" d="m20.38 8.94.01-.11c.04-1.09-.83-2.04-1.93-2.04h-6.5c-1.14 0-2.03.97-1.93 2.1l.3 4.65a3.948 3.948 0 0 0 3.92 3.43h1.9c1.98 0 3.66-1.47 3.92-3.43l.31-4.6Z"/><path fill="url(#paint34_radial_4002_1798)" d="m20.38 8.94.01-.11c.04-1.09-.83-2.04-1.93-2.04h-6.5c-1.14 0-2.03.97-1.93 2.1l.3 4.65a3.948 3.948 0 0 0 3.92 3.43h1.9c1.98 0 3.66-1.47 3.92-3.43l.31-4.6Z"/><path fill="url(#paint35_radial_4002_1798)" d="m20.38 8.94.01-.11c.04-1.09-.83-2.04-1.93-2.04h-6.5c-1.14 0-2.03.97-1.93 2.1l.3 4.65a3.948 3.948 0 0 0 3.92 3.43h1.9c1.98 0 3.66-1.47 3.92-3.43l.31-4.6Z"/><g filter="url(#filter8_f_4002_1798)"><path fill="#F1901C" d="m14.638 10.515-.53 1.71c-.11.35.15.7.52.7h.78c.37 0 .63-.35.52-.7l-.52-1.71a.403.403 0 0 0-.77 0Z"/></g><g filter="url(#filter9_f_4002_1798)"><path fill="#FFCC28" d="M14.83 10.29 14.3 12c-.11.35.15.7.52.7h.78c.37 0 .63-.35.52-.7l-.52-1.71a.403.403 0 0 0-.77 0Z"/><path fill="url(#paint36_linear_4002_1798)" d="M14.83 10.29 14.3 12c-.11.35.15.7.52.7h.78c.37 0 .63-.35.52-.7l-.52-1.71a.403.403 0 0 0-.77 0Z"/><path fill="url(#paint37_linear_4002_1798)" d="M14.83 10.29 14.3 12c-.11.35.15.7.52.7h.78c.37 0 .63-.35.52-.7l-.52-1.71a.403.403 0 0 0-.77 0Z"/><path fill="url(#paint38_linear_4002_1798)" d="M14.83 10.29 14.3 12c-.11.35.15.7.52.7h.78c.37 0 .63-.35.52-.7l-.52-1.71a.403.403 0 0 0-.77 0Z"/></g><path fill="url(#paint39_linear_4002_1798)" d="M14.83 10.29 14.3 12c-.11.35.15.7.52.7h.78c.37 0 .63-.35.52-.7l-.52-1.71a.403.403 0 0 0-.77 0Z"/><g filter="url(#filter10_f_4002_1798)"><path stroke="url(#paint40_radial_4002_1798)" stroke-width=".2" d="M15.15 13.67c-.54 0-1.05-.13-1.48-.36-.15-.08-.3.09-.21.23.36.55.98.92 1.69.92s1.33-.37 1.69-.92c.09-.14-.07-.3-.21-.23-.43.23-.94.36-1.48.36Z"/></g><path fill="#89004E" d="M15.15 13.67c-.54 0-1.05-.13-1.48-.36-.15-.08-.3.09-.21.23.36.55.98.92 1.69.92s1.33-.37 1.69-.92c.09-.14-.07-.3-.21-.23-.43.23-.94.36-1.48.36Z"/><g filter="url(#filter11_i_4002_1798)"><path stroke="#B44115" stroke-linecap="round" stroke-linejoin="round" stroke-miterlimit="10" stroke-width=".5" d="M18.735 8.258s-.625-.473-1.695-.344"/></g><g filter="url(#filter12_f_4002_1798)"><path stroke="#C76C5B" stroke-linecap="round" stroke-linejoin="round" stroke-miterlimit="10" stroke-width=".1" d="M18.735 8.196s-.625-.473-1.695-.344"/></g><g filter="url(#filter13_i_4002_1798)"><path stroke="#B44115" stroke-linecap="round" stroke-linejoin="round" stroke-miterlimit="10" stroke-width=".5" d="M11.68 8.258s.625-.473 1.696-.344"/></g><g filter="url(#filter14_f_4002_1798)"><path stroke="#C76C5B" stroke-linecap="round" stroke-linejoin="round" stroke-miterlimit="10" stroke-width=".1" d="M11.68 8.196s.625-.473 1.696-.344"/></g><g filter="url(#filter15_i_4002_1798)"><path fill="url(#paint41_radial_4002_1798)" d="M17.62 7.59h2.393c-.35-.48-.922-.8-1.552-.8h-2.55c.42.5 1.05.8 1.71.8Z"/></g><path fill="url(#paint42_radial_4002_1798)" d="M25.983 23.1c.55 0 1 .45 1 1v2.29h-2V24.1c0-.55.44-1 1-1Z"/><path fill="url(#paint43_radial_4002_1798)" d="M25.983 23.1c.55 0 1 .45 1 1v2.29h-2V24.1c0-.55.44-1 1-1Z"/><path fill="url(#paint44_radial_4002_1798)" d="M25.983 23.1c.55 0 1 .45 1 1v2.29h-2V24.1c0-.55.44-1 1-1Z"/><path fill="url(#paint45_linear_4002_1798)" d="M25.324 21.75h-1v3h1v-3Z"/><path fill="url(#paint46_radial_4002_1798)" d="M25.324 21.75h-1v3h1v-3Z"/><path fill="url(#paint47_radial_4002_1798)" d="M24.087 19.969h1.524v1.734a.25.25 0 0 1-.25.25h-1.024a.25.25 0 0 1-.25-.25V19.97Z"/><path fill="url(#paint48_radial_4002_1798)" d="M24.087 19.969h1.524v1.734a.25.25 0 0 1-.25.25h-1.024a.25.25 0 0 1-.25-.25V19.97Z"/><path fill="url(#paint49_linear_4002_1798)" d="M24.087 19.969h1.524v1.734a.25.25 0 0 1-.25.25h-1.024a.25.25 0 0 1-.25-.25V19.97Z"/><g filter="url(#filter16_iii_4002_1798)"><path fill="#C7B3DB" d="M21.966 11.024a.602.602 0 0 0-.602.601v6.852a1.5 1.5 0 0 0 1.5 1.5h4.125a1.5 1.5 0 0 0 1.5-1.5v-6.852a.601.601 0 1 0-1.203 0v4.45a.879.879 0 0 1-1.758 0v-4.45a.602.602 0 0 0-1.203 0v4.45a.879.879 0 0 1-1.758 0v-4.45a.602.602 0 0 0-.601-.601Z"/></g><path fill="#fff" d="M17.637 9.19c.662 0 1.222.457 1.374 1.074a.278.278 0 0 1-.271.346h-2.264a.234.234 0 0 1-.23-.276c.127-.65.7-1.144 1.39-1.144Z"/><path fill="url(#paint50_radial_4002_1798)" d="M17.427 9.466a.905.905 0 0 1 .872 1.144h-1.75a.909.909 0 0 1 .877-1.144Z"/><path fill="#000" d="M16.908 10.371c0-.288.23-.518.518-.518a.516.516 0 0 1 .462.757h-.918a.468.468 0 0 1-.062-.239Z"/><g filter="url(#filter17_f_4002_1798)"><path fill="#C7A7A3" d="M17.36 9.657c.064.086-.07.192-.224.306-.153.115-.267.196-.331.11-.065-.087.007-.25.16-.365.154-.114.33-.137.395-.05Z"/><path fill="url(#paint51_radial_4002_1798)" d="M17.36 9.657c.064.086-.07.192-.224.306-.153.115-.267.196-.331.11-.065-.087.007-.25.16-.365.154-.114.33-.137.395-.05Z"/></g><g filter="url(#filter18_f_4002_1798)"><path fill="url(#paint52_linear_4002_1798)" d="M18.233 10.252a.852.852 0 0 0-.235-.47l-.263.29.119.232.38-.052Z"/></g><path fill="#fff" d="M12.785 9.19c-.663 0-1.223.457-1.375 1.074a.278.278 0 0 0 .272.346h2.264a.233.233 0 0 0 .23-.276 1.422 1.422 0 0 0-1.391-1.144Z"/><path fill="url(#paint53_radial_4002_1798)" d="M12.995 9.466a.906.906 0 0 0-.873 1.144h1.75a.931.931 0 0 0 .032-.239.912.912 0 0 0-.91-.905Z"/><path fill="#000" d="M13.513 10.371a.516.516 0 0 0-.518-.518.516.516 0 0 0-.461.757h.918a.515.515 0 0 0 .061-.239Z"/><g filter="url(#filter19_f_4002_1798)"><path fill="url(#paint54_linear_4002_1798)" d="M13.822 10.265c0-.293-.238-.488-.302-.547l-.293.283.18.367.415-.103Z"/></g><g filter="url(#filter20_f_4002_1798)" transform="rotate(-27.914 12.722 9.853)"><ellipse cx="12.722" cy="9.853" fill="#C7A7A3" fill-opacity=".9" rx=".395" ry=".2"/><ellipse cx="12.722" cy="9.853" fill="url(#paint55_radial_4002_1798)" rx=".395" ry=".2"/></g><g filter="url(#filter21_i_4002_1798)"><path fill="url(#paint56_linear_4002_1798)" d="M22.665 25.286a.73.73 0 0 1 .727-.732h2.391a1.2 1.2 0 0 1 1.2 1.2v3.206a1 1 0 0 1-1 1h-2.591a.731.731 0 0 1-.32-1.389.735.735 0 0 1 0-1.314.735.735 0 0 1 0-1.314.735.735 0 0 1-.407-.657Z"/><path fill="url(#paint57_radial_4002_1798)" d="M22.665 25.286a.73.73 0 0 1 .727-.732h2.391a1.2 1.2 0 0 1 1.2 1.2v3.206a1 1 0 0 1-1 1h-2.591a.731.731 0 0 1-.32-1.389.735.735 0 0 1 0-1.314.735.735 0 0 1 0-1.314.735.735 0 0 1-.407-.657Z"/></g><g filter="url(#filter22_f_4002_1798)"><path stroke="url(#paint58_linear_4002_1798)" stroke-linecap="round" stroke-width=".05" d="M23.185 25.938h1.797"/></g><g filter="url(#filter23_f_4002_1798)"><path stroke="url(#paint59_linear_4002_1798)" stroke-linecap="round" stroke-width=".05" d="M23.107 27.242h1.797"/></g><g filter="url(#filter24_f_4002_1798)"><path stroke="url(#paint60_linear_4002_1798)" stroke-linecap="round" stroke-width=".05" d="M23.185 28.547h1.797"/></g><defs><radialGradient id="paint0_radial_4002_1798" cx="0" cy="0" r="1" gradientTransform="matrix(-4.28126 -2.7131 2.52682 -3.98732 19.03 3.94)" gradientUnits="userSpaceOnUse"><stop stop-color="#7F5F58"/><stop offset="1" stop-color="#644841"/></radialGradient><radialGradient id="paint1_radial_4002_1798" cx="0" cy="0" r="1" gradientTransform="matrix(0 -2.15625 8.40625 0 18.904 5.102)" gradientUnits="userSpaceOnUse"><stop stop-color="#6E5980"/><stop offset="1" stop-color="#4F3B60"/></radialGradient><radialGradient id="paint4_radial_4002_1798" cx="0" cy="0" r="1" gradientTransform="rotate(-115.388 9.21 4.156) scale(4.08169 6.42739)" gradientUnits="userSpaceOnUse"><stop stop-color="#6E4F4B"/><stop offset="1" stop-color="#6E4F4B" stop-opacity="0"/></radialGradient><radialGradient id="paint5_radial_4002_1798" cx="0" cy="0" r="1" gradientTransform="matrix(0 7.16424 -8.99366 0 15.14 16.265)" gradientUnits="userSpaceOnUse"><stop offset=".53" stop-color="#399967"/><stop offset="1" stop-color="#399967" stop-opacity="0"/></radialGradient><radialGradient id="paint7_radial_4002_1798" cx="0" cy="0" r="1" gradientTransform="matrix(2.6875 .4375 -2.13811 13.1341 2.998 25.227)" gradientUnits="userSpaceOnUse"><stop stop-color="#63C890"/><stop offset="1" stop-color="#63C890" stop-opacity="0"/></radialGradient><radialGradient id="paint9_radial_4002_1798" cx="0" cy="0" r="1" gradientTransform="matrix(.79488 -.01787 .1758 7.81887 22.17 24.69)" gradientUnits="userSpaceOnUse"><stop offset=".249" stop-color="#28A96B"/><stop offset="1" stop-color="#28A96B" stop-opacity="0"/></radialGradient><radialGradient id="paint10_radial_4002_1798" cx="0" cy="0" r="1" gradientTransform="matrix(0 5.49005 -3.73669 0 15.21 16.133)" gradientUnits="userSpaceOnUse"><stop offset=".232" stop-color="#387C46"/><stop offset="1" stop-color="#3D8F6C"/></radialGradient><radialGradient id="paint12_radial_4002_1798" cx="0" cy="0" r="1" gradientTransform="matrix(-2.27543 1.55452 -.96733 -1.41593 14.356 19.531)" gradientUnits="userSpaceOnUse"><stop stop-color="#519473"/><stop offset="1" stop-color="#519473" stop-opacity="0"/></radialGradient><radialGradient id="paint14_radial_4002_1798" cx="0" cy="0" r="1" gradientTransform="matrix(0 3.28924 -4.48731 0 14.604 15.95)" gradientUnits="userSpaceOnUse"><stop offset=".344" stop-color="#2A5923"/><stop offset=".987" stop-color="#2A5923" stop-opacity="0"/></radialGradient><radialGradient id="paint15_radial_4002_1798" cx="0" cy="0" r="1" gradientTransform="matrix(0 -4.58005 5.35185 0 15.13 19.632)" gradientUnits="userSpaceOnUse"><stop offset=".027" stop-color="#E9CEE6"/><stop offset=".737" stop-color="#9C8F92"/></radialGradient><radialGradient id="paint16_radial_4002_1798" cx="0" cy="0" r="1" gradientTransform="matrix(0 1.43272 -4.29817 0 15.819 16.555)" gradientUnits="userSpaceOnUse"><stop stop-color="#CD8A31"/><stop offset="1" stop-color="#C6912A"/></radialGradient><radialGradient id="paint17_radial_4002_1798" cx="0" cy="0" r="1" gradientTransform="matrix(0 4.38565 -2.76771 0 15.14 15.31)" gradientUnits="userSpaceOnUse"><stop offset=".715" stop-color="#9A6904" stop-opacity="0"/><stop offset="1" stop-color="#9A6904"/></radialGradient><radialGradient id="paint18_radial_4002_1798" cx="0" cy="0" r="1" gradientTransform="matrix(-1.125 3 -1.50019 -.56257 20.826 12.07)" gradientUnits="userSpaceOnUse"><stop offset=".219" stop-color="#FFC034"/><stop offset=".805" stop-color="#D6922A"/></radialGradient><radialGradient id="paint19_radial_4002_1798" cx="0" cy="0" r="1" gradientTransform="matrix(.10939 2.375 -1.29772 .05977 10.357 12.305)" gradientUnits="userSpaceOnUse"><stop offset=".355" stop-color="#CA7320"/><stop offset="1" stop-color="#D2883B"/></radialGradient><radialGradient id="paint21_radial_4002_1798" cx="0" cy="0" r="1" gradientTransform="matrix(1.75543 0 0 3.07202 8.57 10.57)" gradientUnits="userSpaceOnUse"><stop offset=".351" stop-color="#E6962B"/><stop offset="1" stop-color="#CA8F29"/></radialGradient><radialGradient id="paint23_radial_4002_1798" cx="0" cy="0" r="1" gradientTransform="matrix(.82697 -.60216 .6873 .94388 20.403 10.305)" gradientUnits="userSpaceOnUse"><stop offset=".543" stop-color="#FFC532"/><stop offset="1" stop-color="#FFC532" stop-opacity="0"/></radialGradient><radialGradient id="paint24_radial_4002_1798" cx="0" cy="0" r="1" gradientTransform="matrix(.96029 -1.76625 1.03379 .56206 19.982 11.53)" gradientUnits="userSpaceOnUse"><stop offset=".69" stop-color="#F4A51A" stop-opacity="0"/><stop offset="1" stop-color="#F4A51A"/></radialGradient><radialGradient id="paint25_radial_4002_1798" cx="0" cy="0" r="1" gradientTransform="matrix(.30318 .3001 -.38688 .39084 20.03 10.57)" gradientUnits="userSpaceOnUse"><stop stop-color="#E59B1F"/><stop offset="1" stop-color="#E59B1F" stop-opacity="0"/></radialGradient><radialGradient id="paint27_radial_4002_1798" cx="0" cy="0" r="1" gradientTransform="rotate(154.069 9.139 11.684) scale(3.78757 11.2112)" gradientUnits="userSpaceOnUse"><stop stop-color="#47B2F6"/><stop offset="1" stop-color="#47B2F6" stop-opacity="0"/></radialGradient><radialGradient id="paint30_radial_4002_1798" cx="0" cy="0" r="1" gradientTransform="matrix(2.5033 -1.90625 3.00378 3.94458 8.15 18.79)" gradientUnits="userSpaceOnUse"><stop stop-color="#3DA0DB"/><stop offset="1" stop-color="#3AA1E0" stop-opacity="0"/></radialGradient><radialGradient id="paint32_radial_4002_1798" cx="0" cy="0" r="1" gradientTransform="rotate(168.69 8.857 6.052) scale(6.19712 10.4454)" gradientUnits="userSpaceOnUse"><stop stop-color="#FFE846"/><stop offset="1" stop-color="#F5A129"/></radialGradient><radialGradient id="paint33_radial_4002_1798" cx="0" cy="0" r="1" gradientTransform="rotate(-90 11.51 -1.753) scale(1.40625)" gradientUnits="userSpaceOnUse"><stop offset=".179" stop-color="#F59732"/><stop offset="1" stop-color="#F59732" stop-opacity="0"/></radialGradient><radialGradient id="paint34_radial_4002_1798" cx="0" cy="0" r="1" gradientTransform="matrix(0 -1.34047 1.49191 0 17.685 9.587)" gradientUnits="userSpaceOnUse"><stop offset=".313" stop-color="#FFBD38"/><stop offset="1" stop-color="#FFBD38" stop-opacity="0"/></radialGradient><radialGradient id="paint35_radial_4002_1798" cx="0" cy="0" r="1" gradientTransform="matrix(0 8.891 -11.1693 0 15.208 8.292)" gradientUnits="userSpaceOnUse"><stop offset=".582" stop-color="#F99E3C" stop-opacity="0"/><stop offset="1" stop-color="#C38035"/></radialGradient><radialGradient id="paint40_radial_4002_1798" cx="0" cy="0" r="1" gradientTransform="matrix(.28922 -.7681 1.9316 .72733 14.189 14.28)" gradientUnits="userSpaceOnUse"><stop stop-color="#FFB032"/><stop offset="1" stop-color="#FFB032" stop-opacity="0"/></radialGradient><radialGradient id="paint41_radial_4002_1798" cx="0" cy="0" r="1" gradientTransform="matrix(1.875 0 0 .92188 17.857 7.055)" gradientUnits="userSpaceOnUse"><stop stop-color="#FFC032"/><stop offset="1" stop-color="#FFA62C"/></radialGradient><radialGradient id="paint42_radial_4002_1798" cx="0" cy="0" r="1" gradientTransform="rotate(137.811 8.933 17.021) scale(1.65559 1.3064)" gradientUnits="userSpaceOnUse"><stop stop-color="#FFD740"/><stop offset="1" stop-color="#FFCA2C"/></radialGradient><radialGradient id="paint43_radial_4002_1798" cx="0" cy="0" r="1" gradientTransform="matrix(0 -1.45313 1.43733 0 25.366 25.133)" gradientUnits="userSpaceOnUse"><stop offset=".13" stop-color="#CF9826"/><stop offset="1" stop-color="#CF9826" stop-opacity="0"/></radialGradient><radialGradient id="paint44_radial_4002_1798" cx="0" cy="0" r="1" gradientTransform="matrix(-1.79687 0 0 -3.09375 26.678 24.508)" gradientUnits="userSpaceOnUse"><stop offset=".417" stop-color="#CD9D3E" stop-opacity="0"/><stop offset=".922" stop-color="#CD9D3E"/></radialGradient><radialGradient id="paint46_radial_4002_1798" cx="0" cy="0" r="1" gradientTransform="matrix(0 -2.85126 .74829 0 25.324 24.75)" gradientUnits="userSpaceOnUse"><stop stop-color="#88625F"/><stop offset="1" stop-color="#88625F" stop-opacity="0"/></radialGradient><radialGradient id="paint47_radial_4002_1798" cx="0" cy="0" r="1" gradientTransform="matrix(0 -1.82813 1.14062 0 25.347 21.57)" gradientUnits="userSpaceOnUse"><stop stop-color="#D2C4E1"/><stop offset="1" stop-color="#B198C9"/></radialGradient><radialGradient id="paint48_radial_4002_1798" cx="0" cy="0" r="1" gradientTransform="matrix(0 -2.14844 2.01125 0 24.85 21.953)" gradientUnits="userSpaceOnUse"><stop offset=".76" stop-color="#947CA9" stop-opacity="0"/><stop offset="1" stop-color="#947CA9"/></radialGradient><radialGradient id="paint50_radial_4002_1798" cx="0" cy="0" r="1" gradientTransform="matrix(0 .82316 -1.30932 0 17.424 9.95)" gradientUnits="userSpaceOnUse"><stop offset=".802" stop-color="#925C51"/><stop offset="1" stop-color="#694B43"/><stop offset="1" stop-color="#804D49"/><stop offset="1" stop-color="#85534D"/></radialGradient><radialGradient id="paint51_radial_4002_1798" cx="0" cy="0" r="1" gradientTransform="matrix(-.2353 -.30322 .41746 -.32395 17.193 10.035)" gradientUnits="userSpaceOnUse"><stop offset=".766" stop-color="#FFE6E2" stop-opacity="0"/><stop offset=".966" stop-color="#FFE6E2"/></radialGradient><radialGradient id="paint53_radial_4002_1798" cx="0" cy="0" r="1" gradientTransform="matrix(0 .8232 -1.30939 0 12.997 9.95)" gradientUnits="userSpaceOnUse"><stop offset=".802" stop-color="#925C51"/><stop offset="1" stop-color="#694B43"/><stop offset="1" stop-color="#804D49"/><stop offset="1" stop-color="#85534D"/></radialGradient><radialGradient id="paint55_radial_4002_1798" cx="0" cy="0" r="1" gradientTransform="matrix(-.00785 -.5013 .60257 -.00943 12.706 10.172)" gradientUnits="userSpaceOnUse"><stop offset=".766" stop-color="#FFE6E2" stop-opacity="0"/><stop offset=".966" stop-color="#FFE6E2"/></radialGradient><radialGradient id="paint57_radial_4002_1798" cx="0" cy="0" r="1" gradientTransform="matrix(-1.44615 2.39061 -1.97778 -1.19642 26.983 24.554)" gradientUnits="userSpaceOnUse"><stop stop-color="#FFE136"/><stop offset="1" stop-color="#FFE136" stop-opacity="0"/></radialGradient><filter id="filter0_ii_4002_1798" width="20.537" height="10.328" x="4.692" y="4.789" color-interpolation-filters="sRGB" filterUnits="userSpaceOnUse"><feFlood flood-opacity="0" result="BackgroundImageFix"/><feBlend in="SourceGraphic" in2="BackgroundImageFix" result="shape"/><feColorMatrix in="SourceAlpha" result="hardAlpha" values="0 0 0 0 0 0 0 0 0 0 0 0 0 0 0 0 0 0 127 0"/><feOffset dy=".5"/><feGaussianBlur stdDeviation=".25"/><feComposite in2="hardAlpha" k2="-1" k3="1" operator="arithmetic"/><feColorMatrix values="0 0 0 0 0.478431 0 0 0 0 0.384314 0 0 0 0 0.368627 0 0 0 1 0"/><feBlend in2="shape" result="effect1_innerShadow_4002_1798"/><feColorMatrix in="SourceAlpha" result="hardAlpha" values="0 0 0 0 0 0 0 0 0 0 0 0 0 0 0 0 0 0 127 0"/><feOffset dx="-.5" dy=".25"/><feGaussianBlur stdDeviation=".375"/><feComposite in2="hardAlpha" k2="-1" k3="1" operator="arithmetic"/><feColorMatrix values="0 0 0 0 0.388235 0 0 0 0 0.243137 0 0 0 0 0.25098 0 0 0 1 0"/><feBlend in2="effect1_innerShadow_4002_1798" result="effect2_innerShadow_4002_1798"/></filter><filter id="filter1_i_4002_1798" width="8" height="6.44" x="11.211" y="15.23" color-interpolation-filters="sRGB" filterUnits="userSpaceOnUse"><feFlood flood-opacity="0" result="BackgroundImageFix"/><feBlend in="SourceGraphic" in2="BackgroundImageFix" result="shape"/><feColorMatrix in="SourceAlpha" result="hardAlpha" values="0 0 0 0 0 0 0 0 0 0 0 0 0 0 0 0 0 0 127 0"/><feOffset dy="-.25"/><feGaussianBlur stdDeviation=".175"/><feComposite in2="hardAlpha" k2="-1" k3="1" operator="arithmetic"/><feColorMatrix values="0 0 0 0 0.109804 0 0 0 0 0.47451 0 0 0 0 0.333333 0 0 0 1 0"/><feBlend in2="shape" result="effect1_innerShadow_4002_1798"/></filter><filter id="filter2_f_4002_1798" width="3.24" height="3.24" x="8.621" y="8.95" color-interpolation-filters="sRGB" filterUnits="userSpaceOnUse"><feFlood flood-opacity="0" result="BackgroundImageFix"/><feBlend in="SourceGraphic" in2="BackgroundImageFix" result="shape"/><feGaussianBlur result="effect1_foregroundBlur_4002_1798" stdDeviation=".25"/></filter><filter id="filter3_i_4002_1798" width="3.59" height="3.59" x="18.361" y="8.65" color-interpolation-filters="sRGB" filterUnits="userSpaceOnUse"><feFlood flood-opacity="0" result="BackgroundImageFix"/><feBlend in="SourceGraphic" in2="BackgroundImageFix" result="shape"/><feColorMatrix in="SourceAlpha" result="hardAlpha" values="0 0 0 0 0 0 0 0 0 0 0 0 0 0 0 0 0 0 127 0"/><feOffset dx=".25" dy="-.25"/><feGaussianBlur stdDeviation=".25"/><feComposite in2="hardAlpha" k2="-1" k3="1" operator="arithmetic"/><feColorMatrix values="0 0 0 0 0.85098 0 0 0 0 0.560784 0 0 0 0 0.376471 0 0 0 1 0"/><feBlend in2="shape" result="effect1_innerShadow_4002_1798"/></filter><filter id="filter4_f_4002_1798" width="3.327" height="3.327" x="18.367" y="8.906" color-interpolation-filters="sRGB" filterUnits="userSpaceOnUse"><feFlood flood-opacity="0" result="BackgroundImageFix"/><feBlend in="SourceGraphic" in2="BackgroundImageFix" result="shape"/><feGaussianBlur result="effect1_foregroundBlur_4002_1798" stdDeviation=".25"/></filter><filter id="filter5_f_4002_1798" width="8.45" height="4.612" x="10.941" y="25.54" color-interpolation-filters="sRGB" filterUnits="userSpaceOnUse"><feFlood flood-opacity="0" result="BackgroundImageFix"/><feBlend in="SourceGraphic" in2="BackgroundImageFix" result="shape"/><feGaussianBlur result="effect1_foregroundBlur_4002_1798" stdDeviation=".125"/></filter><filter id="filter6_i_4002_1798" width="8.05" height="4.28" x="11.091" y="25.79" color-interpolation-filters="sRGB" filterUnits="userSpaceOnUse"><feFlood flood-opacity="0" result="BackgroundImageFix"/><feBlend in="SourceGraphic" in2="BackgroundImageFix" result="shape"/><feColorMatrix in="SourceAlpha" result="hardAlpha" values="0 0 0 0 0 0 0 0 0 0 0 0 0 0 0 0 0 0 127 0"/><feOffset dx="-.1" dy=".1"/><feGaussianBlur stdDeviation=".1"/><feComposite in2="hardAlpha" k2="-1" k3="1" operator="arithmetic"/><feColorMatrix values="0 0 0 0 0.258824 0 0 0 0 0.67451 0 0 0 0 1 0 0 0 1 0"/><feBlend in2="shape" result="effect1_innerShadow_4002_1798"/></filter><filter id="filter7_i_4002_1798" width="10.869" height="10.18" x="10.023" y="6.79" color-interpolation-filters="sRGB" filterUnits="userSpaceOnUse"><feFlood flood-opacity="0" result="BackgroundImageFix"/><feBlend in="SourceGraphic" in2="BackgroundImageFix" result="shape"/><feColorMatrix in="SourceAlpha" result="hardAlpha" values="0 0 0 0 0 0 0 0 0 0 0 0 0 0 0 0 0 0 127 0"/><feOffset dx=".5"/><feGaussianBlur stdDeviation=".5"/><feComposite in2="hardAlpha" k2="-1" k3="1" operator="arithmetic"/><feColorMatrix values="0 0 0 0 0.823529 0 0 0 0 0.623529 0 0 0 0 0.313726 0 0 0 1 0"/><feBlend in2="shape" result="effect1_innerShadow_4002_1798"/></filter><filter id="filter8_f_4002_1798" width="3.371" height="4.195" x="13.332" y="9.48" color-interpolation-filters="sRGB" filterUnits="userSpaceOnUse"><feFlood flood-opacity="0" result="BackgroundImageFix"/><feBlend in="SourceGraphic" in2="BackgroundImageFix" result="shape"/><feGaussianBlur result="effect1_foregroundBlur_4002_1798" stdDeviation=".375"/></filter><filter id="filter9_f_4002_1798" width="2.371" height="3.195" x="14.025" y="9.755" color-interpolation-filters="sRGB" filterUnits="userSpaceOnUse"><feFlood flood-opacity="0" result="BackgroundImageFix"/><feBlend in="SourceGraphic" in2="BackgroundImageFix" result="shape"/><feGaussianBlur result="effect1_foregroundBlur_4002_1798" stdDeviation=".125"/></filter><filter id="filter10_f_4002_1798" width="3.833" height="1.572" x="13.234" y="13.088" color-interpolation-filters="sRGB" filterUnits="userSpaceOnUse"><feFlood flood-opacity="0" result="BackgroundImageFix"/><feBlend in="SourceGraphic" in2="BackgroundImageFix" result="shape"/><feGaussianBlur result="effect1_foregroundBlur_4002_1798" stdDeviation=".05"/></filter><filter id="filter11_i_4002_1798" width="2.195" height="1.016" x="16.79" y="7.492" color-interpolation-filters="sRGB" filterUnits="userSpaceOnUse"><feFlood flood-opacity="0" result="BackgroundImageFix"/><feBlend in="SourceGraphic" in2="BackgroundImageFix" result="shape"/><feColorMatrix in="SourceAlpha" result="hardAlpha" values="0 0 0 0 0 0 0 0 0 0 0 0 0 0 0 0 0 0 127 0"/><feOffset dy="-.2"/><feGaussianBlur stdDeviation=".075"/><feComposite in2="hardAlpha" k2="-1" k3="1" operator="arithmetic"/><feColorMatrix values="0 0 0 0 0.717647 0 0 0 0 0.262745 0 0 0 0 0.294118 0 0 0 1 0"/><feBlend in2="shape" result="effect1_innerShadow_4002_1798"/></filter><filter id="filter12_f_4002_1798" width="2.095" height=".766" x="16.84" y="7.63" color-interpolation-filters="sRGB" filterUnits="userSpaceOnUse"><feFlood flood-opacity="0" result="BackgroundImageFix"/><feBlend in="SourceGraphic" in2="BackgroundImageFix" result="shape"/><feGaussianBlur result="effect1_foregroundBlur_4002_1798" stdDeviation=".075"/></filter><filter id="filter13_i_4002_1798" width="2.195" height="1.016" x="11.43" y="7.492" color-interpolation-filters="sRGB" filterUnits="userSpaceOnUse"><feFlood flood-opacity="0" result="BackgroundImageFix"/><feBlend in="SourceGraphic" in2="BackgroundImageFix" result="shape"/><feColorMatrix in="SourceAlpha" result="hardAlpha" values="0 0 0 0 0 0 0 0 0 0 0 0 0 0 0 0 0 0 127 0"/><feOffset dy="-.2"/><feGaussianBlur stdDeviation=".075"/><feComposite in2="hardAlpha" k2="-1" k3="1" operator="arithmetic"/><feColorMatrix values="0 0 0 0 0.717647 0 0 0 0 0.262745 0 0 0 0 0.294118 0 0 0 1 0"/><feBlend in2="shape" result="effect1_innerShadow_4002_1798"/></filter><filter id="filter14_f_4002_1798" width="2.095" height=".766" x="11.48" y="7.63" color-interpolation-filters="sRGB" filterUnits="userSpaceOnUse"><feFlood flood-opacity="0" result="BackgroundImageFix"/><feBlend in="SourceGraphic" in2="BackgroundImageFix" result="shape"/><feGaussianBlur result="effect1_foregroundBlur_4002_1798" stdDeviation=".075"/></filter><filter id="filter15_i_4002_1798" width="4.103" height=".85" x="15.911" y="6.74" color-interpolation-filters="sRGB" filterUnits="userSpaceOnUse"><feFlood flood-opacity="0" result="BackgroundImageFix"/><feBlend in="SourceGraphic" in2="BackgroundImageFix" result="shape"/><feColorMatrix in="SourceAlpha" result="hardAlpha" values="0 0 0 0 0 0 0 0 0 0 0 0 0 0 0 0 0 0 127 0"/><feOffset dy="-.05"/><feGaussianBlur stdDeviation=".05"/><feComposite in2="hardAlpha" k2="-1" k3="1" operator="arithmetic"/><feColorMatrix values="0 0 0 0 0.94902 0 0 0 0 0.552941 0 0 0 0 0.133333 0 0 0 1 0"/><feBlend in2="shape" result="effect1_innerShadow_4002_1798"/></filter><filter id="filter16_iii_4002_1798" width="7.625" height="9.853" x="21.064" y="10.624" color-interpolation-filters="sRGB" filterUnits="userSpaceOnUse"><feFlood flood-opacity="0" result="BackgroundImageFix"/><feBlend in="SourceGraphic" in2="BackgroundImageFix" result="shape"/><feColorMatrix in="SourceAlpha" result="hardAlpha" values="0 0 0 0 0 0 0 0 0 0 0 0 0 0 0 0 0 0 127 0"/><feOffset dx=".2" dy="-.4"/><feGaussianBlur stdDeviation=".375"/><feComposite in2="hardAlpha" k2="-1" k3="1" operator="arithmetic"/><feColorMatrix values="0 0 0 0 0.643137 0 0 0 0 0.490196 0 0 0 0 0.776471 0 0 0 1 0"/><feBlend in2="shape" result="effect1_innerShadow_4002_1798"/><feColorMatrix in="SourceAlpha" result="hardAlpha" values="0 0 0 0 0 0 0 0 0 0 0 0 0 0 0 0 0 0 127 0"/><feOffset dx="-.3" dy=".5"/><feGaussianBlur stdDeviation=".25"/><feComposite in2="hardAlpha" k2="-1" k3="1" operator="arithmetic"/><feColorMatrix values="0 0 0 0 0.831373 0 0 0 0 0.788235 0 0 0 0 0.87451 0 0 0 1 0"/><feBlend in2="effect1_innerShadow_4002_1798" result="effect2_innerShadow_4002_1798"/><feColorMatrix in="SourceAlpha" result="hardAlpha" values="0 0 0 0 0 0 0 0 0 0 0 0 0 0 0 0 0 0 127 0"/><feOffset dy=".1"/><feGaussianBlur stdDeviation=".2"/><feComposite in2="hardAlpha" k2="-1" k3="1" operator="arithmetic"/><feColorMatrix values="0 0 0 0 0.6 0 0 0 0 0.552941 0 0 0 0 0.545098 0 0 0 1 0"/><feBlend in2="effect2_innerShadow_4002_1798" result="effect3_innerShadow_4002_1798"/></filter><filter id="filter17_f_4002_1798" width=".795" height=".703" x="16.681" y="9.505" color-interpolation-filters="sRGB" filterUnits="userSpaceOnUse"><feFlood flood-opacity="0" result="BackgroundImageFix"/><feBlend in="SourceGraphic" in2="BackgroundImageFix" result="shape"/><feGaussianBlur result="effect1_foregroundBlur_4002_1798" stdDeviation=".05"/></filter><filter id="filter18_f_4002_1798" width=".898" height=".921" x="17.535" y="9.583" color-interpolation-filters="sRGB" filterUnits="userSpaceOnUse"><feFlood flood-opacity="0" result="BackgroundImageFix"/><feBlend in="SourceGraphic" in2="BackgroundImageFix" result="shape"/><feGaussianBlur result="effect1_foregroundBlur_4002_1798" stdDeviation=".1"/></filter><filter id="filter19_f_4002_1798" width=".995" height="1.05" x="13.027" y="9.518" color-interpolation-filters="sRGB" filterUnits="userSpaceOnUse"><feFlood flood-opacity="0" result="BackgroundImageFix"/><feBlend in="SourceGraphic" in2="BackgroundImageFix" result="shape"/><feGaussianBlur result="effect1_foregroundBlur_4002_1798" stdDeviation=".1"/></filter><filter id="filter20_f_4002_1798" width=".923" height=".712" x="12.26" y="9.497" color-interpolation-filters="sRGB" filterUnits="userSpaceOnUse"><feFlood flood-opacity="0" result="BackgroundImageFix"/><feBlend in="SourceGraphic" in2="BackgroundImageFix" result="shape"/><feGaussianBlur result="effect1_foregroundBlur_4002_1798" stdDeviation=".05"/></filter><filter id="filter21_i_4002_1798" width="4.618" height="5.556" x="22.665" y="24.404" color-interpolation-filters="sRGB" filterUnits="userSpaceOnUse"><feFlood flood-opacity="0" result="BackgroundImageFix"/><feBlend in="SourceGraphic" in2="BackgroundImageFix" result="shape"/><feColorMatrix in="SourceAlpha" result="hardAlpha" values="0 0 0 0 0 0 0 0 0 0 0 0 0 0 0 0 0 0 127 0"/><feOffset dx=".3" dy="-.15"/><feGaussianBlur stdDeviation=".3"/><feComposite in2="hardAlpha" k2="-1" k3="1" operator="arithmetic"/><feColorMatrix values="0 0 0 0 0.905882 0 0 0 0 0.521569 0 0 0 0 0.364706 0 0 0 1 0"/><feBlend in2="shape" result="effect1_innerShadow_4002_1798"/></filter><filter id="filter22_f_4002_1798" width="2.047" height=".25" x="23.06" y="25.813" color-interpolation-filters="sRGB" filterUnits="userSpaceOnUse"><feFlood flood-opacity="0" result="BackgroundImageFix"/><feBlend in="SourceGraphic" in2="BackgroundImageFix" result="shape"/><feGaussianBlur result="effect1_foregroundBlur_4002_1798" stdDeviation=".05"/></filter><filter id="filter23_f_4002_1798" width="2.047" height=".25" x="22.982" y="27.117" color-interpolation-filters="sRGB" filterUnits="userSpaceOnUse"><feFlood flood-opacity="0" result="BackgroundImageFix"/><feBlend in="SourceGraphic" in2="BackgroundImageFix" result="shape"/><feGaussianBlur result="effect1_foregroundBlur_4002_1798" stdDeviation=".05"/></filter><filter id="filter24_f_4002_1798" width="2.047" height=".25" x="23.06" y="28.422" color-interpolation-filters="sRGB" filterUnits="userSpaceOnUse"><feFlood flood-opacity="0" result="BackgroundImageFix"/><feBlend in="SourceGraphic" in2="BackgroundImageFix" result="shape"/><feGaussianBlur result="effect1_foregroundBlur_4002_1798" stdDeviation=".05"/></filter><linearGradient id="paint2_linear_4002_1798" x1="15.131" x2="15.131" y1="3.99" y2="4.043" gradientUnits="userSpaceOnUse"><stop stop-color="#4E2D3A"/><stop offset="1" stop-color="#4E2D3A" stop-opacity="0"/></linearGradient><linearGradient id="paint3_linear_4002_1798" x1="15.211" x2="15.211" y1="4.789" y2="14.821" gradientUnits="userSpaceOnUse"><stop stop-color="#6A3D3E"/><stop offset="1" stop-color="#6E4E4C"/></linearGradient><linearGradient id="paint6_linear_4002_1798" x1="8.151" x2="4.56" y1="28.414" y2="28.414" gradientUnits="userSpaceOnUse"><stop stop-color="#399965"/><stop offset="1" stop-color="#5CC585"/></linearGradient><linearGradient id="paint8_linear_4002_1798" x1="25.713" x2="22.171" y1="22.844" y2="29.15" gradientUnits="userSpaceOnUse"><stop stop-color="#63D591"/><stop offset="1" stop-color="#368D6E"/></linearGradient><linearGradient id="paint11_linear_4002_1798" x1="19.211" x2="18.276" y1="18.477" y2="18.477" gradientUnits="userSpaceOnUse"><stop stop-color="#5AA37A"/><stop offset="1" stop-color="#5AA37A" stop-opacity="0"/></linearGradient><linearGradient id="paint13_linear_4002_1798" x1="11.211" x2="11.545" y1="18.477" y2="18.477" gradientUnits="userSpaceOnUse"><stop offset=".143" stop-color="#6A9E7E"/><stop offset="1" stop-color="#6A9E7E" stop-opacity="0"/></linearGradient><linearGradient id="paint20_linear_4002_1798" x1="10.946" x2="10.217" y1="14.977" y2="13.852" gradientUnits="userSpaceOnUse"><stop stop-color="#B37641"/><stop offset="1" stop-color="#B37641" stop-opacity="0"/></linearGradient><linearGradient id="paint22_linear_4002_1798" x1="21.117" x2="20.299" y1="9.478" y2="12.015" gradientUnits="userSpaceOnUse"><stop stop-color="#FFE446"/><stop offset="1" stop-color="#FFC339"/></linearGradient><linearGradient id="paint26_linear_4002_1798" x1="16.373" x2="15.161" y1="29.102" y2="21.977" gradientUnits="userSpaceOnUse"><stop stop-color="#3560C5"/><stop offset="1" stop-color="#329FEA"/></linearGradient><linearGradient id="paint28_linear_4002_1798" x1="22.224" x2="21.998" y1="29.633" y2="29.633" gradientUnits="userSpaceOnUse"><stop stop-color="#356EBB"/><stop offset="1" stop-color="#356EBB" stop-opacity="0"/></linearGradient><linearGradient id="paint29_linear_4002_1798" x1="8.151" x2="8.275" y1="29.633" y2="29.633" gradientUnits="userSpaceOnUse"><stop stop-color="#356EBB"/><stop offset="1" stop-color="#356EBB" stop-opacity="0"/></linearGradient><linearGradient id="paint31_linear_4002_1798" x1="12.998" x2="19.529" y1="28.321" y2="28.321" gradientUnits="userSpaceOnUse"><stop stop-color="#3CA9FF"/><stop offset="1" stop-color="#389DFF"/></linearGradient><linearGradient id="paint36_linear_4002_1798" x1="14.349" x2="15.284" y1="11.63" y2="11.63" gradientUnits="userSpaceOnUse"><stop stop-color="#FAA416"/><stop offset="1" stop-color="#FAA416" stop-opacity="0"/></linearGradient><linearGradient id="paint37_linear_4002_1798" x1="16.146" x2="15.124" y1="11.954" y2="11.939" gradientUnits="userSpaceOnUse"><stop stop-color="#FFE721"/><stop offset="1" stop-color="#FFE721" stop-opacity="0"/></linearGradient><linearGradient id="paint38_linear_4002_1798" x1="15.405" x2="15.405" y1="12.7" y2="12.124" gradientUnits="userSpaceOnUse"><stop stop-color="#EB8A1C"/><stop offset="1" stop-color="#EB8A1C" stop-opacity="0"/></linearGradient><linearGradient id="paint39_linear_4002_1798" x1="15.336" x2="15.336" y1="12.742" y2="12.574" gradientUnits="userSpaceOnUse"><stop stop-color="#E88613"/><stop offset="1" stop-color="#E88613" stop-opacity="0"/></linearGradient><linearGradient id="paint45_linear_4002_1798" x1="24.821" x2="24.821" y1="21.571" y2="24.75" gradientUnits="userSpaceOnUse"><stop stop-color="#784853"/><stop offset=".997" stop-color="#7D5248"/></linearGradient><linearGradient id="paint49_linear_4002_1798" x1="24.849" x2="24.849" y1="22.274" y2="21.68" gradientUnits="userSpaceOnUse"><stop stop-color="#9E83BE"/><stop offset="1" stop-color="#9E83BE" stop-opacity="0"/></linearGradient><linearGradient id="paint52_linear_4002_1798" x1="18.214" x2="17.895" y1="10.005" y2="10.201" gradientUnits="userSpaceOnUse"><stop stop-color="#B4948D"/><stop offset="1" stop-color="#B4948D" stop-opacity="0"/></linearGradient><linearGradient id="paint54_linear_4002_1798" x1="13.752" x2="13.433" y1="10.005" y2="10.201" gradientUnits="userSpaceOnUse"><stop stop-color="#B4948D"/><stop offset="1" stop-color="#B4948D" stop-opacity="0"/></linearGradient><linearGradient id="paint56_linear_4002_1798" x1="26.693" x2="22.665" y1="28.023" y2="28.023" gradientUnits="userSpaceOnUse"><stop stop-color="#FFE132"/><stop offset=".861" stop-color="#DF9E26"/></linearGradient><linearGradient id="paint58_linear_4002_1798" x1="24.866" x2="23.03" y1="25.938" y2="25.938" gradientUnits="userSpaceOnUse"><stop stop-color="#C07200"/><stop offset="1" stop-color="#C88714"/></linearGradient><linearGradient id="paint59_linear_4002_1798" x1="24.788" x2="22.952" y1="27.242" y2="27.242" gradientUnits="userSpaceOnUse"><stop stop-color="#C07200"/><stop offset="1" stop-color="#C88714"/></linearGradient><linearGradient id="paint60_linear_4002_1798" x1="24.866" x2="23.03" y1="28.547" y2="28.547" gradientUnits="userSpaceOnUse"><stop stop-color="#C07200"/><stop offset="1" stop-color="#C88714"/></linearGradient></defs></svg>