<svg xmlns="http://www.w3.org/2000/svg" width="32" height="32" fill="none" viewBox="0 0 32 32"><path fill="url(#paint0_radial_14396_1066)" d="M15.999 29.998c9.334 0 13.999-6.268 13.999-14 0-7.73-4.665-13.998-14-13.998C6.665 2 2 8.268 2 15.999c0 7.731 4.664 13.999 13.999 13.999Z"/><path fill="url(#paint1_radial_14396_1066)" d="M15.999 29.998c9.334 0 13.999-6.268 13.999-14 0-7.73-4.665-13.998-14-13.998C6.665 2 2 8.268 2 15.999c0 7.731 4.664 13.999 13.999 13.999Z"/><path fill="url(#paint2_radial_14396_1066)" d="M15.999 29.998c9.334 0 13.999-6.268 13.999-14 0-7.73-4.665-13.998-14-13.998C6.665 2 2 8.268 2 15.999c0 7.731 4.664 13.999 13.999 13.999Z"/><path fill="url(#paint3_radial_14396_1066)" fill-opacity=".6" d="M15.999 29.998c9.334 0 13.999-6.268 13.999-14 0-7.73-4.665-13.998-14-13.998C6.665 2 2 8.268 2 15.999c0 7.731 4.664 13.999 13.999 13.999Z"/><path fill="url(#paint4_radial_14396_1066)" d="M15.999 29.998c9.334 0 13.999-6.268 13.999-14 0-7.73-4.665-13.998-14-13.998C6.665 2 2 8.268 2 15.999c0 7.731 4.664 13.999 13.999 13.999Z"/><path fill="url(#paint5_radial_14396_1066)" d="M15.999 29.998c9.334 0 13.999-6.268 13.999-14 0-7.73-4.665-13.998-14-13.998C6.665 2 2 8.268 2 15.999c0 7.731 4.664 13.999 13.999 13.999Z"/><path fill="url(#paint6_radial_14396_1066)" d="M15.999 29.998c9.334 0 13.999-6.268 13.999-14 0-7.73-4.665-13.998-14-13.998C6.665 2 2 8.268 2 15.999c0 7.731 4.664 13.999 13.999 13.999Z"/><path fill="url(#paint7_radial_14396_1066)" d="M15.999 29.998c9.334 0 13.999-6.268 13.999-14 0-7.73-4.665-13.998-14-13.998C6.665 2 2 8.268 2 15.999c0 7.731 4.664 13.999 13.999 13.999Z"/><path fill="#fff" d="M16.998 11.5a4.5 4.5 0 1 0 9.001 0 4.5 4.5 0 0 0-9.001 0Zm-1.999 0a4.5 4.5 0 1 1-9.001 0 4.5 4.5 0 0 1 9 0Z"/><path fill="#3F2931" d="M11.12 14.69a3.21 3.21 0 1 0 0-6.42 3.21 3.21 0 0 0 0 6.42Zm9.757 0a3.21 3.21 0 1 1 0-6.42 3.21 3.21 0 0 1 0 6.42Z"/><rect width="11.906" height="1.891" x="10.011" y="20.786" fill="url(#paint8_linear_14396_1066)" rx=".945" transform="rotate(-15.574 10.01 20.786)"/><rect width="11.906" height="1.891" x="10.011" y="20.786" fill="url(#paint9_linear_14396_1066)" rx=".945" transform="rotate(-15.574 10.01 20.786)"/><rect width="11.906" height="1.891" x="10.011" y="20.786" fill="url(#paint10_radial_14396_1066)" rx=".945" transform="rotate(-15.574 10.01 20.786)"/><g filter="url(#filter0_f_14396_1066)"><path stroke="#5C4B51" stroke-width=".3" d="m11.155 21.263 9.766-2.722"/></g><defs><radialGradient id="paint0_radial_14396_1066" cx="0" cy="0" r="1" gradientTransform="rotate(132.839 10.786 10.065) scale(37.5033)" gradientUnits="userSpaceOnUse"><stop stop-color="#FFF478"/><stop offset=".475" stop-color="#FFB02E"/><stop offset="1" stop-color="#F70A8D"/></radialGradient><radialGradient id="paint1_radial_14396_1066" cx="0" cy="0" r="1" gradientTransform="rotate(131.878 10.74 10.193) scale(38.9487)" gradientUnits="userSpaceOnUse"><stop stop-color="#FFF478"/><stop offset=".475" stop-color="#FFB02E"/><stop offset="1" stop-color="#F70A8D"/></radialGradient><radialGradient id="paint2_radial_14396_1066" cx="0" cy="0" r="1" gradientTransform="rotate(101.31 2.876 12.808) scale(17.8466 22.8581)" gradientUnits="userSpaceOnUse"><stop offset=".788" stop-color="#F59639" stop-opacity="0"/><stop offset=".973" stop-color="#FF7DCE"/></radialGradient><radialGradient id="paint3_radial_14396_1066" cx="0" cy="0" r="1" gradientTransform="matrix(-29 29 -29 -29 18 14)" gradientUnits="userSpaceOnUse"><stop offset=".315" stop-opacity="0"/><stop offset="1"/></radialGradient><radialGradient id="paint4_radial_14396_1066" cx="0" cy="0" r="1" gradientTransform="rotate(77.692 -2.555 18.434) scale(28.1469)" gradientUnits="userSpaceOnUse"><stop offset=".508" stop-color="#7D6133" stop-opacity="0"/><stop offset="1" stop-color="#715B32"/></radialGradient><radialGradient id="paint5_radial_14396_1066" cx="0" cy="0" r="1" gradientTransform="matrix(7.5 10.99996 -7.97335 5.4364 16.5 16.5)" gradientUnits="userSpaceOnUse"><stop stop-color="#FFB849"/><stop offset="1" stop-color="#FFB847" stop-opacity="0"/></radialGradient><radialGradient id="paint6_radial_14396_1066" cx="0" cy="0" r="1" gradientTransform="matrix(11.49998 2 -2 11.49998 20.5 18)" gradientUnits="userSpaceOnUse"><stop stop-color="#FFA64B"/><stop offset=".9" stop-color="#FFAE46" stop-opacity="0"/></radialGradient><radialGradient id="paint7_radial_14396_1066" cx="0" cy="0" r="1" gradientTransform="rotate(43.971 -9.827 29.173) scale(59.0529)" gradientUnits="userSpaceOnUse"><stop offset=".185" stop-opacity="0"/><stop offset="1" stop-opacity=".4"/></radialGradient><radialGradient id="paint10_radial_14396_1066" cx="0" cy="0" r="1" gradientTransform="rotate(160.527 9.16 12.51) scale(1.5746 1.22898)" gradientUnits="userSpaceOnUse"><stop stop-color="#605052"/><stop offset="1" stop-color="#605052" stop-opacity="0"/></radialGradient><linearGradient id="paint8_linear_14396_1066" x1="15.964" x2="15.964" y1="20.786" y2="22.427" gradientUnits="userSpaceOnUse"><stop stop-color="#4B383A"/><stop offset="1" stop-color="#53265D"/></linearGradient><linearGradient id="paint9_linear_14396_1066" x1="10.011" x2="11.136" y1="21.731" y2="21.731" gradientUnits="userSpaceOnUse"><stop stop-color="#503333"/><stop offset="1" stop-color="#503333" stop-opacity="0"/></linearGradient><filter id="filter0_f_14396_1066" width="11.046" height="4.211" x="10.515" y="17.797" color-interpolation-filters="sRGB" filterUnits="userSpaceOnUse"><feFlood flood-opacity="0" result="BackgroundImageFix"/><feBlend in="SourceGraphic" in2="BackgroundImageFix" result="shape"/><feGaussianBlur result="effect1_foregroundBlur_14396_1066" stdDeviation=".3"/></filter></defs></svg>