<svg xmlns="http://www.w3.org/2000/svg" width="32" height="32" fill="none" viewBox="0 0 32 32"><g filter="url(#filter0_ii_18_10816)"><path fill="#328A65" d="m10.68 8.44-2.78.93C6.76 9.75 6 10.756 6 12.233h6V9.39c0-.69-.67-1.17-1.32-.95Z"/></g><g filter="url(#filter1_ii_18_10816)"><path fill="url(#paint0_linear_18_10816)" d="M28 6H15c-1.1 0-2 .9-2 2v16h17V8a2 2 0 0 0-2-2Z"/></g><g filter="url(#filter2_ii_18_10816)"><path fill="url(#paint1_linear_18_10816)" d="M12 12H5.607c-.38 0-.731.21-.902.55l-2.394 4.81c-.2.42-.311.88-.311 1.34V24h10V12Z"/><path fill="url(#paint2_linear_18_10816)" d="M12 12H5.607c-.38 0-.731.21-.902.55l-2.394 4.81c-.2.42-.311.88-.311 1.34V24h10V12Z"/></g><g filter="url(#filter3_f_18_10816)"><path fill="url(#paint3_linear_18_10816)" fill-rule="evenodd" d="M3.691 17.65c.005-.292.07-.95.492-1.297.272-.225.704-.274 1.058-.246.295.024.473.286.473.573v1.94c0 .287-.178.55-.473.574-.354.028-.786-.022-1.058-.246-.422-.348-.487-1.006-.492-1.298Z" clip-rule="evenodd"/></g><g filter="url(#filter4_i_18_10816)"><path fill="url(#paint4_linear_18_10816)" d="M5.99 12.99h-1.5l-2.18 4.37c-.1.2-.18.42-.23.64H6c.55 0 1-.45 1-1v-3c0-.55-.46-1.01-1.01-1.01Z"/></g><g filter="url(#filter5_i_18_10816)"><path fill="url(#paint5_linear_18_10816)" d="M10.007 13H8.993a.999.999 0 0 0-.993.998v3.004c0 .549.447.998.993.998h1.014a1 1 0 0 0 .993-.998v-3.004a.999.999 0 0 0-.993-.998Z"/></g><g filter="url(#filter6_i_18_10816)"><path fill="url(#paint6_linear_18_10816)" d="M17.43 21h-1.86a.57.57 0 0 1-.57-.57V8.57c0-.31.25-.57.57-.57h1.86c.31 0 .57.25.57.57v11.86c0 .32-.26.57-.57.57Z"/><path fill="url(#paint7_linear_18_10816)" d="M17.43 21h-1.86a.57.57 0 0 1-.57-.57V8.57c0-.31.25-.57.57-.57h1.86c.31 0 .57.25.57.57v11.86c0 .32-.26.57-.57.57Z"/><path fill="url(#paint8_linear_18_10816)" d="M17.43 21h-1.86a.57.57 0 0 1-.57-.57V8.57c0-.31.25-.57.57-.57h1.86c.31 0 .57.25.57.57v11.86c0 .32-.26.57-.57.57Z"/></g><g filter="url(#filter7_i_18_10816)"><path fill="url(#paint9_linear_18_10816)" d="M22.432 21h-1.864a.569.569 0 0 1-.568-.57V8.57c0-.31.25-.57.568-.57h1.864c.309 0 .568.25.568.57v11.86c0 .32-.25.57-.568.57Z"/><path fill="url(#paint10_linear_18_10816)" d="M22.432 21h-1.864a.569.569 0 0 1-.568-.57V8.57c0-.31.25-.57.568-.57h1.864c.309 0 .568.25.568.57v11.86c0 .32-.25.57-.568.57Z"/><path fill="url(#paint11_linear_18_10816)" d="M22.432 21h-1.864a.569.569 0 0 1-.568-.57V8.57c0-.31.25-.57.568-.57h1.864c.309 0 .568.25.568.57v11.86c0 .32-.25.57-.568.57Z"/></g><g filter="url(#filter8_i_18_10816)"><path fill="url(#paint12_linear_18_10816)" d="M27.43 21h-1.86a.57.57 0 0 1-.57-.57V8.57c0-.31.25-.57.57-.57h1.86c.31 0 .57.25.57.57v11.86c0 .32-.25.57-.57.57Z"/><path fill="url(#paint13_linear_18_10816)" d="M27.43 21h-1.86a.57.57 0 0 1-.57-.57V8.57c0-.31.25-.57.57-.57h1.86c.31 0 .57.25.57.57v11.86c0 .32-.25.57-.57.57Z"/><path fill="url(#paint14_linear_18_10816)" d="M27.43 21h-1.86a.57.57 0 0 1-.57-.57V8.57c0-.31.25-.57.57-.57h1.86c.31 0 .57.25.57.57v11.86c0 .32-.25.57-.57.57Z"/></g><path fill="url(#paint15_linear_18_10816)" d="M11.419 24h2.148v2h-2.148z"/><path fill="url(#paint16_linear_18_10816)" d="M13 25.85c0 .083.067.15.15.15H29c.56 0 1-.45 1-1v-1H13v1.85Z"/><path fill="url(#paint17_linear_18_10816)" d="M13 25.85c0 .083.067.15.15.15H29c.56 0 1-.45 1-1v-1H13v1.85Z"/><path fill="url(#paint18_linear_18_10816)" d="M13 25.85c0 .083.067.15.15.15H29c.56 0 1-.45 1-1v-1H13v1.85Z"/><path fill="url(#paint19_linear_18_10816)" d="M13 25.85c0 .083.067.15.15.15H29c.56 0 1-.45 1-1v-1H13v1.85Z"/><g filter="url(#filter9_i_18_10816)"><path fill="url(#paint20_linear_18_10816)" d="M12 24H2v1c0 .55.45 1 1 1h8.85a.15.15 0 0 0 .15-.15V24Z"/><path fill="url(#paint21_linear_18_10816)" d="M12 24H2v1c0 .55.45 1 1 1h8.85a.15.15 0 0 0 .15-.15V24Z"/><path fill="url(#paint22_linear_18_10816)" d="M12 24H2v1c0 .55.45 1 1 1h8.85a.15.15 0 0 0 .15-.15V24Z"/></g><path fill="url(#paint23_linear_18_10816)" d="M12 24H2v1c0 .55.45 1 1 1h8.85a.15.15 0 0 0 .15-.15V24Z"/><path fill="url(#paint24_linear_18_10816)" d="M7 14c0-.55-.46-1.01-1.01-1.01h-1.5L3.986 14H7Z"/><g filter="url(#filter10_i_18_10816)"><path fill="#F3CF4D" d="M2.91 23H2v-4h.91c.6 0 1.09.49 1.09 1.09v1.82c0 .6-.49 1.09-1.09 1.09Z"/><path fill="url(#paint25_linear_18_10816)" d="M2.91 23H2v-4h.91c.6 0 1.09.49 1.09 1.09v1.82c0 .6-.49 1.09-1.09 1.09Z"/></g><path fill="url(#paint26_radial_18_10816)" d="M30 21h-.5a1.5 1.5 0 0 0-1.498 1.57c.04.81.739 1.43 1.548 1.43H30v-3Z"/><path fill="url(#paint27_linear_18_10816)" d="M13.667 26h7.666a3.874 3.874 0 1 0-7.666 0Z"/><path fill="url(#paint28_linear_18_10816)" d="M3.652 26h7.667a3.874 3.874 0 1 0-7.666 0Z"/><path fill="url(#paint29_linear_18_10816)" d="M20.657 26h7.666a3.874 3.874 0 1 0-7.666 0Z"/><g filter="url(#filter11_ii_18_10816)"><path fill="url(#paint30_linear_18_10816)" d="M7.5 29a3.5 3.5 0 1 0 0-7 3.5 3.5 0 0 0 0 7Z"/><path fill="url(#paint31_radial_18_10816)" d="M7.5 29a3.5 3.5 0 1 0 0-7 3.5 3.5 0 0 0 0 7Z"/></g><g filter="url(#filter12_ii_18_10816)"><path fill="#CDC5D5" d="M7.5 26.785a1.285 1.285 0 1 0 0-2.57 1.285 1.285 0 0 0 0 2.57Z"/></g><g filter="url(#filter13_ii_18_10816)"><path fill="url(#paint32_linear_18_10816)" d="M24.49 29a3.5 3.5 0 1 0 0-7 3.5 3.5 0 0 0 0 7Z"/><path fill="url(#paint33_radial_18_10816)" d="M24.49 29a3.5 3.5 0 1 0 0-7 3.5 3.5 0 0 0 0 7Z"/></g><g filter="url(#filter14_ii_18_10816)"><path fill="url(#paint34_linear_18_10816)" d="M17.5 29a3.5 3.5 0 1 0 0-7 3.5 3.5 0 0 0 0 7Z"/><path fill="url(#paint35_radial_18_10816)" d="M17.5 29a3.5 3.5 0 1 0 0-7 3.5 3.5 0 0 0 0 7Z"/></g><g filter="url(#filter15_ii_18_10816)"><path fill="#CDC5D5" d="M17.5 26.785a1.285 1.285 0 1 0 0-2.57 1.285 1.285 0 0 0 0 2.57Z"/></g><g filter="url(#filter16_ii_18_10816)"><path fill="#CDC5D5" d="M24.49 26.785a1.285 1.285 0 1 0 0-2.57 1.285 1.285 0 0 0 0 2.57Z"/></g><g filter="url(#filter17_f_18_10816)"><circle cx="24.641" cy="25.217" r="2.474" stroke="url(#paint36_linear_18_10816)" stroke-width=".85"/></g><g filter="url(#filter18_f_18_10816)"><circle cx="17.526" cy="25.217" r="2.474" stroke="url(#paint37_linear_18_10816)" stroke-width=".85"/></g><g filter="url(#filter19_f_18_10816)"><circle cx="7.5" cy="25.217" r="2.474" stroke="url(#paint38_linear_18_10816)" stroke-width=".85"/></g><g filter="url(#filter20_f_18_10816)"><path stroke="url(#paint39_linear_18_10816)" stroke-linecap="round" stroke-width=".5" d="m8 10.015 2.91-.914a.25.25 0 0 1 .324.239v2.362"/></g><path fill="url(#paint40_radial_18_10816)" fill-rule="evenodd" d="M3.977 17.52c.005-.293.07-.95.492-1.298.272-.225.704-.274 1.058-.246.295.023.473.286.473.573v1.94c0 .288-.178.55-.473.574-.354.028-.786-.022-1.058-.246-.422-.348-.487-1.006-.492-1.298Z" clip-rule="evenodd"/><path fill="url(#paint41_linear_18_10816)" fill-rule="evenodd" d="M3.977 17.52c.005-.293.07-.95.492-1.298.272-.225.704-.274 1.058-.246.295.023.473.286.473.573v1.94c0 .288-.178.55-.473.574-.354.028-.786-.022-1.058-.246-.422-.348-.487-1.006-.492-1.298Z" clip-rule="evenodd"/><defs><linearGradient id="paint0_linear_18_10816" x1="30" x2="13" y1="14.998" y2="14.998" gradientUnits="userSpaceOnUse"><stop stop-color="#E1DDE4"/><stop offset="1" stop-color="#DEDBE2"/></linearGradient><linearGradient id="paint1_linear_18_10816" x1="2" x2="12.341" y1="21.655" y2="21.655" gradientUnits="userSpaceOnUse"><stop stop-color="#3DCF77"/><stop offset="1" stop-color="#3CCC76"/></linearGradient><linearGradient id="paint2_linear_18_10816" x1="8.626" x2="8.626" y1="12" y2="16.629" gradientUnits="userSpaceOnUse"><stop stop-color="#50EC8F"/><stop offset="1" stop-color="#50EC8F" stop-opacity="0"/></linearGradient><linearGradient id="paint3_linear_18_10816" x1="4.703" x2="4.703" y1="16.1" y2="19.201" gradientUnits="userSpaceOnUse"><stop stop-color="#227148"/><stop offset="1" stop-color="#25764E"/></linearGradient><linearGradient id="paint4_linear_18_10816" x1="6.716" x2="2.747" y1="15.124" y2="17.562" gradientUnits="userSpaceOnUse"><stop stop-color="#249FEB"/><stop offset="1" stop-color="#47D6FF"/></linearGradient><linearGradient id="paint5_linear_18_10816" x1="11" x2="8" y1="15.5" y2="15.5" gradientUnits="userSpaceOnUse"><stop offset=".366" stop-color="#38AFE3"/><stop offset="1" stop-color="#53ECFF"/></linearGradient><linearGradient id="paint6_linear_18_10816" x1="14.994" x2="18.497" y1="14.5" y2="14.5" gradientUnits="userSpaceOnUse"><stop stop-color="#D3CDD8"/><stop offset="1" stop-color="#C6C0CB"/></linearGradient><linearGradient id="paint7_linear_18_10816" x1="15" x2="15.716" y1="13.812" y2="13.812" gradientUnits="userSpaceOnUse"><stop stop-color="#DCD8E0"/><stop offset="1" stop-color="#DCD8E0" stop-opacity="0"/></linearGradient><linearGradient id="paint8_linear_18_10816" x1="14.028" x2="17.466" y1="21" y2="15.843" gradientUnits="userSpaceOnUse"><stop stop-color="#DCD8E0"/><stop offset="1" stop-color="#DCD8E0" stop-opacity="0"/></linearGradient><linearGradient id="paint9_linear_18_10816" x1="19.994" x2="23" y1="14.5" y2="14.5" gradientUnits="userSpaceOnUse"><stop stop-color="#D3CDD8"/><stop offset="1" stop-color="#C6C0CB"/></linearGradient><linearGradient id="paint10_linear_18_10816" x1="20" x2="20.716" y1="13.812" y2="13.812" gradientUnits="userSpaceOnUse"><stop stop-color="#DCD8E0"/><stop offset="1" stop-color="#DCD8E0" stop-opacity="0"/></linearGradient><linearGradient id="paint11_linear_18_10816" x1="19.028" x2="22.466" y1="21" y2="15.843" gradientUnits="userSpaceOnUse"><stop stop-color="#DCD8E0"/><stop offset="1" stop-color="#DCD8E0" stop-opacity="0"/></linearGradient><linearGradient id="paint12_linear_18_10816" x1="24.994" x2="28" y1="14.5" y2="14.5" gradientUnits="userSpaceOnUse"><stop stop-color="#D3CDD8"/><stop offset="1" stop-color="#C6C0CB"/></linearGradient><linearGradient id="paint13_linear_18_10816" x1="25" x2="25.716" y1="13.812" y2="13.812" gradientUnits="userSpaceOnUse"><stop stop-color="#DCD8E0"/><stop offset="1" stop-color="#DCD8E0" stop-opacity="0"/></linearGradient><linearGradient id="paint14_linear_18_10816" x1="24.028" x2="27.466" y1="21" y2="15.843" gradientUnits="userSpaceOnUse"><stop stop-color="#DCD8E0"/><stop offset="1" stop-color="#DCD8E0" stop-opacity="0"/></linearGradient><linearGradient id="paint15_linear_18_10816" x1="12.411" x2="13.778" y1="25.283" y2="25.283" gradientUnits="userSpaceOnUse"><stop stop-color="#9B96A0"/><stop offset="1" stop-color="#6A6970"/></linearGradient><linearGradient id="paint16_linear_18_10816" x1="30" x2="13" y1="25" y2="25" gradientUnits="userSpaceOnUse"><stop stop-color="#8C8892"/><stop offset="1" stop-color="#AAA3AE"/></linearGradient><linearGradient id="paint17_linear_18_10816" x1="13" x2="14.078" y1="25.532" y2="25.532" gradientUnits="userSpaceOnUse"><stop stop-color="#666F6E"/><stop offset="1" stop-color="#666F6E" stop-opacity="0"/></linearGradient><linearGradient id="paint18_linear_18_10816" x1="30" x2="28.122" y1="25.309" y2="25.309" gradientUnits="userSpaceOnUse"><stop stop-color="#C5C1C7"/><stop offset="1" stop-color="#C5C1C7" stop-opacity="0"/></linearGradient><linearGradient id="paint19_linear_18_10816" x1="22.716" x2="22.716" y1="26.173" y2="25" gradientUnits="userSpaceOnUse"><stop stop-color="#836F92"/><stop offset="1" stop-color="#836F92" stop-opacity="0"/></linearGradient><linearGradient id="paint20_linear_18_10816" x1="12" x2="2" y1="25" y2="25" gradientUnits="userSpaceOnUse"><stop stop-color="#ABA5B1"/><stop offset="1" stop-color="#B7B2BB"/></linearGradient><linearGradient id="paint21_linear_18_10816" x1="7" x2="7" y1="23.898" y2="24.163" gradientUnits="userSpaceOnUse"><stop stop-color="#666369"/><stop offset="1" stop-color="#666369" stop-opacity="0"/></linearGradient><linearGradient id="paint22_linear_18_10816" x1="12.278" x2="11.747" y1="24.163" y2="24.163" gradientUnits="userSpaceOnUse"><stop stop-color="#666369"/><stop offset="1" stop-color="#666369" stop-opacity="0"/></linearGradient><linearGradient id="paint23_linear_18_10816" x1="7" x2="7" y1="26" y2="25.374" gradientUnits="userSpaceOnUse"><stop stop-color="#857095"/><stop offset="1" stop-color="#857095" stop-opacity="0"/></linearGradient><linearGradient id="paint24_linear_18_10816" x1="4.331" x2="5.934" y1="13.394" y2="14.054" gradientUnits="userSpaceOnUse"><stop offset=".091" stop-color="#353139"/><stop offset=".371" stop-color="#614F70"/></linearGradient><linearGradient id="paint25_linear_18_10816" x1="1.902" x2="2.543" y1="21.436" y2="21.436" gradientUnits="userSpaceOnUse"><stop stop-color="#DABB4B"/><stop offset="1" stop-color="#DABB4B" stop-opacity="0"/></linearGradient><linearGradient id="paint27_linear_18_10816" x1="16.716" x2="16.716" y1="25.155" y2="21.56" gradientUnits="userSpaceOnUse"><stop stop-color="#62536D"/><stop offset="1" stop-color="#4D4257"/></linearGradient><linearGradient id="paint28_linear_18_10816" x1="6.701" x2="6.701" y1="25.155" y2="21.56" gradientUnits="userSpaceOnUse"><stop stop-color="#62536D"/><stop offset="1" stop-color="#4D4257"/></linearGradient><linearGradient id="paint29_linear_18_10816" x1="23.706" x2="23.706" y1="25.155" y2="21.56" gradientUnits="userSpaceOnUse"><stop stop-color="#62536D"/><stop offset="1" stop-color="#4D4257"/></linearGradient><linearGradient id="paint30_linear_18_10816" x1="5.886" x2="11.143" y1="24.62" y2="24.62" gradientUnits="userSpaceOnUse"><stop offset=".239" stop-color="#34214F"/><stop offset="1" stop-color="#241337"/></linearGradient><linearGradient id="paint32_linear_18_10816" x1="22.876" x2="28.133" y1="24.62" y2="24.62" gradientUnits="userSpaceOnUse"><stop offset=".239" stop-color="#34214F"/><stop offset="1" stop-color="#241337"/></linearGradient><linearGradient id="paint34_linear_18_10816" x1="15.886" x2="21.143" y1="24.62" y2="24.62" gradientUnits="userSpaceOnUse"><stop offset=".239" stop-color="#34214F"/><stop offset="1" stop-color="#241337"/></linearGradient><linearGradient id="paint36_linear_18_10816" x1="27.234" x2="22.757" y1="24.221" y2="27.148" gradientUnits="userSpaceOnUse"><stop offset=".083" stop-color="#615B6B"/><stop offset=".391" stop-color="#615B6B" stop-opacity="0"/><stop offset=".692" stop-color="#615B6B" stop-opacity="0"/><stop offset=".935" stop-color="#615B6B"/></linearGradient><linearGradient id="paint37_linear_18_10816" x1="20.12" x2="15.642" y1="24.221" y2="27.148" gradientUnits="userSpaceOnUse"><stop offset=".083" stop-color="#615B6B"/><stop offset=".391" stop-color="#615B6B" stop-opacity="0"/><stop offset=".692" stop-color="#615B6B" stop-opacity="0"/><stop offset=".935" stop-color="#615B6B"/></linearGradient><linearGradient id="paint38_linear_18_10816" x1="10.093" x2="5.616" y1="24.221" y2="27.148" gradientUnits="userSpaceOnUse"><stop offset=".083" stop-color="#615B6B"/><stop offset=".391" stop-color="#615B6B" stop-opacity="0"/><stop offset=".692" stop-color="#615B6B" stop-opacity="0"/><stop offset=".935" stop-color="#615B6B"/></linearGradient><linearGradient id="paint39_linear_18_10816" x1="11.234" x2="10.247" y1="8.655" y2="10.718" gradientUnits="userSpaceOnUse"><stop stop-color="#3A9475"/><stop offset="1" stop-color="#3A9475" stop-opacity="0"/></linearGradient><linearGradient id="paint41_linear_18_10816" x1="5.684" x2="6" y1="17.763" y2="17.763" gradientUnits="userSpaceOnUse"><stop stop-color="#281F4A" stop-opacity="0"/><stop offset="1" stop-color="#281F4A"/></linearGradient><filter id="filter0_ii_18_10816" width="7.1" height="3.847" x="5.5" y="8.386" color-interpolation-filters="sRGB" filterUnits="userSpaceOnUse"><feFlood flood-opacity="0" result="BackgroundImageFix"/><feBlend in="SourceGraphic" in2="BackgroundImageFix" result="shape"/><feColorMatrix in="SourceAlpha" result="hardAlpha" values="0 0 0 0 0 0 0 0 0 0 0 0 0 0 0 0 0 0 127 0"/><feOffset dx=".75"/><feGaussianBlur stdDeviation=".3"/><feComposite in2="hardAlpha" k2="-1" k3="1" operator="arithmetic"/><feColorMatrix values="0 0 0 0 0.207843 0 0 0 0 0.384314 0 0 0 0 0.294118 0 0 0 1 0"/><feBlend in2="shape" result="effect1_innerShadow_18_10816"/><feColorMatrix in="SourceAlpha" result="hardAlpha" values="0 0 0 0 0 0 0 0 0 0 0 0 0 0 0 0 0 0 127 0"/><feOffset dx="-.5"/><feGaussianBlur stdDeviation=".25"/><feComposite in2="hardAlpha" k2="-1" k3="1" operator="arithmetic"/><feColorMatrix values="0 0 0 0 0.207843 0 0 0 0 0.384314 0 0 0 0 0.294118 0 0 0 1 0"/><feBlend in2="effect1_innerShadow_18_10816" result="effect2_innerShadow_18_10816"/></filter><filter id="filter1_ii_18_10816" width="19" height="18" x="12" y="6" color-interpolation-filters="sRGB" filterUnits="userSpaceOnUse"><feFlood flood-opacity="0" result="BackgroundImageFix"/><feBlend in="SourceGraphic" in2="BackgroundImageFix" result="shape"/><feColorMatrix in="SourceAlpha" result="hardAlpha" values="0 0 0 0 0 0 0 0 0 0 0 0 0 0 0 0 0 0 127 0"/><feOffset dx="-1"/><feGaussianBlur stdDeviation=".5"/><feComposite in2="hardAlpha" k2="-1" k3="1" operator="arithmetic"/><feColorMatrix values="0 0 0 0 0.94902 0 0 0 0 0.945098 0 0 0 0 0.952941 0 0 0 1 0"/><feBlend in2="shape" result="effect1_innerShadow_18_10816"/><feColorMatrix in="SourceAlpha" result="hardAlpha" values="0 0 0 0 0 0 0 0 0 0 0 0 0 0 0 0 0 0 127 0"/><feOffset dx="1"/><feGaussianBlur stdDeviation=".5"/><feComposite in2="hardAlpha" k2="-1" k3="1" operator="arithmetic"/><feColorMatrix values="0 0 0 0 0.694118 0 0 0 0 0.701961 0 0 0 0 0.705882 0 0 0 1 0"/><feBlend in2="effect1_innerShadow_18_10816" result="effect2_innerShadow_18_10816"/></filter><filter id="filter2_ii_18_10816" width="11" height="12.5" x="1.5" y="12" color-interpolation-filters="sRGB" filterUnits="userSpaceOnUse"><feFlood flood-opacity="0" result="BackgroundImageFix"/><feBlend in="SourceGraphic" in2="BackgroundImageFix" result="shape"/><feColorMatrix in="SourceAlpha" result="hardAlpha" values="0 0 0 0 0 0 0 0 0 0 0 0 0 0 0 0 0 0 127 0"/><feOffset dx="-.5" dy=".5"/><feGaussianBlur stdDeviation=".375"/><feComposite in2="hardAlpha" k2="-1" k3="1" operator="arithmetic"/><feColorMatrix values="0 0 0 0 0.388235 0 0 0 0 0.988235 0 0 0 0 0.631373 0 0 0 1 0"/><feBlend in2="shape" result="effect1_innerShadow_18_10816"/><feColorMatrix in="SourceAlpha" result="hardAlpha" values="0 0 0 0 0 0 0 0 0 0 0 0 0 0 0 0 0 0 127 0"/><feOffset dx=".5"/><feGaussianBlur stdDeviation=".25"/><feComposite in2="hardAlpha" k2="-1" k3="1" operator="arithmetic"/><feColorMatrix values="0 0 0 0 0.184314 0 0 0 0 0.533333 0 0 0 0 0.309804 0 0 0 1 0"/><feBlend in2="effect1_innerShadow_18_10816" result="effect2_innerShadow_18_10816"/></filter><filter id="filter3_f_18_10816" width="2.623" height="3.701" x="3.391" y="15.8" color-interpolation-filters="sRGB" filterUnits="userSpaceOnUse"><feFlood flood-opacity="0" result="BackgroundImageFix"/><feBlend in="SourceGraphic" in2="BackgroundImageFix" result="shape"/><feGaussianBlur result="effect1_foregroundBlur_18_10816" stdDeviation=".15"/></filter><filter id="filter4_i_18_10816" width="5.17" height="5.26" x="1.83" y="12.99" color-interpolation-filters="sRGB" filterUnits="userSpaceOnUse"><feFlood flood-opacity="0" result="BackgroundImageFix"/><feBlend in="SourceGraphic" in2="BackgroundImageFix" result="shape"/><feColorMatrix in="SourceAlpha" result="hardAlpha" values="0 0 0 0 0 0 0 0 0 0 0 0 0 0 0 0 0 0 127 0"/><feOffset dx="-.25" dy=".25"/><feGaussianBlur stdDeviation=".125"/><feComposite in2="hardAlpha" k2="-1" k3="1" operator="arithmetic"/><feColorMatrix values="0 0 0 0 0.0627451 0 0 0 0 0.584314 0 0 0 0 0.901961 0 0 0 1 0"/><feBlend in2="shape" result="effect1_innerShadow_18_10816"/></filter><filter id="filter5_i_18_10816" width="3.75" height="5.5" x="7.25" y="13" color-interpolation-filters="sRGB" filterUnits="userSpaceOnUse"><feFlood flood-opacity="0" result="BackgroundImageFix"/><feBlend in="SourceGraphic" in2="BackgroundImageFix" result="shape"/><feColorMatrix in="SourceAlpha" result="hardAlpha" values="0 0 0 0 0 0 0 0 0 0 0 0 0 0 0 0 0 0 127 0"/><feOffset dx="-.75" dy=".5"/><feGaussianBlur stdDeviation=".5"/><feComposite in2="hardAlpha" k2="-1" k3="1" operator="arithmetic"/><feColorMatrix values="0 0 0 0 0.137255 0 0 0 0 0.556863 0 0 0 0 0.811765 0 0 0 1 0"/><feBlend in2="shape" result="effect1_innerShadow_18_10816"/></filter><filter id="filter6_i_18_10816" width="3.25" height="13.25" x="14.75" y="8" color-interpolation-filters="sRGB" filterUnits="userSpaceOnUse"><feFlood flood-opacity="0" result="BackgroundImageFix"/><feBlend in="SourceGraphic" in2="BackgroundImageFix" result="shape"/><feColorMatrix in="SourceAlpha" result="hardAlpha" values="0 0 0 0 0 0 0 0 0 0 0 0 0 0 0 0 0 0 127 0"/><feOffset dx="-.25" dy=".25"/><feGaussianBlur stdDeviation=".25"/><feComposite in2="hardAlpha" k2="-1" k3="1" operator="arithmetic"/><feColorMatrix values="0 0 0 0 0.729412 0 0 0 0 0.705882 0 0 0 0 0.74902 0 0 0 1 0"/><feBlend in2="shape" result="effect1_innerShadow_18_10816"/></filter><filter id="filter7_i_18_10816" width="3.25" height="13.25" x="19.75" y="8" color-interpolation-filters="sRGB" filterUnits="userSpaceOnUse"><feFlood flood-opacity="0" result="BackgroundImageFix"/><feBlend in="SourceGraphic" in2="BackgroundImageFix" result="shape"/><feColorMatrix in="SourceAlpha" result="hardAlpha" values="0 0 0 0 0 0 0 0 0 0 0 0 0 0 0 0 0 0 127 0"/><feOffset dx="-.25" dy=".25"/><feGaussianBlur stdDeviation=".25"/><feComposite in2="hardAlpha" k2="-1" k3="1" operator="arithmetic"/><feColorMatrix values="0 0 0 0 0.729412 0 0 0 0 0.705882 0 0 0 0 0.74902 0 0 0 1 0"/><feBlend in2="shape" result="effect1_innerShadow_18_10816"/></filter><filter id="filter8_i_18_10816" width="3.25" height="13.25" x="24.75" y="8" color-interpolation-filters="sRGB" filterUnits="userSpaceOnUse"><feFlood flood-opacity="0" result="BackgroundImageFix"/><feBlend in="SourceGraphic" in2="BackgroundImageFix" result="shape"/><feColorMatrix in="SourceAlpha" result="hardAlpha" values="0 0 0 0 0 0 0 0 0 0 0 0 0 0 0 0 0 0 127 0"/><feOffset dx="-.25" dy=".25"/><feGaussianBlur stdDeviation=".25"/><feComposite in2="hardAlpha" k2="-1" k3="1" operator="arithmetic"/><feColorMatrix values="0 0 0 0 0.729412 0 0 0 0 0.705882 0 0 0 0 0.74902 0 0 0 1 0"/><feBlend in2="shape" result="effect1_innerShadow_18_10816"/></filter><filter id="filter9_i_18_10816" width="10.5" height="2.25" x="2" y="23.75" color-interpolation-filters="sRGB" filterUnits="userSpaceOnUse"><feFlood flood-opacity="0" result="BackgroundImageFix"/><feBlend in="SourceGraphic" in2="BackgroundImageFix" result="shape"/><feColorMatrix in="SourceAlpha" result="hardAlpha" values="0 0 0 0 0 0 0 0 0 0 0 0 0 0 0 0 0 0 127 0"/><feOffset dx=".5" dy="-.25"/><feGaussianBlur stdDeviation=".325"/><feComposite in2="hardAlpha" k2="-1" k3="1" operator="arithmetic"/><feColorMatrix values="0 0 0 0 0.439216 0 0 0 0 0.423529 0 0 0 0 0.447059 0 0 0 1 0"/><feBlend in2="shape" result="effect1_innerShadow_18_10816"/></filter><filter id="filter10_i_18_10816" width="2.5" height="4.3" x="1.5" y="19" color-interpolation-filters="sRGB" filterUnits="userSpaceOnUse"><feFlood flood-opacity="0" result="BackgroundImageFix"/><feBlend in="SourceGraphic" in2="BackgroundImageFix" result="shape"/><feColorMatrix in="SourceAlpha" result="hardAlpha" values="0 0 0 0 0 0 0 0 0 0 0 0 0 0 0 0 0 0 127 0"/><feOffset dx="-.5" dy=".3"/><feGaussianBlur stdDeviation=".25"/><feComposite in2="hardAlpha" k2="-1" k3="1" operator="arithmetic"/><feColorMatrix values="0 0 0 0 0.729412 0 0 0 0 0.603922 0 0 0 0 0.215686 0 0 0 1 0"/><feBlend in2="shape" result="effect1_innerShadow_18_10816"/></filter><filter id="filter11_ii_18_10816" width="7" height="7.15" x="4" y="22" color-interpolation-filters="sRGB" filterUnits="userSpaceOnUse"><feFlood flood-opacity="0" result="BackgroundImageFix"/><feBlend in="SourceGraphic" in2="BackgroundImageFix" result="shape"/><feColorMatrix in="SourceAlpha" result="hardAlpha" values="0 0 0 0 0 0 0 0 0 0 0 0 0 0 0 0 0 0 127 0"/><feOffset/><feGaussianBlur stdDeviation=".5"/><feComposite in2="hardAlpha" k2="-1" k3="1" operator="arithmetic"/><feColorMatrix values="0 0 0 0 0.145098 0 0 0 0 0.0823529 0 0 0 0 0.215686 0 0 0 1 0"/><feBlend in2="shape" result="effect1_innerShadow_18_10816"/><feColorMatrix in="SourceAlpha" result="hardAlpha" values="0 0 0 0 0 0 0 0 0 0 0 0 0 0 0 0 0 0 127 0"/><feOffset dy=".15"/><feGaussianBlur stdDeviation=".125"/><feComposite in2="hardAlpha" k2="-1" k3="1" operator="arithmetic"/><feColorMatrix values="0 0 0 0 0.207843 0 0 0 0 0.0313726 0 0 0 0 0.235294 0 0 0 1 0"/><feBlend in2="effect1_innerShadow_18_10816" result="effect2_innerShadow_18_10816"/></filter><filter id="filter12_ii_18_10816" width="2.67" height="2.67" x="6.165" y="24.165" color-interpolation-filters="sRGB" filterUnits="userSpaceOnUse"><feFlood flood-opacity="0" result="BackgroundImageFix"/><feBlend in="SourceGraphic" in2="BackgroundImageFix" result="shape"/><feColorMatrix in="SourceAlpha" result="hardAlpha" values="0 0 0 0 0 0 0 0 0 0 0 0 0 0 0 0 0 0 127 0"/><feOffset dx=".05" dy="-.05"/><feGaussianBlur stdDeviation=".05"/><feComposite in2="hardAlpha" k2="-1" k3="1" operator="arithmetic"/><feColorMatrix values="0 0 0 0 0.478431 0 0 0 0 0.364706 0 0 0 0 0.584314 0 0 0 1 0"/><feBlend in2="shape" result="effect1_innerShadow_18_10816"/><feColorMatrix in="SourceAlpha" result="hardAlpha" values="0 0 0 0 0 0 0 0 0 0 0 0 0 0 0 0 0 0 127 0"/><feOffset dx="-.05" dy=".05"/><feGaussianBlur stdDeviation=".05"/><feComposite in2="hardAlpha" k2="-1" k3="1" operator="arithmetic"/><feColorMatrix values="0 0 0 0 0.807843 0 0 0 0 0.764706 0 0 0 0 0.858824 0 0 0 1 0"/><feBlend in2="effect1_innerShadow_18_10816" result="effect2_innerShadow_18_10816"/></filter><filter id="filter13_ii_18_10816" width="7" height="7.15" x="20.99" y="22" color-interpolation-filters="sRGB" filterUnits="userSpaceOnUse"><feFlood flood-opacity="0" result="BackgroundImageFix"/><feBlend in="SourceGraphic" in2="BackgroundImageFix" result="shape"/><feColorMatrix in="SourceAlpha" result="hardAlpha" values="0 0 0 0 0 0 0 0 0 0 0 0 0 0 0 0 0 0 127 0"/><feOffset/><feGaussianBlur stdDeviation=".5"/><feComposite in2="hardAlpha" k2="-1" k3="1" operator="arithmetic"/><feColorMatrix values="0 0 0 0 0.145098 0 0 0 0 0.0823529 0 0 0 0 0.215686 0 0 0 1 0"/><feBlend in2="shape" result="effect1_innerShadow_18_10816"/><feColorMatrix in="SourceAlpha" result="hardAlpha" values="0 0 0 0 0 0 0 0 0 0 0 0 0 0 0 0 0 0 127 0"/><feOffset dy=".15"/><feGaussianBlur stdDeviation=".125"/><feComposite in2="hardAlpha" k2="-1" k3="1" operator="arithmetic"/><feColorMatrix values="0 0 0 0 0.207843 0 0 0 0 0.0313726 0 0 0 0 0.235294 0 0 0 1 0"/><feBlend in2="effect1_innerShadow_18_10816" result="effect2_innerShadow_18_10816"/></filter><filter id="filter14_ii_18_10816" width="7" height="7.15" x="14" y="22" color-interpolation-filters="sRGB" filterUnits="userSpaceOnUse"><feFlood flood-opacity="0" result="BackgroundImageFix"/><feBlend in="SourceGraphic" in2="BackgroundImageFix" result="shape"/><feColorMatrix in="SourceAlpha" result="hardAlpha" values="0 0 0 0 0 0 0 0 0 0 0 0 0 0 0 0 0 0 127 0"/><feOffset/><feGaussianBlur stdDeviation=".5"/><feComposite in2="hardAlpha" k2="-1" k3="1" operator="arithmetic"/><feColorMatrix values="0 0 0 0 0.145098 0 0 0 0 0.0823529 0 0 0 0 0.215686 0 0 0 1 0"/><feBlend in2="shape" result="effect1_innerShadow_18_10816"/><feColorMatrix in="SourceAlpha" result="hardAlpha" values="0 0 0 0 0 0 0 0 0 0 0 0 0 0 0 0 0 0 127 0"/><feOffset dy=".15"/><feGaussianBlur stdDeviation=".125"/><feComposite in2="hardAlpha" k2="-1" k3="1" operator="arithmetic"/><feColorMatrix values="0 0 0 0 0.207843 0 0 0 0 0.0313726 0 0 0 0 0.235294 0 0 0 1 0"/><feBlend in2="effect1_innerShadow_18_10816" result="effect2_innerShadow_18_10816"/></filter><filter id="filter15_ii_18_10816" width="2.67" height="2.67" x="16.165" y="24.165" color-interpolation-filters="sRGB" filterUnits="userSpaceOnUse"><feFlood flood-opacity="0" result="BackgroundImageFix"/><feBlend in="SourceGraphic" in2="BackgroundImageFix" result="shape"/><feColorMatrix in="SourceAlpha" result="hardAlpha" values="0 0 0 0 0 0 0 0 0 0 0 0 0 0 0 0 0 0 127 0"/><feOffset dx=".05" dy="-.05"/><feGaussianBlur stdDeviation=".05"/><feComposite in2="hardAlpha" k2="-1" k3="1" operator="arithmetic"/><feColorMatrix values="0 0 0 0 0.478431 0 0 0 0 0.364706 0 0 0 0 0.584314 0 0 0 1 0"/><feBlend in2="shape" result="effect1_innerShadow_18_10816"/><feColorMatrix in="SourceAlpha" result="hardAlpha" values="0 0 0 0 0 0 0 0 0 0 0 0 0 0 0 0 0 0 127 0"/><feOffset dx="-.05" dy=".05"/><feGaussianBlur stdDeviation=".05"/><feComposite in2="hardAlpha" k2="-1" k3="1" operator="arithmetic"/><feColorMatrix values="0 0 0 0 0.807843 0 0 0 0 0.764706 0 0 0 0 0.858824 0 0 0 1 0"/><feBlend in2="effect1_innerShadow_18_10816" result="effect2_innerShadow_18_10816"/></filter><filter id="filter16_ii_18_10816" width="2.67" height="2.67" x="23.155" y="24.165" color-interpolation-filters="sRGB" filterUnits="userSpaceOnUse"><feFlood flood-opacity="0" result="BackgroundImageFix"/><feBlend in="SourceGraphic" in2="BackgroundImageFix" result="shape"/><feColorMatrix in="SourceAlpha" result="hardAlpha" values="0 0 0 0 0 0 0 0 0 0 0 0 0 0 0 0 0 0 127 0"/><feOffset dx=".05" dy="-.05"/><feGaussianBlur stdDeviation=".05"/><feComposite in2="hardAlpha" k2="-1" k3="1" operator="arithmetic"/><feColorMatrix values="0 0 0 0 0.478431 0 0 0 0 0.364706 0 0 0 0 0.584314 0 0 0 1 0"/><feBlend in2="shape" result="effect1_innerShadow_18_10816"/><feColorMatrix in="SourceAlpha" result="hardAlpha" values="0 0 0 0 0 0 0 0 0 0 0 0 0 0 0 0 0 0 127 0"/><feOffset dx="-.05" dy=".05"/><feGaussianBlur stdDeviation=".05"/><feComposite in2="hardAlpha" k2="-1" k3="1" operator="arithmetic"/><feColorMatrix values="0 0 0 0 0.807843 0 0 0 0 0.764706 0 0 0 0 0.858824 0 0 0 1 0"/><feBlend in2="effect1_innerShadow_18_10816" result="effect2_innerShadow_18_10816"/></filter><filter id="filter17_f_18_10816" width="7.297" height="7.298" x="20.992" y="21.569" color-interpolation-filters="sRGB" filterUnits="userSpaceOnUse"><feFlood flood-opacity="0" result="BackgroundImageFix"/><feBlend in="SourceGraphic" in2="BackgroundImageFix" result="shape"/><feGaussianBlur result="effect1_foregroundBlur_18_10816" stdDeviation=".375"/></filter><filter id="filter18_f_18_10816" width="7.297" height="7.298" x="13.877" y="21.569" color-interpolation-filters="sRGB" filterUnits="userSpaceOnUse"><feFlood flood-opacity="0" result="BackgroundImageFix"/><feBlend in="SourceGraphic" in2="BackgroundImageFix" result="shape"/><feGaussianBlur result="effect1_foregroundBlur_18_10816" stdDeviation=".375"/></filter><filter id="filter19_f_18_10816" width="7.297" height="7.298" x="3.851" y="21.569" color-interpolation-filters="sRGB" filterUnits="userSpaceOnUse"><feFlood flood-opacity="0" result="BackgroundImageFix"/><feBlend in="SourceGraphic" in2="BackgroundImageFix" result="shape"/><feGaussianBlur result="effect1_foregroundBlur_18_10816" stdDeviation=".375"/></filter><filter id="filter20_f_18_10816" width="4.734" height="4.113" x="7.25" y="8.339" color-interpolation-filters="sRGB" filterUnits="userSpaceOnUse"><feFlood flood-opacity="0" result="BackgroundImageFix"/><feBlend in="SourceGraphic" in2="BackgroundImageFix" result="shape"/><feGaussianBlur result="effect1_foregroundBlur_18_10816" stdDeviation=".25"/></filter><radialGradient id="paint26_radial_18_10816" cx="0" cy="0" r="1" gradientTransform="matrix(2.09375 -.46787 .6697 2.997 28.31 22.968)" gradientUnits="userSpaceOnUse"><stop stop-color="#DB2979"/><stop offset="1" stop-color="#BE0564"/></radialGradient><radialGradient id="paint31_radial_18_10816" cx="0" cy="0" r="1" gradientTransform="matrix(.79083 -1.73826 1.81555 .826 7.5 25.187)" gradientUnits="userSpaceOnUse"><stop offset=".523" stop-color="#2D114D"/><stop offset="1" stop-color="#2B1249" stop-opacity="0"/></radialGradient><radialGradient id="paint33_radial_18_10816" cx="0" cy="0" r="1" gradientTransform="matrix(.79083 -1.73826 1.81555 .826 24.49 25.187)" gradientUnits="userSpaceOnUse"><stop offset=".523" stop-color="#2D114D"/><stop offset="1" stop-color="#2B1249" stop-opacity="0"/></radialGradient><radialGradient id="paint35_radial_18_10816" cx="0" cy="0" r="1" gradientTransform="matrix(.79083 -1.73826 1.81555 .826 17.5 25.187)" gradientUnits="userSpaceOnUse"><stop offset=".523" stop-color="#2D114D"/><stop offset="1" stop-color="#2B1249" stop-opacity="0"/></radialGradient><radialGradient id="paint40_radial_18_10816" cx="0" cy="0" r="1" gradientTransform="matrix(-1.37255 0 0 -3.84933 5.666 17.145)" gradientUnits="userSpaceOnUse"><stop stop-color="#55505E"/><stop offset=".368" stop-color="#2F1C44"/></radialGradient></defs></svg>