<svg xmlns="http://www.w3.org/2000/svg" width="32" height="32" fill="none" viewBox="0 0 32 32"><path fill="url(#a)" d="M7.283 14.94 13.9 3.322a2.466 2.466 0 0 1 4.292.011l6.738 11.97h-.011a10.02 10.02 0 0 1 1.143 4.665c0 5.557-4.505 10.062-10.062 10.062-5.557 0-10.063-4.505-10.063-10.062 0-1.742.443-3.38 1.221-4.808h-.002l.063-.11.064-.112Z"/><path fill="url(#b)" d="M7.283 14.94 13.9 3.322a2.466 2.466 0 0 1 4.292.011l6.738 11.97h-.011a10.02 10.02 0 0 1 1.143 4.665c0 5.557-4.505 10.062-10.062 10.062-5.557 0-10.063-4.505-10.063-10.062 0-1.742.443-3.38 1.221-4.808h-.002l.063-.11.064-.112Z"/><path fill="url(#c)" d="M7.283 14.94 13.9 3.322a2.466 2.466 0 0 1 4.292.011l6.738 11.97h-.011a10.02 10.02 0 0 1 1.143 4.665c0 5.557-4.505 10.062-10.062 10.062-5.557 0-10.063-4.505-10.063-10.062 0-1.742.443-3.38 1.221-4.808h-.002l.063-.11.064-.112Z"/><path fill="url(#d)" d="M7.283 14.94 13.9 3.322a2.466 2.466 0 0 1 4.292.011l6.738 11.97h-.011a10.02 10.02 0 0 1 1.143 4.665c0 5.557-4.505 10.062-10.062 10.062-5.557 0-10.063-4.505-10.063-10.062 0-1.742.443-3.38 1.221-4.808h-.002l.063-.11.064-.112Z"/><path fill="url(#e)" d="M7.283 14.94 13.9 3.322a2.466 2.466 0 0 1 4.292.011l6.738 11.97h-.011a10.02 10.02 0 0 1 1.143 4.665c0 5.557-4.505 10.062-10.062 10.062-5.557 0-10.063-4.505-10.063-10.062 0-1.742.443-3.38 1.221-4.808h-.002l.063-.11.064-.112Z"/><defs><radialGradient id="b" cx="0" cy="0" r="1" gradientTransform="matrix(0 17.2646 -15.1956 0 16 12.767)" gradientUnits="userSpaceOnUse"><stop offset=".901" stop-color="#FF5AB2" stop-opacity="0"/><stop offset="1" stop-color="#FF5AB2"/></radialGradient><radialGradient id="c" cx="0" cy="0" r="1" gradientTransform="matrix(-8.28031 6.06516 -3.80655 -5.1968 23.378 18.199)" gradientUnits="userSpaceOnUse"><stop stop-color="#FF6B8D"/><stop offset="1" stop-color="#FF6B8D" stop-opacity="0"/></radialGradient><radialGradient id="d" cx="0" cy="0" r="1" gradientTransform="matrix(7.17264 13.44897 -6.63395 3.53803 20.266 3.96)" gradientUnits="userSpaceOnUse"><stop stop-color="#FF60AB"/><stop offset="1" stop-color="#FF60AB" stop-opacity="0"/></radialGradient><linearGradient id="a" x1="16" x2="16" y1="8.75" y2="29.25" gradientUnits="userSpaceOnUse"><stop stop-color="#FF2A85"/><stop offset="1" stop-color="#FF1F5D"/></linearGradient><linearGradient id="e" x1="9.313" x2="16" y1="10.75" y2="13" gradientUnits="userSpaceOnUse"><stop offset=".032" stop-color="#AF4963"/><stop offset="1" stop-color="#E5254F" stop-opacity="0"/></linearGradient></defs></svg>