<svg xmlns="http://www.w3.org/2000/svg" width="32" height="32" fill="none" viewBox="0 0 32 32"><path fill="url(#paint0_linear_4002_2945)" d="M9.605 11.855h.836v1.082h-.836z"/><path fill="url(#paint1_linear_4002_2945)" d="M21.33 11.855h.836v1.082h-.836z"/><path fill="url(#paint2_radial_4002_2945)" d="M16.021 19.32c-.78 0-1.55.08-2.3.23v10.38h4.58V19.55c-.74-.15-1.5-.23-2.28-.23Z"/><path fill="url(#paint3_radial_4002_2945)" d="M16.021 19.32c-.78 0-1.55.08-2.3.23v10.38h4.58V19.55c-.74-.15-1.5-.23-2.28-.23Z"/><path fill="url(#paint4_radial_4002_2945)" d="M13.721 19.198c-.608.134-1.196.31-1.763.537V29.93h1.763V19.198Z"/><path fill="url(#paint5_radial_4002_2945)" d="M13.721 19.198c-.608.134-1.196.31-1.763.537V29.93h1.763V19.198Z"/><path fill="url(#paint6_radial_4002_2945)" d="M13.721 19.198c-.608.134-1.196.31-1.763.537V29.93h1.763V19.198Z"/><path fill="url(#paint7_radial_4002_2945)" d="M18.279 19.198c.608.134 1.195.31 1.763.537V29.93H18.28V19.198Z"/><path fill="url(#paint8_radial_4002_2945)" d="M18.279 19.198c.608.134 1.195.31 1.763.537V29.93H18.28V19.198Z"/><path fill="url(#paint9_linear_4002_2945)" d="M8.389 22.017a.149.149 0 0 0-.048.11v7.802h1.634v-9.16c-.56.37-1.092.79-1.586 1.248Z"/><path fill="url(#paint10_radial_4002_2945)" d="M8.389 22.017a.149.149 0 0 0-.048.11v7.802h1.634v-9.16c-.56.37-1.092.79-1.586 1.248Z"/><path fill="url(#paint11_radial_4002_2945)" d="M8.389 22.017a.149.149 0 0 0-.048.11v7.802h1.634v-9.16c-.56.37-1.092.79-1.586 1.248Z"/><path fill="url(#paint12_radial_4002_2945)" d="M23.659 22.061v7.868h-1.634v-9.16c.578.383 1.126.817 1.634 1.292Z"/><path fill="url(#paint13_radial_4002_2945)" d="M23.659 22.061v7.868h-1.634v-9.16c.578.383 1.126.817 1.634 1.292Z"/><path fill="#FFCA44" d="M9.975 20.77v9.16h1.983V19.735c-.698.28-1.355.62-1.983 1.034Z"/><path fill="url(#paint14_radial_4002_2945)" d="M9.975 20.77v9.16h1.983V19.735c-.698.28-1.355.62-1.983 1.034Z"/><path fill="url(#paint15_linear_4002_2945)" d="M22.025 20.77v9.16h-1.983V19.735c.698.28 1.355.62 1.983 1.034Z"/><path fill="url(#paint16_radial_4002_2945)" d="M22.025 20.77v9.16h-1.983V19.735c.698.28 1.355.62 1.983 1.034Z"/><path fill="url(#paint17_radial_4002_2945)" d="M4.601 29.93c.14-.947.34-1.882.62-2.787a11.56 11.56 0 0 1 3.12-5.018v7.804h-3.74Z"/><path fill="url(#paint18_linear_4002_2945)" d="M4.601 29.93c.14-.947.34-1.882.62-2.787a11.56 11.56 0 0 1 3.12-5.018v7.804h-3.74Z"/><path fill="url(#paint19_radial_4002_2945)" d="M27.399 29.93c-.14-.947-.34-1.882-.62-2.787a11.56 11.56 0 0 0-3.12-5.018v7.804h3.74Z"/><path fill="url(#paint20_radial_4002_2945)" d="M27.399 29.93c-.14-.947-.34-1.882-.62-2.787a11.56 11.56 0 0 0-3.12-5.018v7.804h3.74Z"/><path fill="url(#paint21_radial_4002_2945)" d="M13.81 20.406c.06.76.585 2.282 2.211 2.282s2.151-1.521 2.211-2.282H13.81Z"/><path fill="url(#paint22_radial_4002_2945)" d="M13.81 20.406c.06.76.585 2.282 2.211 2.282s2.151-1.521 2.211-2.282H13.81Z"/><path fill="url(#paint23_radial_4002_2945)" d="M13.81 20.406c.06.76.585 2.282 2.211 2.282s2.151-1.521 2.211-2.282H13.81Z"/><path fill="url(#paint24_radial_4002_2945)" d="M21.177 15.516c.363-.011.703-.134.979-.333v1.007a2.35 2.35 0 0 1-1.45 2.184c.184-.392.31-.82.373-1.277l.098-1.58Z"/><path fill="url(#paint25_radial_4002_2945)" d="M21.177 15.516c.363-.011.703-.134.979-.333v1.007a2.35 2.35 0 0 1-1.45 2.184c.184-.392.31-.82.373-1.277l.098-1.58Z"/><path fill="url(#paint26_radial_4002_2945)" d="M10.66 15.516a1.774 1.774 0 0 1-.98-.333v1.007a2.35 2.35 0 0 0 1.451 2.184 4.422 4.422 0 0 1-.374-1.277l-.098-1.58Z"/><path fill="url(#paint27_radial_4002_2945)" d="M10.66 15.516a1.774 1.774 0 0 1-.98-.333v1.007a2.35 2.35 0 0 0 1.451 2.184 4.422 4.422 0 0 1-.374-1.277l-.098-1.58Z"/><g filter="url(#filter0_ii_4002_2945)"><path fill="url(#paint28_radial_4002_2945)" d="M10.699 17.155a4.236 4.236 0 0 0 4.203 3.685h2.041a4.236 4.236 0 0 0 4.204-3.685c.127-2.037.256-4.067.35-6.104a1.568 1.568 0 0 0-1.491-1.549H18.49a2.62 2.62 0 0 1-2.393-1.56.718.718 0 0 0-.665-.453h-1.377c-1.997 0-3.615 1.636-3.615 3.655 0 2.013.126 3.993.258 6.011Z"/></g><path fill="url(#paint29_radial_4002_2945)" d="M10.699 17.155a4.236 4.236 0 0 0 4.203 3.685h2.041a4.236 4.236 0 0 0 4.204-3.685c.127-2.037.256-4.067.35-6.104a1.568 1.568 0 0 0-1.491-1.549H18.49a2.62 2.62 0 0 1-2.393-1.56.718.718 0 0 0-.665-.453h-1.377c-1.997 0-3.615 1.636-3.615 3.655 0 2.013.126 3.993.258 6.011Z"/><path fill="url(#paint30_radial_4002_2945)" d="M10.699 17.155a4.236 4.236 0 0 0 4.203 3.685h2.041a4.236 4.236 0 0 0 4.204-3.685c.127-2.037.256-4.067.35-6.104a1.568 1.568 0 0 0-1.491-1.549H18.49a2.62 2.62 0 0 1-2.393-1.56.718.718 0 0 0-.665-.453h-1.377c-1.997 0-3.615 1.636-3.615 3.655 0 2.013.126 3.993.258 6.011Z"/><path fill="url(#paint31_radial_4002_2945)" d="M10.699 17.155a4.236 4.236 0 0 0 4.203 3.685h2.041a4.236 4.236 0 0 0 4.204-3.685c.127-2.037.256-4.067.35-6.104a1.568 1.568 0 0 0-1.491-1.549H18.49a2.62 2.62 0 0 1-2.393-1.56.718.718 0 0 0-.665-.453h-1.377c-1.997 0-3.615 1.636-3.615 3.655 0 2.013.126 3.993.258 6.011Z"/><path fill="url(#paint32_radial_4002_2945)" d="M10.699 17.155a4.236 4.236 0 0 0 4.203 3.685h2.041a4.236 4.236 0 0 0 4.204-3.685c.127-2.037.256-4.067.35-6.104a1.568 1.568 0 0 0-1.491-1.549H18.49a2.62 2.62 0 0 1-2.393-1.56.718.718 0 0 0-.665-.453h-1.377c-1.997 0-3.615 1.636-3.615 3.655 0 2.013.126 3.993.258 6.011Z"/><path fill="url(#paint33_radial_4002_2945)" d="M10.699 17.155a4.236 4.236 0 0 0 4.203 3.685h2.041a4.236 4.236 0 0 0 4.204-3.685c.127-2.037.256-4.067.35-6.104a1.568 1.568 0 0 0-1.491-1.549H18.49a2.62 2.62 0 0 1-2.393-1.56.718.718 0 0 0-.665-.453h-1.377c-1.997 0-3.615 1.636-3.615 3.655 0 2.013.126 3.993.258 6.011Z"/><path fill="url(#paint34_radial_4002_2945)" d="M10.699 17.155a4.236 4.236 0 0 0 4.203 3.685h2.041a4.236 4.236 0 0 0 4.204-3.685c.127-2.037.256-4.067.35-6.104a1.568 1.568 0 0 0-1.491-1.549H18.49a2.62 2.62 0 0 1-2.393-1.56.718.718 0 0 0-.665-.453h-1.377c-1.997 0-3.615 1.636-3.615 3.655 0 2.013.126 3.993.258 6.011Z"/><g filter="url(#filter1_f_4002_2945)"><path fill="#EE9020" d="m15.393 13.603-.687 1.989c-.118.409.164.818.563.818h.85c.4 0 .681-.416.564-.818l-.575-1.99c-.123-.44-.586-.44-.715 0Z"/></g><g filter="url(#filter2_f_4002_2945)"><path fill="#FFB120" d="m15.505 13.39-.575 1.99c-.117.409.164.818.563.818h.85c.4 0 .681-.416.564-.818l-.575-1.99c-.123-.44-.698-.44-.827 0Z"/><path fill="url(#paint35_linear_4002_2945)" d="m15.505 13.39-.575 1.99c-.117.409.164.818.563.818h.85c.4 0 .681-.416.564-.818l-.575-1.99c-.123-.44-.698-.44-.827 0Z"/><path fill="url(#paint36_radial_4002_2945)" d="m15.505 13.39-.575 1.99c-.117.409.164.818.563.818h.85c.4 0 .681-.416.564-.818l-.575-1.99c-.123-.44-.698-.44-.827 0Z"/><path fill="url(#paint37_linear_4002_2945)" d="m15.505 13.39-.575 1.99c-.117.409.164.818.563.818h.85c.4 0 .681-.416.564-.818l-.575-1.99c-.123-.44-.698-.44-.827 0Z"/></g><g filter="url(#filter3_f_4002_2945)"><path fill="url(#paint38_linear_4002_2945)" d="m15.505 13.2-.575 1.988c-.117.409.164.818.563.818h.85c.4 0 .681-.415.564-.818l-.575-1.989c-.123-.44-.698-.44-.827 0Z"/></g><g filter="url(#filter4_f_4002_2945)"><path stroke="url(#paint39_radial_4002_2945)" stroke-width=".15" d="M14.454 16.876c.423.22.927.347 1.464.347a3.16 3.16 0 0 0 1.464-.347h.001a.24.24 0 0 1 .286.047c.068.07.093.184.025.287m-3.24-.334 3.177.293m-3.177-.293a.24.24 0 0 0-.286.05.223.223 0 0 0-.025.285m.311-.335-.248.293m3.488.041-.063-.041m.063.041-.063-.041m.063.041c-.376.57-1.03.949-1.776.949-.744 0-1.399-.38-1.775-.948m3.488-.042a2.048 2.048 0 0 1-1.713.915c-.719 0-1.35-.366-1.712-.915m-.063.042.063-.042m-.063.042v-.001l.063-.041"/></g><path fill="url(#paint40_radial_4002_2945)" d="M15.918 17.298a3.25 3.25 0 0 1-1.498-.355c-.149-.076-.308.091-.214.226.362.549.993.915 1.712.915.72 0 1.35-.366 1.713-.915.093-.14-.066-.302-.214-.227a3.234 3.234 0 0 1-1.499.356Z"/><path fill="#fff" d="M18.505 12.363c.707 0 1.303.487 1.466 1.145a.297.297 0 0 1-.29.369h-2.413a.249.249 0 0 1-.246-.294 1.512 1.512 0 0 1 1.483-1.22Z"/><path fill="url(#paint41_radial_4002_2945)" d="M18.281 12.657a.966.966 0 0 1 .93 1.22h-1.865a.97.97 0 0 1 .935-1.22Z"/><path fill="#000" d="M17.728 13.622a.55.55 0 0 1 .553-.553.55.55 0 0 1 .492.808h-.979a.5.5 0 0 1-.066-.255Z"/><g filter="url(#filter5_f_4002_2945)"><path fill="#C7A7A3" d="M18.212 12.86c.069.093-.075.205-.24.328-.163.122-.285.208-.354.116-.069-.092.008-.266.172-.389.164-.122.353-.147.422-.054Z"/><path fill="url(#paint42_radial_4002_2945)" d="M18.212 12.86c.069.093-.075.205-.24.328-.163.122-.285.208-.354.116-.069-.092.008-.266.172-.389.164-.122.353-.147.422-.054Z"/></g><g filter="url(#filter6_f_4002_2945)"><path fill="url(#paint43_linear_4002_2945)" d="M19.142 13.496a.912.912 0 0 0-.25-.501l-.282.309.127.247.405-.055Z"/></g><path fill="#fff" d="M13.332 12.363a1.51 1.51 0 0 0-1.466 1.145.297.297 0 0 0 .29.369h2.413c.154 0 .277-.14.246-.294a1.516 1.516 0 0 0-1.483-1.22Z"/><path fill="url(#paint44_radial_4002_2945)" d="M13.556 12.657a.966.966 0 0 0-.93 1.22h1.865a.987.987 0 0 0 .035-.255.972.972 0 0 0-.97-.965Z"/><path fill="#000" d="M14.108 13.622a.55.55 0 0 0-.552-.553.55.55 0 0 0-.492.808h.979a.548.548 0 0 0 .066-.255Z"/><g filter="url(#filter7_f_4002_2945)"><path fill="url(#paint45_linear_4002_2945)" d="M14.44 13.51c0-.312-.255-.52-.324-.584l-.312.303.192.391.443-.11Z"/></g><g filter="url(#filter8_f_4002_2945)" transform="rotate(-27.914 13.265 13.07)"><ellipse cx="13.265" cy="13.069" fill="#C7A7A3" fill-opacity=".9" rx=".422" ry=".214"/><ellipse cx="13.265" cy="13.069" fill="url(#paint46_radial_4002_2945)" rx=".422" ry=".214"/></g><path fill="url(#paint47_linear_4002_2945)" d="M21.243 15.615c.07-1.151.14-2.301.2-3.452a1.741 1.741 0 0 1-.2 3.452Z"/><path fill="url(#paint48_radial_4002_2945)" d="M21.243 15.615c.07-1.151.14-2.301.2-3.452a1.741 1.741 0 0 1-.2 3.452Z"/><path fill="url(#paint49_radial_4002_2945)" d="M21.243 15.615c.07-1.151.14-2.301.2-3.452a1.741 1.741 0 0 1-.2 3.452Z"/><path fill="url(#paint50_linear_4002_2945)" d="M10.451 12.153a1.741 1.741 0 0 0 .15 3.462 84.316 84.316 0 0 1-.15-3.462Z"/><path fill="url(#paint51_radial_4002_2945)" d="M10.451 12.153a1.741 1.741 0 0 0 .15 3.462 84.316 84.316 0 0 1-.15-3.462Z"/><g filter="url(#filter9_f_4002_2945)"><path fill="#E08126" d="M10.47 12.869a1.034 1.034 0 0 0 .09 2.033 84.234 84.234 0 0 1-.09-2.033Z"/></g><g filter="url(#filter10_f_4002_2945)"><path fill="#FFC837" d="M21.286 14.91c.042-.686.082-1.372.12-2.058a1.034 1.034 0 0 1-.12 2.059Z"/></g><g filter="url(#filter11_f_4002_2945)"><ellipse cx="19.299" cy="10.856" fill="#FFF060" rx="3.435" ry=".358"/></g><path fill="url(#paint52_radial_4002_2945)" d="M9.771 7.178a4.1 4.1 0 0 1 4.1-4.1h3.988a4.1 4.1 0 0 1 4.1 4.1V9.86H9.77V7.18Z"/><path fill="url(#paint53_radial_4002_2945)" d="M9.771 7.178a4.1 4.1 0 0 1 4.1-4.1h3.988a4.1 4.1 0 0 1 4.1 4.1V9.86H9.77V7.18Z"/><path fill="url(#paint54_radial_4002_2945)" d="M9.771 7.178a4.1 4.1 0 0 1 4.1-4.1h3.988a4.1 4.1 0 0 1 4.1 4.1V9.86H9.77V7.18Z"/><path fill="url(#paint55_radial_4002_2945)" d="M9.771 7.178a4.1 4.1 0 0 1 4.1-4.1h3.988a4.1 4.1 0 0 1 4.1 4.1V9.86H9.77V7.18Z"/><path fill="url(#paint56_radial_4002_2945)" d="M9.771 7.178a4.1 4.1 0 0 1 4.1-4.1h3.988a4.1 4.1 0 0 1 4.1 4.1V9.86H9.77V7.18Z"/><path fill="url(#paint57_radial_4002_2945)" d="M9.771 7.178a4.1 4.1 0 0 1 4.1-4.1h3.988a4.1 4.1 0 0 1 4.1 4.1V9.86H9.77V7.18Z"/><path fill="url(#paint58_linear_4002_2945)" d="M9.771 7.178a4.1 4.1 0 0 1 4.1-4.1h3.988a4.1 4.1 0 0 1 4.1 4.1V9.86H9.77V7.18Z"/><path fill="url(#paint59_radial_4002_2945)" d="M9.771 7.178a4.1 4.1 0 0 1 4.1-4.1h3.988a4.1 4.1 0 0 1 4.1 4.1V9.86H9.77V7.18Z"/><g filter="url(#filter12_ii_4002_2945)"><path fill="url(#paint60_linear_4002_2945)" d="M14.615 2.07h2.39c.829 0 1.5.603 1.5 1.633v6.795h-5.39V3.703c0-1.03.671-1.633 1.5-1.633Z"/><path fill="url(#paint61_linear_4002_2945)" d="M14.615 2.07h2.39c.829 0 1.5.603 1.5 1.633v6.795h-5.39V3.703c0-1.03.671-1.633 1.5-1.633Z"/><path fill="url(#paint62_radial_4002_2945)" d="M14.615 2.07h2.39c.829 0 1.5.603 1.5 1.633v6.795h-5.39V3.703c0-1.03.671-1.633 1.5-1.633Z"/><path fill="url(#paint63_radial_4002_2945)" d="M14.615 2.07h2.39c.829 0 1.5.603 1.5 1.633v6.795h-5.39V3.703c0-1.03.671-1.633 1.5-1.633Z"/></g><path fill="url(#paint64_linear_4002_2945)" d="M22.266 9.842H9.672a1.153 1.153 0 1 0 0 2.306h12.594c.642 0 1.153-.52 1.153-1.153a1.147 1.147 0 0 0-1.153-1.153Z"/><path fill="url(#paint65_linear_4002_2945)" d="M22.266 9.842H9.672a1.153 1.153 0 1 0 0 2.306h12.594c.642 0 1.153-.52 1.153-1.153a1.147 1.147 0 0 0-1.153-1.153Z"/><path fill="url(#paint66_linear_4002_2945)" d="M22.266 9.842H9.672a1.153 1.153 0 1 0 0 2.306h12.594c.642 0 1.153-.52 1.153-1.153a1.147 1.147 0 0 0-1.153-1.153Z"/><path fill="url(#paint67_radial_4002_2945)" d="M22.266 9.842H9.672a1.153 1.153 0 1 0 0 2.306h12.594c.642 0 1.153-.52 1.153-1.153a1.147 1.147 0 0 0-1.153-1.153Z"/><g filter="url(#filter13_f_4002_2945)"><ellipse cx="19.329" cy="10.856" fill="#FFF060" rx="2.827" ry=".264"/></g><defs><radialGradient id="paint2_radial_4002_2945" cx="0" cy="0" r="1" gradientTransform="matrix(0 -9.625 6.57257 0 16.011 29.734)" gradientUnits="userSpaceOnUse"><stop stop-color="#FF804B"/><stop offset="1" stop-color="#FF8B3C"/></radialGradient><radialGradient id="paint3_radial_4002_2945" cx="0" cy="0" r="1" gradientTransform="matrix(-1.28125 0 0 -12.5036 18.677 26.172)" gradientUnits="userSpaceOnUse"><stop stop-color="#FF8E3D"/><stop offset="1" stop-color="#FF8E3D" stop-opacity="0"/></radialGradient><radialGradient id="paint4_radial_4002_2945" cx="0" cy="0" r="1" gradientTransform="matrix(0 5.91396 -1.61702 0 13.721 24.564)" gradientUnits="userSpaceOnUse"><stop stop-color="#FF7446"/><stop offset="1" stop-color="#FF6F4E"/></radialGradient><radialGradient id="paint5_radial_4002_2945" cx="0" cy="0" r="1" gradientTransform="matrix(0 4.55816 -.70149 0 13.721 26.231)" gradientUnits="userSpaceOnUse"><stop offset=".35" stop-color="#FF7E58"/><stop offset="1" stop-color="#FF7E58" stop-opacity="0"/></radialGradient><radialGradient id="paint6_radial_4002_2945" cx="0" cy="0" r="1" gradientTransform="rotate(116.713 .93 14.396) scale(3.38004 5.52184)" gradientUnits="userSpaceOnUse"><stop offset=".343" stop-color="#DA4708"/><stop offset="1" stop-color="#DC5314" stop-opacity="0"/></radialGradient><radialGradient id="paint7_radial_4002_2945" cx="0" cy="0" r="1" gradientTransform="matrix(0 9.4375 -2.83386 0 20.042 20.266)" gradientUnits="userSpaceOnUse"><stop stop-color="#FF7523"/><stop offset="1" stop-color="#FB684A"/></radialGradient><radialGradient id="paint8_radial_4002_2945" cx="0" cy="0" r="1" gradientTransform="matrix(.88171 0 0 11.0473 18.279 27.384)" gradientUnits="userSpaceOnUse"><stop offset=".214" stop-color="#F25937"/><stop offset="1" stop-color="#F25937" stop-opacity="0"/></radialGradient><radialGradient id="paint10_radial_4002_2945" cx="0" cy="0" r="1" gradientTransform="matrix(-3.52726 -8.45621 9.64626 -4.02365 12.416 28.884)" gradientUnits="userSpaceOnUse"><stop offset=".684" stop-color="#E07241" stop-opacity="0"/><stop offset=".951" stop-color="#CC6E42"/></radialGradient><radialGradient id="paint11_radial_4002_2945" cx="0" cy="0" r="1" gradientTransform="matrix(.13057 0 0 9.00654 8.341 29.93)" gradientUnits="userSpaceOnUse"><stop offset=".245" stop-color="#DE521D"/><stop offset="1" stop-color="#DE521D" stop-opacity="0"/></radialGradient><radialGradient id="paint12_radial_4002_2945" cx="0" cy="0" r="1" gradientTransform="matrix(0 8.78322 -2.01004 0 23.659 22.543)" gradientUnits="userSpaceOnUse"><stop offset=".309" stop-color="#FF905A"/><stop offset="1" stop-color="#FF7955"/></radialGradient><radialGradient id="paint13_radial_4002_2945" cx="0" cy="0" r="1" gradientTransform="matrix(0 4.375 -.27856 0 23.659 27.937)" gradientUnits="userSpaceOnUse"><stop offset=".325" stop-color="#FE713A"/><stop offset="1" stop-color="#FE713A" stop-opacity="0"/></radialGradient><radialGradient id="paint14_radial_4002_2945" cx="0" cy="0" r="1" gradientTransform="rotate(-108.091 18.473 10.12) scale(11.6646 18.6686)" gradientUnits="userSpaceOnUse"><stop offset=".566" stop-color="#FDBF28" stop-opacity="0"/><stop offset=".971" stop-color="#CD963A"/></radialGradient><radialGradient id="paint16_radial_4002_2945" cx="0" cy="0" r="1" gradientTransform="matrix(1.79395 -5.21875 8.06034 2.77074 19.24 25.36)" gradientUnits="userSpaceOnUse"><stop offset=".834" stop-color="#FFCE64" stop-opacity="0"/><stop offset=".998" stop-color="#FFCE64"/></radialGradient><radialGradient id="paint17_radial_4002_2945" cx="0" cy="0" r="1" gradientTransform="matrix(1.87 -7.3125 2.94555 .75325 6.471 28.89)" gradientUnits="userSpaceOnUse"><stop stop-color="#F37D42"/><stop offset="1" stop-color="#CE763C"/></radialGradient><radialGradient id="paint19_radial_4002_2945" cx="0" cy="0" r="1" gradientTransform="matrix(-1.40625 -8.13268 2.48004 -.42883 25.677 29.93)" gradientUnits="userSpaceOnUse"><stop stop-color="#FF9C5E"/><stop offset="1" stop-color="#FF9457"/></radialGradient><radialGradient id="paint20_radial_4002_2945" cx="0" cy="0" r="1" gradientTransform="matrix(0 -8.32422 .62514 0 23.659 29.93)" gradientUnits="userSpaceOnUse"><stop offset=".353" stop-color="#EE6A13"/><stop offset="1" stop-color="#EE6A13" stop-opacity="0"/></radialGradient><radialGradient id="paint21_radial_4002_2945" cx="0" cy="0" r="1" gradientTransform="matrix(0 2 -3.968 0 16.021 20.688)" gradientUnits="userSpaceOnUse"><stop offset=".133" stop-color="#F7803A"/><stop offset=".88" stop-color="#FFA040"/></radialGradient><radialGradient id="paint22_radial_4002_2945" cx="0" cy="0" r="1" gradientTransform="rotate(125.503 3.823 15.175) scale(3.01336 1.49475)" gradientUnits="userSpaceOnUse"><stop offset=".239" stop-color="#FFB32D"/><stop offset="1" stop-color="#FFB32D" stop-opacity="0"/></radialGradient><radialGradient id="paint23_radial_4002_2945" cx="0" cy="0" r="1" gradientTransform="matrix(-2.64062 1.4375 -2.5012 -4.5946 16.693 20.406)" gradientUnits="userSpaceOnUse"><stop offset=".706" stop-color="#F78B29" stop-opacity="0"/><stop offset="1" stop-color="#D87934"/></radialGradient><radialGradient id="paint24_radial_4002_2945" cx="0" cy="0" r="1" gradientTransform="rotate(103.169 4.94 16.283) scale(4.1421 4.9205)" gradientUnits="userSpaceOnUse"><stop offset=".043" stop-color="#FFC135"/><stop offset="1" stop-color="#E26839"/></radialGradient><radialGradient id="paint25_radial_4002_2945" cx="0" cy="0" r="1" gradientTransform="matrix(.31731 .43517 -.36968 .26956 21.113 15.473)" gradientUnits="userSpaceOnUse"><stop stop-color="#E18C2A"/><stop offset="1" stop-color="#E18C2A" stop-opacity="0"/></radialGradient><radialGradient id="paint26_radial_4002_2945" cx="0" cy="0" r="1" gradientTransform="matrix(1.44209 4.24431 -1.92923 .6555 9.917 15.31)" gradientUnits="userSpaceOnUse"><stop stop-color="#D57A26"/><stop offset="1" stop-color="#D06A3C"/></radialGradient><radialGradient id="paint27_radial_4002_2945" cx="0" cy="0" r="1" gradientTransform="matrix(.3445 1.07886 -.94638 .3022 10.633 15.3)" gradientUnits="userSpaceOnUse"><stop offset=".263" stop-color="#BE691E"/><stop offset=".977" stop-color="#BE691E" stop-opacity="0"/></radialGradient><radialGradient id="paint28_radial_4002_2945" cx="0" cy="0" r="1" gradientTransform="matrix(-5.93464 0 0 -7.89855 18.956 14.164)" gradientUnits="userSpaceOnUse"><stop offset=".121" stop-color="#FFE233"/><stop offset="1" stop-color="#F5A02B"/></radialGradient><radialGradient id="paint29_radial_4002_2945" cx="0" cy="0" r="1" gradientTransform="matrix(0 -3.66272 14.2484 0 15.709 21.018)" gradientUnits="userSpaceOnUse"><stop offset=".082" stop-color="#E27426"/><stop offset="1" stop-color="#FFA041" stop-opacity="0"/></radialGradient><radialGradient id="paint30_radial_4002_2945" cx="0" cy="0" r="1" gradientTransform="matrix(-.43548 6.60094 -2.42677 -.1601 21.497 13.914)" gradientUnits="userSpaceOnUse"><stop offset=".39" stop-color="#FFD930"/><stop offset="1" stop-color="#FFD930" stop-opacity="0"/></radialGradient><radialGradient id="paint31_radial_4002_2945" cx="0" cy="0" r="1" gradientTransform="matrix(0 -1.52949 1.84142 0 13.656 12.887)" gradientUnits="userSpaceOnUse"><stop offset=".276" stop-color="#F59632"/><stop offset="1" stop-color="#F59632" stop-opacity="0"/></radialGradient><radialGradient id="paint32_radial_4002_2945" cx="0" cy="0" r="1" gradientTransform="matrix(0 -1.66079 2.1541 0 18.61 12.442)" gradientUnits="userSpaceOnUse"><stop offset=".178" stop-color="#FFBE3A"/><stop offset="1" stop-color="#FFBE3A" stop-opacity="0"/></radialGradient><radialGradient id="paint33_radial_4002_2945" cx="0" cy="0" r="1" gradientTransform="matrix(0 1.40625 -11.2188 0 15.709 12.235)" gradientUnits="userSpaceOnUse"><stop stop-color="#F38E22"/><stop offset="1" stop-color="#F38E22" stop-opacity="0"/></radialGradient><radialGradient id="paint34_radial_4002_2945" cx="0" cy="0" r="1" gradientTransform="matrix(0 8.6875 -14.5246 0 15.97 12.516)" gradientUnits="userSpaceOnUse"><stop offset=".867" stop-color="#F77A61" stop-opacity="0"/><stop offset="1" stop-color="#F77A61"/></radialGradient><radialGradient id="paint36_radial_4002_2945" cx="0" cy="0" r="1" gradientTransform="rotate(-99.998 14.861 .696) scale(3.45877 1.35106)" gradientUnits="userSpaceOnUse"><stop offset=".139" stop-color="#FFDC43"/><stop offset="1" stop-color="#FFDC43" stop-opacity="0"/></radialGradient><radialGradient id="paint39_radial_4002_2945" cx="0" cy="0" r="1" gradientTransform="matrix(.37555 -.6701 1.95003 1.09287 14.7 17.722)" gradientUnits="userSpaceOnUse"><stop stop-color="#FFB534"/><stop offset="1" stop-color="#FFB534" stop-opacity="0"/></radialGradient><radialGradient id="paint40_radial_4002_2945" cx="0" cy="0" r="1" gradientTransform="matrix(0 -.77968 3.13684 0 15.918 17.993)" gradientUnits="userSpaceOnUse"><stop stop-color="#89014E"/><stop offset="1" stop-color="#87004D"/></radialGradient><radialGradient id="paint41_radial_4002_2945" cx="0" cy="0" r="1" gradientTransform="rotate(-90 16.078 -2.2) scale(1.21996)" gradientUnits="userSpaceOnUse"><stop offset=".687" stop-color="#805250"/><stop offset="1" stop-color="#604038"/></radialGradient><radialGradient id="paint42_radial_4002_2945" cx="0" cy="0" r="1" gradientTransform="rotate(-127.812 12.265 2.216) scale(.41014 .56467)" gradientUnits="userSpaceOnUse"><stop offset=".766" stop-color="#FFE6E2" stop-opacity="0"/><stop offset=".966" stop-color="#FFE6E2"/></radialGradient><radialGradient id="paint44_radial_4002_2945" cx="0" cy="0" r="1" gradientTransform="rotate(-90 13.717 .16) scale(1.22002)" gradientUnits="userSpaceOnUse"><stop offset=".687" stop-color="#805250"/><stop offset="1" stop-color="#604038"/></radialGradient><radialGradient id="paint46_radial_4002_2945" cx="0" cy="0" r="1" gradientTransform="matrix(-.00839 -.53569 .64392 -.01008 13.25 13.41)" gradientUnits="userSpaceOnUse"><stop offset=".766" stop-color="#FFE6E2" stop-opacity="0"/><stop offset=".966" stop-color="#FFE6E2"/></radialGradient><radialGradient id="paint48_radial_4002_2945" cx="0" cy="0" r="1" gradientTransform="matrix(.67995 2.42673 -2.31528 .64873 20.914 13.188)" gradientUnits="userSpaceOnUse"><stop offset=".856" stop-color="#E1943D" stop-opacity="0"/><stop offset="1" stop-color="#E08F2E"/></radialGradient><radialGradient id="paint49_radial_4002_2945" cx="0" cy="0" r="1" gradientTransform="matrix(.85221 -1.16952 .98029 .71432 21.303 13.777)" gradientUnits="userSpaceOnUse"><stop offset=".664" stop-color="#FFBD22"/><stop offset="1" stop-color="#FFBD22" stop-opacity="0"/></radialGradient><radialGradient id="paint51_radial_4002_2945" cx="0" cy="0" r="1" gradientTransform="matrix(-.44664 2.2458 -2.20783 -.43908 10.225 13.37)" gradientUnits="userSpaceOnUse"><stop offset=".775" stop-color="#C77937" stop-opacity="0"/><stop offset="1" stop-color="#C77937"/></radialGradient><radialGradient id="paint52_radial_4002_2945" cx="0" cy="0" r="1" gradientTransform="matrix(0 4.5625 -2.88065 0 19.584 6.797)" gradientUnits="userSpaceOnUse"><stop stop-color="#FFEE61"/><stop offset="1" stop-color="#FD4"/></radialGradient><radialGradient id="paint53_radial_4002_2945" cx="0" cy="0" r="1" gradientTransform="matrix(0 -16 5.79775 0 11.834 9.86)" gradientUnits="userSpaceOnUse"><stop offset=".301" stop-color="#E9B840"/><stop offset="1" stop-color="#E9B840" stop-opacity="0"/></radialGradient><radialGradient id="paint54_radial_4002_2945" cx="0" cy="0" r="1" gradientTransform="matrix(1.28125 -8 15.26892 2.44541 17.24 10.297)" gradientUnits="userSpaceOnUse"><stop offset=".814" stop-color="#EECD67" stop-opacity="0"/><stop offset=".946" stop-color="#EECD67"/></radialGradient><radialGradient id="paint55_radial_4002_2945" cx="0" cy="0" r="1" gradientTransform="matrix(0 6.875 -.59037 0 13.177 6.469)" gradientUnits="userSpaceOnUse"><stop offset=".305" stop-color="#D7A439"/><stop offset="1" stop-color="#E1B037" stop-opacity="0"/></radialGradient><radialGradient id="paint56_radial_4002_2945" cx="0" cy="0" r="1" gradientTransform="matrix(.37503 4.21874 -1.6853 .14982 13.302 2.703)" gradientUnits="userSpaceOnUse"><stop offset=".103" stop-color="#B59741"/><stop offset="1" stop-color="#CBA731" stop-opacity="0"/></radialGradient><radialGradient id="paint57_radial_4002_2945" cx="0" cy="0" r="1" gradientTransform="matrix(-5.24995 -6.37504 7.8363 -6.45332 16.74 9.703)" gradientUnits="userSpaceOnUse"><stop offset=".781" stop-color="#C3A852" stop-opacity="0"/><stop offset="1" stop-color="#C3A852"/></radialGradient><radialGradient id="paint59_radial_4002_2945" cx="0" cy="0" r="1" gradientTransform="matrix(0 -.59375 5.79687 0 10.959 10.094)" gradientUnits="userSpaceOnUse"><stop offset=".263" stop-color="#C8A03F"/><stop offset="1" stop-color="#C8A03F" stop-opacity="0"/></radialGradient><radialGradient id="paint62_radial_4002_2945" cx="0" cy="0" r="1" gradientTransform="matrix(0 -9.0625 1 0 13.459 9.86)" gradientUnits="userSpaceOnUse"><stop stop-color="#E3B438"/><stop offset="1" stop-color="#E3B438" stop-opacity="0"/></radialGradient><radialGradient id="paint63_radial_4002_2945" cx="0" cy="0" r="1" gradientTransform="matrix(0 -8.78125 1.6875 0 18.334 9.922)" gradientUnits="userSpaceOnUse"><stop stop-color="#FFE550"/><stop offset="1" stop-color="#FFE550" stop-opacity="0"/></radialGradient><radialGradient id="paint67_radial_4002_2945" cx="0" cy="0" r="1" gradientTransform="matrix(.52313 2.06026 -12.32015 3.12823 11.697 8.935)" gradientUnits="userSpaceOnUse"><stop offset=".173" stop-color="#C4A966"/><stop offset="1" stop-color="#DFB83E" stop-opacity="0"/></radialGradient><linearGradient id="paint0_linear_4002_2945" x1="10.441" x2="9.531" y1="12.164" y2="12.164" gradientUnits="userSpaceOnUse"><stop stop-color="#D18235"/><stop offset="1" stop-color="#D2923F"/></linearGradient><linearGradient id="paint1_linear_4002_2945" x1="21.396" x2="22.084" y1="12.203" y2="12.203" gradientUnits="userSpaceOnUse"><stop stop-color="#C88129"/><stop offset="1" stop-color="#FFC036"/></linearGradient><linearGradient id="paint9_linear_4002_2945" x1="9.158" x2="9.158" y1="21.199" y2="29.929" gradientUnits="userSpaceOnUse"><stop stop-color="#E6743E"/><stop offset="1" stop-color="#F46D40"/></linearGradient><linearGradient id="paint15_linear_4002_2945" x1="21.034" x2="21.034" y1="19.735" y2="29.93" gradientUnits="userSpaceOnUse"><stop stop-color="#FFDA42"/><stop offset="1" stop-color="#FFCF4C"/></linearGradient><linearGradient id="paint18_linear_4002_2945" x1="8.468" x2="7.09" y1="29.929" y2="29.772" gradientUnits="userSpaceOnUse"><stop offset=".333" stop-color="#D15D2A"/><stop offset="1" stop-color="#D15D2A" stop-opacity="0"/></linearGradient><linearGradient id="paint35_linear_4002_2945" x1="14.758" x2="15.92" y1="14.892" y2="14.956" gradientUnits="userSpaceOnUse"><stop stop-color="#F49F22"/><stop offset="1" stop-color="#E88830" stop-opacity="0"/><stop offset="1" stop-color="#F49F22" stop-opacity="0"/></linearGradient><linearGradient id="paint37_linear_4002_2945" x1="15.918" x2="15.918" y1="15.492" y2="16.413" gradientUnits="userSpaceOnUse"><stop stop-color="#E88830" stop-opacity="0"/><stop offset=".845" stop-color="#E88830"/></linearGradient><linearGradient id="paint38_linear_4002_2945" x1="15.918" x2="16.155" y1="12.869" y2="13.891" gradientUnits="userSpaceOnUse"><stop stop-color="#F6A328"/><stop offset="1" stop-color="#F6A328" stop-opacity="0"/></linearGradient><linearGradient id="paint43_linear_4002_2945" x1="19.122" x2="18.781" y1="13.232" y2="13.441" gradientUnits="userSpaceOnUse"><stop stop-color="#B4948D"/><stop offset="1" stop-color="#B4948D" stop-opacity="0"/></linearGradient><linearGradient id="paint45_linear_4002_2945" x1="14.364" x2="14.024" y1="13.232" y2="13.442" gradientUnits="userSpaceOnUse"><stop stop-color="#B4948D"/><stop offset="1" stop-color="#B4948D" stop-opacity="0"/></linearGradient><linearGradient id="paint47_linear_4002_2945" x1="22.881" x2="21.576" y1="13.261" y2="15.615" gradientUnits="userSpaceOnUse"><stop stop-color="#FFE343"/><stop offset="1" stop-color="#FFC136"/></linearGradient><linearGradient id="paint50_linear_4002_2945" x1="9.59" x2="11.168" y1="14.022" y2="13.884" gradientUnits="userSpaceOnUse"><stop stop-color="#E58F2C"/><stop offset="1" stop-color="#D9851D"/></linearGradient><linearGradient id="paint58_linear_4002_2945" x1="9.771" x2="10.584" y1="9.234" y2="9.234" gradientUnits="userSpaceOnUse"><stop stop-color="#CDAC54"/><stop offset="1" stop-color="#CDAC54" stop-opacity="0"/></linearGradient><linearGradient id="paint60_linear_4002_2945" x1="15.81" x2="15.81" y1="2.07" y2="10.498" gradientUnits="userSpaceOnUse"><stop stop-color="#F9CD2E"/><stop offset="1" stop-color="#FFCA3D"/></linearGradient><linearGradient id="paint61_linear_4002_2945" x1="15.81" x2="15.81" y1="2.07" y2="4.672" gradientUnits="userSpaceOnUse"><stop stop-color="#E7C44C"/><stop offset="1" stop-color="#E7C44C" stop-opacity="0"/></linearGradient><linearGradient id="paint64_linear_4002_2945" x1="21.786" x2="5.158" y1="11.243" y2="11.243" gradientUnits="userSpaceOnUse"><stop stop-color="#FFE24A"/><stop offset="1" stop-color="#F0BC33"/></linearGradient><linearGradient id="paint65_linear_4002_2945" x1="15.587" x2="15.587" y1="9.842" y2="10.155" gradientUnits="userSpaceOnUse"><stop offset=".027" stop-color="#FFD131"/><stop offset="1" stop-color="#FFD131" stop-opacity="0"/></linearGradient><linearGradient id="paint66_linear_4002_2945" x1="16.505" x2="16.505" y1="12.148" y2="10.895" gradientUnits="userSpaceOnUse"><stop stop-color="#E1926F"/><stop offset="1" stop-color="#F9B14D" stop-opacity="0"/></linearGradient><filter id="filter0_ii_4002_2945" width="11.556" height="13.551" x="10.441" y="7.489" color-interpolation-filters="sRGB" filterUnits="userSpaceOnUse"><feFlood flood-opacity="0" result="BackgroundImageFix"/><feBlend in="SourceGraphic" in2="BackgroundImageFix" result="shape"/><feColorMatrix in="SourceAlpha" result="hardAlpha" values="0 0 0 0 0 0 0 0 0 0 0 0 0 0 0 0 0 0 127 0"/><feOffset dx=".5"/><feGaussianBlur stdDeviation=".5"/><feComposite in2="hardAlpha" k2="-1" k3="1" operator="arithmetic"/><feColorMatrix values="0 0 0 0 0.823529 0 0 0 0 0.623529 0 0 0 0 0.313726 0 0 0 1 0"/><feBlend in2="shape" result="effect1_innerShadow_4002_2945"/><feColorMatrix in="SourceAlpha" result="hardAlpha" values="0 0 0 0 0 0 0 0 0 0 0 0 0 0 0 0 0 0 127 0"/><feOffset dy=".2"/><feGaussianBlur stdDeviation=".375"/><feComposite in2="hardAlpha" k2="-1" k3="1" operator="arithmetic"/><feColorMatrix values="0 0 0 0 0.980392 0 0 0 0 0.54902 0 0 0 0 0.0941176 0 0 0 1 0"/><feBlend in2="effect1_innerShadow_4002_2945" result="effect2_innerShadow_4002_2945"/></filter><filter id="filter1_f_4002_2945" width="4.031" height="5.137" x="13.679" y="12.273" color-interpolation-filters="sRGB" filterUnits="userSpaceOnUse"><feFlood flood-opacity="0" result="BackgroundImageFix"/><feBlend in="SourceGraphic" in2="BackgroundImageFix" result="shape"/><feGaussianBlur result="effect1_foregroundBlur_4002_2945" stdDeviation=".5"/></filter><filter id="filter2_f_4002_2945" width="2.231" height="3.337" x="14.803" y="12.96" color-interpolation-filters="sRGB" filterUnits="userSpaceOnUse"><feFlood flood-opacity="0" result="BackgroundImageFix"/><feBlend in="SourceGraphic" in2="BackgroundImageFix" result="shape"/><feGaussianBlur result="effect1_foregroundBlur_4002_2945" stdDeviation=".05"/></filter><filter id="filter3_f_4002_2945" width="2.231" height="3.337" x="14.803" y="12.769" color-interpolation-filters="sRGB" filterUnits="userSpaceOnUse"><feFlood flood-opacity="0" result="BackgroundImageFix"/><feBlend in="SourceGraphic" in2="BackgroundImageFix" result="shape"/><feGaussianBlur result="effect1_foregroundBlur_4002_2945" stdDeviation=".05"/></filter><filter id="filter4_f_4002_2945" width="3.982" height="1.661" x="13.928" y="16.673" color-interpolation-filters="sRGB" filterUnits="userSpaceOnUse"><feFlood flood-opacity="0" result="BackgroundImageFix"/><feBlend in="SourceGraphic" in2="BackgroundImageFix" result="shape"/><feGaussianBlur result="effect1_foregroundBlur_4002_2945" stdDeviation=".05"/></filter><filter id="filter5_f_4002_2945" width=".836" height=".738" x="17.493" y="12.705" color-interpolation-filters="sRGB" filterUnits="userSpaceOnUse"><feFlood flood-opacity="0" result="BackgroundImageFix"/><feBlend in="SourceGraphic" in2="BackgroundImageFix" result="shape"/><feGaussianBlur result="effect1_foregroundBlur_4002_2945" stdDeviation=".05"/></filter><filter id="filter6_f_4002_2945" width=".933" height=".957" x="18.41" y="12.795" color-interpolation-filters="sRGB" filterUnits="userSpaceOnUse"><feFlood flood-opacity="0" result="BackgroundImageFix"/><feBlend in="SourceGraphic" in2="BackgroundImageFix" result="shape"/><feGaussianBlur result="effect1_foregroundBlur_4002_2945" stdDeviation=".1"/></filter><filter id="filter7_f_4002_2945" width="1.036" height="1.094" x="13.604" y="12.726" color-interpolation-filters="sRGB" filterUnits="userSpaceOnUse"><feFlood flood-opacity="0" result="BackgroundImageFix"/><feBlend in="SourceGraphic" in2="BackgroundImageFix" result="shape"/><feGaussianBlur result="effect1_foregroundBlur_4002_2945" stdDeviation=".1"/></filter><filter id="filter8_f_4002_2945" width=".973" height=".747" x="12.779" y="12.696" color-interpolation-filters="sRGB" filterUnits="userSpaceOnUse"><feFlood flood-opacity="0" result="BackgroundImageFix"/><feBlend in="SourceGraphic" in2="BackgroundImageFix" result="shape"/><feGaussianBlur result="effect1_foregroundBlur_4002_2945" stdDeviation=".05"/></filter><filter id="filter9_f_4002_2945" width="1.397" height="2.533" x="9.413" y="12.619" color-interpolation-filters="sRGB" filterUnits="userSpaceOnUse"><feFlood flood-opacity="0" result="BackgroundImageFix"/><feBlend in="SourceGraphic" in2="BackgroundImageFix" result="shape"/><feGaussianBlur result="effect1_foregroundBlur_4002_2945" stdDeviation=".125"/></filter><filter id="filter10_f_4002_2945" width="1.524" height="2.559" x="21.036" y="12.602" color-interpolation-filters="sRGB" filterUnits="userSpaceOnUse"><feFlood flood-opacity="0" result="BackgroundImageFix"/><feBlend in="SourceGraphic" in2="BackgroundImageFix" result="shape"/><feGaussianBlur result="effect1_foregroundBlur_4002_2945" stdDeviation=".125"/></filter><filter id="filter11_f_4002_2945" width="8.369" height="2.215" x="15.115" y="9.748" color-interpolation-filters="sRGB" filterUnits="userSpaceOnUse"><feFlood flood-opacity="0" result="BackgroundImageFix"/><feBlend in="SourceGraphic" in2="BackgroundImageFix" result="shape"/><feGaussianBlur result="effect1_foregroundBlur_4002_2945" stdDeviation=".375"/></filter><filter id="filter12_ii_4002_2945" width="5.791" height="8.428" x="12.915" y="2.07" color-interpolation-filters="sRGB" filterUnits="userSpaceOnUse"><feFlood flood-opacity="0" result="BackgroundImageFix"/><feBlend in="SourceGraphic" in2="BackgroundImageFix" result="shape"/><feColorMatrix in="SourceAlpha" result="hardAlpha" values="0 0 0 0 0 0 0 0 0 0 0 0 0 0 0 0 0 0 127 0"/><feOffset dx=".2"/><feGaussianBlur stdDeviation=".3"/><feComposite in2="hardAlpha" k2="-1" k3="1" operator="arithmetic"/><feColorMatrix values="0 0 0 0 0.768627 0 0 0 0 0.658824 0 0 0 0 0.321569 0 0 0 1 0"/><feBlend in2="shape" result="effect1_innerShadow_4002_2945"/><feColorMatrix in="SourceAlpha" result="hardAlpha" values="0 0 0 0 0 0 0 0 0 0 0 0 0 0 0 0 0 0 127 0"/><feOffset dx="-.2"/><feGaussianBlur stdDeviation=".3"/><feComposite in2="hardAlpha" k2="-1" k3="1" operator="arithmetic"/><feColorMatrix values="0 0 0 0 1 0 0 0 0 0.92549 0 0 0 0 0.372549 0 0 0 1 0"/><feBlend in2="effect1_innerShadow_4002_2945" result="effect2_innerShadow_4002_2945"/></filter><filter id="filter13_f_4002_2945" width="7.654" height="2.528" x="15.502" y="9.592" color-interpolation-filters="sRGB" filterUnits="userSpaceOnUse"><feFlood flood-opacity="0" result="BackgroundImageFix"/><feBlend in="SourceGraphic" in2="BackgroundImageFix" result="shape"/><feGaussianBlur result="effect1_foregroundBlur_4002_2945" stdDeviation=".5"/></filter></defs></svg>