<svg xmlns="http://www.w3.org/2000/svg" width="32" height="32" fill="none" viewBox="0 0 32 32"><path fill="url(#paint0_linear_18_13360)" d="M17.985 6h-4v3h4V6Z"/><path fill="url(#paint1_linear_18_13360)" d="M17.985 6h-4v3h4V6Z"/><g filter="url(#filter0_i_18_13360)"><path fill="url(#paint2_linear_18_13360)" d="m10.615 11.19-2.45 2.45c-.5.5-1.3.5-1.79 0l-1.03-1.03c-.5-.5-.5-1.3 0-1.79l2.45-2.45c.5-.5 1.3-.5 1.79 0l1.04 1.04c.49.48.49 1.29-.01 1.78Z"/></g><path fill="url(#paint3_linear_18_13360)" d="m21.345 11.19 2.45 2.45c.5.5 1.3.5 1.79 0l1.04-1.04c.5-.5.5-1.3 0-1.79l-2.45-2.45c-.5-.5-1.3-.5-1.79 0l-1.04 1.04c-.5.49-.5 1.3 0 1.79Z"/><path fill="url(#paint4_linear_18_13360)" d="m21.345 11.19 2.45 2.45c.5.5 1.3.5 1.79 0l1.04-1.04c.5-.5.5-1.3 0-1.79l-2.45-2.45c-.5-.5-1.3-.5-1.79 0l-1.04 1.04c-.5.49-.5 1.3 0 1.79Z"/><path fill="url(#paint5_linear_18_13360)" d="m21.345 11.19 2.45 2.45c.5.5 1.3.5 1.79 0l1.04-1.04c.5-.5.5-1.3 0-1.79l-2.45-2.45c-.5-.5-1.3-.5-1.79 0l-1.04 1.04c-.5.49-.5 1.3 0 1.79Z"/><path fill="url(#paint6_linear_18_13360)" d="M15.985 30c6.075 0 11-4.925 11-11s-4.925-11-11-11-11 4.925-11 11 4.925 11 11 11Z"/><g filter="url(#filter1_f_18_13360)"><path stroke="url(#paint7_linear_18_13360)" stroke-width=".5" d="M16.157 28.938c5.583 0 10.11-4.527 10.11-10.11 0-5.583-4.527-10.11-10.11-10.11-5.583 0-10.11 4.527-10.11 10.11 0 5.583 4.527 10.11 10.11 10.11Z"/></g><g filter="url(#filter2_f_18_13360)"><path fill="url(#paint8_linear_18_13360)" d="M15.985 28.594a9.594 9.594 0 1 0 0-19.188 9.594 9.594 0 0 0 0 19.188Z"/></g><g filter="url(#filter3_i_18_13360)"><path fill="url(#paint9_linear_18_13360)" d="M18.715 6h-5.47c-.7 0-1.27-.57-1.27-1.27V3.27c.01-.7.57-1.27 1.27-1.27h5.46c.7 0 1.27.57 1.27 1.27v1.46c.01.7-.56 1.27-1.26 1.27Z"/><path fill="url(#paint10_linear_18_13360)" d="M18.715 6h-5.47c-.7 0-1.27-.57-1.27-1.27V3.27c.01-.7.57-1.27 1.27-1.27h5.46c.7 0 1.27.57 1.27 1.27v1.46c.01.7-.56 1.27-1.26 1.27Z"/></g><path fill="url(#paint11_linear_18_13360)" d="M15.985 28a9 9 0 1 0 0-18 9 9 0 0 0 0 18Z"/><g filter="url(#filter4_f_18_13360)"><path fill="url(#paint12_radial_18_13360)" d="M15.985 27.75a8.75 8.75 0 1 0 0-17.5 8.75 8.75 0 0 0 0 17.5Z"/><path fill="url(#paint13_radial_18_13360)" d="M15.985 27.75a8.75 8.75 0 1 0 0-17.5 8.75 8.75 0 0 0 0 17.5Z"/></g><g filter="url(#filter5_f_18_13360)"><path fill="url(#paint14_linear_18_13360)" d="M14.805 19.904a.996.996 0 0 1 0-1.41l4.95-4.95a.996.996 0 1 1 1.41 1.41l-4.95 4.95a.996.996 0 0 1-1.41 0Z"/></g><g filter="url(#filter6_di_18_13360)"><path fill="#9B93A5" d="M14.985 13v-1c0-.55.45-1 1-1s1 .45 1 1v1c0 .55-.45 1-1 1-.56 0-1-.45-1-1Z"/><path fill="url(#paint15_radial_18_13360)" d="M14.985 13v-1c0-.55.45-1 1-1s1 .45 1 1v1c0 .55-.45 1-1 1-.56 0-1-.45-1-1Z"/></g><g filter="url(#filter7_di_18_13360)"><path fill="#9B93A5" d="M14.985 26v-1c0-.55.45-1 1-1s1 .45 1 1v1c0 .55-.45 1-1 1-.56 0-1-.45-1-1Z"/><path fill="url(#paint16_radial_18_13360)" d="M14.985 26v-1c0-.55.45-1 1-1s1 .45 1 1v1c0 .55-.45 1-1 1-.56 0-1-.45-1-1Z"/></g><g filter="url(#filter8_di_18_13360)"><path fill="#9B93A5" d="M21.985 18h1c.55 0 1 .45 1 1s-.45 1-1 1h-1c-.55 0-1-.45-1-1s.44-1 1-1Z"/><path fill="url(#paint17_linear_18_13360)" d="M21.985 18h1c.55 0 1 .45 1 1s-.45 1-1 1h-1c-.55 0-1-.45-1-1s.44-1 1-1Z"/></g><g filter="url(#filter9_di_18_13360)"><path fill="#9B93A5" d="M8.985 18h1c.55 0 1 .45 1 1s-.45 1-1 1h-1c-.55 0-1-.45-1-1s.44-1 1-1Z"/><path fill="url(#paint18_radial_18_13360)" d="M8.985 18h1c.55 0 1 .45 1 1s-.45 1-1 1h-1c-.55 0-1-.45-1-1s.44-1 1-1Z"/></g><g filter="url(#filter10_di_18_13360)"><path fill="#9B93A5" d="m20.935 22.54.71.71a.996.996 0 1 1-1.41 1.41l-.71-.71a.996.996 0 1 1 1.41-1.41Z"/><path fill="url(#paint19_radial_18_13360)" d="m20.935 22.54.71.71a.996.996 0 1 1-1.41 1.41l-.71-.71a.996.996 0 1 1 1.41-1.41Z"/></g><g filter="url(#filter11_di_18_13360)"><path fill="#9B93A5" d="m11.735 13.35.71.71a.996.996 0 1 1-1.41 1.41l-.71-.71a.996.996 0 0 1 0-1.41c.39-.4 1.02-.4 1.41 0Z"/><path fill="url(#paint20_radial_18_13360)" d="m11.735 13.35.71.71a.996.996 0 1 1-1.41 1.41l-.71-.71a.996.996 0 0 1 0-1.41c.39-.4 1.02-.4 1.41 0Z"/></g><path fill="url(#paint21_linear_18_13360)" d="m19.515 14.05.71-.71a.996.996 0 1 1 1.41 1.41l-.71.71a.996.996 0 1 1-1.41-1.41Z"/><g filter="url(#filter12_di_18_13360)"><path fill="#9B93A5" d="m10.325 23.24.71-.71a.996.996 0 1 1 1.41 1.41l-.71.71a.996.996 0 1 1-1.41-1.41Z"/><path fill="url(#paint22_radial_18_13360)" d="m10.325 23.24.71-.71a.996.996 0 1 1 1.41 1.41l-.71.71a.996.996 0 1 1-1.41-1.41Z"/></g><g filter="url(#filter13_ii_18_13360)"><path fill="url(#paint23_linear_18_13360)" d="M15.275 19.71a.996.996 0 0 1 0-1.41l4.95-4.95a.996.996 0 1 1 1.41 1.41l-4.95 4.95a.996.996 0 0 1-1.41 0Z"/><path fill="url(#paint24_linear_18_13360)" d="M15.275 19.71a.996.996 0 0 1 0-1.41l4.95-4.95a.996.996 0 1 1 1.41 1.41l-4.95 4.95a.996.996 0 0 1-1.41 0Z"/><path fill="url(#paint25_radial_18_13360)" d="M15.275 19.71a.996.996 0 0 1 0-1.41l4.95-4.95a.996.996 0 1 1 1.41 1.41l-4.95 4.95a.996.996 0 0 1-1.41 0Z"/></g><g filter="url(#filter14_f_18_13360)"><path stroke="url(#paint26_linear_18_13360)" stroke-width=".5" d="m21.03 13.943-5.055 5.036"/></g><defs><linearGradient id="paint0_linear_18_13360" x1="13.985" x2="17.286" y1="7.85" y2="7.85" gradientUnits="userSpaceOnUse"><stop stop-color="#66646D"/><stop offset="1" stop-color="#A49FAC"/></linearGradient><linearGradient id="paint1_linear_18_13360" x1="17.87" x2="17.227" y1="5.59" y2="6.973" gradientUnits="userSpaceOnUse"><stop stop-color="#686475"/><stop offset="1" stop-color="#686475" stop-opacity="0"/></linearGradient><linearGradient id="paint2_linear_18_13360" x1="7.192" x2="10.62" y1="12.352" y2="9.065" gradientUnits="userSpaceOnUse"><stop stop-color="#948C9D"/><stop offset="1" stop-color="#A19DA8"/></linearGradient><linearGradient id="paint3_linear_18_13360" x1="25.345" x2="23.314" y1="9.344" y2="11.594" gradientUnits="userSpaceOnUse"><stop stop-color="#B7B5BD"/><stop offset="1" stop-color="#9993A0"/></linearGradient><linearGradient id="paint4_linear_18_13360" x1="21.814" x2="22.657" y1="8.719" y2="9.562" gradientUnits="userSpaceOnUse"><stop stop-color="#74717D"/><stop offset="1" stop-color="#74717D" stop-opacity="0"/></linearGradient><linearGradient id="paint5_linear_18_13360" x1="26.236" x2="25.876" y1="13.234" y2="12.89" gradientUnits="userSpaceOnUse"><stop stop-color="#918A9D"/><stop offset="1" stop-color="#918A9D" stop-opacity="0"/></linearGradient><linearGradient id="paint6_linear_18_13360" x1="15.338" x2="15.338" y1="8" y2="30" gradientUnits="userSpaceOnUse"><stop offset=".374" stop-color="#4C2250"/><stop offset="1" stop-color="#272E63"/></linearGradient><linearGradient id="paint7_linear_18_13360" x1="24.095" x2="10.493" y1="8.719" y2="25.726" gradientUnits="userSpaceOnUse"><stop stop-color="#5C3760"/><stop offset="1" stop-color="#3F3E6A"/></linearGradient><linearGradient id="paint8_linear_18_13360" x1="15.421" x2="15.421" y1="9.406" y2="28.594" gradientUnits="userSpaceOnUse"><stop stop-color="#3A1D41"/><stop offset="1" stop-color="#2E2A44"/></linearGradient><linearGradient id="paint9_linear_18_13360" x1="15.975" x2="15.975" y1="2" y2="6" gradientUnits="userSpaceOnUse"><stop stop-color="#4D224F"/><stop offset="1" stop-color="#1C1F54"/></linearGradient><linearGradient id="paint10_linear_18_13360" x1="19.975" x2="18.649" y1="3.564" y2="3.564" gradientUnits="userSpaceOnUse"><stop stop-color="#5C375F"/><stop offset="1" stop-color="#5C375F" stop-opacity="0"/></linearGradient><linearGradient id="paint11_linear_18_13360" x1="8.158" x2="24.985" y1="22.125" y2="14.313" gradientUnits="userSpaceOnUse"><stop stop-color="#938D9C"/><stop offset="1" stop-color="#897C91"/></linearGradient><linearGradient id="paint14_linear_18_13360" x1="18.541" x2="13.699" y1="15.127" y2="19.757" gradientUnits="userSpaceOnUse"><stop stop-color="#B7A1AC"/><stop offset="1" stop-color="#BB9CC1"/></linearGradient><linearGradient id="paint17_linear_18_13360" x1="22.485" x2="22.485" y1="17.563" y2="18.594" gradientUnits="userSpaceOnUse"><stop stop-color="#867F8D"/><stop offset="1" stop-color="#867F8D" stop-opacity="0"/></linearGradient><linearGradient id="paint21_linear_18_13360" x1="21.64" x2="19.518" y1="13.349" y2="15.47" gradientUnits="userSpaceOnUse"><stop stop-color="#9B9B9B"/><stop offset="1" stop-color="#D3D3D3"/></linearGradient><linearGradient id="paint23_linear_18_13360" x1="16.157" x2="21.689" y1="18.781" y2="13.25" gradientUnits="userSpaceOnUse"><stop stop-color="#C9287B"/><stop offset="1" stop-color="#D82044"/></linearGradient><linearGradient id="paint24_linear_18_13360" x1="15.427" x2="16.24" y1="19.651" y2="18.891" gradientUnits="userSpaceOnUse"><stop stop-color="#9F346B"/><stop offset="1" stop-color="#9F346B" stop-opacity="0"/></linearGradient><linearGradient id="paint26_linear_18_13360" x1="21.436" x2="15.463" y1="13.89" y2="19.987" gradientUnits="userSpaceOnUse"><stop stop-color="#E14D5F"/><stop offset="1" stop-color="#E14D5F" stop-opacity="0"/></linearGradient><filter id="filter0_i_18_13360" width="6.421" height="6.22" x="4.97" y="7.795" color-interpolation-filters="sRGB" filterUnits="userSpaceOnUse"><feFlood flood-opacity="0" result="BackgroundImageFix"/><feBlend in="SourceGraphic" in2="BackgroundImageFix" result="shape"/><feColorMatrix in="SourceAlpha" result="hardAlpha" values="0 0 0 0 0 0 0 0 0 0 0 0 0 0 0 0 0 0 127 0"/><feOffset dx=".4" dy="-.2"/><feGaussianBlur stdDeviation=".5"/><feComposite in2="hardAlpha" k2="-1" k3="1" operator="arithmetic"/><feColorMatrix values="0 0 0 0 0.443137 0 0 0 0 0.403922 0 0 0 0 0.501961 0 0 0 1 0"/><feBlend in2="shape" result="effect1_innerShadow_18_13360"/></filter><filter id="filter1_f_18_13360" width="21.719" height="21.719" x="5.298" y="7.969" color-interpolation-filters="sRGB" filterUnits="userSpaceOnUse"><feFlood flood-opacity="0" result="BackgroundImageFix"/><feBlend in="SourceGraphic" in2="BackgroundImageFix" result="shape"/><feGaussianBlur result="effect1_foregroundBlur_18_13360" stdDeviation=".25"/></filter><filter id="filter2_f_18_13360" width="20.688" height="20.688" x="5.641" y="8.656" color-interpolation-filters="sRGB" filterUnits="userSpaceOnUse"><feFlood flood-opacity="0" result="BackgroundImageFix"/><feBlend in="SourceGraphic" in2="BackgroundImageFix" result="shape"/><feGaussianBlur result="effect1_foregroundBlur_18_13360" stdDeviation=".375"/></filter><filter id="filter3_i_18_13360" width="8.5" height="4.5" x="11.975" y="1.5" color-interpolation-filters="sRGB" filterUnits="userSpaceOnUse"><feFlood flood-opacity="0" result="BackgroundImageFix"/><feBlend in="SourceGraphic" in2="BackgroundImageFix" result="shape"/><feColorMatrix in="SourceAlpha" result="hardAlpha" values="0 0 0 0 0 0 0 0 0 0 0 0 0 0 0 0 0 0 127 0"/><feOffset dx=".5" dy="-.5"/><feGaussianBlur stdDeviation=".5"/><feComposite in2="hardAlpha" k2="-1" k3="1" operator="arithmetic"/><feColorMatrix values="0 0 0 0 0.145098 0 0 0 0 0.137255 0 0 0 0 0.25098 0 0 0 1 0"/><feBlend in2="shape" result="effect1_innerShadow_18_13360"/></filter><filter id="filter4_f_18_13360" width="18.501" height="18.501" x="6.734" y="9.749" color-interpolation-filters="sRGB" filterUnits="userSpaceOnUse"><feFlood flood-opacity="0" result="BackgroundImageFix"/><feBlend in="SourceGraphic" in2="BackgroundImageFix" result="shape"/><feGaussianBlur result="effect1_foregroundBlur_18_13360" stdDeviation=".25"/></filter><filter id="filter5_f_18_13360" width="8.145" height="8.145" x="13.912" y="12.652" color-interpolation-filters="sRGB" filterUnits="userSpaceOnUse"><feFlood flood-opacity="0" result="BackgroundImageFix"/><feBlend in="SourceGraphic" in2="BackgroundImageFix" result="shape"/><feGaussianBlur result="effect1_foregroundBlur_18_13360" stdDeviation=".3"/></filter><filter id="filter6_di_18_13360" width="3" height="3.8" x="14.485" y="10.7" color-interpolation-filters="sRGB" filterUnits="userSpaceOnUse"><feFlood flood-opacity="0" result="BackgroundImageFix"/><feColorMatrix in="SourceAlpha" result="hardAlpha" values="0 0 0 0 0 0 0 0 0 0 0 0 0 0 0 0 0 0 127 0"/><feOffset dx="-.1" dy=".1"/><feGaussianBlur stdDeviation=".2"/><feComposite in2="hardAlpha" operator="out"/><feColorMatrix values="0 0 0 0 0.67451 0 0 0 0 0.592157 0 0 0 0 0.729412 0 0 0 1 0"/><feBlend in2="BackgroundImageFix" result="effect1_dropShadow_18_13360"/><feBlend in="SourceGraphic" in2="effect1_dropShadow_18_13360" result="shape"/><feColorMatrix in="SourceAlpha" result="hardAlpha" values="0 0 0 0 0 0 0 0 0 0 0 0 0 0 0 0 0 0 127 0"/><feOffset dx=".5"/><feGaussianBlur stdDeviation=".5"/><feComposite in2="hardAlpha" k2="-1" k3="1" operator="arithmetic"/><feColorMatrix values="0 0 0 0 0.478431 0 0 0 0 0.443137 0 0 0 0 0.52549 0 0 0 1 0"/><feBlend in2="shape" result="effect2_innerShadow_18_13360"/></filter><filter id="filter7_di_18_13360" width="3" height="3.8" x="14.485" y="23.7" color-interpolation-filters="sRGB" filterUnits="userSpaceOnUse"><feFlood flood-opacity="0" result="BackgroundImageFix"/><feColorMatrix in="SourceAlpha" result="hardAlpha" values="0 0 0 0 0 0 0 0 0 0 0 0 0 0 0 0 0 0 127 0"/><feOffset dx="-.1" dy=".1"/><feGaussianBlur stdDeviation=".2"/><feComposite in2="hardAlpha" operator="out"/><feColorMatrix values="0 0 0 0 0.67451 0 0 0 0 0.592157 0 0 0 0 0.729412 0 0 0 1 0"/><feBlend in2="BackgroundImageFix" result="effect1_dropShadow_18_13360"/><feBlend in="SourceGraphic" in2="effect1_dropShadow_18_13360" result="shape"/><feColorMatrix in="SourceAlpha" result="hardAlpha" values="0 0 0 0 0 0 0 0 0 0 0 0 0 0 0 0 0 0 127 0"/><feOffset dx=".5" dy="-.25"/><feGaussianBlur stdDeviation=".5"/><feComposite in2="hardAlpha" k2="-1" k3="1" operator="arithmetic"/><feColorMatrix values="0 0 0 0 0.478431 0 0 0 0 0.443137 0 0 0 0 0.52549 0 0 0 1 0"/><feBlend in2="shape" result="effect2_innerShadow_18_13360"/></filter><filter id="filter8_di_18_13360" width="3.8" height="3" x="20.485" y="17.5" color-interpolation-filters="sRGB" filterUnits="userSpaceOnUse"><feFlood flood-opacity="0" result="BackgroundImageFix"/><feColorMatrix in="SourceAlpha" result="hardAlpha" values="0 0 0 0 0 0 0 0 0 0 0 0 0 0 0 0 0 0 127 0"/><feOffset dx="-.1" dy=".1"/><feGaussianBlur stdDeviation=".2"/><feComposite in2="hardAlpha" operator="out"/><feColorMatrix values="0 0 0 0 0.67451 0 0 0 0 0.592157 0 0 0 0 0.729412 0 0 0 1 0"/><feBlend in2="BackgroundImageFix" result="effect1_dropShadow_18_13360"/><feBlend in="SourceGraphic" in2="effect1_dropShadow_18_13360" result="shape"/><feColorMatrix in="SourceAlpha" result="hardAlpha" values="0 0 0 0 0 0 0 0 0 0 0 0 0 0 0 0 0 0 127 0"/><feOffset dy="-.5"/><feGaussianBlur stdDeviation=".5"/><feComposite in2="hardAlpha" k2="-1" k3="1" operator="arithmetic"/><feColorMatrix values="0 0 0 0 0.478431 0 0 0 0 0.443137 0 0 0 0 0.52549 0 0 0 1 0"/><feBlend in2="shape" result="effect2_innerShadow_18_13360"/></filter><filter id="filter9_di_18_13360" width="4" height="3" x="7.485" y="17.5" color-interpolation-filters="sRGB" filterUnits="userSpaceOnUse"><feFlood flood-opacity="0" result="BackgroundImageFix"/><feColorMatrix in="SourceAlpha" result="hardAlpha" values="0 0 0 0 0 0 0 0 0 0 0 0 0 0 0 0 0 0 127 0"/><feOffset dx="-.1" dy=".1"/><feGaussianBlur stdDeviation=".2"/><feComposite in2="hardAlpha" operator="out"/><feColorMatrix values="0 0 0 0 0.67451 0 0 0 0 0.592157 0 0 0 0 0.729412 0 0 0 1 0"/><feBlend in2="BackgroundImageFix" result="effect1_dropShadow_18_13360"/><feBlend in="SourceGraphic" in2="effect1_dropShadow_18_13360" result="shape"/><feColorMatrix in="SourceAlpha" result="hardAlpha" values="0 0 0 0 0 0 0 0 0 0 0 0 0 0 0 0 0 0 127 0"/><feOffset dx=".5" dy="-.5"/><feGaussianBlur stdDeviation=".5"/><feComposite in2="hardAlpha" k2="-1" k3="1" operator="arithmetic"/><feColorMatrix values="0 0 0 0 0.478431 0 0 0 0 0.443137 0 0 0 0 0.52549 0 0 0 1 0"/><feBlend in2="shape" result="effect2_innerShadow_18_13360"/></filter><filter id="filter10_di_18_13360" width="3.705" height="3.705" x="18.733" y="21.748" color-interpolation-filters="sRGB" filterUnits="userSpaceOnUse"><feFlood flood-opacity="0" result="BackgroundImageFix"/><feColorMatrix in="SourceAlpha" result="hardAlpha" values="0 0 0 0 0 0 0 0 0 0 0 0 0 0 0 0 0 0 127 0"/><feOffset dx="-.1" dy=".1"/><feGaussianBlur stdDeviation=".2"/><feComposite in2="hardAlpha" operator="out"/><feColorMatrix values="0 0 0 0 0.67451 0 0 0 0 0.592157 0 0 0 0 0.729412 0 0 0 1 0"/><feBlend in2="BackgroundImageFix" result="effect1_dropShadow_18_13360"/><feBlend in="SourceGraphic" in2="effect1_dropShadow_18_13360" result="shape"/><feColorMatrix in="SourceAlpha" result="hardAlpha" values="0 0 0 0 0 0 0 0 0 0 0 0 0 0 0 0 0 0 127 0"/><feOffset dx=".5" dy="-.5"/><feGaussianBlur stdDeviation=".5"/><feComposite in2="hardAlpha" k2="-1" k3="1" operator="arithmetic"/><feColorMatrix values="0 0 0 0 0.478431 0 0 0 0 0.443137 0 0 0 0 0.52549 0 0 0 1 0"/><feBlend in2="shape" result="effect2_innerShadow_18_13360"/></filter><filter id="filter11_di_18_13360" width="3.705" height="3.512" x="9.533" y="12.75" color-interpolation-filters="sRGB" filterUnits="userSpaceOnUse"><feFlood flood-opacity="0" result="BackgroundImageFix"/><feColorMatrix in="SourceAlpha" result="hardAlpha" values="0 0 0 0 0 0 0 0 0 0 0 0 0 0 0 0 0 0 127 0"/><feOffset dx="-.1" dy=".1"/><feGaussianBlur stdDeviation=".2"/><feComposite in2="hardAlpha" operator="out"/><feColorMatrix values="0 0 0 0 0.67451 0 0 0 0 0.592157 0 0 0 0 0.729412 0 0 0 1 0"/><feBlend in2="BackgroundImageFix" result="effect1_dropShadow_18_13360"/><feBlend in="SourceGraphic" in2="effect1_dropShadow_18_13360" result="shape"/><feColorMatrix in="SourceAlpha" result="hardAlpha" values="0 0 0 0 0 0 0 0 0 0 0 0 0 0 0 0 0 0 127 0"/><feOffset dx=".5"/><feGaussianBlur stdDeviation=".5"/><feComposite in2="hardAlpha" k2="-1" k3="1" operator="arithmetic"/><feColorMatrix values="0 0 0 0 0.478431 0 0 0 0 0.443137 0 0 0 0 0.52549 0 0 0 1 0"/><feBlend in2="shape" result="effect2_innerShadow_18_13360"/></filter><filter id="filter12_di_18_13360" width="3.705" height="3.505" x="9.533" y="21.938" color-interpolation-filters="sRGB" filterUnits="userSpaceOnUse"><feFlood flood-opacity="0" result="BackgroundImageFix"/><feColorMatrix in="SourceAlpha" result="hardAlpha" values="0 0 0 0 0 0 0 0 0 0 0 0 0 0 0 0 0 0 127 0"/><feOffset dx="-.1" dy=".1"/><feGaussianBlur stdDeviation=".2"/><feComposite in2="hardAlpha" operator="out"/><feColorMatrix values="0 0 0 0 0.67451 0 0 0 0 0.592157 0 0 0 0 0.729412 0 0 0 1 0"/><feBlend in2="BackgroundImageFix" result="effect1_dropShadow_18_13360"/><feBlend in="SourceGraphic" in2="effect1_dropShadow_18_13360" result="shape"/><feColorMatrix in="SourceAlpha" result="hardAlpha" values="0 0 0 0 0 0 0 0 0 0 0 0 0 0 0 0 0 0 127 0"/><feOffset dx=".5" dy="-.25"/><feGaussianBlur stdDeviation=".5"/><feComposite in2="hardAlpha" k2="-1" k3="1" operator="arithmetic"/><feColorMatrix values="0 0 0 0 0.478431 0 0 0 0 0.443137 0 0 0 0 0.52549 0 0 0 1 0"/><feBlend in2="shape" result="effect2_innerShadow_18_13360"/></filter><filter id="filter13_ii_18_13360" width="6.945" height="7.395" x="14.982" y="12.857" color-interpolation-filters="sRGB" filterUnits="userSpaceOnUse"><feFlood flood-opacity="0" result="BackgroundImageFix"/><feBlend in="SourceGraphic" in2="BackgroundImageFix" result="shape"/><feColorMatrix in="SourceAlpha" result="hardAlpha" values="0 0 0 0 0 0 0 0 0 0 0 0 0 0 0 0 0 0 127 0"/><feOffset dy=".25"/><feGaussianBlur stdDeviation=".25"/><feComposite in2="hardAlpha" k2="-1" k3="1" operator="arithmetic"/><feColorMatrix values="0 0 0 0 0.533333 0 0 0 0 0.129412 0 0 0 0 0.192157 0 0 0 1 0"/><feBlend in2="shape" result="effect1_innerShadow_18_13360"/><feColorMatrix in="SourceAlpha" result="hardAlpha" values="0 0 0 0 0 0 0 0 0 0 0 0 0 0 0 0 0 0 127 0"/><feOffset dy="-.2"/><feGaussianBlur stdDeviation=".25"/><feComposite in2="hardAlpha" k2="-1" k3="1" operator="arithmetic"/><feColorMatrix values="0 0 0 0 0.717647 0 0 0 0 0.25098 0 0 0 0 0.482353 0 0 0 1 0"/><feBlend in2="effect1_innerShadow_18_13360" result="effect2_innerShadow_18_13360"/></filter><filter id="filter14_f_18_13360" width="6.607" height="6.591" x="15.199" y="13.166" color-interpolation-filters="sRGB" filterUnits="userSpaceOnUse"><feFlood flood-opacity="0" result="BackgroundImageFix"/><feBlend in="SourceGraphic" in2="BackgroundImageFix" result="shape"/><feGaussianBlur result="effect1_foregroundBlur_18_13360" stdDeviation=".3"/></filter><radialGradient id="paint12_radial_18_13360" cx="0" cy="0" r="1" gradientTransform="matrix(8.93279 -13.12596 18.31816 12.4663 12.689 25.623)" gradientUnits="userSpaceOnUse"><stop offset=".455" stop-color="#E4DDEB"/><stop offset="1" stop-color="#D2C2DB"/></radialGradient><radialGradient id="paint13_radial_18_13360" cx="0" cy="0" r="1" gradientTransform="rotate(-24.51 58.304 -6.246) scale(17.928)" gradientUnits="userSpaceOnUse"><stop offset=".81" stop-color="#AD98B7" stop-opacity="0"/><stop offset="1" stop-color="#AD98B7"/></radialGradient><radialGradient id="paint15_radial_18_13360" cx="0" cy="0" r="1" gradientTransform="matrix(-1.25 -.84374 .99675 -1.4767 17.064 13.594)" gradientUnits="userSpaceOnUse"><stop stop-color="#ABA5B3"/><stop offset="1" stop-color="#ABA5B3" stop-opacity="0"/></radialGradient><radialGradient id="paint16_radial_18_13360" cx="0" cy="0" r="1" gradientTransform="matrix(-.60998 1.82813 -1.18117 -.39412 16.595 24)" gradientUnits="userSpaceOnUse"><stop stop-color="#ABA5B3"/><stop offset="1" stop-color="#ABA5B3" stop-opacity="0"/></radialGradient><radialGradient id="paint18_radial_18_13360" cx="0" cy="0" r="1" gradientTransform="rotate(136.37 1.598 11.227) scale(1.404 .93124)" gradientUnits="userSpaceOnUse"><stop stop-color="#ABA5B3"/><stop offset="1" stop-color="#ABA5B3" stop-opacity="0"/></radialGradient><radialGradient id="paint19_radial_18_13360" cx="0" cy="0" r="1" gradientTransform="matrix(.33376 1.83342 -1.14355 .20817 20.251 22.063)" gradientUnits="userSpaceOnUse"><stop stop-color="#ABA5B3"/><stop offset="1" stop-color="#ABA5B3" stop-opacity="0"/></radialGradient><radialGradient id="paint20_radial_18_13360" cx="0" cy="0" r="1" gradientTransform="rotate(178.396 6.145 7.65) scale(1.11669 1.1136)" gradientUnits="userSpaceOnUse"><stop stop-color="#A69FAF"/><stop offset="1" stop-color="#A69FAF" stop-opacity="0"/></radialGradient><radialGradient id="paint22_radial_18_13360" cx="0" cy="0" r="1" gradientTransform="rotate(143.224 2.567 13.555) scale(1.68855 1.05319)" gradientUnits="userSpaceOnUse"><stop stop-color="#ABA5B3"/><stop offset="1" stop-color="#ABA5B3" stop-opacity="0"/></radialGradient><radialGradient id="paint25_radial_18_13360" cx="0" cy="0" r="1" gradientTransform="rotate(137.862 8.06 11.03) scale(1.00098)" gradientUnits="userSpaceOnUse"><stop stop-color="#DF5460"/><stop offset="1" stop-color="#DF5460" stop-opacity="0"/></radialGradient></defs></svg>