<svg xmlns="http://www.w3.org/2000/svg" width="32" height="32" fill="none" viewBox="0 0 32 32"><rect width="2.672" height="4.656" x="5.109" y="25.203" fill="url(#paint0_linear_18_18417)" rx="1.336"/><rect width="2.672" height="4.656" x="5.109" y="25.203" fill="url(#paint1_linear_18_18417)" rx="1.336"/><path stroke="url(#paint2_linear_18_18417)" d="M7.906 9.281 25.734 5.61"/><path stroke="url(#paint3_radial_18_18417)" d="M7.906 9.281 25.734 5.61"/><g filter="url(#filter0_f_18_18417)"><path stroke="url(#paint4_linear_18_18417)" stroke-width=".25" d="M7.906 9.281 25.734 5.61"/></g><g filter="url(#filter1_f_18_18417)"><rect width="1.813" height="3.644" x="5.539" y="25.709" fill="#5C4773" rx=".906"/><rect width="1.813" height="3.644" x="5.539" y="25.709" fill="url(#paint5_radial_18_18417)" rx=".906"/><rect width="1.813" height="3.644" x="5.539" y="25.709" fill="url(#paint6_linear_18_18417)" rx=".906"/></g><rect width="2.672" height="4.656" x="24.133" y="25.203" fill="url(#paint7_linear_18_18417)" rx="1.336"/><rect width="2.672" height="4.656" x="24.133" y="25.203" fill="url(#paint8_linear_18_18417)" rx="1.336"/><g filter="url(#filter2_f_18_18417)"><rect width="1.813" height="3.644" x="24.562" y="25.709" fill="#5C4773" rx=".906"/><rect width="1.813" height="3.644" x="24.562" y="25.709" fill="url(#paint9_radial_18_18417)" rx=".906"/><rect width="1.813" height="3.644" x="24.562" y="25.709" fill="url(#paint10_linear_18_18417)" rx=".906"/></g><g filter="url(#filter3_i_18_18417)"><circle cx="6.93" cy="10.555" r="2.141" fill="url(#paint11_radial_18_18417)"/></g><g filter="url(#filter4_iii_18_18417)"><rect width="27.875" height="17.438" x="2.063" y="10.438" fill="url(#paint12_linear_18_18417)" rx="2.5"/><rect width="27.875" height="17.438" x="2.063" y="10.438" fill="url(#paint13_linear_18_18417)" rx="2.5"/></g><g stroke-width=".75" filter="url(#filter5_f_18_18417)"><rect width="10.219" height="7.211" x="17.281" y="13.383" stroke="url(#paint14_linear_18_18417)" rx="1.25"/><rect width="10.219" height="7.211" x="17.281" y="13.383" stroke="url(#paint15_radial_18_18417)" rx="1.25"/></g><g filter="url(#filter6_f_18_18417)"><path stroke="url(#paint16_linear_18_18417)" stroke-width=".5" d="M4.61 14.063a.68.68 0 0 1 .68-.68h9.523a.68.68 0 1 1 0 1.36H5.289a.68.68 0 0 1-.68-.68Z"/></g><g stroke-width=".5" filter="url(#filter7_f_18_18417)"><path stroke="url(#paint17_linear_18_18417)" d="M4.61 14.063a.68.68 0 0 1 .68-.68h9.523a.68.68 0 1 1 0 1.36H5.289a.68.68 0 0 1-.68-.68Z"/><path stroke="url(#paint18_radial_18_18417)" d="M4.61 14.063a.68.68 0 0 1 .68-.68h9.523a.68.68 0 1 1 0 1.36H5.289a.68.68 0 0 1-.68-.68Z"/></g><g stroke-width=".5" filter="url(#filter8_f_18_18417)"><path stroke="url(#paint19_linear_18_18417)" d="M4.61 16.563a.68.68 0 0 1 .68-.68h9.523a.68.68 0 1 1 0 1.36H5.289a.68.68 0 0 1-.68-.68Z"/><path stroke="url(#paint20_radial_18_18417)" d="M4.61 16.563a.68.68 0 0 1 .68-.68h9.523a.68.68 0 1 1 0 1.36H5.289a.68.68 0 0 1-.68-.68Z"/></g><g stroke-width=".5" filter="url(#filter9_f_18_18417)"><path stroke="url(#paint21_linear_18_18417)" d="M4.61 19.063a.68.68 0 0 1 .68-.68h9.523a.68.68 0 1 1 0 1.36H5.289a.68.68 0 0 1-.68-.68Z"/><path stroke="url(#paint22_radial_18_18417)" d="M4.61 19.063a.68.68 0 0 1 .68-.68h9.523a.68.68 0 1 1 0 1.36H5.289a.68.68 0 0 1-.68-.68Z"/></g><g stroke-width=".5" filter="url(#filter10_f_18_18417)"><path stroke="url(#paint23_linear_18_18417)" d="M4.61 21.563a.68.68 0 0 1 .68-.68h9.523a.68.68 0 1 1 0 1.36H5.289a.68.68 0 0 1-.68-.68Z"/><path stroke="url(#paint24_radial_18_18417)" d="M4.61 21.563a.68.68 0 0 1 .68-.68h9.523a.68.68 0 1 1 0 1.36H5.289a.68.68 0 0 1-.68-.68Z"/></g><g stroke-width=".5" filter="url(#filter11_f_18_18417)"><path stroke="url(#paint25_linear_18_18417)" d="M4.61 24.063a.68.68 0 0 1 .68-.68h9.523a.68.68 0 1 1 0 1.36H5.289a.68.68 0 0 1-.68-.68Z"/><path stroke="url(#paint26_radial_18_18417)" d="M4.61 24.063a.68.68 0 0 1 .68-.68h9.523a.68.68 0 1 1 0 1.36H5.289a.68.68 0 0 1-.68-.68Z"/></g><g filter="url(#filter12_i_18_18417)"><path fill="url(#paint27_linear_18_18417)" d="M4.61 14.063a.68.68 0 0 1 .68-.68h9.523a.68.68 0 1 1 0 1.36H5.289a.68.68 0 0 1-.68-.68Z"/></g><g filter="url(#filter13_i_18_18417)"><path fill="url(#paint28_linear_18_18417)" d="M4.61 16.563a.68.68 0 0 1 .68-.68h9.523a.68.68 0 1 1 0 1.36H5.289a.68.68 0 0 1-.68-.68Z"/></g><g filter="url(#filter14_i_18_18417)"><path fill="url(#paint29_linear_18_18417)" d="M4.61 19.063a.68.68 0 0 1 .68-.68h9.523a.68.68 0 1 1 0 1.36H5.289a.68.68 0 0 1-.68-.68Z"/></g><g filter="url(#filter15_i_18_18417)"><path fill="url(#paint30_linear_18_18417)" d="M4.61 21.563a.68.68 0 0 1 .68-.68h9.523a.68.68 0 1 1 0 1.36H5.289a.68.68 0 0 1-.68-.68Z"/></g><g filter="url(#filter16_i_18_18417)"><path fill="url(#paint31_linear_18_18417)" d="M4.61 24.063a.68.68 0 0 1 .68-.68h9.523a.68.68 0 1 1 0 1.36H5.289a.68.68 0 0 1-.68-.68Z"/></g><g filter="url(#filter17_i_18_18417)"><rect width="10.219" height="7.211" x="17.281" y="13.383" fill="url(#paint32_linear_18_18417)" rx="1.25"/><rect width="10.219" height="7.211" x="17.281" y="13.383" fill="url(#paint33_linear_18_18417)" rx="1.25"/></g><path fill="url(#paint34_linear_18_18417)" d="M20.766 20.594H19.14v-3.375a.813.813 0 1 1 1.625 0v3.375Z"/><g filter="url(#filter18_f_18_18417)"><circle cx="19.813" cy="23.496" r="1.644" fill="url(#paint35_linear_18_18417)"/></g><g filter="url(#filter19_f_18_18417)"><circle cx="19.813" cy="23.496" r="1.347" fill="#9F98A7"/></g><g filter="url(#filter20_f_18_18417)"><circle cx="25.336" cy="23.496" r="1.644" fill="url(#paint36_linear_18_18417)"/></g><g filter="url(#filter21_f_18_18417)"><circle cx="25.336" cy="23.496" r="1.347" fill="#9F98A7"/></g><g filter="url(#filter22_i_18_18417)"><circle cx="19.813" cy="23.496" r="1.203" fill="url(#paint37_linear_18_18417)"/></g><g filter="url(#filter23_f_18_18417)"><circle cx="19.813" cy="23.496" r=".953" fill="#E4DAEF"/></g><g filter="url(#filter24_i_18_18417)"><circle cx="25.336" cy="23.496" r="1.203" fill="url(#paint38_linear_18_18417)"/></g><g filter="url(#filter25_f_18_18417)"><circle cx="25.336" cy="23.496" r=".953" fill="#E4DAEF"/></g><circle cx="25.613" cy="5.617" r="1.09" fill="url(#paint39_radial_18_18417)"/><circle cx="25.613" cy="5.617" r="1.09" fill="url(#paint40_radial_18_18417)"/><defs><linearGradient id="paint0_linear_18_18417" x1="6.909" x2="5.253" y1="29.25" y2="29.25" gradientUnits="userSpaceOnUse"><stop stop-color="#56307A"/><stop offset="1" stop-color="#57446D"/></linearGradient><linearGradient id="paint1_linear_18_18417" x1="6.445" x2="6.445" y1="27.531" y2="28.689" gradientUnits="userSpaceOnUse"><stop offset=".393" stop-color="#4E366A"/><stop offset="1" stop-color="#4E366A" stop-opacity="0"/></linearGradient><linearGradient id="paint2_linear_18_18417" x1="10.847" x2="25.566" y1="9.281" y2="6.094" gradientUnits="userSpaceOnUse"><stop stop-color="#AAA"/><stop offset="1" stop-color="#929095"/></linearGradient><linearGradient id="paint4_linear_18_18417" x1="11.159" x2="25.734" y1="9.031" y2="5.906" gradientUnits="userSpaceOnUse"><stop stop-color="#B8B8B8"/><stop offset="1" stop-color="#B8B8B8" stop-opacity="0"/></linearGradient><linearGradient id="paint6_linear_18_18417" x1="6.445" x2="6.445" y1="27.531" y2="28.437" gradientUnits="userSpaceOnUse"><stop offset=".393" stop-color="#4E366A"/><stop offset="1" stop-color="#4E366A" stop-opacity="0"/></linearGradient><linearGradient id="paint7_linear_18_18417" x1="25.932" x2="24.276" y1="29.25" y2="29.25" gradientUnits="userSpaceOnUse"><stop stop-color="#56307A"/><stop offset="1" stop-color="#57446D"/></linearGradient><linearGradient id="paint8_linear_18_18417" x1="25.468" x2="25.468" y1="27.531" y2="28.689" gradientUnits="userSpaceOnUse"><stop offset=".393" stop-color="#4E366A"/><stop offset="1" stop-color="#4E366A" stop-opacity="0"/></linearGradient><linearGradient id="paint10_linear_18_18417" x1="25.468" x2="25.468" y1="27.531" y2="28.437" gradientUnits="userSpaceOnUse"><stop offset=".393" stop-color="#4E366A"/><stop offset="1" stop-color="#4E366A" stop-opacity="0"/></linearGradient><linearGradient id="paint12_linear_18_18417" x1="29.938" x2="5.154" y1="21.794" y2="21.794" gradientUnits="userSpaceOnUse"><stop stop-color="#B9B3BF"/><stop offset="1" stop-color="#B9B2C0"/></linearGradient><linearGradient id="paint13_linear_18_18417" x1="17.627" x2="17.627" y1="27.523" y2="25.053" gradientUnits="userSpaceOnUse"><stop stop-color="#BAAFC6"/><stop offset="1" stop-color="#B8ACC5" stop-opacity="0"/></linearGradient><linearGradient id="paint14_linear_18_18417" x1="22.391" x2="22.391" y1="13.383" y2="21.063" gradientUnits="userSpaceOnUse"><stop stop-color="#9F94B4"/><stop offset="1" stop-color="#A39EAF"/></linearGradient><linearGradient id="paint16_linear_18_18417" x1="10.051" x2="10.051" y1="13.383" y2="14.742" gradientUnits="userSpaceOnUse"><stop stop-color="#9D90AB"/><stop offset="1" stop-color="#C6C1CB"/></linearGradient><linearGradient id="paint17_linear_18_18417" x1="10.051" x2="10.051" y1="13.383" y2="14.742" gradientUnits="userSpaceOnUse"><stop stop-color="#9D90AB"/><stop offset="1" stop-color="#C6C1CB"/></linearGradient><linearGradient id="paint19_linear_18_18417" x1="10.051" x2="10.051" y1="15.883" y2="17.242" gradientUnits="userSpaceOnUse"><stop stop-color="#9D90AB"/><stop offset="1" stop-color="#C6C1CB"/></linearGradient><linearGradient id="paint21_linear_18_18417" x1="10.051" x2="10.051" y1="18.383" y2="19.742" gradientUnits="userSpaceOnUse"><stop stop-color="#9D90AB"/><stop offset="1" stop-color="#C6C1CB"/></linearGradient><linearGradient id="paint23_linear_18_18417" x1="10.051" x2="10.051" y1="20.883" y2="22.242" gradientUnits="userSpaceOnUse"><stop stop-color="#9D90AB"/><stop offset="1" stop-color="#C6C1CB"/></linearGradient><linearGradient id="paint25_linear_18_18417" x1="10.051" x2="10.051" y1="23.383" y2="24.742" gradientUnits="userSpaceOnUse"><stop stop-color="#9D90AB"/><stop offset="1" stop-color="#C6C1CB"/></linearGradient><linearGradient id="paint27_linear_18_18417" x1="6.097" x2="18.441" y1="14.531" y2="14.531" gradientUnits="userSpaceOnUse"><stop stop-color="#40314E"/><stop offset="1" stop-color="#232026"/></linearGradient><linearGradient id="paint28_linear_18_18417" x1="6.097" x2="18.441" y1="17.031" y2="17.031" gradientUnits="userSpaceOnUse"><stop stop-color="#40314E"/><stop offset="1" stop-color="#232026"/></linearGradient><linearGradient id="paint29_linear_18_18417" x1="6.097" x2="18.441" y1="19.531" y2="19.531" gradientUnits="userSpaceOnUse"><stop stop-color="#40314E"/><stop offset="1" stop-color="#232026"/></linearGradient><linearGradient id="paint30_linear_18_18417" x1="6.097" x2="18.441" y1="22.031" y2="22.031" gradientUnits="userSpaceOnUse"><stop stop-color="#40314E"/><stop offset="1" stop-color="#232026"/></linearGradient><linearGradient id="paint31_linear_18_18417" x1="6.097" x2="18.441" y1="24.531" y2="24.531" gradientUnits="userSpaceOnUse"><stop stop-color="#40314E"/><stop offset="1" stop-color="#232026"/></linearGradient><linearGradient id="paint32_linear_18_18417" x1="22.391" x2="22.391" y1="14.438" y2="20.594" gradientUnits="userSpaceOnUse"><stop stop-color="#56D3FF"/><stop offset="1" stop-color="#3AACF3"/></linearGradient><linearGradient id="paint33_linear_18_18417" x1="30.284" x2="24.628" y1="20.813" y2="20.813" gradientUnits="userSpaceOnUse"><stop stop-color="#3898D8"/><stop offset="1" stop-color="#3898D8" stop-opacity="0"/></linearGradient><linearGradient id="paint34_linear_18_18417" x1="19.5" x2="20.766" y1="19.594" y2="19.594" gradientUnits="userSpaceOnUse"><stop stop-color="#ED3E4E"/><stop offset="1" stop-color="#F03A87"/></linearGradient><linearGradient id="paint35_linear_18_18417" x1="20.904" x2="18.657" y1="21.95" y2="24.695" gradientUnits="userSpaceOnUse"><stop offset=".585" stop-color="#ACA1B9"/><stop offset="1" stop-color="#CDC7D3"/></linearGradient><linearGradient id="paint36_linear_18_18417" x1="26.427" x2="24.18" y1="21.95" y2="24.695" gradientUnits="userSpaceOnUse"><stop offset=".585" stop-color="#ACA1B9"/><stop offset="1" stop-color="#CDC7D3"/></linearGradient><linearGradient id="paint37_linear_18_18417" x1="20.628" x2="18.878" y1="22.469" y2="24.699" gradientUnits="userSpaceOnUse"><stop stop-color="#F0EBF7"/><stop offset="1" stop-color="#C2B3D3"/></linearGradient><linearGradient id="paint38_linear_18_18417" x1="26.151" x2="24.401" y1="22.469" y2="24.699" gradientUnits="userSpaceOnUse"><stop stop-color="#F0EBF7"/><stop offset="1" stop-color="#C2B3D3"/></linearGradient><filter id="filter0_f_18_18417" width="18.378" height="4.417" x="7.631" y="5.237" color-interpolation-filters="sRGB" filterUnits="userSpaceOnUse"><feFlood flood-opacity="0" result="BackgroundImageFix"/><feBlend in="SourceGraphic" in2="BackgroundImageFix" result="shape"/><feGaussianBlur result="effect1_foregroundBlur_18_18417" stdDeviation=".125"/></filter><filter id="filter1_f_18_18417" width="2.413" height="4.244" x="5.239" y="25.409" color-interpolation-filters="sRGB" filterUnits="userSpaceOnUse"><feFlood flood-opacity="0" result="BackgroundImageFix"/><feBlend in="SourceGraphic" in2="BackgroundImageFix" result="shape"/><feGaussianBlur result="effect1_foregroundBlur_18_18417" stdDeviation=".15"/></filter><filter id="filter2_f_18_18417" width="2.413" height="4.244" x="24.262" y="25.409" color-interpolation-filters="sRGB" filterUnits="userSpaceOnUse"><feFlood flood-opacity="0" result="BackgroundImageFix"/><feBlend in="SourceGraphic" in2="BackgroundImageFix" result="shape"/><feGaussianBlur result="effect1_foregroundBlur_18_18417" stdDeviation=".15"/></filter><filter id="filter3_i_18_18417" width="4.281" height="4.281" x="4.789" y="8.414" color-interpolation-filters="sRGB" filterUnits="userSpaceOnUse"><feFlood flood-opacity="0" result="BackgroundImageFix"/><feBlend in="SourceGraphic" in2="BackgroundImageFix" result="shape"/><feColorMatrix in="SourceAlpha" result="hardAlpha" values="0 0 0 0 0 0 0 0 0 0 0 0 0 0 0 0 0 0 127 0"/><feOffset/><feGaussianBlur stdDeviation=".2"/><feComposite in2="hardAlpha" k2="-1" k3="1" operator="arithmetic"/><feColorMatrix values="0 0 0 0 0.8 0 0 0 0 0.8 0 0 0 0 0.8 0 0 0 1 0"/><feBlend in2="shape" result="effect1_innerShadow_18_18417"/></filter><filter id="filter4_iii_18_18417" width="28.675" height="18.238" x="1.663" y="10.037" color-interpolation-filters="sRGB" filterUnits="userSpaceOnUse"><feFlood flood-opacity="0" result="BackgroundImageFix"/><feBlend in="SourceGraphic" in2="BackgroundImageFix" result="shape"/><feColorMatrix in="SourceAlpha" result="hardAlpha" values="0 0 0 0 0 0 0 0 0 0 0 0 0 0 0 0 0 0 127 0"/><feOffset dx="-.4"/><feGaussianBlur stdDeviation=".2"/><feComposite in2="hardAlpha" k2="-1" k3="1" operator="arithmetic"/><feColorMatrix values="0 0 0 0 0.843137 0 0 0 0 0.835294 0 0 0 0 0.854902 0 0 0 1 0"/><feBlend in2="shape" result="effect1_innerShadow_18_18417"/><feColorMatrix in="SourceAlpha" result="hardAlpha" values="0 0 0 0 0 0 0 0 0 0 0 0 0 0 0 0 0 0 127 0"/><feOffset dx=".6" dy=".4"/><feGaussianBlur stdDeviation=".2"/><feComposite in2="hardAlpha" k2="-1" k3="1" operator="arithmetic"/><feColorMatrix values="0 0 0 0 0.682353 0 0 0 0 0.670588 0 0 0 0 0.694118 0 0 0 1 0"/><feBlend in2="effect1_innerShadow_18_18417" result="effect2_innerShadow_18_18417"/><feColorMatrix in="SourceAlpha" result="hardAlpha" values="0 0 0 0 0 0 0 0 0 0 0 0 0 0 0 0 0 0 127 0"/><feOffset dy="-.4"/><feGaussianBlur stdDeviation=".2"/><feComposite in2="hardAlpha" k2="-1" k3="1" operator="arithmetic"/><feColorMatrix values="0 0 0 0 0.662745 0 0 0 0 0.529412 0 0 0 0 0.780392 0 0 0 1 0"/><feBlend in2="effect2_innerShadow_18_18417" result="effect3_innerShadow_18_18417"/></filter><filter id="filter5_f_18_18417" width="12.169" height="9.161" x="16.306" y="12.408" color-interpolation-filters="sRGB" filterUnits="userSpaceOnUse"><feFlood flood-opacity="0" result="BackgroundImageFix"/><feBlend in="SourceGraphic" in2="BackgroundImageFix" result="shape"/><feGaussianBlur result="effect1_foregroundBlur_18_18417" stdDeviation=".3"/></filter><filter id="filter6_f_18_18417" width="11.983" height="2.459" x="4.059" y="12.833" color-interpolation-filters="sRGB" filterUnits="userSpaceOnUse"><feFlood flood-opacity="0" result="BackgroundImageFix"/><feBlend in="SourceGraphic" in2="BackgroundImageFix" result="shape"/><feGaussianBlur result="effect1_foregroundBlur_18_18417" stdDeviation=".15"/></filter><filter id="filter7_f_18_18417" width="11.983" height="2.459" x="4.059" y="12.833" color-interpolation-filters="sRGB" filterUnits="userSpaceOnUse"><feFlood flood-opacity="0" result="BackgroundImageFix"/><feBlend in="SourceGraphic" in2="BackgroundImageFix" result="shape"/><feGaussianBlur result="effect1_foregroundBlur_18_18417" stdDeviation=".15"/></filter><filter id="filter8_f_18_18417" width="11.983" height="2.459" x="4.059" y="15.333" color-interpolation-filters="sRGB" filterUnits="userSpaceOnUse"><feFlood flood-opacity="0" result="BackgroundImageFix"/><feBlend in="SourceGraphic" in2="BackgroundImageFix" result="shape"/><feGaussianBlur result="effect1_foregroundBlur_18_18417" stdDeviation=".15"/></filter><filter id="filter9_f_18_18417" width="11.983" height="2.459" x="4.059" y="17.833" color-interpolation-filters="sRGB" filterUnits="userSpaceOnUse"><feFlood flood-opacity="0" result="BackgroundImageFix"/><feBlend in="SourceGraphic" in2="BackgroundImageFix" result="shape"/><feGaussianBlur result="effect1_foregroundBlur_18_18417" stdDeviation=".15"/></filter><filter id="filter10_f_18_18417" width="11.983" height="2.459" x="4.059" y="20.333" color-interpolation-filters="sRGB" filterUnits="userSpaceOnUse"><feFlood flood-opacity="0" result="BackgroundImageFix"/><feBlend in="SourceGraphic" in2="BackgroundImageFix" result="shape"/><feGaussianBlur result="effect1_foregroundBlur_18_18417" stdDeviation=".15"/></filter><filter id="filter11_f_18_18417" width="11.983" height="2.459" x="4.059" y="22.833" color-interpolation-filters="sRGB" filterUnits="userSpaceOnUse"><feFlood flood-opacity="0" result="BackgroundImageFix"/><feBlend in="SourceGraphic" in2="BackgroundImageFix" result="shape"/><feGaussianBlur result="effect1_foregroundBlur_18_18417" stdDeviation=".15"/></filter><filter id="filter12_i_18_18417" width="10.883" height="1.509" x="4.609" y="13.383" color-interpolation-filters="sRGB" filterUnits="userSpaceOnUse"><feFlood flood-opacity="0" result="BackgroundImageFix"/><feBlend in="SourceGraphic" in2="BackgroundImageFix" result="shape"/><feColorMatrix in="SourceAlpha" result="hardAlpha" values="0 0 0 0 0 0 0 0 0 0 0 0 0 0 0 0 0 0 127 0"/><feOffset dy=".15"/><feGaussianBlur stdDeviation=".125"/><feComposite in2="hardAlpha" k2="-1" k3="1" operator="arithmetic"/><feColorMatrix values="0 0 0 0 0.0941176 0 0 0 0 0 0 0 0 0 0.172549 0 0 0 1 0"/><feBlend in2="shape" result="effect1_innerShadow_18_18417"/></filter><filter id="filter13_i_18_18417" width="10.883" height="1.509" x="4.609" y="15.883" color-interpolation-filters="sRGB" filterUnits="userSpaceOnUse"><feFlood flood-opacity="0" result="BackgroundImageFix"/><feBlend in="SourceGraphic" in2="BackgroundImageFix" result="shape"/><feColorMatrix in="SourceAlpha" result="hardAlpha" values="0 0 0 0 0 0 0 0 0 0 0 0 0 0 0 0 0 0 127 0"/><feOffset dy=".15"/><feGaussianBlur stdDeviation=".125"/><feComposite in2="hardAlpha" k2="-1" k3="1" operator="arithmetic"/><feColorMatrix values="0 0 0 0 0.0941176 0 0 0 0 0 0 0 0 0 0.172549 0 0 0 1 0"/><feBlend in2="shape" result="effect1_innerShadow_18_18417"/></filter><filter id="filter14_i_18_18417" width="10.883" height="1.509" x="4.609" y="18.383" color-interpolation-filters="sRGB" filterUnits="userSpaceOnUse"><feFlood flood-opacity="0" result="BackgroundImageFix"/><feBlend in="SourceGraphic" in2="BackgroundImageFix" result="shape"/><feColorMatrix in="SourceAlpha" result="hardAlpha" values="0 0 0 0 0 0 0 0 0 0 0 0 0 0 0 0 0 0 127 0"/><feOffset dy=".15"/><feGaussianBlur stdDeviation=".125"/><feComposite in2="hardAlpha" k2="-1" k3="1" operator="arithmetic"/><feColorMatrix values="0 0 0 0 0.0941176 0 0 0 0 0 0 0 0 0 0.172549 0 0 0 1 0"/><feBlend in2="shape" result="effect1_innerShadow_18_18417"/></filter><filter id="filter15_i_18_18417" width="10.883" height="1.509" x="4.609" y="20.883" color-interpolation-filters="sRGB" filterUnits="userSpaceOnUse"><feFlood flood-opacity="0" result="BackgroundImageFix"/><feBlend in="SourceGraphic" in2="BackgroundImageFix" result="shape"/><feColorMatrix in="SourceAlpha" result="hardAlpha" values="0 0 0 0 0 0 0 0 0 0 0 0 0 0 0 0 0 0 127 0"/><feOffset dy=".15"/><feGaussianBlur stdDeviation=".125"/><feComposite in2="hardAlpha" k2="-1" k3="1" operator="arithmetic"/><feColorMatrix values="0 0 0 0 0.0941176 0 0 0 0 0 0 0 0 0 0.172549 0 0 0 1 0"/><feBlend in2="shape" result="effect1_innerShadow_18_18417"/></filter><filter id="filter16_i_18_18417" width="10.883" height="1.509" x="4.609" y="23.383" color-interpolation-filters="sRGB" filterUnits="userSpaceOnUse"><feFlood flood-opacity="0" result="BackgroundImageFix"/><feBlend in="SourceGraphic" in2="BackgroundImageFix" result="shape"/><feColorMatrix in="SourceAlpha" result="hardAlpha" values="0 0 0 0 0 0 0 0 0 0 0 0 0 0 0 0 0 0 127 0"/><feOffset dy=".15"/><feGaussianBlur stdDeviation=".125"/><feComposite in2="hardAlpha" k2="-1" k3="1" operator="arithmetic"/><feColorMatrix values="0 0 0 0 0.0941176 0 0 0 0 0 0 0 0 0 0.172549 0 0 0 1 0"/><feBlend in2="shape" result="effect1_innerShadow_18_18417"/></filter><filter id="filter17_i_18_18417" width="10.519" height="7.511" x="16.981" y="13.383" color-interpolation-filters="sRGB" filterUnits="userSpaceOnUse"><feFlood flood-opacity="0" result="BackgroundImageFix"/><feBlend in="SourceGraphic" in2="BackgroundImageFix" result="shape"/><feColorMatrix in="SourceAlpha" result="hardAlpha" values="0 0 0 0 0 0 0 0 0 0 0 0 0 0 0 0 0 0 127 0"/><feOffset dx="-.3" dy=".3"/><feGaussianBlur stdDeviation=".3"/><feComposite in2="hardAlpha" k2="-1" k3="1" operator="arithmetic"/><feColorMatrix values="0 0 0 0 0.188235 0 0 0 0 0.517647 0 0 0 0 0.741176 0 0 0 1 0"/><feBlend in2="shape" result="effect1_innerShadow_18_18417"/></filter><filter id="filter18_f_18_18417" width="3.887" height="3.887" x="17.869" y="21.552" color-interpolation-filters="sRGB" filterUnits="userSpaceOnUse"><feFlood flood-opacity="0" result="BackgroundImageFix"/><feBlend in="SourceGraphic" in2="BackgroundImageFix" result="shape"/><feGaussianBlur result="effect1_foregroundBlur_18_18417" stdDeviation=".15"/></filter><filter id="filter19_f_18_18417" width="3.193" height="3.193" x="18.216" y="21.899" color-interpolation-filters="sRGB" filterUnits="userSpaceOnUse"><feFlood flood-opacity="0" result="BackgroundImageFix"/><feBlend in="SourceGraphic" in2="BackgroundImageFix" result="shape"/><feGaussianBlur result="effect1_foregroundBlur_18_18417" stdDeviation=".125"/></filter><filter id="filter20_f_18_18417" width="3.887" height="3.887" x="23.392" y="21.552" color-interpolation-filters="sRGB" filterUnits="userSpaceOnUse"><feFlood flood-opacity="0" result="BackgroundImageFix"/><feBlend in="SourceGraphic" in2="BackgroundImageFix" result="shape"/><feGaussianBlur result="effect1_foregroundBlur_18_18417" stdDeviation=".15"/></filter><filter id="filter21_f_18_18417" width="3.193" height="3.193" x="23.739" y="21.899" color-interpolation-filters="sRGB" filterUnits="userSpaceOnUse"><feFlood flood-opacity="0" result="BackgroundImageFix"/><feBlend in="SourceGraphic" in2="BackgroundImageFix" result="shape"/><feGaussianBlur result="effect1_foregroundBlur_18_18417" stdDeviation=".125"/></filter><filter id="filter22_i_18_18417" width="2.406" height="2.406" x="18.609" y="22.293" color-interpolation-filters="sRGB" filterUnits="userSpaceOnUse"><feFlood flood-opacity="0" result="BackgroundImageFix"/><feBlend in="SourceGraphic" in2="BackgroundImageFix" result="shape"/><feColorMatrix in="SourceAlpha" result="hardAlpha" values="0 0 0 0 0 0 0 0 0 0 0 0 0 0 0 0 0 0 127 0"/><feOffset/><feGaussianBlur stdDeviation=".1"/><feComposite in2="hardAlpha" k2="-1" k3="1" operator="arithmetic"/><feColorMatrix values="0 0 0 0 0.733333 0 0 0 0 0.686275 0 0 0 0 0.780392 0 0 0 1 0"/><feBlend in2="shape" result="effect1_innerShadow_18_18417"/></filter><filter id="filter23_f_18_18417" width="2.406" height="2.406" x="18.609" y="22.293" color-interpolation-filters="sRGB" filterUnits="userSpaceOnUse"><feFlood flood-opacity="0" result="BackgroundImageFix"/><feBlend in="SourceGraphic" in2="BackgroundImageFix" result="shape"/><feGaussianBlur result="effect1_foregroundBlur_18_18417" stdDeviation=".125"/></filter><filter id="filter24_i_18_18417" width="2.406" height="2.406" x="24.133" y="22.293" color-interpolation-filters="sRGB" filterUnits="userSpaceOnUse"><feFlood flood-opacity="0" result="BackgroundImageFix"/><feBlend in="SourceGraphic" in2="BackgroundImageFix" result="shape"/><feColorMatrix in="SourceAlpha" result="hardAlpha" values="0 0 0 0 0 0 0 0 0 0 0 0 0 0 0 0 0 0 127 0"/><feOffset/><feGaussianBlur stdDeviation=".1"/><feComposite in2="hardAlpha" k2="-1" k3="1" operator="arithmetic"/><feColorMatrix values="0 0 0 0 0.733333 0 0 0 0 0.686275 0 0 0 0 0.780392 0 0 0 1 0"/><feBlend in2="shape" result="effect1_innerShadow_18_18417"/></filter><filter id="filter25_f_18_18417" width="2.406" height="2.406" x="24.133" y="22.293" color-interpolation-filters="sRGB" filterUnits="userSpaceOnUse"><feFlood flood-opacity="0" result="BackgroundImageFix"/><feBlend in="SourceGraphic" in2="BackgroundImageFix" result="shape"/><feGaussianBlur result="effect1_foregroundBlur_18_18417" stdDeviation=".125"/></filter><radialGradient id="paint3_radial_18_18417" cx="0" cy="0" r="1" gradientTransform="matrix(-1.125 .1875 -.49787 -2.98734 25.253 6.156)" gradientUnits="userSpaceOnUse"><stop offset=".311" stop-color="#939096"/><stop offset="1" stop-color="#939096" stop-opacity="0"/></radialGradient><radialGradient id="paint5_radial_18_18417" cx="0" cy="0" r="1" gradientTransform="matrix(1.35938 0 0 1.71875 6.081 28.234)" gradientUnits="userSpaceOnUse"><stop offset=".552" stop-color="#614D78" stop-opacity="0"/><stop offset=".954" stop-color="#614D78"/></radialGradient><radialGradient id="paint9_radial_18_18417" cx="0" cy="0" r="1" gradientTransform="matrix(1.35938 0 0 1.71875 25.104 28.234)" gradientUnits="userSpaceOnUse"><stop offset=".552" stop-color="#614D78" stop-opacity="0"/><stop offset=".954" stop-color="#614D78"/></radialGradient><radialGradient id="paint11_radial_18_18417" cx="0" cy="0" r="1" gradientTransform="matrix(-2.8125 .9375 -.75938 -2.27812 8.16 9.781)" gradientUnits="userSpaceOnUse"><stop stop-color="#EEE"/><stop offset=".817" stop-color="#CFCFCF"/></radialGradient><radialGradient id="paint15_radial_18_18417" cx="0" cy="0" r="1" gradientTransform="matrix(3.34375 -1.625 5.33572 10.97922 16.566 20.125)" gradientUnits="userSpaceOnUse"><stop offset=".242" stop-color="#CECBD6"/><stop offset="1" stop-color="#CECBD6" stop-opacity="0"/></radialGradient><radialGradient id="paint18_radial_18_18417" cx="0" cy="0" r="1" gradientTransform="rotate(-48.86 18.634 2.07) scale(.9025 3.16679)" gradientUnits="userSpaceOnUse"><stop stop-color="#C9C5CE"/><stop offset="1" stop-color="#C9C5CE" stop-opacity="0"/></radialGradient><radialGradient id="paint20_radial_18_18417" cx="0" cy="0" r="1" gradientTransform="rotate(-48.86 21.386 3.32) scale(.9025 3.16679)" gradientUnits="userSpaceOnUse"><stop stop-color="#C9C5CE"/><stop offset="1" stop-color="#C9C5CE" stop-opacity="0"/></radialGradient><radialGradient id="paint22_radial_18_18417" cx="0" cy="0" r="1" gradientTransform="rotate(-48.86 24.138 4.57) scale(.9025 3.16679)" gradientUnits="userSpaceOnUse"><stop stop-color="#C9C5CE"/><stop offset="1" stop-color="#C9C5CE" stop-opacity="0"/></radialGradient><radialGradient id="paint24_radial_18_18417" cx="0" cy="0" r="1" gradientTransform="rotate(-48.86 26.89 5.82) scale(.9025 3.16679)" gradientUnits="userSpaceOnUse"><stop stop-color="#C9C5CE"/><stop offset="1" stop-color="#C9C5CE" stop-opacity="0"/></radialGradient><radialGradient id="paint26_radial_18_18417" cx="0" cy="0" r="1" gradientTransform="rotate(-48.86 29.641 7.07) scale(.9025 3.16679)" gradientUnits="userSpaceOnUse"><stop stop-color="#C9C5CE"/><stop offset="1" stop-color="#C9C5CE" stop-opacity="0"/></radialGradient><radialGradient id="paint39_radial_18_18417" cx="0" cy="0" r="1" gradientTransform="rotate(155.469 12.636 5.562) scale(2.10746)" gradientUnits="userSpaceOnUse"><stop offset=".307" stop-color="#BEBDBF"/><stop offset="1" stop-color="#918E95"/></radialGradient><radialGradient id="paint40_radial_18_18417" cx="0" cy="0" r="1" gradientTransform="matrix(-1.08994 .28125 -.13065 -.50633 26.702 5.218)" gradientUnits="userSpaceOnUse"><stop offset=".383" stop-color="#D3D1D4"/><stop offset="1" stop-color="#D3D1D4" stop-opacity="0"/></radialGradient></defs></svg>