<svg xmlns="http://www.w3.org/2000/svg" width="32" height="32" fill="none" viewBox="0 0 32 32"><path fill="url(#paint0_linear_18590_1767)" d="M2.195 9.408c0-1.69 1.38-3.06 3.06-3.06h21.85c1.69 0 3.06 1.38 3.06 3.06 0 1.69-1.38 3.06-3.06 3.06H5.255c-1.68 0-3.06-1.38-3.06-3.06Z"/><path fill="url(#paint1_linear_18590_1767)" d="M2.195 9.408c0-1.69 1.38-3.06 3.06-3.06h21.85c1.69 0 3.06 1.38 3.06 3.06 0 1.69-1.38 3.06-3.06 3.06H5.255c-1.68 0-3.06-1.38-3.06-3.06Z"/><path fill="url(#paint2_radial_18590_1767)" d="M2.195 9.408c0-1.69 1.38-3.06 3.06-3.06h21.85c1.69 0 3.06 1.38 3.06 3.06 0 1.69-1.38 3.06-3.06 3.06H5.255c-1.68 0-3.06-1.38-3.06-3.06Z"/><path fill="url(#paint3_linear_18590_1767)" d="M2.195 9.408c0-1.69 1.38-3.06 3.06-3.06h21.85c1.69 0 3.06 1.38 3.06 3.06 0 1.69-1.38 3.06-3.06 3.06H5.255c-1.68 0-3.06-1.38-3.06-3.06Z"/><path fill="url(#paint4_linear_18590_1767)" d="M2.195 21.369c0-1.69 1.38-3.06 3.06-3.06h21.85c1.69 0 3.06 1.38 3.06 3.06 0 1.69-1.38 3.06-3.06 3.06H5.255c-1.68 0-3.06-1.38-3.06-3.06Z"/><path fill="url(#paint5_linear_18590_1767)" d="M2.195 21.369c0-1.69 1.38-3.06 3.06-3.06h21.85c1.69 0 3.06 1.38 3.06 3.06 0 1.69-1.38 3.06-3.06 3.06H5.255c-1.68 0-3.06-1.38-3.06-3.06Z"/><path fill="url(#paint6_radial_18590_1767)" d="M2.195 21.369c0-1.69 1.38-3.06 3.06-3.06h21.85c1.69 0 3.06 1.38 3.06 3.06 0 1.69-1.38 3.06-3.06 3.06H5.255c-1.68 0-3.06-1.38-3.06-3.06Z"/><path fill="url(#paint7_linear_18590_1767)" d="M2.195 21.369c0-1.69 1.38-3.06 3.06-3.06h21.85c1.69 0 3.06 1.38 3.06 3.06 0 1.69-1.38 3.06-3.06 3.06H5.255c-1.68 0-3.06-1.38-3.06-3.06Z"/><g filter="url(#filter0_f_18590_1767)"><path fill="#5F526E" d="M5.29 7.489h23.366v2.276H5.29z"/></g><g filter="url(#filter1_f_18590_1767)"><path fill="#5F526E" d="M5.29 19.45h23.366v2.276H5.29z"/></g><defs><linearGradient id="paint0_linear_18590_1767" x1="16.18" x2="16.18" y1="6.348" y2="12.468" gradientUnits="userSpaceOnUse"><stop stop-color="#564764"/><stop offset="1" stop-color="#45315A"/></linearGradient><linearGradient id="paint1_linear_18590_1767" x1="2.195" x2="5.441" y1="9.408" y2="9.408" gradientUnits="userSpaceOnUse"><stop offset=".314" stop-color="#342D3C"/><stop offset="1" stop-color="#342D3C" stop-opacity="0"/></linearGradient><linearGradient id="paint3_linear_18590_1767" x1="18.065" x2="18.065" y1="12.468" y2="10.298" gradientUnits="userSpaceOnUse"><stop stop-color="#3A2250"/><stop offset="1" stop-color="#3A2250" stop-opacity="0"/></linearGradient><linearGradient id="paint4_linear_18590_1767" x1="16.18" x2="16.18" y1="18.309" y2="24.429" gradientUnits="userSpaceOnUse"><stop stop-color="#564764"/><stop offset="1" stop-color="#45315A"/></linearGradient><linearGradient id="paint5_linear_18590_1767" x1="2.195" x2="5.441" y1="21.369" y2="21.369" gradientUnits="userSpaceOnUse"><stop offset=".314" stop-color="#342D3C"/><stop offset="1" stop-color="#342D3C" stop-opacity="0"/></linearGradient><linearGradient id="paint7_linear_18590_1767" x1="18.065" x2="18.065" y1="24.429" y2="22.259" gradientUnits="userSpaceOnUse"><stop stop-color="#3A2250"/><stop offset="1" stop-color="#3A2250" stop-opacity="0"/></linearGradient><radialGradient id="paint2_radial_18590_1767" cx="0" cy="0" r="1" gradientTransform="matrix(-3.33793 0 0 -3.68387 29.768 8.349)" gradientUnits="userSpaceOnUse"><stop stop-color="#796E85"/><stop offset="1" stop-color="#6C6673" stop-opacity="0"/><stop offset="1" stop-color="#796E85" stop-opacity="0"/></radialGradient><radialGradient id="paint6_radial_18590_1767" cx="0" cy="0" r="1" gradientTransform="matrix(-3.33793 0 0 -3.68387 29.768 20.31)" gradientUnits="userSpaceOnUse"><stop stop-color="#796E85"/><stop offset="1" stop-color="#6C6673" stop-opacity="0"/><stop offset="1" stop-color="#796E85" stop-opacity="0"/></radialGradient><filter id="filter0_f_18590_1767" width="26.366" height="5.276" x="3.79" y="5.989" color-interpolation-filters="sRGB" filterUnits="userSpaceOnUse"><feFlood flood-opacity="0" result="BackgroundImageFix"/><feBlend in="SourceGraphic" in2="BackgroundImageFix" result="shape"/><feGaussianBlur result="effect1_foregroundBlur_18590_1767" stdDeviation=".75"/></filter><filter id="filter1_f_18590_1767" width="26.366" height="5.276" x="3.79" y="17.95" color-interpolation-filters="sRGB" filterUnits="userSpaceOnUse"><feFlood flood-opacity="0" result="BackgroundImageFix"/><feBlend in="SourceGraphic" in2="BackgroundImageFix" result="shape"/><feGaussianBlur result="effect1_foregroundBlur_18590_1767" stdDeviation=".75"/></filter></defs></svg>