<svg xmlns="http://www.w3.org/2000/svg" width="32" height="32" fill="none" viewBox="0 0 32 32"><path fill="url(#paint0_linear_18_30687)" d="M2.143 10.067 7.62 8.056a5.835 5.835 0 0 1 7.488 3.467l-5.477 2.01a5.835 5.835 0 0 1-7.488-3.466Z"/><path fill="url(#paint1_linear_18_30687)" d="M2.143 10.067 7.62 8.056a5.835 5.835 0 0 1 7.488 3.467l-5.477 2.01a5.835 5.835 0 0 1-7.488-3.466Z"/><path fill="url(#paint2_linear_18_30687)" d="M2.143 10.067 7.62 8.056a5.835 5.835 0 0 1 7.488 3.467l-5.477 2.01a5.835 5.835 0 0 1-7.488-3.466Z"/><g filter="url(#filter0_f_18_30687)"><path fill="url(#paint3_linear_18_30687)" d="M7.793 8.525a5.335 5.335 0 0 1 6.652 2.709l-4.986 1.83a5.335 5.335 0 0 1-6.653-2.708l4.987-1.83Z"/></g><g filter="url(#filter1_f_18_30687)"><path fill="url(#paint4_linear_18_30687)" d="M14.111 10.86a5.335 5.335 0 0 0-6.74-2.482l-.311.126a5.685 5.685 0 0 1 6.484 2.586l.567-.23Z"/></g><path fill="url(#paint5_linear_18_30687)" fill-rule="evenodd" d="M16.495 2.182a1 1 0 0 1 .543 1.306c-.673 1.63-1.488 6.038.834 10.096a1 1 0 1 1-1.736.993c-2.716-4.746-1.78-9.835-.947-11.852a1 1 0 0 1 1.306-.543Z" clip-rule="evenodd"/><g filter="url(#filter2_f_18_30687)"><path stroke="url(#paint6_linear_18_30687)" stroke-linecap="round" stroke-linejoin="round" d="M16.134 3.101c-1.747 4.915 0 9.086 0 9.086"/></g><g stroke-linecap="round" stroke-linejoin="round" stroke-width=".5" filter="url(#filter3_f_18_30687)"><path stroke="url(#paint7_linear_18_30687)" d="M16.375 2.692c-1.747 4.915.16 9.388.16 9.388"/><path stroke="url(#paint8_linear_18_30687)" d="M16.375 2.692c-1.747 4.915.16 9.388.16 9.388"/></g><circle cx="21.957" cy="25.828" r="4.099" fill="url(#paint9_radial_18_30687)"/><circle cx="21.957" cy="25.828" r="4.099" fill="url(#paint10_radial_18_30687)"/><circle cx="21.957" cy="25.828" r="4.099" fill="url(#paint11_radial_18_30687)"/><mask id="mask0_18_30687" width="10" height="9" x="17" y="21" maskUnits="userSpaceOnUse" style="mask-type:alpha"><circle cx="21.957" cy="25.828" r="4.099" fill="#000"/></mask><g mask="url(#mask0_18_30687)"><g filter="url(#filter4_f_18_30687)"><circle cx="16.934" cy="22.491" r="4.099" fill="#000" fill-opacity=".8"/></g><g filter="url(#filter5_f_18_30687)"><circle cx="23.099" cy="19.503" r="4.099" fill="#000" fill-opacity=".6"/></g></g><circle cx="23.099" cy="19.503" r="4.099" fill="url(#paint12_radial_18_30687)"/><circle cx="23.099" cy="19.503" r="4.099" fill="url(#paint13_radial_18_30687)"/><circle cx="23.099" cy="19.503" r="4.099" fill="url(#paint14_radial_18_30687)"/><mask id="mask1_18_30687" width="9" height="9" x="19" y="15" maskUnits="userSpaceOnUse" style="mask-type:alpha"><circle cx="23.099" cy="19.503" r="4.099" fill="#000"/></mask><g mask="url(#mask1_18_30687)"><g filter="url(#filter6_f_18_30687)"><circle cx="17.34" cy="15.405" r="4.099" fill="#000" fill-opacity=".8"/></g><g filter="url(#filter7_f_18_30687)"><circle cx="23.099" cy="13.188" r="4.099" fill="#000" fill-opacity=".8"/></g></g><circle cx="16.934" cy="22.491" r="4.099" fill="url(#paint15_radial_18_30687)"/><circle cx="16.934" cy="22.491" r="4.099" fill="url(#paint16_radial_18_30687)"/><circle cx="16.934" cy="22.491" r="4.099" fill="url(#paint17_radial_18_30687)"/><mask id="mask2_18_30687" width="10" height="9" x="12" y="18" maskUnits="userSpaceOnUse" style="mask-type:alpha"><circle cx="16.934" cy="22.491" r="4.099" fill="#000"/></mask><g mask="url(#mask2_18_30687)"><g filter="url(#filter8_f_18_30687)"><circle cx="11.746" cy="18.373" r="4.099" fill="#000" fill-opacity=".6"/></g><g filter="url(#filter9_f_18_30687)"><circle cx="17.34" cy="15.405" r="4.099" fill="#000" fill-opacity=".8"/></g></g><circle cx="11.746" cy="18.373" r="4.099" fill="url(#paint18_radial_18_30687)"/><circle cx="11.746" cy="18.373" r="4.099" fill="url(#paint19_radial_18_30687)"/><circle cx="11.746" cy="18.373" r="4.099" fill="url(#paint20_radial_18_30687)"/><mask id="mask3_18_30687" width="9" height="9" x="7" y="14" maskUnits="userSpaceOnUse" style="mask-type:alpha"><circle cx="11.746" cy="18.373" r="4.099" fill="#000"/></mask><g filter="url(#filter10_f_18_30687)" mask="url(#mask3_18_30687)"><circle cx="17.34" cy="15.405" r="4.099" fill="#000"/></g><circle cx="23.099" cy="13.188" r="4.099" fill="url(#paint21_radial_18_30687)"/><circle cx="23.099" cy="13.188" r="4.099" fill="url(#paint22_radial_18_30687)"/><circle cx="23.099" cy="13.188" r="4.099" fill="url(#paint23_radial_18_30687)"/><mask id="mask4_18_30687" width="9" height="9" x="19" y="9" maskUnits="userSpaceOnUse" style="mask-type:alpha"><circle cx="23.099" cy="13.188" r="4.099" fill="#000"/></mask><g filter="url(#filter11_f_18_30687)" mask="url(#mask4_18_30687)"><circle cx="17.34" cy="15.405" r="4.099" fill="#000" fill-opacity=".6"/></g><circle cx="17.34" cy="15.405" r="4.099" fill="url(#paint24_radial_18_30687)"/><circle cx="17.34" cy="15.405" r="4.099" fill="url(#paint25_radial_18_30687)"/><defs><radialGradient id="paint9_radial_18_30687" cx="0" cy="0" r="1" gradientTransform="rotate(142.712 7.315 16.104) scale(5.4775)" gradientUnits="userSpaceOnUse"><stop stop-color="#764FBE"/><stop offset=".474" stop-color="#7542B7"/><stop offset="1" stop-color="#57198E"/></radialGradient><radialGradient id="paint10_radial_18_30687" cx="0" cy="0" r="1" gradientTransform="rotate(49.505 -15.257 36.781) scale(3.13336)" gradientUnits="userSpaceOnUse"><stop stop-color="#997ED0" stop-opacity=".6"/><stop offset="1" stop-color="#997ED0" stop-opacity="0"/></radialGradient><radialGradient id="paint11_radial_18_30687" cx="0" cy="0" r="1" gradientTransform="rotate(-2.426 611.74 -375.032) scale(6.25215)" gradientUnits="userSpaceOnUse"><stop stop-opacity=".5"/><stop offset="1" stop-opacity="0"/></radialGradient><radialGradient id="paint12_radial_18_30687" cx="0" cy="0" r="1" gradientTransform="rotate(142.712 8.953 13.134) scale(5.4775)" gradientUnits="userSpaceOnUse"><stop stop-color="#764FBE"/><stop offset=".474" stop-color="#7542B7"/><stop offset="1" stop-color="#57198E"/></radialGradient><radialGradient id="paint13_radial_18_30687" cx="0" cy="0" r="1" gradientTransform="rotate(49.505 -7.827 34.857) scale(3.13336)" gradientUnits="userSpaceOnUse"><stop stop-color="#997ED0" stop-opacity=".6"/><stop offset="1" stop-color="#997ED0" stop-opacity="0"/></radialGradient><radialGradient id="paint14_radial_18_30687" cx="0" cy="0" r="1" gradientTransform="rotate(-2.426 462.977 -405.155) scale(6.25215)" gradientUnits="userSpaceOnUse"><stop stop-opacity=".5"/><stop offset="1" stop-opacity="0"/></radialGradient><radialGradient id="paint15_radial_18_30687" cx="0" cy="0" r="1" gradientTransform="rotate(142.712 5.367 13.589) scale(5.4775)" gradientUnits="userSpaceOnUse"><stop stop-color="#764FBE"/><stop offset=".474" stop-color="#7542B7"/><stop offset="1" stop-color="#57198E"/></radialGradient><radialGradient id="paint16_radial_18_30687" cx="0" cy="0" r="1" gradientTransform="rotate(49.505 -14.15 29.666) scale(3.13336)" gradientUnits="userSpaceOnUse"><stop stop-color="#997ED0" stop-opacity=".6"/><stop offset="1" stop-color="#997ED0" stop-opacity="0"/></radialGradient><radialGradient id="paint17_radial_18_30687" cx="0" cy="0" r="1" gradientTransform="rotate(-2.426 530.446 -258.114) scale(6.25215)" gradientUnits="userSpaceOnUse"><stop stop-opacity=".5"/><stop offset="1" stop-opacity="0"/></radialGradient><radialGradient id="paint18_radial_18_30687" cx="0" cy="0" r="1" gradientTransform="rotate(142.712 3.467 10.654) scale(5.4775)" gradientUnits="userSpaceOnUse"><stop stop-color="#764FBE"/><stop offset=".474" stop-color="#7542B7"/><stop offset="1" stop-color="#57198E"/></radialGradient><radialGradient id="paint19_radial_18_30687" cx="0" cy="0" r="1" gradientTransform="rotate(49.505 -12.278 21.98) scale(3.13336)" gradientUnits="userSpaceOnUse"><stop stop-color="#997ED0" stop-opacity=".2"/><stop offset="1" stop-color="#997ED0" stop-opacity="0"/></radialGradient><radialGradient id="paint20_radial_18_30687" cx="0" cy="0" r="1" gradientTransform="rotate(-2.426 430.624 -137.687) scale(6.25215)" gradientUnits="userSpaceOnUse"><stop stop-opacity=".5"/><stop offset="1" stop-opacity="0"/></radialGradient><radialGradient id="paint21_radial_18_30687" cx="0" cy="0" r="1" gradientTransform="rotate(142.712 10.018 9.977) scale(5.4775)" gradientUnits="userSpaceOnUse"><stop stop-color="#764FBE"/><stop offset=".474" stop-color="#7542B7"/><stop offset="1" stop-color="#57198E"/></radialGradient><radialGradient id="paint22_radial_18_30687" cx="0" cy="0" r="1" gradientTransform="rotate(49.505 -.978 31.7) scale(3.13336)" gradientUnits="userSpaceOnUse"><stop stop-color="#997ED0" stop-opacity=".6"/><stop offset="1" stop-color="#997ED0" stop-opacity="0"/></radialGradient><radialGradient id="paint23_radial_18_30687" cx="0" cy="0" r="1" gradientTransform="rotate(-2.426 313.865 -408.313) scale(6.25215)" gradientUnits="userSpaceOnUse"><stop stop-opacity=".5"/><stop offset="1" stop-opacity="0"/></radialGradient><radialGradient id="paint24_radial_18_30687" cx="0" cy="0" r="1" gradientTransform="rotate(142.712 6.765 10.114) scale(5.4775)" gradientUnits="userSpaceOnUse"><stop stop-color="#764FBE"/><stop offset=".474" stop-color="#7542B7"/><stop offset="1" stop-color="#57198E"/></radialGradient><radialGradient id="paint25_radial_18_30687" cx="0" cy="0" r="1" gradientTransform="rotate(49.505 -6.261 26.563) scale(3.13336)" gradientUnits="userSpaceOnUse"><stop stop-color="#997ED0"/><stop offset="1" stop-color="#997ED0" stop-opacity="0"/></radialGradient><filter id="filter0_f_18_30687" width="13.639" height="7.195" x="1.806" y="7.197" color-interpolation-filters="sRGB" filterUnits="userSpaceOnUse"><feFlood flood-opacity="0" result="BackgroundImageFix"/><feBlend in="SourceGraphic" in2="BackgroundImageFix" result="shape"/><feGaussianBlur result="effect1_foregroundBlur_18_30687" stdDeviation=".5"/></filter><filter id="filter1_f_18_30687" width="8.551" height="4.606" x="6.31" y="7.234" color-interpolation-filters="sRGB" filterUnits="userSpaceOnUse"><feFlood flood-opacity="0" result="BackgroundImageFix"/><feBlend in="SourceGraphic" in2="BackgroundImageFix" result="shape"/><feGaussianBlur result="effect1_foregroundBlur_18_30687" stdDeviation=".375"/></filter><filter id="filter2_f_18_30687" width="2.576" height="10.886" x="14.457" y="2.201" color-interpolation-filters="sRGB" filterUnits="userSpaceOnUse"><feFlood flood-opacity="0" result="BackgroundImageFix"/><feBlend in="SourceGraphic" in2="BackgroundImageFix" result="shape"/><feGaussianBlur result="effect1_foregroundBlur_18_30687" stdDeviation=".2"/></filter><filter id="filter3_f_18_30687" width="2.398" height="10.888" x="14.888" y="1.942" color-interpolation-filters="sRGB" filterUnits="userSpaceOnUse"><feFlood flood-opacity="0" result="BackgroundImageFix"/><feBlend in="SourceGraphic" in2="BackgroundImageFix" result="shape"/><feGaussianBlur result="effect1_foregroundBlur_18_30687" stdDeviation=".25"/></filter><filter id="filter4_f_18_30687" width="16.197" height="16.197" x="8.835" y="14.393" color-interpolation-filters="sRGB" filterUnits="userSpaceOnUse"><feFlood flood-opacity="0" result="BackgroundImageFix"/><feBlend in="SourceGraphic" in2="BackgroundImageFix" result="shape"/><feGaussianBlur result="effect1_foregroundBlur_18_30687" stdDeviation="2"/></filter><filter id="filter5_f_18_30687" width="16.197" height="16.197" x="15" y="11.405" color-interpolation-filters="sRGB" filterUnits="userSpaceOnUse"><feFlood flood-opacity="0" result="BackgroundImageFix"/><feBlend in="SourceGraphic" in2="BackgroundImageFix" result="shape"/><feGaussianBlur result="effect1_foregroundBlur_18_30687" stdDeviation="2"/></filter><filter id="filter6_f_18_30687" width="16.197" height="16.197" x="9.241" y="7.306" color-interpolation-filters="sRGB" filterUnits="userSpaceOnUse"><feFlood flood-opacity="0" result="BackgroundImageFix"/><feBlend in="SourceGraphic" in2="BackgroundImageFix" result="shape"/><feGaussianBlur result="effect1_foregroundBlur_18_30687" stdDeviation="2"/></filter><filter id="filter7_f_18_30687" width="14.197" height="14.197" x="16" y="6.089" color-interpolation-filters="sRGB" filterUnits="userSpaceOnUse"><feFlood flood-opacity="0" result="BackgroundImageFix"/><feBlend in="SourceGraphic" in2="BackgroundImageFix" result="shape"/><feGaussianBlur result="effect1_foregroundBlur_18_30687" stdDeviation="1.5"/></filter><filter id="filter8_f_18_30687" width="16.197" height="16.197" x="3.648" y="10.275" color-interpolation-filters="sRGB" filterUnits="userSpaceOnUse"><feFlood flood-opacity="0" result="BackgroundImageFix"/><feBlend in="SourceGraphic" in2="BackgroundImageFix" result="shape"/><feGaussianBlur result="effect1_foregroundBlur_18_30687" stdDeviation="2"/></filter><filter id="filter9_f_18_30687" width="12.197" height="12.197" x="11.242" y="9.306" color-interpolation-filters="sRGB" filterUnits="userSpaceOnUse"><feFlood flood-opacity="0" result="BackgroundImageFix"/><feBlend in="SourceGraphic" in2="BackgroundImageFix" result="shape"/><feGaussianBlur result="effect1_foregroundBlur_18_30687" stdDeviation="1"/></filter><filter id="filter10_f_18_30687" width="16.197" height="16.197" x="9.241" y="7.306" color-interpolation-filters="sRGB" filterUnits="userSpaceOnUse"><feFlood flood-opacity="0" result="BackgroundImageFix"/><feBlend in="SourceGraphic" in2="BackgroundImageFix" result="shape"/><feGaussianBlur result="effect1_foregroundBlur_18_30687" stdDeviation="2"/></filter><filter id="filter11_f_18_30687" width="16.197" height="16.197" x="9.241" y="7.306" color-interpolation-filters="sRGB" filterUnits="userSpaceOnUse"><feFlood flood-opacity="0" result="BackgroundImageFix"/><feBlend in="SourceGraphic" in2="BackgroundImageFix" result="shape"/><feGaussianBlur result="effect1_foregroundBlur_18_30687" stdDeviation="2"/></filter><linearGradient id="paint0_linear_18_30687" x1="2.143" x2="15.108" y1="9.991" y2="11.618" gradientUnits="userSpaceOnUse"><stop stop-color="#81B719"/><stop offset="1" stop-color="#82CA24"/></linearGradient><linearGradient id="paint1_linear_18_30687" x1="6.553" x2="5.44" y1="10.795" y2="13.522" gradientUnits="userSpaceOnUse"><stop stop-opacity="0"/><stop offset="1" stop-opacity=".12"/></linearGradient><linearGradient id="paint2_linear_18_30687" x1="12.008" x2="15.108" y1="10.334" y2="11.333" gradientUnits="userSpaceOnUse"><stop stop-opacity="0"/><stop offset="1" stop-opacity=".3"/></linearGradient><linearGradient id="paint3_linear_18_30687" x1="2.143" x2="15.108" y1="9.991" y2="11.618" gradientUnits="userSpaceOnUse"><stop stop-color="#89BB1B"/><stop offset=".354" stop-color="#8FC21E"/><stop offset="1" stop-color="#97C345"/></linearGradient><linearGradient id="paint4_linear_18_30687" x1="7.057" x2="14.109" y1="8.421" y2="10.796" gradientUnits="userSpaceOnUse"><stop stop-color="#B9E572" stop-opacity=".3"/><stop offset=".521" stop-color="#B9E572" stop-opacity=".8"/><stop offset="1" stop-color="#B9E572" stop-opacity=".3"/></linearGradient><linearGradient id="paint5_linear_18_30687" x1="16.168" x2="16.168" y1="2.106" y2="11.601" gradientUnits="userSpaceOnUse"><stop stop-color="#7CB82B"/><stop offset="1" stop-color="#91C627"/></linearGradient><linearGradient id="paint6_linear_18_30687" x1="15.746" x2="15.746" y1="3.101" y2="12.187" gradientUnits="userSpaceOnUse"><stop stop-color="#86BF1E"/><stop offset="1" stop-color="#92D72D"/></linearGradient><linearGradient id="paint7_linear_18_30687" x1="15.746" x2="15.746" y1="3.101" y2="12.187" gradientUnits="userSpaceOnUse"><stop stop-color="#C8F584" stop-opacity=".8"/><stop offset=".307" stop-color="#C8F584" stop-opacity="0"/></linearGradient><linearGradient id="paint8_linear_18_30687" x1="16.112" x2="16.112" y1="2.951" y2="12.08" gradientUnits="userSpaceOnUse"><stop offset=".297" stop-color="#B1E465" stop-opacity="0"/><stop offset="1" stop-color="#B1E465"/></linearGradient></defs></svg>