<svg xmlns="http://www.w3.org/2000/svg" width="32" height="32" fill="none" viewBox="0 0 32 32"><path fill="url(#paint0_radial_18_16960)" d="M6.883 9.844c.613-.369 1.206-.576 1.36-.602l.781.735-.914 10.109c0-.13-.133-.406-.664-.469-.664-.078-2.68-.398-4.047-2.351-.916-1.246-1.245-2.713-1.29-3.786-.015-.395.206-.753.54-.965 1.465-.929 3.693-2.345 4.234-2.671Z"/><path fill="url(#paint1_linear_18_16960)" d="M6.883 9.844c.613-.369 1.206-.576 1.36-.602l.781.735-.914 10.109c0-.13-.133-.406-.664-.469-.664-.078-2.68-.398-4.047-2.351-.916-1.246-1.245-2.713-1.29-3.786-.015-.395.206-.753.54-.965 1.465-.929 3.693-2.345 4.234-2.671Z"/><path fill="url(#paint2_linear_18_16960)" d="M6.883 9.844c.613-.369 1.206-.576 1.36-.602l.781.735-.914 10.109c0-.13-.133-.406-.664-.469-.664-.078-2.68-.398-4.047-2.351-.916-1.246-1.245-2.713-1.29-3.786-.015-.395.206-.753.54-.965 1.465-.929 3.693-2.345 4.234-2.671Z"/><g filter="url(#filter0_i_18_16960)"><path fill="url(#paint3_linear_18_16960)" d="M25.117 9.832c-.613-.369-1.206-.575-1.36-.602l-.781.735.914 10.11c0-.131.133-.407.664-.47.664-.078 2.68-.398 4.047-2.351.916-1.246 1.245-2.713 1.29-3.785.016-.396-.206-.754-.54-.966-1.465-.928-3.693-2.345-4.234-2.671Z"/></g><path fill="url(#paint4_radial_18_16960)" d="M25.117 9.832c-.613-.369-1.206-.575-1.36-.602l-.781.735.914 10.11c0-.131.133-.407.664-.47.664-.078 2.68-.398 4.047-2.351.916-1.246 1.245-2.713 1.29-3.785.016-.396-.206-.754-.54-.966-1.465-.928-3.693-2.345-4.234-2.671Z"/><g filter="url(#filter1_i_18_16960)"><path fill="url(#paint5_linear_18_16960)" d="m8.102 9.296.042 18.767c.002.517.331.98.83 1.119 4.534 1.153 9.628 1.075 14.13-.005.5-.135.83-.597.83-1.114l.043-18.767c-.203-.117-1.325-.273-1.977-.117-1.547.425-4.257.906-5.96.906-1.703 0-4.414-.481-5.96-.906-.653-.156-1.775 0-1.978.117Z"/></g><path fill="url(#paint6_radial_18_16960)" d="m8.102 9.296.042 18.767c.002.517.331.98.83 1.119 4.534 1.153 9.628 1.075 14.13-.005.5-.135.83-.597.83-1.114l.043-18.767c-.203-.117-1.325-.273-1.977-.117-1.547.425-4.257.906-5.96.906-1.703 0-4.414-.481-5.96-.906-.653-.156-1.775 0-1.978.117Z"/><path fill="url(#paint7_radial_18_16960)" d="m8.102 9.296.042 18.767c.002.517.331.98.83 1.119 4.534 1.153 9.628 1.075 14.13-.005.5-.135.83-.597.83-1.114l.043-18.767c-.203-.117-1.325-.273-1.977-.117-1.547.425-4.257.906-5.96.906-1.703 0-4.414-.481-5.96-.906-.653-.156-1.775 0-1.978.117Z"/><path fill="url(#paint8_radial_18_16960)" d="m10.026 9.167 5.998 6.364 5.683-6.274c-1.577.403-4.067.828-5.668.828-1.703 0-4.413-.481-5.96-.906a1.749 1.749 0 0 0-.053-.012Z"/><path fill="url(#paint9_radial_18_16960)" d="m10.026 9.167 5.998 6.364 5.683-6.274c-1.577.403-4.067.828-5.668.828-1.703 0-4.413-.481-5.96-.906a1.749 1.749 0 0 0-.053-.012Z"/><g filter="url(#filter2_ii_18_16960)"><path fill="url(#paint10_linear_18_16960)" d="M14.456 14.577c.51.578.976 1.107 1.362 1.537a.297.297 0 0 0 .443 0c.387-.43.853-.96 1.362-1.537 1.672-1.899 3.81-4.273 5.12-5.464-.396 0-.773-.113-1.025-.169a.528.528 0 0 0-.46.103c-1.064.91-2.334 2.36-3.434 3.617-.66.755-1.26 1.44-1.715 1.893a.098.098 0 0 1-.139 0c-.455-.454-1.054-1.138-1.715-1.893-1.1-1.256-2.37-2.708-3.435-3.617a.528.528 0 0 0-.459-.103c-.252.056-.629.17-1.025.17 1.311 1.19 3.448 3.564 5.12 5.463Z"/></g><g filter="url(#filter3_f_18_16960)"><path stroke="#FF8EE2" stroke-linecap="round" stroke-width=".5" d="M23.352 9.75c.146-.005.563.063 1.063.375.5.313 3.302 2.11 4.64 2.969"/></g><g filter="url(#filter4_f_18_16960)"><path stroke="url(#paint11_radial_18_16960)" stroke-linecap="round" stroke-width=".25" d="M12.227 10.047c1.177.349 4.35.837 7.625 0"/></g><defs><radialGradient id="paint0_radial_18_16960" cx="0" cy="0" r="1" gradientTransform="matrix(-6.18235 4.91784 -6.41098 -8.05942 9.347 13.02)" gradientUnits="userSpaceOnUse"><stop offset=".335" stop-color="#F96ACF"/><stop offset="1" stop-color="#E44CBA"/></radialGradient><radialGradient id="paint4_radial_18_16960" cx="0" cy="0" r="1" gradientTransform="matrix(0 4.34375 -.71875 0 24.102 13.5)" gradientUnits="userSpaceOnUse"><stop stop-color="#FF81D9"/><stop offset="1" stop-color="#FF81D9" stop-opacity="0"/></radialGradient><radialGradient id="paint6_radial_18_16960" cx="0" cy="0" r="1" gradientTransform="matrix(0 11.25 -5.41274 0 7.79 10.25)" gradientUnits="userSpaceOnUse"><stop offset=".355" stop-color="#F76AC8"/><stop offset="1" stop-color="#F360C4" stop-opacity="0"/></radialGradient><radialGradient id="paint7_radial_18_16960" cx="0" cy="0" r="1" gradientTransform="matrix(0 10.2813 -1.40643 0 23.977 14.969)" gradientUnits="userSpaceOnUse"><stop offset=".077" stop-color="#FF83DA"/><stop offset="1" stop-color="#FF83DA" stop-opacity="0"/></radialGradient><radialGradient id="paint8_radial_18_16960" cx="0" cy="0" r="1" gradientTransform="matrix(0 5.4375 -8.52102 0 15.867 9.719)" gradientUnits="userSpaceOnUse"><stop offset=".247" stop-color="#CE59A3"/><stop offset="1" stop-color="#B8387F"/></radialGradient><radialGradient id="paint9_radial_18_16960" cx="0" cy="0" r="1" gradientTransform="rotate(146.867 7.824 9.048) scale(5.82158 1.75385)" gradientUnits="userSpaceOnUse"><stop stop-color="#BA3A82"/><stop offset="1" stop-color="#BA3A82" stop-opacity="0"/></radialGradient><radialGradient id="paint11_radial_18_16960" cx="0" cy="0" r="1" gradientTransform="matrix(0 .92504 -5.03125 0 16.04 10.278)" gradientUnits="userSpaceOnUse"><stop stop-color="#D463A8"/><stop offset="1" stop-color="#D463A8" stop-opacity="0"/></radialGradient><linearGradient id="paint1_linear_18_16960" x1="8.684" x2="5.961" y1="20.785" y2="19.865" gradientUnits="userSpaceOnUse"><stop stop-color="#DE47B0"/><stop offset="1" stop-color="#DE47B0" stop-opacity="0"/></linearGradient><linearGradient id="paint2_linear_18_16960" x1="3.946" x2="4.852" y1="11.25" y2="12.375" gradientUnits="userSpaceOnUse"><stop offset=".082" stop-color="#E665B5"/><stop offset="1" stop-color="#E665B5" stop-opacity="0"/></linearGradient><linearGradient id="paint3_linear_18_16960" x1="24.227" x2="27.008" y1="9.906" y2="19.094" gradientUnits="userSpaceOnUse"><stop offset=".457" stop-color="#FF6ED9"/><stop offset="1" stop-color="#FA5BCA"/></linearGradient><linearGradient id="paint5_linear_18_16960" x1="16.04" x2="16.04" y1="15.313" y2="30.017" gradientUnits="userSpaceOnUse"><stop stop-color="#F972CA"/><stop offset="1" stop-color="#F949C4"/></linearGradient><linearGradient id="paint10_linear_18_16960" x1="22.071" x2="15.165" y1="9.406" y2="15.75" gradientUnits="userSpaceOnUse"><stop stop-color="#DD53A4"/><stop offset="1" stop-color="#E24B9B"/></linearGradient><filter id="filter0_i_18_16960" width="7.165" height="11.344" x="22.976" y="8.73" color-interpolation-filters="sRGB" filterUnits="userSpaceOnUse"><feFlood flood-opacity="0" result="BackgroundImageFix"/><feBlend in="SourceGraphic" in2="BackgroundImageFix" result="shape"/><feColorMatrix in="SourceAlpha" result="hardAlpha" values="0 0 0 0 0 0 0 0 0 0 0 0 0 0 0 0 0 0 127 0"/><feOffset dx=".25" dy="-.5"/><feGaussianBlur stdDeviation=".5"/><feComposite in2="hardAlpha" k2="-1" k3="1" operator="arithmetic"/><feColorMatrix values="0 0 0 0 0.960784 0 0 0 0 0.305882 0 0 0 0 0.764706 0 0 0 1 0"/><feBlend in2="shape" result="effect1_innerShadow_18_16960"/></filter><filter id="filter1_i_18_16960" width="16.375" height="21.404" x="8.102" y="8.613" color-interpolation-filters="sRGB" filterUnits="userSpaceOnUse"><feFlood flood-opacity="0" result="BackgroundImageFix"/><feBlend in="SourceGraphic" in2="BackgroundImageFix" result="shape"/><feColorMatrix in="SourceAlpha" result="hardAlpha" values="0 0 0 0 0 0 0 0 0 0 0 0 0 0 0 0 0 0 127 0"/><feOffset dx=".5" dy="-.5"/><feGaussianBlur stdDeviation=".75"/><feComposite in2="hardAlpha" k2="-1" k3="1" operator="arithmetic"/><feColorMatrix values="0 0 0 0 0.909804 0 0 0 0 0.223529 0 0 0 0 0.717647 0 0 0 1 0"/><feBlend in2="shape" result="effect1_innerShadow_18_16960"/></filter><filter id="filter2_ii_18_16960" width="13.606" height="7.483" x="9.236" y="8.83" color-interpolation-filters="sRGB" filterUnits="userSpaceOnUse"><feFlood flood-opacity="0" result="BackgroundImageFix"/><feBlend in="SourceGraphic" in2="BackgroundImageFix" result="shape"/><feColorMatrix in="SourceAlpha" result="hardAlpha" values="0 0 0 0 0 0 0 0 0 0 0 0 0 0 0 0 0 0 127 0"/><feOffset dx="-.1" dy=".1"/><feGaussianBlur stdDeviation=".075"/><feComposite in2="hardAlpha" k2="-1" k3="1" operator="arithmetic"/><feColorMatrix values="0 0 0 0 0.913725 0 0 0 0 0.411765 0 0 0 0 0.662745 0 0 0 1 0"/><feBlend in2="shape" result="effect1_innerShadow_18_16960"/><feColorMatrix in="SourceAlpha" result="hardAlpha" values="0 0 0 0 0 0 0 0 0 0 0 0 0 0 0 0 0 0 127 0"/><feOffset dx=".1" dy="-.1"/><feGaussianBlur stdDeviation=".075"/><feComposite in2="hardAlpha" k2="-1" k3="1" operator="arithmetic"/><feColorMatrix values="0 0 0 0 0.898039 0 0 0 0 0.247059 0 0 0 0 0.615686 0 0 0 1 0"/><feBlend in2="effect1_innerShadow_18_16960" result="effect2_innerShadow_18_16960"/></filter><filter id="filter3_f_18_16960" width="7.703" height="5.344" x="22.352" y="8.75" color-interpolation-filters="sRGB" filterUnits="userSpaceOnUse"><feFlood flood-opacity="0" result="BackgroundImageFix"/><feBlend in="SourceGraphic" in2="BackgroundImageFix" result="shape"/><feGaussianBlur result="effect1_foregroundBlur_18_16960" stdDeviation=".375"/></filter><filter id="filter4_f_18_16960" width="8.375" height="1.212" x="11.852" y="9.672" color-interpolation-filters="sRGB" filterUnits="userSpaceOnUse"><feFlood flood-opacity="0" result="BackgroundImageFix"/><feBlend in="SourceGraphic" in2="BackgroundImageFix" result="shape"/><feGaussianBlur result="effect1_foregroundBlur_18_16960" stdDeviation=".125"/></filter></defs></svg>