<svg xmlns="http://www.w3.org/2000/svg" width="32" height="32" fill="none" viewBox="0 0 32 32"><path fill="url(#paint0_radial_18590_3060)" d="M29.757 15.625c0 7.732-6.268 14-14 14s-14-6.268-14-14 6.268-14 14-14 14 6.268 14 14Z"/><path fill="url(#paint1_linear_18590_3060)" d="M29.757 15.625c0 7.732-6.268 14-14 14s-14-6.268-14-14 6.268-14 14-14 14 6.268 14 14Z"/><path fill="url(#paint2_radial_18590_3060)" d="M29.757 15.625c0 7.732-6.268 14-14 14s-14-6.268-14-14 6.268-14 14-14 14 6.268 14 14Z"/><path fill="url(#paint3_radial_18590_3060)" d="M29.757 15.625c0 7.732-6.268 14-14 14s-14-6.268-14-14 6.268-14 14-14 14 6.268 14 14Z"/><path fill="url(#paint4_radial_18590_3060)" d="M29.757 15.625c0 7.732-6.268 14-14 14s-14-6.268-14-14 6.268-14 14-14 14 6.268 14 14Z"/><defs><radialGradient id="paint0_radial_18590_3060" cx="0" cy="0" r="1" gradientTransform="rotate(130.168 10.023 9.747) scale(27.8086)" gradientUnits="userSpaceOnUse"><stop offset=".116" stop-color="#4DA0DA"/><stop offset=".853" stop-color="#3557C3"/></radialGradient><radialGradient id="paint2_radial_18590_3060" cx="0" cy="0" r="1" gradientTransform="rotate(136.38 10.142 10.077) scale(14.6767 15.816)" gradientUnits="userSpaceOnUse"><stop offset=".179" stop-color="#62A5E9"/><stop offset="1" stop-color="#4579D7" stop-opacity="0"/></radialGradient><radialGradient id="paint3_radial_18590_3060" cx="0" cy="0" r="1" gradientTransform="matrix(-19.25 0 0 -20 20.249 15.625)" gradientUnits="userSpaceOnUse"><stop offset=".62" stop-color="#416AA9" stop-opacity="0"/><stop offset=".951" stop-color="#859BC6"/></radialGradient><radialGradient id="paint4_radial_18590_3060" cx="0" cy="0" r="1" gradientTransform="matrix(0 21 -23.3208 0 15.757 8.625)" gradientUnits="userSpaceOnUse"><stop offset=".863" stop-color="#3E4DCB" stop-opacity="0"/><stop offset="1" stop-color="#695FD4"/></radialGradient><linearGradient id="paint1_linear_18590_3060" x1="15.757" x2="15.757" y1="1.625" y2="8.125" gradientUnits="userSpaceOnUse"><stop stop-color="#5B9CCE"/><stop offset="1" stop-color="#5B9CCE" stop-opacity="0"/></linearGradient></defs></svg>