<svg xmlns="http://www.w3.org/2000/svg" width="32" height="32" fill="none" viewBox="0 0 32 32"><g filter="url(#filter0_ii_20020_6812)"><path fill="url(#paint0_radial_20020_6812)" d="M4.29 14.454a2.406 2.406 0 0 0-.135 4.81l.945.026a2.406 2.406 0 0 0 1.4 4.393l1.37-.025a2.406 2.406 0 0 0 1.736 4.16l8.822-.336c1.33-.005 3.695-.149 5.76-1.004 3.267-1.207 5.595-4.34 5.595-8.016 0-3.715-2.38-6.876-5.702-8.054-2.108-.888-4.283-2.362-5.205-2.986l-.06-.042-2.82-2.098a2.536 2.536 0 0 0-3.054 4.05l1.424 1.088-7.953-.344a2.385 2.385 0 0 0-1.378 4.4l-.744-.022Z"/><path fill="url(#paint1_radial_20020_6812)" d="M4.29 14.454a2.406 2.406 0 0 0-.135 4.81l.945.026a2.406 2.406 0 0 0 1.4 4.393l1.37-.025a2.406 2.406 0 0 0 1.736 4.16l8.822-.336c1.33-.005 3.695-.149 5.76-1.004 3.267-1.207 5.595-4.34 5.595-8.016 0-3.715-2.38-6.876-5.702-8.054-2.108-.888-4.283-2.362-5.205-2.986l-.06-.042-2.82-2.098a2.536 2.536 0 0 0-3.054 4.05l1.424 1.088-7.953-.344a2.385 2.385 0 0 0-1.378 4.4l-.744-.022Z"/></g><path fill="url(#paint2_linear_20020_6812)" d="M4.29 14.454a2.406 2.406 0 0 0-.135 4.81l.945.026a2.406 2.406 0 0 0 1.4 4.393l1.37-.025a2.406 2.406 0 0 0 1.736 4.16l8.822-.336c1.33-.005 3.695-.149 5.76-1.004 3.267-1.207 5.595-4.34 5.595-8.016 0-3.715-2.38-6.876-5.702-8.054-2.108-.888-4.283-2.362-5.205-2.986l-.06-.042-2.82-2.098a2.536 2.536 0 0 0-3.054 4.05l1.424 1.088-7.953-.344a2.385 2.385 0 0 0-1.378 4.4l-.744-.022Z"/><path fill="url(#paint3_radial_20020_6812)" d="M4.29 14.454a2.406 2.406 0 0 0-.135 4.81l.945.026a2.406 2.406 0 0 0 1.4 4.393l1.37-.025a2.406 2.406 0 0 0 1.736 4.16l8.822-.336c1.33-.005 3.695-.149 5.76-1.004 3.267-1.207 5.595-4.34 5.595-8.016 0-3.715-2.38-6.876-5.702-8.054-2.108-.888-4.283-2.362-5.205-2.986l-.06-.042-2.82-2.098a2.536 2.536 0 0 0-3.054 4.05l1.424 1.088-7.953-.344a2.385 2.385 0 0 0-1.378 4.4l-.744-.022Z"/><path fill="url(#paint4_radial_20020_6812)" d="M4.29 14.454a2.406 2.406 0 0 0-.135 4.81l.945.026a2.406 2.406 0 0 0 1.4 4.393l1.37-.025a2.406 2.406 0 0 0 1.736 4.16l8.822-.336c1.33-.005 3.695-.149 5.76-1.004 3.267-1.207 5.595-4.34 5.595-8.016 0-3.715-2.38-6.876-5.702-8.054-2.108-.888-4.283-2.362-5.205-2.986l-.06-.042-2.82-2.098a2.536 2.536 0 0 0-3.054 4.05l1.424 1.088-7.953-.344a2.385 2.385 0 0 0-1.378 4.4l-.744-.022Z"/><path fill="url(#paint5_linear_20020_6812)" d="m6.181 10.077 10.136.424v4.403l-11.288-.432a2.384 2.384 0 0 1 1.152-4.395Z"/><path fill="url(#paint6_linear_20020_6812)" d="m6.181 10.077 10.136.424v4.403l-11.288-.432a2.384 2.384 0 0 1 1.152-4.395Z"/><path fill="url(#paint7_linear_20020_6812)" d="m6.181 10.077 10.136.424v4.403l-11.288-.432a2.384 2.384 0 0 1 1.152-4.395Z"/><path fill="url(#paint8_linear_20020_6812)" d="m6.181 10.077 10.136.424v4.403l-11.288-.432a2.384 2.384 0 0 1 1.152-4.395Z"/><path fill="url(#paint9_linear_20020_6812)" d="M1.818 16.791a2.406 2.406 0 0 1 2.473-2.337c4.002.113 8.02.291 12.03.437v4.397H5.096l-.942-.024a2.406 2.406 0 0 1-2.337-2.473Z"/><path fill="url(#paint10_linear_20020_6812)" d="M1.818 16.791a2.406 2.406 0 0 1 2.473-2.337c4.002.113 8.02.291 12.03.437v4.397H5.096l-.942-.024a2.406 2.406 0 0 1-2.337-2.473Z"/><path fill="url(#paint11_linear_20020_6812)" d="M1.818 16.791a2.406 2.406 0 0 1 2.473-2.337c4.002.113 8.02.291 12.03.437v4.397H5.096l-.942-.024a2.406 2.406 0 0 1-2.337-2.473Z"/><path fill="url(#paint12_linear_20020_6812)" d="M1.818 16.791a2.406 2.406 0 0 1 2.473-2.337c4.002.113 8.02.291 12.03.437v4.397H5.096l-.942-.024a2.406 2.406 0 0 1-2.337-2.473Z"/><path fill="url(#paint13_linear_20020_6812)" d="M5.1 19.29a2.406 2.406 0 0 0 1.4 4.393l9.813-.214V19.29H5.1Z"/><path fill="url(#paint14_linear_20020_6812)" d="M5.1 19.29a2.406 2.406 0 0 0 1.4 4.393l9.813-.214V19.29H5.1Z"/><path fill="url(#paint15_linear_20020_6812)" d="M5.1 19.29a2.406 2.406 0 0 0 1.4 4.393l9.813-.214V19.29H5.1Z"/><path fill="url(#paint16_linear_20020_6812)" d="M5.1 19.29a2.406 2.406 0 0 0 1.4 4.393l9.813-.214V19.29H5.1Z"/><path fill="url(#paint17_linear_20020_6812)" d="M7.87 23.657a2.406 2.406 0 0 0 1.736 4.16l6.91-.27c0-1.342-.391-3.156-.391-4.078l-8.255.188Z"/><path fill="url(#paint18_linear_20020_6812)" d="M7.87 23.657a2.406 2.406 0 0 0 1.736 4.16l6.91-.27c0-1.342-.391-3.156-.391-4.078l-8.255.188Z"/><g filter="url(#filter1_f_20020_6812)"><path fill="url(#paint19_radial_20020_6812)" d="M17.51 16.138c-.835-.896-2.062-1.226-2.562-1.216 1.3-.15 2.25-1.083 2.563-1.53v2.746Z"/></g><g filter="url(#filter2_f_20020_6812)"><path fill="url(#paint20_radial_20020_6812)" d="M17.46 20.35c-1.005-.887-2.44-1.084-3.03-1.072 1.537-.177 2.66-1.281 3.03-1.81v2.883Z"/></g><g filter="url(#filter3_f_20020_6812)"><path fill="url(#paint21_radial_20020_6812)" d="M17.888 24.904c-1.038-1.052-2.16-1.435-2.752-1.422 1.538-.178 2.383-1.127 2.752-1.657v3.079Z"/></g><g filter="url(#filter4_f_20020_6812)"><path stroke="#FDB042" stroke-width="1.5" d="M18.369 12.106c-1.146 2-2.663 7.437.437 13.187"/></g><path fill="url(#paint22_radial_20020_6812)" d="M17.684 10.546 12.69 5.52a2.536 2.536 0 0 0 .252 3.811l1.424 1.088 3.318.126Z"/><g filter="url(#filter5_f_20020_6812)"><path stroke="url(#paint23_linear_20020_6812)" stroke-linecap="round" d="M14.948 6.205c1.48 1.398 5.871 4.074 9.292 5.653"/></g><g filter="url(#filter6_f_20020_6812)"><path stroke="url(#paint24_linear_20020_6812)" stroke-linecap="round" stroke-width="1.25" d="m6.138 11.819 10.196.463"/></g><g filter="url(#filter7_f_20020_6812)"><path stroke="url(#paint25_linear_20020_6812)" stroke-linecap="round" stroke-width="1.25" d="m3.938 16.031 11.996.44"/></g><g filter="url(#filter8_f_20020_6812)"><path stroke="url(#paint26_linear_20020_6812)" stroke-linecap="round" stroke-width="1.25" d="M6.469 20.594h9.062"/></g><g filter="url(#filter9_f_20020_6812)"><path stroke="url(#paint27_linear_20020_6812)" stroke-linecap="round" stroke-width="1.25" d="m9.069 25.293 6.45-.268"/></g><defs><linearGradient id="paint2_linear_20020_6812" x1="15.234" x2="15.203" y1="27.819" y2="26.875" gradientUnits="userSpaceOnUse"><stop offset=".291" stop-color="#F883AC"/><stop offset="1" stop-color="#FFA260" stop-opacity="0"/></linearGradient><linearGradient id="paint5_linear_20020_6812" x1="7.438" x2="7.594" y1="14.594" y2="12.25" gradientUnits="userSpaceOnUse"><stop offset=".281" stop-color="#FBA843"/><stop offset="1" stop-color="#FBA843" stop-opacity="0"/></linearGradient><linearGradient id="paint6_linear_20020_6812" x1="10.664" x2="10.688" y1="14.773" y2="13.922" gradientUnits="userSpaceOnUse"><stop stop-color="#C46801"/><stop offset="1" stop-color="#FCA943" stop-opacity="0"/></linearGradient><linearGradient id="paint7_linear_20020_6812" x1="3.925" x2="6.962" y1="12.179" y2="12.179" gradientUnits="userSpaceOnUse"><stop stop-color="#E69742"/><stop offset="1" stop-color="#E69742" stop-opacity="0"/></linearGradient><linearGradient id="paint8_linear_20020_6812" x1="16.669" x2="13.311" y1="14.085" y2="13.995" gradientUnits="userSpaceOnUse"><stop stop-color="#F9BC3E"/><stop offset="1" stop-color="#F9BC3E" stop-opacity="0"/></linearGradient><linearGradient id="paint9_linear_20020_6812" x1="5.524" x2="5.674" y1="18.975" y2="16.612" gradientUnits="userSpaceOnUse"><stop offset=".281" stop-color="#FBA843"/><stop offset="1" stop-color="#FBA843" stop-opacity="0"/></linearGradient><linearGradient id="paint10_linear_20020_6812" x1="8.914" x2="8.912" y1="19.398" y2="18.445" gradientUnits="userSpaceOnUse"><stop stop-color="#C46801"/><stop offset="1" stop-color="#FCA943" stop-opacity="0"/></linearGradient><linearGradient id="paint11_linear_20020_6812" x1="2.391" x2="4.906" y1="16.656" y2="16.542" gradientUnits="userSpaceOnUse"><stop stop-color="#E5943D"/><stop offset="1" stop-color="#E5943D" stop-opacity="0"/></linearGradient><linearGradient id="paint12_linear_20020_6812" x1="16.32" x2="14.938" y1="18.371" y2="18.368" gradientUnits="userSpaceOnUse"><stop stop-color="#F8B83A"/><stop offset="1" stop-color="#F9BC3E" stop-opacity="0"/></linearGradient><linearGradient id="paint13_linear_20020_6812" x1="7.41" x2="7.446" y1="23.387" y2="20.844" gradientUnits="userSpaceOnUse"><stop stop-color="#F99756"/><stop offset="1" stop-color="#FBA843" stop-opacity="0"/></linearGradient><linearGradient id="paint14_linear_20020_6812" x1="10.05" x2="10.048" y1="23.784" y2="22.917" gradientUnits="userSpaceOnUse"><stop stop-color="#C46801"/><stop offset="1" stop-color="#FCA943" stop-opacity="0"/></linearGradient><linearGradient id="paint15_linear_20020_6812" x1="4.534" x2="6.662" y1="21.292" y2="21.202" gradientUnits="userSpaceOnUse"><stop stop-color="#E5943D"/><stop offset="1" stop-color="#E5943D" stop-opacity="0"/></linearGradient><linearGradient id="paint16_linear_20020_6812" x1="16.313" x2="15.144" y1="22.85" y2="22.848" gradientUnits="userSpaceOnUse"><stop stop-color="#F6B335"/><stop offset="1" stop-color="#F6B335" stop-opacity="0"/></linearGradient><linearGradient id="paint17_linear_20020_6812" x1="10.394" x2="10.573" y1="22.96" y2="24.738" gradientUnits="userSpaceOnUse"><stop offset=".169" stop-color="#D17502"/><stop offset=".828" stop-color="#EA940C" stop-opacity="0"/></linearGradient><linearGradient id="paint18_linear_20020_6812" x1="7.108" x2="8.784" y1="26.121" y2="26.069" gradientUnits="userSpaceOnUse"><stop stop-color="#D18B4C"/><stop offset="1" stop-color="#D18B4C" stop-opacity="0"/></linearGradient><linearGradient id="paint23_linear_20020_6812" x1="14.619" x2="13.939" y1="5.382" y2="10.619" gradientUnits="userSpaceOnUse"><stop stop-color="#FFEB67"/><stop offset="1" stop-color="#FFEB67" stop-opacity="0"/></linearGradient><linearGradient id="paint24_linear_20020_6812" x1="5.777" x2="5.773" y1="11.752" y2="12.188" gradientUnits="userSpaceOnUse"><stop stop-color="#FFC42E"/><stop offset="1" stop-color="#FFC42E" stop-opacity="0"/></linearGradient><linearGradient id="paint25_linear_20020_6812" x1="4.257" x2="4.253" y1="16.34" y2="16.776" gradientUnits="userSpaceOnUse"><stop stop-color="#FFC42E"/><stop offset="1" stop-color="#FFC42E" stop-opacity="0"/></linearGradient><linearGradient id="paint26_linear_20020_6812" x1="6.789" x2="6.784" y1="20.902" y2="21.339" gradientUnits="userSpaceOnUse"><stop stop-color="#FFC42E"/><stop offset="1" stop-color="#FFC42E" stop-opacity="0"/></linearGradient><linearGradient id="paint27_linear_20020_6812" x1="9.389" x2="9.384" y1="25.602" y2="26.038" gradientUnits="userSpaceOnUse"><stop stop-color="#FFC42E"/><stop offset="1" stop-color="#FFC42E" stop-opacity="0"/></linearGradient><filter id="filter0_ii_20020_6812" width="28.465" height="24.289" x="1.817" y="3.78" color-interpolation-filters="sRGB" filterUnits="userSpaceOnUse"><feFlood flood-opacity="0" result="BackgroundImageFix"/><feBlend in="SourceGraphic" in2="BackgroundImageFix" result="shape"/><feColorMatrix in="SourceAlpha" result="hardAlpha" values="0 0 0 0 0 0 0 0 0 0 0 0 0 0 0 0 0 0 127 0"/><feOffset dx=".25" dy="-1"/><feGaussianBlur stdDeviation="1"/><feComposite in2="hardAlpha" k2="-1" k3="1" operator="arithmetic"/><feColorMatrix values="0 0 0 0 1 0 0 0 0 0.592157 0 0 0 0 0.368627 0 0 0 1 0"/><feBlend in2="shape" result="effect1_innerShadow_20020_6812"/><feColorMatrix in="SourceAlpha" result="hardAlpha" values="0 0 0 0 0 0 0 0 0 0 0 0 0 0 0 0 0 0 127 0"/><feOffset dx=".5" dy=".25"/><feGaussianBlur stdDeviation=".5"/><feComposite in2="hardAlpha" k2="-1" k3="1" operator="arithmetic"/><feColorMatrix values="0 0 0 0 0.827451 0 0 0 0 0.627451 0 0 0 0 0.352941 0 0 0 1 0"/><feBlend in2="effect1_innerShadow_20020_6812" result="effect2_innerShadow_20020_6812"/></filter><filter id="filter1_f_20020_6812" width="3.163" height="3.347" x="14.648" y="13.091" color-interpolation-filters="sRGB" filterUnits="userSpaceOnUse"><feFlood flood-opacity="0" result="BackgroundImageFix"/><feBlend in="SourceGraphic" in2="BackgroundImageFix" result="shape"/><feGaussianBlur result="effect1_foregroundBlur_20020_6812" stdDeviation=".15"/></filter><filter id="filter2_f_20020_6812" width="3.631" height="3.483" x="14.129" y="17.167" color-interpolation-filters="sRGB" filterUnits="userSpaceOnUse"><feFlood flood-opacity="0" result="BackgroundImageFix"/><feBlend in="SourceGraphic" in2="BackgroundImageFix" result="shape"/><feGaussianBlur result="effect1_foregroundBlur_20020_6812" stdDeviation=".15"/></filter><filter id="filter3_f_20020_6812" width="3.353" height="3.679" x="14.836" y="21.525" color-interpolation-filters="sRGB" filterUnits="userSpaceOnUse"><feFlood flood-opacity="0" result="BackgroundImageFix"/><feBlend in="SourceGraphic" in2="BackgroundImageFix" result="shape"/><feGaussianBlur result="effect1_foregroundBlur_20020_6812" stdDeviation=".15"/></filter><filter id="filter4_f_20020_6812" width="6.246" height="16.916" x="14.72" y="10.233" color-interpolation-filters="sRGB" filterUnits="userSpaceOnUse"><feFlood flood-opacity="0" result="BackgroundImageFix"/><feBlend in="SourceGraphic" in2="BackgroundImageFix" result="shape"/><feGaussianBlur result="effect1_foregroundBlur_20020_6812" stdDeviation=".75"/></filter><filter id="filter5_f_20020_6812" width="12.792" height="9.153" x="13.198" y="4.455" color-interpolation-filters="sRGB" filterUnits="userSpaceOnUse"><feFlood flood-opacity="0" result="BackgroundImageFix"/><feBlend in="SourceGraphic" in2="BackgroundImageFix" result="shape"/><feGaussianBlur result="effect1_foregroundBlur_20020_6812" stdDeviation=".625"/></filter><filter id="filter6_f_20020_6812" width="14.446" height="4.713" x="4.013" y="9.694" color-interpolation-filters="sRGB" filterUnits="userSpaceOnUse"><feFlood flood-opacity="0" result="BackgroundImageFix"/><feBlend in="SourceGraphic" in2="BackgroundImageFix" result="shape"/><feGaussianBlur result="effect1_foregroundBlur_20020_6812" stdDeviation=".75"/></filter><filter id="filter7_f_20020_6812" width="16.246" height="4.69" x="1.813" y="13.906" color-interpolation-filters="sRGB" filterUnits="userSpaceOnUse"><feFlood flood-opacity="0" result="BackgroundImageFix"/><feBlend in="SourceGraphic" in2="BackgroundImageFix" result="shape"/><feGaussianBlur result="effect1_foregroundBlur_20020_6812" stdDeviation=".75"/></filter><filter id="filter8_f_20020_6812" width="13.313" height="4.25" x="4.344" y="18.469" color-interpolation-filters="sRGB" filterUnits="userSpaceOnUse"><feFlood flood-opacity="0" result="BackgroundImageFix"/><feBlend in="SourceGraphic" in2="BackgroundImageFix" result="shape"/><feGaussianBlur result="effect1_foregroundBlur_20020_6812" stdDeviation=".75"/></filter><filter id="filter9_f_20020_6812" width="10.701" height="4.519" x="6.944" y="22.9" color-interpolation-filters="sRGB" filterUnits="userSpaceOnUse"><feFlood flood-opacity="0" result="BackgroundImageFix"/><feBlend in="SourceGraphic" in2="BackgroundImageFix" result="shape"/><feGaussianBlur result="effect1_foregroundBlur_20020_6812" stdDeviation=".75"/></filter><radialGradient id="paint0_radial_20020_6812" cx="0" cy="0" r="1" gradientTransform="matrix(-23.03994 5.75988 -5.9694 -23.87805 25.836 13.9)" gradientUnits="userSpaceOnUse"><stop stop-color="#FFD556"/><stop offset=".624" stop-color="#F4AC2E"/></radialGradient><radialGradient id="paint1_radial_20020_6812" cx="0" cy="0" r="1" gradientTransform="matrix(20.14532 -8.71599 12.72828 29.41896 8.576 22.198)" gradientUnits="userSpaceOnUse"><stop offset=".678" stop-color="#FFD051" stop-opacity="0"/><stop offset=".966" stop-color="#FFEF63"/></radialGradient><radialGradient id="paint3_radial_20020_6812" cx="0" cy="0" r="1" gradientTransform="matrix(5.76564 14.34379 -24.55123 9.86863 17.188 13.125)" gradientUnits="userSpaceOnUse"><stop offset=".903" stop-color="#FFA260" stop-opacity="0"/><stop offset=".975" stop-color="#F883AC"/></radialGradient><radialGradient id="paint4_radial_20020_6812" cx="0" cy="0" r="1" gradientTransform="matrix(-1.4896 2.17151 -5.1467 -3.53049 15.8 5.056)" gradientUnits="userSpaceOnUse"><stop stop-color="#FFDC3B"/><stop offset="1" stop-color="#FFD836" stop-opacity="0"/></radialGradient><radialGradient id="paint19_radial_20020_6812" cx="0" cy="0" r="1" gradientTransform="rotate(-2.8 309.887 -314.342) scale(1.7849 1.63088)" gradientUnits="userSpaceOnUse"><stop stop-color="#E78E31"/><stop offset="1" stop-color="#F1A624" stop-opacity="0"/></radialGradient><radialGradient id="paint20_radial_20020_6812" cx="0" cy="0" r="1" gradientTransform="matrix(2.10888 -.09153 .07424 1.71053 15.351 18.909)" gradientUnits="userSpaceOnUse"><stop stop-color="#E78E31"/><stop offset="1" stop-color="#F1A624" stop-opacity="0"/></radialGradient><radialGradient id="paint21_radial_20020_6812" cx="0" cy="0" r="1" gradientTransform="matrix(1.915 -.09773 .09315 1.82517 15.973 23.364)" gradientUnits="userSpaceOnUse"><stop stop-color="#E78E31"/><stop offset="1" stop-color="#F1A624" stop-opacity="0"/></radialGradient><radialGradient id="paint22_radial_20020_6812" cx="0" cy="0" r="1" gradientTransform="matrix(-5.957 -4.95244 1.21054 -1.45608 14.66 10.789)" gradientUnits="userSpaceOnUse"><stop stop-color="#B86211"/><stop offset=".251" stop-color="#E08E11"/><stop offset="1" stop-color="#E08E11" stop-opacity="0"/></radialGradient></defs></svg>