<svg xmlns="http://www.w3.org/2000/svg" width="32" height="32" fill="none" viewBox="0 0 32 32"><path fill="url(#paint0_linear_4793_1042)" d="M21.174 18.895a8.348 8.348 0 1 0 0-16.695 8.348 8.348 0 0 0 0 16.695Z"/><path fill="url(#paint1_radial_4793_1042)" d="M21.174 18.895a8.348 8.348 0 1 0 0-16.695 8.348 8.348 0 0 0 0 16.695Z"/><g filter="url(#filter0_f_4793_1042)"><path fill="url(#paint2_radial_4793_1042)" d="M21.174 17.84a7.293 7.293 0 1 0 0-14.586 7.293 7.293 0 0 0 0 14.587Z"/><path fill="url(#paint3_radial_4793_1042)" d="M21.174 17.84a7.293 7.293 0 1 0 0-14.586 7.293 7.293 0 0 0 0 14.587Z"/></g><g filter="url(#filter1_f_4793_1042)"><path fill="url(#paint4_radial_4793_1042)" d="M21.174 17.525a6.977 6.977 0 1 0 0-13.955 6.977 6.977 0 0 0 0 13.955Z"/><path fill="url(#paint5_radial_4793_1042)" d="M21.174 17.525a6.977 6.977 0 1 0 0-13.955 6.977 6.977 0 0 0 0 13.955Z"/></g><path fill="url(#paint6_linear_4793_1042)" d="M6.21 19.595a4.524 4.524 0 1 0 0-9.047 4.524 4.524 0 0 0 0 9.047Z"/><path fill="url(#paint7_radial_4793_1042)" d="M6.21 19.595a4.524 4.524 0 1 0 0-9.047 4.524 4.524 0 0 0 0 9.047Z"/><path fill="url(#paint8_linear_4793_1042)" d="M14.376 30.232a5.83 5.83 0 1 0 0-11.661 5.83 5.83 0 0 0 0 11.66Z"/><path fill="url(#paint9_radial_4793_1042)" d="M14.376 30.232a5.83 5.83 0 1 0 0-11.661 5.83 5.83 0 0 0 0 11.66Z"/><path fill="url(#paint10_radial_4793_1042)" d="M14.376 30.232a5.83 5.83 0 1 0 0-11.661 5.83 5.83 0 0 0 0 11.66Z"/><path fill="url(#paint11_radial_4793_1042)" d="M23.119 11.553a3.991 3.991 0 1 0 0-7.983 3.991 3.991 0 0 0 0 7.983Z"/><g filter="url(#filter2_f_4793_1042)"><path fill="url(#paint12_radial_4793_1042)" d="M14.376 29.027a4.626 4.626 0 1 0 0-9.251 4.626 4.626 0 0 0 0 9.251Z"/><path fill="url(#paint13_radial_4793_1042)" d="M14.376 29.027a4.626 4.626 0 1 0 0-9.251 4.626 4.626 0 0 0 0 9.251Z"/></g><g filter="url(#filter3_f_4793_1042)"><path fill="url(#paint14_radial_4793_1042)" d="M6.21 18.59a3.519 3.519 0 1 0 0-7.037 3.519 3.519 0 0 0 0 7.037Z"/><path fill="url(#paint15_radial_4793_1042)" d="M6.21 18.59a3.519 3.519 0 1 0 0-7.037 3.519 3.519 0 0 0 0 7.037Z"/></g><path fill="url(#paint16_radial_4793_1042)" d="M7.263 15.616a2.163 2.163 0 1 0 0-4.326 2.163 2.163 0 0 0 0 4.326Z"/><path fill="url(#paint17_radial_4793_1042)" d="M15.734 25.104a2.788 2.788 0 1 0 0-5.576 2.788 2.788 0 0 0 0 5.576Z"/><defs><radialGradient id="paint1_radial_4793_1042" cx="0" cy="0" r="1" gradientTransform="matrix(-2.09057 4.52378 -11.29538 -5.21992 25.818 3.668)" gradientUnits="userSpaceOnUse"><stop stop-color="#FF9CEA"/><stop offset="1" stop-color="#FF9CEA" stop-opacity="0"/></radialGradient><radialGradient id="paint2_radial_4793_1042" cx="0" cy="0" r="1" gradientTransform="rotate(-45 28.126 -13.07) scale(11.1316 8.49872)" gradientUnits="userSpaceOnUse"><stop offset=".415" stop-color="#D893FF"/><stop offset="1" stop-color="#E8EEFE"/></radialGradient><radialGradient id="paint3_radial_4793_1042" cx="0" cy="0" r="1" gradientTransform="rotate(-138.606 14.834 1.739) scale(11.5986 13.3739)" gradientUnits="userSpaceOnUse"><stop offset=".723" stop-color="#9FD2F5" stop-opacity="0"/><stop offset="1" stop-color="#9FD2F5"/></radialGradient><radialGradient id="paint4_radial_4793_1042" cx="0" cy="0" r="1" gradientTransform="rotate(-45 27.916 -13.383) scale(10.64959 8.13066)" gradientUnits="userSpaceOnUse"><stop offset=".415" stop-color="#D893FF"/><stop offset="1" stop-color="#E8EEFE"/></radialGradient><radialGradient id="paint5_radial_4793_1042" cx="0" cy="0" r="1" gradientTransform="matrix(-8.32423 -7.33724 8.46035 -9.5984 24.655 12.753)" gradientUnits="userSpaceOnUse"><stop offset=".723" stop-color="#9FD2F5" stop-opacity="0"/><stop offset="1" stop-color="#9FD2F5"/></radialGradient><radialGradient id="paint7_radial_4793_1042" cx="0" cy="0" r="1" gradientTransform="rotate(114.803 .736 8.462) scale(2.70071 6.74341)" gradientUnits="userSpaceOnUse"><stop stop-color="#FF9CEA"/><stop offset="1" stop-color="#FF9CEA" stop-opacity="0"/></radialGradient><radialGradient id="paint9_radial_4793_1042" cx="0" cy="0" r="1" gradientTransform="rotate(114.803 2.544 15.432) scale(3.48077 8.69114)" gradientUnits="userSpaceOnUse"><stop stop-color="#FF9CEA"/><stop offset="1" stop-color="#FF9CEA" stop-opacity="0"/></radialGradient><radialGradient id="paint10_radial_4793_1042" cx="0" cy="0" r="1" gradientTransform="matrix(-.85676 2.9816 -6.12948 -1.7613 16.017 17.65)" gradientUnits="userSpaceOnUse"><stop offset=".154" stop-color="#A876BA"/><stop offset="1" stop-color="#A876BA" stop-opacity="0"/></radialGradient><radialGradient id="paint11_radial_4793_1042" cx="0" cy="0" r="1" gradientTransform="matrix(3.902 -5.1578 7.63526 5.77624 20.507 9.489)" gradientUnits="userSpaceOnUse"><stop offset=".435" stop-color="ivory" stop-opacity="0"/><stop offset="1" stop-color="#fff"/></radialGradient><radialGradient id="paint12_radial_4793_1042" cx="0" cy="0" r="1" gradientTransform="rotate(-45 39.691 -.576) scale(7.06008 5.39018)" gradientUnits="userSpaceOnUse"><stop offset=".415" stop-color="#D893FF"/><stop offset="1" stop-color="#E8EEFE"/></radialGradient><radialGradient id="paint13_radial_4793_1042" cx="0" cy="0" r="1" gradientTransform="matrix(-5.5185 -4.8642 5.60873 -6.3632 16.684 25.863)" gradientUnits="userSpaceOnUse"><stop offset=".723" stop-color="#9FD2F5" stop-opacity="0"/><stop offset="1" stop-color="#9FD2F5"/></radialGradient><radialGradient id="paint14_radial_4793_1042" cx="0" cy="0" r="1" gradientTransform="rotate(-45 23.616 3.522) scale(5.37065 4.10035)" gradientUnits="userSpaceOnUse"><stop offset=".415" stop-color="#D893FF"/><stop offset="1" stop-color="#E8EEFE"/></radialGradient><radialGradient id="paint15_radial_4793_1042" cx="0" cy="0" r="1" gradientTransform="matrix(-4.19796 -3.70022 4.2666 -4.84053 7.964 16.183)" gradientUnits="userSpaceOnUse"><stop offset=".723" stop-color="#9FD2F5" stop-opacity="0"/><stop offset="1" stop-color="#9FD2F5"/></radialGradient><radialGradient id="paint16_radial_4793_1042" cx="0" cy="0" r="1" gradientTransform="matrix(2.1146 -2.7952 4.13782 3.13032 5.848 14.497)" gradientUnits="userSpaceOnUse"><stop offset=".435" stop-color="ivory" stop-opacity="0"/><stop offset="1" stop-color="#fff"/></radialGradient><radialGradient id="paint17_radial_4793_1042" cx="0" cy="0" r="1" gradientTransform="matrix(2.7254 -3.60254 5.33295 4.0345 13.91 23.662)" gradientUnits="userSpaceOnUse"><stop offset=".435" stop-color="ivory" stop-opacity="0"/><stop offset="1" stop-color="#fff"/></radialGradient><filter id="filter0_f_4793_1042" width="18.587" height="18.587" x="11.881" y="1.254" color-interpolation-filters="sRGB" filterUnits="userSpaceOnUse"><feFlood flood-opacity="0" result="BackgroundImageFix"/><feBlend in="SourceGraphic" in2="BackgroundImageFix" result="shape"/><feGaussianBlur result="effect1_foregroundBlur_4793_1042" stdDeviation="1"/></filter><filter id="filter1_f_4793_1042" width="17.955" height="17.955" x="12.197" y="1.57" color-interpolation-filters="sRGB" filterUnits="userSpaceOnUse"><feFlood flood-opacity="0" result="BackgroundImageFix"/><feBlend in="SourceGraphic" in2="BackgroundImageFix" result="shape"/><feGaussianBlur result="effect1_foregroundBlur_4793_1042" stdDeviation="1"/></filter><filter id="filter2_f_4793_1042" width="12.751" height="12.751" x="8" y="18.026" color-interpolation-filters="sRGB" filterUnits="userSpaceOnUse"><feFlood flood-opacity="0" result="BackgroundImageFix"/><feBlend in="SourceGraphic" in2="BackgroundImageFix" result="shape"/><feGaussianBlur result="effect1_foregroundBlur_4793_1042" stdDeviation=".875"/></filter><filter id="filter3_f_4793_1042" width="9.537" height="9.538" x="1.44" y="10.303" color-interpolation-filters="sRGB" filterUnits="userSpaceOnUse"><feFlood flood-opacity="0" result="BackgroundImageFix"/><feBlend in="SourceGraphic" in2="BackgroundImageFix" result="shape"/><feGaussianBlur result="effect1_foregroundBlur_4793_1042" stdDeviation=".625"/></filter><linearGradient id="paint0_linear_4793_1042" x1="14.988" x2="28.8" y1="3.977" y2="14.601" gradientUnits="userSpaceOnUse"><stop stop-color="#55EBFF"/><stop offset=".061" stop-color="#83C9F0"/><stop offset=".115" stop-color="#AFA8E1"/><stop offset=".218" stop-color="#CA5BC0"/><stop offset=".533" stop-color="#CA5BC0"/><stop offset=".694" stop-color="#FF99A9"/><stop offset="1" stop-color="#FADF9E"/></linearGradient><linearGradient id="paint6_linear_4793_1042" x1="2.857" x2="10.342" y1="11.511" y2="17.268" gradientUnits="userSpaceOnUse"><stop stop-color="#55EBFF"/><stop offset=".061" stop-color="#83C9F0"/><stop offset=".115" stop-color="#AFA8E1"/><stop offset=".218" stop-color="#CA5BC0"/><stop offset=".533" stop-color="#CA5BC0"/><stop offset=".694" stop-color="#FF99A9"/><stop offset="1" stop-color="#FADF9E"/></linearGradient><linearGradient id="paint8_linear_4793_1042" x1="10.056" x2="19.702" y1="19.812" y2="27.232" gradientUnits="userSpaceOnUse"><stop stop-color="#55EBFF"/><stop offset=".061" stop-color="#83C9F0"/><stop offset=".115" stop-color="#AFA8E1"/><stop offset=".218" stop-color="#CA5BC0"/><stop offset=".533" stop-color="#CA5BC0"/><stop offset=".694" stop-color="#FF99A9"/><stop offset="1" stop-color="#FADF9E"/></linearGradient></defs></svg>