<svg xmlns="http://www.w3.org/2000/svg" width="32" height="32" fill="none" viewBox="0 0 32 32"><path fill="url(#paint0_radial_28327_3280)" d="M22.247 18.77h3l-2.3 10.34c-.04.23-.25.39-.48.39h-2.21a.32.32 0 0 1-.31-.38l2.3-10.35Z"/><path fill="url(#paint1_linear_28327_3280)" d="M22.247 18.77h3l-2.3 10.34c-.04.23-.25.39-.48.39h-2.21a.32.32 0 0 1-.31-.38l2.3-10.35Z"/><path fill="url(#paint2_linear_28327_3280)" d="M22.247 18.77h3l-2.3 10.34c-.04.23-.25.39-.48.39h-2.21a.32.32 0 0 1-.31-.38l2.3-10.35Z"/><path fill="url(#paint3_radial_28327_3280)" d="M16.207 17.5h-3l2.57 11.61c.05.23.26.39.49.39h2.21c.2 0 .35-.18.31-.38l-2.58-11.62Z"/><path fill="url(#paint4_linear_28327_3280)" d="M16.207 17.5h-3l2.57 11.61c.05.23.26.39.49.39h2.21c.2 0 .35-.18.31-.38l-2.58-11.62Z"/><path fill="url(#paint5_linear_28327_3280)" d="M16.207 17.5h-3l2.57 11.61c.05.23.26.39.49.39h2.21c.2 0 .35-.18.31-.38l-2.58-11.62Z"/><path fill="#E49E76" d="M29.867 11.75a.728.728 0 0 0-.21-.46c-.03-.03-5.04-5.4-5.12-5.49-.82-.81-1.94-1.3-3.17-1.3a4.49 4.49 0 0 0-3.852 2.18.677.677 0 0 1-.037.056c-.277.401-3.608 5.211-3.68 5.322-.002.003-.001.004-.001.007a.018.018 0 0 1-.003.01c-.18.277-.5.465-.857.465-.55-.01-.99-.48-.99-1.03l-.08-7.01V2.77c0-.15-.13-.27-.28-.27-.95 0-1.72.77-1.72 1.73 0 .15-.13.27-.28.27h-4.21c-1.94 0-3.51 1.57-3.51 3.51v.37c0 .62.5 1.12 1.12 1.12h2.94c.52 0 .94.42.94.94v2.88c0 2.67 1.47 5.01 3.64 6.25.22.12.36.35.36.61V29c0 .28.22.5.5.5h2c.28 0 .5-.22.5-.5v-7.5a1 1 0 0 1 1-1h7c.326 0 .644-.032.952-.091.64-.124 1.336.225 1.54.844.144.44.32.87.528 1.287l.85 1.71c.09.16.13.35.13.53V29c0 .28.22.5.5.5h2c.28 0 .5-.22.5-.5V13.068c0-.293.345-.51.607-.64a.7.7 0 0 0 .393-.678Z"/><path fill="url(#paint6_radial_28327_3280)" d="M29.867 11.75a.728.728 0 0 0-.21-.46c-.03-.03-5.04-5.4-5.12-5.49-.82-.81-1.94-1.3-3.17-1.3a4.49 4.49 0 0 0-3.852 2.18.677.677 0 0 1-.037.056c-.277.401-3.608 5.211-3.68 5.322-.002.003-.001.004-.001.007a.018.018 0 0 1-.003.01c-.18.277-.5.465-.857.465-.55-.01-.99-.48-.99-1.03l-.08-7.01V2.77c0-.15-.13-.27-.28-.27-.95 0-1.72.77-1.72 1.73 0 .15-.13.27-.28.27h-4.21c-1.94 0-3.51 1.57-3.51 3.51v.37c0 .62.5 1.12 1.12 1.12h2.94c.52 0 .94.42.94.94v2.88c0 2.67 1.47 5.01 3.64 6.25.22.12.36.35.36.61V29c0 .28.22.5.5.5h2c.28 0 .5-.22.5-.5v-7.5a1 1 0 0 1 1-1h7c.326 0 .644-.032.952-.091.64-.124 1.336.225 1.54.844.144.44.32.87.528 1.287l.85 1.71c.09.16.13.35.13.53V29c0 .28.22.5.5.5h2c.28 0 .5-.22.5-.5V13.068c0-.293.345-.51.607-.64a.7.7 0 0 0 .393-.678Z"/><path fill="url(#paint7_radial_28327_3280)" d="M29.867 11.75a.728.728 0 0 0-.21-.46c-.03-.03-5.04-5.4-5.12-5.49-.82-.81-1.94-1.3-3.17-1.3a4.49 4.49 0 0 0-3.852 2.18.677.677 0 0 1-.037.056c-.277.401-3.608 5.211-3.68 5.322-.002.003-.001.004-.001.007a.018.018 0 0 1-.003.01c-.18.277-.5.465-.857.465-.55-.01-.99-.48-.99-1.03l-.08-7.01V2.77c0-.15-.13-.27-.28-.27-.95 0-1.72.77-1.72 1.73 0 .15-.13.27-.28.27h-4.21c-1.94 0-3.51 1.57-3.51 3.51v.37c0 .62.5 1.12 1.12 1.12h2.94c.52 0 .94.42.94.94v2.88c0 2.67 1.47 5.01 3.64 6.25.22.12.36.35.36.61V29c0 .28.22.5.5.5h2c.28 0 .5-.22.5-.5v-7.5a1 1 0 0 1 1-1h7c.326 0 .644-.032.952-.091.64-.124 1.336.225 1.54.844.144.44.32.87.528 1.287l.85 1.71c.09.16.13.35.13.53V29c0 .28.22.5.5.5h2c.28 0 .5-.22.5-.5V13.068c0-.293.345-.51.607-.64a.7.7 0 0 0 .393-.678Z"/><path fill="url(#paint8_radial_28327_3280)" d="M29.867 11.75a.728.728 0 0 0-.21-.46c-.03-.03-5.04-5.4-5.12-5.49-.82-.81-1.94-1.3-3.17-1.3a4.49 4.49 0 0 0-3.852 2.18.677.677 0 0 1-.037.056c-.277.401-3.608 5.211-3.68 5.322-.002.003-.001.004-.001.007a.018.018 0 0 1-.003.01c-.18.277-.5.465-.857.465-.55-.01-.99-.48-.99-1.03l-.08-7.01V2.77c0-.15-.13-.27-.28-.27-.95 0-1.72.77-1.72 1.73 0 .15-.13.27-.28.27h-4.21c-1.94 0-3.51 1.57-3.51 3.51v.37c0 .62.5 1.12 1.12 1.12h2.94c.52 0 .94.42.94.94v2.88c0 2.67 1.47 5.01 3.64 6.25.22.12.36.35.36.61V29c0 .28.22.5.5.5h2c.28 0 .5-.22.5-.5v-7.5a1 1 0 0 1 1-1h7c.326 0 .644-.032.952-.091.64-.124 1.336.225 1.54.844.144.44.32.87.528 1.287l.85 1.71c.09.16.13.35.13.53V29c0 .28.22.5.5.5h2c.28 0 .5-.22.5-.5V13.068c0-.293.345-.51.607-.64a.7.7 0 0 0 .393-.678Z"/><path fill="url(#paint9_radial_28327_3280)" d="M29.867 11.75a.728.728 0 0 0-.21-.46c-.03-.03-5.04-5.4-5.12-5.49-.82-.81-1.94-1.3-3.17-1.3a4.49 4.49 0 0 0-3.852 2.18.677.677 0 0 1-.037.056c-.277.401-3.608 5.211-3.68 5.322-.002.003-.001.004-.001.007a.018.018 0 0 1-.003.01c-.18.277-.5.465-.857.465-.55-.01-.99-.48-.99-1.03l-.08-7.01V2.77c0-.15-.13-.27-.28-.27-.95 0-1.72.77-1.72 1.73 0 .15-.13.27-.28.27h-4.21c-1.94 0-3.51 1.57-3.51 3.51v.37c0 .62.5 1.12 1.12 1.12h2.94c.52 0 .94.42.94.94v2.88c0 2.67 1.47 5.01 3.64 6.25.22.12.36.35.36.61V29c0 .28.22.5.5.5h2c.28 0 .5-.22.5-.5v-7.5a1 1 0 0 1 1-1h7c.326 0 .644-.032.952-.091.64-.124 1.336.225 1.54.844.144.44.32.87.528 1.287l.85 1.71c.09.16.13.35.13.53V29c0 .28.22.5.5.5h2c.28 0 .5-.22.5-.5V13.068c0-.293.345-.51.607-.64a.7.7 0 0 0 .393-.678Z"/><path fill="url(#paint10_radial_28327_3280)" d="M29.867 11.75a.728.728 0 0 0-.21-.46c-.03-.03-5.04-5.4-5.12-5.49-.82-.81-1.94-1.3-3.17-1.3a4.49 4.49 0 0 0-3.852 2.18.677.677 0 0 1-.037.056c-.277.401-3.608 5.211-3.68 5.322-.002.003-.001.004-.001.007a.018.018 0 0 1-.003.01c-.18.277-.5.465-.857.465-.55-.01-.99-.48-.99-1.03l-.08-7.01V2.77c0-.15-.13-.27-.28-.27-.95 0-1.72.77-1.72 1.73 0 .15-.13.27-.28.27h-4.21c-1.94 0-3.51 1.57-3.51 3.51v.37c0 .62.5 1.12 1.12 1.12h2.94c.52 0 .94.42.94.94v2.88c0 2.67 1.47 5.01 3.64 6.25.22.12.36.35.36.61V29c0 .28.22.5.5.5h2c.28 0 .5-.22.5-.5v-7.5a1 1 0 0 1 1-1h7c.326 0 .644-.032.952-.091.64-.124 1.336.225 1.54.844.144.44.32.87.528 1.287l.85 1.71c.09.16.13.35.13.53V29c0 .28.22.5.5.5h2c.28 0 .5-.22.5-.5V13.068c0-.293.345-.51.607-.64a.7.7 0 0 0 .393-.678Z"/><path fill="url(#paint11_radial_28327_3280)" d="M29.867 11.75a.728.728 0 0 0-.21-.46c-.03-.03-5.04-5.4-5.12-5.49-.82-.81-1.94-1.3-3.17-1.3a4.49 4.49 0 0 0-3.852 2.18.677.677 0 0 1-.037.056c-.277.401-3.608 5.211-3.68 5.322-.002.003-.001.004-.001.007a.018.018 0 0 1-.003.01c-.18.277-.5.465-.857.465-.55-.01-.99-.48-.99-1.03l-.08-7.01V2.77c0-.15-.13-.27-.28-.27-.95 0-1.72.77-1.72 1.73 0 .15-.13.27-.28.27h-4.21c-1.94 0-3.51 1.57-3.51 3.51v.37c0 .62.5 1.12 1.12 1.12h2.94c.52 0 .94.42.94.94v2.88c0 2.67 1.47 5.01 3.64 6.25.22.12.36.35.36.61V29c0 .28.22.5.5.5h2c.28 0 .5-.22.5-.5v-7.5a1 1 0 0 1 1-1h7c.326 0 .644-.032.952-.091.64-.124 1.336.225 1.54.844.144.44.32.87.528 1.287l.85 1.71c.09.16.13.35.13.53V29c0 .28.22.5.5.5h2c.28 0 .5-.22.5-.5V13.068c0-.293.345-.51.607-.64a.7.7 0 0 0 .393-.678Z"/><path fill="url(#paint12_radial_28327_3280)" d="M29.867 11.75a.728.728 0 0 0-.21-.46c-.03-.03-5.04-5.4-5.12-5.49-.82-.81-1.94-1.3-3.17-1.3a4.49 4.49 0 0 0-3.852 2.18.677.677 0 0 1-.037.056c-.277.401-3.608 5.211-3.68 5.322-.002.003-.001.004-.001.007a.018.018 0 0 1-.003.01c-.18.277-.5.465-.857.465-.55-.01-.99-.48-.99-1.03l-.08-7.01V2.77c0-.15-.13-.27-.28-.27-.95 0-1.72.77-1.72 1.73 0 .15-.13.27-.28.27h-4.21c-1.94 0-3.51 1.57-3.51 3.51v.37c0 .62.5 1.12 1.12 1.12h2.94c.52 0 .94.42.94.94v2.88c0 2.67 1.47 5.01 3.64 6.25.22.12.36.35.36.61V29c0 .28.22.5.5.5h2c.28 0 .5-.22.5-.5v-7.5a1 1 0 0 1 1-1h7c.326 0 .644-.032.952-.091.64-.124 1.336.225 1.54.844.144.44.32.87.528 1.287l.85 1.71c.09.16.13.35.13.53V29c0 .28.22.5.5.5h2c.28 0 .5-.22.5-.5V13.068c0-.293.345-.51.607-.64a.7.7 0 0 0 .393-.678Z"/><path fill="url(#paint13_radial_28327_3280)" d="M29.867 11.75a.728.728 0 0 0-.21-.46c-.03-.03-5.04-5.4-5.12-5.49-.82-.81-1.94-1.3-3.17-1.3a4.49 4.49 0 0 0-3.852 2.18.677.677 0 0 1-.037.056c-.277.401-3.608 5.211-3.68 5.322-.002.003-.001.004-.001.007a.018.018 0 0 1-.003.01c-.18.277-.5.465-.857.465-.55-.01-.99-.48-.99-1.03l-.08-7.01V2.77c0-.15-.13-.27-.28-.27-.95 0-1.72.77-1.72 1.73 0 .15-.13.27-.28.27h-4.21c-1.94 0-3.51 1.57-3.51 3.51v.37c0 .62.5 1.12 1.12 1.12h2.94c.52 0 .94.42.94.94v2.88c0 2.67 1.47 5.01 3.64 6.25.22.12.36.35.36.61V29c0 .28.22.5.5.5h2c.28 0 .5-.22.5-.5v-7.5a1 1 0 0 1 1-1h7c.326 0 .644-.032.952-.091.64-.124 1.336.225 1.54.844.144.44.32.87.528 1.287l.85 1.71c.09.16.13.35.13.53V29c0 .28.22.5.5.5h2c.28 0 .5-.22.5-.5V13.068c0-.293.345-.51.607-.64a.7.7 0 0 0 .393-.678Z"/><path fill="url(#paint14_linear_28327_3280)" d="M15.304 20.5v-1.313a1 1 0 0 0-1-1h-3.163c-.46 0-.706.612-.505 1.026.181.374.218.684.225.879a.714.714 0 0 1 .006.088V29c0 .28.22.5.5.5h2c.28 0 .5-.22.5-.5v-7.5a1 1 0 0 1 1-1h.437Z"/><path fill="url(#paint15_linear_28327_3280)" d="M15.304 20.5v-1.313a1 1 0 0 0-1-1h-3.163c-.46 0-.706.612-.505 1.026.181.374.218.684.225.879a.714.714 0 0 1 .006.088V29c0 .28.22.5.5.5h2c.28 0 .5-.22.5-.5v-7.5a1 1 0 0 1 1-1h.437Z"/><path fill="url(#paint16_linear_28327_3280)" d="M28.867 19.594a2.375 2.375 0 0 0-4.75 0v.758c0 .312.144.604.241.901.145.44.32.87.529 1.287l.85 1.71c.09.16.13.35.13.53V29c0 .28.22.5.5.5h2c.28 0 .5-.22.5-.5v-9.406Z"/><path fill="url(#paint17_linear_28327_3280)" d="M28.867 19.594a2.375 2.375 0 0 0-4.75 0v.758c0 .312.144.604.241.901.145.44.32.87.529 1.287l.85 1.71c.09.16.13.35.13.53V29c0 .28.22.5.5.5h2c.28 0 .5-.22.5-.5v-9.406Z"/><path fill="url(#paint18_radial_28327_3280)" d="M28.867 19.594a2.375 2.375 0 0 0-4.75 0v.758c0 .312.144.604.241.901.145.44.32.87.529 1.287l.85 1.71c.09.16.13.35.13.53V29c0 .28.22.5.5.5h2c.28 0 .5-.22.5-.5v-9.406Z"/><path fill="url(#paint19_radial_28327_3280)" fill-opacity=".5" d="M29.867 11.75a.728.728 0 0 0-.21-.46c-.03-.03-5.04-5.4-5.12-5.49-.82-.81-1.94-1.3-3.17-1.3a4.49 4.49 0 0 0-3.852 2.18.677.677 0 0 1-.037.056c-.277.401-3.608 5.211-3.68 5.322-.002.003-.001.004-.001.007a.018.018 0 0 1-.003.01c-.18.277-.5.465-.857.465-.55-.01-.99-.48-.99-1.03l-.08-7.01V2.77c0-.15-.13-.27-.28-.27-.95 0-1.72.77-1.72 1.73 0 .15-.13.27-.28.27h-4.21c-1.94 0-3.51 1.57-3.51 3.51v.37c0 .62.5 1.12 1.12 1.12h2.94c.52 0 .94.42.94.94v2.88c0 2.67 1.47 5.01 3.64 6.25.22.12.36.35.36.61V29c0 .28.22.5.5.5h2c.28 0 .5-.22.5-.5v-7.5a1 1 0 0 1 1-1h7c.326 0 .644-.032.952-.091.64-.124 1.336.225 1.54.844.144.44.32.87.528 1.287l.85 1.71c.09.16.13.35.13.53V29c0 .28.22.5.5.5h2c.28 0 .5-.22.5-.5V13.068c0-.293.345-.51.607-.64a.7.7 0 0 0 .393-.678Z"/><path fill="url(#paint20_radial_28327_3280)" d="M29.867 11.75a.728.728 0 0 0-.21-.46c-.03-.03-5.04-5.4-5.12-5.49-.82-.81-1.94-1.3-3.17-1.3a4.49 4.49 0 0 0-3.852 2.18.677.677 0 0 1-.037.056c-.277.401-3.608 5.211-3.68 5.322-.002.003-.001.004-.001.007a.018.018 0 0 1-.003.01c-.18.277-.5.465-.857.465-.55-.01-.99-.48-.99-1.03l-.08-7.01V2.77c0-.15-.13-.27-.28-.27-.95 0-1.72.77-1.72 1.73 0 .15-.13.27-.28.27h-4.21c-1.94 0-3.51 1.57-3.51 3.51v.37c0 .62.5 1.12 1.12 1.12h2.94c.52 0 .94.42.94.94v2.88c0 2.67 1.47 5.01 3.64 6.25.22.12.36.35.36.61V29c0 .28.22.5.5.5h2c.28 0 .5-.22.5-.5v-7.5a1 1 0 0 1 1-1h7c.326 0 .644-.032.952-.091.64-.124 1.336.225 1.54.844.144.44.32.87.528 1.287l.85 1.71c.09.16.13.35.13.53V29c0 .28.22.5.5.5h2c.28 0 .5-.22.5-.5V13.068c0-.293.345-.51.607-.64a.7.7 0 0 0 .393-.678Z"/><path fill="url(#paint21_radial_28327_3280)" d="M29.867 11.75a.728.728 0 0 0-.21-.46c-.03-.03-5.04-5.4-5.12-5.49-.82-.81-1.94-1.3-3.17-1.3a4.49 4.49 0 0 0-3.852 2.18.677.677 0 0 1-.037.056c-.277.401-3.608 5.211-3.68 5.322-.002.003-.001.004-.001.007a.018.018 0 0 1-.003.01c-.18.277-.5.465-.857.465-.55-.01-.99-.48-.99-1.03l-.08-7.01V2.77c0-.15-.13-.27-.28-.27-.95 0-1.72.77-1.72 1.73 0 .15-.13.27-.28.27h-4.21c-1.94 0-3.51 1.57-3.51 3.51v.37c0 .62.5 1.12 1.12 1.12h2.94c.52 0 .94.42.94.94v2.88c0 2.67 1.47 5.01 3.64 6.25.22.12.36.35.36.61V29c0 .28.22.5.5.5h2c.28 0 .5-.22.5-.5v-7.5a1 1 0 0 1 1-1h7c.326 0 .644-.032.952-.091.64-.124 1.336.225 1.54.844.144.44.32.87.528 1.287l.85 1.71c.09.16.13.35.13.53V29c0 .28.22.5.5.5h2c.28 0 .5-.22.5-.5V13.068c0-.293.345-.51.607-.64a.7.7 0 0 0 .393-.678Z"/><path fill="url(#paint22_radial_28327_3280)" d="M29.867 11.75a.728.728 0 0 0-.21-.46c-.03-.03-5.04-5.4-5.12-5.49-.82-.81-1.94-1.3-3.17-1.3a4.49 4.49 0 0 0-3.852 2.18.677.677 0 0 1-.037.056c-.277.401-3.608 5.211-3.68 5.322-.002.003-.001.004-.001.007a.018.018 0 0 1-.003.01c-.18.277-.5.465-.857.465-.55-.01-.99-.48-.99-1.03l-.08-7.01V2.77c0-.15-.13-.27-.28-.27-.95 0-1.72.77-1.72 1.73 0 .15-.13.27-.28.27h-4.21c-1.94 0-3.51 1.57-3.51 3.51v.37c0 .62.5 1.12 1.12 1.12h2.94c.52 0 .94.42.94.94v2.88c0 2.67 1.47 5.01 3.64 6.25.22.12.36.35.36.61V29c0 .28.22.5.5.5h2c.28 0 .5-.22.5-.5v-7.5a1 1 0 0 1 1-1h7c.326 0 .644-.032.952-.091.64-.124 1.336.225 1.54.844.144.44.32.87.528 1.287l.85 1.71c.09.16.13.35.13.53V29c0 .28.22.5.5.5h2c.28 0 .5-.22.5-.5V13.068c0-.293.345-.51.607-.64a.7.7 0 0 0 .393-.678Z"/><path fill="url(#paint23_radial_28327_3280)" d="M29.867 11.75a.728.728 0 0 0-.21-.46c-.03-.03-5.04-5.4-5.12-5.49-.82-.81-1.94-1.3-3.17-1.3a4.49 4.49 0 0 0-3.852 2.18.677.677 0 0 1-.037.056c-.277.401-3.608 5.211-3.68 5.322-.002.003-.001.004-.001.007a.018.018 0 0 1-.003.01c-.18.277-.5.465-.857.465-.55-.01-.99-.48-.99-1.03l-.08-7.01V2.77c0-.15-.13-.27-.28-.27-.95 0-1.72.77-1.72 1.73 0 .15-.13.27-.28.27h-4.21c-1.94 0-3.51 1.57-3.51 3.51v.37c0 .62.5 1.12 1.12 1.12h2.94c.52 0 .94.42.94.94v2.88c0 2.67 1.47 5.01 3.64 6.25.22.12.36.35.36.61V29c0 .28.22.5.5.5h2c.28 0 .5-.22.5-.5v-7.5a1 1 0 0 1 1-1h7c.326 0 .644-.032.952-.091.64-.124 1.336.225 1.54.844.144.44.32.87.528 1.287l.85 1.71c.09.16.13.35.13.53V29c0 .28.22.5.5.5h2c.28 0 .5-.22.5-.5V13.068c0-.293.345-.51.607-.64a.7.7 0 0 0 .393-.678Z"/><path fill="url(#paint24_radial_28327_3280)" d="M3.367 8.5c-.28 0-.5-.23-.5-.5v-.44c0-.28.22-.5.5-.5s.5.22.5.5V8c0 .27-.22.5-.5.5Z"/><path fill="url(#paint25_radial_28327_3280)" d="M7.367 7.5c-.28 0-.5-.245-.5-.532v-.936c0-.298.22-.532.5-.532s.5.234.5.532v.936c0 .287-.22.532-.5.532Z"/><g filter="url(#filter0_f_28327_3280)"><path fill="url(#paint26_linear_28327_3280)" d="M27.82 19.125h.563v9.75h-.563z"/></g><g filter="url(#filter1_f_28327_3280)"><path fill="url(#paint27_linear_28327_3280)" d="M12.566 19h.563v9.875h-.563V19Z"/></g><g filter="url(#filter2_f_28327_3280)"><path fill="url(#paint28_linear_28327_3280)" d="M29.039 11.594 23.952 6.18a3 3 0 0 0-2.956-.846l-1.801.479 8.125 7.375 1.719-1.594Z"/></g><g filter="url(#filter3_f_28327_3280)"><path fill="url(#paint29_linear_28327_3280)" d="M11.492 11.906V3.062c-.563 0-1.386 6.49-1.313 8.844h1.313Z"/></g><g filter="url(#filter4_f_28327_3280)"><path fill="url(#paint30_radial_28327_3280)" d="M13.148 13.234c-1.725-.037-1.906-1.421-1.781-2.109H9.835c-.14.781 0 1.62.22 2.313.462 1.462 2.348 1.572 3.093 1.546v-1.75Z"/></g><g filter="url(#filter5_f_28327_3280)"><path stroke="url(#paint31_linear_28327_3280)" stroke-width=".3" d="m21.75 28.875 1.687-6.688"/></g><g filter="url(#filter6_f_28327_3280)"><path stroke="url(#paint32_linear_28327_3280)" stroke-width=".3" d="M17.773 28.781 15.835 21"/></g><g filter="url(#filter7_f_28327_3280)"><path fill="url(#paint33_linear_28327_3280)" fill-opacity=".5" d="M28.367 13.188v9.437h-1.313l-3.812-9.438h5.125Z"/></g><defs><radialGradient id="paint0_radial_28327_3280" cx="0" cy="0" r="1" gradientTransform="matrix(-1.81248 6.875 -5.49373 -1.44833 21.054 28.688)" gradientUnits="userSpaceOnUse"><stop stop-color="#C56B44"/><stop offset="1" stop-color="#7E3834"/></radialGradient><radialGradient id="paint3_radial_28327_3280" cx="0" cy="0" r="1" gradientTransform="matrix(-2.25004 -10.125 9.28504 -2.06337 17.68 29.813)" gradientUnits="userSpaceOnUse"><stop stop-color="#C56B44"/><stop offset="1" stop-color="#7E3834"/></radialGradient><radialGradient id="paint6_radial_28327_3280" cx="0" cy="0" r="1" gradientTransform="matrix(-5.5005 7.68754 -5.76084 -4.12192 15.867 11.938)" gradientUnits="userSpaceOnUse"><stop stop-color="#E19C70"/><stop offset="1" stop-color="#E19C70" stop-opacity="0"/></radialGradient><radialGradient id="paint7_radial_28327_3280" cx="0" cy="0" r="1" gradientTransform="matrix(-3.1406 -2.00002 .62182 -.97644 31.21 13.75)" gradientUnits="userSpaceOnUse"><stop stop-color="#CE7549"/><stop offset="1" stop-color="#CE7549" stop-opacity="0"/></radialGradient><radialGradient id="paint8_radial_28327_3280" cx="0" cy="0" r="1" gradientTransform="matrix(8.53122 -6.43747 2.36059 3.12835 -.852 14.688)" gradientUnits="userSpaceOnUse"><stop offset=".334" stop-color="#B13E76"/><stop offset="1" stop-color="#B13E76" stop-opacity="0"/></radialGradient><radialGradient id="paint9_radial_28327_3280" cx="0" cy="0" r="1" gradientTransform="matrix(-3.54685 -7 4.06994 -2.06221 8.992 23.5)" gradientUnits="userSpaceOnUse"><stop offset=".14" stop-color="#B13E76"/><stop offset="1" stop-color="#B13E76" stop-opacity="0"/></radialGradient><radialGradient id="paint10_radial_28327_3280" cx="0" cy="0" r="1" gradientTransform="rotate(46.259 .121 12.891) scale(2.01132 1.1713)" gradientUnits="userSpaceOnUse"><stop stop-color="#E0A267"/><stop offset="1" stop-color="#E09A58" stop-opacity="0"/></radialGradient><radialGradient id="paint11_radial_28327_3280" cx="0" cy="0" r="1" gradientTransform="matrix(1.75 2.46875 -4.49122 3.18365 2.867 4.125)" gradientUnits="userSpaceOnUse"><stop stop-color="#E0A267"/><stop offset="1" stop-color="#E09A58" stop-opacity="0"/></radialGradient><radialGradient id="paint12_radial_28327_3280" cx="0" cy="0" r="1" gradientTransform="matrix(4.75 -2 7.48121 17.76783 5.367 16.75)" gradientUnits="userSpaceOnUse"><stop stop-color="#D28964"/><stop offset="1" stop-color="#D28964" stop-opacity="0"/></radialGradient><radialGradient id="paint13_radial_28327_3280" cx="0" cy="0" r="1" gradientTransform="matrix(4.5 -1.5 4.57143 13.71426 7.242 17.5)" gradientUnits="userSpaceOnUse"><stop stop-color="#CE8167"/><stop offset="1" stop-color="#CE8167" stop-opacity="0"/></radialGradient><radialGradient id="paint18_radial_28327_3280" cx="0" cy="0" r="1" gradientTransform="matrix(3.6875 -4.1875 4.41159 3.88482 22.804 25.063)" gradientUnits="userSpaceOnUse"><stop stop-color="#B13E76"/><stop offset=".79" stop-color="#B13E76" stop-opacity="0"/></radialGradient><radialGradient id="paint19_radial_28327_3280" cx="0" cy="0" r="1" gradientTransform="matrix(0 -8.625 7.625 0 19.554 22.875)" gradientUnits="userSpaceOnUse"><stop offset=".056" stop-color="#B13E76"/><stop offset=".941" stop-color="#B13E76" stop-opacity="0"/></radialGradient><radialGradient id="paint20_radial_28327_3280" cx="0" cy="0" r="1" gradientTransform="matrix(.0625 -6.0625 14.37474 .1482 19.492 21.5)" gradientUnits="userSpaceOnUse"><stop stop-color="#B13E76"/><stop offset=".452" stop-color="#B13E76" stop-opacity="0"/></radialGradient><radialGradient id="paint21_radial_28327_3280" cx="0" cy="0" r="1" gradientTransform="rotate(37.208 -6.476 27.126) scale(2.11879 5.53733)" gradientUnits="userSpaceOnUse"><stop stop-color="#CD8549"/><stop offset="1" stop-color="#CD8549" stop-opacity="0"/></radialGradient><radialGradient id="paint22_radial_28327_3280" cx="0" cy="0" r="1" gradientTransform="matrix(0 2.0625 -4.58333 0 7.93 6.125)" gradientUnits="userSpaceOnUse"><stop stop-color="#E4AE7C"/><stop offset="1" stop-color="#E4AE7C" stop-opacity="0"/></radialGradient><radialGradient id="paint23_radial_28327_3280" cx="0" cy="0" r="1" gradientTransform="matrix(-8.18749 6.56247 -7.55688 -9.42815 30.867 7.688)" gradientUnits="userSpaceOnUse"><stop stop-color="#FFC684"/><stop offset="1" stop-color="#FFC684" stop-opacity="0"/></radialGradient><radialGradient id="paint24_radial_28327_3280" cx="0" cy="0" r="1" gradientTransform="matrix(.4375 0 0 .82813 3.171 7.938)" gradientUnits="userSpaceOnUse"><stop stop-color="#C78E72"/><stop offset="1" stop-color="#BC7748"/></radialGradient><radialGradient id="paint25_radial_28327_3280" cx="0" cy="0" r="1" gradientTransform="matrix(-.29167 0 0 -1.19336 7.511 6.5)" gradientUnits="userSpaceOnUse"><stop stop-color="#67545F"/><stop offset="1" stop-color="#3C2B34"/></radialGradient><radialGradient id="paint30_radial_28327_3280" cx="0" cy="0" r="1" gradientTransform="matrix(-1.51564 1.93749 -1.29832 -1.01564 12.32 12.14)" gradientUnits="userSpaceOnUse"><stop stop-color="#FFD0A3"/><stop offset="1" stop-color="#FFD0A3" stop-opacity="0"/></radialGradient><linearGradient id="paint1_linear_28327_3280" x1="21.898" x2="22.594" y1="29.813" y2="25.219" gradientUnits="userSpaceOnUse"><stop stop-color="#CC703F"/><stop offset=".497" stop-color="#CC703F" stop-opacity="0"/></linearGradient><linearGradient id="paint2_linear_28327_3280" x1="24.07" x2="24.07" y1="30.618" y2="28.215" gradientUnits="userSpaceOnUse"><stop stop-color="#D9747B"/><stop offset="1" stop-color="#D9747B" stop-opacity="0"/></linearGradient><linearGradient id="paint4_linear_28327_3280" x1="16" x2="14.145" y1="29.813" y2="21.279" gradientUnits="userSpaceOnUse"><stop stop-color="#D27D5B"/><stop offset="1" stop-color="#D27D5B" stop-opacity="0"/></linearGradient><linearGradient id="paint5_linear_28327_3280" x1="17.554" x2="17.554" y1="30.75" y2="28.063" gradientUnits="userSpaceOnUse"><stop stop-color="#D9747B"/><stop offset="1" stop-color="#D9747B" stop-opacity="0"/></linearGradient><linearGradient id="paint14_linear_28327_3280" x1="7.804" x2="11.617" y1="24.938" y2="14.063" gradientUnits="userSpaceOnUse"><stop stop-color="#D27E4D"/><stop offset=".688" stop-color="#E49E76"/></linearGradient><linearGradient id="paint15_linear_28327_3280" x1="14.09" x2="14.09" y1="30.094" y2="28.145" gradientUnits="userSpaceOnUse"><stop stop-color="#D9747B"/><stop offset="1" stop-color="#D9747B" stop-opacity="0"/></linearGradient><linearGradient id="paint16_linear_28327_3280" x1="26.492" x2="26.492" y1="19.625" y2="30.125" gradientUnits="userSpaceOnUse"><stop stop-color="#E49E76"/><stop offset="1" stop-color="#CE7549"/></linearGradient><linearGradient id="paint17_linear_28327_3280" x1="26.492" x2="26.492" y1="30.25" y2="28.688" gradientUnits="userSpaceOnUse"><stop stop-color="#BC5972"/><stop offset="1" stop-color="#BC5972" stop-opacity="0"/></linearGradient><linearGradient id="paint26_linear_28327_3280" x1="28.101" x2="28.101" y1="19.125" y2="28.875" gradientUnits="userSpaceOnUse"><stop stop-color="#FFB684" stop-opacity="0"/><stop offset="1" stop-color="#FFB684"/></linearGradient><linearGradient id="paint27_linear_28327_3280" x1="12.847" x2="12.847" y1="4.125" y2="24.563" gradientUnits="userSpaceOnUse"><stop stop-color="#FFB684" stop-opacity="0"/><stop offset="1" stop-color="#FFB684"/></linearGradient><linearGradient id="paint28_linear_28327_3280" x1="25.82" x2="28.164" y1="11.281" y2="8.844" gradientUnits="userSpaceOnUse"><stop stop-color="#FFC684" stop-opacity="0"/><stop offset="1" stop-color="#FFC684"/></linearGradient><linearGradient id="paint29_linear_28327_3280" x1="11.492" x2="14.57" y1="15.063" y2="14.269" gradientUnits="userSpaceOnUse"><stop stop-color="#FFD0A3" stop-opacity="0"/><stop offset="1" stop-color="#FFD0A3"/></linearGradient><linearGradient id="paint31_linear_28327_3280" x1="21.335" x2="23.437" y1="28.656" y2="19.656" gradientUnits="userSpaceOnUse"><stop stop-color="#F79B78"/><stop offset="1" stop-color="#F69B78" stop-opacity="0"/></linearGradient><linearGradient id="paint32_linear_28327_3280" x1="16.692" x2="12.804" y1="28.656" y2="12.625" gradientUnits="userSpaceOnUse"><stop stop-color="#EA9669"/><stop offset="1" stop-color="#EA9669" stop-opacity="0"/></linearGradient><linearGradient id="paint33_linear_28327_3280" x1="27.492" x2="23.619" y1="13.188" y2="19.105" gradientUnits="userSpaceOnUse"><stop stop-color="#FFC684" stop-opacity="0"/><stop offset="1" stop-color="#FFC684"/></linearGradient><filter id="filter0_f_28327_3280" width="2.063" height="11.25" x="27.07" y="18.375" color-interpolation-filters="sRGB" filterUnits="userSpaceOnUse"><feFlood flood-opacity="0" result="BackgroundImageFix"/><feBlend in="SourceGraphic" in2="BackgroundImageFix" result="shape"/><feGaussianBlur result="effect1_foregroundBlur_28327_3280" stdDeviation=".375"/></filter><filter id="filter1_f_28327_3280" width="2.063" height="11.375" x="11.816" y="18.25" color-interpolation-filters="sRGB" filterUnits="userSpaceOnUse"><feFlood flood-opacity="0" result="BackgroundImageFix"/><feBlend in="SourceGraphic" in2="BackgroundImageFix" result="shape"/><feGaussianBlur result="effect1_foregroundBlur_28327_3280" stdDeviation=".375"/></filter><filter id="filter2_f_28327_3280" width="11.344" height="9.454" x="18.445" y="4.484" color-interpolation-filters="sRGB" filterUnits="userSpaceOnUse"><feFlood flood-opacity="0" result="BackgroundImageFix"/><feBlend in="SourceGraphic" in2="BackgroundImageFix" result="shape"/><feGaussianBlur result="effect1_foregroundBlur_28327_3280" stdDeviation=".375"/></filter><filter id="filter3_f_28327_3280" width="2.517" height="10.044" x="9.575" y="2.462" color-interpolation-filters="sRGB" filterUnits="userSpaceOnUse"><feFlood flood-opacity="0" result="BackgroundImageFix"/><feBlend in="SourceGraphic" in2="BackgroundImageFix" result="shape"/><feGaussianBlur result="effect1_foregroundBlur_28327_3280" stdDeviation=".3"/></filter><filter id="filter4_f_28327_3280" width="4.569" height="5.062" x="9.179" y="10.525" color-interpolation-filters="sRGB" filterUnits="userSpaceOnUse"><feFlood flood-opacity="0" result="BackgroundImageFix"/><feBlend in="SourceGraphic" in2="BackgroundImageFix" result="shape"/><feGaussianBlur result="effect1_foregroundBlur_28327_3280" stdDeviation=".3"/></filter><filter id="filter5_f_28327_3280" width="3.578" height="8.361" x="20.804" y="21.351" color-interpolation-filters="sRGB" filterUnits="userSpaceOnUse"><feFlood flood-opacity="0" result="BackgroundImageFix"/><feBlend in="SourceGraphic" in2="BackgroundImageFix" result="shape"/><feGaussianBlur result="effect1_foregroundBlur_28327_3280" stdDeviation=".4"/></filter><filter id="filter6_f_28327_3280" width="3.829" height="9.454" x="14.89" y="20.164" color-interpolation-filters="sRGB" filterUnits="userSpaceOnUse"><feFlood flood-opacity="0" result="BackgroundImageFix"/><feBlend in="SourceGraphic" in2="BackgroundImageFix" result="shape"/><feGaussianBlur result="effect1_foregroundBlur_28327_3280" stdDeviation=".4"/></filter><filter id="filter7_f_28327_3280" width="7.125" height="11.438" x="22.242" y="12.188" color-interpolation-filters="sRGB" filterUnits="userSpaceOnUse"><feFlood flood-opacity="0" result="BackgroundImageFix"/><feBlend in="SourceGraphic" in2="BackgroundImageFix" result="shape"/><feGaussianBlur result="effect1_foregroundBlur_28327_3280" stdDeviation=".5"/></filter></defs></svg>