<svg xmlns="http://www.w3.org/2000/svg" width="32" height="32" fill="none" viewBox="0 0 32 32"><g filter="url(#filter0_ii_3987_24263)"><path fill="url(#paint0_radial_3987_24263)" d="M5.65 29.729h20.7c-.494-4.932-5.203-8.665-10.39-8.665-5.189 0-9.713 3.764-10.31 8.665Z"/><path fill="url(#paint1_radial_3987_24263)" d="M5.65 29.729h20.7c-.494-4.932-5.203-8.665-10.39-8.665-5.189 0-9.713 3.764-10.31 8.665Z"/></g><path fill="url(#paint2_radial_3987_24263)" d="M5.65 29.729h20.7c-.494-4.932-5.203-8.665-10.39-8.665-5.189 0-9.713 3.764-10.31 8.665Z"/><path fill="url(#paint3_radial_3987_24263)" d="M5.65 29.729h20.7c-.494-4.932-5.203-8.665-10.39-8.665-5.189 0-9.713 3.764-10.31 8.665Z"/><g filter="url(#filter1_i_3987_24263)"><path fill="url(#paint4_radial_3987_24263)" d="M23.846 11.876c-.56-.982-.53-1.722-.639-2.036l-6.664 2.824v8.915h3.72c2.443 0 3.523-1.02 4.003-2.22.48-1.2.28-2.133.06-2.795a1.536 1.536 0 0 1 .03-.998c.452-1.252.176-2.49-.51-3.69Z"/><path fill="url(#paint5_radial_3987_24263)" d="M23.846 11.876c-.56-.982-.53-1.722-.639-2.036l-6.664 2.824v8.915h3.72c2.443 0 3.523-1.02 4.003-2.22.48-1.2.28-2.133.06-2.795a1.536 1.536 0 0 1 .03-.998c.452-1.252.176-2.49-.51-3.69Z"/></g><g filter="url(#filter2_ii_3987_24263)"><path fill="url(#paint6_radial_3987_24263)" d="M8.154 11.876c.56-.982.53-1.722.638-2.036l6.665 2.824v8.915h-3.72c-2.443 0-3.523-1.02-4.003-2.22-.48-1.2-.28-2.133-.06-2.795a1.536 1.536 0 0 0-.03-.998c-.452-1.252-.176-2.49.51-3.69Z"/><path fill="url(#paint7_radial_3987_24263)" d="M8.154 11.876c.56-.982.53-1.722.638-2.036l6.665 2.824v8.915h-3.72c-2.443 0-3.523-1.02-4.003-2.22-.48-1.2-.28-2.133-.06-2.795a1.536 1.536 0 0 0-.03-.998c-.452-1.252-.176-2.49.51-3.69Z"/></g><circle cx="10.604" cy="14.365" r="1.979" fill="url(#paint8_radial_3987_24263)"/><g filter="url(#filter3_f_3987_24263)" opacity=".5"><circle cx="10.604" cy="14.365" r="1.293" fill="#734743"/></g><circle cx="21.396" cy="14.365" r="1.979" fill="url(#paint9_radial_3987_24263)"/><circle cx="21.396" cy="14.365" r="1.979" fill="url(#paint10_radial_3987_24263)"/><g filter="url(#filter4_f_3987_24263)"><circle cx="21.396" cy="14.365" r="1.293" fill="url(#paint11_radial_3987_24263)"/></g><g filter="url(#filter5_f_3987_24263)"><circle cx="13.524" cy="13.242" r="1.415" fill="url(#paint12_radial_3987_24263)"/></g><path fill="#AA746E" d="M13.75 20a2.256 2.256 0 0 1 4.512 0v2.102c0 1.246-1.588 1.624-2.256 1.624-.766 0-2.257-.378-2.257-1.624V20Z"/><path fill="url(#paint13_radial_3987_24263)" d="M13.75 20a2.256 2.256 0 0 1 4.512 0v2.102c0 1.246-1.588 1.624-2.256 1.624-.766 0-2.257-.378-2.257-1.624V20Z"/><path fill="url(#paint14_radial_3987_24263)" d="M13.75 20a2.256 2.256 0 0 1 4.512 0v2.102c0 1.246-1.588 1.624-2.256 1.624-.766 0-2.257-.378-2.257-1.624V20Z"/><g filter="url(#filter6_i_3987_24263)"><rect width="11.521" height="15.258" x="10.24" y="5.806" fill="url(#paint15_radial_3987_24263)" rx="5.76"/></g><rect width="11.521" height="15.258" x="10.24" y="5.806" fill="url(#paint16_radial_3987_24263)" rx="5.76"/><g filter="url(#filter7_f_3987_24263)"><path fill="url(#paint17_radial_3987_24263)" d="m9.271 2.405 1.516 5.892 1.938-.904c0 .34.199-.381.656 0a78.003 78.003 0 0 1 1.727 1.632c.476.46.463 1.207-.027 1.653-.453.413-1.088.349-1.552-.053l-.98-.713a.541.541 0 0 0-.747.042.498.498 0 0 0-.132.337V13.5c0 .639-.537 1.156-1.2 1.156-.662 0-1.199-.518-1.199-1.156V2.405Z"/></g><g filter="url(#filter8_f_3987_24263)"><path fill="url(#paint18_radial_3987_24263)" d="M22.646 8.25H19.22l-.684-1.813c0 .353.457.529 0 .924a79.033 79.033 0 0 0-1.727 1.691 1.195 1.195 0 0 0 .027 1.715c.453.428 1.09.362 1.554-.055l.978-.74a.527.527 0 0 1 .88.393v3.328a1.2 1.2 0 1 0 2.398 0V8.25Z"/></g><g filter="url(#filter9_i_3987_24263)"><path fill="url(#paint19_radial_3987_24263)" d="M13.209 8.49c-.782 1.248-2.158 2.114-2.7 2.314V6.655c.265 0 1.576-.141 2.168-.514.694-.437 1.337-1.637 3.352-1.637 1.071 0 1.808.377 2.923 1.337.882.652 2.182.697 2.743.652v4.534c-.517-.373-1.428-.41-1.846-.428h-3.375c-1.744 0-2.934-1.39-3.265-2.11Z"/><path fill="url(#paint20_radial_3987_24263)" d="M13.209 8.49c-.782 1.248-2.158 2.114-2.7 2.314V6.655c.265 0 1.576-.141 2.168-.514.694-.437 1.337-1.637 3.352-1.637 1.071 0 1.808.377 2.923 1.337.882.652 2.182.697 2.743.652v4.534c-.517-.373-1.428-.41-1.846-.428h-3.375c-1.744 0-2.934-1.39-3.265-2.11Z"/><path fill="url(#paint21_radial_3987_24263)" d="M13.209 8.49c-.782 1.248-2.158 2.114-2.7 2.314V6.655c.265 0 1.576-.141 2.168-.514.694-.437 1.337-1.637 3.352-1.637 1.071 0 1.808.377 2.923 1.337.882.652 2.182.697 2.743.652v4.534c-.517-.373-1.428-.41-1.846-.428h-3.375c-1.744 0-2.934-1.39-3.265-2.11Z"/><path fill="url(#paint22_radial_3987_24263)" d="M13.209 8.49c-.782 1.248-2.158 2.114-2.7 2.314V6.655c.265 0 1.576-.141 2.168-.514.694-.437 1.337-1.637 3.352-1.637 1.071 0 1.808.377 2.923 1.337.882.652 2.182.697 2.743.652v4.534c-.517-.373-1.428-.41-1.846-.428h-3.375c-1.744 0-2.934-1.39-3.265-2.11Z"/></g><g filter="url(#filter10_f_3987_24263)"><path fill="url(#paint23_radial_3987_24263)" d="M13.135 6.281c-.313.207-.83.466-.95.438 1.038 3.687 4.893 3.74 6.59 3.437L20.4 8.594V6.719c-1.164-.57-3.218-1.828-4.671-1.742-1.454.086-2.204 1.046-2.594 1.304Z"/><path fill="url(#paint24_radial_3987_24263)" d="M13.135 6.281c-.313.207-.83.466-.95.438 1.038 3.687 4.893 3.74 6.59 3.437L20.4 8.594V6.719c-1.164-.57-3.218-1.828-4.671-1.742-1.454.086-2.204 1.046-2.594 1.304Z"/></g><g filter="url(#filter11_f_3987_24263)"><circle cx="13.715" cy="13.326" r="1.33" fill="url(#paint25_radial_3987_24263)"/></g><g filter="url(#filter12_i_3987_24263)"><path stroke="#4A2F2D" stroke-linecap="round" stroke-width=".55" d="M12.072 12.508c.258-.207.883-.578 1.95-.43"/></g><g filter="url(#filter13_f_3987_24263)"><path stroke="url(#paint26_linear_3987_24263)" stroke-linecap="round" stroke-width=".15" d="M12.072 12.508c.258-.207.883-.578 1.95-.43"/></g><g filter="url(#filter14_i_3987_24263)"><path stroke="#4A2F2D" stroke-linecap="round" stroke-width=".55" d="M19.928 12.508c-.258-.207-.883-.578-1.95-.43"/></g><g filter="url(#filter15_f_3987_24263)"><path stroke="url(#paint27_linear_3987_24263)" stroke-linecap="round" stroke-width=".15" d="M19.928 12.453c-.258-.207-.883-.578-1.95-.43"/></g><path stroke="url(#paint28_radial_3987_24263)" stroke-linecap="round" stroke-width=".55" d="M12.494 13.984c.146.164.536.45 1.024.47.617.023.949-.306 1.144-.47"/><g filter="url(#filter16_f_3987_24263)"><path stroke="url(#paint29_linear_3987_24263)" stroke-linecap="round" stroke-width=".15" d="M12.494 13.984c.146.164.536.45 1.024.47.617.023.949-.306 1.144-.47"/></g><path stroke="url(#paint30_radial_3987_24263)" stroke-linecap="round" stroke-width=".55" d="M17.385 13.984c.146.164.536.45 1.023.47.617.023.95-.306 1.145-.47"/><g filter="url(#filter17_f_3987_24263)"><path stroke="url(#paint31_linear_3987_24263)" stroke-linecap="round" stroke-width=".15" d="M17.385 13.984c.146.164.536.45 1.023.47.617.023.95-.306 1.145-.47"/></g><g filter="url(#filter18_f_3987_24263)"><path fill="#8D5E5F" d="M15.872 13.71c-.163 0-.248.094-.297.255l-.887 2.205a.592.592 0 0 0 .112.554.555.555 0 0 0 .423.198h1a.555.555 0 0 0 .423-.198.592.592 0 0 0 .112-.554l-.677-2.205c-.05-.161-.045-.254-.209-.254Z"/></g><path fill="#A57D6B" d="M16 13.625a.375.375 0 0 0-.357.262l-.678 2.14a.561.561 0 0 0 .535.73h1a.561.561 0 0 0 .535-.73l-.677-2.14a.375.375 0 0 0-.358-.262Z"/><path fill="url(#paint32_linear_3987_24263)" d="M16 13.625a.375.375 0 0 0-.357.262l-.678 2.14a.561.561 0 0 0 .535.73h1a.561.561 0 0 0 .535-.73l-.677-2.14a.375.375 0 0 0-.358-.262Z"/><path fill="url(#paint33_radial_3987_24263)" d="M16 13.625a.375.375 0 0 0-.357.262l-.678 2.14a.561.561 0 0 0 .535.73h1a.561.561 0 0 0 .535-.73l-.677-2.14a.375.375 0 0 0-.358-.262Z"/><path fill="url(#paint34_radial_3987_24263)" d="M16 13.625a.375.375 0 0 0-.357.262l-.678 2.14a.561.561 0 0 0 .535.73h1a.561.561 0 0 0 .535-.73l-.677-2.14a.375.375 0 0 0-.358-.262Z"/><g filter="url(#filter19_f_3987_24263)"><path stroke="url(#paint35_radial_3987_24263)" stroke-width=".2" d="M14.357 17.333c.344.18.879.383 1.649.384.77 0 1.304-.204 1.648-.384.108-.057.243.013.25.135a.153.153 0 0 1-.014.076c-.76 1.472-3.066 1.456-3.769 0a.153.153 0 0 1-.014-.076c.008-.122.142-.192.25-.135Z"/></g><path fill="#88004E" d="M14.357 17.333c.344.18.879.383 1.649.384.77 0 1.304-.204 1.648-.384.108-.057.243.013.25.135a.153.153 0 0 1-.014.076c-.76 1.472-3.066 1.456-3.769 0a.153.153 0 0 1-.014-.076c.008-.122.142-.192.25-.135Z"/><g filter="url(#filter20_f_3987_24263)"><path fill="url(#paint36_linear_3987_24263)" d="m9.469 9.011 1.31.78v3.433a.656.656 0 0 1-1.31 0V9.01Z"/></g><g filter="url(#filter21_i_3987_24263)"><path fill="#A47B6D" d="M8.688 2.271h3.426v3.484c0 .352.227 1.035.684 1.43a78.67 78.67 0 0 1 1.727 1.692 1.195 1.195 0 0 1-.026 1.714c-.454.429-1.088.362-1.553-.054l-.98-.74a.527.527 0 0 0-.88.393v3.327a1.2 1.2 0 1 1-2.398 0V2.271Z"/><path fill="url(#paint37_radial_3987_24263)" d="M8.688 2.271h3.426v3.484c0 .352.227 1.035.684 1.43a78.67 78.67 0 0 1 1.727 1.692 1.195 1.195 0 0 1-.026 1.714c-.454.429-1.088.362-1.553-.054l-.98-.74a.527.527 0 0 0-.88.393v3.327a1.2 1.2 0 1 1-2.398 0V2.271Z"/></g><g filter="url(#filter22_i_3987_24263)"><path fill="#A47A6F" d="M23.515 2.271h-3.426v3.484c0 .352-.227 1.035-.684 1.43a79.052 79.052 0 0 0-1.727 1.692 1.195 1.195 0 0 0 .026 1.714c.454.429 1.09.362 1.555-.054l.978-.74a.527.527 0 0 1 .88.393v3.327a1.2 1.2 0 1 0 2.398 0V2.271Z"/></g><g filter="url(#filter23_f_3987_24263)"><path fill="url(#paint38_radial_3987_24263)" d="M21.21 8.363 19.187 9.85c-.244.18-.47.42-.676.196-.22-.238-.007-.337.229-.56a51.545 51.545 0 0 1 1.99-1.785c.875-.734.85-2.109.828-2.57V2.554h1.704v10.713a.579.579 0 0 1-1.158 0V9.03c0-.402-.571-.906-.896-.667Z"/></g><g filter="url(#filter24_f_3987_24263)"><path fill="url(#paint39_linear_3987_24263)" d="m9.558 9.243 1.311.78v3.433a.655.655 0 1 1-1.31 0V9.242Z"/></g><g filter="url(#filter25_f_3987_24263)"><path fill="url(#paint40_radial_3987_24263)" d="M10.263 5.37V2.472h1.468v3.534a1 1 0 0 0 .28.694l2.263 2.349a.46.46 0 0 1-.636.663l-2.364-2.094a3 3 0 0 1-1.011-2.246Z"/><path fill="url(#paint41_radial_3987_24263)" d="M10.263 5.37V2.472h1.468v3.534a1 1 0 0 0 .28.694l2.263 2.349a.46.46 0 0 1-.636.663l-2.364-2.094a3 3 0 0 1-1.011-2.246Z"/></g><defs><radialGradient id="paint0_radial_3987_24263" cx="0" cy="0" r="1" gradientTransform="matrix(-18.0313 0 0 -12.0938 23.481 28.313)" gradientUnits="userSpaceOnUse"><stop stop-color="#936DD4"/><stop offset=".832" stop-color="#725698"/></radialGradient><radialGradient id="paint1_radial_3987_24263" cx="0" cy="0" r="1" gradientTransform="matrix(-4.16617 -7.1847 8.98984 -5.2129 23.982 28.248)" gradientUnits="userSpaceOnUse"><stop offset=".079" stop-color="#9574DD"/><stop offset="1" stop-color="#9574DD" stop-opacity="0"/></radialGradient><radialGradient id="paint2_radial_3987_24263" cx="0" cy="0" r="1" gradientTransform="rotate(155.64 5.706 11.329) scale(10.8979 4.51152)" gradientUnits="userSpaceOnUse"><stop offset=".303" stop-color="#6A3874"/><stop offset="1" stop-color="#7C4FA2" stop-opacity="0"/></radialGradient><radialGradient id="paint3_radial_3987_24263" cx="0" cy="0" r="1" gradientTransform="matrix(0 -9.5924 15.2389 0 16 30.313)" gradientUnits="userSpaceOnUse"><stop offset=".867" stop-color="#623E81" stop-opacity="0"/><stop offset=".977" stop-color="#402452"/></radialGradient><radialGradient id="paint4_radial_3987_24263" cx="0" cy="0" r="1" gradientTransform="matrix(-5.56244 7.87504 -7.63171 -5.39056 25.318 13.875)" gradientUnits="userSpaceOnUse"><stop offset=".198" stop-color="#5B4341"/><stop offset="1" stop-color="#231828"/><stop offset="1" stop-color="#3E2C35"/></radialGradient><radialGradient id="paint5_radial_3987_24263" cx="0" cy="0" r="1" gradientTransform="rotate(147.139 10.128 11.737) scale(2.75089 2.7814)" gradientUnits="userSpaceOnUse"><stop offset=".209" stop-color="#554543"/><stop offset="1" stop-color="#554543" stop-opacity="0"/></radialGradient><radialGradient id="paint6_radial_3987_24263" cx="0" cy="0" r="1" gradientTransform="rotate(152.281 3.899 10.46) scale(4.87131 9.06872)" gradientUnits="userSpaceOnUse"><stop offset=".172" stop-color="#281820"/><stop offset="1" stop-color="#2B1C22"/></radialGradient><radialGradient id="paint7_radial_3987_24263" cx="0" cy="0" r="1" gradientTransform="matrix(-1.82006 6.3586 -4.4708 -1.2797 9.243 10.892)" gradientUnits="userSpaceOnUse"><stop offset=".286" stop-color="#564340"/><stop offset="1" stop-color="#564340" stop-opacity="0"/></radialGradient><radialGradient id="paint8_radial_3987_24263" cx="0" cy="0" r="1" gradientTransform="rotate(46.621 -12.223 17.133) scale(2.88068)" gradientUnits="userSpaceOnUse"><stop stop-color="#825856"/><stop offset="1" stop-color="#824D5A"/></radialGradient><radialGradient id="paint9_radial_3987_24263" cx="0" cy="0" r="1" gradientTransform="matrix(-.7615 .75741 -.7977 -.802 23.307 14.178)" gradientUnits="userSpaceOnUse"><stop stop-color="#C19883"/><stop offset="1" stop-color="#B28278"/></radialGradient><radialGradient id="paint10_radial_3987_24263" cx="0" cy="0" r="1" gradientTransform="rotate(75.315 1.592 21.027) scale(2.34213)" gradientUnits="userSpaceOnUse"><stop offset=".798" stop-color="#9E625E" stop-opacity="0"/><stop offset="1" stop-color="#9E625E"/></radialGradient><radialGradient id="paint11_radial_3987_24263" cx="0" cy="0" r="1" gradientTransform="matrix(.69531 0 0 .82031 21.666 14.584)" gradientUnits="userSpaceOnUse"><stop offset=".188" stop-color="#AE8472"/><stop offset="1" stop-color="#A57460"/></radialGradient><radialGradient id="paint12_radial_3987_24263" cx="0" cy="0" r="1" gradientTransform="matrix(.92789 -1.80184 1.99143 1.02552 13.366 13.942)" gradientUnits="userSpaceOnUse"><stop offset=".347" stop-color="#FFB129"/><stop offset=".902" stop-color="#F39423"/></radialGradient><radialGradient id="paint13_radial_3987_24263" cx="0" cy="0" r="1" gradientTransform="rotate(142.016 5.189 14.596) scale(3.24973 2.31564)" gradientUnits="userSpaceOnUse"><stop offset=".186" stop-color="#CC957D"/><stop offset="1" stop-color="#CC957D" stop-opacity="0"/></radialGradient><radialGradient id="paint14_radial_3987_24263" cx="0" cy="0" r="1" gradientTransform="matrix(1.38245 2.7263 -8.86547 4.4955 14.13 20.305)" gradientUnits="userSpaceOnUse"><stop offset=".176" stop-color="#8D4C57"/><stop offset="1" stop-color="#8D4C57" stop-opacity="0"/></radialGradient><radialGradient id="paint15_radial_3987_24263" cx="0" cy="0" r="1" gradientTransform="rotate(174.247 9.378 7.946) scale(6.06562 7.0411)" gradientUnits="userSpaceOnUse"><stop offset=".283" stop-color="#BD9076"/><stop offset="1" stop-color="#926762"/></radialGradient><radialGradient id="paint16_radial_3987_24263" cx="0" cy="0" r="1" gradientTransform="matrix(0 10.0892 -11.3554 0 16 10.975)" gradientUnits="userSpaceOnUse"><stop offset=".717" stop-color="#925E6B" stop-opacity="0"/><stop offset="1" stop-color="#885166"/></radialGradient><radialGradient id="paint17_radial_3987_24263" cx="0" cy="0" r="1" gradientTransform="matrix(1.03943 7.79525 -3.98358 .53118 11.325 6.861)" gradientUnits="userSpaceOnUse"><stop offset=".118" stop-color="#4E2C2D"/><stop offset="1" stop-color="#855B55"/></radialGradient><radialGradient id="paint18_radial_3987_24263" cx="0" cy="0" r="1" gradientTransform="matrix(-2.49705 3.59654 -3.30365 -2.2937 21.297 10.477)" gradientUnits="userSpaceOnUse"><stop offset=".072" stop-color="#563233"/><stop offset="1" stop-color="#7A4D53"/></radialGradient><radialGradient id="paint19_radial_3987_24263" cx="0" cy="0" r="1" gradientTransform="matrix(-1.37502 5.34375 -6.41397 -1.6504 17.88 4.74)" gradientUnits="userSpaceOnUse"><stop stop-color="#644C49"/><stop offset=".722" stop-color="#4C2F2F"/></radialGradient><radialGradient id="paint20_radial_3987_24263" cx="0" cy="0" r="1" gradientTransform="matrix(2.0625 -1.6875 2.89382 3.5369 10.818 10.188)" gradientUnits="userSpaceOnUse"><stop stop-color="#39182B"/><stop offset="1" stop-color="#39182B" stop-opacity="0"/></radialGradient><radialGradient id="paint21_radial_3987_24263" cx="0" cy="0" r="1" gradientTransform="rotate(-144.811 12.391 1.866) scale(2.98253 5.11462)" gradientUnits="userSpaceOnUse"><stop stop-color="#4E2D33"/><stop offset="1" stop-color="#4E2D33" stop-opacity="0"/></radialGradient><radialGradient id="paint22_radial_3987_24263" cx="0" cy="0" r="1" gradientTransform="matrix(2.875 -1.96875 .58437 .85337 11.224 6.752)" gradientUnits="userSpaceOnUse"><stop stop-color="#5A4B49"/><stop offset="1" stop-color="#5A4B49" stop-opacity="0"/></radialGradient><radialGradient id="paint23_radial_3987_24263" cx="0" cy="0" r="1" gradientTransform="matrix(2.4375 -3.96876 11.53736 7.0859 17.006 9.593)" gradientUnits="userSpaceOnUse"><stop offset=".512" stop-color="#614F4D" stop-opacity="0"/><stop offset="1" stop-color="#614F4D"/></radialGradient><radialGradient id="paint24_radial_3987_24263" cx="0" cy="0" r="1" gradientTransform="matrix(-2.36877 -1.375 .63373 -1.09174 18.662 9.522)" gradientUnits="userSpaceOnUse"><stop offset=".213" stop-color="#614545"/><stop offset="1" stop-color="#614545" stop-opacity="0"/></radialGradient><radialGradient id="paint25_radial_3987_24263" cx="0" cy="0" r="1" gradientTransform="rotate(-62.753 18.25 -4.13) scale(1.90544 2.10594)" gradientUnits="userSpaceOnUse"><stop offset=".347" stop-color="#996E64"/><stop offset=".902" stop-color="#8A5960"/></radialGradient><radialGradient id="paint28_radial_3987_24263" cx="0" cy="0" r="1" gradientTransform="matrix(0 -1.07812 3.27721 0 13.578 14.578)" gradientUnits="userSpaceOnUse"><stop offset=".251" stop-color="#452537"/><stop offset="1" stop-color="#4B302E"/></radialGradient><radialGradient id="paint30_radial_3987_24263" cx="0" cy="0" r="1" gradientTransform="matrix(0 -1.07812 3.27721 0 18.469 14.578)" gradientUnits="userSpaceOnUse"><stop offset=".251" stop-color="#452537"/><stop offset="1" stop-color="#4B302E"/></radialGradient><radialGradient id="paint33_radial_3987_24263" cx="0" cy="0" r="1" gradientTransform="matrix(.19455 -1.08993 4.30797 .76898 16 16.758)" gradientUnits="userSpaceOnUse"><stop offset=".03" stop-color="#985C6E"/><stop offset="1" stop-color="#985C6E" stop-opacity="0"/></radialGradient><radialGradient id="paint34_radial_3987_24263" cx="0" cy="0" r="1" gradientTransform="matrix(.90625 0 0 .26563 16.542 15.959)" gradientUnits="userSpaceOnUse"><stop stop-color="#BE9586"/><stop offset="1" stop-color="#BE9586" stop-opacity="0"/></radialGradient><radialGradient id="paint35_radial_3987_24263" cx="0" cy="0" r="1" gradientTransform="matrix(.20312 -.39062 1.75486 .91253 14.92 18.344)" gradientUnits="userSpaceOnUse"><stop offset=".156" stop-color="#AA827C"/><stop offset="1" stop-color="#AA827C" stop-opacity="0"/></radialGradient><radialGradient id="paint37_radial_3987_24263" cx="0" cy="0" r="1" gradientTransform="rotate(-124.468 8.78 2.243) scale(3.17497 1.5867)" gradientUnits="userSpaceOnUse"><stop offset=".236" stop-color="#7D4755"/><stop offset="1" stop-color="#986C68" stop-opacity="0"/></radialGradient><radialGradient id="paint38_radial_3987_24263" cx="0" cy="0" r="1" gradientTransform="matrix(5.8706 -6.28124 5.4446 5.08866 18.355 9.816)" gradientUnits="userSpaceOnUse"><stop stop-color="#BF9886"/><stop offset="1" stop-color="#BF9886" stop-opacity="0"/></radialGradient><radialGradient id="paint40_radial_3987_24263" cx="0" cy="0" r="1" gradientTransform="matrix(0 -4.21875 .78125 0 11.1 6.347)" gradientUnits="userSpaceOnUse"><stop stop-color="#C9A18C"/><stop offset="1" stop-color="#C9A18C" stop-opacity="0"/></radialGradient><radialGradient id="paint41_radial_3987_24263" cx="0" cy="0" r="1" gradientTransform="matrix(-.95862 -1.07283 .90655 -.81004 14.402 9.826)" gradientUnits="userSpaceOnUse"><stop offset=".187" stop-color="#C29B87"/><stop offset="1" stop-color="#C29B87" stop-opacity="0"/></radialGradient><filter id="filter0_ii_3987_24263" width="21.451" height="8.965" x="5.649" y="20.764" color-interpolation-filters="sRGB" filterUnits="userSpaceOnUse"><feFlood flood-opacity="0" result="BackgroundImageFix"/><feBlend in="SourceGraphic" in2="BackgroundImageFix" result="shape"/><feColorMatrix in="SourceAlpha" result="hardAlpha" values="0 0 0 0 0 0 0 0 0 0 0 0 0 0 0 0 0 0 127 0"/><feOffset dy="-.3"/><feGaussianBlur stdDeviation=".3"/><feComposite in2="hardAlpha" k2="-1" k3="1" operator="arithmetic"/><feColorMatrix values="0 0 0 0 0.458824 0 0 0 0 0.27451 0 0 0 0 0.780392 0 0 0 1 0"/><feBlend in2="shape" result="effect1_innerShadow_3987_24263"/><feColorMatrix in="SourceAlpha" result="hardAlpha" values="0 0 0 0 0 0 0 0 0 0 0 0 0 0 0 0 0 0 127 0"/><feOffset dx=".75"/><feGaussianBlur stdDeviation=".625"/><feComposite in2="hardAlpha" k2="-1" k3="1" operator="arithmetic"/><feColorMatrix values="0 0 0 0 0.454902 0 0 0 0 0.376471 0 0 0 0 0.6 0 0 0 1 0"/><feBlend in2="effect1_innerShadow_3987_24263" result="effect2_innerShadow_3987_24263"/></filter><filter id="filter1_i_3987_24263" width="8.434" height="11.989" x="16.543" y="9.59" color-interpolation-filters="sRGB" filterUnits="userSpaceOnUse"><feFlood flood-opacity="0" result="BackgroundImageFix"/><feBlend in="SourceGraphic" in2="BackgroundImageFix" result="shape"/><feColorMatrix in="SourceAlpha" result="hardAlpha" values="0 0 0 0 0 0 0 0 0 0 0 0 0 0 0 0 0 0 127 0"/><feOffset dx=".4" dy="-.25"/><feGaussianBlur stdDeviation=".4"/><feComposite in2="hardAlpha" k2="-1" k3="1" operator="arithmetic"/><feColorMatrix values="0 0 0 0 0.0784314 0 0 0 0 0.0352941 0 0 0 0 0.109804 0 0 0 1 0"/><feBlend in2="shape" result="effect1_innerShadow_3987_24263"/></filter><filter id="filter2_ii_3987_24263" width="8.784" height="12.039" x="7.173" y="9.54" color-interpolation-filters="sRGB" filterUnits="userSpaceOnUse"><feFlood flood-opacity="0" result="BackgroundImageFix"/><feBlend in="SourceGraphic" in2="BackgroundImageFix" result="shape"/><feColorMatrix in="SourceAlpha" result="hardAlpha" values="0 0 0 0 0 0 0 0 0 0 0 0 0 0 0 0 0 0 127 0"/><feOffset dx=".5"/><feGaussianBlur stdDeviation=".5"/><feComposite in2="hardAlpha" k2="-1" k3="1" operator="arithmetic"/><feColorMatrix values="0 0 0 0 0.105882 0 0 0 0 0.0627451 0 0 0 0 0.12549 0 0 0 1 0"/><feBlend in2="shape" result="effect1_innerShadow_3987_24263"/><feColorMatrix in="SourceAlpha" result="hardAlpha" values="0 0 0 0 0 0 0 0 0 0 0 0 0 0 0 0 0 0 127 0"/><feOffset dx="-.25" dy="-.3"/><feGaussianBlur stdDeviation=".5"/><feComposite in2="hardAlpha" k2="-1" k3="1" operator="arithmetic"/><feColorMatrix values="0 0 0 0 0.0470588 0 0 0 0 0.0156863 0 0 0 0 0.0666667 0 0 0 1 0"/><feBlend in2="effect1_innerShadow_3987_24263" result="effect2_innerShadow_3987_24263"/></filter><filter id="filter3_f_3987_24263" width="2.986" height="2.986" x="9.111" y="12.872" color-interpolation-filters="sRGB" filterUnits="userSpaceOnUse"><feFlood flood-opacity="0" result="BackgroundImageFix"/><feBlend in="SourceGraphic" in2="BackgroundImageFix" result="shape"/><feGaussianBlur result="effect1_foregroundBlur_3987_24263" stdDeviation=".1"/></filter><filter id="filter4_f_3987_24263" width="2.986" height="2.986" x="19.904" y="12.872" color-interpolation-filters="sRGB" filterUnits="userSpaceOnUse"><feFlood flood-opacity="0" result="BackgroundImageFix"/><feBlend in="SourceGraphic" in2="BackgroundImageFix" result="shape"/><feGaussianBlur result="effect1_foregroundBlur_3987_24263" stdDeviation=".1"/></filter><filter id="filter5_f_3987_24263" width="3.829" height="3.829" x="11.609" y="11.327" color-interpolation-filters="sRGB" filterUnits="userSpaceOnUse"><feFlood flood-opacity="0" result="BackgroundImageFix"/><feBlend in="SourceGraphic" in2="BackgroundImageFix" result="shape"/><feGaussianBlur result="effect1_foregroundBlur_3987_24263" stdDeviation=".25"/></filter><filter id="filter6_i_3987_24263" width="12.021" height="15.258" x="10.24" y="5.806" color-interpolation-filters="sRGB" filterUnits="userSpaceOnUse"><feFlood flood-opacity="0" result="BackgroundImageFix"/><feBlend in="SourceGraphic" in2="BackgroundImageFix" result="shape"/><feColorMatrix in="SourceAlpha" result="hardAlpha" values="0 0 0 0 0 0 0 0 0 0 0 0 0 0 0 0 0 0 127 0"/><feOffset dx=".5"/><feGaussianBlur stdDeviation=".375"/><feComposite in2="hardAlpha" k2="-1" k3="1" operator="arithmetic"/><feColorMatrix values="0 0 0 0 0.498039 0 0 0 0 0.380392 0 0 0 0 0.356863 0 0 0 1 0"/><feBlend in2="shape" result="effect1_innerShadow_3987_24263"/></filter><filter id="filter7_f_3987_24263" width="8.186" height="14.251" x="8.271" y="1.405" color-interpolation-filters="sRGB" filterUnits="userSpaceOnUse"><feFlood flood-opacity="0" result="BackgroundImageFix"/><feBlend in="SourceGraphic" in2="BackgroundImageFix" result="shape"/><feGaussianBlur result="effect1_foregroundBlur_3987_24263" stdDeviation=".5"/></filter><filter id="filter8_f_3987_24263" width="8.186" height="10.454" x="15.46" y="5.438" color-interpolation-filters="sRGB" filterUnits="userSpaceOnUse"><feFlood flood-opacity="0" result="BackgroundImageFix"/><feBlend in="SourceGraphic" in2="BackgroundImageFix" result="shape"/><feGaussianBlur result="effect1_foregroundBlur_3987_24263" stdDeviation=".5"/></filter><filter id="filter9_i_3987_24263" width="11.186" height="6.923" x="10.508" y="4.104" color-interpolation-filters="sRGB" filterUnits="userSpaceOnUse"><feFlood flood-opacity="0" result="BackgroundImageFix"/><feBlend in="SourceGraphic" in2="BackgroundImageFix" result="shape"/><feColorMatrix in="SourceAlpha" result="hardAlpha" values="0 0 0 0 0 0 0 0 0 0 0 0 0 0 0 0 0 0 127 0"/><feOffset dy="-.4"/><feGaussianBlur stdDeviation=".3"/><feComposite in2="hardAlpha" k2="-1" k3="1" operator="arithmetic"/><feColorMatrix values="0 0 0 0 0.25098 0 0 0 0 0.117647 0 0 0 0 0.180392 0 0 0 1 0"/><feBlend in2="shape" result="effect1_innerShadow_3987_24263"/></filter><filter id="filter10_f_3987_24263" width="8.715" height="5.797" x="11.935" y="4.722" color-interpolation-filters="sRGB" filterUnits="userSpaceOnUse"><feFlood flood-opacity="0" result="BackgroundImageFix"/><feBlend in="SourceGraphic" in2="BackgroundImageFix" result="shape"/><feGaussianBlur result="effect1_foregroundBlur_3987_24263" stdDeviation=".125"/></filter><filter id="filter11_f_3987_24263" width="3.66" height="3.66" x="11.885" y="11.496" color-interpolation-filters="sRGB" filterUnits="userSpaceOnUse"><feFlood flood-opacity="0" result="BackgroundImageFix"/><feBlend in="SourceGraphic" in2="BackgroundImageFix" result="shape"/><feGaussianBlur result="effect1_foregroundBlur_3987_24263" stdDeviation=".25"/></filter><filter id="filter12_i_3987_24263" width="2.699" height="1.214" x="11.797" y="11.769" color-interpolation-filters="sRGB" filterUnits="userSpaceOnUse"><feFlood flood-opacity="0" result="BackgroundImageFix"/><feBlend in="SourceGraphic" in2="BackgroundImageFix" result="shape"/><feColorMatrix in="SourceAlpha" result="hardAlpha" values="0 0 0 0 0 0 0 0 0 0 0 0 0 0 0 0 0 0 127 0"/><feOffset dx=".2" dy=".2"/><feGaussianBlur stdDeviation=".1"/><feComposite in2="hardAlpha" k2="-1" k3="1" operator="arithmetic"/><feColorMatrix values="0 0 0 0 0.243137 0 0 0 0 0.12549 0 0 0 0 0.180392 0 0 0 1 0"/><feBlend in2="shape" result="effect1_innerShadow_3987_24263"/></filter><filter id="filter13_f_3987_24263" width="2.399" height=".914" x="11.847" y="11.819" color-interpolation-filters="sRGB" filterUnits="userSpaceOnUse"><feFlood flood-opacity="0" result="BackgroundImageFix"/><feBlend in="SourceGraphic" in2="BackgroundImageFix" result="shape"/><feGaussianBlur result="effect1_foregroundBlur_3987_24263" stdDeviation=".075"/></filter><filter id="filter14_i_3987_24263" width="2.699" height="1.214" x="17.703" y="11.769" color-interpolation-filters="sRGB" filterUnits="userSpaceOnUse"><feFlood flood-opacity="0" result="BackgroundImageFix"/><feBlend in="SourceGraphic" in2="BackgroundImageFix" result="shape"/><feColorMatrix in="SourceAlpha" result="hardAlpha" values="0 0 0 0 0 0 0 0 0 0 0 0 0 0 0 0 0 0 127 0"/><feOffset dx=".2" dy=".2"/><feGaussianBlur stdDeviation=".1"/><feComposite in2="hardAlpha" k2="-1" k3="1" operator="arithmetic"/><feColorMatrix values="0 0 0 0 0.243137 0 0 0 0 0.12549 0 0 0 0 0.180392 0 0 0 1 0"/><feBlend in2="shape" result="effect1_innerShadow_3987_24263"/></filter><filter id="filter15_f_3987_24263" width="2.399" height=".914" x="17.753" y="11.764" color-interpolation-filters="sRGB" filterUnits="userSpaceOnUse"><feFlood flood-opacity="0" result="BackgroundImageFix"/><feBlend in="SourceGraphic" in2="BackgroundImageFix" result="shape"/><feGaussianBlur result="effect1_foregroundBlur_3987_24263" stdDeviation=".075"/></filter><filter id="filter16_f_3987_24263" width="2.618" height=".92" x="12.269" y="13.759" color-interpolation-filters="sRGB" filterUnits="userSpaceOnUse"><feFlood flood-opacity="0" result="BackgroundImageFix"/><feBlend in="SourceGraphic" in2="BackgroundImageFix" result="shape"/><feGaussianBlur result="effect1_foregroundBlur_3987_24263" stdDeviation=".075"/></filter><filter id="filter17_f_3987_24263" width="2.618" height=".92" x="17.16" y="13.759" color-interpolation-filters="sRGB" filterUnits="userSpaceOnUse"><feFlood flood-opacity="0" result="BackgroundImageFix"/><feBlend in="SourceGraphic" in2="BackgroundImageFix" result="shape"/><feGaussianBlur result="effect1_foregroundBlur_3987_24263" stdDeviation=".075"/></filter><filter id="filter18_f_3987_24263" width="3.122" height="4.211" x="14.162" y="13.211" color-interpolation-filters="sRGB" filterUnits="userSpaceOnUse"><feFlood flood-opacity="0" result="BackgroundImageFix"/><feBlend in="SourceGraphic" in2="BackgroundImageFix" result="shape"/><feGaussianBlur result="effect1_foregroundBlur_3987_24263" stdDeviation=".25"/></filter><filter id="filter19_f_3987_24263" width="4.199" height="1.729" x="13.906" y="17.113" color-interpolation-filters="sRGB" filterUnits="userSpaceOnUse"><feFlood flood-opacity="0" result="BackgroundImageFix"/><feBlend in="SourceGraphic" in2="BackgroundImageFix" result="shape"/><feGaussianBlur result="effect1_foregroundBlur_3987_24263" stdDeviation=".05"/></filter><filter id="filter20_f_3987_24263" width="2.811" height="6.368" x="8.719" y="8.261" color-interpolation-filters="sRGB" filterUnits="userSpaceOnUse"><feFlood flood-opacity="0" result="BackgroundImageFix"/><feBlend in="SourceGraphic" in2="BackgroundImageFix" result="shape"/><feGaussianBlur result="effect1_foregroundBlur_3987_24263" stdDeviation=".375"/></filter><filter id="filter21_i_3987_24263" width="6.686" height="12.645" x="8.688" y="2.071" color-interpolation-filters="sRGB" filterUnits="userSpaceOnUse"><feFlood flood-opacity="0" result="BackgroundImageFix"/><feBlend in="SourceGraphic" in2="BackgroundImageFix" result="shape"/><feColorMatrix in="SourceAlpha" result="hardAlpha" values="0 0 0 0 0 0 0 0 0 0 0 0 0 0 0 0 0 0 127 0"/><feOffset dx=".5" dy="-.2"/><feGaussianBlur stdDeviation=".625"/><feComposite in2="hardAlpha" k2="-1" k3="1" operator="arithmetic"/><feColorMatrix values="0 0 0 0 0.560784 0 0 0 0 0.407843 0 0 0 0 0.368627 0 0 0 1 0"/><feBlend in2="shape" result="effect1_innerShadow_3987_24263"/></filter><filter id="filter22_i_3987_24263" width="6.436" height="12.695" x="17.329" y="2.021" color-interpolation-filters="sRGB" filterUnits="userSpaceOnUse"><feFlood flood-opacity="0" result="BackgroundImageFix"/><feBlend in="SourceGraphic" in2="BackgroundImageFix" result="shape"/><feColorMatrix in="SourceAlpha" result="hardAlpha" values="0 0 0 0 0 0 0 0 0 0 0 0 0 0 0 0 0 0 127 0"/><feOffset dx=".25" dy="-.25"/><feGaussianBlur stdDeviation=".5"/><feComposite in2="hardAlpha" k2="-1" k3="1" operator="arithmetic"/><feColorMatrix values="0 0 0 0 0.486275 0 0 0 0 0.309804 0 0 0 0 0.301961 0 0 0 1 0"/><feBlend in2="shape" result="effect1_innerShadow_3987_24263"/></filter><filter id="filter23_f_3987_24263" width="5.843" height="12.292" x="17.92" y="2.054" color-interpolation-filters="sRGB" filterUnits="userSpaceOnUse"><feFlood flood-opacity="0" result="BackgroundImageFix"/><feBlend in="SourceGraphic" in2="BackgroundImageFix" result="shape"/><feGaussianBlur result="effect1_foregroundBlur_3987_24263" stdDeviation=".25"/></filter><filter id="filter24_f_3987_24263" width="2.811" height="6.368" x="8.808" y="8.493" color-interpolation-filters="sRGB" filterUnits="userSpaceOnUse"><feFlood flood-opacity="0" result="BackgroundImageFix"/><feBlend in="SourceGraphic" in2="BackgroundImageFix" result="shape"/><feGaussianBlur result="effect1_foregroundBlur_3987_24263" stdDeviation=".375"/></filter><filter id="filter25_f_3987_24263" width="5.14" height="8.355" x="9.763" y="1.971" color-interpolation-filters="sRGB" filterUnits="userSpaceOnUse"><feFlood flood-opacity="0" result="BackgroundImageFix"/><feBlend in="SourceGraphic" in2="BackgroundImageFix" result="shape"/><feGaussianBlur result="effect1_foregroundBlur_3987_24263" stdDeviation=".25"/></filter><linearGradient id="paint26_linear_3987_24263" x1="14.271" x2="12.072" y1="12.276" y2="12.344" gradientUnits="userSpaceOnUse"><stop stop-color="#533C3F" stop-opacity="0"/><stop offset="1" stop-color="#533C3F"/></linearGradient><linearGradient id="paint27_linear_3987_24263" x1="17.729" x2="19.928" y1="12.221" y2="12.289" gradientUnits="userSpaceOnUse"><stop stop-color="#533C3F" stop-opacity="0"/><stop offset="1" stop-color="#533C3F"/></linearGradient><linearGradient id="paint29_linear_3987_24263" x1="14.936" x2="12.494" y1="13.984" y2="13.984" gradientUnits="userSpaceOnUse"><stop offset=".045" stop-color="#584141"/><stop offset=".32" stop-color="#503839"/><stop offset=".794" stop-color="#4B3135"/><stop offset="1" stop-color="#564040"/></linearGradient><linearGradient id="paint31_linear_3987_24263" x1="19.826" x2="17.385" y1="13.984" y2="13.984" gradientUnits="userSpaceOnUse"><stop offset=".045" stop-color="#584141"/><stop offset=".32" stop-color="#503839"/><stop offset=".794" stop-color="#4B3135"/><stop offset="1" stop-color="#564040"/></linearGradient><linearGradient id="paint32_linear_3987_24263" x1="16.886" x2="15.849" y1="15.49" y2="15.54" gradientUnits="userSpaceOnUse"><stop offset=".106" stop-color="#C59E88"/><stop offset="1" stop-color="#C59E88" stop-opacity="0"/></linearGradient><linearGradient id="paint36_linear_3987_24263" x1="10.124" x2="10.124" y1="13.097" y2="8.266" gradientUnits="userSpaceOnUse"><stop stop-color="#FFCA3E"/><stop offset="1" stop-color="#FFCB3B" stop-opacity="0"/></linearGradient><linearGradient id="paint39_linear_3987_24263" x1="10.214" x2="10.214" y1="13.329" y2="8.498" gradientUnits="userSpaceOnUse"><stop stop-color="#B78B7F"/><stop offset="1" stop-color="#886361" stop-opacity="0"/><stop offset="1" stop-color="#B78B7F" stop-opacity="0"/></linearGradient></defs></svg>