<svg xmlns="http://www.w3.org/2000/svg" width="32" height="32" fill="none" viewBox="0 0 32 32"><path fill="url(#paint0_linear_4002_3786)" d="M12.904 20.036c-5.523 0-10 4.477-10 10v.05h20v-.05c0-5.523-4.477-10-10-10Z"/><path fill="url(#paint1_radial_4002_3786)" d="M12.904 20.036c-5.523 0-10 4.477-10 10v.05h20v-.05c0-5.523-4.477-10-10-10Z"/><path fill="url(#paint2_radial_4002_3786)" d="M12.904 20.036c-5.523 0-10 4.477-10 10v.05h20v-.05c0-5.523-4.477-10-10-10Z"/><rect width="4.898" height="6.68" x="10.466" y="17.009" fill="url(#paint3_radial_4002_3786)" rx="2.449"/><path fill="#F1A31E" d="M21.78 15.789h4.015v2.016H21.78z"/><path fill="url(#paint4_radial_4002_3786)" d="M22.552 13.876c-.554.648-.74 1.417-.761 1.758l1.847-.102.887-1.183c.29-.383.54-1.02-.035-1.442-.466-.342-.945-.066-1.102.106a27.62 27.62 0 0 0-.836.863Z"/><path fill="url(#paint5_radial_4002_3786)" d="M22.552 13.876c-.554.648-.74 1.417-.761 1.758l1.847-.102.887-1.183c.29-.383.54-1.02-.035-1.442-.466-.342-.945-.066-1.102.106a27.62 27.62 0 0 0-.836.863Z"/><path fill="#FFCA37" fill-rule="evenodd" d="M30.147 14.181a.85.85 0 0 1-.69.985c-.147.026-.337.066-.562.113-.653.136-1.594.332-2.606.428a.85.85 0 0 1-.16-1.693c.909-.086 1.678-.246 2.318-.38.26-.054.498-.104.715-.142a.85.85 0 0 1 .985.69Z" clip-rule="evenodd"/><path fill="url(#paint6_radial_4002_3786)" fill-rule="evenodd" d="M30.147 14.181a.85.85 0 0 1-.69.985c-.147.026-.337.066-.562.113-.653.136-1.594.332-2.606.428a.85.85 0 0 1-.16-1.693c.909-.086 1.678-.246 2.318-.38.26-.054.498-.104.715-.142a.85.85 0 0 1 .985.69Z" clip-rule="evenodd"/><path fill="url(#paint7_linear_4002_3786)" fill-rule="evenodd" d="M30.147 14.181a.85.85 0 0 1-.69.985c-.147.026-.337.066-.562.113-.653.136-1.594.332-2.606.428a.85.85 0 0 1-.16-1.693c.909-.086 1.678-.246 2.318-.38.26-.054.498-.104.715-.142a.85.85 0 0 1 .985.69Z" clip-rule="evenodd"/><path fill="url(#paint8_radial_4002_3786)" fill-rule="evenodd" d="M30.147 14.181a.85.85 0 0 1-.69.985c-.147.026-.337.066-.562.113-.653.136-1.594.332-2.606.428a.85.85 0 0 1-.16-1.693c.909-.086 1.678-.246 2.318-.38.26-.054.498-.104.715-.142a.85.85 0 0 1 .985.69Z" clip-rule="evenodd"/><path fill="#FFCA37" fill-rule="evenodd" d="M30.725 14.51a.85.85 0 0 1-.689.984c-.12.021-.258.047-.413.076-.662.124-1.627.305-2.733.41a.85.85 0 1 1-.16-1.693 27.41 27.41 0 0 0 2.552-.383c.166-.03.32-.06.459-.084a.85.85 0 0 1 .984.69Z" clip-rule="evenodd"/><path fill="url(#paint9_radial_4002_3786)" fill-rule="evenodd" d="M30.725 14.51a.85.85 0 0 1-.689.984c-.12.021-.258.047-.413.076-.662.124-1.627.305-2.733.41a.85.85 0 1 1-.16-1.693 27.41 27.41 0 0 0 2.552-.383c.166-.03.32-.06.459-.084a.85.85 0 0 1 .984.69Z" clip-rule="evenodd"/><path fill="url(#paint10_linear_4002_3786)" fill-rule="evenodd" d="M30.725 14.51a.85.85 0 0 1-.689.984c-.12.021-.258.047-.413.076-.662.124-1.627.305-2.733.41a.85.85 0 1 1-.16-1.693 27.41 27.41 0 0 0 2.552-.383c.166-.03.32-.06.459-.084a.85.85 0 0 1 .984.69Z" clip-rule="evenodd"/><path fill="url(#paint11_radial_4002_3786)" fill-rule="evenodd" d="M30.725 14.51a.85.85 0 0 1-.689.984c-.12.021-.258.047-.413.076-.662.124-1.627.305-2.733.41a.85.85 0 1 1-.16-1.693 27.41 27.41 0 0 0 2.552-.383c.166-.03.32-.06.459-.084a.85.85 0 0 1 .984.69Z" clip-rule="evenodd"/><path fill="#FFCA37" fill-rule="evenodd" d="M30.454 15.067a.85.85 0 0 1-.773.921 27.9 27.9 0 0 0-1.26.162l-.03.004c-.525.075-1.133.16-1.787.231a.85.85 0 0 1-.182-1.69c.622-.067 1.205-.15 1.73-.224l.064-.009a26.3 26.3 0 0 1 1.317-.167.85.85 0 0 1 .92.772Z" clip-rule="evenodd"/><path fill="url(#paint12_radial_4002_3786)" fill-rule="evenodd" d="M30.454 15.067a.85.85 0 0 1-.773.921 27.9 27.9 0 0 0-1.26.162l-.03.004c-.525.075-1.133.16-1.787.231a.85.85 0 0 1-.182-1.69c.622-.067 1.205-.15 1.73-.224l.064-.009a26.3 26.3 0 0 1 1.317-.167.85.85 0 0 1 .92.772Z" clip-rule="evenodd"/><path fill="url(#paint13_linear_4002_3786)" fill-rule="evenodd" d="M30.454 15.067a.85.85 0 0 1-.773.921 27.9 27.9 0 0 0-1.26.162l-.03.004c-.525.075-1.133.16-1.787.231a.85.85 0 0 1-.182-1.69c.622-.067 1.205-.15 1.73-.224l.064-.009a26.3 26.3 0 0 1 1.317-.167.85.85 0 0 1 .92.772Z" clip-rule="evenodd"/><path fill="url(#paint14_radial_4002_3786)" fill-rule="evenodd" d="M30.454 15.067a.85.85 0 0 1-.773.921 27.9 27.9 0 0 0-1.26.162l-.03.004c-.525.075-1.133.16-1.787.231a.85.85 0 0 1-.182-1.69c.622-.067 1.205-.15 1.73-.224l.064-.009a26.3 26.3 0 0 1 1.317-.167.85.85 0 0 1 .92.772Z" clip-rule="evenodd"/><g fill-rule="evenodd" clip-rule="evenodd" filter="url(#filter0_i_4002_3786)"><path fill="#FFCA37" d="M26.091 14.017c-.328.036-.77.085-1.597.155l-.229.018c-1.06.083-2.273.177-2.466 1.345-.2 1.203 1.183 2.142 2.832 1.954.593-.067.866-.153 1.174-.25.243-.077.508-.16.967-.248.917-.102 1.759-.206 2.235-.308a.825.825 0 0 0-.346-1.614c-.37.08-1.053.167-1.874.26l-.203-1.363c-.161.014-.31.03-.493.05Z"/><path fill="url(#paint15_radial_4002_3786)" d="M26.091 14.017c-.328.036-.77.085-1.597.155l-.229.018c-1.06.083-2.273.177-2.466 1.345-.2 1.203 1.183 2.142 2.832 1.954.593-.067.866-.153 1.174-.25.243-.077.508-.16.967-.248.917-.102 1.759-.206 2.235-.308a.825.825 0 0 0-.346-1.614c-.37.08-1.053.167-1.874.26l-.203-1.363c-.161.014-.31.03-.493.05Z"/><path fill="url(#paint16_radial_4002_3786)" d="M26.091 14.017c-.328.036-.77.085-1.597.155l-.229.018c-1.06.083-2.273.177-2.466 1.345-.2 1.203 1.183 2.142 2.832 1.954.593-.067.866-.153 1.174-.25.243-.077.508-.16.967-.248.917-.102 1.759-.206 2.235-.308a.825.825 0 0 0-.346-1.614c-.37.08-1.053.167-1.874.26l-.203-1.363c-.161.014-.31.03-.493.05Z"/><path fill="url(#paint17_linear_4002_3786)" d="M26.091 14.017c-.328.036-.77.085-1.597.155l-.229.018c-1.06.083-2.273.177-2.466 1.345-.2 1.203 1.183 2.142 2.832 1.954.593-.067.866-.153 1.174-.25.243-.077.508-.16.967-.248.917-.102 1.759-.206 2.235-.308a.825.825 0 0 0-.346-1.614c-.37.08-1.053.167-1.874.26l-.203-1.363c-.161.014-.31.03-.493.05Z"/></g><path fill="url(#paint18_linear_4002_3786)" d="M26.091 14.017c-.328.036-.77.085-1.597.155l-.229.018c-1.06.083-2.273.177-2.466 1.345-.2 1.203 1.183 2.142 2.832 1.954.593-.067.873-.095 1.181-.192.243-.077.5-.219.96-.306.917-.102 1.759-.206 2.235-.308a.825.825 0 0 0-.346-1.614c-.37.08-1.053.167-1.874.26l-.203-1.363c-.161.014-.31.03-.492.05Z"/><path fill="url(#paint19_radial_4002_3786)" d="M26.091 14.017c-.328.036-.77.085-1.597.155l-.229.018c-1.06.083-2.273.177-2.466 1.345-.2 1.203 1.183 2.142 2.832 1.954.593-.067.873-.095 1.181-.192.243-.077.5-.219.96-.306.917-.102 1.759-.206 2.235-.308a.825.825 0 0 0-.346-1.614c-.37.08-1.053.167-1.874.26l-.203-1.363c-.161.014-.31.03-.492.05Z"/><path fill="url(#paint20_radial_4002_3786)" d="M21.537 17.548a.25.25 0 0 1 .25-.25h4.094a.25.25 0 0 1 .25.25v1.64h-4.594v-1.64Z"/><path fill="url(#paint21_linear_4002_3786)" d="M21.537 17.548a.25.25 0 0 1 .25-.25h4.094a.25.25 0 0 1 .25.25v1.64h-4.594v-1.64Z"/><path fill="url(#paint22_linear_4002_3786)" d="M20.638 19.043a.8.8 0 0 1 .8-.8h4.79a.8.8 0 0 1 .8.8v11.044h-6.39V19.043Z"/><path fill="url(#paint23_radial_4002_3786)" d="M20.638 19.043a.8.8 0 0 1 .8-.8h4.79a.8.8 0 0 1 .8.8v11.044h-6.39V19.043Z"/><path fill="url(#paint24_linear_4002_3786)" d="M20.638 19.043a.8.8 0 0 1 .8-.8h4.79a.8.8 0 0 1 .8.8v11.044h-6.39V19.043Z"/><path fill="url(#paint25_radial_4002_3786)" d="M19.074 14.958a2.07 2.07 0 0 0 1.141-.39v1.175a2.741 2.741 0 0 1-1.692 2.548c.215-.457.363-.956.436-1.489l.115-1.844Z"/><path fill="url(#paint26_radial_4002_3786)" d="M19.074 14.958a2.07 2.07 0 0 0 1.141-.39v1.175a2.741 2.741 0 0 1-1.692 2.548c.215-.457.363-.956.436-1.489l.115-1.844Z"/><path fill="url(#paint27_radial_4002_3786)" d="M6.803 14.958a2.07 2.07 0 0 1-1.141-.39v1.175a2.74 2.74 0 0 0 1.692 2.548 5.158 5.158 0 0 1-.436-1.489l-.115-1.844Z"/><path fill="url(#paint28_radial_4002_3786)" d="M6.803 14.958a2.07 2.07 0 0 1-1.141-.39v1.175a2.74 2.74 0 0 0 1.692 2.548 5.158 5.158 0 0 1-.436-1.489l-.115-1.844Z"/><g filter="url(#filter1_ii_4002_3786)"><path fill="url(#paint29_radial_4002_3786)" d="M6.85 16.87a4.942 4.942 0 0 0 4.903 4.298h2.381a4.942 4.942 0 0 0 4.904-4.298c.149-2.378.299-4.745.409-7.121a1.83 1.83 0 0 0-1.74-1.808H15.94a3.057 3.057 0 0 1-2.791-1.82.838.838 0 0 0-.777-.528h-1.606c-2.33 0-4.217 1.909-4.217 4.264 0 2.348.146 4.659.3 7.013Z"/></g><path fill="url(#paint30_radial_4002_3786)" d="M6.85 16.87a4.942 4.942 0 0 0 4.903 4.298h2.381a4.942 4.942 0 0 0 4.904-4.298c.149-2.378.299-4.745.409-7.121a1.83 1.83 0 0 0-1.74-1.808H15.94a3.057 3.057 0 0 1-2.791-1.82.838.838 0 0 0-.777-.528h-1.606c-2.33 0-4.217 1.909-4.217 4.264 0 2.348.146 4.659.3 7.013Z"/><path fill="url(#paint31_radial_4002_3786)" d="M6.85 16.87a4.942 4.942 0 0 0 4.903 4.298h2.381a4.942 4.942 0 0 0 4.904-4.298c.149-2.378.299-4.745.409-7.121a1.83 1.83 0 0 0-1.74-1.808H15.94a3.057 3.057 0 0 1-2.791-1.82.838.838 0 0 0-.777-.528h-1.606c-2.33 0-4.217 1.909-4.217 4.264 0 2.348.146 4.659.3 7.013Z"/><path fill="url(#paint32_radial_4002_3786)" d="M6.85 16.87a4.942 4.942 0 0 0 4.903 4.298h2.381a4.942 4.942 0 0 0 4.904-4.298c.149-2.378.299-4.745.409-7.121a1.83 1.83 0 0 0-1.74-1.808H15.94a3.057 3.057 0 0 1-2.791-1.82.838.838 0 0 0-.777-.528h-1.606c-2.33 0-4.217 1.909-4.217 4.264 0 2.348.146 4.659.3 7.013Z"/><path fill="url(#paint33_radial_4002_3786)" d="M6.85 16.87a4.942 4.942 0 0 0 4.903 4.298h2.381a4.942 4.942 0 0 0 4.904-4.298c.149-2.378.299-4.745.409-7.121a1.83 1.83 0 0 0-1.74-1.808H15.94a3.057 3.057 0 0 1-2.791-1.82.838.838 0 0 0-.777-.528h-1.606c-2.33 0-4.217 1.909-4.217 4.264 0 2.348.146 4.659.3 7.013Z"/><g filter="url(#filter2_f_4002_3786)"><path fill="#EE9020" d="m12.325 12.726-.801 2.32c-.137.477.191.954.657.954h.992c.466 0 .794-.485.657-.954l-.67-2.32c-.144-.514-.684-.514-.835 0Z"/></g><g filter="url(#filter3_f_4002_3786)"><path fill="url(#paint34_linear_4002_3786)" d="m12.456 12.478-.67 2.32c-.137.478.191.955.656.955h.993c.465 0 .794-.485.657-.955l-.67-2.32c-.145-.514-.815-.514-.966 0Z"/><path fill="url(#paint35_linear_4002_3786)" d="m12.456 12.478-.67 2.32c-.137.478.191.955.656.955h.993c.465 0 .794-.485.657-.955l-.67-2.32c-.145-.514-.815-.514-.966 0Z"/><path fill="url(#paint36_linear_4002_3786)" d="m12.456 12.478-.67 2.32c-.137.478.191.955.656.955h.993c.465 0 .794-.485.657-.955l-.67-2.32c-.145-.514-.815-.514-.966 0Z"/><path fill="url(#paint37_linear_4002_3786)" d="m12.456 12.478-.67 2.32c-.137.478.191.955.656.955h.993c.465 0 .794-.485.657-.955l-.67-2.32c-.145-.514-.815-.514-.966 0Z"/></g><g filter="url(#filter4_f_4002_3786)"><path stroke="url(#paint38_radial_4002_3786)" stroke-width=".15" d="M11.225 16.555a3.717 3.717 0 0 0 1.713.406c.636 0 1.22-.148 1.714-.406h.001a.269.269 0 0 1 .319.052.25.25 0 0 1 .027.32l-.062-.042a2.39 2.39 0 0 1-1.998 1.068 2.39 2.39 0 0 1-1.999-1.068l.285-.33Zm0 0a.268.268 0 0 0-.32.055.248.248 0 0 0-.027.317l.347-.372Z"/></g><path fill="url(#paint39_radial_4002_3786)" d="M12.938 17.036c-.64 0-1.242-.15-1.748-.415-.173-.087-.359.107-.25.264a2.39 2.39 0 0 0 1.998 1.068 2.39 2.39 0 0 0 1.999-1.068c.109-.163-.077-.352-.25-.264a3.773 3.773 0 0 1-1.748.415Z"/><g filter="url(#filter5_ii_4002_3786)"><path fill="url(#paint40_linear_4002_3786)" d="M19.066 4.997a2.93 2.93 0 0 1 1.6 1.327 2.992 2.992 0 0 1-.135 3.188c-.22.325-.341.71-.341 1.103v1.5a2.202 2.202 0 0 0-.842-.339l.099-2.027a1.83 1.83 0 0 0-1.74-1.807H15.94a3.057 3.057 0 0 1-2.791-1.821.838.838 0 0 0-.777-.528h-1.606c-2.33 0-4.217 1.909-4.217 4.264l.038 1.94c-.32.047-.655.154-.908.333v-1.515c0-.392-.12-.778-.342-1.103a3.017 3.017 0 0 1-.18-3.087 2.959 2.959 0 0 1 1.64-1.421 3.384 3.384 0 0 0 1.746-1.401 2.935 2.935 0 0 1 3.648-1.151 1.88 1.88 0 0 0 1.506 0 2.969 2.969 0 0 1 1.152-.237c1.064 0 1.994.575 2.51 1.428.388.643.997 1.11 1.706 1.354Z"/><path fill="url(#paint41_radial_4002_3786)" d="M19.066 4.997a2.93 2.93 0 0 1 1.6 1.327 2.992 2.992 0 0 1-.135 3.188c-.22.325-.341.71-.341 1.103v1.5a2.202 2.202 0 0 0-.842-.339l.099-2.027a1.83 1.83 0 0 0-1.74-1.807H15.94a3.057 3.057 0 0 1-2.791-1.821.838.838 0 0 0-.777-.528h-1.606c-2.33 0-4.217 1.909-4.217 4.264l.038 1.94c-.32.047-.655.154-.908.333v-1.515c0-.392-.12-.778-.342-1.103a3.017 3.017 0 0 1-.18-3.087 2.959 2.959 0 0 1 1.64-1.421 3.384 3.384 0 0 0 1.746-1.401 2.935 2.935 0 0 1 3.648-1.151 1.88 1.88 0 0 0 1.506 0 2.969 2.969 0 0 1 1.152-.237c1.064 0 1.994.575 2.51 1.428.388.643.997 1.11 1.706 1.354Z"/><path fill="url(#paint42_radial_4002_3786)" d="M19.066 4.997a2.93 2.93 0 0 1 1.6 1.327 2.992 2.992 0 0 1-.135 3.188c-.22.325-.341.71-.341 1.103v1.5a2.202 2.202 0 0 0-.842-.339l.099-2.027a1.83 1.83 0 0 0-1.74-1.807H15.94a3.057 3.057 0 0 1-2.791-1.821.838.838 0 0 0-.777-.528h-1.606c-2.33 0-4.217 1.909-4.217 4.264l.038 1.94c-.32.047-.655.154-.908.333v-1.515c0-.392-.12-.778-.342-1.103a3.017 3.017 0 0 1-.18-3.087 2.959 2.959 0 0 1 1.64-1.421 3.384 3.384 0 0 0 1.746-1.401 2.935 2.935 0 0 1 3.648-1.151 1.88 1.88 0 0 0 1.506 0 2.969 2.969 0 0 1 1.152-.237c1.064 0 1.994.575 2.51 1.428.388.643.997 1.11 1.706 1.354Z"/><path fill="url(#paint43_radial_4002_3786)" d="M19.066 4.997a2.93 2.93 0 0 1 1.6 1.327 2.992 2.992 0 0 1-.135 3.188c-.22.325-.341.71-.341 1.103v1.5a2.202 2.202 0 0 0-.842-.339l.099-2.027a1.83 1.83 0 0 0-1.74-1.807H15.94a3.057 3.057 0 0 1-2.791-1.821.838.838 0 0 0-.777-.528h-1.606c-2.33 0-4.217 1.909-4.217 4.264l.038 1.94c-.32.047-.655.154-.908.333v-1.515c0-.392-.12-.778-.342-1.103a3.017 3.017 0 0 1-.18-3.087 2.959 2.959 0 0 1 1.64-1.421 3.384 3.384 0 0 0 1.746-1.401 2.935 2.935 0 0 1 3.648-1.151 1.88 1.88 0 0 0 1.506 0 2.969 2.969 0 0 1 1.152-.237c1.064 0 1.994.575 2.51 1.428.388.643.997 1.11 1.706 1.354Z"/><path fill="url(#paint44_radial_4002_3786)" d="M19.066 4.997a2.93 2.93 0 0 1 1.6 1.327 2.992 2.992 0 0 1-.135 3.188c-.22.325-.341.71-.341 1.103v1.5a2.202 2.202 0 0 0-.842-.339l.099-2.027a1.83 1.83 0 0 0-1.74-1.807H15.94a3.057 3.057 0 0 1-2.791-1.821.838.838 0 0 0-.777-.528h-1.606c-2.33 0-4.217 1.909-4.217 4.264l.038 1.94c-.32.047-.655.154-.908.333v-1.515c0-.392-.12-.778-.342-1.103a3.017 3.017 0 0 1-.18-3.087 2.959 2.959 0 0 1 1.64-1.421 3.384 3.384 0 0 0 1.746-1.401 2.935 2.935 0 0 1 3.648-1.151 1.88 1.88 0 0 0 1.506 0 2.969 2.969 0 0 1 1.152-.237c1.064 0 1.994.575 2.51 1.428.388.643.997 1.11 1.706 1.354Z"/></g><g filter="url(#filter6_i_4002_3786)"><path fill="#C05029" d="M17.65 9.62c-.221-.193-.479-.397-.868-.52-.384-.12-.865-.153-1.53-.071a.35.35 0 0 0 .085.695c.607-.075.979-.036 1.235.044.25.08.42.207.618.38a.35.35 0 0 0 .46-.528Z"/></g><g filter="url(#filter7_i_4002_3786)"><path fill="#C05029" d="M8.634 9.482a3.5 3.5 0 0 1 2.195-.454.35.35 0 1 1-.086.696 2.8 2.8 0 0 0-1.75.359 1.706 1.706 0 0 0-.115.075l-.004.003a.35.35 0 0 1-.428-.553l.188-.126Z"/></g><g filter="url(#filter8_f_4002_3786)"><path fill="url(#paint45_radial_4002_3786)" d="M13.232 6.293a3.165 3.165 0 0 1-.083-.172.838.838 0 0 0-.777-.528h-1.606c-2.33 0-4.217 1.909-4.217 4.264v.347c-.43-.326-.969-1.015-.969-2.13 0-1.352.987-2.036 1.616-2.472a3.11 3.11 0 0 0 .417-.32l.126-.132c.441-.468 1.227-1.302 2.6-1.666a7.047 7.047 0 0 1 2.114-.2c.473.025.806.433.806.906v2.086l-.027.017Z"/><path fill="url(#paint46_radial_4002_3786)" d="M13.232 6.293a3.165 3.165 0 0 1-.083-.172.838.838 0 0 0-.777-.528h-1.606c-2.33 0-4.217 1.909-4.217 4.264v.347c-.43-.326-.969-1.015-.969-2.13 0-1.352.987-2.036 1.616-2.472a3.11 3.11 0 0 0 .417-.32l.126-.132c.441-.468 1.227-1.302 2.6-1.666a7.047 7.047 0 0 1 2.114-.2c.473.025.806.433.806.906v2.086l-.027.017Z"/></g><g filter="url(#filter9_f_4002_3786)"><path fill="url(#paint47_radial_4002_3786)" d="m19.517 10.55-.037-.797c-.013-.964-.81-1.759-1.773-1.8H15.94a3.056 3.056 0 0 1-2.68-1.59s-.153-.352-.25-.912c-.17-.989.746-1.717 1.736-1.553 1.324.22 2.95.65 4.114 1.408 2.201 1.436 1.816 4.024.657 5.243Z"/><path fill="url(#paint48_radial_4002_3786)" d="m19.517 10.55-.037-.797c-.013-.964-.81-1.759-1.773-1.8H15.94a3.056 3.056 0 0 1-2.68-1.59s-.153-.352-.25-.912c-.17-.989.746-1.717 1.736-1.553 1.324.22 2.95.65 4.114 1.408 2.201 1.436 1.816 4.024.657 5.243Z"/><path fill="url(#paint49_radial_4002_3786)" d="m19.517 10.55-.037-.797c-.013-.964-.81-1.759-1.773-1.8H15.94a3.056 3.056 0 0 1-2.68-1.59s-.153-.352-.25-.912c-.17-.989.746-1.717 1.736-1.553 1.324.22 2.95.65 4.114 1.408 2.201 1.436 1.816 4.024.657 5.243Z"/><path fill="url(#paint50_radial_4002_3786)" d="m19.517 10.55-.037-.797c-.013-.964-.81-1.759-1.773-1.8H15.94a3.056 3.056 0 0 1-2.68-1.59s-.153-.352-.25-.912c-.17-.989.746-1.717 1.736-1.553 1.324.22 2.95.65 4.114 1.408 2.201 1.436 1.816 4.024.657 5.243Z"/><path fill="url(#paint51_radial_4002_3786)" d="m19.517 10.55-.037-.797c-.013-.964-.81-1.759-1.773-1.8H15.94a3.056 3.056 0 0 1-2.68-1.59s-.153-.352-.25-.912c-.17-.989.746-1.717 1.736-1.553 1.324.22 2.95.65 4.114 1.408 2.201 1.436 1.816 4.024.657 5.243Z"/></g><path fill="#fff" d="M15.956 11.28c.824 0 1.52.567 1.71 1.335a.346.346 0 0 1-.338.43h-2.816a.29.29 0 0 1-.286-.343 1.764 1.764 0 0 1 1.73-1.423Z"/><path fill="url(#paint52_radial_4002_3786)" d="M15.695 11.622a1.126 1.126 0 0 1 1.085 1.423h-2.176a1.13 1.13 0 0 1 1.09-1.423Z"/><path fill="#000" d="M15.05 12.748c0-.358.286-.645.645-.645a.642.642 0 0 1 .573.942h-1.141a.583.583 0 0 1-.077-.297Z"/><g filter="url(#filter10_f_4002_3786)"><path fill="#C7A7A3" d="M15.612 11.86c.08.107-.087.238-.278.38-.19.143-.332.244-.413.136-.08-.107.01-.31.2-.452.191-.143.41-.171.491-.064Z"/><path fill="url(#paint53_radial_4002_3786)" d="M15.612 11.86c.08.107-.087.238-.278.38-.19.143-.332.244-.413.136-.08-.107.01-.31.2-.452.191-.143.41-.171.491-.064Z"/></g><g filter="url(#filter11_f_4002_3786)"><path fill="url(#paint54_linear_4002_3786)" d="M16.698 12.6a1.06 1.06 0 0 0-.292-.584l-.328.36.148.288.472-.064Z"/></g><path fill="#fff" d="M9.921 11.279c-.824 0-1.52.568-1.71 1.336-.056.22.113.43.338.43h2.816a.29.29 0 0 0 .287-.343 1.768 1.768 0 0 0-1.73-1.423Z"/><path fill="url(#paint55_radial_4002_3786)" d="M10.182 11.622a1.126 1.126 0 0 0-1.085 1.423h2.176a1.134 1.134 0 0 0-1.09-1.423Z"/><path fill="#000" d="M10.827 12.748a.642.642 0 0 0-.645-.645.642.642 0 0 0-.573.942h1.142a.639.639 0 0 0 .076-.297Z"/><g filter="url(#filter12_f_4002_3786)"><path fill="url(#paint56_linear_4002_3786)" d="M11.211 12.616c0-.364-.296-.607-.376-.68l-.364.352.224.456.516-.128Z"/></g><g filter="url(#filter13_f_4002_3786)" transform="rotate(-27.914 9.842 12.103)"><ellipse cx="9.842" cy="12.103" fill="#C7A7A3" fill-opacity=".9" rx=".492" ry=".249"/><ellipse cx="9.842" cy="12.103" fill="url(#paint57_radial_4002_3786)" rx=".492" ry=".249"/></g><path fill="url(#paint58_linear_4002_3786)" d="M19.15 15.073c.083-1.344.163-2.685.233-4.028a2.031 2.031 0 0 1-.233 4.028Z"/><path fill="url(#paint59_radial_4002_3786)" d="M19.15 15.073c.083-1.344.163-2.685.233-4.028a2.031 2.031 0 0 1-.233 4.028Z"/><path fill="url(#paint60_radial_4002_3786)" d="M19.15 15.073c.083-1.344.163-2.685.233-4.028a2.031 2.031 0 0 1-.233 4.028Z"/><path fill="url(#paint61_linear_4002_3786)" d="M6.56 11.035a2.031 2.031 0 0 0 .175 4.038 98.428 98.428 0 0 1-.175-4.038Z"/><path fill="url(#paint62_radial_4002_3786)" d="M6.56 11.035a2.031 2.031 0 0 0 .175 4.038 98.428 98.428 0 0 1-.175-4.038Z"/><g filter="url(#filter14_f_4002_3786)"><path fill="#DD8224" d="M6.582 11.869a1.206 1.206 0 0 0 .105 2.372 99.002 99.002 0 0 1-.105-2.372Z"/></g><g filter="url(#filter15_f_4002_3786)"><path fill="#FFC837" d="M19.2 14.251c.05-.8.096-1.601.14-2.402a1.206 1.206 0 0 1-.14 2.402Z"/></g><g filter="url(#filter16_f_4002_3786)"><path stroke="#C96953" stroke-linecap="round" stroke-width=".25" d="M8.682 9.835c.324-.232 1.132-.642 2.088-.48"/></g><g filter="url(#filter17_f_4002_3786)"><path stroke="#C96953" stroke-linecap="round" stroke-width=".25" d="M17.433 9.777c-.325-.233-1.133-.642-2.09-.481"/></g><defs><radialGradient id="paint1_radial_4002_3786" cx="0" cy="0" r="1" gradientTransform="matrix(0 3.33523 -6.23448 0 12.904 20.036)" gradientUnits="userSpaceOnUse"><stop offset=".397" stop-color="#C95513"/><stop offset="1" stop-color="#C95513" stop-opacity="0"/></radialGradient><radialGradient id="paint2_radial_4002_3786" cx="0" cy="0" r="1" gradientTransform="matrix(-3.89737 -6.66767 3.24499 -1.89675 21.662 29.476)" gradientUnits="userSpaceOnUse"><stop offset=".085" stop-color="#BB2C0D"/><stop offset="1" stop-color="#BB2C0D" stop-opacity="0"/></radialGradient><radialGradient id="paint3_radial_4002_3786" cx="0" cy="0" r="1" gradientTransform="matrix(2.81734 3.45124 -5.56183 4.54028 11.778 20.507)" gradientUnits="userSpaceOnUse"><stop offset=".16" stop-color="#DD7D2C"/><stop offset=".826" stop-color="#FFB628"/></radialGradient><radialGradient id="paint4_radial_4002_3786" cx="0" cy="0" r="1" gradientTransform="rotate(131.424 9.173 12.14) scale(2.12546 1.04757)" gradientUnits="userSpaceOnUse"><stop stop-color="#FFE047"/><stop offset="1" stop-color="#FAB91D"/></radialGradient><radialGradient id="paint5_radial_4002_3786" cx="0" cy="0" r="1" gradientTransform="rotate(-70.927 22.585 -8.943) scale(3.10812 1.58159)" gradientUnits="userSpaceOnUse"><stop offset=".854" stop-color="#EAB23A" stop-opacity="0"/><stop offset="1" stop-color="#EAB23A"/></radialGradient><radialGradient id="paint6_radial_4002_3786" cx="0" cy="0" r="1" gradientTransform="matrix(-.89575 .18 -.22855 -1.1374 30.16 14.163)" gradientUnits="userSpaceOnUse"><stop stop-color="#FFDC47"/><stop offset="1" stop-color="#FFDC47" stop-opacity="0"/></radialGradient><radialGradient id="paint8_radial_4002_3786" cx="0" cy="0" r="1" gradientTransform="matrix(.04403 .33209 -2.56302 .33983 27.715 13.64)" gradientUnits="userSpaceOnUse"><stop offset=".382" stop-color="#E4B833"/><stop offset="1" stop-color="#E4B833" stop-opacity="0"/></radialGradient><radialGradient id="paint9_radial_4002_3786" cx="0" cy="0" r="1" gradientTransform="rotate(164.445 14.38 9.336) scale(.78159 1.2098)" gradientUnits="userSpaceOnUse"><stop offset=".109" stop-color="#FFDC47"/><stop offset="1" stop-color="#FFDC47" stop-opacity="0"/></radialGradient><radialGradient id="paint11_radial_4002_3786" cx="0" cy="0" r="1" gradientTransform="matrix(.04382 .26178 -2.05938 .3447 28.305 13.965)" gradientUnits="userSpaceOnUse"><stop offset=".382" stop-color="#E4B833"/><stop offset="1" stop-color="#E4B833" stop-opacity="0"/></radialGradient><radialGradient id="paint12_radial_4002_3786" cx="0" cy="0" r="1" gradientTransform="matrix(-.89428 .16927 -.20335 -1.07433 30.457 14.935)" gradientUnits="userSpaceOnUse"><stop stop-color="#FFDC47"/><stop offset="1" stop-color="#FFDC47" stop-opacity="0"/></radialGradient><radialGradient id="paint14_radial_4002_3786" cx="0" cy="0" r="1" gradientTransform="matrix(.0434 .28906 -2.36234 .35465 28.017 14.402)" gradientUnits="userSpaceOnUse"><stop offset=".382" stop-color="#E4B833"/><stop offset="1" stop-color="#E4B833" stop-opacity="0"/></radialGradient><radialGradient id="paint15_radial_4002_3786" cx="0" cy="0" r="1" gradientTransform="rotate(169.423 14.104 9.212) scale(.90027 1.06791)" gradientUnits="userSpaceOnUse"><stop stop-color="#FFDC47"/><stop offset="1" stop-color="#FFDC47" stop-opacity="0"/></radialGradient><radialGradient id="paint16_radial_4002_3786" cx="0" cy="0" r="1" gradientTransform="rotate(81.573 5.101 23.74) scale(.21324 1.76543)" gradientUnits="userSpaceOnUse"><stop offset=".382" stop-color="#E4B833"/><stop offset="1" stop-color="#E4B833" stop-opacity="0"/></radialGradient><radialGradient id="paint19_radial_4002_3786" cx="0" cy="0" r="1" gradientTransform="rotate(157.027 11.93 10.07) scale(3.12266 1.85514)" gradientUnits="userSpaceOnUse"><stop stop-color="#FFD836"/><stop offset="1" stop-color="#FFD836" stop-opacity="0"/></radialGradient><radialGradient id="paint20_radial_4002_3786" cx="0" cy="0" r="1" gradientTransform="matrix(0 .95313 -3.31428 0 24.626 17.387)" gradientUnits="userSpaceOnUse"><stop offset=".443" stop-color="#FF7849"/><stop offset="1" stop-color="#F3632F"/></radialGradient><radialGradient id="paint23_radial_4002_3786" cx="0" cy="0" r="1" gradientTransform="matrix(0 10.75 -3.6875 0 26.189 17.715)" gradientUnits="userSpaceOnUse"><stop offset=".14" stop-color="#FF9F3B"/><stop offset="1" stop-color="#FF9F3B" stop-opacity="0"/></radialGradient><radialGradient id="paint25_radial_4002_3786" cx="0" cy="0" r="1" gradientTransform="matrix(-.97304 3.99792 -4.74923 -1.1559 19.94 14.568)" gradientUnits="userSpaceOnUse"><stop offset=".043" stop-color="#FFC135"/><stop offset=".909" stop-color="#E26839"/></radialGradient><radialGradient id="paint26_radial_4002_3786" cx="0" cy="0" r="1" gradientTransform="matrix(.37018 .50767 -.43128 .31447 18.999 14.907)" gradientUnits="userSpaceOnUse"><stop stop-color="#E18C2A"/><stop offset="1" stop-color="#E18C2A" stop-opacity="0"/></radialGradient><radialGradient id="paint27_radial_4002_3786" cx="0" cy="0" r="1" gradientTransform="rotate(64.592 -8.673 12.054) scale(3.7469 1.70313)" gradientUnits="userSpaceOnUse"><stop stop-color="#D57A26"/><stop offset="1" stop-color="#D06A3C"/></radialGradient><radialGradient id="paint28_radial_4002_3786" cx="0" cy="0" r="1" gradientTransform="rotate(72.29 -6.68 11.989) scale(1.32122 1.15898)" gradientUnits="userSpaceOnUse"><stop offset=".263" stop-color="#BE691E"/><stop offset=".977" stop-color="#BE691E" stop-opacity="0"/></radialGradient><radialGradient id="paint29_radial_4002_3786" cx="0" cy="0" r="1" gradientTransform="matrix(-6.59763 0 0 -11.6711 16.482 13.38)" gradientUnits="userSpaceOnUse"><stop stop-color="#FFE846"/><stop offset="1" stop-color="#F5A129"/></radialGradient><radialGradient id="paint30_radial_4002_3786" cx="0" cy="0" r="1" gradientTransform="matrix(0 -4.27296 16.6223 0 12.694 21.376)" gradientUnits="userSpaceOnUse"><stop offset=".082" stop-color="#E27426"/><stop offset="1" stop-color="#FFA041" stop-opacity="0"/></radialGradient><radialGradient id="paint31_radial_4002_3786" cx="0" cy="0" r="1" gradientTransform="matrix(-.50804 7.70072 -2.8311 -.18678 19.447 13.088)" gradientUnits="userSpaceOnUse"><stop offset=".39" stop-color="#FFD930"/><stop offset="1" stop-color="#FFD930" stop-opacity="0"/></radialGradient><radialGradient id="paint32_radial_4002_3786" cx="0" cy="0" r="1" gradientTransform="matrix(0 -1.78431 2.14822 0 10.3 11.89)" gradientUnits="userSpaceOnUse"><stop offset=".276" stop-color="#F59632"/><stop offset="1" stop-color="#F59632" stop-opacity="0"/></radialGradient><radialGradient id="paint33_radial_4002_3786" cx="0" cy="0" r="1" gradientTransform="matrix(0 -1.9375 2.513 0 16.08 11.371)" gradientUnits="userSpaceOnUse"><stop offset=".178" stop-color="#FFBE3A"/><stop offset="1" stop-color="#FFBE3A" stop-opacity="0"/></radialGradient><radialGradient id="paint38_radial_4002_3786" cx="0" cy="0" r="1" gradientTransform="matrix(.43812 -.78175 2.27492 1.27496 11.517 17.532)" gradientUnits="userSpaceOnUse"><stop stop-color="#FFB534"/><stop offset="1" stop-color="#FFB534" stop-opacity="0"/></radialGradient><radialGradient id="paint39_radial_4002_3786" cx="0" cy="0" r="1" gradientTransform="matrix(0 -.90958 3.65948 0 12.938 17.847)" gradientUnits="userSpaceOnUse"><stop stop-color="#89014E"/><stop offset="1" stop-color="#87004D"/></radialGradient><radialGradient id="paint41_radial_4002_3786" cx="0" cy="0" r="1" gradientTransform="matrix(0 -7.21743 12.7879 0 6.339 11.384)" gradientUnits="userSpaceOnUse"><stop offset=".315" stop-color="#C98537"/><stop offset="1" stop-color="#C98537" stop-opacity="0"/></radialGradient><radialGradient id="paint42_radial_4002_3786" cx="0" cy="0" r="1" gradientTransform="matrix(0 -4.58447 8.12277 0 19.073 11.384)" gradientUnits="userSpaceOnUse"><stop stop-color="#FFB52A"/><stop offset="1" stop-color="#FFB52A" stop-opacity="0"/></radialGradient><radialGradient id="paint43_radial_4002_3786" cx="0" cy="0" r="1" gradientTransform="matrix(-4.1037 -1.56532 .83364 -2.18548 18.121 3.463)" gradientUnits="userSpaceOnUse"><stop stop-color="#FFE639"/><stop offset="1" stop-color="#FFE639" stop-opacity="0"/></radialGradient><radialGradient id="paint44_radial_4002_3786" cx="0" cy="0" r="1" gradientTransform="rotate(58.465 4.6 11.266) scale(2.18399 5.0571)" gradientUnits="userSpaceOnUse"><stop offset=".287" stop-color="#F3C130"/><stop offset="1" stop-color="#F3C130" stop-opacity="0"/></radialGradient><radialGradient id="paint45_radial_4002_3786" cx="0" cy="0" r="1" gradientTransform="rotate(160.16 6.343 2.796) scale(5.10755 1.42155)" gradientUnits="userSpaceOnUse"><stop stop-color="#FFDD30"/><stop offset="1" stop-color="#FFDC2B" stop-opacity="0"/></radialGradient><radialGradient id="paint46_radial_4002_3786" cx="0" cy="0" r="1" gradientTransform="matrix(4.06138 -6.43053 7.12436 4.49959 6.085 9.28)" gradientUnits="userSpaceOnUse"><stop offset=".093" stop-color="#D67227"/><stop offset=".233" stop-color="#EF8A23"/><stop offset="1" stop-color="#EF8A23" stop-opacity="0"/></radialGradient><radialGradient id="paint47_radial_4002_3786" cx="0" cy="0" r="1" gradientTransform="matrix(4.27292 1.01063 -.56521 2.3897 17.507 4.738)" gradientUnits="userSpaceOnUse"><stop stop-color="#FFEB3B"/><stop offset="1" stop-color="#FFEB3B" stop-opacity="0"/></radialGradient><radialGradient id="paint48_radial_4002_3786" cx="0" cy="0" r="1" gradientTransform="matrix(-2.71157 -4.67413 2.60673 -1.51222 19.412 10.55)" gradientUnits="userSpaceOnUse"><stop stop-color="#EB8F29"/><stop offset="1" stop-color="#EB8F29" stop-opacity="0"/></radialGradient><radialGradient id="paint49_radial_4002_3786" cx="0" cy="0" r="1" gradientTransform="rotate(-120.695 12.21 -.218) scale(3.23216 2.31506)" gradientUnits="userSpaceOnUse"><stop offset=".394" stop-color="#E48421"/><stop offset="1" stop-color="#E48421" stop-opacity="0"/></radialGradient><radialGradient id="paint50_radial_4002_3786" cx="0" cy="0" r="1" gradientTransform="rotate(166.509 9.223 3.418) scale(6.22753 6.7322)" gradientUnits="userSpaceOnUse"><stop offset=".735" stop-color="#F29415" stop-opacity="0"/><stop offset="1" stop-color="#F29415"/></radialGradient><radialGradient id="paint51_radial_4002_3786" cx="0" cy="0" r="1" gradientTransform="matrix(-.14808 .48427 -2.21403 -.67698 17.296 4.433)" gradientUnits="userSpaceOnUse"><stop offset=".461" stop-color="#FFCE3C"/><stop offset="1" stop-color="#FFCE3C" stop-opacity="0"/></radialGradient><radialGradient id="paint52_radial_4002_3786" cx="0" cy="0" r="1" gradientTransform="matrix(0 1.0239 -1.62862 0 15.692 12.224)" gradientUnits="userSpaceOnUse"><stop offset=".802" stop-color="#925C51"/><stop offset="1" stop-color="#694B43"/><stop offset="1" stop-color="#804D49"/><stop offset="1" stop-color="#85534D"/></radialGradient><radialGradient id="paint53_radial_4002_3786" cx="0" cy="0" r="1" gradientTransform="matrix(-.29269 -.37717 .51926 -.40295 15.405 12.33)" gradientUnits="userSpaceOnUse"><stop offset=".766" stop-color="#FFE6E2" stop-opacity="0"/><stop offset=".966" stop-color="#FFE6E2"/></radialGradient><radialGradient id="paint55_radial_4002_3786" cx="0" cy="0" r="1" gradientTransform="matrix(0 1.02395 -1.62871 0 10.185 12.224)" gradientUnits="userSpaceOnUse"><stop offset=".802" stop-color="#925C51"/><stop offset="1" stop-color="#694B43"/><stop offset="1" stop-color="#804D49"/><stop offset="1" stop-color="#85534D"/></radialGradient><radialGradient id="paint57_radial_4002_3786" cx="0" cy="0" r="1" gradientTransform="matrix(-.00976 -.62354 .74952 -.01174 9.823 12.5)" gradientUnits="userSpaceOnUse"><stop offset=".766" stop-color="#FFE6E2" stop-opacity="0"/><stop offset=".966" stop-color="#FFE6E2"/></radialGradient><radialGradient id="paint59_radial_4002_3786" cx="0" cy="0" r="1" gradientTransform="rotate(74.347 1.312 18.494) scale(2.94008 2.80506)" gradientUnits="userSpaceOnUse"><stop offset=".856" stop-color="#E1943D" stop-opacity="0"/><stop offset="1" stop-color="#E08F2E"/></radialGradient><radialGradient id="paint60_radial_4002_3786" cx="0" cy="0" r="1" gradientTransform="matrix(.9942 -1.36437 1.14361 .83333 19.22 12.929)" gradientUnits="userSpaceOnUse"><stop offset=".664" stop-color="#FFBD22"/><stop offset="1" stop-color="#FFBD22" stop-opacity="0"/></radialGradient><radialGradient id="paint62_radial_4002_3786" cx="0" cy="0" r="1" gradientTransform="matrix(-.52105 2.61997 -2.57568 -.51224 6.297 12.453)" gradientUnits="userSpaceOnUse"><stop offset=".775" stop-color="#C77937" stop-opacity="0"/><stop offset="1" stop-color="#C77937"/></radialGradient><linearGradient id="paint0_linear_4002_3786" x1="12.904" x2="12.904" y1="30.087" y2="25.061" gradientUnits="userSpaceOnUse"><stop stop-color="#F6563D"/><stop offset="1" stop-color="#FF732C"/></linearGradient><linearGradient id="paint7_linear_4002_3786" x1="28.329" x2="28.03" y1="15.71" y2="14.457" gradientUnits="userSpaceOnUse"><stop stop-color="#E48851"/><stop offset="1" stop-color="#FFCB38" stop-opacity="0"/></linearGradient><linearGradient id="paint10_linear_4002_3786" x1="28.75" x2="28.624" y1="15.984" y2="14.758" gradientUnits="userSpaceOnUse"><stop offset=".217" stop-color="#E48851"/><stop offset="1" stop-color="#FFCB38" stop-opacity="0"/></linearGradient><linearGradient id="paint13_linear_4002_3786" x1="28.463" x2="28.345" y1="16.39" y2="15.207" gradientUnits="userSpaceOnUse"><stop offset=".217" stop-color="#E48851"/><stop offset="1" stop-color="#FFCB38" stop-opacity="0"/></linearGradient><linearGradient id="paint17_linear_4002_3786" x1="25.11" x2="26.704" y1="16.84" y2="16.527" gradientUnits="userSpaceOnUse"><stop offset=".585" stop-color="#FFCA38"/><stop offset="1" stop-color="#FFCA38" stop-opacity="0"/></linearGradient><linearGradient id="paint18_linear_4002_3786" x1="27.493" x2="27.439" y1="17.004" y2="16.684" gradientUnits="userSpaceOnUse"><stop offset=".101" stop-color="#E38654"/><stop offset="1" stop-color="#E99344" stop-opacity="0"/></linearGradient><linearGradient id="paint21_linear_4002_3786" x1="24.005" x2="24.005" y1="18.338" y2="18.079" gradientUnits="userSpaceOnUse"><stop offset=".316" stop-color="#F05918"/><stop offset="1" stop-color="#F05918" stop-opacity="0"/></linearGradient><linearGradient id="paint22_linear_4002_3786" x1="24.876" x2="24.876" y1="19.402" y2="38.715" gradientUnits="userSpaceOnUse"><stop stop-color="#FF872C"/><stop offset=".621" stop-color="#EA6033"/></linearGradient><linearGradient id="paint24_linear_4002_3786" x1="23.834" x2="23.834" y1="18.243" y2="19.277" gradientUnits="userSpaceOnUse"><stop offset=".366" stop-color="#FF9C1D"/><stop offset="1" stop-color="#FF9C1D" stop-opacity="0"/></linearGradient><linearGradient id="paint34_linear_4002_3786" x1="12.939" x2="14.017" y1="14.426" y2="14.426" gradientUnits="userSpaceOnUse"><stop stop-color="#FFC92F"/><stop offset="1" stop-color="#FFEA47"/></linearGradient><linearGradient id="paint35_linear_4002_3786" x1="11.585" x2="12.94" y1="14.23" y2="14.305" gradientUnits="userSpaceOnUse"><stop stop-color="#F49F22"/><stop offset="1" stop-color="#E88830" stop-opacity="0"/><stop offset="1" stop-color="#F49F22" stop-opacity="0"/></linearGradient><linearGradient id="paint36_linear_4002_3786" x1="12.939" x2="12.939" y1="14.929" y2="16.005" gradientUnits="userSpaceOnUse"><stop stop-color="#E88830" stop-opacity="0"/><stop offset=".845" stop-color="#E88830"/></linearGradient><linearGradient id="paint37_linear_4002_3786" x1="12.939" x2="12.939" y1="12.093" y2="12.622" gradientUnits="userSpaceOnUse"><stop stop-color="#FAC137"/><stop offset="1" stop-color="#FAC137" stop-opacity="0"/></linearGradient><linearGradient id="paint40_linear_4002_3786" x1="19.707" x2="6.931" y1="6.234" y2="6.234" gradientUnits="userSpaceOnUse"><stop stop-color="#FFE235"/><stop offset="1" stop-color="#D29935"/></linearGradient><linearGradient id="paint54_linear_4002_3786" x1="16.674" x2="16.278" y1="12.292" y2="12.536" gradientUnits="userSpaceOnUse"><stop stop-color="#B4948D"/><stop offset="1" stop-color="#B4948D" stop-opacity="0"/></linearGradient><linearGradient id="paint56_linear_4002_3786" x1="11.124" x2="10.728" y1="12.292" y2="12.536" gradientUnits="userSpaceOnUse"><stop stop-color="#B4948D"/><stop offset="1" stop-color="#B4948D" stop-opacity="0"/></linearGradient><linearGradient id="paint58_linear_4002_3786" x1="21.061" x2="19.538" y1="12.326" y2="15.073" gradientUnits="userSpaceOnUse"><stop stop-color="#FFE343"/><stop offset="1" stop-color="#FFC136"/></linearGradient><linearGradient id="paint61_linear_4002_3786" x1="5.556" x2="7.396" y1="13.214" y2="13.054" gradientUnits="userSpaceOnUse"><stop stop-color="#E39726"/><stop offset="1" stop-color="#D9851D"/></linearGradient><filter id="filter0_i_4002_3786" width="7.879" height="3.847" x="21.78" y="13.666" color-interpolation-filters="sRGB" filterUnits="userSpaceOnUse"><feFlood flood-opacity="0" result="BackgroundImageFix"/><feBlend in="SourceGraphic" in2="BackgroundImageFix" result="shape"/><feColorMatrix in="SourceAlpha" result="hardAlpha" values="0 0 0 0 0 0 0 0 0 0 0 0 0 0 0 0 0 0 127 0"/><feOffset dy="-.3"/><feGaussianBlur stdDeviation=".3"/><feComposite in2="hardAlpha" k2="-1" k3="1" operator="arithmetic"/><feColorMatrix values="0 0 0 0 0.933333 0 0 0 0 0.603922 0 0 0 0 0.0941176 0 0 0 1 0"/><feBlend in2="shape" result="effect1_innerShadow_4002_3786"/></filter><filter id="filter1_ii_4002_3786" width="13.648" height="15.775" x="6.549" y="5.593" color-interpolation-filters="sRGB" filterUnits="userSpaceOnUse"><feFlood flood-opacity="0" result="BackgroundImageFix"/><feBlend in="SourceGraphic" in2="BackgroundImageFix" result="shape"/><feColorMatrix in="SourceAlpha" result="hardAlpha" values="0 0 0 0 0 0 0 0 0 0 0 0 0 0 0 0 0 0 127 0"/><feOffset dx=".75"/><feGaussianBlur stdDeviation=".6"/><feComposite in2="hardAlpha" k2="-1" k3="1" operator="arithmetic"/><feColorMatrix values="0 0 0 0 0.823529 0 0 0 0 0.623529 0 0 0 0 0.313726 0 0 0 1 0"/><feBlend in2="shape" result="effect1_innerShadow_4002_3786"/><feColorMatrix in="SourceAlpha" result="hardAlpha" values="0 0 0 0 0 0 0 0 0 0 0 0 0 0 0 0 0 0 127 0"/><feOffset dy=".2"/><feGaussianBlur stdDeviation=".375"/><feComposite in2="hardAlpha" k2="-1" k3="1" operator="arithmetic"/><feColorMatrix values="0 0 0 0 0.980392 0 0 0 0 0.54902 0 0 0 0 0.0941176 0 0 0 1 0"/><feBlend in2="effect1_innerShadow_4002_3786" result="effect2_innerShadow_4002_3786"/></filter><filter id="filter2_f_4002_3786" width="4.369" height="5.66" x="10.492" y="11.34" color-interpolation-filters="sRGB" filterUnits="userSpaceOnUse"><feFlood flood-opacity="0" result="BackgroundImageFix"/><feBlend in="SourceGraphic" in2="BackgroundImageFix" result="shape"/><feGaussianBlur result="effect1_foregroundBlur_4002_3786" stdDeviation=".5"/></filter><filter id="filter3_f_4002_3786" width="2.569" height="3.86" x="11.654" y="11.993" color-interpolation-filters="sRGB" filterUnits="userSpaceOnUse"><feFlood flood-opacity="0" result="BackgroundImageFix"/><feBlend in="SourceGraphic" in2="BackgroundImageFix" result="shape"/><feGaussianBlur result="effect1_foregroundBlur_4002_3786" stdDeviation=".05"/></filter><filter id="filter4_f_4002_3786" width="4.562" height="1.854" x="10.658" y="16.349" color-interpolation-filters="sRGB" filterUnits="userSpaceOnUse"><feFlood flood-opacity="0" result="BackgroundImageFix"/><feBlend in="SourceGraphic" in2="BackgroundImageFix" result="shape"/><feGaussianBlur result="effect1_foregroundBlur_4002_3786" stdDeviation=".05"/></filter><filter id="filter5_ii_4002_3786" width="16.245" height="10.415" x="4.816" y="1.715" color-interpolation-filters="sRGB" filterUnits="userSpaceOnUse"><feFlood flood-opacity="0" result="BackgroundImageFix"/><feBlend in="SourceGraphic" in2="BackgroundImageFix" result="shape"/><feColorMatrix in="SourceAlpha" result="hardAlpha" values="0 0 0 0 0 0 0 0 0 0 0 0 0 0 0 0 0 0 127 0"/><feOffset dy="-.5"/><feGaussianBlur stdDeviation=".625"/><feComposite in2="hardAlpha" k2="-1" k3="1" operator="arithmetic"/><feColorMatrix values="0 0 0 0 0.945098 0 0 0 0 0.509804 0 0 0 0 0.0627451 0 0 0 1 0"/><feBlend in2="shape" result="effect1_innerShadow_4002_3786"/><feColorMatrix in="SourceAlpha" result="hardAlpha" values="0 0 0 0 0 0 0 0 0 0 0 0 0 0 0 0 0 0 127 0"/><feOffset dy="-.2"/><feGaussianBlur stdDeviation=".2"/><feComposite in2="hardAlpha" k2="-1" k3="1" operator="arithmetic"/><feColorMatrix values="0 0 0 0 0.862745 0 0 0 0 0.486275 0 0 0 0 0.0470588 0 0 0 1 0"/><feBlend in2="effect1_innerShadow_4002_3786" result="effect2_innerShadow_4002_3786"/></filter><filter id="filter6_i_4002_3786" width="2.925" height="1.45" x="14.944" y="8.784" color-interpolation-filters="sRGB" filterUnits="userSpaceOnUse"><feFlood flood-opacity="0" result="BackgroundImageFix"/><feBlend in="SourceGraphic" in2="BackgroundImageFix" result="shape"/><feColorMatrix in="SourceAlpha" result="hardAlpha" values="0 0 0 0 0 0 0 0 0 0 0 0 0 0 0 0 0 0 127 0"/><feOffset dx=".1" dy="-.2"/><feGaussianBlur stdDeviation=".125"/><feComposite in2="hardAlpha" k2="-1" k3="1" operator="arithmetic"/><feColorMatrix values="0 0 0 0 0.603922 0 0 0 0 0.243137 0 0 0 0 0.152941 0 0 0 1 0"/><feBlend in2="shape" result="effect1_innerShadow_4002_3786"/></filter><filter id="filter7_i_4002_3786" width="2.925" height="1.431" x="8.311" y="8.803" color-interpolation-filters="sRGB" filterUnits="userSpaceOnUse"><feFlood flood-opacity="0" result="BackgroundImageFix"/><feBlend in="SourceGraphic" in2="BackgroundImageFix" result="shape"/><feColorMatrix in="SourceAlpha" result="hardAlpha" values="0 0 0 0 0 0 0 0 0 0 0 0 0 0 0 0 0 0 127 0"/><feOffset dx=".1" dy="-.2"/><feGaussianBlur stdDeviation=".125"/><feComposite in2="hardAlpha" k2="-1" k3="1" operator="arithmetic"/><feColorMatrix values="0 0 0 0 0.603922 0 0 0 0 0.243137 0 0 0 0 0.152941 0 0 0 1 0"/><feBlend in2="shape" result="effect1_innerShadow_4002_3786"/></filter><filter id="filter8_f_4002_3786" width="8.679" height="7.931" x="5.08" y="2.774" color-interpolation-filters="sRGB" filterUnits="userSpaceOnUse"><feFlood flood-opacity="0" result="BackgroundImageFix"/><feBlend in="SourceGraphic" in2="BackgroundImageFix" result="shape"/><feGaussianBlur result="effect1_foregroundBlur_4002_3786" stdDeviation=".25"/></filter><filter id="filter9_f_4002_3786" width="8.461" height="7.674" x="12.49" y="3.375" color-interpolation-filters="sRGB" filterUnits="userSpaceOnUse"><feFlood flood-opacity="0" result="BackgroundImageFix"/><feBlend in="SourceGraphic" in2="BackgroundImageFix" result="shape"/><feGaussianBlur result="effect1_foregroundBlur_4002_3786" stdDeviation=".25"/></filter><filter id="filter10_f_4002_3786" width=".941" height=".826" x="14.792" y="11.695" color-interpolation-filters="sRGB" filterUnits="userSpaceOnUse"><feFlood flood-opacity="0" result="BackgroundImageFix"/><feBlend in="SourceGraphic" in2="BackgroundImageFix" result="shape"/><feGaussianBlur result="effect1_foregroundBlur_4002_3786" stdDeviation=".05"/></filter><filter id="filter11_f_4002_3786" width="1.02" height="1.048" x="15.878" y="11.816" color-interpolation-filters="sRGB" filterUnits="userSpaceOnUse"><feFlood flood-opacity="0" result="BackgroundImageFix"/><feBlend in="SourceGraphic" in2="BackgroundImageFix" result="shape"/><feGaussianBlur result="effect1_foregroundBlur_4002_3786" stdDeviation=".1"/></filter><filter id="filter12_f_4002_3786" width="1.14" height="1.208" x="10.271" y="11.736" color-interpolation-filters="sRGB" filterUnits="userSpaceOnUse"><feFlood flood-opacity="0" result="BackgroundImageFix"/><feBlend in="SourceGraphic" in2="BackgroundImageFix" result="shape"/><feGaussianBlur result="effect1_foregroundBlur_4002_3786" stdDeviation=".1"/></filter><filter id="filter13_f_4002_3786" width="1.1" height=".837" x="9.292" y="11.685" color-interpolation-filters="sRGB" filterUnits="userSpaceOnUse"><feFlood flood-opacity="0" result="BackgroundImageFix"/><feBlend in="SourceGraphic" in2="BackgroundImageFix" result="shape"/><feGaussianBlur result="effect1_foregroundBlur_4002_3786" stdDeviation=".05"/></filter><filter id="filter14_f_4002_3786" width="1.546" height="2.872" x="5.391" y="11.619" color-interpolation-filters="sRGB" filterUnits="userSpaceOnUse"><feFlood flood-opacity="0" result="BackgroundImageFix"/><feBlend in="SourceGraphic" in2="BackgroundImageFix" result="shape"/><feGaussianBlur result="effect1_foregroundBlur_4002_3786" stdDeviation=".125"/></filter><filter id="filter15_f_4002_3786" width="1.695" height="2.902" x="18.95" y="11.599" color-interpolation-filters="sRGB" filterUnits="userSpaceOnUse"><feFlood flood-opacity="0" result="BackgroundImageFix"/><feBlend in="SourceGraphic" in2="BackgroundImageFix" result="shape"/><feGaussianBlur result="effect1_foregroundBlur_4002_3786" stdDeviation=".125"/></filter><filter id="filter16_f_4002_3786" width="2.839" height="1.268" x="8.307" y="8.943" color-interpolation-filters="sRGB" filterUnits="userSpaceOnUse"><feFlood flood-opacity="0" result="BackgroundImageFix"/><feBlend in="SourceGraphic" in2="BackgroundImageFix" result="shape"/><feGaussianBlur result="effect1_foregroundBlur_4002_3786" stdDeviation=".125"/></filter><filter id="filter17_f_4002_3786" width="2.839" height="1.268" x="14.969" y="8.884" color-interpolation-filters="sRGB" filterUnits="userSpaceOnUse"><feFlood flood-opacity="0" result="BackgroundImageFix"/><feBlend in="SourceGraphic" in2="BackgroundImageFix" result="shape"/><feGaussianBlur result="effect1_foregroundBlur_4002_3786" stdDeviation=".125"/></filter></defs></svg>