<svg xmlns="http://www.w3.org/2000/svg" width="32" height="32" fill="none" viewBox="0 0 32 32"><path fill="url(#paint0_radial_4002_1812)" d="M21.92 5.93h-12l.18-.36a6.549 6.549 0 0 1 11.65.03l.17.33Z"/><path fill="url(#paint1_radial_4002_1812)" d="m10.1 5.57-.18.36h12l-.17-.33c-.3-.59-.68-1.11-1.12-1.57h-9.42c-.43.45-.81.97-1.11 1.54Z"/><path fill="url(#paint2_linear_4002_1812)" d="m10.1 5.57-.18.36h12l-.17-.33c-.3-.59-.68-1.11-1.12-1.57h-9.42c-.43.45-.81.97-1.11 1.54Z"/><g filter="url(#filter0_ii_4002_1812)"><path fill="url(#paint3_linear_4002_1812)" d="M11.564 4.83c-.85.03-2.678.228-4.102 1.335-1.238.963-1.477 2.117-1.477 3.086v.477c-.093 1.78 1.446 4.93 6.883 4.93h6.264c5.437 0 6.976-3.15 6.883-4.93V9.25c0-.969-.24-2.123-1.477-3.086-1.423-1.107-3.252-1.305-4.101-1.336h-8.873Z"/><path fill="url(#paint4_radial_4002_1812)" d="M11.564 4.83c-.85.03-2.678.228-4.102 1.335-1.238.963-1.477 2.117-1.477 3.086v.477c-.093 1.78 1.446 4.93 6.883 4.93h6.264c5.437 0 6.976-3.15 6.883-4.93V9.25c0-.969-.24-2.123-1.477-3.086-1.423-1.107-3.252-1.305-4.101-1.336h-8.873Z"/></g><path fill="#45BB85" d="M15.93 15.52c-6.07 0-10.99 4.91-10.99 10.98V30h21.98v-3.5c0-6.07-4.92-10.98-10.99-10.98Z"/><path fill="url(#paint5_radial_4002_1812)" d="M15.93 15.52c-6.07 0-10.99 4.91-10.99 10.98V30h21.98v-3.5c0-6.07-4.92-10.98-10.99-10.98Z"/><path fill="url(#paint6_linear_4002_1812)" d="M8.94 30V18.03h-.006A10.951 10.951 0 0 0 4.94 26.5V30h4Z"/><path fill="url(#paint7_radial_4002_1812)" d="M8.94 30V18.03h-.006A10.951 10.951 0 0 0 4.94 26.5V30h4Z"/><path fill="url(#paint8_linear_4002_1812)" d="M22.96 30V18.03h.006a10.951 10.951 0 0 1 3.994 8.47V30h-4Z"/><path fill="url(#paint9_radial_4002_1812)" d="M22.96 30V18.03h.006a10.951 10.951 0 0 1 3.994 8.47V30h-4Z"/><g filter="url(#filter1_i_4002_1812)"><path fill="url(#paint10_radial_4002_1812)" d="M12.964 21.493 16 19.37l2.987 2.084c.421.324 1.013.465 1.013-.354v-4.81c-1.24-.48-2.59-.77-4-.77-1.41 0-2.76.24-4 .72v4.69c0 .954.594.823.964.563Z"/><path fill="url(#paint11_linear_4002_1812)" d="M12.964 21.493 16 19.37l2.987 2.084c.421.324 1.013.465 1.013-.354v-4.81c-1.24-.48-2.59-.77-4-.77-1.41 0-2.76.24-4 .72v4.69c0 .954.594.823.964.563Z"/><path fill="url(#paint12_radial_4002_1812)" d="M12.964 21.493 16 19.37l2.987 2.084c.421.324 1.013.465 1.013-.354v-4.81c-1.24-.48-2.59-.77-4-.77-1.41 0-2.76.24-4 .72v4.69c0 .954.594.823.964.563Z"/></g><path fill="url(#paint13_linear_4002_1812)" d="M12.964 21.493 16 19.37l2.987 2.084c.421.324 1.013.465 1.013-.354v-4.81c-1.24-.48-2.59-.77-4-.77-1.41 0-2.76.24-4 .72v4.69c0 .954.594.823.964.563Z"/><path fill="url(#paint14_radial_4002_1812)" d="M12.964 21.493 16 19.37l2.987 2.084c.421.324 1.013.465 1.013-.354v-4.81c-1.24-.48-2.59-.77-4-.77-1.41 0-2.76.24-4 .72v4.69c0 .954.594.823.964.563Z"/><path fill="url(#paint15_radial_4002_1812)" d="m16.85 19.71-.65.58c-.16.14-.39.14-.55 0l-.65-.58a3.449 3.449 0 0 1-1.14-2.55v-3.09c0-1.14.92-2.06 2.06-2.06 1.14 0 2.06.92 2.06 2.06v3.09c0 .97-.41 1.9-1.13 2.55Z"/><path fill="url(#paint16_radial_4002_1812)" d="M15.93 18.69c-1.14 0-2.06-.92-2.06-2.06v-2.56c0-1.14.92-2.06 2.06-2.06 1.14 0 2.06.92 2.06 2.06v2.56a2.07 2.07 0 0 1-2.06 2.06Z"/><path fill="url(#paint17_radial_4002_1812)" d="M15.93 18.69c-1.14 0-2.06-.92-2.06-2.06v-2.56c0-1.14.92-2.06 2.06-2.06 1.14 0 2.06.92 2.06 2.06v2.56a2.07 2.07 0 0 1-2.06 2.06Z"/><g filter="url(#filter2_i_4002_1812)"><path fill="#C08675" d="M11.03 12.28a1.67 1.67 0 1 0 0-3.34 1.67 1.67 0 0 0 0 3.34Z"/><path fill="url(#paint18_radial_4002_1812)" d="M11.03 12.28a1.67 1.67 0 1 0 0-3.34 1.67 1.67 0 0 0 0 3.34Z"/></g><g filter="url(#filter3_f_4002_1812)"><path fill="url(#paint19_radial_4002_1812)" d="M11.03 11.73a1.12 1.12 0 1 0 0-2.24 1.12 1.12 0 0 0 0 2.24Z"/></g><path fill="url(#paint20_linear_4002_1812)" d="M20.82 12.28a1.67 1.67 0 1 0 0-3.34 1.67 1.67 0 0 0 0 3.34Z"/><path fill="url(#paint21_radial_4002_1812)" d="M20.82 12.28a1.67 1.67 0 1 0 0-3.34 1.67 1.67 0 0 0 0 3.34Z"/><g filter="url(#filter4_if_4002_1812)"><path fill="url(#paint22_radial_4002_1812)" d="M20.82 11.773a1.163 1.163 0 1 0 0-2.327 1.163 1.163 0 0 0 0 2.327Z"/></g><path fill="url(#paint23_radial_4002_1812)" d="M21.492 7.74c-.418-.64-1.996-.738-2.566-.738l1.726 3.18h.53c.177 0 .35-.076.433-.23.286-.529.438-1.467-.123-2.212Z"/><path fill="url(#paint24_radial_4002_1812)" d="M10.508 7.74c.418-.64 1.996-.738 2.566-.738l-1.726 3.18h-.53c-.177 0-.35-.076-.433-.23-.285-.529-.438-1.467.123-2.212Z"/><path fill="url(#paint25_linear_4002_1812)" d="M22.96 18.06c-.63-.53-1.33-.99-2.07-1.36v5.9c0 .23-.18.41-.41.41h-9.07c-.23 0-.41-.18-.41-.41v-5.92c-.74.37-1.43.82-2.06 1.35V30h14.02V18.06Z"/><path fill="url(#paint26_radial_4002_1812)" d="M22.96 18.06c-.63-.53-1.33-.99-2.07-1.36v5.9c0 .23-.18.41-.41.41h-9.07c-.23 0-.41-.18-.41-.41v-5.92c-.74.37-1.43.82-2.06 1.35V30h14.02V18.06Z"/><path fill="url(#paint27_linear_4002_1812)" d="M22.96 18.06c-.63-.53-1.33-.99-2.07-1.36v5.9c0 .23-.18.41-.41.41h-9.07c-.23 0-.41-.18-.41-.41v-5.92c-.74.37-1.43.82-2.06 1.35V30h14.02V18.06Z"/><path fill="url(#paint28_linear_4002_1812)" d="M22.96 18.06c-.63-.53-1.33-.99-2.07-1.36v5.9c0 .23-.18.41-.41.41h-9.07c-.23 0-.41-.18-.41-.41v-5.92c-.74.37-1.43.82-2.06 1.35V30h14.02V18.06Z"/><path fill="url(#paint29_radial_4002_1812)" d="M22.96 18.06c-.63-.53-1.33-.99-2.07-1.36v5.9c0 .23-.18.41-.41.41h-9.07c-.23 0-.41-.18-.41-.41v-5.92c-.74.37-1.43.82-2.06 1.35V30h14.02V18.06Z"/><g filter="url(#filter5_f_4002_1812)"><path fill="#3661C6" d="M19.42 25.83h-6.94a.49.49 0 0 0-.5.492v3.62h7.95v-3.62a.513.513 0 0 0-.51-.492Z"/></g><g filter="url(#filter6_i_4002_1812)"><path fill="url(#paint30_linear_4002_1812)" d="M19.42 25.83h-6.94c-.28 0-.5.22-.5.5v3.68h7.95v-3.68a.517.517 0 0 0-.51-.5Z"/></g><g filter="url(#filter7_i_4002_1812)"><path fill="url(#paint31_radial_4002_1812)" d="M19.082 7.002h-6.168c-1.127 0-2.086 1.008-1.987 2.125l.184 4.942c.168 1.71 1.532 2.937 3.193 2.937h3.394c1.661 0 3.026-1.226 3.194-2.937l.187-5.04c.04-1.078-.91-2.027-1.997-2.027Z"/></g><path fill="url(#paint32_radial_4002_1812)" d="M19.082 7.002h-6.168c-1.127 0-2.086 1.008-1.987 2.125l.184 4.942c.168 1.71 1.532 2.937 3.193 2.937h3.394c1.661 0 3.026-1.226 3.194-2.937l.187-5.04c.04-1.078-.91-2.027-1.997-2.027Z"/><path fill="url(#paint33_radial_4002_1812)" d="M19.082 7.002h-6.168c-1.127 0-2.086 1.008-1.987 2.125l.184 4.942c.168 1.71 1.532 2.937 3.193 2.937h3.394c1.661 0 3.026-1.226 3.194-2.937l.187-5.04c.04-1.078-.91-2.027-1.997-2.027Z"/><path fill="url(#paint34_radial_4002_1812)" d="M19.082 7.002h-6.168c-1.127 0-2.086 1.008-1.987 2.125l.184 4.942c.168 1.71 1.532 2.937 3.193 2.937h3.394c1.661 0 3.026-1.226 3.194-2.937l.187-5.04c.04-1.078-.91-2.027-1.997-2.027Z"/><path fill="url(#paint35_radial_4002_1812)" d="M19.082 7.002h-6.168c-1.127 0-2.086 1.008-1.987 2.125l.184 4.942c.168 1.71 1.532 2.937 3.193 2.937h3.394c1.661 0 3.026-1.226 3.194-2.937l.187-5.04c.04-1.078-.91-2.027-1.997-2.027Z"/><path fill="url(#paint36_radial_4002_1812)" d="M19.082 7.002h-6.168c-1.127 0-2.086 1.008-1.987 2.125l.184 4.942c.168 1.71 1.532 2.937 3.193 2.937h3.394c1.661 0 3.026-1.226 3.194-2.937l.187-5.04c.04-1.078-.91-2.027-1.997-2.027Z"/><g filter="url(#filter8_f_4002_1812)"><path fill="#C48377" d="m15.427 10.555-.53 1.71c-.11.35.15.7.52.7h.78c.37 0 .63-.35.52-.7l-.52-1.71a.403.403 0 0 0-.77 0Z"/></g><g filter="url(#filter9_f_4002_1812)"><path fill="url(#paint37_linear_4002_1812)" d="m15.62 10.33-.53 1.71c-.11.35.15.7.52.7h.78c.37 0 .63-.35.52-.7l-.52-1.71a.403.403 0 0 0-.77 0Z"/><path fill="url(#paint38_linear_4002_1812)" d="m15.62 10.33-.53 1.71c-.11.35.15.7.52.7h.78c.37 0 .63-.35.52-.7l-.52-1.71a.403.403 0 0 0-.77 0Z"/><path fill="url(#paint39_linear_4002_1812)" d="m15.62 10.33-.53 1.71c-.11.35.15.7.52.7h.78c.37 0 .63-.35.52-.7l-.52-1.71a.403.403 0 0 0-.77 0Z"/><path fill="url(#paint40_linear_4002_1812)" d="m15.62 10.33-.53 1.71c-.11.35.15.7.52.7h.78c.37 0 .63-.35.52-.7l-.52-1.71a.403.403 0 0 0-.77 0Z"/></g><g filter="url(#filter10_f_4002_1812)"><path stroke="url(#paint41_linear_4002_1812)" stroke-width=".1" d="M14.484 13.306c-.199-.106-.392.12-.276.3v.001a2.069 2.069 0 0 0 1.732.943 2.07 2.07 0 0 0 1.732-.943.203.203 0 0 0-.024-.255.212.212 0 0 0-.25-.047h-.002a3.095 3.095 0 0 1-1.456.355 3.094 3.094 0 0 1-1.456-.354Z"/></g><path fill="#89004F" d="M15.94 13.71c-.54 0-1.05-.13-1.48-.36-.15-.08-.3.09-.21.23.36.55.98.92 1.69.92s1.33-.37 1.69-.92c.09-.14-.07-.3-.21-.23-.43.23-.94.36-1.48.36Z"/><path fill="url(#paint42_radial_4002_1812)" d="M26.772 23.14c.55 0 1 .45 1 1v2.29h-2v-2.29c0-.55.44-1 1-1Z"/><path fill="url(#paint43_radial_4002_1812)" d="M26.772 23.14c.55 0 1 .45 1 1v2.29h-2v-2.29c0-.55.44-1 1-1Z"/><path fill="url(#paint44_linear_4002_1812)" d="M26.113 21.79h-1v3h1v-3Z"/><path fill="url(#paint45_radial_4002_1812)" d="M26.113 21.79h-1v3h1v-3Z"/><path fill="url(#paint46_radial_4002_1812)" d="M24.877 20.009H26.4v1.734a.25.25 0 0 1-.25.25h-1.023a.25.25 0 0 1-.25-.25V20.01Z"/><path fill="url(#paint47_radial_4002_1812)" d="M24.877 20.009H26.4v1.734a.25.25 0 0 1-.25.25h-1.023a.25.25 0 0 1-.25-.25V20.01Z"/><path fill="url(#paint48_linear_4002_1812)" d="M24.877 20.009H26.4v1.734a.25.25 0 0 1-.25.25h-1.023a.25.25 0 0 1-.25-.25V20.01Z"/><g filter="url(#filter11_iii_4002_1812)"><path fill="#C4B9CC" d="M22.755 11.063a.602.602 0 0 0-.602.602v6.852a1.5 1.5 0 0 0 1.5 1.5h4.125a1.5 1.5 0 0 0 1.5-1.5v-6.852a.601.601 0 1 0-1.203 0v4.45a.879.879 0 0 1-1.758 0v-4.45a.602.602 0 0 0-1.203 0v4.45a.879.879 0 0 1-1.757 0v-4.45a.602.602 0 0 0-.602-.601Z"/></g><path fill="#fff" d="M18.426 9.23c.663 0 1.222.457 1.375 1.074a.278.278 0 0 1-.272.346h-2.264a.234.234 0 0 1-.23-.276c.127-.65.7-1.144 1.391-1.144Z"/><path fill="url(#paint49_radial_4002_1812)" d="M18.216 9.506a.905.905 0 0 1 .872 1.144H17.34a.909.909 0 0 1 .877-1.144Z"/><path fill="#000" d="M17.697 10.41c0-.287.23-.518.519-.518a.516.516 0 0 1 .46.758h-.917a.468.468 0 0 1-.062-.24Z"/><g filter="url(#filter12_f_4002_1812)"><path fill="#C7A7A3" d="M18.15 9.697c.064.086-.071.191-.224.306-.154.115-.267.195-.332.109-.064-.086.008-.25.16-.364.154-.114.33-.137.395-.051Z"/><path fill="url(#paint50_radial_4002_1812)" d="M18.15 9.697c.064.086-.071.191-.224.306-.154.115-.267.195-.332.109-.064-.086.008-.25.16-.364.154-.114.33-.137.395-.051Z"/></g><g filter="url(#filter13_f_4002_1812)"><path fill="url(#paint51_linear_4002_1812)" d="M19.022 10.292a.852.852 0 0 0-.234-.47l-.264.29.119.231.38-.051Z"/></g><path fill="#fff" d="M13.574 9.23c-.662 0-1.222.457-1.375 1.074a.278.278 0 0 0 .272.346h2.264c.144 0 .26-.132.23-.276a1.422 1.422 0 0 0-1.39-1.144Z"/><path fill="url(#paint52_radial_4002_1812)" d="M13.784 9.505a.906.906 0 0 0-.873 1.145h1.75a.931.931 0 0 0 .033-.24.912.912 0 0 0-.91-.905Z"/><path fill="#000" d="M14.303 10.41a.516.516 0 0 0-.519-.518.516.516 0 0 0-.461.758h.918a.515.515 0 0 0 .062-.24Z"/><g filter="url(#filter14_f_4002_1812)"><path fill="url(#paint53_linear_4002_1812)" d="M14.611 10.305c0-.293-.238-.488-.302-.547l-.292.283.18.367.414-.103Z"/></g><g filter="url(#filter15_f_4002_1812)" transform="rotate(-27.914 13.51 9.892)"><ellipse cx="13.511" cy="9.892" fill="#C7A7A3" fill-opacity=".9" rx=".395" ry=".2"/><ellipse cx="13.511" cy="9.892" fill="url(#paint54_radial_4002_1812)" rx=".395" ry=".2"/></g><g filter="url(#filter16_i_4002_1812)"><path fill="url(#paint55_linear_4002_1812)" d="M23.454 25.325c0-.4.326-.732.727-.732h2.391a1.2 1.2 0 0 1 1.2 1.2V29a1 1 0 0 1-1 1h-2.591a.731.731 0 0 1-.32-1.39.735.735 0 0 1 0-1.313.735.735 0 0 1 0-1.315.735.735 0 0 1-.407-.657Z"/><path fill="url(#paint56_radial_4002_1812)" d="M23.454 25.325c0-.4.326-.732.727-.732h2.391a1.2 1.2 0 0 1 1.2 1.2V29a1 1 0 0 1-1 1h-2.591a.731.731 0 0 1-.32-1.39.735.735 0 0 1 0-1.313.735.735 0 0 1 0-1.315.735.735 0 0 1-.407-.657Z"/><path fill="url(#paint57_radial_4002_1812)" d="M23.454 25.325c0-.4.326-.732.727-.732h2.391a1.2 1.2 0 0 1 1.2 1.2V29a1 1 0 0 1-1 1h-2.591a.731.731 0 0 1-.32-1.39.735.735 0 0 1 0-1.313.735.735 0 0 1 0-1.315.735.735 0 0 1-.407-.657Z"/><path fill="url(#paint58_radial_4002_1812)" d="M23.454 25.325c0-.4.326-.732.727-.732h2.391a1.2 1.2 0 0 1 1.2 1.2V29a1 1 0 0 1-1 1h-2.591a.731.731 0 0 1-.32-1.39.735.735 0 0 1 0-1.313.735.735 0 0 1 0-1.315.735.735 0 0 1-.407-.657Z"/><path fill="url(#paint59_radial_4002_1812)" d="M23.454 25.325c0-.4.326-.732.727-.732h2.391a1.2 1.2 0 0 1 1.2 1.2V29a1 1 0 0 1-1 1h-2.591a.731.731 0 0 1-.32-1.39.735.735 0 0 1 0-1.313.735.735 0 0 1 0-1.315.735.735 0 0 1-.407-.657Z"/></g><g filter="url(#filter17_f_4002_1812)"><path stroke="url(#paint60_linear_4002_1812)" stroke-linecap="round" stroke-width=".1" d="M23.975 25.977h1.796"/></g><g filter="url(#filter18_f_4002_1812)"><path stroke="url(#paint61_linear_4002_1812)" stroke-linecap="round" stroke-width=".1" d="M23.896 27.282h1.797"/></g><g filter="url(#filter19_f_4002_1812)"><path stroke="url(#paint62_linear_4002_1812)" stroke-linecap="round" stroke-width=".1" d="M23.975 28.587h1.796"/></g><g filter="url(#filter20_i_4002_1812)"><path fill="#875425" fill-rule="evenodd" d="M12.85 8.688a.425.425 0 0 1-.587-.615l.296.306a38.378 38.378 0 0 1-.296-.306h.001l.002-.002.004-.004.01-.01a1.257 1.257 0 0 1 .144-.113 2.33 2.33 0 0 1 .403-.228 2.852 2.852 0 0 1 1.505-.207.425.425 0 0 1-.1.844 2.003 2.003 0 0 0-1.06.14 1.48 1.48 0 0 0-.312.187l-.01.008Z" clip-rule="evenodd"/></g><g filter="url(#filter21_i_4002_1812)"><path fill="#875425" fill-rule="evenodd" d="M19.15 8.688a.425.425 0 0 0 .587-.615c-.493.51 0 0 0 0h-.001l-.002-.002-.004-.004-.01-.01a1.257 1.257 0 0 0-.144-.113 2.33 2.33 0 0 0-.403-.228 2.852 2.852 0 0 0-1.505-.207.425.425 0 0 0 .1.844c.477-.057.831.039 1.06.14a1.48 1.48 0 0 1 .312.187l.01.008Z" clip-rule="evenodd"/></g><g filter="url(#filter22_f_4002_1812)"><path stroke="#98643D" stroke-linecap="round" stroke-linejoin="round" stroke-miterlimit="10" stroke-width=".1" d="M19.483 8.262s-.6-.581-1.723-.448"/></g><g filter="url(#filter23_f_4002_1812)"><path stroke="#98643D" stroke-linecap="round" stroke-linejoin="round" stroke-miterlimit="10" stroke-width=".1" d="M12.5 8.262s.6-.581 1.723-.448"/></g><defs><radialGradient id="paint0_radial_4002_1812" cx="0" cy="0" r="1" gradientTransform="matrix(-4.28126 -2.7131 2.52682 -3.98732 19.818 3.98)" gradientUnits="userSpaceOnUse"><stop stop-color="#7F5F58"/><stop offset="1" stop-color="#644841"/></radialGradient><radialGradient id="paint1_radial_4002_1812" cx="0" cy="0" r="1" gradientTransform="matrix(0 -2.15625 8.40625 0 19.693 5.142)" gradientUnits="userSpaceOnUse"><stop stop-color="#6E5980"/><stop offset="1" stop-color="#4F3B60"/></radialGradient><radialGradient id="paint4_radial_4002_1812" cx="0" cy="0" r="1" gradientTransform="rotate(-115.388 9.617 3.926) scale(4.08169 6.42739)" gradientUnits="userSpaceOnUse"><stop stop-color="#6E4F4B"/><stop offset="1" stop-color="#6E4F4B" stop-opacity="0"/></radialGradient><radialGradient id="paint5_radial_4002_1812" cx="0" cy="0" r="1" gradientTransform="matrix(0 7.16424 -8.99366 0 15.93 16.305)" gradientUnits="userSpaceOnUse"><stop offset=".53" stop-color="#399967"/><stop offset="1" stop-color="#399967" stop-opacity="0"/></radialGradient><radialGradient id="paint7_radial_4002_1812" cx="0" cy="0" r="1" gradientTransform="matrix(2.6875 .4375 -2.13811 13.1341 3.787 25.267)" gradientUnits="userSpaceOnUse"><stop stop-color="#63C890"/><stop offset="1" stop-color="#63C890" stop-opacity="0"/></radialGradient><radialGradient id="paint9_radial_4002_1812" cx="0" cy="0" r="1" gradientTransform="matrix(.79488 -.01787 .1758 7.81887 22.96 24.73)" gradientUnits="userSpaceOnUse"><stop offset=".249" stop-color="#28A96B"/><stop offset="1" stop-color="#28A96B" stop-opacity="0"/></radialGradient><radialGradient id="paint10_radial_4002_1812" cx="0" cy="0" r="1" gradientTransform="matrix(0 5.49005 -3.73669 0 16 16.173)" gradientUnits="userSpaceOnUse"><stop offset=".232" stop-color="#387C46"/><stop offset="1" stop-color="#3D8F6C"/></radialGradient><radialGradient id="paint12_radial_4002_1812" cx="0" cy="0" r="1" gradientTransform="matrix(-2.27543 1.55452 -.96733 -1.41593 15.145 19.571)" gradientUnits="userSpaceOnUse"><stop stop-color="#519473"/><stop offset="1" stop-color="#519473" stop-opacity="0"/></radialGradient><radialGradient id="paint14_radial_4002_1812" cx="0" cy="0" r="1" gradientTransform="matrix(0 3.28924 -4.48731 0 15.393 15.989)" gradientUnits="userSpaceOnUse"><stop offset=".344" stop-color="#2A5923"/><stop offset=".987" stop-color="#2A5923" stop-opacity="0"/></radialGradient><radialGradient id="paint15_radial_4002_1812" cx="0" cy="0" r="1" gradientTransform="matrix(0 -4.58005 5.35185 0 15.92 19.671)" gradientUnits="userSpaceOnUse"><stop offset=".027" stop-color="#E9CEE6"/><stop offset=".737" stop-color="#9C8F92"/></radialGradient><radialGradient id="paint16_radial_4002_1812" cx="0" cy="0" r="1" gradientTransform="matrix(0 1.87968 -1.90863 0 15.93 16.81)" gradientUnits="userSpaceOnUse"><stop offset=".298" stop-color="#AA7876"/><stop offset="1" stop-color="#B48574"/></radialGradient><radialGradient id="paint17_radial_4002_1812" cx="0" cy="0" r="1" gradientTransform="matrix(0 4.77385 -2.8552 0 15.93 14.864)" gradientUnits="userSpaceOnUse"><stop offset=".637" stop-color="#805333" stop-opacity="0"/><stop offset="1" stop-color="#805333"/></radialGradient><radialGradient id="paint18_radial_4002_1812" cx="0" cy="0" r="1" gradientTransform="matrix(-.99999 -1.375 1.3434 -.977 11.38 12.123)" gradientUnits="userSpaceOnUse"><stop stop-color="#BF8271"/><stop offset="1" stop-color="#BF8271" stop-opacity="0"/></radialGradient><radialGradient id="paint19_radial_4002_1812" cx="0" cy="0" r="1" gradientTransform="matrix(-1.46687 0 0 -2.17002 11.25 10.797)" gradientUnits="userSpaceOnUse"><stop offset=".149" stop-color="#B67862"/><stop offset="1" stop-color="#BD826E"/></radialGradient><radialGradient id="paint21_radial_4002_1812" cx="0" cy="0" r="1" gradientTransform="rotate(-51.009 23.384 -16.112) scale(1.68866)" gradientUnits="userSpaceOnUse"><stop stop-color="#CC9981"/><stop offset="1" stop-color="#CC9981" stop-opacity="0"/></radialGradient><radialGradient id="paint22_radial_4002_1812" cx="0" cy="0" r="1" gradientTransform="rotate(91.606 5.34 15.514) scale(1.11515)" gradientUnits="userSpaceOnUse"><stop stop-color="#DBA889"/><stop offset=".912" stop-color="#D6A080"/></radialGradient><radialGradient id="paint23_radial_4002_1812" cx="0" cy="0" r="1" gradientTransform="matrix(1.03903 -.98438 2.30833 2.4365 20.398 8.47)" gradientUnits="userSpaceOnUse"><stop offset=".269" stop-color="#EDC48E"/><stop offset=".879" stop-color="#ECCDA5"/></radialGradient><radialGradient id="paint24_radial_4002_1812" cx="0" cy="0" r="1" gradientTransform="matrix(-1.1641 -.71876 .94072 -1.52358 11.602 8.798)" gradientUnits="userSpaceOnUse"><stop offset=".521" stop-color="#CFA180"/><stop offset=".957" stop-color="#E8BA93"/></radialGradient><radialGradient id="paint26_radial_4002_1812" cx="0" cy="0" r="1" gradientTransform="rotate(154.069 9.529 11.795) scale(3.78757 11.2112)" gradientUnits="userSpaceOnUse"><stop stop-color="#47B2F6"/><stop offset="1" stop-color="#47B2F6" stop-opacity="0"/></radialGradient><radialGradient id="paint29_radial_4002_1812" cx="0" cy="0" r="1" gradientTransform="matrix(2.5033 -1.90625 3.00378 3.94458 8.94 18.829)" gradientUnits="userSpaceOnUse"><stop stop-color="#3DA0DB"/><stop offset="1" stop-color="#3AA1E0" stop-opacity="0"/></radialGradient><radialGradient id="paint31_radial_4002_1812" cx="0" cy="0" r="1" gradientTransform="matrix(-5.9544 1.19435 -2.01845 -10.06296 19.451 10.4)" gradientUnits="userSpaceOnUse"><stop offset=".248" stop-color="#F9C29A"/><stop offset="1" stop-color="#CA947D"/></radialGradient><radialGradient id="paint32_radial_4002_1812" cx="0" cy="0" r="1" gradientTransform="matrix(0 -1.13592 1.13266 0 14.095 9.673)" gradientUnits="userSpaceOnUse"><stop offset=".179" stop-color="#C4887C"/><stop offset="1" stop-color="#C4887C" stop-opacity="0"/></radialGradient><radialGradient id="paint33_radial_4002_1812" cx="0" cy="0" r="1" gradientTransform="matrix(0 -1.04388 1.15848 0 18.427 9.477)" gradientUnits="userSpaceOnUse"><stop offset=".313" stop-color="#E1A58A"/><stop offset="1" stop-color="#E1A58A" stop-opacity="0"/></radialGradient><radialGradient id="paint34_radial_4002_1812" cx="0" cy="0" r="1" gradientTransform="matrix(0 9.30493 -11.6557 0 16 8.478)" gradientUnits="userSpaceOnUse"><stop offset=".625" stop-color="#BD8384" stop-opacity="0"/><stop offset=".972" stop-color="#A07575"/></radialGradient><radialGradient id="paint35_radial_4002_1812" cx="0" cy="0" r="1" gradientTransform="matrix(0 -1.35663 5.77264 0 15.813 17.571)" gradientUnits="userSpaceOnUse"><stop stop-color="#A27678"/><stop offset="1" stop-color="#A27678" stop-opacity="0"/></radialGradient><radialGradient id="paint36_radial_4002_1812" cx="0" cy="0" r="1" gradientTransform="rotate(137.827 8.073 6.851) scale(3.58407 2.1419)" gradientUnits="userSpaceOnUse"><stop offset=".121" stop-color="#D9AB96"/><stop offset="1" stop-color="#D9AB96" stop-opacity="0"/></radialGradient><radialGradient id="paint42_radial_4002_1812" cx="0" cy="0" r="1" gradientTransform="matrix(-1.99943 1.36453 -1.33986 -1.96328 28.12 23.788)" gradientUnits="userSpaceOnUse"><stop offset=".464" stop-color="#DEAF8E"/><stop offset="1" stop-color="#B27959"/></radialGradient><radialGradient id="paint43_radial_4002_1812" cx="0" cy="0" r="1" gradientTransform="matrix(.78818 -.60013 .4599 .60401 27.529 23.637)" gradientUnits="userSpaceOnUse"><stop offset=".132" stop-color="#E6BEA1"/><stop offset="1" stop-color="#E6BEA1" stop-opacity="0"/></radialGradient><radialGradient id="paint45_radial_4002_1812" cx="0" cy="0" r="1" gradientTransform="matrix(0 -2.85126 .74829 0 26.113 24.79)" gradientUnits="userSpaceOnUse"><stop stop-color="#88625F"/><stop offset="1" stop-color="#88625F" stop-opacity="0"/></radialGradient><radialGradient id="paint46_radial_4002_1812" cx="0" cy="0" r="1" gradientTransform="matrix(0 -1.82813 1.14062 0 26.137 21.61)" gradientUnits="userSpaceOnUse"><stop stop-color="#C7C1CC"/><stop offset="1" stop-color="#A099A8"/></radialGradient><radialGradient id="paint47_radial_4002_1812" cx="0" cy="0" r="1" gradientTransform="matrix(0 -2.14844 2.01125 0 25.638 21.993)" gradientUnits="userSpaceOnUse"><stop offset=".76" stop-color="#85808C" stop-opacity="0"/><stop offset="1" stop-color="#85808C"/></radialGradient><radialGradient id="paint49_radial_4002_1812" cx="0" cy="0" r="1" gradientTransform="matrix(0 .82316 -1.30932 0 18.214 9.99)" gradientUnits="userSpaceOnUse"><stop offset=".802" stop-color="#7D574A"/><stop offset="1" stop-color="#694B43"/><stop offset="1" stop-color="#804D49"/><stop offset="1" stop-color="#664842"/></radialGradient><radialGradient id="paint50_radial_4002_1812" cx="0" cy="0" r="1" gradientTransform="matrix(-.2353 -.30322 .41746 -.32395 17.982 10.075)" gradientUnits="userSpaceOnUse"><stop offset=".766" stop-color="#FFE6E2" stop-opacity="0"/><stop offset=".966" stop-color="#FFE6E2"/></radialGradient><radialGradient id="paint52_radial_4002_1812" cx="0" cy="0" r="1" gradientTransform="matrix(0 .8232 -1.30939 0 13.786 9.99)" gradientUnits="userSpaceOnUse"><stop offset=".802" stop-color="#7D574A"/><stop offset="1" stop-color="#694B43"/><stop offset="1" stop-color="#804D49"/><stop offset="1" stop-color="#664842"/></radialGradient><radialGradient id="paint54_radial_4002_1812" cx="0" cy="0" r="1" gradientTransform="matrix(-.00785 -.5013 .60257 -.00943 13.495 10.212)" gradientUnits="userSpaceOnUse"><stop offset=".766" stop-color="#FFE6E2" stop-opacity="0"/><stop offset=".966" stop-color="#FFE6E2"/></radialGradient><radialGradient id="paint56_radial_4002_1812" cx="0" cy="0" r="1" gradientTransform="matrix(0 .8017 -1.35439 0 25.892 25.304)" gradientUnits="userSpaceOnUse"><stop offset=".106" stop-color="#F8C8AD"/><stop offset="1" stop-color="#F2C49E" stop-opacity="0"/></radialGradient><radialGradient id="paint57_radial_4002_1812" cx="0" cy="0" r="1" gradientTransform="matrix(0 .85938 -1.45182 0 25.892 26.599)" gradientUnits="userSpaceOnUse"><stop offset=".109" stop-color="#F8C8AD"/><stop offset="1" stop-color="#F2C49E" stop-opacity="0"/></radialGradient><radialGradient id="paint58_radial_4002_1812" cx="0" cy="0" r="1" gradientTransform="matrix(0 .71875 -1.21425 0 25.892 27.849)" gradientUnits="userSpaceOnUse"><stop offset=".109" stop-color="#F8C8AD"/><stop offset="1" stop-color="#F2C49E" stop-opacity="0"/></radialGradient><radialGradient id="paint59_radial_4002_1812" cx="0" cy="0" r="1" gradientTransform="matrix(0 .79938 -1.7273 0 25.892 29.2)" gradientUnits="userSpaceOnUse"><stop offset=".186" stop-color="#F8C8AD"/><stop offset="1" stop-color="#F2C49E" stop-opacity="0"/></radialGradient><linearGradient id="paint2_linear_4002_1812" x1="15.92" x2="15.92" y1="4.03" y2="4.083" gradientUnits="userSpaceOnUse"><stop stop-color="#4E2D3A"/><stop offset="1" stop-color="#4E2D3A" stop-opacity="0"/></linearGradient><linearGradient id="paint3_linear_4002_1812" x1="16" x2="16" y1="4.829" y2="14.86" gradientUnits="userSpaceOnUse"><stop stop-color="#6B3D41"/><stop offset="1" stop-color="#7C5653"/></linearGradient><linearGradient id="paint6_linear_4002_1812" x1="8.94" x2="5.35" y1="28.454" y2="28.454" gradientUnits="userSpaceOnUse"><stop stop-color="#399965"/><stop offset="1" stop-color="#5CC585"/></linearGradient><linearGradient id="paint8_linear_4002_1812" x1="26.503" x2="22.96" y1="22.884" y2="29.19" gradientUnits="userSpaceOnUse"><stop stop-color="#63D591"/><stop offset="1" stop-color="#368D6E"/></linearGradient><linearGradient id="paint11_linear_4002_1812" x1="20" x2="19.066" y1="18.517" y2="18.517" gradientUnits="userSpaceOnUse"><stop stop-color="#5AA37A"/><stop offset="1" stop-color="#5AA37A" stop-opacity="0"/></linearGradient><linearGradient id="paint13_linear_4002_1812" x1="12" x2="12.334" y1="18.517" y2="18.517" gradientUnits="userSpaceOnUse"><stop offset=".143" stop-color="#6A9E7E"/><stop offset="1" stop-color="#6A9E7E" stop-opacity="0"/></linearGradient><linearGradient id="paint20_linear_4002_1812" x1="21.926" x2="20.82" y1="9.779" y2="12.28" gradientUnits="userSpaceOnUse"><stop stop-color="#DCAF93"/><stop offset="1" stop-color="#D9A385"/></linearGradient><linearGradient id="paint25_linear_4002_1812" x1="17.162" x2="15.95" y1="29.142" y2="22.017" gradientUnits="userSpaceOnUse"><stop stop-color="#3560C5"/><stop offset="1" stop-color="#329FEA"/></linearGradient><linearGradient id="paint27_linear_4002_1812" x1="23.014" x2="22.787" y1="29.673" y2="29.673" gradientUnits="userSpaceOnUse"><stop stop-color="#356EBB"/><stop offset="1" stop-color="#356EBB" stop-opacity="0"/></linearGradient><linearGradient id="paint28_linear_4002_1812" x1="8.94" x2="9.064" y1="29.673" y2="29.673" gradientUnits="userSpaceOnUse"><stop stop-color="#356EBB"/><stop offset="1" stop-color="#356EBB" stop-opacity="0"/></linearGradient><linearGradient id="paint30_linear_4002_1812" x1="13.787" x2="20.318" y1="28.36" y2="28.36" gradientUnits="userSpaceOnUse"><stop stop-color="#3CA9FF"/><stop offset="1" stop-color="#389DFF"/></linearGradient><linearGradient id="paint37_linear_4002_1812" x1="16" x2="16.852" y1="11.763" y2="11.763" gradientUnits="userSpaceOnUse"><stop stop-color="#E1AA8C"/><stop offset="1" stop-color="#FECAA8"/></linearGradient><linearGradient id="paint38_linear_4002_1812" x1="14.931" x2="16.001" y1="11.618" y2="11.681" gradientUnits="userSpaceOnUse"><stop stop-color="#D29879" stop-opacity=".915"/><stop offset=".203" stop-color="#D29879"/><stop offset="1" stop-color="#D29879" stop-opacity="0"/></linearGradient><linearGradient id="paint39_linear_4002_1812" x1="16" x2="16" y1="12.133" y2="12.925" gradientUnits="userSpaceOnUse"><stop stop-color="#CB8685" stop-opacity="0"/><stop offset=".845" stop-color="#CB8685"/></linearGradient><linearGradient id="paint40_linear_4002_1812" x1="16" x2="16" y1="10.045" y2="10.434" gradientUnits="userSpaceOnUse"><stop stop-color="#E0A78C"/><stop offset="1" stop-color="#E0A78C" stop-opacity="0"/></linearGradient><linearGradient id="paint41_linear_4002_1812" x1="14.658" x2="15.011" y1="14.24" y2="13.334" gradientUnits="userSpaceOnUse"><stop stop-color="#CF9A8C"/><stop offset="1" stop-color="#CF9A8C" stop-opacity="0"/></linearGradient><linearGradient id="paint44_linear_4002_1812" x1="25.61" x2="25.61" y1="21.61" y2="24.79" gradientUnits="userSpaceOnUse"><stop stop-color="#784853"/><stop offset=".997" stop-color="#7D5248"/></linearGradient><linearGradient id="paint48_linear_4002_1812" x1="25.638" x2="25.638" y1="22.314" y2="21.72" gradientUnits="userSpaceOnUse"><stop stop-color="#89829D"/><stop offset="1" stop-color="#89829D" stop-opacity="0"/></linearGradient><linearGradient id="paint51_linear_4002_1812" x1="19.003" x2="18.685" y1="10.044" y2="10.24" gradientUnits="userSpaceOnUse"><stop stop-color="#B4948D"/><stop offset="1" stop-color="#B4948D" stop-opacity="0"/></linearGradient><linearGradient id="paint53_linear_4002_1812" x1="14.541" x2="14.223" y1="10.044" y2="10.24" gradientUnits="userSpaceOnUse"><stop stop-color="#B4948D"/><stop offset="1" stop-color="#B4948D" stop-opacity="0"/></linearGradient><linearGradient id="paint55_linear_4002_1812" x1="27.483" x2="23.454" y1="28.062" y2="28.062" gradientUnits="userSpaceOnUse"><stop offset=".146" stop-color="#F3C29F"/><stop offset=".861" stop-color="#C4907C"/></linearGradient><linearGradient id="paint60_linear_4002_1812" x1="23.975" x2="25.684" y1="26.056" y2="26.056" gradientUnits="userSpaceOnUse"><stop stop-color="#AE7759"/><stop offset="1" stop-color="#C08666" stop-opacity="0"/></linearGradient><linearGradient id="paint61_linear_4002_1812" x1="23.896" x2="25.606" y1="27.36" y2="27.36" gradientUnits="userSpaceOnUse"><stop stop-color="#AE7759"/><stop offset="1" stop-color="#C08666" stop-opacity="0"/></linearGradient><linearGradient id="paint62_linear_4002_1812" x1="23.975" x2="25.684" y1="28.665" y2="28.665" gradientUnits="userSpaceOnUse"><stop stop-color="#AE7759"/><stop offset="1" stop-color="#C08666" stop-opacity="0"/></linearGradient><filter id="filter0_ii_4002_1812" width="20.537" height="10.328" x="5.481" y="4.829" color-interpolation-filters="sRGB" filterUnits="userSpaceOnUse"><feFlood flood-opacity="0" result="BackgroundImageFix"/><feBlend in="SourceGraphic" in2="BackgroundImageFix" result="shape"/><feColorMatrix in="SourceAlpha" result="hardAlpha" values="0 0 0 0 0 0 0 0 0 0 0 0 0 0 0 0 0 0 127 0"/><feOffset dy=".5"/><feGaussianBlur stdDeviation=".25"/><feComposite in2="hardAlpha" k2="-1" k3="1" operator="arithmetic"/><feColorMatrix values="0 0 0 0 0.478431 0 0 0 0 0.384314 0 0 0 0 0.368627 0 0 0 1 0"/><feBlend in2="shape" result="effect1_innerShadow_4002_1812"/><feColorMatrix in="SourceAlpha" result="hardAlpha" values="0 0 0 0 0 0 0 0 0 0 0 0 0 0 0 0 0 0 127 0"/><feOffset dx="-.5" dy=".25"/><feGaussianBlur stdDeviation=".375"/><feComposite in2="hardAlpha" k2="-1" k3="1" operator="arithmetic"/><feColorMatrix values="0 0 0 0 0.388235 0 0 0 0 0.243137 0 0 0 0 0.25098 0 0 0 1 0"/><feBlend in2="effect1_innerShadow_4002_1812" result="effect2_innerShadow_4002_1812"/></filter><filter id="filter1_i_4002_1812" width="8" height="6.44" x="12" y="15.27" color-interpolation-filters="sRGB" filterUnits="userSpaceOnUse"><feFlood flood-opacity="0" result="BackgroundImageFix"/><feBlend in="SourceGraphic" in2="BackgroundImageFix" result="shape"/><feColorMatrix in="SourceAlpha" result="hardAlpha" values="0 0 0 0 0 0 0 0 0 0 0 0 0 0 0 0 0 0 127 0"/><feOffset dy="-.25"/><feGaussianBlur stdDeviation=".175"/><feComposite in2="hardAlpha" k2="-1" k3="1" operator="arithmetic"/><feColorMatrix values="0 0 0 0 0.109804 0 0 0 0 0.47451 0 0 0 0 0.333333 0 0 0 1 0"/><feBlend in2="shape" result="effect1_innerShadow_4002_1812"/></filter><filter id="filter2_i_4002_1812" width="3.44" height="3.34" x="9.36" y="8.94" color-interpolation-filters="sRGB" filterUnits="userSpaceOnUse"><feFlood flood-opacity="0" result="BackgroundImageFix"/><feBlend in="SourceGraphic" in2="BackgroundImageFix" result="shape"/><feColorMatrix in="SourceAlpha" result="hardAlpha" values="0 0 0 0 0 0 0 0 0 0 0 0 0 0 0 0 0 0 127 0"/><feOffset dx=".1"/><feGaussianBlur stdDeviation=".125"/><feComposite in2="hardAlpha" k2="-1" k3="1" operator="arithmetic"/><feColorMatrix values="0 0 0 0 0.807843 0 0 0 0 0.592157 0 0 0 0 0.501961 0 0 0 1 0"/><feBlend in2="shape" result="effect1_innerShadow_4002_1812"/></filter><filter id="filter3_f_4002_1812" width="2.64" height="2.64" x="9.71" y="9.29" color-interpolation-filters="sRGB" filterUnits="userSpaceOnUse"><feFlood flood-opacity="0" result="BackgroundImageFix"/><feBlend in="SourceGraphic" in2="BackgroundImageFix" result="shape"/><feGaussianBlur result="effect1_foregroundBlur_4002_1812" stdDeviation=".1"/></filter><filter id="filter4_if_4002_1812" width="2.827" height="2.827" x="19.407" y="9.196" color-interpolation-filters="sRGB" filterUnits="userSpaceOnUse"><feFlood flood-opacity="0" result="BackgroundImageFix"/><feBlend in="SourceGraphic" in2="BackgroundImageFix" result="shape"/><feColorMatrix in="SourceAlpha" result="hardAlpha" values="0 0 0 0 0 0 0 0 0 0 0 0 0 0 0 0 0 0 127 0"/><feOffset dx="-.1"/><feComposite in2="hardAlpha" k2="-1" k3="1" operator="arithmetic"/><feColorMatrix values="0 0 0 0 0.796078 0 0 0 0 0.576471 0 0 0 0 0.435294 0 0 0 1 0"/><feBlend in2="shape" result="effect1_innerShadow_4002_1812"/><feGaussianBlur result="effect2_foregroundBlur_4002_1812" stdDeviation=".125"/></filter><filter id="filter5_f_4002_1812" width="8.45" height="4.612" x="11.73" y="25.58" color-interpolation-filters="sRGB" filterUnits="userSpaceOnUse"><feFlood flood-opacity="0" result="BackgroundImageFix"/><feBlend in="SourceGraphic" in2="BackgroundImageFix" result="shape"/><feGaussianBlur result="effect1_foregroundBlur_4002_1812" stdDeviation=".125"/></filter><filter id="filter6_i_4002_1812" width="8.05" height="4.28" x="11.88" y="25.83" color-interpolation-filters="sRGB" filterUnits="userSpaceOnUse"><feFlood flood-opacity="0" result="BackgroundImageFix"/><feBlend in="SourceGraphic" in2="BackgroundImageFix" result="shape"/><feColorMatrix in="SourceAlpha" result="hardAlpha" values="0 0 0 0 0 0 0 0 0 0 0 0 0 0 0 0 0 0 127 0"/><feOffset dx="-.1" dy=".1"/><feGaussianBlur stdDeviation=".1"/><feComposite in2="hardAlpha" k2="-1" k3="1" operator="arithmetic"/><feColorMatrix values="0 0 0 0 0.258824 0 0 0 0 0.67451 0 0 0 0 1 0 0 0 1 0"/><feBlend in2="shape" result="effect1_innerShadow_4002_1812"/></filter><filter id="filter7_i_4002_1812" width="10.66" height="10.004" x="10.92" y="7.002" color-interpolation-filters="sRGB" filterUnits="userSpaceOnUse"><feFlood flood-opacity="0" result="BackgroundImageFix"/><feBlend in="SourceGraphic" in2="BackgroundImageFix" result="shape"/><feColorMatrix in="SourceAlpha" result="hardAlpha" values="0 0 0 0 0 0 0 0 0 0 0 0 0 0 0 0 0 0 127 0"/><feOffset dx=".5"/><feGaussianBlur stdDeviation=".5"/><feComposite in2="hardAlpha" k2="-1" k3="1" operator="arithmetic"/><feColorMatrix values="0 0 0 0 0.85098 0 0 0 0 0.623529 0 0 0 0 0.517647 0 0 0 1 0"/><feBlend in2="shape" result="effect1_innerShadow_4002_1812"/></filter><filter id="filter8_f_4002_1812" width="3.871" height="4.695" x="13.872" y="9.27" color-interpolation-filters="sRGB" filterUnits="userSpaceOnUse"><feFlood flood-opacity="0" result="BackgroundImageFix"/><feBlend in="SourceGraphic" in2="BackgroundImageFix" result="shape"/><feGaussianBlur result="effect1_foregroundBlur_4002_1812" stdDeviation=".5"/></filter><filter id="filter9_f_4002_1812" width="2.071" height="2.895" x="14.965" y="9.945" color-interpolation-filters="sRGB" filterUnits="userSpaceOnUse"><feFlood flood-opacity="0" result="BackgroundImageFix"/><feBlend in="SourceGraphic" in2="BackgroundImageFix" result="shape"/><feGaussianBlur result="effect1_foregroundBlur_4002_1812" stdDeviation=".05"/></filter><filter id="filter10_f_4002_1812" width="3.833" height="1.572" x="14.023" y="13.128" color-interpolation-filters="sRGB" filterUnits="userSpaceOnUse"><feFlood flood-opacity="0" result="BackgroundImageFix"/><feBlend in="SourceGraphic" in2="BackgroundImageFix" result="shape"/><feGaussianBlur result="effect1_foregroundBlur_4002_1812" stdDeviation=".05"/></filter><filter id="filter11_iii_4002_1812" width="7.625" height="9.853" x="21.853" y="10.664" color-interpolation-filters="sRGB" filterUnits="userSpaceOnUse"><feFlood flood-opacity="0" result="BackgroundImageFix"/><feBlend in="SourceGraphic" in2="BackgroundImageFix" result="shape"/><feColorMatrix in="SourceAlpha" result="hardAlpha" values="0 0 0 0 0 0 0 0 0 0 0 0 0 0 0 0 0 0 127 0"/><feOffset dx=".2" dy="-.4"/><feGaussianBlur stdDeviation=".375"/><feComposite in2="hardAlpha" k2="-1" k3="1" operator="arithmetic"/><feColorMatrix values="0 0 0 0 0.529412 0 0 0 0 0.470588 0 0 0 0 0.588235 0 0 0 1 0"/><feBlend in2="shape" result="effect1_innerShadow_4002_1812"/><feColorMatrix in="SourceAlpha" result="hardAlpha" values="0 0 0 0 0 0 0 0 0 0 0 0 0 0 0 0 0 0 127 0"/><feOffset dx="-.3" dy=".5"/><feGaussianBlur stdDeviation=".25"/><feComposite in2="hardAlpha" k2="-1" k3="1" operator="arithmetic"/><feColorMatrix values="0 0 0 0 0.784314 0 0 0 0 0.776471 0 0 0 0 0.796078 0 0 0 1 0"/><feBlend in2="effect1_innerShadow_4002_1812" result="effect2_innerShadow_4002_1812"/><feColorMatrix in="SourceAlpha" result="hardAlpha" values="0 0 0 0 0 0 0 0 0 0 0 0 0 0 0 0 0 0 127 0"/><feOffset dy=".1"/><feGaussianBlur stdDeviation=".2"/><feComposite in2="hardAlpha" k2="-1" k3="1" operator="arithmetic"/><feColorMatrix values="0 0 0 0 0.517647 0 0 0 0 0.517647 0 0 0 0 0.545098 0 0 0 1 0"/><feBlend in2="effect2_innerShadow_4002_1812" result="effect3_innerShadow_4002_1812"/></filter><filter id="filter12_f_4002_1812" width=".795" height=".703" x="17.47" y="9.545" color-interpolation-filters="sRGB" filterUnits="userSpaceOnUse"><feFlood flood-opacity="0" result="BackgroundImageFix"/><feBlend in="SourceGraphic" in2="BackgroundImageFix" result="shape"/><feGaussianBlur result="effect1_foregroundBlur_4002_1812" stdDeviation=".05"/></filter><filter id="filter13_f_4002_1812" width=".898" height=".921" x="18.324" y="9.622" color-interpolation-filters="sRGB" filterUnits="userSpaceOnUse"><feFlood flood-opacity="0" result="BackgroundImageFix"/><feBlend in="SourceGraphic" in2="BackgroundImageFix" result="shape"/><feGaussianBlur result="effect1_foregroundBlur_4002_1812" stdDeviation=".1"/></filter><filter id="filter14_f_4002_1812" width=".995" height="1.05" x="13.816" y="9.558" color-interpolation-filters="sRGB" filterUnits="userSpaceOnUse"><feFlood flood-opacity="0" result="BackgroundImageFix"/><feBlend in="SourceGraphic" in2="BackgroundImageFix" result="shape"/><feGaussianBlur result="effect1_foregroundBlur_4002_1812" stdDeviation=".1"/></filter><filter id="filter15_f_4002_1812" width=".923" height=".712" x="13.049" y="9.536" color-interpolation-filters="sRGB" filterUnits="userSpaceOnUse"><feFlood flood-opacity="0" result="BackgroundImageFix"/><feBlend in="SourceGraphic" in2="BackgroundImageFix" result="shape"/><feGaussianBlur result="effect1_foregroundBlur_4002_1812" stdDeviation=".05"/></filter><filter id="filter16_i_4002_1812" width="4.468" height="5.556" x="23.454" y="24.444" color-interpolation-filters="sRGB" filterUnits="userSpaceOnUse"><feFlood flood-opacity="0" result="BackgroundImageFix"/><feBlend in="SourceGraphic" in2="BackgroundImageFix" result="shape"/><feColorMatrix in="SourceAlpha" result="hardAlpha" values="0 0 0 0 0 0 0 0 0 0 0 0 0 0 0 0 0 0 127 0"/><feOffset dx=".15" dy="-.15"/><feGaussianBlur stdDeviation=".5"/><feComposite in2="hardAlpha" k2="-1" k3="1" operator="arithmetic"/><feColorMatrix values="0 0 0 0 0.658824 0 0 0 0 0.443137 0 0 0 0 0.411765 0 0 0 1 0"/><feBlend in2="shape" result="effect1_innerShadow_4002_1812"/></filter><filter id="filter17_f_4002_1812" width="2.097" height=".3" x="23.825" y="25.828" color-interpolation-filters="sRGB" filterUnits="userSpaceOnUse"><feFlood flood-opacity="0" result="BackgroundImageFix"/><feBlend in="SourceGraphic" in2="BackgroundImageFix" result="shape"/><feGaussianBlur result="effect1_foregroundBlur_4002_1812" stdDeviation=".05"/></filter><filter id="filter18_f_4002_1812" width="2.097" height=".3" x="23.747" y="27.132" color-interpolation-filters="sRGB" filterUnits="userSpaceOnUse"><feFlood flood-opacity="0" result="BackgroundImageFix"/><feBlend in="SourceGraphic" in2="BackgroundImageFix" result="shape"/><feGaussianBlur result="effect1_foregroundBlur_4002_1812" stdDeviation=".05"/></filter><filter id="filter19_f_4002_1812" width="2.097" height=".3" x="23.825" y="28.437" color-interpolation-filters="sRGB" filterUnits="userSpaceOnUse"><feFlood flood-opacity="0" result="BackgroundImageFix"/><feBlend in="SourceGraphic" in2="BackgroundImageFix" result="shape"/><feGaussianBlur result="effect1_foregroundBlur_4002_1812" stdDeviation=".05"/></filter><filter id="filter20_i_4002_1812" width="2.573" height="1.468" x="12.133" y="7.336" color-interpolation-filters="sRGB" filterUnits="userSpaceOnUse"><feFlood flood-opacity="0" result="BackgroundImageFix"/><feBlend in="SourceGraphic" in2="BackgroundImageFix" result="shape"/><feColorMatrix in="SourceAlpha" result="hardAlpha" values="0 0 0 0 0 0 0 0 0 0 0 0 0 0 0 0 0 0 127 0"/><feOffset dy="-.2"/><feGaussianBlur stdDeviation=".075"/><feComposite in2="hardAlpha" k2="-1" k3="1" operator="arithmetic"/><feColorMatrix values="0 0 0 0 0.466667 0 0 0 0 0.266667 0 0 0 0 0.168627 0 0 0 1 0"/><feBlend in2="shape" result="effect1_innerShadow_4002_1812"/></filter><filter id="filter21_i_4002_1812" width="2.573" height="1.468" x="17.293" y="7.336" color-interpolation-filters="sRGB" filterUnits="userSpaceOnUse"><feFlood flood-opacity="0" result="BackgroundImageFix"/><feBlend in="SourceGraphic" in2="BackgroundImageFix" result="shape"/><feColorMatrix in="SourceAlpha" result="hardAlpha" values="0 0 0 0 0 0 0 0 0 0 0 0 0 0 0 0 0 0 127 0"/><feOffset dy="-.2"/><feGaussianBlur stdDeviation=".075"/><feComposite in2="hardAlpha" k2="-1" k3="1" operator="arithmetic"/><feColorMatrix values="0 0 0 0 0.466667 0 0 0 0 0.266667 0 0 0 0 0.168627 0 0 0 1 0"/><feBlend in2="shape" result="effect1_innerShadow_4002_1812"/></filter><filter id="filter22_f_4002_1812" width="2.123" height=".868" x="17.56" y="7.594" color-interpolation-filters="sRGB" filterUnits="userSpaceOnUse"><feFlood flood-opacity="0" result="BackgroundImageFix"/><feBlend in="SourceGraphic" in2="BackgroundImageFix" result="shape"/><feGaussianBlur result="effect1_foregroundBlur_4002_1812" stdDeviation=".075"/></filter><filter id="filter23_f_4002_1812" width="2.123" height=".868" x="12.3" y="7.594" color-interpolation-filters="sRGB" filterUnits="userSpaceOnUse"><feFlood flood-opacity="0" result="BackgroundImageFix"/><feBlend in="SourceGraphic" in2="BackgroundImageFix" result="shape"/><feGaussianBlur result="effect1_foregroundBlur_4002_1812" stdDeviation=".075"/></filter></defs></svg>