<svg xmlns="http://www.w3.org/2000/svg" width="32" height="32" fill="none" viewBox="0 0 32 32"><path fill="url(#paint0_linear_4002_3794)" d="M12.382 20.036c-5.523 0-10 4.477-10 10v.051h20v-.05c0-5.523-4.477-10-10-10Z"/><path fill="url(#paint1_radial_4002_3794)" d="M12.382 20.036c-5.523 0-10 4.477-10 10v.051h20v-.05c0-5.523-4.477-10-10-10Z"/><path fill="url(#paint2_radial_4002_3794)" d="M12.382 20.036c-5.523 0-10 4.477-10 10v.051h20v-.05c0-5.523-4.477-10-10-10Z"/><path fill="url(#paint3_radial_4002_3794)" d="M12.382 20.036c-5.523 0-10 4.477-10 10v.051h20v-.05c0-5.523-4.477-10-10-10Z"/><rect width="4.898" height="6.68" x="9.944" y="17.009" fill="url(#paint4_radial_4002_3794)" rx="2.449"/><path fill="#814F54" d="M21.258 15.79h4.015v2.016h-4.015z"/><path fill="url(#paint5_radial_4002_3794)" d="M22.03 13.876c-.554.649-.74 1.417-.761 1.758l1.847-.101.887-1.184c.29-.383.54-1.02-.035-1.442-.466-.342-.945-.066-1.102.106a27.62 27.62 0 0 0-.836.863Z"/><path fill="url(#paint6_radial_4002_3794)" d="M22.03 13.876c-.554.649-.74 1.417-.761 1.758l1.847-.101.887-1.184c.29-.383.54-1.02-.035-1.442-.466-.342-.945-.066-1.102.106a27.62 27.62 0 0 0-.836.863Z"/><path fill="url(#paint7_radial_4002_3794)" d="M22.03 13.876c-.554.649-.74 1.417-.761 1.758l1.847-.101.887-1.184c.29-.383.54-1.02-.035-1.442-.466-.342-.945-.066-1.102.106a27.62 27.62 0 0 0-.836.863Z"/><path fill="#7D5447" fill-rule="evenodd" d="M29.625 14.182a.85.85 0 0 1-.69.984c-.147.026-.337.066-.562.113-.653.136-1.594.332-2.606.428a.85.85 0 0 1-.16-1.693c.909-.086 1.678-.246 2.318-.38.26-.054.498-.103.715-.142a.85.85 0 0 1 .985.69Z" clip-rule="evenodd"/><path fill="url(#paint8_radial_4002_3794)" fill-rule="evenodd" d="M29.625 14.182a.85.85 0 0 1-.69.984c-.147.026-.337.066-.562.113-.653.136-1.594.332-2.606.428a.85.85 0 0 1-.16-1.693c.909-.086 1.678-.246 2.318-.38.26-.054.498-.103.715-.142a.85.85 0 0 1 .985.69Z" clip-rule="evenodd"/><path fill="url(#paint9_linear_4002_3794)" fill-rule="evenodd" d="M29.625 14.182a.85.85 0 0 1-.69.984c-.147.026-.337.066-.562.113-.653.136-1.594.332-2.606.428a.85.85 0 0 1-.16-1.693c.909-.086 1.678-.246 2.318-.38.26-.054.498-.103.715-.142a.85.85 0 0 1 .985.69Z" clip-rule="evenodd"/><path fill="url(#paint10_radial_4002_3794)" fill-rule="evenodd" d="M29.625 14.182a.85.85 0 0 1-.69.984c-.147.026-.337.066-.562.113-.653.136-1.594.332-2.606.428a.85.85 0 0 1-.16-1.693c.909-.086 1.678-.246 2.318-.38.26-.054.498-.103.715-.142a.85.85 0 0 1 .985.69Z" clip-rule="evenodd"/><path fill="#7D5447" fill-rule="evenodd" d="M30.203 14.51a.85.85 0 0 1-.689.985c-.12.02-.258.047-.413.076-.662.124-1.627.305-2.733.41a.85.85 0 1 1-.16-1.693c1.02-.097 1.89-.26 2.552-.383l.459-.085a.85.85 0 0 1 .984.69Z" clip-rule="evenodd"/><path fill="url(#paint11_radial_4002_3794)" fill-rule="evenodd" d="M30.203 14.51a.85.85 0 0 1-.689.985c-.12.02-.258.047-.413.076-.662.124-1.627.305-2.733.41a.85.85 0 1 1-.16-1.693c1.02-.097 1.89-.26 2.552-.383l.459-.085a.85.85 0 0 1 .984.69Z" clip-rule="evenodd"/><path fill="url(#paint12_linear_4002_3794)" fill-rule="evenodd" d="M30.203 14.51a.85.85 0 0 1-.689.985c-.12.02-.258.047-.413.076-.662.124-1.627.305-2.733.41a.85.85 0 1 1-.16-1.693c1.02-.097 1.89-.26 2.552-.383l.459-.085a.85.85 0 0 1 .984.69Z" clip-rule="evenodd"/><path fill="url(#paint13_radial_4002_3794)" fill-rule="evenodd" d="M30.203 14.51a.85.85 0 0 1-.689.985c-.12.02-.258.047-.413.076-.662.124-1.627.305-2.733.41a.85.85 0 1 1-.16-1.693c1.02-.097 1.89-.26 2.552-.383l.459-.085a.85.85 0 0 1 .984.69Z" clip-rule="evenodd"/><path fill="#7D5447" fill-rule="evenodd" d="M29.932 15.067a.85.85 0 0 1-.772.922c-.322.028-.74.087-1.26.161l-.03.005c-.526.074-1.134.16-1.788.23a.85.85 0 1 1-.182-1.69 49.67 49.67 0 0 0 1.73-.224l.064-.009a26.3 26.3 0 0 1 1.317-.167.85.85 0 0 1 .92.772Z" clip-rule="evenodd"/><path fill="url(#paint14_radial_4002_3794)" fill-rule="evenodd" d="M29.932 15.067a.85.85 0 0 1-.772.922c-.322.028-.74.087-1.26.161l-.03.005c-.526.074-1.134.16-1.788.23a.85.85 0 1 1-.182-1.69 49.67 49.67 0 0 0 1.73-.224l.064-.009a26.3 26.3 0 0 1 1.317-.167.85.85 0 0 1 .92.772Z" clip-rule="evenodd"/><path fill="url(#paint15_linear_4002_3794)" fill-rule="evenodd" d="M29.932 15.067a.85.85 0 0 1-.772.922c-.322.028-.74.087-1.26.161l-.03.005c-.526.074-1.134.16-1.788.23a.85.85 0 1 1-.182-1.69 49.67 49.67 0 0 0 1.73-.224l.064-.009a26.3 26.3 0 0 1 1.317-.167.85.85 0 0 1 .92.772Z" clip-rule="evenodd"/><path fill="url(#paint16_radial_4002_3794)" fill-rule="evenodd" d="M29.932 15.067a.85.85 0 0 1-.772.922c-.322.028-.74.087-1.26.161l-.03.005c-.526.074-1.134.16-1.788.23a.85.85 0 1 1-.182-1.69 49.67 49.67 0 0 0 1.73-.224l.064-.009a26.3 26.3 0 0 1 1.317-.167.85.85 0 0 1 .92.772Z" clip-rule="evenodd"/><g fill-rule="evenodd" clip-rule="evenodd" filter="url(#filter0_i_4002_3794)"><path fill="#FFCA37" d="M25.57 14.017c-.33.036-.77.085-1.598.155l-.229.018c-1.06.083-2.273.178-2.466 1.345-.2 1.203 1.183 2.142 2.831 1.954.594-.067.867-.153 1.175-.25.243-.077.508-.16.967-.247.917-.103 1.759-.207 2.235-.31a.825.825 0 0 0-.346-1.612c-.37.079-1.053.166-1.874.26l-.203-1.364c-.161.014-.31.03-.492.05Z"/><path fill="url(#paint17_radial_4002_3794)" d="M25.57 14.017c-.33.036-.77.085-1.598.155l-.229.018c-1.06.083-2.273.178-2.466 1.345-.2 1.203 1.183 2.142 2.831 1.954.594-.067.867-.153 1.175-.25.243-.077.508-.16.967-.247.917-.103 1.759-.207 2.235-.31a.825.825 0 0 0-.346-1.612c-.37.079-1.053.166-1.874.26l-.203-1.364c-.161.014-.31.03-.492.05Z"/><path fill="url(#paint18_radial_4002_3794)" d="M25.57 14.017c-.33.036-.77.085-1.598.155l-.229.018c-1.06.083-2.273.178-2.466 1.345-.2 1.203 1.183 2.142 2.831 1.954.594-.067.867-.153 1.175-.25.243-.077.508-.16.967-.247.917-.103 1.759-.207 2.235-.31a.825.825 0 0 0-.346-1.612c-.37.079-1.053.166-1.874.26l-.203-1.364c-.161.014-.31.03-.492.05Z"/><path fill="url(#paint19_linear_4002_3794)" d="M25.57 14.017c-.33.036-.77.085-1.598.155l-.229.018c-1.06.083-2.273.178-2.466 1.345-.2 1.203 1.183 2.142 2.831 1.954.594-.067.867-.153 1.175-.25.243-.077.508-.16.967-.247.917-.103 1.759-.207 2.235-.31a.825.825 0 0 0-.346-1.612c-.37.079-1.053.166-1.874.26l-.203-1.364c-.161.014-.31.03-.492.05Z"/></g><g filter="url(#filter1_i_4002_3794)"><path fill="#7D5447" d="M25.57 14.017c-.33.036-.77.085-1.598.155l-.229.018c-1.06.083-2.273.178-2.466 1.345-.2 1.203 1.183 2.142 2.831 1.954.594-.067.874-.095 1.183-.192.242-.076.5-.218.96-.305.916-.103 1.758-.207 2.233-.31a.825.825 0 0 0-.345-1.612c-.37.079-1.053.166-1.874.26l-.203-1.364c-.161.014-.31.03-.492.05Z"/><path fill="url(#paint20_radial_4002_3794)" d="M25.57 14.017c-.33.036-.77.085-1.598.155l-.229.018c-1.06.083-2.273.178-2.466 1.345-.2 1.203 1.183 2.142 2.831 1.954.594-.067.874-.095 1.183-.192.242-.076.5-.218.96-.305.916-.103 1.758-.207 2.233-.31a.825.825 0 0 0-.345-1.612c-.37.079-1.053.166-1.874.26l-.203-1.364c-.161.014-.31.03-.492.05Z"/><path fill="url(#paint21_radial_4002_3794)" d="M25.57 14.017c-.33.036-.77.085-1.598.155l-.229.018c-1.06.083-2.273.178-2.466 1.345-.2 1.203 1.183 2.142 2.831 1.954.594-.067.874-.095 1.183-.192.242-.076.5-.218.96-.305.916-.103 1.758-.207 2.233-.31a.825.825 0 0 0-.345-1.612c-.37.079-1.053.166-1.874.26l-.203-1.364c-.161.014-.31.03-.492.05Z"/><path fill="url(#paint22_radial_4002_3794)" d="M25.57 14.017c-.33.036-.77.085-1.598.155l-.229.018c-1.06.083-2.273.178-2.466 1.345-.2 1.203 1.183 2.142 2.831 1.954.594-.067.874-.095 1.183-.192.242-.076.5-.218.96-.305.916-.103 1.758-.207 2.233-.31a.825.825 0 0 0-.345-1.612c-.37.079-1.053.166-1.874.26l-.203-1.364c-.161.014-.31.03-.492.05Z"/></g><path fill="url(#paint23_radial_4002_3794)" d="M21.015 17.548a.25.25 0 0 1 .25-.25h4.093a.25.25 0 0 1 .25.25v1.64h-4.593v-1.64Z"/><path fill="url(#paint24_linear_4002_3794)" d="M21.015 17.548a.25.25 0 0 1 .25-.25h4.093a.25.25 0 0 1 .25.25v1.64h-4.593v-1.64Z"/><g filter="url(#filter2_i_4002_3794)"><path fill="url(#paint25_linear_4002_3794)" d="M20.116 19.043a.8.8 0 0 1 .8-.8h4.791a.8.8 0 0 1 .8.8v11.044h-6.39V19.043Z"/><path fill="url(#paint26_linear_4002_3794)" d="M20.116 19.043a.8.8 0 0 1 .8-.8h4.791a.8.8 0 0 1 .8.8v11.044h-6.39V19.043Z"/><path fill="url(#paint27_radial_4002_3794)" d="M20.116 19.043a.8.8 0 0 1 .8-.8h4.791a.8.8 0 0 1 .8.8v11.044h-6.39V19.043Z"/><path fill="url(#paint28_linear_4002_3794)" d="M20.116 19.043a.8.8 0 0 1 .8-.8h4.791a.8.8 0 0 1 .8.8v11.044h-6.39V19.043Z"/></g><g filter="url(#filter3_f_4002_3794)"><path stroke="url(#paint29_linear_4002_3794)" stroke-linecap="round" stroke-width=".25" d="M23.375 16.42c.984-.046 3.363-.228 5-.578"/></g><g filter="url(#filter4_i_4002_3794)"><circle cx="6.285" cy="12.896" r="2.121" fill="url(#paint30_radial_4002_3794)"/></g><g filter="url(#filter5_f_4002_3794)"><circle cx="6.285" cy="12.896" r="1.264" fill="url(#paint31_linear_4002_3794)"/></g><g filter="url(#filter6_i_4002_3794)"><circle cx="18.371" cy="12.896" r="2.121" fill="url(#paint32_linear_4002_3794)"/><circle cx="18.371" cy="12.896" r="2.121" fill="url(#paint33_radial_4002_3794)"/></g><g filter="url(#filter7_f_4002_3794)"><circle cx="18.371" cy="12.896" r="1.264" fill="#7A5654"/><circle cx="18.371" cy="12.896" r="1.264" fill="url(#paint34_radial_4002_3794)"/><circle cx="18.371" cy="12.896" r="1.264" fill="url(#paint35_radial_4002_3794)"/></g><g filter="url(#filter8_i_4002_3794)"><path fill="url(#paint36_linear_4002_3794)" d="M5.838 12.117c.02.002.042.002.063.002 0 0-.068-1.084-.137-1.829 0-.339.137-.745.41-.949l.204-.203c.34-.27.477-.677.477-1.084V6.97c0-.339.204-.61.545-.677.818-.204 2.521-.543 4.974-.543 2.453 0 4.157.34 4.975.543.272.067.545.338.545.677v1.084c0 .407.204.813.477 1.084.638.447.598.693.545 1.22-.068.677-.136 1.83-.136 1.83l.023-.001-.338 5.029c-.204 2.248-1.971 3.815-4.079 3.815h-4.078c-2.175 0-3.874-1.567-4.078-3.815l-.392-5.099Z"/><path fill="url(#paint37_radial_4002_3794)" d="M5.838 12.117c.02.002.042.002.063.002 0 0-.068-1.084-.137-1.829 0-.339.137-.745.41-.949l.204-.203c.34-.27.477-.677.477-1.084V6.97c0-.339.204-.61.545-.677.818-.204 2.521-.543 4.974-.543 2.453 0 4.157.34 4.975.543.272.067.545.338.545.677v1.084c0 .407.204.813.477 1.084.638.447.598.693.545 1.22-.068.677-.136 1.83-.136 1.83l.023-.001-.338 5.029c-.204 2.248-1.971 3.815-4.079 3.815h-4.078c-2.175 0-3.874-1.567-4.078-3.815l-.392-5.099Z"/><path fill="url(#paint38_radial_4002_3794)" d="M5.838 12.117c.02.002.042.002.063.002 0 0-.068-1.084-.137-1.829 0-.339.137-.745.41-.949l.204-.203c.34-.27.477-.677.477-1.084V6.97c0-.339.204-.61.545-.677.818-.204 2.521-.543 4.974-.543 2.453 0 4.157.34 4.975.543.272.067.545.338.545.677v1.084c0 .407.204.813.477 1.084.638.447.598.693.545 1.22-.068.677-.136 1.83-.136 1.83l.023-.001-.338 5.029c-.204 2.248-1.971 3.815-4.079 3.815h-4.078c-2.175 0-3.874-1.567-4.078-3.815l-.392-5.099Z"/></g><path fill="url(#paint39_linear_4002_3794)" d="M5.764 10.29c0-.339.137-.745.41-.949l.204-.203c.34-.27.477-.677.477-1.084V6.97c0-.339.204-.61.545-.677.818-.204 2.521-.543 4.974-.543 2.453 0 4.157.34 4.975.543.272.067.545.338.545.677v1.084c0 .407.204.813.477 1.084.638.447.598.693.545 1.22-.068.677-.136 1.83-.136 1.83l.023-.001-.338 5.029c-.204 2.248-1.971 3.815-4.079 3.815h-4.078c-2.175 0-3.874-1.567-4.078-3.815-.177-2.308-.255-4.622-.466-6.926Z"/><path fill="url(#paint40_linear_4002_3794)" d="M5.764 10.29c0-.339.137-.745.41-.949l.204-.203c.34-.27.477-.677.477-1.084V6.97c0-.339.204-.61.545-.677.818-.204 2.521-.543 4.974-.543 2.453 0 4.157.34 4.975.543.272.067.545.338.545.677v1.084c0 .407.204.813.477 1.084.638.447.598.693.545 1.22-.068.677-.136 1.83-.136 1.83l.023-.001-.338 5.029c-.204 2.248-1.971 3.815-4.079 3.815h-4.078c-2.175 0-3.874-1.567-4.078-3.815-.177-2.308-.255-4.622-.466-6.926Z"/><path fill="url(#paint41_radial_4002_3794)" d="M5.764 10.29c0-.339.137-.745.41-.949l.204-.203c.34-.27.477-.677.477-1.084V6.97c0-.339.204-.61.545-.677.818-.204 2.521-.543 4.974-.543 2.453 0 4.157.34 4.975.543.272.067.545.338.545.677v1.084c0 .407.204.813.477 1.084.638.447.598.693.545 1.22-.068.677-.136 1.83-.136 1.83l.023-.001-.338 5.029c-.204 2.248-1.971 3.815-4.079 3.815h-4.078c-2.175 0-3.874-1.567-4.078-3.815-.177-2.308-.255-4.622-.466-6.926Z"/><path fill="url(#paint42_linear_4002_3794)" d="M5.764 10.29c0-.339.137-.745.41-.949l.204-.203c.34-.27.477-.677.477-1.084V6.97c0-.339.204-.61.545-.677.818-.204 2.521-.543 4.974-.543 2.453 0 4.157.34 4.975.543.272.067.545.338.545.677v1.084c0 .407.204.813.477 1.084.638.447.598.693.545 1.22-.068.677-.136 1.83-.136 1.83l.023-.001-.338 5.029c-.204 2.248-1.971 3.815-4.079 3.815h-4.078c-2.175 0-3.874-1.567-4.078-3.815-.177-2.308-.255-4.622-.466-6.926Z"/><g filter="url(#filter9_f_4002_3794)"><path fill="url(#paint43_linear_4002_3794)" d="m17.352 5.75-3.91 1.304a1.33 1.33 0 0 0 .598 2.58l3.887-.52-.575-3.364Z"/></g><g filter="url(#filter10_i_4002_3794)"><path fill="#27151C" d="m18.439 4.666.545.271c.954.475 1.5 1.559 1.295 2.71l-.75 3.863c-.067.399-.33.667-.727.677h-.023s.069-1.152.137-1.83c.055-.55-.04-.717-.545-1.219-.273-.27-.477-.677-.477-1.084V6.97c0-.339-.273-.61-.545-.677-.818-.204-2.522-.543-4.975-.543s-4.157.34-4.974.543c-.341.067-.545.338-.545.677v1.084c0 .407-.137.813-.477 1.084l-.205.204c-.272.203-.409.61-.409.948.068.745.137 1.83.137 1.83l-.063-.003a.805.805 0 0 1-.755-.675l-.75-3.862c-.136-1.084.41-2.168 1.363-2.643l.545-.27c.34-.204.682-.475 1.022-.746L8.49 2.634c.75-.678 1.84-.881 2.794-.407a3.735 3.735 0 0 0 2.112 0c1.022-.338 2.18-.067 2.998.678l1.023 1.016c.272.339.613.542 1.022.745Z"/><path fill="url(#paint44_radial_4002_3794)" d="m18.439 4.666.545.271c.954.475 1.5 1.559 1.295 2.71l-.75 3.863c-.067.399-.33.667-.727.677h-.023s.069-1.152.137-1.83c.055-.55-.04-.717-.545-1.219-.273-.27-.477-.677-.477-1.084V6.97c0-.339-.273-.61-.545-.677-.818-.204-2.522-.543-4.975-.543s-4.157.34-4.974.543c-.341.067-.545.338-.545.677v1.084c0 .407-.137.813-.477 1.084l-.205.204c-.272.203-.409.61-.409.948.068.745.137 1.83.137 1.83l-.063-.003a.805.805 0 0 1-.755-.675l-.75-3.862c-.136-1.084.41-2.168 1.363-2.643l.545-.27c.34-.204.682-.475 1.022-.746L8.49 2.634c.75-.678 1.84-.881 2.794-.407a3.735 3.735 0 0 0 2.112 0c1.022-.338 2.18-.067 2.998.678l1.023 1.016c.272.339.613.542 1.022.745Z"/><path fill="url(#paint45_radial_4002_3794)" d="m18.439 4.666.545.271c.954.475 1.5 1.559 1.295 2.71l-.75 3.863c-.067.399-.33.667-.727.677h-.023s.069-1.152.137-1.83c.055-.55-.04-.717-.545-1.219-.273-.27-.477-.677-.477-1.084V6.97c0-.339-.273-.61-.545-.677-.818-.204-2.522-.543-4.975-.543s-4.157.34-4.974.543c-.341.067-.545.338-.545.677v1.084c0 .407-.137.813-.477 1.084l-.205.204c-.272.203-.409.61-.409.948.068.745.137 1.83.137 1.83l-.063-.003a.805.805 0 0 1-.755-.675l-.75-3.862c-.136-1.084.41-2.168 1.363-2.643l.545-.27c.34-.204.682-.475 1.022-.746L8.49 2.634c.75-.678 1.84-.881 2.794-.407a3.735 3.735 0 0 0 2.112 0c1.022-.338 2.18-.067 2.998.678l1.023 1.016c.272.339.613.542 1.022.745Z"/><path fill="url(#paint46_radial_4002_3794)" d="m18.439 4.666.545.271c.954.475 1.5 1.559 1.295 2.71l-.75 3.863c-.067.399-.33.667-.727.677h-.023s.069-1.152.137-1.83c.055-.55-.04-.717-.545-1.219-.273-.27-.477-.677-.477-1.084V6.97c0-.339-.273-.61-.545-.677-.818-.204-2.522-.543-4.975-.543s-4.157.34-4.974.543c-.341.067-.545.338-.545.677v1.084c0 .407-.137.813-.477 1.084l-.205.204c-.272.203-.409.61-.409.948.068.745.137 1.83.137 1.83l-.063-.003a.805.805 0 0 1-.755-.675l-.75-3.862c-.136-1.084.41-2.168 1.363-2.643l.545-.27c.34-.204.682-.475 1.022-.746L8.49 2.634c.75-.678 1.84-.881 2.794-.407a3.735 3.735 0 0 0 2.112 0c1.022-.338 2.18-.067 2.998.678l1.023 1.016c.272.339.613.542 1.022.745Z"/><path fill="url(#paint47_radial_4002_3794)" d="m18.439 4.666.545.271c.954.475 1.5 1.559 1.295 2.71l-.75 3.863c-.067.399-.33.667-.727.677h-.023s.069-1.152.137-1.83c.055-.55-.04-.717-.545-1.219-.273-.27-.477-.677-.477-1.084V6.97c0-.339-.273-.61-.545-.677-.818-.204-2.522-.543-4.975-.543s-4.157.34-4.974.543c-.341.067-.545.338-.545.677v1.084c0 .407-.137.813-.477 1.084l-.205.204c-.272.203-.409.61-.409.948.068.745.137 1.83.137 1.83l-.063-.003a.805.805 0 0 1-.755-.675l-.75-3.862c-.136-1.084.41-2.168 1.363-2.643l.545-.27c.34-.204.682-.475 1.022-.746L8.49 2.634c.75-.678 1.84-.881 2.794-.407a3.735 3.735 0 0 0 2.112 0c1.022-.338 2.18-.067 2.998.678l1.023 1.016c.272.339.613.542 1.022.745Z"/></g><g filter="url(#filter11_f_4002_3794)"><path fill="#71404A" d="m11.967 12.74-1.042 2.16c-.13.444.18.888.62.888h.937c.439 0 .749-.451.62-.888l-.633-2.16c-.136-.478-.36-.478-.502 0Z"/></g><g filter="url(#filter12_f_4002_3794)"><path fill="#8C5F5E" d="m11.831 12.533-.675 2.16a.685.685 0 0 0 .662.888h.998a.687.687 0 0 0 .662-.889l-.675-2.159c-.145-.478-.82-.478-.972 0Z"/><path fill="url(#paint48_linear_4002_3794)" d="m11.831 12.533-.675 2.16a.685.685 0 0 0 .662.888h.998a.687.687 0 0 0 .662-.889l-.675-2.159c-.145-.478-.82-.478-.972 0Z"/><path fill="url(#paint49_linear_4002_3794)" d="m11.831 12.533-.675 2.16a.685.685 0 0 0 .662.888h.998a.687.687 0 0 0 .662-.889l-.675-2.159c-.145-.478-.82-.478-.972 0Z"/><path fill="url(#paint50_linear_4002_3794)" d="m11.831 12.533-.675 2.16a.685.685 0 0 0 .662.888h.998a.687.687 0 0 0 .662-.889l-.675-2.159c-.145-.478-.82-.478-.972 0Z"/><path fill="url(#paint51_radial_4002_3794)" d="m11.831 12.533-.675 2.16a.685.685 0 0 0 .662.888h.998a.687.687 0 0 0 .662-.889l-.675-2.159c-.145-.478-.82-.478-.972 0Z"/></g><path fill="url(#paint52_linear_4002_3794)" d="m11.831 12.533-.675 2.16a.685.685 0 0 0 .662.888h.998a.687.687 0 0 0 .662-.889l-.675-2.159c-.145-.478-.82-.478-.972 0Z"/><path fill="#88014F" stroke="url(#paint53_linear_4002_3794)" stroke-width=".1" d="M10.58 16.41a.244.244 0 0 0-.29.05.224.224 0 0 0-.025.288 2.455 2.455 0 0 0 2.052 1.097c.862 0 1.618-.439 2.053-1.097a.227.227 0 0 0-.025-.29.245.245 0 0 0-.291-.048 3.746 3.746 0 0 1-1.737.412c-.637 0-1.235-.15-1.736-.412Z"/><g filter="url(#filter13_i_4002_3794)"><path fill="#352827" d="m17.042 9.44-.001-.001-.003-.002-.005-.005-.016-.012a1.77 1.77 0 0 0-.196-.136 3.284 3.284 0 0 0-.534-.268 3.599 3.599 0 0 0-1.896-.201.678.678 0 1 0 .212 1.34c.505-.08.91.013 1.186.122a1.928 1.928 0 0 1 .391.21.678.678 0 0 0 .862-1.047Z"/><path fill="url(#paint54_radial_4002_3794)" d="m17.042 9.44-.001-.001-.003-.002-.005-.005-.016-.012a1.77 1.77 0 0 0-.196-.136 3.284 3.284 0 0 0-.534-.268 3.599 3.599 0 0 0-1.896-.201.678.678 0 1 0 .212 1.34c.505-.08.91.013 1.186.122a1.928 1.928 0 0 1 .391.21.678.678 0 0 0 .862-1.047Z"/></g><g filter="url(#filter14_i_4002_3794)"><path fill="#352827" d="M7.523 9.44h.001l.001-.001.002-.002.006-.005.015-.012.046-.034a3.282 3.282 0 0 1 .684-.37 3.599 3.599 0 0 1 1.897-.201.678.678 0 1 1-.212 1.34c-.505-.08-.91.013-1.186.122a1.932 1.932 0 0 0-.392.21.678.678 0 0 1-.862-1.046Z"/><path fill="url(#paint55_radial_4002_3794)" d="M7.523 9.44h.001l.001-.001.002-.002.006-.005.015-.012.046-.034a3.282 3.282 0 0 1 .684-.37 3.599 3.599 0 0 1 1.897-.201.678.678 0 1 1-.212 1.34c-.505-.08-.91.013-1.186.122a1.932 1.932 0 0 0-.392.21.678.678 0 0 1-.862-1.046Z"/></g><path fill="#fff" d="M15.35 11.078c.83 0 1.53.572 1.721 1.345a.348.348 0 0 1-.34.433h-2.834a.292.292 0 0 1-.288-.345 1.775 1.775 0 0 1 1.741-1.433Z"/><path fill="url(#paint56_radial_4002_3794)" d="M15.088 11.424a1.133 1.133 0 0 1 1.092 1.432h-2.19a1.138 1.138 0 0 1 1.097-1.432Z"/><path fill="#000" d="M14.438 12.557c0-.36.289-.65.65-.65a.646.646 0 0 1 .577.949h-1.15a.586.586 0 0 1-.077-.299Z"/><g filter="url(#filter15_f_4002_3794)"><path fill="#C7A7A3" d="M15.004 11.663c.081.108-.088.24-.28.383-.192.144-.334.245-.415.137-.08-.108.01-.312.202-.456.192-.143.413-.172.493-.064Z"/><path fill="url(#paint57_radial_4002_3794)" d="M15.004 11.663c.081.108-.088.24-.28.383-.192.144-.334.245-.415.137-.08-.108.01-.312.202-.456.192-.143.413-.172.493-.064Z"/></g><g filter="url(#filter16_f_4002_3794)"><path fill="url(#paint58_linear_4002_3794)" d="M16.097 12.408a1.067 1.067 0 0 0-.294-.588l-.33.362.15.29.474-.064Z"/></g><path fill="#fff" d="M9.277 11.078c-.83 0-1.53.572-1.721 1.345a.348.348 0 0 0 .34.433h2.834c.18 0 .325-.165.288-.345a1.78 1.78 0 0 0-1.741-1.433Z"/><path fill="url(#paint59_radial_4002_3794)" d="M9.54 11.423a1.134 1.134 0 0 0-1.093 1.433h2.19c.026-.098.041-.196.041-.299a1.141 1.141 0 0 0-1.138-1.134Z"/><path fill="#000" d="M10.19 12.557c0-.36-.29-.65-.65-.65a.646.646 0 0 0-.577.949h1.149a.644.644 0 0 0 .077-.299Z"/><g filter="url(#filter17_f_4002_3794)"><path fill="url(#paint60_linear_4002_3794)" d="M10.575 12.424c0-.367-.298-.61-.378-.684l-.366.354.225.459.52-.13Z"/></g><g filter="url(#filter18_f_4002_3794)" transform="rotate(-27.914 9.198 11.908)"><ellipse cx="9.198" cy="11.908" fill="#C7A7A3" fill-opacity=".9" rx=".495" ry=".25"/><ellipse cx="9.198" cy="11.908" fill="url(#paint61_radial_4002_3794)" rx=".495" ry=".25"/></g><g filter="url(#filter19_f_4002_3794)"><path stroke="url(#paint62_linear_4002_3794)" stroke-linecap="round" stroke-width=".5" d="M14.427 9.257c.546-.096 1.611-.069 2.35.505"/></g><g filter="url(#filter20_f_4002_3794)"><path stroke="url(#paint63_linear_4002_3794)" stroke-linecap="round" stroke-width=".5" d="M7.796 9.915c.416-.367 1.323-.754 2.448-.574"/></g><g filter="url(#filter21_f_4002_3794)"><path stroke="url(#paint64_linear_4002_3794)" stroke-linecap="round" stroke-width=".25" d="M6.559 6.784v1.14c-.01.189-.09.61-.328.79"/></g><defs><radialGradient id="paint1_radial_4002_3794" cx="0" cy="0" r="1" gradientTransform="rotate(-128.9 17.743 9.606) scale(14.3752 17.7454)" gradientUnits="userSpaceOnUse"><stop offset=".195" stop-color="#3DA2EF"/><stop offset="1" stop-color="#3DA2EF" stop-opacity="0"/></radialGradient><radialGradient id="paint2_radial_4002_3794" cx="0" cy="0" r="1" gradientTransform="rotate(80.311 -5.866 15.826) scale(6.49895 15.3845)" gradientUnits="userSpaceOnUse"><stop offset=".302" stop-color="#13669B"/><stop offset="1" stop-color="#2094E3" stop-opacity="0"/><stop offset="1" stop-color="#13669B" stop-opacity="0"/></radialGradient><radialGradient id="paint3_radial_4002_3794" cx="0" cy="0" r="1" gradientTransform="rotate(-120.904 18.925 8.746) scale(9.57741 4.6091)" gradientUnits="userSpaceOnUse"><stop offset=".27" stop-color="#0355AD"/><stop offset="1" stop-color="#2770BB" stop-opacity="0"/></radialGradient><radialGradient id="paint4_radial_4002_3794" cx="0" cy="0" r="1" gradientTransform="matrix(0 3.21875 -4.41943 0 12.394 20.633)" gradientUnits="userSpaceOnUse"><stop offset=".32" stop-color="#673A48"/><stop offset="1" stop-color="#6E5056"/></radialGradient><radialGradient id="paint5_radial_4002_3794" cx="0" cy="0" r="1" gradientTransform="matrix(-1.14487 1.17029 -.21646 -.21176 23.936 13.1)" gradientUnits="userSpaceOnUse"><stop stop-color="#927568"/><stop offset="1" stop-color="#7C5A4C"/></radialGradient><radialGradient id="paint6_radial_4002_3794" cx="0" cy="0" r="1" gradientTransform="rotate(-70.927 22.324 -8.577) scale(3.10812 1.58159)" gradientUnits="userSpaceOnUse"><stop offset=".676" stop-color="#6C4A3E" stop-opacity="0"/><stop offset="1" stop-color="#6C4A3E"/></radialGradient><radialGradient id="paint7_radial_4002_3794" cx="0" cy="0" r="1" gradientTransform="matrix(-.10937 .79688 -1.21512 -.16677 23.836 14.656)" gradientUnits="userSpaceOnUse"><stop offset=".27" stop-color="#917568"/><stop offset="1" stop-color="#917568" stop-opacity="0"/></radialGradient><radialGradient id="paint8_radial_4002_3794" cx="0" cy="0" r="1" gradientTransform="matrix(-.69262 .16923 -.21445 -.87773 29.638 14.163)" gradientUnits="userSpaceOnUse"><stop stop-color="#9B7B70"/><stop offset="1" stop-color="#9B7B70" stop-opacity="0"/></radialGradient><radialGradient id="paint10_radial_4002_3794" cx="0" cy="0" r="1" gradientTransform="rotate(82.145 5.826 22.367) scale(.37067 3.64537)" gradientUnits="userSpaceOnUse"><stop offset=".412" stop-color="#8E6F62"/><stop offset="1" stop-color="#8E6F62" stop-opacity="0"/></radialGradient><radialGradient id="paint11_radial_4002_3794" cx="0" cy="0" r="1" gradientTransform="matrix(-.68924 .16508 -.20552 -.85808 30.216 14.474)" gradientUnits="userSpaceOnUse"><stop stop-color="#9B7B70"/><stop offset="1" stop-color="#9B7B70" stop-opacity="0"/></radialGradient><radialGradient id="paint13_radial_4002_3794" cx="0" cy="0" r="1" gradientTransform="matrix(.05214 .36215 -3.63059 .52268 27.775 13.807)" gradientUnits="userSpaceOnUse"><stop offset=".287" stop-color="#8E6F62"/><stop offset="1" stop-color="#8E6F62" stop-opacity="0"/></radialGradient><radialGradient id="paint14_radial_4002_3794" cx="0" cy="0" r="1" gradientTransform="matrix(-.69149 .15913 -.19118 -.83072 29.936 14.936)" gradientUnits="userSpaceOnUse"><stop stop-color="#9B7B70"/><stop offset="1" stop-color="#9B7B70" stop-opacity="0"/></radialGradient><radialGradient id="paint16_radial_4002_3794" cx="0" cy="0" r="1" gradientTransform="matrix(.0523 .34914 -3.63628 .54474 27.486 14.292)" gradientUnits="userSpaceOnUse"><stop offset=".287" stop-color="#8E6F62"/><stop offset="1" stop-color="#8E6F62" stop-opacity="0"/></radialGradient><radialGradient id="paint17_radial_4002_3794" cx="0" cy="0" r="1" gradientTransform="rotate(169.423 13.843 9.188) scale(.90027 1.06791)" gradientUnits="userSpaceOnUse"><stop stop-color="#FFDC47"/><stop offset="1" stop-color="#FFDC47" stop-opacity="0"/></radialGradient><radialGradient id="paint18_radial_4002_3794" cx="0" cy="0" r="1" gradientTransform="rotate(81.573 4.84 23.438) scale(.21324 1.76543)" gradientUnits="userSpaceOnUse"><stop offset=".382" stop-color="#E4B833"/><stop offset="1" stop-color="#E4B833" stop-opacity="0"/></radialGradient><radialGradient id="paint20_radial_4002_3794" cx="0" cy="0" r="1" gradientTransform="rotate(173.822 14.183 8.658) scale(.96972 .53174)" gradientUnits="userSpaceOnUse"><stop stop-color="#99786F"/><stop offset="1" stop-color="#99786F" stop-opacity="0"/></radialGradient><radialGradient id="paint21_radial_4002_3794" cx="0" cy="0" r="1" gradientTransform="rotate(81.573 4.84 23.438) scale(.21324 1.76543)" gradientUnits="userSpaceOnUse"><stop offset=".382" stop-color="#886658"/><stop offset="1" stop-color="#886658" stop-opacity="0"/></radialGradient><radialGradient id="paint22_radial_4002_3794" cx="0" cy="0" r="1" gradientTransform="matrix(.92109 -.74564 1.75363 2.16625 21.803 16.899)" gradientUnits="userSpaceOnUse"><stop stop-color="#825B55"/><stop offset="1" stop-color="#825B55" stop-opacity="0"/></radialGradient><radialGradient id="paint23_radial_4002_3794" cx="0" cy="0" r="1" gradientTransform="matrix(0 1.05458 -2.63643 0 24.104 17.387)" gradientUnits="userSpaceOnUse"><stop offset=".09" stop-color="#499CD4"/><stop offset="1" stop-color="#2E76AB"/></radialGradient><radialGradient id="paint27_radial_4002_3794" cx="0" cy="0" r="1" gradientTransform="matrix(-2.1875 0 0 -.57813 24.721 19.227)" gradientUnits="userSpaceOnUse"><stop stop-color="#4BB5FD"/><stop offset="1" stop-color="#4BB5FD" stop-opacity="0"/></radialGradient><radialGradient id="paint30_radial_4002_3794" cx="0" cy="0" r="1" gradientTransform="matrix(2.22935 0 0 3.90139 4.165 12.896)" gradientUnits="userSpaceOnUse"><stop offset=".351" stop-color="#664249"/><stop offset="1" stop-color="#613641"/></radialGradient><radialGradient id="paint33_radial_4002_3794" cx="0" cy="0" r="1" gradientTransform="matrix(1.05023 -.76473 .87284 1.1987 18.844 12.56)" gradientUnits="userSpaceOnUse"><stop offset=".543" stop-color="#7C524C"/><stop offset="1" stop-color="#7C524C" stop-opacity="0"/></radialGradient><radialGradient id="paint34_radial_4002_3794" cx="0" cy="0" r="1" gradientTransform="matrix(1.04333 -1.91895 1.12316 .61067 18.318 13.938)" gradientUnits="userSpaceOnUse"><stop offset=".755" stop-color="#73443E" stop-opacity="0"/><stop offset=".916" stop-color="#73443E"/></radialGradient><radialGradient id="paint35_radial_4002_3794" cx="0" cy="0" r="1" gradientTransform="matrix(.3294 .32605 -.42033 .42464 18.37 12.896)" gradientUnits="userSpaceOnUse"><stop stop-color="#6C443E"/><stop offset="1" stop-color="#6C443E" stop-opacity="0"/></radialGradient><radialGradient id="paint37_radial_4002_3794" cx="0" cy="0" r="1" gradientTransform="matrix(0 -1.66049 2.04368 0 15.297 11.28)" gradientUnits="userSpaceOnUse"><stop stop-color="#855354"/><stop offset="1" stop-color="#855354" stop-opacity="0"/></radialGradient><radialGradient id="paint38_radial_4002_3794" cx="0" cy="0" r="1" gradientTransform="matrix(0 -1.74565 2.17087 0 9.507 11.45)" gradientUnits="userSpaceOnUse"><stop stop-color="#6F414D"/><stop offset="1" stop-color="#6F414D" stop-opacity="0"/></radialGradient><radialGradient id="paint41_radial_4002_3794" cx="0" cy="0" r="1" gradientTransform="matrix(0 10.3887 -14.1022 0 11.934 10.642)" gradientUnits="userSpaceOnUse"><stop offset=".71" stop-color="#7D4371" stop-opacity="0"/><stop offset="1" stop-color="#7D4371"/></radialGradient><radialGradient id="paint44_radial_4002_3794" cx="0" cy="0" r="1" gradientTransform="matrix(1.01354 -3.75605 1.39286 .37585 17.837 7.68)" gradientUnits="userSpaceOnUse"><stop stop-color="#3D3437"/><stop offset="1" stop-color="#3D3437" stop-opacity="0"/></radialGradient><radialGradient id="paint45_radial_4002_3794" cx="0" cy="0" r="1" gradientTransform="matrix(4.859 .44715 -.24043 2.61266 15.75 5.443)" gradientUnits="userSpaceOnUse"><stop offset=".122" stop-color="#46383D"/><stop offset="1" stop-color="#46383D" stop-opacity="0"/></radialGradient><radialGradient id="paint46_radial_4002_3794" cx="0" cy="0" r="1" gradientTransform="matrix(0 2.1332 -3.30372 0 12.317 1.969)" gradientUnits="userSpaceOnUse"><stop stop-color="#3E3034"/><stop offset="1" stop-color="#3E3034" stop-opacity="0"/></radialGradient><radialGradient id="paint47_radial_4002_3794" cx="0" cy="0" r="1" gradientTransform="matrix(3.9051 -2.86175 4.48342 6.118 4.124 10.63)" gradientUnits="userSpaceOnUse"><stop stop-color="#453938"/><stop offset="1" stop-color="#453938" stop-opacity="0"/></radialGradient><radialGradient id="paint51_radial_4002_3794" cx="0" cy="0" r="1" gradientTransform="matrix(0 .25014 -.80364 0 12.733 14.937)" gradientUnits="userSpaceOnUse"><stop stop-color="#976F6A"/><stop offset="1" stop-color="#976F6A" stop-opacity="0"/></radialGradient><radialGradient id="paint54_radial_4002_3794" cx="0" cy="0" r="1" gradientTransform="matrix(.13237 -.76638 2.26728 .3916 15.42 10.248)" gradientUnits="userSpaceOnUse"><stop stop-color="#301A2D"/><stop offset="1" stop-color="#301A2D" stop-opacity="0"/></radialGradient><radialGradient id="paint55_radial_4002_3794" cx="0" cy="0" r="1" gradientTransform="matrix(.13238 -.76638 2.2674 .39165 8.88 10.248)" gradientUnits="userSpaceOnUse"><stop stop-color="#301A2D"/><stop offset="1" stop-color="#301A2D" stop-opacity="0"/></radialGradient><radialGradient id="paint56_radial_4002_3794" cx="0" cy="0" r="1" gradientTransform="matrix(0 1.03045 -1.63905 0 15.085 12.03)" gradientUnits="userSpaceOnUse"><stop offset=".802" stop-color="#7D574A"/><stop offset="1" stop-color="#694B43"/><stop offset="1" stop-color="#804D49"/><stop offset="1" stop-color="#664944"/></radialGradient><radialGradient id="paint57_radial_4002_3794" cx="0" cy="0" r="1" gradientTransform="rotate(-127.812 10.37 2.445) scale(.48046 .66148)" gradientUnits="userSpaceOnUse"><stop offset=".766" stop-color="#FFE6E2" stop-opacity="0"/><stop offset=".966" stop-color="#FFE6E2"/></radialGradient><radialGradient id="paint59_radial_4002_3794" cx="0" cy="0" r="1" gradientTransform="matrix(0 1.0305 -1.63913 0 9.542 12.03)" gradientUnits="userSpaceOnUse"><stop offset=".802" stop-color="#7D574A"/><stop offset="1" stop-color="#694B43"/><stop offset="1" stop-color="#804D49"/><stop offset="1" stop-color="#664944"/></radialGradient><radialGradient id="paint61_radial_4002_3794" cx="0" cy="0" r="1" gradientTransform="matrix(-.00983 -.62753 .75432 -.01181 9.179 12.308)" gradientUnits="userSpaceOnUse"><stop offset=".766" stop-color="#FFE6E2" stop-opacity="0"/><stop offset=".966" stop-color="#FFE6E2"/></radialGradient><linearGradient id="paint0_linear_4002_3794" x1="12.382" x2="12.382" y1="30.602" y2="25.696" gradientUnits="userSpaceOnUse"><stop stop-color="#2499EA"/><stop offset="1" stop-color="#1388C7"/></linearGradient><linearGradient id="paint9_linear_4002_3794" x1="27.641" x2="27.508" y1="15.711" y2="14.454" gradientUnits="userSpaceOnUse"><stop offset=".217" stop-color="#7D4B55"/><stop offset="1" stop-color="#7D4B55" stop-opacity="0"/></linearGradient><linearGradient id="paint12_linear_4002_3794" x1="28.229" x2="28.102" y1="15.984" y2="14.758" gradientUnits="userSpaceOnUse"><stop offset=".217" stop-color="#7D4B55"/><stop offset="1" stop-color="#7D4B55" stop-opacity="0"/></linearGradient><linearGradient id="paint15_linear_4002_3794" x1="27.941" x2="27.823" y1="16.39" y2="15.208" gradientUnits="userSpaceOnUse"><stop offset=".217" stop-color="#7D4B55"/><stop offset="1" stop-color="#7D4B55" stop-opacity="0"/></linearGradient><linearGradient id="paint19_linear_4002_3794" x1="24.588" x2="26.182" y1="16.84" y2="16.528" gradientUnits="userSpaceOnUse"><stop offset=".585" stop-color="#FFCA38"/><stop offset="1" stop-color="#FFCA38" stop-opacity="0"/></linearGradient><linearGradient id="paint24_linear_4002_3794" x1="23.483" x2="23.483" y1="18.339" y2="18.164" gradientUnits="userSpaceOnUse"><stop offset=".316" stop-color="#166599"/><stop offset="1" stop-color="#327AA5" stop-opacity="0"/><stop offset="1" stop-color="#166599" stop-opacity="0"/></linearGradient><linearGradient id="paint25_linear_4002_3794" x1="24.354" x2="24.354" y1="19.403" y2="38.715" gradientUnits="userSpaceOnUse"><stop stop-color="#2E9FED"/><stop offset=".621" stop-color="#1F98E9"/></linearGradient><linearGradient id="paint26_linear_4002_3794" x1="27.768" x2="22.341" y1="28.93" y2="28.93" gradientUnits="userSpaceOnUse"><stop stop-color="#4AB6FE" stop-opacity="0"/><stop offset=".458" stop-color="#4AB6FE"/><stop offset="1" stop-color="#4AB6FE" stop-opacity="0"/></linearGradient><linearGradient id="paint28_linear_4002_3794" x1="23.312" x2="23.312" y1="18.243" y2="19.278" gradientUnits="userSpaceOnUse"><stop offset=".366" stop-color="#20A5E9"/><stop offset="1" stop-color="#20A5E9" stop-opacity="0"/></linearGradient><linearGradient id="paint29_linear_4002_3794" x1="28.027" x2="23.189" y1="15.842" y2="16.394" gradientUnits="userSpaceOnUse"><stop stop-color="#9B7B71"/><stop offset="1" stop-color="#9B7B71" stop-opacity="0"/></linearGradient><linearGradient id="paint31_linear_4002_3794" x1="6.285" x2="5.472" y1="13.25" y2="13.25" gradientUnits="userSpaceOnUse"><stop stop-color="#553038"/><stop offset="1" stop-color="#59323C"/></linearGradient><linearGradient id="paint32_linear_4002_3794" x1="19.751" x2="18.711" y1="11.509" y2="14.731" gradientUnits="userSpaceOnUse"><stop stop-color="#96776B"/><stop offset="1" stop-color="#855A5B"/></linearGradient><linearGradient id="paint36_linear_4002_3794" x1="17.444" x2="7.743" y1="13.39" y2="14.836" gradientUnits="userSpaceOnUse"><stop stop-color="#9B6C5E"/><stop offset="1" stop-color="#744D4A"/></linearGradient><linearGradient id="paint39_linear_4002_3794" x1="5.462" x2="7.852" y1="16.816" y2="16.73" gradientUnits="userSpaceOnUse"><stop stop-color="#84615A"/><stop offset="1" stop-color="#84615A" stop-opacity="0"/></linearGradient><linearGradient id="paint40_linear_4002_3794" x1="18.497" x2="17.155" y1="15.751" y2="15.623" gradientUnits="userSpaceOnUse"><stop stop-color="#966D5F"/><stop offset="1" stop-color="#966D5F" stop-opacity="0"/></linearGradient><linearGradient id="paint42_linear_4002_3794" x1="12.354" x2="12.354" y1="19.861" y2="21.194" gradientUnits="userSpaceOnUse"><stop offset=".533" stop-color="#8E5B8E" stop-opacity="0"/><stop offset="1" stop-color="#8E5B8E"/></linearGradient><linearGradient id="paint43_linear_4002_3794" x1="11.642" x2="21.988" y1="9.599" y2="5.895" gradientUnits="userSpaceOnUse"><stop stop-color="#A27B71"/><stop offset="1" stop-color="#A27B71" stop-opacity="0"/></linearGradient><linearGradient id="paint48_linear_4002_3794" x1="11.219" x2="12.411" y1="14.228" y2="14.228" gradientUnits="userSpaceOnUse"><stop stop-color="#754E46"/><stop offset="1" stop-color="#754E46" stop-opacity="0"/></linearGradient><linearGradient id="paint49_linear_4002_3794" x1="13.509" x2="12.206" y1="14.638" y2="14.619" gradientUnits="userSpaceOnUse"><stop stop-color="#9D766B"/><stop offset="1" stop-color="#9D766B" stop-opacity="0"/></linearGradient><linearGradient id="paint50_linear_4002_3794" x1="12.564" x2="12.564" y1="15.581" y2="14.853" gradientUnits="userSpaceOnUse"><stop stop-color="#7C4559"/><stop offset="1" stop-color="#7C4559" stop-opacity="0"/></linearGradient><linearGradient id="paint52_linear_4002_3794" x1="12.477" x2="12.477" y1="15.634" y2="15.421" gradientUnits="userSpaceOnUse"><stop stop-color="#743B4A"/><stop offset="1" stop-color="#743B4A" stop-opacity="0"/></linearGradient><linearGradient id="paint53_linear_4002_3794" x1="11" x2="11.552" y1="17.633" y2="16.759" gradientUnits="userSpaceOnUse"><stop stop-color="#865E63"/><stop offset=".663" stop-color="#865E63" stop-opacity="0"/></linearGradient><linearGradient id="paint58_linear_4002_3794" x1="16.073" x2="15.675" y1="12.098" y2="12.343" gradientUnits="userSpaceOnUse"><stop stop-color="#B4948D"/><stop offset="1" stop-color="#B4948D" stop-opacity="0"/></linearGradient><linearGradient id="paint60_linear_4002_3794" x1="10.487" x2="10.088" y1="12.098" y2="12.343" gradientUnits="userSpaceOnUse"><stop stop-color="#B4948D"/><stop offset="1" stop-color="#B4948D" stop-opacity="0"/></linearGradient><linearGradient id="paint62_linear_4002_3794" x1="16.093" x2="15.559" y1="9.38" y2="8.289" gradientUnits="userSpaceOnUse"><stop stop-color="#483E3E"/><stop offset="1" stop-color="#483E3E" stop-opacity="0"/></linearGradient><linearGradient id="paint63_linear_4002_3794" x1="9.354" x2="7.843" y1="9.217" y2="8.584" gradientUnits="userSpaceOnUse"><stop stop-color="#483E3E"/><stop offset="1" stop-color="#483E3E" stop-opacity="0"/></linearGradient><linearGradient id="paint64_linear_4002_3794" x1="6.395" x2="6.395" y1="6.658" y2="9.398" gradientUnits="userSpaceOnUse"><stop offset=".228" stop-color="#32272D"/><stop offset="1" stop-color="#32272D" stop-opacity="0"/></linearGradient><filter id="filter0_i_4002_3794" width="7.879" height="3.847" x="21.258" y="13.666" color-interpolation-filters="sRGB" filterUnits="userSpaceOnUse"><feFlood flood-opacity="0" result="BackgroundImageFix"/><feBlend in="SourceGraphic" in2="BackgroundImageFix" result="shape"/><feColorMatrix in="SourceAlpha" result="hardAlpha" values="0 0 0 0 0 0 0 0 0 0 0 0 0 0 0 0 0 0 127 0"/><feOffset dy="-.3"/><feGaussianBlur stdDeviation=".3"/><feComposite in2="hardAlpha" k2="-1" k3="1" operator="arithmetic"/><feColorMatrix values="0 0 0 0 0.933333 0 0 0 0 0.603922 0 0 0 0 0.0941176 0 0 0 1 0"/><feBlend in2="shape" result="effect1_innerShadow_4002_3794"/></filter><filter id="filter1_i_4002_3794" width="7.879" height="3.847" x="21.258" y="13.666" color-interpolation-filters="sRGB" filterUnits="userSpaceOnUse"><feFlood flood-opacity="0" result="BackgroundImageFix"/><feBlend in="SourceGraphic" in2="BackgroundImageFix" result="shape"/><feColorMatrix in="SourceAlpha" result="hardAlpha" values="0 0 0 0 0 0 0 0 0 0 0 0 0 0 0 0 0 0 127 0"/><feOffset dy="-.3"/><feGaussianBlur stdDeviation=".3"/><feComposite in2="hardAlpha" k2="-1" k3="1" operator="arithmetic"/><feColorMatrix values="0 0 0 0 0.501961 0 0 0 0 0.286275 0 0 0 0 0.333333 0 0 0 1 0"/><feBlend in2="shape" result="effect1_innerShadow_4002_3794"/></filter><filter id="filter2_i_4002_3794" width="6.491" height="11.844" x="20.116" y="18.243" color-interpolation-filters="sRGB" filterUnits="userSpaceOnUse"><feFlood flood-opacity="0" result="BackgroundImageFix"/><feBlend in="SourceGraphic" in2="BackgroundImageFix" result="shape"/><feColorMatrix in="SourceAlpha" result="hardAlpha" values="0 0 0 0 0 0 0 0 0 0 0 0 0 0 0 0 0 0 127 0"/><feOffset dx=".1"/><feGaussianBlur stdDeviation=".25"/><feComposite in2="hardAlpha" k2="-1" k3="1" operator="arithmetic"/><feColorMatrix values="0 0 0 0 0.211765 0 0 0 0 0.482353 0 0 0 0 0.713726 0 0 0 1 0"/><feBlend in2="shape" result="effect1_innerShadow_4002_3794"/></filter><filter id="filter3_f_4002_3794" width="5.75" height="1.328" x="23" y="15.467" color-interpolation-filters="sRGB" filterUnits="userSpaceOnUse"><feFlood flood-opacity="0" result="BackgroundImageFix"/><feBlend in="SourceGraphic" in2="BackgroundImageFix" result="shape"/><feGaussianBlur result="effect1_foregroundBlur_4002_3794" stdDeviation=".125"/></filter><filter id="filter4_i_4002_3794" width="4.442" height="4.242" x="4.165" y="10.775" color-interpolation-filters="sRGB" filterUnits="userSpaceOnUse"><feFlood flood-opacity="0" result="BackgroundImageFix"/><feBlend in="SourceGraphic" in2="BackgroundImageFix" result="shape"/><feColorMatrix in="SourceAlpha" result="hardAlpha" values="0 0 0 0 0 0 0 0 0 0 0 0 0 0 0 0 0 0 127 0"/><feOffset dx=".2"/><feGaussianBlur stdDeviation=".15"/><feComposite in2="hardAlpha" k2="-1" k3="1" operator="arithmetic"/><feColorMatrix values="0 0 0 0 0.517647 0 0 0 0 0.384314 0 0 0 0 0.34902 0 0 0 1 0"/><feBlend in2="shape" result="effect1_innerShadow_4002_3794"/></filter><filter id="filter5_f_4002_3794" width="3.528" height="3.528" x="4.521" y="11.132" color-interpolation-filters="sRGB" filterUnits="userSpaceOnUse"><feFlood flood-opacity="0" result="BackgroundImageFix"/><feBlend in="SourceGraphic" in2="BackgroundImageFix" result="shape"/><feGaussianBlur result="effect1_foregroundBlur_4002_3794" stdDeviation=".25"/></filter><filter id="filter6_i_4002_3794" width="4.492" height="4.492" x="16.25" y="10.525" color-interpolation-filters="sRGB" filterUnits="userSpaceOnUse"><feFlood flood-opacity="0" result="BackgroundImageFix"/><feBlend in="SourceGraphic" in2="BackgroundImageFix" result="shape"/><feColorMatrix in="SourceAlpha" result="hardAlpha" values="0 0 0 0 0 0 0 0 0 0 0 0 0 0 0 0 0 0 127 0"/><feOffset dx=".25" dy="-.25"/><feGaussianBlur stdDeviation=".25"/><feComposite in2="hardAlpha" k2="-1" k3="1" operator="arithmetic"/><feColorMatrix values="0 0 0 0 0.482353 0 0 0 0 0.278431 0 0 0 0 0.372549 0 0 0 1 0"/><feBlend in2="shape" result="effect1_innerShadow_4002_3794"/></filter><filter id="filter7_f_4002_3794" width="3.528" height="3.528" x="16.607" y="11.132" color-interpolation-filters="sRGB" filterUnits="userSpaceOnUse"><feFlood flood-opacity="0" result="BackgroundImageFix"/><feBlend in="SourceGraphic" in2="BackgroundImageFix" result="shape"/><feGaussianBlur result="effect1_foregroundBlur_4002_3794" stdDeviation=".25"/></filter><filter id="filter8_i_4002_3794" width="13.179" height="15.53" x="5.764" y="5.75" color-interpolation-filters="sRGB" filterUnits="userSpaceOnUse"><feFlood flood-opacity="0" result="BackgroundImageFix"/><feBlend in="SourceGraphic" in2="BackgroundImageFix" result="shape"/><feColorMatrix in="SourceAlpha" result="hardAlpha" values="0 0 0 0 0 0 0 0 0 0 0 0 0 0 0 0 0 0 127 0"/><feOffset dy=".25"/><feGaussianBlur stdDeviation=".375"/><feComposite in2="hardAlpha" k2="-1" k3="1" operator="arithmetic"/><feColorMatrix values="0 0 0 0 0.254902 0 0 0 0 0.137255 0 0 0 0 0.113725 0 0 0 1 0"/><feBlend in2="shape" result="effect1_innerShadow_4002_3794"/></filter><filter id="filter9_f_4002_3794" width="9.394" height="7.896" x="10.533" y="3.75" color-interpolation-filters="sRGB" filterUnits="userSpaceOnUse"><feFlood flood-opacity="0" result="BackgroundImageFix"/><feBlend in="SourceGraphic" in2="BackgroundImageFix" result="shape"/><feGaussianBlur result="effect1_foregroundBlur_4002_3794" stdDeviation="1"/></filter><filter id="filter10_i_4002_3794" width="16.009" height="10.718" x="4.313" y="1.469" color-interpolation-filters="sRGB" filterUnits="userSpaceOnUse"><feFlood flood-opacity="0" result="BackgroundImageFix"/><feBlend in="SourceGraphic" in2="BackgroundImageFix" result="shape"/><feColorMatrix in="SourceAlpha" result="hardAlpha" values="0 0 0 0 0 0 0 0 0 0 0 0 0 0 0 0 0 0 127 0"/><feOffset dy="-.5"/><feGaussianBlur stdDeviation=".375"/><feComposite in2="hardAlpha" k2="-1" k3="1" operator="arithmetic"/><feColorMatrix values="0 0 0 0 0.0392157 0 0 0 0 0.00784314 0 0 0 0 0.0196078 0 0 0 1 0"/><feBlend in2="shape" result="effect1_innerShadow_4002_3794"/></filter><filter id="filter11_f_4002_3794" width="3.736" height="4.906" x="10.146" y="11.632" color-interpolation-filters="sRGB" filterUnits="userSpaceOnUse"><feFlood flood-opacity="0" result="BackgroundImageFix"/><feBlend in="SourceGraphic" in2="BackgroundImageFix" result="shape"/><feGaussianBlur result="effect1_foregroundBlur_4002_3794" stdDeviation=".375"/></filter><filter id="filter12_f_4002_3794" width="2.884" height="3.906" x="10.875" y="11.925" color-interpolation-filters="sRGB" filterUnits="userSpaceOnUse"><feFlood flood-opacity="0" result="BackgroundImageFix"/><feBlend in="SourceGraphic" in2="BackgroundImageFix" result="shape"/><feGaussianBlur result="effect1_foregroundBlur_4002_3794" stdDeviation=".125"/></filter><filter id="filter13_i_4002_3794" width="3.718" height="2.271" x="13.819" y="8.368" color-interpolation-filters="sRGB" filterUnits="userSpaceOnUse"><feFlood flood-opacity="0" result="BackgroundImageFix"/><feBlend in="SourceGraphic" in2="BackgroundImageFix" result="shape"/><feColorMatrix in="SourceAlpha" result="hardAlpha" values="0 0 0 0 0 0 0 0 0 0 0 0 0 0 0 0 0 0 127 0"/><feOffset dx=".25" dy="-.4"/><feGaussianBlur stdDeviation=".3"/><feComposite in2="hardAlpha" k2="-1" k3="1" operator="arithmetic"/><feColorMatrix values="0 0 0 0 0.156863 0 0 0 0 0.0784314 0 0 0 0 0.109804 0 0 0 1 0"/><feBlend in2="shape" result="effect1_innerShadow_4002_3794"/></filter><filter id="filter14_i_4002_3794" width="3.718" height="2.271" x="7.279" y="8.368" color-interpolation-filters="sRGB" filterUnits="userSpaceOnUse"><feFlood flood-opacity="0" result="BackgroundImageFix"/><feBlend in="SourceGraphic" in2="BackgroundImageFix" result="shape"/><feColorMatrix in="SourceAlpha" result="hardAlpha" values="0 0 0 0 0 0 0 0 0 0 0 0 0 0 0 0 0 0 127 0"/><feOffset dx=".25" dy="-.4"/><feGaussianBlur stdDeviation=".3"/><feComposite in2="hardAlpha" k2="-1" k3="1" operator="arithmetic"/><feColorMatrix values="0 0 0 0 0.156863 0 0 0 0 0.0784314 0 0 0 0 0.109804 0 0 0 1 0"/><feBlend in2="shape" result="effect1_innerShadow_4002_3794"/></filter><filter id="filter15_f_4002_3794" width=".945" height=".83" x="14.18" y="11.498" color-interpolation-filters="sRGB" filterUnits="userSpaceOnUse"><feFlood flood-opacity="0" result="BackgroundImageFix"/><feBlend in="SourceGraphic" in2="BackgroundImageFix" result="shape"/><feGaussianBlur result="effect1_foregroundBlur_4002_3794" stdDeviation=".05"/></filter><filter id="filter16_f_4002_3794" width="1.024" height="1.052" x="15.273" y="11.62" color-interpolation-filters="sRGB" filterUnits="userSpaceOnUse"><feFlood flood-opacity="0" result="BackgroundImageFix"/><feBlend in="SourceGraphic" in2="BackgroundImageFix" result="shape"/><feGaussianBlur result="effect1_foregroundBlur_4002_3794" stdDeviation=".1"/></filter><filter id="filter17_f_4002_3794" width="1.145" height="1.213" x="9.631" y="11.54" color-interpolation-filters="sRGB" filterUnits="userSpaceOnUse"><feFlood flood-opacity="0" result="BackgroundImageFix"/><feBlend in="SourceGraphic" in2="BackgroundImageFix" result="shape"/><feGaussianBlur result="effect1_foregroundBlur_4002_3794" stdDeviation=".1"/></filter><filter id="filter18_f_4002_3794" width="1.106" height=".841" x="8.645" y="11.487" color-interpolation-filters="sRGB" filterUnits="userSpaceOnUse"><feFlood flood-opacity="0" result="BackgroundImageFix"/><feBlend in="SourceGraphic" in2="BackgroundImageFix" result="shape"/><feGaussianBlur result="effect1_foregroundBlur_4002_3794" stdDeviation=".05"/></filter><filter id="filter19_f_4002_3794" width="3.849" height="2.048" x="13.677" y="8.464" color-interpolation-filters="sRGB" filterUnits="userSpaceOnUse"><feFlood flood-opacity="0" result="BackgroundImageFix"/><feBlend in="SourceGraphic" in2="BackgroundImageFix" result="shape"/><feGaussianBlur result="effect1_foregroundBlur_4002_3794" stdDeviation=".25"/></filter><filter id="filter20_f_4002_3794" width="3.948" height="2.12" x="7.046" y="8.545" color-interpolation-filters="sRGB" filterUnits="userSpaceOnUse"><feFlood flood-opacity="0" result="BackgroundImageFix"/><feBlend in="SourceGraphic" in2="BackgroundImageFix" result="shape"/><feGaussianBlur result="effect1_foregroundBlur_4002_3794" stdDeviation=".25"/></filter><filter id="filter21_f_4002_3794" width="1.078" height="2.68" x="5.856" y="6.409" color-interpolation-filters="sRGB" filterUnits="userSpaceOnUse"><feFlood flood-opacity="0" result="BackgroundImageFix"/><feBlend in="SourceGraphic" in2="BackgroundImageFix" result="shape"/><feGaussianBlur result="effect1_foregroundBlur_4002_3794" stdDeviation=".125"/></filter></defs></svg>