<svg xmlns="http://www.w3.org/2000/svg" width="32" height="32" fill="none" viewBox="0 0 32 32"><g filter="url(#filter0_i_20020_4346)"><path fill="url(#paint0_radial_20020_4346)" d="M7.968 8.688h-1.64l-3.75 11.187c-1.735 5.906 1.399 9.969 6.219 9.969h12.827a8.391 8.391 0 1 0-8.01-11.222.238.238 0 0 1-.223.16.234.234 0 0 1-.207-.126L7.968 8.688Z"/></g><path fill="url(#paint1_linear_20020_4346)" d="M7.968 8.688h-1.64l-3.75 11.187c-1.735 5.906 1.399 9.969 6.219 9.969h12.827a8.391 8.391 0 1 0-8.01-11.222.238.238 0 0 1-.223.16.234.234 0 0 1-.207-.126L7.968 8.688Z"/><path fill="url(#paint2_radial_20020_4346)" d="M7.968 8.688h-1.64l-3.75 11.187c-1.735 5.906 1.399 9.969 6.219 9.969h12.827a8.391 8.391 0 1 0-8.01-11.222.238.238 0 0 1-.223.16.234.234 0 0 1-.207-.126L7.968 8.688Z"/><path fill="url(#paint3_radial_20020_4346)" d="M7.968 8.688h-1.64l-3.75 11.187c-1.735 5.906 1.399 9.969 6.219 9.969h12.827a8.391 8.391 0 1 0-8.01-11.222.238.238 0 0 1-.223.16.234.234 0 0 1-.207-.126L7.968 8.688Z"/><path fill="url(#paint4_radial_20020_4346)" d="M7.968 8.688h-1.64l-3.75 11.187c-1.735 5.906 1.399 9.969 6.219 9.969h12.827a8.391 8.391 0 1 0-8.01-11.222.238.238 0 0 1-.223.16.234.234 0 0 1-.207-.126L7.968 8.688Z"/><path fill="url(#paint5_radial_20020_4346)" d="M7.968 8.688h-1.64l-3.75 11.187c-1.735 5.906 1.399 9.969 6.219 9.969h12.827a8.391 8.391 0 1 0-8.01-11.222.238.238 0 0 1-.223.16.234.234 0 0 1-.207-.126L7.968 8.688Z"/><path fill="url(#paint6_radial_20020_4346)" d="m19.901 29.844-6.403-11.089a.241.241 0 0 0 .116-.133 8.39 8.39 0 0 1 16.292 2.83 8.391 8.391 0 0 1-8.282 8.392h-1.723Z"/><path fill="url(#paint7_linear_20020_4346)" d="M7.32 5.883 6.296 8.777l.499.963a2.035 2.035 0 0 0 1.817 1.12h4.941a2.5 2.5 0 0 0 2.315-1.557l.087-.214a3.5 3.5 0 0 0-1.814-4.517l-1.774-.752c-2.172-.804-4.283.048-5.047 2.063Z"/><path fill="url(#paint8_radial_20020_4346)" d="M7.32 5.883 6.296 8.777l.499.963a2.035 2.035 0 0 0 1.817 1.12h4.941a2.5 2.5 0 0 0 2.315-1.557l.087-.214a3.5 3.5 0 0 0-1.814-4.517l-1.774-.752c-2.172-.804-4.283.048-5.047 2.063Z"/><path fill="url(#paint9_radial_20020_4346)" d="M7.32 5.883 6.296 8.777l.499.963a2.035 2.035 0 0 0 1.817 1.12h4.941a2.5 2.5 0 0 0 2.315-1.557l.087-.214a3.5 3.5 0 0 0-1.814-4.517l-1.774-.752c-2.172-.804-4.283.048-5.047 2.063Z"/><g filter="url(#filter1_f_20020_4346)"><path fill="url(#paint10_linear_20020_4346)" d="m12.87 19.266-6.625 8.718h13.781l-6.13-8.718H12.87Z"/><path fill="url(#paint11_radial_20020_4346)" d="m12.87 19.266-6.625 8.718h13.781l-6.13-8.718H12.87Z"/><path fill="url(#paint12_radial_20020_4346)" d="m12.87 19.266-6.625 8.718h13.781l-6.13-8.718H12.87Z"/></g><g filter="url(#filter2_f_20020_4346)"><path stroke="url(#paint13_linear_20020_4346)" stroke-linecap="round" stroke-width="1.5" d="m11.449 5.111 2.383.985c.402.148.91.68.964 1.46.058.823-.524 1.485-.89 1.712"/></g><rect width="8.914" height="4.07" x="6.281" y="7.742" fill="url(#paint14_linear_20020_4346)" rx="2.035"/><rect width="8.914" height="4.07" x="6.281" y="7.742" fill="url(#paint15_radial_20020_4346)" rx="2.035"/><rect width="8.914" height="4.07" x="6.281" y="7.742" fill="url(#paint16_linear_20020_4346)" rx="2.035"/><rect width="8.914" height="4.07" x="6.281" y="7.742" fill="url(#paint17_radial_20020_4346)" rx="2.035"/><path fill="url(#paint18_radial_20020_4346)" d="M10.653 5.853 10 7.773h3.75l-3.097-1.92Z"/><g filter="url(#filter3_f_20020_4346)"><path fill="url(#paint19_linear_20020_4346)" d="m9.406 5.672 1.39 1.047v1.06H8.883l.523-2.107Z"/></g><g filter="url(#filter4_f_20020_4346)"><circle cx="24.025" cy="19.972" r="4.458" fill="url(#paint20_radial_20020_4346)"/></g><g filter="url(#filter5_f_20020_4346)"><path fill="url(#paint21_radial_20020_4346)" d="M8.516 11.737c-.498 3.77-2.204 15.86-2.204 16.03l5.938-8.491-3.734-7.539Z"/></g><defs><radialGradient id="paint0_radial_20020_4346" cx="0" cy="0" r="1" gradientTransform="rotate(155.964 11.36 12.97) scale(19.1812 18.4333)" gradientUnits="userSpaceOnUse"><stop stop-color="#FFDBBB"/><stop offset="1" stop-color="#ECB5A9"/></radialGradient><radialGradient id="paint2_radial_20020_4346" cx="0" cy="0" r="1" gradientTransform="matrix(0 -2.72446 1.45063 0 13.468 17.454)" gradientUnits="userSpaceOnUse"><stop stop-color="#D5997C"/><stop offset="1" stop-color="#D5997C" stop-opacity="0"/></radialGradient><radialGradient id="paint3_radial_20020_4346" cx="0" cy="0" r="1" gradientTransform="rotate(173.66 4.26 5.995) scale(1.74697 3.13176)" gradientUnits="userSpaceOnUse"><stop stop-color="#D49176"/><stop offset="1" stop-color="#D49176" stop-opacity="0"/></radialGradient><radialGradient id="paint4_radial_20020_4346" cx="0" cy="0" r="1" gradientTransform="rotate(165.675 7.388 12.705) scale(16.0964 23.7714)" gradientUnits="userSpaceOnUse"><stop offset=".846" stop-color="#ECB19B" stop-opacity="0"/><stop offset="1" stop-color="#ECB19B"/></radialGradient><radialGradient id="paint5_radial_20020_4346" cx="0" cy="0" r="1" gradientTransform="rotate(109.983 2.727 10.039) scale(10.2416 3.16316)" gradientUnits="userSpaceOnUse"><stop stop-color="#FFDBBD"/><stop offset="1" stop-color="#FFDBBD" stop-opacity="0"/></radialGradient><radialGradient id="paint6_radial_20020_4346" cx="0" cy="0" r="1" gradientTransform="rotate(-143.536 19.193 9.682) scale(24.7131 26.7219)" gradientUnits="userSpaceOnUse"><stop offset=".47" stop-color="#DC9E81" stop-opacity="0"/><stop offset="1" stop-color="#DC9E81"/></radialGradient><radialGradient id="paint8_radial_20020_4346" cx="0" cy="0" r="1" gradientTransform="rotate(-30.196 23.058 -13.846) scale(7.083 8.73249)" gradientUnits="userSpaceOnUse"><stop offset=".79" stop-color="#FFE2C4" stop-opacity="0"/><stop offset="1" stop-color="#FFE2C4"/></radialGradient><radialGradient id="paint9_radial_20020_4346" cx="0" cy="0" r="1" gradientTransform="rotate(-122.735 8.022 1.066) scale(5.48766 7.79014)" gradientUnits="userSpaceOnUse"><stop offset=".742" stop-color="#C79B7A" stop-opacity="0"/><stop offset="1" stop-color="#C79B7A"/></radialGradient><radialGradient id="paint11_radial_20020_4346" cx="0" cy="0" r="1" gradientTransform="matrix(1.81251 1.21874 -2.41974 3.59865 10.417 20.734)" gradientUnits="userSpaceOnUse"><stop stop-color="#FFD9C0"/><stop offset="1" stop-color="#FFD9C0" stop-opacity="0"/></radialGradient><radialGradient id="paint12_radial_20020_4346" cx="0" cy="0" r="1" gradientTransform="rotate(143.906 4.729 13.688) scale(1.94536 8.27452)" gradientUnits="userSpaceOnUse"><stop offset=".231" stop-color="#D99877"/><stop offset="1" stop-color="#D99877" stop-opacity="0"/></radialGradient><radialGradient id="paint15_radial_20020_4346" cx="0" cy="0" r="1" gradientTransform="rotate(137.353 5.061 7.467) scale(1.61445 1.40902)" gradientUnits="userSpaceOnUse"><stop stop-color="#FFE4C9"/><stop offset="1" stop-color="#FFE4C9" stop-opacity="0"/></radialGradient><radialGradient id="paint17_radial_20020_4346" cx="0" cy="0" r="1" gradientTransform="matrix(-8.91406 0 0 -7.03626 15.195 9.777)" gradientUnits="userSpaceOnUse"><stop offset=".903" stop-color="#E9B098" stop-opacity="0"/><stop offset="1" stop-color="#E9B098"/></radialGradient><radialGradient id="paint18_radial_20020_4346" cx="0" cy="0" r="1" gradientTransform="matrix(0 -1.21213 1.47114 0 11.492 7.925)" gradientUnits="userSpaceOnUse"><stop stop-color="#A76040"/><stop offset="1" stop-color="#D8916C" stop-opacity="0"/></radialGradient><radialGradient id="paint20_radial_20020_4346" cx="0" cy="0" r="1" gradientTransform="rotate(144.36 11.102 13.31) scale(5.72588 9.69685)" gradientUnits="userSpaceOnUse"><stop stop-color="#FFE9CA"/><stop offset="1" stop-color="#FFE9CA" stop-opacity="0"/></radialGradient><radialGradient id="paint21_radial_20020_4346" cx="0" cy="0" r="1" gradientTransform="rotate(-102 14.357 6.333) scale(15.05 5.24944)" gradientUnits="userSpaceOnUse"><stop stop-color="#FFE2C3"/><stop offset="1" stop-color="#FFE2C3" stop-opacity="0"/></radialGradient><linearGradient id="paint1_linear_20020_4346" x1="16" x2="16" y1="31.75" y2="21.125" gradientUnits="userSpaceOnUse"><stop stop-color="#B47997"/><stop offset="1" stop-color="#B47997" stop-opacity="0"/></linearGradient><linearGradient id="paint7_linear_20020_4346" x1="8.406" x2="17.335" y1="9.625" y2="7.189" gradientUnits="userSpaceOnUse"><stop stop-color="#E2AB9F"/><stop offset="1" stop-color="#FDC6AD"/></linearGradient><linearGradient id="paint10_linear_20020_4346" x1="13.135" x2="13.12" y1="17.051" y2="27.344" gradientUnits="userSpaceOnUse"><stop stop-color="#F7BFA1"/><stop offset="1" stop-color="#F7BFA1" stop-opacity="0"/></linearGradient><linearGradient id="paint13_linear_20020_4346" x1="14.812" x2="11.004" y1="7.56" y2="5.884" gradientUnits="userSpaceOnUse"><stop stop-color="#FFE6CA"/><stop offset="1" stop-color="#FFE6CA" stop-opacity="0"/></linearGradient><linearGradient id="paint14_linear_20020_4346" x1="8.687" x2="14.437" y1="10.25" y2="10.25" gradientUnits="userSpaceOnUse"><stop stop-color="#E2AB9F"/><stop offset="1" stop-color="#F9C6A8"/></linearGradient><linearGradient id="paint16_linear_20020_4346" x1="10.738" x2="10.738" y1="12.011" y2="9.777" gradientUnits="userSpaceOnUse"><stop stop-color="#DB9788"/><stop offset="1" stop-color="#DB9788" stop-opacity="0"/></linearGradient><linearGradient id="paint19_linear_20020_4346" x1="10.39" x2="9.856" y1="6.75" y2="7.981" gradientUnits="userSpaceOnUse"><stop stop-color="#FFCDB6"/><stop offset="1" stop-color="#FFCDB6" stop-opacity="0"/></linearGradient><filter id="filter0_i_20020_4346" width="28.811" height="22.656" x="2.094" y="7.188" color-interpolation-filters="sRGB" filterUnits="userSpaceOnUse"><feFlood flood-opacity="0" result="BackgroundImageFix"/><feBlend in="SourceGraphic" in2="BackgroundImageFix" result="shape"/><feColorMatrix in="SourceAlpha" result="hardAlpha" values="0 0 0 0 0 0 0 0 0 0 0 0 0 0 0 0 0 0 127 0"/><feOffset dx="1" dy="-1.5"/><feGaussianBlur stdDeviation="1.5"/><feComposite in2="hardAlpha" k2="-1" k3="1" operator="arithmetic"/><feColorMatrix values="0 0 0 0 0.831373 0 0 0 0 0.619608 0 0 0 0 0.568627 0 0 0 1 0"/><feBlend in2="shape" result="effect1_innerShadow_20020_4346"/></filter><filter id="filter1_f_20020_4346" width="15.781" height="10.719" x="5.245" y="18.266" color-interpolation-filters="sRGB" filterUnits="userSpaceOnUse"><feFlood flood-opacity="0" result="BackgroundImageFix"/><feBlend in="SourceGraphic" in2="BackgroundImageFix" result="shape"/><feGaussianBlur result="effect1_foregroundBlur_20020_4346" stdDeviation=".5"/></filter><filter id="filter2_f_20020_4346" width="6.851" height="7.657" x="9.699" y="3.361" color-interpolation-filters="sRGB" filterUnits="userSpaceOnUse"><feFlood flood-opacity="0" result="BackgroundImageFix"/><feBlend in="SourceGraphic" in2="BackgroundImageFix" result="shape"/><feGaussianBlur result="effect1_foregroundBlur_20020_4346" stdDeviation=".5"/></filter><filter id="filter3_f_20020_4346" width="2.913" height="3.108" x="8.383" y="5.172" color-interpolation-filters="sRGB" filterUnits="userSpaceOnUse"><feFlood flood-opacity="0" result="BackgroundImageFix"/><feBlend in="SourceGraphic" in2="BackgroundImageFix" result="shape"/><feGaussianBlur result="effect1_foregroundBlur_20020_4346" stdDeviation=".25"/></filter><filter id="filter4_f_20020_4346" width="12.915" height="12.915" x="17.567" y="13.514" color-interpolation-filters="sRGB" filterUnits="userSpaceOnUse"><feFlood flood-opacity="0" result="BackgroundImageFix"/><feBlend in="SourceGraphic" in2="BackgroundImageFix" result="shape"/><feGaussianBlur result="effect1_foregroundBlur_20020_4346" stdDeviation="1"/></filter><filter id="filter5_f_20020_4346" width="8.938" height="19.03" x="4.812" y="10.237" color-interpolation-filters="sRGB" filterUnits="userSpaceOnUse"><feFlood flood-opacity="0" result="BackgroundImageFix"/><feBlend in="SourceGraphic" in2="BackgroundImageFix" result="shape"/><feGaussianBlur result="effect1_foregroundBlur_20020_4346" stdDeviation=".75"/></filter></defs></svg>