<svg xmlns="http://www.w3.org/2000/svg" width="32" height="32" fill="none" viewBox="0 0 32 32"><path fill="url(#paint0_linear_18_11874)" d="M25 5.956H7v22h18v-22Z"/><path fill="url(#paint1_linear_18_11874)" d="M23.02 1.956h-3.03c-.55 0-.99.44-.99.98v1.02h5v-1.02c0-.54-.44-.98-.98-.98Z"/><path fill="url(#paint2_linear_18_11874)" d="M23.02 1.956h-3.03c-.55 0-.99.44-.99.98v1.02h5v-1.02c0-.54-.44-.98-.98-.98Z"/><path fill="url(#paint3_radial_18_11874)" d="M23.02 1.956h-3.03c-.55 0-.99.44-.99.98v1.02h5v-1.02c0-.54-.44-.98-.98-.98Z"/><path fill="url(#paint4_radial_18_11874)" d="M23.02 1.956h-3.03c-.55 0-.99.44-.99.98v1.02h5v-1.02c0-.54-.44-.98-.98-.98Z"/><path fill="url(#paint5_linear_18_11874)" d="M24 5.956h-2v22h2v-22Z"/><path fill="url(#paint6_linear_18_11874)" d="M21 5.956h-1v22h1v-22Z"/><g filter="url(#filter0_f_18_11874)"><path fill="#3C62A7" d="M7.25 13.706h17.5v.375H7.25z"/></g><g filter="url(#filter1_f_18_11874)"><path fill="#3C62A7" d="M7.25 5.69h17.5v.375H7.25z"/></g><g filter="url(#filter2_f_18_11874)"><path fill="#3C62A7" d="M7.25 21.682h17.5v.375H7.25z"/></g><g filter="url(#filter3_f_18_11874)"><path fill="#3C62A7" d="M7.25 27.854h17.5v.375H7.25z"/></g><path fill="url(#paint7_linear_18_11874)" d="M25 29.956H7c-.55 0-1-.45-1-1s.45-1 1-1h18c.55 0 1 .45 1 1s-.45 1-1 1Z"/><path fill="url(#paint8_linear_18_11874)" d="M25 29.956H7c-.55 0-1-.45-1-1s.45-1 1-1h18c.55 0 1 .45 1 1s-.45 1-1 1Z"/><path fill="url(#paint9_radial_18_11874)" d="M25 29.956H7c-.55 0-1-.45-1-1s.45-1 1-1h18c.55 0 1 .45 1 1s-.45 1-1 1Z"/><path fill="url(#paint10_linear_18_11874)" d="M25 5.956H7c-.55 0-1-.45-1-1s.45-1 1-1h18c.55 0 1 .45 1 1s-.45 1-1 1Z"/><path fill="url(#paint11_linear_18_11874)" d="M25 5.956H7c-.55 0-1-.45-1-1s.45-1 1-1h18c.55 0 1 .45 1 1s-.45 1-1 1Z"/><path fill="url(#paint12_radial_18_11874)" d="M25 5.956H7c-.55 0-1-.45-1-1s.45-1 1-1h18c.55 0 1 .45 1 1s-.45 1-1 1Z"/><path fill="url(#paint13_linear_18_11874)" d="M25 13.956H7c-.55 0-1-.45-1-1s.45-1 1-1h18c.55 0 1 .45 1 1s-.45 1-1 1Z"/><path fill="url(#paint14_linear_18_11874)" d="M25 13.956H7c-.55 0-1-.45-1-1s.45-1 1-1h18c.55 0 1 .45 1 1s-.45 1-1 1Z"/><path fill="url(#paint15_radial_18_11874)" d="M25 13.956H7c-.55 0-1-.45-1-1s.45-1 1-1h18c.55 0 1 .45 1 1s-.45 1-1 1Z"/><path fill="url(#paint16_linear_18_11874)" d="M25 21.956H7c-.55 0-1-.45-1-1s.45-1 1-1h18c.55 0 1 .45 1 1s-.45 1-1 1Z"/><path fill="url(#paint17_linear_18_11874)" d="M25 21.956H7c-.55 0-1-.45-1-1s.45-1 1-1h18c.55 0 1 .45 1 1s-.45 1-1 1Z"/><path fill="url(#paint18_radial_18_11874)" d="M25 21.956H7c-.55 0-1-.45-1-1s.45-1 1-1h18c.55 0 1 .45 1 1s-.45 1-1 1Z"/><defs><linearGradient id="paint0_linear_18_11874" x1="7.002" x2="25" y1="16.956" y2="16.956" gradientUnits="userSpaceOnUse"><stop stop-color="#3974A8"/><stop offset=".177" stop-color="#448FDD"/><stop offset="1" stop-color="#5998E8"/></linearGradient><linearGradient id="paint1_linear_18_11874" x1="19.002" x2="24.563" y1="2.956" y2="2.956" gradientUnits="userSpaceOnUse"><stop stop-color="#463B5E"/><stop offset="1" stop-color="#4E4B54"/></linearGradient><linearGradient id="paint2_linear_18_11874" x1="24" x2="23.247" y1="3.956" y2="3.956" gradientUnits="userSpaceOnUse"><stop stop-color="#747374"/><stop offset="1" stop-color="#747374" stop-opacity="0"/></linearGradient><linearGradient id="paint5_linear_18_11874" x1="24.406" x2="22.5" y1="16.932" y2="16.932" gradientUnits="userSpaceOnUse"><stop stop-color="#72FBFF"/><stop offset="1" stop-color="#65E0FF"/></linearGradient><linearGradient id="paint6_linear_18_11874" x1="21" x2="21" y1="27.956" y2="5.956" gradientUnits="userSpaceOnUse"><stop stop-color="#53BDFE"/><stop offset="1" stop-color="#55C0FA"/></linearGradient><linearGradient id="paint7_linear_18_11874" x1="26.002" x2="6.002" y1="28.956" y2="28.956" gradientUnits="userSpaceOnUse"><stop stop-color="#4285D9"/><stop offset="1" stop-color="#3E409A"/></linearGradient><linearGradient id="paint8_linear_18_11874" x1="16" x2="16" y1="30.456" y2="29.206" gradientUnits="userSpaceOnUse"><stop stop-color="#373490"/><stop offset="1" stop-color="#373490" stop-opacity="0"/></linearGradient><linearGradient id="paint10_linear_18_11874" x1="26.002" x2="6.002" y1="4.956" y2="4.956" gradientUnits="userSpaceOnUse"><stop stop-color="#4285D9"/><stop offset="1" stop-color="#3E409A"/></linearGradient><linearGradient id="paint11_linear_18_11874" x1="16" x2="16" y1="6.456" y2="5.206" gradientUnits="userSpaceOnUse"><stop stop-color="#373490"/><stop offset="1" stop-color="#373490" stop-opacity="0"/></linearGradient><linearGradient id="paint13_linear_18_11874" x1="26.002" x2="6.002" y1="12.956" y2="12.956" gradientUnits="userSpaceOnUse"><stop stop-color="#4285D9"/><stop offset="1" stop-color="#3E409A"/></linearGradient><linearGradient id="paint14_linear_18_11874" x1="16" x2="16" y1="14.456" y2="13.206" gradientUnits="userSpaceOnUse"><stop stop-color="#373490"/><stop offset="1" stop-color="#373490" stop-opacity="0"/></linearGradient><linearGradient id="paint16_linear_18_11874" x1="26.002" x2="6.002" y1="20.956" y2="20.956" gradientUnits="userSpaceOnUse"><stop stop-color="#4285D9"/><stop offset="1" stop-color="#3E409A"/></linearGradient><linearGradient id="paint17_linear_18_11874" x1="16" x2="16" y1="22.456" y2="21.206" gradientUnits="userSpaceOnUse"><stop stop-color="#373490"/><stop offset="1" stop-color="#373490" stop-opacity="0"/></linearGradient><radialGradient id="paint3_radial_18_11874" cx="0" cy="0" r="1" gradientTransform="rotate(140.194 11.513 5.497) scale(.70274 .80899)" gradientUnits="userSpaceOnUse"><stop stop-color="#69696A"/><stop offset="1" stop-color="#69696A" stop-opacity="0"/></radialGradient><radialGradient id="paint4_radial_18_11874" cx="0" cy="0" r="1" gradientTransform="matrix(2.81927 0 0 .44025 20.787 2.54)" gradientUnits="userSpaceOnUse"><stop stop-color="#5C4F6B"/><stop offset=".64" stop-color="#5C4F6B" stop-opacity="0"/></radialGradient><radialGradient id="paint9_radial_18_11874" cx="0" cy="0" r="1" gradientTransform="matrix(0 .65625 -10.5757 0 22.75 28.612)" gradientUnits="userSpaceOnUse"><stop stop-color="#71A2EE"/><stop offset="1" stop-color="#71A2EE" stop-opacity="0"/></radialGradient><radialGradient id="paint12_radial_18_11874" cx="0" cy="0" r="1" gradientTransform="matrix(0 .65625 -10.5757 0 22.75 4.612)" gradientUnits="userSpaceOnUse"><stop stop-color="#71A2EE"/><stop offset="1" stop-color="#71A2EE" stop-opacity="0"/></radialGradient><radialGradient id="paint15_radial_18_11874" cx="0" cy="0" r="1" gradientTransform="matrix(0 .65625 -10.5757 0 22.75 12.612)" gradientUnits="userSpaceOnUse"><stop stop-color="#71A2EE"/><stop offset="1" stop-color="#71A2EE" stop-opacity="0"/></radialGradient><radialGradient id="paint18_radial_18_11874" cx="0" cy="0" r="1" gradientTransform="matrix(0 .65625 -10.5757 0 22.75 20.612)" gradientUnits="userSpaceOnUse"><stop stop-color="#71A2EE"/><stop offset="1" stop-color="#71A2EE" stop-opacity="0"/></radialGradient><filter id="filter0_f_18_11874" width="18.5" height="1.375" x="6.75" y="13.206" color-interpolation-filters="sRGB" filterUnits="userSpaceOnUse"><feFlood flood-opacity="0" result="BackgroundImageFix"/><feBlend in="SourceGraphic" in2="BackgroundImageFix" result="shape"/><feGaussianBlur result="effect1_foregroundBlur_18_11874" stdDeviation=".25"/></filter><filter id="filter1_f_18_11874" width="18.5" height="1.375" x="6.75" y="5.19" color-interpolation-filters="sRGB" filterUnits="userSpaceOnUse"><feFlood flood-opacity="0" result="BackgroundImageFix"/><feBlend in="SourceGraphic" in2="BackgroundImageFix" result="shape"/><feGaussianBlur result="effect1_foregroundBlur_18_11874" stdDeviation=".25"/></filter><filter id="filter2_f_18_11874" width="18.5" height="1.375" x="6.75" y="21.182" color-interpolation-filters="sRGB" filterUnits="userSpaceOnUse"><feFlood flood-opacity="0" result="BackgroundImageFix"/><feBlend in="SourceGraphic" in2="BackgroundImageFix" result="shape"/><feGaussianBlur result="effect1_foregroundBlur_18_11874" stdDeviation=".25"/></filter><filter id="filter3_f_18_11874" width="18.5" height="1.375" x="6.75" y="27.354" color-interpolation-filters="sRGB" filterUnits="userSpaceOnUse"><feFlood flood-opacity="0" result="BackgroundImageFix"/><feBlend in="SourceGraphic" in2="BackgroundImageFix" result="shape"/><feGaussianBlur result="effect1_foregroundBlur_18_11874" stdDeviation=".25"/></filter></defs></svg>