<svg xmlns="http://www.w3.org/2000/svg" width="32" height="32" fill="none" viewBox="0 0 32 32"><g filter="url(#filter0_i_3987_19890)"><circle cx="7.092" cy="17.922" r="3.113" fill="url(#paint0_radial_3987_19890)"/></g><circle cx="7.092" cy="17.922" r="3.113" fill="url(#paint1_radial_3987_19890)"/><g filter="url(#filter1_f_3987_19890)"><circle cx="7.092" cy="17.922" r="1.855" fill="url(#paint2_linear_3987_19890)"/></g><g filter="url(#filter2_i_3987_19890)"><circle cx="24.833" cy="17.922" r="3.113" fill="url(#paint3_linear_3987_19890)"/><circle cx="24.833" cy="17.922" r="3.113" fill="url(#paint4_radial_3987_19890)"/></g><g filter="url(#filter3_f_3987_19890)"><circle cx="24.833" cy="17.922" r="1.855" fill="#A57C70"/><circle cx="24.833" cy="17.922" r="1.855" fill="url(#paint5_radial_3987_19890)"/><circle cx="24.833" cy="17.922" r="1.855" fill="url(#paint6_radial_3987_19890)"/></g><g filter="url(#filter4_i_3987_19890)"><path fill="url(#paint7_radial_3987_19890)" d="m6.436 16.78.091.002s-.1-1.59-.2-2.685c0-.497.2-1.094.6-1.392l.3-.299c.5-.398.7-.994.7-1.591V9.224c0-.498.301-.896.801-.995 1.2-.298 3.701-.796 7.302-.796 3.601 0 6.102.498 7.302.796.4.1.8.497.8.995v1.59c0 .598.3 1.194.7 1.592.937.656.879 1.017.801 1.79-.1.995-.2 2.686-.2 2.686h.034l-.496 7.381c-.3 3.3-2.894 5.6-5.987 5.6h-5.987c-3.193 0-5.687-2.3-5.987-5.6l-.574-7.484Z"/><path fill="url(#paint8_linear_3987_19890)" d="m6.436 16.78.091.002s-.1-1.59-.2-2.685c0-.497.2-1.094.6-1.392l.3-.299c.5-.398.7-.994.7-1.591V9.224c0-.498.301-.896.801-.995 1.2-.298 3.701-.796 7.302-.796 3.601 0 6.102.498 7.302.796.4.1.8.497.8.995v1.59c0 .598.3 1.194.7 1.592.937.656.879 1.017.801 1.79-.1.995-.2 2.686-.2 2.686h.034l-.496 7.381c-.3 3.3-2.894 5.6-5.987 5.6h-5.987c-3.193 0-5.687-2.3-5.987-5.6l-.574-7.484Z"/><path fill="url(#paint9_radial_3987_19890)" d="m6.436 16.78.091.002s-.1-1.59-.2-2.685c0-.497.2-1.094.6-1.392l.3-.299c.5-.398.7-.994.7-1.591V9.224c0-.498.301-.896.801-.995 1.2-.298 3.701-.796 7.302-.796 3.601 0 6.102.498 7.302.796.4.1.8.497.8.995v1.59c0 .598.3 1.194.7 1.592.937.656.879 1.017.801 1.79-.1.995-.2 2.686-.2 2.686h.034l-.496 7.381c-.3 3.3-2.894 5.6-5.987 5.6h-5.987c-3.193 0-5.687-2.3-5.987-5.6l-.574-7.484Z"/><path fill="url(#paint10_radial_3987_19890)" d="m6.436 16.78.091.002s-.1-1.59-.2-2.685c0-.497.2-1.094.6-1.392l.3-.299c.5-.398.7-.994.7-1.591V9.224c0-.498.301-.896.801-.995 1.2-.298 3.701-.796 7.302-.796 3.601 0 6.102.498 7.302.796.4.1.8.497.8.995v1.59c0 .598.3 1.194.7 1.592.937.656.879 1.017.801 1.79-.1.995-.2 2.686-.2 2.686h.034l-.496 7.381c-.3 3.3-2.894 5.6-5.987 5.6h-5.987c-3.193 0-5.687-2.3-5.987-5.6l-.574-7.484Z"/><path fill="url(#paint11_radial_3987_19890)" d="m6.436 16.78.091.002s-.1-1.59-.2-2.685c0-.497.2-1.094.6-1.392l.3-.299c.5-.398.7-.994.7-1.591V9.224c0-.498.301-.896.801-.995 1.2-.298 3.701-.796 7.302-.796 3.601 0 6.102.498 7.302.796.4.1.8.497.8.995v1.59c0 .598.3 1.194.7 1.592.937.656.879 1.017.801 1.79-.1.995-.2 2.686-.2 2.686h.034l-.496 7.381c-.3 3.3-2.894 5.6-5.987 5.6h-5.987c-3.193 0-5.687-2.3-5.987-5.6l-.574-7.484Z"/><path fill="url(#paint12_radial_3987_19890)" d="m6.436 16.78.091.002s-.1-1.59-.2-2.685c0-.497.2-1.094.6-1.392l.3-.299c.5-.398.7-.994.7-1.591V9.224c0-.498.301-.896.801-.995 1.2-.298 3.701-.796 7.302-.796 3.601 0 6.102.498 7.302.796.4.1.8.497.8.995v1.59c0 .598.3 1.194.7 1.592.937.656.879 1.017.801 1.79-.1.995-.2 2.686-.2 2.686h.034l-.496 7.381c-.3 3.3-2.894 5.6-5.987 5.6h-5.987c-3.193 0-5.687-2.3-5.987-5.6l-.574-7.484Z"/><path fill="url(#paint13_linear_3987_19890)" d="m6.436 16.78.091.002s-.1-1.59-.2-2.685c0-.497.2-1.094.6-1.392l.3-.299c.5-.398.7-.994.7-1.591V9.224c0-.498.301-.896.801-.995 1.2-.298 3.701-.796 7.302-.796 3.601 0 6.102.498 7.302.796.4.1.8.497.8.995v1.59c0 .598.3 1.194.7 1.592.937.656.879 1.017.801 1.79-.1.995-.2 2.686-.2 2.686h.034l-.496 7.381c-.3 3.3-2.894 5.6-5.987 5.6h-5.987c-3.193 0-5.687-2.3-5.987-5.6l-.574-7.484Z"/><path fill="url(#paint14_radial_3987_19890)" d="m6.436 16.78.091.002s-.1-1.59-.2-2.685c0-.497.2-1.094.6-1.392l.3-.299c.5-.398.7-.994.7-1.591V9.224c0-.498.301-.896.801-.995 1.2-.298 3.701-.796 7.302-.796 3.601 0 6.102.498 7.302.796.4.1.8.497.8.995v1.59c0 .598.3 1.194.7 1.592.937.656.879 1.017.801 1.79-.1.995-.2 2.686-.2 2.686h.034l-.496 7.381c-.3 3.3-2.894 5.6-5.987 5.6h-5.987c-3.193 0-5.687-2.3-5.987-5.6l-.574-7.484Z"/></g><g filter="url(#filter5_f_3987_19890)"><path fill="url(#paint15_linear_3987_19890)" d="m24.084 7.433-5.739 1.914a1.953 1.953 0 0 0 .877 3.788l5.706-.764-.844-4.938Z"/></g><g filter="url(#filter6_i_3987_19890)"><path fill="#EBCC94" d="m24.933 5.842.8.398c1.4.696 2.2 2.287 1.9 3.978l-1.1 5.67c-.098.585-.485.979-1.066.993h-.034s.1-1.69.2-2.684c.081-.808-.06-1.054-.8-1.79-.4-.399-.7-.995-.7-1.592V9.224c0-.498-.4-.896-.8-.995-1.201-.298-3.702-.796-7.303-.796-3.6 0-6.102.498-7.302.796-.5.1-.8.497-.8.995v1.59c0 .598-.2 1.194-.7 1.592l-.3.299c-.4.298-.6.895-.6 1.392.1 1.094.2 2.685.2 2.685a1.181 1.181 0 0 1-1.2-.994l-1.101-5.67c-.2-1.59.6-3.182 2-3.878l.8-.398c.5-.298 1-.696 1.501-1.094l1.8-1.89c1.1-.994 2.701-1.293 4.102-.597 1 .299 2.1.299 3.1 0 1.501-.497 3.202-.1 4.402.995l1.5 1.492c.4.497.9.796 1.5 1.094Z"/><path fill="url(#paint16_radial_3987_19890)" d="m24.933 5.842.8.398c1.4.696 2.2 2.287 1.9 3.978l-1.1 5.67c-.098.585-.485.979-1.066.993h-.034s.1-1.69.2-2.684c.081-.808-.06-1.054-.8-1.79-.4-.399-.7-.995-.7-1.592V9.224c0-.498-.4-.896-.8-.995-1.201-.298-3.702-.796-7.303-.796-3.6 0-6.102.498-7.302.796-.5.1-.8.497-.8.995v1.59c0 .598-.2 1.194-.7 1.592l-.3.299c-.4.298-.6.895-.6 1.392.1 1.094.2 2.685.2 2.685a1.181 1.181 0 0 1-1.2-.994l-1.101-5.67c-.2-1.59.6-3.182 2-3.878l.8-.398c.5-.298 1-.696 1.501-1.094l1.8-1.89c1.1-.994 2.701-1.293 4.102-.597 1 .299 2.1.299 3.1 0 1.501-.497 3.202-.1 4.402.995l1.5 1.492c.4.497.9.796 1.5 1.094Z"/><path fill="url(#paint17_linear_3987_19890)" d="m24.933 5.842.8.398c1.4.696 2.2 2.287 1.9 3.978l-1.1 5.67c-.098.585-.485.979-1.066.993h-.034s.1-1.69.2-2.684c.081-.808-.06-1.054-.8-1.79-.4-.399-.7-.995-.7-1.592V9.224c0-.498-.4-.896-.8-.995-1.201-.298-3.702-.796-7.303-.796-3.6 0-6.102.498-7.302.796-.5.1-.8.497-.8.995v1.59c0 .598-.2 1.194-.7 1.592l-.3.299c-.4.298-.6.895-.6 1.392.1 1.094.2 2.685.2 2.685a1.181 1.181 0 0 1-1.2-.994l-1.101-5.67c-.2-1.59.6-3.182 2-3.878l.8-.398c.5-.298 1-.696 1.501-1.094l1.8-1.89c1.1-.994 2.701-1.293 4.102-.597 1 .299 2.1.299 3.1 0 1.501-.497 3.202-.1 4.402.995l1.5 1.492c.4.497.9.796 1.5 1.094Z"/><path fill="url(#paint18_radial_3987_19890)" d="m24.933 5.842.8.398c1.4.696 2.2 2.287 1.9 3.978l-1.1 5.67c-.098.585-.485.979-1.066.993h-.034s.1-1.69.2-2.684c.081-.808-.06-1.054-.8-1.79-.4-.399-.7-.995-.7-1.592V9.224c0-.498-.4-.896-.8-.995-1.201-.298-3.702-.796-7.303-.796-3.6 0-6.102.498-7.302.796-.5.1-.8.497-.8.995v1.59c0 .598-.2 1.194-.7 1.592l-.3.299c-.4.298-.6.895-.6 1.392.1 1.094.2 2.685.2 2.685a1.181 1.181 0 0 1-1.2-.994l-1.101-5.67c-.2-1.59.6-3.182 2-3.878l.8-.398c.5-.298 1-.696 1.501-1.094l1.8-1.89c1.1-.994 2.701-1.293 4.102-.597 1 .299 2.1.299 3.1 0 1.501-.497 3.202-.1 4.402.995l1.5 1.492c.4.497.9.796 1.5 1.094Z"/><path fill="url(#paint19_radial_3987_19890)" d="m24.933 5.842.8.398c1.4.696 2.2 2.287 1.9 3.978l-1.1 5.67c-.098.585-.485.979-1.066.993h-.034s.1-1.69.2-2.684c.081-.808-.06-1.054-.8-1.79-.4-.399-.7-.995-.7-1.592V9.224c0-.498-.4-.896-.8-.995-1.201-.298-3.702-.796-7.303-.796-3.6 0-6.102.498-7.302.796-.5.1-.8.497-.8.995v1.59c0 .598-.2 1.194-.7 1.592l-.3.299c-.4.298-.6.895-.6 1.392.1 1.094.2 2.685.2 2.685a1.181 1.181 0 0 1-1.2-.994l-1.101-5.67c-.2-1.59.6-3.182 2-3.878l.8-.398c.5-.298 1-.696 1.501-1.094l1.8-1.89c1.1-.994 2.701-1.293 4.102-.597 1 .299 2.1.299 3.1 0 1.501-.497 3.202-.1 4.402.995l1.5 1.492c.4.497.9.796 1.5 1.094Z"/><path fill="url(#paint20_radial_3987_19890)" d="m24.933 5.842.8.398c1.4.696 2.2 2.287 1.9 3.978l-1.1 5.67c-.098.585-.485.979-1.066.993h-.034s.1-1.69.2-2.684c.081-.808-.06-1.054-.8-1.79-.4-.399-.7-.995-.7-1.592V9.224c0-.498-.4-.896-.8-.995-1.201-.298-3.702-.796-7.303-.796-3.6 0-6.102.498-7.302.796-.5.1-.8.497-.8.995v1.59c0 .598-.2 1.194-.7 1.592l-.3.299c-.4.298-.6.895-.6 1.392.1 1.094.2 2.685.2 2.685a1.181 1.181 0 0 1-1.2-.994l-1.101-5.67c-.2-1.59.6-3.182 2-3.878l.8-.398c.5-.298 1-.696 1.501-1.094l1.8-1.89c1.1-.994 2.701-1.293 4.102-.597 1 .299 2.1.299 3.1 0 1.501-.497 3.202-.1 4.402.995l1.5 1.492c.4.497.9.796 1.5 1.094Z"/></g><path fill="url(#paint21_radial_3987_19890)" d="m24.933 5.842.8.398c1.4.696 2.2 2.287 1.9 3.978l-1.1 5.67c-.098.585-.485.979-1.066.993h-.034s.1-1.69.2-2.684c.081-.808-.06-1.054-.8-1.79-.4-.399-.7-.995-.7-1.592V9.224c0-.498-.4-.896-.8-.995-1.201-.298-3.702-.796-7.303-.796-3.6 0-6.102.498-7.302.796-.5.1-.8.497-.8.995v1.59c0 .598-.2 1.194-.7 1.592l-.3.299c-.4.298-.6.895-.6 1.392.1 1.094.2 2.685.2 2.685a1.181 1.181 0 0 1-1.2-.994l-1.101-5.67c-.2-1.59.6-3.182 2-3.878l.8-.398c.5-.298 1-.696 1.501-1.094l1.8-1.89c1.1-.994 2.701-1.293 4.102-.597 1 .299 2.1.299 3.1 0 1.501-.497 3.202-.1 4.402.995l1.5 1.492c.4.497.9.796 1.5 1.094Z"/><path fill="url(#paint22_radial_3987_19890)" d="m24.933 5.842.8.398c1.4.696 2.2 2.287 1.9 3.978l-1.1 5.67c-.098.585-.485.979-1.066.993h-.034s.1-1.69.2-2.684c.081-.808-.06-1.054-.8-1.79-.4-.399-.7-.995-.7-1.592V9.224c0-.498-.4-.896-.8-.995-1.201-.298-3.702-.796-7.303-.796-3.6 0-6.102.498-7.302.796-.5.1-.8.497-.8.995v1.59c0 .598-.2 1.194-.7 1.592l-.3.299c-.4.298-.6.895-.6 1.392.1 1.094.2 2.685.2 2.685a1.181 1.181 0 0 1-1.2-.994l-1.101-5.67c-.2-1.59.6-3.182 2-3.878l.8-.398c.5-.298 1-.696 1.501-1.094l1.8-1.89c1.1-.994 2.701-1.293 4.102-.597 1 .299 2.1.299 3.1 0 1.501-.497 3.202-.1 4.402.995l1.5 1.492c.4.497.9.796 1.5 1.094Z"/><g filter="url(#filter7_f_3987_19890)"><path fill="#87565C" d="m15.433 17.694-1.53 3.17c-.19.652.266 1.304.91 1.304h1.375c.645 0 1.1-.662.91-1.304l-.929-3.17c-.199-.702-.527-.702-.736 0Z"/></g><g filter="url(#filter8_f_3987_19890)"><path fill="#B7877D" d="m15.233 17.39-.99 3.17a1.005 1.005 0 0 0 .97 1.303h1.466c.688 0 1.173-.662.971-1.303l-.99-3.17c-.213-.702-1.204-.702-1.427 0Z"/><path fill="url(#paint23_linear_3987_19890)" d="m15.233 17.39-.99 3.17a1.005 1.005 0 0 0 .97 1.303h1.466c.688 0 1.173-.662.971-1.303l-.99-3.17c-.213-.702-1.204-.702-1.427 0Z"/><path fill="url(#paint24_linear_3987_19890)" d="m15.233 17.39-.99 3.17a1.005 1.005 0 0 0 .97 1.303h1.466c.688 0 1.173-.662.971-1.303l-.99-3.17c-.213-.702-1.204-.702-1.427 0Z"/><path fill="url(#paint25_linear_3987_19890)" d="m15.233 17.39-.99 3.17a1.005 1.005 0 0 0 .97 1.303h1.466c.688 0 1.173-.662.971-1.303l-.99-3.17c-.213-.702-1.204-.702-1.427 0Z"/><path fill="url(#paint26_radial_3987_19890)" d="m15.233 17.39-.99 3.17a1.005 1.005 0 0 0 .97 1.303h1.466c.688 0 1.173-.662.971-1.303l-.99-3.17c-.213-.702-1.204-.702-1.427 0Z"/></g><path fill="url(#paint27_linear_3987_19890)" d="m15.233 17.39-.99 3.17a1.005 1.005 0 0 0 .97 1.303h1.466c.688 0 1.173-.662.971-1.303l-.99-3.17c-.213-.702-1.204-.702-1.427 0Z"/><path fill="#88024E" stroke="url(#paint28_linear_3987_19890)" stroke-width=".1" d="M13.386 23.102a.335.335 0 0 0-.4.07.305.305 0 0 0-.033.392 3.58 3.58 0 0 0 2.993 1.6 3.58 3.58 0 0 0 2.994-1.6.31.31 0 0 0-.034-.396.336.336 0 0 0-.4-.066 5.523 5.523 0 0 1-2.56.607c-.938 0-1.82-.221-2.56-.607Z"/><g filter="url(#filter9_i_3987_19890)"><path fill="#4C3230" d="m22.883 12.85-.002-.002-.004-.003-.008-.007-.023-.018a3.698 3.698 0 0 0-.289-.2 4.816 4.816 0 0 0-.782-.393 5.282 5.282 0 0 0-2.784-.295.995.995 0 1 0 .31 1.966 3.293 3.293 0 0 1 1.742.18 2.832 2.832 0 0 1 .56.297l.015.011a.995.995 0 0 0 1.265-1.536Z"/><path fill="url(#paint29_radial_3987_19890)" d="m22.883 12.85-.002-.002-.004-.003-.008-.007-.023-.018a3.698 3.698 0 0 0-.289-.2 4.816 4.816 0 0 0-.782-.393 5.282 5.282 0 0 0-2.784-.295.995.995 0 1 0 .31 1.966 3.293 3.293 0 0 1 1.742.18 2.832 2.832 0 0 1 .56.297l.015.011a.995.995 0 0 0 1.265-1.536Z"/></g><g filter="url(#filter10_i_3987_19890)"><path fill="#4C3230" d="m8.91 12.85.002-.002.004-.003.008-.007.022-.018.067-.05c.055-.04.13-.092.222-.15.186-.116.45-.261.783-.393a5.282 5.282 0 0 1 2.784-.295.995.995 0 1 1-.31 1.966 3.294 3.294 0 0 0-1.742.18 2.836 2.836 0 0 0-.56.297l-.015.011a.995.995 0 0 1-1.266-1.536Z"/><path fill="url(#paint30_radial_3987_19890)" d="m8.91 12.85.002-.002.004-.003.008-.007.022-.018.067-.05c.055-.04.13-.092.222-.15.186-.116.45-.261.783-.393a5.282 5.282 0 0 1 2.784-.295.995.995 0 1 1-.31 1.966 3.294 3.294 0 0 0-1.742.18 2.836 2.836 0 0 0-.56.297l-.015.011a.995.995 0 0 1-1.266-1.536Z"/></g><path fill="#fff" d="M20.4 15.254c1.217 0 2.245.84 2.525 1.974a.511.511 0 0 1-.499.635h-4.16a.43.43 0 0 1-.423-.506 2.606 2.606 0 0 1 2.556-2.103Z"/><path fill="url(#paint31_radial_3987_19890)" d="M20.013 15.76a1.664 1.664 0 0 1 1.604 2.103h-3.215a1.706 1.706 0 0 1-.06-.438 1.67 1.67 0 0 1 1.671-1.664Z"/><path fill="#000" d="M19.06 17.425c0-.53.424-.953.953-.953.53 0 .953.423.953.953 0 .159-.037.31-.106.438h-1.686a.862.862 0 0 1-.113-.438Z"/><g filter="url(#filter11_f_3987_19890)"><path fill="#C7A7A3" d="M19.891 16.113c.119.158-.13.351-.41.562-.283.21-.492.359-.61.2-.119-.158.014-.457.295-.668.282-.21.607-.253.725-.095Z"/><path fill="url(#paint32_radial_3987_19890)" d="M19.891 16.113c.119.158-.13.351-.41.562-.283.21-.492.359-.61.2-.119-.158.014-.457.295-.668.282-.21.607-.253.725-.095Z"/></g><g filter="url(#filter12_f_3987_19890)"><path fill="url(#paint33_linear_3987_19890)" d="M21.495 17.206a1.566 1.566 0 0 0-.43-.863l-.485.532.218.425.698-.094Z"/></g><path fill="#fff" d="M11.484 15.254c-1.218 0-2.247.84-2.526 1.974a.511.511 0 0 0 .499.635h4.16a.43.43 0 0 0 .423-.506 2.612 2.612 0 0 0-2.556-2.103Z"/><path fill="url(#paint34_radial_3987_19890)" d="M11.87 15.76a1.664 1.664 0 0 0-1.604 2.103h3.214a1.69 1.69 0 0 0 .061-.438 1.675 1.675 0 0 0-1.671-1.664Z"/><path fill="#000" d="M12.822 17.425a.949.949 0 0 0-.952-.953.949.949 0 0 0-.954.953c0 .159.038.31.106.438h1.687a.946.946 0 0 0 .114-.438Z"/><g filter="url(#filter13_f_3987_19890)"><path fill="url(#paint35_linear_3987_19890)" d="M13.39 17.23c0-.538-.438-.897-.556-1.005l-.537.52.33.673.763-.189Z"/></g><g filter="url(#filter14_f_3987_19890)" transform="rotate(-27.914 11.367 16.472)"><ellipse cx="11.367" cy="16.472" fill="#C7A7A3" fill-opacity=".9" rx=".726" ry=".368"/><ellipse cx="11.367" cy="16.472" fill="url(#paint36_radial_3987_19890)" rx=".726" ry=".368"/></g><g filter="url(#filter15_f_3987_19890)"><path stroke="url(#paint37_linear_3987_19890)" stroke-linecap="round" stroke-width=".5" d="M19.043 12.58c.802-.14 2.366-.1 3.449.742"/></g><g filter="url(#filter16_f_3987_19890)"><path stroke="url(#paint38_linear_3987_19890)" stroke-linecap="round" stroke-width=".5" d="M9.31 13.547c.61-.54 1.942-1.107 3.593-.844"/></g><defs><radialGradient id="paint0_radial_3987_19890" cx="0" cy="0" r="1" gradientTransform="matrix(3.27255 0 0 5.72699 3.979 17.922)" gradientUnits="userSpaceOnUse"><stop offset=".351" stop-color="#865D5F"/><stop offset="1" stop-color="#76594A"/></radialGradient><radialGradient id="paint1_radial_3987_19890" cx="0" cy="0" r="1" gradientTransform="rotate(-124.98 9.024 8.67) scale(3.08956)" gradientUnits="userSpaceOnUse"><stop offset=".34" stop-color="#834E63"/><stop offset="1" stop-color="#834E63" stop-opacity="0"/></radialGradient><radialGradient id="paint4_radial_3987_19890" cx="0" cy="0" r="1" gradientTransform="matrix(1.54168 -1.12256 1.28126 1.75963 25.527 17.428)" gradientUnits="userSpaceOnUse"><stop offset=".543" stop-color="#8F6459"/><stop offset="1" stop-color="#8F6459" stop-opacity="0"/></radialGradient><radialGradient id="paint5_radial_3987_19890" cx="0" cy="0" r="1" gradientTransform="matrix(1.53153 -2.8169 1.64874 .8964 24.756 19.453)" gradientUnits="userSpaceOnUse"><stop offset=".755" stop-color="#8A5D55" stop-opacity="0"/><stop offset=".916" stop-color="#8A5D55"/></radialGradient><radialGradient id="paint6_radial_3987_19890" cx="0" cy="0" r="1" gradientTransform="rotate(44.708 -9.374 39.155) scale(.68036 .87707)" gradientUnits="userSpaceOnUse"><stop stop-color="#895F52"/><stop offset="1" stop-color="#895F52" stop-opacity="0"/></radialGradient><radialGradient id="paint7_radial_3987_19890" cx="0" cy="0" r="1" gradientTransform="matrix(-13.4375 0 0 -26.2357 24.188 20.238)" gradientUnits="userSpaceOnUse"><stop stop-color="#C89980"/><stop offset="1" stop-color="#956D63"/></radialGradient><radialGradient id="paint9_radial_3987_19890" cx="0" cy="0" r="1" gradientTransform="matrix(-2.29 14.96874 -20.3193 -3.10856 18.01 15.426)" gradientUnits="userSpaceOnUse"><stop offset=".669" stop-color="#9A5887" stop-opacity="0"/><stop offset="1" stop-color="#9A5887"/></radialGradient><radialGradient id="paint10_radial_3987_19890" cx="0" cy="0" r="1" gradientTransform="matrix(0 -2.5 2.4599 0 20.321 15.613)" gradientUnits="userSpaceOnUse"><stop offset=".237" stop-color="#AB7772"/><stop offset="1" stop-color="#AB7772" stop-opacity="0"/></radialGradient><radialGradient id="paint11_radial_3987_19890" cx="0" cy="0" r="1" gradientTransform="matrix(0 -2.59375 3.22556 0 11.821 15.488)" gradientUnits="userSpaceOnUse"><stop stop-color="#8E5C65"/><stop offset="1" stop-color="#8E5C65" stop-opacity="0"/></radialGradient><radialGradient id="paint12_radial_3987_19890" cx="0" cy="0" r="1" gradientTransform="rotate(149.494 11.777 8.644) scale(10.5441 9.09392)" gradientUnits="userSpaceOnUse"><stop stop-color="#CCA186"/><stop offset="1" stop-color="#CCA186" stop-opacity="0"/></radialGradient><radialGradient id="paint14_radial_3987_19890" cx="0" cy="0" r="1" gradientTransform="matrix(3.88029 4.55934 -3.93228 3.34662 7.523 6.861)" gradientUnits="userSpaceOnUse"><stop stop-color="#8A6753"/><stop offset="1" stop-color="#8A6753" stop-opacity="0"/></radialGradient><radialGradient id="paint16_radial_3987_19890" cx="0" cy="0" r="1" gradientTransform="matrix(-6.4087 8.25997 -14.04691 -10.89865 22.832 3.538)" gradientUnits="userSpaceOnUse"><stop stop-color="#FFFFC2"/><stop offset="1" stop-color="#FFFFC2" stop-opacity="0"/></radialGradient><radialGradient id="paint18_radial_3987_19890" cx="0" cy="0" r="1" gradientTransform="matrix(-.12461 -3.47136 1.70486 -.0612 8.127 11.478)" gradientUnits="userSpaceOnUse"><stop offset=".227" stop-color="#EEC19C"/><stop offset="1" stop-color="#EEC19C" stop-opacity="0"/></radialGradient><radialGradient id="paint19_radial_3987_19890" cx="0" cy="0" r="1" gradientTransform="matrix(1.60216 -3.6672 2.99087 1.30668 23.829 14.682)" gradientUnits="userSpaceOnUse"><stop offset=".479" stop-color="#E3AB85"/><stop offset="1" stop-color="#E3AB85" stop-opacity="0"/></radialGradient><radialGradient id="paint20_radial_3987_19890" cx="0" cy="0" r="1" gradientTransform="matrix(1.85139 2.29723 -2.0283 1.63465 14.5 1.882)" gradientUnits="userSpaceOnUse"><stop stop-color="#FBECAF"/><stop offset="1" stop-color="#FBECAF" stop-opacity="0"/></radialGradient><radialGradient id="paint21_radial_3987_19890" cx="0" cy="0" r="1" gradientTransform="rotate(76.961 7.437 11.787) scale(1.4992 2.4647)" gradientUnits="userSpaceOnUse"><stop offset=".208" stop-color="#E1D19F"/><stop offset="1" stop-color="#E1D19F" stop-opacity="0"/></radialGradient><radialGradient id="paint22_radial_3987_19890" cx="0" cy="0" r="1" gradientTransform="matrix(1.35294 1.67337 -3.7494 3.03145 7.843 5.105)" gradientUnits="userSpaceOnUse"><stop stop-color="#DCC291"/><stop offset="1" stop-color="#DCC291" stop-opacity="0"/></radialGradient><radialGradient id="paint26_radial_3987_19890" cx="0" cy="0" r="1" gradientTransform="matrix(0 .36719 -1.17969 0 16.556 20.918)" gradientUnits="userSpaceOnUse"><stop stop-color="#C39787"/><stop offset="1" stop-color="#C39787" stop-opacity="0"/></radialGradient><radialGradient id="paint29_radial_3987_19890" cx="0" cy="0" r="1" gradientTransform="matrix(.1943 -1.125 3.32822 .57484 20.502 14.035)" gradientUnits="userSpaceOnUse"><stop stop-color="#422235"/><stop offset="1" stop-color="#422235" stop-opacity="0"/></radialGradient><radialGradient id="paint30_radial_3987_19890" cx="0" cy="0" r="1" gradientTransform="rotate(-80.2 13.785 .544) scale(1.14166 3.37768)" gradientUnits="userSpaceOnUse"><stop stop-color="#422235"/><stop offset="1" stop-color="#422235" stop-opacity="0"/></radialGradient><radialGradient id="paint31_radial_3987_19890" cx="0" cy="0" r="1" gradientTransform="matrix(0 1.68424 -1.9929 0 20.01 17.272)" gradientUnits="userSpaceOnUse"><stop offset=".75" stop-color="#925C51"/><stop offset="1" stop-color="#694B43"/><stop offset="1" stop-color="#804D49"/><stop offset="1" stop-color="#85534D"/></radialGradient><radialGradient id="paint32_radial_3987_19890" cx="0" cy="0" r="1" gradientTransform="rotate(-127.812 13.908 3.608) scale(.70528 .97101)" gradientUnits="userSpaceOnUse"><stop offset=".766" stop-color="#FFE6E2" stop-opacity="0"/><stop offset=".966" stop-color="#FFE6E2"/></radialGradient><radialGradient id="paint34_radial_3987_19890" cx="0" cy="0" r="1" gradientTransform="matrix(0 1.68433 -1.993 0 11.873 17.272)" gradientUnits="userSpaceOnUse"><stop offset=".75" stop-color="#925C51"/><stop offset="1" stop-color="#694B43"/><stop offset="1" stop-color="#804D49"/><stop offset="1" stop-color="#85534D"/></radialGradient><radialGradient id="paint36_radial_3987_19890" cx="0" cy="0" r="1" gradientTransform="rotate(-90.897 14.067 2.948) scale(.92129 1.10743)" gradientUnits="userSpaceOnUse"><stop offset=".766" stop-color="#FFE6E2" stop-opacity="0"/><stop offset=".966" stop-color="#FFE6E2"/></radialGradient><filter id="filter0_i_3987_19890" width="6.427" height="6.227" x="3.979" y="14.809" color-interpolation-filters="sRGB" filterUnits="userSpaceOnUse"><feFlood flood-opacity="0" result="BackgroundImageFix"/><feBlend in="SourceGraphic" in2="BackgroundImageFix" result="shape"/><feColorMatrix in="SourceAlpha" result="hardAlpha" values="0 0 0 0 0 0 0 0 0 0 0 0 0 0 0 0 0 0 127 0"/><feOffset dx=".2"/><feGaussianBlur stdDeviation=".15"/><feComposite in2="hardAlpha" k2="-1" k3="1" operator="arithmetic"/><feColorMatrix values="0 0 0 0 0.619608 0 0 0 0 0.470588 0 0 0 0 0.407843 0 0 0 1 0"/><feBlend in2="shape" result="effect1_innerShadow_3987_19890"/></filter><filter id="filter1_f_3987_19890" width="4.711" height="4.711" x="4.737" y="15.566" color-interpolation-filters="sRGB" filterUnits="userSpaceOnUse"><feFlood flood-opacity="0" result="BackgroundImageFix"/><feBlend in="SourceGraphic" in2="BackgroundImageFix" result="shape"/><feGaussianBlur result="effect1_foregroundBlur_3987_19890" stdDeviation=".25"/></filter><filter id="filter2_i_3987_19890" width="6.477" height="6.477" x="21.72" y="14.559" color-interpolation-filters="sRGB" filterUnits="userSpaceOnUse"><feFlood flood-opacity="0" result="BackgroundImageFix"/><feBlend in="SourceGraphic" in2="BackgroundImageFix" result="shape"/><feColorMatrix in="SourceAlpha" result="hardAlpha" values="0 0 0 0 0 0 0 0 0 0 0 0 0 0 0 0 0 0 127 0"/><feOffset dx=".25" dy="-.25"/><feGaussianBlur stdDeviation=".25"/><feComposite in2="hardAlpha" k2="-1" k3="1" operator="arithmetic"/><feColorMatrix values="0 0 0 0 0.584314 0 0 0 0 0.368627 0 0 0 0 0.470588 0 0 0 1 0"/><feBlend in2="shape" result="effect1_innerShadow_3987_19890"/></filter><filter id="filter3_f_3987_19890" width="4.711" height="4.711" x="22.478" y="15.566" color-interpolation-filters="sRGB" filterUnits="userSpaceOnUse"><feFlood flood-opacity="0" result="BackgroundImageFix"/><feBlend in="SourceGraphic" in2="BackgroundImageFix" result="shape"/><feGaussianBlur result="effect1_foregroundBlur_3987_19890" stdDeviation=".25"/></filter><filter id="filter4_i_3987_19890" width="19.345" height="22.63" x="6.327" y="7.433" color-interpolation-filters="sRGB" filterUnits="userSpaceOnUse"><feFlood flood-opacity="0" result="BackgroundImageFix"/><feBlend in="SourceGraphic" in2="BackgroundImageFix" result="shape"/><feColorMatrix in="SourceAlpha" result="hardAlpha" values="0 0 0 0 0 0 0 0 0 0 0 0 0 0 0 0 0 0 127 0"/><feOffset dy=".2"/><feGaussianBlur stdDeviation=".2"/><feComposite in2="hardAlpha" k2="-1" k3="1" operator="arithmetic"/><feColorMatrix values="0 0 0 0 0.501961 0 0 0 0 0.333333 0 0 0 0 0.254902 0 0 0 1 0"/><feBlend in2="shape" result="effect1_innerShadow_3987_19890"/></filter><filter id="filter5_f_3987_19890" width="11.918" height="9.719" x="15.009" y="5.433" color-interpolation-filters="sRGB" filterUnits="userSpaceOnUse"><feFlood flood-opacity="0" result="BackgroundImageFix"/><feBlend in="SourceGraphic" in2="BackgroundImageFix" result="shape"/><feGaussianBlur result="effect1_foregroundBlur_3987_19890" stdDeviation="1"/></filter><filter id="filter6_i_3987_19890" width="23.5" height="15.5" x="4.196" y="1.382" color-interpolation-filters="sRGB" filterUnits="userSpaceOnUse"><feFlood flood-opacity="0" result="BackgroundImageFix"/><feBlend in="SourceGraphic" in2="BackgroundImageFix" result="shape"/><feColorMatrix in="SourceAlpha" result="hardAlpha" values="0 0 0 0 0 0 0 0 0 0 0 0 0 0 0 0 0 0 127 0"/><feOffset dy="-.5"/><feGaussianBlur stdDeviation=".375"/><feComposite in2="hardAlpha" k2="-1" k3="1" operator="arithmetic"/><feColorMatrix values="0 0 0 0 0.952941 0 0 0 0 0.737255 0 0 0 0 0.576471 0 0 0 1 0"/><feBlend in2="shape" result="effect1_innerShadow_3987_19890"/></filter><filter id="filter7_f_3987_19890" width="4.782" height="6.5" x="13.11" y="16.418" color-interpolation-filters="sRGB" filterUnits="userSpaceOnUse"><feFlood flood-opacity="0" result="BackgroundImageFix"/><feBlend in="SourceGraphic" in2="BackgroundImageFix" result="shape"/><feGaussianBlur result="effect1_foregroundBlur_3987_19890" stdDeviation=".375"/></filter><filter id="filter8_f_3987_19890" width="4" height="5.5" x="13.946" y="16.613" color-interpolation-filters="sRGB" filterUnits="userSpaceOnUse"><feFlood flood-opacity="0" result="BackgroundImageFix"/><feBlend in="SourceGraphic" in2="BackgroundImageFix" result="shape"/><feGaussianBlur result="effect1_foregroundBlur_3987_19890" stdDeviation=".125"/></filter><filter id="filter9_i_3987_19890" width="5.34" height="3.147" x="18.151" y="11.463" color-interpolation-filters="sRGB" filterUnits="userSpaceOnUse"><feFlood flood-opacity="0" result="BackgroundImageFix"/><feBlend in="SourceGraphic" in2="BackgroundImageFix" result="shape"/><feColorMatrix in="SourceAlpha" result="hardAlpha" values="0 0 0 0 0 0 0 0 0 0 0 0 0 0 0 0 0 0 127 0"/><feOffset dx=".25" dy="-.4"/><feGaussianBlur stdDeviation=".3"/><feComposite in2="hardAlpha" k2="-1" k3="1" operator="arithmetic"/><feColorMatrix values="0 0 0 0 0.254902 0 0 0 0 0.156863 0 0 0 0 0.152941 0 0 0 1 0"/><feBlend in2="shape" result="effect1_innerShadow_3987_19890"/></filter><filter id="filter10_i_3987_19890" width="5.341" height="3.147" x="8.551" y="11.463" color-interpolation-filters="sRGB" filterUnits="userSpaceOnUse"><feFlood flood-opacity="0" result="BackgroundImageFix"/><feBlend in="SourceGraphic" in2="BackgroundImageFix" result="shape"/><feColorMatrix in="SourceAlpha" result="hardAlpha" values="0 0 0 0 0 0 0 0 0 0 0 0 0 0 0 0 0 0 127 0"/><feOffset dx=".25" dy="-.4"/><feGaussianBlur stdDeviation=".3"/><feComposite in2="hardAlpha" k2="-1" k3="1" operator="arithmetic"/><feColorMatrix values="0 0 0 0 0.254902 0 0 0 0 0.156863 0 0 0 0 0.152941 0 0 0 1 0"/><feBlend in2="shape" result="effect1_innerShadow_3987_19890"/></filter><filter id="filter11_f_3987_19890" width="1.294" height="1.125" x="18.727" y="15.916" color-interpolation-filters="sRGB" filterUnits="userSpaceOnUse"><feFlood flood-opacity="0" result="BackgroundImageFix"/><feBlend in="SourceGraphic" in2="BackgroundImageFix" result="shape"/><feGaussianBlur result="effect1_foregroundBlur_3987_19890" stdDeviation=".05"/></filter><filter id="filter12_f_3987_19890" width="1.316" height="1.357" x="20.38" y="16.143" color-interpolation-filters="sRGB" filterUnits="userSpaceOnUse"><feFlood flood-opacity="0" result="BackgroundImageFix"/><feBlend in="SourceGraphic" in2="BackgroundImageFix" result="shape"/><feGaussianBlur result="effect1_foregroundBlur_3987_19890" stdDeviation=".1"/></filter><filter id="filter13_f_3987_19890" width="1.493" height="1.594" x="12.097" y="16.025" color-interpolation-filters="sRGB" filterUnits="userSpaceOnUse"><feFlood flood-opacity="0" result="BackgroundImageFix"/><feBlend in="SourceGraphic" in2="BackgroundImageFix" result="shape"/><feGaussianBlur result="effect1_foregroundBlur_3987_19890" stdDeviation=".1"/></filter><filter id="filter14_f_3987_19890" width="1.529" height="1.141" x="10.603" y="15.902" color-interpolation-filters="sRGB" filterUnits="userSpaceOnUse"><feFlood flood-opacity="0" result="BackgroundImageFix"/><feBlend in="SourceGraphic" in2="BackgroundImageFix" result="shape"/><feGaussianBlur result="effect1_foregroundBlur_3987_19890" stdDeviation=".05"/></filter><filter id="filter15_f_3987_19890" width="4.949" height="2.304" x="18.293" y="11.768" color-interpolation-filters="sRGB" filterUnits="userSpaceOnUse"><feFlood flood-opacity="0" result="BackgroundImageFix"/><feBlend in="SourceGraphic" in2="BackgroundImageFix" result="shape"/><feGaussianBlur result="effect1_foregroundBlur_3987_19890" stdDeviation=".25"/></filter><filter id="filter16_f_3987_19890" width="5.094" height="2.41" x="8.56" y="11.887" color-interpolation-filters="sRGB" filterUnits="userSpaceOnUse"><feFlood flood-opacity="0" result="BackgroundImageFix"/><feBlend in="SourceGraphic" in2="BackgroundImageFix" result="shape"/><feGaussianBlur result="effect1_foregroundBlur_3987_19890" stdDeviation=".25"/></filter><linearGradient id="paint2_linear_3987_19890" x1="7.092" x2="5.898" y1="18.442" y2="18.442" gradientUnits="userSpaceOnUse"><stop stop-color="#694448"/><stop offset="1" stop-color="#6E464D"/></linearGradient><linearGradient id="paint3_linear_3987_19890" x1="26.859" x2="25.332" y1="15.886" y2="20.616" gradientUnits="userSpaceOnUse"><stop stop-color="#CCA68C"/><stop offset="1" stop-color="#AE7F75"/></linearGradient><linearGradient id="paint8_linear_3987_19890" x1="6.327" x2="9.469" y1="23.27" y2="22.863" gradientUnits="userSpaceOnUse"><stop stop-color="#9C7569"/><stop offset="1" stop-color="#9C7569" stop-opacity="0"/></linearGradient><linearGradient id="paint13_linear_3987_19890" x1="15.438" x2="15.438" y1="30.27" y2="29.301" gradientUnits="userSpaceOnUse"><stop stop-color="#A56B9F"/><stop offset="1" stop-color="#A56B9F" stop-opacity="0"/></linearGradient><linearGradient id="paint15_linear_3987_19890" x1="15.701" x2="30.889" y1="13.082" y2="7.645" gradientUnits="userSpaceOnUse"><stop stop-color="#9D756D"/><stop offset="1" stop-color="#9D756D" stop-opacity="0"/></linearGradient><linearGradient id="paint17_linear_3987_19890" x1="6.881" x2="12.293" y1="17.424" y2="7.811" gradientUnits="userSpaceOnUse"><stop stop-color="#E8AD8E"/><stop offset="1" stop-color="#E8AD8E" stop-opacity="0"/></linearGradient><linearGradient id="paint23_linear_3987_19890" x1="14.335" x2="16.084" y1="19.878" y2="19.878" gradientUnits="userSpaceOnUse"><stop stop-color="#8B6455"/><stop offset="1" stop-color="#8B6455" stop-opacity="0"/></linearGradient><linearGradient id="paint24_linear_3987_19890" x1="17.696" x2="15.784" y1="20.479" y2="20.452" gradientUnits="userSpaceOnUse"><stop stop-color="#CDA186"/><stop offset="1" stop-color="#CDA186" stop-opacity="0"/></linearGradient><linearGradient id="paint25_linear_3987_19890" x1="16.309" x2="16.309" y1="21.863" y2="20.795" gradientUnits="userSpaceOnUse"><stop stop-color="#9C6073"/><stop offset="1" stop-color="#9C6073" stop-opacity="0"/></linearGradient><linearGradient id="paint27_linear_3987_19890" x1="16.181" x2="16.181" y1="21.942" y2="21.629" gradientUnits="userSpaceOnUse"><stop stop-color="#8E5263"/><stop offset="1" stop-color="#8E5263" stop-opacity="0"/></linearGradient><linearGradient id="paint28_linear_3987_19890" x1="14.012" x2="14.824" y1="24.875" y2="23.593" gradientUnits="userSpaceOnUse"><stop stop-color="#A87D7B"/><stop offset=".663" stop-color="#A87D7B" stop-opacity="0"/></linearGradient><linearGradient id="paint33_linear_3987_19890" x1="21.46" x2="20.875" y1="16.751" y2="17.111" gradientUnits="userSpaceOnUse"><stop stop-color="#B4948D"/><stop offset="1" stop-color="#B4948D" stop-opacity="0"/></linearGradient><linearGradient id="paint35_linear_3987_19890" x1="13.26" x2="12.675" y1="16.751" y2="17.111" gradientUnits="userSpaceOnUse"><stop stop-color="#B4948D"/><stop offset="1" stop-color="#B4948D" stop-opacity="0"/></linearGradient><linearGradient id="paint37_linear_3987_19890" x1="21.489" x2="20.706" y1="12.761" y2="11.159" gradientUnits="userSpaceOnUse"><stop stop-color="#5B4545"/><stop offset="1" stop-color="#5B4545" stop-opacity="0"/></linearGradient><linearGradient id="paint38_linear_3987_19890" x1="11.597" x2="9.379" y1="12.522" y2="11.592" gradientUnits="userSpaceOnUse"><stop stop-color="#5B4545"/><stop offset="1" stop-color="#5B4545" stop-opacity="0"/></linearGradient></defs></svg>