<svg xmlns="http://www.w3.org/2000/svg" width="32" height="32" fill="none" viewBox="0 0 32 32"><circle cx="10.674" cy="16.165" r="4.086" fill="url(#paint0_radial_4002_788)"/><circle cx="10.674" cy="16.165" r="4.086" fill="url(#paint1_radial_4002_788)"/><circle cx="8.275" cy="23.368" r="6.305" fill="url(#paint2_radial_4002_788)"/><circle r="4.086" fill="url(#paint3_radial_4002_788)" transform="matrix(-1 0 0 1 21.326 16.165)"/><circle r="4.086" fill="url(#paint4_radial_4002_788)" transform="matrix(-1 0 0 1 21.326 16.165)"/><circle r="6.305" fill="url(#paint5_radial_4002_788)" transform="matrix(-1 0 0 1 23.725 23.368)"/><path fill="url(#paint6_radial_4002_788)" d="M26.947 29.939c0-7.961-4.617-9.875-5.375-10.383l-5.047 10.383h10.422Z"/><path fill="url(#paint7_linear_4002_788)" d="M26.947 29.939c0-7.961-4.617-9.875-5.375-10.383l-5.047 10.383h10.422Z"/><path fill="url(#paint8_linear_4002_788)" d="M26.947 29.939c0-7.961-4.617-9.875-5.375-10.383l-5.047 10.383h10.422Z"/><path fill="url(#paint9_radial_4002_788)" d="M5.096 29.939c0-7.961 4.617-9.875 5.375-10.383l5.047 10.383H5.096Z"/><path fill="url(#paint10_linear_4002_788)" d="M5.096 29.939c0-7.961 4.617-9.875 5.375-10.383l5.047 10.383H5.096Z"/><path fill="#ED561D" d="M9.9 17.353c.641-1.313 1.82-1.75 2.594-1.75h2.61v2.875h-2.47c-.168.303-.002.85.102 1.086l4.317 10.39h-3.176c-1.068-2.583-3.292-7.817-3.68-8.742-.42-1.004-.89-2.476-.297-3.86Z"/><path fill="url(#paint11_radial_4002_788)" d="M9.9 17.353c.641-1.313 1.82-1.75 2.594-1.75h2.61v2.875h-2.47c-.168.303-.002.85.102 1.086l4.317 10.39h-3.176c-1.068-2.583-3.292-7.817-3.68-8.742-.42-1.004-.89-2.476-.297-3.86Z"/><path fill="url(#paint12_linear_4002_788)" d="M9.9 17.353c.641-1.313 1.82-1.75 2.594-1.75h2.61v2.875h-2.47c-.168.303-.002.85.102 1.086l4.317 10.39h-3.176c-1.068-2.583-3.292-7.817-3.68-8.742-.42-1.004-.89-2.476-.297-3.86Z"/><path fill="url(#paint13_radial_4002_788)" d="M9.9 17.353c.641-1.313 1.82-1.75 2.594-1.75h2.61v2.875h-2.47c-.168.303-.002.85.102 1.086l4.317 10.39h-3.176c-1.068-2.583-3.292-7.817-3.68-8.742-.42-1.004-.89-2.476-.297-3.86Z"/><path fill="url(#paint14_linear_4002_788)" d="M9.9 17.353c.641-1.313 1.82-1.75 2.594-1.75h2.61v2.875h-2.47c-.168.303-.002.85.102 1.086l4.317 10.39h-3.176c-1.068-2.583-3.292-7.817-3.68-8.742-.42-1.004-.89-2.476-.297-3.86Z"/><path fill="url(#paint15_radial_4002_788)" d="M9.9 17.353c.641-1.313 1.82-1.75 2.594-1.75h2.61v2.875h-2.47c-.168.303-.002.85.102 1.086l4.317 10.39h-3.176c-1.068-2.583-3.292-7.817-3.68-8.742-.42-1.004-.89-2.476-.297-3.86Z"/><path fill="url(#paint16_radial_4002_788)" d="M9.9 17.353c.641-1.313 1.82-1.75 2.594-1.75h2.61v2.875h-2.47c-.168.303-.002.85.102 1.086l4.317 10.39h-3.176c-1.068-2.583-3.292-7.817-3.68-8.742-.42-1.004-.89-2.476-.297-3.86Z"/><path fill="#EC551B" d="M21.82 17.353c-.641-1.313-1.82-1.75-2.594-1.75h-2.61v2.875h2.47c.168.303.002.85-.102 1.086l-3.939 10.39h3.176c1.068-2.583 2.995-7.817 3.383-8.742.42-1.004.81-2.476.216-3.86Z"/><path fill="url(#paint17_linear_4002_788)" d="M21.82 17.353c-.641-1.313-1.82-1.75-2.594-1.75h-2.61v2.875h2.47c.168.303.002.85-.102 1.086l-3.939 10.39h3.176c1.068-2.583 2.995-7.817 3.383-8.742.42-1.004.81-2.476.216-3.86Z"/><path fill="url(#paint18_radial_4002_788)" d="M21.82 17.353c-.641-1.313-1.82-1.75-2.594-1.75h-2.61v2.875h2.47c.168.303.002.85-.102 1.086l-3.939 10.39h3.176c1.068-2.583 2.995-7.817 3.383-8.742.42-1.004.81-2.476.216-3.86Z"/><path fill="url(#paint19_radial_4002_788)" d="M21.82 17.353c-.641-1.313-1.82-1.75-2.594-1.75h-2.61v2.875h2.47c.168.303.002.85-.102 1.086l-3.939 10.39h3.176c1.068-2.583 2.995-7.817 3.383-8.742.42-1.004.81-2.476.216-3.86Z"/><g filter="url(#filter0_i_4002_788)"><path fill="url(#paint20_linear_4002_788)" d="M14.01 16.517h4v.887c.01.175.045.374.152.53a.813.813 0 0 0 .445.333l.465.164c.076.068.22.478.04.984-.181.505-2.043 5.51-3.095 8.02v.02c0-.004-.002-.007-.004-.01 0 .003-.002.006-.004.01v-.02c-1.052-2.51-3.186-7.515-3.366-8.02-.182-.506-.076-.87 0-.937l.68-.192c.218-.062.373-.14.515-.347.113-.166.158-.39.172-.572v-.85Z"/><path fill="url(#paint21_radial_4002_788)" d="M14.01 16.517h4v.887c.01.175.045.374.152.53a.813.813 0 0 0 .445.333l.465.164c.076.068.22.478.04.984-.181.505-2.043 5.51-3.095 8.02v.02c0-.004-.002-.007-.004-.01 0 .003-.002.006-.004.01v-.02c-1.052-2.51-3.186-7.515-3.366-8.02-.182-.506-.076-.87 0-.937l.68-.192c.218-.062.373-.14.515-.347.113-.166.158-.39.172-.572v-.85Z"/><path fill="url(#paint22_radial_4002_788)" d="M14.01 16.517h4v.887c.01.175.045.374.152.53a.813.813 0 0 0 .445.333l.465.164c.076.068.22.478.04.984-.181.505-2.043 5.51-3.095 8.02v.02c0-.004-.002-.007-.004-.01 0 .003-.002.006-.004.01v-.02c-1.052-2.51-3.186-7.515-3.366-8.02-.182-.506-.076-.87 0-.937l.68-.192c.218-.062.373-.14.515-.347.113-.166.158-.39.172-.572v-.85Z"/></g><path fill="#E8D6FF" d="M1.97 24.017h3.298a5.938 5.938 0 0 1 5.937 5.937H1.971v-5.937Zm28.06 0h-3.298a5.938 5.938 0 0 0-5.937 5.937h9.234v-5.937Z" opacity=".5"/><g filter="url(#filter1_f_4002_788)"><path stroke="#E7B39A" stroke-linecap="round" stroke-width=".6" d="M16.152 18.338c.19.027.71.032 1.275-.163"/></g><path fill="url(#paint23_radial_4002_788)" d="M20.808 12.272c.34-.01.657-.126.916-.312v.943a2.2 2.2 0 0 1-1.358 2.044c.172-.367.291-.767.35-1.195l.092-1.48Z"/><path fill="url(#paint24_radial_4002_788)" d="M10.96 12.272a1.661 1.661 0 0 1-.915-.312v.943a2.2 2.2 0 0 0 1.358 2.044 4.136 4.136 0 0 1-.35-1.195l-.092-1.48Z"/><path fill="url(#paint25_radial_4002_788)" d="M10.96 12.272a1.661 1.661 0 0 1-.915-.312v.943a2.2 2.2 0 0 0 1.358 2.044 4.136 4.136 0 0 1-.35-1.195l-.092-1.48Z"/><path fill="url(#paint26_radial_4002_788)" d="M10.96 12.272a1.661 1.661 0 0 1-.915-.312v.943a2.2 2.2 0 0 0 1.358 2.044 4.136 4.136 0 0 1-.35-1.195l-.092-1.48Z"/><path fill="url(#paint27_radial_4002_788)" d="M10.96 12.272a1.661 1.661 0 0 1-.915-.312v.943a2.2 2.2 0 0 0 1.358 2.044 4.136 4.136 0 0 1-.35-1.195l-.092-1.48Z"/><g filter="url(#filter2_ii_4002_788)"><path fill="url(#paint28_radial_4002_788)" d="M10.998 13.807a3.966 3.966 0 0 0 3.935 3.45h1.91a3.966 3.966 0 0 0 3.936-3.45c.12-1.908.24-3.808.329-5.715a1.468 1.468 0 0 0-1.397-1.45h-1.418a2.453 2.453 0 0 1-2.24-1.462.673.673 0 0 0-.623-.424h-1.29c-1.869 0-3.384 1.532-3.384 3.423 0 1.884.118 3.738.242 5.628Z"/></g><path fill="url(#paint29_linear_4002_788)" d="M10.998 13.807a3.966 3.966 0 0 0 3.935 3.45h1.91a3.966 3.966 0 0 0 3.936-3.45c.12-1.908.24-3.808.329-5.715a1.468 1.468 0 0 0-1.397-1.45h-1.418a2.453 2.453 0 0 1-2.24-1.462.673.673 0 0 0-.623-.424h-1.29c-1.869 0-3.384 1.532-3.384 3.423 0 1.884.118 3.738.242 5.628Z"/><path fill="url(#paint30_radial_4002_788)" d="M10.998 13.807a3.966 3.966 0 0 0 3.935 3.45h1.91a3.966 3.966 0 0 0 3.936-3.45c.12-1.908.24-3.808.329-5.715a1.468 1.468 0 0 0-1.397-1.45h-1.418a2.453 2.453 0 0 1-2.24-1.462.673.673 0 0 0-.623-.424h-1.29c-1.869 0-3.384 1.532-3.384 3.423 0 1.884.118 3.738.242 5.628Z"/><path fill="url(#paint31_radial_4002_788)" d="M10.998 13.807a3.966 3.966 0 0 0 3.935 3.45h1.91a3.966 3.966 0 0 0 3.936-3.45c.12-1.908.24-3.808.329-5.715a1.468 1.468 0 0 0-1.397-1.45h-1.418a2.453 2.453 0 0 1-2.24-1.462.673.673 0 0 0-.623-.424h-1.29c-1.869 0-3.384 1.532-3.384 3.423 0 1.884.118 3.738.242 5.628Z"/><path fill="url(#paint32_radial_4002_788)" d="M10.998 13.807a3.966 3.966 0 0 0 3.935 3.45h1.91a3.966 3.966 0 0 0 3.936-3.45c.12-1.908.24-3.808.329-5.715a1.468 1.468 0 0 0-1.397-1.45h-1.418a2.453 2.453 0 0 1-2.24-1.462.673.673 0 0 0-.623-.424h-1.29c-1.869 0-3.384 1.532-3.384 3.423 0 1.884.118 3.738.242 5.628Z"/><path fill="url(#paint33_radial_4002_788)" d="M10.998 13.807a3.966 3.966 0 0 0 3.935 3.45h1.91a3.966 3.966 0 0 0 3.936-3.45c.12-1.908.24-3.808.329-5.715a1.468 1.468 0 0 0-1.397-1.45h-1.418a2.453 2.453 0 0 1-2.24-1.462.673.673 0 0 0-.623-.424h-1.29c-1.869 0-3.384 1.532-3.384 3.423 0 1.884.118 3.738.242 5.628Z"/><path fill="url(#paint34_radial_4002_788)" d="M10.998 13.807a3.966 3.966 0 0 0 3.935 3.45h1.91a3.966 3.966 0 0 0 3.936-3.45c.12-1.908.24-3.808.329-5.715a1.468 1.468 0 0 0-1.397-1.45h-1.418a2.453 2.453 0 0 1-2.24-1.462.673.673 0 0 0-.623-.424h-1.29c-1.869 0-3.384 1.532-3.384 3.423 0 1.884.118 3.738.242 5.628Z"/><path fill="url(#paint35_radial_4002_788)" d="M10.998 13.807a3.966 3.966 0 0 0 3.935 3.45h1.91a3.966 3.966 0 0 0 3.936-3.45c.12-1.908.24-3.808.329-5.715a1.468 1.468 0 0 0-1.397-1.45h-1.418a2.453 2.453 0 0 1-2.24-1.462.673.673 0 0 0-.623-.424h-1.29c-1.869 0-3.384 1.532-3.384 3.423 0 1.884.118 3.738.242 5.628Z"/><path fill="url(#paint36_radial_4002_788)" d="M10.998 13.807a3.966 3.966 0 0 0 3.935 3.45h1.91a3.966 3.966 0 0 0 3.936-3.45c.12-1.908.24-3.808.329-5.715a1.468 1.468 0 0 0-1.397-1.45h-1.418a2.453 2.453 0 0 1-2.24-1.462.673.673 0 0 0-.623-.424h-1.29c-1.869 0-3.384 1.532-3.384 3.423 0 1.884.118 3.738.242 5.628Z"/><g filter="url(#filter3_f_4002_788)"><path fill="#C48377" d="m15.448 10.666-.7 1.677c-.103.383.143.765.492.765h.744c.35 0 .596-.388.493-.765l-.503-1.862c-.108-.413-.413-.228-.526.185Z"/></g><g filter="url(#filter4_f_4002_788)"><path fill="url(#paint37_linear_4002_788)" d="m15.497 10.283-.538 1.861c-.11.383.154.766.527.766h.796c.374 0 .638-.389.528-.766l-.538-1.861c-.116-.413-.654-.413-.775 0Z"/><path fill="url(#paint38_linear_4002_788)" d="m15.497 10.283-.538 1.861c-.11.383.154.766.527.766h.796c.374 0 .638-.389.528-.766l-.538-1.861c-.116-.413-.654-.413-.775 0Z"/><path fill="url(#paint39_linear_4002_788)" d="m15.497 10.283-.538 1.861c-.11.383.154.766.527.766h.796c.374 0 .638-.389.528-.766l-.538-1.861c-.116-.413-.654-.413-.775 0Z"/><path fill="url(#paint40_linear_4002_788)" d="m15.497 10.283-.538 1.861c-.11.383.154.766.527.766h.796c.374 0 .638-.389.528-.766l-.538-1.861c-.116-.413-.654-.413-.775 0Z"/></g><g filter="url(#filter5_f_4002_788)"><path stroke="url(#paint41_radial_4002_788)" stroke-width=".15" d="M14.516 13.54c.395.207.866.325 1.369.325.507 0 .973-.118 1.368-.324a.23.23 0 0 1 .274.044c.065.068.09.177.024.275m-3.035-.32 2.972.279m-2.972-.278a.23.23 0 0 0-.274.047.214.214 0 0 0-.023.273m.297-.32-.235.278m3.27.041-.063-.041m.063.041-.063-.041m.063.041c-.353.535-.967.89-1.666.89a1.993 1.993 0 0 1-1.666-.889m3.27-.042a1.92 1.92 0 0 1-1.604.857 1.918 1.918 0 0 1-1.604-.857m-.062.042.062-.042m-.062.042.062-.042"/></g><path fill="url(#paint42_radial_4002_788)" d="M15.885 13.94c-.514 0-.998-.121-1.404-.333-.138-.07-.287.086-.2.212.34.514.93.857 1.604.857.673 0 1.264-.343 1.603-.857.088-.131-.061-.282-.2-.212a3.028 3.028 0 0 1-1.403.333Z"/><g filter="url(#filter6_ii_4002_788)"><path fill="url(#paint43_linear_4002_788)" d="M20.801 4.278c.521.18.989.544 1.284 1.065a2.401 2.401 0 0 1-.107 2.559 1.58 1.58 0 0 0-.274.885V9.99a1.76 1.76 0 0 0-.676-.271l.08-1.627a1.468 1.468 0 0 0-1.397-1.45h-1.418a2.453 2.453 0 0 1-2.24-1.462.673.673 0 0 0-.623-.424h-1.29c-1.869 0-3.384 1.532-3.384 3.423l.031 1.557a1.732 1.732 0 0 0-.73.267V8.787a1.58 1.58 0 0 0-.273-.885 2.421 2.421 0 0 1-.145-2.477 2.37 2.37 0 0 1 1.316-1.141 2.716 2.716 0 0 0 1.402-1.125 2.355 2.355 0 0 1 2.928-.923 1.51 1.51 0 0 0 1.208 0c.285-.12.597-.19.924-.19.854 0 1.6.461 2.015 1.146.311.516.8.89 1.37 1.086Z"/><path fill="url(#paint44_radial_4002_788)" d="M20.801 4.278c.521.18.989.544 1.284 1.065a2.401 2.401 0 0 1-.107 2.559 1.58 1.58 0 0 0-.274.885V9.99a1.76 1.76 0 0 0-.676-.271l.08-1.627a1.468 1.468 0 0 0-1.397-1.45h-1.418a2.453 2.453 0 0 1-2.24-1.462.673.673 0 0 0-.623-.424h-1.29c-1.869 0-3.384 1.532-3.384 3.423l.031 1.557a1.732 1.732 0 0 0-.73.267V8.787a1.58 1.58 0 0 0-.273-.885 2.421 2.421 0 0 1-.145-2.477 2.37 2.37 0 0 1 1.316-1.141 2.716 2.716 0 0 0 1.402-1.125 2.355 2.355 0 0 1 2.928-.923 1.51 1.51 0 0 0 1.208 0c.285-.12.597-.19.924-.19.854 0 1.6.461 2.015 1.146.311.516.8.89 1.37 1.086Z"/><path fill="url(#paint45_radial_4002_788)" d="M20.801 4.278c.521.18.989.544 1.284 1.065a2.401 2.401 0 0 1-.107 2.559 1.58 1.58 0 0 0-.274.885V9.99a1.76 1.76 0 0 0-.676-.271l.08-1.627a1.468 1.468 0 0 0-1.397-1.45h-1.418a2.453 2.453 0 0 1-2.24-1.462.673.673 0 0 0-.623-.424h-1.29c-1.869 0-3.384 1.532-3.384 3.423l.031 1.557a1.732 1.732 0 0 0-.73.267V8.787a1.58 1.58 0 0 0-.273-.885 2.421 2.421 0 0 1-.145-2.477 2.37 2.37 0 0 1 1.316-1.141 2.716 2.716 0 0 0 1.402-1.125 2.355 2.355 0 0 1 2.928-.923 1.51 1.51 0 0 0 1.208 0c.285-.12.597-.19.924-.19.854 0 1.6.461 2.015 1.146.311.516.8.89 1.37 1.086Z"/><path fill="url(#paint46_radial_4002_788)" d="M20.801 4.278c.521.18.989.544 1.284 1.065a2.401 2.401 0 0 1-.107 2.559 1.58 1.58 0 0 0-.274.885V9.99a1.76 1.76 0 0 0-.676-.271l.08-1.627a1.468 1.468 0 0 0-1.397-1.45h-1.418a2.453 2.453 0 0 1-2.24-1.462.673.673 0 0 0-.623-.424h-1.29c-1.869 0-3.384 1.532-3.384 3.423l.031 1.557a1.732 1.732 0 0 0-.73.267V8.787a1.58 1.58 0 0 0-.273-.885 2.421 2.421 0 0 1-.145-2.477 2.37 2.37 0 0 1 1.316-1.141 2.716 2.716 0 0 0 1.402-1.125 2.355 2.355 0 0 1 2.928-.923 1.51 1.51 0 0 0 1.208 0c.285-.12.597-.19.924-.19.854 0 1.6.461 2.015 1.146.311.516.8.89 1.37 1.086Z"/><path fill="url(#paint47_radial_4002_788)" d="M20.801 4.278c.521.18.989.544 1.284 1.065a2.401 2.401 0 0 1-.107 2.559 1.58 1.58 0 0 0-.274.885V9.99a1.76 1.76 0 0 0-.676-.271l.08-1.627a1.468 1.468 0 0 0-1.397-1.45h-1.418a2.453 2.453 0 0 1-2.24-1.462.673.673 0 0 0-.623-.424h-1.29c-1.869 0-3.384 1.532-3.384 3.423l.031 1.557a1.732 1.732 0 0 0-.73.267V8.787a1.58 1.58 0 0 0-.273-.885 2.421 2.421 0 0 1-.145-2.477 2.37 2.37 0 0 1 1.316-1.141 2.716 2.716 0 0 0 1.402-1.125 2.355 2.355 0 0 1 2.928-.923 1.51 1.51 0 0 0 1.208 0c.285-.12.597-.19.924-.19.854 0 1.6.461 2.015 1.146.311.516.8.89 1.37 1.086Z"/></g><g filter="url(#filter7_i_4002_788)"><path fill="#A06937" d="M19.665 7.988a1.877 1.877 0 0 0-.696-.416c-.308-.097-.694-.123-1.228-.058a.281.281 0 0 0 .068.558c.488-.06.786-.029.991.036.201.063.337.165.496.304a.28.28 0 0 0 .37-.424Z"/></g><g filter="url(#filter8_i_4002_788)"><path fill="#A06937" d="M12.43 7.878a2.81 2.81 0 0 1 1.761-.364.281.281 0 0 1-.068.558 2.248 2.248 0 0 0-1.404.288 1.384 1.384 0 0 0-.093.06l-.003.003a.28.28 0 0 1-.344-.444l.151-.101Z"/></g><g filter="url(#filter9_f_4002_788)"><path fill="url(#paint48_radial_4002_788)" d="M16.12 5.319a2.45 2.45 0 0 1-.067-.139.673.673 0 0 0-.623-.424h-1.29c-1.869 0-3.384 1.532-3.384 3.423v.278c-.344-.262-.777-.814-.777-1.709 0-1.086.792-1.634 1.297-1.984.142-.1.262-.182.335-.257l.1-.106c.354-.375.985-1.044 2.087-1.337a5.542 5.542 0 0 1 1.537-.167c.473.013.806.42.806.894v1.514l-.021.014Z"/><path fill="url(#paint49_radial_4002_788)" d="M16.12 5.319a2.45 2.45 0 0 1-.067-.139.673.673 0 0 0-.623-.424h-1.29c-1.869 0-3.384 1.532-3.384 3.423v.278c-.344-.262-.777-.814-.777-1.709 0-1.086.792-1.634 1.297-1.984.142-.1.262-.182.335-.257l.1-.106c.354-.375.985-1.044 2.087-1.337a5.542 5.542 0 0 1 1.537-.167c.473.013.806.42.806.894v1.514l-.021.014Z"/></g><g filter="url(#filter10_f_4002_788)"><path fill="url(#paint50_radial_4002_788)" d="m21.164 8.734-.03-.64c-.01-.772-.65-1.41-1.423-1.443h-1.418c-.9 0-1.721-.492-2.151-1.276 0 0-.063-.146-.127-.394-.251-.971.675-1.713 1.66-1.524.991.19 2.125.524 2.962 1.07 1.766 1.152 1.457 3.229.527 4.207Z"/><path fill="url(#paint51_radial_4002_788)" d="m21.164 8.734-.03-.64c-.01-.772-.65-1.41-1.423-1.443h-1.418c-.9 0-1.721-.492-2.151-1.276 0 0-.063-.146-.127-.394-.251-.971.675-1.713 1.66-1.524.991.19 2.125.524 2.962 1.07 1.766 1.152 1.457 3.229.527 4.207Z"/><path fill="url(#paint52_radial_4002_788)" d="m21.164 8.734-.03-.64c-.01-.772-.65-1.41-1.423-1.443h-1.418c-.9 0-1.721-.492-2.151-1.276 0 0-.063-.146-.127-.394-.251-.971.675-1.713 1.66-1.524.991.19 2.125.524 2.962 1.07 1.766 1.152 1.457 3.229.527 4.207Z"/><path fill="url(#paint53_radial_4002_788)" d="m21.164 8.734-.03-.64c-.01-.772-.65-1.41-1.423-1.443h-1.418c-.9 0-1.721-.492-2.151-1.276 0 0-.063-.146-.127-.394-.251-.971.675-1.713 1.66-1.524.991.19 2.125.524 2.962 1.07 1.766 1.152 1.457 3.229.527 4.207Z"/><path fill="url(#paint54_radial_4002_788)" d="m21.164 8.734-.03-.64c-.01-.772-.65-1.41-1.423-1.443h-1.418c-.9 0-1.721-.492-2.151-1.276 0 0-.063-.146-.127-.394-.251-.971.675-1.713 1.66-1.524.991.19 2.125.524 2.962 1.07 1.766 1.152 1.457 3.229.527 4.207Z"/><path fill="url(#paint55_radial_4002_788)" d="m21.164 8.734-.03-.64c-.01-.772-.65-1.41-1.423-1.443h-1.418c-.9 0-1.721-.492-2.151-1.276 0 0-.063-.146-.127-.394-.251-.971.675-1.713 1.66-1.524.991.19 2.125.524 2.962 1.07 1.766 1.152 1.457 3.229.527 4.207Z"/></g><path fill="#fff" d="M18.306 9.32c.662 0 1.22.456 1.372 1.072a.278.278 0 0 1-.27.345h-2.26a.233.233 0 0 1-.23-.275 1.416 1.416 0 0 1 1.388-1.142Z"/><path fill="url(#paint56_radial_4002_788)" d="M18.096 9.595a.904.904 0 0 1 .872 1.142H17.22a.907.907 0 0 1 .875-1.142Z"/><path fill="#000" d="M17.579 10.5c0-.289.23-.519.517-.519a.516.516 0 0 1 .46.756h-.916a.468.468 0 0 1-.061-.238Z"/><g filter="url(#filter11_f_4002_788)"><path fill="#C7A7A3" d="M18.03 9.786c.064.086-.07.191-.223.306-.153.114-.267.195-.331.109-.065-.087.007-.25.16-.364.153-.114.33-.137.394-.05Z"/><path fill="url(#paint57_radial_4002_788)" d="M18.03 9.786c.064.086-.07.191-.223.306-.153.114-.267.195-.331.109-.065-.087.007-.25.16-.364.153-.114.33-.137.394-.05Z"/></g><g filter="url(#filter12_f_4002_788)"><path fill="url(#paint58_linear_4002_788)" d="M18.902 10.38a.85.85 0 0 0-.235-.469l-.263.29.119.23.379-.051Z"/></g><path fill="#fff" d="M13.463 9.32c-.662 0-1.22.456-1.372 1.072a.278.278 0 0 0 .27.345h2.26a.233.233 0 0 0 .23-.275 1.42 1.42 0 0 0-1.388-1.142Z"/><path fill="url(#paint59_radial_4002_788)" d="M13.672 9.595a.904.904 0 0 0-.87 1.142h1.746a.928.928 0 0 0 .033-.238.91.91 0 0 0-.909-.904Z"/><path fill="#000" d="M14.19 10.499a.516.516 0 0 0-.518-.518.516.516 0 0 0-.46.756h.917a.514.514 0 0 0 .061-.238Z"/><g filter="url(#filter13_f_4002_788)"><path fill="url(#paint60_linear_4002_788)" d="M14.498 10.393c0-.292-.237-.487-.302-.546l-.292.283.18.366.414-.103Z"/></g><g filter="url(#filter14_f_4002_788)" transform="rotate(-27.914 13.4 9.981)"><ellipse cx="13.4" cy="9.981" fill="#C7A7A3" fill-opacity=".9" rx=".395" ry=".2"/><ellipse cx="13.4" cy="9.981" fill="url(#paint61_radial_4002_788)" rx=".395" ry=".2"/></g><path fill="url(#paint62_linear_4002_788)" d="M20.87 12.364c.066-1.078.13-2.154.186-3.232a1.63 1.63 0 0 1-.187 3.232Z"/><path fill="url(#paint63_radial_4002_788)" d="M20.87 12.364c.066-1.078.13-2.154.186-3.232a1.63 1.63 0 0 1-.187 3.232Z"/><path fill="url(#paint64_radial_4002_788)" d="M20.87 12.364c.066-1.078.13-2.154.186-3.232a1.63 1.63 0 0 1-.187 3.232Z"/><path fill="url(#paint65_linear_4002_788)" d="M10.766 9.124a1.63 1.63 0 0 0 .14 3.24 78.875 78.875 0 0 1-.14-3.24Z"/><path fill="url(#paint66_radial_4002_788)" d="M10.766 9.124a1.63 1.63 0 0 0 .14 3.24 78.875 78.875 0 0 1-.14-3.24Z"/><g filter="url(#filter15_f_4002_788)"><path fill="#B57562" d="M10.783 9.793a.968.968 0 0 0 .084 1.904 79.123 79.123 0 0 1-.084-1.904Z"/></g><g filter="url(#filter16_f_4002_788)"><path fill="#E6AA8B" d="M20.91 11.705c.039-.643.077-1.285.112-1.928a.968.968 0 0 1-.112 1.928Z"/></g><g filter="url(#filter17_f_4002_788)"><path stroke="#B17847" stroke-linecap="round" stroke-width=".25" d="M12.468 8.161c.26-.186.909-.515 1.676-.386"/></g><g filter="url(#filter18_f_4002_788)"><path stroke="#B17847" stroke-linecap="round" stroke-width=".25" d="M19.491 8.114c-.26-.186-.91-.515-1.676-.386"/></g><defs><radialGradient id="paint0_radial_4002_788" cx="0" cy="0" r="1" gradientTransform="matrix(3.59375 -2.4375 2.72822 4.02238 6.877 17.33)" gradientUnits="userSpaceOnUse"><stop stop-color="#E1DAE6"/><stop offset="1" stop-color="#E6DEE6"/></radialGradient><radialGradient id="paint1_radial_4002_788" cx="0" cy="0" r="1" gradientTransform="matrix(-.01562 -1.76562 2.48224 -.02197 8.596 17.83)" gradientUnits="userSpaceOnUse"><stop offset=".384" stop-color="#DAD4DE"/><stop offset="1" stop-color="#DAD4DE" stop-opacity="0"/></radialGradient><radialGradient id="paint2_radial_4002_788" cx="0" cy="0" r="1" gradientTransform="matrix(-5.47138 9.4622 -7.02133 -4.05998 10.46 19.268)" gradientUnits="userSpaceOnUse"><stop stop-color="#E0D6E3"/><stop offset="1" stop-color="#D5C4DF"/></radialGradient><radialGradient id="paint3_radial_4002_788" cx="0" cy="0" r="1" gradientTransform="rotate(44.444 -1.585 1.225) scale(4.68833)" gradientUnits="userSpaceOnUse"><stop stop-color="#FBF7FF"/><stop offset=".836" stop-color="#F2E8F1"/></radialGradient><radialGradient id="paint4_radial_4002_788" cx="0" cy="0" r="1" gradientTransform="matrix(-.03125 -1.59375 5.11385 -.10027 2.316 5.313)" gradientUnits="userSpaceOnUse"><stop offset=".201" stop-color="#E8DEE9"/><stop offset="1" stop-color="#E8DEE9" stop-opacity="0"/></radialGradient><radialGradient id="paint5_radial_4002_788" cx="0" cy="0" r="1" gradientTransform="matrix(4.95236 7.33803 -10.65664 7.19205 1.352 1.24)" gradientUnits="userSpaceOnUse"><stop offset=".192" stop-color="#F3EBFE"/><stop offset=".819" stop-color="#DAC9F0"/></radialGradient><radialGradient id="paint6_radial_4002_788" cx="0" cy="0" r="1" gradientTransform="matrix(-1.35939 5.78125 -6.81223 -1.6018 23.096 22.58)" gradientUnits="userSpaceOnUse"><stop stop-color="#FF8244"/><stop offset="1" stop-color="#F65C3E"/></radialGradient><radialGradient id="paint9_radial_4002_788" cx="0" cy="0" r="1" gradientTransform="matrix(6.87457 8.07189 -11.19707 9.5362 6.418 22.32)" gradientUnits="userSpaceOnUse"><stop stop-color="#E06D3D"/><stop offset="1" stop-color="#DD3D3D"/></radialGradient><radialGradient id="paint11_radial_4002_788" cx="0" cy="0" r="1" gradientTransform="rotate(136.439 3.601 10.943) scale(4.39871 9.16434)" gradientUnits="userSpaceOnUse"><stop offset=".208" stop-color="#B22307"/><stop offset="1" stop-color="#E24C14" stop-opacity="0"/></radialGradient><radialGradient id="paint13_radial_4002_788" cx="0" cy="0" r="1" gradientTransform="matrix(-4.82764 -11.66358 1.58185 -.65474 15.958 28.962)" gradientUnits="userSpaceOnUse"><stop stop-color="#F47246"/><stop offset="1" stop-color="#F47246" stop-opacity="0"/></radialGradient><radialGradient id="paint15_radial_4002_788" cx="0" cy="0" r="1" gradientTransform="matrix(-1.37282 -3.155 .92095 -.40073 16.346 27.58)" gradientUnits="userSpaceOnUse"><stop stop-color="#C03005"/><stop offset="1" stop-color="#D84F1A" stop-opacity="0"/></radialGradient><radialGradient id="paint16_radial_4002_788" cx="0" cy="0" r="1" gradientTransform="matrix(-1.15863 -1.17796 1.62432 -1.59766 14.336 18.515)" gradientUnits="userSpaceOnUse"><stop offset=".328" stop-color="#9E2625"/><stop offset="1" stop-color="#9E2625" stop-opacity="0"/></radialGradient><radialGradient id="paint18_radial_4002_788" cx="0" cy="0" r="1" gradientTransform="matrix(2.01563 -.67188 .83418 2.50254 17.502 18.33)" gradientUnits="userSpaceOnUse"><stop offset=".374" stop-color="#99201F"/><stop offset="1" stop-color="#D03D1C" stop-opacity="0"/></radialGradient><radialGradient id="paint19_radial_4002_788" cx="0" cy="0" r="1" gradientTransform="rotate(110.875 2.49 18.294) scale(11.8396 2.00952)" gradientUnits="userSpaceOnUse"><stop stop-color="#FF7347"/><stop offset="1" stop-color="#F6682E" stop-opacity="0"/></radialGradient><radialGradient id="paint21_radial_4002_788" cx="0" cy="0" r="1" gradientTransform="matrix(1.8125 1.75 -2.19025 2.26847 13.158 17.204)" gradientUnits="userSpaceOnUse"><stop offset=".047" stop-color="#AB5E45"/><stop offset="1" stop-color="#C38266" stop-opacity="0"/></radialGradient><radialGradient id="paint22_radial_4002_788" cx="0" cy="0" r="1" gradientTransform="matrix(0 3.01211 -.76307 0 16.64 16.221)" gradientUnits="userSpaceOnUse"><stop stop-color="#E2AA93"/><stop offset="1" stop-color="#E2AA93" stop-opacity="0"/><stop offset="1" stop-color="#E2AA93" stop-opacity="0"/></radialGradient><radialGradient id="paint23_radial_4002_788" cx="0" cy="0" r="1" gradientTransform="matrix(-.61715 3.57976 -4.25248 -.73313 21.413 11.792)" gradientUnits="userSpaceOnUse"><stop offset=".28" stop-color="#F7BF94"/><stop offset="1" stop-color="#DA8F78"/></radialGradient><radialGradient id="paint24_radial_4002_788" cx="0" cy="0" r="1" gradientTransform="rotate(64.592 -4.422 14.16) scale(3.00702 1.36683)" gradientUnits="userSpaceOnUse"><stop stop-color="#F8BF95"/><stop offset="1" stop-color="#DC998E"/></radialGradient><radialGradient id="paint25_radial_4002_788" cx="0" cy="0" r="1" gradientTransform="matrix(.1816 1.20893 -1.06048 .1593 11.077 11.871)" gradientUnits="userSpaceOnUse"><stop offset=".263" stop-color="#D79B77"/><stop offset="1" stop-color="#D79B77" stop-opacity="0"/></radialGradient><radialGradient id="paint26_radial_4002_788" cx="0" cy="0" r="1" gradientTransform="rotate(64.592 -4.422 14.16) scale(3.00702 1.36683)" gradientUnits="userSpaceOnUse"><stop stop-color="#F8BF95"/><stop offset="1" stop-color="#DC998E"/></radialGradient><radialGradient id="paint27_radial_4002_788" cx="0" cy="0" r="1" gradientTransform="matrix(.1816 1.20893 -1.06048 .1593 11.077 11.871)" gradientUnits="userSpaceOnUse"><stop offset=".263" stop-color="#D79B77"/><stop offset="1" stop-color="#D79B77" stop-opacity="0"/></radialGradient><radialGradient id="paint28_radial_4002_788" cx="0" cy="0" r="1" gradientTransform="matrix(-5.29484 0 0 -9.36652 18.728 11.006)" gradientUnits="userSpaceOnUse"><stop stop-color="#FFC59F"/><stop offset="1" stop-color="#C8917D"/></radialGradient><radialGradient id="paint30_radial_4002_788" cx="0" cy="0" r="1" gradientTransform="matrix(-1.15764 13.12916 -10.87252 -.95866 17.486 5.017)" gradientUnits="userSpaceOnUse"><stop offset=".778" stop-color="#C9937F" stop-opacity="0"/><stop offset="1" stop-color="#B36E91"/></radialGradient><radialGradient id="paint31_radial_4002_788" cx="0" cy="0" r="1" gradientTransform="matrix(0 -1.35809 1.68063 0 18.363 9.872)" gradientUnits="userSpaceOnUse"><stop offset=".325" stop-color="#E4A38D"/><stop offset="1" stop-color="#E4A38D" stop-opacity="0"/></radialGradient><radialGradient id="paint32_radial_4002_788" cx="0" cy="0" r="1" gradientTransform="matrix(-.0588 -1.11753 1.21615 -.064 13.617 9.733)" gradientUnits="userSpaceOnUse"><stop offset=".378" stop-color="#C2847C"/><stop offset="1" stop-color="#C2847C" stop-opacity="0"/></radialGradient><radialGradient id="paint33_radial_4002_788" cx="0" cy="0" r="1" gradientTransform="matrix(1.22228 0 0 6.21257 10.941 11.396)" gradientUnits="userSpaceOnUse"><stop stop-color="#DBA085"/><stop offset="1" stop-color="#DBA085" stop-opacity="0"/></radialGradient><radialGradient id="paint34_radial_4002_788" cx="0" cy="0" r="1" gradientTransform="matrix(2.64824 -3.7008 .83824 .59983 9.956 7.967)" gradientUnits="userSpaceOnUse"><stop offset=".451" stop-color="#B67459"/><stop offset="1" stop-color="#B67459" stop-opacity="0"/></radialGradient><radialGradient id="paint35_radial_4002_788" cx="0" cy="0" r="1" gradientTransform="matrix(-2.44452 -10.37418 11.42754 -2.69272 15.728 15.13)" gradientUnits="userSpaceOnUse"><stop offset=".924" stop-color="#C17F5F" stop-opacity="0"/><stop offset="1" stop-color="#C17F5F"/></radialGradient><radialGradient id="paint36_radial_4002_788" cx="0" cy="0" r="1" gradientTransform="matrix(2.07108 .72997 -.4379 1.24243 17.867 5.556)" gradientUnits="userSpaceOnUse"><stop offset=".258" stop-color="#C17F5F"/><stop offset="1" stop-color="#C17F5F" stop-opacity="0"/></radialGradient><radialGradient id="paint41_radial_4002_788" cx="0" cy="0" r="1" gradientTransform="matrix(.35161 -.62738 1.8257 1.0232 14.743 14.337)" gradientUnits="userSpaceOnUse"><stop stop-color="#D0978E"/><stop offset="1" stop-color="#D0978E" stop-opacity="0"/></radialGradient><radialGradient id="paint42_radial_4002_788" cx="0" cy="0" r="1" gradientTransform="matrix(0 -.72997 2.93686 0 15.885 14.59)" gradientUnits="userSpaceOnUse"><stop stop-color="#89024E"/><stop offset="1" stop-color="#87004D"/></radialGradient><radialGradient id="paint44_radial_4002_788" cx="0" cy="0" r="1" gradientTransform="matrix(0 -3.6792 6.51882 0 10.588 9.404)" gradientUnits="userSpaceOnUse"><stop stop-color="#E7B286"/><stop offset="1" stop-color="#E7B286" stop-opacity="0"/></radialGradient><radialGradient id="paint45_radial_4002_788" cx="0" cy="0" r="1" gradientTransform="matrix(0 -3.6792 6.51882 0 20.807 9.404)" gradientUnits="userSpaceOnUse"><stop stop-color="#F6CB9C"/><stop offset="1" stop-color="#F6CB9C" stop-opacity="0"/></radialGradient><radialGradient id="paint46_radial_4002_788" cx="0" cy="0" r="1" gradientTransform="matrix(-3.29336 -1.25623 .66903 -1.75393 20.043 3.047)" gradientUnits="userSpaceOnUse"><stop stop-color="#FFFFC1"/><stop offset="1" stop-color="#FFFFC1" stop-opacity="0"/></radialGradient><radialGradient id="paint47_radial_4002_788" cx="0" cy="0" r="1" gradientTransform="rotate(58.465 6.202 14.09) scale(1.75274 4.05851)" gradientUnits="userSpaceOnUse"><stop offset=".287" stop-color="#DDCA94"/><stop offset="1" stop-color="#DDCA94" stop-opacity="0"/></radialGradient><radialGradient id="paint48_radial_4002_788" cx="0" cy="0" r="1" gradientTransform="matrix(-3.8557 1.39118 -.3872 -1.07313 16.141 2.895)" gradientUnits="userSpaceOnUse"><stop stop-color="#FFFCBE"/><stop offset="1" stop-color="#FFFCBE" stop-opacity="0"/></radialGradient><radialGradient id="paint49_radial_4002_788" cx="0" cy="0" r="1" gradientTransform="matrix(3.2594 -5.16073 5.71756 3.61109 10.384 7.716)" gradientUnits="userSpaceOnUse"><stop offset=".093" stop-color="#D5A088"/><stop offset=".233" stop-color="#E4B99B"/><stop offset="1" stop-color="#E4B99B" stop-opacity="0"/></radialGradient><radialGradient id="paint50_radial_4002_788" cx="0" cy="0" r="1" gradientTransform="matrix(3.42917 .81109 -.45362 1.91782 19.552 4.07)" gradientUnits="userSpaceOnUse"><stop stop-color="#FFFFC7"/><stop offset="1" stop-color="#FFFFC7" stop-opacity="0"/></radialGradient><radialGradient id="paint51_radial_4002_788" cx="0" cy="0" r="1" gradientTransform="matrix(-2.17614 -3.75116 2.092 -1.21361 21.08 8.734)" gradientUnits="userSpaceOnUse"><stop stop-color="#E3B593"/><stop offset="1" stop-color="#E4B78D" stop-opacity="0"/></radialGradient><radialGradient id="paint52_radial_4002_788" cx="0" cy="0" r="1" gradientTransform="matrix(-1.32412 -2.23051 1.59762 -.9484 20.451 8.43)" gradientUnits="userSpaceOnUse"><stop offset=".057" stop-color="#DFB086"/><stop offset="1" stop-color="#DFB086" stop-opacity="0"/></radialGradient><radialGradient id="paint53_radial_4002_788" cx="0" cy="0" r="1" gradientTransform="rotate(166.509 10.136 3.203) scale(4.99782 5.40284)" gradientUnits="userSpaceOnUse"><stop offset=".652" stop-color="#EBCD93" stop-opacity="0"/><stop offset="1" stop-color="#EBCD93"/></radialGradient><radialGradient id="paint54_radial_4002_788" cx="0" cy="0" r="1" gradientTransform="matrix(-.11884 .38865 -1.77684 -.5433 19.382 3.825)" gradientUnits="userSpaceOnUse"><stop offset=".461" stop-color="#FFED93"/><stop offset="1" stop-color="#FFED93" stop-opacity="0"/></radialGradient><radialGradient id="paint55_radial_4002_788" cx="0" cy="0" r="1" gradientTransform="rotate(117.979 8.79 7.32) scale(4.30594 11.1038)" gradientUnits="userSpaceOnUse"><stop offset=".651" stop-color="#E1B395" stop-opacity="0"/><stop offset="1" stop-color="#E1B395"/></radialGradient><radialGradient id="paint56_radial_4002_788" cx="0" cy="0" r="1" gradientTransform="matrix(0 .82172 -1.30703 0 18.094 10.078)" gradientUnits="userSpaceOnUse"><stop offset=".802" stop-color="#925C51"/><stop offset="1" stop-color="#694B43"/><stop offset="1" stop-color="#804D49"/><stop offset="1" stop-color="#85534D"/></radialGradient><radialGradient id="paint57_radial_4002_788" cx="0" cy="0" r="1" gradientTransform="matrix(-.23489 -.3027 .41673 -.32338 17.863 10.163)" gradientUnits="userSpaceOnUse"><stop offset=".766" stop-color="#FFE6E2" stop-opacity="0"/><stop offset=".966" stop-color="#FFE6E2"/></radialGradient><radialGradient id="paint59_radial_4002_788" cx="0" cy="0" r="1" gradientTransform="matrix(0 .82176 -1.3071 0 13.675 10.078)" gradientUnits="userSpaceOnUse"><stop offset=".802" stop-color="#925C51"/><stop offset="1" stop-color="#694B43"/><stop offset="1" stop-color="#804D49"/><stop offset="1" stop-color="#85534D"/></radialGradient><radialGradient id="paint61_radial_4002_788" cx="0" cy="0" r="1" gradientTransform="rotate(-90.897 11.762 -1.438) scale(.50048 .60159)" gradientUnits="userSpaceOnUse"><stop offset=".766" stop-color="#FFE6E2" stop-opacity="0"/><stop offset=".966" stop-color="#FFE6E2"/></radialGradient><radialGradient id="paint63_radial_4002_788" cx="0" cy="0" r="1" gradientTransform="matrix(.6366 2.27202 -2.16769 .60737 20.561 10.092)" gradientUnits="userSpaceOnUse"><stop offset=".856" stop-color="#CE8D79" stop-opacity="0"/><stop offset="1" stop-color="#CE8D79"/></radialGradient><radialGradient id="paint64_radial_4002_788" cx="0" cy="0" r="1" gradientTransform="matrix(.79788 -1.09496 .9178 .66878 20.926 10.644)" gradientUnits="userSpaceOnUse"><stop offset=".664" stop-color="#E3A17B"/><stop offset="1" stop-color="#E3A17B" stop-opacity="0"/></radialGradient><radialGradient id="paint66_radial_4002_788" cx="0" cy="0" r="1" gradientTransform="matrix(-1.69648 -.2481 .2439 -1.66779 10.906 10.744)" gradientUnits="userSpaceOnUse"><stop offset=".775" stop-color="#DCA187" stop-opacity="0"/><stop offset="1" stop-color="#C77937"/><stop offset="1" stop-color="#DCA187"/></radialGradient><filter id="filter0_i_4002_788" width="6.906" height="10.938" x="12.293" y="16.517" color-interpolation-filters="sRGB" filterUnits="userSpaceOnUse"><feFlood flood-opacity="0" result="BackgroundImageFix"/><feBlend in="SourceGraphic" in2="BackgroundImageFix" result="shape"/><feColorMatrix in="SourceAlpha" result="hardAlpha" values="0 0 0 0 0 0 0 0 0 0 0 0 0 0 0 0 0 0 127 0"/><feOffset dx="-.25"/><feGaussianBlur stdDeviation=".5"/><feComposite in2="hardAlpha" k2="-1" k3="1" operator="arithmetic"/><feColorMatrix values="0 0 0 0 0.741176 0 0 0 0 0.458824 0 0 0 0 0.321569 0 0 0 1 0"/><feBlend in2="shape" result="effect1_innerShadow_4002_788"/></filter><filter id="filter1_f_4002_788" width="3.076" height="1.977" x="15.252" y="17.275" color-interpolation-filters="sRGB" filterUnits="userSpaceOnUse"><feFlood flood-opacity="0" result="BackgroundImageFix"/><feBlend in="SourceGraphic" in2="BackgroundImageFix" result="shape"/><feGaussianBlur result="effect1_foregroundBlur_4002_788" stdDeviation=".3"/></filter><filter id="filter2_ii_4002_788" width="11.101" height="12.7" x="10.756" y="4.756" color-interpolation-filters="sRGB" filterUnits="userSpaceOnUse"><feFlood flood-opacity="0" result="BackgroundImageFix"/><feBlend in="SourceGraphic" in2="BackgroundImageFix" result="shape"/><feColorMatrix in="SourceAlpha" result="hardAlpha" values="0 0 0 0 0 0 0 0 0 0 0 0 0 0 0 0 0 0 127 0"/><feOffset dx=".75"/><feGaussianBlur stdDeviation=".6"/><feComposite in2="hardAlpha" k2="-1" k3="1" operator="arithmetic"/><feColorMatrix values="0 0 0 0 0.843137 0 0 0 0 0.611765 0 0 0 0 0.498039 0 0 0 1 0"/><feBlend in2="shape" result="effect1_innerShadow_4002_788"/><feColorMatrix in="SourceAlpha" result="hardAlpha" values="0 0 0 0 0 0 0 0 0 0 0 0 0 0 0 0 0 0 127 0"/><feOffset dy=".2"/><feGaussianBlur stdDeviation=".375"/><feComposite in2="hardAlpha" k2="-1" k3="1" operator="arithmetic"/><feColorMatrix values="0 0 0 0 0.776471 0 0 0 0 0.54902 0 0 0 0 0.423529 0 0 0 1 0"/><feBlend in2="effect1_innerShadow_4002_788" result="effect2_innerShadow_4002_788"/></filter><filter id="filter3_f_4002_788" width="3.777" height="4.86" x="13.724" y="9.249" color-interpolation-filters="sRGB" filterUnits="userSpaceOnUse"><feFlood flood-opacity="0" result="BackgroundImageFix"/><feBlend in="SourceGraphic" in2="BackgroundImageFix" result="shape"/><feGaussianBlur result="effect1_foregroundBlur_4002_788" stdDeviation=".5"/></filter><filter id="filter4_f_4002_788" width="2.101" height="3.137" x="14.834" y="9.873" color-interpolation-filters="sRGB" filterUnits="userSpaceOnUse"><feFlood flood-opacity="0" result="BackgroundImageFix"/><feBlend in="SourceGraphic" in2="BackgroundImageFix" result="shape"/><feGaussianBlur result="effect1_foregroundBlur_4002_788" stdDeviation=".05"/></filter><filter id="filter5_f_4002_788" width="3.76" height="1.587" x="14.005" y="13.339" color-interpolation-filters="sRGB" filterUnits="userSpaceOnUse"><feFlood flood-opacity="0" result="BackgroundImageFix"/><feBlend in="SourceGraphic" in2="BackgroundImageFix" result="shape"/><feGaussianBlur result="effect1_foregroundBlur_4002_788" stdDeviation=".05"/></filter><filter id="filter6_ii_4002_788" width="13.038" height="8.457" x="9.365" y="1.546" color-interpolation-filters="sRGB" filterUnits="userSpaceOnUse"><feFlood flood-opacity="0" result="BackgroundImageFix"/><feBlend in="SourceGraphic" in2="BackgroundImageFix" result="shape"/><feColorMatrix in="SourceAlpha" result="hardAlpha" values="0 0 0 0 0 0 0 0 0 0 0 0 0 0 0 0 0 0 127 0"/><feOffset dy="-.5"/><feGaussianBlur stdDeviation=".625"/><feComposite in2="hardAlpha" k2="-1" k3="1" operator="arithmetic"/><feColorMatrix values="0 0 0 0 0.913725 0 0 0 0 0.733333 0 0 0 0 0.592157 0 0 0 1 0"/><feBlend in2="shape" result="effect1_innerShadow_4002_788"/><feColorMatrix in="SourceAlpha" result="hardAlpha" values="0 0 0 0 0 0 0 0 0 0 0 0 0 0 0 0 0 0 127 0"/><feOffset dy="-.2"/><feGaussianBlur stdDeviation=".2"/><feComposite in2="hardAlpha" k2="-1" k3="1" operator="arithmetic"/><feColorMatrix values="0 0 0 0 0.87451 0 0 0 0 0.678431 0 0 0 0 0.556863 0 0 0 1 0"/><feBlend in2="effect1_innerShadow_4002_788" result="effect2_innerShadow_4002_788"/></filter><filter id="filter7_i_4002_788" width="2.368" height="1.203" x="17.494" y="7.278" color-interpolation-filters="sRGB" filterUnits="userSpaceOnUse"><feFlood flood-opacity="0" result="BackgroundImageFix"/><feBlend in="SourceGraphic" in2="BackgroundImageFix" result="shape"/><feColorMatrix in="SourceAlpha" result="hardAlpha" values="0 0 0 0 0 0 0 0 0 0 0 0 0 0 0 0 0 0 127 0"/><feOffset dx=".1" dy="-.2"/><feGaussianBlur stdDeviation=".125"/><feComposite in2="hardAlpha" k2="-1" k3="1" operator="arithmetic"/><feColorMatrix values="0 0 0 0 0.470588 0 0 0 0 0.270588 0 0 0 0 0.160784 0 0 0 1 0"/><feBlend in2="shape" result="effect1_innerShadow_4002_788"/></filter><filter id="filter8_i_4002_788" width="2.368" height="1.188" x="12.17" y="7.293" color-interpolation-filters="sRGB" filterUnits="userSpaceOnUse"><feFlood flood-opacity="0" result="BackgroundImageFix"/><feBlend in="SourceGraphic" in2="BackgroundImageFix" result="shape"/><feColorMatrix in="SourceAlpha" result="hardAlpha" values="0 0 0 0 0 0 0 0 0 0 0 0 0 0 0 0 0 0 127 0"/><feOffset dx=".1" dy="-.2"/><feGaussianBlur stdDeviation=".125"/><feComposite in2="hardAlpha" k2="-1" k3="1" operator="arithmetic"/><feColorMatrix values="0 0 0 0 0.470588 0 0 0 0 0.270588 0 0 0 0 0.160784 0 0 0 1 0"/><feBlend in2="shape" result="effect1_innerShadow_4002_788"/></filter><filter id="filter9_f_4002_788" width="6.662" height="6.062" x="9.729" y="2.645" color-interpolation-filters="sRGB" filterUnits="userSpaceOnUse"><feFlood flood-opacity="0" result="BackgroundImageFix"/><feBlend in="SourceGraphic" in2="BackgroundImageFix" result="shape"/><feGaussianBlur result="effect1_foregroundBlur_4002_788" stdDeviation=".125"/></filter><filter id="filter10_f_4002_788" width="6.44" height="5.806" x="15.723" y="3.178" color-interpolation-filters="sRGB" filterUnits="userSpaceOnUse"><feFlood flood-opacity="0" result="BackgroundImageFix"/><feBlend in="SourceGraphic" in2="BackgroundImageFix" result="shape"/><feGaussianBlur result="effect1_foregroundBlur_4002_788" stdDeviation=".125"/></filter><filter id="filter11_f_4002_788" width=".794" height=".703" x="17.352" y="9.634" color-interpolation-filters="sRGB" filterUnits="userSpaceOnUse"><feFlood flood-opacity="0" result="BackgroundImageFix"/><feBlend in="SourceGraphic" in2="BackgroundImageFix" result="shape"/><feGaussianBlur result="effect1_foregroundBlur_4002_788" stdDeviation=".05"/></filter><filter id="filter12_f_4002_788" width=".898" height=".92" x="18.204" y="9.711" color-interpolation-filters="sRGB" filterUnits="userSpaceOnUse"><feFlood flood-opacity="0" result="BackgroundImageFix"/><feBlend in="SourceGraphic" in2="BackgroundImageFix" result="shape"/><feGaussianBlur result="effect1_foregroundBlur_4002_788" stdDeviation=".1"/></filter><filter id="filter13_f_4002_788" width=".994" height="1.048" x="13.704" y="9.647" color-interpolation-filters="sRGB" filterUnits="userSpaceOnUse"><feFlood flood-opacity="0" result="BackgroundImageFix"/><feBlend in="SourceGraphic" in2="BackgroundImageFix" result="shape"/><feGaussianBlur result="effect1_foregroundBlur_4002_788" stdDeviation=".1"/></filter><filter id="filter14_f_4002_788" width=".922" height=".711" x="12.939" y="9.626" color-interpolation-filters="sRGB" filterUnits="userSpaceOnUse"><feFlood flood-opacity="0" result="BackgroundImageFix"/><feBlend in="SourceGraphic" in2="BackgroundImageFix" result="shape"/><feGaussianBlur result="effect1_foregroundBlur_4002_788" stdDeviation=".05"/></filter><filter id="filter15_f_4002_788" width="1.34" height="2.403" x="9.778" y="9.543" color-interpolation-filters="sRGB" filterUnits="userSpaceOnUse"><feFlood flood-opacity="0" result="BackgroundImageFix"/><feBlend in="SourceGraphic" in2="BackgroundImageFix" result="shape"/><feGaussianBlur result="effect1_foregroundBlur_4002_788" stdDeviation=".125"/></filter><filter id="filter16_f_4002_788" width="1.459" height="2.428" x="20.66" y="9.527" color-interpolation-filters="sRGB" filterUnits="userSpaceOnUse"><feFlood flood-opacity="0" result="BackgroundImageFix"/><feBlend in="SourceGraphic" in2="BackgroundImageFix" result="shape"/><feGaussianBlur result="effect1_foregroundBlur_4002_788" stdDeviation=".125"/></filter><filter id="filter17_f_4002_788" width="2.426" height="1.166" x="12.093" y="7.371" color-interpolation-filters="sRGB" filterUnits="userSpaceOnUse"><feFlood flood-opacity="0" result="BackgroundImageFix"/><feBlend in="SourceGraphic" in2="BackgroundImageFix" result="shape"/><feGaussianBlur result="effect1_foregroundBlur_4002_788" stdDeviation=".125"/></filter><filter id="filter18_f_4002_788" width="2.426" height="1.166" x="17.439" y="7.324" color-interpolation-filters="sRGB" filterUnits="userSpaceOnUse"><feFlood flood-opacity="0" result="BackgroundImageFix"/><feBlend in="SourceGraphic" in2="BackgroundImageFix" result="shape"/><feGaussianBlur result="effect1_foregroundBlur_4002_788" stdDeviation=".125"/></filter><linearGradient id="paint7_linear_4002_788" x1="24.158" x2="24.189" y1="30.329" y2="26.673" gradientUnits="userSpaceOnUse"><stop offset=".078" stop-color="#DD3537"/><stop offset="1" stop-color="#DD3537" stop-opacity="0"/></linearGradient><linearGradient id="paint8_linear_4002_788" x1="18.12" x2="19.472" y1="27.765" y2="28.151" gradientUnits="userSpaceOnUse"><stop stop-color="#E04438"/><stop offset="1" stop-color="#E04438" stop-opacity="0"/></linearGradient><linearGradient id="paint10_linear_4002_788" x1="13.658" x2="12.158" y1="28.736" y2="29.267" gradientUnits="userSpaceOnUse"><stop stop-color="#D63C26"/><stop offset="1" stop-color="#D63C26" stop-opacity="0"/></linearGradient><linearGradient id="paint12_linear_4002_788" x1="12.315" x2="13.69" y1="27.392" y2="26.829" gradientUnits="userSpaceOnUse"><stop offset=".223" stop-color="#E45C36"/><stop offset="1" stop-color="#E45C36" stop-opacity="0"/></linearGradient><linearGradient id="paint14_linear_4002_788" x1="15.627" x2="14.221" y1="30.173" y2="29.486" gradientUnits="userSpaceOnUse"><stop offset=".208" stop-color="#DD5022"/><stop offset="1" stop-color="#DD5022" stop-opacity="0"/></linearGradient><linearGradient id="paint17_linear_4002_788" x1="16.002" x2="18.033" y1="24.829" y2="25.736" gradientUnits="userSpaceOnUse"><stop stop-color="#CE3B1B"/><stop offset="1" stop-color="#E64812" stop-opacity="0"/></linearGradient><linearGradient id="paint20_linear_4002_788" x1="16.366" x2="16.366" y1="25.145" y2="15.619" gradientUnits="userSpaceOnUse"><stop stop-color="#DEA48A"/><stop offset="1" stop-color="#E6AE8A"/></linearGradient><linearGradient id="paint29_linear_4002_788" x1="21.108" x2="16.699" y1="12.713" y2="12.713" gradientUnits="userSpaceOnUse"><stop stop-color="#F7C29D"/><stop offset="1" stop-color="#F7C29D" stop-opacity="0"/></linearGradient><linearGradient id="paint37_linear_4002_788" x1="15.884" x2="16.75" y1="11.846" y2="11.846" gradientUnits="userSpaceOnUse"><stop stop-color="#E1AA8C"/><stop offset="1" stop-color="#FECAA8"/></linearGradient><linearGradient id="paint38_linear_4002_788" x1="14.798" x2="15.886" y1="11.688" y2="11.748" gradientUnits="userSpaceOnUse"><stop stop-color="#D29879" stop-opacity=".915"/><stop offset=".203" stop-color="#D29879"/><stop offset="1" stop-color="#D29879" stop-opacity="0"/></linearGradient><linearGradient id="paint39_linear_4002_788" x1="15.884" x2="15.884" y1="12.249" y2="13.112" gradientUnits="userSpaceOnUse"><stop stop-color="#CB8685" stop-opacity="0"/><stop offset=".845" stop-color="#CB8685"/></linearGradient><linearGradient id="paint40_linear_4002_788" x1="15.884" x2="15.884" y1="9.973" y2="10.398" gradientUnits="userSpaceOnUse"><stop stop-color="#E0A78C"/><stop offset="1" stop-color="#E0A78C" stop-opacity="0"/></linearGradient><linearGradient id="paint43_linear_4002_788" x1="21.317" x2="11.063" y1="5.271" y2="5.271" gradientUnits="userSpaceOnUse"><stop stop-color="#FFF6B9"/><stop offset="1" stop-color="#E7C991"/></linearGradient><linearGradient id="paint58_linear_4002_788" x1="18.882" x2="18.564" y1="10.133" y2="10.329" gradientUnits="userSpaceOnUse"><stop stop-color="#B4948D"/><stop offset="1" stop-color="#B4948D" stop-opacity="0"/></linearGradient><linearGradient id="paint60_linear_4002_788" x1="14.428" x2="14.11" y1="10.133" y2="10.329" gradientUnits="userSpaceOnUse"><stop stop-color="#B4948D"/><stop offset="1" stop-color="#B4948D" stop-opacity="0"/></linearGradient><linearGradient id="paint62_linear_4002_788" x1="22.403" x2="21.181" y1="10.16" y2="12.364" gradientUnits="userSpaceOnUse"><stop stop-color="#F8C5A2"/><stop offset="1" stop-color="#E0A48C"/></linearGradient><linearGradient id="paint65_linear_4002_788" x1="9.96" x2="11.437" y1="10.873" y2="10.744" gradientUnits="userSpaceOnUse"><stop stop-color="#C48874"/><stop offset="1" stop-color="#BD776C"/></linearGradient></defs></svg>