<svg xmlns="http://www.w3.org/2000/svg" width="32" height="32" fill="none" viewBox="0 0 32 32"><g fill-rule="evenodd" clip-rule="evenodd" filter="url(#filter0_i_20020_1803)"><path fill="#FFC9B1" d="M13.358 3.771a2.25 2.25 0 0 1 3.158-.39 20.776 20.776 0 0 1 2.68 2.53 2.25 2.25 0 0 1 4.176-1.39c1.49 2.53 2.62 6.233 2.907 9.933l.011-.001.015.278c.034.597.104 1.816.067 4.111-.037 2.313-.674 4.143-1.606 5.678-1.613 2.756-4.67 4.575-8.089 4.575-3.786 0-6.906-2.332-8.36-5.315a2.5 2.5 0 0 1 1.734-3.542 2.504 2.504 0 0 1-2.06-3.4 9.12 9.12 0 0 1 3.947-4.553c-1.501-.5-2.946-.754-3.947-.805a2.5 2.5 0 1 1 .253-4.993c1.543.078 3.914.49 6.336 1.438-.286-.31-.57-.6-.85-.863-.98-.764-1.136-2.31-.372-3.29Zm3.32 12.419c-1.893 0-3.443.973-4.032 2.475a2.498 2.498 0 0 1-1.815 1.534 2.5 2.5 0 0 1 1.982 1.39c.714 1.467 2.205 2.272 3.864 2.272 1.901-.15 3.542-1.663 3.542-3.802 0-2.138-1.499-3.87-3.542-3.87Z"/><path fill="url(#paint0_radial_20020_1803)" d="M13.358 3.771a2.25 2.25 0 0 1 3.158-.39 20.776 20.776 0 0 1 2.68 2.53 2.25 2.25 0 0 1 4.176-1.39c1.49 2.53 2.62 6.233 2.907 9.933l.011-.001.015.278c.034.597.104 1.816.067 4.111-.037 2.313-.674 4.143-1.606 5.678-1.613 2.756-4.67 4.575-8.089 4.575-3.786 0-6.906-2.332-8.36-5.315a2.5 2.5 0 0 1 1.734-3.542 2.504 2.504 0 0 1-2.06-3.4 9.12 9.12 0 0 1 3.947-4.553c-1.501-.5-2.946-.754-3.947-.805a2.5 2.5 0 1 1 .253-4.993c1.543.078 3.914.49 6.336 1.438-.286-.31-.57-.6-.85-.863-.98-.764-1.136-2.31-.372-3.29Zm3.32 12.419c-1.893 0-3.443.973-4.032 2.475a2.498 2.498 0 0 1-1.815 1.534 2.5 2.5 0 0 1 1.982 1.39c.714 1.467 2.205 2.272 3.864 2.272 1.901-.15 3.542-1.663 3.542-3.802 0-2.138-1.499-3.87-3.542-3.87Z"/><path fill="url(#paint1_radial_20020_1803)" d="M13.358 3.771a2.25 2.25 0 0 1 3.158-.39 20.776 20.776 0 0 1 2.68 2.53 2.25 2.25 0 0 1 4.176-1.39c1.49 2.53 2.62 6.233 2.907 9.933l.011-.001.015.278c.034.597.104 1.816.067 4.111-.037 2.313-.674 4.143-1.606 5.678-1.613 2.756-4.67 4.575-8.089 4.575-3.786 0-6.906-2.332-8.36-5.315a2.5 2.5 0 0 1 1.734-3.542 2.504 2.504 0 0 1-2.06-3.4 9.12 9.12 0 0 1 3.947-4.553c-1.501-.5-2.946-.754-3.947-.805a2.5 2.5 0 1 1 .253-4.993c1.543.078 3.914.49 6.336 1.438-.286-.31-.57-.6-.85-.863-.98-.764-1.136-2.31-.372-3.29Zm3.32 12.419c-1.893 0-3.443.973-4.032 2.475a2.498 2.498 0 0 1-1.815 1.534 2.5 2.5 0 0 1 1.982 1.39c.714 1.467 2.205 2.272 3.864 2.272 1.901-.15 3.542-1.663 3.542-3.802 0-2.138-1.499-3.87-3.542-3.87Z"/><path fill="url(#paint2_radial_20020_1803)" d="M13.358 3.771a2.25 2.25 0 0 1 3.158-.39 20.776 20.776 0 0 1 2.68 2.53 2.25 2.25 0 0 1 4.176-1.39c1.49 2.53 2.62 6.233 2.907 9.933l.011-.001.015.278c.034.597.104 1.816.067 4.111-.037 2.313-.674 4.143-1.606 5.678-1.613 2.756-4.67 4.575-8.089 4.575-3.786 0-6.906-2.332-8.36-5.315a2.5 2.5 0 0 1 1.734-3.542 2.504 2.504 0 0 1-2.06-3.4 9.12 9.12 0 0 1 3.947-4.553c-1.501-.5-2.946-.754-3.947-.805a2.5 2.5 0 1 1 .253-4.993c1.543.078 3.914.49 6.336 1.438-.286-.31-.57-.6-.85-.863-.98-.764-1.136-2.31-.372-3.29Zm3.32 12.419c-1.893 0-3.443.973-4.032 2.475a2.498 2.498 0 0 1-1.815 1.534 2.5 2.5 0 0 1 1.982 1.39c.714 1.467 2.205 2.272 3.864 2.272 1.901-.15 3.542-1.663 3.542-3.802 0-2.138-1.499-3.87-3.542-3.87Z"/><path fill="url(#paint3_radial_20020_1803)" d="M13.358 3.771a2.25 2.25 0 0 1 3.158-.39 20.776 20.776 0 0 1 2.68 2.53 2.25 2.25 0 0 1 4.176-1.39c1.49 2.53 2.62 6.233 2.907 9.933l.011-.001.015.278c.034.597.104 1.816.067 4.111-.037 2.313-.674 4.143-1.606 5.678-1.613 2.756-4.67 4.575-8.089 4.575-3.786 0-6.906-2.332-8.36-5.315a2.5 2.5 0 0 1 1.734-3.542 2.504 2.504 0 0 1-2.06-3.4 9.12 9.12 0 0 1 3.947-4.553c-1.501-.5-2.946-.754-3.947-.805a2.5 2.5 0 1 1 .253-4.993c1.543.078 3.914.49 6.336 1.438-.286-.31-.57-.6-.85-.863-.98-.764-1.136-2.31-.372-3.29Zm3.32 12.419c-1.893 0-3.443.973-4.032 2.475a2.498 2.498 0 0 1-1.815 1.534 2.5 2.5 0 0 1 1.982 1.39c.714 1.467 2.205 2.272 3.864 2.272 1.901-.15 3.542-1.663 3.542-3.802 0-2.138-1.499-3.87-3.542-3.87Z"/><path fill="url(#paint4_radial_20020_1803)" d="M13.358 3.771a2.25 2.25 0 0 1 3.158-.39 20.776 20.776 0 0 1 2.68 2.53 2.25 2.25 0 0 1 4.176-1.39c1.49 2.53 2.62 6.233 2.907 9.933l.011-.001.015.278c.034.597.104 1.816.067 4.111-.037 2.313-.674 4.143-1.606 5.678-1.613 2.756-4.67 4.575-8.089 4.575-3.786 0-6.906-2.332-8.36-5.315a2.5 2.5 0 0 1 1.734-3.542 2.504 2.504 0 0 1-2.06-3.4 9.12 9.12 0 0 1 3.947-4.553c-1.501-.5-2.946-.754-3.947-.805a2.5 2.5 0 1 1 .253-4.993c1.543.078 3.914.49 6.336 1.438-.286-.31-.57-.6-.85-.863-.98-.764-1.136-2.31-.372-3.29Zm3.32 12.419c-1.893 0-3.443.973-4.032 2.475a2.498 2.498 0 0 1-1.815 1.534 2.5 2.5 0 0 1 1.982 1.39c.714 1.467 2.205 2.272 3.864 2.272 1.901-.15 3.542-1.663 3.542-3.802 0-2.138-1.499-3.87-3.542-3.87Z"/></g><path fill="url(#paint5_linear_20020_1803)" d="M13.358 3.771a2.25 2.25 0 0 1 3.158-.39c2.27 1.77 4.471 4.407 6.043 7.323h-3.168c-1.46-1.223-3.148-2.128-4.81-2.779-.287-.31-.572-.6-.85-.863-.98-.764-1.137-2.31-.373-3.29Z"/><path fill="url(#paint6_radial_20020_1803)" d="M13.358 3.771a2.25 2.25 0 0 1 3.158-.39c2.27 1.77 4.471 4.407 6.043 7.323h-3.168c-1.46-1.223-3.148-2.128-4.81-2.779-.287-.31-.572-.6-.85-.863-.98-.764-1.137-2.31-.373-3.29Z"/><path fill="url(#paint7_linear_20020_1803)" d="M13.358 3.771a2.25 2.25 0 0 1 3.158-.39c2.27 1.77 4.471 4.407 6.043 7.323h-3.168c-1.46-1.223-3.148-2.128-4.81-2.779-.287-.31-.572-.6-.85-.863-.98-.764-1.137-2.31-.373-3.29Z"/><path fill="url(#paint8_radial_20020_1803)" d="M13.358 3.771a2.25 2.25 0 0 1 3.158-.39c2.27 1.77 4.471 4.407 6.043 7.323h-3.168c-1.46-1.223-3.148-2.128-4.81-2.779-.287-.31-.572-.6-.85-.863-.98-.764-1.137-2.31-.373-3.29Z"/><path fill="url(#paint9_linear_20020_1803)" d="M13.358 3.771a2.25 2.25 0 0 1 3.158-.39c2.27 1.77 4.471 4.407 6.043 7.323h-3.168c-1.46-1.223-3.148-2.128-4.81-2.779-.287-.31-.572-.6-.85-.863-.98-.764-1.137-2.31-.373-3.29Z"/><path fill="url(#paint10_linear_20020_1803)" d="M26.166 13.329c-.407-3.314-1.456-6.535-2.794-8.807a2.25 2.25 0 0 0-4.176 1.39c1.889 2.112 3.544 4.722 4.57 7.417h2.4Z"/><path fill="url(#paint11_linear_20020_1803)" d="M26.166 13.329c-.407-3.314-1.456-6.535-2.794-8.807a2.25 2.25 0 0 0-4.176 1.39c1.889 2.112 3.544 4.722 4.57 7.417h2.4Z"/><path fill="url(#paint12_radial_20020_1803)" d="M26.166 13.329c-.407-3.314-1.456-6.535-2.794-8.807a2.25 2.25 0 0 0-4.176 1.39c1.889 2.112 3.544 4.722 4.57 7.417h2.4Z"/><path fill="url(#paint13_radial_20020_1803)" d="M26.166 13.329c-.407-3.314-1.456-6.535-2.794-8.807a2.25 2.25 0 0 0-4.176 1.39c1.889 2.112 3.544 4.722 4.57 7.417h2.4Z"/><path fill="url(#paint14_linear_20020_1803)" d="M8.244 6.487a2.5 2.5 0 0 0-.253 4.993c.99.05 2.414.299 3.896.788a9.526 9.526 0 0 1 4.926-1.363c1.217 0 2.381.227 3.452.641a2.52 2.52 0 0 0-.288-.322C16.362 7.822 10.99 6.626 8.244 6.487Z"/><path fill="url(#paint15_radial_20020_1803)" d="M8.244 6.487a2.5 2.5 0 0 0-.253 4.993c.99.05 2.414.299 3.896.788a9.526 9.526 0 0 1 4.926-1.363c1.217 0 2.381.227 3.452.641a2.52 2.52 0 0 0-.288-.322C16.362 7.822 10.99 6.626 8.244 6.487Z"/><path fill="url(#paint16_radial_20020_1803)" d="M8.244 6.487a2.5 2.5 0 0 0-.253 4.993c.99.05 2.414.299 3.896.788a9.526 9.526 0 0 1 4.926-1.363c1.217 0 2.381.227 3.452.641a2.52 2.52 0 0 0-.288-.322C16.362 7.822 10.99 6.626 8.244 6.487Z"/><path fill="url(#paint17_radial_20020_1803)" d="M8.244 6.487a2.5 2.5 0 0 0-.253 4.993c.99.05 2.414.299 3.896.788a9.526 9.526 0 0 1 4.926-1.363c1.217 0 2.381.227 3.452.641a2.52 2.52 0 0 0-.288-.322C16.362 7.822 10.99 6.626 8.244 6.487Z"/><path fill="url(#paint18_radial_20020_1803)" d="M8.244 6.487a2.5 2.5 0 0 0-.253 4.993c.99.05 2.414.299 3.896.788a9.526 9.526 0 0 1 4.926-1.363c1.217 0 2.381.227 3.452.641a2.52 2.52 0 0 0-.288-.322C16.362 7.822 10.99 6.626 8.244 6.487Z"/><g filter="url(#filter1_f_20020_1803)"><path stroke="url(#paint19_linear_20020_1803)" stroke-linecap="round" stroke-width="1.25" d="M22.056 4.855c.625.823 2.156 4.38 2.625 7.031"/></g><g filter="url(#filter2_f_20020_1803)"><path stroke="url(#paint20_linear_20020_1803)" stroke-linecap="round" stroke-width="1.25" d="M15.572 4.563c1.062.672 3.609 2.984 5.64 6.047"/></g><g filter="url(#filter3_f_20020_1803)"><path stroke="url(#paint21_linear_20020_1803)" stroke-linecap="round" stroke-width="1.25" d="M8.899 7.982c2.093.25 7.111 1.776 8.631 2.766"/></g><g filter="url(#filter4_f_20020_1803)"><path stroke="url(#paint22_linear_20020_1803)" stroke-linecap="round" stroke-width="1.5" d="M10.586 18.068c1.188-3.406 5.094-5.062 7.469-4.687"/></g><g filter="url(#filter5_f_20020_1803)"><path stroke="url(#paint23_linear_20020_1803)" stroke-linecap="round" stroke-width="1.25" d="M11 21.94c.542 1.378 2.629 4.031 6.641 3.623"/></g><g filter="url(#filter6_f_20020_1803)"><path fill="url(#paint24_linear_20020_1803)" d="M25.717 20.77c-1.317-8.848-6.973-9.15-8.348-9.504 2.875-1.844 7.155-.352 7.625 1.25.906 3.094.994 6.713.723 8.255Z"/></g><path fill="url(#paint25_radial_20020_1803)" fill-rule="evenodd" d="M13.358 3.771a2.25 2.25 0 0 1 3.158-.39 20.776 20.776 0 0 1 2.68 2.53 2.25 2.25 0 0 1 4.176-1.39c1.49 2.53 2.62 6.233 2.907 9.933l.011-.001.015.278c.034.597.104 1.816.067 4.111-.037 2.313-.674 4.143-1.606 5.678-1.613 2.756-4.67 4.575-8.089 4.575-3.786 0-6.906-2.332-8.36-5.315a2.5 2.5 0 0 1 1.734-3.542 2.504 2.504 0 0 1-2.06-3.4 9.12 9.12 0 0 1 3.947-4.553c-1.501-.5-2.946-.754-3.947-.805a2.5 2.5 0 1 1 .253-4.993c1.543.078 3.914.49 6.336 1.438-.286-.31-.57-.6-.85-.863-.98-.764-1.136-2.31-.372-3.29Zm3.32 12.419c-1.893 0-3.443.973-4.032 2.475a2.498 2.498 0 0 1-1.815 1.534 2.5 2.5 0 0 1 1.982 1.39c.714 1.467 2.205 2.272 3.864 2.272 1.901-.15 3.542-1.663 3.542-3.802 0-2.138-1.499-3.87-3.542-3.87Z" clip-rule="evenodd"/><g filter="url(#filter7_f_20020_1803)"><path stroke="url(#paint26_radial_20020_1803)" stroke-linecap="round" stroke-width="2" d="M20.02 13.248c1.488.511 4.445 2.626 4.37 6.994"/></g><path fill="url(#paint27_radial_20020_1803)" fill-rule="evenodd" d="M23.643 26.051a9.415 9.415 0 0 1-6.958 3.052c-3.786 0-6.906-2.34-8.36-5.332a2.511 2.511 0 0 1 1.734-3.553 2.51 2.51 0 0 1-2.06-3.41 9.141 9.141 0 0 1 3.947-4.567l-.024-.008c1.437-.82 3.08-1.296 4.775-1.296 5.079 0 9.196 4.088 9.196 9.13 0 2.29-.849 4.382-2.25 5.984Zm-10.989-7.41c.59-1.507 2.139-2.483 4.031-2.483 2.043 0 3.542 1.736 3.542 3.881 0 2.146-1.641 3.663-3.542 3.813-1.659 0-3.15-.806-3.864-2.277a2.499 2.499 0 0 0-1.982-1.396 2.5 2.5 0 0 0 1.815-1.538Z" clip-rule="evenodd"/><path fill="url(#paint28_radial_20020_1803)" fill-rule="evenodd" d="M23.643 26.051a9.415 9.415 0 0 1-6.958 3.052c-3.786 0-6.906-2.34-8.36-5.332a2.511 2.511 0 0 1 1.734-3.553 2.51 2.51 0 0 1-2.06-3.41 9.141 9.141 0 0 1 3.947-4.567l-.024-.008c1.437-.82 3.08-1.296 4.775-1.296 5.079 0 9.196 4.088 9.196 9.13 0 2.29-.849 4.382-2.25 5.984Zm-10.989-7.41c.59-1.507 2.139-2.483 4.031-2.483 2.043 0 3.542 1.736 3.542 3.881 0 2.146-1.641 3.663-3.542 3.813-1.659 0-3.15-.806-3.864-2.277a2.499 2.499 0 0 0-1.982-1.396 2.5 2.5 0 0 0 1.815-1.538Z" clip-rule="evenodd"/><defs><radialGradient id="paint0_radial_20020_1803" cx="0" cy="0" r="1" gradientTransform="matrix(5.375 -4.125 3.93242 5.12408 17.156 19.594)" gradientUnits="userSpaceOnUse"><stop stop-color="#BB7D98"/><stop offset="1" stop-color="#BB7D98" stop-opacity="0"/></radialGradient><radialGradient id="paint1_radial_20020_1803" cx="0" cy="0" r="1" gradientTransform="matrix(-.1875 18.56245 -25.6022 -.2586 16.938 13.625)" gradientUnits="userSpaceOnUse"><stop offset=".652" stop-color="#BB7D98" stop-opacity="0"/><stop offset="1" stop-color="#BB7D98"/></radialGradient><radialGradient id="paint2_radial_20020_1803" cx="0" cy="0" r="1" gradientTransform="matrix(4.0913 -3.52164 2.89555 3.36393 16.808 20.07)" gradientUnits="userSpaceOnUse"><stop stop-color="#E2AF98"/><stop offset="1" stop-color="#E2AF98" stop-opacity="0"/></radialGradient><radialGradient id="paint3_radial_20020_1803" cx="0" cy="0" r="1" gradientTransform="matrix(0 2.00749 -1.91893 0 10.418 20.122)" gradientUnits="userSpaceOnUse"><stop stop-color="#E7A186"/><stop offset="1" stop-color="#E7A186" stop-opacity="0"/></radialGradient><radialGradient id="paint4_radial_20020_1803" cx="0" cy="0" r="1" gradientTransform="matrix(-.00781 .49219 -1.27635 -.02026 10.525 20.212)" gradientUnits="userSpaceOnUse"><stop stop-color="#D18D6F"/><stop offset="1" stop-color="#D18D6F" stop-opacity="0"/></radialGradient><radialGradient id="paint6_radial_20020_1803" cx="0" cy="0" r="1" gradientTransform="rotate(-154.517 11.642 2.015) scale(9.9117 7.62008)" gradientUnits="userSpaceOnUse"><stop offset=".8" stop-color="#D9AA8E" stop-opacity="0"/><stop offset="1" stop-color="#D9AA8E"/></radialGradient><radialGradient id="paint8_radial_20020_1803" cx="0" cy="0" r="1" gradientTransform="matrix(1.47033 -3.21875 5.82387 2.66035 17.717 11.031)" gradientUnits="userSpaceOnUse"><stop stop-color="#FFD6B4"/><stop offset=".572" stop-color="#FFD6B4" stop-opacity="0"/></radialGradient><radialGradient id="paint12_radial_20020_1803" cx="0" cy="0" r="1" gradientTransform="matrix(1.25 -.78125 1.4275 2.284 22.344 11.063)" gradientUnits="userSpaceOnUse"><stop stop-color="#FFDDBC"/><stop offset="1" stop-color="#FFDDBC" stop-opacity="0"/></radialGradient><radialGradient id="paint13_radial_20020_1803" cx="0" cy="0" r="1" gradientTransform="matrix(-5.22088 -4.23548 3.63496 -4.48064 24.742 8.56)" gradientUnits="userSpaceOnUse"><stop offset=".83" stop-color="#DBAB90" stop-opacity="0"/><stop offset="1" stop-color="#DBAB90"/></radialGradient><radialGradient id="paint15_radial_20020_1803" cx="0" cy="0" r="1" gradientTransform="matrix(.04249 -1.69485 4.92857 .12355 13.049 12.268)" gradientUnits="userSpaceOnUse"><stop stop-color="#DA947B"/><stop offset="1" stop-color="#DA947B" stop-opacity="0"/></radialGradient><radialGradient id="paint16_radial_20020_1803" cx="0" cy="0" r="1" gradientTransform="matrix(-12.72015 -2.73997 2.13394 -9.90668 18.338 10.888)" gradientUnits="userSpaceOnUse"><stop offset=".826" stop-color="#DDAB8F" stop-opacity="0"/><stop offset="1" stop-color="#DDAB8F"/></radialGradient><radialGradient id="paint17_radial_20020_1803" cx="0" cy="0" r="1" gradientTransform="rotate(119.455 6.198 9.903) scale(1.52522 3.27464)" gradientUnits="userSpaceOnUse"><stop stop-color="#FFD9B8"/><stop offset="1" stop-color="#FFD9B8" stop-opacity="0"/></radialGradient><radialGradient id="paint18_radial_20020_1803" cx="0" cy="0" r="1" gradientTransform="rotate(-76.809 14.91 -.486) scale(6.97028 24.5838)" gradientUnits="userSpaceOnUse"><stop offset=".822" stop-color="#FFD9BA" stop-opacity="0"/><stop offset="1" stop-color="#FFD9BA"/></radialGradient><radialGradient id="paint25_radial_20020_1803" cx="0" cy="0" r="1" gradientTransform="matrix(18.2987 -2.605 3.71804 26.11718 8.775 18.266)" gradientUnits="userSpaceOnUse"><stop offset=".872" stop-color="#FFE1C2" stop-opacity="0"/><stop offset="1" stop-color="#FFE1C2"/></radialGradient><radialGradient id="paint26_radial_20020_1803" cx="0" cy="0" r="1" gradientTransform="matrix(-4.01673 2.30124 -3.6321 -6.3397 24.612 14.691)" gradientUnits="userSpaceOnUse"><stop stop-color="#FFF0DE"/><stop offset="1" stop-color="#FFF0DE" stop-opacity="0"/></radialGradient><radialGradient id="paint27_radial_20020_1803" cx="0" cy="0" r="1" gradientTransform="matrix(-15.86104 -15.23359 11.38427 -11.85317 25.46 28.151)" gradientUnits="userSpaceOnUse"><stop offset=".872" stop-color="#DBAF9A" stop-opacity="0"/><stop offset="1" stop-color="#DBAF9A"/></radialGradient><radialGradient id="paint28_radial_20020_1803" cx="0" cy="0" r="1" gradientTransform="matrix(4.45938 3.05706 -3.07412 4.48427 16.859 20.452)" gradientUnits="userSpaceOnUse"><stop stop-color="#E5A78B"/><stop offset="1" stop-color="#E5A78B" stop-opacity="0"/></radialGradient><linearGradient id="paint5_linear_20020_1803" x1="15.297" x2="16.619" y1="8.438" y2="7.11" gradientUnits="userSpaceOnUse"><stop stop-color="#EAA17F"/><stop offset="1" stop-color="#EAA17F" stop-opacity="0"/></linearGradient><linearGradient id="paint7_linear_20020_1803" x1="21.9" x2="19.462" y1="6.985" y2="9.485" gradientUnits="userSpaceOnUse"><stop stop-color="#FADBC4"/><stop offset="1" stop-color="#FADBC4" stop-opacity="0"/></linearGradient><linearGradient id="paint9_linear_20020_1803" x1="22.337" x2="21.025" y1="10.985" y2="9.235" gradientUnits="userSpaceOnUse"><stop stop-color="#FFC4AA"/><stop offset="1" stop-color="#FFC4AA" stop-opacity="0"/></linearGradient><linearGradient id="paint10_linear_20020_1803" x1="20.368" x2="23.096" y1="9.704" y2="9.473" gradientUnits="userSpaceOnUse"><stop stop-color="#F3AA84"/><stop offset="1" stop-color="#F3AA84" stop-opacity="0"/></linearGradient><linearGradient id="paint11_linear_20020_1803" x1="25.65" x2="24.892" y1="12.329" y2="11.389" gradientUnits="userSpaceOnUse"><stop stop-color="#FFC4AA"/><stop offset="1" stop-color="#FFC4AA" stop-opacity="0"/></linearGradient><linearGradient id="paint14_linear_20020_1803" x1="8.625" x2="9.287" y1="12.813" y2="9.784" gradientUnits="userSpaceOnUse"><stop stop-color="#C68588"/><stop offset="1" stop-color="#C68588" stop-opacity="0"/></linearGradient><linearGradient id="paint19_linear_20020_1803" x1="22.747" x2="27.634" y1="5.273" y2="7.796" gradientUnits="userSpaceOnUse"><stop stop-color="#FFE5C7"/><stop offset="1" stop-color="#FFE5C7" stop-opacity="0"/></linearGradient><linearGradient id="paint20_linear_20020_1803" x1="17.056" x2="22.05" y1="4.922" y2="11.363" gradientUnits="userSpaceOnUse"><stop stop-color="#FFE5C7"/><stop offset="1" stop-color="#FFE5C7" stop-opacity="0"/></linearGradient><linearGradient id="paint21_linear_20020_1803" x1="9.613" x2="9.806" y1="7.744" y2="12.785" gradientUnits="userSpaceOnUse"><stop stop-color="#FFE5C7"/><stop offset="1" stop-color="#FFE5C7" stop-opacity="0"/></linearGradient><linearGradient id="paint22_linear_20020_1803" x1="10.586" x2="18.055" y1="17.274" y2="11.748" gradientUnits="userSpaceOnUse"><stop stop-color="#F9C3B4"/><stop offset="1" stop-color="#F9C3B4" stop-opacity="0"/></linearGradient><linearGradient id="paint23_linear_20020_1803" x1="11.444" x2="18.854" y1="22.654" y2="23.12" gradientUnits="userSpaceOnUse"><stop stop-color="#FFD9C3"/><stop offset="1" stop-color="#FFD9C3" stop-opacity="0"/></linearGradient><linearGradient id="paint24_linear_20020_1803" x1="26.998" x2="18.06" y1="20.364" y2="6.507" gradientUnits="userSpaceOnUse"><stop stop-color="#FFDFC1"/><stop offset="1" stop-color="#FFDFC1" stop-opacity="0"/></linearGradient><filter id="filter0_i_20020_1803" width="21.365" height="26.791" x="5.617" y="2.305" color-interpolation-filters="sRGB" filterUnits="userSpaceOnUse"><feFlood flood-opacity="0" result="BackgroundImageFix"/><feBlend in="SourceGraphic" in2="BackgroundImageFix" result="shape"/><feColorMatrix in="SourceAlpha" result="hardAlpha" values="0 0 0 0 0 0 0 0 0 0 0 0 0 0 0 0 0 0 127 0"/><feOffset dx=".6" dy="-.6"/><feGaussianBlur stdDeviation="1"/><feComposite in2="hardAlpha" k2="-1" k3="1" operator="arithmetic"/><feColorMatrix values="0 0 0 0 0.733333 0 0 0 0 0.490196 0 0 0 0 0.596078 0 0 0 1 0"/><feBlend in2="shape" result="effect1_innerShadow_20020_1803"/></filter><filter id="filter1_f_20020_1803" width="6.375" height="10.781" x="20.181" y="2.98" color-interpolation-filters="sRGB" filterUnits="userSpaceOnUse"><feFlood flood-opacity="0" result="BackgroundImageFix"/><feBlend in="SourceGraphic" in2="BackgroundImageFix" result="shape"/><feGaussianBlur result="effect1_foregroundBlur_20020_1803" stdDeviation=".625"/></filter><filter id="filter2_f_20020_1803" width="9.391" height="9.797" x="13.697" y="2.688" color-interpolation-filters="sRGB" filterUnits="userSpaceOnUse"><feFlood flood-opacity="0" result="BackgroundImageFix"/><feBlend in="SourceGraphic" in2="BackgroundImageFix" result="shape"/><feGaussianBlur result="effect1_foregroundBlur_20020_1803" stdDeviation=".625"/></filter><filter id="filter3_f_20020_1803" width="13.882" height="8.016" x="6.274" y="5.357" color-interpolation-filters="sRGB" filterUnits="userSpaceOnUse"><feFlood flood-opacity="0" result="BackgroundImageFix"/><feBlend in="SourceGraphic" in2="BackgroundImageFix" result="shape"/><feGaussianBlur result="effect1_foregroundBlur_20020_1803" stdDeviation="1"/></filter><filter id="filter4_f_20020_1803" width="11.469" height="8.74" x="8.586" y="11.329" color-interpolation-filters="sRGB" filterUnits="userSpaceOnUse"><feFlood flood-opacity="0" result="BackgroundImageFix"/><feBlend in="SourceGraphic" in2="BackgroundImageFix" result="shape"/><feGaussianBlur result="effect1_foregroundBlur_20020_1803" stdDeviation=".625"/></filter><filter id="filter5_f_20020_1803" width="10.391" height="7.415" x="9.125" y="20.065" color-interpolation-filters="sRGB" filterUnits="userSpaceOnUse"><feFlood flood-opacity="0" result="BackgroundImageFix"/><feBlend in="SourceGraphic" in2="BackgroundImageFix" result="shape"/><feGaussianBlur result="effect1_foregroundBlur_20020_1803" stdDeviation=".625"/></filter><filter id="filter6_f_20020_1803" width="10.483" height="12.356" x="16.369" y="9.415" color-interpolation-filters="sRGB" filterUnits="userSpaceOnUse"><feFlood flood-opacity="0" result="BackgroundImageFix"/><feBlend in="SourceGraphic" in2="BackgroundImageFix" result="shape"/><feGaussianBlur result="effect1_foregroundBlur_20020_1803" stdDeviation=".5"/></filter><filter id="filter7_f_20020_1803" width="8.873" height="11.495" x="17.77" y="10.997" color-interpolation-filters="sRGB" filterUnits="userSpaceOnUse"><feFlood flood-opacity="0" result="BackgroundImageFix"/><feBlend in="SourceGraphic" in2="BackgroundImageFix" result="shape"/><feGaussianBlur result="effect1_foregroundBlur_20020_1803" stdDeviation=".625"/></filter></defs></svg>