<svg xmlns="http://www.w3.org/2000/svg" width="32" height="32" fill="none" viewBox="0 0 32 32"><path fill="url(#paint0_radial_6992_5054)" d="M15.097 29.441c.534.3 1.178.284 1.709-.021 3.389-1.947 9.222-6.382 11.519-12.134C31.712 9.76 23.758 3.754 18.26 8.074c-.563.443-1.269.949-1.764 1.43-.24.232-.66.256-.907.032-.653-.59-1.653-1.336-2.299-1.773-4.686-3.17-13.214 1.009-9.576 9.93 1.327 3.986 7.629 9.636 11.382 11.748Z"/><path fill="url(#paint1_radial_6992_5054)" d="M15.097 29.441c.534.3 1.178.284 1.709-.021 3.389-1.947 9.222-6.382 11.519-12.134C31.712 9.76 23.758 3.754 18.26 8.074c-.563.443-1.269.949-1.764 1.43-.24.232-.66.256-.907.032-.653-.59-1.653-1.336-2.299-1.773-4.686-3.17-13.214 1.009-9.576 9.93 1.327 3.986 7.629 9.636 11.382 11.748Z"/><path fill="url(#paint2_radial_6992_5054)" d="M15.097 29.441c.534.3 1.178.284 1.709-.021 3.389-1.947 9.222-6.382 11.519-12.134C31.712 9.76 23.758 3.754 18.26 8.074c-.563.443-1.269.949-1.764 1.43-.24.232-.66.256-.907.032-.653-.59-1.653-1.336-2.299-1.773-4.686-3.17-13.214 1.009-9.576 9.93 1.327 3.986 7.629 9.636 11.382 11.748Z"/><path fill="url(#paint3_radial_6992_5054)" d="M15.097 29.441c.534.3 1.178.284 1.709-.021 3.389-1.947 9.222-6.382 11.519-12.134C31.712 9.76 23.758 3.754 18.26 8.074c-.563.443-1.269.949-1.764 1.43-.24.232-.66.256-.907.032-.653-.59-1.653-1.336-2.299-1.773-4.686-3.17-13.214 1.009-9.576 9.93 1.327 3.986 7.629 9.636 11.382 11.748Z"/><path fill="url(#paint4_linear_6992_5054)" d="M15.097 29.441c.534.3 1.178.284 1.709-.021 3.389-1.947 9.222-6.382 11.519-12.134C31.712 9.76 23.758 3.754 18.26 8.074c-.563.443-1.269.949-1.764 1.43-.24.232-.66.256-.907.032-.653-.59-1.653-1.336-2.299-1.773-4.686-3.17-13.214 1.009-9.576 9.93 1.327 3.986 7.629 9.636 11.382 11.748Z"/><path fill="url(#paint5_linear_6992_5054)" d="M15.097 29.441c.534.3 1.178.284 1.709-.021 3.389-1.947 9.222-6.382 11.519-12.134C31.712 9.76 23.758 3.754 18.26 8.074c-.563.443-1.269.949-1.764 1.43-.24.232-.66.256-.907.032-.653-.59-1.653-1.336-2.299-1.773-4.686-3.17-13.214 1.009-9.576 9.93 1.327 3.986 7.629 9.636 11.382 11.748Z"/><path fill="url(#paint6_linear_6992_5054)" d="M12.874 27.993V18.27H3.936c1.378 3.195 5.516 7.238 8.938 9.723Z"/><path fill="url(#paint7_linear_6992_5054)" d="M15.928 9.865c.889.812 2.264.573 3.026-.359 1.076-1.315 2.584-2.64 4.565-2.766-1.724-.331-3.602.033-5.258 1.334-.142.112-.294.228-.448.347-.458.35-.946.723-1.316 1.082-.24.233-.66.257-.907.033a11.162 11.162 0 0 0-.114-.102c.12.122.277.27.452.43Z"/><g filter="url(#filter0_f_6992_5054)"><ellipse cx="24.236" cy="12.486" fill="url(#paint8_radial_6992_5054)" rx="3.929" ry="2.703" transform="rotate(-44.19 24.236 12.486)"/></g><g filter="url(#filter1_f_6992_5054)"><ellipse cx="12.671" cy="12.114" fill="url(#paint9_radial_6992_5054)" fill-opacity=".5" rx="3.929" ry="2.703" transform="rotate(-128.955 12.67 12.114)"/></g><path fill="#FFE042" d="M4.77 19.82h22.28c.493-.811.925-1.657 1.276-2.534a9.216 9.216 0 0 0 .717-2.372H2.933c.127.866.38 1.793.782 2.778.223.67.587 1.389 1.056 2.128Z"/><path fill="url(#paint10_radial_6992_5054)" d="M4.77 19.82h22.28c.493-.811.925-1.657 1.276-2.534a9.216 9.216 0 0 0 .717-2.372H2.933c.127.866.38 1.793.782 2.778.223.67.587 1.389 1.056 2.128Z"/><path fill="url(#paint11_linear_6992_5054)" d="M4.77 19.82h22.28c.493-.811.925-1.657 1.276-2.534a9.216 9.216 0 0 0 .717-2.372H2.933c.127.866.38 1.793.782 2.778.223.67.587 1.389 1.056 2.128Z"/><path fill="url(#paint12_linear_6992_5054)" d="m5.975 18.27 3.509 1.277-2.317 6.366a.35.35 0 0 1-.652.016l-.455-1.083a.6.6 0 0 0-.82-.305l-1.105.546a.35.35 0 0 1-.484-.433l2.324-6.384Z"/><path fill="url(#paint13_linear_6992_5054)" d="m5.975 18.27 3.509 1.277-2.317 6.366a.35.35 0 0 1-.652.016l-.455-1.083a.6.6 0 0 0-.82-.305l-1.105.546a.35.35 0 0 1-.484-.433l2.324-6.384Z"/><path fill="url(#paint14_radial_6992_5054)" d="m5.975 18.27 3.509 1.277-2.317 6.366a.35.35 0 0 1-.652.016l-.455-1.083a.6.6 0 0 0-.82-.305l-1.105.546a.35.35 0 0 1-.484-.433l2.324-6.384Z"/><path fill="url(#paint15_linear_6992_5054)" d="m5.975 18.27 3.509 1.277-2.317 6.366a.35.35 0 0 1-.652.016l-.455-1.083a.6.6 0 0 0-.82-.305l-1.105.546a.35.35 0 0 1-.484-.433l2.324-6.384Z"/><path fill="url(#paint16_linear_6992_5054)" d="m12.62 18.27-3.508 1.277 2.317 6.366a.35.35 0 0 0 .651.016l.456-1.083a.6.6 0 0 1 .819-.305l1.105.546a.35.35 0 0 0 .484-.433l-2.323-6.384Z"/><path fill="url(#paint17_linear_6992_5054)" d="m12.62 18.27-3.508 1.277 2.317 6.366a.35.35 0 0 0 .651.016l.456-1.083a.6.6 0 0 1 .819-.305l1.105.546a.35.35 0 0 0 .484-.433l-2.323-6.384Z"/><path fill="url(#paint18_linear_6992_5054)" d="m12.62 18.27-3.508 1.277 2.317 6.366a.35.35 0 0 0 .651.016l.456-1.083a.6.6 0 0 1 .819-.305l1.105.546a.35.35 0 0 0 .484-.433l-2.323-6.384Z"/><path fill="url(#paint19_linear_6992_5054)" d="m9.098 18.625.2.087.2-.087v-2.813l-.2-.095-.2.095v2.813Z"/><path fill="url(#paint20_linear_6992_5054)" d="M1.804 15.208c.003-1.35 1.609-2.332 3.27-1.747l2.007.895c.21.093.433.153.66.176v5.023l-5.937-.328v-4.02Z"/><path fill="url(#paint21_linear_6992_5054)" d="M1.804 15.208c.003-1.35 1.609-2.332 3.27-1.747l2.007.895c.21.093.433.153.66.176v5.023l-5.937-.328v-4.02Z"/><path fill="url(#paint22_radial_6992_5054)" d="M1.804 15.208c.003-1.35 1.609-2.332 3.27-1.747l2.007.895c.21.093.433.153.66.176v5.023l-5.937-.328v-4.02Z"/><path fill="url(#paint23_radial_6992_5054)" d="M2.204 19.233c0-1.247 1.752-1.83 2.882-1.27l2.612 1.273-2.612 1.273c-1.13.56-2.882-.023-2.882-1.27v-.006Z"/><path fill="url(#paint24_linear_6992_5054)" fill-rule="evenodd" d="M2.204 19.233c0-1.247 1.752-1.83 2.882-1.27l2.612 1.273-2.612 1.273c-1.13.56-2.882-.023-2.882-1.27v-.006Zm-.4.003v-.003c0-.842.597-1.415 1.27-1.684.67-.268 1.509-.281 2.188.055h.001l2.61 1.272a.4.4 0 0 1 0 .72l-2.61 1.272c-.68.336-1.52.323-2.19.055-.672-.269-1.269-.841-1.269-1.684v-.003Z" clip-rule="evenodd"/><path fill="url(#paint25_radial_6992_5054)" fill-rule="evenodd" d="M2.204 19.233c0-1.247 1.752-1.83 2.882-1.27l2.612 1.273-2.612 1.273c-1.13.56-2.882-.023-2.882-1.27v-.006Zm-.4.003v-.003c0-.842.597-1.415 1.27-1.684.67-.268 1.509-.281 2.188.055h.001l2.61 1.272a.4.4 0 0 1 0 .72l-2.61 1.272c-.68.336-1.52.323-2.19.055-.672-.269-1.269-.841-1.269-1.684v-.003Z" clip-rule="evenodd"/><path fill="url(#paint26_linear_6992_5054)" fill-rule="evenodd" d="M2.204 19.233c0-1.247 1.752-1.83 2.882-1.27l2.612 1.273-2.612 1.273c-1.13.56-2.882-.023-2.882-1.27v-.006Zm-.4.003v-.003c0-.842.597-1.415 1.27-1.684.67-.268 1.509-.281 2.188.055h.001l2.61 1.272a.4.4 0 0 1 0 .72l-2.61 1.272c-.68.336-1.52.323-2.19.055-.672-.269-1.269-.841-1.269-1.684v-.003Z" clip-rule="evenodd"/><path fill="url(#paint27_radial_6992_5054)" fill-rule="evenodd" d="M2.204 19.233c0-1.247 1.752-1.83 2.882-1.27l2.612 1.273-2.612 1.273c-1.13.56-2.882-.023-2.882-1.27v-.006Zm-.4.003v-.003c0-.842.597-1.415 1.27-1.684.67-.268 1.509-.281 2.188.055h.001l2.61 1.272a.4.4 0 0 1 0 .72l-2.61 1.272c-.68.336-1.52.323-2.19.055-.672-.269-1.269-.841-1.269-1.684v-.003Z" clip-rule="evenodd"/><path fill="url(#paint28_radial_6992_5054)" fill-rule="evenodd" d="M2.204 19.233c0-1.247 1.752-1.83 2.882-1.27l2.612 1.273-2.612 1.273c-1.13.56-2.882-.023-2.882-1.27v-.006Zm-.4.003v-.003c0-.842.597-1.415 1.27-1.684.67-.268 1.509-.281 2.188.055h.001l2.61 1.272a.4.4 0 0 1 0 .72l-2.61 1.272c-.68.336-1.52.323-2.19.055-.672-.269-1.269-.841-1.269-1.684v-.003Z" clip-rule="evenodd"/><path fill="url(#paint29_radial_6992_5054)" fill-rule="evenodd" d="M2.204 19.233c0-1.247 1.752-1.83 2.882-1.27l2.612 1.273-2.612 1.273c-1.13.56-2.882-.023-2.882-1.27v-.006Zm-.4.003v-.003c0-.842.597-1.415 1.27-1.684.67-.268 1.509-.281 2.188.055h.001l2.61 1.272a.4.4 0 0 1 0 .72l-2.61 1.272c-.68.336-1.52.323-2.19.055-.672-.269-1.269-.841-1.269-1.684v-.003Z" clip-rule="evenodd"/><path fill="url(#paint30_radial_6992_5054)" fill-rule="evenodd" d="M2.204 19.233c0-1.247 1.752-1.83 2.882-1.27l2.612 1.273-2.612 1.273c-1.13.56-2.882-.023-2.882-1.27v-.006Zm-.4.003v-.003c0-.842.597-1.415 1.27-1.684.67-.268 1.509-.281 2.188.055h.001l2.61 1.272a.4.4 0 0 1 0 .72l-2.61 1.272c-.68.336-1.52.323-2.19.055-.672-.269-1.269-.841-1.269-1.684v-.003Z" clip-rule="evenodd"/><path fill="url(#paint31_radial_6992_5054)" fill-rule="evenodd" d="M2.204 19.233c0-1.247 1.752-1.83 2.882-1.27l2.612 1.273-2.612 1.273c-1.13.56-2.882-.023-2.882-1.27v-.006Zm-.4.003v-.003c0-.842.597-1.415 1.27-1.684.67-.268 1.509-.281 2.188.055h.001l2.61 1.272a.4.4 0 0 1 0 .72l-2.61 1.272c-.68.336-1.52.323-2.19.055-.672-.269-1.269-.841-1.269-1.684v-.003Z" clip-rule="evenodd"/><g filter="url(#filter2_f_6992_5054)"><ellipse cx="4.262" cy="18.862" fill="#B23A28" rx="1.11" ry=".759" transform="rotate(21.487 4.262 18.862)"/></g><path fill="url(#paint32_linear_6992_5054)" d="M16.964 15.208c-.003-1.35-1.609-2.332-3.27-1.747l-2.007.895c-.21.093-.433.153-.66.176v5.023l5.937-.328v-4.02Z"/><path fill="url(#paint33_linear_6992_5054)" d="M16.964 15.208c-.003-1.35-1.609-2.332-3.27-1.747l-2.007.895c-.21.093-.433.153-.66.176v5.023l5.937-.328v-4.02Z"/><path fill="url(#paint34_radial_6992_5054)" d="M16.964 15.208c-.003-1.35-1.609-2.332-3.27-1.747l-2.007.895c-.21.093-.433.153-.66.176v5.023l5.937-.328v-4.02Z"/><path fill="url(#paint35_linear_6992_5054)" d="M16.964 15.208c-.003-1.35-1.609-2.332-3.27-1.747l-2.007.895c-.21.093-.433.153-.66.176v5.023l5.937-.328v-4.02Z"/><path fill="url(#paint36_radial_6992_5054)" d="M16.564 19.233c0-1.247-1.752-1.83-2.882-1.27l-2.612 1.273 2.612 1.273c1.13.56 2.882-.023 2.882-1.27v-.006Z"/><path fill="url(#paint37_linear_6992_5054)" fill-rule="evenodd" d="M16.564 19.233c0-1.247-1.752-1.83-2.882-1.27l-2.612 1.273 2.612 1.273c1.13.56 2.882-.023 2.882-1.27v-.006Zm.4.003v-.003c0-.842-.597-1.415-1.269-1.684-.67-.268-1.51-.281-2.19.055l-2.61 1.272a.4.4 0 0 0 0 .72l2.61 1.272c.68.336 1.52.323 2.19.055.672-.269 1.269-.841 1.269-1.684v-.003Z" clip-rule="evenodd"/><path fill="url(#paint38_radial_6992_5054)" fill-rule="evenodd" d="M16.564 19.233c0-1.247-1.752-1.83-2.882-1.27l-2.612 1.273 2.612 1.273c1.13.56 2.882-.023 2.882-1.27v-.006Zm.4.003v-.003c0-.842-.597-1.415-1.269-1.684-.67-.268-1.51-.281-2.19.055l-2.61 1.272a.4.4 0 0 0 0 .72l2.61 1.272c.68.336 1.52.323 2.19.055.672-.269 1.269-.841 1.269-1.684v-.003Z" clip-rule="evenodd"/><path fill="url(#paint39_linear_6992_5054)" fill-rule="evenodd" d="M16.564 19.233c0-1.247-1.752-1.83-2.882-1.27l-2.612 1.273 2.612 1.273c1.13.56 2.882-.023 2.882-1.27v-.006Zm.4.003v-.003c0-.842-.597-1.415-1.269-1.684-.67-.268-1.51-.281-2.19.055l-2.61 1.272a.4.4 0 0 0 0 .72l2.61 1.272c.68.336 1.52.323 2.19.055.672-.269 1.269-.841 1.269-1.684v-.003Z" clip-rule="evenodd"/><path fill="url(#paint40_radial_6992_5054)" fill-rule="evenodd" d="M16.564 19.233c0-1.247-1.752-1.83-2.882-1.27l-2.612 1.273 2.612 1.273c1.13.56 2.882-.023 2.882-1.27v-.006Zm.4.003v-.003c0-.842-.597-1.415-1.269-1.684-.67-.268-1.51-.281-2.19.055l-2.61 1.272a.4.4 0 0 0 0 .72l2.61 1.272c.68.336 1.52.323 2.19.055.672-.269 1.269-.841 1.269-1.684v-.003Z" clip-rule="evenodd"/><path fill="url(#paint41_radial_6992_5054)" fill-rule="evenodd" d="M16.564 19.233c0-1.247-1.752-1.83-2.882-1.27l-2.612 1.273 2.612 1.273c1.13.56 2.882-.023 2.882-1.27v-.006Zm.4.003v-.003c0-.842-.597-1.415-1.269-1.684-.67-.268-1.51-.281-2.19.055l-2.61 1.272a.4.4 0 0 0 0 .72l2.61 1.272c.68.336 1.52.323 2.19.055.672-.269 1.269-.841 1.269-1.684v-.003Z" clip-rule="evenodd"/><path fill="url(#paint42_radial_6992_5054)" fill-rule="evenodd" d="M16.564 19.233c0-1.247-1.752-1.83-2.882-1.27l-2.612 1.273 2.612 1.273c1.13.56 2.882-.023 2.882-1.27v-.006Zm.4.003v-.003c0-.842-.597-1.415-1.269-1.684-.67-.268-1.51-.281-2.19.055l-2.61 1.272a.4.4 0 0 0 0 .72l2.61 1.272c.68.336 1.52.323 2.19.055.672-.269 1.269-.841 1.269-1.684v-.003Z" clip-rule="evenodd"/><path fill="url(#paint43_radial_6992_5054)" fill-rule="evenodd" d="M16.564 19.233c0-1.247-1.752-1.83-2.882-1.27l-2.612 1.273 2.612 1.273c1.13.56 2.882-.023 2.882-1.27v-.006Zm.4.003v-.003c0-.842-.597-1.415-1.269-1.684-.67-.268-1.51-.281-2.19.055l-2.61 1.272a.4.4 0 0 0 0 .72l2.61 1.272c.68.336 1.52.323 2.19.055.672-.269 1.269-.841 1.269-1.684v-.003Z" clip-rule="evenodd"/><path fill="url(#paint44_radial_6992_5054)" fill-rule="evenodd" d="M16.564 19.233c0-1.247-1.752-1.83-2.882-1.27l-2.612 1.273 2.612 1.273c1.13.56 2.882-.023 2.882-1.27v-.006Zm.4.003v-.003c0-.842-.597-1.415-1.269-1.684-.67-.268-1.51-.281-2.19.055l-2.61 1.272a.4.4 0 0 0 0 .72l2.61 1.272c.68.336 1.52.323 2.19.055.672-.269 1.269-.841 1.269-1.684v-.003Z" clip-rule="evenodd"/><g filter="url(#filter3_f_6992_5054)"><ellipse fill="#B23A28" rx="1.11" ry=".759" transform="scale(-1 1) rotate(21.487 -56.96 -28.797)"/></g><rect width="3.781" height="7" x="7.407" y="13.633" fill="url(#paint45_linear_6992_5054)" rx="1"/><rect width="3.781" height="7" x="7.407" y="13.633" fill="url(#paint46_linear_6992_5054)" rx="1"/><rect width="3.781" height="7" x="7.407" y="13.633" fill="url(#paint47_linear_6992_5054)" rx="1"/><rect width="3.781" height="7" x="7.407" y="13.633" fill="url(#paint48_linear_6992_5054)" rx="1"/><g filter="url(#filter4_f_6992_5054)"><path fill="#FFAB44" d="M7.999 19.661a.5.5 0 0 1 .5-.5h1.614a.5.5 0 0 1 .5.5v.014a.5.5 0 0 1-.5.5H8.499a.5.5 0 0 1-.5-.5v-.014Z"/></g><g filter="url(#filter5_f_6992_5054)"><circle cx="10.348" cy="19.247" r=".497" fill="#FFF58C"/></g><g filter="url(#filter6_f_6992_5054)"><circle cx="10.436" cy="14.329" r=".409" fill="#FFF58F"/></g><defs><linearGradient id="paint4_linear_6992_5054" x1="17.53" x2="25.093" y1="17.133" y2="26.133" gradientUnits="userSpaceOnUse"><stop offset=".694" stop-color="#FF7AF2" stop-opacity="0"/><stop offset=".934" stop-color="#FFBCE6"/></linearGradient><linearGradient id="paint5_linear_6992_5054" x1="16.593" x2="7.718" y1="17.508" y2="27.508" gradientUnits="userSpaceOnUse"><stop offset=".694" stop-color="#FF7AF2" stop-opacity="0"/><stop offset=".934" stop-color="#FFBCE6"/></linearGradient><linearGradient id="paint6_linear_6992_5054" x1="7.78" x2="8.75" y1="23.789" y2="21.494" gradientUnits="userSpaceOnUse"><stop offset=".151" stop-color="#B91D43" stop-opacity="0"/><stop offset="1" stop-color="#B91D43"/></linearGradient><linearGradient id="paint7_linear_6992_5054" x1="19.493" x2="16.841" y1="10.727" y2="7.813" gradientUnits="userSpaceOnUse"><stop offset=".41" stop-color="#C12372" stop-opacity="0"/><stop offset=".834" stop-color="#B5286E"/></linearGradient><linearGradient id="paint11_linear_6992_5054" x1="30.218" x2="25.874" y1="19.195" y2="17.102" gradientUnits="userSpaceOnUse"><stop stop-color="#FFA630"/><stop offset="1" stop-color="#FFA022" stop-opacity="0"/></linearGradient><linearGradient id="paint12_linear_6992_5054" x1="7.874" x2="5.405" y1="27.695" y2="18.945" gradientUnits="userSpaceOnUse"><stop stop-color="#F8EC1D"/><stop offset=".569" stop-color="#F89C20"/><stop offset=".849" stop-color="#C13A24"/></linearGradient><linearGradient id="paint13_linear_6992_5054" x1="3.733" x2="4.421" y1="23.195" y2="23.422" gradientUnits="userSpaceOnUse"><stop stop-color="#D06400"/><stop offset="1" stop-color="#D06400" stop-opacity="0"/></linearGradient><linearGradient id="paint15_linear_6992_5054" x1="6.983" x2="7.413" y1="25.828" y2="25.985" gradientUnits="userSpaceOnUse"><stop stop-color="#FFC42D" stop-opacity="0"/><stop offset=".448" stop-color="#FFC42D"/></linearGradient><linearGradient id="paint16_linear_6992_5054" x1="11.499" x2="12.655" y1="28.102" y2="18.602" gradientUnits="userSpaceOnUse"><stop offset=".141" stop-color="#F8EC1D"/><stop offset=".625" stop-color="#F89C20"/><stop offset=".849" stop-color="#C13A24"/></linearGradient><linearGradient id="paint17_linear_6992_5054" x1="10.483" x2="10.733" y1="23.555" y2="23.469" gradientUnits="userSpaceOnUse"><stop stop-color="#D06400"/><stop offset="1" stop-color="#D06400" stop-opacity="0"/></linearGradient><linearGradient id="paint18_linear_6992_5054" x1="14.671" x2="14.999" y1="24.399" y2="24.274" gradientUnits="userSpaceOnUse"><stop stop-color="#FFE601" stop-opacity="0"/><stop offset="1" stop-color="#FFF101"/></linearGradient><linearGradient id="paint19_linear_6992_5054" x1="1.205" x2="9.501" y1="17.218" y2="17.218" gradientUnits="userSpaceOnUse"><stop stop-color="#ED1C26"/><stop offset=".456" stop-color="#ED1452"/><stop offset="1" stop-color="#EC098C"/></linearGradient><linearGradient id="paint20_linear_6992_5054" x1="3.836" x2=".976" y1="15.976" y2="15.976" gradientUnits="userSpaceOnUse"><stop stop-color="#FFEA3F"/><stop offset=".911" stop-color="#A2831C"/></linearGradient><linearGradient id="paint21_linear_6992_5054" x1="8.53" x2="6.718" y1="16.083" y2="16.083" gradientUnits="userSpaceOnUse"><stop offset=".255" stop-color="#EB8D10"/><stop offset="1" stop-color="#FFA022" stop-opacity="0"/></linearGradient><linearGradient id="paint24_linear_6992_5054" x1="4.691" x2="8.91" y1="18.742" y2="18.742" gradientUnits="userSpaceOnUse"><stop stop-color="#F9AB4E"/><stop offset="1" stop-color="#F89B4C"/></linearGradient><linearGradient id="paint26_linear_6992_5054" x1="4.207" x2="8.597" y1="21.617" y2="19.695" gradientUnits="userSpaceOnUse"><stop offset=".646" stop-color="#F48629" stop-opacity="0"/><stop offset="1" stop-color="#F48629"/></linearGradient><linearGradient id="paint32_linear_6992_5054" x1="14.405" x2="7.53" y1="15.976" y2="15.976" gradientUnits="userSpaceOnUse"><stop stop-color="#FFEA3F"/><stop offset=".911" stop-color="#A2831C"/></linearGradient><linearGradient id="paint33_linear_6992_5054" x1="10.78" x2="11.655" y1="16.102" y2="16.102" gradientUnits="userSpaceOnUse"><stop offset=".255" stop-color="#FF9B16"/><stop offset="1" stop-color="#FFA022" stop-opacity="0"/></linearGradient><linearGradient id="paint35_linear_6992_5054" x1="18.468" x2="16.436" y1="16.083" y2="16.083" gradientUnits="userSpaceOnUse"><stop offset=".255" stop-color="#EB8D10"/><stop offset="1" stop-color="#FFA022" stop-opacity="0"/></linearGradient><linearGradient id="paint37_linear_6992_5054" x1="14.077" x2="9.858" y1="18.742" y2="18.742" gradientUnits="userSpaceOnUse"><stop stop-color="#F9AB4E"/><stop offset="1" stop-color="#F89B4C"/></linearGradient><linearGradient id="paint39_linear_6992_5054" x1="14.561" x2="10.171" y1="21.617" y2="19.695" gradientUnits="userSpaceOnUse"><stop offset=".646" stop-color="#F48629" stop-opacity="0"/><stop offset="1" stop-color="#F48629"/></linearGradient><linearGradient id="paint45_linear_6992_5054" x1="11.188" x2="6.905" y1="16.008" y2="21.695" gradientUnits="userSpaceOnUse"><stop stop-color="#F8EC1D"/><stop offset="1" stop-color="#F89C20"/></linearGradient><linearGradient id="paint46_linear_6992_5054" x1="5.374" x2="8.936" y1="19.82" y2="19.82" gradientUnits="userSpaceOnUse"><stop stop-color="#CC872E"/><stop offset="1" stop-color="#CC872E" stop-opacity="0"/></linearGradient><linearGradient id="paint47_linear_6992_5054" x1="9.124" x2="9.124" y1="15.789" y2="21.899" gradientUnits="userSpaceOnUse"><stop offset=".671" stop-color="#FF7AF2" stop-opacity="0"/><stop offset=".934" stop-color="#FFBCE6"/></linearGradient><linearGradient id="paint48_linear_6992_5054" x1="6.155" x2="8.093" y1="16.775" y2="16.664" gradientUnits="userSpaceOnUse"><stop offset=".51" stop-color="#FF9B16"/><stop offset="1" stop-color="#FFA022" stop-opacity="0"/></linearGradient><radialGradient id="paint0_radial_6992_5054" cx="0" cy="0" r="1" gradientTransform="matrix(0 -30.75 52.275 0 18.655 29.258)" gradientUnits="userSpaceOnUse"><stop stop-color="#F12E52"/><stop offset=".596" stop-color="#FF3B79"/><stop offset="1" stop-color="#FF4EC6"/></radialGradient><radialGradient id="paint1_radial_6992_5054" cx="0" cy="0" r="1" gradientTransform="rotate(142.986 9.143 10.083) scale(24.7537 46.3661)" gradientUnits="userSpaceOnUse"><stop offset=".483" stop-color="#B91D43" stop-opacity="0"/><stop offset=".834" stop-color="#B91D43"/></radialGradient><radialGradient id="paint2_radial_6992_5054" cx="0" cy="0" r="1" gradientTransform="rotate(-158.663 11.589 7.496) scale(21.4717 30.3533)" gradientUnits="userSpaceOnUse"><stop offset=".41" stop-color="#B91D43" stop-opacity="0"/><stop offset=".834" stop-color="#B91D43"/></radialGradient><radialGradient id="paint3_radial_6992_5054" cx="0" cy="0" r="1" gradientTransform="rotate(90 .261 15.207) scale(18.6875)" gradientUnits="userSpaceOnUse"><stop offset=".671" stop-color="#FF7AF2" stop-opacity="0"/><stop offset=".934" stop-color="#FFBCE6"/></radialGradient><radialGradient id="paint8_radial_6992_5054" cx="0" cy="0" r="1" gradientTransform="rotate(-176.775 14.283 6.262) scale(5.80989 3.9231)" gradientUnits="userSpaceOnUse"><stop stop-color="#FF93BA"/><stop offset="1" stop-color="#FF73A6" stop-opacity="0"/></radialGradient><radialGradient id="paint9_radial_6992_5054" cx="0" cy="0" r="1" gradientTransform="matrix(-8.359 -.24809 .16752 -5.64438 14.99 12.844)" gradientUnits="userSpaceOnUse"><stop stop-color="#FF93BA"/><stop offset="1" stop-color="#FF73A6" stop-opacity="0"/></radialGradient><radialGradient id="paint10_radial_6992_5054" cx="0" cy="0" r="1" gradientTransform="matrix(7 0 0 8.36441 16.155 17.758)" gradientUnits="userSpaceOnUse"><stop stop-color="#D9810E"/><stop offset=".323" stop-color="#FFA022"/><stop offset="1" stop-color="#FFA022" stop-opacity="0"/></radialGradient><radialGradient id="paint14_radial_6992_5054" cx="0" cy="0" r="1" gradientTransform="matrix(2.25 -5.46875 3.1646 1.302 3.686 29.742)" gradientUnits="userSpaceOnUse"><stop offset=".718" stop-color="#D06400"/><stop offset=".974" stop-color="#D06400" stop-opacity="0"/></radialGradient><radialGradient id="paint22_radial_6992_5054" cx="0" cy="0" r="1" gradientTransform="matrix(.29687 -1.54688 2.75125 .52801 5.242 18.93)" gradientUnits="userSpaceOnUse"><stop stop-color="#FFF45A"/><stop offset="1" stop-color="#FFF45A" stop-opacity="0"/></radialGradient><radialGradient id="paint23_radial_6992_5054" cx="0" cy="0" r="1" gradientTransform="rotate(-72.207 16.69 8.607) scale(4.19275 10.9917)" gradientUnits="userSpaceOnUse"><stop offset=".019" stop-color="#FC8306"/><stop offset=".218" stop-color="#F78E13"/><stop offset=".817" stop-color="#B23A28"/></radialGradient><radialGradient id="paint25_radial_6992_5054" cx="0" cy="0" r="1" gradientTransform="rotate(103.422 -3.963 11.385) scale(4.24083 9.22084)" gradientUnits="userSpaceOnUse"><stop offset=".839" stop-color="#F48629" stop-opacity="0"/><stop offset="1" stop-color="#F48629"/></radialGradient><radialGradient id="paint27_radial_6992_5054" cx="0" cy="0" r="1" gradientTransform="matrix(-.375 1.26563 -1.6271 -.48209 3.597 19.633)" gradientUnits="userSpaceOnUse"><stop offset=".034" stop-color="#FFF45A"/><stop offset="1" stop-color="#FFF45A" stop-opacity="0"/></radialGradient><radialGradient id="paint28_radial_6992_5054" cx="0" cy="0" r="1" gradientTransform="matrix(.17187 .39844 -1.52776 .65903 5.34 20.094)" gradientUnits="userSpaceOnUse"><stop stop-color="#FFF45A" stop-opacity=".911"/><stop offset="1" stop-color="#FFF45A" stop-opacity="0"/></radialGradient><radialGradient id="paint29_radial_6992_5054" cx="0" cy="0" r="1" gradientTransform="rotate(-137.479 6.98 9.657) scale(5.23639 3.80855)" gradientUnits="userSpaceOnUse"><stop offset=".872" stop-color="#FFF45A" stop-opacity="0"/><stop offset=".972" stop-color="#D8CC28" stop-opacity=".911"/></radialGradient><radialGradient id="paint30_radial_6992_5054" cx="0" cy="0" r="1" gradientTransform="rotate(-65.92 19.191 7.289) scale(4.27002 12.1433)" gradientUnits="userSpaceOnUse"><stop offset=".869" stop-color="#FFF45A" stop-opacity="0"/><stop offset=".972" stop-color="#FFF45A" stop-opacity=".911"/></radialGradient><radialGradient id="paint31_radial_6992_5054" cx="0" cy="0" r="1" gradientTransform="matrix(-6.34375 0 0 -3.71766 7.847 19.133)" gradientUnits="userSpaceOnUse"><stop offset=".895" stop-color="#A2831C" stop-opacity="0"/><stop offset="1" stop-color="#A2831C"/></radialGradient><radialGradient id="paint34_radial_6992_5054" cx="0" cy="0" r="1" gradientTransform="rotate(-100.864 14.584 3.876) scale(1.57511 2.80146)" gradientUnits="userSpaceOnUse"><stop stop-color="#FFF45A"/><stop offset="1" stop-color="#FFF45A" stop-opacity="0"/></radialGradient><radialGradient id="paint36_radial_6992_5054" cx="0" cy="0" r="1" gradientTransform="matrix(-1.28122 -3.9922 10.46593 -3.35883 15.374 21.867)" gradientUnits="userSpaceOnUse"><stop offset=".019" stop-color="#FC8306"/><stop offset=".218" stop-color="#F78E13"/><stop offset=".817" stop-color="#B23A28"/></radialGradient><radialGradient id="paint38_radial_6992_5054" cx="0" cy="0" r="1" gradientTransform="matrix(.98437 4.125 -8.969 2.14032 12.577 17.883)" gradientUnits="userSpaceOnUse"><stop offset=".839" stop-color="#F48629" stop-opacity="0"/><stop offset="1" stop-color="#F48629"/></radialGradient><radialGradient id="paint40_radial_6992_5054" cx="0" cy="0" r="1" gradientTransform="matrix(.375 1.26562 -1.62709 .4821 15.17 19.633)" gradientUnits="userSpaceOnUse"><stop offset=".034" stop-color="#FFF45A"/><stop offset="1" stop-color="#FFF45A" stop-opacity="0"/></radialGradient><radialGradient id="paint41_radial_6992_5054" cx="0" cy="0" r="1" gradientTransform="matrix(-.29688 .67187 -2.57621 -1.13834 13.499 19.961)" gradientUnits="userSpaceOnUse"><stop stop-color="#FFF45A" stop-opacity=".911"/><stop offset="1" stop-color="#FFF45A" stop-opacity="0"/></radialGradient><radialGradient id="paint42_radial_6992_5054" cx="0" cy="0" r="1" gradientTransform="matrix(3.85938 -3.53906 2.57404 2.80702 13.17 21.492)" gradientUnits="userSpaceOnUse"><stop offset=".872" stop-color="#FFF45A" stop-opacity="0"/><stop offset=".972" stop-color="#D8CC28" stop-opacity=".911"/></radialGradient><radialGradient id="paint43_radial_6992_5054" cx="0" cy="0" r="1" gradientTransform="matrix(-1.74222 -3.89843 11.08655 -4.95461 14.061 21.836)" gradientUnits="userSpaceOnUse"><stop offset=".869" stop-color="#FFF45A" stop-opacity="0"/><stop offset=".972" stop-color="#FFF45A" stop-opacity=".911"/></radialGradient><radialGradient id="paint44_radial_6992_5054" cx="0" cy="0" r="1" gradientTransform="matrix(3.3125 -.34375 .24456 2.35665 14.03 19.477)" gradientUnits="userSpaceOnUse"><stop offset=".869" stop-color="#FFF45A" stop-opacity="0"/><stop offset=".972" stop-color="#FFF45A" stop-opacity=".911"/></radialGradient><filter id="filter0_f_6992_5054" width="9.779" height="9.711" x="19.347" y="7.631" color-interpolation-filters="sRGB" filterUnits="userSpaceOnUse"><feFlood flood-opacity="0" result="BackgroundImageFix"/><feBlend in="SourceGraphic" in2="BackgroundImageFix" result="shape"/><feGaussianBlur result="effect1_foregroundBlur_6992_5054" stdDeviation=".75"/></filter><filter id="filter1_f_6992_5054" width="9.487" height="9.993" x="7.927" y="7.118" color-interpolation-filters="sRGB" filterUnits="userSpaceOnUse"><feFlood flood-opacity="0" result="BackgroundImageFix"/><feBlend in="SourceGraphic" in2="BackgroundImageFix" result="shape"/><feGaussianBlur result="effect1_foregroundBlur_6992_5054" stdDeviation=".75"/></filter><filter id="filter2_f_6992_5054" width="4.14" height="3.629" x="2.192" y="17.047" color-interpolation-filters="sRGB" filterUnits="userSpaceOnUse"><feFlood flood-opacity="0" result="BackgroundImageFix"/><feBlend in="SourceGraphic" in2="BackgroundImageFix" result="shape"/><feGaussianBlur result="effect1_foregroundBlur_6992_5054" stdDeviation=".5"/></filter><filter id="filter3_f_6992_5054" width="4.14" height="3.629" x="12.437" y="17.047" color-interpolation-filters="sRGB" filterUnits="userSpaceOnUse"><feFlood flood-opacity="0" result="BackgroundImageFix"/><feBlend in="SourceGraphic" in2="BackgroundImageFix" result="shape"/><feGaussianBlur result="effect1_foregroundBlur_6992_5054" stdDeviation=".5"/></filter><filter id="filter4_f_6992_5054" width="3.614" height="2.014" x="7.499" y="18.661" color-interpolation-filters="sRGB" filterUnits="userSpaceOnUse"><feFlood flood-opacity="0" result="BackgroundImageFix"/><feBlend in="SourceGraphic" in2="BackgroundImageFix" result="shape"/><feGaussianBlur result="effect1_foregroundBlur_6992_5054" stdDeviation=".25"/></filter><filter id="filter5_f_6992_5054" width="2.994" height="2.995" x="8.85" y="17.75" color-interpolation-filters="sRGB" filterUnits="userSpaceOnUse"><feFlood flood-opacity="0" result="BackgroundImageFix"/><feBlend in="SourceGraphic" in2="BackgroundImageFix" result="shape"/><feGaussianBlur result="effect1_foregroundBlur_6992_5054" stdDeviation=".5"/></filter><filter id="filter6_f_6992_5054" width="1.818" height="1.818" x="9.527" y="13.42" color-interpolation-filters="sRGB" filterUnits="userSpaceOnUse"><feFlood flood-opacity="0" result="BackgroundImageFix"/><feBlend in="SourceGraphic" in2="BackgroundImageFix" result="shape"/><feGaussianBlur result="effect1_foregroundBlur_6992_5054" stdDeviation=".25"/></filter></defs></svg>