<svg xmlns="http://www.w3.org/2000/svg" width="32" height="32" fill="none" viewBox="0 0 32 32"><g clip-path="url(#clip0_28327_2831)"><path fill="url(#paint0_linear_28327_2831)" d="M20.84 29.805h-1.48c-.17 0-.29-.16-.24-.32l2.43-8.53h2l-2.47 8.67c-.03.11-.13.18-.24.18Z"/><path fill="url(#paint1_linear_28327_2831)" d="M20.84 29.805h-1.48c-.17 0-.29-.16-.24-.32l2.43-8.53h2l-2.47 8.67c-.03.11-.13.18-.24.18Z"/><path fill="url(#paint2_linear_28327_2831)" d="M16.03 19.805h-2l1.98 6.91c.02.06.02.12 0 .17l-.76 2.59c-.05.16.07.32.24.32h1.48c.11 0 .21-.07.24-.18l.7-2.39c.08-.28.08-.58 0-.87l-1.88-6.55Z"/><path fill="url(#paint3_linear_28327_2831)" d="M16.03 19.805h-2l1.98 6.91c.02.06.02.12 0 .17l-.76 2.59c-.05.16.07.32.24.32h1.48c.11 0 .21-.07.24-.18l.7-2.39c.08-.28.08-.58 0-.87l-1.88-6.55Z"/><path fill="url(#paint4_linear_28327_2831)" d="M16.03 19.805h-2l1.98 6.91c.02.06.02.12 0 .17l-.76 2.59c-.05.16.07.32.24.32h1.48c.11 0 .21-.07.24-.18l.7-2.39c.08-.28.08-.58 0-.87l-1.88-6.55Z"/><path fill="url(#paint5_linear_28327_2831)" d="M25.39 9.805h-3.76c-.62 0-1.2-.27-1.63-.72a3.931 3.931 0 0 0-2.92-1.28h-2c-.16 0-.31-.08-.39-.22l-.56-.96a3.629 3.629 0 0 0-3.15-1.82h-.89c-.79 0-1.55.23-2.21.67l-5.1 3.4c-.43.29-.7.79-.7 1.32 0 1.43 1.13 2.61 2.56 2.61h2.022a.5.5 0 0 1 .492.41l.656 3.62.68 3.9a2.547 2.547 0 0 0 1.639 1.951c.226.082.401.284.401.525v6.374c0 .14.11.25.25.25h1.5c.14 0 .25-.11.25-.25v-2.443a.5.5 0 0 1 .274-.446l.596-.301c.69-.35 1.13-1.05 1.13-1.82v-1.242a.5.5 0 0 1 .498-.5l5.432-.028c.43 0 .829-.104 1.185-.284.184-.093.432.03.463.234a3.261 3.261 0 0 0 2.442 2.67l1.15.286a.5.5 0 0 1 .38.485v3.359c0 .14.11.25.25.25h1.5c.14 0 .25-.11.25-.25v-9.078c0-.239.125-.46.312-.607.259-.204.688-.033.688.296v3.649h1v-9.31c0-2.6-2.1-4.7-4.69-4.7Z"/><path fill="url(#paint6_radial_28327_2831)" d="M25.39 9.805h-3.76c-.62 0-1.2-.27-1.63-.72a3.931 3.931 0 0 0-2.92-1.28h-2c-.16 0-.31-.08-.39-.22l-.56-.96a3.629 3.629 0 0 0-3.15-1.82h-.89c-.79 0-1.55.23-2.21.67l-5.1 3.4c-.43.29-.7.79-.7 1.32 0 1.43 1.13 2.61 2.56 2.61h2.022a.5.5 0 0 1 .492.41l.656 3.62.68 3.9a2.547 2.547 0 0 0 1.639 1.951c.226.082.401.284.401.525v6.374c0 .14.11.25.25.25h1.5c.14 0 .25-.11.25-.25v-2.443a.5.5 0 0 1 .274-.446l.596-.301c.69-.35 1.13-1.05 1.13-1.82v-1.242a.5.5 0 0 1 .498-.5l5.432-.028c.43 0 .829-.104 1.185-.284.184-.093.432.03.463.234a3.261 3.261 0 0 0 2.442 2.67l1.15.286a.5.5 0 0 1 .38.485v3.359c0 .14.11.25.25.25h1.5c.14 0 .25-.11.25-.25v-9.078c0-.239.125-.46.312-.607.259-.204.688-.033.688.296v3.649h1v-9.31c0-2.6-2.1-4.7-4.69-4.7Z"/><path fill="url(#paint7_linear_28327_2831)" d="M25.39 9.805h-3.76c-.62 0-1.2-.27-1.63-.72a3.931 3.931 0 0 0-2.92-1.28h-2c-.16 0-.31-.08-.39-.22l-.56-.96a3.629 3.629 0 0 0-3.15-1.82h-.89c-.79 0-1.55.23-2.21.67l-5.1 3.4c-.43.29-.7.79-.7 1.32 0 1.43 1.13 2.61 2.56 2.61h2.022a.5.5 0 0 1 .492.41l.656 3.62.68 3.9a2.547 2.547 0 0 0 1.639 1.951c.226.082.401.284.401.525v6.374c0 .14.11.25.25.25h1.5c.14 0 .25-.11.25-.25v-2.443a.5.5 0 0 1 .274-.446l.596-.301c.69-.35 1.13-1.05 1.13-1.82v-1.242a.5.5 0 0 1 .498-.5l5.432-.028c.43 0 .829-.104 1.185-.284.184-.093.432.03.463.234a3.261 3.261 0 0 0 2.442 2.67l1.15.286a.5.5 0 0 1 .38.485v3.359c0 .14.11.25.25.25h1.5c.14 0 .25-.11.25-.25v-9.078c0-.239.125-.46.312-.607.259-.204.688-.033.688.296v3.649h1v-9.31c0-2.6-2.1-4.7-4.69-4.7Z"/><path fill="url(#paint8_radial_28327_2831)" d="M25.39 9.805h-3.76c-.62 0-1.2-.27-1.63-.72a3.931 3.931 0 0 0-2.92-1.28h-2c-.16 0-.31-.08-.39-.22l-.56-.96a3.629 3.629 0 0 0-3.15-1.82h-.89c-.79 0-1.55.23-2.21.67l-5.1 3.4c-.43.29-.7.79-.7 1.32 0 1.43 1.13 2.61 2.56 2.61h2.022a.5.5 0 0 1 .492.41l.656 3.62.68 3.9a2.547 2.547 0 0 0 1.639 1.951c.226.082.401.284.401.525v6.374c0 .14.11.25.25.25h1.5c.14 0 .25-.11.25-.25v-2.443a.5.5 0 0 1 .274-.446l.596-.301c.69-.35 1.13-1.05 1.13-1.82v-1.242a.5.5 0 0 1 .498-.5l5.432-.028c.43 0 .829-.104 1.185-.284.184-.093.432.03.463.234a3.261 3.261 0 0 0 2.442 2.67l1.15.286a.5.5 0 0 1 .38.485v3.359c0 .14.11.25.25.25h1.5c.14 0 .25-.11.25-.25v-9.078c0-.239.125-.46.312-.607.259-.204.688-.033.688.296v3.649h1v-9.31c0-2.6-2.1-4.7-4.69-4.7Z"/><path fill="url(#paint9_radial_28327_2831)" d="M25.39 9.805h-3.76c-.62 0-1.2-.27-1.63-.72a3.931 3.931 0 0 0-2.92-1.28h-2c-.16 0-.31-.08-.39-.22l-.56-.96a3.629 3.629 0 0 0-3.15-1.82h-.89c-.79 0-1.55.23-2.21.67l-5.1 3.4c-.43.29-.7.79-.7 1.32 0 1.43 1.13 2.61 2.56 2.61h2.022a.5.5 0 0 1 .492.41l.656 3.62.68 3.9a2.547 2.547 0 0 0 1.639 1.951c.226.082.401.284.401.525v6.374c0 .14.11.25.25.25h1.5c.14 0 .25-.11.25-.25v-2.443a.5.5 0 0 1 .274-.446l.596-.301c.69-.35 1.13-1.05 1.13-1.82v-1.242a.5.5 0 0 1 .498-.5l5.432-.028c.43 0 .829-.104 1.185-.284.184-.093.432.03.463.234a3.261 3.261 0 0 0 2.442 2.67l1.15.286a.5.5 0 0 1 .38.485v3.359c0 .14.11.25.25.25h1.5c.14 0 .25-.11.25-.25v-9.078c0-.239.125-.46.312-.607.259-.204.688-.033.688.296v3.649h1v-9.31c0-2.6-2.1-4.7-4.69-4.7Z"/><path fill="url(#paint10_radial_28327_2831)" d="M25.39 9.805h-3.76c-.62 0-1.2-.27-1.63-.72a3.931 3.931 0 0 0-2.92-1.28h-2c-.16 0-.31-.08-.39-.22l-.56-.96a3.629 3.629 0 0 0-3.15-1.82h-.89c-.79 0-1.55.23-2.21.67l-5.1 3.4c-.43.29-.7.79-.7 1.32 0 1.43 1.13 2.61 2.56 2.61h2.022a.5.5 0 0 1 .492.41l.656 3.62.68 3.9a2.547 2.547 0 0 0 1.639 1.951c.226.082.401.284.401.525v6.374c0 .14.11.25.25.25h1.5c.14 0 .25-.11.25-.25v-2.443a.5.5 0 0 1 .274-.446l.596-.301c.69-.35 1.13-1.05 1.13-1.82v-1.242a.5.5 0 0 1 .498-.5l5.432-.028c.43 0 .829-.104 1.185-.284.184-.093.432.03.463.234a3.261 3.261 0 0 0 2.442 2.67l1.15.286a.5.5 0 0 1 .38.485v3.359c0 .14.11.25.25.25h1.5c.14 0 .25-.11.25-.25v-9.078c0-.239.125-.46.312-.607.259-.204.688-.033.688.296v3.649h1v-9.31c0-2.6-2.1-4.7-4.69-4.7Z"/><path fill="url(#paint11_linear_28327_2831)" d="M25.39 9.805h-3.76c-.62 0-1.2-.27-1.63-.72a3.931 3.931 0 0 0-2.92-1.28h-2c-.16 0-.31-.08-.39-.22l-.56-.96a3.629 3.629 0 0 0-3.15-1.82h-.89c-.79 0-1.55.23-2.21.67l-5.1 3.4c-.43.29-.7.79-.7 1.32 0 1.43 1.13 2.61 2.56 2.61h2.022a.5.5 0 0 1 .492.41l.656 3.62.68 3.9a2.547 2.547 0 0 0 1.639 1.951c.226.082.401.284.401.525v6.374c0 .14.11.25.25.25h1.5c.14 0 .25-.11.25-.25v-2.443a.5.5 0 0 1 .274-.446l.596-.301c.69-.35 1.13-1.05 1.13-1.82v-1.242a.5.5 0 0 1 .498-.5l5.432-.028c.43 0 .829-.104 1.185-.284.184-.093.432.03.463.234a3.261 3.261 0 0 0 2.442 2.67l1.15.286a.5.5 0 0 1 .38.485v3.359c0 .14.11.25.25.25h1.5c.14 0 .25-.11.25-.25v-9.078c0-.239.125-.46.312-.607.259-.204.688-.033.688.296v3.649h1v-9.31c0-2.6-2.1-4.7-4.69-4.7Z"/><path fill="url(#paint12_linear_28327_2831)" d="M25.39 9.805h-3.76c-.62 0-1.2-.27-1.63-.72a3.931 3.931 0 0 0-2.92-1.28h-2c-.16 0-.31-.08-.39-.22l-.56-.96a3.629 3.629 0 0 0-3.15-1.82h-.89c-.79 0-1.55.23-2.21.67l-5.1 3.4c-.43.29-.7.79-.7 1.32 0 1.43 1.13 2.61 2.56 2.61h2.022a.5.5 0 0 1 .492.41l.656 3.62.68 3.9a2.547 2.547 0 0 0 1.639 1.951c.226.082.401.284.401.525v6.374c0 .14.11.25.25.25h1.5c.14 0 .25-.11.25-.25v-2.443a.5.5 0 0 1 .274-.446l.596-.301c.69-.35 1.13-1.05 1.13-1.82v-1.242a.5.5 0 0 1 .498-.5l5.432-.028c.43 0 .829-.104 1.185-.284.184-.093.432.03.463.234a3.261 3.261 0 0 0 2.442 2.67l1.15.286a.5.5 0 0 1 .38.485v3.359c0 .14.11.25.25.25h1.5c.14 0 .25-.11.25-.25v-9.078c0-.239.125-.46.312-.607.259-.204.688-.033.688.296v3.649h1v-9.31c0-2.6-2.1-4.7-4.69-4.7Z"/><g filter="url(#filter0_f_28327_2831)"><path stroke="url(#paint13_linear_28327_2831)" stroke-width=".3" d="M27.392 29.162v-9.25"/></g><g filter="url(#filter1_f_28327_2831)"><path stroke="url(#paint14_linear_28327_2831)" stroke-width=".2" d="M12.08 29.162v-5"/></g><path fill="url(#paint15_radial_28327_2831)" d="m29.08 23.412.344-.14v-5.325c0-.106-.145-.139-.19-.043l-1.092 2.282a.842.842 0 0 1 .25-.316c.259-.204.688-.033.688.296v3.246Z"/><path fill="url(#paint16_radial_28327_2831)" fill-rule="evenodd" d="m22.158 23.011 2.984-5.724-13.75-1.5 3.138 7.786v-.24a.5.5 0 0 1 .498-.5l5.432-.028c.43 0 .829-.104 1.185-.284.184-.093.432.03.463.234.014.087.03.172.05.256Z" clip-rule="evenodd"/><path fill="url(#paint17_radial_28327_2831)" fill-rule="evenodd" d="m22.158 23.011 2.984-5.724-13.75-1.5 3.138 7.786v-.24a.5.5 0 0 1 .498-.5l5.432-.028c.43 0 .829-.104 1.185-.284.184-.093.432.03.463.234.014.087.03.172.05.256Z" clip-rule="evenodd"/><path fill="url(#paint18_radial_28327_2831)" fill-rule="evenodd" d="M28.08 23.696c-.574.238-1 1.102-1 2.13 0 1.03.426 1.893 1 2.13v-4.26Z" clip-rule="evenodd"/><g filter="url(#filter2_f_28327_2831)"><path fill="url(#paint19_linear_28327_2831)" d="m6.743 6.4 4.196-.674a1.53 1.53 0 0 1-1.286 1.51l-2.91.466V6.4Z"/></g><path fill="url(#paint20_linear_28327_2831)" d="M10.98 4.805c1.3 0 2.569.67 3.15 1.82s-3.55 4.1-7.05 6.18H4.64c-1.43 0-2.56-1.18-2.56-2.61 0-.53.27-1.03.7-1.32l5.1-3.4a3.96 3.96 0 0 1 2.21-.67h.89Z"/><path fill="url(#paint21_radial_28327_2831)" d="M10.98 4.805c1.3 0 2.569.67 3.15 1.82s-3.55 4.1-7.05 6.18H4.64c-1.43 0-2.56-1.18-2.56-2.61 0-.53.27-1.03.7-1.32l5.1-3.4a3.96 3.96 0 0 1 2.21-.67h.89Z"/><path fill="url(#paint22_radial_28327_2831)" d="M10.98 4.805c1.3 0 2.569.67 3.15 1.82s-3.55 4.1-7.05 6.18H4.64c-1.43 0-2.56-1.18-2.56-2.61 0-.53.27-1.03.7-1.32l5.1-3.4a3.96 3.96 0 0 1 2.21-.67h.89Z"/><path fill="url(#paint23_linear_28327_2831)" d="M8.049 4.805a3.006 3.006 0 0 1-2.5-1.55c-.11-.21-.43-.16-.46.08-.03.15-.04.3-.04.45-.01 1.66 1.39 3.02 3.05 3.02h1.95c.55 0 1-.45 1-1s-.45-1-1-1h-2Z"/><path fill="url(#paint24_linear_28327_2831)" d="M8.049 4.805a3.006 3.006 0 0 1-2.5-1.55c-.11-.21-.43-.16-.46.08-.03.15-.04.3-.04.45-.01 1.66 1.39 3.02 3.05 3.02h1.95c.55 0 1-.45 1-1s-.45-1-1-1h-2Z"/><path fill="url(#paint25_radial_28327_2831)" d="M8.049 4.805a3.006 3.006 0 0 1-2.5-1.55c-.11-.21-.43-.16-.46.08-.03.15-.04.3-.04.45-.01 1.66 1.39 3.02 3.05 3.02h1.95c.55 0 1-.45 1-1s-.45-1-1-1h-2Z"/><path fill="url(#paint26_radial_28327_2831)" d="M8.049 4.805a3.006 3.006 0 0 1-2.5-1.55c-.11-.21-.43-.16-.46.08-.03.15-.04.3-.04.45-.01 1.66 1.39 3.02 3.05 3.02h1.95c.55 0 1-.45 1-1s-.45-1-1-1h-2Z"/><path fill="url(#paint27_linear_28327_2831)" d="M8.049 4.805a3.006 3.006 0 0 1-2.5-1.55c-.11-.21-.43-.16-.46.08-.03.15-.04.3-.04.45-.01 1.66 1.39 3.02 3.05 3.02h1.95c.55 0 1-.45 1-1s-.45-1-1-1h-2Z"/><path fill="url(#paint28_linear_28327_2831)" d="M8.049 4.805a3.006 3.006 0 0 1-2.5-1.55c-.11-.21-.43-.16-.46.08-.03.15-.04.3-.04.45-.01 1.66 1.39 3.02 3.05 3.02h1.95c.55 0 1-.45 1-1s-.45-1-1-1h-2Z"/><path fill="url(#paint29_radial_28327_2831)" d="M8.049 4.805a3.006 3.006 0 0 1-2.5-1.55c-.11-.21-.43-.16-.46.08-.03.15-.04.3-.04.45-.01 1.66 1.39 3.02 3.05 3.02h1.95c.55 0 1-.45 1-1s-.45-1-1-1h-2Z"/><path fill="url(#paint30_radial_28327_2831)" d="M4.18 11.215c-.28 0-.5-.22-.5-.5v-.55c0-.28.22-.5.5-.5s.5.22.5.5v.55c0 .28-.22.5-.5.5Z"/><g filter="url(#filter3_f_28327_2831)"><path stroke="#A77C73" stroke-width=".1" d="M29.736 23.178v-4.844"/></g><path fill="url(#paint31_radial_28327_2831)" d="M29.585 26.743c.268.068.495-.162.495-.438v-3.5c-1.1 0-2 .9-2 2 0 .93.643 1.716 1.505 1.938Z"/><g filter="url(#filter4_f_28327_2831)"><rect width=".787" height="1.592" x="6.834" y="8.309" fill="#5B2F2C" rx=".393"/></g><rect width=".969" height="1.96" x="7.08" y="8.125" fill="url(#paint32_linear_28327_2831)" rx=".484"/><rect width=".969" height="1.96" x="7.08" y="8.125" fill="url(#paint33_linear_28327_2831)" rx=".484"/><g filter="url(#filter5_f_28327_2831)"><path stroke="url(#paint34_linear_28327_2831)" stroke-linecap="round" stroke-width=".25" d="M5.424 3.522c.406 1 1.184 1.781 2.484 1.781"/></g><g filter="url(#filter6_f_28327_2831)"><ellipse cx="10.495" cy="5.678" fill="#FFDEA7" rx=".237" ry=".375"/></g><g filter="url(#filter7_f_28327_2831)"><path stroke="url(#paint35_linear_28327_2831)" stroke-linecap="round" stroke-width=".25" d="m10.846 7.655 1.75 1.851"/></g><g filter="url(#filter8_f_28327_2831)"><ellipse cx="18.196" cy="10.743" fill="url(#paint36_radial_28327_2831)" rx="1.704" ry="2.273" transform="rotate(-15.833 18.196 10.743)"/></g><g filter="url(#filter9_f_28327_2831)"><ellipse cx="12.572" cy="8.149" fill="url(#paint37_radial_28327_2831)" rx="1.704" ry="2.983" transform="rotate(-28.041 12.572 8.149)"/></g><g filter="url(#filter10_f_28327_2831)"><ellipse cx="26.227" cy="13.877" fill="url(#paint38_radial_28327_2831)" rx="3.191" ry="2.988" transform="rotate(47.914 26.227 13.877)"/></g><g filter="url(#filter11_f_28327_2831)"><path fill="#5B2F2C" d="M11.29 7.824c-.57-.57-1.546-.428-1.546.377a2.763 2.763 0 0 0 2.761 2.761c.81 0 .948-.974.376-1.546L11.29 7.824Z"/></g><path fill="url(#paint39_radial_28327_2831)" d="M10.931 7.246c-.226-.226-.607-.183-.711.12a2.601 2.601 0 0 0 3.307 3.299c.3-.104.341-.482.117-.706L10.93 7.246Z"/><path fill="url(#paint40_radial_28327_2831)" d="M10.931 7.246c-.226-.226-.607-.183-.711.12a2.601 2.601 0 0 0 3.307 3.299c.3-.104.341-.482.117-.706L10.93 7.246Z"/><path fill="url(#paint41_radial_28327_2831)" fill-opacity=".5" d="M10.931 7.246c-.226-.226-.607-.183-.711.12a2.601 2.601 0 0 0 3.307 3.299c.3-.104.341-.482.117-.706L10.93 7.246Z"/><path fill="url(#paint42_radial_28327_2831)" d="M10.931 7.246c-.226-.226-.607-.183-.711.12a2.601 2.601 0 0 0 3.307 3.299c.3-.104.341-.482.117-.706L10.93 7.246Z"/><g filter="url(#filter12_f_28327_2831)"><path fill="url(#paint43_linear_28327_2831)" d="M12.08 22.35a.25.25 0 0 1 .25-.25h1.578a.25.25 0 0 1 .25.25v1.415a3 3 0 0 1-1.511 2.605l-.567.324V22.35Z"/></g><g filter="url(#filter13_f_28327_2831)"><path stroke="url(#paint44_linear_28327_2831)" stroke-width=".1" d="m16.08 23.162 1.094 3.782-.625 2.125"/></g><g filter="url(#filter14_f_28327_2831)"><path stroke="url(#paint45_linear_28327_2831)" stroke-width=".1" d="M21.799 23.506 20.174 29.1"/></g></g><defs><linearGradient id="paint0_linear_28327_2831" x1="21.329" x2="21.329" y1="22.623" y2="29.488" gradientUnits="userSpaceOnUse"><stop stop-color="#4C2325"/><stop offset="1" stop-color="#754A4D"/></linearGradient><linearGradient id="paint1_linear_28327_2831" x1="19.486" x2="19.486" y1="30.12" y2="29.236" gradientUnits="userSpaceOnUse"><stop stop-color="#782666"/><stop offset="1" stop-color="#693452" stop-opacity="0"/></linearGradient><linearGradient id="paint2_linear_28327_2831" x1="16" x2="16" y1="21.688" y2="29.438" gradientUnits="userSpaceOnUse"><stop stop-color="#4C2325"/><stop offset="1" stop-color="#754A4D"/></linearGradient><linearGradient id="paint3_linear_28327_2831" x1="14.365" x2="14.365" y1="30.15" y2="29.152" gradientUnits="userSpaceOnUse"><stop stop-color="#782666"/><stop offset="1" stop-color="#693452" stop-opacity="0"/></linearGradient><linearGradient id="paint4_linear_28327_2831" x1="14.365" x2="16.455" y1="30.15" y2="30.15" gradientUnits="userSpaceOnUse"><stop stop-color="#782666"/><stop offset="1" stop-color="#693452" stop-opacity="0"/></linearGradient><linearGradient id="paint5_linear_28327_2831" x1="17.142" x2="17.142" y1="32.787" y2="9.787" gradientUnits="userSpaceOnUse"><stop stop-color="#763F52"/><stop offset="1" stop-color="#865950"/></linearGradient><linearGradient id="paint7_linear_28327_2831" x1="18.517" x2="18.517" y1="2.975" y2="10.225" gradientUnits="userSpaceOnUse"><stop stop-color="#744036"/><stop offset="1" stop-color="#744036" stop-opacity="0"/></linearGradient><linearGradient id="paint11_linear_28327_2831" x1="6.299" x2="13.518" y1="20.319" y2="18.85" gradientUnits="userSpaceOnUse"><stop stop-color="#672D2B"/><stop offset="1" stop-color="#644645" stop-opacity="0"/></linearGradient><linearGradient id="paint12_linear_28327_2831" x1="4.46" x2="4.46" y1="30.725" y2="28.225" gradientUnits="userSpaceOnUse"><stop stop-color="#782666"/><stop offset="1" stop-color="#693452" stop-opacity="0"/></linearGradient><linearGradient id="paint13_linear_28327_2831" x1="29.705" x2="29.705" y1="27.944" y2="16.287" gradientUnits="userSpaceOnUse"><stop stop-color="#A77C73"/><stop offset="1" stop-color="#A77C73" stop-opacity="0"/></linearGradient><linearGradient id="paint14_linear_28327_2831" x1="14.393" x2="14.393" y1="27.944" y2="24.162" gradientUnits="userSpaceOnUse"><stop stop-color="#A77C73"/><stop offset="1" stop-color="#A77C73" stop-opacity="0"/></linearGradient><linearGradient id="paint19_linear_28327_2831" x1="9.182" x2="5.684" y1="5.404" y2="6.217" gradientUnits="userSpaceOnUse"><stop offset=".001" stop-color="#5D352E"/><stop offset="1" stop-color="#5D352E" stop-opacity="0"/></linearGradient><linearGradient id="paint20_linear_28327_2831" x1="5.314" x2="6.314" y1="6.475" y2="8.037" gradientUnits="userSpaceOnUse"><stop stop-color="#5D352E"/><stop offset=".784" stop-color="#5D352E" stop-opacity="0"/></linearGradient><linearGradient id="paint23_linear_28327_2831" x1="4.83" x2="11.736" y1="4.965" y2="4.965" gradientUnits="userSpaceOnUse"><stop stop-color="#FFDEA7"/><stop offset=".994" stop-color="#DC872A"/></linearGradient><linearGradient id="paint24_linear_28327_2831" x1="8.049" x2="8.049" y1="7.037" y2="5.725" gradientUnits="userSpaceOnUse"><stop stop-color="#CA7134"/><stop offset="1" stop-color="#DE9360" stop-opacity="0"/></linearGradient><linearGradient id="paint27_linear_28327_2831" x1="9.393" x2="9.393" y1="1.709" y2="6.912" gradientUnits="userSpaceOnUse"><stop offset=".919" stop-color="#B47B5B" stop-opacity="0"/><stop offset="1" stop-color="#9D6647"/></linearGradient><linearGradient id="paint28_linear_28327_2831" x1="13.955" x2="4.518" y1="7.037" y2="6.805" gradientUnits="userSpaceOnUse"><stop stop-color="#E99354"/><stop offset="1" stop-color="#E99354" stop-opacity="0"/></linearGradient><linearGradient id="paint32_linear_28327_2831" x1="7.893" x2="7.299" y1="9.105" y2="9.105" gradientUnits="userSpaceOnUse"><stop stop-color="#594C4F"/><stop offset=".855" stop-color="#31232C"/></linearGradient><linearGradient id="paint33_linear_28327_2831" x1="8.2" x2="8.2" y1="10.305" y2="9.594" gradientUnits="userSpaceOnUse"><stop stop-color="#552D52"/><stop offset="1" stop-color="#552D52" stop-opacity="0"/></linearGradient><linearGradient id="paint34_linear_28327_2831" x1="5.736" x2="8.486" y1="3.709" y2="5.709" gradientUnits="userSpaceOnUse"><stop stop-color="#FFDEA7"/><stop offset="1" stop-color="#FFDEA7" stop-opacity="0"/></linearGradient><linearGradient id="paint35_linear_28327_2831" x1="10.814" x2="12.252" y1="7.936" y2="9.506" gradientUnits="userSpaceOnUse"><stop stop-color="#7E5952"/><stop offset="1" stop-color="#7E5952" stop-opacity="0"/></linearGradient><linearGradient id="paint43_linear_28327_2831" x1="12.978" x2="13.174" y1="21.225" y2="27.312" gradientUnits="userSpaceOnUse"><stop stop-color="#976E66" stop-opacity=".75"/><stop offset="1" stop-color="#976E66" stop-opacity="0"/></linearGradient><linearGradient id="paint44_linear_28327_2831" x1="18.361" x2="18.361" y1="29.537" y2="18.444" gradientUnits="userSpaceOnUse"><stop stop-color="#D6B0A9"/><stop offset="1" stop-color="#D6B0A9" stop-opacity="0"/></linearGradient><linearGradient id="paint45_linear_28327_2831" x1="23.563" x2="23.563" y1="29.544" y2="19.037" gradientUnits="userSpaceOnUse"><stop stop-color="#D6B0A9"/><stop offset="1" stop-color="#D6B0A9" stop-opacity="0"/></linearGradient><radialGradient id="paint6_radial_28327_2831" cx="0" cy="0" r="1" gradientTransform="matrix(0 -16.3125 20.5732 0 18.517 30.225)" gradientUnits="userSpaceOnUse"><stop offset=".165" stop-color="#5C302D"/><stop offset="1" stop-color="#5C302D" stop-opacity="0"/></radialGradient><radialGradient id="paint8_radial_28327_2831" cx="0" cy="0" r="1" gradientTransform="matrix(-1.875 3.8125 -7.6303 -3.75258 24.767 7.975)" gradientUnits="userSpaceOnUse"><stop stop-color="#744036"/><stop offset="1" stop-color="#744036" stop-opacity="0"/></radialGradient><radialGradient id="paint9_radial_28327_2831" cx="0" cy="0" r="1" gradientTransform="rotate(-61.343 34.038 -7.361) scale(3.06266 3.34985)" gradientUnits="userSpaceOnUse"><stop stop-color="#782666"/><stop offset=".889" stop-color="#693452" stop-opacity="0"/></radialGradient><radialGradient id="paint10_radial_28327_2831" cx="0" cy="0" r="1" gradientTransform="matrix(3.26562 -4.01562 2.33383 1.89794 8.22 23.85)" gradientUnits="userSpaceOnUse"><stop stop-color="#782666"/><stop offset=".856" stop-color="#693452" stop-opacity="0"/></radialGradient><radialGradient id="paint15_radial_28327_2831" cx="0" cy="0" r="1" gradientTransform="matrix(.25 -2.04688 .82312 .10053 28.892 20.194)" gradientUnits="userSpaceOnUse"><stop stop-color="#782666"/><stop offset="1" stop-color="#693452" stop-opacity="0"/></radialGradient><radialGradient id="paint16_radial_28327_2831" cx="0" cy="0" r="1" gradientTransform="matrix(-5.21956 -10.06567 6.1179 -3.17244 17.78 26.726)" gradientUnits="userSpaceOnUse"><stop offset=".212" stop-color="#782666"/><stop offset="1" stop-color="#693452" stop-opacity="0"/></radialGradient><radialGradient id="paint17_radial_28327_2831" cx="0" cy="0" r="1" gradientTransform="rotate(-70.24 28.65 -.455) scale(6.84025 4.15749)" gradientUnits="userSpaceOnUse"><stop offset=".212" stop-color="#782666"/><stop offset="1" stop-color="#693452" stop-opacity="0"/></radialGradient><radialGradient id="paint18_radial_28327_2831" cx="0" cy="0" r="1" gradientTransform="matrix(-1.09375 4 -1.8473 -.50512 28.549 22.662)" gradientUnits="userSpaceOnUse"><stop stop-color="#291D1E"/><stop offset="1" stop-color="#291D1E" stop-opacity="0"/></radialGradient><radialGradient id="paint21_radial_28327_2831" cx="0" cy="0" r="1" gradientTransform="matrix(5.03124 -2.41995 3.1687 6.58797 2.627 11.225)" gradientUnits="userSpaceOnUse"><stop offset=".177" stop-color="#916153"/><stop offset=".767" stop-color="#86594C" stop-opacity="0"/></radialGradient><radialGradient id="paint22_radial_28327_2831" cx="0" cy="0" r="1" gradientTransform="matrix(3.4375 -4 2.21868 1.90668 4.424 14.381)" gradientUnits="userSpaceOnUse"><stop offset=".194" stop-color="#782666"/><stop offset=".889" stop-color="#693452" stop-opacity="0"/></radialGradient><radialGradient id="paint25_radial_28327_2831" cx="0" cy="0" r="1" gradientTransform="matrix(-.93748 2.64062 -4.05022 -1.43792 8.049 4.287)" gradientUnits="userSpaceOnUse"><stop offset=".611" stop-color="#B47B5B" stop-opacity="0"/><stop offset="1" stop-color="#B47B5B"/></radialGradient><radialGradient id="paint26_radial_28327_2831" cx="0" cy="0" r="1" gradientTransform="rotate(115.45 2.72 4.728) scale(2.87249 3.96142)" gradientUnits="userSpaceOnUse"><stop offset=".812" stop-color="#B47B5B" stop-opacity="0"/><stop offset="1" stop-color="#9D6647"/></radialGradient><radialGradient id="paint29_radial_28327_2831" cx="0" cy="0" r="1" gradientTransform="matrix(.29688 2.2428 -1.96937 .26068 7.314 3.123)" gradientUnits="userSpaceOnUse"><stop stop-color="#FFDA9E"/><stop offset="1" stop-color="#FFDA9E" stop-opacity="0"/></radialGradient><radialGradient id="paint30_radial_28327_2831" cx="0" cy="0" r="1" gradientTransform="matrix(.57031 0 0 1.11138 3.94 10.85)" gradientUnits="userSpaceOnUse"><stop stop-color="#6A4342"/><stop offset="1" stop-color="#4E2425"/></radialGradient><radialGradient id="paint31_radial_28327_2831" cx="0" cy="0" r="1" gradientTransform="rotate(-170.851 16.235 11.375) scale(2.40561)" gradientUnits="userSpaceOnUse"><stop stop-color="#755B59"/><stop offset="1" stop-color="#412824"/></radialGradient><radialGradient id="paint36_radial_28327_2831" cx="0" cy="0" r="1" gradientTransform="rotate(88.397 4.096 14.22) scale(2.75063 1.9563)" gradientUnits="userSpaceOnUse"><stop stop-color="#976E66" stop-opacity=".75"/><stop offset="1" stop-color="#976E66" stop-opacity="0"/></radialGradient><radialGradient id="paint37_radial_28327_2831" cx="0" cy="0" r="1" gradientTransform="rotate(169.927 6.426 4.56) scale(2.30367 4.29292)" gradientUnits="userSpaceOnUse"><stop stop-color="#976E66" stop-opacity=".75"/><stop offset="1" stop-color="#976E66" stop-opacity="0"/></radialGradient><radialGradient id="paint38_radial_28327_2831" cx="0" cy="0" r="1" gradientTransform="matrix(.1764 4.81838 -3.03762 .1112 26.195 11.34)" gradientUnits="userSpaceOnUse"><stop stop-color="#976E66"/><stop offset="1" stop-color="#976E66" stop-opacity="0"/></radialGradient><radialGradient id="paint39_radial_28327_2831" cx="0" cy="0" r="1" gradientTransform="matrix(-1.78125 1.82812 -3.12353 -3.04345 12.705 8.366)" gradientUnits="userSpaceOnUse"><stop stop-color="#7D5953"/><stop offset="1" stop-color="#60363D"/></radialGradient><radialGradient id="paint40_radial_28327_2831" cx="0" cy="0" r="1" gradientTransform="matrix(-1.625 1.6875 -2.32813 -2.2419 12.408 8.662)" gradientUnits="userSpaceOnUse"><stop offset=".617" stop-color="#4D282E" stop-opacity="0"/><stop offset=".955" stop-color="#4D282E"/></radialGradient><radialGradient id="paint41_radial_28327_2831" cx="0" cy="0" r="1" gradientTransform="matrix(-1.53125 1.71875 -2.23438 -1.99062 12.314 8.631)" gradientUnits="userSpaceOnUse"><stop offset=".761" stop-color="#3A2327" stop-opacity="0"/><stop offset=".955" stop-color="#3A2327"/></radialGradient><radialGradient id="paint42_radial_28327_2831" cx="0" cy="0" r="1" gradientTransform="matrix(-.5625 -.14062 .10987 -.43947 13.814 10.381)" gradientUnits="userSpaceOnUse"><stop stop-color="#7E5952"/><stop offset="1" stop-color="#7E5952" stop-opacity="0"/></radialGradient><filter id="filter0_f_28327_2831" width="1.8" height="10.75" x="26.492" y="19.162" color-interpolation-filters="sRGB" filterUnits="userSpaceOnUse"><feFlood flood-opacity="0" result="BackgroundImageFix"/><feBlend in="SourceGraphic" in2="BackgroundImageFix" result="shape"/><feGaussianBlur result="effect1_foregroundBlur_28327_2831" stdDeviation=".375"/></filter><filter id="filter1_f_28327_2831" width="1.4" height="6.2" x="11.38" y="23.562" color-interpolation-filters="sRGB" filterUnits="userSpaceOnUse"><feFlood flood-opacity="0" result="BackgroundImageFix"/><feBlend in="SourceGraphic" in2="BackgroundImageFix" result="shape"/><feGaussianBlur result="effect1_foregroundBlur_28327_2831" stdDeviation=".3"/></filter><filter id="filter2_f_28327_2831" width="5.196" height="2.977" x="6.243" y="5.226" color-interpolation-filters="sRGB" filterUnits="userSpaceOnUse"><feFlood flood-opacity="0" result="BackgroundImageFix"/><feBlend in="SourceGraphic" in2="BackgroundImageFix" result="shape"/><feGaussianBlur result="effect1_foregroundBlur_28327_2831" stdDeviation=".25"/></filter><filter id="filter3_f_28327_2831" width=".9" height="5.644" x="29.286" y="17.934" color-interpolation-filters="sRGB" filterUnits="userSpaceOnUse"><feFlood flood-opacity="0" result="BackgroundImageFix"/><feBlend in="SourceGraphic" in2="BackgroundImageFix" result="shape"/><feGaussianBlur result="effect1_foregroundBlur_28327_2831" stdDeviation=".2"/></filter><filter id="filter4_f_28327_2831" width="1.787" height="2.592" x="6.334" y="7.809" color-interpolation-filters="sRGB" filterUnits="userSpaceOnUse"><feFlood flood-opacity="0" result="BackgroundImageFix"/><feBlend in="SourceGraphic" in2="BackgroundImageFix" result="shape"/><feGaussianBlur result="effect1_foregroundBlur_28327_2831" stdDeviation=".25"/></filter><filter id="filter5_f_28327_2831" width="3.734" height="3.031" x="4.799" y="2.897" color-interpolation-filters="sRGB" filterUnits="userSpaceOnUse"><feFlood flood-opacity="0" result="BackgroundImageFix"/><feBlend in="SourceGraphic" in2="BackgroundImageFix" result="shape"/><feGaussianBlur result="effect1_foregroundBlur_28327_2831" stdDeviation=".25"/></filter><filter id="filter6_f_28327_2831" width="1.975" height="2.25" x="9.508" y="4.553" color-interpolation-filters="sRGB" filterUnits="userSpaceOnUse"><feFlood flood-opacity="0" result="BackgroundImageFix"/><feBlend in="SourceGraphic" in2="BackgroundImageFix" result="shape"/><feGaussianBlur result="effect1_foregroundBlur_28327_2831" stdDeviation=".375"/></filter><filter id="filter7_f_28327_2831" width="2.5" height="2.602" x="10.471" y="7.28" color-interpolation-filters="sRGB" filterUnits="userSpaceOnUse"><feFlood flood-opacity="0" result="BackgroundImageFix"/><feBlend in="SourceGraphic" in2="BackgroundImageFix" result="shape"/><feGaussianBlur result="effect1_foregroundBlur_28327_2831" stdDeviation=".125"/></filter><filter id="filter8_f_28327_2831" width="5.505" height="6.472" x="15.444" y="7.507" color-interpolation-filters="sRGB" filterUnits="userSpaceOnUse"><feFlood flood-opacity="0" result="BackgroundImageFix"/><feBlend in="SourceGraphic" in2="BackgroundImageFix" result="shape"/><feGaussianBlur result="effect1_foregroundBlur_28327_2831" stdDeviation=".5"/></filter><filter id="filter9_f_28327_2831" width="6.112" height="7.505" x="9.516" y="4.396" color-interpolation-filters="sRGB" filterUnits="userSpaceOnUse"><feFlood flood-opacity="0" result="BackgroundImageFix"/><feBlend in="SourceGraphic" in2="BackgroundImageFix" result="shape"/><feGaussianBlur result="effect1_foregroundBlur_28327_2831" stdDeviation=".5"/></filter><filter id="filter10_f_28327_2831" width="8.162" height="8.204" x="22.146" y="9.776" color-interpolation-filters="sRGB" filterUnits="userSpaceOnUse"><feFlood flood-opacity="0" result="BackgroundImageFix"/><feBlend in="SourceGraphic" in2="BackgroundImageFix" result="shape"/><feGaussianBlur result="effect1_foregroundBlur_28327_2831" stdDeviation=".5"/></filter><filter id="filter11_f_28327_2831" width="4.485" height="4.483" x="9.244" y="6.979" color-interpolation-filters="sRGB" filterUnits="userSpaceOnUse"><feFlood flood-opacity="0" result="BackgroundImageFix"/><feBlend in="SourceGraphic" in2="BackgroundImageFix" result="shape"/><feGaussianBlur result="effect1_foregroundBlur_28327_2831" stdDeviation=".25"/></filter><filter id="filter12_f_28327_2831" width="4.078" height="6.594" x="11.08" y="21.1" color-interpolation-filters="sRGB" filterUnits="userSpaceOnUse"><feFlood flood-opacity="0" result="BackgroundImageFix"/><feBlend in="SourceGraphic" in2="BackgroundImageFix" result="shape"/><feGaussianBlur result="effect1_foregroundBlur_28327_2831" stdDeviation=".5"/></filter><filter id="filter13_f_28327_2831" width="2.394" height="7.134" x="15.432" y="22.549" color-interpolation-filters="sRGB" filterUnits="userSpaceOnUse"><feFlood flood-opacity="0" result="BackgroundImageFix"/><feBlend in="SourceGraphic" in2="BackgroundImageFix" result="shape"/><feGaussianBlur result="effect1_foregroundBlur_28327_2831" stdDeviation=".3"/></filter><filter id="filter14_f_28327_2831" width="2.921" height="6.822" x="19.526" y="22.892" color-interpolation-filters="sRGB" filterUnits="userSpaceOnUse"><feFlood flood-opacity="0" result="BackgroundImageFix"/><feBlend in="SourceGraphic" in2="BackgroundImageFix" result="shape"/><feGaussianBlur result="effect1_foregroundBlur_28327_2831" stdDeviation=".3"/></filter><clipPath id="clip0_28327_2831"><path fill="#fff" d="M0 0h32v32H0z"/></clipPath></defs></svg>