<svg xmlns="http://www.w3.org/2000/svg" width="32" height="32" fill="none" viewBox="0 0 32 32"><g filter="url(#filter0_i_4002_4120)"><path fill="#1D79C4" d="M25.99 30.044v-.39c0-5.39-4.47-9.77-9.99-9.77-5.52.01-9.99 4.38-9.99 9.77v.39h19.98Z"/><path fill="url(#paint0_radial_4002_4120)" d="M25.99 30.044v-.39c0-5.39-4.47-9.77-9.99-9.77-5.52.01-9.99 4.38-9.99 9.77v.39h19.98Z"/></g><path fill="url(#paint1_radial_4002_4120)" d="M25.99 30.044v-.39c0-5.39-4.47-9.77-9.99-9.77-5.52.01-9.99 4.38-9.99 9.77v.39h19.98Z"/><path fill="url(#paint2_radial_4002_4120)" d="M16.025 23.405c-1.438 0-2.605-.605-2.605-1.969v-3.375c0-1.364 1.167-2.47 2.605-2.47 1.439 0 2.605 1.106 2.605 2.47v3.375c0 1.364-1.166 1.969-2.605 1.969Z"/><path fill="url(#paint3_linear_4002_4120)" d="M16.025 23.405c-1.438 0-2.605-.605-2.605-1.969v-3.375c0-1.364 1.167-2.47 2.605-2.47 1.439 0 2.605 1.106 2.605 2.47v3.375c0 1.364-1.166 1.969-2.605 1.969Z"/><g filter="url(#filter1_i_4002_4120)"><circle cx="9.971" cy="13.417" r="2.116" fill="url(#paint4_radial_4002_4120)"/></g><g filter="url(#filter2_i_4002_4120)"><circle cx="9.971" cy="13.417" r="2.116" fill="url(#paint5_linear_4002_4120)"/></g><g filter="url(#filter3_f_4002_4120)"><circle cx="9.971" cy="13.417" r="1.261" fill="#B47A6C"/><circle cx="9.971" cy="13.417" r="1.261" fill="url(#paint6_radial_4002_4120)"/></g><g filter="url(#filter4_i_4002_4120)"><circle cx="22.029" cy="13.417" r="2.116" fill="url(#paint7_linear_4002_4120)"/><circle cx="22.029" cy="13.417" r="2.116" fill="url(#paint8_radial_4002_4120)"/></g><g filter="url(#filter5_f_4002_4120)"><circle cx="22.029" cy="13.417" r="1.261" fill="#A57C70"/><circle cx="22.029" cy="13.417" r="1.261" fill="url(#paint9_radial_4002_4120)"/><circle cx="22.029" cy="13.417" r="1.261" fill="url(#paint10_radial_4002_4120)"/></g><g filter="url(#filter6_i_4002_4120)"><path fill="url(#paint11_radial_4002_4120)" d="M9.524 12.64a.663.663 0 0 0 .063.002s-.068-1.081-.136-1.825c0-.338.136-.744.408-.946l.204-.203c.34-.27.476-.676.476-1.082V7.504c0-.338.204-.608.543-.676.816-.202 2.516-.54 4.964-.54 2.448 0 4.148.338 4.963.54.272.068.544.338.544.676v1.082c0 .406.204.811.476 1.082.637.446.597.691.544 1.217a58.804 58.804 0 0 0-.136 1.825h.023l-.337 5.017c-.203 2.244-1.967 3.807-4.07 3.807h-4.069c-2.17 0-3.866-1.563-4.07-3.806l-.39-5.088Z"/><path fill="url(#paint12_radial_4002_4120)" d="M9.524 12.64a.663.663 0 0 0 .063.002s-.068-1.081-.136-1.825c0-.338.136-.744.408-.946l.204-.203c.34-.27.476-.676.476-1.082V7.504c0-.338.204-.608.543-.676.816-.202 2.516-.54 4.964-.54 2.448 0 4.148.338 4.963.54.272.068.544.338.544.676v1.082c0 .406.204.811.476 1.082.637.446.597.691.544 1.217a58.804 58.804 0 0 0-.136 1.825h.023l-.337 5.017c-.203 2.244-1.967 3.807-4.07 3.807h-4.069c-2.17 0-3.866-1.563-4.07-3.806l-.39-5.088Z"/><path fill="url(#paint13_radial_4002_4120)" d="M9.524 12.64a.663.663 0 0 0 .063.002s-.068-1.081-.136-1.825c0-.338.136-.744.408-.946l.204-.203c.34-.27.476-.676.476-1.082V7.504c0-.338.204-.608.543-.676.816-.202 2.516-.54 4.964-.54 2.448 0 4.148.338 4.963.54.272.068.544.338.544.676v1.082c0 .406.204.811.476 1.082.637.446.597.691.544 1.217a58.804 58.804 0 0 0-.136 1.825h.023l-.337 5.017c-.203 2.244-1.967 3.807-4.07 3.807h-4.069c-2.17 0-3.866-1.563-4.07-3.806l-.39-5.088Z"/><path fill="url(#paint14_radial_4002_4120)" d="M9.524 12.64a.663.663 0 0 0 .063.002s-.068-1.081-.136-1.825c0-.338.136-.744.408-.946l.204-.203c.34-.27.476-.676.476-1.082V7.504c0-.338.204-.608.543-.676.816-.202 2.516-.54 4.964-.54 2.448 0 4.148.338 4.963.54.272.068.544.338.544.676v1.082c0 .406.204.811.476 1.082.637.446.597.691.544 1.217a58.804 58.804 0 0 0-.136 1.825h.023l-.337 5.017c-.203 2.244-1.967 3.807-4.07 3.807h-4.069c-2.17 0-3.866-1.563-4.07-3.806l-.39-5.088Z"/><path fill="url(#paint15_radial_4002_4120)" d="M9.524 12.64a.663.663 0 0 0 .063.002s-.068-1.081-.136-1.825c0-.338.136-.744.408-.946l.204-.203c.34-.27.476-.676.476-1.082V7.504c0-.338.204-.608.543-.676.816-.202 2.516-.54 4.964-.54 2.448 0 4.148.338 4.963.54.272.068.544.338.544.676v1.082c0 .406.204.811.476 1.082.637.446.597.691.544 1.217a58.804 58.804 0 0 0-.136 1.825h.023l-.337 5.017c-.203 2.244-1.967 3.807-4.07 3.807h-4.069c-2.17 0-3.866-1.563-4.07-3.806l-.39-5.088Z"/><path fill="url(#paint16_radial_4002_4120)" d="M9.524 12.64a.663.663 0 0 0 .063.002s-.068-1.081-.136-1.825c0-.338.136-.744.408-.946l.204-.203c.34-.27.476-.676.476-1.082V7.504c0-.338.204-.608.543-.676.816-.202 2.516-.54 4.964-.54 2.448 0 4.148.338 4.963.54.272.068.544.338.544.676v1.082c0 .406.204.811.476 1.082.637.446.597.691.544 1.217a58.804 58.804 0 0 0-.136 1.825h.023l-.337 5.017c-.203 2.244-1.967 3.807-4.07 3.807h-4.069c-2.17 0-3.866-1.563-4.07-3.806l-.39-5.088Z"/><path fill="url(#paint17_radial_4002_4120)" d="M9.524 12.64a.663.663 0 0 0 .063.002s-.068-1.081-.136-1.825c0-.338.136-.744.408-.946l.204-.203c.34-.27.476-.676.476-1.082V7.504c0-.338.204-.608.543-.676.816-.202 2.516-.54 4.964-.54 2.448 0 4.148.338 4.963.54.272.068.544.338.544.676v1.082c0 .406.204.811.476 1.082.637.446.597.691.544 1.217a58.804 58.804 0 0 0-.136 1.825h.023l-.337 5.017c-.203 2.244-1.967 3.807-4.07 3.807h-4.069c-2.17 0-3.866-1.563-4.07-3.806l-.39-5.088Z"/></g><path fill="url(#paint18_radial_4002_4120)" d="M9.45 10.817c0-.338.137-.744.409-.946l.204-.203c.34-.27.476-.676.476-1.082V7.504c0-.338.204-.608.543-.676.816-.202 2.516-.54 4.964-.54 2.448 0 4.148.338 4.963.54.272.068.544.338.544.676v1.082c0 .406.204.811.476 1.082.637.446.597.691.544 1.217a58.804 58.804 0 0 0-.136 1.825h.023l-.337 5.017c-.203 2.244-1.967 3.807-4.07 3.807h-4.069c-2.17 0-3.866-1.563-4.07-3.806-.176-2.303-.253-4.612-.463-6.91Z"/><g filter="url(#filter7_f_4002_4120)"><path fill="url(#paint19_linear_4002_4120)" d="m21.013 6.288-3.9 1.3a1.328 1.328 0 0 0 .595 2.575l3.879-.52-.574-3.355Z"/></g><g filter="url(#filter8_i_4002_4120)"><path fill="#EBCC94" d="m22.097 5.206.544.27c.952.474 1.496 1.555 1.292 2.705l-.748 3.853c-.066.398-.33.666-.725.676h-.023s.068-1.15.136-1.825c.055-.55-.04-.717-.544-1.217-.272-.27-.476-.676-.476-1.082V7.505c0-.338-.272-.609-.544-.677-.816-.202-2.515-.54-4.963-.54s-4.147.338-4.963.54c-.34.068-.544.338-.544.677v1.081c0 .406-.136.811-.476 1.082l-.204.203c-.272.202-.408.608-.408.946a80.8 80.8 0 0 1 .136 1.825c-.021 0-.042 0-.062-.002a.803.803 0 0 1-.754-.674l-.748-3.853c-.136-1.082.408-2.163 1.36-2.637l.544-.27c.34-.203.68-.473 1.02-.744l1.223-1.284c.748-.676 1.836-.879 2.788-.406.68.203 1.428.203 2.108 0 1.02-.338 2.176-.067 2.992.676l1.02 1.014c.271.338.611.541 1.02.744Z"/><path fill="url(#paint20_radial_4002_4120)" d="m22.097 5.206.544.27c.952.474 1.496 1.555 1.292 2.705l-.748 3.853c-.066.398-.33.666-.725.676h-.023s.068-1.15.136-1.825c.055-.55-.04-.717-.544-1.217-.272-.27-.476-.676-.476-1.082V7.505c0-.338-.272-.609-.544-.677-.816-.202-2.515-.54-4.963-.54s-4.147.338-4.963.54c-.34.068-.544.338-.544.677v1.081c0 .406-.136.811-.476 1.082l-.204.203c-.272.202-.408.608-.408.946a80.8 80.8 0 0 1 .136 1.825c-.021 0-.042 0-.062-.002a.803.803 0 0 1-.754-.674l-.748-3.853c-.136-1.082.408-2.163 1.36-2.637l.544-.27c.34-.203.68-.473 1.02-.744l1.223-1.284c.748-.676 1.836-.879 2.788-.406.68.203 1.428.203 2.108 0 1.02-.338 2.176-.067 2.992.676l1.02 1.014c.271.338.611.541 1.02.744Z"/><path fill="url(#paint21_linear_4002_4120)" d="m22.097 5.206.544.27c.952.474 1.496 1.555 1.292 2.705l-.748 3.853c-.066.398-.33.666-.725.676h-.023s.068-1.15.136-1.825c.055-.55-.04-.717-.544-1.217-.272-.27-.476-.676-.476-1.082V7.505c0-.338-.272-.609-.544-.677-.816-.202-2.515-.54-4.963-.54s-4.147.338-4.963.54c-.34.068-.544.338-.544.677v1.081c0 .406-.136.811-.476 1.082l-.204.203c-.272.202-.408.608-.408.946a80.8 80.8 0 0 1 .136 1.825c-.021 0-.042 0-.062-.002a.803.803 0 0 1-.754-.674l-.748-3.853c-.136-1.082.408-2.163 1.36-2.637l.544-.27c.34-.203.68-.473 1.02-.744l1.223-1.284c.748-.676 1.836-.879 2.788-.406.68.203 1.428.203 2.108 0 1.02-.338 2.176-.067 2.992.676l1.02 1.014c.271.338.611.541 1.02.744Z"/><path fill="url(#paint22_radial_4002_4120)" d="m22.097 5.206.544.27c.952.474 1.496 1.555 1.292 2.705l-.748 3.853c-.066.398-.33.666-.725.676h-.023s.068-1.15.136-1.825c.055-.55-.04-.717-.544-1.217-.272-.27-.476-.676-.476-1.082V7.505c0-.338-.272-.609-.544-.677-.816-.202-2.515-.54-4.963-.54s-4.147.338-4.963.54c-.34.068-.544.338-.544.677v1.081c0 .406-.136.811-.476 1.082l-.204.203c-.272.202-.408.608-.408.946a80.8 80.8 0 0 1 .136 1.825c-.021 0-.042 0-.062-.002a.803.803 0 0 1-.754-.674l-.748-3.853c-.136-1.082.408-2.163 1.36-2.637l.544-.27c.34-.203.68-.473 1.02-.744l1.223-1.284c.748-.676 1.836-.879 2.788-.406.68.203 1.428.203 2.108 0 1.02-.338 2.176-.067 2.992.676l1.02 1.014c.271.338.611.541 1.02.744Z"/><path fill="url(#paint23_radial_4002_4120)" d="m22.097 5.206.544.27c.952.474 1.496 1.555 1.292 2.705l-.748 3.853c-.066.398-.33.666-.725.676h-.023s.068-1.15.136-1.825c.055-.55-.04-.717-.544-1.217-.272-.27-.476-.676-.476-1.082V7.505c0-.338-.272-.609-.544-.677-.816-.202-2.515-.54-4.963-.54s-4.147.338-4.963.54c-.34.068-.544.338-.544.677v1.081c0 .406-.136.811-.476 1.082l-.204.203c-.272.202-.408.608-.408.946a80.8 80.8 0 0 1 .136 1.825c-.021 0-.042 0-.062-.002a.803.803 0 0 1-.754-.674l-.748-3.853c-.136-1.082.408-2.163 1.36-2.637l.544-.27c.34-.203.68-.473 1.02-.744l1.223-1.284c.748-.676 1.836-.879 2.788-.406.68.203 1.428.203 2.108 0 1.02-.338 2.176-.067 2.992.676l1.02 1.014c.271.338.611.541 1.02.744Z"/><path fill="url(#paint24_radial_4002_4120)" d="m22.097 5.206.544.27c.952.474 1.496 1.555 1.292 2.705l-.748 3.853c-.066.398-.33.666-.725.676h-.023s.068-1.15.136-1.825c.055-.55-.04-.717-.544-1.217-.272-.27-.476-.676-.476-1.082V7.505c0-.338-.272-.609-.544-.677-.816-.202-2.515-.54-4.963-.54s-4.147.338-4.963.54c-.34.068-.544.338-.544.677v1.081c0 .406-.136.811-.476 1.082l-.204.203c-.272.202-.408.608-.408.946a80.8 80.8 0 0 1 .136 1.825c-.021 0-.042 0-.062-.002a.803.803 0 0 1-.754-.674l-.748-3.853c-.136-1.082.408-2.163 1.36-2.637l.544-.27c.34-.203.68-.473 1.02-.744l1.223-1.284c.748-.676 1.836-.879 2.788-.406.68.203 1.428.203 2.108 0 1.02-.338 2.176-.067 2.992.676l1.02 1.014c.271.338.611.541 1.02.744Z"/></g><path fill="url(#paint25_radial_4002_4120)" d="m22.097 5.206.544.27c.952.474 1.496 1.555 1.292 2.705l-.748 3.853c-.066.398-.33.666-.725.676h-.023s.068-1.15.136-1.825c.055-.55-.04-.717-.544-1.217-.272-.27-.476-.676-.476-1.082V7.505c0-.338-.272-.609-.544-.677-.816-.202-2.515-.54-4.963-.54s-4.147.338-4.963.54c-.34.068-.544.338-.544.677v1.081c0 .406-.136.811-.476 1.082l-.204.203c-.272.202-.408.608-.408.946a80.8 80.8 0 0 1 .136 1.825c-.021 0-.042 0-.062-.002a.803.803 0 0 1-.754-.674l-.748-3.853c-.136-1.082.408-2.163 1.36-2.637l.544-.27c.34-.203.68-.473 1.02-.744l1.223-1.284c.748-.676 1.836-.879 2.788-.406.68.203 1.428.203 2.108 0 1.02-.338 2.176-.067 2.992.676l1.02 1.014c.271.338.611.541 1.02.744Z"/><path fill="url(#paint26_radial_4002_4120)" d="m22.097 5.206.544.27c.952.474 1.496 1.555 1.292 2.705l-.748 3.853c-.066.398-.33.666-.725.676h-.023s.068-1.15.136-1.825c.055-.55-.04-.717-.544-1.217-.272-.27-.476-.676-.476-1.082V7.505c0-.338-.272-.609-.544-.677-.816-.202-2.515-.54-4.963-.54s-4.147.338-4.963.54c-.34.068-.544.338-.544.677v1.081c0 .406-.136.811-.476 1.082l-.204.203c-.272.202-.408.608-.408.946a80.8 80.8 0 0 1 .136 1.825c-.021 0-.042 0-.062-.002a.803.803 0 0 1-.754-.674l-.748-3.853c-.136-1.082.408-2.163 1.36-2.637l.544-.27c.34-.203.68-.473 1.02-.744l1.223-1.284c.748-.676 1.836-.879 2.788-.406.68.203 1.428.203 2.108 0 1.02-.338 2.176-.067 2.992.676l1.02 1.014c.271.338.611.541 1.02.744Z"/><g filter="url(#filter9_i_4002_4120)"><path fill="#4C3230" d="m20.704 9.97-.002-.002-.002-.002-.006-.005-.015-.012a2.528 2.528 0 0 0-.196-.136 3.274 3.274 0 0 0-.532-.267 3.59 3.59 0 0 0-1.892-.2.677.677 0 0 0 .21 1.336c.505-.08.909.013 1.184.122a1.924 1.924 0 0 1 .38.202l.01.008a.677.677 0 0 0 .86-1.045Z"/><path fill="url(#paint27_radial_4002_4120)" d="m20.704 9.97-.002-.002-.002-.002-.006-.005-.015-.012a2.528 2.528 0 0 0-.196-.136 3.274 3.274 0 0 0-.532-.267 3.59 3.59 0 0 0-1.892-.2.677.677 0 0 0 .21 1.336c.505-.08.909.013 1.184.122a1.924 1.924 0 0 1 .38.202l.01.008a.677.677 0 0 0 .86-1.045Z"/></g><g filter="url(#filter10_i_4002_4120)"><path fill="#9A6634" d="M11.206 9.97v-.001h.002l.002-.003.006-.005.015-.012a1.76 1.76 0 0 1 .196-.136c.126-.079.306-.177.532-.267a3.591 3.591 0 0 1 1.892-.2.676.676 0 1 1-.21 1.336 2.237 2.237 0 0 0-1.184.122 1.924 1.924 0 0 0-.391.21.676.676 0 0 1-.86-1.044Z"/></g><g filter="url(#filter11_f_4002_4120)"><path stroke="url(#paint28_linear_4002_4120)" stroke-linecap="round" stroke-width=".5" d="M18.094 9.786c.545-.095 1.608-.068 2.344.504"/></g><g filter="url(#filter12_f_4002_4120)"><path stroke="url(#paint29_linear_4002_4120)" stroke-linecap="round" stroke-width=".5" d="M11.478 10.443c.415-.366 1.32-.752 2.443-.573"/></g><path fill="url(#paint30_radial_4002_4120)" d="M21.596 14.355a1.98 1.98 0 0 0 1.09-.372v1.123a2.62 2.62 0 0 1-1.616 2.435c.205-.437.346-.914.417-1.423l.109-1.763Z"/><path fill="url(#paint31_radial_4002_4120)" d="M21.596 14.355a1.98 1.98 0 0 0 1.09-.372v1.123a2.62 2.62 0 0 1-1.616 2.435c.205-.437.346-.914.417-1.423l.109-1.763Z"/><g filter="url(#filter13_f_4002_4120)"><path fill="url(#paint32_linear_4002_4120)" d="M17.44 8.58a.946.946 0 0 1 1.108.75l.356 1.849-.086-1.383a.946.946 0 1 1 1.888-.117l.197 3.17.327-.675a.989.989 0 1 1 1.78.863l-.817 1.684c-.174.42-.182.807-.19 1.218-.009.374-.017.767-.152 1.221-.236.796-.707 1.433-.913 1.653l-2.634.752c-2.028-.497-2.646-1.652-2.982-2.62a13.55 13.55 0 0 0-.658-1.585l-1.162-2.238a.946.946 0 1 1 1.678-.871l.194.371-.463-1.348a.946.946 0 0 1 1.79-.614l.404 1.18-.415-2.152a.946.946 0 0 1 .75-1.108Z"/></g><g filter="url(#filter14_i_4002_4120)"><path fill="url(#paint33_radial_4002_4120)" fill-rule="evenodd" d="M15.065 12.613c.15.11.184.32.074.47a2.019 2.019 0 0 1-1.641.828 2.046 2.046 0 0 1-1.639-.824.336.336 0 0 1 .538-.403c.256.34.656.555 1.1.555.457 0 .855-.216 1.099-.552a.337.337 0 0 1 .47-.074Z" clip-rule="evenodd"/></g><path fill="#87004C" d="M18.191 18.013a2.466 2.466 0 0 0-2.06-1.12c-.861 0-1.618.45-2.059 1.12-.095.143.039.316.192.297h3.726c.164 0 .297-.144.201-.297Z"/><g filter="url(#filter15_ii_4002_4120)"><path fill="url(#paint34_radial_4002_4120)" d="M18.168 7.781a1.1 1.1 0 0 1 1.288.872l.415 2.15-.1-1.608a1.1 1.1 0 1 1 2.195-.136l.23 3.687.38-.785a1.15 1.15 0 1 1 2.07 1.004l-.95 1.957c-.203.489-.212.94-.222 1.417-.01.435-.019.893-.176 1.42-.275.926-.823 1.668-1.062 1.923l-3.063.875c-2.36-.578-3.078-1.922-3.468-3.047-.313-.9-.641-1.604-.766-1.844l-1.351-2.602a1.1 1.1 0 0 1 1.952-1.014l.225.432-.539-1.568a1.1 1.1 0 0 1 2.082-.714l.47 1.372-.482-2.503a1.1 1.1 0 0 1 .872-1.288Z"/><path fill="url(#paint35_radial_4002_4120)" d="M18.168 7.781a1.1 1.1 0 0 1 1.288.872l.415 2.15-.1-1.608a1.1 1.1 0 1 1 2.195-.136l.23 3.687.38-.785a1.15 1.15 0 1 1 2.07 1.004l-.95 1.957c-.203.489-.212.94-.222 1.417-.01.435-.019.893-.176 1.42-.275.926-.823 1.668-1.062 1.923l-3.063.875c-2.36-.578-3.078-1.922-3.468-3.047-.313-.9-.641-1.604-.766-1.844l-1.351-2.602a1.1 1.1 0 0 1 1.952-1.014l.225.432-.539-1.568a1.1 1.1 0 0 1 2.082-.714l.47 1.372-.482-2.503a1.1 1.1 0 0 1 .872-1.288Z"/><path fill="url(#paint36_radial_4002_4120)" d="M18.168 7.781a1.1 1.1 0 0 1 1.288.872l.415 2.15-.1-1.608a1.1 1.1 0 1 1 2.195-.136l.23 3.687.38-.785a1.15 1.15 0 1 1 2.07 1.004l-.95 1.957c-.203.489-.212.94-.222 1.417-.01.435-.019.893-.176 1.42-.275.926-.823 1.668-1.062 1.923l-3.063.875c-2.36-.578-3.078-1.922-3.468-3.047-.313-.9-.641-1.604-.766-1.844l-1.351-2.602a1.1 1.1 0 0 1 1.952-1.014l.225.432-.539-1.568a1.1 1.1 0 0 1 2.082-.714l.47 1.372-.482-2.503a1.1 1.1 0 0 1 .872-1.288Z"/><path fill="url(#paint37_radial_4002_4120)" d="M18.168 7.781a1.1 1.1 0 0 1 1.288.872l.415 2.15-.1-1.608a1.1 1.1 0 1 1 2.195-.136l.23 3.687.38-.785a1.15 1.15 0 1 1 2.07 1.004l-.95 1.957c-.203.489-.212.94-.222 1.417-.01.435-.019.893-.176 1.42-.275.926-.823 1.668-1.062 1.923l-3.063.875c-2.36-.578-3.078-1.922-3.468-3.047-.313-.9-.641-1.604-.766-1.844l-1.351-2.602a1.1 1.1 0 0 1 1.952-1.014l.225.432-.539-1.568a1.1 1.1 0 0 1 2.082-.714l.47 1.372-.482-2.503a1.1 1.1 0 0 1 .872-1.288Z"/><path fill="url(#paint38_radial_4002_4120)" d="M18.168 7.781a1.1 1.1 0 0 1 1.288.872l.415 2.15-.1-1.608a1.1 1.1 0 1 1 2.195-.136l.23 3.687.38-.785a1.15 1.15 0 1 1 2.07 1.004l-.95 1.957c-.203.489-.212.94-.222 1.417-.01.435-.019.893-.176 1.42-.275.926-.823 1.668-1.062 1.923l-3.063.875c-2.36-.578-3.078-1.922-3.468-3.047-.313-.9-.641-1.604-.766-1.844l-1.351-2.602a1.1 1.1 0 0 1 1.952-1.014l.225.432-.539-1.568a1.1 1.1 0 0 1 2.082-.714l.47 1.372-.482-2.503a1.1 1.1 0 0 1 .872-1.288Z"/></g><path fill="url(#paint39_radial_4002_4120)" d="M17.88 20.54a.25.25 0 0 1 .182-.302l4.733-1.205a.25.25 0 0 1 .305.184l.274 1.13-5.229 1.267-.264-1.074Z"/><path fill="url(#paint40_linear_4002_4120)" d="M17.88 20.54a.25.25 0 0 1 .182-.302l4.733-1.205a.25.25 0 0 1 .305.184l.274 1.13-5.229 1.267-.264-1.074Z"/><path fill="url(#paint41_linear_4002_4120)" d="M17.317 22.614a1 1 0 0 1 .723-1.221l5.303-1.339a1 1 0 0 1 1.213.718l2.414 9.289h-7.719l-1.934-7.447Z"/><path fill="url(#paint42_radial_4002_4120)" d="M17.317 22.614a1 1 0 0 1 .723-1.221l5.303-1.339a1 1 0 0 1 1.213.718l2.414 9.289h-7.719l-1.934-7.447Z"/><path fill="url(#paint43_linear_4002_4120)" d="M17.317 22.614a1 1 0 0 1 .723-1.221l5.303-1.339a1 1 0 0 1 1.213.718l2.414 9.289h-7.719l-1.934-7.447Z"/><path fill="url(#paint44_linear_4002_4120)" d="M17.317 22.614a1 1 0 0 1 .723-1.221l5.303-1.339a1 1 0 0 1 1.213.718l2.414 9.289h-7.719l-1.934-7.447Z"/><g filter="url(#filter16_f_4002_4120)"><path stroke="#EDC1A4" stroke-linecap="round" stroke-width=".75" d="m18.719 8.918.718 4"/></g><g filter="url(#filter17_f_4002_4120)"><path stroke="#EDC1A4" stroke-linecap="round" stroke-width=".75" d="m16.656 10.699 1 2.875"/></g><g filter="url(#filter18_f_4002_4120)"><path stroke="#EDC1A4" stroke-linecap="round" stroke-width=".75" d="m14.844 12.73 1.094 2"/></g><g filter="url(#filter19_f_4002_4120)"><path stroke="url(#paint45_linear_4002_4120)" stroke-linecap="round" stroke-width=".75" d="m23.876 12.604-.937 1.89a3.556 3.556 0 0 0-.36 1.782c.079.968-.265 1.828-.64 2.234"/></g><g filter="url(#filter20_f_4002_4120)"><path stroke="url(#paint46_linear_4002_4120)" stroke-linecap="round" stroke-width=".75" d="m21.08 8.916.671 8.438"/></g><defs><radialGradient id="paint0_radial_4002_4120" cx="0" cy="0" r="1" gradientTransform="matrix(-6.38721 2.45336 -5.57243 -14.5076 21.385 26.447)" gradientUnits="userSpaceOnUse"><stop offset=".52" stop-color="#1D6FC7"/><stop offset="1" stop-color="#1D6FC7" stop-opacity="0"/></radialGradient><radialGradient id="paint1_radial_4002_4120" cx="0" cy="0" r="1" gradientTransform="matrix(0 4.84375 -6.97792 0 16 18.244)" gradientUnits="userSpaceOnUse"><stop offset=".503" stop-color="#115284"/><stop offset="1" stop-color="#115284" stop-opacity="0"/></radialGradient><radialGradient id="paint2_radial_4002_4120" cx="0" cy="0" r="1" gradientTransform="matrix(2.32812 3.40625 -3.8571 2.63627 14.712 20.796)" gradientUnits="userSpaceOnUse"><stop offset=".191" stop-color="#99656B"/><stop offset=".878" stop-color="#B2897E"/></radialGradient><radialGradient id="paint4_radial_4002_4120" cx="0" cy="0" r="1" gradientTransform="matrix(2.22444 0 0 3.89278 7.854 13.417)" gradientUnits="userSpaceOnUse"><stop offset=".351" stop-color="#865D5F"/><stop offset="1" stop-color="#76594A"/></radialGradient><radialGradient id="paint6_radial_4002_4120" cx="0" cy="0" r="1" gradientTransform="matrix(-1.42883 0 0 -1.36676 9.97 13.417)" gradientUnits="userSpaceOnUse"><stop offset=".573" stop-color="#B0725A" stop-opacity="0"/><stop offset="1" stop-color="#B0725A"/></radialGradient><radialGradient id="paint8_radial_4002_4120" cx="0" cy="0" r="1" gradientTransform="matrix(1.04792 -.76305 .87091 1.19606 22.501 13.081)" gradientUnits="userSpaceOnUse"><stop offset=".543" stop-color="#8F6459"/><stop offset="1" stop-color="#8F6459" stop-opacity="0"/></radialGradient><radialGradient id="paint9_radial_4002_4120" cx="0" cy="0" r="1" gradientTransform="matrix(1.04102 -1.91472 1.1207 .6093 21.977 14.458)" gradientUnits="userSpaceOnUse"><stop offset=".755" stop-color="#8A5D55" stop-opacity="0"/><stop offset=".916" stop-color="#8A5D55"/></radialGradient><radialGradient id="paint10_radial_4002_4120" cx="0" cy="0" r="1" gradientTransform="matrix(.32867 .32533 -.4194 .4237 22.03 13.417)" gradientUnits="userSpaceOnUse"><stop stop-color="#895F52"/><stop offset="1" stop-color="#895F52" stop-opacity="0"/></radialGradient><radialGradient id="paint11_radial_4002_4120" cx="0" cy="0" r="1" gradientTransform="rotate(153.392 8.39 8.537) scale(9.38575 13.2295)" gradientUnits="userSpaceOnUse"><stop stop-color="#FCCBA2"/><stop offset=".778" stop-color="#C18B75"/></radialGradient><radialGradient id="paint12_radial_4002_4120" cx="0" cy="0" r="1" gradientTransform="matrix(-2.72223 1.56421 -1.3871 -2.41398 18.477 13.39)" gradientUnits="userSpaceOnUse"><stop stop-color="#FFC89E"/><stop offset="1" stop-color="#FFC89E" stop-opacity="0"/></radialGradient><radialGradient id="paint13_radial_4002_4120" cx="0" cy="0" r="1" gradientTransform="rotate(-79.217 19.85 2.976) scale(5.77211 6.78413)" gradientUnits="userSpaceOnUse"><stop stop-color="#B97783"/><stop offset="1" stop-color="#B97783" stop-opacity="0"/></radialGradient><radialGradient id="paint14_radial_4002_4120" cx="0" cy="0" r="1" gradientTransform="matrix(0 11.8213 -13.0873 0 16.648 10.125)" gradientUnits="userSpaceOnUse"><stop offset=".597" stop-color="#AC7179" stop-opacity="0"/><stop offset="1" stop-color="#8F6479"/></radialGradient><radialGradient id="paint15_radial_4002_4120" cx="0" cy="0" r="1" gradientTransform="rotate(171.687 7.854 8.454) scale(7.47512 13.9365)" gradientUnits="userSpaceOnUse"><stop offset=".813" stop-color="#E3AB91" stop-opacity="0"/><stop offset="1" stop-color="#E3AB91"/></radialGradient><radialGradient id="paint16_radial_4002_4120" cx="0" cy="0" r="1" gradientTransform="matrix(0 -1.61307 2.13466 0 18.995 11.826)" gradientUnits="userSpaceOnUse"><stop offset=".259" stop-color="#E3A48E"/><stop offset="1" stop-color="#E3A48E" stop-opacity="0"/></radialGradient><radialGradient id="paint17_radial_4002_4120" cx="0" cy="0" r="1" gradientTransform="matrix(0 -1.90636 2.01116 0 13.55 11.948)" gradientUnits="userSpaceOnUse"><stop stop-color="#C2847A"/><stop offset="1" stop-color="#C2847A" stop-opacity="0"/></radialGradient><radialGradient id="paint18_radial_4002_4120" cx="0" cy="0" r="1" gradientTransform="matrix(-1.738 0 0 -6.21557 22.6 13.91)" gradientUnits="userSpaceOnUse"><stop stop-color="#F4C099"/><stop offset="1" stop-color="#F4C099" stop-opacity="0"/></radialGradient><radialGradient id="paint20_radial_4002_4120" cx="0" cy="0" r="1" gradientTransform="rotate(127.807 9.443 6.882) scale(7.1063 12.0849)" gradientUnits="userSpaceOnUse"><stop stop-color="#FFFFC2"/><stop offset="1" stop-color="#FFFFC2" stop-opacity="0"/></radialGradient><radialGradient id="paint22_radial_4002_4120" cx="0" cy="0" r="1" gradientTransform="matrix(-.0847 -2.35957 1.15884 -.0416 10.673 9.037)" gradientUnits="userSpaceOnUse"><stop offset=".227" stop-color="#EEC19C"/><stop offset="1" stop-color="#EEC19C" stop-opacity="0"/></radialGradient><radialGradient id="paint23_radial_4002_4120" cx="0" cy="0" r="1" gradientTransform="matrix(1.08903 -2.49268 2.03298 .88819 21.347 11.216)" gradientUnits="userSpaceOnUse"><stop offset=".479" stop-color="#E3AB85"/><stop offset="1" stop-color="#E3AB85" stop-opacity="0"/></radialGradient><radialGradient id="paint24_radial_4002_4120" cx="0" cy="0" r="1" gradientTransform="matrix(1.25844 1.56149 -1.37869 1.11111 15.006 2.514)" gradientUnits="userSpaceOnUse"><stop stop-color="#FBECAF"/><stop offset="1" stop-color="#FBECAF" stop-opacity="0"/></radialGradient><radialGradient id="paint25_radial_4002_4120" cx="0" cy="0" r="1" gradientTransform="matrix(.2299 .99278 -1.63213 .37797 16.87 2.514)" gradientUnits="userSpaceOnUse"><stop offset=".208" stop-color="#E1D19F"/><stop offset="1" stop-color="#E1D19F" stop-opacity="0"/></radialGradient><radialGradient id="paint26_radial_4002_4120" cx="0" cy="0" r="1" gradientTransform="rotate(51.044 .313 13.328) scale(1.4627 3.27736)" gradientUnits="userSpaceOnUse"><stop stop-color="#DCC291"/><stop offset="1" stop-color="#DCC291" stop-opacity="0"/></radialGradient><radialGradient id="paint27_radial_4002_4120" cx="0" cy="0" r="1" gradientTransform="rotate(-80.201 15.94 -5.945) scale(.77601 2.29578)" gradientUnits="userSpaceOnUse"><stop stop-color="#422235"/><stop offset="1" stop-color="#422235" stop-opacity="0"/></radialGradient><radialGradient id="paint30_radial_4002_4120" cx="0" cy="0" r="1" gradientTransform="matrix(-.92987 3.82055 -4.53851 -1.1046 22.424 13.983)" gradientUnits="userSpaceOnUse"><stop offset=".043" stop-color="#FFC135"/><stop offset=".909" stop-color="#E26839"/></radialGradient><radialGradient id="paint31_radial_4002_4120" cx="0" cy="0" r="1" gradientTransform="matrix(.35375 .48515 -.41214 .30052 21.524 14.307)" gradientUnits="userSpaceOnUse"><stop stop-color="#E18C2A"/><stop offset="1" stop-color="#E18C2A" stop-opacity="0"/></radialGradient><radialGradient id="paint33_radial_4002_4120" cx="0" cy="0" r="1" gradientTransform="matrix(1.60227 1.22796 -.50064 .65325 11.995 12.41)" gradientUnits="userSpaceOnUse"><stop stop-color="#956138"/><stop offset="1" stop-color="#713A2B"/></radialGradient><radialGradient id="paint34_radial_4002_4120" cx="0" cy="0" r="1" gradientTransform="rotate(104.051 5.905 14.326) scale(10.3219 9.11334)" gradientUnits="userSpaceOnUse"><stop offset=".542" stop-color="#E8B096"/><stop offset=".858" stop-color="#CE8E86"/></radialGradient><radialGradient id="paint35_radial_4002_4120" cx="0" cy="0" r="1" gradientTransform="matrix(.98633 2.57228 -.42433 .1627 15.499 11.718)" gradientUnits="userSpaceOnUse"><stop offset=".126" stop-color="#BA7E5C"/><stop offset="1" stop-color="#BA7E5C" stop-opacity="0"/></radialGradient><radialGradient id="paint36_radial_4002_4120" cx="0" cy="0" r="1" gradientTransform="matrix(.98438 3.84375 -.63406 .16238 17.314 9.65)" gradientUnits="userSpaceOnUse"><stop stop-color="#BA7E5C"/><stop offset="1" stop-color="#BA7E5C" stop-opacity="0"/></radialGradient><radialGradient id="paint37_radial_4002_4120" cx="0" cy="0" r="1" gradientTransform="matrix(.65625 4.375 -.54534 .0818 19.595 8.838)" gradientUnits="userSpaceOnUse"><stop stop-color="#BA7E5C"/><stop offset="1" stop-color="#BA7E5C" stop-opacity="0"/></radialGradient><radialGradient id="paint38_radial_4002_4120" cx="0" cy="0" r="1" gradientTransform="rotate(98.227 6.773 15.291) scale(3.93108 .49375)" gradientUnits="userSpaceOnUse"><stop offset=".001" stop-color="#BA7E5C"/><stop offset="1" stop-color="#BA7E5C" stop-opacity="0"/></radialGradient><radialGradient id="paint39_radial_4002_4120" cx="0" cy="0" r="1" gradientTransform="rotate(165.742 9.818 11.335) scale(3.42011 2.21707)" gradientUnits="userSpaceOnUse"><stop stop-color="#489ED5"/><stop offset="1" stop-color="#20669E"/></radialGradient><radialGradient id="paint42_radial_4002_4120" cx="0" cy="0" r="1" gradientTransform="matrix(2.29332 10.73456 -3.15485 .674 23.298 21.385)" gradientUnits="userSpaceOnUse"><stop stop-color="#47C9FF"/><stop offset="1" stop-color="#1C9AE9" stop-opacity="0"/></radialGradient><filter id="filter0_i_4002_4120" width="20.98" height="11.16" x="6.01" y="19.884" color-interpolation-filters="sRGB" filterUnits="userSpaceOnUse"><feFlood flood-opacity="0" result="BackgroundImageFix"/><feBlend in="SourceGraphic" in2="BackgroundImageFix" result="shape"/><feColorMatrix in="SourceAlpha" result="hardAlpha" values="0 0 0 0 0 0 0 0 0 0 0 0 0 0 0 0 0 0 127 0"/><feOffset dx="1" dy="1"/><feGaussianBlur stdDeviation="1"/><feComposite in2="hardAlpha" k2="-1" k3="1" operator="arithmetic"/><feColorMatrix values="0 0 0 0 0.254902 0 0 0 0 0.501961 0 0 0 0 0.682353 0 0 0 1 0"/><feBlend in2="shape" result="effect1_innerShadow_4002_4120"/></filter><filter id="filter1_i_4002_4120" width="4.432" height="4.232" x="7.854" y="11.301" color-interpolation-filters="sRGB" filterUnits="userSpaceOnUse"><feFlood flood-opacity="0" result="BackgroundImageFix"/><feBlend in="SourceGraphic" in2="BackgroundImageFix" result="shape"/><feColorMatrix in="SourceAlpha" result="hardAlpha" values="0 0 0 0 0 0 0 0 0 0 0 0 0 0 0 0 0 0 127 0"/><feOffset dx=".2"/><feGaussianBlur stdDeviation=".15"/><feComposite in2="hardAlpha" k2="-1" k3="1" operator="arithmetic"/><feColorMatrix values="0 0 0 0 0.619608 0 0 0 0 0.470588 0 0 0 0 0.407843 0 0 0 1 0"/><feBlend in2="shape" result="effect1_innerShadow_4002_4120"/></filter><filter id="filter2_i_4002_4120" width="4.382" height="4.482" x="7.854" y="11.301" color-interpolation-filters="sRGB" filterUnits="userSpaceOnUse"><feFlood flood-opacity="0" result="BackgroundImageFix"/><feBlend in="SourceGraphic" in2="BackgroundImageFix" result="shape"/><feColorMatrix in="SourceAlpha" result="hardAlpha" values="0 0 0 0 0 0 0 0 0 0 0 0 0 0 0 0 0 0 127 0"/><feOffset dx=".15" dy=".25"/><feGaussianBlur stdDeviation=".25"/><feComposite in2="hardAlpha" k2="-1" k3="1" operator="arithmetic"/><feColorMatrix values="0 0 0 0 0.858824 0 0 0 0 0.635294 0 0 0 0 0.533333 0 0 0 1 0"/><feBlend in2="shape" result="effect1_innerShadow_4002_4120"/></filter><filter id="filter3_f_4002_4120" width="3.322" height="3.322" x="8.309" y="11.756" color-interpolation-filters="sRGB" filterUnits="userSpaceOnUse"><feFlood flood-opacity="0" result="BackgroundImageFix"/><feBlend in="SourceGraphic" in2="BackgroundImageFix" result="shape"/><feGaussianBlur result="effect1_foregroundBlur_4002_4120" stdDeviation=".2"/></filter><filter id="filter4_i_4002_4120" width="4.482" height="4.482" x="19.913" y="11.051" color-interpolation-filters="sRGB" filterUnits="userSpaceOnUse"><feFlood flood-opacity="0" result="BackgroundImageFix"/><feBlend in="SourceGraphic" in2="BackgroundImageFix" result="shape"/><feColorMatrix in="SourceAlpha" result="hardAlpha" values="0 0 0 0 0 0 0 0 0 0 0 0 0 0 0 0 0 0 127 0"/><feOffset dx=".25" dy="-.25"/><feGaussianBlur stdDeviation=".25"/><feComposite in2="hardAlpha" k2="-1" k3="1" operator="arithmetic"/><feColorMatrix values="0 0 0 0 0.584314 0 0 0 0 0.368627 0 0 0 0 0.470588 0 0 0 1 0"/><feBlend in2="shape" result="effect1_innerShadow_4002_4120"/></filter><filter id="filter5_f_4002_4120" width="3.522" height="3.522" x="20.268" y="11.656" color-interpolation-filters="sRGB" filterUnits="userSpaceOnUse"><feFlood flood-opacity="0" result="BackgroundImageFix"/><feBlend in="SourceGraphic" in2="BackgroundImageFix" result="shape"/><feGaussianBlur result="effect1_foregroundBlur_4002_4120" stdDeviation=".25"/></filter><filter id="filter6_i_4002_4120" width="13.149" height="15.646" x="9.451" y="6.288" color-interpolation-filters="sRGB" filterUnits="userSpaceOnUse"><feFlood flood-opacity="0" result="BackgroundImageFix"/><feBlend in="SourceGraphic" in2="BackgroundImageFix" result="shape"/><feColorMatrix in="SourceAlpha" result="hardAlpha" values="0 0 0 0 0 0 0 0 0 0 0 0 0 0 0 0 0 0 127 0"/><feOffset dy=".4"/><feGaussianBlur stdDeviation=".3"/><feComposite in2="hardAlpha" k2="-1" k3="1" operator="arithmetic"/><feColorMatrix values="0 0 0 0 0.745098 0 0 0 0 0.486275 0 0 0 0 0.384314 0 0 0 1 0"/><feBlend in2="shape" result="effect1_innerShadow_4002_4120"/></filter><filter id="filter7_f_4002_4120" width="9.382" height="7.887" x="14.204" y="4.288" color-interpolation-filters="sRGB" filterUnits="userSpaceOnUse"><feFlood flood-opacity="0" result="BackgroundImageFix"/><feBlend in="SourceGraphic" in2="BackgroundImageFix" result="shape"/><feGaussianBlur result="effect1_foregroundBlur_4002_4120" stdDeviation="1"/></filter><filter id="filter8_i_4002_4120" width="15.973" height="10.696" x="8.002" y="2.014" color-interpolation-filters="sRGB" filterUnits="userSpaceOnUse"><feFlood flood-opacity="0" result="BackgroundImageFix"/><feBlend in="SourceGraphic" in2="BackgroundImageFix" result="shape"/><feColorMatrix in="SourceAlpha" result="hardAlpha" values="0 0 0 0 0 0 0 0 0 0 0 0 0 0 0 0 0 0 127 0"/><feOffset dy="-.5"/><feGaussianBlur stdDeviation=".375"/><feComposite in2="hardAlpha" k2="-1" k3="1" operator="arithmetic"/><feColorMatrix values="0 0 0 0 0.858824 0 0 0 0 0.690196 0 0 0 0 0.533333 0 0 0 1 0"/><feBlend in2="shape" result="effect1_innerShadow_4002_4120"/></filter><filter id="filter9_i_4002_4120" width="3.71" height="2.267" x="17.488" y="8.899" color-interpolation-filters="sRGB" filterUnits="userSpaceOnUse"><feFlood flood-opacity="0" result="BackgroundImageFix"/><feBlend in="SourceGraphic" in2="BackgroundImageFix" result="shape"/><feColorMatrix in="SourceAlpha" result="hardAlpha" values="0 0 0 0 0 0 0 0 0 0 0 0 0 0 0 0 0 0 127 0"/><feOffset dx=".25" dy="-.4"/><feGaussianBlur stdDeviation=".3"/><feComposite in2="hardAlpha" k2="-1" k3="1" operator="arithmetic"/><feColorMatrix values="0 0 0 0 0.254902 0 0 0 0 0.156863 0 0 0 0 0.152941 0 0 0 1 0"/><feBlend in2="shape" result="effect1_innerShadow_4002_4120"/></filter><filter id="filter10_i_4002_4120" width="3.71" height="2.267" x="10.962" y="8.899" color-interpolation-filters="sRGB" filterUnits="userSpaceOnUse"><feFlood flood-opacity="0" result="BackgroundImageFix"/><feBlend in="SourceGraphic" in2="BackgroundImageFix" result="shape"/><feColorMatrix in="SourceAlpha" result="hardAlpha" values="0 0 0 0 0 0 0 0 0 0 0 0 0 0 0 0 0 0 127 0"/><feOffset dx=".25" dy="-.4"/><feGaussianBlur stdDeviation=".3"/><feComposite in2="hardAlpha" k2="-1" k3="1" operator="arithmetic"/><feColorMatrix values="0 0 0 0 0.47451 0 0 0 0 0.262745 0 0 0 0 0.168627 0 0 0 1 0"/><feBlend in2="shape" result="effect1_innerShadow_4002_4120"/></filter><filter id="filter11_f_4002_4120" width="3.844" height="2.047" x="17.344" y="8.994" color-interpolation-filters="sRGB" filterUnits="userSpaceOnUse"><feFlood flood-opacity="0" result="BackgroundImageFix"/><feBlend in="SourceGraphic" in2="BackgroundImageFix" result="shape"/><feGaussianBlur result="effect1_foregroundBlur_4002_4120" stdDeviation=".25"/></filter><filter id="filter12_f_4002_4120" width="3.943" height="2.119" x="10.728" y="9.075" color-interpolation-filters="sRGB" filterUnits="userSpaceOnUse"><feFlood flood-opacity="0" result="BackgroundImageFix"/><feBlend in="SourceGraphic" in2="BackgroundImageFix" result="shape"/><feGaussianBlur result="effect1_foregroundBlur_4002_4120" stdDeviation=".25"/></filter><filter id="filter13_f_4002_4120" width="12.214" height="13.502" x="12.145" y="7.313" color-interpolation-filters="sRGB" filterUnits="userSpaceOnUse"><feFlood flood-opacity="0" result="BackgroundImageFix"/><feBlend in="SourceGraphic" in2="BackgroundImageFix" result="shape"/><feGaussianBlur result="effect1_foregroundBlur_4002_4120" stdDeviation=".625"/></filter><filter id="filter14_i_4002_4120" width="3.412" height="1.462" x="11.792" y="12.449" color-interpolation-filters="sRGB" filterUnits="userSpaceOnUse"><feFlood flood-opacity="0" result="BackgroundImageFix"/><feBlend in="SourceGraphic" in2="BackgroundImageFix" result="shape"/><feColorMatrix in="SourceAlpha" result="hardAlpha" values="0 0 0 0 0 0 0 0 0 0 0 0 0 0 0 0 0 0 127 0"/><feOffset dy="-.1"/><feGaussianBlur stdDeviation=".1"/><feComposite in2="hardAlpha" k2="-1" k3="1" operator="arithmetic"/><feColorMatrix values="0 0 0 0 0.447059 0 0 0 0 0.235294 0 0 0 0 0.172549 0 0 0 1 0"/><feBlend in2="shape" result="effect1_innerShadow_4002_4120"/></filter><filter id="filter15_ii_4002_4120" width="11.547" height="12.796" x="13.464" y="7.761" color-interpolation-filters="sRGB" filterUnits="userSpaceOnUse"><feFlood flood-opacity="0" result="BackgroundImageFix"/><feBlend in="SourceGraphic" in2="BackgroundImageFix" result="shape"/><feColorMatrix in="SourceAlpha" result="hardAlpha" values="0 0 0 0 0 0 0 0 0 0 0 0 0 0 0 0 0 0 127 0"/><feOffset dx=".25"/><feGaussianBlur stdDeviation=".75"/><feComposite in2="hardAlpha" k2="-1" k3="1" operator="arithmetic"/><feColorMatrix values="0 0 0 0 0.827451 0 0 0 0 0.584314 0 0 0 0 0.407843 0 0 0 1 0"/><feBlend in2="shape" result="effect1_innerShadow_4002_4120"/><feColorMatrix in="SourceAlpha" result="hardAlpha" values="0 0 0 0 0 0 0 0 0 0 0 0 0 0 0 0 0 0 127 0"/><feOffset dx=".1"/><feGaussianBlur stdDeviation=".05"/><feComposite in2="hardAlpha" k2="-1" k3="1" operator="arithmetic"/><feColorMatrix values="0 0 0 0 0.784314 0 0 0 0 0.52549 0 0 0 0 0.482353 0 0 0 1 0"/><feBlend in2="effect1_innerShadow_4002_4120" result="effect2_innerShadow_4002_4120"/></filter><filter id="filter16_f_4002_4120" width="2.469" height="5.75" x="17.844" y="8.043" color-interpolation-filters="sRGB" filterUnits="userSpaceOnUse"><feFlood flood-opacity="0" result="BackgroundImageFix"/><feBlend in="SourceGraphic" in2="BackgroundImageFix" result="shape"/><feGaussianBlur result="effect1_foregroundBlur_4002_4120" stdDeviation=".25"/></filter><filter id="filter17_f_4002_4120" width="2.75" height="4.625" x="15.781" y="9.824" color-interpolation-filters="sRGB" filterUnits="userSpaceOnUse"><feFlood flood-opacity="0" result="BackgroundImageFix"/><feBlend in="SourceGraphic" in2="BackgroundImageFix" result="shape"/><feGaussianBlur result="effect1_foregroundBlur_4002_4120" stdDeviation=".25"/></filter><filter id="filter18_f_4002_4120" width="2.844" height="3.75" x="13.969" y="11.855" color-interpolation-filters="sRGB" filterUnits="userSpaceOnUse"><feFlood flood-opacity="0" result="BackgroundImageFix"/><feBlend in="SourceGraphic" in2="BackgroundImageFix" result="shape"/><feGaussianBlur result="effect1_foregroundBlur_4002_4120" stdDeviation=".25"/></filter><filter id="filter19_f_4002_4120" width="3.688" height="7.656" x="21.064" y="11.729" color-interpolation-filters="sRGB" filterUnits="userSpaceOnUse"><feFlood flood-opacity="0" result="BackgroundImageFix"/><feBlend in="SourceGraphic" in2="BackgroundImageFix" result="shape"/><feGaussianBlur result="effect1_foregroundBlur_4002_4120" stdDeviation=".25"/></filter><filter id="filter20_f_4002_4120" width="2.422" height="10.188" x="20.204" y="8.041" color-interpolation-filters="sRGB" filterUnits="userSpaceOnUse"><feFlood flood-opacity="0" result="BackgroundImageFix"/><feBlend in="SourceGraphic" in2="BackgroundImageFix" result="shape"/><feGaussianBlur result="effect1_foregroundBlur_4002_4120" stdDeviation=".25"/></filter><linearGradient id="paint3_linear_4002_4120" x1="13.071" x2="14.551" y1="21.592" y2="21.592" gradientUnits="userSpaceOnUse"><stop stop-color="#A97767"/><stop offset="1" stop-color="#A97767" stop-opacity="0"/></linearGradient><linearGradient id="paint5_linear_4002_4120" x1="7.854" x2="11.746" y1="13.532" y2="13.532" gradientUnits="userSpaceOnUse"><stop stop-color="#C48B78"/><stop offset="1" stop-color="#B47860"/></linearGradient><linearGradient id="paint7_linear_4002_4120" x1="23.407" x2="22.369" y1="12.033" y2="15.248" gradientUnits="userSpaceOnUse"><stop stop-color="#CCA68C"/><stop offset="1" stop-color="#AE7F75"/></linearGradient><linearGradient id="paint19_linear_4002_4120" x1="15.315" x2="25.639" y1="10.127" y2="6.431" gradientUnits="userSpaceOnUse"><stop stop-color="#C89F8B"/><stop offset="1" stop-color="#C89F8B" stop-opacity="0"/></linearGradient><linearGradient id="paint21_linear_4002_4120" x1="9.827" x2="13.506" y1="13.079" y2="6.544" gradientUnits="userSpaceOnUse"><stop stop-color="#E8AD8E"/><stop offset="1" stop-color="#E8AD8E" stop-opacity="0"/></linearGradient><linearGradient id="paint28_linear_4002_4120" x1="19.757" x2="19.224" y1="9.909" y2="8.82" gradientUnits="userSpaceOnUse"><stop stop-color="#5B4545"/><stop offset="1" stop-color="#5B4545" stop-opacity="0"/></linearGradient><linearGradient id="paint29_linear_4002_4120" x1="13.033" x2="11.525" y1="9.747" y2="9.115" gradientUnits="userSpaceOnUse"><stop stop-color="#A57146"/><stop offset="1" stop-color="#A57146" stop-opacity="0"/></linearGradient><linearGradient id="paint32_linear_4002_4120" x1="18.252" x2="15.551" y1="8.563" y2="19.229" gradientUnits="userSpaceOnUse"><stop stop-color="#A26441"/><stop offset="1" stop-color="#A16871"/></linearGradient><linearGradient id="paint40_linear_4002_4120" x1="20.454" x2="20.552" y1="19.537" y2="19.901" gradientUnits="userSpaceOnUse"><stop offset=".245" stop-color="#1B7DB4"/><stop offset="1" stop-color="#1B7DB4" stop-opacity="0"/></linearGradient><linearGradient id="paint41_linear_4002_4120" x1="19.704" x2="26.142" y1="28.229" y2="26.854" gradientUnits="userSpaceOnUse"><stop stop-color="#2474C2"/><stop offset="1" stop-color="#45AAED"/></linearGradient><linearGradient id="paint43_linear_4002_4120" x1="18.5" x2="19.719" y1="27.901" y2="27.526" gradientUnits="userSpaceOnUse"><stop stop-color="#3476BA"/><stop offset="1" stop-color="#3476BA" stop-opacity="0"/></linearGradient><linearGradient id="paint44_linear_4002_4120" x1="20.154" x2="20.498" y1="20.494" y2="21.932" gradientUnits="userSpaceOnUse"><stop offset=".19" stop-color="#0792D5"/><stop offset="1" stop-color="#0792D5" stop-opacity="0"/></linearGradient><linearGradient id="paint45_linear_4002_4120" x1="22.908" x2="22.908" y1="12.604" y2="18.51" gradientUnits="userSpaceOnUse"><stop offset=".452" stop-color="#F0C19F"/><stop offset="1" stop-color="#F0C19F" stop-opacity="0"/></linearGradient><linearGradient id="paint46_linear_4002_4120" x1="21.415" x2="21.415" y1="8.916" y2="17.354" gradientUnits="userSpaceOnUse"><stop offset=".452" stop-color="#F0C19F"/><stop offset="1" stop-color="#F0C19F" stop-opacity="0"/></linearGradient></defs></svg>