<svg xmlns="http://www.w3.org/2000/svg" width="32" height="32" fill="none" viewBox="0 0 32 32"><path fill="url(#paint0_linear_4002_3274)" d="M28.46 30c-.12-6.78-5.65-12.24-12.46-12.24-6.81 0-12.34 5.46-12.46 12.24h24.92Z"/><path fill="url(#paint1_radial_4002_3274)" d="M28.46 30c-.12-6.78-5.65-12.24-12.46-12.24-6.81 0-12.34 5.46-12.46 12.24h24.92Z"/><path fill="url(#paint2_radial_4002_3274)" d="M28.46 30c-.12-6.78-5.65-12.24-12.46-12.24-6.81 0-12.34 5.46-12.46 12.24h24.92Z"/><path fill="url(#paint3_linear_4002_3274)" d="M28.46 30c-.12-6.78-5.65-12.24-12.46-12.24-6.81 0-12.34 5.46-12.46 12.24h24.92Z"/><path fill="url(#paint4_linear_4002_3274)" d="M28.46 30c-.12-6.78-5.65-12.24-12.46-12.24-6.81 0-12.34 5.46-12.46 12.24h24.92Z"/><g filter="url(#filter0_f_4002_3274)"><path fill="#E0244F" fill-rule="evenodd" d="m12.08 19.566 1.01-.8 4.732.185 2.078.615c0 1.242-1.05 2.254-2.34 2.254h-.81c-.14 0-.25.106-.25.24v7.696h-1v-7.695a.243.243 0 0 0-.25-.241h-.83c-1.29 0-2.34-1.012-2.34-2.254Zm2.35 1.29h3.14c.74 0 1.34-.577 1.35-1.29v-1.599h-5.83v1.599c0 .713.6 1.29 1.34 1.29Z" clip-rule="evenodd"/></g><g filter="url(#filter1_iii_4002_3274)"><path fill="url(#paint5_linear_4002_3274)" fill-rule="evenodd" d="M12.08 19.42v-2.66h7.82v2.66c0 1.29-1.05 2.34-2.34 2.34h-.81c-.14 0-.25.11-.25.25V30h-1v-7.99c0-.14-.11-.25-.25-.25h-.83c-1.29 0-2.34-1.05-2.34-2.34Zm2.35 1.34h3.14c.74 0 1.34-.6 1.35-1.34v-1.66h-5.83v1.66c0 .74.6 1.34 1.34 1.34Z" clip-rule="evenodd"/></g><path fill="url(#paint6_radial_4002_3274)" fill-rule="evenodd" d="M12.08 19.42v-2.66h7.82v2.66c0 1.29-1.05 2.34-2.34 2.34h-.81c-.14 0-.25.11-.25.25V30h-1v-7.99c0-.14-.11-.25-.25-.25h-.83c-1.29 0-2.34-1.05-2.34-2.34Zm2.35 1.34h3.14c.74 0 1.34-.6 1.35-1.34v-1.66h-5.83v1.66c0 .74.6 1.34 1.34 1.34Z" clip-rule="evenodd"/><path fill="url(#paint7_linear_4002_3274)" fill-rule="evenodd" d="M12.08 19.42v-2.66h7.82v2.66c0 1.29-1.05 2.34-2.34 2.34h-.81c-.14 0-.25.11-.25.25V30h-1v-7.99c0-.14-.11-.25-.25-.25h-.83c-1.29 0-2.34-1.05-2.34-2.34Zm2.35 1.34h3.14c.74 0 1.34-.6 1.35-1.34v-1.66h-5.83v1.66c0 .74.6 1.34 1.34 1.34Z" clip-rule="evenodd"/><path fill="url(#paint8_radial_4002_3274)" fill-rule="evenodd" d="M12.08 19.42v-2.66h7.82v2.66c0 1.29-1.05 2.34-2.34 2.34h-.81c-.14 0-.25.11-.25.25V30h-1v-7.99c0-.14-.11-.25-.25-.25h-.83c-1.29 0-2.34-1.05-2.34-2.34Zm2.35 1.34h3.14c.74 0 1.34-.6 1.35-1.34v-1.66h-5.83v1.66c0 .74.6 1.34 1.34 1.34Z" clip-rule="evenodd"/><path fill="url(#paint9_radial_4002_3274)" fill-rule="evenodd" d="M12.08 19.42v-2.66h7.82v2.66c0 1.29-1.05 2.34-2.34 2.34h-.81c-.14 0-.25.11-.25.25V30h-1v-7.99c0-.14-.11-.25-.25-.25h-.83c-1.29 0-2.34-1.05-2.34-2.34Zm2.35 1.34h3.14c.74 0 1.34-.6 1.35-1.34v-1.66h-5.83v1.66c0 .74.6 1.34 1.34 1.34Z" clip-rule="evenodd"/><path fill="url(#paint10_radial_4002_3274)" d="M17.57 20.76h-3.14c-.74 0-1.34-.6-1.34-1.34v-1.66h5.83v1.66c-.01.74-.61 1.34-1.35 1.34Z"/><g filter="url(#filter2_i_4002_3274)"><path fill="url(#paint11_linear_4002_3274)" d="M14.78 23.6c0-.28.22-.5.5-.5h1.44c.28 0 .5.22.5.5s-.22.5-.5.5h-1.44c-.28 0-.5-.22-.5-.5Z"/><path fill="url(#paint12_radial_4002_3274)" d="M14.78 23.6c0-.28.22-.5.5-.5h1.44c.28 0 .5.22.5.5s-.22.5-.5.5h-1.44c-.28 0-.5-.22-.5-.5Z"/></g><g filter="url(#filter3_i_4002_3274)"><path fill="url(#paint13_linear_4002_3274)" d="M14.78 26.55c0-.28.22-.5.5-.5h1.44c.28 0 .5.22.5.5s-.22.5-.5.5h-1.44c-.28 0-.5-.22-.5-.5Z"/><path fill="url(#paint14_radial_4002_3274)" d="M14.78 26.55c0-.28.22-.5.5-.5h1.44c.28 0 .5.22.5.5s-.22.5-.5.5h-1.44c-.28 0-.5-.22-.5-.5Z"/></g><g filter="url(#filter4_i_4002_3274)"><path fill="url(#paint15_linear_4002_3274)" d="M14.78 29.5c0-.28.22-.5.5-.5h1.44c.28 0 .5.22.5.5s-.22.5-.5.5h-1.44c-.28 0-.5-.22-.5-.5Z"/><path fill="url(#paint16_radial_4002_3274)" d="M14.78 29.5c0-.28.22-.5.5-.5h1.44c.28 0 .5.22.5.5s-.22.5-.5.5h-1.44c-.28 0-.5-.22-.5-.5Z"/></g><path fill="url(#paint17_radial_4002_3274)" d="M8.07 30v-9.392A12.44 12.44 0 0 0 3.54 30h4.53Z"/><path fill="url(#paint18_linear_4002_3274)" d="M8.07 30v-9.392A12.44 12.44 0 0 0 3.54 30h4.53Z"/><path fill="url(#paint19_radial_4002_3274)" d="M8.07 30v-9.392A12.44 12.44 0 0 0 3.54 30h4.53Z"/><path fill="url(#paint20_radial_4002_3274)" d="M23.93 30v-9.392A12.44 12.44 0 0 1 28.46 30h-4.53Z"/><path fill="url(#paint21_radial_4002_3274)" d="M23.93 30v-9.392A12.44 12.44 0 0 1 28.46 30h-4.53Z"/><g filter="url(#filter5_i_4002_3274)"><circle cx="10.718" cy="11.771" r="1.855" fill="url(#paint22_radial_4002_3274)"/></g><g filter="url(#filter6_f_4002_3274)"><circle cx="10.718" cy="11.771" r="1.106" fill="url(#paint23_linear_4002_3274)"/></g><g filter="url(#filter7_i_4002_3274)"><circle cx="21.291" cy="11.771" r="1.855" fill="url(#paint24_linear_4002_3274)"/><circle cx="21.291" cy="11.771" r="1.855" fill="url(#paint25_radial_4002_3274)"/></g><g filter="url(#filter8_f_4002_3274)"><circle cx="21.292" cy="11.771" r="1.106" fill="#D79E81"/><circle cx="21.292" cy="11.771" r="1.106" fill="url(#paint26_radial_4002_3274)"/><circle cx="21.292" cy="11.771" r="1.106" fill="url(#paint27_radial_4002_3274)"/></g><g filter="url(#filter9_i_4002_3274)"><path fill="url(#paint28_linear_4002_3274)" d="M10.133 9.491c0-.296-.417-1.377-.179-1.555l.18-.178c.297-.237.953.133.953-.223v-.948c0-.297.308-.534.606-.593.716-.178 2.206-.474 4.352-.474 2.146 0 3.637.296 4.352.474.239.06.477.296.477.593l.083.948c0 .356.857-.076 1.095.161.558.391-.155 1.394-.201 1.855-.2 1.99-.343 4.002-.477 6-.178 1.966-1.725 3.337-3.568 3.337h-3.568c-1.903 0-3.39-1.371-3.568-3.338-.156-2.027-.353-4.046-.537-6.059Z"/><path fill="url(#paint29_linear_4002_3274)" d="M10.133 9.491c0-.296-.417-1.377-.179-1.555l.18-.178c.297-.237.953.133.953-.223v-.948c0-.297.308-.534.606-.593.716-.178 2.206-.474 4.352-.474 2.146 0 3.637.296 4.352.474.239.06.477.296.477.593l.083.948c0 .356.857-.076 1.095.161.558.391-.155 1.394-.201 1.855-.2 1.99-.343 4.002-.477 6-.178 1.966-1.725 3.337-3.568 3.337h-3.568c-1.903 0-3.39-1.371-3.568-3.338-.156-2.027-.353-4.046-.537-6.059Z"/><path fill="url(#paint30_radial_4002_3274)" d="M10.133 9.491c0-.296-.417-1.377-.179-1.555l.18-.178c.297-.237.953.133.953-.223v-.948c0-.297.308-.534.606-.593.716-.178 2.206-.474 4.352-.474 2.146 0 3.637.296 4.352.474.239.06.477.296.477.593l.083.948c0 .356.857-.076 1.095.161.558.391-.155 1.394-.201 1.855-.2 1.99-.343 4.002-.477 6-.178 1.966-1.725 3.337-3.568 3.337h-3.568c-1.903 0-3.39-1.371-3.568-3.338-.156-2.027-.353-4.046-.537-6.059Z"/><path fill="url(#paint31_radial_4002_3274)" d="M10.133 9.491c0-.296-.417-1.377-.179-1.555l.18-.178c.297-.237.953.133.953-.223v-.948c0-.297.308-.534.606-.593.716-.178 2.206-.474 4.352-.474 2.146 0 3.637.296 4.352.474.239.06.477.296.477.593l.083.948c0 .356.857-.076 1.095.161.558.391-.155 1.394-.201 1.855-.2 1.99-.343 4.002-.477 6-.178 1.966-1.725 3.337-3.568 3.337h-3.568c-1.903 0-3.39-1.371-3.568-3.338-.156-2.027-.353-4.046-.537-6.059Z"/></g><path fill="url(#paint32_linear_4002_3274)" d="M10.133 9.491c0-.296-.417-1.377-.179-1.555l.18-.178c.297-.237.953.133.953-.223v-.948c0-.297.308-.534.606-.593.716-.178 2.206-.474 4.352-.474 2.146 0 3.637.296 4.352.474.239.06.477.296.477.593l.083.948c0 .356.857-.076 1.095.161.558.391-.155 1.394-.201 1.855-.2 1.99-.343 4.002-.477 6-.178 1.966-1.725 3.337-3.568 3.337h-3.568c-1.903 0-3.39-1.371-3.568-3.338-.156-2.027-.353-4.046-.537-6.059Z"/><path fill="url(#paint33_radial_4002_3274)" d="M10.133 9.491c0-.296-.417-1.377-.179-1.555l.18-.178c.297-.237.953.133.953-.223v-.948c0-.297.308-.534.606-.593.716-.178 2.206-.474 4.352-.474 2.146 0 3.637.296 4.352.474.239.06.477.296.477.593l.083.948c0 .356.857-.076 1.095.161.558.391-.155 1.394-.201 1.855-.2 1.99-.343 4.002-.477 6-.178 1.966-1.725 3.337-3.568 3.337h-3.568c-1.903 0-3.39-1.371-3.568-3.338-.156-2.027-.353-4.046-.537-6.059Z"/><path fill="url(#paint34_linear_4002_3274)" d="M10.133 9.491c0-.296-.417-1.377-.179-1.555l.18-.178c.297-.237.953.133.953-.223v-.948c0-.297.308-.534.606-.593.716-.178 2.206-.474 4.352-.474 2.146 0 3.637.296 4.352.474.239.06.477.296.477.593l.083.948c0 .356.857-.076 1.095.161.558.391-.155 1.394-.201 1.855-.2 1.99-.343 4.002-.477 6-.178 1.966-1.725 3.337-3.568 3.337h-3.568c-1.903 0-3.39-1.371-3.568-3.338-.156-2.027-.353-4.046-.537-6.059Z"/><g filter="url(#filter10_f_4002_3274)"><path fill="#C68378" d="m15.69 11.635-.912 1.89c-.114.388.158.776.542.776h.82c.384 0 .655-.394.542-.777l-.554-1.889c-.119-.418-.314-.418-.439 0Z"/></g><g filter="url(#filter11_f_4002_3274)"><path fill="#E4AC8F" d="m15.57 11.454-.59 1.889a.6.6 0 0 0 .578.777h.874c.41 0 .7-.395.579-.777l-.59-1.89c-.127-.418-.718-.418-.85 0Z"/><path fill="url(#paint35_linear_4002_3274)" d="m15.57 11.454-.59 1.889a.6.6 0 0 0 .578.777h.874c.41 0 .7-.395.579-.777l-.59-1.89c-.127-.418-.718-.418-.85 0Z"/><path fill="url(#paint36_linear_4002_3274)" d="m15.57 11.454-.59 1.889a.6.6 0 0 0 .578.777h.874c.41 0 .7-.395.579-.777l-.59-1.89c-.127-.418-.718-.418-.85 0Z"/><path fill="url(#paint37_linear_4002_3274)" d="m15.57 11.454-.59 1.889a.6.6 0 0 0 .578.777h.874c.41 0 .7-.395.579-.777l-.59-1.89c-.127-.418-.718-.418-.85 0Z"/></g><path fill="#88024E" stroke="url(#paint38_linear_4002_3274)" stroke-width=".1" d="M14.479 14.84c.438.229.96.36 1.516.36.562 0 1.079-.131 1.517-.36a.22.22 0 0 1 .262.043.204.204 0 0 1 .022.262m-3.317-.305 3.276.277m-3.276-.277a.22.22 0 0 0-.262.046.202.202 0 0 0-.023.259m.285-.305-.243.277m3.56.028-.041-.028m.041.028-.041-.028m.041.028a2.154 2.154 0 0 1-1.8.962c-.757 0-1.42-.385-1.802-.962m3.56-.028c-.372.564-1.02.94-1.759.94a2.104 2.104 0 0 1-1.76-.94m-.04.028.04-.028m-.04.028.04-.028"/><g filter="url(#filter12_i_4002_3274)"><path fill="#8F6032" d="m20.13 8.748-.002-.001-.002-.002-.005-.004-.013-.01a1.556 1.556 0 0 0-.173-.12 2.867 2.867 0 0 0-.466-.235 3.149 3.149 0 0 0-1.66-.175.593.593 0 1 0 .186 1.171c.442-.07.796.012 1.038.108a1.685 1.685 0 0 1 .342.184.593.593 0 0 0 .754-.916Z"/></g><g filter="url(#filter13_i_4002_3274)"><path fill="#8F6032" d="M11.801 8.748h.001l.001-.001.002-.002.005-.004.013-.01a1.556 1.556 0 0 1 .173-.12 2.8 2.8 0 0 1 .466-.235 3.148 3.148 0 0 1 1.659-.175.593.593 0 1 1-.185 1.171 1.963 1.963 0 0 0-1.038.108 1.685 1.685 0 0 0-.342.184.593.593 0 0 1-.755-.916Z"/></g><path fill="#fff" d="M18.65 10.18c.725 0 1.338.501 1.505 1.177.05.194-.1.379-.298.379h-2.479a.256.256 0 0 1-.253-.302 1.553 1.553 0 0 1 1.524-1.253Z"/><path fill="url(#paint39_radial_4002_3274)" d="M18.42 10.483a.992.992 0 0 1 .955 1.253h-1.916a.996.996 0 0 1 .96-1.253Z"/><path fill="#000" d="M17.851 11.474c0-.315.253-.568.568-.568a.566.566 0 0 1 .505.83h-1.005a.514.514 0 0 1-.068-.262Z"/><g filter="url(#filter14_f_4002_3274)"><path fill="#C7A7A3" d="M18.346 10.693c.07.094-.077.21-.245.335-.168.126-.292.214-.363.12-.07-.095.008-.274.176-.399.168-.126.362-.15.432-.056Z"/><path fill="url(#paint40_radial_4002_3274)" d="M18.346 10.693c.07.094-.077.21-.245.335-.168.126-.292.214-.363.12-.07-.095.008-.274.176-.399.168-.126.362-.15.432-.056Z"/></g><g filter="url(#filter15_f_4002_3274)"><path fill="url(#paint41_linear_4002_3274)" d="M19.303 11.344a.933.933 0 0 0-.258-.514l-.288.317.13.253.416-.056Z"/></g><path fill="#fff" d="M13.336 10.18c-.726 0-1.34.501-1.506 1.177-.05.194.1.38.297.38h2.48a.256.256 0 0 0 .252-.303 1.557 1.557 0 0 0-1.523-1.253Z"/><path fill="url(#paint42_radial_4002_3274)" d="M13.566 10.483a.992.992 0 0 0-.956 1.253h1.916c.022-.086.036-.171.036-.262a.998.998 0 0 0-.996-.991Z"/><path fill="#000" d="M14.134 11.475a.566.566 0 0 0-.568-.569.566.566 0 0 0-.505.83h1.005a.564.564 0 0 0 .068-.261Z"/><g filter="url(#filter16_f_4002_3274)"><path fill="url(#paint43_linear_4002_3274)" d="M14.472 11.358c0-.32-.261-.534-.331-.599l-.32.31.196.402.455-.113Z"/></g><g filter="url(#filter17_f_4002_3274)" transform="rotate(-27.914 13.266 10.907)"><ellipse cx="13.266" cy="10.907" fill="#C7A7A3" fill-opacity=".9" rx=".433" ry=".219"/><ellipse cx="13.266" cy="10.907" fill="url(#paint44_radial_4002_3274)" rx=".433" ry=".219"/></g><g filter="url(#filter18_f_4002_3274)"><path stroke="url(#paint45_linear_4002_3274)" stroke-linecap="round" stroke-width=".25" d="M17.84 8.587c.479-.083 1.411-.06 2.056.443"/></g><g filter="url(#filter19_f_4002_3274)"><path stroke="url(#paint46_linear_4002_3274)" stroke-linecap="round" stroke-width=".25" d="M12.04 9.163c.364-.321 1.158-.66 2.142-.503"/></g><g filter="url(#filter20_i_4002_3274)"><path fill="#ECB895" d="M9.02 6.48c0 .17.01.34.04.52l.51 3.46c.06.34.36.6.71.61 0 0-.07-.98-.11-1.61-.02-.34.11-.66.35-.87l.2-.19c.28-.25.44-.61.44-.99v-.93H9.02Z"/></g><g filter="url(#filter21_i_4002_3274)"><path fill="#F9CDA4" d="M20.82 6.48v.93c0 .38.16.74.44.99l.22.2c.24.22.37.53.35.86-.04.63-.11 1.6-.11 1.6.34-.02.63-.27.69-.61L22.93 7c.03-.17.05-.35.04-.52h-2.15Z"/><path fill="url(#paint47_linear_4002_3274)" d="M20.82 6.48v.93c0 .38.16.74.44.99l.22.2c.24.22.37.53.35.86-.04.63-.11 1.6-.11 1.6.34-.02.63-.27.69-.61L22.93 7c.03-.17.05-.35.04-.52h-2.15Z"/></g><path fill="url(#paint48_radial_4002_3274)" d="M22.97 7.2H9.03l.2-.52a7.238 7.238 0 0 1 13.54 0l.2.52Z"/><path fill="url(#paint49_radial_4002_3274)" d="M22.97 7.2H9.03l.2-.52a7.238 7.238 0 0 1 13.54 0l.2.52Z"/><g filter="url(#filter22_f_4002_3274)"><path fill="url(#paint50_linear_4002_3274)" d="M16 2.076c-.732 0-1.9.832-2.36 3.205h4.72C17.9 2.908 16.733 2.076 16 2.076Z"/></g><path fill="url(#paint51_linear_4002_3274)" d="M16 2c-.699 0-1.814.851-2.254 3.281h4.508C17.814 2.851 16.698 2 16 2Z"/><path fill="url(#paint52_linear_4002_3274)" d="M22.59 8H9.41c-.41 0-.73-.36-.67-.77l.24-1.69c.05-.33.33-.58.67-.58h12.7c.33 0 .62.25.67.58l.24 1.69c.06.41-.26.77-.67.77Z"/><path fill="url(#paint53_linear_4002_3274)" d="M22.59 8H9.41c-.41 0-.73-.36-.67-.77l.24-1.69c.05-.33.33-.58.67-.58h12.7c.33 0 .62.25.67.58l.24 1.69c.06.41-.26.77-.67.77Z"/><path fill="url(#paint54_linear_4002_3274)" d="M22.59 8H9.41c-.41 0-.73-.36-.67-.77l.24-1.69c.05-.33.33-.58.67-.58h12.7c.33 0 .62.25.67.58l.24 1.69c.06.41-.26.77-.67.77Z"/><path fill="url(#paint55_linear_4002_3274)" d="M22.59 8H9.41c-.41 0-.73-.36-.67-.77l.24-1.69c.05-.33.33-.58.67-.58h12.7c.33 0 .62.25.67.58l.24 1.69c.06.41-.26.77-.67.77Z"/><g filter="url(#filter23_f_4002_3274)"><path fill="#3F2950" d="M15.93 7.514a.96.96 0 1 0 0-1.92.96.96 0 0 0 0 1.92Z"/></g><g filter="url(#filter24_i_4002_3274)"><path fill="url(#paint56_radial_4002_3274)" d="M16 7.44a.96.96 0 1 0 0-1.92.96.96 0 0 0 0 1.92Z"/><path fill="url(#paint57_radial_4002_3274)" d="M16 7.44a.96.96 0 1 0 0-1.92.96.96 0 0 0 0 1.92Z"/></g><defs><linearGradient id="paint0_linear_4002_3274" x1="16" x2="16" y1="17.76" y2="30" gradientUnits="userSpaceOnUse"><stop stop-color="#EA3662"/><stop offset="1" stop-color="#FC3C78"/></linearGradient><linearGradient id="paint3_linear_4002_3274" x1="8.072" x2="8.173" y1="30" y2="30" gradientUnits="userSpaceOnUse"><stop stop-color="#D5345B"/><stop offset="1" stop-color="#D5345B" stop-opacity="0"/></linearGradient><linearGradient id="paint4_linear_4002_3274" x1="23.97" x2="23.775" y1="30" y2="30" gradientUnits="userSpaceOnUse"><stop offset=".16" stop-color="#FD3B6F"/><stop offset="1" stop-color="#FD3B6F" stop-opacity="0"/></linearGradient><linearGradient id="paint5_linear_4002_3274" x1="15.99" x2="15.99" y1="18.92" y2="30" gradientUnits="userSpaceOnUse"><stop stop-color="#FFA730"/><stop offset="1" stop-color="#FFA748"/></linearGradient><linearGradient id="paint7_linear_4002_3274" x1="12.08" x2="12.337" y1="19.256" y2="19.256" gradientUnits="userSpaceOnUse"><stop offset=".157" stop-color="#DB9E53"/><stop offset="1" stop-color="#DB9E53" stop-opacity="0"/></linearGradient><linearGradient id="paint11_linear_4002_3274" x1="16" x2="16" y1="24.1" y2="23.27" gradientUnits="userSpaceOnUse"><stop stop-color="#482566"/><stop offset="1" stop-color="#46384C"/></linearGradient><linearGradient id="paint13_linear_4002_3274" x1="16" x2="16" y1="27.05" y2="26.22" gradientUnits="userSpaceOnUse"><stop stop-color="#482566"/><stop offset="1" stop-color="#46384C"/></linearGradient><linearGradient id="paint15_linear_4002_3274" x1="16" x2="16" y1="30" y2="29.169" gradientUnits="userSpaceOnUse"><stop stop-color="#482566"/><stop offset="1" stop-color="#46384C"/></linearGradient><linearGradient id="paint18_linear_4002_3274" x1="8.07" x2="6.009" y1="29.545" y2="29.545" gradientUnits="userSpaceOnUse"><stop stop-color="#BC314F"/><stop offset="1" stop-color="#BC314F" stop-opacity="0"/></linearGradient><linearGradient id="paint23_linear_4002_3274" x1="10.718" x2="10.007" y1="12.081" y2="12.081" gradientUnits="userSpaceOnUse"><stop stop-color="#AF6F5D"/><stop offset="1" stop-color="#B87862"/></linearGradient><linearGradient id="paint24_linear_4002_3274" x1="22.499" x2="21.589" y1="10.558" y2="13.376" gradientUnits="userSpaceOnUse"><stop stop-color="#F5C8A5"/><stop offset="1" stop-color="#DCA189"/></linearGradient><linearGradient id="paint28_linear_4002_3274" x1="20.481" x2="11.993" y1="12.204" y2="13.469" gradientUnits="userSpaceOnUse"><stop stop-color="#FAC39E"/><stop offset="1" stop-color="#C9917C"/></linearGradient><linearGradient id="paint29_linear_4002_3274" x1="9.998" x2="12.569" y1="15.2" y2="14.865" gradientUnits="userSpaceOnUse"><stop stop-color="#D99E84"/><stop offset="1" stop-color="#D99E84" stop-opacity="0"/></linearGradient><linearGradient id="paint32_linear_4002_3274" x1="21.568" x2="19.724" y1="15.446" y2="15.227" gradientUnits="userSpaceOnUse"><stop stop-color="#F4C09B"/><stop offset="1" stop-color="#F4C09B" stop-opacity="0"/></linearGradient><linearGradient id="paint34_linear_4002_3274" x1="16.073" x2="16.073" y1="7.821" y2="8.883" gradientUnits="userSpaceOnUse"><stop stop-color="#B97572"/><stop offset="1" stop-color="#B97572" stop-opacity="0"/></linearGradient><linearGradient id="paint35_linear_4002_3274" x1="15.035" x2="16.078" y1="12.936" y2="12.936" gradientUnits="userSpaceOnUse"><stop stop-color="#CB9173"/><stop offset="1" stop-color="#CB9173" stop-opacity="0"/></linearGradient><linearGradient id="paint36_linear_4002_3274" x1="17.038" x2="15.898" y1="13.295" y2="13.278" gradientUnits="userSpaceOnUse"><stop stop-color="#FEC8A4"/><stop offset="1" stop-color="#FEC8A4" stop-opacity="0"/></linearGradient><linearGradient id="paint37_linear_4002_3274" x1="16.212" x2="16.212" y1="14.12" y2="13.483" gradientUnits="userSpaceOnUse"><stop stop-color="#C98583"/><stop offset="1" stop-color="#C98583" stop-opacity="0"/></linearGradient><linearGradient id="paint38_linear_4002_3274" x1="14.843" x2="15.326" y1="15.915" y2="15.151" gradientUnits="userSpaceOnUse"><stop stop-color="#D79E8E"/><stop offset=".663" stop-color="#D79E8E" stop-opacity="0"/></linearGradient><linearGradient id="paint41_linear_4002_3274" x1="19.282" x2="18.933" y1="11.073" y2="11.288" gradientUnits="userSpaceOnUse"><stop stop-color="#B4948D"/><stop offset="1" stop-color="#B4948D" stop-opacity="0"/></linearGradient><linearGradient id="paint43_linear_4002_3274" x1="14.394" x2="14.046" y1="11.073" y2="11.288" gradientUnits="userSpaceOnUse"><stop stop-color="#B4948D"/><stop offset="1" stop-color="#B4948D" stop-opacity="0"/></linearGradient><linearGradient id="paint45_linear_4002_3274" x1="19.299" x2="18.832" y1="8.695" y2="7.741" gradientUnits="userSpaceOnUse"><stop stop-color="#A57146"/><stop offset="1" stop-color="#A57146" stop-opacity="0"/></linearGradient><linearGradient id="paint46_linear_4002_3274" x1="13.403" x2="12.082" y1="8.553" y2="7.998" gradientUnits="userSpaceOnUse"><stop stop-color="#A57146"/><stop offset="1" stop-color="#A57146" stop-opacity="0"/></linearGradient><linearGradient id="paint47_linear_4002_3274" x1="21.978" x2="22.119" y1="7.669" y2="8.77" gradientUnits="userSpaceOnUse"><stop offset=".25" stop-color="#DFAC8B"/><stop offset="1" stop-color="#DFAC8B" stop-opacity="0"/></linearGradient><linearGradient id="paint50_linear_4002_3274" x1="17.836" x2="14.069" y1="4.134" y2="4.134" gradientUnits="userSpaceOnUse"><stop stop-color="#D62A46"/><stop offset="1" stop-color="#E2526D"/></linearGradient><linearGradient id="paint51_linear_4002_3274" x1="16" x2="16" y1="5.281" y2="2.419" gradientUnits="userSpaceOnUse"><stop stop-color="#3B9C62"/><stop offset="1" stop-color="#499065"/></linearGradient><linearGradient id="paint52_linear_4002_3274" x1="21.29" x2="15.228" y1="7.169" y2="7.169" gradientUnits="userSpaceOnUse"><stop stop-color="#69597A"/><stop offset="1" stop-color="#4B3A5D"/></linearGradient><linearGradient id="paint53_linear_4002_3274" x1="8.733" x2="13.54" y1="6.669" y2="6.669" gradientUnits="userSpaceOnUse"><stop stop-color="#615F64"/><stop offset="1" stop-color="#493F55" stop-opacity="0"/></linearGradient><linearGradient id="paint54_linear_4002_3274" x1="16" x2="16" y1="8" y2="7.482" gradientUnits="userSpaceOnUse"><stop stop-color="#512F64"/><stop offset="1" stop-color="#512F64" stop-opacity="0"/></linearGradient><linearGradient id="paint55_linear_4002_3274" x1="16" x2="16" y1="4.873" y2="5.451" gradientUnits="userSpaceOnUse"><stop stop-color="#493D55"/><stop offset="1" stop-color="#493D55" stop-opacity="0"/></linearGradient><radialGradient id="paint1_radial_4002_3274" cx="0" cy="0" r="1" gradientTransform="matrix(-3.9375 0 0 -14.75 24.04 28.389)" gradientUnits="userSpaceOnUse"><stop stop-color="#FF5E85"/><stop offset="1" stop-color="#FF5E85" stop-opacity="0"/></radialGradient><radialGradient id="paint2_radial_4002_3274" cx="0" cy="0" r="1" gradientTransform="matrix(0 6.53125 -15.795 0 13.603 15.451)" gradientUnits="userSpaceOnUse"><stop offset=".344" stop-color="#C33D4A"/><stop offset="1" stop-color="#C33D4A" stop-opacity="0"/></radialGradient><radialGradient id="paint6_radial_4002_3274" cx="0" cy="0" r="1" gradientTransform="matrix(1.375 2.79687 -2.17043 1.06703 13.26 18.889)" gradientUnits="userSpaceOnUse"><stop stop-color="#B66913"/><stop offset=".726" stop-color="#B66913" stop-opacity="0"/></radialGradient><radialGradient id="paint8_radial_4002_3274" cx="0" cy="0" r="1" gradientTransform="matrix(2.30035 0 0 .39063 15.99 24.014)" gradientUnits="userSpaceOnUse"><stop stop-color="#AE5A24"/><stop offset="1" stop-color="#AE5A24" stop-opacity="0"/></radialGradient><radialGradient id="paint9_radial_4002_3274" cx="0" cy="0" r="1" gradientTransform="matrix(2.34723 0 0 .39859 15.99 26.982)" gradientUnits="userSpaceOnUse"><stop stop-color="#AE5A24"/><stop offset="1" stop-color="#AE5A24" stop-opacity="0"/></radialGradient><radialGradient id="paint10_radial_4002_3274" cx="0" cy="0" r="1" gradientTransform="rotate(-137.428 13.033 6.878) scale(4.7527 9.93354)" gradientUnits="userSpaceOnUse"><stop stop-color="#4E3B4E"/><stop offset="1" stop-color="#2D1728"/></radialGradient><radialGradient id="paint12_radial_4002_3274" cx="0" cy="0" r="1" gradientTransform="matrix(-1.08728 0 0 -.59375 17.087 23.395)" gradientUnits="userSpaceOnUse"><stop stop-color="#5E5065"/><stop offset="1" stop-color="#5E5065" stop-opacity="0"/></radialGradient><radialGradient id="paint14_radial_4002_3274" cx="0" cy="0" r="1" gradientTransform="matrix(-1.08728 0 0 -.59375 17.087 26.345)" gradientUnits="userSpaceOnUse"><stop stop-color="#5E5065"/><stop offset="1" stop-color="#5E5065" stop-opacity="0"/></radialGradient><radialGradient id="paint16_radial_4002_3274" cx="0" cy="0" r="1" gradientTransform="matrix(-1.08728 0 0 -.59375 17.087 29.294)" gradientUnits="userSpaceOnUse"><stop stop-color="#5E5065"/><stop offset="1" stop-color="#5E5065" stop-opacity="0"/></radialGradient><radialGradient id="paint17_radial_4002_3274" cx="0" cy="0" r="1" gradientTransform="matrix(1.875 -8.2678 2.61371 .59275 5.353 30)" gradientUnits="userSpaceOnUse"><stop offset=".269" stop-color="#ED396D"/><stop offset="1" stop-color="#CD4D63"/></radialGradient><radialGradient id="paint19_radial_4002_3274" cx="0" cy="0" r="1" gradientTransform="matrix(0 -6.01779 .46875 0 7.79 30)" gradientUnits="userSpaceOnUse"><stop stop-color="#C03C64"/><stop offset="1" stop-color="#C03C64" stop-opacity="0"/></radialGradient><radialGradient id="paint20_radial_4002_3274" cx="0" cy="0" r="1" gradientTransform="matrix(-1.6563 -8.51778 1.79785 -.3496 26.447 30)" gradientUnits="userSpaceOnUse"><stop offset=".311" stop-color="#FF5783"/><stop offset="1" stop-color="#E4526B"/></radialGradient><radialGradient id="paint21_radial_4002_3274" cx="0" cy="0" r="1" gradientTransform="matrix(.55858 0 0 11.598 23.93 30)" gradientUnits="userSpaceOnUse"><stop offset=".151" stop-color="#E3205C"/><stop offset="1" stop-color="#E3205C" stop-opacity="0"/></radialGradient><radialGradient id="paint22_radial_4002_3274" cx="0" cy="0" r="1" gradientTransform="matrix(1.95037 0 0 3.41317 8.863 11.77)" gradientUnits="userSpaceOnUse"><stop offset=".351" stop-color="#C28775"/><stop offset="1" stop-color="#BA7867"/></radialGradient><radialGradient id="paint25_radial_4002_3274" cx="0" cy="0" r="1" gradientTransform="matrix(.9188 -.66903 .76362 1.0487 21.705 11.476)" gradientUnits="userSpaceOnUse"><stop offset=".543" stop-color="#E3AB88"/><stop offset="1" stop-color="#E3AB88" stop-opacity="0"/></radialGradient><radialGradient id="paint26_radial_4002_3274" cx="0" cy="0" r="1" gradientTransform="matrix(.91276 -1.67882 .98262 .53424 21.246 12.684)" gradientUnits="userSpaceOnUse"><stop offset=".69" stop-color="#D79A76" stop-opacity="0"/><stop offset="1" stop-color="#D79A76"/></radialGradient><radialGradient id="paint27_radial_4002_3274" cx="0" cy="0" r="1" gradientTransform="matrix(.28818 .28525 -.36773 .3715 21.292 11.77)" gradientUnits="userSpaceOnUse"><stop stop-color="#CB8E6D"/><stop offset="1" stop-color="#CB8E6D" stop-opacity="0"/></radialGradient><radialGradient id="paint30_radial_4002_3274" cx="0" cy="0" r="1" gradientTransform="matrix(0 -1.4527 1.78794 0 18.603 10.358)" gradientUnits="userSpaceOnUse"><stop stop-color="#E2A18C"/><stop offset="1" stop-color="#E2A18C" stop-opacity="0"/></radialGradient><radialGradient id="paint31_radial_4002_3274" cx="0" cy="0" r="1" gradientTransform="matrix(0 -1.54582 1.92237 0 13.537 10.32)" gradientUnits="userSpaceOnUse"><stop stop-color="#C2837A"/><stop offset="1" stop-color="#C2837A" stop-opacity="0"/></radialGradient><radialGradient id="paint33_radial_4002_3274" cx="0" cy="0" r="1" gradientTransform="matrix(0 10.831 -15.6072 0 16.519 8.057)" gradientUnits="userSpaceOnUse"><stop offset=".789" stop-color="#C48183" stop-opacity="0"/><stop offset="1" stop-color="#B76769"/></radialGradient><radialGradient id="paint39_radial_4002_3274" cx="0" cy="0" r="1" gradientTransform="matrix(0 1.00378 -1.18773 0 18.417 11.384)" gradientUnits="userSpaceOnUse"><stop offset=".75" stop-color="#925C51"/><stop offset="1" stop-color="#694B43"/><stop offset="1" stop-color="#804D49"/><stop offset="1" stop-color="#85534D"/></radialGradient><radialGradient id="paint40_radial_4002_3274" cx="0" cy="0" r="1" gradientTransform="matrix(-.2577 -.33208 .45719 -.35479 18.163 11.107)" gradientUnits="userSpaceOnUse"><stop offset=".766" stop-color="#FFE6E2" stop-opacity="0"/><stop offset=".966" stop-color="#FFE6E2"/></radialGradient><radialGradient id="paint42_radial_4002_3274" cx="0" cy="0" r="1" gradientTransform="matrix(0 1.00383 -1.18779 0 13.568 11.383)" gradientUnits="userSpaceOnUse"><stop offset=".75" stop-color="#925C51"/><stop offset="1" stop-color="#694B43"/><stop offset="1" stop-color="#804D49"/><stop offset="1" stop-color="#85534D"/></radialGradient><radialGradient id="paint44_radial_4002_3274" cx="0" cy="0" r="1" gradientTransform="matrix(-.0086 -.549 .65992 -.01033 13.25 11.257)" gradientUnits="userSpaceOnUse"><stop offset=".766" stop-color="#FFE6E2" stop-opacity="0"/><stop offset=".966" stop-color="#FFE6E2"/></radialGradient><radialGradient id="paint48_radial_4002_3274" cx="0" cy="0" r="1" gradientTransform="rotate(-132.749 10.772 -1.558) scale(5.06414 4.42603)" gradientUnits="userSpaceOnUse"><stop stop-color="#FF4C7C"/><stop offset="1" stop-color="#D6384D"/></radialGradient><radialGradient id="paint49_radial_4002_3274" cx="0" cy="0" r="1" gradientTransform="rotate(-105.658 10.416 -3.31) scale(4.28399 11.4844)" gradientUnits="userSpaceOnUse"><stop offset=".704" stop-color="#D14752" stop-opacity="0"/><stop offset="1" stop-color="#D14752"/></radialGradient><radialGradient id="paint56_radial_4002_3274" cx="0" cy="0" r="1" gradientTransform="matrix(-1.16967 .60157 -.68916 -1.33998 16.96 6.068)" gradientUnits="userSpaceOnUse"><stop stop-color="#FFDB5A"/><stop offset="1" stop-color="#F6AC3F"/></radialGradient><radialGradient id="paint57_radial_4002_3274" cx="0" cy="0" r="1" gradientTransform="matrix(0 1.56716 -1.70963 0 16 5.873)" gradientUnits="userSpaceOnUse"><stop offset=".568" stop-color="#FAB13F" stop-opacity="0"/><stop offset="1" stop-color="#E0803F"/></radialGradient><filter id="filter0_f_4002_3274" width="8.32" height="12.289" x="11.83" y="17.717" color-interpolation-filters="sRGB" filterUnits="userSpaceOnUse"><feFlood flood-opacity="0" result="BackgroundImageFix"/><feBlend in="SourceGraphic" in2="BackgroundImageFix" result="shape"/><feGaussianBlur result="effect1_foregroundBlur_4002_3274" stdDeviation=".125"/></filter><filter id="filter1_iii_4002_3274" width="8.12" height="13.49" x="11.93" y="16.61" color-interpolation-filters="sRGB" filterUnits="userSpaceOnUse"><feFlood flood-opacity="0" result="BackgroundImageFix"/><feBlend in="SourceGraphic" in2="BackgroundImageFix" result="shape"/><feColorMatrix in="SourceAlpha" result="hardAlpha" values="0 0 0 0 0 0 0 0 0 0 0 0 0 0 0 0 0 0 127 0"/><feOffset dy=".1"/><feGaussianBlur stdDeviation=".1"/><feComposite in2="hardAlpha" k2="-1" k3="1" operator="arithmetic"/><feColorMatrix values="0 0 0 0 0.866667 0 0 0 0 0.533333 0 0 0 0 0.027451 0 0 0 1 0"/><feBlend in2="shape" result="effect1_innerShadow_4002_3274"/><feColorMatrix in="SourceAlpha" result="hardAlpha" values="0 0 0 0 0 0 0 0 0 0 0 0 0 0 0 0 0 0 127 0"/><feOffset dx="-.15"/><feGaussianBlur stdDeviation=".075"/><feComposite in2="hardAlpha" k2="-1" k3="1" operator="arithmetic"/><feColorMatrix values="0 0 0 0 1 0 0 0 0 0.835294 0 0 0 0 0.337255 0 0 0 1 0"/><feBlend in2="effect1_innerShadow_4002_3274" result="effect2_innerShadow_4002_3274"/><feColorMatrix in="SourceAlpha" result="hardAlpha" values="0 0 0 0 0 0 0 0 0 0 0 0 0 0 0 0 0 0 127 0"/><feOffset dx=".15" dy="-.15"/><feGaussianBlur stdDeviation=".075"/><feComposite in2="hardAlpha" k2="-1" k3="1" operator="arithmetic"/><feColorMatrix values="0 0 0 0 0.890196 0 0 0 0 0.533333 0 0 0 0 0.192157 0 0 0 1 0"/><feBlend in2="effect2_innerShadow_4002_3274" result="effect3_innerShadow_4002_3274"/></filter><filter id="filter2_i_4002_3274" width="2.44" height="1.1" x="14.78" y="23.1" color-interpolation-filters="sRGB" filterUnits="userSpaceOnUse"><feFlood flood-opacity="0" result="BackgroundImageFix"/><feBlend in="SourceGraphic" in2="BackgroundImageFix" result="shape"/><feColorMatrix in="SourceAlpha" result="hardAlpha" values="0 0 0 0 0 0 0 0 0 0 0 0 0 0 0 0 0 0 127 0"/><feOffset dy=".1"/><feGaussianBlur stdDeviation=".125"/><feComposite in2="hardAlpha" k2="-1" k3="1" operator="arithmetic"/><feColorMatrix values="0 0 0 0 0.278431 0 0 0 0 0.160784 0 0 0 0 0.239216 0 0 0 1 0"/><feBlend in2="shape" result="effect1_innerShadow_4002_3274"/></filter><filter id="filter3_i_4002_3274" width="2.44" height="1.1" x="14.78" y="26.05" color-interpolation-filters="sRGB" filterUnits="userSpaceOnUse"><feFlood flood-opacity="0" result="BackgroundImageFix"/><feBlend in="SourceGraphic" in2="BackgroundImageFix" result="shape"/><feColorMatrix in="SourceAlpha" result="hardAlpha" values="0 0 0 0 0 0 0 0 0 0 0 0 0 0 0 0 0 0 127 0"/><feOffset dy=".1"/><feGaussianBlur stdDeviation=".125"/><feComposite in2="hardAlpha" k2="-1" k3="1" operator="arithmetic"/><feColorMatrix values="0 0 0 0 0.278431 0 0 0 0 0.160784 0 0 0 0 0.239216 0 0 0 1 0"/><feBlend in2="shape" result="effect1_innerShadow_4002_3274"/></filter><filter id="filter4_i_4002_3274" width="2.44" height="1.1" x="14.78" y="29" color-interpolation-filters="sRGB" filterUnits="userSpaceOnUse"><feFlood flood-opacity="0" result="BackgroundImageFix"/><feBlend in="SourceGraphic" in2="BackgroundImageFix" result="shape"/><feColorMatrix in="SourceAlpha" result="hardAlpha" values="0 0 0 0 0 0 0 0 0 0 0 0 0 0 0 0 0 0 127 0"/><feOffset dy=".1"/><feGaussianBlur stdDeviation=".125"/><feComposite in2="hardAlpha" k2="-1" k3="1" operator="arithmetic"/><feColorMatrix values="0 0 0 0 0.278431 0 0 0 0 0.160784 0 0 0 0 0.239216 0 0 0 1 0"/><feBlend in2="shape" result="effect1_innerShadow_4002_3274"/></filter><filter id="filter5_i_4002_3274" width="3.911" height="3.711" x="8.863" y="9.915" color-interpolation-filters="sRGB" filterUnits="userSpaceOnUse"><feFlood flood-opacity="0" result="BackgroundImageFix"/><feBlend in="SourceGraphic" in2="BackgroundImageFix" result="shape"/><feColorMatrix in="SourceAlpha" result="hardAlpha" values="0 0 0 0 0 0 0 0 0 0 0 0 0 0 0 0 0 0 127 0"/><feOffset dx=".2"/><feGaussianBlur stdDeviation=".2"/><feComposite in2="hardAlpha" k2="-1" k3="1" operator="arithmetic"/><feColorMatrix values="0 0 0 0 0.866667 0 0 0 0 0.643137 0 0 0 0 0.533333 0 0 0 1 0"/><feBlend in2="shape" result="effect1_innerShadow_4002_3274"/></filter><filter id="filter6_f_4002_3274" width="3.212" height="3.212" x="9.113" y="10.165" color-interpolation-filters="sRGB" filterUnits="userSpaceOnUse"><feFlood flood-opacity="0" result="BackgroundImageFix"/><feBlend in="SourceGraphic" in2="BackgroundImageFix" result="shape"/><feGaussianBlur result="effect1_foregroundBlur_4002_3274" stdDeviation=".25"/></filter><filter id="filter7_i_4002_3274" width="3.961" height="3.961" x="19.436" y="9.665" color-interpolation-filters="sRGB" filterUnits="userSpaceOnUse"><feFlood flood-opacity="0" result="BackgroundImageFix"/><feBlend in="SourceGraphic" in2="BackgroundImageFix" result="shape"/><feColorMatrix in="SourceAlpha" result="hardAlpha" values="0 0 0 0 0 0 0 0 0 0 0 0 0 0 0 0 0 0 127 0"/><feOffset dx=".25" dy="-.25"/><feGaussianBlur stdDeviation=".25"/><feComposite in2="hardAlpha" k2="-1" k3="1" operator="arithmetic"/><feColorMatrix values="0 0 0 0 0.768627 0 0 0 0 0.529412 0 0 0 0 0.505882 0 0 0 1 0"/><feBlend in2="shape" result="effect1_innerShadow_4002_3274"/></filter><filter id="filter8_f_4002_3274" width="3.212" height="3.212" x="19.686" y="10.165" color-interpolation-filters="sRGB" filterUnits="userSpaceOnUse"><feFlood flood-opacity="0" result="BackgroundImageFix"/><feBlend in="SourceGraphic" in2="BackgroundImageFix" result="shape"/><feGaussianBlur result="effect1_foregroundBlur_4002_3274" stdDeviation=".25"/></filter><filter id="filter9_i_4002_3274" width="12.384" height="13.518" x="9.881" y="5.52" color-interpolation-filters="sRGB" filterUnits="userSpaceOnUse"><feFlood flood-opacity="0" result="BackgroundImageFix"/><feBlend in="SourceGraphic" in2="BackgroundImageFix" result="shape"/><feColorMatrix in="SourceAlpha" result="hardAlpha" values="0 0 0 0 0 0 0 0 0 0 0 0 0 0 0 0 0 0 127 0"/><feOffset dy=".15"/><feGaussianBlur stdDeviation=".15"/><feComposite in2="hardAlpha" k2="-1" k3="1" operator="arithmetic"/><feColorMatrix values="0 0 0 0 0.752941 0 0 0 0 0.501961 0 0 0 0 0.34902 0 0 0 1 0"/><feBlend in2="shape" result="effect1_innerShadow_4002_3274"/></filter><filter id="filter10_f_4002_3274" width="3.456" height="4.48" x="14.002" y="10.572" color-interpolation-filters="sRGB" filterUnits="userSpaceOnUse"><feFlood flood-opacity="0" result="BackgroundImageFix"/><feBlend in="SourceGraphic" in2="BackgroundImageFix" result="shape"/><feGaussianBlur result="effect1_foregroundBlur_4002_3274" stdDeviation=".375"/></filter><filter id="filter11_f_4002_3274" width="2.586" height="3.48" x="14.702" y="10.89" color-interpolation-filters="sRGB" filterUnits="userSpaceOnUse"><feFlood flood-opacity="0" result="BackgroundImageFix"/><feBlend in="SourceGraphic" in2="BackgroundImageFix" result="shape"/><feGaussianBlur result="effect1_foregroundBlur_4002_3274" stdDeviation=".125"/></filter><filter id="filter12_i_4002_3274" width="3.284" height="2.037" x="17.309" y="7.76" color-interpolation-filters="sRGB" filterUnits="userSpaceOnUse"><feFlood flood-opacity="0" result="BackgroundImageFix"/><feBlend in="SourceGraphic" in2="BackgroundImageFix" result="shape"/><feColorMatrix in="SourceAlpha" result="hardAlpha" values="0 0 0 0 0 0 0 0 0 0 0 0 0 0 0 0 0 0 127 0"/><feOffset dx=".25" dy="-.4"/><feGaussianBlur stdDeviation=".3"/><feComposite in2="hardAlpha" k2="-1" k3="1" operator="arithmetic"/><feColorMatrix values="0 0 0 0 0.47451 0 0 0 0 0.262745 0 0 0 0 0.168627 0 0 0 1 0"/><feBlend in2="shape" result="effect1_innerShadow_4002_3274"/></filter><filter id="filter13_i_4002_3274" width="3.284" height="2.037" x="11.588" y="7.76" color-interpolation-filters="sRGB" filterUnits="userSpaceOnUse"><feFlood flood-opacity="0" result="BackgroundImageFix"/><feBlend in="SourceGraphic" in2="BackgroundImageFix" result="shape"/><feColorMatrix in="SourceAlpha" result="hardAlpha" values="0 0 0 0 0 0 0 0 0 0 0 0 0 0 0 0 0 0 127 0"/><feOffset dx=".25" dy="-.4"/><feGaussianBlur stdDeviation=".3"/><feComposite in2="hardAlpha" k2="-1" k3="1" operator="arithmetic"/><feColorMatrix values="0 0 0 0 0.47451 0 0 0 0 0.262745 0 0 0 0 0.168627 0 0 0 1 0"/><feBlend in2="shape" result="effect1_innerShadow_4002_3274"/></filter><filter id="filter14_f_4002_3274" width=".852" height=".752" x="17.612" y="10.536" color-interpolation-filters="sRGB" filterUnits="userSpaceOnUse"><feFlood flood-opacity="0" result="BackgroundImageFix"/><feBlend in="SourceGraphic" in2="BackgroundImageFix" result="shape"/><feGaussianBlur result="effect1_foregroundBlur_4002_3274" stdDeviation=".05"/></filter><filter id="filter15_f_4002_3274" width=".946" height=".971" x="18.557" y="10.63" color-interpolation-filters="sRGB" filterUnits="userSpaceOnUse"><feFlood flood-opacity="0" result="BackgroundImageFix"/><feBlend in="SourceGraphic" in2="BackgroundImageFix" result="shape"/><feGaussianBlur result="effect1_foregroundBlur_4002_3274" stdDeviation=".1"/></filter><filter id="filter16_f_4002_3274" width="1.052" height="1.111" x="13.62" y="10.559" color-interpolation-filters="sRGB" filterUnits="userSpaceOnUse"><feFlood flood-opacity="0" result="BackgroundImageFix"/><feBlend in="SourceGraphic" in2="BackgroundImageFix" result="shape"/><feGaussianBlur result="effect1_foregroundBlur_4002_3274" stdDeviation=".1"/></filter><filter id="filter17_f_4002_3274" width=".992" height=".761" x="12.77" y="10.527" color-interpolation-filters="sRGB" filterUnits="userSpaceOnUse"><feFlood flood-opacity="0" result="BackgroundImageFix"/><feBlend in="SourceGraphic" in2="BackgroundImageFix" result="shape"/><feGaussianBlur result="effect1_foregroundBlur_4002_3274" stdDeviation=".05"/></filter><filter id="filter18_f_4002_3274" width="3.305" height="1.729" x="17.216" y="7.926" color-interpolation-filters="sRGB" filterUnits="userSpaceOnUse"><feFlood flood-opacity="0" result="BackgroundImageFix"/><feBlend in="SourceGraphic" in2="BackgroundImageFix" result="shape"/><feGaussianBlur result="effect1_foregroundBlur_4002_3274" stdDeviation=".25"/></filter><filter id="filter19_f_4002_3274" width="3.392" height="1.792" x="11.415" y="7.996" color-interpolation-filters="sRGB" filterUnits="userSpaceOnUse"><feFlood flood-opacity="0" result="BackgroundImageFix"/><feBlend in="SourceGraphic" in2="BackgroundImageFix" result="shape"/><feGaussianBlur result="effect1_foregroundBlur_4002_3274" stdDeviation=".25"/></filter><filter id="filter20_i_4002_3274" width="2.54" height="4.59" x="8.62" y="6.48" color-interpolation-filters="sRGB" filterUnits="userSpaceOnUse"><feFlood flood-opacity="0" result="BackgroundImageFix"/><feBlend in="SourceGraphic" in2="BackgroundImageFix" result="shape"/><feColorMatrix in="SourceAlpha" result="hardAlpha" values="0 0 0 0 0 0 0 0 0 0 0 0 0 0 0 0 0 0 127 0"/><feOffset dx="-.4"/><feGaussianBlur stdDeviation=".2"/><feComposite in2="hardAlpha" k2="-1" k3="1" operator="arithmetic"/><feColorMatrix values="0 0 0 0 0.803922 0 0 0 0 0.580392 0 0 0 0 0.517647 0 0 0 1 0"/><feBlend in2="shape" result="effect1_innerShadow_4002_3274"/></filter><filter id="filter21_i_4002_3274" width="2.403" height="4.58" x="20.82" y="6.48" color-interpolation-filters="sRGB" filterUnits="userSpaceOnUse"><feFlood flood-opacity="0" result="BackgroundImageFix"/><feBlend in="SourceGraphic" in2="BackgroundImageFix" result="shape"/><feColorMatrix in="SourceAlpha" result="hardAlpha" values="0 0 0 0 0 0 0 0 0 0 0 0 0 0 0 0 0 0 127 0"/><feOffset dx=".25"/><feGaussianBlur stdDeviation=".2"/><feComposite in2="hardAlpha" k2="-1" k3="1" operator="arithmetic"/><feColorMatrix values="0 0 0 0 0.886275 0 0 0 0 0.67451 0 0 0 0 0.498039 0 0 0 1 0"/><feBlend in2="shape" result="effect1_innerShadow_4002_3274"/></filter><filter id="filter22_f_4002_3274" width="5.021" height="3.505" x="13.489" y="1.926" color-interpolation-filters="sRGB" filterUnits="userSpaceOnUse"><feFlood flood-opacity="0" result="BackgroundImageFix"/><feBlend in="SourceGraphic" in2="BackgroundImageFix" result="shape"/><feGaussianBlur result="effect1_foregroundBlur_4002_3274" stdDeviation=".075"/></filter><filter id="filter23_f_4002_3274" width="2.42" height="2.42" x="14.72" y="5.344" color-interpolation-filters="sRGB" filterUnits="userSpaceOnUse"><feFlood flood-opacity="0" result="BackgroundImageFix"/><feBlend in="SourceGraphic" in2="BackgroundImageFix" result="shape"/><feGaussianBlur result="effect1_foregroundBlur_4002_3274" stdDeviation=".125"/></filter><filter id="filter24_i_4002_3274" width="1.97" height="1.97" x="15.04" y="5.52" color-interpolation-filters="sRGB" filterUnits="userSpaceOnUse"><feFlood flood-opacity="0" result="BackgroundImageFix"/><feBlend in="SourceGraphic" in2="BackgroundImageFix" result="shape"/><feColorMatrix in="SourceAlpha" result="hardAlpha" values="0 0 0 0 0 0 0 0 0 0 0 0 0 0 0 0 0 0 127 0"/><feOffset dx=".05" dy=".05"/><feGaussianBlur stdDeviation=".1"/><feComposite in2="hardAlpha" k2="-1" k3="1" operator="arithmetic"/><feColorMatrix values="0 0 0 0 0.843137 0 0 0 0 0.631373 0 0 0 0 0.215686 0 0 0 1 0"/><feBlend in2="shape" result="effect1_innerShadow_4002_3274"/></filter></defs></svg>