<svg xmlns="http://www.w3.org/2000/svg" width="32" height="32" fill="none" viewBox="0 0 32 32"><path fill="url(#paint0_linear_18_32395)" d="M17 2h-2v6h2V2Z"/><path fill="#B4DBFF" d="m7.2 11 .3.25h17l.3-.25.2-2-.2-.25H7.2L7 9l.2 2Z"/><path fill="url(#paint1_linear_18_32395)" d="m7.2 11 .3.25h17l.3-.25.2-2-.2-.25H7.2L7 9l.2 2Z"/><path fill="url(#paint2_linear_18_32395)" d="m7.2 11 .3.25h17l.3-.25.2-2-.2-.25H7.2L7 9l.2 2Z"/><path stroke="#A0C9FF" stroke-linecap="round" stroke-linejoin="round" stroke-width="2" d="M7 8h18"/><path stroke="url(#paint3_radial_18_32395)" stroke-linecap="round" stroke-linejoin="round" stroke-width="2" d="M7 8h18"/><path stroke="url(#paint4_radial_18_32395)" stroke-linecap="round" stroke-linejoin="round" stroke-width="2" d="M7 8h18"/><path stroke="url(#paint5_radial_18_32395)" stroke-linecap="round" stroke-linejoin="round" stroke-width="2" d="M7 8h18"/><path stroke="url(#paint6_linear_18_32395)" stroke-linecap="round" stroke-linejoin="round" stroke-width="2" d="M7 8h18"/><path fill="#EB9C5B" d="M7.2 11 9 29c.076.563.5 1 1 1h12c.5 0 .903-.395 1-1l1.8-18H7.2Z"/><path fill="url(#paint7_radial_18_32395)" d="M7.2 11 9 29c.076.563.5 1 1 1h12c.5 0 .903-.395 1-1l1.8-18H7.2Z"/><path fill="url(#paint8_radial_18_32395)" d="M7.2 11 9 29c.076.563.5 1 1 1h12c.5 0 .903-.395 1-1l1.8-18H7.2Z"/><path fill="url(#paint9_radial_18_32395)" d="M7.2 11 9 29c.076.563.5 1 1 1h12c.5 0 .903-.395 1-1l1.8-18H7.2Z"/><path fill="url(#paint10_radial_18_32395)" d="M18.59 25.808a1.31 1.31 0 1 0 0-2.62 1.31 1.31 0 0 0 0 2.62Z"/><path fill="url(#paint11_radial_18_32395)" d="M18.59 25.808a1.31 1.31 0 1 0 0-2.62 1.31 1.31 0 0 0 0 2.62Z"/><path fill="url(#paint12_radial_18_32395)" d="M13.444 25.808a1.31 1.31 0 1 0 0-2.62 1.31 1.31 0 0 0 0 2.62Z"/><path fill="url(#paint13_radial_18_32395)" d="M13.444 25.808a1.31 1.31 0 1 0 0-2.62 1.31 1.31 0 0 0 0 2.62Z"/><path fill="url(#paint14_radial_18_32395)" d="M20.442 28.733a1.31 1.31 0 1 0 0-2.62 1.31 1.31 0 0 0 0 2.62Z"/><path fill="url(#paint15_radial_18_32395)" d="M20.442 28.733a1.31 1.31 0 1 0 0-2.62 1.31 1.31 0 0 0 0 2.62Z"/><path fill="url(#paint16_radial_18_32395)" d="M15.97 28.733a1.31 1.31 0 1 0 0-2.62 1.31 1.31 0 0 0 0 2.62Z"/><path fill="url(#paint17_radial_18_32395)" d="M15.97 28.733a1.31 1.31 0 1 0 0-2.62 1.31 1.31 0 0 0 0 2.62Z"/><path fill="url(#paint18_radial_18_32395)" d="M11.498 28.733a1.31 1.31 0 1 0 0-2.62 1.31 1.31 0 0 0 0 2.62Z"/><path fill="url(#paint19_radial_18_32395)" d="M11.498 28.733a1.31 1.31 0 1 0 0-2.62 1.31 1.31 0 0 0 0 2.62Z"/><path fill="#9679BB" d="M17 9h-2v2h2V9Z" opacity=".75"/><path fill="url(#paint20_linear_18_32395)" d="M17 9h-2v2h2V9Z"/><path fill="#BCA4EB" d="M17 7h-2v2h2V7Z" opacity=".75"/><path fill="url(#paint21_linear_18_32395)" d="M17 7h-2v2h2V7Z"/><path fill="url(#paint22_linear_18_32395)" d="M17 7h-2v2h2V7Z"/><path fill="url(#paint23_linear_18_32395)" d="M17 7h-2v2h2V7Z"/><path fill="url(#paint24_radial_18_32395)" d="M17 7h-2v2h2V7Z"/><path fill="url(#paint25_linear_18_32395)" d="m20.044 23.611.99-9.701a1 1 0 0 1 .99-.91c.58 0 1.04.5.99 1.08l-.99 9.701c-.04.52-.47.91-.99.91-.58 0-1.04-.5-.99-1.08Z"/><defs><radialGradient id="paint3_radial_18_32395" cx="0" cy="0" r="1" gradientTransform="rotate(87.274 6.955 15.3) scale(.65699 9.32937)" gradientUnits="userSpaceOnUse"><stop offset=".193" stop-color="#CEF7FF"/><stop offset="1" stop-color="#CEF7FF" stop-opacity="0"/></radialGradient><radialGradient id="paint4_radial_18_32395" cx="0" cy="0" r="1" gradientTransform="matrix(.01563 .78125 -13.32996 .26665 10.187 8.187)" gradientUnits="userSpaceOnUse"><stop offset=".193" stop-color="#C1E5FF"/><stop offset=".573" stop-color="#AED6FE"/><stop offset="1" stop-color="#A9D2FB" stop-opacity="0"/></radialGradient><radialGradient id="paint5_radial_18_32395" cx="0" cy="0" r="1" gradientTransform="matrix(0 4.75 -11.4375 0 16 8)" gradientUnits="userSpaceOnUse"><stop offset=".645" stop-color="#A8C1E0" stop-opacity="0"/><stop offset=".868" stop-color="#A3C4E9"/></radialGradient><radialGradient id="paint7_radial_18_32395" cx="0" cy="0" r="1" gradientTransform="matrix(-1.00001 35.87497 -14.49567 -.40407 20.5 17.375)" gradientUnits="userSpaceOnUse"><stop offset=".029" stop-color="#FFBB85"/><stop offset=".277" stop-color="#F5A07F"/><stop offset="1" stop-color="#DA8664" stop-opacity="0"/></radialGradient><radialGradient id="paint8_radial_18_32395" cx="0" cy="0" r="1" gradientTransform="matrix(0 9.125 -27.375 0 21.375 26.75)" gradientUnits="userSpaceOnUse"><stop stop-color="#FFD4A4"/><stop offset="1" stop-color="#FFB09B" stop-opacity="0"/></radialGradient><radialGradient id="paint9_radial_18_32395" cx="0" cy="0" r="1" gradientTransform="matrix(-.50009 20.37496 -14.00078 -.34364 4.875 11.75)" gradientUnits="userSpaceOnUse"><stop stop-color="#C77F51"/><stop offset="1" stop-color="#CC7C4A" stop-opacity="0"/></radialGradient><radialGradient id="paint10_radial_18_32395" cx="0" cy="0" r="1" gradientTransform="rotate(137.021 4.843 15.785) scale(1.87942)" gradientUnits="userSpaceOnUse"><stop stop-color="#9D6F6C"/><stop offset=".95" stop-color="#774A43"/></radialGradient><radialGradient id="paint11_radial_18_32395" cx="0" cy="0" r="1" gradientTransform="matrix(0 1.375 -1.95293 0 18.59 25.625)" gradientUnits="userSpaceOnUse"><stop stop-color="#803863"/><stop offset="1" stop-color="#854460" stop-opacity="0"/></radialGradient><radialGradient id="paint12_radial_18_32395" cx="0" cy="0" r="1" gradientTransform="rotate(137.021 2.27 14.772) scale(1.87942)" gradientUnits="userSpaceOnUse"><stop stop-color="#9D6F6C"/><stop offset=".95" stop-color="#774A43"/></radialGradient><radialGradient id="paint13_radial_18_32395" cx="0" cy="0" r="1" gradientTransform="matrix(0 1.375 -1.95293 0 13.444 25.625)" gradientUnits="userSpaceOnUse"><stop stop-color="#803863"/><stop offset="1" stop-color="#854460" stop-opacity="0"/></radialGradient><radialGradient id="paint14_radial_18_32395" cx="0" cy="0" r="1" gradientTransform="rotate(137.021 5.193 17.612) scale(1.87942)" gradientUnits="userSpaceOnUse"><stop stop-color="#9D6F6C"/><stop offset=".95" stop-color="#774A43"/></radialGradient><radialGradient id="paint15_radial_18_32395" cx="0" cy="0" r="1" gradientTransform="matrix(0 1.375 -1.95293 0 20.442 28.55)" gradientUnits="userSpaceOnUse"><stop stop-color="#803863"/><stop offset="1" stop-color="#854460" stop-opacity="0"/></radialGradient><radialGradient id="paint16_radial_18_32395" cx="0" cy="0" r="1" gradientTransform="rotate(137.021 2.957 16.731) scale(1.87942)" gradientUnits="userSpaceOnUse"><stop stop-color="#9D6F6C"/><stop offset=".95" stop-color="#774A43"/></radialGradient><radialGradient id="paint17_radial_18_32395" cx="0" cy="0" r="1" gradientTransform="matrix(0 1.375 -1.95293 0 15.97 28.55)" gradientUnits="userSpaceOnUse"><stop stop-color="#803863"/><stop offset="1" stop-color="#854460" stop-opacity="0"/></radialGradient><radialGradient id="paint18_radial_18_32395" cx="0" cy="0" r="1" gradientTransform="rotate(137.021 .72 15.85) scale(1.87942)" gradientUnits="userSpaceOnUse"><stop stop-color="#9D6F6C"/><stop offset=".95" stop-color="#774A43"/></radialGradient><radialGradient id="paint19_radial_18_32395" cx="0" cy="0" r="1" gradientTransform="matrix(0 1.375 -1.95293 0 11.498 28.55)" gradientUnits="userSpaceOnUse"><stop stop-color="#803863"/><stop offset="1" stop-color="#854460" stop-opacity="0"/></radialGradient><radialGradient id="paint24_radial_18_32395" cx="0" cy="0" r="1" gradientTransform="matrix(.03906 .59375 -5.76702 .3794 15.961 8.046)" gradientUnits="userSpaceOnUse"><stop stop-color="#B398DC"/><stop offset="1" stop-color="#B197D9" stop-opacity="0"/></radialGradient><linearGradient id="paint0_linear_18_32395" x1="15" x2="17" y1="5.719" y2="5.719" gradientUnits="userSpaceOnUse"><stop stop-color="#785FAB"/><stop offset=".266" stop-color="#7D5EB4"/><stop offset=".711" stop-color="#A081D7"/><stop offset="1" stop-color="#9C7ED5"/></linearGradient><linearGradient id="paint1_linear_18_32395" x1="7" x2="8.469" y1="10.375" y2="10.219" gradientUnits="userSpaceOnUse"><stop stop-color="#A1BDDB"/><stop offset="1" stop-color="#A1C2E5" stop-opacity="0"/></linearGradient><linearGradient id="paint2_linear_18_32395" x1="25" x2="23.594" y1="10" y2="9.859" gradientUnits="userSpaceOnUse"><stop stop-color="#A1BDDB"/><stop offset="1" stop-color="#A1C2E5" stop-opacity="0"/></linearGradient><linearGradient id="paint6_linear_18_32395" x1="16" x2="16" y1="8.516" y2="9" gradientUnits="userSpaceOnUse"><stop stop-color="#99B7E6" stop-opacity="0"/><stop offset="1" stop-color="#9AB7E8"/></linearGradient><linearGradient id="paint20_linear_18_32395" x1="15" x2="17" y1="10.24" y2="10.24" gradientUnits="userSpaceOnUse"><stop stop-color="#9782BA"/><stop offset=".266" stop-color="#9678BC"/><stop offset=".711" stop-color="#AB8DD6"/><stop offset="1" stop-color="#A794DB"/></linearGradient><linearGradient id="paint21_linear_18_32395" x1="15" x2="17" y1="8.24" y2="8.24" gradientUnits="userSpaceOnUse"><stop stop-color="#9782BA"/><stop offset=".266" stop-color="#9678BC"/><stop offset=".711" stop-color="#AB8DD6"/><stop offset="1" stop-color="#A794DB"/></linearGradient><linearGradient id="paint22_linear_18_32395" x1="16" x2="16" y1="6.781" y2="7.219" gradientUnits="userSpaceOnUse"><stop stop-color="#AB98CA"/><stop offset="1" stop-color="#BDACDA" stop-opacity="0"/></linearGradient><linearGradient id="paint23_linear_18_32395" x1="15.98" x2="15.961" y1="8.828" y2="9.059" gradientUnits="userSpaceOnUse"><stop stop-color="#8563A9" stop-opacity="0"/><stop offset="1" stop-color="#8965AF"/></linearGradient><linearGradient id="paint25_linear_18_32395" x1="21.459" x2="21.459" y1="13" y2="28" gradientUnits="userSpaceOnUse"><stop stop-color="#FFFFFA"/><stop offset=".829" stop-color="#FFFFFA" stop-opacity="0"/></linearGradient></defs></svg>