<svg xmlns="http://www.w3.org/2000/svg" width="32" height="32" fill="none" viewBox="0 0 32 32"><g filter="url(#filter0_ii_18_10719)"><path fill="url(#paint0_linear_18_10719)" d="M30 18c0 .55-.45 1-1 1H16.97v-2H29c.55 0 1 .45 1 1Z"/></g><g filter="url(#filter1_i_18_10719)"><path fill="url(#paint1_linear_18_10719)" d="M4.675 19a1 1 0 0 0 .804-.404l4.928-6.647a2 2 0 0 1 1.607-.808h3.49a1.5 1.5 0 0 1 1.499 1.488l.049 6.123a.25.25 0 0 0 .25.248H28.71a.25.25 0 0 1 .25.25V21l-1 1 1 1v2.65c0 .75-.61 1.35-1.35 1.35H3.32c-.75 0-1.35-.6-1.35-1.35V24l1.47-1.4L1.97 21c0-1.1.9-2 2-2h.705Z"/><path fill="url(#paint2_linear_18_10719)" d="M4.675 19a1 1 0 0 0 .804-.404l4.928-6.647a2 2 0 0 1 1.607-.808h3.49a1.5 1.5 0 0 1 1.499 1.488l.049 6.123a.25.25 0 0 0 .25.248H28.71a.25.25 0 0 1 .25.25V21l-1 1 1 1v2.65c0 .75-.61 1.35-1.35 1.35H3.32c-.75 0-1.35-.6-1.35-1.35V24l1.47-1.4L1.97 21c0-1.1.9-2 2-2h.705Z"/><path fill="url(#paint3_linear_18_10719)" d="M4.675 19a1 1 0 0 0 .804-.404l4.928-6.647a2 2 0 0 1 1.607-.808h3.49a1.5 1.5 0 0 1 1.499 1.488l.049 6.123a.25.25 0 0 0 .25.248H28.71a.25.25 0 0 1 .25.25V21l-1 1 1 1v2.65c0 .75-.61 1.35-1.35 1.35H3.32c-.75 0-1.35-.6-1.35-1.35V24l1.47-1.4L1.97 21c0-1.1.9-2 2-2h.705Z"/></g><g filter="url(#filter2_f_18_10719)"><path stroke="#F95963" stroke-linecap="round" stroke-width=".5" d="M15.666 11.936c.291-.014.694.242.694.892v7.237"/></g><path fill="url(#paint4_linear_18_10719)" d="M28.71 19a.25.25 0 0 1 .25.25v6.4c0 .75-.61 1.35-1.35 1.35H3.32c-.75 0-1.35-.6-1.35-1.35V21c0-1.1.9-2 2-2h24.74Z"/><path fill="url(#paint5_linear_18_10719)" d="M28.71 19a.25.25 0 0 1 .25.25v6.4c0 .75-.61 1.35-1.35 1.35H3.32c-.75 0-1.35-.6-1.35-1.35V21c0-1.1.9-2 2-2h24.74Z"/><path fill="url(#paint6_linear_18_10719)" d="M28.71 19a.25.25 0 0 1 .25.25v6.4c0 .75-.61 1.35-1.35 1.35H3.32c-.75 0-1.35-.6-1.35-1.35V21c0-1.1.9-2 2-2h24.74Z"/><path fill="url(#paint7_linear_18_10719)" d="M28.71 19a.25.25 0 0 1 .25.25v6.4c0 .75-.61 1.35-1.35 1.35H3.32c-.75 0-1.35-.6-1.35-1.35V21c0-1.1.9-2 2-2h24.74Z"/><path fill="url(#paint8_radial_18_10719)" d="M28.71 19a.25.25 0 0 1 .25.25v6.4c0 .75-.61 1.35-1.35 1.35H3.32c-.75 0-1.35-.6-1.35-1.35V21c0-1.1.9-2 2-2h24.74Z"/><path fill="url(#paint9_linear_18_10719)" d="M3.637 27h7.646a3.87 3.87 0 1 0-7.645 0Z"/><g filter="url(#filter3_f_18_10719)"><path fill="url(#paint10_linear_18_10719)" d="M3.96 19.854h23.999v.62H3.96z"/></g><g filter="url(#filter4_f_18_10719)"><path fill="url(#paint11_linear_18_10719)" d="M9.67 18.697c.006-.292.349-.95.77-1.297.272-.225.704-.275 1.058-.246.295.023.474.286.474.573v1.94c0 .287-.179.55-.474.573-.354.029-.786-.021-1.058-.246-.503-.327-.764-1.005-.77-1.297Z"/></g><path fill="url(#paint12_linear_18_10719)" d="M19.637 27h7.645a3.87 3.87 0 1 0-7.645 0Z"/><g filter="url(#filter5_ii_18_10719)"><path fill="url(#paint13_linear_18_10719)" d="M7.46 30a3.5 3.5 0 1 0 0-7 3.5 3.5 0 0 0 0 7Z"/><path fill="url(#paint14_radial_18_10719)" d="M7.46 30a3.5 3.5 0 1 0 0-7 3.5 3.5 0 0 0 0 7Z"/></g><g filter="url(#filter6_ii_18_10719)"><path fill="#D9C3F0" d="M7.46 28a1.5 1.5 0 1 0 0-3 1.5 1.5 0 0 0 0 3Z"/></g><g filter="url(#filter7_ii_18_10719)"><path fill="url(#paint15_linear_18_10719)" d="M23.46 30a3.5 3.5 0 1 0 0-7 3.5 3.5 0 0 0 0 7Z"/><path fill="url(#paint16_radial_18_10719)" d="M23.46 30a3.5 3.5 0 1 0 0-7 3.5 3.5 0 0 0 0 7Z"/></g><g filter="url(#filter8_ii_18_10719)"><path fill="#D9C3F0" d="M23.46 28a1.5 1.5 0 1 0 0-3 1.5 1.5 0 0 0 0 3Z"/></g><path fill="url(#paint17_linear_18_10719)" d="M28.96 21h-.5c-.85 0-1.54.71-1.5 1.57.04.81.74 1.43 1.55 1.43h.45v-3Z"/><path fill="url(#paint18_radial_18_10719)" d="M2.87 24h-.91v-3h.91c.6 0 1.09.49 1.09 1.09v.82c0 .6-.49 1.09-1.09 1.09Z"/><g filter="url(#filter9_f_18_10719)"><circle cx="7.702" cy="26.335" r="2.521" stroke="url(#paint19_linear_18_10719)" stroke-width=".85"/></g><g filter="url(#filter10_f_18_10719)"><circle cx="23.485" cy="26.335" r="2.521" stroke="url(#paint20_linear_18_10719)" stroke-width=".85"/></g><g filter="url(#filter11_i_18_10719)"><path fill="url(#paint21_linear_18_10719)" fill-rule="evenodd" d="M5.479 18.596a1 1 0 0 1-.804.404H12.1c.48 0 .86-.38.86-.86V13.9c0-.5-.4-.9-.9-.9H9.628l-4.15 5.596Z" clip-rule="evenodd"/></g><path fill="url(#paint22_radial_18_10719)" d="M10.223 18.491c.005-.292.07-.95.492-1.297.272-.224.704-.274 1.058-.246.295.024.473.286.473.573v1.94c0 .288-.178.55-.473.574-.354.028-.786-.022-1.058-.246-.422-.348-.487-1.005-.492-1.298Z"/><path fill="url(#paint23_linear_18_10719)" d="M10.223 18.491c.005-.292.07-.95.492-1.297.272-.224.704-.274 1.058-.246.295.024.473.286.473.573v1.94c0 .288-.178.55-.473.574-.354.028-.786-.022-1.058-.246-.422-.348-.487-1.005-.492-1.298Z"/><defs><linearGradient id="paint0_linear_18_10719" x1="29.997" x2="16.963" y1="18.002" y2="18.002" gradientUnits="userSpaceOnUse"><stop stop-color="#3D2E42"/><stop offset="1" stop-color="#3F2D52"/></linearGradient><linearGradient id="paint1_linear_18_10719" x1="6.71" x2="17.585" y1="17.25" y2="17.25" gradientUnits="userSpaceOnUse"><stop stop-color="#D8445D"/><stop offset="1" stop-color="#E24658"/></linearGradient><linearGradient id="paint2_linear_18_10719" x1="17.272" x2="16.162" y1="17.476" y2="17.476" gradientUnits="userSpaceOnUse"><stop stop-color="#D82533"/><stop offset="1" stop-color="#D82533" stop-opacity="0"/></linearGradient><linearGradient id="paint3_linear_18_10719" x1="14.54" x2="14.54" y1="19.162" y2="18.597" gradientUnits="userSpaceOnUse"><stop stop-color="#DF1A39"/><stop offset="1" stop-color="#DF1A39" stop-opacity="0"/></linearGradient><linearGradient id="paint4_linear_18_10719" x1="1.963" x2="23.317" y1="23.002" y2="23.002" gradientUnits="userSpaceOnUse"><stop stop-color="#C7385B"/><stop offset="1" stop-color="#E5393E"/></linearGradient><linearGradient id="paint5_linear_18_10719" x1="28.96" x2="27.686" y1="22.313" y2="22.313" gradientUnits="userSpaceOnUse"><stop stop-color="#C92725"/><stop offset="1" stop-color="#C92725" stop-opacity="0"/></linearGradient><linearGradient id="paint6_linear_18_10719" x1="1.97" x2="3.408" y1="24.017" y2="24.017" gradientUnits="userSpaceOnUse"><stop stop-color="#923545"/><stop offset="1" stop-color="#923545" stop-opacity="0"/></linearGradient><linearGradient id="paint7_linear_18_10719" x1="16.725" x2="16.725" y1="27" y2="25.645" gradientUnits="userSpaceOnUse"><stop stop-color="#7A174D"/><stop offset="1" stop-color="#7A174D" stop-opacity="0"/></linearGradient><linearGradient id="paint9_linear_18_10719" x1="8.21" x2="7.085" y1="22.938" y2="26.156" gradientUnits="userSpaceOnUse"><stop stop-color="#530817"/><stop offset="1" stop-color="#6D1727"/></linearGradient><linearGradient id="paint10_linear_18_10719" x1="4.253" x2="28.2" y1="20.475" y2="20.475" gradientUnits="userSpaceOnUse"><stop stop-color="#DB4663"/><stop offset="1" stop-color="#F94947"/></linearGradient><linearGradient id="paint11_linear_18_10719" x1="11.576" x2="9.413" y1="20.248" y2="18.222" gradientUnits="userSpaceOnUse"><stop stop-color="#7F0D28"/><stop offset="1" stop-color="#7F0D28" stop-opacity="0"/></linearGradient><linearGradient id="paint12_linear_18_10719" x1="24.21" x2="23.085" y1="22.938" y2="26.156" gradientUnits="userSpaceOnUse"><stop stop-color="#4D0615"/><stop offset="1" stop-color="#6C1828"/></linearGradient><linearGradient id="paint13_linear_18_10719" x1="5.846" x2="11.103" y1="25.62" y2="25.62" gradientUnits="userSpaceOnUse"><stop offset=".239" stop-color="#34214F"/><stop offset="1" stop-color="#241337"/></linearGradient><linearGradient id="paint15_linear_18_10719" x1="21.846" x2="27.103" y1="25.62" y2="25.62" gradientUnits="userSpaceOnUse"><stop offset=".239" stop-color="#34214F"/><stop offset="1" stop-color="#241337"/></linearGradient><linearGradient id="paint17_linear_18_10719" x1="28.482" x2="27.296" y1="23.057" y2="21.191" gradientUnits="userSpaceOnUse"><stop stop-color="#FF406D"/><stop offset=".709" stop-color="#D61049"/></linearGradient><linearGradient id="paint19_linear_18_10719" x1="9.076" x2="6.013" y1="24.334" y2="28.564" gradientUnits="userSpaceOnUse"><stop offset=".083" stop-color="#615B6B"/><stop offset=".391" stop-color="#615B6B" stop-opacity="0"/><stop offset=".692" stop-color="#615B6B" stop-opacity="0"/><stop offset=".935" stop-color="#615B6B"/></linearGradient><linearGradient id="paint20_linear_18_10719" x1="24.859" x2="21.796" y1="24.334" y2="28.564" gradientUnits="userSpaceOnUse"><stop offset=".083" stop-color="#615B6B"/><stop offset=".391" stop-color="#615B6B" stop-opacity="0"/><stop offset=".692" stop-color="#615B6B" stop-opacity="0"/><stop offset=".935" stop-color="#615B6B"/></linearGradient><linearGradient id="paint21_linear_18_10719" x1="4.963" x2="12.963" y1="16.002" y2="16.002" gradientUnits="userSpaceOnUse"><stop stop-color="#60BDFF"/><stop offset="1" stop-color="#61BFF9"/></linearGradient><linearGradient id="paint23_linear_18_10719" x1="11.93" x2="12.246" y1="18.735" y2="18.735" gradientUnits="userSpaceOnUse"><stop stop-color="#D31D2F" stop-opacity="0"/><stop offset="1" stop-color="#D31D2F"/></linearGradient><filter id="filter0_ii_18_10719" width="13.18" height="2.4" x="16.82" y="16.75" color-interpolation-filters="sRGB" filterUnits="userSpaceOnUse"><feFlood flood-opacity="0" result="BackgroundImageFix"/><feBlend in="SourceGraphic" in2="BackgroundImageFix" result="shape"/><feColorMatrix in="SourceAlpha" result="hardAlpha" values="0 0 0 0 0 0 0 0 0 0 0 0 0 0 0 0 0 0 127 0"/><feOffset dx="-.15" dy="-.25"/><feGaussianBlur stdDeviation=".125"/><feComposite in2="hardAlpha" k2="-1" k3="1" operator="arithmetic"/><feColorMatrix values="0 0 0 0 0.192157 0 0 0 0 0.0196078 0 0 0 0 0.117647 0 0 0 1 0"/><feBlend in2="shape" result="effect1_innerShadow_18_10719"/><feColorMatrix in="SourceAlpha" result="hardAlpha" values="0 0 0 0 0 0 0 0 0 0 0 0 0 0 0 0 0 0 127 0"/><feOffset dx="-.15" dy=".25"/><feGaussianBlur stdDeviation=".075"/><feComposite in2="hardAlpha" k2="-1" k3="1" operator="arithmetic"/><feColorMatrix values="0 0 0 0 0.333275 0 0 0 0 0.282795 0 0 0 0 0.379167 0 0 0 1 0"/><feBlend in2="effect1_innerShadow_18_10719" result="effect2_innerShadow_18_10719"/></filter><filter id="filter1_i_18_10719" width="27.49" height="15.859" x="1.97" y="11.141" color-interpolation-filters="sRGB" filterUnits="userSpaceOnUse"><feFlood flood-opacity="0" result="BackgroundImageFix"/><feBlend in="SourceGraphic" in2="BackgroundImageFix" result="shape"/><feColorMatrix in="SourceAlpha" result="hardAlpha" values="0 0 0 0 0 0 0 0 0 0 0 0 0 0 0 0 0 0 127 0"/><feOffset dx=".5"/><feGaussianBlur stdDeviation=".5"/><feComposite in2="hardAlpha" k2="-1" k3="1" operator="arithmetic"/><feColorMatrix values="0 0 0 0 0.584314 0 0 0 0 0.156863 0 0 0 0 0.227451 0 0 0 1 0"/><feBlend in2="shape" result="effect1_innerShadow_18_10719"/></filter><filter id="filter2_f_18_10719" width="2.694" height="10.13" x="14.666" y="10.935" color-interpolation-filters="sRGB" filterUnits="userSpaceOnUse"><feFlood flood-opacity="0" result="BackgroundImageFix"/><feBlend in="SourceGraphic" in2="BackgroundImageFix" result="shape"/><feGaussianBlur result="effect1_foregroundBlur_18_10719" stdDeviation=".375"/></filter><filter id="filter3_f_18_10719" width="24.999" height="1.62" x="3.46" y="19.354" color-interpolation-filters="sRGB" filterUnits="userSpaceOnUse"><feFlood flood-opacity="0" result="BackgroundImageFix"/><feBlend in="SourceGraphic" in2="BackgroundImageFix" result="shape"/><feGaussianBlur result="effect1_foregroundBlur_18_10719" stdDeviation=".25"/></filter><filter id="filter4_f_18_10719" width="2.901" height="3.701" x="9.371" y="16.846" color-interpolation-filters="sRGB" filterUnits="userSpaceOnUse"><feFlood flood-opacity="0" result="BackgroundImageFix"/><feBlend in="SourceGraphic" in2="BackgroundImageFix" result="shape"/><feGaussianBlur result="effect1_foregroundBlur_18_10719" stdDeviation=".15"/></filter><filter id="filter5_ii_18_10719" width="7" height="7.15" x="3.96" y="23" color-interpolation-filters="sRGB" filterUnits="userSpaceOnUse"><feFlood flood-opacity="0" result="BackgroundImageFix"/><feBlend in="SourceGraphic" in2="BackgroundImageFix" result="shape"/><feColorMatrix in="SourceAlpha" result="hardAlpha" values="0 0 0 0 0 0 0 0 0 0 0 0 0 0 0 0 0 0 127 0"/><feOffset/><feGaussianBlur stdDeviation=".5"/><feComposite in2="hardAlpha" k2="-1" k3="1" operator="arithmetic"/><feColorMatrix values="0 0 0 0 0.145098 0 0 0 0 0.0823529 0 0 0 0 0.215686 0 0 0 1 0"/><feBlend in2="shape" result="effect1_innerShadow_18_10719"/><feColorMatrix in="SourceAlpha" result="hardAlpha" values="0 0 0 0 0 0 0 0 0 0 0 0 0 0 0 0 0 0 127 0"/><feOffset dy=".15"/><feGaussianBlur stdDeviation=".125"/><feComposite in2="hardAlpha" k2="-1" k3="1" operator="arithmetic"/><feColorMatrix values="0 0 0 0 0.207843 0 0 0 0 0.0313726 0 0 0 0 0.235294 0 0 0 1 0"/><feBlend in2="effect1_innerShadow_18_10719" result="effect2_innerShadow_18_10719"/></filter><filter id="filter6_ii_18_10719" width="3.1" height="3.1" x="5.91" y="24.95" color-interpolation-filters="sRGB" filterUnits="userSpaceOnUse"><feFlood flood-opacity="0" result="BackgroundImageFix"/><feBlend in="SourceGraphic" in2="BackgroundImageFix" result="shape"/><feColorMatrix in="SourceAlpha" result="hardAlpha" values="0 0 0 0 0 0 0 0 0 0 0 0 0 0 0 0 0 0 127 0"/><feOffset dx=".05" dy="-.05"/><feGaussianBlur stdDeviation=".05"/><feComposite in2="hardAlpha" k2="-1" k3="1" operator="arithmetic"/><feColorMatrix values="0 0 0 0 0.478431 0 0 0 0 0.364706 0 0 0 0 0.584314 0 0 0 1 0"/><feBlend in2="shape" result="effect1_innerShadow_18_10719"/><feColorMatrix in="SourceAlpha" result="hardAlpha" values="0 0 0 0 0 0 0 0 0 0 0 0 0 0 0 0 0 0 127 0"/><feOffset dx="-.05" dy=".05"/><feGaussianBlur stdDeviation=".05"/><feComposite in2="hardAlpha" k2="-1" k3="1" operator="arithmetic"/><feColorMatrix values="0 0 0 0 0.807843 0 0 0 0 0.764706 0 0 0 0 0.858824 0 0 0 1 0"/><feBlend in2="effect1_innerShadow_18_10719" result="effect2_innerShadow_18_10719"/></filter><filter id="filter7_ii_18_10719" width="7" height="7.15" x="19.96" y="23" color-interpolation-filters="sRGB" filterUnits="userSpaceOnUse"><feFlood flood-opacity="0" result="BackgroundImageFix"/><feBlend in="SourceGraphic" in2="BackgroundImageFix" result="shape"/><feColorMatrix in="SourceAlpha" result="hardAlpha" values="0 0 0 0 0 0 0 0 0 0 0 0 0 0 0 0 0 0 127 0"/><feOffset/><feGaussianBlur stdDeviation=".5"/><feComposite in2="hardAlpha" k2="-1" k3="1" operator="arithmetic"/><feColorMatrix values="0 0 0 0 0.145098 0 0 0 0 0.0823529 0 0 0 0 0.215686 0 0 0 1 0"/><feBlend in2="shape" result="effect1_innerShadow_18_10719"/><feColorMatrix in="SourceAlpha" result="hardAlpha" values="0 0 0 0 0 0 0 0 0 0 0 0 0 0 0 0 0 0 127 0"/><feOffset dy=".15"/><feGaussianBlur stdDeviation=".125"/><feComposite in2="hardAlpha" k2="-1" k3="1" operator="arithmetic"/><feColorMatrix values="0 0 0 0 0.207843 0 0 0 0 0.0313726 0 0 0 0 0.235294 0 0 0 1 0"/><feBlend in2="effect1_innerShadow_18_10719" result="effect2_innerShadow_18_10719"/></filter><filter id="filter8_ii_18_10719" width="3.1" height="3.1" x="21.91" y="24.95" color-interpolation-filters="sRGB" filterUnits="userSpaceOnUse"><feFlood flood-opacity="0" result="BackgroundImageFix"/><feBlend in="SourceGraphic" in2="BackgroundImageFix" result="shape"/><feColorMatrix in="SourceAlpha" result="hardAlpha" values="0 0 0 0 0 0 0 0 0 0 0 0 0 0 0 0 0 0 127 0"/><feOffset dx=".05" dy="-.05"/><feGaussianBlur stdDeviation=".05"/><feComposite in2="hardAlpha" k2="-1" k3="1" operator="arithmetic"/><feColorMatrix values="0 0 0 0 0.478431 0 0 0 0 0.364706 0 0 0 0 0.584314 0 0 0 1 0"/><feBlend in2="shape" result="effect1_innerShadow_18_10719"/><feColorMatrix in="SourceAlpha" result="hardAlpha" values="0 0 0 0 0 0 0 0 0 0 0 0 0 0 0 0 0 0 127 0"/><feOffset dx="-.05" dy=".05"/><feGaussianBlur stdDeviation=".05"/><feComposite in2="hardAlpha" k2="-1" k3="1" operator="arithmetic"/><feColorMatrix values="0 0 0 0 0.807843 0 0 0 0 0.764706 0 0 0 0 0.858824 0 0 0 1 0"/><feBlend in2="effect1_innerShadow_18_10719" result="effect2_innerShadow_18_10719"/></filter><filter id="filter9_f_18_10719" width="7.392" height="7.392" x="4.006" y="22.639" color-interpolation-filters="sRGB" filterUnits="userSpaceOnUse"><feFlood flood-opacity="0" result="BackgroundImageFix"/><feBlend in="SourceGraphic" in2="BackgroundImageFix" result="shape"/><feGaussianBlur result="effect1_foregroundBlur_18_10719" stdDeviation=".375"/></filter><filter id="filter10_f_18_10719" width="7.392" height="7.392" x="19.789" y="22.639" color-interpolation-filters="sRGB" filterUnits="userSpaceOnUse"><feFlood flood-opacity="0" result="BackgroundImageFix"/><feBlend in="SourceGraphic" in2="BackgroundImageFix" result="shape"/><feGaussianBlur result="effect1_foregroundBlur_18_10719" stdDeviation=".375"/></filter><filter id="filter11_i_18_10719" width="8.885" height="6.6" x="4.075" y="13" color-interpolation-filters="sRGB" filterUnits="userSpaceOnUse"><feFlood flood-opacity="0" result="BackgroundImageFix"/><feBlend in="SourceGraphic" in2="BackgroundImageFix" result="shape"/><feColorMatrix in="SourceAlpha" result="hardAlpha" values="0 0 0 0 0 0 0 0 0 0 0 0 0 0 0 0 0 0 127 0"/><feOffset dx="-.75" dy="1"/><feGaussianBlur stdDeviation=".3"/><feComposite in2="hardAlpha" k2="-1" k3="1" operator="arithmetic"/><feColorMatrix values="0 0 0 0 0.129412 0 0 0 0 0.443137 0 0 0 0 0.768627 0 0 0 1 0"/><feBlend in2="shape" result="effect1_innerShadow_18_10719"/></filter><radialGradient id="paint8_radial_18_10719" cx="0" cy="0" r="1" gradientTransform="matrix(-1.79604 1.4331 -.25344 -.31763 29.102 19)" gradientUnits="userSpaceOnUse"><stop stop-color="#FF5755"/><stop offset="1" stop-color="#FF5755" stop-opacity="0"/></radialGradient><radialGradient id="paint14_radial_18_10719" cx="0" cy="0" r="1" gradientTransform="matrix(.79083 -1.73826 1.81555 .826 7.46 26.187)" gradientUnits="userSpaceOnUse"><stop offset=".523" stop-color="#2D114D"/><stop offset="1" stop-color="#2B1249" stop-opacity="0"/></radialGradient><radialGradient id="paint16_radial_18_10719" cx="0" cy="0" r="1" gradientTransform="matrix(.79083 -1.73826 1.81555 .826 23.46 26.187)" gradientUnits="userSpaceOnUse"><stop offset=".523" stop-color="#2D114D"/><stop offset="1" stop-color="#2B1249" stop-opacity="0"/></radialGradient><radialGradient id="paint18_radial_18_10719" cx="0" cy="0" r="1" gradientTransform="matrix(0 -2.68752 2.25 0 2.647 24)" gradientUnits="userSpaceOnUse"><stop stop-color="#FFFB78"/><stop offset=".756" stop-color="#F9D963"/></radialGradient><radialGradient id="paint22_radial_18_10719" cx="0" cy="0" r="1" gradientTransform="matrix(1.25 -1.30469 3.48231 3.33635 11.052 19.425)" gradientUnits="userSpaceOnUse"><stop stop-color="#AC2038"/><stop offset="1" stop-color="#FC5760"/></radialGradient></defs></svg>