<svg xmlns="http://www.w3.org/2000/svg" width="32" height="32" fill="none" viewBox="0 0 32 32"><g filter="url(#filter0_iiii_18_22775)"><rect width="27.844" height="25.992" x="2.078" y="3.57" fill="url(#paint0_linear_18_22775)" rx="5.25"/></g><path fill="url(#paint1_linear_18_22775)" d="M29.922 10.383H2.078V8.67a5.1 5.1 0 0 1 5.1-5.1h17.644a5.1 5.1 0 0 1 5.1 5.1v1.713Z"/><path fill="url(#paint2_linear_18_22775)" d="M29.922 10.383H2.078V8.67a5.1 5.1 0 0 1 5.1-5.1h17.644a5.1 5.1 0 0 1 5.1 5.1v1.713Z"/><path fill="url(#paint3_radial_18_22775)" d="M29.922 10.383H2.078V8.67a5.1 5.1 0 0 1 5.1-5.1h17.644a5.1 5.1 0 0 1 5.1 5.1v1.713Z"/><path fill="url(#paint4_linear_18_22775)" d="M29.922 10.383H2.078V8.67a5.1 5.1 0 0 1 5.1-5.1h17.644a5.1 5.1 0 0 1 5.1 5.1v1.713Z"/><g filter="url(#filter1_ii_18_22775)"><path fill="#D3CBDD" d="M29.922 20.195v4.268a5.1 5.1 0 0 1-5.1 5.1h-4.325l9.425-9.368Z"/></g><g filter="url(#filter2_dii_18_22775)"><rect width="2.805" height="2.805" x="8.563" y="13.195" fill="#9896A1" rx=".1"/></g><g filter="url(#filter3_dii_18_22775)"><rect width="2.805" height="2.805" x="14.551" y="13.195" fill="#9896A1" rx=".1"/></g><g filter="url(#filter4_dii_18_22775)"><rect width="2.805" height="2.805" x="20.539" y="13.195" fill="#9896A1" rx=".1"/></g><g filter="url(#filter5_dii_18_22775)"><rect width="2.805" height="2.805" x="8.563" y="18.195" fill="#9896A1" rx=".1"/></g><g filter="url(#filter6_dii_18_22775)"><rect width="2.805" height="2.805" x="8.563" y="23.195" fill="#9896A1" rx=".1"/></g><g filter="url(#filter7_dii_18_22775)"><rect width="2.805" height="2.805" x="14.551" y="18.195" fill="#9896A1" rx=".1"/></g><g filter="url(#filter8_dii_18_22775)"><rect width="2.805" height="2.805" x="14.551" y="23.195" fill="#9896A1" rx=".1"/></g><g filter="url(#filter9_dii_18_22775)"><rect width="2.805" height="2.805" x="20.539" y="18.195" fill="url(#paint5_linear_18_22775)" rx=".1"/></g><g filter="url(#filter10_dii_18_22775)"><rect width="2.805" height="2.805" x="20.539" y="23.195" fill="#9896A1" rx=".1"/></g><g filter="url(#filter11_i_18_22775)"><path fill="url(#paint6_radial_18_22775)" d="M29.827 20.372a.323.323 0 0 0-.228-.552h-1.17a8.25 8.25 0 0 0-8.25 8.25v1.17a.323.323 0 0 0 .552.228l9.096-9.096Z"/><path fill="url(#paint7_linear_18_22775)" d="M29.827 20.372a.323.323 0 0 0-.228-.552h-1.17a8.25 8.25 0 0 0-8.25 8.25v1.17a.323.323 0 0 0 .552.228l9.096-9.096Z"/></g><g filter="url(#filter12_f_18_22775)"><path stroke="url(#paint8_radial_18_22775)" stroke-width="1.5" d="M28.906 9.861c0-2.9-1.25-5.25-5.25-5.25H13.5"/></g><g filter="url(#filter13_f_18_22775)"><path fill="#3E7BC6" d="M20.394 3.57a3.389 3.389 0 0 0-.214 1.19c0 1.582 1.086 2.92 2.59 3.222a.7.7 0 0 0 .275-1.373c-.832-.167-1.465-.916-1.465-1.85 0-.46.15-.87.393-1.189h-1.58Z"/></g><g filter="url(#filter14_f_18_22775)"><path fill="#3E7BC6" d="M14.765 3.57a3.389 3.389 0 0 0-.214 1.19c0 1.582 1.086 2.92 2.59 3.222a.7.7 0 0 0 .275-1.373c-.832-.167-1.465-.916-1.465-1.85 0-.46.15-.87.393-1.189h-1.579Z"/></g><g filter="url(#filter15_f_18_22775)"><path fill="#3E7BC6" d="M9.604 3.57a3.411 3.411 0 0 0-.214 1.19c0 1.582 1.086 2.92 2.59 3.222a.7.7 0 1 0 .275-1.373c-.832-.167-1.465-.916-1.465-1.85 0-.46.15-.87.393-1.189H9.604Z"/></g><g filter="url(#filter16_f_18_22775)"><path fill="#324DAF" d="M5.69 4.233c-.139.37-1.14.333-1.14.75 0 1.582 1.06 2.697 2.563 2.999a.7.7 0 1 0 .276-1.373c-.832-.167-1.466-.916-1.466-1.85 0-.46.15-.87.393-1.189l-.626.663Z"/></g><path fill="url(#paint9_radial_18_22775)" d="M6.362 4.528c0-1.073.815-1.877 1.74-1.877.618 0 1.188.36 1.497.92h1.505c-.389-1.326-1.564-2.32-3.002-2.32-1.77 0-3.14 1.504-3.14 3.277 0 1.583 1.086 2.921 2.59 3.223a.7.7 0 1 0 .275-1.373c-.832-.167-1.465-.916-1.465-1.85Z"/><path fill="url(#paint10_radial_18_22775)" d="M6.362 4.528c0-1.073.815-1.877 1.74-1.877.618 0 1.188.36 1.497.92h1.505c-.389-1.326-1.564-2.32-3.002-2.32-1.77 0-3.14 1.504-3.14 3.277 0 1.583 1.086 2.921 2.59 3.223a.7.7 0 1 0 .275-1.373c-.832-.167-1.465-.916-1.465-1.85Z"/><g filter="url(#filter17_f_18_22775)"><path stroke="#D8D7DE" stroke-linecap="round" stroke-width=".4" d="M7.862 6.846C6.694 6.61 5.834 5.568 5.834 4.31c0-1.424 1.092-2.577 2.44-2.577.71 0 1.348.32 1.794.831"/></g><path fill="url(#paint11_radial_18_22775)" d="M11.574 4.528c0-1.073.815-1.877 1.74-1.877.619 0 1.188.36 1.497.92h1.505c-.389-1.326-1.563-2.32-3.002-2.32-1.77 0-3.14 1.504-3.14 3.277 0 1.583 1.086 2.921 2.59 3.223a.7.7 0 1 0 .276-1.373c-.832-.167-1.466-.916-1.466-1.85Z"/><path fill="url(#paint12_radial_18_22775)" d="M11.574 4.528c0-1.073.815-1.877 1.74-1.877.619 0 1.188.36 1.497.92h1.505c-.389-1.326-1.563-2.32-3.002-2.32-1.77 0-3.14 1.504-3.14 3.277 0 1.583 1.086 2.921 2.59 3.223a.7.7 0 1 0 .276-1.373c-.832-.167-1.466-.916-1.466-1.85Z"/><path fill="url(#paint13_radial_18_22775)" d="M16.824 4.528c0-1.073.815-1.877 1.74-1.877.619 0 1.188.36 1.497.92h1.505c-.389-1.326-1.563-2.32-3.002-2.32-1.77 0-3.14 1.504-3.14 3.277 0 1.583 1.086 2.921 2.59 3.223a.7.7 0 1 0 .276-1.373c-.832-.167-1.466-.916-1.466-1.85Z"/><path fill="url(#paint14_radial_18_22775)" d="M16.824 4.528c0-1.073.815-1.877 1.74-1.877.619 0 1.188.36 1.497.92h1.505c-.389-1.326-1.563-2.32-3.002-2.32-1.77 0-3.14 1.504-3.14 3.277 0 1.583 1.086 2.921 2.59 3.223a.7.7 0 1 0 .276-1.373c-.832-.167-1.466-.916-1.466-1.85Z"/><g filter="url(#filter18_f_18_22775)"><path stroke="#D8D7DE" stroke-linecap="round" stroke-width=".4" d="M13.074 6.846c-1.168-.235-2.028-1.278-2.028-2.536 0-1.424 1.092-2.577 2.44-2.577.71 0 1.349.32 1.795.831"/></g><g filter="url(#filter19_f_18_22775)"><path stroke="#D8D7DE" stroke-linecap="round" stroke-width=".4" d="M18.324 6.846c-1.168-.235-2.028-1.278-2.028-2.536 0-1.424 1.092-2.577 2.44-2.577.71 0 1.349.32 1.795.831"/></g><path fill="url(#paint15_radial_18_22775)" d="M22.065 4.528c0-1.073.815-1.877 1.74-1.877.627 0 1.204.37 1.51.943a5.068 5.068 0 0 1 1.59.42c-.234-1.54-1.505-2.763-3.1-2.763-1.77 0-3.14 1.504-3.14 3.277 0 1.583 1.086 2.921 2.59 3.223a.7.7 0 0 0 .276-1.373c-.832-.167-1.466-.916-1.466-1.85Z"/><path fill="url(#paint16_radial_18_22775)" d="M22.065 4.528c0-1.073.815-1.877 1.74-1.877.627 0 1.204.37 1.51.943a5.068 5.068 0 0 1 1.59.42c-.234-1.54-1.505-2.763-3.1-2.763-1.77 0-3.14 1.504-3.14 3.277 0 1.583 1.086 2.921 2.59 3.223a.7.7 0 0 0 .276-1.373c-.832-.167-1.466-.916-1.466-1.85Z"/><g filter="url(#filter20_f_18_22775)"><path stroke="#D8D7DE" stroke-linecap="round" stroke-width=".4" d="M23.565 6.846c-1.168-.235-2.028-1.278-2.028-2.536 0-1.424 1.092-2.577 2.44-2.577.71 0 1.349.32 1.794.831"/></g><defs><filter id="filter0_iiii_18_22775" width="29.844" height="26.992" x="1.078" y="2.57" color-interpolation-filters="sRGB" filterUnits="userSpaceOnUse"><feFlood flood-opacity="0" result="BackgroundImageFix"/><feBlend in="SourceGraphic" in2="BackgroundImageFix" result="shape"/><feColorMatrix in="SourceAlpha" result="hardAlpha" values="0 0 0 0 0 0 0 0 0 0 0 0 0 0 0 0 0 0 127 0"/><feOffset dy="-1"/><feGaussianBlur stdDeviation="1.5"/><feComposite in2="hardAlpha" k2="-1" k3="1" operator="arithmetic"/><feColorMatrix values="0 0 0 0 0.67451 0 0 0 0 0.619608 0 0 0 0 0.74902 0 0 0 1 0"/><feBlend in2="shape" result="effect1_innerShadow_18_22775"/><feColorMatrix in="SourceAlpha" result="hardAlpha" values="0 0 0 0 0 0 0 0 0 0 0 0 0 0 0 0 0 0 127 0"/><feOffset dx="1"/><feGaussianBlur stdDeviation=".75"/><feComposite in2="hardAlpha" k2="-1" k3="1" operator="arithmetic"/><feColorMatrix values="0 0 0 0 0.8 0 0 0 0 0.788235 0 0 0 0 0.819608 0 0 0 1 0"/><feBlend in2="effect1_innerShadow_18_22775" result="effect2_innerShadow_18_22775"/><feColorMatrix in="SourceAlpha" result="hardAlpha" values="0 0 0 0 0 0 0 0 0 0 0 0 0 0 0 0 0 0 127 0"/><feOffset dx="-1"/><feGaussianBlur stdDeviation=".75"/><feComposite in2="hardAlpha" k2="-1" k3="1" operator="arithmetic"/><feColorMatrix values="0 0 0 0 0.956863 0 0 0 0 0.945098 0 0 0 0 0.976471 0 0 0 1 0"/><feBlend in2="effect2_innerShadow_18_22775" result="effect3_innerShadow_18_22775"/><feColorMatrix in="SourceAlpha" result="hardAlpha" values="0 0 0 0 0 0 0 0 0 0 0 0 0 0 0 0 0 0 127 0"/><feOffset dx=".25" dy="-.25"/><feGaussianBlur stdDeviation=".5"/><feComposite in2="hardAlpha" k2="-1" k3="1" operator="arithmetic"/><feColorMatrix values="0 0 0 0 0.670588 0 0 0 0 0.619608 0 0 0 0 0.745098 0 0 0 1 0"/><feBlend in2="effect3_innerShadow_18_22775" result="effect4_innerShadow_18_22775"/></filter><filter id="filter1_ii_18_22775" width="10.825" height="9.968" x="19.497" y="19.595" color-interpolation-filters="sRGB" filterUnits="userSpaceOnUse"><feFlood flood-opacity="0" result="BackgroundImageFix"/><feBlend in="SourceGraphic" in2="BackgroundImageFix" result="shape"/><feColorMatrix in="SourceAlpha" result="hardAlpha" values="0 0 0 0 0 0 0 0 0 0 0 0 0 0 0 0 0 0 127 0"/><feOffset dx="-1"/><feGaussianBlur stdDeviation=".75"/><feComposite in2="hardAlpha" k2="-1" k3="1" operator="arithmetic"/><feColorMatrix values="0 0 0 0 0.937255 0 0 0 0 0.917647 0 0 0 0 0.964706 0 0 0 1 0"/><feBlend in2="shape" result="effect1_innerShadow_18_22775"/><feColorMatrix in="SourceAlpha" result="hardAlpha" values="0 0 0 0 0 0 0 0 0 0 0 0 0 0 0 0 0 0 127 0"/><feOffset dx=".4" dy="-.6"/><feGaussianBlur stdDeviation=".75"/><feComposite in2="hardAlpha" k2="-1" k3="1" operator="arithmetic"/><feColorMatrix values="0 0 0 0 0.658824 0 0 0 0 0.607843 0 0 0 0 0.729412 0 0 0 1 0"/><feBlend in2="effect1_innerShadow_18_22775" result="effect2_innerShadow_18_22775"/></filter><filter id="filter2_dii_18_22775" width="3.405" height="3.405" x="8.162" y="12.995" color-interpolation-filters="sRGB" filterUnits="userSpaceOnUse"><feFlood flood-opacity="0" result="BackgroundImageFix"/><feColorMatrix in="SourceAlpha" result="hardAlpha" values="0 0 0 0 0 0 0 0 0 0 0 0 0 0 0 0 0 0 127 0"/><feOffset dx="-.1" dy=".1"/><feGaussianBlur stdDeviation=".15"/><feComposite in2="hardAlpha" operator="out"/><feColorMatrix values="0 0 0 0 0.772549 0 0 0 0 0.752941 0 0 0 0 0.803922 0 0 0 1 0"/><feBlend in2="BackgroundImageFix" result="effect1_dropShadow_18_22775"/><feBlend in="SourceGraphic" in2="effect1_dropShadow_18_22775" result="shape"/><feColorMatrix in="SourceAlpha" result="hardAlpha" values="0 0 0 0 0 0 0 0 0 0 0 0 0 0 0 0 0 0 127 0"/><feOffset dx="-.1" dy=".1"/><feGaussianBlur stdDeviation=".075"/><feComposite in2="hardAlpha" k2="-1" k3="1" operator="arithmetic"/><feColorMatrix values="0 0 0 0 0.654902 0 0 0 0 0.647059 0 0 0 0 0.682353 0 0 0 1 0"/><feBlend in2="shape" result="effect2_innerShadow_18_22775"/><feColorMatrix in="SourceAlpha" result="hardAlpha" values="0 0 0 0 0 0 0 0 0 0 0 0 0 0 0 0 0 0 127 0"/><feOffset dx=".1" dy="-.1"/><feGaussianBlur stdDeviation=".075"/><feComposite in2="hardAlpha" k2="-1" k3="1" operator="arithmetic"/><feColorMatrix values="0 0 0 0 0.572549 0 0 0 0 0.564706 0 0 0 0 0.607843 0 0 0 1 0"/><feBlend in2="effect2_innerShadow_18_22775" result="effect3_innerShadow_18_22775"/></filter><filter id="filter3_dii_18_22775" width="3.405" height="3.405" x="14.151" y="12.995" color-interpolation-filters="sRGB" filterUnits="userSpaceOnUse"><feFlood flood-opacity="0" result="BackgroundImageFix"/><feColorMatrix in="SourceAlpha" result="hardAlpha" values="0 0 0 0 0 0 0 0 0 0 0 0 0 0 0 0 0 0 127 0"/><feOffset dx="-.1" dy=".1"/><feGaussianBlur stdDeviation=".15"/><feComposite in2="hardAlpha" operator="out"/><feColorMatrix values="0 0 0 0 0.772549 0 0 0 0 0.752941 0 0 0 0 0.803922 0 0 0 1 0"/><feBlend in2="BackgroundImageFix" result="effect1_dropShadow_18_22775"/><feBlend in="SourceGraphic" in2="effect1_dropShadow_18_22775" result="shape"/><feColorMatrix in="SourceAlpha" result="hardAlpha" values="0 0 0 0 0 0 0 0 0 0 0 0 0 0 0 0 0 0 127 0"/><feOffset dx="-.1" dy=".1"/><feGaussianBlur stdDeviation=".075"/><feComposite in2="hardAlpha" k2="-1" k3="1" operator="arithmetic"/><feColorMatrix values="0 0 0 0 0.654902 0 0 0 0 0.647059 0 0 0 0 0.682353 0 0 0 1 0"/><feBlend in2="shape" result="effect2_innerShadow_18_22775"/><feColorMatrix in="SourceAlpha" result="hardAlpha" values="0 0 0 0 0 0 0 0 0 0 0 0 0 0 0 0 0 0 127 0"/><feOffset dx=".1" dy="-.1"/><feGaussianBlur stdDeviation=".075"/><feComposite in2="hardAlpha" k2="-1" k3="1" operator="arithmetic"/><feColorMatrix values="0 0 0 0 0.572549 0 0 0 0 0.564706 0 0 0 0 0.607843 0 0 0 1 0"/><feBlend in2="effect2_innerShadow_18_22775" result="effect3_innerShadow_18_22775"/></filter><filter id="filter4_dii_18_22775" width="3.405" height="3.405" x="20.139" y="12.995" color-interpolation-filters="sRGB" filterUnits="userSpaceOnUse"><feFlood flood-opacity="0" result="BackgroundImageFix"/><feColorMatrix in="SourceAlpha" result="hardAlpha" values="0 0 0 0 0 0 0 0 0 0 0 0 0 0 0 0 0 0 127 0"/><feOffset dx="-.1" dy=".1"/><feGaussianBlur stdDeviation=".15"/><feComposite in2="hardAlpha" operator="out"/><feColorMatrix values="0 0 0 0 0.772549 0 0 0 0 0.752941 0 0 0 0 0.803922 0 0 0 1 0"/><feBlend in2="BackgroundImageFix" result="effect1_dropShadow_18_22775"/><feBlend in="SourceGraphic" in2="effect1_dropShadow_18_22775" result="shape"/><feColorMatrix in="SourceAlpha" result="hardAlpha" values="0 0 0 0 0 0 0 0 0 0 0 0 0 0 0 0 0 0 127 0"/><feOffset dx="-.1" dy=".1"/><feGaussianBlur stdDeviation=".075"/><feComposite in2="hardAlpha" k2="-1" k3="1" operator="arithmetic"/><feColorMatrix values="0 0 0 0 0.654902 0 0 0 0 0.647059 0 0 0 0 0.682353 0 0 0 1 0"/><feBlend in2="shape" result="effect2_innerShadow_18_22775"/><feColorMatrix in="SourceAlpha" result="hardAlpha" values="0 0 0 0 0 0 0 0 0 0 0 0 0 0 0 0 0 0 127 0"/><feOffset dx=".1" dy="-.1"/><feGaussianBlur stdDeviation=".075"/><feComposite in2="hardAlpha" k2="-1" k3="1" operator="arithmetic"/><feColorMatrix values="0 0 0 0 0.572549 0 0 0 0 0.564706 0 0 0 0 0.607843 0 0 0 1 0"/><feBlend in2="effect2_innerShadow_18_22775" result="effect3_innerShadow_18_22775"/></filter><filter id="filter5_dii_18_22775" width="3.405" height="3.405" x="8.162" y="17.995" color-interpolation-filters="sRGB" filterUnits="userSpaceOnUse"><feFlood flood-opacity="0" result="BackgroundImageFix"/><feColorMatrix in="SourceAlpha" result="hardAlpha" values="0 0 0 0 0 0 0 0 0 0 0 0 0 0 0 0 0 0 127 0"/><feOffset dx="-.1" dy=".1"/><feGaussianBlur stdDeviation=".15"/><feComposite in2="hardAlpha" operator="out"/><feColorMatrix values="0 0 0 0 0.772549 0 0 0 0 0.752941 0 0 0 0 0.803922 0 0 0 1 0"/><feBlend in2="BackgroundImageFix" result="effect1_dropShadow_18_22775"/><feBlend in="SourceGraphic" in2="effect1_dropShadow_18_22775" result="shape"/><feColorMatrix in="SourceAlpha" result="hardAlpha" values="0 0 0 0 0 0 0 0 0 0 0 0 0 0 0 0 0 0 127 0"/><feOffset dx="-.1" dy=".1"/><feGaussianBlur stdDeviation=".075"/><feComposite in2="hardAlpha" k2="-1" k3="1" operator="arithmetic"/><feColorMatrix values="0 0 0 0 0.654902 0 0 0 0 0.647059 0 0 0 0 0.682353 0 0 0 1 0"/><feBlend in2="shape" result="effect2_innerShadow_18_22775"/><feColorMatrix in="SourceAlpha" result="hardAlpha" values="0 0 0 0 0 0 0 0 0 0 0 0 0 0 0 0 0 0 127 0"/><feOffset dx=".1" dy="-.1"/><feGaussianBlur stdDeviation=".075"/><feComposite in2="hardAlpha" k2="-1" k3="1" operator="arithmetic"/><feColorMatrix values="0 0 0 0 0.572549 0 0 0 0 0.564706 0 0 0 0 0.607843 0 0 0 1 0"/><feBlend in2="effect2_innerShadow_18_22775" result="effect3_innerShadow_18_22775"/></filter><filter id="filter6_dii_18_22775" width="3.405" height="3.405" x="8.162" y="22.995" color-interpolation-filters="sRGB" filterUnits="userSpaceOnUse"><feFlood flood-opacity="0" result="BackgroundImageFix"/><feColorMatrix in="SourceAlpha" result="hardAlpha" values="0 0 0 0 0 0 0 0 0 0 0 0 0 0 0 0 0 0 127 0"/><feOffset dx="-.1" dy=".1"/><feGaussianBlur stdDeviation=".15"/><feComposite in2="hardAlpha" operator="out"/><feColorMatrix values="0 0 0 0 0.772549 0 0 0 0 0.752941 0 0 0 0 0.803922 0 0 0 1 0"/><feBlend in2="BackgroundImageFix" result="effect1_dropShadow_18_22775"/><feBlend in="SourceGraphic" in2="effect1_dropShadow_18_22775" result="shape"/><feColorMatrix in="SourceAlpha" result="hardAlpha" values="0 0 0 0 0 0 0 0 0 0 0 0 0 0 0 0 0 0 127 0"/><feOffset dx="-.1" dy=".1"/><feGaussianBlur stdDeviation=".075"/><feComposite in2="hardAlpha" k2="-1" k3="1" operator="arithmetic"/><feColorMatrix values="0 0 0 0 0.654902 0 0 0 0 0.647059 0 0 0 0 0.682353 0 0 0 1 0"/><feBlend in2="shape" result="effect2_innerShadow_18_22775"/><feColorMatrix in="SourceAlpha" result="hardAlpha" values="0 0 0 0 0 0 0 0 0 0 0 0 0 0 0 0 0 0 127 0"/><feOffset dx=".1" dy="-.1"/><feGaussianBlur stdDeviation=".075"/><feComposite in2="hardAlpha" k2="-1" k3="1" operator="arithmetic"/><feColorMatrix values="0 0 0 0 0.572549 0 0 0 0 0.564706 0 0 0 0 0.607843 0 0 0 1 0"/><feBlend in2="effect2_innerShadow_18_22775" result="effect3_innerShadow_18_22775"/></filter><filter id="filter7_dii_18_22775" width="3.405" height="3.405" x="14.151" y="17.995" color-interpolation-filters="sRGB" filterUnits="userSpaceOnUse"><feFlood flood-opacity="0" result="BackgroundImageFix"/><feColorMatrix in="SourceAlpha" result="hardAlpha" values="0 0 0 0 0 0 0 0 0 0 0 0 0 0 0 0 0 0 127 0"/><feOffset dx="-.1" dy=".1"/><feGaussianBlur stdDeviation=".15"/><feComposite in2="hardAlpha" operator="out"/><feColorMatrix values="0 0 0 0 0.772549 0 0 0 0 0.752941 0 0 0 0 0.803922 0 0 0 1 0"/><feBlend in2="BackgroundImageFix" result="effect1_dropShadow_18_22775"/><feBlend in="SourceGraphic" in2="effect1_dropShadow_18_22775" result="shape"/><feColorMatrix in="SourceAlpha" result="hardAlpha" values="0 0 0 0 0 0 0 0 0 0 0 0 0 0 0 0 0 0 127 0"/><feOffset dx="-.1" dy=".1"/><feGaussianBlur stdDeviation=".075"/><feComposite in2="hardAlpha" k2="-1" k3="1" operator="arithmetic"/><feColorMatrix values="0 0 0 0 0.654902 0 0 0 0 0.647059 0 0 0 0 0.682353 0 0 0 1 0"/><feBlend in2="shape" result="effect2_innerShadow_18_22775"/><feColorMatrix in="SourceAlpha" result="hardAlpha" values="0 0 0 0 0 0 0 0 0 0 0 0 0 0 0 0 0 0 127 0"/><feOffset dx=".1" dy="-.1"/><feGaussianBlur stdDeviation=".075"/><feComposite in2="hardAlpha" k2="-1" k3="1" operator="arithmetic"/><feColorMatrix values="0 0 0 0 0.572549 0 0 0 0 0.564706 0 0 0 0 0.607843 0 0 0 1 0"/><feBlend in2="effect2_innerShadow_18_22775" result="effect3_innerShadow_18_22775"/></filter><filter id="filter8_dii_18_22775" width="3.405" height="3.405" x="14.151" y="22.995" color-interpolation-filters="sRGB" filterUnits="userSpaceOnUse"><feFlood flood-opacity="0" result="BackgroundImageFix"/><feColorMatrix in="SourceAlpha" result="hardAlpha" values="0 0 0 0 0 0 0 0 0 0 0 0 0 0 0 0 0 0 127 0"/><feOffset dx="-.1" dy=".1"/><feGaussianBlur stdDeviation=".15"/><feComposite in2="hardAlpha" operator="out"/><feColorMatrix values="0 0 0 0 0.772549 0 0 0 0 0.752941 0 0 0 0 0.803922 0 0 0 1 0"/><feBlend in2="BackgroundImageFix" result="effect1_dropShadow_18_22775"/><feBlend in="SourceGraphic" in2="effect1_dropShadow_18_22775" result="shape"/><feColorMatrix in="SourceAlpha" result="hardAlpha" values="0 0 0 0 0 0 0 0 0 0 0 0 0 0 0 0 0 0 127 0"/><feOffset dx="-.1" dy=".1"/><feGaussianBlur stdDeviation=".075"/><feComposite in2="hardAlpha" k2="-1" k3="1" operator="arithmetic"/><feColorMatrix values="0 0 0 0 0.654902 0 0 0 0 0.647059 0 0 0 0 0.682353 0 0 0 1 0"/><feBlend in2="shape" result="effect2_innerShadow_18_22775"/><feColorMatrix in="SourceAlpha" result="hardAlpha" values="0 0 0 0 0 0 0 0 0 0 0 0 0 0 0 0 0 0 127 0"/><feOffset dx=".1" dy="-.1"/><feGaussianBlur stdDeviation=".075"/><feComposite in2="hardAlpha" k2="-1" k3="1" operator="arithmetic"/><feColorMatrix values="0 0 0 0 0.572549 0 0 0 0 0.564706 0 0 0 0 0.607843 0 0 0 1 0"/><feBlend in2="effect2_innerShadow_18_22775" result="effect3_innerShadow_18_22775"/></filter><filter id="filter9_dii_18_22775" width="3.405" height="3.405" x="20.139" y="17.995" color-interpolation-filters="sRGB" filterUnits="userSpaceOnUse"><feFlood flood-opacity="0" result="BackgroundImageFix"/><feColorMatrix in="SourceAlpha" result="hardAlpha" values="0 0 0 0 0 0 0 0 0 0 0 0 0 0 0 0 0 0 127 0"/><feOffset dx="-.1" dy=".1"/><feGaussianBlur stdDeviation=".15"/><feComposite in2="hardAlpha" operator="out"/><feColorMatrix values="0 0 0 0 0.858824 0 0 0 0 0.835294 0 0 0 0 0.917647 0 0 0 1 0"/><feBlend in2="BackgroundImageFix" result="effect1_dropShadow_18_22775"/><feBlend in="SourceGraphic" in2="effect1_dropShadow_18_22775" result="shape"/><feColorMatrix in="SourceAlpha" result="hardAlpha" values="0 0 0 0 0 0 0 0 0 0 0 0 0 0 0 0 0 0 127 0"/><feOffset dx="-.1" dy=".1"/><feGaussianBlur stdDeviation=".075"/><feComposite in2="hardAlpha" k2="-1" k3="1" operator="arithmetic"/><feColorMatrix values="0 0 0 0 0.34902 0 0 0 0 0.631373 0 0 0 0 0.917647 0 0 0 1 0"/><feBlend in2="shape" result="effect2_innerShadow_18_22775"/><feColorMatrix in="SourceAlpha" result="hardAlpha" values="0 0 0 0 0 0 0 0 0 0 0 0 0 0 0 0 0 0 127 0"/><feOffset dx=".1" dy="-.1"/><feGaussianBlur stdDeviation=".075"/><feComposite in2="hardAlpha" k2="-1" k3="1" operator="arithmetic"/><feColorMatrix values="0 0 0 0 0.254902 0 0 0 0 0.498039 0 0 0 0 0.819608 0 0 0 1 0"/><feBlend in2="effect2_innerShadow_18_22775" result="effect3_innerShadow_18_22775"/></filter><filter id="filter10_dii_18_22775" width="3.405" height="3.405" x="20.139" y="22.995" color-interpolation-filters="sRGB" filterUnits="userSpaceOnUse"><feFlood flood-opacity="0" result="BackgroundImageFix"/><feColorMatrix in="SourceAlpha" result="hardAlpha" values="0 0 0 0 0 0 0 0 0 0 0 0 0 0 0 0 0 0 127 0"/><feOffset dx="-.1" dy=".1"/><feGaussianBlur stdDeviation=".15"/><feComposite in2="hardAlpha" operator="out"/><feColorMatrix values="0 0 0 0 0.772549 0 0 0 0 0.752941 0 0 0 0 0.803922 0 0 0 1 0"/><feBlend in2="BackgroundImageFix" result="effect1_dropShadow_18_22775"/><feBlend in="SourceGraphic" in2="effect1_dropShadow_18_22775" result="shape"/><feColorMatrix in="SourceAlpha" result="hardAlpha" values="0 0 0 0 0 0 0 0 0 0 0 0 0 0 0 0 0 0 127 0"/><feOffset dx="-.1" dy=".1"/><feGaussianBlur stdDeviation=".075"/><feComposite in2="hardAlpha" k2="-1" k3="1" operator="arithmetic"/><feColorMatrix values="0 0 0 0 0.654902 0 0 0 0 0.647059 0 0 0 0 0.682353 0 0 0 1 0"/><feBlend in2="shape" result="effect2_innerShadow_18_22775"/><feColorMatrix in="SourceAlpha" result="hardAlpha" values="0 0 0 0 0 0 0 0 0 0 0 0 0 0 0 0 0 0 127 0"/><feOffset dx=".1" dy="-.1"/><feGaussianBlur stdDeviation=".075"/><feComposite in2="hardAlpha" k2="-1" k3="1" operator="arithmetic"/><feColorMatrix values="0 0 0 0 0.572549 0 0 0 0 0.564706 0 0 0 0 0.607843 0 0 0 1 0"/><feBlend in2="effect2_innerShadow_18_22775" result="effect3_innerShadow_18_22775"/></filter><filter id="filter11_i_18_22775" width="9.842" height="9.842" x="20.18" y="19.82" color-interpolation-filters="sRGB" filterUnits="userSpaceOnUse"><feFlood flood-opacity="0" result="BackgroundImageFix"/><feBlend in="SourceGraphic" in2="BackgroundImageFix" result="shape"/><feColorMatrix in="SourceAlpha" result="hardAlpha" values="0 0 0 0 0 0 0 0 0 0 0 0 0 0 0 0 0 0 127 0"/><feOffset dx=".1" dy=".1"/><feGaussianBlur stdDeviation=".1"/><feComposite in2="hardAlpha" k2="-1" k3="1" operator="arithmetic"/><feColorMatrix values="0 0 0 0 0.803922 0 0 0 0 0.807843 0 0 0 0 0.870588 0 0 0 1 0"/><feBlend in2="shape" result="effect1_innerShadow_18_22775"/></filter><filter id="filter12_f_18_22775" width="18.656" height="8.5" x="12.25" y="2.611" color-interpolation-filters="sRGB" filterUnits="userSpaceOnUse"><feFlood flood-opacity="0" result="BackgroundImageFix"/><feBlend in="SourceGraphic" in2="BackgroundImageFix" result="shape"/><feGaussianBlur result="effect1_foregroundBlur_18_22775" stdDeviation=".625"/></filter><filter id="filter13_f_18_22775" width="4.928" height="5.925" x="19.43" y="2.82" color-interpolation-filters="sRGB" filterUnits="userSpaceOnUse"><feFlood flood-opacity="0" result="BackgroundImageFix"/><feBlend in="SourceGraphic" in2="BackgroundImageFix" result="shape"/><feGaussianBlur result="effect1_foregroundBlur_18_22775" stdDeviation=".375"/></filter><filter id="filter14_f_18_22775" width="4.928" height="5.925" x="13.801" y="2.82" color-interpolation-filters="sRGB" filterUnits="userSpaceOnUse"><feFlood flood-opacity="0" result="BackgroundImageFix"/><feBlend in="SourceGraphic" in2="BackgroundImageFix" result="shape"/><feGaussianBlur result="effect1_foregroundBlur_18_22775" stdDeviation=".375"/></filter><filter id="filter15_f_18_22775" width="4.928" height="5.925" x="8.64" y="2.82" color-interpolation-filters="sRGB" filterUnits="userSpaceOnUse"><feFlood flood-opacity="0" result="BackgroundImageFix"/><feBlend in="SourceGraphic" in2="BackgroundImageFix" result="shape"/><feGaussianBlur result="effect1_foregroundBlur_18_22775" stdDeviation=".375"/></filter><filter id="filter16_f_18_22775" width="4.902" height="5.925" x="3.799" y="2.82" color-interpolation-filters="sRGB" filterUnits="userSpaceOnUse"><feFlood flood-opacity="0" result="BackgroundImageFix"/><feBlend in="SourceGraphic" in2="BackgroundImageFix" result="shape"/><feGaussianBlur result="effect1_foregroundBlur_18_22775" stdDeviation=".375"/></filter><filter id="filter17_f_18_22775" width="5.834" height="6.713" x="5.034" y=".933" color-interpolation-filters="sRGB" filterUnits="userSpaceOnUse"><feFlood flood-opacity="0" result="BackgroundImageFix"/><feBlend in="SourceGraphic" in2="BackgroundImageFix" result="shape"/><feGaussianBlur result="effect1_foregroundBlur_18_22775" stdDeviation=".3"/></filter><filter id="filter18_f_18_22775" width="5.834" height="6.713" x="10.246" y=".933" color-interpolation-filters="sRGB" filterUnits="userSpaceOnUse"><feFlood flood-opacity="0" result="BackgroundImageFix"/><feBlend in="SourceGraphic" in2="BackgroundImageFix" result="shape"/><feGaussianBlur result="effect1_foregroundBlur_18_22775" stdDeviation=".3"/></filter><filter id="filter19_f_18_22775" width="5.834" height="6.713" x="15.496" y=".933" color-interpolation-filters="sRGB" filterUnits="userSpaceOnUse"><feFlood flood-opacity="0" result="BackgroundImageFix"/><feBlend in="SourceGraphic" in2="BackgroundImageFix" result="shape"/><feGaussianBlur result="effect1_foregroundBlur_18_22775" stdDeviation=".3"/></filter><filter id="filter20_f_18_22775" width="5.834" height="6.713" x="20.737" y=".933" color-interpolation-filters="sRGB" filterUnits="userSpaceOnUse"><feFlood flood-opacity="0" result="BackgroundImageFix"/><feBlend in="SourceGraphic" in2="BackgroundImageFix" result="shape"/><feGaussianBlur result="effect1_foregroundBlur_18_22775" stdDeviation=".3"/></filter><radialGradient id="paint3_radial_18_22775" cx="0" cy="0" r="1" gradientTransform="matrix(-19.63318 -3.40642 1.89374 -10.91473 21.711 10.383)" gradientUnits="userSpaceOnUse"><stop offset=".759" stop-color="#3E62C2" stop-opacity="0"/><stop offset="1" stop-color="#3B41A1"/></radialGradient><radialGradient id="paint6_radial_18_22775" cx="0" cy="0" r="1" gradientTransform="matrix(2.375 2.43369 -5.8978 5.75558 23.016 22.258)" gradientUnits="userSpaceOnUse"><stop stop-color="#E4DDED"/><stop offset="1" stop-color="#D5CFDC"/></radialGradient><radialGradient id="paint8_radial_18_22775" cx="0" cy="0" r="1" gradientTransform="rotate(152.761 14.895 6.05) scale(10.0874 14.5049)" gradientUnits="userSpaceOnUse"><stop stop-color="#70C0F8"/><stop offset="1" stop-color="#70C0F8" stop-opacity="0"/></radialGradient><radialGradient id="paint9_radial_18_22775" cx="0" cy="0" r="1" gradientTransform="rotate(137.82 3.973 3.793) scale(4.65984 5.16076)" gradientUnits="userSpaceOnUse"><stop offset=".525" stop-color="#C2C4CC"/><stop offset=".962" stop-color="#938DA1"/></radialGradient><radialGradient id="paint10_radial_18_22775" cx="0" cy="0" r="1" gradientTransform="matrix(1.18748 -2.10358 2.20832 1.2466 8.26 4.507)" gradientUnits="userSpaceOnUse"><stop offset=".546" stop-color="#8F96BB"/><stop offset="1" stop-color="#8F96BB" stop-opacity="0"/></radialGradient><radialGradient id="paint11_radial_18_22775" cx="0" cy="0" r="1" gradientTransform="rotate(137.82 6.579 4.798) scale(4.65984 5.16076)" gradientUnits="userSpaceOnUse"><stop offset=".525" stop-color="#C2C4CC"/><stop offset=".962" stop-color="#938DA1"/></radialGradient><radialGradient id="paint12_radial_18_22775" cx="0" cy="0" r="1" gradientTransform="matrix(1.1875 -2.10357 2.2083 1.24662 13.472 4.508)" gradientUnits="userSpaceOnUse"><stop offset=".546" stop-color="#8F96BB"/><stop offset="1" stop-color="#8F96BB" stop-opacity="0"/></radialGradient><radialGradient id="paint13_radial_18_22775" cx="0" cy="0" r="1" gradientTransform="rotate(137.82 9.204 5.81) scale(4.65984 5.16076)" gradientUnits="userSpaceOnUse"><stop offset=".525" stop-color="#C2C4CC"/><stop offset=".962" stop-color="#938DA1"/></radialGradient><radialGradient id="paint14_radial_18_22775" cx="0" cy="0" r="1" gradientTransform="matrix(1.1875 -2.10357 2.2083 1.24662 18.722 4.508)" gradientUnits="userSpaceOnUse"><stop offset=".546" stop-color="#8F96BB"/><stop offset="1" stop-color="#8F96BB" stop-opacity="0"/></radialGradient><radialGradient id="paint15_radial_18_22775" cx="0" cy="0" r="1" gradientTransform="rotate(137.82 11.824 6.82) scale(4.65984 5.16076)" gradientUnits="userSpaceOnUse"><stop offset=".525" stop-color="#C2C4CC"/><stop offset=".962" stop-color="#938DA1"/></radialGradient><radialGradient id="paint16_radial_18_22775" cx="0" cy="0" r="1" gradientTransform="matrix(1.1875 -2.10357 2.2083 1.24662 23.963 4.508)" gradientUnits="userSpaceOnUse"><stop offset=".546" stop-color="#8F96BB"/><stop offset="1" stop-color="#8F96BB" stop-opacity="0"/></radialGradient><linearGradient id="paint0_linear_18_22775" x1="5.175" x2="28.023" y1="18.07" y2="18.07" gradientUnits="userSpaceOnUse"><stop stop-color="#E4DEEC"/><stop offset="1" stop-color="#E7E2EF"/></linearGradient><linearGradient id="paint1_linear_18_22775" x1="1.751" x2="27.836" y1="8.832" y2="8.832" gradientUnits="userSpaceOnUse"><stop stop-color="#4271C7"/><stop offset=".794" stop-color="#4F9FDC"/></linearGradient><linearGradient id="paint2_linear_18_22775" x1="16" x2="16" y1="3.57" y2="5.486" gradientUnits="userSpaceOnUse"><stop stop-color="#5591D3"/><stop offset="1" stop-color="#5591D3" stop-opacity="0"/></linearGradient><linearGradient id="paint4_linear_18_22775" x1="21.175" x2="21.175" y1="11.204" y2="9.744" gradientUnits="userSpaceOnUse"><stop stop-color="#437AC4"/><stop offset="1" stop-color="#437AC4" stop-opacity="0"/></linearGradient><linearGradient id="paint5_linear_18_22775" x1="23.641" x2="19.984" y1="18.195" y2="20.82" gradientUnits="userSpaceOnUse"><stop stop-color="#4C92DE"/><stop offset="1" stop-color="#4B91DB"/></linearGradient><linearGradient id="paint7_linear_18_22775" x1="25.11" x2="24.852" y1="25.269" y2="25.012" gradientUnits="userSpaceOnUse"><stop offset=".461" stop-color="#BFB8CA"/><stop offset="1" stop-color="#D9D3E0" stop-opacity="0"/></linearGradient></defs></svg>