<svg xmlns="http://www.w3.org/2000/svg" width="32" height="32" fill="none" viewBox="0 0 32 32"><g clip-path="url(#clip0_31_30)"><g clip-path="url(#clip1_31_30)"><path fill="url(#paint0_radial_31_30)" d="M19.622 29.521c9.016-2.416 11.9-9.677 9.898-17.145-2-7.468-8.128-12.315-17.145-9.899C3.36 4.893.475 12.154 2.477 19.622c2 7.468 8.128 12.315 17.145 9.9Z"/><path fill="url(#paint1_radial_31_30)" d="M19.622 29.521c9.016-2.416 11.9-9.677 9.898-17.145-2-7.468-8.128-12.315-17.145-9.899C3.36 4.893.475 12.154 2.477 19.622c2 7.468 8.128 12.315 17.145 9.9Z"/><path fill="url(#paint2_radial_31_30)" d="M19.622 29.521c9.016-2.416 11.9-9.677 9.898-17.145-2-7.468-8.128-12.315-17.145-9.899C3.36 4.893.475 12.154 2.477 19.622c2 7.468 8.128 12.315 17.145 9.9Z"/><path fill="url(#paint3_radial_31_30)" fill-opacity=".6" d="M19.622 29.521c9.016-2.416 11.9-9.677 9.898-17.145-2-7.468-8.128-12.315-17.145-9.899C3.36 4.893.475 12.154 2.477 19.622c2 7.468 8.128 12.315 17.145 9.9Z"/><path fill="url(#paint4_radial_31_30)" d="M19.622 29.521c9.016-2.416 11.9-9.677 9.898-17.145-2-7.468-8.128-12.315-17.145-9.899C3.36 4.893.475 12.154 2.477 19.622c2 7.468 8.128 12.315 17.145 9.9Z"/><path fill="url(#paint5_radial_31_30)" d="M19.622 29.521c9.016-2.416 11.9-9.677 9.898-17.145-2-7.468-8.128-12.315-17.145-9.899C3.36 4.893.475 12.154 2.477 19.622c2 7.468 8.128 12.315 17.145 9.9Z"/><path fill="url(#paint6_radial_31_30)" d="M19.622 29.521c9.016-2.416 11.9-9.677 9.898-17.145-2-7.468-8.128-12.315-17.145-9.899C3.36 4.893.475 12.154 2.477 19.622c2 7.468 8.128 12.315 17.145 9.9Z"/><path fill="url(#paint7_radial_31_30)" d="M19.622 29.521c9.016-2.416 11.9-9.677 9.898-17.145-2-7.468-8.128-12.315-17.145-9.899C3.36 4.893.475 12.154 2.477 19.622c2 7.468 8.128 12.315 17.145 9.9Z"/></g><path fill="url(#paint8_radial_31_30)" d="M18.588 25.66C8.93 28.246 6.341 18.587 6.341 18.587l19.318-5.176s2.588 9.66-7.07 12.247Z"/><path fill="url(#paint9_linear_31_30)" d="M23.633 15.508 9.143 19.39a1.5 1.5 0 0 1-1.836-1.06l17.386-4.66a1.5 1.5 0 0 1-1.06 1.838Z"/><path fill="url(#paint10_radial_31_30)" d="M19.38 28.553c4.056-1.087 4.244-6.78 4.098-7.827-.34-2.336-4.096-1.884-6.526-1.233-2.43.65-5.961 2.161-5.065 4.338.397.981 3.436 5.809 7.493 4.722Z"/><g filter="url(#filter0_f_31_30)" opacity=".5"><path stroke="#fff" d="M20.65 25.625c.836-.742 2.51-2.226 2.12-3.675"/></g><circle cx="8.203" cy="13.948" r="5" fill="url(#paint11_radial_31_30)" transform="rotate(-15 8.203 13.948)"/><circle cx="17.475" cy="10.713" r="4.5" fill="url(#paint12_radial_31_30)" transform="rotate(-15 17.475 10.713)"/><path fill="#fff" d="M10.428 16.458A4.5 4.5 0 1 0 8.1 7.764a4.5 4.5 0 0 0 2.33 8.694Zm10.626-2.848a4.5 4.5 0 1 0-2.33-8.693 4.5 4.5 0 0 0 2.33 8.694Z"/><path fill="url(#paint13_linear_31_30)" d="M9.687 15.621a2 2 0 1 0-1.035-3.864 2 2 0 0 0 1.035 3.864Z"/><path fill="url(#paint14_linear_31_30)" d="M20.502 9.617a2 2 0 1 0-1.036-3.863 2 2 0 0 0 1.036 3.863Z"/></g><defs><radialGradient id="paint0_radial_31_30" cx="0" cy="0" r="1" gradientTransform="rotate(117.839 9.639 10.432) scale(37.5033)" gradientUnits="userSpaceOnUse"><stop stop-color="#FFF478"/><stop offset=".475" stop-color="#FFB02E"/><stop offset="1" stop-color="#F70A8D"/></radialGradient><radialGradient id="paint1_radial_31_30" cx="0" cy="0" r="1" gradientTransform="rotate(116.878 9.6 10.566) scale(38.9487)" gradientUnits="userSpaceOnUse"><stop stop-color="#FFF478"/><stop offset=".475" stop-color="#FFB02E"/><stop offset="1" stop-color="#F70A8D"/></radialGradient><radialGradient id="paint2_radial_31_30" cx="0" cy="0" r="1" gradientTransform="matrix(1.1486 17.8096 -22.81071 1.47114 15.094 12.62)" gradientUnits="userSpaceOnUse"><stop offset=".788" stop-color="#F59639" stop-opacity="0"/><stop offset=".973" stop-color="#FF7DCE"/></radialGradient><radialGradient id="paint3_radial_31_30" cx="0" cy="0" r="1" gradientTransform="rotate(120 4.795 11.802) scale(41.0122)" gradientUnits="userSpaceOnUse"><stop offset=".315" stop-opacity="0"/><stop offset="1"/></radialGradient><radialGradient id="paint4_radial_31_30" cx="0" cy="0" r="1" gradientTransform="rotate(62.692 -5.797 21.83) scale(28.1469)" gradientUnits="userSpaceOnUse"><stop offset=".508" stop-color="#7D6133" stop-opacity="0"/><stop offset="1" stop-color="#715B32"/></radialGradient><radialGradient id="paint5_radial_31_30" cx="0" cy="0" r="1" gradientTransform="matrix(10.09144 8.68402 -6.29463 7.3148 16.612 16.354)" gradientUnits="userSpaceOnUse"><stop stop-color="#FFB849"/><stop offset="1" stop-color="#FFB847" stop-opacity="0"/></radialGradient><radialGradient id="paint6_radial_31_30" cx="0" cy="0" r="1" gradientTransform="rotate(-5.134 197.422 -224.298) scale(11.6726)" gradientUnits="userSpaceOnUse"><stop stop-color="#FFA64B"/><stop offset=".9" stop-color="#FFAE46" stop-opacity="0"/></radialGradient><radialGradient id="paint7_radial_31_30" cx="0" cy="0" r="1" gradientTransform="rotate(28.971 -19.75 40.592) scale(59.0529)" gradientUnits="userSpaceOnUse"><stop offset=".185" stop-opacity="0"/><stop offset="1" stop-opacity=".4"/></radialGradient><radialGradient id="paint8_radial_31_30" cx="0" cy="0" r="1" gradientTransform="rotate(-105 20.25 6.55) scale(12.2222 24.4444)" gradientUnits="userSpaceOnUse"><stop stop-color="#F70A8D"/><stop offset="1" stop-color="#89029C"/></radialGradient><radialGradient id="paint10_radial_31_30" cx="0" cy="0" r="1" gradientTransform="rotate(-114.866 19.44 8.276) scale(11.6726 20.292)" gradientUnits="userSpaceOnUse"><stop stop-color="#FF1C4A"/><stop offset=".766" stop-color="#FF2B8F"/><stop offset=".864" stop-color="#BB0773"/><stop offset=".886" stop-color="#9F0762"/></radialGradient><radialGradient id="paint11_radial_31_30" cx="0" cy="0" r="1" gradientTransform="rotate(146.661 4.54 6.84) scale(10.4604 5.41393)" gradientUnits="userSpaceOnUse"><stop stop-color="#392108"/><stop offset="1" stop-color="#C87928" stop-opacity="0"/></radialGradient><radialGradient id="paint12_radial_31_30" cx="0" cy="0" r="1" gradientTransform="rotate(-147.897 11.846 2.443) scale(6.80073 3.83912)" gradientUnits="userSpaceOnUse"><stop stop-color="#392108"/><stop offset="1" stop-color="#C87928" stop-opacity="0"/></radialGradient><linearGradient id="paint9_linear_31_30" x1="16" x2="16.388" y1="16" y2="17.449" gradientUnits="userSpaceOnUse"><stop stop-color="#ECCDFF"/><stop offset="1" stop-color="#fff"/></linearGradient><linearGradient id="paint13_linear_31_30" x1="16.973" x2="17.351" y1="9.528" y2="13.599" gradientUnits="userSpaceOnUse"><stop stop-color="#553B3E"/><stop offset="1" stop-color="#3D2432"/></linearGradient><linearGradient id="paint14_linear_31_30" x1="20.061" x2="20.438" y1="5.594" y2="9.666" gradientUnits="userSpaceOnUse"><stop stop-color="#553B3E"/><stop offset="1" stop-color="#3D2432"/></linearGradient><clipPath id="clip0_31_30"><path fill="#fff" d="M0 0h32v32H0z"/></clipPath><clipPath id="clip1_31_30"><path fill="#fff" d="m-3.596 4.686 30.91-8.282 8.282 30.91-30.91 8.282z"/></clipPath><filter id="filter0_f_31_30" width="5.011" height="6.178" x="19.318" y="20.821" color-interpolation-filters="sRGB" filterUnits="userSpaceOnUse"><feFlood flood-opacity="0" result="BackgroundImageFix"/><feBlend in="SourceGraphic" in2="BackgroundImageFix" result="shape"/><feGaussianBlur result="effect1_foregroundBlur_31_30" stdDeviation=".5"/></filter></defs></svg>