<svg xmlns="http://www.w3.org/2000/svg" width="32" height="32" fill="none" viewBox="0 0 32 32"><path fill="#886761" d="m8.301 15.657 1.422-1.034 1.332 1.832-1.422 1.034z"/><path fill="url(#a)" d="M9.895 10.877a1.261 1.261 0 0 1-.648-.122l-.145.173 1.083.909c.305-.097.532-.41.408-.663-.106-.217-.364-.337-.698-.297Z"/><path fill="url(#b)" d="M9.895 10.877a1.261 1.261 0 0 1-.648-.122l-.145.173 1.083.909c.305-.097.532-.41.408-.663-.106-.217-.364-.337-.698-.297Z"/><g filter="url(#c)"><path fill="url(#d)" d="M8.787 10.314c-.802-.61-1.383-.672-1.59-.646L4.182 13.26l2.993 2.615c2.742.88 4.965-1.592 4.545-2.592-.42-1-2.006-2.262-2.934-2.968Z"/><path fill="url(#e)" d="M8.787 10.314c-.802-.61-1.383-.672-1.59-.646L4.182 13.26l2.993 2.615c2.742.88 4.965-1.592 4.545-2.592-.42-1-2.006-2.262-2.934-2.968Z"/><path fill="url(#f)" d="M8.787 10.314c-.802-.61-1.383-.672-1.59-.646L4.182 13.26l2.993 2.615c2.742.88 4.965-1.592 4.545-2.592-.42-1-2.006-2.262-2.934-2.968Z"/><path fill="url(#g)" d="M8.787 10.314c-.802-.61-1.383-.672-1.59-.646L4.182 13.26l2.993 2.615c2.742.88 4.965-1.592 4.545-2.592-.42-1-2.006-2.262-2.934-2.968Z"/></g><g filter="url(#h)"><path fill="url(#i)" d="M6.401 8.56c-.66-.165-1.14.2-1.35.48-.65.865-.458 1.217-1.24 1.836-.826.654-1.106 1.083-1.236 1.55l-.003.01c-.128.46-.394 1.412 1.018 2.597 1.3 1.091 2.376 1.203 2.81 1.185l-.022.058c-.106.29.054.58.344.687.248.091.56-.058.766-.401.236-.393.402-.686.53-.92a.312.312 0 0 0-.074-.388l-1.07-.899c-.451-.378-.454-.922-.416-1.13-.454-.406-.548-.729-.465-1.056.137-.543.33-.585 1.048-1.555.723-.976.187-1.848-.64-2.054Z"/><path fill="url(#j)" d="M6.401 8.56c-.66-.165-1.14.2-1.35.48-.65.865-.458 1.217-1.24 1.836-.826.654-1.106 1.083-1.236 1.55l-.003.01c-.128.46-.394 1.412 1.018 2.597 1.3 1.091 2.376 1.203 2.81 1.185l-.022.058c-.106.29.054.58.344.687.248.091.56-.058.766-.401.236-.393.402-.686.53-.92a.312.312 0 0 0-.074-.388l-1.07-.899c-.451-.378-.454-.922-.416-1.13-.454-.406-.548-.729-.465-1.056.137-.543.33-.585 1.048-1.555.723-.976.187-1.848-.64-2.054Z"/><path fill="url(#k)" d="M6.401 8.56c-.66-.165-1.14.2-1.35.48-.65.865-.458 1.217-1.24 1.836-.826.654-1.106 1.083-1.236 1.55l-.003.01c-.128.46-.394 1.412 1.018 2.597 1.3 1.091 2.376 1.203 2.81 1.185l-.022.058c-.106.29.054.58.344.687.248.091.56-.058.766-.401.236-.393.402-.686.53-.92a.312.312 0 0 0-.074-.388l-1.07-.899c-.451-.378-.454-.922-.416-1.13-.454-.406-.548-.729-.465-1.056.137-.543.33-.585 1.048-1.555.723-.976.187-1.848-.64-2.054Z"/></g><path fill="url(#l)" d="m7.949 14.154-1.546-.97a.913.913 0 0 0 1.546.97Z"/><path fill="url(#m)" d="m7.949 14.154-1.546-.97a.913.913 0 0 0 1.546.97Z"/><path fill="url(#n)" d="m7.949 14.154-1.546-.97a.913.913 0 0 0 1.546.97Z"/><path fill="#86004C" fill-rule="evenodd" d="M9.612 13.059a.155.155 0 0 0 .171.14c.417-.04.753-.323.852-.42a.157.157 0 0 0-.219-.225c-.085.083-.355.303-.663.333a.157.157 0 0 0-.141.171Z" clip-rule="evenodd"/><g filter="url(#o)"><path fill="#403235" fill-rule="evenodd" d="M7.734 11.101a.967.967 0 0 1 .16-.22.188.188 0 1 0-.256-.277 1.322 1.322 0 0 0-.234.317c-.078.143-.15.328-.163.532a.188.188 0 0 0 .376.023.92.92 0 0 1 .117-.375Z" clip-rule="evenodd"/></g><path fill="#fff" d="m9.142 11.442-.798.951c-.377-.316-.504-.785-.284-1.048.22-.262.705-.219 1.082.097Z"/><path fill="url(#p)" d="m8.653 12.024-.004-.003c-.308-.258-.447-.6-.31-.763.136-.163.497-.085.805.173l.004.003-.495.59Z"/><path fill="url(#q)" d="M8.81 11.837a.8.8 0 0 1-.072-.055c-.179-.15-.26-.347-.181-.44.078-.094.286-.048.465.102.024.02.046.04.066.062l-.277.33Z"/><ellipse fill="url(#r)" rx=".081" ry=".11" transform="scale(-1 1) rotate(74.61 -11.764 -.022)"/><g filter="url(#s)"><path fill="url(#t)" d="M4.548 13.257a16.36 16.36 0 0 0 1.24 1.495 3.64 3.64 0 0 1-2.55-.618c-.52-.354-.264-1.165.335-1.357.432-.14.707.114.975.48Z"/></g><g filter="url(#u)"><path fill="url(#v)" d="M18.501 13.578a2.288 2.288 0 0 1 4.216-.309l1.812 3.6h-7.117l1.09-3.29Z"/><path fill="url(#w)" d="M18.501 13.578a2.288 2.288 0 0 1 4.216-.309l1.812 3.6h-7.117l1.09-3.29Z"/></g><g filter="url(#x)"><path fill="#ADADAD" d="M24.952 6.182v10.937h1.6V6.182a4.312 4.312 0 1 0-8.625 0v1.03h1.6v-1.03a2.713 2.713 0 0 1 5.425 0Z"/><path fill="url(#y)" d="M24.952 6.182v10.937h1.6V6.182a4.312 4.312 0 1 0-8.625 0v1.03h1.6v-1.03a2.713 2.713 0 0 1 5.425 0Z"/></g><g filter="url(#z)"><path fill="#4BD1F1" d="M14.396 19.432a3.216 3.216 0 0 0 2.705-1.475 2.49 2.49 0 0 0 1.658.615c.66 0 1.256-.245 1.687-.64.51.615 1.401 1.023 2.415 1.023 1.585 0 2.87-.998 2.87-2.23 0-1.051-1.285-2.23-2.87-2.23-.79 0-1.504.247-2.023.647a.107.107 0 0 1-.15-.019c-.432-.546-1.135-.902-1.929-.902a2.52 2.52 0 0 0-1.417.428.107.107 0 0 1-.152-.035 3.219 3.219 0 1 0-2.794 4.818Z"/><path fill="url(#A)" d="M14.396 19.432a3.216 3.216 0 0 0 2.705-1.475 2.49 2.49 0 0 0 1.658.615c.66 0 1.256-.245 1.687-.64.51.615 1.401 1.023 2.415 1.023 1.585 0 2.87-.998 2.87-2.23 0-1.051-1.285-2.23-2.87-2.23-.79 0-1.504.247-2.023.647a.107.107 0 0 1-.15-.019c-.432-.546-1.135-.902-1.929-.902a2.52 2.52 0 0 0-1.417.428.107.107 0 0 1-.152-.035 3.219 3.219 0 1 0-2.794 4.818Z"/><path fill="url(#B)" d="M14.396 19.432a3.216 3.216 0 0 0 2.705-1.475 2.49 2.49 0 0 0 1.658.615c.66 0 1.256-.245 1.687-.64.51.615 1.401 1.023 2.415 1.023 1.585 0 2.87-.998 2.87-2.23 0-1.051-1.285-2.23-2.87-2.23-.79 0-1.504.247-2.023.647a.107.107 0 0 1-.15-.019c-.432-.546-1.135-.902-1.929-.902a2.52 2.52 0 0 0-1.417.428.107.107 0 0 1-.152-.035 3.219 3.219 0 1 0-2.794 4.818Z"/></g><g filter="url(#C)"><circle cx="18.851" cy="16.73" r="2.291" fill="url(#D)"/><circle cx="18.851" cy="16.73" r="2.291" fill="url(#E)"/></g><g filter="url(#F)"><path fill="url(#G)" fill-rule="evenodd" d="M17.128 15.157c-.476.39-.798.967-.846 1.628-.031.414.049.811.214 1.161a2.742 2.742 0 1 1 .631-2.789Z" clip-rule="evenodd"/></g><rect width="1.608" height="5.132" fill="url(#H)" rx=".804" transform="scale(-1 1) rotate(45 -41.287 -13.074)"/><rect width="1.608" height="5.132" fill="url(#I)" rx=".804" transform="scale(-1 1) rotate(45 -41.287 -13.074)"/><rect width="1.608" height="5.132" fill="url(#J)" rx=".804" transform="scale(-1 1) rotate(45 -41.287 -13.074)"/><rect width="1.608" height="5.132" x="11.782" y="25.365" fill="#735F86" rx=".804" transform="rotate(45 11.782 25.365)"/><rect width="1.608" height="5.132" x="11.782" y="25.365" fill="url(#K)" rx=".804" transform="rotate(45 11.782 25.365)"/><rect width="1.608" height="5.132" x="11.782" y="25.365" fill="url(#L)" rx=".804" transform="rotate(45 11.782 25.365)"/><g filter="url(#M)"><path fill="url(#N)" d="m5.227 22.375-1.456-4.568h25.578l-1.477 4.59a7.8 7.8 0 0 1-7.425 5.41h-7.788a7.8 7.8 0 0 1-7.432-5.431Z"/></g><path fill="url(#O)" d="m5.227 22.375-1.456-4.568h25.578l-1.477 4.59a7.8 7.8 0 0 1-7.425 5.41h-7.788a7.8 7.8 0 0 1-7.432-5.431Z"/><path fill="url(#P)" d="m5.227 22.375-1.456-4.568h25.578l-1.477 4.59a7.8 7.8 0 0 1-7.425 5.41h-7.788a7.8 7.8 0 0 1-7.432-5.431Z"/><g filter="url(#Q)"><rect width="27.844" height="2.246" x="2.662" y="15.908" fill="url(#R)" rx="1.123"/><rect width="27.844" height="2.246" x="2.662" y="15.908" fill="url(#S)" rx="1.123"/></g><rect width="27.844" height="2.246" x="2.662" y="15.908" fill="url(#T)" rx="1.123"/><g filter="url(#U)"><path stroke="url(#V)" stroke-width=".75" d="M22.302 2.666c1.219-.052 3.656.94 3.656 3.766v9.375"/></g><g filter="url(#W)"><path stroke="url(#X)" stroke-width=".75" d="M20.226 3.385c-.458.406-1.375 1.612-1.375 3.187"/></g><path fill="url(#Y)" d="M21.091 8.611c.28 0 .509-.23.456-.504-.249-1.307-1.37-2.293-2.714-2.293-1.344 0-2.464.986-2.714 2.293-.052.274.177.504.457.504h4.515Z"/><path fill="url(#Z)" d="M21.091 8.611c.28 0 .509-.23.456-.504-.249-1.307-1.37-2.293-2.714-2.293-1.344 0-2.464.986-2.714 2.293-.052.274.177.504.457.504h4.515Z"/><defs><radialGradient id="a" cx="0" cy="0" r="1" gradientTransform="rotate(101.587 .81 9.778) scale(.68058 .96065)" gradientUnits="userSpaceOnUse"><stop offset=".101" stop-color="#BF9580"/><stop offset=".684" stop-color="#AD7F6D"/></radialGradient><radialGradient id="b" cx="0" cy="0" r="1" gradientTransform="rotate(-117.617 8.775 2.61) scale(.396 .59433)" gradientUnits="userSpaceOnUse"><stop stop-color="#A66D75"/><stop offset="1" stop-color="#A66D75" stop-opacity="0"/></radialGradient><radialGradient id="e" cx="0" cy="0" r="1" gradientTransform="rotate(-53.18 17.35 .043) scale(1.06144 1.29411)" gradientUnits="userSpaceOnUse"><stop offset=".156" stop-color="#916051"/><stop offset="1" stop-color="#9C6E67" stop-opacity="0"/></radialGradient><radialGradient id="f" cx="0" cy="0" r="1" gradientTransform="rotate(-140 7.397 4.146) scale(6.51586 2.53177)" gradientUnits="userSpaceOnUse"><stop offset=".219" stop-color="#C19382"/><stop offset="1" stop-color="#BD927E" stop-opacity="0"/></radialGradient><radialGradient id="g" cx="0" cy="0" r="1" gradientTransform="matrix(.37586 .31539 -.49185 .58616 8.633 11.953)" gradientUnits="userSpaceOnUse"><stop offset=".155" stop-color="#A67D65"/><stop offset="1" stop-color="#A67D65" stop-opacity="0"/></radialGradient><radialGradient id="i" cx="0" cy="0" r="1" gradientTransform="rotate(168.984 2.747 6.482) scale(3.88925 5.91237)" gradientUnits="userSpaceOnUse"><stop offset=".194" stop-color="#503339"/><stop offset="1" stop-color="#583E3B"/></radialGradient><radialGradient id="j" cx="0" cy="0" r="1" gradientTransform="rotate(166.088 2.984 4.89) scale(1.86588 3.00185)" gradientUnits="userSpaceOnUse"><stop stop-color="#68514D"/><stop offset="1" stop-color="#68514D" stop-opacity="0"/></radialGradient><radialGradient id="k" cx="0" cy="0" r="1" gradientTransform="matrix(.56544 -.3838 .18858 .27783 6.37 16.268)" gradientUnits="userSpaceOnUse"><stop offset=".197" stop-color="#5F4745"/><stop offset="1" stop-color="#5F4745" stop-opacity="0"/></radialGradient><radialGradient id="l" cx="0" cy="0" r="1" gradientTransform="matrix(-.78958 .5288 -.2581 -.38538 6.986 13.597)" gradientUnits="userSpaceOnUse"><stop offset=".17" stop-color="#BA9682"/><stop offset="1" stop-color="#AD8570"/></radialGradient><radialGradient id="m" cx="0" cy="0" r="1" gradientTransform="rotate(50.843 -10.742 13.71) scale(1.50878 1.57221)" gradientUnits="userSpaceOnUse"><stop offset=".556" stop-color="#9E6563" stop-opacity="0"/><stop offset="1" stop-color="#9E6563"/></radialGradient><radialGradient id="p" cx="0" cy="0" r="1" gradientTransform="matrix(-.22077 .2631 -.51117 -.42892 8.897 11.691)" gradientUnits="userSpaceOnUse"><stop offset=".895" stop-color="#916A62"/><stop offset="1" stop-color="#824D44"/></radialGradient><radialGradient id="q" cx="0" cy="0" r="1" gradientTransform="matrix(-.20185 .24055 -.52057 -.4368 9.053 11.548)" gradientUnits="userSpaceOnUse"><stop stop-color="#666361"/><stop offset=".813" stop-color="#565352"/></radialGradient><radialGradient id="v" cx="0" cy="0" r="1" gradientTransform="matrix(0 -2.09375 .5802 0 20.802 15.15)" gradientUnits="userSpaceOnUse"><stop offset=".41" stop-color="#956D71"/><stop offset="1" stop-color="#A07F6C"/></radialGradient><radialGradient id="w" cx="0" cy="0" r="1" gradientTransform="matrix(-1.49998 -3.09376 1.67378 -.81152 23.52 14.713)" gradientUnits="userSpaceOnUse"><stop stop-color="#BD9B86"/><stop offset="1" stop-color="#8E706A" stop-opacity="0"/><stop offset="1" stop-color="#BD9B86" stop-opacity="0"/></radialGradient><radialGradient id="y" cx="0" cy="0" r="1" gradientTransform="matrix(4.78126 -4.84375 2.7395 2.70415 18.646 6.213)" gradientUnits="userSpaceOnUse"><stop stop-color="#A09FA0"/><stop offset="1" stop-color="#A09FA0" stop-opacity="0"/></radialGradient><radialGradient id="A" cx="0" cy="0" r="1" gradientTransform="rotate(-150.994 14.7 4.713) scale(3.60894 4.34333)" gradientUnits="userSpaceOnUse"><stop stop-color="#66EBFF"/><stop offset="1" stop-color="#66EBFF" stop-opacity="0"/></radialGradient><radialGradient id="B" cx="0" cy="0" r="1" gradientTransform="matrix(1.0625 2.625 -1.48498 .60106 19.49 13.838)" gradientUnits="userSpaceOnUse"><stop stop-color="#6AF0FF"/><stop offset="1" stop-color="#6AF0FF" stop-opacity="0"/></radialGradient><radialGradient id="D" cx="0" cy="0" r="1" gradientTransform="matrix(-1.90038 -2.5625 2.1013 -1.55835 20.751 15.874)" gradientUnits="userSpaceOnUse"><stop stop-color="#6EF3FF"/><stop offset="1" stop-color="#6EF3FF" stop-opacity="0"/></radialGradient><radialGradient id="E" cx="0" cy="0" r="1" gradientTransform="matrix(1.3125 -2.34375 2.00586 1.12328 16.845 16.405)" gradientUnits="userSpaceOnUse"><stop stop-color="#3DC6EB"/><stop offset="1" stop-color="#3DC6EB" stop-opacity="0"/></radialGradient><radialGradient id="G" cx="0" cy="0" r="1" gradientTransform="rotate(-138.668 11.43 4.377) scale(4.20282 3.66642)" gradientUnits="userSpaceOnUse"><stop stop-color="#6BF3FF"/><stop offset="1" stop-color="#6BF3FF" stop-opacity="0"/></radialGradient><radialGradient id="I" cx="0" cy="0" r="1" gradientTransform="rotate(79.16 -.565 1.44) scale(1.58615 1.72717)" gradientUnits="userSpaceOnUse"><stop stop-color="#7A6A8B"/><stop offset="1" stop-color="#7A6A8B" stop-opacity="0"/></radialGradient><radialGradient id="J" cx="0" cy="0" r="1" gradientTransform="matrix(.01364 -1.40058 .72806 .0071 .448 4.31)" gradientUnits="userSpaceOnUse"><stop stop-color="#BEBAC2"/><stop offset="1" stop-color="#968DA0" stop-opacity="0"/></radialGradient><radialGradient id="L" cx="0" cy="0" r="1" gradientTransform="rotate(-47.663 40.378 1.5) scale(.6726 1.0441)" gradientUnits="userSpaceOnUse"><stop stop-color="#88828E"/><stop offset="1" stop-color="#88828E" stop-opacity="0"/></radialGradient><radialGradient id="N" cx="0" cy="0" r="1" gradientTransform="matrix(-15.56247 -.06247 .03888 -9.68481 25.99 22.307)" gradientUnits="userSpaceOnUse"><stop stop-color="#E1DAEA"/><stop offset="1" stop-color="#C7BDD3"/></radialGradient><radialGradient id="O" cx="0" cy="0" r="1" gradientTransform="matrix(0 8.625 -39.1562 0 17.115 19.37)" gradientUnits="userSpaceOnUse"><stop offset=".572" stop-color="#BBA9CD" stop-opacity="0"/><stop offset="1" stop-color="#A887C7"/></radialGradient><radialGradient id="R" cx="0" cy="0" r="1" gradientTransform="matrix(0 1.25 -15.4957 0 25.24 16.65)" gradientUnits="userSpaceOnUse"><stop stop-color="#FEFCFF"/><stop offset="1" stop-color="#D5D3D8"/></radialGradient><radialGradient id="V" cx="0" cy="0" r="1" gradientTransform="matrix(-6.71874 10.18756 -7.15636 -4.71965 28.77 3.62)" gradientUnits="userSpaceOnUse"><stop offset=".008" stop-color="#C1C1C2"/><stop offset="1" stop-color="#C1C1C2" stop-opacity="0"/></radialGradient><radialGradient id="X" cx="0" cy="0" r="1" gradientTransform="matrix(1.5 -3.53125 2.69792 1.14602 19.538 6.572)" gradientUnits="userSpaceOnUse"><stop offset=".008" stop-color="#C1C1C2"/><stop offset="1" stop-color="#C1C1C2" stop-opacity="0"/></radialGradient><radialGradient id="Y" cx="0" cy="0" r="1" gradientTransform="matrix(-4.53418 0 0 -3.55867 20.646 8.611)" gradientUnits="userSpaceOnUse"><stop offset=".145" stop-color="#C1C1C2"/><stop offset=".717" stop-color="#929192"/></radialGradient><filter id="c" width="7.789" height="6.596" x="4.183" y="9.463" color-interpolation-filters="sRGB" filterUnits="userSpaceOnUse"><feFlood flood-opacity="0" result="BackgroundImageFix"/><feBlend in="SourceGraphic" in2="BackgroundImageFix" result="shape"/><feColorMatrix in="SourceAlpha" result="hardAlpha" values="0 0 0 0 0 0 0 0 0 0 0 0 0 0 0 0 0 0 127 0"/><feOffset dx=".2" dy="-.2"/><feGaussianBlur stdDeviation=".5"/><feComposite in2="hardAlpha" k2="-1" k3="1" operator="arithmetic"/><feColorMatrix values="0 0 0 0 0.603922 0 0 0 0 0.403922 0 0 0 0 0.466667 0 0 0 1 0"/><feBlend in2="shape" result="effect1_innerShadow_3987_24058"/></filter><filter id="h" width="5.592" height="8.621" x="2.465" y="8.368" color-interpolation-filters="sRGB" filterUnits="userSpaceOnUse"><feFlood flood-opacity="0" result="BackgroundImageFix"/><feBlend in="SourceGraphic" in2="BackgroundImageFix" result="shape"/><feColorMatrix in="SourceAlpha" result="hardAlpha" values="0 0 0 0 0 0 0 0 0 0 0 0 0 0 0 0 0 0 127 0"/><feOffset dy="-.15"/><feGaussianBlur stdDeviation=".15"/><feComposite in2="hardAlpha" k2="-1" k3="1" operator="arithmetic"/><feColorMatrix values="0 0 0 0 0.254902 0 0 0 0 0.14902 0 0 0 0 0.168627 0 0 0 1 0"/><feBlend in2="shape" result="effect1_innerShadow_3987_24058"/></filter><filter id="o" width=".814" height="1.199" x="7.14" y="10.554" color-interpolation-filters="sRGB" filterUnits="userSpaceOnUse"><feFlood flood-opacity="0" result="BackgroundImageFix"/><feBlend in="SourceGraphic" in2="BackgroundImageFix" result="shape"/><feColorMatrix in="SourceAlpha" result="hardAlpha" values="0 0 0 0 0 0 0 0 0 0 0 0 0 0 0 0 0 0 127 0"/><feOffset dx="-.1" dy=".1"/><feGaussianBlur stdDeviation=".1"/><feComposite in2="hardAlpha" k2="-1" k3="1" operator="arithmetic"/><feColorMatrix values="0 0 0 0 0.219608 0 0 0 0 0.168627 0 0 0 0 0.180392 0 0 0 1 0"/><feBlend in2="shape" result="effect1_innerShadow_3987_24058"/></filter><filter id="s" width="3.831" height="3.046" x="2.457" y="12.238" color-interpolation-filters="sRGB" filterUnits="userSpaceOnUse"><feFlood flood-opacity="0" result="BackgroundImageFix"/><feBlend in="SourceGraphic" in2="BackgroundImageFix" result="shape"/><feGaussianBlur result="effect1_foregroundBlur_3987_24058" stdDeviation=".25"/></filter><filter id="u" width="7.367" height="4.959" x="17.412" y="12.01" color-interpolation-filters="sRGB" filterUnits="userSpaceOnUse"><feFlood flood-opacity="0" result="BackgroundImageFix"/><feBlend in="SourceGraphic" in2="BackgroundImageFix" result="shape"/><feColorMatrix in="SourceAlpha" result="hardAlpha" values="0 0 0 0 0 0 0 0 0 0 0 0 0 0 0 0 0 0 127 0"/><feOffset dx=".25" dy=".1"/><feGaussianBlur stdDeviation=".4"/><feComposite in2="hardAlpha" k2="-1" k3="1" operator="arithmetic"/><feColorMatrix values="0 0 0 0 0.584314 0 0 0 0 0.494118 0 0 0 0 0.435294 0 0 0 1 0"/><feBlend in2="shape" result="effect1_innerShadow_3987_24058"/></filter><filter id="x" width="9.125" height="15.5" x="17.927" y="1.619" color-interpolation-filters="sRGB" filterUnits="userSpaceOnUse"><feFlood flood-opacity="0" result="BackgroundImageFix"/><feBlend in="SourceGraphic" in2="BackgroundImageFix" result="shape"/><feColorMatrix in="SourceAlpha" result="hardAlpha" values="0 0 0 0 0 0 0 0 0 0 0 0 0 0 0 0 0 0 127 0"/><feOffset dx=".5" dy="-.25"/><feGaussianBlur stdDeviation=".375"/><feComposite in2="hardAlpha" k2="-1" k3="1" operator="arithmetic"/><feColorMatrix values="0 0 0 0 0.509804 0 0 0 0 0.501961 0 0 0 0 0.498039 0 0 0 1 0"/><feBlend in2="shape" result="effect1_innerShadow_3987_24058"/></filter><filter id="z" width="14.805" height="6.438" x="11.177" y="12.994" color-interpolation-filters="sRGB" filterUnits="userSpaceOnUse"><feFlood flood-opacity="0" result="BackgroundImageFix"/><feBlend in="SourceGraphic" in2="BackgroundImageFix" result="shape"/><feColorMatrix in="SourceAlpha" result="hardAlpha" values="0 0 0 0 0 0 0 0 0 0 0 0 0 0 0 0 0 0 127 0"/><feOffset dx=".25"/><feGaussianBlur stdDeviation=".5"/><feComposite in2="hardAlpha" k2="-1" k3="1" operator="arithmetic"/><feColorMatrix values="0 0 0 0 0.415686 0 0 0 0 0.678431 0 0 0 0 0.74902 0 0 0 1 0"/><feBlend in2="shape" result="effect1_innerShadow_3987_24058"/></filter><filter id="C" width="5.582" height="5.582" x="16.06" y="13.94" color-interpolation-filters="sRGB" filterUnits="userSpaceOnUse"><feFlood flood-opacity="0" result="BackgroundImageFix"/><feBlend in="SourceGraphic" in2="BackgroundImageFix" result="shape"/><feGaussianBlur result="effect1_foregroundBlur_3987_24058" stdDeviation=".25"/></filter><filter id="F" width="6.341" height="6.485" x="11.286" y="12.793" color-interpolation-filters="sRGB" filterUnits="userSpaceOnUse"><feFlood flood-opacity="0" result="BackgroundImageFix"/><feBlend in="SourceGraphic" in2="BackgroundImageFix" result="shape"/><feGaussianBlur result="effect1_foregroundBlur_3987_24058" stdDeviation=".25"/></filter><filter id="M" width="28.578" height="11" x="3.771" y="16.807" color-interpolation-filters="sRGB" filterUnits="userSpaceOnUse"><feFlood flood-opacity="0" result="BackgroundImageFix"/><feBlend in="SourceGraphic" in2="BackgroundImageFix" result="shape"/><feColorMatrix in="SourceAlpha" result="hardAlpha" values="0 0 0 0 0 0 0 0 0 0 0 0 0 0 0 0 0 0 127 0"/><feOffset dx="3" dy="-1"/><feGaussianBlur stdDeviation="2"/><feComposite in2="hardAlpha" k2="-1" k3="1" operator="arithmetic"/><feColorMatrix values="0 0 0 0 0.678431 0 0 0 0 0.654902 0 0 0 0 0.709804 0 0 0 1 0"/><feBlend in2="shape" result="effect1_innerShadow_3987_24058"/></filter><filter id="Q" width="28.344" height="2.496" x="2.662" y="15.658" color-interpolation-filters="sRGB" filterUnits="userSpaceOnUse"><feFlood flood-opacity="0" result="BackgroundImageFix"/><feBlend in="SourceGraphic" in2="BackgroundImageFix" result="shape"/><feColorMatrix in="SourceAlpha" result="hardAlpha" values="0 0 0 0 0 0 0 0 0 0 0 0 0 0 0 0 0 0 127 0"/><feOffset dx=".5" dy="-.25"/><feGaussianBlur stdDeviation=".5"/><feComposite in2="hardAlpha" k2="-1" k3="1" operator="arithmetic"/><feColorMatrix values="0 0 0 0 0.705882 0 0 0 0 0.698039 0 0 0 0 0.705882 0 0 0 1 0"/><feBlend in2="shape" result="effect1_innerShadow_3987_24058"/></filter><filter id="U" width="5.047" height="14.518" x="21.786" y="1.789" color-interpolation-filters="sRGB" filterUnits="userSpaceOnUse"><feFlood flood-opacity="0" result="BackgroundImageFix"/><feBlend in="SourceGraphic" in2="BackgroundImageFix" result="shape"/><feGaussianBlur result="effect1_foregroundBlur_3987_24058" stdDeviation=".25"/></filter><filter id="W" width="2.999" height="4.468" x="17.976" y="2.604" color-interpolation-filters="sRGB" filterUnits="userSpaceOnUse"><feFlood flood-opacity="0" result="BackgroundImageFix"/><feBlend in="SourceGraphic" in2="BackgroundImageFix" result="shape"/><feGaussianBlur result="effect1_foregroundBlur_3987_24058" stdDeviation=".25"/></filter><linearGradient id="d" x1="7.884" x2="10.361" y1="14.204" y2="11.589" gradientUnits="userSpaceOnUse"><stop stop-color="#A87A72"/><stop offset="1" stop-color="#AB826C"/></linearGradient><linearGradient id="n" x1="7.096" x2="6.988" y1="13.598" y2="13.75" gradientUnits="userSpaceOnUse"><stop stop-color="#A17363"/><stop offset="1" stop-color="#A17363" stop-opacity="0"/></linearGradient><linearGradient id="r" x1="-.009" x2=".225" y1=".062" y2=".139" gradientUnits="userSpaceOnUse"><stop stop-color="#fff"/><stop offset="1" stop-color="#fff" stop-opacity="0"/></linearGradient><linearGradient id="t" x1="5.335" x2="2.186" y1="14.574" y2="12.661" gradientUnits="userSpaceOnUse"><stop offset=".421" stop-color="#644A48"/><stop offset="1" stop-color="#644A48" stop-opacity="0"/></linearGradient><linearGradient id="H" x1="1.641" x2="-.116" y1="2.961" y2="3.171" gradientUnits="userSpaceOnUse"><stop stop-color="#887A96"/><stop offset="1" stop-color="#A9A6AC"/></linearGradient><linearGradient id="K" x1="11.468" x2="13.015" y1="28.867" y2="28.624" gradientUnits="userSpaceOnUse"><stop stop-color="#807D83"/><stop offset="1" stop-color="#807D83" stop-opacity="0"/></linearGradient><linearGradient id="P" x1="16.56" x2="16.56" y1="17.807" y2="19.213" gradientUnits="userSpaceOnUse"><stop stop-color="#A090B0"/><stop offset="1" stop-color="#BCB0C8" stop-opacity="0"/></linearGradient><linearGradient id="S" x1="2.865" x2="12.115" y1="17.244" y2="17.244" gradientUnits="userSpaceOnUse"><stop stop-color="#BCB9BF"/><stop offset="1" stop-color="#BCB9BF" stop-opacity="0"/></linearGradient><linearGradient id="T" x1="17.927" x2="17.927" y1="18.154" y2="17.619" gradientUnits="userSpaceOnUse"><stop stop-color="#B1A1C2"/><stop offset="1" stop-color="#BBB2C3" stop-opacity="0"/></linearGradient><linearGradient id="Z" x1="19.412" x2="19.412" y1="8.611" y2="8.104" gradientUnits="userSpaceOnUse"><stop stop-color="#807F86"/><stop offset="1" stop-color="#8F9198" stop-opacity="0"/></linearGradient></defs></svg>