<svg xmlns="http://www.w3.org/2000/svg" width="32" height="32" fill="none" viewBox="0 0 32 32"><g clip-path="url(#clip0_6807_5247)"><path fill="url(#paint0_radial_6807_5247)" d="M15.999 29.998c9.334 0 13.999-6.268 13.999-14 0-7.73-4.665-13.998-14-13.998C6.665 2 2 8.268 2 15.999c0 7.731 4.664 13.999 13.999 13.999Z"/><path fill="url(#paint1_radial_6807_5247)" d="M15.999 29.998c9.334 0 13.999-6.268 13.999-14 0-7.73-4.665-13.998-14-13.998C6.665 2 2 8.268 2 15.999c0 7.731 4.664 13.999 13.999 13.999Z"/><path fill="url(#paint2_radial_6807_5247)" fill-opacity=".6" d="M15.999 29.998c9.334 0 13.999-6.268 13.999-14 0-7.73-4.665-13.998-14-13.998C6.665 2 2 8.268 2 15.999c0 7.731 4.664 13.999 13.999 13.999Z"/><path fill="url(#paint3_radial_6807_5247)" d="M15.999 29.998c9.334 0 13.999-6.268 13.999-14 0-7.73-4.665-13.998-14-13.998C6.665 2 2 8.268 2 15.999c0 7.731 4.664 13.999 13.999 13.999Z"/><path fill="url(#paint4_radial_6807_5247)" d="M15.999 29.998c9.334 0 13.999-6.268 13.999-14 0-7.73-4.665-13.998-14-13.998C6.665 2 2 8.268 2 15.999c0 7.731 4.664 13.999 13.999 13.999Z"/><path fill="url(#paint5_radial_6807_5247)" d="M15.999 29.998c9.334 0 13.999-6.268 13.999-14 0-7.73-4.665-13.998-14-13.998C6.665 2 2 8.268 2 15.999c0 7.731 4.664 13.999 13.999 13.999Z"/><path fill="url(#paint6_radial_6807_5247)" d="M15.999 29.998c9.334 0 13.999-6.268 13.999-14 0-7.73-4.665-13.998-14-13.998C6.665 2 2 8.268 2 15.999c0 7.731 4.664 13.999 13.999 13.999Z"/><g filter="url(#filter0_f_6807_5247)"><path fill="url(#paint7_radial_6807_5247)" fill-rule="evenodd" d="M12.104 22.07a.5.5 0 0 0-.522-.001l-.527.321-.718.529-.146.102a2.5 2.5 0 0 1-2.631.139l-.252-.138-1.05-.665a1 1 0 0 1 1.07-1.69l.998.632.196.108a.5.5 0 0 0 .526-.028l.124-.086.767-.565.603-.367a2.5 2.5 0 0 1 2.635.02l.042.027 1.13.807.11.085a.5.5 0 0 0 .572.024l.211-.134 1.095-.782.043-.027a2.5 2.5 0 0 1 2.635-.02l.602.367.767.565.124.086a.5.5 0 0 0 .526.028l.196-.108.997-.632a1 1 0 1 1 1.07 1.69l-1.05.665-.25.138a2.5 2.5 0 0 1-2.631-.14l-.147-.101-.718-.529-.527-.321a.5.5 0 0 0-.521 0l-1.092.78-.256.163a2.5 2.5 0 0 1-2.86-.123l-.085-.065-1.056-.755Z" clip-rule="evenodd"/></g><path fill="url(#paint8_radial_6807_5247)" d="m20.281 20.841.593-.805-.035-.026-.037-.023-.52.854Zm-.565-.344-.52.854.52-.854Zm1.443.985.57-.82-.57.82Zm-.136-.094-.593.805.011.008.011.008.571-.82Zm3.497.251a1 1 0 0 0-1.07-1.69l1.07 1.69Zm-1.56-.196.482.877.028-.015.026-.017-.535-.845Zm-.223.123-.481-.877.48.877Zm-5.714-.264.537.844.023-.014.022-.016-.582-.814Zm1.112-.792.534.845-.534-.845Zm-.018.011-.534-.846-.024.016-.023.016.581.814Zm-6.398.32-.52-.854-.038.023-.035.026.593.805Zm.565-.344.52.854-.52-.854Zm-1.443.985-.57-.82.57.82Zm.136-.094.57.821.012-.008.01-.008-.592-.805ZM8.55 19.95a1 1 0 1 0-1.07 1.69l1.07-1.69Zm.488 1.493-.535.845.026.017.028.015.481-.877Zm.224.123.481-.877-.481.877Zm5.714-.264.607-.794-.013-.01-.013-.01-.581.814Zm-1.112-.792-.534.845.534-.845Zm.018.011.581-.814-.023-.016-.025-.016-.533.846Zm2.907.93-.537-.844.537.844Zm4.012-1.464-.566-.344-1.04 1.708.565.344 1.04-1.708Zm.928.674-.136-.094-1.142 1.642.136.094 1.142-1.642Zm-.113-.078-.743-.547-1.186 1.61.742.547 1.187-1.61Zm1.832-.633-1.023.648 1.07 1.69 1.024-.649-1.07-1.69Zm-.97.616-.223.123.962 1.753.224-.122-.962-1.754Zm-5.992-.107-.233.148 1.073 1.687.233-.148-1.073-1.687Zm1.115-.795-.018.011 1.067 1.692.018-.012-1.067-1.691Zm-.066.043-1.094.782 1.163 1.627 1.093-.781-1.162-1.628Zm2.7-.064a2.5 2.5 0 0 0-2.634.021l1.067 1.691a.5.5 0 0 1 .527-.004l1.04-1.708Zm.352 2.66a2.5 2.5 0 0 0 2.63.14l-.962-1.754a.5.5 0 0 1-.526-.028l-1.142 1.642Zm-8.349-.608.565-.344-1.04-1.708-.566.344 1.041 1.708Zm-.827.608.136-.094-1.143-1.642-.135.094 1.142 1.642Zm.158-.11.742-.547-1.186-1.61-.743.547 1.187 1.61Zm-4.09-.554 1.024.649 1.07-1.69-1.023-.648-1.07 1.69Zm1.078.68.224.123.962-1.753-.224-.123-.962 1.754Zm5.811-.222.097.074 1.215-1.589-.097-.074-1.215 1.589Zm-1.038-.742.018.012 1.067-1.692-.018-.011-1.067 1.691Zm-.03-.02 1.094.781 1.163-1.627-1.094-.782-1.162 1.628Zm-.497.016a.5.5 0 0 1 .527.004l1.067-1.691a2.5 2.5 0 0 0-2.634-.02l1.04 1.707Zm-2.534-.69a.5.5 0 0 1-.526.028l-.962 1.753a2.5 2.5 0 0 0 2.63-.139l-1.142-1.642Zm5.983-.054a.5.5 0 0 1-.572-.025l-1.215 1.59a2.5 2.5 0 0 0 2.861.122l-1.074-1.687Z"/><g fill-opacity=".6" filter="url(#filter1_f_6807_5247)"><path fill="url(#paint9_radial_6807_5247)" d="M9.447 17.078a1 1 0 1 1-.894-1.79l2.206-1.103H14a1 1 0 0 1-.553.893l-4 2Z" style="mix-blend-mode:multiply"/><path fill="url(#paint10_radial_6807_5247)" d="M9.447 11.293a1 1 0 1 0-.894 1.79l2.206 1.102H14a1 1 0 0 0-.553-.892l-4-2Z" style="mix-blend-mode:multiply"/></g><path fill="url(#paint11_linear_6807_5247)" d="M9.447 16.64a1 1 0 1 1-.894-1.789l2.206-1.103H14a1 1 0 0 1-.553.892l-4 2Z"/><path fill="url(#paint12_linear_6807_5247)" d="M9.447 10.856a1 1 0 1 0-.894 1.789l2.206 1.103H14a1 1 0 0 0-.553-.892l-4-2Z"/><g filter="url(#filter2_f_6807_5247)"><path fill="url(#paint13_radial_6807_5247)" d="M21.959 17.078a1 1 0 0 0 .895-1.79l-2.207-1.103h-3.24a1 1 0 0 0 .552.893l4 2Z"/><path fill="url(#paint14_radial_6807_5247)" d="M21.959 11.293a1 1 0 0 1 .895 1.79l-2.207 1.102h-3.24a1 1 0 0 1 .552-.892l4-2Z"/></g><path fill="url(#paint15_linear_6807_5247)" d="M22.537 16.64a1 1 0 1 0 .895-1.789l-2.207-1.103h-3.24a1 1 0 0 0 .552.892l4 2Z"/><path fill="url(#paint16_linear_6807_5247)" d="M22.537 10.856a1 1 0 1 1 .895 1.789l-2.207 1.103h-3.24a1 1 0 0 1 .552-.892l4-2Z"/><path fill="url(#paint17_linear_6807_5247)" d="M14.439 16.01c-5.753.685-10.366 5.096-11.406 10.767-.12.664.1 1.324.52 1.777.66.605 1.69.595 2.331-.05a1.683 1.683 0 0 1 2.392-.005c.66.665 1.73.665 2.39 0 .661-.665 1.732-.695 2.392-.03.61.715 1.661.685 2.332.05.38-.393.61-.927.61-1.51V17.44c.01-.846-.72-1.53-1.561-1.43Z"/><g filter="url(#filter3_f_6807_5247)"><path fill="url(#paint18_linear_6807_5247)" d="M4.31 28.81a1.688 1.688 0 0 1-.523-.326 2.093 2.093 0 0 1-.52-1.778c1.686-5.411 4.43-8.41 8.999-9.888L4.31 28.81Z"/></g><g filter="url(#filter4_f_6807_5247)"><path fill="#D9B2FD" d="m11.923 26.165-2.075.593a.48.48 0 0 1-.6-.6c.507-1.632 1.763-5.231 3.498-7.152.498-.551 1.16-.138 1.032.594-.32 1.827-.9 4.615-1.154 5.816a.992.992 0 0 1-.701.749Z"/></g></g><defs><radialGradient id="paint0_radial_6807_5247" cx="0" cy="0" r="1" gradientTransform="rotate(131.878 10.74 10.193) scale(38.9487)" gradientUnits="userSpaceOnUse"><stop stop-color="#FFF478"/><stop offset=".475" stop-color="#FFB02E"/><stop offset="1" stop-color="#F70A8D"/></radialGradient><radialGradient id="paint1_radial_6807_5247" cx="0" cy="0" r="1" gradientTransform="rotate(101.31 2.876 12.808) scale(17.8466 22.8581)" gradientUnits="userSpaceOnUse"><stop offset=".788" stop-color="#F59639" stop-opacity="0"/><stop offset=".973" stop-color="#FF7DCE"/></radialGradient><radialGradient id="paint2_radial_6807_5247" cx="0" cy="0" r="1" gradientTransform="matrix(-29 29 -29 -29 18 14)" gradientUnits="userSpaceOnUse"><stop offset=".315" stop-opacity="0"/><stop offset="1"/></radialGradient><radialGradient id="paint3_radial_6807_5247" cx="0" cy="0" r="1" gradientTransform="rotate(77.692 -2.555 18.434) scale(28.1469)" gradientUnits="userSpaceOnUse"><stop offset=".508" stop-color="#7D6133" stop-opacity="0"/><stop offset="1" stop-color="#715B32"/></radialGradient><radialGradient id="paint4_radial_6807_5247" cx="0" cy="0" r="1" gradientTransform="matrix(7.5 10.99996 -7.97335 5.4364 16.5 16.5)" gradientUnits="userSpaceOnUse"><stop stop-color="#FFB849"/><stop offset="1" stop-color="#FFB847" stop-opacity="0"/></radialGradient><radialGradient id="paint5_radial_6807_5247" cx="0" cy="0" r="1" gradientTransform="matrix(11.49998 2 -2 11.49998 20.5 18)" gradientUnits="userSpaceOnUse"><stop stop-color="#FFA64B"/><stop offset=".9" stop-color="#FFAE46" stop-opacity="0"/></radialGradient><radialGradient id="paint6_radial_6807_5247" cx="0" cy="0" r="1" gradientTransform="rotate(43.971 -9.827 29.173) scale(59.0529)" gradientUnits="userSpaceOnUse"><stop offset=".185" stop-opacity="0"/><stop offset="1" stop-opacity=".4"/></radialGradient><radialGradient id="paint7_radial_6807_5247" cx="0" cy="0" r="1" gradientTransform="rotate(130.975 6.985 14.65) scale(10.3892 7.04816)" gradientUnits="userSpaceOnUse"><stop offset=".333" stop-color="#C97007"/><stop offset=".708" stop-color="#F08B13" stop-opacity="0"/></radialGradient><radialGradient id="paint8_radial_6807_5247" cx="0" cy="0" r="1" gradientTransform="matrix(-1.54683 -6.79689 16.41342 -3.73536 19.39 22.341)" gradientUnits="userSpaceOnUse"><stop offset=".103" stop-color="#482641"/><stop offset=".299" stop-color="#503A4A"/><stop offset=".556" stop-color="#483637"/></radialGradient><radialGradient id="paint9_radial_6807_5247" cx="0" cy="0" r="1" gradientTransform="matrix(-2.62502 7.125 -9.31237 -3.4309 9.781 11.188)" gradientUnits="userSpaceOnUse"><stop stop-color="#9F5E0F"/><stop offset=".889" stop-color="#9F5E0F" stop-opacity="0"/></radialGradient><radialGradient id="paint10_radial_6807_5247" cx="0" cy="0" r="1" gradientTransform="matrix(-2.62502 7.125 -9.31237 -3.4309 9.781 11.188)" gradientUnits="userSpaceOnUse"><stop stop-color="#9F5E0F"/><stop offset=".889" stop-color="#9F5E0F" stop-opacity="0"/></radialGradient><radialGradient id="paint13_radial_6807_5247" cx="0" cy="0" r="1" gradientTransform="rotate(-135.995 17.089 3.673) scale(13.3597 17.4611)" gradientUnits="userSpaceOnUse"><stop stop-color="#E9830A"/><stop offset=".802" stop-color="#F08B13" stop-opacity="0"/></radialGradient><radialGradient id="paint14_radial_6807_5247" cx="0" cy="0" r="1" gradientTransform="rotate(-135.995 17.089 3.673) scale(13.3597 17.4611)" gradientUnits="userSpaceOnUse"><stop stop-color="#E9830A"/><stop offset=".802" stop-color="#F08B13" stop-opacity="0"/></radialGradient><linearGradient id="paint11_linear_6807_5247" x1="10.578" x2="8" y1="17.482" y2="12.139" gradientUnits="userSpaceOnUse"><stop offset=".25" stop-color="#482641"/><stop offset=".406" stop-color="#503A4A"/><stop offset=".511" stop-color="#482641"/></linearGradient><linearGradient id="paint12_linear_6807_5247" x1="8.86" x2="11.25" y1="13.889" y2="9.201" gradientUnits="userSpaceOnUse"><stop offset=".25" stop-color="#482641"/><stop offset=".406" stop-color="#503A4A"/><stop offset=".511" stop-color="#482641"/></linearGradient><linearGradient id="paint15_linear_6807_5247" x1="21.406" x2="23.985" y1="17.482" y2="12.139" gradientUnits="userSpaceOnUse"><stop offset=".25" stop-color="#482641"/><stop offset=".406" stop-color="#503A4A"/><stop offset=".511" stop-color="#482641"/></linearGradient><linearGradient id="paint16_linear_6807_5247" x1="23.125" x2="20.734" y1="13.889" y2="9.201" gradientUnits="userSpaceOnUse"><stop offset=".25" stop-color="#482641"/><stop offset=".406" stop-color="#503A4A"/><stop offset=".511" stop-color="#482641"/></linearGradient><linearGradient id="paint17_linear_6807_5247" x1="15" x2="4.975" y1="20" y2="25.454" gradientUnits="userSpaceOnUse"><stop stop-color="#FFF5FF"/><stop offset="1" stop-color="#F6C2FF"/></linearGradient><linearGradient id="paint18_linear_6807_5247" x1="5" x2="8" y1="21" y2="23.5" gradientUnits="userSpaceOnUse"><stop stop-color="#D5BACC"/><stop offset="1" stop-color="#F2D0FF"/></linearGradient><filter id="filter0_f_6807_5247" width="19.969" height="5.473" x="4.794" y="18.996" color-interpolation-filters="sRGB" filterUnits="userSpaceOnUse"><feFlood flood-opacity="0" result="BackgroundImageFix"/><feBlend in="SourceGraphic" in2="BackgroundImageFix" result="shape"/><feGaussianBlur result="effect1_foregroundBlur_6807_5247" stdDeviation=".5"/></filter><filter id="filter1_f_6807_5247" width="7" height="6.996" x="7.5" y="10.688" color-interpolation-filters="sRGB" filterUnits="userSpaceOnUse"><feFlood flood-opacity="0" result="BackgroundImageFix"/><feBlend in="SourceGraphic" in2="BackgroundImageFix" result="shape"/><feGaussianBlur result="effect1_foregroundBlur_6807_5247" stdDeviation=".25"/></filter><filter id="filter2_f_6807_5247" width="7" height="6.996" x="16.906" y="10.688" color-interpolation-filters="sRGB" filterUnits="userSpaceOnUse"><feFlood flood-opacity="0" result="BackgroundImageFix"/><feBlend in="SourceGraphic" in2="BackgroundImageFix" result="shape"/><feGaussianBlur result="effect1_foregroundBlur_6807_5247" stdDeviation=".25"/></filter><filter id="filter3_f_6807_5247" width="11.031" height="13.992" x="2.234" y="15.818" color-interpolation-filters="sRGB" filterUnits="userSpaceOnUse"><feFlood flood-opacity="0" result="BackgroundImageFix"/><feBlend in="SourceGraphic" in2="BackgroundImageFix" result="shape"/><feGaussianBlur result="effect1_foregroundBlur_6807_5247" stdDeviation=".5"/></filter><filter id="filter4_f_6807_5247" width="8.57" height="12.026" x="7.225" y="16.752" color-interpolation-filters="sRGB" filterUnits="userSpaceOnUse"><feFlood flood-opacity="0" result="BackgroundImageFix"/><feBlend in="SourceGraphic" in2="BackgroundImageFix" result="shape"/><feGaussianBlur result="effect1_foregroundBlur_6807_5247" stdDeviation="1"/></filter><clipPath id="clip0_6807_5247"><path fill="#fff" d="M0 0h32v32H0z"/></clipPath></defs></svg>