<svg xmlns="http://www.w3.org/2000/svg" width="32" height="32" fill="none" viewBox="0 0 32 32"><g filter="url(#filter0_i_20020_5596)"><path fill="#84555E" d="M23.136 1.906a2.656 2.656 0 0 0-2.656 2.657v11.25H5.684v4.227c0 5.553 4.502 10.054 10.054 10.054 4.243 0 7.873-2.629 9.348-6.347l.003.003c1.016-2.39 1.016-6.703.844-7.86a12.12 12.12 0 0 1-.14-1.496V4.562a2.656 2.656 0 0 0-2.657-2.656Z"/></g><path fill="url(#paint0_radial_20020_5596)" d="M23.136 1.906a2.656 2.656 0 0 0-2.656 2.657v11.25H5.684v4.227c0 5.553 4.502 10.054 10.054 10.054 4.243 0 7.873-2.629 9.348-6.347l.003.003c1.016-2.39 1.016-6.703.844-7.86a12.12 12.12 0 0 1-.14-1.496V4.562a2.656 2.656 0 0 0-2.657-2.656Z"/><path fill="url(#paint1_radial_20020_5596)" d="M23.136 1.906a2.656 2.656 0 0 0-2.656 2.657v11.25H5.684v4.227c0 5.553 4.502 10.054 10.054 10.054 4.243 0 7.873-2.629 9.348-6.347l.003.003c1.016-2.39 1.016-6.703.844-7.86a12.12 12.12 0 0 1-.14-1.496V4.562a2.656 2.656 0 0 0-2.657-2.656Z"/><path fill="url(#paint2_linear_20020_5596)" d="M23.136 1.906a2.656 2.656 0 0 0-2.656 2.657v11.25H5.684v4.227c0 5.553 4.502 10.054 10.054 10.054 4.243 0 7.873-2.629 9.348-6.347l.003.003c1.016-2.39 1.016-6.703.844-7.86a12.12 12.12 0 0 1-.14-1.496V4.562a2.656 2.656 0 0 0-2.657-2.656Z"/><path fill="url(#paint3_radial_20020_5596)" d="M23.136 1.906a2.656 2.656 0 0 0-2.656 2.657v11.25H5.684v4.227c0 5.553 4.502 10.054 10.054 10.054 4.243 0 7.873-2.629 9.348-6.347l.003.003c1.016-2.39 1.016-6.703.844-7.86a12.12 12.12 0 0 1-.14-1.496V4.562a2.656 2.656 0 0 0-2.657-2.656Z"/><path fill="url(#paint4_radial_20020_5596)" d="M23.136 1.906a2.656 2.656 0 0 0-2.656 2.657v11.25H5.684v4.227c0 5.553 4.502 10.054 10.054 10.054 4.243 0 7.873-2.629 9.348-6.347l.003.003c1.016-2.39 1.016-6.703.844-7.86a12.12 12.12 0 0 1-.14-1.496V4.562a2.656 2.656 0 0 0-2.657-2.656Z"/><g filter="url(#filter1_f_20020_5596)"><path fill="#4B2333" d="M14.758 18.875c0-1.433 1.124-2.594 2.512-2.594l2.315.11c.346.042.69.14 1.008.288 1.91.805 3.389 2.644 3.68 4.805h-6.585a3.114 3.114 0 0 0-.313-.015h-.105c-1.388 0-2.512-1.162-2.512-2.594Z"/></g><g filter="url(#filter2_f_20020_5596)"><path fill="#4B2333" d="M7.323 16.103c0-1.057.843-1.844 1.914-1.913.996-.048 1.986.563 2.07 1.776l.165 2.303c.083 1.155-.994 2.137-2.153 2.137a1.996 1.996 0 0 1-1.996-1.995v-2.308Z"/></g><g filter="url(#filter3_f_20020_5596)"><path fill="#4B2333" d="M11.175 15.658c0-1.294 1.08-2.343 2.412-2.343 1.333 0 2.413 1.049 2.413 2.343v3.062c0 1.294-1.08 2.343-2.413 2.343-1.332 0-2.218-.672-2.218-2.084l-.194-3.321Z"/></g><g filter="url(#filter4_i_20020_5596)"><path fill="url(#paint5_linear_20020_5596)" d="M5.684 14.6c0-1.382 1.102-2.412 2.503-2.502 1.302-.063 2.596.735 2.707 2.323l.215 3.013c.108 1.51-1.3 2.796-2.815 2.796a2.61 2.61 0 0 1-2.61-2.61V14.6Z"/><path fill="url(#paint6_linear_20020_5596)" d="M5.684 14.6c0-1.382 1.102-2.412 2.503-2.502 1.302-.063 2.596.735 2.707 2.323l.215 3.013c.108 1.51-1.3 2.796-2.815 2.796a2.61 2.61 0 0 1-2.61-2.61V14.6Z"/></g><path fill="url(#paint7_radial_20020_5596)" d="M5.684 14.6c0-1.382 1.102-2.412 2.503-2.502 1.302-.063 2.596.735 2.707 2.323l.215 3.013c.108 1.51-1.3 2.796-2.815 2.796a2.61 2.61 0 0 1-2.61-2.61V14.6Z"/><path fill="url(#paint8_radial_20020_5596)" d="M5.684 14.6c0-1.382 1.102-2.412 2.503-2.502 1.302-.063 2.596.735 2.707 2.323l.215 3.013c.108 1.51-1.3 2.796-2.815 2.796a2.61 2.61 0 0 1-2.61-2.61V14.6Z"/><g filter="url(#filter5_f_20020_5596)"><rect width="1.722" height="4.231" x="8.302" y="14.061" fill="#9F7C73" rx=".861" transform="rotate(-3.35 8.302 14.061)"/></g><g filter="url(#filter6_i_20020_5596)"><path fill="url(#paint9_linear_20020_5596)" d="M10.532 13.502a2.636 2.636 0 0 1 5.272 0v3.447a2.636 2.636 0 0 1-2.636 2.636c-1.456 0-2.424-.756-2.424-2.345l-.212-3.738Z"/><path fill="url(#paint10_linear_20020_5596)" d="M10.532 13.502a2.636 2.636 0 0 1 5.272 0v3.447a2.636 2.636 0 0 1-2.636 2.636c-1.456 0-2.424-.756-2.424-2.345l-.212-3.738Z"/><path fill="url(#paint11_radial_20020_5596)" d="M10.532 13.502a2.636 2.636 0 0 1 5.272 0v3.447a2.636 2.636 0 0 1-2.636 2.636c-1.456 0-2.424-.756-2.424-2.345l-.212-3.738Z"/><path fill="url(#paint12_radial_20020_5596)" d="M10.532 13.502a2.636 2.636 0 0 1 5.272 0v3.447a2.636 2.636 0 0 1-2.636 2.636c-1.456 0-2.424-.756-2.424-2.345l-.212-3.738Z"/><path fill="url(#paint13_radial_20020_5596)" d="M10.532 13.502a2.636 2.636 0 0 1 5.272 0v3.447a2.636 2.636 0 0 1-2.636 2.636c-1.456 0-2.424-.756-2.424-2.345l-.212-3.738Z"/></g><g filter="url(#filter7_f_20020_5596)"><rect width="1.936" height="5.303" x="12.867" y="11.807" fill="url(#paint14_radial_20020_5596)" rx=".968" transform="rotate(-1.407 12.867 11.807)"/></g><g filter="url(#filter8_i_20020_5596)"><path fill="url(#paint15_linear_20020_5596)" d="M15.662 13.008c0-1.574 1.212-2.85 2.707-2.85 1.495 0 2.707 1.276 2.707 2.85v3.727c0 1.574-1.212 2.85-2.707 2.85-1.495 0-2.707-.732-2.707-2.45v-4.127Z"/></g><g filter="url(#filter9_f_20020_5596)"><rect width="1.945" height="6.02" x="18.129" y="11.489" fill="#A68174" rx=".973" transform="rotate(-1.407 18.129 11.489)"/></g><path fill="url(#paint16_linear_20020_5596)" d="M18.27 15.281c-1.388 0-2.512 1.161-2.512 2.594 0 1.433 1.124 2.594 2.512 2.594h.105c.821 0 1.64.317 2.067 1.02a6.02 6.02 0 0 1 .874 3.136c0 .878-.186 1.712-.521 2.463 2.598-.625 4.531-2.995 4.531-5.822 0-2.492-1.597-4.686-3.733-5.587a3.362 3.362 0 0 0-1.008-.288l-2.315-.11Z"/><path fill="url(#paint17_radial_20020_5596)" d="M18.27 15.281c-1.388 0-2.512 1.161-2.512 2.594 0 1.433 1.124 2.594 2.512 2.594h.105c.821 0 1.64.317 2.067 1.02a6.02 6.02 0 0 1 .874 3.136c0 .878-.186 1.712-.521 2.463 2.598-.625 4.531-2.995 4.531-5.822 0-2.492-1.597-4.686-3.733-5.587a3.362 3.362 0 0 0-1.008-.288l-2.315-.11Z"/><path fill="url(#paint18_linear_20020_5596)" d="M18.27 15.281c-1.388 0-2.512 1.161-2.512 2.594 0 1.433 1.124 2.594 2.512 2.594h.105c.821 0 1.64.317 2.067 1.02a6.02 6.02 0 0 1 .874 3.136c0 .878-.186 1.712-.521 2.463 2.598-.625 4.531-2.995 4.531-5.822 0-2.492-1.597-4.686-3.733-5.587a3.362 3.362 0 0 0-1.008-.288l-2.315-.11Z"/><path fill="url(#paint19_linear_20020_5596)" d="M18.27 15.281c-1.388 0-2.512 1.161-2.512 2.594 0 1.433 1.124 2.594 2.512 2.594h.105c.821 0 1.64.317 2.067 1.02a6.02 6.02 0 0 1 .874 3.136c0 .878-.186 1.712-.521 2.463 2.598-.625 4.531-2.995 4.531-5.822 0-2.492-1.597-4.686-3.733-5.587a3.362 3.362 0 0 0-1.008-.288l-2.315-.11Z"/><g filter="url(#filter10_f_20020_5596)"><path stroke="url(#paint20_linear_20020_5596)" stroke-linecap="round" stroke-width="1.25" d="M18.989 17.11c1.201 0 3.21 0 3.946.944 1.075 1.052 1.137 2.589 1.198 3.009"/></g><g filter="url(#filter11_f_20020_5596)"><rect width="1.688" height="11.594" x="23.195" y="3.531" fill="#A27E71" rx=".844"/></g><defs><filter id="filter0_i_20020_5596" width="20.934" height="28.788" x="5.684" y="1.306" color-interpolation-filters="sRGB" filterUnits="userSpaceOnUse"><feFlood flood-opacity="0" result="BackgroundImageFix"/><feBlend in="SourceGraphic" in2="BackgroundImageFix" result="shape"/><feColorMatrix in="SourceAlpha" result="hardAlpha" values="0 0 0 0 0 0 0 0 0 0 0 0 0 0 0 0 0 0 127 0"/><feOffset dx=".6" dy="-.6"/><feGaussianBlur stdDeviation=".75"/><feComposite in2="hardAlpha" k2="-1" k3="1" operator="arithmetic"/><feColorMatrix values="0 0 0 0 0.458824 0 0 0 0 0.286275 0 0 0 0 0.301961 0 0 0 1 0"/><feBlend in2="shape" result="effect1_innerShadow_20020_5596"/></filter><filter id="filter1_f_20020_5596" width="14.516" height="10.203" x="12.258" y="13.781" color-interpolation-filters="sRGB" filterUnits="userSpaceOnUse"><feFlood flood-opacity="0" result="BackgroundImageFix"/><feBlend in="SourceGraphic" in2="BackgroundImageFix" result="shape"/><feGaussianBlur result="effect1_foregroundBlur_20020_5596" stdDeviation="1.25"/></filter><filter id="filter2_f_20020_5596" width="9.153" height="11.219" x="4.823" y="11.688" color-interpolation-filters="sRGB" filterUnits="userSpaceOnUse"><feFlood flood-opacity="0" result="BackgroundImageFix"/><feBlend in="SourceGraphic" in2="BackgroundImageFix" result="shape"/><feGaussianBlur result="effect1_foregroundBlur_20020_5596" stdDeviation="1.25"/></filter><filter id="filter3_f_20020_5596" width="9.825" height="12.747" x="8.675" y="10.815" color-interpolation-filters="sRGB" filterUnits="userSpaceOnUse"><feFlood flood-opacity="0" result="BackgroundImageFix"/><feBlend in="SourceGraphic" in2="BackgroundImageFix" result="shape"/><feGaussianBlur result="effect1_foregroundBlur_20020_5596" stdDeviation="1.25"/></filter><filter id="filter4_i_20020_5596" width="5.431" height="8.136" x="5.684" y="12.094" color-interpolation-filters="sRGB" filterUnits="userSpaceOnUse"><feFlood flood-opacity="0" result="BackgroundImageFix"/><feBlend in="SourceGraphic" in2="BackgroundImageFix" result="shape"/><feColorMatrix in="SourceAlpha" result="hardAlpha" values="0 0 0 0 0 0 0 0 0 0 0 0 0 0 0 0 0 0 127 0"/><feOffset/><feGaussianBlur stdDeviation=".625"/><feComposite in2="hardAlpha" k2="-1" k3="1" operator="arithmetic"/><feColorMatrix values="0 0 0 0 0.458824 0 0 0 0 0.313726 0 0 0 0 0.278431 0 0 0 1 0"/><feBlend in2="shape" result="effect1_innerShadow_20020_5596"/></filter><filter id="filter5_f_20020_5596" width="4.869" height="7.227" x="6.851" y="12.51" color-interpolation-filters="sRGB" filterUnits="userSpaceOnUse"><feFlood flood-opacity="0" result="BackgroundImageFix"/><feBlend in="SourceGraphic" in2="BackgroundImageFix" result="shape"/><feGaussianBlur result="effect1_foregroundBlur_20020_5596" stdDeviation=".75"/></filter><filter id="filter6_i_20020_5596" width="5.272" height="8.719" x="10.532" y="10.866" color-interpolation-filters="sRGB" filterUnits="userSpaceOnUse"><feFlood flood-opacity="0" result="BackgroundImageFix"/><feBlend in="SourceGraphic" in2="BackgroundImageFix" result="shape"/><feColorMatrix in="SourceAlpha" result="hardAlpha" values="0 0 0 0 0 0 0 0 0 0 0 0 0 0 0 0 0 0 127 0"/><feOffset/><feGaussianBlur stdDeviation=".5"/><feComposite in2="hardAlpha" k2="-1" k3="1" operator="arithmetic"/><feColorMatrix values="0 0 0 0 0.415686 0 0 0 0 0.290196 0 0 0 0 0.239216 0 0 0 1 0"/><feBlend in2="shape" result="effect1_innerShadow_20020_5596"/></filter><filter id="filter7_f_20020_5596" width="5.019" height="8.302" x="11.391" y="10.283" color-interpolation-filters="sRGB" filterUnits="userSpaceOnUse"><feFlood flood-opacity="0" result="BackgroundImageFix"/><feBlend in="SourceGraphic" in2="BackgroundImageFix" result="shape"/><feGaussianBlur result="effect1_foregroundBlur_20020_5596" stdDeviation=".75"/></filter><filter id="filter8_i_20020_5596" width="5.414" height="9.427" x="15.662" y="10.158" color-interpolation-filters="sRGB" filterUnits="userSpaceOnUse"><feFlood flood-opacity="0" result="BackgroundImageFix"/><feBlend in="SourceGraphic" in2="BackgroundImageFix" result="shape"/><feColorMatrix in="SourceAlpha" result="hardAlpha" values="0 0 0 0 0 0 0 0 0 0 0 0 0 0 0 0 0 0 127 0"/><feOffset/><feGaussianBlur stdDeviation=".75"/><feComposite in2="hardAlpha" k2="-1" k3="1" operator="arithmetic"/><feColorMatrix values="0 0 0 0 0.341176 0 0 0 0 0.184314 0 0 0 0 0.164706 0 0 0 1 0"/><feBlend in2="shape" result="effect1_innerShadow_20020_5596"/></filter><filter id="filter9_f_20020_5596" width="5.045" height="9.019" x="16.652" y="9.964" color-interpolation-filters="sRGB" filterUnits="userSpaceOnUse"><feFlood flood-opacity="0" result="BackgroundImageFix"/><feBlend in="SourceGraphic" in2="BackgroundImageFix" result="shape"/><feGaussianBlur result="effect1_foregroundBlur_20020_5596" stdDeviation=".75"/></filter><filter id="filter10_f_20020_5596" width="8.894" height="7.704" x="17.114" y="15.234" color-interpolation-filters="sRGB" filterUnits="userSpaceOnUse"><feFlood flood-opacity="0" result="BackgroundImageFix"/><feBlend in="SourceGraphic" in2="BackgroundImageFix" result="shape"/><feGaussianBlur result="effect1_foregroundBlur_20020_5596" stdDeviation=".625"/></filter><filter id="filter11_f_20020_5596" width="5.688" height="15.594" x="21.195" y="1.531" color-interpolation-filters="sRGB" filterUnits="userSpaceOnUse"><feFlood flood-opacity="0" result="BackgroundImageFix"/><feBlend in="SourceGraphic" in2="BackgroundImageFix" result="shape"/><feGaussianBlur result="effect1_foregroundBlur_20020_5596" stdDeviation="1"/></filter><radialGradient id="paint0_radial_20020_5596" cx="0" cy="0" r="1" gradientTransform="matrix(-6.56216 -6.90397 4.82919 -4.5901 25.445 17.248)" gradientUnits="userSpaceOnUse"><stop stop-color="#A17E70"/><stop offset="1" stop-color="#A17E70" stop-opacity="0"/></radialGradient><radialGradient id="paint1_radial_20020_5596" cx="0" cy="0" r="1" gradientTransform="matrix(-2.86066 3.08361 -3.55273 -3.29586 20.43 21.186)" gradientUnits="userSpaceOnUse"><stop stop-color="#704651"/><stop offset="1" stop-color="#704651" stop-opacity="0"/></radialGradient><radialGradient id="paint3_radial_20020_5596" cx="0" cy="0" r="1" gradientTransform="matrix(-1 1.28124 -1.43471 -1.1198 24.164 3.875)" gradientUnits="userSpaceOnUse"><stop stop-color="#A47F73"/><stop offset="1" stop-color="#A47F73" stop-opacity="0"/></radialGradient><radialGradient id="paint4_radial_20020_5596" cx="0" cy="0" r="1" gradientTransform="matrix(2.61097 0 0 5.50045 20.023 13.017)" gradientUnits="userSpaceOnUse"><stop stop-color="#5B3225"/><stop offset="1" stop-color="#5B3225" stop-opacity="0"/></radialGradient><radialGradient id="paint7_radial_20020_5596" cx="0" cy="0" r="1" gradientTransform="matrix(.22676 -2.36686 3.52277 .3375 7.592 20.23)" gradientUnits="userSpaceOnUse"><stop stop-color="#733E5B"/><stop offset="1" stop-color="#733E5B" stop-opacity="0"/></radialGradient><radialGradient id="paint8_radial_20020_5596" cx="0" cy="0" r="1" gradientTransform="matrix(-1.05924 .64915 -1.06456 -1.73707 11.115 13.026)" gradientUnits="userSpaceOnUse"><stop stop-color="#502C20"/><stop offset="1" stop-color="#502C20" stop-opacity="0"/></radialGradient><radialGradient id="paint11_radial_20020_5596" cx="0" cy="0" r="1" gradientTransform="rotate(-82.532 17.437 2.64) scale(3.14412 4.97212)" gradientUnits="userSpaceOnUse"><stop stop-color="#744158"/><stop offset="1" stop-color="#744158" stop-opacity="0"/></radialGradient><radialGradient id="paint12_radial_20020_5596" cx="0" cy="0" r="1" gradientTransform="matrix(-.67768 .30875 -.56066 -1.2306 15.803 12.7)" gradientUnits="userSpaceOnUse"><stop stop-color="#513024"/><stop offset="1" stop-color="#513024" stop-opacity="0"/></radialGradient><radialGradient id="paint13_radial_20020_5596" cx="0" cy="0" r="1" gradientTransform="matrix(-1.68416 -.7271 .95657 -2.2157 15.804 18.249)" gradientUnits="userSpaceOnUse"><stop stop-color="#51252D"/><stop offset="1" stop-color="#51252D" stop-opacity="0"/></radialGradient><radialGradient id="paint14_radial_20020_5596" cx="0" cy="0" r="1" gradientTransform="rotate(91.407 .111 13.737) scale(7.23413 3.88646)" gradientUnits="userSpaceOnUse"><stop stop-color="#9D7B70"/><stop offset="1" stop-color="#9D7B70" stop-opacity="0"/></radialGradient><radialGradient id="paint17_radial_20020_5596" cx="0" cy="0" r="1" gradientTransform="matrix(3.40306 3.0913 -2.37051 2.60958 19.62 21.933)" gradientUnits="userSpaceOnUse"><stop stop-color="#713A54"/><stop offset="1" stop-color="#713A54" stop-opacity="0"/></radialGradient><linearGradient id="paint2_linear_20020_5596" x1="26.82" x2="23.086" y1="12.219" y2="12.219" gradientUnits="userSpaceOnUse"><stop stop-color="#997265"/><stop offset="1" stop-color="#997265" stop-opacity="0"/></linearGradient><linearGradient id="paint5_linear_20020_5596" x1="9.44" x2="4.525" y1="14.556" y2="15.006" gradientUnits="userSpaceOnUse"><stop stop-color="#8F695A"/><stop offset="1" stop-color="#78524D"/></linearGradient><linearGradient id="paint6_linear_20020_5596" x1="11.445" x2="9.683" y1="15.721" y2="15.837" gradientUnits="userSpaceOnUse"><stop stop-color="#653E2F"/><stop offset="1" stop-color="#653E2F" stop-opacity="0"/></linearGradient><linearGradient id="paint9_linear_20020_5596" x1="15.559" x2="10.809" y1="14.438" y2="14.906" gradientUnits="userSpaceOnUse"><stop stop-color="#906C5B"/><stop offset="1" stop-color="#6E413B"/></linearGradient><linearGradient id="paint10_linear_20020_5596" x1="16.124" x2="14.412" y1="14.753" y2="14.855" gradientUnits="userSpaceOnUse"><stop stop-color="#654034"/><stop offset="1" stop-color="#654034" stop-opacity="0"/></linearGradient><linearGradient id="paint15_linear_20020_5596" x1="16.653" x2="20.72" y1="13.868" y2="13.868" gradientUnits="userSpaceOnUse"><stop stop-color="#734E46"/><stop offset="1" stop-color="#916855"/></linearGradient><linearGradient id="paint16_linear_20020_5596" x1="24.175" x2="20.542" y1="17.178" y2="21.929" gradientUnits="userSpaceOnUse"><stop stop-color="#8D6350"/><stop offset="1" stop-color="#79504D"/></linearGradient><linearGradient id="paint18_linear_20020_5596" x1="22.555" x2="22.519" y1="26.284" y2="22.217" gradientUnits="userSpaceOnUse"><stop offset=".382" stop-color="#84555E"/><stop offset="1" stop-color="#84555E" stop-opacity="0"/></linearGradient><linearGradient id="paint19_linear_20020_5596" x1="15.758" x2="19.333" y1="18.375" y2="18.375" gradientUnits="userSpaceOnUse"><stop stop-color="#6A443D"/><stop offset="1" stop-color="#6A443D" stop-opacity="0"/></linearGradient><linearGradient id="paint20_linear_20020_5596" x1="21.039" x2="24.547" y1="17.781" y2="20.397" gradientUnits="userSpaceOnUse"><stop offset=".452" stop-color="#A17C72"/><stop offset="1" stop-color="#A17C72" stop-opacity="0"/></linearGradient></defs></svg>