<svg xmlns="http://www.w3.org/2000/svg" width="32" height="32" fill="none" viewBox="0 0 32 32"><g filter="url(#filter0_i_18_9605)"><path fill="url(#paint0_linear_18_9605)" d="M4.457 26.97h25.476V7.535c-6.97 1.045-13.748 3.934-19.63 8.76l-7.444 6.352a2.457 2.457 0 0 0 1.598 4.323Z"/></g><g filter="url(#filter1_i_18_9605)"><rect width="4.005" height="2.011" x="5.975" y="23.008" fill="url(#paint1_radial_18_9605)" rx="1.006"/></g><path fill="url(#paint2_linear_18_9605)" fill-rule="evenodd" d="M29.933 20.039h-6.267c-3.091 0-6.154 1.654-7.902 3.872L13.39 26.97h16.542v-6.931Z" clip-rule="evenodd"/><path fill="url(#paint3_linear_18_9605)" fill-rule="evenodd" d="M29.933 20.039h-6.267c-3.091 0-6.154 1.654-7.902 3.872L13.39 26.97h16.542v-6.931Z" clip-rule="evenodd"/><g filter="url(#filter2_i_18_9605)"><path fill="url(#paint4_radial_18_9605)" fill-rule="evenodd" d="M7.962 18.292c2.33.285 6.373.134 9.881-1.945 3.171-1.88 5.365-4.724 6.58-7.585-5.004 1.492-9.803 3.99-14.12 7.532l-2.34 1.998Z" clip-rule="evenodd"/></g><path fill="url(#paint5_linear_18_9605)" d="M2 26.97h27.933V30H2z"/><path fill="url(#paint6_linear_18_9605)" d="M4.457 26.97h25.476V7.535c-6.97 1.045-13.748 3.934-19.63 8.76l-7.444 6.352a2.457 2.457 0 0 0 1.598 4.323Z"/><defs><linearGradient id="paint0_linear_18_9605" x1="8.423" x2="29.234" y1="26.418" y2="14.512" gradientUnits="userSpaceOnUse"><stop stop-color="#5775FF"/><stop offset="1" stop-color="#73B3FF"/></linearGradient><linearGradient id="paint2_linear_18_9605" x1="16.298" x2="31.578" y1="25.855" y2="25.855" gradientUnits="userSpaceOnUse"><stop stop-color="#C5BBCD"/><stop offset="1" stop-color="#EDE0F5"/></linearGradient><linearGradient id="paint3_linear_18_9605" x1="20.716" x2="20.716" y1="27.889" y2="25.867" gradientUnits="userSpaceOnUse"><stop stop-color="#817A87"/><stop offset="1" stop-color="#817A87" stop-opacity="0"/></linearGradient><linearGradient id="paint5_linear_18_9605" x1="7.5" x2="27.692" y1="29.297" y2="29.297" gradientUnits="userSpaceOnUse"><stop stop-color="#AEA4B4"/><stop offset="1" stop-color="#D4C7DC"/></linearGradient><linearGradient id="paint6_linear_18_9605" x1="15.967" x2="15.967" y1="27.096" y2="26.349" gradientUnits="userSpaceOnUse"><stop offset=".077" stop-color="#0F1A41"/><stop offset="1" stop-color="#0F1A41" stop-opacity="0"/></linearGradient><filter id="filter0_i_18_9605" width="29.433" height="19.935" x="2" y="7.035" color-interpolation-filters="sRGB" filterUnits="userSpaceOnUse"><feFlood flood-opacity="0" result="BackgroundImageFix"/><feBlend in="SourceGraphic" in2="BackgroundImageFix" result="shape"/><feColorMatrix in="SourceAlpha" result="hardAlpha" values="0 0 0 0 0 0 0 0 0 0 0 0 0 0 0 0 0 0 127 0"/><feOffset dx="2" dy="-.5"/><feGaussianBlur stdDeviation=".75"/><feComposite in2="hardAlpha" k2="-1" k3="1" operator="arithmetic"/><feColorMatrix values="0 0 0 0 0.227451 0 0 0 0 0.309804 0 0 0 0 0.792157 0 0 0 1 0"/><feBlend in2="shape" result="effect1_innerShadow_18_9605"/></filter><filter id="filter1_i_18_9605" width="4.005" height="2.011" x="5.975" y="23.008" color-interpolation-filters="sRGB" filterUnits="userSpaceOnUse"><feFlood flood-opacity="0" result="BackgroundImageFix"/><feBlend in="SourceGraphic" in2="BackgroundImageFix" result="shape"/><feColorMatrix in="SourceAlpha" result="hardAlpha" values="0 0 0 0 0 0 0 0 0 0 0 0 0 0 0 0 0 0 127 0"/><feOffset/><feGaussianBlur stdDeviation=".2"/><feComposite in2="hardAlpha" k2="-1" k3="1" operator="arithmetic"/><feColorMatrix values="0 0 0 0 0.909804 0 0 0 0 0.180392 0 0 0 0 0.0666667 0 0 0 1 0"/><feBlend in2="shape" result="effect1_innerShadow_18_9605"/></filter><filter id="filter2_i_18_9605" width="16.861" height="9.889" x="7.562" y="8.762" color-interpolation-filters="sRGB" filterUnits="userSpaceOnUse"><feFlood flood-opacity="0" result="BackgroundImageFix"/><feBlend in="SourceGraphic" in2="BackgroundImageFix" result="shape"/><feColorMatrix in="SourceAlpha" result="hardAlpha" values="0 0 0 0 0 0 0 0 0 0 0 0 0 0 0 0 0 0 127 0"/><feOffset dx="-.5" dy=".25"/><feGaussianBlur stdDeviation=".2"/><feComposite in2="hardAlpha" k2="-1" k3="1" operator="arithmetic"/><feColorMatrix values="0 0 0 0 0.164706 0 0 0 0 0.65098 0 0 0 0 0.890196 0 0 0 1 0"/><feBlend in2="shape" result="effect1_innerShadow_18_9605"/></filter><radialGradient id="paint1_radial_18_9605" cx="0" cy="0" r="1" gradientTransform="matrix(3.76074 0 0 1.6587 6.499 24.017)" gradientUnits="userSpaceOnUse"><stop stop-color="#FF7853"/><stop offset="1" stop-color="#F43A21"/></radialGradient><radialGradient id="paint4_radial_18_9605" cx="0" cy="0" r="1" gradientTransform="matrix(14.88716 -10.13517 3.27117 4.8049 9.536 18.401)" gradientUnits="userSpaceOnUse"><stop offset=".288" stop-color="#5AF1FF"/><stop offset="1" stop-color="#2599D8"/></radialGradient></defs></svg>