<svg xmlns="http://www.w3.org/2000/svg" width="32" height="32" fill="none" viewBox="0 0 32 32"><g filter="url(#filter0_i_20020_3140)"><path fill="url(#paint0_radial_20020_3140)" d="M27.823 9.479H3.49v9.328c0 6.351 5.149 11.5 11.5 11.5h1.333c2.153 0 4.168-.592 5.89-1.621l.005.018c2.518-1.454 5.089-4.099 5.904-7.358.83-3.325.134-5.707-.3-6.552V9.479Z"/></g><path fill="url(#paint1_radial_20020_3140)" d="M27.823 9.479H3.49v9.328c0 6.351 5.149 11.5 11.5 11.5h1.333c2.153 0 4.168-.592 5.89-1.621l.005.018c2.518-1.454 5.089-4.099 5.904-7.358.83-3.325.134-5.707-.3-6.552V9.479Z"/><path fill="url(#paint2_radial_20020_3140)" d="M27.823 9.479H3.49v9.328c0 6.351 5.149 11.5 11.5 11.5h1.333c2.153 0 4.168-.592 5.89-1.621l.005.018c2.518-1.454 5.089-4.099 5.904-7.358.83-3.325.134-5.707-.3-6.552V9.479Z"/><g filter="url(#filter1_f_20020_3140)"><rect width="12.678" height="6.195" x="10.28" y="12.903" fill="url(#paint3_linear_20020_3140)" rx="3.097"/></g><g filter="url(#filter2_f_20020_3140)"><path fill="#3E1D26" d="M15.024 14.283c-.504.868-1.422 1.472-2.47 1.472-.93 0-1.757-.314-2.283-.987a2.882 2.882 0 0 1-5.06-1.886v-2.704a2.882 2.882 0 0 1 4.61-2.306c.383-1.244 1.462-1.81 2.733-1.81.936 0 1.768.447 2.294 1.138.26-1.272 1.408-2.135 2.785-2.135a2.84 2.84 0 0 1 2.674 1.884 2.882 2.882 0 0 1 5.556 1.074v4.335a2.882 2.882 0 0 1-5.44 1.327 2.84 2.84 0 0 1-5.4.598Z"/></g><rect width="6.79" height="9.976" x="3.49" y="5.138" fill="url(#paint4_radial_20020_3140)" rx="3.395"/><rect width="6.79" height="9.976" x="3.49" y="5.138" fill="url(#paint5_radial_20020_3140)" rx="3.395"/><rect width="6.79" height="9.976" x="3.49" y="5.138" fill="url(#paint6_radial_20020_3140)" rx="3.395"/><rect width="6.79" height="9.976" x="3.49" y="5.138" fill="url(#paint7_radial_20020_3140)" rx="3.395"/><path fill="url(#paint8_radial_20020_3140)" d="M8.747 7.08c0-2.35 1.52-3.396 3.395-3.396a3.395 3.395 0 0 1 3.395 3.395v4.509c0 1.875-1.52 3.516-3.395 3.516s-3.395-1.085-3.395-3.516V7.079Z"/><path fill="url(#paint9_radial_20020_3140)" d="M8.747 7.08c0-2.35 1.52-3.396 3.395-3.396a3.395 3.395 0 0 1 3.395 3.395v4.509c0 1.875-1.52 3.516-3.395 3.516s-3.395-1.085-3.395-3.516V7.079Z"/><path fill="url(#paint10_radial_20020_3140)" d="M8.747 7.08c0-2.35 1.52-3.396 3.395-3.396a3.395 3.395 0 0 1 3.395 3.395v4.509c0 1.875-1.52 3.516-3.395 3.516s-3.395-1.085-3.395-3.516V7.079Z"/><path fill="url(#paint11_radial_20020_3140)" d="M8.747 7.08c0-2.35 1.52-3.396 3.395-3.396a3.395 3.395 0 0 1 3.395 3.395v4.509c0 1.875-1.52 3.516-3.395 3.516s-3.395-1.085-3.395-3.516V7.079Z"/><path fill="url(#paint12_radial_20020_3140)" d="M8.747 7.08c0-2.35 1.52-3.396 3.395-3.396a3.395 3.395 0 0 1 3.395 3.395v4.509c0 1.875-1.52 3.516-3.395 3.516s-3.395-1.085-3.395-3.516V7.079Z"/><rect width="6.79" height="11.898" x="21.033" y="2.599" fill="#7DDE5B" fill-opacity=".55" rx="3.395"/><rect width="6.79" height="11.898" x="21.033" y="2.599" fill="url(#paint13_radial_20020_3140)" rx="3.395"/><rect width="6.79" height="11.898" x="21.033" y="2.599" fill="url(#paint14_radial_20020_3140)" rx="3.395"/><rect width="6.79" height="11.898" x="21.033" y="2.599" fill="url(#paint15_radial_20020_3140)" rx="3.395"/><rect width="6.79" height="11.898" x="21.033" y="2.599" fill="url(#paint16_radial_20020_3140)" rx="3.395"/><path fill="url(#paint17_radial_20020_3140)" d="M14.78 5.675c0-1.847 1.498-3.166 3.345-3.166a3.345 3.345 0 0 1 3.346 3.346v6.192a3.345 3.345 0 0 1-6.69 0V5.675Z"/><path fill="url(#paint18_radial_20020_3140)" d="M14.78 5.675c0-1.847 1.498-3.166 3.345-3.166a3.345 3.345 0 0 1 3.346 3.346v6.192a3.345 3.345 0 0 1-6.69 0V5.675Z"/><path fill="url(#paint19_radial_20020_3140)" d="M14.78 5.675c0-1.847 1.498-3.166 3.345-3.166a3.345 3.345 0 0 1 3.346 3.346v6.192a3.345 3.345 0 0 1-6.69 0V5.675Z"/><path fill="url(#paint20_radial_20020_3140)" d="M14.78 5.675c0-1.847 1.498-3.166 3.345-3.166a3.345 3.345 0 0 1 3.346 3.346v6.192a3.345 3.345 0 0 1-6.69 0V5.675Z"/><path fill="url(#paint21_radial_20020_3140)" d="M14.78 5.675c0-1.847 1.498-3.166 3.345-3.166a3.345 3.345 0 0 1 3.346 3.346v6.192a3.345 3.345 0 0 1-6.69 0V5.675Z"/><path fill="url(#paint22_radial_20020_3140)" d="M14.78 5.675c0-1.847 1.498-3.166 3.345-3.166a3.345 3.345 0 0 1 3.346 3.346v6.192a3.345 3.345 0 0 1-6.69 0V5.675Z"/><path fill="url(#paint23_radial_20020_3140)" d="M18.339 9.797c-1.965 0-3.559 1.507-3.559 3.365 0 1.859 1.594 3.365 3.559 3.365h2.602c1.168 0 2.115.896 2.115 2v2.998h.2c3.464 0 5.254-3.02 5.254-5.765 0-3.293-2.823-5.963-6.306-5.963H18.34Z"/><path fill="url(#paint24_radial_20020_3140)" d="M18.339 9.797c-1.965 0-3.559 1.507-3.559 3.365 0 1.859 1.594 3.365 3.559 3.365h2.602c1.168 0 2.115.896 2.115 2v2.998h.2c3.464 0 5.254-3.02 5.254-5.765 0-3.293-2.823-5.963-6.306-5.963H18.34Z"/><path fill="url(#paint25_radial_20020_3140)" d="M18.339 9.797c-1.965 0-3.559 1.507-3.559 3.365 0 1.859 1.594 3.365 3.559 3.365h2.602c1.168 0 2.115.896 2.115 2v2.998h.2c3.464 0 5.254-3.02 5.254-5.765 0-3.293-2.823-5.963-6.306-5.963H18.34Z"/><path fill="url(#paint26_radial_20020_3140)" d="M18.339 9.797c-1.965 0-3.559 1.507-3.559 3.365 0 1.859 1.594 3.365 3.559 3.365h2.602c1.168 0 2.115.896 2.115 2v2.998h.2c3.464 0 5.254-3.02 5.254-5.765 0-3.293-2.823-5.963-6.306-5.963H18.34Z"/><g filter="url(#filter3_f_20020_3140)"><path stroke="url(#paint27_linear_20020_3140)" stroke-linecap="round" stroke-width="2" d="M19.828 12.25h2.14c3.187-.131 4.706 1.01 5.22 3.143"/></g><defs><radialGradient id="paint0_radial_20020_3140" cx="0" cy="0" r="1" gradientTransform="matrix(0 14.3034 -15.1439 0 16 17.516)" gradientUnits="userSpaceOnUse"><stop stop-color="#6D4747"/><stop offset="1" stop-color="#7E4F57"/></radialGradient><radialGradient id="paint1_radial_20020_3140" cx="0" cy="0" r="1" gradientTransform="matrix(0 13.0399 -20.6277 0 16 18.075)" gradientUnits="userSpaceOnUse"><stop offset=".657" stop-color="#824B7B" stop-opacity="0"/><stop offset="1" stop-color="#894278"/></radialGradient><radialGradient id="paint2_radial_20020_3140" cx="0" cy="0" r="1" gradientTransform="rotate(136.801 4.779 12.054) scale(14.2398 19.6064)" gradientUnits="userSpaceOnUse"><stop offset=".779" stop-color="#846058" stop-opacity="0"/><stop offset="1" stop-color="#846058"/></radialGradient><radialGradient id="paint4_radial_20020_3140" cx="0" cy="0" r="1" gradientTransform="matrix(-2.86026 0 0 -6.52072 8.233 10.438)" gradientUnits="userSpaceOnUse"><stop stop-color="#896B65"/><stop offset="1" stop-color="#794F3E"/></radialGradient><radialGradient id="paint5_radial_20020_3140" cx="0" cy="0" r="1" gradientTransform="matrix(0 7.80979 -6.7763 0 6.885 7.064)" gradientUnits="userSpaceOnUse"><stop offset=".525" stop-color="#703E53" stop-opacity="0"/><stop offset="1" stop-color="#703E53"/></radialGradient><radialGradient id="paint6_radial_20020_3140" cx="0" cy="0" r="1" gradientTransform="matrix(-1.67954 0 0 -10.0187 9.663 10.126)" gradientUnits="userSpaceOnUse"><stop offset=".413" stop-color="#643E2F"/><stop offset="1" stop-color="#653F32" stop-opacity="0"/></radialGradient><radialGradient id="paint7_radial_20020_3140" cx="0" cy="0" r="1" gradientTransform="matrix(1.22807 1.63545 -3.19277 2.39747 4.202 5.531)" gradientUnits="userSpaceOnUse"><stop stop-color="#7C665E"/><stop offset="1" stop-color="#7C665E" stop-opacity="0"/></radialGradient><radialGradient id="paint8_radial_20020_3140" cx="0" cy="0" r="1" gradientTransform="matrix(-2.86026 0 0 -7.46434 13.49 9.752)" gradientUnits="userSpaceOnUse"><stop stop-color="#896B65"/><stop offset="1" stop-color="#794F3E"/></radialGradient><radialGradient id="paint9_radial_20020_3140" cx="0" cy="0" r="1" gradientTransform="matrix(.97058 9.2143 -6.98425 .73568 12.142 5.89)" gradientUnits="userSpaceOnUse"><stop offset=".525" stop-color="#703E53" stop-opacity="0"/><stop offset="1" stop-color="#703E53"/></radialGradient><radialGradient id="paint10_radial_20020_3140" cx="0" cy="0" r="1" gradientTransform="matrix(-1.7514 0 0 -11.9592 15.537 9.394)" gradientUnits="userSpaceOnUse"><stop offset=".413" stop-color="#643E2F"/><stop offset="1" stop-color="#653F32" stop-opacity="0"/></radialGradient><radialGradient id="paint11_radial_20020_3140" cx="0" cy="0" r="1" gradientTransform="matrix(1.57034 0 0 10.7229 8.177 9.394)" gradientUnits="userSpaceOnUse"><stop offset=".089" stop-color="#643E2F"/><stop offset="1" stop-color="#653F32" stop-opacity="0"/></radialGradient><radialGradient id="paint12_radial_20020_3140" cx="0" cy="0" r="1" gradientTransform="rotate(56.736 .901 10.826) scale(2.23897 4.17494)" gradientUnits="userSpaceOnUse"><stop stop-color="#7C665E"/><stop offset="1" stop-color="#7C665E" stop-opacity="0"/></radialGradient><radialGradient id="paint13_radial_20020_3140" cx="0" cy="0" r="1" gradientTransform="matrix(-2.86026 0 0 -7.77671 25.776 8.92)" gradientUnits="userSpaceOnUse"><stop stop-color="#A58074"/><stop offset="1" stop-color="#8B5F4B"/></radialGradient><radialGradient id="paint14_radial_20020_3140" cx="0" cy="0" r="1" gradientTransform="matrix(.89774 11.336 -8.25444 .6537 24.428 4.897)" gradientUnits="userSpaceOnUse"><stop offset=".525" stop-color="#703E53" stop-opacity="0"/><stop offset="1" stop-color="#703E53"/></radialGradient><radialGradient id="paint15_radial_20020_3140" cx="0" cy="0" r="1" gradientTransform="matrix(1.36406 0 0 10.9671 21.361 8.548)" gradientUnits="userSpaceOnUse"><stop stop-color="#643E2F"/><stop offset="1" stop-color="#653F32" stop-opacity="0"/></radialGradient><radialGradient id="paint16_radial_20020_3140" cx="0" cy="0" r="1" gradientTransform="rotate(57.804 8.094 21.228) scale(2.30488 4.22527)" gradientUnits="userSpaceOnUse"><stop stop-color="#7C665E"/><stop offset="1" stop-color="#7C665E" stop-opacity="0"/></radialGradient><radialGradient id="paint17_radial_20020_3140" cx="0" cy="0" r="1" gradientTransform="matrix(-2.69201 0 0 -8.04356 19.73 8.951)" gradientUnits="userSpaceOnUse"><stop stop-color="#94746E"/><stop offset="1" stop-color="#815644"/></radialGradient><radialGradient id="paint18_radial_20020_3140" cx="0" cy="0" r="1" gradientTransform="rotate(84.743 6.324 12.434) scale(10.4391 6.92894)" gradientUnits="userSpaceOnUse"><stop offset=".525" stop-color="#703E53" stop-opacity="0"/><stop offset="1" stop-color="#703E53"/></radialGradient><radialGradient id="paint19_radial_20020_3140" cx="0" cy="0" r="1" gradientTransform="matrix(-.92538 0 0 -7.23475 21.693 8.951)" gradientUnits="userSpaceOnUse"><stop stop-color="#643E2F"/><stop offset="1" stop-color="#653F32" stop-opacity="0"/></radialGradient><radialGradient id="paint20_radial_20020_3140" cx="0" cy="0" r="1" gradientTransform="matrix(1.54732 0 0 12.0971 14.219 8.951)" gradientUnits="userSpaceOnUse"><stop offset=".089" stop-color="#643E2F"/><stop offset="1" stop-color="#653F32" stop-opacity="0"/></radialGradient><radialGradient id="paint21_radial_20020_3140" cx="0" cy="0" r="1" gradientTransform="rotate(60.19 5.138 14.865) scale(2.43413 4.26884)" gradientUnits="userSpaceOnUse"><stop stop-color="#7C665E"/><stop offset="1" stop-color="#7C665E" stop-opacity="0"/></radialGradient><radialGradient id="paint22_radial_20020_3140" cx="0" cy="0" r="1" gradientTransform="matrix(-.9378 -3.87903 3.99505 -.96584 16.8 12.013)" gradientUnits="userSpaceOnUse"><stop stop-color="#62443C"/><stop offset="1" stop-color="#62443C" stop-opacity="0"/></radialGradient><radialGradient id="paint23_radial_20020_3140" cx="0" cy="0" r="1" gradientTransform="matrix(-1.0336 5.97998 -11.68396 -2.0195 24.445 11.974)" gradientUnits="userSpaceOnUse"><stop stop-color="#986F5E"/><stop offset="1" stop-color="#743E55"/></radialGradient><radialGradient id="paint24_radial_20020_3140" cx="0" cy="0" r="1" gradientTransform="matrix(3.22676 -6.40043 7.33582 3.69833 25.283 21.525)" gradientUnits="userSpaceOnUse"><stop stop-color="#774D51"/><stop offset="1" stop-color="#774D51" stop-opacity="0"/></radialGradient><radialGradient id="paint25_radial_20020_3140" cx="0" cy="0" r="1" gradientTransform="matrix(3.74677 0 0 5.4251 14.24 13.267)" gradientUnits="userSpaceOnUse"><stop stop-color="#68463A"/><stop offset="1" stop-color="#68463A" stop-opacity="0"/></radialGradient><radialGradient id="paint26_radial_20020_3140" cx="0" cy="0" r="1" gradientTransform="matrix(1.14015 -.98439 1.64762 1.90833 15.307 15.661)" gradientUnits="userSpaceOnUse"><stop stop-color="#775050"/><stop offset="1" stop-color="#775050" stop-opacity="0"/></radialGradient><filter id="filter0_i_20020_3140" width="25.02" height="20.828" x="3.49" y="9.479" color-interpolation-filters="sRGB" filterUnits="userSpaceOnUse"><feFlood flood-opacity="0" result="BackgroundImageFix"/><feBlend in="SourceGraphic" in2="BackgroundImageFix" result="shape"/><feColorMatrix in="SourceAlpha" result="hardAlpha" values="0 0 0 0 0 0 0 0 0 0 0 0 0 0 0 0 0 0 127 0"/><feOffset/><feGaussianBlur stdDeviation="2"/><feComposite in2="hardAlpha" k2="-1" k3="1" operator="arithmetic"/><feColorMatrix values="0 0 0 0 0.364706 0 0 0 0 0.211765 0 0 0 0 0.215686 0 0 0 1 0"/><feBlend in2="shape" result="effect1_innerShadow_20020_3140"/></filter><filter id="filter1_f_20020_3140" width="18.678" height="12.194" x="7.28" y="9.903" color-interpolation-filters="sRGB" filterUnits="userSpaceOnUse"><feFlood flood-opacity="0" result="BackgroundImageFix"/><feBlend in="SourceGraphic" in2="BackgroundImageFix" result="shape"/><feGaussianBlur result="effect1_foregroundBlur_20020_3140" stdDeviation="1.5"/></filter><filter id="filter2_f_20020_3140" width="24.653" height="14.935" x="3.21" y="3.065" color-interpolation-filters="sRGB" filterUnits="userSpaceOnUse"><feFlood flood-opacity="0" result="BackgroundImageFix"/><feBlend in="SourceGraphic" in2="BackgroundImageFix" result="shape"/><feGaussianBlur result="effect1_foregroundBlur_20020_3140" stdDeviation="1"/></filter><filter id="filter3_f_20020_3140" width="12.76" height="8.553" x="17.128" y="9.54" color-interpolation-filters="sRGB" filterUnits="userSpaceOnUse"><feFlood flood-opacity="0" result="BackgroundImageFix"/><feBlend in="SourceGraphic" in2="BackgroundImageFix" result="shape"/><feGaussianBlur result="effect1_foregroundBlur_20020_3140" stdDeviation=".85"/></filter><linearGradient id="paint3_linear_20020_3140" x1="20.393" x2="8.571" y1="17.241" y2="21.196" gradientUnits="userSpaceOnUse"><stop stop-color="#4E2A2F"/><stop offset="1" stop-color="#4E2A2F" stop-opacity="0"/></linearGradient><linearGradient id="paint27_linear_20020_3140" x1="19.828" x2="31.13" y1="12.402" y2="16.093" gradientUnits="userSpaceOnUse"><stop stop-color="#9E786F"/><stop offset="1" stop-color="#9E786F" stop-opacity="0"/></linearGradient></defs></svg>