<svg xmlns="http://www.w3.org/2000/svg" width="32" height="32" fill="none" viewBox="0 0 32 32"><g filter="url(#filter0_i_20020_1220)"><path fill="#FFC040" d="M14.088 4.49a2.406 2.406 0 0 1 4.809-.135l.027.945a2.406 2.406 0 0 1 4.393 1.4l-.026 1.37a2.406 2.406 0 0 1 4.16 1.736l-.336 8.822c-.005 1.33-.149 3.695-1.003 5.76-1.208 3.267-4.341 5.595-8.016 5.595-3.715 0-6.877-2.379-8.055-5.701-.888-2.11-2.361-4.284-2.986-5.206l-.042-.06-2.098-2.82a2.536 2.536 0 0 1 4.05-3.054l1.088 1.424-.343-7.953a2.385 2.385 0 0 1 4.399-1.378l-.021-.744Z"/><path fill="url(#paint0_radial_20020_1220)" d="M14.088 4.49a2.406 2.406 0 0 1 4.809-.135l.027.945a2.406 2.406 0 0 1 4.393 1.4l-.026 1.37a2.406 2.406 0 0 1 4.16 1.736l-.336 8.822c-.005 1.33-.149 3.695-1.003 5.76-1.208 3.267-4.341 5.595-8.016 5.595-3.715 0-6.877-2.379-8.055-5.701-.888-2.11-2.361-4.284-2.986-5.206l-.042-.06-2.098-2.82a2.536 2.536 0 0 1 4.05-3.054l1.088 1.424-.343-7.953a2.385 2.385 0 0 1 4.399-1.378l-.021-.744Z"/></g><path fill="url(#paint1_radial_20020_1220)" d="m5.357 12.708.078-.06a2.536 2.536 0 0 1 3.53.494l1.084 1.419.162 4.512-4.854-6.365Z"/><g filter="url(#filter1_f_20020_1220)"><path fill="url(#paint2_linear_20020_1220)" d="M10.105 16.317v3.101l-3.76-4.823a.93.93 0 0 1 1.457-1.152l2.303 2.874Z"/></g><path fill="url(#paint3_linear_20020_1220)" d="m10.039 14.547.12 2.78 4.124-1.72-.177-10.377A2.384 2.384 0 0 0 9.71 6.613l.343 7.953-.014-.019Z"/><path fill="url(#paint4_linear_20020_1220)" d="m10.039 14.547.12 2.78 4.124-1.72-.177-10.377A2.384 2.384 0 0 0 9.71 6.613l.343 7.953-.014-.019Z"/><path fill="url(#paint5_radial_20020_1220)" d="m10.039 14.547.12 2.78 4.124-1.72-.177-10.377A2.384 2.384 0 0 0 9.71 6.613l.343 7.953-.014-.019Z"/><path fill="url(#paint6_linear_20020_1220)" d="m10.039 14.547.12 2.78 4.124-1.72-.177-10.377A2.384 2.384 0 0 0 9.71 6.613l.343 7.953-.014-.019Z"/><path fill="url(#paint7_radial_20020_1220)" d="m10.039 14.547.12 2.78 4.124-1.72-.177-10.377A2.384 2.384 0 0 0 9.71 6.613l.343 7.953-.014-.019Z"/><path fill="url(#paint8_linear_20020_1220)" d="m18.925 5.298-.001.002-.027-.945a2.406 2.406 0 0 0-4.809-.022l.008.455.013.447-.005-.008.171 12.6h4.688l-.038-12.529Z"/><path fill="url(#paint9_linear_20020_1220)" d="m18.925 5.298-.001.002-.027-.945a2.406 2.406 0 0 0-4.809-.022l.008.455.013.447-.005-.008.171 12.6h4.688l-.038-12.529Z"/><path fill="url(#paint10_radial_20020_1220)" d="m18.925 5.298-.001.002-.027-.945a2.406 2.406 0 0 0-4.809-.022l.008.455.013.447-.005-.008.171 12.6h4.688l-.038-12.529Z"/><g filter="url(#filter2_f_20020_1220)"><path fill="url(#paint11_linear_20020_1220)" d="m11.953 5.921.174 10.905 1.75-.218-.261-10.72a.831.831 0 0 0-1.663.033Z"/></g><g filter="url(#filter3_f_20020_1220)"><path fill="url(#paint12_linear_20020_1220)" d="M16.97 5.18c0-.302-.06-.581-.186-.81-.209-.38-.43-.856-.239-1.245.153-.311.51-.486.819-.33 1.065.542 1.196 1.67 1.17 2.384v10.594a.772.772 0 0 1-.773.772.776.776 0 0 1-.776-.788c.048-3.492-.014-9.664-.014-10.578Z"/></g><path fill="url(#paint13_linear_20020_1220)" d="m18.927 5.295-.019 12.156h4.188l.196-9.383-.001.002.026-1.37a2.406 2.406 0 0 0-4.39-1.405Z"/><path fill="url(#paint14_linear_20020_1220)" d="m18.927 5.295-.019 12.156h4.188l.196-9.383-.001.002.026-1.37a2.406 2.406 0 0 0-4.39-1.405Z"/><path fill="url(#paint15_radial_20020_1220)" d="m18.927 5.295-.019 12.156h4.188l.196-9.383-.001.002.026-1.37a2.406 2.406 0 0 0-4.39-1.405Z"/><g filter="url(#filter4_f_20020_1220)"><path fill="url(#paint16_linear_20020_1220)" d="M21.895 5.451c-.43 0-.78.35-.777.782.015 2.195.043 7.039.007 9.523a.776.776 0 0 0 .775.789.772.772 0 0 0 .773-.772V6.228a.777.777 0 0 0-.777-.777Z"/></g><path fill="url(#paint17_linear_20020_1220)" d="M14.088 4.49a2.406 2.406 0 0 1 4.809-.135l.027.945a2.406 2.406 0 0 1 4.393 1.4l-.026 1.37a2.406 2.406 0 0 1 4.16 1.736l-.336 8.822c-.005 1.33-.149 3.695-1.003 5.76-1.208 3.267-4.341 5.595-8.016 5.595-3.715 0-6.877-2.379-8.055-5.701-.888-2.11-2.361-4.284-2.986-5.206l-.042-.06-2.098-2.82a2.536 2.536 0 0 1 4.05-3.054l1.088 1.424-.343-7.953a2.385 2.385 0 0 1 4.399-1.378l-.021-.744Z"/><path fill="url(#paint18_radial_20020_1220)" d="M14.088 4.49a2.406 2.406 0 0 1 4.809-.135l.027.945a2.406 2.406 0 0 1 4.393 1.4l-.026 1.37a2.406 2.406 0 0 1 4.16 1.736l-.336 8.822c-.005 1.33-.149 3.695-1.003 5.76-1.208 3.267-4.341 5.595-8.016 5.595-3.715 0-6.877-2.379-8.055-5.701-.888-2.11-2.361-4.284-2.986-5.206l-.042-.06-2.098-2.82a2.536 2.536 0 0 1 4.05-3.054l1.088 1.424-.343-7.953a2.385 2.385 0 0 1 4.399-1.378l-.021-.744Z"/><path fill="url(#paint19_radial_20020_1220)" d="M14.088 4.49a2.406 2.406 0 0 1 4.809-.135l.027.945a2.406 2.406 0 0 1 4.393 1.4l-.026 1.37a2.406 2.406 0 0 1 4.16 1.736l-.336 8.822c-.005 1.33-.149 3.695-1.003 5.76-1.208 3.267-4.341 5.595-8.016 5.595-3.715 0-6.877-2.379-8.055-5.701-.888-2.11-2.361-4.284-2.986-5.206l-.042-.06-2.098-2.82a2.536 2.536 0 0 1 4.05-3.054l1.088 1.424-.343-7.953a2.385 2.385 0 0 1 4.399-1.378l-.021-.744Z"/><path fill="url(#paint20_radial_20020_1220)" d="M14.088 4.49a2.406 2.406 0 0 1 4.809-.135l.027.945a2.406 2.406 0 0 1 4.393 1.4l-.026 1.37a2.406 2.406 0 0 1 4.16 1.736l-.336 8.822c-.005 1.33-.149 3.695-1.003 5.76-1.208 3.267-4.341 5.595-8.016 5.595-3.715 0-6.877-2.379-8.055-5.701-.888-2.11-2.361-4.284-2.986-5.206l-.042-.06-2.098-2.82a2.536 2.536 0 0 1 4.05-3.054l1.088 1.424-.343-7.953a2.385 2.385 0 0 1 4.399-1.378l-.021-.744Z"/><path fill="url(#paint21_radial_20020_1220)" d="M14.088 4.49a2.406 2.406 0 0 1 4.809-.135l.027.945a2.406 2.406 0 0 1 4.393 1.4l-.026 1.37a2.406 2.406 0 0 1 4.16 1.736l-.336 8.822c-.005 1.33-.149 3.695-1.003 5.76-1.208 3.267-4.341 5.595-8.016 5.595-3.715 0-6.877-2.379-8.055-5.701-.888-2.11-2.361-4.284-2.986-5.206l-.042-.06-2.098-2.82a2.536 2.536 0 0 1 4.05-3.054l1.088 1.424-.343-7.953a2.385 2.385 0 0 1 4.399-1.378l-.021-.744Z"/><g filter="url(#filter5_f_20020_1220)"><path fill="url(#paint22_linear_20020_1220)" d="M26.672 20.014c-.17 3.648-1.908 6.402-3.71 7.568l1.881-19.827c2.015 0 2.252 1.511 2.227 2.452-.053 1.961-.228 6.16-.398 9.807Z"/></g><path fill="url(#paint23_linear_20020_1220)" d="m23.3 8.06-.267 8.548 4.156.343.262-7.145a2.406 2.406 0 0 0-4.15-1.747Z"/><path fill="url(#paint24_linear_20020_1220)" d="m23.3 8.06-.267 8.548 4.156.343.262-7.145a2.406 2.406 0 0 0-4.15-1.747Z"/><path fill="url(#paint25_radial_20020_1220)" d="m23.3 8.06-.267 8.548 4.156.343.262-7.145a2.406 2.406 0 0 0-4.15-1.747Z"/><g filter="url(#filter6_f_20020_1220)"><path fill="url(#paint26_linear_20020_1220)" d="M26.133 8.517a.673.673 0 0 0-.688.664c-.026 2.142-.091 7.103-.17 9.627-.013.433.283.794.66.8.37.007.676-.333.684-.76l.177-9.644a.675.675 0 0 0-.663-.687Z"/></g><defs><linearGradient id="paint2_linear_20020_1220" x1="6.898" x2="11.207" y1="13.586" y2="20.376" gradientUnits="userSpaceOnUse"><stop stop-color="#FFC737"/><stop offset="1" stop-color="#FFC737" stop-opacity="0"/></linearGradient><linearGradient id="paint3_linear_20020_1220" x1="9.127" x2="11.783" y1="12.014" y2="11.889" gradientUnits="userSpaceOnUse"><stop stop-color="#E7942E"/><stop offset="1" stop-color="#E7942E" stop-opacity="0"/></linearGradient><linearGradient id="paint4_linear_20020_1220" x1="14.549" x2="13.565" y1="11.061" y2="11.076" gradientUnits="userSpaceOnUse"><stop stop-color="#E7942E"/><stop offset="1" stop-color="#E7942E" stop-opacity="0"/></linearGradient><linearGradient id="paint6_linear_20020_1220" x1="11.995" x2="11.377" y1="16.779" y2="14.779" gradientUnits="userSpaceOnUse"><stop offset=".236" stop-color="#FFC040"/><stop offset="1" stop-color="#FFC040" stop-opacity="0"/></linearGradient><linearGradient id="paint8_linear_20020_1220" x1="13.221" x2="16.299" y1="9.889" y2="9.836" gradientUnits="userSpaceOnUse"><stop stop-color="#E7942E"/><stop offset="1" stop-color="#E7942E" stop-opacity="0"/></linearGradient><linearGradient id="paint9_linear_20020_1220" x1="15.752" x2="15.957" y1="17.076" y2="14.145" gradientUnits="userSpaceOnUse"><stop stop-color="#FFC040"/><stop offset="1" stop-color="#FFC040" stop-opacity="0"/></linearGradient><linearGradient id="paint11_linear_20020_1220" x1="12.861" x2="17.831" y1="6.264" y2="9.495" gradientUnits="userSpaceOnUse"><stop stop-color="#FBC931"/><stop offset="1" stop-color="#FBC931" stop-opacity="0"/></linearGradient><linearGradient id="paint12_linear_20020_1220" x1="18.189" x2="26.82" y1="2.139" y2="8.302" gradientUnits="userSpaceOnUse"><stop stop-color="#FFE747"/><stop offset="1" stop-color="#FFE747" stop-opacity="0"/></linearGradient><linearGradient id="paint13_linear_20020_1220" x1="18.124" x2="20.908" y1="10.823" y2="10.771" gradientUnits="userSpaceOnUse"><stop stop-color="#E7942E"/><stop offset="1" stop-color="#E7942E" stop-opacity="0"/></linearGradient><linearGradient id="paint14_linear_20020_1220" x1="19.939" x2="20.469" y1="15.889" y2="13.15" gradientUnits="userSpaceOnUse"><stop stop-color="#FFC040"/><stop offset="1" stop-color="#FFC040" stop-opacity="0"/></linearGradient><linearGradient id="paint16_linear_20020_1220" x1="22.329" x2="22.329" y1="5.451" y2="19.014" gradientUnits="userSpaceOnUse"><stop stop-color="#FFE747"/><stop offset="1" stop-color="#FFE747" stop-opacity="0"/></linearGradient><linearGradient id="paint17_linear_20020_1220" x1="27.839" x2="22.484" y1="22.599" y2="22.599" gradientUnits="userSpaceOnUse"><stop stop-color="#FFCA40"/><stop offset="1" stop-color="#FFCA40" stop-opacity="0"/></linearGradient><linearGradient id="paint22_linear_20020_1220" x1="27.68" x2="24.711" y1="16.131" y2="16.025" gradientUnits="userSpaceOnUse"><stop stop-color="#FFE747"/><stop offset="1" stop-color="#FFE747" stop-opacity="0"/></linearGradient><linearGradient id="paint23_linear_20020_1220" x1="22.21" x2="24.537" y1="12.609" y2="12.855" gradientUnits="userSpaceOnUse"><stop stop-color="#F1A71C"/><stop offset="1" stop-color="#F1A71C" stop-opacity="0"/></linearGradient><linearGradient id="paint24_linear_20020_1220" x1="23.439" x2="24.38" y1="16.951" y2="15.366" gradientUnits="userSpaceOnUse"><stop stop-color="#FFC642"/><stop offset="1" stop-color="#FFC642" stop-opacity="0"/></linearGradient><linearGradient id="paint26_linear_20020_1220" x1="26.51" x2="26.261" y1="8.524" y2="22.084" gradientUnits="userSpaceOnUse"><stop stop-color="#FFE747"/><stop offset="1" stop-color="#FFE747" stop-opacity="0"/></linearGradient><radialGradient id="paint0_radial_20020_1220" cx="0" cy="0" r="1" gradientTransform="matrix(5.125 -2.625 9.42008 18.39159 9.97 27.076)" gradientUnits="userSpaceOnUse"><stop stop-color="#EF9833"/><stop offset="1" stop-color="#EF9833" stop-opacity="0"/></radialGradient><radialGradient id="paint1_radial_20020_1220" cx="0" cy="0" r="1" gradientTransform="rotate(146.31 2.975 9.3) scale(1.33802 3.89834)" gradientUnits="userSpaceOnUse"><stop stop-color="#B46810"/><stop offset="1" stop-color="#B46810" stop-opacity="0"/></radialGradient><radialGradient id="paint5_radial_20020_1220" cx="0" cy="0" r="1" gradientTransform="rotate(157.319 6.683 4.045) scale(1.13462 1.78724)" gradientUnits="userSpaceOnUse"><stop stop-color="#9B5C19"/><stop offset="1" stop-color="#9B5C19" stop-opacity="0"/></radialGradient><radialGradient id="paint7_radial_20020_1220" cx="0" cy="0" r="1" gradientTransform="matrix(.97056 1.68398 -3.94738 2.27506 10.533 3.795)" gradientUnits="userSpaceOnUse"><stop stop-color="#D79D3A"/><stop offset="1" stop-color="#D79D3A" stop-opacity="0"/></radialGradient><radialGradient id="paint10_radial_20020_1220" cx="0" cy="0" r="1" gradientTransform="matrix(.87499 1.62144 -2.44595 1.31993 15.127 2.017)" gradientUnits="userSpaceOnUse"><stop stop-color="#D79D3A"/><stop offset="1" stop-color="#D79D3A" stop-opacity="0"/></radialGradient><radialGradient id="paint15_radial_20020_1220" cx="0" cy="0" r="1" gradientTransform="matrix(.79135 1.354 -2.12907 1.24435 19.848 4.25)" gradientUnits="userSpaceOnUse"><stop stop-color="#D79D3A"/><stop offset="1" stop-color="#D79D3A" stop-opacity="0"/></radialGradient><radialGradient id="paint18_radial_20020_1220" cx="0" cy="0" r="1" gradientTransform="matrix(-.1875 -2.2675 1.77572 -.14684 13.19 16)" gradientUnits="userSpaceOnUse"><stop stop-color="#FFCD3F"/><stop offset="1" stop-color="#FFCD3F" stop-opacity="0"/></radialGradient><radialGradient id="paint19_radial_20020_1220" cx="0" cy="0" r="1" gradientTransform="matrix(-.09375 -2.17374 2.00449 -.08645 17.908 16)" gradientUnits="userSpaceOnUse"><stop stop-color="#FFCD3F"/><stop offset="1" stop-color="#FFCD3F" stop-opacity="0"/></radialGradient><radialGradient id="paint20_radial_20020_1220" cx="0" cy="0" r="1" gradientTransform="rotate(-91.909 18.742 -2.418) scale(1.87604)" gradientUnits="userSpaceOnUse"><stop stop-color="#FFCD3F"/><stop offset="1" stop-color="#FFCD3F" stop-opacity="0"/></radialGradient><radialGradient id="paint21_radial_20020_1220" cx="0" cy="0" r="1" gradientTransform="rotate(-153.436 14.602 5.254) scale(2.3758 3.1303)" gradientUnits="userSpaceOnUse"><stop stop-color="#FFCD3F"/><stop offset="1" stop-color="#FFCD3F" stop-opacity="0"/></radialGradient><radialGradient id="paint25_radial_20020_1220" cx="0" cy="0" r="1" gradientTransform="matrix(.84085 1.7617 -4.7063 2.2463 23.908 6.639)" gradientUnits="userSpaceOnUse"><stop stop-color="#D79D3A"/><stop offset="1" stop-color="#D79D3A" stop-opacity="0"/></radialGradient><filter id="filter0_i_20020_1220" width="23.289" height="28.965" x="4.413" y="1.017" color-interpolation-filters="sRGB" filterUnits="userSpaceOnUse"><feFlood flood-opacity="0" result="BackgroundImageFix"/><feBlend in="SourceGraphic" in2="BackgroundImageFix" result="shape"/><feColorMatrix in="SourceAlpha" result="hardAlpha" values="0 0 0 0 0 0 0 0 0 0 0 0 0 0 0 0 0 0 127 0"/><feOffset dx=".25" dy="-1"/><feGaussianBlur stdDeviation="1.25"/><feComposite in2="hardAlpha" k2="-1" k3="1" operator="arithmetic"/><feColorMatrix values="0 0 0 0 0.933333 0 0 0 0 0.4634 0 0 0 0 0.315 0 0 0 1 0"/><feBlend in2="shape" result="effect1_innerShadow_20020_1220"/></filter><filter id="filter1_f_20020_1220" width="5.458" height="7.823" x="5.398" y="12.345" color-interpolation-filters="sRGB" filterUnits="userSpaceOnUse"><feFlood flood-opacity="0" result="BackgroundImageFix"/><feBlend in="SourceGraphic" in2="BackgroundImageFix" result="shape"/><feGaussianBlur result="effect1_foregroundBlur_20020_1220" stdDeviation=".375"/></filter><filter id="filter2_f_20020_1220" width="3.424" height="13.25" x="11.203" y="4.326" color-interpolation-filters="sRGB" filterUnits="userSpaceOnUse"><feFlood flood-opacity="0" result="BackgroundImageFix"/><feBlend in="SourceGraphic" in2="BackgroundImageFix" result="shape"/><feGaussianBlur result="effect1_foregroundBlur_20020_1220" stdDeviation=".375"/></filter><filter id="filter3_f_20020_1220" width="4.064" height="15.808" x="15.472" y="1.737" color-interpolation-filters="sRGB" filterUnits="userSpaceOnUse"><feFlood flood-opacity="0" result="BackgroundImageFix"/><feBlend in="SourceGraphic" in2="BackgroundImageFix" result="shape"/><feGaussianBlur result="effect1_foregroundBlur_20020_1220" stdDeviation=".5"/></filter><filter id="filter4_f_20020_1220" width="3.555" height="13.094" x="20.118" y="4.451" color-interpolation-filters="sRGB" filterUnits="userSpaceOnUse"><feFlood flood-opacity="0" result="BackgroundImageFix"/><feBlend in="SourceGraphic" in2="BackgroundImageFix" result="shape"/><feGaussianBlur result="effect1_foregroundBlur_20020_1220" stdDeviation=".5"/></filter><filter id="filter5_f_20020_1220" width="6.11" height="21.827" x="21.961" y="6.755" color-interpolation-filters="sRGB" filterUnits="userSpaceOnUse"><feFlood flood-opacity="0" result="BackgroundImageFix"/><feBlend in="SourceGraphic" in2="BackgroundImageFix" result="shape"/><feGaussianBlur result="effect1_foregroundBlur_20020_1220" stdDeviation=".5"/></filter><filter id="filter6_f_20020_1220" width="3.521" height="13.092" x="24.275" y="7.516" color-interpolation-filters="sRGB" filterUnits="userSpaceOnUse"><feFlood flood-opacity="0" result="BackgroundImageFix"/><feBlend in="SourceGraphic" in2="BackgroundImageFix" result="shape"/><feGaussianBlur result="effect1_foregroundBlur_20020_1220" stdDeviation=".5"/></filter></defs></svg>