<svg xmlns="http://www.w3.org/2000/svg" width="32" height="32" fill="none" viewBox="0 0 32 32"><g stroke-linecap="round" stroke-linejoin="round" stroke-miterlimit="10" stroke-width=".85" filter="url(#filter0_i_18_742)"><path stroke="url(#paint0_linear_18_742)" d="m3 23.76 1.6-1.15-.52-1.9"/><path stroke="url(#paint1_radial_18_742)" d="m3 23.76 1.6-1.15-.52-1.9"/></g><path stroke="url(#paint2_linear_18_742)" stroke-linecap="round" stroke-linejoin="round" stroke-miterlimit="10" d="m6.19 23.2-1.2 1.12"/><g stroke-linecap="round" stroke-linejoin="round" stroke-miterlimit="10" filter="url(#filter1_i_18_742)"><path stroke="url(#paint3_linear_18_742)" d="m5.82 20.27 1.08-1.76"/><path stroke="url(#paint4_radial_18_742)" d="m5.82 20.27 1.08-1.76"/></g><g stroke-linecap="round" stroke-linejoin="round" stroke-miterlimit="10" filter="url(#filter2_i_18_742)"><path stroke="url(#paint5_linear_18_742)" d="m6.94 21.96.7-1.14"/><path stroke="url(#paint6_radial_18_742)" d="m6.94 21.96.7-1.14"/></g><path stroke="url(#paint7_linear_18_742)" stroke-linecap="round" stroke-linejoin="round" stroke-miterlimit="10" d="M7.77 23.76 3.04 22"/><path stroke="url(#paint8_linear_18_742)" stroke-linecap="round" stroke-linejoin="round" stroke-miterlimit="10" d="M7.77 23.76 3.04 22"/><g stroke-linecap="round" stroke-linejoin="round" stroke-miterlimit="10" filter="url(#filter3_i_18_742)"><path stroke="url(#paint9_linear_18_742)" d="m26.73 18.31.8 2.18 2.32.02"/><path stroke="url(#paint10_radial_18_742)" d="m26.73 18.31.8 2.18 2.32.02"/><path stroke="url(#paint11_radial_18_742)" d="m26.73 18.31.8 2.18 2.32.02"/><path stroke="url(#paint12_radial_18_742)" d="m26.73 18.31.8 2.18 2.32.02"/></g><g stroke-linecap="round" stroke-linejoin="round" stroke-miterlimit="10" filter="url(#filter4_i_18_742)"><path stroke="url(#paint13_linear_18_742)" d="m25.3 20.29.79 2.18 2.32.02"/><path stroke="url(#paint14_radial_18_742)" d="m25.3 20.29.79 2.18 2.32.02"/><path stroke="url(#paint15_radial_18_742)" d="m25.3 20.29.79 2.18 2.32.02"/><path stroke="url(#paint16_radial_18_742)" d="m25.3 20.29.79 2.18 2.32.02"/></g><path stroke="url(#paint17_linear_18_742)" stroke-linecap="round" stroke-linejoin="round" stroke-miterlimit="10" d="m23.55 26.12 5.34-7.56"/><path stroke="url(#paint18_radial_18_742)" stroke-linecap="round" stroke-linejoin="round" stroke-miterlimit="10" d="m23.55 26.12 5.34-7.56"/><path stroke="url(#paint19_linear_18_742)" stroke-linecap="round" stroke-linejoin="round" stroke-miterlimit="10" d="m23.55 26.12 5.34-7.56"/><g stroke-linecap="round" stroke-linejoin="round" stroke-miterlimit="10" filter="url(#filter5_i_18_742)"><path stroke="#70B430" d="m8.2 24.52-3.41-6.11"/><path stroke="url(#paint20_linear_18_742)" d="m8.2 24.52-3.41-6.11"/><path stroke="url(#paint21_linear_18_742)" d="m8.2 24.52-3.41-6.11"/></g><path fill="url(#paint22_linear_18_742)" d="M25.92 30H7.03c-.31 0-.57-.26-.57-.57v-1.61h20.03v1.61c0 .31-.25.57-.57.57Z"/><path fill="url(#paint23_linear_18_742)" d="M25.92 30H7.03c-.31 0-.57-.26-.57-.57v-1.61h20.03v1.61c0 .31-.25.57-.57.57Z"/><path fill="url(#paint24_linear_18_742)" d="M25.92 30H7.03c-.31 0-.57-.26-.57-.57v-1.61h20.03v1.61c0 .31-.25.57-.57.57Z"/><path fill="url(#paint25_linear_18_742)" d="M26.07 24H6.88c-.23 0-.42.19-.42.42v4.19h20.03v-4.19c0-.23-.18-.42-.42-.42Z"/><path fill="url(#paint26_linear_18_742)" d="M26.07 24H6.88c-.23 0-.42.19-.42.42v4.19h20.03v-4.19c0-.23-.18-.42-.42-.42Z"/><path fill="url(#paint27_linear_18_742)" d="M26.07 24H6.88c-.23 0-.42.19-.42.42v4.19h20.03v-4.19c0-.23-.18-.42-.42-.42Z"/><path fill="#659D48" d="M13.81 12.1H8.47V24h5.34V12.1Z"/><path fill="url(#paint28_radial_18_742)" d="M13.81 12.1H8.47V24h5.34V12.1Z"/><path fill="url(#paint29_linear_18_742)" d="M13.81 12.1H8.47V24h5.34V12.1Z"/><path fill="url(#paint30_radial_18_742)" d="M13.81 12.1H8.47V24h5.34V12.1Z"/><g filter="url(#filter6_i_18_742)"><path fill="url(#paint31_linear_18_742)" d="M11.14 7.25c-1.47 0-2.67 1.2-2.67 2.67v1.89c0 1.47 1.2 2.67 2.67 2.67s2.67-1.2 2.67-2.67V9.92c0-1.48-1.2-2.67-2.67-2.67Z"/><path fill="url(#paint32_radial_18_742)" d="M11.14 7.25c-1.47 0-2.67 1.2-2.67 2.67v1.89c0 1.47 1.2 2.67 2.67 2.67s2.67-1.2 2.67-2.67V9.92c0-1.48-1.2-2.67-2.67-2.67Z"/></g><path fill="url(#paint33_radial_18_742)" d="M11.14 8.28c-1.05 0-1.91.85-1.91 1.91v1.35a1.91 1.91 0 1 0 3.82 0v-1.35a1.923 1.923 0 0 0-1.91-1.91Z"/><path fill="url(#paint34_radial_18_742)" d="M11.14 8.28c-1.05 0-1.91.85-1.91 1.91v1.35a1.91 1.91 0 1 0 3.82 0v-1.35a1.923 1.923 0 0 0-1.91-1.91Z"/><path fill="#599445" d="M24.49 15.1h-5.34V24h5.34v-8.9Z"/><path fill="url(#paint35_radial_18_742)" d="M24.49 15.1h-5.34V24h5.34v-8.9Z"/><path fill="url(#paint36_radial_18_742)" d="M24.49 15.1h-5.34V24h5.34v-8.9Z"/><path fill="url(#paint37_linear_18_742)" d="M24.49 15.1h-5.34V24h5.34v-8.9Z"/><g filter="url(#filter7_i_18_742)"><path fill="url(#paint38_linear_18_742)" d="M21.82 10.25c-1.47 0-2.67 1.2-2.67 2.67v1.89c0 1.47 1.2 2.67 2.67 2.67s2.67-1.2 2.67-2.67v-1.89c0-1.48-1.2-2.67-2.67-2.67Z"/><path fill="url(#paint39_radial_18_742)" d="M21.82 10.25c-1.47 0-2.67 1.2-2.67 2.67v1.89c0 1.47 1.2 2.67 2.67 2.67s2.67-1.2 2.67-2.67v-1.89c0-1.48-1.2-2.67-2.67-2.67Z"/></g><path fill="url(#paint40_radial_18_742)" d="M21.82 11.28c-1.05 0-1.91.85-1.91 1.91v1.35a1.91 1.91 0 1 0 3.82 0v-1.35a1.923 1.923 0 0 0-1.91-1.91Z"/><path fill="url(#paint41_radial_18_742)" d="M21.82 11.28c-1.05 0-1.91.85-1.91 1.91v1.35a1.91 1.91 0 1 0 3.82 0v-1.35a1.923 1.923 0 0 0-1.91-1.91Z"/><path fill="url(#paint42_linear_18_742)" d="M19.15 5.5h-5.34V24h5.34V5.5Z"/><path fill="url(#paint43_radial_18_742)" d="M19.15 5.5h-5.34V24h5.34V5.5Z"/><path fill="url(#paint44_radial_18_742)" d="M19.15 5.5h-5.34V24h5.34V5.5Z"/><path fill="url(#paint45_radial_18_742)" d="M19.15 5.5h-5.34V24h5.34V5.5Z"/><path fill="url(#paint46_linear_18_742)" d="M19.15 5.5h-5.34V24h5.34V5.5Z"/><path fill="url(#paint47_radial_18_742)" d="M19.15 5.5h-5.34V24h5.34V5.5Z"/><g filter="url(#filter8_i_18_742)"><path fill="url(#paint48_linear_18_742)" d="M16.48 2c-1.47 0-2.67 1.2-2.67 2.67v1.89c0 1.47 1.2 2.67 2.67 2.67s2.67-1.2 2.67-2.67V4.67c0-1.48-1.2-2.67-2.67-2.67Z"/><path fill="url(#paint49_radial_18_742)" d="M16.48 2c-1.47 0-2.67 1.2-2.67 2.67v1.89c0 1.47 1.2 2.67 2.67 2.67s2.67-1.2 2.67-2.67V4.67c0-1.48-1.2-2.67-2.67-2.67Z"/></g><path fill="url(#paint50_radial_18_742)" d="M16.48 3.03c-1.05 0-1.91.85-1.91 1.91v1.35a1.91 1.91 0 1 0 3.82 0V4.94a1.923 1.923 0 0 0-1.91-1.91Z"/><path fill="url(#paint51_radial_18_742)" d="M16.48 3.03c-1.05 0-1.91.85-1.91 1.91v1.35a1.91 1.91 0 1 0 3.82 0V4.94a1.923 1.923 0 0 0-1.91-1.91Z"/><g filter="url(#filter9_i_18_742)"><path fill="#6B9E1C" d="M19.16 21.2h-5.37v1.28h5.37V21.2Z"/><path fill="url(#paint52_radial_18_742)" d="M19.16 21.2h-5.37v1.28h5.37V21.2Z"/></g><g filter="url(#filter10_i_18_742)"><path fill="#8FC32B" d="M19.16 13.62h-5.37v1.28h5.37v-1.28Z"/><path fill="url(#paint53_radial_18_742)" d="M19.16 13.62h-5.37v1.28h5.37v-1.28Z"/></g><g filter="url(#filter11_i_18_742)"><path fill="#96CE31" d="M13.514 16.84H8.765a.64.64 0 0 0 0 1.28h4.748a.64.64 0 1 0 0-1.28Z"/><path fill="url(#paint54_radial_18_742)" d="M13.514 16.84H8.765a.64.64 0 0 0 0 1.28h4.748a.64.64 0 1 0 0-1.28Z"/></g><g filter="url(#filter12_i_18_742)"><path fill="#96CE31" d="M24.194 18.77h-4.747a.64.64 0 0 0 0 1.28h4.747a.64.64 0 1 0 0-1.28Z"/><path fill="url(#paint55_radial_18_742)" d="M24.194 18.77h-4.747a.64.64 0 0 0 0 1.28h4.747a.64.64 0 1 0 0-1.28Z"/></g><g filter="url(#filter13_f_18_742)"><path stroke="url(#paint56_linear_18_742)" stroke-linecap="round" stroke-width=".25" d="m4.857 18.344 3.015 5.36"/></g><g filter="url(#filter14_f_18_742)"><path stroke="url(#paint57_linear_18_742)" stroke-linecap="round" stroke-width=".25" d="m3.075 21.922 3.47 1.297"/></g><defs><radialGradient id="paint1_radial_18_742" cx="0" cy="0" r="1" gradientTransform="matrix(-.44726 .73438 -1.60582 -.978 4.247 22.734)" gradientUnits="userSpaceOnUse"><stop offset=".248" stop-color="#2D5D28"/><stop offset="1" stop-color="#2D5D28" stop-opacity="0"/></radialGradient><radialGradient id="paint4_radial_18_742" cx="0" cy="0" r="1" gradientTransform="matrix(.89062 -1.41186 .29612 .1868 6.232 19.922)" gradientUnits="userSpaceOnUse"><stop stop-color="#639D55"/><stop offset="1" stop-color="#639D55" stop-opacity="0"/></radialGradient><radialGradient id="paint6_radial_18_742" cx="0" cy="0" r="1" gradientTransform="matrix(.57726 -.91451 .19186 .1211 7.207 21.735)" gradientUnits="userSpaceOnUse"><stop stop-color="#639D55"/><stop offset="1" stop-color="#639D55" stop-opacity="0"/></radialGradient><radialGradient id="paint10_radial_18_742" cx="0" cy="0" r="1" gradientTransform="matrix(.64063 1.82812 -1.2192 .42725 27.293 18.14)" gradientUnits="userSpaceOnUse"><stop stop-color="#97DF77"/><stop offset="1" stop-color="#97DF77" stop-opacity="0"/></radialGradient><radialGradient id="paint11_radial_18_742" cx="0" cy="0" r="1" gradientTransform="matrix(-1.03125 0 0 -.76001 30.31 20.51)" gradientUnits="userSpaceOnUse"><stop stop-color="#81CF68"/><stop offset="1" stop-color="#81CF68" stop-opacity="0"/></radialGradient><radialGradient id="paint12_radial_18_742" cx="0" cy="0" r="1" gradientTransform="matrix(-.3762 -.14063 .38849 -1.03928 27.6 19.8)" gradientUnits="userSpaceOnUse"><stop stop-color="#357727"/><stop offset="1" stop-color="#357727" stop-opacity="0"/></radialGradient><radialGradient id="paint14_radial_18_742" cx="0" cy="0" r="1" gradientTransform="matrix(.625 1.86624 -.35116 .1176 25.622 20.29)" gradientUnits="userSpaceOnUse"><stop stop-color="#82C86D"/><stop offset="1" stop-color="#82C86D" stop-opacity="0"/></radialGradient><radialGradient id="paint15_radial_18_742" cx="0" cy="0" r="1" gradientTransform="matrix(-1.02795 0 0 -.76 28.868 22.49)" gradientUnits="userSpaceOnUse"><stop stop-color="#89CF7F"/><stop offset="1" stop-color="#89CF7F" stop-opacity="0"/></radialGradient><radialGradient id="paint16_radial_18_742" cx="0" cy="0" r="1" gradientTransform="rotate(-159.444 15.06 8.518) scale(.4005 1.10908)" gradientUnits="userSpaceOnUse"><stop stop-color="#357727"/><stop offset="1" stop-color="#357727" stop-opacity="0"/></radialGradient><radialGradient id="paint18_radial_18_742" cx="0" cy="0" r="1" gradientTransform="matrix(-.89844 .14845 -.15476 -.93665 29.529 18.46)" gradientUnits="userSpaceOnUse"><stop stop-color="#A3E769"/><stop offset="1" stop-color="#A3E769" stop-opacity="0"/></radialGradient><radialGradient id="paint28_radial_18_742" cx="0" cy="0" r="1" gradientTransform="matrix(0 14.3125 -1.96712 0 12.31 15.063)" gradientUnits="userSpaceOnUse"><stop stop-color="#83B674"/><stop offset="1" stop-color="#83B674" stop-opacity="0"/></radialGradient><radialGradient id="paint30_radial_18_742" cx="0" cy="0" r="1" gradientTransform="matrix(.0625 .91875 -4.97235 .33826 9.466 18.05)" gradientUnits="userSpaceOnUse"><stop stop-color="#4C7D3C"/><stop offset="1" stop-color="#4C7D3C" stop-opacity="0"/></radialGradient><radialGradient id="paint32_radial_18_742" cx="0" cy="0" r="1" gradientTransform="matrix(-1.25024 1.0625 -1.4747 -1.73528 13.81 7.844)" gradientUnits="userSpaceOnUse"><stop stop-color="#BCAC8F"/><stop offset="1" stop-color="#BCAC8F" stop-opacity="0"/></radialGradient><radialGradient id="paint33_radial_18_742" cx="0" cy="0" r="1" gradientTransform="rotate(90 .733 9.514) scale(4.66875)" gradientUnits="userSpaceOnUse"><stop stop-color="#5A5593"/><stop offset="1" stop-color="#27203F"/></radialGradient><radialGradient id="paint34_radial_18_742" cx="0" cy="0" r="1" gradientTransform="matrix(0 5.53125 -2.03125 0 10.153 7.156)" gradientUnits="userSpaceOnUse"><stop stop-color="#6E6DA6"/><stop offset="1" stop-color="#6E6DA6" stop-opacity="0"/></radialGradient><radialGradient id="paint35_radial_18_742" cx="0" cy="0" r="1" gradientTransform="matrix(0 -9.875 2.78125 0 23.279 24)" gradientUnits="userSpaceOnUse"><stop stop-color="#81BA7A"/><stop offset="1" stop-color="#81BA7A" stop-opacity="0"/></radialGradient><radialGradient id="paint36_radial_18_742" cx="0" cy="0" r="1" gradientTransform="matrix(-4.53124 .65627 -.15868 -1.09563 22.122 19.906)" gradientUnits="userSpaceOnUse"><stop stop-color="#4A8841"/><stop offset="1" stop-color="#4A8841" stop-opacity="0"/></radialGradient><radialGradient id="paint39_radial_18_742" cx="0" cy="0" r="1" gradientTransform="matrix(-1.25024 1.0625 -1.4747 -1.73528 24.49 10.844)" gradientUnits="userSpaceOnUse"><stop stop-color="#BCAC8F"/><stop offset="1" stop-color="#BCAC8F" stop-opacity="0"/></radialGradient><radialGradient id="paint40_radial_18_742" cx="0" cy="0" r="1" gradientTransform="rotate(90 4.573 16.354) scale(4.66875)" gradientUnits="userSpaceOnUse"><stop stop-color="#5A5593"/><stop offset="1" stop-color="#27203F"/></radialGradient><radialGradient id="paint41_radial_18_742" cx="0" cy="0" r="1" gradientTransform="matrix(0 5.53125 -2.03125 0 20.834 10.156)" gradientUnits="userSpaceOnUse"><stop stop-color="#6E6DA6"/><stop offset="1" stop-color="#6E6DA6" stop-opacity="0"/></radialGradient><radialGradient id="paint43_radial_18_742" cx="0" cy="0" r="1" gradientTransform="matrix(0 12.8125 -2 0 17.622 8.438)" gradientUnits="userSpaceOnUse"><stop stop-color="#93C15F"/><stop offset="1" stop-color="#93C15F" stop-opacity="0"/></radialGradient><radialGradient id="paint44_radial_18_742" cx="0" cy="0" r="1" gradientTransform="rotate(96.529 1.371 18.34) scale(10.4427 3.01428)" gradientUnits="userSpaceOnUse"><stop offset=".215" stop-color="#245619"/><stop offset="1" stop-color="#245619" stop-opacity="0"/></radialGradient><radialGradient id="paint45_radial_18_742" cx="0" cy="0" r="1" gradientTransform="matrix(3.17023 0 0 20.6875 13.31 24)" gradientUnits="userSpaceOnUse"><stop offset=".138" stop-color="#286C1D"/><stop offset="1" stop-color="#286C1D" stop-opacity="0"/></radialGradient><radialGradient id="paint47_radial_18_742" cx="0" cy="0" r="1" gradientTransform="matrix(-4.0241 .84273 -.24325 -1.16155 15.559 15.19)" gradientUnits="userSpaceOnUse"><stop stop-color="#236410"/><stop offset="1" stop-color="#236410" stop-opacity="0"/></radialGradient><radialGradient id="paint49_radial_18_742" cx="0" cy="0" r="1" gradientTransform="matrix(-1.25024 1.0625 -1.4747 -1.73528 19.15 2.594)" gradientUnits="userSpaceOnUse"><stop stop-color="#BCAC8F"/><stop offset="1" stop-color="#BCAC8F" stop-opacity="0"/></radialGradient><radialGradient id="paint50_radial_18_742" cx="0" cy="0" r="1" gradientTransform="rotate(90 6.028 9.56) scale(4.66875)" gradientUnits="userSpaceOnUse"><stop stop-color="#5A5593"/><stop offset="1" stop-color="#27203F"/></radialGradient><radialGradient id="paint51_radial_18_742" cx="0" cy="0" r="1" gradientTransform="matrix(0 5.53125 -2.03125 0 15.493 1.906)" gradientUnits="userSpaceOnUse"><stop stop-color="#6E6DA6"/><stop offset="1" stop-color="#6E6DA6" stop-opacity="0"/></radialGradient><radialGradient id="paint52_radial_18_742" cx="0" cy="0" r="1" gradientTransform="matrix(-2.79295 0 0 -.40515 18.385 21.64)" gradientUnits="userSpaceOnUse"><stop stop-color="#729742"/><stop offset="1" stop-color="#729742" stop-opacity="0"/></radialGradient><radialGradient id="paint53_radial_18_742" cx="0" cy="0" r="1" gradientTransform="matrix(-2.79295 0 0 -.40515 18.385 14.06)" gradientUnits="userSpaceOnUse"><stop stop-color="#A7D066"/><stop offset="1" stop-color="#A7D066" stop-opacity="0"/></radialGradient><radialGradient id="paint54_radial_18_742" cx="0" cy="0" r="1" gradientTransform="matrix(-3.13467 0 0 -.40516 13.284 17.28)" gradientUnits="userSpaceOnUse"><stop stop-color="#B1E165"/><stop offset="1" stop-color="#B1E165" stop-opacity="0"/></radialGradient><radialGradient id="paint55_radial_18_742" cx="0" cy="0" r="1" gradientTransform="matrix(-3.13467 0 0 -.40516 23.964 19.21)" gradientUnits="userSpaceOnUse"><stop stop-color="#B1E165"/><stop offset="1" stop-color="#B1E165" stop-opacity="0"/></radialGradient><linearGradient id="paint0_linear_18_742" x1="4.06" x2="4.154" y1="19.344" y2="23.76" gradientUnits="userSpaceOnUse"><stop offset=".011" stop-color="#5B8C2C"/><stop offset="1" stop-color="#3A7338"/></linearGradient><linearGradient id="paint2_linear_18_742" x1="6.19" x2="4.763" y1="23.76" y2="24.063" gradientUnits="userSpaceOnUse"><stop stop-color="#32513F"/><stop offset="1" stop-color="#2C6642"/></linearGradient><linearGradient id="paint3_linear_18_742" x1="7.2" x2="6.091" y1="18.328" y2="20.156" gradientUnits="userSpaceOnUse"><stop stop-color="#578F3A"/><stop offset="1" stop-color="#519535"/></linearGradient><linearGradient id="paint5_linear_18_742" x1="7.835" x2="7.116" y1="20.702" y2="21.887" gradientUnits="userSpaceOnUse"><stop stop-color="#578F3A"/><stop offset="1" stop-color="#519535"/></linearGradient><linearGradient id="paint7_linear_18_742" x1="2.778" x2="6.966" y1="22" y2="23.375" gradientUnits="userSpaceOnUse"><stop stop-color="#5E9541"/><stop offset="1" stop-color="#376529"/></linearGradient><linearGradient id="paint8_linear_18_742" x1="4.653" x2="4.857" y1="23.406" y2="22.88" gradientUnits="userSpaceOnUse"><stop stop-color="#546F4C"/><stop offset="1" stop-color="#546F4C" stop-opacity="0"/></linearGradient><linearGradient id="paint9_linear_18_742" x1="28.029" x2="28.466" y1="18" y2="21.156" gradientUnits="userSpaceOnUse"><stop offset=".011" stop-color="#79C851"/><stop offset="1" stop-color="#71BA5A"/></linearGradient><linearGradient id="paint13_linear_18_742" x1="26.594" x2="27.033" y1="19.98" y2="23.136" gradientUnits="userSpaceOnUse"><stop offset=".011" stop-color="#69B84C"/><stop offset="1" stop-color="#5AAC4A"/></linearGradient><linearGradient id="paint17_linear_18_742" x1="28.122" x2="25.122" y1="21" y2="20.75" gradientUnits="userSpaceOnUse"><stop offset=".034" stop-color="#81BA4E"/><stop offset="1" stop-color="#4F933E"/></linearGradient><linearGradient id="paint19_linear_18_742" x1="25.669" x2="26.22" y1="21.688" y2="22.016" gradientUnits="userSpaceOnUse"><stop stop-color="#367A2A"/><stop offset="1" stop-color="#367A2A" stop-opacity="0"/></linearGradient><linearGradient id="paint20_linear_18_742" x1="8.778" x2="7.435" y1="25.344" y2="22.406" gradientUnits="userSpaceOnUse"><stop stop-color="#2D5E21"/><stop offset="1" stop-color="#2D5E21" stop-opacity="0"/></linearGradient><linearGradient id="paint21_linear_18_742" x1="9.028" x2="7.997" y1="23.875" y2="24.313" gradientUnits="userSpaceOnUse"><stop stop-color="#2D5E21"/><stop offset="1" stop-color="#2D5E21" stop-opacity="0"/></linearGradient><linearGradient id="paint22_linear_18_742" x1="9.622" x2="21.06" y1="30" y2="30" gradientUnits="userSpaceOnUse"><stop stop-color="#875153"/><stop offset="1" stop-color="#C6867C"/></linearGradient><linearGradient id="paint23_linear_18_742" x1="26.49" x2="25.122" y1="30" y2="30" gradientUnits="userSpaceOnUse"><stop stop-color="#B9887B"/><stop offset="1" stop-color="#B9887B" stop-opacity="0"/></linearGradient><linearGradient id="paint24_linear_18_742" x1="16.475" x2="16.475" y1="30" y2="29.469" gradientUnits="userSpaceOnUse"><stop stop-color="#964774"/><stop offset="1" stop-color="#964774" stop-opacity="0"/></linearGradient><linearGradient id="paint25_linear_18_742" x1="7.832" x2="24.622" y1="28.61" y2="28.61" gradientUnits="userSpaceOnUse"><stop stop-color="#B57344"/><stop offset=".406" stop-color="#E5966C"/><stop offset="1" stop-color="#FFDAA8"/></linearGradient><linearGradient id="paint26_linear_18_742" x1="26.49" x2="25.819" y1="27.13" y2="27.13" gradientUnits="userSpaceOnUse"><stop stop-color="#FBCEA3"/><stop offset="1" stop-color="#FBCEA3" stop-opacity="0"/></linearGradient><linearGradient id="paint27_linear_18_742" x1="16.475" x2="16.475" y1="23.656" y2="24.344" gradientUnits="userSpaceOnUse"><stop stop-color="#A57D3A"/><stop offset="1" stop-color="#A57D3A" stop-opacity="0"/></linearGradient><linearGradient id="paint29_linear_18_742" x1="8.47" x2="10.372" y1="18.875" y2="18.875" gradientUnits="userSpaceOnUse"><stop stop-color="#5C834A"/><stop offset="1" stop-color="#5C834A" stop-opacity="0"/></linearGradient><linearGradient id="paint31_linear_18_742" x1="9.872" x2="13.435" y1="7.688" y2="14.063" gradientUnits="userSpaceOnUse"><stop offset=".006" stop-color="#FCE2BE"/><stop offset="1" stop-color="#FFDEA3"/><stop offset="1" stop-color="#F8E0BE"/></linearGradient><linearGradient id="paint37_linear_18_742" x1="18.247" x2="20.779" y1="22.563" y2="22.563" gradientUnits="userSpaceOnUse"><stop stop-color="#2A5823"/><stop offset="1" stop-color="#2A5823" stop-opacity="0"/></linearGradient><linearGradient id="paint38_linear_18_742" x1="20.552" x2="24.115" y1="10.688" y2="17.063" gradientUnits="userSpaceOnUse"><stop offset=".006" stop-color="#FCE2BE"/><stop offset="1" stop-color="#FFDEA3"/><stop offset="1" stop-color="#F8E0BE"/></linearGradient><linearGradient id="paint42_linear_18_742" x1="15.497" x2="15.497" y1="7.938" y2="24.813" gradientUnits="userSpaceOnUse"><stop offset=".011" stop-color="#72A13B"/><stop offset="1" stop-color="#3F7F32"/></linearGradient><linearGradient id="paint46_linear_18_742" x1="16.48" x2="16.48" y1="24.839" y2="15.695" gradientUnits="userSpaceOnUse"><stop stop-color="#265025"/><stop offset="1" stop-color="#265025" stop-opacity="0"/></linearGradient><linearGradient id="paint48_linear_18_742" x1="15.212" x2="18.775" y1="2.438" y2="8.813" gradientUnits="userSpaceOnUse"><stop offset=".006" stop-color="#FCE2BE"/><stop offset="1" stop-color="#FFDEA3"/><stop offset="1" stop-color="#F8E0BE"/></linearGradient><linearGradient id="paint56_linear_18_742" x1="6.333" x2="6.333" y1="18.453" y2="23.391" gradientUnits="userSpaceOnUse"><stop stop-color="#95CD64"/><stop offset="1" stop-color="#95CD64" stop-opacity="0"/></linearGradient><linearGradient id="paint57_linear_18_742" x1="3.075" x2="6.169" y1="22.031" y2="23.094" gradientUnits="userSpaceOnUse"><stop stop-color="#6D9B59"/><stop offset="1" stop-color="#6D9B59" stop-opacity="0"/></linearGradient><filter id="filter0_i_18_742" width="2.7" height="4" x="2.325" y="20.185" color-interpolation-filters="sRGB" filterUnits="userSpaceOnUse"><feFlood flood-opacity="0" result="BackgroundImageFix"/><feBlend in="SourceGraphic" in2="BackgroundImageFix" result="shape"/><feColorMatrix in="SourceAlpha" result="hardAlpha" values="0 0 0 0 0 0 0 0 0 0 0 0 0 0 0 0 0 0 127 0"/><feOffset dx="-.25" dy="-.1"/><feGaussianBlur stdDeviation=".15"/><feComposite in2="hardAlpha" k2="-1" k3="1" operator="arithmetic"/><feColorMatrix values="0 0 0 0 0.207843 0 0 0 0 0.341176 0 0 0 0 0.243137 0 0 0 1 0"/><feBlend in2="shape" result="effect1_innerShadow_18_742"/></filter><filter id="filter1_i_18_742" width="2.23" height="2.76" x="5.17" y="18.01" color-interpolation-filters="sRGB" filterUnits="userSpaceOnUse"><feFlood flood-opacity="0" result="BackgroundImageFix"/><feBlend in="SourceGraphic" in2="BackgroundImageFix" result="shape"/><feColorMatrix in="SourceAlpha" result="hardAlpha" values="0 0 0 0 0 0 0 0 0 0 0 0 0 0 0 0 0 0 127 0"/><feOffset dx="-.15"/><feGaussianBlur stdDeviation=".15"/><feComposite in2="hardAlpha" k2="-1" k3="1" operator="arithmetic"/><feColorMatrix values="0 0 0 0 0.266667 0 0 0 0 0.47451 0 0 0 0 0.160784 0 0 0 1 0"/><feBlend in2="shape" result="effect1_innerShadow_18_742"/></filter><filter id="filter2_i_18_742" width="1.85" height="2.14" x="6.29" y="20.32" color-interpolation-filters="sRGB" filterUnits="userSpaceOnUse"><feFlood flood-opacity="0" result="BackgroundImageFix"/><feBlend in="SourceGraphic" in2="BackgroundImageFix" result="shape"/><feColorMatrix in="SourceAlpha" result="hardAlpha" values="0 0 0 0 0 0 0 0 0 0 0 0 0 0 0 0 0 0 127 0"/><feOffset dx="-.15"/><feGaussianBlur stdDeviation=".15"/><feComposite in2="hardAlpha" k2="-1" k3="1" operator="arithmetic"/><feColorMatrix values="0 0 0 0 0.266667 0 0 0 0 0.47451 0 0 0 0 0.160784 0 0 0 1 0"/><feBlend in2="shape" result="effect1_innerShadow_18_742"/></filter><filter id="filter3_i_18_742" width="4.27" height="3.35" x="26.23" y="17.66" color-interpolation-filters="sRGB" filterUnits="userSpaceOnUse"><feFlood flood-opacity="0" result="BackgroundImageFix"/><feBlend in="SourceGraphic" in2="BackgroundImageFix" result="shape"/><feColorMatrix in="SourceAlpha" result="hardAlpha" values="0 0 0 0 0 0 0 0 0 0 0 0 0 0 0 0 0 0 127 0"/><feOffset dx=".15" dy="-.15"/><feGaussianBlur stdDeviation=".2"/><feComposite in2="hardAlpha" k2="-1" k3="1" operator="arithmetic"/><feColorMatrix values="0 0 0 0 0.239216 0 0 0 0 0.498039 0 0 0 0 0.160784 0 0 0 1 0"/><feBlend in2="shape" result="effect1_innerShadow_18_742"/></filter><filter id="filter4_i_18_742" width="4.36" height="3.45" x="24.8" y="19.54" color-interpolation-filters="sRGB" filterUnits="userSpaceOnUse"><feFlood flood-opacity="0" result="BackgroundImageFix"/><feBlend in="SourceGraphic" in2="BackgroundImageFix" result="shape"/><feColorMatrix in="SourceAlpha" result="hardAlpha" values="0 0 0 0 0 0 0 0 0 0 0 0 0 0 0 0 0 0 127 0"/><feOffset dx=".25" dy="-.25"/><feGaussianBlur stdDeviation=".25"/><feComposite in2="hardAlpha" k2="-1" k3="1" operator="arithmetic"/><feColorMatrix values="0 0 0 0 0.372549 0 0 0 0 0.482353 0 0 0 0 0.360784 0 0 0 1 0"/><feBlend in2="shape" result="effect1_innerShadow_18_742"/></filter><filter id="filter5_i_18_742" width="4.66" height="7.11" x="4.29" y="17.91" color-interpolation-filters="sRGB" filterUnits="userSpaceOnUse"><feFlood flood-opacity="0" result="BackgroundImageFix"/><feBlend in="SourceGraphic" in2="BackgroundImageFix" result="shape"/><feColorMatrix in="SourceAlpha" result="hardAlpha" values="0 0 0 0 0 0 0 0 0 0 0 0 0 0 0 0 0 0 127 0"/><feOffset dx=".25"/><feGaussianBlur stdDeviation=".2"/><feComposite in2="hardAlpha" k2="-1" k3="1" operator="arithmetic"/><feColorMatrix values="0 0 0 0 0.388235 0 0 0 0 0.509804 0 0 0 0 0.254902 0 0 0 1 0"/><feBlend in2="shape" result="effect1_innerShadow_18_742"/></filter><filter id="filter6_i_18_742" width="5.34" height="7.23" x="8.47" y="7.25" color-interpolation-filters="sRGB" filterUnits="userSpaceOnUse"><feFlood flood-opacity="0" result="BackgroundImageFix"/><feBlend in="SourceGraphic" in2="BackgroundImageFix" result="shape"/><feColorMatrix in="SourceAlpha" result="hardAlpha" values="0 0 0 0 0 0 0 0 0 0 0 0 0 0 0 0 0 0 127 0"/><feOffset/><feGaussianBlur stdDeviation=".25"/><feComposite in2="hardAlpha" k2="-1" k3="1" operator="arithmetic"/><feColorMatrix values="0 0 0 0 0.72549 0 0 0 0 0.662745 0 0 0 0 0.54902 0 0 0 1 0"/><feBlend in2="shape" result="effect1_innerShadow_18_742"/></filter><filter id="filter7_i_18_742" width="5.34" height="7.23" x="19.15" y="10.25" color-interpolation-filters="sRGB" filterUnits="userSpaceOnUse"><feFlood flood-opacity="0" result="BackgroundImageFix"/><feBlend in="SourceGraphic" in2="BackgroundImageFix" result="shape"/><feColorMatrix in="SourceAlpha" result="hardAlpha" values="0 0 0 0 0 0 0 0 0 0 0 0 0 0 0 0 0 0 127 0"/><feOffset/><feGaussianBlur stdDeviation=".25"/><feComposite in2="hardAlpha" k2="-1" k3="1" operator="arithmetic"/><feColorMatrix values="0 0 0 0 0.72549 0 0 0 0 0.662745 0 0 0 0 0.54902 0 0 0 1 0"/><feBlend in2="shape" result="effect1_innerShadow_18_742"/></filter><filter id="filter8_i_18_742" width="5.34" height="7.23" x="13.81" y="2" color-interpolation-filters="sRGB" filterUnits="userSpaceOnUse"><feFlood flood-opacity="0" result="BackgroundImageFix"/><feBlend in="SourceGraphic" in2="BackgroundImageFix" result="shape"/><feColorMatrix in="SourceAlpha" result="hardAlpha" values="0 0 0 0 0 0 0 0 0 0 0 0 0 0 0 0 0 0 127 0"/><feOffset/><feGaussianBlur stdDeviation=".25"/><feComposite in2="hardAlpha" k2="-1" k3="1" operator="arithmetic"/><feColorMatrix values="0 0 0 0 0.72549 0 0 0 0 0.662745 0 0 0 0 0.54902 0 0 0 1 0"/><feBlend in2="shape" result="effect1_innerShadow_18_742"/></filter><filter id="filter9_i_18_742" width="5.52" height="1.43" x="13.79" y="21.05" color-interpolation-filters="sRGB" filterUnits="userSpaceOnUse"><feFlood flood-opacity="0" result="BackgroundImageFix"/><feBlend in="SourceGraphic" in2="BackgroundImageFix" result="shape"/><feColorMatrix in="SourceAlpha" result="hardAlpha" values="0 0 0 0 0 0 0 0 0 0 0 0 0 0 0 0 0 0 127 0"/><feOffset dx=".15" dy="-.15"/><feGaussianBlur stdDeviation=".25"/><feComposite in2="hardAlpha" k2="-1" k3="1" operator="arithmetic"/><feColorMatrix values="0 0 0 0 0.211765 0 0 0 0 0.431373 0 0 0 0 0.0117647 0 0 0 1 0"/><feBlend in2="shape" result="effect1_innerShadow_18_742"/></filter><filter id="filter10_i_18_742" width="5.52" height="1.43" x="13.79" y="13.47" color-interpolation-filters="sRGB" filterUnits="userSpaceOnUse"><feFlood flood-opacity="0" result="BackgroundImageFix"/><feBlend in="SourceGraphic" in2="BackgroundImageFix" result="shape"/><feColorMatrix in="SourceAlpha" result="hardAlpha" values="0 0 0 0 0 0 0 0 0 0 0 0 0 0 0 0 0 0 127 0"/><feOffset dx=".15" dy="-.15"/><feGaussianBlur stdDeviation=".25"/><feComposite in2="hardAlpha" k2="-1" k3="1" operator="arithmetic"/><feColorMatrix values="0 0 0 0 0.286275 0 0 0 0 0.54902 0 0 0 0 0.0117647 0 0 0 1 0"/><feBlend in2="shape" result="effect1_innerShadow_18_742"/></filter><filter id="filter11_i_18_742" width="6.177" height="1.43" x="8.126" y="16.69" color-interpolation-filters="sRGB" filterUnits="userSpaceOnUse"><feFlood flood-opacity="0" result="BackgroundImageFix"/><feBlend in="SourceGraphic" in2="BackgroundImageFix" result="shape"/><feColorMatrix in="SourceAlpha" result="hardAlpha" values="0 0 0 0 0 0 0 0 0 0 0 0 0 0 0 0 0 0 127 0"/><feOffset dx=".15" dy="-.15"/><feGaussianBlur stdDeviation=".25"/><feComposite in2="hardAlpha" k2="-1" k3="1" operator="arithmetic"/><feColorMatrix values="0 0 0 0 0.439216 0 0 0 0 0.6 0 0 0 0 0.254902 0 0 0 1 0"/><feBlend in2="shape" result="effect1_innerShadow_18_742"/></filter><filter id="filter12_i_18_742" width="6.177" height="1.43" x="18.806" y="18.62" color-interpolation-filters="sRGB" filterUnits="userSpaceOnUse"><feFlood flood-opacity="0" result="BackgroundImageFix"/><feBlend in="SourceGraphic" in2="BackgroundImageFix" result="shape"/><feColorMatrix in="SourceAlpha" result="hardAlpha" values="0 0 0 0 0 0 0 0 0 0 0 0 0 0 0 0 0 0 127 0"/><feOffset dx=".15" dy="-.15"/><feGaussianBlur stdDeviation=".25"/><feComposite in2="hardAlpha" k2="-1" k3="1" operator="arithmetic"/><feColorMatrix values="0 0 0 0 0.439216 0 0 0 0 0.6 0 0 0 0 0.254902 0 0 0 1 0"/><feBlend in2="shape" result="effect1_innerShadow_18_742"/></filter><filter id="filter13_f_18_742" width="3.766" height="6.109" x="4.482" y="17.969" color-interpolation-filters="sRGB" filterUnits="userSpaceOnUse"><feFlood flood-opacity="0" result="BackgroundImageFix"/><feBlend in="SourceGraphic" in2="BackgroundImageFix" result="shape"/><feGaussianBlur result="effect1_foregroundBlur_18_742" stdDeviation=".125"/></filter><filter id="filter14_f_18_742" width="4.219" height="2.047" x="2.7" y="21.547" color-interpolation-filters="sRGB" filterUnits="userSpaceOnUse"><feFlood flood-opacity="0" result="BackgroundImageFix"/><feBlend in="SourceGraphic" in2="BackgroundImageFix" result="shape"/><feGaussianBlur result="effect1_foregroundBlur_18_742" stdDeviation=".125"/></filter></defs></svg>