<svg xmlns="http://www.w3.org/2000/svg" width="32" height="32" fill="none" viewBox="0 0 32 32"><path fill="url(#paint0_radial_13036_4642)" d="m9.157 24.755-3.906.184c.578-5.253 5.03-9.34 10.437-9.34h.625c5.414 0 9.872 4.098 10.439 9.362l-4.377-.206v5.188H9.157v-5.188Z"/><path fill="url(#paint1_radial_13036_4642)" d="m9.157 24.755-3.906.184c.578-5.253 5.03-9.34 10.437-9.34h.625c5.414 0 9.872 4.098 10.439 9.362l-4.377-.206v5.188H9.157v-5.188Z"/><path fill="url(#paint2_linear_13036_4642)" d="m9.157 24.755-3.906.184c.578-5.253 5.03-9.34 10.437-9.34h.625c5.414 0 9.872 4.098 10.439 9.362l-4.377-.206v5.188H9.157v-5.188Z"/><rect width="4.223" height="6.028" x="13.876" y="12.693" fill="url(#paint3_radial_13036_4642)" rx="2.111"/><path fill="url(#paint4_radial_13036_4642)" d="M22.925 17.942a10.484 10.484 0 0 1 3.827 7.019l-3.827-.18v-6.84Z"/><path fill="url(#paint5_linear_13036_4642)" d="M22.925 17.942a10.484 10.484 0 0 1 3.827 7.019l-3.827-.18v-6.84Z"/><path fill="url(#paint6_radial_13036_4642)" d="m5.251 24.939 3.847-.16.059.182h.031v-7.109a10.486 10.486 0 0 0-3.937 7.087Z"/><path fill="url(#paint7_radial_13036_4642)" d="m5.251 24.939 3.847-.16.059.182h.031v-7.109a10.486 10.486 0 0 0-3.937 7.087Z"/><g filter="url(#filter0_i_13036_4642)"><path fill="url(#paint8_radial_13036_4642)" d="M26.375 28.537c.6-1.05.453-2.813.375-3.598l-3.938-.168c-.413.212-1.526.088-2.031 0l-8.898-1.406c-.617-.118-2.096-.232-2.773.132-.766.413-1 1.193-.938 1.579 4.271 1.53 12.632 4.562 13.757 4.812 1.82.313 3.696-.039 4.446-1.352Z"/></g><path fill="url(#paint9_radial_13036_4642)" d="M26.375 28.537c.6-1.05.453-2.813.375-3.598l-3.938-.168c-.413.212-1.526.088-2.031 0l-8.898-1.406c-.617-.118-2.096-.232-2.773.132-.766.413-1 1.193-.938 1.579 4.271 1.53 12.632 4.562 13.757 4.812 1.82.313 3.696-.039 4.446-1.352Z"/><path fill="url(#paint10_radial_13036_4642)" d="M26.375 28.537c.6-1.05.453-2.813.375-3.598l-3.938-.168c-.413.212-1.526.088-2.031 0l-8.898-1.406c-.617-.118-2.096-.232-2.773.132-.766.413-1 1.193-.938 1.579 4.271 1.53 12.632 4.562 13.757 4.812 1.82.313 3.696-.039 4.446-1.352Z"/><path fill="url(#paint11_radial_13036_4642)" d="M26.375 28.537c.6-1.05.453-2.813.375-3.598l-3.938-.168c-.413.212-1.526.088-2.031 0l-8.898-1.406c-.617-.118-2.096-.232-2.773.132-.766.413-1 1.193-.938 1.579 4.271 1.53 12.632 4.562 13.757 4.812 1.82.313 3.696-.039 4.446-1.352Z"/><g filter="url(#filter1_i_13036_4642)"><path fill="url(#paint12_radial_13036_4642)" d="M5.625 28.537c-.6-1.05-.453-2.813-.375-3.598l3.938-.168c.412.212 1.526.088 2.031 0l9.672-1.563c.617-.117 1.448-.177 2.125.188.728.392.7.965.642 1.352a.097.097 0 0 1-.063.078c-4.286 1.539-12.404 4.813-13.524 5.062-1.82.313-3.696-.039-4.446-1.352Z"/><path fill="url(#paint13_linear_13036_4642)" d="M5.625 28.537c-.6-1.05-.453-2.813-.375-3.598l3.938-.168c.412.212 1.526.088 2.031 0l9.672-1.563c.617-.117 1.448-.177 2.125.188.728.392.7.965.642 1.352a.097.097 0 0 1-.063.078c-4.286 1.539-12.404 4.813-13.524 5.062-1.82.313-3.696-.039-4.446-1.352Z"/></g><g filter="url(#filter2_i_13036_4642)"><circle cx="11.266" cy="10.583" r="1.665" fill="url(#paint14_radial_13036_4642)"/></g><circle cx="11.266" cy="10.583" r="1.665" fill="url(#paint15_radial_13036_4642)"/><g filter="url(#filter3_f_13036_4642)"><circle cx="11.266" cy="10.583" r=".992" fill="url(#paint16_linear_13036_4642)"/></g><g filter="url(#filter4_i_13036_4642)"><circle cx="20.753" cy="10.583" r="1.665" fill="url(#paint17_linear_13036_4642)"/><circle cx="20.753" cy="10.583" r="1.665" fill="url(#paint18_radial_13036_4642)"/></g><g filter="url(#filter5_f_13036_4642)"><circle cx="20.753" cy="10.583" r=".992" fill="#A57C70"/><circle cx="20.753" cy="10.583" r=".992" fill="url(#paint19_radial_13036_4642)"/><circle cx="20.753" cy="10.583" r=".992" fill="url(#paint20_radial_13036_4642)"/></g><g filter="url(#filter6_i_13036_4642)"><path fill="url(#paint21_linear_13036_4642)" d="M10.915 9.972a.716.716 0 0 0 .049.001s-.054-.85-.107-1.436c0-.266.107-.585.32-.744l.161-.16c.267-.213.374-.532.374-.85V5.93c0-.266.16-.479.428-.532.642-.16 1.98-.425 3.905-.425 1.926 0 3.263.266 3.905.425.214.053.428.266.428.532v.851c0 .32.16.638.375.851.5.351.469.544.427.958a46.104 46.104 0 0 0-.107 1.436h.018l-.265 3.947c-.16 1.764-1.547 2.994-3.201 2.994h-3.202c-1.707 0-3.041-1.23-3.201-2.994l-.307-4.002Z"/><path fill="url(#paint22_radial_13036_4642)" d="M10.915 9.972a.716.716 0 0 0 .049.001s-.054-.85-.107-1.436c0-.266.107-.585.32-.744l.161-.16c.267-.213.374-.532.374-.85V5.93c0-.266.16-.479.428-.532.642-.16 1.98-.425 3.905-.425 1.926 0 3.263.266 3.905.425.214.053.428.266.428.532v.851c0 .32.16.638.375.851.5.351.469.544.427.958a46.104 46.104 0 0 0-.107 1.436h.018l-.265 3.947c-.16 1.764-1.547 2.994-3.201 2.994h-3.202c-1.707 0-3.041-1.23-3.201-2.994l-.307-4.002Z"/><path fill="url(#paint23_radial_13036_4642)" d="M10.915 9.972a.716.716 0 0 0 .049.001s-.054-.85-.107-1.436c0-.266.107-.585.32-.744l.161-.16c.267-.213.374-.532.374-.85V5.93c0-.266.16-.479.428-.532.642-.16 1.98-.425 3.905-.425 1.926 0 3.263.266 3.905.425.214.053.428.266.428.532v.851c0 .32.16.638.375.851.5.351.469.544.427.958a46.104 46.104 0 0 0-.107 1.436h.018l-.265 3.947c-.16 1.764-1.547 2.994-3.201 2.994h-3.202c-1.707 0-3.041-1.23-3.201-2.994l-.307-4.002Z"/></g><path fill="url(#paint24_linear_13036_4642)" d="M10.857 8.537c0-.266.107-.585.32-.744l.161-.16c.267-.213.374-.532.374-.85V5.93c0-.266.16-.479.428-.532.642-.16 1.98-.425 3.905-.425 1.926 0 3.263.266 3.905.425.214.053.428.266.428.532v.851c0 .32.16.638.375.851.5.351.469.544.427.958a46.104 46.104 0 0 0-.107 1.436h.018l-.265 3.947c-.16 1.764-1.547 2.994-3.201 2.994h-3.202c-1.707 0-3.041-1.23-3.201-2.994-.14-1.812-.2-3.628-.365-5.437Z"/><path fill="url(#paint25_linear_13036_4642)" d="M10.857 8.537c0-.266.107-.585.32-.744l.161-.16c.267-.213.374-.532.374-.85V5.93c0-.266.16-.479.428-.532.642-.16 1.98-.425 3.905-.425 1.926 0 3.263.266 3.905.425.214.053.428.266.428.532v.851c0 .32.16.638.375.851.5.351.469.544.427.958a46.104 46.104 0 0 0-.107 1.436h.018l-.265 3.947c-.16 1.764-1.547 2.994-3.201 2.994h-3.202c-1.707 0-3.041-1.23-3.201-2.994-.14-1.812-.2-3.628-.365-5.437Z"/><path fill="url(#paint26_radial_13036_4642)" d="M10.857 8.537c0-.266.107-.585.32-.744l.161-.16c.267-.213.374-.532.374-.85V5.93c0-.266.16-.479.428-.532.642-.16 1.98-.425 3.905-.425 1.926 0 3.263.266 3.905.425.214.053.428.266.428.532v.851c0 .32.16.638.375.851.5.351.469.544.427.958a46.104 46.104 0 0 0-.107 1.436h.018l-.265 3.947c-.16 1.764-1.547 2.994-3.201 2.994h-3.202c-1.707 0-3.041-1.23-3.201-2.994-.14-1.812-.2-3.628-.365-5.437Z"/><path fill="url(#paint27_linear_13036_4642)" d="M10.857 8.537c0-.266.107-.585.32-.744l.161-.16c.267-.213.374-.532.374-.85V5.93c0-.266.16-.479.428-.532.642-.16 1.98-.425 3.905-.425 1.926 0 3.263.266 3.905.425.214.053.428.266.428.532v.851c0 .32.16.638.375.851.5.351.469.544.427.958a46.104 46.104 0 0 0-.107 1.436h.018l-.265 3.947c-.16 1.764-1.547 2.994-3.201 2.994h-3.202c-1.707 0-3.041-1.23-3.201-2.994-.14-1.812-.2-3.628-.365-5.437Z"/><g filter="url(#filter7_f_13036_4642)"><path fill="url(#paint28_linear_13036_4642)" d="m19.953 4.974-3.069 1.023a1.044 1.044 0 0 0 .469 2.026l3.051-.409-.451-2.64Z"/></g><g filter="url(#filter8_i_13036_4642)"><path fill="#4F3332" d="m20.806 4.123.428.213c.749.372 1.177 1.223 1.016 2.127l-.588 3.032c-.053.313-.26.524-.57.531h-.018s.053-.904.106-1.435c.044-.432-.032-.564-.427-.958-.215-.213-.375-.532-.375-.85V5.93c0-.266-.214-.478-.428-.532-.642-.16-1.979-.425-3.905-.425-1.925 0-3.263.266-3.905.425a.519.519 0 0 0-.428.532v.851c0 .32-.107.638-.374.851l-.16.16c-.214.16-.321.478-.321.744.053.585.107 1.436.107 1.436a.632.632 0 0 1-.642-.532l-.589-3.03c-.107-.851.321-1.702 1.07-2.074l.428-.213c.268-.16.535-.372.802-.585l.963-1.01c.589-.533 1.444-.692 2.193-.32.535.16 1.124.16 1.659 0 .802-.266 1.711-.053 2.353.532l.803.798c.214.266.481.425.802.585Z"/><path fill="url(#paint29_radial_13036_4642)" d="m20.806 4.123.428.213c.749.372 1.177 1.223 1.016 2.127l-.588 3.032c-.053.313-.26.524-.57.531h-.018s.053-.904.106-1.435c.044-.432-.032-.564-.427-.958-.215-.213-.375-.532-.375-.85V5.93c0-.266-.214-.478-.428-.532-.642-.16-1.979-.425-3.905-.425-1.925 0-3.263.266-3.905.425a.519.519 0 0 0-.428.532v.851c0 .32-.107.638-.374.851l-.16.16c-.214.16-.321.478-.321.744.053.585.107 1.436.107 1.436a.632.632 0 0 1-.642-.532l-.589-3.03c-.107-.851.321-1.702 1.07-2.074l.428-.213c.268-.16.535-.372.802-.585l.963-1.01c.589-.533 1.444-.692 2.193-.32.535.16 1.124.16 1.659 0 .802-.266 1.711-.053 2.353.532l.803.798c.214.266.481.425.802.585Z"/><path fill="url(#paint30_radial_13036_4642)" d="m20.806 4.123.428.213c.749.372 1.177 1.223 1.016 2.127l-.588 3.032c-.053.313-.26.524-.57.531h-.018s.053-.904.106-1.435c.044-.432-.032-.564-.427-.958-.215-.213-.375-.532-.375-.85V5.93c0-.266-.214-.478-.428-.532-.642-.16-1.979-.425-3.905-.425-1.925 0-3.263.266-3.905.425a.519.519 0 0 0-.428.532v.851c0 .32-.107.638-.374.851l-.16.16c-.214.16-.321.478-.321.744.053.585.107 1.436.107 1.436a.632.632 0 0 1-.642-.532l-.589-3.03c-.107-.851.321-1.702 1.07-2.074l.428-.213c.268-.16.535-.372.802-.585l.963-1.01c.589-.533 1.444-.692 2.193-.32.535.16 1.124.16 1.659 0 .802-.266 1.711-.053 2.353.532l.803.798c.214.266.481.425.802.585Z"/><path fill="url(#paint31_radial_13036_4642)" d="m20.806 4.123.428.213c.749.372 1.177 1.223 1.016 2.127l-.588 3.032c-.053.313-.26.524-.57.531h-.018s.053-.904.106-1.435c.044-.432-.032-.564-.427-.958-.215-.213-.375-.532-.375-.85V5.93c0-.266-.214-.478-.428-.532-.642-.16-1.979-.425-3.905-.425-1.925 0-3.263.266-3.905.425a.519.519 0 0 0-.428.532v.851c0 .32-.107.638-.374.851l-.16.16c-.214.16-.321.478-.321.744.053.585.107 1.436.107 1.436a.632.632 0 0 1-.642-.532l-.589-3.03c-.107-.851.321-1.702 1.07-2.074l.428-.213c.268-.16.535-.372.802-.585l.963-1.01c.589-.533 1.444-.692 2.193-.32.535.16 1.124.16 1.659 0 .802-.266 1.711-.053 2.353.532l.803.798c.214.266.481.425.802.585Z"/><path fill="url(#paint32_radial_13036_4642)" d="m20.806 4.123.428.213c.749.372 1.177 1.223 1.016 2.127l-.588 3.032c-.053.313-.26.524-.57.531h-.018s.053-.904.106-1.435c.044-.432-.032-.564-.427-.958-.215-.213-.375-.532-.375-.85V5.93c0-.266-.214-.478-.428-.532-.642-.16-1.979-.425-3.905-.425-1.925 0-3.263.266-3.905.425a.519.519 0 0 0-.428.532v.851c0 .32-.107.638-.374.851l-.16.16c-.214.16-.321.478-.321.744.053.585.107 1.436.107 1.436a.632.632 0 0 1-.642-.532l-.589-3.03c-.107-.851.321-1.702 1.07-2.074l.428-.213c.268-.16.535-.372.802-.585l.963-1.01c.589-.533 1.444-.692 2.193-.32.535.16 1.124.16 1.659 0 .802-.266 1.711-.053 2.353.532l.803.798c.214.266.481.425.802.585Z"/></g><g filter="url(#filter9_f_13036_4642)"><path fill="#87565C" d="m15.726 10.46-.818 1.696c-.102.348.142.697.487.697h.735c.344 0 .588-.354.486-.697l-.497-1.695c-.106-.376-.282-.376-.393 0Z"/></g><g filter="url(#filter10_f_13036_4642)"><path fill="#B7877D" d="m15.62 10.298-.53 1.695a.538.538 0 0 0 .518.697h.784a.54.54 0 0 0 .52-.697l-.53-1.695c-.114-.375-.644-.375-.763 0Z"/><path fill="url(#paint33_linear_13036_4642)" d="m15.62 10.298-.53 1.695a.538.538 0 0 0 .518.697h.784a.54.54 0 0 0 .52-.697l-.53-1.695c-.114-.375-.644-.375-.763 0Z"/><path fill="url(#paint34_linear_13036_4642)" d="m15.62 10.298-.53 1.695a.538.538 0 0 0 .518.697h.784a.54.54 0 0 0 .52-.697l-.53-1.695c-.114-.375-.644-.375-.763 0Z"/><path fill="url(#paint35_linear_13036_4642)" d="m15.62 10.298-.53 1.695a.538.538 0 0 0 .518.697h.784a.54.54 0 0 0 .52-.697l-.53-1.695c-.114-.375-.644-.375-.763 0Z"/><path fill="url(#paint36_radial_13036_4642)" d="m15.62 10.298-.53 1.695a.538.538 0 0 0 .518.697h.784a.54.54 0 0 0 .52-.697l-.53-1.695c-.114-.375-.644-.375-.763 0Z"/></g><path fill="url(#paint37_linear_13036_4642)" d="m15.62 10.298-.53 1.695a.538.538 0 0 0 .518.697h.784a.54.54 0 0 0 .52-.697l-.53-1.695c-.114-.375-.644-.375-.763 0Z"/><path fill="#fff" d="M18.381 9.156c.652 0 1.202.449 1.351 1.056a.273.273 0 0 1-.267.34h-2.224a.23.23 0 0 1-.226-.272 1.394 1.394 0 0 1 1.366-1.124Z"/><path fill="url(#paint38_radial_13036_4642)" d="M18.175 9.427a.89.89 0 0 1 .858 1.124h-1.72a.893.893 0 0 1 .861-1.124Z"/><path fill="#000" d="M17.666 10.317c0-.283.226-.51.51-.51a.507.507 0 0 1 .452.744h-.902a.461.461 0 0 1-.06-.234Z"/><g filter="url(#filter11_f_13036_4642)"><path fill="#C7A7A3" d="M18.11 9.615c.063.085-.07.188-.22.3-.15.114-.262.193-.326.108-.063-.085.008-.245.158-.357.15-.113.324-.136.388-.05Z"/><path fill="url(#paint39_radial_13036_4642)" d="M18.11 9.615c.063.085-.07.188-.22.3-.15.114-.262.193-.326.108-.063-.085.008-.245.158-.357.15-.113.324-.136.388-.05Z"/></g><g filter="url(#filter12_f_13036_4642)"><path fill="url(#paint40_linear_13036_4642)" d="M18.968 10.2a.838.838 0 0 0-.23-.462l-.26.285.117.227.373-.05Z"/></g><path fill="#fff" d="M13.614 9.156c-.651 0-1.201.449-1.35 1.056a.273.273 0 0 0 .266.34h2.225a.23.23 0 0 0 .226-.272 1.397 1.397 0 0 0-1.367-1.124Z"/><path fill="url(#paint41_radial_13036_4642)" d="M13.82 9.427a.89.89 0 0 0-.857 1.124h1.719a.913.913 0 0 0 .032-.234.896.896 0 0 0-.894-.89Z"/><path fill="#000" d="M14.33 10.317a.508.508 0 0 0-.51-.51.508.508 0 0 0-.453.744h.902a.505.505 0 0 0 .06-.234Z"/><g filter="url(#filter13_f_13036_4642)"><path fill="url(#paint42_linear_13036_4642)" d="M14.633 10.212c0-.287-.233-.479-.297-.537l-.287.278.177.36.407-.1Z"/></g><g filter="url(#filter14_f_13036_4642)" transform="rotate(-27.914 13.552 9.807)"><ellipse cx="13.552" cy="9.807" fill="#C7A7A3" fill-opacity=".9" rx=".388" ry=".197"/><ellipse cx="13.552" cy="9.807" fill="url(#paint43_radial_13036_4642)" rx=".388" ry=".197"/></g><g filter="url(#filter15_f_13036_4642)"><path stroke="url(#paint44_linear_13036_4642)" stroke-linecap="round" stroke-width=".25" d="M11.48 5.785v.895c-.008.148-.07.48-.257.62"/></g><g stroke-linecap="round" stroke-linejoin="round" stroke-width=".2" clip-rule="evenodd" filter="url(#filter16_f_13036_4642)"><path stroke="url(#paint45_radial_13036_4642)" d="M16.846 14.027a1.537 1.537 0 0 0-1.673 0 .2.2 0 1 1-.226-.33c.616-.423 1.504-.423 2.124 0a.2.2 0 0 1-.226.33Z"/><path stroke="url(#paint46_radial_13036_4642)" d="M16.846 14.027a1.537 1.537 0 0 0-1.673 0 .2.2 0 1 1-.226-.33c.616-.423 1.504-.423 2.124 0a.2.2 0 0 1-.226.33Z"/></g><path fill="#890150" fill-rule="evenodd" d="M16.846 14.027a1.537 1.537 0 0 0-1.673 0 .2.2 0 1 1-.226-.33c.616-.423 1.504-.423 2.124 0a.2.2 0 0 1-.226.33Z" clip-rule="evenodd"/><g filter="url(#filter17_f_13036_4642)"><path fill="url(#paint47_radial_13036_4642)" d="M16.474 14.697a.512.512 0 0 0-1.024 0h1.024Z"/></g><rect width="3.092" height=".96" x="12.062" y="7.931" fill="#302321" rx=".48"/><rect width="3.092" height=".96" x="12.062" y="7.931" fill="url(#paint48_linear_13036_4642)" rx=".48"/><rect width="3.092" height=".96" x="16.83" y="7.931" fill="#302321" rx=".48"/><rect width="3.092" height=".96" x="16.83" y="7.931" fill="url(#paint49_linear_13036_4642)" rx=".48"/><g filter="url(#filter18_f_13036_4642)"><path stroke="#463C3C" stroke-linecap="round" stroke-width=".25" d="M17.31 8.33h2.234"/></g><g filter="url(#filter19_f_13036_4642)"><path stroke="#463C3C" stroke-linecap="round" stroke-width=".25" d="M12.599 8.33h2.234"/></g><defs><radialGradient id="paint0_radial_13036_4642" cx="0" cy="0" r="1" gradientTransform="matrix(0 8.31345 -13.7312 0 14.936 15.28)" gradientUnits="userSpaceOnUse"><stop offset=".005" stop-color="#185B85"/><stop offset=".572" stop-color="#3980C2"/></radialGradient><radialGradient id="paint1_radial_13036_4642" cx="0" cy="0" r="1" gradientTransform="matrix(0 -9.09375 4.78449 0 22.313 23.318)" gradientUnits="userSpaceOnUse"><stop stop-color="#5CA5EC"/><stop offset="1" stop-color="#5CA5EC" stop-opacity="0"/></radialGradient><radialGradient id="paint3_radial_13036_4642" cx="0" cy="0" r="1" gradientTransform="rotate(43.128 -13.232 27.188) scale(3.82094 6.99622)" gradientUnits="userSpaceOnUse"><stop offset=".288" stop-color="#845361"/><stop offset=".962" stop-color="#A97D84"/></radialGradient><radialGradient id="paint4_radial_13036_4642" cx="0" cy="0" r="1" gradientTransform="matrix(-.74874 -4.29684 1.65204 -.28787 24.838 23.36)" gradientUnits="userSpaceOnUse"><stop offset=".033" stop-color="#5DA0E2"/><stop offset="1" stop-color="#4F94D1"/></radialGradient><radialGradient id="paint6_radial_13036_4642" cx="0" cy="0" r="1" gradientTransform="matrix(2.97917 .60514 -1.64345 8.09081 5.758 22.77)" gradientUnits="userSpaceOnUse"><stop offset=".179" stop-color="#5E7DA4"/><stop offset="1" stop-color="#376C9C"/><stop offset="1" stop-color="#3C6287"/></radialGradient><radialGradient id="paint7_radial_13036_4642" cx="0" cy="0" r="1" gradientTransform="matrix(0 -3.91264 .5297 0 8.658 24.718)" gradientUnits="userSpaceOnUse"><stop stop-color="#3C6998"/><stop offset="1" stop-color="#3C6998" stop-opacity="0"/></radialGradient><radialGradient id="paint8_radial_13036_4642" cx="0" cy="0" r="1" gradientTransform="matrix(14.39624 1.34674 -.46749 4.99726 16.668 24.847)" gradientUnits="userSpaceOnUse"><stop stop-color="#B88B82"/><stop offset="1" stop-color="#BE8C81"/></radialGradient><radialGradient id="paint9_radial_13036_4642" cx="0" cy="0" r="1" gradientTransform="matrix(.71875 1.625 -6.53756 2.8916 17.25 26.223)" gradientUnits="userSpaceOnUse"><stop offset=".178" stop-color="#8F556C"/><stop offset="1" stop-color="#8F556C" stop-opacity="0"/></radialGradient><radialGradient id="paint10_radial_13036_4642" cx="0" cy="0" r="1" gradientTransform="rotate(161.027 12.13 14.604) scale(6.618 .52807)" gradientUnits="userSpaceOnUse"><stop stop-color="#CFA791"/><stop offset="1" stop-color="#CFA791" stop-opacity="0"/></radialGradient><radialGradient id="paint11_radial_13036_4642" cx="0" cy="0" r="1" gradientTransform="matrix(-.5 -2.5 6.91727 -1.38346 13.313 24.974)" gradientUnits="userSpaceOnUse"><stop stop-color="#8E6955"/><stop offset="1" stop-color="#8E6955" stop-opacity="0"/></radialGradient><radialGradient id="paint12_radial_13036_4642" cx="0" cy="0" r="1" gradientTransform="rotate(75.736 -8.107 23.016) scale(3.10269 23.6143)" gradientUnits="userSpaceOnUse"><stop stop-color="#CA9F8B"/><stop offset=".479" stop-color="#B88F74"/></radialGradient><radialGradient id="paint14_radial_13036_4642" cx="0" cy="0" r="1" gradientTransform="matrix(1.75001 0 0 3.06254 9.6 10.583)" gradientUnits="userSpaceOnUse"><stop offset=".351" stop-color="#865D5F"/><stop offset="1" stop-color="#76594A"/></radialGradient><radialGradient id="paint15_radial_13036_4642" cx="0" cy="0" r="1" gradientTransform="rotate(-124.98 8.822 3.19) scale(1.65216)" gradientUnits="userSpaceOnUse"><stop offset=".34" stop-color="#834E63"/><stop offset="1" stop-color="#834E63" stop-opacity="0"/></radialGradient><radialGradient id="paint18_radial_13036_4642" cx="0" cy="0" r="1" gradientTransform="matrix(.82442 -.6003 .68517 .94097 21.124 10.319)" gradientUnits="userSpaceOnUse"><stop offset=".543" stop-color="#8F6459"/><stop offset="1" stop-color="#8F6459" stop-opacity="0"/></radialGradient><radialGradient id="paint19_radial_13036_4642" cx="0" cy="0" r="1" gradientTransform="matrix(.819 -1.50636 .88167 .47936 20.711 11.402)" gradientUnits="userSpaceOnUse"><stop offset=".755" stop-color="#8A5D55" stop-opacity="0"/><stop offset=".916" stop-color="#8A5D55"/></radialGradient><radialGradient id="paint20_radial_13036_4642" cx="0" cy="0" r="1" gradientTransform="rotate(44.707 -2.491 30.524) scale(.36382 .46903)" gradientUnits="userSpaceOnUse"><stop stop-color="#895F52"/><stop offset="1" stop-color="#895F52" stop-opacity="0"/></radialGradient><radialGradient id="paint22_radial_13036_4642" cx="0" cy="0" r="1" gradientTransform="matrix(0 -1.30347 1.60427 0 18.34 9.315)" gradientUnits="userSpaceOnUse"><stop stop-color="#AB7773"/><stop offset="1" stop-color="#AB7773" stop-opacity="0"/></radialGradient><radialGradient id="paint23_radial_13036_4642" cx="0" cy="0" r="1" gradientTransform="matrix(0 -1.37031 1.70411 0 13.794 9.448)" gradientUnits="userSpaceOnUse"><stop stop-color="#8F5D65"/><stop offset="1" stop-color="#8F5D65" stop-opacity="0"/></radialGradient><radialGradient id="paint26_radial_13036_4642" cx="0" cy="0" r="1" gradientTransform="matrix(0 8.15503 -11.07 0 15.7 8.813)" gradientUnits="userSpaceOnUse"><stop offset=".75" stop-color="#975681" stop-opacity="0"/><stop offset="1" stop-color="#975681"/></radialGradient><radialGradient id="paint29_radial_13036_4642" cx="0" cy="0" r="1" gradientTransform="matrix(.79561 -2.94845 1.09337 .29504 20.334 6.488)" gradientUnits="userSpaceOnUse"><stop stop-color="#554042"/><stop offset="1" stop-color="#554042" stop-opacity="0"/></radialGradient><radialGradient id="paint30_radial_13036_4642" cx="0" cy="0" r="1" gradientTransform="matrix(3.81426 .351 -.18873 2.0509 18.695 4.733)" gradientUnits="userSpaceOnUse"><stop offset=".122" stop-color="#644949"/><stop offset="1" stop-color="#644949" stop-opacity="0"/></radialGradient><radialGradient id="paint31_radial_13036_4642" cx="0" cy="0" r="1" gradientTransform="matrix(0 1.67453 -2.59338 0 16 2.005)" gradientUnits="userSpaceOnUse"><stop stop-color="#624C49"/><stop offset="1" stop-color="#624C49" stop-opacity="0"/></radialGradient><radialGradient id="paint32_radial_13036_4642" cx="0" cy="0" r="1" gradientTransform="matrix(3.06545 -2.24644 3.51943 4.80256 9.57 8.804)" gradientUnits="userSpaceOnUse"><stop stop-color="#4E3C3A"/><stop offset="1" stop-color="#4E3C3A" stop-opacity="0"/></radialGradient><radialGradient id="paint36_radial_13036_4642" cx="0" cy="0" r="1" gradientTransform="matrix(0 .19636 -.63084 0 16.327 12.185)" gradientUnits="userSpaceOnUse"><stop stop-color="#C39787"/><stop offset="1" stop-color="#C39787" stop-opacity="0"/></radialGradient><radialGradient id="paint38_radial_13036_4642" cx="0" cy="0" r="1" gradientTransform="matrix(0 .80889 -1.28663 0 18.173 9.903)" gradientUnits="userSpaceOnUse"><stop offset=".802" stop-color="#7D574A"/><stop offset="1" stop-color="#694B43"/><stop offset="1" stop-color="#804D49"/><stop offset="1" stop-color="#664944"/></radialGradient><radialGradient id="paint39_radial_13036_4642" cx="0" cy="0" r="1" gradientTransform="matrix(-.23122 -.29797 .41023 -.31833 17.945 9.987)" gradientUnits="userSpaceOnUse"><stop offset=".766" stop-color="#FFE6E2" stop-opacity="0"/><stop offset=".966" stop-color="#FFE6E2"/></radialGradient><radialGradient id="paint41_radial_13036_4642" cx="0" cy="0" r="1" gradientTransform="matrix(0 .80893 -1.2867 0 13.822 9.903)" gradientUnits="userSpaceOnUse"><stop offset=".802" stop-color="#7D574A"/><stop offset="1" stop-color="#694B43"/><stop offset="1" stop-color="#804D49"/><stop offset="1" stop-color="#664944"/></radialGradient><radialGradient id="paint43_radial_13036_4642" cx="0" cy="0" r="1" gradientTransform="matrix(-.00771 -.49261 .59213 -.00927 13.537 10.12)" gradientUnits="userSpaceOnUse"><stop offset=".766" stop-color="#FFE6E2" stop-opacity="0"/><stop offset=".966" stop-color="#FFE6E2"/></radialGradient><radialGradient id="paint45_radial_13036_4642" cx="0" cy="0" r="1" gradientTransform="matrix(.17969 -.34375 .82582 .43168 16.64 14.02)" gradientUnits="userSpaceOnUse"><stop stop-color="#B89082"/><stop offset="1" stop-color="#B89082" stop-opacity="0"/></radialGradient><radialGradient id="paint46_radial_13036_4642" cx="0" cy="0" r="1" gradientTransform="matrix(.34766 -.1289 .07839 .2114 14.817 14.017)" gradientUnits="userSpaceOnUse"><stop stop-color="#B89082"/><stop offset="1" stop-color="#B89082" stop-opacity="0"/></radialGradient><radialGradient id="paint47_radial_13036_4642" cx="0" cy="0" r="1" gradientTransform="matrix(.66016 -.256 .1891 .48764 15.625 14.697)" gradientUnits="userSpaceOnUse"><stop stop-color="#9C6C5F"/><stop offset="1" stop-color="#874B4D"/></radialGradient><filter id="filter0_i_13036_4642" width="19.161" height="7.244" x="8.163" y="22.75" color-interpolation-filters="sRGB" filterUnits="userSpaceOnUse"><feFlood flood-opacity="0" result="BackgroundImageFix"/><feBlend in="SourceGraphic" in2="BackgroundImageFix" result="shape"/><feColorMatrix in="SourceAlpha" result="hardAlpha" values="0 0 0 0 0 0 0 0 0 0 0 0 0 0 0 0 0 0 127 0"/><feOffset dx=".5" dy="-.5"/><feGaussianBlur stdDeviation=".75"/><feComposite in2="hardAlpha" k2="-1" k3="1" operator="arithmetic"/><feColorMatrix values="0 0 0 0 0.596078 0 0 0 0 0.333333 0 0 0 0 0.501961 0 0 0 1 0"/><feBlend in2="shape" result="effect1_innerShadow_13036_4642"/></filter><filter id="filter1_i_13036_4642" width="19.009" height="7.177" x="5.176" y="22.818" color-interpolation-filters="sRGB" filterUnits="userSpaceOnUse"><feFlood flood-opacity="0" result="BackgroundImageFix"/><feBlend in="SourceGraphic" in2="BackgroundImageFix" result="shape"/><feColorMatrix in="SourceAlpha" result="hardAlpha" values="0 0 0 0 0 0 0 0 0 0 0 0 0 0 0 0 0 0 127 0"/><feOffset dx=".5" dy="-.3"/><feGaussianBlur stdDeviation=".5"/><feComposite in2="hardAlpha" k2="-1" k3="1" operator="arithmetic"/><feColorMatrix values="0 0 0 0 0.580392 0 0 0 0 0.384314 0 0 0 0 0.419608 0 0 0 1 0"/><feBlend in2="shape" result="effect1_innerShadow_13036_4642"/></filter><filter id="filter2_i_13036_4642" width="3.53" height="3.33" x="9.601" y="8.918" color-interpolation-filters="sRGB" filterUnits="userSpaceOnUse"><feFlood flood-opacity="0" result="BackgroundImageFix"/><feBlend in="SourceGraphic" in2="BackgroundImageFix" result="shape"/><feColorMatrix in="SourceAlpha" result="hardAlpha" values="0 0 0 0 0 0 0 0 0 0 0 0 0 0 0 0 0 0 127 0"/><feOffset dx=".2"/><feGaussianBlur stdDeviation=".15"/><feComposite in2="hardAlpha" k2="-1" k3="1" operator="arithmetic"/><feColorMatrix values="0 0 0 0 0.619608 0 0 0 0 0.470588 0 0 0 0 0.407843 0 0 0 1 0"/><feBlend in2="shape" result="effect1_innerShadow_13036_4642"/></filter><filter id="filter3_f_13036_4642" width="2.985" height="2.984" x="9.773" y="9.091" color-interpolation-filters="sRGB" filterUnits="userSpaceOnUse"><feFlood flood-opacity="0" result="BackgroundImageFix"/><feBlend in="SourceGraphic" in2="BackgroundImageFix" result="shape"/><feGaussianBlur result="effect1_foregroundBlur_13036_4642" stdDeviation=".25"/></filter><filter id="filter4_i_13036_4642" width="3.58" height="3.58" x="19.088" y="8.668" color-interpolation-filters="sRGB" filterUnits="userSpaceOnUse"><feFlood flood-opacity="0" result="BackgroundImageFix"/><feBlend in="SourceGraphic" in2="BackgroundImageFix" result="shape"/><feColorMatrix in="SourceAlpha" result="hardAlpha" values="0 0 0 0 0 0 0 0 0 0 0 0 0 0 0 0 0 0 127 0"/><feOffset dx=".25" dy="-.25"/><feGaussianBlur stdDeviation=".25"/><feComposite in2="hardAlpha" k2="-1" k3="1" operator="arithmetic"/><feColorMatrix values="0 0 0 0 0.584314 0 0 0 0 0.368627 0 0 0 0 0.470588 0 0 0 1 0"/><feBlend in2="shape" result="effect1_innerShadow_13036_4642"/></filter><filter id="filter5_f_13036_4642" width="2.985" height="2.984" x="19.26" y="9.091" color-interpolation-filters="sRGB" filterUnits="userSpaceOnUse"><feFlood flood-opacity="0" result="BackgroundImageFix"/><feBlend in="SourceGraphic" in2="BackgroundImageFix" result="shape"/><feGaussianBlur result="effect1_foregroundBlur_13036_4642" stdDeviation=".25"/></filter><filter id="filter6_i_13036_4642" width="10.345" height="12.095" x="10.857" y="4.974" color-interpolation-filters="sRGB" filterUnits="userSpaceOnUse"><feFlood flood-opacity="0" result="BackgroundImageFix"/><feBlend in="SourceGraphic" in2="BackgroundImageFix" result="shape"/><feColorMatrix in="SourceAlpha" result="hardAlpha" values="0 0 0 0 0 0 0 0 0 0 0 0 0 0 0 0 0 0 127 0"/><feOffset dy=".1"/><feGaussianBlur stdDeviation=".125"/><feComposite in2="hardAlpha" k2="-1" k3="1" operator="arithmetic"/><feColorMatrix values="0 0 0 0 0.305882 0 0 0 0 0.2 0 0 0 0 0.172549 0 0 0 1 0"/><feBlend in2="shape" result="effect1_innerShadow_13036_4642"/></filter><filter id="filter7_f_13036_4642" width="8.234" height="7.058" x="14.17" y="2.974" color-interpolation-filters="sRGB" filterUnits="userSpaceOnUse"><feFlood flood-opacity="0" result="BackgroundImageFix"/><feBlend in="SourceGraphic" in2="BackgroundImageFix" result="shape"/><feGaussianBlur result="effect1_foregroundBlur_13036_4642" stdDeviation="1"/></filter><filter id="filter8_i_13036_4642" width="12.567" height="8.521" x="9.717" y="1.505" color-interpolation-filters="sRGB" filterUnits="userSpaceOnUse"><feFlood flood-opacity="0" result="BackgroundImageFix"/><feBlend in="SourceGraphic" in2="BackgroundImageFix" result="shape"/><feColorMatrix in="SourceAlpha" result="hardAlpha" values="0 0 0 0 0 0 0 0 0 0 0 0 0 0 0 0 0 0 127 0"/><feOffset dy="-.5"/><feGaussianBlur stdDeviation=".375"/><feComposite in2="hardAlpha" k2="-1" k3="1" operator="arithmetic"/><feColorMatrix values="0 0 0 0 0.207843 0 0 0 0 0.109804 0 0 0 0 0.109804 0 0 0 1 0"/><feBlend in2="shape" result="effect1_innerShadow_13036_4642"/></filter><filter id="filter9_f_13036_4642" width="3.255" height="4.174" x="14.134" y="9.429" color-interpolation-filters="sRGB" filterUnits="userSpaceOnUse"><feFlood flood-opacity="0" result="BackgroundImageFix"/><feBlend in="SourceGraphic" in2="BackgroundImageFix" result="shape"/><feGaussianBlur result="effect1_foregroundBlur_13036_4642" stdDeviation=".375"/></filter><filter id="filter10_f_13036_4642" width="2.372" height="3.174" x="14.815" y="9.767" color-interpolation-filters="sRGB" filterUnits="userSpaceOnUse"><feFlood flood-opacity="0" result="BackgroundImageFix"/><feBlend in="SourceGraphic" in2="BackgroundImageFix" result="shape"/><feGaussianBlur result="effect1_foregroundBlur_13036_4642" stdDeviation=".125"/></filter><filter id="filter11_f_13036_4642" width=".785" height=".695" x="17.441" y="9.464" color-interpolation-filters="sRGB" filterUnits="userSpaceOnUse"><feFlood flood-opacity="0" result="BackgroundImageFix"/><feBlend in="SourceGraphic" in2="BackgroundImageFix" result="shape"/><feGaussianBlur result="effect1_foregroundBlur_13036_4642" stdDeviation=".05"/></filter><filter id="filter12_f_13036_4642" width=".89" height=".912" x="18.278" y="9.538" color-interpolation-filters="sRGB" filterUnits="userSpaceOnUse"><feFlood flood-opacity="0" result="BackgroundImageFix"/><feBlend in="SourceGraphic" in2="BackgroundImageFix" result="shape"/><feGaussianBlur result="effect1_foregroundBlur_13036_4642" stdDeviation=".1"/></filter><filter id="filter13_f_13036_4642" width=".985" height="1.038" x="13.849" y="9.475" color-interpolation-filters="sRGB" filterUnits="userSpaceOnUse"><feFlood flood-opacity="0" result="BackgroundImageFix"/><feBlend in="SourceGraphic" in2="BackgroundImageFix" result="shape"/><feGaussianBlur result="effect1_foregroundBlur_13036_4642" stdDeviation=".1"/></filter><filter id="filter14_f_13036_4642" width=".911" height=".703" x="13.096" y="9.456" color-interpolation-filters="sRGB" filterUnits="userSpaceOnUse"><feFlood flood-opacity="0" result="BackgroundImageFix"/><feBlend in="SourceGraphic" in2="BackgroundImageFix" result="shape"/><feGaussianBlur result="effect1_foregroundBlur_13036_4642" stdDeviation=".05"/></filter><filter id="filter15_f_13036_4642" width="1.007" height="2.265" x="10.848" y="5.41" color-interpolation-filters="sRGB" filterUnits="userSpaceOnUse"><feFlood flood-opacity="0" result="BackgroundImageFix"/><feBlend in="SourceGraphic" in2="BackgroundImageFix" result="shape"/><feGaussianBlur result="effect1_foregroundBlur_13036_4642" stdDeviation=".125"/></filter><filter id="filter16_f_13036_4642" width="2.698" height="1.082" x="14.66" y="13.18" color-interpolation-filters="sRGB" filterUnits="userSpaceOnUse"><feFlood flood-opacity="0" result="BackgroundImageFix"/><feBlend in="SourceGraphic" in2="BackgroundImageFix" result="shape"/><feGaussianBlur result="effect1_foregroundBlur_13036_4642" stdDeviation=".05"/></filter><filter id="filter17_f_13036_4642" width="1.224" height=".712" x="15.35" y="14.085" color-interpolation-filters="sRGB" filterUnits="userSpaceOnUse"><feFlood flood-opacity="0" result="BackgroundImageFix"/><feBlend in="SourceGraphic" in2="BackgroundImageFix" result="shape"/><feGaussianBlur result="effect1_foregroundBlur_13036_4642" stdDeviation=".05"/></filter><filter id="filter18_f_13036_4642" width="2.984" height=".75" x="16.934" y="7.955" color-interpolation-filters="sRGB" filterUnits="userSpaceOnUse"><feFlood flood-opacity="0" result="BackgroundImageFix"/><feBlend in="SourceGraphic" in2="BackgroundImageFix" result="shape"/><feGaussianBlur result="effect1_foregroundBlur_13036_4642" stdDeviation=".125"/></filter><filter id="filter19_f_13036_4642" width="2.984" height=".75" x="12.224" y="7.955" color-interpolation-filters="sRGB" filterUnits="userSpaceOnUse"><feFlood flood-opacity="0" result="BackgroundImageFix"/><feBlend in="SourceGraphic" in2="BackgroundImageFix" result="shape"/><feGaussianBlur result="effect1_foregroundBlur_13036_4642" stdDeviation=".125"/></filter><linearGradient id="paint2_linear_13036_4642" x1="15.683" x2="15.683" y1="29.943" y2="26.349" gradientUnits="userSpaceOnUse"><stop stop-color="#3566B7"/><stop offset="1" stop-color="#3566B7" stop-opacity="0"/></linearGradient><linearGradient id="paint5_linear_13036_4642" x1="22.679" x2="23.656" y1="23.399" y2="23.329" gradientUnits="userSpaceOnUse"><stop offset=".197" stop-color="#1979BA"/><stop offset="1" stop-color="#1979BA" stop-opacity="0"/></linearGradient><linearGradient id="paint13_linear_13036_4642" x1="16.75" x2="15.969" y1="28.567" y2="25.442" gradientUnits="userSpaceOnUse"><stop stop-color="#AD7482"/><stop offset="1" stop-color="#AD7482" stop-opacity="0"/></linearGradient><linearGradient id="paint16_linear_13036_4642" x1="11.266" x2="10.627" y1="10.861" y2="10.861" gradientUnits="userSpaceOnUse"><stop stop-color="#694448"/><stop offset="1" stop-color="#6E464D"/></linearGradient><linearGradient id="paint17_linear_13036_4642" x1="21.836" x2="21.02" y1="9.494" y2="12.024" gradientUnits="userSpaceOnUse"><stop stop-color="#CCA68C"/><stop offset="1" stop-color="#AE7F75"/></linearGradient><linearGradient id="paint21_linear_13036_4642" x1="20.025" x2="12.409" y1="10.971" y2="12.106" gradientUnits="userSpaceOnUse"><stop stop-color="#C69980"/><stop offset="1" stop-color="#916762"/></linearGradient><linearGradient id="paint24_linear_13036_4642" x1="10.619" x2="12.496" y1="13.66" y2="13.593" gradientUnits="userSpaceOnUse"><stop stop-color="#9B7569"/><stop offset="1" stop-color="#9B7569" stop-opacity="0"/></linearGradient><linearGradient id="paint25_linear_13036_4642" x1="20.908" x2="19.798" y1="12.821" y2="12.724" gradientUnits="userSpaceOnUse"><stop stop-color="#C1987F"/><stop offset="1" stop-color="#C1987F" stop-opacity="0"/></linearGradient><linearGradient id="paint27_linear_13036_4642" x1="16.029" x2="16.029" y1="16.05" y2="17.097" gradientUnits="userSpaceOnUse"><stop offset=".533" stop-color="#A66D9F" stop-opacity="0"/><stop offset="1" stop-color="#A66D9F"/></linearGradient><linearGradient id="paint28_linear_13036_4642" x1="15.47" x2="23.592" y1="7.995" y2="5.087" gradientUnits="userSpaceOnUse"><stop stop-color="#C89F8B"/><stop offset="1" stop-color="#C89F8B" stop-opacity="0"/></linearGradient><linearGradient id="paint33_linear_13036_4642" x1="15.139" x2="16.074" y1="11.629" y2="11.629" gradientUnits="userSpaceOnUse"><stop stop-color="#8B6455"/><stop offset="1" stop-color="#8B6455" stop-opacity="0"/></linearGradient><linearGradient id="paint34_linear_13036_4642" x1="16.936" x2="15.913" y1="11.95" y2="11.936" gradientUnits="userSpaceOnUse"><stop stop-color="#CDA186"/><stop offset="1" stop-color="#CDA186" stop-opacity="0"/></linearGradient><linearGradient id="paint35_linear_13036_4642" x1="16.194" x2="16.194" y1="12.69" y2="12.119" gradientUnits="userSpaceOnUse"><stop stop-color="#9C6073"/><stop offset="1" stop-color="#9C6073" stop-opacity="0"/></linearGradient><linearGradient id="paint37_linear_13036_4642" x1="16.126" x2="16.126" y1="12.732" y2="12.565" gradientUnits="userSpaceOnUse"><stop stop-color="#8E5263"/><stop offset="1" stop-color="#8E5263" stop-opacity="0"/></linearGradient><linearGradient id="paint40_linear_13036_4642" x1="18.949" x2="18.636" y1="9.956" y2="10.149" gradientUnits="userSpaceOnUse"><stop stop-color="#B4948D"/><stop offset="1" stop-color="#B4948D" stop-opacity="0"/></linearGradient><linearGradient id="paint42_linear_13036_4642" x1="14.564" x2="14.251" y1="9.956" y2="10.149" gradientUnits="userSpaceOnUse"><stop stop-color="#B4948D"/><stop offset="1" stop-color="#B4948D" stop-opacity="0"/></linearGradient><linearGradient id="paint44_linear_13036_4642" x1="11.351" x2="11.351" y1="5.686" y2="7.837" gradientUnits="userSpaceOnUse"><stop offset=".228" stop-color="#4A3236"/><stop offset="1" stop-color="#4A3236" stop-opacity="0"/></linearGradient><linearGradient id="paint48_linear_13036_4642" x1="13.853" x2="13.853" y1="8.932" y2="8.69" gradientUnits="userSpaceOnUse"><stop stop-color="#32242C"/><stop offset="1" stop-color="#32242C" stop-opacity="0"/></linearGradient><linearGradient id="paint49_linear_13036_4642" x1="18.62" x2="18.62" y1="8.932" y2="8.69" gradientUnits="userSpaceOnUse"><stop stop-color="#32242C"/><stop offset="1" stop-color="#32242C" stop-opacity="0"/></linearGradient></defs></svg>