<svg xmlns="http://www.w3.org/2000/svg" width="32" height="32" fill="none" viewBox="0 0 32 32"><g filter="url(#filter0_i_18_2349)"><path fill="#574070" d="m13.38 24.823-2.43-1.4-2.77 4.79a1.405 1.405 0 0 0 2.43 1.41l2.77-4.8Z"/></g><g filter="url(#filter1_ii_18_2349)"><path fill="#EF409B" d="m19.82 18.193-1.123-1.05-3.397 2.56c-.18.13-.42.15-.61.04a.555.555 0 0 1-.27-.55l.566-4.34-1.526-.33-.5 3.81c-.18 1.34-.61 2.64-1.29 3.81l-.85 1.47 2.44 1.41.85-1.47c.68-1.17 1.58-2.2 2.65-3.02l3.06-2.34Z"/></g><path fill="url(#paint0_radial_18_2349)" d="m19.82 18.193-1.123-1.05-3.397 2.56c-.18.13-.42.15-.61.04a.555.555 0 0 1-.27-.55l.55-4.34-1.51-.33-.5 3.81c-.18 1.34-.61 2.64-1.29 3.81l-.85 1.47 2.44 1.41.85-1.47c.68-1.17 1.58-2.2 2.65-3.02l3.06-2.34Z"/><path fill="url(#paint1_radial_18_2349)" d="m19.82 18.193-1.123-1.05-3.397 2.56c-.18.13-.42.15-.61.04a.555.555 0 0 1-.27-.55l.55-4.34-1.51-.33-.5 3.81c-.18 1.34-.61 2.64-1.29 3.81l-.85 1.47 2.44 1.41.85-1.47c.68-1.17 1.58-2.2 2.65-3.02l3.06-2.34Z"/><path fill="url(#paint2_radial_18_2349)" d="m19.82 18.193-1.123-1.05-3.397 2.56c-.18.13-.42.15-.61.04a.555.555 0 0 1-.27-.55l.55-4.34-1.51-.33-.5 3.81c-.18 1.34-.61 2.64-1.29 3.81l-.85 1.47 2.44 1.41.85-1.47c.68-1.17 1.58-2.2 2.65-3.02l3.06-2.34Z"/><path fill="url(#paint3_radial_18_2349)" d="M8 19.293a2.99 2.99 0 1 0 0-5.98 2.99 2.99 0 0 0 0 5.98Z"/><path fill="url(#paint4_radial_18_2349)" d="M7.37 16.943a3.49 3.49 0 0 0-2.33-1c-.02.16-.04.32-.03.48.73.02 1.46.3 2.02.86.54.54.84 1.25.86 2.01.16.01.32-.01.47-.03-.02-.87-.37-1.69-.99-2.32Z"/><path fill="url(#paint5_radial_18_2349)" d="M8.11 13.323c-.16-.01-.32 0-.47.02a3.4 3.4 0 0 0 1 2.33c.64.64 1.48.97 2.32 1 .02-.16.03-.32.03-.47-.73-.02-1.45-.3-2.01-.86-.55-.54-.85-1.26-.87-2.02Z"/><path stroke="url(#paint6_radial_18_2349)" stroke-width=".7" d="m25.642 5.556-10.002.362"/><path stroke="url(#paint7_linear_18_2349)" stroke-width=".7" d="m25.642 5.556-10.002.362"/><path stroke="url(#paint8_radial_18_2349)" stroke-width=".7" d="m25.642 5.556-10.002.362"/><path stroke="url(#paint9_radial_18_2349)" stroke-width=".7" d="m25.642 5.556-10.002.362"/><path stroke="url(#paint10_radial_18_2349)" stroke-width=".7" d="m25.642 5.556-10.002.362"/><path stroke="url(#paint11_radial_18_2349)" stroke-width=".7" d="m26.642 7.815-12.812.469"/><path stroke="url(#paint12_linear_18_2349)" stroke-width=".7" d="m26.642 7.815-12.812.469"/><path stroke="url(#paint13_radial_18_2349)" stroke-width=".7" d="m26.642 7.815-12.812.469"/><path stroke="url(#paint14_radial_18_2349)" stroke-width=".7" d="m26.642 7.815-12.812.469"/><path stroke="url(#paint15_radial_18_2349)" stroke-width=".7" d="m26.642 7.815-12.812.469"/><path stroke="url(#paint16_radial_18_2349)" stroke-width=".7" d="m26.642 7.815-12.812.469"/><path stroke="url(#paint17_radial_18_2349)" stroke-width=".7" d="m26.346 10.127-12.813.422"/><path stroke="url(#paint18_linear_18_2349)" stroke-width=".7" d="m26.346 10.127-12.813.422"/><path stroke="url(#paint19_radial_18_2349)" stroke-width=".7" d="m26.346 10.127-12.813.422"/><path stroke="url(#paint20_radial_18_2349)" stroke-width=".7" d="m26.346 10.127-12.813.422"/><path stroke="url(#paint21_radial_18_2349)" stroke-width=".7" d="m26.346 10.127-12.813.422"/><path stroke="url(#paint22_radial_18_2349)" stroke-width=".7" d="m26.346 10.127-12.813.422"/><path stroke="url(#paint23_radial_18_2349)" stroke-width=".7" d="m26.346 10.127-12.813.422"/><path stroke="url(#paint24_radial_18_2349)" stroke-width=".7" d="m26.346 12.424-12.813.422"/><path stroke="url(#paint25_linear_18_2349)" stroke-width=".7" d="m26.346 12.424-12.813.422"/><path stroke="url(#paint26_radial_18_2349)" stroke-width=".7" d="m26.346 12.424-12.813.422"/><path stroke="url(#paint27_radial_18_2349)" stroke-width=".7" d="m26.346 12.424-12.813.422"/><path stroke="url(#paint28_radial_18_2349)" stroke-width=".7" d="m26.346 12.424-12.813.422"/><path stroke="url(#paint29_radial_18_2349)" stroke-width=".7" d="m26.346 12.424-12.813.422"/><path stroke="url(#paint30_radial_18_2349)" stroke-width=".7" d="m24.908 14.757-10.828.36"/><path stroke="url(#paint31_linear_18_2349)" stroke-width=".7" d="m24.908 14.757-10.828.36"/><path stroke="url(#paint32_radial_18_2349)" stroke-width=".7" d="m24.908 14.757-10.828.36"/><path stroke="url(#paint33_radial_18_2349)" stroke-width=".7" d="m24.908 14.757-10.828.36"/><path stroke="url(#paint34_radial_18_2349)" stroke-width=".7" d="m24.908 14.757-10.828.36"/><path stroke="#E6DDE5" stroke-width=".7" d="m21.658 3.424 4.688 8.844"/><path stroke="url(#paint35_linear_18_2349)" stroke-width=".7" d="m21.658 3.424 4.688 8.844"/><path stroke="url(#paint36_linear_18_2349)" stroke-width=".7" d="m21.658 3.424 4.688 8.844"/><path stroke="url(#paint37_linear_18_2349)" stroke-width=".7" d="m21.658 3.424 4.688 8.844"/><path stroke="url(#paint38_linear_18_2349)" stroke-width=".7" d="m21.658 3.424 4.688 8.844"/><path stroke="#F3F0F8" stroke-width=".7" d="m15.377 6.174 5.89 11.188"/><path stroke="url(#paint39_linear_18_2349)" stroke-width=".7" d="m15.377 6.174 5.89 11.188"/><path stroke="url(#paint40_linear_18_2349)" stroke-width=".7" d="m15.377 6.174 5.89 11.188"/><path stroke="#F3F0F8" stroke-width=".7" d="m17.158 4.643 6.14 11.687"/><path stroke="url(#paint41_linear_18_2349)" stroke-width=".7" d="m17.158 4.643 6.14 11.687"/><path stroke="url(#paint42_radial_18_2349)" stroke-width=".7" d="m17.158 4.643 6.14 11.687"/><path stroke="url(#paint43_radial_18_2349)" stroke-width=".7" d="m17.158 4.643 6.14 11.687"/><path stroke="#F3F0F8" stroke-width=".7" d="m18.908 3.174 6.14 11.688"/><path stroke="url(#paint44_linear_18_2349)" stroke-width=".7" d="m18.908 3.174 6.14 11.688"/><path stroke="url(#paint45_linear_18_2349)" stroke-width=".7" d="m18.908 3.174 6.14 11.688"/><path stroke="url(#paint46_linear_18_2349)" stroke-width=".7" d="m18.908 3.174 6.14 11.688"/><path stroke="#F3F0F8" stroke-width=".7" d="m14.08 8.674 4.687 8.844"/><path stroke="url(#paint47_linear_18_2349)" stroke-width=".7" d="m14.08 8.674 4.687 8.844"/><path stroke="url(#paint48_linear_18_2349)" stroke-width=".7" d="m14.08 8.674 4.687 8.844"/><g filter="url(#filter2_i_18_2349)"><path fill="url(#paint49_linear_18_2349)" fill-rule="evenodd" d="M14.696 5.828c1.93-3.326 6.178-4.47 9.507-2.55 3.33 1.92 4.46 6.17 2.553 9.506l-.001.002-1.27 2.2v.001c-1.93 3.326-6.179 4.47-9.508 2.55h-.002c-3.326-1.93-4.47-6.178-2.55-9.507l1.27-2.2.001-.002Zm1.188.69-1.269 2.198a5.593 5.593 0 0 0 2.049 7.632 5.593 5.593 0 0 0 7.632-2.049l1.268-2.197v-.001c1.534-2.685.622-6.094-2.047-7.633a5.593 5.593 0 0 0-7.633 2.05Z" clip-rule="evenodd"/></g><g filter="url(#filter3_f_18_2349)"><path stroke="url(#paint50_radial_18_2349)" stroke-width=".4" d="m14.185 17.518-.24 1.8c-.031.153.038.562.47.791"/></g><defs><radialGradient id="paint0_radial_18_2349" cx="0" cy="0" r="1" gradientTransform="matrix(.60257 2.11997 -1.65083 .46922 14.717 15.683)" gradientUnits="userSpaceOnUse"><stop offset=".458" stop-color="#9F1560"/><stop offset="1" stop-color="#9F1560" stop-opacity="0"/></radialGradient><radialGradient id="paint1_radial_18_2349" cx="0" cy="0" r="1" gradientTransform="matrix(-2.9373 .58747 -.30128 -1.5064 19.008 17.854)" gradientUnits="userSpaceOnUse"><stop offset=".373" stop-color="#A21353"/><stop offset="1" stop-color="#A21353" stop-opacity="0"/></radialGradient><radialGradient id="paint2_radial_18_2349" cx="0" cy="0" r="1" gradientTransform="matrix(2.8096 .9706 -2.01655 5.8373 10.503 21.787)" gradientUnits="userSpaceOnUse"><stop stop-color="#B93D6A"/><stop offset="1" stop-color="#B93D6A" stop-opacity="0"/></radialGradient><radialGradient id="paint3_radial_18_2349" cx="0" cy="0" r="1" gradientTransform="rotate(113.691 .632 10.29) scale(6.68867 6.44163)" gradientUnits="userSpaceOnUse"><stop offset=".412" stop-color="#C9FF6E"/><stop offset=".961" stop-color="#60A17D"/></radialGradient><radialGradient id="paint4_radial_18_2349" cx="0" cy="0" r="1" gradientTransform="matrix(1.3125 -1.40625 2.52341 2.35519 6.236 18.127)" gradientUnits="userSpaceOnUse"><stop offset=".41" stop-color="#DDE0E2"/><stop offset=".899" stop-color="#B5B4C3"/></radialGradient><radialGradient id="paint5_radial_18_2349" cx="0" cy="0" r="1" gradientTransform="rotate(134.393 1.8 9.29) scale(1.56346 2.74519)" gradientUnits="userSpaceOnUse"><stop offset=".712" stop-color="#B5B4C3"/><stop offset="1" stop-color="#DDE0E2"/></radialGradient><radialGradient id="paint6_radial_18_2349" cx="0" cy="0" r="1" gradientTransform="matrix(-4.6055 .12543 -.037 -1.3585 20.64 5.625)" gradientUnits="userSpaceOnUse"><stop offset=".507" stop-color="#CFCCD4"/><stop offset="1" stop-color="#A5919F"/></radialGradient><radialGradient id="paint8_radial_18_2349" cx="0" cy="0" r="1" gradientTransform="matrix(.9375 1.5625 -.44602 .26761 17.299 5.737)" gradientUnits="userSpaceOnUse"><stop stop-color="#A68199"/><stop offset="1" stop-color="#A68199" stop-opacity="0"/></radialGradient><radialGradient id="paint9_radial_18_2349" cx="0" cy="0" r="1" gradientTransform="matrix(1 1.75 -.49953 .28545 19.767 5.565)" gradientUnits="userSpaceOnUse"><stop stop-color="#9F96A6"/><stop offset="1" stop-color="#9F96A6" stop-opacity="0"/></radialGradient><radialGradient id="paint10_radial_18_2349" cx="0" cy="0" r="1" gradientTransform="matrix(1.07812 1.625 -.46384 .30774 22.19 5.33)" gradientUnits="userSpaceOnUse"><stop stop-color="#9F96A6"/><stop offset="1" stop-color="#9F96A6" stop-opacity="0"/></radialGradient><radialGradient id="paint11_radial_18_2349" cx="0" cy="0" r="1" gradientTransform="matrix(-5.8992 .16282 -.048 -1.7393 20.237 7.907)" gradientUnits="userSpaceOnUse"><stop offset=".507" stop-color="#CFCCD4"/><stop offset="1" stop-color="#A5919F"/></radialGradient><radialGradient id="paint13_radial_18_2349" cx="0" cy="0" r="1" gradientTransform="matrix(1.04032 1.67588 -.47879 .29721 16.096 8.166)" gradientUnits="userSpaceOnUse"><stop stop-color="#A68199"/><stop offset="1" stop-color="#A68199" stop-opacity="0"/></radialGradient><radialGradient id="paint14_radial_18_2349" cx="0" cy="0" r="1" gradientTransform="matrix(1.00921 1.63712 -.46772 .28833 18.72 8.055)" gradientUnits="userSpaceOnUse"><stop stop-color="#9F96A6"/><stop offset="1" stop-color="#9F96A6" stop-opacity="0"/></radialGradient><radialGradient id="paint15_radial_18_2349" cx="0" cy="0" r="1" gradientTransform="matrix(.947 1.56736 -.4478 .27055 21.127 7.836)" gradientUnits="userSpaceOnUse"><stop stop-color="#9F96A6"/><stop offset="1" stop-color="#9F96A6" stop-opacity="0"/></radialGradient><radialGradient id="paint16_radial_18_2349" cx="0" cy="0" r="1" gradientTransform="matrix(.94622 1.76957 -.50555 .27033 23.457 7.314)" gradientUnits="userSpaceOnUse"><stop stop-color="#9F96A6"/><stop offset="1" stop-color="#9F96A6" stop-opacity="0"/></radialGradient><radialGradient id="paint17_radial_18_2349" cx="0" cy="0" r="1" gradientTransform="rotate(178.631 9.909 5.217) scale(5.90108 1.74822)" gradientUnits="userSpaceOnUse"><stop offset=".507" stop-color="#CFCCD4"/><stop offset="1" stop-color="#A5919F"/></radialGradient><radialGradient id="paint19_radial_18_2349" cx="0" cy="0" r="1" gradientTransform="rotate(57.16 -2.343 18.61) scale(2.04568 .57932)" gradientUnits="userSpaceOnUse"><stop stop-color="#A68199"/><stop offset="1" stop-color="#A68199" stop-opacity="0"/></radialGradient><radialGradient id="paint20_radial_18_2349" cx="0" cy="0" r="1" gradientTransform="matrix(1.10938 1.92187 -.54426 .31417 17.111 10.221)" gradientUnits="userSpaceOnUse"><stop stop-color="#9F96A6"/><stop offset="1" stop-color="#9F96A6" stop-opacity="0"/></radialGradient><radialGradient id="paint21_radial_18_2349" cx="0" cy="0" r="1" gradientTransform="rotate(57.339 .623 22.935) scale(2.17148 .61495)" gradientUnits="userSpaceOnUse"><stop stop-color="#9F96A6"/><stop offset="1" stop-color="#9F96A6" stop-opacity="0"/></radialGradient><radialGradient id="paint22_radial_18_2349" cx="0" cy="0" r="1" gradientTransform="rotate(59.436 2.511 24.082) scale(2.30457 .65264)" gradientUnits="userSpaceOnUse"><stop stop-color="#9F96A6"/><stop offset="1" stop-color="#9F96A6" stop-opacity="0"/></radialGradient><radialGradient id="paint23_radial_18_2349" cx="0" cy="0" r="1" gradientTransform="matrix(1.125 1.67187 -.47346 .3186 24.47 9.565)" gradientUnits="userSpaceOnUse"><stop stop-color="#9F96A6"/><stop offset="1" stop-color="#9F96A6" stop-opacity="0"/></radialGradient><radialGradient id="paint24_radial_18_2349" cx="0" cy="0" r="1" gradientTransform="rotate(178.631 9.895 6.365) scale(5.90108 1.74822)" gradientUnits="userSpaceOnUse"><stop offset=".507" stop-color="#CFCCD4"/><stop offset="1" stop-color="#A5919F"/></radialGradient><radialGradient id="paint26_radial_18_2349" cx="0" cy="0" r="1" gradientTransform="matrix(1.04687 1.6875 -.47789 .29647 15.799 12.737)" gradientUnits="userSpaceOnUse"><stop stop-color="#A68199"/><stop offset="1" stop-color="#A68199" stop-opacity="0"/></radialGradient><radialGradient id="paint27_radial_18_2349" cx="0" cy="0" r="1" gradientTransform="matrix(1.01562 1.64844 -.46682 .28762 18.424 12.635)" gradientUnits="userSpaceOnUse"><stop stop-color="#9F96A6"/><stop offset="1" stop-color="#9F96A6" stop-opacity="0"/></radialGradient><radialGradient id="paint28_radial_18_2349" cx="0" cy="0" r="1" gradientTransform="matrix(.95312 1.57813 -.44692 .26992 20.83 12.425)" gradientUnits="userSpaceOnUse"><stop stop-color="#9F96A6"/><stop offset="1" stop-color="#9F96A6" stop-opacity="0"/></radialGradient><radialGradient id="paint29_radial_18_2349" cx="0" cy="0" r="1" gradientTransform="matrix(.95312 1.78125 -.50444 .26992 23.158 11.909)" gradientUnits="userSpaceOnUse"><stop stop-color="#9F96A6"/><stop offset="1" stop-color="#9F96A6" stop-opacity="0"/></radialGradient><radialGradient id="paint30_radial_18_2349" cx="0" cy="0" r="1" gradientTransform="rotate(178.616 9.658 7.526) scale(4.98715 1.47696)" gradientUnits="userSpaceOnUse"><stop offset=".507" stop-color="#CFCCD4"/><stop offset="1" stop-color="#A5919F"/></radialGradient><radialGradient id="paint32_radial_18_2349" cx="0" cy="0" r="1" gradientTransform="matrix(.9375 1.57032 -.44498 .26566 16.986 14.937)" gradientUnits="userSpaceOnUse"><stop stop-color="#A68199"/><stop offset="1" stop-color="#A68199" stop-opacity="0"/></radialGradient><radialGradient id="paint33_radial_18_2349" cx="0" cy="0" r="1" gradientTransform="matrix(.83582 1.57813 -.4472 .23684 19.494 14.737)" gradientUnits="userSpaceOnUse"><stop stop-color="#9F96A6"/><stop offset="1" stop-color="#9F96A6" stop-opacity="0"/></radialGradient><radialGradient id="paint34_radial_18_2349" cx="0" cy="0" r="1" gradientTransform="rotate(57.124 -2.38 27.418) scale(1.52558 .4323)" gradientUnits="userSpaceOnUse"><stop stop-color="#9F96A6"/><stop offset="1" stop-color="#9F96A6" stop-opacity="0"/></radialGradient><radialGradient id="paint42_radial_18_2349" cx="0" cy="0" r="1" gradientTransform="matrix(-.93954 -1.29398 .67986 -.49364 23.299 16.33)" gradientUnits="userSpaceOnUse"><stop stop-color="#CCB8BF"/><stop offset="1" stop-color="#CCB8BF" stop-opacity="0"/></radialGradient><radialGradient id="paint43_radial_18_2349" cx="0" cy="0" r="1" gradientTransform="matrix(1.25697 1.21363 -.63764 .66041 16.94 4.005)" gradientUnits="userSpaceOnUse"><stop stop-color="#CCB8BF"/><stop offset="1" stop-color="#CCB8BF" stop-opacity="0"/></radialGradient><radialGradient id="paint50_radial_18_2349" cx="0" cy="0" r="1" gradientTransform="rotate(-58.088 24.486 -2.82) scale(2.05294 1.36209)" gradientUnits="userSpaceOnUse"><stop stop-color="#FF70B6"/><stop offset="1" stop-color="#FF70B6" stop-opacity="0"/></radialGradient><linearGradient id="paint7_linear_18_2349" x1="21.296" x2="21.281" y1="6.137" y2="5.735" gradientUnits="userSpaceOnUse"><stop stop-color="#9E75A5"/><stop offset="1" stop-color="#9E75A5" stop-opacity="0"/></linearGradient><linearGradient id="paint12_linear_18_2349" x1="21.075" x2="21.055" y1="8.562" y2="8.046" gradientUnits="userSpaceOnUse"><stop stop-color="#9E75A5"/><stop offset="1" stop-color="#9E75A5" stop-opacity="0"/></linearGradient><linearGradient id="paint18_linear_18_2349" x1="20.78" x2="20.762" y1="10.856" y2="10.338" gradientUnits="userSpaceOnUse"><stop stop-color="#9E75A5"/><stop offset="1" stop-color="#9E75A5" stop-opacity="0"/></linearGradient><linearGradient id="paint25_linear_18_2349" x1="20.78" x2="20.762" y1="13.153" y2="12.635" gradientUnits="userSpaceOnUse"><stop stop-color="#9E75A5"/><stop offset="1" stop-color="#9E75A5" stop-opacity="0"/></linearGradient><linearGradient id="paint31_linear_18_2349" x1="20.205" x2="20.189" y1="15.375" y2="14.937" gradientUnits="userSpaceOnUse"><stop stop-color="#9E75A5"/><stop offset="1" stop-color="#9E75A5" stop-opacity="0"/></linearGradient><linearGradient id="paint35_linear_18_2349" x1="24.729" x2="24.511" y1="8.341" y2="8.465" gradientUnits="userSpaceOnUse"><stop stop-color="#DDD1D7"/><stop offset="1" stop-color="#DDD1D7" stop-opacity="0"/></linearGradient><linearGradient id="paint36_linear_18_2349" x1="23.739" x2="24.189" y1="8.029" y2="7.792" gradientUnits="userSpaceOnUse"><stop offset=".2" stop-color="#ADA5B9"/><stop offset="1" stop-color="#ADA5B9" stop-opacity="0"/></linearGradient><linearGradient id="paint37_linear_18_2349" x1="22.507" x2="22.054" y1="3.84" y2="4.816" gradientUnits="userSpaceOnUse"><stop stop-color="#A296AE"/><stop offset="1" stop-color="#A296AE" stop-opacity="0"/></linearGradient><linearGradient id="paint38_linear_18_2349" x1="26.228" x2="25.181" y1="11.695" y2="11.559" gradientUnits="userSpaceOnUse"><stop stop-color="#AC97A5"/><stop offset="1" stop-color="#AC97A5" stop-opacity="0"/></linearGradient><linearGradient id="paint39_linear_18_2349" x1="17.992" x2="18.559" y1="12" y2="11.702" gradientUnits="userSpaceOnUse"><stop offset=".081" stop-color="#B2A7BC"/><stop offset=".895" stop-color="#B5A7BD" stop-opacity="0"/></linearGradient><linearGradient id="paint40_linear_18_2349" x1="20.577" x2="20.25" y1="17.651" y2="16.165" gradientUnits="userSpaceOnUse"><stop stop-color="#BD9FA6"/><stop offset="1" stop-color="#BD9FA6" stop-opacity="0"/></linearGradient><linearGradient id="paint41_linear_18_2349" x1="19.884" x2="20.476" y1="10.729" y2="10.419" gradientUnits="userSpaceOnUse"><stop offset=".2" stop-color="#B2A7BC"/><stop offset="1" stop-color="#B5A7BD" stop-opacity="0"/></linearGradient><linearGradient id="paint44_linear_18_2349" x1="21.634" x2="22.226" y1="9.26" y2="8.95" gradientUnits="userSpaceOnUse"><stop offset=".2" stop-color="#AFA8BC"/><stop offset="1" stop-color="#AFA8BC" stop-opacity="0"/></linearGradient><linearGradient id="paint45_linear_18_2349" x1="18.908" x2="19.823" y1="3.572" y2="4.829" gradientUnits="userSpaceOnUse"><stop stop-color="#B9ACC0"/><stop offset="1" stop-color="#B9ACC0" stop-opacity="0"/></linearGradient><linearGradient id="paint46_linear_18_2349" x1="24.895" x2="23.898" y1="14.105" y2="13.953" gradientUnits="userSpaceOnUse"><stop stop-color="#BCA4AE"/><stop offset="1" stop-color="#BCA4AE" stop-opacity="0"/></linearGradient><linearGradient id="paint47_linear_18_2349" x1="16.08" x2="16.611" y1="13.346" y2="13.041" gradientUnits="userSpaceOnUse"><stop stop-color="#AB7C9C"/><stop offset="1" stop-color="#AB7C9C" stop-opacity="0"/></linearGradient><linearGradient id="paint48_linear_18_2349" x1="18.767" x2="18.409" y1="18.037" y2="16.136" gradientUnits="userSpaceOnUse"><stop stop-color="#C79CA6"/><stop offset="1" stop-color="#C79CA6" stop-opacity="0"/></linearGradient><linearGradient id="paint49_linear_18_2349" x1="27.132" x2="14.051" y1="13.194" y2="11.474" gradientUnits="userSpaceOnUse"><stop stop-color="#FE4584"/><stop offset="1" stop-color="#EC3355"/></linearGradient><filter id="filter0_i_18_2349" width="5.79" height="7.4" x="7.99" y="23.423" color-interpolation-filters="sRGB" filterUnits="userSpaceOnUse"><feFlood flood-opacity="0" result="BackgroundImageFix"/><feBlend in="SourceGraphic" in2="BackgroundImageFix" result="shape"/><feColorMatrix in="SourceAlpha" result="hardAlpha" values="0 0 0 0 0 0 0 0 0 0 0 0 0 0 0 0 0 0 127 0"/><feOffset dx=".4" dy=".5"/><feGaussianBlur stdDeviation=".375"/><feComposite in2="hardAlpha" k2="-1" k3="1" operator="arithmetic"/><feColorMatrix values="0 0 0 0 0.368627 0 0 0 0 0.278431 0 0 0 0 0.329412 0 0 0 1 0"/><feBlend in2="shape" result="effect1_innerShadow_18_2349"/></filter><filter id="filter1_ii_18_2349" width="9.55" height="11.05" x="10.62" y="14.323" color-interpolation-filters="sRGB" filterUnits="userSpaceOnUse"><feFlood flood-opacity="0" result="BackgroundImageFix"/><feBlend in="SourceGraphic" in2="BackgroundImageFix" result="shape"/><feColorMatrix in="SourceAlpha" result="hardAlpha" values="0 0 0 0 0 0 0 0 0 0 0 0 0 0 0 0 0 0 127 0"/><feOffset dx="-.2" dy="-.2"/><feGaussianBlur stdDeviation=".2"/><feComposite in2="hardAlpha" k2="-1" k3="1" operator="arithmetic"/><feColorMatrix values="0 0 0 0 0.756863 0 0 0 0 0.203922 0 0 0 0 0.615686 0 0 0 1 0"/><feBlend in2="shape" result="effect1_innerShadow_18_2349"/><feColorMatrix in="SourceAlpha" result="hardAlpha" values="0 0 0 0 0 0 0 0 0 0 0 0 0 0 0 0 0 0 127 0"/><feOffset dx=".35" dy=".35"/><feGaussianBlur stdDeviation=".25"/><feComposite in2="hardAlpha" k2="-1" k3="1" operator="arithmetic"/><feColorMatrix values="0 0 0 0 0.682353 0 0 0 0 0.180392 0 0 0 0 0.419608 0 0 0 1 0"/><feBlend in2="effect1_innerShadow_18_2349" result="effect2_innerShadow_18_2349"/></filter><filter id="filter2_i_18_2349" width="15.488" height="16.473" x="12.494" y="1.996" color-interpolation-filters="sRGB" filterUnits="userSpaceOnUse"><feFlood flood-opacity="0" result="BackgroundImageFix"/><feBlend in="SourceGraphic" in2="BackgroundImageFix" result="shape"/><feColorMatrix in="SourceAlpha" result="hardAlpha" values="0 0 0 0 0 0 0 0 0 0 0 0 0 0 0 0 0 0 127 0"/><feOffset dx=".3" dy="-.35"/><feGaussianBlur stdDeviation=".25"/><feComposite in2="hardAlpha" k2="-1" k3="1" operator="arithmetic"/><feColorMatrix values="0 0 0 0 0.690196 0 0 0 0 0.180392 0 0 0 0 0.415686 0 0 0 1 0"/><feBlend in2="shape" result="effect1_innerShadow_18_2349"/></filter><filter id="filter3_f_18_2349" width="1.37" height="3.394" x="13.438" y="17.192" color-interpolation-filters="sRGB" filterUnits="userSpaceOnUse"><feFlood flood-opacity="0" result="BackgroundImageFix"/><feBlend in="SourceGraphic" in2="BackgroundImageFix" result="shape"/><feGaussianBlur result="effect1_foregroundBlur_18_2349" stdDeviation=".15"/></filter></defs></svg>