<svg xmlns="http://www.w3.org/2000/svg" width="32" height="32" fill="none" viewBox="0 0 32 32"><g filter="url(#filter0_i_4002_3629)"><path fill="url(#paint0_linear_4002_3629)" d="M6.488 21.138a3.25 3.25 0 1 0 0-6.5 3.25 3.25 0 0 0 0 6.5Z"/><path fill="url(#paint1_radial_4002_3629)" d="M6.488 21.138a3.25 3.25 0 1 0 0-6.5 3.25 3.25 0 0 0 0 6.5Z"/></g><g filter="url(#filter1_i_4002_3629)"><path fill="url(#paint2_radial_4002_3629)" d="M25.488 21.138a3.25 3.25 0 1 0 0-6.5 3.25 3.25 0 0 0 0 6.5Z"/><path fill="url(#paint3_radial_4002_3629)" d="M25.488 21.138a3.25 3.25 0 1 0 0-6.5 3.25 3.25 0 0 0 0 6.5Z"/></g><g filter="url(#filter2_f_4002_3629)"><path fill="url(#paint4_radial_4002_3629)" d="M25.488 19.917a2.03 2.03 0 1 0 0-4.058 2.03 2.03 0 0 0 0 4.058Z"/><path fill="url(#paint5_radial_4002_3629)" d="M25.488 19.917a2.03 2.03 0 1 0 0-4.058 2.03 2.03 0 0 0 0 4.058Z"/></g><g filter="url(#filter3_f_4002_3629)"><path fill="url(#paint6_linear_4002_3629)" d="M6.488 19.917a2.03 2.03 0 1 0 0-4.058 2.03 2.03 0 0 0 0 4.058Z"/></g><g filter="url(#filter4_i_4002_3629)"><path fill="#242029" d="m23.617 21.358 6 4.03c.55.37.59 1.17.08 1.6l-3.19 2.81c-.72.64-1.85.34-2.18-.56l-2.32-6.49 1.61-1.39Z"/><path fill="url(#paint7_linear_4002_3629)" d="m23.617 21.358 6 4.03c.55.37.59 1.17.08 1.6l-3.19 2.81c-.72.64-1.85.34-2.18-.56l-2.32-6.49 1.61-1.39Z"/><path fill="url(#paint8_radial_4002_3629)" d="m23.617 21.358 6 4.03c.55.37.59 1.17.08 1.6l-3.19 2.81c-.72.64-1.85.34-2.18-.56l-2.32-6.49 1.61-1.39Z"/><path fill="url(#paint9_radial_4002_3629)" d="m23.617 21.358 6 4.03c.55.37.59 1.17.08 1.6l-3.19 2.81c-.72.64-1.85.34-2.18-.56l-2.32-6.49 1.61-1.39Z"/><path fill="url(#paint10_radial_4002_3629)" d="m23.617 21.358 6 4.03c.55.37.59 1.17.08 1.6l-3.19 2.81c-.72.64-1.85.34-2.18-.56l-2.32-6.49 1.61-1.39Z"/></g><g filter="url(#filter5_i_4002_3629)"><path fill="#221F26" d="m8.427 21.358-6 4.03c-.55.37-.59 1.17-.08 1.6l3.19 2.81c.72.64 1.85.34 2.18-.56l2.32-6.49-1.61-1.39Z"/><path fill="url(#paint11_radial_4002_3629)" d="m8.427 21.358-6 4.03c-.55.37-.59 1.17-.08 1.6l3.19 2.81c.72.64 1.85.34 2.18-.56l2.32-6.49-1.61-1.39Z"/><path fill="url(#paint12_linear_4002_3629)" d="m8.427 21.358-6 4.03c-.55.37-.59 1.17-.08 1.6l3.19 2.81c.72.64 1.85.34 2.18-.56l2.32-6.49-1.61-1.39Z"/></g><g filter="url(#filter6_i_4002_3629)"><path fill="url(#paint13_radial_4002_3629)" d="M18.847 13.138c-3.6-.607-6.582-2.38-7.97-5.142-.383 2.315-1.456 4.533-4.322 5.767-.333.144-.668.322-.724.908l.193 5.682c.24 5.859 4.624 9.785 9.964 9.785 5.331 0 9.726-3.926 9.965-9.785l.21-6.204a.48.48 0 0 0-.412-.498c-.85-.113-1.976-.17-3.157-.232-1.28-.066-2.624-.135-3.747-.28Z"/><path fill="url(#paint14_radial_4002_3629)" d="M18.847 13.138c-3.6-.607-6.582-2.38-7.97-5.142-.383 2.315-1.456 4.533-4.322 5.767-.333.144-.668.322-.724.908l.193 5.682c.24 5.859 4.624 9.785 9.964 9.785 5.331 0 9.726-3.926 9.965-9.785l.21-6.204a.48.48 0 0 0-.412-.498c-.85-.113-1.976-.17-3.157-.232-1.28-.066-2.624-.135-3.747-.28Z"/><path fill="url(#paint15_radial_4002_3629)" d="M18.847 13.138c-3.6-.607-6.582-2.38-7.97-5.142-.383 2.315-1.456 4.533-4.322 5.767-.333.144-.668.322-.724.908l.193 5.682c.24 5.859 4.624 9.785 9.964 9.785 5.331 0 9.726-3.926 9.965-9.785l.21-6.204a.48.48 0 0 0-.412-.498c-.85-.113-1.976-.17-3.157-.232-1.28-.066-2.624-.135-3.747-.28Z"/><path fill="url(#paint16_radial_4002_3629)" d="M18.847 13.138c-3.6-.607-6.582-2.38-7.97-5.142-.383 2.315-1.456 4.533-4.322 5.767-.333.144-.668.322-.724.908l.193 5.682c.24 5.859 4.624 9.785 9.964 9.785 5.331 0 9.726-3.926 9.965-9.785l.21-6.204a.48.48 0 0 0-.412-.498c-.85-.113-1.976-.17-3.157-.232-1.28-.066-2.624-.135-3.747-.28Z"/></g><path fill="url(#paint17_radial_4002_3629)" d="M18.847 13.138c-3.6-.607-6.582-2.38-7.97-5.142-.383 2.315-1.456 4.533-4.322 5.767-.333.144-.668.322-.724.908l.193 5.682c.24 5.859 4.624 9.785 9.964 9.785 5.331 0 9.726-3.926 9.965-9.785l.21-6.204a.48.48 0 0 0-.412-.498c-.85-.113-1.976-.17-3.157-.232-1.28-.066-2.624-.135-3.747-.28Z"/><path fill="url(#paint18_radial_4002_3629)" d="M18.847 13.138c-3.6-.607-6.582-2.38-7.97-5.142-.383 2.315-1.456 4.533-4.322 5.767-.333.144-.668.322-.724.908l.193 5.682c.24 5.859 4.624 9.785 9.964 9.785 5.331 0 9.726-3.926 9.965-9.785l.21-6.204a.48.48 0 0 0-.412-.498c-.85-.113-1.976-.17-3.157-.232-1.28-.066-2.624-.135-3.747-.28Z"/><path fill="url(#paint19_radial_4002_3629)" d="M18.847 13.138c-3.6-.607-6.582-2.38-7.97-5.142-.383 2.315-1.456 4.533-4.322 5.767-.333.144-.668.322-.724.908l.193 5.682c.24 5.859 4.624 9.785 9.964 9.785 5.331 0 9.726-3.926 9.965-9.785l.21-6.204a.48.48 0 0 0-.412-.498c-.85-.113-1.976-.17-3.157-.232-1.28-.066-2.624-.135-3.747-.28Z"/><path fill="#89004E" stroke="url(#paint20_linear_4002_3629)" stroke-width=".1" d="M13.01 22.734a.379.379 0 0 0-.495.543l.042-.027.453-.516Z"/><g filter="url(#filter7_i_4002_3629)"><path stroke="#332626" stroke-linecap="round" stroke-linejoin="round" stroke-miterlimit="10" stroke-width="1.1" d="M9.599 14.229c.59-.21 1.37-.316 2.43-.216"/></g><g filter="url(#filter8_f_4002_3629)"><path stroke="url(#paint21_linear_4002_3629)" stroke-linecap="round" stroke-linejoin="round" stroke-miterlimit="10" stroke-width=".5" d="M9.599 14.229c.59-.21 1.37-.316 2.43-.216"/></g><g filter="url(#filter9_i_4002_3629)"><path stroke="#332626" stroke-linecap="round" stroke-linejoin="round" stroke-miterlimit="10" stroke-width="1.1" d="M22.378 14.248c-.59-.21-1.41-.36-2.47-.26"/></g><g filter="url(#filter10_f_4002_3629)"><path stroke="url(#paint22_linear_4002_3629)" stroke-linecap="round" stroke-linejoin="round" stroke-miterlimit="10" stroke-width=".5" d="M22.378 14.248c-.59-.21-1.41-.36-2.47-.26"/></g><g filter="url(#filter11_i_4002_3629)"><path fill="url(#paint23_radial_4002_3629)" d="M4.017 11.198c0-3.9 3.16-7.06 7.06-7.06v.97c0 3.18-.46 6.905-4.522 8.655-.339.146-.68.328-.726.938-.602.14-1.29.476-1.795 1.056a6.902 6.902 0 0 1-.017-.489v-4.07Z"/></g><path fill="url(#paint24_radial_4002_3629)" d="M4.017 11.198c0-3.9 3.16-7.06 7.06-7.06v.97c0 3.18-.46 6.905-4.522 8.655-.339.146-.68.328-.726.938-.602.14-1.29.476-1.795 1.056a6.902 6.902 0 0 1-.017-.489v-4.07Z"/><g filter="url(#filter12_f_4002_3629)"><path fill="url(#paint25_linear_4002_3629)" d="M17.31 21.198a.68.68 0 0 1-.132.58 1.849 1.849 0 0 1-1.6.706 1.878 1.878 0 0 1-1.477-.95.687.687 0 0 1 .053-.754l1.306-2.428a.485.485 0 0 1 .886.07l.933 2.677a.714.714 0 0 1 .017.049l.018.05h-.004Z"/></g><g filter="url(#filter13_f_4002_3629)"><path fill="#8F6258" d="M17.703 20.645a.717.717 0 0 1-.09.62c-.35.528-.95.873-1.62.873-.67 0-1.27-.345-1.63-.873a.723.723 0 0 1-.007-.797l1.17-2.656a.51.51 0 0 1 .934 0l1.203 2.732a.805.805 0 0 1 .021.049l.023.052h-.004Z"/><path fill="url(#paint26_radial_4002_3629)" d="M17.703 20.645a.717.717 0 0 1-.09.62c-.35.528-.95.873-1.62.873-.67 0-1.27-.345-1.63-.873a.723.723 0 0 1-.007-.797l1.17-2.656a.51.51 0 0 1 .934 0l1.203 2.732a.805.805 0 0 1 .021.049l.023.052h-.004Z"/><path fill="url(#paint27_radial_4002_3629)" d="M17.703 20.645a.717.717 0 0 1-.09.62c-.35.528-.95.873-1.62.873-.67 0-1.27-.345-1.63-.873a.723.723 0 0 1-.007-.797l1.17-2.656a.51.51 0 0 1 .934 0l1.203 2.732a.805.805 0 0 1 .021.049l.023.052h-.004Z"/><path fill="url(#paint28_linear_4002_3629)" d="M17.703 20.645a.717.717 0 0 1-.09.62c-.35.528-.95.873-1.62.873-.67 0-1.27-.345-1.63-.873a.723.723 0 0 1-.007-.797l1.17-2.656a.51.51 0 0 1 .934 0l1.203 2.732a.805.805 0 0 1 .021.049l.023.052h-.004Z"/><path fill="url(#paint29_linear_4002_3629)" d="M17.703 20.645a.717.717 0 0 1-.09.62c-.35.528-.95.873-1.62.873-.67 0-1.27-.345-1.63-.873a.723.723 0 0 1-.007-.797l1.17-2.656a.51.51 0 0 1 .934 0l1.203 2.732a.805.805 0 0 1 .021.049l.023.052h-.004Z"/></g><path fill="url(#paint30_radial_4002_3629)" d="M17.703 20.645a.717.717 0 0 1-.09.62c-.35.528-.95.873-1.62.873-.67 0-1.27-.345-1.63-.873a.723.723 0 0 1-.007-.797l1.17-2.656a.51.51 0 0 1 .934 0l1.203 2.732a.805.805 0 0 1 .021.049l.023.052h-.004Z"/><path fill="url(#paint31_linear_4002_3629)" d="M17.703 20.645a.717.717 0 0 1-.09.62c-.35.528-.95.873-1.62.873-.67 0-1.27-.345-1.63-.873a.723.723 0 0 1-.007-.797l1.17-2.656a.51.51 0 0 1 .934 0l1.203 2.732a.805.805 0 0 1 .021.049l.023.052h-.004Z"/><g filter="url(#filter14_i_4002_3629)"><path fill="#39242B" d="M18.847 13.138c-5.004-.844-8.81-3.94-8.81-8.81 0-1.21.98-2.19 2.18-2.19h5.81c5.52 0 10 4.48 10 10v3.72a3.25 3.25 0 0 0-1.883-1.154l.02-.555a.48.48 0 0 0-.413-.498c-.85-.113-1.976-.17-3.157-.232-1.28-.066-2.624-.135-3.747-.28Z"/><path fill="url(#paint32_radial_4002_3629)" d="M18.847 13.138c-5.004-.844-8.81-3.94-8.81-8.81 0-1.21.98-2.19 2.18-2.19h5.81c5.52 0 10 4.48 10 10v3.72a3.25 3.25 0 0 0-1.883-1.154l.02-.555a.48.48 0 0 0-.413-.498c-.85-.113-1.976-.17-3.157-.232-1.28-.066-2.624-.135-3.747-.28Z"/><path fill="url(#paint33_radial_4002_3629)" d="M18.847 13.138c-5.004-.844-8.81-3.94-8.81-8.81 0-1.21.98-2.19 2.18-2.19h5.81c5.52 0 10 4.48 10 10v3.72a3.25 3.25 0 0 0-1.883-1.154l.02-.555a.48.48 0 0 0-.413-.498c-.85-.113-1.976-.17-3.157-.232-1.28-.066-2.624-.135-3.747-.28Z"/></g><path fill="#fff" d="M20.795 16.247a3.105 3.105 0 0 1 3.012 2.353.61.61 0 0 1-.595.758h-4.96a.512.512 0 0 1-.506-.604 3.108 3.108 0 0 1 3.049-2.508Z"/><path fill="url(#paint34_radial_4002_3629)" d="M20.335 16.85a1.984 1.984 0 0 1 1.912 2.508h-3.833a2.033 2.033 0 0 1-.072-.523c0-1.091.893-1.984 1.993-1.984Z"/><path fill="#000" d="M19.198 18.835c0-.631.505-1.137 1.137-1.137.631 0 1.136.506 1.136 1.137 0 .19-.045.37-.126.523h-2.011a1.029 1.029 0 0 1-.136-.523Z"/><g filter="url(#filter15_f_4002_3629)"><path fill="#C7A7A3" d="M20.189 17.27c.141.19-.154.42-.49.671-.336.251-.585.428-.727.239-.141-.19.017-.546.353-.797.336-.252.723-.302.864-.113Z"/><path fill="url(#paint35_radial_4002_3629)" d="M20.189 17.27c.141.19-.154.42-.49.671-.336.251-.585.428-.727.239-.141-.19.017-.546.353-.797.336-.252.723-.302.864-.113Z"/></g><g filter="url(#filter16_f_4002_3629)"><path fill="url(#paint36_linear_4002_3629)" d="M22.102 18.574a1.868 1.868 0 0 0-.514-1.03l-.578.635.26.507.832-.112Z"/></g><path fill="#fff" d="M11.214 16.268a3.1 3.1 0 0 0-3.007 2.35.608.608 0 0 0 .594.756h4.951a.51.51 0 0 0 .504-.603 3.109 3.109 0 0 0-3.042-2.503Z"/><path fill="url(#paint37_radial_4002_3629)" d="M11.673 16.871a1.98 1.98 0 0 0-1.909 2.503h3.826a2.03 2.03 0 0 0 .072-.522 1.994 1.994 0 0 0-1.99-1.98Z"/><path fill="#000" d="M12.807 18.852a1.13 1.13 0 0 0-1.134-1.135 1.13 1.13 0 0 0-1.134 1.135c0 .189.045.369.126.522h2.007c.081-.153.135-.333.135-.522Z"/><g filter="url(#filter17_f_4002_3629)"><path fill="url(#paint38_linear_4002_3629)" d="M13.482 18.619c0-.64-.52-1.067-.661-1.196l-.64.62.394.801.907-.225Z"/></g><g filter="url(#filter18_f_4002_3629)" transform="rotate(-27.914 11.075 17.717)"><ellipse cx="11.075" cy="17.717" fill="#C7A7A3" fill-opacity=".9" rx=".865" ry=".438"/><ellipse cx="11.075" cy="17.717" fill="url(#paint39_radial_4002_3629)" rx=".865" ry=".438"/></g><g filter="url(#filter19_f_4002_3629)"><path fill="url(#paint40_radial_4002_3629)" d="M26.954 12.452c-10.844.833-15.319-4.411-15.319-9.439h6.205c7.291 0 9.114 6.293 9.114 9.439Z"/></g><g filter="url(#filter20_f_4002_3629)"><path stroke="url(#paint41_linear_4002_3629)" stroke-linecap="round" stroke-width=".4" d="M9.531 5.09c-1.323.43-4.075 2.176-4.5 5.719"/></g><defs><radialGradient id="paint1_radial_4002_3629" cx="0" cy="0" r="1" gradientTransform="matrix(-2.8125 0 0 -3.21299 6.39 17.575)" gradientUnits="userSpaceOnUse"><stop offset=".57" stop-color="#7B5158"/><stop offset="1" stop-color="#7B5158" stop-opacity="0"/></radialGradient><radialGradient id="paint2_radial_4002_3629" cx="0" cy="0" r="1" gradientTransform="matrix(3.5821 -2.8125 2.25578 2.87304 25.156 19.372)" gradientUnits="userSpaceOnUse"><stop offset=".573" stop-color="#855C5B"/><stop offset="1" stop-color="#926F66"/></radialGradient><radialGradient id="paint3_radial_4002_3629" cx="0" cy="0" r="1" gradientTransform="matrix(1.55854 -3.79687 3.25 1.33406 25.488 18.575)" gradientUnits="userSpaceOnUse"><stop offset=".826" stop-color="#6F4D3E" stop-opacity="0"/><stop offset="1" stop-color="#6F4D3E"/></radialGradient><radialGradient id="paint4_radial_4002_3629" cx="0" cy="0" r="1" gradientTransform="matrix(1.28566 -2.94636 2.29506 1.00146 25.488 19.137)" gradientUnits="userSpaceOnUse"><stop stop-color="#805953"/><stop offset="1" stop-color="#835E58"/></radialGradient><radialGradient id="paint5_radial_4002_3629" cx="0" cy="0" r="1" gradientTransform="translate(24.766 17.888) scale(2.89063)" gradientUnits="userSpaceOnUse"><stop offset=".733" stop-color="#6D443F" stop-opacity="0"/><stop offset="1" stop-color="#6D443F"/></radialGradient><radialGradient id="paint8_radial_4002_3629" cx="0" cy="0" r="1" gradientTransform="matrix(4.26564 3.39061 -.5845 .73535 24.656 23.355)" gradientUnits="userSpaceOnUse"><stop stop-color="#3C3B3B"/><stop offset="1" stop-color="#3C3B3B" stop-opacity="0"/></radialGradient><radialGradient id="paint9_radial_4002_3629" cx="0" cy="0" r="1" gradientTransform="matrix(-2.45313 .42188 -.09485 -.55156 30.25 25.965)" gradientUnits="userSpaceOnUse"><stop offset=".153" stop-color="#494949"/><stop offset="1" stop-color="#494949" stop-opacity="0"/></radialGradient><radialGradient id="paint10_radial_4002_3629" cx="0" cy="0" r="1" gradientTransform="matrix(2.40624 1.56251 -2.82657 4.35287 22.688 25.278)" gradientUnits="userSpaceOnUse"><stop stop-color="#09040C"/><stop offset="1" stop-color="#09040C" stop-opacity="0"/></radialGradient><radialGradient id="paint11_radial_4002_3629" cx="0" cy="0" r="1" gradientTransform="rotate(153.831 1.033 14.015) scale(2.37151 5.41349)" gradientUnits="userSpaceOnUse"><stop stop-color="#140F18"/><stop offset="1" stop-color="#140F18" stop-opacity="0"/></radialGradient><radialGradient id="paint13_radial_4002_3629" cx="0" cy="0" r="1" gradientTransform="rotate(125.925 6.11 14.578) scale(12.7554 13.3591)" gradientUnits="userSpaceOnUse"><stop offset=".103" stop-color="#996B5C"/><stop offset="1" stop-color="#744B4C"/></radialGradient><radialGradient id="paint14_radial_4002_3629" cx="0" cy="0" r="1" gradientTransform="rotate(94.77 2.02 15.257) scale(16.8709 15.8687)" gradientUnits="userSpaceOnUse"><stop offset=".71" stop-color="#7B406D" stop-opacity="0"/><stop offset="1" stop-color="#7B406D"/></radialGradient><radialGradient id="paint15_radial_4002_3629" cx="0" cy="0" r="1" gradientTransform="matrix(-16.6063 0 0 -17.8828 22.438 19.067)" gradientUnits="userSpaceOnUse"><stop offset=".875" stop-color="#815F57" stop-opacity="0"/><stop offset="1" stop-color="#815F57"/></radialGradient><radialGradient id="paint16_radial_4002_3629" cx="0" cy="0" r="1" gradientTransform="rotate(107.684 4.94 13.051) scale(4.5264 3.28459)" gradientUnits="userSpaceOnUse"><stop offset=".007" stop-color="#835A5C"/><stop offset="1" stop-color="#835A5C" stop-opacity="0"/></radialGradient><radialGradient id="paint17_radial_4002_3629" cx="0" cy="0" r="1" gradientTransform="matrix(-2.16825 0 0 -11.9901 26.163 19.067)" gradientUnits="userSpaceOnUse"><stop stop-color="#976D5E"/><stop offset="1" stop-color="#976D5E" stop-opacity="0"/></radialGradient><radialGradient id="paint18_radial_4002_3629" cx="0" cy="0" r="1" gradientTransform="matrix(0 -2.33392 3.24473 0 21.037 17.028)" gradientUnits="userSpaceOnUse"><stop offset=".375" stop-color="#865555"/><stop offset="1" stop-color="#865555" stop-opacity="0"/></radialGradient><radialGradient id="paint19_radial_4002_3629" cx="0" cy="0" r="1" gradientTransform="matrix(.409 -2.4288 2.5769 .43394 11.563 16.965)" gradientUnits="userSpaceOnUse"><stop offset=".146" stop-color="#70424D"/><stop offset="1" stop-color="#70424D" stop-opacity="0"/></radialGradient><radialGradient id="paint23_radial_4002_3629" cx="0" cy="0" r="1" gradientTransform="rotate(-176.074 5.228 4.546) scale(6.64718 11.0947)" gradientUnits="userSpaceOnUse"><stop offset=".412" stop-color="#2A181D"/><stop offset="1" stop-color="#534543"/></radialGradient><radialGradient id="paint24_radial_4002_3629" cx="0" cy="0" r="1" gradientTransform="rotate(110.487 1.755 7.56) scale(3.15794 .91085)" gradientUnits="userSpaceOnUse"><stop offset=".21" stop-color="#38252E"/><stop offset="1" stop-color="#38252E" stop-opacity="0"/></radialGradient><radialGradient id="paint26_radial_4002_3629" cx="0" cy="0" r="1" gradientTransform="matrix(-.8656 -3.55676 1.51165 -.36789 17.543 20.737)" gradientUnits="userSpaceOnUse"><stop stop-color="#9B7568"/><stop offset="1" stop-color="#9B7568" stop-opacity="0"/></radialGradient><radialGradient id="paint27_radial_4002_3629" cx="0" cy="0" r="1" gradientTransform="matrix(-2.125 0 0 -.35938 17.516 20.903)" gradientUnits="userSpaceOnUse"><stop offset=".36" stop-color="#9E7970"/><stop offset="1" stop-color="#9E7970" stop-opacity="0"/></radialGradient><radialGradient id="paint30_radial_4002_3629" cx="0" cy="0" r="1" gradientTransform="matrix(0 3.51563 -2.65432 0 15.988 18.918)" gradientUnits="userSpaceOnUse"><stop offset=".827" stop-color="#743A4E" stop-opacity="0"/><stop offset="1" stop-color="#743A4E"/></radialGradient><radialGradient id="paint32_radial_4002_3629" cx="0" cy="0" r="1" gradientTransform="matrix(0 4.94118 -10.2724 0 17.935 .468)" gradientUnits="userSpaceOnUse"><stop stop-color="#403035"/><stop offset="1" stop-color="#403035" stop-opacity="0"/></radialGradient><radialGradient id="paint33_radial_4002_3629" cx="0" cy="0" r="1" gradientTransform="matrix(-7.125 0 0 -7.6875 30.375 13.184)" gradientUnits="userSpaceOnUse"><stop stop-color="#565253"/><stop offset="1" stop-color="#565253" stop-opacity="0"/></radialGradient><radialGradient id="paint34_radial_4002_3629" cx="0" cy="0" r="1" gradientTransform="matrix(0 1.80382 -2.86918 0 20.33 17.911)" gradientUnits="userSpaceOnUse"><stop offset=".802" stop-color="#7D574A"/><stop offset="1" stop-color="#694B43"/><stop offset="1" stop-color="#804D49"/><stop offset="1" stop-color="#644945"/></radialGradient><radialGradient id="paint35_radial_4002_3629" cx="0" cy="0" r="1" gradientTransform="matrix(-.51563 -.66445 .9148 -.7099 19.823 18.098)" gradientUnits="userSpaceOnUse"><stop offset=".766" stop-color="#FFE6E2" stop-opacity="0"/><stop offset=".966" stop-color="#FFE6E2"/></radialGradient><radialGradient id="paint37_radial_4002_3629" cx="0" cy="0" r="1" gradientTransform="matrix(0 1.80042 -2.86377 0 11.677 17.93)" gradientUnits="userSpaceOnUse"><stop offset=".802" stop-color="#7D574A"/><stop offset="1" stop-color="#694B43"/><stop offset="1" stop-color="#804D49"/><stop offset="1" stop-color="#644945"/></radialGradient><radialGradient id="paint39_radial_4002_3629" cx="0" cy="0" r="1" gradientTransform="matrix(-.01717 -1.09638 1.31789 -.02063 11.042 18.416)" gradientUnits="userSpaceOnUse"><stop offset=".766" stop-color="#FFE6E2" stop-opacity="0"/><stop offset=".966" stop-color="#FFE6E2"/></radialGradient><radialGradient id="paint40_radial_4002_3629" cx="0" cy="0" r="1" gradientTransform="matrix(-9.1672 -5.8514 2.15611 -3.37791 22.356 12.04)" gradientUnits="userSpaceOnUse"><stop offset=".212" stop-color="#47373C"/><stop offset="1" stop-color="#47373C" stop-opacity="0"/></radialGradient><filter id="filter0_i_4002_3629" width="6.5" height="6.9" x="3.238" y="14.238" color-interpolation-filters="sRGB" filterUnits="userSpaceOnUse"><feFlood flood-opacity="0" result="BackgroundImageFix"/><feBlend in="SourceGraphic" in2="BackgroundImageFix" result="shape"/><feColorMatrix in="SourceAlpha" result="hardAlpha" values="0 0 0 0 0 0 0 0 0 0 0 0 0 0 0 0 0 0 127 0"/><feOffset dy="-.4"/><feGaussianBlur stdDeviation=".2"/><feComposite in2="hardAlpha" k2="-1" k3="1" operator="arithmetic"/><feColorMatrix values="0 0 0 0 0.368627 0 0 0 0 0.196078 0 0 0 0 0.239216 0 0 0 1 0"/><feBlend in2="shape" result="effect1_innerShadow_4002_3629"/></filter><filter id="filter1_i_4002_3629" width="6.7" height="6.75" x="22.238" y="14.388" color-interpolation-filters="sRGB" filterUnits="userSpaceOnUse"><feFlood flood-opacity="0" result="BackgroundImageFix"/><feBlend in="SourceGraphic" in2="BackgroundImageFix" result="shape"/><feColorMatrix in="SourceAlpha" result="hardAlpha" values="0 0 0 0 0 0 0 0 0 0 0 0 0 0 0 0 0 0 127 0"/><feOffset dx=".2" dy="-.25"/><feGaussianBlur stdDeviation=".25"/><feComposite in2="hardAlpha" k2="-1" k3="1" operator="arithmetic"/><feColorMatrix values="0 0 0 0 0.435294 0 0 0 0 0.258824 0 0 0 0 0.270588 0 0 0 1 0"/><feBlend in2="shape" result="effect1_innerShadow_4002_3629"/></filter><filter id="filter2_f_4002_3629" width="5.059" height="5.059" x="22.959" y="15.359" color-interpolation-filters="sRGB" filterUnits="userSpaceOnUse"><feFlood flood-opacity="0" result="BackgroundImageFix"/><feBlend in="SourceGraphic" in2="BackgroundImageFix" result="shape"/><feGaussianBlur result="effect1_foregroundBlur_4002_3629" stdDeviation=".25"/></filter><filter id="filter3_f_4002_3629" width="5.059" height="5.059" x="3.959" y="15.359" color-interpolation-filters="sRGB" filterUnits="userSpaceOnUse"><feFlood flood-opacity="0" result="BackgroundImageFix"/><feBlend in="SourceGraphic" in2="BackgroundImageFix" result="shape"/><feGaussianBlur result="effect1_foregroundBlur_4002_3629" stdDeviation=".25"/></filter><filter id="filter4_i_4002_3629" width="8.699" height="9.582" x="22.007" y="20.558" color-interpolation-filters="sRGB" filterUnits="userSpaceOnUse"><feFlood flood-opacity="0" result="BackgroundImageFix"/><feBlend in="SourceGraphic" in2="BackgroundImageFix" result="shape"/><feColorMatrix in="SourceAlpha" result="hardAlpha" values="0 0 0 0 0 0 0 0 0 0 0 0 0 0 0 0 0 0 127 0"/><feOffset dx=".65" dy="-.8"/><feGaussianBlur stdDeviation=".75"/><feComposite in2="hardAlpha" k2="-1" k3="1" operator="arithmetic"/><feColorMatrix values="0 0 0 0 0.113725 0 0 0 0 0.0666667 0 0 0 0 0.152941 0 0 0 1 0"/><feBlend in2="shape" result="effect1_innerShadow_4002_3629"/></filter><filter id="filter5_i_4002_3629" width="8.299" height="9.532" x="1.738" y="20.608" color-interpolation-filters="sRGB" filterUnits="userSpaceOnUse"><feFlood flood-opacity="0" result="BackgroundImageFix"/><feBlend in="SourceGraphic" in2="BackgroundImageFix" result="shape"/><feColorMatrix in="SourceAlpha" result="hardAlpha" values="0 0 0 0 0 0 0 0 0 0 0 0 0 0 0 0 0 0 127 0"/><feOffset dx="-.25" dy="-.75"/><feGaussianBlur stdDeviation=".5"/><feComposite in2="hardAlpha" k2="-1" k3="1" operator="arithmetic"/><feColorMatrix values="0 0 0 0 0.0941176 0 0 0 0 0.054902 0 0 0 0 0.12549 0 0 0 1 0"/><feBlend in2="shape" result="effect1_innerShadow_4002_3629"/></filter><filter id="filter6_i_4002_3629" width="20.332" height="22.543" x="5.831" y="7.996" color-interpolation-filters="sRGB" filterUnits="userSpaceOnUse"><feFlood flood-opacity="0" result="BackgroundImageFix"/><feBlend in="SourceGraphic" in2="BackgroundImageFix" result="shape"/><feColorMatrix in="SourceAlpha" result="hardAlpha" values="0 0 0 0 0 0 0 0 0 0 0 0 0 0 0 0 0 0 127 0"/><feOffset dy=".4"/><feGaussianBlur stdDeviation=".3"/><feComposite in2="hardAlpha" k2="-1" k3="1" operator="arithmetic"/><feColorMatrix values="0 0 0 0 0.415686 0 0 0 0 0.239216 0 0 0 0 0.254902 0 0 0 1 0"/><feBlend in2="shape" result="effect1_innerShadow_4002_3629"/></filter><filter id="filter7_i_4002_3629" width="3.73" height="1.554" x="9.049" y="13.225" color-interpolation-filters="sRGB" filterUnits="userSpaceOnUse"><feFlood flood-opacity="0" result="BackgroundImageFix"/><feBlend in="SourceGraphic" in2="BackgroundImageFix" result="shape"/><feColorMatrix in="SourceAlpha" result="hardAlpha" values="0 0 0 0 0 0 0 0 0 0 0 0 0 0 0 0 0 0 127 0"/><feOffset dx=".2" dy="-.2"/><feGaussianBlur stdDeviation=".1"/><feComposite in2="hardAlpha" k2="-1" k3="1" operator="arithmetic"/><feColorMatrix values="0 0 0 0 0.164706 0 0 0 0 0.0862745 0 0 0 0 0.117647 0 0 0 1 0"/><feBlend in2="shape" result="effect1_innerShadow_4002_3629"/></filter><filter id="filter8_f_4002_3629" width="3.93" height="1.754" x="8.849" y="13.225" color-interpolation-filters="sRGB" filterUnits="userSpaceOnUse"><feFlood flood-opacity="0" result="BackgroundImageFix"/><feBlend in="SourceGraphic" in2="BackgroundImageFix" result="shape"/><feGaussianBlur result="effect1_foregroundBlur_4002_3629" stdDeviation=".25"/></filter><filter id="filter9_i_4002_3629" width="3.77" height="1.592" x="19.358" y="13.206" color-interpolation-filters="sRGB" filterUnits="userSpaceOnUse"><feFlood flood-opacity="0" result="BackgroundImageFix"/><feBlend in="SourceGraphic" in2="BackgroundImageFix" result="shape"/><feColorMatrix in="SourceAlpha" result="hardAlpha" values="0 0 0 0 0 0 0 0 0 0 0 0 0 0 0 0 0 0 127 0"/><feOffset dx=".2" dy="-.2"/><feGaussianBlur stdDeviation=".1"/><feComposite in2="hardAlpha" k2="-1" k3="1" operator="arithmetic"/><feColorMatrix values="0 0 0 0 0.164706 0 0 0 0 0.0862745 0 0 0 0 0.117647 0 0 0 1 0"/><feBlend in2="shape" result="effect1_innerShadow_4002_3629"/></filter><filter id="filter10_f_4002_3629" width="3.97" height="1.792" x="19.158" y="13.206" color-interpolation-filters="sRGB" filterUnits="userSpaceOnUse"><feFlood flood-opacity="0" result="BackgroundImageFix"/><feBlend in="SourceGraphic" in2="BackgroundImageFix" result="shape"/><feGaussianBlur result="effect1_foregroundBlur_4002_3629" stdDeviation=".25"/></filter><filter id="filter11_i_4002_3629" width="7.56" height="12.119" x="3.517" y="3.638" color-interpolation-filters="sRGB" filterUnits="userSpaceOnUse"><feFlood flood-opacity="0" result="BackgroundImageFix"/><feBlend in="SourceGraphic" in2="BackgroundImageFix" result="shape"/><feColorMatrix in="SourceAlpha" result="hardAlpha" values="0 0 0 0 0 0 0 0 0 0 0 0 0 0 0 0 0 0 127 0"/><feOffset dx="-.5" dy="-.5"/><feGaussianBlur stdDeviation=".5"/><feComposite in2="hardAlpha" k2="-1" k3="1" operator="arithmetic"/><feColorMatrix values="0 0 0 0 0.133333 0 0 0 0 0.0588235 0 0 0 0 0.0823529 0 0 0 1 0"/><feBlend in2="shape" result="effect1_innerShadow_4002_3629"/></filter><filter id="filter12_f_4002_3629" width="4.815" height="5.893" x="13.262" y="17.347" color-interpolation-filters="sRGB" filterUnits="userSpaceOnUse"><feFlood flood-opacity="0" result="BackgroundImageFix"/><feBlend in="SourceGraphic" in2="BackgroundImageFix" result="shape"/><feGaussianBlur result="effect1_foregroundBlur_4002_3629" stdDeviation=".375"/></filter><filter id="filter13_f_4002_3629" width="3.997" height="5.131" x="13.99" y="17.257" color-interpolation-filters="sRGB" filterUnits="userSpaceOnUse"><feFlood flood-opacity="0" result="BackgroundImageFix"/><feBlend in="SourceGraphic" in2="BackgroundImageFix" result="shape"/><feGaussianBlur result="effect1_foregroundBlur_4002_3629" stdDeviation=".125"/></filter><filter id="filter14_i_4002_3629" width="18.74" height="14.471" x="10.037" y="1.388" color-interpolation-filters="sRGB" filterUnits="userSpaceOnUse"><feFlood flood-opacity="0" result="BackgroundImageFix"/><feBlend in="SourceGraphic" in2="BackgroundImageFix" result="shape"/><feColorMatrix in="SourceAlpha" result="hardAlpha" values="0 0 0 0 0 0 0 0 0 0 0 0 0 0 0 0 0 0 127 0"/><feOffset dx=".75" dy="-.75"/><feGaussianBlur stdDeviation=".625"/><feComposite in2="hardAlpha" k2="-1" k3="1" operator="arithmetic"/><feColorMatrix values="0 0 0 0 0.137255 0 0 0 0 0.0431373 0 0 0 0 0.113725 0 0 0 1 0"/><feBlend in2="shape" result="effect1_innerShadow_4002_3629"/></filter><filter id="filter15_f_4002_3629" width="1.505" height="1.303" x="18.82" y="17.056" color-interpolation-filters="sRGB" filterUnits="userSpaceOnUse"><feFlood flood-opacity="0" result="BackgroundImageFix"/><feBlend in="SourceGraphic" in2="BackgroundImageFix" result="shape"/><feGaussianBlur result="effect1_foregroundBlur_4002_3629" stdDeviation=".05"/></filter><filter id="filter16_f_4002_3629" width="1.492" height="1.541" x="20.81" y="17.345" color-interpolation-filters="sRGB" filterUnits="userSpaceOnUse"><feFlood flood-opacity="0" result="BackgroundImageFix"/><feBlend in="SourceGraphic" in2="BackgroundImageFix" result="shape"/><feGaussianBlur result="effect1_foregroundBlur_4002_3629" stdDeviation=".1"/></filter><filter id="filter17_f_4002_3629" width="1.701" height="1.821" x="11.981" y="17.223" color-interpolation-filters="sRGB" filterUnits="userSpaceOnUse"><feFlood flood-opacity="0" result="BackgroundImageFix"/><feBlend in="SourceGraphic" in2="BackgroundImageFix" result="shape"/><feGaussianBlur result="effect1_foregroundBlur_4002_3629" stdDeviation=".1"/></filter><filter id="filter18_f_4002_3629" width="1.782" height="1.32" x="10.184" y="17.058" color-interpolation-filters="sRGB" filterUnits="userSpaceOnUse"><feFlood flood-opacity="0" result="BackgroundImageFix"/><feBlend in="SourceGraphic" in2="BackgroundImageFix" result="shape"/><feGaussianBlur result="effect1_foregroundBlur_4002_3629" stdDeviation=".05"/></filter><filter id="filter19_f_4002_3629" width="19.318" height="13.526" x="9.635" y="1.013" color-interpolation-filters="sRGB" filterUnits="userSpaceOnUse"><feFlood flood-opacity="0" result="BackgroundImageFix"/><feBlend in="SourceGraphic" in2="BackgroundImageFix" result="shape"/><feGaussianBlur result="effect1_foregroundBlur_4002_3629" stdDeviation="1"/></filter><filter id="filter20_f_4002_3629" width="6.4" height="7.619" x="4.081" y="4.14" color-interpolation-filters="sRGB" filterUnits="userSpaceOnUse"><feFlood flood-opacity="0" result="BackgroundImageFix"/><feBlend in="SourceGraphic" in2="BackgroundImageFix" result="shape"/><feGaussianBlur result="effect1_foregroundBlur_4002_3629" stdDeviation=".375"/></filter><linearGradient id="paint0_linear_4002_3629" x1="4.172" x2="6.715" y1="18.849" y2="18.849" gradientUnits="userSpaceOnUse"><stop stop-color="#674245"/><stop offset="1" stop-color="#502F29"/></linearGradient><linearGradient id="paint6_linear_4002_3629" x1="6.488" x2="4.844" y1="17.497" y2="17.497" gradientUnits="userSpaceOnUse"><stop stop-color="#553336"/><stop offset="1" stop-color="#5C353D"/></linearGradient><linearGradient id="paint7_linear_4002_3629" x1="27.922" x2="26.86" y1="24.247" y2="25.888" gradientUnits="userSpaceOnUse"><stop stop-color="#323131"/><stop offset="1" stop-color="#323131" stop-opacity="0"/></linearGradient><linearGradient id="paint12_linear_4002_3629" x1="3.985" x2="4.985" y1="23.919" y2="25.357" gradientUnits="userSpaceOnUse"><stop stop-color="#3C3A3A"/><stop offset="1" stop-color="#3C3A3A" stop-opacity="0"/></linearGradient><linearGradient id="paint20_linear_4002_3629" x1="13.922" x2="14.406" y1="24.7" y2="23.937" gradientUnits="userSpaceOnUse"><stop stop-color="#886267"/><stop offset="1" stop-color="#886267" stop-opacity="0"/></linearGradient><linearGradient id="paint21_linear_4002_3629" x1="12.029" x2="9.383" y1="14.229" y2="14.229" gradientUnits="userSpaceOnUse"><stop stop-color="#44393A"/><stop offset="1" stop-color="#44393A" stop-opacity="0"/></linearGradient><linearGradient id="paint22_linear_4002_3629" x1="22.378" x2="19.688" y1="14.248" y2="14.248" gradientUnits="userSpaceOnUse"><stop stop-color="#44393A"/><stop offset="1" stop-color="#44393A" stop-opacity="0"/></linearGradient><linearGradient id="paint25_linear_4002_3629" x1="14.329" x2="17.817" y1="21.907" y2="20.116" gradientUnits="userSpaceOnUse"><stop offset=".274" stop-color="#6F3C4B"/><stop offset="1" stop-color="#996F61"/></linearGradient><linearGradient id="paint28_linear_4002_3629" x1="14.08" x2="15.481" y1="20.265" y2="20.328" gradientUnits="userSpaceOnUse"><stop stop-color="#734B42"/><stop offset="1" stop-color="#734B42" stop-opacity="0"/></linearGradient><linearGradient id="paint29_linear_4002_3629" x1="15.812" x2="15.812" y1="22.138" y2="20.674" gradientUnits="userSpaceOnUse"><stop stop-color="#7A415B"/><stop offset="1" stop-color="#7A415B" stop-opacity="0"/></linearGradient><linearGradient id="paint31_linear_4002_3629" x1="14.875" x2="14" y1="20.028" y2="19.822" gradientUnits="userSpaceOnUse"><stop stop-color="#743A4E" stop-opacity="0"/><stop offset=".898" stop-color="#743A4E"/></linearGradient><linearGradient id="paint36_linear_4002_3629" x1="22.06" x2="21.362" y1="18.031" y2="18.461" gradientUnits="userSpaceOnUse"><stop stop-color="#B4948D"/><stop offset="1" stop-color="#B4948D" stop-opacity="0"/></linearGradient><linearGradient id="paint38_linear_4002_3629" x1="13.328" x2="12.632" y1="18.049" y2="18.478" gradientUnits="userSpaceOnUse"><stop stop-color="#B4948D"/><stop offset="1" stop-color="#B4948D" stop-opacity="0"/></linearGradient><linearGradient id="paint41_linear_4002_3629" x1="9.219" x2="5.398" y1="5.325" y2="11.675" gradientUnits="userSpaceOnUse"><stop stop-color="#474042"/><stop offset="1" stop-color="#474042" stop-opacity="0"/></linearGradient></defs></svg>