<svg xmlns="http://www.w3.org/2000/svg" width="32" height="32" fill="none" viewBox="0 0 32 32"><path fill="url(#paint0_linear_18_6336)" d="M3 10.985v-.97l13-8 13 8v.97H3Z"/><path fill="url(#paint1_linear_18_6336)" d="M3 10.985v-.97l13-8 13 8v.97H3Z"/><path fill="url(#paint2_linear_18_6336)" d="M3 10.985v-.97l13-8 13 8v.97H3Z"/><path fill="url(#paint3_radial_18_6336)" d="M3 10.985v-.97l13-8 13 8v.97H3Z"/><path fill="url(#paint4_linear_18_6336)" d="M3 10.985v-.97l13-8 13 8v.97H3Z"/><g filter="url(#filter0_i_18_6336)"><path fill="url(#paint5_linear_18_6336)" d="m3.83 9.145 10.79-6.74c.84-.53 1.92-.53 2.76 0l10.79 6.74v1.89l-11.5-7.14c-.41-.25-.92-.25-1.33 0l-11.5 7.14v-1.89h-.01Z"/><path fill="url(#paint6_linear_18_6336)" d="m3.83 9.145 10.79-6.74c.84-.53 1.92-.53 2.76 0l10.79 6.74v1.89l-11.5-7.14c-.41-.25-.92-.25-1.33 0l-11.5 7.14v-1.89h-.01Z"/><path fill="url(#paint7_radial_18_6336)" d="m3.83 9.145 10.79-6.74c.84-.53 1.92-.53 2.76 0l10.79 6.74v1.89l-11.5-7.14c-.41-.25-.92-.25-1.33 0l-11.5 7.14v-1.89h-.01Z"/><path fill="url(#paint8_radial_18_6336)" d="m3.83 9.145 10.79-6.74c.84-.53 1.92-.53 2.76 0l10.79 6.74v1.89l-11.5-7.14c-.41-.25-.92-.25-1.33 0l-11.5 7.14v-1.89h-.01Z"/></g><g filter="url(#filter1_f_18_6336)"><path stroke="url(#paint9_linear_18_6336)" stroke-linecap="round" stroke-width=".5" d="m4.856 9.299 6.49-3.946"/></g><g filter="url(#filter2_f_18_6336)"><path stroke="url(#paint10_linear_18_6336)" stroke-linecap="round" stroke-width=".5" d="m16.695 2.568 9.736 6.03"/></g><path fill="#96919E" d="M26 10.035H6v17h20v-17Z"/><path fill="url(#paint11_linear_18_6336)" d="M26 10.035H6v17h20v-17Z"/><path fill="url(#paint12_linear_18_6336)" d="M26 10.035H6v17h20v-17Z"/><path fill="url(#paint13_linear_18_6336)" d="M26 10.035H6v17h20v-17Z"/><path fill="url(#paint14_linear_18_6336)" d="M28 13.699h-3v13.313h3V13.699Z"/><path fill="url(#paint15_linear_18_6336)" d="M28 13.699h-3v13.313h3V13.699Z"/><path fill="url(#paint16_linear_18_6336)" d="M28 13.699h-3v13.313h3V13.699Z"/><path fill="url(#paint17_radial_18_6336)" d="M28 13.699h-3v13.313h3V13.699Z"/><path fill="url(#paint18_linear_18_6336)" d="M24 13.722h-3v13.313h3V13.722Z"/><path fill="url(#paint19_linear_18_6336)" d="M24 13.722h-3v13.313h3V13.722Z"/><path fill="url(#paint20_linear_18_6336)" d="M24 13.722h-3v13.313h3V13.722Z"/><path fill="url(#paint21_radial_18_6336)" d="M24 13.722h-3v13.313h3V13.722Z"/><path fill="url(#paint22_linear_18_6336)" d="M11 13.722H8v13.086h3V13.722Z"/><path fill="url(#paint23_linear_18_6336)" d="M11 13.722H8v13.086h3V13.722Z"/><path fill="url(#paint24_linear_18_6336)" d="M11 13.722H8v13.086h3V13.722Z"/><path fill="url(#paint25_linear_18_6336)" d="M11 13.722H8v13.086h3V13.722Z"/><path fill="url(#paint26_radial_18_6336)" d="M11 13.722H8v13.086h3V13.722Z"/><path fill="url(#paint27_linear_18_6336)" d="M7 13.722H4v13.086h3V13.722Z"/><path fill="url(#paint28_linear_18_6336)" d="M7 13.722H4v13.086h3V13.722Z"/><path fill="url(#paint29_linear_18_6336)" d="M7 13.722H4v13.086h3V13.722Z"/><path fill="url(#paint30_radial_18_6336)" d="M7 13.722H4v13.086h3V13.722Z"/><path fill="url(#paint31_linear_18_6336)" d="M28.999 13.699v-2.67h-26v2.67h26Z"/><path fill="url(#paint32_linear_18_6336)" d="M28.999 13.699v-2.67h-26v2.67h26Z"/><path fill="url(#paint33_linear_18_6336)" d="M28.999 13.699v-2.67h-26v2.67h26Z"/><path fill="url(#paint34_radial_18_6336)" d="M28.999 13.699v-2.67h-26v2.67h26Z"/><path fill="url(#paint35_linear_18_6336)" d="M28.999 13.699v-2.67h-26v2.67h26Z"/><path fill="url(#paint36_linear_18_6336)" d="M28.999 13.699v-2.67h-26v2.67h26Z"/><path fill="url(#paint37_linear_18_6336)" d="M2 10.035c0-.55.45-1 1-1h26c.55 0 1 .45 1 1s-.45 1-1 1H3c-.55 0-1-.45-1-1Z"/><path fill="url(#paint38_linear_18_6336)" d="M2 10.035c0-.55.45-1 1-1h26c.55 0 1 .45 1 1s-.45 1-1 1H3c-.55 0-1-.45-1-1Z"/><path fill="url(#paint39_linear_18_6336)" d="M2 10.035c0-.55.45-1 1-1h26c.55 0 1 .45 1 1s-.45 1-1 1H3c-.55 0-1-.45-1-1Z"/><path fill="url(#paint40_linear_18_6336)" d="M2 10.035c0-.55.45-1 1-1h26c.55 0 1 .45 1 1s-.45 1-1 1H3c-.55 0-1-.45-1-1Z"/><path fill="url(#paint41_radial_18_6336)" d="M2 10.035c0-.55.45-1 1-1h26c.55 0 1 .45 1 1s-.45 1-1 1H3c-.55 0-1-.45-1-1Z"/><path fill="url(#paint42_radial_18_6336)" d="M2 10.035c0-.55.45-1 1-1h26c.55 0 1 .45 1 1s-.45 1-1 1H3c-.55 0-1-.45-1-1Z"/><path fill="url(#paint43_radial_18_6336)" d="M2 10.035c0-.55.45-1 1-1h26c.55 0 1 .45 1 1s-.45 1-1 1H3c-.55 0-1-.45-1-1Z"/><g filter="url(#filter3_i_18_6336)"><path fill="url(#paint44_linear_18_6336)" d="M2 14.035c0-.55.45-1 1-1h26c.55 0 1 .45 1 1s-.45 1-1 1H3c-.55 0-1-.45-1-1Z"/><path fill="url(#paint45_linear_18_6336)" d="M2 14.035c0-.55.45-1 1-1h26c.55 0 1 .45 1 1s-.45 1-1 1H3c-.55 0-1-.45-1-1Z"/><path fill="url(#paint46_linear_18_6336)" d="M2 14.035c0-.55.45-1 1-1h26c.55 0 1 .45 1 1s-.45 1-1 1H3c-.55 0-1-.45-1-1Z"/></g><path fill="url(#paint47_radial_18_6336)" d="M2 14.035c0-.55.45-1 1-1h26c.55 0 1 .45 1 1s-.45 1-1 1H3c-.55 0-1-.45-1-1Z"/><path fill="url(#paint48_radial_18_6336)" d="M2 14.035c0-.55.45-1 1-1h26c.55 0 1 .45 1 1s-.45 1-1 1H3c-.55 0-1-.45-1-1Z"/><path fill="url(#paint49_linear_18_6336)" d="M30 29.035H2v-.93c0-.59.48-1.07 1.07-1.07h25.85c.59 0 1.07.48 1.07 1.07v.93H30Z"/><path fill="url(#paint50_linear_18_6336)" d="M30 29.035H2v-.93c0-.59.48-1.07 1.07-1.07h25.85c.59 0 1.07.48 1.07 1.07v.93H30Z"/><path fill="url(#paint51_linear_18_6336)" d="M30 29.035H2v-.93c0-.59.48-1.07 1.07-1.07h25.85c.59 0 1.07.48 1.07 1.07v.93H30Z"/><path fill="url(#paint52_linear_18_6336)" d="M30 29.035H2v-.93c0-.59.48-1.07 1.07-1.07h25.85c.59 0 1.07.48 1.07 1.07v.93H30Z"/><g filter="url(#filter4_i_18_6336)"><path fill="#4B4258" d="M19 25.035h-6v-6.37c0-.35.28-.63.63-.63h4.73c.35 0 .64.29.64.64v6.36Z"/><path fill="url(#paint53_linear_18_6336)" d="M19 25.035h-6v-6.37c0-.35.28-.63.63-.63h4.73c.35 0 .64.29.64.64v6.36Z"/></g><g filter="url(#filter5_ii_18_6336)"><path fill="#B2ABB9" d="M15.98 13.035a5.01 5.01 0 1 0 0-10.02 5.01 5.01 0 0 0 0 10.02Z"/><path fill="url(#paint54_radial_18_6336)" d="M15.98 13.035a5.01 5.01 0 1 0 0-10.02 5.01 5.01 0 0 0 0 10.02Z"/></g><g filter="url(#filter6_f_18_6336)"><path fill="#6A6177" d="M17.28 8.956c0 .25-.079.47-.229.659-.14.18-.329.32-.559.41a.633.633 0 0 1-.18.059v.579c0 .24-.23.439-.48.439-.25 0-.487-.2-.487-.44v-.538a1.62 1.62 0 0 1-.43-.12c-.279-.1-.508-.28-.688-.519a.44.44 0 0 1-.08-.28c0-.159.07-.289.22-.399.21-.13.439-.1.628.09.11.12.23.21.35.27.01.01.03.01.04.02.14.06.309.1.499.1.429-.02.429-.22.429-.3 0-.09-.04-.16-.13-.21-.11-.06-.3-.13-.539-.19a4.902 4.902 0 0 1-.3-.089c-.14-.05-.269-.09-.369-.14-.19-.08-.349-.2-.479-.369-.14-.17-.21-.39-.21-.669 0-.25.07-.459.22-.648.13-.18.31-.31.54-.41.099-.04.199-.08.299-.1v-.598c0-.24.218-.45.467-.45.25 0 .5.21.5.45v.639c.06.01.11.03.17.05.25.1.46.239.6.429.08.09.11.2.11.309 0 .14-.05.26-.17.35a.47.47 0 0 1-.62-.03.646.646 0 0 0-.09-.08.532.532 0 0 0-.199-.13.84.84 0 0 0-.4-.08c-.219 0-.318.05-.368.11-.04.05-.04.11-.04.15 0 .05.01.1.04.14 0 .01.01.02.02.03.06.049.12.089.21.119.089.03.229.07.408.12.12.04.23.07.33.1.12.04.22.08.31.12.179.09.338.209.458.378.13.17.2.39.2.67Z"/></g><g filter="url(#filter7_i_18_6336)"><path fill="#734B9B" d="M17.44 8.875c0 .25-.08.47-.23.66a1.3 1.3 0 0 1-.56.41c-.06.03-.12.05-.18.06v.58c0 .24-.232.44-.482.44-.25 0-.488-.2-.488-.44v-.54a1.62 1.62 0 0 1-.43-.12c-.28-.1-.51-.28-.69-.52a.44.44 0 0 1-.08-.28c0-.16.07-.29.22-.4.21-.13.44-.1.63.09.11.12.23.21.35.27.01.01.03.01.04.02.14.06.31.1.5.1.43-.02.43-.22.43-.3 0-.09-.04-.16-.13-.21-.11-.06-.3-.13-.54-.19a5.68 5.68 0 0 1-.3-.09c-.14-.05-.27-.09-.37-.14-.19-.08-.35-.2-.48-.37-.14-.17-.21-.39-.21-.67 0-.25.07-.46.22-.65.13-.18.31-.31.54-.41.1-.04.2-.08.3-.1v-.6c0-.24.219-.45.469-.45.25 0 .501.21.501.45v.64c.06.01.11.03.17.05.25.1.46.24.6.43.08.09.11.2.11.31 0 .14-.05.26-.17.35-.18.15-.46.13-.62-.03a.647.647 0 0 0-.09-.08.532.532 0 0 0-.2-.13.842.842 0 0 0-.4-.08c-.22 0-.32.05-.37.11-.04.05-.04.11-.04.15 0 .05.01.1.04.14 0 .01.01.02.02.03.06.05.12.09.21.12s.23.07.41.12c.12.04.23.07.33.1.12.04.22.08.31.12.18.09.34.21.46.38.13.17.2.39.2.67Z"/></g><g filter="url(#filter8_f_18_6336)"><path stroke="#8E66B8" stroke-linecap="round" stroke-width=".15" d="M16.922 6.86c-.255-.23-.719-.579-1.39-.384-.721.21-.696 1.14-.079 1.352 1 .344 1.469.289 1.563.898.093.61-.493.852-1.07.805-.507-.041-.982-.378-1.118-.555"/></g><g filter="url(#filter9_f_18_6336)"><path stroke="#8E66B8" stroke-linecap="round" stroke-width=".15" d="M16.163 5.376V6.5"/></g><g filter="url(#filter10_f_18_6336)"><path stroke="#8E66B8" stroke-linecap="round" stroke-width=".15" d="M16.131 9.592v.968"/></g><g filter="url(#filter11_f_18_6336)"><path fill="url(#paint55_linear_18_6336)" d="M5.679 15.035h.832v10.509h-.832z"/></g><g filter="url(#filter12_f_18_6336)"><path fill="url(#paint56_linear_18_6336)" d="M22.5 15.035h.832v10.509H22.5z"/></g><g filter="url(#filter13_f_18_6336)"><path fill="url(#paint57_linear_18_6336)" d="M9.584 15.035h.832v10.509h-.832z"/></g><path fill="url(#paint58_linear_18_6336)" d="M29 27.035H2.97v-.93c0-.59.48-1.07 1.07-1.07h23.89c.59 0 1.07.48 1.07 1.07v.93Z"/><path fill="url(#paint59_linear_18_6336)" d="M29 27.035H2.97v-.93c0-.59.48-1.07 1.07-1.07h23.89c.59 0 1.07.48 1.07 1.07v.93Z"/><path fill="url(#paint60_linear_18_6336)" d="M29 27.035H2.97v-.93c0-.59.48-1.07 1.07-1.07h23.89c.59 0 1.07.48 1.07 1.07v.93Z"/><path fill="url(#paint61_linear_18_6336)" d="M29 27.035H2.97v-.93c0-.59.48-1.07 1.07-1.07h23.89c.59 0 1.07.48 1.07 1.07v.93Z"/><path fill="url(#paint62_linear_18_6336)" d="M29 27.035H2.97v-.93c0-.59.48-1.07 1.07-1.07h23.89c.59 0 1.07.48 1.07 1.07v.93Z"/><defs><linearGradient id="paint0_linear_18_6336" x1="22.313" x2="9.5" y1="8.258" y2="8.258" gradientUnits="userSpaceOnUse"><stop stop-color="#9E98A4"/><stop offset="1" stop-color="#847E89"/></linearGradient><linearGradient id="paint1_linear_18_6336" x1="21.963" x2="21.497" y1="6.784" y2="7.531" gradientUnits="userSpaceOnUse"><stop offset=".161" stop-color="#56525D"/><stop offset="1" stop-color="#56525D" stop-opacity="0"/></linearGradient><linearGradient id="paint2_linear_18_6336" x1="10.25" x2="10.586" y1="6.643" y2="7.206" gradientUnits="userSpaceOnUse"><stop offset=".458" stop-color="#56525D"/><stop offset="1" stop-color="#56525D" stop-opacity="0"/></linearGradient><linearGradient id="paint4_linear_18_6336" x1="18.724" x2="18.724" y1="9.74" y2="8.847" gradientUnits="userSpaceOnUse"><stop stop-color="#6D6870"/><stop offset="1" stop-color="#6D6870" stop-opacity="0"/></linearGradient><linearGradient id="paint5_linear_18_6336" x1="6.474" x2="28.435" y1="6.521" y2="6.521" gradientUnits="userSpaceOnUse"><stop stop-color="#A7A0AB"/><stop offset="1" stop-color="#A9A2B2"/></linearGradient><linearGradient id="paint6_linear_18_6336" x1="22.725" x2="22.064" y1="5.613" y2="6.675" gradientUnits="userSpaceOnUse"><stop stop-color="#DBD2E0"/><stop offset="1" stop-color="#DBD2E0" stop-opacity="0"/></linearGradient><linearGradient id="paint9_linear_18_6336" x1="4.856" x2="11.557" y1="9.299" y2="4.969" gradientUnits="userSpaceOnUse"><stop stop-color="#B2AAB8"/><stop offset="1" stop-color="#B2AAB8" stop-opacity="0"/></linearGradient><linearGradient id="paint10_linear_18_6336" x1="16.695" x2="26.692" y1="2.568" y2="8.958" gradientUnits="userSpaceOnUse"><stop stop-color="#DDD3E1" stop-opacity="0"/><stop offset=".18" stop-color="#DDD3E1"/><stop offset=".822" stop-color="#DDD3E1"/><stop offset="1" stop-color="#DDD3E1" stop-opacity="0"/></linearGradient><linearGradient id="paint11_linear_18_6336" x1="23.625" x2="19.438" y1="22.945" y2="22.945" gradientUnits="userSpaceOnUse"><stop offset=".417" stop-color="#56525D"/><stop offset="1" stop-color="#55505C" stop-opacity="0"/></linearGradient><linearGradient id="paint12_linear_18_6336" x1="7.094" x2="11.604" y1="22.945" y2="22.945" gradientUnits="userSpaceOnUse"><stop stop-color="#4B4750"/><stop offset="1" stop-color="#4B4750" stop-opacity="0"/></linearGradient><linearGradient id="paint13_linear_18_6336" x1="19.438" x2="19.438" y1="14.57" y2="17.133" gradientUnits="userSpaceOnUse"><stop stop-color="#645A6D"/><stop offset="1" stop-color="#645A6D" stop-opacity="0"/></linearGradient><linearGradient id="paint14_linear_18_6336" x1="25" x2="27.625" y1="20.353" y2="20.353" gradientUnits="userSpaceOnUse"><stop stop-color="#726C75"/><stop offset="1" stop-color="#BFB7C6"/></linearGradient><linearGradient id="paint15_linear_18_6336" x1="24.659" x2="25.987" y1="19.772" y2="19.772" gradientUnits="userSpaceOnUse"><stop stop-color="#76727B"/><stop offset="1" stop-color="#76727B" stop-opacity="0"/></linearGradient><linearGradient id="paint16_linear_18_6336" x1="28.351" x2="26.5" y1="19.433" y2="19.433" gradientUnits="userSpaceOnUse"><stop stop-color="#E4DBEA"/><stop offset="1" stop-color="#E4DBEA" stop-opacity="0"/></linearGradient><linearGradient id="paint18_linear_18_6336" x1="21" x2="23.625" y1="20.376" y2="20.376" gradientUnits="userSpaceOnUse"><stop stop-color="#8C8693"/><stop offset="1" stop-color="#9E99A5"/></linearGradient><linearGradient id="paint19_linear_18_6336" x1="20.659" x2="21.987" y1="19.796" y2="19.796" gradientUnits="userSpaceOnUse"><stop stop-color="#76727B"/><stop offset="1" stop-color="#76727B" stop-opacity="0"/></linearGradient><linearGradient id="paint20_linear_18_6336" x1="24.351" x2="23.314" y1="19.457" y2="19.457" gradientUnits="userSpaceOnUse"><stop stop-color="#A09AA5"/><stop offset="1" stop-color="#A09AA5" stop-opacity="0"/></linearGradient><linearGradient id="paint22_linear_18_6336" x1="6.831" x2="9.831" y1="20.263" y2="20.263" gradientUnits="userSpaceOnUse"><stop stop-color="#9B9B9B"/><stop offset="1" stop-color="#D3D3D3"/></linearGradient><linearGradient id="paint23_linear_18_6336" x1="8" x2="10.625" y1="20.263" y2="20.263" gradientUnits="userSpaceOnUse"><stop stop-color="#79747E"/><stop offset="1" stop-color="#A09BA7"/></linearGradient><linearGradient id="paint24_linear_18_6336" x1="7.658" x2="8.987" y1="19.692" y2="19.692" gradientUnits="userSpaceOnUse"><stop stop-color="#76727B"/><stop offset="1" stop-color="#76727B" stop-opacity="0"/></linearGradient><linearGradient id="paint25_linear_18_6336" x1="11.351" x2="9.925" y1="19.359" y2="19.359" gradientUnits="userSpaceOnUse"><stop stop-color="#B8B1BF"/><stop offset="1" stop-color="#B8B1BF" stop-opacity="0"/></linearGradient><linearGradient id="paint27_linear_18_6336" x1="4" x2="6.625" y1="20.263" y2="20.263" gradientUnits="userSpaceOnUse"><stop stop-color="#8C8693"/><stop offset="1" stop-color="#9E99A5"/></linearGradient><linearGradient id="paint28_linear_18_6336" x1="3.658" x2="4.987" y1="19.692" y2="19.692" gradientUnits="userSpaceOnUse"><stop stop-color="#76727B"/><stop offset="1" stop-color="#76727B" stop-opacity="0"/></linearGradient><linearGradient id="paint29_linear_18_6336" x1="7.351" x2="6.314" y1="19.359" y2="19.359" gradientUnits="userSpaceOnUse"><stop stop-color="#A09AA5"/><stop offset="1" stop-color="#A09AA5" stop-opacity="0"/></linearGradient><linearGradient id="paint31_linear_18_6336" x1="6.258" x2="28.999" y1="11.946" y2="11.946" gradientUnits="userSpaceOnUse"><stop stop-color="#A59FAC"/><stop offset="1" stop-color="#AFA8B6"/></linearGradient><linearGradient id="paint32_linear_18_6336" x1="15.999" x2="15.999" y1="11.029" y2="11.442" gradientUnits="userSpaceOnUse"><stop stop-color="#676071"/><stop offset="1" stop-color="#676071" stop-opacity="0"/></linearGradient><linearGradient id="paint33_linear_18_6336" x1="2.783" x2="4.262" y1="12.115" y2="12.115" gradientUnits="userSpaceOnUse"><stop stop-color="#7E7881"/><stop offset="1" stop-color="#7E7881" stop-opacity="0"/></linearGradient><linearGradient id="paint35_linear_18_6336" x1="18.688" x2="18.688" y1="13.699" y2="12.792" gradientUnits="userSpaceOnUse"><stop stop-color="#5D5A61"/><stop offset="1" stop-color="#5D5A61" stop-opacity="0"/></linearGradient><linearGradient id="paint36_linear_18_6336" x1="28.999" x2="28.179" y1="12.364" y2="12.364" gradientUnits="userSpaceOnUse"><stop stop-color="#DBD2E1"/><stop offset="1" stop-color="#DBD2E1" stop-opacity="0"/></linearGradient><linearGradient id="paint37_linear_18_6336" x1="15.998" x2="15.998" y1="9.033" y2="11.035" gradientUnits="userSpaceOnUse"><stop stop-color="#C9C0CE"/><stop offset="1" stop-color="#A09AAC"/></linearGradient><linearGradient id="paint38_linear_18_6336" x1="4.938" x2="16" y1="11.035" y2="11.035" gradientUnits="userSpaceOnUse"><stop stop-color="#B0A8B4"/><stop offset="1" stop-color="#B0A8B4" stop-opacity="0"/></linearGradient><linearGradient id="paint39_linear_18_6336" x1="14.844" x2="14.844" y1="11.289" y2="10.035" gradientUnits="userSpaceOnUse"><stop stop-color="#7C7586"/><stop offset="1" stop-color="#7C7586" stop-opacity="0"/></linearGradient><linearGradient id="paint40_linear_18_6336" x1="2" x2="3.234" y1="10.035" y2="10.035" gradientUnits="userSpaceOnUse"><stop stop-color="#7C7586"/><stop offset="1" stop-color="#7C7586" stop-opacity="0"/></linearGradient><linearGradient id="paint44_linear_18_6336" x1="15.998" x2="15.998" y1="13.033" y2="15.035" gradientUnits="userSpaceOnUse"><stop stop-color="#C8C0CE"/><stop offset="1" stop-color="#948B9F"/></linearGradient><linearGradient id="paint45_linear_18_6336" x1="1.682" x2="3.055" y1="15.035" y2="15.035" gradientUnits="userSpaceOnUse"><stop stop-color="#79747E"/><stop offset="1" stop-color="#79747E" stop-opacity="0"/></linearGradient><linearGradient id="paint46_linear_18_6336" x1="14.826" x2="14.826" y1="15.633" y2="14.32" gradientUnits="userSpaceOnUse"><stop stop-color="#787182"/><stop offset="1" stop-color="#787182" stop-opacity="0"/></linearGradient><linearGradient id="paint49_linear_18_6336" x1="14.836" x2="14.836" y1="27.035" y2="29.035" gradientUnits="userSpaceOnUse"><stop stop-color="#C0B9C6"/><stop offset="1" stop-color="#BFB8C7"/></linearGradient><linearGradient id="paint50_linear_18_6336" x1="16" x2="16" y1="26.612" y2="28.305" gradientUnits="userSpaceOnUse"><stop offset=".708" stop-color="#CBC3D2"/><stop offset="1" stop-color="#CBC3D2" stop-opacity="0"/></linearGradient><linearGradient id="paint51_linear_18_6336" x1="1.876" x2="3.285" y1="29.035" y2="29.035" gradientUnits="userSpaceOnUse"><stop stop-color="#79737C"/><stop offset="1" stop-color="#79737C" stop-opacity="0"/></linearGradient><linearGradient id="paint52_linear_18_6336" x1="30.57" x2="28.619" y1="28.035" y2="28.035" gradientUnits="userSpaceOnUse"><stop stop-color="#FFF6FF"/><stop offset="1" stop-color="#FFF6FF" stop-opacity="0"/></linearGradient><linearGradient id="paint53_linear_18_6336" x1="13" x2="14.132" y1="23.295" y2="23.295" gradientUnits="userSpaceOnUse"><stop stop-color="#4F4461"/><stop offset="1" stop-color="#4F4461" stop-opacity="0"/></linearGradient><linearGradient id="paint55_linear_18_6336" x1="6.095" x2="6.095" y1="24.059" y2="10.847" gradientUnits="userSpaceOnUse"><stop stop-color="#D2C9D7"/><stop offset="1" stop-color="#D2C9D7" stop-opacity="0"/></linearGradient><linearGradient id="paint56_linear_18_6336" x1="22.916" x2="22.916" y1="24.059" y2="10.847" gradientUnits="userSpaceOnUse"><stop stop-color="#D2C9D7"/><stop offset="1" stop-color="#D2C9D7" stop-opacity="0"/></linearGradient><linearGradient id="paint57_linear_18_6336" x1="10" x2="10" y1="24.059" y2="10.847" gradientUnits="userSpaceOnUse"><stop offset=".331" stop-color="#CEC5D4"/><stop offset="1" stop-color="#CEC5D4" stop-opacity="0"/></linearGradient><linearGradient id="paint58_linear_18_6336" x1="14.903" x2="14.903" y1="25.035" y2="27.035" gradientUnits="userSpaceOnUse"><stop stop-color="#C0B9C6"/><stop offset="1" stop-color="#BFB8C7"/></linearGradient><linearGradient id="paint59_linear_18_6336" x1="15.985" x2="15.985" y1="24.612" y2="26.305" gradientUnits="userSpaceOnUse"><stop offset=".708" stop-color="#CBC3D2"/><stop offset="1" stop-color="#CBC3D2" stop-opacity="0"/></linearGradient><linearGradient id="paint60_linear_18_6336" x1="2.855" x2="4.165" y1="27.035" y2="27.035" gradientUnits="userSpaceOnUse"><stop stop-color="#79737C"/><stop offset="1" stop-color="#79737C" stop-opacity="0"/></linearGradient><linearGradient id="paint61_linear_18_6336" x1="29.53" x2="27.716" y1="26.035" y2="26.035" gradientUnits="userSpaceOnUse"><stop stop-color="#FFF6FF"/><stop offset="1" stop-color="#FFF6FF" stop-opacity="0"/></linearGradient><linearGradient id="paint62_linear_18_6336" x1="15.985" x2="15.985" y1="27.476" y2="26.914" gradientUnits="userSpaceOnUse"><stop stop-color="#817B84"/><stop offset="1" stop-color="#817B84" stop-opacity="0"/></linearGradient><radialGradient id="paint3_radial_18_6336" cx="0" cy="0" r="1" gradientTransform="matrix(-2.44979 .175 -.36822 -5.15457 12.242 8.254)" gradientUnits="userSpaceOnUse"><stop offset=".349" stop-color="#605D64"/><stop offset="1" stop-color="#605D64" stop-opacity="0"/></radialGradient><radialGradient id="paint7_radial_18_6336" cx="0" cy="0" r="1" gradientTransform="matrix(0 1.17188 -1.74279 0 16 3.554)" gradientUnits="userSpaceOnUse"><stop stop-color="#7D797E"/><stop offset="1" stop-color="#9E97A1" stop-opacity="0"/></radialGradient><radialGradient id="paint8_radial_18_6336" cx="0" cy="0" r="1" gradientTransform="rotate(-138.844 7.849 1.226) scale(2.844 3.32713)" gradientUnits="userSpaceOnUse"><stop offset=".451" stop-color="#605C64"/><stop offset="1" stop-color="#605C64" stop-opacity="0"/></radialGradient><radialGradient id="paint17_radial_18_6336" cx="0" cy="0" r="1" gradientTransform="matrix(0 -9.45629 6.4321 0 26.885 23.689)" gradientUnits="userSpaceOnUse"><stop offset=".823" stop-color="#655E71" stop-opacity="0"/><stop offset=".951" stop-color="#655E71"/></radialGradient><radialGradient id="paint21_radial_18_6336" cx="0" cy="0" r="1" gradientTransform="matrix(0 -9.45629 3.78949 0 22.885 23.712)" gradientUnits="userSpaceOnUse"><stop offset=".782" stop-color="#655E71" stop-opacity="0"/><stop offset="1" stop-color="#655E71"/></radialGradient><radialGradient id="paint26_radial_18_6336" cx="0" cy="0" r="1" gradientTransform="matrix(0 -9.29498 3.78949 0 9.885 23.542)" gradientUnits="userSpaceOnUse"><stop offset=".782" stop-color="#655E71" stop-opacity="0"/><stop offset="1" stop-color="#655E71"/></radialGradient><radialGradient id="paint30_radial_18_6336" cx="0" cy="0" r="1" gradientTransform="matrix(0 -9.29498 3.78949 0 5.885 23.542)" gradientUnits="userSpaceOnUse"><stop offset=".782" stop-color="#655E71" stop-opacity="0"/><stop offset="1" stop-color="#655E71"/></radialGradient><radialGradient id="paint34_radial_18_6336" cx="0" cy="0" r="1" gradientTransform="rotate(128.212 4.167 8.837) scale(2.67753 5.39625)" gradientUnits="userSpaceOnUse"><stop offset=".389" stop-color="#645D6E"/><stop offset="1" stop-color="#645D6E" stop-opacity="0"/></radialGradient><radialGradient id="paint41_radial_18_6336" cx="0" cy="0" r="1" gradientTransform="matrix(-1.44609 .72974 -1.95121 -3.8666 11.813 9.305)" gradientUnits="userSpaceOnUse"><stop offset=".211" stop-color="#685F73"/><stop offset="1" stop-color="#685F73" stop-opacity="0"/></radialGradient><radialGradient id="paint42_radial_18_6336" cx="0" cy="0" r="1" gradientTransform="matrix(-.19607 2.64706 -13.9815 -1.03564 24.288 7.933)" gradientUnits="userSpaceOnUse"><stop stop-color="#CBC3D2"/><stop offset="1" stop-color="#CBC3D2" stop-opacity="0"/></radialGradient><radialGradient id="paint43_radial_18_6336" cx="0" cy="0" r="1" gradientTransform="matrix(.93138 -.7353 .66283 .8396 29.852 9.342)" gradientUnits="userSpaceOnUse"><stop stop-color="#F6EBFC"/><stop offset="1" stop-color="#F6EBFC" stop-opacity="0"/></radialGradient><radialGradient id="paint47_radial_18_6336" cx="0" cy="0" r="1" gradientTransform="matrix(0 2.125 -3.94203 0 15.36 11.805)" gradientUnits="userSpaceOnUse"><stop offset=".571" stop-color="#4E4B52"/><stop offset="1" stop-color="#6E6A72" stop-opacity="0"/></radialGradient><radialGradient id="paint48_radial_18_6336" cx="0" cy="0" r="1" gradientTransform="matrix(.93138 -.7353 .66283 .8396 29.852 13.342)" gradientUnits="userSpaceOnUse"><stop stop-color="#F6EBFC"/><stop offset="1" stop-color="#F6EBFC" stop-opacity="0"/></radialGradient><radialGradient id="paint54_radial_18_6336" cx="0" cy="0" r="1" gradientTransform="matrix(5.84262 -4.11855 4.11856 5.84262 15.147 8.885)" gradientUnits="userSpaceOnUse"><stop offset=".693" stop-color="#EBE1F1" stop-opacity="0"/><stop offset="1" stop-color="#EBE1F1"/></radialGradient><filter id="filter0_i_18_6336" width="24.34" height="9.327" x="3.83" y="1.708" color-interpolation-filters="sRGB" filterUnits="userSpaceOnUse"><feFlood flood-opacity="0" result="BackgroundImageFix"/><feBlend in="SourceGraphic" in2="BackgroundImageFix" result="shape"/><feColorMatrix in="SourceAlpha" result="hardAlpha" values="0 0 0 0 0 0 0 0 0 0 0 0 0 0 0 0 0 0 127 0"/><feOffset dy="-.3"/><feGaussianBlur stdDeviation=".3"/><feComposite in2="hardAlpha" k2="-1" k3="1" operator="arithmetic"/><feColorMatrix values="0 0 0 0 0.364706 0 0 0 0 0.352941 0 0 0 0 0.384314 0 0 0 1 0"/><feBlend in2="shape" result="effect1_innerShadow_18_6336"/></filter><filter id="filter1_f_18_6336" width="7.991" height="5.447" x="4.106" y="4.603" color-interpolation-filters="sRGB" filterUnits="userSpaceOnUse"><feFlood flood-opacity="0" result="BackgroundImageFix"/><feBlend in="SourceGraphic" in2="BackgroundImageFix" result="shape"/><feGaussianBlur result="effect1_foregroundBlur_18_6336" stdDeviation=".25"/></filter><filter id="filter2_f_18_6336" width="11.236" height="7.53" x="15.945" y="1.818" color-interpolation-filters="sRGB" filterUnits="userSpaceOnUse"><feFlood flood-opacity="0" result="BackgroundImageFix"/><feBlend in="SourceGraphic" in2="BackgroundImageFix" result="shape"/><feGaussianBlur result="effect1_foregroundBlur_18_6336" stdDeviation=".25"/></filter><filter id="filter3_i_18_6336" width="28.4" height="2.1" x="2" y="13.035" color-interpolation-filters="sRGB" filterUnits="userSpaceOnUse"><feFlood flood-opacity="0" result="BackgroundImageFix"/><feBlend in="SourceGraphic" in2="BackgroundImageFix" result="shape"/><feColorMatrix in="SourceAlpha" result="hardAlpha" values="0 0 0 0 0 0 0 0 0 0 0 0 0 0 0 0 0 0 127 0"/><feOffset dx=".4" dy=".1"/><feGaussianBlur stdDeviation=".25"/><feComposite in2="hardAlpha" k2="-1" k3="1" operator="arithmetic"/><feColorMatrix values="0 0 0 0 0.505882 0 0 0 0 0.486275 0 0 0 0 0.521569 0 0 0 1 0"/><feBlend in2="shape" result="effect1_innerShadow_18_6336"/></filter><filter id="filter4_i_18_6336" width="6.35" height="7.35" x="12.65" y="18.035" color-interpolation-filters="sRGB" filterUnits="userSpaceOnUse"><feFlood flood-opacity="0" result="BackgroundImageFix"/><feBlend in="SourceGraphic" in2="BackgroundImageFix" result="shape"/><feColorMatrix in="SourceAlpha" result="hardAlpha" values="0 0 0 0 0 0 0 0 0 0 0 0 0 0 0 0 0 0 127 0"/><feOffset dx="-.35" dy=".35"/><feGaussianBlur stdDeviation=".3"/><feComposite in2="hardAlpha" k2="-1" k3="1" operator="arithmetic"/><feColorMatrix values="0 0 0 0 0.117647 0 0 0 0 0.0784314 0 0 0 0 0.160784 0 0 0 1 0"/><feBlend in2="shape" result="effect1_innerShadow_18_6336"/></filter><filter id="filter5_ii_18_6336" width="10.62" height="10.62" x="10.67" y="2.715" color-interpolation-filters="sRGB" filterUnits="userSpaceOnUse"><feFlood flood-opacity="0" result="BackgroundImageFix"/><feBlend in="SourceGraphic" in2="BackgroundImageFix" result="shape"/><feColorMatrix in="SourceAlpha" result="hardAlpha" values="0 0 0 0 0 0 0 0 0 0 0 0 0 0 0 0 0 0 127 0"/><feOffset dx="-.3" dy=".3"/><feGaussianBlur stdDeviation=".5"/><feComposite in2="hardAlpha" k2="-1" k3="1" operator="arithmetic"/><feColorMatrix values="0 0 0 0 0.917647 0 0 0 0 0.878431 0 0 0 0 0.937255 0 0 0 1 0"/><feBlend in2="shape" result="effect1_innerShadow_18_6336"/><feColorMatrix in="SourceAlpha" result="hardAlpha" values="0 0 0 0 0 0 0 0 0 0 0 0 0 0 0 0 0 0 127 0"/><feOffset dx=".3" dy="-.3"/><feGaussianBlur stdDeviation=".5"/><feComposite in2="hardAlpha" k2="-1" k3="1" operator="arithmetic"/><feColorMatrix values="0 0 0 0 0.454902 0 0 0 0 0.423529 0 0 0 0 0.501961 0 0 0 1 0"/><feBlend in2="effect1_innerShadow_18_6336" result="effect2_innerShadow_18_6336"/></filter><filter id="filter6_f_18_6336" width="3.734" height="6.588" x="13.847" y="4.814" color-interpolation-filters="sRGB" filterUnits="userSpaceOnUse"><feFlood flood-opacity="0" result="BackgroundImageFix"/><feBlend in="SourceGraphic" in2="BackgroundImageFix" result="shape"/><feGaussianBlur result="effect1_foregroundBlur_18_6336" stdDeviation=".15"/></filter><filter id="filter7_i_18_6336" width="3.39" height="6.25" x="14.3" y="4.775" color-interpolation-filters="sRGB" filterUnits="userSpaceOnUse"><feFlood flood-opacity="0" result="BackgroundImageFix"/><feBlend in="SourceGraphic" in2="BackgroundImageFix" result="shape"/><feColorMatrix in="SourceAlpha" result="hardAlpha" values="0 0 0 0 0 0 0 0 0 0 0 0 0 0 0 0 0 0 127 0"/><feOffset dx=".25" dy="-.25"/><feGaussianBlur stdDeviation=".125"/><feComposite in2="hardAlpha" k2="-1" k3="1" operator="arithmetic"/><feColorMatrix values="0 0 0 0 0.333333 0 0 0 0 0.207843 0 0 0 0 0.47451 0 0 0 1 0"/><feBlend in2="shape" result="effect1_innerShadow_18_6336"/></filter><filter id="filter8_f_18_6336" width="2.947" height="3.868" x="14.453" y="6.044" color-interpolation-filters="sRGB" filterUnits="userSpaceOnUse"><feFlood flood-opacity="0" result="BackgroundImageFix"/><feBlend in="SourceGraphic" in2="BackgroundImageFix" result="shape"/><feGaussianBlur result="effect1_foregroundBlur_18_6336" stdDeviation=".15"/></filter><filter id="filter9_f_18_6336" width=".75" height="1.874" x="15.787" y="5.001" color-interpolation-filters="sRGB" filterUnits="userSpaceOnUse"><feFlood flood-opacity="0" result="BackgroundImageFix"/><feBlend in="SourceGraphic" in2="BackgroundImageFix" result="shape"/><feGaussianBlur result="effect1_foregroundBlur_18_6336" stdDeviation=".15"/></filter><filter id="filter10_f_18_6336" width=".75" height="1.718" x="15.756" y="9.217" color-interpolation-filters="sRGB" filterUnits="userSpaceOnUse"><feFlood flood-opacity="0" result="BackgroundImageFix"/><feBlend in="SourceGraphic" in2="BackgroundImageFix" result="shape"/><feGaussianBlur result="effect1_foregroundBlur_18_6336" stdDeviation=".15"/></filter><filter id="filter11_f_18_6336" width="2.332" height="12.009" x="4.929" y="14.285" color-interpolation-filters="sRGB" filterUnits="userSpaceOnUse"><feFlood flood-opacity="0" result="BackgroundImageFix"/><feBlend in="SourceGraphic" in2="BackgroundImageFix" result="shape"/><feGaussianBlur result="effect1_foregroundBlur_18_6336" stdDeviation=".375"/></filter><filter id="filter12_f_18_6336" width="2.332" height="12.009" x="21.75" y="14.285" color-interpolation-filters="sRGB" filterUnits="userSpaceOnUse"><feFlood flood-opacity="0" result="BackgroundImageFix"/><feBlend in="SourceGraphic" in2="BackgroundImageFix" result="shape"/><feGaussianBlur result="effect1_foregroundBlur_18_6336" stdDeviation=".375"/></filter><filter id="filter13_f_18_6336" width="2.332" height="12.009" x="8.834" y="14.285" color-interpolation-filters="sRGB" filterUnits="userSpaceOnUse"><feFlood flood-opacity="0" result="BackgroundImageFix"/><feBlend in="SourceGraphic" in2="BackgroundImageFix" result="shape"/><feGaussianBlur result="effect1_foregroundBlur_18_6336" stdDeviation=".375"/></filter></defs></svg>