<svg xmlns="http://www.w3.org/2000/svg" width="32" height="32" fill="none" viewBox="0 0 32 32"><g filter="url(#filter0_i_5559_20992)"><path fill="#20142B" d="M13.632 8.935c0-3-2.46-3.42-5.5-3.42s-5.43.38-5.49 3.31v11.11a4.5 4.5 0 1 0 8.18-2.58 3.59 3.59 0 0 1 .81-4.16 5.49 5.49 0 0 0 2-4.26Z"/><path fill="url(#paint0_radial_5559_20992)" d="M13.632 8.935c0-3-2.46-3.42-5.5-3.42s-5.43.38-5.49 3.31v11.11a4.5 4.5 0 1 0 8.18-2.58 3.59 3.59 0 0 1 .81-4.16 5.49 5.49 0 0 0 2-4.26Z"/><path fill="url(#paint1_radial_5559_20992)" d="M13.632 8.935c0-3-2.46-3.42-5.5-3.42s-5.43.38-5.49 3.31v11.11a4.5 4.5 0 1 0 8.18-2.58 3.59 3.59 0 0 1 .81-4.16 5.49 5.49 0 0 0 2-4.26Z"/></g><path fill="url(#paint2_radial_5559_20992)" d="M15.407 4.135a1.718 1.718 0 0 0-1.355-2.015 1.717 1.717 0 0 0-2.012 1.36l-.164.845a1.717 1.717 0 0 0 1.355 2.016c.93.18 1.83-.429 2.012-1.362l.164-.844Z"/><path fill="url(#paint3_radial_5559_20992)" d="M11.567 3.408a1.25 1.25 0 0 0-2.484-.285l-.071.626a1.25 1.25 0 0 0 2.483.285l.072-.626Z"/><path fill="url(#paint4_radial_5559_20992)" d="M8.642 3.445a1.13 1.13 0 1 0-2.26 0v.57a1.13 1.13 0 0 0 2.26 0v-.57Z"/><path fill="url(#paint5_radial_5559_20992)" d="M5.98 3.782a1.027 1.027 0 0 0-1.136-.906 1.028 1.028 0 0 0-.9 1.14l.059.516c.065.565.573.971 1.136.907.562-.065.965-.575.9-1.14l-.059-.517Z"/><path fill="url(#paint6_radial_5559_20992)" d="m2.643 4.107-.01.002a.87.87 0 0 0-.64 1.051l.107.437a.87.87 0 0 0 1.051.64l.01-.003a.87.87 0 0 0 .64-1.05l-.107-.438a.87.87 0 0 0-1.05-.64Z"/><g filter="url(#filter1_i_5559_20992)"><path fill="#20142B" d="M18.363 13.835c0-3 2.47-3.42 5.5-3.42s5.44.38 5.5 3.31v11.12a4.5 4.5 0 1 1-9 0c0-.926.29-1.828.83-2.58a3.6 3.6 0 0 0-.81-4.16 5.502 5.502 0 0 1-2.02-4.27Z"/><path fill="url(#paint7_radial_5559_20992)" d="M18.363 13.835c0-3 2.47-3.42 5.5-3.42s5.44.38 5.5 3.31v11.12a4.5 4.5 0 1 1-9 0c0-.926.29-1.828.83-2.58a3.6 3.6 0 0 0-.81-4.16 5.502 5.502 0 0 1-2.02-4.27Z"/><path fill="url(#paint8_radial_5559_20992)" d="M18.363 13.835c0-3 2.47-3.42 5.5-3.42s5.44.38 5.5 3.31v11.12a4.5 4.5 0 1 1-9 0c0-.926.29-1.828.83-2.58a3.6 3.6 0 0 0-.81-4.16 5.502 5.502 0 0 1-2.02-4.27Z"/><path fill="url(#paint9_radial_5559_20992)" d="M18.363 13.835c0-3 2.47-3.42 5.5-3.42s5.44.38 5.5 3.31v11.12a4.5 4.5 0 1 1-9 0c0-.926.29-1.828.83-2.58a3.6 3.6 0 0 0-.81-4.16 5.502 5.502 0 0 1-2.02-4.27Z"/></g><path fill="url(#paint10_radial_5559_20992)" d="M16.76 9.883a1.718 1.718 0 0 0 2.013 1.361 1.718 1.718 0 0 0 1.355-2.015l-.164-.844a1.718 1.718 0 0 0-2.012-1.362 1.717 1.717 0 0 0-1.355 2.016l.164.844Z"/><path fill="url(#paint11_radial_5559_20992)" d="M20.498 8.93a1.25 1.25 0 0 0 2.484-.286l-.072-.626a1.25 1.25 0 0 0-2.484.286l.072.625Z"/><path fill="url(#paint12_radial_5559_20992)" d="M23.363 8.925a1.13 1.13 0 0 0 2.26 0v-.57a1.13 1.13 0 1 0-2.26 0v.57Z"/><path fill="url(#paint13_radial_5559_20992)" d="M25.956 9.187a1.028 1.028 0 0 0 .901 1.14 1.028 1.028 0 0 0 1.136-.907l.06-.516a1.027 1.027 0 0 0-.902-1.14 1.028 1.028 0 0 0-1.135.906l-.06.517Z"/><path fill="url(#paint14_radial_5559_20992)" d="m28.839 11.124.01.002a.87.87 0 0 0 1.05-.64l.107-.437a.87.87 0 0 0-.64-1.05l-.01-.003a.87.87 0 0 0-1.05.64l-.107.437a.87.87 0 0 0 .64 1.05Z"/><defs><radialGradient id="paint0_radial_5559_20992" cx="0" cy="0" r="1" gradientTransform="rotate(-132.397 9.346 8.616) scale(7.78621 7.62968)" gradientUnits="userSpaceOnUse"><stop stop-color="#3C3840"/><stop offset="1" stop-color="#3C3840" stop-opacity="0"/></radialGradient><radialGradient id="paint1_radial_5559_20992" cx="0" cy="0" r="1" gradientTransform="rotate(139.475 5.07 5.75) scale(5.09787 7.49367)" gradientUnits="userSpaceOnUse"><stop stop-color="#463E51"/><stop offset="1" stop-color="#463E51" stop-opacity="0"/></radialGradient><radialGradient id="paint2_radial_5559_20992" cx="0" cy="0" r="1" gradientTransform="rotate(115.71 6.435 6.168) scale(3.74583 2.98795)" gradientUnits="userSpaceOnUse"><stop stop-color="#493F56"/><stop offset="1" stop-color="#11051C"/></radialGradient><radialGradient id="paint3_radial_5559_20992" cx="0" cy="0" r="1" gradientTransform="matrix(-.15625 2.04246 -1.49365 -.11427 10.847 3.234)" gradientUnits="userSpaceOnUse"><stop offset=".176" stop-color="#42374E"/><stop offset="1" stop-color="#10041D"/></radialGradient><radialGradient id="paint4_radial_5559_20992" cx="0" cy="0" r="1" gradientTransform="matrix(0 1.72656 -1.21484 0 8.11 3.296)" gradientUnits="userSpaceOnUse"><stop stop-color="#41364D"/><stop offset="1" stop-color="#150623"/></radialGradient><radialGradient id="paint5_radial_5559_20992" cx="0" cy="0" r="1" gradientTransform="rotate(80.981 .546 5.17) scale(1.49505 1.09113)" gradientUnits="userSpaceOnUse"><stop offset=".157" stop-color="#41364D"/><stop offset="1" stop-color="#1D1229"/></radialGradient><radialGradient id="paint6_radial_5559_20992" cx="0" cy="0" r="1" gradientTransform="matrix(.36719 1.20313 -.73315 .22375 3.34 4.913)" gradientUnits="userSpaceOnUse"><stop offset=".095" stop-color="#40354B"/><stop offset="1" stop-color="#1A0E25"/></radialGradient><radialGradient id="paint7_radial_5559_20992" cx="0" cy="0" r="1" gradientTransform="rotate(-132.423 18.287 7.601) scale(7.78944 7.63347)" gradientUnits="userSpaceOnUse"><stop stop-color="#3C3840"/><stop offset="1" stop-color="#3C3840" stop-opacity="0"/></radialGradient><radialGradient id="paint8_radial_5559_20992" cx="0" cy="0" r="1" gradientTransform="rotate(139.5 12.032 11.1) scale(5.10055 7.49656)" gradientUnits="userSpaceOnUse"><stop stop-color="#463E51"/><stop offset="1" stop-color="#463E51" stop-opacity="0"/></radialGradient><radialGradient id="paint9_radial_5559_20992" cx="0" cy="0" r="1" gradientTransform="matrix(7.6875 .375 -1.14295 23.43054 21.097 21.265)" gradientUnits="userSpaceOnUse"><stop offset=".713" stop-color="#2D2832" stop-opacity="0"/><stop offset="1" stop-color="#2D2832"/></radialGradient><radialGradient id="paint10_radial_5559_20992" cx="0" cy="0" r="1" gradientTransform="matrix(.6875 3.4317 -2.73737 .5484 19.191 8.14)" gradientUnits="userSpaceOnUse"><stop offset=".079" stop-color="#493F56"/><stop offset="1" stop-color="#11051C"/></radialGradient><radialGradient id="paint11_radial_5559_20992" cx="0" cy="0" r="1" gradientTransform="rotate(171.441 11.025 4.918) scale(2.24374 2.14485)" gradientUnits="userSpaceOnUse"><stop offset=".163" stop-color="#42374E"/><stop offset="1" stop-color="#10041D"/></radialGradient><radialGradient id="paint12_radial_5559_20992" cx="0" cy="0" r="1" gradientTransform="matrix(-1.78125 .125 -.1236 -1.76134 25.347 8.327)" gradientUnits="userSpaceOnUse"><stop offset=".238" stop-color="#41364D"/><stop offset="1" stop-color="#150623"/></radialGradient><radialGradient id="paint13_radial_5559_20992" cx="0" cy="0" r="1" gradientTransform="matrix(-1.82105 -.15625 .14985 -1.74652 27.66 8.67)" gradientUnits="userSpaceOnUse"><stop offset=".157" stop-color="#41364D"/><stop offset="1" stop-color="#1D1229"/></radialGradient><radialGradient id="paint14_radial_5559_20992" cx="0" cy="0" r="1" gradientTransform="matrix(-1.4375 -.4211 .37228 -1.27088 29.753 10.06)" gradientUnits="userSpaceOnUse"><stop offset=".235" stop-color="#40354B"/><stop offset="1" stop-color="#1A0E25"/></radialGradient><filter id="filter0_i_5559_20992" width="11.49" height="19.43" x="2.142" y="5.015" color-interpolation-filters="sRGB" filterUnits="userSpaceOnUse"><feFlood flood-opacity="0" result="BackgroundImageFix"/><feBlend in="SourceGraphic" in2="BackgroundImageFix" result="shape"/><feColorMatrix in="SourceAlpha" result="hardAlpha" values="0 0 0 0 0 0 0 0 0 0 0 0 0 0 0 0 0 0 127 0"/><feOffset dx="-.5" dy="-.5"/><feGaussianBlur stdDeviation=".5"/><feComposite in2="hardAlpha" k2="-1" k3="1" operator="arithmetic"/><feColorMatrix values="0 0 0 0 0.109804 0 0 0 0 0.0784314 0 0 0 0 0.133333 0 0 0 1 0"/><feBlend in2="shape" result="effect1_innerShadow_5559_20992"/></filter><filter id="filter1_i_5559_20992" width="11.5" height="19.43" x="17.863" y="9.915" color-interpolation-filters="sRGB" filterUnits="userSpaceOnUse"><feFlood flood-opacity="0" result="BackgroundImageFix"/><feBlend in="SourceGraphic" in2="BackgroundImageFix" result="shape"/><feColorMatrix in="SourceAlpha" result="hardAlpha" values="0 0 0 0 0 0 0 0 0 0 0 0 0 0 0 0 0 0 127 0"/><feOffset dx="-.5" dy="-.5"/><feGaussianBlur stdDeviation=".5"/><feComposite in2="hardAlpha" k2="-1" k3="1" operator="arithmetic"/><feColorMatrix values="0 0 0 0 0.109804 0 0 0 0 0.0784314 0 0 0 0 0.133333 0 0 0 1 0"/><feBlend in2="shape" result="effect1_innerShadow_5559_20992"/></filter></defs></svg>