<svg xmlns="http://www.w3.org/2000/svg" width="32" height="32" fill="none" viewBox="0 0 32 32"><g filter="url(#filter0_ii_4002_1287)"><path fill="#35BB78" d="M13.356 19.136c0-1.425.76-2.101 1.16-2.242l5.66-.34c1.61.719 2.954 2.781 3.141 5.281.188 2.5-.203 4.953-2.265 6.563-1.65 1.287-3.959 1.552-4.938 1.531h-2.473c-2.624 0-3.246-1.89-3.355-2.297a10.81 10.81 0 0 0-.184-.598.43.43 0 0 0-.221-.26c-.528-.244-1.52-.486-1.947-1.388a3.091 3.091 0 0 1-.28-1.63c.022-.213.232-.344.441-.296.52.119.95.252 1.57.567a3.407 3.407 0 0 1 1.237 1.226c.065.11.238.112.304.003.206-.342.561-.818 1.045-1.12a4.661 4.661 0 0 1 1.846-.678.347.347 0 0 1 .387.345c.037 1.765-.748 2.275-1.198 2.513-.288.131-.62.277-.865.388-.14.063-.21.223-.141.36.474.956 1.468.869 2.858.869 1.851 0 2.96-1.324 2.843-2.723-.062-1.812-1.562-2.515-2.57-3.148-.523-.329-2.055-1.145-2.055-2.926Z"/></g><path fill="url(#paint0_radial_4002_1287)" d="M13.356 19.136c0-1.425.76-2.101 1.16-2.242l5.66-.34c1.61.719 2.954 2.781 3.141 5.281.188 2.5-.203 4.953-2.265 6.563-1.65 1.287-3.959 1.552-4.938 1.531h-2.473c-2.624 0-3.246-1.89-3.355-2.297a10.81 10.81 0 0 0-.184-.598.43.43 0 0 0-.221-.26c-.528-.244-1.52-.486-1.947-1.388a3.091 3.091 0 0 1-.28-1.63c.022-.213.232-.344.441-.296.52.119.95.252 1.57.567a3.407 3.407 0 0 1 1.237 1.226c.065.11.238.112.304.003.206-.342.561-.818 1.045-1.12a4.661 4.661 0 0 1 1.846-.678.347.347 0 0 1 .387.345c.037 1.765-.748 2.275-1.198 2.513-.288.131-.62.277-.865.388-.14.063-.21.223-.141.36.474.956 1.468.869 2.858.869 1.851 0 2.96-1.324 2.843-2.723-.062-1.812-1.562-2.515-2.57-3.148-.523-.329-2.055-1.145-2.055-2.926Z"/><g filter="url(#filter1_f_4002_1287)"><path fill="url(#paint1_radial_4002_1287)" d="M21.317 26.71c0-5.343-3.922-7.968-5.234-9l3.25-1.453c1.125.521 3.035 2.358 3.453 5.11.484 3.187-.927 4.927-1.469 5.343Z"/></g><path fill="url(#paint2_radial_4002_1287)" d="M6.762 16.087a.486.486 0 0 1 .973 0v.775a.486.486 0 1 1-.973 0v-.775Z"/><g filter="url(#filter2_ii_4002_1287)"><path fill="url(#paint3_linear_4002_1287)" d="m6.569 15.067-.755.857a.526.526 0 0 0 .776.71l.554-.583a.384.384 0 0 1 .476-.065l.018.01a.1.1 0 0 1 .019.155l-.317.316a.528.528 0 0 0 .716.774l.613-.527h1.839a2.5 2.5 0 0 0 1.64-.613l2.365-2.055v-3.25c-.257.025-.59.285-.723.418l-3.247 3.04a.5.5 0 0 1-.284.132l-3.068.355a.978.978 0 0 0-.622.326Z"/></g><path fill="url(#paint4_radial_4002_1287)" d="m6.569 15.067-.755.857a.526.526 0 0 0 .776.71l.554-.583a.384.384 0 0 1 .476-.065l.018.01a.1.1 0 0 1 .019.155l-.317.316a.528.528 0 0 0 .716.774l.613-.527h1.839a2.5 2.5 0 0 0 1.64-.613l2.365-2.055v-3.25c-.257.025-.59.285-.723.418l-3.247 3.04a.5.5 0 0 1-.284.132l-3.068.355a.978.978 0 0 0-.622.326Z"/><g filter="url(#filter3_i_4002_1287)"><path fill="#FFCA36" d="m23.587 12.28-2.844-1.464-.406 2.718 3.348 1.708a1.8 1.8 0 0 0 1.84-.121c.527-.363.82-.979.79-1.618-.06-1.273-.081-2.688-.103-3.586v-1.39a.531.531 0 0 0-1.063 0v.5c0 .14-.14.234-.256.156a1.506 1.506 0 0 1-.238-.2c-.125-.129-.17-.309-.17-.488v-.667a.531.531 0 1 0-1.062 0v1.201a1 1 0 0 0 .235.644l.373.444a.2.2 0 0 1 .046.151c-.065.582-.148 1.353-.197 1.853a.202.202 0 0 1-.293.16Z"/></g><path fill="url(#paint5_radial_4002_1287)" d="m23.587 12.28-2.844-1.464-.406 2.718 3.348 1.708a1.8 1.8 0 0 0 1.84-.121c.527-.363.82-.979.79-1.618-.06-1.273-.081-2.688-.103-3.586v-1.39a.531.531 0 0 0-1.063 0v.5c0 .14-.14.234-.256.156a1.506 1.506 0 0 1-.238-.2c-.125-.129-.17-.309-.17-.488v-.667a.531.531 0 1 0-1.062 0v1.201a1 1 0 0 0 .235.644l.373.444a.2.2 0 0 1 .046.151c-.065.582-.148 1.353-.197 1.853a.202.202 0 0 1-.293.16Z"/><path fill="url(#paint6_radial_4002_1287)" d="m23.587 12.28-2.844-1.464-.406 2.718 3.348 1.708a1.8 1.8 0 0 0 1.84-.121c.527-.363.82-.979.79-1.618-.06-1.273-.081-2.688-.103-3.586v-1.39a.531.531 0 0 0-1.063 0v.5c0 .14-.14.234-.256.156a1.506 1.506 0 0 1-.238-.2c-.125-.129-.17-.309-.17-.488v-.667a.531.531 0 1 0-1.062 0v1.201a1 1 0 0 0 .235.644l.373.444a.2.2 0 0 1 .046.151c-.065.582-.148 1.353-.197 1.853a.202.202 0 0 1-.293.16Z"/><g filter="url(#filter4_i_4002_1287)"><path fill="url(#paint7_radial_4002_1287)" d="M25.683 7.995h-.003a.531.531 0 0 0-.53.532v.5c0 .14-.14.234-.256.156a1.505 1.505 0 0 1-.24-.2c-.124-.129-.169-.309-.169-.488V7.95l.56-.558a.44.44 0 0 1 .638.604Z"/></g><path fill="#FFC028" d="M19.864 10.562c-2.102-.57-3.82-.266-4.656 0v3.32h4.656v-3.32Z"/><path fill="url(#paint8_radial_4002_1287)" d="M19.864 10.562c-2.102-.57-3.82-.266-4.656 0v3.32h4.656v-3.32Z"/><path fill="url(#paint9_radial_4002_1287)" d="M19.864 10.562c-2.102-.57-3.82-.266-4.656 0v3.32h4.656v-3.32Z"/><path fill="url(#paint10_radial_4002_1287)" d="M19.864 10.562c-2.102-.57-3.82-.266-4.656 0v3.32h4.656v-3.32Z"/><path fill="url(#paint11_radial_4002_1287)" d="M20.322 7.864a.941.941 0 0 0 .519-.177v.534c0 .512-.306.969-.77 1.158.098-.208.165-.434.199-.677l.052-.838Z"/><path fill="url(#paint12_radial_4002_1287)" d="M20.322 7.864a.941.941 0 0 0 .519-.177v.534c0 .512-.306.969-.77 1.158.098-.208.165-.434.199-.677l.052-.838Z"/><path fill="url(#paint13_radial_4002_1287)" d="M14.742 7.864a.941.941 0 0 1-.519-.177v.534c0 .512.306.969.77 1.158a2.346 2.346 0 0 1-.199-.677l-.052-.838Z"/><path fill="url(#paint14_radial_4002_1287)" d="M14.742 7.864a.941.941 0 0 1-.519-.177v.534c0 .512.306.969.77 1.158a2.346 2.346 0 0 1-.199-.677l-.052-.838Z"/><g filter="url(#filter5_i_4002_1287)"><path fill="url(#paint15_radial_4002_1287)" d="M14.763 8.733a2.247 2.247 0 0 0 2.23 1.955h1.083a2.247 2.247 0 0 0 2.23-1.955c.067-1.08.135-2.157.185-3.238a.832.832 0 0 0-.79-.821h-.804a1.39 1.39 0 0 1-1.27-.828.381.381 0 0 0-.352-.24h-.73c-1.06 0-1.918.868-1.918 1.939 0 1.067.066 2.118.136 3.188Z"/></g><path fill="url(#paint16_radial_4002_1287)" d="M14.763 8.733a2.247 2.247 0 0 0 2.23 1.955h1.083a2.247 2.247 0 0 0 2.23-1.955c.067-1.08.135-2.157.185-3.238a.832.832 0 0 0-.79-.821h-.804a1.39 1.39 0 0 1-1.27-.828.381.381 0 0 0-.352-.24h-.73c-1.06 0-1.918.868-1.918 1.939 0 1.067.066 2.118.136 3.188Z"/><path fill="url(#paint17_radial_4002_1287)" d="M14.763 8.733a2.247 2.247 0 0 0 2.23 1.955h1.083a2.247 2.247 0 0 0 2.23-1.955c.067-1.08.135-2.157.185-3.238a.832.832 0 0 0-.79-.821h-.804a1.39 1.39 0 0 1-1.27-.828.381.381 0 0 0-.352-.24h-.73c-1.06 0-1.918.868-1.918 1.939 0 1.067.066 2.118.136 3.188Z"/><path fill="url(#paint18_radial_4002_1287)" d="M14.763 8.733a2.247 2.247 0 0 0 2.23 1.955h1.083a2.247 2.247 0 0 0 2.23-1.955c.067-1.08.135-2.157.185-3.238a.832.832 0 0 0-.79-.821h-.804a1.39 1.39 0 0 1-1.27-.828.381.381 0 0 0-.352-.24h-.73c-1.06 0-1.918.868-1.918 1.939 0 1.067.066 2.118.136 3.188Z"/><g filter="url(#filter6_f_4002_1287)"><path fill="#EE9020" d="m17.253 6.849-.364 1.055c-.063.217.087.434.299.434h.45c.212 0 .362-.22.3-.434l-.305-1.055c-.066-.234-.311-.234-.38 0Z"/></g><g filter="url(#filter7_f_4002_1287)"><path fill="url(#paint19_linear_4002_1287)" d="m17.313 6.736-.305 1.055c-.062.217.087.434.299.434h.45c.212 0 .362-.22.3-.434l-.305-1.055c-.066-.233-.37-.233-.44 0Z"/><path fill="url(#paint20_linear_4002_1287)" d="m17.313 6.736-.305 1.055c-.062.217.087.434.299.434h.45c.212 0 .362-.22.3-.434l-.305-1.055c-.066-.233-.37-.233-.44 0Z"/><path fill="url(#paint21_linear_4002_1287)" d="m17.313 6.736-.305 1.055c-.062.217.087.434.299.434h.45c.212 0 .362-.22.3-.434l-.305-1.055c-.066-.233-.37-.233-.44 0Z"/><path fill="url(#paint22_linear_4002_1287)" d="m17.313 6.736-.305 1.055c-.062.217.087.434.299.434h.45c.212 0 .362-.22.3-.434l-.305-1.055c-.066-.233-.37-.233-.44 0Z"/></g><path fill="url(#paint23_radial_4002_1287)" d="M17.532 8.809c-.291 0-.565-.069-.795-.189-.078-.04-.163.049-.113.12.192.291.527.486.908.486.382 0 .717-.195.909-.486.05-.074-.035-.16-.114-.12-.23.12-.5.189-.795.189Z"/><g filter="url(#filter8_ii_4002_1287)"><path fill="url(#paint24_linear_4002_1287)" d="M20.318 3.335c.295.101.56.307.727.603a1.36 1.36 0 0 1-.06 1.45.895.895 0 0 0-.156.501v.682a1 1 0 0 0-.383-.154l.045-.922a.832.832 0 0 0-.79-.821h-.804a1.39 1.39 0 0 1-1.27-.828.381.381 0 0 0-.353-.24h-.73c-1.06 0-1.917.867-1.917 1.939l.017.882a.982.982 0 0 0-.413.151V5.89a.895.895 0 0 0-.155-.501 1.372 1.372 0 0 1-.083-1.404c.168-.317.439-.539.746-.646.329-.117.609-.339.794-.637a1.334 1.334 0 0 1 1.66-.524.848.848 0 0 0 .684 0 1.334 1.334 0 0 1 1.665.542c.176.293.453.505.776.616Z"/><path fill="url(#paint25_radial_4002_1287)" d="M20.318 3.335c.295.101.56.307.727.603a1.36 1.36 0 0 1-.06 1.45.895.895 0 0 0-.156.501v.682a1 1 0 0 0-.383-.154l.045-.922a.832.832 0 0 0-.79-.821h-.804a1.39 1.39 0 0 1-1.27-.828.381.381 0 0 0-.353-.24h-.73c-1.06 0-1.917.867-1.917 1.939l.017.882a.982.982 0 0 0-.413.151V5.89a.895.895 0 0 0-.155-.501 1.372 1.372 0 0 1-.083-1.404c.168-.317.439-.539.746-.646.329-.117.609-.339.794-.637a1.334 1.334 0 0 1 1.66-.524.848.848 0 0 0 .684 0 1.334 1.334 0 0 1 1.665.542c.176.293.453.505.776.616Z"/><path fill="url(#paint26_radial_4002_1287)" d="M20.318 3.335c.295.101.56.307.727.603a1.36 1.36 0 0 1-.06 1.45.895.895 0 0 0-.156.501v.682a1 1 0 0 0-.383-.154l.045-.922a.832.832 0 0 0-.79-.821h-.804a1.39 1.39 0 0 1-1.27-.828.381.381 0 0 0-.353-.24h-.73c-1.06 0-1.917.867-1.917 1.939l.017.882a.982.982 0 0 0-.413.151V5.89a.895.895 0 0 0-.155-.501 1.372 1.372 0 0 1-.083-1.404c.168-.317.439-.539.746-.646.329-.117.609-.339.794-.637a1.334 1.334 0 0 1 1.66-.524.848.848 0 0 0 .684 0 1.334 1.334 0 0 1 1.665.542c.176.293.453.505.776.616Z"/><path fill="url(#paint27_radial_4002_1287)" d="M20.318 3.335c.295.101.56.307.727.603a1.36 1.36 0 0 1-.06 1.45.895.895 0 0 0-.156.501v.682a1 1 0 0 0-.383-.154l.045-.922a.832.832 0 0 0-.79-.821h-.804a1.39 1.39 0 0 1-1.27-.828.381.381 0 0 0-.353-.24h-.73c-1.06 0-1.917.867-1.917 1.939l.017.882a.982.982 0 0 0-.413.151V5.89a.895.895 0 0 0-.155-.501 1.372 1.372 0 0 1-.083-1.404c.168-.317.439-.539.746-.646.329-.117.609-.339.794-.637a1.334 1.334 0 0 1 1.66-.524.848.848 0 0 0 .684 0 1.334 1.334 0 0 1 1.665.542c.176.293.453.505.776.616Z"/><path fill="url(#paint28_radial_4002_1287)" d="M20.318 3.335c.295.101.56.307.727.603a1.36 1.36 0 0 1-.06 1.45.895.895 0 0 0-.156.501v.682a1 1 0 0 0-.383-.154l.045-.922a.832.832 0 0 0-.79-.821h-.804a1.39 1.39 0 0 1-1.27-.828.381.381 0 0 0-.353-.24h-.73c-1.06 0-1.917.867-1.917 1.939l.017.882a.982.982 0 0 0-.413.151V5.89a.895.895 0 0 0-.155-.501 1.372 1.372 0 0 1-.083-1.404c.168-.317.439-.539.746-.646.329-.117.609-.339.794-.637a1.334 1.334 0 0 1 1.66-.524.848.848 0 0 0 .684 0 1.334 1.334 0 0 1 1.665.542c.176.293.453.505.776.616Z"/></g><g filter="url(#filter9_i_4002_1287)"><path fill="#C05029" d="M19.674 5.437c-.1-.088-.217-.18-.394-.236-.175-.055-.394-.07-.696-.033a.16.16 0 1 0 .039.316c.276-.034.445-.016.561.02.114.036.19.094.281.173a.16.16 0 1 0 .21-.24Z"/></g><g filter="url(#filter10_i_4002_1287)"><path fill="#C05029" d="M15.575 5.374a1.591 1.591 0 0 1 .998-.206.16.16 0 1 1-.039.316 1.274 1.274 0 0 0-.839.19l-.01.007v.002a.16.16 0 0 1-.196-.252l.086-.057Z"/></g><g filter="url(#filter11_f_4002_1287)"><path fill="url(#paint29_radial_4002_1287)" d="M17.666 3.924a1.405 1.405 0 0 1-.038-.078.381.381 0 0 0-.353-.24h-.73c-1.06 0-1.918.868-1.918 1.939v.158c-.195-.149-.44-.462-.44-.969 0-.615.448-.926.734-1.124.08-.056.149-.103.19-.146a6.76 6.76 0 0 0 .057-.06c.2-.212.558-.591 1.182-.757a2.9 2.9 0 0 1 .52-.086c.471-.036.808.376.808.85v.505l-.012.008Z"/><path fill="url(#paint30_radial_4002_1287)" d="M17.666 3.924a1.405 1.405 0 0 1-.038-.078.381.381 0 0 0-.353-.24h-.73c-1.06 0-1.918.868-1.918 1.939v.158c-.195-.149-.44-.462-.44-.969 0-.615.448-.926.734-1.124.08-.056.149-.103.19-.146a6.76 6.76 0 0 0 .057-.06c.2-.212.558-.591 1.182-.757a2.9 2.9 0 0 1 .52-.086c.471-.036.808.376.808.85v.505l-.012.008Z"/></g><g filter="url(#filter12_f_4002_1287)"><path fill="url(#paint31_radial_4002_1287)" d="m20.523 5.86-.017-.363a.843.843 0 0 0-.806-.818h-.803a1.39 1.39 0 0 1-1.22-.723s-.055-.128-.098-.337c-.1-.491.359-.858.853-.77.587.103 1.286.296 1.792.626 1.001.653.826 1.83.3 2.384Z"/><path fill="url(#paint32_radial_4002_1287)" d="m20.523 5.86-.017-.363a.843.843 0 0 0-.806-.818h-.803a1.39 1.39 0 0 1-1.22-.723s-.055-.128-.098-.337c-.1-.491.359-.858.853-.77.587.103 1.286.296 1.792.626 1.001.653.826 1.83.3 2.384Z"/><path fill="url(#paint33_radial_4002_1287)" d="m20.523 5.86-.017-.363a.843.843 0 0 0-.806-.818h-.803a1.39 1.39 0 0 1-1.22-.723s-.055-.128-.098-.337c-.1-.491.359-.858.853-.77.587.103 1.286.296 1.792.626 1.001.653.826 1.83.3 2.384Z"/><path fill="url(#paint34_radial_4002_1287)" d="m20.523 5.86-.017-.363a.843.843 0 0 0-.806-.818h-.803a1.39 1.39 0 0 1-1.22-.723s-.055-.128-.098-.337c-.1-.491.359-.858.853-.77.587.103 1.286.296 1.792.626 1.001.653.826 1.83.3 2.384Z"/></g><path fill="#fff" d="M18.904 6.191c.375 0 .691.258.778.608a.157.157 0 0 1-.154.195h-1.28a.132.132 0 0 1-.13-.156.802.802 0 0 1 .786-.647Z"/><path fill="url(#paint35_radial_4002_1287)" d="M18.785 6.347a.512.512 0 0 1 .494.647h-.99a.514.514 0 0 1 .496-.647Z"/><path fill="#000" d="M18.492 6.86c0-.164.13-.294.293-.294a.292.292 0 0 1 .261.428h-.52a.265.265 0 0 1-.034-.135Z"/><g filter="url(#filter13_f_4002_1287)"><path fill="#C7A7A3" d="M18.747 6.456c.037.048-.04.108-.126.172-.087.065-.151.11-.187.062-.037-.049.004-.14.09-.205.087-.065.187-.078.223-.03Z"/><path fill="url(#paint36_radial_4002_1287)" d="M18.747 6.456c.037.048-.04.108-.126.172-.087.065-.151.11-.187.062-.037-.049.004-.14.09-.205.087-.065.187-.078.223-.03Z"/></g><g filter="url(#filter14_f_4002_1287)"><path fill="url(#paint37_linear_4002_1287)" d="M19.24 6.791a.48.48 0 0 0-.132-.265l-.149.164.068.13.214-.029Z"/></g><path fill="#fff" d="M16.16 6.191a.802.802 0 0 0-.777.608c-.026.1.05.195.153.195h1.28a.132.132 0 0 0 .131-.156.804.804 0 0 0-.787-.647Z"/><path fill="url(#paint38_radial_4002_1287)" d="M16.279 6.347a.512.512 0 0 0-.494.647h.99a.516.516 0 0 0-.496-.647Z"/><path fill="#000" d="M16.572 6.86a.292.292 0 0 0-.293-.294.292.292 0 0 0-.261.428h.52a.291.291 0 0 0 .034-.135Z"/><g filter="url(#filter15_f_4002_1287)"><path fill="url(#paint39_linear_4002_1287)" d="M16.746 6.798c0-.165-.134-.275-.17-.308l-.166.16.102.207.234-.059Z"/></g><g filter="url(#filter16_f_4002_1287)" transform="rotate(-27.914 16.124 6.566)"><ellipse cx="16.124" cy="6.566" fill="#C7A7A3" fill-opacity=".9" rx=".223" ry=".113"/><ellipse cx="16.124" cy="6.566" fill="url(#paint40_radial_4002_1287)" rx=".223" ry=".113"/></g><path fill="url(#paint41_linear_4002_1287)" d="M20.356 7.916c.038-.61.075-1.22.106-1.831a.924.924 0 0 1-.106 1.831Z"/><path fill="url(#paint42_radial_4002_1287)" d="M20.356 7.916c.038-.61.075-1.22.106-1.831a.924.924 0 0 1-.106 1.831Z"/><path fill="url(#paint43_radial_4002_1287)" d="M20.356 7.916c.038-.61.075-1.22.106-1.831a.924.924 0 0 1-.106 1.831Z"/><path fill="url(#paint44_linear_4002_1287)" d="M14.632 6.08a.924.924 0 0 0 .08 1.836 44.894 44.894 0 0 1-.08-1.836Z"/><path fill="url(#paint45_radial_4002_1287)" d="M14.632 6.08a.924.924 0 0 0 .08 1.836 44.894 44.894 0 0 1-.08-1.836Z"/><g filter="url(#filter17_f_4002_1287)"><path fill="#DD8224" d="M14.642 6.46a.548.548 0 0 0 .048 1.078 44.68 44.68 0 0 1-.048-1.079Z"/></g><g filter="url(#filter18_f_4002_1287)"><path fill="#FFC837" d="m20.38 7.543.063-1.093a.548.548 0 0 1-.064 1.093Z"/></g><g filter="url(#filter19_f_4002_1287)"><path stroke="#C96953" stroke-linecap="round" stroke-width=".1" d="M15.596 5.535c.148-.106.515-.292.95-.22"/></g><g filter="url(#filter20_f_4002_1287)"><path stroke="#C96953" stroke-linecap="round" stroke-width=".1" d="M19.575 5.508a1.328 1.328 0 0 0-.95-.219"/></g><g filter="url(#filter21_i_4002_1287)"><path fill="url(#paint46_radial_4002_1287)" d="M14.255 10.891c0-.039.022-.074.058-.09.2-.089.63-.262 1.09-.346a.05.05 0 0 1 .058.049v.778a2.054 2.054 0 1 0 4.107 0v-.778a.05.05 0 0 1 .058-.05c.462.085.92.259 1.125.348.036.015.058.05.058.09v6.386a.6.6 0 0 1-.6.6h-5.354a.6.6 0 0 1-.6-.6v-6.387Z"/><path fill="url(#paint47_radial_4002_1287)" d="M14.255 10.891c0-.039.022-.074.058-.09.2-.089.63-.262 1.09-.346a.05.05 0 0 1 .058.049v.778a2.054 2.054 0 1 0 4.107 0v-.778a.05.05 0 0 1 .058-.05c.462.085.92.259 1.125.348.036.015.058.05.058.09v6.386a.6.6 0 0 1-.6.6h-5.354a.6.6 0 0 1-.6-.6v-6.387Z"/></g><path fill="url(#paint48_linear_4002_1287)" d="M14.255 10.891c0-.039.022-.074.058-.09.2-.089.63-.262 1.09-.346a.05.05 0 0 1 .058.049v.778a2.054 2.054 0 1 0 4.107 0v-.778a.05.05 0 0 1 .058-.05c.462.085.92.259 1.125.348.036.015.058.05.058.09v6.386a.6.6 0 0 1-.6.6h-5.354a.6.6 0 0 1-.6-.6v-6.387Z"/><path fill="url(#paint49_radial_4002_1287)" d="M14.255 10.891c0-.039.022-.074.058-.09.2-.089.63-.262 1.09-.346a.05.05 0 0 1 .058.049v.778a2.054 2.054 0 1 0 4.107 0v-.778a.05.05 0 0 1 .058-.05c.462.085.92.259 1.125.348.036.015.058.05.058.09v6.386a.6.6 0 0 1-.6.6h-5.354a.6.6 0 0 1-.6-.6v-6.387Z"/><g filter="url(#filter22_f_4002_1287)"><path stroke="url(#paint50_linear_4002_1287)" stroke-linecap="round" stroke-width=".4" d="M11.429 26.909c-.007.65.436 1.948 2.266 1.948h3.177c1.01-.014 3.317-.516 4.469-2.414"/></g><g filter="url(#filter23_f_4002_1287)"><path stroke="url(#paint51_linear_4002_1287)" stroke-linecap="round" stroke-width=".4" d="M8.845 24.474c.41.162 1.402.783 2.096 1.97"/></g><g filter="url(#filter24_f_4002_1287)"><path stroke="url(#paint52_linear_4002_1287)" stroke-linecap="round" stroke-width=".4" d="M13.991 23.954c-.307.354-1.133 1.102-1.885 1.832"/></g><defs><radialGradient id="paint0_radial_4002_1287" cx="0" cy="0" r="1" gradientTransform="matrix(12.502 -3.897 4.76721 15.29373 10.857 25.088)" gradientUnits="userSpaceOnUse"><stop offset=".805" stop-color="#4DCD7D" stop-opacity="0"/><stop offset="1" stop-color="#4DCD7D"/></radialGradient><radialGradient id="paint1_radial_4002_1287" cx="0" cy="0" r="1" gradientTransform="matrix(-3.61906 1.93752 -6.36477 -11.88867 22.702 20.617)" gradientUnits="userSpaceOnUse"><stop stop-color="#4EDD83"/><stop offset="1" stop-color="#4EDD83" stop-opacity="0"/></radialGradient><radialGradient id="paint2_radial_4002_1287" cx="0" cy="0" r="1" gradientTransform="matrix(.67968 -.9375 .55678 .40367 6.762 16.945)" gradientUnits="userSpaceOnUse"><stop stop-color="#D69B3C"/><stop offset="1" stop-color="#CF841F"/></radialGradient><radialGradient id="paint4_radial_4002_1287" cx="0" cy="0" r="1" gradientTransform="matrix(-1.89062 1.84376 -.54832 -.56226 14.3 14.241)" gradientUnits="userSpaceOnUse"><stop stop-color="#CC6124"/><stop offset="1" stop-color="#E68C1F" stop-opacity="0"/></radialGradient><radialGradient id="paint5_radial_4002_1287" cx="0" cy="0" r="1" gradientTransform="matrix(3.0625 1.53125 -.77813 1.55625 20.708 13.695)" gradientUnits="userSpaceOnUse"><stop stop-color="#DF7837"/><stop offset="1" stop-color="#FFAF2E" stop-opacity="0"/></radialGradient><radialGradient id="paint6_radial_4002_1287" cx="0" cy="0" r="1" gradientTransform="matrix(.71875 2.78125 -.88036 .22751 23.786 10.804)" gradientUnits="userSpaceOnUse"><stop offset=".276" stop-color="#EBA238"/><stop offset="1" stop-color="#EBA238" stop-opacity="0"/></radialGradient><radialGradient id="paint7_radial_4002_1287" cx="0" cy="0" r="1" gradientTransform="matrix(-.68567 .5 -.27415 -.37595 25.691 7.492)" gradientUnits="userSpaceOnUse"><stop stop-color="#FCCB44"/><stop offset="1" stop-color="#F3AE26"/></radialGradient><radialGradient id="paint8_radial_4002_1287" cx="0" cy="0" r="1" gradientTransform="matrix(-2.89062 2.15625 -2.03255 -2.7248 17.192 9.788)" gradientUnits="userSpaceOnUse"><stop offset=".288" stop-color="#C47001"/><stop offset="1" stop-color="#F6A510" stop-opacity="0"/></radialGradient><radialGradient id="paint9_radial_4002_1287" cx="0" cy="0" r="1" gradientTransform="rotate(-169.33 10.038 5.616) scale(1.48709 1.90039)" gradientUnits="userSpaceOnUse"><stop offset=".219" stop-color="#FFC724"/><stop offset="1" stop-color="#FFC724" stop-opacity="0"/></radialGradient><radialGradient id="paint10_radial_4002_1287" cx="0" cy="0" r="1" gradientTransform="matrix(0 2.35937 -1.53125 0 19.786 10.695)" gradientUnits="userSpaceOnUse"><stop stop-color="#E89A05"/><stop offset="1" stop-color="#FEC026" stop-opacity="0"/></radialGradient><radialGradient id="paint11_radial_4002_1287" cx="0" cy="0" r="1" gradientTransform="matrix(-.50057 2.1394 -2.54146 -.59464 20.716 7.687)" gradientUnits="userSpaceOnUse"><stop offset=".043" stop-color="#FFC135"/><stop offset="1" stop-color="#E26839"/></radialGradient><radialGradient id="paint12_radial_4002_1287" cx="0" cy="0" r="1" gradientTransform="matrix(.16832 .23084 -.1961 .14299 20.288 7.84)" gradientUnits="userSpaceOnUse"><stop stop-color="#E18C2A"/><stop offset="1" stop-color="#E18C2A" stop-opacity="0"/></radialGradient><radialGradient id="paint13_radial_4002_1287" cx="0" cy="0" r="1" gradientTransform="matrix(.76496 2.25141 -1.02337 .34771 14.348 7.754)" gradientUnits="userSpaceOnUse"><stop stop-color="#D57A26"/><stop offset="1" stop-color="#D06A3C"/></radialGradient><radialGradient id="paint14_radial_4002_1287" cx="0" cy="0" r="1" gradientTransform="matrix(.18275 .57228 -.50201 .1603 14.728 7.75)" gradientUnits="userSpaceOnUse"><stop offset=".263" stop-color="#BE691E"/><stop offset=".977" stop-color="#BE691E" stop-opacity="0"/></radialGradient><radialGradient id="paint15_radial_4002_1287" cx="0" cy="0" r="1" gradientTransform="matrix(-2.99992 0 0 -5.40698 19.143 7.147)" gradientUnits="userSpaceOnUse"><stop offset=".141" stop-color="#FFE846"/><stop offset="1" stop-color="#F5A129"/></radialGradient><radialGradient id="paint16_radial_4002_1287" cx="0" cy="0" r="1" gradientTransform="matrix(-.57059 4.92453 -5.1393 -.59547 18.13 5.913)" gradientUnits="userSpaceOnUse"><stop offset=".683" stop-color="#F7A229" stop-opacity="0"/><stop offset=".984" stop-color="#DA8723"/></radialGradient><radialGradient id="paint17_radial_4002_1287" cx="0" cy="0" r="1" gradientTransform="matrix(0 -.81132 .97679 0 16.332 6.47)" gradientUnits="userSpaceOnUse"><stop offset=".276" stop-color="#F59632"/><stop offset="1" stop-color="#F59632" stop-opacity="0"/></radialGradient><radialGradient id="paint18_radial_4002_1287" cx="0" cy="0" r="1" gradientTransform="matrix(0 -.88097 1.14265 0 18.96 6.233)" gradientUnits="userSpaceOnUse"><stop offset=".178" stop-color="#FFBE3A"/><stop offset="1" stop-color="#FFBE3A" stop-opacity="0"/></radialGradient><radialGradient id="paint23_radial_4002_1287" cx="0" cy="0" r="1" gradientTransform="matrix(0 -.41358 1.66395 0 17.532 9.177)" gradientUnits="userSpaceOnUse"><stop stop-color="#89014E"/><stop offset="1" stop-color="#87004D"/></radialGradient><radialGradient id="paint25_radial_4002_1287" cx="0" cy="0" r="1" gradientTransform="matrix(0 -3.28174 5.8146 0 14.531 6.239)" gradientUnits="userSpaceOnUse"><stop offset=".315" stop-color="#C98537"/><stop offset="1" stop-color="#C98537" stop-opacity="0"/></radialGradient><radialGradient id="paint26_radial_4002_1287" cx="0" cy="0" r="1" gradientTransform="matrix(0 -2.08454 3.69339 0 20.321 6.239)" gradientUnits="userSpaceOnUse"><stop stop-color="#FFB52A"/><stop offset="1" stop-color="#FFB52A" stop-opacity="0"/></radialGradient><radialGradient id="paint27_radial_4002_1287" cx="0" cy="0" r="1" gradientTransform="rotate(-160.666 10.169 -.375) scale(2.49729 1.32998)" gradientUnits="userSpaceOnUse"><stop offset=".347" stop-color="#FFE639"/><stop offset="1" stop-color="#FFE639" stop-opacity="0"/></radialGradient><radialGradient id="paint28_radial_4002_1287" cx="0" cy="0" r="1" gradientTransform="matrix(.51938 .8464 -1.95987 1.20265 17.013 1.723)" gradientUnits="userSpaceOnUse"><stop offset=".287" stop-color="#F3C130"/><stop offset="1" stop-color="#F3C130" stop-opacity="0"/></radialGradient><radialGradient id="paint29_radial_4002_1287" cx="0" cy="0" r="1" gradientTransform="matrix(-2.18454 .7882 -.21938 -.608 17.678 2.551)" gradientUnits="userSpaceOnUse"><stop stop-color="#FFDD30"/><stop offset="1" stop-color="#FFDC2B" stop-opacity="0"/></radialGradient><radialGradient id="paint30_radial_4002_1287" cx="0" cy="0" r="1" gradientTransform="matrix(1.8467 -2.92394 3.23942 2.04595 14.416 5.282)" gradientUnits="userSpaceOnUse"><stop offset=".093" stop-color="#D67227"/><stop offset=".233" stop-color="#EF8A23"/><stop offset="1" stop-color="#EF8A23" stop-opacity="0"/></radialGradient><radialGradient id="paint31_radial_4002_1287" cx="0" cy="0" r="1" gradientTransform="matrix(1.94288 .45954 -.257 1.08659 19.61 3.217)" gradientUnits="userSpaceOnUse"><stop stop-color="#FFEB3B"/><stop offset="1" stop-color="#FFEB3B" stop-opacity="0"/></radialGradient><radialGradient id="paint32_radial_4002_1287" cx="0" cy="0" r="1" gradientTransform="matrix(-1.23294 -2.12531 1.18527 -.6876 20.475 5.86)" gradientUnits="userSpaceOnUse"><stop stop-color="#EB8F29"/><stop offset="1" stop-color="#EB8F29" stop-opacity="0"/></radialGradient><radialGradient id="paint33_radial_4002_1287" cx="0" cy="0" r="1" gradientTransform="matrix(-.7502 -1.26375 .90517 -.53734 20.12 5.687)" gradientUnits="userSpaceOnUse"><stop offset=".394" stop-color="#E48421"/><stop offset="1" stop-color="#E48421" stop-opacity="0"/></radialGradient><radialGradient id="paint34_radial_4002_1287" cx="0" cy="0" r="1" gradientTransform="matrix(-2.7535 .6606 -.71413 -2.97664 20.283 3.15)" gradientUnits="userSpaceOnUse"><stop offset=".735" stop-color="#F29415" stop-opacity="0"/><stop offset="1" stop-color="#F29415"/></radialGradient><radialGradient id="paint35_radial_4002_1287" cx="0" cy="0" r="1" gradientTransform="matrix(0 .46556 -.74053 0 18.784 6.62)" gradientUnits="userSpaceOnUse"><stop offset=".802" stop-color="#925C51"/><stop offset="1" stop-color="#694B43"/><stop offset="1" stop-color="#804D49"/><stop offset="1" stop-color="#85534D"/></radialGradient><radialGradient id="paint36_radial_4002_1287" cx="0" cy="0" r="1" gradientTransform="matrix(-.13284 -.17118 .23568 -.1829 18.653 6.67)" gradientUnits="userSpaceOnUse"><stop offset=".766" stop-color="#FFE6E2" stop-opacity="0"/><stop offset=".966" stop-color="#FFE6E2"/></radialGradient><radialGradient id="paint38_radial_4002_1287" cx="0" cy="0" r="1" gradientTransform="matrix(0 .46559 -.74057 0 16.28 6.62)" gradientUnits="userSpaceOnUse"><stop offset=".802" stop-color="#925C51"/><stop offset="1" stop-color="#694B43"/><stop offset="1" stop-color="#804D49"/><stop offset="1" stop-color="#85534D"/></radialGradient><radialGradient id="paint40_radial_4002_1287" cx="0" cy="0" r="1" gradientTransform="matrix(-.00443 -.283 .34019 -.00533 16.115 6.746)" gradientUnits="userSpaceOnUse"><stop offset=".766" stop-color="#FFE6E2" stop-opacity="0"/><stop offset=".966" stop-color="#FFE6E2"/></radialGradient><radialGradient id="paint42_radial_4002_1287" cx="0" cy="0" r="1" gradientTransform="matrix(.36068 1.28726 -1.22815 .34412 20.182 6.629)" gradientUnits="userSpaceOnUse"><stop offset=".856" stop-color="#E1943D" stop-opacity="0"/><stop offset="1" stop-color="#E08F2E"/></radialGradient><radialGradient id="paint43_radial_4002_1287" cx="0" cy="0" r="1" gradientTransform="matrix(.45206 -.62037 .52 .37891 20.389 6.941)" gradientUnits="userSpaceOnUse"><stop offset=".664" stop-color="#FFBD22"/><stop offset="1" stop-color="#FFBD22" stop-opacity="0"/></radialGradient><radialGradient id="paint45_radial_4002_1287" cx="0" cy="0" r="1" gradientTransform="matrix(-.23692 1.19129 -1.17115 -.23291 14.512 6.725)" gradientUnits="userSpaceOnUse"><stop offset=".775" stop-color="#C77937" stop-opacity="0"/><stop offset="1" stop-color="#C77937"/></radialGradient><radialGradient id="paint46_radial_4002_1287" cx="0" cy="0" r="1" gradientTransform="matrix(0 6.46875 -5.71107 0 19.177 12.742)" gradientUnits="userSpaceOnUse"><stop offset=".377" stop-color="#FF8738"/><stop offset="1" stop-color="#EB6820"/></radialGradient><radialGradient id="paint47_radial_4002_1287" cx="0" cy="0" r="1" gradientTransform="rotate(58.499 -1.805 23.135) scale(1.85402 1.92266)" gradientUnits="userSpaceOnUse"><stop offset=".221" stop-color="#FF8E3E"/><stop offset="1" stop-color="#FF8E3E" stop-opacity="0"/></radialGradient><radialGradient id="paint49_radial_4002_1287" cx="0" cy="0" r="1" gradientTransform="matrix(-4.00003 -7.0781 9.3879 -5.30536 19.333 16.96)" gradientUnits="userSpaceOnUse"><stop offset=".786" stop-color="#E15C10" stop-opacity="0"/><stop offset="1" stop-color="#E15C10"/></radialGradient><filter id="filter0_ii_4002_1287" width="16.97" height="13.626" x="7.639" y="16.304" color-interpolation-filters="sRGB" filterUnits="userSpaceOnUse"><feFlood flood-opacity="0" result="BackgroundImageFix"/><feBlend in="SourceGraphic" in2="BackgroundImageFix" result="shape"/><feColorMatrix in="SourceAlpha" result="hardAlpha" values="0 0 0 0 0 0 0 0 0 0 0 0 0 0 0 0 0 0 127 0"/><feOffset dx="1.25"/><feGaussianBlur stdDeviation="1.25"/><feComposite in2="hardAlpha" k2="-1" k3="1" operator="arithmetic"/><feColorMatrix values="0 0 0 0 0.223529 0 0 0 0 0.623529 0 0 0 0 0.317647 0 0 0 1 0"/><feBlend in2="shape" result="effect1_innerShadow_4002_1287"/><feColorMatrix in="SourceAlpha" result="hardAlpha" values="0 0 0 0 0 0 0 0 0 0 0 0 0 0 0 0 0 0 127 0"/><feOffset dy="-.25"/><feGaussianBlur stdDeviation=".5"/><feComposite in2="hardAlpha" k2="-1" k3="1" operator="arithmetic"/><feColorMatrix values="0 0 0 0 0.313726 0 0 0 0 0.576471 0 0 0 0 0.541176 0 0 0 1 0"/><feBlend in2="effect1_innerShadow_4002_1287" result="effect2_innerShadow_4002_1287"/></filter><filter id="filter1_f_4002_1287" width="8.803" height="12.453" x="15.083" y="15.257" color-interpolation-filters="sRGB" filterUnits="userSpaceOnUse"><feFlood flood-opacity="0" result="BackgroundImageFix"/><feBlend in="SourceGraphic" in2="BackgroundImageFix" result="shape"/><feGaussianBlur result="effect1_foregroundBlur_4002_1287" stdDeviation=".5"/></filter><filter id="filter2_ii_4002_1287" width="9.329" height="6.572" x="5.433" y="10.796" color-interpolation-filters="sRGB" filterUnits="userSpaceOnUse"><feFlood flood-opacity="0" result="BackgroundImageFix"/><feBlend in="SourceGraphic" in2="BackgroundImageFix" result="shape"/><feColorMatrix in="SourceAlpha" result="hardAlpha" values="0 0 0 0 0 0 0 0 0 0 0 0 0 0 0 0 0 0 127 0"/><feOffset dx=".25"/><feGaussianBlur stdDeviation=".375"/><feComposite in2="hardAlpha" k2="-1" k3="1" operator="arithmetic"/><feColorMatrix values="0 0 0 0 0.823529 0 0 0 0 0.611765 0 0 0 0 0.2 0 0 0 1 0"/><feBlend in2="shape" result="effect1_innerShadow_4002_1287"/><feColorMatrix in="SourceAlpha" result="hardAlpha" values="0 0 0 0 0 0 0 0 0 0 0 0 0 0 0 0 0 0 127 0"/><feOffset dx="-.25"/><feGaussianBlur stdDeviation=".375"/><feComposite in2="hardAlpha" k2="-1" k3="1" operator="arithmetic"/><feColorMatrix values="0 0 0 0 0.788235 0 0 0 0 0.509804 0 0 0 0 0.333333 0 0 0 1 0"/><feBlend in2="effect1_innerShadow_4002_1287" result="effect2_innerShadow_4002_1287"/></filter><filter id="filter3_i_4002_1287" width="5.98" height="8.393" x="20.337" y="7.046" color-interpolation-filters="sRGB" filterUnits="userSpaceOnUse"><feFlood flood-opacity="0" result="BackgroundImageFix"/><feBlend in="SourceGraphic" in2="BackgroundImageFix" result="shape"/><feColorMatrix in="SourceAlpha" result="hardAlpha" values="0 0 0 0 0 0 0 0 0 0 0 0 0 0 0 0 0 0 127 0"/><feOffset dy="-.25"/><feGaussianBlur stdDeviation=".375"/><feComposite in2="hardAlpha" k2="-1" k3="1" operator="arithmetic"/><feColorMatrix values="0 0 0 0 0.803922 0 0 0 0 0.529412 0 0 0 0 0.329412 0 0 0 1 0"/><feBlend in2="shape" result="effect1_innerShadow_4002_1287"/></filter><filter id="filter4_i_4002_1287" width="1.41" height="1.949" x="24.485" y="7.263" color-interpolation-filters="sRGB" filterUnits="userSpaceOnUse"><feFlood flood-opacity="0" result="BackgroundImageFix"/><feBlend in="SourceGraphic" in2="BackgroundImageFix" result="shape"/><feColorMatrix in="SourceAlpha" result="hardAlpha" values="0 0 0 0 0 0 0 0 0 0 0 0 0 0 0 0 0 0 127 0"/><feOffset dx=".1"/><feGaussianBlur stdDeviation=".125"/><feComposite in2="hardAlpha" k2="-1" k3="1" operator="arithmetic"/><feColorMatrix values="0 0 0 0 0.835294 0 0 0 0 0.607843 0 0 0 0 0.156863 0 0 0 1 0"/><feBlend in2="shape" result="effect1_innerShadow_4002_1287"/></filter><filter id="filter5_i_4002_1287" width="6.015" height="7.082" x="14.627" y="3.606" color-interpolation-filters="sRGB" filterUnits="userSpaceOnUse"><feFlood flood-opacity="0" result="BackgroundImageFix"/><feBlend in="SourceGraphic" in2="BackgroundImageFix" result="shape"/><feColorMatrix in="SourceAlpha" result="hardAlpha" values="0 0 0 0 0 0 0 0 0 0 0 0 0 0 0 0 0 0 127 0"/><feOffset dx=".15"/><feGaussianBlur stdDeviation=".15"/><feComposite in2="hardAlpha" k2="-1" k3="1" operator="arithmetic"/><feColorMatrix values="0 0 0 0 0.823529 0 0 0 0 0.623529 0 0 0 0 0.313726 0 0 0 1 0"/><feBlend in2="shape" result="effect1_innerShadow_4002_1287"/></filter><filter id="filter6_f_4002_1287" width="3.077" height="3.664" x="15.874" y="5.673" color-interpolation-filters="sRGB" filterUnits="userSpaceOnUse"><feFlood flood-opacity="0" result="BackgroundImageFix"/><feBlend in="SourceGraphic" in2="BackgroundImageFix" result="shape"/><feGaussianBlur result="effect1_foregroundBlur_4002_1287" stdDeviation=".5"/></filter><filter id="filter7_f_4002_1287" width="1.277" height="1.864" x="16.894" y="6.461" color-interpolation-filters="sRGB" filterUnits="userSpaceOnUse"><feFlood flood-opacity="0" result="BackgroundImageFix"/><feBlend in="SourceGraphic" in2="BackgroundImageFix" result="shape"/><feGaussianBlur result="effect1_foregroundBlur_4002_1287" stdDeviation=".05"/></filter><filter id="filter8_ii_4002_1287" width="7.387" height="5.008" x="13.839" y="1.57" color-interpolation-filters="sRGB" filterUnits="userSpaceOnUse"><feFlood flood-opacity="0" result="BackgroundImageFix"/><feBlend in="SourceGraphic" in2="BackgroundImageFix" result="shape"/><feColorMatrix in="SourceAlpha" result="hardAlpha" values="0 0 0 0 0 0 0 0 0 0 0 0 0 0 0 0 0 0 127 0"/><feOffset dy="-.5"/><feGaussianBlur stdDeviation=".625"/><feComposite in2="hardAlpha" k2="-1" k3="1" operator="arithmetic"/><feColorMatrix values="0 0 0 0 0.945098 0 0 0 0 0.509804 0 0 0 0 0.0627451 0 0 0 1 0"/><feBlend in2="shape" result="effect1_innerShadow_4002_1287"/><feColorMatrix in="SourceAlpha" result="hardAlpha" values="0 0 0 0 0 0 0 0 0 0 0 0 0 0 0 0 0 0 127 0"/><feOffset dy="-.2"/><feGaussianBlur stdDeviation=".2"/><feComposite in2="hardAlpha" k2="-1" k3="1" operator="arithmetic"/><feColorMatrix values="0 0 0 0 0.862745 0 0 0 0 0.486275 0 0 0 0 0.0470588 0 0 0 1 0"/><feBlend in2="effect1_innerShadow_4002_1287" result="effect2_innerShadow_4002_1287"/></filter><filter id="filter9_i_4002_1287" width="1.385" height=".768" x="18.444" y="4.948" color-interpolation-filters="sRGB" filterUnits="userSpaceOnUse"><feFlood flood-opacity="0" result="BackgroundImageFix"/><feBlend in="SourceGraphic" in2="BackgroundImageFix" result="shape"/><feColorMatrix in="SourceAlpha" result="hardAlpha" values="0 0 0 0 0 0 0 0 0 0 0 0 0 0 0 0 0 0 127 0"/><feOffset dx=".1" dy="-.2"/><feGaussianBlur stdDeviation=".125"/><feComposite in2="hardAlpha" k2="-1" k3="1" operator="arithmetic"/><feColorMatrix values="0 0 0 0 0.603922 0 0 0 0 0.243137 0 0 0 0 0.152941 0 0 0 1 0"/><feBlend in2="shape" result="effect1_innerShadow_4002_1287"/></filter><filter id="filter10_i_4002_1287" width="1.385" height=".76" x="15.428" y="4.956" color-interpolation-filters="sRGB" filterUnits="userSpaceOnUse"><feFlood flood-opacity="0" result="BackgroundImageFix"/><feBlend in="SourceGraphic" in2="BackgroundImageFix" result="shape"/><feColorMatrix in="SourceAlpha" result="hardAlpha" values="0 0 0 0 0 0 0 0 0 0 0 0 0 0 0 0 0 0 127 0"/><feOffset dx=".1" dy="-.2"/><feGaussianBlur stdDeviation=".125"/><feComposite in2="hardAlpha" k2="-1" k3="1" operator="arithmetic"/><feColorMatrix values="0 0 0 0 0.603922 0 0 0 0 0.243137 0 0 0 0 0.152941 0 0 0 1 0"/><feBlend in2="shape" result="effect1_innerShadow_4002_1287"/></filter><filter id="filter11_f_4002_1287" width="3.691" height="3.344" x="14.086" y="2.459" color-interpolation-filters="sRGB" filterUnits="userSpaceOnUse"><feFlood flood-opacity="0" result="BackgroundImageFix"/><feBlend in="SourceGraphic" in2="BackgroundImageFix" result="shape"/><feGaussianBlur result="effect1_foregroundBlur_4002_1287" stdDeviation=".05"/></filter><filter id="filter12_f_4002_1287" width="3.582" height="3.224" x="17.465" y="2.735" color-interpolation-filters="sRGB" filterUnits="userSpaceOnUse"><feFlood flood-opacity="0" result="BackgroundImageFix"/><feBlend in="SourceGraphic" in2="BackgroundImageFix" result="shape"/><feGaussianBlur result="effect1_foregroundBlur_4002_1287" stdDeviation=".05"/></filter><filter id="filter13_f_4002_1287" width=".536" height=".484" x="18.32" y="6.326" color-interpolation-filters="sRGB" filterUnits="userSpaceOnUse"><feFlood flood-opacity="0" result="BackgroundImageFix"/><feBlend in="SourceGraphic" in2="BackgroundImageFix" result="shape"/><feGaussianBlur result="effect1_foregroundBlur_4002_1287" stdDeviation=".05"/></filter><filter id="filter14_f_4002_1287" width=".681" height=".694" x="18.759" y="6.326" color-interpolation-filters="sRGB" filterUnits="userSpaceOnUse"><feFlood flood-opacity="0" result="BackgroundImageFix"/><feBlend in="SourceGraphic" in2="BackgroundImageFix" result="shape"/><feGaussianBlur result="effect1_foregroundBlur_4002_1287" stdDeviation=".1"/></filter><filter id="filter15_f_4002_1287" width=".736" height=".767" x="16.21" y="6.29" color-interpolation-filters="sRGB" filterUnits="userSpaceOnUse"><feFlood flood-opacity="0" result="BackgroundImageFix"/><feBlend in="SourceGraphic" in2="BackgroundImageFix" result="shape"/><feGaussianBlur result="effect1_foregroundBlur_4002_1287" stdDeviation=".1"/></filter><filter id="filter16_f_4002_1287" width=".608" height=".489" x="15.82" y="6.322" color-interpolation-filters="sRGB" filterUnits="userSpaceOnUse"><feFlood flood-opacity="0" result="BackgroundImageFix"/><feBlend in="SourceGraphic" in2="BackgroundImageFix" result="shape"/><feGaussianBlur result="effect1_foregroundBlur_4002_1287" stdDeviation=".05"/></filter><filter id="filter17_f_4002_1287" width=".776" height="1.378" x="14.064" y="6.309" color-interpolation-filters="sRGB" filterUnits="userSpaceOnUse"><feFlood flood-opacity="0" result="BackgroundImageFix"/><feBlend in="SourceGraphic" in2="BackgroundImageFix" result="shape"/><feGaussianBlur result="effect1_foregroundBlur_4002_1287" stdDeviation=".075"/></filter><filter id="filter18_f_4002_1287" width=".843" height="1.392" x="20.229" y="6.3" color-interpolation-filters="sRGB" filterUnits="userSpaceOnUse"><feFlood flood-opacity="0" result="BackgroundImageFix"/><feBlend in="SourceGraphic" in2="BackgroundImageFix" result="shape"/><feGaussianBlur result="effect1_foregroundBlur_4002_1287" stdDeviation=".075"/></filter><filter id="filter19_f_4002_1287" width="1.25" height=".535" x="15.446" y="5.149" color-interpolation-filters="sRGB" filterUnits="userSpaceOnUse"><feFlood flood-opacity="0" result="BackgroundImageFix"/><feBlend in="SourceGraphic" in2="BackgroundImageFix" result="shape"/><feGaussianBlur result="effect1_foregroundBlur_4002_1287" stdDeviation=".05"/></filter><filter id="filter20_f_4002_1287" width="1.25" height=".535" x="18.476" y="5.123" color-interpolation-filters="sRGB" filterUnits="userSpaceOnUse"><feFlood flood-opacity="0" result="BackgroundImageFix"/><feBlend in="SourceGraphic" in2="BackgroundImageFix" result="shape"/><feGaussianBlur result="effect1_foregroundBlur_4002_1287" stdDeviation=".05"/></filter><filter id="filter21_i_4002_1287" width="6.555" height="7.624" x="14.255" y="10.454" color-interpolation-filters="sRGB" filterUnits="userSpaceOnUse"><feFlood flood-opacity="0" result="BackgroundImageFix"/><feBlend in="SourceGraphic" in2="BackgroundImageFix" result="shape"/><feColorMatrix in="SourceAlpha" result="hardAlpha" values="0 0 0 0 0 0 0 0 0 0 0 0 0 0 0 0 0 0 127 0"/><feOffset dy=".2"/><feGaussianBlur stdDeviation=".15"/><feComposite in2="hardAlpha" k2="-1" k3="1" operator="arithmetic"/><feColorMatrix values="0 0 0 0 1 0 0 0 0 0.470588 0 0 0 0 0.0117647 0 0 0 1 0"/><feBlend in2="shape" result="effect1_innerShadow_4002_1287"/></filter><filter id="filter22_f_4002_1287" width="11.112" height="3.615" x="10.829" y="25.843" color-interpolation-filters="sRGB" filterUnits="userSpaceOnUse"><feFlood flood-opacity="0" result="BackgroundImageFix"/><feBlend in="SourceGraphic" in2="BackgroundImageFix" result="shape"/><feGaussianBlur result="effect1_foregroundBlur_4002_1287" stdDeviation=".2"/></filter><filter id="filter23_f_4002_1287" width="3.297" height="3.17" x="8.245" y="23.873" color-interpolation-filters="sRGB" filterUnits="userSpaceOnUse"><feFlood flood-opacity="0" result="BackgroundImageFix"/><feBlend in="SourceGraphic" in2="BackgroundImageFix" result="shape"/><feGaussianBlur result="effect1_foregroundBlur_4002_1287" stdDeviation=".2"/></filter><filter id="filter24_f_4002_1287" width="3.085" height="3.032" x="11.506" y="23.355" color-interpolation-filters="sRGB" filterUnits="userSpaceOnUse"><feFlood flood-opacity="0" result="BackgroundImageFix"/><feBlend in="SourceGraphic" in2="BackgroundImageFix" result="shape"/><feGaussianBlur result="effect1_foregroundBlur_4002_1287" stdDeviation=".2"/></filter><linearGradient id="paint3_linear_4002_1287" x1="8.177" x2="13.645" y1="16.679" y2="13.429" gradientUnits="userSpaceOnUse"><stop stop-color="#FFBA30"/><stop offset="1" stop-color="#FDB332"/></linearGradient><linearGradient id="paint19_linear_4002_1287" x1="17.532" x2="18.023" y1="7.622" y2="7.622" gradientUnits="userSpaceOnUse"><stop stop-color="#FFC92F"/><stop offset="1" stop-color="#FFEA47"/></linearGradient><linearGradient id="paint20_linear_4002_1287" x1="16.917" x2="17.533" y1="7.533" y2="7.567" gradientUnits="userSpaceOnUse"><stop stop-color="#F49F22"/><stop offset="1" stop-color="#E88830" stop-opacity="0"/><stop offset="1" stop-color="#F49F22" stop-opacity="0"/></linearGradient><linearGradient id="paint21_linear_4002_1287" x1="17.532" x2="17.532" y1="7.851" y2="8.34" gradientUnits="userSpaceOnUse"><stop stop-color="#E88830" stop-opacity="0"/><stop offset=".845" stop-color="#E88830"/></linearGradient><linearGradient id="paint22_linear_4002_1287" x1="17.532" x2="17.532" y1="6.561" y2="6.802" gradientUnits="userSpaceOnUse"><stop stop-color="#FAC137"/><stop offset="1" stop-color="#FAC137" stop-opacity="0"/></linearGradient><linearGradient id="paint24_linear_4002_1287" x1="20.61" x2="14.8" y1="3.897" y2="3.897" gradientUnits="userSpaceOnUse"><stop stop-color="#FFE235"/><stop offset="1" stop-color="#D29935"/></linearGradient><linearGradient id="paint37_linear_4002_1287" x1="19.23" x2="19.05" y1="6.652" y2="6.762" gradientUnits="userSpaceOnUse"><stop stop-color="#B4948D"/><stop offset="1" stop-color="#B4948D" stop-opacity="0"/></linearGradient><linearGradient id="paint39_linear_4002_1287" x1="16.706" x2="16.526" y1="6.651" y2="6.762" gradientUnits="userSpaceOnUse"><stop stop-color="#B4948D"/><stop offset="1" stop-color="#B4948D" stop-opacity="0"/></linearGradient><linearGradient id="paint41_linear_4002_1287" x1="21.226" x2="20.533" y1="6.667" y2="7.916" gradientUnits="userSpaceOnUse"><stop stop-color="#FFE343"/><stop offset="1" stop-color="#FFC136"/></linearGradient><linearGradient id="paint44_linear_4002_1287" x1="14.175" x2="15.012" y1="7.071" y2="6.998" gradientUnits="userSpaceOnUse"><stop stop-color="#E39726"/><stop offset="1" stop-color="#D9851D"/></linearGradient><linearGradient id="paint48_linear_4002_1287" x1="13.802" x2="15.755" y1="16.085" y2="16.085" gradientUnits="userSpaceOnUse"><stop stop-color="#DB6229"/><stop offset="1" stop-color="#FB711E" stop-opacity="0"/></linearGradient><linearGradient id="paint50_linear_4002_1287" x1="11.768" x2="20.875" y1="27.015" y2="28.857" gradientUnits="userSpaceOnUse"><stop stop-color="#40B87C"/><stop offset="1" stop-color="#40B87C" stop-opacity="0"/></linearGradient><linearGradient id="paint51_linear_4002_1287" x1="10.518" x2="8.203" y1="25.808" y2="25.435" gradientUnits="userSpaceOnUse"><stop offset=".302" stop-color="#40B87C"/><stop offset="1" stop-color="#40B87C" stop-opacity="0"/></linearGradient><linearGradient id="paint52_linear_4002_1287" x1="14.013" x2="13.482" y1="24.145" y2="26.255" gradientUnits="userSpaceOnUse"><stop stop-color="#40B87C"/><stop offset="1" stop-color="#40B87C" stop-opacity="0"/></linearGradient></defs></svg>