<svg xmlns="http://www.w3.org/2000/svg" width="32" height="32" fill="none" viewBox="0 0 32 32"><path stroke="#DACAEC" stroke-width="3.4" d="m22.66 17.098-9.737 9.661"/><path stroke="url(#paint0_linear_18_26095)" stroke-width="3.4" d="m22.66 17.098-9.737 9.661"/><path stroke="url(#paint1_radial_18_26095)" stroke-width="3.4" d="m22.66 17.098-9.737 9.661"/><g filter="url(#filter0_ii_18_26095)"><path fill="#D0C5DD" fill-rule="evenodd" d="M13.627 8.42 4.38 17.59l.007.007a7.116 7.116 0 1 0 6.5-1.671l5.135-5.093-2.394-2.414ZM5.48 22.84a3.716 3.716 0 1 1 7.433 0 3.716 3.716 0 0 1-7.433 0Z" clip-rule="evenodd"/></g><path fill="url(#paint2_linear_18_26095)" d="m13.852 12.986-.013-.013-2.953 2.954-4.02 4.02a3.716 3.716 0 0 1 4.791 5.68l2.407 2.406a7.12 7.12 0 0 0-3.178-12.106l2.966-2.942Z"/><path fill="url(#paint3_radial_18_26095)" d="m13.852 12.986-.013-.013-2.953 2.954-4.02 4.02a3.716 3.716 0 0 1 4.791 5.68l2.407 2.406a7.12 7.12 0 0 0-3.178-12.106l2.966-2.942Z"/><path fill="url(#paint4_linear_18_26095)" d="M16 10.813 13.627 8.42 4.38 17.59l.007.007a7.114 7.114 0 0 0-2.073 3.433l3.5-2.125.49 1.604a3.73 3.73 0 0 1 .563-.563L16 10.813Z"/><path fill="url(#paint5_linear_18_26095)" d="M16 10.813 13.627 8.42 4.38 17.59l.007.007a7.114 7.114 0 0 0-2.073 3.433l3.5-2.125.49 1.604a3.73 3.73 0 0 1 .563-.563L16 10.813Z"/><g filter="url(#filter1_f_18_26095)"><path stroke="url(#paint6_linear_18_26095)" d="M14.719 9.402 5.47 18.573"/></g><g filter="url(#filter2_f_18_26095)"><circle cx="9.303" cy="22.616" r="5.416" stroke="url(#paint7_linear_18_26095)"/></g><g filter="url(#filter3_i_18_26095)"><path fill="url(#paint8_linear_18_26095)" d="M16.12 4.407a8 8 0 0 1 11.314 0l.124.124a8 8 0 0 1 .198 11.108l-.002.025c-1.422 1.422-2.837 2.873-4.242 4.28a.25.25 0 0 1-.353.001l-3.53-3.515.008-.008-.48-.48a3.697 3.697 0 1 1 5.234-5.221l.138.122c.09.08.23.06.272-.052.267-.73-.166-2.027-.883-2.744a2.895 2.895 0 0 0-4.094 0l-2.345 2.344a2.75 2.75 0 0 1-3.889 0l-1.55-1.55a.25.25 0 0 1 0-.354l4.08-4.08Z"/><path fill="url(#paint9_linear_18_26095)" d="M16.12 4.407a8 8 0 0 1 11.314 0l.124.124a8 8 0 0 1 .198 11.108l-.002.025c-1.422 1.422-2.837 2.873-4.242 4.28a.25.25 0 0 1-.353.001l-3.53-3.515.008-.008-.48-.48a3.697 3.697 0 1 1 5.234-5.221l.138.122c.09.08.23.06.272-.052.267-.73-.166-2.027-.883-2.744a2.895 2.895 0 0 0-4.094 0l-2.345 2.344a2.75 2.75 0 0 1-3.889 0l-1.55-1.55a.25.25 0 0 1 0-.354l4.08-4.08Z"/></g><path fill="url(#paint10_radial_18_26095)" d="M16.12 4.407a8 8 0 0 1 11.314 0l.124.124a8 8 0 0 1 .198 11.108l-.002.025c-1.422 1.422-2.837 2.873-4.242 4.28a.25.25 0 0 1-.353.001l-3.53-3.515.008-.008-.48-.48a3.697 3.697 0 1 1 5.234-5.221l.138.122c.09.08.23.06.272-.052.267-.73-.166-2.027-.883-2.744a2.895 2.895 0 0 0-4.094 0l-2.345 2.344a2.75 2.75 0 0 1-3.889 0l-1.55-1.55a.25.25 0 0 1 0-.354l4.08-4.08Z"/><defs><linearGradient id="paint0_linear_18_26095" x1="16.625" x2="19.281" y1="19.625" y2="22.438" gradientUnits="userSpaceOnUse"><stop offset=".181" stop-color="#93919B"/><stop offset="1" stop-color="#C7BBD6" stop-opacity="0"/></linearGradient><linearGradient id="paint2_linear_18_26095" x1="6.094" x2="9.886" y1="20.503" y2="20.852" gradientUnits="userSpaceOnUse"><stop offset=".152" stop-color="#B9A5CD"/><stop offset="1" stop-color="#B9A5CD" stop-opacity="0"/></linearGradient><linearGradient id="paint4_linear_18_26095" x1="15.688" x2="13.922" y1="11" y2="12.766" gradientUnits="userSpaceOnUse"><stop stop-color="#B4A0C9"/><stop offset="1" stop-color="#B4A0C9" stop-opacity="0"/></linearGradient><linearGradient id="paint5_linear_18_26095" x1="11.75" x2="10.219" y1="16.5" y2="14.969" gradientUnits="userSpaceOnUse"><stop offset=".398" stop-color="#C5B5D8"/><stop offset="1" stop-color="#C5B5D8" stop-opacity="0"/></linearGradient><linearGradient id="paint6_linear_18_26095" x1="3.688" x2="9.475" y1="15.75" y2="17.192" gradientUnits="userSpaceOnUse"><stop stop-color="#DFD4EC"/><stop offset="1" stop-color="#DFD4EC" stop-opacity="0"/></linearGradient><linearGradient id="paint7_linear_18_26095" x1="6.563" x2="9.303" y1="25.875" y2="16.875" gradientUnits="userSpaceOnUse"><stop stop-color="#DFD4EC"/><stop offset="1" stop-color="#DFD4EC" stop-opacity="0"/></linearGradient><linearGradient id="paint8_linear_18_26095" x1="20.934" x2="16.63" y1="10.03" y2="5.037" gradientUnits="userSpaceOnUse"><stop stop-color="#CEC2DD"/><stop offset="1" stop-color="#B5AFBF"/></linearGradient><linearGradient id="paint9_linear_18_26095" x1="12.563" x2="15.344" y1="7.188" y2="9.344" gradientUnits="userSpaceOnUse"><stop offset=".127" stop-color="#9C9B9F"/><stop offset="1" stop-color="#B0ABB8" stop-opacity="0"/></linearGradient><filter id="filter0_ii_18_26095" width="14.883" height="22.188" x="2.08" y="7.77" color-interpolation-filters="sRGB" filterUnits="userSpaceOnUse"><feFlood flood-opacity="0" result="BackgroundImageFix"/><feBlend in="SourceGraphic" in2="BackgroundImageFix" result="shape"/><feColorMatrix in="SourceAlpha" result="hardAlpha" values="0 0 0 0 0 0 0 0 0 0 0 0 0 0 0 0 0 0 127 0"/><feOffset dx=".65"/><feGaussianBlur stdDeviation=".6"/><feComposite in2="hardAlpha" k2="-1" k3="1" operator="arithmetic"/><feColorMatrix values="0 0 0 0 0.635294 0 0 0 0 0.631373 0 0 0 0 0.647059 0 0 0 1 0"/><feBlend in2="shape" result="effect1_innerShadow_18_26095"/><feColorMatrix in="SourceAlpha" result="hardAlpha" values="0 0 0 0 0 0 0 0 0 0 0 0 0 0 0 0 0 0 127 0"/><feOffset dy="-.65"/><feGaussianBlur stdDeviation=".6"/><feComposite in2="hardAlpha" k2="-1" k3="1" operator="arithmetic"/><feColorMatrix values="0 0 0 0 0.729412 0 0 0 0 0.647059 0 0 0 0 0.811765 0 0 0 1 0"/><feBlend in2="effect1_innerShadow_18_26095" result="effect2_innerShadow_18_26095"/></filter><filter id="filter1_f_18_26095" width="10.952" height="10.881" x="4.619" y="8.547" color-interpolation-filters="sRGB" filterUnits="userSpaceOnUse"><feFlood flood-opacity="0" result="BackgroundImageFix"/><feBlend in="SourceGraphic" in2="BackgroundImageFix" result="shape"/><feGaussianBlur result="effect1_foregroundBlur_18_26095" stdDeviation=".25"/></filter><filter id="filter2_f_18_26095" width="12.833" height="12.833" x="2.886" y="16.2" color-interpolation-filters="sRGB" filterUnits="userSpaceOnUse"><feFlood flood-opacity="0" result="BackgroundImageFix"/><feBlend in="SourceGraphic" in2="BackgroundImageFix" result="shape"/><feGaussianBlur result="effect1_foregroundBlur_18_26095" stdDeviation=".25"/></filter><filter id="filter3_i_18_26095" width="17.934" height="18.204" x="11.967" y="1.814" color-interpolation-filters="sRGB" filterUnits="userSpaceOnUse"><feFlood flood-opacity="0" result="BackgroundImageFix"/><feBlend in="SourceGraphic" in2="BackgroundImageFix" result="shape"/><feColorMatrix in="SourceAlpha" result="hardAlpha" values="0 0 0 0 0 0 0 0 0 0 0 0 0 0 0 0 0 0 127 0"/><feOffset dy="-.25"/><feGaussianBlur stdDeviation=".25"/><feComposite in2="hardAlpha" k2="-1" k3="1" operator="arithmetic"/><feColorMatrix values="0 0 0 0 0.690196 0 0 0 0 0.635294 0 0 0 0 0.752941 0 0 0 1 0"/><feBlend in2="shape" result="effect1_innerShadow_18_26095"/></filter><radialGradient id="paint1_radial_18_26095" cx="0" cy="0" r="1" gradientTransform="matrix(-3.317 3.42898 -2.1829 -2.1116 22.66 18.5)" gradientUnits="userSpaceOnUse"><stop stop-color="#AB93C0"/><stop offset="1" stop-color="#AB93C0" stop-opacity="0"/></radialGradient><radialGradient id="paint3_radial_18_26095" cx="0" cy="0" r="1" gradientTransform="matrix(4.78125 -4.8125 7.32972 7.28214 10.688 22.219)" gradientUnits="userSpaceOnUse"><stop offset=".548" stop-color="#A8A5B0" stop-opacity="0"/><stop offset=".955" stop-color="#A8A5B0"/></radialGradient><radialGradient id="paint10_radial_18_26095" cx="0" cy="0" r="1" gradientTransform="matrix(-8.45099 4.85188 -5.92359 -10.31768 31.304 6.189)" gradientUnits="userSpaceOnUse"><stop offset=".258" stop-color="#E0DFE4"/><stop offset="1" stop-color="#E0DFE4" stop-opacity="0"/></radialGradient></defs></svg>