<svg xmlns="http://www.w3.org/2000/svg" width="32" height="32" fill="none" viewBox="0 0 32 32"><g filter="url(#filter0_i_20020_2831)"><path fill="url(#paint0_radial_20020_2831)" d="M13.88 4.527c.86-1.24 2.597-1.702 3.849-.889a2.657 2.657 0 0 1 .781 3.703l-1.695 2.61h10.53a2.637 2.637 0 1 1 0 5.274h-4.284a2.494 2.494 0 0 1-.344 4.564 2.724 2.724 0 0 1-.884 4.487 2.723 2.723 0 0 1-2.07 4.492h-3.102c-.035 0-.07 0-.104-.002h-4.859c-1.431 0-3.878-.848-6.022-2.51a9.108 9.108 0 0 1-.65-.536 9.206 9.206 0 0 1-3.008-6.833 9.196 9.196 0 0 1 3.945-7.577c.832-.603 1.506-.892 2.175-1.178.513-.22 1.023-.439 1.601-.797.913-.566 1.59-1.4 1.969-1.865l.08-.098v.002l2.093-2.847Z"/><path fill="url(#paint1_radial_20020_2831)" d="M13.88 4.527c.86-1.24 2.597-1.702 3.849-.889a2.657 2.657 0 0 1 .781 3.703l-1.695 2.61h10.53a2.637 2.637 0 1 1 0 5.274h-4.284a2.494 2.494 0 0 1-.344 4.564 2.724 2.724 0 0 1-.884 4.487 2.723 2.723 0 0 1-2.07 4.492h-3.102c-.035 0-.07 0-.104-.002h-4.859c-1.431 0-3.878-.848-6.022-2.51a9.108 9.108 0 0 1-.65-.536 9.206 9.206 0 0 1-3.008-6.833 9.196 9.196 0 0 1 3.945-7.577c.832-.603 1.506-.892 2.175-1.178.513-.22 1.023-.439 1.601-.797.913-.566 1.59-1.4 1.969-1.865l.08-.098v.002l2.093-2.847Z"/><path fill="url(#paint2_radial_20020_2831)" d="M13.88 4.527c.86-1.24 2.597-1.702 3.849-.889a2.657 2.657 0 0 1 .781 3.703l-1.695 2.61h10.53a2.637 2.637 0 1 1 0 5.274h-4.284a2.494 2.494 0 0 1-.344 4.564 2.724 2.724 0 0 1-.884 4.487 2.723 2.723 0 0 1-2.07 4.492h-3.102c-.035 0-.07 0-.104-.002h-4.859c-1.431 0-3.878-.848-6.022-2.51a9.108 9.108 0 0 1-.65-.536 9.206 9.206 0 0 1-3.008-6.833 9.196 9.196 0 0 1 3.945-7.577c.832-.603 1.506-.892 2.175-1.178.513-.22 1.023-.439 1.601-.797.913-.566 1.59-1.4 1.969-1.865l.08-.098v.002l2.093-2.847Z"/><path fill="url(#paint3_radial_20020_2831)" d="M13.88 4.527c.86-1.24 2.597-1.702 3.849-.889a2.657 2.657 0 0 1 .781 3.703l-1.695 2.61h10.53a2.637 2.637 0 1 1 0 5.274h-4.284a2.494 2.494 0 0 1-.344 4.564 2.724 2.724 0 0 1-.884 4.487 2.723 2.723 0 0 1-2.07 4.492h-3.102c-.035 0-.07 0-.104-.002h-4.859c-1.431 0-3.878-.848-6.022-2.51a9.108 9.108 0 0 1-.65-.536 9.206 9.206 0 0 1-3.008-6.833 9.196 9.196 0 0 1 3.945-7.577c.832-.603 1.506-.892 2.175-1.178.513-.22 1.023-.439 1.601-.797.913-.566 1.59-1.4 1.969-1.865l.08-.098v.002l2.093-2.847Z"/><path fill="url(#paint4_radial_20020_2831)" d="M13.88 4.527c.86-1.24 2.597-1.702 3.849-.889a2.657 2.657 0 0 1 .781 3.703l-1.695 2.61h10.53a2.637 2.637 0 1 1 0 5.274h-4.284a2.494 2.494 0 0 1-.344 4.564 2.724 2.724 0 0 1-.884 4.487 2.723 2.723 0 0 1-2.07 4.492h-3.102c-.035 0-.07 0-.104-.002h-4.859c-1.431 0-3.878-.848-6.022-2.51a9.108 9.108 0 0 1-.65-.536 9.206 9.206 0 0 1-3.008-6.833 9.196 9.196 0 0 1 3.945-7.577c.832-.603 1.506-.892 2.175-1.178.513-.22 1.023-.439 1.601-.797.913-.566 1.59-1.4 1.969-1.865l.08-.098v.002l2.093-2.847Z"/></g><path fill="url(#paint5_radial_20020_2831)" d="M13.88 4.527c.86-1.24 2.597-1.702 3.849-.889a2.657 2.657 0 0 1 .781 3.703l-1.695 2.61h10.53a2.637 2.637 0 1 1 0 5.274h-4.284a2.494 2.494 0 0 1-.344 4.564 2.724 2.724 0 0 1-.884 4.487 2.723 2.723 0 0 1-2.07 4.492h-3.102c-.035 0-.07 0-.104-.002h-4.859c-1.431 0-3.878-.848-6.022-2.51a9.108 9.108 0 0 1-.65-.536 9.206 9.206 0 0 1-3.008-6.833 9.196 9.196 0 0 1 3.945-7.577c.832-.603 1.506-.892 2.175-1.178.513-.22 1.023-.439 1.601-.797.913-.566 1.59-1.4 1.969-1.865l.08-.098v.002l2.093-2.847Z"/><path fill="url(#paint6_linear_20020_2831)" d="M13.88 4.527c.86-1.24 2.597-1.702 3.849-.889a2.657 2.657 0 0 1 .781 3.703l-1.695 2.61h10.53a2.637 2.637 0 1 1 0 5.274h-4.284a2.494 2.494 0 0 1-.344 4.564 2.724 2.724 0 0 1-.884 4.487 2.723 2.723 0 0 1-2.07 4.492h-3.102c-.035 0-.07 0-.104-.002h-4.859c-1.431 0-3.878-.848-6.022-2.51a9.108 9.108 0 0 1-.65-.536 9.206 9.206 0 0 1-3.008-6.833 9.196 9.196 0 0 1 3.945-7.577c.832-.603 1.506-.892 2.175-1.178.513-.22 1.023-.439 1.601-.797.913-.566 1.59-1.4 1.969-1.865l.08-.098v.002l2.093-2.847Z"/><rect width="14.864" height="5.274" fill="url(#paint7_linear_20020_2831)" rx="2.637" transform="matrix(-1 0 0 1 29.982 9.951)"/><rect width="14.864" height="5.274" fill="url(#paint8_linear_20020_2831)" rx="2.637" transform="matrix(-1 0 0 1 29.982 9.951)"/><rect width="14.864" height="5.274" fill="url(#paint9_radial_20020_2831)" rx="2.637" transform="matrix(-1 0 0 1 29.982 9.951)"/><path fill="url(#paint10_linear_20020_2831)" d="M17.729 3.638c-1.252-.813-2.988-.35-3.848.889l-2.092 2.847v-.002l-.078.094-.003.004c-.379.466-1.056 1.299-1.969 1.865a9.422 9.422 0 0 1-1.185.616h8.261l1.695-2.61a2.657 2.657 0 0 0-.781-3.703Z"/><path fill="url(#paint11_linear_20020_2831)" d="M17.729 3.638c-1.252-.813-2.988-.35-3.848.889l-2.092 2.847v-.002l-.078.094-.003.004c-.379.466-1.056 1.299-1.969 1.865a9.422 9.422 0 0 1-1.185.616h8.261l1.695-2.61a2.657 2.657 0 0 0-.781-3.703Z"/><path fill="url(#paint12_linear_20020_2831)" d="M17.729 3.638c-1.252-.813-2.988-.35-3.848.889l-2.092 2.847v-.002l-.078.094-.003.004c-.379.466-1.056 1.299-1.969 1.865a9.422 9.422 0 0 1-1.185.616h8.261l1.695-2.61a2.657 2.657 0 0 0-.781-3.703Z"/><g filter="url(#filter1_f_20020_2831)"><rect width="13.315" height="2.12" fill="url(#paint13_linear_20020_2831)" rx="1.06" transform="matrix(-1 0 0 1 28.038 10.796)"/></g><g filter="url(#filter2_f_20020_2831)"><rect width="9.122" height="2.167" fill="url(#paint14_linear_20020_2831)" rx="1.083" transform="scale(-1 1) rotate(51.915 -12.162 -14.356)"/></g><g filter="url(#filter3_f_20020_2831)"><rect width="4.885" height="2.65" fill="url(#paint15_linear_20020_2831)" rx="1.325" transform="matrix(-1 0 0 1 23.07 15.225)"/></g><g filter="url(#filter4_f_20020_2831)"><rect width="4.885" height="2.65" fill="url(#paint16_linear_20020_2831)" rx="1.325" transform="matrix(-1 0 0 1 22.55 19.785)"/></g><g filter="url(#filter5_f_20020_2831)"><rect width="3.715" height="2.211" fill="url(#paint17_linear_20020_2831)" rx="1.105" transform="matrix(-1 0 0 1 21.38 23.944)"/></g><path fill="url(#paint18_radial_20020_2831)" d="M24.387 17.596h-6.422v-2.37h5.096a2.494 2.494 0 0 1 1.326 2.37Z"/><defs><linearGradient id="paint6_linear_20020_2831" x1="14.33" x2="14.33" y1="29.41" y2="26.277" gradientUnits="userSpaceOnUse"><stop stop-color="#7B4163"/><stop offset="1" stop-color="#7B4163" stop-opacity="0"/></linearGradient><linearGradient id="paint7_linear_20020_2831" x1="5.442" x2="5.442" y1="6.211" y2="3.749" gradientUnits="userSpaceOnUse"><stop stop-color="#733E62"/><stop offset="1" stop-color="#733E62" stop-opacity="0"/></linearGradient><linearGradient id="paint8_linear_20020_2831" x1="12.567" x2="7.891" y1="5.274" y2="4.203" gradientUnits="userSpaceOnUse"><stop stop-color="#8F635E"/><stop offset="1" stop-color="#91665F" stop-opacity="0"/></linearGradient><linearGradient id="paint10_linear_20020_2831" x1="11.847" x2="14.347" y1="6.134" y2="8.509" gradientUnits="userSpaceOnUse"><stop stop-color="#9F7B6A"/><stop offset="1" stop-color="#9F7B6A" stop-opacity="0"/></linearGradient><linearGradient id="paint11_linear_20020_2831" x1="9.724" x2="11.834" y1="10.109" y2="8.047" gradientUnits="userSpaceOnUse"><stop offset=".223" stop-color="#956C61"/><stop offset="1" stop-color="#956C61" stop-opacity="0"/></linearGradient><linearGradient id="paint12_linear_20020_2831" x1="18.128" x2="15.39" y1="9.102" y2="7.237" gradientUnits="userSpaceOnUse"><stop offset=".05" stop-color="#6D4440"/><stop offset="1" stop-color="#6D4440" stop-opacity="0"/></linearGradient><linearGradient id="paint13_linear_20020_2831" x1="3.799" x2="15.991" y1="2.358" y2="2.358" gradientUnits="userSpaceOnUse"><stop stop-color="#896257"/><stop offset="1" stop-color="#8A6258" stop-opacity="0"/></linearGradient><linearGradient id="paint14_linear_20020_2831" x1="4.532" x2="4.761" y1=".012" y2="2.657" gradientUnits="userSpaceOnUse"><stop stop-color="#9A7364"/><stop offset="1" stop-color="#9A7364" stop-opacity="0"/></linearGradient><linearGradient id="paint15_linear_20020_2831" x1=".505" x2="4.547" y1="1.537" y2="1.537" gradientUnits="userSpaceOnUse"><stop stop-color="#7D5B52"/><stop offset="1" stop-color="#7D5B52" stop-opacity="0"/></linearGradient><linearGradient id="paint16_linear_20020_2831" x1=".505" x2="4.547" y1="1.537" y2="1.537" gradientUnits="userSpaceOnUse"><stop stop-color="#7D5B52"/><stop offset="1" stop-color="#7D5B52" stop-opacity="0"/></linearGradient><linearGradient id="paint17_linear_20020_2831" x1=".384" x2="3.458" y1="1.282" y2="1.282" gradientUnits="userSpaceOnUse"><stop stop-color="#7D5B52"/><stop offset="1" stop-color="#7D5B52" stop-opacity="0"/></linearGradient><radialGradient id="paint0_radial_20020_2831" cx="0" cy="0" r="1" gradientTransform="matrix(12.16152 12.46555 -18.52329 18.07151 6.057 15.555)" gradientUnits="userSpaceOnUse"><stop stop-color="#9A7162"/><stop offset="1" stop-color="#825359"/></radialGradient><radialGradient id="paint1_radial_20020_2831" cx="0" cy="0" r="1" gradientTransform="matrix(-6.51954 0 0 -1.95986 24.625 19.236)" gradientUnits="userSpaceOnUse"><stop stop-color="#6E4159"/><stop offset=".763" stop-color="#6E4159" stop-opacity="0"/></radialGradient><radialGradient id="paint2_radial_20020_2831" cx="0" cy="0" r="1" gradientTransform="matrix(-7.0795 0 0 -1.51989 23.305 24.315)" gradientUnits="userSpaceOnUse"><stop stop-color="#703F57"/><stop offset=".763" stop-color="#703F57" stop-opacity="0"/></radialGradient><radialGradient id="paint3_radial_20020_2831" cx="0" cy="0" r="1" gradientTransform="matrix(-2.6514 -.02425 .00282 -.3086 22.73 19.79)" gradientUnits="userSpaceOnUse"><stop stop-color="#603633"/><stop offset="1" stop-color="#603633" stop-opacity="0"/></radialGradient><radialGradient id="paint4_radial_20020_2831" cx="0" cy="0" r="1" gradientTransform="matrix(-2.375 0 0 -.20313 21.831 24.259)" gradientUnits="userSpaceOnUse"><stop stop-color="#603633"/><stop offset="1" stop-color="#603633" stop-opacity="0"/></radialGradient><radialGradient id="paint5_radial_20020_2831" cx="0" cy="0" r="1" gradientTransform="matrix(6.1875 4.3125 -6.37726 9.14999 2.38 13.813)" gradientUnits="userSpaceOnUse"><stop stop-color="#A78072"/><stop offset="1" stop-color="#A78072" stop-opacity="0"/></radialGradient><radialGradient id="paint9_radial_20020_2831" cx="0" cy="0" r="1" gradientTransform="matrix(-8.82093 0 0 -7.02379 9.048 2.637)" gradientUnits="userSpaceOnUse"><stop offset=".893" stop-color="#846056" stop-opacity="0"/><stop offset="1" stop-color="#846056"/></radialGradient><radialGradient id="paint18_radial_20020_2831" cx="0" cy="0" r="1" gradientTransform="matrix(3.27976 1.2199 -.27628 .7428 21.785 14.916)" gradientUnits="userSpaceOnUse"><stop stop-color="#47251D"/><stop offset="1" stop-color="#47251D" stop-opacity="0"/></radialGradient><filter id="filter0_i_20020_2831" width="27.964" height="26.287" x="2.018" y="2.482" color-interpolation-filters="sRGB" filterUnits="userSpaceOnUse"><feFlood flood-opacity="0" result="BackgroundImageFix"/><feBlend in="SourceGraphic" in2="BackgroundImageFix" result="shape"/><feColorMatrix in="SourceAlpha" result="hardAlpha" values="0 0 0 0 0 0 0 0 0 0 0 0 0 0 0 0 0 0 127 0"/><feOffset dy="-.75"/><feGaussianBlur stdDeviation="1"/><feComposite in2="hardAlpha" k2="-1" k3="1" operator="arithmetic"/><feColorMatrix values="0 0 0 0 0.458824 0 0 0 0 0.309804 0 0 0 0 0.278431 0 0 0 1 0"/><feBlend in2="shape" result="effect1_innerShadow_20020_2831"/></filter><filter id="filter1_f_20020_2831" width="16.315" height="5.12" x="13.222" y="9.296" color-interpolation-filters="sRGB" filterUnits="userSpaceOnUse"><feFlood flood-opacity="0" result="BackgroundImageFix"/><feBlend in="SourceGraphic" in2="BackgroundImageFix" result="shape"/><feGaussianBlur result="effect1_foregroundBlur_20020_2831" stdDeviation=".75"/></filter><filter id="filter2_f_20020_2831" width="9.457" height="10.641" x="9.271" y="3.009" color-interpolation-filters="sRGB" filterUnits="userSpaceOnUse"><feFlood flood-opacity="0" result="BackgroundImageFix"/><feBlend in="SourceGraphic" in2="BackgroundImageFix" result="shape"/><feGaussianBlur result="effect1_foregroundBlur_20020_2831" stdDeviation=".75"/></filter><filter id="filter3_f_20020_2831" width="6.885" height="4.65" x="17.185" y="14.225" color-interpolation-filters="sRGB" filterUnits="userSpaceOnUse"><feFlood flood-opacity="0" result="BackgroundImageFix"/><feBlend in="SourceGraphic" in2="BackgroundImageFix" result="shape"/><feGaussianBlur result="effect1_foregroundBlur_20020_2831" stdDeviation=".5"/></filter><filter id="filter4_f_20020_2831" width="6.885" height="4.65" x="16.665" y="18.785" color-interpolation-filters="sRGB" filterUnits="userSpaceOnUse"><feFlood flood-opacity="0" result="BackgroundImageFix"/><feBlend in="SourceGraphic" in2="BackgroundImageFix" result="shape"/><feGaussianBlur result="effect1_foregroundBlur_20020_2831" stdDeviation=".5"/></filter><filter id="filter5_f_20020_2831" width="5.715" height="4.211" x="16.665" y="22.944" color-interpolation-filters="sRGB" filterUnits="userSpaceOnUse"><feFlood flood-opacity="0" result="BackgroundImageFix"/><feBlend in="SourceGraphic" in2="BackgroundImageFix" result="shape"/><feGaussianBlur result="effect1_foregroundBlur_20020_2831" stdDeviation=".5"/></filter></defs></svg>