<svg xmlns="http://www.w3.org/2000/svg" width="32" height="32" fill="none" viewBox="0 0 32 32"><g filter="url(#filter0_i_20020_4456)"><path fill="url(#paint0_linear_20020_4456)" d="m12.592 6.547 11.459 5.066a3.25 3.25 0 0 1 1.68 4.243l-3.983 9.55c-.28.661.09 1.165.516 1.516.827.68 1.991 1.27 2.772 1.341a.95.95 0 1 1 .275 1.861l-.012.001H19.02a1.5 1.5 0 0 1-1.43-1.956l.469-1.467a3 3 0 0 0 .135-1.117l-.235-3.82c0-2.007.556-3.996 1.907-4.796l.309-.241c.097-.091.12-.125.12-.212a.246.246 0 0 0-.265-.246l-.89.068a9.998 9.998 0 0 1-2.577-.137l-6.596-1.217c-3.047-.546-4.961-3.432-3.937-6.109.93-2.434 3.828-3.469 6.562-2.328Z"/></g><path fill="url(#paint1_linear_20020_4456)" d="m12.592 6.547 11.459 5.066a3.25 3.25 0 0 1 1.68 4.243l-3.983 9.55c-.28.661.09 1.165.516 1.516.827.68 1.991 1.27 2.772 1.341a.95.95 0 1 1 .275 1.861l-.012.001H19.02a1.5 1.5 0 0 1-1.43-1.956l.469-1.467a3 3 0 0 0 .135-1.117l-.235-3.82c0-2.007.556-3.996 1.907-4.796l.309-.241c.097-.091.12-.125.12-.212a.246.246 0 0 0-.265-.246l-.89.068a9.998 9.998 0 0 1-2.577-.137l-6.596-1.217c-3.047-.546-4.961-3.432-3.937-6.109.93-2.434 3.828-3.469 6.562-2.328Z"/><path fill="url(#paint2_radial_20020_4456)" d="m12.592 6.547 11.459 5.066a3.25 3.25 0 0 1 1.68 4.243l-3.983 9.55c-.28.661.09 1.165.516 1.516.827.68 1.991 1.27 2.772 1.341a.95.95 0 1 1 .275 1.861l-.012.001H19.02a1.5 1.5 0 0 1-1.43-1.956l.469-1.467a3 3 0 0 0 .135-1.117l-.235-3.82c0-2.007.556-3.996 1.907-4.796l.309-.241c.097-.091.12-.125.12-.212a.246.246 0 0 0-.265-.246l-.89.068a9.998 9.998 0 0 1-2.577-.137l-6.596-1.217c-3.047-.546-4.961-3.432-3.937-6.109.93-2.434 3.828-3.469 6.562-2.328Z"/><g filter="url(#filter1_f_20020_4456)"><path fill="url(#paint3_linear_20020_4456)" d="m19.875 25.684 1.447.307c0 .45.213.672.35.834l-.895 1.243-.357-.783-.42.22a.33.33 0 1 1-.3-.59l.498-.243-.323-.988Z"/></g><g filter="url(#filter2_f_20020_4456)"><path stroke="url(#paint4_linear_20020_4456)" stroke-linecap="round" stroke-width=".5" d="M21.597 28.318c.403.291 1.751.873 3.92.873"/></g><g filter="url(#filter3_f_20020_4456)"><path stroke="url(#paint5_linear_20020_4456)" stroke-linecap="round" stroke-width="2" d="m11.385 8.856 12.049 4.838"/></g><g filter="url(#filter4_f_20020_4456)"><path stroke="url(#paint6_linear_20020_4456)" stroke-linecap="round" stroke-width="1.5" d="m24.06 14.156-2.874 7.438"/></g><defs><linearGradient id="paint0_linear_20020_4456" x1="15.592" x2="26.842" y1="7.438" y2="39.375" gradientUnits="userSpaceOnUse"><stop stop-color="#583732"/><stop offset="1" stop-color="#4B2F36"/></linearGradient><linearGradient id="paint1_linear_20020_4456" x1="20.842" x2="20.842" y1="30.625" y2="28.906" gradientUnits="userSpaceOnUse"><stop stop-color="#41263F"/><stop offset="1" stop-color="#41263F" stop-opacity="0"/></linearGradient><linearGradient id="paint3_linear_20020_4456" x1="19.94" x2="22.426" y1="27.467" y2="26.37" gradientUnits="userSpaceOnUse"><stop stop-color="#675250"/><stop offset="1" stop-color="#675250" stop-opacity="0"/></linearGradient><linearGradient id="paint4_linear_20020_4456" x1="25.382" x2="20.365" y1="29.192" y2="29.192" gradientUnits="userSpaceOnUse"><stop stop-color="#64504F"/><stop offset="1" stop-color="#64504F" stop-opacity="0"/></linearGradient><linearGradient id="paint5_linear_20020_4456" x1="22.964" x2="5.42" y1="13.694" y2="13.694" gradientUnits="userSpaceOnUse"><stop stop-color="#675250"/><stop offset="1" stop-color="#675250" stop-opacity="0"/></linearGradient><linearGradient id="paint6_linear_20020_4456" x1="23.936" x2="20.602" y1="15.531" y2="21.625" gradientUnits="userSpaceOnUse"><stop stop-color="#675250"/><stop offset="1" stop-color="#675250" stop-opacity="0"/></linearGradient><filter id="filter0_i_20020_4456" width="21.997" height="25.042" x="5.752" y="5.083" color-interpolation-filters="sRGB" filterUnits="userSpaceOnUse"><feFlood flood-opacity="0" result="BackgroundImageFix"/><feBlend in="SourceGraphic" in2="BackgroundImageFix" result="shape"/><feColorMatrix in="SourceAlpha" result="hardAlpha" values="0 0 0 0 0 0 0 0 0 0 0 0 0 0 0 0 0 0 127 0"/><feOffset dx="1.5" dy="-1"/><feGaussianBlur stdDeviation="1.5"/><feComposite in2="hardAlpha" k2="-1" k3="1" operator="arithmetic"/><feColorMatrix values="0 0 0 0 0.235294 0 0 0 0 0.145098 0 0 0 0 0.203922 0 0 0 1 0"/><feBlend in2="shape" result="effect1_innerShadow_20020_4456"/></filter><filter id="filter1_f_20020_4456" width="3.156" height="3.384" x="19.015" y="25.184" color-interpolation-filters="sRGB" filterUnits="userSpaceOnUse"><feFlood flood-opacity="0" result="BackgroundImageFix"/><feBlend in="SourceGraphic" in2="BackgroundImageFix" result="shape"/><feGaussianBlur result="effect1_foregroundBlur_20020_4456" stdDeviation=".25"/></filter><filter id="filter2_f_20020_4456" width="5.419" height="2.373" x="20.847" y="27.568" color-interpolation-filters="sRGB" filterUnits="userSpaceOnUse"><feFlood flood-opacity="0" result="BackgroundImageFix"/><feBlend in="SourceGraphic" in2="BackgroundImageFix" result="shape"/><feGaussianBlur result="effect1_foregroundBlur_20020_4456" stdDeviation=".25"/></filter><filter id="filter3_f_20020_4456" width="16.049" height="8.838" x="9.385" y="6.856" color-interpolation-filters="sRGB" filterUnits="userSpaceOnUse"><feFlood flood-opacity="0" result="BackgroundImageFix"/><feBlend in="SourceGraphic" in2="BackgroundImageFix" result="shape"/><feGaussianBlur result="effect1_foregroundBlur_20020_4456" stdDeviation=".5"/></filter><filter id="filter4_f_20020_4456" width="6.375" height="10.938" x="19.436" y="12.406" color-interpolation-filters="sRGB" filterUnits="userSpaceOnUse"><feFlood flood-opacity="0" result="BackgroundImageFix"/><feBlend in="SourceGraphic" in2="BackgroundImageFix" result="shape"/><feGaussianBlur result="effect1_foregroundBlur_20020_4456" stdDeviation=".5"/></filter><radialGradient id="paint2_radial_20020_4456" cx="0" cy="0" r="1" gradientTransform="matrix(1.60938 -.67969 .12532 .29674 19.834 16.64)" gradientUnits="userSpaceOnUse"><stop stop-color="#77615E"/><stop offset=".847" stop-color="#77615E" stop-opacity="0"/></radialGradient></defs></svg>