<svg xmlns="http://www.w3.org/2000/svg" width="32" height="32" fill="none" viewBox="0 0 32 32"><g filter="url(#filter0_i_18_24814)"><path fill="url(#paint0_linear_18_24814)" d="M8.6 2.978a1.2 1.2 0 0 1 1.161-.9h3.728a.65.65 0 0 1 .629.813l-6.76 26.131a1.2 1.2 0 0 1-1.162.9H2.468a.65.65 0 0 1-.629-.813L8.6 2.978Z"/><path fill="url(#paint1_radial_18_24814)" d="M8.6 2.978a1.2 1.2 0 0 1 1.161-.9h3.728a.65.65 0 0 1 .629.813l-6.76 26.131a1.2 1.2 0 0 1-1.162.9H2.468a.65.65 0 0 1-.629-.813L8.6 2.978Z"/><path fill="url(#paint2_linear_18_24814)" d="M8.6 2.978a1.2 1.2 0 0 1 1.161-.9h3.728a.65.65 0 0 1 .629.813l-6.76 26.131a1.2 1.2 0 0 1-1.162.9H2.468a.65.65 0 0 1-.629-.813L8.6 2.978Z"/><path fill="url(#paint3_linear_18_24814)" d="M8.6 2.978a1.2 1.2 0 0 1 1.161-.9h3.728a.65.65 0 0 1 .629.813l-6.76 26.131a1.2 1.2 0 0 1-1.162.9H2.468a.65.65 0 0 1-.629-.813L8.6 2.978Z"/></g><g filter="url(#filter1_f_18_24814)"><path fill="url(#paint4_linear_18_24814)" d="M12.265 8.984 10.52 6.727l2.476-.102-.73 2.36Z"/></g><g filter="url(#filter2_f_18_24814)"><path fill="url(#paint5_linear_18_24814)" d="m10.406 15.94-1.747-2.258 2.477-.102-.73 2.36Z"/></g><g filter="url(#filter3_f_18_24814)"><path fill="url(#paint6_linear_18_24814)" d="m8.703 22.894-1.747-2.257 2.477-.102-.73 2.36Z"/></g><g filter="url(#filter4_f_18_24814)"><path fill="url(#paint7_linear_18_24814)" d="M6.828 29.797 5.08 27.539l2.477-.102-.73 2.36Z"/></g><path fill="url(#paint8_linear_18_24814)" d="M10.976 4.356a.5.5 0 0 1 .484-.376h13.855v3.043H10.683a.3.3 0 0 1-.29-.374l.583-2.293Z"/><path fill="url(#paint9_linear_18_24814)" d="M10.976 4.356a.5.5 0 0 1 .484-.376h13.855v3.043H10.683a.3.3 0 0 1-.29-.374l.583-2.293Z"/><path fill="url(#paint10_linear_18_24814)" d="M10.976 4.356a.5.5 0 0 1 .484-.376h13.855v3.043H10.683a.3.3 0 0 1-.29-.374l.583-2.293Z"/><path fill="url(#paint11_linear_18_24814)" d="M10.976 4.356a.5.5 0 0 1 .484-.376h13.855v3.043H10.683a.3.3 0 0 1-.29-.374l.583-2.293Z"/><path fill="url(#paint12_linear_18_24814)" d="M9.17 11.27a.5.5 0 0 1 .484-.376H23.51v3.043H8.877a.3.3 0 0 1-.29-.374l.583-2.292Z"/><path fill="url(#paint13_linear_18_24814)" d="M9.17 11.27a.5.5 0 0 1 .484-.376H23.51v3.043H8.877a.3.3 0 0 1-.29-.374l.583-2.292Z"/><path fill="url(#paint14_linear_18_24814)" d="M9.17 11.27a.5.5 0 0 1 .484-.376H23.51v3.043H8.877a.3.3 0 0 1-.29-.374l.583-2.292Z"/><path fill="url(#paint15_linear_18_24814)" d="M9.17 11.27a.5.5 0 0 1 .484-.376H23.51v3.043H8.877a.3.3 0 0 1-.29-.374l.583-2.292Z"/><path fill="url(#paint16_linear_18_24814)" d="M7.414 18.283a.5.5 0 0 1 .484-.376h13.855v3.043H7.121a.3.3 0 0 1-.29-.374l.583-2.293Z"/><path fill="url(#paint17_linear_18_24814)" d="M7.414 18.283a.5.5 0 0 1 .484-.376h13.855v3.043H7.121a.3.3 0 0 1-.29-.374l.583-2.293Z"/><path fill="url(#paint18_linear_18_24814)" d="M7.414 18.283a.5.5 0 0 1 .484-.376h13.855v3.043H7.121a.3.3 0 0 1-.29-.374l.583-2.293Z"/><path fill="url(#paint19_linear_18_24814)" d="M7.414 18.283a.5.5 0 0 1 .484-.376h13.855v3.043H7.121a.3.3 0 0 1-.29-.374l.583-2.293Z"/><path fill="url(#paint20_linear_18_24814)" d="M5.614 25.23a.5.5 0 0 1 .485-.376h13.854v3.043H5.322a.3.3 0 0 1-.29-.374l.582-2.292Z"/><path fill="url(#paint21_linear_18_24814)" d="M5.614 25.23a.5.5 0 0 1 .485-.376h13.854v3.043H5.322a.3.3 0 0 1-.29-.374l.582-2.292Z"/><path fill="url(#paint22_linear_18_24814)" d="M5.614 25.23a.5.5 0 0 1 .485-.376h13.854v3.043H5.322a.3.3 0 0 1-.29-.374l.582-2.292Z"/><path fill="url(#paint23_linear_18_24814)" d="M5.614 25.23a.5.5 0 0 1 .485-.376h13.854v3.043H5.322a.3.3 0 0 1-.29-.374l.582-2.292Z"/><g filter="url(#filter5_i_18_24814)"><path fill="url(#paint24_linear_18_24814)" d="M24.26 2.978a1.2 1.2 0 0 1 1.162-.9h3.728a.65.65 0 0 1 .629.813l-6.76 26.131a1.2 1.2 0 0 1-1.162.9H18.13a.65.65 0 0 1-.63-.813l6.76-26.131Z"/><path fill="url(#paint25_radial_18_24814)" d="M24.26 2.978a1.2 1.2 0 0 1 1.162-.9h3.728a.65.65 0 0 1 .629.813l-6.76 26.131a1.2 1.2 0 0 1-1.162.9H18.13a.65.65 0 0 1-.63-.813l6.76-26.131Z"/><path fill="url(#paint26_linear_18_24814)" d="M24.26 2.978a1.2 1.2 0 0 1 1.162-.9h3.728a.65.65 0 0 1 .629.813l-6.76 26.131a1.2 1.2 0 0 1-1.162.9H18.13a.65.65 0 0 1-.63-.813l6.76-26.131Z"/></g><defs><linearGradient id="paint0_linear_18_24814" x1="4.375" x2="11.181" y1="9.378" y2="19.586" gradientUnits="userSpaceOnUse"><stop stop-color="#915F51"/><stop offset="1" stop-color="#7A4D49"/></linearGradient><linearGradient id="paint2_linear_18_24814" x1="11.704" x2="11.704" y1="2.078" y2="3.358" gradientUnits="userSpaceOnUse"><stop offset=".202" stop-color="#9F705F"/><stop offset="1" stop-color="#956455" stop-opacity="0"/></linearGradient><linearGradient id="paint3_linear_18_24814" x1="9.651" x2="5.714" y1="26.422" y2="25.172" gradientUnits="userSpaceOnUse"><stop offset=".291" stop-color="#6A4038"/><stop offset="1" stop-color="#6A4038" stop-opacity="0"/></linearGradient><linearGradient id="paint4_linear_18_24814" x1="11.827" x2="12.114" y1="7.031" y2="8.816" gradientUnits="userSpaceOnUse"><stop stop-color="#592D2B"/><stop offset="1" stop-color="#592D2B" stop-opacity="0"/></linearGradient><linearGradient id="paint5_linear_18_24814" x1="9.968" x2="10.254" y1="13.986" y2="15.771" gradientUnits="userSpaceOnUse"><stop stop-color="#592D2B"/><stop offset="1" stop-color="#592D2B" stop-opacity="0"/></linearGradient><linearGradient id="paint6_linear_18_24814" x1="8.265" x2="8.551" y1="20.941" y2="22.726" gradientUnits="userSpaceOnUse"><stop stop-color="#592D2B"/><stop offset="1" stop-color="#592D2B" stop-opacity="0"/></linearGradient><linearGradient id="paint7_linear_18_24814" x1="6.39" x2="6.676" y1="27.844" y2="29.628" gradientUnits="userSpaceOnUse"><stop stop-color="#592D2B"/><stop offset="1" stop-color="#592D2B" stop-opacity="0"/></linearGradient><linearGradient id="paint8_linear_18_24814" x1="12.129" x2="24.317" y1="6.455" y2="6.455" gradientUnits="userSpaceOnUse"><stop stop-color="#945B4B"/><stop offset="1" stop-color="#753E2D"/></linearGradient><linearGradient id="paint9_linear_18_24814" x1="17.849" x2="17.849" y1="3.766" y2="4.328" gradientUnits="userSpaceOnUse"><stop stop-color="#9F684B"/><stop offset="1" stop-color="#9F684B" stop-opacity="0"/></linearGradient><linearGradient id="paint10_linear_18_24814" x1="10.537" x2="11.216" y1="5.848" y2="6.045" gradientUnits="userSpaceOnUse"><stop stop-color="#78402D"/><stop offset="1" stop-color="#965D4D" stop-opacity="0"/></linearGradient><linearGradient id="paint11_linear_18_24814" x1="19.87" x2="19.87" y1="7.023" y2="6.516" gradientUnits="userSpaceOnUse"><stop stop-color="#653036"/><stop offset="1" stop-color="#844849" stop-opacity="0"/></linearGradient><linearGradient id="paint12_linear_18_24814" x1="10.247" x2="22.506" y1="13.37" y2="13.37" gradientUnits="userSpaceOnUse"><stop stop-color="#945B4B"/><stop offset="1" stop-color="#753E2D"/></linearGradient><linearGradient id="paint13_linear_18_24814" x1="16" x2="16" y1="10.68" y2="11.243" gradientUnits="userSpaceOnUse"><stop stop-color="#9F684B"/><stop offset="1" stop-color="#9F684B" stop-opacity="0"/></linearGradient><linearGradient id="paint14_linear_18_24814" x1="8.646" x2="9.328" y1="12.763" y2="12.962" gradientUnits="userSpaceOnUse"><stop stop-color="#78402D"/><stop offset="1" stop-color="#965D4D" stop-opacity="0"/></linearGradient><linearGradient id="paint15_linear_18_24814" x1="18.033" x2="18.033" y1="13.937" y2="13.43" gradientUnits="userSpaceOnUse"><stop stop-color="#653036"/><stop offset="1" stop-color="#844849" stop-opacity="0"/></linearGradient><linearGradient id="paint16_linear_18_24814" x1="8.491" x2="20.75" y1="20.382" y2="20.382" gradientUnits="userSpaceOnUse"><stop stop-color="#945B4B"/><stop offset="1" stop-color="#753E2D"/></linearGradient><linearGradient id="paint17_linear_18_24814" x1="14.244" x2="14.244" y1="17.693" y2="18.255" gradientUnits="userSpaceOnUse"><stop stop-color="#9F684B"/><stop offset="1" stop-color="#9F684B" stop-opacity="0"/></linearGradient><linearGradient id="paint18_linear_18_24814" x1="6.89" x2="7.572" y1="19.775" y2="19.975" gradientUnits="userSpaceOnUse"><stop stop-color="#78402D"/><stop offset="1" stop-color="#965D4D" stop-opacity="0"/></linearGradient><linearGradient id="paint19_linear_18_24814" x1="16.277" x2="16.277" y1="20.95" y2="20.443" gradientUnits="userSpaceOnUse"><stop stop-color="#653036"/><stop offset="1" stop-color="#844849" stop-opacity="0"/></linearGradient><linearGradient id="paint20_linear_18_24814" x1="6.692" x2="18.95" y1="27.33" y2="27.33" gradientUnits="userSpaceOnUse"><stop stop-color="#945B4B"/><stop offset="1" stop-color="#753E2D"/></linearGradient><linearGradient id="paint21_linear_18_24814" x1="12.445" x2="12.445" y1="24.64" y2="25.202" gradientUnits="userSpaceOnUse"><stop stop-color="#9F684B"/><stop offset="1" stop-color="#9F684B" stop-opacity="0"/></linearGradient><linearGradient id="paint22_linear_18_24814" x1="5.091" x2="5.773" y1="26.722" y2="26.922" gradientUnits="userSpaceOnUse"><stop stop-color="#78402D"/><stop offset="1" stop-color="#965D4D" stop-opacity="0"/></linearGradient><linearGradient id="paint23_linear_18_24814" x1="14.477" x2="14.477" y1="27.897" y2="27.39" gradientUnits="userSpaceOnUse"><stop stop-color="#653036"/><stop offset="1" stop-color="#844849" stop-opacity="0"/></linearGradient><linearGradient id="paint24_linear_18_24814" x1="20.036" x2="26.842" y1="9.378" y2="19.586" gradientUnits="userSpaceOnUse"><stop stop-color="#915F51"/><stop offset="1" stop-color="#7A4D49"/></linearGradient><linearGradient id="paint26_linear_18_24814" x1="27.365" x2="27.365" y1="2.078" y2="3.358" gradientUnits="userSpaceOnUse"><stop offset=".202" stop-color="#9F705F"/><stop offset="1" stop-color="#956455" stop-opacity="0"/></linearGradient><filter id="filter0_i_18_24814" width="13.121" height="28.244" x="1.818" y="1.678" color-interpolation-filters="sRGB" filterUnits="userSpaceOnUse"><feFlood flood-opacity="0" result="BackgroundImageFix"/><feBlend in="SourceGraphic" in2="BackgroundImageFix" result="shape"/><feColorMatrix in="SourceAlpha" result="hardAlpha" values="0 0 0 0 0 0 0 0 0 0 0 0 0 0 0 0 0 0 127 0"/><feOffset dx="1" dy="-.4"/><feGaussianBlur stdDeviation=".4"/><feComposite in2="hardAlpha" k2="-1" k3="1" operator="arithmetic"/><feColorMatrix values="0 0 0 0 0.411765 0 0 0 0 0.239216 0 0 0 0 0.215686 0 0 0 1 0"/><feBlend in2="shape" result="effect1_innerShadow_18_24814"/></filter><filter id="filter1_f_18_24814" width="3.477" height="3.359" x="10.019" y="6.125" color-interpolation-filters="sRGB" filterUnits="userSpaceOnUse"><feFlood flood-opacity="0" result="BackgroundImageFix"/><feBlend in="SourceGraphic" in2="BackgroundImageFix" result="shape"/><feGaussianBlur result="effect1_foregroundBlur_18_24814" stdDeviation=".25"/></filter><filter id="filter2_f_18_24814" width="3.477" height="3.359" x="8.159" y="13.08" color-interpolation-filters="sRGB" filterUnits="userSpaceOnUse"><feFlood flood-opacity="0" result="BackgroundImageFix"/><feBlend in="SourceGraphic" in2="BackgroundImageFix" result="shape"/><feGaussianBlur result="effect1_foregroundBlur_18_24814" stdDeviation=".25"/></filter><filter id="filter3_f_18_24814" width="3.477" height="3.359" x="6.456" y="20.035" color-interpolation-filters="sRGB" filterUnits="userSpaceOnUse"><feFlood flood-opacity="0" result="BackgroundImageFix"/><feBlend in="SourceGraphic" in2="BackgroundImageFix" result="shape"/><feGaussianBlur result="effect1_foregroundBlur_18_24814" stdDeviation=".25"/></filter><filter id="filter4_f_18_24814" width="3.477" height="3.359" x="4.581" y="26.937" color-interpolation-filters="sRGB" filterUnits="userSpaceOnUse"><feFlood flood-opacity="0" result="BackgroundImageFix"/><feBlend in="SourceGraphic" in2="BackgroundImageFix" result="shape"/><feGaussianBlur result="effect1_foregroundBlur_18_24814" stdDeviation=".25"/></filter><filter id="filter5_i_18_24814" width="13.121" height="28.244" x="17.479" y="1.678" color-interpolation-filters="sRGB" filterUnits="userSpaceOnUse"><feFlood flood-opacity="0" result="BackgroundImageFix"/><feBlend in="SourceGraphic" in2="BackgroundImageFix" result="shape"/><feColorMatrix in="SourceAlpha" result="hardAlpha" values="0 0 0 0 0 0 0 0 0 0 0 0 0 0 0 0 0 0 127 0"/><feOffset dx="1" dy="-.4"/><feGaussianBlur stdDeviation=".4"/><feComposite in2="hardAlpha" k2="-1" k3="1" operator="arithmetic"/><feColorMatrix values="0 0 0 0 0.411765 0 0 0 0 0.239216 0 0 0 0 0.215686 0 0 0 1 0"/><feBlend in2="shape" result="effect1_innerShadow_18_24814"/></filter><radialGradient id="paint1_radial_18_24814" cx="0" cy="0" r="1" gradientTransform="rotate(-164.358 6.178 13.218) scale(2.2651 11.5372)" gradientUnits="userSpaceOnUse"><stop stop-color="#7A4D49"/><stop offset="1" stop-color="#7A4D49" stop-opacity="0"/></radialGradient><radialGradient id="paint25_radial_18_24814" cx="0" cy="0" r="1" gradientTransform="rotate(-164.358 14.009 12.143) scale(2.2651 11.5372)" gradientUnits="userSpaceOnUse"><stop stop-color="#7A4D49"/><stop offset="1" stop-color="#7A4D49" stop-opacity="0"/></radialGradient></defs></svg>