<svg xmlns="http://www.w3.org/2000/svg" width="32" height="32" fill="none" viewBox="0 0 32 32"><path fill="#6B438B" d="M27.21 30.02H9.46c-.92 0-2.67-.75-2.67-1.67V16.74l11.092-1.91 11.008 1.91v11.61c-.01.92-.75 1.67-1.68 1.67Z"/><path fill="#A4AEEB" d="M11.96 10.02 9.708 9.002 8.25 7.01l4.527-1.198 3.65.074 2.013-1.572 4.51-1.194 2.615 1.092L26.66 6.12l-4.52 1.2h-3.732l-1.927 1.5-4.521 1.2Zm12.57 6.72 2.461-1.986.35-1.874h-4.683l-3.812 1.349-2.033-1.349H12.14l-2.527 1.874-.283 1.986h4.72l3.842-1.14 1.956 1.14h4.682Z"/><path fill="#635994" d="m26.66 6.12-3.71-3L27.16 2l.99 3.73-1.49.39ZM7.75 11.14 6.225 9.762 6.77 7.41l1.48-.4 3.71 3.01-4.21 1.12Zm10.7-6.83-5.69 1.51 3.7 3.01 5.7-1.51-3.71-3.01Zm10.43 12.43v-3.86h-1.54l-2.81 3.86h4.35Zm-16.74-3.86-2.81 3.86H6.79v-3.86h5.35Zm10.55 0H16.8l-2.81 3.86h5.89l2.81-3.86Z"/><path fill="#321B41" d="m6.77 7.41.98 3.73-2.76.73L4 8.14l1.49-.39 1.28-.34Zm1.02 5.47v15.47c0 .92.75 1.67 1.67 1.67H6.6c-.92 0-1.67-.75-1.67-1.67V12.88h2.86Z"/></svg>