<svg xmlns="http://www.w3.org/2000/svg" width="32" height="32" fill="none" viewBox="0 0 32 32"><g stroke-linecap="round" filter="url(#a)"><path stroke="url(#b)" d="M17.422 24.585c.76 2.145 3.795 6.781 8.266 3.968 3.625-2.28 1.7-6.622-.164-8.883-.75-.885-2-2.898-1.375-4.82.607-1.867 2.518-2.958 3.382-3.281"/><path stroke="url(#c)" d="M17.422 24.585c.76 2.145 3.795 6.781 8.266 3.968 3.625-2.28 1.7-6.622-.164-8.883-.75-.885-2-2.898-1.375-4.82.607-1.867 2.518-2.958 3.382-3.281"/><path stroke="url(#d)" d="M17.422 24.585c.76 2.145 3.795 6.781 8.266 3.968 3.625-2.28 1.7-6.622-.164-8.883-.75-.885-2-2.898-1.375-4.82.607-1.867 2.518-2.958 3.382-3.281"/><path stroke="url(#e)" d="M17.422 24.585c.76 2.145 3.795 6.781 8.266 3.968 3.625-2.28 1.7-6.622-.164-8.883-.75-.885-2-2.898-1.375-4.82.607-1.867 2.518-2.958 3.382-3.281"/></g><path stroke="url(#f)" stroke-linecap="round" d="M17.422 24.585c.76 2.145 3.795 6.781 8.266 3.968 3.625-2.28 1.7-6.622-.164-8.883-.75-.885-2-2.898-1.375-4.82.607-1.867 2.518-2.958 3.382-3.281"/><path stroke="url(#g)" stroke-linecap="round" d="M17.422 24.585c.76 2.145 3.795 6.781 8.266 3.968 3.625-2.28 1.7-6.622-.164-8.883-.75-.885-2-2.898-1.375-4.82.607-1.867 2.518-2.958 3.382-3.281"/><path fill="url(#h)" d="m4.042 2.457-1.8 12.32c-.02.17 0 .33.06.48l7.23-4.17-5.21-9.03c-.15.08-.26.22-.28.4Z"/><path fill="url(#i)" d="m4.042 2.457-1.8 12.32c-.02.17 0 .33.06.48l7.23-4.17-5.21-9.03c-.15.08-.26.22-.28.4Z"/><path fill="url(#j)" d="m16.362 6.617-11.57-4.6a.528.528 0 0 0-.49.04l5.21 9.03 7.23-4.17a.756.756 0 0 0-.38-.3Z"/><path fill="url(#k)" d="m16.362 6.617-11.57-4.6a.528.528 0 0 0-.49.04l5.21 9.03 7.23-4.17a.756.756 0 0 0-.38-.3Z"/><path fill="url(#l)" d="m16.362 6.617-11.57-4.6a.528.528 0 0 0-.49.04l5.21 9.03 7.23-4.17a.756.756 0 0 0-.38-.3Z"/><path fill="url(#m)" d="M2.292 15.257c.07.15.18.28.33.38l14.41 9.44c.19.13.42.12.59.02l-8.09-14.01-7.24 4.17Z"/><path fill="url(#n)" d="M2.292 15.257c.07.15.18.28.33.38l14.41 9.44c.19.13.42.12.59.02l-8.09-14.01-7.24 4.17Z"/><path fill="url(#o)" d="M2.292 15.257c.07.15.18.28.33.38l14.41 9.44c.19.13.42.12.59.02l-8.09-14.01-7.24 4.17Z"/><path fill="url(#p)" d="m17.892 24.577-.98-17.2a.943.943 0 0 0-.178-.464l-7.212 4.164 8.09 14.01c.18-.09.3-.28.28-.51Z"/><path fill="url(#q)" d="m17.892 24.577-.98-17.2a.943.943 0 0 0-.178-.464l-7.212 4.164 8.09 14.01c.18-.09.3-.28.28-.51Z"/><g filter="url(#r)"><path fill="#DF2B6E" d="m25.365 26.432.016-1.927a.5.5 0 0 1 .705-.452l1.51.677a.5.5 0 0 0 .45-.02l1.414-.79a.5.5 0 0 1 .743.405v2.108a.5.5 0 0 1-.733.473l-1.41-.814a.5.5 0 0 0-.467 0l-1.495.787a.5.5 0 0 1-.733-.447Z"/><path fill="url(#s)" d="m25.365 26.432.016-1.927a.5.5 0 0 1 .705-.452l1.51.677a.5.5 0 0 0 .45-.02l1.414-.79a.5.5 0 0 1 .743.405v2.108a.5.5 0 0 1-.733.473l-1.41-.814a.5.5 0 0 0-.467 0l-1.495.787a.5.5 0 0 1-.733-.447Z"/><path fill="url(#t)" d="m25.365 26.432.016-1.927a.5.5 0 0 1 .705-.452l1.51.677a.5.5 0 0 0 .45-.02l1.414-.79a.5.5 0 0 1 .743.405v2.108a.5.5 0 0 1-.733.473l-1.41-.814a.5.5 0 0 0-.467 0l-1.495.787a.5.5 0 0 1-.733-.447Z"/></g><g filter="url(#u)"><path fill="#288FEC" d="m24.708 23.355-.733-1.783a.5.5 0 0 1 .474-.69l1.655.038a.5.5 0 0 0 .406-.192l.997-1.278a.5.5 0 0 1 .842.085l.818 1.943a.5.5 0 0 1-.491.72l-1.617-.203a.5.5 0 0 0-.43.181l-1.073 1.306a.5.5 0 0 1-.848-.127Z"/><path fill="url(#v)" d="m24.708 23.355-.733-1.783a.5.5 0 0 1 .474-.69l1.655.038a.5.5 0 0 0 .406-.192l.997-1.278a.5.5 0 0 1 .842.085l.818 1.943a.5.5 0 0 1-.491.72l-1.617-.203a.5.5 0 0 0-.43.181l-1.073 1.306a.5.5 0 0 1-.848-.127Z"/><path fill="url(#w)" d="m24.708 23.355-.733-1.783a.5.5 0 0 1 .474-.69l1.655.038a.5.5 0 0 0 .406-.192l.997-1.278a.5.5 0 0 1 .842.085l.818 1.943a.5.5 0 0 1-.491.72l-1.617-.203a.5.5 0 0 0-.43.181l-1.073 1.306a.5.5 0 0 1-.848-.127Z"/></g><g filter="url(#x)"><path fill="#E6AD42" d="m22.869 20.128-.972-1.665a.5.5 0 0 1 .374-.748l1.645-.191a.5.5 0 0 0 .375-.247l.81-1.403a.5.5 0 0 1 .846-.032l1.079 1.812a.5.5 0 0 1-.387.781l-1.63.022a.5.5 0 0 0-.4.238l-.882 1.442a.5.5 0 0 1-.858-.009Z"/><path fill="url(#y)" d="m22.869 20.128-.972-1.665a.5.5 0 0 1 .374-.748l1.645-.191a.5.5 0 0 0 .375-.247l.81-1.403a.5.5 0 0 1 .846-.032l1.079 1.812a.5.5 0 0 1-.387.781l-1.63.022a.5.5 0 0 0-.4.238l-.882 1.442a.5.5 0 0 1-.858-.009Z"/><path fill="url(#z)" d="m22.869 20.128-.972-1.665a.5.5 0 0 1 .374-.748l1.645-.191a.5.5 0 0 0 .375-.247l.81-1.403a.5.5 0 0 1 .846-.032l1.079 1.812a.5.5 0 0 1-.387.781l-1.63.022a.5.5 0 0 0-.4.238l-.882 1.442a.5.5 0 0 1-.858-.009Z"/></g><defs><radialGradient id="c" cx="0" cy="0" r="1" gradientTransform="matrix(.90056 1.9228 -1.42179 .6659 24.642 17.906)" gradientUnits="userSpaceOnUse"><stop stop-color="#D2C9D5"/><stop offset="1" stop-color="#D2C9D5" stop-opacity="0"/></radialGradient><radialGradient id="d" cx="0" cy="0" r="1" gradientTransform="matrix(.29207 2.23922 -1.29255 .1686 26.832 21.119)" gradientUnits="userSpaceOnUse"><stop stop-color="#CAC6D8"/><stop offset="1" stop-color="#CAC6D8" stop-opacity="0"/></radialGradient><radialGradient id="e" cx="0" cy="0" r="1" gradientTransform="rotate(120.256 5.883 20.82) scale(2.0288 1.17109)" gradientUnits="userSpaceOnUse"><stop stop-color="#C3ACCD"/><stop offset="1" stop-color="#C3ACCD" stop-opacity="0"/></radialGradient><radialGradient id="f" cx="0" cy="0" r="1" gradientTransform="matrix(2.43393 3.11544 -.75062 .58642 18.752 25.402)" gradientUnits="userSpaceOnUse"><stop stop-color="#EAE3F4"/><stop offset="1" stop-color="#EAE3F4" stop-opacity="0"/></radialGradient><radialGradient id="g" cx="0" cy="0" r="1" gradientTransform="matrix(-.60848 .29207 -.40506 -.84389 28 11.407)" gradientUnits="userSpaceOnUse"><stop stop-color="#F9F4FE"/><stop offset="1" stop-color="#F9F4FE" stop-opacity="0"/></radialGradient><radialGradient id="h" cx="0" cy="0" r="1" gradientTransform="rotate(-163.448 5.545 4.66) scale(5.90998 13.8095)" gradientUnits="userSpaceOnUse"><stop stop-color="#FF4066"/><stop offset="1" stop-color="#E7374D"/></radialGradient><radialGradient id="j" cx="0" cy="0" r="1" gradientTransform="matrix(-1.56901 -7.63077 11.41196 -2.34648 11.498 10.496)" gradientUnits="userSpaceOnUse"><stop stop-color="#97E05E"/><stop offset="1" stop-color="#6EC03E"/></radialGradient><radialGradient id="m" cx="0" cy="0" r="1" gradientTransform="rotate(135.556 2.96 10.45) scale(4.33438 14.8275)" gradientUnits="userSpaceOnUse"><stop stop-color="#FFDE54"/><stop offset="1" stop-color="#FAB644"/></radialGradient><radialGradient id="p" cx="0" cy="0" r="1" gradientTransform="matrix(4.77091 17.79287 -9.75935 2.61684 13.123 7.294)" gradientUnits="userSpaceOnUse"><stop offset=".376" stop-color="#70FAFF"/><stop offset="1" stop-color="#41C6FF"/></radialGradient><radialGradient id="s" cx="0" cy="0" r="1" gradientTransform="rotate(174.651 14.53 13.424) scale(1.03404 1.68142)" gradientUnits="userSpaceOnUse"><stop stop-color="#FB6390"/><stop offset="1" stop-color="#FB6390" stop-opacity="0"/></radialGradient><radialGradient id="t" cx="0" cy="0" r="1" gradientTransform="rotate(179.525 13.621 12.781) scale(1.15196 .72512)" gradientUnits="userSpaceOnUse"><stop stop-color="#FB6390"/><stop offset="1" stop-color="#FB6390" stop-opacity="0"/></radialGradient><radialGradient id="v" cx="0" cy="0" r="1" gradientTransform="matrix(-.91148 .4883 -.79401 -1.48213 28.823 20.54)" gradientUnits="userSpaceOnUse"><stop stop-color="#5FBCFF"/><stop offset="1" stop-color="#5FBCFF" stop-opacity="0"/></radialGradient><radialGradient id="w" cx="0" cy="0" r="1" gradientTransform="matrix(-1.05797 .45574 -.28688 -.66596 26.154 21.68)" gradientUnits="userSpaceOnUse"><stop stop-color="#55ADFA"/><stop offset="1" stop-color="#55ADFA" stop-opacity="0"/></radialGradient><radialGradient id="y" cx="0" cy="0" r="1" gradientTransform="rotate(151.783 11.152 11.765) scale(1.1325 1.4161)" gradientUnits="userSpaceOnUse"><stop stop-color="#FFD469"/><stop offset="1" stop-color="#FFD469" stop-opacity="0"/></radialGradient><radialGradient id="z" cx="0" cy="0" r="1" gradientTransform="matrix(-1.09527 .48678 -.33322 -.74976 23.924 18.417)" gradientUnits="userSpaceOnUse"><stop stop-color="#F1C15F"/><stop offset="1" stop-color="#F1C15F" stop-opacity="0"/></radialGradient><linearGradient id="b" x1="22.578" x2="27.734" y1="18.413" y2="29.434" gradientUnits="userSpaceOnUse"><stop stop-color="#E2DCED"/><stop offset="1" stop-color="#CDC0DB"/></linearGradient><linearGradient id="i" x1="2.459" x2="3.76" y1="12.511" y2="12.636" gradientUnits="userSpaceOnUse"><stop stop-color="#EB777B"/><stop offset="1" stop-color="#EB777B" stop-opacity="0"/></linearGradient><linearGradient id="k" x1="3.867" x2="7.504" y1="1.975" y2="5.29" gradientUnits="userSpaceOnUse"><stop stop-color="#4FA42E"/><stop offset="1" stop-color="#4FA42E" stop-opacity="0"/></linearGradient><linearGradient id="l" x1="9.715" x2="9.43" y1="3.685" y2="4.47" gradientUnits="userSpaceOnUse"><stop stop-color="#4FA42E"/><stop offset="1" stop-color="#4FA42E" stop-opacity="0"/></linearGradient><linearGradient id="n" x1="17.117" x2="13.896" y1="25.174" y2="20.736" gradientUnits="userSpaceOnUse"><stop stop-color="#FBA943"/><stop offset="1" stop-color="#FBA943" stop-opacity="0"/></linearGradient><linearGradient id="o" x1="8.68" x2="8.991" y1="19.73" y2="19.272" gradientUnits="userSpaceOnUse"><stop stop-color="#FECA8A"/><stop offset="1" stop-color="#FECA8A" stop-opacity="0"/></linearGradient><linearGradient id="q" x1="17.6" x2="16.856" y1="15.452" y2="15.496" gradientUnits="userSpaceOnUse"><stop offset=".215" stop-color="#63D5FE"/><stop offset="1" stop-color="#63D5FE" stop-opacity="0"/></linearGradient><filter id="a" width="11.313" height="19.116" x="16.922" y="10.819" color-interpolation-filters="sRGB" filterUnits="userSpaceOnUse"><feFlood flood-opacity="0" result="BackgroundImageFix"/><feBlend in="SourceGraphic" in2="BackgroundImageFix" result="shape"/><feColorMatrix in="SourceAlpha" result="hardAlpha" values="0 0 0 0 0 0 0 0 0 0 0 0 0 0 0 0 0 0 127 0"/><feOffset dy="-.25"/><feGaussianBlur stdDeviation=".25"/><feComposite in2="hardAlpha" k2="-1" k3="1" operator="arithmetic"/><feColorMatrix values="0 0 0 0 0.768627 0 0 0 0 0.686275 0 0 0 0 0.85098 0 0 0 1 0"/><feBlend in2="shape" result="effect1_innerShadow_18_3322"/></filter><filter id="r" width="5.089" height="3.359" x="25.364" y="23.606" color-interpolation-filters="sRGB" filterUnits="userSpaceOnUse"><feFlood flood-opacity="0" result="BackgroundImageFix"/><feBlend in="SourceGraphic" in2="BackgroundImageFix" result="shape"/><feColorMatrix in="SourceAlpha" result="hardAlpha" values="0 0 0 0 0 0 0 0 0 0 0 0 0 0 0 0 0 0 127 0"/><feOffset dx=".25" dy="-.25"/><feGaussianBlur stdDeviation=".375"/><feComposite in2="hardAlpha" k2="-1" k3="1" operator="arithmetic"/><feColorMatrix values="0 0 0 0 0.784314 0 0 0 0 0.160784 0 0 0 0 0.482353 0 0 0 1 0"/><feBlend in2="shape" result="effect1_innerShadow_18_3322"/></filter><filter id="u" width="5.533" height="4.657" x="23.937" y="19.008" color-interpolation-filters="sRGB" filterUnits="userSpaceOnUse"><feFlood flood-opacity="0" result="BackgroundImageFix"/><feBlend in="SourceGraphic" in2="BackgroundImageFix" result="shape"/><feColorMatrix in="SourceAlpha" result="hardAlpha" values="0 0 0 0 0 0 0 0 0 0 0 0 0 0 0 0 0 0 127 0"/><feOffset dx=".25" dy="-.25"/><feGaussianBlur stdDeviation=".375"/><feComposite in2="hardAlpha" k2="-1" k3="1" operator="arithmetic"/><feColorMatrix values="0 0 0 0 0.196078 0 0 0 0 0.478431 0 0 0 0 0.878431 0 0 0 1 0"/><feBlend in2="shape" result="effect1_innerShadow_18_3322"/></filter><filter id="x" width="5.436" height="4.902" x="21.828" y="15.475" color-interpolation-filters="sRGB" filterUnits="userSpaceOnUse"><feFlood flood-opacity="0" result="BackgroundImageFix"/><feBlend in="SourceGraphic" in2="BackgroundImageFix" result="shape"/><feColorMatrix in="SourceAlpha" result="hardAlpha" values="0 0 0 0 0 0 0 0 0 0 0 0 0 0 0 0 0 0 127 0"/><feOffset dx=".15" dy="-.15"/><feGaussianBlur stdDeviation=".375"/><feComposite in2="hardAlpha" k2="-1" k3="1" operator="arithmetic"/><feColorMatrix values="0 0 0 0 0 0 0 0 0 0 0 0 0 0 0 0 0 0 0.25 0"/><feBlend in2="shape" result="effect1_innerShadow_18_3322"/></filter></defs></svg>