<svg xmlns="http://www.w3.org/2000/svg" width="32" height="32" fill="none" viewBox="0 0 32 32"><g filter="url(#filter0_i_3930_2068)"><path fill="url(#paint0_radial_3930_2068)" d="M7 21.087a3 3 0 1 0 0-6 3 3 0 0 0 0 6Z"/></g><g filter="url(#filter1_f_3930_2068)"><path fill="url(#paint1_radial_3930_2068)" d="M7 19.903a1.816 1.816 0 1 0 0-3.631 1.816 1.816 0 0 0 0 3.631Z"/></g><g filter="url(#filter2_i_3930_2068)"><path fill="url(#paint2_linear_3930_2068)" d="M25 21.087a3 3 0 1 0 0-6 3 3 0 0 0 0 6Z"/><path fill="url(#paint3_radial_3930_2068)" d="M25 21.087a3 3 0 1 0 0-6 3 3 0 0 0 0 6Z"/></g><g filter="url(#filter3_f_3930_2068)"><path fill="url(#paint4_linear_3930_2068)" d="M25.203 19.903a1.816 1.816 0 1 0 0-3.631 1.816 1.816 0 0 0 0 3.631Z"/></g><g filter="url(#filter4_i_3930_2068)"><path fill="url(#paint5_radial_3930_2068)" d="M18.066 4.2h-4.147c-5.57 0-8.018 3.75-7.614 8.71l.7 10.69a7.3 7.3 0 0 0 7.244 6.35h3.518a7.3 7.3 0 0 0 7.244-6.35l.67-10.69c.53-4.704-2.115-8.71-7.615-8.71Z"/><path fill="url(#paint6_radial_3930_2068)" d="M18.066 4.2h-4.147c-5.57 0-8.018 3.75-7.614 8.71l.7 10.69a7.3 7.3 0 0 0 7.244 6.35h3.518a7.3 7.3 0 0 0 7.244-6.35l.67-10.69c.53-4.704-2.115-8.71-7.615-8.71Z"/><path fill="url(#paint7_radial_3930_2068)" d="M18.066 4.2h-4.147c-5.57 0-8.018 3.75-7.614 8.71l.7 10.69a7.3 7.3 0 0 0 7.244 6.35h3.518a7.3 7.3 0 0 0 7.244-6.35l.67-10.69c.53-4.704-2.115-8.71-7.615-8.71Z"/><path fill="url(#paint8_radial_3930_2068)" d="M18.066 4.2h-4.147c-5.57 0-8.018 3.75-7.614 8.71l.7 10.69a7.3 7.3 0 0 0 7.244 6.35h3.518a7.3 7.3 0 0 0 7.244-6.35l.67-10.69c.53-4.704-2.115-8.71-7.615-8.71Z"/><path fill="url(#paint9_radial_3930_2068)" d="M18.066 4.2h-4.147c-5.57 0-8.018 3.75-7.614 8.71l.7 10.69a7.3 7.3 0 0 0 7.244 6.35h3.518a7.3 7.3 0 0 0 7.244-6.35l.67-10.69c.53-4.704-2.115-8.71-7.615-8.71Z"/><path fill="url(#paint10_radial_3930_2068)" d="M18.066 4.2h-4.147c-5.57 0-8.018 3.75-7.614 8.71l.7 10.69a7.3 7.3 0 0 0 7.244 6.35h3.518a7.3 7.3 0 0 0 7.244-6.35l.67-10.69c.53-4.704-2.115-8.71-7.615-8.71Z"/><path fill="url(#paint11_radial_3930_2068)" d="M18.066 4.2h-4.147c-5.57 0-8.018 3.75-7.614 8.71l.7 10.69a7.3 7.3 0 0 0 7.244 6.35h3.518a7.3 7.3 0 0 0 7.244-6.35l.67-10.69c.53-4.704-2.115-8.71-7.615-8.71Z"/></g><g filter="url(#filter5_f_3930_2068)"><path fill="url(#paint12_linear_3930_2068)" d="m15.262 18.05-1.204 3.006a1.005 1.005 0 0 0 .97 1.304h1.467c.687 0 1.173-.662.97-1.304l-1.125-3.005c-.213-.702-.855-.702-1.078 0Z"/></g><g filter="url(#filter6_f_3930_2068)"><path fill="#472F2D" d="m15.287 17.614-.99 3.17a1.005 1.005 0 0 0 .97 1.303h1.466c.688 0 1.173-.662.97-1.303l-.99-3.17c-.213-.702-1.203-.702-1.426 0Z"/><path fill="url(#paint13_linear_3930_2068)" d="m15.287 17.614-.99 3.17a1.005 1.005 0 0 0 .97 1.303h1.466c.688 0 1.173-.662.97-1.303l-.99-3.17c-.213-.702-1.203-.702-1.426 0Z"/><path fill="url(#paint14_radial_3930_2068)" d="m15.287 17.614-.99 3.17a1.005 1.005 0 0 0 .97 1.303h1.466c.688 0 1.173-.662.97-1.303l-.99-3.17c-.213-.702-1.203-.702-1.426 0Z"/><path fill="url(#paint15_linear_3930_2068)" d="m15.287 17.614-.99 3.17a1.005 1.005 0 0 0 .97 1.303h1.466c.688 0 1.173-.662.97-1.303l-.99-3.17c-.213-.702-1.203-.702-1.426 0Z"/><path fill="url(#paint16_radial_3930_2068)" d="m15.287 17.614-.99 3.17a1.005 1.005 0 0 0 .97 1.303h1.466c.688 0 1.173-.662.97-1.303l-.99-3.17c-.213-.702-1.203-.702-1.426 0Z"/></g><g filter="url(#filter7_f_3930_2068)"><path stroke="url(#paint17_linear_3930_2068)" stroke-width=".1" d="M13.39 23.307h-.001a.34.34 0 0 0-.407.07.31.31 0 0 0-.034.4A3.65 3.65 0 0 0 16 25.407a3.65 3.65 0 0 0 3.052-1.63.314.314 0 0 0-.035-.403.342.342 0 0 0-.406-.067 5.634 5.634 0 0 1-2.611.619 5.663 5.663 0 0 1-2.61-.619Z"/></g><path fill="#290118" d="M16 23.976a5.712 5.712 0 0 1-2.634-.624c-.26-.133-.54.16-.376.397A3.6 3.6 0 0 0 16 25.357a3.6 3.6 0 0 0 3.01-1.608c.164-.246-.116-.53-.376-.397a5.683 5.683 0 0 1-2.634.624Z"/><g filter="url(#filter8_i_3930_2068)"><path fill="#151414" d="M22.96 13.027c-.327-.284-.707-.586-1.282-.767-.567-.178-1.278-.226-2.26-.106a.517.517 0 0 0 .125 1.026c.897-.11 1.446-.053 1.824.066.37.117.62.305.913.56a.517.517 0 1 0 .68-.779Z"/></g><g filter="url(#filter9_i_3930_2068)"><path fill="#151414" d="M9.64 12.824a5.171 5.171 0 0 1 3.242-.67.517.517 0 1 1-.125 1.026 4.138 4.138 0 0 0-2.585.531c-.064.038-.11.07-.14.09l-.031.022-.005.004a.517.517 0 0 1-.633-.818l.278-.185Z"/></g><path fill="#fff" d="M11.542 15.46a2.649 2.649 0 0 0-2.57 2.008.52.52 0 0 0 .508.647h4.232a.436.436 0 0 0 .43-.516 2.657 2.657 0 0 0-2.6-2.139Z"/><path fill="url(#paint18_radial_3930_2068)" d="M11.934 15.976a1.693 1.693 0 0 0-1.63 2.139h3.27c.038-.146.06-.293.06-.446a1.704 1.704 0 0 0-1.7-1.693Z"/><path fill="#000" d="M12.904 17.669c0-.54-.431-.97-.97-.97a.965.965 0 0 0-.969.97.96.96 0 0 0 .108.446h1.715a.96.96 0 0 0 .116-.446Z"/><g filter="url(#filter10_f_3930_2068)"><path fill="url(#paint19_linear_3930_2068)" d="M13.48 17.47c0-.547-.444-.912-.564-1.022l-.547.529.336.685.776-.192Z"/></g><g filter="url(#filter11_f_3930_2068)" transform="rotate(-27.914 11.424 16.7)"><ellipse cx="11.424" cy="16.699" fill="#C7A7A3" fill-opacity=".9" rx=".739" ry=".374"/><ellipse cx="11.424" cy="16.699" fill="url(#paint20_radial_3930_2068)" rx=".739" ry=".374"/></g><path fill="#fff" d="M20.458 15.478c1.217 0 2.246.84 2.526 1.974a.511.511 0 0 1-.5.636h-4.159a.43.43 0 0 1-.424-.507 2.606 2.606 0 0 1 2.557-2.103Z"/><path fill="url(#paint21_radial_3930_2068)" d="M20.072 15.985a1.664 1.664 0 0 1 1.604 2.102H18.46a1.706 1.706 0 0 1-.06-.438 1.67 1.67 0 0 1 1.671-1.664Z"/><path fill="#000" d="M19.12 17.649c0-.53.423-.953.952-.953.53 0 .953.423.953.953 0 .159-.038.31-.106.438h-1.686a.86.86 0 0 1-.114-.438Z"/><g filter="url(#filter12_f_3930_2068)"><path fill="#C7A7A3" d="M19.95 16.337c.118.158-.13.352-.411.562-.282.21-.491.36-.61.2-.118-.158.014-.457.296-.668.282-.21.606-.253.725-.094Z"/><path fill="url(#paint22_radial_3930_2068)" d="M19.95 16.337c.118.158-.13.352-.411.562-.282.21-.491.36-.61.2-.118-.158.014-.457.296-.668.282-.21.606-.253.725-.094Z"/></g><g filter="url(#filter13_f_3930_2068)"><path fill="url(#paint23_linear_3930_2068)" d="M21.554 17.43a1.566 1.566 0 0 0-.431-.863l-.485.532.219.425.697-.094Z"/></g><g filter="url(#filter14_f_3930_2068)"><path stroke="#313131" stroke-linecap="round" stroke-width=".25" d="M9.778 13.245c.408-.303 1.689-.807 3.126-.681"/></g><g filter="url(#filter15_f_3930_2068)"><path stroke="#313131" stroke-linecap="round" stroke-width=".25" d="M22.736 13.33c-.5-.483-1.695-.917-3.02-.75"/></g><g filter="url(#filter16_f_3930_2068)"><path fill="url(#paint24_radial_3930_2068)" d="M22.967 7.536 17.699 8.77a2 2 0 0 0-1.545 1.947v1.747a1 1 0 0 0 .495.863l.572.335a.745.745 0 0 0 1.12-.642c0-.354.25-.659.595-.73l5.5-1.128c0-1.5-1.042-3.208-1.47-3.625Z"/></g><defs><radialGradient id="paint0_radial_3930_2068" cx="0" cy="0" r="1" gradientTransform="matrix(3.15625 0 0 5.09375 3.59 18.306)" gradientUnits="userSpaceOnUse"><stop stop-color="#382526"/><stop offset="1" stop-color="#38282D"/></radialGradient><radialGradient id="paint1_radial_3930_2068" cx="0" cy="0" r="1" gradientTransform="matrix(-1.48723 .21943 -.29636 -2.00865 6.797 18.218)" gradientUnits="userSpaceOnUse"><stop offset=".667" stop-color="#2B1C20"/><stop offset="1" stop-color="#281315"/></radialGradient><radialGradient id="paint3_radial_3930_2068" cx="0" cy="0" r="1" gradientTransform="rotate(-50.244 31.396 -18.037) scale(2.29666 2.22246)" gradientUnits="userSpaceOnUse"><stop offset=".411" stop-color="#371D1F"/><stop offset="1" stop-color="#371D1F" stop-opacity="0"/></radialGradient><radialGradient id="paint5_radial_3930_2068" cx="0" cy="0" r="1" gradientTransform="matrix(-5.13152 18.00003 -16.21274 -4.622 20.605 10.22)" gradientUnits="userSpaceOnUse"><stop stop-color="#543A36"/><stop offset="1" stop-color="#3B262C"/></radialGradient><radialGradient id="paint6_radial_3930_2068" cx="0" cy="0" r="1" gradientTransform="scale(8.57064 8.17105) rotate(90 .1 2.47)" gradientUnits="userSpaceOnUse"><stop stop-color="#523330"/><stop offset="1" stop-color="#523330" stop-opacity="0"/></radialGradient><radialGradient id="paint7_radial_3930_2068" cx="0" cy="0" r="1" gradientTransform="matrix(0 -9.36514 10.5925 0 9.56 29.95)" gradientUnits="userSpaceOnUse"><stop stop-color="#39202D"/><stop offset="1" stop-color="#39202D" stop-opacity="0"/></radialGradient><radialGradient id="paint8_radial_3930_2068" cx="0" cy="0" r="1" gradientTransform="matrix(-3.05461 19.43755 -18.9858 -2.98362 19.06 10.838)" gradientUnits="userSpaceOnUse"><stop offset=".822" stop-color="#472E48" stop-opacity="0"/><stop offset="1" stop-color="#472E48"/></radialGradient><radialGradient id="paint9_radial_3930_2068" cx="0" cy="0" r="1" gradientTransform="matrix(.56137 -2.91744 3.26223 .62772 11.967 15.505)" gradientUnits="userSpaceOnUse"><stop offset=".149" stop-color="#381F28"/><stop offset="1" stop-color="#381F28" stop-opacity="0"/></radialGradient><radialGradient id="paint10_radial_3930_2068" cx="0" cy="0" r="1" gradientTransform="matrix(0 -2.91744 3.21246 0 20.434 15.599)" gradientUnits="userSpaceOnUse"><stop offset=".025" stop-color="#422628"/><stop offset="1" stop-color="#422628" stop-opacity="0"/></radialGradient><radialGradient id="paint11_radial_3930_2068" cx="0" cy="0" r="1" gradientTransform="matrix(0 1.75 -4.02907 0 17.78 4.755)" gradientUnits="userSpaceOnUse"><stop stop-color="#5B4947"/><stop offset="1" stop-color="#4E3534" stop-opacity="0"/></radialGradient><radialGradient id="paint14_radial_3930_2068" cx="0" cy="0" r="1" gradientTransform="matrix(-.93748 -4.46875 1.47905 -.31028 17.498 20.692)" gradientUnits="userSpaceOnUse"><stop stop-color="#6A5654"/><stop offset="1" stop-color="#6A5654" stop-opacity="0"/></radialGradient><radialGradient id="paint16_radial_3930_2068" cx="0" cy="0" r="1" gradientTransform="matrix(-1.65625 0 0 -.28125 17.217 20.911)" gradientUnits="userSpaceOnUse"><stop stop-color="#685655"/><stop offset="1" stop-color="#685655" stop-opacity="0"/></radialGradient><radialGradient id="paint18_radial_3930_2068" cx="0" cy="0" r="1" gradientTransform="matrix(0 1.53876 -2.44757 0 11.938 16.88)" gradientUnits="userSpaceOnUse"><stop offset=".802" stop-color="#7F584B"/><stop offset="1" stop-color="#694B43"/><stop offset="1" stop-color="#804D49"/><stop offset="1" stop-color="#654843"/></radialGradient><radialGradient id="paint20_radial_3930_2068" cx="0" cy="0" r="1" gradientTransform="matrix(-.01467 -.93704 1.12636 -.01764 11.395 17.296)" gradientUnits="userSpaceOnUse"><stop offset=".766" stop-color="#FFE6E2" stop-opacity="0"/><stop offset=".966" stop-color="#FFE6E2"/></radialGradient><radialGradient id="paint21_radial_3930_2068" cx="0" cy="0" r="1" gradientTransform="matrix(0 1.51263 -2.40601 0 20.068 16.874)" gradientUnits="userSpaceOnUse"><stop offset=".802" stop-color="#7F584B"/><stop offset="1" stop-color="#694B43"/><stop offset="1" stop-color="#804D49"/><stop offset="1" stop-color="#654843"/></radialGradient><radialGradient id="paint22_radial_3930_2068" cx="0" cy="0" r="1" gradientTransform="rotate(-127.812 13.992 3.705) scale(.70528 .97101)" gradientUnits="userSpaceOnUse"><stop offset=".766" stop-color="#FFE6E2" stop-opacity="0"/><stop offset=".966" stop-color="#FFE6E2"/></radialGradient><radialGradient id="paint24_radial_3930_2068" cx="0" cy="0" r="1" gradientTransform="matrix(4.9375 4.71875 -11.46927 12.00094 17.154 8.286)" gradientUnits="userSpaceOnUse"><stop stop-color="#6B5857"/><stop offset="1" stop-color="#6B5857" stop-opacity="0"/></radialGradient><filter id="filter0_i_3930_2068" width="6" height="6.2" x="4" y="14.887" color-interpolation-filters="sRGB" filterUnits="userSpaceOnUse"><feFlood flood-opacity="0" result="BackgroundImageFix"/><feBlend in="SourceGraphic" in2="BackgroundImageFix" result="shape"/><feColorMatrix in="SourceAlpha" result="hardAlpha" values="0 0 0 0 0 0 0 0 0 0 0 0 0 0 0 0 0 0 127 0"/><feOffset dy="-.2"/><feGaussianBlur stdDeviation=".3"/><feComposite in2="hardAlpha" k2="-1" k3="1" operator="arithmetic"/><feColorMatrix values="0 0 0 0 0.337255 0 0 0 0 0.262745 0 0 0 0 0.25098 0 0 0 1 0"/><feBlend in2="shape" result="effect1_innerShadow_3930_2068"/></filter><filter id="filter1_f_3930_2068" width="4.132" height="4.132" x="4.934" y="16.022" color-interpolation-filters="sRGB" filterUnits="userSpaceOnUse"><feFlood flood-opacity="0" result="BackgroundImageFix"/><feBlend in="SourceGraphic" in2="BackgroundImageFix" result="shape"/><feGaussianBlur result="effect1_foregroundBlur_3930_2068" stdDeviation=".125"/></filter><filter id="filter2_i_3930_2068" width="6.2" height="6.2" x="22" y="14.887" color-interpolation-filters="sRGB" filterUnits="userSpaceOnUse"><feFlood flood-opacity="0" result="BackgroundImageFix"/><feBlend in="SourceGraphic" in2="BackgroundImageFix" result="shape"/><feColorMatrix in="SourceAlpha" result="hardAlpha" values="0 0 0 0 0 0 0 0 0 0 0 0 0 0 0 0 0 0 127 0"/><feOffset dx=".2" dy="-.2"/><feGaussianBlur stdDeviation=".3"/><feComposite in2="hardAlpha" k2="-1" k3="1" operator="arithmetic"/><feColorMatrix values="0 0 0 0 0.247059 0 0 0 0 0.14902 0 0 0 0 0.235294 0 0 0 1 0"/><feBlend in2="shape" result="effect1_innerShadow_3930_2068"/></filter><filter id="filter3_f_3930_2068" width="4.632" height="4.632" x="22.887" y="15.772" color-interpolation-filters="sRGB" filterUnits="userSpaceOnUse"><feFlood flood-opacity="0" result="BackgroundImageFix"/><feBlend in="SourceGraphic" in2="BackgroundImageFix" result="shape"/><feGaussianBlur result="effect1_foregroundBlur_3930_2068" stdDeviation=".25"/></filter><filter id="filter4_i_3930_2068" width="20.485" height="26.25" x="6.262" y="4.199" color-interpolation-filters="sRGB" filterUnits="userSpaceOnUse"><feFlood flood-opacity="0" result="BackgroundImageFix"/><feBlend in="SourceGraphic" in2="BackgroundImageFix" result="shape"/><feColorMatrix in="SourceAlpha" result="hardAlpha" values="0 0 0 0 0 0 0 0 0 0 0 0 0 0 0 0 0 0 127 0"/><feOffset dx="1" dy=".5"/><feGaussianBlur stdDeviation="1"/><feComposite in2="hardAlpha" k2="-1" k3="1" operator="arithmetic"/><feColorMatrix values="0 0 0 0 0.416667 0 0 0 0 0.331439 0 0 0 0 0.3125 0 0 0 1 0"/><feBlend in2="shape" result="effect1_innerShadow_3930_2068"/></filter><filter id="filter5_f_3930_2068" width="4.5" height="5.836" x="13.512" y="17.024" color-interpolation-filters="sRGB" filterUnits="userSpaceOnUse"><feFlood flood-opacity="0" result="BackgroundImageFix"/><feBlend in="SourceGraphic" in2="BackgroundImageFix" result="shape"/><feGaussianBlur result="effect1_foregroundBlur_3930_2068" stdDeviation=".25"/></filter><filter id="filter6_f_3930_2068" width="3.7" height="5.2" x="14.15" y="16.988" color-interpolation-filters="sRGB" filterUnits="userSpaceOnUse"><feFlood flood-opacity="0" result="BackgroundImageFix"/><feBlend in="SourceGraphic" in2="BackgroundImageFix" result="shape"/><feGaussianBlur result="effect1_foregroundBlur_3930_2068" stdDeviation=".05"/></filter><filter id="filter7_f_3930_2068" width="6.619" height="2.54" x="12.691" y="23.068" color-interpolation-filters="sRGB" filterUnits="userSpaceOnUse"><feFlood flood-opacity="0" result="BackgroundImageFix"/><feBlend in="SourceGraphic" in2="BackgroundImageFix" result="shape"/><feGaussianBlur result="effect1_foregroundBlur_3930_2068" stdDeviation=".075"/></filter><filter id="filter8_i_3930_2068" width="4.424" height="2.097" x="18.963" y="11.838" color-interpolation-filters="sRGB" filterUnits="userSpaceOnUse"><feFlood flood-opacity="0" result="BackgroundImageFix"/><feBlend in="SourceGraphic" in2="BackgroundImageFix" result="shape"/><feColorMatrix in="SourceAlpha" result="hardAlpha" values="0 0 0 0 0 0 0 0 0 0 0 0 0 0 0 0 0 0 127 0"/><feOffset dx=".25" dy="-.25"/><feGaussianBlur stdDeviation=".25"/><feComposite in2="hardAlpha" k2="-1" k3="1" operator="arithmetic"/><feColorMatrix values="0 0 0 0 0.0627451 0 0 0 0 0.0313726 0 0 0 0 0.0862745 0 0 0 1 0"/><feBlend in2="shape" result="effect1_innerShadow_3930_2068"/></filter><filter id="filter9_i_3930_2068" width="4.424" height="2.069" x="9.163" y="11.865" color-interpolation-filters="sRGB" filterUnits="userSpaceOnUse"><feFlood flood-opacity="0" result="BackgroundImageFix"/><feBlend in="SourceGraphic" in2="BackgroundImageFix" result="shape"/><feColorMatrix in="SourceAlpha" result="hardAlpha" values="0 0 0 0 0 0 0 0 0 0 0 0 0 0 0 0 0 0 127 0"/><feOffset dx=".25" dy="-.25"/><feGaussianBlur stdDeviation=".25"/><feComposite in2="hardAlpha" k2="-1" k3="1" operator="arithmetic"/><feColorMatrix values="0 0 0 0 0.0627451 0 0 0 0 0.0313726 0 0 0 0 0.0862745 0 0 0 1 0"/><feBlend in2="shape" result="effect1_innerShadow_3930_2068"/></filter><filter id="filter10_f_3930_2068" width="1.512" height="1.614" x="12.169" y="16.248" color-interpolation-filters="sRGB" filterUnits="userSpaceOnUse"><feFlood flood-opacity="0" result="BackgroundImageFix"/><feBlend in="SourceGraphic" in2="BackgroundImageFix" result="shape"/><feGaussianBlur result="effect1_foregroundBlur_3930_2068" stdDeviation=".1"/></filter><filter id="filter11_f_3930_2068" width="1.552" height="1.157" x="10.648" y="16.121" color-interpolation-filters="sRGB" filterUnits="userSpaceOnUse"><feFlood flood-opacity="0" result="BackgroundImageFix"/><feBlend in="SourceGraphic" in2="BackgroundImageFix" result="shape"/><feGaussianBlur result="effect1_foregroundBlur_3930_2068" stdDeviation=".05"/></filter><filter id="filter12_f_3930_2068" width="1.294" height="1.125" x="18.786" y="16.141" color-interpolation-filters="sRGB" filterUnits="userSpaceOnUse"><feFlood flood-opacity="0" result="BackgroundImageFix"/><feBlend in="SourceGraphic" in2="BackgroundImageFix" result="shape"/><feGaussianBlur result="effect1_foregroundBlur_3930_2068" stdDeviation=".05"/></filter><filter id="filter13_f_3930_2068" width="1.316" height="1.357" x="20.438" y="16.367" color-interpolation-filters="sRGB" filterUnits="userSpaceOnUse"><feFlood flood-opacity="0" result="BackgroundImageFix"/><feBlend in="SourceGraphic" in2="BackgroundImageFix" result="shape"/><feGaussianBlur result="effect1_foregroundBlur_3930_2068" stdDeviation=".1"/></filter><filter id="filter14_f_3930_2068" width="4.076" height="1.651" x="9.303" y="12.069" color-interpolation-filters="sRGB" filterUnits="userSpaceOnUse"><feFlood flood-opacity="0" result="BackgroundImageFix"/><feBlend in="SourceGraphic" in2="BackgroundImageFix" result="shape"/><feGaussianBlur result="effect1_foregroundBlur_3930_2068" stdDeviation=".175"/></filter><filter id="filter15_f_3930_2068" width="3.97" height="1.737" x="19.241" y="12.069" color-interpolation-filters="sRGB" filterUnits="userSpaceOnUse"><feFlood flood-opacity="0" result="BackgroundImageFix"/><feBlend in="SourceGraphic" in2="BackgroundImageFix" result="shape"/><feGaussianBlur result="effect1_foregroundBlur_3930_2068" stdDeviation=".175"/></filter><filter id="filter16_f_3930_2068" width="12.281" height="10.228" x="14.154" y="5.536" color-interpolation-filters="sRGB" filterUnits="userSpaceOnUse"><feFlood flood-opacity="0" result="BackgroundImageFix"/><feBlend in="SourceGraphic" in2="BackgroundImageFix" result="shape"/><feGaussianBlur result="effect1_foregroundBlur_3930_2068" stdDeviation="1"/></filter><linearGradient id="paint2_linear_3930_2068" x1="27.09" x2="25" y1="15.619" y2="20.681" gradientUnits="userSpaceOnUse"><stop stop-color="#675654"/><stop offset="1" stop-color="#442A30"/></linearGradient><linearGradient id="paint4_linear_3930_2068" x1="25.029" x2="25.717" y1="19.63" y2="17.317" gradientUnits="userSpaceOnUse"><stop stop-color="#422B2E"/><stop offset="1" stop-color="#4B3637"/></linearGradient><linearGradient id="paint12_linear_3930_2068" x1="14.765" x2="15.762" y1="20.323" y2="22.36" gradientUnits="userSpaceOnUse"><stop stop-color="#321F22"/><stop offset="1" stop-color="#341928"/></linearGradient><linearGradient id="paint13_linear_3930_2068" x1="13.809" x2="15.591" y1="20.65" y2="20.963" gradientUnits="userSpaceOnUse"><stop stop-color="#3E2928"/><stop offset="1" stop-color="#3E2928" stop-opacity="0"/></linearGradient><linearGradient id="paint15_linear_3930_2068" x1="16" x2="16" y1="22.275" y2="20.806" gradientUnits="userSpaceOnUse"><stop stop-color="#391E2C"/><stop offset="1" stop-color="#391E2C" stop-opacity="0"/></linearGradient><linearGradient id="paint17_linear_3930_2068" x1="14.762" x2="15.294" y1="25.357" y2="24.009" gradientUnits="userSpaceOnUse"><stop stop-color="#574748"/><stop offset="1" stop-color="#574748" stop-opacity="0"/></linearGradient><linearGradient id="paint19_linear_3930_2068" x1="13.349" x2="12.754" y1="16.983" y2="17.349" gradientUnits="userSpaceOnUse"><stop stop-color="#B4948D"/><stop offset="1" stop-color="#B4948D" stop-opacity="0"/></linearGradient><linearGradient id="paint23_linear_3930_2068" x1="21.519" x2="20.934" y1="16.975" y2="17.335" gradientUnits="userSpaceOnUse"><stop stop-color="#B4948D"/><stop offset="1" stop-color="#B4948D" stop-opacity="0"/></linearGradient></defs></svg>