<svg xmlns="http://www.w3.org/2000/svg" width="32" height="32" fill="none" viewBox="0 0 32 32"><path fill="url(#paint0_radial_3987_21948)" d="M16 19.697c-5.502 0-9.963 4.46-9.963 9.963v.209h19.926v-.21c0-5.502-4.46-9.962-9.963-9.962Z"/><path fill="url(#paint1_radial_3987_21948)" d="M16 19.697c-5.502 0-9.963 4.46-9.963 9.963v.209h19.926v-.21c0-5.502-4.46-9.962-9.963-9.962Z"/><path fill="url(#paint2_radial_3987_21948)" d="M16 19.697c-5.502 0-9.963 4.46-9.963 9.963v.209h19.926v-.21c0-5.502-4.46-9.962-9.963-9.962Z"/><path fill="url(#paint3_linear_3987_21948)" d="M16 19.697c-5.502 0-9.963 4.46-9.963 9.963v.209h19.926v-.21c0-5.502-4.46-9.962-9.963-9.962Z"/><path fill="url(#paint4_radial_3987_21948)" d="M16 19.697c-5.502 0-9.963 4.46-9.963 9.963v.209h19.926v-.21c0-5.502-4.46-9.962-9.963-9.962Z"/><rect width="5.188" height="6.789" x="13.451" y="17.206" fill="url(#paint5_radial_3987_21948)" rx="2.594"/><g filter="url(#filter0_i_3987_21948)"><circle cx="9.832" cy="13.284" r="2.165" fill="url(#paint6_radial_3987_21948)"/></g><g filter="url(#filter1_f_3987_21948)"><circle cx="9.832" cy="13.284" r="1.29" fill="url(#paint7_linear_3987_21948)"/></g><g filter="url(#filter2_i_3987_21948)"><circle cx="22.168" cy="13.284" r="2.165" fill="url(#paint8_linear_3987_21948)"/><circle cx="22.168" cy="13.284" r="2.165" fill="url(#paint9_radial_3987_21948)"/></g><g filter="url(#filter3_f_3987_21948)"><circle cx="22.168" cy="13.284" r="1.29" fill="#463133"/><circle cx="22.168" cy="13.284" r="1.29" fill="url(#paint10_radial_3987_21948)"/><circle cx="22.168" cy="13.284" r="1.29" fill="url(#paint11_radial_3987_21948)"/></g><g filter="url(#filter4_i_3987_21948)"><path fill="url(#paint12_linear_3987_21948)" d="M9.376 12.49a.956.956 0 0 0 .064.002s-.07-1.107-.14-1.867c0-.346.14-.761.418-.968l.209-.208c.347-.277.486-.691.486-1.106V7.236c0-.346.209-.622.557-.691.834-.208 2.573-.554 5.077-.554s4.243.346 5.077.554c.279.069.557.345.557.691v1.107c0 .415.208.83.487 1.106.65.456.61.707.556 1.245-.07.691-.14 1.867-.14 1.867h.024l-.344 5.133c-.209 2.294-2.012 3.893-4.163 3.893h-4.163c-2.22 0-3.954-1.599-4.163-3.893l-.399-5.204Z"/><path fill="url(#paint13_linear_3987_21948)" d="M9.376 12.49a.956.956 0 0 0 .064.002s-.07-1.107-.14-1.867c0-.346.14-.761.418-.968l.209-.208c.347-.277.486-.691.486-1.106V7.236c0-.346.209-.622.557-.691.834-.208 2.573-.554 5.077-.554s4.243.346 5.077.554c.279.069.557.345.557.691v1.107c0 .415.208.83.487 1.106.65.456.61.707.556 1.245-.07.691-.14 1.867-.14 1.867h.024l-.344 5.133c-.209 2.294-2.012 3.893-4.163 3.893h-4.163c-2.22 0-3.954-1.599-4.163-3.893l-.399-5.204Z"/><path fill="url(#paint14_radial_3987_21948)" d="M9.376 12.49a.956.956 0 0 0 .064.002s-.07-1.107-.14-1.867c0-.346.14-.761.418-.968l.209-.208c.347-.277.486-.691.486-1.106V7.236c0-.346.209-.622.557-.691.834-.208 2.573-.554 5.077-.554s4.243.346 5.077.554c.279.069.557.345.557.691v1.107c0 .415.208.83.487 1.106.65.456.61.707.556 1.245-.07.691-.14 1.867-.14 1.867h.024l-.344 5.133c-.209 2.294-2.012 3.893-4.163 3.893h-4.163c-2.22 0-3.954-1.599-4.163-3.893l-.399-5.204Z"/><path fill="url(#paint15_radial_3987_21948)" d="M9.376 12.49a.956.956 0 0 0 .064.002s-.07-1.107-.14-1.867c0-.346.14-.761.418-.968l.209-.208c.347-.277.486-.691.486-1.106V7.236c0-.346.209-.622.557-.691.834-.208 2.573-.554 5.077-.554s4.243.346 5.077.554c.279.069.557.345.557.691v1.107c0 .415.208.83.487 1.106.65.456.61.707.556 1.245-.07.691-.14 1.867-.14 1.867h.024l-.344 5.133c-.209 2.294-2.012 3.893-4.163 3.893h-4.163c-2.22 0-3.954-1.599-4.163-3.893l-.399-5.204Z"/><path fill="url(#paint16_radial_3987_21948)" d="M9.376 12.49a.956.956 0 0 0 .064.002s-.07-1.107-.14-1.867c0-.346.14-.761.418-.968l.209-.208c.347-.277.486-.691.486-1.106V7.236c0-.346.209-.622.557-.691.834-.208 2.573-.554 5.077-.554s4.243.346 5.077.554c.279.069.557.345.557.691v1.107c0 .415.208.83.487 1.106.65.456.61.707.556 1.245-.07.691-.14 1.867-.14 1.867h.024l-.344 5.133c-.209 2.294-2.012 3.893-4.163 3.893h-4.163c-2.22 0-3.954-1.599-4.163-3.893l-.399-5.204Z"/><path fill="url(#paint17_linear_3987_21948)" d="M9.376 12.49a.956.956 0 0 0 .064.002s-.07-1.107-.14-1.867c0-.346.14-.761.418-.968l.209-.208c.347-.277.486-.691.486-1.106V7.236c0-.346.209-.622.557-.691.834-.208 2.573-.554 5.077-.554s4.243.346 5.077.554c.279.069.557.345.557.691v1.107c0 .415.208.83.487 1.106.65.456.61.707.556 1.245-.07.691-.14 1.867-.14 1.867h.024l-.344 5.133c-.209 2.294-2.012 3.893-4.163 3.893h-4.163c-2.22 0-3.954-1.599-4.163-3.893l-.399-5.204Z"/></g><g filter="url(#filter5_f_3987_21948)"><path fill="url(#paint18_linear_3987_21948)" d="m21.128 5.991-3.99 1.33a1.358 1.358 0 0 0 .61 2.635l3.967-.532-.587-3.433Z"/></g><g filter="url(#filter6_i_3987_21948)"><path fill="#21181B" d="m22.237 4.885.556.277c.974.484 1.53 1.59 1.322 2.766l-.765 3.942c-.068.407-.338.68-.742.69l-.023.001s.07-1.175.139-1.867c.056-.562-.042-.733-.556-1.245-.279-.277-.487-.691-.487-1.106V7.236c0-.346-.279-.622-.557-.691-.834-.208-2.573-.554-5.077-.554s-4.243.346-5.077.554c-.348.069-.557.345-.557.691v1.107c0 .415-.139.83-.487 1.106l-.208.208c-.278.207-.418.622-.418.968.07.76.14 1.867.14 1.867-.022 0-.043 0-.064-.002a.821.821 0 0 1-.771-.69L7.84 7.86c-.14-1.107.417-2.213 1.39-2.697l.557-.277c.348-.208.696-.484 1.044-.76l1.252-1.315c.765-.691 1.877-.899 2.851-.415.696.208 1.46.208 2.156 0 1.044-.345 2.226-.069 3.06.692l1.044 1.037c.278.346.626.553 1.043.76Z"/><path fill="url(#paint19_radial_3987_21948)" d="m22.237 4.885.556.277c.974.484 1.53 1.59 1.322 2.766l-.765 3.942c-.068.407-.338.68-.742.69l-.023.001s.07-1.175.139-1.867c.056-.562-.042-.733-.556-1.245-.279-.277-.487-.691-.487-1.106V7.236c0-.346-.279-.622-.557-.691-.834-.208-2.573-.554-5.077-.554s-4.243.346-5.077.554c-.348.069-.557.345-.557.691v1.107c0 .415-.139.83-.487 1.106l-.208.208c-.278.207-.418.622-.418.968.07.76.14 1.867.14 1.867-.022 0-.043 0-.064-.002a.821.821 0 0 1-.771-.69L7.84 7.86c-.14-1.107.417-2.213 1.39-2.697l.557-.277c.348-.208.696-.484 1.044-.76l1.252-1.315c.765-.691 1.877-.899 2.851-.415.696.208 1.46.208 2.156 0 1.044-.345 2.226-.069 3.06.692l1.044 1.037c.278.346.626.553 1.043.76Z"/><path fill="url(#paint20_radial_3987_21948)" d="m22.237 4.885.556.277c.974.484 1.53 1.59 1.322 2.766l-.765 3.942c-.068.407-.338.68-.742.69l-.023.001s.07-1.175.139-1.867c.056-.562-.042-.733-.556-1.245-.279-.277-.487-.691-.487-1.106V7.236c0-.346-.279-.622-.557-.691-.834-.208-2.573-.554-5.077-.554s-4.243.346-5.077.554c-.348.069-.557.345-.557.691v1.107c0 .415-.139.83-.487 1.106l-.208.208c-.278.207-.418.622-.418.968.07.76.14 1.867.14 1.867-.022 0-.043 0-.064-.002a.821.821 0 0 1-.771-.69L7.84 7.86c-.14-1.107.417-2.213 1.39-2.697l.557-.277c.348-.208.696-.484 1.044-.76l1.252-1.315c.765-.691 1.877-.899 2.851-.415.696.208 1.46.208 2.156 0 1.044-.345 2.226-.069 3.06.692l1.044 1.037c.278.346.626.553 1.043.76Z"/><path fill="url(#paint21_radial_3987_21948)" d="m22.237 4.885.556.277c.974.484 1.53 1.59 1.322 2.766l-.765 3.942c-.068.407-.338.68-.742.69l-.023.001s.07-1.175.139-1.867c.056-.562-.042-.733-.556-1.245-.279-.277-.487-.691-.487-1.106V7.236c0-.346-.279-.622-.557-.691-.834-.208-2.573-.554-5.077-.554s-4.243.346-5.077.554c-.348.069-.557.345-.557.691v1.107c0 .415-.139.83-.487 1.106l-.208.208c-.278.207-.418.622-.418.968.07.76.14 1.867.14 1.867-.022 0-.043 0-.064-.002a.821.821 0 0 1-.771-.69L7.84 7.86c-.14-1.107.417-2.213 1.39-2.697l.557-.277c.348-.208.696-.484 1.044-.76l1.252-1.315c.765-.691 1.877-.899 2.851-.415.696.208 1.46.208 2.156 0 1.044-.345 2.226-.069 3.06.692l1.044 1.037c.278.346.626.553 1.043.76Z"/><path fill="url(#paint22_radial_3987_21948)" d="m22.237 4.885.556.277c.974.484 1.53 1.59 1.322 2.766l-.765 3.942c-.068.407-.338.68-.742.69l-.023.001s.07-1.175.139-1.867c.056-.562-.042-.733-.556-1.245-.279-.277-.487-.691-.487-1.106V7.236c0-.346-.279-.622-.557-.691-.834-.208-2.573-.554-5.077-.554s-4.243.346-5.077.554c-.348.069-.557.345-.557.691v1.107c0 .415-.139.83-.487 1.106l-.208.208c-.278.207-.418.622-.418.968.07.76.14 1.867.14 1.867-.022 0-.043 0-.064-.002a.821.821 0 0 1-.771-.69L7.84 7.86c-.14-1.107.417-2.213 1.39-2.697l.557-.277c.348-.208.696-.484 1.044-.76l1.252-1.315c.765-.691 1.877-.899 2.851-.415.696.208 1.46.208 2.156 0 1.044-.345 2.226-.069 3.06.692l1.044 1.037c.278.346.626.553 1.043.76Z"/></g><g filter="url(#filter7_f_3987_21948)"><path fill="#332024" d="m15.632 13.126-1.064 2.204c-.132.453.185.906.633.906h.956c.448 0 .765-.46.633-.906l-.646-2.204c-.139-.488-.367-.488-.512 0Z"/></g><g filter="url(#filter8_f_3987_21948)"><path fill="#4B3034" d="m15.493 12.914-.689 2.204a.7.7 0 0 0 .675.907h1.02c.477 0 .815-.46.674-.907l-.689-2.204c-.147-.488-.836-.488-.991 0Z"/><path fill="url(#paint23_linear_3987_21948)" d="m15.493 12.914-.689 2.204a.7.7 0 0 0 .675.907h1.02c.477 0 .815-.46.674-.907l-.689-2.204c-.147-.488-.836-.488-.991 0Z"/><path fill="url(#paint24_linear_3987_21948)" d="m15.493 12.914-.689 2.204a.7.7 0 0 0 .675.907h1.02c.477 0 .815-.46.674-.907l-.689-2.204c-.147-.488-.836-.488-.991 0Z"/><path fill="url(#paint25_linear_3987_21948)" d="m15.493 12.914-.689 2.204a.7.7 0 0 0 .675.907h1.02c.477 0 .815-.46.674-.907l-.689-2.204c-.147-.488-.836-.488-.991 0Z"/><path fill="url(#paint26_radial_3987_21948)" d="m15.493 12.914-.689 2.204a.7.7 0 0 0 .675.907h1.02c.477 0 .815-.46.674-.907l-.689-2.204c-.147-.488-.836-.488-.991 0Z"/></g><path fill="url(#paint27_linear_3987_21948)" d="m15.493 12.914-.689 2.204a.7.7 0 0 0 .675.907h1.02c.477 0 .815-.46.674-.907l-.689-2.204c-.147-.488-.836-.488-.991 0Z"/><path fill="#fff" d="M19.085 11.43a1.81 1.81 0 0 1 1.756 1.372.355.355 0 0 1-.347.442h-2.892a.298.298 0 0 1-.295-.353 1.812 1.812 0 0 1 1.778-1.462Z"/><path fill="url(#paint28_radial_3987_21948)" d="M18.817 11.782a1.157 1.157 0 0 1 1.114 1.461h-2.235a1.161 1.161 0 0 1 1.12-1.462Z"/><path fill="#000" d="M18.154 12.938a.66.66 0 0 1 .663-.662.66.66 0 0 1 .588.967h-1.172a.6.6 0 0 1-.08-.305Z"/><g filter="url(#filter9_f_3987_21948)"><path fill="#C7A7A3" d="M18.732 12.026c.082.11-.09.245-.286.391-.196.147-.341.25-.424.14-.082-.11.01-.319.206-.465.195-.147.421-.176.503-.066Z"/><path fill="url(#paint29_radial_3987_21948)" d="M18.732 12.026c.082.11-.09.245-.286.391-.196.147-.341.25-.424.14-.082-.11.01-.319.206-.465.195-.147.421-.176.503-.066Z"/></g><g filter="url(#filter10_f_3987_21948)"><path fill="url(#paint30_linear_3987_21948)" d="M19.847 12.786a1.088 1.088 0 0 0-.3-.6l-.337.37.152.296.485-.066Z"/></g><path fill="#fff" d="M12.886 11.43a1.81 1.81 0 0 0-1.757 1.372.355.355 0 0 0 .347.442h2.893a.298.298 0 0 0 .294-.353 1.816 1.816 0 0 0-1.777-1.462Z"/><path fill="url(#paint31_radial_3987_21948)" d="M13.154 11.781a1.157 1.157 0 0 0-1.115 1.462h2.235c.027-.1.042-.2.042-.305a1.165 1.165 0 0 0-1.162-1.157Z"/><path fill="#000" d="M13.817 12.938a.66.66 0 0 0-.663-.662.66.66 0 0 0-.589.967h1.173a.656.656 0 0 0 .079-.305Z"/><g filter="url(#filter11_f_3987_21948)"><path fill="url(#paint32_linear_3987_21948)" d="M14.211 12.803c0-.374-.304-.623-.386-.699l-.374.362.23.468.53-.131Z"/></g><g filter="url(#filter12_f_3987_21948)" transform="rotate(-27.914 12.805 12.276)"><ellipse cx="12.805" cy="12.276" fill="#C7A7A3" fill-opacity=".9" rx=".505" ry=".256"/><ellipse cx="12.805" cy="12.276" fill="url(#paint33_radial_3987_21948)" rx=".505" ry=".256"/></g><g filter="url(#filter13_f_3987_21948)"><path stroke="url(#paint34_linear_3987_21948)" stroke-linecap="round" stroke-width=".25" d="M10.111 7.046v1.163c-.01.193-.091.624-.335.807"/></g><g filter="url(#filter14_i_3987_21948)"><path fill="#121212" fill-rule="evenodd" d="M14.087 9.436c.238.25.23.645-.02.884a3.659 3.659 0 0 1-2.514 1.025.625.625 0 1 1 0-1.25 2.41 2.41 0 0 0 1.65-.678.625.625 0 0 1 .884.02Z" clip-rule="evenodd"/></g><g filter="url(#filter15_i_3987_21948)"><path fill="#121212" fill-rule="evenodd" d="M17.89 9.436a.625.625 0 0 0 .02.884 3.659 3.659 0 0 0 2.514 1.025.625.625 0 1 0 0-1.25 2.409 2.409 0 0 1-1.65-.678.625.625 0 0 0-.883.02Z" clip-rule="evenodd"/></g><g filter="url(#filter16_f_3987_21948)"><path stroke="#323232" stroke-linecap="round" stroke-width=".4" d="M11.553 10.564c.656 0 1.441-.238 2.082-.852"/></g><g filter="url(#filter17_f_3987_21948)"><path stroke="#323232" stroke-linecap="round" stroke-width=".4" d="M20.506 10.478a3.034 3.034 0 0 1-2.082-.852"/></g><g stroke-linecap="round" stroke-width=".3" clip-rule="evenodd" filter="url(#filter18_f_3987_21948)"><path stroke="url(#paint35_radial_3987_21948)" d="M17.096 17.736c-.918-.628-1.929-.26-2.34.004a.275.275 0 0 1-.298-.462c.495-.319 1.766-.805 2.949.004a.275.275 0 0 1-.31.454Z"/><path stroke="url(#paint36_radial_3987_21948)" d="M17.096 17.736c-.918-.628-1.929-.26-2.34.004a.275.275 0 0 1-.298-.462c.495-.319 1.766-.805 2.949.004a.275.275 0 0 1-.31.454Z"/></g><path fill="#280017" fill-rule="evenodd" d="M17.096 17.736c-.918-.628-1.929-.26-2.34.004a.275.275 0 0 1-.298-.462c.495-.319 1.766-.805 2.949.004a.275.275 0 0 1-.31.454Z" clip-rule="evenodd"/><defs><radialGradient id="paint0_radial_3987_21948" cx="0" cy="0" r="1" gradientTransform="rotate(160.481 9.326 14.092) scale(12.5328 12.8728)" gradientUnits="userSpaceOnUse"><stop stop-color="#47B4FF"/><stop offset=".578" stop-color="#2E8BD7"/></radialGradient><radialGradient id="paint1_radial_3987_21948" cx="0" cy="0" r="1" gradientTransform="matrix(-20.8125 0 0 -13.0625 25.199 29.134)" gradientUnits="userSpaceOnUse"><stop offset=".766" stop-color="#3891C9" stop-opacity="0"/><stop offset="1" stop-color="#3891C9"/></radialGradient><radialGradient id="paint2_radial_3987_21948" cx="0" cy="0" r="1" gradientTransform="matrix(0 -5.43107 5.625 0 10.836 30.214)" gradientUnits="userSpaceOnUse"><stop stop-color="#2683D3"/><stop offset="1" stop-color="#2683D3" stop-opacity="0"/></radialGradient><radialGradient id="paint4_radial_3987_21948" cx="0" cy="0" r="1" gradientTransform="matrix(-5.61736 0 0 -2.43441 15.703 21.148)" gradientUnits="userSpaceOnUse"><stop offset=".206" stop-color="#045D9A"/><stop offset="1" stop-color="#045D9A" stop-opacity="0"/></radialGradient><radialGradient id="paint5_radial_3987_21948" cx="0" cy="0" r="1" gradientTransform="matrix(2.5625 2.96875 -4.68169 4.04104 15.25 20.823)" gradientUnits="userSpaceOnUse"><stop offset=".178" stop-color="#2B161B"/><stop offset=".963" stop-color="#533C3D"/></radialGradient><radialGradient id="paint6_radial_3987_21948" cx="0" cy="0" r="1" gradientTransform="matrix(2.27544 0 0 3.98204 7.668 13.284)" gradientUnits="userSpaceOnUse"><stop offset=".351" stop-color="#362324"/><stop offset="1" stop-color="#332423"/></radialGradient><radialGradient id="paint9_radial_3987_21948" cx="0" cy="0" r="1" gradientTransform="matrix(1.07194 -.78054 .89089 1.22348 22.65 12.94)" gradientUnits="userSpaceOnUse"><stop offset=".543" stop-color="#40272A"/><stop offset="1" stop-color="#40272A" stop-opacity="0"/></radialGradient><radialGradient id="paint10_radial_3987_21948" cx="0" cy="0" r="1" gradientTransform="matrix(1.06488 -1.95862 1.14639 .62328 22.114 14.35)" gradientUnits="userSpaceOnUse"><stop offset=".755" stop-color="#31191A" stop-opacity="0"/><stop offset=".916" stop-color="#31191A"/></radialGradient><radialGradient id="paint11_radial_3987_21948" cx="0" cy="0" r="1" gradientTransform="matrix(.3362 .3328 -.42902 .43342 22.168 13.284)" gradientUnits="userSpaceOnUse"><stop stop-color="#352123"/><stop offset="1" stop-color="#352123" stop-opacity="0"/></radialGradient><radialGradient id="paint14_radial_3987_21948" cx="0" cy="0" r="1" gradientTransform="matrix(0 9.21287 -12.506 0 15.598 13.026)" gradientUnits="userSpaceOnUse"><stop offset=".561" stop-color="#3D2138" stop-opacity="0"/><stop offset="1" stop-color="#3D2138"/></radialGradient><radialGradient id="paint15_radial_3987_21948" cx="0" cy="0" r="1" gradientTransform="matrix(0 -1.69482 2.08593 0 19.03 11.636)" gradientUnits="userSpaceOnUse"><stop stop-color="#412628"/><stop offset="1" stop-color="#412628" stop-opacity="0"/></radialGradient><radialGradient id="paint16_radial_3987_21948" cx="0" cy="0" r="1" gradientTransform="matrix(0 -1.80346 2.24277 0 13.12 11.592)" gradientUnits="userSpaceOnUse"><stop stop-color="#351D26"/><stop offset="1" stop-color="#351D26" stop-opacity="0"/></radialGradient><radialGradient id="paint19_radial_3987_21948" cx="0" cy="0" r="1" gradientTransform="matrix(1.03449 -3.83369 1.42165 .38362 21.623 7.96)" gradientUnits="userSpaceOnUse"><stop stop-color="#464344"/><stop offset="1" stop-color="#464344" stop-opacity="0"/></radialGradient><radialGradient id="paint20_radial_3987_21948" cx="0" cy="0" r="1" gradientTransform="matrix(4.95945 .4564 -.2454 2.66667 19.493 5.678)" gradientUnits="userSpaceOnUse"><stop offset=".122" stop-color="#4A4648"/><stop offset="1" stop-color="#4A4648" stop-opacity="0"/></radialGradient><radialGradient id="paint21_radial_3987_21948" cx="0" cy="0" r="1" gradientTransform="matrix(0 2.17729 -3.37201 0 15.989 2.131)" gradientUnits="userSpaceOnUse"><stop stop-color="#423D3F"/><stop offset="1" stop-color="#423D3F" stop-opacity="0"/></radialGradient><radialGradient id="paint22_radial_3987_21948" cx="0" cy="0" r="1" gradientTransform="rotate(-36.235 20.58 -6.169) scale(4.9415 7.74172)" gradientUnits="userSpaceOnUse"><stop stop-color="#463C39"/><stop offset="1" stop-color="#463C39" stop-opacity="0"/></radialGradient><radialGradient id="paint26_radial_3987_21948" cx="0" cy="0" r="1" gradientTransform="matrix(0 .2553 -.82025 0 16.413 15.367)" gradientUnits="userSpaceOnUse"><stop stop-color="#624E4D"/><stop offset="1" stop-color="#624E4D" stop-opacity="0"/></radialGradient><radialGradient id="paint28_radial_3987_21948" cx="0" cy="0" r="1" gradientTransform="matrix(0 1.05175 -1.67293 0 18.814 12.4)" gradientUnits="userSpaceOnUse"><stop offset=".802" stop-color="#7D574A"/><stop offset="1" stop-color="#694B43"/><stop offset="1" stop-color="#804D49"/><stop offset="1" stop-color="#664944"/></radialGradient><radialGradient id="paint29_radial_3987_21948" cx="0" cy="0" r="1" gradientTransform="rotate(-127.812 12.322 1.72) scale(.49039 .67515)" gradientUnits="userSpaceOnUse"><stop offset=".766" stop-color="#FFE6E2" stop-opacity="0"/><stop offset=".966" stop-color="#FFE6E2"/></radialGradient><radialGradient id="paint31_radial_3987_21948" cx="0" cy="0" r="1" gradientTransform="matrix(0 1.0518 -1.67301 0 13.157 12.4)" gradientUnits="userSpaceOnUse"><stop offset=".802" stop-color="#7D574A"/><stop offset="1" stop-color="#694B43"/><stop offset="1" stop-color="#804D49"/><stop offset="1" stop-color="#664944"/></radialGradient><radialGradient id="paint33_radial_3987_21948" cx="0" cy="0" r="1" gradientTransform="matrix(-.01003 -.6405 .76991 -.01205 12.785 12.684)" gradientUnits="userSpaceOnUse"><stop offset=".766" stop-color="#FFE6E2" stop-opacity="0"/><stop offset=".966" stop-color="#FFE6E2"/></radialGradient><radialGradient id="paint35_radial_3987_21948" cx="0" cy="0" r="1" gradientTransform="matrix(-.08594 .28125 -1.54727 -.47278 16.265 17.436)" gradientUnits="userSpaceOnUse"><stop stop-color="#564140"/><stop offset="1" stop-color="#564140" stop-opacity="0"/></radialGradient><radialGradient id="paint36_radial_3987_21948" cx="0" cy="0" r="1" gradientTransform="matrix(.191 -.14453 .57285 .75707 14.332 17.753)" gradientUnits="userSpaceOnUse"><stop stop-color="#564140"/><stop offset="1" stop-color="#564140" stop-opacity="0"/></radialGradient><filter id="filter0_i_3987_21948" width="4.529" height="4.329" x="7.668" y="11.12" color-interpolation-filters="sRGB" filterUnits="userSpaceOnUse"><feFlood flood-opacity="0" result="BackgroundImageFix"/><feBlend in="SourceGraphic" in2="BackgroundImageFix" result="shape"/><feColorMatrix in="SourceAlpha" result="hardAlpha" values="0 0 0 0 0 0 0 0 0 0 0 0 0 0 0 0 0 0 127 0"/><feOffset dx=".2"/><feGaussianBlur stdDeviation=".15"/><feComposite in2="hardAlpha" k2="-1" k3="1" operator="arithmetic"/><feColorMatrix values="0 0 0 0 0.341176 0 0 0 0 0.270588 0 0 0 0 0.254902 0 0 0 1 0"/><feBlend in2="shape" result="effect1_innerShadow_3987_21948"/></filter><filter id="filter1_f_3987_21948" width="3.58" height="3.58" x="8.042" y="11.494" color-interpolation-filters="sRGB" filterUnits="userSpaceOnUse"><feFlood flood-opacity="0" result="BackgroundImageFix"/><feBlend in="SourceGraphic" in2="BackgroundImageFix" result="shape"/><feGaussianBlur result="effect1_foregroundBlur_3987_21948" stdDeviation=".25"/></filter><filter id="filter2_i_3987_21948" width="4.579" height="4.579" x="20.003" y="10.87" color-interpolation-filters="sRGB" filterUnits="userSpaceOnUse"><feFlood flood-opacity="0" result="BackgroundImageFix"/><feBlend in="SourceGraphic" in2="BackgroundImageFix" result="shape"/><feColorMatrix in="SourceAlpha" result="hardAlpha" values="0 0 0 0 0 0 0 0 0 0 0 0 0 0 0 0 0 0 127 0"/><feOffset dx=".25" dy="-.25"/><feGaussianBlur stdDeviation=".25"/><feComposite in2="hardAlpha" k2="-1" k3="1" operator="arithmetic"/><feColorMatrix values="0 0 0 0 0.243137 0 0 0 0 0.141176 0 0 0 0 0.223529 0 0 0 1 0"/><feBlend in2="shape" result="effect1_innerShadow_3987_21948"/></filter><filter id="filter3_f_3987_21948" width="3.58" height="3.58" x="20.378" y="11.494" color-interpolation-filters="sRGB" filterUnits="userSpaceOnUse"><feFlood flood-opacity="0" result="BackgroundImageFix"/><feBlend in="SourceGraphic" in2="BackgroundImageFix" result="shape"/><feGaussianBlur result="effect1_foregroundBlur_3987_21948" stdDeviation=".25"/></filter><filter id="filter4_i_3987_21948" width="13.451" height="15.846" x="9.301" y="5.991" color-interpolation-filters="sRGB" filterUnits="userSpaceOnUse"><feFlood flood-opacity="0" result="BackgroundImageFix"/><feBlend in="SourceGraphic" in2="BackgroundImageFix" result="shape"/><feColorMatrix in="SourceAlpha" result="hardAlpha" values="0 0 0 0 0 0 0 0 0 0 0 0 0 0 0 0 0 0 127 0"/><feOffset dy=".25"/><feGaussianBlur stdDeviation=".375"/><feComposite in2="hardAlpha" k2="-1" k3="1" operator="arithmetic"/><feColorMatrix values="0 0 0 0 0.109804 0 0 0 0 0.0509804 0 0 0 0 0.0509804 0 0 0 1 0"/><feBlend in2="shape" result="effect1_innerShadow_3987_21948"/></filter><filter id="filter5_f_3987_21948" width="9.506" height="7.976" x="14.209" y="3.991" color-interpolation-filters="sRGB" filterUnits="userSpaceOnUse"><feFlood flood-opacity="0" result="BackgroundImageFix"/><feBlend in="SourceGraphic" in2="BackgroundImageFix" result="shape"/><feGaussianBlur result="effect1_foregroundBlur_3987_21948" stdDeviation="1"/></filter><filter id="filter6_i_3987_21948" width="16.34" height="10.93" x="7.819" y="1.631" color-interpolation-filters="sRGB" filterUnits="userSpaceOnUse"><feFlood flood-opacity="0" result="BackgroundImageFix"/><feBlend in="SourceGraphic" in2="BackgroundImageFix" result="shape"/><feColorMatrix in="SourceAlpha" result="hardAlpha" values="0 0 0 0 0 0 0 0 0 0 0 0 0 0 0 0 0 0 127 0"/><feOffset dy="-.5"/><feGaussianBlur stdDeviation=".375"/><feComposite in2="hardAlpha" k2="-1" k3="1" operator="arithmetic"/><feColorMatrix values="0 0 0 0 0.0392157 0 0 0 0 0.00784314 0 0 0 0 0.0196078 0 0 0 1 0"/><feBlend in2="shape" result="effect1_innerShadow_3987_21948"/></filter><filter id="filter7_f_3987_21948" width="3.782" height="4.977" x="13.788" y="12.01" color-interpolation-filters="sRGB" filterUnits="userSpaceOnUse"><feFlood flood-opacity="0" result="BackgroundImageFix"/><feBlend in="SourceGraphic" in2="BackgroundImageFix" result="shape"/><feGaussianBlur result="effect1_foregroundBlur_3987_21948" stdDeviation=".375"/></filter><filter id="filter8_f_3987_21948" width="2.934" height="3.977" x="14.522" y="12.298" color-interpolation-filters="sRGB" filterUnits="userSpaceOnUse"><feFlood flood-opacity="0" result="BackgroundImageFix"/><feBlend in="SourceGraphic" in2="BackgroundImageFix" result="shape"/><feGaussianBlur result="effect1_foregroundBlur_3987_21948" stdDeviation=".125"/></filter><filter id="filter9_f_3987_21948" width=".961" height=".843" x="17.892" y="11.859" color-interpolation-filters="sRGB" filterUnits="userSpaceOnUse"><feFlood flood-opacity="0" result="BackgroundImageFix"/><feBlend in="SourceGraphic" in2="BackgroundImageFix" result="shape"/><feGaussianBlur result="effect1_foregroundBlur_3987_21948" stdDeviation=".05"/></filter><filter id="filter10_f_3987_21948" width="1.037" height="1.066" x="19.01" y="11.986" color-interpolation-filters="sRGB" filterUnits="userSpaceOnUse"><feFlood flood-opacity="0" result="BackgroundImageFix"/><feBlend in="SourceGraphic" in2="BackgroundImageFix" result="shape"/><feGaussianBlur result="effect1_foregroundBlur_3987_21948" stdDeviation=".1"/></filter><filter id="filter11_f_3987_21948" width="1.16" height="1.23" x="13.251" y="11.904" color-interpolation-filters="sRGB" filterUnits="userSpaceOnUse"><feFlood flood-opacity="0" result="BackgroundImageFix"/><feBlend in="SourceGraphic" in2="BackgroundImageFix" result="shape"/><feGaussianBlur result="effect1_foregroundBlur_3987_21948" stdDeviation=".1"/></filter><filter id="filter12_f_3987_21948" width="1.124" height=".854" x="12.243" y="11.849" color-interpolation-filters="sRGB" filterUnits="userSpaceOnUse"><feFlood flood-opacity="0" result="BackgroundImageFix"/><feBlend in="SourceGraphic" in2="BackgroundImageFix" result="shape"/><feGaussianBlur result="effect1_foregroundBlur_3987_21948" stdDeviation=".05"/></filter><filter id="filter13_f_3987_21948" width="1.085" height="2.72" x="9.401" y="6.671" color-interpolation-filters="sRGB" filterUnits="userSpaceOnUse"><feFlood flood-opacity="0" result="BackgroundImageFix"/><feBlend in="SourceGraphic" in2="BackgroundImageFix" result="shape"/><feGaussianBlur result="effect1_foregroundBlur_3987_21948" stdDeviation=".125"/></filter><filter id="filter14_i_3987_21948" width="3.582" height="2.502" x="10.928" y="8.844" color-interpolation-filters="sRGB" filterUnits="userSpaceOnUse"><feFlood flood-opacity="0" result="BackgroundImageFix"/><feBlend in="SourceGraphic" in2="BackgroundImageFix" result="shape"/><feColorMatrix in="SourceAlpha" result="hardAlpha" values="0 0 0 0 0 0 0 0 0 0 0 0 0 0 0 0 0 0 127 0"/><feOffset dx=".25" dy="-.4"/><feGaussianBlur stdDeviation=".3"/><feComposite in2="hardAlpha" k2="-1" k3="1" operator="arithmetic"/><feColorMatrix values="0 0 0 0 0.0509804 0 0 0 0 0.0235294 0 0 0 0 0.0666667 0 0 0 1 0"/><feBlend in2="shape" result="effect1_innerShadow_3987_21948"/></filter><filter id="filter15_i_3987_21948" width="3.582" height="2.502" x="17.717" y="8.844" color-interpolation-filters="sRGB" filterUnits="userSpaceOnUse"><feFlood flood-opacity="0" result="BackgroundImageFix"/><feBlend in="SourceGraphic" in2="BackgroundImageFix" result="shape"/><feColorMatrix in="SourceAlpha" result="hardAlpha" values="0 0 0 0 0 0 0 0 0 0 0 0 0 0 0 0 0 0 127 0"/><feOffset dx=".25" dy="-.4"/><feGaussianBlur stdDeviation=".3"/><feComposite in2="hardAlpha" k2="-1" k3="1" operator="arithmetic"/><feColorMatrix values="0 0 0 0 0.0509804 0 0 0 0 0.0235294 0 0 0 0 0.0666667 0 0 0 1 0"/><feBlend in2="shape" result="effect1_innerShadow_3987_21948"/></filter><filter id="filter16_f_3987_21948" width="3.282" height="2.052" x="10.953" y="9.112" color-interpolation-filters="sRGB" filterUnits="userSpaceOnUse"><feFlood flood-opacity="0" result="BackgroundImageFix"/><feBlend in="SourceGraphic" in2="BackgroundImageFix" result="shape"/><feGaussianBlur result="effect1_foregroundBlur_3987_21948" stdDeviation=".2"/></filter><filter id="filter17_f_3987_21948" width="3.282" height="2.052" x="17.823" y="9.026" color-interpolation-filters="sRGB" filterUnits="userSpaceOnUse"><feFlood flood-opacity="0" result="BackgroundImageFix"/><feBlend in="SourceGraphic" in2="BackgroundImageFix" result="shape"/><feGaussianBlur result="effect1_foregroundBlur_3987_21948" stdDeviation=".2"/></filter><filter id="filter18_f_3987_21948" width="3.695" height="1.445" x="14.082" y="16.589" color-interpolation-filters="sRGB" filterUnits="userSpaceOnUse"><feFlood flood-opacity="0" result="BackgroundImageFix"/><feBlend in="SourceGraphic" in2="BackgroundImageFix" result="shape"/><feGaussianBlur result="effect1_foregroundBlur_3987_21948" stdDeviation=".05"/></filter><linearGradient id="paint3_linear_3987_21948" x1="16" x2="16" y1="29.954" y2="29.369" gradientUnits="userSpaceOnUse"><stop stop-color="#1B70C9"/><stop offset="1" stop-color="#1B70C9" stop-opacity="0"/></linearGradient><linearGradient id="paint7_linear_3987_21948" x1="9.832" x2="9.002" y1="13.646" y2="13.646" gradientUnits="userSpaceOnUse"><stop stop-color="#281920"/><stop offset="1" stop-color="#27161D"/></linearGradient><linearGradient id="paint8_linear_3987_21948" x1="23.576" x2="22.515" y1="11.869" y2="15.158" gradientUnits="userSpaceOnUse"><stop stop-color="#635251"/><stop offset="1" stop-color="#452A31"/></linearGradient><linearGradient id="paint12_linear_3987_21948" x1="21.222" x2="11.32" y1="13.789" y2="15.265" gradientUnits="userSpaceOnUse"><stop stop-color="#5A413E"/><stop offset="1" stop-color="#3C2828"/></linearGradient><linearGradient id="paint13_linear_3987_21948" x1="8.992" x2="11.432" y1="17.285" y2="17.198" gradientUnits="userSpaceOnUse"><stop stop-color="#564440"/><stop offset="1" stop-color="#564440" stop-opacity="0"/></linearGradient><linearGradient id="paint17_linear_3987_21948" x1="16.026" x2="16.026" y1="-7.312" y2="21.848" gradientUnits="userSpaceOnUse"><stop offset=".979" stop-color="#624D68" stop-opacity="0"/><stop offset="1" stop-color="#624D68"/></linearGradient><linearGradient id="paint18_linear_3987_21948" x1="15.299" x2="25.859" y1="9.919" y2="6.138" gradientUnits="userSpaceOnUse"><stop stop-color="#685654"/><stop offset="1" stop-color="#685654" stop-opacity="0"/></linearGradient><linearGradient id="paint23_linear_3987_21948" x1="14.868" x2="16.085" y1="14.644" y2="14.644" gradientUnits="userSpaceOnUse"><stop stop-color="#3D2928"/><stop offset="1" stop-color="#3D2928" stop-opacity="0"/></linearGradient><linearGradient id="paint24_linear_3987_21948" x1="17.205" x2="15.876" y1="15.062" y2="15.043" gradientUnits="userSpaceOnUse"><stop stop-color="#624D4B"/><stop offset="1" stop-color="#624D4B" stop-opacity="0"/></linearGradient><linearGradient id="paint25_linear_3987_21948" x1="16.241" x2="16.241" y1="16.025" y2="15.282" gradientUnits="userSpaceOnUse"><stop stop-color="#3F222F"/><stop offset="1" stop-color="#3F222F" stop-opacity="0"/></linearGradient><linearGradient id="paint27_linear_3987_21948" x1="16.152" x2="16.152" y1="16.079" y2="15.862" gradientUnits="userSpaceOnUse"><stop stop-color="#31171F"/><stop offset="1" stop-color="#31171F" stop-opacity="0"/></linearGradient><linearGradient id="paint30_linear_3987_21948" x1="19.822" x2="19.416" y1="12.47" y2="12.72" gradientUnits="userSpaceOnUse"><stop stop-color="#B4948D"/><stop offset="1" stop-color="#B4948D" stop-opacity="0"/></linearGradient><linearGradient id="paint32_linear_3987_21948" x1="14.121" x2="13.714" y1="12.47" y2="12.72" gradientUnits="userSpaceOnUse"><stop stop-color="#B4948D"/><stop offset="1" stop-color="#B4948D" stop-opacity="0"/></linearGradient><linearGradient id="paint34_linear_3987_21948" x1="9.944" x2="9.944" y1="6.918" y2="9.715" gradientUnits="userSpaceOnUse"><stop stop-color="#3C393A"/><stop offset="1" stop-color="#3C393A" stop-opacity="0"/></linearGradient></defs></svg>