<svg xmlns="http://www.w3.org/2000/svg" width="32" height="32" fill="none" viewBox="0 0 32 32"><g filter="url(#filter0_i_4002_3101)"><circle cx="7.109" cy="18.018" r="3.121" fill="url(#paint0_radial_4002_3101)"/></g><g filter="url(#filter1_f_4002_3101)"><circle cx="7.109" cy="18.018" r="1.86" fill="url(#paint1_linear_4002_3101)"/></g><g filter="url(#filter2_i_4002_3101)"><circle cx="24.891" cy="18.018" r="3.121" fill="url(#paint2_linear_4002_3101)"/><circle cx="24.891" cy="18.018" r="3.121" fill="url(#paint3_radial_4002_3101)"/></g><g filter="url(#filter3_f_4002_3101)"><circle cx="24.891" cy="18.018" r="1.86" fill="#7A5654"/><circle cx="24.891" cy="18.018" r="1.86" fill="url(#paint4_radial_4002_3101)"/><circle cx="24.891" cy="18.018" r="1.86" fill="url(#paint5_radial_4002_3101)"/></g><g filter="url(#filter4_i_4002_3101)"><path fill="url(#paint6_linear_4002_3101)" d="m25.57 14.687-.005.053h.002c-.184 3.411-.502 9.105-.538 9.634-.3 3.308-2.9 5.613-6 5.613h-6.002c-3.2 0-5.7-2.305-6-5.613-.12-1.562-.182-3.173-.244-4.789-.061-1.61-.123-3.225-.243-4.797v-.133c-.008-.59-.021-1.727.476-2.47.802-1.196 1.711-1.285 2.602-1.285h12.96c2.464 0 3.08 1.796 3.08 2.694l-.085 1.048-.002.025-.001.02Z"/><path fill="url(#paint7_radial_4002_3101)" d="m25.57 14.687-.005.053h.002c-.184 3.411-.502 9.105-.538 9.634-.3 3.308-2.9 5.613-6 5.613h-6.002c-3.2 0-5.7-2.305-6-5.613-.12-1.562-.182-3.173-.244-4.789-.061-1.61-.123-3.225-.243-4.797v-.133c-.008-.59-.021-1.727.476-2.47.802-1.196 1.711-1.285 2.602-1.285h12.96c2.464 0 3.08 1.796 3.08 2.694l-.085 1.048-.002.025-.001.02Z"/><path fill="url(#paint8_radial_4002_3101)" d="m25.57 14.687-.005.053h.002c-.184 3.411-.502 9.105-.538 9.634-.3 3.308-2.9 5.613-6 5.613h-6.002c-3.2 0-5.7-2.305-6-5.613-.12-1.562-.182-3.173-.244-4.789-.061-1.61-.123-3.225-.243-4.797v-.133c-.008-.59-.021-1.727.476-2.47.802-1.196 1.711-1.285 2.602-1.285h12.96c2.464 0 3.08 1.796 3.08 2.694l-.085 1.048-.002.025-.001.02Z"/></g><path fill="url(#paint9_linear_4002_3101)" d="m25.57 14.687-.005.053h.002c-.184 3.411-.502 9.105-.538 9.634-.3 3.308-2.9 5.613-6 5.613h-6.002c-3.2 0-5.7-2.305-6-5.613-.12-1.562-.182-3.173-.244-4.789-.061-1.61-.123-3.225-.243-4.797v-.133c-.008-.59-.021-1.727.476-2.47.802-1.196 1.711-1.285 2.602-1.285h12.96c2.464 0 3.08 1.796 3.08 2.694l-.085 1.048-.002.025-.001.02Z"/><path fill="url(#paint10_linear_4002_3101)" d="m25.57 14.687-.005.053h.002c-.184 3.411-.502 9.105-.538 9.634-.3 3.308-2.9 5.613-6 5.613h-6.002c-3.2 0-5.7-2.305-6-5.613-.12-1.562-.182-3.173-.244-4.789-.061-1.61-.123-3.225-.243-4.797v-.133c-.008-.59-.021-1.727.476-2.47.802-1.196 1.711-1.285 2.602-1.285h12.96c2.464 0 3.08 1.796 3.08 2.694l-.085 1.048-.002.025-.001.02Z"/><path fill="url(#paint11_radial_4002_3101)" d="m25.57 14.687-.005.053h.002c-.184 3.411-.502 9.105-.538 9.634-.3 3.308-2.9 5.613-6 5.613h-6.002c-3.2 0-5.7-2.305-6-5.613-.12-1.562-.182-3.173-.244-4.789-.061-1.61-.123-3.225-.243-4.797v-.133c-.008-.59-.021-1.727.476-2.47.802-1.196 1.711-1.285 2.602-1.285h12.96c2.464 0 3.08 1.796 3.08 2.694l-.085 1.048-.002.025-.001.02Z"/><path fill="url(#paint12_radial_4002_3101)" d="m25.57 14.687-.005.053h.002c-.184 3.411-.502 9.105-.538 9.634-.3 3.308-2.9 5.613-6 5.613h-6.002c-3.2 0-5.7-2.305-6-5.613-.12-1.562-.182-3.173-.244-4.789-.061-1.61-.123-3.225-.243-4.797v-.133c-.008-.59-.021-1.727.476-2.47.802-1.196 1.711-1.285 2.602-1.285h12.96c2.464 0 3.08 1.796 3.08 2.694l-.085 1.048-.002.025-.001.02Z"/><g filter="url(#filter5_f_4002_3101)"><path fill="#71404A" d="m15.469 17.79-1.533 3.177c-.19.653.266 1.306.912 1.306h1.378c.646 0 1.102-.663.912-1.306l-.931-3.177c-.2-.704-.529-.704-.738 0Z"/></g><g filter="url(#filter6_f_4002_3101)"><path fill="#8C5F5E" d="m15.27 17.485-.994 3.177a1.008 1.008 0 0 0 .973 1.307h1.47a1.01 1.01 0 0 0 .972-1.307l-.993-3.177c-.213-.704-1.206-.704-1.429 0Z"/><path fill="url(#paint13_linear_4002_3101)" d="m15.27 17.485-.994 3.177a1.008 1.008 0 0 0 .973 1.307h1.47a1.01 1.01 0 0 0 .972-1.307l-.993-3.177c-.213-.704-1.206-.704-1.429 0Z"/><path fill="url(#paint14_linear_4002_3101)" d="m15.27 17.485-.994 3.177a1.008 1.008 0 0 0 .973 1.307h1.47a1.01 1.01 0 0 0 .972-1.307l-.993-3.177c-.213-.704-1.206-.704-1.429 0Z"/><path fill="url(#paint15_linear_4002_3101)" d="m15.27 17.485-.994 3.177a1.008 1.008 0 0 0 .973 1.307h1.47a1.01 1.01 0 0 0 .972-1.307l-.993-3.177c-.213-.704-1.206-.704-1.429 0Z"/><path fill="url(#paint16_radial_4002_3101)" d="m15.27 17.485-.994 3.177a1.008 1.008 0 0 0 .973 1.307h1.47a1.01 1.01 0 0 0 .972-1.307l-.993-3.177c-.213-.704-1.206-.704-1.429 0Z"/></g><path fill="#88014F" stroke="url(#paint17_linear_4002_3101)" stroke-width=".1" d="M13.418 23.21a.335.335 0 0 0-.401.07.306.306 0 0 0-.034.393 3.589 3.589 0 0 0 3 1.603c1.26 0 2.366-.64 3.001-1.603a.31.31 0 0 0-.034-.397.337.337 0 0 0-.4-.066 5.537 5.537 0 0 1-2.566.609c-.94 0-1.824-.222-2.566-.608Z"/><g filter="url(#filter7_i_4002_3101)"><path fill="#352827" d="m22.936 12.934-.002-.002-.004-.003-.008-.007-.022-.018a3.74 3.74 0 0 0-.29-.201 4.822 4.822 0 0 0-.784-.393 5.295 5.295 0 0 0-2.79-.296.998.998 0 0 0 .31 1.97 3.3 3.3 0 0 1 1.746.181 2.829 2.829 0 0 1 .561.298l.015.011a.998.998 0 0 0 1.268-1.54Z"/><path fill="url(#paint18_radial_4002_3101)" d="m22.936 12.934-.002-.002-.004-.003-.008-.007-.022-.018a3.74 3.74 0 0 0-.29-.201 4.822 4.822 0 0 0-.784-.393 5.295 5.295 0 0 0-2.79-.296.998.998 0 0 0 .31 1.97 3.3 3.3 0 0 1 1.746.181 2.829 2.829 0 0 1 .561.298l.015.011a.998.998 0 0 0 1.268-1.54Z"/></g><g filter="url(#filter8_i_4002_3101)"><path fill="#352827" d="M8.93 12.934h.001l.002-.002.004-.003.008-.007.022-.018.067-.05a4.826 4.826 0 0 1 1.007-.544 5.295 5.295 0 0 1 2.79-.296.998.998 0 0 1-.31 1.97 3.3 3.3 0 0 0-1.746.181 2.829 2.829 0 0 0-.561.298l-.015.011a.998.998 0 0 1-1.269-1.54Z"/><path fill="url(#paint19_radial_4002_3101)" d="M8.93 12.934h.001l.002-.002.004-.003.008-.007.022-.018.067-.05a4.826 4.826 0 0 1 1.007-.544 5.295 5.295 0 0 1 2.79-.296.998.998 0 0 1-.31 1.97 3.3 3.3 0 0 0-1.746.181 2.829 2.829 0 0 0-.561.298l-.015.011a.998.998 0 0 1-1.269-1.54Z"/></g><path fill="#fff" d="M20.447 15.344a2.61 2.61 0 0 1 2.532 1.978.512.512 0 0 1-.5.637h-4.17a.43.43 0 0 1-.424-.508 2.612 2.612 0 0 1 2.562-2.107Z"/><path fill="url(#paint20_radial_4002_3101)" d="M20.06 15.852a1.668 1.668 0 0 1 1.607 2.107h-3.222a1.709 1.709 0 0 1-.06-.44c0-.916.75-1.667 1.675-1.667Z"/><path fill="#000" d="M19.105 17.52c0-.531.425-.956.955-.956a.952.952 0 0 1 .849 1.396h-1.69a.864.864 0 0 1-.114-.44Z"/><g filter="url(#filter9_f_4002_3101)"><path fill="#C7A7A3" d="M19.938 16.204c.119.16-.13.353-.412.564-.283.211-.492.36-.611.2-.119-.158.014-.458.296-.67.283-.21.608-.253.727-.094Z"/><path fill="url(#paint21_radial_4002_3101)" d="M19.938 16.204c.119.16-.13.353-.412.564-.283.211-.492.36-.611.2-.119-.158.014-.458.296-.67.283-.21.608-.253.727-.094Z"/></g><g filter="url(#filter10_f_4002_3101)"><path fill="url(#paint22_linear_4002_3101)" d="M21.546 17.3a1.57 1.57 0 0 0-.432-.864l-.486.533.22.426.698-.095Z"/></g><path fill="#fff" d="M11.51 15.344a2.61 2.61 0 0 0-2.532 1.979.512.512 0 0 0 .5.636h4.17a.43.43 0 0 0 .425-.508 2.618 2.618 0 0 0-2.562-2.107Z"/><path fill="url(#paint23_radial_4002_3101)" d="M11.897 15.852a1.668 1.668 0 0 0-1.607 2.107h3.222c.038-.144.06-.288.06-.44a1.68 1.68 0 0 0-1.675-1.667Z"/><path fill="#000" d="M12.853 17.52a.951.951 0 0 0-.956-.956.951.951 0 0 0-.955.956c0 .159.038.31.106.44h1.69a.947.947 0 0 0 .115-.44Z"/><g filter="url(#filter11_f_4002_3101)"><path fill="url(#paint24_linear_4002_3101)" d="M13.42 17.324c0-.54-.438-.899-.556-1.007l-.539.521.332.675.764-.19Z"/></g><g filter="url(#filter12_f_4002_3101)" transform="rotate(-27.914 11.394 16.564)"><ellipse cx="11.394" cy="16.564" fill="#C7A7A3" fill-opacity=".9" rx=".728" ry=".368"/><ellipse cx="11.394" cy="16.564" fill="url(#paint25_radial_4002_3101)" rx=".728" ry=".368"/></g><g filter="url(#filter13_f_4002_3101)"><path stroke="url(#paint26_linear_4002_3101)" stroke-linecap="round" stroke-width=".25" d="M19.087 12.664c.804-.141 2.372-.1 3.457.743"/></g><g filter="url(#filter14_f_4002_3101)"><path stroke="url(#paint27_linear_4002_3101)" stroke-linecap="round" stroke-width=".25" d="M9.331 13.633c.612-.54 1.947-1.11 3.603-.846"/></g><path fill="url(#paint28_radial_4002_3101)" d="M4.78 10.64c.193 2.807 1.396 3.891 1.76 4.181 0-.514-.073-1.815.476-2.636.802-1.196 1.711-1.285 2.602-1.285h12.96c2.464 0 3.08 1.796 3.08 2.694l-.093 1.146c.217 0 .867-.237 1.115-.728.65-1.285 1.069-3.963 1.162-5.527.092-1.564.03-2.764-1.193-4.452-.978-1.35-2.794-2.02-4.42-2.02H10.678c-3.711 0-4.678 1.406-5.42 2.8-.594 1.114-.674 2.2-.674 2.843 0 .76.013 2.128.195 2.985Z"/><path fill="url(#paint29_radial_4002_3101)" d="M4.78 10.64c.193 2.807 1.396 3.891 1.76 4.181 0-.514-.073-1.815.476-2.636.802-1.196 1.711-1.285 2.602-1.285h12.96c2.464 0 3.08 1.796 3.08 2.694l-.093 1.146c.217 0 .867-.237 1.115-.728.65-1.285 1.069-3.963 1.162-5.527.092-1.564.03-2.764-1.193-4.452-.978-1.35-2.794-2.02-4.42-2.02H10.678c-3.711 0-4.678 1.406-5.42 2.8-.594 1.114-.674 2.2-.674 2.843 0 .76.013 2.128.195 2.985Z"/><path fill="url(#paint30_radial_4002_3101)" d="M4.78 10.64c.193 2.807 1.396 3.891 1.76 4.181 0-.514-.073-1.815.476-2.636.802-1.196 1.711-1.285 2.602-1.285h12.96c2.464 0 3.08 1.796 3.08 2.694l-.093 1.146c.217 0 .867-.237 1.115-.728.65-1.285 1.069-3.963 1.162-5.527.092-1.564.03-2.764-1.193-4.452-.978-1.35-2.794-2.02-4.42-2.02H10.678c-3.711 0-4.678 1.406-5.42 2.8-.594 1.114-.674 2.2-.674 2.843 0 .76.013 2.128.195 2.985Z"/><g filter="url(#filter15_i_4002_3101)"><path fill="url(#paint31_radial_4002_3101)" d="M20.645 2.013 20.7 4.44c1.223-.031 3.562.083 5.578 1.227.849.482 1.289.993 1.573 1.414-.072-.97-.366-1.895-1.202-3.048-.978-1.35-2.794-2.02-4.42-2.02h-1.584Z"/><path fill="url(#paint32_radial_4002_3101)" d="M20.645 2.013 20.7 4.44c1.223-.031 3.562.083 5.578 1.227.849.482 1.289.993 1.573 1.414-.072-.97-.366-1.895-1.202-3.048-.978-1.35-2.794-2.02-4.42-2.02h-1.584Z"/></g><g filter="url(#filter16_ii_4002_3101)"><path fill="url(#paint33_linear_4002_3101)" d="M27.218 12.48c.005-1.482-1.086-2.606-1.931-3.105-1.34-.79-3.267-1.004-4.103-.998h-1.487l-4.954.805.255 1.718h7.58c2.464 0 3.101 1.793 3.043 2.694l-.056 1.146c.217 0 .867-.236 1.115-.728.203-.4.383-.936.538-1.531Z"/></g><path fill="url(#paint34_radial_4002_3101)" d="M27.218 12.48c.005-1.482-1.086-2.606-1.931-3.105-1.34-.79-3.267-1.004-4.103-.998h-1.487l-4.954.805.255 1.718h7.58c2.464 0 3.101 1.793 3.043 2.694l-.056 1.146c.217 0 .867-.236 1.115-.728.203-.4.383-.936.538-1.531Z"/><path fill="url(#paint35_radial_4002_3101)" d="M27.218 12.48c.005-1.482-1.086-2.606-1.931-3.105-1.34-.79-3.267-1.004-4.103-.998h-1.487l-4.954.805.255 1.718h7.58c2.464 0 3.101 1.793 3.043 2.694l-.056 1.146c.217 0 .867-.236 1.115-.728.203-.4.383-.936.538-1.531Z"/><path fill="url(#paint36_radial_4002_3101)" d="M27.218 12.48c.005-1.482-1.086-2.606-1.931-3.105-1.34-.79-3.267-1.004-4.103-.998h-1.487l-4.954.805.255 1.718h7.58c2.464 0 3.101 1.793 3.043 2.694l-.056 1.146c.217 0 .867-.236 1.115-.728.203-.4.383-.936.538-1.531Z"/><g filter="url(#filter17_i_4002_3101)"><path fill="url(#paint37_radial_4002_3101)" d="M21.173 2.013c.357 1.961.193 4.54-1.019 6.425-.922 1.434-2.181 2.462-3.473 2.462H9.618c-.89 0-1.8.09-2.602 1.285-.497.743-.484 1.88-.477 2.47l.001.166c-.364-.29-1.567-1.374-1.76-4.18-.183-.857-.196-2.226-.196-2.985 0-.642.08-1.729.674-2.844.742-1.393 1.709-2.8 5.42-2.8h10.495Z"/></g><path fill="url(#paint38_radial_4002_3101)" d="M21.173 2.013c.357 1.961.193 4.54-1.019 6.425-.922 1.434-2.181 2.462-3.473 2.462H9.618c-.89 0-1.8.09-2.602 1.285-.497.743-.484 1.88-.477 2.47l.001.166c-.364-.29-1.567-1.374-1.76-4.18-.183-.857-.196-2.226-.196-2.985 0-.642.08-1.729.674-2.844.742-1.393 1.709-2.8 5.42-2.8h10.495Z"/><path fill="url(#paint39_radial_4002_3101)" d="M21.173 2.013c.357 1.961.193 4.54-1.019 6.425-.922 1.434-2.181 2.462-3.473 2.462H9.618c-.89 0-1.8.09-2.602 1.285-.497.743-.484 1.88-.477 2.47l.001.166c-.364-.29-1.567-1.374-1.76-4.18-.183-.857-.196-2.226-.196-2.985 0-.642.08-1.729.674-2.844.742-1.393 1.709-2.8 5.42-2.8h10.495Z"/><path fill="url(#paint40_radial_4002_3101)" d="M21.173 2.013c.357 1.961.193 4.54-1.019 6.425-.922 1.434-2.181 2.462-3.473 2.462H9.618c-.89 0-1.8.09-2.602 1.285-.497.743-.484 1.88-.477 2.47l.001.166c-.364-.29-1.567-1.374-1.76-4.18-.183-.857-.196-2.226-.196-2.985 0-.642.08-1.729.674-2.844.742-1.393 1.709-2.8 5.42-2.8h10.495Z"/><path fill="url(#paint41_radial_4002_3101)" d="M21.173 2.013c.357 1.961.193 4.54-1.019 6.425-.922 1.434-2.181 2.462-3.473 2.462H9.618c-.89 0-1.8.09-2.602 1.285-.497.743-.484 1.88-.477 2.47l.001.166c-.364-.29-1.567-1.374-1.76-4.18-.183-.857-.196-2.226-.196-2.985 0-.642.08-1.729.674-2.844.742-1.393 1.709-2.8 5.42-2.8h10.495Z"/><path fill="url(#paint42_radial_4002_3101)" d="M21.173 2.013c.357 1.961.193 4.54-1.019 6.425-.922 1.434-2.181 2.462-3.473 2.462H9.618c-.89 0-1.8.09-2.602 1.285-.497.743-.484 1.88-.477 2.47l.001.166c-.364-.29-1.567-1.374-1.76-4.18-.183-.857-.196-2.226-.196-2.985 0-.642.08-1.729.674-2.844.742-1.393 1.709-2.8 5.42-2.8h10.495Z"/><g filter="url(#filter18_i_4002_3101)"><path fill="url(#paint43_radial_4002_3101)" d="M4.769 10.592c.457-.912 1.614-2.206 5.677-2.626.406-.042 1.004-.06 1.673-.08 1.665-.05 3.775-.113 4.482-.593.933-.445 1.972-3.246 1.539-5.28h-5.97L5.182 4.96c-.524 1.062-.597 2.081-.597 2.695 0 .745.012 2.077.185 2.936Z"/><path fill="url(#paint44_radial_4002_3101)" d="M4.769 10.592c.457-.912 1.614-2.206 5.677-2.626.406-.042 1.004-.06 1.673-.08 1.665-.05 3.775-.113 4.482-.593.933-.445 1.972-3.246 1.539-5.28h-5.97L5.182 4.96c-.524 1.062-.597 2.081-.597 2.695 0 .745.012 2.077.185 2.936Z"/><path fill="url(#paint45_linear_4002_3101)" d="M4.769 10.592c.457-.912 1.614-2.206 5.677-2.626.406-.042 1.004-.06 1.673-.08 1.665-.05 3.775-.113 4.482-.593.933-.445 1.972-3.246 1.539-5.28h-5.97L5.182 4.96c-.524 1.062-.597 2.081-.597 2.695 0 .745.012 2.077.185 2.936Z"/><path fill="url(#paint46_radial_4002_3101)" d="M4.769 10.592c.457-.912 1.614-2.206 5.677-2.626.406-.042 1.004-.06 1.673-.08 1.665-.05 3.775-.113 4.482-.593.933-.445 1.972-3.246 1.539-5.28h-5.97L5.182 4.96c-.524 1.062-.597 2.081-.597 2.695 0 .745.012 2.077.185 2.936Z"/><path fill="url(#paint47_radial_4002_3101)" d="M4.769 10.592c.457-.912 1.614-2.206 5.677-2.626.406-.042 1.004-.06 1.673-.08 1.665-.05 3.775-.113 4.482-.593.933-.445 1.972-3.246 1.539-5.28h-5.97L5.182 4.96c-.524 1.062-.597 2.081-.597 2.695 0 .745.012 2.077.185 2.936Z"/></g><g filter="url(#filter19_ii_4002_3101)"><path fill="url(#paint48_radial_4002_3101)" d="M4.584 7.749c.558-.67 1.564-1.613 2.897-1.974 1.88-.509 4.836-.733 6.07-.82.448.025 1.556-.442 1.556-1.61 0-.434-.017-.89-.054-1.332h-4.375c-3.711 0-4.678 1.406-5.42 2.8-.594 1.114-.674 2.2-.674 2.843v.093Z"/></g><path fill="url(#paint49_radial_4002_3101)" d="M4.584 7.749c.558-.67 1.564-1.613 2.897-1.974 1.88-.509 4.836-.733 6.07-.82.448.025 1.556-.442 1.556-1.61 0-.434-.017-.89-.054-1.332h-4.375c-3.711 0-4.678 1.406-5.42 2.8-.594 1.114-.674 2.2-.674 2.843v.093Z"/><path fill="url(#paint50_radial_4002_3101)" d="M4.584 7.749c.558-.67 1.564-1.613 2.897-1.974 1.88-.509 4.836-.733 6.07-.82.448.025 1.556-.442 1.556-1.61 0-.434-.017-.89-.054-1.332h-4.375c-3.711 0-4.678 1.406-5.42 2.8-.594 1.114-.674 2.2-.674 2.843v.093Z"/><defs><radialGradient id="paint0_radial_4002_3101" cx="0" cy="0" r="1" gradientTransform="matrix(3.28022 0 0 5.74041 3.988 18.018)" gradientUnits="userSpaceOnUse"><stop offset=".351" stop-color="#664249"/><stop offset="1" stop-color="#613641"/></radialGradient><radialGradient id="paint3_radial_4002_3101" cx="0" cy="0" r="1" gradientTransform="matrix(1.5453 -1.1252 1.28427 1.76375 25.586 17.523)" gradientUnits="userSpaceOnUse"><stop offset=".543" stop-color="#7C524C"/><stop offset="1" stop-color="#7C524C" stop-opacity="0"/></radialGradient><radialGradient id="paint4_radial_4002_3101" cx="0" cy="0" r="1" gradientTransform="matrix(1.53511 -2.8235 1.6526 .8985 24.814 19.553)" gradientUnits="userSpaceOnUse"><stop offset=".755" stop-color="#73443E" stop-opacity="0"/><stop offset=".916" stop-color="#73443E"/></radialGradient><radialGradient id="paint5_radial_4002_3101" cx="0" cy="0" r="1" gradientTransform="rotate(44.708 -9.462 39.274) scale(.68195 .87913)" gradientUnits="userSpaceOnUse"><stop stop-color="#6C443E"/><stop offset="1" stop-color="#6C443E" stop-opacity="0"/></radialGradient><radialGradient id="paint7_radial_4002_3101" cx="0" cy="0" r="1" gradientTransform="matrix(0 -2.44322 3.00703 0 20.369 15.641)" gradientUnits="userSpaceOnUse"><stop stop-color="#855354"/><stop offset="1" stop-color="#855354" stop-opacity="0"/></radialGradient><radialGradient id="paint8_radial_4002_3101" cx="0" cy="0" r="1" gradientTransform="matrix(0 -2.56851 3.19417 0 11.849 15.892)" gradientUnits="userSpaceOnUse"><stop stop-color="#6F414D"/><stop offset="1" stop-color="#6F414D" stop-opacity="0"/></radialGradient><radialGradient id="paint11_radial_4002_3101" cx="0" cy="0" r="1" gradientTransform="matrix(0 13.3651 -21.0728 0 15.489 17.01)" gradientUnits="userSpaceOnUse"><stop offset=".556" stop-color="#895463" stop-opacity="0"/><stop offset="1" stop-color="#7A3F66"/></radialGradient><radialGradient id="paint12_radial_4002_3101" cx="0" cy="0" r="1" gradientTransform="matrix(0 13.1561 -32.5988 0 16.098 17.236)" gradientUnits="userSpaceOnUse"><stop offset=".92" stop-color="#916092" stop-opacity="0"/><stop offset="1" stop-color="#916092"/></radialGradient><radialGradient id="paint16_radial_4002_3101" cx="0" cy="0" r="1" gradientTransform="matrix(0 .36805 -1.18245 0 16.595 21.021)" gradientUnits="userSpaceOnUse"><stop stop-color="#976F6A"/><stop offset="1" stop-color="#976F6A" stop-opacity="0"/></radialGradient><radialGradient id="paint18_radial_4002_3101" cx="0" cy="0" r="1" gradientTransform="rotate(-80.201 18.66 -5.14) scale(1.14433 3.38542)" gradientUnits="userSpaceOnUse"><stop stop-color="#301A2D"/><stop offset="1" stop-color="#301A2D" stop-opacity="0"/></radialGradient><radialGradient id="paint19_radial_4002_3101" cx="0" cy="0" r="1" gradientTransform="matrix(.19478 -1.12763 3.3362 .57626 10.928 14.123)" gradientUnits="userSpaceOnUse"><stop stop-color="#301A2D"/><stop offset="1" stop-color="#301A2D" stop-opacity="0"/></radialGradient><radialGradient id="paint20_radial_4002_3101" cx="0" cy="0" r="1" gradientTransform="matrix(0 1.51618 -2.41165 0 20.056 16.744)" gradientUnits="userSpaceOnUse"><stop offset=".802" stop-color="#7D574A"/><stop offset="1" stop-color="#694B43"/><stop offset="1" stop-color="#804D49"/><stop offset="1" stop-color="#664944"/></radialGradient><radialGradient id="paint21_radial_4002_3101" cx="0" cy="0" r="1" gradientTransform="matrix(-.4334 -.5585 .76892 -.5967 19.63 16.9)" gradientUnits="userSpaceOnUse"><stop offset=".766" stop-color="#FFE6E2" stop-opacity="0"/><stop offset=".966" stop-color="#FFE6E2"/></radialGradient><radialGradient id="paint23_radial_4002_3101" cx="0" cy="0" r="1" gradientTransform="matrix(0 1.51626 -2.41178 0 11.9 16.743)" gradientUnits="userSpaceOnUse"><stop offset=".802" stop-color="#7D574A"/><stop offset="1" stop-color="#694B43"/><stop offset="1" stop-color="#804D49"/><stop offset="1" stop-color="#664944"/></radialGradient><radialGradient id="paint25_radial_4002_3101" cx="0" cy="0" r="1" gradientTransform="rotate(-90.897 14.126 2.982) scale(.92345 1.11002)" gradientUnits="userSpaceOnUse"><stop offset=".766" stop-color="#FFE6E2" stop-opacity="0"/><stop offset=".966" stop-color="#FFE6E2"/></radialGradient><radialGradient id="paint28_radial_4002_3101" cx="0" cy="0" r="1" gradientTransform="matrix(-.84218 3.75478 -8.78476 -1.97039 26.108 5.04)" gradientUnits="userSpaceOnUse"><stop stop-color="#F8F6FB"/><stop offset=".789" stop-color="#EBE6F2"/></radialGradient><radialGradient id="paint29_radial_4002_3101" cx="0" cy="0" r="1" gradientTransform="matrix(2.09375 .53125 -1.15317 4.54483 20.574 6.673)" gradientUnits="userSpaceOnUse"><stop offset=".152" stop-color="#CFCAD4"/><stop offset="1" stop-color="#ECE8F1" stop-opacity="0"/></radialGradient><radialGradient id="paint30_radial_4002_3101" cx="0" cy="0" r="1" gradientTransform="matrix(1.5 -2.625 6.33197 3.61827 22.512 10.517)" gradientUnits="userSpaceOnUse"><stop stop-color="#D3CFD9"/><stop offset="1" stop-color="#D3CFD9" stop-opacity="0"/></radialGradient><radialGradient id="paint31_radial_4002_3101" cx="0" cy="0" r="1" gradientTransform="matrix(.17188 2.91016 -14.53547 .85847 21.48 2.013)" gradientUnits="userSpaceOnUse"><stop stop-color="#DBDBDC"/><stop offset="1" stop-color="#FAFAFA"/></radialGradient><radialGradient id="paint32_radial_4002_3101" cx="0" cy="0" r="1" gradientTransform="matrix(1.45313 0 0 5.1925 21.027 3.33)" gradientUnits="userSpaceOnUse"><stop offset=".253" stop-color="#E2DCE8"/><stop offset="1" stop-color="#E2DCE8" stop-opacity="0"/></radialGradient><radialGradient id="paint34_radial_4002_3101" cx="0" cy="0" r="1" gradientTransform="matrix(2.46875 1.71875 -3.03125 4.35398 17.918 9.048)" gradientUnits="userSpaceOnUse"><stop offset=".391" stop-color="#BFB1C9"/><stop offset="1" stop-color="#E0DAE8" stop-opacity="0"/></radialGradient><radialGradient id="paint35_radial_4002_3101" cx="0" cy="0" r="1" gradientTransform="matrix(0 -2.93844 1.49148 0 24.88 14.497)" gradientUnits="userSpaceOnUse"><stop offset=".306" stop-color="#B384B3"/><stop offset="1" stop-color="#B384B3" stop-opacity="0"/></radialGradient><radialGradient id="paint36_radial_4002_3101" cx="0" cy="0" r="1" gradientTransform="matrix(3.71875 0 0 .30337 18.98 8.673)" gradientUnits="userSpaceOnUse"><stop stop-color="#D0CCD3"/><stop offset="1" stop-color="#D0CCD3" stop-opacity="0"/></radialGradient><radialGradient id="paint37_radial_4002_3101" cx="0" cy="0" r="1" gradientTransform="matrix(-4.28125 -.09372 .19553 -8.93238 21.793 5.58)" gradientUnits="userSpaceOnUse"><stop stop-color="#F5F4F6"/><stop offset="1" stop-color="#CFC8D7"/></radialGradient><radialGradient id="paint38_radial_4002_3101" cx="0" cy="0" r="1" gradientTransform="matrix(11.55068 3.52232 -4.80864 15.76891 9.357 5.733)" gradientUnits="userSpaceOnUse"><stop offset=".633" stop-color="#D1CAD9" stop-opacity="0"/><stop offset=".952" stop-color="#F1EDF4"/></radialGradient><radialGradient id="paint39_radial_4002_3101" cx="0" cy="0" r="1" gradientTransform="matrix(1.11064 -4.72815 1.61144 .37853 17.068 4.59)" gradientUnits="userSpaceOnUse"><stop offset=".348" stop-color="#C5C2C8"/><stop offset="1" stop-color="#C5C2C8" stop-opacity="0"/></radialGradient><radialGradient id="paint40_radial_4002_3101" cx="0" cy="0" r="1" gradientTransform="matrix(-.06346 1.33277 -6.75892 -.32185 9.42 7.383)" gradientUnits="userSpaceOnUse"><stop stop-color="#BDBBBE"/><stop offset="1" stop-color="#BDBBBE" stop-opacity="0"/></radialGradient><radialGradient id="paint41_radial_4002_3101" cx="0" cy="0" r="1" gradientTransform="matrix(-13.48639 2.82409 -3.69438 -17.64244 17.766 7.51)" gradientUnits="userSpaceOnUse"><stop offset=".681" stop-color="#BFB7C6" stop-opacity="0"/><stop offset="1" stop-color="#BFB7C6"/></radialGradient><radialGradient id="paint42_radial_4002_3101" cx="0" cy="0" r="1" gradientTransform="matrix(.88851 -3.93483 2.3195 .52376 7.168 14.491)" gradientUnits="userSpaceOnUse"><stop offset=".201" stop-color="#A87B9C"/><stop offset="1" stop-color="#A87B9C" stop-opacity="0"/></radialGradient><radialGradient id="paint43_radial_4002_3101" cx="0" cy="0" r="1" gradientTransform="rotate(137.988 8.667 4.682) scale(9.89862 9.45071)" gradientUnits="userSpaceOnUse"><stop stop-color="#DDDDDE"/><stop offset="1" stop-color="#C0BBC4"/></radialGradient><radialGradient id="paint44_radial_4002_3101" cx="0" cy="0" r="1" gradientTransform="matrix(-1.78125 0 0 -4.75 18.668 3.485)" gradientUnits="userSpaceOnUse"><stop stop-color="#EBEAEC"/><stop offset="1" stop-color="#EBEAEC" stop-opacity="0"/></radialGradient><radialGradient id="paint46_radial_4002_3101" cx="0" cy="0" r="1" gradientTransform="matrix(5.90625 .125 -.02777 1.31192 10.355 4.11)" gradientUnits="userSpaceOnUse"><stop stop-color="#B8B2BE"/><stop offset="1" stop-color="#B8B2BE" stop-opacity="0"/></radialGradient><radialGradient id="paint47_radial_4002_3101" cx="0" cy="0" r="1" gradientTransform="matrix(1.28125 -.09375 .17757 2.4268 14.355 2.454)" gradientUnits="userSpaceOnUse"><stop offset=".256" stop-color="#BBB9BD"/><stop offset="1" stop-color="#BBB9BD" stop-opacity="0"/></radialGradient><radialGradient id="paint48_radial_4002_3101" cx="0" cy="0" r="1" gradientTransform="matrix(-8.06249 1.65631 -3.03846 -14.79042 14.761 2.58)" gradientUnits="userSpaceOnUse"><stop stop-color="#D2D1D3"/><stop offset="1" stop-color="#B5B4B6"/></radialGradient><radialGradient id="paint49_radial_4002_3101" cx="0" cy="0" r="1" gradientTransform="matrix(8.03125 .96875 -1.11478 9.24187 7.48 3.235)" gradientUnits="userSpaceOnUse"><stop offset=".869" stop-color="#A5A0A9" stop-opacity="0"/><stop offset="1" stop-color="#A5A0A9"/></radialGradient><radialGradient id="paint50_radial_4002_3101" cx="0" cy="0" r="1" gradientTransform="matrix(2.71875 -2.3259 1.71042 1.99932 4.824 7.748)" gradientUnits="userSpaceOnUse"><stop stop-color="#BCB7C1"/><stop offset="1" stop-color="#BCB7C1" stop-opacity="0"/></radialGradient><filter id="filter0_i_4002_3101" width="6.441" height="6.241" x="3.988" y="14.898" color-interpolation-filters="sRGB" filterUnits="userSpaceOnUse"><feFlood flood-opacity="0" result="BackgroundImageFix"/><feBlend in="SourceGraphic" in2="BackgroundImageFix" result="shape"/><feColorMatrix in="SourceAlpha" result="hardAlpha" values="0 0 0 0 0 0 0 0 0 0 0 0 0 0 0 0 0 0 127 0"/><feOffset dx=".2"/><feGaussianBlur stdDeviation=".15"/><feComposite in2="hardAlpha" k2="-1" k3="1" operator="arithmetic"/><feColorMatrix values="0 0 0 0 0.517647 0 0 0 0 0.384314 0 0 0 0 0.34902 0 0 0 1 0"/><feBlend in2="shape" result="effect1_innerShadow_4002_3101"/></filter><filter id="filter1_f_4002_3101" width="4.72" height="4.72" x="4.749" y="15.658" color-interpolation-filters="sRGB" filterUnits="userSpaceOnUse"><feFlood flood-opacity="0" result="BackgroundImageFix"/><feBlend in="SourceGraphic" in2="BackgroundImageFix" result="shape"/><feGaussianBlur result="effect1_foregroundBlur_4002_3101" stdDeviation=".25"/></filter><filter id="filter2_i_4002_3101" width="6.491" height="6.491" x="21.771" y="14.648" color-interpolation-filters="sRGB" filterUnits="userSpaceOnUse"><feFlood flood-opacity="0" result="BackgroundImageFix"/><feBlend in="SourceGraphic" in2="BackgroundImageFix" result="shape"/><feColorMatrix in="SourceAlpha" result="hardAlpha" values="0 0 0 0 0 0 0 0 0 0 0 0 0 0 0 0 0 0 127 0"/><feOffset dx=".25" dy="-.25"/><feGaussianBlur stdDeviation=".25"/><feComposite in2="hardAlpha" k2="-1" k3="1" operator="arithmetic"/><feColorMatrix values="0 0 0 0 0.482353 0 0 0 0 0.278431 0 0 0 0 0.372549 0 0 0 1 0"/><feBlend in2="shape" result="effect1_innerShadow_4002_3101"/></filter><filter id="filter3_f_4002_3101" width="4.72" height="4.72" x="22.532" y="15.658" color-interpolation-filters="sRGB" filterUnits="userSpaceOnUse"><feFlood flood-opacity="0" result="BackgroundImageFix"/><feBlend in="SourceGraphic" in2="BackgroundImageFix" result="shape"/><feGaussianBlur result="effect1_foregroundBlur_4002_3101" stdDeviation=".25"/></filter><filter id="filter4_i_4002_3101" width="19.121" height="19.337" x="6.537" y="10.9" color-interpolation-filters="sRGB" filterUnits="userSpaceOnUse"><feFlood flood-opacity="0" result="BackgroundImageFix"/><feBlend in="SourceGraphic" in2="BackgroundImageFix" result="shape"/><feColorMatrix in="SourceAlpha" result="hardAlpha" values="0 0 0 0 0 0 0 0 0 0 0 0 0 0 0 0 0 0 127 0"/><feOffset dy=".25"/><feGaussianBlur stdDeviation=".25"/><feComposite in2="hardAlpha" k2="-1" k3="1" operator="arithmetic"/><feColorMatrix values="0 0 0 0 0.360784 0 0 0 0 0.2 0 0 0 0 0.243137 0 0 0 1 0"/><feBlend in2="shape" result="effect1_innerShadow_4002_3101"/></filter><filter id="filter5_f_4002_3101" width="4.79" height="6.512" x="13.142" y="16.512" color-interpolation-filters="sRGB" filterUnits="userSpaceOnUse"><feFlood flood-opacity="0" result="BackgroundImageFix"/><feBlend in="SourceGraphic" in2="BackgroundImageFix" result="shape"/><feGaussianBlur result="effect1_foregroundBlur_4002_3101" stdDeviation=".375"/></filter><filter id="filter6_f_4002_3101" width="4.008" height="5.512" x="13.979" y="16.707" color-interpolation-filters="sRGB" filterUnits="userSpaceOnUse"><feFlood flood-opacity="0" result="BackgroundImageFix"/><feBlend in="SourceGraphic" in2="BackgroundImageFix" result="shape"/><feGaussianBlur result="effect1_foregroundBlur_4002_3101" stdDeviation=".125"/></filter><filter id="filter7_i_4002_3101" width="5.352" height="3.153" x="18.193" y="11.545" color-interpolation-filters="sRGB" filterUnits="userSpaceOnUse"><feFlood flood-opacity="0" result="BackgroundImageFix"/><feBlend in="SourceGraphic" in2="BackgroundImageFix" result="shape"/><feColorMatrix in="SourceAlpha" result="hardAlpha" values="0 0 0 0 0 0 0 0 0 0 0 0 0 0 0 0 0 0 127 0"/><feOffset dx=".25" dy="-.4"/><feGaussianBlur stdDeviation=".3"/><feComposite in2="hardAlpha" k2="-1" k3="1" operator="arithmetic"/><feColorMatrix values="0 0 0 0 0.156863 0 0 0 0 0.0784314 0 0 0 0 0.109804 0 0 0 1 0"/><feBlend in2="shape" result="effect1_innerShadow_4002_3101"/></filter><filter id="filter8_i_4002_3101" width="5.353" height="3.153" x="8.571" y="11.545" color-interpolation-filters="sRGB" filterUnits="userSpaceOnUse"><feFlood flood-opacity="0" result="BackgroundImageFix"/><feBlend in="SourceGraphic" in2="BackgroundImageFix" result="shape"/><feColorMatrix in="SourceAlpha" result="hardAlpha" values="0 0 0 0 0 0 0 0 0 0 0 0 0 0 0 0 0 0 127 0"/><feOffset dx=".25" dy="-.4"/><feGaussianBlur stdDeviation=".3"/><feComposite in2="hardAlpha" k2="-1" k3="1" operator="arithmetic"/><feColorMatrix values="0 0 0 0 0.156863 0 0 0 0 0.0784314 0 0 0 0 0.109804 0 0 0 1 0"/><feBlend in2="shape" result="effect1_innerShadow_4002_3101"/></filter><filter id="filter9_f_4002_3101" width="1.297" height="1.127" x="18.771" y="16.008" color-interpolation-filters="sRGB" filterUnits="userSpaceOnUse"><feFlood flood-opacity="0" result="BackgroundImageFix"/><feBlend in="SourceGraphic" in2="BackgroundImageFix" result="shape"/><feGaussianBlur result="effect1_foregroundBlur_4002_3101" stdDeviation=".05"/></filter><filter id="filter10_f_4002_3101" width="1.318" height="1.359" x="20.428" y="16.235" color-interpolation-filters="sRGB" filterUnits="userSpaceOnUse"><feFlood flood-opacity="0" result="BackgroundImageFix"/><feBlend in="SourceGraphic" in2="BackgroundImageFix" result="shape"/><feGaussianBlur result="effect1_foregroundBlur_4002_3101" stdDeviation=".1"/></filter><filter id="filter11_f_4002_3101" width="1.496" height="1.597" x="12.125" y="16.117" color-interpolation-filters="sRGB" filterUnits="userSpaceOnUse"><feFlood flood-opacity="0" result="BackgroundImageFix"/><feBlend in="SourceGraphic" in2="BackgroundImageFix" result="shape"/><feGaussianBlur result="effect1_foregroundBlur_4002_3101" stdDeviation=".1"/></filter><filter id="filter12_f_4002_3101" width="1.533" height="1.143" x="10.628" y="15.993" color-interpolation-filters="sRGB" filterUnits="userSpaceOnUse"><feFlood flood-opacity="0" result="BackgroundImageFix"/><feBlend in="SourceGraphic" in2="BackgroundImageFix" result="shape"/><feGaussianBlur result="effect1_foregroundBlur_4002_3101" stdDeviation=".05"/></filter><filter id="filter13_f_4002_3101" width="4.707" height="2.056" x="18.462" y="11.977" color-interpolation-filters="sRGB" filterUnits="userSpaceOnUse"><feFlood flood-opacity="0" result="BackgroundImageFix"/><feBlend in="SourceGraphic" in2="BackgroundImageFix" result="shape"/><feGaussianBlur result="effect1_foregroundBlur_4002_3101" stdDeviation=".25"/></filter><filter id="filter14_f_4002_3101" width="4.852" height="2.162" x="8.706" y="12.095" color-interpolation-filters="sRGB" filterUnits="userSpaceOnUse"><feFlood flood-opacity="0" result="BackgroundImageFix"/><feBlend in="SourceGraphic" in2="BackgroundImageFix" result="shape"/><feGaussianBlur result="effect1_foregroundBlur_4002_3101" stdDeviation=".25"/></filter><filter id="filter15_i_4002_3101" width="7.307" height="5.168" x="20.645" y="1.913" color-interpolation-filters="sRGB" filterUnits="userSpaceOnUse"><feFlood flood-opacity="0" result="BackgroundImageFix"/><feBlend in="SourceGraphic" in2="BackgroundImageFix" result="shape"/><feColorMatrix in="SourceAlpha" result="hardAlpha" values="0 0 0 0 0 0 0 0 0 0 0 0 0 0 0 0 0 0 127 0"/><feOffset dx=".1" dy="-.1"/><feGaussianBlur stdDeviation=".15"/><feComposite in2="hardAlpha" k2="-1" k3="1" operator="arithmetic"/><feColorMatrix values="0 0 0 0 0.843137 0 0 0 0 0.8 0 0 0 0 0.890196 0 0 0 1 0"/><feBlend in2="shape" result="effect1_innerShadow_4002_3101"/></filter><filter id="filter16_ii_4002_3101" width="12.925" height="6.714" x="14.693" y="8.126" color-interpolation-filters="sRGB" filterUnits="userSpaceOnUse"><feFlood flood-opacity="0" result="BackgroundImageFix"/><feBlend in="SourceGraphic" in2="BackgroundImageFix" result="shape"/><feColorMatrix in="SourceAlpha" result="hardAlpha" values="0 0 0 0 0 0 0 0 0 0 0 0 0 0 0 0 0 0 127 0"/><feOffset dx="-.05" dy=".1"/><feGaussianBlur stdDeviation=".125"/><feComposite in2="hardAlpha" k2="-1" k3="1" operator="arithmetic"/><feColorMatrix values="0 0 0 0 1 0 0 0 0 0.992157 0 0 0 0 1 0 0 0 1 0"/><feBlend in2="shape" result="effect1_innerShadow_4002_3101"/><feColorMatrix in="SourceAlpha" result="hardAlpha" values="0 0 0 0 0 0 0 0 0 0 0 0 0 0 0 0 0 0 127 0"/><feOffset dx=".4" dy="-.25"/><feGaussianBlur stdDeviation=".325"/><feComposite in2="hardAlpha" k2="-1" k3="1" operator="arithmetic"/><feColorMatrix values="0 0 0 0 0.670588 0 0 0 0 0.560784 0 0 0 0 0.756863 0 0 0 1 0"/><feBlend in2="effect1_innerShadow_4002_3101" result="effect2_innerShadow_4002_3101"/></filter><filter id="filter17_i_4002_3101" width="17.006" height="13.059" x="4.334" y="1.763" color-interpolation-filters="sRGB" filterUnits="userSpaceOnUse"><feFlood flood-opacity="0" result="BackgroundImageFix"/><feBlend in="SourceGraphic" in2="BackgroundImageFix" result="shape"/><feColorMatrix in="SourceAlpha" result="hardAlpha" values="0 0 0 0 0 0 0 0 0 0 0 0 0 0 0 0 0 0 127 0"/><feOffset dx="-.25" dy="-.25"/><feGaussianBlur stdDeviation=".3"/><feComposite in2="hardAlpha" k2="-1" k3="1" operator="arithmetic"/><feColorMatrix values="0 0 0 0 0.603922 0 0 0 0 0.45098 0 0 0 0 0.721569 0 0 0 1 0"/><feBlend in2="shape" result="effect1_innerShadow_4002_3101"/></filter><filter id="filter18_i_4002_3101" width="13.757" height="8.679" x="4.484" y="1.913" color-interpolation-filters="sRGB" filterUnits="userSpaceOnUse"><feFlood flood-opacity="0" result="BackgroundImageFix"/><feBlend in="SourceGraphic" in2="BackgroundImageFix" result="shape"/><feColorMatrix in="SourceAlpha" result="hardAlpha" values="0 0 0 0 0 0 0 0 0 0 0 0 0 0 0 0 0 0 127 0"/><feOffset dx="-.1" dy="-.1"/><feGaussianBlur stdDeviation=".15"/><feComposite in2="hardAlpha" k2="-1" k3="1" operator="arithmetic"/><feColorMatrix values="0 0 0 0 0.611765 0 0 0 0 0.588235 0 0 0 0 0.635294 0 0 0 1 0"/><feBlend in2="shape" result="effect1_innerShadow_4002_3101"/></filter><filter id="filter19_ii_4002_3101" width="10.523" height="5.986" x="4.584" y="1.813" color-interpolation-filters="sRGB" filterUnits="userSpaceOnUse"><feFlood flood-opacity="0" result="BackgroundImageFix"/><feBlend in="SourceGraphic" in2="BackgroundImageFix" result="shape"/><feColorMatrix in="SourceAlpha" result="hardAlpha" values="0 0 0 0 0 0 0 0 0 0 0 0 0 0 0 0 0 0 127 0"/><feOffset dy="-.2"/><feGaussianBlur stdDeviation=".2"/><feComposite in2="hardAlpha" k2="-1" k3="1" operator="arithmetic"/><feColorMatrix values="0 0 0 0 0.686275 0 0 0 0 0.619608 0 0 0 0 0.752941 0 0 0 1 0"/><feBlend in2="shape" result="effect1_innerShadow_4002_3101"/><feColorMatrix in="SourceAlpha" result="hardAlpha" values="0 0 0 0 0 0 0 0 0 0 0 0 0 0 0 0 0 0 127 0"/><feOffset dy=".05"/><feGaussianBlur stdDeviation=".15"/><feComposite in2="hardAlpha" k2="-1" k3="1" operator="arithmetic"/><feColorMatrix values="0 0 0 0 0.705882 0 0 0 0 0.701961 0 0 0 0 0.705882 0 0 0 1 0"/><feBlend in2="effect1_innerShadow_4002_3101" result="effect2_innerShadow_4002_3101"/></filter><linearGradient id="paint1_linear_4002_3101" x1="7.109" x2="5.911" y1="18.539" y2="18.539" gradientUnits="userSpaceOnUse"><stop stop-color="#553038"/><stop offset="1" stop-color="#59323C"/></linearGradient><linearGradient id="paint2_linear_4002_3101" x1="26.922" x2="25.392" y1="15.978" y2="20.719" gradientUnits="userSpaceOnUse"><stop stop-color="#96776B"/><stop offset="1" stop-color="#855A5B"/></linearGradient><linearGradient id="paint6_linear_4002_3101" x1="23.527" x2="9.253" y1="18.746" y2="20.873" gradientUnits="userSpaceOnUse"><stop stop-color="#9B6C5E"/><stop offset="1" stop-color="#744D4A"/></linearGradient><linearGradient id="paint9_linear_4002_3101" x1="6.099" x2="9.565" y1="24.722" y2="24.578" gradientUnits="userSpaceOnUse"><stop offset=".242" stop-color="#84615A"/><stop offset="1" stop-color="#84615A" stop-opacity="0"/></linearGradient><linearGradient id="paint10_linear_4002_3101" x1="25.011" x2="23.071" y1="23.392" y2="23.178" gradientUnits="userSpaceOnUse"><stop stop-color="#966D5F"/><stop offset="1" stop-color="#966D5F" stop-opacity="0"/></linearGradient><linearGradient id="paint13_linear_4002_3101" x1="14.368" x2="16.122" y1="19.978" y2="19.978" gradientUnits="userSpaceOnUse"><stop stop-color="#754E46"/><stop offset="1" stop-color="#754E46" stop-opacity="0"/></linearGradient><linearGradient id="paint14_linear_4002_3101" x1="17.738" x2="15.82" y1="20.581" y2="20.554" gradientUnits="userSpaceOnUse"><stop stop-color="#9D766B"/><stop offset="1" stop-color="#9D766B" stop-opacity="0"/></linearGradient><linearGradient id="paint15_linear_4002_3101" x1="16.347" x2="16.347" y1="21.969" y2="20.898" gradientUnits="userSpaceOnUse"><stop stop-color="#7C4559"/><stop offset="1" stop-color="#7C4559" stop-opacity="0"/></linearGradient><linearGradient id="paint17_linear_4002_3101" x1="14.045" x2="14.858" y1="24.988" y2="23.703" gradientUnits="userSpaceOnUse"><stop stop-color="#865E63"/><stop offset=".663" stop-color="#865E63" stop-opacity="0"/></linearGradient><linearGradient id="paint22_linear_4002_3101" x1="21.51" x2="20.924" y1="16.844" y2="17.206" gradientUnits="userSpaceOnUse"><stop stop-color="#B4948D"/><stop offset="1" stop-color="#B4948D" stop-opacity="0"/></linearGradient><linearGradient id="paint24_linear_4002_3101" x1="13.291" x2="12.705" y1="16.844" y2="17.205" gradientUnits="userSpaceOnUse"><stop stop-color="#B4948D"/><stop offset="1" stop-color="#B4948D" stop-opacity="0"/></linearGradient><linearGradient id="paint26_linear_4002_3101" x1="21.54" x2="20.754" y1="12.845" y2="11.24" gradientUnits="userSpaceOnUse"><stop stop-color="#483E3E"/><stop offset="1" stop-color="#483E3E" stop-opacity="0"/></linearGradient><linearGradient id="paint27_linear_4002_3101" x1="11.624" x2="9.401" y1="12.606" y2="11.674" gradientUnits="userSpaceOnUse"><stop stop-color="#483E3E"/><stop offset="1" stop-color="#483E3E" stop-opacity="0"/></linearGradient><linearGradient id="paint33_linear_4002_3101" x1="26.387" x2="15.636" y1="13.579" y2="13.579" gradientUnits="userSpaceOnUse"><stop stop-color="#EEE8F4"/><stop offset="1" stop-color="#DDD6E4"/></linearGradient><linearGradient id="paint45_linear_4002_3101" x1="4.584" x2="8.761" y1="9.548" y2="8.579" gradientUnits="userSpaceOnUse"><stop stop-color="#B6B0BB"/><stop offset="1" stop-color="#B6B0BB" stop-opacity="0"/></linearGradient></defs></svg>