<svg xmlns="http://www.w3.org/2000/svg" width="32" height="32" fill="none" viewBox="0 0 32 32"><g fill-rule="evenodd" clip-rule="evenodd" filter="url(#filter0_i_3953_18668)"><path fill="url(#paint0_linear_3953_18668)" d="M29.396 20.61A6.044 6.044 0 0 0 30 17.95c0-.871-.18-1.689-.5-2.434h.01a5.935 5.935 0 0 0-.525-.956l-.004-.006A6.04 6.04 0 0 1 28 11.252v-.019a6.152 6.152 0 0 0-6.15-6.151c-.34 0-.661-.15-.85-.434a6.163 6.163 0 0 0-5-2.566 6.163 6.163 0 0 0-5 2.566c-.189.264-.51.434-.85.434-.052 0-.105 0-.158.002A6.152 6.152 0 0 0 4 11.233v.019c0 1.17-.34 2.32-.981 3.302l-.005.007A6.15 6.15 0 0 0 2 17.95c0 .962.226 1.849.604 2.66a.96.96 0 0 1 0 .85A6.085 6.085 0 0 0 2 24.081c0 3.32 2.68 6 6 6h16c3.32 0 6-2.68 6-6a6.08 6.08 0 0 0-.604-2.623.96.96 0 0 1 0-.849ZM6.538 15.628h-.023L8.75 20.02c.23 5.225 2.27 0 7.25 0s7.152 5.815 7.382.59l2.118-5.96c-.1-2.321-1.782-2.484-2.118-2.484H17.38a7.201 7.201 0 0 1-5.946-3.12.492.492 0 0 0-.86.095l-.154.362a4.295 4.295 0 0 1-2.217 2.301c-.03.01-.063.024-.096.038a1.309 1.309 0 0 1-.096.038c-.44.229-1.472.913-1.51 2.683l.02.57.018.495Z"/><path fill="url(#paint1_radial_3953_18668)" d="M29.396 20.61A6.044 6.044 0 0 0 30 17.95c0-.871-.18-1.689-.5-2.434h.01a5.935 5.935 0 0 0-.525-.956l-.004-.006A6.04 6.04 0 0 1 28 11.252v-.019a6.152 6.152 0 0 0-6.15-6.151c-.34 0-.661-.15-.85-.434a6.163 6.163 0 0 0-5-2.566 6.163 6.163 0 0 0-5 2.566c-.189.264-.51.434-.85.434-.052 0-.105 0-.158.002A6.152 6.152 0 0 0 4 11.233v.019c0 1.17-.34 2.32-.981 3.302l-.005.007A6.15 6.15 0 0 0 2 17.95c0 .962.226 1.849.604 2.66a.96.96 0 0 1 0 .85A6.085 6.085 0 0 0 2 24.081c0 3.32 2.68 6 6 6h16c3.32 0 6-2.68 6-6a6.08 6.08 0 0 0-.604-2.623.96.96 0 0 1 0-.849ZM6.538 15.628h-.023L8.75 20.02c.23 5.225 2.27 0 7.25 0s7.152 5.815 7.382.59l2.118-5.96c-.1-2.321-1.782-2.484-2.118-2.484H17.38a7.201 7.201 0 0 1-5.946-3.12.492.492 0 0 0-.86.095l-.154.362a4.295 4.295 0 0 1-2.217 2.301c-.03.01-.063.024-.096.038a1.309 1.309 0 0 1-.096.038c-.44.229-1.472.913-1.51 2.683l.02.57.018.495Z"/><path fill="url(#paint2_radial_3953_18668)" d="M29.396 20.61A6.044 6.044 0 0 0 30 17.95c0-.871-.18-1.689-.5-2.434h.01a5.935 5.935 0 0 0-.525-.956l-.004-.006A6.04 6.04 0 0 1 28 11.252v-.019a6.152 6.152 0 0 0-6.15-6.151c-.34 0-.661-.15-.85-.434a6.163 6.163 0 0 0-5-2.566 6.163 6.163 0 0 0-5 2.566c-.189.264-.51.434-.85.434-.052 0-.105 0-.158.002A6.152 6.152 0 0 0 4 11.233v.019c0 1.17-.34 2.32-.981 3.302l-.005.007A6.15 6.15 0 0 0 2 17.95c0 .962.226 1.849.604 2.66a.96.96 0 0 1 0 .85A6.085 6.085 0 0 0 2 24.081c0 3.32 2.68 6 6 6h16c3.32 0 6-2.68 6-6a6.08 6.08 0 0 0-.604-2.623.96.96 0 0 1 0-.849ZM6.538 15.628h-.023L8.75 20.02c.23 5.225 2.27 0 7.25 0s7.152 5.815 7.382.59l2.118-5.96c-.1-2.321-1.782-2.484-2.118-2.484H17.38a7.201 7.201 0 0 1-5.946-3.12.492.492 0 0 0-.86.095l-.154.362a4.295 4.295 0 0 1-2.217 2.301c-.03.01-.063.024-.096.038a1.309 1.309 0 0 1-.096.038c-.44.229-1.472.913-1.51 2.683l.02.57.018.495Z"/><path fill="url(#paint3_radial_3953_18668)" d="M29.396 20.61A6.044 6.044 0 0 0 30 17.95c0-.871-.18-1.689-.5-2.434h.01a5.935 5.935 0 0 0-.525-.956l-.004-.006A6.04 6.04 0 0 1 28 11.252v-.019a6.152 6.152 0 0 0-6.15-6.151c-.34 0-.661-.15-.85-.434a6.163 6.163 0 0 0-5-2.566 6.163 6.163 0 0 0-5 2.566c-.189.264-.51.434-.85.434-.052 0-.105 0-.158.002A6.152 6.152 0 0 0 4 11.233v.019c0 1.17-.34 2.32-.981 3.302l-.005.007A6.15 6.15 0 0 0 2 17.95c0 .962.226 1.849.604 2.66a.96.96 0 0 1 0 .85A6.085 6.085 0 0 0 2 24.081c0 3.32 2.68 6 6 6h16c3.32 0 6-2.68 6-6a6.08 6.08 0 0 0-.604-2.623.96.96 0 0 1 0-.849ZM6.538 15.628h-.023L8.75 20.02c.23 5.225 2.27 0 7.25 0s7.152 5.815 7.382.59l2.118-5.96c-.1-2.321-1.782-2.484-2.118-2.484H17.38a7.201 7.201 0 0 1-5.946-3.12.492.492 0 0 0-.86.095l-.154.362a4.295 4.295 0 0 1-2.217 2.301c-.03.01-.063.024-.096.038a1.309 1.309 0 0 1-.096.038c-.44.229-1.472.913-1.51 2.683l.02.57.018.495Z"/><path fill="url(#paint4_radial_3953_18668)" d="M29.396 20.61A6.044 6.044 0 0 0 30 17.95c0-.871-.18-1.689-.5-2.434h.01a5.935 5.935 0 0 0-.525-.956l-.004-.006A6.04 6.04 0 0 1 28 11.252v-.019a6.152 6.152 0 0 0-6.15-6.151c-.34 0-.661-.15-.85-.434a6.163 6.163 0 0 0-5-2.566 6.163 6.163 0 0 0-5 2.566c-.189.264-.51.434-.85.434-.052 0-.105 0-.158.002A6.152 6.152 0 0 0 4 11.233v.019c0 1.17-.34 2.32-.981 3.302l-.005.007A6.15 6.15 0 0 0 2 17.95c0 .962.226 1.849.604 2.66a.96.96 0 0 1 0 .85A6.085 6.085 0 0 0 2 24.081c0 3.32 2.68 6 6 6h16c3.32 0 6-2.68 6-6a6.08 6.08 0 0 0-.604-2.623.96.96 0 0 1 0-.849ZM6.538 15.628h-.023L8.75 20.02c.23 5.225 2.27 0 7.25 0s7.152 5.815 7.382.59l2.118-5.96c-.1-2.321-1.782-2.484-2.118-2.484H17.38a7.201 7.201 0 0 1-5.946-3.12.492.492 0 0 0-.86.095l-.154.362a4.295 4.295 0 0 1-2.217 2.301c-.03.01-.063.024-.096.038a1.309 1.309 0 0 1-.096.038c-.44.229-1.472.913-1.51 2.683l.02.57.018.495Z"/><path fill="url(#paint5_radial_3953_18668)" d="M29.396 20.61A6.044 6.044 0 0 0 30 17.95c0-.871-.18-1.689-.5-2.434h.01a5.935 5.935 0 0 0-.525-.956l-.004-.006A6.04 6.04 0 0 1 28 11.252v-.019a6.152 6.152 0 0 0-6.15-6.151c-.34 0-.661-.15-.85-.434a6.163 6.163 0 0 0-5-2.566 6.163 6.163 0 0 0-5 2.566c-.189.264-.51.434-.85.434-.052 0-.105 0-.158.002A6.152 6.152 0 0 0 4 11.233v.019c0 1.17-.34 2.32-.981 3.302l-.005.007A6.15 6.15 0 0 0 2 17.95c0 .962.226 1.849.604 2.66a.96.96 0 0 1 0 .85A6.085 6.085 0 0 0 2 24.081c0 3.32 2.68 6 6 6h16c3.32 0 6-2.68 6-6a6.08 6.08 0 0 0-.604-2.623.96.96 0 0 1 0-.849ZM6.538 15.628h-.023L8.75 20.02c.23 5.225 2.27 0 7.25 0s7.152 5.815 7.382.59l2.118-5.96c-.1-2.321-1.782-2.484-2.118-2.484H17.38a7.201 7.201 0 0 1-5.946-3.12.492.492 0 0 0-.86.095l-.154.362a4.295 4.295 0 0 1-2.217 2.301c-.03.01-.063.024-.096.038a1.309 1.309 0 0 1-.096.038c-.44.229-1.472.913-1.51 2.683l.02.57.018.495Z"/><path fill="url(#paint6_radial_3953_18668)" d="M29.396 20.61A6.044 6.044 0 0 0 30 17.95c0-.871-.18-1.689-.5-2.434h.01a5.935 5.935 0 0 0-.525-.956l-.004-.006A6.04 6.04 0 0 1 28 11.252v-.019a6.152 6.152 0 0 0-6.15-6.151c-.34 0-.661-.15-.85-.434a6.163 6.163 0 0 0-5-2.566 6.163 6.163 0 0 0-5 2.566c-.189.264-.51.434-.85.434-.052 0-.105 0-.158.002A6.152 6.152 0 0 0 4 11.233v.019c0 1.17-.34 2.32-.981 3.302l-.005.007A6.15 6.15 0 0 0 2 17.95c0 .962.226 1.849.604 2.66a.96.96 0 0 1 0 .85A6.085 6.085 0 0 0 2 24.081c0 3.32 2.68 6 6 6h16c3.32 0 6-2.68 6-6a6.08 6.08 0 0 0-.604-2.623.96.96 0 0 1 0-.849ZM6.538 15.628h-.023L8.75 20.02c.23 5.225 2.27 0 7.25 0s7.152 5.815 7.382.59l2.118-5.96c-.1-2.321-1.782-2.484-2.118-2.484H17.38a7.201 7.201 0 0 1-5.946-3.12.492.492 0 0 0-.86.095l-.154.362a4.295 4.295 0 0 1-2.217 2.301c-.03.01-.063.024-.096.038a1.309 1.309 0 0 1-.096.038c-.44.229-1.472.913-1.51 2.683l.02.57.018.495Z"/><path fill="url(#paint7_radial_3953_18668)" d="M29.396 20.61A6.044 6.044 0 0 0 30 17.95c0-.871-.18-1.689-.5-2.434h.01a5.935 5.935 0 0 0-.525-.956l-.004-.006A6.04 6.04 0 0 1 28 11.252v-.019a6.152 6.152 0 0 0-6.15-6.151c-.34 0-.661-.15-.85-.434a6.163 6.163 0 0 0-5-2.566 6.163 6.163 0 0 0-5 2.566c-.189.264-.51.434-.85.434-.052 0-.105 0-.158.002A6.152 6.152 0 0 0 4 11.233v.019c0 1.17-.34 2.32-.981 3.302l-.005.007A6.15 6.15 0 0 0 2 17.95c0 .962.226 1.849.604 2.66a.96.96 0 0 1 0 .85A6.085 6.085 0 0 0 2 24.081c0 3.32 2.68 6 6 6h16c3.32 0 6-2.68 6-6a6.08 6.08 0 0 0-.604-2.623.96.96 0 0 1 0-.849ZM6.538 15.628h-.023L8.75 20.02c.23 5.225 2.27 0 7.25 0s7.152 5.815 7.382.59l2.118-5.96c-.1-2.321-1.782-2.484-2.118-2.484H17.38a7.201 7.201 0 0 1-5.946-3.12.492.492 0 0 0-.86.095l-.154.362a4.295 4.295 0 0 1-2.217 2.301c-.03.01-.063.024-.096.038a1.309 1.309 0 0 1-.096.038c-.44.229-1.472.913-1.51 2.683l.02.57.018.495Z"/><path fill="url(#paint8_radial_3953_18668)" d="M29.396 20.61A6.044 6.044 0 0 0 30 17.95c0-.871-.18-1.689-.5-2.434h.01a5.935 5.935 0 0 0-.525-.956l-.004-.006A6.04 6.04 0 0 1 28 11.252v-.019a6.152 6.152 0 0 0-6.15-6.151c-.34 0-.661-.15-.85-.434a6.163 6.163 0 0 0-5-2.566 6.163 6.163 0 0 0-5 2.566c-.189.264-.51.434-.85.434-.052 0-.105 0-.158.002A6.152 6.152 0 0 0 4 11.233v.019c0 1.17-.34 2.32-.981 3.302l-.005.007A6.15 6.15 0 0 0 2 17.95c0 .962.226 1.849.604 2.66a.96.96 0 0 1 0 .85A6.085 6.085 0 0 0 2 24.081c0 3.32 2.68 6 6 6h16c3.32 0 6-2.68 6-6a6.08 6.08 0 0 0-.604-2.623.96.96 0 0 1 0-.849ZM6.538 15.628h-.023L8.75 20.02c.23 5.225 2.27 0 7.25 0s7.152 5.815 7.382.59l2.118-5.96c-.1-2.321-1.782-2.484-2.118-2.484H17.38a7.201 7.201 0 0 1-5.946-3.12.492.492 0 0 0-.86.095l-.154.362a4.295 4.295 0 0 1-2.217 2.301c-.03.01-.063.024-.096.038a1.309 1.309 0 0 1-.096.038c-.44.229-1.472.913-1.51 2.683l.02.57.018.495Z"/><path fill="url(#paint9_radial_3953_18668)" d="M29.396 20.61A6.044 6.044 0 0 0 30 17.95c0-.871-.18-1.689-.5-2.434h.01a5.935 5.935 0 0 0-.525-.956l-.004-.006A6.04 6.04 0 0 1 28 11.252v-.019a6.152 6.152 0 0 0-6.15-6.151c-.34 0-.661-.15-.85-.434a6.163 6.163 0 0 0-5-2.566 6.163 6.163 0 0 0-5 2.566c-.189.264-.51.434-.85.434-.052 0-.105 0-.158.002A6.152 6.152 0 0 0 4 11.233v.019c0 1.17-.34 2.32-.981 3.302l-.005.007A6.15 6.15 0 0 0 2 17.95c0 .962.226 1.849.604 2.66a.96.96 0 0 1 0 .85A6.085 6.085 0 0 0 2 24.081c0 3.32 2.68 6 6 6h16c3.32 0 6-2.68 6-6a6.08 6.08 0 0 0-.604-2.623.96.96 0 0 1 0-.849ZM6.538 15.628h-.023L8.75 20.02c.23 5.225 2.27 0 7.25 0s7.152 5.815 7.382.59l2.118-5.96c-.1-2.321-1.782-2.484-2.118-2.484H17.38a7.201 7.201 0 0 1-5.946-3.12.492.492 0 0 0-.86.095l-.154.362a4.295 4.295 0 0 1-2.217 2.301c-.03.01-.063.024-.096.038a1.309 1.309 0 0 1-.096.038c-.44.229-1.472.913-1.51 2.683l.02.57.018.495Z"/><path fill="url(#paint10_radial_3953_18668)" d="M29.396 20.61A6.044 6.044 0 0 0 30 17.95c0-.871-.18-1.689-.5-2.434h.01a5.935 5.935 0 0 0-.525-.956l-.004-.006A6.04 6.04 0 0 1 28 11.252v-.019a6.152 6.152 0 0 0-6.15-6.151c-.34 0-.661-.15-.85-.434a6.163 6.163 0 0 0-5-2.566 6.163 6.163 0 0 0-5 2.566c-.189.264-.51.434-.85.434-.052 0-.105 0-.158.002A6.152 6.152 0 0 0 4 11.233v.019c0 1.17-.34 2.32-.981 3.302l-.005.007A6.15 6.15 0 0 0 2 17.95c0 .962.226 1.849.604 2.66a.96.96 0 0 1 0 .85A6.085 6.085 0 0 0 2 24.081c0 3.32 2.68 6 6 6h16c3.32 0 6-2.68 6-6a6.08 6.08 0 0 0-.604-2.623.96.96 0 0 1 0-.849ZM6.538 15.628h-.023L8.75 20.02c.23 5.225 2.27 0 7.25 0s7.152 5.815 7.382.59l2.118-5.96c-.1-2.321-1.782-2.484-2.118-2.484H17.38a7.201 7.201 0 0 1-5.946-3.12.492.492 0 0 0-.86.095l-.154.362a4.295 4.295 0 0 1-2.217 2.301c-.03.01-.063.024-.096.038a1.309 1.309 0 0 1-.096.038c-.44.229-1.472.913-1.51 2.683l.02.57.018.495Z"/><path fill="url(#paint11_radial_3953_18668)" d="M29.396 20.61A6.044 6.044 0 0 0 30 17.95c0-.871-.18-1.689-.5-2.434h.01a5.935 5.935 0 0 0-.525-.956l-.004-.006A6.04 6.04 0 0 1 28 11.252v-.019a6.152 6.152 0 0 0-6.15-6.151c-.34 0-.661-.15-.85-.434a6.163 6.163 0 0 0-5-2.566 6.163 6.163 0 0 0-5 2.566c-.189.264-.51.434-.85.434-.052 0-.105 0-.158.002A6.152 6.152 0 0 0 4 11.233v.019c0 1.17-.34 2.32-.981 3.302l-.005.007A6.15 6.15 0 0 0 2 17.95c0 .962.226 1.849.604 2.66a.96.96 0 0 1 0 .85A6.085 6.085 0 0 0 2 24.081c0 3.32 2.68 6 6 6h16c3.32 0 6-2.68 6-6a6.08 6.08 0 0 0-.604-2.623.96.96 0 0 1 0-.849ZM6.538 15.628h-.023L8.75 20.02c.23 5.225 2.27 0 7.25 0s7.152 5.815 7.382.59l2.118-5.96c-.1-2.321-1.782-2.484-2.118-2.484H17.38a7.201 7.201 0 0 1-5.946-3.12.492.492 0 0 0-.86.095l-.154.362a4.295 4.295 0 0 1-2.217 2.301c-.03.01-.063.024-.096.038a1.309 1.309 0 0 1-.096.038c-.44.229-1.472.913-1.51 2.683l.02.57.018.495Z"/></g><g filter="url(#filter1_i_3953_18668)"><path fill="url(#paint12_linear_3953_18668)" d="M7.264 20.982a3 3 0 1 0 0-6 3 3 0 0 0 0 6Z"/></g><path fill="url(#paint13_radial_3953_18668)" d="M7.264 20.982a3 3 0 1 0 0-6 3 3 0 0 0 0 6Z"/><g filter="url(#filter2_i_3953_18668)"><path fill="url(#paint14_radial_3953_18668)" d="M25 20.982a3 3 0 1 0 0-6 3 3 0 0 0 0 6Z"/><path fill="url(#paint15_radial_3953_18668)" d="M25 20.982a3 3 0 1 0 0-6 3 3 0 0 0 0 6Z"/></g><g filter="url(#filter3_f_3953_18668)"><path fill="#B38574" d="M25 19.985a2.003 2.003 0 1 0 0-4.006 2.003 2.003 0 0 0 0 4.006Z"/><path fill="url(#paint16_radial_3953_18668)" d="M25 19.985a2.003 2.003 0 1 0 0-4.006 2.003 2.003 0 0 0 0 4.006Z"/></g><g filter="url(#filter4_f_3953_18668)"><path fill="#7E555A" d="M7.3 19.985a2.003 2.003 0 1 0 0-4.006 2.003 2.003 0 0 0 0 4.006Z"/><path fill="url(#paint17_radial_3953_18668)" d="M7.3 19.985a2.003 2.003 0 1 0 0-4.006 2.003 2.003 0 0 0 0 4.006Z"/></g><g filter="url(#filter5_i_3953_18668)"><path fill="url(#paint18_radial_3953_18668)" d="M6.515 15.628h.023l-.019-.495-.019-.57c.038-1.77 1.07-2.454 1.51-2.683.03-.01.063-.023.096-.038a1.58 1.58 0 0 1 .096-.038 4.295 4.295 0 0 0 2.217-2.301l.153-.362a.492.492 0 0 1 .86-.095 7.201 7.201 0 0 0 5.947 3.12h6.003c.336 0 2.018.163 2.118 2.484l-.221 5.729c-.23 5.225-4.31 8.733-9.291 8.733-4.98 0-9.061-3.508-9.291-8.733l-.182-4.751Z"/><path fill="url(#paint19_radial_3953_18668)" d="M6.515 15.628h.023l-.019-.495-.019-.57c.038-1.77 1.07-2.454 1.51-2.683.03-.01.063-.023.096-.038a1.58 1.58 0 0 1 .096-.038 4.295 4.295 0 0 0 2.217-2.301l.153-.362a.492.492 0 0 1 .86-.095 7.201 7.201 0 0 0 5.947 3.12h6.003c.336 0 2.018.163 2.118 2.484l-.221 5.729c-.23 5.225-4.31 8.733-9.291 8.733-4.98 0-9.061-3.508-9.291-8.733l-.182-4.751Z"/><path fill="url(#paint20_radial_3953_18668)" d="M6.515 15.628h.023l-.019-.495-.019-.57c.038-1.77 1.07-2.454 1.51-2.683.03-.01.063-.023.096-.038a1.58 1.58 0 0 1 .096-.038 4.295 4.295 0 0 0 2.217-2.301l.153-.362a.492.492 0 0 1 .86-.095 7.201 7.201 0 0 0 5.947 3.12h6.003c.336 0 2.018.163 2.118 2.484l-.221 5.729c-.23 5.225-4.31 8.733-9.291 8.733-4.98 0-9.061-3.508-9.291-8.733l-.182-4.751Z"/><path fill="url(#paint21_radial_3953_18668)" d="M6.515 15.628h.023l-.019-.495-.019-.57c.038-1.77 1.07-2.454 1.51-2.683.03-.01.063-.023.096-.038a1.58 1.58 0 0 1 .096-.038 4.295 4.295 0 0 0 2.217-2.301l.153-.362a.492.492 0 0 1 .86-.095 7.201 7.201 0 0 0 5.947 3.12h6.003c.336 0 2.018.163 2.118 2.484l-.221 5.729c-.23 5.225-4.31 8.733-9.291 8.733-4.98 0-9.061-3.508-9.291-8.733l-.182-4.751Z"/><path fill="url(#paint22_radial_3953_18668)" d="M6.515 15.628h.023l-.019-.495-.019-.57c.038-1.77 1.07-2.454 1.51-2.683.03-.01.063-.023.096-.038a1.58 1.58 0 0 1 .096-.038 4.295 4.295 0 0 0 2.217-2.301l.153-.362a.492.492 0 0 1 .86-.095 7.201 7.201 0 0 0 5.947 3.12h6.003c.336 0 2.018.163 2.118 2.484l-.221 5.729c-.23 5.225-4.31 8.733-9.291 8.733-4.98 0-9.061-3.508-9.291-8.733l-.182-4.751Z"/><path fill="url(#paint23_radial_3953_18668)" d="M6.515 15.628h.023l-.019-.495-.019-.57c.038-1.77 1.07-2.454 1.51-2.683.03-.01.063-.023.096-.038a1.58 1.58 0 0 1 .096-.038 4.295 4.295 0 0 0 2.217-2.301l.153-.362a.492.492 0 0 1 .86-.095 7.201 7.201 0 0 0 5.947 3.12h6.003c.336 0 2.018.163 2.118 2.484l-.221 5.729c-.23 5.225-4.31 8.733-9.291 8.733-4.98 0-9.061-3.508-9.291-8.733l-.182-4.751Z"/><path fill="url(#paint24_radial_3953_18668)" d="M6.515 15.628h.023l-.019-.495-.019-.57c.038-1.77 1.07-2.454 1.51-2.683.03-.01.063-.023.096-.038a1.58 1.58 0 0 1 .096-.038 4.295 4.295 0 0 0 2.217-2.301l.153-.362a.492.492 0 0 1 .86-.095 7.201 7.201 0 0 0 5.947 3.12h6.003c.336 0 2.018.163 2.118 2.484l-.221 5.729c-.23 5.225-4.31 8.733-9.291 8.733-4.98 0-9.061-3.508-9.291-8.733l-.182-4.751Z"/><path fill="url(#paint25_radial_3953_18668)" d="M6.515 15.628h.023l-.019-.495-.019-.57c.038-1.77 1.07-2.454 1.51-2.683.03-.01.063-.023.096-.038a1.58 1.58 0 0 1 .096-.038 4.295 4.295 0 0 0 2.217-2.301l.153-.362a.492.492 0 0 1 .86-.095 7.201 7.201 0 0 0 5.947 3.12h6.003c.336 0 2.018.163 2.118 2.484l-.221 5.729c-.23 5.225-4.31 8.733-9.291 8.733-4.98 0-9.061-3.508-9.291-8.733l-.182-4.751Z"/><path fill="url(#paint26_radial_3953_18668)" d="M6.515 15.628h.023l-.019-.495-.019-.57c.038-1.77 1.07-2.454 1.51-2.683.03-.01.063-.023.096-.038a1.58 1.58 0 0 1 .096-.038 4.295 4.295 0 0 0 2.217-2.301l.153-.362a.492.492 0 0 1 .86-.095 7.201 7.201 0 0 0 5.947 3.12h6.003c.336 0 2.018.163 2.118 2.484l-.221 5.729c-.23 5.225-4.31 8.733-9.291 8.733-4.98 0-9.061-3.508-9.291-8.733l-.182-4.751Z"/></g><path fill="url(#paint27_radial_3953_18668)" d="M6.515 15.628h.023l-.019-.495-.019-.57c.038-1.77 1.07-2.454 1.51-2.683.03-.01.063-.023.096-.038a1.58 1.58 0 0 1 .096-.038 4.295 4.295 0 0 0 2.217-2.301l.153-.362a.492.492 0 0 1 .86-.095 7.201 7.201 0 0 0 5.947 3.12h6.003c.336 0 2.018.163 2.118 2.484l-.221 5.729c-.23 5.225-4.31 8.733-9.291 8.733-4.98 0-9.061-3.508-9.291-8.733l-.182-4.751Z"/><g filter="url(#filter6_f_3953_18668)"><path fill="#88555F" d="m15.268 17.567-1.274 3.17a1.005 1.005 0 0 0 .97 1.303h1.466c.688 0 1.173-.662.971-1.304l-.99-3.17c-.213-.701-.92-.701-1.143 0Z"/></g><g filter="url(#filter7_f_3953_18668)"><path fill="#B38578" d="m15.287 17.309-.99 3.17a1.005 1.005 0 0 0 .97 1.303h1.466c.688 0 1.173-.662.97-1.304l-.99-3.17c-.213-.701-1.203-.701-1.426 0Z"/><path fill="url(#paint28_radial_3953_18668)" d="m15.287 17.309-.99 3.17a1.005 1.005 0 0 0 .97 1.303h1.466c.688 0 1.173-.662.97-1.304l-.99-3.17c-.213-.701-1.203-.701-1.426 0Z"/><path fill="url(#paint29_linear_3953_18668)" d="m15.287 17.309-.99 3.17a1.005 1.005 0 0 0 .97 1.303h1.466c.688 0 1.173-.662.97-1.304l-.99-3.17c-.213-.701-1.203-.701-1.426 0Z"/><path fill="url(#paint30_linear_3953_18668)" d="m15.287 17.309-.99 3.17a1.005 1.005 0 0 0 .97 1.303h1.466c.688 0 1.173-.662.97-1.304l-.99-3.17c-.213-.701-1.203-.701-1.426 0Z"/><path fill="url(#paint31_radial_3953_18668)" d="m15.287 17.309-.99 3.17a1.005 1.005 0 0 0 .97 1.303h1.466c.688 0 1.173-.662.97-1.304l-.99-3.17c-.213-.701-1.203-.701-1.426 0Z"/></g><path fill="url(#paint32_linear_3953_18668)" d="m15.287 17.309-.99 3.17a1.005 1.005 0 0 0 .97 1.303h1.466c.688 0 1.173-.662.97-1.304l-.99-3.17c-.213-.701-1.203-.701-1.426 0Z"/><path fill="url(#paint33_radial_3953_18668)" d="m15.287 17.309-.99 3.17a1.005 1.005 0 0 0 .97 1.303h1.466c.688 0 1.173-.662.97-1.304l-.99-3.17c-.213-.701-1.203-.701-1.426 0Z"/><path fill="#88024E" stroke="url(#paint34_linear_3953_18668)" stroke-width=".1" d="M13.373 22.724a.338.338 0 0 0-.41.072.323.323 0 0 0-.034.408A3.652 3.652 0 0 0 16 24.882a3.65 3.65 0 0 0 3.071-1.678.327.327 0 0 0-.035-.412.339.339 0 0 0-.409-.069A5.566 5.566 0 0 1 16 23.36a5.594 5.594 0 0 1-2.627-.636Z"/><g filter="url(#filter8_i_3953_18668)"><path fill="#2F2C32" d="M18.13 16.921c.494-.87 1.246-1.558 2.866-1.558.709 0 1.392.197 2 .688.5.405.434.923.046 1.117l-1.037.592c-1.215-.393-2.56-.446-3.876-.839Z"/></g><g filter="url(#filter9_i_3953_18668)"><path fill="#27232A" d="M13.871 16.921c-.495-.87-1.247-1.558-2.866-1.558-.71 0-1.393.197-2 .688-.502.405-.435.923-.046 1.117l1.036.592c1.216-.393 2.56-.446 3.876-.839Z"/></g><g filter="url(#filter10_i_3953_18668)"><path fill="#432A28" d="m9.665 14.667-.008.005a.5.5 0 0 1-.514-.858h.001l.002-.001.006-.004.017-.01.06-.033a6.11 6.11 0 0 1 .98-.411c.635-.203 1.521-.373 2.478-.204a.5.5 0 1 1-.174.985c-.743-.131-1.457-.002-1.998.171a5.125 5.125 0 0 0-.85.36Z"/></g><g filter="url(#filter11_i_3953_18668)"><path fill="#432A28" fill-rule="evenodd" d="m22.957 13.814-.257.43.257-.43a.5.5 0 0 1-.513.859h-.001l-.008-.006a3.642 3.642 0 0 0-.21-.109 5.111 5.111 0 0 0-.64-.25c-.54-.174-1.255-.303-1.998-.172a.5.5 0 0 1-.174-.985c.957-.169 1.843.001 2.477.203a6.11 6.11 0 0 1 .98.412l.061.033.017.01.006.004h.002l.001.001Z" clip-rule="evenodd"/></g><path fill="#fff" d="M20.458 15.473c1.217 0 2.246.84 2.526 1.974a.511.511 0 0 1-.5.635h-4.159a.43.43 0 0 1-.424-.507 2.606 2.606 0 0 1 2.557-2.102Z"/><path fill="url(#paint35_radial_3953_18668)" d="M20.072 15.98a1.664 1.664 0 0 1 1.603 2.102h-3.214a1.706 1.706 0 0 1-.06-.439 1.67 1.67 0 0 1 1.671-1.664Z"/><path fill="#000" d="M19.119 17.643c0-.53.424-.953.953-.953.53 0 .953.424.953.953a.94.94 0 0 1-.106.439h-1.686a.862.862 0 0 1-.114-.439Z"/><g filter="url(#filter12_f_3953_18668)"><path fill="#C7A7A3" d="M19.95 16.331c.118.159-.13.352-.411.563-.282.21-.491.359-.61.2-.118-.159.014-.458.296-.669.282-.21.606-.252.725-.094Z"/><path fill="url(#paint36_radial_3953_18668)" d="M19.95 16.331c.118.159-.13.352-.411.563-.282.21-.491.359-.61.2-.118-.159.014-.458.296-.669.282-.21.606-.252.725-.094Z"/></g><g filter="url(#filter13_f_3953_18668)"><path fill="url(#paint37_linear_3953_18668)" d="M21.554 17.424a1.567 1.567 0 0 0-.431-.862l-.485.531.219.426.697-.095Z"/></g><path fill="#fff" d="M11.542 15.473c-1.217 0-2.246.84-2.526 1.974a.511.511 0 0 0 .5.635h4.159a.43.43 0 0 0 .424-.507 2.612 2.612 0 0 0-2.557-2.102Z"/><path fill="url(#paint38_radial_3953_18668)" d="M11.928 15.98a1.664 1.664 0 0 0-1.604 2.102h3.215c.038-.144.06-.287.06-.439a1.675 1.675 0 0 0-1.671-1.664Z"/><path fill="#000" d="M12.88 17.643a.949.949 0 0 0-.952-.953.949.949 0 0 0-.953.953c0 .16.038.31.106.439h1.686a.944.944 0 0 0 .114-.439Z"/><g filter="url(#filter14_f_3953_18668)"><path fill="url(#paint39_linear_3953_18668)" d="M13.448 17.448c0-.538-.437-.896-.555-1.005l-.538.52.33.674.763-.19Z"/></g><g filter="url(#filter15_f_3953_18668)" transform="rotate(-27.914 11.426 16.69)"><ellipse cx="11.426" cy="16.69" fill="#C7A7A3" fill-opacity=".9" rx=".726" ry=".368"/><ellipse cx="11.426" cy="16.69" fill="url(#paint40_radial_3953_18668)" rx=".726" ry=".368"/></g><g filter="url(#filter16_f_3953_18668)"><path stroke="#5B4545" stroke-linecap="round" stroke-width=".4" d="M19.616 13.559c.601-.147 2.097-.074 3.096.642"/></g><g filter="url(#filter17_f_3953_18668)"><path stroke="#5B4545" stroke-linecap="round" stroke-width=".4" d="M12.548 13.559c-.601-.147-2.097-.074-3.096.642"/></g><g filter="url(#filter18_if_3953_18668)"><path fill="#49302E" d="M6.549 6.817c1.055-1.117 3.05-1.119 3.973-.952l.738 2.406c-.472-.073-.551-.003-.905.341-.256 2.038-2.566 3.275-5.381 4.097-.277-2.781.202-4.438 1.575-5.892Z"/><path fill="url(#paint41_radial_3953_18668)" d="M6.549 6.817c1.055-1.117 3.05-1.119 3.973-.952l.738 2.406c-.472-.073-.551-.003-.905.341-.256 2.038-2.566 3.275-5.381 4.097-.277-2.781.202-4.438 1.575-5.892Z"/><path fill="url(#paint42_radial_3953_18668)" d="M6.549 6.817c1.055-1.117 3.05-1.119 3.973-.952l.738 2.406c-.472-.073-.551-.003-.905.341-.256 2.038-2.566 3.275-5.381 4.097-.277-2.781.202-4.438 1.575-5.892Z"/></g><g filter="url(#filter19_if_3953_18668)"><path fill="#553836" d="M14.875 3.457c-2.112-.466-4.008 1.64-4.227 2.422 1.961 6.61 6.923 6.247 11.82 5.703 2.933-.326 3.25 1.01 3.5 1.656 0-7.332-6.234-8.708-11.04-9.77l-.053-.01Z"/><path fill="url(#paint43_radial_3953_18668)" d="M14.875 3.457c-2.112-.466-4.008 1.64-4.227 2.422 1.961 6.61 6.923 6.247 11.82 5.703 2.933-.326 3.25 1.01 3.5 1.656 0-7.332-6.234-8.708-11.04-9.77l-.053-.01Z"/><path fill="url(#paint44_radial_3953_18668)" d="M14.875 3.457c-2.112-.466-4.008 1.64-4.227 2.422 1.961 6.61 6.923 6.247 11.82 5.703 2.933-.326 3.25 1.01 3.5 1.656 0-7.332-6.234-8.708-11.04-9.77l-.053-.01Z"/></g><g filter="url(#filter20_f_3953_18668)"><path stroke="url(#paint45_linear_3953_18668)" stroke-linecap="round" stroke-width=".2" d="M10.61 5.785c.043.453.437 2.156 1.015 3.188"/></g><g filter="url(#filter21_f_3953_18668)"><path fill="#664A4A" d="m20.91 10.11-3.081.566a1.283 1.283 0 1 1-.233-2.545h4.364c2.581 0 3.435 2.601 3.54 3.49l-.318-.29a5 5 0 0 0-4.273-1.222Z"/></g><defs><radialGradient id="paint1_radial_3953_18668" cx="0" cy="0" r="1" gradientTransform="matrix(-1.125 8.5 -10.6182 -1.40534 15.438 22.645)" gradientUnits="userSpaceOnUse"><stop offset=".591" stop-color="#261326"/><stop offset="1" stop-color="#261326" stop-opacity="0"/></radialGradient><radialGradient id="paint2_radial_3953_18668" cx="0" cy="0" r="1" gradientTransform="matrix(-5.37514 3.62503 -4.763 -7.0625 10.188 23.145)" gradientUnits="userSpaceOnUse"><stop offset=".258" stop-color="#25131C"/><stop offset="1" stop-color="#25131C" stop-opacity="0"/></radialGradient><radialGradient id="paint3_radial_3953_18668" cx="0" cy="0" r="1" gradientTransform="rotate(127.405 -1.06 10.92) scale(4.01268 3.08118)" gradientUnits="userSpaceOnUse"><stop offset=".334" stop-color="#27141E"/><stop offset="1" stop-color="#27141E" stop-opacity="0"/></radialGradient><radialGradient id="paint4_radial_3953_18668" cx="0" cy="0" r="1" gradientTransform="matrix(-2.40628 3.93748 -2.7736 -1.69501 7.813 14.613)" gradientUnits="userSpaceOnUse"><stop offset=".321" stop-color="#230C14"/><stop offset="1" stop-color="#230C14" stop-opacity="0"/></radialGradient><radialGradient id="paint5_radial_3953_18668" cx="0" cy="0" r="1" gradientTransform="rotate(62.272 2.271 9.29) scale(5.50745 7.64519)" gradientUnits="userSpaceOnUse"><stop stop-color="#554543"/><stop offset="1" stop-color="#554543" stop-opacity="0"/></radialGradient><radialGradient id="paint6_radial_3953_18668" cx="0" cy="0" r="1" gradientTransform="rotate(134.998 12.022 8.982) scale(3.80059 5.31127)" gradientUnits="userSpaceOnUse"><stop stop-color="#6E5350"/><stop offset="1" stop-color="#6E5350" stop-opacity="0"/></radialGradient><radialGradient id="paint7_radial_3953_18668" cx="0" cy="0" r="1" gradientTransform="matrix(-3.43734 1 -2.08544 -7.16832 30 16.395)" gradientUnits="userSpaceOnUse"><stop stop-color="#604947"/><stop offset="1" stop-color="#604947" stop-opacity="0"/></radialGradient><radialGradient id="paint8_radial_3953_18668" cx="0" cy="0" r="1" gradientTransform="matrix(-5.24984 1.31253 -1.67197 -6.68752 28.875 22.77)" gradientUnits="userSpaceOnUse"><stop stop-color="#564544"/><stop offset="1" stop-color="#564544" stop-opacity="0"/></radialGradient><radialGradient id="paint9_radial_3953_18668" cx="0" cy="0" r="1" gradientTransform="matrix(-1.68625 -4.94118 3.90819 -1.33373 24.823 11.857)" gradientUnits="userSpaceOnUse"><stop stop-color="#5F4846"/><stop offset="1" stop-color="#5F4846" stop-opacity="0"/></radialGradient><radialGradient id="paint10_radial_3953_18668" cx="0" cy="0" r="1" gradientTransform="rotate(5.988 -153.806 51.65) scale(2.81931 4.5681)" gradientUnits="userSpaceOnUse"><stop stop-color="#56413D"/><stop offset="1" stop-color="#56413D" stop-opacity="0"/></radialGradient><radialGradient id="paint11_radial_3953_18668" cx="0" cy="0" r="1" gradientTransform="rotate(-102.748 18.804 -2.644) scale(7.0808 2.5556)" gradientUnits="userSpaceOnUse"><stop stop-color="#3E2125"/><stop offset="1" stop-color="#3E2125" stop-opacity="0"/></radialGradient><radialGradient id="paint13_radial_3953_18668" cx="0" cy="0" r="1" gradientTransform="rotate(-118.51 9.506 8.549) scale(2.55339 2.89333)" gradientUnits="userSpaceOnUse"><stop stop-color="#814E62"/><stop offset="1" stop-color="#814E62" stop-opacity="0"/></radialGradient><radialGradient id="paint14_radial_3953_18668" cx="0" cy="0" r="1" gradientTransform="matrix(4.64063 -2.10938 2.57545 5.66598 23.531 18.8)" gradientUnits="userSpaceOnUse"><stop offset=".64" stop-color="#B28279"/><stop offset="1" stop-color="#CCA58B"/></radialGradient><radialGradient id="paint15_radial_3953_18668" cx="0" cy="0" r="1" gradientTransform="matrix(2.25 0 0 .96875 25.219 14.8)" gradientUnits="userSpaceOnUse"><stop stop-color="#906D53"/><stop offset="1" stop-color="#906D53" stop-opacity="0"/></radialGradient><radialGradient id="paint16_radial_3953_18668" cx="0" cy="0" r="1" gradientTransform="matrix(2.81506 -.2094 .1637 2.2006 24.188 18.191)" gradientUnits="userSpaceOnUse"><stop offset=".719" stop-color="#A26D62" stop-opacity="0"/><stop offset="1" stop-color="#A26D62"/></radialGradient><radialGradient id="paint17_radial_3953_18668" cx="0" cy="0" r="1" gradientTransform="rotate(-180 3.71 8.991) scale(1.96875)" gradientUnits="userSpaceOnUse"><stop offset=".722" stop-color="#6C4640" stop-opacity="0"/><stop offset="1" stop-color="#6C4640"/></radialGradient><radialGradient id="paint18_radial_3953_18668" cx="0" cy="0" r="1" gradientTransform="matrix(-12.1254 5.59142 -7.48399 -16.22955 21.33 16.98)" gradientUnits="userSpaceOnUse"><stop stop-color="#C79980"/><stop offset="1" stop-color="#946568"/></radialGradient><radialGradient id="paint19_radial_3953_18668" cx="0" cy="0" r="1" gradientTransform="matrix(-4.06494 1.7887 -1.24562 -2.83076 19.674 18.572)" gradientUnits="userSpaceOnUse"><stop stop-color="#C4967A"/><stop offset="1" stop-color="#C4967A" stop-opacity="0"/></radialGradient><radialGradient id="paint20_radial_3953_18668" cx="0" cy="0" r="1" gradientTransform="rotate(-71.832 26.081 6.294) scale(7.70838 9.7805)" gradientUnits="userSpaceOnUse"><stop stop-color="#945A73"/><stop offset="1" stop-color="#945A73" stop-opacity="0"/></radialGradient><radialGradient id="paint21_radial_3953_18668" cx="0" cy="0" r="1" gradientTransform="matrix(-2.39518 13.7467 -17.18312 -2.99393 17.907 16.204)" gradientUnits="userSpaceOnUse"><stop offset=".637" stop-color="#97577D" stop-opacity="0"/><stop offset="1" stop-color="#97577D"/></radialGradient><radialGradient id="paint22_radial_3953_18668" cx="0" cy="0" r="1" gradientTransform="matrix(0 11.6875 -11.7501 0 15.512 17.707)" gradientUnits="userSpaceOnUse"><stop offset=".911" stop-color="#9F6394" stop-opacity="0"/><stop offset="1" stop-color="#9F6394"/></radialGradient><radialGradient id="paint23_radial_3953_18668" cx="0" cy="0" r="1" gradientTransform="rotate(168.897 8.705 11.045) scale(13.1206 22.5896)" gradientUnits="userSpaceOnUse"><stop offset=".795" stop-color="#9A7267" stop-opacity="0"/><stop offset="1" stop-color="#9A7267"/></radialGradient><radialGradient id="paint24_radial_3953_18668" cx="0" cy="0" r="1" gradientTransform="matrix(0 -2.14551 2.63313 0 20.29 16.2)" gradientUnits="userSpaceOnUse"><stop stop-color="#AE7B75"/><stop offset="1" stop-color="#AE7B75" stop-opacity="0"/></radialGradient><radialGradient id="paint25_radial_3953_18668" cx="0" cy="0" r="1" gradientTransform="matrix(0 -2.44707 2.8045 0 12.129 15.774)" gradientUnits="userSpaceOnUse"><stop stop-color="#8F5C65"/><stop offset="1" stop-color="#8F5C65" stop-opacity="0"/></radialGradient><radialGradient id="paint26_radial_3953_18668" cx="0" cy="0" r="1" gradientTransform="matrix(-1.62233 6.01598 -4.81378 -1.29814 18.579 11.882)" gradientUnits="userSpaceOnUse"><stop stop-color="#AB8179"/><stop offset="1" stop-color="#AB8179" stop-opacity="0"/></radialGradient><radialGradient id="paint27_radial_3953_18668" cx="0" cy="0" r="1" gradientTransform="matrix(-2.3963 0 0 -12.0172 25.5 18.973)" gradientUnits="userSpaceOnUse"><stop stop-color="#C0967A"/><stop offset="1" stop-color="#C0967A" stop-opacity="0"/></radialGradient><radialGradient id="paint28_radial_3953_18668" cx="0" cy="0" r="1" gradientTransform="matrix(-.84932 -3.81088 1.17448 -.26175 17.462 20.328)" gradientUnits="userSpaceOnUse"><stop offset=".017" stop-color="#CDA38B"/><stop offset="1" stop-color="#CDA38B" stop-opacity="0"/></radialGradient><radialGradient id="paint31_radial_3953_18668" cx="0" cy="0" r="1" gradientTransform="matrix(-1.45312 0 0 -.40625 17.016 20.723)" gradientUnits="userSpaceOnUse"><stop stop-color="#CA9F8C"/><stop offset="1" stop-color="#CA9F8C" stop-opacity="0"/></radialGradient><radialGradient id="paint33_radial_3953_18668" cx="0" cy="0" r="1" gradientTransform="matrix(-2.5565 1.75513 -2.1094 -3.07252 16.703 19.613)" gradientUnits="userSpaceOnUse"><stop offset=".778" stop-color="#815553" stop-opacity="0"/><stop offset="1" stop-color="#693B40"/><stop offset="1" stop-color="#815553"/></radialGradient><radialGradient id="paint35_radial_3953_18668" cx="0" cy="0" r="1" gradientTransform="matrix(0 1.51263 -2.406 0 20.068 16.869)" gradientUnits="userSpaceOnUse"><stop offset=".802" stop-color="#7D574A"/><stop offset="1" stop-color="#694B43"/><stop offset="1" stop-color="#804D49"/><stop offset="1" stop-color="#664944"/></radialGradient><radialGradient id="paint36_radial_3953_18668" cx="0" cy="0" r="1" gradientTransform="matrix(-.43239 -.5572 .76712 -.5953 19.643 17.026)" gradientUnits="userSpaceOnUse"><stop offset=".766" stop-color="#FFE6E2" stop-opacity="0"/><stop offset=".966" stop-color="#FFE6E2"/></radialGradient><radialGradient id="paint38_radial_3953_18668" cx="0" cy="0" r="1" gradientTransform="matrix(0 1.51264 -2.40602 0 11.932 16.869)" gradientUnits="userSpaceOnUse"><stop offset=".802" stop-color="#7D574A"/><stop offset="1" stop-color="#694B43"/><stop offset="1" stop-color="#804D49"/><stop offset="1" stop-color="#664944"/></radialGradient><radialGradient id="paint40_radial_3953_18668" cx="0" cy="0" r="1" gradientTransform="rotate(-90.897 14.203 3.028) scale(.92124 1.10737)" gradientUnits="userSpaceOnUse"><stop offset=".766" stop-color="#FFE6E2" stop-opacity="0"/><stop offset=".966" stop-color="#FFE6E2"/></radialGradient><radialGradient id="paint41_radial_3953_18668" cx="0" cy="0" r="1" gradientTransform="matrix(2.35294 -5.13725 2.62809 1.2037 5.451 12.915)" gradientUnits="userSpaceOnUse"><stop stop-color="#5C4643"/><stop offset="1" stop-color="#5C4643" stop-opacity="0"/></radialGradient><radialGradient id="paint42_radial_3953_18668" cx="0" cy="0" r="1" gradientTransform="rotate(-59.802 13.958 -1.964) scale(4.2609 2.28752)" gradientUnits="userSpaceOnUse"><stop stop-color="#4B2839"/><stop offset="1" stop-color="#4B2839" stop-opacity="0"/></radialGradient><radialGradient id="paint43_radial_3953_18668" cx="0" cy="0" r="1" gradientTransform="rotate(115.684 8.773 7.753) scale(9.0851 14.8536)" gradientUnits="userSpaceOnUse"><stop offset=".639" stop-color="#442534" stop-opacity="0"/><stop offset="1" stop-color="#442534"/></radialGradient><radialGradient id="paint44_radial_3953_18668" cx="0" cy="0" r="1" gradientTransform="matrix(-.39215 2.54902 -5.48408 -.8437 16.392 3.896)" gradientUnits="userSpaceOnUse"><stop stop-color="#634945"/><stop offset="1" stop-color="#4C4749" stop-opacity="0"/><stop offset="1" stop-color="#634945" stop-opacity="0"/></radialGradient><filter id="filter0_i_3953_18668" width="28.25" height="28.75" x="2" y="1.332" color-interpolation-filters="sRGB" filterUnits="userSpaceOnUse"><feFlood flood-opacity="0" result="BackgroundImageFix"/><feBlend in="SourceGraphic" in2="BackgroundImageFix" result="shape"/><feColorMatrix in="SourceAlpha" result="hardAlpha" values="0 0 0 0 0 0 0 0 0 0 0 0 0 0 0 0 0 0 127 0"/><feOffset dx=".25" dy="-.75"/><feGaussianBlur stdDeviation=".75"/><feComposite in2="hardAlpha" k2="-1" k3="1" operator="arithmetic"/><feColorMatrix values="0 0 0 0 0.262745 0 0 0 0 0.133333 0 0 0 0 0.184314 0 0 0 1 0"/><feBlend in2="shape" result="effect1_innerShadow_3953_18668"/></filter><filter id="filter1_i_3953_18668" width="6.15" height="6" x="4.264" y="14.982" color-interpolation-filters="sRGB" filterUnits="userSpaceOnUse"><feFlood flood-opacity="0" result="BackgroundImageFix"/><feBlend in="SourceGraphic" in2="BackgroundImageFix" result="shape"/><feColorMatrix in="SourceAlpha" result="hardAlpha" values="0 0 0 0 0 0 0 0 0 0 0 0 0 0 0 0 0 0 127 0"/><feOffset dx=".15"/><feGaussianBlur stdDeviation=".25"/><feComposite in2="hardAlpha" k2="-1" k3="1" operator="arithmetic"/><feColorMatrix values="0 0 0 0 0.607843 0 0 0 0 0.458824 0 0 0 0 0.403922 0 0 0 1 0"/><feBlend in2="shape" result="effect1_innerShadow_3953_18668"/></filter><filter id="filter2_i_3953_18668" width="6" height="6.25" x="22" y="14.732" color-interpolation-filters="sRGB" filterUnits="userSpaceOnUse"><feFlood flood-opacity="0" result="BackgroundImageFix"/><feBlend in="SourceGraphic" in2="BackgroundImageFix" result="shape"/><feColorMatrix in="SourceAlpha" result="hardAlpha" values="0 0 0 0 0 0 0 0 0 0 0 0 0 0 0 0 0 0 127 0"/><feOffset dy="-.25"/><feGaussianBlur stdDeviation=".25"/><feComposite in2="hardAlpha" k2="-1" k3="1" operator="arithmetic"/><feColorMatrix values="0 0 0 0 0.556863 0 0 0 0 0.34902 0 0 0 0 0.384314 0 0 0 1 0"/><feBlend in2="shape" result="effect1_innerShadow_3953_18668"/></filter><filter id="filter3_f_3953_18668" width="5.005" height="5.005" x="22.497" y="15.479" color-interpolation-filters="sRGB" filterUnits="userSpaceOnUse"><feFlood flood-opacity="0" result="BackgroundImageFix"/><feBlend in="SourceGraphic" in2="BackgroundImageFix" result="shape"/><feGaussianBlur result="effect1_foregroundBlur_3953_18668" stdDeviation=".25"/></filter><filter id="filter4_f_3953_18668" width="4.705" height="4.705" x="4.947" y="15.629" color-interpolation-filters="sRGB" filterUnits="userSpaceOnUse"><feFlood flood-opacity="0" result="BackgroundImageFix"/><feBlend in="SourceGraphic" in2="BackgroundImageFix" result="shape"/><feGaussianBlur result="effect1_foregroundBlur_3953_18668" stdDeviation=".175"/></filter><filter id="filter5_i_3953_18668" width="19" height="20.679" x="6.5" y="8.834" color-interpolation-filters="sRGB" filterUnits="userSpaceOnUse"><feFlood flood-opacity="0" result="BackgroundImageFix"/><feBlend in="SourceGraphic" in2="BackgroundImageFix" result="shape"/><feColorMatrix in="SourceAlpha" result="hardAlpha" values="0 0 0 0 0 0 0 0 0 0 0 0 0 0 0 0 0 0 127 0"/><feOffset dy=".4"/><feGaussianBlur stdDeviation=".3"/><feComposite in2="hardAlpha" k2="-1" k3="1" operator="arithmetic"/><feColorMatrix values="0 0 0 0 0.407843 0 0 0 0 0.223529 0 0 0 0 0.25098 0 0 0 1 0"/><feBlend in2="shape" result="effect1_innerShadow_3953_18668"/></filter><filter id="filter6_f_3953_18668" width="4.5" height="6" x="13.447" y="16.54" color-interpolation-filters="sRGB" filterUnits="userSpaceOnUse"><feFlood flood-opacity="0" result="BackgroundImageFix"/><feBlend in="SourceGraphic" in2="BackgroundImageFix" result="shape"/><feGaussianBlur result="effect1_foregroundBlur_3953_18668" stdDeviation=".25"/></filter><filter id="filter7_f_3953_18668" width="4" height="5.5" x="14" y="16.532" color-interpolation-filters="sRGB" filterUnits="userSpaceOnUse"><feFlood flood-opacity="0" result="BackgroundImageFix"/><feBlend in="SourceGraphic" in2="BackgroundImageFix" result="shape"/><feGaussianBlur result="effect1_foregroundBlur_3953_18668" stdDeviation=".125"/></filter><filter id="filter8_i_3953_18668" width="5.423" height="2.397" x="17.929" y="15.363" color-interpolation-filters="sRGB" filterUnits="userSpaceOnUse"><feFlood flood-opacity="0" result="BackgroundImageFix"/><feBlend in="SourceGraphic" in2="BackgroundImageFix" result="shape"/><feColorMatrix in="SourceAlpha" result="hardAlpha" values="0 0 0 0 0 0 0 0 0 0 0 0 0 0 0 0 0 0 127 0"/><feOffset dx="-.2"/><feGaussianBlur stdDeviation=".2"/><feComposite in2="hardAlpha" k2="-1" k3="1" operator="arithmetic"/><feColorMatrix values="0 0 0 0 0.117647 0 0 0 0 0.0705882 0 0 0 0 0.156863 0 0 0 1 0"/><feBlend in2="shape" result="effect1_innerShadow_3953_18668"/></filter><filter id="filter9_i_3953_18668" width="5.423" height="2.397" x="8.648" y="15.363" color-interpolation-filters="sRGB" filterUnits="userSpaceOnUse"><feFlood flood-opacity="0" result="BackgroundImageFix"/><feBlend in="SourceGraphic" in2="BackgroundImageFix" result="shape"/><feColorMatrix in="SourceAlpha" result="hardAlpha" values="0 0 0 0 0 0 0 0 0 0 0 0 0 0 0 0 0 0 127 0"/><feOffset dx=".2"/><feGaussianBlur stdDeviation=".125"/><feComposite in2="hardAlpha" k2="-1" k3="1" operator="arithmetic"/><feColorMatrix values="0 0 0 0 0.0862745 0 0 0 0 0.054902 0 0 0 0 0.113725 0 0 0 1 0"/><feBlend in2="shape" result="effect1_innerShadow_3953_18668"/></filter><filter id="filter10_i_3953_18668" width="4.4" height="1.861" x="8.9" y="12.882" color-interpolation-filters="sRGB" filterUnits="userSpaceOnUse"><feFlood flood-opacity="0" result="BackgroundImageFix"/><feBlend in="SourceGraphic" in2="BackgroundImageFix" result="shape"/><feColorMatrix in="SourceAlpha" result="hardAlpha" values="0 0 0 0 0 0 0 0 0 0 0 0 0 0 0 0 0 0 127 0"/><feOffset dx=".2" dy="-.2"/><feGaussianBlur stdDeviation=".15"/><feComposite in2="hardAlpha" k2="-1" k3="1" operator="arithmetic"/><feColorMatrix values="0 0 0 0 0.211765 0 0 0 0 0.121569 0 0 0 0 0.12549 0 0 0 1 0"/><feBlend in2="shape" result="effect1_innerShadow_3953_18668"/></filter><filter id="filter11_i_3953_18668" width="4.4" height="1.861" x="19" y="12.882" color-interpolation-filters="sRGB" filterUnits="userSpaceOnUse"><feFlood flood-opacity="0" result="BackgroundImageFix"/><feBlend in="SourceGraphic" in2="BackgroundImageFix" result="shape"/><feColorMatrix in="SourceAlpha" result="hardAlpha" values="0 0 0 0 0 0 0 0 0 0 0 0 0 0 0 0 0 0 127 0"/><feOffset dx=".2" dy="-.2"/><feGaussianBlur stdDeviation=".15"/><feComposite in2="hardAlpha" k2="-1" k3="1" operator="arithmetic"/><feColorMatrix values="0 0 0 0 0.211765 0 0 0 0 0.121569 0 0 0 0 0.12549 0 0 0 1 0"/><feBlend in2="shape" result="effect1_innerShadow_3953_18668"/></filter><filter id="filter12_f_3953_18668" width="1.294" height="1.125" x="18.786" y="16.135" color-interpolation-filters="sRGB" filterUnits="userSpaceOnUse"><feFlood flood-opacity="0" result="BackgroundImageFix"/><feBlend in="SourceGraphic" in2="BackgroundImageFix" result="shape"/><feGaussianBlur result="effect1_foregroundBlur_3953_18668" stdDeviation=".05"/></filter><filter id="filter13_f_3953_18668" width="1.316" height="1.357" x="20.438" y="16.362" color-interpolation-filters="sRGB" filterUnits="userSpaceOnUse"><feFlood flood-opacity="0" result="BackgroundImageFix"/><feBlend in="SourceGraphic" in2="BackgroundImageFix" result="shape"/><feGaussianBlur result="effect1_foregroundBlur_3953_18668" stdDeviation=".1"/></filter><filter id="filter14_f_3953_18668" width="1.493" height="1.594" x="12.155" y="16.243" color-interpolation-filters="sRGB" filterUnits="userSpaceOnUse"><feFlood flood-opacity="0" result="BackgroundImageFix"/><feBlend in="SourceGraphic" in2="BackgroundImageFix" result="shape"/><feGaussianBlur result="effect1_foregroundBlur_3953_18668" stdDeviation=".1"/></filter><filter id="filter15_f_3953_18668" width="1.529" height="1.141" x="10.661" y="16.12" color-interpolation-filters="sRGB" filterUnits="userSpaceOnUse"><feFlood flood-opacity="0" result="BackgroundImageFix"/><feBlend in="SourceGraphic" in2="BackgroundImageFix" result="shape"/><feGaussianBlur result="effect1_foregroundBlur_3953_18668" stdDeviation=".05"/></filter><filter id="filter16_f_3953_18668" width="4.296" height="1.904" x="19.016" y="12.896" color-interpolation-filters="sRGB" filterUnits="userSpaceOnUse"><feFlood flood-opacity="0" result="BackgroundImageFix"/><feBlend in="SourceGraphic" in2="BackgroundImageFix" result="shape"/><feGaussianBlur result="effect1_foregroundBlur_3953_18668" stdDeviation=".2"/></filter><filter id="filter17_f_3953_18668" width="4.296" height="1.904" x="8.852" y="12.896" color-interpolation-filters="sRGB" filterUnits="userSpaceOnUse"><feFlood flood-opacity="0" result="BackgroundImageFix"/><feBlend in="SourceGraphic" in2="BackgroundImageFix" result="shape"/><feGaussianBlur result="effect1_foregroundBlur_3953_18668" stdDeviation=".2"/></filter><filter id="filter18_if_3953_18668" width="7.861" height="8.423" x="4.149" y="5.035" color-interpolation-filters="sRGB" filterUnits="userSpaceOnUse"><feFlood flood-opacity="0" result="BackgroundImageFix"/><feBlend in="SourceGraphic" in2="BackgroundImageFix" result="shape"/><feColorMatrix in="SourceAlpha" result="hardAlpha" values="0 0 0 0 0 0 0 0 0 0 0 0 0 0 0 0 0 0 127 0"/><feOffset dx=".5" dy=".5"/><feGaussianBlur stdDeviation=".5"/><feComposite in2="hardAlpha" k2="-1" k3="1" operator="arithmetic"/><feColorMatrix values="0 0 0 0 0.345098 0 0 0 0 0.286275 0 0 0 0 0.27451 0 0 0 1 0"/><feBlend in2="shape" result="effect1_innerShadow_3953_18668"/><feGaussianBlur result="effect2_foregroundBlur_3953_18668" stdDeviation=".375"/></filter><filter id="filter19_if_3953_18668" width="16.82" height="11.348" x="9.898" y="2.64" color-interpolation-filters="sRGB" filterUnits="userSpaceOnUse"><feFlood flood-opacity="0" result="BackgroundImageFix"/><feBlend in="SourceGraphic" in2="BackgroundImageFix" result="shape"/><feColorMatrix in="SourceAlpha" result="hardAlpha" values="0 0 0 0 0 0 0 0 0 0 0 0 0 0 0 0 0 0 127 0"/><feOffset dx="-.3" dy=".2"/><feGaussianBlur stdDeviation=".4"/><feComposite in2="hardAlpha" k2="-1" k3="1" operator="arithmetic"/><feColorMatrix values="0 0 0 0 0.415686 0 0 0 0 0.317647 0 0 0 0 0.305882 0 0 0 1 0"/><feBlend in2="shape" result="effect1_innerShadow_3953_18668"/><feGaussianBlur result="effect2_foregroundBlur_3953_18668" stdDeviation=".375"/></filter><filter id="filter20_f_3953_18668" width="1.616" height="3.788" x="10.309" y="5.485" color-interpolation-filters="sRGB" filterUnits="userSpaceOnUse"><feFlood flood-opacity="0" result="BackgroundImageFix"/><feBlend in="SourceGraphic" in2="BackgroundImageFix" result="shape"/><feGaussianBlur result="effect1_foregroundBlur_3953_18668" stdDeviation=".1"/></filter><filter id="filter21_f_3953_18668" width="12.686" height="6.99" x="14.564" y="6.381" color-interpolation-filters="sRGB" filterUnits="userSpaceOnUse"><feFlood flood-opacity="0" result="BackgroundImageFix"/><feBlend in="SourceGraphic" in2="BackgroundImageFix" result="shape"/><feGaussianBlur result="effect1_foregroundBlur_3953_18668" stdDeviation=".875"/></filter><linearGradient id="paint0_linear_3953_18668" x1="24.75" x2="13.313" y1="5.02" y2="25.082" gradientUnits="userSpaceOnUse"><stop stop-color="#6D524E"/><stop offset="1" stop-color="#2C1C24"/></linearGradient><linearGradient id="paint12_linear_3953_18668" x1="4.264" x2="7.727" y1="18.145" y2="18.145" gradientUnits="userSpaceOnUse"><stop stop-color="#8D645F"/><stop offset="1" stop-color="#604138"/></linearGradient><linearGradient id="paint29_linear_3953_18668" x1="14.25" x2="16" y1="20.464" y2="20.464" gradientUnits="userSpaceOnUse"><stop stop-color="#875F54"/><stop offset="1" stop-color="#875F54" stop-opacity="0"/></linearGradient><linearGradient id="paint30_linear_3953_18668" x1="16" x2="16" y1="21.782" y2="20.613" gradientUnits="userSpaceOnUse"><stop stop-color="#995C76"/><stop offset="1" stop-color="#995C76" stop-opacity="0"/></linearGradient><linearGradient id="paint32_linear_3953_18668" x1="16.146" x2="16.146" y1="21.905" y2="21.645" gradientUnits="userSpaceOnUse"><stop stop-color="#8F5269"/><stop offset="1" stop-color="#8F5269" stop-opacity="0"/></linearGradient><linearGradient id="paint34_linear_3953_18668" x1="14.016" x2="14.875" y1="24.582" y2="23.254" gradientUnits="userSpaceOnUse"><stop stop-color="#A87D7B"/><stop offset=".663" stop-color="#A87D7B" stop-opacity="0"/></linearGradient><linearGradient id="paint37_linear_3953_18668" x1="21.519" x2="20.934" y1="16.969" y2="17.33" gradientUnits="userSpaceOnUse"><stop stop-color="#B4948D"/><stop offset="1" stop-color="#B4948D" stop-opacity="0"/></linearGradient><linearGradient id="paint39_linear_3953_18668" x1="13.319" x2="12.733" y1="16.969" y2="17.33" gradientUnits="userSpaceOnUse"><stop stop-color="#B4948D"/><stop offset="1" stop-color="#B4948D" stop-opacity="0"/></linearGradient><linearGradient id="paint45_linear_3953_18668" x1="10.204" x2="11.117" y1="5.02" y2="7.379" gradientUnits="userSpaceOnUse"><stop stop-color="#361F1F"/><stop offset="1" stop-color="#452531"/></linearGradient></defs></svg>