<svg xmlns="http://www.w3.org/2000/svg" width="32" height="32" fill="none" viewBox="0 0 32 32"><g filter="url(#filter0_i_3987_23485)"><path fill="url(#paint0_linear_3987_23485)" d="m3.898 16.744-1.867 1.938v11.28H29.97v-16.53l-6.14-9.306a2.3 2.3 0 0 0-3.841.003l-8.916 13.549a.5.5 0 0 1-.715.127L8.31 16.287c-1.32-.98-3.2-.8-4.41.457Z"/><path fill="url(#paint1_linear_3987_23485)" d="m3.898 16.744-1.867 1.938v11.28H29.97v-16.53l-6.14-9.306a2.3 2.3 0 0 0-3.841.003l-8.916 13.549a.5.5 0 0 1-.715.127L8.31 16.287c-1.32-.98-3.2-.8-4.41.457Z"/></g><g filter="url(#filter1_i_3987_23485)"><path fill="url(#paint2_linear_3987_23485)" d="m17.771 7.497 2.247-1.315a.4.4 0 0 1 .511.09l1.07 1.3a.6.6 0 0 0 .927 0l1.067-1.296a.4.4 0 0 1 .515-.089L25.9 7.264l-2.07-3.138a2.3 2.3 0 0 0-3.841.003L17.77 7.497Z"/></g><path fill="url(#paint3_radial_3987_23485)" d="m17.771 7.497 2.247-1.315a.4.4 0 0 1 .511.09l1.07 1.3a.6.6 0 0 0 .927 0l1.067-1.296a.4.4 0 0 1 .515-.089L25.9 7.264l-2.07-3.138a2.3 2.3 0 0 0-3.841.003L17.77 7.497Z"/><g filter="url(#filter2_i_3987_23485)"><path fill="#97595F" d="m5.663 27.149-3.616 2.158v.672h27.922v-.672l-3.532-2.15a2.4 2.4 0 0 0-2.429-.04l-.817.462a2 2 0 0 1-1.838.067l-1.319-.623a2.25 2.25 0 0 0-1.965.021l-1.176.587a2 2 0 0 1-1.823-.02l-1.126-.59a2 2 0 0 0-1.783-.04l-1.42.67a2 2 0 0 1-1.825-.062l-.855-.476a2.4 2.4 0 0 0-2.398.036Z"/><path fill="url(#paint4_radial_3987_23485)" d="m5.663 27.149-3.616 2.158v.672h27.922v-.672l-3.532-2.15a2.4 2.4 0 0 0-2.429-.04l-.817.462a2 2 0 0 1-1.838.067l-1.319-.623a2.25 2.25 0 0 0-1.965.021l-1.176.587a2 2 0 0 1-1.823-.02l-1.126-.59a2 2 0 0 0-1.783-.04l-1.42.67a2 2 0 0 1-1.825-.062l-.855-.476a2.4 2.4 0 0 0-2.398.036Z"/></g><g filter="url(#filter3_i_3987_23485)"><path fill="url(#paint5_radial_3987_23485)" fill-rule="evenodd" d="M7.073 21.008a3.969 3.969 0 1 0 0 7.937 3.969 3.969 0 0 0 0-7.937Zm-4.97 3.969a4.969 4.969 0 1 1 9.938 0 4.969 4.969 0 0 1-9.937 0Z" clip-rule="evenodd"/></g><g filter="url(#filter4_f_3987_23485)"><circle cx="7.072" cy="24.977" r="4.555" stroke="url(#paint6_linear_3987_23485)" stroke-width=".3"/></g><path fill="url(#paint7_linear_3987_23485)" d="m19.204 20.133-1.827-1.988-.423 2.058 1 .706 1.25-.776Z"/><path fill="#413354" d="m17.898 20.866-.3 1.98c-.067.476-.04.888.364 1.168.102.07.238.03.307-.072l1.964-2.901a.2.2 0 0 0-.054-.278l-.952-.644-1.329.747Z"/><path fill="url(#paint8_linear_3987_23485)" d="m17.898 20.866-.3 1.98c-.067.476-.04.888.364 1.168.102.07.238.03.307-.072l1.964-2.901a.2.2 0 0 0-.054-.278l-.952-.644-1.329.747Z"/><path fill="url(#paint9_radial_3987_23485)" d="m17.898 20.866-.3 1.98c-.067.476-.04.888.364 1.168.102.07.238.03.307-.072l1.964-2.901a.2.2 0 0 0-.054-.278l-.952-.644-1.329.747Z"/><path fill="url(#paint10_linear_3987_23485)" fill-rule="evenodd" d="M12.505 11.6a.5.5 0 0 1 .271.653l-2.54 6.247a.5.5 0 0 1-.924-.381l2.54-6.247a.5.5 0 0 1 .653-.272Z" clip-rule="evenodd"/><path fill="url(#paint11_radial_3987_23485)" fill-rule="evenodd" d="M12.505 11.6a.5.5 0 0 1 .271.653l-2.54 6.247a.5.5 0 0 1-.924-.381l2.54-6.247a.5.5 0 0 1 .653-.272Z" clip-rule="evenodd"/><path fill="url(#paint12_linear_3987_23485)" fill-rule="evenodd" d="M10.57 16.335a.55.55 0 0 1 .3.718l-3.289 8a.55.55 0 0 1-1.017-.418l3.289-8a.55.55 0 0 1 .718-.3Z" clip-rule="evenodd"/><path fill="url(#paint13_radial_3987_23485)" fill-rule="evenodd" d="M9.647 18.563c.101-.223.43-.466.672-.282l6.25 4.75a.55.55 0 0 1-.665.876l-6.081-4.61c-.242-.184-.305-.453-.176-.735Z" clip-rule="evenodd"/><path fill="url(#paint14_linear_3987_23485)" fill-rule="evenodd" d="M9.647 18.563c.101-.223.43-.466.672-.282l6.25 4.75a.55.55 0 0 1-.665.876l-6.081-4.61c-.242-.184-.305-.453-.176-.735Z" clip-rule="evenodd"/><g fill-rule="evenodd" clip-rule="evenodd" filter="url(#filter5_i_3987_23485)"><path fill="url(#paint15_radial_3987_23485)" d="M25.018 21.008a3.969 3.969 0 1 0 0 7.937 3.969 3.969 0 0 0 0-7.937Zm-4.969 3.969a4.969 4.969 0 1 1 9.938 0 4.969 4.969 0 0 1-9.938 0Z"/><path fill="url(#paint16_linear_3987_23485)" d="M25.018 21.008a3.969 3.969 0 1 0 0 7.937 3.969 3.969 0 0 0 0-7.937Zm-4.969 3.969a4.969 4.969 0 1 1 9.938 0 4.969 4.969 0 0 1-9.938 0Z"/></g><path fill="url(#paint17_linear_3987_23485)" fill-rule="evenodd" d="M19.756 16.62a.55.55 0 0 0-.172.76l4.719 7.476a.55.55 0 1 0 .93-.587l-4.719-7.477a.55.55 0 0 0-.758-.171Z" clip-rule="evenodd"/><path fill="url(#paint18_linear_3987_23485)" fill-rule="evenodd" d="M20.06 16.541a.55.55 0 0 1 .417.657l-1.579 7.078a.55.55 0 0 1-1.073-.24l1.578-7.078a.55.55 0 0 1 .657-.417Z" clip-rule="evenodd"/><path fill="url(#paint19_radial_3987_23485)" fill-rule="evenodd" d="M20.06 16.541a.55.55 0 0 1 .417.657l-1.579 7.078a.55.55 0 0 1-1.073-.24l1.578-7.078a.55.55 0 0 1 .657-.417Z" clip-rule="evenodd"/><path fill="url(#paint20_radial_3987_23485)" fill-rule="evenodd" d="M20.06 16.541a.55.55 0 0 1 .417.657l-1.579 7.078a.55.55 0 0 1-1.073-.24l1.578-7.078a.55.55 0 0 1 .657-.417Z" clip-rule="evenodd"/><path fill="url(#paint21_radial_3987_23485)" d="m14.014 15.445 1.34-.836 1.04 1.04-.766 3.53a199.92 199.92 0 0 0-1.688-1.241c-.148-.102-.66-.543-.653-1.239.008-.71.477-1.071.727-1.254Z"/><path fill="url(#paint22_radial_3987_23485)" d="m14.014 15.445 1.34-.836 1.04 1.04-.766 3.53a199.92 199.92 0 0 0-1.688-1.241c-.148-.102-.66-.543-.653-1.239.008-.71.477-1.071.727-1.254Z"/><path fill="url(#paint23_radial_3987_23485)" d="m14.014 15.445 1.34-.836 1.04 1.04-.766 3.53a199.92 199.92 0 0 0-1.688-1.241c-.148-.102-.66-.543-.653-1.239.008-.71.477-1.071.727-1.254Z"/><path fill="url(#paint24_linear_3987_23485)" d="m14.014 15.445 1.34-.836 1.04 1.04-.766 3.53a199.92 199.92 0 0 0-1.688-1.241c-.148-.102-.66-.543-.653-1.239.008-.71.477-1.071.727-1.254Z"/><path fill="url(#paint25_radial_3987_23485)" d="m15.295 14.645 2.64-1.61 1.208.63-2.727 2.476c-.268-.232-.84-1.051-1.12-1.496Z"/><path fill="url(#paint26_linear_3987_23485)" d="m15.295 14.645 2.64-1.61 1.208.63-2.727 2.476c-.268-.232-.84-1.051-1.12-1.496Z"/><g filter="url(#filter6_ii_3987_23485)"><path fill="url(#paint27_linear_3987_23485)" d="M18.93 26.8a1.863 1.863 0 1 1 .018-3.643l5.898.905a.927.927 0 0 1-.086 1.838l-5.83.9Z"/><path fill="url(#paint28_radial_3987_23485)" d="M18.93 26.8a1.863 1.863 0 1 1 .018-3.643l5.898.905a.927.927 0 0 1-.086 1.838l-5.83.9Z"/></g><circle cx="18.389" cy="24.977" r="1.027" fill="url(#paint29_radial_3987_23485)"/><circle cx="18.389" cy="24.977" r="1.027" fill="url(#paint30_radial_3987_23485)"/><g filter="url(#filter7_i_3987_23485)"><path fill="#5B4E85" d="m16.115 23.226-1.809.861c-.43.212-.756.465-.762.956 0 .124.108.214.231.214h3.504a.2.2 0 0 0 .2-.2v-1.15l-1.364-.681Z"/><path fill="url(#paint31_linear_3987_23485)" d="m16.115 23.226-1.809.861c-.43.212-.756.465-.762.956 0 .124.108.214.231.214h3.504a.2.2 0 0 0 .2-.2v-1.15l-1.364-.681Z"/><path fill="url(#paint32_radial_3987_23485)" d="m16.115 23.226-1.809.861c-.43.212-.756.465-.762.956 0 .124.108.214.231.214h3.504a.2.2 0 0 0 .2-.2v-1.15l-1.364-.681Z"/></g><path fill="url(#paint33_linear_3987_23485)" d="M13.554 7.913h2.154v2.668h-2.154z" transform="rotate(-55.397 13.554 7.913)"/><path fill="url(#paint34_radial_3987_23485)" d="M13.554 7.913h2.154v2.668h-2.154z" transform="rotate(-55.397 13.554 7.913)"/><g filter="url(#filter8_i_3987_23485)"><path fill="url(#paint35_radial_3987_23485)" d="m16.096 16 .553-.514 2.04 1.916c-.273.154-.886.464-1.03.582-.11.091-.11.235-.11.329l-.046 5.593-1.407-.672c-.138-.794-.42-2.708-.769-4.3-.395-1.801.376-2.593.77-2.934Z"/><path fill="url(#paint36_radial_3987_23485)" d="m16.096 16 .553-.514 2.04 1.916c-.273.154-.886.464-1.03.582-.11.091-.11.235-.11.329l-.046 5.593-1.407-.672c-.138-.794-.42-2.708-.769-4.3-.395-1.801.376-2.593.77-2.934Z"/></g><g filter="url(#filter9_i_3987_23485)"><path fill="url(#paint37_radial_3987_23485)" d="m18.38 13.777-.636-.699 4.032-2.476c1.422 1.867 1.5 3.21.836 4.273-.664 1.063-1.582 2.05-2.618 2.945-.271.235-.802.362-1.359-.18-.707-.687-1.578-1.578-2.04-2.113l1.778-1.608a.1.1 0 0 0 .007-.142Z"/><path fill="url(#paint38_radial_3987_23485)" d="m18.38 13.777-.636-.699 4.032-2.476c1.422 1.867 1.5 3.21.836 4.273-.664 1.063-1.582 2.05-2.618 2.945-.271.235-.802.362-1.359-.18-.707-.687-1.578-1.578-2.04-2.113l1.778-1.608a.1.1 0 0 0 .007-.142Z"/></g><g filter="url(#filter10_i_3987_23485)"><path fill="url(#paint39_radial_3987_23485)" d="M16.112 11.156c.664.625 1.363 1.586 1.671 1.969l4.243-2.18c-.586-.976-2.07-2.53-3.54-3.359-1.718-.813-2.672 0-3.305 1.07-.413.852.259 1.781.93 2.5Z"/></g><g filter="url(#filter11_i_3987_23485)"><path fill="#C0B9BC" d="M12.955 11.61a.575.575 0 0 0-.575-.576H9.33a2.13 2.13 0 0 0 0 4.26h.183a.575.575 0 1 0 0-1.15H9.33a.98.98 0 1 1 0-1.96h3.05a.575.575 0 0 0 .575-.575Z"/><path fill="url(#paint40_radial_3987_23485)" d="M12.955 11.61a.575.575 0 0 0-.575-.576H9.33a2.13 2.13 0 0 0 0 4.26h.183a.575.575 0 1 0 0-1.15H9.33a.98.98 0 1 1 0-1.96h3.05a.575.575 0 0 0 .575-.575Z"/></g><g filter="url(#filter12_i_3987_23485)"><path fill="#2B174F" fill-rule="evenodd" d="M8.35 13.223V13.2a.572.572 0 1 0-1.145 0v.022h-.004a2.13 2.13 0 0 0 2.13 2.07h.182a.575.575 0 0 0 0-1.15H9.33a.98.98 0 0 1-.978-.92H8.35Z" clip-rule="evenodd"/></g><g fill-rule="evenodd" clip-rule="evenodd" filter="url(#filter13_i_3987_23485)"><path fill="#7D574E" d="M17.142 8.274c.479.327.601.98.274 1.46-.783 1.144-3.152 4.302-7.933 4.787-.577.059-1.594-.319-1.653-.896-.058-.577.865-1.134 1.441-1.193 3.844-.39 5.741-2.904 6.412-3.884a1.05 1.05 0 0 1 1.459-.274Z"/><path fill="url(#paint41_radial_3987_23485)" d="M17.142 8.274c.479.327.601.98.274 1.46-.783 1.144-3.152 4.302-7.933 4.787-.577.059-1.594-.319-1.653-.896-.058-.577.865-1.134 1.441-1.193 3.844-.39 5.741-2.904 6.412-3.884a1.05 1.05 0 0 1 1.459-.274Z"/></g><path fill="url(#paint42_radial_3987_23485)" fill-rule="evenodd" d="M9.337 12.922a.35.35 0 0 1-.35.35c-.173 0-.436.042-.663.15-.226.106-.37.252-.415.438a.35.35 0 1 1-.68-.166c.113-.466.462-.748.796-.906.334-.157.7-.216.962-.216a.35.35 0 0 1 .35.35Z" clip-rule="evenodd"/><path fill="url(#paint43_radial_3987_23485)" fill-rule="evenodd" d="M9.337 12.922a.35.35 0 0 1-.35.35c-.173 0-.436.042-.663.15-.226.106-.37.252-.415.438a.35.35 0 1 1-.68-.166c.113-.466.462-.748.796-.906.334-.157.7-.216.962-.216a.35.35 0 0 1 .35.35Z" clip-rule="evenodd"/><g filter="url(#filter14_f_3987_23485)"><path fill="url(#paint44_radial_3987_23485)" d="m21.006 12.895-.523-.863 1.125-.656c.968 1.312 1.343 2.296.734 2.875-.487.462-2.87 1.723-4 2.296l2.503-2.414a1 1 0 0 0 .161-1.238Z"/></g><path fill="url(#paint45_radial_3987_23485)" fill-rule="evenodd" d="M8.827 13.457a.35.35 0 0 1-.227.44.596.596 0 0 0-.406.457.35.35 0 1 1-.683-.152c.05-.223.235-.767.876-.972a.35.35 0 0 1 .44.227Z" clip-rule="evenodd"/><path fill="url(#paint46_radial_3987_23485)" fill-rule="evenodd" d="M8.827 13.457a.35.35 0 0 1-.227.44.596.596 0 0 0-.406.457.35.35 0 1 1-.683-.152c.05-.223.235-.767.876-.972a.35.35 0 0 1 .44.227Z" clip-rule="evenodd"/><path fill="url(#paint47_radial_3987_23485)" fill-rule="evenodd" d="M8.974 13.516a.329.329 0 0 1 0 .402c-.151.126-.343.39-.372.594a.35.35 0 1 1-.693-.101 1.38 1.38 0 0 1 .155-.429c.08-.147.196-.313.354-.443.148-.123.433-.172.556-.023Z" clip-rule="evenodd"/><path fill="url(#paint48_radial_3987_23485)" fill-rule="evenodd" d="M8.974 13.516a.329.329 0 0 1 0 .402c-.151.126-.343.39-.372.594a.35.35 0 1 1-.693-.101 1.38 1.38 0 0 1 .155-.429c.08-.147.196-.313.354-.443.148-.123.433-.172.556-.023Z" clip-rule="evenodd"/><g filter="url(#filter15_f_3987_23485)"><circle cx="9.24" cy="13.424" r=".885" fill="#825C51"/></g><path fill="url(#paint49_radial_3987_23485)" d="M10.865 8.316c-.201-.141-.203-.301-.133-.656a.822.822 0 0 0-.057-.537l.803 1.003c-.111.221-.412.332-.613.19Z"/><g filter="url(#filter16_ii_3987_23485)"><path fill="url(#paint50_radial_3987_23485)" d="M12.037 9.087c-.772-.75-1.405-1.95-1.659-2.42l3.481-2.06 1.836 1.699a5.232 5.232 0 0 1-.952 1.901c-.718.881-1.693 1.865-2.706.88Z"/><path fill="url(#paint51_radial_3987_23485)" d="M12.037 9.087c-.772-.75-1.405-1.95-1.659-2.42l3.481-2.06 1.836 1.699a5.232 5.232 0 0 1-.952 1.901c-.718.881-1.693 1.865-2.706.88Z"/></g><path fill="#86004D" fill-rule="evenodd" d="M11.934 8.556a.117.117 0 0 1 .042-.16c.103-.06.24-.209.316-.525a.117.117 0 0 1 .228.056c-.087.36-.254.572-.426.672a.117.117 0 0 1-.16-.043Z" clip-rule="evenodd"/><path fill="#1B131C" d="M11.982 6.34a.818.818 0 0 0-.59-.003c.282.152.333.386.491.37.207-.023.296-.285.099-.367Z"/><path fill="#fff" d="M11.067 6.644c-.073.227.061.457.133.574l.894-.516c-.52-.6-.928-.368-1.027-.058Z"/><path fill="#634C48" d="M11.702 6.928a.979.979 0 0 0-.029-.05c-.157-.25-.395-.385-.53-.3-.135.085-.117.357.04.608a.91.91 0 0 0 .02.03l.499-.288Z"/><path fill="url(#paint52_linear_3987_23485)" d="M11.51 7.038a.542.542 0 0 0-.047-.093c-.087-.14-.218-.215-.29-.17-.074.047-.063.197.025.337a.547.547 0 0 0 .056.074l.256-.148Z"/><circle cx="11.181" cy="6.753" r=".085" fill="#DFDFDF" transform="rotate(-63.406 11.181 6.753)"/><g filter="url(#filter17_i_3987_23485)"><path fill="url(#paint53_radial_3987_23485)" d="m14.443 7.228-.98-1.075-.528-.93 2.263-1.061c.063.1.32.338.84.492a1.75 1.75 0 0 1 1.07.894c.127.238.5 1.317-.653 1.98-.922.53-1.726.021-2.012-.3Z"/></g><circle cx="13.547" cy="5.728" r=".655" fill="url(#paint54_radial_3987_23485)" transform="rotate(-63.406 13.547 5.728)"/><path fill="#4D3771" fill-rule="evenodd" d="M12.794 5.003a.293.293 0 0 1 .387.15l1.466 3.349a.293.293 0 1 1-.538.235l-1.466-3.348a.293.293 0 0 1 .151-.386Z" clip-rule="evenodd"/><path fill="url(#paint55_linear_3987_23485)" fill-rule="evenodd" d="M12.794 5.003a.293.293 0 0 1 .387.15l1.466 3.349a.293.293 0 1 1-.538.235l-1.466-3.348a.293.293 0 0 1 .151-.386Z" clip-rule="evenodd"/><path fill="url(#paint56_linear_3987_23485)" fill-rule="evenodd" d="M12.794 5.003a.293.293 0 0 1 .387.15l1.466 3.349a.293.293 0 1 1-.538.235l-1.466-3.348a.293.293 0 0 1 .151-.386Z" clip-rule="evenodd"/><path fill="url(#paint57_radial_3987_23485)" fill-rule="evenodd" d="M12.794 5.003a.293.293 0 0 1 .387.15l1.466 3.349a.293.293 0 1 1-.538.235l-1.466-3.348a.293.293 0 0 1 .151-.386Z" clip-rule="evenodd"/><g filter="url(#filter18_i_3987_23485)"><path fill="url(#paint58_radial_3987_23485)" d="m15.17 4.36-4.734 2.391a.26.26 0 0 1-.338-.08 5.62 5.62 0 0 1-.565-1.142c-.528-1.453.487-2.26.62-2.385.193-.18.724-.627 1.862-1.036 1.335-.48 2.176.116 2.586.67.258.347.538.87.7 1.22a.275.275 0 0 1-.13.362Z"/></g><g filter="url(#filter19_i_3987_23485)"><path fill="url(#paint59_radial_3987_23485)" d="M11.373 5.082a.354.354 0 0 1 .165-.473l1.311-.634a.354.354 0 1 1 .309.637l-1.312.635a.354.354 0 0 1-.473-.165Z"/></g><defs><radialGradient id="paint3_radial_3987_23485" cx="0" cy="0" r="1" gradientTransform="rotate(150.331 11.809 6.04) scale(3.70975 8.36641)" gradientUnits="userSpaceOnUse"><stop offset=".19" stop-color="#EBEAED"/><stop offset="1" stop-color="#D9D1DF" stop-opacity="0"/></radialGradient><radialGradient id="paint4_radial_3987_23485" cx="0" cy="0" r="1" gradientTransform="matrix(4.42529 4.18325 -2.33905 2.47438 19.748 26.79)" gradientUnits="userSpaceOnUse"><stop stop-color="#8A4C56"/><stop offset="1" stop-color="#8A4C56" stop-opacity="0"/></radialGradient><radialGradient id="paint5_radial_3987_23485" cx="0" cy="0" r="1" gradientTransform="rotate(126.943 -.1 13.106) scale(9.77501 9.43553)" gradientUnits="userSpaceOnUse"><stop stop-color="#32295B"/><stop offset="1" stop-color="#3C2150"/></radialGradient><radialGradient id="paint9_radial_3987_23485" cx="0" cy="0" r="1" gradientTransform="matrix(-1.53127 2.45312 -.44454 -.27749 20.346 20.953)" gradientUnits="userSpaceOnUse"><stop stop-color="#5D5C7E"/><stop offset="1" stop-color="#5D5C7E" stop-opacity="0"/></radialGradient><radialGradient id="paint11_radial_3987_23485" cx="0" cy="0" r="1" gradientTransform="rotate(-68.025 17.608 .423) scale(2.88119 .32513)" gradientUnits="userSpaceOnUse"><stop stop-color="#BAA3B9"/><stop offset="1" stop-color="#BAA3B9" stop-opacity="0"/></radialGradient><radialGradient id="paint13_radial_3987_23485" cx="0" cy="0" r="1" gradientTransform="matrix(6.71875 4.82813 -1.31599 1.83131 10.22 18.516)" gradientUnits="userSpaceOnUse"><stop stop-color="#CE3D5E"/><stop offset="1" stop-color="#932145"/></radialGradient><radialGradient id="paint15_radial_3987_23485" cx="0" cy="0" r="1" gradientTransform="rotate(134.451 10.034 17.078) scale(9.80603 9.46548)" gradientUnits="userSpaceOnUse"><stop offset=".427" stop-color="#373C67"/><stop offset="1" stop-color="#38144F"/></radialGradient><radialGradient id="paint19_radial_3987_23485" cx="0" cy="0" r="1" gradientTransform="rotate(103.707 3.238 16.627) scale(4.61583 .44083)" gradientUnits="userSpaceOnUse"><stop stop-color="#E44354"/><stop offset="1" stop-color="#E44354" stop-opacity="0"/></radialGradient><radialGradient id="paint20_radial_3987_23485" cx="0" cy="0" r="1" gradientTransform="matrix(-.03125 -1.0625 1.65481 -.04867 18.502 23.75)" gradientUnits="userSpaceOnUse"><stop stop-color="#AC2735"/><stop offset="1" stop-color="#AC2735" stop-opacity="0"/></radialGradient><radialGradient id="paint21_radial_3987_23485" cx="0" cy="0" r="1" gradientTransform="matrix(2.1836 .4375 -.55377 2.76392 13.287 16.75)" gradientUnits="userSpaceOnUse"><stop offset=".114" stop-color="#734B4A"/><stop offset="1" stop-color="#6A4840"/></radialGradient><radialGradient id="paint22_radial_3987_23485" cx="0" cy="0" r="1" gradientTransform="rotate(-93.048 16.528 2.182) scale(2.64437 3.7578)" gradientUnits="userSpaceOnUse"><stop stop-color="#75415D"/><stop offset="1" stop-color="#75415D" stop-opacity="0"/></radialGradient><radialGradient id="paint23_radial_3987_23485" cx="0" cy="0" r="1" gradientTransform="matrix(1.21875 .45313 -.35 .94138 15.783 17.156)" gradientUnits="userSpaceOnUse"><stop offset=".346" stop-color="#593235"/><stop offset="1" stop-color="#5C383D" stop-opacity="0"/></radialGradient><radialGradient id="paint25_radial_3987_23485" cx="0" cy="0" r="1" gradientTransform="rotate(143.881 6.994 9.938) scale(2.86275 1.23215)" gradientUnits="userSpaceOnUse"><stop offset=".255" stop-color="#4F414E"/><stop offset="1" stop-color="#564A5A"/></radialGradient><radialGradient id="paint28_radial_3987_23485" cx="0" cy="0" r="1" gradientTransform="matrix(-.86719 0 0 -.96875 25.62 24.813)" gradientUnits="userSpaceOnUse"><stop stop-color="#FFD359"/><stop offset="1" stop-color="#FFD359" stop-opacity="0"/></radialGradient><radialGradient id="paint29_radial_3987_23485" cx="0" cy="0" r="1" gradientTransform="matrix(1.5625 -.65625 .66797 1.5904 17.72 25.172)" gradientUnits="userSpaceOnUse"><stop offset=".47" stop-color="#D8CFE2"/><stop offset="1" stop-color="#C5BFCB"/></radialGradient><radialGradient id="paint30_radial_3987_23485" cx="0" cy="0" r="1" gradientTransform="rotate(151.189 6.29 14.782) scale(1.78324)" gradientUnits="userSpaceOnUse"><stop offset=".632" stop-color="#E2DFE5" stop-opacity="0"/><stop offset="1" stop-color="#E2DFE5"/></radialGradient><radialGradient id="paint32_radial_3987_23485" cx="0" cy="0" r="1" gradientTransform="matrix(-1.1094 -2 6.41983 -3.56106 16.3 25.516)" gradientUnits="userSpaceOnUse"><stop offset=".301" stop-color="#5C4F86" stop-opacity="0"/><stop offset=".943" stop-color="#493B63"/></radialGradient><radialGradient id="paint34_radial_3987_23485" cx="0" cy="0" r="1" gradientTransform="matrix(.03133 1.4211 -.52543 .01158 14.98 8.897)" gradientUnits="userSpaceOnUse"><stop offset=".18" stop-color="#8C675C"/><stop offset="1" stop-color="#8C675C" stop-opacity="0"/></radialGradient><radialGradient id="paint35_radial_3987_23485" cx="0" cy="0" r="1" gradientTransform="matrix(-.75 -8.78125 2.52881 -.21598 17.94 23.906)" gradientUnits="userSpaceOnUse"><stop offset=".122" stop-color="#93685F"/><stop offset="1" stop-color="#744F45"/></radialGradient><radialGradient id="paint36_radial_3987_23485" cx="0" cy="0" r="1" gradientTransform="matrix(-1.6875 .0625 -.11168 -3.01554 18.846 17.625)" gradientUnits="userSpaceOnUse"><stop offset=".284" stop-color="#723856"/><stop offset="1" stop-color="#81505B" stop-opacity="0"/></radialGradient><radialGradient id="paint37_radial_3987_23485" cx="0" cy="0" r="1" gradientTransform="matrix(5.125 -4.9297 2.6132 2.71672 16.815 15.531)" gradientUnits="userSpaceOnUse"><stop offset=".148" stop-color="#726B71"/><stop offset="1" stop-color="#A3A1A2"/></radialGradient><radialGradient id="paint38_radial_3987_23485" cx="0" cy="0" r="1" gradientTransform="matrix(2.59375 -.09375 .01804 .49916 18.237 13.813)" gradientUnits="userSpaceOnUse"><stop offset=".22" stop-color="#736E75"/><stop offset="1" stop-color="#736E75" stop-opacity="0"/></radialGradient><radialGradient id="paint39_radial_3987_23485" cx="0" cy="0" r="1" gradientTransform="matrix(-3.49999 -4.06251 1.70908 -1.47243 21.127 11.5)" gradientUnits="userSpaceOnUse"><stop stop-color="#977ED0"/><stop offset="1" stop-color="#674E9F"/></radialGradient><radialGradient id="paint40_radial_3987_23485" cx="0" cy="0" r="1" gradientTransform="matrix(3.25232 0 0 1.29925 10.078 12.938)" gradientUnits="userSpaceOnUse"><stop offset=".254" stop-color="#8C5EA8"/><stop offset="1" stop-color="#8C5EA8" stop-opacity="0"/></radialGradient><radialGradient id="paint41_radial_3987_23485" cx="0" cy="0" r="1" gradientTransform="rotate(158.559 7.971 6.041) scale(1.11134 1.23837)" gradientUnits="userSpaceOnUse"><stop stop-color="#9A766D"/><stop offset="1" stop-color="#9A766D" stop-opacity="0"/></radialGradient><radialGradient id="paint42_radial_3987_23485" cx="0" cy="0" r="1" gradientTransform="matrix(1.6898 -1.43023 1.27508 1.50649 7.41 14.012)" gradientUnits="userSpaceOnUse"><stop offset=".717" stop-color="#744954"/><stop offset="1" stop-color="#754060"/></radialGradient><radialGradient id="paint43_radial_3987_23485" cx="0" cy="0" r="1" gradientTransform="rotate(-169.577 4.854 6.554) scale(1.33255 2.06198)" gradientUnits="userSpaceOnUse"><stop offset=".68" stop-color="#84615F" stop-opacity="0"/><stop offset="1" stop-color="#84615F"/></radialGradient><radialGradient id="paint44_radial_3987_23485" cx="0" cy="0" r="1" gradientTransform="matrix(5.5 -1.4375 2.00475 7.67032 17.377 14.688)" gradientUnits="userSpaceOnUse"><stop offset=".625" stop-color="#AFA6A9" stop-opacity="0"/><stop offset=".905" stop-color="#AFA6A9"/></radialGradient><radialGradient id="paint45_radial_3987_23485" cx="0" cy="0" r="1" gradientTransform="rotate(-49.422 19.58 -1.011) scale(1.68837 1.40322)" gradientUnits="userSpaceOnUse"><stop offset=".717" stop-color="#744954"/><stop offset="1" stop-color="#754060"/></radialGradient><radialGradient id="paint46_radial_3987_23485" cx="0" cy="0" r="1" gradientTransform="rotate(-167.973 4.888 6.752) scale(.83427 1.78585)" gradientUnits="userSpaceOnUse"><stop offset=".68" stop-color="#84615F" stop-opacity="0"/><stop offset="1" stop-color="#84615F"/></radialGradient><radialGradient id="paint47_radial_3987_23485" cx="0" cy="0" r="1" gradientTransform="matrix(.85938 -1.30715 1.07141 .7044 8.029 14.731)" gradientUnits="userSpaceOnUse"><stop offset=".717" stop-color="#744954"/><stop offset="1" stop-color="#754060"/></radialGradient><radialGradient id="paint48_radial_3987_23485" cx="0" cy="0" r="1" gradientTransform="matrix(-.75 -.07813 .17332 -1.6638 8.598 14.53)" gradientUnits="userSpaceOnUse"><stop offset=".68" stop-color="#84615F" stop-opacity="0"/><stop offset="1" stop-color="#84615F"/></radialGradient><radialGradient id="paint49_radial_3987_23485" cx="0" cy="0" r="1" gradientTransform="matrix(.65578 .46889 -.36794 .5146 10.845 7.612)" gradientUnits="userSpaceOnUse"><stop offset=".391" stop-color="#785C53"/><stop offset="1" stop-color="#704A44"/></radialGradient><radialGradient id="paint50_radial_3987_23485" cx="0" cy="0" r="1" gradientTransform="matrix(3.13238 -1.097 1.13776 3.24877 11.59 7.746)" gradientUnits="userSpaceOnUse"><stop offset=".164" stop-color="#75554D"/><stop offset="1" stop-color="#73474C"/></radialGradient><radialGradient id="paint51_radial_3987_23485" cx="0" cy="0" r="1" gradientTransform="matrix(1.07319 1.58285 -1.27725 .86598 13.15 5)" gradientUnits="userSpaceOnUse"><stop stop-color="#5A3342"/><stop offset="1" stop-color="#69484B" stop-opacity="0"/></radialGradient><radialGradient id="paint53_radial_3987_23485" cx="0" cy="0" r="1" gradientTransform="rotate(110.683 6.362 7.703) scale(2.63956 3.80648)" gradientUnits="userSpaceOnUse"><stop offset=".094" stop-color="#2B2427"/><stop offset="1" stop-color="#1D0F22"/></radialGradient><radialGradient id="paint54_radial_3987_23485" cx="0" cy="0" r="1" gradientTransform="rotate(-138.43 8.263 .41) scale(.75616 .4904)" gradientUnits="userSpaceOnUse"><stop stop-color="#8E726C"/><stop offset="1" stop-color="#765051"/></radialGradient><radialGradient id="paint57_radial_3987_23485" cx="0" cy="0" r="1" gradientTransform="matrix(.19066 -.08394 .492 1.11754 13.481 6.346)" gradientUnits="userSpaceOnUse"><stop stop-color="#564975"/><stop offset="1" stop-color="#4D3A6E" stop-opacity="0"/></radialGradient><radialGradient id="paint58_radial_3987_23485" cx="0" cy="0" r="1" gradientTransform="rotate(66.287 3.604 10.784) scale(2.38242 2.8002)" gradientUnits="userSpaceOnUse"><stop offset=".045" stop-color="#4FBDFF"/><stop offset=".919" stop-color="#52ABE4"/></radialGradient><radialGradient id="paint59_radial_3987_23485" cx="0" cy="0" r="1" gradientTransform="matrix(-.28253 -.62323 1.5982 -.7245 12.494 4.919)" gradientUnits="userSpaceOnUse"><stop offset=".218" stop-color="#4B89D0"/><stop offset="1" stop-color="#337BCD"/></radialGradient><linearGradient id="paint0_linear_3987_23485" x1="9.65" x2="27.955" y1="21.037" y2="8.847" gradientUnits="userSpaceOnUse"><stop stop-color="#37C173"/><stop offset="1" stop-color="#36C571"/></linearGradient><linearGradient id="paint1_linear_3987_23485" x1="29.363" x2="25.903" y1="12.025" y2="14.439" gradientUnits="userSpaceOnUse"><stop offset=".164" stop-color="#4CDD80"/><stop offset="1" stop-color="#36C871" stop-opacity="0"/></linearGradient><linearGradient id="paint2_linear_3987_23485" x1="21.156" x2="24.898" y1="7.037" y2="4.945" gradientUnits="userSpaceOnUse"><stop stop-color="#D7CFDF"/><stop offset="1" stop-color="#E2DCE7"/></linearGradient><linearGradient id="paint6_linear_3987_23485" x1="9.283" x2="3.252" y1="21.313" y2="28.344" gradientUnits="userSpaceOnUse"><stop stop-color="#302A5B"/><stop offset="1" stop-color="#302A5B" stop-opacity="0"/></linearGradient><linearGradient id="paint7_linear_3987_23485" x1="17.752" x2="18.721" y1="20.516" y2="19.51" gradientUnits="userSpaceOnUse"><stop offset=".573" stop-color="#6E3848"/><stop offset="1" stop-color="#7E5C56"/></linearGradient><linearGradient id="paint8_linear_3987_23485" x1="22.268" x2="17.674" y1="22.084" y2="21.625" gradientUnits="userSpaceOnUse"><stop offset=".891" stop-color="#615F76" stop-opacity="0"/><stop offset="1" stop-color="#615F76"/></linearGradient><linearGradient id="paint10_linear_3987_23485" x1="11.549" x2="10.674" y1="14.906" y2="14.625" gradientUnits="userSpaceOnUse"><stop stop-color="#BFA8C7"/><stop offset="1" stop-color="#908590"/></linearGradient><linearGradient id="paint12_linear_3987_23485" x1="9.783" x2="8.502" y1="19.86" y2="19.375" gradientUnits="userSpaceOnUse"><stop offset=".146" stop-color="#D4385B"/><stop offset="1" stop-color="#973C50"/></linearGradient><linearGradient id="paint14_linear_3987_23485" x1="13.002" x2="13.393" y1="21.906" y2="21.406" gradientUnits="userSpaceOnUse"><stop stop-color="#96275E"/><stop offset="1" stop-color="#96275E" stop-opacity="0"/><stop offset="1" stop-color="#9C2649" stop-opacity="0"/></linearGradient><linearGradient id="paint16_linear_3987_23485" x1="20.049" x2="27.804" y1="27.417" y2="24.977" gradientUnits="userSpaceOnUse"><stop stop-color="#352542"/><stop offset="1" stop-color="#352542" stop-opacity="0"/></linearGradient><linearGradient id="paint17_linear_3987_23485" x1="23.83" x2="22.768" y1="21.844" y2="22.594" gradientUnits="userSpaceOnUse"><stop stop-color="#FD5A60"/><stop offset="1" stop-color="#AF253C"/></linearGradient><linearGradient id="paint18_linear_3987_23485" x1="19.627" x2="18.612" y1="20.617" y2="20.469" gradientUnits="userSpaceOnUse"><stop stop-color="#E5435F"/><stop offset="1" stop-color="#A62F2F"/></linearGradient><linearGradient id="paint24_linear_3987_23485" x1="14.565" x2="14.987" y1="14.875" y2="15.563" gradientUnits="userSpaceOnUse"><stop stop-color="#6C4D43"/><stop offset="1" stop-color="#6C4D43" stop-opacity="0"/></linearGradient><linearGradient id="paint26_linear_3987_23485" x1="16.635" x2="17.002" y1="13.742" y2="14.273" gradientUnits="userSpaceOnUse"><stop stop-color="#72696B"/><stop offset="1" stop-color="#72696B" stop-opacity="0"/></linearGradient><linearGradient id="paint27_linear_3987_23485" x1="25.346" x2="16.682" y1="24.977" y2="24.977" gradientUnits="userSpaceOnUse"><stop stop-color="#F7B14E"/><stop offset="1" stop-color="#E8774D"/></linearGradient><linearGradient id="paint31_linear_3987_23485" x1="17.479" x2="16.721" y1="24.844" y2="24.844" gradientUnits="userSpaceOnUse"><stop stop-color="#605C92"/><stop offset="1" stop-color="#605C92" stop-opacity="0"/></linearGradient><linearGradient id="paint33_linear_3987_23485" x1="15.565" x2="13.96" y1="9.375" y2="9.305" gradientUnits="userSpaceOnUse"><stop stop-color="#8B695A"/><stop offset="1" stop-color="#603041"/></linearGradient><linearGradient id="paint52_linear_3987_23485" x1="11.192" x2="11.434" y1="7.108" y2="6.97" gradientUnits="userSpaceOnUse"><stop offset=".242" stop-color="#5F5451"/><stop offset=".667" stop-color="#383838"/></linearGradient><linearGradient id="paint55_linear_3987_23485" x1="13.848" x2="13.424" y1="6.54" y2="6.747" gradientUnits="userSpaceOnUse"><stop stop-color="#37234C"/><stop offset="1" stop-color="#37234C" stop-opacity="0"/></linearGradient><linearGradient id="paint56_linear_3987_23485" x1="13.665" x2="14.198" y1="8.354" y2="8.047" gradientUnits="userSpaceOnUse"><stop offset=".324" stop-color="#72687C"/><stop offset="1" stop-color="#72687C" stop-opacity="0"/></linearGradient><filter id="filter0_i_3987_23485" width="28.938" height="27.87" x="2.031" y="3.093" color-interpolation-filters="sRGB" filterUnits="userSpaceOnUse"><feFlood flood-opacity="0" result="BackgroundImageFix"/><feBlend in="SourceGraphic" in2="BackgroundImageFix" result="shape"/><feColorMatrix in="SourceAlpha" result="hardAlpha" values="0 0 0 0 0 0 0 0 0 0 0 0 0 0 0 0 0 0 127 0"/><feOffset dx="1" dy="1"/><feGaussianBlur stdDeviation="1"/><feComposite in2="hardAlpha" k2="-1" k3="1" operator="arithmetic"/><feColorMatrix values="0 0 0 0 0.219608 0 0 0 0 0.658824 0 0 0 0 0.352941 0 0 0 1 0"/><feBlend in2="shape" result="effect1_innerShadow_3987_23485"/></filter><filter id="filter1_i_3987_23485" width="8.378" height="5.198" x="17.771" y="3.093" color-interpolation-filters="sRGB" filterUnits="userSpaceOnUse"><feFlood flood-opacity="0" result="BackgroundImageFix"/><feBlend in="SourceGraphic" in2="BackgroundImageFix" result="shape"/><feColorMatrix in="SourceAlpha" result="hardAlpha" values="0 0 0 0 0 0 0 0 0 0 0 0 0 0 0 0 0 0 127 0"/><feOffset dx=".25" dy=".5"/><feGaussianBlur stdDeviation=".375"/><feComposite in2="hardAlpha" k2="-1" k3="1" operator="arithmetic"/><feColorMatrix values="0 0 0 0 0.705882 0 0 0 0 0.705882 0 0 0 0 0.709804 0 0 0 1 0"/><feBlend in2="shape" result="effect1_innerShadow_3987_23485"/></filter><filter id="filter2_i_3987_23485" width="27.922" height="3.388" x="2.047" y="26.791" color-interpolation-filters="sRGB" filterUnits="userSpaceOnUse"><feFlood flood-opacity="0" result="BackgroundImageFix"/><feBlend in="SourceGraphic" in2="BackgroundImageFix" result="shape"/><feColorMatrix in="SourceAlpha" result="hardAlpha" values="0 0 0 0 0 0 0 0 0 0 0 0 0 0 0 0 0 0 127 0"/><feOffset dy=".2"/><feGaussianBlur stdDeviation=".5"/><feComposite in2="hardAlpha" k2="-1" k3="1" operator="arithmetic"/><feColorMatrix values="0 0 0 0 0.47451 0 0 0 0 0.258824 0 0 0 0 0.25098 0 0 0 1 0"/><feBlend in2="shape" result="effect1_innerShadow_3987_23485"/></filter><filter id="filter3_i_3987_23485" width="9.938" height="9.938" x="2.104" y="20.008" color-interpolation-filters="sRGB" filterUnits="userSpaceOnUse"><feFlood flood-opacity="0" result="BackgroundImageFix"/><feBlend in="SourceGraphic" in2="BackgroundImageFix" result="shape"/><feColorMatrix in="SourceAlpha" result="hardAlpha" values="0 0 0 0 0 0 0 0 0 0 0 0 0 0 0 0 0 0 127 0"/><feOffset/><feGaussianBlur stdDeviation=".25"/><feComposite in2="hardAlpha" k2="-1" k3="1" operator="arithmetic"/><feColorMatrix values="0 0 0 0 0.227451 0 0 0 0 0.156863 0 0 0 0 0.27451 0 0 0 1 0"/><feBlend in2="shape" result="effect1_innerShadow_3987_23485"/></filter><filter id="filter4_f_3987_23485" width="10.409" height="10.409" x="1.868" y="19.772" color-interpolation-filters="sRGB" filterUnits="userSpaceOnUse"><feFlood flood-opacity="0" result="BackgroundImageFix"/><feBlend in="SourceGraphic" in2="BackgroundImageFix" result="shape"/><feGaussianBlur result="effect1_foregroundBlur_3987_23485" stdDeviation=".25"/></filter><filter id="filter5_i_3987_23485" width="10.037" height="10.037" x="20.049" y="19.908" color-interpolation-filters="sRGB" filterUnits="userSpaceOnUse"><feFlood flood-opacity="0" result="BackgroundImageFix"/><feBlend in="SourceGraphic" in2="BackgroundImageFix" result="shape"/><feColorMatrix in="SourceAlpha" result="hardAlpha" values="0 0 0 0 0 0 0 0 0 0 0 0 0 0 0 0 0 0 127 0"/><feOffset dx=".1" dy="-.1"/><feGaussianBlur stdDeviation=".2"/><feComposite in2="hardAlpha" k2="-1" k3="1" operator="arithmetic"/><feColorMatrix values="0 0 0 0 0.152941 0 0 0 0 0.0862745 0 0 0 0 0.164706 0 0 0 1 0"/><feBlend in2="shape" result="effect1_innerShadow_3987_23485"/></filter><filter id="filter6_ii_3987_23485" width="9.188" height="4.077" x="16.682" y="22.863" color-interpolation-filters="sRGB" filterUnits="userSpaceOnUse"><feFlood flood-opacity="0" result="BackgroundImageFix"/><feBlend in="SourceGraphic" in2="BackgroundImageFix" result="shape"/><feColorMatrix in="SourceAlpha" result="hardAlpha" values="0 0 0 0 0 0 0 0 0 0 0 0 0 0 0 0 0 0 127 0"/><feOffset dx=".25" dy="-.25"/><feGaussianBlur stdDeviation=".25"/><feComposite in2="hardAlpha" k2="-1" k3="1" operator="arithmetic"/><feColorMatrix values="0 0 0 0 0.701961 0 0 0 0 0.341176 0 0 0 0 0.254902 0 0 0 1 0"/><feBlend in2="shape" result="effect1_innerShadow_3987_23485"/><feColorMatrix in="SourceAlpha" result="hardAlpha" values="0 0 0 0 0 0 0 0 0 0 0 0 0 0 0 0 0 0 127 0"/><feOffset dx=".25" dy=".1"/><feGaussianBlur stdDeviation=".25"/><feComposite in2="hardAlpha" k2="-1" k3="1" operator="arithmetic"/><feColorMatrix values="0 0 0 0 0.894118 0 0 0 0 0.490196 0 0 0 0 0.196078 0 0 0 1 0"/><feBlend in2="effect1_innerShadow_3987_23485" result="effect2_innerShadow_3987_23485"/></filter><filter id="filter7_i_3987_23485" width="4.034" height="2.181" x="13.544" y="23.076" color-interpolation-filters="sRGB" filterUnits="userSpaceOnUse"><feFlood flood-opacity="0" result="BackgroundImageFix"/><feBlend in="SourceGraphic" in2="BackgroundImageFix" result="shape"/><feColorMatrix in="SourceAlpha" result="hardAlpha" values="0 0 0 0 0 0 0 0 0 0 0 0 0 0 0 0 0 0 127 0"/><feOffset dx=".1" dy="-.15"/><feGaussianBlur stdDeviation=".125"/><feComposite in2="hardAlpha" k2="-1" k3="1" operator="arithmetic"/><feColorMatrix values="0 0 0 0 0.27451 0 0 0 0 0.188235 0 0 0 0 0.52549 0 0 0 1 0"/><feBlend in2="shape" result="effect1_innerShadow_3987_23485"/></filter><filter id="filter8_i_3987_23485" width="3.572" height="8.62" x="15.217" y="15.486" color-interpolation-filters="sRGB" filterUnits="userSpaceOnUse"><feFlood flood-opacity="0" result="BackgroundImageFix"/><feBlend in="SourceGraphic" in2="BackgroundImageFix" result="shape"/><feColorMatrix in="SourceAlpha" result="hardAlpha" values="0 0 0 0 0 0 0 0 0 0 0 0 0 0 0 0 0 0 127 0"/><feOffset dx=".1" dy=".2"/><feGaussianBlur stdDeviation=".1"/><feComposite in2="hardAlpha" k2="-1" k3="1" operator="arithmetic"/><feColorMatrix values="0 0 0 0 0.541176 0 0 0 0 0.384314 0 0 0 0 0.356863 0 0 0 1 0"/><feBlend in2="shape" result="effect1_innerShadow_3987_23485"/></filter><filter id="filter9_i_3987_23485" width="6.668" height="7.67" x="16.596" y="10.352" color-interpolation-filters="sRGB" filterUnits="userSpaceOnUse"><feFlood flood-opacity="0" result="BackgroundImageFix"/><feBlend in="SourceGraphic" in2="BackgroundImageFix" result="shape"/><feColorMatrix in="SourceAlpha" result="hardAlpha" values="0 0 0 0 0 0 0 0 0 0 0 0 0 0 0 0 0 0 127 0"/><feOffset dx=".25" dy="-.25"/><feGaussianBlur stdDeviation=".625"/><feComposite in2="hardAlpha" k2="-1" k3="1" operator="arithmetic"/><feColorMatrix values="0 0 0 0 0.482353 0 0 0 0 0.360784 0 0 0 0 0.556863 0 0 0 1 0"/><feBlend in2="shape" result="effect1_innerShadow_3987_23485"/></filter><filter id="filter10_i_3987_23485" width="7.971" height="5.869" x="15.054" y="7.256" color-interpolation-filters="sRGB" filterUnits="userSpaceOnUse"><feFlood flood-opacity="0" result="BackgroundImageFix"/><feBlend in="SourceGraphic" in2="BackgroundImageFix" result="shape"/><feColorMatrix in="SourceAlpha" result="hardAlpha" values="0 0 0 0 0 0 0 0 0 0 0 0 0 0 0 0 0 0 127 0"/><feOffset dx="1"/><feGaussianBlur stdDeviation=".75"/><feComposite in2="hardAlpha" k2="-1" k3="1" operator="arithmetic"/><feColorMatrix values="0 0 0 0 0.301961 0 0 0 0 0.243137 0 0 0 0 0.466667 0 0 0 1 0"/><feBlend in2="shape" result="effect1_innerShadow_3987_23485"/></filter><filter id="filter11_i_3987_23485" width="6.005" height="4.259" x="6.951" y="11.034" color-interpolation-filters="sRGB" filterUnits="userSpaceOnUse"><feFlood flood-opacity="0" result="BackgroundImageFix"/><feBlend in="SourceGraphic" in2="BackgroundImageFix" result="shape"/><feColorMatrix in="SourceAlpha" result="hardAlpha" values="0 0 0 0 0 0 0 0 0 0 0 0 0 0 0 0 0 0 127 0"/><feOffset dx="-.25"/><feGaussianBlur stdDeviation=".5"/><feComposite in2="hardAlpha" k2="-1" k3="1" operator="arithmetic"/><feColorMatrix values="0 0 0 0 0.576471 0 0 0 0 0.505882 0 0 0 0 0.529412 0 0 0 1 0"/><feBlend in2="shape" result="effect1_innerShadow_3987_23485"/></filter><filter id="filter12_i_3987_23485" width="3.137" height="2.915" x="6.951" y="12.629" color-interpolation-filters="sRGB" filterUnits="userSpaceOnUse"><feFlood flood-opacity="0" result="BackgroundImageFix"/><feBlend in="SourceGraphic" in2="BackgroundImageFix" result="shape"/><feColorMatrix in="SourceAlpha" result="hardAlpha" values="0 0 0 0 0 0 0 0 0 0 0 0 0 0 0 0 0 0 127 0"/><feOffset dx="-.25" dy=".25"/><feGaussianBlur stdDeviation=".25"/><feComposite in2="hardAlpha" k2="-1" k3="1" operator="arithmetic"/><feColorMatrix values="0 0 0 0 0.164706 0 0 0 0 0.117647 0 0 0 0 0.231373 0 0 0 1 0"/><feBlend in2="shape" result="effect1_innerShadow_3987_23485"/></filter><filter id="filter13_i_3987_23485" width="10.272" height="6.937" x="7.828" y="7.591" color-interpolation-filters="sRGB" filterUnits="userSpaceOnUse"><feFlood flood-opacity="0" result="BackgroundImageFix"/><feBlend in="SourceGraphic" in2="BackgroundImageFix" result="shape"/><feColorMatrix in="SourceAlpha" result="hardAlpha" values="0 0 0 0 0 0 0 0 0 0 0 0 0 0 0 0 0 0 127 0"/><feOffset dx=".5" dy="-.5"/><feGaussianBlur stdDeviation=".375"/><feComposite in2="hardAlpha" k2="-1" k3="1" operator="arithmetic"/><feColorMatrix values="0 0 0 0 0.478431 0 0 0 0 0.266667 0 0 0 0 0.415686 0 0 0 1 0"/><feBlend in2="shape" result="effect1_innerShadow_3987_23485"/></filter><filter id="filter14_f_3987_23485" width="5.496" height="6.372" x="17.742" y="10.775" color-interpolation-filters="sRGB" filterUnits="userSpaceOnUse"><feFlood flood-opacity="0" result="BackgroundImageFix"/><feBlend in="SourceGraphic" in2="BackgroundImageFix" result="shape"/><feGaussianBlur result="effect1_foregroundBlur_3987_23485" stdDeviation=".3"/></filter><filter id="filter15_f_3987_23485" width="2.969" height="2.969" x="7.756" y="11.939" color-interpolation-filters="sRGB" filterUnits="userSpaceOnUse"><feFlood flood-opacity="0" result="BackgroundImageFix"/><feBlend in="SourceGraphic" in2="BackgroundImageFix" result="shape"/><feGaussianBlur result="effect1_foregroundBlur_3987_23485" stdDeviation=".3"/></filter><filter id="filter16_ii_3987_23485" width="5.817" height="5.29" x="10.128" y="4.357" color-interpolation-filters="sRGB" filterUnits="userSpaceOnUse"><feFlood flood-opacity="0" result="BackgroundImageFix"/><feBlend in="SourceGraphic" in2="BackgroundImageFix" result="shape"/><feColorMatrix in="SourceAlpha" result="hardAlpha" values="0 0 0 0 0 0 0 0 0 0 0 0 0 0 0 0 0 0 127 0"/><feOffset dx="-.25" dy="-.25"/><feGaussianBlur stdDeviation=".25"/><feComposite in2="hardAlpha" k2="-1" k3="1" operator="arithmetic"/><feColorMatrix values="0 0 0 0 0.427451 0 0 0 0 0.258824 0 0 0 0 0.396078 0 0 0 1 0"/><feBlend in2="shape" result="effect1_innerShadow_3987_23485"/><feColorMatrix in="SourceAlpha" result="hardAlpha" values="0 0 0 0 0 0 0 0 0 0 0 0 0 0 0 0 0 0 127 0"/><feOffset dx=".25" dy=".15"/><feGaussianBlur stdDeviation=".15"/><feComposite in2="hardAlpha" k2="-1" k3="1" operator="arithmetic"/><feColorMatrix values="0 0 0 0 0.541176 0 0 0 0 0.396078 0 0 0 0 0.360784 0 0 0 1 0"/><feBlend in2="effect1_innerShadow_3987_23485" result="effect2_innerShadow_3987_23485"/></filter><filter id="filter17_i_3987_23485" width="4.482" height="3.796" x="12.935" y="3.962" color-interpolation-filters="sRGB" filterUnits="userSpaceOnUse"><feFlood flood-opacity="0" result="BackgroundImageFix"/><feBlend in="SourceGraphic" in2="BackgroundImageFix" result="shape"/><feColorMatrix in="SourceAlpha" result="hardAlpha" values="0 0 0 0 0 0 0 0 0 0 0 0 0 0 0 0 0 0 127 0"/><feOffset dx=".15" dy="-.2"/><feGaussianBlur stdDeviation=".3"/><feComposite in2="hardAlpha" k2="-1" k3="1" operator="arithmetic"/><feColorMatrix values="0 0 0 0 0.141176 0 0 0 0 0.0666667 0 0 0 0 0.196078 0 0 0 1 0"/><feBlend in2="shape" result="effect1_innerShadow_3987_23485"/></filter><filter id="filter18_i_3987_23485" width="5.945" height="5" x="9.382" y="1.782" color-interpolation-filters="sRGB" filterUnits="userSpaceOnUse"><feFlood flood-opacity="0" result="BackgroundImageFix"/><feBlend in="SourceGraphic" in2="BackgroundImageFix" result="shape"/><feColorMatrix in="SourceAlpha" result="hardAlpha" values="0 0 0 0 0 0 0 0 0 0 0 0 0 0 0 0 0 0 127 0"/><feOffset dy="-.15"/><feGaussianBlur stdDeviation=".3"/><feComposite in2="hardAlpha" k2="-1" k3="1" operator="arithmetic"/><feColorMatrix values="0 0 0 0 0.305882 0 0 0 0 0.556863 0 0 0 0 0.882353 0 0 0 1 0"/><feBlend in2="shape" result="effect1_innerShadow_3987_23485"/></filter><filter id="filter19_i_3987_23485" width="2.02" height="1.343" x="11.338" y="3.939" color-interpolation-filters="sRGB" filterUnits="userSpaceOnUse"><feFlood flood-opacity="0" result="BackgroundImageFix"/><feBlend in="SourceGraphic" in2="BackgroundImageFix" result="shape"/><feColorMatrix in="SourceAlpha" result="hardAlpha" values="0 0 0 0 0 0 0 0 0 0 0 0 0 0 0 0 0 0 127 0"/><feOffset/><feGaussianBlur stdDeviation=".25"/><feComposite in2="hardAlpha" k2="-1" k3="1" operator="arithmetic"/><feColorMatrix values="0 0 0 0 0.137255 0 0 0 0 0.482353 0 0 0 0 0.796078 0 0 0 1 0"/><feBlend in2="shape" result="effect1_innerShadow_3987_23485"/></filter></defs></svg>