<svg xmlns="http://www.w3.org/2000/svg" width="32" height="32" fill="none" viewBox="0 0 32 32"><path fill="url(#paint0_linear_18590_1741)" d="M2.195 16.375c0-1.69 1.38-3.06 3.06-3.06h21.85c1.69 0 3.06 1.38 3.06 3.06 0 1.69-1.38 3.06-3.06 3.06H5.255c-1.68 0-3.06-1.38-3.06-3.06Z"/><path fill="url(#paint1_linear_18590_1741)" d="M2.195 16.375c0-1.69 1.38-3.06 3.06-3.06h21.85c1.69 0 3.06 1.38 3.06 3.06 0 1.69-1.38 3.06-3.06 3.06H5.255c-1.68 0-3.06-1.38-3.06-3.06Z"/><path fill="url(#paint2_linear_18590_1741)" d="M2.195 16.375c0-1.69 1.38-3.06 3.06-3.06h21.85c1.69 0 3.06 1.38 3.06 3.06 0 1.69-1.38 3.06-3.06 3.06H5.255c-1.68 0-3.06-1.38-3.06-3.06Z"/><path fill="url(#paint3_linear_18590_1741)" d="M2.195 16.375c0-1.69 1.38-3.06 3.06-3.06h21.85c1.69 0 3.06 1.38 3.06 3.06 0 1.69-1.38 3.06-3.06 3.06H5.255c-1.68 0-3.06-1.38-3.06-3.06Z"/><path fill="url(#paint4_radial_18590_1741)" d="M2.195 16.375c0-1.69 1.38-3.06 3.06-3.06h21.85c1.69 0 3.06 1.38 3.06 3.06 0 1.69-1.38 3.06-3.06 3.06H5.255c-1.68 0-3.06-1.38-3.06-3.06Z"/><g filter="url(#filter0_f_18590_1741)"><path fill="#544B5D" d="M5.239 14.145h23.366v2.23H5.239z"/></g><circle cx="16.18" cy="7.385" r="4.003" fill="url(#paint5_radial_18590_1741)"/><circle cx="16.18" cy="7.385" r="4.003" fill="url(#paint6_radial_18590_1741)"/><circle cx="16.18" cy="25.365" r="4.003" fill="url(#paint7_radial_18590_1741)"/><circle cx="16.18" cy="25.365" r="4.003" fill="url(#paint8_radial_18590_1741)"/><circle cx="16.18" cy="25.365" r="4.003" fill="url(#paint9_radial_18590_1741)"/><defs><radialGradient id="paint4_radial_18590_1741" cx="0" cy="0" r="1" gradientTransform="matrix(-3.08506 0 0 -3.69195 28.881 14.803)" gradientUnits="userSpaceOnUse"><stop stop-color="#6C6573"/><stop offset="1" stop-color="#6C6673" stop-opacity="0"/><stop offset="1" stop-color="#796E85" stop-opacity="0"/><stop offset="1" stop-color="#6C6573" stop-opacity="0"/></radialGradient><radialGradient id="paint5_radial_18590_1741" cx="0" cy="0" r="1" gradientTransform="rotate(144.107 8.117 6.085) scale(4.7446)" gradientUnits="userSpaceOnUse"><stop stop-color="#7E718B"/><stop offset="1" stop-color="#462F5D"/></radialGradient><radialGradient id="paint6_radial_18590_1741" cx="0" cy="0" r="1" gradientTransform="rotate(180 9.45 3.693) scale(6.7223)" gradientUnits="userSpaceOnUse"><stop offset=".731" stop-color="#494252" stop-opacity="0"/><stop offset="1" stop-color="#494252"/></radialGradient><radialGradient id="paint7_radial_18590_1741" cx="0" cy="0" r="1" gradientTransform="rotate(139.901 4.708 15.45) scale(3.4968)" gradientUnits="userSpaceOnUse"><stop stop-color="#7E718B"/><stop offset="1" stop-color="#3B2E48"/></radialGradient><radialGradient id="paint8_radial_18590_1741" cx="0" cy="0" r="1" gradientTransform="rotate(90 -3.377 19.14) scale(6.85084)" gradientUnits="userSpaceOnUse"><stop offset=".881" stop-color="#5E4177" stop-opacity="0"/><stop offset="1" stop-color="#5E4177"/></radialGradient><radialGradient id="paint9_radial_18590_1741" cx="0" cy="0" r="1" gradientTransform="matrix(0 -3.76101 4.26376 0 16.18 29.368)" gradientUnits="userSpaceOnUse"><stop stop-color="#44285B"/><stop offset="1" stop-color="#44285B" stop-opacity="0"/></radialGradient><linearGradient id="paint0_linear_18590_1741" x1="16.18" x2="16.18" y1="13.315" y2="19.435" gradientUnits="userSpaceOnUse"><stop stop-color="#564764"/><stop offset="1" stop-color="#45315A"/></linearGradient><linearGradient id="paint1_linear_18590_1741" x1="2.195" x2="5.441" y1="16.375" y2="16.375" gradientUnits="userSpaceOnUse"><stop offset=".314" stop-color="#342D3C"/><stop offset="1" stop-color="#342D3C" stop-opacity="0"/></linearGradient><linearGradient id="paint2_linear_18590_1741" x1="18.065" x2="18.058" y1="19.435" y2="16.977" gradientUnits="userSpaceOnUse"><stop stop-color="#3A2250"/><stop offset="1" stop-color="#3A2250" stop-opacity="0"/></linearGradient><linearGradient id="paint3_linear_18590_1741" x1="16.946" x2="16.946" y1="12.78" y2="15.865" gradientUnits="userSpaceOnUse"><stop offset=".525" stop-color="#3B2E47"/><stop offset="1" stop-color="#3B2E47" stop-opacity="0"/></linearGradient><filter id="filter0_f_18590_1741" width="26.366" height="5.23" x="3.739" y="12.645" color-interpolation-filters="sRGB" filterUnits="userSpaceOnUse"><feFlood flood-opacity="0" result="BackgroundImageFix"/><feBlend in="SourceGraphic" in2="BackgroundImageFix" result="shape"/><feGaussianBlur result="effect1_foregroundBlur_18590_1741" stdDeviation=".75"/></filter></defs></svg>