<svg xmlns="http://www.w3.org/2000/svg" width="32" height="32" fill="none" viewBox="0 0 32 32"><path fill="url(#paint0_radial_3987_23077)" d="M14.713 7.747h1.744v2h-1.744z" transform="rotate(39.16 14.713 7.747)"/><path fill="url(#paint1_radial_3987_23077)" d="M18.232 8.104c-.081-.147-.066-.412-.047-.504l-.445 1.02c.14.073.378.138.515-.032.098-.121.079-.3-.023-.484Z"/><g filter="url(#filter0_i_3987_23077)"><path fill="url(#paint2_radial_3987_23077)" d="M15.931 9.708c-.914-.453-1.535-1.234-1.71-1.617l.662-1.592a1.205 1.205 0 0 1 1.034-.738l1.656-.11c.13-.009.263-.003.372.066.288.183.576.645.369 1.476-.229 1.08-.501 1.743-.749 2.226-.177.345-.533.572-.916.506a3.145 3.145 0 0 1-.718-.217Z"/><path fill="url(#paint3_radial_3987_23077)" d="M15.931 9.708c-.914-.453-1.535-1.234-1.71-1.617l.662-1.592a1.205 1.205 0 0 1 1.034-.738l1.656-.11c.13-.009.263-.003.372.066.288.183.576.645.369 1.476-.229 1.08-.501 1.743-.749 2.226-.177.345-.533.572-.916.506a3.145 3.145 0 0 1-.718-.217Z"/><path fill="url(#paint4_radial_3987_23077)" d="M15.931 9.708c-.914-.453-1.535-1.234-1.71-1.617l.662-1.592a1.205 1.205 0 0 1 1.034-.738l1.656-.11c.13-.009.263-.003.372.066.288.183.576.645.369 1.476-.229 1.08-.501 1.743-.749 2.226-.177.345-.533.572-.916.506a3.145 3.145 0 0 1-.718-.217Z"/></g><path fill="#86004C" fill-rule="evenodd" d="M16.98 8.513a.1.1 0 0 1 .132.05c.032.07.15.243.339.324a.1.1 0 0 1-.079.183.917.917 0 0 1-.442-.425.1.1 0 0 1 .05-.132Z" clip-rule="evenodd"/><g filter="url(#filter1_i_3987_23077)"><path fill="#323232" fill-rule="evenodd" d="M17.866 6.991a.724.724 0 0 0-.488-.027.1.1 0 0 1-.066-.19.922.922 0 0 1 .637.036.1.1 0 1 1-.083.181Z" clip-rule="evenodd"/></g><g filter="url(#filter2_i_3987_23077)"><path fill="#7355BD" d="M11.168 10.615c-1.006 1.232-1.414 2.668-1.594 3.274l3.992 1.25c.125-1.024.75-2.72 1.172-3.375.422-.657.489-.871.555-1.348.066-.477-.256-1.194-1.336-1.395-.844-.156-1.854.45-2.789 1.594Z"/><path fill="url(#paint5_radial_3987_23077)" d="M11.168 10.615c-1.006 1.232-1.414 2.668-1.594 3.274l3.992 1.25c.125-1.024.75-2.72 1.172-3.375.422-.657.489-.871.555-1.348.066-.477-.256-1.194-1.336-1.395-.844-.156-1.854.45-2.789 1.594Z"/></g><path fill="url(#paint6_radial_3987_23077)" d="M9.598 13.771c-.243.895-.204 1.762-.11 2.024l6.309-.063-6.2-1.96Z"/><path fill="url(#paint7_linear_3987_23077)" d="m5.232 17.027 21.725-.021v6.25l-18.008-.117-3.717-6.112Z"/><path fill="url(#paint8_linear_3987_23077)" d="m5.232 17.027 21.725-.021v6.25l-18.008-.117-3.717-6.112Z"/><path fill="url(#paint9_radial_3987_23077)" d="m5.232 17.027 21.725-.021v6.25l-18.008-.117-3.717-6.112Z"/><path fill="url(#paint10_radial_3987_23077)" d="m5.232 17.027 21.725-.021v6.25l-18.008-.117-3.717-6.112Z"/><g filter="url(#filter3_i_3987_23077)"><path fill="url(#paint11_radial_3987_23077)" d="M3.504 20.99c-.775-.425-1.254-.422-1.445-.422v5.938H29.94v-5.938c-1.562 0-2.214 1.157-3.53 1.157-1.317 0-2.188-1.157-3.548-1.157-1.117 0-2.242 1.157-3.508 1.157-.972 0-2.203-1.157-3.39-1.157-1.258 0-2.262 1.157-3.399 1.157-.558 0-.836-.102-1.539-.438s-1.324-.703-1.98-.703c-.654 0-1.311.333-1.88.622l-.007.003c-.57.289-1.031.516-1.656.516s-1.031-.204-2-.735Z"/><path fill="url(#paint12_radial_3987_23077)" d="M3.504 20.99c-.775-.425-1.254-.422-1.445-.422v5.938H29.94v-5.938c-1.562 0-2.214 1.157-3.53 1.157-1.317 0-2.188-1.157-3.548-1.157-1.117 0-2.242 1.157-3.508 1.157-.972 0-2.203-1.157-3.39-1.157-1.258 0-2.262 1.157-3.399 1.157-.558 0-.836-.102-1.539-.438s-1.324-.703-1.98-.703c-.654 0-1.311.333-1.88.622l-.007.003c-.57.289-1.031.516-1.656.516s-1.031-.204-2-.735Z"/><path fill="url(#paint13_radial_3987_23077)" d="M3.504 20.99c-.775-.425-1.254-.422-1.445-.422v5.938H29.94v-5.938c-1.562 0-2.214 1.157-3.53 1.157-1.317 0-2.188-1.157-3.548-1.157-1.117 0-2.242 1.157-3.508 1.157-.972 0-2.203-1.157-3.39-1.157-1.258 0-2.262 1.157-3.399 1.157-.558 0-.836-.102-1.539-.438s-1.324-.703-1.98-.703c-.654 0-1.311.333-1.88.622l-.007.003c-.57.289-1.031.516-1.656.516s-1.031-.204-2-.735Z"/></g><g filter="url(#filter4_i_3987_23077)"><rect width="23.859" height="2.191" x="4.086" y="15.569" fill="url(#paint14_linear_3987_23077)" rx="1.095"/><rect width="23.859" height="2.191" x="4.086" y="15.569" fill="url(#paint15_radial_3987_23077)" rx="1.095"/><rect width="23.859" height="2.191" x="4.086" y="15.569" fill="url(#paint16_radial_3987_23077)" rx="1.095"/><rect width="23.859" height="2.191" x="4.086" y="15.569" fill="url(#paint17_radial_3987_23077)" rx="1.095"/></g><rect width="1.28" height=".637" x="19.523" y="13.105" fill="url(#paint18_radial_3987_23077)" rx=".318" transform="rotate(-21.787 19.523 13.105)"/><path fill="url(#paint19_radial_3987_23077)" d="M21.334 12.32a.59.59 0 0 1 .829.84l-8.439 8.331a.59.59 0 0 1-.829-.839l8.44-8.331Z"/><path fill="url(#paint20_linear_3987_23077)" d="M21.334 12.32a.59.59 0 0 1 .829.84l-8.439 8.331a.59.59 0 0 1-.829-.839l8.44-8.331Z"/><path fill="url(#paint21_linear_3987_23077)" d="M21.334 12.32a.59.59 0 0 1 .829.84l-8.439 8.331a.59.59 0 0 1-.829-.839l8.44-8.331Z"/><g filter="url(#filter5_i_3987_23077)"><path fill="url(#paint22_radial_3987_23077)" d="M11.366 20.37a1.917 1.917 0 1 1 2.712 2.71l-2.468 2.469a1.917 1.917 0 0 1-2.712-2.71l2.468-2.47Z"/></g><g filter="url(#filter6_i_3987_23077)"><path fill="url(#paint23_linear_3987_23077)" d="M3.504 24.49c-.775-.425-1.254-.422-1.445-.422v5.938H29.94v-5.938c-1.562 0-2.214 1.157-3.53 1.157-1.317 0-2.188-1.157-3.548-1.157-1.117 0-2.242 1.157-3.508 1.157-.972 0-2.203-1.157-3.39-1.157-1.258 0-2.262 1.157-3.399 1.157-.558 0-.836-.102-1.539-.438s-1.324-.703-1.98-.703c-.654 0-1.311.333-1.88.622l-.007.003c-.57.289-1.031.516-1.656.516s-1.031-.204-2-.735Z"/><path fill="url(#paint24_radial_3987_23077)" d="M3.504 24.49c-.775-.425-1.254-.422-1.445-.422v5.938H29.94v-5.938c-1.562 0-2.214 1.157-3.53 1.157-1.317 0-2.188-1.157-3.548-1.157-1.117 0-2.242 1.157-3.508 1.157-.972 0-2.203-1.157-3.39-1.157-1.258 0-2.262 1.157-3.399 1.157-.558 0-.836-.102-1.539-.438s-1.324-.703-1.98-.703c-.654 0-1.311.333-1.88.622l-.007.003c-.57.289-1.031.516-1.656.516s-1.031-.204-2-.735Z"/><path fill="url(#paint25_linear_3987_23077)" d="M3.504 24.49c-.775-.425-1.254-.422-1.445-.422v5.938H29.94v-5.938c-1.562 0-2.214 1.157-3.53 1.157-1.317 0-2.188-1.157-3.548-1.157-1.117 0-2.242 1.157-3.508 1.157-.972 0-2.203-1.157-3.39-1.157-1.258 0-2.262 1.157-3.399 1.157-.558 0-.836-.102-1.539-.438s-1.324-.703-1.98-.703c-.654 0-1.311.333-1.88.622l-.007.003c-.57.289-1.031.516-1.656.516s-1.031-.204-2-.735Z"/></g><g filter="url(#filter7_i_3987_23077)"><path fill="#F2C6AF" d="M16.504 13.826c-.713-.331-1.443-.966-1.719-1.242l1.281-1.191c1.157 1.109 2.375 1.278 2.684 1.351.395.094 1.538.3 2.168.73.516.352.379.993.07 1.266-.254.225-.675.336-1.011.203-.336-.133-.559-.27-1.227-.398a9.9 9.9 0 0 1-2.246-.719Z"/><path fill="url(#paint26_radial_3987_23077)" d="M16.504 13.826c-.713-.331-1.443-.966-1.719-1.242l1.281-1.191c1.157 1.109 2.375 1.278 2.684 1.351.395.094 1.538.3 2.168.73.516.352.379.993.07 1.266-.254.225-.675.336-1.011.203-.336-.133-.559-.27-1.227-.398a9.9 9.9 0 0 1-2.246-.719Z"/></g><g filter="url(#filter8_f_3987_23077)"><path stroke="url(#paint27_linear_3987_23077)" stroke-width=".4" d="M15.43 11.767c.291.349.889.87 1.804 1.164 1.438.46 1.734.516 2.36.727"/></g><g filter="url(#filter9_i_3987_23077)"><path fill="url(#paint28_radial_3987_23077)" d="M13.004 11.115c.6.719 1.333 1.555 1.625 1.883l1.656-1.484c-.33-.396-1.117-1.303-1.617-1.766-.625-.578-1.27-.191-1.469 0-.172.166-.672.688-.195 1.367Z"/></g><path fill="url(#paint29_radial_3987_23077)" d="m16.914 7.522.116.063.57-.29c-.28-.16-.543-.126-.722.026-.068.057-.042.16.036.201Z"/><path fill="#fff" d="M17.645 7.825c.048.012.099-.027.124-.083l.003-.01c.066-.246-.096-.437-.295-.49-.189-.051-.434.03-.5.277l-.003.01c-.015.059.01.118.066.133l.605.163Z"/><path fill="url(#paint30_radial_3987_23077)" d="M17.72 7.845c.02-.037.038-.063.051-.113.048-.177-.02-.354-.169-.394-.138-.037-.296.08-.343.257a.515.515 0 0 0-.012.123l.473.127Z"/><path fill="url(#paint31_radial_3987_23077)" d="M17.641 7.823c.03-.034.05-.07.061-.11.027-.098-.019-.205-.097-.226-.08-.022-.17.039-.198.147a.271.271 0 0 0-.002.126l.236.063Z"/><path fill="#fff" d="M17.545 7.453c.016-.037.07-.049.119-.027.049.022.075.07.059.106-.017.037-.07.049-.119.027-.049-.022-.075-.07-.059-.106Z"/><g filter="url(#filter10_i_3987_23077)"><path fill="url(#paint32_radial_3987_23077)" d="M13.6 6.827c.332-.227.418-.442.515-1.094.219-1.094.542-1.306.969-1.547.449-.254 1.195-.187 1.703.196.558.42.668.34 1.348.363.722.023.972.496.988.91.015.414-.207.98-.934 1.031-.834.058-.875-.687-1.574-.531-.596.133-.727 1.316-.976 1.797-.159.305-.3 1.013-1.165 1.21-.921.212-1.68-.562-1.554-1.327.1-.613.382-.805.68-1.008Z"/><path fill="url(#paint33_radial_3987_23077)" d="M13.6 6.827c.332-.227.418-.442.515-1.094.219-1.094.542-1.306.969-1.547.449-.254 1.195-.187 1.703.196.558.42.668.34 1.348.363.722.023.972.496.988.91.015.414-.207.98-.934 1.031-.834.058-.875-.687-1.574-.531-.596.133-.727 1.316-.976 1.797-.159.305-.3 1.013-1.165 1.21-.921.212-1.68-.562-1.554-1.327.1-.613.382-.805.68-1.008Z"/></g><defs><radialGradient id="paint0_radial_3987_23077" cx="0" cy="0" r="1" gradientTransform="rotate(112.51 5.302 9.677) scale(1.02069 1.88161)" gradientUnits="userSpaceOnUse"><stop offset=".142" stop-color="#AF866A"/><stop offset="1" stop-color="#BC8C78"/></radialGradient><radialGradient id="paint1_radial_3987_23077" cx="0" cy="0" r="1" gradientTransform="rotate(109.376 6.247 10.543) scale(.62401 .57809)" gradientUnits="userSpaceOnUse"><stop offset=".463" stop-color="#F4C8B2"/><stop offset="1" stop-color="#E7B89F"/></radialGradient><radialGradient id="paint2_radial_3987_23077" cx="0" cy="0" r="1" gradientTransform="rotate(161.861 8.17 5.3) scale(2.84448 2.94485)" gradientUnits="userSpaceOnUse"><stop offset=".176" stop-color="#FAC4B1"/><stop offset="1" stop-color="#EEA894"/></radialGradient><radialGradient id="paint3_radial_3987_23077" cx="0" cy="0" r="1" gradientTransform="matrix(-.1836 .58984 -.6149 -.19139 17.34 7.65)" gradientUnits="userSpaceOnUse"><stop stop-color="#FFD5BE"/><stop offset="1" stop-color="#FFD5BE" stop-opacity="0"/></radialGradient><radialGradient id="paint4_radial_3987_23077" cx="0" cy="0" r="1" gradientTransform="matrix(-.60106 2 -1.01904 -.30625 16.903 6.142)" gradientUnits="userSpaceOnUse"><stop offset=".128" stop-color="#FFD5BE"/><stop offset="1" stop-color="#FFD5BE" stop-opacity="0"/></radialGradient><radialGradient id="paint5_radial_3987_23077" cx="0" cy="0" r="1" gradientTransform="matrix(1.3125 4.15625 -2.18414 .68973 13.8 11.693)" gradientUnits="userSpaceOnUse"><stop offset=".08" stop-color="#57399F"/><stop offset="1" stop-color="#57399F" stop-opacity="0"/></radialGradient><radialGradient id="paint6_radial_3987_23077" cx="0" cy="0" r="1" gradientTransform="rotate(15.117 -49.285 48.675) scale(4.82315 2.16799)" gradientUnits="userSpaceOnUse"><stop offset=".396" stop-color="#8D8695"/><stop offset=".77" stop-color="#697167"/></radialGradient><radialGradient id="paint9_radial_3987_23077" cx="0" cy="0" r="1" gradientTransform="matrix(5.5625 -6.21875 2.25745 2.01923 13.145 22.068)" gradientUnits="userSpaceOnUse"><stop stop-color="#659941"/><stop offset="1" stop-color="#79AF4C" stop-opacity="0"/></radialGradient><radialGradient id="paint10_radial_3987_23077" cx="0" cy="0" r="1" gradientTransform="matrix(-2.15625 -1.84376 1.36973 -1.60188 11.332 21.975)" gradientUnits="userSpaceOnUse"><stop stop-color="#528C3F"/><stop offset="1" stop-color="#528C3F" stop-opacity="0"/></radialGradient><radialGradient id="paint11_radial_3987_23077" cx="0" cy="0" r="1" gradientTransform="rotate(133.063 7.211 15.112) scale(9.15342 18.4848)" gradientUnits="userSpaceOnUse"><stop stop-color="#379FE9"/><stop offset="1" stop-color="#3691DF"/></radialGradient><radialGradient id="paint12_radial_3987_23077" cx="0" cy="0" r="1" gradientTransform="rotate(-133.468 9.901 10.428) scale(4.13363 7.33334)" gradientUnits="userSpaceOnUse"><stop stop-color="#286EC5"/><stop offset="1" stop-color="#286EC5" stop-opacity="0"/></radialGradient><radialGradient id="paint13_radial_3987_23077" cx="0" cy="0" r="1" gradientTransform="matrix(-4.875 .37502 -1.76114 -22.89326 31.55 23.162)" gradientUnits="userSpaceOnUse"><stop offset=".288" stop-color="#38A7FB"/><stop offset="1" stop-color="#38A7FB" stop-opacity="0"/></radialGradient><radialGradient id="paint15_radial_3987_23077" cx="0" cy="0" r="1" gradientTransform="matrix(-1.28125 0 0 -1 27.55 16.193)" gradientUnits="userSpaceOnUse"><stop stop-color="#78BB7D"/><stop offset="1" stop-color="#78BB7D" stop-opacity="0"/></radialGradient><radialGradient id="paint16_radial_3987_23077" cx="0" cy="0" r="1" gradientTransform="matrix(16.1875 0 0 .71644 4.27 16.664)" gradientUnits="userSpaceOnUse"><stop stop-color="#7CAF55"/><stop offset="1" stop-color="#7CAF55" stop-opacity="0"/></radialGradient><radialGradient id="paint17_radial_3987_23077" cx="0" cy="0" r="1" gradientTransform="matrix(0 .8125 -9.78125 0 17.957 16.443)" gradientUnits="userSpaceOnUse"><stop stop-color="#70A762"/><stop offset="1" stop-color="#70A762" stop-opacity="0"/></radialGradient><radialGradient id="paint18_radial_3987_23077" cx="0" cy="0" r="1" gradientTransform="matrix(.6797 -.01657 .00353 .14487 20.018 13.366)" gradientUnits="userSpaceOnUse"><stop stop-color="#E2B79D"/><stop offset="1" stop-color="#D9AD92"/></radialGradient><radialGradient id="paint19_radial_3987_23077" cx="0" cy="0" r="1" gradientTransform="rotate(135.21 8.304 10.792) scale(12.0651 1.31103)" gradientUnits="userSpaceOnUse"><stop offset=".236" stop-color="#FECCA0"/><stop offset="1" stop-color="#DA9C63"/></radialGradient><radialGradient id="paint22_radial_3987_23077" cx="0" cy="0" r="1" gradientTransform="matrix(-3.55739 3.43749 -2.0246 -2.09522 14.64 21.006)" gradientUnits="userSpaceOnUse"><stop stop-color="#FBC998"/><stop offset="1" stop-color="#E9B37E"/></radialGradient><radialGradient id="paint24_radial_3987_23077" cx="0" cy="0" r="1" gradientTransform="matrix(-3.09375 0 0 -12.375 30.176 28.975)" gradientUnits="userSpaceOnUse"><stop stop-color="#65DEFF"/><stop offset="1" stop-color="#5DC9FF" stop-opacity="0"/></radialGradient><radialGradient id="paint26_radial_3987_23077" cx="0" cy="0" r="1" gradientTransform="matrix(.60937 -.29688 .16254 .33364 20.747 13.954)" gradientUnits="userSpaceOnUse"><stop stop-color="#F7CFBD"/><stop offset="1" stop-color="#F7CFBD" stop-opacity="0"/></radialGradient><radialGradient id="paint28_radial_3987_23077" cx="0" cy="0" r="1" gradientTransform="matrix(2.15625 2.4375 -1.4473 1.28031 15.176 10.193)" gradientUnits="userSpaceOnUse"><stop offset=".049" stop-color="#9178D3"/><stop offset="1" stop-color="#7151BE"/></radialGradient><radialGradient id="paint29_radial_3987_23077" cx="0" cy="0" r="1" gradientTransform="matrix(-.36061 .26664 -.28066 -.37957 17.457 7.314)" gradientUnits="userSpaceOnUse"><stop stop-color="#3D3D3D"/><stop offset="1" stop-color="#191919"/></radialGradient><radialGradient id="paint30_radial_3987_23077" cx="0" cy="0" r="1" gradientTransform="matrix(.12683 -.48047 .53901 .14229 17.543 7.803)" gradientUnits="userSpaceOnUse"><stop offset=".626" stop-color="#6B4841"/><stop offset="1" stop-color="#A38C84"/></radialGradient><radialGradient id="paint31_radial_3987_23077" cx="0" cy="0" r="1" gradientTransform="matrix(.07385 .26172 -.25328 .07147 17.49 7.537)" gradientUnits="userSpaceOnUse"><stop stop-color="#3D3D3D"/><stop offset="1" stop-color="#191919"/></radialGradient><radialGradient id="paint32_radial_3987_23077" cx="0" cy="0" r="1" gradientTransform="rotate(163.724 8.88 4.335) scale(5.51064 6.88411)" gradientUnits="userSpaceOnUse"><stop offset=".332" stop-color="#2F2529"/><stop offset="1" stop-color="#211B1E"/></radialGradient><radialGradient id="paint33_radial_3987_23077" cx="0" cy="0" r="1" gradientTransform="matrix(-1.35938 .17969 -.15962 -1.20756 18.854 5.36)" gradientUnits="userSpaceOnUse"><stop stop-color="#4B4748"/><stop offset="1" stop-color="#4B4748" stop-opacity="0"/></radialGradient><filter id="filter0_i_3987_23077" width="4.364" height="4.439" x="14.22" y="5.498" color-interpolation-filters="sRGB" filterUnits="userSpaceOnUse"><feFlood flood-opacity="0" result="BackgroundImageFix"/><feBlend in="SourceGraphic" in2="BackgroundImageFix" result="shape"/><feColorMatrix in="SourceAlpha" result="hardAlpha" values="0 0 0 0 0 0 0 0 0 0 0 0 0 0 0 0 0 0 127 0"/><feOffset dx=".2" dy="-.15"/><feGaussianBlur stdDeviation=".25"/><feComposite in2="hardAlpha" k2="-1" k3="1" operator="arithmetic"/><feColorMatrix values="0 0 0 0 0.756863 0 0 0 0 0.572549 0 0 0 0 0.482353 0 0 0 1 0"/><feBlend in2="shape" result="effect1_innerShadow_3987_23077"/></filter><filter id="filter1_i_3987_23077" width=".763" height=".367" x="17.245" y="6.634" color-interpolation-filters="sRGB" filterUnits="userSpaceOnUse"><feFlood flood-opacity="0" result="BackgroundImageFix"/><feBlend in="SourceGraphic" in2="BackgroundImageFix" result="shape"/><feColorMatrix in="SourceAlpha" result="hardAlpha" values="0 0 0 0 0 0 0 0 0 0 0 0 0 0 0 0 0 0 127 0"/><feOffset dy="-.1"/><feGaussianBlur stdDeviation=".05"/><feComposite in2="hardAlpha" k2="-1" k3="1" operator="arithmetic"/><feColorMatrix values="0 0 0 0 0.0470588 0 0 0 0 0.0196078 0 0 0 0 0.0745098 0 0 0 1 0"/><feBlend in2="shape" result="effect1_innerShadow_3987_23077"/></filter><filter id="filter2_i_3987_23077" width="6.377" height="6.141" x="9.574" y="8.997" color-interpolation-filters="sRGB" filterUnits="userSpaceOnUse"><feFlood flood-opacity="0" result="BackgroundImageFix"/><feBlend in="SourceGraphic" in2="BackgroundImageFix" result="shape"/><feColorMatrix in="SourceAlpha" result="hardAlpha" values="0 0 0 0 0 0 0 0 0 0 0 0 0 0 0 0 0 0 127 0"/><feOffset dx=".65"/><feGaussianBlur stdDeviation=".6"/><feComposite in2="hardAlpha" k2="-1" k3="1" operator="arithmetic"/><feColorMatrix values="0 0 0 0 0.407843 0 0 0 0 0.321569 0 0 0 0 0.666667 0 0 0 1 0"/><feBlend in2="shape" result="effect1_innerShadow_3987_23077"/></filter><filter id="filter3_i_3987_23077" width="27.983" height="6.037" x="2.059" y="20.568" color-interpolation-filters="sRGB" filterUnits="userSpaceOnUse"><feFlood flood-opacity="0" result="BackgroundImageFix"/><feBlend in="SourceGraphic" in2="BackgroundImageFix" result="shape"/><feColorMatrix in="SourceAlpha" result="hardAlpha" values="0 0 0 0 0 0 0 0 0 0 0 0 0 0 0 0 0 0 127 0"/><feOffset dx=".1" dy=".1"/><feGaussianBlur stdDeviation=".075"/><feComposite in2="hardAlpha" k2="-1" k3="1" operator="arithmetic"/><feColorMatrix values="0 0 0 0 0.180392 0 0 0 0 0.541176 0 0 0 0 0.729412 0 0 0 1 0"/><feBlend in2="shape" result="effect1_innerShadow_3987_23077"/></filter><filter id="filter4_i_3987_23077" width="24.059" height="2.191" x="3.886" y="15.569" color-interpolation-filters="sRGB" filterUnits="userSpaceOnUse"><feFlood flood-opacity="0" result="BackgroundImageFix"/><feBlend in="SourceGraphic" in2="BackgroundImageFix" result="shape"/><feColorMatrix in="SourceAlpha" result="hardAlpha" values="0 0 0 0 0 0 0 0 0 0 0 0 0 0 0 0 0 0 127 0"/><feOffset dx="-.2"/><feGaussianBlur stdDeviation=".375"/><feComposite in2="hardAlpha" k2="-1" k3="1" operator="arithmetic"/><feColorMatrix values="0 0 0 0 0.278431 0 0 0 0 0.529412 0 0 0 0 0.184314 0 0 0 1 0"/><feBlend in2="shape" result="effect1_innerShadow_3987_23077"/></filter><filter id="filter5_i_3987_23077" width="6.802" height="6.803" x="8.337" y="19.307" color-interpolation-filters="sRGB" filterUnits="userSpaceOnUse"><feFlood flood-opacity="0" result="BackgroundImageFix"/><feBlend in="SourceGraphic" in2="BackgroundImageFix" result="shape"/><feColorMatrix in="SourceAlpha" result="hardAlpha" values="0 0 0 0 0 0 0 0 0 0 0 0 0 0 0 0 0 0 127 0"/><feOffset dx=".5" dy="-.5"/><feGaussianBlur stdDeviation=".625"/><feComposite in2="hardAlpha" k2="-1" k3="1" operator="arithmetic"/><feColorMatrix values="0 0 0 0 0.776471 0 0 0 0 0.556863 0 0 0 0 0.341176 0 0 0 1 0"/><feBlend in2="shape" result="effect1_innerShadow_3987_23077"/></filter><filter id="filter6_i_3987_23077" width="27.983" height="6.037" x="1.959" y="24.068" color-interpolation-filters="sRGB" filterUnits="userSpaceOnUse"><feFlood flood-opacity="0" result="BackgroundImageFix"/><feBlend in="SourceGraphic" in2="BackgroundImageFix" result="shape"/><feColorMatrix in="SourceAlpha" result="hardAlpha" values="0 0 0 0 0 0 0 0 0 0 0 0 0 0 0 0 0 0 127 0"/><feOffset dx="-.1" dy=".1"/><feGaussianBlur stdDeviation=".2"/><feComposite in2="hardAlpha" k2="-1" k3="1" operator="arithmetic"/><feColorMatrix values="0 0 0 0 0.384314 0 0 0 0 0.843137 0 0 0 0 1 0 0 0 1 0"/><feBlend in2="shape" result="effect1_innerShadow_3987_23077"/></filter><filter id="filter7_i_3987_23077" width="6.678" height="4.108" x="14.785" y="10.893" color-interpolation-filters="sRGB" filterUnits="userSpaceOnUse"><feFlood flood-opacity="0" result="BackgroundImageFix"/><feBlend in="SourceGraphic" in2="BackgroundImageFix" result="shape"/><feColorMatrix in="SourceAlpha" result="hardAlpha" values="0 0 0 0 0 0 0 0 0 0 0 0 0 0 0 0 0 0 127 0"/><feOffset dx=".2" dy="-.5"/><feGaussianBlur stdDeviation=".4"/><feComposite in2="hardAlpha" k2="-1" k3="1" operator="arithmetic"/><feColorMatrix values="0 0 0 0 0.823529 0 0 0 0 0.623529 0 0 0 0 0.596078 0 0 0 1 0"/><feBlend in2="shape" result="effect1_innerShadow_3987_23077"/></filter><filter id="filter8_f_3987_23077" width="5.181" height="3.008" x="14.876" y="11.239" color-interpolation-filters="sRGB" filterUnits="userSpaceOnUse"><feFlood flood-opacity="0" result="BackgroundImageFix"/><feBlend in="SourceGraphic" in2="BackgroundImageFix" result="shape"/><feGaussianBlur result="effect1_foregroundBlur_3987_23077" stdDeviation=".2"/></filter><filter id="filter9_i_3987_23077" width="3.882" height="3.705" x="12.803" y="9.293" color-interpolation-filters="sRGB" filterUnits="userSpaceOnUse"><feFlood flood-opacity="0" result="BackgroundImageFix"/><feBlend in="SourceGraphic" in2="BackgroundImageFix" result="shape"/><feColorMatrix in="SourceAlpha" result="hardAlpha" values="0 0 0 0 0 0 0 0 0 0 0 0 0 0 0 0 0 0 127 0"/><feOffset dx=".4" dy="-.15"/><feGaussianBlur stdDeviation=".4"/><feComposite in2="hardAlpha" k2="-1" k3="1" operator="arithmetic"/><feColorMatrix values="0 0 0 0 0.337255 0 0 0 0 0.243137 0 0 0 0 0.611765 0 0 0 1 0"/><feBlend in2="shape" result="effect1_innerShadow_3987_23077"/></filter><filter id="filter10_i_3987_23077" width="6.317" height="5.313" x="12.906" y="3.885" color-interpolation-filters="sRGB" filterUnits="userSpaceOnUse"><feFlood flood-opacity="0" result="BackgroundImageFix"/><feBlend in="SourceGraphic" in2="BackgroundImageFix" result="shape"/><feColorMatrix in="SourceAlpha" result="hardAlpha" values="0 0 0 0 0 0 0 0 0 0 0 0 0 0 0 0 0 0 127 0"/><feOffset dx=".1" dy="-.15"/><feGaussianBlur stdDeviation=".3"/><feComposite in2="hardAlpha" k2="-1" k3="1" operator="arithmetic"/><feColorMatrix values="0 0 0 0 0.164706 0 0 0 0 0.0588235 0 0 0 0 0.0784314 0 0 0 1 0"/><feBlend in2="shape" result="effect1_innerShadow_3987_23077"/></filter><linearGradient id="paint7_linear_3987_23077" x1="25.051" x2="7.801" y1="18.912" y2="24.287" gradientUnits="userSpaceOnUse"><stop offset=".353" stop-color="#86BF45"/><stop offset="1" stop-color="#679951"/></linearGradient><linearGradient id="paint8_linear_3987_23077" x1="27.145" x2="26.441" y1="20.475" y2="20.475" gradientUnits="userSpaceOnUse"><stop stop-color="#99D852"/><stop offset="1" stop-color="#99D852" stop-opacity="0"/></linearGradient><linearGradient id="paint14_linear_3987_23077" x1="16.015" x2="16.395" y1="15.318" y2="18.85" gradientUnits="userSpaceOnUse"><stop stop-color="#79B34C"/><stop offset="1" stop-color="#4D8C4E"/></linearGradient><linearGradient id="paint20_linear_3987_23077" x1="17.168" x2="17.582" y1="16.354" y2="16.748" gradientUnits="userSpaceOnUse"><stop stop-color="#CD9157"/><stop offset="1" stop-color="#EEB683" stop-opacity="0"/></linearGradient><linearGradient id="paint21_linear_3987_23077" x1="19.52" x2="19.184" y1="16.037" y2="15.685" gradientUnits="userSpaceOnUse"><stop stop-color="#D59C7A"/><stop offset="1" stop-color="#D59C7A" stop-opacity="0"/></linearGradient><linearGradient id="paint23_linear_3987_23077" x1="18.457" x2="12.738" y1="23.443" y2="33.537" gradientUnits="userSpaceOnUse"><stop stop-color="#5FCDFF"/><stop offset="1" stop-color="#4AADFF"/></linearGradient><linearGradient id="paint25_linear_3987_23077" x1="18.02" x2="18.02" y1="30.006" y2="29.725" gradientUnits="userSpaceOnUse"><stop stop-color="#59A0FF"/><stop offset="1" stop-color="#55BEFF" stop-opacity="0"/></linearGradient><linearGradient id="paint27_linear_3987_23077" x1="15.804" x2="20.086" y1="12.298" y2="14.017" gradientUnits="userSpaceOnUse"><stop stop-color="#F7C6B6"/><stop offset="1" stop-color="#F7C6B6" stop-opacity="0"/></linearGradient></defs></svg>