<svg xmlns="http://www.w3.org/2000/svg" width="32" height="32" fill="none" viewBox="0 0 32 32"><path fill="#56436B" d="M16.485 15.494c-6.07 0-11 4.92-11 11v3.5h21.99v-3.5c0-6.08-4.92-11-10.99-11Z"/><path fill="url(#paint0_radial_4002_1590)" d="M16.485 15.494c-6.07 0-11 4.92-11 11v3.5h21.99v-3.5c0-6.08-4.92-11-10.99-11Z"/><path fill="url(#paint1_radial_4002_1590)" d="M16.485 15.494c-6.07 0-11 4.92-11 11v3.5h21.99v-3.5c0-6.08-4.92-11-10.99-11Z"/><path fill="url(#paint2_radial_4002_1590)" d="M23.5 18.093a.242.242 0 0 0-.058-.29c-1.856-1.602-4.346-2.487-6.954-2.487-2.608 0-5.113.894-6.97 2.487a.242.242 0 0 0-.06.29c1.276 2.6 3.756 4.614 7.03 4.614 3.274 0 5.73-2.014 7.013-4.614Z"/><path fill="url(#paint3_radial_4002_1590)" d="M23.5 18.093a.242.242 0 0 0-.058-.29c-1.856-1.602-4.346-2.487-6.954-2.487-2.608 0-5.113.894-6.97 2.487a.242.242 0 0 0-.06.29c1.276 2.6 3.756 4.614 7.03 4.614 3.274 0 5.73-2.014 7.013-4.614Z"/><path fill="url(#paint4_radial_4002_1590)" d="M23.5 18.093a.242.242 0 0 0-.058-.29c-1.856-1.602-4.346-2.487-6.954-2.487-2.608 0-5.113.894-6.97 2.487a.242.242 0 0 0-.06.29c1.276 2.6 3.756 4.614 7.03 4.614 3.274 0 5.73-2.014 7.013-4.614Z"/><path fill="url(#paint5_radial_4002_1590)" d="M23.5 18.093a.242.242 0 0 0-.058-.29c-1.856-1.602-4.346-2.487-6.954-2.487-2.608 0-5.113.894-6.97 2.487a.242.242 0 0 0-.06.29c1.276 2.6 3.756 4.614 7.03 4.614 3.274 0 5.73-2.014 7.013-4.614Z"/><path fill="url(#paint6_radial_4002_1590)" d="M23.5 18.093a.242.242 0 0 0-.058-.29c-1.856-1.602-4.346-2.487-6.954-2.487-2.608 0-5.113.894-6.97 2.487a.242.242 0 0 0-.06.29c1.276 2.6 3.756 4.614 7.03 4.614 3.274 0 5.73-2.014 7.013-4.614Z"/><path fill="url(#paint7_radial_4002_1590)" d="M23.5 18.093a.242.242 0 0 0-.058-.29c-1.856-1.602-4.346-2.487-6.954-2.487-2.608 0-5.113.894-6.97 2.487a.242.242 0 0 0-.06.29c1.276 2.6 3.756 4.614 7.03 4.614 3.274 0 5.73-2.014 7.013-4.614Z"/><g filter="url(#filter0_f_4002_1590)"><path stroke="#1F0F21" stroke-width=".4" d="M16.186 18.864c.063.043.17.08.28.084a.564.564 0 0 0 .28-.084c1.017-.696 1.78-1.39 1.78-2.587v-3.633c0-1.14-.92-2.06-2.06-2.06-1.14 0-2.06.92-2.06 2.06v3.633c0 1.198.763 1.891 1.78 2.587Z"/></g><path fill="url(#paint8_radial_4002_1590)" d="M16.186 18.864c.063.043.17.08.28.084a.564.564 0 0 0 .28-.084c1.017-.696 1.78-1.39 1.78-2.587v-3.633c0-1.14-.92-2.06-2.06-2.06-1.14 0-2.06.92-2.06 2.06v3.633c0 1.198.763 1.891 1.78 2.587Z"/><path fill="url(#paint9_radial_4002_1590)" d="M16.186 18.864c.063.043.17.08.28.084a.564.564 0 0 0 .28-.084c1.017-.696 1.78-1.39 1.78-2.587v-3.633c0-1.14-.92-2.06-2.06-2.06-1.14 0-2.06.92-2.06 2.06v3.633c0 1.198.763 1.891 1.78 2.587Z"/><path fill="url(#paint10_radial_4002_1590)" d="M16.186 18.864c.063.043.17.08.28.084a.564.564 0 0 0 .28-.084c1.017-.696 1.78-1.39 1.78-2.587v-3.633c0-1.14-.92-2.06-2.06-2.06-1.14 0-2.06.92-2.06 2.06v3.633c0 1.198.763 1.891 1.78 2.587Z"/><path fill="url(#paint11_linear_4002_1590)" d="M25.213 11.667V2.804h-.8v8.863h.8Z"/><path fill="url(#paint12_radial_4002_1590)" d="M25.213 11.667V2.804h-.8v8.863h.8Z"/><path fill="url(#paint13_radial_4002_1590)" d="M24.413 11.643a.837.837 0 1 0 .8 0h-.8Z"/><path fill="url(#paint14_radial_4002_1590)" d="M24.413 11.643a.837.837 0 1 0 .8 0h-.8Z"/><g filter="url(#filter1_f_4002_1590)"><path stroke="url(#paint15_linear_4002_1590)" stroke-width=".15" d="M24.916 3.708v7.767"/></g><path fill="url(#paint16_linear_4002_1590)" d="m23.96 13.604-.517 2.239a.45.45 0 0 0 .445.551h1.863a.45.45 0 0 0 .43-.557l-.542-2.24a.5.5 0 0 0-.485-.38h-.707a.5.5 0 0 0-.488.387Z"/><path fill="url(#paint17_radial_4002_1590)" d="m23.96 13.604-.517 2.239a.45.45 0 0 0 .445.551h1.863a.45.45 0 0 0 .43-.557l-.542-2.24a.5.5 0 0 0-.485-.38h-.707a.5.5 0 0 0-.488.387Z"/><path fill="url(#paint18_radial_4002_1590)" d="m23.96 13.604-.517 2.239a.45.45 0 0 0 .445.551h1.863a.45.45 0 0 0 .43-.557l-.542-2.24a.5.5 0 0 0-.485-.38h-.707a.5.5 0 0 0-.488.387Z"/><path fill="url(#paint19_linear_4002_1590)" d="m23.96 13.604-.517 2.239a.45.45 0 0 0 .445.551h1.863a.45.45 0 0 0 .43-.557l-.542-2.24a.5.5 0 0 0-.485-.38h-.707a.5.5 0 0 0-.488.387Z"/><path fill="url(#paint20_radial_4002_1590)" d="m23.96 13.604-.517 2.239a.45.45 0 0 0 .445.551h1.863a.45.45 0 0 0 .43-.557l-.542-2.24a.5.5 0 0 0-.485-.38h-.707a.5.5 0 0 0-.488.387Z"/><path fill="url(#paint21_radial_4002_1590)" d="M9.25 29.994V18.208a10.972 10.972 0 0 0-3.765 8.286v3.5H9.25Z"/><path fill="url(#paint22_radial_4002_1590)" d="M9.25 29.994V18.208a10.972 10.972 0 0 0-3.765 8.286v3.5H9.25Z"/><path fill="url(#paint23_linear_4002_1590)" d="M9.25 29.994V18.208a10.972 10.972 0 0 0-3.765 8.286v3.5H9.25Z"/><path fill="url(#paint24_radial_4002_1590)" d="M23.71 29.994V18.208a10.972 10.972 0 0 1 3.765 8.286v3.5h-3.766Z"/><path fill="url(#paint25_radial_4002_1590)" d="M23.71 29.994V18.208a10.972 10.972 0 0 1 3.765 8.286v3.5h-3.766Z"/><g filter="url(#filter2_f_4002_1590)"><path fill="url(#paint26_linear_4002_1590)" d="M12.148 23.77c0-.188.155-.34.346-.34.19 0 .345.152.345.34v6.093h-.691V23.77Z"/><path fill="url(#paint27_linear_4002_1590)" d="M16.134 23.77c0-.188.155-.34.346-.34.19 0 .346.152.346.34v6.093h-.692V23.77Z"/><path fill="url(#paint28_linear_4002_1590)" d="M20.12 23.77c0-.188.155-.34.346-.34.191 0 .346.152.346.34v6.093h-.691V23.77Z"/></g><g filter="url(#filter3_f_4002_1590)"><path stroke="url(#paint29_linear_4002_1590)" stroke-linecap="round" stroke-width=".1" d="M13.432 4.084c.024.256.246 1.214.572 1.795"/></g><g filter="url(#filter4_i_4002_1590)"><circle cx="11.633" cy="10.661" r="1.685" fill="url(#paint30_radial_4002_1590)"/></g><circle cx="11.633" cy="10.661" r="1.685" fill="url(#paint31_radial_4002_1590)"/><g filter="url(#filter5_f_4002_1590)"><circle cx="11.633" cy="10.661" r="1.004" fill="url(#paint32_linear_4002_1590)"/></g><g filter="url(#filter6_i_4002_1590)"><circle cx="21.233" cy="10.661" r="1.685" fill="url(#paint33_linear_4002_1590)"/><circle cx="21.233" cy="10.661" r="1.685" fill="url(#paint34_radial_4002_1590)"/></g><g filter="url(#filter7_f_4002_1590)"><circle cx="21.233" cy="10.661" r="1.004" fill="#A57C70"/><circle cx="21.233" cy="10.661" r="1.004" fill="url(#paint35_radial_4002_1590)"/><circle cx="21.233" cy="10.661" r="1.004" fill="url(#paint36_radial_4002_1590)"/></g><g filter="url(#filter8_i_4002_1590)"><path fill="url(#paint37_linear_4002_1590)" d="M11.277 10.042a.735.735 0 0 0 .05.002s-.054-.861-.108-1.453c0-.27.108-.592.324-.754l.163-.161c.27-.216.379-.539.379-.862v-.86c0-.27.162-.485.433-.539.65-.162 2.003-.43 3.952-.43 1.948 0 3.302.268 3.951.43.217.054.433.27.433.538v.861c0 .323.163.646.38.862.506.355.474.55.432.969a46.727 46.727 0 0 0-.108 1.453h.018l-.268 3.994c-.162 1.786-1.566 3.031-3.24 3.031h-3.24c-1.728 0-3.078-1.245-3.24-3.03l-.31-4.05Z"/><path fill="url(#paint38_radial_4002_1590)" d="M11.277 10.042a.735.735 0 0 0 .05.002s-.054-.861-.108-1.453c0-.27.108-.592.324-.754l.163-.161c.27-.216.379-.539.379-.862v-.86c0-.27.162-.485.433-.539.65-.162 2.003-.43 3.952-.43 1.948 0 3.302.268 3.951.43.217.054.433.27.433.538v.861c0 .323.163.646.38.862.506.355.474.55.432.969a46.727 46.727 0 0 0-.108 1.453h.018l-.268 3.994c-.162 1.786-1.566 3.031-3.24 3.031h-3.24c-1.728 0-3.078-1.245-3.24-3.03l-.31-4.05Z"/><path fill="url(#paint39_radial_4002_1590)" d="M11.277 10.042a.735.735 0 0 0 .05.002s-.054-.861-.108-1.453c0-.27.108-.592.324-.754l.163-.161c.27-.216.379-.539.379-.862v-.86c0-.27.162-.485.433-.539.65-.162 2.003-.43 3.952-.43 1.948 0 3.302.268 3.951.43.217.054.433.27.433.538v.861c0 .323.163.646.38.862.506.355.474.55.432.969a46.727 46.727 0 0 0-.108 1.453h.018l-.268 3.994c-.162 1.786-1.566 3.031-3.24 3.031h-3.24c-1.728 0-3.078-1.245-3.24-3.03l-.31-4.05Z"/></g><path fill="url(#paint40_linear_4002_1590)" d="M11.219 8.59c0-.268.108-.591.324-.753l.163-.161c.27-.216.379-.539.379-.862v-.86c0-.27.162-.485.433-.539.65-.162 2.003-.43 3.952-.43 1.948 0 3.302.268 3.951.43.217.054.433.27.433.538v.861c0 .323.163.646.38.862.506.355.474.55.432.969a46.727 46.727 0 0 0-.108 1.453h.018l-.268 3.994c-.162 1.786-1.566 3.031-3.24 3.031h-3.24c-1.728 0-3.078-1.245-3.24-3.03-.14-1.834-.202-3.672-.37-5.502Z"/><path fill="url(#paint41_linear_4002_1590)" d="M11.219 8.59c0-.268.108-.591.324-.753l.163-.161c.27-.216.379-.539.379-.862v-.86c0-.27.162-.485.433-.539.65-.162 2.003-.43 3.952-.43 1.948 0 3.302.268 3.951.43.217.054.433.27.433.538v.861c0 .323.163.646.38.862.506.355.474.55.432.969a46.727 46.727 0 0 0-.108 1.453h.018l-.268 3.994c-.162 1.786-1.566 3.031-3.24 3.031h-3.24c-1.728 0-3.078-1.245-3.24-3.03-.14-1.834-.202-3.672-.37-5.502Z"/><path fill="url(#paint42_radial_4002_1590)" d="M11.219 8.59c0-.268.108-.591.324-.753l.163-.161c.27-.216.379-.539.379-.862v-.86c0-.27.162-.485.433-.539.65-.162 2.003-.43 3.952-.43 1.948 0 3.302.268 3.951.43.217.054.433.27.433.538v.861c0 .323.163.646.38.862.506.355.474.55.432.969a46.727 46.727 0 0 0-.108 1.453h.018l-.268 3.994c-.162 1.786-1.566 3.031-3.24 3.031h-3.24c-1.728 0-3.078-1.245-3.24-3.03-.14-1.834-.202-3.672-.37-5.502Z"/><path fill="url(#paint43_radial_4002_1590)" d="M11.219 8.59c0-.268.108-.591.324-.753l.163-.161c.27-.216.379-.539.379-.862v-.86c0-.27.162-.485.433-.539.65-.162 2.003-.43 3.952-.43 1.948 0 3.302.268 3.951.43.217.054.433.27.433.538v.861c0 .323.163.646.38.862.506.355.474.55.432.969a46.727 46.727 0 0 0-.108 1.453h.018l-.268 3.994c-.162 1.786-1.566 3.031-3.24 3.031h-3.24c-1.728 0-3.078-1.245-3.24-3.03-.14-1.834-.202-3.672-.37-5.502Z"/><g filter="url(#filter9_f_4002_1590)"><path fill="url(#paint44_linear_4002_1590)" d="M20.727 5.62 17.62 6.654a1.057 1.057 0 0 0 .474 2.05l3.088-.414-.456-2.672Z"/></g><g filter="url(#filter10_i_4002_1590)"><path fill="#4F3332" d="m21.288 4.123.433.216c.757.376 1.19 1.238 1.028 2.153l-.595 3.068c-.053.317-.263.53-.578.538h-.018s.054-.915.108-1.453c.044-.437-.032-.57-.433-.97-.216-.215-.379-.537-.379-.86v-.862c0-.269-.216-.484-.433-.538-.65-.161-2.003-.43-3.951-.43-1.95 0-3.303.269-3.952.43a.525.525 0 0 0-.433.538v.862c0 .322-.109.645-.38.86l-.162.162c-.216.162-.324.485-.324.754.054.592.108 1.453.108 1.453a.64.64 0 0 1-.65-.538l-.595-3.068c-.109-.861.325-1.723 1.082-2.1l.434-.215c.27-.161.54-.376.811-.592l.975-1.022c.595-.539 1.461-.584 2.22-.207.54.162 1.136.045 1.678-.116.812-.27 1.732-.054 2.381.538l.813.807c.216.27.487.43.812.592Z"/><path fill="url(#paint45_radial_4002_1590)" d="m21.288 4.123.433.216c.757.376 1.19 1.238 1.028 2.153l-.595 3.068c-.053.317-.263.53-.578.538h-.018s.054-.915.108-1.453c.044-.437-.032-.57-.433-.97-.216-.215-.379-.537-.379-.86v-.862c0-.269-.216-.484-.433-.538-.65-.161-2.003-.43-3.951-.43-1.95 0-3.303.269-3.952.43a.525.525 0 0 0-.433.538v.862c0 .322-.109.645-.38.86l-.162.162c-.216.162-.324.485-.324.754.054.592.108 1.453.108 1.453a.64.64 0 0 1-.65-.538l-.595-3.068c-.109-.861.325-1.723 1.082-2.1l.434-.215c.27-.161.54-.376.811-.592l.975-1.022c.595-.539 1.461-.584 2.22-.207.54.162 1.136.045 1.678-.116.812-.27 1.732-.054 2.381.538l.813.807c.216.27.487.43.812.592Z"/><path fill="url(#paint46_radial_4002_1590)" d="m21.288 4.123.433.216c.757.376 1.19 1.238 1.028 2.153l-.595 3.068c-.053.317-.263.53-.578.538h-.018s.054-.915.108-1.453c.044-.437-.032-.57-.433-.97-.216-.215-.379-.537-.379-.86v-.862c0-.269-.216-.484-.433-.538-.65-.161-2.003-.43-3.951-.43-1.95 0-3.303.269-3.952.43a.525.525 0 0 0-.433.538v.862c0 .322-.109.645-.38.86l-.162.162c-.216.162-.324.485-.324.754.054.592.108 1.453.108 1.453a.64.64 0 0 1-.65-.538l-.595-3.068c-.109-.861.325-1.723 1.082-2.1l.434-.215c.27-.161.54-.376.811-.592l.975-1.022c.595-.539 1.461-.584 2.22-.207.54.162 1.136.045 1.678-.116.812-.27 1.732-.054 2.381.538l.813.807c.216.27.487.43.812.592Z"/><path fill="url(#paint47_radial_4002_1590)" d="m21.288 4.123.433.216c.757.376 1.19 1.238 1.028 2.153l-.595 3.068c-.053.317-.263.53-.578.538h-.018s.054-.915.108-1.453c.044-.437-.032-.57-.433-.97-.216-.215-.379-.537-.379-.86v-.862c0-.269-.216-.484-.433-.538-.65-.161-2.003-.43-3.951-.43-1.95 0-3.303.269-3.952.43a.525.525 0 0 0-.433.538v.862c0 .322-.109.645-.38.86l-.162.162c-.216.162-.324.485-.324.754.054.592.108 1.453.108 1.453a.64.64 0 0 1-.65-.538l-.595-3.068c-.109-.861.325-1.723 1.082-2.1l.434-.215c.27-.161.54-.376.811-.592l.975-1.022c.595-.539 1.461-.584 2.22-.207.54.162 1.136.045 1.678-.116.812-.27 1.732-.054 2.381.538l.813.807c.216.27.487.43.812.592Z"/><path fill="url(#paint48_radial_4002_1590)" d="m21.288 4.123.433.216c.757.376 1.19 1.238 1.028 2.153l-.595 3.068c-.053.317-.263.53-.578.538h-.018s.054-.915.108-1.453c.044-.437-.032-.57-.433-.97-.216-.215-.379-.537-.379-.86v-.862c0-.269-.216-.484-.433-.538-.65-.161-2.003-.43-3.951-.43-1.95 0-3.303.269-3.952.43a.525.525 0 0 0-.433.538v.862c0 .322-.109.645-.38.86l-.162.162c-.216.162-.324.485-.324.754.054.592.108 1.453.108 1.453a.64.64 0 0 1-.65-.538l-.595-3.068c-.109-.861.325-1.723 1.082-2.1l.434-.215c.27-.161.54-.376.811-.592l.975-1.022c.595-.539 1.461-.584 2.22-.207.54.162 1.136.045 1.678-.116.812-.27 1.732-.054 2.381.538l.813.807c.216.27.487.43.812.592Z"/></g><g filter="url(#filter11_f_4002_1590)"><path fill="#87565C" d="m16.146 10.537-.828 1.716c-.102.352.144.705.493.705h.744c.349 0 .595-.358.493-.705l-.503-1.716c-.108-.38-.286-.38-.399 0Z"/></g><g filter="url(#filter12_f_4002_1590)"><path fill="#B7877D" d="m16.038 10.373-.536 1.715a.544.544 0 0 0 .525.706h.794a.546.546 0 0 0 .525-.706l-.536-1.715c-.115-.38-.651-.38-.771 0Z"/><path fill="url(#paint49_linear_4002_1590)" d="m16.038 10.373-.536 1.715a.544.544 0 0 0 .525.706h.794a.546.546 0 0 0 .525-.706l-.536-1.715c-.115-.38-.651-.38-.771 0Z"/><path fill="url(#paint50_linear_4002_1590)" d="m16.038 10.373-.536 1.715a.544.544 0 0 0 .525.706h.794a.546.546 0 0 0 .525-.706l-.536-1.715c-.115-.38-.651-.38-.771 0Z"/><path fill="url(#paint51_linear_4002_1590)" d="m16.038 10.373-.536 1.715a.544.544 0 0 0 .525.706h.794a.546.546 0 0 0 .525-.706l-.536-1.715c-.115-.38-.651-.38-.771 0Z"/><path fill="url(#paint52_radial_4002_1590)" d="m16.038 10.373-.536 1.715a.544.544 0 0 0 .525.706h.794a.546.546 0 0 0 .525-.706l-.536-1.715c-.115-.38-.651-.38-.771 0Z"/></g><path fill="url(#paint53_linear_4002_1590)" d="m16.038 10.373-.536 1.715a.544.544 0 0 0 .525.706h.794a.546.546 0 0 0 .525-.706l-.536-1.715c-.115-.38-.651-.38-.771 0Z"/><path fill="#88024E" stroke="url(#paint54_linear_4002_1590)" stroke-width=".1" d="M15.05 13.444c.396.207.87.325 1.374.325.51 0 .978-.118 1.375-.325a.205.205 0 0 1 .243.04.19.19 0 0 1 .021.243m-3.014-.283 2.973.255m-2.973-.255a.204.204 0 0 0-.243.042.188.188 0 0 0-.02.241m.263-.283-.222.255m3.236.028-.041-.028m.041.028-.041-.028m.041.028a1.96 1.96 0 0 1-1.639.876 1.96 1.96 0 0 1-1.639-.876m3.237-.028a1.91 1.91 0 0 1-1.598.854 1.91 1.91 0 0 1-1.597-.854m-.042.028.042-.028m-.042.028.042-.028"/><g filter="url(#filter13_i_4002_1590)"><path fill="#4C3230" d="m20.178 7.916-.001-.001-.002-.002-.005-.004-.012-.01a1.43 1.43 0 0 0-.156-.108 2.606 2.606 0 0 0-.424-.213 2.859 2.859 0 0 0-1.506-.16.539.539 0 0 0 .168 1.065c.402-.064.723.01.942.097a1.533 1.533 0 0 1 .311.167.539.539 0 0 0 .685-.831Z"/><path fill="url(#paint55_radial_4002_1590)" d="m20.178 7.916-.001-.001-.002-.002-.005-.004-.012-.01a1.43 1.43 0 0 0-.156-.108 2.606 2.606 0 0 0-.424-.213 2.859 2.859 0 0 0-1.506-.16.539.539 0 0 0 .168 1.065c.402-.064.723.01.942.097a1.533 1.533 0 0 1 .311.167.539.539 0 0 0 .685-.831Z"/></g><g filter="url(#filter14_i_4002_1590)"><path fill="#4C3230" d="m12.616 7.916.001-.001.002-.002.005-.004.012-.01a1.676 1.676 0 0 1 .156-.108c.1-.063.243-.141.424-.213a2.86 2.86 0 0 1 1.506-.16.539.539 0 0 1-.168 1.065 1.782 1.782 0 0 0-.942.097 1.528 1.528 0 0 0-.311.167.539.539 0 0 1-.685-.831Z"/><path fill="url(#paint56_radial_4002_1590)" d="m12.616 7.916.001-.001.002-.002.005-.004.012-.01a1.676 1.676 0 0 1 .156-.108c.1-.063.243-.141.424-.213a2.86 2.86 0 0 1 1.506-.16.539.539 0 0 1-.168 1.065 1.782 1.782 0 0 0-.942.097 1.528 1.528 0 0 0-.311.167.539.539 0 0 1-.685-.831Z"/></g><path fill="#fff" d="M18.834 9.217a1.41 1.41 0 0 1 1.367 1.068.277.277 0 0 1-.27.344H17.68a.232.232 0 0 1-.23-.274 1.41 1.41 0 0 1 1.384-1.138Z"/><path fill="url(#paint57_radial_4002_1590)" d="M18.625 9.491a.9.9 0 0 1 .868 1.138h-1.74a.904.904 0 0 1 .872-1.138Z"/><path fill="#000" d="M18.11 10.392c0-.287.229-.516.515-.516a.514.514 0 0 1 .459.753h-.913a.467.467 0 0 1-.061-.237Z"/><g filter="url(#filter15_f_4002_1590)"><path fill="#C7A7A3" d="M18.56 9.681c.063.086-.07.19-.223.305-.153.114-.266.194-.33.108-.064-.085.007-.247.16-.361.152-.114.328-.137.392-.052Z"/><path fill="url(#paint58_radial_4002_1590)" d="M18.56 9.681c.063.086-.07.19-.223.305-.153.114-.266.194-.33.108-.064-.085.007-.247.16-.361.152-.114.328-.137.392-.052Z"/></g><g filter="url(#filter16_f_4002_1590)"><path fill="url(#paint59_linear_4002_1590)" d="M19.427 10.273a.848.848 0 0 0-.233-.467l-.262.288.118.23.377-.051Z"/></g><path fill="#fff" d="M14.01 9.217a1.41 1.41 0 0 0-1.368 1.068.277.277 0 0 0 .27.344h2.252a.232.232 0 0 0 .229-.274 1.414 1.414 0 0 0-1.384-1.138Z"/><path fill="url(#paint60_radial_4002_1590)" d="M14.218 9.491a.9.9 0 0 0-.868 1.138h1.74a.925.925 0 0 0 .033-.237.907.907 0 0 0-.905-.9Z"/><path fill="#000" d="M14.734 10.392a.514.514 0 0 0-.516-.516.514.514 0 0 0-.459.753h.913a.51.51 0 0 0 .062-.237Z"/><g filter="url(#filter17_f_4002_1590)"><path fill="url(#paint61_linear_4002_1590)" d="M15.04 10.286c0-.291-.236-.485-.3-.544l-.291.282.18.364.412-.102Z"/></g><g filter="url(#filter18_f_4002_1590)" transform="rotate(-27.914 13.946 9.876)"><ellipse cx="13.946" cy="9.876" fill="#C7A7A3" fill-opacity=".9" rx=".393" ry=".199"/><ellipse cx="13.946" cy="9.876" fill="url(#paint62_radial_4002_1590)" rx=".393" ry=".199"/></g><g filter="url(#filter19_f_4002_1590)"><path stroke="url(#paint63_linear_4002_1590)" stroke-linecap="round" stroke-width=".5" d="M18.1 7.77c.434-.076 1.28-.054 1.867.401"/></g><g filter="url(#filter20_f_4002_1590)"><path stroke="url(#paint64_linear_4002_1590)" stroke-linecap="round" stroke-width=".5" d="M12.832 8.293c.33-.292 1.052-.599 1.945-.457"/></g><g filter="url(#filter21_f_4002_1590)"><path stroke="url(#paint65_linear_4002_1590)" stroke-linecap="round" stroke-width=".25" d="M11.85 5.805v.906c-.008.15-.071.485-.26.628"/></g><g filter="url(#filter22_i_4002_1590)"><path fill="url(#paint66_radial_4002_1590)" d="m10.327 5.118 1.174-1.864 9.844-.11 1.196 1.974c-4.664 1.61-10.124.734-12.214 0Z"/><path fill="url(#paint67_radial_4002_1590)" d="m10.327 5.118 1.174-1.864 9.844-.11 1.196 1.974c-4.664 1.61-10.124.734-12.214 0Z"/></g><path fill="url(#paint68_linear_4002_1590)" d="M24.423 3.604H8.453c-.44 0-.8-.36-.8-.8 0-.44.36-.8.8-.8h15.96c.44 0 .8.36.8.8.01.44-.35.8-.79.8Z"/><path fill="url(#paint69_radial_4002_1590)" d="M24.423 3.604H8.453c-.44 0-.8-.36-.8-.8 0-.44.36-.8.8-.8h15.96c.44 0 .8.36.8.8.01.44-.35.8-.79.8Z"/><path fill="url(#paint70_radial_4002_1590)" d="M24.423 3.604H8.453c-.44 0-.8-.36-.8-.8 0-.44.36-.8.8-.8h15.96c.44 0 .8.36.8.8.01.44-.35.8-.79.8Z"/><defs><radialGradient id="paint0_radial_4002_1590" cx="0" cy="0" r="1" gradientTransform="matrix(0 10.875 -3.65625 0 23.782 23.113)" gradientUnits="userSpaceOnUse"><stop stop-color="#70647F"/><stop offset="1" stop-color="#70647F" stop-opacity="0"/></radialGradient><radialGradient id="paint1_radial_4002_1590" cx="0" cy="0" r="1" gradientTransform="matrix(1.3125 0 0 7.0625 9.188 21.457)" gradientUnits="userSpaceOnUse"><stop stop-color="#5D516A"/><stop offset="1" stop-color="#5D516A" stop-opacity="0"/></radialGradient><radialGradient id="paint2_radial_4002_1590" cx="0" cy="0" r="1" gradientTransform="matrix(0 -4.71875 13.6527 0 16.488 21.348)" gradientUnits="userSpaceOnUse"><stop stop-color="#47404D"/><stop offset="1" stop-color="#3B2D3A"/></radialGradient><radialGradient id="paint3_radial_4002_1590" cx="0" cy="0" r="1" gradientTransform="matrix(0 5.9375 -7.54205 0 16.48 16.895)" gradientUnits="userSpaceOnUse"><stop offset=".932" stop-color="#342542" stop-opacity="0"/><stop offset=".995" stop-color="#342542"/></radialGradient><radialGradient id="paint4_radial_4002_1590" cx="0" cy="0" r="1" gradientTransform="matrix(-5.88284 4.0234 -5.54695 -8.11053 16.063 15.55)" gradientUnits="userSpaceOnUse"><stop offset=".928" stop-color="#6A656F" stop-opacity="0"/><stop offset="1" stop-color="#6A656F"/></radialGradient><radialGradient id="paint5_radial_4002_1590" cx="0" cy="0" r="1" gradientTransform="matrix(6.76566 4.60934 -6.35476 9.32761 15.813 15.316)" gradientUnits="userSpaceOnUse"><stop offset=".933" stop-color="#6A656F" stop-opacity="0"/><stop offset="1" stop-color="#615B67"/></radialGradient><radialGradient id="paint6_radial_4002_1590" cx="0" cy="0" r="1" gradientTransform="matrix(0 -10.0625 10.6454 0 16.48 23.613)" gradientUnits="userSpaceOnUse"><stop offset=".506" stop-color="#57525D" stop-opacity="0"/><stop offset="1" stop-color="#57525D"/></radialGradient><radialGradient id="paint7_radial_4002_1590" cx="0" cy="0" r="1" gradientTransform="rotate(85.281 -.12 16.01) scale(4.21461 7.75523)" gradientUnits="userSpaceOnUse"><stop offset=".316" stop-color="#1C1026"/><stop offset="1" stop-color="#1C1026" stop-opacity="0"/></radialGradient><radialGradient id="paint8_radial_4002_1590" cx="0" cy="0" r="1" gradientTransform="matrix(-2.96875 -1.42188 1.19716 -2.49957 17.784 18.218)" gradientUnits="userSpaceOnUse"><stop stop-color="#976C65"/><stop offset="1" stop-color="#7E5059"/></radialGradient><radialGradient id="paint9_radial_4002_1590" cx="0" cy="0" r="1" gradientTransform="matrix(0 .9375 -2.06 0 16.466 16.984)" gradientUnits="userSpaceOnUse"><stop stop-color="#804D60"/><stop offset="1" stop-color="#804D60" stop-opacity="0"/></radialGradient><radialGradient id="paint10_radial_4002_1590" cx="0" cy="0" r="1" gradientTransform="matrix(0 4.5407 -4.26182 0 16.466 14.543)" gradientUnits="userSpaceOnUse"><stop offset=".81" stop-color="#5F4132" stop-opacity="0"/><stop offset="1" stop-color="#5F4132"/></radialGradient><radialGradient id="paint12_radial_4002_1590" cx="0" cy="0" r="1" gradientTransform="matrix(0 -2.33473 .18031 0 25.055 11.667)" gradientUnits="userSpaceOnUse"><stop stop-color="#70635D"/><stop offset="1" stop-color="#70635D" stop-opacity="0"/></radialGradient><radialGradient id="paint13_radial_4002_1590" cx="0" cy="0" r="1" gradientTransform="matrix(-.81259 1.10067 -.98646 -.72826 25.313 12.038)" gradientUnits="userSpaceOnUse"><stop stop-color="#686071"/><stop offset=".661" stop-color="#402A4C"/></radialGradient><radialGradient id="paint14_radial_4002_1590" cx="0" cy="0" r="1" gradientTransform="matrix(.79636 -.08984 .10538 .93405 23.976 12.43)" gradientUnits="userSpaceOnUse"><stop offset=".087" stop-color="#685352"/><stop offset="1" stop-color="#685352" stop-opacity="0"/></radialGradient><radialGradient id="paint17_radial_4002_1590" cx="0" cy="0" r="1" gradientTransform="rotate(169.33 12.352 8.56) scale(1.11532 5.56401)" gradientUnits="userSpaceOnUse"><stop offset=".286" stop-color="#FFD93A"/><stop offset="1" stop-color="#FFD93A" stop-opacity="0"/></radialGradient><radialGradient id="paint18_radial_4002_1590" cx="0" cy="0" r="1" gradientTransform="matrix(0 .39844 -1.38177 0 24.813 13.106)" gradientUnits="userSpaceOnUse"><stop offset=".161" stop-color="#845D03"/><stop offset="1" stop-color="#EBA429" stop-opacity="0"/></radialGradient><radialGradient id="paint20_radial_4002_1590" cx="0" cy="0" r="1" gradientTransform="matrix(0 -1.3125 2.89043 0 24.813 16.895)" gradientUnits="userSpaceOnUse"><stop offset=".422" stop-color="#A16739"/><stop offset="1" stop-color="#DB9820" stop-opacity="0"/></radialGradient><radialGradient id="paint21_radial_4002_1590" cx="0" cy="0" r="1" gradientTransform="matrix(0 -16.3734 4.36464 0 5.485 29.994)" gradientUnits="userSpaceOnUse"><stop stop-color="#766C83"/><stop offset=".441" stop-color="#58496A"/><stop offset="1" stop-color="#4D4159"/></radialGradient><radialGradient id="paint22_radial_4002_1590" cx="0" cy="0" r="1" gradientTransform="matrix(0 -10.5202 .82413 0 9.25 29.994)" gradientUnits="userSpaceOnUse"><stop offset=".286" stop-color="#4F445B"/><stop offset="1" stop-color="#4F445B" stop-opacity="0"/></radialGradient><radialGradient id="paint24_radial_4002_1590" cx="0" cy="0" r="1" gradientTransform="matrix(-1.88274 -10.19308 2.86286 -.5288 25.592 29.994)" gradientUnits="userSpaceOnUse"><stop stop-color="#736782"/><stop offset="1" stop-color="#5F5070"/></radialGradient><radialGradient id="paint25_radial_4002_1590" cx="0" cy="0" r="1" gradientTransform="matrix(.5437 12.03342 -.70276 .03175 23.541 23.155)" gradientUnits="userSpaceOnUse"><stop offset=".177" stop-color="#3F2A51"/><stop offset="1" stop-color="#3F2A51" stop-opacity="0"/></radialGradient><radialGradient id="paint30_radial_4002_1590" cx="0" cy="0" r="1" gradientTransform="matrix(1.77103 0 0 3.09932 9.948 10.66)" gradientUnits="userSpaceOnUse"><stop offset=".351" stop-color="#865D5F"/><stop offset="1" stop-color="#76594A"/></radialGradient><radialGradient id="paint31_radial_4002_1590" cx="0" cy="0" r="1" gradientTransform="rotate(-124.98 9.031 3.144) scale(1.67201)" gradientUnits="userSpaceOnUse"><stop offset=".34" stop-color="#834E63"/><stop offset="1" stop-color="#834E63" stop-opacity="0"/></radialGradient><radialGradient id="paint34_radial_4002_1590" cx="0" cy="0" r="1" gradientTransform="matrix(.83432 -.60752 .6934 .95227 21.61 10.394)" gradientUnits="userSpaceOnUse"><stop offset=".543" stop-color="#8F6459"/><stop offset="1" stop-color="#8F6459" stop-opacity="0"/></radialGradient><radialGradient id="paint35_radial_4002_1590" cx="0" cy="0" r="1" gradientTransform="matrix(.82883 -1.52445 .89227 .48512 21.192 11.49)" gradientUnits="userSpaceOnUse"><stop offset=".755" stop-color="#8A5D55" stop-opacity="0"/><stop offset=".916" stop-color="#8A5D55"/></radialGradient><radialGradient id="paint36_radial_4002_1590" cx="0" cy="0" r="1" gradientTransform="matrix(.26168 .25902 -.33391 .33734 21.233 10.66)" gradientUnits="userSpaceOnUse"><stop stop-color="#895F52"/><stop offset="1" stop-color="#895F52" stop-opacity="0"/></radialGradient><radialGradient id="paint38_radial_4002_1590" cx="0" cy="0" r="1" gradientTransform="matrix(0 -1.31912 1.62354 0 18.792 9.377)" gradientUnits="userSpaceOnUse"><stop stop-color="#AB7773"/><stop offset="1" stop-color="#AB7773" stop-opacity="0"/></radialGradient><radialGradient id="paint39_radial_4002_1590" cx="0" cy="0" r="1" gradientTransform="matrix(0 -1.38677 1.72457 0 14.192 9.513)" gradientUnits="userSpaceOnUse"><stop stop-color="#8F5D65"/><stop offset="1" stop-color="#8F5D65" stop-opacity="0"/></radialGradient><radialGradient id="paint42_radial_4002_1590" cx="0" cy="0" r="1" gradientTransform="matrix(0 8.40518 -10.4177 0 16.295 9.113)" gradientUnits="userSpaceOnUse"><stop offset=".608" stop-color="#9F6B75" stop-opacity="0"/><stop offset="1" stop-color="#7A4858"/></radialGradient><radialGradient id="paint43_radial_4002_1590" cx="0" cy="0" r="1" gradientTransform="matrix(.15662 2.53363 -7.19543 .4448 16.297 4.707)" gradientUnits="userSpaceOnUse"><stop offset=".598" stop-color="#6F4646"/><stop offset="1" stop-color="#6F4646" stop-opacity="0"/></radialGradient><radialGradient id="paint45_radial_4002_1590" cx="0" cy="0" r="1" gradientTransform="matrix(.80517 -2.98386 1.10651 .29858 20.81 6.517)" gradientUnits="userSpaceOnUse"><stop stop-color="#554042"/><stop offset="1" stop-color="#554042" stop-opacity="0"/></radialGradient><radialGradient id="paint46_radial_4002_1590" cx="0" cy="0" r="1" gradientTransform="matrix(3.86008 .35522 -.191 2.07554 19.152 4.74)" gradientUnits="userSpaceOnUse"><stop offset=".122" stop-color="#644949"/><stop offset="1" stop-color="#644949" stop-opacity="0"/></radialGradient><radialGradient id="paint47_radial_4002_1590" cx="0" cy="0" r="1" gradientTransform="matrix(0 1.69465 -2.62453 0 16.424 1.98)" gradientUnits="userSpaceOnUse"><stop stop-color="#624C49"/><stop offset="1" stop-color="#624C49" stop-opacity="0"/></radialGradient><radialGradient id="paint48_radial_4002_1590" cx="0" cy="0" r="1" gradientTransform="rotate(-36.235 18.5 -10.723) scale(3.8461 6.02558)" gradientUnits="userSpaceOnUse"><stop stop-color="#4E3C3A"/><stop offset="1" stop-color="#4E3C3A" stop-opacity="0"/></radialGradient><radialGradient id="paint52_radial_4002_1590" cx="0" cy="0" r="1" gradientTransform="matrix(0 .19871 -.63842 0 16.754 12.282)" gradientUnits="userSpaceOnUse"><stop stop-color="#C39787"/><stop offset="1" stop-color="#C39787" stop-opacity="0"/></radialGradient><radialGradient id="paint55_radial_4002_1590" cx="0" cy="0" r="1" gradientTransform="matrix(.10515 -.60883 1.80116 .31109 18.89 8.557)" gradientUnits="userSpaceOnUse"><stop stop-color="#422235"/><stop offset="1" stop-color="#422235" stop-opacity="0"/></radialGradient><radialGradient id="paint56_radial_4002_1590" cx="0" cy="0" r="1" gradientTransform="matrix(.10516 -.60883 1.80126 .31112 13.694 8.557)" gradientUnits="userSpaceOnUse"><stop stop-color="#422235"/><stop offset="1" stop-color="#422235" stop-opacity="0"/></radialGradient><radialGradient id="paint57_radial_4002_1590" cx="0" cy="0" r="1" gradientTransform="matrix(0 .8186 -1.30208 0 18.623 9.973)" gradientUnits="userSpaceOnUse"><stop offset=".802" stop-color="#7D574A"/><stop offset="1" stop-color="#694B43"/><stop offset="1" stop-color="#804D49"/><stop offset="1" stop-color="#664944"/></radialGradient><radialGradient id="paint58_radial_4002_1590" cx="0" cy="0" r="1" gradientTransform="rotate(-127.813 11.66 .524) scale(.38168 .52549)" gradientUnits="userSpaceOnUse"><stop offset=".766" stop-color="#FFE6E2" stop-opacity="0"/><stop offset=".966" stop-color="#FFE6E2"/></radialGradient><radialGradient id="paint60_radial_4002_1590" cx="0" cy="0" r="1" gradientTransform="matrix(0 .81865 -1.30215 0 14.22 9.973)" gradientUnits="userSpaceOnUse"><stop offset=".802" stop-color="#7D574A"/><stop offset="1" stop-color="#694B43"/><stop offset="1" stop-color="#804D49"/><stop offset="1" stop-color="#664944"/></radialGradient><radialGradient id="paint62_radial_4002_1590" cx="0" cy="0" r="1" gradientTransform="rotate(-90.897 11.983 -1.76) scale(.49858 .59932)" gradientUnits="userSpaceOnUse"><stop offset=".766" stop-color="#FFE6E2" stop-opacity="0"/><stop offset=".966" stop-color="#FFE6E2"/></radialGradient><radialGradient id="paint66_radial_4002_1590" cx="0" cy="0" r="1" gradientTransform="matrix(-.6666 -3.56716 3.98507 -.7447 19.009 5.878)" gradientUnits="userSpaceOnUse"><stop offset=".11" stop-color="#595260"/><stop offset="1" stop-color="#372E41"/></radialGradient><radialGradient id="paint67_radial_4002_1590" cx="0" cy="0" r="1" gradientTransform="matrix(0 1.97411 -7.12707 0 16.415 2.868)" gradientUnits="userSpaceOnUse"><stop offset=".263" stop-color="#160C20"/><stop offset="1" stop-color="#160C20" stop-opacity="0"/></radialGradient><radialGradient id="paint69_radial_4002_1590" cx="0" cy="0" r="1" gradientTransform="matrix(0 .9375 -12.6875 0 22.22 2.395)" gradientUnits="userSpaceOnUse"><stop stop-color="#696070"/><stop offset=".867" stop-color="#696070" stop-opacity="0"/></radialGradient><radialGradient id="paint70_radial_4002_1590" cx="0" cy="0" r="1" gradientTransform="matrix(7.75 0 0 .875 7.25 3.02)" gradientUnits="userSpaceOnUse"><stop stop-color="#75707B"/><stop offset=".935" stop-color="#75707B" stop-opacity="0"/></radialGradient><linearGradient id="paint11_linear_4002_1590" x1="24.17" x2="25.356" y1="8.941" y2="8.941" gradientUnits="userSpaceOnUse"><stop stop-color="#33203C"/><stop offset="1" stop-color="#61546D"/></linearGradient><linearGradient id="paint15_linear_4002_1590" x1="25.416" x2="25.416" y1="3.708" y2="11.475" gradientUnits="userSpaceOnUse"><stop stop-color="#60546C"/><stop offset="1" stop-color="#504B55"/></linearGradient><linearGradient id="paint16_linear_4002_1590" x1="25.965" x2="23.645" y1="14.806" y2="14.806" gradientUnits="userSpaceOnUse"><stop stop-color="#F9B72A"/><stop offset=".897" stop-color="#FAAC28"/></linearGradient><linearGradient id="paint19_linear_4002_1590" x1="23.764" x2="24.639" y1="14.485" y2="14.664" gradientUnits="userSpaceOnUse"><stop stop-color="#C57E10"/><stop offset="1" stop-color="#DF8F14" stop-opacity="0"/></linearGradient><linearGradient id="paint23_linear_4002_1590" x1="9.395" x2="8.969" y1="28.063" y2="28.063" gradientUnits="userSpaceOnUse"><stop offset=".444" stop-color="#433850"/><stop offset="1" stop-color="#433850" stop-opacity="0"/></linearGradient><linearGradient id="paint26_linear_4002_1590" x1="16.48" x2="16.48" y1="29.863" y2="23.43" gradientUnits="userSpaceOnUse"><stop stop-color="#3F3748"/><stop offset="1" stop-color="#3F3748" stop-opacity="0"/></linearGradient><linearGradient id="paint27_linear_4002_1590" x1="16.48" x2="16.48" y1="29.863" y2="23.43" gradientUnits="userSpaceOnUse"><stop stop-color="#3F3748"/><stop offset="1" stop-color="#3F3748" stop-opacity="0"/></linearGradient><linearGradient id="paint28_linear_4002_1590" x1="16.48" x2="16.48" y1="29.863" y2="23.43" gradientUnits="userSpaceOnUse"><stop stop-color="#3F3748"/><stop offset="1" stop-color="#3F3748" stop-opacity="0"/></linearGradient><linearGradient id="paint29_linear_4002_1590" x1="13.432" x2="14.004" y1="4.445" y2="5.782" gradientUnits="userSpaceOnUse"><stop stop-color="#FAA719"/><stop offset="1" stop-color="#DB6008"/></linearGradient><linearGradient id="paint32_linear_4002_1590" x1="11.633" x2="10.986" y1="10.942" y2="10.942" gradientUnits="userSpaceOnUse"><stop stop-color="#694448"/><stop offset="1" stop-color="#6E464D"/></linearGradient><linearGradient id="paint33_linear_4002_1590" x1="22.33" x2="21.504" y1="9.559" y2="12.119" gradientUnits="userSpaceOnUse"><stop stop-color="#CCA68C"/><stop offset="1" stop-color="#AE7F75"/></linearGradient><linearGradient id="paint37_linear_4002_1590" x1="20.497" x2="12.79" y1="11.054" y2="12.202" gradientUnits="userSpaceOnUse"><stop stop-color="#C69980"/><stop offset="1" stop-color="#916762"/></linearGradient><linearGradient id="paint40_linear_4002_1590" x1="10.979" x2="12.877" y1="13.775" y2="13.707" gradientUnits="userSpaceOnUse"><stop stop-color="#9B7569"/><stop offset="1" stop-color="#9B7569" stop-opacity="0"/></linearGradient><linearGradient id="paint41_linear_4002_1590" x1="21.39" x2="20.268" y1="12.925" y2="12.828" gradientUnits="userSpaceOnUse"><stop stop-color="#C1987F"/><stop offset="1" stop-color="#C1987F" stop-opacity="0"/></linearGradient><linearGradient id="paint44_linear_4002_1590" x1="16.19" x2="24.409" y1="8.676" y2="5.734" gradientUnits="userSpaceOnUse"><stop stop-color="#C89F8B"/><stop offset="1" stop-color="#C89F8B" stop-opacity="0"/></linearGradient><linearGradient id="paint49_linear_4002_1590" x1="15.552" x2="16.499" y1="11.719" y2="11.719" gradientUnits="userSpaceOnUse"><stop stop-color="#8B6455"/><stop offset="1" stop-color="#8B6455" stop-opacity="0"/></linearGradient><linearGradient id="paint50_linear_4002_1590" x1="17.371" x2="16.336" y1="12.045" y2="12.03" gradientUnits="userSpaceOnUse"><stop stop-color="#CDA186"/><stop offset="1" stop-color="#CDA186" stop-opacity="0"/></linearGradient><linearGradient id="paint51_linear_4002_1590" x1="16.621" x2="16.621" y1="12.794" y2="12.216" gradientUnits="userSpaceOnUse"><stop stop-color="#9C6073"/><stop offset="1" stop-color="#9C6073" stop-opacity="0"/></linearGradient><linearGradient id="paint53_linear_4002_1590" x1="16.551" x2="16.551" y1="12.836" y2="12.667" gradientUnits="userSpaceOnUse"><stop stop-color="#8E5263"/><stop offset="1" stop-color="#8E5263" stop-opacity="0"/></linearGradient><linearGradient id="paint54_linear_4002_1590" x1="15.378" x2="15.817" y1="14.424" y2="13.73" gradientUnits="userSpaceOnUse"><stop stop-color="#A87D7B"/><stop offset=".663" stop-color="#A87D7B" stop-opacity="0"/></linearGradient><linearGradient id="paint59_linear_4002_1590" x1="19.408" x2="19.092" y1="10.027" y2="10.222" gradientUnits="userSpaceOnUse"><stop stop-color="#B4948D"/><stop offset="1" stop-color="#B4948D" stop-opacity="0"/></linearGradient><linearGradient id="paint61_linear_4002_1590" x1="14.97" x2="14.654" y1="10.027" y2="10.222" gradientUnits="userSpaceOnUse"><stop stop-color="#B4948D"/><stop offset="1" stop-color="#B4948D" stop-opacity="0"/></linearGradient><linearGradient id="paint63_linear_4002_1590" x1="19.424" x2="19" y1="7.868" y2="7.001" gradientUnits="userSpaceOnUse"><stop stop-color="#5B4545"/><stop offset="1" stop-color="#5B4545" stop-opacity="0"/></linearGradient><linearGradient id="paint64_linear_4002_1590" x1="14.07" x2="12.87" y1="7.739" y2="7.235" gradientUnits="userSpaceOnUse"><stop stop-color="#5B4545"/><stop offset="1" stop-color="#5B4545" stop-opacity="0"/></linearGradient><linearGradient id="paint65_linear_4002_1590" x1="11.719" x2="11.719" y1="5.706" y2="7.882" gradientUnits="userSpaceOnUse"><stop offset=".228" stop-color="#4A3236"/><stop offset="1" stop-color="#4A3236" stop-opacity="0"/></linearGradient><linearGradient id="paint68_linear_4002_1590" x1="18.25" x2="16.969" y1="3.957" y2="-.418" gradientUnits="userSpaceOnUse"><stop stop-color="#3D294B"/><stop offset="1" stop-color="#433A4D"/></linearGradient><filter id="filter0_f_4002_1590" width="5.32" height="9.565" x="13.806" y="9.984" color-interpolation-filters="sRGB" filterUnits="userSpaceOnUse"><feFlood flood-opacity="0" result="BackgroundImageFix"/><feBlend in="SourceGraphic" in2="BackgroundImageFix" result="shape"/><feGaussianBlur result="effect1_foregroundBlur_4002_1590" stdDeviation=".2"/></filter><filter id="filter1_f_4002_1590" width=".65" height="8.268" x="24.591" y="3.458" color-interpolation-filters="sRGB" filterUnits="userSpaceOnUse"><feFlood flood-opacity="0" result="BackgroundImageFix"/><feBlend in="SourceGraphic" in2="BackgroundImageFix" result="shape"/><feGaussianBlur result="effect1_foregroundBlur_4002_1590" stdDeviation=".125"/></filter><filter id="filter2_f_4002_1590" width="8.964" height="6.734" x="11.998" y="23.28" color-interpolation-filters="sRGB" filterUnits="userSpaceOnUse"><feFlood flood-opacity="0" result="BackgroundImageFix"/><feBlend in="SourceGraphic" in2="BackgroundImageFix" result="shape"/><feGaussianBlur result="effect1_foregroundBlur_4002_1590" stdDeviation=".075"/></filter><filter id="filter3_f_4002_1590" width="1.172" height="2.394" x="13.132" y="3.785" color-interpolation-filters="sRGB" filterUnits="userSpaceOnUse"><feFlood flood-opacity="0" result="BackgroundImageFix"/><feBlend in="SourceGraphic" in2="BackgroundImageFix" result="shape"/><feGaussianBlur result="effect1_foregroundBlur_4002_1590" stdDeviation=".125"/></filter><filter id="filter4_i_4002_1590" width="3.57" height="3.37" x="9.948" y="8.976" color-interpolation-filters="sRGB" filterUnits="userSpaceOnUse"><feFlood flood-opacity="0" result="BackgroundImageFix"/><feBlend in="SourceGraphic" in2="BackgroundImageFix" result="shape"/><feColorMatrix in="SourceAlpha" result="hardAlpha" values="0 0 0 0 0 0 0 0 0 0 0 0 0 0 0 0 0 0 127 0"/><feOffset dx=".2"/><feGaussianBlur stdDeviation=".15"/><feComposite in2="hardAlpha" k2="-1" k3="1" operator="arithmetic"/><feColorMatrix values="0 0 0 0 0.619608 0 0 0 0 0.470588 0 0 0 0 0.407843 0 0 0 1 0"/><feBlend in2="shape" result="effect1_innerShadow_4002_1590"/></filter><filter id="filter5_f_4002_1590" width="3.008" height="3.008" x="10.128" y="9.157" color-interpolation-filters="sRGB" filterUnits="userSpaceOnUse"><feFlood flood-opacity="0" result="BackgroundImageFix"/><feBlend in="SourceGraphic" in2="BackgroundImageFix" result="shape"/><feGaussianBlur result="effect1_foregroundBlur_4002_1590" stdDeviation=".25"/></filter><filter id="filter6_i_4002_1590" width="3.62" height="3.62" x="19.549" y="8.726" color-interpolation-filters="sRGB" filterUnits="userSpaceOnUse"><feFlood flood-opacity="0" result="BackgroundImageFix"/><feBlend in="SourceGraphic" in2="BackgroundImageFix" result="shape"/><feColorMatrix in="SourceAlpha" result="hardAlpha" values="0 0 0 0 0 0 0 0 0 0 0 0 0 0 0 0 0 0 127 0"/><feOffset dx=".25" dy="-.25"/><feGaussianBlur stdDeviation=".25"/><feComposite in2="hardAlpha" k2="-1" k3="1" operator="arithmetic"/><feColorMatrix values="0 0 0 0 0.584314 0 0 0 0 0.368627 0 0 0 0 0.470588 0 0 0 1 0"/><feBlend in2="shape" result="effect1_innerShadow_4002_1590"/></filter><filter id="filter7_f_4002_1590" width="3.008" height="3.008" x="19.729" y="9.157" color-interpolation-filters="sRGB" filterUnits="userSpaceOnUse"><feFlood flood-opacity="0" result="BackgroundImageFix"/><feBlend in="SourceGraphic" in2="BackgroundImageFix" result="shape"/><feGaussianBlur result="effect1_foregroundBlur_4002_1590" stdDeviation=".25"/></filter><filter id="filter8_i_4002_1590" width="10.469" height="12.239" x="11.219" y="4.984" color-interpolation-filters="sRGB" filterUnits="userSpaceOnUse"><feFlood flood-opacity="0" result="BackgroundImageFix"/><feBlend in="SourceGraphic" in2="BackgroundImageFix" result="shape"/><feColorMatrix in="SourceAlpha" result="hardAlpha" values="0 0 0 0 0 0 0 0 0 0 0 0 0 0 0 0 0 0 127 0"/><feOffset dy=".1"/><feGaussianBlur stdDeviation=".1"/><feComposite in2="hardAlpha" k2="-1" k3="1" operator="arithmetic"/><feColorMatrix values="0 0 0 0 0.305882 0 0 0 0 0.2 0 0 0 0 0.172549 0 0 0 1 0"/><feBlend in2="shape" result="effect1_innerShadow_4002_1590"/></filter><filter id="filter9_f_4002_1590" width="8.285" height="7.095" x="14.898" y="3.619" color-interpolation-filters="sRGB" filterUnits="userSpaceOnUse"><feFlood flood-opacity="0" result="BackgroundImageFix"/><feBlend in="SourceGraphic" in2="BackgroundImageFix" result="shape"/><feGaussianBlur result="effect1_foregroundBlur_4002_1590" stdDeviation="1"/></filter><filter id="filter10_i_4002_1590" width="12.718" height="8.542" x="10.065" y="1.556" color-interpolation-filters="sRGB" filterUnits="userSpaceOnUse"><feFlood flood-opacity="0" result="BackgroundImageFix"/><feBlend in="SourceGraphic" in2="BackgroundImageFix" result="shape"/><feColorMatrix in="SourceAlpha" result="hardAlpha" values="0 0 0 0 0 0 0 0 0 0 0 0 0 0 0 0 0 0 127 0"/><feOffset dy="-.5"/><feGaussianBlur stdDeviation=".375"/><feComposite in2="hardAlpha" k2="-1" k3="1" operator="arithmetic"/><feColorMatrix values="0 0 0 0 0.207843 0 0 0 0 0.109804 0 0 0 0 0.109804 0 0 0 1 0"/><feBlend in2="shape" result="effect1_innerShadow_4002_1590"/></filter><filter id="filter11_f_4002_1590" width="3.276" height="4.206" x="14.545" y="9.502" color-interpolation-filters="sRGB" filterUnits="userSpaceOnUse"><feFlood flood-opacity="0" result="BackgroundImageFix"/><feBlend in="SourceGraphic" in2="BackgroundImageFix" result="shape"/><feGaussianBlur result="effect1_foregroundBlur_4002_1590" stdDeviation=".375"/></filter><filter id="filter12_f_4002_1590" width="2.394" height="3.206" x="15.227" y="9.838" color-interpolation-filters="sRGB" filterUnits="userSpaceOnUse"><feFlood flood-opacity="0" result="BackgroundImageFix"/><feBlend in="SourceGraphic" in2="BackgroundImageFix" result="shape"/><feGaussianBlur result="effect1_foregroundBlur_4002_1590" stdDeviation=".125"/></filter><filter id="filter13_i_4002_1590" width="3.005" height="1.886" x="17.617" y="6.982" color-interpolation-filters="sRGB" filterUnits="userSpaceOnUse"><feFlood flood-opacity="0" result="BackgroundImageFix"/><feBlend in="SourceGraphic" in2="BackgroundImageFix" result="shape"/><feColorMatrix in="SourceAlpha" result="hardAlpha" values="0 0 0 0 0 0 0 0 0 0 0 0 0 0 0 0 0 0 127 0"/><feOffset dx=".25" dy="-.4"/><feGaussianBlur stdDeviation=".3"/><feComposite in2="hardAlpha" k2="-1" k3="1" operator="arithmetic"/><feColorMatrix values="0 0 0 0 0.254902 0 0 0 0 0.156863 0 0 0 0 0.152941 0 0 0 1 0"/><feBlend in2="shape" result="effect1_innerShadow_4002_1590"/></filter><filter id="filter14_i_4002_1590" width="3.005" height="1.886" x="12.422" y="6.982" color-interpolation-filters="sRGB" filterUnits="userSpaceOnUse"><feFlood flood-opacity="0" result="BackgroundImageFix"/><feBlend in="SourceGraphic" in2="BackgroundImageFix" result="shape"/><feColorMatrix in="SourceAlpha" result="hardAlpha" values="0 0 0 0 0 0 0 0 0 0 0 0 0 0 0 0 0 0 127 0"/><feOffset dx=".25" dy="-.4"/><feGaussianBlur stdDeviation=".3"/><feComposite in2="hardAlpha" k2="-1" k3="1" operator="arithmetic"/><feColorMatrix values="0 0 0 0 0.254902 0 0 0 0 0.156863 0 0 0 0 0.152941 0 0 0 1 0"/><feBlend in2="shape" result="effect1_innerShadow_4002_1590"/></filter><filter id="filter15_f_4002_1590" width=".792" height=".701" x="17.883" y="9.529" color-interpolation-filters="sRGB" filterUnits="userSpaceOnUse"><feFlood flood-opacity="0" result="BackgroundImageFix"/><feBlend in="SourceGraphic" in2="BackgroundImageFix" result="shape"/><feGaussianBlur result="effect1_foregroundBlur_4002_1590" stdDeviation=".05"/></filter><filter id="filter16_f_4002_1590" width=".896" height=".918" x="18.732" y="9.606" color-interpolation-filters="sRGB" filterUnits="userSpaceOnUse"><feFlood flood-opacity="0" result="BackgroundImageFix"/><feBlend in="SourceGraphic" in2="BackgroundImageFix" result="shape"/><feGaussianBlur result="effect1_foregroundBlur_4002_1590" stdDeviation=".1"/></filter><filter id="filter17_f_4002_1590" width=".992" height="1.046" x="14.249" y="9.542" color-interpolation-filters="sRGB" filterUnits="userSpaceOnUse"><feFlood flood-opacity="0" result="BackgroundImageFix"/><feBlend in="SourceGraphic" in2="BackgroundImageFix" result="shape"/><feGaussianBlur result="effect1_foregroundBlur_4002_1590" stdDeviation=".1"/></filter><filter id="filter18_f_4002_1590" width=".919" height=".709" x="13.486" y="9.522" color-interpolation-filters="sRGB" filterUnits="userSpaceOnUse"><feFlood flood-opacity="0" result="BackgroundImageFix"/><feBlend in="SourceGraphic" in2="BackgroundImageFix" result="shape"/><feGaussianBlur result="effect1_foregroundBlur_4002_1590" stdDeviation=".05"/></filter><filter id="filter19_f_4002_1590" width="3.367" height="1.935" x="17.35" y="6.986" color-interpolation-filters="sRGB" filterUnits="userSpaceOnUse"><feFlood flood-opacity="0" result="BackgroundImageFix"/><feBlend in="SourceGraphic" in2="BackgroundImageFix" result="shape"/><feGaussianBlur result="effect1_foregroundBlur_4002_1590" stdDeviation=".25"/></filter><filter id="filter20_f_4002_1590" width="3.445" height="1.993" x="12.082" y="7.05" color-interpolation-filters="sRGB" filterUnits="userSpaceOnUse"><feFlood flood-opacity="0" result="BackgroundImageFix"/><feBlend in="SourceGraphic" in2="BackgroundImageFix" result="shape"/><feGaussianBlur result="effect1_foregroundBlur_4002_1590" stdDeviation=".25"/></filter><filter id="filter21_f_4002_1590" width="1.01" height="2.283" x="11.214" y="5.43" color-interpolation-filters="sRGB" filterUnits="userSpaceOnUse"><feFlood flood-opacity="0" result="BackgroundImageFix"/><feBlend in="SourceGraphic" in2="BackgroundImageFix" result="shape"/><feGaussianBlur result="effect1_foregroundBlur_4002_1590" stdDeviation=".125"/></filter><filter id="filter22_i_4002_1590" width="12.214" height="2.931" x="10.327" y="3.095" color-interpolation-filters="sRGB" filterUnits="userSpaceOnUse"><feFlood flood-opacity="0" result="BackgroundImageFix"/><feBlend in="SourceGraphic" in2="BackgroundImageFix" result="shape"/><feColorMatrix in="SourceAlpha" result="hardAlpha" values="0 0 0 0 0 0 0 0 0 0 0 0 0 0 0 0 0 0 127 0"/><feOffset dy="-.05"/><feGaussianBlur stdDeviation=".025"/><feComposite in2="hardAlpha" k2="-1" k3="1" operator="arithmetic"/><feColorMatrix values="0 0 0 0 0.360784 0 0 0 0 0.337255 0 0 0 0 0.372549 0 0 0 1 0"/><feBlend in2="shape" result="effect1_innerShadow_4002_1590"/></filter></defs></svg>