<svg xmlns="http://www.w3.org/2000/svg" width="32" height="32" fill="none" viewBox="0 0 32 32"><g filter="url(#filter0_i_18_16592)"><path fill="url(#paint0_linear_18_16592)" d="M28.246 7.788a2 2 0 0 0-2-2h-4.69a2 2 0 0 0-2 2v9.127a4 4 0 0 1-1.071 2.725l-2.788 2.996c-1.436 1.6-1.784 4.3-.092 5.998 1.621 1.627 4.67 1.58 6.193 0l5.067-5.314a5 5 0 0 0 1.381-3.45V7.788Z"/><path fill="url(#paint1_linear_18_16592)" d="M28.246 7.788a2 2 0 0 0-2-2h-4.69a2 2 0 0 0-2 2v9.127a4 4 0 0 1-1.071 2.725l-2.788 2.996c-1.436 1.6-1.784 4.3-.092 5.998 1.621 1.627 4.67 1.58 6.193 0l5.067-5.314a5 5 0 0 0 1.381-3.45V7.788Z"/><path fill="url(#paint2_radial_18_16592)" d="M28.246 7.788a2 2 0 0 0-2-2h-4.69a2 2 0 0 0-2 2v9.127a4 4 0 0 1-1.071 2.725l-2.788 2.996c-1.436 1.6-1.784 4.3-.092 5.998 1.621 1.627 4.67 1.58 6.193 0l5.067-5.314a5 5 0 0 0 1.381-3.45V7.788Z"/><path fill="url(#paint3_radial_18_16592)" d="M28.246 7.788a2 2 0 0 0-2-2h-4.69a2 2 0 0 0-2 2v9.127a4 4 0 0 1-1.071 2.725l-2.788 2.996c-1.436 1.6-1.784 4.3-.092 5.998 1.621 1.627 4.67 1.58 6.193 0l5.067-5.314a5 5 0 0 0 1.381-3.45V7.788Z"/><path fill="url(#paint4_linear_18_16592)" d="M28.246 7.788a2 2 0 0 0-2-2h-4.69a2 2 0 0 0-2 2v9.127a4 4 0 0 1-1.071 2.725l-2.788 2.996c-1.436 1.6-1.784 4.3-.092 5.998 1.621 1.627 4.67 1.58 6.193 0l5.067-5.314a5 5 0 0 0 1.381-3.45V7.788Z"/></g><g filter="url(#filter1_i_18_16592)"><path fill="url(#paint5_linear_18_16592)" d="M17.527 4.163a2 2 0 0 0-2-2h-4.69a2 2 0 0 0-2 2v9.127a4 4 0 0 1-1.071 2.725L4.979 19.01c-1.437 1.6-1.784 4.3-.093 5.998 1.621 1.627 4.67 1.58 6.193 0l5.067-5.314a5 5 0 0 0 1.381-3.45V4.163Z"/><path fill="url(#paint6_linear_18_16592)" d="M17.527 4.163a2 2 0 0 0-2-2h-4.69a2 2 0 0 0-2 2v9.127a4 4 0 0 1-1.071 2.725L4.979 19.01c-1.437 1.6-1.784 4.3-.093 5.998 1.621 1.627 4.67 1.58 6.193 0l5.067-5.314a5 5 0 0 0 1.381-3.45V4.163Z"/><path fill="url(#paint7_radial_18_16592)" d="M17.527 4.163a2 2 0 0 0-2-2h-4.69a2 2 0 0 0-2 2v9.127a4 4 0 0 1-1.071 2.725L4.979 19.01c-1.437 1.6-1.784 4.3-.093 5.998 1.621 1.627 4.67 1.58 6.193 0l5.067-5.314a5 5 0 0 0 1.381-3.45V4.163Z"/><path fill="url(#paint8_radial_18_16592)" d="M17.527 4.163a2 2 0 0 0-2-2h-4.69a2 2 0 0 0-2 2v9.127a4 4 0 0 1-1.071 2.725L4.979 19.01c-1.437 1.6-1.784 4.3-.093 5.998 1.621 1.627 4.67 1.58 6.193 0l5.067-5.314a5 5 0 0 0 1.381-3.45V4.163Z"/><path fill="url(#paint9_linear_18_16592)" d="M17.527 4.163a2 2 0 0 0-2-2h-4.69a2 2 0 0 0-2 2v9.127a4 4 0 0 1-1.071 2.725L4.979 19.01c-1.437 1.6-1.784 4.3-.093 5.998 1.621 1.627 4.67 1.58 6.193 0l5.067-5.314a5 5 0 0 0 1.381-3.45V4.163Z"/></g><path fill="url(#paint10_linear_18_16592)" d="M28.246 9.241h-8.69v1.078h8.69V9.24Z"/><path fill="url(#paint11_linear_18_16592)" d="M28.246 9.241h-8.69v1.078h8.69V9.24Z"/><path fill="url(#paint12_linear_18_16592)" d="M17.527 5.616h-8.69v1.078h8.69V5.616Z"/><path fill="url(#paint13_linear_18_16592)" d="M17.527 5.616h-8.69v1.078h8.69V5.616Z"/><path fill="url(#paint14_linear_18_16592)" d="M28.17 7.237c.05.175.076.36.076.551v.526h-8.69v-.526a2 2 0 0 1 .077-.551h8.536Z"/><path fill="url(#paint15_linear_18_16592)" d="M28.17 7.237c.05.175.076.36.076.551v.526h-8.69v-.526a2 2 0 0 1 .077-.551h8.536Z"/><path fill="url(#paint16_linear_18_16592)" d="M17.45 3.612a2 2 0 0 1 .077.551v.526h-8.69v-.526a2 2 0 0 1 .077-.551h8.536Z"/><path fill="url(#paint17_linear_18_16592)" d="M17.45 3.612a2 2 0 0 1 .077.551v.526h-8.69v-.526a2 2 0 0 1 .077-.551h8.536Z"/><g filter="url(#filter2_i_18_16592)"><path fill="url(#paint18_radial_18_16592)" d="M28.246 19.577h-4.985a.276.276 0 0 0-.281.272 4.097 4.097 0 0 0 3.353 4.03l.532-.559a5 5 0 0 0 1.381-3.45v-.293Z"/></g><g filter="url(#filter3_i_18_16592)"><path fill="url(#paint19_radial_18_16592)" d="M17.528 15.952h-4.985a.276.276 0 0 0-.282.272 4.097 4.097 0 0 0 3.353 4.03l.532-.559a5 5 0 0 0 1.382-3.45v-.293Z"/></g><g filter="url(#filter4_i_18_16592)"><path fill="url(#paint20_radial_18_16592)" d="M21.189 29.136v-.08a5.478 5.478 0 0 0-6.17-5.435c-.817 1.577-.793 3.628.586 5.013 1.427 1.432 3.959 1.567 5.584.502Z"/></g><g filter="url(#filter5_i_18_16592)"><path fill="url(#paint21_radial_18_16592)" d="M10.47 25.51v-.08a5.478 5.478 0 0 0-6.17-5.434c-.817 1.577-.793 3.628.586 5.013 1.427 1.432 3.959 1.567 5.584.502Z"/></g><defs><linearGradient id="paint0_linear_18_16592" x1="27.597" x2="21.108" y1="7.04" y2="26.924" gradientUnits="userSpaceOnUse"><stop stop-color="#17E65A"/><stop offset="1" stop-color="#52E3A0"/></linearGradient><linearGradient id="paint1_linear_18_16592" x1="28.246" x2="24.984" y1="18.966" y2="18.966" gradientUnits="userSpaceOnUse"><stop stop-color="#63FF88"/><stop offset="1" stop-color="#63FF88" stop-opacity="0"/></linearGradient><linearGradient id="paint4_linear_18_16592" x1="23.984" x2="22.109" y1="27.091" y2="25.154" gradientUnits="userSpaceOnUse"><stop offset=".209" stop-color="#2CD07B"/><stop offset="1" stop-color="#2FD07E" stop-opacity="0"/></linearGradient><linearGradient id="paint5_linear_18_16592" x1="16.879" x2="10.39" y1="3.415" y2="23.299" gradientUnits="userSpaceOnUse"><stop stop-color="#17E65A"/><stop offset="1" stop-color="#52E3A0"/></linearGradient><linearGradient id="paint6_linear_18_16592" x1="17.527" x2="14.265" y1="15.341" y2="15.341" gradientUnits="userSpaceOnUse"><stop stop-color="#63FF88"/><stop offset="1" stop-color="#63FF88" stop-opacity="0"/></linearGradient><linearGradient id="paint9_linear_18_16592" x1="13.265" x2="11.39" y1="23.466" y2="21.529" gradientUnits="userSpaceOnUse"><stop offset=".209" stop-color="#2CD07B"/><stop offset="1" stop-color="#2FD07E" stop-opacity="0"/></linearGradient><linearGradient id="paint10_linear_18_16592" x1="20.437" x2="27.064" y1="10.319" y2="10.319" gradientUnits="userSpaceOnUse"><stop stop-color="#E9C05F"/><stop offset="1" stop-color="#FFFD7E"/></linearGradient><linearGradient id="paint11_linear_18_16592" x1="19.556" x2="20.468" y1="10.319" y2="10.319" gradientUnits="userSpaceOnUse"><stop stop-color="#999F49"/><stop offset="1" stop-color="#CAB352" stop-opacity="0"/></linearGradient><linearGradient id="paint12_linear_18_16592" x1="9.718" x2="16.345" y1="6.694" y2="6.694" gradientUnits="userSpaceOnUse"><stop stop-color="#E9C05F"/><stop offset="1" stop-color="#FFFD7E"/></linearGradient><linearGradient id="paint13_linear_18_16592" x1="8.837" x2="9.749" y1="6.694" y2="6.694" gradientUnits="userSpaceOnUse"><stop stop-color="#999F49"/><stop offset="1" stop-color="#CAB352" stop-opacity="0"/></linearGradient><linearGradient id="paint14_linear_18_16592" x1="20.437" x2="27.064" y1="8.314" y2="8.314" gradientUnits="userSpaceOnUse"><stop stop-color="#E9C05F"/><stop offset="1" stop-color="#FFFD7E"/></linearGradient><linearGradient id="paint15_linear_18_16592" x1="19.556" x2="20.468" y1="8.314" y2="8.314" gradientUnits="userSpaceOnUse"><stop stop-color="#999F49"/><stop offset="1" stop-color="#CAB352" stop-opacity="0"/></linearGradient><linearGradient id="paint16_linear_18_16592" x1="9.718" x2="16.345" y1="4.689" y2="4.689" gradientUnits="userSpaceOnUse"><stop stop-color="#E9C05F"/><stop offset="1" stop-color="#FFFD7E"/></linearGradient><linearGradient id="paint17_linear_18_16592" x1="8.837" x2="9.749" y1="4.689" y2="4.689" gradientUnits="userSpaceOnUse"><stop stop-color="#999F49"/><stop offset="1" stop-color="#CAB352" stop-opacity="0"/></linearGradient><radialGradient id="paint2_radial_18_16592" cx="0" cy="0" r="1" gradientTransform="matrix(4.5 0 0 9.625 19.234 12.841)" gradientUnits="userSpaceOnUse"><stop stop-color="#2FB273"/><stop offset="1" stop-color="#32D274" stop-opacity="0"/></radialGradient><radialGradient id="paint3_radial_18_16592" cx="0" cy="0" r="1" gradientTransform="rotate(-44.837 40.703 -9.998) scale(3.48259 5.23375)" gradientUnits="userSpaceOnUse"><stop stop-color="#54E3A6"/><stop offset="1" stop-color="#54E3A6" stop-opacity="0"/></radialGradient><radialGradient id="paint7_radial_18_16592" cx="0" cy="0" r="1" gradientTransform="matrix(4.5 0 0 9.625 8.515 9.216)" gradientUnits="userSpaceOnUse"><stop stop-color="#2FB273"/><stop offset="1" stop-color="#32D274" stop-opacity="0"/></radialGradient><radialGradient id="paint8_radial_18_16592" cx="0" cy="0" r="1" gradientTransform="rotate(-44.837 30.95 1.18) scale(3.48259 5.23375)" gradientUnits="userSpaceOnUse"><stop stop-color="#54E3A6"/><stop offset="1" stop-color="#54E3A6" stop-opacity="0"/></radialGradient><radialGradient id="paint18_radial_18_16592" cx="0" cy="0" r="1" gradientTransform="matrix(-.68658 4.00916 -3.52349 -.6034 26.3 19.577)" gradientUnits="userSpaceOnUse"><stop offset=".147" stop-color="#5284FF"/><stop offset="1" stop-color="#3F70FF"/></radialGradient><radialGradient id="paint19_radial_18_16592" cx="0" cy="0" r="1" gradientTransform="matrix(-.68658 4.00916 -3.52349 -.6034 15.581 15.952)" gradientUnits="userSpaceOnUse"><stop offset=".147" stop-color="#5284FF"/><stop offset="1" stop-color="#3F70FF"/></radialGradient><radialGradient id="paint20_radial_18_16592" cx="0" cy="0" r="1" gradientTransform="rotate(167.471 8.742 15.1) scale(7.26438 7.73191)" gradientUnits="userSpaceOnUse"><stop offset=".268" stop-color="#4E8EFF"/><stop offset=".92" stop-color="#2364D1"/></radialGradient><radialGradient id="paint21_radial_18_16592" cx="0" cy="0" r="1" gradientTransform="rotate(167.471 3.582 12.699) scale(7.26438 7.73191)" gradientUnits="userSpaceOnUse"><stop offset=".268" stop-color="#4E8EFF"/><stop offset=".92" stop-color="#2364D1"/></radialGradient><filter id="filter0_i_18_16592" width="13.974" height="24.248" x="14.472" y="5.588" color-interpolation-filters="sRGB" filterUnits="userSpaceOnUse"><feFlood flood-opacity="0" result="BackgroundImageFix"/><feBlend in="SourceGraphic" in2="BackgroundImageFix" result="shape"/><feColorMatrix in="SourceAlpha" result="hardAlpha" values="0 0 0 0 0 0 0 0 0 0 0 0 0 0 0 0 0 0 127 0"/><feOffset dx=".2" dy="-.2"/><feGaussianBlur stdDeviation=".3"/><feComposite in2="hardAlpha" k2="-1" k3="1" operator="arithmetic"/><feColorMatrix values="0 0 0 0 0.219608 0 0 0 0 0.545098 0 0 0 0 0.392157 0 0 0 1 0"/><feBlend in2="shape" result="effect1_innerShadow_18_16592"/></filter><filter id="filter1_i_18_16592" width="13.974" height="24.248" x="3.753" y="1.963" color-interpolation-filters="sRGB" filterUnits="userSpaceOnUse"><feFlood flood-opacity="0" result="BackgroundImageFix"/><feBlend in="SourceGraphic" in2="BackgroundImageFix" result="shape"/><feColorMatrix in="SourceAlpha" result="hardAlpha" values="0 0 0 0 0 0 0 0 0 0 0 0 0 0 0 0 0 0 127 0"/><feOffset dx=".2" dy="-.2"/><feGaussianBlur stdDeviation=".3"/><feComposite in2="hardAlpha" k2="-1" k3="1" operator="arithmetic"/><feColorMatrix values="0 0 0 0 0.219608 0 0 0 0 0.545098 0 0 0 0 0.392157 0 0 0 1 0"/><feBlend in2="shape" result="effect1_innerShadow_18_16592"/></filter><filter id="filter2_i_18_16592" width="5.516" height="4.301" x="22.73" y="19.577" color-interpolation-filters="sRGB" filterUnits="userSpaceOnUse"><feFlood flood-opacity="0" result="BackgroundImageFix"/><feBlend in="SourceGraphic" in2="BackgroundImageFix" result="shape"/><feColorMatrix in="SourceAlpha" result="hardAlpha" values="0 0 0 0 0 0 0 0 0 0 0 0 0 0 0 0 0 0 127 0"/><feOffset dx="-.25"/><feGaussianBlur stdDeviation=".25"/><feComposite in2="hardAlpha" k2="-1" k3="1" operator="arithmetic"/><feColorMatrix values="0 0 0 0 0.145098 0 0 0 0 0.435294 0 0 0 0 0.976471 0 0 0 1 0"/><feBlend in2="shape" result="effect1_innerShadow_18_16592"/></filter><filter id="filter3_i_18_16592" width="5.516" height="4.301" x="12.011" y="15.952" color-interpolation-filters="sRGB" filterUnits="userSpaceOnUse"><feFlood flood-opacity="0" result="BackgroundImageFix"/><feBlend in="SourceGraphic" in2="BackgroundImageFix" result="shape"/><feColorMatrix in="SourceAlpha" result="hardAlpha" values="0 0 0 0 0 0 0 0 0 0 0 0 0 0 0 0 0 0 127 0"/><feOffset dx="-.25"/><feGaussianBlur stdDeviation=".25"/><feComposite in2="hardAlpha" k2="-1" k3="1" operator="arithmetic"/><feColorMatrix values="0 0 0 0 0.145098 0 0 0 0 0.435294 0 0 0 0 0.976471 0 0 0 1 0"/><feBlend in2="shape" result="effect1_innerShadow_18_16592"/></filter><filter id="filter4_i_18_16592" width="6.968" height="6.459" x="14.472" y="23.378" color-interpolation-filters="sRGB" filterUnits="userSpaceOnUse"><feFlood flood-opacity="0" result="BackgroundImageFix"/><feBlend in="SourceGraphic" in2="BackgroundImageFix" result="shape"/><feColorMatrix in="SourceAlpha" result="hardAlpha" values="0 0 0 0 0 0 0 0 0 0 0 0 0 0 0 0 0 0 127 0"/><feOffset dx=".25" dy="-.2"/><feGaussianBlur stdDeviation=".25"/><feComposite in2="hardAlpha" k2="-1" k3="1" operator="arithmetic"/><feColorMatrix values="0 0 0 0 0.329412 0 0 0 0 0.360784 0 0 0 0 1 0 0 0 1 0"/><feBlend in2="shape" result="effect1_innerShadow_18_16592"/></filter><filter id="filter5_i_18_16592" width="6.968" height="6.459" x="3.753" y="19.753" color-interpolation-filters="sRGB" filterUnits="userSpaceOnUse"><feFlood flood-opacity="0" result="BackgroundImageFix"/><feBlend in="SourceGraphic" in2="BackgroundImageFix" result="shape"/><feColorMatrix in="SourceAlpha" result="hardAlpha" values="0 0 0 0 0 0 0 0 0 0 0 0 0 0 0 0 0 0 127 0"/><feOffset dx=".25" dy="-.2"/><feGaussianBlur stdDeviation=".25"/><feComposite in2="hardAlpha" k2="-1" k3="1" operator="arithmetic"/><feColorMatrix values="0 0 0 0 0.329412 0 0 0 0 0.360784 0 0 0 0 1 0 0 0 1 0"/><feBlend in2="shape" result="effect1_innerShadow_18_16592"/></filter></defs></svg>