<svg xmlns="http://www.w3.org/2000/svg" width="32" height="32" fill="none" viewBox="0 0 32 32"><g filter="url(#filter0_i_20020_2067)"><path fill="#472E32" d="M12.483 5.567c-.326-1.419.59-2.858 2.01-3.184 1.418-.327 2.85.54 3.176 1.96l1.528 6.992.08-5.412a2.636 2.636 0 1 1 5.271.08l-.111 7.47a5.997 5.997 0 0 0 .198 1.623l.499 1.888c.346 1.087 1.03 3.863.428 5.911-.612 2.65-2.772 4.77-4.647 5.83-1.875 1.059-3.944 1.579-6.97 1.15-3.904-.835-6.115-3.576-6.9-7.123-.669-2.739-1.04-5.634-1.2-6.76l8.585-2.116-1.947-8.31Z"/><path fill="url(#paint0_radial_20020_2067)" d="M12.483 5.567c-.326-1.419.59-2.858 2.01-3.184 1.418-.327 2.85.54 3.176 1.96l1.528 6.992.08-5.412a2.636 2.636 0 1 1 5.271.08l-.111 7.47a5.997 5.997 0 0 0 .198 1.623l.499 1.888c.346 1.087 1.03 3.863.428 5.911-.612 2.65-2.772 4.77-4.647 5.83-1.875 1.059-3.944 1.579-6.97 1.15-3.904-.835-6.115-3.576-6.9-7.123-.669-2.739-1.04-5.634-1.2-6.76l8.585-2.116-1.947-8.31Z"/></g><g filter="url(#filter1_f_20020_2067)"><path fill="#2A161D" d="m7.795 13.429 5.25-.784.997 6.672-5.25.784z"/></g><g filter="url(#filter2_f_20020_2067)"><path fill="#2A161D" d="M25.295 21.175c-.01-.167-.023-.333-.04-.498-.723-3.763-4.136-4.568-5.275-4.568h-1.916c-1.467.005-2.655 1.127-2.655 2.511 0 1.002.623 1.867 1.524 2.27l-.002.004c.085.043.225.094.413.142a5.756 5.756 0 0 0 1.321.15h.092v-.01h6.538Z"/></g><rect width="5.182" height="7.437" x="5.261" y="12.115" fill="#46302D" rx="2.591" transform="rotate(-8.494 5.261 12.115)"/><rect width="5.182" height="7.437" x="5.261" y="12.115" fill="url(#paint1_linear_20020_2067)" rx="2.591" transform="rotate(-8.494 5.261 12.115)"/><rect width="5.182" height="7.437" x="5.261" y="12.115" fill="url(#paint2_radial_20020_2067)" rx="2.591" transform="rotate(-8.494 5.261 12.115)"/><path fill="url(#paint3_linear_20020_2067)" d="M12.483 5.567c-.326-1.419.59-2.858 2.01-3.184 1.418-.327 2.85.54 3.176 1.96l1.842 8.43c.326 1.42-.485 2.833-1.903 3.16a2.636 2.636 0 0 1-3.16-1.979l-1.965-8.387Z"/><path fill="url(#paint4_linear_20020_2067)" d="M12.483 5.567c-.326-1.419.59-2.858 2.01-3.184 1.418-.327 2.85.54 3.176 1.96l1.842 8.43c.326 1.42-.485 2.833-1.903 3.16a2.636 2.636 0 0 1-3.16-1.979l-1.965-8.387Z"/><path fill="url(#paint5_radial_20020_2067)" d="M12.483 5.567c-.326-1.419.59-2.858 2.01-3.184 1.418-.327 2.85.54 3.176 1.96l1.842 8.43c.326 1.42-.485 2.833-1.903 3.16a2.636 2.636 0 0 1-3.16-1.979l-1.965-8.387Z"/><rect width="5.271" height="13.903" x="19.317" y="3.288" fill="url(#paint6_linear_20020_2067)" rx="2.636" transform="rotate(.856 19.317 3.288)"/><rect width="5.271" height="13.903" x="19.317" y="3.288" fill="url(#paint7_linear_20020_2067)" rx="2.636" transform="rotate(.856 19.317 3.288)"/><rect width="5.271" height="13.903" x="19.317" y="3.288" fill="url(#paint8_radial_20020_2067)" rx="2.636" transform="rotate(.856 19.317 3.288)"/><path fill="url(#paint9_radial_20020_2067)" d="M12.483 5.567c-.326-1.419.59-2.858 2.01-3.184 1.418-.327 2.85.54 3.176 1.96l1.528 6.992.08-5.412a2.636 2.636 0 1 1 5.271.08l-.111 7.47a5.997 5.997 0 0 0 .198 1.623l.499 1.888c.346 1.087 1.03 3.863.428 5.911-.612 2.65-2.772 4.77-4.647 5.83-1.875 1.059-3.944 1.579-6.97 1.15-3.904-.835-6.115-3.576-6.9-7.123-.669-2.739-1.04-5.634-1.2-6.76l8.585-2.116-1.947-8.31Z"/><g filter="url(#filter3_f_20020_2067)"><rect width=".874" height="5.303" x="9.159" y="12.532" fill="#2A1816" rx=".437" transform="rotate(-8.139 9.159 12.532)"/></g><rect width="5.309" height="8.693" x="9.12" y="10.546" fill="#46302D" rx="2.591" transform="rotate(-8.494 9.12 10.546)"/><rect width="5.309" height="8.693" x="9.12" y="10.546" fill="url(#paint10_radial_20020_2067)" rx="2.591" transform="rotate(-8.494 9.12 10.546)"/><rect width="5.309" height="8.693" x="9.12" y="10.546" fill="url(#paint11_linear_20020_2067)" rx="2.591" transform="rotate(-8.494 9.12 10.546)"/><g filter="url(#filter4_f_20020_2067)" opacity=".5"><rect width="1.019" height="3.653" x="8.261" y="13.541" fill="url(#paint12_linear_20020_2067)" rx=".51" transform="rotate(-8.33 8.261 13.541)"/></g><g filter="url(#filter5_f_20020_2067)" opacity=".5"><rect width="1.984" height="5.588" x="11.7" y="11.223" fill="url(#paint13_linear_20020_2067)" rx=".992" transform="rotate(-8.33 11.7 11.223)"/></g><g filter="url(#filter6_f_20020_2067)"><path stroke="url(#paint14_linear_20020_2067)" stroke-linecap="square" stroke-width="1.5" d="m15.898 4.596 1.71 7.237"/></g><g filter="url(#filter7_f_20020_2067)"><path stroke="url(#paint15_linear_20020_2067)" stroke-linecap="square" stroke-width="1.5" d="m22.83 5.268-.275 7.97"/></g><path fill="#472E32" d="M25.746 19.957c.097.982.082 2.031-.184 2.938-.394 1.706-1.43 3.192-2.617 4.317l-1.497-2.333c.147-2.29-.16-3.456-.54-3.891-.427-.491-.682-.491-1.752-.491-.435 0-.804-.045-1.095-.106a2.62 2.62 0 0 1-.226-.053 2.136 2.136 0 0 1-.413-.15l.001-.005a2.665 2.665 0 0 1 1.132-5.074h1.916c1.139 0 4.552.854 5.275 4.848Z"/><path fill="url(#paint16_radial_20020_2067)" d="M25.746 19.957c.097.982.082 2.031-.184 2.938-.394 1.706-1.43 3.192-2.617 4.317l-1.497-2.333c.147-2.29-.16-3.456-.54-3.891-.427-.491-.682-.491-1.752-.491-.435 0-.804-.045-1.095-.106a2.62 2.62 0 0 1-.226-.053 2.136 2.136 0 0 1-.413-.15l.001-.005a2.665 2.665 0 0 1 1.132-5.074h1.916c1.139 0 4.552.854 5.275 4.848Z"/><path fill="url(#paint17_radial_20020_2067)" d="M25.746 19.957c.097.982.082 2.031-.184 2.938-.394 1.706-1.43 3.192-2.617 4.317l-1.497-2.333c.147-2.29-.16-3.456-.54-3.891-.427-.491-.682-.491-1.752-.491-.435 0-.804-.045-1.095-.106a2.62 2.62 0 0 1-.226-.053 2.136 2.136 0 0 1-.413-.15l.001-.005a2.665 2.665 0 0 1 1.132-5.074h1.916c1.139 0 4.552.854 5.275 4.848Z"/><path fill="url(#paint18_radial_20020_2067)" d="M25.746 19.957c.097.982.082 2.031-.184 2.938-.394 1.706-1.43 3.192-2.617 4.317l-1.497-2.333c.147-2.29-.16-3.456-.54-3.891-.427-.491-.682-.491-1.752-.491-.435 0-.804-.045-1.095-.106a2.62 2.62 0 0 1-.226-.053 2.136 2.136 0 0 1-.413-.15l.001-.005a2.665 2.665 0 0 1 1.132-5.074h1.916c1.139 0 4.552.854 5.275 4.848Z"/><g filter="url(#filter8_f_20020_2067)"><path stroke="url(#paint19_linear_20020_2067)" stroke-linecap="round" stroke-width="1.5" d="M19.11 17.269h1.806c1.194 0 2.431.402 2.924 1.489.26.575.46 1.31.46 2.21"/></g><defs><linearGradient id="paint1_linear_20020_2067" x1="5.522" x2="7.38" y1="16.54" y2="16.497" gradientUnits="userSpaceOnUse"><stop stop-color="#3E2A29"/><stop offset="1" stop-color="#3E2A29" stop-opacity="0"/></linearGradient><linearGradient id="paint3_linear_20020_2067" x1="13.119" x2="16" y1="8.993" y2="8.199" gradientUnits="userSpaceOnUse"><stop stop-color="#261110"/><stop offset="1" stop-color="#261110" stop-opacity="0"/></linearGradient><linearGradient id="paint4_linear_20020_2067" x1="16.295" x2="15.745" y1="14.551" y2="11.803" gradientUnits="userSpaceOnUse"><stop stop-color="#442C30"/><stop offset="1" stop-color="#442C30" stop-opacity="0"/></linearGradient><linearGradient id="paint6_linear_20020_2067" x1="19.039" x2="21.937" y1="9.151" y2="9.199" gradientUnits="userSpaceOnUse"><stop stop-color="#261110"/><stop offset="1" stop-color="#261110" stop-opacity="0"/></linearGradient><linearGradient id="paint7_linear_20020_2067" x1="21.491" x2="21.276" y1="13.817" y2="11.431" gradientUnits="userSpaceOnUse"><stop stop-color="#442C30"/><stop offset="1" stop-color="#442C30" stop-opacity="0"/></linearGradient><linearGradient id="paint11_linear_20020_2067" x1="9.388" x2="11.657" y1="15.719" y2="15.695" gradientUnits="userSpaceOnUse"><stop stop-color="#3E2A29"/><stop offset="1" stop-color="#3E2A29" stop-opacity="0"/></linearGradient><linearGradient id="paint12_linear_20020_2067" x1="8.975" x2="8.999" y1="16.523" y2="12.688" gradientUnits="userSpaceOnUse"><stop stop-color="#675252"/><stop offset="1" stop-color="#675252" stop-opacity="0"/></linearGradient><linearGradient id="paint13_linear_20020_2067" x1="13.377" x2="10.787" y1="14.275" y2="9.324" gradientUnits="userSpaceOnUse"><stop stop-color="#745E5C"/><stop offset="1" stop-color="#745E5C" stop-opacity="0"/></linearGradient><linearGradient id="paint14_linear_20020_2067" x1="17.486" x2="14.238" y1="12.994" y2="12.293" gradientUnits="userSpaceOnUse"><stop stop-color="#604D4B"/><stop offset="1" stop-color="#624D4A"/></linearGradient><linearGradient id="paint15_linear_20020_2067" x1="23.807" x2="20.559" y1="14.123" y2="13.423" gradientUnits="userSpaceOnUse"><stop stop-color="#604D4B"/><stop offset="1" stop-color="#624D4A"/></linearGradient><linearGradient id="paint19_linear_20020_2067" x1="19.465" x2="24.931" y1="17.269" y2="20.243" gradientUnits="userSpaceOnUse"><stop stop-color="#634F4D"/><stop offset="1" stop-color="#634F4D" stop-opacity="0"/></linearGradient><radialGradient id="paint0_radial_20020_2067" cx="0" cy="0" r="1" gradientTransform="matrix(-3.82482 3.27838 -2.93875 -3.42858 20.755 20.36)" gradientUnits="userSpaceOnUse"><stop stop-color="#5E4A4D"/><stop offset="1" stop-color="#4C3A3C" stop-opacity="0"/></radialGradient><radialGradient id="paint2_radial_20020_2067" cx="0" cy="0" r="1" gradientTransform="rotate(-89.635 13.743 5.791) scale(3.91433 5.29446)" gradientUnits="userSpaceOnUse"><stop stop-color="#472336"/><stop offset="1" stop-color="#472336" stop-opacity="0"/></radialGradient><radialGradient id="paint5_radial_20020_2067" cx="0" cy="0" r="1" gradientTransform="matrix(3.58284 -11.32088 8.83347 2.79563 12.417 13.635)" gradientUnits="userSpaceOnUse"><stop offset=".841" stop-color="#624D4A" stop-opacity="0"/><stop offset="1" stop-color="#624D4A"/></radialGradient><radialGradient id="paint8_radial_20020_2067" cx="0" cy="0" r="1" gradientTransform="matrix(3.6264 -12.10967 7.15191 2.14173 19.317 14.789)" gradientUnits="userSpaceOnUse"><stop offset=".841" stop-color="#624D4A" stop-opacity="0"/><stop offset="1" stop-color="#624D4A"/></radialGradient><radialGradient id="paint9_radial_20020_2067" cx="0" cy="0" r="1" gradientTransform="matrix(.09161 -4.30562 8.55796 .18209 21.67 15.65)" gradientUnits="userSpaceOnUse"><stop stop-color="#5E4A4D"/><stop offset="1" stop-color="#4C3A3C" stop-opacity="0"/></radialGradient><radialGradient id="paint10_radial_20020_2067" cx="0" cy="0" r="1" gradientTransform="matrix(.02555 -4.57548 5.42478 .0303 11.787 19.175)" gradientUnits="userSpaceOnUse"><stop stop-color="#472336"/><stop offset="1" stop-color="#472336" stop-opacity="0"/></radialGradient><radialGradient id="paint16_radial_20020_2067" cx="0" cy="0" r="1" gradientTransform="matrix(2.65666 -9.09982 12.17361 3.55405 18.982 24.689)" gradientUnits="userSpaceOnUse"><stop offset=".766" stop-color="#593A34" stop-opacity="0"/><stop offset="1" stop-color="#593A34"/></radialGradient><radialGradient id="paint17_radial_20020_2067" cx="0" cy="0" r="1" gradientTransform="rotate(30.356 -20.139 35.97) scale(3.5506 5.62295)" gradientUnits="userSpaceOnUse"><stop stop-color="#251412"/><stop offset="1" stop-color="#251412" stop-opacity="0"/></radialGradient><radialGradient id="paint18_radial_20020_2067" cx="0" cy="0" r="1" gradientTransform="matrix(-.48333 2.94215 -6.00762 -.9869 20.062 20.781)" gradientUnits="userSpaceOnUse"><stop stop-color="#3B202E"/><stop offset="1" stop-color="#3B202E" stop-opacity="0"/></radialGradient><filter id="filter0_i_20020_2067" width="20.456" height="28.462" x="5.844" y="1.564" color-interpolation-filters="sRGB" filterUnits="userSpaceOnUse"><feFlood flood-opacity="0" result="BackgroundImageFix"/><feBlend in="SourceGraphic" in2="BackgroundImageFix" result="shape"/><feColorMatrix in="SourceAlpha" result="hardAlpha" values="0 0 0 0 0 0 0 0 0 0 0 0 0 0 0 0 0 0 127 0"/><feOffset dx=".5" dy="-.75"/><feGaussianBlur stdDeviation="1.5"/><feComposite in2="hardAlpha" k2="-1" k3="1" operator="arithmetic"/><feColorMatrix values="0 0 0 0 0.227451 0 0 0 0 0.121569 0 0 0 0 0.196078 0 0 0 1 0"/><feBlend in2="shape" result="effect1_innerShadow_20020_2067"/></filter><filter id="filter1_f_20020_2067" width="10.247" height="11.456" x="5.795" y="10.645" color-interpolation-filters="sRGB" filterUnits="userSpaceOnUse"><feFlood flood-opacity="0" result="BackgroundImageFix"/><feBlend in="SourceGraphic" in2="BackgroundImageFix" result="shape"/><feGaussianBlur result="effect1_foregroundBlur_20020_2067" stdDeviation="1"/></filter><filter id="filter2_f_20020_2067" width="13.886" height="9.076" x="13.409" y="14.109" color-interpolation-filters="sRGB" filterUnits="userSpaceOnUse"><feFlood flood-opacity="0" result="BackgroundImageFix"/><feBlend in="SourceGraphic" in2="BackgroundImageFix" result="shape"/><feGaussianBlur result="effect1_foregroundBlur_20020_2067" stdDeviation="1"/></filter><filter id="filter3_f_20020_2067" width="3.501" height="7.258" x="8.216" y="11.465" color-interpolation-filters="sRGB" filterUnits="userSpaceOnUse"><feFlood flood-opacity="0" result="BackgroundImageFix"/><feBlend in="SourceGraphic" in2="BackgroundImageFix" result="shape"/><feGaussianBlur result="effect1_foregroundBlur_20020_2067" stdDeviation=".5"/></filter><filter id="filter4_f_20020_2067" width="2.901" height="5.126" x="7.58" y="12.712" color-interpolation-filters="sRGB" filterUnits="userSpaceOnUse"><feFlood flood-opacity="0" result="BackgroundImageFix"/><feBlend in="SourceGraphic" in2="BackgroundImageFix" result="shape"/><feGaussianBlur result="effect1_foregroundBlur_20020_2067" stdDeviation=".375"/></filter><filter id="filter5_f_20020_2067" width="4.906" height="7.95" x="10.633" y="9.869" color-interpolation-filters="sRGB" filterUnits="userSpaceOnUse"><feFlood flood-opacity="0" result="BackgroundImageFix"/><feBlend in="SourceGraphic" in2="BackgroundImageFix" result="shape"/><feGaussianBlur result="effect1_foregroundBlur_20020_2067" stdDeviation=".6"/></filter><filter id="filter6_f_20020_2067" width="6.515" height="12.042" x="13.496" y="2.194" color-interpolation-filters="sRGB" filterUnits="userSpaceOnUse"><feFlood flood-opacity="0" result="BackgroundImageFix"/><feBlend in="SourceGraphic" in2="BackgroundImageFix" result="shape"/><feGaussianBlur result="effect1_foregroundBlur_20020_2067" stdDeviation=".75"/></filter><filter id="filter7_f_20020_2067" width="4.826" height="12.521" x="20.28" y="2.993" color-interpolation-filters="sRGB" filterUnits="userSpaceOnUse"><feFlood flood-opacity="0" result="BackgroundImageFix"/><feBlend in="SourceGraphic" in2="BackgroundImageFix" result="shape"/><feGaussianBlur result="effect1_foregroundBlur_20020_2067" stdDeviation=".75"/></filter><filter id="filter8_f_20020_2067" width="9.691" height="8.199" x="16.859" y="15.019" color-interpolation-filters="sRGB" filterUnits="userSpaceOnUse"><feFlood flood-opacity="0" result="BackgroundImageFix"/><feBlend in="SourceGraphic" in2="BackgroundImageFix" result="shape"/><feGaussianBlur result="effect1_foregroundBlur_20020_2067" stdDeviation=".75"/></filter></defs></svg>