<svg xmlns="http://www.w3.org/2000/svg" width="32" height="32" fill="none" viewBox="0 0 32 32"><path fill="url(#paint0_radial_4002_2834)" d="M5.428 29.911h21.144c-.19-5.356-4.591-9.64-9.994-9.64h-1.156c-5.403 0-9.805 4.284-9.994 9.64Z"/><path fill="url(#paint1_radial_4002_2834)" d="M5.428 29.911h21.144c-.19-5.356-4.591-9.64-9.994-9.64h-1.156c-5.403 0-9.805 4.284-9.994 9.64Z"/><path fill="url(#paint2_linear_4002_2834)" d="M5.428 29.911h21.144c-.19-5.356-4.591-9.64-9.994-9.64h-1.156c-5.403 0-9.805 4.284-9.994 9.64Z"/><path fill="url(#paint3_linear_4002_2834)" d="M5.428 29.911h21.144c-.19-5.356-4.591-9.64-9.994-9.64h-1.156c-5.403 0-9.805 4.284-9.994 9.64Z"/><path fill="url(#paint4_radial_4002_2834)" d="M9.058 29.911h-3.63a9.98 9.98 0 0 1 3.63-7.355v7.355Z"/><path fill="url(#paint5_linear_4002_2834)" d="M9.058 29.911h-3.63a9.98 9.98 0 0 1 3.63-7.355v7.355Z"/><path fill="url(#paint6_radial_4002_2834)" d="M22.942 29.911h3.63a9.98 9.98 0 0 0-3.63-7.355v7.355Z"/><path fill="url(#paint7_radial_4002_2834)" d="M22.942 29.911h3.63a9.98 9.98 0 0 0-3.63-7.355v7.355Z"/><g filter="url(#filter0_i_4002_2834)"><path fill="url(#paint8_radial_4002_2834)" d="M11.926 20.161c-1.364.418-2.538 1.308-3.179 1.936a.462.462 0 0 0 .011.659l.65.649a.523.523 0 0 0 .704.02 12.252 12.252 0 0 1 3.107-1.857l-1.293-1.407Z"/><path fill="url(#paint9_radial_4002_2834)" d="M11.926 20.161c-1.364.418-2.538 1.308-3.179 1.936a.462.462 0 0 0 .011.659l.65.649a.523.523 0 0 0 .704.02 12.252 12.252 0 0 1 3.107-1.857l-1.293-1.407Z"/></g><g filter="url(#filter1_ii_4002_2834)"><path fill="#554B59" d="M20.046 20.161c1.364.418 2.538 1.308 3.179 1.936a.461.461 0 0 1-.011.659l-.65.649a.523.523 0 0 1-.704.02 12.252 12.252 0 0 0-3.107-1.857l1.293-1.407Z"/><path fill="url(#paint10_radial_4002_2834)" d="M20.046 20.161c1.364.418 2.538 1.308 3.179 1.936a.461.461 0 0 1-.011.659l-.65.649a.523.523 0 0 1-.704.02 12.252 12.252 0 0 0-3.107-1.857l1.293-1.407Z"/><path fill="url(#paint11_radial_4002_2834)" d="M20.046 20.161c1.364.418 2.538 1.308 3.179 1.936a.461.461 0 0 1-.011.659l-.65.649a.523.523 0 0 1-.704.02 12.252 12.252 0 0 0-3.107-1.857l1.293-1.407Z"/></g><g filter="url(#filter2_f_4002_2834)"><ellipse cx="9.937" cy="22.244" fill="#321F22" rx=".641" ry=".524" transform="rotate(-40.534 9.937 22.244)"/></g><ellipse cx="9.886" cy="22.154" fill="url(#paint12_radial_4002_2834)" rx=".641" ry=".524" transform="rotate(-40.534 9.886 22.154)"/><g filter="url(#filter3_f_4002_2834)"><ellipse fill="#3E3138" rx=".641" ry=".494" transform="scale(-1 1) rotate(-35.343 23.849 45.555)"/></g><ellipse fill="url(#paint13_radial_4002_2834)" rx=".641" ry=".524" transform="scale(-1 1) rotate(-40.534 18.955 40.983)"/><g filter="url(#filter4_iii_4002_2834)"><rect width="7.594" height="9.594" x="12.172" y="14.927" fill="url(#paint14_radial_4002_2834)" rx="3.797"/><rect width="7.594" height="9.594" x="12.172" y="14.927" fill="url(#paint15_radial_4002_2834)" rx="3.797"/><rect width="7.594" height="9.594" x="12.172" y="14.927" fill="url(#paint16_radial_4002_2834)" rx="3.797"/></g><rect width="4.141" height="5.141" x="13.898" y="18.099" fill="url(#paint17_radial_4002_2834)" rx="1.969"/><path fill="url(#paint18_linear_4002_2834)" d="M15.49 23.203v6.708h.989v-6.714a1.974 1.974 0 0 1-.409.042h-.203c-.129 0-.255-.012-.377-.036Z"/><path fill="url(#paint19_linear_4002_2834)" d="M15.49 23.203v6.708h.989v-6.714a1.974 1.974 0 0 1-.409.042h-.203c-.129 0-.255-.012-.377-.036Z"/><g filter="url(#filter5_f_4002_2834)"><circle cx="17.439" cy="25.445" r=".545" fill="#F6265E"/></g><g filter="url(#filter6_f_4002_2834)"><circle cx="17.439" cy="28.445" r=".545" fill="#F6265E"/></g><circle cx="17.494" cy="25.374" r=".545" fill="url(#paint20_radial_4002_2834)"/><circle cx="17.494" cy="28.374" r=".545" fill="url(#paint21_radial_4002_2834)"/><path fill="url(#paint22_radial_4002_2834)" d="M20.814 16.672c.335-.01.65-.124.905-.308v.931c0 .893-.532 1.689-1.341 2.019a4.09 4.09 0 0 0 .346-1.18l.09-1.462Z"/><path fill="url(#paint23_radial_4002_2834)" d="M20.814 16.672c.335-.01.65-.124.905-.308v.931c0 .893-.532 1.689-1.341 2.019a4.09 4.09 0 0 0 .346-1.18l.09-1.462Z"/><path fill="url(#paint24_radial_4002_2834)" d="M11.092 16.672a1.64 1.64 0 0 1-.905-.308v.931c0 .893.532 1.689 1.34 2.019a4.09 4.09 0 0 1-.345-1.18l-.09-1.462Z"/><path fill="url(#paint25_radial_4002_2834)" d="M11.092 16.672a1.64 1.64 0 0 1-.905-.308v.931c0 .893.532 1.689 1.34 2.019a4.09 4.09 0 0 1-.345-1.18l-.09-1.462Z"/><g filter="url(#filter7_iiii_4002_2834)"><path fill="url(#paint26_radial_4002_2834)" d="M11.128 18.188a3.916 3.916 0 0 0 3.886 3.405H16.9a3.916 3.916 0 0 0 3.886-3.405c.118-1.884.237-3.76.324-5.643a1.45 1.45 0 0 0-1.379-1.432h-1.4c-.955 0-1.82-.563-2.212-1.443a.664.664 0 0 0-.615-.418h-1.273c-1.846 0-3.341 1.512-3.341 3.379 0 1.86.116 3.691.238 5.556Z"/></g><path fill="url(#paint27_radial_4002_2834)" d="M11.128 18.188a3.916 3.916 0 0 0 3.886 3.405H16.9a3.916 3.916 0 0 0 3.886-3.405c.118-1.884.237-3.76.324-5.643a1.45 1.45 0 0 0-1.379-1.432h-1.4c-.955 0-1.82-.563-2.212-1.443a.664.664 0 0 0-.615-.418h-1.273c-1.846 0-3.341 1.512-3.341 3.379 0 1.86.116 3.691.238 5.556Z"/><path fill="url(#paint28_radial_4002_2834)" d="M11.128 18.188a3.916 3.916 0 0 0 3.886 3.405H16.9a3.916 3.916 0 0 0 3.886-3.405c.118-1.884.237-3.76.324-5.643a1.45 1.45 0 0 0-1.379-1.432h-1.4c-.955 0-1.82-.563-2.212-1.443a.664.664 0 0 0-.615-.418h-1.273c-1.846 0-3.341 1.512-3.341 3.379 0 1.86.116 3.691.238 5.556Z"/><path fill="url(#paint29_radial_4002_2834)" d="M11.128 18.188a3.916 3.916 0 0 0 3.886 3.405H16.9a3.916 3.916 0 0 0 3.886-3.405c.118-1.884.237-3.76.324-5.643a1.45 1.45 0 0 0-1.379-1.432h-1.4c-.955 0-1.82-.563-2.212-1.443a.664.664 0 0 0-.615-.418h-1.273c-1.846 0-3.341 1.512-3.341 3.379 0 1.86.116 3.691.238 5.556Z"/><path fill="url(#paint30_linear_4002_2834)" d="M11.128 18.188a3.916 3.916 0 0 0 3.886 3.405H16.9a3.916 3.916 0 0 0 3.886-3.405c.118-1.884.237-3.76.324-5.643a1.45 1.45 0 0 0-1.379-1.432h-1.4c-.955 0-1.82-.563-2.212-1.443a.664.664 0 0 0-.615-.418h-1.273c-1.846 0-3.341 1.512-3.341 3.379 0 1.86.116 3.691.238 5.556Z"/><g filter="url(#filter8_f_4002_2834)"><path fill="#EE9020" d="m15.467 14.904-.635 1.838c-.109.378.152.756.52.756h.787c.369 0 .629-.384.52-.756l-.53-1.838c-.115-.407-.543-.407-.662 0Z"/></g><g filter="url(#filter9_f_4002_2834)"><path fill="url(#paint31_linear_4002_2834)" d="m15.57 14.708-.53 1.838c-.11.378.151.757.52.757h.786c.369 0 .63-.384.52-.757l-.53-1.838c-.114-.407-.646-.407-.765 0Z"/><path fill="url(#paint32_linear_4002_2834)" d="m15.57 14.708-.53 1.838c-.11.378.151.757.52.757h.786c.369 0 .63-.384.52-.757l-.53-1.838c-.114-.407-.646-.407-.765 0Z"/><path fill="url(#paint33_linear_4002_2834)" d="m15.57 14.708-.53 1.838c-.11.378.151.757.52.757h.786c.369 0 .63-.384.52-.757l-.53-1.838c-.114-.407-.646-.407-.765 0Z"/></g><g filter="url(#filter10_f_4002_2834)"><path fill="url(#paint34_linear_4002_2834)" d="m15.57 14.584-.53 1.838c-.11.378.151.756.52.756h.786c.369 0 .63-.384.52-.756l-.53-1.838c-.114-.408-.646-.408-.765 0Z"/></g><g filter="url(#filter11_f_4002_2834)"><path stroke="url(#paint35_radial_4002_2834)" stroke-width=".15" d="M14.602 17.924c.39.203.855.32 1.351.32.5 0 .96-.117 1.35-.32h.001a.228.228 0 0 1 .271.044.214.214 0 0 1 .024.273m-2.997-.317 2.934.276m-2.934-.276a.228.228 0 0 0-.272.047.212.212 0 0 0-.023.27m.295-.317-.232.276m3.229.041-.063-.041m.063.041-.063-.041m.063.041a1.97 1.97 0 0 1-1.646.88 1.97 1.97 0 0 1-1.646-.88m3.23-.041a1.893 1.893 0 0 1-1.584.846 1.893 1.893 0 0 1-1.583-.846m-.063.042h.001l.062-.042m-.063.042v-.001l.063-.041"/></g><path fill="url(#paint36_radial_4002_2834)" d="M15.953 18.32c-.508 0-.985-.12-1.385-.33-.137-.069-.285.085-.198.21.335.507.918.846 1.583.846.665 0 1.248-.339 1.583-.846.087-.13-.06-.279-.198-.21a2.99 2.99 0 0 1-1.385.33Z"/><path fill="#fff" d="M18.344 13.758c.653 0 1.205.45 1.355 1.058a.274.274 0 0 1-.268.341h-2.23a.23.23 0 0 1-.228-.272c.126-.64.69-1.127 1.371-1.127Z"/><path fill="url(#paint37_radial_4002_2834)" d="M18.137 14.03a.892.892 0 0 1 .86 1.127h-1.724a.896.896 0 0 1 .864-1.128Z"/><path fill="#000" d="M17.626 14.921c0-.283.227-.51.511-.51a.509.509 0 0 1 .454.746h-.904a.463.463 0 0 1-.061-.236Z"/><g filter="url(#filter12_f_4002_2834)"><path fill="#C7A7A3" d="M18.071 14.218c.064.085-.069.188-.22.301-.151.113-.263.193-.327.108-.063-.085.008-.246.159-.359.15-.113.325-.135.388-.05Z"/><path fill="url(#paint38_radial_4002_2834)" d="M18.071 14.218c.064.085-.069.188-.22.301-.151.113-.263.193-.327.108-.063-.085.008-.246.159-.359.15-.113.325-.135.388-.05Z"/></g><g filter="url(#filter13_f_4002_2834)"><path fill="url(#paint39_linear_4002_2834)" d="M18.932 14.804a.84.84 0 0 0-.231-.462l-.26.285.117.228.374-.05Z"/></g><path fill="#fff" d="M13.562 13.758c-.653 0-1.205.45-1.355 1.058a.274.274 0 0 0 .268.341h2.231a.23.23 0 0 0 .227-.272 1.401 1.401 0 0 0-1.37-1.127Z"/><path fill="url(#paint40_radial_4002_2834)" d="M13.769 14.03a.892.892 0 0 0-.86 1.127h1.724a.917.917 0 0 0 .033-.236.899.899 0 0 0-.897-.892Z"/><path fill="#000" d="M14.28 14.922a.51.51 0 0 0-.511-.512.51.51 0 0 0-.454.747h.904a.507.507 0 0 0 .061-.235Z"/><g filter="url(#filter14_f_4002_2834)"><path fill="url(#paint41_linear_4002_2834)" d="M14.584 14.817c0-.289-.234-.48-.297-.539l-.289.279.178.361.408-.101Z"/></g><g filter="url(#filter15_f_4002_2834)" transform="rotate(-27.914 13.5 14.41)"><ellipse cx="13.5" cy="14.411" fill="#C7A7A3" fill-opacity=".9" rx=".39" ry=".197"/><ellipse cx="13.5" cy="14.411" fill="url(#paint42_radial_4002_2834)" rx=".39" ry=".197"/></g><path fill="url(#paint43_linear_4002_2834)" d="M20.875 16.763c.066-1.064.129-2.127.184-3.191a1.61 1.61 0 0 1-.184 3.191Z"/><path fill="url(#paint44_radial_4002_2834)" d="M20.875 16.763c.066-1.064.129-2.127.184-3.191a1.61 1.61 0 0 1-.184 3.191Z"/><path fill="url(#paint45_radial_4002_2834)" d="M20.875 16.763c.066-1.064.129-2.127.184-3.191a1.61 1.61 0 0 1-.184 3.191Z"/><path fill="url(#paint46_linear_4002_2834)" d="M10.899 13.564a1.61 1.61 0 0 0 .139 3.2 77.956 77.956 0 0 1-.139-3.2Z"/><path fill="url(#paint47_radial_4002_2834)" d="M10.899 13.564a1.61 1.61 0 0 0 .139 3.2 77.956 77.956 0 0 1-.139-3.2Z"/><g filter="url(#filter16_f_4002_2834)"><path fill="#DD8224" d="M10.916 14.225a.956.956 0 0 0 .083 1.88 77.66 77.66 0 0 1-.083-1.88Z"/></g><g filter="url(#filter17_f_4002_2834)"><path fill="#FFC837" d="M20.915 16.113c.038-.635.076-1.27.11-1.904a.956.956 0 0 1-.11 1.904Z"/></g><g filter="url(#filter18_i_4002_2834)"><path fill="url(#paint48_linear_4002_2834)" d="M10.31 14.155c-.278-.016-.842-.08-1.054-.728-.11-.37.082-.779.143-.91a1.317 1.317 0 0 1 .024-.05c.061-.12.152-.296-.02-.576-.193-.313-.375-.615-.045-1.257.207-.405.093-.652-.032-.875-.183-.327-.166-.604 0-.938.07-.143.173-.275.173-.472 0-.198-.07-.335-.141-.474-.074-.143-.148-.289-.148-.504 0-.23.084-.398.161-.554.066-.133.128-.257.128-.402 0-.129-.06-.24-.125-.364-.094-.178-.201-.38-.164-.69.071-.59.537-.787.756-.879l.02-.008c.21-.089.364-.163.452-.58.046-.215.132-.502.293-.663a1.06 1.06 0 0 1 .791-.3c.257.007.535-.03.752-.254.217-.225.458-.413.699-.453.24-.04.471.014.725.144.281.145.567.07.705-.035.34-.262.718-.32 1.158-.141.18.072.295.112.394.112.098 0 .214-.04.393-.112.44-.18.819-.12 1.159.141a.68.68 0 0 0 .704.035c.254-.13.484-.184.725-.144.241.04.483.228.7.453.216.225.494.261.75.253a1.06 1.06 0 0 1 .793.301c.16.161.246.448.292.663.088.417.243.491.452.58l.02.008c.219.092.685.288.756.878.038.31-.07.513-.164.69-.065.124-.125.236-.125.365 0 .145.062.269.128.402.078.156.161.324.161.554 0 .215-.074.36-.147.504a.935.935 0 0 0-.105.466c0 .528.496.742.176 1.422-.125.223-.324.455-.117.86.33.641.193.955 0 1.268-.171.28-.081.457-.02.577l.02.041.005.009c.06.13.252.54.142.909-.212.649-.775.712-1.054.728H10.31Z"/><path fill="url(#paint49_linear_4002_2834)" d="M10.31 14.155c-.278-.016-.842-.08-1.054-.728-.11-.37.082-.779.143-.91a1.317 1.317 0 0 1 .024-.05c.061-.12.152-.296-.02-.576-.193-.313-.375-.615-.045-1.257.207-.405.093-.652-.032-.875-.183-.327-.166-.604 0-.938.07-.143.173-.275.173-.472 0-.198-.07-.335-.141-.474-.074-.143-.148-.289-.148-.504 0-.23.084-.398.161-.554.066-.133.128-.257.128-.402 0-.129-.06-.24-.125-.364-.094-.178-.201-.38-.164-.69.071-.59.537-.787.756-.879l.02-.008c.21-.089.364-.163.452-.58.046-.215.132-.502.293-.663a1.06 1.06 0 0 1 .791-.3c.257.007.535-.03.752-.254.217-.225.458-.413.699-.453.24-.04.471.014.725.144.281.145.567.07.705-.035.34-.262.718-.32 1.158-.141.18.072.295.112.394.112.098 0 .214-.04.393-.112.44-.18.819-.12 1.159.141a.68.68 0 0 0 .704.035c.254-.13.484-.184.725-.144.241.04.483.228.7.453.216.225.494.261.75.253a1.06 1.06 0 0 1 .793.301c.16.161.246.448.292.663.088.417.243.491.452.58l.02.008c.219.092.685.288.756.878.038.31-.07.513-.164.69-.065.124-.125.236-.125.365 0 .145.062.269.128.402.078.156.161.324.161.554 0 .215-.074.36-.147.504a.935.935 0 0 0-.105.466c0 .528.496.742.176 1.422-.125.223-.324.455-.117.86.33.641.193.955 0 1.268-.171.28-.081.457-.02.577l.02.041.005.009c.06.13.252.54.142.909-.212.649-.775.712-1.054.728H10.31Z"/></g><path fill="url(#paint50_radial_4002_2834)" d="M10.31 14.155c-.278-.016-.842-.08-1.054-.728-.11-.37.082-.779.143-.91a1.317 1.317 0 0 1 .024-.05c.061-.12.152-.296-.02-.576-.193-.313-.375-.615-.045-1.257.207-.405.093-.652-.032-.875-.183-.327-.166-.604 0-.938.07-.143.173-.275.173-.472 0-.198-.07-.335-.141-.474-.074-.143-.148-.289-.148-.504 0-.23.084-.398.161-.554.066-.133.128-.257.128-.402 0-.129-.06-.24-.125-.364-.094-.178-.201-.38-.164-.69.071-.59.537-.787.756-.879l.02-.008c.21-.089.364-.163.452-.58.046-.215.132-.502.293-.663a1.06 1.06 0 0 1 .791-.3c.257.007.535-.03.752-.254.217-.225.458-.413.699-.453.24-.04.471.014.725.144.281.145.567.07.705-.035.34-.262.718-.32 1.158-.141.18.072.295.112.394.112.098 0 .214-.04.393-.112.44-.18.819-.12 1.159.141a.68.68 0 0 0 .704.035c.254-.13.484-.184.725-.144.241.04.483.228.7.453.216.225.494.261.75.253a1.06 1.06 0 0 1 .793.301c.16.161.246.448.292.663.088.417.243.491.452.58l.02.008c.219.092.685.288.756.878.038.31-.07.513-.164.69-.065.124-.125.236-.125.365 0 .145.062.269.128.402.078.156.161.324.161.554 0 .215-.074.36-.147.504a.935.935 0 0 0-.105.466c0 .528.496.742.176 1.422-.125.223-.324.455-.117.86.33.641.193.955 0 1.268-.171.28-.081.457-.02.577l.02.041.005.009c.06.13.252.54.142.909-.212.649-.775.712-1.054.728H10.31Z"/><path fill="url(#paint51_radial_4002_2834)" d="M10.31 14.155c-.278-.016-.842-.08-1.054-.728-.11-.37.082-.779.143-.91a1.317 1.317 0 0 1 .024-.05c.061-.12.152-.296-.02-.576-.193-.313-.375-.615-.045-1.257.207-.405.093-.652-.032-.875-.183-.327-.166-.604 0-.938.07-.143.173-.275.173-.472 0-.198-.07-.335-.141-.474-.074-.143-.148-.289-.148-.504 0-.23.084-.398.161-.554.066-.133.128-.257.128-.402 0-.129-.06-.24-.125-.364-.094-.178-.201-.38-.164-.69.071-.59.537-.787.756-.879l.02-.008c.21-.089.364-.163.452-.58.046-.215.132-.502.293-.663a1.06 1.06 0 0 1 .791-.3c.257.007.535-.03.752-.254.217-.225.458-.413.699-.453.24-.04.471.014.725.144.281.145.567.07.705-.035.34-.262.718-.32 1.158-.141.18.072.295.112.394.112.098 0 .214-.04.393-.112.44-.18.819-.12 1.159.141a.68.68 0 0 0 .704.035c.254-.13.484-.184.725-.144.241.04.483.228.7.453.216.225.494.261.75.253a1.06 1.06 0 0 1 .793.301c.16.161.246.448.292.663.088.417.243.491.452.58l.02.008c.219.092.685.288.756.878.038.31-.07.513-.164.69-.065.124-.125.236-.125.365 0 .145.062.269.128.402.078.156.161.324.161.554 0 .215-.074.36-.147.504a.935.935 0 0 0-.105.466c0 .528.496.742.176 1.422-.125.223-.324.455-.117.86.33.641.193.955 0 1.268-.171.28-.081.457-.02.577l.02.041.005.009c.06.13.252.54.142.909-.212.649-.775.712-1.054.728H10.31Z"/><path fill="url(#paint52_linear_4002_2834)" d="M10.31 14.155c-.278-.016-.842-.08-1.054-.728-.11-.37.082-.779.143-.91a1.317 1.317 0 0 1 .024-.05c.061-.12.152-.296-.02-.576-.193-.313-.375-.615-.045-1.257.207-.405.093-.652-.032-.875-.183-.327-.166-.604 0-.938.07-.143.173-.275.173-.472 0-.198-.07-.335-.141-.474-.074-.143-.148-.289-.148-.504 0-.23.084-.398.161-.554.066-.133.128-.257.128-.402 0-.129-.06-.24-.125-.364-.094-.178-.201-.38-.164-.69.071-.59.537-.787.756-.879l.02-.008c.21-.089.364-.163.452-.58.046-.215.132-.502.293-.663a1.06 1.06 0 0 1 .791-.3c.257.007.535-.03.752-.254.217-.225.458-.413.699-.453.24-.04.471.014.725.144.281.145.567.07.705-.035.34-.262.718-.32 1.158-.141.18.072.295.112.394.112.098 0 .214-.04.393-.112.44-.18.819-.12 1.159.141a.68.68 0 0 0 .704.035c.254-.13.484-.184.725-.144.241.04.483.228.7.453.216.225.494.261.75.253a1.06 1.06 0 0 1 .793.301c.16.161.246.448.292.663.088.417.243.491.452.58l.02.008c.219.092.685.288.756.878.038.31-.07.513-.164.69-.065.124-.125.236-.125.365 0 .145.062.269.128.402.078.156.161.324.161.554 0 .215-.074.36-.147.504a.935.935 0 0 0-.105.466c0 .528.496.742.176 1.422-.125.223-.324.455-.117.86.33.641.193.955 0 1.268-.171.28-.081.457-.02.577l.02.041.005.009c.06.13.252.54.142.909-.212.649-.775.712-1.054.728H10.31Z"/><g fill-rule="evenodd" clip-rule="evenodd" filter="url(#filter19_i_4002_2834)"><path fill="url(#paint53_linear_4002_2834)" d="m10.5 14.155.12 3.519c.082 2.424 2.07 4.378 4.497 4.378h1.677c2.44 0 4.435-1.976 4.498-4.416l.09-3.48h-.909l-.12 3.48c-.049 1.898-1.662 3.486-3.56 3.486h-1.676c-1.887 0-3.489-1.597-3.553-3.482l-.09-3.485H10.5Z"/><path fill="url(#paint54_linear_4002_2834)" d="m10.5 14.155.12 3.519c.082 2.424 2.07 4.378 4.497 4.378h1.677c2.44 0 4.435-1.976 4.498-4.416l.09-3.48h-.909l-.12 3.48c-.049 1.898-1.662 3.486-3.56 3.486h-1.676c-1.887 0-3.489-1.597-3.553-3.482l-.09-3.485H10.5Z"/><path fill="url(#paint55_radial_4002_2834)" d="m10.5 14.155.12 3.519c.082 2.424 2.07 4.378 4.497 4.378h1.677c2.44 0 4.435-1.976 4.498-4.416l.09-3.48h-.909l-.12 3.48c-.049 1.898-1.662 3.486-3.56 3.486h-1.676c-1.887 0-3.489-1.597-3.553-3.482l-.09-3.485H10.5Z"/></g><defs><radialGradient id="paint0_radial_4002_2834" cx="0" cy="0" r="1" gradientTransform="matrix(0 7.71875 -19.3424 0 16 26.99)" gradientUnits="userSpaceOnUse"><stop offset=".315" stop-color="#F73C71"/><stop offset="1" stop-color="#D6274F"/></radialGradient><radialGradient id="paint1_radial_4002_2834" cx="0" cy="0" r="1" gradientTransform="matrix(-2.6875 0 0 -8.81836 22.928 27.146)" gradientUnits="userSpaceOnUse"><stop offset=".24" stop-color="#FF6085"/><stop offset="1" stop-color="#FF6085" stop-opacity="0"/></radialGradient><radialGradient id="paint4_radial_4002_2834" cx="0" cy="0" r="1" gradientTransform="matrix(1.96876 -8.07812 2.82155 .68765 6.74 29.911)" gradientUnits="userSpaceOnUse"><stop offset=".232" stop-color="#E43669"/><stop offset="1" stop-color="#B13B50"/></radialGradient><radialGradient id="paint6_radial_4002_2834" cx="0" cy="0" r="1" gradientTransform="rotate(-101.449 24.978 4.727) scale(7.55662 1.96679)" gradientUnits="userSpaceOnUse"><stop stop-color="#FF5C85"/><stop offset="1" stop-color="#E34C67"/></radialGradient><radialGradient id="paint7_radial_4002_2834" cx="0" cy="0" r="1" gradientTransform="matrix(0 -11.366 .65507 0 22.942 29.911)" gradientUnits="userSpaceOnUse"><stop offset=".443" stop-color="#E11C59"/><stop offset="1" stop-color="#EE5076" stop-opacity="0"/></radialGradient><radialGradient id="paint8_radial_4002_2834" cx="0" cy="0" r="1" gradientTransform="matrix(1.35937 1.64062 -3.29137 2.72714 9.71 21.208)" gradientUnits="userSpaceOnUse"><stop stop-color="#454048"/><stop offset="1" stop-color="#382834"/></radialGradient><radialGradient id="paint9_radial_4002_2834" cx="0" cy="0" r="1" gradientTransform="matrix(1.78125 1.85937 -.47826 .45816 8.381 22.458)" gradientUnits="userSpaceOnUse"><stop offset=".435" stop-color="#4B4551"/><stop offset="1" stop-color="#4B4551" stop-opacity="0"/></radialGradient><radialGradient id="paint10_radial_4002_2834" cx="0" cy="0" r="1" gradientTransform="matrix(1.3125 .25 -.73637 3.86594 19.569 21.146)" gradientUnits="userSpaceOnUse"><stop offset=".032" stop-color="#513F4E"/><stop offset="1" stop-color="#513F4E" stop-opacity="0"/></radialGradient><radialGradient id="paint11_radial_4002_2834" cx="0" cy="0" r="1" gradientTransform="rotate(138.094 7.499 15.6) scale(1.63757 .24529)" gradientUnits="userSpaceOnUse"><stop stop-color="#5E5864"/><stop offset="1" stop-color="#5E5864" stop-opacity="0"/></radialGradient><radialGradient id="paint12_radial_4002_2834" cx="0" cy="0" r="1" gradientTransform="rotate(-169.136 6.388 10.772) scale(1.64141 .91814)" gradientUnits="userSpaceOnUse"><stop offset=".525" stop-color="#CC981A"/><stop offset="1" stop-color="#DCB144"/></radialGradient><radialGradient id="paint13_radial_4002_2834" cx="0" cy="0" r="1" gradientTransform="matrix(.678 .80592 -1.4278 1.20118 .1 .257)" gradientUnits="userSpaceOnUse"><stop stop-color="#FFFF50"/><stop offset="1" stop-color="#F6CF1C"/></radialGradient><radialGradient id="paint14_radial_4002_2834" cx="0" cy="0" r="1" gradientTransform="matrix(-2.68749 -3.76563 4.9287 -3.51755 18.1 23.911)" gradientUnits="userSpaceOnUse"><stop stop-color="#5D4364"/><stop offset="1" stop-color="#482949"/></radialGradient><radialGradient id="paint15_radial_4002_2834" cx="0" cy="0" r="1" gradientTransform="matrix(-.39844 0 0 -.91123 15.538 23.763)" gradientUnits="userSpaceOnUse"><stop offset=".244" stop-color="#4A2E4F"/><stop offset="1" stop-color="#4A2E4F" stop-opacity="0"/></radialGradient><radialGradient id="paint16_radial_4002_2834" cx="0" cy="0" r="1" gradientTransform="rotate(112.38 -.17 15.586) scale(1.14905 2.6882)" gradientUnits="userSpaceOnUse"><stop stop-color="#452139"/><stop offset="1" stop-color="#452139" stop-opacity="0"/></radialGradient><radialGradient id="paint17_radial_4002_2834" cx="0" cy="0" r="1" gradientTransform="matrix(1.0625 1.35937 -2.23489 1.7468 15.678 22.02)" gradientUnits="userSpaceOnUse"><stop stop-color="#F28235"/><stop offset="1" stop-color="#FDAC39"/></radialGradient><radialGradient id="paint20_radial_4002_2834" cx="0" cy="0" r="1" gradientTransform="matrix(-.71875 .59375 -.75915 -.91896 17.85 25.161)" gradientUnits="userSpaceOnUse"><stop stop-color="#FFF153"/><stop offset="1" stop-color="#FCA239"/></radialGradient><radialGradient id="paint21_radial_4002_2834" cx="0" cy="0" r="1" gradientTransform="matrix(-.71875 .59375 -.75915 -.91896 17.85 28.161)" gradientUnits="userSpaceOnUse"><stop stop-color="#FFF153"/><stop offset="1" stop-color="#FCA239"/></radialGradient><radialGradient id="paint22_radial_4002_2834" cx="0" cy="0" r="1" gradientTransform="rotate(103.169 4.262 16.707) scale(3.82897 4.54852)" gradientUnits="userSpaceOnUse"><stop offset=".043" stop-color="#FFC135"/><stop offset="1" stop-color="#E26839"/></radialGradient><radialGradient id="paint23_radial_4002_2834" cx="0" cy="0" r="1" gradientTransform="rotate(53.902 -5.978 28.727) scale(.49786 .42293)" gradientUnits="userSpaceOnUse"><stop stop-color="#E18C2A"/><stop offset="1" stop-color="#E18C2A" stop-opacity="0"/></radialGradient><radialGradient id="paint24_radial_4002_2834" cx="0" cy="0" r="1" gradientTransform="matrix(1.33305 3.92345 -1.7834 .60594 10.406 16.48)" gradientUnits="userSpaceOnUse"><stop stop-color="#D57A26"/><stop offset="1" stop-color="#D06A3C"/></radialGradient><radialGradient id="paint25_radial_4002_2834" cx="0" cy="0" r="1" gradientTransform="rotate(72.29 -5.743 15.812) scale(1.04691 .91836)" gradientUnits="userSpaceOnUse"><stop offset=".263" stop-color="#BE691E"/><stop offset=".977" stop-color="#BE691E" stop-opacity="0"/></radialGradient><radialGradient id="paint26_radial_4002_2834" cx="0" cy="0" r="1" gradientTransform="matrix(-6.11408 0 0 -10.8157 19.647 15.423)" gradientUnits="userSpaceOnUse"><stop stop-color="#FFE846"/><stop offset="1" stop-color="#F5A129"/></radialGradient><radialGradient id="paint27_radial_4002_2834" cx="0" cy="0" r="1" gradientTransform="matrix(0 -2.84375 11.0625 0 15.76 21.99)" gradientUnits="userSpaceOnUse"><stop offset=".082" stop-color="#E27426"/><stop offset="1" stop-color="#FFA041" stop-opacity="0"/></radialGradient><radialGradient id="paint28_radial_4002_2834" cx="0" cy="0" r="1" gradientTransform="matrix(0 -1.41386 1.70221 0 13.862 14.242)" gradientUnits="userSpaceOnUse"><stop offset=".276" stop-color="#F59632"/><stop offset="1" stop-color="#F59632" stop-opacity="0"/></radialGradient><radialGradient id="paint29_radial_4002_2834" cx="0" cy="0" r="1" gradientTransform="matrix(0 -1.53524 1.99125 0 18.442 13.83)" gradientUnits="userSpaceOnUse"><stop offset=".178" stop-color="#FFBE3A"/><stop offset="1" stop-color="#FFBE3A" stop-opacity="0"/></radialGradient><radialGradient id="paint35_radial_4002_2834" cx="0" cy="0" r="1" gradientTransform="rotate(-60.732 23.381 -3.297) scale(.7101 2.06639)" gradientUnits="userSpaceOnUse"><stop stop-color="#FFB534"/><stop offset="1" stop-color="#FFB534" stop-opacity="0"/></radialGradient><radialGradient id="paint36_radial_4002_2834" cx="0" cy="0" r="1" gradientTransform="matrix(0 -.72074 2.89971 0 15.953 18.962)" gradientUnits="userSpaceOnUse"><stop stop-color="#89014E"/><stop offset="1" stop-color="#87004D"/></radialGradient><radialGradient id="paint37_radial_4002_2834" cx="0" cy="0" r="1" gradientTransform="matrix(0 -1.2265 1.34466 0 18.135 15.302)" gradientUnits="userSpaceOnUse"><stop offset=".675" stop-color="#784C4D"/><stop offset="1" stop-color="#543235"/></radialGradient><radialGradient id="paint38_radial_4002_2834" cx="0" cy="0" r="1" gradientTransform="rotate(-127.812 12.526 2.91) scale(.37829 .52081)" gradientUnits="userSpaceOnUse"><stop offset=".766" stop-color="#FFE6E2" stop-opacity="0"/><stop offset=".966" stop-color="#FFE6E2"/></radialGradient><radialGradient id="paint40_radial_4002_2834" cx="0" cy="0" r="1" gradientTransform="matrix(0 -1.22656 1.34473 0 13.771 15.302)" gradientUnits="userSpaceOnUse"><stop offset=".675" stop-color="#784C4D"/><stop offset="1" stop-color="#543235"/></radialGradient><radialGradient id="paint42_radial_4002_2834" cx="0" cy="0" r="1" gradientTransform="matrix(-.00774 -.49408 .59392 -.0093 13.484 14.725)" gradientUnits="userSpaceOnUse"><stop offset=".766" stop-color="#FFE6E2" stop-opacity="0"/><stop offset=".966" stop-color="#FFE6E2"/></radialGradient><radialGradient id="paint44_radial_4002_2834" cx="0" cy="0" r="1" gradientTransform="matrix(.62855 2.24328 -2.14025 .59968 20.57 14.52)" gradientUnits="userSpaceOnUse"><stop offset=".856" stop-color="#E1943D" stop-opacity="0"/><stop offset="1" stop-color="#E08F2E"/></radialGradient><radialGradient id="paint45_radial_4002_2834" cx="0" cy="0" r="1" gradientTransform="matrix(.78778 -1.0811 .90618 .66032 20.93 15.065)" gradientUnits="userSpaceOnUse"><stop offset=".664" stop-color="#FFBD22"/><stop offset="1" stop-color="#FFBD22" stop-opacity="0"/></radialGradient><radialGradient id="paint47_radial_4002_2834" cx="0" cy="0" r="1" gradientTransform="rotate(101.248 -.682 11.73) scale(2.11668 2.08089)" gradientUnits="userSpaceOnUse"><stop offset=".775" stop-color="#C77937" stop-opacity="0"/><stop offset="1" stop-color="#C77937"/></radialGradient><radialGradient id="paint50_radial_4002_2834" cx="0" cy="0" r="1" gradientTransform="matrix(0 -12.3535 18.2706 0 15.953 14.155)" gradientUnits="userSpaceOnUse"><stop offset=".775" stop-color="#403947" stop-opacity="0"/><stop offset="1" stop-color="#403947"/></radialGradient><radialGradient id="paint51_radial_4002_2834" cx="0" cy="0" r="1" gradientTransform="rotate(-179.736 10.798 2.33) scale(6.78132 1.9151)" gradientUnits="userSpaceOnUse"><stop stop-color="#686070"/><stop offset="1" stop-color="#686070" stop-opacity="0"/></radialGradient><radialGradient id="paint55_radial_4002_2834" cx="0" cy="0" r="1" gradientTransform="matrix(0 1.46875 -.51569 0 21.381 16.27)" gradientUnits="userSpaceOnUse"><stop stop-color="#F6DCF7"/><stop offset="1" stop-color="#F6DCF7" stop-opacity="0"/></radialGradient><filter id="filter0_i_4002_2834" width="4.755" height="3.491" x="8.464" y="20.061" color-interpolation-filters="sRGB" filterUnits="userSpaceOnUse"><feFlood flood-opacity="0" result="BackgroundImageFix"/><feBlend in="SourceGraphic" in2="BackgroundImageFix" result="shape"/><feColorMatrix in="SourceAlpha" result="hardAlpha" values="0 0 0 0 0 0 0 0 0 0 0 0 0 0 0 0 0 0 127 0"/><feOffset dx="-.25" dy="-.1"/><feGaussianBlur stdDeviation=".075"/><feComposite in2="hardAlpha" k2="-1" k3="1" operator="arithmetic"/><feColorMatrix values="0 0 0 0 0.262745 0 0 0 0 0.172549 0 0 0 0 0.309804 0 0 0 1 0"/><feBlend in2="shape" result="effect1_innerShadow_4002_2834"/></filter><filter id="filter1_ii_4002_2834" width="4.705" height="3.591" x="18.753" y="19.961" color-interpolation-filters="sRGB" filterUnits="userSpaceOnUse"><feFlood flood-opacity="0" result="BackgroundImageFix"/><feBlend in="SourceGraphic" in2="BackgroundImageFix" result="shape"/><feColorMatrix in="SourceAlpha" result="hardAlpha" values="0 0 0 0 0 0 0 0 0 0 0 0 0 0 0 0 0 0 127 0"/><feOffset dx=".1" dy="-.2"/><feGaussianBlur stdDeviation=".15"/><feComposite in2="hardAlpha" k2="-1" k3="1" operator="arithmetic"/><feColorMatrix values="0 0 0 0 0.270588 0 0 0 0 0.172549 0 0 0 0 0.309804 0 0 0 1 0"/><feBlend in2="shape" result="effect1_innerShadow_4002_2834"/><feColorMatrix in="SourceAlpha" result="hardAlpha" values="0 0 0 0 0 0 0 0 0 0 0 0 0 0 0 0 0 0 127 0"/><feOffset dx=".1" dy="-.05"/><feGaussianBlur stdDeviation=".05"/><feComposite in2="hardAlpha" k2="-1" k3="1" operator="arithmetic"/><feColorMatrix values="0 0 0 0 0.266667 0 0 0 0 0.0666667 0 0 0 0 0.219608 0 0 0 1 0"/><feBlend in2="effect1_innerShadow_4002_2834" result="effect2_innerShadow_4002_2834"/></filter><filter id="filter2_f_4002_2834" width="2.189" height="2.153" x="8.842" y="21.168" color-interpolation-filters="sRGB" filterUnits="userSpaceOnUse"><feFlood flood-opacity="0" result="BackgroundImageFix"/><feBlend in="SourceGraphic" in2="BackgroundImageFix" result="shape"/><feGaussianBlur result="effect1_foregroundBlur_4002_2834" stdDeviation=".25"/></filter><filter id="filter3_f_4002_2834" width="1.692" height="1.595" x="21.111" y="21.394" color-interpolation-filters="sRGB" filterUnits="userSpaceOnUse"><feFlood flood-opacity="0" result="BackgroundImageFix"/><feBlend in="SourceGraphic" in2="BackgroundImageFix" result="shape"/><feGaussianBlur result="effect1_foregroundBlur_4002_2834" stdDeviation=".125"/></filter><filter id="filter4_iii_4002_2834" width="7.744" height="9.694" x="12.072" y="14.827" color-interpolation-filters="sRGB" filterUnits="userSpaceOnUse"><feFlood flood-opacity="0" result="BackgroundImageFix"/><feBlend in="SourceGraphic" in2="BackgroundImageFix" result="shape"/><feColorMatrix in="SourceAlpha" result="hardAlpha" values="0 0 0 0 0 0 0 0 0 0 0 0 0 0 0 0 0 0 127 0"/><feOffset dx="-.1" dy="-.1"/><feGaussianBlur stdDeviation=".075"/><feComposite in2="hardAlpha" k2="-1" k3="1" operator="arithmetic"/><feColorMatrix values="0 0 0 0 0.439216 0 0 0 0 0.384314 0 0 0 0 0.47451 0 0 0 1 0"/><feBlend in2="shape" result="effect1_innerShadow_4002_2834"/><feColorMatrix in="SourceAlpha" result="hardAlpha" values="0 0 0 0 0 0 0 0 0 0 0 0 0 0 0 0 0 0 127 0"/><feOffset dx=".05" dy="-.1"/><feGaussianBlur stdDeviation=".075"/><feComposite in2="hardAlpha" k2="-1" k3="1" operator="arithmetic"/><feColorMatrix values="0 0 0 0 0.439216 0 0 0 0 0.384314 0 0 0 0 0.47451 0 0 0 1 0"/><feBlend in2="effect1_innerShadow_4002_2834" result="effect2_innerShadow_4002_2834"/><feColorMatrix in="SourceAlpha" result="hardAlpha" values="0 0 0 0 0 0 0 0 0 0 0 0 0 0 0 0 0 0 127 0"/><feOffset dy="-.1"/><feGaussianBlur stdDeviation=".05"/><feComposite in2="hardAlpha" k2="-1" k3="1" operator="arithmetic"/><feColorMatrix values="0 0 0 0 0.329412 0 0 0 0 0.172549 0 0 0 0 0.372549 0 0 0 1 0"/><feBlend in2="effect2_innerShadow_4002_2834" result="effect3_innerShadow_4002_2834"/></filter><filter id="filter5_f_4002_2834" width="2.09" height="2.09" x="16.395" y="24.4" color-interpolation-filters="sRGB" filterUnits="userSpaceOnUse"><feFlood flood-opacity="0" result="BackgroundImageFix"/><feBlend in="SourceGraphic" in2="BackgroundImageFix" result="shape"/><feGaussianBlur result="effect1_foregroundBlur_4002_2834" stdDeviation=".25"/></filter><filter id="filter6_f_4002_2834" width="2.09" height="2.09" x="16.395" y="27.4" color-interpolation-filters="sRGB" filterUnits="userSpaceOnUse"><feFlood flood-opacity="0" result="BackgroundImageFix"/><feBlend in="SourceGraphic" in2="BackgroundImageFix" result="shape"/><feGaussianBlur result="effect1_foregroundBlur_4002_2834" stdDeviation=".25"/></filter><filter id="filter7_iiii_4002_2834" width="11.22" height="13.042" x="10.39" y="8.752" color-interpolation-filters="sRGB" filterUnits="userSpaceOnUse"><feFlood flood-opacity="0" result="BackgroundImageFix"/><feBlend in="SourceGraphic" in2="BackgroundImageFix" result="shape"/><feColorMatrix in="SourceAlpha" result="hardAlpha" values="0 0 0 0 0 0 0 0 0 0 0 0 0 0 0 0 0 0 127 0"/><feOffset dx=".5"/><feGaussianBlur stdDeviation=".5"/><feComposite in2="hardAlpha" k2="-1" k3="1" operator="arithmetic"/><feColorMatrix values="0 0 0 0 0.823529 0 0 0 0 0.623529 0 0 0 0 0.313726 0 0 0 1 0"/><feBlend in2="shape" result="effect1_innerShadow_4002_2834"/><feColorMatrix in="SourceAlpha" result="hardAlpha" values="0 0 0 0 0 0 0 0 0 0 0 0 0 0 0 0 0 0 127 0"/><feOffset dy=".2"/><feGaussianBlur stdDeviation=".375"/><feComposite in2="hardAlpha" k2="-1" k3="1" operator="arithmetic"/><feColorMatrix values="0 0 0 0 0.980392 0 0 0 0 0.54902 0 0 0 0 0.0941176 0 0 0 1 0"/><feBlend in2="effect1_innerShadow_4002_2834" result="effect2_innerShadow_4002_2834"/><feColorMatrix in="SourceAlpha" result="hardAlpha" values="0 0 0 0 0 0 0 0 0 0 0 0 0 0 0 0 0 0 127 0"/><feOffset dx="-.5" dy="-.75"/><feGaussianBlur stdDeviation=".25"/><feComposite in2="hardAlpha" k2="-1" k3="1" operator="arithmetic"/><feColorMatrix values="0 0 0 0 0.960784 0 0 0 0 0.603922 0 0 0 0 0.352941 0 0 0 1 0"/><feBlend in2="effect2_innerShadow_4002_2834" result="effect3_innerShadow_4002_2834"/><feColorMatrix in="SourceAlpha" result="hardAlpha" values="0 0 0 0 0 0 0 0 0 0 0 0 0 0 0 0 0 0 127 0"/><feOffset dy="-.25"/><feGaussianBlur stdDeviation=".125"/><feComposite in2="hardAlpha" k2="-1" k3="1" operator="arithmetic"/><feColorMatrix values="0 0 0 0 0.960784 0 0 0 0 0.501961 0 0 0 0 0.329412 0 0 0 1 0"/><feBlend in2="effect3_innerShadow_4002_2834" result="effect4_innerShadow_4002_2834"/></filter><filter id="filter8_f_4002_2834" width="3.877" height="4.9" x="13.807" y="13.598" color-interpolation-filters="sRGB" filterUnits="userSpaceOnUse"><feFlood flood-opacity="0" result="BackgroundImageFix"/><feBlend in="SourceGraphic" in2="BackgroundImageFix" result="shape"/><feGaussianBlur result="effect1_foregroundBlur_4002_2834" stdDeviation=".5"/></filter><filter id="filter9_f_4002_2834" width="2.077" height="3.1" x="14.914" y="14.303" color-interpolation-filters="sRGB" filterUnits="userSpaceOnUse"><feFlood flood-opacity="0" result="BackgroundImageFix"/><feBlend in="SourceGraphic" in2="BackgroundImageFix" result="shape"/><feGaussianBlur result="effect1_foregroundBlur_4002_2834" stdDeviation=".05"/></filter><filter id="filter10_f_4002_2834" width="2.077" height="3.1" x="14.914" y="14.178" color-interpolation-filters="sRGB" filterUnits="userSpaceOnUse"><feFlood flood-opacity="0" result="BackgroundImageFix"/><feBlend in="SourceGraphic" in2="BackgroundImageFix" result="shape"/><feGaussianBlur result="effect1_foregroundBlur_4002_2834" stdDeviation=".05"/></filter><filter id="filter11_f_4002_2834" width="3.718" height="1.573" x="14.094" y="17.723" color-interpolation-filters="sRGB" filterUnits="userSpaceOnUse"><feFlood flood-opacity="0" result="BackgroundImageFix"/><feBlend in="SourceGraphic" in2="BackgroundImageFix" result="shape"/><feGaussianBlur result="effect1_foregroundBlur_4002_2834" stdDeviation=".05"/></filter><filter id="filter12_f_4002_2834" width=".787" height=".696" x="17.401" y="14.066" color-interpolation-filters="sRGB" filterUnits="userSpaceOnUse"><feFlood flood-opacity="0" result="BackgroundImageFix"/><feBlend in="SourceGraphic" in2="BackgroundImageFix" result="shape"/><feGaussianBlur result="effect1_foregroundBlur_4002_2834" stdDeviation=".05"/></filter><filter id="filter13_f_4002_2834" width=".891" height=".913" x="18.241" y="14.142" color-interpolation-filters="sRGB" filterUnits="userSpaceOnUse"><feFlood flood-opacity="0" result="BackgroundImageFix"/><feBlend in="SourceGraphic" in2="BackgroundImageFix" result="shape"/><feGaussianBlur result="effect1_foregroundBlur_4002_2834" stdDeviation=".1"/></filter><filter id="filter14_f_4002_2834" width=".986" height="1.04" x="13.798" y="14.078" color-interpolation-filters="sRGB" filterUnits="userSpaceOnUse"><feFlood flood-opacity="0" result="BackgroundImageFix"/><feBlend in="SourceGraphic" in2="BackgroundImageFix" result="shape"/><feGaussianBlur result="effect1_foregroundBlur_4002_2834" stdDeviation=".1"/></filter><filter id="filter15_f_4002_2834" width=".913" height=".705" x="13.043" y="14.058" color-interpolation-filters="sRGB" filterUnits="userSpaceOnUse"><feFlood flood-opacity="0" result="BackgroundImageFix"/><feBlend in="SourceGraphic" in2="BackgroundImageFix" result="shape"/><feGaussianBlur result="effect1_foregroundBlur_4002_2834" stdDeviation=".05"/></filter><filter id="filter16_f_4002_2834" width="1.329" height="2.379" x="9.92" y="13.975" color-interpolation-filters="sRGB" filterUnits="userSpaceOnUse"><feFlood flood-opacity="0" result="BackgroundImageFix"/><feBlend in="SourceGraphic" in2="BackgroundImageFix" result="shape"/><feGaussianBlur result="effect1_foregroundBlur_4002_2834" stdDeviation=".125"/></filter><filter id="filter17_f_4002_2834" width="1.447" height="2.403" x="20.665" y="13.959" color-interpolation-filters="sRGB" filterUnits="userSpaceOnUse"><feFlood flood-opacity="0" result="BackgroundImageFix"/><feBlend in="SourceGraphic" in2="BackgroundImageFix" result="shape"/><feGaussianBlur result="effect1_foregroundBlur_4002_2834" stdDeviation=".125"/></filter><filter id="filter18_i_4002_2834" width="13.655" height="12.317" x="9.076" y="1.839" color-interpolation-filters="sRGB" filterUnits="userSpaceOnUse"><feFlood flood-opacity="0" result="BackgroundImageFix"/><feBlend in="SourceGraphic" in2="BackgroundImageFix" result="shape"/><feColorMatrix in="SourceAlpha" result="hardAlpha" values="0 0 0 0 0 0 0 0 0 0 0 0 0 0 0 0 0 0 127 0"/><feOffset dx="-.1" dy="-.25"/><feGaussianBlur stdDeviation=".25"/><feComposite in2="hardAlpha" k2="-1" k3="1" operator="arithmetic"/><feColorMatrix values="0 0 0 0 0.282353 0 0 0 0 0.203922 0 0 0 0 0.364706 0 0 0 1 0"/><feBlend in2="shape" result="effect1_innerShadow_4002_2834"/></filter><filter id="filter19_i_4002_2834" width="10.882" height="7.996" x="10.499" y="14.056" color-interpolation-filters="sRGB" filterUnits="userSpaceOnUse"><feFlood flood-opacity="0" result="BackgroundImageFix"/><feBlend in="SourceGraphic" in2="BackgroundImageFix" result="shape"/><feColorMatrix in="SourceAlpha" result="hardAlpha" values="0 0 0 0 0 0 0 0 0 0 0 0 0 0 0 0 0 0 127 0"/><feOffset dy="-.1"/><feGaussianBlur stdDeviation=".1"/><feComposite in2="hardAlpha" k2="-1" k3="1" operator="arithmetic"/><feColorMatrix values="0 0 0 0 0.803922 0 0 0 0 0.635294 0 0 0 0 0.886275 0 0 0 1 0"/><feBlend in2="shape" result="effect1_innerShadow_4002_2834"/></filter><linearGradient id="paint2_linear_4002_2834" x1="9.026" x2="9.233" y1="29.911" y2="29.911" gradientUnits="userSpaceOnUse"><stop stop-color="#C2254A"/><stop offset="1" stop-color="#C2254A" stop-opacity="0"/></linearGradient><linearGradient id="paint3_linear_4002_2834" x1="22.975" x2="22.827" y1="29.911" y2="29.911" gradientUnits="userSpaceOnUse"><stop offset=".118" stop-color="#FC356B"/><stop offset="1" stop-color="#FC356B" stop-opacity="0"/></linearGradient><linearGradient id="paint5_linear_4002_2834" x1="9.397" x2="8.084" y1="29.739" y2="29.739" gradientUnits="userSpaceOnUse"><stop stop-color="#AC394E"/><stop offset="1" stop-color="#C9345B" stop-opacity="0"/></linearGradient><linearGradient id="paint18_linear_4002_2834" x1="15.984" x2="15.984" y1="23.197" y2="29.911" gradientUnits="userSpaceOnUse"><stop stop-color="#DBB8DD"/><stop offset="1" stop-color="#D8BBEB"/></linearGradient><linearGradient id="paint19_linear_4002_2834" x1="16.479" x2="16.147" y1="27.271" y2="27.271" gradientUnits="userSpaceOnUse"><stop stop-color="#EACCEB"/><stop offset="1" stop-color="#EACCEB" stop-opacity="0"/></linearGradient><linearGradient id="paint30_linear_4002_2834" x1="16" x2="16" y1="14.021" y2="15.521" gradientUnits="userSpaceOnUse"><stop stop-color="#EA8526"/><stop offset="1" stop-color="#F7AA2D" stop-opacity="0"/></linearGradient><linearGradient id="paint31_linear_4002_2834" x1="15.953" x2="16.808" y1="16.251" y2="16.251" gradientUnits="userSpaceOnUse"><stop stop-color="#FFC92F"/><stop offset="1" stop-color="#FFEA47"/></linearGradient><linearGradient id="paint32_linear_4002_2834" x1="14.88" x2="15.954" y1="16.096" y2="16.155" gradientUnits="userSpaceOnUse"><stop stop-color="#F49F22"/><stop offset="1" stop-color="#E88830" stop-opacity="0"/><stop offset="1" stop-color="#F49F22" stop-opacity="0"/></linearGradient><linearGradient id="paint33_linear_4002_2834" x1="15.953" x2="15.953" y1="16.65" y2="17.502" gradientUnits="userSpaceOnUse"><stop stop-color="#E88830" stop-opacity="0"/><stop offset=".845" stop-color="#E88830"/></linearGradient><linearGradient id="paint34_linear_4002_2834" x1="15.953" x2="15.953" y1="14.278" y2="15.443" gradientUnits="userSpaceOnUse"><stop stop-color="#F0972A"/><stop offset="1" stop-color="#F0972A" stop-opacity="0"/></linearGradient><linearGradient id="paint39_linear_4002_2834" x1="18.913" x2="18.599" y1="14.56" y2="14.754" gradientUnits="userSpaceOnUse"><stop stop-color="#B4948D"/><stop offset="1" stop-color="#B4948D" stop-opacity="0"/></linearGradient><linearGradient id="paint41_linear_4002_2834" x1="14.515" x2="14.201" y1="14.56" y2="14.754" gradientUnits="userSpaceOnUse"><stop stop-color="#B4948D"/><stop offset="1" stop-color="#B4948D" stop-opacity="0"/></linearGradient><linearGradient id="paint43_linear_4002_2834" x1="22.389" x2="21.182" y1="14.587" y2="16.763" gradientUnits="userSpaceOnUse"><stop stop-color="#FFE343"/><stop offset="1" stop-color="#FFC136"/></linearGradient><linearGradient id="paint46_linear_4002_2834" x1="10.103" x2="11.562" y1="15.291" y2="15.164" gradientUnits="userSpaceOnUse"><stop stop-color="#E39726"/><stop offset="1" stop-color="#D9851D"/></linearGradient><linearGradient id="paint48_linear_4002_2834" x1="19.866" x2="12.584" y1="11.708" y2="11.708" gradientUnits="userSpaceOnUse"><stop stop-color="#5D536A"/><stop offset=".554" stop-color="#4B3C5B"/><stop offset="1" stop-color="#393341"/></linearGradient><linearGradient id="paint49_linear_4002_2834" x1="9.709" x2="12.428" y1="11.989" y2="11.989" gradientUnits="userSpaceOnUse"><stop stop-color="#4D4C50"/><stop offset="1" stop-color="#393341" stop-opacity="0"/></linearGradient><linearGradient id="paint52_linear_4002_2834" x1="16.538" x2="16.538" y1="14.155" y2="13.88" gradientUnits="userSpaceOnUse"><stop stop-color="#462659"/><stop offset="1" stop-color="#462659" stop-opacity="0"/></linearGradient><linearGradient id="paint53_linear_4002_2834" x1="21.116" x2="15.022" y1="18.489" y2="18.489" gradientUnits="userSpaceOnUse"><stop stop-color="#F6D3F9"/><stop offset="1" stop-color="#E3BBE0"/></linearGradient><linearGradient id="paint54_linear_4002_2834" x1="15.94" x2="15.94" y1="13.927" y2="15.458" gradientUnits="userSpaceOnUse"><stop stop-color="#CC9BD2"/><stop offset="1" stop-color="#E5BDE2" stop-opacity="0"/></linearGradient></defs></svg>