<svg xmlns="http://www.w3.org/2000/svg" width="32" height="32" fill="none" viewBox="0 0 32 32"><g filter="url(#filter0_i_4002_3103)"><path fill="url(#paint0_linear_4002_3103)" d="M6.954 21.69a3.06 3.06 0 1 0 0-6.12 3.06 3.06 0 0 0 0 6.12Z"/></g><path fill="url(#paint1_radial_4002_3103)" d="M6.954 21.69a3.06 3.06 0 1 0 0-6.12 3.06 3.06 0 0 0 0 6.12Z"/><g filter="url(#filter1_i_4002_3103)"><path fill="url(#paint2_radial_4002_3103)" d="M25.046 21.69a3.06 3.06 0 1 0 0-6.12 3.06 3.06 0 0 0 0 6.12Z"/><path fill="url(#paint3_radial_4002_3103)" d="M25.046 21.69a3.06 3.06 0 1 0 0-6.12 3.06 3.06 0 0 0 0 6.12Z"/></g><g filter="url(#filter2_f_4002_3103)"><path fill="#B38574" d="M25.046 20.673a2.043 2.043 0 1 0 0-4.085 2.043 2.043 0 0 0 0 4.085Z"/><path fill="url(#paint4_radial_4002_3103)" d="M25.046 20.673a2.043 2.043 0 1 0 0-4.085 2.043 2.043 0 0 0 0 4.085Z"/></g><g filter="url(#filter3_f_4002_3103)"><path fill="#7E555A" d="M6.99 20.673a2.043 2.043 0 1 0 0-4.085 2.043 2.043 0 0 0 0 4.085Z"/><path fill="url(#paint5_radial_4002_3103)" d="M6.99 20.673a2.043 2.043 0 1 0 0-4.085 2.043 2.043 0 0 0 0 4.085Z"/></g><g filter="url(#filter4_i_4002_3103)"><path fill="url(#paint6_radial_4002_3103)" d="m25.358 14.492-.02.25a.32.32 0 0 0 .02 0l-.028 6.334c-.235 5.33-4.397 8.908-9.477 8.908s-9.243-3.579-9.477-8.908l-.095-6.028c.002-.07 0-.156-.006-.255l.038.031-.001-.166c-.007-.59-.02-1.727.477-2.47.801-1.196 1.711-1.285 2.601-1.285h12.96c2.465 0 3.081 1.796 3.081 2.694l-.052.646-.02.031v.218Z"/><path fill="url(#paint7_radial_4002_3103)" d="m25.358 14.492-.02.25a.32.32 0 0 0 .02 0l-.028 6.334c-.235 5.33-4.397 8.908-9.477 8.908s-9.243-3.579-9.477-8.908l-.095-6.028c.002-.07 0-.156-.006-.255l.038.031-.001-.166c-.007-.59-.02-1.727.477-2.47.801-1.196 1.711-1.285 2.601-1.285h12.96c2.465 0 3.081 1.796 3.081 2.694l-.052.646-.02.031v.218Z"/><path fill="url(#paint8_radial_4002_3103)" d="m25.358 14.492-.02.25a.32.32 0 0 0 .02 0l-.028 6.334c-.235 5.33-4.397 8.908-9.477 8.908s-9.243-3.579-9.477-8.908l-.095-6.028c.002-.07 0-.156-.006-.255l.038.031-.001-.166c-.007-.59-.02-1.727.477-2.47.801-1.196 1.711-1.285 2.601-1.285h12.96c2.465 0 3.081 1.796 3.081 2.694l-.052.646-.02.031v.218Z"/><path fill="url(#paint9_radial_4002_3103)" d="m25.358 14.492-.02.25a.32.32 0 0 0 .02 0l-.028 6.334c-.235 5.33-4.397 8.908-9.477 8.908s-9.243-3.579-9.477-8.908l-.095-6.028c.002-.07 0-.156-.006-.255l.038.031-.001-.166c-.007-.59-.02-1.727.477-2.47.801-1.196 1.711-1.285 2.601-1.285h12.96c2.465 0 3.081 1.796 3.081 2.694l-.052.646-.02.031v.218Z"/><path fill="url(#paint10_radial_4002_3103)" d="m25.358 14.492-.02.25a.32.32 0 0 0 .02 0l-.028 6.334c-.235 5.33-4.397 8.908-9.477 8.908s-9.243-3.579-9.477-8.908l-.095-6.028c.002-.07 0-.156-.006-.255l.038.031-.001-.166c-.007-.59-.02-1.727.477-2.47.801-1.196 1.711-1.285 2.601-1.285h12.96c2.465 0 3.081 1.796 3.081 2.694l-.052.646-.02.031v.218Z"/><path fill="url(#paint11_radial_4002_3103)" d="m25.358 14.492-.02.25a.32.32 0 0 0 .02 0l-.028 6.334c-.235 5.33-4.397 8.908-9.477 8.908s-9.243-3.579-9.477-8.908l-.095-6.028c.002-.07 0-.156-.006-.255l.038.031-.001-.166c-.007-.59-.02-1.727.477-2.47.801-1.196 1.711-1.285 2.601-1.285h12.96c2.465 0 3.081 1.796 3.081 2.694l-.052.646-.02.031v.218Z"/><path fill="url(#paint12_radial_4002_3103)" d="m25.358 14.492-.02.25a.32.32 0 0 0 .02 0l-.028 6.334c-.235 5.33-4.397 8.908-9.477 8.908s-9.243-3.579-9.477-8.908l-.095-6.028c.002-.07 0-.156-.006-.255l.038.031-.001-.166c-.007-.59-.02-1.727.477-2.47.801-1.196 1.711-1.285 2.601-1.285h12.96c2.465 0 3.081 1.796 3.081 2.694l-.052.646-.02.031v.218Z"/><path fill="url(#paint13_radial_4002_3103)" d="m25.358 14.492-.02.25a.32.32 0 0 0 .02 0l-.028 6.334c-.235 5.33-4.397 8.908-9.477 8.908s-9.243-3.579-9.477-8.908l-.095-6.028c.002-.07 0-.156-.006-.255l.038.031-.001-.166c-.007-.59-.02-1.727.477-2.47.801-1.196 1.711-1.285 2.601-1.285h12.96c2.465 0 3.081 1.796 3.081 2.694l-.052.646-.02.031v.218Z"/><path fill="url(#paint14_radial_4002_3103)" d="m25.358 14.492-.02.25a.32.32 0 0 0 .02 0l-.028 6.334c-.235 5.33-4.397 8.908-9.477 8.908s-9.243-3.579-9.477-8.908l-.095-6.028c.002-.07 0-.156-.006-.255l.038.031-.001-.166c-.007-.59-.02-1.727.477-2.47.801-1.196 1.711-1.285 2.601-1.285h12.96c2.465 0 3.081 1.796 3.081 2.694l-.052.646-.02.031v.218Z"/></g><path fill="url(#paint15_radial_4002_3103)" d="m25.358 14.492-.02.25a.32.32 0 0 0 .02 0l-.028 6.334c-.235 5.33-4.397 8.908-9.477 8.908s-9.243-3.579-9.477-8.908l-.095-6.028c.002-.07 0-.156-.006-.255l.038.031-.001-.166c-.007-.59-.02-1.727.477-2.47.801-1.196 1.711-1.285 2.601-1.285h12.96c2.465 0 3.081 1.796 3.081 2.694l-.052.646-.02.031v.218Z"/><g filter="url(#filter5_f_4002_3103)"><path fill="#88555F" d="m15.119 18.207-1.3 3.233c-.207.665.288 1.33.99 1.33h1.495c.702 0 1.197-.675.99-1.33l-1.01-3.233c-.217-.716-.938-.716-1.165 0Z"/></g><g filter="url(#filter6_f_4002_3103)"><path fill="#B38578" d="m15.138 17.944-1.01 3.233c-.207.665.288 1.33.99 1.33h1.495c.701 0 1.197-.675.99-1.33l-1.01-3.233c-.217-.716-1.228-.716-1.455 0Z"/><path fill="url(#paint16_radial_4002_3103)" d="m15.138 17.944-1.01 3.233c-.207.665.288 1.33.99 1.33h1.495c.701 0 1.197-.675.99-1.33l-1.01-3.233c-.217-.716-1.228-.716-1.455 0Z"/><path fill="url(#paint17_linear_4002_3103)" d="m15.138 17.944-1.01 3.233c-.207.665.288 1.33.99 1.33h1.495c.701 0 1.197-.675.99-1.33l-1.01-3.233c-.217-.716-1.228-.716-1.455 0Z"/><path fill="url(#paint18_linear_4002_3103)" d="m15.138 17.944-1.01 3.233c-.207.665.288 1.33.99 1.33h1.495c.701 0 1.197-.675.99-1.33l-1.01-3.233c-.217-.716-1.228-.716-1.455 0Z"/><path fill="url(#paint19_radial_4002_3103)" d="m15.138 17.944-1.01 3.233c-.207.665.288 1.33.99 1.33h1.495c.701 0 1.197-.675.99-1.33l-1.01-3.233c-.217-.716-1.228-.716-1.455 0Z"/></g><g filter="url(#filter7_f_4002_3103)"><path stroke="url(#paint20_linear_4002_3103)" stroke-width=".2" d="M15.865 24.168c-.99 0-1.921-.238-2.703-.655-.268-.14-.555.168-.387.417a3.674 3.674 0 0 0 3.09 1.688 3.674 3.674 0 0 0 3.09-1.688c.168-.259-.119-.557-.386-.418a5.73 5.73 0 0 1-2.704.656Z"/></g><path fill="#88024E" d="M15.865 24.168c-.99 0-1.921-.238-2.703-.655-.268-.14-.555.168-.387.417a3.674 3.674 0 0 0 3.09 1.688 3.674 3.674 0 0 0 3.09-1.688c.168-.259-.119-.557-.386-.418a5.73 5.73 0 0 1-2.704.656Z"/><g filter="url(#filter8_i_4002_3103)"><path fill="#2F2C32" d="M18.037 17.548c.505-.887 1.273-1.588 2.924-1.588.723 0 1.42.2 2.04.7.512.414.443.942.047 1.14l-1.057.604c-1.24-.4-2.61-.455-3.954-.856Z"/></g><g filter="url(#filter9_i_4002_3103)"><path fill="#27232A" d="M13.694 17.548c-.505-.887-1.272-1.588-2.924-1.588-.723 0-1.42.2-2.04.7-.512.414-.443.942-.047 1.14l1.057.604c1.24-.4 2.61-.455 3.954-.856Z"/></g><g filter="url(#filter10_i_4002_3103)"><path fill="#432A28" d="m9.404 15.25-.008.004h-.001a.51.51 0 0 1-.524-.875h.001l.002-.002.006-.003.018-.01c.014-.009.035-.02.061-.034a6.236 6.236 0 0 1 1-.42c.647-.206 1.551-.38 2.527-.207a.51.51 0 0 1-.177 1.004c-.759-.134-1.487-.001-2.039.175a5.192 5.192 0 0 0-.866.367Z"/></g><g filter="url(#filter11_i_4002_3103)"><path fill="#432A28" fill-rule="evenodd" d="m22.962 14.38-.262.437.262-.438a.51.51 0 0 1-.524.875l-.009-.005a2.71 2.71 0 0 0-.215-.11 5.193 5.193 0 0 0-.651-.257c-.552-.176-1.28-.309-2.039-.175a.51.51 0 0 1-.177-1.005c.976-.172 1.88.002 2.526.208a6.232 6.232 0 0 1 1 .42.874.874 0 0 1 .062.034l.018.01.006.003.002.002h.001Z" clip-rule="evenodd"/></g><path fill="#fff" d="M20.413 16.071c1.242 0 2.29.857 2.576 2.014a.521.521 0 0 1-.509.648h-4.243a.438.438 0 0 1-.432-.517 2.658 2.658 0 0 1 2.608-2.145Z"/><path fill="url(#paint21_radial_4002_3103)" d="M20.019 16.588a1.697 1.697 0 0 1 1.636 2.145h-3.28a1.743 1.743 0 0 1-.061-.448c0-.933.764-1.697 1.705-1.697Z"/><path fill="#000" d="M19.047 18.285c0-.54.432-.972.972-.972s.972.432.972.972a.959.959 0 0 1-.108.448h-1.72a.878.878 0 0 1-.116-.448Z"/><g filter="url(#filter12_f_4002_3103)"><path fill="#C7A7A3" d="M19.894 16.947c.121.162-.132.359-.42.574-.287.214-.5.366-.62.204-.121-.162.013-.467.3-.682.288-.215.62-.258.74-.096Z"/><path fill="url(#paint22_radial_4002_3103)" d="M19.894 16.947c.121.162-.132.359-.42.574-.287.214-.5.366-.62.204-.121-.162.013-.467.3-.682.288-.215.62-.258.74-.096Z"/></g><g filter="url(#filter13_f_4002_3103)"><path fill="url(#paint23_linear_4002_3103)" d="M21.53 18.062a1.597 1.597 0 0 0-.44-.88l-.493.542.223.434.71-.096Z"/></g><path fill="#fff" d="M11.318 16.07a2.656 2.656 0 0 0-2.577 2.014.521.521 0 0 0 .51.648h4.243c.27 0 .486-.247.432-.517a2.665 2.665 0 0 0-2.608-2.144Z"/><path fill="url(#paint24_radial_4002_3103)" d="M11.712 16.588a1.697 1.697 0 0 0-1.636 2.145h3.279c.038-.147.062-.294.062-.448a1.709 1.709 0 0 0-1.705-1.697Z"/><path fill="#000" d="M12.684 18.285a.968.968 0 0 0-.972-.972.968.968 0 0 0-.972.972c0 .162.038.316.108.448h1.72a.964.964 0 0 0 .116-.448Z"/><g filter="url(#filter14_f_4002_3103)"><path fill="url(#paint25_linear_4002_3103)" d="M13.262 18.086c0-.549-.446-.914-.566-1.025l-.549.53.338.688.777-.193Z"/></g><g filter="url(#filter15_f_4002_3103)" transform="rotate(-27.914 11.2 17.313)"><ellipse cx="11.2" cy="17.313" fill="#C7A7A3" fill-opacity=".9" rx=".741" ry=".375"/><ellipse cx="11.2" cy="17.313" fill="url(#paint26_radial_4002_3103)" rx=".741" ry=".375"/></g><g filter="url(#filter16_f_4002_3103)"><path stroke="#5B4545" stroke-linecap="round" stroke-width=".2" d="M19.554 14.118c.614-.15 2.139-.075 3.159.655"/></g><g filter="url(#filter17_f_4002_3103)"><path stroke="#5B4545" stroke-linecap="round" stroke-width=".2" d="M12.344 14.118c-.613-.15-2.138-.075-3.158.655"/></g><path fill="url(#paint27_radial_4002_3103)" d="M4.552 10.644c.193 2.806 1.397 3.89 1.761 4.18 0-.515-.074-1.815.476-2.636.801-1.196 1.711-1.285 2.601-1.285h12.96c2.465 0 3.081 1.796 3.081 2.694l-.093 1.146c.217 0 .866-.237 1.115-.728.65-1.285 1.068-3.963 1.161-5.527.093-1.564.031-2.764-1.192-4.452-.979-1.35-2.795-2.02-4.42-2.02H10.45c-3.712 0-4.678 1.406-5.42 2.8-.594 1.114-.675 2.2-.674 2.843 0 .759.012 2.128.195 2.985Z"/><path fill="url(#paint28_radial_4002_3103)" d="M4.552 10.644c.193 2.806 1.397 3.89 1.761 4.18 0-.515-.074-1.815.476-2.636.801-1.196 1.711-1.285 2.601-1.285h12.96c2.465 0 3.081 1.796 3.081 2.694l-.093 1.146c.217 0 .866-.237 1.115-.728.65-1.285 1.068-3.963 1.161-5.527.093-1.564.031-2.764-1.192-4.452-.979-1.35-2.795-2.02-4.42-2.02H10.45c-3.712 0-4.678 1.406-5.42 2.8-.594 1.114-.675 2.2-.674 2.843 0 .759.012 2.128.195 2.985Z"/><path fill="url(#paint29_radial_4002_3103)" d="M4.552 10.644c.193 2.806 1.397 3.89 1.761 4.18 0-.515-.074-1.815.476-2.636.801-1.196 1.711-1.285 2.601-1.285h12.96c2.465 0 3.081 1.796 3.081 2.694l-.093 1.146c.217 0 .866-.237 1.115-.728.65-1.285 1.068-3.963 1.161-5.527.093-1.564.031-2.764-1.192-4.452-.979-1.35-2.795-2.02-4.42-2.02H10.45c-3.712 0-4.678 1.406-5.42 2.8-.594 1.114-.675 2.2-.674 2.843 0 .759.012 2.128.195 2.985Z"/><g filter="url(#filter18_i_4002_3103)"><path fill="url(#paint30_radial_4002_3103)" d="m20.417 2.016.055 2.427c1.224-.031 3.562.082 5.578 1.227.85.482 1.29.992 1.574 1.413-.073-.969-.366-1.894-1.202-3.047-.979-1.35-2.795-2.02-4.42-2.02h-1.585Z"/><path fill="url(#paint31_radial_4002_3103)" d="m20.417 2.016.055 2.427c1.224-.031 3.562.082 5.578 1.227.85.482 1.29.992 1.574 1.413-.073-.969-.366-1.894-1.202-3.047-.979-1.35-2.795-2.02-4.42-2.02h-1.585Z"/></g><g filter="url(#filter19_ii_4002_3103)"><path fill="url(#paint32_linear_4002_3103)" d="M26.99 12.483c.005-1.482-1.085-2.607-1.93-3.105-1.34-.79-3.268-1.004-4.104-.999H19.47l-4.955.805.256 1.719h7.579c2.465 0 3.102 1.792 3.043 2.694l-.055 1.146c.217 0 .866-.237 1.115-.728.203-.4.383-.937.537-1.532Z"/></g><path fill="url(#paint33_radial_4002_3103)" d="M26.99 12.483c.005-1.482-1.085-2.607-1.93-3.105-1.34-.79-3.268-1.004-4.104-.999H19.47l-4.955.805.256 1.719h7.579c2.465 0 3.102 1.792 3.043 2.694l-.055 1.146c.217 0 .866-.237 1.115-.728.203-.4.383-.937.537-1.532Z"/><path fill="url(#paint34_radial_4002_3103)" d="M26.99 12.483c.005-1.482-1.085-2.607-1.93-3.105-1.34-.79-3.268-1.004-4.104-.999H19.47l-4.955.805.256 1.719h7.579c2.465 0 3.102 1.792 3.043 2.694l-.055 1.146c.217 0 .866-.237 1.115-.728.203-.4.383-.937.537-1.532Z"/><path fill="url(#paint35_radial_4002_3103)" d="M26.99 12.483c.005-1.482-1.085-2.607-1.93-3.105-1.34-.79-3.268-1.004-4.104-.999H19.47l-4.955.805.256 1.719h7.579c2.465 0 3.102 1.792 3.043 2.694l-.055 1.146c.217 0 .866-.237 1.115-.728.203-.4.383-.937.537-1.532Z"/><g filter="url(#filter20_i_4002_3103)"><path fill="url(#paint36_radial_4002_3103)" d="M20.946 2.016c.357 1.961.193 4.54-1.02 6.425-.921 1.434-2.18 2.462-3.472 2.462H9.39c-.89 0-1.8.09-2.6 1.285-.499.743-.485 1.88-.478 2.47l.001.166c-.364-.29-1.568-1.374-1.761-4.18-.183-.857-.196-2.226-.195-2.985 0-.642.08-1.73.673-2.844.743-1.393 1.71-2.8 5.42-2.8h10.496Z"/></g><path fill="url(#paint37_radial_4002_3103)" d="M20.946 2.016c.357 1.961.193 4.54-1.02 6.425-.921 1.434-2.18 2.462-3.472 2.462H9.39c-.89 0-1.8.09-2.6 1.285-.499.743-.485 1.88-.478 2.47l.001.166c-.364-.29-1.568-1.374-1.761-4.18-.183-.857-.196-2.226-.195-2.985 0-.642.08-1.73.673-2.844.743-1.393 1.71-2.8 5.42-2.8h10.496Z"/><path fill="url(#paint38_radial_4002_3103)" d="M20.946 2.016c.357 1.961.193 4.54-1.02 6.425-.921 1.434-2.18 2.462-3.472 2.462H9.39c-.89 0-1.8.09-2.6 1.285-.499.743-.485 1.88-.478 2.47l.001.166c-.364-.29-1.568-1.374-1.761-4.18-.183-.857-.196-2.226-.195-2.985 0-.642.08-1.73.673-2.844.743-1.393 1.71-2.8 5.42-2.8h10.496Z"/><path fill="url(#paint39_radial_4002_3103)" d="M20.946 2.016c.357 1.961.193 4.54-1.02 6.425-.921 1.434-2.18 2.462-3.472 2.462H9.39c-.89 0-1.8.09-2.6 1.285-.499.743-.485 1.88-.478 2.47l.001.166c-.364-.29-1.568-1.374-1.761-4.18-.183-.857-.196-2.226-.195-2.985 0-.642.08-1.73.673-2.844.743-1.393 1.71-2.8 5.42-2.8h10.496Z"/><path fill="url(#paint40_radial_4002_3103)" d="M20.946 2.016c.357 1.961.193 4.54-1.02 6.425-.921 1.434-2.18 2.462-3.472 2.462H9.39c-.89 0-1.8.09-2.6 1.285-.499.743-.485 1.88-.478 2.47l.001.166c-.364-.29-1.568-1.374-1.761-4.18-.183-.857-.196-2.226-.195-2.985 0-.642.08-1.73.673-2.844.743-1.393 1.71-2.8 5.42-2.8h10.496Z"/><path fill="url(#paint41_radial_4002_3103)" d="M20.946 2.016c.357 1.961.193 4.54-1.02 6.425-.921 1.434-2.18 2.462-3.472 2.462H9.39c-.89 0-1.8.09-2.6 1.285-.499.743-.485 1.88-.478 2.47l.001.166c-.364-.29-1.568-1.374-1.761-4.18-.183-.857-.196-2.226-.195-2.985 0-.642.08-1.73.673-2.844.743-1.393 1.71-2.8 5.42-2.8h10.496Z"/><g filter="url(#filter21_i_4002_3103)"><path fill="url(#paint42_radial_4002_3103)" d="M4.542 10.595c.457-.912 1.614-2.206 5.677-2.626.406-.042 1.003-.06 1.672-.08 1.666-.05 3.775-.113 4.482-.594.933-.445 1.973-3.245 1.54-5.28h-5.97l-6.989 2.95c-.524 1.062-.598 2.081-.597 2.695 0 .745.012 2.077.185 2.936Z"/><path fill="url(#paint43_radial_4002_3103)" d="M4.542 10.595c.457-.912 1.614-2.206 5.677-2.626.406-.042 1.003-.06 1.672-.08 1.666-.05 3.775-.113 4.482-.594.933-.445 1.973-3.245 1.54-5.28h-5.97l-6.989 2.95c-.524 1.062-.598 2.081-.597 2.695 0 .745.012 2.077.185 2.936Z"/><path fill="url(#paint44_linear_4002_3103)" d="M4.542 10.595c.457-.912 1.614-2.206 5.677-2.626.406-.042 1.003-.06 1.672-.08 1.666-.05 3.775-.113 4.482-.594.933-.445 1.973-3.245 1.54-5.28h-5.97l-6.989 2.95c-.524 1.062-.598 2.081-.597 2.695 0 .745.012 2.077.185 2.936Z"/><path fill="url(#paint45_radial_4002_3103)" d="M4.542 10.595c.457-.912 1.614-2.206 5.677-2.626.406-.042 1.003-.06 1.672-.08 1.666-.05 3.775-.113 4.482-.594.933-.445 1.973-3.245 1.54-5.28h-5.97l-6.989 2.95c-.524 1.062-.598 2.081-.597 2.695 0 .745.012 2.077.185 2.936Z"/><path fill="url(#paint46_radial_4002_3103)" d="M4.542 10.595c.457-.912 1.614-2.206 5.677-2.626.406-.042 1.003-.06 1.672-.08 1.666-.05 3.775-.113 4.482-.594.933-.445 1.973-3.245 1.54-5.28h-5.97l-6.989 2.95c-.524 1.062-.598 2.081-.597 2.695 0 .745.012 2.077.185 2.936Z"/></g><g filter="url(#filter22_ii_4002_3103)"><path fill="url(#paint47_radial_4002_3103)" d="M4.357 7.752c.557-.67 1.563-1.613 2.897-1.974 1.879-.509 4.835-.733 6.069-.82.45.025 1.556-.442 1.556-1.61 0-.434-.016-.89-.053-1.332H10.45c-3.712 0-4.678 1.406-5.42 2.8-.594 1.114-.675 2.2-.674 2.843v.093Z"/></g><path fill="url(#paint48_radial_4002_3103)" d="M4.357 7.752c.557-.67 1.563-1.613 2.897-1.974 1.879-.509 4.835-.733 6.069-.82.45.025 1.556-.442 1.556-1.61 0-.434-.016-.89-.053-1.332H10.45c-3.712 0-4.678 1.406-5.42 2.8-.594 1.114-.675 2.2-.674 2.843v.093Z"/><path fill="url(#paint49_radial_4002_3103)" d="M4.357 7.752c.557-.67 1.563-1.613 2.897-1.974 1.879-.509 4.835-.733 6.069-.82.45.025 1.556-.442 1.556-1.61 0-.434-.016-.89-.053-1.332H10.45c-3.712 0-4.678 1.406-5.42 2.8-.594 1.114-.675 2.2-.674 2.843v.093Z"/><defs><radialGradient id="paint1_radial_4002_3103" cx="0" cy="0" r="1" gradientTransform="rotate(-118.51 9.554 9) scale(2.60459 2.95135)" gradientUnits="userSpaceOnUse"><stop stop-color="#814E62"/><stop offset="1" stop-color="#814E62" stop-opacity="0"/></radialGradient><radialGradient id="paint2_radial_4002_3103" cx="0" cy="0" r="1" gradientTransform="matrix(4.73368 -2.15168 2.6271 5.7796 23.548 19.466)" gradientUnits="userSpaceOnUse"><stop offset=".64" stop-color="#B28279"/><stop offset="1" stop-color="#CCA58B"/></radialGradient><radialGradient id="paint3_radial_4002_3103" cx="0" cy="0" r="1" gradientTransform="matrix(2.29512 0 0 .98818 25.269 15.385)" gradientUnits="userSpaceOnUse"><stop stop-color="#906D53"/><stop offset="1" stop-color="#906D53" stop-opacity="0"/></radialGradient><radialGradient id="paint4_radial_4002_3103" cx="0" cy="0" r="1" gradientTransform="matrix(2.87152 -.2136 .16697 2.24473 24.217 18.844)" gradientUnits="userSpaceOnUse"><stop offset=".719" stop-color="#A26D62" stop-opacity="0"/><stop offset="1" stop-color="#A26D62"/></radialGradient><radialGradient id="paint5_radial_4002_3103" cx="0" cy="0" r="1" gradientTransform="rotate(180 3.558 9.315) scale(2.00823)" gradientUnits="userSpaceOnUse"><stop offset=".722" stop-color="#6C4640" stop-opacity="0"/><stop offset="1" stop-color="#6C4640"/></radialGradient><radialGradient id="paint6_radial_4002_3103" cx="0" cy="0" r="1" gradientTransform="matrix(-12.3685 5.70352 -7.63407 -16.55501 21.303 17.608)" gradientUnits="userSpaceOnUse"><stop stop-color="#C79980"/><stop offset="1" stop-color="#946568"/></radialGradient><radialGradient id="paint7_radial_4002_3103" cx="0" cy="0" r="1" gradientTransform="matrix(-4.14646 1.82457 -1.2706 -2.88753 19.613 19.232)" gradientUnits="userSpaceOnUse"><stop stop-color="#C4967A"/><stop offset="1" stop-color="#C4967A" stop-opacity="0"/></radialGradient><radialGradient id="paint8_radial_4002_3103" cx="0" cy="0" r="1" gradientTransform="rotate(-71.832 26.575 6.879) scale(7.86295 9.97663)" gradientUnits="userSpaceOnUse"><stop stop-color="#945A73"/><stop offset="1" stop-color="#945A73" stop-opacity="0"/></radialGradient><radialGradient id="paint9_radial_4002_3103" cx="0" cy="0" r="1" gradientTransform="matrix(0 13.2025 -16.503 0 15.853 17.088)" gradientUnits="userSpaceOnUse"><stop offset=".633" stop-color="#996173" stop-opacity="0"/><stop offset="1" stop-color="#9E5F91"/></radialGradient><radialGradient id="paint10_radial_4002_3103" cx="0" cy="0" r="1" gradientTransform="rotate(168.15 8.57 11.452) scale(12.9713 22.3327)" gradientUnits="userSpaceOnUse"><stop offset=".819" stop-color="#A47A6B" stop-opacity="0"/><stop offset="1" stop-color="#A47A6B"/></radialGradient><radialGradient id="paint11_radial_4002_3103" cx="0" cy="0" r="1" gradientTransform="matrix(0 -2.18853 2.68593 0 20.242 16.813)" gradientUnits="userSpaceOnUse"><stop stop-color="#AE7B75"/><stop offset="1" stop-color="#AE7B75" stop-opacity="0"/></radialGradient><radialGradient id="paint12_radial_4002_3103" cx="0" cy="0" r="1" gradientTransform="matrix(0 -2.49614 2.86074 0 11.916 16.378)" gradientUnits="userSpaceOnUse"><stop stop-color="#8F5C65"/><stop offset="1" stop-color="#8F5C65" stop-opacity="0"/></radialGradient><radialGradient id="paint13_radial_4002_3103" cx="0" cy="0" r="1" gradientTransform="rotate(105.092 4.495 13.288) scale(6.35584 5.08572)" gradientUnits="userSpaceOnUse"><stop stop-color="#AB8179"/><stop offset="1" stop-color="#AB8179" stop-opacity="0"/></radialGradient><radialGradient id="paint14_radial_4002_3103" cx="0" cy="0" r="1" gradientTransform="matrix(4.58945 -5.12383 1.16012 1.03913 5.796 12.813)" gradientUnits="userSpaceOnUse"><stop stop-color="#643446"/><stop offset="1" stop-color="#643446" stop-opacity="0"/></radialGradient><radialGradient id="paint15_radial_4002_3103" cx="0" cy="0" r="1" gradientTransform="matrix(-2.416 0 0 -11.3076 25.431 20.444)" gradientUnits="userSpaceOnUse"><stop stop-color="#C0967A"/><stop offset="1" stop-color="#C0967A" stop-opacity="0"/></radialGradient><radialGradient id="paint16_radial_4002_3103" cx="0" cy="0" r="1" gradientTransform="matrix(-.86635 -3.8873 1.19803 -.267 17.357 21.024)" gradientUnits="userSpaceOnUse"><stop offset=".017" stop-color="#CDA38B"/><stop offset="1" stop-color="#CDA38B" stop-opacity="0"/></radialGradient><radialGradient id="paint19_radial_4002_3103" cx="0" cy="0" r="1" gradientTransform="matrix(-1.48226 0 0 -.4144 16.901 21.426)" gradientUnits="userSpaceOnUse"><stop stop-color="#CA9F8C"/><stop offset="1" stop-color="#CA9F8C" stop-opacity="0"/></radialGradient><radialGradient id="paint21_radial_4002_3103" cx="0" cy="0" r="1" gradientTransform="matrix(0 1.54296 -2.45425 0 20.015 17.495)" gradientUnits="userSpaceOnUse"><stop offset=".802" stop-color="#7D574A"/><stop offset="1" stop-color="#694B43"/><stop offset="1" stop-color="#804D49"/><stop offset="1" stop-color="#664944"/></radialGradient><radialGradient id="paint22_radial_4002_3103" cx="0" cy="0" r="1" gradientTransform="matrix(-.44106 -.56836 .7825 -.60724 19.58 17.656)" gradientUnits="userSpaceOnUse"><stop offset=".766" stop-color="#FFE6E2" stop-opacity="0"/><stop offset=".966" stop-color="#FFE6E2"/></radialGradient><radialGradient id="paint24_radial_4002_3103" cx="0" cy="0" r="1" gradientTransform="matrix(0 1.54297 -2.45427 0 11.716 17.495)" gradientUnits="userSpaceOnUse"><stop offset=".802" stop-color="#7D574A"/><stop offset="1" stop-color="#694B43"/><stop offset="1" stop-color="#804D49"/><stop offset="1" stop-color="#664944"/></radialGradient><radialGradient id="paint26_radial_4002_3103" cx="0" cy="0" r="1" gradientTransform="rotate(-90.897 14.402 3.457) scale(.93972 1.12958)" gradientUnits="userSpaceOnUse"><stop offset=".766" stop-color="#FFE6E2" stop-opacity="0"/><stop offset=".966" stop-color="#FFE6E2"/></radialGradient><radialGradient id="paint27_radial_4002_3103" cx="0" cy="0" r="1" gradientTransform="matrix(-.84218 3.75478 -8.78476 -1.97039 25.881 5.042)" gradientUnits="userSpaceOnUse"><stop stop-color="#F8F6FB"/><stop offset=".789" stop-color="#EBE6F2"/></radialGradient><radialGradient id="paint28_radial_4002_3103" cx="0" cy="0" r="1" gradientTransform="matrix(2.09375 .53125 -1.15317 4.54483 20.347 6.676)" gradientUnits="userSpaceOnUse"><stop offset=".152" stop-color="#CFCAD4"/><stop offset="1" stop-color="#ECE8F1" stop-opacity="0"/></radialGradient><radialGradient id="paint29_radial_4002_3103" cx="0" cy="0" r="1" gradientTransform="matrix(1.5 -2.625 6.33197 3.61827 22.284 10.52)" gradientUnits="userSpaceOnUse"><stop stop-color="#D3CFD9"/><stop offset="1" stop-color="#D3CFD9" stop-opacity="0"/></radialGradient><radialGradient id="paint30_radial_4002_3103" cx="0" cy="0" r="1" gradientTransform="matrix(.17188 2.91016 -14.53547 .85847 21.253 2.016)" gradientUnits="userSpaceOnUse"><stop stop-color="#DBDBDC"/><stop offset="1" stop-color="#FAFAFA"/></radialGradient><radialGradient id="paint31_radial_4002_3103" cx="0" cy="0" r="1" gradientTransform="matrix(1.45313 0 0 5.1925 20.8 3.332)" gradientUnits="userSpaceOnUse"><stop offset=".253" stop-color="#E2DCE8"/><stop offset="1" stop-color="#E2DCE8" stop-opacity="0"/></radialGradient><radialGradient id="paint33_radial_4002_3103" cx="0" cy="0" r="1" gradientTransform="matrix(2.46875 1.71875 -3.03125 4.35398 17.69 9.05)" gradientUnits="userSpaceOnUse"><stop offset=".391" stop-color="#BFB1C9"/><stop offset="1" stop-color="#E0DAE8" stop-opacity="0"/></radialGradient><radialGradient id="paint34_radial_4002_3103" cx="0" cy="0" r="1" gradientTransform="matrix(0 -2.93844 1.49148 0 24.653 14.5)" gradientUnits="userSpaceOnUse"><stop offset=".306" stop-color="#B384B3"/><stop offset="1" stop-color="#B384B3" stop-opacity="0"/></radialGradient><radialGradient id="paint35_radial_4002_3103" cx="0" cy="0" r="1" gradientTransform="matrix(3.71875 0 0 .30337 18.753 8.675)" gradientUnits="userSpaceOnUse"><stop stop-color="#D0CCD3"/><stop offset="1" stop-color="#D0CCD3" stop-opacity="0"/></radialGradient><radialGradient id="paint36_radial_4002_3103" cx="0" cy="0" r="1" gradientTransform="matrix(-4.28125 -.09372 .19553 -8.93238 21.565 5.582)" gradientUnits="userSpaceOnUse"><stop stop-color="#F5F4F6"/><stop offset="1" stop-color="#CFC8D7"/></radialGradient><radialGradient id="paint37_radial_4002_3103" cx="0" cy="0" r="1" gradientTransform="matrix(11.55068 3.52232 -4.80864 15.76891 9.13 5.736)" gradientUnits="userSpaceOnUse"><stop offset=".633" stop-color="#D1CAD9" stop-opacity="0"/><stop offset=".952" stop-color="#F1EDF4"/></radialGradient><radialGradient id="paint38_radial_4002_3103" cx="0" cy="0" r="1" gradientTransform="matrix(1.11064 -4.72815 1.61144 .37853 16.84 4.594)" gradientUnits="userSpaceOnUse"><stop offset=".348" stop-color="#C5C2C8"/><stop offset="1" stop-color="#C5C2C8" stop-opacity="0"/></radialGradient><radialGradient id="paint39_radial_4002_3103" cx="0" cy="0" r="1" gradientTransform="matrix(-.06346 1.33277 -6.75892 -.32185 9.193 7.386)" gradientUnits="userSpaceOnUse"><stop stop-color="#BDBBBE"/><stop offset="1" stop-color="#BDBBBE" stop-opacity="0"/></radialGradient><radialGradient id="paint40_radial_4002_3103" cx="0" cy="0" r="1" gradientTransform="matrix(-13.48639 2.82409 -3.69438 -17.64244 17.539 7.513)" gradientUnits="userSpaceOnUse"><stop offset=".681" stop-color="#BFB7C6" stop-opacity="0"/><stop offset="1" stop-color="#BFB7C6"/></radialGradient><radialGradient id="paint41_radial_4002_3103" cx="0" cy="0" r="1" gradientTransform="matrix(.88851 -3.93483 2.3195 .52376 6.94 14.494)" gradientUnits="userSpaceOnUse"><stop offset=".201" stop-color="#A87B9C"/><stop offset="1" stop-color="#A87B9C" stop-opacity="0"/></radialGradient><radialGradient id="paint42_radial_4002_3103" cx="0" cy="0" r="1" gradientTransform="rotate(137.988 8.553 4.64) scale(9.89862 9.45071)" gradientUnits="userSpaceOnUse"><stop stop-color="#DDDDDE"/><stop offset="1" stop-color="#C0BBC4"/></radialGradient><radialGradient id="paint43_radial_4002_3103" cx="0" cy="0" r="1" gradientTransform="matrix(-1.78125 0 0 -4.75 18.44 3.488)" gradientUnits="userSpaceOnUse"><stop stop-color="#EBEAEC"/><stop offset="1" stop-color="#EBEAEC" stop-opacity="0"/></radialGradient><radialGradient id="paint45_radial_4002_3103" cx="0" cy="0" r="1" gradientTransform="matrix(5.90625 .125 -.02777 1.31192 10.128 4.113)" gradientUnits="userSpaceOnUse"><stop stop-color="#B8B2BE"/><stop offset="1" stop-color="#B8B2BE" stop-opacity="0"/></radialGradient><radialGradient id="paint46_radial_4002_3103" cx="0" cy="0" r="1" gradientTransform="matrix(1.28125 -.09375 .17757 2.4268 14.128 2.457)" gradientUnits="userSpaceOnUse"><stop offset=".256" stop-color="#BBB9BD"/><stop offset="1" stop-color="#BBB9BD" stop-opacity="0"/></radialGradient><radialGradient id="paint47_radial_4002_3103" cx="0" cy="0" r="1" gradientTransform="matrix(-8.06249 1.65631 -3.03846 -14.79042 14.534 2.582)" gradientUnits="userSpaceOnUse"><stop stop-color="#D2D1D3"/><stop offset="1" stop-color="#B5B4B6"/></radialGradient><radialGradient id="paint48_radial_4002_3103" cx="0" cy="0" r="1" gradientTransform="matrix(8.03125 .96875 -1.11478 9.24187 7.253 3.238)" gradientUnits="userSpaceOnUse"><stop offset=".869" stop-color="#A5A0A9" stop-opacity="0"/><stop offset="1" stop-color="#A5A0A9"/></radialGradient><radialGradient id="paint49_radial_4002_3103" cx="0" cy="0" r="1" gradientTransform="matrix(2.71875 -2.3259 1.71042 1.99932 4.597 7.752)" gradientUnits="userSpaceOnUse"><stop stop-color="#BCB7C1"/><stop offset="1" stop-color="#BCB7C1" stop-opacity="0"/></radialGradient><filter id="filter0_i_4002_3103" width="6.27" height="6.12" x="3.894" y="15.57" color-interpolation-filters="sRGB" filterUnits="userSpaceOnUse"><feFlood flood-opacity="0" result="BackgroundImageFix"/><feBlend in="SourceGraphic" in2="BackgroundImageFix" result="shape"/><feColorMatrix in="SourceAlpha" result="hardAlpha" values="0 0 0 0 0 0 0 0 0 0 0 0 0 0 0 0 0 0 127 0"/><feOffset dx=".15"/><feGaussianBlur stdDeviation=".25"/><feComposite in2="hardAlpha" k2="-1" k3="1" operator="arithmetic"/><feColorMatrix values="0 0 0 0 0.607843 0 0 0 0 0.458824 0 0 0 0 0.403922 0 0 0 1 0"/><feBlend in2="shape" result="effect1_innerShadow_4002_3103"/></filter><filter id="filter1_i_4002_3103" width="6.12" height="6.37" x="21.985" y="15.32" color-interpolation-filters="sRGB" filterUnits="userSpaceOnUse"><feFlood flood-opacity="0" result="BackgroundImageFix"/><feBlend in="SourceGraphic" in2="BackgroundImageFix" result="shape"/><feColorMatrix in="SourceAlpha" result="hardAlpha" values="0 0 0 0 0 0 0 0 0 0 0 0 0 0 0 0 0 0 127 0"/><feOffset dy="-.25"/><feGaussianBlur stdDeviation=".25"/><feComposite in2="hardAlpha" k2="-1" k3="1" operator="arithmetic"/><feColorMatrix values="0 0 0 0 0.556863 0 0 0 0 0.34902 0 0 0 0 0.384314 0 0 0 1 0"/><feBlend in2="shape" result="effect1_innerShadow_4002_3103"/></filter><filter id="filter2_f_4002_3103" width="5.085" height="5.085" x="22.503" y="16.088" color-interpolation-filters="sRGB" filterUnits="userSpaceOnUse"><feFlood flood-opacity="0" result="BackgroundImageFix"/><feBlend in="SourceGraphic" in2="BackgroundImageFix" result="shape"/><feGaussianBlur result="effect1_foregroundBlur_4002_3103" stdDeviation=".25"/></filter><filter id="filter3_f_4002_3103" width="4.785" height="4.785" x="4.598" y="16.238" color-interpolation-filters="sRGB" filterUnits="userSpaceOnUse"><feFlood flood-opacity="0" result="BackgroundImageFix"/><feBlend in="SourceGraphic" in2="BackgroundImageFix" result="shape"/><feGaussianBlur result="effect1_foregroundBlur_4002_3103" stdDeviation=".175"/></filter><filter id="filter4_i_4002_3103" width="19.156" height="19.482" x="6.275" y="10.903" color-interpolation-filters="sRGB" filterUnits="userSpaceOnUse"><feFlood flood-opacity="0" result="BackgroundImageFix"/><feBlend in="SourceGraphic" in2="BackgroundImageFix" result="shape"/><feColorMatrix in="SourceAlpha" result="hardAlpha" values="0 0 0 0 0 0 0 0 0 0 0 0 0 0 0 0 0 0 127 0"/><feOffset dy=".4"/><feGaussianBlur stdDeviation=".3"/><feComposite in2="hardAlpha" k2="-1" k3="1" operator="arithmetic"/><feColorMatrix values="0 0 0 0 0.45098 0 0 0 0 0.278431 0 0 0 0 0.317647 0 0 0 1 0"/><feBlend in2="shape" result="effect1_innerShadow_4002_3103"/></filter><filter id="filter5_f_4002_3103" width="4.57" height="6.1" x="13.271" y="17.17" color-interpolation-filters="sRGB" filterUnits="userSpaceOnUse"><feFlood flood-opacity="0" result="BackgroundImageFix"/><feBlend in="SourceGraphic" in2="BackgroundImageFix" result="shape"/><feGaussianBlur result="effect1_foregroundBlur_4002_3103" stdDeviation=".25"/></filter><filter id="filter6_f_4002_3103" width="4.07" height="5.6" x="13.83" y="17.157" color-interpolation-filters="sRGB" filterUnits="userSpaceOnUse"><feFlood flood-opacity="0" result="BackgroundImageFix"/><feBlend in="SourceGraphic" in2="BackgroundImageFix" result="shape"/><feGaussianBlur result="effect1_foregroundBlur_4002_3103" stdDeviation=".125"/></filter><filter id="filter7_f_4002_3103" width="6.68" height="2.541" x="12.525" y="23.277" color-interpolation-filters="sRGB" filterUnits="userSpaceOnUse"><feFlood flood-opacity="0" result="BackgroundImageFix"/><feBlend in="SourceGraphic" in2="BackgroundImageFix" result="shape"/><feGaussianBlur result="effect1_foregroundBlur_4002_3103" stdDeviation=".05"/></filter><filter id="filter8_i_4002_3103" width="5.528" height="2.445" x="17.837" y="15.96" color-interpolation-filters="sRGB" filterUnits="userSpaceOnUse"><feFlood flood-opacity="0" result="BackgroundImageFix"/><feBlend in="SourceGraphic" in2="BackgroundImageFix" result="shape"/><feColorMatrix in="SourceAlpha" result="hardAlpha" values="0 0 0 0 0 0 0 0 0 0 0 0 0 0 0 0 0 0 127 0"/><feOffset dx="-.2"/><feGaussianBlur stdDeviation=".2"/><feComposite in2="hardAlpha" k2="-1" k3="1" operator="arithmetic"/><feColorMatrix values="0 0 0 0 0.117647 0 0 0 0 0.0705882 0 0 0 0 0.156863 0 0 0 1 0"/><feBlend in2="shape" result="effect1_innerShadow_4002_3103"/></filter><filter id="filter9_i_4002_3103" width="5.528" height="2.445" x="8.366" y="15.96" color-interpolation-filters="sRGB" filterUnits="userSpaceOnUse"><feFlood flood-opacity="0" result="BackgroundImageFix"/><feBlend in="SourceGraphic" in2="BackgroundImageFix" result="shape"/><feColorMatrix in="SourceAlpha" result="hardAlpha" values="0 0 0 0 0 0 0 0 0 0 0 0 0 0 0 0 0 0 127 0"/><feOffset dx=".2"/><feGaussianBlur stdDeviation=".125"/><feComposite in2="hardAlpha" k2="-1" k3="1" operator="arithmetic"/><feColorMatrix values="0 0 0 0 0.0862745 0 0 0 0 0.054902 0 0 0 0 0.113725 0 0 0 1 0"/><feBlend in2="shape" result="effect1_innerShadow_4002_3103"/></filter><filter id="filter10_i_4002_3103" width="4.484" height="1.895" x="8.623" y="13.432" color-interpolation-filters="sRGB" filterUnits="userSpaceOnUse"><feFlood flood-opacity="0" result="BackgroundImageFix"/><feBlend in="SourceGraphic" in2="BackgroundImageFix" result="shape"/><feColorMatrix in="SourceAlpha" result="hardAlpha" values="0 0 0 0 0 0 0 0 0 0 0 0 0 0 0 0 0 0 127 0"/><feOffset dx=".2" dy="-.2"/><feGaussianBlur stdDeviation=".15"/><feComposite in2="hardAlpha" k2="-1" k3="1" operator="arithmetic"/><feColorMatrix values="0 0 0 0 0.211765 0 0 0 0 0.121569 0 0 0 0 0.12549 0 0 0 1 0"/><feBlend in2="shape" result="effect1_innerShadow_4002_3103"/></filter><filter id="filter11_i_4002_3103" width="4.484" height="1.895" x="18.926" y="13.432" color-interpolation-filters="sRGB" filterUnits="userSpaceOnUse"><feFlood flood-opacity="0" result="BackgroundImageFix"/><feBlend in="SourceGraphic" in2="BackgroundImageFix" result="shape"/><feColorMatrix in="SourceAlpha" result="hardAlpha" values="0 0 0 0 0 0 0 0 0 0 0 0 0 0 0 0 0 0 127 0"/><feOffset dx=".2" dy="-.2"/><feGaussianBlur stdDeviation=".15"/><feComposite in2="hardAlpha" k2="-1" k3="1" operator="arithmetic"/><feColorMatrix values="0 0 0 0 0.211765 0 0 0 0 0.121569 0 0 0 0 0.12549 0 0 0 1 0"/><feBlend in2="shape" result="effect1_innerShadow_4002_3103"/></filter><filter id="filter12_f_4002_3103" width="1.316" height="1.144" x="18.709" y="16.749" color-interpolation-filters="sRGB" filterUnits="userSpaceOnUse"><feFlood flood-opacity="0" result="BackgroundImageFix"/><feBlend in="SourceGraphic" in2="BackgroundImageFix" result="shape"/><feGaussianBlur result="effect1_foregroundBlur_4002_3103" stdDeviation=".05"/></filter><filter id="filter13_f_4002_3103" width="1.334" height="1.376" x="20.397" y="16.982" color-interpolation-filters="sRGB" filterUnits="userSpaceOnUse"><feFlood flood-opacity="0" result="BackgroundImageFix"/><feBlend in="SourceGraphic" in2="BackgroundImageFix" result="shape"/><feGaussianBlur result="effect1_foregroundBlur_4002_3103" stdDeviation=".1"/></filter><filter id="filter14_f_4002_3103" width="1.515" height="1.618" x="11.947" y="16.861" color-interpolation-filters="sRGB" filterUnits="userSpaceOnUse"><feFlood flood-opacity="0" result="BackgroundImageFix"/><feBlend in="SourceGraphic" in2="BackgroundImageFix" result="shape"/><feGaussianBlur result="effect1_foregroundBlur_4002_3103" stdDeviation=".1"/></filter><filter id="filter15_f_4002_3103" width="1.556" height="1.159" x="10.422" y="16.733" color-interpolation-filters="sRGB" filterUnits="userSpaceOnUse"><feFlood flood-opacity="0" result="BackgroundImageFix"/><feBlend in="SourceGraphic" in2="BackgroundImageFix" result="shape"/><feGaussianBlur result="effect1_foregroundBlur_4002_3103" stdDeviation=".05"/></filter><filter id="filter16_f_4002_3103" width="3.758" height="1.318" x="19.254" y="13.755" color-interpolation-filters="sRGB" filterUnits="userSpaceOnUse"><feFlood flood-opacity="0" result="BackgroundImageFix"/><feBlend in="SourceGraphic" in2="BackgroundImageFix" result="shape"/><feGaussianBlur result="effect1_foregroundBlur_4002_3103" stdDeviation=".1"/></filter><filter id="filter17_f_4002_3103" width="3.758" height="1.318" x="8.886" y="13.755" color-interpolation-filters="sRGB" filterUnits="userSpaceOnUse"><feFlood flood-opacity="0" result="BackgroundImageFix"/><feBlend in="SourceGraphic" in2="BackgroundImageFix" result="shape"/><feGaussianBlur result="effect1_foregroundBlur_4002_3103" stdDeviation=".1"/></filter><filter id="filter18_i_4002_3103" width="7.307" height="5.168" x="20.417" y="1.916" color-interpolation-filters="sRGB" filterUnits="userSpaceOnUse"><feFlood flood-opacity="0" result="BackgroundImageFix"/><feBlend in="SourceGraphic" in2="BackgroundImageFix" result="shape"/><feColorMatrix in="SourceAlpha" result="hardAlpha" values="0 0 0 0 0 0 0 0 0 0 0 0 0 0 0 0 0 0 127 0"/><feOffset dx=".1" dy="-.1"/><feGaussianBlur stdDeviation=".15"/><feComposite in2="hardAlpha" k2="-1" k3="1" operator="arithmetic"/><feColorMatrix values="0 0 0 0 0.843137 0 0 0 0 0.8 0 0 0 0 0.890196 0 0 0 1 0"/><feBlend in2="shape" result="effect1_innerShadow_4002_3103"/></filter><filter id="filter19_ii_4002_3103" width="12.925" height="6.714" x="14.465" y="8.129" color-interpolation-filters="sRGB" filterUnits="userSpaceOnUse"><feFlood flood-opacity="0" result="BackgroundImageFix"/><feBlend in="SourceGraphic" in2="BackgroundImageFix" result="shape"/><feColorMatrix in="SourceAlpha" result="hardAlpha" values="0 0 0 0 0 0 0 0 0 0 0 0 0 0 0 0 0 0 127 0"/><feOffset dx="-.05" dy=".1"/><feGaussianBlur stdDeviation=".125"/><feComposite in2="hardAlpha" k2="-1" k3="1" operator="arithmetic"/><feColorMatrix values="0 0 0 0 1 0 0 0 0 0.992157 0 0 0 0 1 0 0 0 1 0"/><feBlend in2="shape" result="effect1_innerShadow_4002_3103"/><feColorMatrix in="SourceAlpha" result="hardAlpha" values="0 0 0 0 0 0 0 0 0 0 0 0 0 0 0 0 0 0 127 0"/><feOffset dx=".4" dy="-.25"/><feGaussianBlur stdDeviation=".325"/><feComposite in2="hardAlpha" k2="-1" k3="1" operator="arithmetic"/><feColorMatrix values="0 0 0 0 0.670588 0 0 0 0 0.560784 0 0 0 0 0.756863 0 0 0 1 0"/><feBlend in2="effect1_innerShadow_4002_3103" result="effect2_innerShadow_4002_3103"/></filter><filter id="filter20_i_4002_3103" width="17.006" height="13.059" x="4.107" y="1.766" color-interpolation-filters="sRGB" filterUnits="userSpaceOnUse"><feFlood flood-opacity="0" result="BackgroundImageFix"/><feBlend in="SourceGraphic" in2="BackgroundImageFix" result="shape"/><feColorMatrix in="SourceAlpha" result="hardAlpha" values="0 0 0 0 0 0 0 0 0 0 0 0 0 0 0 0 0 0 127 0"/><feOffset dx="-.25" dy="-.25"/><feGaussianBlur stdDeviation=".3"/><feComposite in2="hardAlpha" k2="-1" k3="1" operator="arithmetic"/><feColorMatrix values="0 0 0 0 0.603922 0 0 0 0 0.45098 0 0 0 0 0.721569 0 0 0 1 0"/><feBlend in2="shape" result="effect1_innerShadow_4002_3103"/></filter><filter id="filter21_i_4002_3103" width="13.757" height="8.679" x="4.257" y="1.916" color-interpolation-filters="sRGB" filterUnits="userSpaceOnUse"><feFlood flood-opacity="0" result="BackgroundImageFix"/><feBlend in="SourceGraphic" in2="BackgroundImageFix" result="shape"/><feColorMatrix in="SourceAlpha" result="hardAlpha" values="0 0 0 0 0 0 0 0 0 0 0 0 0 0 0 0 0 0 127 0"/><feOffset dx="-.1" dy="-.1"/><feGaussianBlur stdDeviation=".15"/><feComposite in2="hardAlpha" k2="-1" k3="1" operator="arithmetic"/><feColorMatrix values="0 0 0 0 0.611765 0 0 0 0 0.588235 0 0 0 0 0.635294 0 0 0 1 0"/><feBlend in2="shape" result="effect1_innerShadow_4002_3103"/></filter><filter id="filter22_ii_4002_3103" width="10.523" height="5.986" x="4.357" y="1.816" color-interpolation-filters="sRGB" filterUnits="userSpaceOnUse"><feFlood flood-opacity="0" result="BackgroundImageFix"/><feBlend in="SourceGraphic" in2="BackgroundImageFix" result="shape"/><feColorMatrix in="SourceAlpha" result="hardAlpha" values="0 0 0 0 0 0 0 0 0 0 0 0 0 0 0 0 0 0 127 0"/><feOffset dy="-.2"/><feGaussianBlur stdDeviation=".2"/><feComposite in2="hardAlpha" k2="-1" k3="1" operator="arithmetic"/><feColorMatrix values="0 0 0 0 0.686275 0 0 0 0 0.619608 0 0 0 0 0.752941 0 0 0 1 0"/><feBlend in2="shape" result="effect1_innerShadow_4002_3103"/><feColorMatrix in="SourceAlpha" result="hardAlpha" values="0 0 0 0 0 0 0 0 0 0 0 0 0 0 0 0 0 0 127 0"/><feOffset dy=".05"/><feGaussianBlur stdDeviation=".15"/><feComposite in2="hardAlpha" k2="-1" k3="1" operator="arithmetic"/><feColorMatrix values="0 0 0 0 0.705882 0 0 0 0 0.701961 0 0 0 0 0.705882 0 0 0 1 0"/><feBlend in2="effect1_innerShadow_4002_3103" result="effect2_innerShadow_4002_3103"/></filter><linearGradient id="paint0_linear_4002_3103" x1="3.894" x2="7.426" y1="18.796" y2="18.796" gradientUnits="userSpaceOnUse"><stop stop-color="#8D645F"/><stop offset="1" stop-color="#604138"/></linearGradient><linearGradient id="paint17_linear_4002_3103" x1="14.08" x2="15.865" y1="21.163" y2="21.163" gradientUnits="userSpaceOnUse"><stop stop-color="#875F54"/><stop offset="1" stop-color="#875F54" stop-opacity="0"/></linearGradient><linearGradient id="paint18_linear_4002_3103" x1="15.865" x2="15.865" y1="22.507" y2="21.315" gradientUnits="userSpaceOnUse"><stop stop-color="#995C76"/><stop offset="1" stop-color="#995C76" stop-opacity="0"/></linearGradient><linearGradient id="paint20_linear_4002_3103" x1="13.841" x2="14.718" y1="25.363" y2="24.009" gradientUnits="userSpaceOnUse"><stop stop-color="#A87D7B"/><stop offset=".663" stop-color="#A87D7B" stop-opacity="0"/></linearGradient><linearGradient id="paint23_linear_4002_3103" x1="21.495" x2="20.898" y1="17.598" y2="17.965" gradientUnits="userSpaceOnUse"><stop stop-color="#B4948D"/><stop offset="1" stop-color="#B4948D" stop-opacity="0"/></linearGradient><linearGradient id="paint25_linear_4002_3103" x1="13.13" x2="12.533" y1="17.598" y2="17.965" gradientUnits="userSpaceOnUse"><stop stop-color="#B4948D"/><stop offset="1" stop-color="#B4948D" stop-opacity="0"/></linearGradient><linearGradient id="paint32_linear_4002_3103" x1="26.159" x2="15.409" y1="13.582" y2="13.582" gradientUnits="userSpaceOnUse"><stop stop-color="#EEE8F4"/><stop offset="1" stop-color="#DDD6E4"/></linearGradient><linearGradient id="paint44_linear_4002_3103" x1="4.357" x2="8.534" y1="9.551" y2="8.582" gradientUnits="userSpaceOnUse"><stop stop-color="#B6B0BB"/><stop offset="1" stop-color="#B6B0BB" stop-opacity="0"/></linearGradient></defs></svg>