<svg xmlns="http://www.w3.org/2000/svg" width="32" height="32" fill="none" viewBox="0 0 32 32"><path stroke="#F48622" stroke-linecap="round" stroke-linejoin="bevel" stroke-miterlimit="10" stroke-width="2" d="m5.862 5.862 6.16 6.16"/><path fill="url(#paint0_linear_40_120)" d="M20.658 7.147c-2.639.457-4.658 3.55-4.658 3.55s-2.02-3.093-4.658-3.55c-6.507-1.134-9.196 4.535-8.106 8.761 1.558 6.074 8.93 11.793 11.705 13.766.639.454 1.48.454 2.118 0 2.773-1.974 10.139-7.692 11.706-13.766 1.089-4.226-1.6-9.895-8.107-8.761Z"/><path fill="url(#paint1_radial_40_120)" d="M20.658 7.147c-2.639.457-4.658 3.55-4.658 3.55s-2.02-3.093-4.658-3.55c-6.507-1.134-9.196 4.535-8.106 8.761 1.558 6.074 8.93 11.793 11.705 13.766.639.454 1.48.454 2.118 0 2.773-1.974 10.139-7.692 11.706-13.766 1.089-4.226-1.6-9.895-8.107-8.761Z"/><g filter="url(#filter0_f_40_120)" opacity=".75"><path fill="#FFB5C2" d="M15 10v9L9 8l6 2Z"/></g><g filter="url(#filter1_f_40_120)" opacity=".75"><ellipse cx="24.5" cy="12.5" fill="#FF98AB" rx="2.5" ry="3.5" transform="rotate(48.308 24.5 12.5)"/></g><g filter="url(#filter2_f_40_120)"><path fill="#E02167" d="M17.179 20.507v-9c2-2.4 5.5-3 7-3l-7 12Z"/></g><path fill="url(#paint2_linear_40_120)" d="m3.512 7.562-1.49-4.85c-.12-.42.27-.81.69-.69l4.85 1.49c.39.12.52.62.23.91l-3.37 3.36c-.29.29-.79.17-.91-.22Z"/><path fill="url(#paint3_linear_40_120)" d="m25.942 27.032-5-5.12-.02 3.15c0 .57.22 1.11.61 1.52l2.84 2.91.01.01.01.01c.27.27.64.43 1.05.43.83 0 1.5-.67 1.5-1.5 0-.65-.42-1.2-1-1.41Z"/><path fill="url(#paint4_linear_40_120)" d="m27.052 25.942-5.12-5 3.15-.02c.57 0 1.11.22 1.52.61l2.91 2.84.01.01.01.01c.27.27.43.64.43 1.05a1.498 1.498 0 0 1-2.91.5Z"/><g filter="url(#filter3_f_40_120)"><path fill="#CF1D5E" d="M16 17h2v4h-2z"/></g><path stroke="#FF9D49" stroke-linecap="round" stroke-linejoin="bevel" stroke-miterlimit="10" stroke-width="2" d="m17.962 17.962 8.06 8.06"/><g filter="url(#filter4_f_40_120)"><path stroke="#F88A3B" stroke-linecap="round" stroke-linejoin="bevel" stroke-miterlimit="10" stroke-width=".5" d="M17.962 17.962 25.5 25.5"/></g><defs><filter id="filter0_f_40_120" width="14" height="19" x="5" y="4" color-interpolation-filters="sRGB" filterUnits="userSpaceOnUse"><feFlood flood-opacity="0" result="BackgroundImageFix"/><feBlend in="SourceGraphic" in2="BackgroundImageFix" result="shape"/><feGaussianBlur result="effect1_foregroundBlur_40_120" stdDeviation="2"/></filter><filter id="filter1_f_40_120" width="14.196" height="13.968" x="17.402" y="5.516" color-interpolation-filters="sRGB" filterUnits="userSpaceOnUse"><feFlood flood-opacity="0" result="BackgroundImageFix"/><feBlend in="SourceGraphic" in2="BackgroundImageFix" result="shape"/><feGaussianBlur result="effect1_foregroundBlur_40_120" stdDeviation="2"/></filter><filter id="filter2_f_40_120" width="13" height="18" x="14.179" y="5.507" color-interpolation-filters="sRGB" filterUnits="userSpaceOnUse"><feFlood flood-opacity="0" result="BackgroundImageFix"/><feBlend in="SourceGraphic" in2="BackgroundImageFix" result="shape"/><feGaussianBlur result="effect1_foregroundBlur_40_120" stdDeviation="1.5"/></filter><filter id="filter3_f_40_120" width="6" height="8" x="14" y="15" color-interpolation-filters="sRGB" filterUnits="userSpaceOnUse"><feFlood flood-opacity="0" result="BackgroundImageFix"/><feBlend in="SourceGraphic" in2="BackgroundImageFix" result="shape"/><feGaussianBlur result="effect1_foregroundBlur_40_120" stdDeviation="1"/></filter><filter id="filter4_f_40_120" width="9.038" height="9.038" x="17.212" y="17.212" color-interpolation-filters="sRGB" filterUnits="userSpaceOnUse"><feFlood flood-opacity="0" result="BackgroundImageFix"/><feBlend in="SourceGraphic" in2="BackgroundImageFix" result="shape"/><feGaussianBlur result="effect1_foregroundBlur_40_120" stdDeviation=".25"/></filter><linearGradient id="paint0_linear_40_120" x1="16.002" x2="16.002" y1="30.001" y2="7.001" gradientUnits="userSpaceOnUse"><stop stop-color="#F91D61"/><stop offset=".444" stop-color="#FF3660"/><stop offset="1" stop-color="#FF297F"/></linearGradient><linearGradient id="paint2_linear_40_120" x1="2.703" x2="7.5" y1="2.703" y2="8.5" gradientUnits="userSpaceOnUse"><stop stop-color="#7F5CD9"/><stop offset="1" stop-color="#614EAC"/></linearGradient><linearGradient id="paint3_linear_40_120" x1="21.904" x2="26.012" y1="24.906" y2="29.015" gradientUnits="userSpaceOnUse"><stop stop-color="#7A4ACA"/><stop offset="1" stop-color="#654DB7"/></linearGradient><linearGradient id="paint4_linear_40_120" x1="24.5" x2="25.695" y1="22" y2="26.974" gradientUnits="userSpaceOnUse"><stop stop-color="#7A4ACA"/><stop offset="1" stop-color="#654DB7"/></linearGradient><radialGradient id="paint1_radial_40_120" cx="0" cy="0" r="1" gradientTransform="rotate(169.087 9.256 9.04) scale(21.3775 21.62)" gradientUnits="userSpaceOnUse"><stop offset=".553" stop-color="#B33F5B" stop-opacity="0"/><stop offset=".854" stop-color="#B33F5B"/></radialGradient></defs></svg>