<svg xmlns="http://www.w3.org/2000/svg" width="32" height="32" fill="none" viewBox="0 0 32 32"><g filter="url(#filter0_ii_3987_22979)"><path fill="url(#paint0_linear_3987_22979)" fill-rule="evenodd" d="M22.299 7.875c.852-1.082.48-2.214.219-2.678l1.915-1.081c.468.828 1.242 3.027-.406 5.12-.89 1.13-2.33 1.566-3.484 1.752-1.198.194-2.37.159-2.985.135l.085-2.198c.598.023 1.583.047 2.55-.109 1.012-.163 1.746-.484 2.106-.941Z" clip-rule="evenodd"/></g><g filter="url(#filter1_i_3987_22979)"><path fill="#AFA2B8" d="M10.286 12.985a.35.35 0 0 0-.125.474l.88 1.545a1 1 0 0 1-.374 1.364l-.115.065a1 1 0 0 1-1.363-.374l-.728-1.277a1.65 1.65 0 0 1 .617-2.25l.342-.196 16.304-9.709a.4.4 0 0 1 .548.14l.102.171a.4.4 0 0 1-.139.548l-15.95 9.498Z"/><path fill="url(#paint1_radial_3987_22979)" d="M10.286 12.985a.35.35 0 0 0-.125.474l.88 1.545a1 1 0 0 1-.374 1.364l-.115.065a1 1 0 0 1-1.363-.374l-.728-1.277a1.65 1.65 0 0 1 .617-2.25l.342-.196 16.304-9.709a.4.4 0 0 1 .548.14l.102.171a.4.4 0 0 1-.139.548l-15.95 9.498Z"/><path fill="url(#paint2_linear_3987_22979)" d="M10.286 12.985a.35.35 0 0 0-.125.474l.88 1.545a1 1 0 0 1-.374 1.364l-.115.065a1 1 0 0 1-1.363-.374l-.728-1.277a1.65 1.65 0 0 1 .617-2.25l.342-.196 16.304-9.709a.4.4 0 0 1 .548.14l.102.171a.4.4 0 0 1-.139.548l-15.95 9.498Z"/></g><path fill="url(#paint3_radial_3987_22979)" d="M10.286 12.985a.35.35 0 0 0-.125.474l.88 1.545a1 1 0 0 1-.374 1.364l-.115.065a1 1 0 0 1-1.363-.374l-.728-1.277a1.65 1.65 0 0 1 .617-2.25l.342-.196 16.304-9.709a.4.4 0 0 1 .548.14l.102.171a.4.4 0 0 1-.139.548l-15.95 9.498Z"/><path fill="url(#paint4_linear_3987_22979)" d="m23.102 5.352-.5-.866 3.122-1.859a.4.4 0 0 1 .548.14l.103.171a.4.4 0 0 1-.14.548l-3.133 1.866Z"/><path fill="url(#paint5_linear_3987_22979)" d="m23.102 5.352-.5-.866 3.122-1.859a.4.4 0 0 1 .548.14l.103.171a.4.4 0 0 1-.14.548l-3.133 1.866Z"/><path fill="url(#paint6_radial_3987_22979)" d="m23.102 5.352-.5-.866 3.122-1.859a.4.4 0 0 1 .548.14l.103.171a.4.4 0 0 1-.14.548l-3.133 1.866Z"/><g filter="url(#filter2_i_3987_22979)"><path fill="#4C3765" d="M19.515 30.274v-1.77h2.16c.164.157.789.551 1.504.782.494.13.625.488.629.62v.368h-4.293Z"/></g><path fill="#47385D" d="M12.933 27.883c0-.806.458-1.159.687-1.234l1.367 1.18v1.283a.5.5 0 0 0 .188.39l.203.163c.127.093.297.238.25.414-.082.171-.25.195-.54.195h-1.505a.65.65 0 0 1-.65-.65v-1.74Z"/><path fill="url(#paint7_linear_3987_22979)" d="M12.933 27.883c0-.806.458-1.159.687-1.234l1.367 1.18v1.283a.5.5 0 0 0 .188.39l.203.163c.127.093.297.238.25.414-.082.171-.25.195-.54.195h-1.505a.65.65 0 0 1-.65-.65v-1.74Z"/><path fill="url(#paint8_radial_3987_22979)" d="M12.933 27.883c0-.806.458-1.159.687-1.234l1.367 1.18v1.283a.5.5 0 0 0 .188.39l.203.163c.127.093.297.238.25.414-.082.171-.25.195-.54.195h-1.505a.65.65 0 0 1-.65-.65v-1.74Z"/><path fill="url(#paint9_radial_3987_22979)" d="M12.933 27.883c0-.806.458-1.159.687-1.234l1.367 1.18v1.283a.5.5 0 0 0 .188.39l.203.163c.127.093.297.238.25.414-.082.171-.25.195-.54.195h-1.505a.65.65 0 0 1-.65-.65v-1.74Z"/><path fill="url(#paint10_radial_3987_22979)" d="M12.933 27.883c0-.806.458-1.159.687-1.234l1.367 1.18v1.283a.5.5 0 0 0 .188.39l.203.163c.127.093.297.238.25.414-.082.171-.25.195-.54.195h-1.505a.65.65 0 0 1-.65-.65v-1.74Z"/><g filter="url(#filter3_i_3987_22979)"><path fill="#9785A9" d="M15.86 24.042a1 1 0 0 0 .274-.712l-.166-7.29h6.02l-.313 12.476H19.52l-.26-10.002a.255.255 0 0 0-.508-.005c-.05 1.196-.13 3.455-.13 4.585 0 1.213-.693 2.214-1.04 2.563l-2.473 2.287a.319.319 0 0 1-.316.082 2.155 2.155 0 0 1-.719-.424c-.252-.225-.438-.553-.546-.795a.359.359 0 0 1 .077-.392l2.256-2.373Z"/></g><path fill="url(#paint11_linear_3987_22979)" d="M15.86 24.042a1 1 0 0 0 .274-.712l-.166-7.29h6.02l-.313 12.476H19.52l-.26-10.002a.255.255 0 0 0-.508-.005c-.05 1.196-.13 3.455-.13 4.585 0 1.213-.693 2.214-1.04 2.563l-2.473 2.287a.319.319 0 0 1-.316.082 2.155 2.155 0 0 1-.719-.424c-.252-.225-.438-.553-.546-.795a.359.359 0 0 1 .077-.392l2.256-2.373Z"/><path fill="url(#paint12_radial_3987_22979)" d="M15.86 24.042a1 1 0 0 0 .274-.712l-.166-7.29h6.02l-.313 12.476H19.52l-.26-10.002a.255.255 0 0 0-.508-.005c-.05 1.196-.13 3.455-.13 4.585 0 1.213-.693 2.214-1.04 2.563l-2.473 2.287a.319.319 0 0 1-.316.082 2.155 2.155 0 0 1-.719-.424c-.252-.225-.438-.553-.546-.795a.359.359 0 0 1 .077-.392l2.256-2.373Z"/><path fill="url(#paint13_radial_3987_22979)" d="M15.86 24.042a1 1 0 0 0 .274-.712l-.166-7.29h6.02l-.313 12.476H19.52l-.26-10.002a.255.255 0 0 0-.508-.005c-.05 1.196-.13 3.455-.13 4.585 0 1.213-.693 2.214-1.04 2.563l-2.473 2.287a.319.319 0 0 1-.316.082 2.155 2.155 0 0 1-.719-.424c-.252-.225-.438-.553-.546-.795a.359.359 0 0 1 .077-.392l2.256-2.373Z"/><path fill="url(#paint14_radial_3987_22979)" d="M15.86 24.042a1 1 0 0 0 .274-.712l-.166-7.29h6.02l-.313 12.476H19.52l-.26-10.002a.255.255 0 0 0-.508-.005c-.05 1.196-.13 3.455-.13 4.585 0 1.213-.693 2.214-1.04 2.563l-2.473 2.287a.319.319 0 0 1-.316.082 2.155 2.155 0 0 1-.719-.424c-.252-.225-.438-.553-.546-.795a.359.359 0 0 1 .077-.392l2.256-2.373Z"/><path fill="url(#paint15_radial_3987_22979)" d="M15.86 24.042a1 1 0 0 0 .274-.712l-.166-7.29h6.02l-.313 12.476H19.52l-.26-10.002a.255.255 0 0 0-.508-.005c-.05 1.196-.13 3.455-.13 4.585 0 1.213-.693 2.214-1.04 2.563l-2.473 2.287a.319.319 0 0 1-.316.082 2.155 2.155 0 0 1-.719-.424c-.252-.225-.438-.553-.546-.795a.359.359 0 0 1 .077-.392l2.256-2.373Z"/><path fill="url(#paint16_radial_3987_22979)" d="M15.86 24.042a1 1 0 0 0 .274-.712l-.166-7.29h6.02l-.313 12.476H19.52l-.26-10.002a.255.255 0 0 0-.508-.005c-.05 1.196-.13 3.455-.13 4.585 0 1.213-.693 2.214-1.04 2.563l-2.473 2.287a.319.319 0 0 1-.316.082 2.155 2.155 0 0 1-.719-.424c-.252-.225-.438-.553-.546-.795a.359.359 0 0 1 .077-.392l2.256-2.373Z"/><path fill="url(#paint17_radial_3987_22979)" d="M15.86 24.042a1 1 0 0 0 .274-.712l-.166-7.29h6.02l-.313 12.476H19.52l-.26-10.002a.255.255 0 0 0-.508-.005c-.05 1.196-.13 3.455-.13 4.585 0 1.213-.693 2.214-1.04 2.563l-2.473 2.287a.319.319 0 0 1-.316.082 2.155 2.155 0 0 1-.719-.424c-.252-.225-.438-.553-.546-.795a.359.359 0 0 1 .077-.392l2.256-2.373Z"/><path fill="url(#paint18_radial_3987_22979)" d="M15.265 9.93c.175-1.285.703-1.862 1-2.07.51-.358 1.664-.945 3.336 0 1.757 1.094 2.403 4.057 2.375 5.375v2.805h-6v-3.243c0-.487-.106-.742-.258-.96-.145-.258-.52-.981-.453-1.907Z"/><path fill="url(#paint19_radial_3987_22979)" d="M15.265 9.93c.175-1.285.703-1.862 1-2.07.51-.358 1.664-.945 3.336 0 1.757 1.094 2.403 4.057 2.375 5.375v2.805h-6v-3.243c0-.487-.106-.742-.258-.96-.145-.258-.52-.981-.453-1.907Z"/><path fill="url(#paint20_linear_3987_22979)" d="M15.265 9.93c.175-1.285.703-1.862 1-2.07.51-.358 1.664-.945 3.336 0 1.757 1.094 2.403 4.057 2.375 5.375v2.805h-6v-3.243c0-.487-.106-.742-.258-.96-.145-.258-.52-.981-.453-1.907Z"/><path fill="url(#paint21_radial_3987_22979)" d="M15.265 9.93c.175-1.285.703-1.862 1-2.07.51-.358 1.664-.945 3.336 0 1.757 1.094 2.403 4.057 2.375 5.375v2.805h-6v-3.243c0-.487-.106-.742-.258-.96-.145-.258-.52-.981-.453-1.907Z"/><path fill="url(#paint22_radial_3987_22979)" d="M15.265 9.93c.175-1.285.703-1.862 1-2.07.51-.358 1.664-.945 3.336 0 1.757 1.094 2.403 4.057 2.375 5.375v2.805h-6v-3.243c0-.487-.106-.742-.258-.96-.145-.258-.52-.981-.453-1.907Z"/><rect width=".692" height="1.157" x="21.988" y="4.133" fill="#C69270" rx=".346" transform="rotate(-26.783 21.988 4.133)"/><rect width=".692" height="1.157" x="22.422" y="3.873" fill="url(#paint23_radial_3987_22979)" rx=".346" transform="rotate(-26.783 22.422 3.873)"/><rect width=".692" height="1.157" x="22.941" y="3.627" fill="url(#paint24_radial_3987_22979)" rx=".346" transform="rotate(-26.783 22.94 3.627)"/><rect width=".692" height="1.157" x="23.51" y="3.373" fill="url(#paint25_radial_3987_22979)" rx=".346" transform="rotate(-26.783 23.51 3.373)"/><rect width=".737" height="1.252" x="23.314" y="4.404" fill="url(#paint26_radial_3987_22979)" rx=".369" transform="rotate(60 23.314 4.404)"/><g filter="url(#filter4_ii_3987_22979)"><path fill="#D5A284" d="M20.655 6.086a.504.504 0 0 0-.015-.253 4.648 4.648 0 0 0-.227-.524c-.02-.088-.025-.29.11-.39a.36.36 0 0 1 .335-.055.446.446 0 0 1 .207-.285c.135-.072.298-.03.364 0 .018-.067.09-.209.23-.246a.516.516 0 0 1 .356.058c.04-.075.168-.224.359-.215.238.012.375.262.41.45.035.187.094.433.152.578.059.144.118.605-.09 1.199-.454 1.884-1.492 3.103-2.664 3.853-1.184.758-2.454 1.008-3.297 1.082a1.1 1.1 0 1 1-.193-2.191c.636-.056 1.522-.243 2.304-.744.682-.437 1.327-1.135 1.659-2.317Z"/><path fill="url(#paint27_radial_3987_22979)" d="M20.655 6.086a.504.504 0 0 0-.015-.253 4.648 4.648 0 0 0-.227-.524c-.02-.088-.025-.29.11-.39a.36.36 0 0 1 .335-.055.446.446 0 0 1 .207-.285c.135-.072.298-.03.364 0 .018-.067.09-.209.23-.246a.516.516 0 0 1 .356.058c.04-.075.168-.224.359-.215.238.012.375.262.41.45.035.187.094.433.152.578.059.144.118.605-.09 1.199-.454 1.884-1.492 3.103-2.664 3.853-1.184.758-2.454 1.008-3.297 1.082a1.1 1.1 0 1 1-.193-2.191c.636-.056 1.522-.243 2.304-.744.682-.437 1.327-1.135 1.659-2.317Z"/></g><g filter="url(#filter5_i_3987_22979)"><path fill="url(#paint28_linear_3987_22979)" d="M17.339 8.965a2.84 2.84 0 0 0 .847-.215l.86 2.196c-.235.12-1.715.594-2.54.43-.824-.165-1.019-1.196-.73-1.739.274-.61 1.118-.63 1.563-.672Z"/><path fill="url(#paint29_radial_3987_22979)" d="M17.339 8.965a2.84 2.84 0 0 0 .847-.215l.86 2.196c-.235.12-1.715.594-2.54.43-.824-.165-1.019-1.196-.73-1.739.274-.61 1.118-.63 1.563-.672Z"/><path fill="url(#paint30_radial_3987_22979)" d="M17.339 8.965a2.84 2.84 0 0 0 .847-.215l.86 2.196c-.235.12-1.715.594-2.54.43-.824-.165-1.019-1.196-.73-1.739.274-.61 1.118-.63 1.563-.672Z"/></g><g filter="url(#filter6_f_3987_22979)"><path stroke="#C3B8C3" stroke-linecap="round" stroke-width=".2" d="M9.847 13.008a.534.534 0 0 0 0 .54c.131.237.719 1.277.96 1.714.05.103.112.356-.038.543"/></g><g filter="url(#filter7_f_3987_22979)"><path stroke="url(#paint31_linear_3987_22979)" stroke-linecap="square" stroke-width=".8" d="M21.16 16.711 20.971 27.9"/></g><g filter="url(#filter8_f_3987_22979)"><path fill="url(#paint32_linear_3987_22979)" d="m17.487 23.649-.375-5.953 1.063.5v5.453h-.688Z"/></g><g filter="url(#filter9_i_3987_22979)"><circle cx="14.224" cy="7.268" r=".709" fill="url(#paint33_radial_3987_22979)" transform="rotate(-30 14.224 7.268)"/></g><g filter="url(#filter10_f_3987_22979)"><circle cx="14.224" cy="7.268" r=".422" fill="url(#paint34_linear_3987_22979)" transform="rotate(-30 14.224 7.268)"/></g><g filter="url(#filter11_i_3987_22979)" transform="rotate(-30 17.724 5.248)"><circle cx="17.724" cy="5.248" r=".709" fill="url(#paint35_linear_3987_22979)"/><circle cx="17.724" cy="5.248" r=".709" fill="url(#paint36_radial_3987_22979)"/></g><g filter="url(#filter12_f_3987_22979)" transform="rotate(-30 17.724 5.247)"><circle cx="17.724" cy="5.247" r=".422" fill="#D79E81"/><circle cx="17.724" cy="5.247" r=".422" fill="url(#paint37_radial_3987_22979)"/><circle cx="17.724" cy="5.247" r=".422" fill="url(#paint38_radial_3987_22979)"/></g><path fill="url(#paint39_linear_3987_22979)" d="M13.624 6.54c-.057-.099-.127-.264-.082-.369L13.47 6c.054-.136.178-.111.11-.229l-.182-.314a.22.22 0 0 1 .045-.287 6.96 6.96 0 0 1 1.35-.989c.71-.41 1.26-.597 1.531-.675a.244.244 0 0 1 .271.105l.182.314c.068.118-.185-.519-.06-.486.259.023.668.821.74.982.315.697.68 1.376 1.017 2.062.317.685.067 1.434-.543 1.787l-1.181.682c-.63.363-1.385.194-1.82-.423-.435-.637-.92-1.32-1.306-1.99Z"/><path fill="url(#paint40_radial_3987_22979)" d="M13.624 6.54c-.057-.099-.127-.264-.082-.369L13.47 6c.054-.136.178-.111.11-.229l-.182-.314a.22.22 0 0 1 .045-.287 6.96 6.96 0 0 1 1.35-.989c.71-.41 1.26-.597 1.531-.675a.244.244 0 0 1 .271.105l.182.314c.068.118-.185-.519-.06-.486.259.023.668.821.74.982.315.697.68 1.376 1.017 2.062.317.685.067 1.434-.543 1.787l-1.181.682c-.63.363-1.385.194-1.82-.423-.435-.637-.92-1.32-1.306-1.99Z"/><path fill="url(#paint41_linear_3987_22979)" d="M13.624 6.54c-.057-.099-.127-.264-.082-.369L13.47 6c.054-.136.178-.111.11-.229l-.182-.314a.22.22 0 0 1 .045-.287 6.96 6.96 0 0 1 1.35-.989c.71-.41 1.26-.597 1.531-.675a.244.244 0 0 1 .271.105l.182.314c.068.118-.185-.519-.06-.486.259.023.668.821.74.982.315.697.68 1.376 1.017 2.062.317.685.067 1.434-.543 1.787l-1.181.682c-.63.363-1.385.194-1.82-.423-.435-.637-.92-1.32-1.306-1.99Z"/><path fill="url(#paint42_radial_3987_22979)" d="M13.624 6.54c-.057-.099-.127-.264-.082-.369L13.47 6c.054-.136.178-.111.11-.229l-.182-.314a.22.22 0 0 1 .045-.287 6.96 6.96 0 0 1 1.35-.989c.71-.41 1.26-.597 1.531-.675a.244.244 0 0 1 .271.105l.182.314c.068.118-.185-.519-.06-.486.259.023.668.821.74.982.315.697.68 1.376 1.017 2.062.317.685.067 1.434-.543 1.787l-1.181.682c-.63.363-1.385.194-1.82-.423-.435-.637-.92-1.32-1.306-1.99Z"/><path fill="url(#paint43_radial_3987_22979)" d="M13.624 6.54c-.057-.099-.127-.264-.082-.369L13.47 6c.054-.136.178-.111.11-.229l-.182-.314a.22.22 0 0 1 .045-.287 6.96 6.96 0 0 1 1.35-.989c.71-.41 1.26-.597 1.531-.675a.244.244 0 0 1 .271.105l.182.314c.068.118-.185-.519-.06-.486.259.023.668.821.74.982.315.697.68 1.376 1.017 2.062.317.685.067 1.434-.543 1.787l-1.181.682c-.63.363-1.385.194-1.82-.423-.435-.637-.92-1.32-1.306-1.99Z"/><path fill="url(#paint44_radial_3987_22979)" d="M13.624 6.54c-.057-.099-.127-.264-.082-.369L13.47 6c.054-.136.178-.111.11-.229l-.182-.314a.22.22 0 0 1 .045-.287 6.96 6.96 0 0 1 1.35-.989c.71-.41 1.26-.597 1.531-.675a.244.244 0 0 1 .271.105l.182.314c.068.118-.185-.519-.06-.486.259.023.668.821.74.982.315.697.68 1.376 1.017 2.062.317.685.067 1.434-.543 1.787l-1.181.682c-.63.363-1.385.194-1.82-.423-.435-.637-.92-1.32-1.306-1.99Z"/><g filter="url(#filter13_f_3987_22979)"><path fill="#C68378" d="m15.844 6.273.059.8c.037.15.2.226.328.153l.27-.157c.128-.073.142-.255.032-.36l-.544-.52c-.12-.115-.184-.078-.145.084Z"/></g><g filter="url(#filter14_f_3987_22979)"><path fill="#E4AC8F" d="m15.77 6.236.165.738a.229.229 0 0 0 .34.146l.289-.167a.23.23 0 0 0 .043-.367l-.556-.512c-.122-.114-.317-.002-.281.162Z"/><path fill="url(#paint45_linear_3987_22979)" d="m15.77 6.236.165.738a.229.229 0 0 0 .34.146l.289-.167a.23.23 0 0 0 .043-.367l-.556-.512c-.122-.114-.317-.002-.281.162Z"/><path fill="url(#paint46_linear_3987_22979)" d="m15.77 6.236.165.738a.229.229 0 0 0 .34.146l.289-.167a.23.23 0 0 0 .043-.367l-.556-.512c-.122-.114-.317-.002-.281.162Z"/><path fill="url(#paint47_linear_3987_22979)" d="m15.77 6.236.165.738a.229.229 0 0 0 .34.146l.289-.167a.23.23 0 0 0 .043-.367l-.556-.512c-.122-.114-.317-.002-.281.162Z"/><path fill="url(#paint48_linear_3987_22979)" d="m15.77 6.236.165.738a.229.229 0 0 0 .34.146l.289-.167a.23.23 0 0 0 .043-.367l-.556-.512c-.122-.114-.317-.002-.281.162Z"/></g><path fill="#88024E" stroke="url(#paint49_linear_3987_22979)" stroke-width=".1" d="M17.243 7.034a.11.11 0 0 0-.08-.114.115.115 0 0 0-.13.05 1.22 1.22 0 0 1-.422.398c-.18.104-.373.159-.557.167a.115.115 0 0 0-.107.089.11.11 0 0 0 .06.125m1.236-.715-.05-.003.05.003Zm0 0a.854.854 0 0 1-.428.688.854.854 0 0 1-.809.027m0 0 .022-.045m-.022.045.022-.045m0 0a.804.804 0 0 0 .762-.025.804.804 0 0 0 .403-.648c.004-.066-.082-.09-.117-.035a1.27 1.27 0 0 1-.44.415 1.276 1.276 0 0 1-.58.174c-.065.003-.086.091-.028.119Z"/><path fill="#fff" d="M16.545 5.227a.593.593 0 0 1 .723.101.116.116 0 0 1-.026.182l-.82.474a.098.098 0 0 1-.142-.052.593.593 0 0 1 .265-.705Z"/><path fill="url(#paint50_radial_3987_22979)" d="M16.527 5.37a.379.379 0 0 1 .555.232l-.634.366a.38.38 0 0 1 .078-.598Z"/><path fill="#000" d="M16.528 5.806a.216.216 0 0 1 .08-.295.216.216 0 0 1 .324.177l-.331.192a.196.196 0 0 1-.073-.074Z"/><g filter="url(#filter15_f_3987_22979)"><path fill="#C7A7A3" d="M16.543 5.454c.041.018.014.084-.017.157-.032.074-.056.127-.098.11-.04-.018-.049-.093-.017-.166.031-.074.09-.119.132-.101Z"/><path fill="url(#paint51_radial_3987_22979)" d="M16.543 5.454c.041.018.014.084-.017.157-.032.074-.056.127-.098.11-.04-.018-.049-.093-.017-.166.031-.074.09-.119.132-.101Z"/></g><g filter="url(#filter16_f_3987_22979)"><path fill="url(#paint52_linear_3987_22979)" d="M16.982 5.486a.354.354 0 0 0-.182-.12l-.035.159.091.058.126-.097Z"/></g><path fill="#fff" d="M14.786 6.242a.593.593 0 0 0-.273.677c.02.073.105.106.17.068l.82-.473a.098.098 0 0 0 .026-.148.595.595 0 0 0-.743-.124Z"/><path fill="url(#paint53_radial_3987_22979)" d="M14.92 6.298a.379.379 0 0 0-.076.597l.633-.366a.381.381 0 0 0-.557-.231Z"/><path fill="#000" d="M15.297 6.518a.216.216 0 0 0-.296-.08.216.216 0 0 0-.009.37l.332-.191a.215.215 0 0 0-.027-.1Z"/><g filter="url(#filter17_f_3987_22979)"><path fill="url(#paint54_linear_3987_22979)" d="M15.388 6.414c-.062-.106-.189-.127-.224-.135l-.047.164.142.095.129-.124Z"/></g><g filter="url(#filter18_f_3987_22979)" transform="rotate(-57.914 14.902 6.495)"><ellipse cx="14.902" cy="6.495" fill="#C7A7A3" fill-opacity=".9" rx=".165" ry=".084"/><ellipse cx="14.902" cy="6.495" fill="url(#paint55_radial_3987_22979)" rx=".165" ry=".084"/></g><g filter="url(#filter19_i_3987_22979)"><path fill="#6F3E2F" fill-rule="evenodd" d="M16.074 4.925c.25-.177.48-.172.543-.158a.2.2 0 0 0 .088-.391c-.173-.039-.519-.022-.863.222a.2.2 0 0 0 .232.327Z" clip-rule="evenodd"/></g><g filter="url(#filter20_i_3987_22979)"><path fill="#6F3E2F" fill-rule="evenodd" d="M14.763 5.682c-.278.128-.389.329-.408.39a.2.2 0 1 1-.383-.119c.053-.168.24-.46.624-.636a.2.2 0 1 1 .167.365Z" clip-rule="evenodd"/></g><path fill="url(#paint56_linear_3987_22979)" d="m13.633 6.911-.497-.86.44-.255a.83.83 0 0 1-.01.344.514.514 0 0 0 .06.36l.295.511c-.098.057-.224.02-.288-.1Z"/><path fill="url(#paint57_linear_3987_22979)" d="m17.737 4.542-.497-.861-.44.254a.83.83 0 0 0 .303.163.51.51 0 0 1 .282.232l.277.521a.221.221 0 0 0 .075-.31Z"/><g filter="url(#filter21_i_3987_22979)"><path fill="url(#paint58_radial_3987_22979)" d="M13.617 5.28a2.904 2.904 0 0 0-.417.883l.259.1a.43.43 0 0 0 .523-.179c.19-.315.566-.811 1.224-1.191a3.427 3.427 0 0 1 1.643-.464.425.425 0 0 0 .414-.361l.042-.275a2.998 2.998 0 0 0-.972-.08 3.718 3.718 0 0 0-2.716 1.568Z"/><path fill="url(#paint59_radial_3987_22979)" d="M13.617 5.28a2.904 2.904 0 0 0-.417.883l.259.1a.43.43 0 0 0 .523-.179c.19-.315.566-.811 1.224-1.191a3.427 3.427 0 0 1 1.643-.464.425.425 0 0 0 .414-.361l.042-.275a2.998 2.998 0 0 0-.972-.08 3.718 3.718 0 0 0-2.716 1.568Z"/></g><path fill="url(#paint60_radial_3987_22979)" d="M14.458 2.707c.53-.306 1.128-.44 1.692-.237.433.157.898.639 1.155 1.323a2.998 2.998 0 0 0-.972-.08 3.718 3.718 0 0 0-2.717 1.568 2.906 2.906 0 0 0-.416.882c-.466-.569-.649-1.208-.568-1.662.106-.59.521-1.04 1.05-1.346l.776-.448Z"/><path fill="url(#paint61_radial_3987_22979)" d="M14.458 2.707c.53-.306 1.128-.44 1.692-.237.433.157.898.639 1.155 1.323a2.998 2.998 0 0 0-.972-.08 3.718 3.718 0 0 0-2.717 1.568 2.906 2.906 0 0 0-.416.882c-.466-.569-.649-1.208-.568-1.662.106-.59.521-1.04 1.05-1.346l.776-.448Z"/><path fill="url(#paint62_radial_3987_22979)" d="M14.458 2.707c.53-.306 1.128-.44 1.692-.237.433.157.898.639 1.155 1.323a2.998 2.998 0 0 0-.972-.08 3.718 3.718 0 0 0-2.717 1.568 2.906 2.906 0 0 0-.416.882c-.466-.569-.649-1.208-.568-1.662.106-.59.521-1.04 1.05-1.346l.776-.448Z"/><path fill="url(#paint63_radial_3987_22979)" d="M14.458 2.707c.53-.306 1.128-.44 1.692-.237.433.157.898.639 1.155 1.323a2.998 2.998 0 0 0-.972-.08 3.718 3.718 0 0 0-2.717 1.568 2.906 2.906 0 0 0-.416.882c-.466-.569-.649-1.208-.568-1.662.106-.59.521-1.04 1.05-1.346l.776-.448Z"/><defs><radialGradient id="paint1_radial_3987_22979" cx="0" cy="0" r="1" gradientTransform="rotate(146.915 9.437 6.132) scale(4.92324 2.04943)" gradientUnits="userSpaceOnUse"><stop stop-color="#A99797"/><stop offset="1" stop-color="#A99797" stop-opacity="0"/></radialGradient><radialGradient id="paint3_radial_3987_22979" cx="0" cy="0" r="1" gradientTransform="matrix(1.4375 -.0625 .23626 5.43402 7.847 13.711)" gradientUnits="userSpaceOnUse"><stop stop-color="#B8ACBD"/><stop offset="1" stop-color="#B8ACBD" stop-opacity="0"/></radialGradient><radialGradient id="paint6_radial_3987_22979" cx="0" cy="0" r="1" gradientTransform="matrix(-.27344 .16016 -.21807 -.37232 26.179 2.965)" gradientUnits="userSpaceOnUse"><stop offset=".181" stop-color="#615273"/><stop offset="1" stop-color="#615273" stop-opacity="0"/></radialGradient><radialGradient id="paint8_radial_3987_22979" cx="0" cy="0" r="1" gradientTransform="matrix(-.875 -.46876 .24583 -.45888 15.472 29.57)" gradientUnits="userSpaceOnUse"><stop stop-color="#403451"/><stop offset="1" stop-color="#403451" stop-opacity="0"/></radialGradient><radialGradient id="paint9_radial_3987_22979" cx="0" cy="0" r="1" gradientTransform="matrix(-.76562 .85157 -1.15842 -1.0415 14.081 27.063)" gradientUnits="userSpaceOnUse"><stop offset=".115" stop-color="#271938"/><stop offset="1" stop-color="#271938" stop-opacity="0"/></radialGradient><radialGradient id="paint10_radial_3987_22979" cx="0" cy="0" r="1" gradientTransform="matrix(.8125 .15625 -.58594 3.04687 12.706 28.461)" gradientUnits="userSpaceOnUse"><stop stop-color="#655E6D"/><stop offset="1" stop-color="#655E6D" stop-opacity="0"/></radialGradient><radialGradient id="paint12_radial_3987_22979" cx="0" cy="0" r="1" gradientTransform="matrix(2.71873 -2.53127 .81258 .87276 14.504 28.024)" gradientUnits="userSpaceOnUse"><stop stop-color="#937DA8"/><stop offset="1" stop-color="#937DA8" stop-opacity="0"/></radialGradient><radialGradient id="paint13_radial_3987_22979" cx="0" cy="0" r="1" gradientTransform="matrix(2.54688 -2.64063 .2894 .27913 13.613 26.368)" gradientUnits="userSpaceOnUse"><stop offset=".285" stop-color="#9F9C9D"/><stop offset="1" stop-color="#9F9C9D" stop-opacity="0"/></radialGradient><radialGradient id="paint14_radial_3987_22979" cx="0" cy="0" r="1" gradientTransform="matrix(-.76563 0 0 -5.02098 18.706 21.711)" gradientUnits="userSpaceOnUse"><stop offset=".001" stop-color="#827A8B"/><stop offset="1" stop-color="#827A8B" stop-opacity="0"/></radialGradient><radialGradient id="paint15_radial_3987_22979" cx="0" cy="0" r="1" gradientTransform="matrix(.04687 -.98437 1.15192 .05485 18.956 18.383)" gradientUnits="userSpaceOnUse"><stop offset=".154" stop-color="#7F5D9D"/><stop offset="1" stop-color="#9C8CAD" stop-opacity="0"/></radialGradient><radialGradient id="paint16_radial_3987_22979" cx="0" cy="0" r="1" gradientTransform="matrix(.78125 0 0 7.6823 19.316 23.07)" gradientUnits="userSpaceOnUse"><stop stop-color="#5D5467"/><stop offset="1" stop-color="#8C7E97" stop-opacity="0"/></radialGradient><radialGradient id="paint17_radial_3987_22979" cx="0" cy="0" r="1" gradientTransform="matrix(3.40625 -3.34375 1.20794 1.23052 15.003 28.086)" gradientUnits="userSpaceOnUse"><stop stop-color="#8C6FA7"/><stop offset="1" stop-color="#8C6FA7" stop-opacity="0"/></radialGradient><radialGradient id="paint18_radial_3987_22979" cx="0" cy="0" r="1" gradientTransform="rotate(150.356 9.234 7.823) scale(4.42262 6.15908)" gradientUnits="userSpaceOnUse"><stop stop-color="#53AFF7"/><stop offset="1" stop-color="#347FDA"/></radialGradient><radialGradient id="paint19_radial_3987_22979" cx="0" cy="0" r="1" gradientTransform="matrix(.57404 2.73801 -4.6268 .97003 18.617 7.348)" gradientUnits="userSpaceOnUse"><stop offset=".306" stop-color="#3090BC"/><stop offset="1" stop-color="#3090BC" stop-opacity="0"/></radialGradient><radialGradient id="paint21_radial_3987_22979" cx="0" cy="0" r="1" gradientTransform="matrix(.875 1.59375 -2.60061 1.4278 16.628 8.055)" gradientUnits="userSpaceOnUse"><stop offset=".285" stop-color="#246C9D"/><stop offset="1" stop-color="#246C9D" stop-opacity="0"/></radialGradient><radialGradient id="paint22_radial_3987_22979" cx="0" cy="0" r="1" gradientTransform="matrix(1.71875 -.01563 .0588 6.46896 14.816 10.461)" gradientUnits="userSpaceOnUse"><stop stop-color="#56A2E0"/><stop offset="1" stop-color="#56A2E0" stop-opacity="0"/></radialGradient><radialGradient id="paint23_radial_3987_22979" cx="0" cy="0" r="1" gradientTransform="matrix(-.64636 .00475 -.0063 -.85808 23.098 4.541)" gradientUnits="userSpaceOnUse"><stop offset=".183" stop-color="#DAA994"/><stop offset="1" stop-color="#CF9A7F"/></radialGradient><radialGradient id="paint24_radial_3987_22979" cx="0" cy="0" r="1" gradientTransform="matrix(-.64636 .00475 -.0063 -.85808 23.617 4.295)" gradientUnits="userSpaceOnUse"><stop offset=".183" stop-color="#DAA994"/><stop offset="1" stop-color="#CF9A7F"/></radialGradient><radialGradient id="paint25_radial_3987_22979" cx="0" cy="0" r="1" gradientTransform="matrix(-.64636 .00475 -.0063 -.85808 24.186 4.041)" gradientUnits="userSpaceOnUse"><stop offset=".183" stop-color="#DAA994"/><stop offset="1" stop-color="#CF9A7F"/></radialGradient><radialGradient id="paint26_radial_3987_22979" cx="0" cy="0" r="1" gradientTransform="matrix(-.02457 .47352 -.46721 -.02424 23.707 4.557)" gradientUnits="userSpaceOnUse"><stop stop-color="#D6A791"/><stop offset="1" stop-color="#CF9B80"/></radialGradient><radialGradient id="paint27_radial_3987_22979" cx="0" cy="0" r="1" gradientTransform="matrix(3.80388 .30087 -.62375 7.88601 18.914 5.696)" gradientUnits="userSpaceOnUse"><stop offset=".629" stop-color="#E4B79D" stop-opacity="0"/><stop offset="1" stop-color="#E4B79D"/></radialGradient><radialGradient id="paint29_radial_3987_22979" cx="0" cy="0" r="1" gradientTransform="matrix(1.71875 .21242 -.56203 4.5475 15.378 9.868)" gradientUnits="userSpaceOnUse"><stop offset=".204" stop-color="#579FDE"/><stop offset="1" stop-color="#579FDE" stop-opacity="0"/></radialGradient><radialGradient id="paint30_radial_3987_22979" cx="0" cy="0" r="1" gradientTransform="matrix(.04687 .51562 -1.9883 .18075 17.519 8.852)" gradientUnits="userSpaceOnUse"><stop stop-color="#2F89B9"/><stop offset="1" stop-color="#2F89B9" stop-opacity="0"/></radialGradient><radialGradient id="paint33_radial_3987_22979" cx="0" cy="0" r="1" gradientTransform="matrix(.74551 0 0 1.30466 13.515 7.268)" gradientUnits="userSpaceOnUse"><stop offset=".351" stop-color="#C28775"/><stop offset="1" stop-color="#BA7867"/></radialGradient><radialGradient id="paint36_radial_3987_22979" cx="0" cy="0" r="1" gradientTransform="matrix(.3512 -.25573 .29189 .40086 17.882 5.135)" gradientUnits="userSpaceOnUse"><stop offset=".543" stop-color="#E3AB88"/><stop offset="1" stop-color="#E3AB88" stop-opacity="0"/></radialGradient><radialGradient id="paint37_radial_3987_22979" cx="0" cy="0" r="1" gradientTransform="matrix(.34861 -.6412 .3753 .20404 17.706 5.596)" gradientUnits="userSpaceOnUse"><stop offset=".69" stop-color="#D79A76" stop-opacity="0"/><stop offset="1" stop-color="#D79A76"/></radialGradient><radialGradient id="paint38_radial_3987_22979" cx="0" cy="0" r="1" gradientTransform="matrix(.11006 .10895 -.14045 .14188 17.725 5.247)" gradientUnits="userSpaceOnUse"><stop stop-color="#CB8E6D"/><stop offset="1" stop-color="#CB8E6D" stop-opacity="0"/></radialGradient><radialGradient id="paint40_radial_3987_22979" cx="0" cy="0" r="1" gradientTransform="rotate(60 3.455 15.836) scale(4.53299 4.31258)" gradientUnits="userSpaceOnUse"><stop offset=".651" stop-color="#CB8E88" stop-opacity="0"/><stop offset=".952" stop-color="#AC6061"/></radialGradient><radialGradient id="paint42_radial_3987_22979" cx="0" cy="0" r="1" gradientTransform="rotate(-120 9.812 -2.137) scale(.55528 .68055)" gradientUnits="userSpaceOnUse"><stop stop-color="#E2A18C"/><stop offset="1" stop-color="#E2A18C" stop-opacity="0"/></radialGradient><radialGradient id="paint43_radial_3987_22979" cx="0" cy="0" r="1" gradientTransform="matrix(-.29544 -.51172 .63368 -.36586 14.892 6.243)" gradientUnits="userSpaceOnUse"><stop stop-color="#C2837A"/><stop offset="1" stop-color="#C2837A" stop-opacity="0"/></radialGradient><radialGradient id="paint44_radial_3987_22979" cx="0" cy="0" r="1" gradientTransform="rotate(60 3.41 15.548) scale(1.93644 3.91079)" gradientUnits="userSpaceOnUse"><stop stop-color="#9E7282"/><stop offset="1" stop-color="#B5827D" stop-opacity="0"/></radialGradient><radialGradient id="paint50_radial_3987_22979" cx="0" cy="0" r="1" gradientTransform="matrix(.17216 .29818 -.4743 .27384 16.627 5.547)" gradientUnits="userSpaceOnUse"><stop offset=".802" stop-color="#7D574A"/><stop offset="1" stop-color="#694B43"/><stop offset="1" stop-color="#804D49"/><stop offset="1" stop-color="#664944"/></radialGradient><radialGradient id="paint51_radial_3987_22979" cx="0" cy="0" r="1" gradientTransform="rotate(-157.811 8.832 1.19) scale(.16054 .22102)" gradientUnits="userSpaceOnUse"><stop offset=".766" stop-color="#FFE6E2" stop-opacity="0"/><stop offset=".966" stop-color="#FFE6E2"/></radialGradient><radialGradient id="paint53_radial_3987_22979" cx="0" cy="0" r="1" gradientTransform="rotate(60 1.906 16.246) scale(.34433 .54769)" gradientUnits="userSpaceOnUse"><stop offset=".802" stop-color="#7D574A"/><stop offset="1" stop-color="#694B43"/><stop offset="1" stop-color="#804D49"/><stop offset="1" stop-color="#664944"/></radialGradient><radialGradient id="paint55_radial_3987_22979" cx="0" cy="0" r="1" gradientTransform="matrix(-.00328 -.20968 .25204 -.00395 14.896 6.629)" gradientUnits="userSpaceOnUse"><stop offset=".766" stop-color="#FFE6E2" stop-opacity="0"/><stop offset=".966" stop-color="#FFE6E2"/></radialGradient><radialGradient id="paint58_radial_3987_22979" cx="0" cy="0" r="1" gradientTransform="rotate(-33.523 16.768 -19.913) scale(3.26953 12.1156)" gradientUnits="userSpaceOnUse"><stop stop-color="#3E82BC"/><stop offset="1" stop-color="#1D78B8"/></radialGradient><radialGradient id="paint59_radial_3987_22979" cx="0" cy="0" r="1" gradientTransform="matrix(-.01778 -.63409 1.12377 -.03151 16.381 4.559)" gradientUnits="userSpaceOnUse"><stop stop-color="#3386C4"/><stop offset="1" stop-color="#3386C4" stop-opacity="0"/></radialGradient><radialGradient id="paint60_radial_3987_22979" cx="0" cy="0" r="1" gradientTransform="matrix(-2.50297 1.26182 -1.20308 -2.38645 16.046 3.916)" gradientUnits="userSpaceOnUse"><stop stop-color="#30A2E5"/><stop offset="1" stop-color="#1B96DC"/></radialGradient><radialGradient id="paint61_radial_3987_22979" cx="0" cy="0" r="1" gradientTransform="rotate(-87.842 9.804 -4.006) scale(2.41569 3.74284)" gradientUnits="userSpaceOnUse"><stop stop-color="#4199E0"/><stop offset="1" stop-color="#4199E0" stop-opacity="0"/></radialGradient><radialGradient id="paint62_radial_3987_22979" cx="0" cy="0" r="1" gradientTransform="rotate(-115.648 9.056 -2.358) scale(1.02453 2.2655)" gradientUnits="userSpaceOnUse"><stop offset=".155" stop-color="#1A7CCC"/><stop offset="1" stop-color="#1A7CCC" stop-opacity="0"/></radialGradient><radialGradient id="paint63_radial_3987_22979" cx="0" cy="0" r="1" gradientTransform="matrix(.34801 .52964 -2.87504 1.8891 14.035 2.927)" gradientUnits="userSpaceOnUse"><stop stop-color="#4195CB"/><stop offset="1" stop-color="#4195CB" stop-opacity="0"/></radialGradient><linearGradient id="paint0_linear_3987_22979" x1="24.351" x2="21.294" y1="5.137" y2="11.142" gradientUnits="userSpaceOnUse"><stop stop-color="#D8AB92"/><stop offset=".799" stop-color="#CD917E"/></linearGradient><linearGradient id="paint2_linear_3987_22979" x1="13.831" x2="14.159" y1="9.568" y2="10.04" gradientUnits="userSpaceOnUse"><stop offset=".349" stop-color="#B39FBC"/><stop offset="1" stop-color="#B39FBC" stop-opacity="0"/></linearGradient><linearGradient id="paint4_linear_3987_22979" x1="26.253" x2="24.113" y1="3.086" y2="4.399" gradientUnits="userSpaceOnUse"><stop stop-color="#533D66"/><stop offset="1" stop-color="#482A5B"/></linearGradient><linearGradient id="paint5_linear_3987_22979" x1="25.222" x2="24.956" y1="4.086" y2="3.555" gradientUnits="userSpaceOnUse"><stop stop-color="#482C58"/><stop offset="1" stop-color="#482C58" stop-opacity="0"/></linearGradient><linearGradient id="paint7_linear_3987_22979" x1="14.034" x2="14.034" y1="30.422" y2="29.75" gradientUnits="userSpaceOnUse"><stop stop-color="#442563"/><stop offset="1" stop-color="#442563" stop-opacity="0"/></linearGradient><linearGradient id="paint11_linear_3987_22979" x1="21.816" x2="21.222" y1="22.961" y2="22.93" gradientUnits="userSpaceOnUse"><stop stop-color="#A19CA8"/><stop offset="1" stop-color="#A49FAA" stop-opacity="0"/></linearGradient><linearGradient id="paint20_linear_3987_22979" x1="18.617" x2="18.617" y1="16.368" y2="13.18" gradientUnits="userSpaceOnUse"><stop offset=".039" stop-color="#366BC5"/><stop offset="1" stop-color="#366BC5" stop-opacity="0"/></linearGradient><linearGradient id="paint28_linear_3987_22979" x1="17.348" x2="17.348" y1="8.75" y2="10.961" gradientUnits="userSpaceOnUse"><stop stop-color="#2D9DE0"/><stop offset="1" stop-color="#3083EA"/></linearGradient><linearGradient id="paint31_linear_3987_22979" x1="21.081" x2="21.081" y1="16.993" y2="27.899" gradientUnits="userSpaceOnUse"><stop stop-color="#A89EB3"/><stop offset="1" stop-color="#A599B3"/></linearGradient><linearGradient id="paint32_linear_3987_22979" x1="17.644" x2="17.644" y1="18.43" y2="24.993" gradientUnits="userSpaceOnUse"><stop stop-color="#A59AB1"/><stop offset="1" stop-color="#A59AB1" stop-opacity="0"/></linearGradient><linearGradient id="paint34_linear_3987_22979" x1="14.224" x2="13.952" y1="7.387" y2="7.387" gradientUnits="userSpaceOnUse"><stop stop-color="#AF6F5D"/><stop offset="1" stop-color="#B87862"/></linearGradient><linearGradient id="paint35_linear_3987_22979" x1="18.186" x2="17.838" y1="4.784" y2="5.861" gradientUnits="userSpaceOnUse"><stop stop-color="#F5C8A5"/><stop offset="1" stop-color="#DCA189"/></linearGradient><linearGradient id="paint39_linear_3987_22979" x1="17.541" x2="14.982" y1="5.545" y2="7.576" gradientUnits="userSpaceOnUse"><stop stop-color="#FAC39E"/><stop offset="1" stop-color="#C9917C"/></linearGradient><linearGradient id="paint41_linear_3987_22979" x1="14.658" x2="15.441" y1="8.532" y2="7.932" gradientUnits="userSpaceOnUse"><stop stop-color="#D99E84"/><stop offset="1" stop-color="#D99E84" stop-opacity="0"/></linearGradient><linearGradient id="paint45_linear_3987_22979" x1="15.876" x2="16.221" y1="6.829" y2="6.63" gradientUnits="userSpaceOnUse"><stop stop-color="#CB9173"/><stop offset="1" stop-color="#CB9173" stop-opacity="0"/></linearGradient><linearGradient id="paint46_linear_3987_22979" x1="16.607" x2="16.227" y1="6.565" y2="6.777" gradientUnits="userSpaceOnUse"><stop stop-color="#FEC8A4"/><stop offset="1" stop-color="#FEC8A4" stop-opacity="0"/></linearGradient><linearGradient id="paint47_linear_3987_22979" x1="16.491" x2="16.369" y1="6.996" y2="6.785" gradientUnits="userSpaceOnUse"><stop stop-color="#C98583"/><stop offset="1" stop-color="#C98583" stop-opacity="0"/></linearGradient><linearGradient id="paint48_linear_3987_22979" x1="15.85" x2="16.135" y1="6.051" y2="6.544" gradientUnits="userSpaceOnUse"><stop stop-color="#CF9B89"/><stop offset="1" stop-color="#CF9B89" stop-opacity="0"/></linearGradient><linearGradient id="paint49_linear_3987_22979" x1="16.381" x2="16.395" y1="7.852" y2="7.507" gradientUnits="userSpaceOnUse"><stop stop-color="#D79E8E"/><stop offset=".663" stop-color="#D79E8E" stop-opacity="0"/></linearGradient><linearGradient id="paint52_linear_3987_22979" x1="16.924" x2="16.85" y1="5.401" y2="5.537" gradientUnits="userSpaceOnUse"><stop stop-color="#B4948D"/><stop offset="1" stop-color="#B4948D" stop-opacity="0"/></linearGradient><linearGradient id="paint54_linear_3987_22979" x1="15.308" x2="15.233" y1="6.335" y2="6.472" gradientUnits="userSpaceOnUse"><stop stop-color="#B4948D"/><stop offset="1" stop-color="#B4948D" stop-opacity="0"/></linearGradient><linearGradient id="paint56_linear_3987_22979" x1="13.614" x2="13.433" y1="6.462" y2="6.566" gradientUnits="userSpaceOnUse"><stop stop-color="#E4AD8A"/><stop offset="1" stop-color="#F1BA95"/></linearGradient><linearGradient id="paint57_linear_3987_22979" x1="17.358" x2="17.539" y1="4.301" y2="4.196" gradientUnits="userSpaceOnUse"><stop offset=".548" stop-color="#FDCB9E"/><stop offset="1" stop-color="#FFDBAC"/></linearGradient><filter id="filter0_ii_3987_22979" width="8.471" height="7.176" x="17.558" y="3.966" color-interpolation-filters="sRGB" filterUnits="userSpaceOnUse"><feFlood flood-opacity="0" result="BackgroundImageFix"/><feBlend in="SourceGraphic" in2="BackgroundImageFix" result="shape"/><feColorMatrix in="SourceAlpha" result="hardAlpha" values="0 0 0 0 0 0 0 0 0 0 0 0 0 0 0 0 0 0 127 0"/><feOffset dx="1"/><feGaussianBlur stdDeviation=".5"/><feComposite in2="hardAlpha" k2="-1" k3="1" operator="arithmetic"/><feColorMatrix values="0 0 0 0 0.772549 0 0 0 0 0.517647 0 0 0 0 0.411765 0 0 0 1 0"/><feBlend in2="shape" result="effect1_innerShadow_3987_22979"/><feColorMatrix in="SourceAlpha" result="hardAlpha" values="0 0 0 0 0 0 0 0 0 0 0 0 0 0 0 0 0 0 127 0"/><feOffset dx=".15" dy="-.15"/><feGaussianBlur stdDeviation=".25"/><feComposite in2="hardAlpha" k2="-1" k3="1" operator="arithmetic"/><feColorMatrix values="0 0 0 0 0.854902 0 0 0 0 0.619608 0 0 0 0 0.501961 0 0 0 1 0"/><feBlend in2="effect1_innerShadow_3987_22979" result="effect2_innerShadow_3987_22979"/></filter><filter id="filter1_i_3987_22979" width="18.187" height="14.194" x="8.244" y="2.371" color-interpolation-filters="sRGB" filterUnits="userSpaceOnUse"><feFlood flood-opacity="0" result="BackgroundImageFix"/><feBlend in="SourceGraphic" in2="BackgroundImageFix" result="shape"/><feColorMatrix in="SourceAlpha" result="hardAlpha" values="0 0 0 0 0 0 0 0 0 0 0 0 0 0 0 0 0 0 127 0"/><feOffset dy="-.2"/><feGaussianBlur stdDeviation=".2"/><feComposite in2="hardAlpha" k2="-1" k3="1" operator="arithmetic"/><feColorMatrix values="0 0 0 0 0.568627 0 0 0 0 0.454902 0 0 0 0 0.647059 0 0 0 1 0"/><feBlend in2="shape" result="effect1_innerShadow_3987_22979"/></filter><filter id="filter2_i_3987_22979" width="4.793" height="2.27" x="19.515" y="28.004" color-interpolation-filters="sRGB" filterUnits="userSpaceOnUse"><feFlood flood-opacity="0" result="BackgroundImageFix"/><feBlend in="SourceGraphic" in2="BackgroundImageFix" result="shape"/><feColorMatrix in="SourceAlpha" result="hardAlpha" values="0 0 0 0 0 0 0 0 0 0 0 0 0 0 0 0 0 0 127 0"/><feOffset dx=".5" dy="-.5"/><feGaussianBlur stdDeviation=".5"/><feComposite in2="hardAlpha" k2="-1" k3="1" operator="arithmetic"/><feColorMatrix values="0 0 0 0 0.262745 0 0 0 0 0.188235 0 0 0 0 0.341176 0 0 0 1 0"/><feBlend in2="shape" result="effect1_innerShadow_3987_22979"/></filter><filter id="filter3_i_3987_22979" width="8.989" height="12.477" x="13.498" y="16.04" color-interpolation-filters="sRGB" filterUnits="userSpaceOnUse"><feFlood flood-opacity="0" result="BackgroundImageFix"/><feBlend in="SourceGraphic" in2="BackgroundImageFix" result="shape"/><feColorMatrix in="SourceAlpha" result="hardAlpha" values="0 0 0 0 0 0 0 0 0 0 0 0 0 0 0 0 0 0 127 0"/><feOffset dx=".5"/><feGaussianBlur stdDeviation=".5"/><feComposite in2="hardAlpha" k2="-1" k3="1" operator="arithmetic"/><feColorMatrix values="0 0 0 0 0.67451 0 0 0 0 0.635294 0 0 0 0 0.686275 0 0 0 1 0"/><feBlend in2="shape" result="effect1_innerShadow_3987_22979"/></filter><filter id="filter4_ii_3987_22979" width="7.553" height="7.567" x="15.688" y="3.926" color-interpolation-filters="sRGB" filterUnits="userSpaceOnUse"><feFlood flood-opacity="0" result="BackgroundImageFix"/><feBlend in="SourceGraphic" in2="BackgroundImageFix" result="shape"/><feColorMatrix in="SourceAlpha" result="hardAlpha" values="0 0 0 0 0 0 0 0 0 0 0 0 0 0 0 0 0 0 127 0"/><feOffset dx=".25" dy=".15"/><feGaussianBlur stdDeviation=".25"/><feComposite in2="hardAlpha" k2="-1" k3="1" operator="arithmetic"/><feColorMatrix values="0 0 0 0 0.772549 0 0 0 0 0.556863 0 0 0 0 0.427451 0 0 0 1 0"/><feBlend in2="shape" result="effect1_innerShadow_3987_22979"/><feColorMatrix in="SourceAlpha" result="hardAlpha" values="0 0 0 0 0 0 0 0 0 0 0 0 0 0 0 0 0 0 127 0"/><feOffset dy="-.25"/><feGaussianBlur stdDeviation=".25"/><feComposite in2="hardAlpha" k2="-1" k3="1" operator="arithmetic"/><feColorMatrix values="0 0 0 0 0.796078 0 0 0 0 0.556863 0 0 0 0 0.517647 0 0 0 1 0"/><feBlend in2="effect1_innerShadow_3987_22979" result="effect2_innerShadow_3987_22979"/></filter><filter id="filter5_i_3987_22979" width="3.395" height="2.909" x="15.65" y="8.5" color-interpolation-filters="sRGB" filterUnits="userSpaceOnUse"><feFlood flood-opacity="0" result="BackgroundImageFix"/><feBlend in="SourceGraphic" in2="BackgroundImageFix" result="shape"/><feColorMatrix in="SourceAlpha" result="hardAlpha" values="0 0 0 0 0 0 0 0 0 0 0 0 0 0 0 0 0 0 127 0"/><feOffset dy="-.25"/><feGaussianBlur stdDeviation=".25"/><feComposite in2="hardAlpha" k2="-1" k3="1" operator="arithmetic"/><feColorMatrix values="0 0 0 0 0.145098 0 0 0 0 0.4 0 0 0 0 0.835294 0 0 0 1 0"/><feBlend in2="shape" result="effect1_innerShadow_3987_22979"/></filter><filter id="filter6_f_3987_22979" width="1.789" height="3.497" x="9.424" y="12.658" color-interpolation-filters="sRGB" filterUnits="userSpaceOnUse"><feFlood flood-opacity="0" result="BackgroundImageFix"/><feBlend in="SourceGraphic" in2="BackgroundImageFix" result="shape"/><feGaussianBlur result="effect1_foregroundBlur_3987_22979" stdDeviation=".125"/></filter><filter id="filter7_f_3987_22979" width="2.601" height="13.601" x="19.765" y="15.505" color-interpolation-filters="sRGB" filterUnits="userSpaceOnUse"><feFlood flood-opacity="0" result="BackgroundImageFix"/><feBlend in="SourceGraphic" in2="BackgroundImageFix" result="shape"/><feGaussianBlur result="effect1_foregroundBlur_3987_22979" stdDeviation=".4"/></filter><filter id="filter8_f_3987_22979" width="2.563" height="7.453" x="16.362" y="16.946" color-interpolation-filters="sRGB" filterUnits="userSpaceOnUse"><feFlood flood-opacity="0" result="BackgroundImageFix"/><feBlend in="SourceGraphic" in2="BackgroundImageFix" result="shape"/><feGaussianBlur result="effect1_foregroundBlur_3987_22979" stdDeviation=".375"/></filter><filter id="filter9_i_3987_22979" width="1.619" height="1.419" x="13.515" y="6.559" color-interpolation-filters="sRGB" filterUnits="userSpaceOnUse"><feFlood flood-opacity="0" result="BackgroundImageFix"/><feBlend in="SourceGraphic" in2="BackgroundImageFix" result="shape"/><feColorMatrix in="SourceAlpha" result="hardAlpha" values="0 0 0 0 0 0 0 0 0 0 0 0 0 0 0 0 0 0 127 0"/><feOffset dx=".2"/><feGaussianBlur stdDeviation=".2"/><feComposite in2="hardAlpha" k2="-1" k3="1" operator="arithmetic"/><feColorMatrix values="0 0 0 0 0.866667 0 0 0 0 0.643137 0 0 0 0 0.533333 0 0 0 1 0"/><feBlend in2="shape" result="effect1_innerShadow_3987_22979"/></filter><filter id="filter10_f_3987_22979" width="1.845" height="1.845" x="13.301" y="6.346" color-interpolation-filters="sRGB" filterUnits="userSpaceOnUse"><feFlood flood-opacity="0" result="BackgroundImageFix"/><feBlend in="SourceGraphic" in2="BackgroundImageFix" result="shape"/><feGaussianBlur result="effect1_foregroundBlur_3987_22979" stdDeviation=".25"/></filter><filter id="filter11_i_3987_22979" width="1.669" height="1.669" x="17.015" y="4.288" color-interpolation-filters="sRGB" filterUnits="userSpaceOnUse"><feFlood flood-opacity="0" result="BackgroundImageFix"/><feBlend in="SourceGraphic" in2="BackgroundImageFix" result="shape"/><feColorMatrix in="SourceAlpha" result="hardAlpha" values="0 0 0 0 0 0 0 0 0 0 0 0 0 0 0 0 0 0 127 0"/><feOffset dx=".25" dy="-.25"/><feGaussianBlur stdDeviation=".25"/><feComposite in2="hardAlpha" k2="-1" k3="1" operator="arithmetic"/><feColorMatrix values="0 0 0 0 0.768627 0 0 0 0 0.529412 0 0 0 0 0.505882 0 0 0 1 0"/><feBlend in2="shape" result="effect1_innerShadow_3987_22979"/></filter><filter id="filter12_f_3987_22979" width="1.845" height="1.845" x="16.801" y="4.325" color-interpolation-filters="sRGB" filterUnits="userSpaceOnUse"><feFlood flood-opacity="0" result="BackgroundImageFix"/><feBlend in="SourceGraphic" in2="BackgroundImageFix" result="shape"/><feGaussianBlur result="effect1_foregroundBlur_3987_22979" stdDeviation=".25"/></filter><filter id="filter13_f_3987_22979" width="2.275" height="2.632" x="15.082" y="5.372" color-interpolation-filters="sRGB" filterUnits="userSpaceOnUse"><feFlood flood-opacity="0" result="BackgroundImageFix"/><feBlend in="SourceGraphic" in2="BackgroundImageFix" result="shape"/><feGaussianBlur result="effect1_foregroundBlur_3987_22979" stdDeviation=".375"/></filter><filter id="filter14_f_3987_22979" width="1.115" height="1.325" x="15.665" y="5.927" color-interpolation-filters="sRGB" filterUnits="userSpaceOnUse"><feFlood flood-opacity="0" result="BackgroundImageFix"/><feBlend in="SourceGraphic" in2="BackgroundImageFix" result="shape"/><feGaussianBlur result="effect1_foregroundBlur_3987_22979" stdDeviation=".05"/></filter><filter id="filter15_f_3987_22979" width=".373" height=".474" x="16.291" y="5.35" color-interpolation-filters="sRGB" filterUnits="userSpaceOnUse"><feFlood flood-opacity="0" result="BackgroundImageFix"/><feBlend in="SourceGraphic" in2="BackgroundImageFix" result="shape"/><feGaussianBlur result="effect1_foregroundBlur_3987_22979" stdDeviation=".05"/></filter><filter id="filter16_f_3987_22979" width=".617" height=".617" x="16.565" y="5.166" color-interpolation-filters="sRGB" filterUnits="userSpaceOnUse"><feFlood flood-opacity="0" result="BackgroundImageFix"/><feBlend in="SourceGraphic" in2="BackgroundImageFix" result="shape"/><feGaussianBlur result="effect1_foregroundBlur_3987_22979" stdDeviation=".1"/></filter><filter id="filter17_f_3987_22979" width=".671" height=".659" x="14.917" y="6.079" color-interpolation-filters="sRGB" filterUnits="userSpaceOnUse"><feFlood flood-opacity="0" result="BackgroundImageFix"/><feBlend in="SourceGraphic" in2="BackgroundImageFix" result="shape"/><feGaussianBlur result="effect1_foregroundBlur_3987_22979" stdDeviation=".1"/></filter><filter id="filter18_f_3987_22979" width=".426" height=".494" x="14.689" y="6.248" color-interpolation-filters="sRGB" filterUnits="userSpaceOnUse"><feFlood flood-opacity="0" result="BackgroundImageFix"/><feBlend in="SourceGraphic" in2="BackgroundImageFix" result="shape"/><feGaussianBlur result="effect1_foregroundBlur_3987_22979" stdDeviation=".05"/></filter><filter id="filter19_i_3987_22979" width="1.354" height=".852" x="15.758" y="4.36" color-interpolation-filters="sRGB" filterUnits="userSpaceOnUse"><feFlood flood-opacity="0" result="BackgroundImageFix"/><feBlend in="SourceGraphic" in2="BackgroundImageFix" result="shape"/><feColorMatrix in="SourceAlpha" result="hardAlpha" values="0 0 0 0 0 0 0 0 0 0 0 0 0 0 0 0 0 0 127 0"/><feOffset dx=".25" dy=".25"/><feGaussianBlur stdDeviation=".2"/><feComposite in2="hardAlpha" k2="-1" k3="1" operator="arithmetic"/><feColorMatrix values="0 0 0 0 0.32549 0 0 0 0 0.211765 0 0 0 0 0.180392 0 0 0 1 0"/><feBlend in2="shape" result="effect1_innerShadow_3987_22979"/></filter><filter id="filter20_i_3987_22979" width="1.167" height="1.164" x="13.963" y="5.299" color-interpolation-filters="sRGB" filterUnits="userSpaceOnUse"><feFlood flood-opacity="0" result="BackgroundImageFix"/><feBlend in="SourceGraphic" in2="BackgroundImageFix" result="shape"/><feColorMatrix in="SourceAlpha" result="hardAlpha" values="0 0 0 0 0 0 0 0 0 0 0 0 0 0 0 0 0 0 127 0"/><feOffset dx=".25" dy=".25"/><feGaussianBlur stdDeviation=".2"/><feComposite in2="hardAlpha" k2="-1" k3="1" operator="arithmetic"/><feColorMatrix values="0 0 0 0 0.32549 0 0 0 0 0.211765 0 0 0 0 0.180392 0 0 0 1 0"/><feBlend in2="shape" result="effect1_innerShadow_3987_22979"/></filter><filter id="filter21_i_3987_22979" width="4.106" height="2.64" x="13.2" y="3.652" color-interpolation-filters="sRGB" filterUnits="userSpaceOnUse"><feFlood flood-opacity="0" result="BackgroundImageFix"/><feBlend in="SourceGraphic" in2="BackgroundImageFix" result="shape"/><feColorMatrix in="SourceAlpha" result="hardAlpha" values="0 0 0 0 0 0 0 0 0 0 0 0 0 0 0 0 0 0 127 0"/><feOffset dy="-.05"/><feGaussianBlur stdDeviation=".05"/><feComposite in2="hardAlpha" k2="-1" k3="1" operator="arithmetic"/><feColorMatrix values="0 0 0 0 0.160784 0 0 0 0 0.396078 0 0 0 0 0.721569 0 0 0 1 0"/><feBlend in2="shape" result="effect1_innerShadow_3987_22979"/></filter></defs></svg>