<svg xmlns="http://www.w3.org/2000/svg" width="32" height="32" fill="none" viewBox="0 0 32 32"><g clip-path="url(#clip0_6986_5131)"><path fill="url(#paint0_linear_6986_5131)" d="M6.516 19.394c3.029 0 5.484-2.417 5.484-5.399 0-2.981-2.455-5.398-5.484-5.398-3.03 0-5.485 2.417-5.485 5.398 0 2.982 2.456 5.399 5.485 5.399Z"/><path fill="url(#paint1_linear_6986_5131)" d="M6.516 19.394c3.029 0 5.484-2.417 5.484-5.399 0-2.981-2.455-5.398-5.484-5.398-3.03 0-5.485 2.417-5.485 5.398 0 2.982 2.456 5.399 5.485 5.399Z"/><path fill="url(#paint2_radial_6986_5131)" fill-opacity=".5" d="M6.516 19.394c3.029 0 5.484-2.417 5.484-5.399 0-2.981-2.455-5.398-5.484-5.398-3.03 0-5.485 2.417-5.485 5.398 0 2.982 2.456 5.399 5.485 5.399Z"/><path fill="url(#paint3_linear_6986_5131)" d="M25.433 19.394c3.029 0 5.484-2.417 5.484-5.399 0-2.981-2.455-5.398-5.484-5.398s-5.485 2.417-5.485 5.398c0 2.982 2.456 5.399 5.485 5.399Z"/><g filter="url(#filter0_f_6986_5131)"><path stroke="url(#paint4_radial_6986_5131)" stroke-linecap="round" stroke-opacity=".8" stroke-width=".5" d="M26.837 9.368c.98.148 2.874 1.438 3.293 3.51.484 1.781-.172 4.062-1.672 4.953"/></g><path fill="url(#paint5_radial_6986_5131)" d="M16 26.342c7.966 0 11.947-5.35 11.947-11.947 0-6.599-3.98-11.948-11.947-11.948-7.966 0-11.947 5.35-11.947 11.948 0 6.598 3.98 11.947 11.947 11.947Z"/><path fill="url(#paint6_linear_6986_5131)" d="M16 26.342c7.966 0 11.947-5.35 11.947-11.947 0-6.599-3.98-11.948-11.947-11.948-7.966 0-11.947 5.35-11.947 11.948 0 6.598 3.98 11.947 11.947 11.947Z"/><path fill="url(#paint7_radial_6986_5131)" d="M16 26.342c7.966 0 11.947-5.35 11.947-11.947 0-6.599-3.98-11.948-11.947-11.948-7.966 0-11.947 5.35-11.947 11.948 0 6.598 3.98 11.947 11.947 11.947Z"/><path fill="url(#paint8_radial_6986_5131)" d="M16 26.342c7.966 0 11.947-5.35 11.947-11.947 0-6.599-3.98-11.948-11.947-11.948-7.966 0-11.947 5.35-11.947 11.948 0 6.598 3.98 11.947 11.947 11.947Z"/><g filter="url(#filter1_f_6986_5131)"><ellipse cx="23.418" cy="9.909" fill="#C58E7D" rx="1.849" ry="4.333" transform="rotate(-23.4 23.418 9.91)"/></g><g filter="url(#filter2_f_6986_5131)"><path fill="#C58E7D" d="M15.851 3.888c1.856 0 3.36.216 3.36.483s-1.504.483-3.36.483c-1.856 0-3.36-.216-3.36-.483s1.504-.483 3.36-.483Z"/></g><g filter="url(#filter3_f_6986_5131)"><path fill="#561E25" d="M11.877 6.118a4.76 4.76 0 0 0-3.653 7.81.554.554 0 0 1 .122.458 7.464 7.464 0 1 0 14.666 0 .555.555 0 0 1 .121-.458 4.76 4.76 0 0 0-3.653-7.81h-7.603Z"/></g><path fill="url(#paint9_linear_6986_5131)" d="M12.156 5.87a4.812 4.812 0 0 0-3.692 7.9.554.554 0 0 1 .122.458 7.547 7.547 0 1 0 14.828 0 .554.554 0 0 1 .122-.458 4.812 4.812 0 0 0-3.692-7.9h-7.688Z"/><path fill="url(#paint10_linear_6986_5131)" d="M12.156 5.87a4.812 4.812 0 0 0-3.692 7.9.554.554 0 0 1 .122.458 7.547 7.547 0 1 0 14.828 0 .554.554 0 0 1 .122-.458 4.812 4.812 0 0 0-3.692-7.9h-7.688Z"/><path fill="url(#paint11_radial_6986_5131)" d="M12.156 5.87a4.812 4.812 0 0 0-3.692 7.9.554.554 0 0 1 .122.458 7.547 7.547 0 1 0 14.828 0 .554.554 0 0 1 .122-.458 4.812 4.812 0 0 0-3.692-7.9h-7.688Z"/><path fill="url(#paint12_radial_6986_5131)" d="M12.156 5.87a4.812 4.812 0 0 0-3.692 7.9.554.554 0 0 1 .122.458 7.547 7.547 0 1 0 14.828 0 .554.554 0 0 1 .122-.458 4.812 4.812 0 0 0-3.692-7.9h-7.688Z"/><g filter="url(#filter4_f_6986_5131)"><path stroke="url(#paint13_linear_6986_5131)" stroke-linecap="round" stroke-opacity=".4" stroke-width=".8" d="M5.71 7.795c-1.593 3.93-1.411 9.682.33 12.13"/></g><g filter="url(#filter5_f_6986_5131)"><path stroke="url(#paint14_linear_6986_5131)" stroke-linecap="round" stroke-opacity=".5" stroke-width=".4" d="M26.92 9.925c.83 3.28.75 7.562-.75 10"/></g><g filter="url(#filter6_f_6986_5131)"><path stroke="url(#paint15_linear_6986_5131)" stroke-linecap="round" stroke-width=".4" d="M21.42 6.485c1.296.51 3.69 2.496 2.495 5.885"/></g><g filter="url(#filter7_f_6986_5131)"><path stroke="url(#paint16_linear_6986_5131)" stroke-linecap="round" stroke-width=".1" d="M23.013 14.23c.5 2.937-.593 5.125-1.593 6.03"/></g><g filter="url(#filter8_f_6986_5131)"><rect width="1.625" height="3.25" x="11.685" y="9.347" fill="#BB6F89" fill-opacity=".6" rx=".813"/></g><g filter="url(#filter9_f_6986_5131)"><rect width="1.625" height="3.25" x="18.154" y="9.347" fill="#BB6F89" fill-opacity=".6" rx=".813"/></g><rect width="1.625" height="3.25" x="11.93" y="9.105" fill="url(#paint17_linear_6986_5131)" rx=".813"/><rect width="1.625" height="3.25" x="11.93" y="9.105" fill="url(#paint18_linear_6986_5131)" rx=".813"/><rect width="1.625" height="3.25" x="18.445" y="9.105" fill="url(#paint19_linear_6986_5131)" rx=".813"/><rect width="1.625" height="3.25" x="18.445" y="9.105" fill="url(#paint20_linear_6986_5131)" rx=".813"/><g filter="url(#filter10_f_6986_5131)"><rect width="5.344" height="2.418" x="13.102" y="13.761" fill="#BB6F89" rx="1.116"/></g><rect width="4.891" height="2.232" x="13.555" y="13.357" fill="url(#paint21_linear_6986_5131)" rx="1.116"/><rect width="4.891" height="2.232" x="13.555" y="13.357" fill="url(#paint22_linear_6986_5131)" rx="1.116"/><circle cx="14.549" cy="14.874" r=".512" fill="url(#paint23_radial_6986_5131)"/><circle cx="17.346" cy="14.874" r=".512" fill="url(#paint24_radial_6986_5131)"/><g filter="url(#filter11_f_6986_5131)"><circle cx="13.026" cy="9.712" r=".284" fill="#795D72"/></g><g filter="url(#filter12_f_6986_5131)"><circle cx="19.495" cy="9.712" r=".284" fill="#795D72"/></g><g filter="url(#filter13_f_6986_5131)"><path stroke="url(#paint25_linear_6986_5131)" stroke-width=".05" d="M17.243 13.972c.344-.07.82.187.875.71"/></g><rect width="3.081" height="9.295" fill="url(#paint26_radial_6986_5131)" rx="1.54" transform="scale(1 -1) rotate(-59.424 -11.293 -17.086)"/><rect width="3.081" height="9.295" fill="url(#paint27_linear_6986_5131)" rx="1.54" transform="scale(1 -1) rotate(-59.424 -11.293 -17.086)"/><rect width="3.081" height="9.295" fill="url(#paint28_linear_6986_5131)" rx="1.54" transform="scale(1 -1) rotate(-59.424 -11.293 -17.086)"/><rect width="3.269" height="9.295" fill="url(#paint29_linear_6986_5131)" rx="1.635" transform="scale(1 -1) rotate(-7.275 -181.534 -84.843)"/><g filter="url(#filter14_f_6986_5131)"><path fill="#F2B9AD" d="M12.202 16.655c.334-.034.953-.416.998-1.078l-1.27-.437.272 1.515Z"/></g><rect width="3.081" height="9.295" fill="url(#paint30_radial_6986_5131)" rx="1.54" transform="scale(1 -1) rotate(-59.424 -13.959 -21.138)"/><rect width="3.081" height="9.295" fill="url(#paint31_linear_6986_5131)" rx="1.54" transform="scale(1 -1) rotate(-59.424 -13.959 -21.138)"/><rect width="3.081" height="9.295" fill="url(#paint32_linear_6986_5131)" rx="1.54" transform="scale(1 -1) rotate(-59.424 -13.959 -21.138)"/><rect width="3.081" height="9.295" fill="url(#paint33_linear_6986_5131)" rx="1.54" transform="scale(1 -1) rotate(-59.424 -13.959 -21.138)"/><rect width="2.93" height="9.295" fill="url(#paint34_radial_6986_5131)" rx="1.465" transform="scale(1 -1) rotate(-59.424 -12.288 -19.333)"/><rect width="2.93" height="9.295" fill="url(#paint35_linear_6986_5131)" rx="1.465" transform="scale(1 -1) rotate(-59.424 -12.288 -19.333)"/><g filter="url(#filter15_f_6986_5131)"><path fill="#FFD5C9" fill-opacity=".5" d="m18.055 17.108-.289-.49-2.262 1.336.29.49z"/></g><g filter="url(#filter16_f_6986_5131)"><path fill="#FFD5C9" fill-opacity=".6" d="m19.132 19.513-.177-.299-3.064 1.764.177.299 3.064-1.764Z"/></g><g filter="url(#filter17_f_6986_5131)"><path fill="#FFD5C9" fill-opacity=".75" d="m16.852 14.873-.364-.616-2.262 1.336.364.616z"/></g><g filter="url(#filter18_f_6986_5131)"><path fill="#B16962" fill-opacity=".75" d="m14.425 15.746-1.79 1.01 1.59 6.816c3.368-2.733 1.537-6.356.2-7.826Z"/></g><path fill="url(#paint36_linear_6986_5131)" d="M13.336 15.651a.5.5 0 0 1 .685.177l.593 1.004a6.75 6.75 0 0 1-2.378 9.245l-3.534 2.088a4.208 4.208 0 0 1-4.281-7.246l8.915-5.268Z"/><path fill="url(#paint37_radial_6986_5131)" d="M13.336 15.651a.5.5 0 0 1 .685.177l.593 1.004a6.75 6.75 0 0 1-2.378 9.245l-3.534 2.088a4.208 4.208 0 0 1-4.281-7.246l8.915-5.268Z"/><path fill="url(#paint38_linear_6986_5131)" d="M13.336 15.651a.5.5 0 0 1 .685.177l.593 1.004a6.75 6.75 0 0 1-2.378 9.245l-3.534 2.088a4.208 4.208 0 0 1-4.281-7.246l8.915-5.268Z"/><path fill="url(#paint39_radial_6986_5131)" d="M13.336 15.651a.5.5 0 0 1 .685.177l.593 1.004a6.75 6.75 0 0 1-2.378 9.245l-3.534 2.088a4.208 4.208 0 0 1-4.281-7.246l8.915-5.268Z"/><path fill="url(#paint40_radial_6986_5131)" d="M13.336 15.651a.5.5 0 0 1 .685.177l.593 1.004a6.75 6.75 0 0 1-2.378 9.245l-3.534 2.088a4.208 4.208 0 0 1-4.281-7.246l8.915-5.268Z"/><path fill="url(#paint41_radial_6986_5131)" d="M13.336 15.651a.5.5 0 0 1 .685.177l.593 1.004a6.75 6.75 0 0 1-2.378 9.245l-3.534 2.088a4.208 4.208 0 0 1-4.281-7.246l8.915-5.268Z"/><g filter="url(#filter19_f_6986_5131)" opacity=".5"><rect width="1.735" height="12.118" fill="url(#paint42_linear_6986_5131)" rx=".868" transform="scale(-1 1) rotate(-59.424 10.023 23.504)"/></g><path fill="url(#paint43_linear_6986_5131)" d="m12.921 15.874.415-.223a.5.5 0 0 1 .685.176l.593 1.005a6.751 6.751 0 0 1-.28 7.306c.697-1.78.754-4.11.142-5.808-.323-.895-.956-1.927-1.555-2.456Z" opacity=".5"/><rect width="3.081" height="9.295" x="23.095" y="18.108" fill="url(#paint44_radial_6986_5131)" rx="1.54" transform="rotate(120.576 23.095 18.108)"/><rect width="3.081" height="9.295" x="23.095" y="18.108" fill="url(#paint45_linear_6986_5131)" rx="1.54" transform="rotate(120.576 23.095 18.108)"/><rect width="3.081" height="9.295" x="23.095" y="18.108" fill="url(#paint46_linear_6986_5131)" rx="1.54" transform="rotate(120.576 23.095 18.108)"/><rect width="3.269" height="9.295" x="22.975" y="23.66" fill="url(#paint47_linear_6986_5131)" rx="1.635" transform="rotate(172.725 22.975 23.66)"/><rect width="3.081" height="9.295" x="20.916" y="22.393" fill="url(#paint48_radial_6986_5131)" rx="1.54" transform="rotate(120.576 20.916 22.393)"/><rect width="3.081" height="9.295" x="20.916" y="22.393" fill="url(#paint49_linear_6986_5131)" rx="1.54" transform="rotate(120.576 20.916 22.393)"/><rect width="3.081" height="9.295" x="20.916" y="22.393" fill="url(#paint50_linear_6986_5131)" rx="1.54" transform="rotate(120.576 20.916 22.393)"/><rect width="3.081" height="9.295" x="20.916" y="22.393" fill="url(#paint51_linear_6986_5131)" rx="1.54" transform="rotate(120.576 20.916 22.393)"/><rect width="2.93" height="9.295" x="21.649" y="20.068" fill="url(#paint52_radial_6986_5131)" rx="1.465" transform="rotate(120.576 21.649 20.068)"/><rect width="2.93" height="9.295" x="21.649" y="20.068" fill="url(#paint53_linear_6986_5131)" rx="1.465" transform="rotate(120.576 21.649 20.068)"/><g filter="url(#filter20_f_6986_5131)"><path fill="#FFD5C9" fill-opacity=".5" d="m14.202 17.098.29-.49 2.26 1.337-.289.49z"/></g><g filter="url(#filter21_f_6986_5131)"><path fill="#FFD5C9" fill-opacity=".6" d="m13.555 19.394.177-.3 1.571.9-.177.3-1.571-.9Z"/></g><g filter="url(#filter22_f_6986_5131)"><path fill="#FFD5C9" fill-opacity=".75" d="m15.405 14.863.364-.616 2.262 1.336-.365.616z"/></g><g filter="url(#filter23_f_6986_5131)"><path fill="#B05A93" fill-opacity=".75" d="m17.832 15.736 1.79 1.01-1.59 6.817c-3.368-2.734-1.537-6.357-.2-7.827Z"/></g><path fill="url(#paint54_linear_6986_5131)" d="M18.92 15.641a.5.5 0 0 0-.684.177l-.594 1.004a6.75 6.75 0 0 0 2.378 9.245l3.535 2.088a4.208 4.208 0 1 0 4.281-7.247l-8.915-5.267Z"/><path fill="url(#paint55_radial_6986_5131)" d="M18.92 15.641a.5.5 0 0 0-.684.177l-.594 1.004a6.75 6.75 0 0 0 2.378 9.245l3.535 2.088a4.208 4.208 0 1 0 4.281-7.247l-8.915-5.267Z"/><path fill="url(#paint56_linear_6986_5131)" d="M18.92 15.641a.5.5 0 0 0-.684.177l-.594 1.004a6.75 6.75 0 0 0 2.378 9.245l3.535 2.088a4.208 4.208 0 1 0 4.281-7.247l-8.915-5.267Z"/><path fill="url(#paint57_radial_6986_5131)" d="M18.92 15.641a.5.5 0 0 0-.684.177l-.594 1.004a6.75 6.75 0 0 0 2.378 9.245l3.535 2.088a4.208 4.208 0 1 0 4.281-7.247l-8.915-5.267Z"/><path fill="url(#paint58_radial_6986_5131)" d="M18.92 15.641a.5.5 0 0 0-.684.177l-.594 1.004a6.75 6.75 0 0 0 2.378 9.245l3.535 2.088a4.208 4.208 0 1 0 4.281-7.247l-8.915-5.267Z"/><g filter="url(#filter24_f_6986_5131)"><rect width="2.828" height="12.118" x="17.081" y="18.823" fill="url(#paint59_linear_6986_5131)" rx="1.414" transform="rotate(-59.424 17.081 18.823)"/></g><g filter="url(#filter25_f_6986_5131)"><path fill="#FFD5C9" d="M20.668 14.855c.335.02.97.375 1.043 1.034l-1.25.49.207-1.524Z"/></g><path fill="url(#paint60_linear_6986_5131)" d="m19.335 15.864-.414-.223a.5.5 0 0 0-.685.177l-.594 1.004a6.752 6.752 0 0 0 .281 7.306c-.698-1.78-.754-4.11-.142-5.808.323-.895.956-1.927 1.554-2.456Z" opacity=".5"/></g><defs><linearGradient id="paint0_linear_6986_5131" x1="6.516" x2="6.516" y1="10.175" y2="21.112" gradientUnits="userSpaceOnUse"><stop stop-color="#A67874"/><stop offset="1" stop-color="#8F5872"/></linearGradient><linearGradient id="paint1_linear_6986_5131" x1="6.516" x2="6.516" y1="13.425" y2="21.612" gradientUnits="userSpaceOnUse"><stop stop-color="#B56595" stop-opacity="0"/><stop offset="1" stop-color="#CA6FA6"/></linearGradient><linearGradient id="paint3_linear_6986_5131" x1="25.433" x2="25.433" y1="11.362" y2="21.612" gradientUnits="userSpaceOnUse"><stop offset=".094" stop-color="#FAB8A9"/><stop offset="1" stop-color="#B56595"/></linearGradient><linearGradient id="paint6_linear_6986_5131" x1="16" x2="16" y1="14.395" y2="31.252" gradientUnits="userSpaceOnUse"><stop stop-color="#682B5B" stop-opacity="0"/><stop offset="1" stop-color="#682B5B"/></linearGradient><linearGradient id="paint9_linear_6986_5131" x1="16" x2="16" y1="5.87" y2="23.917" gradientUnits="userSpaceOnUse"><stop stop-color="#FFC8BC"/><stop offset=".188" stop-color="#FAB8A9"/><stop offset=".895" stop-color="#AC628E"/></linearGradient><linearGradient id="paint10_linear_6986_5131" x1="16" x2="16" y1="13.452" y2="23.191" gradientUnits="userSpaceOnUse"><stop stop-color="#7D3838" stop-opacity="0"/><stop offset="1" stop-color="#7D3838" stop-opacity=".5"/></linearGradient><linearGradient id="paint13_linear_6986_5131" x1="6.646" x2="4.184" y1="20.553" y2="7.884" gradientUnits="userSpaceOnUse"><stop stop-color="#7C6160" stop-opacity="0"/><stop offset=".503" stop-color="#7C6160"/><stop offset="1" stop-color="#7C6160" stop-opacity="0"/></linearGradient><linearGradient id="paint14_linear_6986_5131" x1="24.978" x2="28.269" y1="19.925" y2="11.984" gradientUnits="userSpaceOnUse"><stop stop-color="#BE8B89" stop-opacity="0"/><stop offset=".296" stop-color="#BE8B89" stop-opacity=".6"/><stop offset=".808" stop-color="#BE8B89" stop-opacity="0"/></linearGradient><linearGradient id="paint15_linear_6986_5131" x1="24.528" x2="20.916" y1="11.802" y2="6.384" gradientUnits="userSpaceOnUse"><stop stop-color="#FFDACC" stop-opacity="0"/><stop offset=".557" stop-color="#FFDACC"/><stop offset="1" stop-color="#FFDACC" stop-opacity="0"/></linearGradient><linearGradient id="paint16_linear_6986_5131" x1="22.767" x2="22.087" y1="19.679" y2="15.605" gradientUnits="userSpaceOnUse"><stop offset=".026" stop-color="#FFDACC" stop-opacity="0"/><stop offset="1" stop-color="#FFDACC"/></linearGradient><linearGradient id="paint17_linear_6986_5131" x1="15.811" x2="11.128" y1="10.282" y2="10.282" gradientUnits="userSpaceOnUse"><stop stop-color="#432A3D"/><stop offset=".568" stop-color="#684E61"/><stop offset=".766" stop-color="#43253D"/></linearGradient><linearGradient id="paint18_linear_6986_5131" x1="13.109" x2="13.109" y1="10.11" y2="12.648" gradientUnits="userSpaceOnUse"><stop offset=".327" stop-color="#43253D" stop-opacity="0"/><stop offset="1" stop-color="#43253D"/></linearGradient><linearGradient id="paint19_linear_6986_5131" x1="22.327" x2="17.644" y1="10.282" y2="10.282" gradientUnits="userSpaceOnUse"><stop stop-color="#432A3D"/><stop offset=".568" stop-color="#684E61"/><stop offset=".766" stop-color="#43253D"/></linearGradient><linearGradient id="paint20_linear_6986_5131" x1="19.625" x2="19.625" y1="10.11" y2="12.648" gradientUnits="userSpaceOnUse"><stop offset=".327" stop-color="#43253D" stop-opacity="0"/><stop offset="1" stop-color="#43253D"/></linearGradient><linearGradient id="paint21_linear_6986_5131" x1="16" x2="16" y1="13.357" y2="15.495" gradientUnits="userSpaceOnUse"><stop stop-color="#E9A4A2"/><stop offset="1" stop-color="#DC89A8"/></linearGradient><linearGradient id="paint22_linear_6986_5131" x1="15.493" x2="14.753" y1="18.292" y2="14.677" gradientUnits="userSpaceOnUse"><stop offset=".07" stop-color="#C971B6"/><stop offset="1" stop-color="#DC90CC" stop-opacity="0"/></linearGradient><linearGradient id="paint25_linear_6986_5131" x1="17.68" x2="17.68" y1="13.96" y2="14.683" gradientUnits="userSpaceOnUse"><stop stop-color="#FFDACC" stop-opacity="0"/><stop offset=".349" stop-color="#FFEBE3"/></linearGradient><linearGradient id="paint27_linear_6986_5131" x1="5.815" x2="1.148" y1="4.018" y2="4.518" gradientUnits="userSpaceOnUse"><stop offset=".259" stop-color="#DC90CC"/><stop offset="1" stop-color="#DC90CC" stop-opacity="0"/></linearGradient><linearGradient id="paint28_linear_6986_5131" x1="3.499" x2="1.977" y1="5.104" y2="5.224" gradientUnits="userSpaceOnUse"><stop stop-color="#AA6C64"/><stop offset="1" stop-color="#D79D95" stop-opacity="0"/></linearGradient><linearGradient id="paint29_linear_6986_5131" x1="1.767" x2=".985" y1="8.105" y2="5.245" gradientUnits="userSpaceOnUse"><stop stop-color="#EDADA3"/><stop offset=".831" stop-color="#C27F74"/></linearGradient><linearGradient id="paint31_linear_6986_5131" x1="6.555" x2="-1.043" y1="2.715" y2="6.446" gradientUnits="userSpaceOnUse"><stop offset=".386" stop-color="#CF6ABA"/><stop offset="1" stop-color="#DC90CC" stop-opacity="0"/></linearGradient><linearGradient id="paint32_linear_6986_5131" x1="3.824" x2=".999" y1="5.247" y2="5.34" gradientUnits="userSpaceOnUse"><stop stop-color="#AA6C64"/><stop offset="1" stop-color="#D79D95" stop-opacity="0"/></linearGradient><linearGradient id="paint33_linear_6986_5131" x1=".303" x2="1.354" y1="5.133" y2="5.26" gradientUnits="userSpaceOnUse"><stop stop-color="#AA6C64"/><stop offset="1" stop-color="#D79D95" stop-opacity="0"/></linearGradient><linearGradient id="paint35_linear_6986_5131" x1="7.922" x2=".48" y1="3.743" y2="4.517" gradientUnits="userSpaceOnUse"><stop offset=".259" stop-color="#DC90CC"/><stop offset="1" stop-color="#DC90CC" stop-opacity="0"/></linearGradient><linearGradient id="paint36_linear_6986_5131" x1="6.963" x2="6.587" y1="14.463" y2="21.934" gradientUnits="userSpaceOnUse"><stop stop-color="#A06857"/><stop offset="1" stop-color="#6B423E"/></linearGradient><linearGradient id="paint38_linear_6986_5131" x1="11.85" x2="7.013" y1="28.789" y2="21.197" gradientUnits="userSpaceOnUse"><stop offset=".114" stop-color="#923A7F"/><stop offset="1" stop-color="#682B5B" stop-opacity="0"/></linearGradient><linearGradient id="paint42_linear_6986_5131" x1=".868" x2=".868" y1="0" y2="12.118" gradientUnits="userSpaceOnUse"><stop stop-color="#BC938F"/><stop offset="1" stop-color="#A07A76"/></linearGradient><linearGradient id="paint43_linear_6986_5131" x1="15.123" x2="13.526" y1="17.108" y2="17.756" gradientUnits="userSpaceOnUse"><stop stop-color="#5A3129"/><stop offset="1" stop-color="#5A3129" stop-opacity="0"/></linearGradient><linearGradient id="paint45_linear_6986_5131" x1="26.514" x2="23.773" y1="22.797" y2="24.622" gradientUnits="userSpaceOnUse"><stop offset=".259" stop-color="#DC90CC"/><stop offset="1" stop-color="#DC90CC" stop-opacity="0"/></linearGradient><linearGradient id="paint46_linear_6986_5131" x1="26.594" x2="25.073" y1="23.212" y2="23.332" gradientUnits="userSpaceOnUse"><stop stop-color="#AA6C64"/><stop offset="1" stop-color="#D79D95" stop-opacity="0"/></linearGradient><linearGradient id="paint47_linear_6986_5131" x1="23.55" x2="25.608" y1="31.136" y2="31.654" gradientUnits="userSpaceOnUse"><stop stop-color="#FFC5B7"/><stop offset=".756" stop-color="#FFBBA3"/></linearGradient><linearGradient id="paint49_linear_6986_5131" x1="24.099" x2="18.302" y1="24.111" y2="31.401" gradientUnits="userSpaceOnUse"><stop stop-color="#C558AE"/><stop offset="1" stop-color="#DC90CC" stop-opacity="0"/></linearGradient><linearGradient id="paint50_linear_6986_5131" x1="24.529" x2="23.849" y1="27.051" y2="27.035" gradientUnits="userSpaceOnUse"><stop stop-color="#E197DB"/><stop offset="1" stop-color="#E197DB" stop-opacity="0"/></linearGradient><linearGradient id="paint51_linear_6986_5131" x1="21.22" x2="22.27" y1="27.527" y2="27.654" gradientUnits="userSpaceOnUse"><stop stop-color="#AA6C64"/><stop offset="1" stop-color="#D79D95" stop-opacity="0"/></linearGradient><linearGradient id="paint53_linear_6986_5131" x1="25.089" x2="21.298" y1="23.549" y2="26.81" gradientUnits="userSpaceOnUse"><stop offset=".259" stop-color="#DE81CA"/><stop offset="1" stop-color="#DC90CC" stop-opacity="0"/></linearGradient><linearGradient id="paint54_linear_6986_5131" x1="26.17" x2="23.401" y1="19.744" y2="24.575" gradientUnits="userSpaceOnUse"><stop stop-color="#A06857"/><stop offset="1" stop-color="#6B423E"/></linearGradient><linearGradient id="paint56_linear_6986_5131" x1="18.461" x2="25.308" y1="30.785" y2="21.254" gradientUnits="userSpaceOnUse"><stop offset=".114" stop-color="#923A7F"/><stop offset="1" stop-color="#682B5B" stop-opacity="0"/></linearGradient><linearGradient id="paint59_linear_6986_5131" x1="18.495" x2="18.495" y1="18.823" y2="30.942" gradientUnits="userSpaceOnUse"><stop stop-color="#BC938F"/><stop offset="1" stop-color="#A07A76"/></linearGradient><linearGradient id="paint60_linear_6986_5131" x1="17.134" x2="18.731" y1="17.098" y2="17.747" gradientUnits="userSpaceOnUse"><stop stop-color="#5A3129"/><stop offset="1" stop-color="#5A3129" stop-opacity="0"/></linearGradient><filter id="filter0_f_6986_5131" width="4.75" height="9.763" x="26.187" y="8.718" color-interpolation-filters="sRGB" filterUnits="userSpaceOnUse"><feFlood flood-opacity="0" result="BackgroundImageFix"/><feBlend in="SourceGraphic" in2="BackgroundImageFix" result="shape"/><feGaussianBlur result="effect1_foregroundBlur_6986_5131" stdDeviation=".2"/></filter><filter id="filter1_f_6986_5131" width="11.833" height="15.089" x="17.501" y="2.365" color-interpolation-filters="sRGB" filterUnits="userSpaceOnUse"><feFlood flood-opacity="0" result="BackgroundImageFix"/><feBlend in="SourceGraphic" in2="BackgroundImageFix" result="shape"/><feGaussianBlur result="effect1_foregroundBlur_6986_5131" stdDeviation="1.75"/></filter><filter id="filter2_f_6986_5131" width="13.721" height="7.966" x="8.991" y=".388" color-interpolation-filters="sRGB" filterUnits="userSpaceOnUse"><feFlood flood-opacity="0" result="BackgroundImageFix"/><feBlend in="SourceGraphic" in2="BackgroundImageFix" result="shape"/><feGaussianBlur result="effect1_foregroundBlur_6986_5131" stdDeviation="1.75"/></filter><filter id="filter3_f_6986_5131" width="21.121" height="21.129" x="5.118" y="4.118" color-interpolation-filters="sRGB" filterUnits="userSpaceOnUse"><feFlood flood-opacity="0" result="BackgroundImageFix"/><feBlend in="SourceGraphic" in2="BackgroundImageFix" result="shape"/><feGaussianBlur result="effect1_foregroundBlur_6986_5131" stdDeviation="1"/></filter><filter id="filter4_f_6986_5131" width="3.023" height="13.73" x="3.818" y="6.995" color-interpolation-filters="sRGB" filterUnits="userSpaceOnUse"><feFlood flood-opacity="0" result="BackgroundImageFix"/><feBlend in="SourceGraphic" in2="BackgroundImageFix" result="shape"/><feGaussianBlur result="effect1_foregroundBlur_6986_5131" stdDeviation=".2"/></filter><filter id="filter5_f_6986_5131" width="2.477" height="11.2" x="25.57" y="9.325" color-interpolation-filters="sRGB" filterUnits="userSpaceOnUse"><feFlood flood-opacity="0" result="BackgroundImageFix"/><feBlend in="SourceGraphic" in2="BackgroundImageFix" result="shape"/><feGaussianBlur result="effect1_foregroundBlur_6986_5131" stdDeviation=".2"/></filter><filter id="filter6_f_6986_5131" width="4.02" height="7.085" x="20.82" y="5.885" color-interpolation-filters="sRGB" filterUnits="userSpaceOnUse"><feFlood flood-opacity="0" result="BackgroundImageFix"/><feBlend in="SourceGraphic" in2="BackgroundImageFix" result="shape"/><feGaussianBlur result="effect1_foregroundBlur_6986_5131" stdDeviation=".2"/></filter><filter id="filter7_f_6986_5131" width="2.619" height="6.931" x="20.97" y="13.78" color-interpolation-filters="sRGB" filterUnits="userSpaceOnUse"><feFlood flood-opacity="0" result="BackgroundImageFix"/><feBlend in="SourceGraphic" in2="BackgroundImageFix" result="shape"/><feGaussianBlur result="effect1_foregroundBlur_6986_5131" stdDeviation=".2"/></filter><filter id="filter8_f_6986_5131" width="3.625" height="5.25" x="10.685" y="8.347" color-interpolation-filters="sRGB" filterUnits="userSpaceOnUse"><feFlood flood-opacity="0" result="BackgroundImageFix"/><feBlend in="SourceGraphic" in2="BackgroundImageFix" result="shape"/><feGaussianBlur result="effect1_foregroundBlur_6986_5131" stdDeviation=".5"/></filter><filter id="filter9_f_6986_5131" width="3.625" height="5.25" x="17.154" y="8.347" color-interpolation-filters="sRGB" filterUnits="userSpaceOnUse"><feFlood flood-opacity="0" result="BackgroundImageFix"/><feBlend in="SourceGraphic" in2="BackgroundImageFix" result="shape"/><feGaussianBlur result="effect1_foregroundBlur_6986_5131" stdDeviation=".5"/></filter><filter id="filter10_f_6986_5131" width="7.344" height="4.418" x="12.102" y="12.761" color-interpolation-filters="sRGB" filterUnits="userSpaceOnUse"><feFlood flood-opacity="0" result="BackgroundImageFix"/><feBlend in="SourceGraphic" in2="BackgroundImageFix" result="shape"/><feGaussianBlur result="effect1_foregroundBlur_6986_5131" stdDeviation=".5"/></filter><filter id="filter11_f_6986_5131" width="2.567" height="2.567" x="11.742" y="8.428" color-interpolation-filters="sRGB" filterUnits="userSpaceOnUse"><feFlood flood-opacity="0" result="BackgroundImageFix"/><feBlend in="SourceGraphic" in2="BackgroundImageFix" result="shape"/><feGaussianBlur result="effect1_foregroundBlur_6986_5131" stdDeviation=".5"/></filter><filter id="filter12_f_6986_5131" width="2.567" height="2.567" x="18.212" y="8.428" color-interpolation-filters="sRGB" filterUnits="userSpaceOnUse"><feFlood flood-opacity="0" result="BackgroundImageFix"/><feBlend in="SourceGraphic" in2="BackgroundImageFix" result="shape"/><feGaussianBlur result="effect1_foregroundBlur_6986_5131" stdDeviation=".5"/></filter><filter id="filter13_f_6986_5131" width="1.305" height="1.15" x="17.038" y="13.736" color-interpolation-filters="sRGB" filterUnits="userSpaceOnUse"><feFlood flood-opacity="0" result="BackgroundImageFix"/><feBlend in="SourceGraphic" in2="BackgroundImageFix" result="shape"/><feGaussianBlur result="effect1_foregroundBlur_6986_5131" stdDeviation=".1"/></filter><filter id="filter14_f_6986_5131" width="2.271" height="2.515" x="11.43" y="14.64" color-interpolation-filters="sRGB" filterUnits="userSpaceOnUse"><feFlood flood-opacity="0" result="BackgroundImageFix"/><feBlend in="SourceGraphic" in2="BackgroundImageFix" result="shape"/><feGaussianBlur result="effect1_foregroundBlur_6986_5131" stdDeviation=".25"/></filter><filter id="filter15_f_6986_5131" width="4.051" height="3.326" x="14.754" y="15.867" color-interpolation-filters="sRGB" filterUnits="userSpaceOnUse"><feFlood flood-opacity="0" result="BackgroundImageFix"/><feBlend in="SourceGraphic" in2="BackgroundImageFix" result="shape"/><feGaussianBlur result="effect1_foregroundBlur_6986_5131" stdDeviation=".375"/></filter><filter id="filter16_f_6986_5131" width="4.742" height="3.563" x="15.141" y="18.464" color-interpolation-filters="sRGB" filterUnits="userSpaceOnUse"><feFlood flood-opacity="0" result="BackgroundImageFix"/><feBlend in="SourceGraphic" in2="BackgroundImageFix" result="shape"/><feGaussianBlur result="effect1_foregroundBlur_6986_5131" stdDeviation=".375"/></filter><filter id="filter17_f_6986_5131" width="4.126" height="3.453" x="13.476" y="13.507" color-interpolation-filters="sRGB" filterUnits="userSpaceOnUse"><feFlood flood-opacity="0" result="BackgroundImageFix"/><feBlend in="SourceGraphic" in2="BackgroundImageFix" result="shape"/><feGaussianBlur result="effect1_foregroundBlur_6986_5131" stdDeviation=".375"/></filter><filter id="filter18_f_6986_5131" width="5.503" height="9.827" x="11.636" y="14.746" color-interpolation-filters="sRGB" filterUnits="userSpaceOnUse"><feFlood flood-opacity="0" result="BackgroundImageFix"/><feBlend in="SourceGraphic" in2="BackgroundImageFix" result="shape"/><feGaussianBlur result="effect1_foregroundBlur_6986_5131" stdDeviation=".5"/></filter><filter id="filter19_f_6986_5131" width="15.675" height="12.017" x="1.816" y="16.504" color-interpolation-filters="sRGB" filterUnits="userSpaceOnUse"><feFlood flood-opacity="0" result="BackgroundImageFix"/><feBlend in="SourceGraphic" in2="BackgroundImageFix" result="shape"/><feGaussianBlur result="effect1_foregroundBlur_6986_5131" stdDeviation="1.25"/></filter><filter id="filter20_f_6986_5131" width="4.051" height="3.326" x="13.451" y="15.857" color-interpolation-filters="sRGB" filterUnits="userSpaceOnUse"><feFlood flood-opacity="0" result="BackgroundImageFix"/><feBlend in="SourceGraphic" in2="BackgroundImageFix" result="shape"/><feGaussianBlur result="effect1_foregroundBlur_6986_5131" stdDeviation=".375"/></filter><filter id="filter21_f_6986_5131" width="3.248" height="2.7" x="12.805" y="18.344" color-interpolation-filters="sRGB" filterUnits="userSpaceOnUse"><feFlood flood-opacity="0" result="BackgroundImageFix"/><feBlend in="SourceGraphic" in2="BackgroundImageFix" result="shape"/><feGaussianBlur result="effect1_foregroundBlur_6986_5131" stdDeviation=".375"/></filter><filter id="filter22_f_6986_5131" width="4.126" height="3.453" x="14.655" y="13.497" color-interpolation-filters="sRGB" filterUnits="userSpaceOnUse"><feFlood flood-opacity="0" result="BackgroundImageFix"/><feBlend in="SourceGraphic" in2="BackgroundImageFix" result="shape"/><feGaussianBlur result="effect1_foregroundBlur_6986_5131" stdDeviation=".375"/></filter><filter id="filter23_f_6986_5131" width="5.503" height="9.827" x="15.118" y="14.736" color-interpolation-filters="sRGB" filterUnits="userSpaceOnUse"><feFlood flood-opacity="0" result="BackgroundImageFix"/><feBlend in="SourceGraphic" in2="BackgroundImageFix" result="shape"/><feGaussianBlur result="effect1_foregroundBlur_6986_5131" stdDeviation=".5"/></filter><filter id="filter24_f_6986_5131" width="15.827" height="12.554" x="15.104" y="14.411" color-interpolation-filters="sRGB" filterUnits="userSpaceOnUse"><feFlood flood-opacity="0" result="BackgroundImageFix"/><feBlend in="SourceGraphic" in2="BackgroundImageFix" result="shape"/><feGaussianBlur result="effect1_foregroundBlur_6986_5131" stdDeviation="1.25"/></filter><filter id="filter25_f_6986_5131" width="2.251" height="2.525" x="19.96" y="14.355" color-interpolation-filters="sRGB" filterUnits="userSpaceOnUse"><feFlood flood-opacity="0" result="BackgroundImageFix"/><feBlend in="SourceGraphic" in2="BackgroundImageFix" result="shape"/><feGaussianBlur result="effect1_foregroundBlur_6986_5131" stdDeviation=".25"/></filter><radialGradient id="paint2_radial_6986_5131" cx="0" cy="0" r="1" gradientTransform="matrix(-11.25001 -11.12504 13.27885 -13.42801 10.385 20.05)" gradientUnits="userSpaceOnUse"><stop offset=".632" stop-color="#F39585" stop-opacity="0"/><stop offset="1" stop-color="#F39585"/></radialGradient><radialGradient id="paint4_radial_6986_5131" cx="0" cy="0" r="1" gradientTransform="matrix(-5.49997 -6.31252 13.2979 -11.5862 29.02 17.518)" gradientUnits="userSpaceOnUse"><stop stop-color="#FFDACC" stop-opacity="0"/><stop offset=".448" stop-color="#FFDACC"/><stop offset="1" stop-color="#FFDACC" stop-opacity="0"/></radialGradient><radialGradient id="paint5_radial_6986_5131" cx="0" cy="0" r="1" gradientTransform="matrix(-10.93739 18.417 -32.63847 -19.38316 24.26 7.925)" gradientUnits="userSpaceOnUse"><stop stop-color="#A06857"/><stop offset="1" stop-color="#5B3838"/></radialGradient><radialGradient id="paint7_radial_6986_5131" cx="0" cy="0" r="1" gradientTransform="scale(18.4611 20.6725) rotate(90 .157 .71)" gradientUnits="userSpaceOnUse"><stop offset=".688" stop-color="#FF7AF2" stop-opacity="0"/><stop offset="1" stop-color="#FFBCE6"/></radialGradient><radialGradient id="paint8_radial_6986_5131" cx="0" cy="0" r="1" gradientTransform="rotate(126.103 10.803 9.307) scale(14.0013)" gradientUnits="userSpaceOnUse"><stop stop-color="#AC7463"/><stop offset="1" stop-color="#AC7463" stop-opacity="0"/></radialGradient><radialGradient id="paint11_radial_6986_5131" cx="0" cy="0" r="1" gradientTransform="rotate(159.382 11.808 6.948) scale(20.2335 27.146)" gradientUnits="userSpaceOnUse"><stop offset=".818" stop-color="#A55F89" stop-opacity="0"/><stop offset="1" stop-color="#A55F89"/></radialGradient><radialGradient id="paint12_radial_6986_5131" cx="0" cy="0" r="1" gradientTransform="matrix(-.00069 12.7039 -10.8463 -.00059 16 12.366)" gradientUnits="userSpaceOnUse"><stop offset=".813" stop-color="#EF5CF2" stop-opacity="0"/><stop offset="1" stop-color="#FF63C4"/></radialGradient><radialGradient id="paint23_radial_6986_5131" cx="0" cy="0" r="1" gradientTransform="rotate(133.174 4.31 10.484) scale(1.90311 1.14415)" gradientUnits="userSpaceOnUse"><stop stop-color="#3E2739"/><stop offset="1" stop-color="#684E61"/></radialGradient><radialGradient id="paint24_radial_6986_5131" cx="0" cy="0" r="1" gradientTransform="matrix(-.774 .94202 -1.47397 -1.21107 17.608 14.514)" gradientUnits="userSpaceOnUse"><stop stop-color="#3C2737"/><stop offset="1" stop-color="#684E61"/></radialGradient><radialGradient id="paint26_radial_6986_5131" cx="0" cy="0" r="1" gradientTransform="rotate(59.013 -4.25 2.95) scale(5.27251 20.0471)" gradientUnits="userSpaceOnUse"><stop offset=".24" stop-color="#FBBEAB"/><stop offset=".906" stop-color="#D79D95"/></radialGradient><radialGradient id="paint30_radial_6986_5131" cx="0" cy="0" r="1" gradientTransform="rotate(73.488 -2.562 3.35) scale(4.23632 16.1073)" gradientUnits="userSpaceOnUse"><stop stop-color="#F9B4A9"/><stop offset="1" stop-color="#D79D95"/></radialGradient><radialGradient id="paint34_radial_6986_5131" cx="0" cy="0" r="1" gradientTransform="matrix(.49622 6.35615 -22.99952 1.79556 1.31 4.855)" gradientUnits="userSpaceOnUse"><stop stop-color="#F9B4A9"/><stop offset="1" stop-color="#D79D95"/></radialGradient><radialGradient id="paint37_radial_6986_5131" cx="0" cy="0" r="1" gradientTransform="rotate(-68.461 25.15 11.24) scale(8.66893 8.83779)" gradientUnits="userSpaceOnUse"><stop offset=".114" stop-color="#7A326B"/><stop offset="1" stop-color="#682B5B" stop-opacity="0"/></radialGradient><radialGradient id="paint39_radial_6986_5131" cx="0" cy="0" r="1" gradientTransform="rotate(-9.846 145.569 1.388) scale(5.17453 5.27532)" gradientUnits="userSpaceOnUse"><stop offset=".114" stop-color="#5A383A"/><stop offset="1" stop-color="#5A383A" stop-opacity="0"/></radialGradient><radialGradient id="paint40_radial_6986_5131" cx="0" cy="0" r="1" gradientTransform="matrix(1.90818 2.90085 -18.42376 12.11914 6.469 19.08)" gradientUnits="userSpaceOnUse"><stop stop-color="#AC928F"/><stop offset=".437" stop-color="#705C5A" stop-opacity="0"/></radialGradient><radialGradient id="paint41_radial_6986_5131" cx="0" cy="0" r="1" gradientTransform="matrix(-2.73405 -5.05293 29.8015 -16.12504 12.01 27.385)" gradientUnits="userSpaceOnUse"><stop stop-color="#915D88"/><stop offset=".344" stop-color="#7F5575" stop-opacity="0"/></radialGradient><radialGradient id="paint44_radial_6986_5131" cx="0" cy="0" r="1" gradientTransform="rotate(59.013 -8.701 32.41) scale(5.27251 20.0471)" gradientUnits="userSpaceOnUse"><stop offset=".24" stop-color="#FBBEAB"/><stop offset=".906" stop-color="#D79D95"/></radialGradient><radialGradient id="paint48_radial_6986_5131" cx="0" cy="0" r="1" gradientTransform="rotate(73.488 -7.102 28.556) scale(4.23633 16.1073)" gradientUnits="userSpaceOnUse"><stop stop-color="#F9B4A9"/><stop offset="1" stop-color="#D79D95"/></radialGradient><radialGradient id="paint52_radial_6986_5131" cx="0" cy="0" r="1" gradientTransform="matrix(.49622 6.35615 -22.99952 1.79556 22.96 24.924)" gradientUnits="userSpaceOnUse"><stop stop-color="#F9B4A9"/><stop offset="1" stop-color="#D79D95"/></radialGradient><radialGradient id="paint55_radial_6986_5131" cx="0" cy="0" r="1" gradientTransform="rotate(-111.539 23.772 6.134) scale(8.66893 8.83779)" gradientUnits="userSpaceOnUse"><stop offset=".114" stop-color="#7A326B"/><stop offset="1" stop-color="#682B5B" stop-opacity="0"/></radialGradient><radialGradient id="paint57_radial_6986_5131" cx="0" cy="0" r="1" gradientTransform="matrix(-1.90819 2.90085 -18.42374 -12.11917 25.788 19.07)" gradientUnits="userSpaceOnUse"><stop stop-color="#AC928F"/><stop offset=".437" stop-color="#705C5A" stop-opacity="0"/></radialGradient><radialGradient id="paint58_radial_6986_5131" cx="0" cy="0" r="1" gradientTransform="rotate(-61.583 33.092 -3.3) scale(5.74518 33.8843)" gradientUnits="userSpaceOnUse"><stop stop-color="#915D88"/><stop offset=".344" stop-color="#7F5575" stop-opacity="0"/></radialGradient><clipPath id="clip0_6986_5131"><path fill="#fff" d="M0 0h32v32H0z"/></clipPath></defs></svg>