<svg xmlns="http://www.w3.org/2000/svg" width="32" height="32" fill="none" viewBox="0 0 32 32"><rect width="28" height="28" x="2" y="2" fill="url(#paint0_linear_18_7696)" rx="4"/><rect width="28" height="28" x="2" y="2" fill="url(#paint1_linear_18_7696)" rx="4"/><rect width="28" height="28" x="2" y="2" fill="url(#paint2_linear_18_7696)" rx="4"/><rect width="28" height="28" x="2" y="2" fill="url(#paint3_linear_18_7696)" rx="4"/><rect width="28" height="28" x="2" y="2" fill="url(#paint4_radial_18_7696)" rx="4"/><g filter="url(#filter0_ii_18_7696)"><path fill="#2D2934" d="M18 30h8c.729 0 1.412-.195 2-.535V17.25c0-.69-.56-1.25-1.25-1.25h-7.5c-.69 0-1.25.56-1.25 1.25V30Z"/><path fill="url(#paint5_linear_18_7696)" d="M18 30h8c.729 0 1.412-.195 2-.535V17.25c0-.69-.56-1.25-1.25-1.25h-7.5c-.69 0-1.25.56-1.25 1.25V30Z"/></g><path fill="url(#paint6_linear_18_7696)" d="M18 30h8c.729 0 1.412-.195 2-.535V17.25c0-.69-.56-1.25-1.25-1.25h-7.5c-.69 0-1.25.56-1.25 1.25V30Z"/><g filter="url(#filter1_ii_18_7696)"><path fill="#2D2934" d="M6 30h7V7.25C13 6.56 12.44 6 11.75 6h-1.5C9.56 6 9 6.56 9 7.25V8H5.25C4.56 8 4 8.56 4 9.25v20.215c.588.34 1.271.535 2 .535Z"/><path fill="url(#paint7_linear_18_7696)" d="M6 30h7V7.25C13 6.56 12.44 6 11.75 6h-1.5C9.56 6 9 6.56 9 7.25V8H5.25C4.56 8 4 8.56 4 9.25v20.215c.588.34 1.271.535 2 .535Z"/></g><g filter="url(#filter2_i_18_7696)"><path fill="url(#paint8_linear_18_7696)" d="M23 30h3a4 4 0 0 0 4-4v-7h-5.75c-.69 0-1.25.56-1.25 1.25V30Z"/></g><g filter="url(#filter3_ii_18_7696)"><path fill="url(#paint9_linear_18_7696)" d="M23 30h3a4 4 0 0 0 4-4v-7h-5.75c-.69 0-1.25.56-1.25 1.25V30Z"/></g><path fill="url(#paint10_linear_18_7696)" d="M23 30h3a4 4 0 0 0 4-4v-7h-5.75c-.69 0-1.25.56-1.25 1.25V30Z"/><g filter="url(#filter4_ii_18_7696)"><path fill="url(#paint11_linear_18_7696)" d="M2 14v12a4 4 0 0 0 4 4h1V15.25C7 14.56 6.44 14 5.75 14H2Z"/></g><path fill="url(#paint12_linear_18_7696)" d="M2 14v12a4 4 0 0 0 4 4h1V15.25C7 14.56 6.44 14 5.75 14H2Z"/><g filter="url(#filter5_ii_18_7696)"><path fill="url(#paint13_linear_18_7696)" d="M9 30h12v-5.75c0-.69-.56-1.25-1.25-1.25H19V12.25c0-.69-.56-1.25-1.25-1.25h-7.5C9.56 11 9 11.56 9 12.25V30Z"/></g><path fill="url(#paint14_linear_18_7696)" d="M9 30h12v-5.75c0-.69-.56-1.25-1.25-1.25H19V12.25c0-.69-.56-1.25-1.25-1.25h-7.5C9.56 11 9 11.56 9 12.25V30Z"/><g filter="url(#filter6_i_18_7696)"><path fill="url(#paint15_linear_18_7696)" fill-rule="evenodd" d="M30 25h-5a1 1 0 1 0 0 2h4.874A4.01 4.01 0 0 0 30 26v-1Z" clip-rule="evenodd"/></g><g filter="url(#filter7_i_18_7696)"><path fill="url(#paint16_linear_18_7696)" d="M24 22a1 1 0 0 1 1-1h5v2h-5a1 1 0 0 1-1-1Z"/></g><g filter="url(#filter8_i_18_7696)"><rect width="1.961" height="1.96" x="15.02" y="13.016" fill="url(#paint17_linear_18_7696)" rx=".3"/></g><g filter="url(#filter9_i_18_7696)"><rect width="1.961" height="1.96" x="11.02" y="13.016" fill="url(#paint18_linear_18_7696)" rx=".3"/></g><g filter="url(#filter10_i_18_7696)"><rect width="1.961" height="1.96" x="3.02" y="16.02" fill="url(#paint19_linear_18_7696)" rx=".3"/></g><g filter="url(#filter11_i_18_7696)"><rect width="1.961" height="1.96" x="3.02" y="20.02" fill="url(#paint20_linear_18_7696)" rx=".3"/></g><g filter="url(#filter12_i_18_7696)"><rect width="1.961" height="1.96" x="3.02" y="24.02" fill="url(#paint21_linear_18_7696)" rx=".3"/></g><g filter="url(#filter13_i_18_7696)"><rect width="1.961" height="1.96" x="15.02" y="17.02" fill="url(#paint22_linear_18_7696)" rx=".3"/></g><g filter="url(#filter14_i_18_7696)"><rect width="1.961" height="1.96" x="15.02" y="21.024" fill="url(#paint23_linear_18_7696)" rx=".3"/></g><g filter="url(#filter15_i_18_7696)"><rect width="1.961" height="1.96" x="15.02" y="25.029" fill="url(#paint24_linear_18_7696)" rx=".3"/></g><g filter="url(#filter16_i_18_7696)"><rect width="1.961" height="1.96" x="11.02" y="17.02" fill="url(#paint25_linear_18_7696)" rx=".3"/></g><g filter="url(#filter17_i_18_7696)"><rect width="1.961" height="1.96" x="11.02" y="21.024" fill="url(#paint26_linear_18_7696)" rx=".3"/></g><g filter="url(#filter18_i_18_7696)"><rect width="1.961" height="1.96" x="11.02" y="25.029" fill="url(#paint27_linear_18_7696)" rx=".3"/></g><g filter="url(#filter19_ii_18_7696)"><path fill="#D9CEDD" d="m27.075 11.85.201-.403a.25.25 0 0 1 .448 0l.201.404a.499.499 0 0 0 .224.223l.404.202a.25.25 0 0 1 0 .448l-.404.201a.499.499 0 0 0-.224.224l-.201.404a.25.25 0 0 1-.448 0l-.201-.404a.499.499 0 0 0-.224-.223l-.404-.202a.25.25 0 0 1 0-.448l.404-.201a.499.499 0 0 0 .224-.224Z"/></g><path fill="url(#paint28_radial_18_7696)" d="m27.075 11.85.201-.403a.25.25 0 0 1 .448 0l.201.404a.499.499 0 0 0 .224.223l.404.202a.25.25 0 0 1 0 .448l-.404.201a.499.499 0 0 0-.224.224l-.201.404a.25.25 0 0 1-.448 0l-.201-.404a.499.499 0 0 0-.224-.223l-.404-.202a.25.25 0 0 1 0-.448l.404-.201a.499.499 0 0 0 .224-.224Z"/><path fill="url(#paint29_radial_18_7696)" d="m27.075 11.85.201-.403a.25.25 0 0 1 .448 0l.201.404a.499.499 0 0 0 .224.223l.404.202a.25.25 0 0 1 0 .448l-.404.201a.499.499 0 0 0-.224.224l-.201.404a.25.25 0 0 1-.448 0l-.201-.404a.499.499 0 0 0-.224-.223l-.404-.202a.25.25 0 0 1 0-.448l.404-.201a.499.499 0 0 0 .224-.224Z"/><g filter="url(#filter20_ii_18_7696)"><path fill="#D9CEDD" d="m21.075 3.85.201-.403a.25.25 0 0 1 .448 0l.201.404a.5.5 0 0 0 .224.224l.404.201a.25.25 0 0 1 0 .448l-.404.201a.5.5 0 0 0-.224.224l-.201.404a.25.25 0 0 1-.448 0l-.201-.404a.5.5 0 0 0-.224-.224l-.404-.201a.25.25 0 0 1 0-.448l.404-.201a.5.5 0 0 0 .224-.224Z"/></g><path fill="url(#paint30_radial_18_7696)" d="m21.075 3.85.201-.403a.25.25 0 0 1 .448 0l.201.404a.5.5 0 0 0 .224.224l.404.201a.25.25 0 0 1 0 .448l-.404.201a.5.5 0 0 0-.224.224l-.201.404a.25.25 0 0 1-.448 0l-.201-.404a.5.5 0 0 0-.224-.224l-.404-.201a.25.25 0 0 1 0-.448l.404-.201a.5.5 0 0 0 .224-.224Z"/><path fill="url(#paint31_radial_18_7696)" d="m21.075 3.85.201-.403a.25.25 0 0 1 .448 0l.201.404a.5.5 0 0 0 .224.224l.404.201a.25.25 0 0 1 0 .448l-.404.201a.5.5 0 0 0-.224.224l-.201.404a.25.25 0 0 1-.448 0l-.201-.404a.5.5 0 0 0-.224-.224l-.404-.201a.25.25 0 0 1 0-.448l.404-.201a.5.5 0 0 0 .224-.224Z"/><g filter="url(#filter21_ii_18_7696)"><path fill="#D9CEDD" d="m15.908 6.684.368-.737a.25.25 0 0 1 .448 0l.368.737a.5.5 0 0 0 .224.224l.737.368a.25.25 0 0 1 0 .448l-.737.368a.5.5 0 0 0-.224.224l-.368.737a.25.25 0 0 1-.448 0l-.368-.737a.5.5 0 0 0-.224-.224l-.737-.368a.25.25 0 0 1 0-.448l.737-.368a.5.5 0 0 0 .224-.224Z"/></g><path fill="url(#paint32_radial_18_7696)" d="m15.908 6.684.368-.737a.25.25 0 0 1 .448 0l.368.737a.5.5 0 0 0 .224.224l.737.368a.25.25 0 0 1 0 .448l-.737.368a.5.5 0 0 0-.224.224l-.368.737a.25.25 0 0 1-.448 0l-.368-.737a.5.5 0 0 0-.224-.224l-.737-.368a.25.25 0 0 1 0-.448l.737-.368a.5.5 0 0 0 .224-.224Z"/><path fill="url(#paint33_radial_18_7696)" d="m15.908 6.684.368-.737a.25.25 0 0 1 .448 0l.368.737a.5.5 0 0 0 .224.224l.737.368a.25.25 0 0 1 0 .448l-.737.368a.5.5 0 0 0-.224.224l-.368.737a.25.25 0 0 1-.448 0l-.368-.737a.5.5 0 0 0-.224-.224l-.737-.368a.25.25 0 0 1 0-.448l.737-.368a.5.5 0 0 0 .224-.224Z"/><g filter="url(#filter22_ii_18_7696)"><path fill="#D9CEDD" d="m5.075 3.851.201-.404a.25.25 0 0 1 .448 0l.201.404a.5.5 0 0 0 .224.224l.404.201a.25.25 0 0 1 0 .448l-.404.202a.5.5 0 0 0-.224.223l-.201.404a.25.25 0 0 1-.448 0l-.201-.404a.5.5 0 0 0-.224-.223l-.404-.202a.25.25 0 0 1 0-.448l.404-.201a.5.5 0 0 0 .224-.224Z"/></g><path fill="url(#paint34_radial_18_7696)" d="m5.075 3.851.201-.404a.25.25 0 0 1 .448 0l.201.404a.5.5 0 0 0 .224.224l.404.201a.25.25 0 0 1 0 .448l-.404.202a.5.5 0 0 0-.224.223l-.201.404a.25.25 0 0 1-.448 0l-.201-.404a.5.5 0 0 0-.224-.223l-.404-.202a.25.25 0 0 1 0-.448l.404-.201a.5.5 0 0 0 .224-.224Z"/><path fill="url(#paint35_radial_18_7696)" d="m5.075 3.851.201-.404a.25.25 0 0 1 .448 0l.201.404a.5.5 0 0 0 .224.224l.404.201a.25.25 0 0 1 0 .448l-.404.202a.5.5 0 0 0-.224.223l-.201.404a.25.25 0 0 1-.448 0l-.201-.404a.5.5 0 0 0-.224-.223l-.404-.202a.25.25 0 0 1 0-.448l.404-.201a.5.5 0 0 0 .224-.224Z"/><g filter="url(#filter23_i_18_7696)"><path fill="url(#paint36_linear_18_7696)" d="M22.012 9.336a3.492 3.492 0 0 0 3.492-3.492c0-.296-.032-.527-.102-.801-.036-.145.122-.23.235-.145C26.473 5.536 27 6.461 27 7.594a3.492 3.492 0 0 1-6.566 1.658c-.068-.125.072-.253.203-.197.422.18.887.28 1.375.28Z"/></g><path fill="url(#paint37_radial_18_7696)" d="M22.012 9.336a3.492 3.492 0 0 0 3.492-3.492c0-.296-.032-.527-.102-.801-.036-.145.122-.23.235-.145C26.473 5.536 27 6.461 27 7.594a3.492 3.492 0 0 1-6.566 1.658c-.068-.125.072-.253.203-.197.422.18.887.28 1.375.28Z"/><defs><linearGradient id="paint0_linear_18_7696" x1="2.563" x2="30" y1="17.75" y2="17.75" gradientUnits="userSpaceOnUse"><stop stop-color="#503B75"/><stop offset="1" stop-color="#544380"/></linearGradient><linearGradient id="paint1_linear_18_7696" x1="2" x2="5.938" y1="12" y2="12" gradientUnits="userSpaceOnUse"><stop stop-color="#211438"/><stop offset="1" stop-color="#211438" stop-opacity="0"/></linearGradient><linearGradient id="paint2_linear_18_7696" x1="16" x2="16" y1="1.75" y2="3.437" gradientUnits="userSpaceOnUse"><stop stop-color="#44315D"/><stop offset="1" stop-color="#44315D" stop-opacity="0"/></linearGradient><linearGradient id="paint3_linear_18_7696" x1="30" x2="26.438" y1="12.813" y2="12.813" gradientUnits="userSpaceOnUse"><stop stop-color="#624D82"/><stop offset="1" stop-color="#624D82" stop-opacity="0"/></linearGradient><linearGradient id="paint5_linear_18_7696" x1="21.063" x2="21.051" y1="28.845" y2="19.662" gradientUnits="userSpaceOnUse"><stop stop-color="#210B39"/><stop offset=".517" stop-color="#180D25"/><stop offset="1" stop-color="#180D25" stop-opacity="0"/></linearGradient><linearGradient id="paint6_linear_18_7696" x1="23" x2="23" y1="16" y2="16.437" gradientUnits="userSpaceOnUse"><stop stop-color="#1F1B26"/><stop offset="1" stop-color="#1F1B26" stop-opacity="0"/></linearGradient><linearGradient id="paint7_linear_18_7696" x1="6.795" x2="6.642" y1="25.759" y2="12.278" gradientUnits="userSpaceOnUse"><stop stop-color="#210B39"/><stop offset=".517" stop-color="#180D25"/><stop offset="1" stop-color="#180D25" stop-opacity="0"/></linearGradient><linearGradient id="paint8_linear_18_7696" x1="27.083" x2="27.083" y1="19" y2="25.866" gradientUnits="userSpaceOnUse"><stop stop-color="#4791CD"/><stop offset="1" stop-color="#A1A0B4"/></linearGradient><linearGradient id="paint9_linear_18_7696" x1="27.083" x2="27.083" y1="19" y2="25.866" gradientUnits="userSpaceOnUse"><stop stop-color="#533D69"/><stop offset="1" stop-color="#43364F"/></linearGradient><linearGradient id="paint10_linear_18_7696" x1="26.5" x2="26.5" y1="19" y2="19.239" gradientUnits="userSpaceOnUse"><stop stop-color="#3E2C51"/><stop offset="1" stop-color="#3E2C51" stop-opacity="0"/></linearGradient><linearGradient id="paint11_linear_18_7696" x1="4.917" x2="4.917" y1="14" y2="23.987" gradientUnits="userSpaceOnUse"><stop stop-color="#533D69"/><stop offset="1" stop-color="#43364F"/></linearGradient><linearGradient id="paint12_linear_18_7696" x1="4.5" x2="4.5" y1="14" y2="14.348" gradientUnits="userSpaceOnUse"><stop stop-color="#3E2C51"/><stop offset="1" stop-color="#3E2C51" stop-opacity="0"/></linearGradient><linearGradient id="paint13_linear_18_7696" x1="16" x2="16" y1="11" y2="22.86" gradientUnits="userSpaceOnUse"><stop stop-color="#533D69"/><stop offset="1" stop-color="#43364F"/></linearGradient><linearGradient id="paint14_linear_18_7696" x1="15" x2="15" y1="11" y2="11.413" gradientUnits="userSpaceOnUse"><stop stop-color="#3E2C51"/><stop offset="1" stop-color="#3E2C51" stop-opacity="0"/></linearGradient><linearGradient id="paint15_linear_18_7696" x1="27" x2="27" y1="25.556" y2="27" gradientUnits="userSpaceOnUse"><stop stop-color="#FFD77A"/><stop offset="1" stop-color="#FFF670"/></linearGradient><linearGradient id="paint16_linear_18_7696" x1="27" x2="27" y1="21.556" y2="23" gradientUnits="userSpaceOnUse"><stop stop-color="#FFD77A"/><stop offset="1" stop-color="#FFF670"/></linearGradient><linearGradient id="paint17_linear_18_7696" x1="16.98" x2="15.02" y1="13.016" y2="14.976" gradientUnits="userSpaceOnUse"><stop stop-color="#282130"/><stop offset="1" stop-color="#383739"/></linearGradient><linearGradient id="paint18_linear_18_7696" x1="12.98" x2="11.375" y1="13.433" y2="14.976" gradientUnits="userSpaceOnUse"><stop stop-color="#F2BC6C"/><stop offset="1" stop-color="#FFFF7D"/></linearGradient><linearGradient id="paint19_linear_18_7696" x1="4.98" x2="3.02" y1="16.02" y2="17.98" gradientUnits="userSpaceOnUse"><stop stop-color="#282130"/><stop offset="1" stop-color="#383739"/></linearGradient><linearGradient id="paint20_linear_18_7696" x1="4.98" x2="3.375" y1="20.438" y2="21.98" gradientUnits="userSpaceOnUse"><stop stop-color="#F2BC6C"/><stop offset="1" stop-color="#FFFF7D"/></linearGradient><linearGradient id="paint21_linear_18_7696" x1="4.98" x2="3.375" y1="24.438" y2="25.98" gradientUnits="userSpaceOnUse"><stop stop-color="#F2BC6C"/><stop offset="1" stop-color="#FFFF7D"/></linearGradient><linearGradient id="paint22_linear_18_7696" x1="16.98" x2="15.375" y1="17.438" y2="18.98" gradientUnits="userSpaceOnUse"><stop stop-color="#F2BC6C"/><stop offset="1" stop-color="#FFFF7D"/></linearGradient><linearGradient id="paint23_linear_18_7696" x1="16.98" x2="15.375" y1="21.442" y2="22.984" gradientUnits="userSpaceOnUse"><stop stop-color="#F2BC6C"/><stop offset="1" stop-color="#FFFF7D"/></linearGradient><linearGradient id="paint24_linear_18_7696" x1="16.98" x2="15.02" y1="25.029" y2="26.989" gradientUnits="userSpaceOnUse"><stop stop-color="#282130"/><stop offset="1" stop-color="#383739"/></linearGradient><linearGradient id="paint25_linear_18_7696" x1="12.98" x2="11.375" y1="17.438" y2="18.98" gradientUnits="userSpaceOnUse"><stop stop-color="#F2BC6C"/><stop offset="1" stop-color="#FFFF7D"/></linearGradient><linearGradient id="paint26_linear_18_7696" x1="12.98" x2="11.02" y1="21.024" y2="22.984" gradientUnits="userSpaceOnUse"><stop stop-color="#282130"/><stop offset="1" stop-color="#383739"/></linearGradient><linearGradient id="paint27_linear_18_7696" x1="12.98" x2="11.375" y1="25.446" y2="26.989" gradientUnits="userSpaceOnUse"><stop stop-color="#F2BC6C"/><stop offset="1" stop-color="#FFFF7D"/></linearGradient><linearGradient id="paint36_linear_18_7696" x1="21.5" x2="26.794" y1="10.75" y2="5.72" gradientUnits="userSpaceOnUse"><stop stop-color="#E6A947"/><stop offset="1" stop-color="#EBC364"/></linearGradient><filter id="filter0_ii_18_7696" width="10.4" height="14.4" x="17.8" y="15.8" color-interpolation-filters="sRGB" filterUnits="userSpaceOnUse"><feFlood flood-opacity="0" result="BackgroundImageFix"/><feBlend in="SourceGraphic" in2="BackgroundImageFix" result="shape"/><feColorMatrix in="SourceAlpha" result="hardAlpha" values="0 0 0 0 0 0 0 0 0 0 0 0 0 0 0 0 0 0 127 0"/><feOffset dx="-.2" dy=".2"/><feGaussianBlur stdDeviation=".2"/><feComposite in2="hardAlpha" k2="-1" k3="1" operator="arithmetic"/><feColorMatrix values="0 0 0 0 0.27451 0 0 0 0 0.266667 0 0 0 0 0.282353 0 0 0 1 0"/><feBlend in2="shape" result="effect1_innerShadow_18_7696"/><feColorMatrix in="SourceAlpha" result="hardAlpha" values="0 0 0 0 0 0 0 0 0 0 0 0 0 0 0 0 0 0 127 0"/><feOffset dx=".2" dy="-.2"/><feGaussianBlur stdDeviation=".2"/><feComposite in2="hardAlpha" k2="-1" k3="1" operator="arithmetic"/><feColorMatrix values="0 0 0 0 0.0509804 0 0 0 0 0.027451 0 0 0 0 0.0823529 0 0 0 1 0"/><feBlend in2="effect1_innerShadow_18_7696" result="effect2_innerShadow_18_7696"/></filter><filter id="filter1_ii_18_7696" width="9.4" height="24.4" x="3.8" y="5.8" color-interpolation-filters="sRGB" filterUnits="userSpaceOnUse"><feFlood flood-opacity="0" result="BackgroundImageFix"/><feBlend in="SourceGraphic" in2="BackgroundImageFix" result="shape"/><feColorMatrix in="SourceAlpha" result="hardAlpha" values="0 0 0 0 0 0 0 0 0 0 0 0 0 0 0 0 0 0 127 0"/><feOffset dx="-.2" dy=".2"/><feGaussianBlur stdDeviation=".2"/><feComposite in2="hardAlpha" k2="-1" k3="1" operator="arithmetic"/><feColorMatrix values="0 0 0 0 0.27451 0 0 0 0 0.266667 0 0 0 0 0.282353 0 0 0 1 0"/><feBlend in2="shape" result="effect1_innerShadow_18_7696"/><feColorMatrix in="SourceAlpha" result="hardAlpha" values="0 0 0 0 0 0 0 0 0 0 0 0 0 0 0 0 0 0 127 0"/><feOffset dx=".2" dy="-.2"/><feGaussianBlur stdDeviation=".2"/><feComposite in2="hardAlpha" k2="-1" k3="1" operator="arithmetic"/><feColorMatrix values="0 0 0 0 0.0509804 0 0 0 0 0.027451 0 0 0 0 0.0823529 0 0 0 1 0"/><feBlend in2="effect1_innerShadow_18_7696" result="effect2_innerShadow_18_7696"/></filter><filter id="filter2_i_18_7696" width="7.2" height="11" x="23" y="19" color-interpolation-filters="sRGB" filterUnits="userSpaceOnUse"><feFlood flood-opacity="0" result="BackgroundImageFix"/><feBlend in="SourceGraphic" in2="BackgroundImageFix" result="shape"/><feColorMatrix in="SourceAlpha" result="hardAlpha" values="0 0 0 0 0 0 0 0 0 0 0 0 0 0 0 0 0 0 127 0"/><feOffset dx=".2"/><feGaussianBlur stdDeviation=".2"/><feComposite in2="hardAlpha" k2="-1" k3="1" operator="arithmetic"/><feColorMatrix values="0 0 0 0 0.356863 0 0 0 0 0.501961 0 0 0 0 0.666667 0 0 0 1 0"/><feBlend in2="shape" result="effect1_innerShadow_18_7696"/></filter><filter id="filter3_ii_18_7696" width="7.4" height="11" x="22.8" y="19" color-interpolation-filters="sRGB" filterUnits="userSpaceOnUse"><feFlood flood-opacity="0" result="BackgroundImageFix"/><feBlend in="SourceGraphic" in2="BackgroundImageFix" result="shape"/><feColorMatrix in="SourceAlpha" result="hardAlpha" values="0 0 0 0 0 0 0 0 0 0 0 0 0 0 0 0 0 0 127 0"/><feOffset dx="-.2"/><feGaussianBlur stdDeviation=".2"/><feComposite in2="hardAlpha" k2="-1" k3="1" operator="arithmetic"/><feColorMatrix values="0 0 0 0 0.34902 0 0 0 0 0.329412 0 0 0 0 0.364706 0 0 0 1 0"/><feBlend in2="shape" result="effect1_innerShadow_18_7696"/><feColorMatrix in="SourceAlpha" result="hardAlpha" values="0 0 0 0 0 0 0 0 0 0 0 0 0 0 0 0 0 0 127 0"/><feOffset dx=".2"/><feGaussianBlur stdDeviation=".2"/><feComposite in2="hardAlpha" k2="-1" k3="1" operator="arithmetic"/><feColorMatrix values="0 0 0 0 0.215686 0 0 0 0 0.133333 0 0 0 0 0.290196 0 0 0 1 0"/><feBlend in2="effect1_innerShadow_18_7696" result="effect2_innerShadow_18_7696"/></filter><filter id="filter4_ii_18_7696" width="5.4" height="16" x="1.8" y="14" color-interpolation-filters="sRGB" filterUnits="userSpaceOnUse"><feFlood flood-opacity="0" result="BackgroundImageFix"/><feBlend in="SourceGraphic" in2="BackgroundImageFix" result="shape"/><feColorMatrix in="SourceAlpha" result="hardAlpha" values="0 0 0 0 0 0 0 0 0 0 0 0 0 0 0 0 0 0 127 0"/><feOffset dx="-.2"/><feGaussianBlur stdDeviation=".2"/><feComposite in2="hardAlpha" k2="-1" k3="1" operator="arithmetic"/><feColorMatrix values="0 0 0 0 0.34902 0 0 0 0 0.329412 0 0 0 0 0.364706 0 0 0 1 0"/><feBlend in2="shape" result="effect1_innerShadow_18_7696"/><feColorMatrix in="SourceAlpha" result="hardAlpha" values="0 0 0 0 0 0 0 0 0 0 0 0 0 0 0 0 0 0 127 0"/><feOffset dx=".2"/><feGaussianBlur stdDeviation=".2"/><feComposite in2="hardAlpha" k2="-1" k3="1" operator="arithmetic"/><feColorMatrix values="0 0 0 0 0.215686 0 0 0 0 0.133333 0 0 0 0 0.290196 0 0 0 1 0"/><feBlend in2="effect1_innerShadow_18_7696" result="effect2_innerShadow_18_7696"/></filter><filter id="filter5_ii_18_7696" width="12.4" height="19" x="8.8" y="11" color-interpolation-filters="sRGB" filterUnits="userSpaceOnUse"><feFlood flood-opacity="0" result="BackgroundImageFix"/><feBlend in="SourceGraphic" in2="BackgroundImageFix" result="shape"/><feColorMatrix in="SourceAlpha" result="hardAlpha" values="0 0 0 0 0 0 0 0 0 0 0 0 0 0 0 0 0 0 127 0"/><feOffset dx="-.2"/><feGaussianBlur stdDeviation=".2"/><feComposite in2="hardAlpha" k2="-1" k3="1" operator="arithmetic"/><feColorMatrix values="0 0 0 0 0.34902 0 0 0 0 0.329412 0 0 0 0 0.364706 0 0 0 1 0"/><feBlend in2="shape" result="effect1_innerShadow_18_7696"/><feColorMatrix in="SourceAlpha" result="hardAlpha" values="0 0 0 0 0 0 0 0 0 0 0 0 0 0 0 0 0 0 127 0"/><feOffset dx=".2"/><feGaussianBlur stdDeviation=".2"/><feComposite in2="hardAlpha" k2="-1" k3="1" operator="arithmetic"/><feColorMatrix values="0 0 0 0 0.215686 0 0 0 0 0.133333 0 0 0 0 0.290196 0 0 0 1 0"/><feBlend in2="effect1_innerShadow_18_7696" result="effect2_innerShadow_18_7696"/></filter><filter id="filter6_i_18_7696" width="6.1" height="2.2" x="24" y="25" color-interpolation-filters="sRGB" filterUnits="userSpaceOnUse"><feFlood flood-opacity="0" result="BackgroundImageFix"/><feBlend in="SourceGraphic" in2="BackgroundImageFix" result="shape"/><feColorMatrix in="SourceAlpha" result="hardAlpha" values="0 0 0 0 0 0 0 0 0 0 0 0 0 0 0 0 0 0 127 0"/><feOffset dx=".1" dy=".2"/><feGaussianBlur stdDeviation=".15"/><feComposite in2="hardAlpha" k2="-1" k3="1" operator="arithmetic"/><feColorMatrix values="0 0 0 0 0.854902 0 0 0 0 0.580392 0 0 0 0 0.403922 0 0 0 1 0"/><feBlend in2="shape" result="effect1_innerShadow_18_7696"/></filter><filter id="filter7_i_18_7696" width="6.1" height="2.2" x="24" y="21" color-interpolation-filters="sRGB" filterUnits="userSpaceOnUse"><feFlood flood-opacity="0" result="BackgroundImageFix"/><feBlend in="SourceGraphic" in2="BackgroundImageFix" result="shape"/><feColorMatrix in="SourceAlpha" result="hardAlpha" values="0 0 0 0 0 0 0 0 0 0 0 0 0 0 0 0 0 0 127 0"/><feOffset dx=".1" dy=".2"/><feGaussianBlur stdDeviation=".15"/><feComposite in2="hardAlpha" k2="-1" k3="1" operator="arithmetic"/><feColorMatrix values="0 0 0 0 0.854902 0 0 0 0 0.580392 0 0 0 0 0.403922 0 0 0 1 0"/><feBlend in2="shape" result="effect1_innerShadow_18_7696"/></filter><filter id="filter8_i_18_7696" width="2.161" height="2.16" x="14.819" y="13.016" color-interpolation-filters="sRGB" filterUnits="userSpaceOnUse"><feFlood flood-opacity="0" result="BackgroundImageFix"/><feBlend in="SourceGraphic" in2="BackgroundImageFix" result="shape"/><feColorMatrix in="SourceAlpha" result="hardAlpha" values="0 0 0 0 0 0 0 0 0 0 0 0 0 0 0 0 0 0 127 0"/><feOffset dx="-.2" dy=".2"/><feGaussianBlur stdDeviation=".15"/><feComposite in2="hardAlpha" k2="-1" k3="1" operator="arithmetic"/><feColorMatrix values="0 0 0 0 0.0392157 0 0 0 0 0.0196078 0 0 0 0 0.0588235 0 0 0 1 0"/><feBlend in2="shape" result="effect1_innerShadow_18_7696"/></filter><filter id="filter9_i_18_7696" width="2.161" height="2.16" x="10.819" y="13.016" color-interpolation-filters="sRGB" filterUnits="userSpaceOnUse"><feFlood flood-opacity="0" result="BackgroundImageFix"/><feBlend in="SourceGraphic" in2="BackgroundImageFix" result="shape"/><feColorMatrix in="SourceAlpha" result="hardAlpha" values="0 0 0 0 0 0 0 0 0 0 0 0 0 0 0 0 0 0 127 0"/><feOffset dx="-.2" dy=".2"/><feGaussianBlur stdDeviation=".15"/><feComposite in2="hardAlpha" k2="-1" k3="1" operator="arithmetic"/><feColorMatrix values="0 0 0 0 0.85098 0 0 0 0 0.572549 0 0 0 0 0.356863 0 0 0 1 0"/><feBlend in2="shape" result="effect1_innerShadow_18_7696"/></filter><filter id="filter10_i_18_7696" width="2.161" height="2.16" x="2.82" y="16.02" color-interpolation-filters="sRGB" filterUnits="userSpaceOnUse"><feFlood flood-opacity="0" result="BackgroundImageFix"/><feBlend in="SourceGraphic" in2="BackgroundImageFix" result="shape"/><feColorMatrix in="SourceAlpha" result="hardAlpha" values="0 0 0 0 0 0 0 0 0 0 0 0 0 0 0 0 0 0 127 0"/><feOffset dx="-.2" dy=".2"/><feGaussianBlur stdDeviation=".15"/><feComposite in2="hardAlpha" k2="-1" k3="1" operator="arithmetic"/><feColorMatrix values="0 0 0 0 0.0392157 0 0 0 0 0.0196078 0 0 0 0 0.0588235 0 0 0 1 0"/><feBlend in2="shape" result="effect1_innerShadow_18_7696"/></filter><filter id="filter11_i_18_7696" width="2.161" height="2.16" x="2.82" y="20.02" color-interpolation-filters="sRGB" filterUnits="userSpaceOnUse"><feFlood flood-opacity="0" result="BackgroundImageFix"/><feBlend in="SourceGraphic" in2="BackgroundImageFix" result="shape"/><feColorMatrix in="SourceAlpha" result="hardAlpha" values="0 0 0 0 0 0 0 0 0 0 0 0 0 0 0 0 0 0 127 0"/><feOffset dx="-.2" dy=".2"/><feGaussianBlur stdDeviation=".15"/><feComposite in2="hardAlpha" k2="-1" k3="1" operator="arithmetic"/><feColorMatrix values="0 0 0 0 0.85098 0 0 0 0 0.572549 0 0 0 0 0.356863 0 0 0 1 0"/><feBlend in2="shape" result="effect1_innerShadow_18_7696"/></filter><filter id="filter12_i_18_7696" width="2.161" height="2.16" x="2.82" y="24.02" color-interpolation-filters="sRGB" filterUnits="userSpaceOnUse"><feFlood flood-opacity="0" result="BackgroundImageFix"/><feBlend in="SourceGraphic" in2="BackgroundImageFix" result="shape"/><feColorMatrix in="SourceAlpha" result="hardAlpha" values="0 0 0 0 0 0 0 0 0 0 0 0 0 0 0 0 0 0 127 0"/><feOffset dx="-.2" dy=".2"/><feGaussianBlur stdDeviation=".15"/><feComposite in2="hardAlpha" k2="-1" k3="1" operator="arithmetic"/><feColorMatrix values="0 0 0 0 0.85098 0 0 0 0 0.572549 0 0 0 0 0.356863 0 0 0 1 0"/><feBlend in2="shape" result="effect1_innerShadow_18_7696"/></filter><filter id="filter13_i_18_7696" width="2.161" height="2.16" x="14.819" y="17.02" color-interpolation-filters="sRGB" filterUnits="userSpaceOnUse"><feFlood flood-opacity="0" result="BackgroundImageFix"/><feBlend in="SourceGraphic" in2="BackgroundImageFix" result="shape"/><feColorMatrix in="SourceAlpha" result="hardAlpha" values="0 0 0 0 0 0 0 0 0 0 0 0 0 0 0 0 0 0 127 0"/><feOffset dx="-.2" dy=".2"/><feGaussianBlur stdDeviation=".15"/><feComposite in2="hardAlpha" k2="-1" k3="1" operator="arithmetic"/><feColorMatrix values="0 0 0 0 0.85098 0 0 0 0 0.572549 0 0 0 0 0.356863 0 0 0 1 0"/><feBlend in2="shape" result="effect1_innerShadow_18_7696"/></filter><filter id="filter14_i_18_7696" width="2.161" height="2.16" x="14.819" y="21.024" color-interpolation-filters="sRGB" filterUnits="userSpaceOnUse"><feFlood flood-opacity="0" result="BackgroundImageFix"/><feBlend in="SourceGraphic" in2="BackgroundImageFix" result="shape"/><feColorMatrix in="SourceAlpha" result="hardAlpha" values="0 0 0 0 0 0 0 0 0 0 0 0 0 0 0 0 0 0 127 0"/><feOffset dx="-.2" dy=".2"/><feGaussianBlur stdDeviation=".15"/><feComposite in2="hardAlpha" k2="-1" k3="1" operator="arithmetic"/><feColorMatrix values="0 0 0 0 0.85098 0 0 0 0 0.572549 0 0 0 0 0.356863 0 0 0 1 0"/><feBlend in2="shape" result="effect1_innerShadow_18_7696"/></filter><filter id="filter15_i_18_7696" width="2.161" height="2.16" x="14.819" y="25.029" color-interpolation-filters="sRGB" filterUnits="userSpaceOnUse"><feFlood flood-opacity="0" result="BackgroundImageFix"/><feBlend in="SourceGraphic" in2="BackgroundImageFix" result="shape"/><feColorMatrix in="SourceAlpha" result="hardAlpha" values="0 0 0 0 0 0 0 0 0 0 0 0 0 0 0 0 0 0 127 0"/><feOffset dx="-.2" dy=".2"/><feGaussianBlur stdDeviation=".15"/><feComposite in2="hardAlpha" k2="-1" k3="1" operator="arithmetic"/><feColorMatrix values="0 0 0 0 0.0392157 0 0 0 0 0.0196078 0 0 0 0 0.0588235 0 0 0 1 0"/><feBlend in2="shape" result="effect1_innerShadow_18_7696"/></filter><filter id="filter16_i_18_7696" width="2.161" height="2.16" x="10.819" y="17.02" color-interpolation-filters="sRGB" filterUnits="userSpaceOnUse"><feFlood flood-opacity="0" result="BackgroundImageFix"/><feBlend in="SourceGraphic" in2="BackgroundImageFix" result="shape"/><feColorMatrix in="SourceAlpha" result="hardAlpha" values="0 0 0 0 0 0 0 0 0 0 0 0 0 0 0 0 0 0 127 0"/><feOffset dx="-.2" dy=".2"/><feGaussianBlur stdDeviation=".15"/><feComposite in2="hardAlpha" k2="-1" k3="1" operator="arithmetic"/><feColorMatrix values="0 0 0 0 0.85098 0 0 0 0 0.572549 0 0 0 0 0.356863 0 0 0 1 0"/><feBlend in2="shape" result="effect1_innerShadow_18_7696"/></filter><filter id="filter17_i_18_7696" width="2.161" height="2.16" x="10.819" y="21.024" color-interpolation-filters="sRGB" filterUnits="userSpaceOnUse"><feFlood flood-opacity="0" result="BackgroundImageFix"/><feBlend in="SourceGraphic" in2="BackgroundImageFix" result="shape"/><feColorMatrix in="SourceAlpha" result="hardAlpha" values="0 0 0 0 0 0 0 0 0 0 0 0 0 0 0 0 0 0 127 0"/><feOffset dx="-.2" dy=".2"/><feGaussianBlur stdDeviation=".15"/><feComposite in2="hardAlpha" k2="-1" k3="1" operator="arithmetic"/><feColorMatrix values="0 0 0 0 0.0392157 0 0 0 0 0.0196078 0 0 0 0 0.0588235 0 0 0 1 0"/><feBlend in2="shape" result="effect1_innerShadow_18_7696"/></filter><filter id="filter18_i_18_7696" width="2.161" height="2.16" x="10.819" y="25.029" color-interpolation-filters="sRGB" filterUnits="userSpaceOnUse"><feFlood flood-opacity="0" result="BackgroundImageFix"/><feBlend in="SourceGraphic" in2="BackgroundImageFix" result="shape"/><feColorMatrix in="SourceAlpha" result="hardAlpha" values="0 0 0 0 0 0 0 0 0 0 0 0 0 0 0 0 0 0 127 0"/><feOffset dx="-.2" dy=".2"/><feGaussianBlur stdDeviation=".15"/><feComposite in2="hardAlpha" k2="-1" k3="1" operator="arithmetic"/><feColorMatrix values="0 0 0 0 0.85098 0 0 0 0 0.572549 0 0 0 0 0.356863 0 0 0 1 0"/><feBlend in2="shape" result="effect1_innerShadow_18_7696"/></filter><filter id="filter19_ii_18_7696" width="2.682" height="2.682" x="26.159" y="11.159" color-interpolation-filters="sRGB" filterUnits="userSpaceOnUse"><feFlood flood-opacity="0" result="BackgroundImageFix"/><feBlend in="SourceGraphic" in2="BackgroundImageFix" result="shape"/><feColorMatrix in="SourceAlpha" result="hardAlpha" values="0 0 0 0 0 0 0 0 0 0 0 0 0 0 0 0 0 0 127 0"/><feOffset dx="-.15" dy=".15"/><feGaussianBlur stdDeviation=".075"/><feComposite in2="hardAlpha" k2="-1" k3="1" operator="arithmetic"/><feColorMatrix values="0 0 0 0 1 0 0 0 0 0.988235 0 0 0 0 1 0 0 0 1 0"/><feBlend in2="shape" result="effect1_innerShadow_18_7696"/><feColorMatrix in="SourceAlpha" result="hardAlpha" values="0 0 0 0 0 0 0 0 0 0 0 0 0 0 0 0 0 0 127 0"/><feOffset dx=".15" dy="-.15"/><feGaussianBlur stdDeviation=".125"/><feComposite in2="hardAlpha" k2="-1" k3="1" operator="arithmetic"/><feColorMatrix values="0 0 0 0 0.682353 0 0 0 0 0.603922 0 0 0 0 0.733333 0 0 0 1 0"/><feBlend in2="effect1_innerShadow_18_7696" result="effect2_innerShadow_18_7696"/></filter><filter id="filter20_ii_18_7696" width="2.682" height="2.682" x="20.159" y="3.159" color-interpolation-filters="sRGB" filterUnits="userSpaceOnUse"><feFlood flood-opacity="0" result="BackgroundImageFix"/><feBlend in="SourceGraphic" in2="BackgroundImageFix" result="shape"/><feColorMatrix in="SourceAlpha" result="hardAlpha" values="0 0 0 0 0 0 0 0 0 0 0 0 0 0 0 0 0 0 127 0"/><feOffset dx="-.15" dy=".15"/><feGaussianBlur stdDeviation=".075"/><feComposite in2="hardAlpha" k2="-1" k3="1" operator="arithmetic"/><feColorMatrix values="0 0 0 0 1 0 0 0 0 0.988235 0 0 0 0 1 0 0 0 1 0"/><feBlend in2="shape" result="effect1_innerShadow_18_7696"/><feColorMatrix in="SourceAlpha" result="hardAlpha" values="0 0 0 0 0 0 0 0 0 0 0 0 0 0 0 0 0 0 127 0"/><feOffset dx=".15" dy="-.15"/><feGaussianBlur stdDeviation=".125"/><feComposite in2="hardAlpha" k2="-1" k3="1" operator="arithmetic"/><feColorMatrix values="0 0 0 0 0.682353 0 0 0 0 0.603922 0 0 0 0 0.733333 0 0 0 1 0"/><feBlend in2="effect1_innerShadow_18_7696" result="effect2_innerShadow_18_7696"/></filter><filter id="filter21_ii_18_7696" width="3.682" height="3.682" x="14.659" y="5.659" color-interpolation-filters="sRGB" filterUnits="userSpaceOnUse"><feFlood flood-opacity="0" result="BackgroundImageFix"/><feBlend in="SourceGraphic" in2="BackgroundImageFix" result="shape"/><feColorMatrix in="SourceAlpha" result="hardAlpha" values="0 0 0 0 0 0 0 0 0 0 0 0 0 0 0 0 0 0 127 0"/><feOffset dx="-.15" dy=".15"/><feGaussianBlur stdDeviation=".15"/><feComposite in2="hardAlpha" k2="-1" k3="1" operator="arithmetic"/><feColorMatrix values="0 0 0 0 1 0 0 0 0 0.988235 0 0 0 0 1 0 0 0 1 0"/><feBlend in2="shape" result="effect1_innerShadow_18_7696"/><feColorMatrix in="SourceAlpha" result="hardAlpha" values="0 0 0 0 0 0 0 0 0 0 0 0 0 0 0 0 0 0 127 0"/><feOffset dx=".15" dy="-.15"/><feGaussianBlur stdDeviation=".125"/><feComposite in2="hardAlpha" k2="-1" k3="1" operator="arithmetic"/><feColorMatrix values="0 0 0 0 0.682353 0 0 0 0 0.603922 0 0 0 0 0.733333 0 0 0 1 0"/><feBlend in2="effect1_innerShadow_18_7696" result="effect2_innerShadow_18_7696"/></filter><filter id="filter22_ii_18_7696" width="2.682" height="2.682" x="4.159" y="3.159" color-interpolation-filters="sRGB" filterUnits="userSpaceOnUse"><feFlood flood-opacity="0" result="BackgroundImageFix"/><feBlend in="SourceGraphic" in2="BackgroundImageFix" result="shape"/><feColorMatrix in="SourceAlpha" result="hardAlpha" values="0 0 0 0 0 0 0 0 0 0 0 0 0 0 0 0 0 0 127 0"/><feOffset dx="-.15" dy=".15"/><feGaussianBlur stdDeviation=".075"/><feComposite in2="hardAlpha" k2="-1" k3="1" operator="arithmetic"/><feColorMatrix values="0 0 0 0 1 0 0 0 0 0.988235 0 0 0 0 1 0 0 0 1 0"/><feBlend in2="shape" result="effect1_innerShadow_18_7696"/><feColorMatrix in="SourceAlpha" result="hardAlpha" values="0 0 0 0 0 0 0 0 0 0 0 0 0 0 0 0 0 0 127 0"/><feOffset dx=".15" dy="-.15"/><feGaussianBlur stdDeviation=".125"/><feComposite in2="hardAlpha" k2="-1" k3="1" operator="arithmetic"/><feColorMatrix values="0 0 0 0 0.682353 0 0 0 0 0.603922 0 0 0 0 0.733333 0 0 0 1 0"/><feBlend in2="effect1_innerShadow_18_7696" result="effect2_innerShadow_18_7696"/></filter><filter id="filter23_i_18_7696" width="6.734" height="6.372" x="20.416" y="4.714" color-interpolation-filters="sRGB" filterUnits="userSpaceOnUse"><feFlood flood-opacity="0" result="BackgroundImageFix"/><feBlend in="SourceGraphic" in2="BackgroundImageFix" result="shape"/><feColorMatrix in="SourceAlpha" result="hardAlpha" values="0 0 0 0 0 0 0 0 0 0 0 0 0 0 0 0 0 0 127 0"/><feOffset dx=".15" dy="-.15"/><feGaussianBlur stdDeviation=".3"/><feComposite in2="hardAlpha" k2="-1" k3="1" operator="arithmetic"/><feColorMatrix values="0 0 0 0 0.466667 0 0 0 0 0.192157 0 0 0 0 0.301961 0 0 0 1 0"/><feBlend in2="shape" result="effect1_innerShadow_18_7696"/></filter><radialGradient id="paint4_radial_18_7696" cx="0" cy="0" r="1" gradientTransform="matrix(-2.43748 2.31252 -2.70261 -2.84866 29.313 3.125)" gradientUnits="userSpaceOnUse"><stop stop-color="#634D82"/><stop offset="1" stop-color="#634D82" stop-opacity="0"/></radialGradient><radialGradient id="paint28_radial_18_7696" cx="0" cy="0" r="1" gradientTransform="matrix(.58053 .54118 -.6915 .7418 26.585 11.546)" gradientUnits="userSpaceOnUse"><stop stop-color="#A097A2"/><stop offset="1" stop-color="#A097A2" stop-opacity="0"/></radialGradient><radialGradient id="paint29_radial_18_7696" cx="0" cy="0" r="1" gradientTransform="matrix(-.46246 -.51165 .63412 -.57315 28.366 13.415)" gradientUnits="userSpaceOnUse"><stop stop-color="#A097A2"/><stop offset="1" stop-color="#A097A2" stop-opacity="0"/></radialGradient><radialGradient id="paint30_radial_18_7696" cx="0" cy="0" r="1" gradientTransform="matrix(.58053 .54118 -.6915 .7418 20.585 3.546)" gradientUnits="userSpaceOnUse"><stop stop-color="#A097A2"/><stop offset="1" stop-color="#A097A2" stop-opacity="0"/></radialGradient><radialGradient id="paint31_radial_18_7696" cx="0" cy="0" r="1" gradientTransform="matrix(-.46246 -.51165 .63412 -.57315 22.366 5.414)" gradientUnits="userSpaceOnUse"><stop stop-color="#A097A2"/><stop offset="1" stop-color="#A097A2" stop-opacity="0"/></radialGradient><radialGradient id="paint32_radial_18_7696" cx="0" cy="0" r="1" gradientTransform="matrix(.77405 .72157 -.922 .98906 15.28 6.227)" gradientUnits="userSpaceOnUse"><stop stop-color="#A097A2"/><stop offset="1" stop-color="#A097A2" stop-opacity="0"/></radialGradient><radialGradient id="paint33_radial_18_7696" cx="0" cy="0" r="1" gradientTransform="matrix(-.61662 -.6822 .8455 -.7642 17.654 8.72)" gradientUnits="userSpaceOnUse"><stop stop-color="#A097A2"/><stop offset="1" stop-color="#A097A2" stop-opacity="0"/></radialGradient><radialGradient id="paint34_radial_18_7696" cx="0" cy="0" r="1" gradientTransform="matrix(.46094 .42969 -.54904 .58898 4.773 3.742)" gradientUnits="userSpaceOnUse"><stop stop-color="#A097A2"/><stop offset="1" stop-color="#A097A2" stop-opacity="0"/></radialGradient><radialGradient id="paint35_radial_18_7696" cx="0" cy="0" r="1" gradientTransform="matrix(-.36719 -.40625 .50349 -.45508 6.188 5.227)" gradientUnits="userSpaceOnUse"><stop stop-color="#A097A2"/><stop offset="1" stop-color="#A097A2" stop-opacity="0"/></radialGradient><radialGradient id="paint37_radial_18_7696" cx="0" cy="0" r="1" gradientTransform="matrix(4.55625 -1.7139 1.81366 4.82142 22.444 7.975)" gradientUnits="userSpaceOnUse"><stop offset=".768" stop-color="#FFFB8A" stop-opacity="0"/><stop offset="1" stop-color="#FFFB8A"/></radialGradient></defs></svg>