<svg xmlns="http://www.w3.org/2000/svg" width="32" height="32" fill="none" viewBox="0 0 32 32"><path fill="url(#paint0_radial_18_25664)" d="M22.398 28.615h2.008v1.676h-2.008z"/><path fill="url(#paint1_radial_18_25664)" d="M3.461 28.615h2.008v1.676H3.461z"/><path fill="#447AC9" d="M4.625 18.537c0-.69.56-1.25 1.25-1.25h6.828c.69 0 1.25.56 1.25 1.25v6.734H4.625v-6.734Z"/><path fill="url(#paint2_linear_18_25664)" d="M4.625 18.537c0-.69.56-1.25 1.25-1.25h6.828c.69 0 1.25.56 1.25 1.25v6.734H4.625v-6.734Z"/><path fill="url(#paint3_linear_18_25664)" d="M4.625 18.537c0-.69.56-1.25 1.25-1.25h6.828c.69 0 1.25.56 1.25 1.25v6.734H4.625v-6.734Z"/><path fill="url(#paint4_linear_18_25664)" d="M4.625 18.537c0-.69.56-1.25 1.25-1.25h6.828c.69 0 1.25.56 1.25 1.25v6.734H4.625v-6.734Z"/><path fill="url(#paint5_linear_18_25664)" d="M4.625 18.537c0-.69.56-1.25 1.25-1.25h6.828c.69 0 1.25.56 1.25 1.25v6.734H4.625v-6.734Z"/><path fill="url(#paint6_linear_18_25664)" d="M4.625 18.537c0-.69.56-1.25 1.25-1.25h6.828c.69 0 1.25.56 1.25 1.25v6.734H4.625v-6.734Z"/><path fill="#447AC9" d="M23.281 18.537c0-.69-.56-1.25-1.25-1.25h-6.828c-.69 0-1.25.56-1.25 1.25v6.734h9.328v-6.734Z"/><path fill="url(#paint7_linear_18_25664)" d="M23.281 18.537c0-.69-.56-1.25-1.25-1.25h-6.828c-.69 0-1.25.56-1.25 1.25v6.734h9.328v-6.734Z"/><path fill="url(#paint8_linear_18_25664)" d="M23.281 18.537c0-.69-.56-1.25-1.25-1.25h-6.828c-.69 0-1.25.56-1.25 1.25v6.734h9.328v-6.734Z"/><path fill="url(#paint9_linear_18_25664)" d="M23.281 18.537c0-.69-.56-1.25-1.25-1.25h-6.828c-.69 0-1.25.56-1.25 1.25v6.734h9.328v-6.734Z"/><path fill="url(#paint10_linear_18_25664)" d="M23.281 18.537c0-.69-.56-1.25-1.25-1.25h-6.828c-.69 0-1.25.56-1.25 1.25v6.734h9.328v-6.734Z"/><path fill="url(#paint11_linear_18_25664)" d="M23.281 18.537c0-.69-.56-1.25-1.25-1.25h-6.828c-.69 0-1.25.56-1.25 1.25v6.734h9.328v-6.734Z"/><path fill="url(#paint12_linear_18_25664)" d="M23.281 18.537c0-.69-.56-1.25-1.25-1.25h-6.828c-.69 0-1.25.56-1.25 1.25v6.734h9.328v-6.734Z"/><path fill="url(#paint13_radial_18_25664)" d="M23.281 18.537c0-.69-.56-1.25-1.25-1.25h-6.828c-.69 0-1.25.56-1.25 1.25v6.734h9.328v-6.734Z"/><g filter="url(#filter0_i_18_25664)"><path fill="#4A7ED9" d="M4.773 24.639h18.32v3.593a1 1 0 0 1-1 1H5.774a1 1 0 0 1-1-1V24.64Z"/><path fill="url(#paint14_linear_18_25664)" d="M4.773 24.639h18.32v3.593a1 1 0 0 1-1 1H5.774a1 1 0 0 1-1-1V24.64Z"/></g><g filter="url(#filter1_ii_18_25664)"><path stroke="#CBC9CC" stroke-width=".9" d="M21.86 9.146V5.342a2.5 2.5 0 0 1 2.5-2.5h.98a2.5 2.5 0 0 1 2.5 2.5v23.586"/></g><path stroke="url(#paint15_radial_18_25664)" stroke-width=".9" d="M21.86 9.146V5.342a2.5 2.5 0 0 1 2.5-2.5h.98a2.5 2.5 0 0 1 2.5 2.5v23.586"/><g stroke-width=".3" filter="url(#filter2_f_18_25664)"><path stroke="url(#paint16_radial_18_25664)" d="M21.86 9.146V5.342c0-1.381 1.134-2.5 2.534-2.5h.994c1.4 0 2.534 1.119 2.534 2.5v23.586"/><path stroke="url(#paint17_linear_18_25664)" d="M21.86 9.146V5.342c0-1.381 1.134-2.5 2.534-2.5h.994c1.4 0 2.534 1.119 2.534 2.5v23.586"/></g><g filter="url(#filter3_ii_18_25664)"><path fill="#307ACE" d="M2.438 22.271a1.703 1.703 0 1 1 3.406 0v5.961a1 1 0 0 1-1 1H3.437a1 1 0 0 1-1-1v-5.96Z"/></g><g filter="url(#filter4_i_18_25664)"><path fill="url(#paint18_linear_18_25664)" d="M21.867 6.318a3.492 3.492 0 0 0-3.492 3.492v2.758c0 .415.336.75.75.75h5.484a.75.75 0 0 0 .75-.75V9.81a3.492 3.492 0 0 0-3.492-3.492Z"/><path fill="url(#paint19_linear_18_25664)" d="M21.867 6.318a3.492 3.492 0 0 0-3.492 3.492v2.758c0 .415.336.75.75.75h5.484a.75.75 0 0 0 .75-.75V9.81a3.492 3.492 0 0 0-3.492-3.492Z"/><path fill="url(#paint20_radial_18_25664)" d="M21.867 6.318a3.492 3.492 0 0 0-3.492 3.492v2.758c0 .415.336.75.75.75h5.484a.75.75 0 0 0 .75-.75V9.81a3.492 3.492 0 0 0-3.492-3.492Z"/></g><path fill="url(#paint21_radial_18_25664)" d="M25.349 29.783c-.058.275.172.508.453.508h4.119c.28 0 .51-.233.453-.508-.255-1.213-1.297-2.121-2.515-2.121-1.217 0-2.257.908-2.51 2.121Z"/><path fill="url(#paint22_radial_18_25664)" d="M25.349 29.783c-.058.275.172.508.453.508h4.119c.28 0 .51-.233.453-.508-.255-1.213-1.297-2.121-2.515-2.121-1.217 0-2.257.908-2.51 2.121Z"/><path fill="url(#paint23_linear_18_25664)" d="M25.349 29.783c-.058.275.172.508.453.508h4.119c.28 0 .51-.233.453-.508-.255-1.213-1.297-2.121-2.515-2.121-1.217 0-2.257.908-2.51 2.121Z"/><path fill="url(#paint24_radial_18_25664)" d="M25.349 29.783c-.058.275.172.508.453.508h4.119c.28 0 .51-.233.453-.508-.255-1.213-1.297-2.121-2.515-2.121-1.217 0-2.257.908-2.51 2.121Z"/><g filter="url(#filter5_f_18_25664)"><path stroke="url(#paint25_linear_18_25664)" stroke-linecap="round" d="M6.219 18.396h6.343a.25.25 0 0 1 .25.25v5.547"/></g><g filter="url(#filter6_f_18_25664)"><path stroke="url(#paint26_linear_18_25664)" stroke-linecap="round" d="M15.578 18.38h6.344a.25.25 0 0 1 .25.25v5.548"/></g><g filter="url(#filter7_ii_18_25664)"><path fill="#307ACE" d="M21.867 22.271a1.703 1.703 0 1 1 3.406 0v5.961a1 1 0 0 1-1 1h-1.406a1 1 0 0 1-1-1v-5.96Z"/></g><g filter="url(#filter8_f_18_25664)"><path fill="#4D83D2" d="M6.219 25.271H21.86v.438H6.219z"/></g><g filter="url(#filter9_f_18_25664)"><path fill="url(#paint27_linear_18_25664)" d="M4.094 21.959a.531.531 0 0 1 1.063 0v6.156H4.093V21.96Z"/></g><g filter="url(#filter10_f_18_25664)"><path fill="url(#paint28_linear_18_25664)" d="M23.57 21.959a.531.531 0 0 1 1.063 0v6.156H23.57V21.96Z"/></g><defs><linearGradient id="paint2_linear_18_25664" x1="9.289" x2="9.289" y1="17.287" y2="19.146" gradientUnits="userSpaceOnUse"><stop offset=".032" stop-color="#3B77BB"/><stop offset="1" stop-color="#3B77BB" stop-opacity="0"/></linearGradient><linearGradient id="paint3_linear_18_25664" x1="4.625" x2="6.5" y1="20.365" y2="20.365" gradientUnits="userSpaceOnUse"><stop stop-color="#3261A8"/><stop offset="1" stop-color="#3261A8" stop-opacity="0"/></linearGradient><linearGradient id="paint4_linear_18_25664" x1="7.25" x2="7.25" y1="24.896" y2="23.834" gradientUnits="userSpaceOnUse"><stop stop-color="#3261A8"/><stop offset="1" stop-color="#457BCA" stop-opacity="0"/></linearGradient><linearGradient id="paint5_linear_18_25664" x1="14.375" x2="12.531" y1="24.521" y2="24.521" gradientUnits="userSpaceOnUse"><stop stop-color="#1859A4"/><stop offset="1" stop-color="#1859A4" stop-opacity="0"/></linearGradient><linearGradient id="paint6_linear_18_25664" x1="14.023" x2="13.508" y1="22.584" y2="22.584" gradientUnits="userSpaceOnUse"><stop stop-color="#022F89"/><stop offset="1" stop-color="#2A67B4" stop-opacity="0"/></linearGradient><linearGradient id="paint7_linear_18_25664" x1="18.617" x2="18.617" y1="17.287" y2="19.146" gradientUnits="userSpaceOnUse"><stop offset=".032" stop-color="#3B77BB"/><stop offset="1" stop-color="#3B77BB" stop-opacity="0"/></linearGradient><linearGradient id="paint8_linear_18_25664" x1="23.281" x2="21.406" y1="20.365" y2="20.365" gradientUnits="userSpaceOnUse"><stop stop-color="#3261A8"/><stop offset="1" stop-color="#3261A8" stop-opacity="0"/></linearGradient><linearGradient id="paint9_linear_18_25664" x1="20.656" x2="20.656" y1="24.896" y2="23.834" gradientUnits="userSpaceOnUse"><stop stop-color="#3261A8"/><stop offset="1" stop-color="#457BCA" stop-opacity="0"/></linearGradient><linearGradient id="paint10_linear_18_25664" x1="13.531" x2="15.375" y1="24.521" y2="24.521" gradientUnits="userSpaceOnUse"><stop stop-color="#1859A4"/><stop offset="1" stop-color="#1859A4" stop-opacity="0"/></linearGradient><linearGradient id="paint11_linear_18_25664" x1="13.883" x2="14.398" y1="22.584" y2="22.584" gradientUnits="userSpaceOnUse"><stop stop-color="#022F89"/><stop offset="1" stop-color="#2A67B4" stop-opacity="0"/></linearGradient><linearGradient id="paint12_linear_18_25664" x1="23.281" x2="19.5" y1="26.084" y2="23.084" gradientUnits="userSpaceOnUse"><stop offset=".331" stop-color="#163883"/><stop offset="1" stop-color="#2A5AA1" stop-opacity="0"/></linearGradient><linearGradient id="paint14_linear_18_25664" x1="13.934" x2="13.934" y1="24.639" y2="25.709" gradientUnits="userSpaceOnUse"><stop offset=".241" stop-color="#397AC5"/><stop offset="1" stop-color="#397AC5" stop-opacity="0"/></linearGradient><linearGradient id="paint17_linear_18_25664" x1="27.922" x2="27.922" y1="27.74" y2="16.803" gradientUnits="userSpaceOnUse"><stop stop-color="#C5C0C3"/><stop offset="1" stop-color="#C5C0C3" stop-opacity="0"/></linearGradient><linearGradient id="paint18_linear_18_25664" x1="18.207" x2="24.912" y1="11.106" y2="11.106" gradientUnits="userSpaceOnUse"><stop offset=".253" stop-color="#F89B2F"/><stop offset=".789" stop-color="#FFDB4E"/></linearGradient><linearGradient id="paint19_linear_18_25664" x1="23.406" x2="23.406" y1="13.318" y2="12.85" gradientUnits="userSpaceOnUse"><stop stop-color="#AA665B"/><stop offset="1" stop-color="#EB9434" stop-opacity="0"/></linearGradient><linearGradient id="paint23_linear_18_25664" x1="28.813" x2="28.813" y1="30.291" y2="29.928" gradientUnits="userSpaceOnUse"><stop stop-color="#E68945"/><stop offset="1" stop-color="#E68945" stop-opacity="0"/></linearGradient><linearGradient id="paint25_linear_18_25664" x1="13.938" x2="6.659" y1="22.615" y2="22.749" gradientUnits="userSpaceOnUse"><stop stop-color="#5284C7"/><stop offset="1" stop-color="#5284C7" stop-opacity="0"/></linearGradient><linearGradient id="paint26_linear_18_25664" x1="22.758" x2="20.985" y1="18.099" y2="21.945" gradientUnits="userSpaceOnUse"><stop stop-color="#5284C7"/><stop offset="1" stop-color="#5284C7" stop-opacity="0"/></linearGradient><linearGradient id="paint27_linear_18_25664" x1="4.625" x2="4.625" y1="21.428" y2="27.709" gradientUnits="userSpaceOnUse"><stop stop-color="#5C92DB"/><stop offset="1" stop-color="#5487DD"/></linearGradient><linearGradient id="paint28_linear_18_25664" x1="24.102" x2="24.102" y1="21.428" y2="27.709" gradientUnits="userSpaceOnUse"><stop stop-color="#5C92DB"/><stop offset="1" stop-color="#5487DD"/></linearGradient><filter id="filter0_i_18_25664" width="19.32" height="5.094" x="3.773" y="24.139" color-interpolation-filters="sRGB" filterUnits="userSpaceOnUse"><feFlood flood-opacity="0" result="BackgroundImageFix"/><feBlend in="SourceGraphic" in2="BackgroundImageFix" result="shape"/><feColorMatrix in="SourceAlpha" result="hardAlpha" values="0 0 0 0 0 0 0 0 0 0 0 0 0 0 0 0 0 0 127 0"/><feOffset dx="-1" dy="-.5"/><feGaussianBlur stdDeviation=".5"/><feComposite in2="hardAlpha" k2="-1" k3="1" operator="arithmetic"/><feColorMatrix values="0 0 0 0 0.215686 0 0 0 0 0.32549 0 0 0 0 0.768627 0 0 0 1 0"/><feBlend in2="shape" result="effect1_innerShadow_18_25664"/></filter><filter id="filter1_ii_18_25664" width="7.18" height="26.736" x="21.409" y="2.192" color-interpolation-filters="sRGB" filterUnits="userSpaceOnUse"><feFlood flood-opacity="0" result="BackgroundImageFix"/><feBlend in="SourceGraphic" in2="BackgroundImageFix" result="shape"/><feColorMatrix in="SourceAlpha" result="hardAlpha" values="0 0 0 0 0 0 0 0 0 0 0 0 0 0 0 0 0 0 127 0"/><feOffset dx=".3" dy="-.2"/><feGaussianBlur stdDeviation=".225"/><feComposite in2="hardAlpha" k2="-1" k3="1" operator="arithmetic"/><feColorMatrix values="0 0 0 0 0.666667 0 0 0 0 0.662745 0 0 0 0 0.666667 0 0 0 1 0"/><feBlend in2="shape" result="effect1_innerShadow_18_25664"/><feColorMatrix in="SourceAlpha" result="hardAlpha" values="0 0 0 0 0 0 0 0 0 0 0 0 0 0 0 0 0 0 127 0"/><feOffset dy="-.2"/><feGaussianBlur stdDeviation=".225"/><feComposite in2="hardAlpha" k2="-1" k3="1" operator="arithmetic"/><feColorMatrix values="0 0 0 0 0.6 0 0 0 0 0.521569 0 0 0 0 0.596078 0 0 0 1 0"/><feBlend in2="effect1_innerShadow_18_25664" result="effect2_innerShadow_18_25664"/></filter><filter id="filter2_f_18_25664" width="6.963" height="26.836" x="21.409" y="2.392" color-interpolation-filters="sRGB" filterUnits="userSpaceOnUse"><feFlood flood-opacity="0" result="BackgroundImageFix"/><feBlend in="SourceGraphic" in2="BackgroundImageFix" result="shape"/><feGaussianBlur result="effect1_foregroundBlur_18_25664" stdDeviation=".15"/></filter><filter id="filter3_ii_18_25664" width="4.406" height="9.414" x="2.438" y="19.818" color-interpolation-filters="sRGB" filterUnits="userSpaceOnUse"><feFlood flood-opacity="0" result="BackgroundImageFix"/><feBlend in="SourceGraphic" in2="BackgroundImageFix" result="shape"/><feColorMatrix in="SourceAlpha" result="hardAlpha" values="0 0 0 0 0 0 0 0 0 0 0 0 0 0 0 0 0 0 127 0"/><feOffset dx="1" dy="-.75"/><feGaussianBlur stdDeviation=".625"/><feComposite in2="hardAlpha" k2="-1" k3="1" operator="arithmetic"/><feColorMatrix values="0 0 0 0 0.203922 0 0 0 0 0.380392 0 0 0 0 0.745098 0 0 0 1 0"/><feBlend in2="shape" result="effect1_innerShadow_18_25664"/><feColorMatrix in="SourceAlpha" result="hardAlpha" values="0 0 0 0 0 0 0 0 0 0 0 0 0 0 0 0 0 0 127 0"/><feOffset dy="-.5"/><feGaussianBlur stdDeviation=".625"/><feComposite in2="hardAlpha" k2="-1" k3="1" operator="arithmetic"/><feColorMatrix values="0 0 0 0 0.235294 0 0 0 0 0.305882 0 0 0 0 0.733333 0 0 0 1 0"/><feBlend in2="effect1_innerShadow_18_25664" result="effect2_innerShadow_18_25664"/></filter><filter id="filter4_i_18_25664" width="7.484" height="7" x="18.375" y="6.318" color-interpolation-filters="sRGB" filterUnits="userSpaceOnUse"><feFlood flood-opacity="0" result="BackgroundImageFix"/><feBlend in="SourceGraphic" in2="BackgroundImageFix" result="shape"/><feColorMatrix in="SourceAlpha" result="hardAlpha" values="0 0 0 0 0 0 0 0 0 0 0 0 0 0 0 0 0 0 127 0"/><feOffset dx=".5"/><feGaussianBlur stdDeviation=".75"/><feComposite in2="hardAlpha" k2="-1" k3="1" operator="arithmetic"/><feColorMatrix values="0 0 0 0 0.815686 0 0 0 0 0.560784 0 0 0 0 0.384314 0 0 0 1 0"/><feBlend in2="shape" result="effect1_innerShadow_18_25664"/></filter><filter id="filter5_f_18_25664" width="8.594" height="7.797" x="5.219" y="17.396" color-interpolation-filters="sRGB" filterUnits="userSpaceOnUse"><feFlood flood-opacity="0" result="BackgroundImageFix"/><feBlend in="SourceGraphic" in2="BackgroundImageFix" result="shape"/><feGaussianBlur result="effect1_foregroundBlur_18_25664" stdDeviation=".25"/></filter><filter id="filter6_f_18_25664" width="8.594" height="7.797" x="14.578" y="17.381" color-interpolation-filters="sRGB" filterUnits="userSpaceOnUse"><feFlood flood-opacity="0" result="BackgroundImageFix"/><feBlend in="SourceGraphic" in2="BackgroundImageFix" result="shape"/><feGaussianBlur result="effect1_foregroundBlur_18_25664" stdDeviation=".25"/></filter><filter id="filter7_ii_18_25664" width="4.406" height="9.414" x="21.867" y="19.818" color-interpolation-filters="sRGB" filterUnits="userSpaceOnUse"><feFlood flood-opacity="0" result="BackgroundImageFix"/><feBlend in="SourceGraphic" in2="BackgroundImageFix" result="shape"/><feColorMatrix in="SourceAlpha" result="hardAlpha" values="0 0 0 0 0 0 0 0 0 0 0 0 0 0 0 0 0 0 127 0"/><feOffset dx="1" dy="-.75"/><feGaussianBlur stdDeviation=".625"/><feComposite in2="hardAlpha" k2="-1" k3="1" operator="arithmetic"/><feColorMatrix values="0 0 0 0 0.203922 0 0 0 0 0.380392 0 0 0 0 0.745098 0 0 0 1 0"/><feBlend in2="shape" result="effect1_innerShadow_18_25664"/><feColorMatrix in="SourceAlpha" result="hardAlpha" values="0 0 0 0 0 0 0 0 0 0 0 0 0 0 0 0 0 0 127 0"/><feOffset dy="-.5"/><feGaussianBlur stdDeviation=".625"/><feComposite in2="hardAlpha" k2="-1" k3="1" operator="arithmetic"/><feColorMatrix values="0 0 0 0 0.235294 0 0 0 0 0.305882 0 0 0 0 0.733333 0 0 0 1 0"/><feBlend in2="effect1_innerShadow_18_25664" result="effect2_innerShadow_18_25664"/></filter><filter id="filter8_f_18_25664" width="16.641" height="1.438" x="5.719" y="24.771" color-interpolation-filters="sRGB" filterUnits="userSpaceOnUse"><feFlood flood-opacity="0" result="BackgroundImageFix"/><feBlend in="SourceGraphic" in2="BackgroundImageFix" result="shape"/><feGaussianBlur result="effect1_foregroundBlur_18_25664" stdDeviation=".25"/></filter><filter id="filter9_f_18_25664" width="2.563" height="8.188" x="3.344" y="20.678" color-interpolation-filters="sRGB" filterUnits="userSpaceOnUse"><feFlood flood-opacity="0" result="BackgroundImageFix"/><feBlend in="SourceGraphic" in2="BackgroundImageFix" result="shape"/><feGaussianBlur result="effect1_foregroundBlur_18_25664" stdDeviation=".375"/></filter><filter id="filter10_f_18_25664" width="2.563" height="8.188" x="22.82" y="20.678" color-interpolation-filters="sRGB" filterUnits="userSpaceOnUse"><feFlood flood-opacity="0" result="BackgroundImageFix"/><feBlend in="SourceGraphic" in2="BackgroundImageFix" result="shape"/><feGaussianBlur result="effect1_foregroundBlur_18_25664" stdDeviation=".375"/></filter><radialGradient id="paint0_radial_18_25664" cx="0" cy="0" r="1" gradientTransform="matrix(0 -1.50391 1.80188 0 24.016 30.29)" gradientUnits="userSpaceOnUse"><stop stop-color="#978BFF"/><stop offset="1" stop-color="#7F72FF"/></radialGradient><radialGradient id="paint1_radial_18_25664" cx="0" cy="0" r="1" gradientTransform="matrix(0 -1.50391 1.80188 0 5.078 30.29)" gradientUnits="userSpaceOnUse"><stop stop-color="#978BFF"/><stop offset="1" stop-color="#7F72FF"/></radialGradient><radialGradient id="paint13_radial_18_25664" cx="0" cy="0" r="1" gradientTransform="rotate(131.934 7.53 13.991) scale(1.23921 1.1939)" gradientUnits="userSpaceOnUse"><stop stop-color="#5289C9"/><stop offset="1" stop-color="#5289C9" stop-opacity="0"/></radialGradient><radialGradient id="paint15_radial_18_25664" cx="0" cy="0" r="1" gradientTransform="matrix(0 -11.7907 .46968 0 27.228 27.367)" gradientUnits="userSpaceOnUse"><stop stop-color="#667295"/><stop offset="1" stop-color="#667295" stop-opacity="0"/></radialGradient><radialGradient id="paint16_radial_18_25664" cx="0" cy="0" r="1" gradientTransform="rotate(108.091 12.707 11.856) scale(6.31206 7.38492)" gradientUnits="userSpaceOnUse"><stop offset=".11" stop-color="#DDDBDE"/><stop offset="1" stop-color="#DDDBDE" stop-opacity="0"/></radialGradient><radialGradient id="paint20_radial_18_25664" cx="0" cy="0" r="1" gradientTransform="rotate(93.814 7.862 15.023) scale(2.34895 4.07743)" gradientUnits="userSpaceOnUse"><stop stop-color="#FFE96C"/><stop offset="1" stop-color="#FFD64C" stop-opacity="0"/></radialGradient><radialGradient id="paint21_radial_18_25664" cx="0" cy="0" r="1" gradientTransform="matrix(-3.3125 0 0 -3.28621 29.844 29.584)" gradientUnits="userSpaceOnUse"><stop stop-color="#FFE258"/><stop offset="1" stop-color="#FFAF33"/></radialGradient><radialGradient id="paint22_radial_18_25664" cx="0" cy="0" r="1" gradientTransform="matrix(0 -1.0918 1.28125 0 29.297 30.068)" gradientUnits="userSpaceOnUse"><stop stop-color="#FFD96D"/><stop offset="1" stop-color="#FFD96D" stop-opacity="0"/></radialGradient><radialGradient id="paint24_radial_18_25664" cx="0" cy="0" r="1" gradientTransform="rotate(-164.204 16.484 12.98) scale(3.60895)" gradientUnits="userSpaceOnUse"><stop offset=".615" stop-color="#D2852C" stop-opacity="0"/><stop offset=".981" stop-color="#884B45"/></radialGradient></defs></svg>