<svg xmlns="http://www.w3.org/2000/svg" width="32" height="32" fill="none" viewBox="0 0 32 32"><path fill="url(#paint0_radial_18_10575)" d="M7.19 19h2.95c.18 0 .33-.15.33-.33A2.67 2.67 0 0 0 7.8 16h-.62c-.66 0-1.19.53-1.19 1.19v.62c.01.66.54 1.19 1.2 1.19Z"/><g filter="url(#filter0_i_18_10575)"><path fill="url(#paint1_linear_18_10575)" d="M7.99 29h-2c-.55 0-1-.45-1-1v-4h4v4c0 .55-.45 1-1 1Z"/></g><g filter="url(#filter1_i_18_10575)"><path fill="url(#paint2_linear_18_10575)" d="M25.99 29h-2c-.55 0-1-.45-1-1v-4h4v4c0 .55-.45 1-1 1Z"/></g><path fill="url(#paint3_radial_18_10575)" d="M24.797 19h-2.931a.332.332 0 0 1-.328-.33A2.66 2.66 0 0 1 24.191 16h.616c.656 0 1.183.53 1.183 1.19v.62c-.01.66-.537 1.19-1.193 1.19Z"/><path fill="url(#paint4_linear_18_10575)" d="M24.95 18H7.03a3.637 3.637 0 0 0-2.04 3.27V24h22v-2.73c0-1.39-.79-2.66-2.04-3.27Z"/><path fill="url(#paint5_linear_18_10575)" d="M24.95 18H7.03a3.637 3.637 0 0 0-2.04 3.27V24h22v-2.73c0-1.39-.79-2.66-2.04-3.27Z"/><path fill="url(#paint6_linear_18_10575)" d="M24.99 26h-18c-1.1 0-2-.9-2-2h22a2 2 0 0 1-2 2Z"/><path fill="url(#paint7_linear_18_10575)" d="M24.99 26h-18c-1.1 0-2-.9-2-2h22a2 2 0 0 1-2 2Z"/><path fill="url(#paint8_radial_18_10575)" d="M24.99 26h-18c-1.1 0-2-.9-2-2h22a2 2 0 0 1-2 2Z"/><g filter="url(#filter2_f_18_10575)"><path stroke="url(#paint9_linear_18_10575)" stroke-width=".2" d="M24.927 20c-.515 0-.937.45-.937 1v1c0 .55.422 1 .938 1h1.874v-1.73c0-.44-.071-.87-.212-1.27h-1.663Z"/></g><path fill="url(#paint10_linear_18_10575)" d="M24.99 20c-.55 0-1 .45-1 1v1c0 .55.45 1 1 1h2v-1.73c0-.44-.077-.87-.227-1.27H24.99Z"/><g filter="url(#filter3_f_18_10575)"><path stroke="url(#paint11_linear_18_10575)" stroke-width=".2" d="M7.99 22v-1c0-.55-.424-1-.943-1l-1.683.015a3.72 3.72 0 0 0-.202 1.255V23h1.885c.519 0 .943-.45.943-1Z"/></g><path fill="url(#paint12_linear_18_10575)" d="M7.99 22v-1c0-.55-.45-1-1-1l-1.785.015c-.15.4-.215.815-.215 1.255V23h2c.55 0 1-.45 1-1Z"/><path fill="url(#paint13_linear_18_10575)" d="M7.99 22v-1c0-.55-.45-1-1-1l-1.785.015c-.15.4-.215.815-.215 1.255V23h2c.55 0 1-.45 1-1Z"/><g filter="url(#filter4_f_18_10575)"><path stroke="url(#paint14_linear_18_10575)" stroke-width=".2" d="M17.99 20h-1 1Zm0 0h-4c-.55 0-1 .45-1 1v1c0 .55.45 1 1 1h4-1 1c.55 0 1-.45 1-1v-1c0-.55-.45-1-1-1Z"/></g><g filter="url(#filter5_i_18_10575)"><path fill="url(#paint15_linear_18_10575)" d="M17.99 20h-1 1-4c-.55 0-1 .45-1 1v1c0 .55.45 1 1 1h4-1 1c.55 0 1-.45 1-1v-1c0-.55-.45-1-1-1Z"/><path fill="url(#paint16_linear_18_10575)" d="M17.99 20h-1 1-4c-.55 0-1 .45-1 1v1c0 .55.45 1 1 1h4-1 1c.55 0 1-.45 1-1v-1c0-.55-.45-1-1-1Z"/></g><g filter="url(#filter6_i_18_10575)"><path fill="url(#paint17_linear_18_10575)" d="M17.33 25h-.67.67-2.67c-.37 0-.67.3-.67.67v.67c0 .37.3.67.67.67h2.67-.67.67c.37 0 .67-.3.67-.67v-.67c0-.37-.3-.67-.67-.67Z"/><path fill="url(#paint18_linear_18_10575)" d="M17.33 25h-.67.67-2.67c-.37 0-.67.3-.67.67v.67c0 .37.3.67.67.67h2.67-.67.67c.37 0 .67-.3.67-.67v-.67c0-.37-.3-.67-.67-.67Z"/></g><g filter="url(#filter7_f_18_10575)"><path stroke="url(#paint19_linear_18_10575)" stroke-width=".2" d="M10.49 23a1.5 1.5 0 1 0 0-3 1.5 1.5 0 0 0 0 3Z"/></g><path fill="url(#paint20_radial_18_10575)" d="M10.49 23a1.5 1.5 0 1 0 0-3 1.5 1.5 0 0 0 0 3Z"/><g filter="url(#filter8_f_18_10575)"><path stroke="url(#paint21_linear_18_10575)" stroke-width=".2" d="M21.49 23a1.5 1.5 0 1 0 0-3 1.5 1.5 0 0 0 0 3Z"/></g><path fill="url(#paint22_radial_18_10575)" d="M21.49 23a1.5 1.5 0 1 0 0-3 1.5 1.5 0 0 0 0 3Z"/><path fill="url(#paint23_linear_18_10575)" d="M19.49 10h-7c-1.62 0-2.91 1.01-3.47 2.53L6.99 18h17.94l-2.03-5.47c-.57-1.52-1.79-2.53-3.41-2.53Z"/><path fill="url(#paint24_linear_18_10575)" d="M19.49 10h-7c-1.62 0-2.91 1.01-3.47 2.53L6.99 18h17.94l-2.03-5.47c-.57-1.52-1.79-2.53-3.41-2.53Z"/><path fill="url(#paint25_radial_18_10575)" d="M19.49 10h-7c-1.62 0-2.91 1.01-3.47 2.53L6.99 18h17.94l-2.03-5.47c-.57-1.52-1.79-2.53-3.41-2.53Z"/><path fill="url(#paint26_linear_18_10575)" d="M19.49 10h-7c-1.62 0-2.91 1.01-3.47 2.53L6.99 18h17.94l-2.03-5.47c-.57-1.52-1.79-2.53-3.41-2.53Z"/><g fill-rule="evenodd" clip-rule="evenodd" filter="url(#filter9_i_18_10575)"><path fill="url(#paint27_linear_18_10575)" d="M9.255 12c.643-1.22 1.812-2 3.235-2h7c1.423 0 2.538.78 3.174 2H9.255Z"/><path fill="url(#paint28_linear_18_10575)" d="M9.255 12c.643-1.22 1.812-2 3.235-2h7c1.423 0 2.538.78 3.174 2H9.255Z"/></g><defs><linearGradient id="paint1_linear_18_10575" x1="5.594" x2="8.235" y1="26.506" y2="26.506" gradientUnits="userSpaceOnUse"><stop stop-color="#361752"/><stop offset="1" stop-color="#2D1E3B"/></linearGradient><linearGradient id="paint2_linear_18_10575" x1="23.594" x2="26.235" y1="26.506" y2="26.506" gradientUnits="userSpaceOnUse"><stop stop-color="#361752"/><stop offset="1" stop-color="#2D1E3B"/></linearGradient><linearGradient id="paint4_linear_18_10575" x1="15.365" x2="15.365" y1="24.813" y2="18.875" gradientUnits="userSpaceOnUse"><stop stop-color="#E53A94"/><stop offset="1" stop-color="#F53759"/></linearGradient><linearGradient id="paint5_linear_18_10575" x1="15.99" x2="15.99" y1="17.737" y2="19.631" gradientUnits="userSpaceOnUse"><stop stop-color="#CB545A"/><stop offset="1" stop-color="#CB545A" stop-opacity="0"/></linearGradient><linearGradient id="paint6_linear_18_10575" x1="14.892" x2="27.7" y1="25.49" y2="25.49" gradientUnits="userSpaceOnUse"><stop stop-color="#9076A8"/><stop offset="1" stop-color="#A99EB7"/></linearGradient><linearGradient id="paint7_linear_18_10575" x1="15.99" x2="15.99" y1="26" y2="25.25" gradientUnits="userSpaceOnUse"><stop stop-color="#7B539E"/><stop offset="1" stop-color="#7B539E" stop-opacity="0"/></linearGradient><linearGradient id="paint9_linear_18_10575" x1="24.576" x2="26.38" y1="22.891" y2="21.637" gradientUnits="userSpaceOnUse"><stop stop-color="#D13459" stop-opacity="0"/><stop offset="1" stop-color="#D13459"/></linearGradient><linearGradient id="paint10_linear_18_10575" x1="23.834" x2="26.49" y1="20.375" y2="23" gradientUnits="userSpaceOnUse"><stop stop-color="#EFCD4B"/><stop offset="1" stop-color="#FFF371"/></linearGradient><linearGradient id="paint11_linear_18_10575" x1="5.751" x2="7.558" y1="22.891" y2="21.627" gradientUnits="userSpaceOnUse"><stop stop-color="#FD4070" stop-opacity="0"/><stop offset="1" stop-color="#FD4070"/></linearGradient><linearGradient id="paint12_linear_18_10575" x1="5.271" x2="7.052" y1="20" y2="22.813" gradientUnits="userSpaceOnUse"><stop stop-color="#FDD86D"/><stop offset="1" stop-color="#FFE666"/></linearGradient><linearGradient id="paint13_linear_18_10575" x1="8.302" x2="7.24" y1="22.313" y2="22.313" gradientUnits="userSpaceOnUse"><stop stop-color="#FFE96A"/><stop offset="1" stop-color="#FFE96A" stop-opacity="0"/></linearGradient><linearGradient id="paint14_linear_18_10575" x1="13.506" x2="18.49" y1="20.141" y2="23" gradientUnits="userSpaceOnUse"><stop stop-color="#F83A70"/><stop offset="1" stop-color="#C51F66"/></linearGradient><linearGradient id="paint15_linear_18_10575" x1="12.99" x2="18.99" y1="21.5" y2="21.5" gradientUnits="userSpaceOnUse"><stop stop-color="#362A59"/><stop offset="1" stop-color="#381F4E"/></linearGradient><linearGradient id="paint16_linear_18_10575" x1="12.99" x2="14.365" y1="21.844" y2="21.844" gradientUnits="userSpaceOnUse"><stop stop-color="#3D3861"/><stop offset="1" stop-color="#3A355F" stop-opacity="0"/></linearGradient><linearGradient id="paint17_linear_18_10575" x1="15.998" x2="15.998" y1="25" y2="27.01" gradientUnits="userSpaceOnUse"><stop stop-color="#998CAD"/><stop offset="1" stop-color="#9988B1"/></linearGradient><linearGradient id="paint18_linear_18_10575" x1="15.995" x2="15.995" y1="27.297" y2="26.797" gradientUnits="userSpaceOnUse"><stop stop-color="#8F77AE"/><stop offset="1" stop-color="#8F77AE" stop-opacity="0"/></linearGradient><linearGradient id="paint19_linear_18_10575" x1="9.615" x2="10.594" y1="22.891" y2="20.444" gradientUnits="userSpaceOnUse"><stop stop-color="#F84C91"/><stop offset="1" stop-color="#C21D62"/></linearGradient><linearGradient id="paint21_linear_18_10575" x1="20.615" x2="21.594" y1="22.891" y2="20.444" gradientUnits="userSpaceOnUse"><stop stop-color="#F84C91"/><stop offset="1" stop-color="#C21D62"/></linearGradient><linearGradient id="paint23_linear_18_10575" x1="14.835" x2="14.835" y1="12.051" y2="17.313" gradientUnits="userSpaceOnUse"><stop stop-color="#289BFD"/><stop offset="1" stop-color="#50E2FF"/></linearGradient><linearGradient id="paint24_linear_18_10575" x1="15.96" x2="15.96" y1="11.875" y2="13.563" gradientUnits="userSpaceOnUse"><stop offset=".259" stop-color="#1285EB"/><stop offset="1" stop-color="#1285EB" stop-opacity="0"/></linearGradient><linearGradient id="paint26_linear_18_10575" x1="24.429" x2="24.155" y1="15.531" y2="15.594" gradientUnits="userSpaceOnUse"><stop offset=".313" stop-color="#76EAFF"/><stop offset="1" stop-color="#76EAFF" stop-opacity="0"/></linearGradient><linearGradient id="paint27_linear_18_10575" x1="9.646" x2="22.666" y1="11" y2="11.002" gradientUnits="userSpaceOnUse"><stop stop-color="#FA3344"/><stop offset="1" stop-color="#F83444"/></linearGradient><linearGradient id="paint28_linear_18_10575" x1="22.664" x2="20.865" y1="12.188" y2="11.594" gradientUnits="userSpaceOnUse"><stop stop-color="#FF4E5B"/><stop offset="1" stop-color="#FF4E5B" stop-opacity="0"/></linearGradient><filter id="filter0_i_18_10575" width="4" height="5" x="4.99" y="24" color-interpolation-filters="sRGB" filterUnits="userSpaceOnUse"><feFlood flood-opacity="0" result="BackgroundImageFix"/><feBlend in="SourceGraphic" in2="BackgroundImageFix" result="shape"/><feColorMatrix in="SourceAlpha" result="hardAlpha" values="0 0 0 0 0 0 0 0 0 0 0 0 0 0 0 0 0 0 127 0"/><feOffset/><feGaussianBlur stdDeviation=".375"/><feComposite in2="hardAlpha" k2="-1" k3="1" operator="arithmetic"/><feColorMatrix values="0 0 0 0 0.396078 0 0 0 0 0.329412 0 0 0 0 0.466667 0 0 0 1 0"/><feBlend in2="shape" result="effect1_innerShadow_18_10575"/></filter><filter id="filter1_i_18_10575" width="4" height="5" x="22.99" y="24" color-interpolation-filters="sRGB" filterUnits="userSpaceOnUse"><feFlood flood-opacity="0" result="BackgroundImageFix"/><feBlend in="SourceGraphic" in2="BackgroundImageFix" result="shape"/><feColorMatrix in="SourceAlpha" result="hardAlpha" values="0 0 0 0 0 0 0 0 0 0 0 0 0 0 0 0 0 0 127 0"/><feOffset/><feGaussianBlur stdDeviation=".375"/><feComposite in2="hardAlpha" k2="-1" k3="1" operator="arithmetic"/><feColorMatrix values="0 0 0 0 0.396078 0 0 0 0 0.329412 0 0 0 0 0.466667 0 0 0 1 0"/><feBlend in2="shape" result="effect1_innerShadow_18_10575"/></filter><filter id="filter2_f_18_10575" width="3.212" height="3.4" x="23.79" y="19.8" color-interpolation-filters="sRGB" filterUnits="userSpaceOnUse"><feFlood flood-opacity="0" result="BackgroundImageFix"/><feBlend in="SourceGraphic" in2="BackgroundImageFix" result="shape"/><feGaussianBlur result="effect1_foregroundBlur_18_10575" stdDeviation=".05"/></filter><filter id="filter3_f_18_10575" width="3.228" height="3.4" x="4.962" y="19.8" color-interpolation-filters="sRGB" filterUnits="userSpaceOnUse"><feFlood flood-opacity="0" result="BackgroundImageFix"/><feBlend in="SourceGraphic" in2="BackgroundImageFix" result="shape"/><feGaussianBlur result="effect1_foregroundBlur_18_10575" stdDeviation=".05"/></filter><filter id="filter4_f_18_10575" width="6.4" height="3.4" x="12.79" y="19.8" color-interpolation-filters="sRGB" filterUnits="userSpaceOnUse"><feFlood flood-opacity="0" result="BackgroundImageFix"/><feBlend in="SourceGraphic" in2="BackgroundImageFix" result="shape"/><feGaussianBlur result="effect1_foregroundBlur_18_10575" stdDeviation=".05"/></filter><filter id="filter5_i_18_10575" width="6.5" height="3.1" x="12.49" y="19.9" color-interpolation-filters="sRGB" filterUnits="userSpaceOnUse"><feFlood flood-opacity="0" result="BackgroundImageFix"/><feBlend in="SourceGraphic" in2="BackgroundImageFix" result="shape"/><feColorMatrix in="SourceAlpha" result="hardAlpha" values="0 0 0 0 0 0 0 0 0 0 0 0 0 0 0 0 0 0 127 0"/><feOffset dx="-.5" dy="-.1"/><feGaussianBlur stdDeviation=".5"/><feComposite in2="hardAlpha" k2="-1" k3="1" operator="arithmetic"/><feColorMatrix values="0 0 0 0 0.117647 0 0 0 0 0.0352941 0 0 0 0 0.156863 0 0 0 1 0"/><feBlend in2="shape" result="effect1_innerShadow_18_10575"/></filter><filter id="filter6_i_18_10575" width="4.01" height="2.11" x="13.99" y="25" color-interpolation-filters="sRGB" filterUnits="userSpaceOnUse"><feFlood flood-opacity="0" result="BackgroundImageFix"/><feBlend in="SourceGraphic" in2="BackgroundImageFix" result="shape"/><feColorMatrix in="SourceAlpha" result="hardAlpha" values="0 0 0 0 0 0 0 0 0 0 0 0 0 0 0 0 0 0 127 0"/><feOffset dy=".1"/><feGaussianBlur stdDeviation=".1"/><feComposite in2="hardAlpha" k2="-1" k3="1" operator="arithmetic"/><feColorMatrix values="0 0 0 0 0.490196 0 0 0 0 0.458824 0 0 0 0 0.52549 0 0 0 1 0"/><feBlend in2="shape" result="effect1_innerShadow_18_10575"/></filter><filter id="filter7_f_18_10575" width="3.4" height="3.4" x="8.79" y="19.8" color-interpolation-filters="sRGB" filterUnits="userSpaceOnUse"><feFlood flood-opacity="0" result="BackgroundImageFix"/><feBlend in="SourceGraphic" in2="BackgroundImageFix" result="shape"/><feGaussianBlur result="effect1_foregroundBlur_18_10575" stdDeviation=".05"/></filter><filter id="filter8_f_18_10575" width="3.4" height="3.4" x="19.79" y="19.8" color-interpolation-filters="sRGB" filterUnits="userSpaceOnUse"><feFlood flood-opacity="0" result="BackgroundImageFix"/><feBlend in="SourceGraphic" in2="BackgroundImageFix" result="shape"/><feGaussianBlur result="effect1_foregroundBlur_18_10575" stdDeviation=".05"/></filter><filter id="filter9_i_18_10575" width="13.659" height="2" x="9.255" y="10" color-interpolation-filters="sRGB" filterUnits="userSpaceOnUse"><feFlood flood-opacity="0" result="BackgroundImageFix"/><feBlend in="SourceGraphic" in2="BackgroundImageFix" result="shape"/><feColorMatrix in="SourceAlpha" result="hardAlpha" values="0 0 0 0 0 0 0 0 0 0 0 0 0 0 0 0 0 0 127 0"/><feOffset dx=".25"/><feGaussianBlur stdDeviation=".2"/><feComposite in2="hardAlpha" k2="-1" k3="1" operator="arithmetic"/><feColorMatrix values="0 0 0 0 0.686275 0 0 0 0 0.278431 0 0 0 0 0.298039 0 0 0 1 0"/><feBlend in2="shape" result="effect1_innerShadow_18_10575"/></filter><radialGradient id="paint0_radial_18_10575" cx="0" cy="0" r="1" gradientTransform="matrix(-.8358 1.26362 -1.19203 -.78845 10.239 16.327)" gradientUnits="userSpaceOnUse"><stop stop-color="#3E355C"/><stop offset="1" stop-color="#36284C"/></radialGradient><radialGradient id="paint3_radial_18_10575" cx="0" cy="0" r="1" gradientTransform="rotate(123.319 8.477 15.11) scale(1.51217 1.42301)" gradientUnits="userSpaceOnUse"><stop stop-color="#3E355C"/><stop offset="1" stop-color="#36284C"/></radialGradient><radialGradient id="paint8_radial_18_10575" cx="0" cy="0" r="1" gradientTransform="matrix(-.61719 .92187 -.5005 -.33509 14.177 25.946)" gradientUnits="userSpaceOnUse"><stop offset=".31" stop-color="#694A84"/><stop offset="1" stop-color="#694A84" stop-opacity="0"/></radialGradient><radialGradient id="paint20_radial_18_10575" cx="0" cy="0" r="1" gradientTransform="matrix(1.76563 -1.90625 1.93154 1.78906 9.63 22.422)" gradientUnits="userSpaceOnUse"><stop stop-color="#fff"/><stop offset="1" stop-color="#E7C9F4"/></radialGradient><radialGradient id="paint22_radial_18_10575" cx="0" cy="0" r="1" gradientTransform="matrix(1.76563 -1.90625 1.93154 1.78906 20.63 22.422)" gradientUnits="userSpaceOnUse"><stop stop-color="#fff"/><stop offset="1" stop-color="#E7C9F4"/></radialGradient><radialGradient id="paint25_radial_18_10575" cx="0" cy="0" r="1" gradientTransform="rotate(131.448 9.191 11.121) scale(3.21025 1.15153)" gradientUnits="userSpaceOnUse"><stop offset=".373" stop-color="#23AAF5"/><stop offset="1" stop-color="#23AAF5" stop-opacity="0"/></radialGradient></defs></svg>