<svg xmlns="http://www.w3.org/2000/svg" width="32" height="32" fill="none" viewBox="0 0 32 32"><path fill="#795556" d="M19.18 29.96h-6.31c-.536 0-.943-.608-.825-1.242l.514-2.757h6.933l.515 2.757c.107.634-.29 1.243-.825 1.243Z"/><path fill="url(#paint0_radial_28327_7648)" d="M19.18 29.96h-6.31c-.536 0-.943-.608-.825-1.242l.514-2.757h6.933l.515 2.757c.107.634-.29 1.243-.825 1.243Z"/><path fill="url(#paint1_radial_28327_7648)" d="M19.18 29.96h-6.31c-.536 0-.943-.608-.825-1.242l.514-2.757h6.933l.515 2.757c.107.634-.29 1.243-.825 1.243Z"/><path fill="url(#paint2_linear_28327_7648)" d="M19.18 29.96h-6.31c-.536 0-.943-.608-.825-1.242l.514-2.757h6.933l.515 2.757c.107.634-.29 1.243-.825 1.243Z"/><path fill="url(#paint3_linear_28327_7648)" d="M19.18 29.96h-6.31c-.536 0-.943-.608-.825-1.242l.514-2.757h6.933l.515 2.757c.107.634-.29 1.243-.825 1.243Z"/><path fill="url(#paint4_linear_28327_7648)" d="M19.18 29.96h-6.31c-.536 0-.943-.608-.825-1.242l.514-2.757h6.933l.515 2.757c.107.634-.29 1.243-.825 1.243Z"/><path fill="url(#paint5_linear_28327_7648)" d="M19.18 29.96h-6.31c-.536 0-.943-.608-.825-1.242l.514-2.757h6.933l.515 2.757c.107.634-.29 1.243-.825 1.243Z"/><g filter="url(#filter0_i_28327_7648)"><path fill="url(#paint6_radial_28327_7648)" d="M12.378 19.258h7.29c2.09 0 2.937.303 4.035 1.468.68.81 1.344 1.68 1.266 3.282-.094 1.921-1.203 2.89-3.5 2.89H10.578c-2.297 0-3.406-.969-3.5-2.89-.078-1.601.586-2.472 1.266-3.282 1.098-1.165 1.945-1.468 4.034-1.468Z"/><path fill="url(#paint7_radial_28327_7648)" d="M12.378 19.258h7.29c2.09 0 2.937.303 4.035 1.468.68.81 1.344 1.68 1.266 3.282-.094 1.921-1.203 2.89-3.5 2.89H10.578c-2.297 0-3.406-.969-3.5-2.89-.078-1.601.586-2.472 1.266-3.282 1.098-1.165 1.945-1.468 4.034-1.468Z"/><path fill="url(#paint8_radial_28327_7648)" d="M12.378 19.258h7.29c2.09 0 2.937.303 4.035 1.468.68.81 1.344 1.68 1.266 3.282-.094 1.921-1.203 2.89-3.5 2.89H10.578c-2.297 0-3.406-.969-3.5-2.89-.078-1.601.586-2.472 1.266-3.282 1.098-1.165 1.945-1.468 4.034-1.468Z"/><path fill="url(#paint9_linear_28327_7648)" d="M12.378 19.258h7.29c2.09 0 2.937.303 4.035 1.468.68.81 1.344 1.68 1.266 3.282-.094 1.921-1.203 2.89-3.5 2.89H10.578c-2.297 0-3.406-.969-3.5-2.89-.078-1.601.586-2.472 1.266-3.282 1.098-1.165 1.945-1.468 4.034-1.468Z"/></g><path fill="url(#paint10_radial_28327_7648)" d="M12.378 19.258h7.29c2.09 0 2.937.303 4.035 1.468.68.81 1.344 1.68 1.266 3.282-.094 1.921-1.203 2.89-3.5 2.89H10.578c-2.297 0-3.406-.969-3.5-2.89-.078-1.601.586-2.472 1.266-3.282 1.098-1.165 1.945-1.468 4.034-1.468Z"/><path fill="url(#paint11_radial_28327_7648)" d="M13.65 13.804c-.996 0-1.85.348-2.564 1.18l-.084.11c-.421.545-.876 1.136-1.041 2.183-.07 1.332.583 1.98 1.687 1.98h8.72c1.104 0 1.757-.648 1.687-1.98-.165-1.047-.62-1.638-1.041-2.184a23.121 23.121 0 0 1-.084-.109c-.715-.832-1.568-1.18-2.564-1.18H13.65Z"/><path fill="url(#paint12_linear_28327_7648)" d="M13.65 13.804c-.996 0-1.85.348-2.564 1.18l-.084.11c-.421.545-.876 1.136-1.041 2.183-.07 1.332.583 1.98 1.687 1.98h8.72c1.104 0 1.757-.648 1.687-1.98-.165-1.047-.62-1.638-1.041-2.184a23.121 23.121 0 0 1-.084-.109c-.715-.832-1.568-1.18-2.564-1.18H13.65Z"/><path fill="url(#paint13_radial_28327_7648)" d="M13.65 13.804c-.996 0-1.85.348-2.564 1.18l-.084.11c-.421.545-.876 1.136-1.041 2.183-.07 1.332.583 1.98 1.687 1.98h8.72c1.104 0 1.757-.648 1.687-1.98-.165-1.047-.62-1.638-1.041-2.184a23.121 23.121 0 0 1-.084-.109c-.715-.832-1.568-1.18-2.564-1.18H13.65Z"/><path fill="url(#paint14_radial_28327_7648)" d="M13.65 13.804c-.996 0-1.85.348-2.564 1.18l-.084.11c-.421.545-.876 1.136-1.041 2.183-.07 1.332.583 1.98 1.687 1.98h8.72c1.104 0 1.757-.648 1.687-1.98-.165-1.047-.62-1.638-1.041-2.184a23.121 23.121 0 0 1-.084-.109c-.715-.832-1.568-1.18-2.564-1.18H13.65Z"/><path fill="url(#paint15_radial_28327_7648)" d="M13.65 13.804c-.996 0-1.85.348-2.564 1.18l-.084.11c-.421.545-.876 1.136-1.041 2.183-.07 1.332.583 1.98 1.687 1.98h8.72c1.104 0 1.757-.648 1.687-1.98-.165-1.047-.62-1.638-1.041-2.184a23.121 23.121 0 0 1-.084-.109c-.715-.832-1.568-1.18-2.564-1.18H13.65Z"/><path fill="url(#paint16_radial_28327_7648)" d="M13.65 13.804c-.996 0-1.85.348-2.564 1.18l-.084.11c-.421.545-.876 1.136-1.041 2.183-.07 1.332.583 1.98 1.687 1.98h8.72c1.104 0 1.757-.648 1.687-1.98-.165-1.047-.62-1.638-1.041-2.184a23.121 23.121 0 0 1-.084-.109c-.715-.832-1.568-1.18-2.564-1.18H13.65Z"/><path fill="url(#paint17_radial_28327_7648)" d="M13.65 13.804c-.996 0-1.85.348-2.564 1.18l-.084.11c-.421.545-.876 1.136-1.041 2.183-.07 1.332.583 1.98 1.687 1.98h8.72c1.104 0 1.757-.648 1.687-1.98-.165-1.047-.62-1.638-1.041-2.184a23.121 23.121 0 0 1-.084-.109c-.715-.832-1.568-1.18-2.564-1.18H13.65Z"/><path fill="url(#paint18_linear_28327_7648)" d="M14.708 7.169a1.5 1.5 0 0 1 2.63 0l2.586 4.71a1.3 1.3 0 0 1-1.14 1.926h-5.522a1.3 1.3 0 0 1-1.14-1.926l2.586-4.71Z"/><path fill="url(#paint19_radial_28327_7648)" d="M14.708 7.169a1.5 1.5 0 0 1 2.63 0l2.586 4.71a1.3 1.3 0 0 1-1.14 1.926h-5.522a1.3 1.3 0 0 1-1.14-1.926l2.586-4.71Z"/><path fill="url(#paint20_radial_28327_7648)" d="M14.708 7.169a1.5 1.5 0 0 1 2.63 0l2.586 4.71a1.3 1.3 0 0 1-1.14 1.926h-5.522a1.3 1.3 0 0 1-1.14-1.926l2.586-4.71Z"/><path fill="url(#paint21_linear_28327_7648)" d="M14.708 7.169a1.5 1.5 0 0 1 2.63 0l2.586 4.71a1.3 1.3 0 0 1-1.14 1.926h-5.522a1.3 1.3 0 0 1-1.14-1.926l2.586-4.71Z"/><path fill="url(#paint22_radial_28327_7648)" d="M14.708 7.169a1.5 1.5 0 0 1 2.63 0l2.586 4.71a1.3 1.3 0 0 1-1.14 1.926h-5.522a1.3 1.3 0 0 1-1.14-1.926l2.586-4.71Z"/><path fill="url(#paint23_radial_28327_7648)" d="M14.708 7.169a1.5 1.5 0 0 1 2.63 0l2.586 4.71a1.3 1.3 0 0 1-1.14 1.926h-5.522a1.3 1.3 0 0 1-1.14-1.926l2.586-4.71Z"/><path fill="url(#paint24_linear_28327_7648)" d="M14.708 7.169a1.5 1.5 0 0 1 2.63 0l2.586 4.71a1.3 1.3 0 0 1-1.14 1.926h-5.522a1.3 1.3 0 0 1-1.14-1.926l2.586-4.71Z"/><g filter="url(#filter1_f_28327_7648)"><ellipse cx="18.424" cy="23.078" fill="url(#paint25_radial_28327_7648)" rx="5.597" ry="2.594"/><ellipse cx="18.424" cy="23.078" fill="url(#paint26_radial_28327_7648)" rx="5.597" ry="2.594"/></g><g filter="url(#filter2_f_28327_7648)"><ellipse cx="16.772" cy="16.531" fill="url(#paint27_radial_28327_7648)" rx="4.436" ry="1.586"/><ellipse cx="16.772" cy="16.531" fill="url(#paint28_radial_28327_7648)" rx="4.436" ry="1.586"/></g><g filter="url(#filter3_f_28327_7648)"><path fill="url(#paint29_linear_28327_7648)" d="M15.11 12.283c.69-.313 2.513-.735 4.273.078-.758.245-2.673.572-4.274-.078Z"/></g><g filter="url(#filter4_f_28327_7648)"><path fill="url(#paint30_linear_28327_7648)" d="M16.6 6.871v5.674h3.152L16.6 6.87Z"/></g><defs><radialGradient id="paint0_radial_28327_7648" cx="0" cy="0" r="1" gradientTransform="rotate(70.328 -9.8 25.224) scale(3.03988 1.95488)" gradientUnits="userSpaceOnUse"><stop offset=".34" stop-color="#5F2F2E"/><stop offset="1" stop-color="#5F2F2E" stop-opacity="0"/></radialGradient><radialGradient id="paint1_radial_28327_7648" cx="0" cy="0" r="1" gradientTransform="rotate(102.416 -2.632 18.885) scale(5.35131 2.99668)" gradientUnits="userSpaceOnUse"><stop offset=".481" stop-color="#5F2F2E"/><stop offset=".967" stop-color="#5F2F2E" stop-opacity="0"/></radialGradient><radialGradient id="paint6_radial_28327_7648" cx="0" cy="0" r="1" gradientTransform="matrix(-16.4585 0 0 -9.1748 24.294 23.078)" gradientUnits="userSpaceOnUse"><stop stop-color="#80C156"/><stop offset="1" stop-color="#52915C"/></radialGradient><radialGradient id="paint7_radial_28327_7648" cx="0" cy="0" r="1" gradientTransform="matrix(0 5.01113 -22.6983 0 16.023 18.067)" gradientUnits="userSpaceOnUse"><stop stop-color="#57A22C"/><stop offset="1" stop-color="#57A22C" stop-opacity="0"/></radialGradient><radialGradient id="paint8_radial_28327_7648" cx="0" cy="0" r="1" gradientTransform="matrix(10.0406 0 0 1.58933 10.317 26.898)" gradientUnits="userSpaceOnUse"><stop stop-color="#7F779B"/><stop offset="1" stop-color="#7F779B" stop-opacity="0"/></radialGradient><radialGradient id="paint10_radial_28327_7648" cx="0" cy="0" r="1" gradientTransform="rotate(173.698 7.753 9.904) scale(9.53308 2.17183)" gradientUnits="userSpaceOnUse"><stop stop-color="#105B0D"/><stop offset="1" stop-color="#105B0D" stop-opacity="0"/></radialGradient><radialGradient id="paint11_radial_28327_7648" cx="0" cy="0" r="1" gradientTransform="matrix(-11.1275 0 0 -6.54807 21.6 16.531)" gradientUnits="userSpaceOnUse"><stop stop-color="#80C156"/><stop offset="1" stop-color="#52915C"/></radialGradient><radialGradient id="paint13_radial_28327_7648" cx="0" cy="0" r="1" gradientTransform="matrix(0 3.57645 -15.3461 0 16.008 12.955)" gradientUnits="userSpaceOnUse"><stop stop-color="#57A22C"/><stop offset="1" stop-color="#57A22C" stop-opacity="0"/></radialGradient><radialGradient id="paint14_radial_28327_7648" cx="0" cy="0" r="1" gradientTransform="matrix(0 -1.80124 9.00368 0 16.008 19.646)" gradientUnits="userSpaceOnUse"><stop stop-color="#479820"/><stop offset="1" stop-color="#479820" stop-opacity="0"/></radialGradient><radialGradient id="paint15_radial_28327_7648" cx="0" cy="0" r="1" gradientTransform="matrix(0 -.84375 7.43741 0 16.008 19.398)" gradientUnits="userSpaceOnUse"><stop stop-color="#15600B"/><stop offset="1" stop-color="#15600B" stop-opacity="0"/></radialGradient><radialGradient id="paint16_radial_28327_7648" cx="0" cy="0" r="1" gradientTransform="rotate(-164.816 12.329 8.276) scale(12.5421 6.6444)" gradientUnits="userSpaceOnUse"><stop offset=".871" stop-color="#75947D" stop-opacity="0"/><stop offset="1" stop-color="#75947D"/></radialGradient><radialGradient id="paint17_radial_28327_7648" cx="0" cy="0" r="1" gradientTransform="matrix(0 1.07813 -7.3989 0 15.07 13.273)" gradientUnits="userSpaceOnUse"><stop stop-color="#15600B"/><stop offset="1" stop-color="#15600B" stop-opacity="0"/></radialGradient><radialGradient id="paint19_radial_28327_7648" cx="0" cy="0" r="1" gradientTransform="matrix(0 -1.8125 8.0625 0 16.023 14.117)" gradientUnits="userSpaceOnUse"><stop stop-color="#3B9017"/><stop offset="1" stop-color="#3B9017" stop-opacity="0"/></radialGradient><radialGradient id="paint20_radial_28327_7648" cx="0" cy="0" r="1" gradientTransform="matrix(3.89304 -.78575 .934 4.62756 11.516 13.425)" gradientUnits="userSpaceOnUse"><stop stop-color="#608371"/><stop offset="1" stop-color="#608371" stop-opacity="0"/></radialGradient><radialGradient id="paint22_radial_28327_7648" cx="0" cy="0" r="1" gradientTransform="matrix(.86717 -.95535 1.85992 1.68825 12.4 14.256)" gradientUnits="userSpaceOnUse"><stop stop-color="#637374"/><stop offset="1" stop-color="#637374" stop-opacity="0"/></radialGradient><radialGradient id="paint23_radial_28327_7648" cx="0" cy="0" r="1" gradientTransform="matrix(4.37193 -.38214 .0865 .98966 11.651 14.315)" gradientUnits="userSpaceOnUse"><stop stop-color="#15600B"/><stop offset="1" stop-color="#15600B" stop-opacity="0"/></radialGradient><radialGradient id="paint25_radial_28327_7648" cx="0" cy="0" r="1" gradientTransform="matrix(-9.74151 0 0 -1.76903 24.489 23.078)" gradientUnits="userSpaceOnUse"><stop stop-color="#A2E070"/><stop offset="1" stop-color="#A2E070" stop-opacity="0"/></radialGradient><radialGradient id="paint26_radial_28327_7648" cx="0" cy="0" r="1" gradientTransform="matrix(13.1471 0 0 4.03716 10.71 23.078)" gradientUnits="userSpaceOnUse"><stop offset=".882" stop-color="#9FDF6B" stop-opacity="0"/><stop offset="1" stop-color="#9FDF6B"/></radialGradient><radialGradient id="paint27_radial_28327_7648" cx="0" cy="0" r="1" gradientTransform="matrix(-7.72205 0 0 -1.08151 21.58 16.531)" gradientUnits="userSpaceOnUse"><stop stop-color="#A2E070"/><stop offset="1" stop-color="#A2E070" stop-opacity="0"/></radialGradient><radialGradient id="paint28_radial_28327_7648" cx="0" cy="0" r="1" gradientTransform="matrix(10.4217 0 0 2.46816 10.657 16.531)" gradientUnits="userSpaceOnUse"><stop offset=".882" stop-color="#9FDF6B" stop-opacity="0"/><stop offset="1" stop-color="#9FDF6B"/></radialGradient><linearGradient id="paint2_linear_28327_7648" x1="16.023" x2="15.875" y1="30.076" y2="28.858" gradientUnits="userSpaceOnUse"><stop stop-color="#7B4064"/><stop offset="1" stop-color="#7B4064" stop-opacity="0"/></linearGradient><linearGradient id="paint3_linear_28327_7648" x1="11.56" x2="12.983" y1="27.798" y2="27.961" gradientUnits="userSpaceOnUse"><stop stop-color="#826C6A"/><stop offset="1" stop-color="#826C6A" stop-opacity="0"/></linearGradient><linearGradient id="paint4_linear_28327_7648" x1="20.179" x2="19.282" y1="27.603" y2="27.961" gradientUnits="userSpaceOnUse"><stop stop-color="#826C6A"/><stop offset="1" stop-color="#826C6A" stop-opacity="0"/></linearGradient><linearGradient id="paint5_linear_28327_7648" x1="16.023" x2="16.023" y1="29.722" y2="30.024" gradientUnits="userSpaceOnUse"><stop stop-color="#8F5790" stop-opacity="0"/><stop offset="1" stop-color="#8F5790"/></linearGradient><linearGradient id="paint9_linear_28327_7648" x1="17.114" x2="17.114" y1="27.175" y2="26.434" gradientUnits="userSpaceOnUse"><stop stop-color="#7F779B"/><stop offset="1" stop-color="#7F779B" stop-opacity="0"/></linearGradient><linearGradient id="paint12_linear_28327_7648" x1="11.094" x2="17.019" y1="16.531" y2="16.531" gradientUnits="userSpaceOnUse"><stop stop-color="#529257"/><stop offset="1" stop-color="#529257" stop-opacity="0"/></linearGradient><linearGradient id="paint18_linear_28327_7648" x1="14.648" x2="19.398" y1="11.049" y2="11.049" gradientUnits="userSpaceOnUse"><stop stop-color="#5A9D57"/><stop offset="1" stop-color="#7FC43A"/></linearGradient><linearGradient id="paint21_linear_28327_7648" x1="11.96" x2="13.606" y1="10.098" y2="10.714" gradientUnits="userSpaceOnUse"><stop stop-color="#608371"/><stop offset="1" stop-color="#608371" stop-opacity="0"/></linearGradient><linearGradient id="paint24_linear_28327_7648" x1="16.023" x2="16.023" y1="6.39" y2="7.574" gradientUnits="userSpaceOnUse"><stop stop-color="#639E52"/><stop offset="1" stop-color="#70A960" stop-opacity="0"/></linearGradient><linearGradient id="paint29_linear_28327_7648" x1="18.663" x2="15.326" y1="12.277" y2="12.277" gradientUnits="userSpaceOnUse"><stop stop-color="#9DD573"/><stop offset="1" stop-color="#9DD573" stop-opacity="0"/></linearGradient><linearGradient id="paint30_linear_28327_7648" x1="18.553" x2="16.61" y1="9.842" y2="10.362" gradientUnits="userSpaceOnUse"><stop stop-color="#9AD869"/><stop offset="1" stop-color="#9AD869" stop-opacity="0"/></linearGradient><filter id="filter0_i_28327_7648" width="18.153" height="7.641" x="7.072" y="19.258" color-interpolation-filters="sRGB" filterUnits="userSpaceOnUse"><feFlood flood-opacity="0" result="BackgroundImageFix"/><feBlend in="SourceGraphic" in2="BackgroundImageFix" result="shape"/><feColorMatrix in="SourceAlpha" result="hardAlpha" values="0 0 0 0 0 0 0 0 0 0 0 0 0 0 0 0 0 0 127 0"/><feOffset dx=".25"/><feGaussianBlur stdDeviation=".375"/><feComposite in2="hardAlpha" k2="-1" k3="1" operator="arithmetic"/><feColorMatrix values="0 0 0 0 0.486275 0 0 0 0 0.6 0 0 0 0 0.513726 0 0 0 1 0"/><feBlend in2="shape" result="effect1_innerShadow_28327_7648"/></filter><filter id="filter1_f_28327_7648" width="15.193" height="9.188" x="10.827" y="18.484" color-interpolation-filters="sRGB" filterUnits="userSpaceOnUse"><feFlood flood-opacity="0" result="BackgroundImageFix"/><feBlend in="SourceGraphic" in2="BackgroundImageFix" result="shape"/><feGaussianBlur result="effect1_foregroundBlur_28327_7648" stdDeviation="1"/></filter><filter id="filter2_f_28327_7648" width="12.873" height="7.172" x="10.335" y="12.945" color-interpolation-filters="sRGB" filterUnits="userSpaceOnUse"><feFlood flood-opacity="0" result="BackgroundImageFix"/><feBlend in="SourceGraphic" in2="BackgroundImageFix" result="shape"/><feGaussianBlur result="effect1_foregroundBlur_28327_7648" stdDeviation="1"/></filter><filter id="filter3_f_28327_7648" width="6.273" height="2.773" x="14.109" y="10.891" color-interpolation-filters="sRGB" filterUnits="userSpaceOnUse"><feFlood flood-opacity="0" result="BackgroundImageFix"/><feBlend in="SourceGraphic" in2="BackgroundImageFix" result="shape"/><feGaussianBlur result="effect1_foregroundBlur_28327_7648" stdDeviation=".5"/></filter><filter id="filter4_f_28327_7648" width="5.153" height="7.673" x="15.6" y="5.871" color-interpolation-filters="sRGB" filterUnits="userSpaceOnUse"><feFlood flood-opacity="0" result="BackgroundImageFix"/><feBlend in="SourceGraphic" in2="BackgroundImageFix" result="shape"/><feGaussianBlur result="effect1_foregroundBlur_28327_7648" stdDeviation=".5"/></filter></defs></svg>