<svg xmlns="http://www.w3.org/2000/svg" width="32" height="32" fill="none" viewBox="0 0 32 32"><path fill="url(#paint0_linear_18_22011)" d="M13.186 23.93h4.65v4.957h-4.65V23.93Z"/><path fill="url(#paint1_linear_18_22011)" d="M13.186 23.93h4.65v4.957h-4.65V23.93Z"/><path fill="url(#paint2_radial_18_22011)" d="M13.186 23.93h4.65v4.957h-4.65V23.93Z"/><g filter="url(#filter0_i_18_22011)"><path fill="url(#paint3_linear_18_22011)" d="M4.044 13.548a5.5 5.5 0 0 1 5.5-5.5h12.912a5.5 5.5 0 0 1 5.5 5.5v9.383a1 1 0 0 1-1 1H5.044a1 1 0 0 1-1-1v-9.383Z"/></g><g filter="url(#filter1_f_18_22011)"><path fill="url(#paint4_linear_18_22011)" d="M5.303 23.438h7.65a.927.927 0 0 0 .919-.936v-8.779c0-2.736-2.019-5.136-4.744-5.136-2.572-.163-4.744 1.915-4.744 5.136v8.779c0 .517.412.936.92.936Z"/><path stroke="url(#paint5_linear_18_22011)" stroke-width=".25" d="M5.303 23.563h7.65c.578 0 1.044-.477 1.044-1.061v-8.779c0-2.79-2.06-5.259-4.865-5.26-2.654-.167-4.873 1.982-4.873 5.26v8.779c0 .584.465 1.06 1.044 1.06Z"/></g><g filter="url(#filter2_i_18_22011)"><rect width="5.705" height="1.931" x="6.629" y="19.014" fill="url(#paint6_linear_18_22011)" rx=".966"/></g><g filter="url(#filter3_f_18_22011)"><rect width="4.484" height=".364" x="7.114" y="20.074" fill="url(#paint7_linear_18_22011)" rx=".182"/></g><g filter="url(#filter4_i_18_22011)"><path fill="url(#paint8_linear_18_22011)" d="M28.688 13.746v5.38c0 .441-.31.8-.694.8h-2.703c-.383 0-.694-.359-.694-.8v-5.38h4.09Z"/></g><g filter="url(#filter5_f_18_22011)"><path fill="#4B81D5" d="M23.84 13.746v5.38c0 .441-.31.8-.693.8h-2.704c-.383 0-.693-.359-.693-.8v-5.38h4.09Z"/></g><path fill="url(#paint9_linear_18_22011)" d="M28.62 12.237a1.149 1.149 0 0 1 0 2.298h-9.616v-2.298h9.617Z"/><path fill="url(#paint10_linear_18_22011)" d="M28.62 12.237a1.149 1.149 0 0 1 0 2.298h-9.616v-2.298h9.617Z"/><path fill="url(#paint11_radial_18_22011)" d="M28.62 12.237a1.149 1.149 0 0 1 0 2.298h-9.616v-2.298h9.617Z"/><g filter="url(#filter6_f_18_22011)"><rect width="8.516" height=".319" x="19.75" y="13.148" fill="#AEA4BF" rx=".159"/></g><g filter="url(#filter7_f_18_22011)"><ellipse cx="16.438" cy="13.917" fill="#264FC5" rx="1.572" ry="2.406"/></g><circle cx="17.918" cy="13.386" r="2.406" fill="url(#paint12_radial_18_22011)"/><circle cx="17.918" cy="13.386" r="2.406" fill="url(#paint13_radial_18_22011)"/><circle cx="17.918" cy="13.386" r="2.406" fill="url(#paint14_radial_18_22011)"/><defs><linearGradient id="paint0_linear_18_22011" x1="16.822" x2="13.186" y1="28.887" y2="28.887" gradientUnits="userSpaceOnUse"><stop stop-color="#8F616C"/><stop offset=".42" stop-color="#7D4261"/><stop offset=".774" stop-color="#5E3A43"/></linearGradient><linearGradient id="paint1_linear_18_22011" x1="18.103" x2="17.353" y1="28.887" y2="28.887" gradientUnits="userSpaceOnUse"><stop stop-color="#855A5D"/><stop offset="1" stop-color="#855A5D" stop-opacity="0"/></linearGradient><linearGradient id="paint3_linear_18_22011" x1="20.525" x2="20.525" y1="23.931" y2="10.25" gradientUnits="userSpaceOnUse"><stop offset=".743" stop-color="#5097DA"/><stop offset="1" stop-color="#5D98DA"/></linearGradient><linearGradient id="paint4_linear_18_22011" x1="9.128" x2="9.128" y1="8.587" y2="23.438" gradientUnits="userSpaceOnUse"><stop stop-color="#5689D3"/><stop offset="1" stop-color="#5686D8"/></linearGradient><linearGradient id="paint5_linear_18_22011" x1="15.094" x2="8.469" y1="18.651" y2="18.651" gradientUnits="userSpaceOnUse"><stop offset=".222" stop-color="#3B7BDE"/><stop offset="1" stop-color="#3C84D5" stop-opacity="0"/></linearGradient><linearGradient id="paint6_linear_18_22011" x1="9.481" x2="9.481" y1="19.014" y2="20.945" gradientUnits="userSpaceOnUse"><stop stop-color="#3B6BF1"/><stop offset="1" stop-color="#1872E0"/></linearGradient><linearGradient id="paint7_linear_18_22011" x1="7.114" x2="10.915" y1="20.256" y2="20.256" gradientUnits="userSpaceOnUse"><stop stop-color="#568FF7"/><stop offset="1" stop-color="#568FF7" stop-opacity="0"/></linearGradient><linearGradient id="paint8_linear_18_22011" x1="28.688" x2="27" y1="16.835" y2="16.835" gradientUnits="userSpaceOnUse"><stop stop-color="#FF8E4E"/><stop offset="1" stop-color="#F96941"/></linearGradient><linearGradient id="paint9_linear_18_22011" x1="25.438" x2="25.438" y1="14.535" y2="12.938" gradientUnits="userSpaceOnUse"><stop stop-color="#926BC9"/><stop offset="1" stop-color="#A6A4AF"/></linearGradient><linearGradient id="paint10_linear_18_22011" x1="29.769" x2="28.625" y1="13.386" y2="13.386" gradientUnits="userSpaceOnUse"><stop stop-color="#BAB9BF"/><stop offset="1" stop-color="#BAB9BF" stop-opacity="0"/></linearGradient><filter id="filter0_i_18_22011" width="23.913" height="16.283" x="4.044" y="7.648" color-interpolation-filters="sRGB" filterUnits="userSpaceOnUse"><feFlood flood-opacity="0" result="BackgroundImageFix"/><feBlend in="SourceGraphic" in2="BackgroundImageFix" result="shape"/><feColorMatrix in="SourceAlpha" result="hardAlpha" values="0 0 0 0 0 0 0 0 0 0 0 0 0 0 0 0 0 0 127 0"/><feOffset dy="-.4"/><feGaussianBlur stdDeviation=".375"/><feComposite in2="hardAlpha" k2="-1" k3="1" operator="arithmetic"/><feColorMatrix values="0 0 0 0 0.262745 0 0 0 0 0.356863 0 0 0 0 1 0 0 0 1 0"/><feBlend in2="shape" result="effect1_innerShadow_18_22011"/></filter><filter id="filter1_f_18_22011" width="10.987" height="16.36" x="3.634" y="7.828" color-interpolation-filters="sRGB" filterUnits="userSpaceOnUse"><feFlood flood-opacity="0" result="BackgroundImageFix"/><feBlend in="SourceGraphic" in2="BackgroundImageFix" result="shape"/><feGaussianBlur result="effect1_foregroundBlur_18_22011" stdDeviation=".25"/></filter><filter id="filter2_i_18_22011" width="6.205" height="2.431" x="6.129" y="19.014" color-interpolation-filters="sRGB" filterUnits="userSpaceOnUse"><feFlood flood-opacity="0" result="BackgroundImageFix"/><feBlend in="SourceGraphic" in2="BackgroundImageFix" result="shape"/><feColorMatrix in="SourceAlpha" result="hardAlpha" values="0 0 0 0 0 0 0 0 0 0 0 0 0 0 0 0 0 0 127 0"/><feOffset dx="-.5" dy=".5"/><feGaussianBlur stdDeviation=".375"/><feComposite in2="hardAlpha" k2="-1" k3="1" operator="arithmetic"/><feColorMatrix values="0 0 0 0 0.117647 0 0 0 0 0.321569 0 0 0 0 0.823529 0 0 0 1 0"/><feBlend in2="shape" result="effect1_innerShadow_18_22011"/></filter><filter id="filter3_f_18_22011" width="5.484" height="1.364" x="6.614" y="19.574" color-interpolation-filters="sRGB" filterUnits="userSpaceOnUse"><feFlood flood-opacity="0" result="BackgroundImageFix"/><feBlend in="SourceGraphic" in2="BackgroundImageFix" result="shape"/><feGaussianBlur result="effect1_foregroundBlur_18_22011" stdDeviation=".25"/></filter><filter id="filter4_i_18_22011" width="4.49" height="6.43" x="24.598" y="13.496" color-interpolation-filters="sRGB" filterUnits="userSpaceOnUse"><feFlood flood-opacity="0" result="BackgroundImageFix"/><feBlend in="SourceGraphic" in2="BackgroundImageFix" result="shape"/><feColorMatrix in="SourceAlpha" result="hardAlpha" values="0 0 0 0 0 0 0 0 0 0 0 0 0 0 0 0 0 0 127 0"/><feOffset dx=".4" dy="-.25"/><feGaussianBlur stdDeviation=".5"/><feComposite in2="hardAlpha" k2="-1" k3="1" operator="arithmetic"/><feColorMatrix values="0 0 0 0 0.858824 0 0 0 0 0.203922 0 0 0 0 0.2 0 0 0 1 0"/><feBlend in2="shape" result="effect1_innerShadow_18_22011"/></filter><filter id="filter5_f_18_22011" width="10.09" height="12.18" x="16.75" y="10.746" color-interpolation-filters="sRGB" filterUnits="userSpaceOnUse"><feFlood flood-opacity="0" result="BackgroundImageFix"/><feBlend in="SourceGraphic" in2="BackgroundImageFix" result="shape"/><feGaussianBlur result="effect1_foregroundBlur_18_22011" stdDeviation="1.5"/></filter><filter id="filter6_f_18_22011" width="9.516" height="1.319" x="19.25" y="12.648" color-interpolation-filters="sRGB" filterUnits="userSpaceOnUse"><feFlood flood-opacity="0" result="BackgroundImageFix"/><feBlend in="SourceGraphic" in2="BackgroundImageFix" result="shape"/><feGaussianBlur result="effect1_foregroundBlur_18_22011" stdDeviation=".25"/></filter><filter id="filter7_f_18_22011" width="5.645" height="7.313" x="13.615" y="10.261" color-interpolation-filters="sRGB" filterUnits="userSpaceOnUse"><feFlood flood-opacity="0" result="BackgroundImageFix"/><feBlend in="SourceGraphic" in2="BackgroundImageFix" result="shape"/><feGaussianBlur result="effect1_foregroundBlur_18_22011" stdDeviation=".625"/></filter><radialGradient id="paint2_radial_18_22011" cx="0" cy="0" r="1" gradientTransform="matrix(0 -4.95639 5.62268 0 15.511 28.887)" gradientUnits="userSpaceOnUse"><stop offset=".772" stop-color="#632F53" stop-opacity="0"/><stop offset="1" stop-color="#5A3A46"/></radialGradient><radialGradient id="paint11_radial_18_22011" cx="0" cy="0" r="1" gradientTransform="matrix(.9375 0 0 .50781 29.625 13.031)" gradientUnits="userSpaceOnUse"><stop stop-color="#CFCBD8"/><stop offset="1" stop-color="#CFCBD8" stop-opacity="0"/></radialGradient><radialGradient id="paint12_radial_18_22011" cx="0" cy="0" r="1" gradientTransform="rotate(-70.371 19.793 -4.293) scale(3.62801 4.37707)" gradientUnits="userSpaceOnUse"><stop stop-color="#9571C7"/><stop offset="1" stop-color="#B0B0B7"/></radialGradient><radialGradient id="paint13_radial_18_22011" cx="0" cy="0" r="1" gradientTransform="rotate(180 9.547 6.693) scale(3.58221)" gradientUnits="userSpaceOnUse"><stop offset=".646" stop-color="#948DA4" stop-opacity="0"/><stop offset="1" stop-color="#636697"/></radialGradient><radialGradient id="paint14_radial_18_22011" cx="0" cy="0" r="1" gradientTransform="matrix(2.04688 -.875 .6589 1.54133 19.172 12.469)" gradientUnits="userSpaceOnUse"><stop offset=".247" stop-color="#D0CCDA"/><stop offset="1" stop-color="#B6B6BD" stop-opacity="0"/></radialGradient></defs></svg>