<svg xmlns="http://www.w3.org/2000/svg" width="32" height="32" fill="none" viewBox="0 0 32 32"><path fill="url(#paint0_radial_5559_20883)" d="M15.892 30.338c-.485 0-.885-.03-1.232-.122a.238.238 0 0 1-.174-.233v-2.785c.01-.894.028-2.42 1.734-3.366 1.393-.772 3.25-1.354 5.688-1.373h.125c2.438.019 4.294.6 5.687 1.373 1.706.946 1.724 2.472 1.734 3.366v2.785a.24.24 0 0 1-.174.233c-.347.091-.752.122-1.232.122H15.892Z"/><path fill="url(#paint1_radial_5559_20883)" d="M15.892 30.338c-.485 0-.885-.03-1.232-.122a.238.238 0 0 1-.174-.233v-2.785c.01-.894.028-2.42 1.734-3.366 1.393-.772 3.25-1.354 5.688-1.373h.125c2.438.019 4.294.6 5.687 1.373 1.706.946 1.724 2.472 1.734 3.366v2.785a.24.24 0 0 1-.174.233c-.347.091-.752.122-1.232.122H15.892Z"/><path fill="url(#paint2_radial_5559_20883)" d="M15.892 30.338c-.485 0-.885-.03-1.232-.122a.238.238 0 0 1-.174-.233v-2.785c.01-.894.028-2.42 1.734-3.366 1.393-.772 3.25-1.354 5.688-1.373h.125c2.438.019 4.294.6 5.687 1.373 1.706.946 1.724 2.472 1.734 3.366v2.785a.24.24 0 0 1-.174.233c-.347.091-.752.122-1.232.122H15.892Z"/><circle cx="17.23" cy="16.407" r="1.7" fill="url(#paint3_radial_5559_20883)"/><circle cx="26.71" cy="16.407" r="1.7" fill="url(#paint4_radial_5559_20883)"/><g filter="url(#filter0_f_5559_20883)"><circle cx="26.71" cy="16.407" r="1.214" fill="url(#paint5_radial_5559_20883)"/></g><g filter="url(#filter1_f_5559_20883)"><circle cx="17.369" cy="16.407" r="1.214" fill="#140F1A"/></g><path fill="url(#paint6_radial_5559_20883)" d="m17.011 19.232-.286-6.227c-.145-2.24 1.36-4.234 4.334-4.137h1.882c3.156 0 4.412 1.988 4.273 4.225l-.283 6.13c-.128 2.047-1.878 3.581-4.015 3.642h-1.808c-2.198 0-3.964-1.59-4.097-3.633Z"/><path fill="url(#paint7_radial_5559_20883)" d="m17.011 19.232-.286-6.227c-.145-2.24 1.36-4.234 4.334-4.137h1.882c3.156 0 4.412 1.988 4.273 4.225l-.283 6.13c-.128 2.047-1.878 3.581-4.015 3.642h-1.808c-2.198 0-3.964-1.59-4.097-3.633Z"/><path fill="url(#paint8_radial_5559_20883)" d="M3.013 30.338c-.438 0-.886-.03-1.232-.122a.238.238 0 0 1-.175-.233v-2.785c.011-.894.028-2.42 1.735-3.366 1.392-.772 3.249-1.354 5.687-1.373h.125c2.439.019 4.295.6 5.688 1.373 1.706.946 1.724 2.472 1.734 3.366v2.785a.24.24 0 0 1-.174.233c-.347.091-.81.122-1.232.122H3.013Z"/><path fill="url(#paint9_radial_5559_20883)" d="M3.013 30.338c-.438 0-.886-.03-1.232-.122a.238.238 0 0 1-.175-.233v-2.785c.011-.894.028-2.42 1.735-3.366 1.392-.772 3.249-1.354 5.687-1.373h.125c2.439.019 4.295.6 5.688 1.373 1.706.946 1.724 2.472 1.734 3.366v2.785a.24.24 0 0 1-.174.233c-.347.091-.81.122-1.232.122H3.013Z"/><path fill="url(#paint10_radial_5559_20883)" d="M3.013 30.338c-.438 0-.886-.03-1.232-.122a.238.238 0 0 1-.175-.233v-2.785c.011-.894.028-2.42 1.735-3.366 1.392-.772 3.249-1.354 5.687-1.373h.125c2.439.019 4.295.6 5.688 1.373 1.706.946 1.724 2.472 1.734 3.366v2.785a.24.24 0 0 1-.174.233c-.347.091-.81.122-1.232.122H3.013Z"/><circle cx="4.35" cy="16.407" r="1.7" fill="url(#paint11_radial_5559_20883)"/><circle cx="13.831" cy="16.407" r="1.7" fill="url(#paint12_radial_5559_20883)"/><g filter="url(#filter2_f_5559_20883)"><circle cx="13.831" cy="16.407" r="1.214" fill="url(#paint13_radial_5559_20883)"/></g><g filter="url(#filter3_f_5559_20883)"><circle cx="4.49" cy="16.407" r="1.214" fill="#140F1A"/></g><path fill="url(#paint14_radial_5559_20883)" d="m4.132 19.232-.286-6.227C3.7 10.765 5.206 8.77 8.18 8.868h1.882c3.156 0 4.412 1.988 4.273 4.225l-.283 6.13c-.128 2.047-1.878 3.581-4.015 3.642H8.228c-2.197 0-3.963-1.59-4.096-3.633Z"/><path fill="url(#paint15_radial_5559_20883)" d="m4.132 19.232-.286-6.227C3.7 10.765 5.206 8.77 8.18 8.868h1.882c3.156 0 4.412 1.988 4.273 4.225l-.283 6.13c-.128 2.047-1.878 3.581-4.015 3.642H8.228c-2.197 0-3.963-1.59-4.096-3.633Z"/><defs><radialGradient id="paint0_radial_5559_20883" cx="0" cy="0" r="1" gradientTransform="matrix(-9.65625 0 0 -10.9688 28.595 29.396)" gradientUnits="userSpaceOnUse"><stop stop-color="#302B35"/><stop offset=".362" stop-color="#17111B"/></radialGradient><radialGradient id="paint1_radial_5559_20883" cx="0" cy="0" r="1" gradientTransform="matrix(-.71874 2.5625 -5.33805 -1.49724 28.782 25.177)" gradientUnits="userSpaceOnUse"><stop offset=".186" stop-color="#3D3940"/><stop offset="1" stop-color="#3D3940" stop-opacity="0"/></radialGradient><radialGradient id="paint2_radial_5559_20883" cx="0" cy="0" r="1" gradientTransform="rotate(69.291 -5.694 26.119) scale(2.7395 5.19692)" gradientUnits="userSpaceOnUse"><stop stop-color="#050208"/><stop offset="1" stop-color="#050208" stop-opacity="0"/></radialGradient><radialGradient id="paint3_radial_5559_20883" cx="0" cy="0" r="1" gradientTransform="rotate(90 .411 16.818) scale(1.6995)" gradientUnits="userSpaceOnUse"><stop offset=".521" stop-color="#1A1420"/><stop offset="1" stop-color="#120E17"/></radialGradient><radialGradient id="paint4_radial_5559_20883" cx="0" cy="0" r="1" gradientTransform="rotate(111.508 8.732 17.097) scale(3.07929)" gradientUnits="userSpaceOnUse"><stop offset=".262" stop-color="#413949"/><stop offset="1" stop-color="#190E22"/></radialGradient><radialGradient id="paint5_radial_5559_20883" cx="0" cy="0" r="1" gradientTransform="rotate(90 5.152 21.559) scale(1.21393)" gradientUnits="userSpaceOnUse"><stop stop-color="#332C3A"/><stop offset="1" stop-color="#150921"/></radialGradient><radialGradient id="paint6_radial_5559_20883" cx="0" cy="0" r="1" gradientTransform="matrix(-4.32155 12.67345 -10.07743 -3.43633 25.824 10.191)" gradientUnits="userSpaceOnUse"><stop offset=".097" stop-color="#3C2B4F"/><stop offset="1" stop-color="#0B0410"/></radialGradient><radialGradient id="paint7_radial_5559_20883" cx="0" cy="0" r="1" gradientTransform="matrix(0 1.23821 -2.88184 0 24.537 11.357)" gradientUnits="userSpaceOnUse"><stop stop-color="#493E56"/><stop offset="1" stop-color="#493E56" stop-opacity="0"/></radialGradient><radialGradient id="paint8_radial_5559_20883" cx="0" cy="0" r="1" gradientTransform="matrix(-9.65625 0 0 -10.9687 15.716 29.396)" gradientUnits="userSpaceOnUse"><stop stop-color="#302B35"/><stop offset=".362" stop-color="#17111B"/></radialGradient><radialGradient id="paint9_radial_5559_20883" cx="0" cy="0" r="1" gradientTransform="matrix(-.71874 2.5625 -5.33805 -1.49724 15.903 25.177)" gradientUnits="userSpaceOnUse"><stop offset=".186" stop-color="#3D3940"/><stop offset="1" stop-color="#3D3940" stop-opacity="0"/></radialGradient><radialGradient id="paint10_radial_5559_20883" cx="0" cy="0" r="1" gradientTransform="rotate(69.291 -12.133 16.8) scale(2.7395 5.19692)" gradientUnits="userSpaceOnUse"><stop stop-color="#050208"/><stop offset="1" stop-color="#050208" stop-opacity="0"/></radialGradient><radialGradient id="paint11_radial_5559_20883" cx="0" cy="0" r="1" gradientTransform="rotate(90 -6.028 10.379) scale(1.6995)" gradientUnits="userSpaceOnUse"><stop offset=".521" stop-color="#1A1420"/><stop offset="1" stop-color="#120E17"/></radialGradient><radialGradient id="paint12_radial_5559_20883" cx="0" cy="0" r="1" gradientTransform="rotate(111.508 2.292 12.713) scale(3.07929)" gradientUnits="userSpaceOnUse"><stop offset=".262" stop-color="#413949"/><stop offset="1" stop-color="#190E22"/></radialGradient><radialGradient id="paint13_radial_5559_20883" cx="0" cy="0" r="1" gradientTransform="rotate(90 -1.288 15.119) scale(1.21393)" gradientUnits="userSpaceOnUse"><stop stop-color="#332C3A"/><stop offset="1" stop-color="#150921"/></radialGradient><radialGradient id="paint14_radial_5559_20883" cx="0" cy="0" r="1" gradientTransform="matrix(-4.32155 12.67345 -10.07743 -3.43633 12.945 10.191)" gradientUnits="userSpaceOnUse"><stop offset=".097" stop-color="#3C2B4F"/><stop offset="1" stop-color="#0B0410"/></radialGradient><radialGradient id="paint15_radial_5559_20883" cx="0" cy="0" r="1" gradientTransform="matrix(0 1.23821 -2.88184 0 11.658 11.357)" gradientUnits="userSpaceOnUse"><stop stop-color="#493E56"/><stop offset="1" stop-color="#493E56" stop-opacity="0"/></radialGradient><filter id="filter0_f_5559_20883" width="2.928" height="2.928" x="25.247" y="14.943" color-interpolation-filters="sRGB" filterUnits="userSpaceOnUse"><feFlood flood-opacity="0" result="BackgroundImageFix"/><feBlend in="SourceGraphic" in2="BackgroundImageFix" result="shape"/><feGaussianBlur result="effect1_foregroundBlur_5559_20883" stdDeviation=".125"/></filter><filter id="filter1_f_5559_20883" width="2.928" height="2.928" x="15.905" y="14.943" color-interpolation-filters="sRGB" filterUnits="userSpaceOnUse"><feFlood flood-opacity="0" result="BackgroundImageFix"/><feBlend in="SourceGraphic" in2="BackgroundImageFix" result="shape"/><feGaussianBlur result="effect1_foregroundBlur_5559_20883" stdDeviation=".125"/></filter><filter id="filter2_f_5559_20883" width="2.928" height="2.928" x="12.367" y="14.943" color-interpolation-filters="sRGB" filterUnits="userSpaceOnUse"><feFlood flood-opacity="0" result="BackgroundImageFix"/><feBlend in="SourceGraphic" in2="BackgroundImageFix" result="shape"/><feGaussianBlur result="effect1_foregroundBlur_5559_20883" stdDeviation=".125"/></filter><filter id="filter3_f_5559_20883" width="2.928" height="2.928" x="3.026" y="14.943" color-interpolation-filters="sRGB" filterUnits="userSpaceOnUse"><feFlood flood-opacity="0" result="BackgroundImageFix"/><feBlend in="SourceGraphic" in2="BackgroundImageFix" result="shape"/><feGaussianBlur result="effect1_foregroundBlur_5559_20883" stdDeviation=".125"/></filter></defs></svg>