<svg xmlns="http://www.w3.org/2000/svg" width="32" height="32" fill="none" viewBox="0 0 32 32"><path fill="url(#paint0_radial_4002_1813)" d="M21.139 5.933h-12l.18-.36a6.549 6.549 0 0 1 11.65.03l.17.33Z"/><path fill="url(#paint1_radial_4002_1813)" d="m9.319 5.573-.18.36h12l-.17-.33c-.3-.59-.68-1.11-1.12-1.57h-9.42c-.43.45-.81.97-1.11 1.54Z"/><path fill="url(#paint2_linear_4002_1813)" d="m9.319 5.573-.18.36h12l-.17-.33c-.3-.59-.68-1.11-1.12-1.57h-9.42c-.43.45-.81.97-1.11 1.54Z"/><g filter="url(#filter0_ii_4002_1813)"><path fill="url(#paint3_radial_4002_1813)" d="M10.782 4.833c-.849.031-2.678.229-4.101 1.336-1.238.962-1.477 2.117-1.477 3.086v.476c-.093 1.782 1.446 4.93 6.883 4.93h6.264c5.437 0 6.976-3.148 6.883-4.93v-.476c0-.969-.24-2.124-1.477-3.086-1.424-1.107-3.253-1.305-4.102-1.336h-8.873Z"/></g><path fill="#45BB85" d="M15.149 15.523c-6.07 0-10.99 4.91-10.99 10.98v3.5h21.98v-3.5c0-6.07-4.92-10.98-10.99-10.98Z"/><path fill="url(#paint4_radial_4002_1813)" d="M15.149 15.523c-6.07 0-10.99 4.91-10.99 10.98v3.5h21.98v-3.5c0-6.07-4.92-10.98-10.99-10.98Z"/><path fill="url(#paint5_linear_4002_1813)" d="M8.159 30.003v-11.97h-.006a10.951 10.951 0 0 0-3.994 8.47v3.5h4Z"/><path fill="url(#paint6_radial_4002_1813)" d="M8.159 30.003v-11.97h-.006a10.951 10.951 0 0 0-3.994 8.47v3.5h4Z"/><path fill="url(#paint7_linear_4002_1813)" d="M22.179 30.003v-11.97h.006a10.951 10.951 0 0 1 3.994 8.47v3.5h-4Z"/><path fill="url(#paint8_radial_4002_1813)" d="M22.179 30.003v-11.97h.006a10.951 10.951 0 0 1 3.994 8.47v3.5h-4Z"/><g filter="url(#filter1_i_4002_1813)"><path fill="url(#paint9_radial_4002_1813)" d="m12.183 21.497 3.036-2.124 2.987 2.085c.421.324 1.013.465 1.013-.355v-4.81c-1.24-.48-2.59-.77-4-.77-1.41 0-2.76.24-4 .72v4.691c0 .953.594.823.964.563Z"/><path fill="url(#paint10_linear_4002_1813)" d="m12.183 21.497 3.036-2.124 2.987 2.085c.421.324 1.013.465 1.013-.355v-4.81c-1.24-.48-2.59-.77-4-.77-1.41 0-2.76.24-4 .72v4.691c0 .953.594.823.964.563Z"/><path fill="url(#paint11_radial_4002_1813)" d="m12.183 21.497 3.036-2.124 2.987 2.085c.421.324 1.013.465 1.013-.355v-4.81c-1.24-.48-2.59-.77-4-.77-1.41 0-2.76.24-4 .72v4.691c0 .953.594.823.964.563Z"/></g><path fill="url(#paint12_linear_4002_1813)" d="m12.183 21.497 3.036-2.124 2.987 2.085c.421.324 1.013.465 1.013-.355v-4.81c-1.24-.48-2.59-.77-4-.77-1.41 0-2.76.24-4 .72v4.691c0 .953.594.823.964.563Z"/><path fill="url(#paint13_radial_4002_1813)" d="m12.183 21.497 3.036-2.124 2.987 2.085c.421.324 1.013.465 1.013-.355v-4.81c-1.24-.48-2.59-.77-4-.77-1.41 0-2.76.24-4 .72v4.691c0 .953.594.823.964.563Z"/><path fill="url(#paint14_radial_4002_1813)" d="m16.069 19.713-.65.58c-.16.14-.39.14-.55 0l-.65-.58a3.449 3.449 0 0 1-1.14-2.55v-3.09c0-1.14.92-2.06 2.06-2.06 1.14 0 2.06.92 2.06 2.06v3.09c0 .97-.41 1.9-1.13 2.55Z"/><path fill="url(#paint15_radial_4002_1813)" d="M15.149 18.693c-1.14 0-2.06-.92-2.06-2.06v-2.56c0-1.14.92-2.06 2.06-2.06 1.14 0 2.06.92 2.06 2.06v2.56a2.07 2.07 0 0 1-2.06 2.06Z"/><path fill="url(#paint16_radial_4002_1813)" d="M15.149 18.693c-1.14 0-2.06-.92-2.06-2.06v-2.56c0-1.14.92-2.06 2.06-2.06 1.14 0 2.06.92 2.06 2.06v2.56a2.07 2.07 0 0 1-2.06 2.06Z"/><path fill="url(#paint17_radial_4002_1813)" d="M17.659 10.273v5.35l1.89-.65c.88-.3 1.46-1.13 1.46-2.06v-2.53c-1.12-.04-2.24-.08-3.35-.11Z"/><path fill="url(#paint18_linear_4002_1813)" d="m9.289 10.214-.01 2.69c0 .93.59 1.75 1.46 2.06l1.89.65v-5.43c-1.1 0-2.22 0-3.34.03Z"/><g filter="url(#filter2_i_4002_1813)"><path fill="#CD9684" d="M10.249 12.283a1.67 1.67 0 1 0 0-3.34 1.67 1.67 0 0 0 0 3.34Z"/><path fill="url(#paint19_radial_4002_1813)" d="M10.249 12.283a1.67 1.67 0 1 0 0-3.34 1.67 1.67 0 0 0 0 3.34Z"/></g><g filter="url(#filter3_f_4002_1813)"><path fill="url(#paint20_radial_4002_1813)" d="M10.249 11.693a1.08 1.08 0 1 0 0-2.159 1.08 1.08 0 0 0 0 2.159Z"/></g><path fill="url(#paint21_linear_4002_1813)" d="M20.039 12.283a1.67 1.67 0 1 0 0-3.34 1.67 1.67 0 0 0 0 3.34Z"/><path fill="url(#paint22_radial_4002_1813)" d="M20.039 12.283a1.67 1.67 0 1 0 0-3.34 1.67 1.67 0 0 0 0 3.34Z"/><g filter="url(#filter4_f_4002_1813)"><path fill="url(#paint23_radial_4002_1813)" d="M20.039 11.777a1.163 1.163 0 1 0 0-2.327 1.163 1.163 0 0 0 0 2.327Z"/></g><path fill="url(#paint24_linear_4002_1813)" d="M22.179 18.064c-.63-.53-1.33-.99-2.07-1.36v5.9c0 .23-.18.41-.41.41h-9.07c-.23 0-.41-.18-.41-.41v-5.92c-.74.37-1.43.82-2.06 1.35v11.97h14.02v-11.94Z"/><path fill="url(#paint25_radial_4002_1813)" d="M22.179 18.064c-.63-.53-1.33-.99-2.07-1.36v5.9c0 .23-.18.41-.41.41h-9.07c-.23 0-.41-.18-.41-.41v-5.92c-.74.37-1.43.82-2.06 1.35v11.97h14.02v-11.94Z"/><path fill="url(#paint26_linear_4002_1813)" d="M22.179 18.064c-.63-.53-1.33-.99-2.07-1.36v5.9c0 .23-.18.41-.41.41h-9.07c-.23 0-.41-.18-.41-.41v-5.92c-.74.37-1.43.82-2.06 1.35v11.97h14.02v-11.94Z"/><path fill="url(#paint27_linear_4002_1813)" d="M22.179 18.064c-.63-.53-1.33-.99-2.07-1.36v5.9c0 .23-.18.41-.41.41h-9.07c-.23 0-.41-.18-.41-.41v-5.92c-.74.37-1.43.82-2.06 1.35v11.97h14.02v-11.94Z"/><path fill="url(#paint28_radial_4002_1813)" d="M22.179 18.064c-.63-.53-1.33-.99-2.07-1.36v5.9c0 .23-.18.41-.41.41h-9.07c-.23 0-.41-.18-.41-.41v-5.92c-.74.37-1.43.82-2.06 1.35v11.97h14.02v-11.94Z"/><g filter="url(#filter5_f_4002_1813)"><path fill="#3661C6" d="M18.64 25.834h-6.941a.49.49 0 0 0-.5.491v3.62h7.95v-3.62a.513.513 0 0 0-.51-.491Z"/></g><g filter="url(#filter6_i_4002_1813)"><path fill="url(#paint29_linear_4002_1813)" d="M18.639 25.834h-6.94c-.28 0-.5.22-.5.5v3.68h7.95v-3.68a.517.517 0 0 0-.51-.5Z"/></g><g filter="url(#filter7_i_4002_1813)"><path fill="url(#paint30_radial_4002_1813)" d="m20.389 8.983.01-.11c.04-1.09-.83-2.04-1.93-2.04h-6.5c-1.14 0-2.03.97-1.93 2.1l.3 4.65a3.948 3.948 0 0 0 3.92 3.43h1.9c1.98 0 3.66-1.47 3.92-3.43l.31-4.6Z"/></g><path fill="url(#paint31_radial_4002_1813)" d="m20.389 8.983.01-.11c.04-1.09-.83-2.04-1.93-2.04h-6.5c-1.14 0-2.03.97-1.93 2.1l.3 4.65a3.948 3.948 0 0 0 3.92 3.43h1.9c1.98 0 3.66-1.47 3.92-3.43l.31-4.6Z"/><path fill="url(#paint32_radial_4002_1813)" d="m20.389 8.983.01-.11c.04-1.09-.83-2.04-1.93-2.04h-6.5c-1.14 0-2.03.97-1.93 2.1l.3 4.65a3.948 3.948 0 0 0 3.92 3.43h1.9c1.98 0 3.66-1.47 3.92-3.43l.31-4.6Z"/><path fill="url(#paint33_radial_4002_1813)" d="m20.389 8.983.01-.11c.04-1.09-.83-2.04-1.93-2.04h-6.5c-1.14 0-2.03.97-1.93 2.1l.3 4.65a3.948 3.948 0 0 0 3.92 3.43h1.9c1.98 0 3.66-1.47 3.92-3.43l.31-4.6Z"/><path fill="url(#paint34_radial_4002_1813)" d="m20.389 8.983.01-.11c.04-1.09-.83-2.04-1.93-2.04h-6.5c-1.14 0-2.03.97-1.93 2.1l.3 4.65a3.948 3.948 0 0 0 3.92 3.43h1.9c1.98 0 3.66-1.47 3.92-3.43l.31-4.6Z"/><g filter="url(#filter8_f_4002_1813)"><path fill="#D69790" d="m14.646 10.558-.53 1.71c-.11.35.15.7.52.7h.78c.37 0 .63-.35.52-.7l-.52-1.71a.403.403 0 0 0-.77 0Z"/></g><g filter="url(#filter9_f_4002_1813)"><path fill="#F6BFAB" d="m14.839 10.333-.53 1.71c-.11.35.15.7.52.7h.78c.37 0 .63-.35.52-.7l-.52-1.71a.403.403 0 0 0-.77 0Z"/><path fill="url(#paint35_linear_4002_1813)" d="m14.839 10.333-.53 1.71c-.11.35.15.7.52.7h.78c.37 0 .63-.35.52-.7l-.52-1.71a.403.403 0 0 0-.77 0Z"/><path fill="url(#paint36_radial_4002_1813)" d="m14.839 10.333-.53 1.71c-.11.35.15.7.52.7h.78c.37 0 .63-.35.52-.7l-.52-1.71a.403.403 0 0 0-.77 0Z"/><path fill="url(#paint37_linear_4002_1813)" d="m14.839 10.333-.53 1.71c-.11.35.15.7.52.7h.78c.37 0 .63-.35.52-.7l-.52-1.71a.403.403 0 0 0-.77 0Z"/><path fill="url(#paint38_radial_4002_1813)" d="m14.839 10.333-.53 1.71c-.11.35.15.7.52.7h.78c.37 0 .63-.35.52-.7l-.52-1.71a.403.403 0 0 0-.77 0Z"/><path fill="url(#paint39_linear_4002_1813)" d="m14.839 10.333-.53 1.71c-.11.35.15.7.52.7h.78c.37 0 .63-.35.52-.7l-.52-1.71a.403.403 0 0 0-.77 0Z"/></g><g filter="url(#filter10_f_4002_1813)"><path stroke="url(#paint40_linear_4002_1813)" stroke-width=".1" d="M13.703 13.31c-.199-.106-.392.12-.276.3a2.069 2.069 0 0 0 1.732.944 2.07 2.07 0 0 0 1.732-.943.203.203 0 0 0-.024-.256.212.212 0 0 0-.25-.046h-.002a3.096 3.096 0 0 1-1.456.355 3.096 3.096 0 0 1-1.457-.354Z"/></g><path fill="url(#paint41_radial_4002_1813)" d="M15.159 13.713c-.54 0-1.05-.13-1.48-.36-.15-.08-.3.09-.21.23.36.55.98.92 1.69.92s1.33-.37 1.69-.92c.09-.14-.07-.3-.21-.23-.43.23-.94.36-1.48.36Z"/><g filter="url(#filter11_i_4002_1813)"><path stroke="#130E18" stroke-linecap="round" stroke-linejoin="round" stroke-miterlimit="10" stroke-width=".5" d="M18.743 8.302s-.625-.473-1.695-.344"/></g><g filter="url(#filter12_f_4002_1813)"><path stroke="#545154" stroke-linecap="round" stroke-linejoin="round" stroke-miterlimit="10" stroke-width=".1" d="M18.743 8.24s-.625-.474-1.695-.345"/></g><g filter="url(#filter13_i_4002_1813)"><path stroke="#130E18" stroke-linecap="round" stroke-linejoin="round" stroke-miterlimit="10" stroke-width=".5" d="M11.688 8.302s.625-.473 1.696-.344"/></g><g filter="url(#filter14_f_4002_1813)"><path stroke="#545154" stroke-linecap="round" stroke-linejoin="round" stroke-miterlimit="10" stroke-width=".1" d="M11.688 8.24s.625-.474 1.696-.345"/></g><g filter="url(#filter15_i_4002_1813)"><path fill="url(#paint42_radial_4002_1813)" d="M17.629 7.633h2.393c-.35-.48-.923-.8-1.553-.8h-2.55c.42.5 1.05.8 1.71.8Z"/></g><path fill="url(#paint43_radial_4002_1813)" d="M25.991 23.144c.55 0 1 .45 1 1v2.29h-2v-2.29c0-.55.44-1 1-1Z"/><path fill="url(#paint44_radial_4002_1813)" d="M25.991 23.144c.55 0 1 .45 1 1v2.29h-2v-2.29c0-.55.44-1 1-1Z"/><path fill="url(#paint45_linear_4002_1813)" d="M25.332 21.794h-1v3h1v-3Z"/><path fill="url(#paint46_radial_4002_1813)" d="M25.332 21.794h-1v3h1v-3Z"/><path fill="url(#paint47_radial_4002_1813)" d="M24.096 20.013h1.523v1.734a.25.25 0 0 1-.25.25h-1.023a.25.25 0 0 1-.25-.25v-1.734Z"/><path fill="url(#paint48_radial_4002_1813)" d="M24.096 20.013h1.523v1.734a.25.25 0 0 1-.25.25h-1.023a.25.25 0 0 1-.25-.25v-1.734Z"/><path fill="url(#paint49_linear_4002_1813)" d="M24.096 20.013h1.523v1.734a.25.25 0 0 1-.25.25h-1.023a.25.25 0 0 1-.25-.25v-1.734Z"/><g filter="url(#filter16_iii_4002_1813)"><path fill="#B8B1C0" d="M21.974 11.067a.602.602 0 0 0-.602.602v6.851a1.5 1.5 0 0 0 1.5 1.5h4.125a1.5 1.5 0 0 0 1.5-1.5v-6.85a.601.601 0 1 0-1.203 0v4.45a.879.879 0 0 1-1.758 0v-4.45a.602.602 0 0 0-1.203 0v4.45a.879.879 0 0 1-1.758 0v-4.45a.601.601 0 0 0-.601-.602Z"/></g><path fill="#fff" d="M17.645 9.233c.663 0 1.222.457 1.375 1.075a.278.278 0 0 1-.272.345h-2.264a.233.233 0 0 1-.23-.275c.127-.65.7-1.145 1.39-1.145Z"/><path fill="url(#paint50_radial_4002_1813)" d="M17.435 9.51a.905.905 0 0 1 .872 1.143h-1.749a.909.909 0 0 1 .877-1.144Z"/><path fill="#000" d="M16.916 10.415c0-.288.23-.519.519-.519a.516.516 0 0 1 .46.757h-.917a.469.469 0 0 1-.062-.238Z"/><g filter="url(#filter17_f_4002_1813)"><path fill="#C7A7A3" d="M17.368 9.7c.065.087-.07.192-.223.307-.154.114-.267.195-.332.109-.064-.087.008-.25.16-.364.154-.115.33-.138.395-.051Z"/><path fill="url(#paint51_radial_4002_1813)" d="M17.368 9.7c.065.087-.07.192-.223.307-.154.114-.267.195-.332.109-.064-.087.008-.25.16-.364.154-.115.33-.138.395-.051Z"/></g><g filter="url(#filter18_f_4002_1813)"><path fill="url(#paint52_linear_4002_1813)" d="M18.241 10.296a.852.852 0 0 0-.234-.47l-.264.29.119.231.38-.051Z"/></g><path fill="#fff" d="M12.793 9.233c-.663 0-1.222.457-1.375 1.075a.278.278 0 0 0 .272.345h2.264c.144 0 .26-.131.23-.275a1.422 1.422 0 0 0-1.39-1.145Z"/><path fill="url(#paint53_radial_4002_1813)" d="M13.003 9.51a.906.906 0 0 0-.873 1.143h1.75a.927.927 0 0 0 .033-.238.912.912 0 0 0-.91-.906Z"/><path fill="#000" d="M13.521 10.415a.516.516 0 0 0-.518-.519.516.516 0 0 0-.461.757h.918a.513.513 0 0 0 .061-.238Z"/><g filter="url(#filter19_f_4002_1813)"><path fill="url(#paint54_linear_4002_1813)" d="M13.83 10.308c0-.292-.238-.487-.302-.546l-.293.283.18.366.415-.103Z"/></g><g filter="url(#filter20_f_4002_1813)" transform="rotate(-27.914 12.73 9.896)"><ellipse cx="12.73" cy="9.896" fill="#C7A7A3" fill-opacity=".9" rx=".395" ry=".2"/><ellipse cx="12.73" cy="9.896" fill="url(#paint55_radial_4002_1813)" rx=".395" ry=".2"/></g><g filter="url(#filter21_i_4002_1813)"><path fill="url(#paint56_linear_4002_1813)" d="M22.673 25.329c0-.401.326-.732.727-.732h2.391a1.2 1.2 0 0 1 1.2 1.2v3.206a1 1 0 0 1-1 1H23.4a.731.731 0 0 1-.32-1.389.735.735 0 0 1 0-1.314.735.735 0 0 1 0-1.314.735.735 0 0 1-.407-.657Z"/><path fill="url(#paint57_radial_4002_1813)" d="M22.673 25.329c0-.401.326-.732.727-.732h2.391a1.2 1.2 0 0 1 1.2 1.2v3.206a1 1 0 0 1-1 1H23.4a.731.731 0 0 1-.32-1.389.735.735 0 0 1 0-1.314.735.735 0 0 1 0-1.314.735.735 0 0 1-.407-.657Z"/><path fill="url(#paint58_radial_4002_1813)" d="M22.673 25.329c0-.401.326-.732.727-.732h2.391a1.2 1.2 0 0 1 1.2 1.2v3.206a1 1 0 0 1-1 1H23.4a.731.731 0 0 1-.32-1.389.735.735 0 0 1 0-1.314.735.735 0 0 1 0-1.314.735.735 0 0 1-.407-.657Z"/><path fill="url(#paint59_radial_4002_1813)" d="M22.673 25.329c0-.401.326-.732.727-.732h2.391a1.2 1.2 0 0 1 1.2 1.2v3.206a1 1 0 0 1-1 1H23.4a.731.731 0 0 1-.32-1.389.735.735 0 0 1 0-1.314.735.735 0 0 1 0-1.314.735.735 0 0 1-.407-.657Z"/><path fill="url(#paint60_radial_4002_1813)" d="M22.673 25.329c0-.401.326-.732.727-.732h2.391a1.2 1.2 0 0 1 1.2 1.2v3.206a1 1 0 0 1-1 1H23.4a.731.731 0 0 1-.32-1.389.735.735 0 0 1 0-1.314.735.735 0 0 1 0-1.314.735.735 0 0 1-.407-.657Z"/></g><g filter="url(#filter22_f_4002_1813)"><path stroke="url(#paint61_linear_4002_1813)" stroke-linecap="round" stroke-width=".1" d="M23.194 25.981h1.796"/></g><g filter="url(#filter23_f_4002_1813)"><path stroke="url(#paint62_linear_4002_1813)" stroke-linecap="round" stroke-width=".1" d="M23.115 27.286h1.797"/></g><g filter="url(#filter24_f_4002_1813)"><path stroke="url(#paint63_linear_4002_1813)" stroke-linecap="round" stroke-width=".1" d="M23.194 28.59h1.796"/></g><defs><radialGradient id="paint0_radial_4002_1813" cx="0" cy="0" r="1" gradientTransform="matrix(-4.28126 -2.7131 2.52682 -3.98732 19.037 3.983)" gradientUnits="userSpaceOnUse"><stop stop-color="#7F5F58"/><stop offset="1" stop-color="#644841"/></radialGradient><radialGradient id="paint1_radial_4002_1813" cx="0" cy="0" r="1" gradientTransform="matrix(0 -2.15625 8.40625 0 18.912 5.145)" gradientUnits="userSpaceOnUse"><stop stop-color="#6E5980"/><stop offset="1" stop-color="#4F3B60"/></radialGradient><radialGradient id="paint3_radial_4002_1813" cx="0" cy="0" r="1" gradientTransform="matrix(0 -9.50793 20.3496 0 15.85 14.34)" gradientUnits="userSpaceOnUse"><stop offset=".298" stop-color="#79554F"/><stop offset="1" stop-color="#693E3F"/></radialGradient><radialGradient id="paint4_radial_4002_1813" cx="0" cy="0" r="1" gradientTransform="matrix(0 7.16424 -8.99366 0 15.149 16.308)" gradientUnits="userSpaceOnUse"><stop offset=".53" stop-color="#399967"/><stop offset="1" stop-color="#399967" stop-opacity="0"/></radialGradient><radialGradient id="paint6_radial_4002_1813" cx="0" cy="0" r="1" gradientTransform="matrix(2.6875 .4375 -2.13811 13.1341 3.006 25.27)" gradientUnits="userSpaceOnUse"><stop stop-color="#63C890"/><stop offset="1" stop-color="#63C890" stop-opacity="0"/></radialGradient><radialGradient id="paint8_radial_4002_1813" cx="0" cy="0" r="1" gradientTransform="matrix(.79488 -.01787 .1758 7.81887 22.179 24.733)" gradientUnits="userSpaceOnUse"><stop offset=".249" stop-color="#28A96B"/><stop offset="1" stop-color="#28A96B" stop-opacity="0"/></radialGradient><radialGradient id="paint9_radial_4002_1813" cx="0" cy="0" r="1" gradientTransform="matrix(0 5.49005 -3.73669 0 15.219 16.177)" gradientUnits="userSpaceOnUse"><stop offset=".232" stop-color="#387C46"/><stop offset="1" stop-color="#3D8F6C"/></radialGradient><radialGradient id="paint11_radial_4002_1813" cx="0" cy="0" r="1" gradientTransform="matrix(-2.27543 1.55452 -.96733 -1.41593 14.364 19.575)" gradientUnits="userSpaceOnUse"><stop stop-color="#519473"/><stop offset="1" stop-color="#519473" stop-opacity="0"/></radialGradient><radialGradient id="paint13_radial_4002_1813" cx="0" cy="0" r="1" gradientTransform="matrix(0 3.28924 -4.48731 0 14.612 15.993)" gradientUnits="userSpaceOnUse"><stop offset=".344" stop-color="#2A5923"/><stop offset=".987" stop-color="#2A5923" stop-opacity="0"/></radialGradient><radialGradient id="paint14_radial_4002_1813" cx="0" cy="0" r="1" gradientTransform="matrix(0 -4.58005 5.35185 0 15.139 19.675)" gradientUnits="userSpaceOnUse"><stop offset=".027" stop-color="#E9CEE6"/><stop offset=".737" stop-color="#9C8F92"/></radialGradient><radialGradient id="paint15_radial_4002_1813" cx="0" cy="0" r="1" gradientTransform="matrix(0 1.87968 -1.90863 0 15.149 16.814)" gradientUnits="userSpaceOnUse"><stop stop-color="#B58885"/><stop offset="1" stop-color="#BB9282"/></radialGradient><radialGradient id="paint16_radial_4002_1813" cx="0" cy="0" r="1" gradientTransform="matrix(0 4.50225 -2.55179 0 15.149 15.353)" gradientUnits="userSpaceOnUse"><stop offset=".691" stop-color="#906549" stop-opacity="0"/><stop offset=".944" stop-color="#906549"/></radialGradient><radialGradient id="paint17_radial_4002_1813" cx="0" cy="0" r="1" gradientTransform="matrix(-.9375 2.65625 -2.11192 -.74538 20.678 12.11)" gradientUnits="userSpaceOnUse"><stop stop-color="#3C3135"/><stop offset="1" stop-color="#221C27"/><stop offset="1" stop-color="#251C28"/></radialGradient><radialGradient id="paint19_radial_4002_1813" cx="0" cy="0" r="1" gradientTransform="matrix(-.99999 -1.375 1.3434 -.977 10.6 12.126)" gradientUnits="userSpaceOnUse"><stop stop-color="#D09480"/><stop offset="1" stop-color="#D09480" stop-opacity="0"/></radialGradient><radialGradient id="paint20_radial_4002_1813" cx="0" cy="0" r="1" gradientTransform="matrix(-1.41345 0 0 -2.09099 10.46 10.794)" gradientUnits="userSpaceOnUse"><stop offset=".149" stop-color="#C68976"/><stop offset="1" stop-color="#CD9282"/></radialGradient><radialGradient id="paint22_radial_4002_1813" cx="0" cy="0" r="1" gradientTransform="rotate(-51.009 22.997 -15.291) scale(1.68866)" gradientUnits="userSpaceOnUse"><stop stop-color="#E4B39C"/><stop offset="1" stop-color="#E4B39C" stop-opacity="0"/></radialGradient><radialGradient id="paint23_radial_4002_1813" cx="0" cy="0" r="1" gradientTransform="rotate(91.606 4.948 15.136) scale(1.11515)" gradientUnits="userSpaceOnUse"><stop stop-color="#EFBBA2"/><stop offset=".912" stop-color="#E4AF95"/></radialGradient><radialGradient id="paint25_radial_4002_1813" cx="0" cy="0" r="1" gradientTransform="rotate(154.069 9.138 11.707) scale(3.78757 11.2112)" gradientUnits="userSpaceOnUse"><stop stop-color="#47B2F6"/><stop offset="1" stop-color="#47B2F6" stop-opacity="0"/></radialGradient><radialGradient id="paint28_radial_4002_1813" cx="0" cy="0" r="1" gradientTransform="matrix(2.5033 -1.90624 3.00378 3.94459 8.159 18.833)" gradientUnits="userSpaceOnUse"><stop stop-color="#3DA0DB"/><stop offset="1" stop-color="#3AA1E0" stop-opacity="0"/></radialGradient><radialGradient id="paint30_radial_4002_1813" cx="0" cy="0" r="1" gradientTransform="rotate(168.631 8.271 6.343) scale(5.03632 7.24341)" gradientUnits="userSpaceOnUse"><stop stop-color="#FFD7BC"/><stop offset="1" stop-color="#D9A393"/></radialGradient><radialGradient id="paint31_radial_4002_1813" cx="0" cy="0" r="1" gradientTransform="matrix(-.89088 10.72366 -10.88879 -.9046 16.542 6.495)" gradientUnits="userSpaceOnUse"><stop offset=".664" stop-color="#C59293" stop-opacity="0"/><stop offset="1" stop-color="#B18585"/></radialGradient><radialGradient id="paint32_radial_4002_1813" cx="0" cy="0" r="1" gradientTransform="matrix(0 -1.21626 1.85126 0 17.536 9.648)" gradientUnits="userSpaceOnUse"><stop offset=".325" stop-color="#F6B8A8"/><stop offset="1" stop-color="#F6B8A8" stop-opacity="0"/></radialGradient><radialGradient id="paint33_radial_4002_1813" cx="0" cy="0" r="1" gradientTransform="matrix(0 -1.15625 1.54763 0 12.834 9.68)" gradientUnits="userSpaceOnUse"><stop offset=".378" stop-color="#D39991"/><stop offset="1" stop-color="#D39991" stop-opacity="0"/></radialGradient><radialGradient id="paint34_radial_4002_1813" cx="0" cy="0" r="1" gradientTransform="matrix(-8.61952 .44238 -.92 -17.9257 18.65 12.739)" gradientUnits="userSpaceOnUse"><stop offset=".836" stop-color="#E4AB95" stop-opacity="0"/><stop offset="1" stop-color="#E4AB95"/></radialGradient><radialGradient id="paint36_radial_4002_1813" cx="0" cy="0" r="1" gradientTransform="matrix(0 .22684 -.76458 0 15.684 12.26)" gradientUnits="userSpaceOnUse"><stop stop-color="#FFDDC7"/><stop offset="1" stop-color="#FFDDC7" stop-opacity="0"/></radialGradient><radialGradient id="paint38_radial_4002_1813" cx="0" cy="0" r="1" gradientTransform="rotate(156.852 6.698 7.484) scale(1.64873 2.52797)" gradientUnits="userSpaceOnUse"><stop offset=".714" stop-color="#D3968C" stop-opacity="0"/><stop offset="1" stop-color="#D3968C"/></radialGradient><radialGradient id="paint41_radial_4002_1813" cx="0" cy="0" r="1" gradientTransform="matrix(0 -.78645 3.09358 0 15.158 14.412)" gradientUnits="userSpaceOnUse"><stop stop-color="#89024E"/><stop offset="1" stop-color="#87004D"/></radialGradient><radialGradient id="paint42_radial_4002_1813" cx="0" cy="0" r="1" gradientTransform="matrix(2.14063 0 0 .4039 17.6 7.099)" gradientUnits="userSpaceOnUse"><stop offset=".252" stop-color="#454142"/><stop offset="1" stop-color="#2D282A"/></radialGradient><radialGradient id="paint43_radial_4002_1813" cx="0" cy="0" r="1" gradientTransform="rotate(154.424 11.038 15.176) scale(2.44794 2.40172)" gradientUnits="userSpaceOnUse"><stop offset=".524" stop-color="#F3C6AF"/><stop offset=".956" stop-color="#C79175"/></radialGradient><radialGradient id="paint44_radial_4002_1813" cx="0" cy="0" r="1" gradientTransform="matrix(.78818 -.60013 .4599 .60401 26.747 23.64)" gradientUnits="userSpaceOnUse"><stop offset=".132" stop-color="#F7CEB9"/><stop offset="1" stop-color="#F7CEB9" stop-opacity="0"/></radialGradient><radialGradient id="paint46_radial_4002_1813" cx="0" cy="0" r="1" gradientTransform="matrix(0 -2.85126 .74829 0 25.332 24.794)" gradientUnits="userSpaceOnUse"><stop stop-color="#88625F"/><stop offset="1" stop-color="#88625F" stop-opacity="0"/></radialGradient><radialGradient id="paint47_radial_4002_1813" cx="0" cy="0" r="1" gradientTransform="matrix(0 -1.82813 1.14062 0 25.356 21.614)" gradientUnits="userSpaceOnUse"><stop stop-color="#C7C1CC"/><stop offset="1" stop-color="#A099A8"/></radialGradient><radialGradient id="paint48_radial_4002_1813" cx="0" cy="0" r="1" gradientTransform="matrix(0 -2.14844 2.01125 0 24.857 21.997)" gradientUnits="userSpaceOnUse"><stop offset=".76" stop-color="#85808C" stop-opacity="0"/><stop offset="1" stop-color="#85808C"/></radialGradient><radialGradient id="paint50_radial_4002_1813" cx="0" cy="0" r="1" gradientTransform="matrix(0 .82316 -1.30932 0 17.433 9.993)" gradientUnits="userSpaceOnUse"><stop offset=".802" stop-color="#7D574A"/><stop offset="1" stop-color="#694B43"/><stop offset="1" stop-color="#804D49"/><stop offset="1" stop-color="#664842"/></radialGradient><radialGradient id="paint51_radial_4002_1813" cx="0" cy="0" r="1" gradientTransform="matrix(-.2353 -.30322 .41746 -.32395 17.201 10.079)" gradientUnits="userSpaceOnUse"><stop offset=".766" stop-color="#FFE6E2" stop-opacity="0"/><stop offset=".966" stop-color="#FFE6E2"/></radialGradient><radialGradient id="paint53_radial_4002_1813" cx="0" cy="0" r="1" gradientTransform="matrix(0 .8232 -1.30939 0 13.005 9.993)" gradientUnits="userSpaceOnUse"><stop offset=".802" stop-color="#7D574A"/><stop offset="1" stop-color="#694B43"/><stop offset="1" stop-color="#804D49"/><stop offset="1" stop-color="#664842"/></radialGradient><radialGradient id="paint55_radial_4002_1813" cx="0" cy="0" r="1" gradientTransform="matrix(-.00785 -.5013 .60257 -.00943 12.714 10.216)" gradientUnits="userSpaceOnUse"><stop offset=".766" stop-color="#FFE6E2" stop-opacity="0"/><stop offset=".966" stop-color="#FFE6E2"/></radialGradient><radialGradient id="paint57_radial_4002_1813" cx="0" cy="0" r="1" gradientTransform="matrix(0 .8017 -1.35439 0 25.11 25.308)" gradientUnits="userSpaceOnUse"><stop offset=".106" stop-color="#FFD1BB"/><stop offset="1" stop-color="#FFD1BB" stop-opacity="0"/></radialGradient><radialGradient id="paint58_radial_4002_1813" cx="0" cy="0" r="1" gradientTransform="matrix(0 .85938 -1.45182 0 25.11 26.602)" gradientUnits="userSpaceOnUse"><stop offset=".109" stop-color="#FFD1BB"/><stop offset="1" stop-color="#FFD1BB" stop-opacity="0"/></radialGradient><radialGradient id="paint59_radial_4002_1813" cx="0" cy="0" r="1" gradientTransform="matrix(0 .71875 -1.21425 0 25.11 27.852)" gradientUnits="userSpaceOnUse"><stop offset=".109" stop-color="#FFD1BB"/><stop offset="1" stop-color="#FFD1BB" stop-opacity="0"/></radialGradient><radialGradient id="paint60_radial_4002_1813" cx="0" cy="0" r="1" gradientTransform="matrix(0 .79938 -1.7273 0 25.11 29.204)" gradientUnits="userSpaceOnUse"><stop offset=".186" stop-color="#FFD1BB"/><stop offset="1" stop-color="#FFD1BB" stop-opacity="0"/></radialGradient><filter id="filter0_ii_4002_1813" width="20.537" height="10.328" x="4.7" y="4.833" color-interpolation-filters="sRGB" filterUnits="userSpaceOnUse"><feFlood flood-opacity="0" result="BackgroundImageFix"/><feBlend in="SourceGraphic" in2="BackgroundImageFix" result="shape"/><feColorMatrix in="SourceAlpha" result="hardAlpha" values="0 0 0 0 0 0 0 0 0 0 0 0 0 0 0 0 0 0 127 0"/><feOffset dy=".5"/><feGaussianBlur stdDeviation=".25"/><feComposite in2="hardAlpha" k2="-1" k3="1" operator="arithmetic"/><feColorMatrix values="0 0 0 0 0.478431 0 0 0 0 0.384314 0 0 0 0 0.368627 0 0 0 1 0"/><feBlend in2="shape" result="effect1_innerShadow_4002_1813"/><feColorMatrix in="SourceAlpha" result="hardAlpha" values="0 0 0 0 0 0 0 0 0 0 0 0 0 0 0 0 0 0 127 0"/><feOffset dx="-.5" dy=".25"/><feGaussianBlur stdDeviation=".375"/><feComposite in2="hardAlpha" k2="-1" k3="1" operator="arithmetic"/><feColorMatrix values="0 0 0 0 0.388235 0 0 0 0 0.243137 0 0 0 0 0.25098 0 0 0 1 0"/><feBlend in2="effect1_innerShadow_4002_1813" result="effect2_innerShadow_4002_1813"/></filter><filter id="filter1_i_4002_1813" width="8" height="6.44" x="11.219" y="15.273" color-interpolation-filters="sRGB" filterUnits="userSpaceOnUse"><feFlood flood-opacity="0" result="BackgroundImageFix"/><feBlend in="SourceGraphic" in2="BackgroundImageFix" result="shape"/><feColorMatrix in="SourceAlpha" result="hardAlpha" values="0 0 0 0 0 0 0 0 0 0 0 0 0 0 0 0 0 0 127 0"/><feOffset dy="-.25"/><feGaussianBlur stdDeviation=".175"/><feComposite in2="hardAlpha" k2="-1" k3="1" operator="arithmetic"/><feColorMatrix values="0 0 0 0 0.109804 0 0 0 0 0.47451 0 0 0 0 0.333333 0 0 0 1 0"/><feBlend in2="shape" result="effect1_innerShadow_4002_1813"/></filter><filter id="filter2_i_4002_1813" width="3.44" height="3.34" x="8.579" y="8.943" color-interpolation-filters="sRGB" filterUnits="userSpaceOnUse"><feFlood flood-opacity="0" result="BackgroundImageFix"/><feBlend in="SourceGraphic" in2="BackgroundImageFix" result="shape"/><feColorMatrix in="SourceAlpha" result="hardAlpha" values="0 0 0 0 0 0 0 0 0 0 0 0 0 0 0 0 0 0 127 0"/><feOffset dx=".1"/><feGaussianBlur stdDeviation=".125"/><feComposite in2="hardAlpha" k2="-1" k3="1" operator="arithmetic"/><feColorMatrix values="0 0 0 0 0.862745 0 0 0 0 0.643137 0 0 0 0 0.568627 0 0 0 1 0"/><feBlend in2="shape" result="effect1_innerShadow_4002_1813"/></filter><filter id="filter3_f_4002_1813" width="2.658" height="2.658" x="8.92" y="9.284" color-interpolation-filters="sRGB" filterUnits="userSpaceOnUse"><feFlood flood-opacity="0" result="BackgroundImageFix"/><feBlend in="SourceGraphic" in2="BackgroundImageFix" result="shape"/><feGaussianBlur result="effect1_foregroundBlur_4002_1813" stdDeviation=".125"/></filter><filter id="filter4_f_4002_1813" width="2.827" height="2.827" x="18.625" y="9.2" color-interpolation-filters="sRGB" filterUnits="userSpaceOnUse"><feFlood flood-opacity="0" result="BackgroundImageFix"/><feBlend in="SourceGraphic" in2="BackgroundImageFix" result="shape"/><feGaussianBlur result="effect1_foregroundBlur_4002_1813" stdDeviation=".125"/></filter><filter id="filter5_f_4002_1813" width="8.45" height="4.612" x="10.949" y="25.584" color-interpolation-filters="sRGB" filterUnits="userSpaceOnUse"><feFlood flood-opacity="0" result="BackgroundImageFix"/><feBlend in="SourceGraphic" in2="BackgroundImageFix" result="shape"/><feGaussianBlur result="effect1_foregroundBlur_4002_1813" stdDeviation=".125"/></filter><filter id="filter6_i_4002_1813" width="8.05" height="4.28" x="11.099" y="25.834" color-interpolation-filters="sRGB" filterUnits="userSpaceOnUse"><feFlood flood-opacity="0" result="BackgroundImageFix"/><feBlend in="SourceGraphic" in2="BackgroundImageFix" result="shape"/><feColorMatrix in="SourceAlpha" result="hardAlpha" values="0 0 0 0 0 0 0 0 0 0 0 0 0 0 0 0 0 0 127 0"/><feOffset dx="-.1" dy=".1"/><feGaussianBlur stdDeviation=".1"/><feComposite in2="hardAlpha" k2="-1" k3="1" operator="arithmetic"/><feColorMatrix values="0 0 0 0 0.258824 0 0 0 0 0.67451 0 0 0 0 1 0 0 0 1 0"/><feBlend in2="shape" result="effect1_innerShadow_4002_1813"/></filter><filter id="filter7_i_4002_1813" width="10.869" height="10.18" x="10.031" y="6.833" color-interpolation-filters="sRGB" filterUnits="userSpaceOnUse"><feFlood flood-opacity="0" result="BackgroundImageFix"/><feBlend in="SourceGraphic" in2="BackgroundImageFix" result="shape"/><feColorMatrix in="SourceAlpha" result="hardAlpha" values="0 0 0 0 0 0 0 0 0 0 0 0 0 0 0 0 0 0 127 0"/><feOffset dx=".75"/><feGaussianBlur stdDeviation=".25"/><feComposite in2="hardAlpha" k2="-1" k3="1" operator="arithmetic"/><feColorMatrix values="0 0 0 0 0.890196 0 0 0 0 0.662745 0 0 0 0 0.576471 0 0 0 1 0"/><feBlend in2="shape" result="effect1_innerShadow_4002_1813"/></filter><filter id="filter8_f_4002_1813" width="3.871" height="4.695" x="13.091" y="9.273" color-interpolation-filters="sRGB" filterUnits="userSpaceOnUse"><feFlood flood-opacity="0" result="BackgroundImageFix"/><feBlend in="SourceGraphic" in2="BackgroundImageFix" result="shape"/><feGaussianBlur result="effect1_foregroundBlur_4002_1813" stdDeviation=".5"/></filter><filter id="filter9_f_4002_1813" width="2.271" height="3.095" x="14.083" y="9.848" color-interpolation-filters="sRGB" filterUnits="userSpaceOnUse"><feFlood flood-opacity="0" result="BackgroundImageFix"/><feBlend in="SourceGraphic" in2="BackgroundImageFix" result="shape"/><feGaussianBlur result="effect1_foregroundBlur_4002_1813" stdDeviation=".1"/></filter><filter id="filter10_f_4002_1813" width="3.833" height="1.572" x="13.242" y="13.132" color-interpolation-filters="sRGB" filterUnits="userSpaceOnUse"><feFlood flood-opacity="0" result="BackgroundImageFix"/><feBlend in="SourceGraphic" in2="BackgroundImageFix" result="shape"/><feGaussianBlur result="effect1_foregroundBlur_4002_1813" stdDeviation=".05"/></filter><filter id="filter11_i_4002_1813" width="2.195" height="1.016" x="16.798" y="7.536" color-interpolation-filters="sRGB" filterUnits="userSpaceOnUse"><feFlood flood-opacity="0" result="BackgroundImageFix"/><feBlend in="SourceGraphic" in2="BackgroundImageFix" result="shape"/><feColorMatrix in="SourceAlpha" result="hardAlpha" values="0 0 0 0 0 0 0 0 0 0 0 0 0 0 0 0 0 0 127 0"/><feOffset dy="-.2"/><feGaussianBlur stdDeviation=".075"/><feComposite in2="hardAlpha" k2="-1" k3="1" operator="arithmetic"/><feColorMatrix values="0 0 0 0 0.0941176 0 0 0 0 0.0823529 0 0 0 0 0.0980392 0 0 0 1 0"/><feBlend in2="shape" result="effect1_innerShadow_4002_1813"/></filter><filter id="filter12_f_4002_1813" width="2.095" height=".766" x="16.848" y="7.673" color-interpolation-filters="sRGB" filterUnits="userSpaceOnUse"><feFlood flood-opacity="0" result="BackgroundImageFix"/><feBlend in="SourceGraphic" in2="BackgroundImageFix" result="shape"/><feGaussianBlur result="effect1_foregroundBlur_4002_1813" stdDeviation=".075"/></filter><filter id="filter13_i_4002_1813" width="2.195" height="1.016" x="11.438" y="7.536" color-interpolation-filters="sRGB" filterUnits="userSpaceOnUse"><feFlood flood-opacity="0" result="BackgroundImageFix"/><feBlend in="SourceGraphic" in2="BackgroundImageFix" result="shape"/><feColorMatrix in="SourceAlpha" result="hardAlpha" values="0 0 0 0 0 0 0 0 0 0 0 0 0 0 0 0 0 0 127 0"/><feOffset dy="-.2"/><feGaussianBlur stdDeviation=".075"/><feComposite in2="hardAlpha" k2="-1" k3="1" operator="arithmetic"/><feColorMatrix values="0 0 0 0 0.0941176 0 0 0 0 0.0823529 0 0 0 0 0.0980392 0 0 0 1 0"/><feBlend in2="shape" result="effect1_innerShadow_4002_1813"/></filter><filter id="filter14_f_4002_1813" width="2.095" height=".766" x="11.489" y="7.673" color-interpolation-filters="sRGB" filterUnits="userSpaceOnUse"><feFlood flood-opacity="0" result="BackgroundImageFix"/><feBlend in="SourceGraphic" in2="BackgroundImageFix" result="shape"/><feGaussianBlur result="effect1_foregroundBlur_4002_1813" stdDeviation=".075"/></filter><filter id="filter15_i_4002_1813" width="4.103" height=".85" x="15.919" y="6.784" color-interpolation-filters="sRGB" filterUnits="userSpaceOnUse"><feFlood flood-opacity="0" result="BackgroundImageFix"/><feBlend in="SourceGraphic" in2="BackgroundImageFix" result="shape"/><feColorMatrix in="SourceAlpha" result="hardAlpha" values="0 0 0 0 0 0 0 0 0 0 0 0 0 0 0 0 0 0 127 0"/><feOffset dy="-.05"/><feGaussianBlur stdDeviation=".05"/><feComposite in2="hardAlpha" k2="-1" k3="1" operator="arithmetic"/><feColorMatrix values="0 0 0 0 0.0980392 0 0 0 0 0.0666667 0 0 0 0 0.117647 0 0 0 1 0"/><feBlend in2="shape" result="effect1_innerShadow_4002_1813"/></filter><filter id="filter16_iii_4002_1813" width="7.625" height="9.853" x="21.072" y="10.667" color-interpolation-filters="sRGB" filterUnits="userSpaceOnUse"><feFlood flood-opacity="0" result="BackgroundImageFix"/><feBlend in="SourceGraphic" in2="BackgroundImageFix" result="shape"/><feColorMatrix in="SourceAlpha" result="hardAlpha" values="0 0 0 0 0 0 0 0 0 0 0 0 0 0 0 0 0 0 127 0"/><feOffset dx=".2" dy="-.4"/><feGaussianBlur stdDeviation=".375"/><feComposite in2="hardAlpha" k2="-1" k3="1" operator="arithmetic"/><feColorMatrix values="0 0 0 0 0.529412 0 0 0 0 0.470588 0 0 0 0 0.588235 0 0 0 1 0"/><feBlend in2="shape" result="effect1_innerShadow_4002_1813"/><feColorMatrix in="SourceAlpha" result="hardAlpha" values="0 0 0 0 0 0 0 0 0 0 0 0 0 0 0 0 0 0 127 0"/><feOffset dx="-.3" dy=".5"/><feGaussianBlur stdDeviation=".25"/><feComposite in2="hardAlpha" k2="-1" k3="1" operator="arithmetic"/><feColorMatrix values="0 0 0 0 0.784314 0 0 0 0 0.776471 0 0 0 0 0.796078 0 0 0 1 0"/><feBlend in2="effect1_innerShadow_4002_1813" result="effect2_innerShadow_4002_1813"/><feColorMatrix in="SourceAlpha" result="hardAlpha" values="0 0 0 0 0 0 0 0 0 0 0 0 0 0 0 0 0 0 127 0"/><feOffset dy=".1"/><feGaussianBlur stdDeviation=".2"/><feComposite in2="hardAlpha" k2="-1" k3="1" operator="arithmetic"/><feColorMatrix values="0 0 0 0 0.517647 0 0 0 0 0.517647 0 0 0 0 0.545098 0 0 0 1 0"/><feBlend in2="effect2_innerShadow_4002_1813" result="effect3_innerShadow_4002_1813"/></filter><filter id="filter17_f_4002_1813" width=".795" height=".703" x="16.689" y="9.548" color-interpolation-filters="sRGB" filterUnits="userSpaceOnUse"><feFlood flood-opacity="0" result="BackgroundImageFix"/><feBlend in="SourceGraphic" in2="BackgroundImageFix" result="shape"/><feGaussianBlur result="effect1_foregroundBlur_4002_1813" stdDeviation=".05"/></filter><filter id="filter18_f_4002_1813" width=".898" height=".921" x="17.543" y="9.626" color-interpolation-filters="sRGB" filterUnits="userSpaceOnUse"><feFlood flood-opacity="0" result="BackgroundImageFix"/><feBlend in="SourceGraphic" in2="BackgroundImageFix" result="shape"/><feGaussianBlur result="effect1_foregroundBlur_4002_1813" stdDeviation=".1"/></filter><filter id="filter19_f_4002_1813" width=".995" height="1.05" x="13.035" y="9.562" color-interpolation-filters="sRGB" filterUnits="userSpaceOnUse"><feFlood flood-opacity="0" result="BackgroundImageFix"/><feBlend in="SourceGraphic" in2="BackgroundImageFix" result="shape"/><feGaussianBlur result="effect1_foregroundBlur_4002_1813" stdDeviation=".1"/></filter><filter id="filter20_f_4002_1813" width=".923" height=".712" x="12.268" y="9.54" color-interpolation-filters="sRGB" filterUnits="userSpaceOnUse"><feFlood flood-opacity="0" result="BackgroundImageFix"/><feBlend in="SourceGraphic" in2="BackgroundImageFix" result="shape"/><feGaussianBlur result="effect1_foregroundBlur_4002_1813" stdDeviation=".05"/></filter><filter id="filter21_i_4002_1813" width="4.468" height="5.556" x="22.673" y="24.447" color-interpolation-filters="sRGB" filterUnits="userSpaceOnUse"><feFlood flood-opacity="0" result="BackgroundImageFix"/><feBlend in="SourceGraphic" in2="BackgroundImageFix" result="shape"/><feColorMatrix in="SourceAlpha" result="hardAlpha" values="0 0 0 0 0 0 0 0 0 0 0 0 0 0 0 0 0 0 127 0"/><feOffset dx=".15" dy="-.15"/><feGaussianBlur stdDeviation=".5"/><feComposite in2="hardAlpha" k2="-1" k3="1" operator="arithmetic"/><feColorMatrix values="0 0 0 0 0.729412 0 0 0 0 0.509804 0 0 0 0 0.603922 0 0 0 1 0"/><feBlend in2="shape" result="effect1_innerShadow_4002_1813"/></filter><filter id="filter22_f_4002_1813" width="2.097" height=".3" x="23.044" y="25.831" color-interpolation-filters="sRGB" filterUnits="userSpaceOnUse"><feFlood flood-opacity="0" result="BackgroundImageFix"/><feBlend in="SourceGraphic" in2="BackgroundImageFix" result="shape"/><feGaussianBlur result="effect1_foregroundBlur_4002_1813" stdDeviation=".05"/></filter><filter id="filter23_f_4002_1813" width="2.097" height=".3" x="22.965" y="27.136" color-interpolation-filters="sRGB" filterUnits="userSpaceOnUse"><feFlood flood-opacity="0" result="BackgroundImageFix"/><feBlend in="SourceGraphic" in2="BackgroundImageFix" result="shape"/><feGaussianBlur result="effect1_foregroundBlur_4002_1813" stdDeviation=".05"/></filter><filter id="filter24_f_4002_1813" width="2.097" height=".3" x="23.044" y="28.441" color-interpolation-filters="sRGB" filterUnits="userSpaceOnUse"><feFlood flood-opacity="0" result="BackgroundImageFix"/><feBlend in="SourceGraphic" in2="BackgroundImageFix" result="shape"/><feGaussianBlur result="effect1_foregroundBlur_4002_1813" stdDeviation=".05"/></filter><linearGradient id="paint2_linear_4002_1813" x1="15.139" x2="15.139" y1="4.033" y2="4.087" gradientUnits="userSpaceOnUse"><stop stop-color="#4E2D3A"/><stop offset="1" stop-color="#4E2D3A" stop-opacity="0"/></linearGradient><linearGradient id="paint5_linear_4002_1813" x1="8.159" x2="4.568" y1="28.458" y2="28.458" gradientUnits="userSpaceOnUse"><stop stop-color="#399965"/><stop offset="1" stop-color="#5CC585"/></linearGradient><linearGradient id="paint7_linear_4002_1813" x1="25.721" x2="22.179" y1="22.888" y2="29.194" gradientUnits="userSpaceOnUse"><stop stop-color="#63D591"/><stop offset="1" stop-color="#368D6E"/></linearGradient><linearGradient id="paint10_linear_4002_1813" x1="19.219" x2="18.284" y1="18.52" y2="18.52" gradientUnits="userSpaceOnUse"><stop stop-color="#5AA37A"/><stop offset="1" stop-color="#5AA37A" stop-opacity="0"/></linearGradient><linearGradient id="paint12_linear_4002_1813" x1="11.219" x2="11.553" y1="18.52" y2="18.52" gradientUnits="userSpaceOnUse"><stop offset=".143" stop-color="#6A9E7E"/><stop offset="1" stop-color="#6A9E7E" stop-opacity="0"/></linearGradient><linearGradient id="paint18_linear_4002_1813" x1="9.93" x2="10.844" y1="12.203" y2="14.425" gradientUnits="userSpaceOnUse"><stop stop-color="#3F312F"/><stop offset="1" stop-color="#241C29"/></linearGradient><linearGradient id="paint21_linear_4002_1813" x1="21.145" x2="20.039" y1="9.783" y2="12.283" gradientUnits="userSpaceOnUse"><stop stop-color="#EDC0AB"/><stop offset="1" stop-color="#E9B69F"/></linearGradient><linearGradient id="paint24_linear_4002_1813" x1="16.381" x2="15.169" y1="29.145" y2="22.02" gradientUnits="userSpaceOnUse"><stop stop-color="#3560C5"/><stop offset="1" stop-color="#329FEA"/></linearGradient><linearGradient id="paint26_linear_4002_1813" x1="22.233" x2="22.006" y1="29.677" y2="29.677" gradientUnits="userSpaceOnUse"><stop stop-color="#356EBB"/><stop offset="1" stop-color="#356EBB" stop-opacity="0"/></linearGradient><linearGradient id="paint27_linear_4002_1813" x1="8.159" x2="8.283" y1="29.677" y2="29.677" gradientUnits="userSpaceOnUse"><stop stop-color="#356EBB"/><stop offset="1" stop-color="#356EBB" stop-opacity="0"/></linearGradient><linearGradient id="paint29_linear_4002_1813" x1="13.006" x2="19.537" y1="28.364" y2="28.364" gradientUnits="userSpaceOnUse"><stop stop-color="#3CA9FF"/><stop offset="1" stop-color="#389DFF"/></linearGradient><linearGradient id="paint35_linear_4002_1813" x1="16.054" x2="15.219" y1="11.623" y2="11.661" gradientUnits="userSpaceOnUse"><stop offset=".36" stop-color="#FFDFC7"/><stop offset="1" stop-color="#FFDFC7" stop-opacity="0"/></linearGradient><linearGradient id="paint37_linear_4002_1813" x1="15.219" x2="15.219" y1="12.682" y2="12.25" gradientUnits="userSpaceOnUse"><stop stop-color="#D89793"/><stop offset="1" stop-color="#D89793" stop-opacity="0"/></linearGradient><linearGradient id="paint39_linear_4002_1813" x1="15.219" x2="15.219" y1="10.048" y2="10.676" gradientUnits="userSpaceOnUse"><stop stop-color="#E8BBA8"/><stop offset="1" stop-color="#E8BBA8" stop-opacity="0"/></linearGradient><linearGradient id="paint40_linear_4002_1813" x1="13.876" x2="14.23" y1="14.244" y2="13.338" gradientUnits="userSpaceOnUse"><stop stop-color="#DFACA3"/><stop offset="1" stop-color="#DFACA3" stop-opacity="0"/></linearGradient><linearGradient id="paint45_linear_4002_1813" x1="24.829" x2="24.829" y1="21.614" y2="24.794" gradientUnits="userSpaceOnUse"><stop stop-color="#784853"/><stop offset=".997" stop-color="#7D5248"/></linearGradient><linearGradient id="paint49_linear_4002_1813" x1="24.857" x2="24.857" y1="22.317" y2="21.724" gradientUnits="userSpaceOnUse"><stop stop-color="#89829D"/><stop offset="1" stop-color="#89829D" stop-opacity="0"/></linearGradient><linearGradient id="paint52_linear_4002_1813" x1="18.222" x2="17.904" y1="10.048" y2="10.244" gradientUnits="userSpaceOnUse"><stop stop-color="#B4948D"/><stop offset="1" stop-color="#B4948D" stop-opacity="0"/></linearGradient><linearGradient id="paint54_linear_4002_1813" x1="13.76" x2="13.441" y1="10.048" y2="10.244" gradientUnits="userSpaceOnUse"><stop stop-color="#B4948D"/><stop offset="1" stop-color="#B4948D" stop-opacity="0"/></linearGradient><linearGradient id="paint56_linear_4002_1813" x1="26.701" x2="22.673" y1="28.066" y2="28.066" gradientUnits="userSpaceOnUse"><stop offset=".146" stop-color="#FFD7BF"/><stop offset=".861" stop-color="#D8A696"/></linearGradient><linearGradient id="paint61_linear_4002_1813" x1="23.194" x2="24.903" y1="26.06" y2="26.06" gradientUnits="userSpaceOnUse"><stop stop-color="#CA8B73"/><stop offset="1" stop-color="#CA8B73" stop-opacity="0"/></linearGradient><linearGradient id="paint62_linear_4002_1813" x1="23.115" x2="24.825" y1="27.364" y2="27.364" gradientUnits="userSpaceOnUse"><stop stop-color="#CA8B73"/><stop offset="1" stop-color="#CA8B73" stop-opacity="0"/></linearGradient><linearGradient id="paint63_linear_4002_1813" x1="23.194" x2="24.903" y1="28.669" y2="28.669" gradientUnits="userSpaceOnUse"><stop stop-color="#CA8B73"/><stop offset="1" stop-color="#CA8B73" stop-opacity="0"/></linearGradient></defs></svg>