<svg xmlns="http://www.w3.org/2000/svg" width="32" height="32" fill="none" viewBox="0 0 32 32"><path fill="url(#paint0_radial_4002_937)" d="M2.063 29.863c0-1.969.39-6.76 3.216-9.86C8.81 16.13 13.793 15.55 16 15.55c2.207 0 7.19.579 10.721 4.454 2.826 3.1 3.216 7.89 3.216 9.859H2.063Z"/><path fill="url(#paint1_radial_4002_937)" d="M2.063 29.863c0-1.969.39-6.76 3.216-9.86C8.81 16.13 13.793 15.55 16 15.55c2.207 0 7.19.579 10.721 4.454 2.826 3.1 3.216 7.89 3.216 9.859H2.063Z"/><g filter="url(#filter0_f_4002_937)"><path fill="url(#paint2_linear_4002_937)" d="M3.344 29.863c0-1.887.355-6.479 2.92-9.45 3.207-3.715 7.732-4.269 9.736-4.269 2.004 0 6.529.554 9.736 4.269 2.565 2.971 2.92 7.563 2.92 9.45H3.344Z"/></g><path fill="url(#paint3_radial_4002_937)" d="M15.875 15.6c-6.228 0-11.584 4.187-11.992 14.281v.035h23.984v-.035C27.46 19.787 22.103 15.6 15.875 15.6Z"/><path fill="url(#paint4_radial_4002_937)" d="M15.875 15.6c-6.228 0-11.584 4.187-11.992 14.281v.035h23.984v-.035C27.46 19.787 22.103 15.6 15.875 15.6Z"/><path fill="#4E9EFF" d="M23.523 18.43v11.486h4.344v-.035c-.22-5.448-1.882-9.175-4.344-11.452Z"/><path fill="url(#paint5_linear_4002_937)" d="M23.523 18.43v11.486h4.344v-.035c-.22-5.448-1.882-9.175-4.344-11.452Z"/><path fill="url(#paint6_radial_4002_937)" d="M23.523 18.43v11.486h4.344v-.035c-.22-5.448-1.882-9.175-4.344-11.452Z"/><path fill="url(#paint7_radial_4002_937)" d="M23.523 18.43v11.486h4.344v-.035c-.22-5.448-1.882-9.175-4.344-11.452Z"/><path fill="url(#paint8_linear_4002_937)" d="M8.227 18.43v11.486H3.883v-.035c.22-5.448 1.882-9.175 4.344-11.452Z"/><path fill="url(#paint9_radial_4002_937)" d="M8.227 18.43v11.486H3.883v-.035c.22-5.448 1.882-9.175 4.344-11.452Z"/><path fill="url(#paint10_radial_4002_937)" d="M8.227 18.43v11.486H3.883v-.035c.22-5.448 1.882-9.175 4.344-11.452Z"/><path fill="url(#paint11_radial_4002_937)" d="M8.227 18.43v11.486H3.883v-.035c.22-5.448 1.882-9.175 4.344-11.452Z"/><g filter="url(#filter1_f_4002_937)"><path fill="#2F63D5" d="M12.718 23.381a.885.885 0 0 0-.762 1.334l2.143 3.637a1.49 1.49 0 0 0 2.567 0l2.143-3.637a.885.885 0 0 0-.762-1.334h-5.329Z"/></g><g filter="url(#filter2_iii_4002_937)"><path fill="url(#paint12_linear_4002_937)" d="M12.975 22.96a.95.95 0 0 0-.819 1.431l2.301 3.907a1.6 1.6 0 0 0 2.758 0l2.3-3.907a.95.95 0 0 0-.818-1.432h-5.722Z"/><path fill="url(#paint13_linear_4002_937)" d="M12.975 22.96a.95.95 0 0 0-.819 1.431l2.301 3.907a1.6 1.6 0 0 0 2.758 0l2.3-3.907a.95.95 0 0 0-.818-1.432h-5.722Z"/></g><path fill="url(#paint14_radial_4002_937)" d="M12.975 22.96a.95.95 0 0 0-.819 1.431l2.301 3.907a1.6 1.6 0 0 0 2.758 0l2.3-3.907a.95.95 0 0 0-.818-1.432h-5.722Z"/><g filter="url(#filter3_f_4002_937)"><ellipse cx="15.552" cy="20.225" fill="#2F62B7" rx="1.048" ry="1.055"/></g><g filter="url(#filter4_i_4002_937)"><path fill="url(#paint15_linear_4002_937)" d="m15.836 20.397-5.04-3.024c-.323-.2-.663-.512-.663-.98 0-.496.584-.533.885-.543l4.818-.078 4.818.078c.3.01.885.047.885.543 0 .468-.34.78-.664.98l-5.04 3.024Z"/><path fill="url(#paint16_radial_4002_937)" d="m15.836 20.397-5.04-3.024c-.323-.2-.663-.512-.663-.98 0-.496.584-.533.885-.543l4.818-.078 4.818.078c.3.01.885.047.885.543 0 .468-.34.78-.664.98l-5.04 3.024Z"/><path fill="url(#paint17_radial_4002_937)" d="m15.836 20.397-5.04-3.024c-.323-.2-.663-.512-.663-.98 0-.496.584-.533.885-.543l4.818-.078 4.818.078c.3.01.885.047.885.543 0 .468-.34.78-.664.98l-5.04 3.024Z"/></g><ellipse cx="15.836" cy="20.131" fill="url(#paint18_radial_4002_937)" rx="1.048" ry="1.055"/><ellipse cx="15.836" cy="20.131" fill="url(#paint19_radial_4002_937)" rx="1.048" ry="1.055"/><path fill="url(#paint20_radial_4002_937)" d="M20.714 12.216c.337-.01.652-.124.908-.31v.935a2.18 2.18 0 0 1-1.346 2.026 4.1 4.1 0 0 0 .348-1.184l.09-1.466Z"/><path fill="url(#paint21_radial_4002_937)" d="M10.957 12.216a1.646 1.646 0 0 1-.908-.31v.935a2.18 2.18 0 0 0 1.346 2.026 4.1 4.1 0 0 1-.347-1.184l-.09-1.466Z"/><rect width="4.109" height="5.399" x="13.776" y="13.26" fill="url(#paint22_radial_4002_937)" rx="2.055"/><g filter="url(#filter5_ii_4002_937)"><path fill="url(#paint23_linear_4002_937)" d="M20.708 4.296c.516.177.98.538 1.272 1.055.468.823.4 1.808-.107 2.535a1.565 1.565 0 0 0-.27.877v1.193a1.751 1.751 0 0 0-.67-.27l.078-1.612a1.455 1.455 0 0 0-1.384-1.437h-1.405a2.431 2.431 0 0 1-2.22-1.448.666.666 0 0 0-.617-.42h-1.277c-1.853 0-3.354 1.518-3.354 3.392l.031 1.542a1.717 1.717 0 0 0-.723.265V8.763c0-.312-.095-.619-.27-.877a2.399 2.399 0 0 1-.145-2.454 2.353 2.353 0 0 1 1.304-1.13 2.69 2.69 0 0 0 1.39-1.115 2.334 2.334 0 0 1 2.9-.915c.384.167.815.167 1.198 0a2.36 2.36 0 0 1 .916-.189c.846 0 1.586.458 1.996 1.136a2.53 2.53 0 0 0 1.357 1.077Z"/></g><g filter="url(#filter6_ii_4002_937)"><path fill="url(#paint24_linear_4002_937)" d="M20.708 4.296c.516.177.98.538 1.272 1.055.468.823.4 1.808-.107 2.535a1.565 1.565 0 0 0-.27.877v1.193a1.751 1.751 0 0 0-.67-.27l.078-1.612a1.455 1.455 0 0 0-1.384-1.437h-1.405a2.431 2.431 0 0 1-2.22-1.448.666.666 0 0 0-.617-.42h-1.277c-1.853 0-3.354 1.518-3.354 3.392l.031 1.542a1.717 1.717 0 0 0-.723.265V8.763c0-.312-.095-.619-.27-.877a2.399 2.399 0 0 1-.145-2.454 2.353 2.353 0 0 1 1.304-1.13 2.69 2.69 0 0 0 1.39-1.115 2.334 2.334 0 0 1 2.9-.915c.384.167.815.167 1.198 0a2.36 2.36 0 0 1 .916-.189c.846 0 1.586.458 1.996 1.136a2.53 2.53 0 0 0 1.357 1.077Z"/><path fill="url(#paint25_radial_4002_937)" d="M20.708 4.296c.516.177.98.538 1.272 1.055.468.823.4 1.808-.107 2.535a1.565 1.565 0 0 0-.27.877v1.193a1.751 1.751 0 0 0-.67-.27l.078-1.612a1.455 1.455 0 0 0-1.384-1.437h-1.405a2.431 2.431 0 0 1-2.22-1.448.666.666 0 0 0-.617-.42h-1.277c-1.853 0-3.354 1.518-3.354 3.392l.031 1.542a1.717 1.717 0 0 0-.723.265V8.763c0-.312-.095-.619-.27-.877a2.399 2.399 0 0 1-.145-2.454 2.353 2.353 0 0 1 1.304-1.13 2.69 2.69 0 0 0 1.39-1.115 2.334 2.334 0 0 1 2.9-.915c.384.167.815.167 1.198 0a2.36 2.36 0 0 1 .916-.189c.846 0 1.586.458 1.996 1.136a2.53 2.53 0 0 0 1.357 1.077Z"/><path fill="url(#paint26_radial_4002_937)" d="M20.708 4.296c.516.177.98.538 1.272 1.055.468.823.4 1.808-.107 2.535a1.565 1.565 0 0 0-.27.877v1.193a1.751 1.751 0 0 0-.67-.27l.078-1.612a1.455 1.455 0 0 0-1.384-1.437h-1.405a2.431 2.431 0 0 1-2.22-1.448.666.666 0 0 0-.617-.42h-1.277c-1.853 0-3.354 1.518-3.354 3.392l.031 1.542a1.717 1.717 0 0 0-.723.265V8.763c0-.312-.095-.619-.27-.877a2.399 2.399 0 0 1-.145-2.454 2.353 2.353 0 0 1 1.304-1.13 2.69 2.69 0 0 0 1.39-1.115 2.334 2.334 0 0 1 2.9-.915c.384.167.815.167 1.198 0a2.36 2.36 0 0 1 .916-.189c.846 0 1.586.458 1.996 1.136a2.53 2.53 0 0 0 1.357 1.077Z"/><path fill="url(#paint27_radial_4002_937)" d="M20.708 4.296c.516.177.98.538 1.272 1.055.468.823.4 1.808-.107 2.535a1.565 1.565 0 0 0-.27.877v1.193a1.751 1.751 0 0 0-.67-.27l.078-1.612a1.455 1.455 0 0 0-1.384-1.437h-1.405a2.431 2.431 0 0 1-2.22-1.448.666.666 0 0 0-.617-.42h-1.277c-1.853 0-3.354 1.518-3.354 3.392l.031 1.542a1.717 1.717 0 0 0-.723.265V8.763c0-.312-.095-.619-.27-.877a2.399 2.399 0 0 1-.145-2.454 2.353 2.353 0 0 1 1.304-1.13 2.69 2.69 0 0 0 1.39-1.115 2.334 2.334 0 0 1 2.9-.915c.384.167.815.167 1.198 0a2.36 2.36 0 0 1 .916-.189c.846 0 1.586.458 1.996 1.136a2.53 2.53 0 0 0 1.357 1.077Z"/><path fill="url(#paint28_radial_4002_937)" d="M20.708 4.296c.516.177.98.538 1.272 1.055.468.823.4 1.808-.107 2.535a1.565 1.565 0 0 0-.27.877v1.193a1.751 1.751 0 0 0-.67-.27l.078-1.612a1.455 1.455 0 0 0-1.384-1.437h-1.405a2.431 2.431 0 0 1-2.22-1.448.666.666 0 0 0-.617-.42h-1.277c-1.853 0-3.354 1.518-3.354 3.392l.031 1.542a1.717 1.717 0 0 0-.723.265V8.763c0-.312-.095-.619-.27-.877a2.399 2.399 0 0 1-.145-2.454 2.353 2.353 0 0 1 1.304-1.13 2.69 2.69 0 0 0 1.39-1.115 2.334 2.334 0 0 1 2.9-.915c.384.167.815.167 1.198 0a2.36 2.36 0 0 1 .916-.189c.846 0 1.586.458 1.996 1.136a2.53 2.53 0 0 0 1.357 1.077Z"/></g><g filter="url(#filter7_i_4002_937)"><circle cx="11.101" cy="10.662" r="1.682" fill="url(#paint29_radial_4002_937)"/></g><circle cx="20.57" cy="10.662" r="1.682" fill="url(#paint30_radial_4002_937)"/><circle cx="20.57" cy="10.662" r="1.682" fill="url(#paint31_radial_4002_937)"/><g filter="url(#filter8_f_4002_937)"><circle cx="11.101" cy="10.662" r="1.146" fill="url(#paint32_linear_4002_937)"/></g><g filter="url(#filter9_f_4002_937)"><circle cx="20.57" cy="10.662" r="1.146" fill="url(#paint33_radial_4002_937)"/></g><g filter="url(#filter10_ii_4002_937)"><path fill="url(#paint34_radial_4002_937)" d="M10.993 13.737a3.93 3.93 0 0 0 3.9 3.418h1.893a3.93 3.93 0 0 0 3.9-3.418c.118-1.89.237-3.773.325-5.663a1.455 1.455 0 0 0-1.384-1.437h-1.405a2.431 2.431 0 0 1-2.22-1.448.666.666 0 0 0-.617-.42h-1.277c-1.853 0-3.354 1.518-3.354 3.391 0 1.868.117 3.705.24 5.577Z"/><path fill="url(#paint35_radial_4002_937)" d="M10.993 13.737a3.93 3.93 0 0 0 3.9 3.418h1.893a3.93 3.93 0 0 0 3.9-3.418c.118-1.89.237-3.773.325-5.663a1.455 1.455 0 0 0-1.384-1.437h-1.405a2.431 2.431 0 0 1-2.22-1.448.666.666 0 0 0-.617-.42h-1.277c-1.853 0-3.354 1.518-3.354 3.391 0 1.868.117 3.705.24 5.577Z"/></g><path fill="url(#paint36_radial_4002_937)" d="M10.993 13.737a3.93 3.93 0 0 0 3.9 3.418h1.893a3.93 3.93 0 0 0 3.9-3.418c.118-1.89.237-3.773.325-5.663a1.455 1.455 0 0 0-1.384-1.437h-1.405a2.431 2.431 0 0 1-2.22-1.448.666.666 0 0 0-.617-.42h-1.277c-1.853 0-3.354 1.518-3.354 3.391 0 1.868.117 3.705.24 5.577Z"/><path fill="url(#paint37_radial_4002_937)" d="M10.993 13.737a3.93 3.93 0 0 0 3.9 3.418h1.893a3.93 3.93 0 0 0 3.9-3.418c.118-1.89.237-3.773.325-5.663a1.455 1.455 0 0 0-1.384-1.437h-1.405a2.431 2.431 0 0 1-2.22-1.448.666.666 0 0 0-.617-.42h-1.277c-1.853 0-3.354 1.518-3.354 3.391 0 1.868.117 3.705.24 5.577Z"/><path fill="url(#paint38_radial_4002_937)" d="M10.993 13.737a3.93 3.93 0 0 0 3.9 3.418h1.893a3.93 3.93 0 0 0 3.9-3.418c.118-1.89.237-3.773.325-5.663a1.455 1.455 0 0 0-1.384-1.437h-1.405a2.431 2.431 0 0 1-2.22-1.448.666.666 0 0 0-.617-.42h-1.277c-1.853 0-3.354 1.518-3.354 3.391 0 1.868.117 3.705.24 5.577Z"/><path fill="url(#paint39_radial_4002_937)" d="M10.993 13.737a3.93 3.93 0 0 0 3.9 3.418h1.893a3.93 3.93 0 0 0 3.9-3.418c.118-1.89.237-3.773.325-5.663a1.455 1.455 0 0 0-1.384-1.437h-1.405a2.431 2.431 0 0 1-2.22-1.448.666.666 0 0 0-.617-.42h-1.277c-1.853 0-3.354 1.518-3.354 3.391 0 1.868.117 3.705.24 5.577Z"/><g filter="url(#filter11_f_4002_937)"><path fill="#E0A395" d="m15.348 10.441-.637 1.845c-.11.38.152.76.522.76h.79c.37 0 .63-.386.522-.76l-.986-.516.453-1.329c-.115-.408-.544-.408-.664 0Z"/></g><path fill="url(#paint40_linear_4002_937)" d="M10.845 11.277h.362c.186 0 .362.04.529.12l.244.12c.089.04.177.08.265.11l.215.07c.42.13.87.14 1.292.02l.274-.08c.107-.03.215-.07.313-.12l.225-.11a1.2 1.2 0 0 1 .528-.12h.06l.283-.94a.402.402 0 0 1 .773 0l.284.94h.039c.186 0 .362.04.528.12l.206.1c.107.05.225.1.342.13l.304.09c.42.12.88.11 1.291-.04l.176-.06.235-.09.265-.12a1.2 1.2 0 0 1 .528-.12h.43c.054-.887.104-1.773.148-2.66h-.48c-.245-.02-.49-.1-.705-.24l-.049-.03a2.191 2.191 0 0 0-.548-.28 2.11 2.11 0 0 0-1.291-.04l-.128.03c-.235.07-.46.17-.665.32-.205.15-.45.22-.705.22H15.2c-.254 0-.5-.08-.705-.22l-.01-.01a2.217 2.217 0 0 0-.635-.31l-.088-.03a2.19 2.19 0 0 0-1.292.02l-.04.01c-.205.07-.4.17-.586.29l-.03.03c-.215.14-.46.22-.714.22h-.343c.009.89.042 1.774.088 2.66Z"/><path fill="url(#paint41_linear_4002_937)" d="M10.845 11.277h.362c.186 0 .362.04.529.12l.244.12c.089.04.177.08.265.11l.215.07c.42.13.87.14 1.292.02l.274-.08c.107-.03.215-.07.313-.12l.225-.11a1.2 1.2 0 0 1 .528-.12h.06l.283-.94a.402.402 0 0 1 .773 0l.284.94h.039c.186 0 .362.04.528.12l.206.1c.107.05.225.1.342.13l.304.09c.42.12.88.11 1.291-.04l.176-.06.235-.09.265-.12a1.2 1.2 0 0 1 .528-.12h.43c.054-.887.104-1.773.148-2.66h-.48c-.245-.02-.49-.1-.705-.24l-.049-.03a2.191 2.191 0 0 0-.548-.28 2.11 2.11 0 0 0-1.291-.04l-.128.03c-.235.07-.46.17-.665.32-.205.15-.45.22-.705.22H15.2c-.254 0-.5-.08-.705-.22l-.01-.01a2.217 2.217 0 0 0-.635-.31l-.088-.03a2.19 2.19 0 0 0-1.292.02l-.04.01c-.205.07-.4.17-.586.29l-.03.03c-.215.14-.46.22-.714.22h-.343c.009.89.042 1.774.088 2.66Z"/><g filter="url(#filter12_i_4002_937)"><path fill="#F7C1A9" d="m15.452 10.245-.533 1.845c-.11.38.152.759.522.759h.79c.37 0 .63-.386.522-.76l-.534-1.844c-.114-.409-.647-.409-.767 0Z"/><path fill="url(#paint42_radial_4002_937)" d="m15.452 10.245-.533 1.845c-.11.38.152.759.522.759h.79c.37 0 .63-.386.522-.76l-.534-1.844c-.114-.409-.647-.409-.767 0Z"/></g><g filter="url(#filter13_f_4002_937)"><path stroke="url(#paint43_radial_4002_937)" stroke-width=".2" d="M15.836 13.87c-.51 0-.988-.12-1.39-.33-.138-.07-.286.084-.2.21a1.9 1.9 0 0 0 1.59.848 1.9 1.9 0 0 0 1.589-.849c.086-.13-.061-.28-.199-.21a3 3 0 0 1-1.39.33Z"/></g><path fill="#89024E" d="M15.836 13.87c-.51 0-.988-.12-1.39-.33-.138-.07-.286.084-.2.21a1.9 1.9 0 0 0 1.59.848 1.9 1.9 0 0 0 1.589-.849c.086-.13-.061-.28-.199-.21a3 3 0 0 1-1.39.33Z"/><g filter="url(#filter14_if_4002_937)"><path fill="#23181C" d="M16.069 5.17a2.556 2.556 0 0 1-.066-.137.666.666 0 0 0-.618-.42h-1.277c-1.853 0-3.354 1.518-3.354 3.391v.276c-.34-.26-.77-.807-.77-1.693 0-1.076.785-1.62 1.285-1.967.141-.098.26-.18.332-.254a9.7 9.7 0 0 0 .1-.105c.35-.372.976-1.035 2.067-1.325a5.488 5.488 0 0 1 1.516-.165c.473.011.806.42.806.893v1.493l-.021.013Z"/><path fill="url(#paint44_radial_4002_937)" d="M16.069 5.17a2.556 2.556 0 0 1-.066-.137.666.666 0 0 0-.618-.42h-1.277c-1.853 0-3.354 1.518-3.354 3.391v.276c-.34-.26-.77-.807-.77-1.693 0-1.076.785-1.62 1.285-1.967.141-.098.26-.18.332-.254a9.7 9.7 0 0 0 .1-.105c.35-.372.976-1.035 2.067-1.325a5.488 5.488 0 0 1 1.516-.165c.473.011.806.42.806.893v1.493l-.021.013Z"/><path fill="url(#paint45_radial_4002_937)" d="M16.069 5.17a2.556 2.556 0 0 1-.066-.137.666.666 0 0 0-.618-.42h-1.277c-1.853 0-3.354 1.518-3.354 3.391v.276c-.34-.26-.77-.807-.77-1.693 0-1.076.785-1.62 1.285-1.967.141-.098.26-.18.332-.254a9.7 9.7 0 0 0 .1-.105c.35-.372.976-1.035 2.067-1.325a5.488 5.488 0 0 1 1.516-.165c.473.011.806.42.806.893v1.493l-.021.013Z"/></g><g filter="url(#filter15_if_4002_937)"><path fill="#1F151B" d="m21.081 8.586-.029-.634a1.46 1.46 0 0 0-1.383-1.43h-1.378A2.377 2.377 0 0 1 16.2 5.258s-.057-.136-.118-.368c-.253-.974.677-1.72 1.663-1.522.95.19 2.026.518 2.823 1.049 1.718 1.142 1.417 3.2.513 4.169Z"/><path fill="url(#paint46_radial_4002_937)" d="m21.081 8.586-.029-.634a1.46 1.46 0 0 0-1.383-1.43h-1.378A2.377 2.377 0 0 1 16.2 5.258s-.057-.136-.118-.368c-.253-.974.677-1.72 1.663-1.522.95.19 2.026.518 2.823 1.049 1.718 1.142 1.417 3.2.513 4.169Z"/></g><path fill="#fff" d="M18.235 9.291c.656 0 1.21.452 1.36 1.063a.275.275 0 0 1-.269.342h-2.239a.23.23 0 0 1-.228-.273 1.403 1.403 0 0 1 1.376-1.132Z"/><path fill="url(#paint47_radial_4002_937)" d="M18.028 9.564a.896.896 0 0 1 .863 1.132h-1.73a.9.9 0 0 1 .867-1.132Z"/><path fill="#000" d="M17.515 10.46a.51.51 0 0 1 .513-.513.51.51 0 0 1 .456.749h-.908a.464.464 0 0 1-.061-.236Z"/><g filter="url(#filter16_f_4002_937)"><path fill="#C7A7A3" d="M17.96 9.754c.064.085-.069.189-.22.302-.152.113-.264.193-.328.108-.063-.085.008-.246.16-.36.15-.113.325-.136.389-.05Z"/><path fill="url(#paint48_radial_4002_937)" d="M17.96 9.754c.064.085-.069.189-.22.302-.152.113-.264.193-.328.108-.063-.085.008-.246.16-.36.15-.113.325-.136.389-.05Z"/></g><g filter="url(#filter17_f_4002_937)"><path fill="url(#paint49_linear_4002_937)" d="M18.825 10.342a.843.843 0 0 0-.232-.465l-.26.287.117.229.375-.051Z"/></g><path fill="#fff" d="M13.436 9.291c-.655 0-1.209.452-1.36 1.063a.275.275 0 0 0 .27.342h2.238a.23.23 0 0 0 .228-.273 1.406 1.406 0 0 0-1.376-1.132Z"/><path fill="url(#paint50_radial_4002_937)" d="M13.644 9.564a.896.896 0 0 0-.863 1.132h1.73a.916.916 0 0 0 .033-.236.902.902 0 0 0-.9-.896Z"/><path fill="#000" d="M14.157 10.46a.51.51 0 0 0-.513-.513.51.51 0 0 0-.456.749h.908a.508.508 0 0 0 .06-.236Z"/><g filter="url(#filter18_f_4002_937)"><path fill="url(#paint51_linear_4002_937)" d="M14.461 10.354c0-.29-.235-.482-.298-.54l-.29.28.179.361.41-.101Z"/></g><g filter="url(#filter19_f_4002_937)" transform="rotate(-27.914 13.373 9.947)"><ellipse cx="13.373" cy="9.947" fill="#C7A7A3" fill-opacity=".9" rx=".391" ry=".198"/><ellipse cx="13.373" cy="9.947" fill="url(#paint52_radial_4002_937)" rx=".391" ry=".198"/></g><g filter="url(#filter20_f_4002_937)"><path fill="#504A4C" d="M20.104 5.571h-2.08a.483.483 0 1 1 .077-.961c.54.086 1.256.206 1.736.325 1.086.269 1.386.798 1.47 1.174a1.514 1.514 0 0 0-1.203-.538Z"/></g><defs><radialGradient id="paint0_radial_4002_937" cx="0" cy="0" r="1" gradientTransform="matrix(0 11.5824 -20.8203 0 16 18.28)" gradientUnits="userSpaceOnUse"><stop offset=".572" stop-color="#FF3B9A"/><stop offset="1" stop-color="#EE344D"/></radialGradient><radialGradient id="paint1_radial_4002_937" cx="0" cy="0" r="1" gradientTransform="rotate(124.924 1.252 11.006) scale(12.8824 12.131)" gradientUnits="userSpaceOnUse"><stop stop-color="#BF2370"/><stop offset="1" stop-color="#BF2370" stop-opacity="0"/></radialGradient><radialGradient id="paint3_radial_4002_937" cx="0" cy="0" r="1" gradientTransform="rotate(123.174 5.769 15.536) scale(11.5365 12.2083)" gradientUnits="userSpaceOnUse"><stop stop-color="#4690E6"/><stop offset="1" stop-color="#3E75E1"/></radialGradient><radialGradient id="paint4_radial_4002_937" cx="0" cy="0" r="1" gradientTransform="rotate(100.184 -.387 13.98) scale(5.30229 7.65346)" gradientUnits="userSpaceOnUse"><stop offset=".231" stop-color="#3062AC"/><stop offset="1" stop-color="#3A7AD3" stop-opacity="0"/></radialGradient><radialGradient id="paint6_radial_4002_937" cx="0" cy="0" r="1" gradientTransform="matrix(5.4375 0 0 14.5199 23.023 29.584)" gradientUnits="userSpaceOnUse"><stop offset=".698" stop-color="#528ADB" stop-opacity="0"/><stop offset="1" stop-color="#528ADB"/></radialGradient><radialGradient id="paint7_radial_4002_937" cx="0" cy="0" r="1" gradientTransform="matrix(0 -13.1762 .21924 0 23.523 29.916)" gradientUnits="userSpaceOnUse"><stop offset=".21" stop-color="#286ADF"/><stop offset="1" stop-color="#286ADF" stop-opacity="0"/></radialGradient><radialGradient id="paint9_radial_4002_937" cx="0" cy="0" r="1" gradientTransform="matrix(-5.6875 0 0 -13.3438 9.398 29.74)" gradientUnits="userSpaceOnUse"><stop offset=".813" stop-color="#407DBE" stop-opacity="0"/><stop offset="1" stop-color="#407DBE"/></radialGradient><radialGradient id="paint10_radial_4002_937" cx="0" cy="0" r="1" gradientTransform="matrix(.14062 -1.5668 5.45335 .48945 5.555 29.916)" gradientUnits="userSpaceOnUse"><stop stop-color="#3D71ED"/><stop offset="1" stop-color="#3D71ED" stop-opacity="0"/></radialGradient><radialGradient id="paint11_radial_4002_937" cx="0" cy="0" r="1" gradientTransform="matrix(-.21094 0 0 -15.1051 8.227 29.916)" gradientUnits="userSpaceOnUse"><stop stop-color="#2154CA"/><stop offset="1" stop-color="#2154CA" stop-opacity="0"/></radialGradient><radialGradient id="paint14_radial_4002_937" cx="0" cy="0" r="1" gradientTransform="matrix(-.70312 .54687 -.67794 -.87163 19.555 23.365)" gradientUnits="userSpaceOnUse"><stop offset=".073" stop-color="#53B7FF"/><stop offset="1" stop-color="#49A3FF" stop-opacity="0"/></radialGradient><radialGradient id="paint16_radial_4002_937" cx="0" cy="0" r="1" gradientTransform="matrix(-3.8125 0 0 -3.66953 14.21 15.96)" gradientUnits="userSpaceOnUse"><stop offset=".205" stop-color="#C31852"/><stop offset="1" stop-color="#C31852" stop-opacity="0"/></radialGradient><radialGradient id="paint17_radial_4002_937" cx="0" cy="0" r="1" gradientTransform="matrix(0 1.53125 -3 0 20.586 15.303)" gradientUnits="userSpaceOnUse"><stop offset=".184" stop-color="#F04451"/><stop offset="1" stop-color="#F04451" stop-opacity="0"/></radialGradient><radialGradient id="paint18_radial_4002_937" cx="0" cy="0" r="1" gradientTransform="rotate(126.363 3.374 13.883) scale(1.76569 1.94865)" gradientUnits="userSpaceOnUse"><stop stop-color="#FFF14E"/><stop offset="1" stop-color="#F2BB43"/></radialGradient><radialGradient id="paint19_radial_4002_937" cx="0" cy="0" r="1" gradientTransform="matrix(-.60938 1.5625 -1.96176 -.7651 16.21 19.71)" gradientUnits="userSpaceOnUse"><stop offset=".511" stop-color="#F6C546" stop-opacity="0"/><stop offset="1" stop-color="#D79D4A"/></radialGradient><radialGradient id="paint20_radial_4002_937" cx="0" cy="0" r="1" gradientTransform="rotate(69.657 1.746 20.762) scale(2.16155 2.56775)" gradientUnits="userSpaceOnUse"><stop offset=".356" stop-color="#3E3D3D"/><stop offset="1" stop-color="#221C27"/><stop offset="1" stop-color="#222024"/></radialGradient><radialGradient id="paint21_radial_4002_937" cx="0" cy="0" r="1" gradientTransform="matrix(-.75144 2.02673 -2.4076 -.89265 11.066 11.907)" gradientUnits="userSpaceOnUse"><stop offset=".356" stop-color="#3E3D3D"/><stop offset="1" stop-color="#221C27"/><stop offset="1" stop-color="#222024"/></radialGradient><radialGradient id="paint22_radial_4002_937" cx="0" cy="0" r="1" gradientTransform="rotate(41.072 -15.121 28.073) scale(2.76174 3.96201)" gradientUnits="userSpaceOnUse"><stop offset=".352" stop-color="#C38389"/><stop offset="1" stop-color="#E1A18F"/><stop offset="1" stop-color="#F4B4AB"/></radialGradient><radialGradient id="paint25_radial_4002_937" cx="0" cy="0" r="1" gradientTransform="matrix(0 -3.51379 8.88596 0 10.588 8.06)" gradientUnits="userSpaceOnUse"><stop offset=".536" stop-color="#3E3433"/><stop offset="1" stop-color="#3E3433" stop-opacity="0"/></radialGradient><radialGradient id="paint26_radial_4002_937" cx="0" cy="0" r="1" gradientTransform="matrix(.11446 -2.52148 4.46758 .2028 20.714 9.375)" gradientUnits="userSpaceOnUse"><stop stop-color="#4F4D4D"/><stop offset="1" stop-color="#4F4D4D" stop-opacity="0"/></radialGradient><radialGradient id="paint27_radial_4002_937" cx="0" cy="0" r="1" gradientTransform="rotate(-146.667 10.439 -1.45) scale(2.83334 2.07981)" gradientUnits="userSpaceOnUse"><stop stop-color="#5E5A5B"/><stop offset="1" stop-color="#5E5A5B" stop-opacity="0"/></radialGradient><radialGradient id="paint28_radial_4002_937" cx="0" cy="0" r="1" gradientTransform="matrix(.90833 1.48025 -3.42756 2.10327 14.927 1.478)" gradientUnits="userSpaceOnUse"><stop offset=".287" stop-color="#484646"/><stop offset="1" stop-color="#484646" stop-opacity="0"/></radialGradient><radialGradient id="paint29_radial_4002_937" cx="0" cy="0" r="1" gradientTransform="matrix(1.40308 0 0 2.07344 9.805 10.79)" gradientUnits="userSpaceOnUse"><stop stop-color="#CE9283"/><stop offset="1" stop-color="#C88974"/></radialGradient><radialGradient id="paint30_radial_4002_937" cx="0" cy="0" r="1" gradientTransform="rotate(135.637 9.114 9.47) scale(2.35218 2.04384)" gradientUnits="userSpaceOnUse"><stop stop-color="#F0BBA1"/><stop offset="1" stop-color="#ECB2A1"/></radialGradient><radialGradient id="paint31_radial_4002_937" cx="0" cy="0" r="1" gradientTransform="matrix(-.61743 .40625 -.65226 -.99132 21.188 10.131)" gradientUnits="userSpaceOnUse"><stop offset=".547" stop-color="#FFC6B3"/><stop offset="1" stop-color="#FFC6B3" stop-opacity="0"/></radialGradient><radialGradient id="paint33_radial_4002_937" cx="0" cy="0" r="1" gradientTransform="matrix(1.18316 -1.06048 .56444 .62974 20.306 11.036)" gradientUnits="userSpaceOnUse"><stop offset=".539" stop-color="#F6B6A0"/><stop offset="1" stop-color="#F4AF9A"/></radialGradient><radialGradient id="paint34_radial_4002_937" cx="0" cy="0" r="1" gradientTransform="matrix(-8.4375 0 0 -11.5896 19.46 10.962)" gradientUnits="userSpaceOnUse"><stop offset=".137" stop-color="#FFD9BF"/><stop offset=".715" stop-color="#D6A093"/></radialGradient><radialGradient id="paint35_radial_4002_937" cx="0" cy="0" r="1" gradientTransform="rotate(121.159 7.454 8.135) scale(3.38098 2.79127)" gradientUnits="userSpaceOnUse"><stop offset=".078" stop-color="#FCC8B2"/><stop offset="1" stop-color="#EAB197" stop-opacity="0"/><stop offset="1" stop-color="#FCC8B2" stop-opacity="0"/></radialGradient><radialGradient id="paint36_radial_4002_937" cx="0" cy="0" r="1" gradientTransform="matrix(4.21875 -4.1875 .99164 .99904 10.46 7.24)" gradientUnits="userSpaceOnUse"><stop offset=".12" stop-color="#AB7663"/><stop offset="1" stop-color="#B17F6C" stop-opacity="0"/></radialGradient><radialGradient id="paint37_radial_4002_937" cx="0" cy="0" r="1" gradientTransform="matrix(1.5544 -3.73297 9.67273 4.02772 14.328 17.352)" gradientUnits="userSpaceOnUse"><stop offset=".198" stop-color="#C99194"/><stop offset="1" stop-color="#C99194" stop-opacity="0"/></radialGradient><radialGradient id="paint38_radial_4002_937" cx="0" cy="0" r="1" gradientTransform="matrix(0 10.2176 -12.5359 0 15.883 7.326)" gradientUnits="userSpaceOnUse"><stop offset=".807" stop-color="#CA9297" stop-opacity="0"/><stop offset=".979" stop-color="#AA7481"/></radialGradient><radialGradient id="paint39_radial_4002_937" cx="0" cy="0" r="1" gradientTransform="matrix(-.48782 7.3125 -3.56778 -.23801 21.011 10.356)" gradientUnits="userSpaceOnUse"><stop stop-color="#FFD9BD"/><stop offset="1" stop-color="#FFCAB5" stop-opacity="0"/></radialGradient><radialGradient id="paint42_radial_4002_937" cx="0" cy="0" r="1" gradientTransform="matrix(-.47307 -4.01376 1.45513 -.1715 16.777 12.182)" gradientUnits="userSpaceOnUse"><stop offset=".166" stop-color="#FFCEB8"/><stop offset="1" stop-color="#FFCEB8" stop-opacity="0"/></radialGradient><radialGradient id="paint43_radial_4002_937" cx="0" cy="0" r="1" gradientTransform="matrix(.3484 -.62165 1.02917 .57679 14.705 14.263)" gradientUnits="userSpaceOnUse"><stop stop-color="#D39C8E"/><stop offset="1" stop-color="#D39C8E" stop-opacity="0"/></radialGradient><radialGradient id="paint44_radial_4002_937" cx="0" cy="0" r="1" gradientTransform="matrix(-2.20896 0 0 -.81983 16.09 3.589)" gradientUnits="userSpaceOnUse"><stop stop-color="#423C3F"/><stop offset="1" stop-color="#423C3F" stop-opacity="0"/></radialGradient><radialGradient id="paint45_radial_4002_937" cx="0" cy="0" r="1" gradientTransform="matrix(3.22962 -5.11358 5.66532 3.57809 10.386 7.545)" gradientUnits="userSpaceOnUse"><stop offset=".093" stop-color="#0B0306"/><stop offset=".311" stop-color="#1C0C20"/><stop offset="1" stop-color="#1C0C20" stop-opacity="0"/></radialGradient><radialGradient id="paint46_radial_4002_937" cx="0" cy="0" r="1" gradientTransform="matrix(3.1975 .381 -.16254 1.36408 17.67 6.071)" gradientUnits="userSpaceOnUse"><stop stop-color="#200E25"/><stop offset="1" stop-color="#200E25" stop-opacity="0"/></radialGradient><radialGradient id="paint47_radial_4002_937" cx="0" cy="0" r="1" gradientTransform="matrix(0 .8142 -1.29509 0 18.026 10.043)" gradientUnits="userSpaceOnUse"><stop offset=".802" stop-color="#7D574A"/><stop offset="1" stop-color="#694B43"/><stop offset="1" stop-color="#804D49"/><stop offset="1" stop-color="#664842"/></radialGradient><radialGradient id="paint48_radial_4002_937" cx="0" cy="0" r="1" gradientTransform="rotate(-127.812 11.378 .706) scale(.37917 .52204)" gradientUnits="userSpaceOnUse"><stop offset=".766" stop-color="#FFE6E2" stop-opacity="0"/><stop offset=".966" stop-color="#FFE6E2"/></radialGradient><radialGradient id="paint50_radial_4002_937" cx="0" cy="0" r="1" gradientTransform="matrix(0 .81425 -1.29515 0 13.646 10.043)" gradientUnits="userSpaceOnUse"><stop offset=".802" stop-color="#7D574A"/><stop offset="1" stop-color="#694B43"/><stop offset="1" stop-color="#804D49"/><stop offset="1" stop-color="#664842"/></radialGradient><radialGradient id="paint52_radial_4002_937" cx="0" cy="0" r="1" gradientTransform="matrix(-.00776 -.49554 .59566 -.00933 13.357 10.262)" gradientUnits="userSpaceOnUse"><stop offset=".766" stop-color="#FFE6E2" stop-opacity="0"/><stop offset=".966" stop-color="#FFE6E2"/></radialGradient><filter id="filter0_f_4002_937" width="25.813" height="14.219" x="3.094" y="15.894" color-interpolation-filters="sRGB" filterUnits="userSpaceOnUse"><feFlood flood-opacity="0" result="BackgroundImageFix"/><feBlend in="SourceGraphic" in2="BackgroundImageFix" result="shape"/><feGaussianBlur result="effect1_foregroundBlur_4002_937" stdDeviation=".125"/></filter><filter id="filter1_f_4002_937" width="9.1" height="7.705" x="10.832" y="22.381" color-interpolation-filters="sRGB" filterUnits="userSpaceOnUse"><feFlood flood-opacity="0" result="BackgroundImageFix"/><feBlend in="SourceGraphic" in2="BackgroundImageFix" result="shape"/><feGaussianBlur result="effect1_foregroundBlur_4002_937" stdDeviation=".5"/></filter><filter id="filter2_iii_4002_937" width="7.926" height="6.427" x="11.873" y="22.809" color-interpolation-filters="sRGB" filterUnits="userSpaceOnUse"><feFlood flood-opacity="0" result="BackgroundImageFix"/><feBlend in="SourceGraphic" in2="BackgroundImageFix" result="shape"/><feColorMatrix in="SourceAlpha" result="hardAlpha" values="0 0 0 0 0 0 0 0 0 0 0 0 0 0 0 0 0 0 127 0"/><feOffset dx="-.15" dy=".15"/><feGaussianBlur stdDeviation=".15"/><feComposite in2="hardAlpha" k2="-1" k3="1" operator="arithmetic"/><feColorMatrix values="0 0 0 0 0.282353 0 0 0 0 0.670588 0 0 0 0 1 0 0 0 1 0"/><feBlend in2="shape" result="effect1_innerShadow_4002_937"/><feColorMatrix in="SourceAlpha" result="hardAlpha" values="0 0 0 0 0 0 0 0 0 0 0 0 0 0 0 0 0 0 127 0"/><feOffset dx=".15" dy="-.15"/><feGaussianBlur stdDeviation=".3"/><feComposite in2="hardAlpha" k2="-1" k3="1" operator="arithmetic"/><feColorMatrix values="0 0 0 0 0.196078 0 0 0 0 0.407843 0 0 0 0 0.87451 0 0 0 1 0"/><feBlend in2="effect1_innerShadow_4002_937" result="effect2_innerShadow_4002_937"/><feColorMatrix in="SourceAlpha" result="hardAlpha" values="0 0 0 0 0 0 0 0 0 0 0 0 0 0 0 0 0 0 127 0"/><feOffset dx=".05" dy="-.05"/><feGaussianBlur stdDeviation=".1"/><feComposite in2="hardAlpha" k2="-1" k3="1" operator="arithmetic"/><feColorMatrix values="0 0 0 0 0.164706 0 0 0 0 0.317647 0 0 0 0 0.886275 0 0 0 1 0"/><feBlend in2="effect2_innerShadow_4002_937" result="effect3_innerShadow_4002_937"/></filter><filter id="filter3_f_4002_937" width="3.095" height="3.11" x="14.004" y="18.67" color-interpolation-filters="sRGB" filterUnits="userSpaceOnUse"><feFlood flood-opacity="0" result="BackgroundImageFix"/><feBlend in="SourceGraphic" in2="BackgroundImageFix" result="shape"/><feGaussianBlur result="effect1_foregroundBlur_4002_937" stdDeviation=".25"/></filter><filter id="filter4_i_4002_937" width="11.606" height="4.825" x="10.133" y="15.572" color-interpolation-filters="sRGB" filterUnits="userSpaceOnUse"><feFlood flood-opacity="0" result="BackgroundImageFix"/><feBlend in="SourceGraphic" in2="BackgroundImageFix" result="shape"/><feColorMatrix in="SourceAlpha" result="hardAlpha" values="0 0 0 0 0 0 0 0 0 0 0 0 0 0 0 0 0 0 127 0"/><feOffset dx=".2" dy="-.25"/><feGaussianBlur stdDeviation=".1"/><feComposite in2="hardAlpha" k2="-1" k3="1" operator="arithmetic"/><feColorMatrix values="0 0 0 0 0.803922 0 0 0 0 0.223529 0 0 0 0 0.533333 0 0 0 1 0"/><feBlend in2="shape" result="effect1_innerShadow_4002_937"/></filter><filter id="filter5_ii_4002_937" width="12.918" height="8.385" x="9.376" y="1.583" color-interpolation-filters="sRGB" filterUnits="userSpaceOnUse"><feFlood flood-opacity="0" result="BackgroundImageFix"/><feBlend in="SourceGraphic" in2="BackgroundImageFix" result="shape"/><feColorMatrix in="SourceAlpha" result="hardAlpha" values="0 0 0 0 0 0 0 0 0 0 0 0 0 0 0 0 0 0 127 0"/><feOffset dy="-.5"/><feGaussianBlur stdDeviation=".625"/><feComposite in2="hardAlpha" k2="-1" k3="1" operator="arithmetic"/><feColorMatrix values="0 0 0 0 0.266667 0 0 0 0 0.152941 0 0 0 0 0.184314 0 0 0 1 0"/><feBlend in2="shape" result="effect1_innerShadow_4002_937"/><feColorMatrix in="SourceAlpha" result="hardAlpha" values="0 0 0 0 0 0 0 0 0 0 0 0 0 0 0 0 0 0 127 0"/><feOffset dy="-.2"/><feGaussianBlur stdDeviation=".2"/><feComposite in2="hardAlpha" k2="-1" k3="1" operator="arithmetic"/><feColorMatrix values="0 0 0 0 0.258824 0 0 0 0 0.133333 0 0 0 0 0.172549 0 0 0 1 0"/><feBlend in2="effect1_innerShadow_4002_937" result="effect2_innerShadow_4002_937"/></filter><filter id="filter6_ii_4002_937" width="12.918" height="8.385" x="9.376" y="1.583" color-interpolation-filters="sRGB" filterUnits="userSpaceOnUse"><feFlood flood-opacity="0" result="BackgroundImageFix"/><feBlend in="SourceGraphic" in2="BackgroundImageFix" result="shape"/><feColorMatrix in="SourceAlpha" result="hardAlpha" values="0 0 0 0 0 0 0 0 0 0 0 0 0 0 0 0 0 0 127 0"/><feOffset dy="-.5"/><feGaussianBlur stdDeviation=".625"/><feComposite in2="hardAlpha" k2="-1" k3="1" operator="arithmetic"/><feColorMatrix values="0 0 0 0 0.137255 0 0 0 0 0.0901961 0 0 0 0 0.145098 0 0 0 1 0"/><feBlend in2="shape" result="effect1_innerShadow_4002_937"/><feColorMatrix in="SourceAlpha" result="hardAlpha" values="0 0 0 0 0 0 0 0 0 0 0 0 0 0 0 0 0 0 127 0"/><feOffset dy="-.2"/><feGaussianBlur stdDeviation=".2"/><feComposite in2="hardAlpha" k2="-1" k3="1" operator="arithmetic"/><feColorMatrix values="0 0 0 0 0.0784314 0 0 0 0 0.0352941 0 0 0 0 0.0470588 0 0 0 1 0"/><feBlend in2="effect1_innerShadow_4002_937" result="effect2_innerShadow_4002_937"/></filter><filter id="filter7_i_4002_937" width="3.463" height="3.363" x="9.42" y="8.981" color-interpolation-filters="sRGB" filterUnits="userSpaceOnUse"><feFlood flood-opacity="0" result="BackgroundImageFix"/><feBlend in="SourceGraphic" in2="BackgroundImageFix" result="shape"/><feColorMatrix in="SourceAlpha" result="hardAlpha" values="0 0 0 0 0 0 0 0 0 0 0 0 0 0 0 0 0 0 127 0"/><feOffset dx=".1"/><feGaussianBlur stdDeviation=".125"/><feComposite in2="hardAlpha" k2="-1" k3="1" operator="arithmetic"/><feColorMatrix values="0 0 0 0 0.862745 0 0 0 0 0.635294 0 0 0 0 0.564706 0 0 0 1 0"/><feBlend in2="shape" result="effect1_innerShadow_4002_937"/></filter><filter id="filter8_f_4002_937" width="2.793" height="2.793" x="9.705" y="9.266" color-interpolation-filters="sRGB" filterUnits="userSpaceOnUse"><feFlood flood-opacity="0" result="BackgroundImageFix"/><feBlend in="SourceGraphic" in2="BackgroundImageFix" result="shape"/><feGaussianBlur result="effect1_foregroundBlur_4002_937" stdDeviation=".125"/></filter><filter id="filter9_f_4002_937" width="2.893" height="2.893" x="19.124" y="9.216" color-interpolation-filters="sRGB" filterUnits="userSpaceOnUse"><feFlood flood-opacity="0" result="BackgroundImageFix"/><feBlend in="SourceGraphic" in2="BackgroundImageFix" result="shape"/><feGaussianBlur result="effect1_foregroundBlur_4002_937" stdDeviation=".15"/></filter><filter id="filter10_ii_4002_937" width="11.057" height="12.536" x="10.754" y="4.769" color-interpolation-filters="sRGB" filterUnits="userSpaceOnUse"><feFlood flood-opacity="0" result="BackgroundImageFix"/><feBlend in="SourceGraphic" in2="BackgroundImageFix" result="shape"/><feColorMatrix in="SourceAlpha" result="hardAlpha" values="0 0 0 0 0 0 0 0 0 0 0 0 0 0 0 0 0 0 127 0"/><feOffset dx="1"/><feGaussianBlur stdDeviation=".4"/><feComposite in2="hardAlpha" k2="-1" k3="1" operator="arithmetic"/><feColorMatrix values="0 0 0 0 0.905882 0 0 0 0 0.686275 0 0 0 0 0.6 0 0 0 1 0"/><feBlend in2="shape" result="effect1_innerShadow_4002_937"/><feColorMatrix in="SourceAlpha" result="hardAlpha" values="0 0 0 0 0 0 0 0 0 0 0 0 0 0 0 0 0 0 127 0"/><feOffset dy=".15"/><feGaussianBlur stdDeviation=".125"/><feComposite in2="hardAlpha" k2="-1" k3="1" operator="arithmetic"/><feColorMatrix values="0 0 0 0 0.823529 0 0 0 0 0.611765 0 0 0 0 0.517647 0 0 0 1 0"/><feBlend in2="effect1_innerShadow_4002_937" result="effect2_innerShadow_4002_937"/></filter><filter id="filter11_f_4002_937" width="2.884" height="3.91" x="14.186" y="9.635" color-interpolation-filters="sRGB" filterUnits="userSpaceOnUse"><feFlood flood-opacity="0" result="BackgroundImageFix"/><feBlend in="SourceGraphic" in2="BackgroundImageFix" result="shape"/><feGaussianBlur result="effect1_foregroundBlur_4002_937" stdDeviation=".25"/></filter><filter id="filter12_i_4002_937" width="2.184" height="3.11" x="14.894" y="9.738" color-interpolation-filters="sRGB" filterUnits="userSpaceOnUse"><feFlood flood-opacity="0" result="BackgroundImageFix"/><feBlend in="SourceGraphic" in2="BackgroundImageFix" result="shape"/><feColorMatrix in="SourceAlpha" result="hardAlpha" values="0 0 0 0 0 0 0 0 0 0 0 0 0 0 0 0 0 0 127 0"/><feOffset dx=".3" dy="-.2"/><feGaussianBlur stdDeviation=".3"/><feComposite in2="hardAlpha" k2="-1" k3="1" operator="arithmetic"/><feColorMatrix values="0 0 0 0 0.870588 0 0 0 0 0.631373 0 0 0 0 0.580392 0 0 0 1 0"/><feBlend in2="shape" result="effect1_innerShadow_4002_937"/></filter><filter id="filter13_f_4002_937" width="3.63" height="1.477" x="14.021" y="13.322" color-interpolation-filters="sRGB" filterUnits="userSpaceOnUse"><feFlood flood-opacity="0" result="BackgroundImageFix"/><feBlend in="SourceGraphic" in2="BackgroundImageFix" result="shape"/><feGaussianBlur result="effect1_foregroundBlur_4002_937" stdDeviation=".05"/></filter><filter id="filter14_if_4002_937" width="6.756" height="6.011" x="9.734" y="2.519" color-interpolation-filters="sRGB" filterUnits="userSpaceOnUse"><feFlood flood-opacity="0" result="BackgroundImageFix"/><feBlend in="SourceGraphic" in2="BackgroundImageFix" result="shape"/><feColorMatrix in="SourceAlpha" result="hardAlpha" values="0 0 0 0 0 0 0 0 0 0 0 0 0 0 0 0 0 0 127 0"/><feOffset dx=".4" dy=".2"/><feGaussianBlur stdDeviation=".2"/><feComposite in2="hardAlpha" k2="-1" k3="1" operator="arithmetic"/><feColorMatrix values="0 0 0 0 0.286275 0 0 0 0 0.243137 0 0 0 0 0.227451 0 0 0 1 0"/><feBlend in2="shape" result="effect1_innerShadow_4002_937"/><feGaussianBlur result="effect2_foregroundBlur_4002_937" stdDeviation=".125"/></filter><filter id="filter15_if_4002_937" width="6.269" height="5.75" x="15.79" y="3.086" color-interpolation-filters="sRGB" filterUnits="userSpaceOnUse"><feFlood flood-opacity="0" result="BackgroundImageFix"/><feBlend in="SourceGraphic" in2="BackgroundImageFix" result="shape"/><feColorMatrix in="SourceAlpha" result="hardAlpha" values="0 0 0 0 0 0 0 0 0 0 0 0 0 0 0 0 0 0 127 0"/><feOffset dx="-.1" dy=".2"/><feComposite in2="hardAlpha" k2="-1" k3="1" operator="arithmetic"/><feColorMatrix values="0 0 0 0 0.329412 0 0 0 0 0.305882 0 0 0 0 0.313726 0 0 0 1 0"/><feBlend in2="shape" result="effect1_innerShadow_4002_937"/><feGaussianBlur result="effect2_foregroundBlur_4002_937" stdDeviation=".125"/></filter><filter id="filter16_f_4002_937" width=".788" height=".697" x="17.289" y="9.602" color-interpolation-filters="sRGB" filterUnits="userSpaceOnUse"><feFlood flood-opacity="0" result="BackgroundImageFix"/><feBlend in="SourceGraphic" in2="BackgroundImageFix" result="shape"/><feGaussianBlur result="effect1_foregroundBlur_4002_937" stdDeviation=".05"/></filter><filter id="filter17_f_4002_937" width=".893" height=".915" x="18.132" y="9.677" color-interpolation-filters="sRGB" filterUnits="userSpaceOnUse"><feFlood flood-opacity="0" result="BackgroundImageFix"/><feBlend in="SourceGraphic" in2="BackgroundImageFix" result="shape"/><feGaussianBlur result="effect1_foregroundBlur_4002_937" stdDeviation=".1"/></filter><filter id="filter18_f_4002_937" width=".988" height="1.042" x="13.674" y="9.614" color-interpolation-filters="sRGB" filterUnits="userSpaceOnUse"><feFlood flood-opacity="0" result="BackgroundImageFix"/><feBlend in="SourceGraphic" in2="BackgroundImageFix" result="shape"/><feGaussianBlur result="effect1_foregroundBlur_4002_937" stdDeviation=".1"/></filter><filter id="filter19_f_4002_937" width=".915" height=".706" x="12.916" y="9.594" color-interpolation-filters="sRGB" filterUnits="userSpaceOnUse"><feFlood flood-opacity="0" result="BackgroundImageFix"/><feBlend in="SourceGraphic" in2="BackgroundImageFix" result="shape"/><feGaussianBlur result="effect1_foregroundBlur_4002_937" stdDeviation=".05"/></filter><filter id="filter20_f_4002_937" width="5.266" height="3.006" x="16.791" y="3.854" color-interpolation-filters="sRGB" filterUnits="userSpaceOnUse"><feFlood flood-opacity="0" result="BackgroundImageFix"/><feBlend in="SourceGraphic" in2="BackgroundImageFix" result="shape"/><feGaussianBlur result="effect1_foregroundBlur_4002_937" stdDeviation=".375"/></filter><linearGradient id="paint2_linear_4002_937" x1="16" x2="16" y1="16.144" y2="30.249" gradientUnits="userSpaceOnUse"><stop offset=".866" stop-color="#790B2C"/><stop offset="1" stop-color="#790B2C" stop-opacity="0"/></linearGradient><linearGradient id="paint5_linear_4002_937" x1="26.836" x2="26.617" y1="30.209" y2="27.459" gradientUnits="userSpaceOnUse"><stop stop-color="#4D87F8"/><stop offset="1" stop-color="#4B99FF" stop-opacity="0"/></linearGradient><linearGradient id="paint8_linear_4002_937" x1="8.43" x2="5.18" y1="25.115" y2="25.115" gradientUnits="userSpaceOnUse"><stop offset=".183" stop-color="#3E80F0"/><stop offset="1" stop-color="#3E77D8"/></linearGradient><linearGradient id="paint12_linear_4002_937" x1="18.398" x2="13.649" y1="23.928" y2="27.272" gradientUnits="userSpaceOnUse"><stop stop-color="#47A1FF"/><stop offset="1" stop-color="#3F83F1"/></linearGradient><linearGradient id="paint13_linear_4002_937" x1="15.836" x2="15.836" y1="22.819" y2="24.162" gradientUnits="userSpaceOnUse"><stop stop-color="#40A0F8"/><stop offset="1" stop-color="#4392F9" stop-opacity="0"/></linearGradient><linearGradient id="paint15_linear_4002_937" x1="14.617" x2="19.961" y1="19.022" y2="17.115" gradientUnits="userSpaceOnUse"><stop stop-color="#CE1F66"/><stop offset="1" stop-color="#FF3656"/></linearGradient><linearGradient id="paint23_linear_4002_937" x1="22.712" x2="11.059" y1="5.279" y2="5.279" gradientUnits="userSpaceOnUse"><stop offset=".471" stop-color="#614440"/><stop offset="1" stop-color="#543F3C"/></linearGradient><linearGradient id="paint24_linear_4002_937" x1="22.712" x2="11.059" y1="5.279" y2="5.279" gradientUnits="userSpaceOnUse"><stop stop-color="#443D40"/><stop offset="1" stop-color="#272127"/></linearGradient><linearGradient id="paint32_linear_4002_937" x1="11.219" x2="10.101" y1="10.514" y2="10.514" gradientUnits="userSpaceOnUse"><stop stop-color="#C68573"/><stop offset="1" stop-color="#C98575"/></linearGradient><linearGradient id="paint40_linear_4002_937" x1="20.273" x2="12.867" y1="10.647" y2="10.647" gradientUnits="userSpaceOnUse"><stop stop-color="#FF1781"/><stop offset="1" stop-color="#C31251"/></linearGradient><linearGradient id="paint41_linear_4002_937" x1="10.757" x2="12.211" y1="10.334" y2="10.334" gradientUnits="userSpaceOnUse"><stop stop-color="#AB2D46"/><stop offset="1" stop-color="#BA3950" stop-opacity="0"/></linearGradient><linearGradient id="paint49_linear_4002_937" x1="18.806" x2="18.491" y1="10.097" y2="10.291" gradientUnits="userSpaceOnUse"><stop stop-color="#B4948D"/><stop offset="1" stop-color="#B4948D" stop-opacity="0"/></linearGradient><linearGradient id="paint51_linear_4002_937" x1="14.392" x2="14.077" y1="10.096" y2="10.29" gradientUnits="userSpaceOnUse"><stop stop-color="#B4948D"/><stop offset="1" stop-color="#B4948D" stop-opacity="0"/></linearGradient></defs></svg>