<svg xmlns="http://www.w3.org/2000/svg" width="32" height="32" fill="none" viewBox="0 0 32 32"><path fill="url(#paint0_radial_4002_4033)" d="M26.919 19.035a3.583 3.583 0 0 0-3.305-2.188H8.312c-1.442 0-2.744.86-3.305 2.188l-2.754 6.642h4.75v4.17h18v-4.15l4.75-.017-2.834-6.645Z"/><path fill="url(#paint1_radial_4002_4033)" d="M26.919 19.035a3.583 3.583 0 0 0-3.305-2.188H8.312c-1.442 0-2.744.86-3.305 2.188l-2.754 6.642h4.75v4.17h18v-4.15l4.75-.017-2.834-6.645Z"/><path fill="url(#paint2_linear_4002_4033)" d="M26.919 19.035a3.583 3.583 0 0 0-3.305-2.188H8.312c-1.442 0-2.744.86-3.305 2.188l-2.754 6.642h4.75v4.17h18v-4.15l4.75-.017-2.834-6.645Z"/><g filter="url(#filter0_i_4002_4033)"><path fill="url(#paint3_radial_4002_4033)" d="M10.977 25.437c.115.03.229.059.333.098.987.36 1.693 1.268 1.693 2.331 0 .81-.405 1.522-1.039 1.98H5.181c-1.755 0-3.178-1.355-3.178-3.004s1.423-2.995 3.189-2.995c.27 0 .54.039.79.097.114.03.228.059.332.098l4.663 1.395Z"/><path fill="url(#paint4_linear_4002_4033)" d="M10.977 25.437c.115.03.229.059.333.098.987.36 1.693 1.268 1.693 2.331 0 .81-.405 1.522-1.039 1.98H5.181c-1.755 0-3.178-1.355-3.178-3.004s1.423-2.995 3.189-2.995c.27 0 .54.039.79.097.114.03.228.059.332.098l4.663 1.395Z"/></g><path fill="url(#paint5_radial_4002_4033)" d="M21.029 25.437a3.27 3.27 0 0 0-.333.098c-.987.36-1.693 1.268-1.693 2.331 0 .81.405 1.522 1.039 1.98h6.782c1.756 0 3.179-1.355 3.179-3.004s-1.423-2.995-3.189-2.995c-.27 0-.54.039-.79.097-.114.03-.228.059-.332.098l-4.663 1.395Z"/><path fill="url(#paint6_linear_4002_4033)" d="M21.029 25.437a3.27 3.27 0 0 0-.333.098c-.987.36-1.693 1.268-1.693 2.331 0 .81.405 1.522 1.039 1.98h6.782c1.756 0 3.179-1.355 3.179-3.004s-1.423-2.995-3.189-2.995c-.27 0-.54.039-.79.097-.114.03-.228.059-.332.098l-4.663 1.395Z"/><path fill="url(#paint7_radial_4002_4033)" d="M21.029 25.437a3.27 3.27 0 0 0-.333.098c-.987.36-1.693 1.268-1.693 2.331 0 .81.405 1.522 1.039 1.98h6.782c1.756 0 3.179-1.355 3.179-3.004s-1.423-2.995-3.189-2.995c-.27 0-.54.039-.79.097-.114.03-.228.059-.332.098l-4.663 1.395Z"/><path fill="url(#paint8_radial_4002_4033)" d="M21.029 25.437a3.27 3.27 0 0 0-.333.098c-.987.36-1.693 1.268-1.693 2.331 0 .81.405 1.522 1.039 1.98h6.782c1.756 0 3.179-1.355 3.179-3.004s-1.423-2.995-3.189-2.995c-.27 0-.54.039-.79.097-.114.03-.228.059-.332.098l-4.663 1.395Z"/><g filter="url(#filter1_ii_4002_4033)"><path fill="url(#paint9_linear_4002_4033)" d="M15.662 4.636 14.541 2.39a.377.377 0 0 1 .34-.542h2.244c.28 0 .46.29.34.542l-1.122 2.247a.38.38 0 0 1-.68 0Z"/></g><g filter="url(#filter2_ii_4002_4033)"><path fill="url(#paint10_linear_4002_4033)" d="m10.515 5.828-2.38-.79a.373.373 0 0 1-.14-.62l1.58-1.58c.2-.2.53-.12.62.15l.79 2.38c.1.28-.18.56-.47.46Z"/></g><g filter="url(#filter3_ii_4002_4033)"><path fill="url(#paint11_linear_4002_4033)" d="m21.494 5.827 2.37-.79a.38.38 0 0 0 .15-.62l-1.58-1.58c-.2-.2-.53-.12-.62.15l-.79 2.38c-.1.28.18.56.47.46Z"/></g><path fill="url(#paint12_radial_4002_4033)" d="M9.753 19.597a2 2 0 1 0 0-4 2 2 0 0 0 0 4Z"/><path fill="url(#paint13_linear_4002_4033)" d="M22.253 19.597a2 2 0 1 0 0-4 2 2 0 0 0 0 4Z"/><path fill="url(#paint14_radial_4002_4033)" d="M22.253 19.597a2 2 0 1 0 0-4 2 2 0 0 0 0 4Z"/><g filter="url(#filter4_i_4002_4033)"><path fill="#F79E3A" d="M9.696 17.638c-.15-2.289 1.778-3.249 4.098-3.249h1.713c.32.03.59.232.711.534a3.105 3.105 0 0 0 2.835 1.833h1.563c.138.006.277.008.412.009.754.009 1.4.016 1.3.801l-.062.774h.002l-.265 3.207s-.44 4.3-5.97 4.3c-5.53 0-6.03-4.3-6.03-4.3l-.286-3.652-.01-.125a3.538 3.538 0 0 1-.003-.031l-.008-.101Z"/><path fill="url(#paint15_radial_4002_4033)" d="M9.696 17.638c-.15-2.289 1.778-3.249 4.098-3.249h1.713c.32.03.59.232.711.534a3.105 3.105 0 0 0 2.835 1.833h1.563c.138.006.277.008.412.009.754.009 1.4.016 1.3.801l-.062.774h.002l-.265 3.207s-.44 4.3-5.97 4.3c-5.53 0-6.03-4.3-6.03-4.3l-.286-3.652-.01-.125a3.538 3.538 0 0 1-.003-.031l-.008-.101Z"/><path fill="url(#paint16_radial_4002_4033)" d="M9.696 17.638c-.15-2.289 1.778-3.249 4.098-3.249h1.713c.32.03.59.232.711.534a3.105 3.105 0 0 0 2.835 1.833h1.563c.138.006.277.008.412.009.754.009 1.4.016 1.3.801l-.062.774h.002l-.265 3.207s-.44 4.3-5.97 4.3c-5.53 0-6.03-4.3-6.03-4.3l-.286-3.652-.01-.125a3.538 3.538 0 0 1-.003-.031l-.008-.101Z"/><path fill="url(#paint17_radial_4002_4033)" d="M9.696 17.638c-.15-2.289 1.778-3.249 4.098-3.249h1.713c.32.03.59.232.711.534a3.105 3.105 0 0 0 2.835 1.833h1.563c.138.006.277.008.412.009.754.009 1.4.016 1.3.801l-.062.774h.002l-.265 3.207s-.44 4.3-5.97 4.3c-5.53 0-6.03-4.3-6.03-4.3l-.286-3.652-.01-.125a3.538 3.538 0 0 1-.003-.031l-.008-.101Z"/><path fill="url(#paint18_radial_4002_4033)" d="M9.696 17.638c-.15-2.289 1.778-3.249 4.098-3.249h1.713c.32.03.59.232.711.534a3.105 3.105 0 0 0 2.835 1.833h1.563c.138.006.277.008.412.009.754.009 1.4.016 1.3.801l-.062.774h.002l-.265 3.207s-.44 4.3-5.97 4.3c-5.53 0-6.03-4.3-6.03-4.3l-.286-3.652-.01-.125a3.538 3.538 0 0 1-.003-.031l-.008-.101Z"/></g><g filter="url(#filter5_i_4002_4033)"><path fill="#B04015" d="M11.613 18.537a.35.35 0 0 1-.28-.14.35.35 0 0 1 .06-.49c.04-.03.99-.75 2.39-.58.19.02.33.2.31.39-.02.19-.19.33-.39.31-1.11-.13-1.87.43-1.88.44-.06.05-.14.07-.21.07Z"/></g><g filter="url(#filter6_i_4002_4033)"><path fill="#B04015" d="M20.393 18.537c-.07 0-.15-.02-.21-.07-.01-.01-.77-.57-1.88-.44-.2.01-.37-.12-.39-.31a.35.35 0 0 1 .31-.39c1.4-.17 2.35.55 2.39.58.15.12.18.34.06.49-.07.1-.18.14-.28.14Z"/></g><g filter="url(#filter7_f_4002_4033)"><path fill="#E6842D" d="m15.444 21.03-.754 2.046c-.16.42.15.862.61.883l.98.044c.459.021.808-.4.688-.824l-.565-2.105c-.13-.463-.799-.493-.96-.044Z"/></g><g filter="url(#filter8_i_4002_4033)"><path fill="#FAA12F" d="m15.523 20.767-.66 2.14c-.14.44.19.88.65.88h.98c.46 0 .79-.45.65-.88l-.66-2.14c-.15-.47-.82-.47-.96 0Z"/><path fill="url(#paint19_radial_4002_4033)" d="m15.523 20.767-.66 2.14c-.14.44.19.88.65.88h.98c.46 0 .79-.45.65-.88l-.66-2.14c-.15-.47-.82-.47-.96 0Z"/></g><path fill="url(#paint20_linear_4002_4033)" d="m15.523 20.767-.66 2.14c-.14.44.19.88.65.88h.98c.46 0 .79-.45.65-.88l-.66-2.14c-.15-.47-.82-.47-.96 0Z"/><g filter="url(#filter9_i_4002_4033)"><path fill="url(#paint21_linear_4002_4033)" d="M10.648 26.347c.243 0 .476.05.69.153l3.708 1.765a.822.822 0 0 1 .457.735c0 .449-.34.847-.769.847H9.013l-.01-1.766c-.01-.948.73-1.724 1.645-1.734Z"/></g><g filter="url(#filter10_i_4002_4033)"><path fill="url(#paint22_radial_4002_4033)" d="M21.358 26.347c-.243 0-.476.05-.69.153l-3.708 1.765a.822.822 0 0 0-.457.735c0 .449.34.847.769.847h5.721l.01-1.766c.01-.948-.73-1.724-1.645-1.734Z"/></g><g filter="url(#filter11_iii_4002_4033)"><path fill="url(#paint23_radial_4002_4033)" d="M23.852 10.996a2.974 2.974 0 0 0-1.623-1.34 3.174 3.174 0 0 1-1.733-1.37 2.976 2.976 0 0 0-2.555-1.44c-.41 0-.811.081-1.172.242a1.93 1.93 0 0 1-1.533 0 2.794 2.794 0 0 0-1.162-.241 2.982 2.982 0 0 0-2.524 1.4 3.37 3.37 0 0 1-1.773 1.41 3.024 3.024 0 0 0-1.673 1.43 3.035 3.035 0 0 0 .18 3.121c.22.332.35.715.35 1.118v1.984c0 .574.545 1.037 1.116 1.037l-.043-.578c-.234-2.383 1.723-3.38 4.087-3.38h1.713c.32.03.59.232.711.534a3.105 3.105 0 0 0 2.835 1.833h1.563c.911.04 1.83-.115 1.712.81l-.062.774c.55 0 1.095-.446 1.095-1v-2.025c0-.392.12-.785.35-1.107a2.977 2.977 0 0 0 .14-3.212Z"/><path fill="url(#paint24_radial_4002_4033)" d="M23.852 10.996a2.974 2.974 0 0 0-1.623-1.34 3.174 3.174 0 0 1-1.733-1.37 2.976 2.976 0 0 0-2.555-1.44c-.41 0-.811.081-1.172.242a1.93 1.93 0 0 1-1.533 0 2.794 2.794 0 0 0-1.162-.241 2.982 2.982 0 0 0-2.524 1.4 3.37 3.37 0 0 1-1.773 1.41 3.024 3.024 0 0 0-1.673 1.43 3.035 3.035 0 0 0 .18 3.121c.22.332.35.715.35 1.118v1.984c0 .574.545 1.037 1.116 1.037l-.043-.578c-.234-2.383 1.723-3.38 4.087-3.38h1.713c.32.03.59.232.711.534a3.105 3.105 0 0 0 2.835 1.833h1.563c.911.04 1.83-.115 1.712.81l-.062.774c.55 0 1.095-.446 1.095-1v-2.025c0-.392.12-.785.35-1.107a2.977 2.977 0 0 0 .14-3.212Z"/><path fill="url(#paint25_radial_4002_4033)" d="M23.852 10.996a2.974 2.974 0 0 0-1.623-1.34 3.174 3.174 0 0 1-1.733-1.37 2.976 2.976 0 0 0-2.555-1.44c-.41 0-.811.081-1.172.242a1.93 1.93 0 0 1-1.533 0 2.794 2.794 0 0 0-1.162-.241 2.982 2.982 0 0 0-2.524 1.4 3.37 3.37 0 0 1-1.773 1.41 3.024 3.024 0 0 0-1.673 1.43 3.035 3.035 0 0 0 .18 3.121c.22.332.35.715.35 1.118v1.984c0 .574.545 1.037 1.116 1.037l-.043-.578c-.234-2.383 1.723-3.38 4.087-3.38h1.713c.32.03.59.232.711.534a3.105 3.105 0 0 0 2.835 1.833h1.563c.911.04 1.83-.115 1.712.81l-.062.774c.55 0 1.095-.446 1.095-1v-2.025c0-.392.12-.785.35-1.107a2.977 2.977 0 0 0 .14-3.212Z"/><path fill="url(#paint26_radial_4002_4033)" d="M23.852 10.996a2.974 2.974 0 0 0-1.623-1.34 3.174 3.174 0 0 1-1.733-1.37 2.976 2.976 0 0 0-2.555-1.44c-.41 0-.811.081-1.172.242a1.93 1.93 0 0 1-1.533 0 2.794 2.794 0 0 0-1.162-.241 2.982 2.982 0 0 0-2.524 1.4 3.37 3.37 0 0 1-1.773 1.41 3.024 3.024 0 0 0-1.673 1.43 3.035 3.035 0 0 0 .18 3.121c.22.332.35.715.35 1.118v1.984c0 .574.545 1.037 1.116 1.037l-.043-.578c-.234-2.383 1.723-3.38 4.087-3.38h1.713c.32.03.59.232.711.534a3.105 3.105 0 0 0 2.835 1.833h1.563c.911.04 1.83-.115 1.712.81l-.062.774c.55 0 1.095-.446 1.095-1v-2.025c0-.392.12-.785.35-1.107a2.977 2.977 0 0 0 .14-3.212Z"/><path fill="url(#paint27_radial_4002_4033)" d="M23.852 10.996a2.974 2.974 0 0 0-1.623-1.34 3.174 3.174 0 0 1-1.733-1.37 2.976 2.976 0 0 0-2.555-1.44c-.41 0-.811.081-1.172.242a1.93 1.93 0 0 1-1.533 0 2.794 2.794 0 0 0-1.162-.241 2.982 2.982 0 0 0-2.524 1.4 3.37 3.37 0 0 1-1.773 1.41 3.024 3.024 0 0 0-1.673 1.43 3.035 3.035 0 0 0 .18 3.121c.22.332.35.715.35 1.118v1.984c0 .574.545 1.037 1.116 1.037l-.043-.578c-.234-2.383 1.723-3.38 4.087-3.38h1.713c.32.03.59.232.711.534a3.105 3.105 0 0 0 2.835 1.833h1.563c.911.04 1.83-.115 1.712.81l-.062.774c.55 0 1.095-.446 1.095-1v-2.025c0-.392.12-.785.35-1.107a2.977 2.977 0 0 0 .14-3.212Z"/><path fill="url(#paint28_radial_4002_4033)" d="M23.852 10.996a2.974 2.974 0 0 0-1.623-1.34 3.174 3.174 0 0 1-1.733-1.37 2.976 2.976 0 0 0-2.555-1.44c-.41 0-.811.081-1.172.242a1.93 1.93 0 0 1-1.533 0 2.794 2.794 0 0 0-1.162-.241 2.982 2.982 0 0 0-2.524 1.4 3.37 3.37 0 0 1-1.773 1.41 3.024 3.024 0 0 0-1.673 1.43 3.035 3.035 0 0 0 .18 3.121c.22.332.35.715.35 1.118v1.984c0 .574.545 1.037 1.116 1.037l-.043-.578c-.234-2.383 1.723-3.38 4.087-3.38h1.713c.32.03.59.232.711.534a3.105 3.105 0 0 0 2.835 1.833h1.563c.911.04 1.83-.115 1.712.81l-.062.774c.55 0 1.095-.446 1.095-1v-2.025c0-.392.12-.785.35-1.107a2.977 2.977 0 0 0 .14-3.212Z"/></g><path fill="#fff" d="M12.905 19.377a1.81 1.81 0 0 0-1.758 1.374.356.356 0 0 0 .347.442h2.895a.299.299 0 0 0 .295-.353 1.818 1.818 0 0 0-1.78-1.463Z"/><path fill="url(#paint29_radial_4002_4033)" d="M13.173 19.73a1.158 1.158 0 0 0-1.116 1.463h2.237c.027-.1.042-.2.042-.306a1.166 1.166 0 0 0-1.163-1.157Z"/><path fill="#000" d="M13.836 20.887a.66.66 0 0 0-.663-.663.66.66 0 0 0-.59.969h1.174a.657.657 0 0 0 .08-.306Z"/><g filter="url(#filter12_f_4002_4033)"><path fill="url(#paint30_linear_4002_4033)" d="M14.231 20.752c0-.375-.304-.624-.387-.7l-.374.362.23.47.531-.133Z"/></g><g filter="url(#filter13_f_4002_4033)" transform="rotate(-27.914 12.824 20.224)"><ellipse cx="12.824" cy="20.224" fill="#C7A7A3" fill-opacity=".9" rx=".506" ry=".256"/><ellipse cx="12.824" cy="20.224" fill="url(#paint31_radial_4002_4033)" rx=".506" ry=".256"/></g><path fill="#fff" d="M19.03 19.377a1.81 1.81 0 0 0-1.758 1.374.356.356 0 0 0 .347.442h2.895a.299.299 0 0 0 .295-.353 1.818 1.818 0 0 0-1.78-1.463Z"/><path fill="url(#paint32_radial_4002_4033)" d="M18.83 19.73a1.158 1.158 0 0 0-1.116 1.463h2.237c.026-.1.042-.2.042-.306a1.166 1.166 0 0 0-1.163-1.157Z"/><path fill="#000" d="M19.493 20.887a.66.66 0 0 0-.664-.663.66.66 0 0 0-.59.969h1.175a.659.659 0 0 0 .079-.306Z"/><g filter="url(#filter14_f_4002_4033)"><path fill="url(#paint33_linear_4002_4033)" d="M19.887 20.752c0-.375-.304-.624-.386-.7l-.374.362.23.47.53-.133Z"/></g><g filter="url(#filter15_f_4002_4033)" transform="rotate(-27.914 18.48 20.224)"><ellipse cx="18.48" cy="20.224" fill="#C7A7A3" fill-opacity=".9" rx=".506" ry=".256"/><ellipse cx="18.48" cy="20.224" fill="url(#paint34_radial_4002_4033)" rx=".506" ry=".256"/></g><g filter="url(#filter16_f_4002_4033)"><path stroke="url(#paint35_linear_4002_4033)" stroke-linecap="round" stroke-width=".25" d="M18.285 17.64c.35-.036 1.485 0 2.157.516"/></g><g filter="url(#filter17_f_4002_4033)"><path stroke="url(#paint36_linear_4002_4033)" stroke-linecap="round" stroke-width=".25" d="M13.755 17.64c-.349-.036-1.484 0-2.156.516"/></g><defs><radialGradient id="paint0_radial_4002_4033" cx="0" cy="0" r="1" gradientTransform="rotate(123.959 7.477 15.78) scale(12.144 23.7823)" gradientUnits="userSpaceOnUse"><stop stop-color="#FF9C2C"/><stop offset=".27" stop-color="#FF802A"/><stop offset="1" stop-color="#FB5B1B"/></radialGradient><radialGradient id="paint1_radial_4002_4033" cx="0" cy="0" r="1" gradientTransform="matrix(-3.01499 4.36558 -4.67954 -3.23182 14.328 23.347)" gradientUnits="userSpaceOnUse"><stop offset=".5" stop-color="#E4380A"/><stop offset="1" stop-color="#E4380A" stop-opacity="0"/></radialGradient><radialGradient id="paint3_radial_4002_4033" cx="0" cy="0" r="1" gradientTransform="rotate(-164.898 7.333 12.687) scale(6.67145 7.19435)" gradientUnits="userSpaceOnUse"><stop stop-color="#FF7919"/><stop offset="1" stop-color="#F46A2E"/></radialGradient><radialGradient id="paint5_radial_4002_4033" cx="0" cy="0" r="1" gradientTransform="matrix(-8.03127 4.7187 -4.36101 -7.42248 28.489 24.281)" gradientUnits="userSpaceOnUse"><stop stop-color="#FFA741"/><stop offset=".724" stop-color="#FF7530"/></radialGradient><radialGradient id="paint7_radial_4002_4033" cx="0" cy="0" r="1" gradientTransform="matrix(6.28125 -1.78432 .36961 1.30113 22.27 26.847)" gradientUnits="userSpaceOnUse"><stop offset=".078" stop-color="#FF9D3D"/><stop offset="1" stop-color="#FF9D3D" stop-opacity="0"/></radialGradient><radialGradient id="paint8_radial_4002_4033" cx="0" cy="0" r="1" gradientTransform="matrix(-6.04861 -4.1627 5.4796 -7.96214 25.052 31.139)" gradientUnits="userSpaceOnUse"><stop offset=".91" stop-color="#F44E0B" stop-opacity="0"/><stop offset="1" stop-color="#F44E0B"/></radialGradient><radialGradient id="paint12_radial_4002_4033" cx="0" cy="0" r="1" gradientTransform="matrix(-1.79873 0 0 -1.83056 9.753 17.778)" gradientUnits="userSpaceOnUse"><stop offset=".32" stop-color="#DA7825"/><stop offset="1" stop-color="#DB932D"/></radialGradient><radialGradient id="paint14_radial_4002_4033" cx="0" cy="0" r="1" gradientTransform="rotate(104.416 4.539 17.609) scale(1.25521)" gradientUnits="userSpaceOnUse"><stop offset=".143" stop-color="#FDAA1E"/><stop offset="1" stop-color="#FDAA1E" stop-opacity="0"/></radialGradient><radialGradient id="paint15_radial_4002_4033" cx="0" cy="0" r="1" gradientTransform="matrix(-2.6462 1.11638 -1.25523 -2.9753 18.322 21.306)" gradientUnits="userSpaceOnUse"><stop stop-color="#FFD403"/><stop offset="1" stop-color="#F89F3A" stop-opacity="0"/></radialGradient><radialGradient id="paint16_radial_4002_4033" cx="0" cy="0" r="1" gradientTransform="matrix(11.4008 0 0 12.5877 11.506 20.118)" gradientUnits="userSpaceOnUse"><stop offset=".702" stop-color="#FFBF02" stop-opacity="0"/><stop offset=".962" stop-color="#FFCE21"/></radialGradient><radialGradient id="paint17_radial_4002_4033" cx="0" cy="0" r="1" gradientTransform="rotate(-39.188 37.505 -17.13) scale(1.63592 .99685)" gradientUnits="userSpaceOnUse"><stop offset=".617" stop-color="#E88E0C"/><stop offset="1" stop-color="#E88E0C" stop-opacity="0"/></radialGradient><radialGradient id="paint18_radial_4002_4033" cx="0" cy="0" r="1" gradientTransform="rotate(-135.535 10.561 7.473) scale(2.08564 1.45506)" gradientUnits="userSpaceOnUse"><stop offset=".173" stop-color="#DA7D25"/><stop offset="1" stop-color="#DA7D25" stop-opacity="0"/></radialGradient><radialGradient id="paint19_radial_4002_4033" cx="0" cy="0" r="1" gradientTransform="matrix(-.13784 -1.92952 1.14204 -.08158 16.916 22.547)" gradientUnits="userSpaceOnUse"><stop stop-color="#FFD126"/><stop offset="1" stop-color="#FFD126" stop-opacity="0"/></radialGradient><radialGradient id="paint22_radial_4002_4033" cx="0" cy="0" r="1" gradientTransform="matrix(6 -3.25 2.38008 4.394 17.614 30.094)" gradientUnits="userSpaceOnUse"><stop offset=".3" stop-color="#FFC602"/><stop offset="1" stop-color="#FFE948"/></radialGradient><radialGradient id="paint23_radial_4002_4033" cx="0" cy="0" r="1" gradientTransform="rotate(141.127 9.767 8.69) scale(17.2506 24.7508)" gradientUnits="userSpaceOnUse"><stop offset=".194" stop-color="#FFE234"/><stop offset="1" stop-color="#EDA324"/></radialGradient><radialGradient id="paint24_radial_4002_4033" cx="0" cy="0" r="1" gradientTransform="rotate(114.677 7.234 9.818) scale(3.81736 3.00827)" gradientUnits="userSpaceOnUse"><stop stop-color="#FFE438"/><stop offset="1" stop-color="#FFE438" stop-opacity="0"/></radialGradient><radialGradient id="paint25_radial_4002_4033" cx="0" cy="0" r="1" gradientTransform="matrix(1.03125 2.1875 -3.22117 1.51855 13.926 7.625)" gradientUnits="userSpaceOnUse"><stop offset=".196" stop-color="#FFCE24"/><stop offset="1" stop-color="#FFCE24" stop-opacity="0"/></radialGradient><radialGradient id="paint26_radial_4002_4033" cx="0" cy="0" r="1" gradientTransform="matrix(-3.03125 0 0 -1.90625 15.176 13.063)" gradientUnits="userSpaceOnUse"><stop stop-color="#FFD12F"/><stop offset="1" stop-color="#FFD12F" stop-opacity="0"/></radialGradient><radialGradient id="paint27_radial_4002_4033" cx="0" cy="0" r="1" gradientTransform="rotate(164.808 10.616 7.045) scale(15.0251 12.7011)" gradientUnits="userSpaceOnUse"><stop offset=".694" stop-color="#F0A224" stop-opacity="0"/><stop offset="1" stop-color="#F0A224"/></radialGradient><radialGradient id="paint28_radial_4002_4033" cx="0" cy="0" r="1" gradientTransform="matrix(-1.09374 -4.34376 1.24947 -.31461 16.707 15.938)" gradientUnits="userSpaceOnUse"><stop stop-color="#F7971E"/><stop offset="1" stop-color="#F7971E" stop-opacity="0"/></radialGradient><radialGradient id="paint29_radial_4002_4033" cx="0" cy="0" r="1" gradientTransform="matrix(0 1.05276 -1.67453 0 13.176 20.349)" gradientUnits="userSpaceOnUse"><stop offset=".802" stop-color="#925C51"/><stop offset="1" stop-color="#694B43"/><stop offset="1" stop-color="#804D49"/><stop offset="1" stop-color="#85534D"/></radialGradient><radialGradient id="paint31_radial_4002_4033" cx="0" cy="0" r="1" gradientTransform="matrix(-.01004 -.64108 .77062 -.01207 12.804 20.633)" gradientUnits="userSpaceOnUse"><stop offset=".766" stop-color="#FFE6E2" stop-opacity="0"/><stop offset=".966" stop-color="#FFE6E2"/></radialGradient><radialGradient id="paint32_radial_4002_4033" cx="0" cy="0" r="1" gradientTransform="matrix(0 1.05276 -1.67453 0 18.832 20.349)" gradientUnits="userSpaceOnUse"><stop offset=".802" stop-color="#925C51"/><stop offset="1" stop-color="#694B43"/><stop offset="1" stop-color="#804D49"/><stop offset="1" stop-color="#85534D"/></radialGradient><radialGradient id="paint34_radial_4002_4033" cx="0" cy="0" r="1" gradientTransform="matrix(-.01004 -.64108 .77062 -.01207 18.46 20.633)" gradientUnits="userSpaceOnUse"><stop offset=".766" stop-color="#FFE6E2" stop-opacity="0"/><stop offset=".966" stop-color="#FFE6E2"/></radialGradient><filter id="filter0_i_4002_4033" width="11" height="6.1" x="2.003" y="23.847" color-interpolation-filters="sRGB" filterUnits="userSpaceOnUse"><feFlood flood-opacity="0" result="BackgroundImageFix"/><feBlend in="SourceGraphic" in2="BackgroundImageFix" result="shape"/><feColorMatrix in="SourceAlpha" result="hardAlpha" values="0 0 0 0 0 0 0 0 0 0 0 0 0 0 0 0 0 0 127 0"/><feOffset dy=".1"/><feGaussianBlur stdDeviation=".25"/><feComposite in2="hardAlpha" k2="-1" k3="1" operator="arithmetic"/><feColorMatrix values="0 0 0 0 0.890196 0 0 0 0 0.478431 0 0 0 0 0.27451 0 0 0 1 0"/><feBlend in2="shape" result="effect1_innerShadow_4002_4033"/></filter><filter id="filter1_ii_4002_4033" width="3.2" height="3.2" x="14.403" y="1.747" color-interpolation-filters="sRGB" filterUnits="userSpaceOnUse"><feFlood flood-opacity="0" result="BackgroundImageFix"/><feBlend in="SourceGraphic" in2="BackgroundImageFix" result="shape"/><feColorMatrix in="SourceAlpha" result="hardAlpha" values="0 0 0 0 0 0 0 0 0 0 0 0 0 0 0 0 0 0 127 0"/><feOffset dx=".1" dy="-.1"/><feGaussianBlur stdDeviation=".15"/><feComposite in2="hardAlpha" k2="-1" k3="1" operator="arithmetic"/><feColorMatrix values="0 0 0 0 0.188235 0 0 0 0 0.47451 0 0 0 0 0.698039 0 0 0 1 0"/><feBlend in2="shape" result="effect1_innerShadow_4002_4033"/><feColorMatrix in="SourceAlpha" result="hardAlpha" values="0 0 0 0 0 0 0 0 0 0 0 0 0 0 0 0 0 0 127 0"/><feOffset dx="-.1" dy=".1"/><feGaussianBlur stdDeviation=".125"/><feComposite in2="hardAlpha" k2="-1" k3="1" operator="arithmetic"/><feColorMatrix values="0 0 0 0 0.286275 0 0 0 0 0.67451 0 0 0 0 0.929412 0 0 0 1 0"/><feBlend in2="effect1_innerShadow_4002_4033" result="effect2_innerShadow_4002_4033"/></filter><filter id="filter2_ii_4002_4033" width="3.323" height="3.322" x="7.783" y="2.627" color-interpolation-filters="sRGB" filterUnits="userSpaceOnUse"><feFlood flood-opacity="0" result="BackgroundImageFix"/><feBlend in="SourceGraphic" in2="BackgroundImageFix" result="shape"/><feColorMatrix in="SourceAlpha" result="hardAlpha" values="0 0 0 0 0 0 0 0 0 0 0 0 0 0 0 0 0 0 127 0"/><feOffset dx=".1" dy="-.1"/><feGaussianBlur stdDeviation=".15"/><feComposite in2="hardAlpha" k2="-1" k3="1" operator="arithmetic"/><feColorMatrix values="0 0 0 0 0.188235 0 0 0 0 0.47451 0 0 0 0 0.698039 0 0 0 1 0"/><feBlend in2="shape" result="effect1_innerShadow_4002_4033"/><feColorMatrix in="SourceAlpha" result="hardAlpha" values="0 0 0 0 0 0 0 0 0 0 0 0 0 0 0 0 0 0 127 0"/><feOffset dx="-.1" dy=".1"/><feGaussianBlur stdDeviation=".125"/><feComposite in2="hardAlpha" k2="-1" k3="1" operator="arithmetic"/><feColorMatrix values="0 0 0 0 0.286275 0 0 0 0 0.67451 0 0 0 0 0.929412 0 0 0 1 0"/><feBlend in2="effect1_innerShadow_4002_4033" result="effect2_innerShadow_4002_4033"/></filter><filter id="filter3_ii_4002_4033" width="3.315" height="3.322" x="20.903" y="2.625" color-interpolation-filters="sRGB" filterUnits="userSpaceOnUse"><feFlood flood-opacity="0" result="BackgroundImageFix"/><feBlend in="SourceGraphic" in2="BackgroundImageFix" result="shape"/><feColorMatrix in="SourceAlpha" result="hardAlpha" values="0 0 0 0 0 0 0 0 0 0 0 0 0 0 0 0 0 0 127 0"/><feOffset dx=".1" dy="-.1"/><feGaussianBlur stdDeviation=".15"/><feComposite in2="hardAlpha" k2="-1" k3="1" operator="arithmetic"/><feColorMatrix values="0 0 0 0 0.188235 0 0 0 0 0.47451 0 0 0 0 0.698039 0 0 0 1 0"/><feBlend in2="shape" result="effect1_innerShadow_4002_4033"/><feColorMatrix in="SourceAlpha" result="hardAlpha" values="0 0 0 0 0 0 0 0 0 0 0 0 0 0 0 0 0 0 127 0"/><feOffset dx="-.1" dy=".1"/><feGaussianBlur stdDeviation=".125"/><feComposite in2="hardAlpha" k2="-1" k3="1" operator="arithmetic"/><feColorMatrix values="0 0 0 0 0.286275 0 0 0 0 0.67451 0 0 0 0 0.929412 0 0 0 1 0"/><feBlend in2="effect1_innerShadow_4002_4033" result="effect2_innerShadow_4002_4033"/></filter><filter id="filter4_i_4002_4033" width="12.65" height="11.707" x="9.688" y="14.389" color-interpolation-filters="sRGB" filterUnits="userSpaceOnUse"><feFlood flood-opacity="0" result="BackgroundImageFix"/><feBlend in="SourceGraphic" in2="BackgroundImageFix" result="shape"/><feColorMatrix in="SourceAlpha" result="hardAlpha" values="0 0 0 0 0 0 0 0 0 0 0 0 0 0 0 0 0 0 127 0"/><feOffset dy=".25"/><feGaussianBlur stdDeviation=".25"/><feComposite in2="hardAlpha" k2="-1" k3="1" operator="arithmetic"/><feColorMatrix values="0 0 0 0 0.937255 0 0 0 0 0.513726 0 0 0 0 0.160784 0 0 0 1 0"/><feBlend in2="shape" result="effect1_innerShadow_4002_4033"/></filter><filter id="filter5_i_4002_4033" width="2.836" height="1.386" x="11.259" y="17.151" color-interpolation-filters="sRGB" filterUnits="userSpaceOnUse"><feFlood flood-opacity="0" result="BackgroundImageFix"/><feBlend in="SourceGraphic" in2="BackgroundImageFix" result="shape"/><feColorMatrix in="SourceAlpha" result="hardAlpha" values="0 0 0 0 0 0 0 0 0 0 0 0 0 0 0 0 0 0 127 0"/><feOffset dy="-.15"/><feGaussianBlur stdDeviation=".125"/><feComposite in2="hardAlpha" k2="-1" k3="1" operator="arithmetic"/><feColorMatrix values="0 0 0 0 0.627451 0 0 0 0 0.227451 0 0 0 0 0.0862745 0 0 0 1 0"/><feBlend in2="shape" result="effect1_innerShadow_4002_4033"/></filter><filter id="filter6_i_4002_4033" width="2.836" height="1.386" x="17.911" y="17.151" color-interpolation-filters="sRGB" filterUnits="userSpaceOnUse"><feFlood flood-opacity="0" result="BackgroundImageFix"/><feBlend in="SourceGraphic" in2="BackgroundImageFix" result="shape"/><feColorMatrix in="SourceAlpha" result="hardAlpha" values="0 0 0 0 0 0 0 0 0 0 0 0 0 0 0 0 0 0 127 0"/><feOffset dy="-.15"/><feGaussianBlur stdDeviation=".125"/><feComposite in2="hardAlpha" k2="-1" k3="1" operator="arithmetic"/><feColorMatrix values="0 0 0 0 0.627451 0 0 0 0 0.227451 0 0 0 0 0.0862745 0 0 0 1 0"/><feBlend in2="shape" result="effect1_innerShadow_4002_4033"/></filter><filter id="filter7_f_4002_4033" width="3.344" height="4.294" x="14.148" y="20.209" color-interpolation-filters="sRGB" filterUnits="userSpaceOnUse"><feFlood flood-opacity="0" result="BackgroundImageFix"/><feBlend in="SourceGraphic" in2="BackgroundImageFix" result="shape"/><feGaussianBlur result="effect1_foregroundBlur_4002_4033" stdDeviation=".25"/></filter><filter id="filter8_i_4002_4033" width="2.445" height="3.473" x="14.831" y="20.314" color-interpolation-filters="sRGB" filterUnits="userSpaceOnUse"><feFlood flood-opacity="0" result="BackgroundImageFix"/><feBlend in="SourceGraphic" in2="BackgroundImageFix" result="shape"/><feColorMatrix in="SourceAlpha" result="hardAlpha" values="0 0 0 0 0 0 0 0 0 0 0 0 0 0 0 0 0 0 127 0"/><feOffset dx=".1" dy="-.1"/><feGaussianBlur stdDeviation=".2"/><feComposite in2="hardAlpha" k2="-1" k3="1" operator="arithmetic"/><feColorMatrix values="0 0 0 0 0.898039 0 0 0 0 0.517647 0 0 0 0 0.196078 0 0 0 1 0"/><feBlend in2="shape" result="effect1_innerShadow_4002_4033"/></filter><filter id="filter9_i_4002_4033" width="7" height="3.5" x="9.003" y="26.347" color-interpolation-filters="sRGB" filterUnits="userSpaceOnUse"><feFlood flood-opacity="0" result="BackgroundImageFix"/><feBlend in="SourceGraphic" in2="BackgroundImageFix" result="shape"/><feColorMatrix in="SourceAlpha" result="hardAlpha" values="0 0 0 0 0 0 0 0 0 0 0 0 0 0 0 0 0 0 127 0"/><feOffset dx=".5"/><feGaussianBlur stdDeviation=".5"/><feComposite in2="hardAlpha" k2="-1" k3="1" operator="arithmetic"/><feColorMatrix values="0 0 0 0 0.835294 0 0 0 0 0.556863 0 0 0 0 0.25098 0 0 0 1 0"/><feBlend in2="shape" result="effect1_innerShadow_4002_4033"/></filter><filter id="filter10_i_4002_4033" width="7" height="3.6" x="16.503" y="26.247" color-interpolation-filters="sRGB" filterUnits="userSpaceOnUse"><feFlood flood-opacity="0" result="BackgroundImageFix"/><feBlend in="SourceGraphic" in2="BackgroundImageFix" result="shape"/><feColorMatrix in="SourceAlpha" result="hardAlpha" values="0 0 0 0 0 0 0 0 0 0 0 0 0 0 0 0 0 0 127 0"/><feOffset dx=".5" dy="-.1"/><feGaussianBlur stdDeviation=".5"/><feComposite in2="hardAlpha" k2="-1" k3="1" operator="arithmetic"/><feColorMatrix values="0 0 0 0 0.87451 0 0 0 0 0.505882 0 0 0 0 0.160784 0 0 0 1 0"/><feBlend in2="shape" result="effect1_innerShadow_4002_4033"/></filter><filter id="filter11_iii_4002_4033" width="17" height="12.5" x="7.755" y="5.847" color-interpolation-filters="sRGB" filterUnits="userSpaceOnUse"><feFlood flood-opacity="0" result="BackgroundImageFix"/><feBlend in="SourceGraphic" in2="BackgroundImageFix" result="shape"/><feColorMatrix in="SourceAlpha" result="hardAlpha" values="0 0 0 0 0 0 0 0 0 0 0 0 0 0 0 0 0 0 127 0"/><feOffset dx=".5"/><feGaussianBlur stdDeviation=".25"/><feComposite in2="hardAlpha" k2="-1" k3="1" operator="arithmetic"/><feColorMatrix values="0 0 0 0 0.870588 0 0 0 0 0.686275 0 0 0 0 0.223529 0 0 0 1 0"/><feBlend in2="shape" result="effect1_innerShadow_4002_4033"/><feColorMatrix in="SourceAlpha" result="hardAlpha" values="0 0 0 0 0 0 0 0 0 0 0 0 0 0 0 0 0 0 127 0"/><feOffset dy="-1"/><feGaussianBlur stdDeviation=".5"/><feComposite in2="hardAlpha" k2="-1" k3="1" operator="arithmetic"/><feColorMatrix values="0 0 0 0 1 0 0 0 0 0.737255 0 0 0 0 0.164706 0 0 0 1 0"/><feBlend in2="effect1_innerShadow_4002_4033" result="effect2_innerShadow_4002_4033"/><feColorMatrix in="SourceAlpha" result="hardAlpha" values="0 0 0 0 0 0 0 0 0 0 0 0 0 0 0 0 0 0 127 0"/><feOffset dy="-.5"/><feGaussianBlur stdDeviation=".625"/><feComposite in2="hardAlpha" k2="-1" k3="1" operator="arithmetic"/><feColorMatrix values="0 0 0 0 0.858824 0 0 0 0 0.462745 0 0 0 0 0.141176 0 0 0 1 0"/><feBlend in2="effect2_innerShadow_4002_4033" result="effect3_innerShadow_4002_4033"/></filter><filter id="filter12_f_4002_4033" width="1.161" height="1.231" x="13.27" y="19.852" color-interpolation-filters="sRGB" filterUnits="userSpaceOnUse"><feFlood flood-opacity="0" result="BackgroundImageFix"/><feBlend in="SourceGraphic" in2="BackgroundImageFix" result="shape"/><feGaussianBlur result="effect1_foregroundBlur_4002_4033" stdDeviation=".1"/></filter><filter id="filter13_f_4002_4033" width="1.125" height=".855" x="12.261" y="19.797" color-interpolation-filters="sRGB" filterUnits="userSpaceOnUse"><feFlood flood-opacity="0" result="BackgroundImageFix"/><feBlend in="SourceGraphic" in2="BackgroundImageFix" result="shape"/><feGaussianBlur result="effect1_foregroundBlur_4002_4033" stdDeviation=".05"/></filter><filter id="filter14_f_4002_4033" width="1.161" height="1.231" x="18.927" y="19.852" color-interpolation-filters="sRGB" filterUnits="userSpaceOnUse"><feFlood flood-opacity="0" result="BackgroundImageFix"/><feBlend in="SourceGraphic" in2="BackgroundImageFix" result="shape"/><feGaussianBlur result="effect1_foregroundBlur_4002_4033" stdDeviation=".1"/></filter><filter id="filter15_f_4002_4033" width="1.125" height=".855" x="17.917" y="19.797" color-interpolation-filters="sRGB" filterUnits="userSpaceOnUse"><feFlood flood-opacity="0" result="BackgroundImageFix"/><feBlend in="SourceGraphic" in2="BackgroundImageFix" result="shape"/><feGaussianBlur result="effect1_foregroundBlur_4002_4033" stdDeviation=".05"/></filter><filter id="filter16_f_4002_4033" width="2.906" height="1.276" x="17.91" y="17.255" color-interpolation-filters="sRGB" filterUnits="userSpaceOnUse"><feFlood flood-opacity="0" result="BackgroundImageFix"/><feBlend in="SourceGraphic" in2="BackgroundImageFix" result="shape"/><feGaussianBlur result="effect1_foregroundBlur_4002_4033" stdDeviation=".125"/></filter><filter id="filter17_f_4002_4033" width="2.906" height="1.276" x="11.224" y="17.255" color-interpolation-filters="sRGB" filterUnits="userSpaceOnUse"><feFlood flood-opacity="0" result="BackgroundImageFix"/><feBlend in="SourceGraphic" in2="BackgroundImageFix" result="shape"/><feGaussianBlur result="effect1_foregroundBlur_4002_4033" stdDeviation=".125"/></filter><linearGradient id="paint2_linear_4002_4033" x1="2.953" x2="7.202" y1="23.347" y2="24.663" gradientUnits="userSpaceOnUse"><stop stop-color="#E57544"/><stop offset="1" stop-color="#E57544" stop-opacity="0"/></linearGradient><linearGradient id="paint4_linear_4002_4033" x1="7.193" x2="7.193" y1="30.066" y2="27.121" gradientUnits="userSpaceOnUse"><stop stop-color="#E95252"/><stop offset="1" stop-color="#FC6028" stop-opacity="0"/></linearGradient><linearGradient id="paint6_linear_4002_4033" x1="24.503" x2="24.503" y1="29.891" y2="28.969" gradientUnits="userSpaceOnUse"><stop stop-color="#EB5B6D"/><stop offset="1" stop-color="#FF6836" stop-opacity="0"/></linearGradient><linearGradient id="paint9_linear_4002_4033" x1="17.503" x2="14.908" y1="2.345" y2="4.847" gradientUnits="userSpaceOnUse"><stop offset=".32" stop-color="#399BE2"/><stop offset="1" stop-color="#3A91CE"/></linearGradient><linearGradient id="paint10_linear_4002_4033" x1="11.006" x2="8.305" y1="3.246" y2="5.85" gradientUnits="userSpaceOnUse"><stop offset=".32" stop-color="#399BE2"/><stop offset="1" stop-color="#3A91CE"/></linearGradient><linearGradient id="paint11_linear_4002_4033" x1="24.118" x2="21.417" y1="3.244" y2="5.841" gradientUnits="userSpaceOnUse"><stop offset=".32" stop-color="#399BE2"/><stop offset="1" stop-color="#3A91CE"/></linearGradient><linearGradient id="paint13_linear_4002_4033" x1="21.77" x2="23.957" y1="19.344" y2="16.344" gradientUnits="userSpaceOnUse"><stop stop-color="#FFAF2E"/><stop offset="1" stop-color="#FFDD45"/></linearGradient><linearGradient id="paint20_linear_4002_4033" x1="16.003" x2="16.003" y1="20.688" y2="23.787" gradientUnits="userSpaceOnUse"><stop stop-color="#F79F39"/><stop offset=".363" stop-color="#F79F39" stop-opacity="0"/></linearGradient><linearGradient id="paint21_linear_4002_4033" x1="13.407" x2="11.872" y1="27.192" y2="30.891" gradientUnits="userSpaceOnUse"><stop offset=".053" stop-color="#FFD226"/><stop offset=".476" stop-color="#FCA51D"/></linearGradient><linearGradient id="paint30_linear_4002_4033" x1="14.141" x2="13.734" y1="20.418" y2="20.669" gradientUnits="userSpaceOnUse"><stop stop-color="#B4948D"/><stop offset="1" stop-color="#B4948D" stop-opacity="0"/></linearGradient><linearGradient id="paint33_linear_4002_4033" x1="19.797" x2="19.39" y1="20.418" y2="20.669" gradientUnits="userSpaceOnUse"><stop stop-color="#B4948D"/><stop offset="1" stop-color="#B4948D" stop-opacity="0"/></linearGradient><linearGradient id="paint35_linear_4002_4033" x1="20.341" x2="18.285" y1="17.972" y2="17.63" gradientUnits="userSpaceOnUse"><stop stop-color="#C36E5A"/><stop offset="1" stop-color="#C36E5A" stop-opacity="0"/></linearGradient><linearGradient id="paint36_linear_4002_4033" x1="11.7" x2="13.755" y1="17.972" y2="17.515" gradientUnits="userSpaceOnUse"><stop stop-color="#C36E5A" stop-opacity="0"/><stop offset="1" stop-color="#C36E5A"/></linearGradient></defs></svg>