<svg xmlns="http://www.w3.org/2000/svg" width="32" height="32" fill="none" viewBox="0 0 32 32"><path fill="url(#paint0_radial_4002_2843)" d="M5.428 29.911h21.144c-.19-5.356-4.591-9.64-9.994-9.64h-1.156c-5.403 0-9.805 4.284-9.994 9.64Z"/><path fill="url(#paint1_radial_4002_2843)" d="M5.428 29.911h21.144c-.19-5.356-4.591-9.64-9.994-9.64h-1.156c-5.403 0-9.805 4.284-9.994 9.64Z"/><path fill="url(#paint2_linear_4002_2843)" d="M5.428 29.911h21.144c-.19-5.356-4.591-9.64-9.994-9.64h-1.156c-5.403 0-9.805 4.284-9.994 9.64Z"/><path fill="url(#paint3_linear_4002_2843)" d="M5.428 29.911h21.144c-.19-5.356-4.591-9.64-9.994-9.64h-1.156c-5.403 0-9.805 4.284-9.994 9.64Z"/><path fill="url(#paint4_radial_4002_2843)" d="M9.058 29.911h-3.63a9.98 9.98 0 0 1 3.63-7.355v7.355Z"/><path fill="url(#paint5_linear_4002_2843)" d="M9.058 29.911h-3.63a9.98 9.98 0 0 1 3.63-7.355v7.355Z"/><path fill="url(#paint6_radial_4002_2843)" d="M22.942 29.911h3.63a9.98 9.98 0 0 0-3.63-7.355v7.355Z"/><path fill="url(#paint7_radial_4002_2843)" d="M22.942 29.911h3.63a9.98 9.98 0 0 0-3.63-7.355v7.355Z"/><g filter="url(#filter0_i_4002_2843)"><path fill="url(#paint8_radial_4002_2843)" d="M11.926 20.161c-1.364.418-2.538 1.308-3.179 1.936a.462.462 0 0 0 .011.659l.65.649a.523.523 0 0 0 .704.02 12.252 12.252 0 0 1 3.107-1.857l-1.293-1.407Z"/><path fill="url(#paint9_radial_4002_2843)" d="M11.926 20.161c-1.364.418-2.538 1.308-3.179 1.936a.462.462 0 0 0 .011.659l.65.649a.523.523 0 0 0 .704.02 12.252 12.252 0 0 1 3.107-1.857l-1.293-1.407Z"/></g><g filter="url(#filter1_ii_4002_2843)"><path fill="#554B59" d="M20.046 20.161c1.364.418 2.538 1.308 3.179 1.936a.461.461 0 0 1-.011.659l-.65.649a.523.523 0 0 1-.704.02 12.252 12.252 0 0 0-3.107-1.857l1.293-1.407Z"/><path fill="url(#paint10_radial_4002_2843)" d="M20.046 20.161c1.364.418 2.538 1.308 3.179 1.936a.461.461 0 0 1-.011.659l-.65.649a.523.523 0 0 1-.704.02 12.252 12.252 0 0 0-3.107-1.857l1.293-1.407Z"/><path fill="url(#paint11_radial_4002_2843)" d="M20.046 20.161c1.364.418 2.538 1.308 3.179 1.936a.461.461 0 0 1-.011.659l-.65.649a.523.523 0 0 1-.704.02 12.252 12.252 0 0 0-3.107-1.857l1.293-1.407Z"/></g><g filter="url(#filter2_f_4002_2843)"><ellipse cx="9.937" cy="22.243" fill="#321F22" rx=".641" ry=".524" transform="rotate(-40.534 9.937 22.243)"/></g><ellipse cx="9.886" cy="22.154" fill="url(#paint12_radial_4002_2843)" rx=".641" ry=".524" transform="rotate(-40.534 9.886 22.154)"/><g filter="url(#filter3_f_4002_2843)"><ellipse fill="#3E3138" rx=".641" ry=".494" transform="scale(-1 1) rotate(-35.343 23.849 45.555)"/></g><ellipse fill="url(#paint13_radial_4002_2843)" rx=".641" ry=".524" transform="scale(-1 1) rotate(-40.534 18.954 40.982)"/><g filter="url(#filter4_iii_4002_2843)"><rect width="7.594" height="9.594" x="12.172" y="14.927" fill="url(#paint14_radial_4002_2843)" rx="3.797"/><rect width="7.594" height="9.594" x="12.172" y="14.927" fill="url(#paint15_radial_4002_2843)" rx="3.797"/><rect width="7.594" height="9.594" x="12.172" y="14.927" fill="url(#paint16_radial_4002_2843)" rx="3.797"/></g><rect width="4.141" height="5.141" x="13.898" y="18.099" fill="url(#paint17_radial_4002_2843)" rx="1.969"/><path fill="url(#paint18_linear_4002_2843)" d="M15.49 23.203v6.708h.989v-6.714a1.974 1.974 0 0 1-.409.042h-.203c-.129 0-.255-.012-.377-.036Z"/><path fill="url(#paint19_linear_4002_2843)" d="M15.49 23.203v6.708h.989v-6.714a1.974 1.974 0 0 1-.409.042h-.203c-.129 0-.255-.012-.377-.036Z"/><g filter="url(#filter5_f_4002_2843)"><circle cx="17.439" cy="28.445" r=".545" fill="#F6265E"/></g><g filter="url(#filter6_f_4002_2843)"><circle cx="17.439" cy="25.445" r=".545" fill="#F6265E"/></g><circle cx="17.494" cy="28.374" r=".545" fill="url(#paint20_radial_4002_2843)"/><circle cx="17.494" cy="25.374" r=".545" fill="url(#paint21_radial_4002_2843)"/><path fill="url(#paint22_radial_4002_2843)" d="M20.861 16.672c.335-.011.65-.125.905-.309v.931c0 .893-.532 1.689-1.341 2.019.17-.363.287-.758.346-1.18l.09-1.461Z"/><path fill="url(#paint23_radial_4002_2843)" d="M11.139 16.672a1.64 1.64 0 0 1-.905-.309v.931c0 .893.532 1.689 1.34 2.019a4.088 4.088 0 0 1-.345-1.18l-.09-1.461Z"/><g filter="url(#filter7_iii_4002_2843)"><path fill="url(#paint24_radial_4002_2843)" d="M11.175 18.186a3.916 3.916 0 0 0 3.886 3.406h1.886a3.916 3.916 0 0 0 3.886-3.405c.118-1.884.237-3.76.324-5.643a1.45 1.45 0 0 0-1.379-1.432h-1.4c-.955 0-1.82-.563-2.212-1.443a.664.664 0 0 0-.615-.418h-1.273c-1.846 0-3.341 1.512-3.341 3.379 0 1.86.116 3.691.238 5.556Z"/><path fill="url(#paint25_radial_4002_2843)" d="M11.175 18.186a3.916 3.916 0 0 0 3.886 3.406h1.886a3.916 3.916 0 0 0 3.886-3.405c.118-1.884.237-3.76.324-5.643a1.45 1.45 0 0 0-1.379-1.432h-1.4c-.955 0-1.82-.563-2.212-1.443a.664.664 0 0 0-.615-.418h-1.273c-1.846 0-3.341 1.512-3.341 3.379 0 1.86.116 3.691.238 5.556Z"/></g><path fill="url(#paint26_linear_4002_2843)" d="M11.175 18.186a3.916 3.916 0 0 0 3.886 3.406h1.886a3.916 3.916 0 0 0 3.886-3.405c.118-1.884.237-3.76.324-5.643a1.45 1.45 0 0 0-1.379-1.432h-1.4c-.955 0-1.82-.563-2.212-1.443a.664.664 0 0 0-.615-.418h-1.273c-1.846 0-3.341 1.512-3.341 3.379 0 1.86.116 3.691.238 5.556Z"/><path fill="url(#paint27_radial_4002_2843)" d="M11.175 18.186a3.916 3.916 0 0 0 3.886 3.406h1.886a3.916 3.916 0 0 0 3.886-3.405c.118-1.884.237-3.76.324-5.643a1.45 1.45 0 0 0-1.379-1.432h-1.4c-.955 0-1.82-.563-2.212-1.443a.664.664 0 0 0-.615-.418h-1.273c-1.846 0-3.341 1.512-3.341 3.379 0 1.86.116 3.691.238 5.556Z"/><path fill="url(#paint28_radial_4002_2843)" d="M11.175 18.186a3.916 3.916 0 0 0 3.886 3.406h1.886a3.916 3.916 0 0 0 3.886-3.405c.118-1.884.237-3.76.324-5.643a1.45 1.45 0 0 0-1.379-1.432h-1.4c-.955 0-1.82-.563-2.212-1.443a.664.664 0 0 0-.615-.418h-1.273c-1.846 0-3.341 1.512-3.341 3.379 0 1.86.116 3.691.238 5.556Z"/><path fill="url(#paint29_radial_4002_2843)" d="M11.175 18.186a3.916 3.916 0 0 0 3.886 3.406h1.886a3.916 3.916 0 0 0 3.886-3.405c.118-1.884.237-3.76.324-5.643a1.45 1.45 0 0 0-1.379-1.432h-1.4c-.955 0-1.82-.563-2.212-1.443a.664.664 0 0 0-.615-.418h-1.273c-1.846 0-3.341 1.512-3.341 3.379 0 1.86.116 3.691.238 5.556Z"/><path fill="url(#paint30_radial_4002_2843)" d="M11.175 18.186a3.916 3.916 0 0 0 3.886 3.406h1.886a3.916 3.916 0 0 0 3.886-3.405c.118-1.884.237-3.76.324-5.643a1.45 1.45 0 0 0-1.379-1.432h-1.4c-.955 0-1.82-.563-2.212-1.443a.664.664 0 0 0-.615-.418h-1.273c-1.846 0-3.341 1.512-3.341 3.379 0 1.86.116 3.691.238 5.556Z"/><path fill="url(#paint31_radial_4002_2843)" d="M11.175 18.186a3.916 3.916 0 0 0 3.886 3.406h1.886a3.916 3.916 0 0 0 3.886-3.405c.118-1.884.237-3.76.324-5.643a1.45 1.45 0 0 0-1.379-1.432h-1.4c-.955 0-1.82-.563-2.212-1.443a.664.664 0 0 0-.615-.418h-1.273c-1.846 0-3.341 1.512-3.341 3.379 0 1.86.116 3.691.238 5.556Z"/><path fill="url(#paint32_radial_4002_2843)" d="M11.175 18.186a3.916 3.916 0 0 0 3.886 3.406h1.886a3.916 3.916 0 0 0 3.886-3.405c.118-1.884.237-3.76.324-5.643a1.45 1.45 0 0 0-1.379-1.432h-1.4c-.955 0-1.82-.563-2.212-1.443a.664.664 0 0 0-.615-.418h-1.273c-1.846 0-3.341 1.512-3.341 3.379 0 1.86.116 3.691.238 5.556Z"/><path fill="url(#paint33_radial_4002_2843)" d="M11.175 18.186a3.916 3.916 0 0 0 3.886 3.406h1.886a3.916 3.916 0 0 0 3.886-3.405c.118-1.884.237-3.76.324-5.643a1.45 1.45 0 0 0-1.379-1.432h-1.4c-.955 0-1.82-.563-2.212-1.443a.664.664 0 0 0-.615-.418h-1.273c-1.846 0-3.341 1.512-3.341 3.379 0 1.86.116 3.691.238 5.556Z"/><path fill="url(#paint34_linear_4002_2843)" d="M11.175 18.186a3.916 3.916 0 0 0 3.886 3.406h1.886a3.916 3.916 0 0 0 3.886-3.405c.118-1.884.237-3.76.324-5.643a1.45 1.45 0 0 0-1.379-1.432h-1.4c-.955 0-1.82-.563-2.212-1.443a.664.664 0 0 0-.615-.418h-1.273c-1.846 0-3.341 1.512-3.341 3.379 0 1.86.116 3.691.238 5.556Z"/><g filter="url(#filter8_f_4002_2843)"><path fill="#6F3F46" d="m15.598 14.903-.59 1.838c-.101.378.141.756.484.756h.732c.343 0 .585-.384.484-.756l-.494-1.838c-.106-.407-.504-.407-.615 0Z"/></g><g filter="url(#filter9_f_4002_2843)"><path fill="#946763" d="m15.618 14.707-.532 1.838c-.108.378.152.757.52.757h.787c.369 0 .63-.384.52-.757l-.53-1.838c-.115-.407-.646-.407-.765 0Z"/><path fill="url(#paint35_linear_4002_2843)" d="m15.618 14.707-.532 1.838c-.108.378.152.757.52.757h.787c.369 0 .63-.384.52-.757l-.53-1.838c-.115-.407-.646-.407-.765 0Z"/><path fill="url(#paint36_radial_4002_2843)" d="m15.618 14.707-.532 1.838c-.108.378.152.757.52.757h.787c.369 0 .63-.384.52-.757l-.53-1.838c-.115-.407-.646-.407-.765 0Z"/><path fill="url(#paint37_linear_4002_2843)" d="m15.618 14.707-.532 1.838c-.108.378.152.757.52.757h.787c.369 0 .63-.384.52-.757l-.53-1.838c-.115-.407-.646-.407-.765 0Z"/><path fill="url(#paint38_radial_4002_2843)" d="m15.618 14.707-.532 1.838c-.108.378.152.757.52.757h.787c.369 0 .63-.384.52-.757l-.53-1.838c-.115-.407-.646-.407-.765 0Z"/></g><g filter="url(#filter10_f_4002_2843)"><path fill="url(#paint39_linear_4002_2843)" d="m15.618 14.582-.532 1.839c-.108.378.152.756.52.756h.787c.369 0 .63-.384.52-.756l-.53-1.838c-.115-.408-.646-.408-.765 0Z"/></g><g filter="url(#filter11_f_4002_2843)"><path stroke="url(#paint40_linear_4002_2843)" stroke-width=".15" d="M14.65 17.923h-.002a.228.228 0 0 0-.27.047.212.212 0 0 0-.024.27c.349.528.956.88 1.646.88s1.297-.352 1.646-.88a.214.214 0 0 0-.024-.272.228.228 0 0 0-.27-.045h-.001c-.39.203-.85.32-1.351.32a2.93 2.93 0 0 1-1.35-.32Z"/></g><path fill="url(#paint41_radial_4002_2843)" d="M16 18.318c-.508 0-.985-.12-1.386-.328-.137-.07-.284.084-.197.209.335.507.918.846 1.583.846.665 0 1.248-.339 1.583-.846.087-.13-.06-.279-.198-.21a2.99 2.99 0 0 1-1.385.33Z"/><path fill="#fff" d="M18.39 13.757c.654 0 1.206.45 1.356 1.058a.274.274 0 0 1-.268.341h-2.231a.23.23 0 0 1-.227-.272c.125-.64.69-1.127 1.37-1.127Z"/><path fill="url(#paint42_radial_4002_2843)" d="M18.184 14.029a.892.892 0 0 1 .86 1.127H17.32a.896.896 0 0 1 .864-1.128Z"/><path fill="#000" d="M17.673 14.921c0-.284.227-.511.511-.511a.509.509 0 0 1 .454.746h-.904a.462.462 0 0 1-.061-.235Z"/><g filter="url(#filter12_f_4002_2843)"><path fill="#C7A7A3" d="M18.118 14.217c.064.085-.069.189-.22.302-.151.113-.263.192-.327.107-.063-.085.008-.245.159-.358.15-.113.325-.136.388-.05Z"/><path fill="url(#paint43_radial_4002_2843)" d="M18.118 14.217c.064.085-.069.189-.22.302-.151.113-.263.192-.327.107-.063-.085.008-.245.159-.358.15-.113.325-.136.388-.05Z"/></g><g filter="url(#filter13_f_4002_2843)"><path fill="url(#paint44_linear_4002_2843)" d="M18.979 14.803a.84.84 0 0 0-.232-.462l-.26.285.118.228.374-.05Z"/></g><path fill="#fff" d="M13.61 13.757c-.654 0-1.206.45-1.356 1.058a.275.275 0 0 0 .268.341h2.231a.23.23 0 0 0 .227-.272 1.401 1.401 0 0 0-1.37-1.127Z"/><path fill="url(#paint45_radial_4002_2843)" d="M13.816 14.029a.892.892 0 0 0-.86 1.127h1.724a.919.919 0 0 0 .033-.235.899.899 0 0 0-.897-.892Z"/><path fill="#000" d="M14.327 14.921a.51.51 0 0 0-.511-.511.51.51 0 0 0-.454.746h.904a.507.507 0 0 0 .061-.235Z"/><g filter="url(#filter14_f_4002_2843)"><path fill="url(#paint46_linear_4002_2843)" d="M14.631 14.816c0-.289-.234-.48-.298-.539l-.288.279.177.361.41-.101Z"/></g><g filter="url(#filter15_f_4002_2843)" transform="rotate(-27.914 13.547 14.41)"><ellipse cx="13.547" cy="14.41" fill="#C7A7A3" fill-opacity=".9" rx=".39" ry=".197"/><ellipse cx="13.547" cy="14.41" fill="url(#paint47_radial_4002_2843)" rx=".39" ry=".197"/></g><path fill="url(#paint48_linear_4002_2843)" d="M20.922 16.762c.066-1.064.13-2.127.184-3.191a1.61 1.61 0 0 1-.184 3.191Z"/><path fill="url(#paint49_radial_4002_2843)" d="M20.922 16.762c.066-1.064.13-2.127.184-3.191a1.61 1.61 0 0 1-.184 3.191Z"/><path fill="url(#paint50_radial_4002_2843)" d="M20.922 16.762c.066-1.064.13-2.127.184-3.191a1.61 1.61 0 0 1-.184 3.191Z"/><path fill="url(#paint51_radial_4002_2843)" d="M20.922 16.762c.066-1.064.13-2.127.184-3.191a1.61 1.61 0 0 1-.184 3.191Z"/><path fill="url(#paint52_linear_4002_2843)" d="M10.956 13.558a1.623 1.623 0 0 0-1.392 1.598c0 .86.673 1.561 1.52 1.607a78.155 78.155 0 0 1-.128-3.205Z"/><path fill="url(#paint53_radial_4002_2843)" d="M10.956 13.558a1.623 1.623 0 0 0-1.392 1.598c0 .86.673 1.561 1.52 1.607a78.155 78.155 0 0 1-.128-3.205Z"/><g filter="url(#filter16_f_4002_2843)"><path fill="url(#paint54_radial_4002_2843)" d="M10.915 14.223a.956.956 0 0 0 .083 1.88 78.175 78.175 0 0 1-.083-1.88Z"/></g><g filter="url(#filter17_f_4002_2843)"><path fill="url(#paint55_linear_4002_2843)" d="M21.05 16.035c.033-.586.065-1.172.095-1.758.4.054.711.426.711.876 0 .484-.36.878-.806.882Z"/></g><g filter="url(#filter18_i_4002_2843)"><path fill="url(#paint56_linear_4002_2843)" d="M10.31 14.155c-.278-.016-.842-.08-1.054-.728-.11-.37.082-.779.143-.91a1.317 1.317 0 0 1 .024-.05c.061-.12.152-.296-.02-.576-.193-.313-.375-.615-.045-1.257.207-.405.093-.652-.032-.875-.183-.327-.166-.604 0-.938.07-.143.173-.275.173-.472 0-.198-.07-.335-.141-.474-.074-.143-.148-.289-.148-.504 0-.23.084-.398.161-.554.066-.133.128-.257.128-.402 0-.129-.06-.24-.125-.364-.094-.178-.201-.38-.164-.69.071-.59.537-.787.756-.879l.02-.008c.21-.089.364-.163.452-.58.046-.215.132-.502.293-.663a1.06 1.06 0 0 1 .791-.3c.257.007.535-.03.752-.254.217-.225.458-.413.699-.453.24-.04.471.014.725.144.281.145.567.07.705-.035.34-.262.718-.32 1.158-.141.18.072.295.112.394.112.098 0 .214-.04.393-.112.44-.18.819-.12 1.159.141a.68.68 0 0 0 .704.035c.254-.13.484-.184.725-.144.241.04.483.228.7.453.216.225.494.261.75.253a1.06 1.06 0 0 1 .793.301c.16.161.246.448.292.663.088.417.243.491.452.58l.02.008c.219.092.685.288.756.878.038.31-.07.513-.164.69-.065.124-.125.236-.125.365 0 .145.062.269.128.402.078.156.161.324.161.554 0 .215-.074.36-.147.504a.935.935 0 0 0-.105.466c0 .528.496.742.176 1.422-.125.223-.324.455-.117.86.33.641.193.955 0 1.268-.171.28-.081.457-.02.577l.02.041.005.009c.06.13.252.54.142.909-.212.649-.775.712-1.054.728H10.31Z"/><path fill="url(#paint57_linear_4002_2843)" d="M10.31 14.155c-.278-.016-.842-.08-1.054-.728-.11-.37.082-.779.143-.91a1.317 1.317 0 0 1 .024-.05c.061-.12.152-.296-.02-.576-.193-.313-.375-.615-.045-1.257.207-.405.093-.652-.032-.875-.183-.327-.166-.604 0-.938.07-.143.173-.275.173-.472 0-.198-.07-.335-.141-.474-.074-.143-.148-.289-.148-.504 0-.23.084-.398.161-.554.066-.133.128-.257.128-.402 0-.129-.06-.24-.125-.364-.094-.178-.201-.38-.164-.69.071-.59.537-.787.756-.879l.02-.008c.21-.089.364-.163.452-.58.046-.215.132-.502.293-.663a1.06 1.06 0 0 1 .791-.3c.257.007.535-.03.752-.254.217-.225.458-.413.699-.453.24-.04.471.014.725.144.281.145.567.07.705-.035.34-.262.718-.32 1.158-.141.18.072.295.112.394.112.098 0 .214-.04.393-.112.44-.18.819-.12 1.159.141a.68.68 0 0 0 .704.035c.254-.13.484-.184.725-.144.241.04.483.228.7.453.216.225.494.261.75.253a1.06 1.06 0 0 1 .793.301c.16.161.246.448.292.663.088.417.243.491.452.58l.02.008c.219.092.685.288.756.878.038.31-.07.513-.164.69-.065.124-.125.236-.125.365 0 .145.062.269.128.402.078.156.161.324.161.554 0 .215-.074.36-.147.504a.935.935 0 0 0-.105.466c0 .528.496.742.176 1.422-.125.223-.324.455-.117.86.33.641.193.955 0 1.268-.171.28-.081.457-.02.577l.02.041.005.009c.06.13.252.54.142.909-.212.649-.775.712-1.054.728H10.31Z"/></g><path fill="url(#paint58_radial_4002_2843)" d="M10.31 14.155c-.278-.016-.842-.08-1.054-.728-.11-.37.082-.779.143-.91a1.317 1.317 0 0 1 .024-.05c.061-.12.152-.296-.02-.576-.193-.313-.375-.615-.045-1.257.207-.405.093-.652-.032-.875-.183-.327-.166-.604 0-.938.07-.143.173-.275.173-.472 0-.198-.07-.335-.141-.474-.074-.143-.148-.289-.148-.504 0-.23.084-.398.161-.554.066-.133.128-.257.128-.402 0-.129-.06-.24-.125-.364-.094-.178-.201-.38-.164-.69.071-.59.537-.787.756-.879l.02-.008c.21-.089.364-.163.452-.58.046-.215.132-.502.293-.663a1.06 1.06 0 0 1 .791-.3c.257.007.535-.03.752-.254.217-.225.458-.413.699-.453.24-.04.471.014.725.144.281.145.567.07.705-.035.34-.262.718-.32 1.158-.141.18.072.295.112.394.112.098 0 .214-.04.393-.112.44-.18.819-.12 1.159.141a.68.68 0 0 0 .704.035c.254-.13.484-.184.725-.144.241.04.483.228.7.453.216.225.494.261.75.253a1.06 1.06 0 0 1 .793.301c.16.161.246.448.292.663.088.417.243.491.452.58l.02.008c.219.092.685.288.756.878.038.31-.07.513-.164.69-.065.124-.125.236-.125.365 0 .145.062.269.128.402.078.156.161.324.161.554 0 .215-.074.36-.147.504a.935.935 0 0 0-.105.466c0 .528.496.742.176 1.422-.125.223-.324.455-.117.86.33.641.193.955 0 1.268-.171.28-.081.457-.02.577l.02.041.005.009c.06.13.252.54.142.909-.212.649-.775.712-1.054.728H10.31Z"/><path fill="url(#paint59_radial_4002_2843)" d="M10.31 14.155c-.278-.016-.842-.08-1.054-.728-.11-.37.082-.779.143-.91a1.317 1.317 0 0 1 .024-.05c.061-.12.152-.296-.02-.576-.193-.313-.375-.615-.045-1.257.207-.405.093-.652-.032-.875-.183-.327-.166-.604 0-.938.07-.143.173-.275.173-.472 0-.198-.07-.335-.141-.474-.074-.143-.148-.289-.148-.504 0-.23.084-.398.161-.554.066-.133.128-.257.128-.402 0-.129-.06-.24-.125-.364-.094-.178-.201-.38-.164-.69.071-.59.537-.787.756-.879l.02-.008c.21-.089.364-.163.452-.58.046-.215.132-.502.293-.663a1.06 1.06 0 0 1 .791-.3c.257.007.535-.03.752-.254.217-.225.458-.413.699-.453.24-.04.471.014.725.144.281.145.567.07.705-.035.34-.262.718-.32 1.158-.141.18.072.295.112.394.112.098 0 .214-.04.393-.112.44-.18.819-.12 1.159.141a.68.68 0 0 0 .704.035c.254-.13.484-.184.725-.144.241.04.483.228.7.453.216.225.494.261.75.253a1.06 1.06 0 0 1 .793.301c.16.161.246.448.292.663.088.417.243.491.452.58l.02.008c.219.092.685.288.756.878.038.31-.07.513-.164.69-.065.124-.125.236-.125.365 0 .145.062.269.128.402.078.156.161.324.161.554 0 .215-.074.36-.147.504a.935.935 0 0 0-.105.466c0 .528.496.742.176 1.422-.125.223-.324.455-.117.86.33.641.193.955 0 1.268-.171.28-.081.457-.02.577l.02.041.005.009c.06.13.252.54.142.909-.212.649-.775.712-1.054.728H10.31Z"/><path fill="url(#paint60_linear_4002_2843)" d="M10.31 14.155c-.278-.016-.842-.08-1.054-.728-.11-.37.082-.779.143-.91a1.317 1.317 0 0 1 .024-.05c.061-.12.152-.296-.02-.576-.193-.313-.375-.615-.045-1.257.207-.405.093-.652-.032-.875-.183-.327-.166-.604 0-.938.07-.143.173-.275.173-.472 0-.198-.07-.335-.141-.474-.074-.143-.148-.289-.148-.504 0-.23.084-.398.161-.554.066-.133.128-.257.128-.402 0-.129-.06-.24-.125-.364-.094-.178-.201-.38-.164-.69.071-.59.537-.787.756-.879l.02-.008c.21-.089.364-.163.452-.58.046-.215.132-.502.293-.663a1.06 1.06 0 0 1 .791-.3c.257.007.535-.03.752-.254.217-.225.458-.413.699-.453.24-.04.471.014.725.144.281.145.567.07.705-.035.34-.262.718-.32 1.158-.141.18.072.295.112.394.112.098 0 .214-.04.393-.112.44-.18.819-.12 1.159.141a.68.68 0 0 0 .704.035c.254-.13.484-.184.725-.144.241.04.483.228.7.453.216.225.494.261.75.253a1.06 1.06 0 0 1 .793.301c.16.161.246.448.292.663.088.417.243.491.452.58l.02.008c.219.092.685.288.756.878.038.31-.07.513-.164.69-.065.124-.125.236-.125.365 0 .145.062.269.128.402.078.156.161.324.161.554 0 .215-.074.36-.147.504a.935.935 0 0 0-.105.466c0 .528.496.742.176 1.422-.125.223-.324.455-.117.86.33.641.193.955 0 1.268-.171.28-.081.457-.02.577l.02.041.005.009c.06.13.252.54.142.909-.212.649-.775.712-1.054.728H10.31Z"/><g filter="url(#filter19_i_4002_2843)"><path fill="url(#paint61_linear_4002_2843)" d="m10.5 14.155.12 3.519c.082 2.424 2.07 4.378 4.497 4.378h1.677c2.44 0 4.435-1.976 4.498-4.416l.09-3.48h-.909l-.12 3.48c-.049 1.898-1.662 3.486-3.56 3.486h-1.676c-1.887 0-3.489-1.597-3.553-3.482l-.09-3.485H10.5Z"/><path fill="url(#paint62_linear_4002_2843)" d="m10.5 14.155.12 3.519c.082 2.424 2.07 4.378 4.497 4.378h1.677c2.44 0 4.435-1.976 4.498-4.416l.09-3.48h-.909l-.12 3.48c-.049 1.898-1.662 3.486-3.56 3.486h-1.676c-1.887 0-3.489-1.597-3.553-3.482l-.09-3.485H10.5Z"/><path fill="url(#paint63_radial_4002_2843)" d="m10.5 14.155.12 3.519c.082 2.424 2.07 4.378 4.497 4.378h1.677c2.44 0 4.435-1.976 4.498-4.416l.09-3.48h-.909l-.12 3.48c-.049 1.898-1.662 3.486-3.56 3.486h-1.676c-1.887 0-3.489-1.597-3.553-3.482l-.09-3.485H10.5Z"/></g><defs><radialGradient id="paint0_radial_4002_2843" cx="0" cy="0" r="1" gradientTransform="matrix(0 7.71875 -19.3424 0 16 26.99)" gradientUnits="userSpaceOnUse"><stop offset=".315" stop-color="#F73C71"/><stop offset="1" stop-color="#D6274F"/></radialGradient><radialGradient id="paint1_radial_4002_2843" cx="0" cy="0" r="1" gradientTransform="matrix(-2.6875 0 0 -8.81836 22.928 27.146)" gradientUnits="userSpaceOnUse"><stop offset=".24" stop-color="#FF6085"/><stop offset="1" stop-color="#FF6085" stop-opacity="0"/></radialGradient><radialGradient id="paint4_radial_4002_2843" cx="0" cy="0" r="1" gradientTransform="matrix(1.96876 -8.07812 2.82155 .68765 6.74 29.911)" gradientUnits="userSpaceOnUse"><stop offset=".232" stop-color="#E43669"/><stop offset="1" stop-color="#B13B50"/></radialGradient><radialGradient id="paint6_radial_4002_2843" cx="0" cy="0" r="1" gradientTransform="rotate(-101.449 24.978 4.727) scale(7.55662 1.96679)" gradientUnits="userSpaceOnUse"><stop stop-color="#FF5C85"/><stop offset="1" stop-color="#E34C67"/></radialGradient><radialGradient id="paint7_radial_4002_2843" cx="0" cy="0" r="1" gradientTransform="matrix(0 -11.366 .65507 0 22.942 29.911)" gradientUnits="userSpaceOnUse"><stop offset=".443" stop-color="#E11C59"/><stop offset="1" stop-color="#EE5076" stop-opacity="0"/></radialGradient><radialGradient id="paint8_radial_4002_2843" cx="0" cy="0" r="1" gradientTransform="matrix(1.35937 1.64062 -3.29137 2.72714 9.71 21.208)" gradientUnits="userSpaceOnUse"><stop stop-color="#454048"/><stop offset="1" stop-color="#382834"/></radialGradient><radialGradient id="paint9_radial_4002_2843" cx="0" cy="0" r="1" gradientTransform="matrix(1.78125 1.85937 -.47826 .45816 8.381 22.458)" gradientUnits="userSpaceOnUse"><stop offset=".435" stop-color="#4B4551"/><stop offset="1" stop-color="#4B4551" stop-opacity="0"/></radialGradient><radialGradient id="paint10_radial_4002_2843" cx="0" cy="0" r="1" gradientTransform="matrix(1.3125 .25 -.73637 3.86594 19.569 21.146)" gradientUnits="userSpaceOnUse"><stop offset=".032" stop-color="#513F4E"/><stop offset="1" stop-color="#513F4E" stop-opacity="0"/></radialGradient><radialGradient id="paint11_radial_4002_2843" cx="0" cy="0" r="1" gradientTransform="rotate(138.094 7.499 15.6) scale(1.63757 .24529)" gradientUnits="userSpaceOnUse"><stop stop-color="#5E5864"/><stop offset="1" stop-color="#5E5864" stop-opacity="0"/></radialGradient><radialGradient id="paint12_radial_4002_2843" cx="0" cy="0" r="1" gradientTransform="rotate(-169.136 6.388 10.772) scale(1.64141 .91814)" gradientUnits="userSpaceOnUse"><stop offset=".525" stop-color="#CC981A"/><stop offset="1" stop-color="#DCB144"/></radialGradient><radialGradient id="paint13_radial_4002_2843" cx="0" cy="0" r="1" gradientTransform="matrix(.678 .80592 -1.4278 1.20118 .1 .257)" gradientUnits="userSpaceOnUse"><stop stop-color="#FFFF50"/><stop offset="1" stop-color="#F6CF1C"/></radialGradient><radialGradient id="paint14_radial_4002_2843" cx="0" cy="0" r="1" gradientTransform="matrix(-2.68749 -3.76563 4.9287 -3.51755 18.1 23.911)" gradientUnits="userSpaceOnUse"><stop stop-color="#5D4364"/><stop offset="1" stop-color="#482949"/></radialGradient><radialGradient id="paint15_radial_4002_2843" cx="0" cy="0" r="1" gradientTransform="matrix(-.39844 0 0 -.91123 15.538 23.763)" gradientUnits="userSpaceOnUse"><stop offset=".244" stop-color="#4A2E4F"/><stop offset="1" stop-color="#4A2E4F" stop-opacity="0"/></radialGradient><radialGradient id="paint16_radial_4002_2843" cx="0" cy="0" r="1" gradientTransform="rotate(112.38 -.17 15.586) scale(1.14905 2.6882)" gradientUnits="userSpaceOnUse"><stop stop-color="#452139"/><stop offset="1" stop-color="#452139" stop-opacity="0"/></radialGradient><radialGradient id="paint17_radial_4002_2843" cx="0" cy="0" r="1" gradientTransform="matrix(1.0625 1.35937 -2.23489 1.7468 15.678 22.02)" gradientUnits="userSpaceOnUse"><stop stop-color="#955268"/><stop offset="1" stop-color="#AC7879"/></radialGradient><radialGradient id="paint20_radial_4002_2843" cx="0" cy="0" r="1" gradientTransform="matrix(-.71875 .59375 -.75915 -.91896 17.85 28.161)" gradientUnits="userSpaceOnUse"><stop stop-color="#FFF153"/><stop offset="1" stop-color="#FCA239"/></radialGradient><radialGradient id="paint21_radial_4002_2843" cx="0" cy="0" r="1" gradientTransform="matrix(-.71875 .59375 -.75915 -.91896 17.85 25.161)" gradientUnits="userSpaceOnUse"><stop stop-color="#FFF153"/><stop offset="1" stop-color="#FCA239"/></radialGradient><radialGradient id="paint22_radial_4002_2843" cx="0" cy="0" r="1" gradientTransform="rotate(69.657 -1.383 23.096) scale(2.15388 2.55864)" gradientUnits="userSpaceOnUse"><stop offset=".215" stop-color="#493B3B"/><stop offset="1" stop-color="#311F2C"/></radialGradient><radialGradient id="paint23_radial_4002_2843" cx="0" cy="0" r="1" gradientTransform="matrix(1.47646 .46402 -1.43155 4.555 9.943 16.853)" gradientUnits="userSpaceOnUse"><stop stop-color="#4C3C39"/><stop offset=".746" stop-color="#2E1C2E"/></radialGradient><radialGradient id="paint24_radial_4002_2843" cx="0" cy="0" r="1" gradientTransform="matrix(-4.70503 0 0 -8.32316 18.808 15.422)" gradientUnits="userSpaceOnUse"><stop stop-color="#C89980"/><stop offset="1" stop-color="#926763"/></radialGradient><radialGradient id="paint25_radial_4002_2843" cx="0" cy="0" r="1" gradientTransform="rotate(121.159 6.269 10.417) scale(3.36898 2.78137)" gradientUnits="userSpaceOnUse"><stop offset=".078" stop-color="#AF887B"/><stop offset="1" stop-color="#AF887B" stop-opacity="0"/></radialGradient><radialGradient id="paint27_radial_4002_2843" cx="0" cy="0" r="1" gradientTransform="matrix(-1.02223 12.42352 -10.28813 -.84653 17.581 9.508)" gradientUnits="userSpaceOnUse"><stop offset=".767" stop-color="#985682" stop-opacity="0"/><stop offset="1" stop-color="#985682"/></radialGradient><radialGradient id="paint28_radial_4002_2843" cx="0" cy="0" r="1" gradientTransform="matrix(0 -1.14835 1.42108 0 18.447 14.109)" gradientUnits="userSpaceOnUse"><stop offset=".325" stop-color="#AB7872"/><stop offset="1" stop-color="#AB7872" stop-opacity="0"/></radialGradient><radialGradient id="paint29_radial_4002_2843" cx="0" cy="0" r="1" gradientTransform="rotate(-89.794 13.953 .203) scale(1.09429 1.19084)" gradientUnits="userSpaceOnUse"><stop offset=".378" stop-color="#8F5D66"/><stop offset="1" stop-color="#8F5D66" stop-opacity="0"/></radialGradient><radialGradient id="paint30_radial_4002_2843" cx="0" cy="0" r="1" gradientTransform="matrix(-8.49598 .5363 -1.37 -21.703 19.433 16.41)" gradientUnits="userSpaceOnUse"><stop offset=".836" stop-color="#987064" stop-opacity="0"/><stop offset="1" stop-color="#987064"/></radialGradient><radialGradient id="paint31_radial_4002_2843" cx="0" cy="0" r="1" gradientTransform="matrix(3.38579 -2.91647 .86148 1.0001 9.208 12.689)" gradientUnits="userSpaceOnUse"><stop offset=".539" stop-color="#63413D"/><stop offset="1" stop-color="#63413D" stop-opacity="0"/></radialGradient><radialGradient id="paint32_radial_4002_2843" cx="0" cy="0" r="1" gradientTransform="rotate(95.368 5.08 16.06) scale(2.50844 1.00273)" gradientUnits="userSpaceOnUse"><stop offset=".245" stop-color="#BF9980"/><stop offset="1" stop-color="#BF9980" stop-opacity="0"/></radialGradient><radialGradient id="paint33_radial_4002_2843" cx="0" cy="0" r="1" gradientTransform="matrix(0 .87159 -1.6732 0 13.784 14.926)" gradientUnits="userSpaceOnUse"><stop stop-color="#9E7765"/><stop offset="1" stop-color="#9E7765" stop-opacity="0"/></radialGradient><radialGradient id="paint36_radial_4002_2843" cx="0" cy="0" r="1" gradientTransform="matrix(0 .2441 -.76718 0 16.466 16.782)" gradientUnits="userSpaceOnUse"><stop stop-color="#BD957F"/><stop offset="1" stop-color="#BD957F" stop-opacity="0"/></radialGradient><radialGradient id="paint38_radial_4002_2843" cx="0" cy="0" r="1" gradientTransform="matrix(-1.69206 .7501 -1.20547 -2.71927 16.582 16.213)" gradientUnits="userSpaceOnUse"><stop offset=".702" stop-color="#8A5F5C" stop-opacity="0"/><stop offset="1" stop-color="#744A4A"/><stop offset="1" stop-color="#8A5F5C"/></radialGradient><radialGradient id="paint41_radial_4002_2843" cx="0" cy="0" r="1" gradientTransform="matrix(2.18198 -1.07272 4.31585 8.77866 15.509 19.045)" gradientUnits="userSpaceOnUse"><stop offset=".562" stop-color="#87014E"/><stop offset="1" stop-color="#87004D"/></radialGradient><radialGradient id="paint42_radial_4002_2843" cx="0" cy="0" r="1" gradientTransform="matrix(0 -1.17408 1.6093 0 18.182 15.156)" gradientUnits="userSpaceOnUse"><stop offset=".548" stop-color="#734B48"/><stop offset=".887" stop-color="#4A2D33"/></radialGradient><radialGradient id="paint43_radial_4002_2843" cx="0" cy="0" r="1" gradientTransform="rotate(-127.812 12.55 2.898) scale(.37829 .52081)" gradientUnits="userSpaceOnUse"><stop offset=".766" stop-color="#FFE6E2" stop-opacity="0"/><stop offset=".966" stop-color="#FFE6E2"/></radialGradient><radialGradient id="paint45_radial_4002_2843" cx="0" cy="0" r="1" gradientTransform="matrix(0 -1.17414 1.60939 0 13.818 15.156)" gradientUnits="userSpaceOnUse"><stop offset=".548" stop-color="#734B48"/><stop offset=".887" stop-color="#4A2D33"/></radialGradient><radialGradient id="paint47_radial_4002_2843" cx="0" cy="0" r="1" gradientTransform="matrix(-.00774 -.49408 .59392 -.0093 13.531 14.725)" gradientUnits="userSpaceOnUse"><stop offset=".766" stop-color="#FFE6E2" stop-opacity="0"/><stop offset=".966" stop-color="#FFE6E2"/></radialGradient><radialGradient id="paint49_radial_4002_2843" cx="0" cy="0" r="1" gradientTransform="matrix(.62855 2.24328 -2.14025 .59968 20.618 14.52)" gradientUnits="userSpaceOnUse"><stop offset=".856" stop-color="#9A676A" stop-opacity="0"/><stop offset="1" stop-color="#9A676A"/></radialGradient><radialGradient id="paint50_radial_4002_2843" cx="0" cy="0" r="1" gradientTransform="matrix(.78778 -1.0811 .90618 .66032 20.978 15.064)" gradientUnits="userSpaceOnUse"><stop offset=".664" stop-color="#9E6A5C"/><stop offset="1" stop-color="#9E6A5C" stop-opacity="0"/></radialGradient><radialGradient id="paint51_radial_4002_2843" cx="0" cy="0" r="1" gradientTransform="matrix(.587 -1.55042 2.07158 .7843 21.092 15.236)" gradientUnits="userSpaceOnUse"><stop offset=".803" stop-color="#A47F62" stop-opacity="0"/><stop offset="1" stop-color="#A47F62"/></radialGradient><radialGradient id="paint53_radial_4002_2843" cx="0" cy="0" r="1" gradientTransform="matrix(-1.65825 0 0 -1.85168 11.085 15.16)" gradientUnits="userSpaceOnUse"><stop offset=".778" stop-color="#9D7667" stop-opacity="0"/><stop offset="1" stop-color="#9D7667"/></radialGradient><radialGradient id="paint54_radial_4002_2843" cx="0" cy="0" r="1" gradientTransform="matrix(-.91648 .1573 -.16128 -.93968 11.086 15.164)" gradientUnits="userSpaceOnUse"><stop stop-color="#714B4D"/><stop offset="1" stop-color="#784E52"/></radialGradient><radialGradient id="paint58_radial_4002_2843" cx="0" cy="0" r="1" gradientTransform="matrix(0 -12.3535 18.2706 0 15.953 14.155)" gradientUnits="userSpaceOnUse"><stop offset=".775" stop-color="#403947" stop-opacity="0"/><stop offset="1" stop-color="#403947"/></radialGradient><radialGradient id="paint59_radial_4002_2843" cx="0" cy="0" r="1" gradientTransform="rotate(-179.736 10.798 2.33) scale(6.78132 1.9151)" gradientUnits="userSpaceOnUse"><stop stop-color="#686070"/><stop offset="1" stop-color="#686070" stop-opacity="0"/></radialGradient><radialGradient id="paint63_radial_4002_2843" cx="0" cy="0" r="1" gradientTransform="matrix(0 1.46875 -.51569 0 21.381 16.27)" gradientUnits="userSpaceOnUse"><stop stop-color="#F6DCF7"/><stop offset="1" stop-color="#F6DCF7" stop-opacity="0"/></radialGradient><linearGradient id="paint2_linear_4002_2843" x1="9.026" x2="9.233" y1="29.911" y2="29.911" gradientUnits="userSpaceOnUse"><stop stop-color="#C2254A"/><stop offset="1" stop-color="#C2254A" stop-opacity="0"/></linearGradient><linearGradient id="paint3_linear_4002_2843" x1="22.975" x2="22.827" y1="29.911" y2="29.911" gradientUnits="userSpaceOnUse"><stop offset=".118" stop-color="#FC356B"/><stop offset="1" stop-color="#FC356B" stop-opacity="0"/></linearGradient><linearGradient id="paint5_linear_4002_2843" x1="9.397" x2="8.084" y1="29.739" y2="29.739" gradientUnits="userSpaceOnUse"><stop stop-color="#AC394E"/><stop offset="1" stop-color="#C9345B" stop-opacity="0"/></linearGradient><linearGradient id="paint18_linear_4002_2843" x1="15.984" x2="15.984" y1="23.197" y2="29.911" gradientUnits="userSpaceOnUse"><stop stop-color="#DBB8DD"/><stop offset="1" stop-color="#D8BBEB"/></linearGradient><linearGradient id="paint19_linear_4002_2843" x1="16.479" x2="16.147" y1="27.271" y2="27.271" gradientUnits="userSpaceOnUse"><stop stop-color="#EACCEB"/><stop offset="1" stop-color="#EACCEB" stop-opacity="0"/></linearGradient><linearGradient id="paint26_linear_4002_2843" x1="21.157" x2="18.628" y1="17.107" y2="17.107" gradientUnits="userSpaceOnUse"><stop stop-color="#C2987E"/><stop offset="1" stop-color="#C2987E" stop-opacity="0"/></linearGradient><linearGradient id="paint34_linear_4002_2843" x1="16.047" x2="16.047" y1="14.091" y2="15.216" gradientUnits="userSpaceOnUse"><stop stop-color="#814D56"/><stop offset="1" stop-color="#956A63" stop-opacity="0"/></linearGradient><linearGradient id="paint35_linear_4002_2843" x1="16.838" x2="16" y1="16.096" y2="16.169" gradientUnits="userSpaceOnUse"><stop stop-color="#BD957F"/><stop offset="1" stop-color="#BD957F" stop-opacity="0"/></linearGradient><linearGradient id="paint37_linear_4002_2843" x1="16" x2="16" y1="17.236" y2="16.771" gradientUnits="userSpaceOnUse"><stop stop-color="#9C6376"/><stop offset="1" stop-color="#9C6376" stop-opacity="0"/></linearGradient><linearGradient id="paint39_linear_4002_2843" x1="16" x2="16.279" y1="14.277" y2="15.888" gradientUnits="userSpaceOnUse"><stop stop-color="#87545A"/><stop offset="1" stop-color="#87545A" stop-opacity="0"/></linearGradient><linearGradient id="paint40_linear_4002_2843" x1="14.798" x2="15.117" y1="18.806" y2="17.972" gradientUnits="userSpaceOnUse"><stop stop-color="#AB817B"/><stop offset="1" stop-color="#AB817B" stop-opacity="0"/></linearGradient><linearGradient id="paint44_linear_4002_2843" x1="18.96" x2="18.646" y1="14.559" y2="14.753" gradientUnits="userSpaceOnUse"><stop stop-color="#B4948D"/><stop offset="1" stop-color="#B4948D" stop-opacity="0"/></linearGradient><linearGradient id="paint46_linear_4002_2843" x1="14.562" x2="14.248" y1="14.559" y2="14.752" gradientUnits="userSpaceOnUse"><stop stop-color="#B4948D"/><stop offset="1" stop-color="#B4948D" stop-opacity="0"/></linearGradient><linearGradient id="paint48_linear_4002_2843" x1="22.436" x2="21.23" y1="14.586" y2="16.762" gradientUnits="userSpaceOnUse"><stop stop-color="#C9A188"/><stop offset="1" stop-color="#B08175"/></linearGradient><linearGradient id="paint52_linear_4002_2843" x1="10.15" x2="11.608" y1="15.29" y2="15.163" gradientUnits="userSpaceOnUse"><stop stop-color="#855D5A"/><stop offset="1" stop-color="#7D4D5B"/></linearGradient><linearGradient id="paint55_linear_4002_2843" x1="21.453" x2="21.453" y1="14.277" y2="16.035" gradientUnits="userSpaceOnUse"><stop stop-color="#AC7F6F"/><stop offset="1" stop-color="#AD806F"/></linearGradient><linearGradient id="paint56_linear_4002_2843" x1="19.866" x2="12.584" y1="11.708" y2="11.708" gradientUnits="userSpaceOnUse"><stop stop-color="#5D536A"/><stop offset=".554" stop-color="#4B3C5B"/><stop offset="1" stop-color="#393341"/></linearGradient><linearGradient id="paint57_linear_4002_2843" x1="9.709" x2="12.428" y1="11.989" y2="11.989" gradientUnits="userSpaceOnUse"><stop stop-color="#4D4C50"/><stop offset="1" stop-color="#393341" stop-opacity="0"/></linearGradient><linearGradient id="paint60_linear_4002_2843" x1="16.538" x2="16.538" y1="14.155" y2="13.88" gradientUnits="userSpaceOnUse"><stop stop-color="#462659"/><stop offset="1" stop-color="#462659" stop-opacity="0"/></linearGradient><linearGradient id="paint61_linear_4002_2843" x1="21.116" x2="15.022" y1="18.489" y2="18.489" gradientUnits="userSpaceOnUse"><stop stop-color="#DFC6ED"/><stop offset="1" stop-color="#C9B0D8"/></linearGradient><linearGradient id="paint62_linear_4002_2843" x1="15.94" x2="15.94" y1="13.927" y2="16.029" gradientUnits="userSpaceOnUse"><stop stop-color="#B593CF"/><stop offset="1" stop-color="#C7AED9" stop-opacity="0"/></linearGradient><filter id="filter0_i_4002_2843" width="4.755" height="3.491" x="8.464" y="20.061" color-interpolation-filters="sRGB" filterUnits="userSpaceOnUse"><feFlood flood-opacity="0" result="BackgroundImageFix"/><feBlend in="SourceGraphic" in2="BackgroundImageFix" result="shape"/><feColorMatrix in="SourceAlpha" result="hardAlpha" values="0 0 0 0 0 0 0 0 0 0 0 0 0 0 0 0 0 0 127 0"/><feOffset dx="-.25" dy="-.1"/><feGaussianBlur stdDeviation=".075"/><feComposite in2="hardAlpha" k2="-1" k3="1" operator="arithmetic"/><feColorMatrix values="0 0 0 0 0.262745 0 0 0 0 0.172549 0 0 0 0 0.309804 0 0 0 1 0"/><feBlend in2="shape" result="effect1_innerShadow_4002_2843"/></filter><filter id="filter1_ii_4002_2843" width="4.705" height="3.591" x="18.753" y="19.961" color-interpolation-filters="sRGB" filterUnits="userSpaceOnUse"><feFlood flood-opacity="0" result="BackgroundImageFix"/><feBlend in="SourceGraphic" in2="BackgroundImageFix" result="shape"/><feColorMatrix in="SourceAlpha" result="hardAlpha" values="0 0 0 0 0 0 0 0 0 0 0 0 0 0 0 0 0 0 127 0"/><feOffset dx=".1" dy="-.2"/><feGaussianBlur stdDeviation=".15"/><feComposite in2="hardAlpha" k2="-1" k3="1" operator="arithmetic"/><feColorMatrix values="0 0 0 0 0.270588 0 0 0 0 0.172549 0 0 0 0 0.309804 0 0 0 1 0"/><feBlend in2="shape" result="effect1_innerShadow_4002_2843"/><feColorMatrix in="SourceAlpha" result="hardAlpha" values="0 0 0 0 0 0 0 0 0 0 0 0 0 0 0 0 0 0 127 0"/><feOffset dx=".1" dy="-.05"/><feGaussianBlur stdDeviation=".05"/><feComposite in2="hardAlpha" k2="-1" k3="1" operator="arithmetic"/><feColorMatrix values="0 0 0 0 0.266667 0 0 0 0 0.0666667 0 0 0 0 0.219608 0 0 0 1 0"/><feBlend in2="effect1_innerShadow_4002_2843" result="effect2_innerShadow_4002_2843"/></filter><filter id="filter2_f_4002_2843" width="2.189" height="2.153" x="8.842" y="21.167" color-interpolation-filters="sRGB" filterUnits="userSpaceOnUse"><feFlood flood-opacity="0" result="BackgroundImageFix"/><feBlend in="SourceGraphic" in2="BackgroundImageFix" result="shape"/><feGaussianBlur result="effect1_foregroundBlur_4002_2843" stdDeviation=".25"/></filter><filter id="filter3_f_4002_2843" width="1.692" height="1.595" x="21.111" y="21.394" color-interpolation-filters="sRGB" filterUnits="userSpaceOnUse"><feFlood flood-opacity="0" result="BackgroundImageFix"/><feBlend in="SourceGraphic" in2="BackgroundImageFix" result="shape"/><feGaussianBlur result="effect1_foregroundBlur_4002_2843" stdDeviation=".125"/></filter><filter id="filter4_iii_4002_2843" width="7.744" height="9.694" x="12.072" y="14.827" color-interpolation-filters="sRGB" filterUnits="userSpaceOnUse"><feFlood flood-opacity="0" result="BackgroundImageFix"/><feBlend in="SourceGraphic" in2="BackgroundImageFix" result="shape"/><feColorMatrix in="SourceAlpha" result="hardAlpha" values="0 0 0 0 0 0 0 0 0 0 0 0 0 0 0 0 0 0 127 0"/><feOffset dx="-.1" dy="-.1"/><feGaussianBlur stdDeviation=".075"/><feComposite in2="hardAlpha" k2="-1" k3="1" operator="arithmetic"/><feColorMatrix values="0 0 0 0 0.439216 0 0 0 0 0.384314 0 0 0 0 0.47451 0 0 0 1 0"/><feBlend in2="shape" result="effect1_innerShadow_4002_2843"/><feColorMatrix in="SourceAlpha" result="hardAlpha" values="0 0 0 0 0 0 0 0 0 0 0 0 0 0 0 0 0 0 127 0"/><feOffset dx=".05" dy="-.1"/><feGaussianBlur stdDeviation=".075"/><feComposite in2="hardAlpha" k2="-1" k3="1" operator="arithmetic"/><feColorMatrix values="0 0 0 0 0.439216 0 0 0 0 0.384314 0 0 0 0 0.47451 0 0 0 1 0"/><feBlend in2="effect1_innerShadow_4002_2843" result="effect2_innerShadow_4002_2843"/><feColorMatrix in="SourceAlpha" result="hardAlpha" values="0 0 0 0 0 0 0 0 0 0 0 0 0 0 0 0 0 0 127 0"/><feOffset dy="-.1"/><feGaussianBlur stdDeviation=".05"/><feComposite in2="hardAlpha" k2="-1" k3="1" operator="arithmetic"/><feColorMatrix values="0 0 0 0 0.329412 0 0 0 0 0.172549 0 0 0 0 0.372549 0 0 0 1 0"/><feBlend in2="effect2_innerShadow_4002_2843" result="effect3_innerShadow_4002_2843"/></filter><filter id="filter5_f_4002_2843" width="2.09" height="2.09" x="16.395" y="27.4" color-interpolation-filters="sRGB" filterUnits="userSpaceOnUse"><feFlood flood-opacity="0" result="BackgroundImageFix"/><feBlend in="SourceGraphic" in2="BackgroundImageFix" result="shape"/><feGaussianBlur result="effect1_foregroundBlur_4002_2843" stdDeviation=".25"/></filter><filter id="filter6_f_4002_2843" width="2.09" height="2.09" x="16.395" y="24.4" color-interpolation-filters="sRGB" filterUnits="userSpaceOnUse"><feFlood flood-opacity="0" result="BackgroundImageFix"/><feBlend in="SourceGraphic" in2="BackgroundImageFix" result="shape"/><feGaussianBlur result="effect1_foregroundBlur_4002_2843" stdDeviation=".25"/></filter><filter id="filter7_iii_4002_2843" width="11.62" height="12.842" x="10.537" y="8.851" color-interpolation-filters="sRGB" filterUnits="userSpaceOnUse"><feFlood flood-opacity="0" result="BackgroundImageFix"/><feBlend in="SourceGraphic" in2="BackgroundImageFix" result="shape"/><feColorMatrix in="SourceAlpha" result="hardAlpha" values="0 0 0 0 0 0 0 0 0 0 0 0 0 0 0 0 0 0 127 0"/><feOffset dx="1"/><feGaussianBlur stdDeviation=".7"/><feComposite in2="hardAlpha" k2="-1" k3="1" operator="arithmetic"/><feColorMatrix values="0 0 0 0 0.584314 0 0 0 0 0.427451 0 0 0 0 0.376471 0 0 0 1 0"/><feBlend in2="shape" result="effect1_innerShadow_4002_2843"/><feColorMatrix in="SourceAlpha" result="hardAlpha" values="0 0 0 0 0 0 0 0 0 0 0 0 0 0 0 0 0 0 127 0"/><feOffset dy=".1"/><feGaussianBlur stdDeviation=".2"/><feComposite in2="hardAlpha" k2="-1" k3="1" operator="arithmetic"/><feColorMatrix values="0 0 0 0 0.419608 0 0 0 0 0.25098 0 0 0 0 0.262745 0 0 0 1 0"/><feBlend in2="effect1_innerShadow_4002_2843" result="effect2_innerShadow_4002_2843"/><feColorMatrix in="SourceAlpha" result="hardAlpha" values="0 0 0 0 0 0 0 0 0 0 0 0 0 0 0 0 0 0 127 0"/><feOffset dx="-.6" dy="-.5"/><feGaussianBlur stdDeviation=".2"/><feComposite in2="hardAlpha" k2="-1" k3="1" operator="arithmetic"/><feColorMatrix values="0 0 0 0 0.47451 0 0 0 0 0.278431 0 0 0 0 0.301961 0 0 0 1 0"/><feBlend in2="effect2_innerShadow_4002_2843" result="effect3_innerShadow_4002_2843"/></filter><filter id="filter8_f_4002_2843" width="3.747" height="4.9" x="13.985" y="13.597" color-interpolation-filters="sRGB" filterUnits="userSpaceOnUse"><feFlood flood-opacity="0" result="BackgroundImageFix"/><feBlend in="SourceGraphic" in2="BackgroundImageFix" result="shape"/><feGaussianBlur result="effect1_foregroundBlur_4002_2843" stdDeviation=".5"/></filter><filter id="filter9_f_4002_2843" width="2.277" height="3.3" x="14.861" y="14.202" color-interpolation-filters="sRGB" filterUnits="userSpaceOnUse"><feFlood flood-opacity="0" result="BackgroundImageFix"/><feBlend in="SourceGraphic" in2="BackgroundImageFix" result="shape"/><feGaussianBlur result="effect1_foregroundBlur_4002_2843" stdDeviation=".1"/></filter><filter id="filter10_f_4002_2843" width="2.277" height="3.3" x="14.861" y="14.077" color-interpolation-filters="sRGB" filterUnits="userSpaceOnUse"><feFlood flood-opacity="0" result="BackgroundImageFix"/><feBlend in="SourceGraphic" in2="BackgroundImageFix" result="shape"/><feGaussianBlur result="effect1_foregroundBlur_4002_2843" stdDeviation=".1"/></filter><filter id="filter11_f_4002_2843" width="3.718" height="1.573" x="14.141" y="17.722" color-interpolation-filters="sRGB" filterUnits="userSpaceOnUse"><feFlood flood-opacity="0" result="BackgroundImageFix"/><feBlend in="SourceGraphic" in2="BackgroundImageFix" result="shape"/><feGaussianBlur result="effect1_foregroundBlur_4002_2843" stdDeviation=".05"/></filter><filter id="filter12_f_4002_2843" width=".787" height=".696" x="17.448" y="14.066" color-interpolation-filters="sRGB" filterUnits="userSpaceOnUse"><feFlood flood-opacity="0" result="BackgroundImageFix"/><feBlend in="SourceGraphic" in2="BackgroundImageFix" result="shape"/><feGaussianBlur result="effect1_foregroundBlur_4002_2843" stdDeviation=".05"/></filter><filter id="filter13_f_4002_2843" width=".891" height=".913" x="18.288" y="14.141" color-interpolation-filters="sRGB" filterUnits="userSpaceOnUse"><feFlood flood-opacity="0" result="BackgroundImageFix"/><feBlend in="SourceGraphic" in2="BackgroundImageFix" result="shape"/><feGaussianBlur result="effect1_foregroundBlur_4002_2843" stdDeviation=".1"/></filter><filter id="filter14_f_4002_2843" width=".986" height="1.04" x="13.845" y="14.077" color-interpolation-filters="sRGB" filterUnits="userSpaceOnUse"><feFlood flood-opacity="0" result="BackgroundImageFix"/><feBlend in="SourceGraphic" in2="BackgroundImageFix" result="shape"/><feGaussianBlur result="effect1_foregroundBlur_4002_2843" stdDeviation=".1"/></filter><filter id="filter15_f_4002_2843" width=".913" height=".705" x="13.09" y="14.057" color-interpolation-filters="sRGB" filterUnits="userSpaceOnUse"><feFlood flood-opacity="0" result="BackgroundImageFix"/><feBlend in="SourceGraphic" in2="BackgroundImageFix" result="shape"/><feGaussianBlur result="effect1_foregroundBlur_4002_2843" stdDeviation=".05"/></filter><filter id="filter16_f_4002_2843" width="1.329" height="2.379" x="9.919" y="13.973" color-interpolation-filters="sRGB" filterUnits="userSpaceOnUse"><feFlood flood-opacity="0" result="BackgroundImageFix"/><feBlend in="SourceGraphic" in2="BackgroundImageFix" result="shape"/><feGaussianBlur result="effect1_foregroundBlur_4002_2843" stdDeviation=".125"/></filter><filter id="filter17_f_4002_2843" width="1.806" height="2.758" x="20.55" y="13.777" color-interpolation-filters="sRGB" filterUnits="userSpaceOnUse"><feFlood flood-opacity="0" result="BackgroundImageFix"/><feBlend in="SourceGraphic" in2="BackgroundImageFix" result="shape"/><feGaussianBlur result="effect1_foregroundBlur_4002_2843" stdDeviation=".25"/></filter><filter id="filter18_i_4002_2843" width="13.655" height="12.317" x="9.076" y="1.839" color-interpolation-filters="sRGB" filterUnits="userSpaceOnUse"><feFlood flood-opacity="0" result="BackgroundImageFix"/><feBlend in="SourceGraphic" in2="BackgroundImageFix" result="shape"/><feColorMatrix in="SourceAlpha" result="hardAlpha" values="0 0 0 0 0 0 0 0 0 0 0 0 0 0 0 0 0 0 127 0"/><feOffset dx="-.1" dy="-.25"/><feGaussianBlur stdDeviation=".25"/><feComposite in2="hardAlpha" k2="-1" k3="1" operator="arithmetic"/><feColorMatrix values="0 0 0 0 0.282353 0 0 0 0 0.203922 0 0 0 0 0.364706 0 0 0 1 0"/><feBlend in2="shape" result="effect1_innerShadow_4002_2843"/></filter><filter id="filter19_i_4002_2843" width="10.882" height="7.996" x="10.499" y="14.056" color-interpolation-filters="sRGB" filterUnits="userSpaceOnUse"><feFlood flood-opacity="0" result="BackgroundImageFix"/><feBlend in="SourceGraphic" in2="BackgroundImageFix" result="shape"/><feColorMatrix in="SourceAlpha" result="hardAlpha" values="0 0 0 0 0 0 0 0 0 0 0 0 0 0 0 0 0 0 127 0"/><feOffset dy="-.1"/><feGaussianBlur stdDeviation=".1"/><feComposite in2="hardAlpha" k2="-1" k3="1" operator="arithmetic"/><feColorMatrix values="0 0 0 0 0.803922 0 0 0 0 0.635294 0 0 0 0 0.886275 0 0 0 1 0"/><feBlend in2="shape" result="effect1_innerShadow_4002_2843"/></filter></defs></svg>