<svg xmlns="http://www.w3.org/2000/svg" width="32" height="32" fill="none" viewBox="0 0 32 32"><g filter="url(#filter0_i_20020_2564)"><path fill="url(#paint0_linear_20020_2564)" d="M22.76 2.023a2.666 2.666 0 0 0-2.666 2.666v8.217h-8.593V8.33a2.666 2.666 0 1 0-5.332 0v10.803c0 6.656 3.453 10.406 8.734 10.844h1.187c2.91-.291 5.907-1.329 8.157-4.547 1.89-3.047 1.648-6.09 1.457-7.876l-.02-.187a94.053 94.053 0 0 1-.258-2.826V4.689a2.666 2.666 0 0 0-2.666-2.666Z"/><path fill="url(#paint1_radial_20020_2564)" d="M22.76 2.023a2.666 2.666 0 0 0-2.666 2.666v8.217h-8.593V8.33a2.666 2.666 0 1 0-5.332 0v10.803c0 6.656 3.453 10.406 8.734 10.844h1.187c2.91-.291 5.907-1.329 8.157-4.547 1.89-3.047 1.648-6.09 1.457-7.876l-.02-.187a94.053 94.053 0 0 1-.258-2.826V4.689a2.666 2.666 0 0 0-2.666-2.666Z"/><path fill="url(#paint2_radial_20020_2564)" d="M22.76 2.023a2.666 2.666 0 0 0-2.666 2.666v8.217h-8.593V8.33a2.666 2.666 0 1 0-5.332 0v10.803c0 6.656 3.453 10.406 8.734 10.844h1.187c2.91-.291 5.907-1.329 8.157-4.547 1.89-3.047 1.648-6.09 1.457-7.876l-.02-.187a94.053 94.053 0 0 1-.258-2.826V4.689a2.666 2.666 0 0 0-2.666-2.666Z"/><path fill="url(#paint3_radial_20020_2564)" d="M22.76 2.023a2.666 2.666 0 0 0-2.666 2.666v8.217h-8.593V8.33a2.666 2.666 0 1 0-5.332 0v10.803c0 6.656 3.453 10.406 8.734 10.844h1.187c2.91-.291 5.907-1.329 8.157-4.547 1.89-3.047 1.648-6.09 1.457-7.876l-.02-.187a94.053 94.053 0 0 1-.258-2.826V4.689a2.666 2.666 0 0 0-2.666-2.666Z"/></g><g fill="#BB7B77" filter="url(#filter1_f_20020_2564)"><path d="M16.372 15.252a2.852 2.852 0 1 0 0 5.703h1.624c3.034 0 4.127 0 6.399-.256 0-3.5-2.836-5.443-6.336-5.447m-1.687 0h1.68Z"/></g><g filter="url(#filter2_f_20020_2564)"><path fill="#BB7B77" d="M9.835 10.959h6.099v6.995H9.835z"/></g><rect width="5.332" height="11.813" x="6.169" y="5.664" fill="url(#paint4_radial_20020_2564)" rx="2.666"/><rect width="5.332" height="11.813" x="6.169" y="5.664" fill="url(#paint5_radial_20020_2564)" rx="2.666"/><rect width="5.332" height="15.453" x="20.094" y="2.023" fill="url(#paint6_radial_20020_2564)" rx="2.666"/><g filter="url(#filter3_i_20020_2564)"><rect width="5.395" height="8.203" x="10.54" y="8.805" fill="url(#paint7_linear_20020_2564)" rx="2.697"/><rect width="5.395" height="8.203" x="10.54" y="8.805" fill="url(#paint8_radial_20020_2564)" rx="2.697"/></g><rect width="5.395" height="8.203" x="10.54" y="8.805" fill="url(#paint9_radial_20020_2564)" rx="2.697"/><rect width="5.395" height="8.203" x="10.54" y="8.805" fill="url(#paint10_linear_20020_2564)" rx="2.697"/><rect width="5.395" height="8.203" x="10.54" y="8.805" fill="url(#paint11_radial_20020_2564)" rx="2.697"/><g filter="url(#filter4_i_20020_2564)"><rect width="5.332" height="10.281" x="15.407" y="7.195" fill="url(#paint12_linear_20020_2564)" rx="2.666"/></g><rect width="5.332" height="10.281" x="15.407" y="7.195" fill="url(#paint13_linear_20020_2564)" rx="2.666"/><g filter="url(#filter5_f_20020_2564)"><path stroke="#FFE3C6" stroke-linecap="round" stroke-width="1.5" d="M23.527 4.602v13.562"/></g><path fill="url(#paint14_radial_20020_2564)" d="M17.739 14.117a2.852 2.852 0 1 0 0 5.703h1.624a1 1 0 0 1 .743.441l2.471 3.652a1 1 0 0 0 1.745-.16l.937-2.142c.332-.759.543-1.586.38-2.398a6.346 6.346 0 0 0-6.213-5.096"/><path fill="url(#paint15_linear_20020_2564)" d="M17.739 14.117a2.852 2.852 0 1 0 0 5.703h1.624a1 1 0 0 1 .743.441l2.471 3.652a1 1 0 0 0 1.745-.16l.937-2.142c.332-.759.543-1.586.38-2.398a6.346 6.346 0 0 0-6.213-5.096"/><path fill="url(#paint16_radial_20020_2564)" d="M17.739 14.117h1.68Z"/><path fill="url(#paint17_linear_20020_2564)" d="M17.739 14.117h1.68Z"/><path fill="url(#paint18_radial_20020_2564)" d="M17.739 14.117a2.852 2.852 0 1 0 0 5.703h1.624a1 1 0 0 1 .743.441l2.471 3.652a1 1 0 0 0 1.745-.16l.937-2.142c.332-.759.543-1.586.38-2.398a6.346 6.346 0 0 0-6.213-5.096"/><path fill="url(#paint19_radial_20020_2564)" d="M17.739 14.117h1.68Z"/><g filter="url(#filter6_f_20020_2564)"><path stroke="url(#paint20_linear_20020_2564)" stroke-linecap="round" stroke-width="1.5" d="M18.073 16.241h2.834a3 3 0 0 1 2.613 1.527l1.307 2.319"/></g><path fill="url(#paint21_linear_20020_2564)" d="M22.76 2.023a2.666 2.666 0 0 0-2.666 2.666v3.434c.402.467.645 1.074.645 1.738v4.95a2.666 2.666 0 0 1-5.184.879 2.697 2.697 0 0 1-5.016-1.38v-2.808c0-.828.374-1.57.962-2.064V8.33a2.666 2.666 0 1 0-5.332 0v10.803c0 6.656 3.453 10.406 8.734 10.844h1.187c2.91-.291 5.907-1.329 8.157-4.547 1.89-3.047 1.648-6.09 1.457-7.876l-.02-.187a94.053 94.053 0 0 1-.258-2.826V4.689a2.666 2.666 0 0 0-2.666-2.666Z"/><path fill="url(#paint22_radial_20020_2564)" d="M22.76 2.023a2.666 2.666 0 0 0-2.666 2.666v3.434c.402.467.645 1.074.645 1.738v4.95a2.666 2.666 0 0 1-5.184.879 2.697 2.697 0 0 1-5.016-1.38v-2.808c0-.828.374-1.57.962-2.064V8.33a2.666 2.666 0 1 0-5.332 0v10.803c0 6.656 3.453 10.406 8.734 10.844h1.187c2.91-.291 5.907-1.329 8.157-4.547 1.89-3.047 1.648-6.09 1.457-7.876l-.02-.187a94.053 94.053 0 0 1-.258-2.826V4.689a2.666 2.666 0 0 0-2.666-2.666Z"/><path fill="url(#paint23_linear_20020_2564)" d="M22.76 2.023a2.666 2.666 0 0 0-2.666 2.666v3.434c.402.467.645 1.074.645 1.738v4.95a2.666 2.666 0 0 1-5.184.879 2.697 2.697 0 0 1-5.016-1.38v-2.808c0-.828.374-1.57.962-2.064V8.33a2.666 2.666 0 1 0-5.332 0v10.803c0 6.656 3.453 10.406 8.734 10.844h1.187c2.91-.291 5.907-1.329 8.157-4.547 1.89-3.047 1.648-6.09 1.457-7.876l-.02-.187a94.053 94.053 0 0 1-.258-2.826V4.689a2.666 2.666 0 0 0-2.666-2.666Z"/><path fill="url(#paint24_radial_20020_2564)" d="M22.76 2.023a2.666 2.666 0 0 0-2.666 2.666v3.434c.402.467.645 1.074.645 1.738v4.95a2.666 2.666 0 0 1-5.184.879 2.697 2.697 0 0 1-5.016-1.38v-2.808c0-.828.374-1.57.962-2.064V8.33a2.666 2.666 0 1 0-5.332 0v10.803c0 6.656 3.453 10.406 8.734 10.844h1.187c2.91-.291 5.907-1.329 8.157-4.547 1.89-3.047 1.648-6.09 1.457-7.876l-.02-.187a94.053 94.053 0 0 1-.258-2.826V4.689a2.666 2.666 0 0 0-2.666-2.666Z"/><g filter="url(#filter7_f_20020_2564)"><path stroke="url(#paint25_linear_20020_2564)" stroke-linecap="round" d="M9.483 8.574v6.737"/></g><g filter="url(#filter8_f_20020_2564)"><rect width=".851" height="3.453" x="13.812" y="11.395" fill="#FFD4BD" rx=".426"/></g><g filter="url(#filter9_f_20020_2564)"><rect width="1.738" height="4.959" x="18.226" y="8.574" fill="#FFE2C3" rx=".869"/></g><defs><radialGradient id="paint1_radial_20020_2564" cx="0" cy="0" r="1" gradientTransform="matrix(1.40994 -4.40607 5.09243 1.62958 21.174 16.563)" gradientUnits="userSpaceOnUse"><stop stop-color="#FFE3C3"/><stop offset="1" stop-color="#FFE3C3" stop-opacity="0"/></radialGradient><radialGradient id="paint2_radial_20020_2564" cx="0" cy="0" r="1" gradientTransform="matrix(-5.26865 0 0 -4.94397 21.72 20.944)" gradientUnits="userSpaceOnUse"><stop stop-color="#F8C2B5"/><stop offset="1" stop-color="#F8C2B5" stop-opacity="0"/></radialGradient><radialGradient id="paint3_radial_20020_2564" cx="0" cy="0" r="1" gradientTransform="matrix(-7.59133 6.41699 -6.71794 -7.94735 11.579 16)" gradientUnits="userSpaceOnUse"><stop stop-color="#D7A190"/><stop offset="1" stop-color="#D7A190" stop-opacity="0"/></radialGradient><radialGradient id="paint4_radial_20020_2564" cx="0" cy="0" r="1" gradientTransform="matrix(-3.39062 3.59376 -2.77814 -2.6211 12.745 12.664)" gradientUnits="userSpaceOnUse"><stop stop-color="#C8846E"/><stop offset="1" stop-color="#C8846E" stop-opacity="0"/></radialGradient><radialGradient id="paint5_radial_20020_2564" cx="0" cy="0" r="1" gradientTransform="matrix(1.85935 0 0 1.79633 10.211 7.683)" gradientUnits="userSpaceOnUse"><stop stop-color="#FFDFC1"/><stop offset="1" stop-color="#FFDFC1" stop-opacity="0"/></radialGradient><radialGradient id="paint6_radial_20020_2564" cx="0" cy="0" r="1" gradientTransform="matrix(2.97373 0 0 2.63918 24.11 4.063)" gradientUnits="userSpaceOnUse"><stop stop-color="#FFE4C7"/><stop offset="1" stop-color="#FFE4C7" stop-opacity="0"/></radialGradient><radialGradient id="paint8_radial_20020_2564" cx="0" cy="0" r="1" gradientTransform="matrix(-1.31357 .85703 -1.14666 -1.7575 16.283 9.946)" gradientUnits="userSpaceOnUse"><stop offset=".215" stop-color="#C08767"/><stop offset="1" stop-color="#C08767" stop-opacity="0"/></radialGradient><radialGradient id="paint9_radial_20020_2564" cx="0" cy="0" r="1" gradientTransform="matrix(0 -3.11578 6.51664 0 13.237 17.207)" gradientUnits="userSpaceOnUse"><stop stop-color="#C48488"/><stop offset="1" stop-color="#C48488" stop-opacity="0"/></radialGradient><radialGradient id="paint11_radial_20020_2564" cx="0" cy="0" r="1" gradientTransform="rotate(160.412 8.808 7.726) scale(9.71985 13.8653)" gradientUnits="userSpaceOnUse"><stop offset=".889" stop-color="#E3A896" stop-opacity="0"/><stop offset="1" stop-color="#E3A896"/></radialGradient><radialGradient id="paint14_radial_20020_2564" cx="0" cy="0" r="1" gradientTransform="matrix(-2.30916 5.18888 -15.9384 -7.0929 22.944 15.185)" gradientUnits="userSpaceOnUse"><stop offset=".184" stop-color="#FFDAB8"/><stop offset="1" stop-color="#C2838A"/></radialGradient><radialGradient id="paint16_radial_20020_2564" cx="0" cy="0" r="1" gradientTransform="matrix(-2.30916 5.18888 -15.9384 -7.0929 22.944 15.185)" gradientUnits="userSpaceOnUse"><stop offset=".184" stop-color="#FFDAB8"/><stop offset="1" stop-color="#C2838A"/></radialGradient><radialGradient id="paint18_radial_20020_2564" cx="0" cy="0" r="1" gradientTransform="matrix(-6.05883 0 0 -12.0286 20.946 16.795)" gradientUnits="userSpaceOnUse"><stop offset=".838" stop-color="#DCA18F" stop-opacity="0"/><stop offset="1" stop-color="#DCA18F"/></radialGradient><radialGradient id="paint19_radial_20020_2564" cx="0" cy="0" r="1" gradientTransform="matrix(-6.05883 0 0 -12.0286 20.946 16.795)" gradientUnits="userSpaceOnUse"><stop offset=".838" stop-color="#DCA18F" stop-opacity="0"/><stop offset="1" stop-color="#DCA18F"/></radialGradient><radialGradient id="paint22_radial_20020_2564" cx="0" cy="0" r="1" gradientTransform="matrix(22.82617 10.50104 -11.16142 24.26165 3.886 11.694)" gradientUnits="userSpaceOnUse"><stop offset=".946" stop-color="#F6C4B2" stop-opacity="0"/><stop offset="1" stop-color="#F6C4B2"/></radialGradient><radialGradient id="paint24_radial_20020_2564" cx="0" cy="0" r="1" gradientTransform="rotate(100.422 4.614 12.8) scale(19.7254 14.941)" gradientUnits="userSpaceOnUse"><stop offset=".916" stop-color="#BD7F96" stop-opacity="0"/><stop offset="1" stop-color="#BD7F96"/></radialGradient><linearGradient id="paint0_linear_20020_2564" x1="12.988" x2="16" y1="2.023" y2="29.977" gradientUnits="userSpaceOnUse"><stop stop-color="#F8C5AA"/><stop offset="1" stop-color="#E2ADA0"/></linearGradient><linearGradient id="paint7_linear_20020_2564" x1="11.844" x2="14.864" y1="11.551" y2="11.561" gradientUnits="userSpaceOnUse"><stop stop-color="#E0AD90"/><stop offset="1" stop-color="#F6C6AB"/></linearGradient><linearGradient id="paint10_linear_20020_2564" x1="15.398" x2="15.028" y1="12.906" y2="12.906" gradientUnits="userSpaceOnUse"><stop stop-color="#DA9D79"/><stop offset="1" stop-color="#DA9D79" stop-opacity="0"/></linearGradient><linearGradient id="paint12_linear_20020_2564" x1="16.302" x2="20.739" y1="10.638" y2="10.638" gradientUnits="userSpaceOnUse"><stop stop-color="#DFAB8F"/><stop offset="1" stop-color="#FFD4B5"/></linearGradient><linearGradient id="paint13_linear_20020_2564" x1="21.593" x2="17.527" y1="11.495" y2="11.495" gradientUnits="userSpaceOnUse"><stop stop-color="bisque"/><stop offset="1" stop-color="bisque" stop-opacity="0"/></linearGradient><linearGradient id="paint15_linear_20020_2564" x1="24.642" x2="21.636" y1="22.688" y2="20.179" gradientUnits="userSpaceOnUse"><stop offset=".249" stop-color="#E3ADA1"/><stop offset="1" stop-color="#E3ADA1" stop-opacity="0"/></linearGradient><linearGradient id="paint17_linear_20020_2564" x1="24.642" x2="21.636" y1="22.688" y2="20.179" gradientUnits="userSpaceOnUse"><stop offset=".249" stop-color="#E3ADA1"/><stop offset="1" stop-color="#E3ADA1" stop-opacity="0"/></linearGradient><linearGradient id="paint20_linear_20020_2564" x1="18.073" x2="25.419" y1="16.241" y2="18.953" gradientUnits="userSpaceOnUse"><stop stop-color="#FFE1C6"/><stop offset="1" stop-color="#FFE1C6" stop-opacity="0"/></linearGradient><linearGradient id="paint21_linear_20020_2564" x1="26.12" x2="23.557" y1="16.723" y2="16.723" gradientUnits="userSpaceOnUse"><stop stop-color="#FFDABE"/><stop offset="1" stop-color="#FFDABE" stop-opacity="0"/></linearGradient><linearGradient id="paint23_linear_20020_2564" x1="6.006" x2="6.834" y1="16.752" y2="16.752" gradientUnits="userSpaceOnUse"><stop stop-color="#EFB39B"/><stop offset="1" stop-color="#EFB39B" stop-opacity="0"/></linearGradient><linearGradient id="paint25_linear_20020_2564" x1="10.164" x2="10.164" y1="4.082" y2="17.402" gradientUnits="userSpaceOnUse"><stop stop-color="#FFE0C3"/><stop offset="1" stop-color="#FFE0C3" stop-opacity="0"/></linearGradient><filter id="filter0_i_20020_2564" width="20.413" height="28.703" x="6.169" y="1.273" color-interpolation-filters="sRGB" filterUnits="userSpaceOnUse"><feFlood flood-opacity="0" result="BackgroundImageFix"/><feBlend in="SourceGraphic" in2="BackgroundImageFix" result="shape"/><feColorMatrix in="SourceAlpha" result="hardAlpha" values="0 0 0 0 0 0 0 0 0 0 0 0 0 0 0 0 0 0 127 0"/><feOffset dx=".75" dy="-.75"/><feGaussianBlur stdDeviation="1.25"/><feComposite in2="hardAlpha" k2="-1" k3="1" operator="arithmetic"/><feColorMatrix values="0 0 0 0 0.823529 0 0 0 0 0.592157 0 0 0 0 0.572549 0 0 0 1 0"/><feBlend in2="shape" result="effect1_innerShadow_20020_2564"/></filter><filter id="filter1_f_20020_2564" width="14.875" height="9.703" x="11.52" y="13.252" color-interpolation-filters="sRGB" filterUnits="userSpaceOnUse"><feFlood flood-opacity="0" result="BackgroundImageFix"/><feBlend in="SourceGraphic" in2="BackgroundImageFix" result="shape"/><feGaussianBlur result="effect1_foregroundBlur_20020_2564" stdDeviation="1"/></filter><filter id="filter2_f_20020_2564" width="10.099" height="10.995" x="7.835" y="8.959" color-interpolation-filters="sRGB" filterUnits="userSpaceOnUse"><feFlood flood-opacity="0" result="BackgroundImageFix"/><feBlend in="SourceGraphic" in2="BackgroundImageFix" result="shape"/><feGaussianBlur result="effect1_foregroundBlur_20020_2564" stdDeviation="1"/></filter><filter id="filter3_i_20020_2564" width="6.145" height="8.953" x="10.54" y="8.055" color-interpolation-filters="sRGB" filterUnits="userSpaceOnUse"><feFlood flood-opacity="0" result="BackgroundImageFix"/><feBlend in="SourceGraphic" in2="BackgroundImageFix" result="shape"/><feColorMatrix in="SourceAlpha" result="hardAlpha" values="0 0 0 0 0 0 0 0 0 0 0 0 0 0 0 0 0 0 127 0"/><feOffset dx=".75" dy="-.75"/><feGaussianBlur stdDeviation="1"/><feComposite in2="hardAlpha" k2="-1" k3="1" operator="arithmetic"/><feColorMatrix values="0 0 0 0 0.866667 0 0 0 0 0.654902 0 0 0 0 0.537255 0 0 0 1 0"/><feBlend in2="shape" result="effect1_innerShadow_20020_2564"/></filter><filter id="filter4_i_20020_2564" width="6.082" height="11.031" x="15.407" y="6.445" color-interpolation-filters="sRGB" filterUnits="userSpaceOnUse"><feFlood flood-opacity="0" result="BackgroundImageFix"/><feBlend in="SourceGraphic" in2="BackgroundImageFix" result="shape"/><feColorMatrix in="SourceAlpha" result="hardAlpha" values="0 0 0 0 0 0 0 0 0 0 0 0 0 0 0 0 0 0 127 0"/><feOffset dx=".75" dy="-.75"/><feGaussianBlur stdDeviation="1"/><feComposite in2="hardAlpha" k2="-1" k3="1" operator="arithmetic"/><feColorMatrix values="0 0 0 0 0.807843 0 0 0 0 0.627451 0 0 0 0 0.52549 0 0 0 1 0"/><feBlend in2="shape" result="effect1_innerShadow_20020_2564"/></filter><filter id="filter5_f_20020_2564" width="5.5" height="19.063" x="20.777" y="1.852" color-interpolation-filters="sRGB" filterUnits="userSpaceOnUse"><feFlood flood-opacity="0" result="BackgroundImageFix"/><feBlend in="SourceGraphic" in2="BackgroundImageFix" result="shape"/><feGaussianBlur result="effect1_foregroundBlur_20020_2564" stdDeviation="1"/></filter><filter id="filter6_f_20020_2564" width="11.654" height="8.746" x="15.623" y="13.791" color-interpolation-filters="sRGB" filterUnits="userSpaceOnUse"><feFlood flood-opacity="0" result="BackgroundImageFix"/><feBlend in="SourceGraphic" in2="BackgroundImageFix" result="shape"/><feGaussianBlur result="effect1_foregroundBlur_20020_2564" stdDeviation=".85"/></filter><filter id="filter7_f_20020_2564" width="3" height="9.736" x="7.983" y="7.074" color-interpolation-filters="sRGB" filterUnits="userSpaceOnUse"><feFlood flood-opacity="0" result="BackgroundImageFix"/><feBlend in="SourceGraphic" in2="BackgroundImageFix" result="shape"/><feGaussianBlur result="effect1_foregroundBlur_20020_2564" stdDeviation=".5"/></filter><filter id="filter8_f_20020_2564" width="2.851" height="5.453" x="12.812" y="10.395" color-interpolation-filters="sRGB" filterUnits="userSpaceOnUse"><feFlood flood-opacity="0" result="BackgroundImageFix"/><feBlend in="SourceGraphic" in2="BackgroundImageFix" result="shape"/><feGaussianBlur result="effect1_foregroundBlur_20020_2564" stdDeviation=".5"/></filter><filter id="filter9_f_20020_2564" width="4.738" height="7.958" x="16.726" y="7.074" color-interpolation-filters="sRGB" filterUnits="userSpaceOnUse"><feFlood flood-opacity="0" result="BackgroundImageFix"/><feBlend in="SourceGraphic" in2="BackgroundImageFix" result="shape"/><feGaussianBlur result="effect1_foregroundBlur_20020_2564" stdDeviation=".75"/></filter></defs></svg>