<svg xmlns="http://www.w3.org/2000/svg" width="32" height="32" fill="none" viewBox="0 0 32 32"><path fill="url(#paint0_linear_4002_2455)" d="M16.005 15.5c-6.07 0-11 4.92-11 11V30h21.99v-3.5c0-6.08-4.92-11-10.99-11Z"/><path fill="url(#paint1_radial_4002_2455)" d="M16.005 15.5c-6.07 0-11 4.92-11 11V30h21.99v-3.5c0-6.08-4.92-11-10.99-11Z"/><path fill="url(#paint2_radial_4002_2455)" d="M23.13 18.123v11.878h3.865v-3.5c0-3.357-1.5-6.36-3.865-8.378Z"/><path fill="url(#paint3_radial_4002_2455)" d="M23.13 18.123v11.878h3.865v-3.5c0-3.357-1.5-6.36-3.865-8.378Z"/><path fill="url(#paint4_radial_4002_2455)" d="M8.88 30V18.12a10.974 10.974 0 0 0-3.875 8.38V30H8.88Z"/><path fill="url(#paint5_linear_4002_2455)" d="M8.88 30V18.12a10.974 10.974 0 0 0-3.875 8.38V30H8.88Z"/><path fill="url(#paint6_radial_4002_2455)" d="M8.88 30V18.12a10.974 10.974 0 0 0-3.875 8.38V30H8.88Z"/><path fill="url(#paint7_radial_4002_2455)" d="M18.705 16.11h-5.41V30h5.41V16.11Z"/><path fill="url(#paint8_linear_4002_2455)" d="M18.705 16.11h-5.41V30h5.41V16.11Z"/><path fill="url(#paint9_linear_4002_2455)" d="M18.705 16.11h-5.41V30h5.41V16.11Z"/><path fill="url(#paint10_radial_4002_2455)" d="M18.705 16.11h-5.41V30h5.41V16.11Z"/><g filter="url(#filter0_f_4002_2455)"><path fill="#8F809C" d="M16.005 15.348H13.49v4.74c0 .31.334.49.566.29l1.95-1.67 1.948 1.67c.232.2.567.02.567-.29v-4.74h-2.516Z"/></g><path fill="url(#paint11_radial_4002_2455)" d="M15.517 21.044a.25.25 0 0 0-.247.212l-1.335 8.745h4.12l-1.33-8.745a.25.25 0 0 0-.247-.212h-.96Z"/><g filter="url(#filter1_f_4002_2455)"><path fill="#44375D" d="M12.795 16.462c-.46.117-.364.099-.8.271-.54.784-1.546 2.199-1.85 2.873-.09.19.05.41.26.41l1.18-.174c.24 0 .35.29.19.45l-1.37 1.196c-.26.26-.36.65-.23 1l2.893 6.334-.273-12.36Z"/></g><g filter="url(#filter2_ii_4002_2455)"><path fill="url(#paint12_linear_4002_2455)" d="M13.295 15.837c-.46.117-.91.263-1.345.436a.196.196 0 0 1-.035.018l-1.27 2.69c-.09.19.05.41.26.41h1.05c.24 0 .35.29.19.45l-1.36 1.33c-.26.26-.36.65-.23 1l2.73 7.82h.01V15.837Z"/><path fill="url(#paint13_radial_4002_2455)" d="M13.295 15.837c-.46.117-.91.263-1.345.436a.196.196 0 0 1-.035.018l-1.27 2.69c-.09.19.05.41.26.41h1.05c.24 0 .35.29.19.45l-1.36 1.33c-.26.26-.36.65-.23 1l2.73 7.82h.01V15.837Z"/><path fill="url(#paint14_radial_4002_2455)" d="M13.295 15.837c-.46.117-.91.263-1.345.436a.196.196 0 0 1-.035.018l-1.27 2.69c-.09.19.05.41.26.41h1.05c.24 0 .35.29.19.45l-1.36 1.33c-.26.26-.36.65-.23 1l2.73 7.82h.01V15.837Z"/></g><path fill="url(#paint15_linear_4002_2455)" d="M13.295 15.837c-.46.117-.91.263-1.345.436a.196.196 0 0 1-.035.018l-1.27 2.69c-.09.19.05.41.26.41h1.05c.24 0 .35.29.19.45l-1.36 1.33c-.26.26-.36.65-.23 1l2.73 7.82h.01V15.837Z"/><g filter="url(#filter3_f_4002_2455)"><path fill="#44375D" d="m20.055 20.48.444 1.049c.202.26.272.65.178 1.01l-1.295 4.646-.22-10.446.09-.183c.338.116.668.257.989.423l.98 2.64c.07.19-.04.41-.202.41h-.816c-.187 0-.28.28-.148.45Z"/></g><g filter="url(#filter4_ii_4002_2455)"><path fill="url(#paint16_linear_4002_2455)" d="m19.865 19.79 1.36 1.33c.26.26.35.65.23 1.01l-2.74 7.86V16.05l.117-.182c.435.115.86.257 1.272.423l1.261 2.64c.09.19-.05.41-.26.41h-1.05c-.24 0-.36.28-.19.45Z"/><path fill="url(#paint17_radial_4002_2455)" d="m19.865 19.79 1.36 1.33c.26.26.35.65.23 1.01l-2.74 7.86V16.05l.117-.182c.435.115.86.257 1.272.423l1.261 2.64c.09.19-.05.41-.26.41h-1.05c-.24 0-.36.28-.19.45Z"/></g><path fill="url(#paint18_radial_4002_2455)" d="M16.005 15.284h-2.71v4.74c0 .31.36.49.61.29l2.1-1.67 2.1 1.67c.25.2.61.02.61-.29v-4.74h-2.71Z"/><path fill="url(#paint19_radial_4002_2455)" d="M16.005 15.284h-2.71v4.74c0 .31.36.49.61.29l2.1-1.67 2.1 1.67c.25.2.61.02.61-.29v-4.74h-2.71Z"/><path fill="url(#paint20_linear_4002_2455)" d="M16.005 15.284h-2.71v4.74c0 .31.36.49.61.29l2.1-1.67 2.1 1.67c.25.2.61.02.61-.29v-4.74h-2.71Z"/><path fill="url(#paint21_linear_4002_2455)" d="M16.005 15.284h-2.71v4.74c0 .31.36.49.61.29l2.1-1.67 2.1 1.67c.25.2.61.02.61-.29v-4.74h-2.71Z"/><g filter="url(#filter5_ii_4002_2455)"><path fill="url(#paint22_linear_4002_2455)" d="m14.732 19.661 1.267-1.098 1.268 1.075-.546 1.265a.238.238 0 0 1-.216.14h-1.022a.238.238 0 0 1-.216-.14l-.535-1.242Z"/></g><path fill="url(#paint23_radial_4002_2455)" d="M16.005 18.445c1.789-.788 1.932-1.316 1.919-1.7h-3.838c-.013.384.224.97 1.919 1.7Z"/><g filter="url(#filter6_f_4002_2455)"><path fill="#473A60" d="M23.247 19.836h-.611c-.22 0-.42.13-.516.329-.01.02-.038.02-.038 0a.575.575 0 0 0-.516-.33h-.592c-.124 0-.23.09-.239.22-.01.13.096.25.22.25h.152c.18 0 .18.079.213.15a.339.339 0 0 0 .306.198h.238l.54.13c.133 0 .46-.1.518-.22l.086-.199c.02-.04.057-.06.096-.06h.143c.124 0 .229-.09.238-.219-.01-.14-.114-.25-.238-.25Z"/></g><g filter="url(#filter7_ii_4002_2455)"><path fill="url(#paint24_linear_4002_2455)" d="M23.365 19.78h-.64c-.23 0-.44.13-.54.33-.01.02-.04.02-.04 0-.1-.2-.31-.33-.54-.33h-.62c-.13 0-.24.09-.25.22-.01.13.1.25.23.25h.16c.04 0 .08.02.1.06l.09.2c.06.12.18.2.32.2h1.07c.14 0 .26-.08.32-.2l.09-.2a.11.11 0 0 1 .1-.06h.15c.13 0 .24-.09.25-.22-.01-.14-.12-.25-.25-.25Z"/></g><path fill="url(#paint25_radial_4002_2455)" d="M20.946 12.097c.335-.011.65-.125.905-.309v.931c0 .893-.532 1.689-1.341 2.02.17-.364.287-.759.346-1.18l.09-1.462Z"/><path fill="url(#paint26_radial_4002_2455)" d="M20.946 12.097c.335-.011.65-.125.905-.309v.931c0 .893-.532 1.689-1.341 2.02.17-.364.287-.759.346-1.18l.09-1.462Z"/><path fill="url(#paint27_radial_4002_2455)" d="M11.224 12.097a1.64 1.64 0 0 1-.905-.309v.931c0 .893.532 1.689 1.341 2.02a4.09 4.09 0 0 1-.346-1.18l-.09-1.462Z"/><path fill="url(#paint28_radial_4002_2455)" d="M11.224 12.097a1.64 1.64 0 0 1-.905-.309v.931c0 .893.532 1.689 1.341 2.02a4.09 4.09 0 0 1-.346-1.18l-.09-1.462Z"/><path fill="url(#paint29_linear_4002_2455)" d="M10.357 6.319h.719v3.752h-.719z"/><path fill="url(#paint30_radial_4002_2455)" d="M21.131 6.319h.719v3.752h-.719z"/><g filter="url(#filter8_ii_4002_2455)"><path fill="url(#paint31_radial_4002_2455)" d="M11.26 13.612a3.916 3.916 0 0 0 3.886 3.405h1.886a3.916 3.916 0 0 0 3.886-3.405c.118-1.884.237-3.76.324-5.643a1.45 1.45 0 0 0-1.379-1.432h-1.4c-.955 0-1.82-.563-2.212-1.443a.664.664 0 0 0-.615-.418h-1.273c-1.846 0-3.341 1.512-3.341 3.379 0 1.86.116 3.691.238 5.557Z"/></g><path fill="url(#paint32_radial_4002_2455)" d="M11.26 13.612a3.916 3.916 0 0 0 3.886 3.405h1.886a3.916 3.916 0 0 0 3.886-3.405c.118-1.884.237-3.76.324-5.643a1.45 1.45 0 0 0-1.379-1.432h-1.4c-.955 0-1.82-.563-2.212-1.443a.664.664 0 0 0-.615-.418h-1.273c-1.846 0-3.341 1.512-3.341 3.379 0 1.86.116 3.691.238 5.557Z"/><path fill="url(#paint33_radial_4002_2455)" d="M11.26 13.612a3.916 3.916 0 0 0 3.886 3.405h1.886a3.916 3.916 0 0 0 3.886-3.405c.118-1.884.237-3.76.324-5.643a1.45 1.45 0 0 0-1.379-1.432h-1.4c-.955 0-1.82-.563-2.212-1.443a.664.664 0 0 0-.615-.418h-1.273c-1.846 0-3.341 1.512-3.341 3.379 0 1.86.116 3.691.238 5.557Z"/><path fill="url(#paint34_radial_4002_2455)" d="M11.26 13.612a3.916 3.916 0 0 0 3.886 3.405h1.886a3.916 3.916 0 0 0 3.886-3.405c.118-1.884.237-3.76.324-5.643a1.45 1.45 0 0 0-1.379-1.432h-1.4c-.955 0-1.82-.563-2.212-1.443a.664.664 0 0 0-.615-.418h-1.273c-1.846 0-3.341 1.512-3.341 3.379 0 1.86.116 3.691.238 5.557Z"/><path fill="url(#paint35_radial_4002_2455)" d="M11.26 13.612a3.916 3.916 0 0 0 3.886 3.405h1.886a3.916 3.916 0 0 0 3.886-3.405c.118-1.884.237-3.76.324-5.643a1.45 1.45 0 0 0-1.379-1.432h-1.4c-.955 0-1.82-.563-2.212-1.443a.664.664 0 0 0-.615-.418h-1.273c-1.846 0-3.341 1.512-3.341 3.379 0 1.86.116 3.691.238 5.557Z"/><path fill="url(#paint36_radial_4002_2455)" d="M11.26 13.612a3.916 3.916 0 0 0 3.886 3.405h1.886a3.916 3.916 0 0 0 3.886-3.405c.118-1.884.237-3.76.324-5.643a1.45 1.45 0 0 0-1.379-1.432h-1.4c-.955 0-1.82-.563-2.212-1.443a.664.664 0 0 0-.615-.418h-1.273c-1.846 0-3.341 1.512-3.341 3.379 0 1.86.116 3.691.238 5.557Z"/><g filter="url(#filter9_f_4002_2455)"><path fill="#EE9020" d="m15.599 10.328-.635 1.838c-.109.378.152.756.52.756h.787c.369 0 .629-.383.52-.756l-.53-1.838c-.115-.407-.543-.407-.662 0Z"/></g><g filter="url(#filter10_f_4002_2455)"><path fill="url(#paint37_linear_4002_2455)" d="m15.703 10.132-.532 1.838c-.108.379.152.757.52.757h.787c.369 0 .63-.384.52-.757l-.53-1.838c-.115-.407-.646-.407-.765 0Z"/><path fill="url(#paint38_linear_4002_2455)" d="m15.703 10.132-.532 1.838c-.108.379.152.757.52.757h.787c.369 0 .63-.384.52-.757l-.53-1.838c-.115-.407-.646-.407-.765 0Z"/><path fill="url(#paint39_linear_4002_2455)" d="m15.703 10.132-.532 1.838c-.108.379.152.757.52.757h.787c.369 0 .63-.384.52-.757l-.53-1.838c-.115-.407-.646-.407-.765 0Z"/><path fill="url(#paint40_linear_4002_2455)" d="m15.703 10.132-.532 1.838c-.108.379.152.757.52.757h.787c.369 0 .63-.384.52-.757l-.53-1.838c-.115-.407-.646-.407-.765 0Z"/></g><g filter="url(#filter11_f_4002_2455)"><path stroke="url(#paint41_radial_4002_2455)" stroke-width=".15" d="M14.734 13.348c.39.203.855.32 1.35.32.502 0 .962-.116 1.352-.32a.228.228 0 0 1 .271.044.214.214 0 0 1 .024.273m-2.997-.317 2.934.276m-2.934-.276a.228.228 0 0 0-.272.047.212.212 0 0 0-.023.27m.295-.317-.232.276m3.229.041-.063-.041m.063.041-.063-.041m.063.041a1.97 1.97 0 0 1-1.646.88 1.97 1.97 0 0 1-1.646-.88m3.23-.041a1.894 1.894 0 0 1-1.584.846 1.893 1.893 0 0 1-1.583-.846m-.063.042.063-.042m-.063.042v-.001l.063-.041"/></g><path fill="url(#paint42_radial_4002_2455)" d="M16.085 13.743c-.508 0-.985-.12-1.386-.328-.136-.07-.284.084-.197.209.334.507.918.846 1.583.846.665 0 1.248-.339 1.583-.846.087-.13-.06-.279-.198-.21a2.99 2.99 0 0 1-1.385.33Z"/><path fill="#fff" d="M18.476 9.182c.653 0 1.205.45 1.355 1.058a.274.274 0 0 1-.268.341h-2.23a.23.23 0 0 1-.228-.272 1.398 1.398 0 0 1 1.371-1.127Z"/><path fill="url(#paint43_radial_4002_2455)" d="M18.27 9.453a.892.892 0 0 1 .86 1.128h-1.725a.896.896 0 0 1 .864-1.128Z"/><path fill="#000" d="M17.758 10.346a.51.51 0 0 1 .511-.512.509.509 0 0 1 .454.747h-.904a.462.462 0 0 1-.061-.235Z"/><g filter="url(#filter12_f_4002_2455)"><path fill="#C7A7A3" d="M18.203 9.642c.064.085-.069.189-.22.302-.151.112-.263.192-.327.107-.063-.085.008-.246.159-.359.15-.113.325-.135.388-.05Z"/><path fill="url(#paint44_radial_4002_2455)" d="M18.203 9.642c.064.085-.069.189-.22.302-.151.112-.263.192-.327.107-.063-.085.008-.246.159-.359.15-.113.325-.135.388-.05Z"/></g><g filter="url(#filter13_f_4002_2455)"><path fill="url(#paint45_linear_4002_2455)" d="M19.064 10.228a.84.84 0 0 0-.231-.462l-.26.285.117.228.374-.05Z"/></g><path fill="#fff" d="M13.694 9.182c-.653 0-1.205.45-1.355 1.059-.045.174.09.34.268.34h2.231a.23.23 0 0 0 .227-.272 1.401 1.401 0 0 0-1.37-1.127Z"/><path fill="url(#paint46_radial_4002_2455)" d="M13.9 9.453a.893.893 0 0 0-.86 1.128h1.725a.914.914 0 0 0 .032-.235.899.899 0 0 0-.896-.893Z"/><path fill="#000" d="M14.412 10.346a.51.51 0 0 0-.511-.512.51.51 0 0 0-.455.747h.905a.507.507 0 0 0 .061-.235Z"/><g filter="url(#filter14_f_4002_2455)"><path fill="url(#paint47_linear_4002_2455)" d="M14.716 10.24c0-.287-.234-.48-.298-.538l-.288.279.177.361.41-.101Z"/></g><g filter="url(#filter15_f_4002_2455)" transform="rotate(-27.914 13.632 9.835)"><ellipse cx="13.632" cy="9.835" fill="#C7A7A3" fill-opacity=".9" rx=".39" ry=".197"/><ellipse cx="13.632" cy="9.835" fill="url(#paint48_radial_4002_2455)" rx=".39" ry=".197"/></g><path fill="url(#paint49_linear_4002_2455)" d="M21.007 12.187c.066-1.064.13-2.127.184-3.19a1.61 1.61 0 0 1-.184 3.19Z"/><path fill="url(#paint50_radial_4002_2455)" d="M21.007 12.187c.066-1.064.13-2.127.184-3.19a1.61 1.61 0 0 1-.184 3.19Z"/><path fill="url(#paint51_radial_4002_2455)" d="M21.007 12.187c.066-1.064.13-2.127.184-3.19a1.61 1.61 0 0 1-.184 3.19Z"/><path fill="url(#paint52_linear_4002_2455)" d="M11.031 8.988a1.61 1.61 0 0 0 .138 3.2 78.12 78.12 0 0 1-.138-3.2Z"/><path fill="url(#paint53_radial_4002_2455)" d="M11.031 8.988a1.61 1.61 0 0 0 .138 3.2 78.12 78.12 0 0 1-.138-3.2Z"/><g filter="url(#filter16_f_4002_2455)"><path fill="#DD8224" d="M11.048 9.649a.956.956 0 0 0 .083 1.88 78.165 78.165 0 0 1-.083-1.88Z"/></g><g filter="url(#filter17_f_4002_2455)"><path fill="#FFC837" d="M21.047 11.536c.038-.634.076-1.269.11-1.903a.956.956 0 0 1-.11 1.903Z"/></g><path fill="url(#paint54_radial_4002_2455)" d="M21.747 3.55c-2.66-1.66-5.7-1.55-5.74-1.55-.04 0-3.14-.01-5.74 1.54-1 .6-1.19 1.96-.39 2.8l.68.72h10.9l.68-.72c.8-.83.6-2.18-.39-2.79Z"/><path fill="url(#paint55_radial_4002_2455)" d="M21.747 3.55c-2.66-1.66-5.7-1.55-5.74-1.55-.04 0-3.14-.01-5.74 1.54-1 .6-1.19 1.96-.39 2.8l.68.72h10.9l.68-.72c.8-.83.6-2.18-.39-2.79Z"/><path fill="url(#paint56_radial_4002_2455)" d="M21.747 3.55c-2.66-1.66-5.7-1.55-5.74-1.55-.04 0-3.14-.01-5.74 1.54-1 .6-1.19 1.96-.39 2.8l.68.72h10.9l.68-.72c.8-.83.6-2.18-.39-2.79Z"/><g filter="url(#filter18_i_4002_2455)"><path fill="url(#paint57_radial_4002_2455)" d="M16.005 6.33s-2.53-.03-5.45.73l.4.47c.73.87 1.81 1.37 2.95 1.37h4.19c1.14 0 2.22-.5 2.96-1.37l.4-.47c-2.92-.76-5.45-.73-5.45-.73Z"/></g><path fill="url(#paint58_linear_4002_2455)" d="M15.955 5.52h.1c.39 0 2.27.02 4.56.51.49.1.84.53.84 1.03-2.92-.76-5.45-.73-5.45-.73s-2.53-.03-5.45.73c0-.5.35-.93.84-1.03 2.29-.48 4.16-.51 4.56-.51Z"/><path fill="url(#paint59_radial_4002_2455)" d="M15.955 5.52h.1c.39 0 2.27.02 4.56.51.49.1.84.53.84 1.03-2.92-.76-5.45-.73-5.45-.73s-2.53-.03-5.45.73c0-.5.35-.93.84-1.03 2.29-.48 4.16-.51 4.56-.51Z"/><path fill="url(#paint60_radial_4002_2455)" d="M15.955 5.52h.1c.39 0 2.27.02 4.56.51.49.1.84.53.84 1.03-2.92-.76-5.45-.73-5.45-.73s-2.53-.03-5.45.73c0-.5.35-.93.84-1.03 2.29-.48 4.16-.51 4.56-.51Z"/><g filter="url(#filter19_f_4002_2455)"><path fill="#382534" d="M16.793 4.352h.633a.2.2 0 0 0 .18-.11l.55-.95c.04-.07-.01-.16-.09-.16h-1.4a.2.2 0 0 0-.18.11l-.275.475a.792.792 0 0 0-.415.005l-.272-.47a.2.2 0 0 0-.18-.11h-1.4c-.08 0-.13.09-.09.16l.54.94c.04.07.1.11.18.11h.66a.79.79 0 1 0 1.559 0Z"/></g><g filter="url(#filter20_i_4002_2455)"><path fill="url(#paint61_linear_4002_2455)" d="M16.045 4.24h-1.4a.2.2 0 0 1-.18-.11l-.54-.94c-.04-.07.01-.16.09-.16h1.4a.2.2 0 0 1 .18.11l.55.95c.03.06-.02.15-.1.15Z"/><path fill="url(#paint62_radial_4002_2455)" d="M16.045 4.24h-1.4a.2.2 0 0 1-.18-.11l-.54-.94c-.04-.07.01-.16.09-.16h1.4a.2.2 0 0 1 .18.11l.55.95c.03.06-.02.15-.1.15Z"/></g><g filter="url(#filter21_i_4002_2455)"><path fill="url(#paint63_linear_4002_2455)" d="M16.098 4.24h1.4a.2.2 0 0 0 .18-.11l.55-.95c.04-.07-.01-.16-.09-.16h-1.4a.2.2 0 0 0-.18.11l-.55.95c-.04.07.01.16.09.16Z"/></g><g filter="url(#filter22_i_4002_2455)"><path fill="url(#paint64_radial_4002_2455)" d="M16.085 5.16a.79.79 0 1 0 0-1.58.79.79 0 0 0 0 1.58Z"/></g><path fill="url(#paint65_radial_4002_2455)" d="M16.085 5.16a.79.79 0 1 0 0-1.58.79.79 0 0 0 0 1.58Z"/><defs><radialGradient id="paint1_radial_4002_2455" cx="0" cy="0" r="1" gradientTransform="matrix(-4.03125 0 0 -12.2293 23.224 24.403)" gradientUnits="userSpaceOnUse"><stop offset=".202" stop-color="#7D77A7"/><stop offset="1" stop-color="#6B629A" stop-opacity="0"/></radialGradient><radialGradient id="paint2_radial_4002_2455" cx="0" cy="0" r="1" gradientTransform="matrix(0 -10.4916 2.16348 0 25.063 30)" gradientUnits="userSpaceOnUse"><stop offset=".24" stop-color="#7D72A2"/><stop offset="1" stop-color="#6E658C"/></radialGradient><radialGradient id="paint3_radial_4002_2455" cx="0" cy="0" r="1" gradientTransform="matrix(0 -13.6896 .7187 0 23.13 30)" gradientUnits="userSpaceOnUse"><stop offset=".304" stop-color="#4F4175"/><stop offset="1" stop-color="#514476" stop-opacity="0"/></radialGradient><radialGradient id="paint4_radial_4002_2455" cx="0" cy="0" r="1" gradientTransform="matrix(0 -9.94746 4.23507 0 6.615 30)" gradientUnits="userSpaceOnUse"><stop offset=".26" stop-color="#5A4B81"/><stop offset="1" stop-color="#524A68"/></radialGradient><radialGradient id="paint6_radial_4002_2455" cx="0" cy="0" r="1" gradientTransform="matrix(-3.70333 0 0 -15.6939 8.708 29.637)" gradientUnits="userSpaceOnUse"><stop offset=".741" stop-color="#6E638C" stop-opacity="0"/><stop offset="1" stop-color="#6E638C"/></radialGradient><radialGradient id="paint7_radial_4002_2455" cx="0" cy="0" r="1" gradientTransform="matrix(0 7.91012 -3.40129 0 16 23.056)" gradientUnits="userSpaceOnUse"><stop offset=".563" stop-color="#C7BBD0"/><stop offset="1" stop-color="#A9A0B2"/></radialGradient><radialGradient id="paint10_radial_4002_2455" cx="0" cy="0" r="1" gradientTransform="matrix(0 -1.1875 .46252 0 18.255 30.216)" gradientUnits="userSpaceOnUse"><stop stop-color="#AD91CA"/><stop offset="1" stop-color="#AD91CA" stop-opacity="0"/></radialGradient><radialGradient id="paint11_radial_4002_2455" cx="0" cy="0" r="1" gradientTransform="matrix(0 9.70312 -1.55313 0 15.991 21.044)" gradientUnits="userSpaceOnUse"><stop offset=".006" stop-color="#59416C"/><stop offset=".907" stop-color="#3A3045"/></radialGradient><radialGradient id="paint13_radial_4002_2455" cx="0" cy="0" r="1" gradientTransform="rotate(122.782 2.494 11.9) scale(3.60548 4.04568)" gradientUnits="userSpaceOnUse"><stop stop-color="#483555"/><stop offset="1" stop-color="#483555" stop-opacity="0"/></radialGradient><radialGradient id="paint14_radial_4002_2455" cx="0" cy="0" r="1" gradientTransform="matrix(0 4.08638 -1.3984 0 13.295 23.22)" gradientUnits="userSpaceOnUse"><stop stop-color="#615589"/><stop offset="1" stop-color="#615589" stop-opacity="0"/></radialGradient><radialGradient id="paint17_radial_4002_2455" cx="0" cy="0" r="1" gradientTransform="matrix(.8125 1.37956 -1.6894 .99499 19.036 15.868)" gradientUnits="userSpaceOnUse"><stop stop-color="#504069"/><stop offset="1" stop-color="#504069" stop-opacity="0"/></radialGradient><radialGradient id="paint18_radial_4002_2455" cx="0" cy="0" r="1" gradientTransform="matrix(0 4.15625 -4.85106 0 16.005 18.69)" gradientUnits="userSpaceOnUse"><stop offset=".519" stop-color="#C0AAC0"/><stop offset="1" stop-color="#928392"/></radialGradient><radialGradient id="paint19_radial_4002_2455" cx="0" cy="0" r="1" gradientTransform="matrix(-1 -.96876 2.18983 -2.26044 15.24 19.684)" gradientUnits="userSpaceOnUse"><stop stop-color="#D0C1D9"/><stop offset="1" stop-color="#D0C1D9" stop-opacity="0"/></radialGradient><radialGradient id="paint23_radial_4002_2455" cx="0" cy="0" r="1" gradientTransform="matrix(0 2.0625 -1.9196 0 16.005 17.153)" gradientUnits="userSpaceOnUse"><stop stop-color="#C77B20"/><stop offset="1" stop-color="#B87E1F"/></radialGradient><radialGradient id="paint25_radial_4002_2455" cx="0" cy="0" r="1" gradientTransform="rotate(103.169 6.142 14.472) scale(3.82897 4.54852)" gradientUnits="userSpaceOnUse"><stop offset=".043" stop-color="#FFC135"/><stop offset="1" stop-color="#E26839"/></radialGradient><radialGradient id="paint26_radial_4002_2455" cx="0" cy="0" r="1" gradientTransform="rotate(53.902 -1.412 26.568) scale(.49786 .42293)" gradientUnits="userSpaceOnUse"><stop stop-color="#E18C2A"/><stop offset="1" stop-color="#E18C2A" stop-opacity="0"/></radialGradient><radialGradient id="paint27_radial_4002_2455" cx="0" cy="0" r="1" gradientTransform="matrix(1.33305 3.92345 -1.7834 .60594 10.537 11.905)" gradientUnits="userSpaceOnUse"><stop stop-color="#D57A26"/><stop offset="1" stop-color="#D06A3C"/></radialGradient><radialGradient id="paint28_radial_4002_2455" cx="0" cy="0" r="1" gradientTransform="matrix(.31846 .9973 -.87484 .27936 11.2 11.897)" gradientUnits="userSpaceOnUse"><stop offset=".263" stop-color="#BE691E"/><stop offset=".977" stop-color="#BE691E" stop-opacity="0"/></radialGradient><radialGradient id="paint30_radial_4002_2455" cx="0" cy="0" r="1" gradientTransform="matrix(-.26776 2.32112 -.79999 -.09229 21.85 7.27)" gradientUnits="userSpaceOnUse"><stop stop-color="#FFCE31"/><stop offset=".901" stop-color="#FFC024"/></radialGradient><radialGradient id="paint31_radial_4002_2455" cx="0" cy="0" r="1" gradientTransform="matrix(-5.22785 0 0 -9.24801 18.893 10.847)" gradientUnits="userSpaceOnUse"><stop stop-color="#FFE846"/><stop offset="1" stop-color="#F5A129"/></radialGradient><radialGradient id="paint32_radial_4002_2455" cx="0" cy="0" r="1" gradientTransform="matrix(0 -3.0625 12.3951 0 15.891 17.216)" gradientUnits="userSpaceOnUse"><stop stop-color="#B76E31"/><stop offset=".249" stop-color="#E08935"/><stop offset="1" stop-color="#FFA041" stop-opacity="0"/></radialGradient><radialGradient id="paint33_radial_4002_2455" cx="0" cy="0" r="1" gradientTransform="matrix(-.40256 6.10192 -2.24332 -.148 21.242 10.615)" gradientUnits="userSpaceOnUse"><stop offset=".39" stop-color="#FFD930"/><stop offset="1" stop-color="#FFD930" stop-opacity="0"/></radialGradient><radialGradient id="paint34_radial_4002_2455" cx="0" cy="0" r="1" gradientTransform="matrix(0 -1.41386 1.70221 0 13.993 9.666)" gradientUnits="userSpaceOnUse"><stop offset=".276" stop-color="#F59632"/><stop offset="1" stop-color="#F59632" stop-opacity="0"/></radialGradient><radialGradient id="paint35_radial_4002_2455" cx="0" cy="0" r="1" gradientTransform="matrix(0 -1.53524 1.99125 0 18.573 9.255)" gradientUnits="userSpaceOnUse"><stop offset=".178" stop-color="#FFBE3A"/><stop offset="1" stop-color="#FFBE3A" stop-opacity="0"/></radialGradient><radialGradient id="paint36_radial_4002_2455" cx="0" cy="0" r="1" gradientTransform="matrix(0 2.1875 -5.1102 0 16.132 8.029)" gradientUnits="userSpaceOnUse"><stop offset=".414" stop-color="#E3822D"/><stop offset="1" stop-color="#E3822D" stop-opacity="0"/></radialGradient><radialGradient id="paint41_radial_4002_2455" cx="0" cy="0" r="1" gradientTransform="rotate(-60.732 19.542 -5.697) scale(.7101 2.06639)" gradientUnits="userSpaceOnUse"><stop stop-color="#FFB534"/><stop offset="1" stop-color="#FFB534" stop-opacity="0"/></radialGradient><radialGradient id="paint42_radial_4002_2455" cx="0" cy="0" r="1" gradientTransform="matrix(0 -.72074 2.89971 0 16.085 14.386)" gradientUnits="userSpaceOnUse"><stop stop-color="#89014E"/><stop offset="1" stop-color="#87004D"/></radialGradient><radialGradient id="paint43_radial_4002_2455" cx="0" cy="0" r="1" gradientTransform="matrix(0 .81132 -1.29049 0 18.267 9.93)" gradientUnits="userSpaceOnUse"><stop offset=".802" stop-color="#925C51"/><stop offset="1" stop-color="#694B43"/><stop offset="1" stop-color="#804D49"/><stop offset="1" stop-color="#85534D"/></radialGradient><radialGradient id="paint44_radial_4002_2455" cx="0" cy="0" r="1" gradientTransform="rotate(-127.812 11.472 .59) scale(.37829 .52081)" gradientUnits="userSpaceOnUse"><stop offset=".766" stop-color="#FFE6E2" stop-opacity="0"/><stop offset=".966" stop-color="#FFE6E2"/></radialGradient><radialGradient id="paint46_radial_4002_2455" cx="0" cy="0" r="1" gradientTransform="matrix(0 .81136 -1.29056 0 13.903 9.93)" gradientUnits="userSpaceOnUse"><stop offset=".802" stop-color="#925C51"/><stop offset="1" stop-color="#694B43"/><stop offset="1" stop-color="#804D49"/><stop offset="1" stop-color="#85534D"/></radialGradient><radialGradient id="paint48_radial_4002_2455" cx="0" cy="0" r="1" gradientTransform="matrix(-.00774 -.49408 .5939 -.0093 13.617 10.15)" gradientUnits="userSpaceOnUse"><stop offset=".766" stop-color="#FFE6E2" stop-opacity="0"/><stop offset=".966" stop-color="#FFE6E2"/></radialGradient><radialGradient id="paint50_radial_4002_2455" cx="0" cy="0" r="1" gradientTransform="matrix(.62855 2.24328 -2.14025 .59968 20.703 9.944)" gradientUnits="userSpaceOnUse"><stop offset=".856" stop-color="#E1943D" stop-opacity="0"/><stop offset="1" stop-color="#E08F2E"/></radialGradient><radialGradient id="paint51_radial_4002_2455" cx="0" cy="0" r="1" gradientTransform="matrix(.78778 -1.0811 .90618 .66032 21.063 10.489)" gradientUnits="userSpaceOnUse"><stop offset=".664" stop-color="#FFBD22"/><stop offset="1" stop-color="#FFBD22" stop-opacity="0"/></radialGradient><radialGradient id="paint53_radial_4002_2455" cx="0" cy="0" r="1" gradientTransform="rotate(101.248 1.262 9.497) scale(2.11668 2.08089)" gradientUnits="userSpaceOnUse"><stop offset=".775" stop-color="#C77937" stop-opacity="0"/><stop offset="1" stop-color="#C77937"/></radialGradient><radialGradient id="paint54_radial_4002_2455" cx="0" cy="0" r="1" gradientTransform="matrix(-.31252 4.2792 -11.47135 -.83777 16.486 1.998)" gradientUnits="userSpaceOnUse"><stop offset=".267" stop-color="#5D4C6D"/><stop offset="1" stop-color="#3B3541"/></radialGradient><radialGradient id="paint55_radial_4002_2455" cx="0" cy="0" r="1" gradientTransform="matrix(-4.625 0 0 -1.29228 20.798 4.31)" gradientUnits="userSpaceOnUse"><stop offset=".078" stop-color="#635870"/><stop offset="1" stop-color="#635870" stop-opacity="0"/></radialGradient><radialGradient id="paint56_radial_4002_2455" cx="0" cy="0" r="1" gradientTransform="matrix(1.75085 0 0 2.31943 9.38 4.747)" gradientUnits="userSpaceOnUse"><stop stop-color="#5D5A62"/><stop offset="1" stop-color="#3A3340" stop-opacity="0"/></radialGradient><radialGradient id="paint57_radial_4002_2455" cx="0" cy="0" r="1" gradientTransform="rotate(-96.626 13.263 -3.831) scale(3.52078 14.6419)" gradientUnits="userSpaceOnUse"><stop offset=".064" stop-color="#695978"/><stop offset=".47" stop-color="#4F3E5F"/><stop offset="1" stop-color="#362C38"/></radialGradient><radialGradient id="paint59_radial_4002_2455" cx="0" cy="0" r="1" gradientTransform="matrix(-4.4375 -.53896 .06546 -.53895 21.099 6.06)" gradientUnits="userSpaceOnUse"><stop stop-color="#FFCF55"/><stop offset="1" stop-color="#FFCF55" stop-opacity="0"/></radialGradient><radialGradient id="paint60_radial_4002_2455" cx="0" cy="0" r="1" gradientTransform="matrix(-3.90624 -.5948 .09009 -.59163 21.099 7.06)" gradientUnits="userSpaceOnUse"><stop offset=".278" stop-color="#EBA026"/><stop offset="1" stop-color="#EBA026" stop-opacity="0"/></radialGradient><radialGradient id="paint62_radial_4002_2455" cx="0" cy="0" r="1" gradientTransform="rotate(-135 8.675 -1.206) scale(.62166 .97779)" gradientUnits="userSpaceOnUse"><stop offset=".382" stop-color="#C47C25"/><stop offset="1" stop-color="#C47C25" stop-opacity="0"/></radialGradient><radialGradient id="paint64_radial_4002_2455" cx="0" cy="0" r="1" gradientTransform="matrix(-.9375 .96874 -1.00462 -.97222 16.583 4.044)" gradientUnits="userSpaceOnUse"><stop stop-color="#FCBB51"/><stop offset="1" stop-color="#CE8634"/></radialGradient><radialGradient id="paint65_radial_4002_2455" cx="0" cy="0" r="1" gradientTransform="matrix(.875 -.65625 1.11 1.48 15.88 4.544)" gradientUnits="userSpaceOnUse"><stop offset=".671" stop-color="#FCBB51" stop-opacity="0"/><stop offset="1" stop-color="#FCBB51"/></radialGradient><linearGradient id="paint0_linear_4002_2455" x1="16" x2="16" y1="15.501" y2="30" gradientUnits="userSpaceOnUse"><stop stop-color="#584C78"/><stop offset="1" stop-color="#5A4B85"/></linearGradient><linearGradient id="paint5_linear_4002_2455" x1="9.135" x2="6.943" y1="27.817" y2="27.817" gradientUnits="userSpaceOnUse"><stop offset=".124" stop-color="#443A60"/><stop offset="1" stop-color="#524C6A" stop-opacity="0"/></linearGradient><linearGradient id="paint8_linear_4002_2455" x1="16.505" x2="16.505" y1="30.466" y2="28.997" gradientUnits="userSpaceOnUse"><stop stop-color="#C2AADC"/><stop offset="1" stop-color="#C2AADC" stop-opacity="0"/></linearGradient><linearGradient id="paint9_linear_4002_2455" x1="19.067" x2="17.161" y1="26.56" y2="26.56" gradientUnits="userSpaceOnUse"><stop stop-color="#80728B"/><stop offset="1" stop-color="#80728B" stop-opacity="0"/></linearGradient><linearGradient id="paint12_linear_4002_2455" x1="13.295" x2="13.295" y1="29.372" y2="15.837" gradientUnits="userSpaceOnUse"><stop stop-color="#605388"/><stop offset="1" stop-color="#564973"/></linearGradient><linearGradient id="paint15_linear_4002_2455" x1="13.295" x2="13.295" y1="29.691" y2="23.357" gradientUnits="userSpaceOnUse"><stop offset=".306" stop-color="#5D4F84"/><stop offset="1" stop-color="#5D4F84" stop-opacity="0"/></linearGradient><linearGradient id="paint16_linear_4002_2455" x1="18.715" x2="19.724" y1="20.747" y2="20.747" gradientUnits="userSpaceOnUse"><stop stop-color="#56466E"/><stop offset="1" stop-color="#625990"/></linearGradient><linearGradient id="paint20_linear_4002_2455" x1="13.583" x2="15.177" y1="16.559" y2="18.606" gradientUnits="userSpaceOnUse"><stop stop-color="#68565A"/><stop offset="1" stop-color="#987A8D" stop-opacity="0"/></linearGradient><linearGradient id="paint21_linear_4002_2455" x1="18.442" x2="17.099" y1="16.497" y2="18.247" gradientUnits="userSpaceOnUse"><stop stop-color="#68565A"/><stop offset="1" stop-color="#987A8D" stop-opacity="0"/></linearGradient><linearGradient id="paint22_linear_4002_2455" x1="15.991" x2="15.991" y1="19.225" y2="20.922" gradientUnits="userSpaceOnUse"><stop offset=".006" stop-color="#543555"/><stop offset="1" stop-color="#483A53"/></linearGradient><linearGradient id="paint24_linear_4002_2455" x1="21.084" x2="22.88" y1="20.076" y2="20.711" gradientUnits="userSpaceOnUse"><stop stop-color="#E3AB3F"/><stop offset="1" stop-color="#ECAC40"/></linearGradient><linearGradient id="paint29_linear_4002_2455" x1="10.357" x2="11.077" y1="7.888" y2="7.888" gradientUnits="userSpaceOnUse"><stop stop-color="#D2903C"/><stop offset="1" stop-color="#DB822A"/></linearGradient><linearGradient id="paint37_linear_4002_2455" x1="16.085" x2="16.94" y1="11.675" y2="11.675" gradientUnits="userSpaceOnUse"><stop stop-color="#FFC92F"/><stop offset="1" stop-color="#FFEA47"/></linearGradient><linearGradient id="paint38_linear_4002_2455" x1="15.012" x2="16.086" y1="11.52" y2="11.579" gradientUnits="userSpaceOnUse"><stop stop-color="#F49F22"/><stop offset="1" stop-color="#E88830" stop-opacity="0"/><stop offset="1" stop-color="#F49F22" stop-opacity="0"/></linearGradient><linearGradient id="paint39_linear_4002_2455" x1="16.085" x2="16.085" y1="12.074" y2="12.926" gradientUnits="userSpaceOnUse"><stop stop-color="#E88830" stop-opacity="0"/><stop offset=".845" stop-color="#E88830"/></linearGradient><linearGradient id="paint40_linear_4002_2455" x1="16.085" x2="15.842" y1="9.827" y2="10.526" gradientUnits="userSpaceOnUse"><stop stop-color="#F0A531"/><stop offset="1" stop-color="#F0A531" stop-opacity="0"/></linearGradient><linearGradient id="paint45_linear_4002_2455" x1="19.045" x2="18.731" y1="9.984" y2="10.178" gradientUnits="userSpaceOnUse"><stop stop-color="#B4948D"/><stop offset="1" stop-color="#B4948D" stop-opacity="0"/></linearGradient><linearGradient id="paint47_linear_4002_2455" x1="14.647" x2="14.333" y1="9.984" y2="10.178" gradientUnits="userSpaceOnUse"><stop stop-color="#B4948D"/><stop offset="1" stop-color="#B4948D" stop-opacity="0"/></linearGradient><linearGradient id="paint49_linear_4002_2455" x1="22.521" x2="21.314" y1="10.011" y2="12.187" gradientUnits="userSpaceOnUse"><stop stop-color="#FFE343"/><stop offset="1" stop-color="#FFC136"/></linearGradient><linearGradient id="paint52_linear_4002_2455" x1="10.235" x2="11.694" y1="10.715" y2="10.588" gradientUnits="userSpaceOnUse"><stop stop-color="#E39726"/><stop offset="1" stop-color="#D9851D"/></linearGradient><linearGradient id="paint58_linear_4002_2455" x1="17.349" x2="11.13" y1="6.841" y2="6.841" gradientUnits="userSpaceOnUse"><stop stop-color="#E3AC3F"/><stop offset="1" stop-color="#B88538"/></linearGradient><linearGradient id="paint61_linear_4002_2455" x1="16.091" x2="14.513" y1="4.161" y2="4.161" gradientUnits="userSpaceOnUse"><stop stop-color="#D19B3E"/><stop offset="1" stop-color="#E2A23D"/></linearGradient><linearGradient id="paint63_linear_4002_2455" x1="18.083" x2="16.597" y1="3.169" y2="4.16" gradientUnits="userSpaceOnUse"><stop stop-color="#E6AC3E"/><stop offset="1" stop-color="#E09037"/></linearGradient><filter id="filter0_f_4002_2455" width="7.031" height="7.114" x="12.489" y="14.348" color-interpolation-filters="sRGB" filterUnits="userSpaceOnUse"><feFlood flood-opacity="0" result="BackgroundImageFix"/><feBlend in="SourceGraphic" in2="BackgroundImageFix" result="shape"/><feGaussianBlur result="effect1_foregroundBlur_4002_2455" stdDeviation=".5"/></filter><filter id="filter1_f_4002_2455" width="4.951" height="14.36" x="9.117" y="15.462" color-interpolation-filters="sRGB" filterUnits="userSpaceOnUse"><feFlood flood-opacity="0" result="BackgroundImageFix"/><feBlend in="SourceGraphic" in2="BackgroundImageFix" result="shape"/><feGaussianBlur result="effect1_foregroundBlur_4002_2455" stdDeviation=".5"/></filter><filter id="filter2_ii_4002_2455" width="3.097" height="14.304" x="10.348" y="15.837" color-interpolation-filters="sRGB" filterUnits="userSpaceOnUse"><feFlood flood-opacity="0" result="BackgroundImageFix"/><feBlend in="SourceGraphic" in2="BackgroundImageFix" result="shape"/><feColorMatrix in="SourceAlpha" result="hardAlpha" values="0 0 0 0 0 0 0 0 0 0 0 0 0 0 0 0 0 0 127 0"/><feOffset dx=".15"/><feGaussianBlur stdDeviation=".125"/><feComposite in2="hardAlpha" k2="-1" k3="1" operator="arithmetic"/><feColorMatrix values="0 0 0 0 0.388235 0 0 0 0 0.356863 0 0 0 0 0.470588 0 0 0 1 0"/><feBlend in2="shape" result="effect1_innerShadow_4002_2455"/><feColorMatrix in="SourceAlpha" result="hardAlpha" values="0 0 0 0 0 0 0 0 0 0 0 0 0 0 0 0 0 0 127 0"/><feOffset dx="-.15" dy=".15"/><feGaussianBlur stdDeviation=".125"/><feComposite in2="hardAlpha" k2="-1" k3="1" operator="arithmetic"/><feColorMatrix values="0 0 0 0 0.34902 0 0 0 0 0.290196 0 0 0 0 0.443137 0 0 0 1 0"/><feBlend in2="effect1_innerShadow_4002_2455" result="effect2_innerShadow_4002_2455"/></filter><filter id="filter3_f_4002_2455" width="4.081" height="12.629" x="18.162" y="15.556" color-interpolation-filters="sRGB" filterUnits="userSpaceOnUse"><feFlood flood-opacity="0" result="BackgroundImageFix"/><feBlend in="SourceGraphic" in2="BackgroundImageFix" result="shape"/><feGaussianBlur result="effect1_foregroundBlur_4002_2455" stdDeviation=".5"/></filter><filter id="filter4_ii_4002_2455" width="3.042" height="14.123" x="18.465" y="15.868" color-interpolation-filters="sRGB" filterUnits="userSpaceOnUse"><feFlood flood-opacity="0" result="BackgroundImageFix"/><feBlend in="SourceGraphic" in2="BackgroundImageFix" result="shape"/><feColorMatrix in="SourceAlpha" result="hardAlpha" values="0 0 0 0 0 0 0 0 0 0 0 0 0 0 0 0 0 0 127 0"/><feOffset dx="-.25"/><feGaussianBlur stdDeviation=".25"/><feComposite in2="hardAlpha" k2="-1" k3="1" operator="arithmetic"/><feColorMatrix values="0 0 0 0 0.403922 0 0 0 0 0.372549 0 0 0 0 0.541176 0 0 0 1 0"/><feBlend in2="shape" result="effect1_innerShadow_4002_2455"/><feColorMatrix in="SourceAlpha" result="hardAlpha" values="0 0 0 0 0 0 0 0 0 0 0 0 0 0 0 0 0 0 127 0"/><feOffset dx="-.1"/><feGaussianBlur stdDeviation=".1"/><feComposite in2="hardAlpha" k2="-1" k3="1" operator="arithmetic"/><feColorMatrix values="0 0 0 0 0.380392 0 0 0 0 0.34902 0 0 0 0 0.552941 0 0 0 1 0"/><feBlend in2="effect1_innerShadow_4002_2455" result="effect2_innerShadow_4002_2455"/></filter><filter id="filter5_ii_4002_2455" width="2.735" height="2.58" x="14.632" y="18.463" color-interpolation-filters="sRGB" filterUnits="userSpaceOnUse"><feFlood flood-opacity="0" result="BackgroundImageFix"/><feBlend in="SourceGraphic" in2="BackgroundImageFix" result="shape"/><feColorMatrix in="SourceAlpha" result="hardAlpha" values="0 0 0 0 0 0 0 0 0 0 0 0 0 0 0 0 0 0 127 0"/><feOffset dx=".1" dy="-.1"/><feGaussianBlur stdDeviation=".25"/><feComposite in2="hardAlpha" k2="-1" k3="1" operator="arithmetic"/><feColorMatrix values="0 0 0 0 0.2 0 0 0 0 0.152941 0 0 0 0 0.25098 0 0 0 1 0"/><feBlend in2="shape" result="effect1_innerShadow_4002_2455"/><feColorMatrix in="SourceAlpha" result="hardAlpha" values="0 0 0 0 0 0 0 0 0 0 0 0 0 0 0 0 0 0 127 0"/><feOffset dx="-.1" dy="-.1"/><feGaussianBlur stdDeviation=".25"/><feComposite in2="hardAlpha" k2="-1" k3="1" operator="arithmetic"/><feColorMatrix values="0 0 0 0 0.2 0 0 0 0 0.152941 0 0 0 0 0.25098 0 0 0 1 0"/><feBlend in2="effect1_innerShadow_4002_2455" result="effect2_innerShadow_4002_2455"/></filter><filter id="filter6_f_4002_2455" width="3.151" height="1.346" x="20.534" y="19.636" color-interpolation-filters="sRGB" filterUnits="userSpaceOnUse"><feFlood flood-opacity="0" result="BackgroundImageFix"/><feBlend in="SourceGraphic" in2="BackgroundImageFix" result="shape"/><feGaussianBlur result="effect1_foregroundBlur_4002_2455" stdDeviation=".1"/></filter><filter id="filter7_ii_4002_2455" width="2.881" height="1.03" x="20.734" y="19.731" color-interpolation-filters="sRGB" filterUnits="userSpaceOnUse"><feFlood flood-opacity="0" result="BackgroundImageFix"/><feBlend in="SourceGraphic" in2="BackgroundImageFix" result="shape"/><feColorMatrix in="SourceAlpha" result="hardAlpha" values="0 0 0 0 0 0 0 0 0 0 0 0 0 0 0 0 0 0 127 0"/><feOffset dy="-.05"/><feGaussianBlur stdDeviation=".05"/><feComposite in2="hardAlpha" k2="-1" k3="1" operator="arithmetic"/><feColorMatrix values="0 0 0 0 0.823529 0 0 0 0 0.529412 0 0 0 0 0.192157 0 0 0 1 0"/><feBlend in2="shape" result="effect1_innerShadow_4002_2455"/><feColorMatrix in="SourceAlpha" result="hardAlpha" values="0 0 0 0 0 0 0 0 0 0 0 0 0 0 0 0 0 0 127 0"/><feOffset dy=".05"/><feGaussianBlur stdDeviation=".05"/><feComposite in2="hardAlpha" k2="-1" k3="1" operator="arithmetic"/><feColorMatrix values="0 0 0 0 0.980392 0 0 0 0 0.760784 0 0 0 0 0.313726 0 0 0 1 0"/><feBlend in2="effect1_innerShadow_4002_2455" result="effect2_innerShadow_4002_2455"/></filter><filter id="filter8_ii_4002_2455" width="10.72" height="12.542" x="11.022" y="4.676" color-interpolation-filters="sRGB" filterUnits="userSpaceOnUse"><feFlood flood-opacity="0" result="BackgroundImageFix"/><feBlend in="SourceGraphic" in2="BackgroundImageFix" result="shape"/><feColorMatrix in="SourceAlpha" result="hardAlpha" values="0 0 0 0 0 0 0 0 0 0 0 0 0 0 0 0 0 0 127 0"/><feOffset dx=".5"/><feGaussianBlur stdDeviation=".5"/><feComposite in2="hardAlpha" k2="-1" k3="1" operator="arithmetic"/><feColorMatrix values="0 0 0 0 0.823529 0 0 0 0 0.623529 0 0 0 0 0.313726 0 0 0 1 0"/><feBlend in2="shape" result="effect1_innerShadow_4002_2455"/><feColorMatrix in="SourceAlpha" result="hardAlpha" values="0 0 0 0 0 0 0 0 0 0 0 0 0 0 0 0 0 0 127 0"/><feOffset dy=".2"/><feGaussianBlur stdDeviation=".375"/><feComposite in2="hardAlpha" k2="-1" k3="1" operator="arithmetic"/><feColorMatrix values="0 0 0 0 0.980392 0 0 0 0 0.54902 0 0 0 0 0.0941176 0 0 0 1 0"/><feBlend in2="effect1_innerShadow_4002_2455" result="effect2_innerShadow_4002_2455"/></filter><filter id="filter9_f_4002_2455" width="3.877" height="4.9" x="13.939" y="9.022" color-interpolation-filters="sRGB" filterUnits="userSpaceOnUse"><feFlood flood-opacity="0" result="BackgroundImageFix"/><feBlend in="SourceGraphic" in2="BackgroundImageFix" result="shape"/><feGaussianBlur result="effect1_foregroundBlur_4002_2455" stdDeviation=".5"/></filter><filter id="filter10_f_4002_2455" width="2.077" height="3.1" x="15.046" y="9.727" color-interpolation-filters="sRGB" filterUnits="userSpaceOnUse"><feFlood flood-opacity="0" result="BackgroundImageFix"/><feBlend in="SourceGraphic" in2="BackgroundImageFix" result="shape"/><feGaussianBlur result="effect1_foregroundBlur_4002_2455" stdDeviation=".05"/></filter><filter id="filter11_f_4002_2455" width="3.718" height="1.573" x="14.226" y="13.147" color-interpolation-filters="sRGB" filterUnits="userSpaceOnUse"><feFlood flood-opacity="0" result="BackgroundImageFix"/><feBlend in="SourceGraphic" in2="BackgroundImageFix" result="shape"/><feGaussianBlur result="effect1_foregroundBlur_4002_2455" stdDeviation=".05"/></filter><filter id="filter12_f_4002_2455" width=".787" height=".696" x="17.533" y="9.49" color-interpolation-filters="sRGB" filterUnits="userSpaceOnUse"><feFlood flood-opacity="0" result="BackgroundImageFix"/><feBlend in="SourceGraphic" in2="BackgroundImageFix" result="shape"/><feGaussianBlur result="effect1_foregroundBlur_4002_2455" stdDeviation=".05"/></filter><filter id="filter13_f_4002_2455" width=".891" height=".913" x="18.373" y="9.566" color-interpolation-filters="sRGB" filterUnits="userSpaceOnUse"><feFlood flood-opacity="0" result="BackgroundImageFix"/><feBlend in="SourceGraphic" in2="BackgroundImageFix" result="shape"/><feGaussianBlur result="effect1_foregroundBlur_4002_2455" stdDeviation=".1"/></filter><filter id="filter14_f_4002_2455" width=".986" height="1.04" x="13.93" y="9.502" color-interpolation-filters="sRGB" filterUnits="userSpaceOnUse"><feFlood flood-opacity="0" result="BackgroundImageFix"/><feBlend in="SourceGraphic" in2="BackgroundImageFix" result="shape"/><feGaussianBlur result="effect1_foregroundBlur_4002_2455" stdDeviation=".1"/></filter><filter id="filter15_f_4002_2455" width=".913" height=".705" x="13.175" y="9.482" color-interpolation-filters="sRGB" filterUnits="userSpaceOnUse"><feFlood flood-opacity="0" result="BackgroundImageFix"/><feBlend in="SourceGraphic" in2="BackgroundImageFix" result="shape"/><feGaussianBlur result="effect1_foregroundBlur_4002_2455" stdDeviation=".05"/></filter><filter id="filter16_f_4002_2455" width="1.329" height="2.379" x="10.052" y="9.399" color-interpolation-filters="sRGB" filterUnits="userSpaceOnUse"><feFlood flood-opacity="0" result="BackgroundImageFix"/><feBlend in="SourceGraphic" in2="BackgroundImageFix" result="shape"/><feGaussianBlur result="effect1_foregroundBlur_4002_2455" stdDeviation=".125"/></filter><filter id="filter17_f_4002_2455" width="1.447" height="2.403" x="20.797" y="9.383" color-interpolation-filters="sRGB" filterUnits="userSpaceOnUse"><feFlood flood-opacity="0" result="BackgroundImageFix"/><feBlend in="SourceGraphic" in2="BackgroundImageFix" result="shape"/><feGaussianBlur result="effect1_foregroundBlur_4002_2455" stdDeviation=".125"/></filter><filter id="filter18_i_4002_2455" width="10.9" height="2.77" x="10.555" y="6.131" color-interpolation-filters="sRGB" filterUnits="userSpaceOnUse"><feFlood flood-opacity="0" result="BackgroundImageFix"/><feBlend in="SourceGraphic" in2="BackgroundImageFix" result="shape"/><feColorMatrix in="SourceAlpha" result="hardAlpha" values="0 0 0 0 0 0 0 0 0 0 0 0 0 0 0 0 0 0 127 0"/><feOffset dy="-.2"/><feGaussianBlur stdDeviation=".1"/><feComposite in2="hardAlpha" k2="-1" k3="1" operator="arithmetic"/><feColorMatrix values="0 0 0 0 0.286275 0 0 0 0 0.168627 0 0 0 0 0.34902 0 0 0 1 0"/><feBlend in2="shape" result="effect1_innerShadow_4002_2455"/></filter><filter id="filter19_f_4002_2455" width="4.831" height="2.64" x="13.59" y="2.882" color-interpolation-filters="sRGB" filterUnits="userSpaceOnUse"><feFlood flood-opacity="0" result="BackgroundImageFix"/><feBlend in="SourceGraphic" in2="BackgroundImageFix" result="shape"/><feGaussianBlur result="effect1_foregroundBlur_4002_2455" stdDeviation=".125"/></filter><filter id="filter20_i_4002_2455" width="2.293" height="1.21" x="13.861" y="3.031" color-interpolation-filters="sRGB" filterUnits="userSpaceOnUse"><feFlood flood-opacity="0" result="BackgroundImageFix"/><feBlend in="SourceGraphic" in2="BackgroundImageFix" result="shape"/><feColorMatrix in="SourceAlpha" result="hardAlpha" values="0 0 0 0 0 0 0 0 0 0 0 0 0 0 0 0 0 0 127 0"/><feOffset dx="-.05"/><feGaussianBlur stdDeviation=".05"/><feComposite in2="hardAlpha" k2="-1" k3="1" operator="arithmetic"/><feColorMatrix values="0 0 0 0 0.905882 0 0 0 0 0.65098 0 0 0 0 0.309804 0 0 0 1 0"/><feBlend in2="shape" result="effect1_innerShadow_4002_2455"/></filter><filter id="filter21_i_4002_2455" width="2.298" height="1.22" x="15.943" y="3.021" color-interpolation-filters="sRGB" filterUnits="userSpaceOnUse"><feFlood flood-opacity="0" result="BackgroundImageFix"/><feBlend in="SourceGraphic" in2="BackgroundImageFix" result="shape"/><feColorMatrix in="SourceAlpha" result="hardAlpha" values="0 0 0 0 0 0 0 0 0 0 0 0 0 0 0 0 0 0 127 0"/><feOffset dx="-.05"/><feGaussianBlur stdDeviation=".05"/><feComposite in2="hardAlpha" k2="-1" k3="1" operator="arithmetic"/><feColorMatrix values="0 0 0 0 0.960784 0 0 0 0 0.752941 0 0 0 0 0.317647 0 0 0 1 0"/><feBlend in2="shape" result="effect1_innerShadow_4002_2455"/></filter><filter id="filter22_i_4002_2455" width="1.63" height="1.63" x="15.295" y="3.531" color-interpolation-filters="sRGB" filterUnits="userSpaceOnUse"><feFlood flood-opacity="0" result="BackgroundImageFix"/><feBlend in="SourceGraphic" in2="BackgroundImageFix" result="shape"/><feColorMatrix in="SourceAlpha" result="hardAlpha" values="0 0 0 0 0 0 0 0 0 0 0 0 0 0 0 0 0 0 127 0"/><feOffset dx=".05" dy="-.05"/><feGaussianBlur stdDeviation=".2"/><feComposite in2="hardAlpha" k2="-1" k3="1" operator="arithmetic"/><feColorMatrix values="0 0 0 0 0.698039 0 0 0 0 0.4 0 0 0 0 0.121569 0 0 0 1 0"/><feBlend in2="shape" result="effect1_innerShadow_4002_2455"/></filter></defs></svg>