<svg xmlns="http://www.w3.org/2000/svg" width="32" height="32" fill="none" viewBox="0 0 32 32"><g filter="url(#filter0_i_28327_5521)"><path fill="#3CB283" d="M5.527 11.705c.2-.19.54-.2.73 0l.095.098c.04.04.132.029.132-.08v-.22c0-.27.223-.517.493-.517.308 0 .561.227.561.517v.26c0 .06.07.08.11.04l.141-.118c.19-.19.507-.18.707 0 .21.19.2.573 0 .773l-.578.635a.238.238 0 0 0-.066.18c0 .04-.003.265 0 .393.002.103.06.117.101.117h3.064v1.656h-3.26c-1.015 0-1.527-.781-1.527-1.399v-.714a.27.27 0 0 0-.062-.176l-.625-.664c-.2-.2-.226-.591-.016-.781Z"/><path fill="url(#paint0_linear_28327_5521)" d="M5.527 11.705c.2-.19.54-.2.73 0l.095.098c.04.04.132.029.132-.08v-.22c0-.27.223-.517.493-.517.308 0 .561.227.561.517v.26c0 .06.07.08.11.04l.141-.118c.19-.19.507-.18.707 0 .21.19.2.573 0 .773l-.578.635a.238.238 0 0 0-.066.18c0 .04-.003.265 0 .393.002.103.06.117.101.117h3.064v1.656h-3.26c-1.015 0-1.527-.781-1.527-1.399v-.714a.27.27 0 0 0-.062-.176l-.625-.664c-.2-.2-.226-.591-.016-.781Z"/></g><g filter="url(#filter1_i_28327_5521)"><path fill="url(#paint1_linear_28327_5521)" d="M17.984 11.681c-.18-.162-.501-.2-.691 0l-.124.07c-.04.04-.11.01-.11-.04l-.038-.297c0-.238-.216-.46-.544-.46-.305 0-.477.28-.477.46v.371c0 .06-.07.087-.11.047l-.152-.15c-.19-.2-.53-.16-.73.03-.21.19-.2.541 0 .741l.601.588c.05.05.092.11.092.18v.416c0 .08.01.14-.07.14h-3.11v1.695h3.25c.932 0 1.592-.646 1.592-1.476v-.726c0-.07.07-.15.11-.2l.582-.668c.2-.2.11-.558-.07-.72Z"/><path fill="url(#paint2_linear_28327_5521)" d="M17.984 11.681c-.18-.162-.501-.2-.691 0l-.124.07c-.04.04-.11.01-.11-.04l-.038-.297c0-.238-.216-.46-.544-.46-.305 0-.477.28-.477.46v.371c0 .06-.07.087-.11.047l-.152-.15c-.19-.2-.53-.16-.73.03-.21.19-.2.541 0 .741l.601.588c.05.05.092.11.092.18v.416c0 .08.01.14-.07.14h-3.11v1.695h3.25c.932 0 1.592-.646 1.592-1.476v-.726c0-.07.07-.15.11-.2l.582-.668c.2-.2.11-.558-.07-.72Z"/></g><g filter="url(#filter2_i_28327_5521)"><path fill="#3CB283" d="M13.594 20.172c-.831 0-1.543.646-1.543 1.476v1.18c0 .072-.08.123-.14.123-.118 0-.177-.053-.266-.146l-.606-.551c-.205-.205-.603-.237-.809-.031-.205.205-.195.562-.019.728l.215.248c.03.041 0 .103-.052.103l-.339.077c-.375.066-.473.297-.453.535.02.238.227.41.453.41l.516-.039c.051 0 .054.072.023.113l-.238.235c-.205.205-.184.56.02.765.206.206.628.125.783.035.154-.09.627-.59.627-.59.207-.207.433-.202.734-.238.63-.073 1.297-.734 1.297-1.552v-1.01c0-.072.061-.123.123-.123h2.53l-.374-1.748h-2.482Z"/><path fill="url(#paint3_linear_28327_5521)" d="M13.594 20.172c-.831 0-1.543.646-1.543 1.476v1.18c0 .072-.08.123-.14.123-.118 0-.177-.053-.266-.146l-.606-.551c-.205-.205-.603-.237-.809-.031-.205.205-.195.562-.019.728l.215.248c.03.041 0 .103-.052.103l-.339.077c-.375.066-.473.297-.453.535.02.238.227.41.453.41l.516-.039c.051 0 .054.072.023.113l-.238.235c-.205.205-.184.56.02.765.206.206.628.125.783.035.154-.09.627-.59.627-.59.207-.207.433-.202.734-.238.63-.073 1.297-.734 1.297-1.552v-1.01c0-.072.061-.123.123-.123h2.53l-.374-1.748h-2.482Z"/><path fill="url(#paint4_radial_28327_5521)" d="M13.594 20.172c-.831 0-1.543.646-1.543 1.476v1.18c0 .072-.08.123-.14.123-.118 0-.177-.053-.266-.146l-.606-.551c-.205-.205-.603-.237-.809-.031-.205.205-.195.562-.019.728l.215.248c.03.041 0 .103-.052.103l-.339.077c-.375.066-.473.297-.453.535.02.238.227.41.453.41l.516-.039c.051 0 .054.072.023.113l-.238.235c-.205.205-.184.56.02.765.206.206.628.125.783.035.154-.09.627-.59.627-.59.207-.207.433-.202.734-.238.63-.073 1.297-.734 1.297-1.552v-1.01c0-.072.061-.123.123-.123h2.53l-.374-1.748h-2.482Z"/></g><g filter="url(#filter3_i_28327_5521)"><path fill="url(#paint5_linear_28327_5521)" d="M17.777 18.047c0-.524.288-1.031 1.098-1.031h1.5c.07 0 .117-.07.117-.13v-.226s.007-.27-.023-.3l-.606-.727c-.193-.193-.18-.495.02-.695.2-.2.433-.165.586-.098l.281.148c.04.03.1 0 .1-.05v-.268c0-.28.25-.5.53-.5s.526.22.526.5v.244c0 .05.06.08.1.05l.228-.124c.121-.074.406-.126.606.074.2.2.195.484.027.719l-.258.316-.195.258c-.02.02-.04.06-.04.09v.873c0 1.178-.914 1.713-1.724 1.713h-.91c-.07 0-.12.107-.12.167l.01 4.14-1.853-2.093v-3.05Z"/><path fill="url(#paint6_radial_28327_5521)" d="M17.777 18.047c0-.524.288-1.031 1.098-1.031h1.5c.07 0 .117-.07.117-.13v-.226s.007-.27-.023-.3l-.606-.727c-.193-.193-.18-.495.02-.695.2-.2.433-.165.586-.098l.281.148c.04.03.1 0 .1-.05v-.268c0-.28.25-.5.53-.5s.526.22.526.5v.244c0 .05.06.08.1.05l.228-.124c.121-.074.406-.126.606.074.2.2.195.484.027.719l-.258.316-.195.258c-.02.02-.04.06-.04.09v.873c0 1.178-.914 1.713-1.724 1.713h-.91c-.07 0-.12.107-.12.167l.01 4.14-1.853-2.093v-3.05Z"/></g><g filter="url(#filter4_f_28327_5521)"><path stroke="#7BDAA8" stroke-linecap="round" stroke-opacity=".75" stroke-width=".25" d="M18.633 20.594v-1.61a1 1 0 0 1 1-1h.75a1 1 0 0 0 1-1v-2.297"/></g><path fill="#3EC28B" d="M24.751 11.435a.565.565 0 0 0-.63-.42c-.28.04-.47.29-.47.57l-.143 11.88c0 1.738-.623 2.505-1.703 2.535-1.515.04-2.134-1.267-2.134-2.535 0-4.184-2.304-6.09-4.429-8.043-1.204-1.107-1.453-1.547-1.531-3.007v-.77c0-.477.24-.62.24-.62l-4.713-.045s.184.157.184.665v.82c0 2.94 1.632 5.212 3.742 6.926 1.213.984 2.188 2.08 2.188 3.64 0 3.456 1.78 6.922 6 6.922 3.375 0 5.343-2.425 5.343-5.765.01-1.31-1.944-12.753-1.944-12.753Z"/><path fill="url(#paint7_linear_28327_5521)" d="M24.751 11.435a.565.565 0 0 0-.63-.42c-.28.04-.47.29-.47.57l-.143 11.88c0 1.738-.623 2.505-1.703 2.535-1.515.04-2.134-1.267-2.134-2.535 0-4.184-2.304-6.09-4.429-8.043-1.204-1.107-1.453-1.547-1.531-3.007v-.77c0-.477.24-.62.24-.62l-4.713-.045s.184.157.184.665v.82c0 2.94 1.632 5.212 3.742 6.926 1.213.984 2.188 2.08 2.188 3.64 0 3.456 1.78 6.922 6 6.922 3.375 0 5.343-2.425 5.343-5.765.01-1.31-1.944-12.753-1.944-12.753Z"/><path fill="url(#paint8_radial_28327_5521)" d="M24.751 11.435a.565.565 0 0 0-.63-.42c-.28.04-.47.29-.47.57l-.143 11.88c0 1.738-.623 2.505-1.703 2.535-1.515.04-2.134-1.267-2.134-2.535 0-4.184-2.304-6.09-4.429-8.043-1.204-1.107-1.453-1.547-1.531-3.007v-.77c0-.477.24-.62.24-.62l-4.713-.045s.184.157.184.665v.82c0 2.94 1.632 5.212 3.742 6.926 1.213.984 2.188 2.08 2.188 3.64 0 3.456 1.78 6.922 6 6.922 3.375 0 5.343-2.425 5.343-5.765.01-1.31-1.944-12.753-1.944-12.753Z"/><path fill="url(#paint9_linear_28327_5521)" d="M24.751 11.435a.565.565 0 0 0-.63-.42c-.28.04-.47.29-.47.57l-.143 11.88c0 1.738-.623 2.505-1.703 2.535-1.515.04-2.134-1.267-2.134-2.535 0-4.184-2.304-6.09-4.429-8.043-1.204-1.107-1.453-1.547-1.531-3.007v-.77c0-.477.24-.62.24-.62l-4.713-.045s.184.157.184.665v.82c0 2.94 1.632 5.212 3.742 6.926 1.213.984 2.188 2.08 2.188 3.64 0 3.456 1.78 6.922 6 6.922 3.375 0 5.343-2.425 5.343-5.765.01-1.31-1.944-12.753-1.944-12.753Z"/><path fill="url(#paint10_radial_28327_5521)" d="M24.751 11.435a.565.565 0 0 0-.63-.42c-.28.04-.47.29-.47.57l-.143 11.88c0 1.738-.623 2.505-1.703 2.535-1.515.04-2.134-1.267-2.134-2.535 0-4.184-2.304-6.09-4.429-8.043-1.204-1.107-1.453-1.547-1.531-3.007v-.77c0-.477.24-.62.24-.62l-4.713-.045s.184.157.184.665v.82c0 2.94 1.632 5.212 3.742 6.926 1.213.984 2.188 2.08 2.188 3.64 0 3.456 1.78 6.922 6 6.922 3.375 0 5.343-2.425 5.343-5.765.01-1.31-1.944-12.753-1.944-12.753Z"/><path fill="url(#paint11_radial_28327_5521)" d="M24.751 11.435a.565.565 0 0 0-.63-.42c-.28.04-.47.29-.47.57l-.143 11.88c0 1.738-.623 2.505-1.703 2.535-1.515.04-2.134-1.267-2.134-2.535 0-4.184-2.304-6.09-4.429-8.043-1.204-1.107-1.453-1.547-1.531-3.007v-.77c0-.477.24-.62.24-.62l-4.713-.045s.184.157.184.665v.82c0 2.94 1.632 5.212 3.742 6.926 1.213.984 2.188 2.08 2.188 3.64 0 3.456 1.78 6.922 6 6.922 3.375 0 5.343-2.425 5.343-5.765.01-1.31-1.944-12.753-1.944-12.753Z"/><path fill="url(#paint12_radial_28327_5521)" d="M24.751 11.435a.565.565 0 0 0-.63-.42c-.28.04-.47.29-.47.57l-.143 11.88c0 1.738-.623 2.505-1.703 2.535-1.515.04-2.134-1.267-2.134-2.535 0-4.184-2.304-6.09-4.429-8.043-1.204-1.107-1.453-1.547-1.531-3.007v-.77c0-.477.24-.62.24-.62l-4.713-.045s.184.157.184.665v.82c0 2.94 1.632 5.212 3.742 6.926 1.213.984 2.188 2.08 2.188 3.64 0 3.456 1.78 6.922 6 6.922 3.375 0 5.343-2.425 5.343-5.765.01-1.31-1.944-12.753-1.944-12.753Z"/><path fill="url(#paint13_radial_28327_5521)" d="M24.751 11.435a.565.565 0 0 0-.63-.42c-.28.04-.47.29-.47.57l-.143 11.88c0 1.738-.623 2.505-1.703 2.535-1.515.04-2.134-1.267-2.134-2.535 0-4.184-2.304-6.09-4.429-8.043-1.204-1.107-1.453-1.547-1.531-3.007v-.77c0-.477.24-.62.24-.62l-4.713-.045s.184.157.184.665v.82c0 2.94 1.632 5.212 3.742 6.926 1.213.984 2.188 2.08 2.188 3.64 0 3.456 1.78 6.922 6 6.922 3.375 0 5.343-2.425 5.343-5.765.01-1.31-1.944-12.753-1.944-12.753Z"/><path fill="url(#paint14_radial_28327_5521)" d="M24.751 11.435a.565.565 0 0 0-.63-.42c-.28.04-.47.29-.47.57l-.143 11.88c0 1.738-.623 2.505-1.703 2.535-1.515.04-2.134-1.267-2.134-2.535 0-4.184-2.304-6.09-4.429-8.043-1.204-1.107-1.453-1.547-1.531-3.007v-.77c0-.477.24-.62.24-.62l-4.713-.045s.184.157.184.665v.82c0 2.94 1.632 5.212 3.742 6.926 1.213.984 2.188 2.08 2.188 3.64 0 3.456 1.78 6.922 6 6.922 3.375 0 5.343-2.425 5.343-5.765.01-1.31-1.944-12.753-1.944-12.753Z"/><path fill="url(#paint15_radial_28327_5521)" d="M24.751 11.435a.565.565 0 0 0-.63-.42c-.28.04-.47.29-.47.57l-.143 11.88c0 1.738-.623 2.505-1.703 2.535-1.515.04-2.134-1.267-2.134-2.535 0-4.184-2.304-6.09-4.429-8.043-1.204-1.107-1.453-1.547-1.531-3.007v-.77c0-.477.24-.62.24-.62l-4.713-.045s.184.157.184.665v.82c0 2.94 1.632 5.212 3.742 6.926 1.213.984 2.188 2.08 2.188 3.64 0 3.456 1.78 6.922 6 6.922 3.375 0 5.343-2.425 5.343-5.765.01-1.31-1.944-12.753-1.944-12.753Z"/><g filter="url(#filter5_f_28327_5521)"><path stroke="#5DE19C" stroke-linecap="round" d="M12.521 11.063v2.063a4 4 0 0 0 1.362 3.006l2.39 2.098a5.506 5.506 0 0 1 1.873 4.139v1.975a3.531 3.531 0 0 0 3.532 3.531v0a3.531 3.531 0 0 0 3.531-3.531v-3.532"/></g><path fill="url(#paint16_radial_28327_5521)" d="M7.57 7.703c0-2.016 2.288-4.962 3.512-5.672a1.45 1.45 0 0 1 1.254-.062c1.17.54 3.476 3.36 3.476 5.734 0 1.61-1.039 2.875-2.023 3.422H9.4c-1.034-.89-1.83-1.405-1.83-3.422Z"/><path fill="url(#paint17_radial_28327_5521)" d="M7.57 7.703c0-2.016 2.288-4.962 3.512-5.672a1.45 1.45 0 0 1 1.254-.062c1.17.54 3.476 3.36 3.476 5.734 0 1.61-1.039 2.875-2.023 3.422H9.4c-1.034-.89-1.83-1.405-1.83-3.422Z"/><path fill="url(#paint18_radial_28327_5521)" d="M7.57 7.703c0-2.016 2.288-4.962 3.512-5.672a1.45 1.45 0 0 1 1.254-.062c1.17.54 3.476 3.36 3.476 5.734 0 1.61-1.039 2.875-2.023 3.422H9.4c-1.034-.89-1.83-1.405-1.83-3.422Z"/><path fill="url(#paint19_radial_28327_5521)" d="M7.57 7.703c0-2.016 2.288-4.962 3.512-5.672a1.45 1.45 0 0 1 1.254-.062c1.17.54 3.476 3.36 3.476 5.734 0 1.61-1.039 2.875-2.023 3.422H9.4c-1.034-.89-1.83-1.405-1.83-3.422Z"/><path fill="url(#paint20_linear_28327_5521)" d="M7.57 7.703c0-2.016 2.288-4.962 3.512-5.672a1.45 1.45 0 0 1 1.254-.062c1.17.54 3.476 3.36 3.476 5.734 0 1.61-1.039 2.875-2.023 3.422H9.4c-1.034-.89-1.83-1.405-1.83-3.422Z"/><path fill="url(#paint21_radial_28327_5521)" d="M7.57 7.703c0-2.016 2.288-4.962 3.512-5.672a1.45 1.45 0 0 1 1.254-.062c1.17.54 3.476 3.36 3.476 5.734 0 1.61-1.039 2.875-2.023 3.422H9.4c-1.034-.89-1.83-1.405-1.83-3.422Z"/><g filter="url(#filter6_f_28327_5521)"><path fill="#60E79C" d="m12.24 2.489.539 5.181h2.307c-.781-3.639-2.307-4.686-2.846-5.181Z"/></g><path fill="url(#paint22_radial_28327_5521)" d="M9.625 7.063a.5.5 0 1 0 0-1 .5.5 0 0 0 0 1Z"/><path fill="url(#paint23_radial_28327_5521)" d="M13.625 7.063a.5.5 0 1 0 0-1 .5.5 0 0 0 0 1Z"/><g filter="url(#filter7_f_28327_5521)"><path fill="url(#paint24_linear_28327_5521)" d="M24.383 12.188V23.75h1.375l-1.375-11.563Z"/></g><g filter="url(#filter8_f_28327_5521)"><path stroke="url(#paint25_linear_28327_5521)" stroke-linecap="round" stroke-width=".5" d="m24.195 11.703.703 8.203"/></g><g filter="url(#filter9_f_28327_5521)"><path stroke="#7BDAA8" stroke-linecap="round" stroke-opacity=".75" stroke-width=".25" d="M7.023 11.656v1.781a1 1 0 0 0 1 1h1.25"/></g><g filter="url(#filter10_f_28327_5521)"><path stroke="#7BDAA8" stroke-linecap="round" stroke-opacity=".75" stroke-width=".25" d="M16.508 11.656v1.781a1 1 0 0 1-1 1h-1.25"/></g><g filter="url(#filter11_f_28327_5521)"><path stroke="#7BDAA8" stroke-linecap="round" stroke-opacity=".75" stroke-width=".25" d="m7.055 12.953.953-.797"/></g><g filter="url(#filter12_f_28327_5521)"><path stroke="#7BDAA8" stroke-linecap="round" stroke-opacity=".75" stroke-width=".25" d="m16.477 12.953-.954-.797"/></g><g filter="url(#filter13_f_28327_5521)"><path stroke="url(#paint26_linear_28327_5521)" stroke-linecap="round" stroke-opacity=".75" stroke-width=".25" d="m6.797 12.984-.961-.992"/></g><g filter="url(#filter14_f_28327_5521)"><path stroke="url(#paint27_linear_28327_5521)" stroke-linecap="round" stroke-opacity=".75" stroke-width=".25" d="m16.734 12.984.961-.992"/></g><g filter="url(#filter15_f_28327_5521)"><path stroke="#7BDAA8" stroke-linecap="round" stroke-opacity=".75" stroke-width=".25" d="M14.586 21.11h-.656a1 1 0 0 0-1 1v.54a1 1 0 0 1-.874.992l-1.83.233"/></g><g filter="url(#filter16_f_28327_5521)"><path stroke="#7BDAA8" stroke-linecap="round" stroke-opacity=".75" stroke-width=".25" d="m10.688 22.68.828.914"/></g><g filter="url(#filter17_f_28327_5521)"><path stroke="#7BDAA8" stroke-linecap="round" stroke-opacity=".75" stroke-width=".25" d="m20.383 15.375.89.719"/></g><g filter="url(#filter18_f_28327_5521)"><path stroke="#7BDAA8" stroke-linecap="round" stroke-opacity=".75" stroke-width=".25" d="m22.523 15.234-.593.516"/></g><g filter="url(#filter19_f_28327_5521)"><path stroke="#5FDE9C" stroke-linecap="round" stroke-width=".1" d="M13.992 14.047c.063.146.261.45.524.687a7.4 7.4 0 0 1 .586.594"/></g><g filter="url(#filter20_f_28327_5521)"><path stroke="#5FDE9C" stroke-linecap="round" stroke-width=".1" d="M17.922 18.14c.273.329.881 1.187 1.125 1.993"/></g><g filter="url(#filter21_f_28327_5521)"><path stroke="#319D8A" stroke-linecap="round" stroke-width=".1" d="M14.195 20.313c.224.213.716.774.89 1.312"/></g><g filter="url(#filter22_f_28327_5521)"><path stroke="#319D8A" stroke-linecap="round" stroke-width=".1" d="M9.563 13.906c.039.25.164.853.351 1.266"/></g><defs><filter id="filter0_i_28327_5521" width="5.736" height="4.603" x="5.381" y="10.986" color-interpolation-filters="sRGB" filterUnits="userSpaceOnUse"><feFlood flood-opacity="0" result="BackgroundImageFix"/><feBlend in="SourceGraphic" in2="BackgroundImageFix" result="shape"/><feColorMatrix in="SourceAlpha" result="hardAlpha" values="0 0 0 0 0 0 0 0 0 0 0 0 0 0 0 0 0 0 127 0"/><feOffset dx=".1" dy=".15"/><feGaussianBlur stdDeviation=".125"/><feComposite in2="hardAlpha" k2="-1" k3="1" operator="arithmetic"/><feColorMatrix values="0 0 0 0 0.12599 0 0 0 0 0.7375 0 0 0 0 0.441869 0 0 0 1 0"/><feBlend in2="shape" result="effect1_innerShadow_28327_5521"/></filter><filter id="filter1_i_28327_5521" width="5.747" height="4.668" x="12.521" y="10.953" color-interpolation-filters="sRGB" filterUnits="userSpaceOnUse"><feFlood flood-opacity="0" result="BackgroundImageFix"/><feBlend in="SourceGraphic" in2="BackgroundImageFix" result="shape"/><feColorMatrix in="SourceAlpha" result="hardAlpha" values="0 0 0 0 0 0 0 0 0 0 0 0 0 0 0 0 0 0 127 0"/><feOffset dx=".1" dy=".15"/><feGaussianBlur stdDeviation=".125"/><feComposite in2="hardAlpha" k2="-1" k3="1" operator="arithmetic"/><feColorMatrix values="0 0 0 0 0.12599 0 0 0 0 0.7375 0 0 0 0 0.441869 0 0 0 1 0"/><feBlend in2="shape" result="effect1_innerShadow_28327_5521"/></filter><filter id="filter2_i_28327_5521" width="6.969" height="5.505" x="9.58" y="20.172" color-interpolation-filters="sRGB" filterUnits="userSpaceOnUse"><feFlood flood-opacity="0" result="BackgroundImageFix"/><feBlend in="SourceGraphic" in2="BackgroundImageFix" result="shape"/><feColorMatrix in="SourceAlpha" result="hardAlpha" values="0 0 0 0 0 0 0 0 0 0 0 0 0 0 0 0 0 0 127 0"/><feOffset dx=".1" dy=".15"/><feGaussianBlur stdDeviation=".125"/><feComposite in2="hardAlpha" k2="-1" k3="1" operator="arithmetic"/><feColorMatrix values="0 0 0 0 0.12599 0 0 0 0 0.7375 0 0 0 0 0.441869 0 0 0 1 0"/><feBlend in2="shape" result="effect1_innerShadow_28327_5521"/></filter><filter id="filter3_i_28327_5521" width="5.315" height="9.17" x="17.777" y="14.17" color-interpolation-filters="sRGB" filterUnits="userSpaceOnUse"><feFlood flood-opacity="0" result="BackgroundImageFix"/><feBlend in="SourceGraphic" in2="BackgroundImageFix" result="shape"/><feColorMatrix in="SourceAlpha" result="hardAlpha" values="0 0 0 0 0 0 0 0 0 0 0 0 0 0 0 0 0 0 127 0"/><feOffset dx=".1" dy=".15"/><feGaussianBlur stdDeviation=".125"/><feComposite in2="hardAlpha" k2="-1" k3="1" operator="arithmetic"/><feColorMatrix values="0 0 0 0 0.12599 0 0 0 0 0.7375 0 0 0 0 0.441869 0 0 0 1 0"/><feBlend in2="shape" result="effect1_innerShadow_28327_5521"/></filter><filter id="filter4_f_28327_5521" width="4" height="7.156" x="18.008" y="14.063" color-interpolation-filters="sRGB" filterUnits="userSpaceOnUse"><feFlood flood-opacity="0" result="BackgroundImageFix"/><feBlend in="SourceGraphic" in2="BackgroundImageFix" result="shape"/><feGaussianBlur result="effect1_foregroundBlur_28327_5521" stdDeviation=".25"/></filter><filter id="filter5_f_28327_5521" width="16.688" height="20.813" x="10.521" y="9.063" color-interpolation-filters="sRGB" filterUnits="userSpaceOnUse"><feFlood flood-opacity="0" result="BackgroundImageFix"/><feBlend in="SourceGraphic" in2="BackgroundImageFix" result="shape"/><feGaussianBlur result="effect1_foregroundBlur_28327_5521" stdDeviation=".75"/></filter><filter id="filter6_f_28327_5521" width="4.846" height="7.182" x="11.24" y="1.489" color-interpolation-filters="sRGB" filterUnits="userSpaceOnUse"><feFlood flood-opacity="0" result="BackgroundImageFix"/><feBlend in="SourceGraphic" in2="BackgroundImageFix" result="shape"/><feGaussianBlur result="effect1_foregroundBlur_28327_5521" stdDeviation=".5"/></filter><filter id="filter7_f_28327_5521" width="3.375" height="13.563" x="23.383" y="11.188" color-interpolation-filters="sRGB" filterUnits="userSpaceOnUse"><feFlood flood-opacity="0" result="BackgroundImageFix"/><feBlend in="SourceGraphic" in2="BackgroundImageFix" result="shape"/><feGaussianBlur result="effect1_foregroundBlur_28327_5521" stdDeviation=".5"/></filter><filter id="filter8_f_28327_5521" width="2.203" height="9.703" x="23.445" y="10.953" color-interpolation-filters="sRGB" filterUnits="userSpaceOnUse"><feFlood flood-opacity="0" result="BackgroundImageFix"/><feBlend in="SourceGraphic" in2="BackgroundImageFix" result="shape"/><feGaussianBlur result="effect1_foregroundBlur_28327_5521" stdDeviation=".25"/></filter><filter id="filter9_f_28327_5521" width="3.5" height="4.031" x="6.398" y="11.031" color-interpolation-filters="sRGB" filterUnits="userSpaceOnUse"><feFlood flood-opacity="0" result="BackgroundImageFix"/><feBlend in="SourceGraphic" in2="BackgroundImageFix" result="shape"/><feGaussianBlur result="effect1_foregroundBlur_28327_5521" stdDeviation=".25"/></filter><filter id="filter10_f_28327_5521" width="3.5" height="4.031" x="13.633" y="11.031" color-interpolation-filters="sRGB" filterUnits="userSpaceOnUse"><feFlood flood-opacity="0" result="BackgroundImageFix"/><feBlend in="SourceGraphic" in2="BackgroundImageFix" result="shape"/><feGaussianBlur result="effect1_foregroundBlur_28327_5521" stdDeviation=".25"/></filter><filter id="filter11_f_28327_5521" width="2.203" height="2.047" x="6.43" y="11.531" color-interpolation-filters="sRGB" filterUnits="userSpaceOnUse"><feFlood flood-opacity="0" result="BackgroundImageFix"/><feBlend in="SourceGraphic" in2="BackgroundImageFix" result="shape"/><feGaussianBlur result="effect1_foregroundBlur_28327_5521" stdDeviation=".25"/></filter><filter id="filter12_f_28327_5521" width="2.203" height="2.047" x="14.898" y="11.531" color-interpolation-filters="sRGB" filterUnits="userSpaceOnUse"><feFlood flood-opacity="0" result="BackgroundImageFix"/><feBlend in="SourceGraphic" in2="BackgroundImageFix" result="shape"/><feGaussianBlur result="effect1_foregroundBlur_28327_5521" stdDeviation=".25"/></filter><filter id="filter13_f_28327_5521" width="2.211" height="2.242" x="5.211" y="11.367" color-interpolation-filters="sRGB" filterUnits="userSpaceOnUse"><feFlood flood-opacity="0" result="BackgroundImageFix"/><feBlend in="SourceGraphic" in2="BackgroundImageFix" result="shape"/><feGaussianBlur result="effect1_foregroundBlur_28327_5521" stdDeviation=".25"/></filter><filter id="filter14_f_28327_5521" width="2.211" height="2.242" x="16.109" y="11.367" color-interpolation-filters="sRGB" filterUnits="userSpaceOnUse"><feFlood flood-opacity="0" result="BackgroundImageFix"/><feBlend in="SourceGraphic" in2="BackgroundImageFix" result="shape"/><feGaussianBlur result="effect1_foregroundBlur_28327_5521" stdDeviation=".25"/></filter><filter id="filter15_f_28327_5521" width="5.609" height="4.016" x="9.602" y="20.484" color-interpolation-filters="sRGB" filterUnits="userSpaceOnUse"><feFlood flood-opacity="0" result="BackgroundImageFix"/><feBlend in="SourceGraphic" in2="BackgroundImageFix" result="shape"/><feGaussianBlur result="effect1_foregroundBlur_28327_5521" stdDeviation=".25"/></filter><filter id="filter16_f_28327_5521" width="2.078" height="2.164" x="10.063" y="22.055" color-interpolation-filters="sRGB" filterUnits="userSpaceOnUse"><feFlood flood-opacity="0" result="BackgroundImageFix"/><feBlend in="SourceGraphic" in2="BackgroundImageFix" result="shape"/><feGaussianBlur result="effect1_foregroundBlur_28327_5521" stdDeviation=".25"/></filter><filter id="filter17_f_28327_5521" width="2.141" height="1.969" x="19.758" y="14.75" color-interpolation-filters="sRGB" filterUnits="userSpaceOnUse"><feFlood flood-opacity="0" result="BackgroundImageFix"/><feBlend in="SourceGraphic" in2="BackgroundImageFix" result="shape"/><feGaussianBlur result="effect1_foregroundBlur_28327_5521" stdDeviation=".25"/></filter><filter id="filter18_f_28327_5521" width="1.844" height="1.766" x="21.305" y="14.609" color-interpolation-filters="sRGB" filterUnits="userSpaceOnUse"><feFlood flood-opacity="0" result="BackgroundImageFix"/><feBlend in="SourceGraphic" in2="BackgroundImageFix" result="shape"/><feGaussianBlur result="effect1_foregroundBlur_28327_5521" stdDeviation=".25"/></filter><filter id="filter19_f_28327_5521" width="1.709" height="1.881" x="13.692" y="13.747" color-interpolation-filters="sRGB" filterUnits="userSpaceOnUse"><feFlood flood-opacity="0" result="BackgroundImageFix"/><feBlend in="SourceGraphic" in2="BackgroundImageFix" result="shape"/><feGaussianBlur result="effect1_foregroundBlur_28327_5521" stdDeviation=".125"/></filter><filter id="filter20_f_28327_5521" width="1.725" height="2.592" x="17.622" y="17.841" color-interpolation-filters="sRGB" filterUnits="userSpaceOnUse"><feFlood flood-opacity="0" result="BackgroundImageFix"/><feBlend in="SourceGraphic" in2="BackgroundImageFix" result="shape"/><feGaussianBlur result="effect1_foregroundBlur_28327_5521" stdDeviation=".125"/></filter><filter id="filter21_f_28327_5521" width="1.491" height="1.913" x="13.895" y="20.012" color-interpolation-filters="sRGB" filterUnits="userSpaceOnUse"><feFlood flood-opacity="0" result="BackgroundImageFix"/><feBlend in="SourceGraphic" in2="BackgroundImageFix" result="shape"/><feGaussianBlur result="effect1_foregroundBlur_28327_5521" stdDeviation=".125"/></filter><filter id="filter22_f_28327_5521" width=".952" height="1.866" x="9.262" y="13.606" color-interpolation-filters="sRGB" filterUnits="userSpaceOnUse"><feFlood flood-opacity="0" result="BackgroundImageFix"/><feBlend in="SourceGraphic" in2="BackgroundImageFix" result="shape"/><feGaussianBlur result="effect1_foregroundBlur_28327_5521" stdDeviation=".125"/></filter><radialGradient id="paint4_radial_28327_5521" cx="0" cy="0" r="1" gradientTransform="matrix(-1.48437 -.90624 .9927 -1.626 14.93 22.328)" gradientUnits="userSpaceOnUse"><stop stop-color="#7C92D3"/><stop offset="1" stop-color="#7C92D3" stop-opacity="0"/></radialGradient><radialGradient id="paint6_radial_28327_5521" cx="0" cy="0" r="1" gradientTransform="rotate(-119.134 16.747 3.025) scale(2.18236 2.73768)" gradientUnits="userSpaceOnUse"><stop offset=".004" stop-color="#7C92D3"/><stop offset="1" stop-color="#7C92D3" stop-opacity="0"/></radialGradient><radialGradient id="paint8_radial_28327_5521" cx="0" cy="0" r="1" gradientTransform="matrix(0 3.76563 -3.48437 0 21.648 24.5)" gradientUnits="userSpaceOnUse"><stop stop-color="#4DC07A"/><stop offset="1" stop-color="#4DC07A" stop-opacity="0"/></radialGradient><radialGradient id="paint10_radial_28327_5521" cx="0" cy="0" r="1" gradientTransform="matrix(3.17578 -1.3125 2.4048 5.81878 9.238 16.469)" gradientUnits="userSpaceOnUse"><stop stop-color="#43A49A"/><stop offset="1" stop-color="#43A49A" stop-opacity="0"/></radialGradient><radialGradient id="paint11_radial_28327_5521" cx="0" cy="0" r="1" gradientTransform="matrix(2.3125 -1.875 3.43544 4.23704 14.633 26.875)" gradientUnits="userSpaceOnUse"><stop stop-color="#43A49A"/><stop offset="1" stop-color="#43A49A" stop-opacity="0"/></radialGradient><radialGradient id="paint12_radial_28327_5521" cx="0" cy="0" r="1" gradientTransform="rotate(-23.749 46.24 -16.95) scale(1.2803 4.46065)" gradientUnits="userSpaceOnUse"><stop stop-color="#78B7A7"/><stop offset="1" stop-color="#78B7A7" stop-opacity="0"/></radialGradient><radialGradient id="paint13_radial_28327_5521" cx="0" cy="0" r="1" gradientTransform="matrix(.76562 -.21875 .76214 2.6675 15.586 25.281)" gradientUnits="userSpaceOnUse"><stop stop-color="#78B7A7"/><stop offset="1" stop-color="#78B7A7" stop-opacity="0"/></radialGradient><radialGradient id="paint14_radial_28327_5521" cx="0" cy="0" r="1" gradientTransform="matrix(1.96875 .84375 -2.03825 4.75592 9.29 11.438)" gradientUnits="userSpaceOnUse"><stop stop-color="#45AB7A"/><stop offset="1" stop-color="#45AB7A" stop-opacity="0"/></radialGradient><radialGradient id="paint15_radial_28327_5521" cx="0" cy="0" r="1" gradientTransform="matrix(2.375 -1.4375 2.63384 4.35156 14.32 21.438)" gradientUnits="userSpaceOnUse"><stop stop-color="#43A49A"/><stop offset="1" stop-color="#43A49A" stop-opacity="0"/></radialGradient><radialGradient id="paint16_radial_28327_5521" cx="0" cy="0" r="1" gradientTransform="rotate(114.974 4.74 7.328) scale(5.03309 4.48567)" gradientUnits="userSpaceOnUse"><stop stop-color="#60E79C"/><stop offset="1" stop-color="#3FC87D"/></radialGradient><radialGradient id="paint17_radial_28327_5521" cx="0" cy="0" r="1" gradientTransform="matrix(0 -3.68755 3.5 0 10.695 11.125)" gradientUnits="userSpaceOnUse"><stop stop-color="#4CA3A4"/><stop offset="1" stop-color="#4CA3A4" stop-opacity="0"/></radialGradient><radialGradient id="paint18_radial_28327_5521" cx="0" cy="0" r="1" gradientTransform="matrix(0 10.75 -7.625 0 12.124 1.182)" gradientUnits="userSpaceOnUse"><stop offset=".855" stop-color="#4CA3A4" stop-opacity="0"/><stop offset="1" stop-color="#4CA3A4"/></radialGradient><radialGradient id="paint19_radial_28327_5521" cx="0" cy="0" r="1" gradientTransform="matrix(1.51562 -.42187 .78928 2.83555 7.352 8.75)" gradientUnits="userSpaceOnUse"><stop stop-color="#86CFA6"/><stop offset="1" stop-color="#86CFA6" stop-opacity="0"/></radialGradient><radialGradient id="paint21_radial_28327_5521" cx="0" cy="0" r="1" gradientTransform="matrix(-7.25 0 0 -7.8125 14.633 8.5)" gradientUnits="userSpaceOnUse"><stop offset=".875" stop-color="#8ED9A6" stop-opacity="0"/><stop offset="1" stop-color="#8ED9A6"/></radialGradient><radialGradient id="paint22_radial_28327_5521" cx="0" cy="0" r="1" gradientTransform="translate(9.164 5.022) scale(2.9732)" gradientUnits="userSpaceOnUse"><stop offset=".006" stop-color="#513468"/><stop offset="1" stop-color="#1C1C1C"/></radialGradient><radialGradient id="paint23_radial_28327_5521" cx="0" cy="0" r="1" gradientTransform="translate(13.164 5.022) scale(2.9732)" gradientUnits="userSpaceOnUse"><stop offset=".006" stop-color="#513468"/><stop offset="1" stop-color="#1C1C1C"/></radialGradient><linearGradient id="paint0_linear_28327_5521" x1="9.984" x2="9.019" y1="16.453" y2="14.554" gradientUnits="userSpaceOnUse"><stop stop-color="#7C92D3"/><stop offset="1" stop-color="#7C92D3" stop-opacity="0"/></linearGradient><linearGradient id="paint1_linear_28327_5521" x1="15.345" x2="15.345" y1="10.953" y2="15.472" gradientUnits="userSpaceOnUse"><stop stop-color="#4BC98E"/><stop offset="1" stop-color="#3CC08D"/></linearGradient><linearGradient id="paint2_linear_28327_5521" x1="17.133" x2="16.147" y1="16.5" y2="14.584" gradientUnits="userSpaceOnUse"><stop stop-color="#7C92D3"/><stop offset="1" stop-color="#7C92D3" stop-opacity="0"/></linearGradient><linearGradient id="paint3_linear_28327_5521" x1="13.695" x2="13.044" y1="24.875" y2="23.486" gradientUnits="userSpaceOnUse"><stop stop-color="#7C92D3"/><stop offset="1" stop-color="#7C92D3" stop-opacity="0"/></linearGradient><linearGradient id="paint5_linear_28327_5521" x1="20.384" x2="20.384" y1="14.17" y2="23.19" gradientUnits="userSpaceOnUse"><stop stop-color="#4BC98E"/><stop offset="1" stop-color="#3CC08D"/></linearGradient><linearGradient id="paint7_linear_28327_5521" x1="20.445" x2="20.445" y1="30.688" y2="26.875" gradientUnits="userSpaceOnUse"><stop stop-color="#7C92D3"/><stop offset="1" stop-color="#7C92D3" stop-opacity="0"/></linearGradient><linearGradient id="paint9_linear_28327_5521" x1="26.695" x2="24.508" y1="20.75" y2="20.938" gradientUnits="userSpaceOnUse"><stop stop-color="#5EDF9C"/><stop offset="1" stop-color="#5EDF9C" stop-opacity="0"/></linearGradient><linearGradient id="paint20_linear_28327_5521" x1="8.43" x2="9.492" y1="4.641" y2="5.25" gradientUnits="userSpaceOnUse"><stop stop-color="#86CFA6"/><stop offset="1" stop-color="#86CFA6" stop-opacity="0"/></linearGradient><linearGradient id="paint24_linear_28327_5521" x1="25.07" x2="25.07" y1="15.25" y2="26.188" gradientUnits="userSpaceOnUse"><stop stop-color="#5DE19C"/><stop offset=".826" stop-color="#5DE19C" stop-opacity="0"/></linearGradient><linearGradient id="paint25_linear_28327_5521" x1="24.195" x2="24.414" y1="11.813" y2="16.313" gradientUnits="userSpaceOnUse"><stop stop-color="#5EDB99"/><stop offset="1" stop-color="#5EDB99" stop-opacity="0"/></linearGradient><linearGradient id="paint26_linear_28327_5521" x1="5.789" x2="6.586" y1="11.992" y2="12.742" gradientUnits="userSpaceOnUse"><stop stop-color="#7BDAA8"/><stop offset="1" stop-color="#7BDAA8" stop-opacity="0"/></linearGradient><linearGradient id="paint27_linear_28327_5521" x1="17.742" x2="16.945" y1="11.992" y2="12.742" gradientUnits="userSpaceOnUse"><stop stop-color="#7BDAA8"/><stop offset="1" stop-color="#7BDAA8" stop-opacity="0"/></linearGradient></defs></svg>