<svg xmlns="http://www.w3.org/2000/svg" width="32" height="32" fill="none" viewBox="0 0 32 32"><path fill="url(#paint0_linear_18_12890)" d="M30.02 13.78c0-.98-.8-1.78-1.78-1.78H3.83c-.99 0-1.8.81-1.8 1.8V18h-.01v6.5c0 .1 0 .2.01.3l.01.2a5.515 5.515 0 0 0 5.232 4.99c.05 0 .09.01.14.01h20.927c.93 0 1.681-.81 1.681-1.8V13.78Z"/><g filter="url(#filter0_i_18_12890)"><path fill="url(#paint1_linear_18_12890)" d="M30.02 13.78c0-.98-.8-1.78-1.78-1.78H3.83c-.99 0-1.8.81-1.8 1.8V18h-.01v6.5c0 .1 0 .2.01.3l.01.2a5.515 5.515 0 0 0 5.232 4.99c.05 0 .09.01.14.01h20.927c.93 0 1.681-.81 1.681-1.8V13.78Z"/></g><path fill="url(#paint2_linear_18_12890)" d="M30.02 13.78c0-.98-.8-1.78-1.78-1.78H3.83c-.99 0-1.8.81-1.8 1.8V18h-.01v6.5c0 .1 0 .2.01.3l.01.2a5.515 5.515 0 0 0 5.232 4.99c.05 0 .09.01.14.01h20.927c.93 0 1.681-.81 1.681-1.8V13.78Z"/><path fill="url(#paint3_linear_18_12890)" d="M30.02 5h-28v2h28V5Z"/><path fill="url(#paint4_radial_18_12890)" d="M30.02 5h-28v2h28V5Z"/><path fill="url(#paint5_linear_18_12890)" d="M30.02 4h-28v1h28V4Z"/><path fill="url(#paint6_radial_18_12890)" d="M30.02 4h-28v1h28V4Z"/><path fill="url(#paint7_linear_18_12890)" d="M30.02 7h-28v1h28V7Z"/><g filter="url(#filter1_i_18_12890)"><path fill="#518FE8" d="M30.02 16v-2.224c0-.978-.8-1.776-1.78-1.776H3.82c-.99 0-1.8.808-1.8 1.796v2.194h28V16Z"/></g><path fill="url(#paint8_linear_18_12890)" d="M30.02 16v-2.224c0-.978-.8-1.776-1.78-1.776H3.82c-.99 0-1.8.808-1.8 1.796v2.194h28V16Z"/><path fill="url(#paint9_linear_18_12890)" d="M2.04 25h.01c.06.72.27 1.39.59 2h27.4v-2h-28Z"/><path fill="url(#paint10_radial_18_12890)" d="M2.04 25h.01c.06.72.27 1.39.59 2h27.4v-2h-28Z"/><path fill="url(#paint11_linear_18_12890)" d="M2.04 25h.01c.06.72.27 1.39.59 2h27.4v-2h-28Z"/><g filter="url(#filter2_i_18_12890)"><path fill="url(#paint12_linear_18_12890)" d="M2.02 24h8.899c.61 0 1.101-.49 1.101-1.1v-7.8c0-.61-.49-1.1-1.101-1.1H2.02v10Z"/></g><path fill="url(#paint13_linear_18_12890)" d="M18.918 14h-3.796c-.611 0-1.102.49-1.102 1.1v5.8c0 .61.49 1.1 1.102 1.1h3.796c.611 0 1.102-.49 1.102-1.1v-5.8c0-.6-.49-1.1-1.102-1.1Z"/><path fill="url(#paint14_linear_18_12890)" d="M26.918 14h-3.796c-.611 0-1.102.49-1.102 1.1v5.8c0 .61.49 1.1 1.102 1.1h3.796c.611 0 1.102-.49 1.102-1.1v-5.8c0-.6-.49-1.1-1.102-1.1Z"/><g filter="url(#filter3_i_18_12890)"><path fill="url(#paint15_linear_18_12890)" d="M18.918 14h-3.796c-.611 0-1.102.49-1.102 1.1v5.8c0 .61.49 1.1 1.102 1.1h3.796c.611 0 1.102-.49 1.102-1.1v-5.8c0-.6-.49-1.1-1.102-1.1Z"/></g><g filter="url(#filter4_i_18_12890)"><path fill="url(#paint16_linear_18_12890)" d="M26.918 14h-3.796c-.611 0-1.102.49-1.102 1.1v5.8c0 .61.49 1.1 1.102 1.1h3.796c.611 0 1.102-.49 1.102-1.1v-5.8c0-.6-.49-1.1-1.102-1.1Z"/></g><path fill="url(#paint17_linear_18_12890)" d="M20.43 11h-8.82c-.33 0-.59.27-.59.59V12h10v-.41c0-.32-.27-.59-.59-.59Z"/><path fill="url(#paint18_linear_18_12890)" d="M20.43 11h-8.82c-.33 0-.59.27-.59.59V12h10v-.41c0-.32-.27-.59-.59-.59Z"/><path fill="url(#paint19_linear_18_12890)" d="M19.02 3h-6c-1.1 0-2 .9-2 2s.9 2 2 2h6c1.1 0 2-.9 2-2s-.9-2-2-2Z"/><path fill="url(#paint20_linear_18_12890)" d="M19.02 3h-6c-1.1 0-2 .9-2 2s.9 2 2 2h6c1.1 0 2-.9 2-2s-.9-2-2-2Z"/><path fill="url(#paint21_linear_18_12890)" d="M19.02 3h-6c-1.1 0-2 .9-2 2s.9 2 2 2h6c1.1 0 2-.9 2-2s-.9-2-2-2Z"/><path fill="url(#paint22_linear_18_12890)" d="M17.017 7h.003v4h-2V7.007c.594-.413 1.516-.382 1.997-.007Z"/><path fill="url(#paint23_radial_18_12890)" d="M17.017 7h.003v4h-2V7.007c.594-.413 1.516-.382 1.997-.007Z"/><path fill="url(#paint24_linear_18_12890)" d="M15.024 9.23c-.637.335-1.004 1.004-1.004 1.77h4c0-.766-.363-1.435-1-1.77h-1.996Z"/><defs><linearGradient id="paint0_linear_18_12890" x1="17.577" x2="17.516" y1="21.003" y2="35.5" gradientUnits="userSpaceOnUse"><stop offset=".519" stop-color="#fff"/><stop offset=".642" stop-color="#8D65C5"/><stop offset=".754" stop-color="#635994"/></linearGradient><linearGradient id="paint1_linear_18_12890" x1="2.02" x2="30.02" y1="24.678" y2="24.678" gradientUnits="userSpaceOnUse"><stop stop-color="#EEE2F5"/><stop offset="1" stop-color="#DFD4E6"/></linearGradient><linearGradient id="paint2_linear_18_12890" x1="30.02" x2="28.507" y1="22.004" y2="22.004" gradientUnits="userSpaceOnUse"><stop stop-color="#F0E9F5"/><stop offset="1" stop-color="#F0E9F5" stop-opacity="0"/></linearGradient><linearGradient id="paint3_linear_18_12890" x1="2.02" x2="30.322" y1="6" y2="6" gradientUnits="userSpaceOnUse"><stop stop-color="#837F87"/><stop offset="1" stop-color="#817D85"/></linearGradient><linearGradient id="paint5_linear_18_12890" x1="30.582" x2="2.708" y1="4" y2="4" gradientUnits="userSpaceOnUse"><stop stop-color="#C8C1CD"/><stop offset="1" stop-color="#DED7E4"/></linearGradient><linearGradient id="paint7_linear_18_12890" x1="30.582" x2="2.708" y1="7" y2="7" gradientUnits="userSpaceOnUse"><stop stop-color="#C8C1CD"/><stop offset="1" stop-color="#DED7E4"/></linearGradient><linearGradient id="paint8_linear_18_12890" x1="2.02" x2="3.921" y1="14.361" y2="14.361" gradientUnits="userSpaceOnUse"><stop offset=".255" stop-color="#4169A1"/><stop offset="1" stop-color="#4169A1" stop-opacity="0"/></linearGradient><linearGradient id="paint9_linear_18_12890" x1="2.411" x2="23.236" y1="27" y2="27" gradientUnits="userSpaceOnUse"><stop stop-color="#FFCA56"/><stop offset="1" stop-color="#FFA053"/></linearGradient><linearGradient id="paint11_linear_18_12890" x1="30.04" x2="28.858" y1="27" y2="27" gradientUnits="userSpaceOnUse"><stop stop-color="#FFB45D"/><stop offset="1" stop-color="#FFB45D" stop-opacity="0"/></linearGradient><linearGradient id="paint12_linear_18_12890" x1="3.02" x2="12.02" y1="23.25" y2="13.625" gradientUnits="userSpaceOnUse"><stop stop-color="#5EF0FF"/><stop offset="1" stop-color="#51C9FF"/></linearGradient><linearGradient id="paint13_linear_18_12890" x1="12.518" x2="20.627" y1="18.002" y2="18.002" gradientUnits="userSpaceOnUse"><stop stop-color="#C0FFFE"/><stop offset=".733" stop-color="#79DEF8"/><stop offset=".942" stop-color="#00A6ED"/></linearGradient><linearGradient id="paint14_linear_18_12890" x1="20.518" x2="28.627" y1="18.002" y2="18.002" gradientUnits="userSpaceOnUse"><stop stop-color="#C0FFFE"/><stop offset=".733" stop-color="#79DEF8"/><stop offset=".942" stop-color="#00A6ED"/></linearGradient><linearGradient id="paint15_linear_18_12890" x1="14.62" x2="21.664" y1="21.4" y2="15.75" gradientUnits="userSpaceOnUse"><stop stop-color="#6BFFFF"/><stop offset="1" stop-color="#51C9FF"/><stop offset="1" stop-color="#56D6FF"/></linearGradient><linearGradient id="paint16_linear_18_12890" x1="22.62" x2="29.664" y1="21.4" y2="15.75" gradientUnits="userSpaceOnUse"><stop stop-color="#6BFFFF"/><stop offset="1" stop-color="#51C9FF"/><stop offset="1" stop-color="#56D6FF"/></linearGradient><linearGradient id="paint17_linear_18_12890" x1="11.02" x2="21.02" y1="12" y2="12" gradientUnits="userSpaceOnUse"><stop stop-color="#9194A3"/><stop offset=".063" stop-color="#D8D5E2"/><stop offset=".93" stop-color="#D8D5E2"/><stop offset="1" stop-color="#F0EDF7"/></linearGradient><linearGradient id="paint18_linear_18_12890" x1="16.02" x2="16.02" y1="11" y2="11.266" gradientUnits="userSpaceOnUse"><stop stop-color="#D4D2D5"/><stop offset="1" stop-color="#D4D2D5" stop-opacity="0"/></linearGradient><linearGradient id="paint19_linear_18_12890" x1="11.02" x2="21.02" y1="5" y2="5" gradientUnits="userSpaceOnUse"><stop stop-color="#6C6770"/><stop offset=".191" stop-color="#919091"/><stop offset=".803" stop-color="#919091"/><stop offset="1" stop-color="#A8A7AA"/></linearGradient><linearGradient id="paint20_linear_18_12890" x1="17.582" x2="17.582" y1="7" y2="4.5" gradientUnits="userSpaceOnUse"><stop stop-color="#6F6879"/><stop offset="1" stop-color="#6F6879" stop-opacity="0"/></linearGradient><linearGradient id="paint21_linear_18_12890" x1="16.02" x2="16.02" y1="2.082" y2="4.059" gradientUnits="userSpaceOnUse"><stop stop-color="#706C75"/><stop offset=".943" stop-color="#706C75" stop-opacity="0"/></linearGradient><linearGradient id="paint22_linear_18_12890" x1="17.02" x2="15.207" y1="8.281" y2="8.281" gradientUnits="userSpaceOnUse"><stop stop-color="#A29FA5"/><stop offset="1" stop-color="#69666E"/></linearGradient><linearGradient id="paint24_linear_18_12890" x1="14.02" x2="17.677" y1="11" y2="11" gradientUnits="userSpaceOnUse"><stop stop-color="#626263"/><stop offset="1" stop-color="#ADABAE"/></linearGradient><filter id="filter0_i_18_12890" width="28.5" height="18.5" x="2.02" y="11.5" color-interpolation-filters="sRGB" filterUnits="userSpaceOnUse"><feFlood flood-opacity="0" result="BackgroundImageFix"/><feBlend in="SourceGraphic" in2="BackgroundImageFix" result="shape"/><feColorMatrix in="SourceAlpha" result="hardAlpha" values="0 0 0 0 0 0 0 0 0 0 0 0 0 0 0 0 0 0 127 0"/><feOffset dx=".5" dy="-.5"/><feGaussianBlur stdDeviation=".625"/><feComposite in2="hardAlpha" k2="-1" k3="1" operator="arithmetic"/><feColorMatrix values="0 0 0 0 0.690196 0 0 0 0 0.556863 0 0 0 0 0.788235 0 0 0 1 0"/><feBlend in2="shape" result="effect1_innerShadow_18_12890"/></filter><filter id="filter1_i_18_12890" width="28.75" height="4.75" x="1.27" y="12" color-interpolation-filters="sRGB" filterUnits="userSpaceOnUse"><feFlood flood-opacity="0" result="BackgroundImageFix"/><feBlend in="SourceGraphic" in2="BackgroundImageFix" result="shape"/><feColorMatrix in="SourceAlpha" result="hardAlpha" values="0 0 0 0 0 0 0 0 0 0 0 0 0 0 0 0 0 0 127 0"/><feOffset dx="-.75" dy=".75"/><feGaussianBlur stdDeviation=".5"/><feComposite in2="hardAlpha" k2="-1" k3="1" operator="arithmetic"/><feColorMatrix values="0 0 0 0 0.384314 0 0 0 0 0.643137 0 0 0 0 0.980392 0 0 0 1 0"/><feBlend in2="shape" result="effect1_innerShadow_18_12890"/></filter><filter id="filter2_i_18_12890" width="12" height="11.25" x=".02" y="14" color-interpolation-filters="sRGB" filterUnits="userSpaceOnUse"><feFlood flood-opacity="0" result="BackgroundImageFix"/><feBlend in="SourceGraphic" in2="BackgroundImageFix" result="shape"/><feColorMatrix in="SourceAlpha" result="hardAlpha" values="0 0 0 0 0 0 0 0 0 0 0 0 0 0 0 0 0 0 127 0"/><feOffset dx="-2" dy="1.25"/><feGaussianBlur stdDeviation="1"/><feComposite in2="hardAlpha" k2="-1" k3="1" operator="arithmetic"/><feColorMatrix values="0 0 0 0 0.243137 0 0 0 0 0.670588 0 0 0 0 0.913725 0 0 0 1 0"/><feBlend in2="shape" result="effect1_innerShadow_18_12890"/></filter><filter id="filter3_i_18_12890" width="6.75" height="8.5" x="13.27" y="14" color-interpolation-filters="sRGB" filterUnits="userSpaceOnUse"><feFlood flood-opacity="0" result="BackgroundImageFix"/><feBlend in="SourceGraphic" in2="BackgroundImageFix" result="shape"/><feColorMatrix in="SourceAlpha" result="hardAlpha" values="0 0 0 0 0 0 0 0 0 0 0 0 0 0 0 0 0 0 127 0"/><feOffset dx="-.75" dy=".5"/><feGaussianBlur stdDeviation=".5"/><feComposite in2="hardAlpha" k2="-1" k3="1" operator="arithmetic"/><feColorMatrix values="0 0 0 0 0.243137 0 0 0 0 0.670588 0 0 0 0 0.913725 0 0 0 1 0"/><feBlend in2="shape" result="effect1_innerShadow_18_12890"/></filter><filter id="filter4_i_18_12890" width="6.75" height="8.5" x="21.27" y="14" color-interpolation-filters="sRGB" filterUnits="userSpaceOnUse"><feFlood flood-opacity="0" result="BackgroundImageFix"/><feBlend in="SourceGraphic" in2="BackgroundImageFix" result="shape"/><feColorMatrix in="SourceAlpha" result="hardAlpha" values="0 0 0 0 0 0 0 0 0 0 0 0 0 0 0 0 0 0 127 0"/><feOffset dx="-.75" dy=".5"/><feGaussianBlur stdDeviation=".5"/><feComposite in2="hardAlpha" k2="-1" k3="1" operator="arithmetic"/><feColorMatrix values="0 0 0 0 0.243137 0 0 0 0 0.670588 0 0 0 0 0.913725 0 0 0 1 0"/><feBlend in2="shape" result="effect1_innerShadow_18_12890"/></filter><radialGradient id="paint4_radial_18_12890" cx="0" cy="0" r="1" gradientTransform="matrix(-1.0625 .90624 -1.24528 -1.46 12.098 5.734)" gradientUnits="userSpaceOnUse"><stop offset=".561" stop-color="#544D5C"/><stop offset="1" stop-color="#544D5C" stop-opacity="0"/></radialGradient><radialGradient id="paint6_radial_18_12890" cx="0" cy="0" r="1" gradientTransform="matrix(-1.76563 0 0 -1.85938 12.223 5)" gradientUnits="userSpaceOnUse"><stop offset=".374" stop-color="#918996"/><stop offset="1" stop-color="#918996" stop-opacity="0"/></radialGradient><radialGradient id="paint10_radial_18_12890" cx="0" cy="0" r="1" gradientTransform="matrix(-23.87508 7.94588 -111.24257 -334.25167 26.31 19.054)" gradientUnits="userSpaceOnUse"><stop offset=".93" stop-color="#B4934E" stop-opacity="0"/><stop offset=".993" stop-color="#B4934E"/></radialGradient><radialGradient id="paint23_radial_18_12890" cx="0" cy="0" r="1" gradientTransform="matrix(0 -4.37883 3.12506 0 16.02 11)" gradientUnits="userSpaceOnUse"><stop offset=".917" stop-color="#69666E" stop-opacity="0"/><stop offset=".984" stop-color="#69666E"/></radialGradient></defs></svg>