<svg xmlns="http://www.w3.org/2000/svg" width="32" height="32" fill="none" viewBox="0 0 32 32"><g filter="url(#filter0_i_18_17222)"><path fill="url(#paint0_radial_18_17222)" d="m14.722 7.696-.472.528 3.336 4.422 3.14-1.64c-.165-.994-.499-1.971-.897-2.863-.928-2.076-3.593-2.142-5.107-.447Z"/><path fill="url(#paint1_radial_18_17222)" d="m14.722 7.696-.472.528 3.336 4.422 3.14-1.64c-.165-.994-.499-1.971-.897-2.863-.928-2.076-3.593-2.142-5.107-.447Z"/><path fill="url(#paint2_linear_18_17222)" d="m14.722 7.696-.472.528 3.336 4.422 3.14-1.64c-.165-.994-.499-1.971-.897-2.863-.928-2.076-3.593-2.142-5.107-.447Z"/></g><g filter="url(#filter1_i_18_17222)"><path fill="url(#paint3_linear_18_17222)" d="m9.445 2.818-3.61 3.604-.218 1.568-1.588.234-1.805 1.801a1.239 1.239 0 0 0-.027 1.734c2.446 2.569 7.124 7.347 11.412 11.458 6.774 6.492 12.32 6.601 13.086 6.695.523.064 1.016-.031 1.14-.094.767-.383 2.206-1.364 2.017-2.375-.235-1.25-.99-1.61-2.344-2.64-.815-.62-1.459-1.81-1.64-2.258l-4.95-11.663a1.5 1.5 0 0 0-2.158-.697l-.339.206a1 1 0 0 1-1.234-.157l-4.451-4.56a1 1 0 0 1-.235-1.01l.28-.854c.151-.453.177-1.417-.898-1.68-1.075-.262-2.073.35-2.438.688Z"/><path fill="url(#paint4_linear_18_17222)" d="m9.445 2.818-3.61 3.604-.218 1.568-1.588.234-1.805 1.801a1.239 1.239 0 0 0-.027 1.734c2.446 2.569 7.124 7.347 11.412 11.458 6.774 6.492 12.32 6.601 13.086 6.695.523.064 1.016-.031 1.14-.094.767-.383 2.206-1.364 2.017-2.375-.235-1.25-.99-1.61-2.344-2.64-.815-.62-1.459-1.81-1.64-2.258l-4.95-11.663a1.5 1.5 0 0 0-2.158-.697l-.339.206a1 1 0 0 1-1.234-.157l-4.451-4.56a1 1 0 0 1-.235-1.01l.28-.854c.151-.453.177-1.417-.898-1.68-1.075-.262-2.073.35-2.438.688Z"/><path fill="url(#paint5_linear_18_17222)" d="m9.445 2.818-3.61 3.604-.218 1.568-1.588.234-1.805 1.801a1.239 1.239 0 0 0-.027 1.734c2.446 2.569 7.124 7.347 11.412 11.458 6.774 6.492 12.32 6.601 13.086 6.695.523.064 1.016-.031 1.14-.094.767-.383 2.206-1.364 2.017-2.375-.235-1.25-.99-1.61-2.344-2.64-.815-.62-1.459-1.81-1.64-2.258l-4.95-11.663a1.5 1.5 0 0 0-2.158-.697l-.339.206a1 1 0 0 1-1.234-.157l-4.451-4.56a1 1 0 0 1-.235-1.01l.28-.854c.151-.453.177-1.417-.898-1.68-1.075-.262-2.073.35-2.438.688Z"/></g><g filter="url(#filter2_f_18_17222)"><path fill="url(#paint6_linear_18_17222)" d="m23.25 24.108-4.992-13.056 2.062-.156 5.692 13.709c.18.43.503.785.917 1 .432.226.955.495 1.36.697.65.326.813 1.053.813 1.375l-4.27-1.9a3 3 0 0 1-1.581-1.669Z"/></g><g filter="url(#filter3_f_18_17222)"><rect width="4.289" height="2.141" x="18.313" y="12.553" fill="url(#paint7_linear_18_17222)" rx="1.07"/></g><g filter="url(#filter4_f_18_17222)"><rect width="4.289" height="2.141" x="19.906" y="15.92" fill="url(#paint8_linear_18_17222)" rx="1.07"/></g><g filter="url(#filter5_f_18_17222)"><rect width="4.289" height="2.141" x="21.242" y="19.459" fill="url(#paint9_linear_18_17222)" rx="1.07"/></g><g filter="url(#filter6_i_18_17222)"><rect width="4.75" height="2.156" x="18.445" y="12.396" fill="url(#paint10_radial_18_17222)" rx="1.078"/><rect width="4.75" height="2.156" x="18.445" y="12.396" fill="url(#paint11_radial_18_17222)" rx="1.078"/></g><g filter="url(#filter7_i_18_17222)"><rect width="4.75" height="2.156" x="20.055" y="15.74" fill="url(#paint12_radial_18_17222)" rx="1.078"/><rect width="4.75" height="2.156" x="20.055" y="15.74" fill="url(#paint13_radial_18_17222)" rx="1.078"/></g><g filter="url(#filter8_i_18_17222)"><rect width="4.75" height="2.156" x="21.305" y="19.287" fill="url(#paint14_radial_18_17222)" rx="1.078"/><rect width="4.75" height="2.156" x="21.305" y="19.287" fill="url(#paint15_radial_18_17222)" rx="1.078"/></g><g filter="url(#filter9_i_18_17222)"><path fill="url(#paint16_linear_18_17222)" d="M29.32 28.746c-3.271-.405-7.296-1.297-10.593-4.21-1.826-1.693-2.358-2.89-3-4.33-.502-1.13-1.072-2.41-2.383-4.197C10.912 12.696 7.96 9.8 6.149 8.021c-.341-.335-.642-.63-.892-.881a.1.1 0 0 0-.142 0l-2.891 2.885a1.239 1.239 0 0 0-.027 1.733c2.446 2.57 7.124 7.348 11.412 11.459 6.357 6.092 11.633 6.564 12.891 6.676.083.007.148.013.195.019.523.064 1.016-.031 1.14-.094.42-.21 1.04-.598 1.485-1.072Z"/><path fill="url(#paint17_linear_18_17222)" d="M29.32 28.746c-3.271-.405-7.296-1.297-10.593-4.21-1.826-1.693-2.358-2.89-3-4.33-.502-1.13-1.072-2.41-2.383-4.197C10.912 12.696 7.96 9.8 6.149 8.021c-.341-.335-.642-.63-.892-.881a.1.1 0 0 0-.142 0l-2.891 2.885a1.239 1.239 0 0 0-.027 1.733c2.446 2.57 7.124 7.348 11.412 11.459 6.357 6.092 11.633 6.564 12.891 6.676.083.007.148.013.195.019.523.064 1.016-.031 1.14-.094.42-.21 1.04-.598 1.485-1.072Z"/></g><path fill="url(#paint18_linear_18_17222)" d="M5.248 7.007a.1.1 0 0 0 .001.143l.044.042c.364.352.702.679.856.83 1.812 1.778 4.763 4.674 7.195 7.987.371.507.683.973.951 1.406l-.19-3.392a6 6 0 0 0-1.744-3.902L7.255 5.004 5.248 7.007Z"/><path fill="url(#paint19_linear_18_17222)" d="M5.248 7.007a.1.1 0 0 0 .001.143l.044.042c.364.352.702.679.856.83 1.812 1.778 4.763 4.674 7.195 7.987.371.507.683.973.951 1.406l-.19-3.392a6 6 0 0 0-1.744-3.902L7.255 5.004 5.248 7.007Z"/><g stroke-width=".25" filter="url(#filter10_f_18_17222)"><path stroke="url(#paint20_radial_18_17222)" d="M12.07 2.396c.235.183.644.706.407 1.344-.095.255-.183.51-.26.744a1.495 1.495 0 0 0 .343 1.496l4.321 4.538a1.5 1.5 0 0 0 2.03.132l.16-.129c.145-.12.546-.287.984 0"/><path stroke="url(#paint21_radial_18_17222)" d="M12.07 2.396c.235.183.644.706.407 1.344-.095.255-.183.51-.26.744a1.495 1.495 0 0 0 .343 1.496l4.321 4.538a1.5 1.5 0 0 0 2.03.132l.16-.129c.145-.12.546-.287.984 0"/></g><g filter="url(#filter11_f_18_17222)"><path stroke="url(#paint22_linear_18_17222)" stroke-linecap="round" stroke-width=".65" d="M19.883 13.303h2.719"/></g><g filter="url(#filter12_f_18_17222)"><path stroke="url(#paint23_linear_18_17222)" stroke-linecap="round" stroke-width=".65" d="M21.477 16.63h2.718"/></g><g filter="url(#filter13_f_18_17222)"><path stroke="url(#paint24_linear_18_17222)" stroke-linecap="round" stroke-width=".65" d="M22.602 20.177h2.718"/></g><defs><linearGradient id="paint2_linear_18_17222" x1="16.57" x2="17.883" y1="10.193" y2="8.412" gradientUnits="userSpaceOnUse"><stop offset=".066" stop-color="#5D4786"/><stop offset="1" stop-color="#5D4786" stop-opacity="0"/></linearGradient><linearGradient id="paint3_linear_18_17222" x1="22.664" x2="10.164" y1="26.974" y2="4.037" gradientUnits="userSpaceOnUse"><stop stop-color="#C0A6DC"/><stop offset="1" stop-color="#A591BA"/></linearGradient><linearGradient id="paint4_linear_18_17222" x1="8.727" x2="14.289" y1="3.474" y2="8.537" gradientUnits="userSpaceOnUse"><stop stop-color="#77757A"/><stop offset="1" stop-color="#77757A" stop-opacity="0"/></linearGradient><linearGradient id="paint5_linear_18_17222" x1="7.914" x2="9.07" y1="3.506" y2="4.599" gradientUnits="userSpaceOnUse"><stop stop-color="#8B8B8C"/><stop offset="1" stop-color="#8B8B8C" stop-opacity="0"/></linearGradient><linearGradient id="paint6_linear_18_17222" x1="19.977" x2="26.914" y1="11.537" y2="27.381" gradientUnits="userSpaceOnUse"><stop stop-color="#C9C5D2"/><stop offset="1" stop-color="#DBD7E5"/></linearGradient><linearGradient id="paint7_linear_18_17222" x1="18.482" x2="20.481" y1="14.104" y2="14.597" gradientUnits="userSpaceOnUse"><stop stop-color="#8E6AAE"/><stop offset="1" stop-color="#827C8D"/></linearGradient><linearGradient id="paint8_linear_18_17222" x1="20.076" x2="22.075" y1="17.471" y2="17.964" gradientUnits="userSpaceOnUse"><stop stop-color="#8E6AAE"/><stop offset="1" stop-color="#827C8D"/></linearGradient><linearGradient id="paint9_linear_18_17222" x1="21.412" x2="23.41" y1="21.01" y2="21.503" gradientUnits="userSpaceOnUse"><stop stop-color="#8E6AAE"/><stop offset="1" stop-color="#827C8D"/></linearGradient><linearGradient id="paint16_linear_18_17222" x1="18.664" x2="3.477" y1="27.724" y2="11.537" gradientUnits="userSpaceOnUse"><stop stop-color="#E5C7FF"/><stop offset="1" stop-color="#D1BEE6"/></linearGradient><linearGradient id="paint17_linear_18_17222" x1="2.977" x2="6.977" y1="8.599" y2="12.599" gradientUnits="userSpaceOnUse"><stop stop-color="#A3A2A5"/><stop offset="1" stop-color="#BEB4CD" stop-opacity="0"/></linearGradient><linearGradient id="paint18_linear_18_17222" x1="9.736" x2="10.539" y1="8.162" y2="16.599" gradientUnits="userSpaceOnUse"><stop stop-color="#5F5796"/><stop offset=".599" stop-color="#714699"/></linearGradient><linearGradient id="paint19_linear_18_17222" x1="5.976" x2="6.726" y1="6.162" y2="6.849" gradientUnits="userSpaceOnUse"><stop stop-color="#73738B"/><stop offset="1" stop-color="#73738B" stop-opacity="0"/></linearGradient><linearGradient id="paint22_linear_18_17222" x1="19.68" x2="24.32" y1="13.537" y2="13.537" gradientUnits="userSpaceOnUse"><stop stop-color="#F3E7FF"/><stop offset="1" stop-color="#F3E7FF" stop-opacity="0"/></linearGradient><linearGradient id="paint23_linear_18_17222" x1="21.273" x2="25.914" y1="16.865" y2="16.865" gradientUnits="userSpaceOnUse"><stop stop-color="#F3E7FF"/><stop offset="1" stop-color="#F3E7FF" stop-opacity="0"/></linearGradient><linearGradient id="paint24_linear_18_17222" x1="22.398" x2="27.039" y1="20.412" y2="20.412" gradientUnits="userSpaceOnUse"><stop stop-color="#F3E7FF"/><stop offset="1" stop-color="#F3E7FF" stop-opacity="0"/></linearGradient><filter id="filter0_i_18_17222" width="6.577" height="6.297" x="14.15" y="6.499" color-interpolation-filters="sRGB" filterUnits="userSpaceOnUse"><feFlood flood-opacity="0" result="BackgroundImageFix"/><feBlend in="SourceGraphic" in2="BackgroundImageFix" result="shape"/><feColorMatrix in="SourceAlpha" result="hardAlpha" values="0 0 0 0 0 0 0 0 0 0 0 0 0 0 0 0 0 0 127 0"/><feOffset dx="-.1" dy=".15"/><feGaussianBlur stdDeviation=".25"/><feComposite in2="hardAlpha" k2="-1" k3="1" operator="arithmetic"/><feColorMatrix values="0 0 0 0 0.639216 0 0 0 0 0.623529 0 0 0 0 0.756863 0 0 0 1 0"/><feBlend in2="shape" result="effect1_innerShadow_18_17222"/></filter><filter id="filter1_i_18_17222" width="28.262" height="28.016" x="1.857" y="2.067" color-interpolation-filters="sRGB" filterUnits="userSpaceOnUse"><feFlood flood-opacity="0" result="BackgroundImageFix"/><feBlend in="SourceGraphic" in2="BackgroundImageFix" result="shape"/><feColorMatrix in="SourceAlpha" result="hardAlpha" values="0 0 0 0 0 0 0 0 0 0 0 0 0 0 0 0 0 0 127 0"/><feOffset dx=".25" dy=".15"/><feGaussianBlur stdDeviation=".25"/><feComposite in2="hardAlpha" k2="-1" k3="1" operator="arithmetic"/><feColorMatrix values="0 0 0 0 0.521569 0 0 0 0 0.505882 0 0 0 0 0.564706 0 0 0 1 0"/><feBlend in2="shape" result="effect1_innerShadow_18_17222"/></filter><filter id="filter2_f_18_17222" width="13.844" height="19.781" x="16.758" y="9.396" color-interpolation-filters="sRGB" filterUnits="userSpaceOnUse"><feFlood flood-opacity="0" result="BackgroundImageFix"/><feBlend in="SourceGraphic" in2="BackgroundImageFix" result="shape"/><feGaussianBlur result="effect1_foregroundBlur_18_17222" stdDeviation=".75"/></filter><filter id="filter3_f_18_17222" width="4.789" height="2.641" x="18.063" y="12.303" color-interpolation-filters="sRGB" filterUnits="userSpaceOnUse"><feFlood flood-opacity="0" result="BackgroundImageFix"/><feBlend in="SourceGraphic" in2="BackgroundImageFix" result="shape"/><feGaussianBlur result="effect1_foregroundBlur_18_17222" stdDeviation=".125"/></filter><filter id="filter4_f_18_17222" width="4.789" height="2.641" x="19.656" y="15.67" color-interpolation-filters="sRGB" filterUnits="userSpaceOnUse"><feFlood flood-opacity="0" result="BackgroundImageFix"/><feBlend in="SourceGraphic" in2="BackgroundImageFix" result="shape"/><feGaussianBlur result="effect1_foregroundBlur_18_17222" stdDeviation=".125"/></filter><filter id="filter5_f_18_17222" width="4.789" height="2.641" x="20.992" y="19.209" color-interpolation-filters="sRGB" filterUnits="userSpaceOnUse"><feFlood flood-opacity="0" result="BackgroundImageFix"/><feBlend in="SourceGraphic" in2="BackgroundImageFix" result="shape"/><feGaussianBlur result="effect1_foregroundBlur_18_17222" stdDeviation=".125"/></filter><filter id="filter6_i_18_17222" width="5" height="2.206" x="18.445" y="12.396" color-interpolation-filters="sRGB" filterUnits="userSpaceOnUse"><feFlood flood-opacity="0" result="BackgroundImageFix"/><feBlend in="SourceGraphic" in2="BackgroundImageFix" result="shape"/><feColorMatrix in="SourceAlpha" result="hardAlpha" values="0 0 0 0 0 0 0 0 0 0 0 0 0 0 0 0 0 0 127 0"/><feOffset dx=".25" dy=".05"/><feGaussianBlur stdDeviation=".375"/><feComposite in2="hardAlpha" k2="-1" k3="1" operator="arithmetic"/><feColorMatrix values="0 0 0 0 0.654902 0 0 0 0 0.619608 0 0 0 0 0.705882 0 0 0 1 0"/><feBlend in2="shape" result="effect1_innerShadow_18_17222"/></filter><filter id="filter7_i_18_17222" width="5" height="2.206" x="20.055" y="15.74" color-interpolation-filters="sRGB" filterUnits="userSpaceOnUse"><feFlood flood-opacity="0" result="BackgroundImageFix"/><feBlend in="SourceGraphic" in2="BackgroundImageFix" result="shape"/><feColorMatrix in="SourceAlpha" result="hardAlpha" values="0 0 0 0 0 0 0 0 0 0 0 0 0 0 0 0 0 0 127 0"/><feOffset dx=".25" dy=".05"/><feGaussianBlur stdDeviation=".375"/><feComposite in2="hardAlpha" k2="-1" k3="1" operator="arithmetic"/><feColorMatrix values="0 0 0 0 0.654902 0 0 0 0 0.619608 0 0 0 0 0.705882 0 0 0 1 0"/><feBlend in2="shape" result="effect1_innerShadow_18_17222"/></filter><filter id="filter8_i_18_17222" width="5" height="2.206" x="21.305" y="19.287" color-interpolation-filters="sRGB" filterUnits="userSpaceOnUse"><feFlood flood-opacity="0" result="BackgroundImageFix"/><feBlend in="SourceGraphic" in2="BackgroundImageFix" result="shape"/><feColorMatrix in="SourceAlpha" result="hardAlpha" values="0 0 0 0 0 0 0 0 0 0 0 0 0 0 0 0 0 0 127 0"/><feOffset dx=".25" dy=".05"/><feGaussianBlur stdDeviation=".375"/><feComposite in2="hardAlpha" k2="-1" k3="1" operator="arithmetic"/><feColorMatrix values="0 0 0 0 0.654902 0 0 0 0 0.619608 0 0 0 0 0.705882 0 0 0 1 0"/><feBlend in2="shape" result="effect1_innerShadow_18_17222"/></filter><filter id="filter9_i_18_17222" width="27.613" height="23.323" x="1.857" y="6.61" color-interpolation-filters="sRGB" filterUnits="userSpaceOnUse"><feFlood flood-opacity="0" result="BackgroundImageFix"/><feBlend in="SourceGraphic" in2="BackgroundImageFix" result="shape"/><feColorMatrix in="SourceAlpha" result="hardAlpha" values="0 0 0 0 0 0 0 0 0 0 0 0 0 0 0 0 0 0 127 0"/><feOffset dx=".15" dy="-.5"/><feGaussianBlur stdDeviation=".5"/><feComposite in2="hardAlpha" k2="-1" k3="1" operator="arithmetic"/><feColorMatrix values="0 0 0 0 0.772549 0 0 0 0 0.54902 0 0 0 0 0.952941 0 0 0 1 0"/><feBlend in2="shape" result="effect1_innerShadow_18_17222"/></filter><filter id="filter10_f_18_17222" width="9.13" height="9.812" x="11.494" y="1.798" color-interpolation-filters="sRGB" filterUnits="userSpaceOnUse"><feFlood flood-opacity="0" result="BackgroundImageFix"/><feBlend in="SourceGraphic" in2="BackgroundImageFix" result="shape"/><feGaussianBlur result="effect1_foregroundBlur_18_17222" stdDeviation=".25"/></filter><filter id="filter11_f_18_17222" width="4.169" height="1.45" x="19.158" y="12.578" color-interpolation-filters="sRGB" filterUnits="userSpaceOnUse"><feFlood flood-opacity="0" result="BackgroundImageFix"/><feBlend in="SourceGraphic" in2="BackgroundImageFix" result="shape"/><feGaussianBlur result="effect1_foregroundBlur_18_17222" stdDeviation=".2"/></filter><filter id="filter12_f_18_17222" width="4.169" height="1.45" x="20.752" y="15.906" color-interpolation-filters="sRGB" filterUnits="userSpaceOnUse"><feFlood flood-opacity="0" result="BackgroundImageFix"/><feBlend in="SourceGraphic" in2="BackgroundImageFix" result="shape"/><feGaussianBlur result="effect1_foregroundBlur_18_17222" stdDeviation=".2"/></filter><filter id="filter13_f_18_17222" width="4.169" height="1.45" x="21.877" y="19.453" color-interpolation-filters="sRGB" filterUnits="userSpaceOnUse"><feFlood flood-opacity="0" result="BackgroundImageFix"/><feBlend in="SourceGraphic" in2="BackgroundImageFix" result="shape"/><feGaussianBlur result="effect1_foregroundBlur_18_17222" stdDeviation=".2"/></filter><radialGradient id="paint0_radial_18_17222" cx="0" cy="0" r="1" gradientTransform="rotate(160.534 9.291 6.245) scale(3.84477 5.45574)" gradientUnits="userSpaceOnUse"><stop stop-color="#8379B9"/><stop offset="1" stop-color="#67579A"/></radialGradient><radialGradient id="paint1_radial_18_17222" cx="0" cy="0" r="1" gradientTransform="rotate(159.605 8.368 7.396) scale(2.60052 2.14125)" gradientUnits="userSpaceOnUse"><stop offset=".501" stop-color="#5D4786"/><stop offset="1" stop-color="#5D4786" stop-opacity="0"/></radialGradient><radialGradient id="paint10_radial_18_17222" cx="0" cy="0" r="1" gradientTransform="matrix(4.28125 0 0 2.0188 18.914 14.553)" gradientUnits="userSpaceOnUse"><stop stop-color="#CA98F6"/><stop offset="1" stop-color="#DFDEE6"/></radialGradient><radialGradient id="paint11_radial_18_17222" cx="0" cy="0" r="1" gradientTransform="matrix(1.59375 .95313 -1.04382 1.7454 18.633 12.88)" gradientUnits="userSpaceOnUse"><stop stop-color="#B9A5D0"/><stop offset="1" stop-color="#B9A5D0" stop-opacity="0"/></radialGradient><radialGradient id="paint12_radial_18_17222" cx="0" cy="0" r="1" gradientTransform="matrix(4.28125 0 0 2.0188 20.523 17.896)" gradientUnits="userSpaceOnUse"><stop stop-color="#CA98F6"/><stop offset="1" stop-color="#DFDEE6"/></radialGradient><radialGradient id="paint13_radial_18_17222" cx="0" cy="0" r="1" gradientTransform="matrix(1.59375 .95313 -1.04382 1.7454 20.242 16.224)" gradientUnits="userSpaceOnUse"><stop stop-color="#B9A5D0"/><stop offset="1" stop-color="#B9A5D0" stop-opacity="0"/></radialGradient><radialGradient id="paint14_radial_18_17222" cx="0" cy="0" r="1" gradientTransform="matrix(4.28125 0 0 2.0188 21.773 21.443)" gradientUnits="userSpaceOnUse"><stop stop-color="#CA98F6"/><stop offset="1" stop-color="#DFDEE6"/></radialGradient><radialGradient id="paint15_radial_18_17222" cx="0" cy="0" r="1" gradientTransform="matrix(1.59375 .95313 -1.04382 1.7454 21.492 19.771)" gradientUnits="userSpaceOnUse"><stop stop-color="#B9A5D0"/><stop offset="1" stop-color="#B9A5D0" stop-opacity="0"/></radialGradient><radialGradient id="paint20_radial_18_17222" cx="0" cy="0" r="1" gradientTransform="matrix(.59375 3.85937 -3.42982 .52767 12.914 3.1)" gradientUnits="userSpaceOnUse"><stop offset=".296" stop-color="#BAB2C4"/><stop offset="1" stop-color="#BAB2C4" stop-opacity="0"/></radialGradient><radialGradient id="paint21_radial_18_17222" cx="0" cy="0" r="1" gradientTransform="rotate(-147.031 11.383 2.735) scale(8.26916 7.34879)" gradientUnits="userSpaceOnUse"><stop stop-color="#CFCBD5"/><stop offset="1" stop-color="#BAB2C4" stop-opacity="0"/></radialGradient></defs></svg>